{
    "header": {
        "PPQ": 240,
        "timeSignature": [
            4,
            4
        ],
        "bpm": 100,
        "name": ""
    },
    "startTime": 0,
    "duration": 331.73999999998097,
    "tracks": [
        {
            "startTime": 0,
            "duration": 0,
            "length": 0,
            "notes": [],
            "controlChanges": {},
            "id": 0
        },
        {
            "startTime": 0.49499999999999994,
            "duration": 331.73999999998097,
            "length": 3941,
            "notes": [
                {
                    "name": "D#5",
                    "midi": 75,
                    "time": 0.49499999999999994,
                    "velocity": 0.2047244094488189,
                    "duration": 0.23249999999999998
                },
                {
                    "name": "E4",
                    "midi": 64,
                    "time": 0.49999999999999994,
                    "velocity": 0.16535433070866143,
                    "duration": 0.195
                },
                {
                    "name": "B4",
                    "midi": 71,
                    "time": 0.5149999999999999,
                    "velocity": 0.1889763779527559,
                    "duration": 0.27249999999999996
                },
                {
                    "name": "G#5",
                    "midi": 80,
                    "time": 0.7799999999999999,
                    "velocity": 0.2283464566929134,
                    "duration": 0.14249999999999996
                },
                {
                    "name": "G#4",
                    "midi": 68,
                    "time": 0.9449999999999998,
                    "velocity": 0.2677165354330709,
                    "duration": 0.04499999999999993
                },
                {
                    "name": "E5",
                    "midi": 76,
                    "time": 0.9624999999999998,
                    "velocity": 0.18110236220472442,
                    "duration": 0.05500000000000005
                },
                {
                    "name": "D#6",
                    "midi": 87,
                    "time": 0.9699999999999998,
                    "velocity": 0.3228346456692913,
                    "duration": 0.1575000000000002
                },
                {
                    "name": "F#6",
                    "midi": 90,
                    "time": 1.1675,
                    "velocity": 0.3858267716535433,
                    "duration": 0.14500000000000002
                },
                {
                    "name": "B5",
                    "midi": 83,
                    "time": 1.3525,
                    "velocity": 0.28346456692913385,
                    "duration": 0.04249999999999998
                },
                {
                    "name": "E5",
                    "midi": 76,
                    "time": 1.3725,
                    "velocity": 0.18110236220472442,
                    "duration": 0.04499999999999993
                },
                {
                    "name": "D#6",
                    "midi": 87,
                    "time": 1.375,
                    "velocity": 0.29133858267716534,
                    "duration": 0.1399999999999999
                },
                {
                    "name": "G#5",
                    "midi": 80,
                    "time": 1.5625,
                    "velocity": 0.2440944881889764,
                    "duration": 0.12499999999999956
                },
                {
                    "name": "C#5",
                    "midi": 73,
                    "time": 1.7299999999999995,
                    "velocity": 0.3228346456692913,
                    "duration": 0.09999999999999964
                },
                {
                    "name": "A4",
                    "midi": 69,
                    "time": 1.7649999999999992,
                    "velocity": 0.23622047244094488,
                    "duration": 0.07249999999999979
                },
                {
                    "name": "E5",
                    "midi": 76,
                    "time": 1.772499999999999,
                    "velocity": 0.1889763779527559,
                    "duration": 0.06499999999999995
                },
                {
                    "name": "G#5",
                    "midi": 80,
                    "time": 1.834999999999999,
                    "velocity": 0.3937007874015748,
                    "duration": 0.11999999999999988
                },
                {
                    "name": "C#6",
                    "midi": 85,
                    "time": 1.912499999999999,
                    "velocity": 0.3779527559055118,
                    "duration": 0.11499999999999999
                },
                {
                    "name": "E6",
                    "midi": 88,
                    "time": 2.019999999999999,
                    "velocity": 0.3464566929133858,
                    "duration": 0.06499999999999995
                },
                {
                    "name": "B4",
                    "midi": 71,
                    "time": 2.1349999999999985,
                    "velocity": 0.2283464566929134,
                    "duration": 0.16499999999999915
                },
                {
                    "name": "D#5",
                    "midi": 75,
                    "time": 2.1349999999999985,
                    "velocity": 0.33070866141732286,
                    "duration": 0.18499999999999917
                },
                {
                    "name": "E4",
                    "midi": 64,
                    "time": 2.1574999999999984,
                    "velocity": 0.13385826771653545,
                    "duration": 0.12749999999999906
                },
                {
                    "name": "G#5",
                    "midi": 80,
                    "time": 2.3999999999999977,
                    "velocity": 0.4015748031496063,
                    "duration": 0.11249999999999982
                },
                {
                    "name": "D#6",
                    "midi": 87,
                    "time": 2.5099999999999976,
                    "velocity": 0.4015748031496063,
                    "duration": 0.1899999999999995
                },
                {
                    "name": "G#4",
                    "midi": 68,
                    "time": 2.5124999999999975,
                    "velocity": 0.33858267716535434,
                    "duration": 0.037499999999999645
                },
                {
                    "name": "E5",
                    "midi": 76,
                    "time": 2.5199999999999974,
                    "velocity": 0.2992125984251969,
                    "duration": 0.0674999999999999
                },
                {
                    "name": "F#6",
                    "midi": 90,
                    "time": 2.7124999999999972,
                    "velocity": 0.3543307086614173,
                    "duration": 0.16500000000000004
                },
                {
                    "name": "B5",
                    "midi": 83,
                    "time": 2.8999999999999972,
                    "velocity": 0.3543307086614173,
                    "duration": 0.04249999999999954
                },
                {
                    "name": "D#6",
                    "midi": 87,
                    "time": 2.907499999999997,
                    "velocity": 0.30708661417322836,
                    "duration": 0.14499999999999957
                },
                {
                    "name": "E5",
                    "midi": 76,
                    "time": 2.914999999999997,
                    "velocity": 0.2992125984251969,
                    "duration": 0.047499999999999876
                },
                {
                    "name": "G#5",
                    "midi": 80,
                    "time": 3.107499999999997,
                    "velocity": 0.3228346456692913,
                    "duration": 0.1200000000000001
                },
                {
                    "name": "C#5",
                    "midi": 73,
                    "time": 3.2949999999999964,
                    "velocity": 0.33858267716535434,
                    "duration": 0.12249999999999961
                },
                {
                    "name": "E5",
                    "midi": 76,
                    "time": 3.337499999999996,
                    "velocity": 0.25196850393700787,
                    "duration": 0.06000000000000005
                },
                {
                    "name": "A4",
                    "midi": 69,
                    "time": 3.3449999999999958,
                    "velocity": 0.1968503937007874,
                    "duration": 0.05500000000000016
                },
                {
                    "name": "G#5",
                    "midi": 80,
                    "time": 3.414999999999996,
                    "velocity": 0.3858267716535433,
                    "duration": 0.1299999999999999
                },
                {
                    "name": "C#6",
                    "midi": 85,
                    "time": 3.497499999999996,
                    "velocity": 0.4251968503937008,
                    "duration": 0.12749999999999995
                },
                {
                    "name": "E6",
                    "midi": 88,
                    "time": 3.624999999999996,
                    "velocity": 0.30708661417322836,
                    "duration": 0.0974999999999997
                },
                {
                    "name": "B4",
                    "midi": 71,
                    "time": 3.714999999999996,
                    "velocity": 0.33070866141732286,
                    "duration": 0.1599999999999988
                },
                {
                    "name": "E4",
                    "midi": 64,
                    "time": 3.717499999999996,
                    "velocity": 0.1732283464566929,
                    "duration": 0.13999999999999924
                },
                {
                    "name": "D#5",
                    "midi": 75,
                    "time": 3.7224999999999957,
                    "velocity": 0.33858267716535434,
                    "duration": 0.1974999999999989
                },
                {
                    "name": "G#5",
                    "midi": 80,
                    "time": 3.9174999999999947,
                    "velocity": 0.41732283464566927,
                    "duration": 0.202500000000001
                },
                {
                    "name": "E5",
                    "midi": 76,
                    "time": 4.097499999999995,
                    "velocity": 0.2677165354330709,
                    "duration": 0.07000000000000117
                },
                {
                    "name": "G#4",
                    "midi": 68,
                    "time": 4.104999999999995,
                    "velocity": 0.31496062992125984,
                    "duration": 0.05000000000000071
                },
                {
                    "name": "D#6",
                    "midi": 87,
                    "time": 4.112499999999995,
                    "velocity": 0.3937007874015748,
                    "duration": 0.1875000000000009
                },
                {
                    "name": "F#6",
                    "midi": 90,
                    "time": 4.309999999999996,
                    "velocity": 0.4094488188976378,
                    "duration": 0.09499999999999975
                },
                {
                    "name": "G#5",
                    "midi": 80,
                    "time": 4.499999999999996,
                    "velocity": 0.4566929133858268,
                    "duration": 0.1949999999999994
                },
                {
                    "name": "B4",
                    "midi": 71,
                    "time": 4.499999999999996,
                    "velocity": 0.3228346456692913,
                    "duration": 0.12499999999999911
                },
                {
                    "name": "E5",
                    "midi": 76,
                    "time": 4.5049999999999955,
                    "velocity": 0.33070866141732286,
                    "duration": 0.1274999999999995
                },
                {
                    "name": "D#6",
                    "midi": 87,
                    "time": 4.799999999999995,
                    "velocity": 0.4566929133858268,
                    "duration": 0.1250000000000009
                },
                {
                    "name": "G#6",
                    "midi": 92,
                    "time": 4.902499999999995,
                    "velocity": 0.4566929133858268,
                    "duration": 0.19000000000000128
                },
                {
                    "name": "B5",
                    "midi": 83,
                    "time": 4.904999999999996,
                    "velocity": 0.16535433070866143,
                    "duration": 0.08250000000000046
                },
                {
                    "name": "E5",
                    "midi": 76,
                    "time": 4.912499999999996,
                    "velocity": 0.3228346456692913,
                    "duration": 0.05250000000000021
                },
                {
                    "name": "B6",
                    "midi": 95,
                    "time": 5.1024999999999965,
                    "velocity": 0.4251968503937008,
                    "duration": 0.042500000000000426
                },
                {
                    "name": "E5",
                    "midi": 76,
                    "time": 5.312499999999998,
                    "velocity": 0.2204724409448819,
                    "duration": 0.1625000000000023
                },
                {
                    "name": "A4",
                    "midi": 69,
                    "time": 5.314999999999999,
                    "velocity": 0.30708661417322836,
                    "duration": 0.16000000000000192
                },
                {
                    "name": "G#5",
                    "midi": 80,
                    "time": 5.327499999999999,
                    "velocity": 0.25196850393700787,
                    "duration": 0.14750000000000174
                },
                {
                    "name": "C#6",
                    "midi": 85,
                    "time": 5.505000000000001,
                    "velocity": 0.3937007874015748,
                    "duration": 0.20749999999999957
                },
                {
                    "name": "G#6",
                    "midi": 92,
                    "time": 5.702500000000001,
                    "velocity": 0.4251968503937008,
                    "duration": 0.16249999999999964
                },
                {
                    "name": "C#5",
                    "midi": 73,
                    "time": 5.715000000000001,
                    "velocity": 0.2677165354330709,
                    "duration": 0.037499999999999645
                },
                {
                    "name": "A5",
                    "midi": 81,
                    "time": 5.735,
                    "velocity": 0.30708661417322836,
                    "duration": 0.04999999999999982
                },
                {
                    "name": "C#7",
                    "midi": 97,
                    "time": 5.905,
                    "velocity": 0.3464566929133858,
                    "duration": 0.13250000000000028
                },
                {
                    "name": "G#6",
                    "midi": 92,
                    "time": 6.077500000000001,
                    "velocity": 0.33858267716535434,
                    "duration": 0.1775000000000002
                },
                {
                    "name": "E6",
                    "midi": 88,
                    "time": 6.085000000000001,
                    "velocity": 0.4015748031496063,
                    "duration": 0.037499999999999645
                },
                {
                    "name": "A5",
                    "midi": 81,
                    "time": 6.105,
                    "velocity": 0.3937007874015748,
                    "duration": 0.040000000000000036
                },
                {
                    "name": "C#6",
                    "midi": 85,
                    "time": 6.267500000000001,
                    "velocity": 0.36220472440944884,
                    "duration": 0.08750000000000036
                },
                {
                    "name": "D4",
                    "midi": 62,
                    "time": 6.395000000000001,
                    "velocity": 0.4330708661417323,
                    "duration": 0.11249999999999893
                },
                {
                    "name": "F#5",
                    "midi": 78,
                    "time": 6.445000000000001,
                    "velocity": 0.36220472440944884,
                    "duration": 0.10499999999999954
                },
                {
                    "name": "F#4",
                    "midi": 66,
                    "time": 6.460000000000001,
                    "velocity": 0.4094488188976378,
                    "duration": 0.08999999999999986
                },
                {
                    "name": "C6",
                    "midi": 84,
                    "time": 6.552500000000001,
                    "velocity": 0.4409448818897638,
                    "duration": 0.11500000000000021
                },
                {
                    "name": "C5",
                    "midi": 72,
                    "time": 6.575000000000001,
                    "velocity": 0.4015748031496063,
                    "duration": 0.05250000000000021
                },
                {
                    "name": "E6",
                    "midi": 88,
                    "time": 6.625000000000001,
                    "velocity": 0.4251968503937008,
                    "duration": 0.11500000000000021
                },
                {
                    "name": "G#6",
                    "midi": 92,
                    "time": 6.722500000000001,
                    "velocity": 0.2992125984251969,
                    "duration": 0.08750000000000036
                },
                {
                    "name": "A4",
                    "midi": 69,
                    "time": 6.810000000000001,
                    "velocity": 0.3858267716535433,
                    "duration": 0.13500000000000068
                },
                {
                    "name": "G#5",
                    "midi": 80,
                    "time": 6.822500000000002,
                    "velocity": 0.3937007874015748,
                    "duration": 0.15750000000000064
                },
                {
                    "name": "E5",
                    "midi": 76,
                    "time": 6.825000000000002,
                    "velocity": 0.3700787401574803,
                    "duration": 0.15000000000000036
                },
                {
                    "name": "C#6",
                    "midi": 85,
                    "time": 6.992500000000002,
                    "velocity": 0.5039370078740157,
                    "duration": 0.21750000000000025
                },
                {
                    "name": "G#6",
                    "midi": 92,
                    "time": 7.200000000000002,
                    "velocity": 0.4881889763779528,
                    "duration": 0.1800000000000015
                },
                {
                    "name": "C#5",
                    "midi": 73,
                    "time": 7.200000000000002,
                    "velocity": 0.29133858267716534,
                    "duration": 0.0525000000000011
                },
                {
                    "name": "A5",
                    "midi": 81,
                    "time": 7.202500000000002,
                    "velocity": 0.3543307086614173,
                    "duration": 0.0525000000000011
                },
                {
                    "name": "C#7",
                    "midi": 97,
                    "time": 7.395000000000003,
                    "velocity": 0.4094488188976378,
                    "duration": 0.1825000000000001
                },
                {
                    "name": "G#6",
                    "midi": 92,
                    "time": 7.575000000000003,
                    "velocity": 0.36220472440944884,
                    "duration": 0.16749999999999954
                },
                {
                    "name": "E6",
                    "midi": 88,
                    "time": 7.582500000000003,
                    "velocity": 0.3858267716535433,
                    "duration": 0.034999999999999254
                },
                {
                    "name": "A5",
                    "midi": 81,
                    "time": 7.597500000000003,
                    "velocity": 0.3464566929133858,
                    "duration": 0.04249999999999954
                },
                {
                    "name": "C#6",
                    "midi": 85,
                    "time": 7.762500000000002,
                    "velocity": 0.3700787401574803,
                    "duration": 0.08249999999999957
                },
                {
                    "name": "D4",
                    "midi": 62,
                    "time": 7.920000000000001,
                    "velocity": 0.4409448818897638,
                    "duration": 0.11500000000000465
                },
                {
                    "name": "F#4",
                    "midi": 66,
                    "time": 7.965000000000001,
                    "velocity": 0.3858267716535433,
                    "duration": 0.11250000000000515
                },
                {
                    "name": "F#5",
                    "midi": 78,
                    "time": 7.977500000000001,
                    "velocity": 0.28346456692913385,
                    "duration": 0.12000000000000455
                },
                {
                    "name": "C6",
                    "midi": 84,
                    "time": 8.097500000000005,
                    "velocity": 0.3464566929133858,
                    "duration": 0.11499999999999844
                },
                {
                    "name": "C5",
                    "midi": 72,
                    "time": 8.117500000000005,
                    "velocity": 0.33070866141732286,
                    "duration": 0.06999999999999851
                },
                {
                    "name": "E6",
                    "midi": 88,
                    "time": 8.175000000000004,
                    "velocity": 0.3779527559055118,
                    "duration": 0.11499999999999844
                },
                {
                    "name": "G#6",
                    "midi": 92,
                    "time": 8.252500000000003,
                    "velocity": 0.2677165354330709,
                    "duration": 0.11749999999999972
                },
                {
                    "name": "A4",
                    "midi": 69,
                    "time": 8.372500000000002,
                    "velocity": 0.3937007874015748,
                    "duration": 0.15000000000000568
                },
                {
                    "name": "E5",
                    "midi": 76,
                    "time": 8.375000000000002,
                    "velocity": 0.31496062992125984,
                    "duration": 0.15750000000000597
                },
                {
                    "name": "G#5",
                    "midi": 80,
                    "time": 8.387500000000001,
                    "velocity": 0.41732283464566927,
                    "duration": 0.1900000000000066
                },
                {
                    "name": "C#6",
                    "midi": 85,
                    "time": 8.585000000000008,
                    "velocity": 0.5196850393700787,
                    "duration": 0.2350000000000012
                },
                {
                    "name": "A5",
                    "midi": 81,
                    "time": 8.777500000000009,
                    "velocity": 0.3937007874015748,
                    "duration": 0.0625
                },
                {
                    "name": "G#6",
                    "midi": 92,
                    "time": 8.785000000000009,
                    "velocity": 0.4330708661417323,
                    "duration": 0.18499999999999872
                },
                {
                    "name": "C#5",
                    "midi": 73,
                    "time": 8.785000000000009,
                    "velocity": 0.33070866141732286,
                    "duration": 0.09249999999999936
                },
                {
                    "name": "C#7",
                    "midi": 97,
                    "time": 8.975000000000009,
                    "velocity": 0.47244094488188976,
                    "duration": 0.0600000000000005
                },
                {
                    "name": "C5",
                    "midi": 72,
                    "time": 9.16500000000001,
                    "velocity": 0.3937007874015748,
                    "duration": 0.120000000000001
                },
                {
                    "name": "F#4",
                    "midi": 66,
                    "time": 9.17500000000001,
                    "velocity": 0.33070866141732286,
                    "duration": 0.1700000000000017
                },
                {
                    "name": "F#5",
                    "midi": 78,
                    "time": 9.19500000000001,
                    "velocity": 0.2992125984251969,
                    "duration": 0.18250000000000277
                },
                {
                    "name": "C6",
                    "midi": 84,
                    "time": 9.400000000000013,
                    "velocity": 0.5039370078740157,
                    "duration": 0.21499999999999986
                },
                {
                    "name": "E6",
                    "midi": 88,
                    "time": 9.607500000000012,
                    "velocity": 0.48031496062992124,
                    "duration": 0.15750000000000064
                },
                {
                    "name": "D4",
                    "midi": 62,
                    "time": 9.617500000000012,
                    "velocity": 0.3228346456692913,
                    "duration": 0.120000000000001
                },
                {
                    "name": "A4",
                    "midi": 69,
                    "time": 9.637500000000012,
                    "velocity": 0.2992125984251969,
                    "duration": 0.07750000000000057
                },
                {
                    "name": "G#6",
                    "midi": 92,
                    "time": 9.795000000000012,
                    "velocity": 0.5039370078740157,
                    "duration": 0.0625
                },
                {
                    "name": "G#4",
                    "midi": 68,
                    "time": 10.042500000000015,
                    "velocity": 0.2125984251968504,
                    "duration": 0.1425000000000054
                },
                {
                    "name": "A#3",
                    "midi": 58,
                    "time": 10.042500000000015,
                    "velocity": 0.1732283464566929,
                    "duration": 0.3075000000000063
                },
                {
                    "name": "D5",
                    "midi": 74,
                    "time": 10.060000000000015,
                    "velocity": 0.33070866141732286,
                    "duration": 0.11500000000000554
                },
                {
                    "name": "G#5",
                    "midi": 80,
                    "time": 10.14000000000002,
                    "velocity": 0.4251968503937008,
                    "duration": 0.09750000000000014
                },
                {
                    "name": "C6",
                    "midi": 84,
                    "time": 10.25500000000002,
                    "velocity": 0.4251968503937008,
                    "duration": 0.09750000000000014
                },
                {
                    "name": "E6",
                    "midi": 88,
                    "time": 10.34500000000002,
                    "velocity": 0.48031496062992124,
                    "duration": 0.11000000000000476
                },
                {
                    "name": "C#6",
                    "midi": 85,
                    "time": 10.430000000000025,
                    "velocity": 0.49606299212598426,
                    "duration": 0.125
                },
                {
                    "name": "G3",
                    "midi": 55,
                    "time": 10.445000000000025,
                    "velocity": 0.3779527559055118,
                    "duration": 0.42999999999999794
                },
                {
                    "name": "F4",
                    "midi": 65,
                    "time": 10.447500000000025,
                    "velocity": 0.31496062992125984,
                    "duration": 0.06750000000000078
                },
                {
                    "name": "A5",
                    "midi": 81,
                    "time": 10.545000000000025,
                    "velocity": 0.4251968503937008,
                    "duration": 0.037499999999999645
                },
                {
                    "name": "F5",
                    "midi": 77,
                    "time": 10.625000000000025,
                    "velocity": 0.47244094488188976,
                    "duration": 0.03999999999999915
                },
                {
                    "name": "B4",
                    "midi": 71,
                    "time": 10.732500000000025,
                    "velocity": 0.4566929133858268,
                    "duration": 0.042500000000000426
                },
                {
                    "name": "E3",
                    "midi": 52,
                    "time": 10.875000000000023,
                    "velocity": 0.4094488188976378,
                    "duration": 0.16999999999999993
                },
                {
                    "name": "D4",
                    "midi": 62,
                    "time": 10.882500000000023,
                    "velocity": 0.3858267716535433,
                    "duration": 0.10500000000000043
                },
                {
                    "name": "G#4",
                    "midi": 68,
                    "time": 10.885000000000023,
                    "velocity": 0.41732283464566927,
                    "duration": 0.11000000000000121
                },
                {
                    "name": "D5",
                    "midi": 74,
                    "time": 10.997500000000024,
                    "velocity": 0.4251968503937008,
                    "duration": 0.10749999999999993
                },
                {
                    "name": "F#5",
                    "midi": 78,
                    "time": 11.082500000000023,
                    "velocity": 0.4566929133858268,
                    "duration": 0.11250000000000071
                },
                {
                    "name": "A#5",
                    "midi": 82,
                    "time": 11.167500000000024,
                    "velocity": 0.4645669291338583,
                    "duration": 0.1399999999999988
                },
                {
                    "name": "C#3",
                    "midi": 49,
                    "time": 11.272500000000024,
                    "velocity": 0.36220472440944884,
                    "duration": 0.11249999999999893
                },
                {
                    "name": "B3",
                    "midi": 59,
                    "time": 11.275000000000023,
                    "velocity": 0.36220472440944884,
                    "duration": 0.09499999999999886
                },
                {
                    "name": "G5",
                    "midi": 79,
                    "time": 11.282500000000024,
                    "velocity": 0.48031496062992124,
                    "duration": 0.09249999999999936
                },
                {
                    "name": "D5",
                    "midi": 74,
                    "time": 11.375000000000023,
                    "velocity": 0.4645669291338583,
                    "duration": 0.049999999999998934
                },
                {
                    "name": "B4",
                    "midi": 71,
                    "time": 11.475000000000023,
                    "velocity": 0.4094488188976378,
                    "duration": 0.03999999999999915
                },
                {
                    "name": "F4",
                    "midi": 65,
                    "time": 11.577500000000022,
                    "velocity": 0.4409448818897638,
                    "duration": 0.08750000000000036
                },
                {
                    "name": "A#2",
                    "midi": 46,
                    "time": 11.710000000000024,
                    "velocity": 0.33070866141732286,
                    "duration": 0.0850000000000044
                },
                {
                    "name": "G#3",
                    "midi": 56,
                    "time": 11.712500000000023,
                    "velocity": 0.3937007874015748,
                    "duration": 0.09750000000000547
                },
                {
                    "name": "D4",
                    "midi": 62,
                    "time": 11.735000000000024,
                    "velocity": 0.4015748031496063,
                    "duration": 0.10000000000000497
                },
                {
                    "name": "G#4",
                    "midi": 68,
                    "time": 12.000000000000028,
                    "velocity": 0.3464566929133858,
                    "duration": 0.022500000000000853
                },
                {
                    "name": "G#4",
                    "midi": 68,
                    "time": 12.13500000000003,
                    "velocity": 0.3779527559055118,
                    "duration": 0.36249999999999893
                },
                {
                    "name": "A#3",
                    "midi": 58,
                    "time": 12.14250000000003,
                    "velocity": 0.41732283464566927,
                    "duration": 0.42249999999999943
                },
                {
                    "name": "C5",
                    "midi": 72,
                    "time": 12.18000000000003,
                    "velocity": 0.15748031496062992,
                    "duration": 0.10249999999999915
                },
                {
                    "name": "E5",
                    "midi": 76,
                    "time": 12.382500000000029,
                    "velocity": 0.29133858267716534,
                    "duration": 0.13750000000000107
                },
                {
                    "name": "C5",
                    "midi": 72,
                    "time": 12.595000000000029,
                    "velocity": 0.25984251968503935,
                    "duration": 0.14750000000000085
                },
                {
                    "name": "G#4",
                    "midi": 68,
                    "time": 12.77250000000003,
                    "velocity": 0.25196850393700787,
                    "duration": 0.08249999999999957
                },
                {
                    "name": "C#3",
                    "midi": 49,
                    "time": 13.002500000000033,
                    "velocity": 0.31496062992125984,
                    "duration": 0.23500000000000298
                },
                {
                    "name": "B3",
                    "midi": 59,
                    "time": 13.005000000000033,
                    "velocity": 0.30708661417322836,
                    "duration": 0.23250000000000348
                },
                {
                    "name": "G4",
                    "midi": 67,
                    "time": 13.005000000000033,
                    "velocity": 0.25984251968503935,
                    "duration": 0.10500000000000398
                },
                {
                    "name": "F4",
                    "midi": 65,
                    "time": 13.010000000000034,
                    "velocity": 0.2204724409448819,
                    "duration": 0.1025000000000027
                },
                {
                    "name": "B4",
                    "midi": 71,
                    "time": 13.102500000000036,
                    "velocity": 0.36220472440944884,
                    "duration": 0.1349999999999998
                },
                {
                    "name": "D5",
                    "midi": 74,
                    "time": 13.192500000000036,
                    "velocity": 0.41732283464566927,
                    "duration": 0.10749999999999993
                },
                {
                    "name": "G5",
                    "midi": 79,
                    "time": 13.292500000000036,
                    "velocity": 0.5196850393700787,
                    "duration": 0.042500000000000426
                },
                {
                    "name": "A#2",
                    "midi": 46,
                    "time": 13.420000000000039,
                    "velocity": 0.4094488188976378,
                    "duration": 0.08000000000000362
                },
                {
                    "name": "G#3",
                    "midi": 56,
                    "time": 13.42750000000004,
                    "velocity": 0.44881889763779526,
                    "duration": 0.08500000000000263
                },
                {
                    "name": "D4",
                    "midi": 62,
                    "time": 13.485000000000042,
                    "velocity": 0.3937007874015748,
                    "duration": 0.10749999999999993
                },
                {
                    "name": "G#4",
                    "midi": 68,
                    "time": 13.640000000000041,
                    "velocity": 0.41732283464566927,
                    "duration": 0.10999999999999943
                },
                {
                    "name": "G#4",
                    "midi": 68,
                    "time": 13.865000000000041,
                    "velocity": 0.4094488188976378,
                    "duration": 0.3849999999999998
                },
                {
                    "name": "A#3",
                    "midi": 58,
                    "time": 13.87750000000004,
                    "velocity": 0.4409448818897638,
                    "duration": 0.4474999999999998
                },
                {
                    "name": "C5",
                    "midi": 72,
                    "time": 13.89750000000004,
                    "velocity": 0.2204724409448819,
                    "duration": 0.10500000000000043
                },
                {
                    "name": "E5",
                    "midi": 76,
                    "time": 14.115000000000041,
                    "velocity": 0.1968503937007874,
                    "duration": 0.1225000000000005
                },
                {
                    "name": "C5",
                    "midi": 72,
                    "time": 14.40000000000004,
                    "velocity": 0.29133858267716534,
                    "duration": 0.0600000000000005
                },
                {
                    "name": "G#4",
                    "midi": 68,
                    "time": 14.48500000000004,
                    "velocity": 0.3543307086614173,
                    "duration": 0.07249999999999979
                },
                {
                    "name": "G4",
                    "midi": 67,
                    "time": 14.717500000000044,
                    "velocity": 0.2440944881889764,
                    "duration": 0.11750000000000149
                },
                {
                    "name": "B3",
                    "midi": 59,
                    "time": 14.725000000000044,
                    "velocity": 0.25984251968503935,
                    "duration": 0.08750000000000213
                },
                {
                    "name": "C#3",
                    "midi": 49,
                    "time": 14.727500000000044,
                    "velocity": 0.29133858267716534,
                    "duration": 0.12500000000000178
                },
                {
                    "name": "F4",
                    "midi": 65,
                    "time": 14.727500000000044,
                    "velocity": 0.1732283464566929,
                    "duration": 0.09000000000000163
                },
                {
                    "name": "B4",
                    "midi": 71,
                    "time": 14.822500000000044,
                    "velocity": 0.3700787401574803,
                    "duration": 0.13500000000000156
                },
                {
                    "name": "D5",
                    "midi": 74,
                    "time": 14.915000000000045,
                    "velocity": 0.3779527559055118,
                    "duration": 0.120000000000001
                },
                {
                    "name": "G5",
                    "midi": 79,
                    "time": 15.030000000000046,
                    "velocity": 0.47244094488188976,
                    "duration": 0.03500000000000014
                },
                {
                    "name": "A#2",
                    "midi": 46,
                    "time": 15.175000000000049,
                    "velocity": 0.2992125984251969,
                    "duration": 0.46250000000000213
                },
                {
                    "name": "G#3",
                    "midi": 56,
                    "time": 15.185000000000048,
                    "velocity": 0.3543307086614173,
                    "duration": 0.45250000000000234
                },
                {
                    "name": "D4",
                    "midi": 62,
                    "time": 15.220000000000049,
                    "velocity": 0.4094488188976378,
                    "duration": 0.1575000000000042
                },
                {
                    "name": "G#4",
                    "midi": 68,
                    "time": 15.390000000000052,
                    "velocity": 0.4251968503937008,
                    "duration": 0.11999999999999922
                },
                {
                    "name": "G#4",
                    "midi": 68,
                    "time": 15.605000000000052,
                    "velocity": 0.4330708661417323,
                    "duration": 0.42999999999999794
                },
                {
                    "name": "C5",
                    "midi": 72,
                    "time": 15.625000000000052,
                    "velocity": 0.3700787401574803,
                    "duration": 0.17999999999999972
                },
                {
                    "name": "A#3",
                    "midi": 58,
                    "time": 15.625000000000052,
                    "velocity": 0.30708661417322836,
                    "duration": 0.40999999999999837
                },
                {
                    "name": "E5",
                    "midi": 76,
                    "time": 15.857500000000051,
                    "velocity": 0.2677165354330709,
                    "duration": 0.1274999999999995
                },
                {
                    "name": "C5",
                    "midi": 72,
                    "time": 16.06000000000005,
                    "velocity": 0.25984251968503935,
                    "duration": 0.13500000000000156
                },
                {
                    "name": "G#4",
                    "midi": 68,
                    "time": 16.26500000000005,
                    "velocity": 0.28346456692913385,
                    "duration": 0.08749999999999858
                },
                {
                    "name": "G#4",
                    "midi": 68,
                    "time": 16.495000000000047,
                    "velocity": 0.41732283464566927,
                    "duration": 0.32999999999999474
                },
                {
                    "name": "A#3",
                    "midi": 58,
                    "time": 16.512500000000045,
                    "velocity": 0.33858267716535434,
                    "duration": 0.7499999999999964
                },
                {
                    "name": "D4",
                    "midi": 62,
                    "time": 16.515000000000047,
                    "velocity": 0.3858267716535433,
                    "duration": 0.17999999999999616
                },
                {
                    "name": "D4",
                    "midi": 62,
                    "time": 16.952500000000043,
                    "velocity": 0.33070866141732286,
                    "duration": 0.0625
                },
                {
                    "name": "C4",
                    "midi": 60,
                    "time": 17.070000000000043,
                    "velocity": 0.31496062992125984,
                    "duration": 0.054999999999999716
                },
                {
                    "name": "D4",
                    "midi": 62,
                    "time": 17.172500000000042,
                    "velocity": 0.48031496062992124,
                    "duration": 0.07250000000000156
                },
                {
                    "name": "E4",
                    "midi": 64,
                    "time": 17.292500000000043,
                    "velocity": 0.4015748031496063,
                    "duration": 0.04749999999999943
                },
                {
                    "name": "F#4",
                    "midi": 66,
                    "time": 17.352500000000045,
                    "velocity": 0.44881889763779526,
                    "duration": 0.18250000000000455
                },
                {
                    "name": "G#3",
                    "midi": 56,
                    "time": 17.362500000000047,
                    "velocity": 0.4094488188976378,
                    "duration": 0.4500000000000135
                },
                {
                    "name": "C4",
                    "midi": 60,
                    "time": 17.382500000000046,
                    "velocity": 0.4015748031496063,
                    "duration": 0.30000000000000426
                },
                {
                    "name": "G#4",
                    "midi": 68,
                    "time": 17.50250000000005,
                    "velocity": 0.3779527559055118,
                    "duration": 0.16999999999999815
                },
                {
                    "name": "A#4",
                    "midi": 70,
                    "time": 17.615000000000048,
                    "velocity": 0.29133858267716534,
                    "duration": 0.11750000000000327
                },
                {
                    "name": "C5",
                    "midi": 72,
                    "time": 17.68750000000005,
                    "velocity": 0.41732283464566927,
                    "duration": 0.08000000000000185
                },
                {
                    "name": "E4",
                    "midi": 64,
                    "time": 17.805000000000057,
                    "velocity": 0.4094488188976378,
                    "duration": 0.07000000000000739
                },
                {
                    "name": "A#3",
                    "midi": 58,
                    "time": 17.807500000000058,
                    "velocity": 0.36220472440944884,
                    "duration": 0.23000000000000753
                },
                {
                    "name": "F#3",
                    "midi": 54,
                    "time": 17.81000000000006,
                    "velocity": 0.41732283464566927,
                    "duration": 0.22750000000000625
                },
                {
                    "name": "D5",
                    "midi": 74,
                    "time": 17.83250000000006,
                    "velocity": 0.41732283464566927,
                    "duration": 0.11250000000000426
                },
                {
                    "name": "E5",
                    "midi": 76,
                    "time": 17.950000000000063,
                    "velocity": 0.41732283464566927,
                    "duration": 0.10000000000000142
                },
                {
                    "name": "F#5",
                    "midi": 78,
                    "time": 18.027500000000064,
                    "velocity": 0.3858267716535433,
                    "duration": 0.13000000000000256
                },
                {
                    "name": "G#5",
                    "midi": 80,
                    "time": 18.115000000000066,
                    "velocity": 0.5039370078740157,
                    "duration": 0.08750000000000213
                },
                {
                    "name": "B5",
                    "midi": 83,
                    "time": 18.26750000000007,
                    "velocity": 0.33858267716535434,
                    "duration": 0.05249999999999844
                },
                {
                    "name": "G5",
                    "midi": 79,
                    "time": 18.27500000000007,
                    "velocity": 0.3228346456692913,
                    "duration": 0.04499999999999815
                },
                {
                    "name": "B4",
                    "midi": 71,
                    "time": 18.37750000000007,
                    "velocity": 0.47244094488188976,
                    "duration": 0.11999999999999744
                },
                {
                    "name": "F3",
                    "midi": 53,
                    "time": 18.39750000000007,
                    "velocity": 0.3937007874015748,
                    "duration": 0.24749999999999872
                },
                {
                    "name": "D#4",
                    "midi": 63,
                    "time": 18.402500000000067,
                    "velocity": 0.2677165354330709,
                    "duration": 0.16249999999999787
                },
                {
                    "name": "A3",
                    "midi": 57,
                    "time": 18.435000000000066,
                    "velocity": 0.33858267716535434,
                    "duration": 0.15249999999999986
                },
                {
                    "name": "C#5",
                    "midi": 73,
                    "time": 18.485000000000067,
                    "velocity": 0.41732283464566927,
                    "duration": 0.13250000000000028
                },
                {
                    "name": "D#5",
                    "midi": 75,
                    "time": 18.565000000000065,
                    "velocity": 0.4566929133858268,
                    "duration": 0.07250000000000156
                },
                {
                    "name": "F5",
                    "midi": 77,
                    "time": 18.637500000000067,
                    "velocity": 0.4251968503937008,
                    "duration": 0.042500000000000426
                },
                {
                    "name": "G5",
                    "midi": 79,
                    "time": 18.740000000000066,
                    "velocity": 0.48031496062992124,
                    "duration": 0.08749999999999858
                },
                {
                    "name": "A5",
                    "midi": 81,
                    "time": 18.860000000000063,
                    "velocity": 0.1732283464566929,
                    "duration": 0.0625
                },
                {
                    "name": "B5",
                    "midi": 83,
                    "time": 18.897500000000065,
                    "velocity": 0.09448818897637795,
                    "duration": 0.11499999999999844
                },
                {
                    "name": "C#6",
                    "midi": 85,
                    "time": 19.022500000000065,
                    "velocity": 0.3543307086614173,
                    "duration": 0.08999999999999986
                },
                {
                    "name": "D#6",
                    "midi": 87,
                    "time": 19.200000000000063,
                    "velocity": 0.3937007874015748,
                    "duration": 0.09749999999999659
                },
                {
                    "name": "G#3",
                    "midi": 56,
                    "time": 19.24250000000006,
                    "velocity": 0.3543307086614173,
                    "duration": 0.24499999999999744
                },
                {
                    "name": "E2",
                    "midi": 40,
                    "time": 19.26000000000006,
                    "velocity": 0.41732283464566927,
                    "duration": 0.11499999999999844
                },
                {
                    "name": "B2",
                    "midi": 47,
                    "time": 19.28250000000006,
                    "velocity": 0.3858267716535433,
                    "duration": 0.1424999999999983
                },
                {
                    "name": "D#5",
                    "midi": 75,
                    "time": 19.29750000000006,
                    "velocity": 0.2440944881889764,
                    "duration": 0.3349999999999973
                },
                {
                    "name": "G#5",
                    "midi": 80,
                    "time": 19.625000000000057,
                    "velocity": 0.33070866141732286,
                    "duration": 0.25
                },
                {
                    "name": "D#6",
                    "midi": 87,
                    "time": 19.895000000000056,
                    "velocity": 0.2755905511811024,
                    "duration": 0.1750000000000007
                },
                {
                    "name": "B4",
                    "midi": 71,
                    "time": 19.897500000000058,
                    "velocity": 0.2755905511811024,
                    "duration": 0.05999999999999872
                },
                {
                    "name": "E4",
                    "midi": 64,
                    "time": 19.930000000000057,
                    "velocity": 0.11811023622047244,
                    "duration": 0.04749999999999943
                },
                {
                    "name": "F#6",
                    "midi": 90,
                    "time": 20.117500000000057,
                    "velocity": 0.33070866141732286,
                    "duration": 0.18499999999999872
                },
                {
                    "name": "D#4",
                    "midi": 63,
                    "time": 20.312500000000057,
                    "velocity": 0.2440944881889764,
                    "duration": 0.09000000000000341
                },
                {
                    "name": "D#5",
                    "midi": 75,
                    "time": 20.315000000000058,
                    "velocity": 0.23622047244094488,
                    "duration": 0.06250000000000355
                },
                {
                    "name": "G#4",
                    "midi": 68,
                    "time": 20.33750000000006,
                    "velocity": 0.1968503937007874,
                    "duration": 0.0400000000000027
                },
                {
                    "name": "D#6",
                    "midi": 87,
                    "time": 20.34000000000006,
                    "velocity": 0.30708661417322836,
                    "duration": 0.14999999999999858
                },
                {
                    "name": "G#5",
                    "midi": 80,
                    "time": 20.542500000000057,
                    "velocity": 0.25984251968503935,
                    "duration": 0.067499999999999
                },
                {
                    "name": "C#5",
                    "midi": 73,
                    "time": 20.700000000000053,
                    "velocity": 0.29133858267716534,
                    "duration": 0.10500000000001464
                },
                {
                    "name": "A3",
                    "midi": 57,
                    "time": 20.710000000000054,
                    "velocity": 0.3700787401574803,
                    "duration": 0.09000000000001052
                },
                {
                    "name": "E4",
                    "midi": 64,
                    "time": 20.745000000000058,
                    "velocity": 0.2204724409448819,
                    "duration": 0.04500000000000526
                },
                {
                    "name": "G#5",
                    "midi": 80,
                    "time": 20.802500000000066,
                    "velocity": 0.3937007874015748,
                    "duration": 0.11500000000000199
                },
                {
                    "name": "C#6",
                    "midi": 85,
                    "time": 20.882500000000068,
                    "velocity": 0.4015748031496063,
                    "duration": 0.10500000000000043
                },
                {
                    "name": "E6",
                    "midi": 88,
                    "time": 20.99000000000007,
                    "velocity": 0.3700787401574803,
                    "duration": 0.05000000000000071
                },
                {
                    "name": "D#5",
                    "midi": 75,
                    "time": 21.10750000000007,
                    "velocity": 0.30708661417322836,
                    "duration": 0.20749999999999602
                },
                {
                    "name": "G#4",
                    "midi": 68,
                    "time": 21.12000000000007,
                    "velocity": 0.15748031496062992,
                    "duration": 0.22499999999999432
                },
                {
                    "name": "E3",
                    "midi": 52,
                    "time": 21.13500000000007,
                    "velocity": 0.3700787401574803,
                    "duration": 0.09999999999999432
                },
                {
                    "name": "B3",
                    "midi": 59,
                    "time": 21.16250000000007,
                    "velocity": 0.2204724409448819,
                    "duration": 0.1074999999999946
                },
                {
                    "name": "G#5",
                    "midi": 80,
                    "time": 21.332500000000064,
                    "velocity": 0.3700787401574803,
                    "duration": 0.192499999999999
                },
                {
                    "name": "D#6",
                    "midi": 87,
                    "time": 21.600000000000062,
                    "velocity": 0.3858267716535433,
                    "duration": 0.1075000000000017
                },
                {
                    "name": "E4",
                    "midi": 64,
                    "time": 21.600000000000062,
                    "velocity": 0.23622047244094488,
                    "duration": 0.015000000000000568
                },
                {
                    "name": "B4",
                    "midi": 71,
                    "time": 21.600000000000062,
                    "velocity": 0.3228346456692913,
                    "duration": 0.004999999999999005
                },
                {
                    "name": "F#6",
                    "midi": 90,
                    "time": 21.760000000000062,
                    "velocity": 0.3228346456692913,
                    "duration": 0.19000000000000128
                },
                {
                    "name": "D#5",
                    "midi": 75,
                    "time": 21.94000000000006,
                    "velocity": 0.2755905511811024,
                    "duration": 0.05000000000000071
                },
                {
                    "name": "D#4",
                    "midi": 63,
                    "time": 21.942500000000063,
                    "velocity": 0.2677165354330709,
                    "duration": 0.054999999999999716
                },
                {
                    "name": "G#4",
                    "midi": 68,
                    "time": 21.96750000000006,
                    "velocity": 0.15748031496062992,
                    "duration": 0.0400000000000027
                },
                {
                    "name": "D#6",
                    "midi": 87,
                    "time": 21.970000000000063,
                    "velocity": 0.3228346456692913,
                    "duration": 0.14750000000000085
                },
                {
                    "name": "G#5",
                    "midi": 80,
                    "time": 22.177500000000062,
                    "velocity": 0.2283464566929134,
                    "duration": 0.13500000000000156
                },
                {
                    "name": "C#5",
                    "midi": 73,
                    "time": 22.34000000000006,
                    "velocity": 0.31496062992125984,
                    "duration": 0.1249999999999929
                },
                {
                    "name": "A3",
                    "midi": 57,
                    "time": 22.37000000000006,
                    "velocity": 0.4015748031496063,
                    "duration": 0.08999999999999275
                },
                {
                    "name": "E4",
                    "midi": 64,
                    "time": 22.39500000000006,
                    "velocity": 0.2677165354330709,
                    "duration": 0.042499999999996874
                },
                {
                    "name": "G#5",
                    "midi": 80,
                    "time": 22.455000000000055,
                    "velocity": 0.3700787401574803,
                    "duration": 0.13999999999999702
                },
                {
                    "name": "C#6",
                    "midi": 85,
                    "time": 22.55250000000005,
                    "velocity": 0.3937007874015748,
                    "duration": 0.10249999999999915
                },
                {
                    "name": "E6",
                    "midi": 88,
                    "time": 22.65500000000005,
                    "velocity": 0.4094488188976378,
                    "duration": 0.05999999999999872
                },
                {
                    "name": "G#4",
                    "midi": 68,
                    "time": 22.75250000000005,
                    "velocity": 0.29133858267716534,
                    "duration": 0.2000000000000064
                },
                {
                    "name": "D#5",
                    "midi": 75,
                    "time": 22.782500000000052,
                    "velocity": 0.33858267716535434,
                    "duration": 0.1925000000000061
                },
                {
                    "name": "B3",
                    "midi": 59,
                    "time": 22.792500000000054,
                    "velocity": 0.31496062992125984,
                    "duration": 0.1025000000000027
                },
                {
                    "name": "E3",
                    "midi": 52,
                    "time": 22.795000000000055,
                    "velocity": 0.18110236220472442,
                    "duration": 0.07750000000000057
                },
                {
                    "name": "G#5",
                    "midi": 80,
                    "time": 22.98500000000006,
                    "velocity": 0.4251968503937008,
                    "duration": 0.21499999999999986
                },
                {
                    "name": "B4",
                    "midi": 71,
                    "time": 23.18500000000006,
                    "velocity": 0.3228346456692913,
                    "duration": 0.067499999999999
                },
                {
                    "name": "D#6",
                    "midi": 87,
                    "time": 23.19500000000006,
                    "velocity": 0.3700787401574803,
                    "duration": 0.17999999999999616
                },
                {
                    "name": "E4",
                    "midi": 64,
                    "time": 23.20500000000006,
                    "velocity": 0.2440944881889764,
                    "duration": 0.05999999999999872
                },
                {
                    "name": "F#6",
                    "midi": 90,
                    "time": 23.397500000000058,
                    "velocity": 0.4015748031496063,
                    "duration": 0.09750000000000014
                },
                {
                    "name": "D#5",
                    "midi": 75,
                    "time": 23.587500000000055,
                    "velocity": 0.28346456692913385,
                    "duration": 0.10750000000000526
                },
                {
                    "name": "G#5",
                    "midi": 80,
                    "time": 23.602500000000056,
                    "velocity": 0.3543307086614173,
                    "duration": 0.1475000000000044
                },
                {
                    "name": "G#4",
                    "midi": 68,
                    "time": 23.63000000000006,
                    "velocity": 0.15748031496062992,
                    "duration": 0.042500000000000426
                },
                {
                    "name": "D#6",
                    "midi": 87,
                    "time": 23.795000000000062,
                    "velocity": 0.44881889763779526,
                    "duration": 0.25
                },
                {
                    "name": "B4",
                    "midi": 71,
                    "time": 24.010000000000062,
                    "velocity": 0.3779527559055118,
                    "duration": 0.05000000000000071
                },
                {
                    "name": "G#6",
                    "midi": 92,
                    "time": 24.01500000000006,
                    "velocity": 0.4645669291338583,
                    "duration": 0.21000000000000085
                },
                {
                    "name": "B5",
                    "midi": 83,
                    "time": 24.03500000000006,
                    "velocity": 0.2755905511811024,
                    "duration": 0.05000000000000426
                },
                {
                    "name": "E5",
                    "midi": 76,
                    "time": 24.04250000000006,
                    "velocity": 0.33858267716535434,
                    "duration": 0.047500000000002984
                },
                {
                    "name": "B6",
                    "midi": 95,
                    "time": 24.212500000000063,
                    "velocity": 0.5039370078740157,
                    "duration": 0.03249999999999886
                },
                {
                    "name": "C#5",
                    "midi": 73,
                    "time": 24.400000000000063,
                    "velocity": 0.3543307086614173,
                    "duration": 0.16499999999999204
                },
                {
                    "name": "G#5",
                    "midi": 80,
                    "time": 24.42500000000006,
                    "velocity": 0.31496062992125984,
                    "duration": 0.07249999999999446
                },
                {
                    "name": "E6",
                    "midi": 88,
                    "time": 24.42500000000006,
                    "velocity": 0.3543307086614173,
                    "duration": 0.13499999999999446
                },
                {
                    "name": "B5",
                    "midi": 83,
                    "time": 24.610000000000056,
                    "velocity": 0.44881889763779526,
                    "duration": 0.129999999999999
                },
                {
                    "name": "C#6",
                    "midi": 85,
                    "time": 24.800000000000054,
                    "velocity": 0.36220472440944884,
                    "duration": 0.04499999999999815
                },
                {
                    "name": "G#5",
                    "midi": 80,
                    "time": 24.807500000000054,
                    "velocity": 0.2992125984251969,
                    "duration": 0.04749999999999943
                },
                {
                    "name": "E5",
                    "midi": 76,
                    "time": 24.820000000000054,
                    "velocity": 0.4645669291338583,
                    "duration": 0.06500000000000128
                },
                {
                    "name": "B4",
                    "midi": 71,
                    "time": 25.007500000000054,
                    "velocity": 0.3858267716535433,
                    "duration": 0.16749999999999687
                },
                {
                    "name": "F#4",
                    "midi": 66,
                    "time": 25.20500000000005,
                    "velocity": 0.2992125984251969,
                    "duration": 0.10999999999999588
                },
                {
                    "name": "A5",
                    "midi": 81,
                    "time": 25.20500000000005,
                    "velocity": 0.4645669291338583,
                    "duration": 0.12499999999999645
                },
                {
                    "name": "E5",
                    "midi": 76,
                    "time": 25.412500000000048,
                    "velocity": 0.3779527559055118,
                    "duration": 0.1374999999999993
                },
                {
                    "name": "F#5",
                    "midi": 78,
                    "time": 25.602500000000045,
                    "velocity": 0.15748031496062992,
                    "duration": 0.04749999999999943
                },
                {
                    "name": "C#5",
                    "midi": 73,
                    "time": 25.605000000000047,
                    "velocity": 0.30708661417322836,
                    "duration": 0.03249999999999886
                },
                {
                    "name": "E4",
                    "midi": 64,
                    "time": 25.720000000000045,
                    "velocity": 0.25984251968503935,
                    "duration": 0.07250000000000156
                },
                {
                    "name": "A4",
                    "midi": 69,
                    "time": 25.845000000000045,
                    "velocity": 0.1889763779527559,
                    "duration": 0.042500000000000426
                },
                {
                    "name": "E5",
                    "midi": 76,
                    "time": 25.895000000000046,
                    "velocity": 0.4015748031496063,
                    "duration": 0.03500000000000014
                },
                {
                    "name": "C#5",
                    "midi": 73,
                    "time": 26.042500000000043,
                    "velocity": 0.25196850393700787,
                    "duration": 0.197499999999998
                },
                {
                    "name": "E6",
                    "midi": 88,
                    "time": 26.045000000000044,
                    "velocity": 0.5275590551181102,
                    "duration": 0.12249999999999517
                },
                {
                    "name": "G#5",
                    "midi": 80,
                    "time": 26.055000000000046,
                    "velocity": 0.3700787401574803,
                    "duration": 0.1124999999999936
                },
                {
                    "name": "B5",
                    "midi": 83,
                    "time": 26.250000000000043,
                    "velocity": 0.44881889763779526,
                    "duration": 0.16750000000000043
                },
                {
                    "name": "C#6",
                    "midi": 85,
                    "time": 26.445000000000043,
                    "velocity": 0.3700787401574803,
                    "duration": 0.03750000000000142
                },
                {
                    "name": "G#5",
                    "midi": 80,
                    "time": 26.465000000000042,
                    "velocity": 0.3228346456692913,
                    "duration": 0.0400000000000027
                },
                {
                    "name": "E5",
                    "midi": 76,
                    "time": 26.475000000000044,
                    "velocity": 0.33070866141732286,
                    "duration": 0.054999999999999716
                },
                {
                    "name": "B4",
                    "midi": 71,
                    "time": 26.670000000000044,
                    "velocity": 0.36220472440944884,
                    "duration": 0.13500000000000156
                },
                {
                    "name": "F#4",
                    "midi": 66,
                    "time": 26.845000000000045,
                    "velocity": 0.3228346456692913,
                    "duration": 0.11000000000000298
                },
                {
                    "name": "A5",
                    "midi": 81,
                    "time": 26.855000000000047,
                    "velocity": 0.3858267716535433,
                    "duration": 0.10500000000000043
                },
                {
                    "name": "C#5",
                    "midi": 73,
                    "time": 26.885000000000048,
                    "velocity": 0.2047244094488189,
                    "duration": 0.0400000000000027
                },
                {
                    "name": "G5",
                    "midi": 79,
                    "time": 26.89500000000005,
                    "velocity": 0.2125984251968504,
                    "duration": 0.03500000000000014
                },
                {
                    "name": "E5",
                    "midi": 76,
                    "time": 27.06000000000005,
                    "velocity": 0.44881889763779526,
                    "duration": 0.16750000000000043
                },
                {
                    "name": "F#5",
                    "midi": 78,
                    "time": 27.26500000000005,
                    "velocity": 0.33070866141732286,
                    "duration": 0.04499999999999815
                },
                {
                    "name": "C#5",
                    "midi": 73,
                    "time": 27.26750000000005,
                    "velocity": 0.2440944881889764,
                    "duration": 0.03749999999999787
                },
                {
                    "name": "A4",
                    "midi": 69,
                    "time": 27.28500000000005,
                    "velocity": 0.3228346456692913,
                    "duration": 0.054999999999999716
                },
                {
                    "name": "E4",
                    "midi": 64,
                    "time": 27.37500000000005,
                    "velocity": 0.44881889763779526,
                    "duration": 0.08500000000000085
                },
                {
                    "name": "A4",
                    "midi": 69,
                    "time": 27.462500000000052,
                    "velocity": 0.2204724409448819,
                    "duration": 0.07750000000000057
                },
                {
                    "name": "E5",
                    "midi": 76,
                    "time": 27.54500000000005,
                    "velocity": 0.4330708661417323,
                    "duration": 0.045000000000001705
                },
                {
                    "name": "C#5",
                    "midi": 73,
                    "time": 27.700000000000056,
                    "velocity": 0.36220472440944884,
                    "duration": 0.15750000000000597
                },
                {
                    "name": "E6",
                    "midi": 88,
                    "time": 27.715000000000057,
                    "velocity": 0.5196850393700787,
                    "duration": 0.1300000000000061
                },
                {
                    "name": "G#5",
                    "midi": 80,
                    "time": 27.717500000000058,
                    "velocity": 0.2992125984251969,
                    "duration": 0.11750000000000327
                },
                {
                    "name": "B5",
                    "midi": 83,
                    "time": 27.91000000000006,
                    "velocity": 0.3937007874015748,
                    "duration": 0.15500000000000114
                },
                {
                    "name": "C#6",
                    "midi": 85,
                    "time": 28.12000000000006,
                    "velocity": 0.2992125984251969,
                    "duration": 0.042500000000000426
                },
                {
                    "name": "G#5",
                    "midi": 80,
                    "time": 28.13750000000006,
                    "velocity": 0.30708661417322836,
                    "duration": 0.047500000000002984
                },
                {
                    "name": "E5",
                    "midi": 76,
                    "time": 28.14000000000006,
                    "velocity": 0.3700787401574803,
                    "duration": 0.05250000000000199
                },
                {
                    "name": "B4",
                    "midi": 71,
                    "time": 28.345000000000063,
                    "velocity": 0.3543307086614173,
                    "duration": 0.15749999999999886
                },
                {
                    "name": "F#4",
                    "midi": 66,
                    "time": 28.525000000000063,
                    "velocity": 0.2677165354330709,
                    "duration": 0.09250000000000114
                },
                {
                    "name": "A5",
                    "midi": 81,
                    "time": 28.527500000000064,
                    "velocity": 0.47244094488188976,
                    "duration": 0.14750000000000085
                },
                {
                    "name": "C#5",
                    "midi": 73,
                    "time": 28.555000000000064,
                    "velocity": 0.1889763779527559,
                    "duration": 0.04499999999999815
                },
                {
                    "name": "E5",
                    "midi": 76,
                    "time": 28.800000000000065,
                    "velocity": 0.2755905511811024,
                    "duration": 0.13500000000000156
                },
                {
                    "name": "F#5",
                    "midi": 78,
                    "time": 28.937500000000068,
                    "velocity": 0.11811023622047244,
                    "duration": 0.04749999999999943
                },
                {
                    "name": "C#5",
                    "midi": 73,
                    "time": 28.955000000000066,
                    "velocity": 0.2283464566929134,
                    "duration": 0.0400000000000027
                },
                {
                    "name": "A4",
                    "midi": 69,
                    "time": 28.975000000000065,
                    "velocity": 0.4251968503937008,
                    "duration": 0.07000000000000384
                },
                {
                    "name": "E4",
                    "midi": 64,
                    "time": 29.15500000000007,
                    "velocity": 0.3779527559055118,
                    "duration": 0.04749999999999943
                },
                {
                    "name": "D#4",
                    "midi": 63,
                    "time": 29.355000000000068,
                    "velocity": 0.3543307086614173,
                    "duration": 0.12000000000000455
                },
                {
                    "name": "A3",
                    "midi": 57,
                    "time": 29.375000000000068,
                    "velocity": 0.3858267716535433,
                    "duration": 0.8875000000000242
                },
                {
                    "name": "F#4",
                    "midi": 66,
                    "time": 29.37750000000007,
                    "velocity": 0.2755905511811024,
                    "duration": 0.1475000000000044
                },
                {
                    "name": "G#4",
                    "midi": 68,
                    "time": 29.570000000000075,
                    "velocity": 0.3700787401574803,
                    "duration": 0.07250000000000156
                },
                {
                    "name": "D#4",
                    "midi": 63,
                    "time": 29.775000000000077,
                    "velocity": 0.4251968503937008,
                    "duration": 0.42000000000001236
                },
                {
                    "name": "C#5",
                    "midi": 73,
                    "time": 29.775000000000077,
                    "velocity": 0.3700787401574803,
                    "duration": 0.21750000000000824
                },
                {
                    "name": "A4",
                    "midi": 69,
                    "time": 29.782500000000077,
                    "velocity": 0.3937007874015748,
                    "duration": 0.30000000000001137
                },
                {
                    "name": "F#5",
                    "midi": 78,
                    "time": 30.002500000000087,
                    "velocity": 0.36220472440944884,
                    "duration": 0.07750000000000057
                },
                {
                    "name": "G#4",
                    "midi": 68,
                    "time": 30.20500000000009,
                    "velocity": 0.33070866141732286,
                    "duration": 0.10999999999999943
                },
                {
                    "name": "C#5",
                    "midi": 73,
                    "time": 30.40500000000009,
                    "velocity": 0.3464566929133858,
                    "duration": 0.08500000000000085
                },
                {
                    "name": "D#5",
                    "midi": 75,
                    "time": 30.65000000000009,
                    "velocity": 0.29133858267716534,
                    "duration": 0.08999999999999986
                },
                {
                    "name": "F#5",
                    "midi": 78,
                    "time": 30.65750000000009,
                    "velocity": 0.33858267716535434,
                    "duration": 0.24749999999999872
                },
                {
                    "name": "D#4",
                    "midi": 63,
                    "time": 30.67000000000009,
                    "velocity": 0.1968503937007874,
                    "duration": 0.10500000000000043
                },
                {
                    "name": "F#4",
                    "midi": 66,
                    "time": 30.70500000000009,
                    "velocity": 0.10236220472440945,
                    "duration": 0.03999999999999915
                },
                {
                    "name": "C#6",
                    "midi": 85,
                    "time": 30.93000000000009,
                    "velocity": 0.2440944881889764,
                    "duration": 0.067499999999999
                },
                {
                    "name": "C#3",
                    "midi": 49,
                    "time": 31.20000000000008,
                    "velocity": 0.4251968503937008,
                    "duration": 0.03750000000000142
                },
                {
                    "name": "G#3",
                    "midi": 56,
                    "time": 31.20000000000008,
                    "velocity": 0.2755905511811024,
                    "duration": 0.30249999999999844
                },
                {
                    "name": "C#5",
                    "midi": 73,
                    "time": 31.325000000000077,
                    "velocity": 0.25984251968503935,
                    "duration": 0.06500000000000128
                },
                {
                    "name": "G#5",
                    "midi": 80,
                    "time": 31.360000000000078,
                    "velocity": 0.33858267716535434,
                    "duration": 0.10500000000000043
                },
                {
                    "name": "G#6",
                    "midi": 92,
                    "time": 31.55000000000008,
                    "velocity": 0.4330708661417323,
                    "duration": 0.07000000000000028
                },
                {
                    "name": "G#4",
                    "midi": 68,
                    "time": 31.55250000000008,
                    "velocity": 0.4251968503937008,
                    "duration": 0.07000000000000028
                },
                {
                    "name": "C#6",
                    "midi": 85,
                    "time": 31.55750000000008,
                    "velocity": 0.30708661417322836,
                    "duration": 0.042500000000000426
                },
                {
                    "name": "C#4",
                    "midi": 61,
                    "time": 31.58000000000008,
                    "velocity": 0.2204724409448819,
                    "duration": 0.03249999999999886
                },
                {
                    "name": "C#5",
                    "midi": 73,
                    "time": 31.75500000000008,
                    "velocity": 0.4566929133858268,
                    "duration": 0.045000000000001705
                },
                {
                    "name": "G#5",
                    "midi": 80,
                    "time": 31.77000000000008,
                    "velocity": 0.3779527559055118,
                    "duration": 0.07250000000000156
                },
                {
                    "name": "C#4",
                    "midi": 61,
                    "time": 31.940000000000076,
                    "velocity": 0.3937007874015748,
                    "duration": 0.0899999999999963
                },
                {
                    "name": "G#4",
                    "midi": 68,
                    "time": 31.977500000000074,
                    "velocity": 0.33070866141732286,
                    "duration": 0.3949999999999996
                },
                {
                    "name": "D#6",
                    "midi": 87,
                    "time": 32.06250000000007,
                    "velocity": 0.2204724409448819,
                    "duration": 0.10000000000000142
                },
                {
                    "name": "G#6",
                    "midi": 92,
                    "time": 32.19500000000007,
                    "velocity": 0.3700787401574803,
                    "duration": 0.09000000000000341
                },
                {
                    "name": "C#7",
                    "midi": 97,
                    "time": 32.30250000000007,
                    "velocity": 0.4330708661417323,
                    "duration": 0.060000000000002274
                },
                {
                    "name": "G#7",
                    "midi": 104,
                    "time": 32.377500000000076,
                    "velocity": 0.3937007874015748,
                    "duration": 0.03499999999999659
                },
                {
                    "name": "C#5",
                    "midi": 73,
                    "time": 32.38250000000008,
                    "velocity": 0.2755905511811024,
                    "duration": 0.042499999999996874
                },
                {
                    "name": "G#5",
                    "midi": 80,
                    "time": 32.39250000000008,
                    "velocity": 0.36220472440944884,
                    "duration": 0.05250000000000199
                },
                {
                    "name": "C#7",
                    "midi": 97,
                    "time": 32.480000000000075,
                    "velocity": 0.4409448818897638,
                    "duration": 0.10249999999999915
                },
                {
                    "name": "G#6",
                    "midi": 92,
                    "time": 32.605000000000075,
                    "velocity": 0.29133858267716534,
                    "duration": 0.05749999999999744
                },
                {
                    "name": "C#6",
                    "midi": 85,
                    "time": 32.68500000000007,
                    "velocity": 0.36220472440944884,
                    "duration": 0.07000000000000028
                },
                {
                    "name": "D5",
                    "midi": 74,
                    "time": 32.81500000000009,
                    "velocity": 0.36220472440944884,
                    "duration": 0.054999999999999716
                },
                {
                    "name": "A4",
                    "midi": 69,
                    "time": 32.83250000000009,
                    "velocity": 0.3228346456692913,
                    "duration": 0.3050000000000068
                },
                {
                    "name": "F#5",
                    "midi": 78,
                    "time": 32.935000000000095,
                    "velocity": 0.3700787401574803,
                    "duration": 0.14000000000000057
                },
                {
                    "name": "G#5",
                    "midi": 80,
                    "time": 33.100000000000094,
                    "velocity": 0.4094488188976378,
                    "duration": 0.11500000000000199
                },
                {
                    "name": "D5",
                    "midi": 74,
                    "time": 33.2350000000001,
                    "velocity": 0.3228346456692913,
                    "duration": 0.05000000000000426
                },
                {
                    "name": "C#6",
                    "midi": 85,
                    "time": 33.2400000000001,
                    "velocity": 0.4251968503937008,
                    "duration": 0.11500000000000199
                },
                {
                    "name": "A5",
                    "midi": 81,
                    "time": 33.245000000000104,
                    "velocity": 0.3937007874015748,
                    "duration": 0.060000000000002274
                },
                {
                    "name": "F#6",
                    "midi": 90,
                    "time": 33.385000000000105,
                    "velocity": 0.41732283464566927,
                    "duration": 0.09499999999999886
                },
                {
                    "name": "C#6",
                    "midi": 85,
                    "time": 33.5050000000001,
                    "velocity": 0.3228346456692913,
                    "duration": 0.04999999999999716
                },
                {
                    "name": "A5",
                    "midi": 81,
                    "time": 33.63500000000009,
                    "velocity": 0.3543307086614173,
                    "duration": 0.06499999999999062
                },
                {
                    "name": "G#5",
                    "midi": 80,
                    "time": 33.64500000000009,
                    "velocity": 0.4015748031496063,
                    "duration": 0.09249999999999403
                },
                {
                    "name": "D5",
                    "midi": 74,
                    "time": 33.647500000000086,
                    "velocity": 0.3464566929133858,
                    "duration": 0.15749999999999886
                },
                {
                    "name": "C#6",
                    "midi": 85,
                    "time": 33.76000000000008,
                    "velocity": 0.3779527559055118,
                    "duration": 0.045000000000001705
                },
                {
                    "name": "G#5",
                    "midi": 80,
                    "time": 33.84750000000008,
                    "velocity": 0.3858267716535433,
                    "duration": 0.08749999999999858
                },
                {
                    "name": "C#6",
                    "midi": 85,
                    "time": 33.94500000000008,
                    "velocity": 0.4330708661417323,
                    "duration": 0.08250000000000313
                },
                {
                    "name": "F#5",
                    "midi": 78,
                    "time": 34.04500000000008,
                    "velocity": 0.36220472440944884,
                    "duration": 0.08749999999999858
                },
                {
                    "name": "F#6",
                    "midi": 90,
                    "time": 34.04500000000008,
                    "velocity": 0.30708661417322836,
                    "duration": 0.03999999999999915
                },
                {
                    "name": "C#7",
                    "midi": 97,
                    "time": 34.13000000000008,
                    "velocity": 0.4330708661417323,
                    "duration": 0.08500000000000085
                },
                {
                    "name": "F#6",
                    "midi": 90,
                    "time": 34.25500000000008,
                    "velocity": 0.33858267716535434,
                    "duration": 0.0899999999999963
                },
                {
                    "name": "C#7",
                    "midi": 97,
                    "time": 34.30500000000008,
                    "velocity": 0.2677165354330709,
                    "duration": 0.054999999999999716
                },
                {
                    "name": "G#4",
                    "midi": 68,
                    "time": 34.445000000000086,
                    "velocity": 0.44881889763779526,
                    "duration": 0.11250000000001137
                },
                {
                    "name": "C#4",
                    "midi": 61,
                    "time": 34.46500000000009,
                    "velocity": 0.4330708661417323,
                    "duration": 0.34250000000000114
                },
                {
                    "name": "C#5",
                    "midi": 73,
                    "time": 34.662500000000094,
                    "velocity": 0.25196850393700787,
                    "duration": 0.037499999999994316
                },
                {
                    "name": "G#5",
                    "midi": 80,
                    "time": 34.66500000000009,
                    "velocity": 0.4330708661417323,
                    "duration": 0.10499999999999687
                },
                {
                    "name": "C#6",
                    "midi": 85,
                    "time": 34.85250000000009,
                    "velocity": 0.47244094488188976,
                    "duration": 0.0975000000000037
                },
                {
                    "name": "G#6",
                    "midi": 92,
                    "time": 34.85500000000009,
                    "velocity": 0.4251968503937008,
                    "duration": 0.06750000000000256
                },
                {
                    "name": "C#5",
                    "midi": 73,
                    "time": 34.85500000000009,
                    "velocity": 0.4251968503937008,
                    "duration": 0.06750000000000256
                },
                {
                    "name": "G#4",
                    "midi": 68,
                    "time": 34.86500000000009,
                    "velocity": 0.4330708661417323,
                    "duration": 0.030000000000001137
                },
                {
                    "name": "C#5",
                    "midi": 73,
                    "time": 35.0725000000001,
                    "velocity": 0.3858267716535433,
                    "duration": 0.07000000000000028
                },
                {
                    "name": "G#5",
                    "midi": 80,
                    "time": 35.0850000000001,
                    "velocity": 0.3937007874015748,
                    "duration": 0.04999999999999716
                },
                {
                    "name": "C#5",
                    "midi": 73,
                    "time": 35.255000000000095,
                    "velocity": 0.25984251968503935,
                    "duration": 0.3674999999999926
                },
                {
                    "name": "G#5",
                    "midi": 80,
                    "time": 35.262500000000095,
                    "velocity": 0.4330708661417323,
                    "duration": 0.3574999999999946
                },
                {
                    "name": "D5",
                    "midi": 74,
                    "time": 35.367500000000085,
                    "velocity": 0.31496062992125984,
                    "duration": 0.1075000000000017
                },
                {
                    "name": "E5",
                    "midi": 76,
                    "time": 35.400000000000084,
                    "velocity": 0.25196850393700787,
                    "duration": 0.03750000000000142
                },
                {
                    "name": "A5",
                    "midi": 81,
                    "time": 35.492500000000085,
                    "velocity": 0.5039370078740157,
                    "duration": 0.10000000000000142
                },
                {
                    "name": "D6",
                    "midi": 86,
                    "time": 35.570000000000086,
                    "velocity": 0.4251968503937008,
                    "duration": 0.09000000000000341
                },
                {
                    "name": "F#5",
                    "midi": 78,
                    "time": 35.64500000000009,
                    "velocity": 0.4251968503937008,
                    "duration": 0.03499999999999659
                },
                {
                    "name": "A6",
                    "midi": 93,
                    "time": 35.65000000000009,
                    "velocity": 0.5826771653543307,
                    "duration": 0.09249999999999403
                },
                {
                    "name": "B4",
                    "midi": 71,
                    "time": 35.66250000000009,
                    "velocity": 0.44881889763779526,
                    "duration": 0.04999999999999716
                },
                {
                    "name": "D6",
                    "midi": 86,
                    "time": 35.74500000000008,
                    "velocity": 0.3779527559055118,
                    "duration": 0.12000000000000455
                },
                {
                    "name": "A5",
                    "midi": 81,
                    "time": 35.837500000000084,
                    "velocity": 0.48031496062992124,
                    "duration": 0.08250000000000313
                },
                {
                    "name": "D5",
                    "midi": 74,
                    "time": 35.92500000000009,
                    "velocity": 0.4566929133858268,
                    "duration": 0.060000000000002274
                },
                {
                    "name": "G#4",
                    "midi": 68,
                    "time": 36.035000000000096,
                    "velocity": 0.44881889763779526,
                    "duration": 0.1425000000000054
                },
                {
                    "name": "C#4",
                    "midi": 61,
                    "time": 36.0575000000001,
                    "velocity": 0.5196850393700787,
                    "duration": 0.36250000000000426
                },
                {
                    "name": "G#5",
                    "midi": 80,
                    "time": 36.2425000000001,
                    "velocity": 0.4015748031496063,
                    "duration": 0.0625
                },
                {
                    "name": "C#6",
                    "midi": 85,
                    "time": 36.2450000000001,
                    "velocity": 0.4881889763779528,
                    "duration": 0.12750000000000483
                },
                {
                    "name": "C#5",
                    "midi": 73,
                    "time": 36.4350000000001,
                    "velocity": 0.48031496062992124,
                    "duration": 0.04749999999999943
                },
                {
                    "name": "G#4",
                    "midi": 68,
                    "time": 36.4350000000001,
                    "velocity": 0.4566929133858268,
                    "duration": 0.045000000000001705
                },
                {
                    "name": "C#7",
                    "midi": 97,
                    "time": 36.4450000000001,
                    "velocity": 0.5039370078740157,
                    "duration": 0.0975000000000037
                },
                {
                    "name": "A6",
                    "midi": 93,
                    "time": 36.4750000000001,
                    "velocity": 0.33858267716535434,
                    "duration": 0.03999999999999915
                },
                {
                    "name": "C#6",
                    "midi": 85,
                    "time": 36.642500000000105,
                    "velocity": 0.49606299212598426,
                    "duration": 0.1075000000000017
                },
                {
                    "name": "G#5",
                    "midi": 80,
                    "time": 36.64750000000011,
                    "velocity": 0.49606299212598426,
                    "duration": 0.08500000000000085
                },
                {
                    "name": "G#5",
                    "midi": 80,
                    "time": 36.84000000000012,
                    "velocity": 0.4566929133858268,
                    "duration": 0.38000000000000966
                },
                {
                    "name": "C#6",
                    "midi": 85,
                    "time": 36.842500000000115,
                    "velocity": 0.4645669291338583,
                    "duration": 0.34250000000000824
                },
                {
                    "name": "A5",
                    "midi": 81,
                    "time": 36.952500000000114,
                    "velocity": 0.3779527559055118,
                    "duration": 0.08250000000000313
                },
                {
                    "name": "D6",
                    "midi": 86,
                    "time": 37.02000000000012,
                    "velocity": 0.5118110236220472,
                    "duration": 0.1250000000000071
                },
                {
                    "name": "A6",
                    "midi": 93,
                    "time": 37.11750000000012,
                    "velocity": 0.47244094488188976,
                    "duration": 0.08500000000000796
                },
                {
                    "name": "D7",
                    "midi": 98,
                    "time": 37.197500000000126,
                    "velocity": 0.5354330708661418,
                    "duration": 0.09499999999999886
                },
                {
                    "name": "B5",
                    "midi": 83,
                    "time": 37.230000000000125,
                    "velocity": 0.4881889763779528,
                    "duration": 0.03999999999999915
                },
                {
                    "name": "F#5",
                    "midi": 78,
                    "time": 37.237500000000125,
                    "velocity": 0.47244094488188976,
                    "duration": 0.08250000000000313
                },
                {
                    "name": "A6",
                    "midi": 93,
                    "time": 37.300000000000125,
                    "velocity": 0.5039370078740157,
                    "duration": 0.12750000000000483
                },
                {
                    "name": "D6",
                    "midi": 86,
                    "time": 37.38250000000013,
                    "velocity": 0.4566929133858268,
                    "duration": 0.09499999999999886
                },
                {
                    "name": "A5",
                    "midi": 81,
                    "time": 37.47000000000013,
                    "velocity": 0.5275590551181102,
                    "duration": 0.07000000000000028
                },
                {
                    "name": "C#5",
                    "midi": 73,
                    "time": 37.57500000000013,
                    "velocity": 0.5590551181102362,
                    "duration": 0.39000000000000057
                },
                {
                    "name": "G#5",
                    "midi": 80,
                    "time": 37.57750000000013,
                    "velocity": 0.5669291338582677,
                    "duration": 0.12750000000000483
                },
                {
                    "name": "C#6",
                    "midi": 85,
                    "time": 37.76000000000013,
                    "velocity": 0.41732283464566927,
                    "duration": 0.09499999999999886
                },
                {
                    "name": "G#6",
                    "midi": 92,
                    "time": 37.76750000000013,
                    "velocity": 0.5433070866141733,
                    "duration": 0.12249999999999517
                },
                {
                    "name": "G#5",
                    "midi": 80,
                    "time": 37.96500000000013,
                    "velocity": 0.5354330708661418,
                    "duration": 0.05999999999999517
                },
                {
                    "name": "C#6",
                    "midi": 85,
                    "time": 37.96750000000013,
                    "velocity": 0.5433070866141733,
                    "duration": 0.05749999999999744
                },
                {
                    "name": "G#7",
                    "midi": 104,
                    "time": 37.96750000000013,
                    "velocity": 0.6299212598425197,
                    "duration": 0.08249999999999602
                },
                {
                    "name": "C#7",
                    "midi": 97,
                    "time": 37.97000000000013,
                    "velocity": 0.5433070866141733,
                    "duration": 0.08249999999999602
                },
                {
                    "name": "C#6",
                    "midi": 85,
                    "time": 38.17250000000012,
                    "velocity": 0.5826771653543307,
                    "duration": 0.07500000000000284
                },
                {
                    "name": "G#6",
                    "midi": 92,
                    "time": 38.18000000000012,
                    "velocity": 0.4881889763779528,
                    "duration": 0.08250000000000313
                },
                {
                    "name": "C#6",
                    "midi": 85,
                    "time": 38.40000000000014,
                    "velocity": 0.41732283464566927,
                    "duration": 0.3500000000000014
                },
                {
                    "name": "G#6",
                    "midi": 92,
                    "time": 38.40000000000014,
                    "velocity": 0.49606299212598426,
                    "duration": 0.2875000000000014
                },
                {
                    "name": "D6",
                    "midi": 86,
                    "time": 38.45500000000014,
                    "velocity": 0.5590551181102362,
                    "duration": 0.11749999999999972
                },
                {
                    "name": "A6",
                    "midi": 93,
                    "time": 38.55000000000014,
                    "velocity": 0.5826771653543307,
                    "duration": 0.11749999999999972
                },
                {
                    "name": "D7",
                    "midi": 98,
                    "time": 38.63500000000014,
                    "velocity": 0.5039370078740157,
                    "duration": 0.10000000000000142
                },
                {
                    "name": "F#6",
                    "midi": 90,
                    "time": 38.707500000000145,
                    "velocity": 0.5826771653543307,
                    "duration": 0.04999999999999716
                },
                {
                    "name": "A7",
                    "midi": 105,
                    "time": 38.71000000000014,
                    "velocity": 0.5590551181102362,
                    "duration": 0.10999999999999943
                },
                {
                    "name": "B5",
                    "midi": 83,
                    "time": 38.740000000000144,
                    "velocity": 0.5354330708661418,
                    "duration": 0.045000000000001705
                },
                {
                    "name": "D7",
                    "midi": 98,
                    "time": 38.810000000000144,
                    "velocity": 0.4566929133858268,
                    "duration": 0.11999999999999744
                },
                {
                    "name": "A6",
                    "midi": 93,
                    "time": 38.90750000000014,
                    "velocity": 0.2992125984251969,
                    "duration": 0.05749999999999744
                },
                {
                    "name": "D6",
                    "midi": 86,
                    "time": 38.98750000000014,
                    "velocity": 0.4566929133858268,
                    "duration": 0.07249999999999801
                },
                {
                    "name": "C#6",
                    "midi": 85,
                    "time": 39.10250000000015,
                    "velocity": 0.5905511811023622,
                    "duration": 0.39500000000001023
                },
                {
                    "name": "G#5",
                    "midi": 80,
                    "time": 39.112500000000146,
                    "velocity": 0.5275590551181102,
                    "duration": 0.41250000000001563
                },
                {
                    "name": "A5",
                    "midi": 81,
                    "time": 39.20750000000016,
                    "velocity": 0.5196850393700787,
                    "duration": 0.09749999999999659
                },
                {
                    "name": "D6",
                    "midi": 86,
                    "time": 39.31000000000016,
                    "velocity": 0.5275590551181102,
                    "duration": 0.11749999999999972
                },
                {
                    "name": "A6",
                    "midi": 93,
                    "time": 39.39500000000016,
                    "velocity": 0.4330708661417323,
                    "duration": 0.0899999999999963
                },
                {
                    "name": "D7",
                    "midi": 98,
                    "time": 39.47500000000016,
                    "velocity": 0.5590551181102362,
                    "duration": 0.12000000000000455
                },
                {
                    "name": "B5",
                    "midi": 83,
                    "time": 39.49000000000016,
                    "velocity": 0.5433070866141733,
                    "duration": 0.045000000000001705
                },
                {
                    "name": "F#5",
                    "midi": 78,
                    "time": 39.51000000000016,
                    "velocity": 0.5354330708661418,
                    "duration": 0.06499999999999773
                },
                {
                    "name": "A6",
                    "midi": 93,
                    "time": 39.59500000000016,
                    "velocity": 0.3937007874015748,
                    "duration": 0.12000000000000455
                },
                {
                    "name": "B6",
                    "midi": 95,
                    "time": 39.615000000000165,
                    "velocity": 0.25196850393700787,
                    "duration": 0.03499999999999659
                },
                {
                    "name": "D6",
                    "midi": 86,
                    "time": 39.670000000000165,
                    "velocity": 0.41732283464566927,
                    "duration": 0.09499999999999886
                },
                {
                    "name": "A5",
                    "midi": 81,
                    "time": 39.77500000000016,
                    "velocity": 0.4251968503937008,
                    "duration": 0.05749999999999744
                },
                {
                    "name": "G#5",
                    "midi": 80,
                    "time": 39.87750000000017,
                    "velocity": 0.48031496062992124,
                    "duration": 0.4375000000000142
                },
                {
                    "name": "C#5",
                    "midi": 73,
                    "time": 39.880000000000166,
                    "velocity": 0.4409448818897638,
                    "duration": 0.4450000000000145
                },
                {
                    "name": "D5",
                    "midi": 74,
                    "time": 39.98250000000017,
                    "velocity": 0.5511811023622047,
                    "duration": 0.11249999999999716
                },
                {
                    "name": "A5",
                    "midi": 81,
                    "time": 40.09500000000017,
                    "velocity": 0.4566929133858268,
                    "duration": 0.12000000000000455
                },
                {
                    "name": "D6",
                    "midi": 86,
                    "time": 40.18500000000017,
                    "velocity": 0.4881889763779528,
                    "duration": 0.10250000000000625
                },
                {
                    "name": "A6",
                    "midi": 93,
                    "time": 40.275000000000176,
                    "velocity": 0.5984251968503937,
                    "duration": 0.11750000000000682
                },
                {
                    "name": "F#5",
                    "midi": 78,
                    "time": 40.29250000000018,
                    "velocity": 0.4645669291338583,
                    "duration": 0.07249999999999801
                },
                {
                    "name": "B4",
                    "midi": 71,
                    "time": 40.31500000000018,
                    "velocity": 0.47244094488188976,
                    "duration": 0.04999999999999716
                },
                {
                    "name": "D6",
                    "midi": 86,
                    "time": 40.37250000000018,
                    "velocity": 0.4015748031496063,
                    "duration": 0.1425000000000054
                },
                {
                    "name": "A5",
                    "midi": 81,
                    "time": 40.470000000000184,
                    "velocity": 0.4251968503937008,
                    "duration": 0.08500000000000085
                },
                {
                    "name": "D5",
                    "midi": 74,
                    "time": 40.57500000000019,
                    "velocity": 0.3858267716535433,
                    "duration": 0.04999999999999716
                },
                {
                    "name": "C#5",
                    "midi": 73,
                    "time": 40.800000000000196,
                    "velocity": 0.5039370078740157,
                    "duration": 0.28249999999999176
                },
                {
                    "name": "A4",
                    "midi": 69,
                    "time": 40.800000000000196,
                    "velocity": 0.5590551181102362,
                    "duration": 0.07499999999999574
                },
                {
                    "name": "G#4",
                    "midi": 68,
                    "time": 40.800000000000196,
                    "velocity": 0.4881889763779528,
                    "duration": 0.2424999999999926
                },
                {
                    "name": "D5",
                    "midi": 74,
                    "time": 40.872500000000194,
                    "velocity": 0.5196850393700787,
                    "duration": 0.11249999999999716
                },
                {
                    "name": "A5",
                    "midi": 81,
                    "time": 40.95500000000019,
                    "velocity": 0.3543307086614173,
                    "duration": 0.11249999999999716
                },
                {
                    "name": "D6",
                    "midi": 86,
                    "time": 41.06000000000019,
                    "velocity": 0.5433070866141733,
                    "duration": 0.12000000000000455
                },
                {
                    "name": "B4",
                    "midi": 71,
                    "time": 41.07500000000019,
                    "velocity": 0.5433070866141733,
                    "duration": 0.03750000000000142
                },
                {
                    "name": "F#4",
                    "midi": 66,
                    "time": 41.085000000000186,
                    "velocity": 0.5196850393700787,
                    "duration": 0.0800000000000054
                },
                {
                    "name": "A5",
                    "midi": 81,
                    "time": 41.17000000000019,
                    "velocity": 0.4015748031496063,
                    "duration": 0.14499999999999602
                },
                {
                    "name": "D5",
                    "midi": 74,
                    "time": 41.29250000000019,
                    "velocity": 0.4251968503937008,
                    "duration": 0.07249999999999801
                },
                {
                    "name": "A4",
                    "midi": 69,
                    "time": 41.390000000000185,
                    "velocity": 0.4566929133858268,
                    "duration": 0.07000000000000028
                },
                {
                    "name": "C#2",
                    "midi": 37,
                    "time": 41.53500000000019,
                    "velocity": 0.6535433070866141,
                    "duration": 0.08749999999999858
                },
                {
                    "name": "G#2",
                    "midi": 44,
                    "time": 41.545000000000186,
                    "velocity": 0.6299212598425197,
                    "duration": 0.09499999999999886
                },
                {
                    "name": "G#4",
                    "midi": 68,
                    "time": 41.74000000000019,
                    "velocity": 0.4330708661417323,
                    "duration": 0.09000000000000341
                },
                {
                    "name": "C#5",
                    "midi": 73,
                    "time": 41.74500000000019,
                    "velocity": 0.3543307086614173,
                    "duration": 0.1524999999999963
                },
                {
                    "name": "G#5",
                    "midi": 80,
                    "time": 41.87250000000019,
                    "velocity": 0.4645669291338583,
                    "duration": 0.08500000000000085
                },
                {
                    "name": "B4",
                    "midi": 71,
                    "time": 42.00500000000019,
                    "velocity": 0.5905511811023622,
                    "duration": 0.0799999999999983
                },
                {
                    "name": "G#4",
                    "midi": 68,
                    "time": 42.125000000000185,
                    "velocity": 0.3779527559055118,
                    "duration": 0.10999999999999943
                },
                {
                    "name": "C#5",
                    "midi": 73,
                    "time": 42.13000000000019,
                    "velocity": 0.44881889763779526,
                    "duration": 0.1525000000000034
                },
                {
                    "name": "G#5",
                    "midi": 80,
                    "time": 42.26250000000019,
                    "velocity": 0.4645669291338583,
                    "duration": 0.07750000000000057
                },
                {
                    "name": "G#4",
                    "midi": 68,
                    "time": 42.39500000000019,
                    "velocity": 0.5984251968503937,
                    "duration": 0.0799999999999983
                },
                {
                    "name": "G#4",
                    "midi": 68,
                    "time": 42.532500000000184,
                    "velocity": 0.4094488188976378,
                    "duration": 0.11500000000000199
                },
                {
                    "name": "C#5",
                    "midi": 73,
                    "time": 42.56000000000019,
                    "velocity": 0.3779527559055118,
                    "duration": 0.11500000000000199
                },
                {
                    "name": "G#5",
                    "midi": 80,
                    "time": 42.67500000000019,
                    "velocity": 0.4566929133858268,
                    "duration": 0.07750000000000057
                },
                {
                    "name": "F#4",
                    "midi": 66,
                    "time": 42.82750000000019,
                    "velocity": 0.6062992125984252,
                    "duration": 0.07249999999999801
                },
                {
                    "name": "G#4",
                    "midi": 68,
                    "time": 42.95000000000019,
                    "velocity": 0.3228346456692913,
                    "duration": 0.11999999999999744
                },
                {
                    "name": "C#5",
                    "midi": 73,
                    "time": 42.975000000000186,
                    "velocity": 0.25984251968503935,
                    "duration": 0.13750000000000284
                },
                {
                    "name": "G#5",
                    "midi": 80,
                    "time": 43.100000000000186,
                    "velocity": 0.3779527559055118,
                    "duration": 0.06750000000000256
                },
                {
                    "name": "G#4",
                    "midi": 68,
                    "time": 43.23000000000019,
                    "velocity": 0.6220472440944882,
                    "duration": 0.08500000000000085
                },
                {
                    "name": "G#4",
                    "midi": 68,
                    "time": 43.37250000000019,
                    "velocity": 0.4094488188976378,
                    "duration": 0.09749999999999659
                },
                {
                    "name": "C#5",
                    "midi": 73,
                    "time": 43.390000000000185,
                    "velocity": 0.29133858267716534,
                    "duration": 0.134999999999998
                },
                {
                    "name": "G#5",
                    "midi": 80,
                    "time": 43.500000000000185,
                    "velocity": 0.4094488188976378,
                    "duration": 0.07499999999999574
                },
                {
                    "name": "B4",
                    "midi": 71,
                    "time": 43.64750000000018,
                    "velocity": 0.6614173228346457,
                    "duration": 0.09000000000000341
                },
                {
                    "name": "G#4",
                    "midi": 68,
                    "time": 43.78750000000018,
                    "velocity": 0.3543307086614173,
                    "duration": 0.10500000000000398
                },
                {
                    "name": "C#5",
                    "midi": 73,
                    "time": 43.80750000000018,
                    "velocity": 0.33858267716535434,
                    "duration": 0.13000000000000256
                },
                {
                    "name": "G#5",
                    "midi": 80,
                    "time": 43.945000000000185,
                    "velocity": 0.3779527559055118,
                    "duration": 0.042499999999996874
                },
                {
                    "name": "G#4",
                    "midi": 68,
                    "time": 44.05000000000018,
                    "velocity": 0.5275590551181102,
                    "duration": 0.07000000000000028
                },
                {
                    "name": "G#4",
                    "midi": 68,
                    "time": 44.19250000000018,
                    "velocity": 0.33070866141732286,
                    "duration": 0.0975000000000037
                },
                {
                    "name": "C#5",
                    "midi": 73,
                    "time": 44.21250000000018,
                    "velocity": 0.3543307086614173,
                    "duration": 0.12250000000000227
                },
                {
                    "name": "G#5",
                    "midi": 80,
                    "time": 44.34000000000019,
                    "velocity": 0.4015748031496063,
                    "duration": 0.042499999999996874
                },
                {
                    "name": "F#4",
                    "midi": 66,
                    "time": 44.47250000000019,
                    "velocity": 0.4645669291338583,
                    "duration": 0.08500000000000085
                },
                {
                    "name": "G#4",
                    "midi": 68,
                    "time": 44.61000000000019,
                    "velocity": 0.1968503937007874,
                    "duration": 0.11500000000000199
                },
                {
                    "name": "C#5",
                    "midi": 73,
                    "time": 44.64000000000019,
                    "velocity": 0.2204724409448819,
                    "duration": 0.1075000000000017
                },
                {
                    "name": "G#5",
                    "midi": 80,
                    "time": 44.76500000000019,
                    "velocity": 0.31496062992125984,
                    "duration": 0.03499999999999659
                },
                {
                    "name": "C#4",
                    "midi": 61,
                    "time": 44.87000000000019,
                    "velocity": 0.4645669291338583,
                    "duration": 0.06500000000000483
                },
                {
                    "name": "C#4",
                    "midi": 61,
                    "time": 44.97000000000019,
                    "velocity": 0.3228346456692913,
                    "duration": 0.10499999999999687
                },
                {
                    "name": "G#4",
                    "midi": 68,
                    "time": 45.07500000000019,
                    "velocity": 0.23622047244094488,
                    "duration": 0.0799999999999983
                },
                {
                    "name": "C#5",
                    "midi": 73,
                    "time": 45.22250000000019,
                    "velocity": 0.10236220472440945,
                    "duration": 0.045000000000001705
                },
                {
                    "name": "B3",
                    "midi": 59,
                    "time": 45.277500000000195,
                    "velocity": 0.4094488188976378,
                    "duration": 0.12250000000001648
                },
                {
                    "name": "G#5",
                    "midi": 80,
                    "time": 45.2900000000002,
                    "velocity": 0.2992125984251969,
                    "duration": 0.04500000000000881
                },
                {
                    "name": "E4",
                    "midi": 64,
                    "time": 45.3175000000002,
                    "velocity": 0.2440944881889764,
                    "duration": 0.07000000000000739
                },
                {
                    "name": "C#5",
                    "midi": 73,
                    "time": 45.41000000000021,
                    "velocity": 0.15748031496062992,
                    "duration": 0.08500000000000085
                },
                {
                    "name": "C#4",
                    "midi": 61,
                    "time": 45.60000000000021,
                    "velocity": 0.29133858267716534,
                    "duration": 0.04749999999999943
                },
                {
                    "name": "G#3",
                    "midi": 56,
                    "time": 45.7100000000002,
                    "velocity": 0.4251968503937008,
                    "duration": 0.0975000000000179
                },
                {
                    "name": "E4",
                    "midi": 64,
                    "time": 45.7125000000002,
                    "velocity": 0.3464566929133858,
                    "duration": 0.08000000000001961
                },
                {
                    "name": "C#4",
                    "midi": 61,
                    "time": 45.78500000000022,
                    "velocity": 0.3464566929133858,
                    "duration": 0.0799999999999983
                },
                {
                    "name": "G#4",
                    "midi": 68,
                    "time": 45.91750000000022,
                    "velocity": 0.2755905511811024,
                    "duration": 0.04749999999999943
                },
                {
                    "name": "C#5",
                    "midi": 73,
                    "time": 46.03500000000022,
                    "velocity": 0.16535433070866143,
                    "duration": 0.04999999999999716
                },
                {
                    "name": "F#3",
                    "midi": 54,
                    "time": 46.11250000000021,
                    "velocity": 0.3464566929133858,
                    "duration": 0.3125000000000071
                },
                {
                    "name": "E4",
                    "midi": 64,
                    "time": 46.125000000000206,
                    "velocity": 0.29133858267716534,
                    "duration": 0.11250000000001137
                },
                {
                    "name": "G#5",
                    "midi": 80,
                    "time": 46.1450000000002,
                    "velocity": 0.2283464566929134,
                    "duration": 0.09250000000001535
                },
                {
                    "name": "C#5",
                    "midi": 73,
                    "time": 46.25250000000022,
                    "velocity": 0.2047244094488189,
                    "duration": 0.0625
                },
                {
                    "name": "G#3",
                    "midi": 56,
                    "time": 46.55500000000021,
                    "velocity": 0.4251968503937008,
                    "duration": 0.12749999999999773
                },
                {
                    "name": "E4",
                    "midi": 64,
                    "time": 46.55750000000021,
                    "velocity": 0.3464566929133858,
                    "duration": 0.11999999999999744
                },
                {
                    "name": "C#4",
                    "midi": 61,
                    "time": 46.62250000000021,
                    "velocity": 0.3543307086614173,
                    "duration": 0.10249999999999915
                },
                {
                    "name": "G#4",
                    "midi": 68,
                    "time": 46.76500000000021,
                    "velocity": 0.16535433070866143,
                    "duration": 0.04749999999999943
                },
                {
                    "name": "C#5",
                    "midi": 73,
                    "time": 46.852500000000205,
                    "velocity": 0.18110236220472442,
                    "duration": 0.05749999999999744
                },
                {
                    "name": "E4",
                    "midi": 64,
                    "time": 46.97250000000021,
                    "velocity": 0.31496062992125984,
                    "duration": 0.11249999999999716
                },
                {
                    "name": "G#5",
                    "midi": 80,
                    "time": 46.97500000000021,
                    "velocity": 0.25984251968503935,
                    "duration": 0.05749999999999744
                },
                {
                    "name": "B3",
                    "midi": 59,
                    "time": 46.977500000000205,
                    "velocity": 0.4015748031496063,
                    "duration": 0.12000000000000455
                },
                {
                    "name": "C#5",
                    "midi": 73,
                    "time": 47.062500000000206,
                    "velocity": 0.31496062992125984,
                    "duration": 0.0975000000000037
                },
                {
                    "name": "G#4",
                    "midi": 68,
                    "time": 47.17250000000021,
                    "velocity": 0.25984251968503935,
                    "duration": 0.06499999999999773
                },
                {
                    "name": "C#4",
                    "midi": 61,
                    "time": 47.265000000000214,
                    "velocity": 0.4330708661417323,
                    "duration": 0.06750000000000256
                },
                {
                    "name": "G#3",
                    "midi": 56,
                    "time": 47.38500000000021,
                    "velocity": 0.4015748031496063,
                    "duration": 0.11749999999999972
                },
                {
                    "name": "E4",
                    "midi": 64,
                    "time": 47.39500000000021,
                    "velocity": 0.36220472440944884,
                    "duration": 0.10000000000000142
                },
                {
                    "name": "C#4",
                    "midi": 61,
                    "time": 47.47000000000021,
                    "velocity": 0.4094488188976378,
                    "duration": 0.1075000000000017
                },
                {
                    "name": "G#4",
                    "midi": 68,
                    "time": 47.61000000000021,
                    "velocity": 0.31496062992125984,
                    "duration": 0.060000000000002274
                },
                {
                    "name": "C#5",
                    "midi": 73,
                    "time": 47.685000000000215,
                    "velocity": 0.2677165354330709,
                    "duration": 0.08749999999999147
                },
                {
                    "name": "E4",
                    "midi": 64,
                    "time": 47.775000000000205,
                    "velocity": 0.3858267716535433,
                    "duration": 0.04749999999999943
                },
                {
                    "name": "F#3",
                    "midi": 54,
                    "time": 47.775000000000205,
                    "velocity": 0.44881889763779526,
                    "duration": 0.10499999999999687
                },
                {
                    "name": "G#5",
                    "midi": 80,
                    "time": 47.8100000000002,
                    "velocity": 0.28346456692913385,
                    "duration": 0.03750000000000142
                },
                {
                    "name": "C#5",
                    "midi": 73,
                    "time": 47.9100000000002,
                    "velocity": 0.23622047244094488,
                    "duration": 0.07500000000000284
                },
                {
                    "name": "G#4",
                    "midi": 68,
                    "time": 48.01500000000021,
                    "velocity": 0.13385826771653545,
                    "duration": 0.03999999999999915
                },
                {
                    "name": "C#4",
                    "midi": 61,
                    "time": 48.09250000000021,
                    "velocity": 0.2440944881889764,
                    "duration": 0.04999999999999716
                },
                {
                    "name": "C#3",
                    "midi": 49,
                    "time": 48.195000000000206,
                    "velocity": 0.5354330708661418,
                    "duration": 0.035000000000003695
                },
                {
                    "name": "C#3",
                    "midi": 49,
                    "time": 48.34250000000021,
                    "velocity": 0.3937007874015748,
                    "duration": 0.054999999999999716
                },
                {
                    "name": "G#3",
                    "midi": 56,
                    "time": 48.437500000000206,
                    "velocity": 0.3700787401574803,
                    "duration": 0.06499999999999773
                },
                {
                    "name": "C#4",
                    "midi": 61,
                    "time": 48.540000000000205,
                    "velocity": 0.2283464566929134,
                    "duration": 0.03249999999999886
                },
                {
                    "name": "G#3",
                    "midi": 56,
                    "time": 48.617500000000206,
                    "velocity": 0.5196850393700787,
                    "duration": 0.03249999999999886
                },
                {
                    "name": "G#3",
                    "midi": 56,
                    "time": 48.7150000000002,
                    "velocity": 0.2204724409448819,
                    "duration": 0.10249999999999915
                },
                {
                    "name": "C#4",
                    "midi": 61,
                    "time": 48.822500000000204,
                    "velocity": 0.36220472440944884,
                    "duration": 0.08500000000000085
                },
                {
                    "name": "G#4",
                    "midi": 68,
                    "time": 48.915000000000205,
                    "velocity": 0.47244094488188976,
                    "duration": 0.03249999999999886
                },
                {
                    "name": "C#4",
                    "midi": 61,
                    "time": 49.0150000000002,
                    "velocity": 0.5354330708661418,
                    "duration": 0.03499999999999659
                },
                {
                    "name": "C#4",
                    "midi": 61,
                    "time": 49.10000000000019,
                    "velocity": 0.48031496062992124,
                    "duration": 0.10999999999999943
                },
                {
                    "name": "G#4",
                    "midi": 68,
                    "time": 49.21250000000019,
                    "velocity": 0.4094488188976378,
                    "duration": 0.0899999999999963
                },
                {
                    "name": "C#5",
                    "midi": 73,
                    "time": 49.29250000000019,
                    "velocity": 0.41732283464566927,
                    "duration": 0.03999999999999915
                },
                {
                    "name": "G#4",
                    "midi": 68,
                    "time": 49.39500000000019,
                    "velocity": 0.6299212598425197,
                    "duration": 0.03750000000000142
                },
                {
                    "name": "G#4",
                    "midi": 68,
                    "time": 49.49500000000019,
                    "velocity": 0.4094488188976378,
                    "duration": 0.09250000000000114
                },
                {
                    "name": "C#5",
                    "midi": 73,
                    "time": 49.58000000000019,
                    "velocity": 0.4094488188976378,
                    "duration": 0.11499999999999488
                },
                {
                    "name": "G#5",
                    "midi": 80,
                    "time": 49.68500000000019,
                    "velocity": 0.4881889763779528,
                    "duration": 0.054999999999999716
                },
                {
                    "name": "C#5",
                    "midi": 73,
                    "time": 49.797500000000184,
                    "velocity": 0.6456692913385826,
                    "duration": 0.042499999999996874
                },
                {
                    "name": "C#5",
                    "midi": 73,
                    "time": 49.90000000000018,
                    "velocity": 0.3937007874015748,
                    "duration": 0.12250000000000227
                },
                {
                    "name": "G#5",
                    "midi": 80,
                    "time": 50.007500000000185,
                    "velocity": 0.3937007874015748,
                    "duration": 0.10000000000000142
                },
                {
                    "name": "C#6",
                    "midi": 85,
                    "time": 50.100000000000186,
                    "velocity": 0.44881889763779526,
                    "duration": 0.042499999999996874
                },
                {
                    "name": "C#5",
                    "midi": 73,
                    "time": 50.217500000000186,
                    "velocity": 0.5039370078740157,
                    "duration": 0.03499999999999659
                },
                {
                    "name": "C#5",
                    "midi": 73,
                    "time": 50.40000000000018,
                    "velocity": 0.3779527559055118,
                    "duration": 0.030000000000001137
                },
                {
                    "name": "G#5",
                    "midi": 80,
                    "time": 50.405000000000186,
                    "velocity": 0.3464566929133858,
                    "duration": 0.10000000000000142
                },
                {
                    "name": "C#5",
                    "midi": 73,
                    "time": 50.602500000000184,
                    "velocity": 0.4881889763779528,
                    "duration": 0.042499999999996874
                },
                {
                    "name": "C#5",
                    "midi": 73,
                    "time": 50.71500000000018,
                    "velocity": 0.2755905511811024,
                    "duration": 0.134999999999998
                },
                {
                    "name": "G#5",
                    "midi": 80,
                    "time": 50.80000000000018,
                    "velocity": 0.3228346456692913,
                    "duration": 0.1074999999999946
                },
                {
                    "name": "C#6",
                    "midi": 85,
                    "time": 50.89750000000018,
                    "velocity": 0.2755905511811024,
                    "duration": 0.07750000000000057
                },
                {
                    "name": "C#5",
                    "midi": 73,
                    "time": 50.99750000000018,
                    "velocity": 0.5196850393700787,
                    "duration": 0.03750000000000142
                },
                {
                    "name": "C#5",
                    "midi": 73,
                    "time": 51.110000000000184,
                    "velocity": 0.2677165354330709,
                    "duration": 0.12749999999999773
                },
                {
                    "name": "G#5",
                    "midi": 80,
                    "time": 51.20500000000018,
                    "velocity": 0.2992125984251969,
                    "duration": 0.10499999999999687
                },
                {
                    "name": "C#6",
                    "midi": 85,
                    "time": 51.30750000000018,
                    "velocity": 0.28346456692913385,
                    "duration": 0.04749999999999943
                },
                {
                    "name": "C#5",
                    "midi": 73,
                    "time": 51.42500000000018,
                    "velocity": 0.3543307086614173,
                    "duration": 0.03249999999999886
                },
                {
                    "name": "C#5",
                    "midi": 73,
                    "time": 51.51750000000018,
                    "velocity": 0.33858267716535434,
                    "duration": 0.13250000000000028
                },
                {
                    "name": "G#5",
                    "midi": 80,
                    "time": 51.655000000000186,
                    "velocity": 0.1968503937007874,
                    "duration": 0.07249999999999801
                },
                {
                    "name": "C#6",
                    "midi": 85,
                    "time": 51.73000000000018,
                    "velocity": 0.1968503937007874,
                    "duration": 0.05250000000000199
                },
                {
                    "name": "C#5",
                    "midi": 73,
                    "time": 51.85500000000018,
                    "velocity": 0.2755905511811024,
                    "duration": 0.03249999999999886
                },
                {
                    "name": "C#5",
                    "midi": 73,
                    "time": 51.96500000000018,
                    "velocity": 0.16535433070866143,
                    "duration": 0.12749999999999773
                },
                {
                    "name": "G#5",
                    "midi": 80,
                    "time": 52.07750000000018,
                    "velocity": 0.15748031496062992,
                    "duration": 0.07750000000000057
                },
                {
                    "name": "C#6",
                    "midi": 85,
                    "time": 52.16500000000018,
                    "velocity": 0.25196850393700787,
                    "duration": 0.10999999999999943
                },
                {
                    "name": "C#5",
                    "midi": 73,
                    "time": 52.28750000000018,
                    "velocity": 0.33858267716535434,
                    "duration": 0.04749999999999943
                },
                {
                    "name": "C#5",
                    "midi": 73,
                    "time": 52.41250000000018,
                    "velocity": 0.1889763779527559,
                    "duration": 0.12249999999999517
                },
                {
                    "name": "G#5",
                    "midi": 80,
                    "time": 52.517500000000176,
                    "velocity": 0.25196850393700787,
                    "duration": 0.14750000000000085
                },
                {
                    "name": "C#6",
                    "midi": 85,
                    "time": 52.67250000000018,
                    "velocity": 0.23622047244094488,
                    "duration": 0.0625
                },
                {
                    "name": "C#5",
                    "midi": 73,
                    "time": 52.85000000000018,
                    "velocity": 0.15748031496062992,
                    "duration": 0.0625
                },
                {
                    "name": "C#5",
                    "midi": 73,
                    "time": 52.99750000000018,
                    "velocity": 0.2677165354330709,
                    "duration": 0.20250000000000057
                },
                {
                    "name": "G#5",
                    "midi": 80,
                    "time": 53.20250000000018,
                    "velocity": 0.1889763779527559,
                    "duration": 0.1700000000000017
                },
                {
                    "name": "C#6",
                    "midi": 85,
                    "time": 53.41250000000018,
                    "velocity": 0.10236220472440945,
                    "duration": 0.08250000000000313
                },
                {
                    "name": "B3",
                    "midi": 59,
                    "time": 53.69000000000019,
                    "velocity": 0.33070866141732286,
                    "duration": 0.04750000000000654
                },
                {
                    "name": "C#4",
                    "midi": 61,
                    "time": 53.760000000000204,
                    "velocity": 0.3779527559055118,
                    "duration": 0.09749999999999659
                },
                {
                    "name": "E4",
                    "midi": 64,
                    "time": 53.8575000000002,
                    "velocity": 0.23622047244094488,
                    "duration": 0.045000000000001705
                },
                {
                    "name": "F#4",
                    "midi": 66,
                    "time": 53.8750000000002,
                    "velocity": 0.36220472440944884,
                    "duration": 0.045000000000001705
                },
                {
                    "name": "B4",
                    "midi": 71,
                    "time": 54.002500000000204,
                    "velocity": 0.09448818897637795,
                    "duration": 0.19250000000000966
                },
                {
                    "name": "A4",
                    "midi": 69,
                    "time": 54.02250000000021,
                    "velocity": 0.10236220472440945,
                    "duration": 0.11000000000000654
                },
                {
                    "name": "F#5",
                    "midi": 78,
                    "time": 54.10500000000021,
                    "velocity": 0.25984251968503935,
                    "duration": 0.10500000000000398
                },
                {
                    "name": "E5",
                    "midi": 76,
                    "time": 54.12500000000021,
                    "velocity": 0.13385826771653545,
                    "duration": 0.0625
                },
                {
                    "name": "C#5",
                    "midi": 73,
                    "time": 54.35500000000022,
                    "velocity": 0.4330708661417323,
                    "duration": 0.19500000000000028
                },
                {
                    "name": "C#6",
                    "midi": 85,
                    "time": 54.38500000000022,
                    "velocity": 0.29133858267716534,
                    "duration": 0.1599999999999966
                },
                {
                    "name": "B5",
                    "midi": 83,
                    "time": 54.38500000000022,
                    "velocity": 0.30708661417322836,
                    "duration": 0.2149999999999963
                },
                {
                    "name": "B4",
                    "midi": 71,
                    "time": 54.75750000000021,
                    "velocity": 0.15748031496062992,
                    "duration": 0.060000000000002274
                },
                {
                    "name": "D#6",
                    "midi": 87,
                    "time": 54.912500000000215,
                    "velocity": 0.4015748031496063,
                    "duration": 0.03999999999999204
                },
                {
                    "name": "D#5",
                    "midi": 75,
                    "time": 54.91500000000021,
                    "velocity": 0.4330708661417323,
                    "duration": 0.03499999999999659
                },
                {
                    "name": "B4",
                    "midi": 71,
                    "time": 54.9875000000002,
                    "velocity": 0.10236220472440945,
                    "duration": 0.134999999999998
                },
                {
                    "name": "F#5",
                    "midi": 78,
                    "time": 55.2000000000002,
                    "velocity": 0.3543307086614173,
                    "duration": 0.07000000000000028
                },
                {
                    "name": "C#5",
                    "midi": 73,
                    "time": 55.3750000000002,
                    "velocity": 0.3858267716535433,
                    "duration": 0.0975000000000037
                },
                {
                    "name": "C#6",
                    "midi": 85,
                    "time": 55.3850000000002,
                    "velocity": 0.3543307086614173,
                    "duration": 0.09000000000000341
                },
                {
                    "name": "B5",
                    "midi": 83,
                    "time": 55.4050000000002,
                    "velocity": 0.3700787401574803,
                    "duration": 0.14999999999999858
                },
                {
                    "name": "B4",
                    "midi": 71,
                    "time": 55.7250000000002,
                    "velocity": 0.2204724409448819,
                    "duration": 0.05750000000000455
                },
                {
                    "name": "A4",
                    "midi": 69,
                    "time": 55.7300000000002,
                    "velocity": 0.2047244094488189,
                    "duration": 0.045000000000001705
                },
                {
                    "name": "F#6",
                    "midi": 90,
                    "time": 55.8475000000002,
                    "velocity": 0.4330708661417323,
                    "duration": 0.07000000000000028
                },
                {
                    "name": "F#5",
                    "midi": 78,
                    "time": 55.8500000000002,
                    "velocity": 0.4015748031496063,
                    "duration": 0.07250000000000512
                },
                {
                    "name": "B4",
                    "midi": 71,
                    "time": 55.99000000000021,
                    "velocity": 0.07086614173228346,
                    "duration": 0.14999999999999858
                },
                {
                    "name": "F#5",
                    "midi": 78,
                    "time": 56.08250000000021,
                    "velocity": 0.31496062992125984,
                    "duration": 0.20250000000000057
                },
                {
                    "name": "D#6",
                    "midi": 87,
                    "time": 56.09000000000021,
                    "velocity": 0.3543307086614173,
                    "duration": 0.08749999999999858
                },
                {
                    "name": "D#5",
                    "midi": 75,
                    "time": 56.10750000000021,
                    "velocity": 0.3779527559055118,
                    "duration": 0.042499999999996874
                },
                {
                    "name": "C#6",
                    "midi": 85,
                    "time": 56.39750000000021,
                    "velocity": 0.41732283464566927,
                    "duration": 0.10249999999999915
                },
                {
                    "name": "C#5",
                    "midi": 73,
                    "time": 56.407500000000205,
                    "velocity": 0.3543307086614173,
                    "duration": 0.16749999999999687
                },
                {
                    "name": "B5",
                    "midi": 83,
                    "time": 56.42000000000021,
                    "velocity": 0.3464566929133858,
                    "duration": 0.14499999999999602
                },
                {
                    "name": "F#5",
                    "midi": 78,
                    "time": 56.5675000000002,
                    "velocity": 0.2204724409448819,
                    "duration": 0.04749999999999943
                },
                {
                    "name": "A4",
                    "midi": 69,
                    "time": 56.7325000000002,
                    "velocity": 0.13385826771653545,
                    "duration": 0.042499999999996874
                },
                {
                    "name": "B4",
                    "midi": 71,
                    "time": 56.7350000000002,
                    "velocity": 0.13385826771653545,
                    "duration": 0.045000000000001705
                },
                {
                    "name": "G#5",
                    "midi": 80,
                    "time": 56.8825000000002,
                    "velocity": 0.3937007874015748,
                    "duration": 0.10499999999999687
                },
                {
                    "name": "G#4",
                    "midi": 68,
                    "time": 56.8850000000002,
                    "velocity": 0.31496062992125984,
                    "duration": 0.10999999999999943
                },
                {
                    "name": "A4",
                    "midi": 69,
                    "time": 56.8850000000002,
                    "velocity": 0.25984251968503935,
                    "duration": 0.12749999999999773
                },
                {
                    "name": "B4",
                    "midi": 71,
                    "time": 56.895000000000195,
                    "velocity": 0.10236220472440945,
                    "duration": 0.11500000000000199
                },
                {
                    "name": "F#5",
                    "midi": 78,
                    "time": 57.027500000000195,
                    "velocity": 0.2440944881889764,
                    "duration": 0.20749999999999602
                },
                {
                    "name": "B5",
                    "midi": 83,
                    "time": 57.21750000000019,
                    "velocity": 0.18110236220472442,
                    "duration": 0.05749999999999744
                },
                {
                    "name": "G#4",
                    "midi": 68,
                    "time": 57.365000000000194,
                    "velocity": 0.33070866141732286,
                    "duration": 0.177500000000002
                },
                {
                    "name": "G#5",
                    "midi": 80,
                    "time": 57.365000000000194,
                    "velocity": 0.2755905511811024,
                    "duration": 0.14000000000000057
                },
                {
                    "name": "B5",
                    "midi": 83,
                    "time": 57.36750000000019,
                    "velocity": 0.2992125984251969,
                    "duration": 0.15500000000000114
                },
                {
                    "name": "A5",
                    "midi": 81,
                    "time": 57.43750000000019,
                    "velocity": 0.1732283464566929,
                    "duration": 0.05250000000000199
                },
                {
                    "name": "F#5",
                    "midi": 78,
                    "time": 57.53750000000019,
                    "velocity": 0.25984251968503935,
                    "duration": 0.054999999999999716
                },
                {
                    "name": "A4",
                    "midi": 69,
                    "time": 57.715000000000195,
                    "velocity": 0.13385826771653545,
                    "duration": 0.0449999999999946
                },
                {
                    "name": "B4",
                    "midi": 71,
                    "time": 57.71750000000019,
                    "velocity": 0.11811023622047244,
                    "duration": 0.0449999999999946
                },
                {
                    "name": "F#4",
                    "midi": 66,
                    "time": 57.835000000000186,
                    "velocity": 0.36220472440944884,
                    "duration": 0.0800000000000054
                },
                {
                    "name": "F#5",
                    "midi": 78,
                    "time": 57.85500000000019,
                    "velocity": 0.11811023622047244,
                    "duration": 0.03750000000000142
                },
                {
                    "name": "A4",
                    "midi": 69,
                    "time": 57.91000000000019,
                    "velocity": 0.16535433070866143,
                    "duration": 0.12250000000000227
                },
                {
                    "name": "B4",
                    "midi": 71,
                    "time": 57.91500000000019,
                    "velocity": 0.1968503937007874,
                    "duration": 0.13000000000000256
                },
                {
                    "name": "F#5",
                    "midi": 78,
                    "time": 58.02500000000019,
                    "velocity": 0.13385826771653545,
                    "duration": 0.21250000000000568
                },
                {
                    "name": "B3",
                    "midi": 59,
                    "time": 58.167500000000196,
                    "velocity": 0.2677165354330709,
                    "duration": 0.8950000000000102
                },
                {
                    "name": "C#4",
                    "midi": 61,
                    "time": 58.345000000000205,
                    "velocity": 0.47244094488188976,
                    "duration": 0.292500000000004
                },
                {
                    "name": "C#5",
                    "midi": 73,
                    "time": 58.3500000000002,
                    "velocity": 0.31496062992125984,
                    "duration": 0.21500000000001052
                },
                {
                    "name": "B5",
                    "midi": 83,
                    "time": 58.367500000000206,
                    "velocity": 0.2992125984251969,
                    "duration": 0.12750000000000483
                },
                {
                    "name": "A5",
                    "midi": 81,
                    "time": 58.41500000000021,
                    "velocity": 0.2440944881889764,
                    "duration": 0.052499999999994884
                },
                {
                    "name": "F#5",
                    "midi": 78,
                    "time": 58.53250000000021,
                    "velocity": 0.1889763779527559,
                    "duration": 0.07000000000000028
                },
                {
                    "name": "D#5",
                    "midi": 75,
                    "time": 58.82250000000021,
                    "velocity": 0.3779527559055118,
                    "duration": 0.10999999999999943
                },
                {
                    "name": "D#4",
                    "midi": 63,
                    "time": 58.83000000000021,
                    "velocity": 0.4409448818897638,
                    "duration": 0.14499999999999602
                },
                {
                    "name": "A4",
                    "midi": 69,
                    "time": 58.872500000000215,
                    "velocity": 0.13385826771653545,
                    "duration": 0.1249999999999929
                },
                {
                    "name": "B4",
                    "midi": 71,
                    "time": 58.87500000000021,
                    "velocity": 0.15748031496062992,
                    "duration": 0.13749999999999574
                },
                {
                    "name": "F#5",
                    "midi": 78,
                    "time": 58.99500000000021,
                    "velocity": 0.30708661417322836,
                    "duration": 0.17249999999999233
                },
                {
                    "name": "C#4",
                    "midi": 61,
                    "time": 59.282500000000205,
                    "velocity": 0.33858267716535434,
                    "duration": 0.16250000000000142
                },
                {
                    "name": "B5",
                    "midi": 83,
                    "time": 59.305000000000206,
                    "velocity": 0.4251968503937008,
                    "duration": 0.1600000000000037
                },
                {
                    "name": "C#5",
                    "midi": 73,
                    "time": 59.315000000000204,
                    "velocity": 0.3543307086614173,
                    "duration": 0.12750000000000483
                },
                {
                    "name": "A5",
                    "midi": 81,
                    "time": 59.3375000000002,
                    "velocity": 0.3228346456692913,
                    "duration": 0.052500000000009095
                },
                {
                    "name": "F#5",
                    "midi": 78,
                    "time": 59.48000000000021,
                    "velocity": 0.2677165354330709,
                    "duration": 0.07249999999999801
                },
                {
                    "name": "F#5",
                    "midi": 78,
                    "time": 59.76500000000021,
                    "velocity": 0.4015748031496063,
                    "duration": 0.07750000000000057
                },
                {
                    "name": "F#4",
                    "midi": 66,
                    "time": 59.77000000000021,
                    "velocity": 0.33070866141732286,
                    "duration": 0.2049999999999983
                },
                {
                    "name": "A4",
                    "midi": 69,
                    "time": 59.82250000000021,
                    "velocity": 0.1889763779527559,
                    "duration": 0.13999999999999346
                },
                {
                    "name": "B4",
                    "midi": 71,
                    "time": 59.82500000000021,
                    "velocity": 0.2204724409448819,
                    "duration": 0.14999999999999858
                },
                {
                    "name": "F#5",
                    "midi": 78,
                    "time": 60.000000000000206,
                    "velocity": 0.13385826771653545,
                    "duration": 0.1600000000000037
                },
                {
                    "name": "D#4",
                    "midi": 63,
                    "time": 60.002500000000204,
                    "velocity": 0.4015748031496063,
                    "duration": 0.22000000000000597
                },
                {
                    "name": "D#5",
                    "midi": 75,
                    "time": 60.032500000000205,
                    "velocity": 0.1968503937007874,
                    "duration": 0.08250000000000313
                },
                {
                    "name": "B5",
                    "midi": 83,
                    "time": 60.13500000000021,
                    "velocity": 0.3543307086614173,
                    "duration": 0.04749999999999943
                },
                {
                    "name": "B5",
                    "midi": 83,
                    "time": 60.29000000000021,
                    "velocity": 0.2283464566929134,
                    "duration": 0.17249999999999233
                },
                {
                    "name": "C#4",
                    "midi": 61,
                    "time": 60.310000000000215,
                    "velocity": 0.3700787401574803,
                    "duration": 0.18499999999998806
                },
                {
                    "name": "C#5",
                    "midi": 73,
                    "time": 60.310000000000215,
                    "velocity": 0.2440944881889764,
                    "duration": 0.11749999999999261
                },
                {
                    "name": "A5",
                    "midi": 81,
                    "time": 60.34000000000022,
                    "velocity": 0.15748031496062992,
                    "duration": 0.16499999999998494
                },
                {
                    "name": "F#5",
                    "midi": 78,
                    "time": 60.437500000000206,
                    "velocity": 0.33858267716535434,
                    "duration": 0.13249999999999318
                },
                {
                    "name": "B4",
                    "midi": 71,
                    "time": 60.5925000000002,
                    "velocity": 0.2440944881889764,
                    "duration": 0.05750000000000455
                },
                {
                    "name": "A4",
                    "midi": 69,
                    "time": 60.5975000000002,
                    "velocity": 0.2047244094488189,
                    "duration": 0.04749999999999943
                },
                {
                    "name": "G#3",
                    "midi": 56,
                    "time": 60.742500000000206,
                    "velocity": 0.41732283464566927,
                    "duration": 0.18250000000000455
                },
                {
                    "name": "G#4",
                    "midi": 68,
                    "time": 60.76250000000021,
                    "velocity": 0.33070866141732286,
                    "duration": 0.14000000000000057
                },
                {
                    "name": "B4",
                    "midi": 71,
                    "time": 60.78000000000021,
                    "velocity": 0.1968503937007874,
                    "duration": 0.1425000000000054
                },
                {
                    "name": "A4",
                    "midi": 69,
                    "time": 60.782500000000205,
                    "velocity": 0.2440944881889764,
                    "duration": 0.12750000000000483
                },
                {
                    "name": "F#5",
                    "midi": 78,
                    "time": 60.90500000000021,
                    "velocity": 0.33070866141732286,
                    "duration": 0.20250000000000767
                },
                {
                    "name": "B5",
                    "midi": 83,
                    "time": 61.06250000000021,
                    "velocity": 0.4094488188976378,
                    "duration": 0.05750000000000455
                },
                {
                    "name": "G#3",
                    "midi": 56,
                    "time": 61.22000000000022,
                    "velocity": 0.4015748031496063,
                    "duration": 0.2925000000000182
                },
                {
                    "name": "G#4",
                    "midi": 68,
                    "time": 61.22750000000022,
                    "velocity": 0.31496062992125984,
                    "duration": 0.21000000000002217
                },
                {
                    "name": "B5",
                    "midi": 83,
                    "time": 61.23750000000022,
                    "velocity": 0.31496062992125984,
                    "duration": 0.1950000000000216
                },
                {
                    "name": "A5",
                    "midi": 81,
                    "time": 61.262500000000216,
                    "velocity": 0.2992125984251969,
                    "duration": 0.1775000000000233
                },
                {
                    "name": "F#5",
                    "midi": 78,
                    "time": 61.420000000000236,
                    "velocity": 0.29133858267716534,
                    "duration": 0.11250000000000426
                },
                {
                    "name": "B4",
                    "midi": 71,
                    "time": 61.59500000000024,
                    "velocity": 0.15748031496062992,
                    "duration": 0.052499999999994884
                },
                {
                    "name": "A4",
                    "midi": 69,
                    "time": 61.59500000000024,
                    "velocity": 0.15748031496062992,
                    "duration": 0.04999999999999716
                },
                {
                    "name": "F#3",
                    "midi": 54,
                    "time": 61.74500000000023,
                    "velocity": 0.2992125984251969,
                    "duration": 0.09250000000000824
                },
                {
                    "name": "F#4",
                    "midi": 66,
                    "time": 61.75500000000023,
                    "velocity": 0.2677165354330709,
                    "duration": 0.15750000000001307
                },
                {
                    "name": "A4",
                    "midi": 69,
                    "time": 61.77500000000023,
                    "velocity": 0.2677165354330709,
                    "duration": 0.13750000000000995
                },
                {
                    "name": "B4",
                    "midi": 71,
                    "time": 61.77750000000023,
                    "velocity": 0.16535433070866143,
                    "duration": 0.13500000000001222
                },
                {
                    "name": "F#5",
                    "midi": 78,
                    "time": 61.92250000000024,
                    "velocity": 0.2992125984251969,
                    "duration": 0.20000000000000284
                },
                {
                    "name": "B5",
                    "midi": 83,
                    "time": 62.060000000000244,
                    "velocity": 0.2440944881889764,
                    "duration": 0.09250000000000114
                },
                {
                    "name": "A5",
                    "midi": 81,
                    "time": 62.10000000000024,
                    "velocity": 0.10236220472440945,
                    "duration": 0.04749999999999943
                },
                {
                    "name": "F#5",
                    "midi": 78,
                    "time": 62.40000000000027,
                    "velocity": 0.09448818897637795,
                    "duration": 0.37000000000001876
                },
                {
                    "name": "B2",
                    "midi": 47,
                    "time": 62.40000000000027,
                    "velocity": 0.30708661417322836,
                    "duration": 0.035000000000003695
                },
                {
                    "name": "C#5",
                    "midi": 73,
                    "time": 62.40000000000027,
                    "velocity": 0.29133858267716534,
                    "duration": 0.08750000000000568
                },
                {
                    "name": "C#6",
                    "midi": 85,
                    "time": 62.40000000000027,
                    "velocity": 0.3937007874015748,
                    "duration": 0.10500000000000398
                },
                {
                    "name": "C#3",
                    "midi": 49,
                    "time": 62.440000000000275,
                    "velocity": 0.3937007874015748,
                    "duration": 0.14750000000000085
                },
                {
                    "name": "E3",
                    "midi": 52,
                    "time": 62.56000000000027,
                    "velocity": 0.4094488188976378,
                    "duration": 0.04000000000000625
                },
                {
                    "name": "A3",
                    "midi": 57,
                    "time": 62.62250000000028,
                    "velocity": 0.47244094488188976,
                    "duration": 0.05250000000000199
                },
                {
                    "name": "D#6",
                    "midi": 87,
                    "time": 62.74750000000029,
                    "velocity": 0.3937007874015748,
                    "duration": 0.12750000000000483
                },
                {
                    "name": "D#5",
                    "midi": 75,
                    "time": 62.76750000000029,
                    "velocity": 0.36220472440944884,
                    "duration": 0.10999999999999943
                },
                {
                    "name": "G#5",
                    "midi": 80,
                    "time": 62.77750000000029,
                    "velocity": 0.3464566929133858,
                    "duration": 0.46999999999999886
                },
                {
                    "name": "B3",
                    "midi": 59,
                    "time": 62.78500000000029,
                    "velocity": 0.3464566929133858,
                    "duration": 0.10000000000000142
                },
                {
                    "name": "C#4",
                    "midi": 61,
                    "time": 62.90500000000029,
                    "velocity": 0.41732283464566927,
                    "duration": 0.10999999999999943
                },
                {
                    "name": "E4",
                    "midi": 64,
                    "time": 63.005000000000294,
                    "velocity": 0.3858267716535433,
                    "duration": 0.07000000000000028
                },
                {
                    "name": "A4",
                    "midi": 69,
                    "time": 63.10750000000029,
                    "velocity": 0.2204724409448819,
                    "duration": 0.05749999999999744
                },
                {
                    "name": "C#5",
                    "midi": 73,
                    "time": 63.19750000000029,
                    "velocity": 0.3937007874015748,
                    "duration": 0.06749999999999545
                },
                {
                    "name": "C#6",
                    "midi": 85,
                    "time": 63.20000000000029,
                    "velocity": 0.4881889763779528,
                    "duration": 0.09999999999999432
                },
                {
                    "name": "F#5",
                    "midi": 78,
                    "time": 63.21500000000029,
                    "velocity": 0.25196850393700787,
                    "duration": 0.04999999999999716
                },
                {
                    "name": "B3",
                    "midi": 59,
                    "time": 63.22250000000029,
                    "velocity": 0.3779527559055118,
                    "duration": 0.45250000000000057
                },
                {
                    "name": "C#4",
                    "midi": 61,
                    "time": 63.33000000000028,
                    "velocity": 0.4566929133858268,
                    "duration": 0.13250000000000028
                },
                {
                    "name": "E4",
                    "midi": 64,
                    "time": 63.445000000000285,
                    "velocity": 0.41732283464566927,
                    "duration": 0.03249999999999886
                },
                {
                    "name": "A4",
                    "midi": 69,
                    "time": 63.51750000000028,
                    "velocity": 0.4645669291338583,
                    "duration": 0.07750000000000767
                },
                {
                    "name": "F#6",
                    "midi": 90,
                    "time": 63.62500000000029,
                    "velocity": 0.48031496062992124,
                    "duration": 0.0799999999999983
                },
                {
                    "name": "F#5",
                    "midi": 78,
                    "time": 63.63500000000029,
                    "velocity": 0.4015748031496063,
                    "duration": 0.04749999999999943
                },
                {
                    "name": "E5",
                    "midi": 76,
                    "time": 63.64500000000029,
                    "velocity": 0.5590551181102362,
                    "duration": 0.03750000000000142
                },
                {
                    "name": "B5",
                    "midi": 83,
                    "time": 63.65000000000029,
                    "velocity": 0.3464566929133858,
                    "duration": 0.03999999999999915
                },
                {
                    "name": "A4",
                    "midi": 69,
                    "time": 63.80500000000029,
                    "velocity": 0.4094488188976378,
                    "duration": 0.05250000000000199
                },
                {
                    "name": "D#6",
                    "midi": 87,
                    "time": 63.825000000000294,
                    "velocity": 0.48031496062992124,
                    "duration": 0.09000000000000341
                },
                {
                    "name": "D#5",
                    "midi": 75,
                    "time": 63.8300000000003,
                    "velocity": 0.48031496062992124,
                    "duration": 0.07750000000000057
                },
                {
                    "name": "G#5",
                    "midi": 80,
                    "time": 63.855000000000295,
                    "velocity": 0.3464566929133858,
                    "duration": 0.03999999999999915
                },
                {
                    "name": "E4",
                    "midi": 64,
                    "time": 63.9225000000003,
                    "velocity": 0.3700787401574803,
                    "duration": 0.03999999999999915
                },
                {
                    "name": "C#4",
                    "midi": 61,
                    "time": 64.0000000000003,
                    "velocity": 0.3228346456692913,
                    "duration": 0.07749999999995794
                },
                {
                    "name": "C#6",
                    "midi": 85,
                    "time": 64.06250000000027,
                    "velocity": 0.5433070866141733,
                    "duration": 0.11249999999998295
                },
                {
                    "name": "C#5",
                    "midi": 73,
                    "time": 64.06500000000027,
                    "velocity": 0.48031496062992124,
                    "duration": 0.11249999999998295
                },
                {
                    "name": "F#5",
                    "midi": 78,
                    "time": 64.10500000000026,
                    "velocity": 0.2440944881889764,
                    "duration": 0.08249999999999602
                },
                {
                    "name": "B3",
                    "midi": 59,
                    "time": 64.11250000000025,
                    "velocity": 0.3858267716535433,
                    "duration": 0.09499999999999886
                },
                {
                    "name": "C#4",
                    "midi": 61,
                    "time": 64.21500000000024,
                    "velocity": 0.4251968503937008,
                    "duration": 0.11749999999999261
                },
                {
                    "name": "E4",
                    "midi": 64,
                    "time": 64.28500000000024,
                    "velocity": 0.3858267716535433,
                    "duration": 0.09999999999999432
                },
                {
                    "name": "A4",
                    "midi": 69,
                    "time": 64.40500000000023,
                    "velocity": 0.2992125984251969,
                    "duration": 0.06499999999999773
                },
                {
                    "name": "G#4",
                    "midi": 68,
                    "time": 64.48250000000023,
                    "velocity": 0.5196850393700787,
                    "duration": 0.08999999999996078
                },
                {
                    "name": "G#5",
                    "midi": 80,
                    "time": 64.48500000000023,
                    "velocity": 0.5275590551181102,
                    "duration": 0.1374999999999602
                },
                {
                    "name": "C#5",
                    "midi": 73,
                    "time": 64.49000000000022,
                    "velocity": 0.4251968503937008,
                    "duration": 0.11499999999996646
                },
                {
                    "name": "B3",
                    "midi": 59,
                    "time": 64.50500000000021,
                    "velocity": 0.4330708661417323,
                    "duration": 0.10749999999997328
                },
                {
                    "name": "C#4",
                    "midi": 61,
                    "time": 64.63500000000019,
                    "velocity": 0.36220472440944884,
                    "duration": 0.10999999999999943
                },
                {
                    "name": "E4",
                    "midi": 64,
                    "time": 64.7250000000002,
                    "velocity": 0.3937007874015748,
                    "duration": 0.04249999999998977
                },
                {
                    "name": "A4",
                    "midi": 69,
                    "time": 64.85500000000019,
                    "velocity": 0.16535433070866143,
                    "duration": 0.06749999999999545
                },
                {
                    "name": "G#5",
                    "midi": 80,
                    "time": 64.91500000000019,
                    "velocity": 0.5196850393700787,
                    "duration": 0.16999999999997328
                },
                {
                    "name": "C#5",
                    "midi": 73,
                    "time": 64.92500000000018,
                    "velocity": 0.4251968503937008,
                    "duration": 0.585000000000008
                },
                {
                    "name": "G#4",
                    "midi": 68,
                    "time": 64.92500000000018,
                    "velocity": 0.4881889763779528,
                    "duration": 0.09749999999998238
                },
                {
                    "name": "B3",
                    "midi": 59,
                    "time": 64.93250000000018,
                    "velocity": 0.33070866141732286,
                    "duration": 0.13999999999998636
                },
                {
                    "name": "C#4",
                    "midi": 61,
                    "time": 65.06500000000017,
                    "velocity": 0.33070866141732286,
                    "duration": 0.14499999999999602
                },
                {
                    "name": "E4",
                    "midi": 64,
                    "time": 65.19250000000017,
                    "velocity": 0.1732283464566929,
                    "duration": 0.07250000000000512
                },
                {
                    "name": "F#5",
                    "midi": 78,
                    "time": 65.35500000000017,
                    "velocity": 0.3858267716535433,
                    "duration": 0.17500000000001137
                },
                {
                    "name": "F#4",
                    "midi": 66,
                    "time": 65.39000000000017,
                    "velocity": 0.2755905511811024,
                    "duration": 0.11000000000001364
                },
                {
                    "name": "B3",
                    "midi": 59,
                    "time": 65.39250000000017,
                    "velocity": 0.29133858267716534,
                    "duration": 0.12750000000001194
                },
                {
                    "name": "B4",
                    "midi": 71,
                    "time": 65.43250000000018,
                    "velocity": 0.2440944881889764,
                    "duration": 0.05750000000000455
                },
                {
                    "name": "C#4",
                    "midi": 61,
                    "time": 65.51500000000019,
                    "velocity": 0.4094488188976378,
                    "duration": 0.1074999999999875
                },
                {
                    "name": "E4",
                    "midi": 64,
                    "time": 65.61500000000018,
                    "velocity": 0.2992125984251969,
                    "duration": 0.05499999999999261
                },
                {
                    "name": "A4",
                    "midi": 69,
                    "time": 65.66500000000018,
                    "velocity": 0.3700787401574803,
                    "duration": 0.04249999999998977
                },
                {
                    "name": "G#3",
                    "midi": 56,
                    "time": 65.82000000000015,
                    "velocity": 0.48031496062992124,
                    "duration": 0.18249999999999034
                },
                {
                    "name": "E5",
                    "midi": 76,
                    "time": 65.84000000000015,
                    "velocity": 0.4015748031496063,
                    "duration": 0.08499999999999375
                },
                {
                    "name": "A4",
                    "midi": 69,
                    "time": 65.84250000000014,
                    "velocity": 0.07086614173228346,
                    "duration": 0.0724999999999909
                },
                {
                    "name": "E4",
                    "midi": 64,
                    "time": 65.84500000000014,
                    "velocity": 0.4015748031496063,
                    "duration": 0.04749999999999943
                },
                {
                    "name": "A3",
                    "midi": 57,
                    "time": 65.99750000000014,
                    "velocity": 0.44881889763779526,
                    "duration": 0.10499999999998977
                },
                {
                    "name": "C#4",
                    "midi": 61,
                    "time": 66.08000000000014,
                    "velocity": 0.4094488188976378,
                    "duration": 0.10749999999997328
                },
                {
                    "name": "E4",
                    "midi": 64,
                    "time": 66.17000000000013,
                    "velocity": 0.3858267716535433,
                    "duration": 0.08999999999994657
                },
                {
                    "name": "F#4",
                    "midi": 66,
                    "time": 66.23250000000009,
                    "velocity": 0.4566929133858268,
                    "duration": 0.06999999999999318
                },
                {
                    "name": "F#5",
                    "midi": 78,
                    "time": 66.23500000000008,
                    "velocity": 0.4881889763779528,
                    "duration": 0.09749999999999659
                },
                {
                    "name": "F#3",
                    "midi": 54,
                    "time": 66.25500000000008,
                    "velocity": 0.44881889763779526,
                    "duration": 0.12749999999999773
                },
                {
                    "name": "A3",
                    "midi": 57,
                    "time": 66.44250000000008,
                    "velocity": 0.15748031496062992,
                    "duration": 0.05499999999999261
                },
                {
                    "name": "C#4",
                    "midi": 61,
                    "time": 66.44500000000008,
                    "velocity": 0.4645669291338583,
                    "duration": 0.1074999999999875
                },
                {
                    "name": "E5",
                    "midi": 76,
                    "time": 66.45750000000008,
                    "velocity": 0.5433070866141733,
                    "duration": 0.06249999999998579
                },
                {
                    "name": "E4",
                    "midi": 64,
                    "time": 66.46500000000007,
                    "velocity": 0.3700787401574803,
                    "duration": 0.04250000000000398
                },
                {
                    "name": "A4",
                    "midi": 69,
                    "time": 66.47500000000008,
                    "velocity": 0.41732283464566927,
                    "duration": 0.03999999999999204
                },
                {
                    "name": "E4",
                    "midi": 64,
                    "time": 66.58500000000006,
                    "velocity": 0.15748031496062992,
                    "duration": 0.04999999999999716
                },
                {
                    "name": "C#4",
                    "midi": 61,
                    "time": 66.69000000000005,
                    "velocity": 0.5118110236220472,
                    "duration": 0.16749999999996135
                },
                {
                    "name": "C#5",
                    "midi": 73,
                    "time": 66.69500000000005,
                    "velocity": 0.4881889763779528,
                    "duration": 0.29999999999996874
                },
                {
                    "name": "E3",
                    "midi": 52,
                    "time": 66.70000000000005,
                    "velocity": 0.49606299212598426,
                    "duration": 0.10749999999997328
                },
                {
                    "name": "F#4",
                    "midi": 66,
                    "time": 66.70250000000004,
                    "velocity": 0.33858267716535434,
                    "duration": 0.234999999999971
                },
                {
                    "name": "F#3",
                    "midi": 54,
                    "time": 66.80750000000002,
                    "velocity": 0.44881889763779526,
                    "duration": 0.16750000000000398
                },
                {
                    "name": "A3",
                    "midi": 57,
                    "time": 66.95000000000002,
                    "velocity": 0.29133858267716534,
                    "duration": 0.0724999999999909
                },
                {
                    "name": "C#4",
                    "midi": 61,
                    "time": 67.00000000000001,
                    "velocity": 0.4015748031496063,
                    "duration": 0.09499999999999886
                },
                {
                    "name": "E4",
                    "midi": 64,
                    "time": 67.1175,
                    "velocity": 0.3858267716535433,
                    "duration": 0.052499999999994884
                },
                {
                    "name": "C#4",
                    "midi": 61,
                    "time": 67.2,
                    "velocity": 0.28346456692913385,
                    "duration": 0.06749999999999545
                },
                {
                    "name": "A3",
                    "midi": 57,
                    "time": 67.28999999999999,
                    "velocity": 0.2755905511811024,
                    "duration": 0.06999999999999318
                },
                {
                    "name": "F#3",
                    "midi": 54,
                    "time": 67.36499999999998,
                    "velocity": 0.3779527559055118,
                    "duration": 0.07500000000000284
                },
                {
                    "name": "E5",
                    "midi": 76,
                    "time": 67.49499999999996,
                    "velocity": 0.5433070866141733,
                    "duration": 0.10999999999998522
                },
                {
                    "name": "C#3",
                    "midi": 49,
                    "time": 67.49999999999996,
                    "velocity": 0.5196850393700787,
                    "duration": 0.12749999999999773
                },
                {
                    "name": "A4",
                    "midi": 69,
                    "time": 67.50999999999996,
                    "velocity": 0.4330708661417323,
                    "duration": 0.10499999999998977
                },
                {
                    "name": "E4",
                    "midi": 64,
                    "time": 67.51249999999996,
                    "velocity": 0.44881889763779526,
                    "duration": 0.07749999999998636
                },
                {
                    "name": "E3",
                    "midi": 52,
                    "time": 67.62499999999996,
                    "velocity": 0.3464566929133858,
                    "duration": 0.13249999999999318
                },
                {
                    "name": "F#3",
                    "midi": 54,
                    "time": 67.71999999999996,
                    "velocity": 0.4645669291338583,
                    "duration": 0.12749999999998352
                },
                {
                    "name": "A3",
                    "midi": 57,
                    "time": 67.77999999999994,
                    "velocity": 0.4566929133858268,
                    "duration": 0.24499999999997613
                },
                {
                    "name": "F#4",
                    "midi": 66,
                    "time": 67.90999999999994,
                    "velocity": 0.4881889763779528,
                    "duration": 0.06999999999997897
                },
                {
                    "name": "F#5",
                    "midi": 78,
                    "time": 67.91249999999994,
                    "velocity": 0.4094488188976378,
                    "duration": 0.08749999999997726
                },
                {
                    "name": "C#4",
                    "midi": 61,
                    "time": 67.92249999999993,
                    "velocity": 0.48031496062992124,
                    "duration": 0.1349999999999909
                },
                {
                    "name": "A3",
                    "midi": 57,
                    "time": 68.03999999999992,
                    "velocity": 0.30708661417322836,
                    "duration": 0.09499999999998465
                },
                {
                    "name": "F#3",
                    "midi": 54,
                    "time": 68.08749999999992,
                    "velocity": 0.4015748031496063,
                    "duration": 0.13999999999997215
                },
                {
                    "name": "E5",
                    "midi": 76,
                    "time": 68.12499999999991,
                    "velocity": 0.5511811023622047,
                    "duration": 0.0724999999999767
                },
                {
                    "name": "E4",
                    "midi": 64,
                    "time": 68.12749999999991,
                    "velocity": 0.5511811023622047,
                    "duration": 0.06499999999998352
                },
                {
                    "name": "A4",
                    "midi": 69,
                    "time": 68.1424999999999,
                    "velocity": 0.4251968503937008,
                    "duration": 0.037499999999994316
                },
                {
                    "name": "E3",
                    "midi": 52,
                    "time": 68.1774999999999,
                    "velocity": 0.4645669291338583,
                    "duration": 0.09999999999999432
                },
                {
                    "name": "B2",
                    "midi": 47,
                    "time": 68.33999999999988,
                    "velocity": 0.5433070866141733,
                    "duration": 0.1349999999999767
                },
                {
                    "name": "C#5",
                    "midi": 73,
                    "time": 68.34749999999987,
                    "velocity": 0.5275590551181102,
                    "duration": 0.23999999999998067
                },
                {
                    "name": "C#4",
                    "midi": 61,
                    "time": 68.35249999999986,
                    "velocity": 0.6062992125984252,
                    "duration": 0.23499999999998522
                },
                {
                    "name": "F#4",
                    "midi": 66,
                    "time": 68.36499999999987,
                    "velocity": 0.4645669291338583,
                    "duration": 0.22249999999998238
                },
                {
                    "name": "C#3",
                    "midi": 49,
                    "time": 68.47749999999985,
                    "velocity": 0.4881889763779528,
                    "duration": 0.14499999999999602
                },
                {
                    "name": "E3",
                    "midi": 52,
                    "time": 68.56749999999985,
                    "velocity": 0.5196850393700787,
                    "duration": 0.13249999999997897
                },
                {
                    "name": "B4",
                    "midi": 71,
                    "time": 68.57999999999986,
                    "velocity": 0.5433070866141733,
                    "duration": 0.08499999999997954
                },
                {
                    "name": "B3",
                    "midi": 59,
                    "time": 68.58249999999985,
                    "velocity": 0.47244094488188976,
                    "duration": 0.044999999999987494
                },
                {
                    "name": "E4",
                    "midi": 64,
                    "time": 68.58749999999985,
                    "velocity": 0.47244094488188976,
                    "duration": 0.04249999999998977
                },
                {
                    "name": "F#3",
                    "midi": 54,
                    "time": 68.68499999999983,
                    "velocity": 0.4566929133858268,
                    "duration": 0.07500000000000284
                },
                {
                    "name": "A3",
                    "midi": 57,
                    "time": 68.77499999999984,
                    "velocity": 0.4645669291338583,
                    "duration": 0.12250000000000227
                },
                {
                    "name": "C#5",
                    "midi": 73,
                    "time": 68.78749999999984,
                    "velocity": 0.5354330708661418,
                    "duration": 0.09999999999999432
                },
                {
                    "name": "C#4",
                    "midi": 61,
                    "time": 68.78999999999984,
                    "velocity": 0.5905511811023622,
                    "duration": 0.0799999999999983
                },
                {
                    "name": "F#3",
                    "midi": 54,
                    "time": 68.85499999999983,
                    "velocity": 0.2992125984251969,
                    "duration": 0.13000000000000966
                },
                {
                    "name": "C#3",
                    "midi": 49,
                    "time": 69.00999999999985,
                    "velocity": 0.5433070866141733,
                    "duration": 0.09499999999999886
                },
                {
                    "name": "A2",
                    "midi": 45,
                    "time": 69.17499999999984,
                    "velocity": 0.5118110236220472,
                    "duration": 0.12999999999999545
                },
                {
                    "name": "E5",
                    "midi": 76,
                    "time": 69.20499999999984,
                    "velocity": 0.5590551181102362,
                    "duration": 0.10499999999998977
                },
                {
                    "name": "E4",
                    "midi": 64,
                    "time": 69.21499999999985,
                    "velocity": 0.5196850393700787,
                    "duration": 0.07999999999998408
                },
                {
                    "name": "A4",
                    "midi": 69,
                    "time": 69.21499999999985,
                    "velocity": 0.4566929133858268,
                    "duration": 0.09749999999998238
                },
                {
                    "name": "C#3",
                    "midi": 49,
                    "time": 69.30499999999984,
                    "velocity": 0.5275590551181102,
                    "duration": 0.10999999999998522
                },
                {
                    "name": "E3",
                    "midi": 52,
                    "time": 69.40999999999983,
                    "velocity": 0.5118110236220472,
                    "duration": 0.1075000000000017
                },
                {
                    "name": "F#3",
                    "midi": 54,
                    "time": 69.59999999999982,
                    "velocity": 0.5118110236220472,
                    "duration": 0.014999999999986358
                },
                {
                    "name": "F#4",
                    "midi": 66,
                    "time": 69.60749999999982,
                    "velocity": 0.5590551181102362,
                    "duration": 0.06499999999998352
                },
                {
                    "name": "C#5",
                    "midi": 73,
                    "time": 69.61499999999981,
                    "velocity": 0.44881889763779526,
                    "duration": 0.03499999999999659
                },
                {
                    "name": "F#5",
                    "midi": 78,
                    "time": 69.61749999999981,
                    "velocity": 0.5354330708661418,
                    "duration": 0.07749999999998636
                },
                {
                    "name": "A3",
                    "midi": 57,
                    "time": 69.6249999999998,
                    "velocity": 0.5433070866141733,
                    "duration": 0.10999999999998522
                },
                {
                    "name": "F#3",
                    "midi": 54,
                    "time": 69.72999999999979,
                    "velocity": 0.5669291338582677,
                    "duration": 0.0724999999999909
                },
                {
                    "name": "E3",
                    "midi": 52,
                    "time": 69.83499999999978,
                    "velocity": 0.5669291338582677,
                    "duration": 0.12000000000000455
                },
                {
                    "name": "C#3",
                    "midi": 49,
                    "time": 69.94499999999978,
                    "velocity": 0.5354330708661418,
                    "duration": 0.0899999999999892
                },
                {
                    "name": "E5",
                    "midi": 76,
                    "time": 70.02499999999978,
                    "velocity": 0.5984251968503937,
                    "duration": 0.09499999999997044
                },
                {
                    "name": "G#2",
                    "midi": 44,
                    "time": 70.02749999999978,
                    "velocity": 0.6062992125984252,
                    "duration": 0.16749999999997556
                },
                {
                    "name": "E4",
                    "midi": 64,
                    "time": 70.02999999999977,
                    "velocity": 0.5984251968503937,
                    "duration": 0.0724999999999767
                },
                {
                    "name": "A4",
                    "midi": 69,
                    "time": 70.03749999999977,
                    "velocity": 0.5354330708661418,
                    "duration": 0.04749999999998522
                },
                {
                    "name": "C#3",
                    "midi": 49,
                    "time": 70.16499999999975,
                    "velocity": 0.5590551181102362,
                    "duration": 0.09000000000000341
                },
                {
                    "name": "E3",
                    "midi": 52,
                    "time": 70.26499999999976,
                    "velocity": 0.5669291338582677,
                    "duration": 0.10999999999999943
                },
                {
                    "name": "F#3",
                    "midi": 54,
                    "time": 70.38499999999976,
                    "velocity": 0.5275590551181102,
                    "duration": 0.0799999999999983
                },
                {
                    "name": "C#5",
                    "midi": 73,
                    "time": 70.41249999999977,
                    "velocity": 0.5984251968503937,
                    "duration": 0.08499999999999375
                },
                {
                    "name": "C#4",
                    "midi": 61,
                    "time": 70.41499999999976,
                    "velocity": 0.6220472440944882,
                    "duration": 0.060000000000002274
                },
                {
                    "name": "F#4",
                    "midi": 66,
                    "time": 70.42749999999977,
                    "velocity": 0.5275590551181102,
                    "duration": 0.037499999999994316
                },
                {
                    "name": "A3",
                    "midi": 57,
                    "time": 70.46249999999976,
                    "velocity": 0.5118110236220472,
                    "duration": 0.11249999999999716
                },
                {
                    "name": "F#3",
                    "midi": 54,
                    "time": 70.57499999999976,
                    "velocity": 0.5354330708661418,
                    "duration": 0.08499999999999375
                },
                {
                    "name": "E3",
                    "midi": 52,
                    "time": 70.68999999999976,
                    "velocity": 0.5669291338582677,
                    "duration": 0.11749999999999261
                },
                {
                    "name": "C#3",
                    "midi": 49,
                    "time": 70.79999999999976,
                    "velocity": 0.5039370078740157,
                    "duration": 0.125
                },
                {
                    "name": "F#2",
                    "midi": 42,
                    "time": 70.93749999999974,
                    "velocity": 0.5511811023622047,
                    "duration": 0.15749999999998465
                },
                {
                    "name": "B4",
                    "midi": 71,
                    "time": 70.95249999999974,
                    "velocity": 0.6850393700787402,
                    "duration": 0.5974999999999824
                },
                {
                    "name": "B3",
                    "midi": 59,
                    "time": 70.95499999999974,
                    "velocity": 0.6692913385826772,
                    "duration": 0.4399999999999835
                },
                {
                    "name": "E4",
                    "midi": 64,
                    "time": 70.95999999999974,
                    "velocity": 0.6299212598425197,
                    "duration": 0.5899999999999892
                },
                {
                    "name": "A2",
                    "midi": 45,
                    "time": 71.09499999999973,
                    "velocity": 0.44881889763779526,
                    "duration": 0.09499999999999886
                },
                {
                    "name": "C#3",
                    "midi": 49,
                    "time": 71.16499999999972,
                    "velocity": 0.5433070866141733,
                    "duration": 0.09250000000000114
                },
                {
                    "name": "E3",
                    "midi": 52,
                    "time": 71.26249999999972,
                    "velocity": 0.5433070866141733,
                    "duration": 0.10999999999999943
                },
                {
                    "name": "F#3",
                    "midi": 54,
                    "time": 71.38499999999972,
                    "velocity": 0.5433070866141733,
                    "duration": 0.08750000000000568
                },
                {
                    "name": "E3",
                    "midi": 52,
                    "time": 71.50499999999973,
                    "velocity": 0.5511811023622047,
                    "duration": 0.10500000000000398
                },
                {
                    "name": "C#3",
                    "midi": 49,
                    "time": 71.60499999999973,
                    "velocity": 0.5196850393700787,
                    "duration": 0.12749999999999773
                },
                {
                    "name": "A2",
                    "midi": 45,
                    "time": 71.70499999999973,
                    "velocity": 0.5118110236220472,
                    "duration": 0.12999999999999545
                },
                {
                    "name": "E2",
                    "midi": 40,
                    "time": 71.79999999999973,
                    "velocity": 0.6535433070866141,
                    "duration": 0.16499999999999204
                },
                {
                    "name": "C#5",
                    "midi": 73,
                    "time": 71.81499999999971,
                    "velocity": 0.6299212598425197,
                    "duration": 0.7274999999999778
                },
                {
                    "name": "F#4",
                    "midi": 66,
                    "time": 71.82499999999972,
                    "velocity": 0.5984251968503937,
                    "duration": 0.6399999999999864
                },
                {
                    "name": "C#4",
                    "midi": 61,
                    "time": 71.82499999999972,
                    "velocity": 0.6614173228346457,
                    "duration": 0.6724999999999852
                },
                {
                    "name": "A2",
                    "midi": 45,
                    "time": 71.99999999999972,
                    "velocity": 0.44881889763779526,
                    "duration": 0.05500000000000682
                },
                {
                    "name": "C3",
                    "midi": 48,
                    "time": 72.04499999999972,
                    "velocity": 0.5984251968503937,
                    "duration": 0.0799999999999983
                },
                {
                    "name": "E3",
                    "midi": 52,
                    "time": 72.13499999999972,
                    "velocity": 0.5826771653543307,
                    "duration": 0.13500000000000512
                },
                {
                    "name": "F#3",
                    "midi": 54,
                    "time": 72.27499999999972,
                    "velocity": 0.5433070866141733,
                    "duration": 0.08499999999999375
                },
                {
                    "name": "E3",
                    "midi": 52,
                    "time": 72.39499999999971,
                    "velocity": 0.5275590551181102,
                    "duration": 0.10999999999998522
                },
                {
                    "name": "C#3",
                    "midi": 49,
                    "time": 72.4999999999997,
                    "velocity": 0.47244094488188976,
                    "duration": 0.12499999999998579
                },
                {
                    "name": "A2",
                    "midi": 45,
                    "time": 72.63499999999969,
                    "velocity": 0.28346456692913385,
                    "duration": 0.0799999999999983
                },
                {
                    "name": "D#2",
                    "midi": 39,
                    "time": 72.87249999999969,
                    "velocity": 0.33858267716535434,
                    "duration": 0.08249999999999602
                },
                {
                    "name": "C#5",
                    "midi": 73,
                    "time": 72.8974999999997,
                    "velocity": 0.2755905511811024,
                    "duration": 0.2624999999999744
                },
                {
                    "name": "C#4",
                    "midi": 61,
                    "time": 72.91749999999969,
                    "velocity": 0.1889763779527559,
                    "duration": 0.14749999999997954
                },
                {
                    "name": "G4",
                    "midi": 67,
                    "time": 72.94749999999969,
                    "velocity": 0.15748031496062992,
                    "duration": 0.0899999999999892
                },
                {
                    "name": "D#3",
                    "midi": 51,
                    "time": 73.05999999999968,
                    "velocity": 0.25984251968503935,
                    "duration": 0.05499999999999261
                },
                {
                    "name": "F3",
                    "midi": 53,
                    "time": 73.18749999999967,
                    "velocity": 0.3779527559055118,
                    "duration": 0.08499999999999375
                },
                {
                    "name": "G3",
                    "midi": 55,
                    "time": 73.32249999999966,
                    "velocity": 0.33070866141732286,
                    "duration": 0.045000000000001705
                },
                {
                    "name": "D#5",
                    "midi": 75,
                    "time": 73.38999999999966,
                    "velocity": 0.3543307086614173,
                    "duration": 0.08749999999999147
                },
                {
                    "name": "A#4",
                    "midi": 70,
                    "time": 73.39249999999966,
                    "velocity": 0.2204724409448819,
                    "duration": 0.037499999999994316
                },
                {
                    "name": "D#4",
                    "midi": 63,
                    "time": 73.41249999999965,
                    "velocity": 0.15748031496062992,
                    "duration": 0.052499999999994884
                },
                {
                    "name": "C#4",
                    "midi": 61,
                    "time": 73.43249999999965,
                    "velocity": 0.3700787401574803,
                    "duration": 0.07750000000000057
                },
                {
                    "name": "G3",
                    "midi": 55,
                    "time": 73.52999999999965,
                    "velocity": 0.2755905511811024,
                    "duration": 0.045000000000001705
                },
                {
                    "name": "D#3",
                    "midi": 51,
                    "time": 73.60499999999965,
                    "velocity": 0.4409448818897638,
                    "duration": 0.04250000000000398
                },
                {
                    "name": "G2",
                    "midi": 43,
                    "time": 73.77499999999965,
                    "velocity": 0.41732283464566927,
                    "duration": 0.04999999999998295
                },
                {
                    "name": "E4",
                    "midi": 64,
                    "time": 73.79749999999964,
                    "velocity": 0.3779527559055118,
                    "duration": 0.057499999999976126
                },
                {
                    "name": "E5",
                    "midi": 76,
                    "time": 73.79999999999964,
                    "velocity": 0.36220472440944884,
                    "duration": 0.09249999999997272
                },
                {
                    "name": "B4",
                    "midi": 71,
                    "time": 73.80999999999965,
                    "velocity": 0.33858267716535434,
                    "duration": 0.049999999999968736
                },
                {
                    "name": "D3",
                    "midi": 50,
                    "time": 73.81499999999964,
                    "velocity": 0.3464566929133858,
                    "duration": 0.0999999999999659
                },
                {
                    "name": "F3",
                    "midi": 53,
                    "time": 73.92499999999961,
                    "velocity": 0.48031496062992124,
                    "duration": 0.0799999999999983
                },
                {
                    "name": "A3",
                    "midi": 57,
                    "time": 74.0574999999996,
                    "velocity": 0.4881889763779528,
                    "duration": 0.037499999999994316
                },
                {
                    "name": "A5",
                    "midi": 81,
                    "time": 74.2349999999996,
                    "velocity": 0.4015748031496063,
                    "duration": 0.03999999999999204
                },
                {
                    "name": "A4",
                    "midi": 69,
                    "time": 74.2574999999996,
                    "velocity": 0.30708661417322836,
                    "duration": 0.04250000000000398
                },
                {
                    "name": "F4",
                    "midi": 65,
                    "time": 74.2749999999996,
                    "velocity": 0.41732283464566927,
                    "duration": 0.06500000000001194
                },
                {
                    "name": "B3",
                    "midi": 59,
                    "time": 74.39999999999961,
                    "velocity": 0.2440944881889764,
                    "duration": 0.01999999999999602
                },
                {
                    "name": "A3",
                    "midi": 57,
                    "time": 74.4249999999996,
                    "velocity": 0.41732283464566927,
                    "duration": 0.037499999999994316
                },
                {
                    "name": "E3",
                    "midi": 52,
                    "time": 74.4474999999996,
                    "velocity": 0.4645669291338583,
                    "duration": 0.037499999999994316
                },
                {
                    "name": "C#4",
                    "midi": 61,
                    "time": 74.63749999999958,
                    "velocity": 0.4094488188976378,
                    "duration": 0.0899999999999892
                },
                {
                    "name": "D#2",
                    "midi": 39,
                    "time": 74.65749999999957,
                    "velocity": 0.33858267716535434,
                    "duration": 0.04999999999999716
                },
                {
                    "name": "C#5",
                    "midi": 73,
                    "time": 74.65999999999957,
                    "velocity": 0.28346456692913385,
                    "duration": 0.07499999999998863
                },
                {
                    "name": "A#2",
                    "midi": 46,
                    "time": 74.67499999999957,
                    "velocity": 0.2755905511811024,
                    "duration": 0.07499999999997442
                },
                {
                    "name": "G4",
                    "midi": 67,
                    "time": 74.68499999999958,
                    "velocity": 0.15748031496062992,
                    "duration": 0.044999999999987494
                },
                {
                    "name": "D#3",
                    "midi": 51,
                    "time": 74.79499999999955,
                    "velocity": 0.4094488188976378,
                    "duration": 0.0625
                },
                {
                    "name": "D#5",
                    "midi": 75,
                    "time": 74.85999999999954,
                    "velocity": 0.33858267716535434,
                    "duration": 0.07749999999998636
                },
                {
                    "name": "A#4",
                    "midi": 70,
                    "time": 74.87749999999954,
                    "velocity": 0.28346456692913385,
                    "duration": 0.11749999999999261
                },
                {
                    "name": "F3",
                    "midi": 53,
                    "time": 74.91499999999954,
                    "velocity": 0.41732283464566927,
                    "duration": 0.04999999999999716
                },
                {
                    "name": "G3",
                    "midi": 55,
                    "time": 75.00499999999954,
                    "velocity": 0.3937007874015748,
                    "duration": 0.09000000000000341
                },
                {
                    "name": "C#5",
                    "midi": 73,
                    "time": 75.05999999999955,
                    "velocity": 0.3937007874015748,
                    "duration": 0.07749999999998636
                },
                {
                    "name": "G4",
                    "midi": 67,
                    "time": 75.07499999999955,
                    "velocity": 0.30708661417322836,
                    "duration": 0.044999999999987494
                },
                {
                    "name": "C#4",
                    "midi": 61,
                    "time": 75.13499999999954,
                    "velocity": 0.4566929133858268,
                    "duration": 0.0799999999999983
                },
                {
                    "name": "A#4",
                    "midi": 70,
                    "time": 75.23749999999953,
                    "velocity": 0.3543307086614173,
                    "duration": 0.08749999999999147
                },
                {
                    "name": "D#4",
                    "midi": 63,
                    "time": 75.24499999999952,
                    "velocity": 0.3937007874015748,
                    "duration": 0.08749999999999147
                },
                {
                    "name": "G3",
                    "midi": 55,
                    "time": 75.24499999999952,
                    "velocity": 0.29133858267716534,
                    "duration": 0.03999999999999204
                },
                {
                    "name": "D#5",
                    "midi": 75,
                    "time": 75.25249999999951,
                    "velocity": 0.4330708661417323,
                    "duration": 0.09499999999999886
                },
                {
                    "name": "D#3",
                    "midi": 51,
                    "time": 75.29999999999951,
                    "velocity": 0.5039370078740157,
                    "duration": 0.03499999999999659
                },
                {
                    "name": "G2",
                    "midi": 43,
                    "time": 75.46499999999949,
                    "velocity": 0.41732283464566927,
                    "duration": 0.07999999999996987
                },
                {
                    "name": "B4",
                    "midi": 71,
                    "time": 75.46999999999949,
                    "velocity": 0.4645669291338583,
                    "duration": 0.07999999999996987
                },
                {
                    "name": "E4",
                    "midi": 64,
                    "time": 75.47499999999948,
                    "velocity": 0.4881889763779528,
                    "duration": 0.06499999999998352
                },
                {
                    "name": "E5",
                    "midi": 76,
                    "time": 75.48749999999949,
                    "velocity": 0.4566929133858268,
                    "duration": 0.0999999999999659
                },
                {
                    "name": "D3",
                    "midi": 50,
                    "time": 75.50499999999948,
                    "velocity": 0.44881889763779526,
                    "duration": 0.08999999999996078
                },
                {
                    "name": "F3",
                    "midi": 53,
                    "time": 75.60749999999945,
                    "velocity": 0.5433070866141733,
                    "duration": 0.07750000000000057
                },
                {
                    "name": "A3",
                    "midi": 57,
                    "time": 75.73499999999945,
                    "velocity": 0.5433070866141733,
                    "duration": 0.04000000000000625
                },
                {
                    "name": "B3",
                    "midi": 59,
                    "time": 75.84499999999944,
                    "velocity": 0.4566929133858268,
                    "duration": 0.045000000000001705
                },
                {
                    "name": "A5",
                    "midi": 81,
                    "time": 75.92249999999945,
                    "velocity": 0.5433070866141733,
                    "duration": 0.13249999999999318
                },
                {
                    "name": "D5",
                    "midi": 74,
                    "time": 75.92499999999944,
                    "velocity": 0.4566929133858268,
                    "duration": 0.052499999999994884
                },
                {
                    "name": "A4",
                    "midi": 69,
                    "time": 75.93249999999944,
                    "velocity": 0.5118110236220472,
                    "duration": 0.0625
                },
                {
                    "name": "F4",
                    "midi": 65,
                    "time": 75.94999999999943,
                    "velocity": 0.3937007874015748,
                    "duration": 0.07000000000000739
                },
                {
                    "name": "B3",
                    "midi": 59,
                    "time": 76.06499999999944,
                    "velocity": 0.25984251968503935,
                    "duration": 0.04749999999999943
                },
                {
                    "name": "A3",
                    "midi": 57,
                    "time": 76.10499999999945,
                    "velocity": 0.4881889763779528,
                    "duration": 0.1074999999999875
                },
                {
                    "name": "D#3",
                    "midi": 51,
                    "time": 76.26749999999944,
                    "velocity": 0.1968503937007874,
                    "duration": 0.037499999999994316
                },
                {
                    "name": "D#3",
                    "midi": 51,
                    "time": 76.55499999999944,
                    "velocity": 0.5039370078740157,
                    "duration": 0.1274999999999693
                },
                {
                    "name": "C#6",
                    "midi": 85,
                    "time": 76.58249999999944,
                    "velocity": 0.4409448818897638,
                    "duration": 0.24999999999994316
                },
                {
                    "name": "C#5",
                    "midi": 73,
                    "time": 76.58499999999944,
                    "velocity": 0.3937007874015748,
                    "duration": 0.11499999999996646
                },
                {
                    "name": "G5",
                    "midi": 79,
                    "time": 76.60499999999942,
                    "velocity": 0.36220472440944884,
                    "duration": 0.05499999999999261
                },
                {
                    "name": "A#3",
                    "midi": 58,
                    "time": 76.60749999999942,
                    "velocity": 0.1732283464566929,
                    "duration": 0.07499999999998863
                },
                {
                    "name": "D#4",
                    "midi": 63,
                    "time": 76.79999999999939,
                    "velocity": 0.5039370078740157,
                    "duration": 0.0024999999999977263
                },
                {
                    "name": "F4",
                    "midi": 65,
                    "time": 76.87249999999939,
                    "velocity": 0.2677165354330709,
                    "duration": 0.04999999999999716
                },
                {
                    "name": "G4",
                    "midi": 67,
                    "time": 76.95499999999939,
                    "velocity": 0.41732283464566927,
                    "duration": 0.045000000000001705
                },
                {
                    "name": "A#5",
                    "midi": 82,
                    "time": 77.01749999999939,
                    "velocity": 0.4566929133858268,
                    "duration": 0.05499999999999261
                },
                {
                    "name": "D#5",
                    "midi": 75,
                    "time": 77.01999999999938,
                    "velocity": 0.4330708661417323,
                    "duration": 0.10499999999998977
                },
                {
                    "name": "D#6",
                    "midi": 87,
                    "time": 77.03499999999939,
                    "velocity": 0.3858267716535433,
                    "duration": 0.0899999999999892
                },
                {
                    "name": "C#5",
                    "midi": 73,
                    "time": 77.05499999999938,
                    "velocity": 0.44881889763779526,
                    "duration": 0.09249999999998693
                },
                {
                    "name": "G4",
                    "midi": 67,
                    "time": 77.15749999999937,
                    "velocity": 0.4094488188976378,
                    "duration": 0.08249999999999602
                },
                {
                    "name": "D#4",
                    "midi": 63,
                    "time": 77.25749999999937,
                    "velocity": 0.4881889763779528,
                    "duration": 0.07500000000000284
                },
                {
                    "name": "G3",
                    "midi": 55,
                    "time": 77.42999999999935,
                    "velocity": 0.5196850393700787,
                    "duration": 0.07499999999998863
                },
                {
                    "name": "E6",
                    "midi": 88,
                    "time": 77.43749999999935,
                    "velocity": 0.5118110236220472,
                    "duration": 0.0999999999999801
                },
                {
                    "name": "D4",
                    "midi": 62,
                    "time": 77.43749999999935,
                    "velocity": 0.49606299212598426,
                    "duration": 0.11999999999997613
                },
                {
                    "name": "E5",
                    "midi": 76,
                    "time": 77.44749999999935,
                    "velocity": 0.44881889763779526,
                    "duration": 0.052499999999994884
                },
                {
                    "name": "B5",
                    "midi": 83,
                    "time": 77.45499999999934,
                    "velocity": 0.4015748031496063,
                    "duration": 0.04749999999999943
                },
                {
                    "name": "F4",
                    "midi": 65,
                    "time": 77.55749999999932,
                    "velocity": 0.5590551181102362,
                    "duration": 0.08249999999999602
                },
                {
                    "name": "A4",
                    "midi": 69,
                    "time": 77.68249999999932,
                    "velocity": 0.6062992125984252,
                    "duration": 0.037499999999994316
                },
                {
                    "name": "B4",
                    "midi": 71,
                    "time": 77.79499999999932,
                    "velocity": 0.44881889763779526,
                    "duration": 0.0625
                },
                {
                    "name": "D6",
                    "midi": 86,
                    "time": 77.88749999999932,
                    "velocity": 0.36220472440944884,
                    "duration": 0.03999999999999204
                },
                {
                    "name": "A6",
                    "midi": 93,
                    "time": 77.88749999999932,
                    "velocity": 0.6141732283464567,
                    "duration": 0.08499999999999375
                },
                {
                    "name": "A5",
                    "midi": 81,
                    "time": 77.89249999999932,
                    "velocity": 0.48031496062992124,
                    "duration": 0.03499999999999659
                },
                {
                    "name": "F5",
                    "midi": 77,
                    "time": 77.89499999999931,
                    "velocity": 0.5039370078740157,
                    "duration": 0.10250000000000625
                },
                {
                    "name": "B4",
                    "midi": 71,
                    "time": 78.01249999999932,
                    "velocity": 0.3543307086614173,
                    "duration": 0.037499999999994316
                },
                {
                    "name": "A4",
                    "midi": 69,
                    "time": 78.05249999999931,
                    "velocity": 0.5354330708661418,
                    "duration": 0.09000000000000341
                },
                {
                    "name": "C#6",
                    "midi": 85,
                    "time": 78.2849999999993,
                    "velocity": 0.5590551181102362,
                    "duration": 0.07499999999996021
                },
                {
                    "name": "C#7",
                    "midi": 97,
                    "time": 78.29499999999929,
                    "velocity": 0.5118110236220472,
                    "duration": 0.11499999999996646
                },
                {
                    "name": "G6",
                    "midi": 91,
                    "time": 78.30499999999928,
                    "velocity": 0.4566929133858268,
                    "duration": 0.03249999999998465
                },
                {
                    "name": "C#5",
                    "midi": 73,
                    "time": 78.44249999999926,
                    "velocity": 0.4251968503937008,
                    "duration": 0.03499999999999659
                },
                {
                    "name": "A#6",
                    "midi": 94,
                    "time": 78.50749999999925,
                    "velocity": 0.6141732283464567,
                    "duration": 0.09749999999999659
                },
                {
                    "name": "D#7",
                    "midi": 99,
                    "time": 78.50999999999925,
                    "velocity": 0.5275590551181102,
                    "duration": 0.08249999999999602
                },
                {
                    "name": "F5",
                    "midi": 77,
                    "time": 78.58749999999925,
                    "velocity": 0.31496062992125984,
                    "duration": 0.045000000000001705
                },
                {
                    "name": "C#7",
                    "midi": 97,
                    "time": 78.71249999999925,
                    "velocity": 0.48031496062992124,
                    "duration": 0.12999999999999545
                },
                {
                    "name": "G6",
                    "midi": 91,
                    "time": 78.71499999999925,
                    "velocity": 0.4881889763779528,
                    "duration": 0.08749999999999147
                },
                {
                    "name": "A5",
                    "midi": 81,
                    "time": 78.75249999999924,
                    "velocity": 0.29133858267716534,
                    "duration": 0.045000000000001705
                },
                {
                    "name": "C#6",
                    "midi": 85,
                    "time": 78.90249999999925,
                    "velocity": 0.49606299212598426,
                    "duration": 0.06499999999998352
                },
                {
                    "name": "D#6",
                    "midi": 87,
                    "time": 78.90749999999925,
                    "velocity": 0.5748031496062992,
                    "duration": 0.07499999999998863
                },
                {
                    "name": "D#7",
                    "midi": 99,
                    "time": 78.91249999999924,
                    "velocity": 0.5826771653543307,
                    "duration": 0.09499999999998465
                },
                {
                    "name": "A#6",
                    "midi": 94,
                    "time": 78.91499999999924,
                    "velocity": 0.5118110236220472,
                    "duration": 0.06999999999999318
                },
                {
                    "name": "B6",
                    "midi": 95,
                    "time": 79.14749999999921,
                    "velocity": 0.5826771653543307,
                    "duration": 0.04250000000000398
                },
                {
                    "name": "E6",
                    "midi": 88,
                    "time": 79.1999999999992,
                    "velocity": 0.6614173228346457,
                    "duration": 0.014999999999986358
                },
                {
                    "name": "G4",
                    "midi": 67,
                    "time": 79.1999999999992,
                    "velocity": 0.5118110236220472,
                    "duration": 0.017499999999984084
                },
                {
                    "name": "E7",
                    "midi": 100,
                    "time": 79.1999999999992,
                    "velocity": 0.5984251968503937,
                    "duration": 0.03249999999998465
                },
                {
                    "name": "D5",
                    "midi": 74,
                    "time": 79.1999999999992,
                    "velocity": 0.44881889763779526,
                    "duration": 0.06249999999998579
                },
                {
                    "name": "F5",
                    "midi": 77,
                    "time": 79.27999999999919,
                    "velocity": 0.5826771653543307,
                    "duration": 0.07750000000000057
                },
                {
                    "name": "A5",
                    "midi": 81,
                    "time": 79.40499999999919,
                    "velocity": 0.5984251968503937,
                    "duration": 0.09250000000000114
                },
                {
                    "name": "B5",
                    "midi": 83,
                    "time": 79.50499999999919,
                    "velocity": 0.6062992125984252,
                    "duration": 0.10999999999998522
                },
                {
                    "name": "D7",
                    "midi": 98,
                    "time": 79.60249999999918,
                    "velocity": 0.6535433070866141,
                    "duration": 0.04249999999998977
                },
                {
                    "name": "A6",
                    "midi": 93,
                    "time": 79.60499999999918,
                    "velocity": 0.7086614173228346,
                    "duration": 0.06499999999999773
                },
                {
                    "name": "A7",
                    "midi": 105,
                    "time": 79.60749999999918,
                    "velocity": 0.6377952755905512,
                    "duration": 0.06999999999999318
                },
                {
                    "name": "F6",
                    "midi": 89,
                    "time": 79.63499999999917,
                    "velocity": 0.4409448818897638,
                    "duration": 0.09000000000000341
                },
                {
                    "name": "E6",
                    "midi": 88,
                    "time": 79.65499999999918,
                    "velocity": 0.47244094488188976,
                    "duration": 0.07749999999998636
                },
                {
                    "name": "B5",
                    "midi": 83,
                    "time": 79.76749999999916,
                    "velocity": 0.5354330708661418,
                    "duration": 0.06999999999999318
                },
                {
                    "name": "A5",
                    "midi": 81,
                    "time": 79.85749999999915,
                    "velocity": 0.5039370078740157,
                    "duration": 0.13750000000000284
                },
                {
                    "name": "F5",
                    "midi": 77,
                    "time": 79.98499999999915,
                    "velocity": 0.3858267716535433,
                    "duration": 0.045000000000001705
                },
                {
                    "name": "G5",
                    "midi": 79,
                    "time": 80.17749999999913,
                    "velocity": 0.6299212598425197,
                    "duration": 0.10249999999996362
                },
                {
                    "name": "D#5",
                    "midi": 75,
                    "time": 80.17999999999913,
                    "velocity": 0.5984251968503937,
                    "duration": 0.07499999999997442
                },
                {
                    "name": "D6",
                    "midi": 86,
                    "time": 80.18249999999912,
                    "velocity": 0.6299212598425197,
                    "duration": 0.1349999999999767
                },
                {
                    "name": "D#4",
                    "midi": 63,
                    "time": 80.18749999999912,
                    "velocity": 0.5511811023622047,
                    "duration": 0.06999999999997897
                },
                {
                    "name": "A#4",
                    "midi": 70,
                    "time": 80.19499999999911,
                    "velocity": 0.4330708661417323,
                    "duration": 0.04000000000000625
                },
                {
                    "name": "G6",
                    "midi": 91,
                    "time": 80.3049999999991,
                    "velocity": 0.48031496062992124,
                    "duration": 0.09250000000000114
                },
                {
                    "name": "D#6",
                    "midi": 87,
                    "time": 80.3224999999991,
                    "velocity": 0.3937007874015748,
                    "duration": 0.03499999999999659
                },
                {
                    "name": "G5",
                    "midi": 79,
                    "time": 80.4124999999991,
                    "velocity": 0.5118110236220472,
                    "duration": 0.08499999999999375
                },
                {
                    "name": "D6",
                    "midi": 86,
                    "time": 80.4149999999991,
                    "velocity": 0.4566929133858268,
                    "duration": 0.11999999999999034
                },
                {
                    "name": "G6",
                    "midi": 91,
                    "time": 80.5099999999991,
                    "velocity": 0.4251968503937008,
                    "duration": 0.08749999999999147
                },
                {
                    "name": "D#6",
                    "midi": 87,
                    "time": 80.51749999999909,
                    "velocity": 0.5275590551181102,
                    "duration": 0.07250000000000512
                },
                {
                    "name": "A#6",
                    "midi": 94,
                    "time": 80.60749999999909,
                    "velocity": 0.7401574803149606,
                    "duration": 0.052500000000009095
                },
                {
                    "name": "G5",
                    "midi": 79,
                    "time": 80.6199999999991,
                    "velocity": 0.5826771653543307,
                    "duration": 0.0975000000000108
                },
                {
                    "name": "D6",
                    "midi": 86,
                    "time": 80.6299999999991,
                    "velocity": 0.48031496062992124,
                    "duration": 0.1150000000000091
                },
                {
                    "name": "G6",
                    "midi": 91,
                    "time": 80.72999999999911,
                    "velocity": 0.41732283464566927,
                    "duration": 0.04749999999999943
                },
                {
                    "name": "D#6",
                    "midi": 87,
                    "time": 80.73999999999911,
                    "velocity": 0.5196850393700787,
                    "duration": 0.08749999999999147
                },
                {
                    "name": "G5",
                    "midi": 79,
                    "time": 80.8349999999991,
                    "velocity": 0.48031496062992124,
                    "duration": 0.09000000000000341
                },
                {
                    "name": "D6",
                    "midi": 86,
                    "time": 80.8374999999991,
                    "velocity": 0.48031496062992124,
                    "duration": 0.12749999999999773
                },
                {
                    "name": "G6",
                    "midi": 91,
                    "time": 80.9474999999991,
                    "velocity": 0.4645669291338583,
                    "duration": 0.09000000000000341
                },
                {
                    "name": "D#6",
                    "midi": 87,
                    "time": 80.95499999999909,
                    "velocity": 0.5433070866141733,
                    "duration": 0.08250000000001023
                },
                {
                    "name": "G5",
                    "midi": 79,
                    "time": 81.04499999999909,
                    "velocity": 0.5669291338582677,
                    "duration": 0.0799999999999983
                },
                {
                    "name": "D6",
                    "midi": 86,
                    "time": 81.0549999999991,
                    "velocity": 0.47244094488188976,
                    "duration": 0.10999999999998522
                },
                {
                    "name": "G6",
                    "midi": 91,
                    "time": 81.13999999999909,
                    "velocity": 0.44881889763779526,
                    "duration": 0.09249999999998693
                },
                {
                    "name": "D#6",
                    "midi": 87,
                    "time": 81.14499999999909,
                    "velocity": 0.5905511811023622,
                    "duration": 0.09249999999998693
                },
                {
                    "name": "G5",
                    "midi": 79,
                    "time": 81.25499999999907,
                    "velocity": 0.5354330708661418,
                    "duration": 0.07500000000000284
                },
                {
                    "name": "D6",
                    "midi": 86,
                    "time": 81.25749999999907,
                    "velocity": 0.4566929133858268,
                    "duration": 0.10000000000000853
                },
                {
                    "name": "G6",
                    "midi": 91,
                    "time": 81.34499999999908,
                    "velocity": 0.48031496062992124,
                    "duration": 0.0799999999999983
                },
                {
                    "name": "D#6",
                    "midi": 87,
                    "time": 81.34499999999908,
                    "velocity": 0.5354330708661418,
                    "duration": 0.07250000000000512
                },
                {
                    "name": "G5",
                    "midi": 79,
                    "time": 81.42749999999907,
                    "velocity": 0.5196850393700787,
                    "duration": 0.09000000000000341
                },
                {
                    "name": "D6",
                    "midi": 86,
                    "time": 81.43999999999907,
                    "velocity": 0.4015748031496063,
                    "duration": 0.09999999999999432
                },
                {
                    "name": "G6",
                    "midi": 91,
                    "time": 81.59999999999907,
                    "velocity": 0.4251968503937008,
                    "duration": 0.015000000000000568
                },
                {
                    "name": "D#6",
                    "midi": 87,
                    "time": 81.59999999999907,
                    "velocity": 0.5433070866141733,
                    "duration": 0.025000000000005684
                },
                {
                    "name": "D6",
                    "midi": 86,
                    "time": 81.62499999999908,
                    "velocity": 0.5039370078740157,
                    "duration": 0.10999999999998522
                },
                {
                    "name": "G5",
                    "midi": 79,
                    "time": 81.62749999999907,
                    "velocity": 0.4251968503937008,
                    "duration": 0.08249999999999602
                },
                {
                    "name": "G6",
                    "midi": 91,
                    "time": 81.71499999999907,
                    "velocity": 0.41732283464566927,
                    "duration": 0.0899999999999892
                },
                {
                    "name": "D#6",
                    "midi": 87,
                    "time": 81.71499999999907,
                    "velocity": 0.47244094488188976,
                    "duration": 0.0899999999999892
                },
                {
                    "name": "D#5",
                    "midi": 75,
                    "time": 81.81499999999906,
                    "velocity": 0.5826771653543307,
                    "duration": 0.037499999999994316
                },
                {
                    "name": "G5",
                    "midi": 79,
                    "time": 81.81749999999906,
                    "velocity": 0.5511811023622047,
                    "duration": 0.08750000000000568
                },
                {
                    "name": "D6",
                    "midi": 86,
                    "time": 81.82249999999905,
                    "velocity": 0.4645669291338583,
                    "duration": 0.10250000000002046
                },
                {
                    "name": "A#5",
                    "midi": 82,
                    "time": 81.82249999999905,
                    "velocity": 0.5433070866141733,
                    "duration": 0.04250000000000398
                },
                {
                    "name": "G6",
                    "midi": 91,
                    "time": 81.91499999999907,
                    "velocity": 0.4566929133858268,
                    "duration": 0.08249999999999602
                },
                {
                    "name": "D#6",
                    "midi": 87,
                    "time": 81.92749999999907,
                    "velocity": 0.5590551181102362,
                    "duration": 0.08749999999999147
                },
                {
                    "name": "G5",
                    "midi": 79,
                    "time": 82.01249999999906,
                    "velocity": 0.41732283464566927,
                    "duration": 0.09250000000000114
                },
                {
                    "name": "D6",
                    "midi": 86,
                    "time": 82.01499999999906,
                    "velocity": 0.4881889763779528,
                    "duration": 0.11499999999999488
                },
                {
                    "name": "D#6",
                    "midi": 87,
                    "time": 82.10749999999906,
                    "velocity": 0.4645669291338583,
                    "duration": 0.09999999999999432
                },
                {
                    "name": "G6",
                    "midi": 91,
                    "time": 82.11249999999906,
                    "velocity": 0.44881889763779526,
                    "duration": 0.09749999999999659
                },
                {
                    "name": "G5",
                    "midi": 79,
                    "time": 82.22749999999905,
                    "velocity": 0.5433070866141733,
                    "duration": 0.10249999999999204
                },
                {
                    "name": "D6",
                    "midi": 86,
                    "time": 82.22999999999905,
                    "velocity": 0.49606299212598426,
                    "duration": 0.11499999999999488
                },
                {
                    "name": "A#6",
                    "midi": 94,
                    "time": 82.24499999999905,
                    "velocity": 0.7401574803149606,
                    "duration": 0.060000000000002274
                },
                {
                    "name": "G6",
                    "midi": 91,
                    "time": 82.32499999999905,
                    "velocity": 0.4015748031496063,
                    "duration": 0.10499999999998977
                },
                {
                    "name": "D#6",
                    "midi": 87,
                    "time": 82.33499999999904,
                    "velocity": 0.5590551181102362,
                    "duration": 0.09749999999999659
                },
                {
                    "name": "G5",
                    "midi": 79,
                    "time": 82.43499999999904,
                    "velocity": 0.41732283464566927,
                    "duration": 0.09999999999999432
                },
                {
                    "name": "D6",
                    "midi": 86,
                    "time": 82.44249999999903,
                    "velocity": 0.4330708661417323,
                    "duration": 0.11749999999999261
                },
                {
                    "name": "D#6",
                    "midi": 87,
                    "time": 82.53999999999903,
                    "velocity": 0.5354330708661418,
                    "duration": 0.09499999999999886
                },
                {
                    "name": "G6",
                    "midi": 91,
                    "time": 82.54249999999902,
                    "velocity": 0.3937007874015748,
                    "duration": 0.09749999999999659
                },
                {
                    "name": "G5",
                    "midi": 79,
                    "time": 82.65499999999902,
                    "velocity": 0.5275590551181102,
                    "duration": 0.09999999999999432
                },
                {
                    "name": "D6",
                    "midi": 86,
                    "time": 82.65499999999902,
                    "velocity": 0.49606299212598426,
                    "duration": 0.11749999999999261
                },
                {
                    "name": "G6",
                    "midi": 91,
                    "time": 82.75499999999901,
                    "velocity": 0.4251968503937008,
                    "duration": 0.09749999999999659
                },
                {
                    "name": "D#6",
                    "midi": 87,
                    "time": 82.75749999999901,
                    "velocity": 0.5669291338582677,
                    "duration": 0.10499999999998977
                },
                {
                    "name": "G5",
                    "midi": 79,
                    "time": 82.85499999999901,
                    "velocity": 0.4330708661417323,
                    "duration": 0.0899999999999892
                },
                {
                    "name": "D6",
                    "midi": 86,
                    "time": 82.869999999999,
                    "velocity": 0.48031496062992124,
                    "duration": 0.10500000000000398
                },
                {
                    "name": "D#6",
                    "midi": 87,
                    "time": 82.959999999999,
                    "velocity": 0.5196850393700787,
                    "duration": 0.08749999999999147
                },
                {
                    "name": "G6",
                    "midi": 91,
                    "time": 82.962499999999,
                    "velocity": 0.4330708661417323,
                    "duration": 0.07750000000000057
                },
                {
                    "name": "G5",
                    "midi": 79,
                    "time": 83.06249999999899,
                    "velocity": 0.5826771653543307,
                    "duration": 0.10249999999999204
                },
                {
                    "name": "D6",
                    "midi": 86,
                    "time": 83.06499999999899,
                    "velocity": 0.5196850393700787,
                    "duration": 0.1074999999999875
                },
                {
                    "name": "G6",
                    "midi": 91,
                    "time": 83.15749999999899,
                    "velocity": 0.49606299212598426,
                    "duration": 0.08249999999998181
                },
                {
                    "name": "D#6",
                    "midi": 87,
                    "time": 83.16249999999899,
                    "velocity": 0.5590551181102362,
                    "duration": 0.08249999999998181
                },
                {
                    "name": "G5",
                    "midi": 79,
                    "time": 83.25499999999897,
                    "velocity": 0.4409448818897638,
                    "duration": 0.09749999999999659
                },
                {
                    "name": "D6",
                    "midi": 86,
                    "time": 83.26749999999898,
                    "velocity": 0.48031496062992124,
                    "duration": 0.11749999999999261
                },
                {
                    "name": "D#6",
                    "midi": 87,
                    "time": 83.34999999999897,
                    "velocity": 0.4645669291338583,
                    "duration": 0.09000000000000341
                },
                {
                    "name": "G6",
                    "midi": 91,
                    "time": 83.36749999999897,
                    "velocity": 0.3858267716535433,
                    "duration": 0.1074999999999875
                },
                {
                    "name": "D#5",
                    "midi": 75,
                    "time": 83.46499999999897,
                    "velocity": 0.6614173228346457,
                    "duration": 0.07249999999996248
                },
                {
                    "name": "A#5",
                    "midi": 82,
                    "time": 83.47249999999896,
                    "velocity": 0.6220472440944882,
                    "duration": 0.057499999999976126
                },
                {
                    "name": "G5",
                    "midi": 79,
                    "time": 83.57499999999892,
                    "velocity": 0.5196850393700787,
                    "duration": 0.1525000000000034
                },
                {
                    "name": "D6",
                    "midi": 86,
                    "time": 83.66999999999892,
                    "velocity": 0.5748031496062992,
                    "duration": 0.13000000000000966
                },
                {
                    "name": "G6",
                    "midi": 91,
                    "time": 83.76749999999893,
                    "velocity": 0.5511811023622047,
                    "duration": 0.07250000000000512
                },
                {
                    "name": "A#6",
                    "midi": 94,
                    "time": 83.86999999999894,
                    "velocity": 0.6771653543307087,
                    "duration": 0.0625
                },
                {
                    "name": "D#6",
                    "midi": 87,
                    "time": 83.87499999999893,
                    "velocity": 0.6377952755905512,
                    "duration": 0.06750000000000966
                },
                {
                    "name": "G6",
                    "midi": 91,
                    "time": 83.99999999999895,
                    "velocity": 0.2440944881889764,
                    "duration": 0.08249999999999602
                },
                {
                    "name": "D6",
                    "midi": 86,
                    "time": 84.06249999999895,
                    "velocity": 0.5511811023622047,
                    "duration": 0.0899999999999892
                },
                {
                    "name": "G5",
                    "midi": 79,
                    "time": 84.19499999999894,
                    "velocity": 0.31496062992125984,
                    "duration": 0.04000000000000625
                },
                {
                    "name": "A#5",
                    "midi": 82,
                    "time": 84.26749999999895,
                    "velocity": 0.6141732283464567,
                    "duration": 0.04999999999999716
                },
                {
                    "name": "D#5",
                    "midi": 75,
                    "time": 84.26749999999895,
                    "velocity": 0.6535433070866141,
                    "duration": 0.05749999999999034
                },
                {
                    "name": "G5",
                    "midi": 79,
                    "time": 84.36249999999893,
                    "velocity": 0.36220472440944884,
                    "duration": 0.1349999999999909
                },
                {
                    "name": "D5",
                    "midi": 74,
                    "time": 84.46249999999893,
                    "velocity": 0.31496062992125984,
                    "duration": 0.09250000000000114
                },
                {
                    "name": "G4",
                    "midi": 67,
                    "time": 84.58249999999893,
                    "velocity": 0.4015748031496063,
                    "duration": 0.037499999999994316
                },
                {
                    "name": "A#4",
                    "midi": 70,
                    "time": 84.67999999999893,
                    "velocity": 0.5590551181102362,
                    "duration": 0.06999999999999318
                },
                {
                    "name": "D#4",
                    "midi": 63,
                    "time": 84.68249999999892,
                    "velocity": 0.5905511811023622,
                    "duration": 0.06999999999999318
                },
                {
                    "name": "G4",
                    "midi": 67,
                    "time": 84.81249999999892,
                    "velocity": 0.2204724409448819,
                    "duration": 0.05749999999999034
                },
                {
                    "name": "A4",
                    "midi": 69,
                    "time": 84.81999999999891,
                    "velocity": 0.1889763779527559,
                    "duration": 0.04250000000000398
                },
                {
                    "name": "D4",
                    "midi": 62,
                    "time": 84.92499999999892,
                    "velocity": 0.2204724409448819,
                    "duration": 0.05500000000000682
                },
                {
                    "name": "G3",
                    "midi": 55,
                    "time": 85.00499999999893,
                    "velocity": 0.41732283464566927,
                    "duration": 0.07500000000000284
                },
                {
                    "name": "D#3",
                    "midi": 51,
                    "time": 85.08749999999893,
                    "velocity": 0.5748031496062992,
                    "duration": 0.04250000000000398
                },
                {
                    "name": "A#3",
                    "midi": 58,
                    "time": 85.09999999999893,
                    "velocity": 0.5039370078740157,
                    "duration": 0.03499999999999659
                },
                {
                    "name": "G3",
                    "midi": 55,
                    "time": 85.17999999999893,
                    "velocity": 0.4645669291338583,
                    "duration": 0.4324999999999761
                },
                {
                    "name": "D4",
                    "midi": 62,
                    "time": 85.29499999999892,
                    "velocity": 0.30708661417322836,
                    "duration": 0.09999999999999432
                },
                {
                    "name": "G4",
                    "midi": 67,
                    "time": 85.37499999999892,
                    "velocity": 0.4566929133858268,
                    "duration": 0.0799999999999983
                },
                {
                    "name": "A#4",
                    "midi": 70,
                    "time": 85.49999999999892,
                    "velocity": 0.5984251968503937,
                    "duration": 0.05999999999998806
                },
                {
                    "name": "D#4",
                    "midi": 63,
                    "time": 85.50749999999891,
                    "velocity": 0.5748031496062992,
                    "duration": 0.03499999999999659
                },
                {
                    "name": "G4",
                    "midi": 67,
                    "time": 85.6149999999989,
                    "velocity": 0.4409448818897638,
                    "duration": 0.13750000000000284
                },
                {
                    "name": "D5",
                    "midi": 74,
                    "time": 85.7099999999989,
                    "velocity": 0.3937007874015748,
                    "duration": 0.14000000000001478
                },
                {
                    "name": "G5",
                    "midi": 79,
                    "time": 85.83999999999891,
                    "velocity": 0.4330708661417323,
                    "duration": 0.0625
                },
                {
                    "name": "D#5",
                    "midi": 75,
                    "time": 85.93249999999891,
                    "velocity": 0.5984251968503937,
                    "duration": 0.03499999999999659
                },
                {
                    "name": "A#5",
                    "midi": 82,
                    "time": 85.93499999999891,
                    "velocity": 0.5826771653543307,
                    "duration": 0.04250000000000398
                },
                {
                    "name": "G5",
                    "midi": 79,
                    "time": 86.06749999999892,
                    "velocity": 0.41732283464566927,
                    "duration": 0.1525000000000034
                },
                {
                    "name": "D6",
                    "midi": 86,
                    "time": 86.14249999999892,
                    "velocity": 0.4409448818897638,
                    "duration": 0.15750000000001307
                },
                {
                    "name": "G6",
                    "midi": 91,
                    "time": 86.25999999999893,
                    "velocity": 0.4330708661417323,
                    "duration": 0.06500000000001194
                },
                {
                    "name": "A#6",
                    "midi": 94,
                    "time": 86.39999999999894,
                    "velocity": 0.6299212598425197,
                    "duration": 0.0049999999999954525
                },
                {
                    "name": "G6",
                    "midi": 91,
                    "time": 86.49749999999894,
                    "velocity": 0.2992125984251969,
                    "duration": 0.11249999999999716
                },
                {
                    "name": "G5",
                    "midi": 79,
                    "time": 86.68499999999894,
                    "velocity": 0.4251968503937008,
                    "duration": 0.07500000000000284
                },
                {
                    "name": "D#5",
                    "midi": 75,
                    "time": 86.78749999999894,
                    "velocity": 0.49606299212598426,
                    "duration": 0.037499999999994316
                },
                {
                    "name": "A#5",
                    "midi": 82,
                    "time": 86.79499999999894,
                    "velocity": 0.4645669291338583,
                    "duration": 0.04000000000000625
                },
                {
                    "name": "G5",
                    "midi": 79,
                    "time": 86.91749999999894,
                    "velocity": 0.4409448818897638,
                    "duration": 0.13749999999998863
                },
                {
                    "name": "D6",
                    "midi": 86,
                    "time": 87.01749999999893,
                    "velocity": 0.25984251968503935,
                    "duration": 0.1599999999999966
                },
                {
                    "name": "G6",
                    "midi": 91,
                    "time": 87.12749999999893,
                    "velocity": 0.4881889763779528,
                    "duration": 0.08749999999999147
                },
                {
                    "name": "A#6",
                    "midi": 94,
                    "time": 87.25749999999893,
                    "velocity": 0.5354330708661418,
                    "duration": 0.03999999999999204
                },
                {
                    "name": "D#6",
                    "midi": 87,
                    "time": 87.26499999999892,
                    "velocity": 0.4645669291338583,
                    "duration": 0.03999999999999204
                },
                {
                    "name": "G6",
                    "midi": 91,
                    "time": 87.38499999999891,
                    "velocity": 0.29133858267716534,
                    "duration": 0.11999999999999034
                },
                {
                    "name": "D6",
                    "midi": 86,
                    "time": 87.4999999999989,
                    "velocity": 0.36220472440944884,
                    "duration": 0.11499999999999488
                },
                {
                    "name": "G5",
                    "midi": 79,
                    "time": 87.6249999999989,
                    "velocity": 0.36220472440944884,
                    "duration": 0.06749999999999545
                },
                {
                    "name": "A#5",
                    "midi": 82,
                    "time": 87.7449999999989,
                    "velocity": 0.4094488188976378,
                    "duration": 0.05500000000000682
                },
                {
                    "name": "G5",
                    "midi": 79,
                    "time": 87.85499999999891,
                    "velocity": 0.41732283464566927,
                    "duration": 0.1599999999999966
                },
                {
                    "name": "D6",
                    "midi": 86,
                    "time": 87.99499999999891,
                    "velocity": 0.3543307086614173,
                    "duration": 0.13999999999998636
                },
                {
                    "name": "G6",
                    "midi": 91,
                    "time": 88.0974999999989,
                    "velocity": 0.3543307086614173,
                    "duration": 0.11749999999999261
                },
                {
                    "name": "A#6",
                    "midi": 94,
                    "time": 88.26499999999889,
                    "velocity": 0.3779527559055118,
                    "duration": 0.045000000000001705
                },
                {
                    "name": "D#6",
                    "midi": 87,
                    "time": 88.2749999999989,
                    "velocity": 0.3543307086614173,
                    "duration": 0.04749999999999943
                },
                {
                    "name": "D6",
                    "midi": 86,
                    "time": 88.52999999999889,
                    "velocity": 0.36220472440944884,
                    "duration": 0.0799999999999983
                },
                {
                    "name": "D5",
                    "midi": 74,
                    "time": 88.81499999999889,
                    "velocity": 0.3228346456692913,
                    "duration": 0.04749999999999943
                },
                {
                    "name": "A#5",
                    "midi": 82,
                    "time": 88.81999999999888,
                    "velocity": 0.2677165354330709,
                    "duration": 0.052500000000009095
                },
                {
                    "name": "G5",
                    "midi": 79,
                    "time": 89.1049999999989,
                    "velocity": 0.29133858267716534,
                    "duration": 0.09749999999998238
                },
                {
                    "name": "D6",
                    "midi": 86,
                    "time": 89.11249999999889,
                    "velocity": 0.33858267716535434,
                    "duration": 0.06749999999999545
                },
                {
                    "name": "G6",
                    "midi": 91,
                    "time": 89.50999999999888,
                    "velocity": 0.36220472440944884,
                    "duration": 0.04749999999998522
                },
                {
                    "name": "A#6",
                    "midi": 94,
                    "time": 89.52999999999888,
                    "velocity": 0.15748031496062992,
                    "duration": 0.07750000000000057
                },
                {
                    "name": "D6",
                    "midi": 86,
                    "time": 89.53749999999887,
                    "velocity": 0.23622047244094488,
                    "duration": 0.060000000000002274
                },
                {
                    "name": "D6",
                    "midi": 86,
                    "time": 89.99499999999888,
                    "velocity": 0.1889763779527559,
                    "duration": 0.0724999999999909
                },
                {
                    "name": "G5",
                    "midi": 79,
                    "time": 90.00249999999888,
                    "velocity": 0.15748031496062992,
                    "duration": 0.09250000000000114
                },
                {
                    "name": "G#5",
                    "midi": 80,
                    "time": 90.98749999999887,
                    "velocity": 0.3228346456692913,
                    "duration": 0.20499999999998408
                },
                {
                    "name": "C#5",
                    "midi": 73,
                    "time": 91.00499999999887,
                    "velocity": 0.15748031496062992,
                    "duration": 0.35249999999999204
                },
                {
                    "name": "D#6",
                    "midi": 87,
                    "time": 91.01499999999886,
                    "velocity": 0.2755905511811024,
                    "duration": 0.40500000000000114
                },
                {
                    "name": "B5",
                    "midi": 83,
                    "time": 91.01999999999886,
                    "velocity": 0.3464566929133858,
                    "duration": 0.3500000000000085
                },
                {
                    "name": "A#5",
                    "midi": 82,
                    "time": 91.44249999999886,
                    "velocity": 0.23622047244094488,
                    "duration": 0.07500000000000284
                },
                {
                    "name": "A#5",
                    "midi": 82,
                    "time": 91.73999999999886,
                    "velocity": 0.3228346456692913,
                    "duration": 0.06499999999999773
                },
                {
                    "name": "C#6",
                    "midi": 85,
                    "time": 91.74249999999886,
                    "velocity": 0.3228346456692913,
                    "duration": 0.13249999999999318
                },
                {
                    "name": "F5",
                    "midi": 77,
                    "time": 91.74499999999885,
                    "velocity": 0.18110236220472442,
                    "duration": 0.06749999999999545
                },
                {
                    "name": "F6",
                    "midi": 89,
                    "time": 91.74999999999885,
                    "velocity": 0.2677165354330709,
                    "duration": 0.09749999999999659
                },
                {
                    "name": "C#5",
                    "midi": 73,
                    "time": 91.98749999999885,
                    "velocity": 0.2283464566929134,
                    "duration": 0.12250000000000227
                },
                {
                    "name": "G#5",
                    "midi": 80,
                    "time": 92.04249999999885,
                    "velocity": 0.11811023622047244,
                    "duration": 0.0625
                },
                {
                    "name": "C#6",
                    "midi": 85,
                    "time": 92.26499999999885,
                    "velocity": 0.2992125984251969,
                    "duration": 0.16499999999996362
                },
                {
                    "name": "A5",
                    "midi": 81,
                    "time": 92.29249999999882,
                    "velocity": 0.4015748031496063,
                    "duration": 0.2574999999999932
                },
                {
                    "name": "F#5",
                    "midi": 78,
                    "time": 92.30499999999883,
                    "velocity": 0.2755905511811024,
                    "duration": 0.24499999999999034
                },
                {
                    "name": "D#5",
                    "midi": 75,
                    "time": 92.53499999999882,
                    "velocity": 0.3228346456692913,
                    "duration": 0.06499999999999773
                },
                {
                    "name": "G#5",
                    "midi": 80,
                    "time": 92.54499999999882,
                    "velocity": 0.2992125984251969,
                    "duration": 0.04249999999998977
                },
                {
                    "name": "G#6",
                    "midi": 92,
                    "time": 92.74499999999881,
                    "velocity": 0.30708661417322836,
                    "duration": 0.12000000000000455
                },
                {
                    "name": "G#5",
                    "midi": 80,
                    "time": 92.75749999999881,
                    "velocity": 0.4015748031496063,
                    "duration": 0.07750000000000057
                },
                {
                    "name": "D#6",
                    "midi": 87,
                    "time": 92.76749999999882,
                    "velocity": 0.2283464566929134,
                    "duration": 0.04999999999999716
                },
                {
                    "name": "D#5",
                    "midi": 75,
                    "time": 92.78499999999882,
                    "velocity": 0.2755905511811024,
                    "duration": 0.03999999999999204
                },
                {
                    "name": "A5",
                    "midi": 81,
                    "time": 92.98749999999882,
                    "velocity": 0.4251968503937008,
                    "duration": 0.07749999999998636
                },
                {
                    "name": "F#5",
                    "midi": 78,
                    "time": 92.99499999999881,
                    "velocity": 0.3543307086614173,
                    "duration": 0.0899999999999892
                },
                {
                    "name": "C#6",
                    "midi": 85,
                    "time": 93.0149999999988,
                    "velocity": 0.29133858267716534,
                    "duration": 0.12999999999999545
                },
                {
                    "name": "B5",
                    "midi": 83,
                    "time": 93.2849999999988,
                    "velocity": 0.5118110236220472,
                    "duration": 0.2599999999999483
                },
                {
                    "name": "D#6",
                    "midi": 87,
                    "time": 93.2849999999988,
                    "velocity": 0.4094488188976378,
                    "duration": 0.2874999999999517
                },
                {
                    "name": "G#5",
                    "midi": 80,
                    "time": 93.3149999999988,
                    "velocity": 0.2992125984251969,
                    "duration": 0.14999999999994884
                },
                {
                    "name": "C#5",
                    "midi": 73,
                    "time": 93.3199999999988,
                    "velocity": 0.13385826771653545,
                    "duration": 0.2724999999999511
                },
                {
                    "name": "F5",
                    "midi": 77,
                    "time": 93.59999999999874,
                    "velocity": 0.2125984251968504,
                    "duration": 0.025000000000005684
                },
                {
                    "name": "A#5",
                    "midi": 82,
                    "time": 93.77999999999875,
                    "velocity": 0.3700787401574803,
                    "duration": 0.10499999999998977
                },
                {
                    "name": "F6",
                    "midi": 89,
                    "time": 93.78499999999875,
                    "velocity": 0.25196850393700787,
                    "duration": 0.09999999999999432
                },
                {
                    "name": "C#6",
                    "midi": 85,
                    "time": 93.80499999999874,
                    "velocity": 0.31496062992125984,
                    "duration": 0.09000000000000341
                },
                {
                    "name": "C#5",
                    "midi": 73,
                    "time": 94.00499999999874,
                    "velocity": 0.1732283464566929,
                    "duration": 0.08500000000000796
                },
                {
                    "name": "G#5",
                    "midi": 80,
                    "time": 94.01499999999875,
                    "velocity": 0.2283464566929134,
                    "duration": 0.04999999999999716
                },
                {
                    "name": "C#6",
                    "midi": 85,
                    "time": 94.23499999999875,
                    "velocity": 0.31496062992125984,
                    "duration": 0.16999999999994486
                },
                {
                    "name": "A5",
                    "midi": 81,
                    "time": 94.23749999999875,
                    "velocity": 0.4881889763779528,
                    "duration": 0.1449999999999534
                },
                {
                    "name": "F#5",
                    "midi": 78,
                    "time": 94.25499999999873,
                    "velocity": 0.3700787401574803,
                    "duration": 0.1174999999999784
                },
                {
                    "name": "B4",
                    "midi": 71,
                    "time": 94.26499999999874,
                    "velocity": 0.29133858267716534,
                    "duration": 0.0899999999999892
                },
                {
                    "name": "D#5",
                    "midi": 75,
                    "time": 94.4799999999987,
                    "velocity": 0.3779527559055118,
                    "duration": 0.06500000000001194
                },
                {
                    "name": "G#5",
                    "midi": 80,
                    "time": 94.5049999999987,
                    "velocity": 0.1732283464566929,
                    "duration": 0.04000000000000625
                },
                {
                    "name": "G#5",
                    "midi": 80,
                    "time": 94.68249999999871,
                    "velocity": 0.4094488188976378,
                    "duration": 0.09749999999999659
                },
                {
                    "name": "G#6",
                    "midi": 92,
                    "time": 94.68249999999871,
                    "velocity": 0.3464566929133858,
                    "duration": 0.1349999999999909
                },
                {
                    "name": "D#5",
                    "midi": 75,
                    "time": 94.68499999999871,
                    "velocity": 0.3543307086614173,
                    "duration": 0.09250000000000114
                },
                {
                    "name": "D#6",
                    "midi": 87,
                    "time": 94.70999999999871,
                    "velocity": 0.2755905511811024,
                    "duration": 0.04749999999999943
                },
                {
                    "name": "C#6",
                    "midi": 85,
                    "time": 94.93499999999871,
                    "velocity": 0.3779527559055118,
                    "duration": 0.14000000000000057
                },
                {
                    "name": "F#5",
                    "midi": 78,
                    "time": 94.9424999999987,
                    "velocity": 0.2992125984251969,
                    "duration": 0.09000000000000341
                },
                {
                    "name": "A5",
                    "midi": 81,
                    "time": 94.9449999999987,
                    "velocity": 0.3779527559055118,
                    "duration": 0.04999999999999716
                },
                {
                    "name": "B4",
                    "midi": 71,
                    "time": 94.9599999999987,
                    "velocity": 0.2204724409448819,
                    "duration": 0.045000000000001705
                },
                {
                    "name": "B5",
                    "midi": 83,
                    "time": 95.2224999999987,
                    "velocity": 0.5196850393700787,
                    "duration": 0.3174999999999528
                },
                {
                    "name": "D#6",
                    "midi": 87,
                    "time": 95.2399999999987,
                    "velocity": 0.41732283464566927,
                    "duration": 0.2349999999999426
                },
                {
                    "name": "G#5",
                    "midi": 80,
                    "time": 95.25249999999869,
                    "velocity": 0.25196850393700787,
                    "duration": 0.22249999999995396
                },
                {
                    "name": "C#5",
                    "midi": 73,
                    "time": 95.25499999999869,
                    "velocity": 0.15748031496062992,
                    "duration": 0.21999999999995623
                },
                {
                    "name": "A#5",
                    "midi": 82,
                    "time": 95.47249999999865,
                    "velocity": 0.2677165354330709,
                    "duration": 0.1075000000000017
                },
                {
                    "name": "F5",
                    "midi": 77,
                    "time": 95.48499999999865,
                    "velocity": 0.1732283464566929,
                    "duration": 0.07250000000000512
                },
                {
                    "name": "A#5",
                    "midi": 82,
                    "time": 95.71499999999865,
                    "velocity": 0.3700787401574803,
                    "duration": 0.1075000000000017
                },
                {
                    "name": "F6",
                    "midi": 89,
                    "time": 95.72999999999865,
                    "velocity": 0.33858267716535434,
                    "duration": 0.07500000000000284
                },
                {
                    "name": "C#6",
                    "midi": 85,
                    "time": 95.73249999999865,
                    "velocity": 0.2755905511811024,
                    "duration": 0.0625
                },
                {
                    "name": "F5",
                    "midi": 77,
                    "time": 95.76499999999865,
                    "velocity": 0.13385826771653545,
                    "duration": 0.07250000000000512
                },
                {
                    "name": "C#5",
                    "midi": 73,
                    "time": 95.99999999999865,
                    "velocity": 0.2204724409448819,
                    "duration": 0.02750000000000341
                },
                {
                    "name": "G#5",
                    "midi": 80,
                    "time": 95.99999999999865,
                    "velocity": 0.25984251968503935,
                    "duration": 0.02750000000000341
                },
                {
                    "name": "A5",
                    "midi": 81,
                    "time": 96.15749999999863,
                    "velocity": 0.3543307086614173,
                    "duration": 0.22499999999995168
                },
                {
                    "name": "C#6",
                    "midi": 85,
                    "time": 96.16249999999863,
                    "velocity": 0.33858267716535434,
                    "duration": 0.22499999999995168
                },
                {
                    "name": "F#5",
                    "midi": 78,
                    "time": 96.19249999999863,
                    "velocity": 0.3543307086614173,
                    "duration": 0.11749999999996419
                },
                {
                    "name": "B4",
                    "midi": 71,
                    "time": 96.19999999999862,
                    "velocity": 0.30708661417322836,
                    "duration": 0.11249999999996874
                },
                {
                    "name": "D#5",
                    "midi": 75,
                    "time": 96.40999999999858,
                    "velocity": 0.3937007874015748,
                    "duration": 0.05499999999999261
                },
                {
                    "name": "G#5",
                    "midi": 80,
                    "time": 96.43249999999857,
                    "velocity": 0.2204724409448819,
                    "duration": 0.03999999999999204
                },
                {
                    "name": "G#5",
                    "midi": 80,
                    "time": 96.62249999999857,
                    "velocity": 0.30708661417322836,
                    "duration": 0.1349999999999909
                },
                {
                    "name": "B5",
                    "midi": 83,
                    "time": 96.62499999999856,
                    "velocity": 0.36220472440944884,
                    "duration": 0.08499999999999375
                },
                {
                    "name": "D#6",
                    "midi": 87,
                    "time": 96.63249999999856,
                    "velocity": 0.2677165354330709,
                    "duration": 0.14999999999999147
                },
                {
                    "name": "D#5",
                    "midi": 75,
                    "time": 96.65249999999855,
                    "velocity": 0.25196850393700787,
                    "duration": 0.11249999999999716
                },
                {
                    "name": "F#5",
                    "midi": 78,
                    "time": 96.86499999999855,
                    "velocity": 0.33070866141732286,
                    "duration": 0.05500000000000682
                },
                {
                    "name": "G5",
                    "midi": 79,
                    "time": 97.10249999999856,
                    "velocity": 0.33858267716535434,
                    "duration": 0.23749999999995453
                },
                {
                    "name": "B5",
                    "midi": 83,
                    "time": 97.10499999999855,
                    "velocity": 0.30708661417322836,
                    "duration": 0.24749999999995964
                },
                {
                    "name": "E5",
                    "midi": 76,
                    "time": 97.11999999999856,
                    "velocity": 0.2992125984251969,
                    "duration": 0.22999999999996135
                },
                {
                    "name": "A4",
                    "midi": 69,
                    "time": 97.12499999999855,
                    "velocity": 0.25984251968503935,
                    "duration": 0.2249999999999659
                },
                {
                    "name": "C#5",
                    "midi": 73,
                    "time": 97.34999999999852,
                    "velocity": 0.2755905511811024,
                    "duration": 0.044999999999987494
                },
                {
                    "name": "F#5",
                    "midi": 78,
                    "time": 97.35749999999851,
                    "velocity": 0.1889763779527559,
                    "duration": 0.05499999999999261
                },
                {
                    "name": "F#5",
                    "midi": 78,
                    "time": 97.5849999999985,
                    "velocity": 0.3228346456692913,
                    "duration": 0.11249999999998295
                },
                {
                    "name": "C#5",
                    "midi": 73,
                    "time": 97.5874999999985,
                    "velocity": 0.3228346456692913,
                    "duration": 0.0899999999999892
                },
                {
                    "name": "C#6",
                    "midi": 85,
                    "time": 97.59499999999849,
                    "velocity": 0.15748031496062992,
                    "duration": 0.10249999999999204
                },
                {
                    "name": "A5",
                    "midi": 81,
                    "time": 97.61499999999849,
                    "velocity": 0.13385826771653545,
                    "duration": 0.2224999999999966
                },
                {
                    "name": "F#5",
                    "midi": 78,
                    "time": 98.11249999999848,
                    "velocity": 0.3228346456692913,
                    "duration": 0.34499999999995623
                },
                {
                    "name": "A#5",
                    "midi": 82,
                    "time": 98.12249999999847,
                    "velocity": 0.28346456692913385,
                    "duration": 0.2074999999999534
                },
                {
                    "name": "G#4",
                    "midi": 68,
                    "time": 98.14249999999846,
                    "velocity": 0.2204724409448819,
                    "duration": 0.13499999999996248
                },
                {
                    "name": "D#5",
                    "midi": 75,
                    "time": 98.14499999999846,
                    "velocity": 0.25196850393700787,
                    "duration": 0.23999999999996646
                },
                {
                    "name": "C5",
                    "midi": 72,
                    "time": 98.41499999999843,
                    "velocity": 0.09448818897637795,
                    "duration": 0.052500000000009095
                },
                {
                    "name": "C5",
                    "midi": 72,
                    "time": 98.67499999999843,
                    "velocity": 0.18110236220472442,
                    "duration": 0.21750000000000114
                },
                {
                    "name": "F5",
                    "midi": 77,
                    "time": 98.70499999999844,
                    "velocity": 0.16535433070866143,
                    "duration": 0.18999999999999773
                },
                {
                    "name": "G#5",
                    "midi": 80,
                    "time": 98.70499999999844,
                    "velocity": 0.16535433070866143,
                    "duration": 0.0799999999999983
                },
                {
                    "name": "C6",
                    "midi": 84,
                    "time": 98.70499999999844,
                    "velocity": 0.2204724409448819,
                    "duration": 0.04999999999999716
                },
                {
                    "name": "G#4",
                    "midi": 68,
                    "time": 99.02499999999843,
                    "velocity": 0.29133858267716534,
                    "duration": 0.12999999999999545
                },
                {
                    "name": "D#5",
                    "midi": 75,
                    "time": 99.04499999999842,
                    "velocity": 0.15748031496062992,
                    "duration": 0.07250000000000512
                },
                {
                    "name": "A#5",
                    "midi": 82,
                    "time": 99.50249999999839,
                    "velocity": 0.4645669291338583,
                    "duration": 0.21249999999996305
                },
                {
                    "name": "G#3",
                    "midi": 56,
                    "time": 99.50499999999839,
                    "velocity": 0.4015748031496063,
                    "duration": 0.08749999999996305
                },
                {
                    "name": "F#4",
                    "midi": 66,
                    "time": 99.51499999999838,
                    "velocity": 0.25196850393700787,
                    "duration": 0.07999999999996987
                },
                {
                    "name": "F#5",
                    "midi": 78,
                    "time": 99.51749999999838,
                    "velocity": 0.3543307086614173,
                    "duration": 0.18499999999997385
                },
                {
                    "name": "D#4",
                    "midi": 63,
                    "time": 99.52499999999837,
                    "velocity": 0.1968503937007874,
                    "duration": 0.06499999999998352
                },
                {
                    "name": "C5",
                    "midi": 72,
                    "time": 99.54749999999835,
                    "velocity": 0.1732283464566929,
                    "duration": 0.2775000000000034
                },
                {
                    "name": "A#4",
                    "midi": 70,
                    "time": 99.82749999999835,
                    "velocity": 0.31496062992125984,
                    "duration": 0.11750000000000682
                },
                {
                    "name": "C6",
                    "midi": 84,
                    "time": 100.10749999999835,
                    "velocity": 0.5590551181102362,
                    "duration": 0.06750000000000966
                },
                {
                    "name": "F#5",
                    "midi": 78,
                    "time": 100.12499999999835,
                    "velocity": 0.30708661417322836,
                    "duration": 0.12000000000000455
                },
                {
                    "name": "G#5",
                    "midi": 80,
                    "time": 100.13499999999836,
                    "velocity": 0.2125984251968504,
                    "duration": 0.04749999999999943
                },
                {
                    "name": "G#4",
                    "midi": 68,
                    "time": 100.39249999999835,
                    "velocity": 0.11811023622047244,
                    "duration": 0.08249999999999602
                },
                {
                    "name": "G#5",
                    "midi": 80,
                    "time": 100.57499999999833,
                    "velocity": 0.49606299212598426,
                    "duration": 0.23999999999998067
                },
                {
                    "name": "C#4",
                    "midi": 61,
                    "time": 100.57749999999832,
                    "velocity": 0.3858267716535433,
                    "duration": 0.04749999999999943
                },
                {
                    "name": "F#3",
                    "midi": 54,
                    "time": 100.58999999999833,
                    "velocity": 0.4251968503937008,
                    "duration": 0.07749999999998636
                },
                {
                    "name": "A#4",
                    "midi": 70,
                    "time": 100.60499999999833,
                    "velocity": 0.3543307086614173,
                    "duration": 0.12999999999998124
                },
                {
                    "name": "E4",
                    "midi": 64,
                    "time": 100.61999999999833,
                    "velocity": 0.15748031496062992,
                    "duration": 0.04749999999998522
                },
                {
                    "name": "G#4",
                    "midi": 68,
                    "time": 100.8049999999983,
                    "velocity": 0.3543307086614173,
                    "duration": 0.10000000000000853
                },
                {
                    "name": "D#6",
                    "midi": 87,
                    "time": 101.04249999999831,
                    "velocity": 0.5196850393700787,
                    "duration": 0.06249999999998579
                },
                {
                    "name": "A#5",
                    "midi": 82,
                    "time": 101.0499999999983,
                    "velocity": 0.4015748031496063,
                    "duration": 0.03499999999999659
                },
                {
                    "name": "G#5",
                    "midi": 80,
                    "time": 101.0549999999983,
                    "velocity": 0.3700787401574803,
                    "duration": 0.07750000000000057
                },
                {
                    "name": "G#4",
                    "midi": 68,
                    "time": 101.0724999999983,
                    "velocity": 0.15748031496062992,
                    "duration": 0.04749999999999943
                },
                {
                    "name": "F#4",
                    "midi": 66,
                    "time": 101.2924999999983,
                    "velocity": 0.33858267716535434,
                    "duration": 0.05750000000000455
                },
                {
                    "name": "F#5",
                    "midi": 78,
                    "time": 101.3099999999983,
                    "velocity": 0.2440944881889764,
                    "duration": 0.05500000000000682
                },
                {
                    "name": "D#4",
                    "midi": 63,
                    "time": 101.51249999999828,
                    "velocity": 0.3779527559055118,
                    "duration": 0.05999999999997385
                },
                {
                    "name": "G#3",
                    "midi": 56,
                    "time": 101.51749999999828,
                    "velocity": 0.41732283464566927,
                    "duration": 0.08749999999996305
                },
                {
                    "name": "F#4",
                    "midi": 66,
                    "time": 101.51749999999828,
                    "velocity": 0.29133858267716534,
                    "duration": 0.07749999999995794
                },
                {
                    "name": "A#5",
                    "midi": 82,
                    "time": 101.52499999999827,
                    "velocity": 0.4409448818897638,
                    "duration": 0.15999999999996817
                },
                {
                    "name": "F#5",
                    "midi": 78,
                    "time": 101.54249999999827,
                    "velocity": 0.2440944881889764,
                    "duration": 0.16749999999997556
                },
                {
                    "name": "C5",
                    "midi": 72,
                    "time": 101.55749999999827,
                    "velocity": 0.2047244094488189,
                    "duration": 0.10499999999997556
                },
                {
                    "name": "A#4",
                    "midi": 70,
                    "time": 101.77749999999824,
                    "velocity": 0.2755905511811024,
                    "duration": 0.09000000000000341
                },
                {
                    "name": "F#5",
                    "midi": 78,
                    "time": 101.96749999999824,
                    "velocity": 0.41732283464566927,
                    "duration": 0.1525000000000034
                },
                {
                    "name": "G#5",
                    "midi": 80,
                    "time": 101.97999999999824,
                    "velocity": 0.3543307086614173,
                    "duration": 0.07000000000000739
                },
                {
                    "name": "C6",
                    "midi": 84,
                    "time": 101.98249999999824,
                    "velocity": 0.44881889763779526,
                    "duration": 0.04000000000000625
                },
                {
                    "name": "G#4",
                    "midi": 68,
                    "time": 102.18499999999824,
                    "velocity": 0.3858267716535433,
                    "duration": 0.12749999999999773
                },
                {
                    "name": "C#4",
                    "midi": 61,
                    "time": 102.38749999999823,
                    "velocity": 0.4566929133858268,
                    "duration": 0.06999999999999318
                },
                {
                    "name": "F#3",
                    "midi": 54,
                    "time": 102.39499999999822,
                    "velocity": 0.4330708661417323,
                    "duration": 0.07749999999998636
                },
                {
                    "name": "G#5",
                    "midi": 80,
                    "time": 102.40249999999821,
                    "velocity": 0.4409448818897638,
                    "duration": 0.14999999999997726
                },
                {
                    "name": "A#4",
                    "midi": 70,
                    "time": 102.41499999999822,
                    "velocity": 0.3937007874015748,
                    "duration": 0.10749999999997328
                },
                {
                    "name": "G#4",
                    "midi": 68,
                    "time": 102.62249999999818,
                    "velocity": 0.30708661417322836,
                    "duration": 0.10500000000000398
                },
                {
                    "name": "G#5",
                    "midi": 80,
                    "time": 102.85499999999818,
                    "velocity": 0.44881889763779526,
                    "duration": 0.10249999999999204
                },
                {
                    "name": "A#5",
                    "midi": 82,
                    "time": 102.86749999999819,
                    "velocity": 0.5039370078740157,
                    "duration": 0.03499999999999659
                },
                {
                    "name": "G#4",
                    "midi": 68,
                    "time": 102.86999999999819,
                    "velocity": 0.2755905511811024,
                    "duration": 0.0799999999999983
                },
                {
                    "name": "D#6",
                    "midi": 87,
                    "time": 102.88249999999819,
                    "velocity": 0.33070866141732286,
                    "duration": 0.03249999999999886
                },
                {
                    "name": "F#4",
                    "midi": 66,
                    "time": 103.10749999999818,
                    "velocity": 0.41732283464566927,
                    "duration": 0.052500000000009095
                },
                {
                    "name": "F#5",
                    "midi": 78,
                    "time": 103.11999999999819,
                    "velocity": 0.31496062992125984,
                    "duration": 0.06750000000000966
                },
                {
                    "name": "D#4",
                    "midi": 63,
                    "time": 103.3724999999982,
                    "velocity": 0.3543307086614173,
                    "duration": 0.09499999999997044
                },
                {
                    "name": "A#5",
                    "midi": 82,
                    "time": 103.39499999999819,
                    "velocity": 0.4881889763779528,
                    "duration": 0.17499999999996874
                },
                {
                    "name": "F#4",
                    "midi": 66,
                    "time": 103.39999999999819,
                    "velocity": 0.23622047244094488,
                    "duration": 0.08249999999998181
                },
                {
                    "name": "G#3",
                    "midi": 56,
                    "time": 103.41499999999817,
                    "velocity": 0.3543307086614173,
                    "duration": 0.07750000000000057
                },
                {
                    "name": "F#5",
                    "midi": 78,
                    "time": 103.41499999999817,
                    "velocity": 0.3700787401574803,
                    "duration": 0.1799999999999926
                },
                {
                    "name": "C5",
                    "midi": 72,
                    "time": 103.42499999999816,
                    "velocity": 0.4094488188976378,
                    "duration": 0.1700000000000017
                },
                {
                    "name": "A#4",
                    "midi": 70,
                    "time": 103.64499999999816,
                    "velocity": 0.2992125984251969,
                    "duration": 0.09250000000000114
                },
                {
                    "name": "F#5",
                    "midi": 78,
                    "time": 103.85249999999816,
                    "velocity": 0.4566929133858268,
                    "duration": 0.13750000000000284
                },
                {
                    "name": "G#5",
                    "midi": 80,
                    "time": 103.85749999999815,
                    "velocity": 0.3937007874015748,
                    "duration": 0.07750000000000057
                },
                {
                    "name": "C6",
                    "midi": 84,
                    "time": 103.85999999999815,
                    "velocity": 0.44881889763779526,
                    "duration": 0.04000000000000625
                },
                {
                    "name": "G#4",
                    "midi": 68,
                    "time": 104.06749999999816,
                    "velocity": 0.4015748031496063,
                    "duration": 0.1075000000000017
                },
                {
                    "name": "C#4",
                    "midi": 61,
                    "time": 104.27999999999817,
                    "velocity": 0.3937007874015748,
                    "duration": 0.07999999999996987
                },
                {
                    "name": "F#3",
                    "midi": 54,
                    "time": 104.30499999999817,
                    "velocity": 0.3858267716535433,
                    "duration": 0.05999999999995964
                },
                {
                    "name": "G#5",
                    "midi": 80,
                    "time": 104.30499999999817,
                    "velocity": 0.5275590551181102,
                    "duration": 0.16499999999996362
                },
                {
                    "name": "A#4",
                    "midi": 70,
                    "time": 104.32749999999815,
                    "velocity": 0.36220472440944884,
                    "duration": 0.1799999999999784
                },
                {
                    "name": "E4",
                    "midi": 64,
                    "time": 104.33249999999815,
                    "velocity": 0.1968503937007874,
                    "duration": 0.044999999999987494
                },
                {
                    "name": "E5",
                    "midi": 76,
                    "time": 104.36249999999814,
                    "velocity": 0.31496062992125984,
                    "duration": 0.052500000000009095
                },
                {
                    "name": "G#4",
                    "midi": 68,
                    "time": 104.54749999999814,
                    "velocity": 0.31496062992125984,
                    "duration": 0.08750000000000568
                },
                {
                    "name": "A#5",
                    "midi": 82,
                    "time": 104.74499999999814,
                    "velocity": 0.5354330708661418,
                    "duration": 0.06999999999999318
                },
                {
                    "name": "F#5",
                    "midi": 78,
                    "time": 104.76499999999814,
                    "velocity": 0.4094488188976378,
                    "duration": 0.05749999999999034
                },
                {
                    "name": "E5",
                    "midi": 76,
                    "time": 104.77999999999814,
                    "velocity": 0.4566929133858268,
                    "duration": 0.07749999999998636
                },
                {
                    "name": "F#4",
                    "midi": 66,
                    "time": 104.98499999999812,
                    "velocity": 0.2677165354330709,
                    "duration": 0.12250000000000227
                },
                {
                    "name": "F#5",
                    "midi": 78,
                    "time": 105.22999999999813,
                    "velocity": 0.4645669291338583,
                    "duration": 0.19249999999995282
                },
                {
                    "name": "E3",
                    "midi": 52,
                    "time": 105.22999999999813,
                    "velocity": 0.48031496062992124,
                    "duration": 0.08499999999997954
                },
                {
                    "name": "B3",
                    "midi": 59,
                    "time": 105.23499999999812,
                    "velocity": 0.4015748031496063,
                    "duration": 0.06999999999997897
                },
                {
                    "name": "D4",
                    "midi": 62,
                    "time": 105.23499999999812,
                    "velocity": 0.41732283464566927,
                    "duration": 0.08499999999997954
                },
                {
                    "name": "G#4",
                    "midi": 68,
                    "time": 105.2549999999981,
                    "velocity": 0.3858267716535433,
                    "duration": 0.16499999999997783
                },
                {
                    "name": "D5",
                    "midi": 74,
                    "time": 105.26749999999811,
                    "velocity": 0.3779527559055118,
                    "duration": 0.1274999999999693
                },
                {
                    "name": "F#4",
                    "midi": 66,
                    "time": 105.46749999999808,
                    "velocity": 0.2992125984251969,
                    "duration": 0.06749999999999545
                },
                {
                    "name": "G#5",
                    "midi": 80,
                    "time": 105.66499999999807,
                    "velocity": 0.5275590551181102,
                    "duration": 0.08749999999999147
                },
                {
                    "name": "D5",
                    "midi": 74,
                    "time": 105.69499999999807,
                    "velocity": 0.36220472440944884,
                    "duration": 0.07999999999998408
                },
                {
                    "name": "E5",
                    "midi": 76,
                    "time": 105.71249999999807,
                    "velocity": 0.4015748031496063,
                    "duration": 0.044999999999987494
                },
                {
                    "name": "G#4",
                    "midi": 68,
                    "time": 105.71499999999807,
                    "velocity": 0.13385826771653545,
                    "duration": 0.05499999999999261
                },
                {
                    "name": "E4",
                    "midi": 64,
                    "time": 105.91499999999806,
                    "velocity": 0.3700787401574803,
                    "duration": 0.1599999999999966
                },
                {
                    "name": "F5",
                    "midi": 77,
                    "time": 106.21499999999806,
                    "velocity": 0.44881889763779526,
                    "duration": 0.16749999999998977
                },
                {
                    "name": "A#2",
                    "midi": 46,
                    "time": 106.22249999999805,
                    "velocity": 0.2755905511811024,
                    "duration": 0.10000000000000853
                },
                {
                    "name": "D5",
                    "midi": 74,
                    "time": 106.23249999999805,
                    "velocity": 0.33858267716535434,
                    "duration": 0.14499999999999602
                },
                {
                    "name": "A#3",
                    "midi": 58,
                    "time": 106.23249999999805,
                    "velocity": 0.15748031496062992,
                    "duration": 0.11750000000000682
                },
                {
                    "name": "A#4",
                    "midi": 70,
                    "time": 106.24499999999806,
                    "velocity": 0.2440944881889764,
                    "duration": 0.19999999999998863
                },
                {
                    "name": "F3",
                    "midi": 53,
                    "time": 106.24499999999806,
                    "velocity": 0.33070866141732286,
                    "duration": 0.07000000000000739
                },
                {
                    "name": "F4",
                    "midi": 65,
                    "time": 106.50499999999805,
                    "velocity": 0.30708661417322836,
                    "duration": 0.07500000000000284
                },
                {
                    "name": "A#4",
                    "midi": 70,
                    "time": 106.68499999999806,
                    "velocity": 0.3543307086614173,
                    "duration": 0.07000000000000739
                },
                {
                    "name": "D4",
                    "midi": 62,
                    "time": 106.72749999999806,
                    "velocity": 0.3543307086614173,
                    "duration": 0.07500000000000284
                },
                {
                    "name": "F4",
                    "midi": 65,
                    "time": 106.91499999999806,
                    "velocity": 0.18110236220472442,
                    "duration": 0.09749999999999659
                },
                {
                    "name": "E3",
                    "midi": 52,
                    "time": 107.12999999999805,
                    "velocity": 0.5118110236220472,
                    "duration": 0.07999999999998408
                },
                {
                    "name": "F#5",
                    "midi": 78,
                    "time": 107.13749999999804,
                    "velocity": 0.44881889763779526,
                    "duration": 0.19249999999996703
                },
                {
                    "name": "B3",
                    "midi": 59,
                    "time": 107.14249999999804,
                    "velocity": 0.4566929133858268,
                    "duration": 0.0724999999999909
                },
                {
                    "name": "D4",
                    "midi": 62,
                    "time": 107.14499999999803,
                    "velocity": 0.4251968503937008,
                    "duration": 0.07749999999998636
                },
                {
                    "name": "G#4",
                    "midi": 68,
                    "time": 107.16499999999803,
                    "velocity": 0.3464566929133858,
                    "duration": 0.13749999999997442
                },
                {
                    "name": "D5",
                    "midi": 74,
                    "time": 107.16499999999803,
                    "velocity": 0.4881889763779528,
                    "duration": 0.14999999999997726
                },
                {
                    "name": "F#4",
                    "midi": 66,
                    "time": 107.382499999998,
                    "velocity": 0.3543307086614173,
                    "duration": 0.2049999999999983
                },
                {
                    "name": "G#5",
                    "midi": 80,
                    "time": 107.589999999998,
                    "velocity": 0.5433070866141733,
                    "duration": 0.09749999999999659
                },
                {
                    "name": "D5",
                    "midi": 74,
                    "time": 107.634999999998,
                    "velocity": 0.3779527559055118,
                    "duration": 0.06499999999999773
                },
                {
                    "name": "E5",
                    "midi": 76,
                    "time": 107.634999999998,
                    "velocity": 0.33070866141732286,
                    "duration": 0.0625
                },
                {
                    "name": "E4",
                    "midi": 64,
                    "time": 107.83249999999799,
                    "velocity": 0.3228346456692913,
                    "duration": 0.11750000000000682
                },
                {
                    "name": "F5",
                    "midi": 77,
                    "time": 108.06749999999799,
                    "velocity": 0.3464566929133858,
                    "duration": 0.12249999999995964
                },
                {
                    "name": "A#2",
                    "midi": 46,
                    "time": 108.06999999999799,
                    "velocity": 0.2283464566929134,
                    "duration": 0.0999999999999801
                },
                {
                    "name": "A#3",
                    "midi": 58,
                    "time": 108.09249999999798,
                    "velocity": 0.1968503937007874,
                    "duration": 0.10499999999996135
                },
                {
                    "name": "F3",
                    "midi": 53,
                    "time": 108.09499999999798,
                    "velocity": 0.3464566929133858,
                    "duration": 0.0625
                },
                {
                    "name": "D5",
                    "midi": 74,
                    "time": 108.10999999999798,
                    "velocity": 0.11811023622047244,
                    "duration": 0.07749999999997215
                },
                {
                    "name": "A#4",
                    "midi": 70,
                    "time": 108.11499999999798,
                    "velocity": 0.13385826771653545,
                    "duration": 0.1624999999999659
                },
                {
                    "name": "F4",
                    "midi": 65,
                    "time": 108.30249999999795,
                    "velocity": 0.25984251968503935,
                    "duration": 0.13249999999999318
                },
                {
                    "name": "D4",
                    "midi": 62,
                    "time": 108.51249999999794,
                    "velocity": 0.29133858267716534,
                    "duration": 0.1075000000000017
                },
                {
                    "name": "A#4",
                    "midi": 70,
                    "time": 108.52749999999794,
                    "velocity": 0.2677165354330709,
                    "duration": 0.045000000000001705
                },
                {
                    "name": "E3",
                    "midi": 52,
                    "time": 108.95249999999794,
                    "velocity": 0.4645669291338583,
                    "duration": 0.06249999999998579
                },
                {
                    "name": "F#5",
                    "midi": 78,
                    "time": 108.95499999999794,
                    "velocity": 0.47244094488188976,
                    "duration": 0.1999999999999602
                },
                {
                    "name": "D4",
                    "midi": 62,
                    "time": 108.96499999999793,
                    "velocity": 0.3700787401574803,
                    "duration": 0.07499999999998863
                },
                {
                    "name": "B3",
                    "midi": 59,
                    "time": 108.96499999999793,
                    "velocity": 0.44881889763779526,
                    "duration": 0.05499999999999261
                },
                {
                    "name": "G#4",
                    "midi": 68,
                    "time": 108.98999999999792,
                    "velocity": 0.30708661417322836,
                    "duration": 0.1449999999999818
                },
                {
                    "name": "D5",
                    "midi": 74,
                    "time": 109.00249999999792,
                    "velocity": 0.3543307086614173,
                    "duration": 0.13999999999997215
                },
                {
                    "name": "F#4",
                    "midi": 66,
                    "time": 109.2024999999979,
                    "velocity": 0.2677165354330709,
                    "duration": 0.08750000000000568
                },
                {
                    "name": "G#5",
                    "midi": 80,
                    "time": 109.4224999999979,
                    "velocity": 0.4330708661417323,
                    "duration": 0.07499999999998863
                },
                {
                    "name": "E5",
                    "midi": 76,
                    "time": 109.44249999999789,
                    "velocity": 0.41732283464566927,
                    "duration": 0.07749999999998636
                },
                {
                    "name": "G#4",
                    "midi": 68,
                    "time": 109.44999999999789,
                    "velocity": 0.2677165354330709,
                    "duration": 0.05499999999999261
                },
                {
                    "name": "E4",
                    "midi": 64,
                    "time": 109.64999999999787,
                    "velocity": 0.3700787401574803,
                    "duration": 0.15749999999999886
                },
                {
                    "name": "F5",
                    "midi": 77,
                    "time": 109.90749999999787,
                    "velocity": 0.4015748031496063,
                    "duration": 0.1549999999999443
                },
                {
                    "name": "A#2",
                    "midi": 46,
                    "time": 109.92749999999786,
                    "velocity": 0.15748031496062992,
                    "duration": 0.08749999999997726
                },
                {
                    "name": "A#3",
                    "midi": 58,
                    "time": 109.92999999999786,
                    "velocity": 0.15748031496062992,
                    "duration": 0.11249999999996874
                },
                {
                    "name": "F3",
                    "midi": 53,
                    "time": 109.93999999999785,
                    "velocity": 0.23622047244094488,
                    "duration": 0.06749999999999545
                },
                {
                    "name": "D5",
                    "midi": 74,
                    "time": 109.94499999999785,
                    "velocity": 0.3700787401574803,
                    "duration": 0.10749999999997328
                },
                {
                    "name": "A#4",
                    "midi": 70,
                    "time": 109.97249999999785,
                    "velocity": 0.15748031496062992,
                    "duration": 0.16249999999995168
                },
                {
                    "name": "F4",
                    "midi": 65,
                    "time": 110.17499999999781,
                    "velocity": 0.2755905511811024,
                    "duration": 0.14000000000000057
                },
                {
                    "name": "A#4",
                    "midi": 70,
                    "time": 110.3999999999978,
                    "velocity": 0.44881889763779526,
                    "duration": 0.007499999999993179
                },
                {
                    "name": "D4",
                    "midi": 62,
                    "time": 110.42749999999779,
                    "velocity": 0.33070866141732286,
                    "duration": 0.1075000000000017
                },
                {
                    "name": "F4",
                    "midi": 65,
                    "time": 110.6449999999978,
                    "velocity": 0.23622047244094488,
                    "duration": 0.04999999999999716
                },
                {
                    "name": "D4",
                    "midi": 62,
                    "time": 110.92499999999777,
                    "velocity": 0.18110236220472442,
                    "duration": 0.06749999999998124
                },
                {
                    "name": "B2",
                    "midi": 47,
                    "time": 110.92749999999776,
                    "velocity": 0.36220472440944884,
                    "duration": 0.04749999999998522
                },
                {
                    "name": "E3",
                    "midi": 52,
                    "time": 110.92999999999776,
                    "velocity": 0.36220472440944884,
                    "duration": 0.06249999999998579
                },
                {
                    "name": "G#3",
                    "midi": 56,
                    "time": 110.93999999999777,
                    "velocity": 0.36220472440944884,
                    "duration": 0.1449999999999676
                },
                {
                    "name": "F#4",
                    "midi": 66,
                    "time": 110.94749999999776,
                    "velocity": 0.3858267716535433,
                    "duration": 0.16499999999997783
                },
                {
                    "name": "B3",
                    "midi": 59,
                    "time": 110.95499999999775,
                    "velocity": 0.2204724409448819,
                    "duration": 0.6074999999999164
                },
                {
                    "name": "G#4",
                    "midi": 68,
                    "time": 111.14999999999773,
                    "velocity": 0.4645669291338583,
                    "duration": 0.0799999999999983
                },
                {
                    "name": "C#4",
                    "midi": 61,
                    "time": 111.37999999999772,
                    "velocity": 0.3700787401574803,
                    "duration": 0.262499999999946
                },
                {
                    "name": "F#4",
                    "midi": 66,
                    "time": 111.38499999999772,
                    "velocity": 0.2677165354330709,
                    "duration": 0.11999999999996191
                },
                {
                    "name": "B4",
                    "midi": 71,
                    "time": 111.39499999999771,
                    "velocity": 0.30708661417322836,
                    "duration": 0.11249999999996874
                },
                {
                    "name": "D4",
                    "midi": 62,
                    "time": 111.48999999999768,
                    "velocity": 0.4409448818897638,
                    "duration": 0.06499999999999773
                },
                {
                    "name": "D5",
                    "midi": 74,
                    "time": 111.61249999999767,
                    "velocity": 0.44881889763779526,
                    "duration": 0.03249999999999886
                },
                {
                    "name": "B3",
                    "midi": 59,
                    "time": 111.78749999999765,
                    "velocity": 0.3700787401574803,
                    "duration": 0.09499999999998465
                },
                {
                    "name": "E4",
                    "midi": 64,
                    "time": 111.80499999999765,
                    "velocity": 0.36220472440944884,
                    "duration": 0.08499999999997954
                },
                {
                    "name": "B4",
                    "midi": 71,
                    "time": 111.83249999999765,
                    "velocity": 0.44881889763779526,
                    "duration": 0.2624999999999744
                },
                {
                    "name": "G#4",
                    "midi": 68,
                    "time": 111.83499999999765,
                    "velocity": 0.36220472440944884,
                    "duration": 0.09499999999998465
                },
                {
                    "name": "F#5",
                    "midi": 78,
                    "time": 111.84499999999765,
                    "velocity": 0.3464566929133858,
                    "duration": 0.16749999999997556
                },
                {
                    "name": "D5",
                    "midi": 74,
                    "time": 111.85249999999765,
                    "velocity": 0.2992125984251969,
                    "duration": 0.12249999999998806
                },
                {
                    "name": "G#5",
                    "midi": 80,
                    "time": 112.04499999999763,
                    "velocity": 0.36220472440944884,
                    "duration": 0.06999999999999318
                },
                {
                    "name": "C#5",
                    "midi": 73,
                    "time": 112.24749999999761,
                    "velocity": 0.6299212598425197,
                    "duration": 0.3949999999999818
                },
                {
                    "name": "F#5",
                    "midi": 78,
                    "time": 112.25749999999762,
                    "velocity": 0.4645669291338583,
                    "duration": 0.11749999999999261
                },
                {
                    "name": "B5",
                    "midi": 83,
                    "time": 112.26749999999763,
                    "velocity": 0.4251968503937008,
                    "duration": 0.13249999999999318
                },
                {
                    "name": "G#5",
                    "midi": 80,
                    "time": 112.44999999999762,
                    "velocity": 0.2283464566929134,
                    "duration": 0.052499999999994884
                },
                {
                    "name": "B4",
                    "midi": 71,
                    "time": 112.64749999999759,
                    "velocity": 0.44881889763779526,
                    "duration": 0.0899999999999892
                },
                {
                    "name": "C#6",
                    "midi": 85,
                    "time": 112.7024999999976,
                    "velocity": 0.2992125984251969,
                    "duration": 0.08499999999997954
                },
                {
                    "name": "G#5",
                    "midi": 80,
                    "time": 112.7074999999976,
                    "velocity": 0.30708661417322836,
                    "duration": 0.05249999999998067
                },
                {
                    "name": "B5",
                    "midi": 83,
                    "time": 112.79999999999758,
                    "velocity": 0.3543307086614173,
                    "duration": 0.20250000000001478
                },
                {
                    "name": "F#6",
                    "midi": 90,
                    "time": 112.79999999999758,
                    "velocity": 0.16535433070866143,
                    "duration": 0.08750000000000568
                },
                {
                    "name": "G#6",
                    "midi": 92,
                    "time": 112.91249999999759,
                    "velocity": 0.48031496062992124,
                    "duration": 0.07750000000000057
                },
                {
                    "name": "C#6",
                    "midi": 85,
                    "time": 113.09249999999757,
                    "velocity": 0.5196850393700787,
                    "duration": 0.3024999999999949
                },
                {
                    "name": "B6",
                    "midi": 95,
                    "time": 113.10499999999757,
                    "velocity": 0.5354330708661418,
                    "duration": 0.11249999999998295
                },
                {
                    "name": "F#6",
                    "midi": 90,
                    "time": 113.10749999999757,
                    "velocity": 0.4094488188976378,
                    "duration": 0.12499999999998579
                },
                {
                    "name": "D6",
                    "midi": 86,
                    "time": 113.24249999999756,
                    "velocity": 0.5039370078740157,
                    "duration": 0.11249999999999716
                },
                {
                    "name": "D7",
                    "midi": 98,
                    "time": 113.40749999999757,
                    "velocity": 0.5196850393700787,
                    "duration": 0.04000000000000625
                },
                {
                    "name": "B5",
                    "midi": 83,
                    "time": 113.41749999999757,
                    "velocity": 0.4881889763779528,
                    "duration": 0.04999999999999716
                },
                {
                    "name": "A#4",
                    "midi": 70,
                    "time": 113.67499999999755,
                    "velocity": 0.49606299212598426,
                    "duration": 0.08499999999999375
                },
                {
                    "name": "F7",
                    "midi": 101,
                    "time": 113.68749999999756,
                    "velocity": 0.5039370078740157,
                    "duration": 0.1074999999999875
                },
                {
                    "name": "D7",
                    "midi": 98,
                    "time": 113.78249999999754,
                    "velocity": 0.3858267716535433,
                    "duration": 0.10000000000000853
                },
                {
                    "name": "A#6",
                    "midi": 94,
                    "time": 113.86999999999755,
                    "velocity": 0.4094488188976378,
                    "duration": 0.06499999999999773
                },
                {
                    "name": "F6",
                    "midi": 89,
                    "time": 113.95999999999755,
                    "velocity": 0.3858267716535433,
                    "duration": 0.037499999999994316
                },
                {
                    "name": "A#5",
                    "midi": 82,
                    "time": 113.98249999999754,
                    "velocity": 0.25196850393700787,
                    "duration": 0.03999999999999204
                },
                {
                    "name": "F5",
                    "midi": 77,
                    "time": 113.98499999999754,
                    "velocity": 0.29133858267716534,
                    "duration": 0.044999999999987494
                },
                {
                    "name": "D6",
                    "midi": 86,
                    "time": 113.98499999999754,
                    "velocity": 0.15748031496062992,
                    "duration": 0.03499999999999659
                },
                {
                    "name": "D6",
                    "midi": 86,
                    "time": 114.07249999999753,
                    "velocity": 0.15748031496062992,
                    "duration": 0.07500000000000284
                },
                {
                    "name": "A#5",
                    "midi": 82,
                    "time": 114.14749999999754,
                    "velocity": 0.4409448818897638,
                    "duration": 0.09000000000000341
                },
                {
                    "name": "F5",
                    "midi": 77,
                    "time": 114.23499999999754,
                    "velocity": 0.4409448818897638,
                    "duration": 0.0899999999999892
                },
                {
                    "name": "A#5",
                    "midi": 82,
                    "time": 114.31999999999753,
                    "velocity": 0.33858267716535434,
                    "duration": 0.03999999999999204
                },
                {
                    "name": "D6",
                    "midi": 86,
                    "time": 114.36499999999752,
                    "velocity": 0.3228346456692913,
                    "duration": 0.04250000000000398
                },
                {
                    "name": "A#5",
                    "midi": 82,
                    "time": 114.46749999999753,
                    "velocity": 0.15748031496062992,
                    "duration": 0.10500000000000398
                },
                {
                    "name": "F6",
                    "midi": 89,
                    "time": 114.49499999999753,
                    "velocity": 0.44881889763779526,
                    "duration": 0.1074999999999875
                },
                {
                    "name": "F5",
                    "midi": 77,
                    "time": 114.49999999999753,
                    "velocity": 0.13385826771653545,
                    "duration": 0.09499999999999886
                },
                {
                    "name": "D6",
                    "midi": 86,
                    "time": 114.51499999999753,
                    "velocity": 0.2204724409448819,
                    "duration": 0.045000000000001705
                },
                {
                    "name": "A#6",
                    "midi": 94,
                    "time": 114.57749999999753,
                    "velocity": 0.4409448818897638,
                    "duration": 0.1349999999999767
                },
                {
                    "name": "F#7",
                    "midi": 102,
                    "time": 114.7324999999975,
                    "velocity": 0.4330708661417323,
                    "duration": 0.12749999999999773
                },
                {
                    "name": "G#4",
                    "midi": 68,
                    "time": 114.7624999999975,
                    "velocity": 0.4094488188976378,
                    "duration": 0.0724999999999909
                },
                {
                    "name": "D7",
                    "midi": 98,
                    "time": 114.88249999999749,
                    "velocity": 0.31496062992125984,
                    "duration": 0.15500000000000114
                },
                {
                    "name": "B6",
                    "midi": 95,
                    "time": 115.0024999999975,
                    "velocity": 0.3543307086614173,
                    "duration": 0.04749999999999943
                },
                {
                    "name": "D5",
                    "midi": 74,
                    "time": 115.0049999999975,
                    "velocity": 0.3937007874015748,
                    "duration": 0.10999999999999943
                },
                {
                    "name": "F#5",
                    "midi": 78,
                    "time": 115.02249999999749,
                    "velocity": 0.25984251968503935,
                    "duration": 0.04749999999999943
                },
                {
                    "name": "B5",
                    "midi": 83,
                    "time": 115.0324999999975,
                    "velocity": 0.1732283464566929,
                    "duration": 0.04999999999999716
                },
                {
                    "name": "F#6",
                    "midi": 90,
                    "time": 115.19999999999749,
                    "velocity": 0.3937007874015748,
                    "duration": 0.022499999999993747
                },
                {
                    "name": "G#7",
                    "midi": 104,
                    "time": 115.26249999999749,
                    "velocity": 0.5433070866141733,
                    "duration": 0.15500000000000114
                },
                {
                    "name": "D7",
                    "midi": 98,
                    "time": 115.41749999999749,
                    "velocity": 0.3228346456692913,
                    "duration": 0.12250000000000227
                },
                {
                    "name": "D5",
                    "midi": 74,
                    "time": 115.52749999999749,
                    "velocity": 0.36220472440944884,
                    "duration": 0.03999999999999204
                },
                {
                    "name": "B6",
                    "midi": 95,
                    "time": 115.54499999999749,
                    "velocity": 0.18110236220472442,
                    "duration": 0.0625
                },
                {
                    "name": "G#6",
                    "midi": 92,
                    "time": 115.63249999999749,
                    "velocity": 0.3858267716535433,
                    "duration": 0.05249999999998067
                },
                {
                    "name": "F7",
                    "midi": 101,
                    "time": 115.75499999999745,
                    "velocity": 0.4881889763779528,
                    "duration": 0.08250000000001023
                },
                {
                    "name": "A#3",
                    "midi": 58,
                    "time": 115.76499999999746,
                    "velocity": 0.4094488188976378,
                    "duration": 0.4475000000000051
                },
                {
                    "name": "D7",
                    "midi": 98,
                    "time": 115.83999999999746,
                    "velocity": 0.44881889763779526,
                    "duration": 0.09499999999999886
                },
                {
                    "name": "A#6",
                    "midi": 94,
                    "time": 115.92499999999745,
                    "velocity": 0.44881889763779526,
                    "duration": 0.052500000000009095
                },
                {
                    "name": "F6",
                    "midi": 89,
                    "time": 115.99999999999746,
                    "velocity": 0.4566929133858268,
                    "duration": 0.03499999999999659
                },
                {
                    "name": "A#4",
                    "midi": 70,
                    "time": 116.04499999999746,
                    "velocity": 0.2755905511811024,
                    "duration": 0.04000000000000625
                },
                {
                    "name": "D5",
                    "midi": 74,
                    "time": 116.04499999999746,
                    "velocity": 0.2755905511811024,
                    "duration": 0.045000000000001705
                },
                {
                    "name": "F4",
                    "midi": 65,
                    "time": 116.05499999999746,
                    "velocity": 0.23622047244094488,
                    "duration": 0.052499999999994884
                },
                {
                    "name": "D6",
                    "midi": 86,
                    "time": 116.10499999999746,
                    "velocity": 0.4094488188976378,
                    "duration": 0.10999999999999943
                },
                {
                    "name": "A#5",
                    "midi": 82,
                    "time": 116.19499999999746,
                    "velocity": 0.4566929133858268,
                    "duration": 0.08499999999999375
                },
                {
                    "name": "F5",
                    "midi": 77,
                    "time": 116.30499999999746,
                    "velocity": 0.41732283464566927,
                    "duration": 0.04250000000000398
                },
                {
                    "name": "D5",
                    "midi": 74,
                    "time": 116.40749999999747,
                    "velocity": 0.4645669291338583,
                    "duration": 0.09250000000000114
                },
                {
                    "name": "A#4",
                    "midi": 70,
                    "time": 116.50249999999747,
                    "velocity": 0.28346456692913385,
                    "duration": 0.06499999999999773
                },
                {
                    "name": "A#3",
                    "midi": 58,
                    "time": 116.53999999999746,
                    "velocity": 0.3858267716535433,
                    "duration": 0.04000000000000625
                },
                {
                    "name": "F4",
                    "midi": 65,
                    "time": 116.59499999999747,
                    "velocity": 0.3937007874015748,
                    "duration": 0.0799999999999983
                },
                {
                    "name": "A#4",
                    "midi": 70,
                    "time": 116.65499999999747,
                    "velocity": 0.2047244094488189,
                    "duration": 0.07749999999998636
                },
                {
                    "name": "D5",
                    "midi": 74,
                    "time": 116.70999999999746,
                    "velocity": 0.2992125984251969,
                    "duration": 0.06499999999999773
                },
                {
                    "name": "F#5",
                    "midi": 78,
                    "time": 116.80999999999746,
                    "velocity": 0.5590551181102362,
                    "duration": 0.14249999999996987
                },
                {
                    "name": "G#3",
                    "midi": 56,
                    "time": 116.81999999999745,
                    "velocity": 0.4881889763779528,
                    "duration": 0.7799999999999727
                },
                {
                    "name": "D5",
                    "midi": 74,
                    "time": 116.95749999999742,
                    "velocity": 0.2677165354330709,
                    "duration": 0.1075000000000017
                },
                {
                    "name": "B4",
                    "midi": 71,
                    "time": 117.09499999999743,
                    "velocity": 0.2204724409448819,
                    "duration": 0.05499999999999261
                },
                {
                    "name": "C#4",
                    "midi": 61,
                    "time": 117.10999999999743,
                    "velocity": 0.2992125984251969,
                    "duration": 0.17499999999999716
                },
                {
                    "name": "D4",
                    "midi": 62,
                    "time": 117.11499999999742,
                    "velocity": 0.29133858267716534,
                    "duration": 0.10999999999999943
                },
                {
                    "name": "F#4",
                    "midi": 66,
                    "time": 117.19249999999742,
                    "velocity": 0.2755905511811024,
                    "duration": 0.11249999999999716
                },
                {
                    "name": "G#5",
                    "midi": 80,
                    "time": 117.35499999999742,
                    "velocity": 0.3700787401574803,
                    "duration": 0.13750000000000284
                },
                {
                    "name": "D5",
                    "midi": 74,
                    "time": 117.50499999999742,
                    "velocity": 0.2283464566929134,
                    "duration": 0.060000000000002274
                },
                {
                    "name": "B3",
                    "midi": 59,
                    "time": 117.61499999999742,
                    "velocity": 0.13385826771653545,
                    "duration": 0.03499999999999659
                },
                {
                    "name": "G#4",
                    "midi": 68,
                    "time": 117.70249999999741,
                    "velocity": 0.3228346456692913,
                    "duration": 0.07250000000000512
                },
                {
                    "name": "A#2",
                    "midi": 46,
                    "time": 117.84499999999741,
                    "velocity": 0.3937007874015748,
                    "duration": 0.07749999999998636
                },
                {
                    "name": "F5",
                    "midi": 77,
                    "time": 117.85499999999742,
                    "velocity": 0.3700787401574803,
                    "duration": 0.11499999999998067
                },
                {
                    "name": "D5",
                    "midi": 74,
                    "time": 117.9849999999974,
                    "velocity": 0.28346456692913385,
                    "duration": 0.11250000000001137
                },
                {
                    "name": "A#4",
                    "midi": 70,
                    "time": 118.0874999999974,
                    "velocity": 0.2992125984251969,
                    "duration": 0.0875000000000199
                },
                {
                    "name": "D4",
                    "midi": 62,
                    "time": 118.12499999999741,
                    "velocity": 0.3779527559055118,
                    "duration": 0.04000000000000625
                },
                {
                    "name": "F4",
                    "midi": 65,
                    "time": 118.20499999999743,
                    "velocity": 0.4015748031496063,
                    "duration": 0.045000000000001705
                },
                {
                    "name": "D4",
                    "midi": 62,
                    "time": 118.32749999999743,
                    "velocity": 0.41732283464566927,
                    "duration": 0.5100000000000051
                },
                {
                    "name": "A#3",
                    "midi": 58,
                    "time": 118.48499999999743,
                    "velocity": 0.3700787401574803,
                    "duration": 0.09000000000000341
                },
                {
                    "name": "F3",
                    "midi": 53,
                    "time": 118.62499999999743,
                    "velocity": 0.41732283464566927,
                    "duration": 0.125
                },
                {
                    "name": "A#2",
                    "midi": 46,
                    "time": 118.80999999999743,
                    "velocity": 0.3937007874015748,
                    "duration": 0.12499999999998579
                },
                {
                    "name": "G#2",
                    "midi": 44,
                    "time": 118.94499999999742,
                    "velocity": 0.47244094488188976,
                    "duration": 0.08999999999996078
                },
                {
                    "name": "B3",
                    "midi": 59,
                    "time": 118.95999999999742,
                    "velocity": 0.4094488188976378,
                    "duration": 0.19249999999996703
                },
                {
                    "name": "F#3",
                    "midi": 54,
                    "time": 118.96749999999741,
                    "velocity": 0.2047244094488189,
                    "duration": 0.1349999999999767
                },
                {
                    "name": "D3",
                    "midi": 50,
                    "time": 118.97249999999741,
                    "velocity": 0.25196850393700787,
                    "duration": 0.11999999999997613
                },
                {
                    "name": "C#4",
                    "midi": 61,
                    "time": 119.18749999999739,
                    "velocity": 0.3700787401574803,
                    "duration": 0.052499999999994884
                },
                {
                    "name": "A#3",
                    "midi": 58,
                    "time": 119.39499999999737,
                    "velocity": 0.5118110236220472,
                    "duration": 0.47999999999996135
                },
                {
                    "name": "B3",
                    "midi": 59,
                    "time": 119.41999999999737,
                    "velocity": 0.3543307086614173,
                    "duration": 0.044999999999987494
                },
                {
                    "name": "F#3",
                    "midi": 54,
                    "time": 119.51249999999736,
                    "velocity": 0.3228346456692913,
                    "duration": 0.0625
                },
                {
                    "name": "D4",
                    "midi": 62,
                    "time": 119.54999999999735,
                    "velocity": 0.07874015748031496,
                    "duration": 0.07000000000000739
                },
                {
                    "name": "F#4",
                    "midi": 66,
                    "time": 119.62249999999736,
                    "velocity": 0.41732283464566927,
                    "duration": 0.07750000000000057
                },
                {
                    "name": "G#3",
                    "midi": 56,
                    "time": 119.83999999999733,
                    "velocity": 0.5196850393700787,
                    "duration": 0.06749999999998124
                },
                {
                    "name": "B4",
                    "midi": 71,
                    "time": 119.85499999999733,
                    "velocity": 0.4645669291338583,
                    "duration": 0.12249999999998806
                },
                {
                    "name": "D4",
                    "midi": 62,
                    "time": 119.86499999999734,
                    "velocity": 0.4251968503937008,
                    "duration": 0.0999999999999801
                },
                {
                    "name": "F#4",
                    "midi": 66,
                    "time": 119.87749999999733,
                    "velocity": 0.15748031496062992,
                    "duration": 0.044999999999987494
                },
                {
                    "name": "C#5",
                    "midi": 73,
                    "time": 120.10249999999732,
                    "velocity": 0.4409448818897638,
                    "duration": 0.03499999999999659
                },
                {
                    "name": "A#4",
                    "midi": 70,
                    "time": 120.29999999999731,
                    "velocity": 0.5590551181102362,
                    "duration": 0.5149999999999295
                },
                {
                    "name": "D5",
                    "midi": 74,
                    "time": 120.3349999999973,
                    "velocity": 0.31496062992125984,
                    "duration": 0.21249999999996305
                },
                {
                    "name": "B4",
                    "midi": 71,
                    "time": 120.3824999999973,
                    "velocity": 0.10236220472440945,
                    "duration": 0.044999999999973284
                },
                {
                    "name": "F#4",
                    "midi": 66,
                    "time": 120.43499999999726,
                    "velocity": 0.33858267716535434,
                    "duration": 0.10500000000000398
                },
                {
                    "name": "F#5",
                    "midi": 78,
                    "time": 120.55249999999725,
                    "velocity": 0.4251968503937008,
                    "duration": 0.23499999999998522
                },
                {
                    "name": "G#4",
                    "midi": 68,
                    "time": 120.77249999999724,
                    "velocity": 0.5433070866141733,
                    "duration": 0.10999999999998522
                },
                {
                    "name": "B5",
                    "midi": 83,
                    "time": 120.78249999999724,
                    "velocity": 0.5039370078740157,
                    "duration": 0.12749999999998352
                },
                {
                    "name": "D5",
                    "midi": 74,
                    "time": 120.79499999999723,
                    "velocity": 0.4566929133858268,
                    "duration": 0.09749999999999659
                },
                {
                    "name": "F#5",
                    "midi": 78,
                    "time": 120.80499999999724,
                    "velocity": 0.2283464566929134,
                    "duration": 0.11249999999998295
                },
                {
                    "name": "C#6",
                    "midi": 85,
                    "time": 121.00999999999722,
                    "velocity": 0.5354330708661418,
                    "duration": 0.07250000000000512
                },
                {
                    "name": "A#5",
                    "midi": 82,
                    "time": 121.20749999999721,
                    "velocity": 0.5984251968503937,
                    "duration": 0.0649999999999693
                },
                {
                    "name": "A#4",
                    "midi": 70,
                    "time": 121.2149999999972,
                    "velocity": 0.44881889763779526,
                    "duration": 0.037499999999980105
                },
                {
                    "name": "D6",
                    "midi": 86,
                    "time": 121.2199999999972,
                    "velocity": 0.5433070866141733,
                    "duration": 0.1074999999999875
                },
                {
                    "name": "F#5",
                    "midi": 78,
                    "time": 121.35749999999719,
                    "velocity": 0.4015748031496063,
                    "duration": 0.1075000000000017
                },
                {
                    "name": "F#6",
                    "midi": 90,
                    "time": 121.47749999999719,
                    "velocity": 0.41732283464566927,
                    "duration": 0.037499999999994316
                },
                {
                    "name": "G#4",
                    "midi": 68,
                    "time": 121.48499999999719,
                    "velocity": 0.4330708661417323,
                    "duration": 0.0899999999999892
                },
                {
                    "name": "G#5",
                    "midi": 80,
                    "time": 121.53749999999718,
                    "velocity": 0.13385826771653545,
                    "duration": 0.037499999999994316
                },
                {
                    "name": "G4",
                    "midi": 67,
                    "time": 121.76249999999715,
                    "velocity": 0.44881889763779526,
                    "duration": 0.04250000000000398
                },
                {
                    "name": "D7",
                    "midi": 98,
                    "time": 121.77999999999714,
                    "velocity": 0.3228346456692913,
                    "duration": 0.05000000000001137
                },
                {
                    "name": "B6",
                    "midi": 95,
                    "time": 121.84749999999715,
                    "velocity": 0.4251968503937008,
                    "duration": 0.10250000000000625
                },
                {
                    "name": "G6",
                    "midi": 91,
                    "time": 121.93749999999716,
                    "velocity": 0.3937007874015748,
                    "duration": 0.04749999999999943
                },
                {
                    "name": "D5",
                    "midi": 74,
                    "time": 122.01499999999716,
                    "velocity": 0.3228346456692913,
                    "duration": 0.052500000000009095
                },
                {
                    "name": "D6",
                    "midi": 86,
                    "time": 122.01499999999716,
                    "velocity": 0.47244094488188976,
                    "duration": 0.04000000000000625
                },
                {
                    "name": "B5",
                    "midi": 83,
                    "time": 122.14749999999717,
                    "velocity": 0.2677165354330709,
                    "duration": 0.08750000000000568
                },
                {
                    "name": "G5",
                    "midi": 79,
                    "time": 122.23999999999717,
                    "velocity": 0.33858267716535434,
                    "duration": 0.04250000000000398
                },
                {
                    "name": "D5",
                    "midi": 74,
                    "time": 122.31749999999717,
                    "velocity": 0.33070866141732286,
                    "duration": 0.052499999999994884
                },
                {
                    "name": "G5",
                    "midi": 79,
                    "time": 122.39999999999716,
                    "velocity": 0.3228346456692913,
                    "duration": 0.04749999999999943
                },
                {
                    "name": "B5",
                    "midi": 83,
                    "time": 122.43999999999717,
                    "velocity": 0.4881889763779528,
                    "duration": 0.03999999999999204
                },
                {
                    "name": "B5",
                    "midi": 83,
                    "time": 122.56749999999717,
                    "velocity": 0.15748031496062992,
                    "duration": 0.052499999999994884
                },
                {
                    "name": "D5",
                    "midi": 74,
                    "time": 122.58499999999717,
                    "velocity": 0.4645669291338583,
                    "duration": 0.04999999999999716
                },
                {
                    "name": "D6",
                    "midi": 86,
                    "time": 122.62249999999716,
                    "velocity": 0.11023622047244094,
                    "duration": 0.07500000000000284
                },
                {
                    "name": "G6",
                    "midi": 91,
                    "time": 122.66749999999716,
                    "velocity": 0.36220472440944884,
                    "duration": 0.06749999999999545
                },
                {
                    "name": "B6",
                    "midi": 95,
                    "time": 122.71499999999716,
                    "velocity": 0.3779527559055118,
                    "duration": 0.05999999999998806
                },
                {
                    "name": "D#7",
                    "midi": 99,
                    "time": 122.80499999999714,
                    "velocity": 0.5039370078740157,
                    "duration": 0.13999999999997215
                },
                {
                    "name": "C4",
                    "midi": 60,
                    "time": 122.84999999999714,
                    "velocity": 0.15748031496062992,
                    "duration": 0.04249999999997556
                },
                {
                    "name": "A#6",
                    "midi": 94,
                    "time": 122.95999999999711,
                    "velocity": 0.3543307086614173,
                    "duration": 0.11499999999999488
                },
                {
                    "name": "D#5",
                    "midi": 75,
                    "time": 123.0899999999971,
                    "velocity": 0.4015748031496063,
                    "duration": 0.0975000000000108
                },
                {
                    "name": "F#6",
                    "midi": 90,
                    "time": 123.11499999999711,
                    "velocity": 0.3700787401574803,
                    "duration": 0.11750000000000682
                },
                {
                    "name": "D#6",
                    "midi": 87,
                    "time": 123.25249999999711,
                    "velocity": 0.2440944881889764,
                    "duration": 0.03249999999999886
                },
                {
                    "name": "F7",
                    "midi": 101,
                    "time": 123.3549999999971,
                    "velocity": 0.5433070866141733,
                    "duration": 0.09999999999999432
                },
                {
                    "name": "A#6",
                    "midi": 94,
                    "time": 123.5074999999971,
                    "velocity": 0.33858267716535434,
                    "duration": 0.04250000000000398
                },
                {
                    "name": "F4",
                    "midi": 65,
                    "time": 123.6249999999971,
                    "velocity": 0.29133858267716534,
                    "duration": 0.04000000000000625
                },
                {
                    "name": "F#6",
                    "midi": 90,
                    "time": 123.67499999999711,
                    "velocity": 0.15748031496062992,
                    "duration": 0.06999999999999318
                },
                {
                    "name": "F6",
                    "midi": 89,
                    "time": 123.74249999999711,
                    "velocity": 0.44881889763779526,
                    "duration": 0.06249999999998579
                },
                {
                    "name": "D7",
                    "midi": 98,
                    "time": 123.8499999999971,
                    "velocity": 0.48031496062992124,
                    "duration": 0.0999999999999801
                },
                {
                    "name": "G3",
                    "midi": 55,
                    "time": 123.85999999999709,
                    "velocity": 0.5118110236220472,
                    "duration": 0.04249999999998977
                },
                {
                    "name": "B6",
                    "midi": 95,
                    "time": 123.94249999999708,
                    "velocity": 0.4251968503937008,
                    "duration": 0.08249999999999602
                },
                {
                    "name": "D6",
                    "midi": 86,
                    "time": 124.08499999999708,
                    "velocity": 0.44881889763779526,
                    "duration": 0.04000000000000625
                },
                {
                    "name": "D4",
                    "midi": 62,
                    "time": 124.13499999999709,
                    "velocity": 0.13385826771653545,
                    "duration": 0.04749999999999943
                },
                {
                    "name": "B5",
                    "midi": 83,
                    "time": 124.1949999999971,
                    "velocity": 0.4566929133858268,
                    "duration": 0.12000000000000455
                },
                {
                    "name": "G5",
                    "midi": 79,
                    "time": 124.3049999999971,
                    "velocity": 0.44881889763779526,
                    "duration": 0.05750000000000455
                },
                {
                    "name": "D5",
                    "midi": 74,
                    "time": 124.3949999999971,
                    "velocity": 0.41732283464566927,
                    "duration": 0.037499999999994316
                },
                {
                    "name": "B4",
                    "midi": 71,
                    "time": 124.49999999999709,
                    "velocity": 0.4566929133858268,
                    "duration": 0.10999999999999943
                },
                {
                    "name": "G4",
                    "midi": 67,
                    "time": 124.61249999999708,
                    "velocity": 0.3779527559055118,
                    "duration": 0.04249999999998977
                },
                {
                    "name": "G3",
                    "midi": 55,
                    "time": 124.61499999999708,
                    "velocity": 0.4566929133858268,
                    "duration": 0.03499999999999659
                },
                {
                    "name": "D4",
                    "midi": 62,
                    "time": 124.67999999999708,
                    "velocity": 0.4094488188976378,
                    "duration": 0.09250000000000114
                },
                {
                    "name": "G4",
                    "midi": 67,
                    "time": 124.79999999999708,
                    "velocity": 0.10236220472440945,
                    "duration": 0.10250000000000625
                },
                {
                    "name": "B4",
                    "midi": 71,
                    "time": 124.82999999999709,
                    "velocity": 0.41732283464566927,
                    "duration": 0.10499999999998977
                },
                {
                    "name": "C3",
                    "midi": 48,
                    "time": 124.92249999999709,
                    "velocity": 0.5196850393700787,
                    "duration": 0.12249999999997385
                },
                {
                    "name": "D#5",
                    "midi": 75,
                    "time": 124.92999999999708,
                    "velocity": 0.49606299212598426,
                    "duration": 0.14249999999998408
                },
                {
                    "name": "A#4",
                    "midi": 70,
                    "time": 125.06999999999707,
                    "velocity": 0.41732283464566927,
                    "duration": 0.1524999999999892
                },
                {
                    "name": "A#3",
                    "midi": 58,
                    "time": 125.21499999999706,
                    "velocity": 0.3228346456692913,
                    "duration": 0.22249999999998238
                },
                {
                    "name": "F#4",
                    "midi": 66,
                    "time": 125.22499999999705,
                    "velocity": 0.3700787401574803,
                    "duration": 0.1074999999999875
                },
                {
                    "name": "F3",
                    "midi": 53,
                    "time": 125.22999999999705,
                    "velocity": 0.3779527559055118,
                    "duration": 0.20749999999999602
                },
                {
                    "name": "F#3",
                    "midi": 54,
                    "time": 125.23749999999704,
                    "velocity": 0.30708661417322836,
                    "duration": 0.20000000000000284
                },
                {
                    "name": "D#4",
                    "midi": 63,
                    "time": 125.33499999999704,
                    "velocity": 0.3543307086614173,
                    "duration": 0.0625
                },
                {
                    "name": "F5",
                    "midi": 77,
                    "time": 125.48249999999705,
                    "velocity": 0.41732283464566927,
                    "duration": 0.125
                },
                {
                    "name": "A#4",
                    "midi": 70,
                    "time": 125.61249999999704,
                    "velocity": 0.29133858267716534,
                    "duration": 0.125
                },
                {
                    "name": "D#3",
                    "midi": 51,
                    "time": 125.67499999999704,
                    "velocity": 0.3858267716535433,
                    "duration": 0.08249999999999602
                },
                {
                    "name": "F#4",
                    "midi": 66,
                    "time": 125.72499999999704,
                    "velocity": 0.25196850393700787,
                    "duration": 0.10249999999999204
                },
                {
                    "name": "F4",
                    "midi": 65,
                    "time": 125.83999999999703,
                    "velocity": 0.3858267716535433,
                    "duration": 0.06499999999999773
                },
                {
                    "name": "G2",
                    "midi": 43,
                    "time": 125.93499999999702,
                    "velocity": 0.4645669291338583,
                    "duration": 0.08499999999997954
                },
                {
                    "name": "D5",
                    "midi": 74,
                    "time": 125.94249999999701,
                    "velocity": 0.4330708661417323,
                    "duration": 0.09499999999998465
                },
                {
                    "name": "B4",
                    "midi": 71,
                    "time": 126.024999999997,
                    "velocity": 0.4094488188976378,
                    "duration": 0.11249999999999716
                },
                {
                    "name": "G4",
                    "midi": 67,
                    "time": 126.13749999999699,
                    "velocity": 0.31496062992125984,
                    "duration": 0.04250000000000398
                },
                {
                    "name": "G3",
                    "midi": 55,
                    "time": 126.194999999997,
                    "velocity": 0.33070866141732286,
                    "duration": 0.06499999999999773
                },
                {
                    "name": "D3",
                    "midi": 50,
                    "time": 126.21499999999699,
                    "velocity": 0.2992125984251969,
                    "duration": 0.06749999999999545
                },
                {
                    "name": "D4",
                    "midi": 62,
                    "time": 126.23249999999699,
                    "velocity": 0.1889763779527559,
                    "duration": 0.04250000000000398
                },
                {
                    "name": "B3",
                    "midi": 59,
                    "time": 126.32749999999699,
                    "velocity": 0.36220472440944884,
                    "duration": 0.11249999999999716
                },
                {
                    "name": "G3",
                    "midi": 55,
                    "time": 126.44999999999699,
                    "velocity": 0.4251968503937008,
                    "duration": 0.09999999999999432
                },
                {
                    "name": "D3",
                    "midi": 50,
                    "time": 126.59499999999699,
                    "velocity": 0.36220472440944884,
                    "duration": 0.15000000000000568
                },
                {
                    "name": "G3",
                    "midi": 55,
                    "time": 126.73249999999699,
                    "velocity": 0.3228346456692913,
                    "duration": 0.18500000000000227
                },
                {
                    "name": "B3",
                    "midi": 59,
                    "time": 126.90749999999699,
                    "velocity": 0.33070866141732286,
                    "duration": 0.14000000000000057
                },
                {
                    "name": "D4",
                    "midi": 62,
                    "time": 127.04999999999698,
                    "velocity": 0.3858267716535433,
                    "duration": 0.06749999999999545
                },
                {
                    "name": "A#3",
                    "midi": 58,
                    "time": 127.19999999999698,
                    "velocity": 0.4015748031496063,
                    "duration": 0.08249999999999602
                },
                {
                    "name": "B3",
                    "midi": 59,
                    "time": 127.29499999999697,
                    "velocity": 0.18110236220472442,
                    "duration": 0.03249999999999886
                },
                {
                    "name": "C#4",
                    "midi": 61,
                    "time": 127.39249999999697,
                    "velocity": 0.3858267716535433,
                    "duration": 0.04250000000000398
                },
                {
                    "name": "F#4",
                    "midi": 66,
                    "time": 127.54249999999696,
                    "velocity": 0.4251968503937008,
                    "duration": 0.07500000000000284
                },
                {
                    "name": "G4",
                    "midi": 67,
                    "time": 127.61249999999697,
                    "velocity": 0.29133858267716534,
                    "duration": 0.04249999999998977
                },
                {
                    "name": "A4",
                    "midi": 69,
                    "time": 127.67999999999697,
                    "velocity": 0.15748031496062992,
                    "duration": 0.04999999999999716
                },
                {
                    "name": "B4",
                    "midi": 71,
                    "time": 127.73249999999696,
                    "velocity": 0.4251968503937008,
                    "duration": 0.03499999999999659
                },
                {
                    "name": "C#5",
                    "midi": 73,
                    "time": 127.81499999999696,
                    "velocity": 0.5039370078740157,
                    "duration": 0.08499999999999375
                },
                {
                    "name": "F#5",
                    "midi": 78,
                    "time": 127.94749999999695,
                    "velocity": 0.4330708661417323,
                    "duration": 0.1074999999999875
                },
                {
                    "name": "G5",
                    "midi": 79,
                    "time": 128.04499999999695,
                    "velocity": 0.5275590551181102,
                    "duration": 0.03499999999999659
                },
                {
                    "name": "A#5",
                    "midi": 82,
                    "time": 128.14749999999694,
                    "velocity": 0.4015748031496063,
                    "duration": 0.07749999999998636
                },
                {
                    "name": "B5",
                    "midi": 83,
                    "time": 128.22499999999692,
                    "velocity": 0.4330708661417323,
                    "duration": 0.03249999999999886
                },
                {
                    "name": "C#6",
                    "midi": 85,
                    "time": 128.31999999999692,
                    "velocity": 0.44881889763779526,
                    "duration": 0.3050000000000068
                },
                {
                    "name": "D6",
                    "midi": 86,
                    "time": 128.6449999999969,
                    "velocity": 0.4409448818897638,
                    "duration": 0.1974999999999909
                },
                {
                    "name": "D#4",
                    "midi": 63,
                    "time": 128.7074999999969,
                    "velocity": 0.15748031496062992,
                    "duration": 0.037499999999994316
                },
                {
                    "name": "G5",
                    "midi": 79,
                    "time": 128.9074999999969,
                    "velocity": 0.10236220472440945,
                    "duration": 0.11000000000001364
                },
                {
                    "name": "F5",
                    "midi": 77,
                    "time": 129.04499999999692,
                    "velocity": 0.25196850393700787,
                    "duration": 0.04999999999998295
                },
                {
                    "name": "F4",
                    "midi": 65,
                    "time": 129.0874999999969,
                    "velocity": 0.2283464566929134,
                    "duration": 0.4674999999999443
                },
                {
                    "name": "D5",
                    "midi": 74,
                    "time": 129.14249999999691,
                    "velocity": 0.31496062992125984,
                    "duration": 0.052500000000009095
                },
                {
                    "name": "C#6",
                    "midi": 85,
                    "time": 129.22499999999692,
                    "velocity": 0.3858267716535433,
                    "duration": 0.09499999999999886
                },
                {
                    "name": "G5",
                    "midi": 79,
                    "time": 129.3349999999969,
                    "velocity": 0.3543307086614173,
                    "duration": 0.05999999999997385
                },
                {
                    "name": "B4",
                    "midi": 71,
                    "time": 129.3899999999969,
                    "velocity": 0.2283464566929134,
                    "duration": 0.05999999999997385
                },
                {
                    "name": "F5",
                    "midi": 77,
                    "time": 129.43499999999688,
                    "velocity": 0.2677165354330709,
                    "duration": 0.04999999999998295
                },
                {
                    "name": "C#5",
                    "midi": 73,
                    "time": 129.51499999999686,
                    "velocity": 0.2992125984251969,
                    "duration": 0.037499999999994316
                },
                {
                    "name": "C#5",
                    "midi": 73,
                    "time": 129.62499999999685,
                    "velocity": 0.3228346456692913,
                    "duration": 0.10999999999998522
                },
                {
                    "name": "G5",
                    "midi": 79,
                    "time": 129.64499999999686,
                    "velocity": 0.48031496062992124,
                    "duration": 0.12749999999994088
                },
                {
                    "name": "F5",
                    "midi": 77,
                    "time": 129.7574999999968,
                    "velocity": 0.2992125984251969,
                    "duration": 0.06749999999999545
                },
                {
                    "name": "G4",
                    "midi": 67,
                    "time": 129.9174999999968,
                    "velocity": 0.15748031496062992,
                    "duration": 0.06999999999999318
                },
                {
                    "name": "G#5",
                    "midi": 80,
                    "time": 130.0624999999968,
                    "velocity": 0.3700787401574803,
                    "duration": 0.17000000000001592
                },
                {
                    "name": "F5",
                    "midi": 77,
                    "time": 130.1824999999968,
                    "velocity": 0.2992125984251969,
                    "duration": 0.09250000000000114
                },
                {
                    "name": "B4",
                    "midi": 71,
                    "time": 130.2824999999968,
                    "velocity": 0.1889763779527559,
                    "duration": 0.05750000000000455
                },
                {
                    "name": "G#4",
                    "midi": 68,
                    "time": 130.3724999999968,
                    "velocity": 0.3779527559055118,
                    "duration": 0.06999999999999318
                },
                {
                    "name": "C#4",
                    "midi": 61,
                    "time": 130.53499999999678,
                    "velocity": 0.2677165354330709,
                    "duration": 0.26999999999992497
                },
                {
                    "name": "B5",
                    "midi": 83,
                    "time": 130.54999999999677,
                    "velocity": 0.4881889763779528,
                    "duration": 0.13249999999993634
                },
                {
                    "name": "G5",
                    "midi": 79,
                    "time": 130.65999999999673,
                    "velocity": 0.33858267716535434,
                    "duration": 0.11249999999998295
                },
                {
                    "name": "E5",
                    "midi": 76,
                    "time": 130.7849999999967,
                    "velocity": 0.1889763779527559,
                    "duration": 0.04750000000001364
                },
                {
                    "name": "B4",
                    "midi": 71,
                    "time": 130.8649999999967,
                    "velocity": 0.3858267716535433,
                    "duration": 0.05249999999998067
                },
                {
                    "name": "E4",
                    "midi": 64,
                    "time": 130.8749999999967,
                    "velocity": 0.23622047244094488,
                    "duration": 0.12999999999999545
                },
                {
                    "name": "D#5",
                    "midi": 75,
                    "time": 130.9999999999967,
                    "velocity": 0.3937007874015748,
                    "duration": 0.11750000000000682
                },
                {
                    "name": "G4",
                    "midi": 67,
                    "time": 131.0074999999967,
                    "velocity": 0.25984251968503935,
                    "duration": 0.3375000000000057
                },
                {
                    "name": "B4",
                    "midi": 71,
                    "time": 131.13749999999672,
                    "velocity": 0.13385826771653545,
                    "duration": 0.19499999999999318
                },
                {
                    "name": "E5",
                    "midi": 76,
                    "time": 131.1474999999967,
                    "velocity": 0.25984251968503935,
                    "duration": 0.09250000000000114
                },
                {
                    "name": "F#5",
                    "midi": 78,
                    "time": 131.3099999999967,
                    "velocity": 0.4645669291338583,
                    "duration": 0.06499999999999773
                },
                {
                    "name": "E5",
                    "midi": 76,
                    "time": 131.3749999999967,
                    "velocity": 0.2440944881889764,
                    "duration": 0.0625
                },
                {
                    "name": "G5",
                    "midi": 79,
                    "time": 131.4349999999967,
                    "velocity": 0.4251968503937008,
                    "duration": 0.09749999999999659
                },
                {
                    "name": "G#5",
                    "midi": 80,
                    "time": 131.5274999999967,
                    "velocity": 0.4566929133858268,
                    "duration": 0.16249999999999432
                },
                {
                    "name": "A5",
                    "midi": 81,
                    "time": 131.6299999999967,
                    "velocity": 0.4645669291338583,
                    "duration": 0.09499999999999886
                },
                {
                    "name": "A#5",
                    "midi": 82,
                    "time": 131.7224999999967,
                    "velocity": 0.5275590551181102,
                    "duration": 0.07499999999998863
                },
                {
                    "name": "B4",
                    "midi": 71,
                    "time": 131.7824999999967,
                    "velocity": 0.2992125984251969,
                    "duration": 0.10499999999996135
                },
                {
                    "name": "B5",
                    "midi": 83,
                    "time": 131.87499999999667,
                    "velocity": 0.2440944881889764,
                    "duration": 0.09250000000000114
                },
                {
                    "name": "E6",
                    "midi": 88,
                    "time": 131.99999999999667,
                    "velocity": 0.3937007874015748,
                    "duration": 0.052500000000009095
                },
                {
                    "name": "D#6",
                    "midi": 87,
                    "time": 132.06499999999667,
                    "velocity": 0.3228346456692913,
                    "duration": 0.12250000000000227
                },
                {
                    "name": "D6",
                    "midi": 86,
                    "time": 132.17999999999668,
                    "velocity": 0.4251968503937008,
                    "duration": 0.06499999999999773
                },
                {
                    "name": "C#4",
                    "midi": 61,
                    "time": 132.36999999999668,
                    "velocity": 0.3858267716535433,
                    "duration": 0.6774999999999523
                },
                {
                    "name": "D6",
                    "midi": 86,
                    "time": 132.38499999999667,
                    "velocity": 0.48031496062992124,
                    "duration": 0.14249999999995566
                },
                {
                    "name": "G5",
                    "midi": 79,
                    "time": 132.55499999999662,
                    "velocity": 0.2047244094488189,
                    "duration": 0.08250000000001023
                },
                {
                    "name": "F5",
                    "midi": 77,
                    "time": 132.65499999999665,
                    "velocity": 0.2755905511811024,
                    "duration": 0.06999999999999318
                },
                {
                    "name": "F4",
                    "midi": 65,
                    "time": 132.78249999999665,
                    "velocity": 0.1968503937007874,
                    "duration": 0.42499999999998295
                },
                {
                    "name": "D5",
                    "midi": 74,
                    "time": 132.79749999999663,
                    "velocity": 0.25984251968503935,
                    "duration": 0.045000000000015916
                },
                {
                    "name": "C#6",
                    "midi": 85,
                    "time": 132.81999999999664,
                    "velocity": 0.33858267716535434,
                    "duration": 0.11000000000001364
                },
                {
                    "name": "G5",
                    "midi": 79,
                    "time": 132.91249999999664,
                    "velocity": 0.33858267716535434,
                    "duration": 0.1174999999999784
                },
                {
                    "name": "F5",
                    "midi": 77,
                    "time": 133.00499999999664,
                    "velocity": 0.3937007874015748,
                    "duration": 0.07499999999998863
                },
                {
                    "name": "B4",
                    "midi": 71,
                    "time": 133.01749999999663,
                    "velocity": 0.31496062992125984,
                    "duration": 0.05750000000000455
                },
                {
                    "name": "C#5",
                    "midi": 73,
                    "time": 133.08999999999662,
                    "velocity": 0.3779527559055118,
                    "duration": 0.05000000000001137
                },
                {
                    "name": "C#5",
                    "midi": 73,
                    "time": 133.22999999999664,
                    "velocity": 0.29133858267716534,
                    "duration": 0.08500000000000796
                },
                {
                    "name": "G5",
                    "midi": 79,
                    "time": 133.23249999999663,
                    "velocity": 0.5354330708661418,
                    "duration": 0.12749999999999773
                },
                {
                    "name": "F5",
                    "midi": 77,
                    "time": 133.35749999999663,
                    "velocity": 0.33858267716535434,
                    "duration": 0.12000000000000455
                },
                {
                    "name": "G4",
                    "midi": 67,
                    "time": 133.50999999999664,
                    "velocity": 0.2755905511811024,
                    "duration": 0.0800000000000125
                },
                {
                    "name": "G#5",
                    "midi": 80,
                    "time": 133.64499999999666,
                    "velocity": 0.47244094488188976,
                    "duration": 0.1525000000000034
                },
                {
                    "name": "F4",
                    "midi": 65,
                    "time": 133.68499999999665,
                    "velocity": 0.25984251968503935,
                    "duration": 0.05500000000000682
                },
                {
                    "name": "F5",
                    "midi": 77,
                    "time": 133.74499999999665,
                    "velocity": 0.41732283464566927,
                    "duration": 0.09250000000000114
                },
                {
                    "name": "B4",
                    "midi": 71,
                    "time": 133.82749999999666,
                    "velocity": 0.2204724409448819,
                    "duration": 0.06749999999999545
                },
                {
                    "name": "G#4",
                    "midi": 68,
                    "time": 133.92499999999666,
                    "velocity": 0.36220472440944884,
                    "duration": 0.0724999999999909
                },
                {
                    "name": "C#4",
                    "midi": 61,
                    "time": 134.08499999999665,
                    "velocity": 0.3858267716535433,
                    "duration": 0.24999999999997158
                },
                {
                    "name": "B5",
                    "midi": 83,
                    "time": 134.08749999999665,
                    "velocity": 0.5826771653543307,
                    "duration": 0.14749999999997954
                },
                {
                    "name": "G5",
                    "midi": 79,
                    "time": 134.18749999999665,
                    "velocity": 0.3858267716535433,
                    "duration": 0.1074999999999875
                },
                {
                    "name": "E5",
                    "midi": 76,
                    "time": 134.28499999999664,
                    "velocity": 0.36220472440944884,
                    "duration": 0.044999999999987494
                },
                {
                    "name": "E4",
                    "midi": 64,
                    "time": 134.39999999999662,
                    "velocity": 0.28346456692913385,
                    "duration": 0.16749999999998977
                },
                {
                    "name": "B4",
                    "midi": 71,
                    "time": 134.39999999999662,
                    "velocity": 0.4015748031496063,
                    "duration": 0.03499999999999659
                },
                {
                    "name": "D#5",
                    "midi": 75,
                    "time": 134.48749999999663,
                    "velocity": 0.4251968503937008,
                    "duration": 0.1074999999999875
                },
                {
                    "name": "G4",
                    "midi": 67,
                    "time": 134.52499999999662,
                    "velocity": 0.3464566929133858,
                    "duration": 0.3474999999999966
                },
                {
                    "name": "E5",
                    "midi": 76,
                    "time": 134.61499999999663,
                    "velocity": 0.4409448818897638,
                    "duration": 0.09999999999999432
                },
                {
                    "name": "B4",
                    "midi": 71,
                    "time": 134.70499999999663,
                    "velocity": 0.3858267716535433,
                    "duration": 0.1799999999999784
                },
                {
                    "name": "F5",
                    "midi": 77,
                    "time": 134.71499999999662,
                    "velocity": 0.3700787401574803,
                    "duration": 0.09499999999999886
                },
                {
                    "name": "F#5",
                    "midi": 78,
                    "time": 134.77999999999662,
                    "velocity": 0.48031496062992124,
                    "duration": 0.08500000000000796
                },
                {
                    "name": "E5",
                    "midi": 76,
                    "time": 134.8974999999966,
                    "velocity": 0.41732283464566927,
                    "duration": 0.09749999999999659
                },
                {
                    "name": "G5",
                    "midi": 79,
                    "time": 134.9024999999966,
                    "velocity": 0.4409448818897638,
                    "duration": 0.10249999999999204
                },
                {
                    "name": "G#5",
                    "midi": 80,
                    "time": 134.9974999999966,
                    "velocity": 0.5275590551181102,
                    "duration": 0.1449999999999818
                },
                {
                    "name": "A5",
                    "midi": 81,
                    "time": 135.09999999999658,
                    "velocity": 0.4645669291338583,
                    "duration": 0.08749999999997726
                },
                {
                    "name": "A#5",
                    "midi": 82,
                    "time": 135.18499999999656,
                    "velocity": 0.5354330708661418,
                    "duration": 0.08750000000000568
                },
                {
                    "name": "B4",
                    "midi": 71,
                    "time": 135.30499999999657,
                    "velocity": 0.33858267716535434,
                    "duration": 0.10000000000002274
                },
                {
                    "name": "B5",
                    "midi": 83,
                    "time": 135.32499999999658,
                    "velocity": 0.47244094488188976,
                    "duration": 0.09750000000002501
                },
                {
                    "name": "E6",
                    "midi": 88,
                    "time": 135.43999999999662,
                    "velocity": 0.4566929133858268,
                    "duration": 0.10499999999998977
                },
                {
                    "name": "D#6",
                    "midi": 87,
                    "time": 135.53499999999661,
                    "velocity": 0.4251968503937008,
                    "duration": 0.12000000000000455
                },
                {
                    "name": "D6",
                    "midi": 86,
                    "time": 135.6649999999966,
                    "velocity": 0.4251968503937008,
                    "duration": 0.05000000000001137
                },
                {
                    "name": "C#3",
                    "midi": 49,
                    "time": 135.84749999999661,
                    "velocity": 0.3779527559055118,
                    "duration": 0.46499999999991815
                },
                {
                    "name": "D6",
                    "midi": 86,
                    "time": 135.8674999999966,
                    "velocity": 0.4015748031496063,
                    "duration": 0.12999999999996703
                },
                {
                    "name": "B5",
                    "midi": 83,
                    "time": 136.00999999999655,
                    "velocity": 0.30708661417322836,
                    "duration": 0.10499999999998977
                },
                {
                    "name": "F5",
                    "midi": 77,
                    "time": 136.12999999999653,
                    "velocity": 0.11811023622047244,
                    "duration": 0.052500000000009095
                },
                {
                    "name": "D5",
                    "midi": 74,
                    "time": 136.19999999999655,
                    "velocity": 0.3700787401574803,
                    "duration": 0.0724999999999909
                },
                {
                    "name": "C#6",
                    "midi": 85,
                    "time": 136.27999999999653,
                    "velocity": 0.4330708661417323,
                    "duration": 0.14500000000001023
                },
                {
                    "name": "C#4",
                    "midi": 61,
                    "time": 136.45249999999655,
                    "velocity": 0.2677165354330709,
                    "duration": 0.0625
                },
                {
                    "name": "C#5",
                    "midi": 73,
                    "time": 136.56749999999656,
                    "velocity": 0.16535433070866143,
                    "duration": 0.04750000000001364
                },
                {
                    "name": "E4",
                    "midi": 64,
                    "time": 136.70499999999657,
                    "velocity": 0.30708661417322836,
                    "duration": 0.07999999999998408
                },
                {
                    "name": "F4",
                    "midi": 65,
                    "time": 136.71499999999656,
                    "velocity": 0.3858267716535433,
                    "duration": 0.07749999999998636
                },
                {
                    "name": "B4",
                    "midi": 71,
                    "time": 136.72499999999656,
                    "velocity": 0.3228346456692913,
                    "duration": 0.04750000000001364
                },
                {
                    "name": "E6",
                    "midi": 88,
                    "time": 136.79999999999654,
                    "velocity": 0.5511811023622047,
                    "duration": 0.030000000000001137
                },
                {
                    "name": "B5",
                    "midi": 83,
                    "time": 136.86499999999654,
                    "velocity": 0.1732283464566929,
                    "duration": 0.10249999999999204
                },
                {
                    "name": "D6",
                    "midi": 86,
                    "time": 137.12249999999653,
                    "velocity": 0.4645669291338583,
                    "duration": 0.11249999999998295
                },
                {
                    "name": "B4",
                    "midi": 71,
                    "time": 137.14749999999654,
                    "velocity": 0.2755905511811024,
                    "duration": 0.04749999999998522
                },
                {
                    "name": "F4",
                    "midi": 65,
                    "time": 137.15499999999653,
                    "velocity": 0.2677165354330709,
                    "duration": 0.044999999999987494
                },
                {
                    "name": "D4",
                    "midi": 62,
                    "time": 137.15499999999653,
                    "velocity": 0.2992125984251969,
                    "duration": 0.0625
                },
                {
                    "name": "B5",
                    "midi": 83,
                    "time": 137.23249999999652,
                    "velocity": 0.41732283464566927,
                    "duration": 0.1150000000000091
                },
                {
                    "name": "F5",
                    "midi": 77,
                    "time": 137.35999999999652,
                    "velocity": 0.13385826771653545,
                    "duration": 0.044999999999987494
                },
                {
                    "name": "C#3",
                    "midi": 49,
                    "time": 137.5149999999965,
                    "velocity": 0.5196850393700787,
                    "duration": 0.09249999999997272
                },
                {
                    "name": "D6",
                    "midi": 86,
                    "time": 137.5324999999965,
                    "velocity": 0.5196850393700787,
                    "duration": 0.13499999999996248
                },
                {
                    "name": "B5",
                    "midi": 83,
                    "time": 137.64999999999645,
                    "velocity": 0.4094488188976378,
                    "duration": 0.10500000000001819
                },
                {
                    "name": "D5",
                    "midi": 74,
                    "time": 137.84749999999647,
                    "velocity": 0.28346456692913385,
                    "duration": 0.052500000000009095
                },
                {
                    "name": "C#6",
                    "midi": 85,
                    "time": 137.94249999999647,
                    "velocity": 0.48031496062992124,
                    "duration": 0.19499999999996476
                },
                {
                    "name": "B4",
                    "midi": 71,
                    "time": 137.96999999999647,
                    "velocity": 0.3464566929133858,
                    "duration": 0.04999999999998295
                },
                {
                    "name": "C#4",
                    "midi": 61,
                    "time": 137.97999999999647,
                    "velocity": 0.2677165354330709,
                    "duration": 0.07999999999998408
                },
                {
                    "name": "F4",
                    "midi": 65,
                    "time": 137.98749999999646,
                    "velocity": 0.10236220472440945,
                    "duration": 0.044999999999987494
                },
                {
                    "name": "B5",
                    "midi": 83,
                    "time": 138.10249999999644,
                    "velocity": 0.33858267716535434,
                    "duration": 0.11249999999998295
                },
                {
                    "name": "C#5",
                    "midi": 73,
                    "time": 138.23749999999643,
                    "velocity": 0.30708661417322836,
                    "duration": 0.06999999999999318
                },
                {
                    "name": "D4",
                    "midi": 62,
                    "time": 138.37249999999642,
                    "velocity": 0.3779527559055118,
                    "duration": 0.12749999999999773
                },
                {
                    "name": "D6",
                    "midi": 86,
                    "time": 138.37749999999642,
                    "velocity": 0.5118110236220472,
                    "duration": 0.1525000000000034
                },
                {
                    "name": "B4",
                    "midi": 71,
                    "time": 138.3899999999964,
                    "velocity": 0.33858267716535434,
                    "duration": 0.05500000000000682
                },
                {
                    "name": "F4",
                    "midi": 65,
                    "time": 138.3949999999964,
                    "velocity": 0.2283464566929134,
                    "duration": 0.08500000000000796
                },
                {
                    "name": "B5",
                    "midi": 83,
                    "time": 138.50499999999641,
                    "velocity": 0.3937007874015748,
                    "duration": 0.14249999999998408
                },
                {
                    "name": "F5",
                    "midi": 77,
                    "time": 138.6049999999964,
                    "velocity": 0.25196850393700787,
                    "duration": 0.06749999999999545
                },
                {
                    "name": "D5",
                    "midi": 74,
                    "time": 138.6849999999964,
                    "velocity": 0.33858267716535434,
                    "duration": 0.05750000000000455
                },
                {
                    "name": "B4",
                    "midi": 71,
                    "time": 138.7949999999964,
                    "velocity": 0.3937007874015748,
                    "duration": 0.044999999999987494
                },
                {
                    "name": "E4",
                    "midi": 64,
                    "time": 138.8049999999964,
                    "velocity": 0.30708661417322836,
                    "duration": 0.052500000000009095
                },
                {
                    "name": "F4",
                    "midi": 65,
                    "time": 138.8049999999964,
                    "velocity": 0.30708661417322836,
                    "duration": 0.052500000000009095
                },
                {
                    "name": "E6",
                    "midi": 88,
                    "time": 138.8124999999964,
                    "velocity": 0.31496062992125984,
                    "duration": 0.09500000000002728
                },
                {
                    "name": "B5",
                    "midi": 83,
                    "time": 138.93999999999642,
                    "velocity": 0.3858267716535433,
                    "duration": 0.125
                },
                {
                    "name": "E5",
                    "midi": 76,
                    "time": 139.1074999999964,
                    "velocity": 0.1732283464566929,
                    "duration": 0.0625
                },
                {
                    "name": "F#3",
                    "midi": 54,
                    "time": 139.20999999999637,
                    "velocity": 0.3937007874015748,
                    "duration": 0.1699999999999875
                },
                {
                    "name": "G6",
                    "midi": 91,
                    "time": 139.24499999999637,
                    "velocity": 0.3543307086614173,
                    "duration": 0.10999999999998522
                },
                {
                    "name": "C#4",
                    "midi": 61,
                    "time": 139.37749999999636,
                    "velocity": 0.25196850393700787,
                    "duration": 0.14749999999997954
                },
                {
                    "name": "A#5",
                    "midi": 82,
                    "time": 139.48749999999634,
                    "velocity": 0.16535433070866143,
                    "duration": 0.05750000000000455
                },
                {
                    "name": "E4",
                    "midi": 64,
                    "time": 139.55749999999634,
                    "velocity": 0.41732283464566927,
                    "duration": 0.08750000000000568
                },
                {
                    "name": "G5",
                    "midi": 79,
                    "time": 139.55999999999634,
                    "velocity": 0.18110236220472442,
                    "duration": 0.044999999999987494
                },
                {
                    "name": "F#6",
                    "midi": 90,
                    "time": 139.62249999999634,
                    "velocity": 0.4645669291338583,
                    "duration": 0.11250000000001137
                },
                {
                    "name": "C6",
                    "midi": 84,
                    "time": 139.74749999999634,
                    "velocity": 0.4015748031496063,
                    "duration": 0.04249999999998977
                },
                {
                    "name": "A#5",
                    "midi": 82,
                    "time": 139.79749999999632,
                    "velocity": 0.3543307086614173,
                    "duration": 0.09000000000000341
                },
                {
                    "name": "A#4",
                    "midi": 70,
                    "time": 139.8074999999963,
                    "velocity": 0.1968503937007874,
                    "duration": 0.10750000000001592
                },
                {
                    "name": "F#5",
                    "midi": 78,
                    "time": 139.90499999999633,
                    "velocity": 0.2992125984251969,
                    "duration": 0.03249999999999886
                },
                {
                    "name": "E5",
                    "midi": 76,
                    "time": 140.00999999999632,
                    "velocity": 0.5039370078740157,
                    "duration": 0.09499999999999886
                },
                {
                    "name": "C6",
                    "midi": 84,
                    "time": 140.01499999999632,
                    "velocity": 0.5984251968503937,
                    "duration": 0.13249999999999318
                },
                {
                    "name": "A#5",
                    "midi": 82,
                    "time": 140.14499999999632,
                    "velocity": 0.41732283464566927,
                    "duration": 0.14249999999998408
                },
                {
                    "name": "C5",
                    "midi": 72,
                    "time": 140.3349999999963,
                    "velocity": 0.3858267716535433,
                    "duration": 0.05000000000001137
                },
                {
                    "name": "A#4",
                    "midi": 70,
                    "time": 140.40999999999633,
                    "velocity": 0.4015748031496063,
                    "duration": 0.06499999999999773
                },
                {
                    "name": "C#6",
                    "midi": 85,
                    "time": 140.42999999999634,
                    "velocity": 0.41732283464566927,
                    "duration": 0.15499999999997272
                },
                {
                    "name": "A#5",
                    "midi": 82,
                    "time": 140.54999999999632,
                    "velocity": 0.3937007874015748,
                    "duration": 0.1349999999999909
                },
                {
                    "name": "E5",
                    "midi": 76,
                    "time": 140.6549999999963,
                    "velocity": 0.2125984251968504,
                    "duration": 0.04750000000001364
                },
                {
                    "name": "C#5",
                    "midi": 73,
                    "time": 140.7124999999963,
                    "velocity": 0.3543307086614173,
                    "duration": 0.0800000000000125
                },
                {
                    "name": "F#3",
                    "midi": 54,
                    "time": 140.81499999999633,
                    "velocity": 0.3543307086614173,
                    "duration": 0.22249999999993975
                },
                {
                    "name": "E6",
                    "midi": 88,
                    "time": 140.84499999999633,
                    "velocity": 0.5748031496062992,
                    "duration": 0.14749999999995111
                },
                {
                    "name": "C4",
                    "midi": 60,
                    "time": 140.9249999999963,
                    "velocity": 0.3700787401574803,
                    "duration": 0.18499999999997385
                },
                {
                    "name": "C6",
                    "midi": 84,
                    "time": 140.96499999999628,
                    "velocity": 0.1732283464566929,
                    "duration": 0.0724999999999909
                },
                {
                    "name": "A5",
                    "midi": 81,
                    "time": 141.04499999999626,
                    "velocity": 0.3779527559055118,
                    "duration": 0.060000000000002274
                },
                {
                    "name": "E4",
                    "midi": 64,
                    "time": 141.07249999999627,
                    "velocity": 0.41732283464566927,
                    "duration": 0.09749999999999659
                },
                {
                    "name": "E5",
                    "midi": 76,
                    "time": 141.13249999999627,
                    "velocity": 0.3858267716535433,
                    "duration": 0.12249999999997385
                },
                {
                    "name": "A4",
                    "midi": 69,
                    "time": 141.20249999999626,
                    "velocity": 0.3543307086614173,
                    "duration": 0.09249999999997272
                },
                {
                    "name": "G#5",
                    "midi": 80,
                    "time": 141.24249999999626,
                    "velocity": 0.4881889763779528,
                    "duration": 0.16749999999998977
                },
                {
                    "name": "C5",
                    "midi": 72,
                    "time": 141.35249999999624,
                    "velocity": 0.36220472440944884,
                    "duration": 0.10249999999999204
                },
                {
                    "name": "A5",
                    "midi": 81,
                    "time": 141.35249999999624,
                    "velocity": 0.4645669291338583,
                    "duration": 0.07749999999998636
                },
                {
                    "name": "A#5",
                    "midi": 82,
                    "time": 141.42249999999623,
                    "velocity": 0.4566929133858268,
                    "duration": 0.0800000000000125
                },
                {
                    "name": "B5",
                    "midi": 83,
                    "time": 141.59999999999624,
                    "velocity": 0.49606299212598426,
                    "duration": 0.060000000000002274
                },
                {
                    "name": "E5",
                    "midi": 76,
                    "time": 141.59999999999624,
                    "velocity": 0.3858267716535433,
                    "duration": 0.012499999999988631
                },
                {
                    "name": "C6",
                    "midi": 84,
                    "time": 141.66499999999624,
                    "velocity": 0.5118110236220472,
                    "duration": 0.09999999999999432
                },
                {
                    "name": "A5",
                    "midi": 81,
                    "time": 141.68499999999625,
                    "velocity": 0.1732283464566929,
                    "duration": 0.060000000000002274
                },
                {
                    "name": "C#6",
                    "midi": 85,
                    "time": 141.75499999999624,
                    "velocity": 0.5118110236220472,
                    "duration": 0.09250000000000114
                },
                {
                    "name": "E5",
                    "midi": 76,
                    "time": 141.79999999999623,
                    "velocity": 0.15748031496062992,
                    "duration": 0.0625
                },
                {
                    "name": "D6",
                    "midi": 86,
                    "time": 141.87249999999622,
                    "velocity": 0.5433070866141733,
                    "duration": 0.08500000000000796
                },
                {
                    "name": "D#6",
                    "midi": 87,
                    "time": 141.99499999999622,
                    "velocity": 0.4566929133858268,
                    "duration": 0.09000000000000341
                },
                {
                    "name": "A4",
                    "midi": 69,
                    "time": 142.10249999999624,
                    "velocity": 0.3858267716535433,
                    "duration": 0.11249999999998295
                },
                {
                    "name": "E6",
                    "midi": 88,
                    "time": 142.13999999999623,
                    "velocity": 0.4094488188976378,
                    "duration": 0.09999999999999432
                },
                {
                    "name": "A6",
                    "midi": 93,
                    "time": 142.26499999999623,
                    "velocity": 0.5511811023622047,
                    "duration": 0.10999999999998522
                },
                {
                    "name": "E4",
                    "midi": 64,
                    "time": 142.27499999999623,
                    "velocity": 0.30708661417322836,
                    "duration": 0.12749999999999773
                },
                {
                    "name": "G#6",
                    "midi": 92,
                    "time": 142.37249999999622,
                    "velocity": 0.4409448818897638,
                    "duration": 0.12250000000000227
                },
                {
                    "name": "C4",
                    "midi": 60,
                    "time": 142.43499999999622,
                    "velocity": 0.41732283464566927,
                    "duration": 0.11000000000001364
                },
                {
                    "name": "F#3",
                    "midi": 54,
                    "time": 142.68499999999622,
                    "velocity": 0.3858267716535433,
                    "duration": 0.12999999999996703
                },
                {
                    "name": "G6",
                    "midi": 91,
                    "time": 142.7049999999962,
                    "velocity": 0.4409448818897638,
                    "duration": 0.12749999999999773
                },
                {
                    "name": "E6",
                    "midi": 88,
                    "time": 142.8149999999962,
                    "velocity": 0.4645669291338583,
                    "duration": 0.10750000000001592
                },
                {
                    "name": "A#5",
                    "midi": 82,
                    "time": 142.9299999999962,
                    "velocity": 0.25984251968503935,
                    "duration": 0.05750000000000455
                },
                {
                    "name": "G5",
                    "midi": 79,
                    "time": 143.0124999999962,
                    "velocity": 0.2677165354330709,
                    "duration": 0.052500000000009095
                },
                {
                    "name": "F#6",
                    "midi": 90,
                    "time": 143.09749999999622,
                    "velocity": 0.49606299212598426,
                    "duration": 0.15500000000000114
                },
                {
                    "name": "E6",
                    "midi": 88,
                    "time": 143.2299999999962,
                    "velocity": 0.3937007874015748,
                    "duration": 0.14000000000001478
                },
                {
                    "name": "A#4",
                    "midi": 70,
                    "time": 143.24749999999622,
                    "velocity": 0.33070866141732286,
                    "duration": 0.06999999999999318
                },
                {
                    "name": "F#4",
                    "midi": 66,
                    "time": 143.2624999999962,
                    "velocity": 0.2125984251968504,
                    "duration": 0.045000000000015916
                },
                {
                    "name": "A#5",
                    "midi": 82,
                    "time": 143.27999999999622,
                    "velocity": 0.18110236220472442,
                    "duration": 0.0724999999999909
                },
                {
                    "name": "E5",
                    "midi": 76,
                    "time": 143.29749999999623,
                    "velocity": 0.18110236220472442,
                    "duration": 0.03999999999999204
                },
                {
                    "name": "F#5",
                    "midi": 78,
                    "time": 143.36999999999622,
                    "velocity": 0.3700787401574803,
                    "duration": 0.10499999999998977
                },
                {
                    "name": "A#4",
                    "midi": 70,
                    "time": 143.4899999999962,
                    "velocity": 0.29133858267716534,
                    "duration": 0.1074999999999875
                },
                {
                    "name": "A4",
                    "midi": 69,
                    "time": 143.4924999999962,
                    "velocity": 0.3700787401574803,
                    "duration": 0.09000000000000341
                },
                {
                    "name": "A6",
                    "midi": 93,
                    "time": 143.50749999999618,
                    "velocity": 0.6220472440944882,
                    "duration": 0.14749999999997954
                },
                {
                    "name": "E5",
                    "midi": 76,
                    "time": 143.50999999999618,
                    "velocity": 0.33070866141732286,
                    "duration": 0.052500000000009095
                },
                {
                    "name": "E6",
                    "midi": 88,
                    "time": 143.63999999999618,
                    "velocity": 0.4330708661417323,
                    "duration": 0.11999999999997613
                },
                {
                    "name": "A5",
                    "midi": 81,
                    "time": 143.82499999999615,
                    "velocity": 0.2755905511811024,
                    "duration": 0.05500000000000682
                },
                {
                    "name": "A#4",
                    "midi": 70,
                    "time": 143.91999999999615,
                    "velocity": 0.1968503937007874,
                    "duration": 0.05999999999997385
                },
                {
                    "name": "E5",
                    "midi": 76,
                    "time": 143.92249999999615,
                    "velocity": 0.31496062992125984,
                    "duration": 0.044999999999987494
                },
                {
                    "name": "G4",
                    "midi": 67,
                    "time": 143.92749999999614,
                    "velocity": 0.4094488188976378,
                    "duration": 0.06249999999997158
                },
                {
                    "name": "G6",
                    "midi": 91,
                    "time": 143.9999999999961,
                    "velocity": 0.4645669291338583,
                    "duration": 0.052500000000009095
                },
                {
                    "name": "E6",
                    "midi": 88,
                    "time": 144.0349999999961,
                    "velocity": 0.4094488188976378,
                    "duration": 0.10500000000001819
                },
                {
                    "name": "A#5",
                    "midi": 82,
                    "time": 144.14249999999612,
                    "velocity": 0.16535433070866143,
                    "duration": 0.05249999999998067
                },
                {
                    "name": "G5",
                    "midi": 79,
                    "time": 144.1849999999961,
                    "velocity": 0.33858267716535434,
                    "duration": 0.0625
                },
                {
                    "name": "F#3",
                    "midi": 54,
                    "time": 144.2824999999961,
                    "velocity": 0.4645669291338583,
                    "duration": 0.4299999999999784
                },
                {
                    "name": "G6",
                    "midi": 91,
                    "time": 144.29999999999612,
                    "velocity": 0.5196850393700787,
                    "duration": 0.13750000000001705
                },
                {
                    "name": "E6",
                    "midi": 88,
                    "time": 144.41249999999613,
                    "velocity": 0.4881889763779528,
                    "duration": 0.09749999999999659
                },
                {
                    "name": "A#5",
                    "midi": 82,
                    "time": 144.53499999999613,
                    "velocity": 0.15748031496062992,
                    "duration": 0.044999999999987494
                },
                {
                    "name": "G5",
                    "midi": 79,
                    "time": 144.60749999999612,
                    "velocity": 0.3858267716535433,
                    "duration": 0.044999999999987494
                },
                {
                    "name": "F#6",
                    "midi": 90,
                    "time": 144.6974999999961,
                    "velocity": 0.5511811023622047,
                    "duration": 0.14999999999997726
                },
                {
                    "name": "F#4",
                    "midi": 66,
                    "time": 144.72749999999607,
                    "velocity": 0.4015748031496063,
                    "duration": 0.13999999999998636
                },
                {
                    "name": "A#4",
                    "midi": 70,
                    "time": 144.74749999999608,
                    "velocity": 0.3228346456692913,
                    "duration": 0.10499999999998977
                },
                {
                    "name": "E6",
                    "midi": 88,
                    "time": 144.83999999999608,
                    "velocity": 0.3858267716535433,
                    "duration": 0.125
                },
                {
                    "name": "A#5",
                    "midi": 82,
                    "time": 144.85999999999606,
                    "velocity": 0.3858267716535433,
                    "duration": 0.08750000000000568
                },
                {
                    "name": "F#5",
                    "midi": 78,
                    "time": 144.96499999999608,
                    "velocity": 0.4330708661417323,
                    "duration": 0.08250000000001023
                },
                {
                    "name": "G4",
                    "midi": 67,
                    "time": 145.1074999999961,
                    "velocity": 0.44881889763779526,
                    "duration": 0.09000000000000341
                },
                {
                    "name": "G6",
                    "midi": 91,
                    "time": 145.1149999999961,
                    "velocity": 0.5826771653543307,
                    "duration": 0.1699999999999875
                },
                {
                    "name": "A#4",
                    "midi": 70,
                    "time": 145.1149999999961,
                    "velocity": 0.2677165354330709,
                    "duration": 0.09000000000000341
                },
                {
                    "name": "E6",
                    "midi": 88,
                    "time": 145.24999999999608,
                    "velocity": 0.4645669291338583,
                    "duration": 0.125
                },
                {
                    "name": "A#5",
                    "midi": 82,
                    "time": 145.34249999999608,
                    "velocity": 0.25984251968503935,
                    "duration": 0.06749999999999545
                },
                {
                    "name": "G5",
                    "midi": 79,
                    "time": 145.43249999999608,
                    "velocity": 0.10236220472440945,
                    "duration": 0.04750000000001364
                },
                {
                    "name": "A6",
                    "midi": 93,
                    "time": 145.5274999999961,
                    "velocity": 0.6220472440944882,
                    "duration": 0.12999999999996703
                },
                {
                    "name": "A#4",
                    "midi": 70,
                    "time": 145.5349999999961,
                    "velocity": 0.29133858267716534,
                    "duration": 0.044999999999987494
                },
                {
                    "name": "A4",
                    "midi": 69,
                    "time": 145.5349999999961,
                    "velocity": 0.4094488188976378,
                    "duration": 0.03999999999999204
                },
                {
                    "name": "E5",
                    "midi": 76,
                    "time": 145.5424999999961,
                    "velocity": 0.2677165354330709,
                    "duration": 0.04249999999998977
                },
                {
                    "name": "E6",
                    "midi": 88,
                    "time": 145.66499999999607,
                    "velocity": 0.4566929133858268,
                    "duration": 0.10249999999999204
                },
                {
                    "name": "A5",
                    "midi": 81,
                    "time": 145.80999999999605,
                    "velocity": 0.3464566929133858,
                    "duration": 0.07499999999998863
                },
                {
                    "name": "G3",
                    "midi": 55,
                    "time": 145.96499999999605,
                    "velocity": 0.5275590551181102,
                    "duration": 0.13499999999993406
                },
                {
                    "name": "C7",
                    "midi": 96,
                    "time": 145.96749999999605,
                    "velocity": 0.5590551181102362,
                    "duration": 0.1199999999999477
                },
                {
                    "name": "F6",
                    "midi": 89,
                    "time": 146.089999999996,
                    "velocity": 0.3543307086614173,
                    "duration": 0.125
                },
                {
                    "name": "C#4",
                    "midi": 61,
                    "time": 146.157499999996,
                    "velocity": 0.3779527559055118,
                    "duration": 0.23750000000001137
                },
                {
                    "name": "C#6",
                    "midi": 85,
                    "time": 146.184999999996,
                    "velocity": 0.3464566929133858,
                    "duration": 0.08250000000001023
                },
                {
                    "name": "C6",
                    "midi": 84,
                    "time": 146.264999999996,
                    "velocity": 0.49606299212598426,
                    "duration": 0.07999999999998408
                },
                {
                    "name": "F4",
                    "midi": 65,
                    "time": 146.399999999996,
                    "velocity": 0.3937007874015748,
                    "duration": 0.1150000000000091
                },
                {
                    "name": "A#6",
                    "midi": 94,
                    "time": 146.399999999996,
                    "velocity": 0.5590551181102362,
                    "duration": 0.10750000000001592
                },
                {
                    "name": "F6",
                    "midi": 89,
                    "time": 146.489999999996,
                    "velocity": 0.3937007874015748,
                    "duration": 0.08750000000000568
                },
                {
                    "name": "A#4",
                    "midi": 70,
                    "time": 146.554999999996,
                    "velocity": 0.3937007874015748,
                    "duration": 0.08500000000000796
                },
                {
                    "name": "C#6",
                    "midi": 85,
                    "time": 146.559999999996,
                    "velocity": 0.41732283464566927,
                    "duration": 0.07500000000001705
                },
                {
                    "name": "A#5",
                    "midi": 82,
                    "time": 146.654999999996,
                    "velocity": 0.3937007874015748,
                    "duration": 0.05500000000000682
                },
                {
                    "name": "D#6",
                    "midi": 87,
                    "time": 146.772499999996,
                    "velocity": 0.6220472440944882,
                    "duration": 0.16249999999999432
                },
                {
                    "name": "A#3",
                    "midi": 58,
                    "time": 146.772499999996,
                    "velocity": 0.4409448818897638,
                    "duration": 0.13249999999999318
                },
                {
                    "name": "C#6",
                    "midi": 85,
                    "time": 146.904999999996,
                    "velocity": 0.4330708661417323,
                    "duration": 0.12749999999999773
                },
                {
                    "name": "G#5",
                    "midi": 80,
                    "time": 147.00999999999598,
                    "velocity": 0.2204724409448819,
                    "duration": 0.045000000000015916
                },
                {
                    "name": "D#5",
                    "midi": 75,
                    "time": 147.057499999996,
                    "velocity": 0.4251968503937008,
                    "duration": 0.0800000000000125
                },
                {
                    "name": "C#5",
                    "midi": 73,
                    "time": 147.174999999996,
                    "velocity": 0.4409448818897638,
                    "duration": 0.08249999999998181
                },
                {
                    "name": "G#4",
                    "midi": 68,
                    "time": 147.177499999996,
                    "velocity": 0.4566929133858268,
                    "duration": 0.07749999999998636
                },
                {
                    "name": "E6",
                    "midi": 88,
                    "time": 147.179999999996,
                    "velocity": 0.6220472440944882,
                    "duration": 0.1449999999999818
                },
                {
                    "name": "C#6",
                    "midi": 85,
                    "time": 147.28999999999598,
                    "velocity": 0.4251968503937008,
                    "duration": 0.15500000000000114
                },
                {
                    "name": "G#5",
                    "midi": 80,
                    "time": 147.374999999996,
                    "velocity": 0.3228346456692913,
                    "duration": 0.08999999999997499
                },
                {
                    "name": "E5",
                    "midi": 76,
                    "time": 147.45499999999598,
                    "velocity": 0.4094488188976378,
                    "duration": 0.06999999999999318
                },
                {
                    "name": "C#4",
                    "midi": 61,
                    "time": 147.57499999999598,
                    "velocity": 0.5354330708661418,
                    "duration": 0.20499999999995566
                },
                {
                    "name": "G6",
                    "midi": 91,
                    "time": 147.57999999999598,
                    "velocity": 0.5275590551181102,
                    "duration": 0.11499999999995225
                },
                {
                    "name": "E6",
                    "midi": 88,
                    "time": 147.68249999999594,
                    "velocity": 0.25196850393700787,
                    "duration": 0.09999999999999432
                },
                {
                    "name": "G4",
                    "midi": 67,
                    "time": 147.75999999999593,
                    "velocity": 0.4330708661417323,
                    "duration": 0.2074999999999818
                },
                {
                    "name": "B5",
                    "midi": 83,
                    "time": 147.77999999999594,
                    "velocity": 0.3937007874015748,
                    "duration": 0.04749999999998522
                },
                {
                    "name": "G5",
                    "midi": 79,
                    "time": 147.86499999999592,
                    "velocity": 0.44881889763779526,
                    "duration": 0.11499999999998067
                },
                {
                    "name": "B4",
                    "midi": 71,
                    "time": 147.89499999999592,
                    "velocity": 0.2755905511811024,
                    "duration": 0.08999999999997499
                },
                {
                    "name": "G#5",
                    "midi": 80,
                    "time": 147.9674999999959,
                    "velocity": 0.5354330708661418,
                    "duration": 0.14750000000000796
                },
                {
                    "name": "A5",
                    "midi": 81,
                    "time": 148.0649999999959,
                    "velocity": 0.4566929133858268,
                    "duration": 0.09000000000000341
                },
                {
                    "name": "A#5",
                    "midi": 82,
                    "time": 148.1224999999959,
                    "velocity": 0.5039370078740157,
                    "duration": 0.09000000000000341
                },
                {
                    "name": "B5",
                    "midi": 83,
                    "time": 148.23999999999592,
                    "velocity": 0.5433070866141733,
                    "duration": 0.11249999999998295
                },
                {
                    "name": "C6",
                    "midi": 84,
                    "time": 148.3474999999959,
                    "velocity": 0.6141732283464567,
                    "duration": 0.1049999999999045
                },
                {
                    "name": "G4",
                    "midi": 67,
                    "time": 148.3649999999959,
                    "velocity": 0.36220472440944884,
                    "duration": 0.04499999999995907
                },
                {
                    "name": "A#4",
                    "midi": 70,
                    "time": 148.3649999999959,
                    "velocity": 0.48031496062992124,
                    "duration": 0.07249999999993406
                },
                {
                    "name": "E4",
                    "midi": 64,
                    "time": 148.38499999999587,
                    "velocity": 0.3937007874015748,
                    "duration": 0.11499999999995225
                },
                {
                    "name": "C#6",
                    "midi": 85,
                    "time": 148.42249999999584,
                    "velocity": 0.5275590551181102,
                    "duration": 0.1074999999999875
                },
                {
                    "name": "D6",
                    "midi": 86,
                    "time": 148.5424999999958,
                    "velocity": 0.5748031496062992,
                    "duration": 0.1074999999999875
                },
                {
                    "name": "D#6",
                    "midi": 87,
                    "time": 148.6599999999958,
                    "velocity": 0.5590551181102362,
                    "duration": 0.11750000000000682
                },
                {
                    "name": "E6",
                    "midi": 88,
                    "time": 148.7999999999958,
                    "velocity": 0.5826771653543307,
                    "duration": 0.10499999999998977
                },
                {
                    "name": "A#3",
                    "midi": 58,
                    "time": 148.7999999999958,
                    "velocity": 0.4881889763779528,
                    "duration": 0.044999999999987494
                },
                {
                    "name": "G#4",
                    "midi": 68,
                    "time": 148.7999999999958,
                    "velocity": 0.4881889763779528,
                    "duration": 0.030000000000001137
                },
                {
                    "name": "E4",
                    "midi": 64,
                    "time": 148.7999999999958,
                    "velocity": 0.3464566929133858,
                    "duration": 0.0024999999999977263
                },
                {
                    "name": "F6",
                    "midi": 89,
                    "time": 148.9024999999958,
                    "velocity": 0.5826771653543307,
                    "duration": 0.1074999999999875
                },
                {
                    "name": "F#6",
                    "midi": 90,
                    "time": 148.9949999999958,
                    "velocity": 0.5354330708661418,
                    "duration": 0.0999999999999659
                },
                {
                    "name": "G6",
                    "midi": 91,
                    "time": 149.08249999999578,
                    "velocity": 0.5669291338582677,
                    "duration": 0.08499999999997954
                },
                {
                    "name": "G3",
                    "midi": 55,
                    "time": 149.17249999999575,
                    "velocity": 0.5590551181102362,
                    "duration": 0.17499999999995453
                },
                {
                    "name": "C7",
                    "midi": 96,
                    "time": 149.20249999999572,
                    "velocity": 0.6062992125984252,
                    "duration": 0.12749999999999773
                },
                {
                    "name": "F6",
                    "midi": 89,
                    "time": 149.32999999999572,
                    "velocity": 0.4251968503937008,
                    "duration": 0.1074999999999875
                },
                {
                    "name": "C#4",
                    "midi": 61,
                    "time": 149.3449999999957,
                    "velocity": 0.4015748031496063,
                    "duration": 0.09250000000000114
                },
                {
                    "name": "C#6",
                    "midi": 85,
                    "time": 149.4474999999957,
                    "velocity": 0.3700787401574803,
                    "duration": 0.0724999999999909
                },
                {
                    "name": "C6",
                    "midi": 84,
                    "time": 149.52499999999569,
                    "velocity": 0.4881889763779528,
                    "duration": 0.08249999999998181
                },
                {
                    "name": "F4",
                    "midi": 65,
                    "time": 149.53249999999568,
                    "velocity": 0.4566929133858268,
                    "duration": 0.09499999999997044
                },
                {
                    "name": "A#6",
                    "midi": 94,
                    "time": 149.61749999999566,
                    "velocity": 0.6062992125984252,
                    "duration": 0.1449999999999818
                },
                {
                    "name": "G4",
                    "midi": 67,
                    "time": 149.64249999999564,
                    "velocity": 0.3700787401574803,
                    "duration": 0.044999999999987494
                },
                {
                    "name": "F6",
                    "midi": 89,
                    "time": 149.74499999999563,
                    "velocity": 0.4566929133858268,
                    "duration": 0.08750000000000568
                },
                {
                    "name": "C#5",
                    "midi": 73,
                    "time": 149.76499999999564,
                    "velocity": 0.4881889763779528,
                    "duration": 0.09000000000000341
                },
                {
                    "name": "C#6",
                    "midi": 85,
                    "time": 149.82999999999564,
                    "velocity": 0.3858267716535433,
                    "duration": 0.060000000000002274
                },
                {
                    "name": "F5",
                    "midi": 77,
                    "time": 149.91749999999564,
                    "velocity": 0.3543307086614173,
                    "duration": 0.05000000000001137
                },
                {
                    "name": "A#5",
                    "midi": 82,
                    "time": 149.91749999999564,
                    "velocity": 0.4881889763779528,
                    "duration": 0.05750000000000455
                },
                {
                    "name": "C#7",
                    "midi": 97,
                    "time": 150.01749999999564,
                    "velocity": 0.5984251968503937,
                    "duration": 0.16499999999999204
                },
                {
                    "name": "A#4",
                    "midi": 70,
                    "time": 150.03499999999565,
                    "velocity": 0.5826771653543307,
                    "duration": 0.14249999999998408
                },
                {
                    "name": "G#6",
                    "midi": 92,
                    "time": 150.12999999999562,
                    "velocity": 0.3700787401574803,
                    "duration": 0.12750000000002615
                },
                {
                    "name": "E6",
                    "midi": 88,
                    "time": 150.23249999999564,
                    "velocity": 0.41732283464566927,
                    "duration": 0.05500000000000682
                },
                {
                    "name": "E5",
                    "midi": 76,
                    "time": 150.25999999999564,
                    "velocity": 0.4094488188976378,
                    "duration": 0.23499999999998522
                },
                {
                    "name": "C#6",
                    "midi": 85,
                    "time": 150.31999999999564,
                    "velocity": 0.47244094488188976,
                    "duration": 0.07499999999998863
                },
                {
                    "name": "G#5",
                    "midi": 80,
                    "time": 150.44999999999564,
                    "velocity": 0.3700787401574803,
                    "duration": 0.13999999999998636
                },
                {
                    "name": "C7",
                    "midi": 96,
                    "time": 150.45999999999563,
                    "velocity": 0.6141732283464567,
                    "duration": 0.12999999999999545
                },
                {
                    "name": "G#6",
                    "midi": 92,
                    "time": 150.52499999999563,
                    "velocity": 0.4645669291338583,
                    "duration": 0.15749999999999886
                },
                {
                    "name": "C#6",
                    "midi": 85,
                    "time": 150.61249999999563,
                    "velocity": 0.4409448818897638,
                    "duration": 0.04249999999998977
                },
                {
                    "name": "E6",
                    "midi": 88,
                    "time": 150.64999999999563,
                    "velocity": 0.3464566929133858,
                    "duration": 0.07499999999998863
                },
                {
                    "name": "C6",
                    "midi": 84,
                    "time": 150.70999999999563,
                    "velocity": 0.5196850393700787,
                    "duration": 0.08499999999997954
                },
                {
                    "name": "G4",
                    "midi": 67,
                    "time": 150.84499999999562,
                    "velocity": 0.4881889763779528,
                    "duration": 0.19249999999999545
                },
                {
                    "name": "C7",
                    "midi": 96,
                    "time": 150.84499999999562,
                    "velocity": 0.5905511811023622,
                    "duration": 0.12999999999999545
                },
                {
                    "name": "F6",
                    "midi": 89,
                    "time": 150.94499999999562,
                    "velocity": 0.44881889763779526,
                    "duration": 0.12249999999997385
                },
                {
                    "name": "C#5",
                    "midi": 73,
                    "time": 151.0474999999956,
                    "velocity": 0.4015748031496063,
                    "duration": 0.1974999999999909
                },
                {
                    "name": "C#6",
                    "midi": 85,
                    "time": 151.0574999999956,
                    "velocity": 0.4330708661417323,
                    "duration": 0.06749999999999545
                },
                {
                    "name": "C6",
                    "midi": 84,
                    "time": 151.1274999999956,
                    "velocity": 0.5433070866141733,
                    "duration": 0.060000000000002274
                },
                {
                    "name": "A#6",
                    "midi": 94,
                    "time": 151.2124999999956,
                    "velocity": 0.5433070866141733,
                    "duration": 0.1525000000000034
                },
                {
                    "name": "F5",
                    "midi": 77,
                    "time": 151.2724999999956,
                    "velocity": 0.41732283464566927,
                    "duration": 0.09250000000000114
                },
                {
                    "name": "F6",
                    "midi": 89,
                    "time": 151.3324999999956,
                    "velocity": 0.5433070866141733,
                    "duration": 0.12749999999999773
                },
                {
                    "name": "C#6",
                    "midi": 85,
                    "time": 151.4224999999956,
                    "velocity": 0.3464566929133858,
                    "duration": 0.09000000000000341
                },
                {
                    "name": "A#5",
                    "midi": 82,
                    "time": 151.47749999999562,
                    "velocity": 0.5039370078740157,
                    "duration": 0.04999999999998295
                },
                {
                    "name": "A#4",
                    "midi": 70,
                    "time": 151.5674999999956,
                    "velocity": 0.4645669291338583,
                    "duration": 0.23249999999995907
                },
                {
                    "name": "C7",
                    "midi": 96,
                    "time": 151.5949999999956,
                    "velocity": 0.6614173228346457,
                    "duration": 0.13499999999996248
                },
                {
                    "name": "E6",
                    "midi": 88,
                    "time": 151.71499999999557,
                    "velocity": 0.48031496062992124,
                    "duration": 0.12249999999997385
                },
                {
                    "name": "C#6",
                    "midi": 85,
                    "time": 151.80499999999554,
                    "velocity": 0.33858267716535434,
                    "duration": 0.07999999999998408
                },
                {
                    "name": "E5",
                    "midi": 76,
                    "time": 151.83999999999554,
                    "velocity": 0.33858267716535434,
                    "duration": 0.16749999999998977
                },
                {
                    "name": "C6",
                    "midi": 84,
                    "time": 151.88999999999552,
                    "velocity": 0.6062992125984252,
                    "duration": 0.07499999999998863
                },
                {
                    "name": "C#7",
                    "midi": 97,
                    "time": 151.98999999999552,
                    "velocity": 0.5433070866141733,
                    "duration": 0.1500000000000341
                },
                {
                    "name": "G#5",
                    "midi": 80,
                    "time": 152.03249999999554,
                    "velocity": 0.3543307086614173,
                    "duration": 0.12250000000000227
                },
                {
                    "name": "G#6",
                    "midi": 92,
                    "time": 152.05999999999554,
                    "velocity": 0.3464566929133858,
                    "duration": 0.125
                },
                {
                    "name": "E6",
                    "midi": 88,
                    "time": 152.16749999999553,
                    "velocity": 0.3700787401574803,
                    "duration": 0.04750000000001364
                },
                {
                    "name": "A#5",
                    "midi": 82,
                    "time": 152.18499999999554,
                    "velocity": 0.4015748031496063,
                    "duration": 0.09000000000000341
                },
                {
                    "name": "C#6",
                    "midi": 85,
                    "time": 152.23499999999555,
                    "velocity": 0.5039370078740157,
                    "duration": 0.07749999999998636
                },
                {
                    "name": "A4",
                    "midi": 69,
                    "time": 152.36499999999555,
                    "velocity": 0.5433070866141733,
                    "duration": 0.1099999999999568
                },
                {
                    "name": "D7",
                    "midi": 98,
                    "time": 152.37499999999554,
                    "velocity": 0.6220472440944882,
                    "duration": 0.0999999999999659
                },
                {
                    "name": "G6",
                    "midi": 91,
                    "time": 152.45999999999552,
                    "velocity": 0.3779527559055118,
                    "duration": 0.1599999999999966
                },
                {
                    "name": "D#6",
                    "midi": 87,
                    "time": 152.55499999999552,
                    "velocity": 0.4015748031496063,
                    "duration": 0.09000000000000341
                },
                {
                    "name": "D#5",
                    "midi": 75,
                    "time": 152.60499999999553,
                    "velocity": 0.3228346456692913,
                    "duration": 0.1974999999999909
                },
                {
                    "name": "D6",
                    "midi": 86,
                    "time": 152.63999999999552,
                    "velocity": 0.5590551181102362,
                    "duration": 0.09499999999999886
                },
                {
                    "name": "C7",
                    "midi": 96,
                    "time": 152.76249999999553,
                    "velocity": 0.6377952755905512,
                    "duration": 0.13999999999998636
                },
                {
                    "name": "G5",
                    "midi": 79,
                    "time": 152.83249999999552,
                    "velocity": 0.3937007874015748,
                    "duration": 0.12250000000000227
                },
                {
                    "name": "G6",
                    "midi": 91,
                    "time": 152.8424999999955,
                    "velocity": 0.5511811023622047,
                    "duration": 0.12250000000000227
                },
                {
                    "name": "D#6",
                    "midi": 87,
                    "time": 152.94999999999553,
                    "velocity": 0.4330708661417323,
                    "duration": 0.07749999999998636
                },
                {
                    "name": "C6",
                    "midi": 84,
                    "time": 152.98499999999552,
                    "velocity": 0.5354330708661418,
                    "duration": 0.07749999999998636
                },
                {
                    "name": "C5",
                    "midi": 72,
                    "time": 153.08749999999552,
                    "velocity": 0.5433070866141733,
                    "duration": 0.15250000000003183
                },
                {
                    "name": "D#7",
                    "midi": 99,
                    "time": 153.11249999999552,
                    "velocity": 0.5590551181102362,
                    "duration": 0.1325000000000216
                },
                {
                    "name": "A#6",
                    "midi": 94,
                    "time": 153.21249999999554,
                    "velocity": 0.5196850393700787,
                    "duration": 0.1074999999999875
                },
                {
                    "name": "F#5",
                    "midi": 78,
                    "time": 153.31249999999554,
                    "velocity": 0.28346456692913385,
                    "duration": 0.18250000000000455
                },
                {
                    "name": "F#6",
                    "midi": 90,
                    "time": 153.31999999999553,
                    "velocity": 0.3858267716535433,
                    "duration": 0.05500000000000682
                },
                {
                    "name": "D#6",
                    "midi": 87,
                    "time": 153.34999999999553,
                    "velocity": 0.30708661417322836,
                    "duration": 0.0800000000000125
                },
                {
                    "name": "A#6",
                    "midi": 94,
                    "time": 153.59999999999553,
                    "velocity": 0.5275590551181102,
                    "duration": 0.08499999999997954
                },
                {
                    "name": "A#5",
                    "midi": 82,
                    "time": 153.59999999999553,
                    "velocity": 0.3858267716535433,
                    "duration": 0.08249999999998181
                },
                {
                    "name": "D7",
                    "midi": 98,
                    "time": 153.59999999999553,
                    "velocity": 0.5354330708661418,
                    "duration": 0.0024999999999977263
                },
                {
                    "name": "E7",
                    "midi": 100,
                    "time": 153.59999999999553,
                    "velocity": 0.4330708661417323,
                    "duration": 0.0024999999999977263
                },
                {
                    "name": "D#6",
                    "midi": 87,
                    "time": 153.67749999999552,
                    "velocity": 0.4330708661417323,
                    "duration": 0.03499999999999659
                },
                {
                    "name": "D6",
                    "midi": 86,
                    "time": 153.7174999999955,
                    "velocity": 0.6062992125984252,
                    "duration": 0.09000000000000341
                },
                {
                    "name": "D7",
                    "midi": 98,
                    "time": 153.8524999999955,
                    "velocity": 0.5354330708661418,
                    "duration": 0.11000000000001364
                },
                {
                    "name": "C7",
                    "midi": 96,
                    "time": 153.8549999999955,
                    "velocity": 0.5511811023622047,
                    "duration": 0.13000000000002387
                },
                {
                    "name": "B4",
                    "midi": 71,
                    "time": 153.8599999999955,
                    "velocity": 0.4330708661417323,
                    "duration": 0.160000000000025
                },
                {
                    "name": "G6",
                    "midi": 91,
                    "time": 153.9399999999955,
                    "velocity": 0.5275590551181102,
                    "duration": 0.13500000000001933
                },
                {
                    "name": "D#6",
                    "midi": 87,
                    "time": 154.03999999999553,
                    "velocity": 0.44881889763779526,
                    "duration": 0.07499999999998863
                },
                {
                    "name": "D#5",
                    "midi": 75,
                    "time": 154.07249999999553,
                    "velocity": 0.2755905511811024,
                    "duration": 0.18499999999997385
                },
                {
                    "name": "D6",
                    "midi": 86,
                    "time": 154.1249999999955,
                    "velocity": 0.5590551181102362,
                    "duration": 0.07749999999998636
                },
                {
                    "name": "C7",
                    "midi": 96,
                    "time": 154.2299999999955,
                    "velocity": 0.6850393700787402,
                    "duration": 0.14000000000001478
                },
                {
                    "name": "G5",
                    "midi": 79,
                    "time": 154.3124999999955,
                    "velocity": 0.4566929133858268,
                    "duration": 0.18250000000000455
                },
                {
                    "name": "G6",
                    "midi": 91,
                    "time": 154.3174999999955,
                    "velocity": 0.5590551181102362,
                    "duration": 0.15500000000000114
                },
                {
                    "name": "D#6",
                    "midi": 87,
                    "time": 154.4049999999955,
                    "velocity": 0.47244094488188976,
                    "duration": 0.10499999999998977
                },
                {
                    "name": "C6",
                    "midi": 84,
                    "time": 154.4949999999955,
                    "velocity": 0.6456692913385826,
                    "duration": 0.06999999999999318
                },
                {
                    "name": "C5",
                    "midi": 72,
                    "time": 154.5924999999955,
                    "velocity": 0.5433070866141733,
                    "duration": 0.2224999999999966
                },
                {
                    "name": "D7",
                    "midi": 98,
                    "time": 154.5999999999955,
                    "velocity": 0.6535433070866141,
                    "duration": 0.12250000000000227
                },
                {
                    "name": "A#6",
                    "midi": 94,
                    "time": 154.6899999999955,
                    "velocity": 0.6220472440944882,
                    "duration": 0.09999999999999432
                },
                {
                    "name": "F#6",
                    "midi": 90,
                    "time": 154.7799999999955,
                    "velocity": 0.44881889763779526,
                    "duration": 0.057499999999976126
                },
                {
                    "name": "F#5",
                    "midi": 78,
                    "time": 154.7824999999955,
                    "velocity": 0.41732283464566927,
                    "duration": 0.0549999999999784
                },
                {
                    "name": "G6",
                    "midi": 91,
                    "time": 154.8224999999955,
                    "velocity": 0.2755905511811024,
                    "duration": 0.037499999999994316
                },
                {
                    "name": "D6",
                    "midi": 86,
                    "time": 154.8549999999955,
                    "velocity": 0.5669291338582677,
                    "duration": 0.07999999999998408
                },
                {
                    "name": "A#5",
                    "midi": 82,
                    "time": 154.9549999999955,
                    "velocity": 0.44881889763779526,
                    "duration": 0.15000000000000568
                },
                {
                    "name": "D#7",
                    "midi": 99,
                    "time": 154.9624999999955,
                    "velocity": 0.6377952755905512,
                    "duration": 0.12250000000000227
                },
                {
                    "name": "A#6",
                    "midi": 94,
                    "time": 155.05999999999548,
                    "velocity": 0.5590551181102362,
                    "duration": 0.10750000000001592
                },
                {
                    "name": "F#6",
                    "midi": 90,
                    "time": 155.1349999999955,
                    "velocity": 0.5039370078740157,
                    "duration": 0.08750000000000568
                },
                {
                    "name": "C6",
                    "midi": 84,
                    "time": 155.1374999999955,
                    "velocity": 0.4881889763779528,
                    "duration": 0.08250000000001023
                },
                {
                    "name": "D#6",
                    "midi": 87,
                    "time": 155.2199999999955,
                    "velocity": 0.5354330708661418,
                    "duration": 0.06749999999999545
                },
                {
                    "name": "C5",
                    "midi": 72,
                    "time": 155.3149999999955,
                    "velocity": 0.49606299212598426,
                    "duration": 0.15999999999996817
                },
                {
                    "name": "F7",
                    "midi": 101,
                    "time": 155.33749999999552,
                    "velocity": 0.6929133858267716,
                    "duration": 0.1374999999999602
                },
                {
                    "name": "A#6",
                    "midi": 94,
                    "time": 155.46499999999548,
                    "velocity": 0.3700787401574803,
                    "duration": 0.07999999999995566
                },
                {
                    "name": "F#5",
                    "midi": 78,
                    "time": 155.47749999999547,
                    "velocity": 0.29133858267716534,
                    "duration": 0.12999999999996703
                },
                {
                    "name": "B6",
                    "midi": 95,
                    "time": 155.48999999999546,
                    "velocity": 0.4015748031496063,
                    "duration": 0.03999999999999204
                },
                {
                    "name": "F#6",
                    "midi": 90,
                    "time": 155.51999999999546,
                    "velocity": 0.5275590551181102,
                    "duration": 0.0724999999999909
                },
                {
                    "name": "F6",
                    "midi": 89,
                    "time": 155.62999999999545,
                    "velocity": 0.5196850393700787,
                    "duration": 0.0625
                },
                {
                    "name": "A#5",
                    "midi": 82,
                    "time": 155.63749999999544,
                    "velocity": 0.44881889763779526,
                    "duration": 0.09999999999999432
                },
                {
                    "name": "C#5",
                    "midi": 73,
                    "time": 155.72499999999545,
                    "velocity": 0.49606299212598426,
                    "duration": 0.16499999999999204
                },
                {
                    "name": "D#7",
                    "midi": 99,
                    "time": 155.73249999999544,
                    "velocity": 0.7244094488188977,
                    "duration": 0.13999999999998636
                },
                {
                    "name": "F7",
                    "midi": 101,
                    "time": 155.77999999999543,
                    "velocity": 0.25984251968503935,
                    "duration": 0.060000000000002274
                },
                {
                    "name": "G5",
                    "midi": 79,
                    "time": 155.85999999999544,
                    "velocity": 0.5196850393700787,
                    "duration": 0.12000000000000455
                },
                {
                    "name": "D#6",
                    "midi": 87,
                    "time": 155.99999999999545,
                    "velocity": 0.3937007874015748,
                    "duration": 0.03249999999999886
                },
                {
                    "name": "B5",
                    "midi": 83,
                    "time": 155.99999999999545,
                    "velocity": 0.49606299212598426,
                    "duration": 0.10750000000001592
                },
                {
                    "name": "F#7",
                    "midi": 102,
                    "time": 156.08499999999546,
                    "velocity": 0.6377952755905512,
                    "duration": 0.19249999999999545
                },
                {
                    "name": "D5",
                    "midi": 74,
                    "time": 156.10249999999547,
                    "velocity": 0.5826771653543307,
                    "duration": 0.13749999999998863
                },
                {
                    "name": "C7",
                    "midi": 96,
                    "time": 156.15749999999548,
                    "velocity": 0.41732283464566927,
                    "duration": 0.11999999999997613
                },
                {
                    "name": "G#5",
                    "midi": 80,
                    "time": 156.22749999999547,
                    "velocity": 0.4645669291338583,
                    "duration": 0.14749999999997954
                },
                {
                    "name": "G#6",
                    "midi": 92,
                    "time": 156.24499999999546,
                    "velocity": 0.4330708661417323,
                    "duration": 0.09749999999999659
                },
                {
                    "name": "F#6",
                    "midi": 90,
                    "time": 156.31499999999545,
                    "velocity": 0.4094488188976378,
                    "duration": 0.0800000000000125
                },
                {
                    "name": "C6",
                    "midi": 84,
                    "time": 156.37249999999545,
                    "velocity": 0.4251968503937008,
                    "duration": 0.05750000000000455
                },
                {
                    "name": "D#5",
                    "midi": 75,
                    "time": 156.43249999999546,
                    "velocity": 0.44881889763779526,
                    "duration": 0.12000000000000455
                },
                {
                    "name": "G7",
                    "midi": 103,
                    "time": 156.46249999999546,
                    "velocity": 0.48031496062992124,
                    "duration": 0.11250000000001137
                },
                {
                    "name": "F7",
                    "midi": 101,
                    "time": 156.46499999999546,
                    "velocity": 0.6062992125984252,
                    "duration": 0.125
                },
                {
                    "name": "A5",
                    "midi": 81,
                    "time": 156.51749999999547,
                    "velocity": 0.48031496062992124,
                    "duration": 0.08499999999997954
                },
                {
                    "name": "C#7",
                    "midi": 97,
                    "time": 156.51749999999547,
                    "velocity": 0.5590551181102362,
                    "duration": 0.16499999999996362
                },
                {
                    "name": "A6",
                    "midi": 93,
                    "time": 156.63249999999545,
                    "velocity": 0.5196850393700787,
                    "duration": 0.06999999999999318
                },
                {
                    "name": "C#6",
                    "midi": 85,
                    "time": 156.63749999999544,
                    "velocity": 0.5354330708661418,
                    "duration": 0.10999999999998522
                },
                {
                    "name": "F6",
                    "midi": 89,
                    "time": 156.69999999999544,
                    "velocity": 0.5196850393700787,
                    "duration": 0.0724999999999909
                },
                {
                    "name": "C5",
                    "midi": 72,
                    "time": 156.80249999999543,
                    "velocity": 0.5748031496062992,
                    "duration": 0.12999999999999545
                },
                {
                    "name": "F7",
                    "midi": 101,
                    "time": 156.80499999999543,
                    "velocity": 0.6850393700787402,
                    "duration": 0.125
                },
                {
                    "name": "A#6",
                    "midi": 94,
                    "time": 156.89249999999544,
                    "velocity": 0.5826771653543307,
                    "duration": 0.11499999999998067
                },
                {
                    "name": "F#5",
                    "midi": 78,
                    "time": 156.92499999999544,
                    "velocity": 0.4566929133858268,
                    "duration": 0.10999999999998522
                },
                {
                    "name": "F#6",
                    "midi": 90,
                    "time": 156.97749999999542,
                    "velocity": 0.5039370078740157,
                    "duration": 0.07749999999998636
                },
                {
                    "name": "A#5",
                    "midi": 82,
                    "time": 157.0449999999954,
                    "velocity": 0.4645669291338583,
                    "duration": 0.08999999999997499
                },
                {
                    "name": "F6",
                    "midi": 89,
                    "time": 157.0699999999954,
                    "velocity": 0.4881889763779528,
                    "duration": 0.03499999999999659
                },
                {
                    "name": "C#5",
                    "midi": 73,
                    "time": 157.13999999999538,
                    "velocity": 0.4645669291338583,
                    "duration": 0.1349999999999909
                },
                {
                    "name": "D#7",
                    "midi": 99,
                    "time": 157.14499999999538,
                    "velocity": 0.6929133858267716,
                    "duration": 0.12999999999999545
                },
                {
                    "name": "G5",
                    "midi": 79,
                    "time": 157.26249999999538,
                    "velocity": 0.5354330708661418,
                    "duration": 0.10499999999998977
                },
                {
                    "name": "D#6",
                    "midi": 87,
                    "time": 157.32999999999538,
                    "velocity": 0.4645669291338583,
                    "duration": 0.10499999999998977
                },
                {
                    "name": "B5",
                    "midi": 83,
                    "time": 157.35499999999539,
                    "velocity": 0.48031496062992124,
                    "duration": 0.12999999999999545
                },
                {
                    "name": "D5",
                    "midi": 74,
                    "time": 157.45749999999538,
                    "velocity": 0.5511811023622047,
                    "duration": 0.14749999999997954
                },
                {
                    "name": "F#7",
                    "midi": 102,
                    "time": 157.45999999999538,
                    "velocity": 0.6377952755905512,
                    "duration": 0.17499999999998295
                },
                {
                    "name": "C7",
                    "midi": 96,
                    "time": 157.49749999999537,
                    "velocity": 0.4251968503937008,
                    "duration": 0.14749999999997954
                },
                {
                    "name": "G#5",
                    "midi": 80,
                    "time": 157.57499999999536,
                    "velocity": 0.47244094488188976,
                    "duration": 0.1349999999999909
                },
                {
                    "name": "G#6",
                    "midi": 92,
                    "time": 157.59749999999536,
                    "velocity": 0.4094488188976378,
                    "duration": 0.09000000000000341
                },
                {
                    "name": "F#6",
                    "midi": 90,
                    "time": 157.66499999999536,
                    "velocity": 0.5354330708661418,
                    "duration": 0.07499999999998863
                },
                {
                    "name": "C6",
                    "midi": 84,
                    "time": 157.69999999999536,
                    "velocity": 0.49606299212598426,
                    "duration": 0.07749999999998636
                },
                {
                    "name": "D#5",
                    "midi": 75,
                    "time": 157.77499999999534,
                    "velocity": 0.5196850393700787,
                    "duration": 0.10999999999998522
                },
                {
                    "name": "F7",
                    "midi": 101,
                    "time": 157.79499999999535,
                    "velocity": 0.6692913385826772,
                    "duration": 0.15499999999997272
                },
                {
                    "name": "C#7",
                    "midi": 97,
                    "time": 157.83749999999534,
                    "velocity": 0.48031496062992124,
                    "duration": 0.15749999999997044
                },
                {
                    "name": "A5",
                    "midi": 81,
                    "time": 157.84999999999533,
                    "velocity": 0.48031496062992124,
                    "duration": 0.07999999999998408
                },
                {
                    "name": "A6",
                    "midi": 93,
                    "time": 157.95499999999532,
                    "velocity": 0.5354330708661418,
                    "duration": 0.04249999999998977
                },
                {
                    "name": "C#6",
                    "midi": 85,
                    "time": 157.95999999999532,
                    "velocity": 0.5354330708661418,
                    "duration": 0.06999999999999318
                },
                {
                    "name": "F6",
                    "midi": 89,
                    "time": 157.9999999999953,
                    "velocity": 0.5669291338582677,
                    "duration": 0.06749999999999545
                },
                {
                    "name": "C5",
                    "midi": 72,
                    "time": 158.08749999999532,
                    "velocity": 0.4881889763779528,
                    "duration": 0.1449999999999818
                },
                {
                    "name": "F7",
                    "midi": 101,
                    "time": 158.0899999999953,
                    "velocity": 0.6535433070866141,
                    "duration": 0.125
                },
                {
                    "name": "A#6",
                    "midi": 94,
                    "time": 158.1649999999953,
                    "velocity": 0.5196850393700787,
                    "duration": 0.11249999999998295
                },
                {
                    "name": "F#5",
                    "midi": 78,
                    "time": 158.2249999999953,
                    "velocity": 0.4015748031496063,
                    "duration": 0.07999999999998408
                },
                {
                    "name": "F#6",
                    "midi": 90,
                    "time": 158.2374999999953,
                    "velocity": 0.5196850393700787,
                    "duration": 0.06999999999999318
                },
                {
                    "name": "A#5",
                    "midi": 82,
                    "time": 158.2949999999953,
                    "velocity": 0.5039370078740157,
                    "duration": 0.09999999999999432
                },
                {
                    "name": "F6",
                    "midi": 89,
                    "time": 158.31499999999528,
                    "velocity": 0.4645669291338583,
                    "duration": 0.03249999999999886
                },
                {
                    "name": "D#7",
                    "midi": 99,
                    "time": 158.3999999999953,
                    "velocity": 0.6614173228346457,
                    "duration": 0.14249999999998408
                },
                {
                    "name": "C#5",
                    "midi": 73,
                    "time": 158.3999999999953,
                    "velocity": 0.5275590551181102,
                    "duration": 0.13999999999998636
                },
                {
                    "name": "F#6",
                    "midi": 90,
                    "time": 158.46499999999529,
                    "velocity": 0.33858267716535434,
                    "duration": 0.044999999999987494
                },
                {
                    "name": "G5",
                    "midi": 79,
                    "time": 158.49999999999528,
                    "velocity": 0.5196850393700787,
                    "duration": 0.1074999999999875
                },
                {
                    "name": "D#6",
                    "midi": 87,
                    "time": 158.54749999999527,
                    "velocity": 0.4330708661417323,
                    "duration": 0.09000000000000341
                },
                {
                    "name": "B5",
                    "midi": 83,
                    "time": 158.59749999999528,
                    "velocity": 0.5669291338582677,
                    "duration": 0.09499999999997044
                },
                {
                    "name": "F#7",
                    "midi": 102,
                    "time": 158.67249999999527,
                    "velocity": 0.5511811023622047,
                    "duration": 0.18249999999997613
                },
                {
                    "name": "D5",
                    "midi": 74,
                    "time": 158.68499999999526,
                    "velocity": 0.5196850393700787,
                    "duration": 0.12999999999999545
                },
                {
                    "name": "C7",
                    "midi": 96,
                    "time": 158.69249999999525,
                    "velocity": 0.30708661417322836,
                    "duration": 0.1599999999999966
                },
                {
                    "name": "G#5",
                    "midi": 80,
                    "time": 158.80249999999526,
                    "velocity": 0.5039370078740157,
                    "duration": 0.10249999999999204
                },
                {
                    "name": "G#6",
                    "midi": 92,
                    "time": 158.81749999999525,
                    "velocity": 0.44881889763779526,
                    "duration": 0.09499999999999886
                },
                {
                    "name": "F#6",
                    "midi": 90,
                    "time": 158.87749999999525,
                    "velocity": 0.5039370078740157,
                    "duration": 0.06749999999999545
                },
                {
                    "name": "C6",
                    "midi": 84,
                    "time": 158.92249999999524,
                    "velocity": 0.3937007874015748,
                    "duration": 0.060000000000002274
                },
                {
                    "name": "D#5",
                    "midi": 75,
                    "time": 158.97249999999525,
                    "velocity": 0.4645669291338583,
                    "duration": 0.06499999999999773
                },
                {
                    "name": "F7",
                    "midi": 101,
                    "time": 158.98499999999524,
                    "velocity": 0.6299212598425197,
                    "duration": 0.052500000000009095
                },
                {
                    "name": "C#7",
                    "midi": 97,
                    "time": 159.03749999999525,
                    "velocity": 0.48031496062992124,
                    "duration": 0.14750000000000796
                },
                {
                    "name": "A5",
                    "midi": 81,
                    "time": 159.04499999999524,
                    "velocity": 0.4409448818897638,
                    "duration": 0.09000000000000341
                },
                {
                    "name": "A6",
                    "midi": 93,
                    "time": 159.13249999999525,
                    "velocity": 0.5826771653543307,
                    "duration": 0.07499999999998863
                },
                {
                    "name": "C#6",
                    "midi": 85,
                    "time": 159.15499999999525,
                    "velocity": 0.5590551181102362,
                    "duration": 0.06249999999997158
                },
                {
                    "name": "F6",
                    "midi": 89,
                    "time": 159.19499999999525,
                    "velocity": 0.5511811023622047,
                    "duration": 0.0649999999999693
                },
                {
                    "name": "C5",
                    "midi": 72,
                    "time": 159.2724999999952,
                    "velocity": 0.5275590551181102,
                    "duration": 0.14249999999995566
                },
                {
                    "name": "F7",
                    "midi": 101,
                    "time": 159.2749999999952,
                    "velocity": 0.6220472440944882,
                    "duration": 0.11499999999998067
                },
                {
                    "name": "A#6",
                    "midi": 94,
                    "time": 159.3449999999952,
                    "velocity": 0.5590551181102362,
                    "duration": 0.1174999999999784
                },
                {
                    "name": "F#5",
                    "midi": 78,
                    "time": 159.40499999999517,
                    "velocity": 0.4251968503937008,
                    "duration": 0.11750000000000682
                },
                {
                    "name": "A#5",
                    "midi": 82,
                    "time": 159.4799999999952,
                    "velocity": 0.5433070866141733,
                    "duration": 0.09499999999997044
                },
                {
                    "name": "F6",
                    "midi": 89,
                    "time": 159.48499999999518,
                    "velocity": 0.5826771653543307,
                    "duration": 0.06749999999999545
                },
                {
                    "name": "C#5",
                    "midi": 73,
                    "time": 159.56749999999516,
                    "velocity": 0.5039370078740157,
                    "duration": 0.1624999999999659
                },
                {
                    "name": "D#7",
                    "midi": 99,
                    "time": 159.58499999999515,
                    "velocity": 0.6771653543307087,
                    "duration": 0.15999999999996817
                },
                {
                    "name": "G5",
                    "midi": 79,
                    "time": 159.68749999999514,
                    "velocity": 0.5354330708661418,
                    "duration": 0.09249999999997272
                },
                {
                    "name": "D#6",
                    "midi": 87,
                    "time": 159.74499999999512,
                    "velocity": 0.5354330708661418,
                    "duration": 0.09499999999999886
                },
                {
                    "name": "B5",
                    "midi": 83,
                    "time": 159.76999999999512,
                    "velocity": 0.5669291338582677,
                    "duration": 0.12499999999997158
                },
                {
                    "name": "D5",
                    "midi": 74,
                    "time": 159.8824999999951,
                    "velocity": 0.5354330708661418,
                    "duration": 0.1599999999999966
                },
                {
                    "name": "C#7",
                    "midi": 97,
                    "time": 159.8949999999951,
                    "velocity": 0.6062992125984252,
                    "duration": 0.19999999999998863
                },
                {
                    "name": "F7",
                    "midi": 101,
                    "time": 159.8999999999951,
                    "velocity": 0.6299212598425197,
                    "duration": 0.15500000000000114
                },
                {
                    "name": "G#5",
                    "midi": 80,
                    "time": 160.0149999999951,
                    "velocity": 0.5039370078740157,
                    "duration": 0.13249999999999318
                },
                {
                    "name": "G#6",
                    "midi": 92,
                    "time": 160.0474999999951,
                    "velocity": 0.44881889763779526,
                    "duration": 0.10249999999999204
                },
                {
                    "name": "F6",
                    "midi": 89,
                    "time": 160.1149999999951,
                    "velocity": 0.5748031496062992,
                    "duration": 0.12250000000000227
                },
                {
                    "name": "C6",
                    "midi": 84,
                    "time": 160.1424999999951,
                    "velocity": 0.5196850393700787,
                    "duration": 0.09499999999999886
                },
                {
                    "name": "D#5",
                    "midi": 75,
                    "time": 160.2449999999951,
                    "velocity": 0.5354330708661418,
                    "duration": 0.14999999999997726
                },
                {
                    "name": "F#7",
                    "midi": 102,
                    "time": 160.2449999999951,
                    "velocity": 0.6456692913385826,
                    "duration": 0.18749999999997158
                },
                {
                    "name": "A5",
                    "midi": 81,
                    "time": 160.3349999999951,
                    "velocity": 0.5590551181102362,
                    "duration": 0.12499999999997158
                },
                {
                    "name": "D7",
                    "midi": 98,
                    "time": 160.37249999999509,
                    "velocity": 0.15748031496062992,
                    "duration": 0.03249999999997044
                },
                {
                    "name": "A6",
                    "midi": 93,
                    "time": 160.38749999999507,
                    "velocity": 0.5039370078740157,
                    "duration": 0.06999999999999318
                },
                {
                    "name": "F#6",
                    "midi": 90,
                    "time": 160.47499999999505,
                    "velocity": 0.41732283464566927,
                    "duration": 0.03750000000002274
                },
                {
                    "name": "C#6",
                    "midi": 85,
                    "time": 160.49499999999506,
                    "velocity": 0.5826771653543307,
                    "duration": 0.05750000000000455
                },
                {
                    "name": "D#7",
                    "midi": 99,
                    "time": 160.79999999999507,
                    "velocity": 0.6220472440944882,
                    "duration": 0.1150000000000091
                },
                {
                    "name": "A#6",
                    "midi": 94,
                    "time": 160.79999999999507,
                    "velocity": 0.6692913385826772,
                    "duration": 0.09499999999999886
                },
                {
                    "name": "A#7",
                    "midi": 106,
                    "time": 160.79999999999507,
                    "velocity": 0.6535433070866141,
                    "duration": 0.09499999999999886
                },
                {
                    "name": "G#3",
                    "midi": 56,
                    "time": 160.80249999999506,
                    "velocity": 0.5669291338582677,
                    "duration": 0.37999999999999545
                },
                {
                    "name": "F#3",
                    "midi": 54,
                    "time": 160.80999999999506,
                    "velocity": 0.5669291338582677,
                    "duration": 0.03499999999999659
                },
                {
                    "name": "A#3",
                    "midi": 58,
                    "time": 161.06749999999508,
                    "velocity": 0.5039370078740157,
                    "duration": 0.44499999999996476
                },
                {
                    "name": "C#4",
                    "midi": 61,
                    "time": 161.16999999999507,
                    "velocity": 0.5354330708661418,
                    "duration": 0.13749999999998863
                },
                {
                    "name": "D#4",
                    "midi": 63,
                    "time": 161.22999999999507,
                    "velocity": 0.5511811023622047,
                    "duration": 0.09999999999999432
                },
                {
                    "name": "F#4",
                    "midi": 66,
                    "time": 161.30249999999506,
                    "velocity": 0.5196850393700787,
                    "duration": 0.0625
                },
                {
                    "name": "G#4",
                    "midi": 68,
                    "time": 161.33999999999506,
                    "velocity": 0.4881889763779528,
                    "duration": 0.10499999999998977
                },
                {
                    "name": "A#4",
                    "midi": 70,
                    "time": 161.39249999999507,
                    "velocity": 0.5196850393700787,
                    "duration": 0.10999999999998522
                },
                {
                    "name": "C#5",
                    "midi": 73,
                    "time": 161.40749999999505,
                    "velocity": 0.5118110236220472,
                    "duration": 0.11249999999998295
                },
                {
                    "name": "F#5",
                    "midi": 78,
                    "time": 161.50499999999505,
                    "velocity": 0.5984251968503937,
                    "duration": 0.0549999999999784
                },
                {
                    "name": "D#5",
                    "midi": 75,
                    "time": 161.51249999999504,
                    "velocity": 0.30708661417322836,
                    "duration": 0.03499999999999659
                },
                {
                    "name": "G#4",
                    "midi": 68,
                    "time": 161.57499999999501,
                    "velocity": 0.5984251968503937,
                    "duration": 0.1899999999999693
                },
                {
                    "name": "A#4",
                    "midi": 70,
                    "time": 161.647499999995,
                    "velocity": 0.5039370078740157,
                    "duration": 0.13249999999996476
                },
                {
                    "name": "C#5",
                    "midi": 73,
                    "time": 161.719999999995,
                    "velocity": 0.5590551181102362,
                    "duration": 0.09749999999996817
                },
                {
                    "name": "D#5",
                    "midi": 75,
                    "time": 161.752499999995,
                    "velocity": 0.5590551181102362,
                    "duration": 0.10249999999996362
                },
                {
                    "name": "F#5",
                    "midi": 78,
                    "time": 161.81249999999497,
                    "velocity": 0.5039370078740157,
                    "duration": 0.06749999999996703
                },
                {
                    "name": "G#5",
                    "midi": 80,
                    "time": 161.81749999999496,
                    "velocity": 0.31496062992125984,
                    "duration": 0.07999999999995566
                },
                {
                    "name": "A#5",
                    "midi": 82,
                    "time": 161.86499999999495,
                    "velocity": 0.5590551181102362,
                    "duration": 0.10749999999995907
                },
                {
                    "name": "C#6",
                    "midi": 85,
                    "time": 161.89249999999493,
                    "velocity": 0.5826771653543307,
                    "duration": 0.10249999999996362
                },
                {
                    "name": "D#6",
                    "midi": 87,
                    "time": 161.9774999999949,
                    "velocity": 0.5590551181102362,
                    "duration": 0.03249999999997044
                },
                {
                    "name": "F#6",
                    "midi": 90,
                    "time": 161.9924999999949,
                    "velocity": 0.6299212598425197,
                    "duration": 0.057499999999976126
                },
                {
                    "name": "G#5",
                    "midi": 80,
                    "time": 162.09999999999488,
                    "velocity": 0.7007874015748031,
                    "duration": 0.08249999999998181
                },
                {
                    "name": "C#6",
                    "midi": 85,
                    "time": 162.10249999999488,
                    "velocity": 0.7086614173228346,
                    "duration": 0.0724999999999909
                },
                {
                    "name": "A#5",
                    "midi": 82,
                    "time": 162.10999999999487,
                    "velocity": 0.5590551181102362,
                    "duration": 0.06749999999999545
                },
                {
                    "name": "D#6",
                    "midi": 87,
                    "time": 162.32499999999487,
                    "velocity": 0.6299212598425197,
                    "duration": 0.060000000000002274
                },
                {
                    "name": "A#6",
                    "midi": 94,
                    "time": 162.32749999999487,
                    "velocity": 0.6299212598425197,
                    "duration": 0.09250000000000114
                },
                {
                    "name": "F#6",
                    "midi": 90,
                    "time": 162.33499999999486,
                    "velocity": 0.5354330708661418,
                    "duration": 0.07250000000001933
                },
                {
                    "name": "G#6",
                    "midi": 92,
                    "time": 162.33749999999486,
                    "velocity": 0.5433070866141733,
                    "duration": 0.07250000000001933
                },
                {
                    "name": "C#6",
                    "midi": 85,
                    "time": 162.46499999999486,
                    "velocity": 0.7322834645669292,
                    "duration": 0.0724999999999909
                },
                {
                    "name": "G#5",
                    "midi": 80,
                    "time": 162.47499999999485,
                    "velocity": 0.6299212598425197,
                    "duration": 0.06999999999999318
                },
                {
                    "name": "A#5",
                    "midi": 82,
                    "time": 162.47499999999485,
                    "velocity": 0.6535433070866141,
                    "duration": 0.06749999999999545
                },
                {
                    "name": "D#6",
                    "midi": 87,
                    "time": 162.59749999999485,
                    "velocity": 0.6614173228346457,
                    "duration": 0.0649999999999693
                },
                {
                    "name": "A#6",
                    "midi": 94,
                    "time": 162.60249999999485,
                    "velocity": 0.6535433070866141,
                    "duration": 0.08749999999997726
                },
                {
                    "name": "G#6",
                    "midi": 92,
                    "time": 162.61249999999484,
                    "velocity": 0.5669291338582677,
                    "duration": 0.0724999999999909
                },
                {
                    "name": "F#6",
                    "midi": 90,
                    "time": 162.61499999999484,
                    "velocity": 0.4645669291338583,
                    "duration": 0.037499999999994316
                },
                {
                    "name": "C#6",
                    "midi": 85,
                    "time": 162.71749999999483,
                    "velocity": 0.7165354330708661,
                    "duration": 0.06999999999999318
                },
                {
                    "name": "A#5",
                    "midi": 82,
                    "time": 162.72249999999482,
                    "velocity": 0.6692913385826772,
                    "duration": 0.0625
                },
                {
                    "name": "G#5",
                    "midi": 80,
                    "time": 162.72499999999482,
                    "velocity": 0.6377952755905512,
                    "duration": 0.0625
                },
                {
                    "name": "D#6",
                    "midi": 87,
                    "time": 162.81749999999482,
                    "velocity": 0.6850393700787402,
                    "duration": 0.06749999999996703
                },
                {
                    "name": "A#6",
                    "midi": 94,
                    "time": 162.81999999999482,
                    "velocity": 0.6377952755905512,
                    "duration": 0.09499999999997044
                },
                {
                    "name": "G#6",
                    "midi": 92,
                    "time": 162.82499999999482,
                    "velocity": 0.5433070866141733,
                    "duration": 0.06999999999996476
                },
                {
                    "name": "F#6",
                    "midi": 90,
                    "time": 162.8349999999948,
                    "velocity": 0.5196850393700787,
                    "duration": 0.03999999999999204
                },
                {
                    "name": "C#6",
                    "midi": 85,
                    "time": 162.9199999999948,
                    "velocity": 0.6771653543307087,
                    "duration": 0.07499999999998863
                },
                {
                    "name": "A#5",
                    "midi": 82,
                    "time": 162.92749999999478,
                    "velocity": 0.6299212598425197,
                    "duration": 0.06749999999999545
                },
                {
                    "name": "G#5",
                    "midi": 80,
                    "time": 162.92999999999478,
                    "velocity": 0.6141732283464567,
                    "duration": 0.06999999999999318
                },
                {
                    "name": "D#6",
                    "midi": 87,
                    "time": 163.00249999999477,
                    "velocity": 0.6692913385826772,
                    "duration": 0.0724999999999909
                },
                {
                    "name": "A#6",
                    "midi": 94,
                    "time": 163.00999999999476,
                    "velocity": 0.5511811023622047,
                    "duration": 0.08500000000000796
                },
                {
                    "name": "G#6",
                    "midi": 92,
                    "time": 163.00999999999476,
                    "velocity": 0.6299212598425197,
                    "duration": 0.06749999999999545
                },
                {
                    "name": "F#6",
                    "midi": 90,
                    "time": 163.01499999999476,
                    "velocity": 0.5118110236220472,
                    "duration": 0.03499999999999659
                },
                {
                    "name": "C#6",
                    "midi": 85,
                    "time": 163.10249999999476,
                    "velocity": 0.7086614173228346,
                    "duration": 0.06499999999999773
                },
                {
                    "name": "A#5",
                    "midi": 82,
                    "time": 163.10499999999476,
                    "velocity": 0.7165354330708661,
                    "duration": 0.06499999999999773
                },
                {
                    "name": "G#5",
                    "midi": 80,
                    "time": 163.10749999999476,
                    "velocity": 0.6299212598425197,
                    "duration": 0.052500000000009095
                },
                {
                    "name": "F#6",
                    "midi": 90,
                    "time": 163.19999999999476,
                    "velocity": 0.5354330708661418,
                    "duration": 0.017500000000012506
                },
                {
                    "name": "D#6",
                    "midi": 87,
                    "time": 163.19999999999476,
                    "velocity": 0.6377952755905512,
                    "duration": 0.030000000000001137
                },
                {
                    "name": "G#6",
                    "midi": 92,
                    "time": 163.19999999999476,
                    "velocity": 0.5826771653543307,
                    "duration": 0.04750000000001364
                },
                {
                    "name": "A#6",
                    "midi": 94,
                    "time": 163.19999999999476,
                    "velocity": 0.5984251968503937,
                    "duration": 0.05500000000000682
                },
                {
                    "name": "C#6",
                    "midi": 85,
                    "time": 163.25999999999476,
                    "velocity": 0.6929133858267716,
                    "duration": 0.06749999999999545
                },
                {
                    "name": "A#5",
                    "midi": 82,
                    "time": 163.26249999999476,
                    "velocity": 0.6692913385826772,
                    "duration": 0.05500000000000682
                },
                {
                    "name": "G#5",
                    "midi": 80,
                    "time": 163.26499999999476,
                    "velocity": 0.6299212598425197,
                    "duration": 0.06499999999999773
                },
                {
                    "name": "G#6",
                    "midi": 92,
                    "time": 163.32999999999475,
                    "velocity": 0.5984251968503937,
                    "duration": 0.07499999999998863
                },
                {
                    "name": "A#6",
                    "midi": 94,
                    "time": 163.33249999999475,
                    "velocity": 0.6220472440944882,
                    "duration": 0.08249999999998181
                },
                {
                    "name": "D#6",
                    "midi": 87,
                    "time": 163.33499999999475,
                    "velocity": 0.6614173228346457,
                    "duration": 0.060000000000002274
                },
                {
                    "name": "F#6",
                    "midi": 90,
                    "time": 163.33499999999475,
                    "velocity": 0.5826771653543307,
                    "duration": 0.060000000000002274
                },
                {
                    "name": "C#6",
                    "midi": 85,
                    "time": 163.42499999999472,
                    "velocity": 0.6692913385826772,
                    "duration": 0.06499999999999773
                },
                {
                    "name": "G#5",
                    "midi": 80,
                    "time": 163.42749999999472,
                    "velocity": 0.6220472440944882,
                    "duration": 0.06499999999999773
                },
                {
                    "name": "A#5",
                    "midi": 82,
                    "time": 163.42999999999472,
                    "velocity": 0.6614173228346457,
                    "duration": 0.03499999999999659
                },
                {
                    "name": "A#6",
                    "midi": 94,
                    "time": 163.49249999999472,
                    "velocity": 0.6614173228346457,
                    "duration": 0.08249999999998181
                },
                {
                    "name": "G#6",
                    "midi": 92,
                    "time": 163.49499999999472,
                    "velocity": 0.5669291338582677,
                    "duration": 0.07999999999998408
                },
                {
                    "name": "D#6",
                    "midi": 87,
                    "time": 163.49499999999472,
                    "velocity": 0.6692913385826772,
                    "duration": 0.06999999999999318
                },
                {
                    "name": "F#6",
                    "midi": 90,
                    "time": 163.5099999999947,
                    "velocity": 0.5748031496062992,
                    "duration": 0.05000000000001137
                },
                {
                    "name": "C#6",
                    "midi": 85,
                    "time": 163.5774999999947,
                    "velocity": 0.6850393700787402,
                    "duration": 0.06999999999999318
                },
                {
                    "name": "G#5",
                    "midi": 80,
                    "time": 163.5849999999947,
                    "velocity": 0.6456692913385826,
                    "duration": 0.06499999999999773
                },
                {
                    "name": "A#5",
                    "midi": 82,
                    "time": 163.5849999999947,
                    "velocity": 0.6614173228346457,
                    "duration": 0.03999999999999204
                },
                {
                    "name": "A#6",
                    "midi": 94,
                    "time": 163.6549999999947,
                    "velocity": 0.6141732283464567,
                    "duration": 0.08999999999997499
                },
                {
                    "name": "D#6",
                    "midi": 87,
                    "time": 163.65749999999468,
                    "velocity": 0.6535433070866141,
                    "duration": 0.06999999999999318
                },
                {
                    "name": "G#6",
                    "midi": 92,
                    "time": 163.65999999999468,
                    "velocity": 0.5590551181102362,
                    "duration": 0.07499999999998863
                },
                {
                    "name": "F#6",
                    "midi": 90,
                    "time": 163.66749999999467,
                    "velocity": 0.5826771653543307,
                    "duration": 0.0625
                },
                {
                    "name": "C#6",
                    "midi": 85,
                    "time": 163.73749999999467,
                    "velocity": 0.6614173228346457,
                    "duration": 0.07499999999998863
                },
                {
                    "name": "A#5",
                    "midi": 82,
                    "time": 163.73999999999467,
                    "velocity": 0.7165354330708661,
                    "duration": 0.05500000000000682
                },
                {
                    "name": "G#5",
                    "midi": 80,
                    "time": 163.74499999999466,
                    "velocity": 0.6299212598425197,
                    "duration": 0.0724999999999909
                },
                {
                    "name": "A#6",
                    "midi": 94,
                    "time": 163.80999999999466,
                    "velocity": 0.6377952755905512,
                    "duration": 0.09499999999997044
                },
                {
                    "name": "D#6",
                    "midi": 87,
                    "time": 163.81249999999466,
                    "velocity": 0.6377952755905512,
                    "duration": 0.07499999999998863
                },
                {
                    "name": "G#6",
                    "midi": 92,
                    "time": 163.81499999999465,
                    "velocity": 0.5669291338582677,
                    "duration": 0.07999999999998408
                },
                {
                    "name": "F#6",
                    "midi": 90,
                    "time": 163.82499999999465,
                    "velocity": 0.5275590551181102,
                    "duration": 0.06999999999999318
                },
                {
                    "name": "C#6",
                    "midi": 85,
                    "time": 163.89749999999464,
                    "velocity": 0.6614173228346457,
                    "duration": 0.07499999999998863
                },
                {
                    "name": "A#5",
                    "midi": 82,
                    "time": 163.90749999999463,
                    "velocity": 0.6456692913385826,
                    "duration": 0.03999999999999204
                },
                {
                    "name": "G#5",
                    "midi": 80,
                    "time": 163.90749999999463,
                    "velocity": 0.5826771653543307,
                    "duration": 0.06749999999999545
                },
                {
                    "name": "A#6",
                    "midi": 94,
                    "time": 163.96999999999463,
                    "velocity": 0.6614173228346457,
                    "duration": 0.09749999999996817
                },
                {
                    "name": "D#6",
                    "midi": 87,
                    "time": 163.97499999999462,
                    "velocity": 0.6377952755905512,
                    "duration": 0.07999999999998408
                },
                {
                    "name": "G#6",
                    "midi": 92,
                    "time": 163.97499999999462,
                    "velocity": 0.5826771653543307,
                    "duration": 0.08249999999998181
                },
                {
                    "name": "F#6",
                    "midi": 90,
                    "time": 163.97999999999462,
                    "velocity": 0.5196850393700787,
                    "duration": 0.07999999999998408
                },
                {
                    "name": "C#6",
                    "midi": 85,
                    "time": 164.0599999999946,
                    "velocity": 0.7086614173228346,
                    "duration": 0.07499999999998863
                },
                {
                    "name": "A#5",
                    "midi": 82,
                    "time": 164.0699999999946,
                    "velocity": 0.7007874015748031,
                    "duration": 0.05500000000000682
                },
                {
                    "name": "G#5",
                    "midi": 80,
                    "time": 164.0724999999946,
                    "velocity": 0.6299212598425197,
                    "duration": 0.06499999999999773
                },
                {
                    "name": "G#6",
                    "midi": 92,
                    "time": 164.1374999999946,
                    "velocity": 0.6456692913385826,
                    "duration": 0.09499999999997044
                },
                {
                    "name": "A#6",
                    "midi": 94,
                    "time": 164.1374999999946,
                    "velocity": 0.6771653543307087,
                    "duration": 0.09749999999996817
                },
                {
                    "name": "D#6",
                    "midi": 87,
                    "time": 164.1399999999946,
                    "velocity": 0.7007874015748031,
                    "duration": 0.07499999999998863
                },
                {
                    "name": "F#6",
                    "midi": 90,
                    "time": 164.14999999999458,
                    "velocity": 0.5905511811023622,
                    "duration": 0.07999999999998408
                },
                {
                    "name": "C#6",
                    "midi": 85,
                    "time": 164.22749999999456,
                    "velocity": 0.7480314960629921,
                    "duration": 0.07749999999998636
                },
                {
                    "name": "A#5",
                    "midi": 82,
                    "time": 164.23499999999456,
                    "velocity": 0.7244094488188977,
                    "duration": 0.0625
                },
                {
                    "name": "G#5",
                    "midi": 80,
                    "time": 164.23749999999455,
                    "velocity": 0.6692913385826772,
                    "duration": 0.0625
                },
                {
                    "name": "A#6",
                    "midi": 94,
                    "time": 164.29999999999455,
                    "velocity": 0.7007874015748031,
                    "duration": 0.10499999999996135
                },
                {
                    "name": "G#6",
                    "midi": 92,
                    "time": 164.30499999999455,
                    "velocity": 0.6535433070866141,
                    "duration": 0.08749999999997726
                },
                {
                    "name": "D#6",
                    "midi": 87,
                    "time": 164.30749999999455,
                    "velocity": 0.6850393700787402,
                    "duration": 0.07499999999998863
                },
                {
                    "name": "F#6",
                    "midi": 90,
                    "time": 164.31249999999454,
                    "velocity": 0.5826771653543307,
                    "duration": 0.08249999999998181
                },
                {
                    "name": "C#6",
                    "midi": 85,
                    "time": 164.39499999999452,
                    "velocity": 0.7086614173228346,
                    "duration": 0.06999999999999318
                },
                {
                    "name": "A#5",
                    "midi": 82,
                    "time": 164.40499999999452,
                    "velocity": 0.7086614173228346,
                    "duration": 0.060000000000002274
                },
                {
                    "name": "G#5",
                    "midi": 80,
                    "time": 164.40499999999452,
                    "velocity": 0.6692913385826772,
                    "duration": 0.060000000000002274
                },
                {
                    "name": "D#6",
                    "midi": 87,
                    "time": 164.4749999999945,
                    "velocity": 0.7165354330708661,
                    "duration": 0.07999999999998408
                },
                {
                    "name": "A#6",
                    "midi": 94,
                    "time": 164.4749999999945,
                    "velocity": 0.6771653543307087,
                    "duration": 0.09749999999996817
                },
                {
                    "name": "G#6",
                    "midi": 92,
                    "time": 164.4774999999945,
                    "velocity": 0.6850393700787402,
                    "duration": 0.08749999999997726
                },
                {
                    "name": "F#6",
                    "midi": 90,
                    "time": 164.4849999999945,
                    "velocity": 0.5905511811023622,
                    "duration": 0.07749999999998636
                },
                {
                    "name": "C#6",
                    "midi": 85,
                    "time": 164.5499999999945,
                    "velocity": 0.7165354330708661,
                    "duration": 0.0549999999999784
                },
                {
                    "name": "G#5",
                    "midi": 80,
                    "time": 164.5524999999945,
                    "velocity": 0.6771653543307087,
                    "duration": 0.05999999999997385
                },
                {
                    "name": "A#5",
                    "midi": 82,
                    "time": 164.5549999999945,
                    "velocity": 0.6614173228346457,
                    "duration": 0.03249999999997044
                },
                {
                    "name": "A#6",
                    "midi": 94,
                    "time": 164.64499999999447,
                    "velocity": 0.7165354330708661,
                    "duration": 0.09499999999997044
                },
                {
                    "name": "D#6",
                    "midi": 87,
                    "time": 164.64749999999447,
                    "velocity": 0.7480314960629921,
                    "duration": 0.04999999999998295
                },
                {
                    "name": "G#6",
                    "midi": 92,
                    "time": 164.64749999999447,
                    "velocity": 0.6614173228346457,
                    "duration": 0.07749999999998636
                },
                {
                    "name": "F#6",
                    "midi": 90,
                    "time": 164.65499999999446,
                    "velocity": 0.6377952755905512,
                    "duration": 0.060000000000002274
                },
                {
                    "name": "A#7",
                    "midi": 106,
                    "time": 164.93499999999443,
                    "velocity": 0.8661417322834646,
                    "duration": 0.2524999999999977
                },
                {
                    "name": "G#7",
                    "midi": 104,
                    "time": 165.20499999999444,
                    "velocity": 0.09448818897637795,
                    "duration": 0.0800000000000125
                },
                {
                    "name": "F#7",
                    "midi": 102,
                    "time": 165.26499999999444,
                    "velocity": 0.2047244094488189,
                    "duration": 0.06999999999999318
                },
                {
                    "name": "D#7",
                    "midi": 99,
                    "time": 165.32249999999445,
                    "velocity": 0.5826771653543307,
                    "duration": 0.06999999999999318
                },
                {
                    "name": "C#7",
                    "midi": 97,
                    "time": 165.36999999999443,
                    "velocity": 0.5354330708661418,
                    "duration": 0.0625
                },
                {
                    "name": "A#6",
                    "midi": 94,
                    "time": 165.42499999999444,
                    "velocity": 0.6299212598425197,
                    "duration": 0.060000000000002274
                },
                {
                    "name": "G#6",
                    "midi": 92,
                    "time": 165.46249999999444,
                    "velocity": 0.5590551181102362,
                    "duration": 0.060000000000002274
                },
                {
                    "name": "F#6",
                    "midi": 90,
                    "time": 165.49749999999443,
                    "velocity": 0.5669291338582677,
                    "duration": 0.0625
                },
                {
                    "name": "C#6",
                    "midi": 85,
                    "time": 165.59999999999442,
                    "velocity": 0.5826771653543307,
                    "duration": 0.04999999999998295
                },
                {
                    "name": "D#6",
                    "midi": 87,
                    "time": 165.59999999999442,
                    "velocity": 0.5669291338582677,
                    "duration": 0.014999999999986358
                },
                {
                    "name": "A#5",
                    "midi": 82,
                    "time": 165.6449999999944,
                    "velocity": 0.5590551181102362,
                    "duration": 0.04999999999998295
                },
                {
                    "name": "G#5",
                    "midi": 80,
                    "time": 165.6849999999944,
                    "velocity": 0.4881889763779528,
                    "duration": 0.044999999999987494
                },
                {
                    "name": "F#5",
                    "midi": 78,
                    "time": 165.7149999999944,
                    "velocity": 0.5275590551181102,
                    "duration": 0.04249999999998977
                },
                {
                    "name": "D#5",
                    "midi": 75,
                    "time": 165.7574999999944,
                    "velocity": 0.49606299212598426,
                    "duration": 0.04249999999998977
                },
                {
                    "name": "C#5",
                    "midi": 73,
                    "time": 165.7899999999944,
                    "velocity": 0.4409448818897638,
                    "duration": 0.04249999999998977
                },
                {
                    "name": "A#4",
                    "midi": 70,
                    "time": 165.8274999999944,
                    "velocity": 0.5039370078740157,
                    "duration": 0.04249999999998977
                },
                {
                    "name": "G#4",
                    "midi": 68,
                    "time": 165.8574999999944,
                    "velocity": 0.5275590551181102,
                    "duration": 0.042499999999961346
                },
                {
                    "name": "F#4",
                    "midi": 66,
                    "time": 165.88499999999436,
                    "velocity": 0.49606299212598426,
                    "duration": 0.04249999999998977
                },
                {
                    "name": "D#4",
                    "midi": 63,
                    "time": 165.92499999999436,
                    "velocity": 0.48031496062992124,
                    "duration": 0.04249999999998977
                },
                {
                    "name": "C#4",
                    "midi": 61,
                    "time": 165.95499999999436,
                    "velocity": 0.5354330708661418,
                    "duration": 0.03999999999999204
                },
                {
                    "name": "A#3",
                    "midi": 58,
                    "time": 166.00999999999433,
                    "velocity": 0.25196850393700787,
                    "duration": 0.03499999999999659
                },
                {
                    "name": "G#3",
                    "midi": 56,
                    "time": 166.02499999999432,
                    "velocity": 0.6062992125984252,
                    "duration": 0.03499999999999659
                },
                {
                    "name": "F#3",
                    "midi": 54,
                    "time": 166.05249999999432,
                    "velocity": 0.5433070866141733,
                    "duration": 0.03249999999999886
                },
                {
                    "name": "D#3",
                    "midi": 51,
                    "time": 166.0999999999943,
                    "velocity": 0.33070866141732286,
                    "duration": 0.03499999999999659
                },
                {
                    "name": "C#3",
                    "midi": 49,
                    "time": 166.12499999999432,
                    "velocity": 0.5590551181102362,
                    "duration": 0.060000000000002274
                },
                {
                    "name": "G#2",
                    "midi": 44,
                    "time": 166.2849999999943,
                    "velocity": 0.7007874015748031,
                    "duration": 0.37000000000000455
                },
                {
                    "name": "C#3",
                    "midi": 49,
                    "time": 166.43749999999432,
                    "velocity": 0.5354330708661418,
                    "duration": 0.15749999999999886
                },
                {
                    "name": "D#3",
                    "midi": 51,
                    "time": 166.5699999999943,
                    "velocity": 0.4330708661417323,
                    "duration": 0.08250000000001023
                },
                {
                    "name": "F#3",
                    "midi": 54,
                    "time": 166.6274999999943,
                    "velocity": 0.5039370078740157,
                    "duration": 0.11750000000000682
                },
                {
                    "name": "A#3",
                    "midi": 58,
                    "time": 166.74999999999432,
                    "velocity": 0.5511811023622047,
                    "duration": 0.125
                },
                {
                    "name": "G#1",
                    "midi": 32,
                    "time": 166.7524999999943,
                    "velocity": 0.5905511811023622,
                    "duration": 0.12250000000000227
                },
                {
                    "name": "F#3",
                    "midi": 54,
                    "time": 166.87249999999432,
                    "velocity": 0.3937007874015748,
                    "duration": 0.1074999999999875
                },
                {
                    "name": "D#3",
                    "midi": 51,
                    "time": 166.9499999999943,
                    "velocity": 0.4409448818897638,
                    "duration": 0.125
                },
                {
                    "name": "C#3",
                    "midi": 49,
                    "time": 167.0699999999943,
                    "velocity": 0.5275590551181102,
                    "duration": 0.1074999999999875
                },
                {
                    "name": "A0",
                    "midi": 21,
                    "time": 167.1849999999943,
                    "velocity": 0.7244094488188977,
                    "duration": 0.3074999999999761
                },
                {
                    "name": "C#3",
                    "midi": 49,
                    "time": 167.34749999999426,
                    "velocity": 0.48031496062992124,
                    "duration": 0.09000000000000341
                },
                {
                    "name": "D#3",
                    "midi": 51,
                    "time": 167.44249999999425,
                    "velocity": 0.4881889763779528,
                    "duration": 0.13500000000001933
                },
                {
                    "name": "F#3",
                    "midi": 54,
                    "time": 167.52749999999426,
                    "velocity": 0.4330708661417323,
                    "duration": 0.10999999999998522
                },
                {
                    "name": "A#3",
                    "midi": 58,
                    "time": 167.62249999999426,
                    "velocity": 0.4881889763779528,
                    "duration": 0.14249999999998408
                },
                {
                    "name": "F#3",
                    "midi": 54,
                    "time": 167.76249999999425,
                    "velocity": 0.3700787401574803,
                    "duration": 0.11250000000001137
                },
                {
                    "name": "D#3",
                    "midi": 51,
                    "time": 167.84749999999426,
                    "velocity": 0.3700787401574803,
                    "duration": 0.11250000000001137
                },
                {
                    "name": "C#3",
                    "midi": 49,
                    "time": 167.99999999999426,
                    "velocity": 0.4409448818897638,
                    "duration": 0.017500000000012506
                },
                {
                    "name": "G#2",
                    "midi": 44,
                    "time": 168.07249999999428,
                    "velocity": 0.4251968503937008,
                    "duration": 0.1699999999999875
                },
                {
                    "name": "C#3",
                    "midi": 49,
                    "time": 168.20249999999427,
                    "velocity": 0.3937007874015748,
                    "duration": 0.12250000000000227
                },
                {
                    "name": "D#3",
                    "midi": 51,
                    "time": 168.29999999999427,
                    "velocity": 0.3700787401574803,
                    "duration": 0.09499999999999886
                },
                {
                    "name": "F#3",
                    "midi": 54,
                    "time": 168.38749999999428,
                    "velocity": 0.3858267716535433,
                    "duration": 0.08499999999997954
                },
                {
                    "name": "A#3",
                    "midi": 58,
                    "time": 168.48749999999424,
                    "velocity": 0.3858267716535433,
                    "duration": 0.12000000000000455
                },
                {
                    "name": "F#3",
                    "midi": 54,
                    "time": 168.61999999999423,
                    "velocity": 0.2440944881889764,
                    "duration": 0.08500000000000796
                },
                {
                    "name": "D#3",
                    "midi": 51,
                    "time": 168.71249999999424,
                    "velocity": 0.36220472440944884,
                    "duration": 0.1349999999999909
                },
                {
                    "name": "C#3",
                    "midi": 49,
                    "time": 168.85249999999422,
                    "velocity": 0.2440944881889764,
                    "duration": 0.03499999999999659
                },
                {
                    "name": "G#2",
                    "midi": 44,
                    "time": 168.90749999999423,
                    "velocity": 0.4094488188976378,
                    "duration": 0.13999999999998636
                },
                {
                    "name": "C#3",
                    "midi": 49,
                    "time": 169.06749999999423,
                    "velocity": 0.15748031496062992,
                    "duration": 0.06749999999999545
                },
                {
                    "name": "D#3",
                    "midi": 51,
                    "time": 169.1449999999942,
                    "velocity": 0.2755905511811024,
                    "duration": 0.052500000000009095
                },
                {
                    "name": "F#3",
                    "midi": 54,
                    "time": 169.24499999999423,
                    "velocity": 0.3228346456692913,
                    "duration": 0.07499999999998863
                },
                {
                    "name": "A#3",
                    "midi": 58,
                    "time": 169.35749999999422,
                    "velocity": 0.23622047244094488,
                    "duration": 0.11000000000001364
                },
                {
                    "name": "F#3",
                    "midi": 54,
                    "time": 169.48499999999424,
                    "velocity": 0.23622047244094488,
                    "duration": 0.052500000000009095
                },
                {
                    "name": "D#3",
                    "midi": 51,
                    "time": 169.58499999999427,
                    "velocity": 0.2440944881889764,
                    "duration": 0.06999999999999318
                },
                {
                    "name": "C#3",
                    "midi": 49,
                    "time": 169.66999999999425,
                    "velocity": 0.30708661417322836,
                    "duration": 0.09499999999999886
                },
                {
                    "name": "G#2",
                    "midi": 44,
                    "time": 169.80499999999424,
                    "velocity": 0.36220472440944884,
                    "duration": 0.12000000000000455
                },
                {
                    "name": "D#3",
                    "midi": 51,
                    "time": 170.02999999999423,
                    "velocity": 0.25984251968503935,
                    "duration": 0.06749999999999545
                },
                {
                    "name": "F#3",
                    "midi": 54,
                    "time": 170.13499999999422,
                    "velocity": 0.29133858267716534,
                    "duration": 0.0800000000000125
                },
                {
                    "name": "A#3",
                    "midi": 58,
                    "time": 170.25499999999423,
                    "velocity": 0.2047244094488189,
                    "duration": 0.10249999999999204
                },
                {
                    "name": "F#3",
                    "midi": 54,
                    "time": 170.3999999999942,
                    "velocity": 0.13385826771653545,
                    "duration": 0.07499999999998863
                },
                {
                    "name": "D#3",
                    "midi": 51,
                    "time": 170.5249999999942,
                    "velocity": 0.2677165354330709,
                    "duration": 0.08500000000000796
                },
                {
                    "name": "C#3",
                    "midi": 49,
                    "time": 170.6449999999942,
                    "velocity": 0.25196850393700787,
                    "duration": 0.08250000000001023
                },
                {
                    "name": "G#2",
                    "midi": 44,
                    "time": 170.7774999999942,
                    "velocity": 0.33070866141732286,
                    "duration": 0.1425000000000125
                },
                {
                    "name": "C#3",
                    "midi": 49,
                    "time": 170.94499999999422,
                    "velocity": 0.2992125984251969,
                    "duration": 0.12999999999999545
                },
                {
                    "name": "D#3",
                    "midi": 51,
                    "time": 171.07499999999422,
                    "velocity": 0.1968503937007874,
                    "duration": 0.09000000000000341
                },
                {
                    "name": "F#3",
                    "midi": 54,
                    "time": 171.18499999999423,
                    "velocity": 0.15748031496062992,
                    "duration": 0.08500000000000796
                },
                {
                    "name": "A#3",
                    "midi": 58,
                    "time": 171.32249999999425,
                    "velocity": 0.28346456692913385,
                    "duration": 0.12999999999999545
                },
                {
                    "name": "F#3",
                    "midi": 54,
                    "time": 171.47999999999425,
                    "velocity": 0.25196850393700787,
                    "duration": 0.12999999999999545
                },
                {
                    "name": "D#3",
                    "midi": 51,
                    "time": 171.66249999999425,
                    "velocity": 0.1732283464566929,
                    "duration": 0.08250000000001023
                },
                {
                    "name": "C#3",
                    "midi": 49,
                    "time": 171.78499999999426,
                    "velocity": 0.2677165354330709,
                    "duration": 0.16249999999999432
                },
                {
                    "name": "G#2",
                    "midi": 44,
                    "time": 171.98999999999424,
                    "velocity": 0.3858267716535433,
                    "duration": 0.16249999999993747
                },
                {
                    "name": "D#4",
                    "midi": 63,
                    "time": 172.00249999999423,
                    "velocity": 0.30708661417322836,
                    "duration": 0.4599999999999511
                },
                {
                    "name": "A#3",
                    "midi": 58,
                    "time": 172.01749999999421,
                    "velocity": 0.15748031496062992,
                    "duration": 0.16749999999996135
                },
                {
                    "name": "C#3",
                    "midi": 49,
                    "time": 172.19249999999417,
                    "velocity": 0.13385826771653545,
                    "duration": 0.05750000000000455
                },
                {
                    "name": "F#3",
                    "midi": 54,
                    "time": 172.28249999999417,
                    "velocity": 0.2125984251968504,
                    "duration": 0.05000000000001137
                },
                {
                    "name": "C4",
                    "midi": 60,
                    "time": 172.50499999999417,
                    "velocity": 0.31496062992125984,
                    "duration": 0.18500000000000227
                },
                {
                    "name": "F4",
                    "midi": 65,
                    "time": 172.51499999999416,
                    "velocity": 0.3464566929133858,
                    "duration": 0.4900000000000091
                },
                {
                    "name": "F#3",
                    "midi": 54,
                    "time": 172.79999999999418,
                    "velocity": 0.2440944881889764,
                    "duration": 0.022500000000007958
                },
                {
                    "name": "G#2",
                    "midi": 44,
                    "time": 172.95999999999418,
                    "velocity": 0.29133858267716534,
                    "duration": 0.15249999999994657
                },
                {
                    "name": "D4",
                    "midi": 62,
                    "time": 172.96749999999417,
                    "velocity": 0.4409448818897638,
                    "duration": 0.1549999999999443
                },
                {
                    "name": "A3",
                    "midi": 57,
                    "time": 172.98249999999416,
                    "velocity": 0.3543307086614173,
                    "duration": 0.14249999999995566
                },
                {
                    "name": "F#3",
                    "midi": 54,
                    "time": 173.2299999999941,
                    "velocity": 0.2677165354330709,
                    "duration": 0.09499999999999886
                },
                {
                    "name": "A3",
                    "midi": 57,
                    "time": 173.3924999999941,
                    "velocity": 0.33858267716535434,
                    "duration": 0.04999999999998295
                },
                {
                    "name": "A4",
                    "midi": 69,
                    "time": 173.4049999999941,
                    "velocity": 0.4251968503937008,
                    "duration": 0.08499999999997954
                },
                {
                    "name": "F#4",
                    "midi": 66,
                    "time": 173.41999999999408,
                    "velocity": 0.2440944881889764,
                    "duration": 0.037499999999994316
                },
                {
                    "name": "D4",
                    "midi": 62,
                    "time": 173.64999999999407,
                    "velocity": 0.44881889763779526,
                    "duration": 0.10999999999998522
                },
                {
                    "name": "A3",
                    "midi": 57,
                    "time": 173.66499999999405,
                    "velocity": 0.2755905511811024,
                    "duration": 0.05500000000000682
                },
                {
                    "name": "D#4",
                    "midi": 63,
                    "time": 173.95749999999404,
                    "velocity": 0.4409448818897638,
                    "duration": 0.45499999999995566
                },
                {
                    "name": "A#3",
                    "midi": 58,
                    "time": 173.96499999999403,
                    "velocity": 0.3464566929133858,
                    "duration": 0.07249999999996248
                },
                {
                    "name": "G#2",
                    "midi": 44,
                    "time": 174.022499999994,
                    "velocity": 0.3779527559055118,
                    "duration": 0.1449999999999534
                },
                {
                    "name": "C#3",
                    "midi": 49,
                    "time": 174.19749999999397,
                    "velocity": 0.25984251968503935,
                    "duration": 0.05750000000000455
                },
                {
                    "name": "F#3",
                    "midi": 54,
                    "time": 174.27249999999398,
                    "velocity": 0.29133858267716534,
                    "duration": 0.09000000000000341
                },
                {
                    "name": "A#3",
                    "midi": 58,
                    "time": 174.432499999994,
                    "velocity": 0.2125984251968504,
                    "duration": 0.2050000000000125
                },
                {
                    "name": "F4",
                    "midi": 65,
                    "time": 174.44999999999402,
                    "velocity": 0.4566929133858268,
                    "duration": 0.4724999999999966
                },
                {
                    "name": "C4",
                    "midi": 60,
                    "time": 174.47249999999403,
                    "velocity": 0.4330708661417323,
                    "duration": 0.3149999999999977
                },
                {
                    "name": "F#3",
                    "midi": 54,
                    "time": 174.75249999999403,
                    "velocity": 0.15748031496062992,
                    "duration": 0.08500000000000796
                },
                {
                    "name": "G#2",
                    "midi": 44,
                    "time": 174.90749999999403,
                    "velocity": 0.36220472440944884,
                    "duration": 0.14749999999995111
                },
                {
                    "name": "D4",
                    "midi": 62,
                    "time": 174.91249999999403,
                    "velocity": 0.41732283464566927,
                    "duration": 0.32749999999995794
                },
                {
                    "name": "A3",
                    "midi": 57,
                    "time": 174.934999999994,
                    "velocity": 0.1889763779527559,
                    "duration": 0.2424999999999784
                },
                {
                    "name": "D3",
                    "midi": 50,
                    "time": 175.11249999999396,
                    "velocity": 0.15748031496062992,
                    "duration": 0.04750000000001364
                },
                {
                    "name": "F#3",
                    "midi": 54,
                    "time": 175.199999999994,
                    "velocity": 0.30708661417322836,
                    "duration": 0.04249999999998977
                },
                {
                    "name": "A3",
                    "midi": 57,
                    "time": 175.27499999999398,
                    "velocity": 0.2992125984251969,
                    "duration": 0.09999999999999432
                },
                {
                    "name": "C4",
                    "midi": 60,
                    "time": 175.39499999999398,
                    "velocity": 0.4251968503937008,
                    "duration": 0.0800000000000125
                },
                {
                    "name": "A3",
                    "midi": 57,
                    "time": 175.534999999994,
                    "velocity": 0.4330708661417323,
                    "duration": 0.11000000000001364
                },
                {
                    "name": "F#3",
                    "midi": 54,
                    "time": 175.677499999994,
                    "velocity": 0.2204724409448819,
                    "duration": 0.0800000000000125
                },
                {
                    "name": "D3",
                    "midi": 50,
                    "time": 175.79499999999402,
                    "velocity": 0.3464566929133858,
                    "duration": 0.05500000000000682
                },
                {
                    "name": "G#2",
                    "midi": 44,
                    "time": 175.97499999999403,
                    "velocity": 0.31496062992125984,
                    "duration": 0.1299999999999386
                },
                {
                    "name": "D#5",
                    "midi": 75,
                    "time": 175.994999999994,
                    "velocity": 0.48031496062992124,
                    "duration": 0.4474999999999625
                },
                {
                    "name": "D#4",
                    "midi": 63,
                    "time": 176.014999999994,
                    "velocity": 0.29133858267716534,
                    "duration": 0.45999999999997954
                },
                {
                    "name": "A#4",
                    "midi": 70,
                    "time": 176.039999999994,
                    "velocity": 0.25196850393700787,
                    "duration": 0.43499999999997385
                },
                {
                    "name": "C#3",
                    "midi": 49,
                    "time": 176.15499999999395,
                    "velocity": 0.15748031496062992,
                    "duration": 0.04750000000001364
                },
                {
                    "name": "F#3",
                    "midi": 54,
                    "time": 176.20499999999396,
                    "velocity": 0.2125984251968504,
                    "duration": 0.06749999999999545
                },
                {
                    "name": "A#3",
                    "midi": 58,
                    "time": 176.32499999999396,
                    "velocity": 0.2677165354330709,
                    "duration": 0.06999999999999318
                },
                {
                    "name": "F5",
                    "midi": 77,
                    "time": 176.49499999999398,
                    "velocity": 0.48031496062992124,
                    "duration": 0.13999999999998636
                },
                {
                    "name": "C5",
                    "midi": 72,
                    "time": 176.50999999999397,
                    "velocity": 0.36220472440944884,
                    "duration": 0.28999999999999204
                },
                {
                    "name": "F#3",
                    "midi": 54,
                    "time": 176.80999999999395,
                    "velocity": 0.1968503937007874,
                    "duration": 0.060000000000002274
                },
                {
                    "name": "D3",
                    "midi": 50,
                    "time": 176.90499999999395,
                    "velocity": 0.29133858267716534,
                    "duration": 0.05249999999998067
                },
                {
                    "name": "D4",
                    "midi": 62,
                    "time": 176.97499999999394,
                    "velocity": 0.3937007874015748,
                    "duration": 0.07749999999998636
                },
                {
                    "name": "D5",
                    "midi": 74,
                    "time": 176.97999999999394,
                    "velocity": 0.4409448818897638,
                    "duration": 0.11499999999998067
                },
                {
                    "name": "A4",
                    "midi": 69,
                    "time": 177.00499999999394,
                    "velocity": 0.2283464566929134,
                    "duration": 0.05249999999998067
                },
                {
                    "name": "G#2",
                    "midi": 44,
                    "time": 177.01499999999393,
                    "velocity": 0.3543307086614173,
                    "duration": 0.09999999999999432
                },
                {
                    "name": "F#3",
                    "midi": 54,
                    "time": 177.26499999999393,
                    "velocity": 0.33858267716535434,
                    "duration": 0.07749999999998636
                },
                {
                    "name": "A3",
                    "midi": 57,
                    "time": 177.36499999999393,
                    "velocity": 0.4251968503937008,
                    "duration": 0.06499999999999773
                },
                {
                    "name": "F#5",
                    "midi": 78,
                    "time": 177.4449999999939,
                    "velocity": 0.4015748031496063,
                    "duration": 0.09999999999999432
                },
                {
                    "name": "A5",
                    "midi": 81,
                    "time": 177.4574999999939,
                    "velocity": 0.4330708661417323,
                    "duration": 0.05750000000000455
                },
                {
                    "name": "C4",
                    "midi": 60,
                    "time": 177.5999999999939,
                    "velocity": 0.4094488188976378,
                    "duration": 0.0024999999999977263
                },
                {
                    "name": "A3",
                    "midi": 57,
                    "time": 177.65499999999392,
                    "velocity": 0.4015748031496063,
                    "duration": 0.07499999999998863
                },
                {
                    "name": "D5",
                    "midi": 74,
                    "time": 177.65499999999392,
                    "velocity": 0.5118110236220472,
                    "duration": 0.04999999999998295
                },
                {
                    "name": "A4",
                    "midi": 69,
                    "time": 177.6649999999939,
                    "velocity": 0.41732283464566927,
                    "duration": 0.044999999999987494
                },
                {
                    "name": "F#3",
                    "midi": 54,
                    "time": 177.77749999999392,
                    "velocity": 0.2677165354330709,
                    "duration": 0.052500000000009095
                },
                {
                    "name": "D#3",
                    "midi": 51,
                    "time": 177.82499999999393,
                    "velocity": 0.3543307086614173,
                    "duration": 0.037499999999994316
                },
                {
                    "name": "D#5",
                    "midi": 75,
                    "time": 177.95999999999393,
                    "velocity": 0.4251968503937008,
                    "duration": 0.3149999999999693
                },
                {
                    "name": "D#4",
                    "midi": 63,
                    "time": 177.96499999999392,
                    "velocity": 0.4015748031496063,
                    "duration": 0.30999999999997385
                },
                {
                    "name": "A#4",
                    "midi": 70,
                    "time": 177.9774999999939,
                    "velocity": 0.33858267716535434,
                    "duration": 0.2974999999999852
                },
                {
                    "name": "G#2",
                    "midi": 44,
                    "time": 177.9924999999939,
                    "velocity": 0.4015748031496063,
                    "duration": 0.10249999999996362
                },
                {
                    "name": "C#3",
                    "midi": 49,
                    "time": 178.11499999999387,
                    "velocity": 0.33070866141732286,
                    "duration": 0.06499999999999773
                },
                {
                    "name": "F#3",
                    "midi": 54,
                    "time": 178.20499999999387,
                    "velocity": 0.2440944881889764,
                    "duration": 0.05000000000001137
                },
                {
                    "name": "A#3",
                    "midi": 58,
                    "time": 178.2924999999939,
                    "velocity": 0.2992125984251969,
                    "duration": 0.06999999999999318
                },
                {
                    "name": "F5",
                    "midi": 77,
                    "time": 178.4024999999939,
                    "velocity": 0.48031496062992124,
                    "duration": 0.1174999999999784
                },
                {
                    "name": "C5",
                    "midi": 72,
                    "time": 178.41499999999388,
                    "velocity": 0.3779527559055118,
                    "duration": 0.402499999999975
                },
                {
                    "name": "F4",
                    "midi": 65,
                    "time": 178.4324999999939,
                    "velocity": 0.30708661417322836,
                    "duration": 0.04749999999998522
                },
                {
                    "name": "C4",
                    "midi": 60,
                    "time": 178.44249999999388,
                    "velocity": 0.36220472440944884,
                    "duration": 0.10249999999999204
                },
                {
                    "name": "A3",
                    "midi": 57,
                    "time": 178.60999999999387,
                    "velocity": 0.4015748031496063,
                    "duration": 0.044999999999987494
                },
                {
                    "name": "F#3",
                    "midi": 54,
                    "time": 178.71749999999386,
                    "velocity": 0.31496062992125984,
                    "duration": 0.03999999999999204
                },
                {
                    "name": "D3",
                    "midi": 50,
                    "time": 178.82499999999385,
                    "velocity": 0.15748031496062992,
                    "duration": 0.060000000000002274
                },
                {
                    "name": "G#2",
                    "midi": 44,
                    "time": 178.94749999999385,
                    "velocity": 0.44881889763779526,
                    "duration": 0.11249999999998295
                },
                {
                    "name": "D5",
                    "midi": 74,
                    "time": 178.96249999999384,
                    "velocity": 0.4251968503937008,
                    "duration": 0.4774999999999636
                },
                {
                    "name": "D4",
                    "midi": 62,
                    "time": 178.96749999999383,
                    "velocity": 0.3464566929133858,
                    "duration": 0.12499999999997158
                },
                {
                    "name": "A4",
                    "midi": 69,
                    "time": 178.96999999999383,
                    "velocity": 0.33858267716535434,
                    "duration": 0.15749999999997044
                },
                {
                    "name": "D3",
                    "midi": 50,
                    "time": 179.1274999999938,
                    "velocity": 0.1968503937007874,
                    "duration": 0.05000000000001137
                },
                {
                    "name": "F#3",
                    "midi": 54,
                    "time": 179.1924999999938,
                    "velocity": 0.29133858267716534,
                    "duration": 0.0800000000000125
                },
                {
                    "name": "A3",
                    "midi": 57,
                    "time": 179.3149999999938,
                    "velocity": 0.3228346456692913,
                    "duration": 0.0625
                },
                {
                    "name": "C4",
                    "midi": 60,
                    "time": 179.4274999999938,
                    "velocity": 0.4330708661417323,
                    "duration": 0.05249999999998067
                },
                {
                    "name": "D4",
                    "midi": 62,
                    "time": 179.4474999999938,
                    "velocity": 0.3464566929133858,
                    "duration": 0.08500000000000796
                },
                {
                    "name": "A4",
                    "midi": 69,
                    "time": 179.4499999999938,
                    "velocity": 0.3779527559055118,
                    "duration": 0.11000000000001364
                },
                {
                    "name": "D3",
                    "midi": 50,
                    "time": 179.8174999999938,
                    "velocity": 0.3228346456692913,
                    "duration": 0.0474999999999568
                },
                {
                    "name": "G#2",
                    "midi": 44,
                    "time": 179.99999999999372,
                    "velocity": 0.44881889763779526,
                    "duration": 0.012499999999988631
                },
                {
                    "name": "F#3",
                    "midi": 54,
                    "time": 180.12749999999372,
                    "velocity": 0.2440944881889764,
                    "duration": 0.07499999999998863
                },
                {
                    "name": "A3",
                    "midi": 57,
                    "time": 180.2149999999937,
                    "velocity": 0.33070866141732286,
                    "duration": 0.06499999999999773
                },
                {
                    "name": "C4",
                    "midi": 60,
                    "time": 180.3474999999937,
                    "velocity": 0.2992125984251969,
                    "duration": 0.06499999999999773
                },
                {
                    "name": "A3",
                    "midi": 57,
                    "time": 180.48499999999368,
                    "velocity": 0.4330708661417323,
                    "duration": 0.11250000000001137
                },
                {
                    "name": "F#3",
                    "midi": 54,
                    "time": 180.6249999999937,
                    "velocity": 0.13385826771653545,
                    "duration": 0.0800000000000125
                },
                {
                    "name": "D3",
                    "midi": 50,
                    "time": 180.7074999999937,
                    "velocity": 0.2677165354330709,
                    "duration": 0.11750000000000682
                },
                {
                    "name": "G#2",
                    "midi": 44,
                    "time": 180.9324999999937,
                    "velocity": 0.3937007874015748,
                    "duration": 0.1449999999999818
                },
                {
                    "name": "C3",
                    "midi": 48,
                    "time": 180.94749999999368,
                    "velocity": 0.5433070866141733,
                    "duration": 0.40749999999999886
                },
                {
                    "name": "D3",
                    "midi": 50,
                    "time": 181.15249999999367,
                    "velocity": 0.16535433070866143,
                    "duration": 0.05500000000000682
                },
                {
                    "name": "F#3",
                    "midi": 54,
                    "time": 181.2549999999937,
                    "velocity": 0.11023622047244094,
                    "duration": 0.060000000000002274
                },
                {
                    "name": "A3",
                    "midi": 57,
                    "time": 181.35999999999368,
                    "velocity": 0.2677165354330709,
                    "duration": 0.060000000000002274
                },
                {
                    "name": "A2",
                    "midi": 45,
                    "time": 181.46499999999367,
                    "velocity": 0.4330708661417323,
                    "duration": 0.06999999999996476
                },
                {
                    "name": "C4",
                    "midi": 60,
                    "time": 181.48999999999364,
                    "velocity": 0.3700787401574803,
                    "duration": 0.09749999999996817
                },
                {
                    "name": "A3",
                    "midi": 57,
                    "time": 181.6799999999936,
                    "velocity": 0.1732283464566929,
                    "duration": 0.03999999999999204
                },
                {
                    "name": "F#3",
                    "midi": 54,
                    "time": 181.7749999999936,
                    "velocity": 0.15748031496062992,
                    "duration": 0.06999999999999318
                },
                {
                    "name": "D3",
                    "midi": 50,
                    "time": 181.9074999999936,
                    "velocity": 0.15748031496062992,
                    "duration": 0.04750000000001364
                },
                {
                    "name": "G#2",
                    "midi": 44,
                    "time": 181.98999999999359,
                    "velocity": 0.3700787401574803,
                    "duration": 0.11499999999995225
                },
                {
                    "name": "D3",
                    "midi": 50,
                    "time": 182.17749999999353,
                    "velocity": 0.18110236220472442,
                    "duration": 0.044999999999987494
                },
                {
                    "name": "F#3",
                    "midi": 54,
                    "time": 182.2349999999935,
                    "velocity": 0.1889763779527559,
                    "duration": 0.06749999999999545
                },
                {
                    "name": "A3",
                    "midi": 57,
                    "time": 182.3174999999935,
                    "velocity": 0.44881889763779526,
                    "duration": 0.07749999999998636
                },
                {
                    "name": "C4",
                    "midi": 60,
                    "time": 182.44499999999348,
                    "velocity": 0.3779527559055118,
                    "duration": 0.09000000000000341
                },
                {
                    "name": "A3",
                    "midi": 57,
                    "time": 182.5924999999935,
                    "velocity": 0.3937007874015748,
                    "duration": 0.11000000000001364
                },
                {
                    "name": "F#3",
                    "midi": 54,
                    "time": 182.7449999999935,
                    "velocity": 0.11023622047244094,
                    "duration": 0.07499999999998863
                },
                {
                    "name": "D3",
                    "midi": 50,
                    "time": 182.82499999999348,
                    "velocity": 0.3700787401574803,
                    "duration": 0.21249999999997726
                },
                {
                    "name": "C4",
                    "midi": 60,
                    "time": 182.97499999999346,
                    "velocity": 0.6614173228346457,
                    "duration": 0.5874999999999488
                },
                {
                    "name": "G#2",
                    "midi": 44,
                    "time": 183.02999999999346,
                    "velocity": 0.33070866141732286,
                    "duration": 0.19499999999996476
                },
                {
                    "name": "D3",
                    "midi": 50,
                    "time": 183.22749999999343,
                    "velocity": 0.28346456692913385,
                    "duration": 0.17249999999998522
                },
                {
                    "name": "F#3",
                    "midi": 54,
                    "time": 183.3674999999934,
                    "velocity": 0.33070866141732286,
                    "duration": 0.2324999999999875
                },
                {
                    "name": "A3",
                    "midi": 57,
                    "time": 183.54999999999342,
                    "velocity": 0.4015748031496063,
                    "duration": 0.4625000000000057
                },
                {
                    "name": "D4",
                    "midi": 62,
                    "time": 183.57999999999342,
                    "velocity": 0.3543307086614173,
                    "duration": 0.125
                },
                {
                    "name": "C4",
                    "midi": 60,
                    "time": 183.5849999999934,
                    "velocity": 0.3700787401574803,
                    "duration": 0.09749999999999659
                },
                {
                    "name": "F#4",
                    "midi": 66,
                    "time": 183.72249999999343,
                    "velocity": 0.4015748031496063,
                    "duration": 0.13750000000001705
                },
                {
                    "name": "A4",
                    "midi": 69,
                    "time": 183.80499999999344,
                    "velocity": 0.4094488188976378,
                    "duration": 0.09999999999999432
                },
                {
                    "name": "D5",
                    "midi": 74,
                    "time": 183.93249999999344,
                    "velocity": 0.3779527559055118,
                    "duration": 0.03999999999999204
                },
                {
                    "name": "C4",
                    "midi": 60,
                    "time": 184.05249999999342,
                    "velocity": 0.5039370078740157,
                    "duration": 0.4224999999999568
                },
                {
                    "name": "C5",
                    "midi": 72,
                    "time": 184.0899999999934,
                    "velocity": 0.29133858267716534,
                    "duration": 0.0724999999999909
                },
                {
                    "name": "G#4",
                    "midi": 68,
                    "time": 184.0999999999934,
                    "velocity": 0.3937007874015748,
                    "duration": 0.12000000000000455
                },
                {
                    "name": "D#5",
                    "midi": 75,
                    "time": 184.1899999999934,
                    "velocity": 0.4409448818897638,
                    "duration": 0.17499999999998295
                },
                {
                    "name": "F#5",
                    "midi": 78,
                    "time": 184.2899999999934,
                    "velocity": 0.29133858267716534,
                    "duration": 0.1074999999999875
                },
                {
                    "name": "G#5",
                    "midi": 80,
                    "time": 184.3899999999934,
                    "velocity": 0.5511811023622047,
                    "duration": 0.0724999999999909
                },
                {
                    "name": "A3",
                    "midi": 57,
                    "time": 184.46749999999338,
                    "velocity": 0.4881889763779528,
                    "duration": 0.04999999999998295
                },
                {
                    "name": "A4",
                    "midi": 69,
                    "time": 184.50499999999337,
                    "velocity": 0.3700787401574803,
                    "duration": 0.05000000000001137
                },
                {
                    "name": "D5",
                    "midi": 74,
                    "time": 184.53499999999337,
                    "velocity": 0.3464566929133858,
                    "duration": 0.10000000000002274
                },
                {
                    "name": "C5",
                    "midi": 72,
                    "time": 184.53749999999337,
                    "velocity": 0.4251968503937008,
                    "duration": 0.09250000000002956
                },
                {
                    "name": "F#5",
                    "midi": 78,
                    "time": 184.6124999999934,
                    "velocity": 0.36220472440944884,
                    "duration": 0.1150000000000091
                },
                {
                    "name": "A5",
                    "midi": 81,
                    "time": 184.7999999999934,
                    "velocity": 0.4881889763779528,
                    "duration": 0.007499999999993179
                },
                {
                    "name": "D6",
                    "midi": 86,
                    "time": 184.80999999999338,
                    "velocity": 0.4645669291338583,
                    "duration": 0.03499999999996817
                },
                {
                    "name": "C5",
                    "midi": 72,
                    "time": 184.92249999999333,
                    "velocity": 0.36220472440944884,
                    "duration": 0.4025000000000034
                },
                {
                    "name": "C#5",
                    "midi": 73,
                    "time": 184.93749999999332,
                    "velocity": 0.3228346456692913,
                    "duration": 0.04250000000001819
                },
                {
                    "name": "C6",
                    "midi": 84,
                    "time": 184.93749999999332,
                    "velocity": 0.5275590551181102,
                    "duration": 0.08500000000000796
                },
                {
                    "name": "G#5",
                    "midi": 80,
                    "time": 184.95499999999333,
                    "velocity": 0.5118110236220472,
                    "duration": 0.0724999999999909
                },
                {
                    "name": "D#6",
                    "midi": 87,
                    "time": 185.02749999999332,
                    "velocity": 0.5196850393700787,
                    "duration": 0.14000000000001478
                },
                {
                    "name": "F#6",
                    "midi": 90,
                    "time": 185.13999999999334,
                    "velocity": 0.3937007874015748,
                    "duration": 0.09250000000000114
                },
                {
                    "name": "G#6",
                    "midi": 92,
                    "time": 185.20999999999333,
                    "velocity": 0.4881889763779528,
                    "duration": 0.07500000000001705
                },
                {
                    "name": "A4",
                    "midi": 69,
                    "time": 185.33249999999333,
                    "velocity": 0.5039370078740157,
                    "duration": 0.03999999999996362
                },
                {
                    "name": "D6",
                    "midi": 86,
                    "time": 185.33749999999333,
                    "velocity": 0.5433070866141733,
                    "duration": 0.14249999999995566
                },
                {
                    "name": "C6",
                    "midi": 84,
                    "time": 185.3549999999933,
                    "velocity": 0.6299212598425197,
                    "duration": 0.03249999999997044
                },
                {
                    "name": "A5",
                    "midi": 81,
                    "time": 185.3549999999933,
                    "velocity": 0.48031496062992124,
                    "duration": 0.0549999999999784
                },
                {
                    "name": "F#6",
                    "midi": 90,
                    "time": 185.44499999999329,
                    "velocity": 0.5196850393700787,
                    "duration": 0.10999999999998522
                },
                {
                    "name": "A6",
                    "midi": 93,
                    "time": 185.51499999999328,
                    "velocity": 0.5590551181102362,
                    "duration": 0.12249999999994543
                },
                {
                    "name": "D7",
                    "midi": 98,
                    "time": 185.62999999999323,
                    "velocity": 0.5196850393700787,
                    "duration": 0.03499999999999659
                },
                {
                    "name": "C#6",
                    "midi": 85,
                    "time": 185.73499999999322,
                    "velocity": 0.6299212598425197,
                    "duration": 0.06749999999999545
                },
                {
                    "name": "F#5",
                    "midi": 78,
                    "time": 185.7449999999932,
                    "velocity": 0.5590551181102362,
                    "duration": 0.07500000000001705
                },
                {
                    "name": "D6",
                    "midi": 86,
                    "time": 185.84249999999324,
                    "velocity": 0.5590551181102362,
                    "duration": 0.03750000000002274
                },
                {
                    "name": "C6",
                    "midi": 84,
                    "time": 185.86249999999325,
                    "velocity": 0.3937007874015748,
                    "duration": 0.040000000000020464
                },
                {
                    "name": "A5",
                    "midi": 81,
                    "time": 185.94749999999325,
                    "velocity": 0.5354330708661418,
                    "duration": 0.09000000000000341
                },
                {
                    "name": "D6",
                    "midi": 86,
                    "time": 186.03249999999326,
                    "velocity": 0.48031496062992124,
                    "duration": 0.03499999999996817
                },
                {
                    "name": "C6",
                    "midi": 84,
                    "time": 186.05249999999324,
                    "velocity": 0.2283464566929134,
                    "duration": 0.037499999999965894
                },
                {
                    "name": "C#5",
                    "midi": 73,
                    "time": 186.1049999999932,
                    "velocity": 0.6220472440944882,
                    "duration": 0.06999999999999318
                },
                {
                    "name": "F#4",
                    "midi": 66,
                    "time": 186.1149999999932,
                    "velocity": 0.6141732283464567,
                    "duration": 0.07749999999998636
                },
                {
                    "name": "D5",
                    "midi": 74,
                    "time": 186.21749999999318,
                    "velocity": 0.5748031496062992,
                    "duration": 0.037499999999994316
                },
                {
                    "name": "C5",
                    "midi": 72,
                    "time": 186.21999999999318,
                    "velocity": 0.5433070866141733,
                    "duration": 0.05500000000000682
                },
                {
                    "name": "A5",
                    "midi": 81,
                    "time": 186.22249999999318,
                    "velocity": 0.3858267716535433,
                    "duration": 0.07250000000001933
                },
                {
                    "name": "B4",
                    "midi": 71,
                    "time": 186.3274999999932,
                    "velocity": 0.5433070866141733,
                    "duration": 0.12499999999997158
                },
                {
                    "name": "C5",
                    "midi": 72,
                    "time": 186.3924999999932,
                    "velocity": 0.5590551181102362,
                    "duration": 0.04749999999998522
                },
                {
                    "name": "D5",
                    "midi": 74,
                    "time": 186.3949999999932,
                    "velocity": 0.5039370078740157,
                    "duration": 0.03499999999999659
                },
                {
                    "name": "G#3",
                    "midi": 56,
                    "time": 186.49999999999318,
                    "velocity": 0.7637795275590551,
                    "duration": 0.10499999999998977
                },
                {
                    "name": "D4",
                    "midi": 62,
                    "time": 186.60999999999316,
                    "velocity": 0.28346456692913385,
                    "duration": 0.09749999999996817
                },
                {
                    "name": "A4",
                    "midi": 69,
                    "time": 186.62499999999315,
                    "velocity": 0.2047244094488189,
                    "duration": 0.04999999999998295
                },
                {
                    "name": "F#4",
                    "midi": 66,
                    "time": 186.63499999999314,
                    "velocity": 0.4566929133858268,
                    "duration": 0.14249999999998408
                },
                {
                    "name": "C#4",
                    "midi": 61,
                    "time": 186.72249999999312,
                    "velocity": 0.5354330708661418,
                    "duration": 0.10249999999999204
                },
                {
                    "name": "C4",
                    "midi": 60,
                    "time": 186.8224999999931,
                    "velocity": 0.5826771653543307,
                    "duration": 0.0625
                },
                {
                    "name": "G#2",
                    "midi": 44,
                    "time": 186.8949999999931,
                    "velocity": 0.5984251968503937,
                    "duration": 0.07999999999998408
                },
                {
                    "name": "B3",
                    "midi": 59,
                    "time": 186.9074999999931,
                    "velocity": 0.6220472440944882,
                    "duration": 0.10999999999998522
                },
                {
                    "name": "A#3",
                    "midi": 58,
                    "time": 187.01499999999308,
                    "velocity": 0.5511811023622047,
                    "duration": 0.07499999999998863
                },
                {
                    "name": "A3",
                    "midi": 57,
                    "time": 187.08749999999307,
                    "velocity": 0.4330708661417323,
                    "duration": 0.08750000000000568
                },
                {
                    "name": "G#3",
                    "midi": 56,
                    "time": 187.19999999999308,
                    "velocity": 0.6535433070866141,
                    "duration": 0.05750000000000455
                },
                {
                    "name": "G#2",
                    "midi": 44,
                    "time": 187.2799999999931,
                    "velocity": 0.7716535433070866,
                    "duration": 0.08750000000000568
                },
                {
                    "name": "F#3",
                    "midi": 54,
                    "time": 187.4049999999931,
                    "velocity": 0.3858267716535433,
                    "duration": 0.14000000000001478
                },
                {
                    "name": "C#3",
                    "midi": 49,
                    "time": 187.5199999999931,
                    "velocity": 0.5354330708661418,
                    "duration": 0.10750000000001592
                },
                {
                    "name": "C3",
                    "midi": 48,
                    "time": 187.62499999999312,
                    "velocity": 0.5826771653543307,
                    "duration": 0.07999999999998408
                },
                {
                    "name": "G#1",
                    "midi": 32,
                    "time": 187.7049999999931,
                    "velocity": 0.7086614173228346,
                    "duration": 0.07999999999998408
                },
                {
                    "name": "B2",
                    "midi": 47,
                    "time": 187.7074999999931,
                    "velocity": 0.6850393700787402,
                    "duration": 0.1174999999999784
                },
                {
                    "name": "A#2",
                    "midi": 46,
                    "time": 187.8099999999931,
                    "velocity": 0.6456692913385826,
                    "duration": 0.10999999999998522
                },
                {
                    "name": "A2",
                    "midi": 45,
                    "time": 187.89749999999307,
                    "velocity": 0.5118110236220472,
                    "duration": 0.12749999999999773
                },
                {
                    "name": "G#2",
                    "midi": 44,
                    "time": 187.99499999999307,
                    "velocity": 0.6535433070866141,
                    "duration": 0.07750000000001478
                },
                {
                    "name": "G#2",
                    "midi": 44,
                    "time": 188.48499999999308,
                    "velocity": 0.3700787401574803,
                    "duration": 0.16749999999996135
                },
                {
                    "name": "F4",
                    "midi": 65,
                    "time": 188.52249999999307,
                    "velocity": 0.3700787401574803,
                    "duration": 0.5524999999999523
                },
                {
                    "name": "C4",
                    "midi": 60,
                    "time": 188.52999999999307,
                    "velocity": 0.29133858267716534,
                    "duration": 0.19249999999996703
                },
                {
                    "name": "F3",
                    "midi": 53,
                    "time": 188.69499999999303,
                    "velocity": 0.2755905511811024,
                    "duration": 0.15750000000002728
                },
                {
                    "name": "G#3",
                    "midi": 56,
                    "time": 188.80249999999305,
                    "velocity": 0.3779527559055118,
                    "duration": 0.23499999999998522
                },
                {
                    "name": "C4",
                    "midi": 60,
                    "time": 188.92999999999304,
                    "velocity": 0.4094488188976378,
                    "duration": 0.03499999999999659
                },
                {
                    "name": "G4",
                    "midi": 67,
                    "time": 189.01499999999305,
                    "velocity": 0.4566929133858268,
                    "duration": 0.4599999999999227
                },
                {
                    "name": "D4",
                    "midi": 62,
                    "time": 189.02749999999304,
                    "velocity": 0.33070866141732286,
                    "duration": 0.38749999999998863
                },
                {
                    "name": "G#3",
                    "midi": 56,
                    "time": 189.25999999999303,
                    "velocity": 0.36220472440944884,
                    "duration": 0.10249999999999204
                },
                {
                    "name": "E3",
                    "midi": 52,
                    "time": 189.40999999999303,
                    "velocity": 0.15748031496062992,
                    "duration": 0.037499999999965894
                },
                {
                    "name": "G#2",
                    "midi": 44,
                    "time": 189.459999999993,
                    "velocity": 0.4015748031496063,
                    "duration": 0.1174999999999784
                },
                {
                    "name": "B3",
                    "midi": 59,
                    "time": 189.59999999999297,
                    "velocity": 0.29133858267716534,
                    "duration": 0.025000000000005684
                },
                {
                    "name": "E4",
                    "midi": 64,
                    "time": 189.59999999999297,
                    "velocity": 0.4094488188976378,
                    "duration": 0.0024999999999977263
                },
                {
                    "name": "E3",
                    "midi": 52,
                    "time": 189.644999999993,
                    "velocity": 0.07874015748031496,
                    "duration": 0.05000000000001137
                },
                {
                    "name": "G#3",
                    "midi": 56,
                    "time": 189.694999999993,
                    "velocity": 0.3858267716535433,
                    "duration": 0.11750000000000682
                },
                {
                    "name": "B3",
                    "midi": 59,
                    "time": 189.872499999993,
                    "velocity": 0.3937007874015748,
                    "duration": 0.09000000000000341
                },
                {
                    "name": "G#4",
                    "midi": 68,
                    "time": 189.92499999999302,
                    "velocity": 0.2755905511811024,
                    "duration": 0.04749999999998522
                },
                {
                    "name": "B4",
                    "midi": 71,
                    "time": 189.937499999993,
                    "velocity": 0.36220472440944884,
                    "duration": 0.04749999999998522
                },
                {
                    "name": "B3",
                    "midi": 59,
                    "time": 190.164999999993,
                    "velocity": 0.31496062992125984,
                    "duration": 0.14750000000000796
                },
                {
                    "name": "E4",
                    "midi": 64,
                    "time": 190.179999999993,
                    "velocity": 0.44881889763779526,
                    "duration": 0.052500000000009095
                },
                {
                    "name": "G#3",
                    "midi": 56,
                    "time": 190.33499999999302,
                    "velocity": 0.18110236220472442,
                    "duration": 0.07499999999998863
                },
                {
                    "name": "G#2",
                    "midi": 44,
                    "time": 190.49249999999302,
                    "velocity": 0.3464566929133858,
                    "duration": 0.14749999999995111
                },
                {
                    "name": "F5",
                    "midi": 77,
                    "time": 190.497499999993,
                    "velocity": 0.4015748031496063,
                    "duration": 0.4799999999998761
                },
                {
                    "name": "F4",
                    "midi": 65,
                    "time": 190.52749999999298,
                    "velocity": 0.2047244094488189,
                    "duration": 0.15249999999994657
                },
                {
                    "name": "C5",
                    "midi": 72,
                    "time": 190.54499999999297,
                    "velocity": 0.25196850393700787,
                    "duration": 0.39499999999992497
                },
                {
                    "name": "F3",
                    "midi": 53,
                    "time": 190.69499999999292,
                    "velocity": 0.2283464566929134,
                    "duration": 0.08750000000000568
                },
                {
                    "name": "G#3",
                    "midi": 56,
                    "time": 190.7924999999929,
                    "velocity": 0.2047244094488189,
                    "duration": 0.07749999999998636
                },
                {
                    "name": "C4",
                    "midi": 60,
                    "time": 190.8949999999929,
                    "velocity": 0.41732283464566927,
                    "duration": 0.08499999999997954
                },
                {
                    "name": "G5",
                    "midi": 79,
                    "time": 191.0074999999929,
                    "velocity": 0.4645669291338583,
                    "duration": 0.1099999999999568
                },
                {
                    "name": "G4",
                    "midi": 67,
                    "time": 191.02249999999287,
                    "velocity": 0.33070866141732286,
                    "duration": 0.06249999999997158
                },
                {
                    "name": "D5",
                    "midi": 74,
                    "time": 191.03749999999286,
                    "velocity": 0.25196850393700787,
                    "duration": 0.044999999999987494
                },
                {
                    "name": "D4",
                    "midi": 62,
                    "time": 191.04249999999286,
                    "velocity": 0.31496062992125984,
                    "duration": 0.09499999999999886
                },
                {
                    "name": "B3",
                    "midi": 59,
                    "time": 191.18499999999287,
                    "velocity": 0.4645669291338583,
                    "duration": 0.044999999999987494
                },
                {
                    "name": "G#3",
                    "midi": 56,
                    "time": 191.28999999999286,
                    "velocity": 0.4094488188976378,
                    "duration": 0.125
                },
                {
                    "name": "E3",
                    "midi": 52,
                    "time": 191.40249999999287,
                    "velocity": 0.2440944881889764,
                    "duration": 0.11249999999998295
                },
                {
                    "name": "G#2",
                    "midi": 44,
                    "time": 191.54499999999285,
                    "velocity": 0.44881889763779526,
                    "duration": 0.12249999999997385
                },
                {
                    "name": "E5",
                    "midi": 76,
                    "time": 191.54749999999285,
                    "velocity": 0.3858267716535433,
                    "duration": 0.5174999999999557
                },
                {
                    "name": "E4",
                    "midi": 64,
                    "time": 191.55249999999285,
                    "velocity": 0.25984251968503935,
                    "duration": 0.1349999999999909
                },
                {
                    "name": "B4",
                    "midi": 71,
                    "time": 191.55999999999284,
                    "velocity": 0.3464566929133858,
                    "duration": 0.13999999999998636
                },
                {
                    "name": "G#3",
                    "midi": 56,
                    "time": 191.77999999999284,
                    "velocity": 0.3700787401574803,
                    "duration": 0.07749999999998636
                },
                {
                    "name": "B3",
                    "midi": 59,
                    "time": 191.9024999999928,
                    "velocity": 0.25196850393700787,
                    "duration": 0.07499999999998863
                },
                {
                    "name": "B4",
                    "midi": 71,
                    "time": 191.9999999999928,
                    "velocity": 0.3779527559055118,
                    "duration": 0.14999999999997726
                },
                {
                    "name": "D4",
                    "midi": 62,
                    "time": 192.0024999999928,
                    "velocity": 0.44881889763779526,
                    "duration": 0.10499999999998977
                },
                {
                    "name": "E4",
                    "midi": 64,
                    "time": 192.0174999999928,
                    "velocity": 0.15748031496062992,
                    "duration": 0.09749999999999659
                },
                {
                    "name": "B3",
                    "midi": 59,
                    "time": 192.15499999999278,
                    "velocity": 0.3779527559055118,
                    "duration": 0.08750000000000568
                },
                {
                    "name": "G#3",
                    "midi": 56,
                    "time": 192.2699999999928,
                    "velocity": 0.3779527559055118,
                    "duration": 0.10499999999998977
                },
                {
                    "name": "E3",
                    "midi": 52,
                    "time": 192.38249999999277,
                    "velocity": 0.31496062992125984,
                    "duration": 0.08499999999997954
                },
                {
                    "name": "G#2",
                    "midi": 44,
                    "time": 192.47999999999274,
                    "velocity": 0.4566929133858268,
                    "duration": 0.10499999999996135
                },
                {
                    "name": "G#3",
                    "midi": 56,
                    "time": 192.6899999999927,
                    "velocity": 0.4094488188976378,
                    "duration": 0.07749999999998636
                },
                {
                    "name": "B3",
                    "midi": 59,
                    "time": 192.79749999999268,
                    "velocity": 0.4409448818897638,
                    "duration": 0.03999999999999204
                },
                {
                    "name": "D4",
                    "midi": 62,
                    "time": 192.90499999999267,
                    "velocity": 0.4330708661417323,
                    "duration": 0.08250000000001023
                },
                {
                    "name": "B3",
                    "midi": 59,
                    "time": 193.0374999999927,
                    "velocity": 0.3937007874015748,
                    "duration": 0.09749999999999659
                },
                {
                    "name": "G#3",
                    "midi": 56,
                    "time": 193.1649999999927,
                    "velocity": 0.3464566929133858,
                    "duration": 0.14749999999997954
                },
                {
                    "name": "E3",
                    "midi": 52,
                    "time": 193.29999999999268,
                    "velocity": 0.2992125984251969,
                    "duration": 0.16749999999998977
                },
                {
                    "name": "D3",
                    "midi": 50,
                    "time": 193.48749999999268,
                    "velocity": 0.6850393700787402,
                    "duration": 0.17749999999992383
                },
                {
                    "name": "G#2",
                    "midi": 44,
                    "time": 193.48999999999268,
                    "velocity": 0.4330708661417323,
                    "duration": 0.15999999999993975
                },
                {
                    "name": "E3",
                    "midi": 52,
                    "time": 193.6999999999926,
                    "velocity": 0.3779527559055118,
                    "duration": 0.13749999999998863
                },
                {
                    "name": "G#3",
                    "midi": 56,
                    "time": 193.84749999999258,
                    "velocity": 0.36220472440944884,
                    "duration": 0.10499999999998977
                },
                {
                    "name": "B2",
                    "midi": 47,
                    "time": 194.07999999999254,
                    "velocity": 0.5118110236220472,
                    "duration": 0.07499999999998863
                },
                {
                    "name": "E4",
                    "midi": 64,
                    "time": 194.09749999999252,
                    "velocity": 0.16535433070866143,
                    "duration": 0.15750000000002728
                },
                {
                    "name": "D4",
                    "midi": 62,
                    "time": 194.1074999999925,
                    "velocity": 0.4015748031496063,
                    "duration": 0.13000000000002387
                },
                {
                    "name": "G#4",
                    "midi": 68,
                    "time": 194.23499999999254,
                    "velocity": 0.36220472440944884,
                    "duration": 0.15000000000000568
                },
                {
                    "name": "B4",
                    "midi": 71,
                    "time": 194.39999999999253,
                    "velocity": 0.4330708661417323,
                    "duration": 0.012499999999988631
                },
                {
                    "name": "E5",
                    "midi": 76,
                    "time": 194.43249999999253,
                    "velocity": 0.3937007874015748,
                    "duration": 0.03249999999999886
                },
                {
                    "name": "D4",
                    "midi": 62,
                    "time": 194.54999999999248,
                    "velocity": 0.47244094488188976,
                    "duration": 0.4524999999999011
                },
                {
                    "name": "D5",
                    "midi": 74,
                    "time": 194.57499999999249,
                    "velocity": 0.5118110236220472,
                    "duration": 0.10999999999998522
                },
                {
                    "name": "G#4",
                    "midi": 68,
                    "time": 194.6049999999925,
                    "velocity": 0.4409448818897638,
                    "duration": 0.060000000000002274
                },
                {
                    "name": "A#4",
                    "midi": 70,
                    "time": 194.61499999999248,
                    "velocity": 0.33070866141732286,
                    "duration": 0.10999999999998522
                },
                {
                    "name": "D#5",
                    "midi": 75,
                    "time": 194.67499999999248,
                    "velocity": 0.29133858267716534,
                    "duration": 0.15999999999996817
                },
                {
                    "name": "G#5",
                    "midi": 80,
                    "time": 194.82499999999246,
                    "velocity": 0.29133858267716534,
                    "duration": 0.060000000000002274
                },
                {
                    "name": "B5",
                    "midi": 83,
                    "time": 194.93999999999244,
                    "velocity": 0.11811023622047244,
                    "duration": 0.03249999999997044
                },
                {
                    "name": "B3",
                    "midi": 59,
                    "time": 194.9924999999924,
                    "velocity": 0.4645669291338583,
                    "duration": 0.03499999999999659
                },
                {
                    "name": "E5",
                    "midi": 76,
                    "time": 195.0249999999924,
                    "velocity": 0.2125984251968504,
                    "duration": 0.0800000000000125
                },
                {
                    "name": "B4",
                    "midi": 71,
                    "time": 195.0249999999924,
                    "velocity": 0.3858267716535433,
                    "duration": 0.05000000000001137
                },
                {
                    "name": "D5",
                    "midi": 74,
                    "time": 195.0274999999924,
                    "velocity": 0.48031496062992124,
                    "duration": 0.0700000000000216
                },
                {
                    "name": "G#5",
                    "midi": 80,
                    "time": 195.1099999999924,
                    "velocity": 0.33858267716535434,
                    "duration": 0.08500000000000796
                },
                {
                    "name": "B5",
                    "midi": 83,
                    "time": 195.1974999999924,
                    "velocity": 0.4015748031496063,
                    "duration": 0.09749999999999659
                },
                {
                    "name": "E6",
                    "midi": 88,
                    "time": 195.3174999999924,
                    "velocity": 0.44881889763779526,
                    "duration": 0.03499999999999659
                },
                {
                    "name": "D5",
                    "midi": 74,
                    "time": 195.40499999999238,
                    "velocity": 0.5196850393700787,
                    "duration": 0.42999999999995
                },
                {
                    "name": "D6",
                    "midi": 86,
                    "time": 195.43749999999235,
                    "velocity": 0.5354330708661418,
                    "duration": 0.060000000000002274
                },
                {
                    "name": "G#5",
                    "midi": 80,
                    "time": 195.46499999999236,
                    "velocity": 0.5275590551181102,
                    "duration": 0.10499999999998977
                },
                {
                    "name": "D#6",
                    "midi": 87,
                    "time": 195.52499999999236,
                    "velocity": 0.5196850393700787,
                    "duration": 0.11249999999998295
                },
                {
                    "name": "G#6",
                    "midi": 92,
                    "time": 195.65499999999236,
                    "velocity": 0.4330708661417323,
                    "duration": 0.08500000000000796
                },
                {
                    "name": "A#6",
                    "midi": 94,
                    "time": 195.71499999999236,
                    "velocity": 0.5039370078740157,
                    "duration": 0.05000000000001137
                },
                {
                    "name": "B4",
                    "midi": 71,
                    "time": 195.82249999999235,
                    "velocity": 0.5826771653543307,
                    "duration": 0.05499999999994998
                },
                {
                    "name": "B5",
                    "midi": 83,
                    "time": 195.84249999999233,
                    "velocity": 0.5354330708661418,
                    "duration": 0.03249999999997044
                },
                {
                    "name": "E6",
                    "midi": 88,
                    "time": 195.84499999999233,
                    "velocity": 0.3858267716535433,
                    "duration": 0.1274999999999693
                },
                {
                    "name": "D6",
                    "midi": 86,
                    "time": 195.85499999999232,
                    "velocity": 0.5826771653543307,
                    "duration": 0.08999999999997499
                },
                {
                    "name": "G#6",
                    "midi": 92,
                    "time": 195.9174999999923,
                    "velocity": 0.49606299212598426,
                    "duration": 0.15500000000000114
                },
                {
                    "name": "B6",
                    "midi": 95,
                    "time": 195.9949999999923,
                    "velocity": 0.5039370078740157,
                    "duration": 0.12249999999997385
                },
                {
                    "name": "E7",
                    "midi": 100,
                    "time": 196.1024999999923,
                    "velocity": 0.5354330708661418,
                    "duration": 0.03499999999999659
                },
                {
                    "name": "G#5",
                    "midi": 80,
                    "time": 196.22249999999227,
                    "velocity": 0.5826771653543307,
                    "duration": 0.07999999999998408
                },
                {
                    "name": "D#6",
                    "midi": 87,
                    "time": 196.22499999999226,
                    "velocity": 0.6062992125984252,
                    "duration": 0.05249999999998067
                },
                {
                    "name": "B6",
                    "midi": 95,
                    "time": 196.30999999999224,
                    "velocity": 0.33070866141732286,
                    "duration": 0.04249999999998977
                },
                {
                    "name": "E6",
                    "midi": 88,
                    "time": 196.31249999999224,
                    "velocity": 0.33858267716535434,
                    "duration": 0.04249999999998977
                },
                {
                    "name": "D6",
                    "midi": 86,
                    "time": 196.31499999999224,
                    "velocity": 0.33858267716535434,
                    "duration": 0.04749999999998522
                },
                {
                    "name": "F6",
                    "midi": 89,
                    "time": 196.31499999999224,
                    "velocity": 0.3543307086614173,
                    "duration": 0.03499999999999659
                },
                {
                    "name": "B5",
                    "midi": 83,
                    "time": 196.40999999999224,
                    "velocity": 0.5039370078740157,
                    "duration": 0.09999999999999432
                },
                {
                    "name": "D6",
                    "midi": 86,
                    "time": 196.49749999999224,
                    "velocity": 0.5433070866141733,
                    "duration": 0.03499999999999659
                },
                {
                    "name": "E6",
                    "midi": 88,
                    "time": 196.50749999999223,
                    "velocity": 0.3937007874015748,
                    "duration": 0.03499999999999659
                },
                {
                    "name": "D#5",
                    "midi": 75,
                    "time": 196.59249999999224,
                    "velocity": 0.6299212598425197,
                    "duration": 0.0625
                },
                {
                    "name": "G#4",
                    "midi": 68,
                    "time": 196.59499999999224,
                    "velocity": 0.6377952755905512,
                    "duration": 0.08750000000000568
                },
                {
                    "name": "F5",
                    "midi": 77,
                    "time": 196.69999999999226,
                    "velocity": 0.3464566929133858,
                    "duration": 0.04749999999998522
                },
                {
                    "name": "E5",
                    "midi": 76,
                    "time": 196.70249999999226,
                    "velocity": 0.33858267716535434,
                    "duration": 0.044999999999987494
                },
                {
                    "name": "D5",
                    "midi": 74,
                    "time": 196.70499999999225,
                    "velocity": 0.36220472440944884,
                    "duration": 0.037499999999994316
                },
                {
                    "name": "B5",
                    "midi": 83,
                    "time": 196.73749999999225,
                    "velocity": 0.13385826771653545,
                    "duration": 0.037499999999994316
                },
                {
                    "name": "C5",
                    "midi": 72,
                    "time": 196.79999999999225,
                    "velocity": 0.5511811023622047,
                    "duration": 0.1074999999999875
                },
                {
                    "name": "D5",
                    "midi": 74,
                    "time": 196.87749999999224,
                    "velocity": 0.5748031496062992,
                    "duration": 0.06499999999999773
                },
                {
                    "name": "E5",
                    "midi": 76,
                    "time": 196.88499999999223,
                    "velocity": 0.5196850393700787,
                    "duration": 0.03499999999999659
                },
                {
                    "name": "G#3",
                    "midi": 56,
                    "time": 196.9824999999922,
                    "velocity": 0.7322834645669292,
                    "duration": 0.10999999999998522
                },
                {
                    "name": "B4",
                    "midi": 71,
                    "time": 197.09749999999218,
                    "velocity": 0.3700787401574803,
                    "duration": 0.0474999999999568
                },
                {
                    "name": "G#4",
                    "midi": 68,
                    "time": 197.10499999999217,
                    "velocity": 0.4566929133858268,
                    "duration": 0.15999999999993975
                },
                {
                    "name": "E4",
                    "midi": 64,
                    "time": 197.13249999999215,
                    "velocity": 0.18110236220472442,
                    "duration": 0.10499999999996135
                },
                {
                    "name": "D#4",
                    "midi": 63,
                    "time": 197.2174999999921,
                    "velocity": 0.5039370078740157,
                    "duration": 0.10250000000002046
                },
                {
                    "name": "D4",
                    "midi": 62,
                    "time": 197.32249999999212,
                    "velocity": 0.6141732283464567,
                    "duration": 0.08500000000000796
                },
                {
                    "name": "G#2",
                    "midi": 44,
                    "time": 197.41249999999212,
                    "velocity": 0.5433070866141733,
                    "duration": 0.09250000000000114
                },
                {
                    "name": "C#4",
                    "midi": 61,
                    "time": 197.41499999999212,
                    "velocity": 0.6299212598425197,
                    "duration": 0.12250000000000227
                },
                {
                    "name": "C4",
                    "midi": 60,
                    "time": 197.50999999999212,
                    "velocity": 0.5590551181102362,
                    "duration": 0.07749999999998636
                },
                {
                    "name": "B3",
                    "midi": 59,
                    "time": 197.5824999999921,
                    "velocity": 0.5984251968503937,
                    "duration": 0.09250000000000114
                },
                {
                    "name": "A#3",
                    "midi": 58,
                    "time": 197.6799999999921,
                    "velocity": 0.6456692913385826,
                    "duration": 0.06999999999999318
                },
                {
                    "name": "G#2",
                    "midi": 44,
                    "time": 197.76749999999208,
                    "velocity": 0.7637795275590551,
                    "duration": 0.1099999999999568
                },
                {
                    "name": "E3",
                    "midi": 52,
                    "time": 197.87499999999204,
                    "velocity": 0.5354330708661418,
                    "duration": 0.13249999999999318
                },
                {
                    "name": "G#3",
                    "midi": 56,
                    "time": 197.88249999999204,
                    "velocity": 0.4015748031496063,
                    "duration": 0.16499999999999204
                },
                {
                    "name": "D#3",
                    "midi": 51,
                    "time": 197.99249999999205,
                    "velocity": 0.5511811023622047,
                    "duration": 0.10749999999995907
                },
                {
                    "name": "D3",
                    "midi": 50,
                    "time": 198.09249999999201,
                    "velocity": 0.6377952755905512,
                    "duration": 0.10249999999996362
                },
                {
                    "name": "G#1",
                    "midi": 32,
                    "time": 198.184999999992,
                    "velocity": 0.6456692913385826,
                    "duration": 0.09249999999997272
                },
                {
                    "name": "C#3",
                    "midi": 49,
                    "time": 198.18999999999198,
                    "velocity": 0.6535433070866141,
                    "duration": 0.12249999999997385
                },
                {
                    "name": "C3",
                    "midi": 48,
                    "time": 198.29749999999197,
                    "velocity": 0.5984251968503937,
                    "duration": 0.09499999999999886
                },
                {
                    "name": "B2",
                    "midi": 47,
                    "time": 198.37249999999196,
                    "velocity": 0.6614173228346457,
                    "duration": 0.13249999999996476
                },
                {
                    "name": "A#2",
                    "midi": 46,
                    "time": 198.47499999999195,
                    "velocity": 0.6692913385826772,
                    "duration": 0.09999999999993747
                },
                {
                    "name": "G#2",
                    "midi": 44,
                    "time": 198.92499999999188,
                    "velocity": 0.3779527559055118,
                    "duration": 0.14999999999994884
                },
                {
                    "name": "F#4",
                    "midi": 66,
                    "time": 198.93749999999187,
                    "velocity": 0.30708661417322836,
                    "duration": 0.5024999999999409
                },
                {
                    "name": "C#4",
                    "midi": 61,
                    "time": 198.94499999999186,
                    "velocity": 0.2992125984251969,
                    "duration": 0.1899999999999693
                },
                {
                    "name": "C#3",
                    "midi": 49,
                    "time": 199.08749999999182,
                    "velocity": 0.2440944881889764,
                    "duration": 0.0800000000000125
                },
                {
                    "name": "F#3",
                    "midi": 54,
                    "time": 199.19999999999183,
                    "velocity": 0.30708661417322836,
                    "duration": 0.06499999999999773
                },
                {
                    "name": "A#3",
                    "midi": 58,
                    "time": 199.28499999999184,
                    "velocity": 0.2755905511811024,
                    "duration": 0.06499999999999773
                },
                {
                    "name": "G#4",
                    "midi": 68,
                    "time": 199.37749999999184,
                    "velocity": 0.3937007874015748,
                    "duration": 0.46749999999991587
                },
                {
                    "name": "D#4",
                    "midi": 63,
                    "time": 199.37999999999184,
                    "velocity": 0.4645669291338583,
                    "duration": 0.37249999999994543
                },
                {
                    "name": "C4",
                    "midi": 60,
                    "time": 199.51499999999177,
                    "velocity": 0.3543307086614173,
                    "duration": 0.060000000000002274
                },
                {
                    "name": "G#3",
                    "midi": 56,
                    "time": 199.60499999999178,
                    "velocity": 0.47244094488188976,
                    "duration": 0.1599999999999966
                },
                {
                    "name": "D#3",
                    "midi": 51,
                    "time": 199.75249999999178,
                    "velocity": 0.4251968503937008,
                    "duration": 0.12249999999997385
                },
                {
                    "name": "F4",
                    "midi": 65,
                    "time": 199.84999999999175,
                    "velocity": 0.4645669291338583,
                    "duration": 0.11999999999997613
                },
                {
                    "name": "G#2",
                    "midi": 44,
                    "time": 199.86999999999176,
                    "velocity": 0.3228346456692913,
                    "duration": 0.03999999999999204
                },
                {
                    "name": "C4",
                    "midi": 60,
                    "time": 199.87249999999176,
                    "velocity": 0.4566929133858268,
                    "duration": 0.08499999999997954
                },
                {
                    "name": "F3",
                    "midi": 53,
                    "time": 200.02749999999173,
                    "velocity": 0.3937007874015748,
                    "duration": 0.13749999999998863
                },
                {
                    "name": "A#3",
                    "midi": 58,
                    "time": 200.13499999999172,
                    "velocity": 0.4566929133858268,
                    "duration": 0.09250000000000114
                },
                {
                    "name": "C5",
                    "midi": 72,
                    "time": 200.3224999999917,
                    "velocity": 0.5196850393700787,
                    "duration": 0.152499999999975
                },
                {
                    "name": "F4",
                    "midi": 65,
                    "time": 200.3249999999917,
                    "velocity": 0.48031496062992124,
                    "duration": 0.14999999999997726
                },
                {
                    "name": "D#3",
                    "midi": 51,
                    "time": 200.34249999999167,
                    "velocity": 0.44881889763779526,
                    "duration": 0.15749999999999886
                },
                {
                    "name": "G#3",
                    "midi": 56,
                    "time": 200.40249999999165,
                    "velocity": 0.29133858267716534,
                    "duration": 0.052500000000009095
                },
                {
                    "name": "C4",
                    "midi": 60,
                    "time": 200.51749999999168,
                    "velocity": 0.3779527559055118,
                    "duration": 0.04750000000001364
                },
                {
                    "name": "F4",
                    "midi": 65,
                    "time": 200.6349999999917,
                    "velocity": 0.44881889763779526,
                    "duration": 0.07499999999996021
                },
                {
                    "name": "C4",
                    "midi": 60,
                    "time": 200.6374999999917,
                    "velocity": 0.5196850393700787,
                    "duration": 0.04749999999998522
                },
                {
                    "name": "F3",
                    "midi": 53,
                    "time": 200.64499999999168,
                    "velocity": 0.44881889763779526,
                    "duration": 0.12999999999996703
                },
                {
                    "name": "A#3",
                    "midi": 58,
                    "time": 200.69999999999166,
                    "velocity": 0.28346456692913385,
                    "duration": 0.15500000000000114
                },
                {
                    "name": "D4",
                    "midi": 62,
                    "time": 200.82499999999166,
                    "velocity": 0.5039370078740157,
                    "duration": 0.21249999999997726
                },
                {
                    "name": "C6",
                    "midi": 84,
                    "time": 201.02249999999165,
                    "velocity": 0.6299212598425197,
                    "duration": 0.23249999999993065
                },
                {
                    "name": "G3",
                    "midi": 55,
                    "time": 201.02499999999165,
                    "velocity": 0.3937007874015748,
                    "duration": 0.11749999999994998
                },
                {
                    "name": "E4",
                    "midi": 64,
                    "time": 201.03749999999164,
                    "velocity": 0.44881889763779526,
                    "duration": 0.07999999999995566
                },
                {
                    "name": "C4",
                    "midi": 60,
                    "time": 201.05249999999162,
                    "velocity": 0.4330708661417323,
                    "duration": 0.04999999999998295
                },
                {
                    "name": "G5",
                    "midi": 79,
                    "time": 201.2149999999916,
                    "velocity": 0.48031496062992124,
                    "duration": 0.20999999999997954
                },
                {
                    "name": "G#2",
                    "midi": 44,
                    "time": 201.35499999999158,
                    "velocity": 0.6062992125984252,
                    "duration": 0.06499999999999773
                },
                {
                    "name": "E5",
                    "midi": 76,
                    "time": 201.36249999999157,
                    "velocity": 0.41732283464566927,
                    "duration": 0.09499999999999886
                },
                {
                    "name": "G#1",
                    "midi": 32,
                    "time": 201.36499999999157,
                    "velocity": 0.5196850393700787,
                    "duration": 0.03499999999999659
                },
                {
                    "name": "C5",
                    "midi": 72,
                    "time": 201.46249999999156,
                    "velocity": 0.5196850393700787,
                    "duration": 0.09250000000000114
                },
                {
                    "name": "D6",
                    "midi": 86,
                    "time": 201.59999999999155,
                    "velocity": 0.5433070866141733,
                    "duration": 0.13999999999998636
                },
                {
                    "name": "A5",
                    "midi": 81,
                    "time": 201.70249999999155,
                    "velocity": 0.48031496062992124,
                    "duration": 0.16499999999999204
                },
                {
                    "name": "F#5",
                    "midi": 78,
                    "time": 201.82499999999155,
                    "velocity": 0.5039370078740157,
                    "duration": 0.1374999999999602
                },
                {
                    "name": "A3",
                    "midi": 57,
                    "time": 201.84499999999156,
                    "velocity": 0.5433070866141733,
                    "duration": 0.42999999999995
                },
                {
                    "name": "F#4",
                    "midi": 66,
                    "time": 201.84999999999155,
                    "velocity": 0.4566929133858268,
                    "duration": 0.11499999999995225
                },
                {
                    "name": "D4",
                    "midi": 62,
                    "time": 201.85749999999155,
                    "velocity": 0.4251968503937008,
                    "duration": 0.14249999999995566
                },
                {
                    "name": "D5",
                    "midi": 74,
                    "time": 201.9599999999915,
                    "velocity": 0.5275590551181102,
                    "duration": 0.1074999999999875
                },
                {
                    "name": "B5",
                    "midi": 83,
                    "time": 202.0649999999915,
                    "velocity": 0.5748031496062992,
                    "duration": 0.14000000000001478
                },
                {
                    "name": "F#5",
                    "midi": 78,
                    "time": 202.1824999999915,
                    "velocity": 0.48031496062992124,
                    "duration": 0.13249999999999318
                },
                {
                    "name": "G#4",
                    "midi": 68,
                    "time": 202.2724999999915,
                    "velocity": 0.41732283464566927,
                    "duration": 0.08250000000001023
                },
                {
                    "name": "E4",
                    "midi": 64,
                    "time": 202.2899999999915,
                    "velocity": 0.4251968503937008,
                    "duration": 0.04250000000001819
                },
                {
                    "name": "B3",
                    "midi": 59,
                    "time": 202.2899999999915,
                    "velocity": 0.3858267716535433,
                    "duration": 0.11000000000001364
                },
                {
                    "name": "D5",
                    "midi": 74,
                    "time": 202.2974999999915,
                    "velocity": 0.5039370078740157,
                    "duration": 0.09000000000003183
                },
                {
                    "name": "B4",
                    "midi": 71,
                    "time": 202.4124999999915,
                    "velocity": 0.5433070866141733,
                    "duration": 0.12499999999994316
                },
                {
                    "name": "A3",
                    "midi": 57,
                    "time": 202.50499999999144,
                    "velocity": 0.4645669291338583,
                    "duration": 0.12500000000002842
                },
                {
                    "name": "F#4",
                    "midi": 66,
                    "time": 202.52499999999145,
                    "velocity": 0.33858267716535434,
                    "duration": 0.08750000000000568
                },
                {
                    "name": "F#5",
                    "midi": 78,
                    "time": 202.52999999999145,
                    "velocity": 0.5669291338582677,
                    "duration": 0.14750000000000796
                },
                {
                    "name": "D4",
                    "midi": 62,
                    "time": 202.55749999999145,
                    "velocity": 0.2992125984251969,
                    "duration": 0.05000000000001137
                },
                {
                    "name": "D#5",
                    "midi": 75,
                    "time": 202.63749999999146,
                    "velocity": 0.13385826771653545,
                    "duration": 0.03999999999999204
                },
                {
                    "name": "D5",
                    "midi": 74,
                    "time": 202.64499999999146,
                    "velocity": 0.5590551181102362,
                    "duration": 0.16499999999999204
                },
                {
                    "name": "G#4",
                    "midi": 68,
                    "time": 202.76499999999146,
                    "velocity": 0.5196850393700787,
                    "duration": 0.11499999999998067
                },
                {
                    "name": "C#5",
                    "midi": 73,
                    "time": 202.76999999999146,
                    "velocity": 0.5196850393700787,
                    "duration": 0.10499999999998977
                },
                {
                    "name": "B3",
                    "midi": 59,
                    "time": 202.77749999999145,
                    "velocity": 0.3937007874015748,
                    "duration": 0.05500000000000682
                },
                {
                    "name": "E4",
                    "midi": 64,
                    "time": 202.80999999999145,
                    "velocity": 0.2992125984251969,
                    "duration": 0.052500000000009095
                },
                {
                    "name": "B4",
                    "midi": 71,
                    "time": 202.87249999999145,
                    "velocity": 0.5748031496062992,
                    "duration": 0.04249999999998977
                },
                {
                    "name": "G#3",
                    "midi": 56,
                    "time": 203.02749999999142,
                    "velocity": 0.5354330708661418,
                    "duration": 0.4474999999999909
                },
                {
                    "name": "C#6",
                    "midi": 85,
                    "time": 203.0424999999914,
                    "velocity": 0.6141732283464567,
                    "duration": 0.5124999999999886
                },
                {
                    "name": "F#5",
                    "midi": 78,
                    "time": 203.0524999999914,
                    "velocity": 0.5590551181102362,
                    "duration": 0.42500000000001137
                },
                {
                    "name": "C#4",
                    "midi": 61,
                    "time": 203.1749999999914,
                    "velocity": 0.48031496062992124,
                    "duration": 0.14000000000001478
                },
                {
                    "name": "F#4",
                    "midi": 66,
                    "time": 203.2599999999914,
                    "velocity": 0.3779527559055118,
                    "duration": 0.11000000000001364
                },
                {
                    "name": "A#4",
                    "midi": 70,
                    "time": 203.37499999999142,
                    "velocity": 0.5118110236220472,
                    "duration": 0.09999999999999432
                },
                {
                    "name": "G#5",
                    "midi": 80,
                    "time": 203.4849999999914,
                    "velocity": 0.5826771653543307,
                    "duration": 0.11249999999998295
                },
                {
                    "name": "D#6",
                    "midi": 87,
                    "time": 203.4949999999914,
                    "velocity": 0.5984251968503937,
                    "duration": 0.11499999999998067
                },
                {
                    "name": "C5",
                    "midi": 72,
                    "time": 203.6274999999914,
                    "velocity": 0.4330708661417323,
                    "duration": 0.11750000000000682
                },
                {
                    "name": "G#4",
                    "midi": 68,
                    "time": 203.7174999999914,
                    "velocity": 0.4409448818897638,
                    "duration": 0.14750000000000796
                },
                {
                    "name": "D#4",
                    "midi": 63,
                    "time": 203.84749999999138,
                    "velocity": 0.41732283464566927,
                    "duration": 0.13749999999998863
                },
                {
                    "name": "C6",
                    "midi": 84,
                    "time": 203.99999999999136,
                    "velocity": 0.6220472440944882,
                    "duration": 0.6149999999999238
                },
                {
                    "name": "G#5",
                    "midi": 80,
                    "time": 203.99999999999136,
                    "velocity": 0.5039370078740157,
                    "duration": 0.10499999999998977
                },
                {
                    "name": "G#3",
                    "midi": 56,
                    "time": 203.99999999999136,
                    "velocity": 0.5669291338582677,
                    "duration": 0.1074999999999875
                },
                {
                    "name": "G5",
                    "midi": 79,
                    "time": 203.99999999999136,
                    "velocity": 0.5590551181102362,
                    "duration": 0.12249999999997385
                },
                {
                    "name": "F4",
                    "midi": 65,
                    "time": 204.15249999999133,
                    "velocity": 0.4881889763779528,
                    "duration": 0.15500000000000114
                },
                {
                    "name": "A#4",
                    "midi": 70,
                    "time": 204.27749999999133,
                    "velocity": 0.48031496062992124,
                    "duration": 0.09999999999999432
                },
                {
                    "name": "D5",
                    "midi": 74,
                    "time": 204.40999999999133,
                    "velocity": 0.4330708661417323,
                    "duration": 0.08749999999997726
                },
                {
                    "name": "F5",
                    "midi": 77,
                    "time": 204.5249999999913,
                    "velocity": 0.5826771653543307,
                    "duration": 0.13999999999995794
                },
                {
                    "name": "D#4",
                    "midi": 63,
                    "time": 204.5324999999913,
                    "velocity": 0.4015748031496063,
                    "duration": 0.12249999999997385
                },
                {
                    "name": "G#4",
                    "midi": 68,
                    "time": 204.5399999999913,
                    "velocity": 0.4566929133858268,
                    "duration": 0.09999999999999432
                },
                {
                    "name": "C5",
                    "midi": 72,
                    "time": 204.68499999999128,
                    "velocity": 0.41732283464566927,
                    "duration": 0.06999999999999318
                },
                {
                    "name": "C5",
                    "midi": 72,
                    "time": 204.7999999999913,
                    "velocity": 0.5354330708661418,
                    "duration": 0.07499999999998863
                },
                {
                    "name": "F4",
                    "midi": 65,
                    "time": 204.8249999999913,
                    "velocity": 0.4566929133858268,
                    "duration": 0.14249999999998408
                },
                {
                    "name": "A#4",
                    "midi": 70,
                    "time": 204.91749999999126,
                    "velocity": 0.4094488188976378,
                    "duration": 0.14750000000000796
                },
                {
                    "name": "D5",
                    "midi": 74,
                    "time": 205.02999999999128,
                    "velocity": 0.5354330708661418,
                    "duration": 0.037499999999994316
                },
                {
                    "name": "F#6",
                    "midi": 90,
                    "time": 205.23499999999126,
                    "velocity": 0.6299212598425197,
                    "duration": 0.27499999999997726
                },
                {
                    "name": "A#4",
                    "midi": 70,
                    "time": 205.23999999999126,
                    "velocity": 0.5590551181102362,
                    "duration": 0.07499999999996021
                },
                {
                    "name": "C#4",
                    "midi": 61,
                    "time": 205.24749999999125,
                    "velocity": 0.3937007874015748,
                    "duration": 0.1174999999999784
                },
                {
                    "name": "F#4",
                    "midi": 66,
                    "time": 205.25499999999124,
                    "velocity": 0.4094488188976378,
                    "duration": 0.04249999999998977
                },
                {
                    "name": "C#6",
                    "midi": 85,
                    "time": 205.46249999999122,
                    "velocity": 0.48031496062992124,
                    "duration": 0.23250000000001592
                },
                {
                    "name": "A#5",
                    "midi": 82,
                    "time": 205.63999999999123,
                    "velocity": 0.48031496062992124,
                    "duration": 0.13249999999999318
                },
                {
                    "name": "G#2",
                    "midi": 44,
                    "time": 205.64249999999123,
                    "velocity": 0.5196850393700787,
                    "duration": 0.06749999999999545
                },
                {
                    "name": "G#1",
                    "midi": 32,
                    "time": 205.64499999999123,
                    "velocity": 0.5826771653543307,
                    "duration": 0.03249999999999886
                },
                {
                    "name": "F#5",
                    "midi": 78,
                    "time": 205.80499999999122,
                    "velocity": 0.4881889763779528,
                    "duration": 0.09749999999999659
                },
                {
                    "name": "G#6",
                    "midi": 92,
                    "time": 205.95749999999123,
                    "velocity": 0.5905511811023622,
                    "duration": 0.24500000000000455
                },
                {
                    "name": "D#6",
                    "midi": 87,
                    "time": 206.13249999999124,
                    "velocity": 0.4409448818897638,
                    "duration": 0.20249999999998636
                },
                {
                    "name": "G#4",
                    "midi": 68,
                    "time": 206.39999999999122,
                    "velocity": 0.4015748031496063,
                    "duration": 0.14500000000001023
                },
                {
                    "name": "C6",
                    "midi": 84,
                    "time": 206.39999999999122,
                    "velocity": 0.44881889763779526,
                    "duration": 0.025000000000005684
                },
                {
                    "name": "C5",
                    "midi": 72,
                    "time": 206.39999999999122,
                    "velocity": 0.4094488188976378,
                    "duration": 0.06499999999999773
                },
                {
                    "name": "D#4",
                    "midi": 63,
                    "time": 206.39999999999122,
                    "velocity": 0.3937007874015748,
                    "duration": 0.09000000000000341
                },
                {
                    "name": "G#5",
                    "midi": 80,
                    "time": 206.43999999999122,
                    "velocity": 0.48031496062992124,
                    "duration": 0.10500000000001819
                },
                {
                    "name": "A6",
                    "midi": 93,
                    "time": 206.63749999999123,
                    "velocity": 0.6299212598425197,
                    "duration": 0.19750000000001933
                },
                {
                    "name": "E6",
                    "midi": 88,
                    "time": 206.81499999999124,
                    "velocity": 0.48031496062992124,
                    "duration": 0.2424999999999784
                },
                {
                    "name": "C#6",
                    "midi": 85,
                    "time": 206.99499999999125,
                    "velocity": 0.4881889763779528,
                    "duration": 0.18749999999997158
                },
                {
                    "name": "C#5",
                    "midi": 73,
                    "time": 207.00499999999124,
                    "velocity": 0.1968503937007874,
                    "duration": 0.214999999999975
                },
                {
                    "name": "E4",
                    "midi": 64,
                    "time": 207.03749999999124,
                    "velocity": 0.29133858267716534,
                    "duration": 0.17749999999998067
                },
                {
                    "name": "A4",
                    "midi": 69,
                    "time": 207.05249999999123,
                    "velocity": 0.11811023622047244,
                    "duration": 0.20999999999997954
                },
                {
                    "name": "A5",
                    "midi": 81,
                    "time": 207.20249999999123,
                    "velocity": 0.4251968503937008,
                    "duration": 0.14999999999997726
                },
                {
                    "name": "G5",
                    "midi": 79,
                    "time": 207.20499999999123,
                    "velocity": 0.41732283464566927,
                    "duration": 0.11999999999997613
                },
                {
                    "name": "B6",
                    "midi": 95,
                    "time": 207.4249999999912,
                    "velocity": 0.4251968503937008,
                    "duration": 0.5124999999999886
                },
                {
                    "name": "F#6",
                    "midi": 90,
                    "time": 207.4349999999912,
                    "velocity": 0.3937007874015748,
                    "duration": 0.5024999999999977
                },
                {
                    "name": "F#4",
                    "midi": 66,
                    "time": 207.94999999999118,
                    "velocity": 0.1732283464566929,
                    "duration": 0.2249999999999659
                },
                {
                    "name": "B5",
                    "midi": 83,
                    "time": 207.9699999999912,
                    "velocity": 0.1889763779527559,
                    "duration": 0.2074999999999534
                },
                {
                    "name": "A5",
                    "midi": 81,
                    "time": 207.9724999999912,
                    "velocity": 0.2283464566929134,
                    "duration": 0.20999999999995111
                },
                {
                    "name": "D#5",
                    "midi": 75,
                    "time": 207.97749999999118,
                    "velocity": 0.13385826771653545,
                    "duration": 0.18249999999997613
                },
                {
                    "name": "B4",
                    "midi": 71,
                    "time": 208.01499999999118,
                    "velocity": 0.16535433070866143,
                    "duration": 0.22249999999996817
                },
                {
                    "name": "G#2",
                    "midi": 44,
                    "time": 209.27249999999114,
                    "velocity": 0.4015748031496063,
                    "duration": 0.12249999999997385
                },
                {
                    "name": "D#5",
                    "midi": 75,
                    "time": 209.31249999999113,
                    "velocity": 0.2755905511811024,
                    "duration": 0.3124999999999716
                },
                {
                    "name": "G#5",
                    "midi": 80,
                    "time": 209.6324999999911,
                    "velocity": 0.3228346456692913,
                    "duration": 0.23500000000001364
                },
                {
                    "name": "D#6",
                    "midi": 87,
                    "time": 209.8724999999911,
                    "velocity": 0.3464566929133858,
                    "duration": 0.18749999999997158
                },
                {
                    "name": "E4",
                    "midi": 64,
                    "time": 209.8849999999911,
                    "velocity": 0.25984251968503935,
                    "duration": 0.04749999999998522
                },
                {
                    "name": "B4",
                    "midi": 71,
                    "time": 209.8949999999911,
                    "velocity": 0.15748031496062992,
                    "duration": 0.05249999999998067
                },
                {
                    "name": "F#6",
                    "midi": 90,
                    "time": 210.09999999999107,
                    "velocity": 0.2283464566929134,
                    "duration": 0.17500000000001137
                },
                {
                    "name": "B5",
                    "midi": 83,
                    "time": 210.2924999999911,
                    "velocity": 0.30708661417322836,
                    "duration": 0.052500000000009095
                },
                {
                    "name": "D#6",
                    "midi": 87,
                    "time": 210.3174999999911,
                    "velocity": 0.29133858267716534,
                    "duration": 0.13999999999998636
                },
                {
                    "name": "E5",
                    "midi": 76,
                    "time": 210.3374999999911,
                    "velocity": 0.2677165354330709,
                    "duration": 0.04249999999998977
                },
                {
                    "name": "G#5",
                    "midi": 80,
                    "time": 210.5174999999911,
                    "velocity": 0.3543307086614173,
                    "duration": 0.15749999999999886
                },
                {
                    "name": "C#5",
                    "midi": 73,
                    "time": 210.70999999999108,
                    "velocity": 0.3464566929133858,
                    "duration": 0.11999999999997613
                },
                {
                    "name": "A4",
                    "midi": 69,
                    "time": 210.7349999999911,
                    "velocity": 0.2755905511811024,
                    "duration": 0.04249999999998977
                },
                {
                    "name": "G#5",
                    "midi": 80,
                    "time": 210.81999999999107,
                    "velocity": 0.3858267716535433,
                    "duration": 0.12999999999999545
                },
                {
                    "name": "C#6",
                    "midi": 85,
                    "time": 210.89749999999106,
                    "velocity": 0.41732283464566927,
                    "duration": 0.12750000000002615
                },
                {
                    "name": "E6",
                    "midi": 88,
                    "time": 211.00749999999107,
                    "velocity": 0.4094488188976378,
                    "duration": 0.05999999999997385
                },
                {
                    "name": "G#2",
                    "midi": 44,
                    "time": 211.09999999999104,
                    "velocity": 0.48031496062992124,
                    "duration": 0.06999999999999318
                },
                {
                    "name": "D#5",
                    "midi": 75,
                    "time": 211.19999999999104,
                    "velocity": 0.33070866141732286,
                    "duration": 0.09499999999999886
                },
                {
                    "name": "G#5",
                    "midi": 80,
                    "time": 211.33499999999103,
                    "velocity": 0.4566929133858268,
                    "duration": 0.19999999999998863
                },
                {
                    "name": "E4",
                    "midi": 64,
                    "time": 211.52999999999102,
                    "velocity": 0.3700787401574803,
                    "duration": 0.04249999999998977
                },
                {
                    "name": "D#6",
                    "midi": 87,
                    "time": 211.544999999991,
                    "velocity": 0.3858267716535433,
                    "duration": 0.18000000000000682
                },
                {
                    "name": "B4",
                    "midi": 71,
                    "time": 211.547499999991,
                    "velocity": 0.2677165354330709,
                    "duration": 0.060000000000002274
                },
                {
                    "name": "F#6",
                    "midi": 90,
                    "time": 211.727499999991,
                    "velocity": 0.3543307086614173,
                    "duration": 0.14750000000000796
                },
                {
                    "name": "B5",
                    "midi": 83,
                    "time": 211.92249999999103,
                    "velocity": 0.3937007874015748,
                    "duration": 0.05249999999998067
                },
                {
                    "name": "E5",
                    "midi": 76,
                    "time": 211.92999999999103,
                    "velocity": 0.1732283464566929,
                    "duration": 0.0625
                },
                {
                    "name": "D#6",
                    "midi": 87,
                    "time": 211.942499999991,
                    "velocity": 0.28346456692913385,
                    "duration": 0.14750000000000796
                },
                {
                    "name": "G#5",
                    "midi": 80,
                    "time": 212.134999999991,
                    "velocity": 0.3228346456692913,
                    "duration": 0.12000000000000455
                },
                {
                    "name": "A4",
                    "midi": 69,
                    "time": 212.322499999991,
                    "velocity": 0.3779527559055118,
                    "duration": 0.04249999999998977
                },
                {
                    "name": "C#5",
                    "midi": 73,
                    "time": 212.324999999991,
                    "velocity": 0.3464566929133858,
                    "duration": 0.1174999999999784
                },
                {
                    "name": "G#5",
                    "midi": 80,
                    "time": 212.44249999999099,
                    "velocity": 0.3700787401574803,
                    "duration": 0.12250000000000227
                },
                {
                    "name": "C#6",
                    "midi": 85,
                    "time": 212.51249999999098,
                    "velocity": 0.4015748031496063,
                    "duration": 0.12999999999999545
                },
                {
                    "name": "E6",
                    "midi": 88,
                    "time": 212.614999999991,
                    "velocity": 0.4566929133858268,
                    "duration": 0.07749999999998636
                },
                {
                    "name": "G#2",
                    "midi": 44,
                    "time": 212.67499999999097,
                    "velocity": 0.5511811023622047,
                    "duration": 0.07499999999998863
                },
                {
                    "name": "D#5",
                    "midi": 75,
                    "time": 212.74749999999096,
                    "velocity": 0.4251968503937008,
                    "duration": 0.17249999999998522
                },
                {
                    "name": "G#5",
                    "midi": 80,
                    "time": 212.93499999999094,
                    "velocity": 0.5118110236220472,
                    "duration": 0.13999999999998636
                },
                {
                    "name": "E4",
                    "midi": 64,
                    "time": 213.10999999999092,
                    "velocity": 0.3937007874015748,
                    "duration": 0.06249999999997158
                },
                {
                    "name": "D#6",
                    "midi": 87,
                    "time": 213.1249999999909,
                    "velocity": 0.4409448818897638,
                    "duration": 0.18000000000000682
                },
                {
                    "name": "B4",
                    "midi": 71,
                    "time": 213.1374999999909,
                    "velocity": 0.29133858267716534,
                    "duration": 0.052500000000009095
                },
                {
                    "name": "F#6",
                    "midi": 90,
                    "time": 213.3049999999909,
                    "velocity": 0.4094488188976378,
                    "duration": 0.09000000000000341
                },
                {
                    "name": "G#5",
                    "midi": 80,
                    "time": 213.59999999999093,
                    "velocity": 0.4881889763779528,
                    "duration": 0.0724999999999909
                },
                {
                    "name": "D#6",
                    "midi": 87,
                    "time": 213.6874999999909,
                    "velocity": 0.4566929133858268,
                    "duration": 0.2524999999999977
                },
                {
                    "name": "B5",
                    "midi": 83,
                    "time": 213.89249999999092,
                    "velocity": 0.2283464566929134,
                    "duration": 0.04249999999998977
                },
                {
                    "name": "G#6",
                    "midi": 92,
                    "time": 213.89499999999092,
                    "velocity": 0.48031496062992124,
                    "duration": 0.2424999999999784
                },
                {
                    "name": "E5",
                    "midi": 76,
                    "time": 213.89499999999092,
                    "velocity": 0.41732283464566927,
                    "duration": 0.04749999999998522
                },
                {
                    "name": "B6",
                    "midi": 95,
                    "time": 214.1074999999909,
                    "velocity": 0.5196850393700787,
                    "duration": 0.10999999999998522
                },
                {
                    "name": "G#2",
                    "midi": 44,
                    "time": 214.27499999999088,
                    "velocity": 0.6062992125984252,
                    "duration": 0.05999999999997385
                },
                {
                    "name": "G#1",
                    "midi": 32,
                    "time": 214.27499999999088,
                    "velocity": 0.5905511811023622,
                    "duration": 0.03499999999999659
                },
                {
                    "name": "G#5",
                    "midi": 80,
                    "time": 214.30249999999089,
                    "velocity": 0.48031496062992124,
                    "duration": 0.16999999999995907
                },
                {
                    "name": "C#6",
                    "midi": 85,
                    "time": 214.49249999999086,
                    "velocity": 0.5433070866141733,
                    "duration": 0.214999999999975
                },
                {
                    "name": "G#6",
                    "midi": 92,
                    "time": 214.69499999999084,
                    "velocity": 0.4409448818897638,
                    "duration": 0.19499999999999318
                },
                {
                    "name": "E5",
                    "midi": 76,
                    "time": 214.70249999999083,
                    "velocity": 0.4409448818897638,
                    "duration": 0.03499999999999659
                },
                {
                    "name": "A4",
                    "midi": 69,
                    "time": 214.70499999999083,
                    "velocity": 0.4566929133858268,
                    "duration": 0.03999999999999204
                },
                {
                    "name": "C#7",
                    "midi": 97,
                    "time": 214.89749999999083,
                    "velocity": 0.4251968503937008,
                    "duration": 0.20249999999998636
                },
                {
                    "name": "G#6",
                    "midi": 92,
                    "time": 215.07499999999084,
                    "velocity": 0.4330708661417323,
                    "duration": 0.1624999999999659
                },
                {
                    "name": "E6",
                    "midi": 88,
                    "time": 215.08999999999082,
                    "velocity": 0.49606299212598426,
                    "duration": 0.03249999999997044
                },
                {
                    "name": "A5",
                    "midi": 81,
                    "time": 215.1074999999908,
                    "velocity": 0.3464566929133858,
                    "duration": 0.04249999999998977
                },
                {
                    "name": "C#6",
                    "midi": 85,
                    "time": 215.2749999999908,
                    "velocity": 0.33858267716535434,
                    "duration": 0.0800000000000125
                },
                {
                    "name": "F#5",
                    "midi": 78,
                    "time": 215.4549999999908,
                    "velocity": 0.3937007874015748,
                    "duration": 0.11249999999998295
                },
                {
                    "name": "D4",
                    "midi": 62,
                    "time": 215.4799999999908,
                    "velocity": 0.3937007874015748,
                    "duration": 0.10499999999998977
                },
                {
                    "name": "C5",
                    "midi": 72,
                    "time": 215.49749999999082,
                    "velocity": 0.23622047244094488,
                    "duration": 0.044999999999987494
                },
                {
                    "name": "F#4",
                    "midi": 66,
                    "time": 215.5074999999908,
                    "velocity": 0.1732283464566929,
                    "duration": 0.03999999999999204
                },
                {
                    "name": "C6",
                    "midi": 84,
                    "time": 215.5574999999908,
                    "velocity": 0.4409448818897638,
                    "duration": 0.12250000000000227
                },
                {
                    "name": "E6",
                    "midi": 88,
                    "time": 215.6524999999908,
                    "velocity": 0.3937007874015748,
                    "duration": 0.12250000000000227
                },
                {
                    "name": "G#6",
                    "midi": 92,
                    "time": 215.7524999999908,
                    "velocity": 0.3858267716535433,
                    "duration": 0.13749999999998863
                },
                {
                    "name": "G#1",
                    "midi": 32,
                    "time": 215.89749999999077,
                    "velocity": 0.5354330708661418,
                    "duration": 0.03249999999999886
                },
                {
                    "name": "G#2",
                    "midi": 44,
                    "time": 215.89999999999077,
                    "velocity": 0.5669291338582677,
                    "duration": 0.0625
                },
                {
                    "name": "G#5",
                    "midi": 80,
                    "time": 215.99999999999076,
                    "velocity": 0.44881889763779526,
                    "duration": 0.1150000000000091
                },
                {
                    "name": "C#6",
                    "midi": 85,
                    "time": 216.12499999999076,
                    "velocity": 0.5118110236220472,
                    "duration": 0.18250000000000455
                },
                {
                    "name": "A4",
                    "midi": 69,
                    "time": 216.30999999999077,
                    "velocity": 0.4566929133858268,
                    "duration": 0.03999999999999204
                },
                {
                    "name": "G#6",
                    "midi": 92,
                    "time": 216.30999999999077,
                    "velocity": 0.4566929133858268,
                    "duration": 0.19999999999998863
                },
                {
                    "name": "E5",
                    "midi": 76,
                    "time": 216.31499999999076,
                    "velocity": 0.3700787401574803,
                    "duration": 0.04249999999998977
                },
                {
                    "name": "C#7",
                    "midi": 97,
                    "time": 216.51249999999075,
                    "velocity": 0.33858267716535434,
                    "duration": 0.16249999999999432
                },
                {
                    "name": "E6",
                    "midi": 88,
                    "time": 216.69499999999076,
                    "velocity": 0.4330708661417323,
                    "duration": 0.037499999999994316
                },
                {
                    "name": "A5",
                    "midi": 81,
                    "time": 216.70749999999074,
                    "velocity": 0.4330708661417323,
                    "duration": 0.04750000000001364
                },
                {
                    "name": "G#6",
                    "midi": 92,
                    "time": 216.70999999999074,
                    "velocity": 0.3937007874015748,
                    "duration": 0.1775000000000091
                },
                {
                    "name": "C#6",
                    "midi": 85,
                    "time": 216.92499999999075,
                    "velocity": 0.3543307086614173,
                    "duration": 0.09000000000000341
                },
                {
                    "name": "F#5",
                    "midi": 78,
                    "time": 217.09999999999076,
                    "velocity": 0.3464566929133858,
                    "duration": 0.12749999999999773
                },
                {
                    "name": "D4",
                    "midi": 62,
                    "time": 217.13499999999075,
                    "velocity": 0.09448818897637795,
                    "duration": 0.10249999999999204
                },
                {
                    "name": "C6",
                    "midi": 84,
                    "time": 217.22499999999076,
                    "velocity": 0.4881889763779528,
                    "duration": 0.13749999999998863
                },
                {
                    "name": "E6",
                    "midi": 88,
                    "time": 217.33999999999074,
                    "velocity": 0.31496062992125984,
                    "duration": 0.1074999999999875
                },
                {
                    "name": "G#6",
                    "midi": 92,
                    "time": 217.43499999999074,
                    "velocity": 0.33858267716535434,
                    "duration": 0.12999999999999545
                },
                {
                    "name": "G#1",
                    "midi": 32,
                    "time": 217.57499999999072,
                    "velocity": 0.5511811023622047,
                    "duration": 0.03499999999996817
                },
                {
                    "name": "G#2",
                    "midi": 44,
                    "time": 217.57499999999072,
                    "velocity": 0.5905511811023622,
                    "duration": 0.05249999999998067
                },
                {
                    "name": "G#5",
                    "midi": 80,
                    "time": 217.7149999999907,
                    "velocity": 0.4251968503937008,
                    "duration": 0.12250000000000227
                },
                {
                    "name": "C#6",
                    "midi": 85,
                    "time": 217.8449999999907,
                    "velocity": 0.4251968503937008,
                    "duration": 0.11750000000000682
                },
                {
                    "name": "G#6",
                    "midi": 92,
                    "time": 217.9674999999907,
                    "velocity": 0.4094488188976378,
                    "duration": 0.08750000000000568
                },
                {
                    "name": "E6",
                    "midi": 88,
                    "time": 218.0574999999907,
                    "velocity": 0.5275590551181102,
                    "duration": 0.037499999999994316
                },
                {
                    "name": "A5",
                    "midi": 81,
                    "time": 218.0699999999907,
                    "velocity": 0.3937007874015748,
                    "duration": 0.03499999999999659
                },
                {
                    "name": "C#7",
                    "midi": 97,
                    "time": 218.0749999999907,
                    "velocity": 0.3858267716535433,
                    "duration": 0.09499999999999886
                },
                {
                    "name": "G#6",
                    "midi": 92,
                    "time": 218.1424999999907,
                    "velocity": 0.2677165354330709,
                    "duration": 0.1525000000000034
                },
                {
                    "name": "C#6",
                    "midi": 85,
                    "time": 218.2849999999907,
                    "velocity": 0.16535433070866143,
                    "duration": 0.04999999999998295
                },
                {
                    "name": "G#5",
                    "midi": 80,
                    "time": 218.34499999999068,
                    "velocity": 0.47244094488188976,
                    "duration": 0.05000000000001137
                },
                {
                    "name": "A4",
                    "midi": 69,
                    "time": 218.4549999999907,
                    "velocity": 0.5039370078740157,
                    "duration": 0.08999999999997499
                },
                {
                    "name": "E5",
                    "midi": 76,
                    "time": 218.46249999999068,
                    "velocity": 0.4330708661417323,
                    "duration": 0.04249999999998977
                },
                {
                    "name": "C#5",
                    "midi": 73,
                    "time": 218.56499999999068,
                    "velocity": 0.44881889763779526,
                    "duration": 0.06749999999999545
                },
                {
                    "name": "G#5",
                    "midi": 80,
                    "time": 218.65499999999068,
                    "velocity": 0.4330708661417323,
                    "duration": 0.10000000000002274
                },
                {
                    "name": "C#6",
                    "midi": 85,
                    "time": 218.7349999999907,
                    "velocity": 0.4566929133858268,
                    "duration": 0.10500000000001819
                },
                {
                    "name": "G#6",
                    "midi": 92,
                    "time": 218.8399999999907,
                    "velocity": 0.5984251968503937,
                    "duration": 0.11499999999998067
                },
                {
                    "name": "E5",
                    "midi": 76,
                    "time": 218.8449999999907,
                    "velocity": 0.5196850393700787,
                    "duration": 0.037499999999994316
                },
                {
                    "name": "A5",
                    "midi": 81,
                    "time": 218.8749999999907,
                    "velocity": 0.25984251968503935,
                    "duration": 0.044999999999987494
                },
                {
                    "name": "C#6",
                    "midi": 85,
                    "time": 218.93499999999068,
                    "velocity": 0.3464566929133858,
                    "duration": 0.12000000000000455
                },
                {
                    "name": "G#5",
                    "midi": 80,
                    "time": 219.0199999999907,
                    "velocity": 0.3779527559055118,
                    "duration": 0.10249999999999204
                },
                {
                    "name": "C#5",
                    "midi": 73,
                    "time": 219.13499999999067,
                    "velocity": 0.41732283464566927,
                    "duration": 0.05750000000000455
                },
                {
                    "name": "A4",
                    "midi": 69,
                    "time": 219.2349999999907,
                    "velocity": 0.3543307086614173,
                    "duration": 0.0800000000000125
                },
                {
                    "name": "E4",
                    "midi": 64,
                    "time": 219.2649999999907,
                    "velocity": 0.3228346456692913,
                    "duration": 0.060000000000002274
                },
                {
                    "name": "G#4",
                    "midi": 68,
                    "time": 219.3449999999907,
                    "velocity": 0.4409448818897638,
                    "duration": 0.10499999999998977
                },
                {
                    "name": "C#5",
                    "midi": 73,
                    "time": 219.4449999999907,
                    "velocity": 0.36220472440944884,
                    "duration": 0.13249999999999318
                },
                {
                    "name": "G#5",
                    "midi": 80,
                    "time": 219.5424999999907,
                    "velocity": 0.33858267716535434,
                    "duration": 0.09499999999999886
                },
                {
                    "name": "C#6",
                    "midi": 85,
                    "time": 219.6549999999907,
                    "velocity": 0.5039370078740157,
                    "duration": 0.10750000000001592
                },
                {
                    "name": "E5",
                    "midi": 76,
                    "time": 219.67249999999072,
                    "velocity": 0.36220472440944884,
                    "duration": 0.040000000000020464
                },
                {
                    "name": "A4",
                    "midi": 69,
                    "time": 219.68999999999073,
                    "velocity": 0.3464566929133858,
                    "duration": 0.037499999999994316
                },
                {
                    "name": "G#5",
                    "midi": 80,
                    "time": 219.75999999999073,
                    "velocity": 0.33858267716535434,
                    "duration": 0.1174999999999784
                },
                {
                    "name": "C#5",
                    "midi": 73,
                    "time": 219.86499999999072,
                    "velocity": 0.16535433070866143,
                    "duration": 0.0724999999999909
                },
                {
                    "name": "G#4",
                    "midi": 68,
                    "time": 219.9374999999907,
                    "velocity": 0.33858267716535434,
                    "duration": 0.05000000000001137
                },
                {
                    "name": "A3",
                    "midi": 57,
                    "time": 220.0549999999907,
                    "velocity": 0.3779527559055118,
                    "duration": 0.057499999999976126
                },
                {
                    "name": "E4",
                    "midi": 64,
                    "time": 220.0624999999907,
                    "velocity": 0.3779527559055118,
                    "duration": 0.05999999999997385
                },
                {
                    "name": "C#4",
                    "midi": 61,
                    "time": 220.14999999999068,
                    "velocity": 0.3937007874015748,
                    "duration": 0.125
                },
                {
                    "name": "G#4",
                    "midi": 68,
                    "time": 220.28499999999067,
                    "velocity": 0.33858267716535434,
                    "duration": 0.08249999999998181
                },
                {
                    "name": "C#5",
                    "midi": 73,
                    "time": 220.35499999999067,
                    "velocity": 0.3543307086614173,
                    "duration": 0.10249999999999204
                },
                {
                    "name": "G#5",
                    "midi": 80,
                    "time": 220.47249999999065,
                    "velocity": 0.48031496062992124,
                    "duration": 0.08749999999997726
                },
                {
                    "name": "A4",
                    "midi": 69,
                    "time": 220.48999999999066,
                    "velocity": 0.4330708661417323,
                    "duration": 0.044999999999987494
                },
                {
                    "name": "E4",
                    "midi": 64,
                    "time": 220.50249999999065,
                    "velocity": 0.3464566929133858,
                    "duration": 0.04249999999998977
                },
                {
                    "name": "C#5",
                    "midi": 73,
                    "time": 220.56499999999062,
                    "velocity": 0.18110236220472442,
                    "duration": 0.09749999999999659
                },
                {
                    "name": "G#4",
                    "midi": 68,
                    "time": 220.6724999999906,
                    "velocity": 0.2204724409448819,
                    "duration": 0.05000000000001137
                },
                {
                    "name": "C#4",
                    "midi": 61,
                    "time": 220.7999999999906,
                    "velocity": 0.2440944881889764,
                    "duration": 0.030000000000001137
                },
                {
                    "name": "G#3",
                    "midi": 56,
                    "time": 220.98749999999055,
                    "velocity": 0.3858267716535433,
                    "duration": 0.08749999999997726
                },
                {
                    "name": "C#4",
                    "midi": 61,
                    "time": 221.10749999999052,
                    "velocity": 0.3858267716535433,
                    "duration": 0.09000000000000341
                },
                {
                    "name": "G#4",
                    "midi": 68,
                    "time": 221.20499999999052,
                    "velocity": 0.25984251968503935,
                    "duration": 0.10249999999999204
                },
                {
                    "name": "E3",
                    "midi": 52,
                    "time": 221.3149999999905,
                    "velocity": 0.33858267716535434,
                    "duration": 0.08249999999998181
                },
                {
                    "name": "C#5",
                    "midi": 73,
                    "time": 221.3274999999905,
                    "velocity": 0.3700787401574803,
                    "duration": 0.09749999999999659
                },
                {
                    "name": "A3",
                    "midi": 57,
                    "time": 221.3349999999905,
                    "velocity": 0.2677165354330709,
                    "duration": 0.05000000000001137
                },
                {
                    "name": "G#4",
                    "midi": 68,
                    "time": 221.4549999999905,
                    "velocity": 0.16535433070866143,
                    "duration": 0.0724999999999909
                },
                {
                    "name": "G#3",
                    "midi": 56,
                    "time": 221.6149999999905,
                    "velocity": 0.33858267716535434,
                    "duration": 0.06749999999999545
                },
                {
                    "name": "E3",
                    "midi": 52,
                    "time": 221.74499999999048,
                    "velocity": 0.4094488188976378,
                    "duration": 0.04749999999998522
                },
                {
                    "name": "A3",
                    "midi": 57,
                    "time": 221.75749999999047,
                    "velocity": 0.15748031496062992,
                    "duration": 0.052500000000009095
                },
                {
                    "name": "G#3",
                    "midi": 56,
                    "time": 221.81749999999047,
                    "velocity": 0.2755905511811024,
                    "duration": 0.21999999999999886
                },
                {
                    "name": "C#4",
                    "midi": 61,
                    "time": 221.9599999999905,
                    "velocity": 0.29133858267716534,
                    "duration": 0.07749999999998636
                },
                {
                    "name": "G#4",
                    "midi": 68,
                    "time": 222.04249999999047,
                    "velocity": 0.2677165354330709,
                    "duration": 0.10499999999998977
                },
                {
                    "name": "E3",
                    "midi": 52,
                    "time": 222.15499999999045,
                    "velocity": 0.36220472440944884,
                    "duration": 0.06249999999997158
                },
                {
                    "name": "A3",
                    "midi": 57,
                    "time": 222.16749999999044,
                    "velocity": 0.3464566929133858,
                    "duration": 0.05249999999998067
                },
                {
                    "name": "C#5",
                    "midi": 73,
                    "time": 222.17499999999043,
                    "velocity": 0.3858267716535433,
                    "duration": 0.09999999999999432
                },
                {
                    "name": "G#4",
                    "midi": 68,
                    "time": 222.27499999999043,
                    "velocity": 0.11023622047244094,
                    "duration": 0.43749999999991473
                },
                {
                    "name": "G#3",
                    "midi": 56,
                    "time": 222.4774999999904,
                    "velocity": 0.2283464566929134,
                    "duration": 0.04249999999998977
                },
                {
                    "name": "G#2",
                    "midi": 44,
                    "time": 222.5799999999904,
                    "velocity": 0.4881889763779528,
                    "duration": 1.497499999999775
                },
                {
                    "name": "A3",
                    "midi": 57,
                    "time": 222.61749999999037,
                    "velocity": 0.44881889763779526,
                    "duration": 0.057499999999976126
                },
                {
                    "name": "E3",
                    "midi": 52,
                    "time": 222.62999999999036,
                    "velocity": 0.3779527559055118,
                    "duration": 0.04999999999998295
                },
                {
                    "name": "G#3",
                    "midi": 56,
                    "time": 222.66499999999036,
                    "velocity": 0.4015748031496063,
                    "duration": 0.10999999999998522
                },
                {
                    "name": "C#4",
                    "midi": 61,
                    "time": 222.78499999999033,
                    "velocity": 0.2440944881889764,
                    "duration": 0.060000000000002274
                },
                {
                    "name": "G#4",
                    "midi": 68,
                    "time": 222.86499999999035,
                    "velocity": 0.3228346456692913,
                    "duration": 0.11250000000001137
                },
                {
                    "name": "E3",
                    "midi": 52,
                    "time": 223.03499999999033,
                    "velocity": 0.2992125984251969,
                    "duration": 0.12249999999994543
                },
                {
                    "name": "C#5",
                    "midi": 73,
                    "time": 223.03749999999033,
                    "velocity": 0.2047244094488189,
                    "duration": 0.06249999999997158
                },
                {
                    "name": "A3",
                    "midi": 57,
                    "time": 223.0574999999903,
                    "velocity": 0.09448818897637795,
                    "duration": 0.037499999999994316
                },
                {
                    "name": "G#4",
                    "midi": 68,
                    "time": 223.19999999999027,
                    "velocity": 0.2283464566929134,
                    "duration": 0.03499999999999659
                },
                {
                    "name": "G#3",
                    "midi": 56,
                    "time": 223.31499999999028,
                    "velocity": 0.2204724409448819,
                    "duration": 0.07499999999998863
                },
                {
                    "name": "A3",
                    "midi": 57,
                    "time": 223.46999999999028,
                    "velocity": 0.2677165354330709,
                    "duration": 0.08999999999994657
                },
                {
                    "name": "E3",
                    "midi": 52,
                    "time": 223.48249999999027,
                    "velocity": 0.2283464566929134,
                    "duration": 0.057499999999976126
                },
                {
                    "name": "G#3",
                    "midi": 56,
                    "time": 223.53999999999024,
                    "velocity": 0.3543307086614173,
                    "duration": 0.11999999999997613
                },
                {
                    "name": "C#4",
                    "midi": 61,
                    "time": 223.6974999999902,
                    "velocity": 0.2755905511811024,
                    "duration": 0.08750000000000568
                },
                {
                    "name": "G#4",
                    "midi": 68,
                    "time": 223.80499999999023,
                    "velocity": 0.1732283464566929,
                    "duration": 0.07499999999998863
                },
                {
                    "name": "C#5",
                    "midi": 73,
                    "time": 223.9549999999902,
                    "velocity": 0.2047244094488189,
                    "duration": 0.07749999999998636
                },
                {
                    "name": "E3",
                    "midi": 52,
                    "time": 223.9549999999902,
                    "velocity": 0.18110236220472442,
                    "duration": 0.0724999999999909
                },
                {
                    "name": "G#4",
                    "midi": 68,
                    "time": 224.0649999999902,
                    "velocity": 0.18110236220472442,
                    "duration": 0.44749999999993406
                },
                {
                    "name": "G#3",
                    "midi": 56,
                    "time": 224.3449999999902,
                    "velocity": 0.23622047244094488,
                    "duration": 0.060000000000002274
                },
                {
                    "name": "F#2",
                    "midi": 42,
                    "time": 224.48499999999015,
                    "velocity": 0.4409448818897638,
                    "duration": 0.06999999999993634
                },
                {
                    "name": "G#3",
                    "midi": 56,
                    "time": 224.48749999999015,
                    "velocity": 0.2283464566929134,
                    "duration": 0.07499999999993179
                },
                {
                    "name": "D#3",
                    "midi": 51,
                    "time": 224.49749999999014,
                    "velocity": 0.3858267716535433,
                    "duration": 0.04499999999995907
                },
                {
                    "name": "E3",
                    "midi": 52,
                    "time": 224.65499999999008,
                    "velocity": 0.3937007874015748,
                    "duration": 0.11000000000001364
                },
                {
                    "name": "A3",
                    "midi": 57,
                    "time": 224.77749999999008,
                    "velocity": 0.1889763779527559,
                    "duration": 0.06749999999999545
                },
                {
                    "name": "E4",
                    "midi": 64,
                    "time": 224.88499999999007,
                    "velocity": 0.36220472440944884,
                    "duration": 0.03999999999999204
                },
                {
                    "name": "F#3",
                    "midi": 54,
                    "time": 224.94999999999007,
                    "velocity": 0.33858267716535434,
                    "duration": 0.05500000000000682
                },
                {
                    "name": "G#4",
                    "midi": 68,
                    "time": 224.95249999999007,
                    "velocity": 0.3700787401574803,
                    "duration": 0.04750000000001364
                },
                {
                    "name": "D#4",
                    "midi": 63,
                    "time": 224.97249999999008,
                    "velocity": 0.3228346456692913,
                    "duration": 0.03249999999999886
                },
                {
                    "name": "D4",
                    "midi": 62,
                    "time": 225.08999999999008,
                    "velocity": 0.25984251968503935,
                    "duration": 0.06499999999999773
                },
                {
                    "name": "E4",
                    "midi": 64,
                    "time": 225.10249999999007,
                    "velocity": 0.23622047244094488,
                    "duration": 0.052500000000009095
                },
                {
                    "name": "A4",
                    "midi": 69,
                    "time": 225.1749999999901,
                    "velocity": 0.2755905511811024,
                    "duration": 0.09999999999999432
                },
                {
                    "name": "E5",
                    "midi": 76,
                    "time": 225.28749999999008,
                    "velocity": 0.3858267716535433,
                    "duration": 0.037499999999994316
                },
                {
                    "name": "F#4",
                    "midi": 66,
                    "time": 225.34999999999008,
                    "velocity": 0.33858267716535434,
                    "duration": 0.0724999999999909
                },
                {
                    "name": "D#5",
                    "midi": 75,
                    "time": 225.38499999999007,
                    "velocity": 0.3937007874015748,
                    "duration": 0.03499999999999659
                },
                {
                    "name": "G#5",
                    "midi": 80,
                    "time": 225.39499999999006,
                    "velocity": 0.2125984251968504,
                    "duration": 0.03499999999999659
                },
                {
                    "name": "E5",
                    "midi": 76,
                    "time": 225.47749999999007,
                    "velocity": 0.4881889763779528,
                    "duration": 0.09499999999999886
                },
                {
                    "name": "C6",
                    "midi": 84,
                    "time": 225.59999999999008,
                    "velocity": 0.49606299212598426,
                    "duration": 0.08999999999997499
                },
                {
                    "name": "A5",
                    "midi": 81,
                    "time": 225.59999999999008,
                    "velocity": 0.3543307086614173,
                    "duration": 0.044999999999987494
                },
                {
                    "name": "E6",
                    "midi": 88,
                    "time": 225.69749999999004,
                    "velocity": 0.44881889763779526,
                    "duration": 0.03499999999999659
                },
                {
                    "name": "F#5",
                    "midi": 78,
                    "time": 225.78999999999004,
                    "velocity": 0.3543307086614173,
                    "duration": 0.07499999999998863
                },
                {
                    "name": "G#6",
                    "midi": 92,
                    "time": 225.83499999999003,
                    "velocity": 0.18110236220472442,
                    "duration": 0.044999999999987494
                },
                {
                    "name": "E6",
                    "midi": 88,
                    "time": 225.91499999999002,
                    "velocity": 0.3937007874015748,
                    "duration": 0.11499999999998067
                },
                {
                    "name": "A6",
                    "midi": 93,
                    "time": 225.98749999999,
                    "velocity": 0.5039370078740157,
                    "duration": 0.13749999999998863
                },
                {
                    "name": "C7",
                    "midi": 96,
                    "time": 226.08249999999,
                    "velocity": 0.4409448818897638,
                    "duration": 0.1074999999999875
                },
                {
                    "name": "E7",
                    "midi": 100,
                    "time": 226.18749999999,
                    "velocity": 0.4645669291338583,
                    "duration": 0.04249999999998977
                },
                {
                    "name": "F#6",
                    "midi": 90,
                    "time": 226.34499999998997,
                    "velocity": 0.4881889763779528,
                    "duration": 0.1274999999999693
                },
                {
                    "name": "G#6",
                    "midi": 92,
                    "time": 226.46999999998994,
                    "velocity": 0.4330708661417323,
                    "duration": 0.04249999999998977
                },
                {
                    "name": "D#7",
                    "midi": 99,
                    "time": 226.55749999998991,
                    "velocity": 0.2440944881889764,
                    "duration": 0.05500000000000682
                },
                {
                    "name": "A6",
                    "midi": 93,
                    "time": 226.63999999998993,
                    "velocity": 0.4094488188976378,
                    "duration": 0.11249999999998295
                },
                {
                    "name": "C7",
                    "midi": 96,
                    "time": 226.7149999999899,
                    "velocity": 0.48031496062992124,
                    "duration": 0.09999999999999432
                },
                {
                    "name": "E7",
                    "midi": 100,
                    "time": 226.7599999999899,
                    "velocity": 0.4251968503937008,
                    "duration": 0.07750000000001478
                },
                {
                    "name": "A7",
                    "midi": 105,
                    "time": 226.83749999998992,
                    "velocity": 0.4330708661417323,
                    "duration": 0.037499999999994316
                },
                {
                    "name": "F#6",
                    "midi": 90,
                    "time": 226.8524999999899,
                    "velocity": 0.33070866141732286,
                    "duration": 0.10249999999999204
                },
                {
                    "name": "A#6",
                    "midi": 94,
                    "time": 226.9399999999899,
                    "velocity": 0.4330708661417323,
                    "duration": 0.12249999999997385
                },
                {
                    "name": "B6",
                    "midi": 95,
                    "time": 227.1124999999899,
                    "velocity": 0.15748031496062992,
                    "duration": 0.0625
                },
                {
                    "name": "E7",
                    "midi": 100,
                    "time": 227.18499999998988,
                    "velocity": 0.18110236220472442,
                    "duration": 0.05000000000001137
                },
                {
                    "name": "E6",
                    "midi": 88,
                    "time": 227.3074999999899,
                    "velocity": 0.33858267716535434,
                    "duration": 0.04749999999998522
                },
                {
                    "name": "F#6",
                    "midi": 90,
                    "time": 227.37999999998985,
                    "velocity": 0.3937007874015748,
                    "duration": 0.037499999999994316
                },
                {
                    "name": "C#7",
                    "midi": 97,
                    "time": 227.46749999998985,
                    "velocity": 0.25196850393700787,
                    "duration": 0.03499999999999659
                },
                {
                    "name": "F6",
                    "midi": 89,
                    "time": 227.53749999998985,
                    "velocity": 0.23622047244094488,
                    "duration": 0.08750000000000568
                },
                {
                    "name": "A#6",
                    "midi": 94,
                    "time": 227.59749999998985,
                    "velocity": 0.3543307086614173,
                    "duration": 0.08750000000000568
                },
                {
                    "name": "D7",
                    "midi": 98,
                    "time": 227.65499999998985,
                    "velocity": 0.2677165354330709,
                    "duration": 0.08250000000001023
                },
                {
                    "name": "G7",
                    "midi": 103,
                    "time": 227.71499999998986,
                    "velocity": 0.44881889763779526,
                    "duration": 0.0625
                },
                {
                    "name": "E6",
                    "midi": 88,
                    "time": 227.75249999998985,
                    "velocity": 0.2755905511811024,
                    "duration": 0.09499999999999886
                },
                {
                    "name": "G#6",
                    "midi": 92,
                    "time": 227.84999999998985,
                    "velocity": 0.3464566929133858,
                    "duration": 0.11250000000001137
                },
                {
                    "name": "C7",
                    "midi": 96,
                    "time": 227.94499999998985,
                    "velocity": 0.4566929133858268,
                    "duration": 0.040000000000020464
                },
                {
                    "name": "A6",
                    "midi": 93,
                    "time": 227.99999999998985,
                    "velocity": 0.4409448818897638,
                    "duration": 0.07500000000001705
                },
                {
                    "name": "C#7",
                    "midi": 97,
                    "time": 228.02249999998986,
                    "velocity": 0.4094488188976378,
                    "duration": 0.1325000000000216
                },
                {
                    "name": "E7",
                    "midi": 100,
                    "time": 228.09249999998988,
                    "velocity": 0.41732283464566927,
                    "duration": 0.07749999999998636
                },
                {
                    "name": "A7",
                    "midi": 105,
                    "time": 228.15249999998989,
                    "velocity": 0.4330708661417323,
                    "duration": 0.05249999999998067
                },
                {
                    "name": "D6",
                    "midi": 86,
                    "time": 228.22249999998988,
                    "velocity": 0.23622047244094488,
                    "duration": 0.0625
                },
                {
                    "name": "E6",
                    "midi": 88,
                    "time": 228.3049999999899,
                    "velocity": 0.4251968503937008,
                    "duration": 0.06999999999999318
                },
                {
                    "name": "F6",
                    "midi": 89,
                    "time": 228.38249999998988,
                    "velocity": 0.4566929133858268,
                    "duration": 0.13500000000001933
                },
                {
                    "name": "G#6",
                    "midi": 92,
                    "time": 228.49999999998988,
                    "velocity": 0.4251968503937008,
                    "duration": 0.07250000000001933
                },
                {
                    "name": "C7",
                    "midi": 96,
                    "time": 228.5674999999899,
                    "velocity": 0.3543307086614173,
                    "duration": 0.037499999999994316
                },
                {
                    "name": "F7",
                    "midi": 101,
                    "time": 228.6049999999899,
                    "velocity": 0.3543307086614173,
                    "duration": 0.04749999999998522
                },
                {
                    "name": "D6",
                    "midi": 86,
                    "time": 228.6449999999899,
                    "velocity": 0.3779527559055118,
                    "duration": 0.06999999999999318
                },
                {
                    "name": "F#6",
                    "midi": 90,
                    "time": 228.71749999998988,
                    "velocity": 0.4409448818897638,
                    "duration": 0.07749999999998636
                },
                {
                    "name": "A#6",
                    "midi": 94,
                    "time": 228.82999999998987,
                    "velocity": 0.30708661417322836,
                    "duration": 0.08499999999997954
                },
                {
                    "name": "G6",
                    "midi": 91,
                    "time": 228.84499999998985,
                    "velocity": 0.3700787401574803,
                    "duration": 0.11499999999998067
                },
                {
                    "name": "B6",
                    "midi": 95,
                    "time": 228.92749999998983,
                    "velocity": 0.4094488188976378,
                    "duration": 0.11750000000000682
                },
                {
                    "name": "D7",
                    "midi": 98,
                    "time": 228.97749999998985,
                    "velocity": 0.4015748031496063,
                    "duration": 0.0724999999999909
                },
                {
                    "name": "G7",
                    "midi": 103,
                    "time": 229.01499999998984,
                    "velocity": 0.4881889763779528,
                    "duration": 0.06999999999999318
                },
                {
                    "name": "C6",
                    "midi": 84,
                    "time": 229.07999999998984,
                    "velocity": 0.4881889763779528,
                    "duration": 0.09499999999999886
                },
                {
                    "name": "D6",
                    "midi": 86,
                    "time": 229.13999999998984,
                    "velocity": 0.29133858267716534,
                    "duration": 0.09749999999999659
                },
                {
                    "name": "A6",
                    "midi": 93,
                    "time": 229.22499999998985,
                    "velocity": 0.2440944881889764,
                    "duration": 0.03249999999997044
                },
                {
                    "name": "D#6",
                    "midi": 87,
                    "time": 229.24499999998983,
                    "velocity": 0.5039370078740157,
                    "duration": 0.12999999999996703
                },
                {
                    "name": "F#6",
                    "midi": 90,
                    "time": 229.3274999999898,
                    "velocity": 0.4015748031496063,
                    "duration": 0.11249999999998295
                },
                {
                    "name": "A#6",
                    "midi": 94,
                    "time": 229.3674999999898,
                    "velocity": 0.2755905511811024,
                    "duration": 0.10499999999998977
                },
                {
                    "name": "D#7",
                    "midi": 99,
                    "time": 229.4249999999898,
                    "velocity": 0.48031496062992124,
                    "duration": 0.06999999999999318
                },
                {
                    "name": "C6",
                    "midi": 84,
                    "time": 229.4774999999898,
                    "velocity": 0.4881889763779528,
                    "duration": 0.08750000000000568
                },
                {
                    "name": "E6",
                    "midi": 88,
                    "time": 229.5674999999898,
                    "velocity": 0.4094488188976378,
                    "duration": 0.06499999999999773
                },
                {
                    "name": "G#6",
                    "midi": 92,
                    "time": 229.67249999998978,
                    "velocity": 0.48031496062992124,
                    "duration": 0.08750000000000568
                },
                {
                    "name": "F6",
                    "midi": 89,
                    "time": 229.70249999998978,
                    "velocity": 0.3937007874015748,
                    "duration": 0.10249999999999204
                },
                {
                    "name": "A6",
                    "midi": 93,
                    "time": 229.76999999998978,
                    "velocity": 0.5590551181102362,
                    "duration": 0.06749999999999545
                },
                {
                    "name": "C7",
                    "midi": 96,
                    "time": 229.8224999999898,
                    "velocity": 0.4251968503937008,
                    "duration": 0.07999999999998408
                },
                {
                    "name": "F7",
                    "midi": 101,
                    "time": 229.88249999998976,
                    "velocity": 0.4645669291338583,
                    "duration": 0.0625
                },
                {
                    "name": "A5",
                    "midi": 81,
                    "time": 229.93249999998977,
                    "velocity": 0.2992125984251969,
                    "duration": 0.0625
                },
                {
                    "name": "B5",
                    "midi": 83,
                    "time": 230.00499999998976,
                    "velocity": 0.4566929133858268,
                    "duration": 0.0800000000000125
                },
                {
                    "name": "C6",
                    "midi": 84,
                    "time": 230.11249999998978,
                    "velocity": 0.47244094488188976,
                    "duration": 0.13749999999998863
                },
                {
                    "name": "D#6",
                    "midi": 87,
                    "time": 230.20499999998978,
                    "velocity": 0.4645669291338583,
                    "duration": 0.10749999999995907
                },
                {
                    "name": "G6",
                    "midi": 91,
                    "time": 230.25499999998976,
                    "velocity": 0.4015748031496063,
                    "duration": 0.04999999999998295
                },
                {
                    "name": "C7",
                    "midi": 96,
                    "time": 230.29249999998976,
                    "velocity": 0.5196850393700787,
                    "duration": 0.0724999999999909
                },
                {
                    "name": "F#5",
                    "midi": 78,
                    "time": 230.39999999998975,
                    "velocity": 0.4094488188976378,
                    "duration": 0.03499999999999659
                },
                {
                    "name": "G#5",
                    "midi": 80,
                    "time": 230.42249999998975,
                    "velocity": 0.4645669291338583,
                    "duration": 0.07999999999998408
                },
                {
                    "name": "A5",
                    "midi": 81,
                    "time": 230.54499999998973,
                    "velocity": 0.4015748031496063,
                    "duration": 0.12999999999999545
                },
                {
                    "name": "C6",
                    "midi": 84,
                    "time": 230.63999999998973,
                    "velocity": 0.49606299212598426,
                    "duration": 0.09499999999999886
                },
                {
                    "name": "A6",
                    "midi": 93,
                    "time": 230.71249999998972,
                    "velocity": 0.5511811023622047,
                    "duration": 0.045000000000015916
                },
                {
                    "name": "E6",
                    "midi": 88,
                    "time": 230.71499999998971,
                    "velocity": 0.2440944881889764,
                    "duration": 0.04250000000001819
                },
                {
                    "name": "D#5",
                    "midi": 75,
                    "time": 230.73249999998973,
                    "velocity": 0.4015748031496063,
                    "duration": 0.125
                },
                {
                    "name": "F5",
                    "midi": 77,
                    "time": 230.84499999998974,
                    "velocity": 0.2440944881889764,
                    "duration": 0.0724999999999909
                },
                {
                    "name": "B5",
                    "midi": 83,
                    "time": 230.88999999998973,
                    "velocity": 0.4881889763779528,
                    "duration": 0.07250000000001933
                },
                {
                    "name": "F#5",
                    "midi": 78,
                    "time": 230.93499999998974,
                    "velocity": 0.4251968503937008,
                    "duration": 0.10249999999999204
                },
                {
                    "name": "A5",
                    "midi": 81,
                    "time": 231.02499999998975,
                    "velocity": 0.4330708661417323,
                    "duration": 0.0999999999999659
                },
                {
                    "name": "C#6",
                    "midi": 85,
                    "time": 231.08249999998972,
                    "velocity": 0.33858267716535434,
                    "duration": 0.07749999999998636
                },
                {
                    "name": "F#6",
                    "midi": 90,
                    "time": 231.08999999998971,
                    "velocity": 0.4645669291338583,
                    "duration": 0.07499999999998863
                },
                {
                    "name": "C5",
                    "midi": 72,
                    "time": 231.1374999999897,
                    "velocity": 0.2440944881889764,
                    "duration": 0.09749999999999659
                },
                {
                    "name": "D5",
                    "midi": 74,
                    "time": 231.1999999999897,
                    "velocity": 0.49606299212598426,
                    "duration": 0.10999999999998522
                },
                {
                    "name": "G5",
                    "midi": 79,
                    "time": 231.32249999998967,
                    "velocity": 0.44881889763779526,
                    "duration": 0.03999999999999204
                },
                {
                    "name": "D#5",
                    "midi": 75,
                    "time": 231.32499999998967,
                    "velocity": 0.49606299212598426,
                    "duration": 0.09499999999997044
                },
                {
                    "name": "F#5",
                    "midi": 78,
                    "time": 231.37749999998965,
                    "velocity": 0.44881889763779526,
                    "duration": 0.1074999999999875
                },
                {
                    "name": "A#5",
                    "midi": 82,
                    "time": 231.45249999998964,
                    "velocity": 0.3464566929133858,
                    "duration": 0.037499999999994316
                },
                {
                    "name": "D#6",
                    "midi": 87,
                    "time": 231.47749999998965,
                    "velocity": 0.5039370078740157,
                    "duration": 0.0724999999999909
                },
                {
                    "name": "A4",
                    "midi": 69,
                    "time": 231.52499999998963,
                    "velocity": 0.33858267716535434,
                    "duration": 0.09750000000002501
                },
                {
                    "name": "B4",
                    "midi": 71,
                    "time": 231.59749999998965,
                    "velocity": 0.5039370078740157,
                    "duration": 0.07750000000001478
                },
                {
                    "name": "F#5",
                    "midi": 78,
                    "time": 231.69249999998968,
                    "velocity": 0.4645669291338583,
                    "duration": 0.03499999999999659
                },
                {
                    "name": "C5",
                    "midi": 72,
                    "time": 231.76499999998967,
                    "velocity": 0.44881889763779526,
                    "duration": 0.11250000000001137
                },
                {
                    "name": "D#5",
                    "midi": 75,
                    "time": 231.84499999998968,
                    "velocity": 0.41732283464566927,
                    "duration": 0.08499999999997954
                },
                {
                    "name": "G5",
                    "midi": 79,
                    "time": 231.88249999998968,
                    "velocity": 0.41732283464566927,
                    "duration": 0.04249999999998977
                },
                {
                    "name": "C6",
                    "midi": 84,
                    "time": 231.90499999998968,
                    "velocity": 0.5590551181102362,
                    "duration": 0.07999999999995566
                },
                {
                    "name": "F#4",
                    "midi": 66,
                    "time": 231.91249999998968,
                    "velocity": 0.3700787401574803,
                    "duration": 0.10749999999993065
                },
                {
                    "name": "G#4",
                    "midi": 68,
                    "time": 232.00999999998962,
                    "velocity": 0.4330708661417323,
                    "duration": 0.05999999999997385
                },
                {
                    "name": "D#5",
                    "midi": 75,
                    "time": 232.0624999999896,
                    "velocity": 0.33070866141732286,
                    "duration": 0.03499999999999659
                },
                {
                    "name": "A4",
                    "midi": 69,
                    "time": 232.1549999999896,
                    "velocity": 0.44881889763779526,
                    "duration": 0.12000000000000455
                },
                {
                    "name": "C5",
                    "midi": 72,
                    "time": 232.2249999999896,
                    "velocity": 0.36220472440944884,
                    "duration": 0.11499999999998067
                },
                {
                    "name": "E5",
                    "midi": 76,
                    "time": 232.2874999999896,
                    "velocity": 0.4251968503937008,
                    "duration": 0.04999999999998295
                },
                {
                    "name": "D#4",
                    "midi": 63,
                    "time": 232.29999999998958,
                    "velocity": 0.3937007874015748,
                    "duration": 0.12999999999996703
                },
                {
                    "name": "A5",
                    "midi": 81,
                    "time": 232.30499999998958,
                    "velocity": 0.4881889763779528,
                    "duration": 0.052500000000009095
                },
                {
                    "name": "F4",
                    "midi": 65,
                    "time": 232.38749999998956,
                    "velocity": 0.4094488188976378,
                    "duration": 0.0999999999999659
                },
                {
                    "name": "B4",
                    "midi": 71,
                    "time": 232.47249999998954,
                    "velocity": 0.3937007874015748,
                    "duration": 0.05999999999997385
                },
                {
                    "name": "F#4",
                    "midi": 66,
                    "time": 232.52499999998952,
                    "velocity": 0.3937007874015748,
                    "duration": 0.12000000000000455
                },
                {
                    "name": "A4",
                    "midi": 69,
                    "time": 232.5974999999895,
                    "velocity": 0.3779527559055118,
                    "duration": 0.10250000000002046
                },
                {
                    "name": "C#5",
                    "midi": 73,
                    "time": 232.6599999999895,
                    "velocity": 0.33858267716535434,
                    "duration": 0.09250000000002956
                },
                {
                    "name": "C4",
                    "midi": 60,
                    "time": 232.6624999999895,
                    "velocity": 0.33858267716535434,
                    "duration": 0.13500000000001933
                },
                {
                    "name": "F#5",
                    "midi": 78,
                    "time": 232.67999999998952,
                    "velocity": 0.4881889763779528,
                    "duration": 0.07500000000001705
                },
                {
                    "name": "D4",
                    "midi": 62,
                    "time": 232.79999999998952,
                    "velocity": 0.5039370078740157,
                    "duration": 0.05750000000000455
                },
                {
                    "name": "G4",
                    "midi": 67,
                    "time": 232.83249999998952,
                    "velocity": 0.41732283464566927,
                    "duration": 0.03999999999999204
                },
                {
                    "name": "D#4",
                    "midi": 63,
                    "time": 232.86749999998952,
                    "velocity": 0.5275590551181102,
                    "duration": 0.12000000000000455
                },
                {
                    "name": "F#4",
                    "midi": 66,
                    "time": 232.93499999998951,
                    "velocity": 0.3779527559055118,
                    "duration": 0.12000000000000455
                },
                {
                    "name": "A#4",
                    "midi": 70,
                    "time": 233.01499999998953,
                    "velocity": 0.4094488188976378,
                    "duration": 0.0625
                },
                {
                    "name": "D#5",
                    "midi": 75,
                    "time": 233.04749999998953,
                    "velocity": 0.41732283464566927,
                    "duration": 0.03499999999999659
                },
                {
                    "name": "F#3",
                    "midi": 54,
                    "time": 233.11999999998952,
                    "velocity": 0.6299212598425197,
                    "duration": 0.1374999999999602
                },
                {
                    "name": "C5",
                    "midi": 72,
                    "time": 233.28999999998948,
                    "velocity": 0.5433070866141733,
                    "duration": 0.18250000000000455
                },
                {
                    "name": "G4",
                    "midi": 67,
                    "time": 233.31999999998948,
                    "velocity": 0.15748031496062992,
                    "duration": 0.16249999999999432
                },
                {
                    "name": "A#4",
                    "midi": 70,
                    "time": 233.41999999998947,
                    "velocity": 0.4015748031496063,
                    "duration": 0.08500000000000796
                },
                {
                    "name": "F#4",
                    "midi": 66,
                    "time": 233.54999999998947,
                    "velocity": 0.5511811023622047,
                    "duration": 0.08249999999998181
                },
                {
                    "name": "G4",
                    "midi": 67,
                    "time": 233.67249999998944,
                    "velocity": 0.4645669291338583,
                    "duration": 0.057499999999976126
                },
                {
                    "name": "D4",
                    "midi": 62,
                    "time": 233.71749999998943,
                    "velocity": 0.2283464566929134,
                    "duration": 0.04999999999998295
                },
                {
                    "name": "C4",
                    "midi": 60,
                    "time": 233.73249999998941,
                    "velocity": 0.2677165354330709,
                    "duration": 0.1074999999999875
                },
                {
                    "name": "A#3",
                    "midi": 58,
                    "time": 233.8474999999894,
                    "velocity": 0.3937007874015748,
                    "duration": 0.07499999999998863
                },
                {
                    "name": "F#3",
                    "midi": 54,
                    "time": 233.95499999998938,
                    "velocity": 0.4645669291338583,
                    "duration": 0.15749999999994202
                },
                {
                    "name": "E4",
                    "midi": 64,
                    "time": 234.10499999998933,
                    "velocity": 0.3937007874015748,
                    "duration": 0.11999999999997613
                },
                {
                    "name": "C4",
                    "midi": 60,
                    "time": 234.11499999998932,
                    "velocity": 0.30708661417322836,
                    "duration": 0.12499999999997158
                },
                {
                    "name": "G3",
                    "midi": 55,
                    "time": 234.11749999998932,
                    "velocity": 0.4015748031496063,
                    "duration": 0.14749999999995111
                },
                {
                    "name": "A#3",
                    "midi": 58,
                    "time": 234.25249999998928,
                    "velocity": 0.4566929133858268,
                    "duration": 0.08749999999997726
                },
                {
                    "name": "F#4",
                    "midi": 66,
                    "time": 234.37749999998925,
                    "velocity": 0.25196850393700787,
                    "duration": 0.0724999999999909
                },
                {
                    "name": "E3",
                    "midi": 52,
                    "time": 234.53499999998922,
                    "velocity": 0.2677165354330709,
                    "duration": 0.1699999999999875
                },
                {
                    "name": "C4",
                    "midi": 60,
                    "time": 234.5499999999892,
                    "velocity": 0.2992125984251969,
                    "duration": 0.3124999999999716
                },
                {
                    "name": "G3",
                    "midi": 55,
                    "time": 234.57499999998922,
                    "velocity": 0.41732283464566927,
                    "duration": 0.09999999999999432
                },
                {
                    "name": "A#3",
                    "midi": 58,
                    "time": 234.66499999998922,
                    "velocity": 0.3937007874015748,
                    "duration": 0.0724999999999909
                },
                {
                    "name": "F#2",
                    "midi": 42,
                    "time": 234.79499999998922,
                    "velocity": 0.5039370078740157,
                    "duration": 0.19749999999990564
                },
                {
                    "name": "E3",
                    "midi": 52,
                    "time": 234.95999999998915,
                    "velocity": 0.2677165354330709,
                    "duration": 0.14249999999995566
                },
                {
                    "name": "C4",
                    "midi": 60,
                    "time": 234.96999999998914,
                    "velocity": 0.25984251968503935,
                    "duration": 0.13999999999995794
                },
                {
                    "name": "G3",
                    "midi": 55,
                    "time": 234.98249999998913,
                    "velocity": 0.3228346456692913,
                    "duration": 0.1449999999999818
                },
                {
                    "name": "A#3",
                    "midi": 58,
                    "time": 235.08749999998912,
                    "velocity": 0.4330708661417323,
                    "duration": 0.08249999999998181
                },
                {
                    "name": "F#3",
                    "midi": 54,
                    "time": 235.1999999999891,
                    "velocity": 0.4566929133858268,
                    "duration": 0.08249999999998181
                },
                {
                    "name": "G3",
                    "midi": 55,
                    "time": 235.33999999998906,
                    "velocity": 0.3779527559055118,
                    "duration": 0.07249999999996248
                },
                {
                    "name": "E3",
                    "midi": 52,
                    "time": 235.34499999998906,
                    "velocity": 0.3937007874015748,
                    "duration": 0.09499999999997044
                },
                {
                    "name": "C3",
                    "midi": 48,
                    "time": 235.39999999998903,
                    "velocity": 0.3779527559055118,
                    "duration": 0.11499999999998067
                },
                {
                    "name": "A#2",
                    "midi": 46,
                    "time": 235.53999999998902,
                    "velocity": 0.41732283464566927,
                    "duration": 0.07499999999998863
                },
                {
                    "name": "F#2",
                    "midi": 42,
                    "time": 235.642499999989,
                    "velocity": 0.3858267716535433,
                    "duration": 0.1924999999999386
                },
                {
                    "name": "E3",
                    "midi": 52,
                    "time": 235.81249999998897,
                    "velocity": 0.3937007874015748,
                    "duration": 0.12249999999997385
                },
                {
                    "name": "G2",
                    "midi": 43,
                    "time": 235.82249999998896,
                    "velocity": 0.33858267716535434,
                    "duration": 0.14999999999997726
                },
                {
                    "name": "C3",
                    "midi": 48,
                    "time": 235.83749999998895,
                    "velocity": 0.2204724409448819,
                    "duration": 0.11750000000000682
                },
                {
                    "name": "A#2",
                    "midi": 46,
                    "time": 235.96499999998895,
                    "velocity": 0.44881889763779526,
                    "duration": 0.07999999999998408
                },
                {
                    "name": "F#3",
                    "midi": 54,
                    "time": 236.09499999998894,
                    "velocity": 0.29133858267716534,
                    "duration": 0.08749999999997726
                },
                {
                    "name": "C3",
                    "midi": 48,
                    "time": 236.2449999999889,
                    "velocity": 0.3228346456692913,
                    "duration": 0.19499999999996476
                },
                {
                    "name": "E2",
                    "midi": 40,
                    "time": 236.2499999999889,
                    "velocity": 0.2440944881889764,
                    "duration": 0.1899999999999693
                },
                {
                    "name": "G2",
                    "midi": 43,
                    "time": 236.29499999998887,
                    "velocity": 0.3228346456692913,
                    "duration": 0.1449999999999818
                },
                {
                    "name": "A#2",
                    "midi": 46,
                    "time": 236.39499999998887,
                    "velocity": 0.33858267716535434,
                    "duration": 0.10499999999998977
                },
                {
                    "name": "F#1",
                    "midi": 30,
                    "time": 236.54499999998885,
                    "velocity": 0.4251968503937008,
                    "duration": 0.23999999999995225
                },
                {
                    "name": "C3",
                    "midi": 48,
                    "time": 236.6949999999888,
                    "velocity": 0.36220472440944884,
                    "duration": 0.17000000000001592
                },
                {
                    "name": "E2",
                    "midi": 40,
                    "time": 236.6999999999888,
                    "velocity": 0.2204724409448819,
                    "duration": 0.12000000000000455
                },
                {
                    "name": "G2",
                    "midi": 43,
                    "time": 236.7249999999888,
                    "velocity": 0.28346456692913385,
                    "duration": 0.14750000000000796
                },
                {
                    "name": "A#2",
                    "midi": 46,
                    "time": 236.8399999999888,
                    "velocity": 0.4015748031496063,
                    "duration": 0.08750000000000568
                },
                {
                    "name": "F#2",
                    "midi": 42,
                    "time": 236.9724999999888,
                    "velocity": 0.41732283464566927,
                    "duration": 0.08249999999998181
                },
                {
                    "name": "G2",
                    "midi": 43,
                    "time": 237.09749999998874,
                    "velocity": 0.3858267716535433,
                    "duration": 0.07749999999998636
                },
                {
                    "name": "E2",
                    "midi": 40,
                    "time": 237.10749999998873,
                    "velocity": 0.3700787401574803,
                    "duration": 0.09999999999999432
                },
                {
                    "name": "C2",
                    "midi": 36,
                    "time": 237.20249999998873,
                    "velocity": 0.5039370078740157,
                    "duration": 0.08999999999997499
                },
                {
                    "name": "A#1",
                    "midi": 34,
                    "time": 237.33999999998872,
                    "velocity": 0.3858267716535433,
                    "duration": 0.07499999999998863
                },
                {
                    "name": "F#1",
                    "midi": 30,
                    "time": 237.4499999999887,
                    "velocity": 0.4015748031496063,
                    "duration": 0.23749999999998295
                },
                {
                    "name": "G2",
                    "midi": 43,
                    "time": 237.5999999999887,
                    "velocity": 0.2047244094488189,
                    "duration": 0.17499999999998295
                },
                {
                    "name": "C2",
                    "midi": 36,
                    "time": 237.6074999999887,
                    "velocity": 0.33070866141732286,
                    "duration": 0.14749999999997954
                },
                {
                    "name": "E2",
                    "midi": 40,
                    "time": 237.6149999999887,
                    "velocity": 0.3464566929133858,
                    "duration": 0.18999999999999773
                },
                {
                    "name": "A#1",
                    "midi": 34,
                    "time": 237.7399999999887,
                    "velocity": 0.41732283464566927,
                    "duration": 0.11250000000001137
                },
                {
                    "name": "F#2",
                    "midi": 42,
                    "time": 237.89999999998872,
                    "velocity": 0.5590551181102362,
                    "duration": 0.13999999999998636
                },
                {
                    "name": "G2",
                    "midi": 43,
                    "time": 238.0499999999887,
                    "velocity": 0.3464566929133858,
                    "duration": 0.19249999999999545
                },
                {
                    "name": "E2",
                    "midi": 40,
                    "time": 238.0749999999887,
                    "velocity": 0.29133858267716534,
                    "duration": 0.18499999999997385
                },
                {
                    "name": "C2",
                    "midi": 36,
                    "time": 238.0899999999887,
                    "velocity": 0.33858267716535434,
                    "duration": 0.15500000000000114
                },
                {
                    "name": "A#1",
                    "midi": 34,
                    "time": 238.2199999999887,
                    "velocity": 0.3779527559055118,
                    "duration": 0.125
                },
                {
                    "name": "F#1",
                    "midi": 30,
                    "time": 238.35499999998868,
                    "velocity": 0.4094488188976378,
                    "duration": 0.2074999999999818
                },
                {
                    "name": "E2",
                    "midi": 40,
                    "time": 238.51999999998867,
                    "velocity": 0.33858267716535434,
                    "duration": 0.20999999999997954
                },
                {
                    "name": "G2",
                    "midi": 43,
                    "time": 238.52499999998867,
                    "velocity": 0.2992125984251969,
                    "duration": 0.14749999999997954
                },
                {
                    "name": "C2",
                    "midi": 36,
                    "time": 238.56999999998865,
                    "velocity": 0.2204724409448819,
                    "duration": 0.13999999999998636
                },
                {
                    "name": "A#1",
                    "midi": 34,
                    "time": 238.67749999998864,
                    "velocity": 0.3543307086614173,
                    "duration": 0.12999999999999545
                },
                {
                    "name": "F#2",
                    "midi": 42,
                    "time": 238.85499999998865,
                    "velocity": 0.44881889763779526,
                    "duration": 0.12999999999999545
                },
                {
                    "name": "G2",
                    "midi": 43,
                    "time": 238.99999999998863,
                    "velocity": 0.25196850393700787,
                    "duration": 0.19750000000001933
                },
                {
                    "name": "E2",
                    "midi": 40,
                    "time": 239.02499999998864,
                    "velocity": 0.15748031496062992,
                    "duration": 0.2224999999999966
                },
                {
                    "name": "C2",
                    "midi": 36,
                    "time": 239.04999999998864,
                    "velocity": 0.2755905511811024,
                    "duration": 0.18250000000000455
                },
                {
                    "name": "A#1",
                    "midi": 34,
                    "time": 239.20749999998864,
                    "velocity": 0.36220472440944884,
                    "duration": 0.1349999999999909
                },
                {
                    "name": "F#1",
                    "midi": 30,
                    "time": 239.36749999998864,
                    "velocity": 0.2677165354330709,
                    "duration": 0.14500000000001023
                },
                {
                    "name": "G2",
                    "midi": 43,
                    "time": 239.52749999998863,
                    "velocity": 0.36220472440944884,
                    "duration": 0.19249999999999545
                },
                {
                    "name": "E2",
                    "midi": 40,
                    "time": 239.53499999998863,
                    "velocity": 0.3228346456692913,
                    "duration": 0.18000000000000682
                },
                {
                    "name": "C2",
                    "midi": 36,
                    "time": 239.58249999998864,
                    "velocity": 0.15748031496062992,
                    "duration": 0.13749999999998863
                },
                {
                    "name": "A#1",
                    "midi": 34,
                    "time": 239.71749999998863,
                    "velocity": 0.33858267716535434,
                    "duration": 0.12749999999999773
                },
                {
                    "name": "F#2",
                    "midi": 42,
                    "time": 239.99999999998863,
                    "velocity": 0.31496062992125984,
                    "duration": 0.12000000000000455
                },
                {
                    "name": "G2",
                    "midi": 43,
                    "time": 240.11749999998864,
                    "velocity": 0.28346456692913385,
                    "duration": 0.2599999999999909
                },
                {
                    "name": "E2",
                    "midi": 40,
                    "time": 240.16499999998862,
                    "velocity": 0.2047244094488189,
                    "duration": 0.34250000000000114
                },
                {
                    "name": "C2",
                    "midi": 36,
                    "time": 240.18749999998863,
                    "velocity": 0.23622047244094488,
                    "duration": 0.2324999999999875
                },
                {
                    "name": "A#1",
                    "midi": 34,
                    "time": 240.38499999998862,
                    "velocity": 0.25196850393700787,
                    "duration": 0.27000000000001023
                },
                {
                    "name": "F#1",
                    "midi": 30,
                    "time": 240.74999999998863,
                    "velocity": 0.2992125984251969,
                    "duration": 0.6349999999999625
                },
                {
                    "name": "A#1",
                    "midi": 34,
                    "time": 241.2249999999886,
                    "velocity": 0.2992125984251969,
                    "duration": 0.29000000000002046
                },
                {
                    "name": "C#2",
                    "midi": 37,
                    "time": 241.4949999999886,
                    "velocity": 0.2204724409448819,
                    "duration": 0.05000000000001137
                },
                {
                    "name": "C2",
                    "midi": 36,
                    "time": 241.66499999998862,
                    "velocity": 0.3700787401574803,
                    "duration": 0.14999999999997726
                },
                {
                    "name": "E2",
                    "midi": 40,
                    "time": 241.8049999999886,
                    "velocity": 0.30708661417322836,
                    "duration": 0.07999999999998408
                },
                {
                    "name": "C3",
                    "midi": 48,
                    "time": 241.9449999999886,
                    "velocity": 0.3937007874015748,
                    "duration": 0.09000000000000341
                },
                {
                    "name": "F#2",
                    "midi": 42,
                    "time": 242.0024999999886,
                    "velocity": 0.3228346456692913,
                    "duration": 0.10999999999998522
                },
                {
                    "name": "A#2",
                    "midi": 46,
                    "time": 242.1049999999886,
                    "velocity": 0.3937007874015748,
                    "duration": 0.09000000000000341
                },
                {
                    "name": "C#3",
                    "midi": 49,
                    "time": 242.17749999998858,
                    "velocity": 0.3937007874015748,
                    "duration": 0.052500000000009095
                },
                {
                    "name": "C3",
                    "midi": 48,
                    "time": 242.2949999999886,
                    "velocity": 0.11811023622047244,
                    "duration": 0.05000000000001137
                },
                {
                    "name": "E3",
                    "midi": 52,
                    "time": 242.3999999999886,
                    "velocity": 0.4409448818897638,
                    "duration": 0.06999999999999318
                },
                {
                    "name": "G3",
                    "midi": 55,
                    "time": 242.3999999999886,
                    "velocity": 0.29133858267716534,
                    "duration": 0.09499999999999886
                },
                {
                    "name": "C4",
                    "midi": 60,
                    "time": 242.4649999999886,
                    "velocity": 0.4094488188976378,
                    "duration": 0.07250000000001933
                },
                {
                    "name": "F#3",
                    "midi": 54,
                    "time": 242.51499999998862,
                    "velocity": 0.5196850393700787,
                    "duration": 0.10499999999998977
                },
                {
                    "name": "A#3",
                    "midi": 58,
                    "time": 242.60499999998862,
                    "velocity": 0.41732283464566927,
                    "duration": 0.08249999999998181
                },
                {
                    "name": "C#4",
                    "midi": 61,
                    "time": 242.6824999999886,
                    "velocity": 0.47244094488188976,
                    "duration": 0.03249999999999886
                },
                {
                    "name": "C4",
                    "midi": 60,
                    "time": 242.6899999999886,
                    "velocity": 0.4645669291338583,
                    "duration": 0.08500000000000796
                },
                {
                    "name": "E4",
                    "midi": 64,
                    "time": 242.76499999998862,
                    "velocity": 0.48031496062992124,
                    "duration": 0.10999999999998522
                },
                {
                    "name": "G4",
                    "midi": 67,
                    "time": 242.8024999999886,
                    "velocity": 0.4566929133858268,
                    "duration": 0.0999999999999659
                },
                {
                    "name": "C5",
                    "midi": 72,
                    "time": 242.8799999999886,
                    "velocity": 0.5196850393700787,
                    "duration": 0.04999999999998295
                },
                {
                    "name": "F#4",
                    "midi": 66,
                    "time": 242.89499999998858,
                    "velocity": 0.5433070866141733,
                    "duration": 0.10999999999998522
                },
                {
                    "name": "A#4",
                    "midi": 70,
                    "time": 242.98999999998858,
                    "velocity": 0.5354330708661418,
                    "duration": 0.06749999999999545
                },
                {
                    "name": "C5",
                    "midi": 72,
                    "time": 243.05999999998858,
                    "velocity": 0.5590551181102362,
                    "duration": 0.10499999999998977
                },
                {
                    "name": "C#5",
                    "midi": 73,
                    "time": 243.06499999998857,
                    "velocity": 0.5039370078740157,
                    "duration": 0.037499999999994316
                },
                {
                    "name": "E5",
                    "midi": 76,
                    "time": 243.12999999998857,
                    "velocity": 0.5354330708661418,
                    "duration": 0.09999999999999432
                },
                {
                    "name": "G5",
                    "midi": 79,
                    "time": 243.16499999998857,
                    "velocity": 0.5354330708661418,
                    "duration": 0.09499999999999886
                },
                {
                    "name": "C6",
                    "midi": 84,
                    "time": 243.22999999998856,
                    "velocity": 0.5984251968503937,
                    "duration": 0.06500000000002615
                },
                {
                    "name": "F#5",
                    "midi": 78,
                    "time": 243.27749999998858,
                    "velocity": 0.6299212598425197,
                    "duration": 0.09000000000000341
                },
                {
                    "name": "A#5",
                    "midi": 82,
                    "time": 243.3549999999886,
                    "velocity": 0.5354330708661418,
                    "duration": 0.05999999999997385
                },
                {
                    "name": "C#6",
                    "midi": 85,
                    "time": 243.40999999998857,
                    "velocity": 0.6141732283464567,
                    "duration": 0.05249999999998067
                },
                {
                    "name": "C6",
                    "midi": 84,
                    "time": 243.41749999998856,
                    "velocity": 0.5984251968503937,
                    "duration": 0.11249999999998295
                },
                {
                    "name": "E6",
                    "midi": 88,
                    "time": 243.47999999998856,
                    "velocity": 0.6299212598425197,
                    "duration": 0.1099999999999568
                },
                {
                    "name": "G6",
                    "midi": 91,
                    "time": 243.51499999998856,
                    "velocity": 0.5275590551181102,
                    "duration": 0.09249999999997272
                },
                {
                    "name": "C7",
                    "midi": 96,
                    "time": 243.57499999998853,
                    "velocity": 0.6220472440944882,
                    "duration": 0.037499999999994316
                },
                {
                    "name": "C#7",
                    "midi": 97,
                    "time": 243.66499999998854,
                    "velocity": 0.6614173228346457,
                    "duration": 0.0625
                },
                {
                    "name": "F#6",
                    "midi": 90,
                    "time": 243.66749999998854,
                    "velocity": 0.6377952755905512,
                    "duration": 0.06749999999999545
                },
                {
                    "name": "A#6",
                    "midi": 94,
                    "time": 243.67499999998853,
                    "velocity": 0.5196850393700787,
                    "duration": 0.03499999999999659
                },
                {
                    "name": "C7",
                    "midi": 96,
                    "time": 243.78249999998854,
                    "velocity": 0.5275590551181102,
                    "duration": 0.11999999999997613
                },
                {
                    "name": "G6",
                    "midi": 91,
                    "time": 243.88499999998854,
                    "velocity": 0.29133858267716534,
                    "duration": 0.04999999999998295
                },
                {
                    "name": "A6",
                    "midi": 93,
                    "time": 243.88999999998853,
                    "velocity": 0.2992125984251969,
                    "duration": 0.037499999999994316
                },
                {
                    "name": "E6",
                    "midi": 88,
                    "time": 243.95999999998853,
                    "velocity": 0.2992125984251969,
                    "duration": 0.045000000000015916
                },
                {
                    "name": "C#6",
                    "midi": 85,
                    "time": 243.98749999998853,
                    "velocity": 0.5826771653543307,
                    "duration": 0.052500000000009095
                },
                {
                    "name": "F#5",
                    "midi": 78,
                    "time": 243.98749999998853,
                    "velocity": 0.5748031496062992,
                    "duration": 0.07750000000001478
                },
                {
                    "name": "A#5",
                    "midi": 82,
                    "time": 244.00999999998854,
                    "velocity": 0.3543307086614173,
                    "duration": 0.03499999999999659
                },
                {
                    "name": "C6",
                    "midi": 84,
                    "time": 244.06249999998855,
                    "velocity": 0.3543307086614173,
                    "duration": 0.037499999999994316
                },
                {
                    "name": "C6",
                    "midi": 84,
                    "time": 244.17999999998855,
                    "velocity": 0.4015748031496063,
                    "duration": 0.05750000000000455
                },
                {
                    "name": "E5",
                    "midi": 76,
                    "time": 244.31749999998857,
                    "velocity": 0.1889763779527559,
                    "duration": 0.04749999999998522
                },
                {
                    "name": "C#5",
                    "midi": 73,
                    "time": 244.32999999998856,
                    "velocity": 0.5511811023622047,
                    "duration": 0.04749999999998522
                },
                {
                    "name": "C5",
                    "midi": 72,
                    "time": 244.37999999998854,
                    "velocity": 0.41732283464566927,
                    "duration": 0.10000000000002274
                },
                {
                    "name": "E5",
                    "midi": 76,
                    "time": 244.46249999998855,
                    "velocity": 0.3858267716535433,
                    "duration": 0.06499999999999773
                },
                {
                    "name": "G5",
                    "midi": 79,
                    "time": 244.52499999998855,
                    "velocity": 0.28346456692913385,
                    "duration": 0.03999999999999204
                },
                {
                    "name": "C6",
                    "midi": 84,
                    "time": 244.52999999998855,
                    "velocity": 0.6062992125984252,
                    "duration": 0.06499999999999773
                },
                {
                    "name": "F#5",
                    "midi": 78,
                    "time": 244.63999999998853,
                    "velocity": 0.6692913385826772,
                    "duration": 0.0549999999999784
                },
                {
                    "name": "C#6",
                    "midi": 85,
                    "time": 244.64249999998853,
                    "velocity": 0.5984251968503937,
                    "duration": 0.05999999999997385
                },
                {
                    "name": "A#5",
                    "midi": 82,
                    "time": 244.65749999998852,
                    "velocity": 0.48031496062992124,
                    "duration": 0.037499999999994316
                },
                {
                    "name": "C6",
                    "midi": 84,
                    "time": 244.68499999998852,
                    "velocity": 0.6220472440944882,
                    "duration": 0.11249999999998295
                },
                {
                    "name": "E6",
                    "midi": 88,
                    "time": 244.7999999999885,
                    "velocity": 0.5826771653543307,
                    "duration": 0.06999999999999318
                },
                {
                    "name": "G6",
                    "midi": 91,
                    "time": 244.7999999999885,
                    "velocity": 0.5984251968503937,
                    "duration": 0.08249999999998181
                },
                {
                    "name": "F#6",
                    "midi": 90,
                    "time": 244.94999999998848,
                    "velocity": 0.6299212598425197,
                    "duration": 0.0625
                },
                {
                    "name": "C#7",
                    "midi": 97,
                    "time": 244.95249999998848,
                    "velocity": 0.6614173228346457,
                    "duration": 0.03499999999999659
                },
                {
                    "name": "A#6",
                    "midi": 94,
                    "time": 244.95499999998847,
                    "velocity": 0.6299212598425197,
                    "duration": 0.03249999999999886
                },
                {
                    "name": "C7",
                    "midi": 96,
                    "time": 245.01999999998847,
                    "velocity": 0.5118110236220472,
                    "duration": 0.1325000000000216
                },
                {
                    "name": "G6",
                    "midi": 91,
                    "time": 245.10499999998848,
                    "velocity": 0.4330708661417323,
                    "duration": 0.09250000000002956
                },
                {
                    "name": "E6",
                    "midi": 88,
                    "time": 245.1749999999885,
                    "velocity": 0.5118110236220472,
                    "duration": 0.07500000000001705
                },
                {
                    "name": "C#6",
                    "midi": 85,
                    "time": 245.28499999998851,
                    "velocity": 0.6377952755905512,
                    "duration": 0.06249999999997158
                },
                {
                    "name": "C6",
                    "midi": 84,
                    "time": 245.2949999999885,
                    "velocity": 0.3858267716535433,
                    "duration": 0.037499999999994316
                },
                {
                    "name": "G5",
                    "midi": 79,
                    "time": 245.3199999999885,
                    "velocity": 0.2992125984251969,
                    "duration": 0.03999999999996362
                },
                {
                    "name": "C6",
                    "midi": 84,
                    "time": 245.42749999998847,
                    "velocity": 0.3543307086614173,
                    "duration": 0.1349999999999909
                },
                {
                    "name": "G5",
                    "midi": 79,
                    "time": 245.52999999998846,
                    "velocity": 0.3228346456692913,
                    "duration": 0.06499999999999773
                },
                {
                    "name": "E5",
                    "midi": 76,
                    "time": 245.58499999998847,
                    "velocity": 0.3937007874015748,
                    "duration": 0.07749999999998636
                },
                {
                    "name": "C#5",
                    "midi": 73,
                    "time": 245.68499999998846,
                    "velocity": 0.5511811023622047,
                    "duration": 0.07999999999998408
                },
                {
                    "name": "F#4",
                    "midi": 66,
                    "time": 245.69499999998845,
                    "velocity": 0.4645669291338583,
                    "duration": 0.07499999999998863
                },
                {
                    "name": "A#4",
                    "midi": 70,
                    "time": 245.72749999998845,
                    "velocity": 0.2125984251968504,
                    "duration": 0.044999999999987494
                },
                {
                    "name": "C5",
                    "midi": 72,
                    "time": 245.77249999998844,
                    "velocity": 0.3228346456692913,
                    "duration": 0.11499999999998067
                },
                {
                    "name": "E5",
                    "midi": 76,
                    "time": 245.87249999998843,
                    "velocity": 0.44881889763779526,
                    "duration": 0.14750000000000796
                },
                {
                    "name": "G5",
                    "midi": 79,
                    "time": 245.93499999998843,
                    "velocity": 0.4251968503937008,
                    "duration": 0.12999999999999545
                },
                {
                    "name": "C6",
                    "midi": 84,
                    "time": 246.01749999998844,
                    "velocity": 0.4330708661417323,
                    "duration": 0.04249999999998977
                },
                {
                    "name": "C#6",
                    "midi": 85,
                    "time": 246.09749999998843,
                    "velocity": 0.5590551181102362,
                    "duration": 0.037499999999994316
                },
                {
                    "name": "A#5",
                    "midi": 82,
                    "time": 246.09999999998843,
                    "velocity": 0.5275590551181102,
                    "duration": 0.03999999999999204
                },
                {
                    "name": "C6",
                    "midi": 84,
                    "time": 246.2149999999884,
                    "velocity": 0.48031496062992124,
                    "duration": 0.09999999999999432
                },
                {
                    "name": "G5",
                    "midi": 79,
                    "time": 246.2799999999884,
                    "velocity": 0.4251968503937008,
                    "duration": 0.10499999999998977
                },
                {
                    "name": "E5",
                    "midi": 76,
                    "time": 246.3274999999884,
                    "velocity": 0.4645669291338583,
                    "duration": 0.04750000000001364
                },
                {
                    "name": "C#5",
                    "midi": 73,
                    "time": 246.4249999999884,
                    "velocity": 0.5590551181102362,
                    "duration": 0.05999999999997385
                },
                {
                    "name": "A#4",
                    "midi": 70,
                    "time": 246.43499999998838,
                    "velocity": 0.4409448818897638,
                    "duration": 0.03499999999999659
                },
                {
                    "name": "F#4",
                    "midi": 66,
                    "time": 246.43499999998838,
                    "velocity": 0.3464566929133858,
                    "duration": 0.030000000000001137
                },
                {
                    "name": "C5",
                    "midi": 72,
                    "time": 246.49499999998835,
                    "velocity": 0.44881889763779526,
                    "duration": 0.10999999999998522
                },
                {
                    "name": "E5",
                    "midi": 76,
                    "time": 246.56499999998834,
                    "velocity": 0.4881889763779528,
                    "duration": 0.11249999999998295
                },
                {
                    "name": "G5",
                    "midi": 79,
                    "time": 246.59999999998834,
                    "velocity": 0.5354330708661418,
                    "duration": 0.09999999999999432
                },
                {
                    "name": "C6",
                    "midi": 84,
                    "time": 246.66499999998834,
                    "velocity": 0.5433070866141733,
                    "duration": 0.04249999999998977
                },
                {
                    "name": "F#5",
                    "midi": 78,
                    "time": 246.75499999998834,
                    "velocity": 0.5984251968503937,
                    "duration": 0.0625
                },
                {
                    "name": "C#6",
                    "midi": 85,
                    "time": 246.75499999998834,
                    "velocity": 0.5984251968503937,
                    "duration": 0.03499999999999659
                },
                {
                    "name": "A#5",
                    "midi": 82,
                    "time": 246.77999999998835,
                    "velocity": 0.2125984251968504,
                    "duration": 0.03499999999999659
                },
                {
                    "name": "C6",
                    "midi": 84,
                    "time": 246.84749999998834,
                    "velocity": 0.5984251968503937,
                    "duration": 0.09749999999999659
                },
                {
                    "name": "G5",
                    "midi": 79,
                    "time": 246.88999999998833,
                    "velocity": 0.5039370078740157,
                    "duration": 0.09499999999999886
                },
                {
                    "name": "E5",
                    "midi": 76,
                    "time": 246.94499999998834,
                    "velocity": 0.5826771653543307,
                    "duration": 0.0724999999999909
                },
                {
                    "name": "C#5",
                    "midi": 73,
                    "time": 247.04999999998833,
                    "velocity": 0.6771653543307087,
                    "duration": 0.05500000000000682
                },
                {
                    "name": "F#4",
                    "midi": 66,
                    "time": 247.05249999998833,
                    "velocity": 0.6850393700787402,
                    "duration": 0.0625
                },
                {
                    "name": "C5",
                    "midi": 72,
                    "time": 247.19999999998834,
                    "velocity": 0.5354330708661418,
                    "duration": 0.0024999999999977263
                },
                {
                    "name": "E5",
                    "midi": 76,
                    "time": 247.19999999998834,
                    "velocity": 0.5354330708661418,
                    "duration": 0.09499999999999886
                },
                {
                    "name": "G5",
                    "midi": 79,
                    "time": 247.22999999998834,
                    "velocity": 0.5275590551181102,
                    "duration": 0.08750000000000568
                },
                {
                    "name": "C6",
                    "midi": 84,
                    "time": 247.28499999998834,
                    "velocity": 0.5433070866141733,
                    "duration": 0.037499999999994316
                },
                {
                    "name": "C#6",
                    "midi": 85,
                    "time": 247.36749999998833,
                    "velocity": 0.6535433070866141,
                    "duration": 0.057499999999976126
                },
                {
                    "name": "F#5",
                    "midi": 78,
                    "time": 247.36999999998832,
                    "velocity": 0.5905511811023622,
                    "duration": 0.057499999999976126
                },
                {
                    "name": "A#5",
                    "midi": 82,
                    "time": 247.37749999998832,
                    "velocity": 0.5433070866141733,
                    "duration": 0.03499999999999659
                },
                {
                    "name": "C6",
                    "midi": 84,
                    "time": 247.4449999999883,
                    "velocity": 0.6141732283464567,
                    "duration": 0.11250000000001137
                },
                {
                    "name": "G5",
                    "midi": 79,
                    "time": 247.49499999998832,
                    "velocity": 0.4251968503937008,
                    "duration": 0.10249999999999204
                },
                {
                    "name": "E5",
                    "midi": 76,
                    "time": 247.55999999998832,
                    "velocity": 0.5511811023622047,
                    "duration": 0.06499999999999773
                },
                {
                    "name": "F#4",
                    "midi": 66,
                    "time": 247.6649999999883,
                    "velocity": 0.6771653543307087,
                    "duration": 0.05750000000000455
                },
                {
                    "name": "C#5",
                    "midi": 73,
                    "time": 247.6674999999883,
                    "velocity": 0.6692913385826772,
                    "duration": 0.060000000000002274
                },
                {
                    "name": "A#4",
                    "midi": 70,
                    "time": 247.68499999998832,
                    "velocity": 0.3858267716535433,
                    "duration": 0.03249999999999886
                },
                {
                    "name": "C5",
                    "midi": 72,
                    "time": 247.71999999998832,
                    "velocity": 0.5354330708661418,
                    "duration": 0.10499999999998977
                },
                {
                    "name": "E5",
                    "midi": 76,
                    "time": 247.80999999998832,
                    "velocity": 0.5590551181102362,
                    "duration": 0.10499999999998977
                },
                {
                    "name": "G5",
                    "midi": 79,
                    "time": 247.84499999998832,
                    "velocity": 0.5590551181102362,
                    "duration": 0.09499999999999886
                },
                {
                    "name": "C6",
                    "midi": 84,
                    "time": 247.90499999998832,
                    "velocity": 0.5590551181102362,
                    "duration": 0.04749999999998522
                },
                {
                    "name": "F#5",
                    "midi": 78,
                    "time": 247.9974999999883,
                    "velocity": 0.5984251968503937,
                    "duration": 0.03499999999999659
                },
                {
                    "name": "C#6",
                    "midi": 85,
                    "time": 247.9999999999883,
                    "velocity": 0.6299212598425197,
                    "duration": 0.03249999999999886
                },
                {
                    "name": "A#5",
                    "midi": 82,
                    "time": 248.0024999999883,
                    "velocity": 0.5669291338582677,
                    "duration": 0.03249999999999886
                },
                {
                    "name": "C6",
                    "midi": 84,
                    "time": 248.07249999998828,
                    "velocity": 0.5433070866141733,
                    "duration": 0.10249999999999204
                },
                {
                    "name": "G5",
                    "midi": 79,
                    "time": 248.10499999998828,
                    "velocity": 0.33858267716535434,
                    "duration": 0.1174999999999784
                },
                {
                    "name": "E5",
                    "midi": 76,
                    "time": 248.17749999998827,
                    "velocity": 0.5275590551181102,
                    "duration": 0.07499999999998863
                },
                {
                    "name": "C#5",
                    "midi": 73,
                    "time": 248.30499999998827,
                    "velocity": 0.7165354330708661,
                    "duration": 0.057499999999976126
                },
                {
                    "name": "C5",
                    "midi": 72,
                    "time": 248.30499999998827,
                    "velocity": 0.2677165354330709,
                    "duration": 0.044999999999987494
                },
                {
                    "name": "F#4",
                    "midi": 66,
                    "time": 248.30999999998826,
                    "velocity": 0.6141732283464567,
                    "duration": 0.03499999999999659
                },
                {
                    "name": "A#4",
                    "midi": 70,
                    "time": 248.31749999998826,
                    "velocity": 0.5196850393700787,
                    "duration": 0.03499999999999659
                },
                {
                    "name": "G4",
                    "midi": 67,
                    "time": 248.48499999998825,
                    "velocity": 0.4015748031496063,
                    "duration": 0.0800000000000125
                },
                {
                    "name": "C5",
                    "midi": 72,
                    "time": 248.51249999998825,
                    "velocity": 0.13385826771653545,
                    "duration": 0.08250000000001023
                },
                {
                    "name": "E5",
                    "midi": 76,
                    "time": 248.54499999998825,
                    "velocity": 0.29133858267716534,
                    "duration": 0.07750000000001478
                },
                {
                    "name": "A#5",
                    "midi": 82,
                    "time": 248.64999999998827,
                    "velocity": 0.6377952755905512,
                    "duration": 0.057499999999976126
                },
                {
                    "name": "F#5",
                    "midi": 78,
                    "time": 248.65749999998826,
                    "velocity": 0.5826771653543307,
                    "duration": 0.03499999999999659
                },
                {
                    "name": "G5",
                    "midi": 79,
                    "time": 248.70999999998824,
                    "velocity": 0.3700787401574803,
                    "duration": 0.125
                },
                {
                    "name": "E5",
                    "midi": 76,
                    "time": 248.80749999998824,
                    "velocity": 0.3779527559055118,
                    "duration": 0.08750000000000568
                },
                {
                    "name": "C5",
                    "midi": 72,
                    "time": 248.84499999998823,
                    "velocity": 0.36220472440944884,
                    "duration": 0.0700000000000216
                },
                {
                    "name": "C#5",
                    "midi": 73,
                    "time": 248.95499999998825,
                    "velocity": 0.6771653543307087,
                    "duration": 0.04999999999998295
                },
                {
                    "name": "F#4",
                    "midi": 66,
                    "time": 248.95999999998824,
                    "velocity": 0.6141732283464567,
                    "duration": 0.06499999999999773
                },
                {
                    "name": "G4",
                    "midi": 67,
                    "time": 249.04249999998825,
                    "velocity": 0.4094488188976378,
                    "duration": 0.12000000000000455
                },
                {
                    "name": "C5",
                    "midi": 72,
                    "time": 249.13499999998825,
                    "velocity": 0.4015748031496063,
                    "duration": 0.125
                },
                {
                    "name": "E5",
                    "midi": 76,
                    "time": 249.19249999998826,
                    "velocity": 0.48031496062992124,
                    "duration": 0.09499999999999886
                },
                {
                    "name": "G5",
                    "midi": 79,
                    "time": 249.27999999998826,
                    "velocity": 0.29133858267716534,
                    "duration": 0.04249999999998977
                },
                {
                    "name": "A#5",
                    "midi": 82,
                    "time": 249.33999999998827,
                    "velocity": 0.5039370078740157,
                    "duration": 0.037499999999994316
                },
                {
                    "name": "F#5",
                    "midi": 78,
                    "time": 249.34249999998826,
                    "velocity": 0.48031496062992124,
                    "duration": 0.03249999999999886
                },
                {
                    "name": "G5",
                    "midi": 79,
                    "time": 249.41499999998825,
                    "velocity": 0.36220472440944884,
                    "duration": 0.12000000000000455
                },
                {
                    "name": "E5",
                    "midi": 76,
                    "time": 249.54999999998824,
                    "velocity": 0.2677165354330709,
                    "duration": 0.044999999999987494
                },
                {
                    "name": "C5",
                    "midi": 72,
                    "time": 249.59999999998823,
                    "velocity": 0.4409448818897638,
                    "duration": 0.025000000000005684
                },
                {
                    "name": "C#5",
                    "midi": 73,
                    "time": 249.66249999998823,
                    "velocity": 0.4881889763779528,
                    "duration": 0.03499999999999659
                },
                {
                    "name": "A#4",
                    "midi": 70,
                    "time": 249.66749999998822,
                    "velocity": 0.3779527559055118,
                    "duration": 0.03499999999999659
                },
                {
                    "name": "F#4",
                    "midi": 66,
                    "time": 249.67499999998822,
                    "velocity": 0.3543307086614173,
                    "duration": 0.030000000000001137
                },
                {
                    "name": "G4",
                    "midi": 67,
                    "time": 249.73749999998822,
                    "velocity": 0.4330708661417323,
                    "duration": 0.11499999999998067
                },
                {
                    "name": "C5",
                    "midi": 72,
                    "time": 249.8149999999882,
                    "velocity": 0.3228346456692913,
                    "duration": 0.14249999999998408
                },
                {
                    "name": "E5",
                    "midi": 76,
                    "time": 249.8899999999882,
                    "velocity": 0.4409448818897638,
                    "duration": 0.10499999999998977
                },
                {
                    "name": "G5",
                    "midi": 79,
                    "time": 249.96249999998818,
                    "velocity": 0.4251968503937008,
                    "duration": 0.04249999999998977
                },
                {
                    "name": "A#5",
                    "midi": 82,
                    "time": 250.04499999998816,
                    "velocity": 0.48031496062992124,
                    "duration": 0.03499999999999659
                },
                {
                    "name": "F#5",
                    "midi": 78,
                    "time": 250.05499999998815,
                    "velocity": 0.36220472440944884,
                    "duration": 0.03499999999999659
                },
                {
                    "name": "G5",
                    "midi": 79,
                    "time": 250.15749999998815,
                    "velocity": 0.2047244094488189,
                    "duration": 0.06749999999999545
                },
                {
                    "name": "E5",
                    "midi": 76,
                    "time": 250.21749999998815,
                    "velocity": 0.3464566929133858,
                    "duration": 0.05249999999998067
                },
                {
                    "name": "C5",
                    "midi": 72,
                    "time": 250.25749999998814,
                    "velocity": 0.3937007874015748,
                    "duration": 0.0625
                },
                {
                    "name": "C#5",
                    "midi": 73,
                    "time": 250.35749999998814,
                    "velocity": 0.4881889763779528,
                    "duration": 0.044999999999987494
                },
                {
                    "name": "A#4",
                    "midi": 70,
                    "time": 250.35999999998813,
                    "velocity": 0.41732283464566927,
                    "duration": 0.037499999999994316
                },
                {
                    "name": "F#4",
                    "midi": 66,
                    "time": 250.38249999998814,
                    "velocity": 0.2992125984251969,
                    "duration": 0.03499999999996817
                },
                {
                    "name": "G4",
                    "midi": 67,
                    "time": 250.44249999998812,
                    "velocity": 0.33858267716535434,
                    "duration": 0.10500000000001819
                },
                {
                    "name": "C5",
                    "midi": 72,
                    "time": 250.52499999998813,
                    "velocity": 0.2677165354330709,
                    "duration": 0.125
                },
                {
                    "name": "E5",
                    "midi": 76,
                    "time": 250.59249999998812,
                    "velocity": 0.3858267716535433,
                    "duration": 0.0800000000000125
                },
                {
                    "name": "G5",
                    "midi": 79,
                    "time": 250.64249999998813,
                    "velocity": 0.3228346456692913,
                    "duration": 0.04249999999998977
                },
                {
                    "name": "A#5",
                    "midi": 82,
                    "time": 250.73999999998813,
                    "velocity": 0.48031496062992124,
                    "duration": 0.03499999999999659
                },
                {
                    "name": "F#5",
                    "midi": 78,
                    "time": 250.74499999998812,
                    "velocity": 0.4330708661417323,
                    "duration": 0.03499999999999659
                },
                {
                    "name": "G5",
                    "midi": 79,
                    "time": 250.80499999998813,
                    "velocity": 0.33070866141732286,
                    "duration": 0.1074999999999875
                },
                {
                    "name": "C5",
                    "midi": 72,
                    "time": 250.9524999999881,
                    "velocity": 0.36220472440944884,
                    "duration": 0.052500000000009095
                },
                {
                    "name": "F#4",
                    "midi": 66,
                    "time": 251.09499999998812,
                    "velocity": 0.36220472440944884,
                    "duration": 0.04750000000001364
                },
                {
                    "name": "A#4",
                    "midi": 70,
                    "time": 251.12499999998812,
                    "velocity": 0.25196850393700787,
                    "duration": 0.040000000000020464
                },
                {
                    "name": "G4",
                    "midi": 67,
                    "time": 251.14499999998813,
                    "velocity": 0.4015748031496063,
                    "duration": 0.1349999999999909
                },
                {
                    "name": "C5",
                    "midi": 72,
                    "time": 251.24249999998813,
                    "velocity": 0.30708661417322836,
                    "duration": 0.13249999999999318
                },
                {
                    "name": "E5",
                    "midi": 76,
                    "time": 251.3199999999881,
                    "velocity": 0.4094488188976378,
                    "duration": 0.09499999999999886
                },
                {
                    "name": "G5",
                    "midi": 79,
                    "time": 251.37749999998812,
                    "velocity": 0.4015748031496063,
                    "duration": 0.044999999999987494
                },
                {
                    "name": "F#5",
                    "midi": 78,
                    "time": 251.4499999999881,
                    "velocity": 0.33070866141732286,
                    "duration": 0.0724999999999909
                },
                {
                    "name": "C#5",
                    "midi": 73,
                    "time": 251.4824999999881,
                    "velocity": 0.2283464566929134,
                    "duration": 0.037499999999994316
                },
                {
                    "name": "G5",
                    "midi": 79,
                    "time": 251.5574999999881,
                    "velocity": 0.3779527559055118,
                    "duration": 0.11250000000001137
                },
                {
                    "name": "E5",
                    "midi": 76,
                    "time": 251.6424999999881,
                    "velocity": 0.2204724409448819,
                    "duration": 0.0724999999999909
                },
                {
                    "name": "C5",
                    "midi": 72,
                    "time": 251.7024999999881,
                    "velocity": 0.2992125984251969,
                    "duration": 0.04749999999998522
                },
                {
                    "name": "F#4",
                    "midi": 66,
                    "time": 251.7774999999881,
                    "velocity": 0.33858267716535434,
                    "duration": 0.08249999999998181
                },
                {
                    "name": "A#4",
                    "midi": 70,
                    "time": 251.8149999999881,
                    "velocity": 0.2125984251968504,
                    "duration": 0.03999999999999204
                },
                {
                    "name": "G4",
                    "midi": 67,
                    "time": 251.84999999998809,
                    "velocity": 0.4251968503937008,
                    "duration": 0.13749999999998863
                },
                {
                    "name": "C5",
                    "midi": 72,
                    "time": 251.99999999998806,
                    "velocity": 0.15748031496062992,
                    "duration": 0.09499999999999886
                },
                {
                    "name": "E5",
                    "midi": 76,
                    "time": 252.02749999998807,
                    "velocity": 0.3858267716535433,
                    "duration": 0.11250000000001137
                },
                {
                    "name": "G5",
                    "midi": 79,
                    "time": 252.11999999998807,
                    "velocity": 0.3464566929133858,
                    "duration": 0.045000000000015916
                },
                {
                    "name": "F#5",
                    "midi": 78,
                    "time": 252.17499999998807,
                    "velocity": 0.2992125984251969,
                    "duration": 0.08249999999998181
                },
                {
                    "name": "C#5",
                    "midi": 73,
                    "time": 252.21499999998807,
                    "velocity": 0.13385826771653545,
                    "duration": 0.03999999999999204
                },
                {
                    "name": "G5",
                    "midi": 79,
                    "time": 252.27999999998806,
                    "velocity": 0.3779527559055118,
                    "duration": 0.12000000000000455
                },
                {
                    "name": "E5",
                    "midi": 76,
                    "time": 252.39749999998807,
                    "velocity": 0.11023622047244094,
                    "duration": 0.05750000000000455
                },
                {
                    "name": "C5",
                    "midi": 72,
                    "time": 252.44999999998808,
                    "velocity": 0.31496062992125984,
                    "duration": 0.05750000000000455
                },
                {
                    "name": "F#4",
                    "midi": 66,
                    "time": 252.5299999999881,
                    "velocity": 0.2440944881889764,
                    "duration": 0.04750000000001364
                },
                {
                    "name": "A#4",
                    "midi": 70,
                    "time": 252.5549999999881,
                    "velocity": 0.2283464566929134,
                    "duration": 0.03999999999999204
                },
                {
                    "name": "G4",
                    "midi": 67,
                    "time": 252.5849999999881,
                    "velocity": 0.3464566929133858,
                    "duration": 0.12999999999999545
                },
                {
                    "name": "C5",
                    "midi": 72,
                    "time": 252.7074999999881,
                    "velocity": 0.18110236220472442,
                    "duration": 0.10999999999998522
                },
                {
                    "name": "E5",
                    "midi": 76,
                    "time": 252.75999999998808,
                    "velocity": 0.4251968503937008,
                    "duration": 0.11250000000001137
                },
                {
                    "name": "G5",
                    "midi": 79,
                    "time": 252.8749999999881,
                    "velocity": 0.2125984251968504,
                    "duration": 0.044999999999987494
                },
                {
                    "name": "F#5",
                    "midi": 78,
                    "time": 252.91749999998808,
                    "velocity": 0.25984251968503935,
                    "duration": 0.06749999999996703
                },
                {
                    "name": "C#5",
                    "midi": 73,
                    "time": 252.93499999998807,
                    "velocity": 0.2677165354330709,
                    "duration": 0.03999999999999204
                },
                {
                    "name": "G5",
                    "midi": 79,
                    "time": 252.99499999998804,
                    "velocity": 0.4409448818897638,
                    "duration": 0.13749999999998863
                },
                {
                    "name": "C5",
                    "midi": 72,
                    "time": 253.18499999998804,
                    "velocity": 0.3464566929133858,
                    "duration": 0.0800000000000125
                },
                {
                    "name": "F#4",
                    "midi": 66,
                    "time": 253.31499999998806,
                    "velocity": 0.2283464566929134,
                    "duration": 0.04999999999998295
                },
                {
                    "name": "A#4",
                    "midi": 70,
                    "time": 253.35499999998805,
                    "velocity": 0.15748031496062992,
                    "duration": 0.044999999999987494
                },
                {
                    "name": "G4",
                    "midi": 67,
                    "time": 253.36499999998804,
                    "velocity": 0.3937007874015748,
                    "duration": 0.15000000000000568
                },
                {
                    "name": "C5",
                    "midi": 72,
                    "time": 253.48499999998805,
                    "velocity": 0.2992125984251969,
                    "duration": 0.13249999999999318
                },
                {
                    "name": "E5",
                    "midi": 76,
                    "time": 253.54499999998805,
                    "velocity": 0.41732283464566927,
                    "duration": 0.13999999999998636
                },
                {
                    "name": "G5",
                    "midi": 79,
                    "time": 253.65749999998803,
                    "velocity": 0.3228346456692913,
                    "duration": 0.04750000000001364
                },
                {
                    "name": "C#5",
                    "midi": 73,
                    "time": 253.75499999998806,
                    "velocity": 0.16535433070866143,
                    "duration": 0.04999999999998295
                },
                {
                    "name": "F#5",
                    "midi": 78,
                    "time": 253.76249999998805,
                    "velocity": 0.11023622047244094,
                    "duration": 0.060000000000002274
                },
                {
                    "name": "G5",
                    "midi": 79,
                    "time": 253.86249999998805,
                    "velocity": 0.2755905511811024,
                    "duration": 0.12749999999999773
                },
                {
                    "name": "E5",
                    "midi": 76,
                    "time": 253.93749999998803,
                    "velocity": 0.25984251968503935,
                    "duration": 0.12749999999999773
                },
                {
                    "name": "C5",
                    "midi": 72,
                    "time": 254.05499999998804,
                    "velocity": 0.15748031496062992,
                    "duration": 0.06999999999999318
                },
                {
                    "name": "G4",
                    "midi": 67,
                    "time": 254.14999999998804,
                    "velocity": 0.29133858267716534,
                    "duration": 0.05750000000000455
                },
                {
                    "name": "F#4",
                    "midi": 66,
                    "time": 254.39999999998804,
                    "velocity": 0.23622047244094488,
                    "duration": 0.030000000000001137
                },
                {
                    "name": "G4",
                    "midi": 67,
                    "time": 254.39999999998804,
                    "velocity": 0.3937007874015748,
                    "duration": 0.09749999999999659
                },
                {
                    "name": "C5",
                    "midi": 72,
                    "time": 254.49499999998804,
                    "velocity": 0.1968503937007874,
                    "duration": 0.1074999999999875
                },
                {
                    "name": "E5",
                    "midi": 76,
                    "time": 254.56249999998803,
                    "velocity": 0.3543307086614173,
                    "duration": 0.10999999999998522
                },
                {
                    "name": "F#5",
                    "midi": 78,
                    "time": 254.73249999998802,
                    "velocity": 0.29133858267716534,
                    "duration": 0.09250000000000114
                },
                {
                    "name": "C#5",
                    "midi": 73,
                    "time": 254.75749999998803,
                    "velocity": 0.2440944881889764,
                    "duration": 0.044999999999987494
                },
                {
                    "name": "E5",
                    "midi": 76,
                    "time": 254.87749999998803,
                    "velocity": 0.15748031496062992,
                    "duration": 0.13249999999999318
                },
                {
                    "name": "C5",
                    "midi": 72,
                    "time": 255.022499999988,
                    "velocity": 0.11811023622047244,
                    "duration": 0.0800000000000125
                },
                {
                    "name": "G4",
                    "midi": 67,
                    "time": 255.14499999998802,
                    "velocity": 0.18110236220472442,
                    "duration": 0.06499999999999773
                },
                {
                    "name": "F#4",
                    "midi": 66,
                    "time": 255.244999999988,
                    "velocity": 0.1732283464566929,
                    "duration": 0.07500000000001705
                },
                {
                    "name": "A#4",
                    "midi": 70,
                    "time": 255.29749999998802,
                    "velocity": 0.11023622047244094,
                    "duration": 0.04250000000001819
                },
                {
                    "name": "G4",
                    "midi": 67,
                    "time": 255.38499999998803,
                    "velocity": 0.30708661417322836,
                    "duration": 0.1599999999999966
                },
                {
                    "name": "C5",
                    "midi": 72,
                    "time": 255.53499999998803,
                    "velocity": 0.11811023622047244,
                    "duration": 0.10249999999999204
                },
                {
                    "name": "E5",
                    "midi": 76,
                    "time": 255.62499999998803,
                    "velocity": 0.3228346456692913,
                    "duration": 0.08249999999998181
                },
                {
                    "name": "F#5",
                    "midi": 78,
                    "time": 255.752499999988,
                    "velocity": 0.2125984251968504,
                    "duration": 0.12250000000000227
                },
                {
                    "name": "C#5",
                    "midi": 73,
                    "time": 255.797499999988,
                    "velocity": 0.15748031496062992,
                    "duration": 0.05750000000000455
                },
                {
                    "name": "C5",
                    "midi": 72,
                    "time": 256.062499999988,
                    "velocity": 0.11811023622047244,
                    "duration": 0.08999999999997499
                },
                {
                    "name": "G4",
                    "midi": 67,
                    "time": 256.199999999988,
                    "velocity": 0.2677165354330709,
                    "duration": 0.05750000000000455
                },
                {
                    "name": "F#4",
                    "midi": 66,
                    "time": 256.327499999988,
                    "velocity": 0.1889763779527559,
                    "duration": 0.09249999999997272
                },
                {
                    "name": "G4",
                    "midi": 67,
                    "time": 256.49749999998795,
                    "velocity": 0.1732283464566929,
                    "duration": 0.22000000000002728
                },
                {
                    "name": "C5",
                    "midi": 72,
                    "time": 256.79999999998796,
                    "velocity": 0.16535433070866143,
                    "duration": 0.052500000000009095
                },
                {
                    "name": "E5",
                    "midi": 76,
                    "time": 256.834999999988,
                    "velocity": 0.2204724409448819,
                    "duration": 0.06749999999999545
                },
                {
                    "name": "F#5",
                    "midi": 78,
                    "time": 256.954999999988,
                    "velocity": 0.13385826771653545,
                    "duration": 0.12250000000000227
                },
                {
                    "name": "C#5",
                    "midi": 73,
                    "time": 256.969999999988,
                    "velocity": 0.18110236220472442,
                    "duration": 0.1150000000000091
                },
                {
                    "name": "E5",
                    "midi": 76,
                    "time": 257.149999999988,
                    "velocity": 0.13385826771653545,
                    "duration": 0.18500000000000227
                },
                {
                    "name": "C5",
                    "midi": 72,
                    "time": 257.332499999988,
                    "velocity": 0.11811023622047244,
                    "duration": 0.14249999999998408
                },
                {
                    "name": "G4",
                    "midi": 67,
                    "time": 257.527499999988,
                    "velocity": 0.11811023622047244,
                    "duration": 0.06999999999999318
                },
                {
                    "name": "F#4",
                    "midi": 66,
                    "time": 257.712499999988,
                    "velocity": 0.13385826771653545,
                    "duration": 0.12250000000000227
                },
                {
                    "name": "A#4",
                    "midi": 70,
                    "time": 257.749999999988,
                    "velocity": 0.15748031496062992,
                    "duration": 0.1349999999999909
                },
                {
                    "name": "G4",
                    "midi": 67,
                    "time": 257.907499999988,
                    "velocity": 0.23622047244094488,
                    "duration": 0.24250000000000682
                },
                {
                    "name": "C5",
                    "midi": 72,
                    "time": 258.16999999998797,
                    "velocity": 0.11811023622047244,
                    "duration": 0.3575000000000159
                },
                {
                    "name": "E5",
                    "midi": 76,
                    "time": 258.42499999998796,
                    "velocity": 0.2440944881889764,
                    "duration": 0.2125000000000341
                },
                {
                    "name": "F#5",
                    "midi": 78,
                    "time": 258.694999999988,
                    "velocity": 0.08661417322834646,
                    "duration": 0.2574999999999932
                },
                {
                    "name": "C#5",
                    "midi": 73,
                    "time": 258.714999999988,
                    "velocity": 0.13385826771653545,
                    "duration": 0.2699999999999818
                },
                {
                    "name": "E5",
                    "midi": 76,
                    "time": 258.969999999988,
                    "velocity": 0.28346456692913385,
                    "duration": 1.3125
                },
                {
                    "name": "C5",
                    "midi": 72,
                    "time": 259.35499999998797,
                    "velocity": 0.25984251968503935,
                    "duration": 0.9075000000000273
                },
                {
                    "name": "G4",
                    "midi": 67,
                    "time": 259.834999999988,
                    "velocity": 0.10236220472440945,
                    "duration": 0.4749999999999659
                },
                {
                    "name": "G5",
                    "midi": 79,
                    "time": 261.38249999998794,
                    "velocity": 0.25196850393700787,
                    "duration": 0.5924999999999727
                },
                {
                    "name": "D#5",
                    "midi": 75,
                    "time": 261.38499999998794,
                    "velocity": 0.2755905511811024,
                    "duration": 0.5149999999999864
                },
                {
                    "name": "A4",
                    "midi": 69,
                    "time": 261.8674999999879,
                    "velocity": 0.13385826771653545,
                    "duration": 0.14749999999997954
                },
                {
                    "name": "D5",
                    "midi": 74,
                    "time": 261.9274999999879,
                    "velocity": 0.13385826771653545,
                    "duration": 0.06749999999999545
                },
                {
                    "name": "D5",
                    "midi": 74,
                    "time": 262.22999999998785,
                    "velocity": 0.2992125984251969,
                    "duration": 0.08499999999992269
                },
                {
                    "name": "A4",
                    "midi": 69,
                    "time": 262.24999999998784,
                    "velocity": 0.15748031496062992,
                    "duration": 0.214999999999975
                },
                {
                    "name": "A5",
                    "midi": 81,
                    "time": 262.2749999999878,
                    "velocity": 0.09448818897637795,
                    "duration": 0.152499999999975
                },
                {
                    "name": "F5",
                    "midi": 77,
                    "time": 262.2899999999878,
                    "velocity": 0.11023622047244094,
                    "duration": 0.18250000000000455
                },
                {
                    "name": "C5",
                    "midi": 72,
                    "time": 262.5549999999878,
                    "velocity": 0.28346456692913385,
                    "duration": 0.052500000000009095
                },
                {
                    "name": "F5",
                    "midi": 77,
                    "time": 262.8624999999878,
                    "velocity": 0.25984251968503935,
                    "duration": 0.22749999999990678
                },
                {
                    "name": "C#5",
                    "midi": 73,
                    "time": 262.8649999999878,
                    "velocity": 0.28346456692913385,
                    "duration": 0.2749999999999204
                },
                {
                    "name": "A#4",
                    "midi": 70,
                    "time": 262.88999999998777,
                    "velocity": 0.25984251968503935,
                    "duration": 0.14499999999992497
                },
                {
                    "name": "G4",
                    "midi": 67,
                    "time": 263.1674999999877,
                    "velocity": 0.13385826771653545,
                    "duration": 0.0625
                },
                {
                    "name": "C5",
                    "midi": 72,
                    "time": 263.1674999999877,
                    "velocity": 0.1968503937007874,
                    "duration": 0.060000000000002274
                },
                {
                    "name": "C5",
                    "midi": 72,
                    "time": 263.4124999999877,
                    "velocity": 0.2992125984251969,
                    "duration": 0.0625
                },
                {
                    "name": "G5",
                    "midi": 79,
                    "time": 263.4174999999877,
                    "velocity": 0.33858267716535434,
                    "duration": 0.12749999999999773
                },
                {
                    "name": "G4",
                    "midi": 67,
                    "time": 263.43499999998767,
                    "velocity": 0.15748031496062992,
                    "duration": 0.060000000000002274
                },
                {
                    "name": "C6",
                    "midi": 84,
                    "time": 263.43999999998766,
                    "velocity": 0.1732283464566929,
                    "duration": 0.060000000000002274
                },
                {
                    "name": "C#5",
                    "midi": 73,
                    "time": 263.6599999999877,
                    "velocity": 0.33858267716535434,
                    "duration": 0.20499999999992724
                },
                {
                    "name": "D#4",
                    "midi": 63,
                    "time": 263.6724999999877,
                    "velocity": 0.1968503937007874,
                    "duration": 0.09499999999997044
                },
                {
                    "name": "A#4",
                    "midi": 70,
                    "time": 263.68249999998767,
                    "velocity": 0.29133858267716534,
                    "duration": 0.10499999999996135
                },
                {
                    "name": "D#5",
                    "midi": 75,
                    "time": 263.9999999999876,
                    "velocity": 0.4015748031496063,
                    "duration": 0.45499999999992724
                },
                {
                    "name": "C5",
                    "midi": 72,
                    "time": 263.9999999999876,
                    "velocity": 0.25196850393700787,
                    "duration": 0.1924999999999386
                },
                {
                    "name": "F4",
                    "midi": 65,
                    "time": 264.0074999999876,
                    "velocity": 0.1732283464566929,
                    "duration": 0.2899999999999636
                },
                {
                    "name": "G5",
                    "midi": 79,
                    "time": 264.0149999999876,
                    "velocity": 0.3858267716535433,
                    "duration": 0.3599999999999568
                },
                {
                    "name": "A4",
                    "midi": 69,
                    "time": 264.31749999998755,
                    "velocity": 0.15748031496062992,
                    "duration": 0.08999999999997499
                },
                {
                    "name": "D5",
                    "midi": 74,
                    "time": 264.32499999998754,
                    "velocity": 0.2992125984251969,
                    "duration": 0.0724999999999909
                },
                {
                    "name": "A4",
                    "midi": 69,
                    "time": 264.58499999998753,
                    "velocity": 0.29133858267716534,
                    "duration": 0.10750000000001592
                },
                {
                    "name": "D5",
                    "midi": 74,
                    "time": 264.58499999998753,
                    "velocity": 0.3228346456692913,
                    "duration": 0.060000000000002274
                },
                {
                    "name": "A5",
                    "midi": 81,
                    "time": 264.58499999998753,
                    "velocity": 0.2677165354330709,
                    "duration": 0.10000000000002274
                },
                {
                    "name": "F5",
                    "midi": 77,
                    "time": 264.6049999999875,
                    "velocity": 0.15748031496062992,
                    "duration": 0.09250000000002956
                },
                {
                    "name": "C#5",
                    "midi": 73,
                    "time": 265.12749999998755,
                    "velocity": 0.33858267716535434,
                    "duration": 0.29749999999989996
                },
                {
                    "name": "F5",
                    "midi": 77,
                    "time": 265.13749999998754,
                    "velocity": 0.31496062992125984,
                    "duration": 0.28749999999990905
                },
                {
                    "name": "A#4",
                    "midi": 70,
                    "time": 265.14499999998753,
                    "velocity": 0.2283464566929134,
                    "duration": 0.27999999999991587
                },
                {
                    "name": "D#4",
                    "midi": 63,
                    "time": 265.14749999998753,
                    "velocity": 0.28346456692913385,
                    "duration": 0.27749999999991815
                },
                {
                    "name": "C5",
                    "midi": 72,
                    "time": 265.41249999998746,
                    "velocity": 0.2677165354330709,
                    "duration": 0.0724999999999909
                },
                {
                    "name": "G4",
                    "midi": 67,
                    "time": 265.42249999998745,
                    "velocity": 0.2204724409448819,
                    "duration": 0.052500000000009095
                },
                {
                    "name": "G5",
                    "midi": 79,
                    "time": 265.66499999998746,
                    "velocity": 0.3937007874015748,
                    "duration": 0.13249999999999318
                },
                {
                    "name": "G4",
                    "midi": 67,
                    "time": 265.67749999998745,
                    "velocity": 0.2283464566929134,
                    "duration": 0.11250000000001137
                },
                {
                    "name": "C6",
                    "midi": 84,
                    "time": 265.68499999998744,
                    "velocity": 0.4251968503937008,
                    "duration": 0.0724999999999909
                },
                {
                    "name": "C5",
                    "midi": 72,
                    "time": 265.68499999998744,
                    "velocity": 0.2047244094488189,
                    "duration": 0.06999999999999318
                },
                {
                    "name": "D#4",
                    "midi": 63,
                    "time": 265.92499999998745,
                    "velocity": 0.3543307086614173,
                    "duration": 0.10749999999995907
                },
                {
                    "name": "C#5",
                    "midi": 73,
                    "time": 265.92499999998745,
                    "velocity": 0.41732283464566927,
                    "duration": 0.21999999999997044
                },
                {
                    "name": "A#4",
                    "midi": 70,
                    "time": 265.92749999998745,
                    "velocity": 0.3937007874015748,
                    "duration": 0.10749999999995907
                },
                {
                    "name": "F5",
                    "midi": 77,
                    "time": 265.9524999999874,
                    "velocity": 0.33858267716535434,
                    "duration": 0.12999999999999545
                },
                {
                    "name": "C5",
                    "midi": 72,
                    "time": 266.3999999999874,
                    "velocity": 0.2992125984251969,
                    "duration": 0.11000000000001364
                },
                {
                    "name": "F4",
                    "midi": 65,
                    "time": 266.3999999999874,
                    "velocity": 0.25196850393700787,
                    "duration": 0.2574999999999932
                },
                {
                    "name": "G5",
                    "midi": 79,
                    "time": 266.3999999999874,
                    "velocity": 0.4094488188976378,
                    "duration": 0.2950000000000159
                },
                {
                    "name": "D#5",
                    "midi": 75,
                    "time": 266.3999999999874,
                    "velocity": 0.4015748031496063,
                    "duration": 0.3149999999999977
                },
                {
                    "name": "D5",
                    "midi": 74,
                    "time": 266.6474999999874,
                    "velocity": 0.30708661417322836,
                    "duration": 0.05750000000000455
                },
                {
                    "name": "A4",
                    "midi": 69,
                    "time": 266.6549999999874,
                    "velocity": 0.31496062992125984,
                    "duration": 0.08749999999997726
                },
                {
                    "name": "F5",
                    "midi": 77,
                    "time": 266.9149999999874,
                    "velocity": 0.33070866141732286,
                    "duration": 0.09499999999997044
                },
                {
                    "name": "A5",
                    "midi": 81,
                    "time": 266.9149999999874,
                    "velocity": 0.25196850393700787,
                    "duration": 0.11249999999995453
                },
                {
                    "name": "D5",
                    "midi": 74,
                    "time": 266.9299999999874,
                    "velocity": 0.3543307086614173,
                    "duration": 0.05750000000000455
                },
                {
                    "name": "A4",
                    "midi": 69,
                    "time": 266.9474999999874,
                    "velocity": 0.1968503937007874,
                    "duration": 0.2400000000000091
                },
                {
                    "name": "C5",
                    "midi": 72,
                    "time": 267.1974999999874,
                    "velocity": 0.1968503937007874,
                    "duration": 0.05249999999995225
                },
                {
                    "name": "F4",
                    "midi": 65,
                    "time": 267.21999999998735,
                    "velocity": 0.15748031496062992,
                    "duration": 0.05249999999995225
                },
                {
                    "name": "F5",
                    "midi": 77,
                    "time": 267.4599999999873,
                    "velocity": 0.44881889763779526,
                    "duration": 0.41749999999996135
                },
                {
                    "name": "C#5",
                    "midi": 73,
                    "time": 267.4649999999873,
                    "velocity": 0.41732283464566927,
                    "duration": 0.33749999999997726
                },
                {
                    "name": "D#4",
                    "midi": 63,
                    "time": 267.4999999999873,
                    "velocity": 0.3228346456692913,
                    "duration": 0.10499999999996135
                },
                {
                    "name": "A#4",
                    "midi": 70,
                    "time": 267.5199999999873,
                    "velocity": 0.15748031496062992,
                    "duration": 0.22999999999996135
                },
                {
                    "name": "G4",
                    "midi": 67,
                    "time": 267.7449999999873,
                    "velocity": 0.31496062992125984,
                    "duration": 0.0625
                },
                {
                    "name": "C5",
                    "midi": 72,
                    "time": 267.75249999998726,
                    "velocity": 0.25196850393700787,
                    "duration": 0.052500000000009095
                },
                {
                    "name": "G5",
                    "midi": 79,
                    "time": 267.99749999998727,
                    "velocity": 0.36220472440944884,
                    "duration": 0.12749999999999773
                },
                {
                    "name": "D#5",
                    "midi": 75,
                    "time": 267.99749999998727,
                    "velocity": 0.3700787401574803,
                    "duration": 0.12999999999999545
                },
                {
                    "name": "C5",
                    "midi": 72,
                    "time": 268.0399999999873,
                    "velocity": 0.13385826771653545,
                    "duration": 0.0724999999999909
                },
                {
                    "name": "A#4",
                    "midi": 70,
                    "time": 268.2849999999873,
                    "velocity": 0.2677165354330709,
                    "duration": 0.09249999999997272
                },
                {
                    "name": "D#4",
                    "midi": 63,
                    "time": 268.2999999999873,
                    "velocity": 0.29133858267716534,
                    "duration": 0.08249999999998181
                },
                {
                    "name": "B4",
                    "midi": 71,
                    "time": 268.6074999999873,
                    "velocity": 0.3937007874015748,
                    "duration": 0.31249999999982947
                },
                {
                    "name": "D#5",
                    "midi": 75,
                    "time": 268.6199999999873,
                    "velocity": 0.36220472440944884,
                    "duration": 0.3599999999998431
                },
                {
                    "name": "G#4",
                    "midi": 68,
                    "time": 268.62499999998727,
                    "velocity": 0.25196850393700787,
                    "duration": 0.26499999999987267
                },
                {
                    "name": "C#4",
                    "midi": 61,
                    "time": 268.62499999998727,
                    "velocity": 0.2677165354330709,
                    "duration": 0.3599999999998431
                },
                {
                    "name": "A#4",
                    "midi": 70,
                    "time": 268.9374999999871,
                    "velocity": 0.25984251968503935,
                    "duration": 0.11000000000001364
                },
                {
                    "name": "F4",
                    "midi": 65,
                    "time": 268.9474999999871,
                    "velocity": 0.2755905511811024,
                    "duration": 0.12000000000000455
                },
                {
                    "name": "A#4",
                    "midi": 70,
                    "time": 269.2599999999871,
                    "velocity": 0.30708661417322836,
                    "duration": 0.13249999999999318
                },
                {
                    "name": "F5",
                    "midi": 77,
                    "time": 269.2624999999871,
                    "velocity": 0.2992125984251969,
                    "duration": 0.12749999999999773
                },
                {
                    "name": "F4",
                    "midi": 65,
                    "time": 269.2699999999871,
                    "velocity": 0.18110236220472442,
                    "duration": 0.125
                },
                {
                    "name": "C#5",
                    "midi": 73,
                    "time": 269.2699999999871,
                    "velocity": 0.25196850393700787,
                    "duration": 0.12250000000000227
                },
                {
                    "name": "C#4",
                    "midi": 61,
                    "time": 269.59999999998706,
                    "velocity": 0.15748031496062992,
                    "duration": 0.1150000000000091
                },
                {
                    "name": "G#4",
                    "midi": 68,
                    "time": 269.60999999998705,
                    "velocity": 0.18110236220472442,
                    "duration": 0.11750000000000682
                },
                {
                    "name": "C#5",
                    "midi": 73,
                    "time": 269.93249999998704,
                    "velocity": 0.2440944881889764,
                    "duration": 0.464999999999975
                },
                {
                    "name": "A4",
                    "midi": 69,
                    "time": 269.93249999998704,
                    "velocity": 0.3700787401574803,
                    "duration": 0.4149999999999636
                },
                {
                    "name": "F#4",
                    "midi": 66,
                    "time": 269.967499999987,
                    "velocity": 0.2047244094488189,
                    "duration": 0.2574999999999932
                },
                {
                    "name": "G#4",
                    "midi": 68,
                    "time": 270.244999999987,
                    "velocity": 0.2440944881889764,
                    "duration": 0.15500000000002956
                },
                {
                    "name": "D#4",
                    "midi": 63,
                    "time": 270.294999999987,
                    "velocity": 0.2047244094488189,
                    "duration": 0.09500000000002728
                },
                {
                    "name": "G#4",
                    "midi": 68,
                    "time": 270.674999999987,
                    "velocity": 0.25984251968503935,
                    "duration": 0.5099999999998204
                },
                {
                    "name": "D#4",
                    "midi": 63,
                    "time": 270.697499999987,
                    "velocity": 0.16535433070866143,
                    "duration": 0.5074999999998226
                },
                {
                    "name": "D#5",
                    "midi": 75,
                    "time": 270.71499999998696,
                    "velocity": 0.15748031496062992,
                    "duration": 0.6224999999998317
                },
                {
                    "name": "B4",
                    "midi": 71,
                    "time": 270.71749999998696,
                    "velocity": 0.2677165354330709,
                    "duration": 0.6174999999998363
                },
                {
                    "name": "F#4",
                    "midi": 66,
                    "time": 271.2224999999868,
                    "velocity": 0.11023622047244094,
                    "duration": 0.3899999999999295
                },
                {
                    "name": "B3",
                    "midi": 59,
                    "time": 271.2624999999868,
                    "velocity": 0.11023622047244094,
                    "duration": 0.33249999999992497
                },
                {
                    "name": "C#5",
                    "midi": 73,
                    "time": 272.5199999999866,
                    "velocity": 0.3700787401574803,
                    "duration": 0.46500000000003183
                },
                {
                    "name": "F#3",
                    "midi": 54,
                    "time": 272.56749999998664,
                    "velocity": 0.2755905511811024,
                    "duration": 0.3050000000000068
                },
                {
                    "name": "C#4",
                    "midi": 61,
                    "time": 272.56749999998664,
                    "velocity": 0.1889763779527559,
                    "duration": 0.125
                },
                {
                    "name": "A3",
                    "midi": 57,
                    "time": 272.57249999998663,
                    "velocity": 0.16535433070866143,
                    "duration": 0.24250000000000682
                },
                {
                    "name": "B2",
                    "midi": 47,
                    "time": 272.5924999999866,
                    "velocity": 0.10236220472440945,
                    "duration": 0.44500000000005
                },
                {
                    "name": "F#4",
                    "midi": 66,
                    "time": 272.5949999999866,
                    "velocity": 0.13385826771653545,
                    "duration": 0.4425000000000523
                },
                {
                    "name": "G#4",
                    "midi": 68,
                    "time": 273.02999999998667,
                    "velocity": 0.1968503937007874,
                    "duration": 0.0625
                },
                {
                    "name": "D#4",
                    "midi": 63,
                    "time": 273.03749999998666,
                    "velocity": 0.16535433070866143,
                    "duration": 0.09750000000002501
                },
                {
                    "name": "D#5",
                    "midi": 75,
                    "time": 273.41499999998666,
                    "velocity": 0.4094488188976378,
                    "duration": 0.3449999999999136
                },
                {
                    "name": "E3",
                    "midi": 52,
                    "time": 273.41999999998666,
                    "velocity": 0.33858267716535434,
                    "duration": 0.23499999999989996
                },
                {
                    "name": "G#4",
                    "midi": 68,
                    "time": 273.43999999998664,
                    "velocity": 0.30708661417322836,
                    "duration": 0.15999999999991132
                },
                {
                    "name": "D#4",
                    "midi": 63,
                    "time": 273.43999999998664,
                    "velocity": 0.10236220472440945,
                    "duration": 0.1299999999999386
                },
                {
                    "name": "B3",
                    "midi": 59,
                    "time": 273.50499999998664,
                    "velocity": 0.11023622047244094,
                    "duration": 0.07499999999993179
                },
                {
                    "name": "C#4",
                    "midi": 61,
                    "time": 273.8249999999866,
                    "velocity": 0.2047244094488189,
                    "duration": 0.10250000000002046
                },
                {
                    "name": "B4",
                    "midi": 71,
                    "time": 274.1824999999866,
                    "velocity": 0.4015748031496063,
                    "duration": 0.05499999999994998
                },
                {
                    "name": "E3",
                    "midi": 52,
                    "time": 274.1924999999866,
                    "velocity": 0.25196850393700787,
                    "duration": 0.2349999999999568
                },
                {
                    "name": "G3",
                    "midi": 55,
                    "time": 274.1949999999866,
                    "velocity": 0.29133858267716534,
                    "duration": 0.23749999999995453
                },
                {
                    "name": "A2",
                    "midi": 45,
                    "time": 274.1949999999866,
                    "velocity": 0.3228346456692913,
                    "duration": 0.20999999999997954
                },
                {
                    "name": "B3",
                    "midi": 59,
                    "time": 274.20499999998657,
                    "velocity": 0.25984251968503935,
                    "duration": 0.07499999999998863
                },
                {
                    "name": "E4",
                    "midi": 64,
                    "time": 274.22249999998655,
                    "velocity": 0.29133858267716534,
                    "duration": 0.26499999999998636
                },
                {
                    "name": "F#4",
                    "midi": 66,
                    "time": 274.52749999998656,
                    "velocity": 0.1968503937007874,
                    "duration": 0.03750000000002274
                },
                {
                    "name": "F#5",
                    "midi": 78,
                    "time": 274.8599999999866,
                    "velocity": 0.48031496062992124,
                    "duration": 0.44499999999993634
                },
                {
                    "name": "C#4",
                    "midi": 61,
                    "time": 274.8724999999866,
                    "velocity": 0.2047244094488189,
                    "duration": 0.26999999999992497
                },
                {
                    "name": "F#4",
                    "midi": 66,
                    "time": 274.8824999999866,
                    "velocity": 0.3779527559055118,
                    "duration": 0.37249999999994543
                },
                {
                    "name": "D3",
                    "midi": 50,
                    "time": 274.8874999999866,
                    "velocity": 0.3858267716535433,
                    "duration": 0.39999999999997726
                },
                {
                    "name": "A3",
                    "midi": 57,
                    "time": 274.89499999998657,
                    "velocity": 0.3228346456692913,
                    "duration": 0.23249999999995907
                },
                {
                    "name": "D5",
                    "midi": 74,
                    "time": 275.23749999998654,
                    "velocity": 0.5039370078740157,
                    "duration": 0.12250000000000227
                },
                {
                    "name": "A4",
                    "midi": 69,
                    "time": 275.24499999998653,
                    "velocity": 0.3228346456692913,
                    "duration": 0.060000000000002274
                },
                {
                    "name": "C#5",
                    "midi": 73,
                    "time": 275.6349999999865,
                    "velocity": 0.5354330708661418,
                    "duration": 0.529999999999859
                },
                {
                    "name": "B2",
                    "midi": 47,
                    "time": 275.6524999999865,
                    "velocity": 0.33858267716535434,
                    "duration": 0.3174999999998249
                },
                {
                    "name": "F#3",
                    "midi": 54,
                    "time": 275.6599999999865,
                    "velocity": 0.29133858267716534,
                    "duration": 0.34499999999985675
                },
                {
                    "name": "A3",
                    "midi": 57,
                    "time": 275.6649999999865,
                    "velocity": 0.25196850393700787,
                    "duration": 0.29999999999984084
                },
                {
                    "name": "C#4",
                    "midi": 61,
                    "time": 275.6749999999865,
                    "velocity": 0.31496062992125984,
                    "duration": 0.19499999999993634
                },
                {
                    "name": "F#4",
                    "midi": 66,
                    "time": 275.69249999998647,
                    "velocity": 0.2992125984251969,
                    "duration": 0.3724999999998886
                },
                {
                    "name": "D#4",
                    "midi": 63,
                    "time": 276.08499999998634,
                    "velocity": 0.13385826771653545,
                    "duration": 0.15500000000002956
                },
                {
                    "name": "G#4",
                    "midi": 68,
                    "time": 276.12999999998635,
                    "velocity": 0.29133858267716534,
                    "duration": 0.125
                },
                {
                    "name": "D#5",
                    "midi": 75,
                    "time": 276.51499999998634,
                    "velocity": 0.48031496062992124,
                    "duration": 0.3099999999998886
                },
                {
                    "name": "E3",
                    "midi": 52,
                    "time": 276.52249999998634,
                    "velocity": 0.2677165354330709,
                    "duration": 0.6024999999998499
                },
                {
                    "name": "B3",
                    "midi": 59,
                    "time": 276.5449999999863,
                    "velocity": 0.2440944881889764,
                    "duration": 0.5799999999998704
                },
                {
                    "name": "G#4",
                    "midi": 68,
                    "time": 276.5449999999863,
                    "velocity": 0.3228346456692913,
                    "duration": 0.27999999999991587
                },
                {
                    "name": "D#4",
                    "midi": 63,
                    "time": 276.5474999999863,
                    "velocity": 0.16535433070866143,
                    "duration": 0.27749999999991815
                },
                {
                    "name": "F#4",
                    "midi": 66,
                    "time": 276.9149999999862,
                    "velocity": 0.1889763779527559,
                    "duration": 0.06749999999999545
                },
                {
                    "name": "C#4",
                    "midi": 61,
                    "time": 276.9449999999862,
                    "velocity": 0.2204724409448819,
                    "duration": 0.11000000000001364
                },
                {
                    "name": "B4",
                    "midi": 71,
                    "time": 277.2874999999862,
                    "velocity": 0.3779527559055118,
                    "duration": 0.3449999999997999
                },
                {
                    "name": "G3",
                    "midi": 55,
                    "time": 277.2974999999862,
                    "velocity": 0.29133858267716534,
                    "duration": 0.30249999999983856
                },
                {
                    "name": "E3",
                    "midi": 52,
                    "time": 277.3149999999862,
                    "velocity": 0.2677165354330709,
                    "duration": 0.2974999999998431
                },
                {
                    "name": "A2",
                    "midi": 45,
                    "time": 277.3174999999862,
                    "velocity": 0.2440944881889764,
                    "duration": 0.2599999999998772
                },
                {
                    "name": "B3",
                    "midi": 59,
                    "time": 277.33499999998617,
                    "velocity": 0.15748031496062992,
                    "duration": 0.08999999999997499
                },
                {
                    "name": "E4",
                    "midi": 64,
                    "time": 277.35249999998615,
                    "velocity": 0.2204724409448819,
                    "duration": 0.25249999999988404
                },
                {
                    "name": "F#4",
                    "midi": 66,
                    "time": 277.709999999986,
                    "velocity": 0.16535433070866143,
                    "duration": 0.03500000000002501
                },
                {
                    "name": "F#5",
                    "midi": 78,
                    "time": 278.09499999998604,
                    "velocity": 0.36220472440944884,
                    "duration": 0.4074999999999136
                },
                {
                    "name": "A3",
                    "midi": 57,
                    "time": 278.10499999998603,
                    "velocity": 0.2992125984251969,
                    "duration": 0.3074999999999477
                },
                {
                    "name": "F#4",
                    "midi": 66,
                    "time": 278.112499999986,
                    "velocity": 0.2992125984251969,
                    "duration": 0.41249999999990905
                },
                {
                    "name": "C#5",
                    "midi": 73,
                    "time": 278.149999999986,
                    "velocity": 0.2440944881889764,
                    "duration": 0.152499999999975
                },
                {
                    "name": "C#4",
                    "midi": 61,
                    "time": 278.164999999986,
                    "velocity": 0.29133858267716534,
                    "duration": 0.2599999999999909
                },
                {
                    "name": "D3",
                    "midi": 50,
                    "time": 278.169999999986,
                    "velocity": 0.31496062992125984,
                    "duration": 0.6599999999999682
                },
                {
                    "name": "D5",
                    "midi": 74,
                    "time": 278.49749999998596,
                    "velocity": 0.4015748031496063,
                    "duration": 0.057499999999947704
                },
                {
                    "name": "A4",
                    "midi": 69,
                    "time": 278.5399999999859,
                    "velocity": 0.11811023622047244,
                    "duration": 0.05000000000001137
                },
                {
                    "name": "C#5",
                    "midi": 73,
                    "time": 278.9149999999859,
                    "velocity": 0.4015748031496063,
                    "duration": 0.38749999999987494
                },
                {
                    "name": "A3",
                    "midi": 57,
                    "time": 278.9324999999859,
                    "velocity": 0.30708661417322836,
                    "duration": 0.592499999999859
                },
                {
                    "name": "B2",
                    "midi": 47,
                    "time": 278.9374999999859,
                    "velocity": 0.3543307086614173,
                    "duration": 0.5874999999998636
                },
                {
                    "name": "C#4",
                    "midi": 61,
                    "time": 278.9449999999859,
                    "velocity": 0.3543307086614173,
                    "duration": 0.14249999999998408
                },
                {
                    "name": "F#3",
                    "midi": 54,
                    "time": 278.9499999999859,
                    "velocity": 0.31496062992125984,
                    "duration": 0.5749999999998749
                },
                {
                    "name": "F#4",
                    "midi": 66,
                    "time": 278.98499999998586,
                    "velocity": 0.23622047244094488,
                    "duration": 0.30999999999994543
                },
                {
                    "name": "G#4",
                    "midi": 68,
                    "time": 279.3274999999858,
                    "velocity": 0.3779527559055118,
                    "duration": 0.10249999999996362
                },
                {
                    "name": "D#4",
                    "midi": 63,
                    "time": 279.34749999998576,
                    "velocity": 0.2204724409448819,
                    "duration": 0.07999999999998408
                },
                {
                    "name": "D#5",
                    "midi": 75,
                    "time": 279.66999999998575,
                    "velocity": 0.4645669291338583,
                    "duration": 0.3449999999999136
                },
                {
                    "name": "G#4",
                    "midi": 68,
                    "time": 279.67749999998574,
                    "velocity": 0.33858267716535434,
                    "duration": 0.26749999999992724
                },
                {
                    "name": "E3",
                    "midi": 52,
                    "time": 279.7124999999857,
                    "velocity": 0.2440944881889764,
                    "duration": 0.5249999999999204
                },
                {
                    "name": "D#4",
                    "midi": 63,
                    "time": 279.7224999999857,
                    "velocity": 0.07874015748031496,
                    "duration": 0.152499999999975
                },
                {
                    "name": "B3",
                    "midi": 59,
                    "time": 279.7224999999857,
                    "velocity": 0.16535433070866143,
                    "duration": 0.5149999999999295
                },
                {
                    "name": "F#4",
                    "midi": 66,
                    "time": 280.0549999999857,
                    "velocity": 0.29133858267716534,
                    "duration": 0.08749999999997726
                },
                {
                    "name": "C#4",
                    "midi": 61,
                    "time": 280.0549999999857,
                    "velocity": 0.2204724409448819,
                    "duration": 0.11249999999995453
                },
                {
                    "name": "B4",
                    "midi": 71,
                    "time": 280.3924999999856,
                    "velocity": 0.5433070866141733,
                    "duration": 0.44999999999987494
                },
                {
                    "name": "G3",
                    "midi": 55,
                    "time": 280.4049999999856,
                    "velocity": 0.3700787401574803,
                    "duration": 0.3249999999999318
                },
                {
                    "name": "E3",
                    "midi": 52,
                    "time": 280.4099999999856,
                    "velocity": 0.31496062992125984,
                    "duration": 0.3249999999999318
                },
                {
                    "name": "A2",
                    "midi": 45,
                    "time": 280.4124999999856,
                    "velocity": 0.41732283464566927,
                    "duration": 0.2949999999999591
                },
                {
                    "name": "B3",
                    "midi": 59,
                    "time": 280.43249999998557,
                    "velocity": 0.31496062992125984,
                    "duration": 0.06999999999999318
                },
                {
                    "name": "E4",
                    "midi": 64,
                    "time": 280.43499999998556,
                    "velocity": 0.2992125984251969,
                    "duration": 0.339999999999975
                },
                {
                    "name": "F#4",
                    "midi": 66,
                    "time": 280.7999999999855,
                    "velocity": 0.30708661417322836,
                    "duration": 0.08499999999997954
                },
                {
                    "name": "C#4",
                    "midi": 61,
                    "time": 280.8124999999855,
                    "velocity": 0.25196850393700787,
                    "duration": 0.12999999999999545
                },
                {
                    "name": "C#4",
                    "midi": 61,
                    "time": 281.2024999999855,
                    "velocity": 0.16535433070866143,
                    "duration": 0.3099999999998886
                },
                {
                    "name": "C#5",
                    "midi": 73,
                    "time": 281.2049999999855,
                    "velocity": 0.30708661417322836,
                    "duration": 0.30749999999989086
                },
                {
                    "name": "F#4",
                    "midi": 66,
                    "time": 281.2199999999855,
                    "velocity": 0.3543307086614173,
                    "duration": 0.2924999999999045
                },
                {
                    "name": "D3",
                    "midi": 50,
                    "time": 281.2224999999855,
                    "velocity": 0.2440944881889764,
                    "duration": 0.34249999999991587
                },
                {
                    "name": "A3",
                    "midi": 57,
                    "time": 281.2749999999854,
                    "velocity": 0.1732283464566929,
                    "duration": 0.6124999999999545
                },
                {
                    "name": "E4",
                    "midi": 64,
                    "time": 281.6449999999854,
                    "velocity": 0.2677165354330709,
                    "duration": 0.07999999999998408
                },
                {
                    "name": "F3",
                    "midi": 53,
                    "time": 282.10749999998535,
                    "velocity": 0.23622047244094488,
                    "duration": 0.3974999999999227
                },
                {
                    "name": "A4",
                    "midi": 69,
                    "time": 282.11499999998534,
                    "velocity": 0.36220472440944884,
                    "duration": 0.41999999999990223
                },
                {
                    "name": "D3",
                    "midi": 50,
                    "time": 282.12249999998534,
                    "velocity": 0.2992125984251969,
                    "duration": 0.3624999999999545
                },
                {
                    "name": "G2",
                    "midi": 43,
                    "time": 282.12999999998533,
                    "velocity": 0.2992125984251969,
                    "duration": 0.34499999999997044
                },
                {
                    "name": "A3",
                    "midi": 57,
                    "time": 282.1349999999853,
                    "velocity": 0.25984251968503935,
                    "duration": 0.12999999999999545
                },
                {
                    "name": "D4",
                    "midi": 62,
                    "time": 282.1349999999853,
                    "velocity": 0.30708661417322836,
                    "duration": 0.4099999999999113
                },
                {
                    "name": "E4",
                    "midi": 64,
                    "time": 282.5699999999852,
                    "velocity": 0.25984251968503935,
                    "duration": 0.44249999999999545
                },
                {
                    "name": "B3",
                    "midi": 59,
                    "time": 282.5899999999852,
                    "velocity": 0.15748031496062992,
                    "duration": 0.06749999999999545
                },
                {
                    "name": "E4",
                    "midi": 64,
                    "time": 283.1999999999852,
                    "velocity": 0.1968503937007874,
                    "duration": 0.7399999999998954
                },
                {
                    "name": "B3",
                    "midi": 59,
                    "time": 283.1999999999852,
                    "velocity": 0.1732283464566929,
                    "duration": 0.5874999999999204
                },
                {
                    "name": "G3",
                    "midi": 55,
                    "time": 283.1999999999852,
                    "velocity": 0.28346456692913385,
                    "duration": 0.6424999999999272
                },
                {
                    "name": "B4",
                    "midi": 71,
                    "time": 283.1999999999852,
                    "velocity": 0.5354330708661418,
                    "duration": 0.6549999999999159
                },
                {
                    "name": "C3",
                    "midi": 48,
                    "time": 283.1999999999852,
                    "velocity": 0.2755905511811024,
                    "duration": 0.7149999999999181
                },
                {
                    "name": "C4",
                    "midi": 60,
                    "time": 283.84999999998513,
                    "velocity": 0.5433070866141733,
                    "duration": 4.079999999999757
                },
                {
                    "name": "A#3",
                    "midi": 58,
                    "time": 285.05499999998506,
                    "velocity": 0.3464566929133858,
                    "duration": 1.6074999999998454
                },
                {
                    "name": "G#4",
                    "midi": 68,
                    "time": 285.06249999998505,
                    "velocity": 0.3464566929133858,
                    "duration": 1.7099999999998658
                },
                {
                    "name": "F#2",
                    "midi": 42,
                    "time": 285.07249999998504,
                    "velocity": 0.30708661417322836,
                    "duration": 1.6399999999998727
                },
                {
                    "name": "E4",
                    "midi": 64,
                    "time": 285.092499999985,
                    "velocity": 0.25196850393700787,
                    "duration": 1.7574999999998795
                },
                {
                    "name": "C#3",
                    "midi": 49,
                    "time": 285.109999999985,
                    "velocity": 0.25984251968503935,
                    "duration": 1.6749999999998977
                },
                {
                    "name": "B2",
                    "midi": 47,
                    "time": 287.9999999999849,
                    "velocity": 0.25984251968503935,
                    "duration": 0.22500000000002274
                },
                {
                    "name": "B1",
                    "midi": 35,
                    "time": 287.9999999999849,
                    "velocity": 0.2755905511811024,
                    "duration": 0.16500000000002046
                },
                {
                    "name": "B3",
                    "midi": 59,
                    "time": 288.3874999999849,
                    "velocity": 0.2204724409448819,
                    "duration": 0.15999999999996817
                },
                {
                    "name": "A3",
                    "midi": 57,
                    "time": 288.3899999999849,
                    "velocity": 0.2204724409448819,
                    "duration": 0.1349999999999909
                },
                {
                    "name": "F#4",
                    "midi": 66,
                    "time": 288.5674999999849,
                    "velocity": 0.3700787401574803,
                    "duration": 0.1449999999999818
                },
                {
                    "name": "B4",
                    "midi": 71,
                    "time": 288.7549999999849,
                    "velocity": 0.36220472440944884,
                    "duration": 0.04250000000001819
                },
                {
                    "name": "C#4",
                    "midi": 61,
                    "time": 288.8974999999849,
                    "velocity": 0.33070866141732286,
                    "duration": 0.5575000000000045
                },
                {
                    "name": "A4",
                    "midi": 69,
                    "time": 288.9899999999849,
                    "velocity": 0.25196850393700787,
                    "duration": 0.0724999999999909
                },
                {
                    "name": "B4",
                    "midi": 71,
                    "time": 288.9924999999849,
                    "velocity": 0.25196850393700787,
                    "duration": 0.05000000000001137
                },
                {
                    "name": "F#5",
                    "midi": 78,
                    "time": 289.0999999999849,
                    "velocity": 0.2204724409448819,
                    "duration": 0.14249999999998408
                },
                {
                    "name": "A5",
                    "midi": 81,
                    "time": 289.2574999999849,
                    "velocity": 0.2283464566929134,
                    "duration": 0.045000000000015916
                },
                {
                    "name": "B5",
                    "midi": 83,
                    "time": 289.2949999999849,
                    "velocity": 0.25984251968503935,
                    "duration": 0.045000000000015916
                },
                {
                    "name": "C#5",
                    "midi": 73,
                    "time": 289.3849999999849,
                    "velocity": 0.3937007874015748,
                    "duration": 0.08999999999997499
                },
                {
                    "name": "E6",
                    "midi": 88,
                    "time": 289.5524999999849,
                    "velocity": 0.4645669291338583,
                    "duration": 0.060000000000002274
                },
                {
                    "name": "F#6",
                    "midi": 90,
                    "time": 289.6099999999849,
                    "velocity": 0.1889763779527559,
                    "duration": 0.09499999999997044
                },
                {
                    "name": "A6",
                    "midi": 93,
                    "time": 289.72999999998484,
                    "velocity": 0.3779527559055118,
                    "duration": 0.060000000000002274
                },
                {
                    "name": "B6",
                    "midi": 95,
                    "time": 289.8724999999848,
                    "velocity": 0.2992125984251969,
                    "duration": 0.04250000000001819
                },
                {
                    "name": "C#5",
                    "midi": 73,
                    "time": 290.1699999999848,
                    "velocity": 0.3543307086614173,
                    "duration": 0.22249999999985448
                },
                {
                    "name": "B6",
                    "midi": 95,
                    "time": 290.1699999999848,
                    "velocity": 0.1889763779527559,
                    "duration": 0.06499999999994088
                },
                {
                    "name": "C#6",
                    "midi": 85,
                    "time": 290.1774999999848,
                    "velocity": 0.2755905511811024,
                    "duration": 0.1949999999998795
                },
                {
                    "name": "A6",
                    "midi": 93,
                    "time": 290.19499999998476,
                    "velocity": 0.3543307086614173,
                    "duration": 0.05249999999995225
                },
                {
                    "name": "F#6",
                    "midi": 90,
                    "time": 290.2799999999847,
                    "velocity": 0.11811023622047244,
                    "duration": 0.06499999999999773
                },
                {
                    "name": "B5",
                    "midi": 83,
                    "time": 290.44499999998465,
                    "velocity": 0.31496062992125984,
                    "duration": 0.040000000000020464
                },
                {
                    "name": "F#5",
                    "midi": 78,
                    "time": 290.6474999999847,
                    "velocity": 0.2677165354330709,
                    "duration": 0.04250000000001819
                },
                {
                    "name": "A4",
                    "midi": 69,
                    "time": 290.9399999999847,
                    "velocity": 0.3543307086614173,
                    "duration": 0.09749999999996817
                },
                {
                    "name": "B4",
                    "midi": 71,
                    "time": 290.9474999999847,
                    "velocity": 0.25196850393700787,
                    "duration": 0.08999999999997499
                },
                {
                    "name": "D#6",
                    "midi": 87,
                    "time": 290.9524999999847,
                    "velocity": 0.33858267716535434,
                    "duration": 0.08499999999997954
                },
                {
                    "name": "D#5",
                    "midi": 75,
                    "time": 290.9549999999847,
                    "velocity": 0.44881889763779526,
                    "duration": 0.08249999999998181
                },
                {
                    "name": "F#5",
                    "midi": 78,
                    "time": 291.05499999998466,
                    "velocity": 0.30708661417322836,
                    "duration": 0.10500000000001819
                },
                {
                    "name": "B5",
                    "midi": 83,
                    "time": 291.1524999999847,
                    "velocity": 0.33858267716535434,
                    "duration": 0.040000000000020464
                },
                {
                    "name": "B5",
                    "midi": 83,
                    "time": 291.2949999999847,
                    "velocity": 0.1968503937007874,
                    "duration": 0.10000000000002274
                },
                {
                    "name": "F#6",
                    "midi": 90,
                    "time": 291.39249999998475,
                    "velocity": 0.3858267716535433,
                    "duration": 0.12250000000000227
                },
                {
                    "name": "B6",
                    "midi": 95,
                    "time": 291.5524999999848,
                    "velocity": 0.3858267716535433,
                    "duration": 0.04250000000001819
                },
                {
                    "name": "C#5",
                    "midi": 73,
                    "time": 291.68749999998477,
                    "velocity": 0.25196850393700787,
                    "duration": 0.20999999999986585
                },
                {
                    "name": "C#6",
                    "midi": 85,
                    "time": 291.68999999998476,
                    "velocity": 0.33858267716535434,
                    "duration": 0.1949999999998795
                },
                {
                    "name": "B6",
                    "midi": 95,
                    "time": 291.69249999998476,
                    "velocity": 0.33858267716535434,
                    "duration": 0.06249999999994316
                },
                {
                    "name": "A6",
                    "midi": 93,
                    "time": 291.70999999998475,
                    "velocity": 0.41732283464566927,
                    "duration": 0.0474999999999568
                },
                {
                    "name": "F#6",
                    "midi": 90,
                    "time": 291.7799999999847,
                    "velocity": 0.2677165354330709,
                    "duration": 0.08499999999997954
                },
                {
                    "name": "B5",
                    "midi": 83,
                    "time": 291.9174999999846,
                    "velocity": 0.41732283464566927,
                    "duration": 0.03500000000002501
                },
                {
                    "name": "B5",
                    "midi": 83,
                    "time": 292.01749999998464,
                    "velocity": 0.3543307086614173,
                    "duration": 0.08499999999997954
                },
                {
                    "name": "A5",
                    "midi": 81,
                    "time": 292.0449999999846,
                    "velocity": 0.3228346456692913,
                    "duration": 0.060000000000002274
                },
                {
                    "name": "F#5",
                    "midi": 78,
                    "time": 292.1249999999846,
                    "velocity": 0.15748031496062992,
                    "duration": 0.05000000000001137
                },
                {
                    "name": "B4",
                    "midi": 71,
                    "time": 292.26999999998463,
                    "velocity": 0.10236220472440945,
                    "duration": 0.05750000000000455
                },
                {
                    "name": "A4",
                    "midi": 69,
                    "time": 292.42749999998466,
                    "velocity": 0.2992125984251969,
                    "duration": 0.10999999999989996
                },
                {
                    "name": "B4",
                    "midi": 71,
                    "time": 292.43249999998466,
                    "velocity": 0.11811023622047244,
                    "duration": 0.12499999999988631
                },
                {
                    "name": "F#6",
                    "midi": 90,
                    "time": 292.43749999998465,
                    "velocity": 0.4330708661417323,
                    "duration": 0.08249999999992497
                },
                {
                    "name": "F#5",
                    "midi": 78,
                    "time": 292.44999999998464,
                    "velocity": 0.3228346456692913,
                    "duration": 0.1849999999998886
                },
                {
                    "name": "D#6",
                    "midi": 87,
                    "time": 292.79999999998455,
                    "velocity": 0.3779527559055118,
                    "duration": 0.06999999999999318
                },
                {
                    "name": "D#5",
                    "midi": 75,
                    "time": 292.79999999998455,
                    "velocity": 0.4015748031496063,
                    "duration": 0.05750000000000455
                },
                {
                    "name": "B5",
                    "midi": 83,
                    "time": 292.81249999998454,
                    "velocity": 0.10236220472440945,
                    "duration": 0.08999999999997499
                },
                {
                    "name": "A5",
                    "midi": 81,
                    "time": 292.82249999998453,
                    "velocity": 0.30708661417322836,
                    "duration": 0.05500000000000682
                },
                {
                    "name": "F#6",
                    "midi": 90,
                    "time": 292.88499999998453,
                    "velocity": 0.28346456692913385,
                    "duration": 0.15999999999996817
                },
                {
                    "name": "A6",
                    "midi": 93,
                    "time": 293.0374999999845,
                    "velocity": 0.15748031496062992,
                    "duration": 0.037499999999965894
                },
                {
                    "name": "B6",
                    "midi": 95,
                    "time": 293.0474999999845,
                    "velocity": 0.2755905511811024,
                    "duration": 0.042499999999961346
                },
                {
                    "name": "B6",
                    "midi": 95,
                    "time": 293.17749999998443,
                    "velocity": 0.31496062992125984,
                    "duration": 0.09249999999997272
                },
                {
                    "name": "C#6",
                    "midi": 85,
                    "time": 293.17999999998443,
                    "velocity": 0.4645669291338583,
                    "duration": 0.21999999999985675
                },
                {
                    "name": "C#5",
                    "midi": 73,
                    "time": 293.1899999999844,
                    "velocity": 0.3937007874015748,
                    "duration": 0.24999999999982947
                },
                {
                    "name": "A6",
                    "midi": 93,
                    "time": 293.2099999999844,
                    "velocity": 0.33858267716535434,
                    "duration": 0.1099999999999568
                },
                {
                    "name": "F#6",
                    "midi": 90,
                    "time": 293.2899999999844,
                    "velocity": 0.2204724409448819,
                    "duration": 0.08249999999992497
                },
                {
                    "name": "E6",
                    "midi": 88,
                    "time": 293.3699999999843,
                    "velocity": 0.2992125984251969,
                    "duration": 0.03999999999996362
                },
                {
                    "name": "B5",
                    "midi": 83,
                    "time": 293.43749999998425,
                    "velocity": 0.33070866141732286,
                    "duration": 0.03750000000002274
                },
                {
                    "name": "B5",
                    "midi": 83,
                    "time": 293.54749999998427,
                    "velocity": 0.3228346456692913,
                    "duration": 0.0625
                },
                {
                    "name": "A5",
                    "midi": 81,
                    "time": 293.55749999998426,
                    "velocity": 0.2992125984251969,
                    "duration": 0.10250000000002046
                },
                {
                    "name": "F#5",
                    "midi": 78,
                    "time": 293.61999999998426,
                    "velocity": 0.30708661417322836,
                    "duration": 0.060000000000002274
                },
                {
                    "name": "A4",
                    "midi": 69,
                    "time": 293.9099999999843,
                    "velocity": 0.4251968503937008,
                    "duration": 0.11499999999989541
                },
                {
                    "name": "B4",
                    "midi": 71,
                    "time": 293.9124999999843,
                    "velocity": 0.4409448818897638,
                    "duration": 0.11499999999989541
                },
                {
                    "name": "G#4",
                    "midi": 68,
                    "time": 293.92999999998426,
                    "velocity": 0.44881889763779526,
                    "duration": 0.28249999999985675
                },
                {
                    "name": "G#5",
                    "midi": 80,
                    "time": 293.94749999998425,
                    "velocity": 0.33858267716535434,
                    "duration": 0.2849999999998545
                },
                {
                    "name": "F#5",
                    "midi": 78,
                    "time": 294.0049999999842,
                    "velocity": 0.09448818897637795,
                    "duration": 0.13249999999993634
                },
                {
                    "name": "A5",
                    "midi": 81,
                    "time": 294.2749999999841,
                    "velocity": 0.2204724409448819,
                    "duration": 0.10749999999995907
                },
                {
                    "name": "B5",
                    "midi": 83,
                    "time": 294.2849999999841,
                    "velocity": 0.2047244094488189,
                    "duration": 0.07999999999998408
                },
                {
                    "name": "F#6",
                    "midi": 90,
                    "time": 294.38999999998407,
                    "velocity": 0.3543307086614173,
                    "duration": 0.1449999999999818
                },
                {
                    "name": "E6",
                    "midi": 88,
                    "time": 294.40749999998405,
                    "velocity": 0.2047244094488189,
                    "duration": 0.05750000000000455
                },
                {
                    "name": "A6",
                    "midi": 93,
                    "time": 294.52499999998406,
                    "velocity": 0.33070866141732286,
                    "duration": 0.03999999999996362
                },
                {
                    "name": "B6",
                    "midi": 95,
                    "time": 294.53499999998405,
                    "velocity": 0.3464566929133858,
                    "duration": 0.03999999999996362
                },
                {
                    "name": "G#4",
                    "midi": 68,
                    "time": 294.667499999984,
                    "velocity": 0.3464566929133858,
                    "duration": 0.3374999999999204
                },
                {
                    "name": "G#5",
                    "midi": 80,
                    "time": 294.672499999984,
                    "velocity": 0.3543307086614173,
                    "duration": 0.2924999999999045
                },
                {
                    "name": "B6",
                    "midi": 95,
                    "time": 294.674999999984,
                    "velocity": 0.3543307086614173,
                    "duration": 0.1099999999999568
                },
                {
                    "name": "A6",
                    "midi": 93,
                    "time": 294.714999999984,
                    "velocity": 0.3464566929133858,
                    "duration": 0.11999999999989086
                },
                {
                    "name": "F#6",
                    "midi": 90,
                    "time": 294.79249999998393,
                    "velocity": 0.2047244094488189,
                    "duration": 0.049999999999954525
                },
                {
                    "name": "B5",
                    "midi": 83,
                    "time": 294.9024999999839,
                    "velocity": 0.4566929133858268,
                    "duration": 0.040000000000020464
                },
                {
                    "name": "B5",
                    "midi": 83,
                    "time": 295.0224999999839,
                    "velocity": 0.33858267716535434,
                    "duration": 0.12000000000000455
                },
                {
                    "name": "A5",
                    "midi": 81,
                    "time": 295.0599999999839,
                    "velocity": 0.33070866141732286,
                    "duration": 0.0999999999999659
                },
                {
                    "name": "F#5",
                    "midi": 78,
                    "time": 295.1999999999839,
                    "velocity": 0.2992125984251969,
                    "duration": 0.01999999999998181
                },
                {
                    "name": "B4",
                    "midi": 71,
                    "time": 295.2824999999839,
                    "velocity": 0.15748031496062992,
                    "duration": 0.06749999999999545
                },
                {
                    "name": "A4",
                    "midi": 69,
                    "time": 295.2849999999839,
                    "velocity": 0.25984251968503935,
                    "duration": 0.04750000000001364
                },
                {
                    "name": "F#5",
                    "midi": 78,
                    "time": 295.43999999998385,
                    "velocity": 0.3937007874015748,
                    "duration": 0.31249999999982947
                },
                {
                    "name": "F#4",
                    "midi": 66,
                    "time": 295.46249999998383,
                    "velocity": 0.33070866141732286,
                    "duration": 0.32749999999987267
                },
                {
                    "name": "B4",
                    "midi": 71,
                    "time": 295.4749999999838,
                    "velocity": 0.13385826771653545,
                    "duration": 0.08749999999992042
                },
                {
                    "name": "A4",
                    "midi": 69,
                    "time": 295.4749999999838,
                    "velocity": 0.11811023622047244,
                    "duration": 0.08249999999992497
                },
                {
                    "name": "B5",
                    "midi": 83,
                    "time": 295.65499999998366,
                    "velocity": 0.3464566929133858,
                    "duration": 0.03750000000002274
                },
                {
                    "name": "B5",
                    "midi": 83,
                    "time": 295.8024999999837,
                    "velocity": 0.15748031496062992,
                    "duration": 0.08749999999997726
                },
                {
                    "name": "A5",
                    "midi": 81,
                    "time": 295.8149999999837,
                    "velocity": 0.2047244094488189,
                    "duration": 0.045000000000015916
                },
                {
                    "name": "F#6",
                    "midi": 90,
                    "time": 295.89249999998367,
                    "velocity": 0.3543307086614173,
                    "duration": 0.1349999999999909
                },
                {
                    "name": "B6",
                    "midi": 95,
                    "time": 296.04999999998364,
                    "velocity": 0.36220472440944884,
                    "duration": 0.04250000000001819
                },
                {
                    "name": "B6",
                    "midi": 95,
                    "time": 296.21499999998366,
                    "velocity": 0.25984251968503935,
                    "duration": 0.1099999999999568
                },
                {
                    "name": "C#4",
                    "midi": 61,
                    "time": 296.21999999998366,
                    "velocity": 0.3858267716535433,
                    "duration": 0.36749999999989313
                },
                {
                    "name": "C#5",
                    "midi": 73,
                    "time": 296.22749999998365,
                    "velocity": 0.3543307086614173,
                    "duration": 0.36999999999989086
                },
                {
                    "name": "A6",
                    "midi": 93,
                    "time": 296.23499999998364,
                    "velocity": 0.31496062992125984,
                    "duration": 0.12749999999994088
                },
                {
                    "name": "F#6",
                    "midi": 90,
                    "time": 296.28499999998365,
                    "velocity": 0.25984251968503935,
                    "duration": 0.11249999999995453
                },
                {
                    "name": "E6",
                    "midi": 88,
                    "time": 296.3974999999836,
                    "velocity": 0.2677165354330709,
                    "duration": 0.03999999999996362
                },
                {
                    "name": "B5",
                    "midi": 83,
                    "time": 296.45249999998356,
                    "velocity": 0.3700787401574803,
                    "duration": 0.040000000000020464
                },
                {
                    "name": "B5",
                    "midi": 83,
                    "time": 296.5599999999836,
                    "velocity": 0.3858267716535433,
                    "duration": 0.12000000000000455
                },
                {
                    "name": "A5",
                    "midi": 81,
                    "time": 296.58999999998355,
                    "velocity": 0.33858267716535434,
                    "duration": 0.10250000000002046
                },
                {
                    "name": "F#5",
                    "midi": 78,
                    "time": 296.63499999998356,
                    "velocity": 0.28346456692913385,
                    "duration": 0.10750000000001592
                },
                {
                    "name": "B4",
                    "midi": 71,
                    "time": 296.8049999999836,
                    "velocity": 0.25984251968503935,
                    "duration": 0.07749999999998636
                },
                {
                    "name": "A4",
                    "midi": 69,
                    "time": 296.81749999998357,
                    "velocity": 0.13385826771653545,
                    "duration": 0.045000000000015916
                },
                {
                    "name": "D#5",
                    "midi": 75,
                    "time": 296.9849999999836,
                    "velocity": 0.4409448818897638,
                    "duration": 0.33999999999991815
                },
                {
                    "name": "D#4",
                    "midi": 63,
                    "time": 296.9849999999836,
                    "velocity": 0.4645669291338583,
                    "duration": 0.3549999999999045
                },
                {
                    "name": "B4",
                    "midi": 71,
                    "time": 297.01249999998356,
                    "velocity": 0.1889763779527559,
                    "duration": 0.07749999999998636
                },
                {
                    "name": "A4",
                    "midi": 69,
                    "time": 297.01749999998356,
                    "velocity": 0.2677165354330709,
                    "duration": 0.05750000000000455
                },
                {
                    "name": "F#5",
                    "midi": 78,
                    "time": 297.10249999998354,
                    "velocity": 0.29133858267716534,
                    "duration": 0.09749999999996817
                },
                {
                    "name": "B5",
                    "midi": 83,
                    "time": 297.1924999999835,
                    "velocity": 0.2204724409448819,
                    "duration": 0.040000000000020464
                },
                {
                    "name": "B5",
                    "midi": 83,
                    "time": 297.3424999999835,
                    "velocity": 0.15748031496062992,
                    "duration": 0.08999999999997499
                },
                {
                    "name": "A5",
                    "midi": 81,
                    "time": 297.36499999998347,
                    "velocity": 0.10236220472440945,
                    "duration": 0.03500000000002501
                },
                {
                    "name": "F#6",
                    "midi": 90,
                    "time": 297.42749999998347,
                    "velocity": 0.2677165354330709,
                    "duration": 0.13249999999999318
                },
                {
                    "name": "B6",
                    "midi": 95,
                    "time": 297.5999999999835,
                    "velocity": 0.2047244094488189,
                    "duration": 0.032500000000027285
                },
                {
                    "name": "C#5",
                    "midi": 73,
                    "time": 297.7099999999835,
                    "velocity": 0.2283464566929134,
                    "duration": 0.30749999999989086
                },
                {
                    "name": "B6",
                    "midi": 95,
                    "time": 297.7124999999835,
                    "velocity": 0.33858267716535434,
                    "duration": 0.06749999999999545
                },
                {
                    "name": "C#4",
                    "midi": 61,
                    "time": 297.7249999999835,
                    "velocity": 0.2204724409448819,
                    "duration": 0.28749999999990905
                },
                {
                    "name": "A6",
                    "midi": 93,
                    "time": 297.7324999999835,
                    "velocity": 0.4645669291338583,
                    "duration": 0.04750000000001364
                },
                {
                    "name": "F#6",
                    "midi": 90,
                    "time": 297.82499999998345,
                    "velocity": 0.15748031496062992,
                    "duration": 0.0474999999999568
                },
                {
                    "name": "E6",
                    "midi": 88,
                    "time": 297.8849999999834,
                    "velocity": 0.1732283464566929,
                    "duration": 0.03249999999997044
                },
                {
                    "name": "B5",
                    "midi": 83,
                    "time": 297.92499999998336,
                    "velocity": 0.4566929133858268,
                    "duration": 0.03750000000002274
                },
                {
                    "name": "B5",
                    "midi": 83,
                    "time": 298.04249999998336,
                    "velocity": 0.2755905511811024,
                    "duration": 0.10500000000001819
                },
                {
                    "name": "A5",
                    "midi": 81,
                    "time": 298.05999999998335,
                    "velocity": 0.3464566929133858,
                    "duration": 0.10500000000001819
                },
                {
                    "name": "F#5",
                    "midi": 78,
                    "time": 298.09749999998337,
                    "velocity": 0.36220472440944884,
                    "duration": 0.10500000000001819
                },
                {
                    "name": "B4",
                    "midi": 71,
                    "time": 298.28499999998337,
                    "velocity": 0.36220472440944884,
                    "duration": 0.052500000000009095
                },
                {
                    "name": "A4",
                    "midi": 69,
                    "time": 298.28499999998337,
                    "velocity": 0.2283464566929134,
                    "duration": 0.045000000000015916
                },
                {
                    "name": "F#4",
                    "midi": 66,
                    "time": 298.4349999999834,
                    "velocity": 0.3937007874015748,
                    "duration": 0.21249999999986358
                },
                {
                    "name": "A4",
                    "midi": 69,
                    "time": 298.4549999999834,
                    "velocity": 0.25984251968503935,
                    "duration": 0.07249999999993406
                },
                {
                    "name": "B4",
                    "midi": 71,
                    "time": 298.4574999999834,
                    "velocity": 0.15748031496062992,
                    "duration": 0.09749999999991132
                },
                {
                    "name": "F#5",
                    "midi": 78,
                    "time": 298.4624999999834,
                    "velocity": 0.28346456692913385,
                    "duration": 0.17249999999989996
                },
                {
                    "name": "B5",
                    "midi": 83,
                    "time": 298.64999999998327,
                    "velocity": 0.11811023622047244,
                    "duration": 0.03500000000002501
                },
                {
                    "name": "D#4",
                    "midi": 63,
                    "time": 298.7599999999833,
                    "velocity": 0.33858267716535434,
                    "duration": 0.09499999999997044
                },
                {
                    "name": "D#5",
                    "midi": 75,
                    "time": 298.77749999998326,
                    "velocity": 0.28346456692913385,
                    "duration": 0.0625
                },
                {
                    "name": "B5",
                    "midi": 83,
                    "time": 298.8099999999833,
                    "velocity": 0.1732283464566929,
                    "duration": 0.07499999999993179
                },
                {
                    "name": "A5",
                    "midi": 81,
                    "time": 298.8149999999833,
                    "velocity": 0.2047244094488189,
                    "duration": 0.06999999999993634
                },
                {
                    "name": "F#6",
                    "midi": 90,
                    "time": 298.8974999999832,
                    "velocity": 0.29133858267716534,
                    "duration": 0.1349999999999909
                },
                {
                    "name": "B6",
                    "midi": 95,
                    "time": 299.0224999999832,
                    "velocity": 0.31496062992125984,
                    "duration": 0.04499999999995907
                },
                {
                    "name": "A6",
                    "midi": 93,
                    "time": 299.0399999999832,
                    "velocity": 0.11023622047244094,
                    "duration": 0.03499999999996817
                },
                {
                    "name": "C#4",
                    "midi": 61,
                    "time": 299.15749999998314,
                    "velocity": 0.5118110236220472,
                    "duration": 0.3549999999999045
                },
                {
                    "name": "C#5",
                    "midi": 73,
                    "time": 299.15999999998314,
                    "velocity": 0.41732283464566927,
                    "duration": 0.31999999999993634
                },
                {
                    "name": "A6",
                    "midi": 93,
                    "time": 299.1824999999831,
                    "velocity": 0.25984251968503935,
                    "duration": 0.12249999999994543
                },
                {
                    "name": "B6",
                    "midi": 95,
                    "time": 299.1849999999831,
                    "velocity": 0.16535433070866143,
                    "duration": 0.06999999999999318
                },
                {
                    "name": "F#6",
                    "midi": 90,
                    "time": 299.2649999999831,
                    "velocity": 0.28346456692913385,
                    "duration": 0.08999999999997499
                },
                {
                    "name": "B5",
                    "midi": 83,
                    "time": 299.39499999998304,
                    "velocity": 0.4330708661417323,
                    "duration": 0.040000000000020464
                },
                {
                    "name": "B5",
                    "midi": 83,
                    "time": 299.50999999998305,
                    "velocity": 0.25196850393700787,
                    "duration": 0.12749999999994088
                },
                {
                    "name": "A5",
                    "midi": 81,
                    "time": 299.539999999983,
                    "velocity": 0.3543307086614173,
                    "duration": 0.1199999999999477
                },
                {
                    "name": "F#5",
                    "midi": 78,
                    "time": 299.614999999983,
                    "velocity": 0.25984251968503935,
                    "duration": 0.08249999999998181
                },
                {
                    "name": "A4",
                    "midi": 69,
                    "time": 299.754999999983,
                    "velocity": 0.15748031496062992,
                    "duration": 0.05000000000001137
                },
                {
                    "name": "B4",
                    "midi": 71,
                    "time": 299.762499999983,
                    "velocity": 0.25196850393700787,
                    "duration": 0.04250000000001819
                },
                {
                    "name": "G#3",
                    "midi": 56,
                    "time": 299.99999999998295,
                    "velocity": 0.5354330708661418,
                    "duration": 0.2824999999999136
                },
                {
                    "name": "A4",
                    "midi": 69,
                    "time": 299.99999999998295,
                    "velocity": 0.3700787401574803,
                    "duration": 0.029999999999972715
                },
                {
                    "name": "B4",
                    "midi": 71,
                    "time": 299.99999999998295,
                    "velocity": 0.23622047244094488,
                    "duration": 0.04499999999995907
                },
                {
                    "name": "G#4",
                    "midi": 68,
                    "time": 299.99999999998295,
                    "velocity": 0.5039370078740157,
                    "duration": 0.2749999999999204
                },
                {
                    "name": "F#5",
                    "midi": 78,
                    "time": 300.0499999999829,
                    "velocity": 0.33070866141732286,
                    "duration": 0.09499999999997044
                },
                {
                    "name": "B5",
                    "midi": 83,
                    "time": 300.27749999998287,
                    "velocity": 0.15748031496062992,
                    "duration": 0.09750000000002501
                },
                {
                    "name": "A5",
                    "midi": 81,
                    "time": 300.28999999998285,
                    "velocity": 0.2677165354330709,
                    "duration": 0.04750000000001364
                },
                {
                    "name": "F#6",
                    "midi": 90,
                    "time": 300.4099999999829,
                    "velocity": 0.3779527559055118,
                    "duration": 0.10500000000001819
                },
                {
                    "name": "B6",
                    "midi": 95,
                    "time": 300.5299999999829,
                    "velocity": 0.23622047244094488,
                    "duration": 0.04250000000001819
                },
                {
                    "name": "G#4",
                    "midi": 68,
                    "time": 300.61499999998296,
                    "velocity": 0.47244094488188976,
                    "duration": 0.3899999999998158
                },
                {
                    "name": "G#3",
                    "midi": 56,
                    "time": 300.62499999998295,
                    "velocity": 0.5118110236220472,
                    "duration": 0.43749999999982947
                },
                {
                    "name": "B6",
                    "midi": 95,
                    "time": 300.6524999999829,
                    "velocity": 0.4094488188976378,
                    "duration": 0.11249999999995453
                },
                {
                    "name": "A6",
                    "midi": 93,
                    "time": 300.68499999998295,
                    "velocity": 0.3464566929133858,
                    "duration": 0.10999999999989996
                },
                {
                    "name": "F#6",
                    "midi": 90,
                    "time": 300.7574999999829,
                    "velocity": 0.2125984251968504,
                    "duration": 0.08999999999991815
                },
                {
                    "name": "E6",
                    "midi": 88,
                    "time": 300.8249999999828,
                    "velocity": 0.3228346456692913,
                    "duration": 0.03999999999996362
                },
                {
                    "name": "B5",
                    "midi": 83,
                    "time": 300.89249999998276,
                    "velocity": 0.4566929133858268,
                    "duration": 0.032500000000027285
                },
                {
                    "name": "A5",
                    "midi": 81,
                    "time": 301.02249999998276,
                    "velocity": 0.3543307086614173,
                    "duration": 0.12250000000000227
                },
                {
                    "name": "B5",
                    "midi": 83,
                    "time": 301.02249999998276,
                    "velocity": 0.15748031496062992,
                    "duration": 0.06499999999999773
                },
                {
                    "name": "F#5",
                    "midi": 78,
                    "time": 301.09749999998274,
                    "velocity": 0.2755905511811024,
                    "duration": 0.09750000000002501
                },
                {
                    "name": "A4",
                    "midi": 69,
                    "time": 301.22499999998274,
                    "velocity": 0.30708661417322836,
                    "duration": 0.05750000000000455
                },
                {
                    "name": "B4",
                    "midi": 71,
                    "time": 301.23249999998274,
                    "velocity": 0.3543307086614173,
                    "duration": 0.04250000000001819
                },
                {
                    "name": "B4",
                    "midi": 71,
                    "time": 301.39499999998276,
                    "velocity": 0.1889763779527559,
                    "duration": 0.14999999999997726
                },
                {
                    "name": "A4",
                    "midi": 69,
                    "time": 301.40249999998275,
                    "velocity": 0.3858267716535433,
                    "duration": 0.12749999999999773
                },
                {
                    "name": "F#4",
                    "midi": 66,
                    "time": 301.4424999999828,
                    "velocity": 0.31496062992125984,
                    "duration": 0.23499999999989996
                },
                {
                    "name": "F#3",
                    "midi": 54,
                    "time": 301.44499999998277,
                    "velocity": 0.29133858267716534,
                    "duration": 0.42999999999989313
                },
                {
                    "name": "F#5",
                    "midi": 78,
                    "time": 301.52249999998276,
                    "velocity": 0.3543307086614173,
                    "duration": 0.14249999999992724
                },
                {
                    "name": "B5",
                    "midi": 83,
                    "time": 301.6574999999827,
                    "velocity": 0.23622047244094488,
                    "duration": 0.042499999999961346
                },
                {
                    "name": "B5",
                    "midi": 83,
                    "time": 301.80999999998267,
                    "velocity": 0.1889763779527559,
                    "duration": 0.125
                },
                {
                    "name": "F#6",
                    "midi": 90,
                    "time": 301.9774999999827,
                    "velocity": 0.11811023622047244,
                    "duration": 0.27499999999997726
                },
                {
                    "name": "A6",
                    "midi": 93,
                    "time": 302.11749999998267,
                    "velocity": 0.2047244094488189,
                    "duration": 0.14749999999997954
                },
                {
                    "name": "B6",
                    "midi": 95,
                    "time": 302.13499999998265,
                    "velocity": 0.09448818897637795,
                    "duration": 0.11750000000000682
                },
                {
                    "name": "A2",
                    "midi": 45,
                    "time": 302.34499999998263,
                    "velocity": 0.5039370078740157,
                    "duration": 0.049999999999954525
                },
                {
                    "name": "E3",
                    "midi": 52,
                    "time": 302.3999999999826,
                    "velocity": 0.25984251968503935,
                    "duration": 0.0024999999999977263
                },
                {
                    "name": "E4",
                    "midi": 64,
                    "time": 302.7649999999826,
                    "velocity": 0.5196850393700787,
                    "duration": 0.40999999999996817
                },
                {
                    "name": "A6",
                    "midi": 93,
                    "time": 302.79499999998256,
                    "velocity": 0.4645669291338583,
                    "duration": 0.11750000000000682
                },
                {
                    "name": "G#3",
                    "midi": 56,
                    "time": 302.80499999998256,
                    "velocity": 0.33858267716535434,
                    "duration": 0.41250000000002274
                },
                {
                    "name": "C#4",
                    "midi": 61,
                    "time": 302.8374999999826,
                    "velocity": 0.11811023622047244,
                    "duration": 0.045000000000015916
                },
                {
                    "name": "A3",
                    "midi": 57,
                    "time": 302.8424999999826,
                    "velocity": 0.2047244094488189,
                    "duration": 0.07999999999998408
                },
                {
                    "name": "F#6",
                    "midi": 90,
                    "time": 302.92749999998256,
                    "velocity": 0.33070866141732286,
                    "duration": 0.12250000000000227
                },
                {
                    "name": "E6",
                    "midi": 88,
                    "time": 303.00749999998254,
                    "velocity": 0.25984251968503935,
                    "duration": 0.052500000000009095
                },
                {
                    "name": "A5",
                    "midi": 81,
                    "time": 303.17999999998256,
                    "velocity": 0.15748031496062992,
                    "duration": 0.03750000000002274
                },
                {
                    "name": "F#5",
                    "midi": 78,
                    "time": 303.2649999999826,
                    "velocity": 0.3779527559055118,
                    "duration": 0.1349999999999909
                },
                {
                    "name": "C#5",
                    "midi": 73,
                    "time": 303.4424999999826,
                    "velocity": 0.13385826771653545,
                    "duration": 0.045000000000015916
                },
                {
                    "name": "A4",
                    "midi": 69,
                    "time": 303.5124999999826,
                    "velocity": 0.3779527559055118,
                    "duration": 0.1150000000000091
                },
                {
                    "name": "F#4",
                    "midi": 66,
                    "time": 303.5524999999826,
                    "velocity": 0.3937007874015748,
                    "duration": 0.08499999999997954
                },
                {
                    "name": "C#5",
                    "midi": 73,
                    "time": 303.6299999999826,
                    "velocity": 0.23622047244094488,
                    "duration": 0.09499999999997044
                },
                {
                    "name": "E5",
                    "midi": 76,
                    "time": 303.7224999999826,
                    "velocity": 0.15748031496062992,
                    "duration": 0.040000000000020464
                },
                {
                    "name": "F#5",
                    "midi": 78,
                    "time": 303.7574999999826,
                    "velocity": 0.3228346456692913,
                    "duration": 0.0625
                },
                {
                    "name": "A5",
                    "midi": 81,
                    "time": 303.9024999999826,
                    "velocity": 0.47244094488188976,
                    "duration": 0.11250000000001137
                },
                {
                    "name": "E4",
                    "midi": 64,
                    "time": 303.9549999999826,
                    "velocity": 0.41732283464566927,
                    "duration": 0.3025000000000091
                },
                {
                    "name": "C#6",
                    "midi": 85,
                    "time": 304.0174999999826,
                    "velocity": 0.33858267716535434,
                    "duration": 0.10749999999995907
                },
                {
                    "name": "E6",
                    "midi": 88,
                    "time": 304.10749999998256,
                    "velocity": 0.3700787401574803,
                    "duration": 0.05750000000000455
                },
                {
                    "name": "F#6",
                    "midi": 90,
                    "time": 304.2199999999826,
                    "velocity": 0.25984251968503935,
                    "duration": 0.045000000000015916
                },
                {
                    "name": "C#4",
                    "midi": 61,
                    "time": 304.2749999999826,
                    "velocity": 0.5039370078740157,
                    "duration": 0.2924999999999045
                },
                {
                    "name": "F#3",
                    "midi": 54,
                    "time": 304.30499999998256,
                    "velocity": 0.47244094488188976,
                    "duration": 0.2849999999999113
                },
                {
                    "name": "A6",
                    "midi": 93,
                    "time": 304.30999999998255,
                    "velocity": 0.41732283464566927,
                    "duration": 0.07999999999998408
                },
                {
                    "name": "A3",
                    "midi": 57,
                    "time": 304.31999999998254,
                    "velocity": 0.3937007874015748,
                    "duration": 0.2249999999999659
                },
                {
                    "name": "F#6",
                    "midi": 90,
                    "time": 304.4149999999825,
                    "velocity": 0.3779527559055118,
                    "duration": 0.10250000000002046
                },
                {
                    "name": "A5",
                    "midi": 81,
                    "time": 304.6249999999825,
                    "velocity": 0.3858267716535433,
                    "duration": 0.045000000000015916
                },
                {
                    "name": "F#5",
                    "midi": 78,
                    "time": 304.7999999999825,
                    "velocity": 0.2992125984251969,
                    "duration": 0.045000000000015916
                },
                {
                    "name": "A2",
                    "midi": 45,
                    "time": 305.00249999998255,
                    "velocity": 0.33858267716535434,
                    "duration": 0.09499999999997044
                },
                {
                    "name": "A4",
                    "midi": 69,
                    "time": 305.01499999998254,
                    "velocity": 0.31496062992125984,
                    "duration": 0.10749999999995907
                },
                {
                    "name": "E3",
                    "midi": 52,
                    "time": 305.0274999999825,
                    "velocity": 0.1889763779527559,
                    "duration": 0.44749999999993406
                },
                {
                    "name": "C#5",
                    "midi": 73,
                    "time": 305.1124999999825,
                    "velocity": 0.16535433070866143,
                    "duration": 0.08499999999997954
                },
                {
                    "name": "E5",
                    "midi": 76,
                    "time": 305.1799999999825,
                    "velocity": 0.31496062992125984,
                    "duration": 0.03999999999996362
                },
                {
                    "name": "F#5",
                    "midi": 78,
                    "time": 305.22249999998246,
                    "velocity": 0.3464566929133858,
                    "duration": 0.04250000000001819
                },
                {
                    "name": "A5",
                    "midi": 81,
                    "time": 305.3349999999825,
                    "velocity": 0.44881889763779526,
                    "duration": 0.10250000000002046
                },
                {
                    "name": "C#6",
                    "midi": 85,
                    "time": 305.4549999999825,
                    "velocity": 0.2204724409448819,
                    "duration": 0.11249999999995453
                },
                {
                    "name": "E6",
                    "midi": 88,
                    "time": 305.53749999998246,
                    "velocity": 0.3937007874015748,
                    "duration": 0.057499999999947704
                },
                {
                    "name": "F#6",
                    "midi": 90,
                    "time": 305.6499999999824,
                    "velocity": 0.2047244094488189,
                    "duration": 0.08499999999997954
                },
                {
                    "name": "E4",
                    "midi": 64,
                    "time": 305.7199999999824,
                    "velocity": 0.5039370078740157,
                    "duration": 0.3224999999998772
                },
                {
                    "name": "G#3",
                    "midi": 56,
                    "time": 305.7374999999824,
                    "velocity": 0.4094488188976378,
                    "duration": 1.1375000000000455
                },
                {
                    "name": "A6",
                    "midi": 93,
                    "time": 305.7449999999824,
                    "velocity": 0.4881889763779528,
                    "duration": 0.12249999999994543
                },
                {
                    "name": "C#4",
                    "midi": 61,
                    "time": 305.77499999998236,
                    "velocity": 0.2755905511811024,
                    "duration": 0.5299999999999159
                },
                {
                    "name": "A3",
                    "midi": 57,
                    "time": 305.79499999998234,
                    "velocity": 0.1889763779527559,
                    "duration": 0.15999999999996817
                },
                {
                    "name": "F#6",
                    "midi": 90,
                    "time": 305.8699999999823,
                    "velocity": 0.33070866141732286,
                    "duration": 0.0999999999999659
                },
                {
                    "name": "C#6",
                    "midi": 85,
                    "time": 306.0199999999823,
                    "velocity": 0.2047244094488189,
                    "duration": 0.042499999999961346
                },
                {
                    "name": "A5",
                    "midi": 81,
                    "time": 306.0974999999823,
                    "velocity": 0.36220472440944884,
                    "duration": 0.04750000000001364
                },
                {
                    "name": "F#5",
                    "midi": 78,
                    "time": 306.2174999999823,
                    "velocity": 0.3700787401574803,
                    "duration": 0.14249999999998408
                },
                {
                    "name": "C#5",
                    "midi": 73,
                    "time": 306.4099999999823,
                    "velocity": 0.11023622047244094,
                    "duration": 0.045000000000015916
                },
                {
                    "name": "F#4",
                    "midi": 66,
                    "time": 306.4499999999823,
                    "velocity": 0.4645669291338583,
                    "duration": 0.10500000000001819
                },
                {
                    "name": "C#5",
                    "midi": 73,
                    "time": 306.59499999998235,
                    "velocity": 0.1968503937007874,
                    "duration": 0.09750000000002501
                },
                {
                    "name": "F#5",
                    "midi": 78,
                    "time": 306.7249999999824,
                    "velocity": 0.31496062992125984,
                    "duration": 0.03750000000002274
                },
                {
                    "name": "A5",
                    "midi": 81,
                    "time": 306.86499999998244,
                    "velocity": 0.29133858267716534,
                    "duration": 0.08999999999997499
                },
                {
                    "name": "E4",
                    "midi": 64,
                    "time": 306.8849999999824,
                    "velocity": 0.4881889763779528,
                    "duration": 0.30750000000000455
                },
                {
                    "name": "C#6",
                    "midi": 85,
                    "time": 306.9724999999824,
                    "velocity": 0.30708661417322836,
                    "duration": 0.10000000000002274
                },
                {
                    "name": "E6",
                    "midi": 88,
                    "time": 307.0824999999824,
                    "velocity": 0.3228346456692913,
                    "duration": 0.0625
                },
                {
                    "name": "C#4",
                    "midi": 61,
                    "time": 307.22999999998245,
                    "velocity": 0.5275590551181102,
                    "duration": 0.4249999999998977
                },
                {
                    "name": "F#3",
                    "midi": 54,
                    "time": 307.25249999998243,
                    "velocity": 0.48031496062992124,
                    "duration": 0.8299999999999272
                },
                {
                    "name": "A3",
                    "midi": 57,
                    "time": 307.2599999999824,
                    "velocity": 0.48031496062992124,
                    "duration": 0.7899999999999068
                },
                {
                    "name": "A6",
                    "midi": 93,
                    "time": 307.2674999999824,
                    "velocity": 0.3700787401574803,
                    "duration": 0.06749999999999545
                },
                {
                    "name": "F#6",
                    "midi": 90,
                    "time": 307.37499999998244,
                    "velocity": 0.25984251968503935,
                    "duration": 0.1099999999999568
                },
                {
                    "name": "C#6",
                    "midi": 85,
                    "time": 307.51499999998236,
                    "velocity": 0.25984251968503935,
                    "duration": 0.04750000000001364
                },
                {
                    "name": "A5",
                    "midi": 81,
                    "time": 307.63499999998237,
                    "velocity": 0.15748031496062992,
                    "duration": 0.03999999999996362
                },
                {
                    "name": "B3",
                    "midi": 59,
                    "time": 307.63499999998237,
                    "velocity": 0.5826771653543307,
                    "duration": 0.6149999999999523
                },
                {
                    "name": "F#5",
                    "midi": 78,
                    "time": 307.73499999998234,
                    "velocity": 0.3779527559055118,
                    "duration": 0.29000000000002046
                },
                {
                    "name": "C#4",
                    "midi": 61,
                    "time": 308.03499999998235,
                    "velocity": 0.5590551181102362,
                    "duration": 0.05500000000000682
                },
                {
                    "name": "A4",
                    "midi": 69,
                    "time": 308.03499999998235,
                    "velocity": 0.3937007874015748,
                    "duration": 0.12250000000000227
                },
                {
                    "name": "C#5",
                    "midi": 73,
                    "time": 308.1849999999823,
                    "velocity": 0.11023622047244094,
                    "duration": 0.08749999999997726
                },
                {
                    "name": "F#5",
                    "midi": 78,
                    "time": 308.3324999999823,
                    "velocity": 0.11023622047244094,
                    "duration": 0.032500000000027285
                },
                {
                    "name": "A2",
                    "midi": 45,
                    "time": 308.40999999998235,
                    "velocity": 0.48031496062992124,
                    "duration": 0.03499999999996817
                },
                {
                    "name": "E3",
                    "midi": 52,
                    "time": 308.41499999998234,
                    "velocity": 0.48031496062992124,
                    "duration": 0.037499999999965894
                },
                {
                    "name": "A5",
                    "midi": 81,
                    "time": 308.4949999999823,
                    "velocity": 0.08661417322834646,
                    "duration": 0.06749999999999545
                },
                {
                    "name": "C#6",
                    "midi": 85,
                    "time": 308.59999999998234,
                    "velocity": 0.10236220472440945,
                    "duration": 0.06999999999999318
                },
                {
                    "name": "E6",
                    "midi": 88,
                    "time": 308.6849999999823,
                    "velocity": 0.2204724409448819,
                    "duration": 0.0875000000000341
                },
                {
                    "name": "F#6",
                    "midi": 90,
                    "time": 308.73999999998233,
                    "velocity": 0.3543307086614173,
                    "duration": 0.0875000000000341
                },
                {
                    "name": "E4",
                    "midi": 64,
                    "time": 308.83249999998236,
                    "velocity": 0.5590551181102362,
                    "duration": 0.35499999999996135
                },
                {
                    "name": "C#4",
                    "midi": 61,
                    "time": 308.83499999998236,
                    "velocity": 0.4015748031496063,
                    "duration": 1.0949999999999704
                },
                {
                    "name": "A3",
                    "midi": 57,
                    "time": 308.83749999998236,
                    "velocity": 0.41732283464566927,
                    "duration": 0.7624999999999886
                },
                {
                    "name": "A6",
                    "midi": 93,
                    "time": 308.84499999998235,
                    "velocity": 0.47244094488188976,
                    "duration": 0.10249999999996362
                },
                {
                    "name": "G#3",
                    "midi": 56,
                    "time": 308.85999999998234,
                    "velocity": 0.3937007874015748,
                    "duration": 1.0600000000000023
                },
                {
                    "name": "F#6",
                    "midi": 90,
                    "time": 308.9424999999823,
                    "velocity": 0.33070866141732286,
                    "duration": 0.13249999999999318
                },
                {
                    "name": "C#6",
                    "midi": 85,
                    "time": 309.0999999999823,
                    "velocity": 0.3543307086614173,
                    "duration": 0.045000000000015916
                },
                {
                    "name": "A5",
                    "midi": 81,
                    "time": 309.2049999999823,
                    "velocity": 0.2283464566929134,
                    "duration": 0.045000000000015916
                },
                {
                    "name": "F#5",
                    "midi": 78,
                    "time": 309.3074999999823,
                    "velocity": 0.3543307086614173,
                    "duration": 0.06999999999999318
                },
                {
                    "name": "C#5",
                    "midi": 73,
                    "time": 309.47999999998234,
                    "velocity": 0.1732283464566929,
                    "duration": 0.05000000000001137
                },
                {
                    "name": "F#4",
                    "midi": 66,
                    "time": 309.59999999998234,
                    "velocity": 0.3858267716535433,
                    "duration": 0.23250000000001592
                },
                {
                    "name": "C#5",
                    "midi": 73,
                    "time": 309.6949999999824,
                    "velocity": 0.1732283464566929,
                    "duration": 0.09249999999997272
                },
                {
                    "name": "C#6",
                    "midi": 85,
                    "time": 310.0699999999823,
                    "velocity": 0.2677165354330709,
                    "duration": 0.08999999999997499
                },
                {
                    "name": "E6",
                    "midi": 88,
                    "time": 310.1724999999823,
                    "velocity": 0.3700787401574803,
                    "duration": 0.05500000000000682
                },
                {
                    "name": "F#6",
                    "midi": 90,
                    "time": 310.2949999999823,
                    "velocity": 0.3464566929133858,
                    "duration": 0.12499999999988631
                },
                {
                    "name": "F#3",
                    "midi": 54,
                    "time": 310.31249999998226,
                    "velocity": 0.4094488188976378,
                    "duration": 1.0499999999998408
                },
                {
                    "name": "E4",
                    "midi": 64,
                    "time": 310.31499999998226,
                    "velocity": 0.48031496062992124,
                    "duration": 0.724999999999909
                },
                {
                    "name": "A3",
                    "midi": 57,
                    "time": 310.32499999998225,
                    "velocity": 0.5118110236220472,
                    "duration": 1.0374999999998522
                },
                {
                    "name": "E6",
                    "midi": 88,
                    "time": 310.3949999999822,
                    "velocity": 0.3543307086614173,
                    "duration": 0.04499999999995907
                },
                {
                    "name": "C#6",
                    "midi": 85,
                    "time": 310.45999999998213,
                    "velocity": 0.33858267716535434,
                    "duration": 0.06499999999999773
                },
                {
                    "name": "A5",
                    "midi": 81,
                    "time": 310.55749999998216,
                    "velocity": 0.2440944881889764,
                    "duration": 0.05000000000001137
                },
                {
                    "name": "F#5",
                    "midi": 78,
                    "time": 310.6599999999822,
                    "velocity": 0.3858267716535433,
                    "duration": 0.10500000000001819
                },
                {
                    "name": "C#5",
                    "midi": 73,
                    "time": 310.8174999999822,
                    "velocity": 0.28346456692913385,
                    "duration": 0.07749999999998636
                },
                {
                    "name": "A4",
                    "midi": 69,
                    "time": 310.9399999999822,
                    "velocity": 0.33858267716535434,
                    "duration": 0.07499999999998863
                },
                {
                    "name": "C#4",
                    "midi": 61,
                    "time": 311.0249999999822,
                    "velocity": 0.47244094488188976,
                    "duration": 0.15999999999996817
                },
                {
                    "name": "F#4",
                    "midi": 66,
                    "time": 311.0249999999822,
                    "velocity": 0.44881889763779526,
                    "duration": 0.07999999999998408
                },
                {
                    "name": "A4",
                    "midi": 69,
                    "time": 311.16999999998217,
                    "velocity": 0.25196850393700787,
                    "duration": 0.09749999999996817
                },
                {
                    "name": "C#5",
                    "midi": 73,
                    "time": 311.27249999998213,
                    "velocity": 0.2992125984251969,
                    "duration": 0.13249999999993634
                },
                {
                    "name": "E5",
                    "midi": 76,
                    "time": 311.3849999999821,
                    "velocity": 0.30708661417322836,
                    "duration": 0.04499999999995907
                },
                {
                    "name": "F#5",
                    "midi": 78,
                    "time": 311.44499999998203,
                    "velocity": 0.3543307086614173,
                    "duration": 0.045000000000015916
                },
                {
                    "name": "A5",
                    "midi": 81,
                    "time": 311.577499999982,
                    "velocity": 0.4015748031496063,
                    "duration": 0.06749999999999545
                },
                {
                    "name": "C#6",
                    "midi": 85,
                    "time": 311.68499999998204,
                    "velocity": 0.3858267716535433,
                    "duration": 0.08499999999997954
                },
                {
                    "name": "G#2",
                    "midi": 44,
                    "time": 311.74499999998204,
                    "velocity": 0.5196850393700787,
                    "duration": 0.9249999999998408
                },
                {
                    "name": "E3",
                    "midi": 52,
                    "time": 311.759999999982,
                    "velocity": 0.44881889763779526,
                    "duration": 0.619999999999834
                },
                {
                    "name": "B3",
                    "midi": 59,
                    "time": 311.764999999982,
                    "velocity": 0.4330708661417323,
                    "duration": 0.8499999999998522
                },
                {
                    "name": "A3",
                    "midi": 57,
                    "time": 311.769999999982,
                    "velocity": 0.4566929133858268,
                    "duration": 0.8449999999998568
                },
                {
                    "name": "E6",
                    "midi": 88,
                    "time": 311.787499999982,
                    "velocity": 0.4881889763779528,
                    "duration": 0.09249999999997272
                },
                {
                    "name": "C#6",
                    "midi": 85,
                    "time": 311.88499999998197,
                    "velocity": 0.33858267716535434,
                    "duration": 0.042499999999961346
                },
                {
                    "name": "A5",
                    "midi": 81,
                    "time": 311.9999999999819,
                    "velocity": 0.33070866141732286,
                    "duration": 0.014999999999986358
                },
                {
                    "name": "F#5",
                    "midi": 78,
                    "time": 312.0849999999819,
                    "velocity": 0.36220472440944884,
                    "duration": 0.1099999999999568
                },
                {
                    "name": "E5",
                    "midi": 76,
                    "time": 312.1649999999819,
                    "velocity": 0.25984251968503935,
                    "duration": 0.057499999999947704
                },
                {
                    "name": "C#5",
                    "midi": 73,
                    "time": 312.2349999999818,
                    "velocity": 0.28346456692913385,
                    "duration": 0.060000000000002274
                },
                {
                    "name": "A4",
                    "midi": 69,
                    "time": 312.32749999998185,
                    "velocity": 0.3700787401574803,
                    "duration": 0.052500000000009095
                },
                {
                    "name": "F#4",
                    "midi": 66,
                    "time": 312.61999999998187,
                    "velocity": 0.3228346456692913,
                    "duration": 0.03500000000002501
                },
                {
                    "name": "A4",
                    "midi": 69,
                    "time": 312.7349999999819,
                    "velocity": 0.3858267716535433,
                    "duration": 0.11750000000000682
                },
                {
                    "name": "C#5",
                    "midi": 73,
                    "time": 312.8424999999819,
                    "velocity": 0.31496062992125984,
                    "duration": 0.11749999999994998
                },
                {
                    "name": "F#2",
                    "midi": 42,
                    "time": 312.87749999998186,
                    "velocity": 0.4330708661417323,
                    "duration": 0.11499999999995225
                },
                {
                    "name": "E3",
                    "midi": 52,
                    "time": 312.9849999999818,
                    "velocity": 0.15748031496062992,
                    "duration": 0.052500000000009095
                },
                {
                    "name": "A3",
                    "midi": 57,
                    "time": 313.0624999999818,
                    "velocity": 0.44881889763779526,
                    "duration": 0.4374999999998863
                },
                {
                    "name": "A5",
                    "midi": 81,
                    "time": 313.1724999999818,
                    "velocity": 0.36220472440944884,
                    "duration": 0.06499999999994088
                },
                {
                    "name": "C#4",
                    "midi": 61,
                    "time": 313.2224999999818,
                    "velocity": 0.5826771653543307,
                    "duration": 0.6224999999998886
                },
                {
                    "name": "F#5",
                    "midi": 78,
                    "time": 313.58999999998167,
                    "velocity": 0.30708661417322836,
                    "duration": 0.1349999999999909
                },
                {
                    "name": "E5",
                    "midi": 76,
                    "time": 313.7024999999817,
                    "velocity": 0.29133858267716534,
                    "duration": 0.08249999999998181
                },
                {
                    "name": "B4",
                    "midi": 71,
                    "time": 313.8999999999817,
                    "velocity": 0.2283464566929134,
                    "duration": 0.045000000000015916
                },
                {
                    "name": "F#4",
                    "midi": 66,
                    "time": 314.0199999999817,
                    "velocity": 0.36220472440944884,
                    "duration": 0.125
                },
                {
                    "name": "C#4",
                    "midi": 61,
                    "time": 314.2099999999817,
                    "velocity": 0.3779527559055118,
                    "duration": 0.12250000000000227
                },
                {
                    "name": "E4",
                    "midi": 64,
                    "time": 314.3999999999817,
                    "velocity": 0.23622047244094488,
                    "duration": 0.0024999999999977263
                },
                {
                    "name": "F#4",
                    "midi": 66,
                    "time": 314.42499999998165,
                    "velocity": 0.33858267716535434,
                    "duration": 0.040000000000020464
                },
                {
                    "name": "A4",
                    "midi": 69,
                    "time": 314.60499999998166,
                    "velocity": 0.11811023622047244,
                    "duration": 0.12000000000000455
                },
                {
                    "name": "C#5",
                    "midi": 73,
                    "time": 314.75249999998164,
                    "velocity": 0.1968503937007874,
                    "duration": 0.16999999999995907
                },
                {
                    "name": "E5",
                    "midi": 76,
                    "time": 314.8949999999816,
                    "velocity": 0.36220472440944884,
                    "duration": 0.14249999999998408
                },
                {
                    "name": "F#5",
                    "midi": 78,
                    "time": 315.0799999999816,
                    "velocity": 0.3464566929133858,
                    "duration": 0.08249999999998181
                },
                {
                    "name": "A5",
                    "midi": 81,
                    "time": 315.3074999999816,
                    "velocity": 0.2992125984251969,
                    "duration": 0.1150000000000091
                },
                {
                    "name": "E2",
                    "midi": 40,
                    "time": 315.6049999999816,
                    "velocity": 0.4881889763779528,
                    "duration": 0.08999999999997499
                },
                {
                    "name": "B2",
                    "midi": 47,
                    "time": 315.6049999999816,
                    "velocity": 0.4251968503937008,
                    "duration": 0.11499999999995225
                },
                {
                    "name": "C#5",
                    "midi": 73,
                    "time": 316.05499999998153,
                    "velocity": 0.36220472440944884,
                    "duration": 0.2650000000000432
                },
                {
                    "name": "C#4",
                    "midi": 61,
                    "time": 316.0599999999815,
                    "velocity": 0.41732283464566927,
                    "duration": 0.2825000000000273
                },
                {
                    "name": "B5",
                    "midi": 83,
                    "time": 316.10249999998155,
                    "velocity": 0.3228346456692913,
                    "duration": 0.10750000000001592
                },
                {
                    "name": "G#5",
                    "midi": 80,
                    "time": 316.2524999999816,
                    "velocity": 0.2204724409448819,
                    "duration": 0.12250000000000227
                },
                {
                    "name": "E5",
                    "midi": 76,
                    "time": 316.33999999998156,
                    "velocity": 0.16535433070866143,
                    "duration": 0.06499999999999773
                },
                {
                    "name": "C#5",
                    "midi": 73,
                    "time": 316.40249999998156,
                    "velocity": 0.2204724409448819,
                    "duration": 0.06999999999999318
                },
                {
                    "name": "B4",
                    "midi": 71,
                    "time": 316.52999999998156,
                    "velocity": 0.2204724409448819,
                    "duration": 0.052500000000009095
                },
                {
                    "name": "G#4",
                    "midi": 68,
                    "time": 316.6324999999816,
                    "velocity": 0.31496062992125984,
                    "duration": 0.12749999999999773
                },
                {
                    "name": "C#4",
                    "midi": 61,
                    "time": 316.82749999998157,
                    "velocity": 0.15748031496062992,
                    "duration": 0.04750000000001364
                },
                {
                    "name": "D#5",
                    "midi": 75,
                    "time": 316.89249999998157,
                    "velocity": 0.41732283464566927,
                    "duration": 0.12499999999994316
                },
                {
                    "name": "D#4",
                    "midi": 63,
                    "time": 316.91249999998155,
                    "velocity": 0.2755905511811024,
                    "duration": 0.13249999999993634
                },
                {
                    "name": "B3",
                    "midi": 59,
                    "time": 316.91749999998154,
                    "velocity": 0.2204724409448819,
                    "duration": 0.08749999999997726
                },
                {
                    "name": "C#4",
                    "midi": 61,
                    "time": 316.97999999998154,
                    "velocity": 0.2992125984251969,
                    "duration": 0.07499999999993179
                },
                {
                    "name": "B4",
                    "midi": 71,
                    "time": 317.25999999998146,
                    "velocity": 0.08661417322834646,
                    "duration": 0.07499999999998863
                },
                {
                    "name": "C#5",
                    "midi": 73,
                    "time": 317.32999999998145,
                    "velocity": 0.2204724409448819,
                    "duration": 0.10750000000001592
                },
                {
                    "name": "E5",
                    "midi": 76,
                    "time": 317.44749999998146,
                    "velocity": 0.16535433070866143,
                    "duration": 0.06999999999999318
                },
                {
                    "name": "G#5",
                    "midi": 80,
                    "time": 317.50499999998146,
                    "velocity": 0.2992125984251969,
                    "duration": 0.0999999999999659
                },
                {
                    "name": "G#4",
                    "midi": 68,
                    "time": 317.59999999998143,
                    "velocity": 0.3700787401574803,
                    "duration": 0.12749999999999773
                },
                {
                    "name": "G#3",
                    "midi": 56,
                    "time": 317.6199999999814,
                    "velocity": 0.2677165354330709,
                    "duration": 0.4549999999999841
                },
                {
                    "name": "B5",
                    "midi": 83,
                    "time": 317.6274999999814,
                    "velocity": 0.3937007874015748,
                    "duration": 0.11000000000001364
                },
                {
                    "name": "C#5",
                    "midi": 73,
                    "time": 317.8574999999814,
                    "velocity": 0.3543307086614173,
                    "duration": 0.05500000000000682
                },
                {
                    "name": "B4",
                    "midi": 71,
                    "time": 317.9374999999814,
                    "velocity": 0.3858267716535433,
                    "duration": 0.04750000000001364
                },
                {
                    "name": "G#4",
                    "midi": 68,
                    "time": 318.0599999999814,
                    "velocity": 0.3700787401574803,
                    "duration": 0.09499999999997044
                },
                {
                    "name": "B3",
                    "midi": 59,
                    "time": 318.3324999999814,
                    "velocity": 0.3858267716535433,
                    "duration": 0.11000000000001364
                },
                {
                    "name": "B4",
                    "midi": 71,
                    "time": 318.3724999999814,
                    "velocity": 0.4645669291338583,
                    "duration": 0.08249999999998181
                },
                {
                    "name": "D#4",
                    "midi": 63,
                    "time": 318.4724999999814,
                    "velocity": 0.2047244094488189,
                    "duration": 0.032500000000027285
                },
                {
                    "name": "G#4",
                    "midi": 68,
                    "time": 318.53749999998143,
                    "velocity": 0.2125984251968504,
                    "duration": 0.03750000000002274
                },
                {
                    "name": "B4",
                    "midi": 71,
                    "time": 318.65499999998144,
                    "velocity": 0.33070866141732286,
                    "duration": 0.10250000000002046
                },
                {
                    "name": "C#5",
                    "midi": 73,
                    "time": 318.76749999998145,
                    "velocity": 0.13385826771653545,
                    "duration": 0.10000000000002274
                },
                {
                    "name": "G#5",
                    "midi": 80,
                    "time": 318.9324999999815,
                    "velocity": 0.28346456692913385,
                    "duration": 0.11750000000000682
                },
                {
                    "name": "B5",
                    "midi": 83,
                    "time": 319.0849999999815,
                    "velocity": 0.36220472440944884,
                    "duration": 0.10500000000001819
                },
                {
                    "name": "C#5",
                    "midi": 73,
                    "time": 319.1999999999815,
                    "velocity": 0.33070866141732286,
                    "duration": 0.014999999999986358
                },
                {
                    "name": "C#4",
                    "midi": 61,
                    "time": 319.1999999999815,
                    "velocity": 0.3779527559055118,
                    "duration": 0.012499999999988631
                },
                {
                    "name": "G#5",
                    "midi": 80,
                    "time": 319.2149999999815,
                    "velocity": 0.23622047244094488,
                    "duration": 0.05750000000000455
                },
                {
                    "name": "C#5",
                    "midi": 73,
                    "time": 319.3449999999815,
                    "velocity": 0.16535433070866143,
                    "duration": 0.045000000000015916
                },
                {
                    "name": "B4",
                    "midi": 71,
                    "time": 319.4349999999815,
                    "velocity": 0.2677165354330709,
                    "duration": 0.05000000000001137
                },
                {
                    "name": "G#4",
                    "midi": 68,
                    "time": 319.54499999998154,
                    "velocity": 0.3464566929133858,
                    "duration": 0.1349999999999909
                },
                {
                    "name": "B3",
                    "midi": 59,
                    "time": 319.8099999999815,
                    "velocity": 0.2755905511811024,
                    "duration": 0.07499999999998863
                },
                {
                    "name": "D#4",
                    "midi": 63,
                    "time": 319.86499999998153,
                    "velocity": 0.3543307086614173,
                    "duration": 0.11499999999995225
                },
                {
                    "name": "D#5",
                    "midi": 75,
                    "time": 319.86499999998153,
                    "velocity": 0.3543307086614173,
                    "duration": 0.09749999999996817
                },
                {
                    "name": "G#4",
                    "midi": 68,
                    "time": 320.00499999998146,
                    "velocity": 0.30708661417322836,
                    "duration": 0.03500000000002501
                },
                {
                    "name": "B4",
                    "midi": 71,
                    "time": 320.13249999998146,
                    "velocity": 0.2992125984251969,
                    "duration": 0.09499999999997044
                },
                {
                    "name": "C#5",
                    "midi": 73,
                    "time": 320.21749999998144,
                    "velocity": 0.31496062992125984,
                    "duration": 0.08999999999997499
                },
                {
                    "name": "E5",
                    "midi": 76,
                    "time": 320.3299999999814,
                    "velocity": 0.2755905511811024,
                    "duration": 0.06999999999999318
                },
                {
                    "name": "G#5",
                    "midi": 80,
                    "time": 320.4024999999814,
                    "velocity": 0.1889763779527559,
                    "duration": 0.09249999999997272
                },
                {
                    "name": "G#4",
                    "midi": 68,
                    "time": 320.5299999999814,
                    "velocity": 0.4881889763779528,
                    "duration": 0.10749999999995907
                },
                {
                    "name": "B5",
                    "midi": 83,
                    "time": 320.5374999999814,
                    "velocity": 0.3228346456692913,
                    "duration": 0.08749999999997726
                },
                {
                    "name": "G#3",
                    "midi": 56,
                    "time": 320.5399999999814,
                    "velocity": 0.4566929133858268,
                    "duration": 0.08749999999997726
                },
                {
                    "name": "C#5",
                    "midi": 73,
                    "time": 320.76999999998134,
                    "velocity": 0.2992125984251969,
                    "duration": 0.04250000000001819
                },
                {
                    "name": "G#4",
                    "midi": 68,
                    "time": 320.9749999999814,
                    "velocity": 0.30708661417322836,
                    "duration": 0.2874999999999659
                },
                {
                    "name": "B3",
                    "midi": 59,
                    "time": 321.24999999998136,
                    "velocity": 0.3228346456692913,
                    "duration": 0.09000000000003183
                },
                {
                    "name": "B4",
                    "midi": 71,
                    "time": 321.30749999998136,
                    "velocity": 0.48031496062992124,
                    "duration": 0.08000000000004093
                },
                {
                    "name": "G#4",
                    "midi": 68,
                    "time": 321.4349999999814,
                    "velocity": 0.3543307086614173,
                    "duration": 0.03500000000002501
                },
                {
                    "name": "B4",
                    "midi": 71,
                    "time": 321.59999999998143,
                    "velocity": 0.3779527559055118,
                    "duration": 0.04250000000001819
                },
                {
                    "name": "C#5",
                    "midi": 73,
                    "time": 321.65249999998144,
                    "velocity": 0.25984251968503935,
                    "duration": 0.11250000000001137
                },
                {
                    "name": "G#5",
                    "midi": 80,
                    "time": 321.82749999998146,
                    "velocity": 0.33070866141732286,
                    "duration": 0.11000000000001364
                },
                {
                    "name": "C#5",
                    "midi": 73,
                    "time": 322.00249999998147,
                    "velocity": 0.4094488188976378,
                    "duration": 0.09499999999997044
                },
                {
                    "name": "B5",
                    "midi": 83,
                    "time": 322.00749999998146,
                    "velocity": 0.13385826771653545,
                    "duration": 0.06749999999999545
                },
                {
                    "name": "C#4",
                    "midi": 61,
                    "time": 322.01999999998145,
                    "velocity": 0.3464566929133858,
                    "duration": 0.07999999999998408
                },
                {
                    "name": "G#5",
                    "midi": 80,
                    "time": 322.09749999998144,
                    "velocity": 0.18110236220472442,
                    "duration": 0.07749999999998636
                },
                {
                    "name": "G#4",
                    "midi": 68,
                    "time": 322.4399999999814,
                    "velocity": 0.29133858267716534,
                    "duration": 0.08499999999997954
                },
                {
                    "name": "B3",
                    "midi": 59,
                    "time": 322.7249999999814,
                    "velocity": 0.23622047244094488,
                    "duration": 0.08749999999997726
                },
                {
                    "name": "D#5",
                    "midi": 75,
                    "time": 322.74499999998136,
                    "velocity": 0.33070866141732286,
                    "duration": 0.08999999999997499
                },
                {
                    "name": "D#4",
                    "midi": 63,
                    "time": 322.77249999998133,
                    "velocity": 0.29133858267716534,
                    "duration": 0.052500000000009095
                },
                {
                    "name": "C#4",
                    "midi": 61,
                    "time": 322.82499999998134,
                    "velocity": 0.13385826771653545,
                    "duration": 0.03999999999996362
                },
                {
                    "name": "G#4",
                    "midi": 68,
                    "time": 322.9349999999813,
                    "velocity": 0.1889763779527559,
                    "duration": 0.03500000000002501
                },
                {
                    "name": "B4",
                    "midi": 71,
                    "time": 323.02749999998133,
                    "velocity": 0.3937007874015748,
                    "duration": 0.0999999999999659
                },
                {
                    "name": "C#5",
                    "midi": 73,
                    "time": 323.1199999999813,
                    "velocity": 0.25984251968503935,
                    "duration": 0.12000000000000455
                },
                {
                    "name": "G#5",
                    "midi": 80,
                    "time": 323.2949999999813,
                    "velocity": 0.29133858267716534,
                    "duration": 0.12000000000000455
                },
                {
                    "name": "G#4",
                    "midi": 68,
                    "time": 323.39749999998133,
                    "velocity": 0.3700787401574803,
                    "duration": 0.10749999999995907
                },
                {
                    "name": "G#3",
                    "midi": 56,
                    "time": 323.4049999999813,
                    "velocity": 0.4094488188976378,
                    "duration": 0.08999999999997499
                },
                {
                    "name": "B5",
                    "midi": 83,
                    "time": 323.4349999999813,
                    "velocity": 0.3543307086614173,
                    "duration": 0.08499999999997954
                },
                {
                    "name": "G#5",
                    "midi": 80,
                    "time": 323.53999999998126,
                    "velocity": 0.1889763779527559,
                    "duration": 0.06999999999999318
                },
                {
                    "name": "E5",
                    "midi": 76,
                    "time": 323.59999999998126,
                    "velocity": 0.30708661417322836,
                    "duration": 0.04750000000001364
                },
                {
                    "name": "C#5",
                    "midi": 73,
                    "time": 323.66749999998126,
                    "velocity": 0.13385826771653545,
                    "duration": 0.05750000000000455
                },
                {
                    "name": "G#4",
                    "midi": 68,
                    "time": 323.84999999998126,
                    "velocity": 0.36220472440944884,
                    "duration": 0.12999999999999545
                },
                {
                    "name": "C#4",
                    "midi": 61,
                    "time": 324.04499999998126,
                    "velocity": 0.2755905511811024,
                    "duration": 0.04750000000001364
                },
                {
                    "name": "B3",
                    "midi": 59,
                    "time": 324.1424999999813,
                    "velocity": 0.30708661417322836,
                    "duration": 0.0724999999999909
                },
                {
                    "name": "B4",
                    "midi": 71,
                    "time": 324.1474999999813,
                    "velocity": 0.3543307086614173,
                    "duration": 0.05750000000000455
                },
                {
                    "name": "C#4",
                    "midi": 61,
                    "time": 324.22999999998126,
                    "velocity": 0.15748031496062992,
                    "duration": 0.040000000000020464
                },
                {
                    "name": "G#4",
                    "midi": 68,
                    "time": 324.3349999999813,
                    "velocity": 0.33070866141732286,
                    "duration": 0.032500000000027285
                },
                {
                    "name": "B4",
                    "midi": 71,
                    "time": 324.4349999999813,
                    "velocity": 0.4409448818897638,
                    "duration": 0.10000000000002274
                },
                {
                    "name": "C#5",
                    "midi": 73,
                    "time": 324.5449999999813,
                    "velocity": 0.18110236220472442,
                    "duration": 0.08999999999997499
                },
                {
                    "name": "E5",
                    "midi": 76,
                    "time": 324.66499999998126,
                    "velocity": 0.11811023622047244,
                    "duration": 0.05750000000000455
                },
                {
                    "name": "G#5",
                    "midi": 80,
                    "time": 324.7024999999813,
                    "velocity": 0.2125984251968504,
                    "duration": 0.09749999999996817
                },
                {
                    "name": "C#5",
                    "midi": 73,
                    "time": 324.81499999998124,
                    "velocity": 0.31496062992125984,
                    "duration": 0.08999999999997499
                },
                {
                    "name": "B5",
                    "midi": 83,
                    "time": 324.82499999998123,
                    "velocity": 0.36220472440944884,
                    "duration": 0.09749999999996817
                },
                {
                    "name": "C#4",
                    "midi": 61,
                    "time": 324.82499999998123,
                    "velocity": 0.30708661417322836,
                    "duration": 0.08499999999997954
                },
                {
                    "name": "G#5",
                    "midi": 80,
                    "time": 324.9349999999812,
                    "velocity": 0.31496062992125984,
                    "duration": 0.10000000000002274
                },
                {
                    "name": "E5",
                    "midi": 76,
                    "time": 324.9974999999812,
                    "velocity": 0.18110236220472442,
                    "duration": 0.05750000000000455
                },
                {
                    "name": "C#5",
                    "midi": 73,
                    "time": 325.0549999999812,
                    "velocity": 0.33070866141732286,
                    "duration": 0.05750000000000455
                },
                {
                    "name": "D#5",
                    "midi": 75,
                    "time": 325.5224999999812,
                    "velocity": 0.31496062992125984,
                    "duration": 0.08249999999998181
                },
                {
                    "name": "D#4",
                    "midi": 63,
                    "time": 325.5474999999812,
                    "velocity": 0.2440944881889764,
                    "duration": 0.045000000000015916
                },
                {
                    "name": "B3",
                    "midi": 59,
                    "time": 325.5524999999812,
                    "velocity": 0.3464566929133858,
                    "duration": 0.09000000000003183
                },
                {
                    "name": "G#4",
                    "midi": 68,
                    "time": 325.75499999998124,
                    "velocity": 0.30708661417322836,
                    "duration": 0.03500000000002501
                },
                {
                    "name": "B4",
                    "midi": 71,
                    "time": 325.86999999998125,
                    "velocity": 0.41732283464566927,
                    "duration": 0.09749999999996817
                },
                {
                    "name": "C#5",
                    "midi": 73,
                    "time": 325.9599999999812,
                    "velocity": 0.2992125984251969,
                    "duration": 0.11250000000001137
                },
                {
                    "name": "E5",
                    "midi": 76,
                    "time": 326.07499999998123,
                    "velocity": 0.33070866141732286,
                    "duration": 0.052500000000009095
                },
                {
                    "name": "G#5",
                    "midi": 80,
                    "time": 326.1399999999812,
                    "velocity": 0.30708661417322836,
                    "duration": 0.0999999999999659
                },
                {
                    "name": "G#4",
                    "midi": 68,
                    "time": 326.2199999999812,
                    "velocity": 0.33070866141732286,
                    "duration": 0.09749999999996817
                },
                {
                    "name": "G#3",
                    "midi": 56,
                    "time": 326.2524999999812,
                    "velocity": 0.2047244094488189,
                    "duration": 0.04250000000001819
                },
                {
                    "name": "B5",
                    "midi": 83,
                    "time": 326.2624999999812,
                    "velocity": 0.3700787401574803,
                    "duration": 0.09750000000002501
                },
                {
                    "name": "G#5",
                    "midi": 80,
                    "time": 326.3999999999812,
                    "velocity": 0.23622047244094488,
                    "duration": 0.040000000000020464
                },
                {
                    "name": "E5",
                    "midi": 76,
                    "time": 326.44749999998123,
                    "velocity": 0.13385826771653545,
                    "duration": 0.040000000000020464
                },
                {
                    "name": "C#5",
                    "midi": 73,
                    "time": 326.48999999998125,
                    "velocity": 0.33858267716535434,
                    "duration": 0.04250000000001819
                },
                {
                    "name": "B4",
                    "midi": 71,
                    "time": 326.5849999999813,
                    "velocity": 0.2283464566929134,
                    "duration": 0.04250000000001819
                },
                {
                    "name": "G#4",
                    "midi": 68,
                    "time": 326.6774999999813,
                    "velocity": 0.3937007874015748,
                    "duration": 0.125
                },
                {
                    "name": "C#4",
                    "midi": 61,
                    "time": 326.8674999999813,
                    "velocity": 0.36220472440944884,
                    "duration": 0.08749999999997726
                },
                {
                    "name": "B3",
                    "midi": 59,
                    "time": 326.9899999999813,
                    "velocity": 0.36220472440944884,
                    "duration": 0.09249999999997272
                },
                {
                    "name": "B4",
                    "midi": 71,
                    "time": 326.9924999999813,
                    "velocity": 0.33858267716535434,
                    "duration": 0.052500000000009095
                },
                {
                    "name": "C#4",
                    "midi": 61,
                    "time": 327.0674999999813,
                    "velocity": 0.18110236220472442,
                    "duration": 0.08999999999997499
                },
                {
                    "name": "E4",
                    "midi": 64,
                    "time": 327.15999999998127,
                    "velocity": 0.18110236220472442,
                    "duration": 0.03500000000002501
                },
                {
                    "name": "G#4",
                    "midi": 68,
                    "time": 327.22249999998127,
                    "velocity": 0.2677165354330709,
                    "duration": 0.03750000000002274
                },
                {
                    "name": "B4",
                    "midi": 71,
                    "time": 327.34249999998127,
                    "velocity": 0.3858267716535433,
                    "duration": 0.12000000000000455
                },
                {
                    "name": "C#5",
                    "midi": 73,
                    "time": 327.4424999999813,
                    "velocity": 0.18110236220472442,
                    "duration": 0.14999999999997726
                },
                {
                    "name": "E5",
                    "midi": 76,
                    "time": 327.5674999999813,
                    "velocity": 0.29133858267716534,
                    "duration": 0.10749999999995907
                },
                {
                    "name": "G#5",
                    "midi": 80,
                    "time": 327.68249999998125,
                    "velocity": 0.33070866141732286,
                    "duration": 0.1724999999999568
                },
                {
                    "name": "B2",
                    "midi": 47,
                    "time": 327.8574999999812,
                    "velocity": 0.4645669291338583,
                    "duration": 0.6050000000000182
                },
                {
                    "name": "E2",
                    "midi": 40,
                    "time": 327.8574999999812,
                    "velocity": 0.4645669291338583,
                    "duration": 0.6050000000000182
                },
                {
                    "name": "B5",
                    "midi": 83,
                    "time": 327.8799999999812,
                    "velocity": 0.41732283464566927,
                    "duration": 0.12999999999999545
                },
                {
                    "name": "G#5",
                    "midi": 80,
                    "time": 327.9999999999812,
                    "velocity": 0.33858267716535434,
                    "duration": 0.13249999999999318
                },
                {
                    "name": "E5",
                    "midi": 76,
                    "time": 328.1049999999812,
                    "velocity": 0.13385826771653545,
                    "duration": 0.0724999999999909
                },
                {
                    "name": "C#5",
                    "midi": 73,
                    "time": 328.1699999999812,
                    "velocity": 0.3543307086614173,
                    "duration": 0.05500000000000682
                },
                {
                    "name": "B4",
                    "midi": 71,
                    "time": 328.2699999999812,
                    "velocity": 0.25196850393700787,
                    "duration": 0.05500000000000682
                },
                {
                    "name": "G#4",
                    "midi": 68,
                    "time": 328.37249999998124,
                    "velocity": 0.41732283464566927,
                    "duration": 0.13749999999998863
                },
                {
                    "name": "C#4",
                    "midi": 61,
                    "time": 328.56999999998123,
                    "velocity": 0.2204724409448819,
                    "duration": 0.07499999999998863
                },
                {
                    "name": "B2",
                    "midi": 47,
                    "time": 328.6699999999812,
                    "velocity": 0.25984251968503935,
                    "duration": 0.11749999999994998
                },
                {
                    "name": "B3",
                    "midi": 59,
                    "time": 328.6774999999812,
                    "velocity": 0.2125984251968504,
                    "duration": 0.08249999999998181
                },
                {
                    "name": "C#3",
                    "midi": 49,
                    "time": 328.79999999998114,
                    "velocity": 0.44881889763779526,
                    "duration": 0.1349999999999909
                },
                {
                    "name": "E3",
                    "midi": 52,
                    "time": 328.8824999999811,
                    "velocity": 0.3700787401574803,
                    "duration": 0.09750000000002501
                },
                {
                    "name": "G#3",
                    "midi": 56,
                    "time": 328.96999999998116,
                    "velocity": 0.41732283464566927,
                    "duration": 0.06499999999999773
                },
                {
                    "name": "B3",
                    "midi": 59,
                    "time": 329.04499999998114,
                    "velocity": 0.2992125984251969,
                    "duration": 0.13999999999998636
                },
                {
                    "name": "C#4",
                    "midi": 61,
                    "time": 329.1349999999811,
                    "velocity": 0.28346456692913385,
                    "duration": 0.17000000000001592
                },
                {
                    "name": "E4",
                    "midi": 64,
                    "time": 329.2074999999811,
                    "velocity": 0.3228346456692913,
                    "duration": 0.11750000000000682
                },
                {
                    "name": "G#4",
                    "midi": 68,
                    "time": 329.3124999999811,
                    "velocity": 0.4251968503937008,
                    "duration": 0.08249999999998181
                },
                {
                    "name": "B3",
                    "midi": 59,
                    "time": 329.43499999998113,
                    "velocity": 0.3543307086614173,
                    "duration": 0.11000000000001364
                },
                {
                    "name": "C#4",
                    "midi": 61,
                    "time": 329.5099999999811,
                    "velocity": 0.4881889763779528,
                    "duration": 0.17250000000001364
                },
                {
                    "name": "E4",
                    "midi": 64,
                    "time": 329.6274999999811,
                    "velocity": 0.36220472440944884,
                    "duration": 0.0999999999999659
                },
                {
                    "name": "G#4",
                    "midi": 68,
                    "time": 329.7099999999811,
                    "velocity": 0.3700787401574803,
                    "duration": 0.0724999999999909
                },
                {
                    "name": "B4",
                    "midi": 71,
                    "time": 329.8174999999811,
                    "velocity": 0.4330708661417323,
                    "duration": 0.16749999999996135
                },
                {
                    "name": "C#5",
                    "midi": 73,
                    "time": 329.8999999999811,
                    "velocity": 0.3779527559055118,
                    "duration": 0.17999999999994998
                },
                {
                    "name": "E5",
                    "midi": 76,
                    "time": 330.01499999998106,
                    "velocity": 0.3228346456692913,
                    "duration": 0.08999999999997499
                },
                {
                    "name": "G#5",
                    "midi": 80,
                    "time": 330.124999999981,
                    "velocity": 0.2755905511811024,
                    "duration": 0.032500000000027285
                },
                {
                    "name": "B4",
                    "midi": 71,
                    "time": 330.25749999998106,
                    "velocity": 0.3937007874015748,
                    "duration": 0.13749999999998863
                },
                {
                    "name": "C#5",
                    "midi": 73,
                    "time": 330.3724999999811,
                    "velocity": 0.44881889763779526,
                    "duration": 0.23249999999995907
                },
                {
                    "name": "E5",
                    "midi": 76,
                    "time": 330.48249999998103,
                    "velocity": 0.3543307086614173,
                    "duration": 0.10250000000002046
                },
                {
                    "name": "G#5",
                    "midi": 80,
                    "time": 330.59249999998104,
                    "velocity": 0.3779527559055118,
                    "duration": 0.052500000000009095
                },
                {
                    "name": "E6",
                    "midi": 88,
                    "time": 330.7449999999811,
                    "velocity": 0.41732283464566927,
                    "duration": 0.12999999999999545
                },
                {
                    "name": "G#6",
                    "midi": 92,
                    "time": 330.8549999999811,
                    "velocity": 0.4330708661417323,
                    "duration": 0.1775000000000091
                },
                {
                    "name": "B6",
                    "midi": 95,
                    "time": 331.0324999999811,
                    "velocity": 0.5196850393700787,
                    "duration": 0.20999999999997954
                },
                {
                    "name": "C#7",
                    "midi": 97,
                    "time": 331.2249999999811,
                    "velocity": 0.5118110236220472,
                    "duration": 0.28249999999997044
                },
                {
                    "name": "B2",
                    "midi": 47,
                    "time": 331.51499999998106,
                    "velocity": 0.31496062992125984,
                    "duration": 0.23499999999989996
                },
                {
                    "name": "G#6",
                    "midi": 92,
                    "time": 331.52499999998105,
                    "velocity": 0.29133858267716534,
                    "duration": 0.2099999999999227
                },
                {
                    "name": "D#7",
                    "midi": 99,
                    "time": 331.52999999998104,
                    "velocity": 0.2992125984251969,
                    "duration": 0.22499999999990905
                },
                {
                    "name": "E2",
                    "midi": 40,
                    "time": 331.547499999981,
                    "velocity": 0.29133858267716534,
                    "duration": 0.21249999999992042
                },
                {
                    "name": "D#6",
                    "midi": 87,
                    "time": 331.634999999981,
                    "velocity": 0.023622047244094488,
                    "duration": 0.10499999999996135
                }
            ],
            "controlChanges": {
                "64": [
                    {
                        "number": 64,
                        "time": 0.5049999999999999,
                        "value": 0.1889763779527559
                    },
                    {
                        "number": 64,
                        "time": 0.5199999999999999,
                        "value": 0.31496062992125984
                    },
                    {
                        "number": 64,
                        "time": 0.5399999999999999,
                        "value": 0.4409448818897638
                    },
                    {
                        "number": 64,
                        "time": 0.5549999999999999,
                        "value": 0.5669291338582677
                    },
                    {
                        "number": 64,
                        "time": 0.57,
                        "value": 0.6929133858267716
                    },
                    {
                        "number": 64,
                        "time": 0.605,
                        "value": 0.8188976377952756
                    },
                    {
                        "number": 64,
                        "time": 0.62,
                        "value": 1
                    },
                    {
                        "number": 64,
                        "time": 1.645,
                        "value": 0.8188976377952756
                    },
                    {
                        "number": 64,
                        "time": 1.65,
                        "value": 0.6929133858267716
                    },
                    {
                        "number": 64,
                        "time": 1.6549999999999998,
                        "value": 0.5669291338582677
                    },
                    {
                        "number": 64,
                        "time": 1.6649999999999998,
                        "value": 0.4409448818897638
                    },
                    {
                        "number": 64,
                        "time": 1.6699999999999997,
                        "value": 0.31496062992125984
                    },
                    {
                        "number": 64,
                        "time": 1.6749999999999996,
                        "value": 0.1889763779527559
                    },
                    {
                        "number": 64,
                        "time": 1.6949999999999996,
                        "value": 0
                    },
                    {
                        "number": 64,
                        "time": 1.7399999999999995,
                        "value": 0.1889763779527559
                    },
                    {
                        "number": 64,
                        "time": 1.7449999999999994,
                        "value": 0.31496062992125984
                    },
                    {
                        "number": 64,
                        "time": 1.7549999999999994,
                        "value": 0.4409448818897638
                    },
                    {
                        "number": 64,
                        "time": 1.7599999999999993,
                        "value": 0.5669291338582677
                    },
                    {
                        "number": 64,
                        "time": 1.7649999999999992,
                        "value": 0.6929133858267716
                    },
                    {
                        "number": 64,
                        "time": 1.7699999999999991,
                        "value": 0.8188976377952756
                    },
                    {
                        "number": 64,
                        "time": 1.7799999999999991,
                        "value": 1
                    },
                    {
                        "number": 64,
                        "time": 2.112499999999999,
                        "value": 0.8188976377952756
                    },
                    {
                        "number": 64,
                        "time": 2.114999999999999,
                        "value": 0.6929133858267716
                    },
                    {
                        "number": 64,
                        "time": 2.1224999999999987,
                        "value": 0.5669291338582677
                    },
                    {
                        "number": 64,
                        "time": 2.1274999999999986,
                        "value": 0.31496062992125984
                    },
                    {
                        "number": 64,
                        "time": 2.1324999999999985,
                        "value": 0.1889763779527559
                    },
                    {
                        "number": 64,
                        "time": 2.1374999999999984,
                        "value": 0
                    },
                    {
                        "number": 64,
                        "time": 2.2249999999999983,
                        "value": 0.1889763779527559
                    },
                    {
                        "number": 64,
                        "time": 2.229999999999998,
                        "value": 0.31496062992125984
                    },
                    {
                        "number": 64,
                        "time": 2.234999999999998,
                        "value": 0.4409448818897638
                    },
                    {
                        "number": 64,
                        "time": 2.239999999999998,
                        "value": 0.5669291338582677
                    },
                    {
                        "number": 64,
                        "time": 2.244999999999998,
                        "value": 0.6929133858267716
                    },
                    {
                        "number": 64,
                        "time": 2.249999999999998,
                        "value": 0.8188976377952756
                    },
                    {
                        "number": 64,
                        "time": 2.2549999999999977,
                        "value": 1
                    },
                    {
                        "number": 64,
                        "time": 3.222499999999997,
                        "value": 0.8188976377952756
                    },
                    {
                        "number": 64,
                        "time": 3.227499999999997,
                        "value": 0.6929133858267716
                    },
                    {
                        "number": 64,
                        "time": 3.232499999999997,
                        "value": 0.5669291338582677
                    },
                    {
                        "number": 64,
                        "time": 3.2374999999999967,
                        "value": 0.4409448818897638
                    },
                    {
                        "number": 64,
                        "time": 3.2424999999999966,
                        "value": 0.31496062992125984
                    },
                    {
                        "number": 64,
                        "time": 3.2524999999999964,
                        "value": 0.1889763779527559
                    },
                    {
                        "number": 64,
                        "time": 3.2574999999999963,
                        "value": 0
                    },
                    {
                        "number": 64,
                        "time": 3.3224999999999962,
                        "value": 0.1889763779527559
                    },
                    {
                        "number": 64,
                        "time": 3.327499999999996,
                        "value": 0.31496062992125984
                    },
                    {
                        "number": 64,
                        "time": 3.337499999999996,
                        "value": 0.4409448818897638
                    },
                    {
                        "number": 64,
                        "time": 3.342499999999996,
                        "value": 0.5669291338582677
                    },
                    {
                        "number": 64,
                        "time": 3.357499999999996,
                        "value": 0.6929133858267716
                    },
                    {
                        "number": 64,
                        "time": 3.372499999999996,
                        "value": 1
                    },
                    {
                        "number": 64,
                        "time": 3.702499999999996,
                        "value": 0.8188976377952756
                    },
                    {
                        "number": 64,
                        "time": 3.707499999999996,
                        "value": 0.6929133858267716
                    },
                    {
                        "number": 64,
                        "time": 3.712499999999996,
                        "value": 0.5669291338582677
                    },
                    {
                        "number": 64,
                        "time": 3.717499999999996,
                        "value": 0.4409448818897638
                    },
                    {
                        "number": 64,
                        "time": 3.7274999999999956,
                        "value": 0.1889763779527559
                    },
                    {
                        "number": 64,
                        "time": 3.7324999999999955,
                        "value": 0
                    },
                    {
                        "number": 64,
                        "time": 3.8374999999999955,
                        "value": 0.1889763779527559
                    },
                    {
                        "number": 64,
                        "time": 3.8474999999999953,
                        "value": 0.31496062992125984
                    },
                    {
                        "number": 64,
                        "time": 3.852499999999995,
                        "value": 0.4409448818897638
                    },
                    {
                        "number": 64,
                        "time": 3.857499999999995,
                        "value": 0.5669291338582677
                    },
                    {
                        "number": 64,
                        "time": 3.862499999999995,
                        "value": 0.6929133858267716
                    },
                    {
                        "number": 64,
                        "time": 3.8724999999999947,
                        "value": 0.8188976377952756
                    },
                    {
                        "number": 64,
                        "time": 3.8799999999999946,
                        "value": 1
                    },
                    {
                        "number": 64,
                        "time": 4.464999999999995,
                        "value": 0.8188976377952756
                    },
                    {
                        "number": 64,
                        "time": 4.474999999999995,
                        "value": 0.6929133858267716
                    },
                    {
                        "number": 64,
                        "time": 4.477499999999996,
                        "value": 0.5669291338582677
                    },
                    {
                        "number": 64,
                        "time": 4.497499999999995,
                        "value": 0.4409448818897638
                    },
                    {
                        "number": 64,
                        "time": 4.534999999999996,
                        "value": 0.5669291338582677
                    },
                    {
                        "number": 64,
                        "time": 4.539999999999996,
                        "value": 0.6929133858267716
                    },
                    {
                        "number": 64,
                        "time": 4.554999999999995,
                        "value": 0.8188976377952756
                    },
                    {
                        "number": 64,
                        "time": 4.574999999999995,
                        "value": 1
                    },
                    {
                        "number": 64,
                        "time": 5.2049999999999965,
                        "value": 0.8188976377952756
                    },
                    {
                        "number": 64,
                        "time": 5.212499999999997,
                        "value": 0.6929133858267716
                    },
                    {
                        "number": 64,
                        "time": 5.214999999999997,
                        "value": 0.5669291338582677
                    },
                    {
                        "number": 64,
                        "time": 5.2224999999999975,
                        "value": 0.31496062992125984
                    },
                    {
                        "number": 64,
                        "time": 5.224999999999998,
                        "value": 0.1889763779527559
                    },
                    {
                        "number": 64,
                        "time": 5.232499999999998,
                        "value": 0
                    },
                    {
                        "number": 64,
                        "time": 5.344999999999999,
                        "value": 0.1889763779527559
                    },
                    {
                        "number": 64,
                        "time": 5.352499999999999,
                        "value": 0.31496062992125984
                    },
                    {
                        "number": 64,
                        "time": 5.3549999999999995,
                        "value": 0.4409448818897638
                    },
                    {
                        "number": 64,
                        "time": 5.3625,
                        "value": 0.5669291338582677
                    },
                    {
                        "number": 64,
                        "time": 5.365,
                        "value": 0.6929133858267716
                    },
                    {
                        "number": 64,
                        "time": 5.3725000000000005,
                        "value": 0.8188976377952756
                    },
                    {
                        "number": 64,
                        "time": 5.375000000000001,
                        "value": 1
                    },
                    {
                        "number": 64,
                        "time": 6.347500000000001,
                        "value": 0.8188976377952756
                    },
                    {
                        "number": 64,
                        "time": 6.355000000000001,
                        "value": 0.6929133858267716
                    },
                    {
                        "number": 64,
                        "time": 6.357500000000002,
                        "value": 0.5669291338582677
                    },
                    {
                        "number": 64,
                        "time": 6.365000000000002,
                        "value": 0.4409448818897638
                    },
                    {
                        "number": 64,
                        "time": 6.370000000000002,
                        "value": 0.31496062992125984
                    },
                    {
                        "number": 64,
                        "time": 6.375000000000002,
                        "value": 0.1889763779527559
                    },
                    {
                        "number": 64,
                        "time": 6.380000000000002,
                        "value": 0
                    },
                    {
                        "number": 64,
                        "time": 6.445000000000001,
                        "value": 0.1889763779527559
                    },
                    {
                        "number": 64,
                        "time": 6.450000000000001,
                        "value": 0.31496062992125984
                    },
                    {
                        "number": 64,
                        "time": 6.460000000000001,
                        "value": 0.4409448818897638
                    },
                    {
                        "number": 64,
                        "time": 6.465000000000001,
                        "value": 0.6929133858267716
                    },
                    {
                        "number": 64,
                        "time": 6.4750000000000005,
                        "value": 0.8188976377952756
                    },
                    {
                        "number": 64,
                        "time": 6.48,
                        "value": 1
                    },
                    {
                        "number": 64,
                        "time": 6.815000000000001,
                        "value": 0.8188976377952756
                    },
                    {
                        "number": 64,
                        "time": 6.820000000000001,
                        "value": 0.6929133858267716
                    },
                    {
                        "number": 64,
                        "time": 6.830000000000002,
                        "value": 0.4409448818897638
                    },
                    {
                        "number": 64,
                        "time": 6.835000000000002,
                        "value": 0
                    },
                    {
                        "number": 64,
                        "time": 6.915000000000002,
                        "value": 0.1889763779527559
                    },
                    {
                        "number": 64,
                        "time": 6.920000000000002,
                        "value": 0.31496062992125984
                    },
                    {
                        "number": 64,
                        "time": 6.927500000000002,
                        "value": 0.4409448818897638
                    },
                    {
                        "number": 64,
                        "time": 6.935000000000002,
                        "value": 0.5669291338582677
                    },
                    {
                        "number": 64,
                        "time": 6.940000000000002,
                        "value": 0.8188976377952756
                    },
                    {
                        "number": 64,
                        "time": 6.950000000000002,
                        "value": 1
                    },
                    {
                        "number": 64,
                        "time": 7.905000000000001,
                        "value": 0.8188976377952756
                    },
                    {
                        "number": 64,
                        "time": 7.910000000000001,
                        "value": 0.6929133858267716
                    },
                    {
                        "number": 64,
                        "time": 7.915000000000001,
                        "value": 0.5669291338582677
                    },
                    {
                        "number": 64,
                        "time": 7.920000000000001,
                        "value": 0.4409448818897638
                    },
                    {
                        "number": 64,
                        "time": 7.925000000000001,
                        "value": 0.1889763779527559
                    },
                    {
                        "number": 64,
                        "time": 7.9350000000000005,
                        "value": 0
                    },
                    {
                        "number": 64,
                        "time": 8.000000000000002,
                        "value": 0.1889763779527559
                    },
                    {
                        "number": 64,
                        "time": 8.005000000000003,
                        "value": 0.31496062992125984
                    },
                    {
                        "number": 64,
                        "time": 8.010000000000003,
                        "value": 0.4409448818897638
                    },
                    {
                        "number": 64,
                        "time": 8.020000000000003,
                        "value": 0.5669291338582677
                    },
                    {
                        "number": 64,
                        "time": 8.025000000000004,
                        "value": 0.6929133858267716
                    },
                    {
                        "number": 64,
                        "time": 8.030000000000005,
                        "value": 0.8188976377952756
                    },
                    {
                        "number": 64,
                        "time": 8.035000000000005,
                        "value": 1
                    },
                    {
                        "number": 64,
                        "time": 8.405000000000001,
                        "value": 0.6929133858267716
                    },
                    {
                        "number": 64,
                        "time": 8.410000000000002,
                        "value": 0.5669291338582677
                    },
                    {
                        "number": 64,
                        "time": 8.415000000000003,
                        "value": 0.4409448818897638
                    },
                    {
                        "number": 64,
                        "time": 8.420000000000003,
                        "value": 0.31496062992125984
                    },
                    {
                        "number": 64,
                        "time": 8.425000000000004,
                        "value": 0.1889763779527559
                    },
                    {
                        "number": 64,
                        "time": 8.430000000000005,
                        "value": 0
                    },
                    {
                        "number": 64,
                        "time": 8.495000000000005,
                        "value": 0.1889763779527559
                    },
                    {
                        "number": 64,
                        "time": 8.500000000000005,
                        "value": 0.31496062992125984
                    },
                    {
                        "number": 64,
                        "time": 8.505000000000006,
                        "value": 0.4409448818897638
                    },
                    {
                        "number": 64,
                        "time": 8.510000000000007,
                        "value": 0.5669291338582677
                    },
                    {
                        "number": 64,
                        "time": 8.515000000000008,
                        "value": 0.6929133858267716
                    },
                    {
                        "number": 64,
                        "time": 8.520000000000008,
                        "value": 0.8188976377952756
                    },
                    {
                        "number": 64,
                        "time": 8.525000000000007,
                        "value": 1
                    },
                    {
                        "number": 64,
                        "time": 9.142500000000009,
                        "value": 0.8188976377952756
                    },
                    {
                        "number": 64,
                        "time": 9.14750000000001,
                        "value": 0.5669291338582677
                    },
                    {
                        "number": 64,
                        "time": 9.15250000000001,
                        "value": 0.4409448818897638
                    },
                    {
                        "number": 64,
                        "time": 9.17250000000001,
                        "value": 0.31496062992125984
                    },
                    {
                        "number": 64,
                        "time": 9.205000000000009,
                        "value": 0.4409448818897638
                    },
                    {
                        "number": 64,
                        "time": 9.21000000000001,
                        "value": 0.5669291338582677
                    },
                    {
                        "number": 64,
                        "time": 9.22000000000001,
                        "value": 0.6929133858267716
                    },
                    {
                        "number": 64,
                        "time": 9.22500000000001,
                        "value": 0.8188976377952756
                    },
                    {
                        "number": 64,
                        "time": 9.230000000000011,
                        "value": 1
                    },
                    {
                        "number": 64,
                        "time": 9.465000000000012,
                        "value": 0.8188976377952756
                    },
                    {
                        "number": 64,
                        "time": 9.545000000000012,
                        "value": 1
                    },
                    {
                        "number": 64,
                        "time": 10.020000000000012,
                        "value": 0.8188976377952756
                    },
                    {
                        "number": 64,
                        "time": 10.025000000000013,
                        "value": 0.5669291338582677
                    },
                    {
                        "number": 64,
                        "time": 10.030000000000014,
                        "value": 0.4409448818897638
                    },
                    {
                        "number": 64,
                        "time": 10.035000000000014,
                        "value": 0.31496062992125984
                    },
                    {
                        "number": 64,
                        "time": 10.040000000000015,
                        "value": 0.1889763779527559
                    },
                    {
                        "number": 64,
                        "time": 10.047500000000015,
                        "value": 0
                    },
                    {
                        "number": 64,
                        "time": 10.105000000000015,
                        "value": 0.1889763779527559
                    },
                    {
                        "number": 64,
                        "time": 10.110000000000015,
                        "value": 0.31496062992125984
                    },
                    {
                        "number": 64,
                        "time": 10.115000000000016,
                        "value": 0.4409448818897638
                    },
                    {
                        "number": 64,
                        "time": 10.120000000000017,
                        "value": 0.5669291338582677
                    },
                    {
                        "number": 64,
                        "time": 10.125000000000018,
                        "value": 0.6929133858267716
                    },
                    {
                        "number": 64,
                        "time": 10.130000000000019,
                        "value": 0.8188976377952756
                    },
                    {
                        "number": 64,
                        "time": 10.13500000000002,
                        "value": 1
                    },
                    {
                        "number": 64,
                        "time": 10.395000000000021,
                        "value": 0.6929133858267716
                    },
                    {
                        "number": 64,
                        "time": 10.400000000000022,
                        "value": 0.5669291338582677
                    },
                    {
                        "number": 64,
                        "time": 10.405000000000022,
                        "value": 0.4409448818897638
                    },
                    {
                        "number": 64,
                        "time": 10.410000000000023,
                        "value": 0.31496062992125984
                    },
                    {
                        "number": 64,
                        "time": 10.415000000000024,
                        "value": 0.1889763779527559
                    },
                    {
                        "number": 64,
                        "time": 10.455000000000025,
                        "value": 0.31496062992125984
                    },
                    {
                        "number": 64,
                        "time": 10.460000000000026,
                        "value": 0.4409448818897638
                    },
                    {
                        "number": 64,
                        "time": 10.465000000000027,
                        "value": 0.5669291338582677
                    },
                    {
                        "number": 64,
                        "time": 10.467500000000026,
                        "value": 0.6929133858267716
                    },
                    {
                        "number": 64,
                        "time": 10.475000000000026,
                        "value": 0.8188976377952756
                    },
                    {
                        "number": 64,
                        "time": 10.477500000000026,
                        "value": 1
                    },
                    {
                        "number": 64,
                        "time": 10.815000000000024,
                        "value": 0.8188976377952756
                    },
                    {
                        "number": 64,
                        "time": 10.817500000000024,
                        "value": 0.5669291338582677
                    },
                    {
                        "number": 64,
                        "time": 10.825000000000024,
                        "value": 0.4409448818897638
                    },
                    {
                        "number": 64,
                        "time": 10.827500000000024,
                        "value": 0.1889763779527559
                    },
                    {
                        "number": 64,
                        "time": 10.835000000000024,
                        "value": 0
                    },
                    {
                        "number": 64,
                        "time": 10.902500000000023,
                        "value": 0.1889763779527559
                    },
                    {
                        "number": 64,
                        "time": 10.905000000000022,
                        "value": 0.31496062992125984
                    },
                    {
                        "number": 64,
                        "time": 10.910000000000023,
                        "value": 0.4409448818897638
                    },
                    {
                        "number": 64,
                        "time": 10.922500000000023,
                        "value": 0.5669291338582677
                    },
                    {
                        "number": 64,
                        "time": 10.925000000000022,
                        "value": 0.6929133858267716
                    },
                    {
                        "number": 64,
                        "time": 10.930000000000023,
                        "value": 0.8188976377952756
                    },
                    {
                        "number": 64,
                        "time": 10.935000000000024,
                        "value": 1
                    },
                    {
                        "number": 64,
                        "time": 11.252500000000023,
                        "value": 0.8188976377952756
                    },
                    {
                        "number": 64,
                        "time": 11.255000000000022,
                        "value": 0.6929133858267716
                    },
                    {
                        "number": 64,
                        "time": 11.260000000000023,
                        "value": 0.5669291338582677
                    },
                    {
                        "number": 64,
                        "time": 11.265000000000024,
                        "value": 0.4409448818897638
                    },
                    {
                        "number": 64,
                        "time": 11.272500000000024,
                        "value": 0.31496062992125984
                    },
                    {
                        "number": 64,
                        "time": 11.302500000000023,
                        "value": 0.5669291338582677
                    },
                    {
                        "number": 64,
                        "time": 11.305000000000023,
                        "value": 0.6929133858267716
                    },
                    {
                        "number": 64,
                        "time": 11.315000000000023,
                        "value": 0.8188976377952756
                    },
                    {
                        "number": 64,
                        "time": 11.322500000000023,
                        "value": 1
                    },
                    {
                        "number": 64,
                        "time": 11.670000000000023,
                        "value": 0.6929133858267716
                    },
                    {
                        "number": 64,
                        "time": 11.675000000000024,
                        "value": 0.4409448818897638
                    },
                    {
                        "number": 64,
                        "time": 11.677500000000023,
                        "value": 0.1889763779527559
                    },
                    {
                        "number": 64,
                        "time": 11.685000000000024,
                        "value": 0
                    },
                    {
                        "number": 64,
                        "time": 11.760000000000025,
                        "value": 0.1889763779527559
                    },
                    {
                        "number": 64,
                        "time": 11.765000000000025,
                        "value": 0.31496062992125984
                    },
                    {
                        "number": 64,
                        "time": 11.770000000000026,
                        "value": 0.5669291338582677
                    },
                    {
                        "number": 64,
                        "time": 11.775000000000027,
                        "value": 0.8188976377952756
                    },
                    {
                        "number": 64,
                        "time": 11.780000000000028,
                        "value": 1
                    },
                    {
                        "number": 64,
                        "time": 12.96000000000003,
                        "value": 0.8188976377952756
                    },
                    {
                        "number": 64,
                        "time": 12.96500000000003,
                        "value": 0.5669291338582677
                    },
                    {
                        "number": 64,
                        "time": 12.97000000000003,
                        "value": 0.4409448818897638
                    },
                    {
                        "number": 64,
                        "time": 12.975000000000032,
                        "value": 0.31496062992125984
                    },
                    {
                        "number": 64,
                        "time": 12.980000000000032,
                        "value": 0
                    },
                    {
                        "number": 64,
                        "time": 13.045000000000034,
                        "value": 0.1889763779527559
                    },
                    {
                        "number": 64,
                        "time": 13.052500000000034,
                        "value": 0.31496062992125984
                    },
                    {
                        "number": 64,
                        "time": 13.062500000000034,
                        "value": 0.4409448818897638
                    },
                    {
                        "number": 64,
                        "time": 13.067500000000035,
                        "value": 0.5669291338582677
                    },
                    {
                        "number": 64,
                        "time": 13.072500000000035,
                        "value": 0.6929133858267716
                    },
                    {
                        "number": 64,
                        "time": 13.077500000000036,
                        "value": 0.8188976377952756
                    },
                    {
                        "number": 64,
                        "time": 13.082500000000037,
                        "value": 1
                    },
                    {
                        "number": 64,
                        "time": 13.382500000000036,
                        "value": 0.6929133858267716
                    },
                    {
                        "number": 64,
                        "time": 13.387500000000037,
                        "value": 0.4409448818897638
                    },
                    {
                        "number": 64,
                        "time": 13.392500000000037,
                        "value": 0.1889763779527559
                    },
                    {
                        "number": 64,
                        "time": 13.397500000000038,
                        "value": 0
                    },
                    {
                        "number": 64,
                        "time": 13.46250000000004,
                        "value": 0.1889763779527559
                    },
                    {
                        "number": 64,
                        "time": 13.46750000000004,
                        "value": 0.4409448818897638
                    },
                    {
                        "number": 64,
                        "time": 13.472500000000041,
                        "value": 0.6929133858267716
                    },
                    {
                        "number": 64,
                        "time": 13.477500000000042,
                        "value": 1
                    },
                    {
                        "number": 64,
                        "time": 14.69250000000004,
                        "value": 0.6929133858267716
                    },
                    {
                        "number": 64,
                        "time": 14.69750000000004,
                        "value": 0.5669291338582677
                    },
                    {
                        "number": 64,
                        "time": 14.702500000000041,
                        "value": 0.31496062992125984
                    },
                    {
                        "number": 64,
                        "time": 14.707500000000042,
                        "value": 0.1889763779527559
                    },
                    {
                        "number": 64,
                        "time": 14.712500000000043,
                        "value": 0
                    },
                    {
                        "number": 64,
                        "time": 14.795000000000044,
                        "value": 0.1889763779527559
                    },
                    {
                        "number": 64,
                        "time": 14.800000000000045,
                        "value": 0.31496062992125984
                    },
                    {
                        "number": 64,
                        "time": 14.805000000000046,
                        "value": 0.4409448818897638
                    },
                    {
                        "number": 64,
                        "time": 14.810000000000047,
                        "value": 0.5669291338582677
                    },
                    {
                        "number": 64,
                        "time": 14.815000000000046,
                        "value": 0.6929133858267716
                    },
                    {
                        "number": 64,
                        "time": 14.820000000000045,
                        "value": 0.8188976377952756
                    },
                    {
                        "number": 64,
                        "time": 14.827500000000045,
                        "value": 1
                    },
                    {
                        "number": 64,
                        "time": 15.125000000000046,
                        "value": 0.8188976377952756
                    },
                    {
                        "number": 64,
                        "time": 15.130000000000047,
                        "value": 0.6929133858267716
                    },
                    {
                        "number": 64,
                        "time": 15.135000000000048,
                        "value": 0.4409448818897638
                    },
                    {
                        "number": 64,
                        "time": 15.140000000000049,
                        "value": 0.1889763779527559
                    },
                    {
                        "number": 64,
                        "time": 15.14500000000005,
                        "value": 0
                    },
                    {
                        "number": 64,
                        "time": 15.22500000000005,
                        "value": 0.1889763779527559
                    },
                    {
                        "number": 64,
                        "time": 15.23000000000005,
                        "value": 0.4409448818897638
                    },
                    {
                        "number": 64,
                        "time": 15.235000000000051,
                        "value": 0.5669291338582677
                    },
                    {
                        "number": 64,
                        "time": 15.240000000000052,
                        "value": 0.8188976377952756
                    },
                    {
                        "number": 64,
                        "time": 15.245000000000053,
                        "value": 1
                    },
                    {
                        "number": 64,
                        "time": 16.500000000000046,
                        "value": 0.8188976377952756
                    },
                    {
                        "number": 64,
                        "time": 16.505000000000045,
                        "value": 0.6929133858267716
                    },
                    {
                        "number": 64,
                        "time": 16.510000000000044,
                        "value": 0.4409448818897638
                    },
                    {
                        "number": 64,
                        "time": 16.515000000000047,
                        "value": 0.1889763779527559
                    },
                    {
                        "number": 64,
                        "time": 16.520000000000046,
                        "value": 0
                    },
                    {
                        "number": 64,
                        "time": 16.620000000000047,
                        "value": 0.1889763779527559
                    },
                    {
                        "number": 64,
                        "time": 16.625000000000046,
                        "value": 0.31496062992125984
                    },
                    {
                        "number": 64,
                        "time": 16.630000000000045,
                        "value": 0.4409448818897638
                    },
                    {
                        "number": 64,
                        "time": 16.635000000000044,
                        "value": 0.5669291338582677
                    },
                    {
                        "number": 64,
                        "time": 16.640000000000043,
                        "value": 0.6929133858267716
                    },
                    {
                        "number": 64,
                        "time": 16.645000000000042,
                        "value": 0.8188976377952756
                    },
                    {
                        "number": 64,
                        "time": 16.65000000000004,
                        "value": 1
                    },
                    {
                        "number": 64,
                        "time": 17.342500000000044,
                        "value": 0.6929133858267716
                    },
                    {
                        "number": 64,
                        "time": 17.345000000000045,
                        "value": 0.4409448818897638
                    },
                    {
                        "number": 64,
                        "time": 17.352500000000045,
                        "value": 0.31496062992125984
                    },
                    {
                        "number": 64,
                        "time": 17.355000000000047,
                        "value": 0
                    },
                    {
                        "number": 64,
                        "time": 17.432500000000047,
                        "value": 0.1889763779527559
                    },
                    {
                        "number": 64,
                        "time": 17.43500000000005,
                        "value": 0.31496062992125984
                    },
                    {
                        "number": 64,
                        "time": 17.44250000000005,
                        "value": 0.4409448818897638
                    },
                    {
                        "number": 64,
                        "time": 17.44500000000005,
                        "value": 0.5669291338582677
                    },
                    {
                        "number": 64,
                        "time": 17.45250000000005,
                        "value": 0.6929133858267716
                    },
                    {
                        "number": 64,
                        "time": 17.45500000000005,
                        "value": 0.8188976377952756
                    },
                    {
                        "number": 64,
                        "time": 17.462500000000052,
                        "value": 1
                    },
                    {
                        "number": 64,
                        "time": 17.775000000000052,
                        "value": 0.8188976377952756
                    },
                    {
                        "number": 64,
                        "time": 17.782500000000052,
                        "value": 0.5669291338582677
                    },
                    {
                        "number": 64,
                        "time": 17.785000000000053,
                        "value": 0.4409448818897638
                    },
                    {
                        "number": 64,
                        "time": 17.792500000000054,
                        "value": 0.1889763779527559
                    },
                    {
                        "number": 64,
                        "time": 17.795000000000055,
                        "value": 0
                    },
                    {
                        "number": 64,
                        "time": 17.84750000000006,
                        "value": 0.1889763779527559
                    },
                    {
                        "number": 64,
                        "time": 17.85500000000006,
                        "value": 0.31496062992125984
                    },
                    {
                        "number": 64,
                        "time": 17.857500000000062,
                        "value": 0.4409448818897638
                    },
                    {
                        "number": 64,
                        "time": 17.865000000000062,
                        "value": 0.5669291338582677
                    },
                    {
                        "number": 64,
                        "time": 17.867500000000064,
                        "value": 0.6929133858267716
                    },
                    {
                        "number": 64,
                        "time": 17.875000000000064,
                        "value": 0.8188976377952756
                    },
                    {
                        "number": 64,
                        "time": 17.880000000000063,
                        "value": 1
                    },
                    {
                        "number": 64,
                        "time": 18.27500000000007,
                        "value": 0.8188976377952756
                    },
                    {
                        "number": 64,
                        "time": 18.28250000000007,
                        "value": 0.5669291338582677
                    },
                    {
                        "number": 64,
                        "time": 18.28750000000007,
                        "value": 0.31496062992125984
                    },
                    {
                        "number": 64,
                        "time": 18.292500000000068,
                        "value": 0.1889763779527559
                    },
                    {
                        "number": 64,
                        "time": 18.29500000000007,
                        "value": 0
                    },
                    {
                        "number": 64,
                        "time": 18.34250000000007,
                        "value": 0.1889763779527559
                    },
                    {
                        "number": 64,
                        "time": 18.347500000000068,
                        "value": 0.31496062992125984
                    },
                    {
                        "number": 64,
                        "time": 18.352500000000067,
                        "value": 0.4409448818897638
                    },
                    {
                        "number": 64,
                        "time": 18.355000000000068,
                        "value": 0.5669291338582677
                    },
                    {
                        "number": 64,
                        "time": 18.362500000000068,
                        "value": 0.6929133858267716
                    },
                    {
                        "number": 64,
                        "time": 18.36500000000007,
                        "value": 0.8188976377952756
                    },
                    {
                        "number": 64,
                        "time": 18.37250000000007,
                        "value": 1
                    },
                    {
                        "number": 64,
                        "time": 19.222500000000064,
                        "value": 0.6929133858267716
                    },
                    {
                        "number": 64,
                        "time": 19.227500000000063,
                        "value": 0.4409448818897638
                    },
                    {
                        "number": 64,
                        "time": 19.232500000000062,
                        "value": 0.1889763779527559
                    },
                    {
                        "number": 64,
                        "time": 19.23750000000006,
                        "value": 0
                    },
                    {
                        "number": 64,
                        "time": 19.33250000000006,
                        "value": 0.1889763779527559
                    },
                    {
                        "number": 64,
                        "time": 19.33750000000006,
                        "value": 0.4409448818897638
                    },
                    {
                        "number": 64,
                        "time": 19.342500000000058,
                        "value": 0.5669291338582677
                    },
                    {
                        "number": 64,
                        "time": 19.347500000000057,
                        "value": 0.8188976377952756
                    },
                    {
                        "number": 64,
                        "time": 19.352500000000056,
                        "value": 1
                    },
                    {
                        "number": 64,
                        "time": 20.657500000000056,
                        "value": 0.8188976377952756
                    },
                    {
                        "number": 64,
                        "time": 20.662500000000055,
                        "value": 0.6929133858267716
                    },
                    {
                        "number": 64,
                        "time": 20.667500000000054,
                        "value": 0.5669291338582677
                    },
                    {
                        "number": 64,
                        "time": 20.672500000000053,
                        "value": 0.31496062992125984
                    },
                    {
                        "number": 64,
                        "time": 20.67750000000005,
                        "value": 0.1889763779527559
                    },
                    {
                        "number": 64,
                        "time": 20.687500000000053,
                        "value": 0
                    },
                    {
                        "number": 64,
                        "time": 20.722500000000053,
                        "value": 0.1889763779527559
                    },
                    {
                        "number": 64,
                        "time": 20.732500000000055,
                        "value": 0.31496062992125984
                    },
                    {
                        "number": 64,
                        "time": 20.742500000000057,
                        "value": 0.4409448818897638
                    },
                    {
                        "number": 64,
                        "time": 20.74750000000006,
                        "value": 0.5669291338582677
                    },
                    {
                        "number": 64,
                        "time": 20.75500000000006,
                        "value": 0.6929133858267716
                    },
                    {
                        "number": 64,
                        "time": 20.75750000000006,
                        "value": 0.8188976377952756
                    },
                    {
                        "number": 64,
                        "time": 20.767500000000062,
                        "value": 1
                    },
                    {
                        "number": 64,
                        "time": 21.10750000000007,
                        "value": 0.6929133858267716
                    },
                    {
                        "number": 64,
                        "time": 21.112500000000068,
                        "value": 0.4409448818897638
                    },
                    {
                        "number": 64,
                        "time": 21.117500000000067,
                        "value": 0.31496062992125984
                    },
                    {
                        "number": 64,
                        "time": 21.12250000000007,
                        "value": 0
                    },
                    {
                        "number": 64,
                        "time": 21.202500000000068,
                        "value": 0.1889763779527559
                    },
                    {
                        "number": 64,
                        "time": 21.207500000000067,
                        "value": 0.31496062992125984
                    },
                    {
                        "number": 64,
                        "time": 21.212500000000066,
                        "value": 0.5669291338582677
                    },
                    {
                        "number": 64,
                        "time": 21.217500000000065,
                        "value": 0.6929133858267716
                    },
                    {
                        "number": 64,
                        "time": 21.222500000000064,
                        "value": 1
                    },
                    {
                        "number": 64,
                        "time": 22.310000000000063,
                        "value": 0.8188976377952756
                    },
                    {
                        "number": 64,
                        "time": 22.315000000000065,
                        "value": 0.6929133858267716
                    },
                    {
                        "number": 64,
                        "time": 22.320000000000064,
                        "value": 0.4409448818897638
                    },
                    {
                        "number": 64,
                        "time": 22.325000000000063,
                        "value": 0.31496062992125984
                    },
                    {
                        "number": 64,
                        "time": 22.330000000000062,
                        "value": 0.1889763779527559
                    },
                    {
                        "number": 64,
                        "time": 22.33500000000006,
                        "value": 0
                    },
                    {
                        "number": 64,
                        "time": 22.39000000000006,
                        "value": 0.1889763779527559
                    },
                    {
                        "number": 64,
                        "time": 22.40000000000006,
                        "value": 0.31496062992125984
                    },
                    {
                        "number": 64,
                        "time": 22.405000000000058,
                        "value": 0.4409448818897638
                    },
                    {
                        "number": 64,
                        "time": 22.41500000000006,
                        "value": 0.5669291338582677
                    },
                    {
                        "number": 64,
                        "time": 22.42000000000006,
                        "value": 0.6929133858267716
                    },
                    {
                        "number": 64,
                        "time": 22.425000000000058,
                        "value": 0.8188976377952756
                    },
                    {
                        "number": 64,
                        "time": 22.430000000000057,
                        "value": 1
                    },
                    {
                        "number": 64,
                        "time": 22.775000000000052,
                        "value": 0.8188976377952756
                    },
                    {
                        "number": 64,
                        "time": 22.782500000000052,
                        "value": 0.5669291338582677
                    },
                    {
                        "number": 64,
                        "time": 22.785000000000053,
                        "value": 0.31496062992125984
                    },
                    {
                        "number": 64,
                        "time": 22.792500000000054,
                        "value": 0.1889763779527559
                    },
                    {
                        "number": 64,
                        "time": 22.797500000000056,
                        "value": 0
                    },
                    {
                        "number": 64,
                        "time": 22.877500000000055,
                        "value": 0.1889763779527559
                    },
                    {
                        "number": 64,
                        "time": 22.885000000000055,
                        "value": 0.31496062992125984
                    },
                    {
                        "number": 64,
                        "time": 22.887500000000056,
                        "value": 0.4409448818897638
                    },
                    {
                        "number": 64,
                        "time": 22.895000000000056,
                        "value": 0.6929133858267716
                    },
                    {
                        "number": 64,
                        "time": 22.897500000000058,
                        "value": 1
                    },
                    {
                        "number": 64,
                        "time": 23.54500000000006,
                        "value": 0.8188976377952756
                    },
                    {
                        "number": 64,
                        "time": 23.550000000000058,
                        "value": 0.6929133858267716
                    },
                    {
                        "number": 64,
                        "time": 23.555000000000057,
                        "value": 0.5669291338582677
                    },
                    {
                        "number": 64,
                        "time": 23.560000000000056,
                        "value": 0.4409448818897638
                    },
                    {
                        "number": 64,
                        "time": 23.565000000000055,
                        "value": 0.31496062992125984
                    },
                    {
                        "number": 64,
                        "time": 23.567500000000056,
                        "value": 0.1889763779527559
                    },
                    {
                        "number": 64,
                        "time": 23.607500000000055,
                        "value": 0.31496062992125984
                    },
                    {
                        "number": 64,
                        "time": 23.615000000000055,
                        "value": 0.4409448818897638
                    },
                    {
                        "number": 64,
                        "time": 23.617500000000057,
                        "value": 0.5669291338582677
                    },
                    {
                        "number": 64,
                        "time": 23.625000000000057,
                        "value": 0.6929133858267716
                    },
                    {
                        "number": 64,
                        "time": 23.627500000000058,
                        "value": 0.8188976377952756
                    },
                    {
                        "number": 64,
                        "time": 23.63500000000006,
                        "value": 1
                    },
                    {
                        "number": 64,
                        "time": 23.98750000000006,
                        "value": 0.8188976377952756
                    },
                    {
                        "number": 64,
                        "time": 23.99500000000006,
                        "value": 0.6929133858267716
                    },
                    {
                        "number": 64,
                        "time": 24.00000000000006,
                        "value": 0.5669291338582677
                    },
                    {
                        "number": 64,
                        "time": 24.00500000000006,
                        "value": 0.4409448818897638
                    },
                    {
                        "number": 64,
                        "time": 24.00750000000006,
                        "value": 0.31496062992125984
                    },
                    {
                        "number": 64,
                        "time": 24.01500000000006,
                        "value": 0.1889763779527559
                    },
                    {
                        "number": 64,
                        "time": 24.045000000000062,
                        "value": 0.4409448818897638
                    },
                    {
                        "number": 64,
                        "time": 24.052500000000062,
                        "value": 0.5669291338582677
                    },
                    {
                        "number": 64,
                        "time": 24.062500000000064,
                        "value": 0.6929133858267716
                    },
                    {
                        "number": 64,
                        "time": 24.065000000000065,
                        "value": 0.8188976377952756
                    },
                    {
                        "number": 64,
                        "time": 24.072500000000066,
                        "value": 1
                    },
                    {
                        "number": 64,
                        "time": 24.365000000000062,
                        "value": 0.8188976377952756
                    },
                    {
                        "number": 64,
                        "time": 24.372500000000063,
                        "value": 0.5669291338582677
                    },
                    {
                        "number": 64,
                        "time": 24.375000000000064,
                        "value": 0.4409448818897638
                    },
                    {
                        "number": 64,
                        "time": 24.382500000000064,
                        "value": 0.1889763779527559
                    },
                    {
                        "number": 64,
                        "time": 24.387500000000063,
                        "value": 0
                    },
                    {
                        "number": 64,
                        "time": 24.45750000000006,
                        "value": 0.31496062992125984
                    },
                    {
                        "number": 64,
                        "time": 24.46250000000006,
                        "value": 0.4409448818897638
                    },
                    {
                        "number": 64,
                        "time": 24.467500000000058,
                        "value": 0.6929133858267716
                    },
                    {
                        "number": 64,
                        "time": 24.472500000000057,
                        "value": 1
                    },
                    {
                        "number": 64,
                        "time": 25.137500000000053,
                        "value": 0.6929133858267716
                    },
                    {
                        "number": 64,
                        "time": 25.14250000000005,
                        "value": 0.5669291338582677
                    },
                    {
                        "number": 64,
                        "time": 25.14750000000005,
                        "value": 0.4409448818897638
                    },
                    {
                        "number": 64,
                        "time": 25.15250000000005,
                        "value": 0.1889763779527559
                    },
                    {
                        "number": 64,
                        "time": 25.15500000000005,
                        "value": 0
                    },
                    {
                        "number": 64,
                        "time": 25.23000000000005,
                        "value": 0.1889763779527559
                    },
                    {
                        "number": 64,
                        "time": 25.23500000000005,
                        "value": 0.4409448818897638
                    },
                    {
                        "number": 64,
                        "time": 25.240000000000048,
                        "value": 0.5669291338582677
                    },
                    {
                        "number": 64,
                        "time": 25.245000000000047,
                        "value": 0.8188976377952756
                    },
                    {
                        "number": 64,
                        "time": 25.250000000000046,
                        "value": 1
                    },
                    {
                        "number": 64,
                        "time": 25.972500000000046,
                        "value": 0.8188976377952756
                    },
                    {
                        "number": 64,
                        "time": 25.977500000000045,
                        "value": 0.5669291338582677
                    },
                    {
                        "number": 64,
                        "time": 25.982500000000044,
                        "value": 0.4409448818897638
                    },
                    {
                        "number": 64,
                        "time": 25.987500000000043,
                        "value": 0.1889763779527559
                    },
                    {
                        "number": 64,
                        "time": 25.992500000000042,
                        "value": 0
                    },
                    {
                        "number": 64,
                        "time": 26.067500000000045,
                        "value": 0.1889763779527559
                    },
                    {
                        "number": 64,
                        "time": 26.072500000000044,
                        "value": 0.31496062992125984
                    },
                    {
                        "number": 64,
                        "time": 26.077500000000043,
                        "value": 0.4409448818897638
                    },
                    {
                        "number": 64,
                        "time": 26.082500000000042,
                        "value": 0.5669291338582677
                    },
                    {
                        "number": 64,
                        "time": 26.08750000000004,
                        "value": 0.8188976377952756
                    },
                    {
                        "number": 64,
                        "time": 26.09250000000004,
                        "value": 1
                    },
                    {
                        "number": 64,
                        "time": 26.802500000000045,
                        "value": 0.8188976377952756
                    },
                    {
                        "number": 64,
                        "time": 26.807500000000047,
                        "value": 0.5669291338582677
                    },
                    {
                        "number": 64,
                        "time": 26.812500000000046,
                        "value": 0.4409448818897638
                    },
                    {
                        "number": 64,
                        "time": 26.817500000000045,
                        "value": 0.31496062992125984
                    },
                    {
                        "number": 64,
                        "time": 26.822500000000044,
                        "value": 0
                    },
                    {
                        "number": 64,
                        "time": 26.90500000000005,
                        "value": 0.1889763779527559
                    },
                    {
                        "number": 64,
                        "time": 26.907500000000052,
                        "value": 0.4409448818897638
                    },
                    {
                        "number": 64,
                        "time": 26.91250000000005,
                        "value": 0.5669291338582677
                    },
                    {
                        "number": 64,
                        "time": 26.91750000000005,
                        "value": 0.6929133858267716
                    },
                    {
                        "number": 64,
                        "time": 26.92250000000005,
                        "value": 1
                    },
                    {
                        "number": 64,
                        "time": 27.665000000000052,
                        "value": 0.8188976377952756
                    },
                    {
                        "number": 64,
                        "time": 27.667500000000054,
                        "value": 0.5669291338582677
                    },
                    {
                        "number": 64,
                        "time": 27.675000000000054,
                        "value": 0.4409448818897638
                    },
                    {
                        "number": 64,
                        "time": 27.677500000000055,
                        "value": 0.1889763779527559
                    },
                    {
                        "number": 64,
                        "time": 27.685000000000056,
                        "value": 0
                    },
                    {
                        "number": 64,
                        "time": 27.76750000000006,
                        "value": 0.1889763779527559
                    },
                    {
                        "number": 64,
                        "time": 27.77500000000006,
                        "value": 0.4409448818897638
                    },
                    {
                        "number": 64,
                        "time": 27.77750000000006,
                        "value": 0.5669291338582677
                    },
                    {
                        "number": 64,
                        "time": 27.78500000000006,
                        "value": 0.6929133858267716
                    },
                    {
                        "number": 64,
                        "time": 27.787500000000062,
                        "value": 1
                    },
                    {
                        "number": 64,
                        "time": 28.490000000000062,
                        "value": 0.8188976377952756
                    },
                    {
                        "number": 64,
                        "time": 28.49500000000006,
                        "value": 0.6929133858267716
                    },
                    {
                        "number": 64,
                        "time": 28.50000000000006,
                        "value": 0.4409448818897638
                    },
                    {
                        "number": 64,
                        "time": 28.505000000000063,
                        "value": 0.31496062992125984
                    },
                    {
                        "number": 64,
                        "time": 28.510000000000062,
                        "value": 0.1889763779527559
                    },
                    {
                        "number": 64,
                        "time": 28.51500000000006,
                        "value": 0
                    },
                    {
                        "number": 64,
                        "time": 28.590000000000064,
                        "value": 0.1889763779527559
                    },
                    {
                        "number": 64,
                        "time": 28.595000000000063,
                        "value": 0.31496062992125984
                    },
                    {
                        "number": 64,
                        "time": 28.602500000000063,
                        "value": 0.4409448818897638
                    },
                    {
                        "number": 64,
                        "time": 28.605000000000064,
                        "value": 0.6929133858267716
                    },
                    {
                        "number": 64,
                        "time": 28.610000000000063,
                        "value": 0.8188976377952756
                    },
                    {
                        "number": 64,
                        "time": 28.615000000000062,
                        "value": 1
                    },
                    {
                        "number": 64,
                        "time": 29.282500000000066,
                        "value": 0.8188976377952756
                    },
                    {
                        "number": 64,
                        "time": 29.285000000000068,
                        "value": 0.5669291338582677
                    },
                    {
                        "number": 64,
                        "time": 29.292500000000068,
                        "value": 0.4409448818897638
                    },
                    {
                        "number": 64,
                        "time": 29.29500000000007,
                        "value": 0.1889763779527559
                    },
                    {
                        "number": 64,
                        "time": 29.30250000000007,
                        "value": 0
                    },
                    {
                        "number": 64,
                        "time": 29.39250000000007,
                        "value": 0.1889763779527559
                    },
                    {
                        "number": 64,
                        "time": 29.39500000000007,
                        "value": 0.31496062992125984
                    },
                    {
                        "number": 64,
                        "time": 29.40250000000007,
                        "value": 0.5669291338582677
                    },
                    {
                        "number": 64,
                        "time": 29.405000000000072,
                        "value": 0.6929133858267716
                    },
                    {
                        "number": 64,
                        "time": 29.412500000000072,
                        "value": 0.8188976377952756
                    },
                    {
                        "number": 64,
                        "time": 29.415000000000074,
                        "value": 1
                    },
                    {
                        "number": 64,
                        "time": 29.797500000000078,
                        "value": 0.6929133858267716
                    },
                    {
                        "number": 64,
                        "time": 29.805000000000078,
                        "value": 0.5669291338582677
                    },
                    {
                        "number": 64,
                        "time": 29.80750000000008,
                        "value": 0.4409448818897638
                    },
                    {
                        "number": 64,
                        "time": 29.81500000000008,
                        "value": 0.1889763779527559
                    },
                    {
                        "number": 64,
                        "time": 29.81750000000008,
                        "value": 0
                    },
                    {
                        "number": 64,
                        "time": 29.90750000000008,
                        "value": 0.1889763779527559
                    },
                    {
                        "number": 64,
                        "time": 29.91500000000008,
                        "value": 0.31496062992125984
                    },
                    {
                        "number": 64,
                        "time": 29.917500000000082,
                        "value": 0.5669291338582677
                    },
                    {
                        "number": 64,
                        "time": 29.925000000000082,
                        "value": 0.6929133858267716
                    },
                    {
                        "number": 64,
                        "time": 29.927500000000084,
                        "value": 1
                    },
                    {
                        "number": 64,
                        "time": 31.135000000000087,
                        "value": 0.8188976377952756
                    },
                    {
                        "number": 64,
                        "time": 31.140000000000086,
                        "value": 0.6929133858267716
                    },
                    {
                        "number": 64,
                        "time": 31.145000000000085,
                        "value": 0.5669291338582677
                    },
                    {
                        "number": 64,
                        "time": 31.150000000000084,
                        "value": 0.31496062992125984
                    },
                    {
                        "number": 64,
                        "time": 31.155000000000083,
                        "value": 0.1889763779527559
                    },
                    {
                        "number": 64,
                        "time": 31.160000000000082,
                        "value": 0
                    },
                    {
                        "number": 64,
                        "time": 31.245000000000083,
                        "value": 0.1889763779527559
                    },
                    {
                        "number": 64,
                        "time": 31.25000000000008,
                        "value": 0.31496062992125984
                    },
                    {
                        "number": 64,
                        "time": 31.25500000000008,
                        "value": 0.4409448818897638
                    },
                    {
                        "number": 64,
                        "time": 31.26000000000008,
                        "value": 0.5669291338582677
                    },
                    {
                        "number": 64,
                        "time": 31.26500000000008,
                        "value": 0.8188976377952756
                    },
                    {
                        "number": 64,
                        "time": 31.270000000000078,
                        "value": 1
                    },
                    {
                        "number": 64,
                        "time": 31.897500000000083,
                        "value": 0.8188976377952756
                    },
                    {
                        "number": 64,
                        "time": 31.90250000000008,
                        "value": 0.5669291338582677
                    },
                    {
                        "number": 64,
                        "time": 31.90750000000008,
                        "value": 0.4409448818897638
                    },
                    {
                        "number": 64,
                        "time": 31.91250000000008,
                        "value": 0.31496062992125984
                    },
                    {
                        "number": 64,
                        "time": 31.91750000000008,
                        "value": 0.1889763779527559
                    },
                    {
                        "number": 64,
                        "time": 31.922500000000078,
                        "value": 0
                    },
                    {
                        "number": 64,
                        "time": 31.972500000000075,
                        "value": 0.1889763779527559
                    },
                    {
                        "number": 64,
                        "time": 31.977500000000074,
                        "value": 0.31496062992125984
                    },
                    {
                        "number": 64,
                        "time": 31.982500000000073,
                        "value": 0.4409448818897638
                    },
                    {
                        "number": 64,
                        "time": 31.98750000000007,
                        "value": 0.5669291338582677
                    },
                    {
                        "number": 64,
                        "time": 31.99250000000007,
                        "value": 0.6929133858267716
                    },
                    {
                        "number": 64,
                        "time": 31.99750000000007,
                        "value": 0.8188976377952756
                    },
                    {
                        "number": 64,
                        "time": 32.00250000000007,
                        "value": 1
                    },
                    {
                        "number": 64,
                        "time": 32.78250000000008,
                        "value": 0.6929133858267716
                    },
                    {
                        "number": 64,
                        "time": 32.78750000000008,
                        "value": 0.5669291338582677
                    },
                    {
                        "number": 64,
                        "time": 32.79250000000008,
                        "value": 0.4409448818897638
                    },
                    {
                        "number": 64,
                        "time": 32.797500000000085,
                        "value": 0.31496062992125984
                    },
                    {
                        "number": 64,
                        "time": 32.80250000000009,
                        "value": 0.1889763779527559
                    },
                    {
                        "number": 64,
                        "time": 32.80750000000009,
                        "value": 0
                    },
                    {
                        "number": 64,
                        "time": 32.86250000000009,
                        "value": 0.1889763779527559
                    },
                    {
                        "number": 64,
                        "time": 32.86750000000009,
                        "value": 0.31496062992125984
                    },
                    {
                        "number": 64,
                        "time": 32.87500000000009,
                        "value": 0.4409448818897638
                    },
                    {
                        "number": 64,
                        "time": 32.87750000000009,
                        "value": 0.5669291338582677
                    },
                    {
                        "number": 64,
                        "time": 32.88250000000009,
                        "value": 0.6929133858267716
                    },
                    {
                        "number": 64,
                        "time": 32.887500000000095,
                        "value": 0.8188976377952756
                    },
                    {
                        "number": 64,
                        "time": 32.8925000000001,
                        "value": 1
                    },
                    {
                        "number": 64,
                        "time": 33.605000000000096,
                        "value": 0.8188976377952756
                    },
                    {
                        "number": 64,
                        "time": 33.607500000000094,
                        "value": 0.5669291338582677
                    },
                    {
                        "number": 64,
                        "time": 33.615000000000094,
                        "value": 0.4409448818897638
                    },
                    {
                        "number": 64,
                        "time": 33.61750000000009,
                        "value": 0.31496062992125984
                    },
                    {
                        "number": 64,
                        "time": 33.62500000000009,
                        "value": 0.1889763779527559
                    },
                    {
                        "number": 64,
                        "time": 33.62750000000009,
                        "value": 0
                    },
                    {
                        "number": 64,
                        "time": 33.67750000000009,
                        "value": 0.1889763779527559
                    },
                    {
                        "number": 64,
                        "time": 33.68500000000009,
                        "value": 0.31496062992125984
                    },
                    {
                        "number": 64,
                        "time": 33.687500000000085,
                        "value": 0.4409448818897638
                    },
                    {
                        "number": 64,
                        "time": 33.695000000000086,
                        "value": 0.5669291338582677
                    },
                    {
                        "number": 64,
                        "time": 33.69750000000008,
                        "value": 0.6929133858267716
                    },
                    {
                        "number": 64,
                        "time": 33.705000000000084,
                        "value": 0.8188976377952756
                    },
                    {
                        "number": 64,
                        "time": 33.70750000000008,
                        "value": 1
                    },
                    {
                        "number": 64,
                        "time": 34.40000000000008,
                        "value": 0.6929133858267716
                    },
                    {
                        "number": 64,
                        "time": 34.40500000000008,
                        "value": 0.4409448818897638
                    },
                    {
                        "number": 64,
                        "time": 34.41000000000008,
                        "value": 0.1889763779527559
                    },
                    {
                        "number": 64,
                        "time": 34.415000000000084,
                        "value": 0
                    },
                    {
                        "number": 64,
                        "time": 34.49000000000009,
                        "value": 0.1889763779527559
                    },
                    {
                        "number": 64,
                        "time": 34.49500000000009,
                        "value": 0.31496062992125984
                    },
                    {
                        "number": 64,
                        "time": 34.50000000000009,
                        "value": 0.4409448818897638
                    },
                    {
                        "number": 64,
                        "time": 34.505000000000095,
                        "value": 0.5669291338582677
                    },
                    {
                        "number": 64,
                        "time": 34.5100000000001,
                        "value": 0.8188976377952756
                    },
                    {
                        "number": 64,
                        "time": 34.5150000000001,
                        "value": 1
                    },
                    {
                        "number": 64,
                        "time": 35.2025000000001,
                        "value": 0.8188976377952756
                    },
                    {
                        "number": 64,
                        "time": 35.2050000000001,
                        "value": 0.6929133858267716
                    },
                    {
                        "number": 64,
                        "time": 35.2125000000001,
                        "value": 0.5669291338582677
                    },
                    {
                        "number": 64,
                        "time": 35.215000000000096,
                        "value": 0.31496062992125984
                    },
                    {
                        "number": 64,
                        "time": 35.222500000000096,
                        "value": 0.1889763779527559
                    },
                    {
                        "number": 64,
                        "time": 35.225000000000094,
                        "value": 0
                    },
                    {
                        "number": 64,
                        "time": 35.26500000000009,
                        "value": 0.1889763779527559
                    },
                    {
                        "number": 64,
                        "time": 35.27500000000009,
                        "value": 0.31496062992125984
                    },
                    {
                        "number": 64,
                        "time": 35.28250000000009,
                        "value": 0.4409448818897638
                    },
                    {
                        "number": 64,
                        "time": 35.28500000000009,
                        "value": 0.5669291338582677
                    },
                    {
                        "number": 64,
                        "time": 35.29250000000009,
                        "value": 0.6929133858267716
                    },
                    {
                        "number": 64,
                        "time": 35.29500000000009,
                        "value": 1
                    },
                    {
                        "number": 64,
                        "time": 36.00750000000009,
                        "value": 0.6929133858267716
                    },
                    {
                        "number": 64,
                        "time": 36.012500000000095,
                        "value": 0.5669291338582677
                    },
                    {
                        "number": 64,
                        "time": 36.0175000000001,
                        "value": 0.31496062992125984
                    },
                    {
                        "number": 64,
                        "time": 36.0225000000001,
                        "value": 0.1889763779527559
                    },
                    {
                        "number": 64,
                        "time": 36.0250000000001,
                        "value": 0
                    },
                    {
                        "number": 64,
                        "time": 36.0775000000001,
                        "value": 0.1889763779527559
                    },
                    {
                        "number": 64,
                        "time": 36.0825000000001,
                        "value": 0.31496062992125984
                    },
                    {
                        "number": 64,
                        "time": 36.0850000000001,
                        "value": 0.4409448818897638
                    },
                    {
                        "number": 64,
                        "time": 36.0925000000001,
                        "value": 0.5669291338582677
                    },
                    {
                        "number": 64,
                        "time": 36.0950000000001,
                        "value": 0.8188976377952756
                    },
                    {
                        "number": 64,
                        "time": 36.1025000000001,
                        "value": 1
                    },
                    {
                        "number": 64,
                        "time": 36.82500000000011,
                        "value": 0.8188976377952756
                    },
                    {
                        "number": 64,
                        "time": 36.83000000000011,
                        "value": 0.5669291338582677
                    },
                    {
                        "number": 64,
                        "time": 36.835000000000115,
                        "value": 0.31496062992125984
                    },
                    {
                        "number": 64,
                        "time": 36.84000000000012,
                        "value": 0.1889763779527559
                    },
                    {
                        "number": 64,
                        "time": 36.84500000000011,
                        "value": 0
                    },
                    {
                        "number": 64,
                        "time": 36.890000000000114,
                        "value": 0.1889763779527559
                    },
                    {
                        "number": 64,
                        "time": 36.89500000000012,
                        "value": 0.31496062992125984
                    },
                    {
                        "number": 64,
                        "time": 36.897500000000115,
                        "value": 0.4409448818897638
                    },
                    {
                        "number": 64,
                        "time": 36.905000000000115,
                        "value": 0.5669291338582677
                    },
                    {
                        "number": 64,
                        "time": 36.90750000000011,
                        "value": 0.6929133858267716
                    },
                    {
                        "number": 64,
                        "time": 36.91500000000011,
                        "value": 0.8188976377952756
                    },
                    {
                        "number": 64,
                        "time": 36.920000000000115,
                        "value": 1
                    },
                    {
                        "number": 64,
                        "time": 37.565000000000126,
                        "value": 0.6929133858267716
                    },
                    {
                        "number": 64,
                        "time": 37.57000000000013,
                        "value": 0.4409448818897638
                    },
                    {
                        "number": 64,
                        "time": 37.57500000000013,
                        "value": 0.1889763779527559
                    },
                    {
                        "number": 64,
                        "time": 37.580000000000126,
                        "value": 0
                    },
                    {
                        "number": 64,
                        "time": 37.660000000000124,
                        "value": 0.1889763779527559
                    },
                    {
                        "number": 64,
                        "time": 37.66500000000013,
                        "value": 0.4409448818897638
                    },
                    {
                        "number": 64,
                        "time": 37.67000000000013,
                        "value": 0.8188976377952756
                    },
                    {
                        "number": 64,
                        "time": 37.67500000000013,
                        "value": 1
                    },
                    {
                        "number": 64,
                        "time": 38.31000000000012,
                        "value": 0.8188976377952756
                    },
                    {
                        "number": 64,
                        "time": 38.315000000000126,
                        "value": 0.5669291338582677
                    },
                    {
                        "number": 64,
                        "time": 38.32000000000013,
                        "value": 0.31496062992125984
                    },
                    {
                        "number": 64,
                        "time": 38.32500000000013,
                        "value": 0
                    },
                    {
                        "number": 64,
                        "time": 38.36000000000013,
                        "value": 0.1889763779527559
                    },
                    {
                        "number": 64,
                        "time": 38.36500000000013,
                        "value": 0.31496062992125984
                    },
                    {
                        "number": 64,
                        "time": 38.37000000000013,
                        "value": 0.4409448818897638
                    },
                    {
                        "number": 64,
                        "time": 38.375000000000135,
                        "value": 0.5669291338582677
                    },
                    {
                        "number": 64,
                        "time": 38.38000000000014,
                        "value": 0.8188976377952756
                    },
                    {
                        "number": 64,
                        "time": 38.38500000000014,
                        "value": 1
                    },
                    {
                        "number": 64,
                        "time": 39.08000000000014,
                        "value": 0.6929133858267716
                    },
                    {
                        "number": 64,
                        "time": 39.08500000000014,
                        "value": 0.5669291338582677
                    },
                    {
                        "number": 64,
                        "time": 39.090000000000146,
                        "value": 0.31496062992125984
                    },
                    {
                        "number": 64,
                        "time": 39.09500000000015,
                        "value": 0.1889763779527559
                    },
                    {
                        "number": 64,
                        "time": 39.10000000000015,
                        "value": 0
                    },
                    {
                        "number": 64,
                        "time": 39.130000000000145,
                        "value": 0.1889763779527559
                    },
                    {
                        "number": 64,
                        "time": 39.13500000000015,
                        "value": 0.31496062992125984
                    },
                    {
                        "number": 64,
                        "time": 39.14000000000015,
                        "value": 0.4409448818897638
                    },
                    {
                        "number": 64,
                        "time": 39.14500000000015,
                        "value": 0.6929133858267716
                    },
                    {
                        "number": 64,
                        "time": 39.150000000000155,
                        "value": 0.8188976377952756
                    },
                    {
                        "number": 64,
                        "time": 39.15500000000016,
                        "value": 1
                    },
                    {
                        "number": 64,
                        "time": 39.85000000000016,
                        "value": 0.6929133858267716
                    },
                    {
                        "number": 64,
                        "time": 39.85500000000016,
                        "value": 0.4409448818897638
                    },
                    {
                        "number": 64,
                        "time": 39.86000000000016,
                        "value": 0.31496062992125984
                    },
                    {
                        "number": 64,
                        "time": 39.865000000000165,
                        "value": 0
                    },
                    {
                        "number": 64,
                        "time": 39.91500000000016,
                        "value": 0.1889763779527559
                    },
                    {
                        "number": 64,
                        "time": 39.920000000000165,
                        "value": 0.31496062992125984
                    },
                    {
                        "number": 64,
                        "time": 39.92500000000017,
                        "value": 0.5669291338582677
                    },
                    {
                        "number": 64,
                        "time": 39.93000000000017,
                        "value": 0.6929133858267716
                    },
                    {
                        "number": 64,
                        "time": 39.93500000000017,
                        "value": 1
                    },
                    {
                        "number": 64,
                        "time": 40.65250000000019,
                        "value": 0.8188976377952756
                    },
                    {
                        "number": 64,
                        "time": 40.655000000000186,
                        "value": 0.6929133858267716
                    },
                    {
                        "number": 64,
                        "time": 40.662500000000186,
                        "value": 0.4409448818897638
                    },
                    {
                        "number": 64,
                        "time": 40.665000000000184,
                        "value": 0.31496062992125984
                    },
                    {
                        "number": 64,
                        "time": 40.670000000000186,
                        "value": 0.1889763779527559
                    },
                    {
                        "number": 64,
                        "time": 40.67750000000019,
                        "value": 0
                    },
                    {
                        "number": 64,
                        "time": 40.71500000000019,
                        "value": 0.1889763779527559
                    },
                    {
                        "number": 64,
                        "time": 40.72000000000019,
                        "value": 0.31496062992125984
                    },
                    {
                        "number": 64,
                        "time": 40.72500000000019,
                        "value": 0.4409448818897638
                    },
                    {
                        "number": 64,
                        "time": 40.730000000000196,
                        "value": 0.5669291338582677
                    },
                    {
                        "number": 64,
                        "time": 40.7350000000002,
                        "value": 0.8188976377952756
                    },
                    {
                        "number": 64,
                        "time": 40.7425000000002,
                        "value": 1
                    },
                    {
                        "number": 64,
                        "time": 41.50500000000019,
                        "value": 0.6929133858267716
                    },
                    {
                        "number": 64,
                        "time": 41.51250000000019,
                        "value": 0.31496062992125984
                    },
                    {
                        "number": 64,
                        "time": 41.515000000000185,
                        "value": 0
                    },
                    {
                        "number": 64,
                        "time": 41.595000000000184,
                        "value": 0.1889763779527559
                    },
                    {
                        "number": 64,
                        "time": 41.602500000000184,
                        "value": 0.5669291338582677
                    },
                    {
                        "number": 64,
                        "time": 41.607500000000186,
                        "value": 1
                    },
                    {
                        "number": 64,
                        "time": 44.857500000000186,
                        "value": 0.8188976377952756
                    },
                    {
                        "number": 64,
                        "time": 44.86250000000019,
                        "value": 0.5669291338582677
                    },
                    {
                        "number": 64,
                        "time": 44.86750000000019,
                        "value": 0.31496062992125984
                    },
                    {
                        "number": 64,
                        "time": 44.87500000000019,
                        "value": 0.1889763779527559
                    },
                    {
                        "number": 64,
                        "time": 44.87750000000019,
                        "value": 0
                    },
                    {
                        "number": 64,
                        "time": 44.91750000000019,
                        "value": 0.1889763779527559
                    },
                    {
                        "number": 64,
                        "time": 44.92250000000019,
                        "value": 0.31496062992125984
                    },
                    {
                        "number": 64,
                        "time": 44.927500000000194,
                        "value": 0.5669291338582677
                    },
                    {
                        "number": 64,
                        "time": 44.932500000000196,
                        "value": 0.6929133858267716
                    },
                    {
                        "number": 64,
                        "time": 44.93750000000019,
                        "value": 1
                    },
                    {
                        "number": 64,
                        "time": 45.26750000000019,
                        "value": 0.8188976377952756
                    },
                    {
                        "number": 64,
                        "time": 45.27250000000019,
                        "value": 0.5669291338582677
                    },
                    {
                        "number": 64,
                        "time": 45.277500000000195,
                        "value": 0.4409448818897638
                    },
                    {
                        "number": 64,
                        "time": 45.285000000000196,
                        "value": 0.31496062992125984
                    },
                    {
                        "number": 64,
                        "time": 45.2975000000002,
                        "value": 0.1889763779527559
                    },
                    {
                        "number": 64,
                        "time": 45.322500000000204,
                        "value": 0.4409448818897638
                    },
                    {
                        "number": 64,
                        "time": 45.32750000000021,
                        "value": 0.5669291338582677
                    },
                    {
                        "number": 64,
                        "time": 45.33250000000021,
                        "value": 0.6929133858267716
                    },
                    {
                        "number": 64,
                        "time": 45.337500000000205,
                        "value": 0.8188976377952756
                    },
                    {
                        "number": 64,
                        "time": 45.34250000000021,
                        "value": 1
                    },
                    {
                        "number": 64,
                        "time": 45.6825000000002,
                        "value": 0.8188976377952756
                    },
                    {
                        "number": 64,
                        "time": 45.687500000000206,
                        "value": 0.6929133858267716
                    },
                    {
                        "number": 64,
                        "time": 45.695000000000206,
                        "value": 0.4409448818897638
                    },
                    {
                        "number": 64,
                        "time": 45.697500000000204,
                        "value": 0.31496062992125984
                    },
                    {
                        "number": 64,
                        "time": 45.705000000000204,
                        "value": 0.1889763779527559
                    },
                    {
                        "number": 64,
                        "time": 45.7075000000002,
                        "value": 0
                    },
                    {
                        "number": 64,
                        "time": 45.7400000000002,
                        "value": 0.1889763779527559
                    },
                    {
                        "number": 64,
                        "time": 45.7450000000002,
                        "value": 0.4409448818897638
                    },
                    {
                        "number": 64,
                        "time": 45.750000000000206,
                        "value": 0.5669291338582677
                    },
                    {
                        "number": 64,
                        "time": 45.75500000000021,
                        "value": 0.6929133858267716
                    },
                    {
                        "number": 64,
                        "time": 45.76000000000021,
                        "value": 0.8188976377952756
                    },
                    {
                        "number": 64,
                        "time": 45.765000000000214,
                        "value": 1
                    },
                    {
                        "number": 64,
                        "time": 46.11000000000021,
                        "value": 0.6929133858267716
                    },
                    {
                        "number": 64,
                        "time": 46.11500000000021,
                        "value": 0.4409448818897638
                    },
                    {
                        "number": 64,
                        "time": 46.12250000000021,
                        "value": 0.31496062992125984
                    },
                    {
                        "number": 64,
                        "time": 46.127500000000204,
                        "value": 0.1889763779527559
                    },
                    {
                        "number": 64,
                        "time": 46.1300000000002,
                        "value": 0
                    },
                    {
                        "number": 64,
                        "time": 46.165000000000205,
                        "value": 0.1889763779527559
                    },
                    {
                        "number": 64,
                        "time": 46.17000000000021,
                        "value": 0.31496062992125984
                    },
                    {
                        "number": 64,
                        "time": 46.17500000000021,
                        "value": 0.4409448818897638
                    },
                    {
                        "number": 64,
                        "time": 46.18000000000021,
                        "value": 0.5669291338582677
                    },
                    {
                        "number": 64,
                        "time": 46.185000000000215,
                        "value": 0.6929133858267716
                    },
                    {
                        "number": 64,
                        "time": 46.19000000000022,
                        "value": 0.8188976377952756
                    },
                    {
                        "number": 64,
                        "time": 46.19500000000022,
                        "value": 1
                    },
                    {
                        "number": 64,
                        "time": 46.53250000000022,
                        "value": 0.8188976377952756
                    },
                    {
                        "number": 64,
                        "time": 46.53500000000022,
                        "value": 0.6929133858267716
                    },
                    {
                        "number": 64,
                        "time": 46.54250000000022,
                        "value": 0.5669291338582677
                    },
                    {
                        "number": 64,
                        "time": 46.545000000000215,
                        "value": 0.31496062992125984
                    },
                    {
                        "number": 64,
                        "time": 46.552500000000215,
                        "value": 0.1889763779527559
                    },
                    {
                        "number": 64,
                        "time": 46.55750000000021,
                        "value": 0
                    },
                    {
                        "number": 64,
                        "time": 46.59500000000021,
                        "value": 0.1889763779527559
                    },
                    {
                        "number": 64,
                        "time": 46.59750000000021,
                        "value": 0.31496062992125984
                    },
                    {
                        "number": 64,
                        "time": 46.60500000000021,
                        "value": 0.4409448818897638
                    },
                    {
                        "number": 64,
                        "time": 46.60750000000021,
                        "value": 0.5669291338582677
                    },
                    {
                        "number": 64,
                        "time": 46.61500000000021,
                        "value": 0.6929133858267716
                    },
                    {
                        "number": 64,
                        "time": 46.617500000000206,
                        "value": 0.8188976377952756
                    },
                    {
                        "number": 64,
                        "time": 46.625000000000206,
                        "value": 1
                    },
                    {
                        "number": 64,
                        "time": 46.9450000000002,
                        "value": 0.6929133858267716
                    },
                    {
                        "number": 64,
                        "time": 46.9500000000002,
                        "value": 0.4409448818897638
                    },
                    {
                        "number": 64,
                        "time": 46.955000000000204,
                        "value": 0.31496062992125984
                    },
                    {
                        "number": 64,
                        "time": 46.96000000000021,
                        "value": 0.1889763779527559
                    },
                    {
                        "number": 64,
                        "time": 46.96500000000021,
                        "value": 0
                    },
                    {
                        "number": 64,
                        "time": 47.01500000000021,
                        "value": 0.1889763779527559
                    },
                    {
                        "number": 64,
                        "time": 47.02250000000021,
                        "value": 0.31496062992125984
                    },
                    {
                        "number": 64,
                        "time": 47.025000000000205,
                        "value": 0.4409448818897638
                    },
                    {
                        "number": 64,
                        "time": 47.032500000000205,
                        "value": 0.5669291338582677
                    },
                    {
                        "number": 64,
                        "time": 47.0350000000002,
                        "value": 0.8188976377952756
                    },
                    {
                        "number": 64,
                        "time": 47.0425000000002,
                        "value": 1
                    },
                    {
                        "number": 64,
                        "time": 47.35500000000022,
                        "value": 0.8188976377952756
                    },
                    {
                        "number": 64,
                        "time": 47.36250000000022,
                        "value": 0.5669291338582677
                    },
                    {
                        "number": 64,
                        "time": 47.365000000000215,
                        "value": 0.4409448818897638
                    },
                    {
                        "number": 64,
                        "time": 47.372500000000215,
                        "value": 0.31496062992125984
                    },
                    {
                        "number": 64,
                        "time": 47.37500000000021,
                        "value": 0.1889763779527559
                    },
                    {
                        "number": 64,
                        "time": 47.38250000000021,
                        "value": 0
                    },
                    {
                        "number": 64,
                        "time": 47.42250000000021,
                        "value": 0.1889763779527559
                    },
                    {
                        "number": 64,
                        "time": 47.42500000000021,
                        "value": 0.31496062992125984
                    },
                    {
                        "number": 64,
                        "time": 47.43250000000021,
                        "value": 0.5669291338582677
                    },
                    {
                        "number": 64,
                        "time": 47.43500000000021,
                        "value": 0.6929133858267716
                    },
                    {
                        "number": 64,
                        "time": 47.44250000000021,
                        "value": 1
                    },
                    {
                        "number": 64,
                        "time": 47.74250000000021,
                        "value": 0.8188976377952756
                    },
                    {
                        "number": 64,
                        "time": 47.74500000000021,
                        "value": 0.6929133858267716
                    },
                    {
                        "number": 64,
                        "time": 47.75250000000021,
                        "value": 0.5669291338582677
                    },
                    {
                        "number": 64,
                        "time": 47.75500000000021,
                        "value": 0.4409448818897638
                    },
                    {
                        "number": 64,
                        "time": 47.7925000000002,
                        "value": 0.6929133858267716
                    },
                    {
                        "number": 64,
                        "time": 47.8025000000002,
                        "value": 0.8188976377952756
                    },
                    {
                        "number": 64,
                        "time": 47.8050000000002,
                        "value": 1
                    },
                    {
                        "number": 64,
                        "time": 48.11250000000021,
                        "value": 0.8188976377952756
                    },
                    {
                        "number": 64,
                        "time": 48.11500000000021,
                        "value": 0.5669291338582677
                    },
                    {
                        "number": 64,
                        "time": 48.12250000000021,
                        "value": 0.1889763779527559
                    },
                    {
                        "number": 64,
                        "time": 48.125000000000206,
                        "value": 0
                    },
                    {
                        "number": 64,
                        "time": 48.197500000000204,
                        "value": 0.31496062992125984
                    },
                    {
                        "number": 64,
                        "time": 48.20250000000021,
                        "value": 0.6929133858267716
                    },
                    {
                        "number": 64,
                        "time": 48.20750000000021,
                        "value": 1
                    },
                    {
                        "number": 64,
                        "time": 48.572500000000204,
                        "value": 0.8188976377952756
                    },
                    {
                        "number": 64,
                        "time": 48.59250000000021,
                        "value": 1
                    },
                    {
                        "number": 64,
                        "time": 49.0125000000002,
                        "value": 0.8188976377952756
                    },
                    {
                        "number": 64,
                        "time": 49.0175000000002,
                        "value": 0.6929133858267716
                    },
                    {
                        "number": 64,
                        "time": 49.035000000000196,
                        "value": 1
                    },
                    {
                        "number": 64,
                        "time": 53.66000000000018,
                        "value": 0.8188976377952756
                    },
                    {
                        "number": 64,
                        "time": 53.665000000000184,
                        "value": 0.5669291338582677
                    },
                    {
                        "number": 64,
                        "time": 53.670000000000186,
                        "value": 0.4409448818897638
                    },
                    {
                        "number": 64,
                        "time": 53.67500000000019,
                        "value": 0.1889763779527559
                    },
                    {
                        "number": 64,
                        "time": 53.68000000000019,
                        "value": 0
                    },
                    {
                        "number": 64,
                        "time": 53.72000000000019,
                        "value": 0.1889763779527559
                    },
                    {
                        "number": 64,
                        "time": 53.72500000000019,
                        "value": 0.31496062992125984
                    },
                    {
                        "number": 64,
                        "time": 53.730000000000196,
                        "value": 0.4409448818897638
                    },
                    {
                        "number": 64,
                        "time": 53.740000000000194,
                        "value": 0.5669291338582677
                    },
                    {
                        "number": 64,
                        "time": 53.745000000000196,
                        "value": 0.6929133858267716
                    },
                    {
                        "number": 64,
                        "time": 53.7500000000002,
                        "value": 0.8188976377952756
                    },
                    {
                        "number": 64,
                        "time": 53.7550000000002,
                        "value": 1
                    },
                    {
                        "number": 64,
                        "time": 57.88250000000019,
                        "value": 0.8188976377952756
                    },
                    {
                        "number": 64,
                        "time": 57.90750000000019,
                        "value": 1
                    },
                    {
                        "number": 64,
                        "time": 58.3300000000002,
                        "value": 0.8188976377952756
                    },
                    {
                        "number": 64,
                        "time": 58.3350000000002,
                        "value": 0.6929133858267716
                    },
                    {
                        "number": 64,
                        "time": 58.3400000000002,
                        "value": 0.5669291338582677
                    },
                    {
                        "number": 64,
                        "time": 58.345000000000205,
                        "value": 0.4409448818897638
                    },
                    {
                        "number": 64,
                        "time": 58.3475000000002,
                        "value": 0.31496062992125984
                    },
                    {
                        "number": 64,
                        "time": 58.3550000000002,
                        "value": 0.1889763779527559
                    },
                    {
                        "number": 64,
                        "time": 58.385000000000204,
                        "value": 0.31496062992125984
                    },
                    {
                        "number": 64,
                        "time": 58.39000000000021,
                        "value": 0.4409448818897638
                    },
                    {
                        "number": 64,
                        "time": 58.400000000000205,
                        "value": 0.5669291338582677
                    },
                    {
                        "number": 64,
                        "time": 58.40500000000021,
                        "value": 0.6929133858267716
                    },
                    {
                        "number": 64,
                        "time": 58.41000000000021,
                        "value": 0.8188976377952756
                    },
                    {
                        "number": 64,
                        "time": 58.41750000000021,
                        "value": 1
                    },
                    {
                        "number": 64,
                        "time": 58.82500000000021,
                        "value": 0.8188976377952756
                    },
                    {
                        "number": 64,
                        "time": 58.835000000000214,
                        "value": 0.5669291338582677
                    },
                    {
                        "number": 64,
                        "time": 58.835000000000214,
                        "value": 0.6929133858267716
                    },
                    {
                        "number": 64,
                        "time": 58.842500000000214,
                        "value": 0.4409448818897638
                    },
                    {
                        "number": 64,
                        "time": 58.872500000000215,
                        "value": 0.6929133858267716
                    },
                    {
                        "number": 64,
                        "time": 58.87750000000021,
                        "value": 0.8188976377952756
                    },
                    {
                        "number": 64,
                        "time": 58.88500000000021,
                        "value": 1
                    },
                    {
                        "number": 64,
                        "time": 59.3250000000002,
                        "value": 0.8188976377952756
                    },
                    {
                        "number": 64,
                        "time": 59.3325000000002,
                        "value": 0.6929133858267716
                    },
                    {
                        "number": 64,
                        "time": 59.3350000000002,
                        "value": 0.5669291338582677
                    },
                    {
                        "number": 64,
                        "time": 59.3425000000002,
                        "value": 0.4409448818897638
                    },
                    {
                        "number": 64,
                        "time": 59.3700000000002,
                        "value": 0.6929133858267716
                    },
                    {
                        "number": 64,
                        "time": 59.375000000000206,
                        "value": 0.8188976377952756
                    },
                    {
                        "number": 64,
                        "time": 59.382500000000206,
                        "value": 1
                    },
                    {
                        "number": 64,
                        "time": 59.79500000000021,
                        "value": 0.8188976377952756
                    },
                    {
                        "number": 64,
                        "time": 59.80000000000021,
                        "value": 0.6929133858267716
                    },
                    {
                        "number": 64,
                        "time": 59.83500000000021,
                        "value": 1
                    },
                    {
                        "number": 64,
                        "time": 60.332500000000216,
                        "value": 0.8188976377952756
                    },
                    {
                        "number": 64,
                        "time": 60.335000000000214,
                        "value": 0.6929133858267716
                    },
                    {
                        "number": 64,
                        "time": 60.342500000000214,
                        "value": 0.5669291338582677
                    },
                    {
                        "number": 64,
                        "time": 60.34500000000021,
                        "value": 0.31496062992125984
                    },
                    {
                        "number": 64,
                        "time": 60.38250000000021,
                        "value": 0.5669291338582677
                    },
                    {
                        "number": 64,
                        "time": 60.38500000000021,
                        "value": 0.6929133858267716
                    },
                    {
                        "number": 64,
                        "time": 60.39250000000021,
                        "value": 0.8188976377952756
                    },
                    {
                        "number": 64,
                        "time": 60.39500000000021,
                        "value": 1
                    },
                    {
                        "number": 64,
                        "time": 60.80250000000021,
                        "value": 0.8188976377952756
                    },
                    {
                        "number": 64,
                        "time": 60.805000000000206,
                        "value": 0.6929133858267716
                    },
                    {
                        "number": 64,
                        "time": 60.812500000000206,
                        "value": 0.5669291338582677
                    },
                    {
                        "number": 64,
                        "time": 60.84250000000021,
                        "value": 0.6929133858267716
                    },
                    {
                        "number": 64,
                        "time": 60.84750000000021,
                        "value": 0.8188976377952756
                    },
                    {
                        "number": 64,
                        "time": 60.85250000000021,
                        "value": 1
                    },
                    {
                        "number": 64,
                        "time": 61.27500000000022,
                        "value": 0.8188976377952756
                    },
                    {
                        "number": 64,
                        "time": 61.28250000000022,
                        "value": 0.6929133858267716
                    },
                    {
                        "number": 64,
                        "time": 61.28750000000022,
                        "value": 0.5669291338582677
                    },
                    {
                        "number": 64,
                        "time": 61.292500000000224,
                        "value": 0.4409448818897638
                    },
                    {
                        "number": 64,
                        "time": 61.29750000000023,
                        "value": 0.31496062992125984
                    },
                    {
                        "number": 64,
                        "time": 61.30250000000023,
                        "value": 0.1889763779527559
                    },
                    {
                        "number": 64,
                        "time": 61.34250000000023,
                        "value": 0.31496062992125984
                    },
                    {
                        "number": 64,
                        "time": 61.34750000000023,
                        "value": 0.4409448818897638
                    },
                    {
                        "number": 64,
                        "time": 61.35750000000023,
                        "value": 0.5669291338582677
                    },
                    {
                        "number": 64,
                        "time": 61.36250000000023,
                        "value": 0.6929133858267716
                    },
                    {
                        "number": 64,
                        "time": 61.367500000000234,
                        "value": 0.8188976377952756
                    },
                    {
                        "number": 64,
                        "time": 61.37250000000024,
                        "value": 1
                    },
                    {
                        "number": 64,
                        "time": 61.77000000000023,
                        "value": 0.8188976377952756
                    },
                    {
                        "number": 64,
                        "time": 61.77500000000023,
                        "value": 0.6929133858267716
                    },
                    {
                        "number": 64,
                        "time": 61.78250000000023,
                        "value": 0.4409448818897638
                    },
                    {
                        "number": 64,
                        "time": 61.787500000000236,
                        "value": 0.31496062992125984
                    },
                    {
                        "number": 64,
                        "time": 61.79250000000024,
                        "value": 0.1889763779527559
                    },
                    {
                        "number": 64,
                        "time": 61.79750000000024,
                        "value": 0
                    },
                    {
                        "number": 64,
                        "time": 61.83250000000024,
                        "value": 0.31496062992125984
                    },
                    {
                        "number": 64,
                        "time": 61.83750000000024,
                        "value": 0.4409448818897638
                    },
                    {
                        "number": 64,
                        "time": 61.84750000000024,
                        "value": 0.5669291338582677
                    },
                    {
                        "number": 64,
                        "time": 61.85250000000024,
                        "value": 0.6929133858267716
                    },
                    {
                        "number": 64,
                        "time": 61.85750000000024,
                        "value": 0.8188976377952756
                    },
                    {
                        "number": 64,
                        "time": 61.862500000000246,
                        "value": 1
                    },
                    {
                        "number": 64,
                        "time": 62.29750000000025,
                        "value": 0.8188976377952756
                    },
                    {
                        "number": 64,
                        "time": 62.30250000000025,
                        "value": 0.6929133858267716
                    },
                    {
                        "number": 64,
                        "time": 62.30750000000025,
                        "value": 0.5669291338582677
                    },
                    {
                        "number": 64,
                        "time": 62.312500000000256,
                        "value": 0.31496062992125984
                    },
                    {
                        "number": 64,
                        "time": 62.31750000000026,
                        "value": 0.1889763779527559
                    },
                    {
                        "number": 64,
                        "time": 62.32250000000026,
                        "value": 0
                    },
                    {
                        "number": 64,
                        "time": 62.38250000000026,
                        "value": 0.1889763779527559
                    },
                    {
                        "number": 64,
                        "time": 62.387500000000266,
                        "value": 0.31496062992125984
                    },
                    {
                        "number": 64,
                        "time": 62.39250000000027,
                        "value": 0.4409448818897638
                    },
                    {
                        "number": 64,
                        "time": 62.39750000000027,
                        "value": 0.5669291338582677
                    },
                    {
                        "number": 64,
                        "time": 62.402500000000266,
                        "value": 0.8188976377952756
                    },
                    {
                        "number": 64,
                        "time": 62.40750000000027,
                        "value": 1
                    },
                    {
                        "number": 64,
                        "time": 62.72250000000028,
                        "value": 0.8188976377952756
                    },
                    {
                        "number": 64,
                        "time": 62.72750000000028,
                        "value": 0.6929133858267716
                    },
                    {
                        "number": 64,
                        "time": 62.742500000000284,
                        "value": 0.5669291338582677
                    },
                    {
                        "number": 64,
                        "time": 62.757500000000285,
                        "value": 0.6929133858267716
                    },
                    {
                        "number": 64,
                        "time": 62.76250000000029,
                        "value": 0.8188976377952756
                    },
                    {
                        "number": 64,
                        "time": 62.77500000000029,
                        "value": 1
                    },
                    {
                        "number": 64,
                        "time": 63.137500000000294,
                        "value": 0.8188976377952756
                    },
                    {
                        "number": 64,
                        "time": 63.145000000000294,
                        "value": 0.6929133858267716
                    },
                    {
                        "number": 64,
                        "time": 63.14750000000029,
                        "value": 0.5669291338582677
                    },
                    {
                        "number": 64,
                        "time": 63.15500000000029,
                        "value": 0.4409448818897638
                    },
                    {
                        "number": 64,
                        "time": 63.15750000000029,
                        "value": 0.31496062992125984
                    },
                    {
                        "number": 64,
                        "time": 63.16500000000029,
                        "value": 0.1889763779527559
                    },
                    {
                        "number": 64,
                        "time": 63.19500000000029,
                        "value": 0.4409448818897638
                    },
                    {
                        "number": 64,
                        "time": 63.20500000000029,
                        "value": 0.6929133858267716
                    },
                    {
                        "number": 64,
                        "time": 63.21250000000029,
                        "value": 0.8188976377952756
                    },
                    {
                        "number": 64,
                        "time": 63.217500000000285,
                        "value": 1
                    },
                    {
                        "number": 64,
                        "time": 63.52500000000028,
                        "value": 0.8188976377952756
                    },
                    {
                        "number": 64,
                        "time": 63.545000000000286,
                        "value": 0.5669291338582677
                    },
                    {
                        "number": 64,
                        "time": 63.56750000000029,
                        "value": 0.8188976377952756
                    },
                    {
                        "number": 64,
                        "time": 63.57500000000029,
                        "value": 1
                    },
                    {
                        "number": 64,
                        "time": 63.997500000000294,
                        "value": 0.8188976377952756
                    },
                    {
                        "number": 64,
                        "time": 64.0050000000003,
                        "value": 0.6929133858267716
                    },
                    {
                        "number": 64,
                        "time": 64.00750000000029,
                        "value": 0.4409448818897638
                    },
                    {
                        "number": 64,
                        "time": 64.02750000000029,
                        "value": 0.31496062992125984
                    },
                    {
                        "number": 64,
                        "time": 64.04750000000028,
                        "value": 0.4409448818897638
                    },
                    {
                        "number": 64,
                        "time": 64.05500000000028,
                        "value": 0.5669291338582677
                    },
                    {
                        "number": 64,
                        "time": 64.05750000000027,
                        "value": 0.6929133858267716
                    },
                    {
                        "number": 64,
                        "time": 64.06500000000027,
                        "value": 0.8188976377952756
                    },
                    {
                        "number": 64,
                        "time": 64.07250000000026,
                        "value": 1
                    },
                    {
                        "number": 64,
                        "time": 64.48750000000022,
                        "value": 0.8188976377952756
                    },
                    {
                        "number": 64,
                        "time": 64.49500000000022,
                        "value": 0.5669291338582677
                    },
                    {
                        "number": 64,
                        "time": 64.50000000000021,
                        "value": 0.4409448818897638
                    },
                    {
                        "number": 64,
                        "time": 64.53500000000021,
                        "value": 0.5669291338582677
                    },
                    {
                        "number": 64,
                        "time": 64.5400000000002,
                        "value": 0.6929133858267716
                    },
                    {
                        "number": 64,
                        "time": 64.5450000000002,
                        "value": 0.8188976377952756
                    },
                    {
                        "number": 64,
                        "time": 64.5525000000002,
                        "value": 1
                    },
                    {
                        "number": 64,
                        "time": 64.92250000000018,
                        "value": 0.8188976377952756
                    },
                    {
                        "number": 64,
                        "time": 64.93000000000018,
                        "value": 0.6929133858267716
                    },
                    {
                        "number": 64,
                        "time": 64.93750000000017,
                        "value": 0.4409448818897638
                    },
                    {
                        "number": 64,
                        "time": 64.97500000000016,
                        "value": 0.5669291338582677
                    },
                    {
                        "number": 64,
                        "time": 64.97750000000016,
                        "value": 0.6929133858267716
                    },
                    {
                        "number": 64,
                        "time": 64.98750000000017,
                        "value": 0.8188976377952756
                    },
                    {
                        "number": 64,
                        "time": 64.99500000000016,
                        "value": 1
                    },
                    {
                        "number": 64,
                        "time": 65.33750000000018,
                        "value": 0.8188976377952756
                    },
                    {
                        "number": 64,
                        "time": 65.34500000000017,
                        "value": 0.6929133858267716
                    },
                    {
                        "number": 64,
                        "time": 65.35500000000017,
                        "value": 0.5669291338582677
                    },
                    {
                        "number": 64,
                        "time": 65.36000000000017,
                        "value": 0.4409448818897638
                    },
                    {
                        "number": 64,
                        "time": 65.39500000000017,
                        "value": 0.6929133858267716
                    },
                    {
                        "number": 64,
                        "time": 65.40500000000017,
                        "value": 0.8188976377952756
                    },
                    {
                        "number": 64,
                        "time": 65.40750000000017,
                        "value": 1
                    },
                    {
                        "number": 64,
                        "time": 65.79000000000016,
                        "value": 0.8188976377952756
                    },
                    {
                        "number": 64,
                        "time": 65.79500000000016,
                        "value": 0.5669291338582677
                    },
                    {
                        "number": 64,
                        "time": 65.80000000000015,
                        "value": 0.4409448818897638
                    },
                    {
                        "number": 64,
                        "time": 65.80500000000015,
                        "value": 0.31496062992125984
                    },
                    {
                        "number": 64,
                        "time": 65.84500000000014,
                        "value": 0.4409448818897638
                    },
                    {
                        "number": 64,
                        "time": 65.85500000000015,
                        "value": 0.6929133858267716
                    },
                    {
                        "number": 64,
                        "time": 65.85750000000014,
                        "value": 0.8188976377952756
                    },
                    {
                        "number": 64,
                        "time": 65.86500000000014,
                        "value": 1
                    },
                    {
                        "number": 64,
                        "time": 66.17500000000013,
                        "value": 0.6929133858267716
                    },
                    {
                        "number": 64,
                        "time": 66.18000000000012,
                        "value": 0.5669291338582677
                    },
                    {
                        "number": 64,
                        "time": 66.18500000000012,
                        "value": 0.31496062992125984
                    },
                    {
                        "number": 64,
                        "time": 66.19000000000011,
                        "value": 0.1889763779527559
                    },
                    {
                        "number": 64,
                        "time": 66.1950000000001,
                        "value": 0
                    },
                    {
                        "number": 64,
                        "time": 66.2150000000001,
                        "value": 0.4409448818897638
                    },
                    {
                        "number": 64,
                        "time": 66.2200000000001,
                        "value": 0.5669291338582677
                    },
                    {
                        "number": 64,
                        "time": 66.2250000000001,
                        "value": 0.6929133858267716
                    },
                    {
                        "number": 64,
                        "time": 66.23000000000009,
                        "value": 0.8188976377952756
                    },
                    {
                        "number": 64,
                        "time": 66.23500000000008,
                        "value": 1
                    },
                    {
                        "number": 64,
                        "time": 66.66500000000006,
                        "value": 0.6929133858267716
                    },
                    {
                        "number": 64,
                        "time": 66.67000000000006,
                        "value": 0.4409448818897638
                    },
                    {
                        "number": 64,
                        "time": 66.67500000000005,
                        "value": 0
                    },
                    {
                        "number": 64,
                        "time": 66.76000000000005,
                        "value": 0.1889763779527559
                    },
                    {
                        "number": 64,
                        "time": 66.78000000000004,
                        "value": 0.4409448818897638
                    },
                    {
                        "number": 64,
                        "time": 66.78500000000004,
                        "value": 0.5669291338582677
                    },
                    {
                        "number": 64,
                        "time": 66.79000000000003,
                        "value": 0.6929133858267716
                    },
                    {
                        "number": 64,
                        "time": 66.79500000000003,
                        "value": 0.8188976377952756
                    },
                    {
                        "number": 64,
                        "time": 66.80000000000003,
                        "value": 1
                    },
                    {
                        "number": 64,
                        "time": 67.46999999999998,
                        "value": 0.8188976377952756
                    },
                    {
                        "number": 64,
                        "time": 67.47499999999998,
                        "value": 0.5669291338582677
                    },
                    {
                        "number": 64,
                        "time": 67.47999999999998,
                        "value": 0.4409448818897638
                    },
                    {
                        "number": 64,
                        "time": 67.48499999999997,
                        "value": 0.1889763779527559
                    },
                    {
                        "number": 64,
                        "time": 67.48999999999997,
                        "value": 0
                    },
                    {
                        "number": 64,
                        "time": 67.55999999999996,
                        "value": 0.1889763779527559
                    },
                    {
                        "number": 64,
                        "time": 67.56499999999996,
                        "value": 0.4409448818897638
                    },
                    {
                        "number": 64,
                        "time": 67.56999999999995,
                        "value": 0.5669291338582677
                    },
                    {
                        "number": 64,
                        "time": 67.57499999999995,
                        "value": 0.8188976377952756
                    },
                    {
                        "number": 64,
                        "time": 67.57999999999994,
                        "value": 1
                    },
                    {
                        "number": 64,
                        "time": 67.89999999999993,
                        "value": 0.8188976377952756
                    },
                    {
                        "number": 64,
                        "time": 67.91999999999993,
                        "value": 0.6929133858267716
                    },
                    {
                        "number": 64,
                        "time": 67.94249999999992,
                        "value": 1
                    },
                    {
                        "number": 64,
                        "time": 68.31249999999989,
                        "value": 0.6929133858267716
                    },
                    {
                        "number": 64,
                        "time": 68.31749999999988,
                        "value": 0.4409448818897638
                    },
                    {
                        "number": 64,
                        "time": 68.32249999999988,
                        "value": 0.1889763779527559
                    },
                    {
                        "number": 64,
                        "time": 68.32749999999987,
                        "value": 0
                    },
                    {
                        "number": 64,
                        "time": 68.39749999999987,
                        "value": 0.1889763779527559
                    },
                    {
                        "number": 64,
                        "time": 68.40249999999986,
                        "value": 0.4409448818897638
                    },
                    {
                        "number": 64,
                        "time": 68.40749999999986,
                        "value": 0.5669291338582677
                    },
                    {
                        "number": 64,
                        "time": 68.41249999999985,
                        "value": 0.8188976377952756
                    },
                    {
                        "number": 64,
                        "time": 68.41749999999985,
                        "value": 1
                    },
                    {
                        "number": 64,
                        "time": 69.14749999999985,
                        "value": 0.8188976377952756
                    },
                    {
                        "number": 64,
                        "time": 69.15499999999984,
                        "value": 0.5669291338582677
                    },
                    {
                        "number": 64,
                        "time": 69.15749999999984,
                        "value": 0.1889763779527559
                    },
                    {
                        "number": 64,
                        "time": 69.16499999999984,
                        "value": 0
                    },
                    {
                        "number": 64,
                        "time": 69.24499999999985,
                        "value": 0.1889763779527559
                    },
                    {
                        "number": 64,
                        "time": 69.24749999999985,
                        "value": 0.4409448818897638
                    },
                    {
                        "number": 64,
                        "time": 69.25249999999984,
                        "value": 0.6929133858267716
                    },
                    {
                        "number": 64,
                        "time": 69.25749999999984,
                        "value": 1
                    },
                    {
                        "number": 64,
                        "time": 69.99999999999979,
                        "value": 0.8188976377952756
                    },
                    {
                        "number": 64,
                        "time": 70.00499999999978,
                        "value": 0.5669291338582677
                    },
                    {
                        "number": 64,
                        "time": 70.00999999999978,
                        "value": 0.1889763779527559
                    },
                    {
                        "number": 64,
                        "time": 70.01499999999977,
                        "value": 0
                    },
                    {
                        "number": 64,
                        "time": 70.07499999999976,
                        "value": 0.1889763779527559
                    },
                    {
                        "number": 64,
                        "time": 70.07999999999976,
                        "value": 0.31496062992125984
                    },
                    {
                        "number": 64,
                        "time": 70.08499999999975,
                        "value": 0.5669291338582677
                    },
                    {
                        "number": 64,
                        "time": 70.09249999999975,
                        "value": 1
                    },
                    {
                        "number": 64,
                        "time": 70.92749999999975,
                        "value": 0.6929133858267716
                    },
                    {
                        "number": 64,
                        "time": 70.93249999999975,
                        "value": 0.4409448818897638
                    },
                    {
                        "number": 64,
                        "time": 70.93499999999975,
                        "value": 0.1889763779527559
                    },
                    {
                        "number": 64,
                        "time": 70.94249999999974,
                        "value": 0
                    },
                    {
                        "number": 64,
                        "time": 71.02249999999974,
                        "value": 0.31496062992125984
                    },
                    {
                        "number": 64,
                        "time": 71.02499999999974,
                        "value": 0.5669291338582677
                    },
                    {
                        "number": 64,
                        "time": 71.03249999999973,
                        "value": 0.8188976377952756
                    },
                    {
                        "number": 64,
                        "time": 71.03499999999973,
                        "value": 1
                    },
                    {
                        "number": 64,
                        "time": 71.79499999999973,
                        "value": 0.8188976377952756
                    },
                    {
                        "number": 64,
                        "time": 71.80249999999972,
                        "value": 0.5669291338582677
                    },
                    {
                        "number": 64,
                        "time": 71.80749999999972,
                        "value": 0.1889763779527559
                    },
                    {
                        "number": 64,
                        "time": 71.81249999999972,
                        "value": 0
                    },
                    {
                        "number": 64,
                        "time": 71.86499999999972,
                        "value": 0.31496062992125984
                    },
                    {
                        "number": 64,
                        "time": 71.87249999999972,
                        "value": 0.6929133858267716
                    },
                    {
                        "number": 64,
                        "time": 71.87749999999971,
                        "value": 1
                    },
                    {
                        "number": 64,
                        "time": 72.8024999999997,
                        "value": 0.6929133858267716
                    },
                    {
                        "number": 64,
                        "time": 72.80749999999969,
                        "value": 0.31496062992125984
                    },
                    {
                        "number": 64,
                        "time": 72.81249999999969,
                        "value": 0
                    },
                    {
                        "number": 64,
                        "time": 72.9124999999997,
                        "value": 0.1889763779527559
                    },
                    {
                        "number": 64,
                        "time": 72.91749999999969,
                        "value": 0.5669291338582677
                    },
                    {
                        "number": 64,
                        "time": 72.92249999999969,
                        "value": 1
                    },
                    {
                        "number": 64,
                        "time": 73.70249999999966,
                        "value": 0.8188976377952756
                    },
                    {
                        "number": 64,
                        "time": 73.70749999999965,
                        "value": 0.5669291338582677
                    },
                    {
                        "number": 64,
                        "time": 73.71249999999965,
                        "value": 0.31496062992125984
                    },
                    {
                        "number": 64,
                        "time": 73.71749999999965,
                        "value": 0
                    },
                    {
                        "number": 64,
                        "time": 73.82249999999964,
                        "value": 0.1889763779527559
                    },
                    {
                        "number": 64,
                        "time": 73.82999999999963,
                        "value": 0.5669291338582677
                    },
                    {
                        "number": 64,
                        "time": 73.83499999999962,
                        "value": 0.8188976377952756
                    },
                    {
                        "number": 64,
                        "time": 73.83999999999962,
                        "value": 1
                    },
                    {
                        "number": 64,
                        "time": 74.57499999999959,
                        "value": 0.6929133858267716
                    },
                    {
                        "number": 64,
                        "time": 74.57999999999959,
                        "value": 0.4409448818897638
                    },
                    {
                        "number": 64,
                        "time": 74.58499999999958,
                        "value": 0.31496062992125984
                    },
                    {
                        "number": 64,
                        "time": 74.58999999999958,
                        "value": 0
                    },
                    {
                        "number": 64,
                        "time": 74.72499999999957,
                        "value": 0.31496062992125984
                    },
                    {
                        "number": 64,
                        "time": 74.73249999999956,
                        "value": 0.4409448818897638
                    },
                    {
                        "number": 64,
                        "time": 74.73499999999956,
                        "value": 0.6929133858267716
                    },
                    {
                        "number": 64,
                        "time": 74.73999999999955,
                        "value": 0.8188976377952756
                    },
                    {
                        "number": 64,
                        "time": 74.74499999999955,
                        "value": 1
                    },
                    {
                        "number": 64,
                        "time": 75.07999999999954,
                        "value": 0.8188976377952756
                    },
                    {
                        "number": 64,
                        "time": 75.08999999999955,
                        "value": 0.6929133858267716
                    },
                    {
                        "number": 64,
                        "time": 75.09999999999954,
                        "value": 0.5669291338582677
                    },
                    {
                        "number": 64,
                        "time": 75.11499999999954,
                        "value": 0.4409448818897638
                    },
                    {
                        "number": 64,
                        "time": 75.14499999999953,
                        "value": 0.5669291338582677
                    },
                    {
                        "number": 64,
                        "time": 75.15999999999953,
                        "value": 0.6929133858267716
                    },
                    {
                        "number": 64,
                        "time": 75.19999999999953,
                        "value": 0.8188976377952756
                    },
                    {
                        "number": 64,
                        "time": 75.25999999999951,
                        "value": 1
                    },
                    {
                        "number": 64,
                        "time": 75.39499999999951,
                        "value": 0.8188976377952756
                    },
                    {
                        "number": 64,
                        "time": 75.39999999999951,
                        "value": 0.5669291338582677
                    },
                    {
                        "number": 64,
                        "time": 75.4049999999995,
                        "value": 0.4409448818897638
                    },
                    {
                        "number": 64,
                        "time": 75.4099999999995,
                        "value": 0.1889763779527559
                    },
                    {
                        "number": 64,
                        "time": 75.4149999999995,
                        "value": 0
                    },
                    {
                        "number": 64,
                        "time": 75.50499999999948,
                        "value": 0.1889763779527559
                    },
                    {
                        "number": 64,
                        "time": 75.50999999999948,
                        "value": 0.31496062992125984
                    },
                    {
                        "number": 64,
                        "time": 75.51499999999947,
                        "value": 0.4409448818897638
                    },
                    {
                        "number": 64,
                        "time": 75.51999999999947,
                        "value": 0.6929133858267716
                    },
                    {
                        "number": 64,
                        "time": 75.52499999999947,
                        "value": 1
                    },
                    {
                        "number": 64,
                        "time": 76.57999999999944,
                        "value": 0.6929133858267716
                    },
                    {
                        "number": 64,
                        "time": 76.58749999999944,
                        "value": 0.4409448818897638
                    },
                    {
                        "number": 64,
                        "time": 76.59499999999943,
                        "value": 0.1889763779527559
                    },
                    {
                        "number": 64,
                        "time": 76.59749999999943,
                        "value": 0
                    },
                    {
                        "number": 64,
                        "time": 76.7049999999994,
                        "value": 0.31496062992125984
                    },
                    {
                        "number": 64,
                        "time": 76.7099999999994,
                        "value": 0.4409448818897638
                    },
                    {
                        "number": 64,
                        "time": 76.71499999999939,
                        "value": 0.6929133858267716
                    },
                    {
                        "number": 64,
                        "time": 76.71749999999939,
                        "value": 0.8188976377952756
                    },
                    {
                        "number": 64,
                        "time": 76.72499999999938,
                        "value": 1
                    },
                    {
                        "number": 64,
                        "time": 77.38499999999937,
                        "value": 0.8188976377952756
                    },
                    {
                        "number": 64,
                        "time": 77.39249999999936,
                        "value": 0.6929133858267716
                    },
                    {
                        "number": 64,
                        "time": 77.39499999999936,
                        "value": 0.4409448818897638
                    },
                    {
                        "number": 64,
                        "time": 77.40249999999935,
                        "value": 0.31496062992125984
                    },
                    {
                        "number": 64,
                        "time": 77.40499999999935,
                        "value": 0
                    },
                    {
                        "number": 64,
                        "time": 77.49999999999935,
                        "value": 0.31496062992125984
                    },
                    {
                        "number": 64,
                        "time": 77.50499999999934,
                        "value": 0.5669291338582677
                    },
                    {
                        "number": 64,
                        "time": 77.50999999999934,
                        "value": 0.6929133858267716
                    },
                    {
                        "number": 64,
                        "time": 77.51499999999933,
                        "value": 1
                    },
                    {
                        "number": 64,
                        "time": 78.22249999999931,
                        "value": 0.6929133858267716
                    },
                    {
                        "number": 64,
                        "time": 78.22499999999931,
                        "value": 0.4409448818897638
                    },
                    {
                        "number": 64,
                        "time": 78.2324999999993,
                        "value": 0.1889763779527559
                    },
                    {
                        "number": 64,
                        "time": 78.2374999999993,
                        "value": 0
                    },
                    {
                        "number": 64,
                        "time": 78.2924999999993,
                        "value": 0.1889763779527559
                    },
                    {
                        "number": 64,
                        "time": 78.29749999999929,
                        "value": 0.4409448818897638
                    },
                    {
                        "number": 64,
                        "time": 78.30249999999928,
                        "value": 0.6929133858267716
                    },
                    {
                        "number": 64,
                        "time": 78.30999999999928,
                        "value": 0.8188976377952756
                    },
                    {
                        "number": 64,
                        "time": 78.31499999999927,
                        "value": 1
                    },
                    {
                        "number": 64,
                        "time": 79.09999999999923,
                        "value": 0.5669291338582677
                    },
                    {
                        "number": 64,
                        "time": 79.10499999999922,
                        "value": 0.31496062992125984
                    },
                    {
                        "number": 64,
                        "time": 79.10999999999922,
                        "value": 0
                    },
                    {
                        "number": 64,
                        "time": 79.19749999999921,
                        "value": 0.1889763779527559
                    },
                    {
                        "number": 64,
                        "time": 79.2024999999992,
                        "value": 0.4409448818897638
                    },
                    {
                        "number": 64,
                        "time": 79.2074999999992,
                        "value": 0.6929133858267716
                    },
                    {
                        "number": 64,
                        "time": 79.2124999999992,
                        "value": 1
                    },
                    {
                        "number": 64,
                        "time": 80.14249999999915,
                        "value": 0.8188976377952756
                    },
                    {
                        "number": 64,
                        "time": 80.14749999999914,
                        "value": 0.5669291338582677
                    },
                    {
                        "number": 64,
                        "time": 80.15249999999914,
                        "value": 0.1889763779527559
                    },
                    {
                        "number": 64,
                        "time": 80.15749999999913,
                        "value": 0
                    },
                    {
                        "number": 64,
                        "time": 80.23499999999912,
                        "value": 0.1889763779527559
                    },
                    {
                        "number": 64,
                        "time": 80.23999999999911,
                        "value": 0.4409448818897638
                    },
                    {
                        "number": 64,
                        "time": 80.24499999999911,
                        "value": 0.6929133858267716
                    },
                    {
                        "number": 64,
                        "time": 80.2499999999991,
                        "value": 1
                    },
                    {
                        "number": 64,
                        "time": 83.44249999999897,
                        "value": 0.6929133858267716
                    },
                    {
                        "number": 64,
                        "time": 83.44499999999897,
                        "value": 0.4409448818897638
                    },
                    {
                        "number": 64,
                        "time": 83.45249999999896,
                        "value": 0
                    },
                    {
                        "number": 64,
                        "time": 83.51249999999895,
                        "value": 0.31496062992125984
                    },
                    {
                        "number": 64,
                        "time": 83.51499999999895,
                        "value": 0.5669291338582677
                    },
                    {
                        "number": 64,
                        "time": 83.52249999999894,
                        "value": 1
                    },
                    {
                        "number": 64,
                        "time": 90.98249999999888,
                        "value": 0.8188976377952756
                    },
                    {
                        "number": 64,
                        "time": 90.98749999999887,
                        "value": 0.6929133858267716
                    },
                    {
                        "number": 64,
                        "time": 90.99249999999887,
                        "value": 0.5669291338582677
                    },
                    {
                        "number": 64,
                        "time": 91.00249999999888,
                        "value": 0.4409448818897638
                    },
                    {
                        "number": 64,
                        "time": 91.00749999999887,
                        "value": 0.31496062992125984
                    },
                    {
                        "number": 64,
                        "time": 91.01249999999887,
                        "value": 0.1889763779527559
                    },
                    {
                        "number": 64,
                        "time": 91.01749999999886,
                        "value": 0
                    },
                    {
                        "number": 64,
                        "time": 91.11249999999886,
                        "value": 0.1889763779527559
                    },
                    {
                        "number": 64,
                        "time": 91.12249999999887,
                        "value": 0.31496062992125984
                    },
                    {
                        "number": 64,
                        "time": 91.12749999999886,
                        "value": 0.4409448818897638
                    },
                    {
                        "number": 64,
                        "time": 91.13249999999886,
                        "value": 0.5669291338582677
                    },
                    {
                        "number": 64,
                        "time": 91.13749999999885,
                        "value": 0.6929133858267716
                    },
                    {
                        "number": 64,
                        "time": 91.14749999999886,
                        "value": 0.8188976377952756
                    },
                    {
                        "number": 64,
                        "time": 91.15249999999885,
                        "value": 1
                    },
                    {
                        "number": 64,
                        "time": 92.26499999999885,
                        "value": 0.8188976377952756
                    },
                    {
                        "number": 64,
                        "time": 92.26999999999884,
                        "value": 0.6929133858267716
                    },
                    {
                        "number": 64,
                        "time": 92.27499999999884,
                        "value": 0.5669291338582677
                    },
                    {
                        "number": 64,
                        "time": 92.27999999999884,
                        "value": 0.4409448818897638
                    },
                    {
                        "number": 64,
                        "time": 92.28499999999883,
                        "value": 0.31496062992125984
                    },
                    {
                        "number": 64,
                        "time": 92.28999999999883,
                        "value": 0.1889763779527559
                    },
                    {
                        "number": 64,
                        "time": 92.29499999999882,
                        "value": 0
                    },
                    {
                        "number": 64,
                        "time": 92.36999999999883,
                        "value": 0.1889763779527559
                    },
                    {
                        "number": 64,
                        "time": 92.37999999999883,
                        "value": 0.31496062992125984
                    },
                    {
                        "number": 64,
                        "time": 92.38499999999883,
                        "value": 0.4409448818897638
                    },
                    {
                        "number": 64,
                        "time": 92.38999999999882,
                        "value": 0.5669291338582677
                    },
                    {
                        "number": 64,
                        "time": 92.39499999999882,
                        "value": 0.6929133858267716
                    },
                    {
                        "number": 64,
                        "time": 92.39999999999881,
                        "value": 0.8188976377952756
                    },
                    {
                        "number": 64,
                        "time": 92.40499999999881,
                        "value": 1
                    },
                    {
                        "number": 64,
                        "time": 93.3149999999988,
                        "value": 0.8188976377952756
                    },
                    {
                        "number": 64,
                        "time": 93.3199999999988,
                        "value": 0.6929133858267716
                    },
                    {
                        "number": 64,
                        "time": 93.3249999999988,
                        "value": 0.4409448818897638
                    },
                    {
                        "number": 64,
                        "time": 93.32999999999879,
                        "value": 0.31496062992125984
                    },
                    {
                        "number": 64,
                        "time": 93.33499999999879,
                        "value": 0.1889763779527559
                    },
                    {
                        "number": 64,
                        "time": 93.33999999999878,
                        "value": 0
                    },
                    {
                        "number": 64,
                        "time": 93.42499999999878,
                        "value": 0.1889763779527559
                    },
                    {
                        "number": 64,
                        "time": 93.42999999999877,
                        "value": 0.31496062992125984
                    },
                    {
                        "number": 64,
                        "time": 93.43499999999877,
                        "value": 0.4409448818897638
                    },
                    {
                        "number": 64,
                        "time": 93.43999999999876,
                        "value": 0.5669291338582677
                    },
                    {
                        "number": 64,
                        "time": 93.44499999999876,
                        "value": 0.6929133858267716
                    },
                    {
                        "number": 64,
                        "time": 93.44999999999875,
                        "value": 0.8188976377952756
                    },
                    {
                        "number": 64,
                        "time": 93.45999999999876,
                        "value": 1
                    },
                    {
                        "number": 64,
                        "time": 94.23249999999875,
                        "value": 0.8188976377952756
                    },
                    {
                        "number": 64,
                        "time": 94.23749999999875,
                        "value": 0.5669291338582677
                    },
                    {
                        "number": 64,
                        "time": 94.24499999999874,
                        "value": 0.4409448818897638
                    },
                    {
                        "number": 64,
                        "time": 94.24999999999874,
                        "value": 0.1889763779527559
                    },
                    {
                        "number": 64,
                        "time": 94.25499999999873,
                        "value": 0
                    },
                    {
                        "number": 64,
                        "time": 94.33749999999874,
                        "value": 0.1889763779527559
                    },
                    {
                        "number": 64,
                        "time": 94.34499999999873,
                        "value": 0.31496062992125984
                    },
                    {
                        "number": 64,
                        "time": 94.34749999999873,
                        "value": 0.4409448818897638
                    },
                    {
                        "number": 64,
                        "time": 94.35499999999873,
                        "value": 0.5669291338582677
                    },
                    {
                        "number": 64,
                        "time": 94.35749999999872,
                        "value": 0.6929133858267716
                    },
                    {
                        "number": 64,
                        "time": 94.36499999999872,
                        "value": 0.8188976377952756
                    },
                    {
                        "number": 64,
                        "time": 94.3749999999987,
                        "value": 1
                    },
                    {
                        "number": 64,
                        "time": 95.2449999999987,
                        "value": 0.6929133858267716
                    },
                    {
                        "number": 64,
                        "time": 95.24999999999869,
                        "value": 0.5669291338582677
                    },
                    {
                        "number": 64,
                        "time": 95.25499999999869,
                        "value": 0.4409448818897638
                    },
                    {
                        "number": 64,
                        "time": 95.26249999999868,
                        "value": 0.31496062992125984
                    },
                    {
                        "number": 64,
                        "time": 95.26499999999868,
                        "value": 0
                    },
                    {
                        "number": 64,
                        "time": 95.36499999999867,
                        "value": 0.1889763779527559
                    },
                    {
                        "number": 64,
                        "time": 95.37249999999867,
                        "value": 0.31496062992125984
                    },
                    {
                        "number": 64,
                        "time": 95.37499999999866,
                        "value": 0.4409448818897638
                    },
                    {
                        "number": 64,
                        "time": 95.38249999999866,
                        "value": 0.5669291338582677
                    },
                    {
                        "number": 64,
                        "time": 95.38499999999866,
                        "value": 0.6929133858267716
                    },
                    {
                        "number": 64,
                        "time": 95.39249999999865,
                        "value": 0.8188976377952756
                    },
                    {
                        "number": 64,
                        "time": 95.39499999999865,
                        "value": 1
                    },
                    {
                        "number": 64,
                        "time": 96.13749999999865,
                        "value": 0.8188976377952756
                    },
                    {
                        "number": 64,
                        "time": 96.14249999999865,
                        "value": 0.6929133858267716
                    },
                    {
                        "number": 64,
                        "time": 96.14749999999864,
                        "value": 0.4409448818897638
                    },
                    {
                        "number": 64,
                        "time": 96.15249999999864,
                        "value": 0.31496062992125984
                    },
                    {
                        "number": 64,
                        "time": 96.15749999999863,
                        "value": 0.1889763779527559
                    },
                    {
                        "number": 64,
                        "time": 96.16249999999863,
                        "value": 0
                    },
                    {
                        "number": 64,
                        "time": 96.25249999999862,
                        "value": 0.1889763779527559
                    },
                    {
                        "number": 64,
                        "time": 96.25749999999861,
                        "value": 0.31496062992125984
                    },
                    {
                        "number": 64,
                        "time": 96.26249999999861,
                        "value": 0.4409448818897638
                    },
                    {
                        "number": 64,
                        "time": 96.26499999999861,
                        "value": 0.5669291338582677
                    },
                    {
                        "number": 64,
                        "time": 96.2724999999986,
                        "value": 0.6929133858267716
                    },
                    {
                        "number": 64,
                        "time": 96.2749999999986,
                        "value": 0.8188976377952756
                    },
                    {
                        "number": 64,
                        "time": 96.28249999999859,
                        "value": 1
                    },
                    {
                        "number": 64,
                        "time": 97.11499999999856,
                        "value": 0.8188976377952756
                    },
                    {
                        "number": 64,
                        "time": 97.11749999999856,
                        "value": 0.6929133858267716
                    },
                    {
                        "number": 64,
                        "time": 97.12499999999855,
                        "value": 0.5669291338582677
                    },
                    {
                        "number": 64,
                        "time": 97.12999999999855,
                        "value": 0.4409448818897638
                    },
                    {
                        "number": 64,
                        "time": 97.13499999999854,
                        "value": 0.1889763779527559
                    },
                    {
                        "number": 64,
                        "time": 97.13999999999854,
                        "value": 0
                    },
                    {
                        "number": 64,
                        "time": 97.23499999999854,
                        "value": 0.1889763779527559
                    },
                    {
                        "number": 64,
                        "time": 97.23999999999853,
                        "value": 0.31496062992125984
                    },
                    {
                        "number": 64,
                        "time": 97.24499999999853,
                        "value": 0.4409448818897638
                    },
                    {
                        "number": 64,
                        "time": 97.24999999999852,
                        "value": 0.5669291338582677
                    },
                    {
                        "number": 64,
                        "time": 97.25499999999852,
                        "value": 0.6929133858267716
                    },
                    {
                        "number": 64,
                        "time": 97.25999999999851,
                        "value": 0.8188976377952756
                    },
                    {
                        "number": 64,
                        "time": 97.26999999999852,
                        "value": 1
                    },
                    {
                        "number": 64,
                        "time": 98.09999999999849,
                        "value": 0.8188976377952756
                    },
                    {
                        "number": 64,
                        "time": 98.10499999999848,
                        "value": 0.6929133858267716
                    },
                    {
                        "number": 64,
                        "time": 98.10999999999848,
                        "value": 0.5669291338582677
                    },
                    {
                        "number": 64,
                        "time": 98.11499999999847,
                        "value": 0.4409448818897638
                    },
                    {
                        "number": 64,
                        "time": 98.11999999999847,
                        "value": 0.1889763779527559
                    },
                    {
                        "number": 64,
                        "time": 98.12499999999847,
                        "value": 0
                    },
                    {
                        "number": 64,
                        "time": 98.22749999999846,
                        "value": 0.1889763779527559
                    },
                    {
                        "number": 64,
                        "time": 98.23249999999845,
                        "value": 0.31496062992125984
                    },
                    {
                        "number": 64,
                        "time": 98.23749999999845,
                        "value": 0.4409448818897638
                    },
                    {
                        "number": 64,
                        "time": 98.24249999999844,
                        "value": 0.5669291338582677
                    },
                    {
                        "number": 64,
                        "time": 98.24749999999844,
                        "value": 0.6929133858267716
                    },
                    {
                        "number": 64,
                        "time": 98.25249999999843,
                        "value": 0.8188976377952756
                    },
                    {
                        "number": 64,
                        "time": 98.25749999999843,
                        "value": 1
                    },
                    {
                        "number": 64,
                        "time": 99.40749999999842,
                        "value": 0.8188976377952756
                    },
                    {
                        "number": 64,
                        "time": 99.41499999999841,
                        "value": 0.6929133858267716
                    },
                    {
                        "number": 64,
                        "time": 99.41749999999841,
                        "value": 0.5669291338582677
                    },
                    {
                        "number": 64,
                        "time": 99.4249999999984,
                        "value": 0.4409448818897638
                    },
                    {
                        "number": 64,
                        "time": 99.4274999999984,
                        "value": 0.31496062992125984
                    },
                    {
                        "number": 64,
                        "time": 99.4349999999984,
                        "value": 0.1889763779527559
                    },
                    {
                        "number": 64,
                        "time": 99.4374999999984,
                        "value": 0
                    },
                    {
                        "number": 64,
                        "time": 99.50499999999839,
                        "value": 0.1889763779527559
                    },
                    {
                        "number": 64,
                        "time": 99.51249999999838,
                        "value": 0.31496062992125984
                    },
                    {
                        "number": 64,
                        "time": 99.52499999999837,
                        "value": 0.4409448818897638
                    },
                    {
                        "number": 64,
                        "time": 99.52999999999837,
                        "value": 0.5669291338582677
                    },
                    {
                        "number": 64,
                        "time": 99.53499999999836,
                        "value": 0.6929133858267716
                    },
                    {
                        "number": 64,
                        "time": 99.53749999999836,
                        "value": 0.8188976377952756
                    },
                    {
                        "number": 64,
                        "time": 99.54499999999835,
                        "value": 1
                    },
                    {
                        "number": 64,
                        "time": 100.54999999999835,
                        "value": 0.8188976377952756
                    },
                    {
                        "number": 64,
                        "time": 100.55499999999834,
                        "value": 0.6929133858267716
                    },
                    {
                        "number": 64,
                        "time": 100.55999999999834,
                        "value": 0.5669291338582677
                    },
                    {
                        "number": 64,
                        "time": 100.56499999999834,
                        "value": 0.4409448818897638
                    },
                    {
                        "number": 64,
                        "time": 100.56749999999833,
                        "value": 0.31496062992125984
                    },
                    {
                        "number": 64,
                        "time": 100.57499999999833,
                        "value": 0.1889763779527559
                    },
                    {
                        "number": 64,
                        "time": 100.61499999999833,
                        "value": 0.31496062992125984
                    },
                    {
                        "number": 64,
                        "time": 100.61999999999833,
                        "value": 0.4409448818897638
                    },
                    {
                        "number": 64,
                        "time": 100.62499999999832,
                        "value": 0.5669291338582677
                    },
                    {
                        "number": 64,
                        "time": 100.63499999999833,
                        "value": 0.6929133858267716
                    },
                    {
                        "number": 64,
                        "time": 100.63749999999833,
                        "value": 0.8188976377952756
                    },
                    {
                        "number": 64,
                        "time": 100.64499999999832,
                        "value": 1
                    },
                    {
                        "number": 64,
                        "time": 101.4799999999983,
                        "value": 0.8188976377952756
                    },
                    {
                        "number": 64,
                        "time": 101.4849999999983,
                        "value": 0.5669291338582677
                    },
                    {
                        "number": 64,
                        "time": 101.48999999999829,
                        "value": 0.4409448818897638
                    },
                    {
                        "number": 64,
                        "time": 101.49499999999829,
                        "value": 0.31496062992125984
                    },
                    {
                        "number": 64,
                        "time": 101.49749999999828,
                        "value": 0
                    },
                    {
                        "number": 64,
                        "time": 101.56499999999826,
                        "value": 0.1889763779527559
                    },
                    {
                        "number": 64,
                        "time": 101.56999999999826,
                        "value": 0.31496062992125984
                    },
                    {
                        "number": 64,
                        "time": 101.57499999999825,
                        "value": 0.4409448818897638
                    },
                    {
                        "number": 64,
                        "time": 101.57999999999825,
                        "value": 0.5669291338582677
                    },
                    {
                        "number": 64,
                        "time": 101.58499999999825,
                        "value": 0.6929133858267716
                    },
                    {
                        "number": 64,
                        "time": 101.58999999999824,
                        "value": 0.8188976377952756
                    },
                    {
                        "number": 64,
                        "time": 101.59499999999824,
                        "value": 1
                    },
                    {
                        "number": 64,
                        "time": 102.37999999999823,
                        "value": 0.8188976377952756
                    },
                    {
                        "number": 64,
                        "time": 102.38499999999823,
                        "value": 0.6929133858267716
                    },
                    {
                        "number": 64,
                        "time": 102.38999999999822,
                        "value": 0.5669291338582677
                    },
                    {
                        "number": 64,
                        "time": 102.39499999999822,
                        "value": 0.31496062992125984
                    },
                    {
                        "number": 64,
                        "time": 102.40249999999821,
                        "value": 0
                    },
                    {
                        "number": 64,
                        "time": 102.45999999999822,
                        "value": 0.1889763779527559
                    },
                    {
                        "number": 64,
                        "time": 102.46499999999821,
                        "value": 0.31496062992125984
                    },
                    {
                        "number": 64,
                        "time": 102.4749999999982,
                        "value": 0.4409448818897638
                    },
                    {
                        "number": 64,
                        "time": 102.4799999999982,
                        "value": 0.5669291338582677
                    },
                    {
                        "number": 64,
                        "time": 102.4849999999982,
                        "value": 0.6929133858267716
                    },
                    {
                        "number": 64,
                        "time": 102.48999999999819,
                        "value": 0.8188976377952756
                    },
                    {
                        "number": 64,
                        "time": 102.49499999999819,
                        "value": 1
                    },
                    {
                        "number": 64,
                        "time": 103.39499999999819,
                        "value": 0.8188976377952756
                    },
                    {
                        "number": 64,
                        "time": 103.39999999999819,
                        "value": 0.6929133858267716
                    },
                    {
                        "number": 64,
                        "time": 103.40749999999818,
                        "value": 0.4409448818897638
                    },
                    {
                        "number": 64,
                        "time": 103.41249999999818,
                        "value": 0.31496062992125984
                    },
                    {
                        "number": 64,
                        "time": 103.41999999999817,
                        "value": 0.1889763779527559
                    },
                    {
                        "number": 64,
                        "time": 103.42249999999817,
                        "value": 0
                    },
                    {
                        "number": 64,
                        "time": 103.49999999999817,
                        "value": 0.1889763779527559
                    },
                    {
                        "number": 64,
                        "time": 103.50499999999816,
                        "value": 0.31496062992125984
                    },
                    {
                        "number": 64,
                        "time": 103.50999999999816,
                        "value": 0.4409448818897638
                    },
                    {
                        "number": 64,
                        "time": 103.51999999999816,
                        "value": 0.5669291338582677
                    },
                    {
                        "number": 64,
                        "time": 103.52499999999816,
                        "value": 0.8188976377952756
                    },
                    {
                        "number": 64,
                        "time": 103.53499999999816,
                        "value": 1
                    },
                    {
                        "number": 64,
                        "time": 104.31249999999817,
                        "value": 0.6929133858267716
                    },
                    {
                        "number": 64,
                        "time": 104.31999999999816,
                        "value": 0.4409448818897638
                    },
                    {
                        "number": 64,
                        "time": 104.32499999999816,
                        "value": 0.31496062992125984
                    },
                    {
                        "number": 64,
                        "time": 104.33249999999815,
                        "value": 0.1889763779527559
                    },
                    {
                        "number": 64,
                        "time": 104.33749999999814,
                        "value": 0
                    },
                    {
                        "number": 64,
                        "time": 104.38749999999814,
                        "value": 0.1889763779527559
                    },
                    {
                        "number": 64,
                        "time": 104.39749999999815,
                        "value": 0.31496062992125984
                    },
                    {
                        "number": 64,
                        "time": 104.40249999999814,
                        "value": 0.4409448818897638
                    },
                    {
                        "number": 64,
                        "time": 104.41249999999815,
                        "value": 0.5669291338582677
                    },
                    {
                        "number": 64,
                        "time": 104.41749999999814,
                        "value": 0.6929133858267716
                    },
                    {
                        "number": 64,
                        "time": 104.42249999999814,
                        "value": 0.8188976377952756
                    },
                    {
                        "number": 64,
                        "time": 104.42749999999813,
                        "value": 1
                    },
                    {
                        "number": 64,
                        "time": 105.22749999999813,
                        "value": 0.8188976377952756
                    },
                    {
                        "number": 64,
                        "time": 105.24249999999812,
                        "value": 0.5669291338582677
                    },
                    {
                        "number": 64,
                        "time": 105.24749999999811,
                        "value": 0.1889763779527559
                    },
                    {
                        "number": 64,
                        "time": 105.2549999999981,
                        "value": 0
                    },
                    {
                        "number": 64,
                        "time": 105.31499999999811,
                        "value": 0.1889763779527559
                    },
                    {
                        "number": 64,
                        "time": 105.3174999999981,
                        "value": 0.31496062992125984
                    },
                    {
                        "number": 64,
                        "time": 105.3274999999981,
                        "value": 0.4409448818897638
                    },
                    {
                        "number": 64,
                        "time": 105.33499999999809,
                        "value": 0.5669291338582677
                    },
                    {
                        "number": 64,
                        "time": 105.33749999999809,
                        "value": 0.6929133858267716
                    },
                    {
                        "number": 64,
                        "time": 105.34499999999808,
                        "value": 0.8188976377952756
                    },
                    {
                        "number": 64,
                        "time": 105.34749999999808,
                        "value": 1
                    },
                    {
                        "number": 64,
                        "time": 106.25499999999806,
                        "value": 0.6929133858267716
                    },
                    {
                        "number": 64,
                        "time": 106.25749999999806,
                        "value": 0.4409448818897638
                    },
                    {
                        "number": 64,
                        "time": 106.26749999999807,
                        "value": 0.1889763779527559
                    },
                    {
                        "number": 64,
                        "time": 106.27499999999806,
                        "value": 0
                    },
                    {
                        "number": 64,
                        "time": 106.35499999999806,
                        "value": 0.1889763779527559
                    },
                    {
                        "number": 64,
                        "time": 106.36499999999806,
                        "value": 0.31496062992125984
                    },
                    {
                        "number": 64,
                        "time": 106.36749999999806,
                        "value": 0.4409448818897638
                    },
                    {
                        "number": 64,
                        "time": 106.37499999999805,
                        "value": 0.5669291338582677
                    },
                    {
                        "number": 64,
                        "time": 106.37999999999805,
                        "value": 0.6929133858267716
                    },
                    {
                        "number": 64,
                        "time": 106.38499999999804,
                        "value": 0.8188976377952756
                    },
                    {
                        "number": 64,
                        "time": 106.38999999999804,
                        "value": 1
                    },
                    {
                        "number": 64,
                        "time": 107.11999999999806,
                        "value": 0.8188976377952756
                    },
                    {
                        "number": 64,
                        "time": 107.12499999999805,
                        "value": 0.5669291338582677
                    },
                    {
                        "number": 64,
                        "time": 107.12999999999805,
                        "value": 0.4409448818897638
                    },
                    {
                        "number": 64,
                        "time": 107.13499999999804,
                        "value": 0.1889763779527559
                    },
                    {
                        "number": 64,
                        "time": 107.13999999999804,
                        "value": 0
                    },
                    {
                        "number": 64,
                        "time": 107.21249999999803,
                        "value": 0.1889763779527559
                    },
                    {
                        "number": 64,
                        "time": 107.21499999999803,
                        "value": 0.31496062992125984
                    },
                    {
                        "number": 64,
                        "time": 107.22249999999802,
                        "value": 0.4409448818897638
                    },
                    {
                        "number": 64,
                        "time": 107.22749999999802,
                        "value": 0.5669291338582677
                    },
                    {
                        "number": 64,
                        "time": 107.23249999999801,
                        "value": 0.6929133858267716
                    },
                    {
                        "number": 64,
                        "time": 107.23749999999801,
                        "value": 0.8188976377952756
                    },
                    {
                        "number": 64,
                        "time": 107.242499999998,
                        "value": 1
                    },
                    {
                        "number": 64,
                        "time": 108.052499999998,
                        "value": 0.8188976377952756
                    },
                    {
                        "number": 64,
                        "time": 108.057499999998,
                        "value": 0.5669291338582677
                    },
                    {
                        "number": 64,
                        "time": 108.062499999998,
                        "value": 0.4409448818897638
                    },
                    {
                        "number": 64,
                        "time": 108.06749999999799,
                        "value": 0.1889763779527559
                    },
                    {
                        "number": 64,
                        "time": 108.07499999999798,
                        "value": 0
                    },
                    {
                        "number": 64,
                        "time": 108.16249999999798,
                        "value": 0.1889763779527559
                    },
                    {
                        "number": 64,
                        "time": 108.16749999999797,
                        "value": 0.31496062992125984
                    },
                    {
                        "number": 64,
                        "time": 108.17249999999797,
                        "value": 0.4409448818897638
                    },
                    {
                        "number": 64,
                        "time": 108.17749999999796,
                        "value": 0.5669291338582677
                    },
                    {
                        "number": 64,
                        "time": 108.18249999999796,
                        "value": 0.6929133858267716
                    },
                    {
                        "number": 64,
                        "time": 108.18749999999795,
                        "value": 0.8188976377952756
                    },
                    {
                        "number": 64,
                        "time": 108.19499999999795,
                        "value": 1
                    },
                    {
                        "number": 64,
                        "time": 108.95999999999793,
                        "value": 0.6929133858267716
                    },
                    {
                        "number": 64,
                        "time": 108.96749999999793,
                        "value": 0.5669291338582677
                    },
                    {
                        "number": 64,
                        "time": 108.97249999999792,
                        "value": 0.31496062992125984
                    },
                    {
                        "number": 64,
                        "time": 108.97499999999792,
                        "value": 0
                    },
                    {
                        "number": 64,
                        "time": 109.04499999999791,
                        "value": 0.1889763779527559
                    },
                    {
                        "number": 64,
                        "time": 109.04749999999791,
                        "value": 0.31496062992125984
                    },
                    {
                        "number": 64,
                        "time": 109.05749999999792,
                        "value": 0.4409448818897638
                    },
                    {
                        "number": 64,
                        "time": 109.06249999999791,
                        "value": 0.5669291338582677
                    },
                    {
                        "number": 64,
                        "time": 109.0674999999979,
                        "value": 0.6929133858267716
                    },
                    {
                        "number": 64,
                        "time": 109.0724999999979,
                        "value": 0.8188976377952756
                    },
                    {
                        "number": 64,
                        "time": 109.0774999999979,
                        "value": 1
                    },
                    {
                        "number": 64,
                        "time": 109.92749999999786,
                        "value": 0.6929133858267716
                    },
                    {
                        "number": 64,
                        "time": 109.93499999999786,
                        "value": 0.4409448818897638
                    },
                    {
                        "number": 64,
                        "time": 109.94499999999785,
                        "value": 0
                    },
                    {
                        "number": 64,
                        "time": 110.03499999999784,
                        "value": 0.1889763779527559
                    },
                    {
                        "number": 64,
                        "time": 110.03999999999783,
                        "value": 0.31496062992125984
                    },
                    {
                        "number": 64,
                        "time": 110.04499999999783,
                        "value": 0.4409448818897638
                    },
                    {
                        "number": 64,
                        "time": 110.04999999999782,
                        "value": 0.5669291338582677
                    },
                    {
                        "number": 64,
                        "time": 110.05499999999782,
                        "value": 0.6929133858267716
                    },
                    {
                        "number": 64,
                        "time": 110.05999999999781,
                        "value": 0.8188976377952756
                    },
                    {
                        "number": 64,
                        "time": 110.06499999999781,
                        "value": 1
                    },
                    {
                        "number": 64,
                        "time": 110.88499999999779,
                        "value": 0.8188976377952756
                    },
                    {
                        "number": 64,
                        "time": 110.88999999999778,
                        "value": 0.5669291338582677
                    },
                    {
                        "number": 64,
                        "time": 110.89499999999778,
                        "value": 0.4409448818897638
                    },
                    {
                        "number": 64,
                        "time": 110.89999999999777,
                        "value": 0.1889763779527559
                    },
                    {
                        "number": 64,
                        "time": 110.90499999999777,
                        "value": 0
                    },
                    {
                        "number": 64,
                        "time": 110.98499999999775,
                        "value": 0.1889763779527559
                    },
                    {
                        "number": 64,
                        "time": 110.98749999999775,
                        "value": 0.31496062992125984
                    },
                    {
                        "number": 64,
                        "time": 110.99499999999775,
                        "value": 0.4409448818897638
                    },
                    {
                        "number": 64,
                        "time": 110.99749999999774,
                        "value": 0.6929133858267716
                    },
                    {
                        "number": 64,
                        "time": 111.00749999999775,
                        "value": 0.8188976377952756
                    },
                    {
                        "number": 64,
                        "time": 111.01499999999774,
                        "value": 1
                    },
                    {
                        "number": 64,
                        "time": 111.37749999999772,
                        "value": 0.6929133858267716
                    },
                    {
                        "number": 64,
                        "time": 111.38499999999772,
                        "value": 0.5669291338582677
                    },
                    {
                        "number": 64,
                        "time": 111.38999999999771,
                        "value": 0.31496062992125984
                    },
                    {
                        "number": 64,
                        "time": 111.3974999999977,
                        "value": 0
                    },
                    {
                        "number": 64,
                        "time": 111.4499999999977,
                        "value": 0.1889763779527559
                    },
                    {
                        "number": 64,
                        "time": 111.4599999999977,
                        "value": 0.31496062992125984
                    },
                    {
                        "number": 64,
                        "time": 111.4649999999977,
                        "value": 0.4409448818897638
                    },
                    {
                        "number": 64,
                        "time": 111.4699999999977,
                        "value": 0.5669291338582677
                    },
                    {
                        "number": 64,
                        "time": 111.47499999999769,
                        "value": 0.6929133858267716
                    },
                    {
                        "number": 64,
                        "time": 111.47999999999769,
                        "value": 0.8188976377952756
                    },
                    {
                        "number": 64,
                        "time": 111.48499999999768,
                        "value": 1
                    },
                    {
                        "number": 64,
                        "time": 111.77249999999766,
                        "value": 0.6929133858267716
                    },
                    {
                        "number": 64,
                        "time": 111.77499999999766,
                        "value": 0.5669291338582677
                    },
                    {
                        "number": 64,
                        "time": 111.78249999999765,
                        "value": 0.31496062992125984
                    },
                    {
                        "number": 64,
                        "time": 111.78499999999765,
                        "value": 0
                    },
                    {
                        "number": 64,
                        "time": 111.86249999999765,
                        "value": 0.1889763779527559
                    },
                    {
                        "number": 64,
                        "time": 111.86499999999765,
                        "value": 0.4409448818897638
                    },
                    {
                        "number": 64,
                        "time": 111.87249999999764,
                        "value": 0.5669291338582677
                    },
                    {
                        "number": 64,
                        "time": 111.87499999999764,
                        "value": 0.6929133858267716
                    },
                    {
                        "number": 64,
                        "time": 111.88249999999763,
                        "value": 1
                    },
                    {
                        "number": 64,
                        "time": 112.20249999999763,
                        "value": 0.6929133858267716
                    },
                    {
                        "number": 64,
                        "time": 112.20499999999763,
                        "value": 0.4409448818897638
                    },
                    {
                        "number": 64,
                        "time": 112.21249999999762,
                        "value": 0.1889763779527559
                    },
                    {
                        "number": 64,
                        "time": 112.21499999999762,
                        "value": 0
                    },
                    {
                        "number": 64,
                        "time": 112.29249999999763,
                        "value": 0.1889763779527559
                    },
                    {
                        "number": 64,
                        "time": 112.29499999999763,
                        "value": 0.4409448818897638
                    },
                    {
                        "number": 64,
                        "time": 112.30249999999762,
                        "value": 0.6929133858267716
                    },
                    {
                        "number": 64,
                        "time": 112.30499999999762,
                        "value": 1
                    },
                    {
                        "number": 64,
                        "time": 112.62499999999761,
                        "value": 0.8188976377952756
                    },
                    {
                        "number": 64,
                        "time": 112.6324999999976,
                        "value": 0.6929133858267716
                    },
                    {
                        "number": 64,
                        "time": 112.6349999999976,
                        "value": 0.4409448818897638
                    },
                    {
                        "number": 64,
                        "time": 112.6424999999976,
                        "value": 0.31496062992125984
                    },
                    {
                        "number": 64,
                        "time": 112.6449999999976,
                        "value": 0
                    },
                    {
                        "number": 64,
                        "time": 112.7024999999976,
                        "value": 0.1889763779527559
                    },
                    {
                        "number": 64,
                        "time": 112.7049999999976,
                        "value": 0.4409448818897638
                    },
                    {
                        "number": 64,
                        "time": 112.71499999999759,
                        "value": 0.6929133858267716
                    },
                    {
                        "number": 64,
                        "time": 112.71999999999758,
                        "value": 0.8188976377952756
                    },
                    {
                        "number": 64,
                        "time": 112.72499999999758,
                        "value": 1
                    },
                    {
                        "number": 64,
                        "time": 113.0649999999976,
                        "value": 0.8188976377952756
                    },
                    {
                        "number": 64,
                        "time": 113.06999999999759,
                        "value": 0.5669291338582677
                    },
                    {
                        "number": 64,
                        "time": 113.07499999999759,
                        "value": 0.31496062992125984
                    },
                    {
                        "number": 64,
                        "time": 113.07999999999758,
                        "value": 0.1889763779527559
                    },
                    {
                        "number": 64,
                        "time": 113.08499999999758,
                        "value": 0
                    },
                    {
                        "number": 64,
                        "time": 113.13749999999757,
                        "value": 0.31496062992125984
                    },
                    {
                        "number": 64,
                        "time": 113.14249999999757,
                        "value": 0.4409448818897638
                    },
                    {
                        "number": 64,
                        "time": 113.14499999999757,
                        "value": 0.6929133858267716
                    },
                    {
                        "number": 64,
                        "time": 113.15249999999756,
                        "value": 0.8188976377952756
                    },
                    {
                        "number": 64,
                        "time": 113.15499999999756,
                        "value": 1
                    },
                    {
                        "number": 64,
                        "time": 113.60249999999756,
                        "value": 0.6929133858267716
                    },
                    {
                        "number": 64,
                        "time": 113.60499999999756,
                        "value": 0.4409448818897638
                    },
                    {
                        "number": 64,
                        "time": 113.61249999999755,
                        "value": 0
                    },
                    {
                        "number": 64,
                        "time": 113.69749999999756,
                        "value": 0.31496062992125984
                    },
                    {
                        "number": 64,
                        "time": 113.70249999999756,
                        "value": 0.6929133858267716
                    },
                    {
                        "number": 64,
                        "time": 113.70749999999755,
                        "value": 1
                    },
                    {
                        "number": 64,
                        "time": 114.68499999999752,
                        "value": 0.6929133858267716
                    },
                    {
                        "number": 64,
                        "time": 114.68999999999751,
                        "value": 0.4409448818897638
                    },
                    {
                        "number": 64,
                        "time": 114.6949999999975,
                        "value": 0
                    },
                    {
                        "number": 64,
                        "time": 114.7749999999975,
                        "value": 0.1889763779527559
                    },
                    {
                        "number": 64,
                        "time": 114.7799999999975,
                        "value": 0.31496062992125984
                    },
                    {
                        "number": 64,
                        "time": 114.7849999999975,
                        "value": 0.6929133858267716
                    },
                    {
                        "number": 64,
                        "time": 114.78999999999749,
                        "value": 1
                    },
                    {
                        "number": 64,
                        "time": 115.6624999999975,
                        "value": 0.6929133858267716
                    },
                    {
                        "number": 64,
                        "time": 115.66749999999749,
                        "value": 0.4409448818897638
                    },
                    {
                        "number": 64,
                        "time": 115.67249999999748,
                        "value": 0.1889763779527559
                    },
                    {
                        "number": 64,
                        "time": 115.67749999999748,
                        "value": 0
                    },
                    {
                        "number": 64,
                        "time": 115.72749999999748,
                        "value": 0.1889763779527559
                    },
                    {
                        "number": 64,
                        "time": 115.73249999999747,
                        "value": 0.31496062992125984
                    },
                    {
                        "number": 64,
                        "time": 115.73749999999747,
                        "value": 0.5669291338582677
                    },
                    {
                        "number": 64,
                        "time": 115.74249999999746,
                        "value": 0.6929133858267716
                    },
                    {
                        "number": 64,
                        "time": 115.74749999999746,
                        "value": 1
                    },
                    {
                        "number": 64,
                        "time": 116.80499999999746,
                        "value": 0.6929133858267716
                    },
                    {
                        "number": 64,
                        "time": 116.80749999999746,
                        "value": 0.4409448818897638
                    },
                    {
                        "number": 64,
                        "time": 116.81499999999745,
                        "value": 0.1889763779527559
                    },
                    {
                        "number": 64,
                        "time": 116.81749999999745,
                        "value": 0
                    },
                    {
                        "number": 64,
                        "time": 116.88999999999744,
                        "value": 0.1889763779527559
                    },
                    {
                        "number": 64,
                        "time": 116.89499999999744,
                        "value": 0.4409448818897638
                    },
                    {
                        "number": 64,
                        "time": 116.89999999999743,
                        "value": 0.5669291338582677
                    },
                    {
                        "number": 64,
                        "time": 116.90499999999743,
                        "value": 0.8188976377952756
                    },
                    {
                        "number": 64,
                        "time": 116.90999999999742,
                        "value": 1
                    },
                    {
                        "number": 64,
                        "time": 117.79249999999742,
                        "value": 0.6929133858267716
                    },
                    {
                        "number": 64,
                        "time": 117.79499999999742,
                        "value": 0.4409448818897638
                    },
                    {
                        "number": 64,
                        "time": 117.80249999999741,
                        "value": 0.1889763779527559
                    },
                    {
                        "number": 64,
                        "time": 117.8049999999974,
                        "value": 0
                    },
                    {
                        "number": 64,
                        "time": 117.86499999999742,
                        "value": 0.1889763779527559
                    },
                    {
                        "number": 64,
                        "time": 117.87249999999742,
                        "value": 0.31496062992125984
                    },
                    {
                        "number": 64,
                        "time": 117.87499999999741,
                        "value": 0.4409448818897638
                    },
                    {
                        "number": 64,
                        "time": 117.8824999999974,
                        "value": 0.6929133858267716
                    },
                    {
                        "number": 64,
                        "time": 117.8849999999974,
                        "value": 1
                    },
                    {
                        "number": 64,
                        "time": 118.90249999999743,
                        "value": 0.8188976377952756
                    },
                    {
                        "number": 64,
                        "time": 118.90499999999743,
                        "value": 0.5669291338582677
                    },
                    {
                        "number": 64,
                        "time": 118.91249999999742,
                        "value": 0.31496062992125984
                    },
                    {
                        "number": 64,
                        "time": 118.91499999999742,
                        "value": 0.1889763779527559
                    },
                    {
                        "number": 64,
                        "time": 118.92249999999741,
                        "value": 0
                    },
                    {
                        "number": 64,
                        "time": 118.9949999999974,
                        "value": 0.31496062992125984
                    },
                    {
                        "number": 64,
                        "time": 119.0024999999974,
                        "value": 0.4409448818897638
                    },
                    {
                        "number": 64,
                        "time": 119.00749999999739,
                        "value": 0.6929133858267716
                    },
                    {
                        "number": 64,
                        "time": 119.01249999999739,
                        "value": 1
                    },
                    {
                        "number": 64,
                        "time": 119.37499999999739,
                        "value": 0.6929133858267716
                    },
                    {
                        "number": 64,
                        "time": 119.38249999999738,
                        "value": 0.4409448818897638
                    },
                    {
                        "number": 64,
                        "time": 119.38499999999738,
                        "value": 0.31496062992125984
                    },
                    {
                        "number": 64,
                        "time": 119.39249999999737,
                        "value": 0
                    },
                    {
                        "number": 64,
                        "time": 119.45499999999737,
                        "value": 0.1889763779527559
                    },
                    {
                        "number": 64,
                        "time": 119.46249999999736,
                        "value": 0.4409448818897638
                    },
                    {
                        "number": 64,
                        "time": 119.46749999999736,
                        "value": 0.5669291338582677
                    },
                    {
                        "number": 64,
                        "time": 119.47249999999735,
                        "value": 1
                    },
                    {
                        "number": 64,
                        "time": 119.79499999999736,
                        "value": 0.8188976377952756
                    },
                    {
                        "number": 64,
                        "time": 119.80249999999735,
                        "value": 0.5669291338582677
                    },
                    {
                        "number": 64,
                        "time": 119.80749999999735,
                        "value": 0.4409448818897638
                    },
                    {
                        "number": 64,
                        "time": 119.81249999999734,
                        "value": 0.1889763779527559
                    },
                    {
                        "number": 64,
                        "time": 119.81749999999734,
                        "value": 0
                    },
                    {
                        "number": 64,
                        "time": 119.86749999999734,
                        "value": 0.1889763779527559
                    },
                    {
                        "number": 64,
                        "time": 119.87249999999733,
                        "value": 0.31496062992125984
                    },
                    {
                        "number": 64,
                        "time": 119.87999999999732,
                        "value": 0.5669291338582677
                    },
                    {
                        "number": 64,
                        "time": 119.88499999999732,
                        "value": 0.8188976377952756
                    },
                    {
                        "number": 64,
                        "time": 119.88999999999731,
                        "value": 1
                    },
                    {
                        "number": 64,
                        "time": 120.3049999999973,
                        "value": 0.6929133858267716
                    },
                    {
                        "number": 64,
                        "time": 120.3099999999973,
                        "value": 0.5669291338582677
                    },
                    {
                        "number": 64,
                        "time": 120.3149999999973,
                        "value": 0.31496062992125984
                    },
                    {
                        "number": 64,
                        "time": 120.3199999999973,
                        "value": 0.1889763779527559
                    },
                    {
                        "number": 64,
                        "time": 120.32499999999729,
                        "value": 0
                    },
                    {
                        "number": 64,
                        "time": 120.3799999999973,
                        "value": 0.1889763779527559
                    },
                    {
                        "number": 64,
                        "time": 120.38499999999729,
                        "value": 0.31496062992125984
                    },
                    {
                        "number": 64,
                        "time": 120.38999999999729,
                        "value": 0.5669291338582677
                    },
                    {
                        "number": 64,
                        "time": 120.39499999999728,
                        "value": 0.6929133858267716
                    },
                    {
                        "number": 64,
                        "time": 120.39999999999728,
                        "value": 0.8188976377952756
                    },
                    {
                        "number": 64,
                        "time": 120.40499999999727,
                        "value": 1
                    },
                    {
                        "number": 64,
                        "time": 120.73999999999725,
                        "value": 0.8188976377952756
                    },
                    {
                        "number": 64,
                        "time": 120.74499999999725,
                        "value": 0.5669291338582677
                    },
                    {
                        "number": 64,
                        "time": 120.74999999999724,
                        "value": 0.31496062992125984
                    },
                    {
                        "number": 64,
                        "time": 120.75499999999724,
                        "value": 0
                    },
                    {
                        "number": 64,
                        "time": 120.82999999999724,
                        "value": 0.1889763779527559
                    },
                    {
                        "number": 64,
                        "time": 120.83499999999724,
                        "value": 0.4409448818897638
                    },
                    {
                        "number": 64,
                        "time": 120.83999999999723,
                        "value": 0.6929133858267716
                    },
                    {
                        "number": 64,
                        "time": 120.84499999999723,
                        "value": 1
                    },
                    {
                        "number": 64,
                        "time": 121.16499999999722,
                        "value": 0.6929133858267716
                    },
                    {
                        "number": 64,
                        "time": 121.16999999999722,
                        "value": 0.4409448818897638
                    },
                    {
                        "number": 64,
                        "time": 121.17499999999721,
                        "value": 0.1889763779527559
                    },
                    {
                        "number": 64,
                        "time": 121.17999999999721,
                        "value": 0
                    },
                    {
                        "number": 64,
                        "time": 121.2399999999972,
                        "value": 0.1889763779527559
                    },
                    {
                        "number": 64,
                        "time": 121.24499999999719,
                        "value": 0.4409448818897638
                    },
                    {
                        "number": 64,
                        "time": 121.24999999999719,
                        "value": 0.5669291338582677
                    },
                    {
                        "number": 64,
                        "time": 121.25499999999718,
                        "value": 1
                    },
                    {
                        "number": 64,
                        "time": 121.59499999999717,
                        "value": 0.8188976377952756
                    },
                    {
                        "number": 64,
                        "time": 121.59999999999717,
                        "value": 0.5669291338582677
                    },
                    {
                        "number": 64,
                        "time": 121.60499999999716,
                        "value": 0.31496062992125984
                    },
                    {
                        "number": 64,
                        "time": 121.60999999999716,
                        "value": 0
                    },
                    {
                        "number": 64,
                        "time": 121.73499999999716,
                        "value": 0.31496062992125984
                    },
                    {
                        "number": 64,
                        "time": 121.73999999999715,
                        "value": 0.8188976377952756
                    },
                    {
                        "number": 64,
                        "time": 121.74499999999715,
                        "value": 1
                    },
                    {
                        "number": 64,
                        "time": 122.76749999999716,
                        "value": 0.8188976377952756
                    },
                    {
                        "number": 64,
                        "time": 122.77499999999715,
                        "value": 0.5669291338582677
                    },
                    {
                        "number": 64,
                        "time": 122.77749999999715,
                        "value": 0.4409448818897638
                    },
                    {
                        "number": 64,
                        "time": 122.78499999999714,
                        "value": 0.1889763779527559
                    },
                    {
                        "number": 64,
                        "time": 122.78749999999714,
                        "value": 0
                    },
                    {
                        "number": 64,
                        "time": 122.86749999999714,
                        "value": 0.1889763779527559
                    },
                    {
                        "number": 64,
                        "time": 122.87499999999713,
                        "value": 0.4409448818897638
                    },
                    {
                        "number": 64,
                        "time": 122.87749999999713,
                        "value": 0.6929133858267716
                    },
                    {
                        "number": 64,
                        "time": 122.88499999999712,
                        "value": 1
                    },
                    {
                        "number": 64,
                        "time": 123.7749999999971,
                        "value": 0.8188976377952756
                    },
                    {
                        "number": 64,
                        "time": 123.7799999999971,
                        "value": 0.5669291338582677
                    },
                    {
                        "number": 64,
                        "time": 123.7849999999971,
                        "value": 0.31496062992125984
                    },
                    {
                        "number": 64,
                        "time": 123.7899999999971,
                        "value": 0.1889763779527559
                    },
                    {
                        "number": 64,
                        "time": 123.79499999999709,
                        "value": 0
                    },
                    {
                        "number": 64,
                        "time": 123.85499999999709,
                        "value": 0.1889763779527559
                    },
                    {
                        "number": 64,
                        "time": 123.85999999999709,
                        "value": 0.31496062992125984
                    },
                    {
                        "number": 64,
                        "time": 123.86499999999708,
                        "value": 0.5669291338582677
                    },
                    {
                        "number": 64,
                        "time": 123.86999999999708,
                        "value": 0.6929133858267716
                    },
                    {
                        "number": 64,
                        "time": 123.87499999999707,
                        "value": 1
                    },
                    {
                        "number": 64,
                        "time": 124.9149999999971,
                        "value": 0.6929133858267716
                    },
                    {
                        "number": 64,
                        "time": 124.91999999999709,
                        "value": 0.4409448818897638
                    },
                    {
                        "number": 64,
                        "time": 124.92499999999708,
                        "value": 0.1889763779527559
                    },
                    {
                        "number": 64,
                        "time": 124.92999999999708,
                        "value": 0
                    },
                    {
                        "number": 64,
                        "time": 125.01249999999708,
                        "value": 0.1889763779527559
                    },
                    {
                        "number": 64,
                        "time": 125.01749999999707,
                        "value": 0.4409448818897638
                    },
                    {
                        "number": 64,
                        "time": 125.02249999999707,
                        "value": 0.5669291338582677
                    },
                    {
                        "number": 64,
                        "time": 125.02499999999706,
                        "value": 0.8188976377952756
                    },
                    {
                        "number": 64,
                        "time": 125.03249999999706,
                        "value": 1
                    },
                    {
                        "number": 64,
                        "time": 125.90249999999703,
                        "value": 0.8188976377952756
                    },
                    {
                        "number": 64,
                        "time": 125.90749999999703,
                        "value": 0.4409448818897638
                    },
                    {
                        "number": 64,
                        "time": 125.91249999999702,
                        "value": 0.1889763779527559
                    },
                    {
                        "number": 64,
                        "time": 125.91749999999702,
                        "value": 0
                    },
                    {
                        "number": 64,
                        "time": 126.00749999999701,
                        "value": 0.1889763779527559
                    },
                    {
                        "number": 64,
                        "time": 126.012499999997,
                        "value": 0.4409448818897638
                    },
                    {
                        "number": 64,
                        "time": 126.017499999997,
                        "value": 0.6929133858267716
                    },
                    {
                        "number": 64,
                        "time": 126.024999999997,
                        "value": 1
                    },
                    {
                        "number": 64,
                        "time": 127.02749999999699,
                        "value": 0.8188976377952756
                    },
                    {
                        "number": 64,
                        "time": 127.03249999999699,
                        "value": 0.6929133858267716
                    },
                    {
                        "number": 64,
                        "time": 127.04249999999699,
                        "value": 0.5669291338582677
                    },
                    {
                        "number": 64,
                        "time": 127.04749999999699,
                        "value": 0.4409448818897638
                    },
                    {
                        "number": 64,
                        "time": 127.05499999999698,
                        "value": 0.31496062992125984
                    },
                    {
                        "number": 64,
                        "time": 127.05749999999698,
                        "value": 0
                    },
                    {
                        "number": 64,
                        "time": 127.22749999999698,
                        "value": 0.1889763779527559
                    },
                    {
                        "number": 64,
                        "time": 127.23249999999697,
                        "value": 0.4409448818897638
                    },
                    {
                        "number": 64,
                        "time": 127.23749999999697,
                        "value": 0.6929133858267716
                    },
                    {
                        "number": 64,
                        "time": 127.24249999999697,
                        "value": 1
                    },
                    {
                        "number": 64,
                        "time": 127.51749999999697,
                        "value": 0.8188976377952756
                    },
                    {
                        "number": 64,
                        "time": 127.52249999999697,
                        "value": 0.6929133858267716
                    },
                    {
                        "number": 64,
                        "time": 127.55499999999697,
                        "value": 0.8188976377952756
                    },
                    {
                        "number": 64,
                        "time": 127.55749999999696,
                        "value": 1
                    },
                    {
                        "number": 64,
                        "time": 128.63499999999692,
                        "value": 0.8188976377952756
                    },
                    {
                        "number": 64,
                        "time": 128.63749999999692,
                        "value": 0.5669291338582677
                    },
                    {
                        "number": 64,
                        "time": 128.6449999999969,
                        "value": 0.4409448818897638
                    },
                    {
                        "number": 64,
                        "time": 128.6499999999969,
                        "value": 0.1889763779527559
                    },
                    {
                        "number": 64,
                        "time": 128.6549999999969,
                        "value": 0
                    },
                    {
                        "number": 64,
                        "time": 128.7374999999969,
                        "value": 0.1889763779527559
                    },
                    {
                        "number": 64,
                        "time": 128.7449999999969,
                        "value": 0.4409448818897638
                    },
                    {
                        "number": 64,
                        "time": 128.7474999999969,
                        "value": 0.5669291338582677
                    },
                    {
                        "number": 64,
                        "time": 128.7549999999969,
                        "value": 0.6929133858267716
                    },
                    {
                        "number": 64,
                        "time": 128.7574999999969,
                        "value": 1
                    },
                    {
                        "number": 64,
                        "time": 129.30499999999694,
                        "value": 0.8188976377952756
                    },
                    {
                        "number": 64,
                        "time": 129.30749999999694,
                        "value": 0.6929133858267716
                    },
                    {
                        "number": 64,
                        "time": 129.31499999999693,
                        "value": 0.5669291338582677
                    },
                    {
                        "number": 64,
                        "time": 129.31749999999693,
                        "value": 0.4409448818897638
                    },
                    {
                        "number": 64,
                        "time": 129.3449999999969,
                        "value": 0.6929133858267716
                    },
                    {
                        "number": 64,
                        "time": 129.3474999999969,
                        "value": 0.8188976377952756
                    },
                    {
                        "number": 64,
                        "time": 129.3574999999969,
                        "value": 1
                    },
                    {
                        "number": 64,
                        "time": 129.67749999999685,
                        "value": 0.8188976377952756
                    },
                    {
                        "number": 64,
                        "time": 129.68499999999685,
                        "value": 0.6929133858267716
                    },
                    {
                        "number": 64,
                        "time": 129.68749999999685,
                        "value": 0.5669291338582677
                    },
                    {
                        "number": 64,
                        "time": 129.69499999999684,
                        "value": 0.4409448818897638
                    },
                    {
                        "number": 64,
                        "time": 129.69749999999684,
                        "value": 0.31496062992125984
                    },
                    {
                        "number": 64,
                        "time": 129.72249999999684,
                        "value": 0.4409448818897638
                    },
                    {
                        "number": 64,
                        "time": 129.72749999999684,
                        "value": 0.5669291338582677
                    },
                    {
                        "number": 64,
                        "time": 129.73499999999683,
                        "value": 0.6929133858267716
                    },
                    {
                        "number": 64,
                        "time": 129.73999999999683,
                        "value": 0.8188976377952756
                    },
                    {
                        "number": 64,
                        "time": 129.74499999999682,
                        "value": 1
                    },
                    {
                        "number": 64,
                        "time": 130.56499999999676,
                        "value": 0.8188976377952756
                    },
                    {
                        "number": 64,
                        "time": 130.56999999999675,
                        "value": 0.6929133858267716
                    },
                    {
                        "number": 64,
                        "time": 130.57499999999675,
                        "value": 0.4409448818897638
                    },
                    {
                        "number": 64,
                        "time": 130.57999999999674,
                        "value": 0.31496062992125984
                    },
                    {
                        "number": 64,
                        "time": 130.58499999999674,
                        "value": 0.1889763779527559
                    },
                    {
                        "number": 64,
                        "time": 130.58999999999673,
                        "value": 0
                    },
                    {
                        "number": 64,
                        "time": 130.65499999999673,
                        "value": 0.1889763779527559
                    },
                    {
                        "number": 64,
                        "time": 130.65999999999673,
                        "value": 0.31496062992125984
                    },
                    {
                        "number": 64,
                        "time": 130.66499999999672,
                        "value": 0.4409448818897638
                    },
                    {
                        "number": 64,
                        "time": 130.66999999999672,
                        "value": 0.5669291338582677
                    },
                    {
                        "number": 64,
                        "time": 130.67499999999671,
                        "value": 0.6929133858267716
                    },
                    {
                        "number": 64,
                        "time": 130.6774999999967,
                        "value": 0.8188976377952756
                    },
                    {
                        "number": 64,
                        "time": 130.6849999999967,
                        "value": 1
                    },
                    {
                        "number": 64,
                        "time": 132.37499999999667,
                        "value": 0.6929133858267716
                    },
                    {
                        "number": 64,
                        "time": 132.37999999999667,
                        "value": 0.5669291338582677
                    },
                    {
                        "number": 64,
                        "time": 132.38499999999667,
                        "value": 0.4409448818897638
                    },
                    {
                        "number": 64,
                        "time": 132.38999999999666,
                        "value": 0.1889763779527559
                    },
                    {
                        "number": 64,
                        "time": 132.39999999999665,
                        "value": 0
                    },
                    {
                        "number": 64,
                        "time": 132.47499999999664,
                        "value": 0.1889763779527559
                    },
                    {
                        "number": 64,
                        "time": 132.47999999999664,
                        "value": 0.31496062992125984
                    },
                    {
                        "number": 64,
                        "time": 132.48499999999663,
                        "value": 0.4409448818897638
                    },
                    {
                        "number": 64,
                        "time": 132.48999999999663,
                        "value": 0.6929133858267716
                    },
                    {
                        "number": 64,
                        "time": 132.49499999999662,
                        "value": 1
                    },
                    {
                        "number": 64,
                        "time": 134.08499999999665,
                        "value": 0.8188976377952756
                    },
                    {
                        "number": 64,
                        "time": 134.09499999999665,
                        "value": 0.5669291338582677
                    },
                    {
                        "number": 64,
                        "time": 134.09749999999664,
                        "value": 0.31496062992125984
                    },
                    {
                        "number": 64,
                        "time": 134.10249999999664,
                        "value": 0
                    },
                    {
                        "number": 64,
                        "time": 134.18749999999665,
                        "value": 0.1889763779527559
                    },
                    {
                        "number": 64,
                        "time": 134.19249999999664,
                        "value": 0.4409448818897638
                    },
                    {
                        "number": 64,
                        "time": 134.19749999999664,
                        "value": 0.5669291338582677
                    },
                    {
                        "number": 64,
                        "time": 134.20249999999663,
                        "value": 0.8188976377952756
                    },
                    {
                        "number": 64,
                        "time": 134.20749999999663,
                        "value": 1
                    },
                    {
                        "number": 64,
                        "time": 135.84499999999662,
                        "value": 0.6929133858267716
                    },
                    {
                        "number": 64,
                        "time": 135.8524999999966,
                        "value": 0.5669291338582677
                    },
                    {
                        "number": 64,
                        "time": 135.8549999999966,
                        "value": 0.31496062992125984
                    },
                    {
                        "number": 64,
                        "time": 135.8624999999966,
                        "value": 0
                    },
                    {
                        "number": 64,
                        "time": 135.94499999999658,
                        "value": 0.1889763779527559
                    },
                    {
                        "number": 64,
                        "time": 135.95249999999658,
                        "value": 0.4409448818897638
                    },
                    {
                        "number": 64,
                        "time": 135.95499999999657,
                        "value": 0.5669291338582677
                    },
                    {
                        "number": 64,
                        "time": 135.96249999999657,
                        "value": 0.8188976377952756
                    },
                    {
                        "number": 64,
                        "time": 135.96499999999656,
                        "value": 1
                    },
                    {
                        "number": 64,
                        "time": 137.4749999999965,
                        "value": 0.8188976377952756
                    },
                    {
                        "number": 64,
                        "time": 137.4799999999965,
                        "value": 0.6929133858267716
                    },
                    {
                        "number": 64,
                        "time": 137.4849999999965,
                        "value": 0.4409448818897638
                    },
                    {
                        "number": 64,
                        "time": 137.48999999999648,
                        "value": 0.1889763779527559
                    },
                    {
                        "number": 64,
                        "time": 137.49499999999648,
                        "value": 0
                    },
                    {
                        "number": 64,
                        "time": 137.5449999999965,
                        "value": 0.1889763779527559
                    },
                    {
                        "number": 64,
                        "time": 137.5499999999965,
                        "value": 0.31496062992125984
                    },
                    {
                        "number": 64,
                        "time": 137.55499999999648,
                        "value": 0.5669291338582677
                    },
                    {
                        "number": 64,
                        "time": 137.55999999999648,
                        "value": 0.6929133858267716
                    },
                    {
                        "number": 64,
                        "time": 137.56499999999647,
                        "value": 0.8188976377952756
                    },
                    {
                        "number": 64,
                        "time": 137.57999999999646,
                        "value": 1
                    },
                    {
                        "number": 64,
                        "time": 139.1849999999964,
                        "value": 0.6929133858267716
                    },
                    {
                        "number": 64,
                        "time": 139.1899999999964,
                        "value": 0.5669291338582677
                    },
                    {
                        "number": 64,
                        "time": 139.19499999999638,
                        "value": 0.31496062992125984
                    },
                    {
                        "number": 64,
                        "time": 139.19999999999638,
                        "value": 0.1889763779527559
                    },
                    {
                        "number": 64,
                        "time": 139.20499999999637,
                        "value": 0
                    },
                    {
                        "number": 64,
                        "time": 139.25999999999635,
                        "value": 0.1889763779527559
                    },
                    {
                        "number": 64,
                        "time": 139.26499999999635,
                        "value": 0.4409448818897638
                    },
                    {
                        "number": 64,
                        "time": 139.26999999999634,
                        "value": 0.6929133858267716
                    },
                    {
                        "number": 64,
                        "time": 139.27499999999634,
                        "value": 1
                    },
                    {
                        "number": 64,
                        "time": 140.83499999999634,
                        "value": 0.8188976377952756
                    },
                    {
                        "number": 64,
                        "time": 140.83999999999634,
                        "value": 0.6929133858267716
                    },
                    {
                        "number": 64,
                        "time": 140.84499999999633,
                        "value": 0.4409448818897638
                    },
                    {
                        "number": 64,
                        "time": 140.84999999999633,
                        "value": 0.31496062992125984
                    },
                    {
                        "number": 64,
                        "time": 140.85499999999632,
                        "value": 0
                    },
                    {
                        "number": 64,
                        "time": 140.89499999999632,
                        "value": 0.1889763779527559
                    },
                    {
                        "number": 64,
                        "time": 140.8999999999963,
                        "value": 0.31496062992125984
                    },
                    {
                        "number": 64,
                        "time": 140.9049999999963,
                        "value": 0.5669291338582677
                    },
                    {
                        "number": 64,
                        "time": 140.9099999999963,
                        "value": 0.8188976377952756
                    },
                    {
                        "number": 64,
                        "time": 140.9149999999963,
                        "value": 1
                    },
                    {
                        "number": 64,
                        "time": 142.67999999999623,
                        "value": 0.6929133858267716
                    },
                    {
                        "number": 64,
                        "time": 142.68499999999622,
                        "value": 0.5669291338582677
                    },
                    {
                        "number": 64,
                        "time": 142.68749999999622,
                        "value": 0.31496062992125984
                    },
                    {
                        "number": 64,
                        "time": 142.6949999999962,
                        "value": 0.1889763779527559
                    },
                    {
                        "number": 64,
                        "time": 142.6999999999962,
                        "value": 0
                    },
                    {
                        "number": 64,
                        "time": 142.7499999999962,
                        "value": 0.31496062992125984
                    },
                    {
                        "number": 64,
                        "time": 142.7549999999962,
                        "value": 0.4409448818897638
                    },
                    {
                        "number": 64,
                        "time": 142.75999999999618,
                        "value": 0.6929133858267716
                    },
                    {
                        "number": 64,
                        "time": 142.76499999999618,
                        "value": 1
                    },
                    {
                        "number": 64,
                        "time": 145.96749999999605,
                        "value": 0.8188976377952756
                    },
                    {
                        "number": 64,
                        "time": 145.97499999999604,
                        "value": 0.5669291338582677
                    },
                    {
                        "number": 64,
                        "time": 145.97999999999604,
                        "value": 0.31496062992125984
                    },
                    {
                        "number": 64,
                        "time": 145.98499999999603,
                        "value": 0.1889763779527559
                    },
                    {
                        "number": 64,
                        "time": 145.98999999999603,
                        "value": 0
                    },
                    {
                        "number": 64,
                        "time": 146.02499999999603,
                        "value": 0.1889763779527559
                    },
                    {
                        "number": 64,
                        "time": 146.02999999999602,
                        "value": 0.4409448818897638
                    },
                    {
                        "number": 64,
                        "time": 146.03499999999602,
                        "value": 0.5669291338582677
                    },
                    {
                        "number": 64,
                        "time": 146.039999999996,
                        "value": 0.8188976377952756
                    },
                    {
                        "number": 64,
                        "time": 146.044999999996,
                        "value": 1
                    },
                    {
                        "number": 64,
                        "time": 146.794999999996,
                        "value": 0.8188976377952756
                    },
                    {
                        "number": 64,
                        "time": 146.797499999996,
                        "value": 0.6929133858267716
                    },
                    {
                        "number": 64,
                        "time": 146.804999999996,
                        "value": 0.5669291338582677
                    },
                    {
                        "number": 64,
                        "time": 146.834999999996,
                        "value": 0.6929133858267716
                    },
                    {
                        "number": 64,
                        "time": 146.837499999996,
                        "value": 0.8188976377952756
                    },
                    {
                        "number": 64,
                        "time": 146.844999999996,
                        "value": 1
                    },
                    {
                        "number": 64,
                        "time": 147.61499999999597,
                        "value": 0.8188976377952756
                    },
                    {
                        "number": 64,
                        "time": 147.62249999999597,
                        "value": 0.5669291338582677
                    },
                    {
                        "number": 64,
                        "time": 147.62499999999596,
                        "value": 0.4409448818897638
                    },
                    {
                        "number": 64,
                        "time": 147.63249999999596,
                        "value": 0.31496062992125984
                    },
                    {
                        "number": 64,
                        "time": 147.66499999999596,
                        "value": 0.5669291338582677
                    },
                    {
                        "number": 64,
                        "time": 147.67249999999595,
                        "value": 0.8188976377952756
                    },
                    {
                        "number": 64,
                        "time": 147.67499999999595,
                        "value": 1
                    },
                    {
                        "number": 64,
                        "time": 148.3449999999959,
                        "value": 0.8188976377952756
                    },
                    {
                        "number": 64,
                        "time": 148.3524999999959,
                        "value": 0.6929133858267716
                    },
                    {
                        "number": 64,
                        "time": 148.36999999999588,
                        "value": 0.5669291338582677
                    },
                    {
                        "number": 64,
                        "time": 148.38999999999587,
                        "value": 0.8188976377952756
                    },
                    {
                        "number": 64,
                        "time": 148.39499999999586,
                        "value": 1
                    },
                    {
                        "number": 64,
                        "time": 148.7699999999958,
                        "value": 0.8188976377952756
                    },
                    {
                        "number": 64,
                        "time": 148.7749999999958,
                        "value": 0.6929133858267716
                    },
                    {
                        "number": 64,
                        "time": 148.7999999999958,
                        "value": 1
                    },
                    {
                        "number": 64,
                        "time": 149.16749999999575,
                        "value": 0.8188976377952756
                    },
                    {
                        "number": 64,
                        "time": 149.17249999999575,
                        "value": 0.5669291338582677
                    },
                    {
                        "number": 64,
                        "time": 149.17749999999575,
                        "value": 0.4409448818897638
                    },
                    {
                        "number": 64,
                        "time": 149.18249999999574,
                        "value": 0.31496062992125984
                    },
                    {
                        "number": 64,
                        "time": 149.18499999999574,
                        "value": 0.1889763779527559
                    },
                    {
                        "number": 64,
                        "time": 149.19249999999573,
                        "value": 0
                    },
                    {
                        "number": 64,
                        "time": 149.22249999999573,
                        "value": 0.1889763779527559
                    },
                    {
                        "number": 64,
                        "time": 149.22499999999573,
                        "value": 0.4409448818897638
                    },
                    {
                        "number": 64,
                        "time": 149.23249999999572,
                        "value": 0.6929133858267716
                    },
                    {
                        "number": 64,
                        "time": 149.23749999999572,
                        "value": 1
                    },
                    {
                        "number": 64,
                        "time": 150.04999999999563,
                        "value": 0.8188976377952756
                    },
                    {
                        "number": 64,
                        "time": 150.09499999999562,
                        "value": 1
                    },
                    {
                        "number": 64,
                        "time": 150.86249999999563,
                        "value": 0.8188976377952756
                    },
                    {
                        "number": 64,
                        "time": 150.86749999999563,
                        "value": 0.6929133858267716
                    },
                    {
                        "number": 64,
                        "time": 150.87249999999563,
                        "value": 0.5669291338582677
                    },
                    {
                        "number": 64,
                        "time": 150.87749999999562,
                        "value": 0.4409448818897638
                    },
                    {
                        "number": 64,
                        "time": 150.89749999999563,
                        "value": 0.31496062992125984
                    },
                    {
                        "number": 64,
                        "time": 150.91749999999564,
                        "value": 0.4409448818897638
                    },
                    {
                        "number": 64,
                        "time": 150.92249999999564,
                        "value": 0.5669291338582677
                    },
                    {
                        "number": 64,
                        "time": 150.92749999999563,
                        "value": 0.8188976377952756
                    },
                    {
                        "number": 64,
                        "time": 150.93249999999563,
                        "value": 1
                    },
                    {
                        "number": 64,
                        "time": 151.60749999999558,
                        "value": 0.8188976377952756
                    },
                    {
                        "number": 64,
                        "time": 151.61249999999558,
                        "value": 0.6929133858267716
                    },
                    {
                        "number": 64,
                        "time": 151.62749999999556,
                        "value": 0.5669291338582677
                    },
                    {
                        "number": 64,
                        "time": 151.64749999999557,
                        "value": 0.8188976377952756
                    },
                    {
                        "number": 64,
                        "time": 151.65499999999557,
                        "value": 1
                    },
                    {
                        "number": 64,
                        "time": 152.39749999999555,
                        "value": 0.8188976377952756
                    },
                    {
                        "number": 64,
                        "time": 152.40499999999554,
                        "value": 0.6929133858267716
                    },
                    {
                        "number": 64,
                        "time": 152.40749999999554,
                        "value": 0.5669291338582677
                    },
                    {
                        "number": 64,
                        "time": 152.41499999999553,
                        "value": 0.4409448818897638
                    },
                    {
                        "number": 64,
                        "time": 152.42749999999552,
                        "value": 0.31496062992125984
                    },
                    {
                        "number": 64,
                        "time": 152.45499999999552,
                        "value": 0.5669291338582677
                    },
                    {
                        "number": 64,
                        "time": 152.45749999999552,
                        "value": 0.6929133858267716
                    },
                    {
                        "number": 64,
                        "time": 152.4649999999955,
                        "value": 1
                    },
                    {
                        "number": 64,
                        "time": 153.16499999999553,
                        "value": 0.8188976377952756
                    },
                    {
                        "number": 64,
                        "time": 153.19499999999553,
                        "value": 1
                    },
                    {
                        "number": 64,
                        "time": 153.8974999999955,
                        "value": 0.8188976377952756
                    },
                    {
                        "number": 64,
                        "time": 153.9199999999955,
                        "value": 0.6929133858267716
                    },
                    {
                        "number": 64,
                        "time": 153.9399999999955,
                        "value": 1
                    },
                    {
                        "number": 64,
                        "time": 155.3449999999955,
                        "value": 0.6929133858267716
                    },
                    {
                        "number": 64,
                        "time": 155.3499999999955,
                        "value": 0.4409448818897638
                    },
                    {
                        "number": 64,
                        "time": 155.3549999999955,
                        "value": 0.31496062992125984
                    },
                    {
                        "number": 64,
                        "time": 155.3599999999955,
                        "value": 0.1889763779527559
                    },
                    {
                        "number": 64,
                        "time": 155.3999999999955,
                        "value": 0.4409448818897638
                    },
                    {
                        "number": 64,
                        "time": 155.40499999999548,
                        "value": 0.6929133858267716
                    },
                    {
                        "number": 64,
                        "time": 155.40999999999548,
                        "value": 1
                    },
                    {
                        "number": 64,
                        "time": 155.76999999999543,
                        "value": 0.8188976377952756
                    },
                    {
                        "number": 64,
                        "time": 155.77499999999543,
                        "value": 0.6929133858267716
                    },
                    {
                        "number": 64,
                        "time": 155.79999999999544,
                        "value": 0.8188976377952756
                    },
                    {
                        "number": 64,
                        "time": 155.80499999999543,
                        "value": 1
                    },
                    {
                        "number": 64,
                        "time": 160.76249999999507,
                        "value": 0.6929133858267716
                    },
                    {
                        "number": 64,
                        "time": 160.76749999999507,
                        "value": 0.31496062992125984
                    },
                    {
                        "number": 64,
                        "time": 160.77249999999506,
                        "value": 0
                    },
                    {
                        "number": 64,
                        "time": 160.83749999999506,
                        "value": 0.31496062992125984
                    },
                    {
                        "number": 64,
                        "time": 160.84249999999506,
                        "value": 0.8188976377952756
                    },
                    {
                        "number": 64,
                        "time": 160.84749999999505,
                        "value": 1
                    },
                    {
                        "number": 64,
                        "time": 167.1799999999943,
                        "value": 0.6929133858267716
                    },
                    {
                        "number": 64,
                        "time": 167.1849999999943,
                        "value": 0.4409448818897638
                    },
                    {
                        "number": 64,
                        "time": 167.18999999999428,
                        "value": 0.1889763779527559
                    },
                    {
                        "number": 64,
                        "time": 167.19499999999428,
                        "value": 0
                    },
                    {
                        "number": 64,
                        "time": 167.2499999999943,
                        "value": 0.1889763779527559
                    },
                    {
                        "number": 64,
                        "time": 167.25499999999428,
                        "value": 0.31496062992125984
                    },
                    {
                        "number": 64,
                        "time": 167.25999999999428,
                        "value": 0.4409448818897638
                    },
                    {
                        "number": 64,
                        "time": 167.26499999999427,
                        "value": 0.6929133858267716
                    },
                    {
                        "number": 64,
                        "time": 167.26999999999427,
                        "value": 0.8188976377952756
                    },
                    {
                        "number": 64,
                        "time": 167.27499999999426,
                        "value": 1
                    },
                    {
                        "number": 64,
                        "time": 169.79999999999424,
                        "value": 0.8188976377952756
                    },
                    {
                        "number": 64,
                        "time": 169.84499999999423,
                        "value": 1
                    },
                    {
                        "number": 64,
                        "time": 170.7724999999942,
                        "value": 0.8188976377952756
                    },
                    {
                        "number": 64,
                        "time": 170.7999999999942,
                        "value": 1
                    },
                    {
                        "number": 64,
                        "time": 172.01249999999422,
                        "value": 0.8188976377952756
                    },
                    {
                        "number": 64,
                        "time": 172.01499999999422,
                        "value": 0.6929133858267716
                    },
                    {
                        "number": 64,
                        "time": 172.0224999999942,
                        "value": 0.5669291338582677
                    },
                    {
                        "number": 64,
                        "time": 172.0249999999942,
                        "value": 0.4409448818897638
                    },
                    {
                        "number": 64,
                        "time": 172.0324999999942,
                        "value": 0.31496062992125984
                    },
                    {
                        "number": 64,
                        "time": 172.0349999999942,
                        "value": 0.1889763779527559
                    },
                    {
                        "number": 64,
                        "time": 172.0399999999942,
                        "value": 0
                    },
                    {
                        "number": 64,
                        "time": 172.1324999999942,
                        "value": 0.1889763779527559
                    },
                    {
                        "number": 64,
                        "time": 172.1349999999942,
                        "value": 0.31496062992125984
                    },
                    {
                        "number": 64,
                        "time": 172.1424999999942,
                        "value": 0.4409448818897638
                    },
                    {
                        "number": 64,
                        "time": 172.14499999999418,
                        "value": 0.5669291338582677
                    },
                    {
                        "number": 64,
                        "time": 172.15249999999418,
                        "value": 0.6929133858267716
                    },
                    {
                        "number": 64,
                        "time": 172.15499999999417,
                        "value": 0.8188976377952756
                    },
                    {
                        "number": 64,
                        "time": 172.16249999999417,
                        "value": 1
                    },
                    {
                        "number": 64,
                        "time": 172.9524999999942,
                        "value": 0.8188976377952756
                    },
                    {
                        "number": 64,
                        "time": 172.95749999999418,
                        "value": 0.5669291338582677
                    },
                    {
                        "number": 64,
                        "time": 172.96499999999418,
                        "value": 0.4409448818897638
                    },
                    {
                        "number": 64,
                        "time": 172.96499999999418,
                        "value": 0.31496062992125984
                    },
                    {
                        "number": 64,
                        "time": 172.97499999999417,
                        "value": 0.1889763779527559
                    },
                    {
                        "number": 64,
                        "time": 172.97999999999416,
                        "value": 0
                    },
                    {
                        "number": 64,
                        "time": 173.04499999999416,
                        "value": 0.31496062992125984
                    },
                    {
                        "number": 64,
                        "time": 173.05499999999415,
                        "value": 0.4409448818897638
                    },
                    {
                        "number": 64,
                        "time": 173.05749999999415,
                        "value": 0.5669291338582677
                    },
                    {
                        "number": 64,
                        "time": 173.06499999999414,
                        "value": 0.6929133858267716
                    },
                    {
                        "number": 64,
                        "time": 173.06999999999414,
                        "value": 0.8188976377952756
                    },
                    {
                        "number": 64,
                        "time": 173.07499999999413,
                        "value": 1
                    },
                    {
                        "number": 64,
                        "time": 173.98499999999405,
                        "value": 0.8188976377952756
                    },
                    {
                        "number": 64,
                        "time": 173.98999999999404,
                        "value": 0.6929133858267716
                    },
                    {
                        "number": 64,
                        "time": 173.99499999999404,
                        "value": 0.5669291338582677
                    },
                    {
                        "number": 64,
                        "time": 173.99999999999403,
                        "value": 0.4409448818897638
                    },
                    {
                        "number": 64,
                        "time": 174.00499999999403,
                        "value": 0.1889763779527559
                    },
                    {
                        "number": 64,
                        "time": 174.00999999999402,
                        "value": 0
                    },
                    {
                        "number": 64,
                        "time": 174.124999999994,
                        "value": 0.1889763779527559
                    },
                    {
                        "number": 64,
                        "time": 174.129999999994,
                        "value": 0.31496062992125984
                    },
                    {
                        "number": 64,
                        "time": 174.134999999994,
                        "value": 0.4409448818897638
                    },
                    {
                        "number": 64,
                        "time": 174.139999999994,
                        "value": 0.5669291338582677
                    },
                    {
                        "number": 64,
                        "time": 174.14499999999398,
                        "value": 0.6929133858267716
                    },
                    {
                        "number": 64,
                        "time": 174.14999999999398,
                        "value": 0.8188976377952756
                    },
                    {
                        "number": 64,
                        "time": 174.15499999999398,
                        "value": 1
                    },
                    {
                        "number": 64,
                        "time": 174.959999999994,
                        "value": 0.8188976377952756
                    },
                    {
                        "number": 64,
                        "time": 174.964999999994,
                        "value": 0.5669291338582677
                    },
                    {
                        "number": 64,
                        "time": 174.969999999994,
                        "value": 0.4409448818897638
                    },
                    {
                        "number": 64,
                        "time": 174.974999999994,
                        "value": 0.31496062992125984
                    },
                    {
                        "number": 64,
                        "time": 174.979999999994,
                        "value": 0.1889763779527559
                    },
                    {
                        "number": 64,
                        "time": 174.984999999994,
                        "value": 0
                    },
                    {
                        "number": 64,
                        "time": 175.08499999999398,
                        "value": 0.1889763779527559
                    },
                    {
                        "number": 64,
                        "time": 175.08999999999398,
                        "value": 0.31496062992125984
                    },
                    {
                        "number": 64,
                        "time": 175.09499999999397,
                        "value": 0.5669291338582677
                    },
                    {
                        "number": 64,
                        "time": 175.09999999999397,
                        "value": 0.6929133858267716
                    },
                    {
                        "number": 64,
                        "time": 175.10499999999396,
                        "value": 0.8188976377952756
                    },
                    {
                        "number": 64,
                        "time": 175.10999999999396,
                        "value": 1
                    },
                    {
                        "number": 64,
                        "time": 175.97999999999402,
                        "value": 0.8188976377952756
                    },
                    {
                        "number": 64,
                        "time": 175.98499999999402,
                        "value": 0.6929133858267716
                    },
                    {
                        "number": 64,
                        "time": 175.989999999994,
                        "value": 0.4409448818897638
                    },
                    {
                        "number": 64,
                        "time": 175.997499999994,
                        "value": 0.31496062992125984
                    },
                    {
                        "number": 64,
                        "time": 175.999999999994,
                        "value": 0
                    },
                    {
                        "number": 64,
                        "time": 176.08499999999398,
                        "value": 0.1889763779527559
                    },
                    {
                        "number": 64,
                        "time": 176.08999999999398,
                        "value": 0.31496062992125984
                    },
                    {
                        "number": 64,
                        "time": 176.09499999999397,
                        "value": 0.4409448818897638
                    },
                    {
                        "number": 64,
                        "time": 176.09999999999397,
                        "value": 0.5669291338582677
                    },
                    {
                        "number": 64,
                        "time": 176.10499999999396,
                        "value": 0.6929133858267716
                    },
                    {
                        "number": 64,
                        "time": 176.10999999999396,
                        "value": 0.8188976377952756
                    },
                    {
                        "number": 64,
                        "time": 176.11499999999396,
                        "value": 1
                    },
                    {
                        "number": 64,
                        "time": 176.92499999999396,
                        "value": 0.6929133858267716
                    },
                    {
                        "number": 64,
                        "time": 176.92999999999395,
                        "value": 0.5669291338582677
                    },
                    {
                        "number": 64,
                        "time": 176.93499999999395,
                        "value": 0.31496062992125984
                    },
                    {
                        "number": 64,
                        "time": 176.93999999999394,
                        "value": 0.1889763779527559
                    },
                    {
                        "number": 64,
                        "time": 176.94499999999394,
                        "value": 0
                    },
                    {
                        "number": 64,
                        "time": 177.03249999999395,
                        "value": 0.1889763779527559
                    },
                    {
                        "number": 64,
                        "time": 177.03499999999394,
                        "value": 0.31496062992125984
                    },
                    {
                        "number": 64,
                        "time": 177.04249999999394,
                        "value": 0.4409448818897638
                    },
                    {
                        "number": 64,
                        "time": 177.04499999999393,
                        "value": 0.5669291338582677
                    },
                    {
                        "number": 64,
                        "time": 177.05249999999393,
                        "value": 0.6929133858267716
                    },
                    {
                        "number": 64,
                        "time": 177.05499999999392,
                        "value": 0.8188976377952756
                    },
                    {
                        "number": 64,
                        "time": 177.06249999999392,
                        "value": 1
                    },
                    {
                        "number": 64,
                        "time": 177.94249999999394,
                        "value": 0.8188976377952756
                    },
                    {
                        "number": 64,
                        "time": 177.94499999999394,
                        "value": 0.6929133858267716
                    },
                    {
                        "number": 64,
                        "time": 177.95249999999393,
                        "value": 0.4409448818897638
                    },
                    {
                        "number": 64,
                        "time": 177.95499999999393,
                        "value": 0.31496062992125984
                    },
                    {
                        "number": 64,
                        "time": 177.96249999999392,
                        "value": 0
                    },
                    {
                        "number": 64,
                        "time": 178.0649999999939,
                        "value": 0.1889763779527559
                    },
                    {
                        "number": 64,
                        "time": 178.06999999999388,
                        "value": 0.31496062992125984
                    },
                    {
                        "number": 64,
                        "time": 178.07499999999388,
                        "value": 0.4409448818897638
                    },
                    {
                        "number": 64,
                        "time": 178.07999999999387,
                        "value": 0.5669291338582677
                    },
                    {
                        "number": 64,
                        "time": 178.08499999999387,
                        "value": 0.8188976377952756
                    },
                    {
                        "number": 64,
                        "time": 178.08999999999386,
                        "value": 1
                    },
                    {
                        "number": 64,
                        "time": 178.93499999999386,
                        "value": 0.6929133858267716
                    },
                    {
                        "number": 64,
                        "time": 178.93999999999386,
                        "value": 0.5669291338582677
                    },
                    {
                        "number": 64,
                        "time": 178.94499999999385,
                        "value": 0.31496062992125984
                    },
                    {
                        "number": 64,
                        "time": 178.94999999999385,
                        "value": 0.1889763779527559
                    },
                    {
                        "number": 64,
                        "time": 178.95499999999384,
                        "value": 0
                    },
                    {
                        "number": 64,
                        "time": 179.05499999999384,
                        "value": 0.1889763779527559
                    },
                    {
                        "number": 64,
                        "time": 179.05999999999383,
                        "value": 0.31496062992125984
                    },
                    {
                        "number": 64,
                        "time": 179.06499999999383,
                        "value": 0.4409448818897638
                    },
                    {
                        "number": 64,
                        "time": 179.06999999999383,
                        "value": 0.5669291338582677
                    },
                    {
                        "number": 64,
                        "time": 179.07499999999382,
                        "value": 0.6929133858267716
                    },
                    {
                        "number": 64,
                        "time": 179.07999999999382,
                        "value": 0.8188976377952756
                    },
                    {
                        "number": 64,
                        "time": 179.0849999999938,
                        "value": 1
                    },
                    {
                        "number": 64,
                        "time": 179.8249999999938,
                        "value": 0.8188976377952756
                    },
                    {
                        "number": 64,
                        "time": 179.8299999999938,
                        "value": 0.6929133858267716
                    },
                    {
                        "number": 64,
                        "time": 179.83499999999378,
                        "value": 0.5669291338582677
                    },
                    {
                        "number": 64,
                        "time": 179.83999999999378,
                        "value": 0.31496062992125984
                    },
                    {
                        "number": 64,
                        "time": 179.84499999999377,
                        "value": 0.1889763779527559
                    },
                    {
                        "number": 64,
                        "time": 179.84999999999377,
                        "value": 0
                    },
                    {
                        "number": 64,
                        "time": 179.91499999999377,
                        "value": 0.1889763779527559
                    },
                    {
                        "number": 64,
                        "time": 179.92999999999375,
                        "value": 0.31496062992125984
                    },
                    {
                        "number": 64,
                        "time": 179.93499999999375,
                        "value": 0.4409448818897638
                    },
                    {
                        "number": 64,
                        "time": 179.93999999999374,
                        "value": 0.5669291338582677
                    },
                    {
                        "number": 64,
                        "time": 179.94499999999374,
                        "value": 0.6929133858267716
                    },
                    {
                        "number": 64,
                        "time": 179.94999999999374,
                        "value": 0.8188976377952756
                    },
                    {
                        "number": 64,
                        "time": 179.95499999999373,
                        "value": 1
                    },
                    {
                        "number": 64,
                        "time": 180.9949999999937,
                        "value": 0.8188976377952756
                    },
                    {
                        "number": 64,
                        "time": 180.9999999999937,
                        "value": 0.6929133858267716
                    },
                    {
                        "number": 64,
                        "time": 181.0049999999937,
                        "value": 0.5669291338582677
                    },
                    {
                        "number": 64,
                        "time": 181.00999999999368,
                        "value": 0.31496062992125984
                    },
                    {
                        "number": 64,
                        "time": 181.01499999999368,
                        "value": 0.1889763779527559
                    },
                    {
                        "number": 64,
                        "time": 181.01999999999367,
                        "value": 0
                    },
                    {
                        "number": 64,
                        "time": 181.1249999999937,
                        "value": 0.1889763779527559
                    },
                    {
                        "number": 64,
                        "time": 181.1299999999937,
                        "value": 0.31496062992125984
                    },
                    {
                        "number": 64,
                        "time": 181.13499999999368,
                        "value": 0.4409448818897638
                    },
                    {
                        "number": 64,
                        "time": 181.13999999999368,
                        "value": 0.5669291338582677
                    },
                    {
                        "number": 64,
                        "time": 181.14499999999367,
                        "value": 0.6929133858267716
                    },
                    {
                        "number": 64,
                        "time": 181.14999999999367,
                        "value": 0.8188976377952756
                    },
                    {
                        "number": 64,
                        "time": 181.15499999999366,
                        "value": 1
                    },
                    {
                        "number": 64,
                        "time": 181.46499999999367,
                        "value": 0.8188976377952756
                    },
                    {
                        "number": 64,
                        "time": 181.46999999999366,
                        "value": 0.5669291338582677
                    },
                    {
                        "number": 64,
                        "time": 181.47499999999366,
                        "value": 0.4409448818897638
                    },
                    {
                        "number": 64,
                        "time": 181.49499999999364,
                        "value": 0.31496062992125984
                    },
                    {
                        "number": 64,
                        "time": 181.51499999999365,
                        "value": 0.4409448818897638
                    },
                    {
                        "number": 64,
                        "time": 181.51999999999364,
                        "value": 0.5669291338582677
                    },
                    {
                        "number": 64,
                        "time": 181.52999999999363,
                        "value": 0.6929133858267716
                    },
                    {
                        "number": 64,
                        "time": 181.54999999999362,
                        "value": 1
                    },
                    {
                        "number": 64,
                        "time": 181.9599999999936,
                        "value": 0.8188976377952756
                    },
                    {
                        "number": 64,
                        "time": 181.9649999999936,
                        "value": 0.6929133858267716
                    },
                    {
                        "number": 64,
                        "time": 181.9699999999936,
                        "value": 0.5669291338582677
                    },
                    {
                        "number": 64,
                        "time": 181.9749999999936,
                        "value": 0.4409448818897638
                    },
                    {
                        "number": 64,
                        "time": 181.9799999999936,
                        "value": 0.31496062992125984
                    },
                    {
                        "number": 64,
                        "time": 182.00249999999357,
                        "value": 0.1889763779527559
                    },
                    {
                        "number": 64,
                        "time": 182.0199999999936,
                        "value": 0.31496062992125984
                    },
                    {
                        "number": 64,
                        "time": 182.02499999999358,
                        "value": 0.4409448818897638
                    },
                    {
                        "number": 64,
                        "time": 182.03499999999357,
                        "value": 0.5669291338582677
                    },
                    {
                        "number": 64,
                        "time": 182.04499999999356,
                        "value": 0.6929133858267716
                    },
                    {
                        "number": 64,
                        "time": 182.04999999999356,
                        "value": 0.8188976377952756
                    },
                    {
                        "number": 64,
                        "time": 182.05999999999355,
                        "value": 1
                    },
                    {
                        "number": 64,
                        "time": 182.95999999999347,
                        "value": 0.8188976377952756
                    },
                    {
                        "number": 64,
                        "time": 182.96499999999347,
                        "value": 0.5669291338582677
                    },
                    {
                        "number": 64,
                        "time": 182.96999999999346,
                        "value": 0.4409448818897638
                    },
                    {
                        "number": 64,
                        "time": 182.97749999999346,
                        "value": 0.1889763779527559
                    },
                    {
                        "number": 64,
                        "time": 182.97999999999345,
                        "value": 0
                    },
                    {
                        "number": 64,
                        "time": 183.06999999999346,
                        "value": 0.1889763779527559
                    },
                    {
                        "number": 64,
                        "time": 183.07499999999345,
                        "value": 0.31496062992125984
                    },
                    {
                        "number": 64,
                        "time": 183.08249999999344,
                        "value": 0.4409448818897638
                    },
                    {
                        "number": 64,
                        "time": 183.08499999999344,
                        "value": 0.5669291338582677
                    },
                    {
                        "number": 64,
                        "time": 183.08999999999344,
                        "value": 0.8188976377952756
                    },
                    {
                        "number": 64,
                        "time": 183.09499999999343,
                        "value": 1
                    },
                    {
                        "number": 64,
                        "time": 184.00249999999343,
                        "value": 0.8188976377952756
                    },
                    {
                        "number": 64,
                        "time": 184.00749999999343,
                        "value": 0.6929133858267716
                    },
                    {
                        "number": 64,
                        "time": 184.01249999999342,
                        "value": 0.4409448818897638
                    },
                    {
                        "number": 64,
                        "time": 184.01749999999342,
                        "value": 0.31496062992125984
                    },
                    {
                        "number": 64,
                        "time": 184.0224999999934,
                        "value": 0.1889763779527559
                    },
                    {
                        "number": 64,
                        "time": 184.0249999999934,
                        "value": 0
                    },
                    {
                        "number": 64,
                        "time": 184.07249999999343,
                        "value": 0.1889763779527559
                    },
                    {
                        "number": 64,
                        "time": 184.07499999999342,
                        "value": 0.4409448818897638
                    },
                    {
                        "number": 64,
                        "time": 184.08249999999342,
                        "value": 0.6929133858267716
                    },
                    {
                        "number": 64,
                        "time": 184.0849999999934,
                        "value": 1
                    },
                    {
                        "number": 64,
                        "time": 184.4174999999934,
                        "value": 0.8188976377952756
                    },
                    {
                        "number": 64,
                        "time": 184.4474999999934,
                        "value": 1
                    },
                    {
                        "number": 64,
                        "time": 184.82249999999337,
                        "value": 0.6929133858267716
                    },
                    {
                        "number": 64,
                        "time": 184.82499999999337,
                        "value": 0.4409448818897638
                    },
                    {
                        "number": 64,
                        "time": 184.83249999999336,
                        "value": 0.1889763779527559
                    },
                    {
                        "number": 64,
                        "time": 184.83499999999336,
                        "value": 0
                    },
                    {
                        "number": 64,
                        "time": 184.91249999999334,
                        "value": 0.4409448818897638
                    },
                    {
                        "number": 64,
                        "time": 184.91749999999334,
                        "value": 0.8188976377952756
                    },
                    {
                        "number": 64,
                        "time": 184.92249999999333,
                        "value": 1
                    },
                    {
                        "number": 64,
                        "time": 185.30749999999335,
                        "value": 0.6929133858267716
                    },
                    {
                        "number": 64,
                        "time": 185.31249999999335,
                        "value": 0.5669291338582677
                    },
                    {
                        "number": 64,
                        "time": 185.31749999999334,
                        "value": 0.31496062992125984
                    },
                    {
                        "number": 64,
                        "time": 185.32249999999334,
                        "value": 0.1889763779527559
                    },
                    {
                        "number": 64,
                        "time": 185.34249999999332,
                        "value": 0.4409448818897638
                    },
                    {
                        "number": 64,
                        "time": 185.34749999999332,
                        "value": 0.6929133858267716
                    },
                    {
                        "number": 64,
                        "time": 185.3524999999933,
                        "value": 0.8188976377952756
                    },
                    {
                        "number": 64,
                        "time": 185.3599999999933,
                        "value": 1
                    },
                    {
                        "number": 64,
                        "time": 185.56249999999326,
                        "value": 0.8188976377952756
                    },
                    {
                        "number": 64,
                        "time": 185.57499999999325,
                        "value": 0.6929133858267716
                    },
                    {
                        "number": 64,
                        "time": 185.58249999999325,
                        "value": 0.5669291338582677
                    },
                    {
                        "number": 64,
                        "time": 185.58749999999324,
                        "value": 0.4409448818897638
                    },
                    {
                        "number": 64,
                        "time": 185.59749999999323,
                        "value": 0.31496062992125984
                    },
                    {
                        "number": 64,
                        "time": 185.60249999999323,
                        "value": 0
                    },
                    {
                        "number": 64,
                        "time": 185.7424999999932,
                        "value": 0.31496062992125984
                    },
                    {
                        "number": 64,
                        "time": 185.7474999999932,
                        "value": 0.8188976377952756
                    },
                    {
                        "number": 64,
                        "time": 185.7524999999932,
                        "value": 1
                    },
                    {
                        "number": 64,
                        "time": 186.07249999999323,
                        "value": 0.5669291338582677
                    },
                    {
                        "number": 64,
                        "time": 186.07749999999322,
                        "value": 0.1889763779527559
                    },
                    {
                        "number": 64,
                        "time": 186.08249999999322,
                        "value": 0
                    },
                    {
                        "number": 64,
                        "time": 186.1674999999932,
                        "value": 0.31496062992125984
                    },
                    {
                        "number": 64,
                        "time": 186.1724999999932,
                        "value": 0.6929133858267716
                    },
                    {
                        "number": 64,
                        "time": 186.1774999999932,
                        "value": 1
                    },
                    {
                        "number": 64,
                        "time": 186.46999999999318,
                        "value": 0.6929133858267716
                    },
                    {
                        "number": 64,
                        "time": 186.47499999999317,
                        "value": 0.31496062992125984
                    },
                    {
                        "number": 64,
                        "time": 186.47999999999317,
                        "value": 0
                    },
                    {
                        "number": 64,
                        "time": 188.57249999999306,
                        "value": 0.1889763779527559
                    },
                    {
                        "number": 64,
                        "time": 188.57499999999305,
                        "value": 0.31496062992125984
                    },
                    {
                        "number": 64,
                        "time": 188.58249999999305,
                        "value": 0.4409448818897638
                    },
                    {
                        "number": 64,
                        "time": 188.59249999999304,
                        "value": 0.5669291338582677
                    },
                    {
                        "number": 64,
                        "time": 188.59499999999304,
                        "value": 0.6929133858267716
                    },
                    {
                        "number": 64,
                        "time": 188.60249999999303,
                        "value": 0.8188976377952756
                    },
                    {
                        "number": 64,
                        "time": 188.60499999999303,
                        "value": 1
                    },
                    {
                        "number": 64,
                        "time": 189.42249999999302,
                        "value": 0.8188976377952756
                    },
                    {
                        "number": 64,
                        "time": 189.42499999999302,
                        "value": 0.5669291338582677
                    },
                    {
                        "number": 64,
                        "time": 189.432499999993,
                        "value": 0.4409448818897638
                    },
                    {
                        "number": 64,
                        "time": 189.434999999993,
                        "value": 0.1889763779527559
                    },
                    {
                        "number": 64,
                        "time": 189.442499999993,
                        "value": 0
                    },
                    {
                        "number": 64,
                        "time": 189.554999999993,
                        "value": 0.1889763779527559
                    },
                    {
                        "number": 64,
                        "time": 189.56249999999298,
                        "value": 0.31496062992125984
                    },
                    {
                        "number": 64,
                        "time": 189.56499999999298,
                        "value": 0.4409448818897638
                    },
                    {
                        "number": 64,
                        "time": 189.57249999999297,
                        "value": 0.5669291338582677
                    },
                    {
                        "number": 64,
                        "time": 189.57499999999297,
                        "value": 0.6929133858267716
                    },
                    {
                        "number": 64,
                        "time": 189.58249999999296,
                        "value": 1
                    },
                    {
                        "number": 64,
                        "time": 190.512499999993,
                        "value": 0.8188976377952756
                    },
                    {
                        "number": 64,
                        "time": 190.517499999993,
                        "value": 0.5669291338582677
                    },
                    {
                        "number": 64,
                        "time": 190.522499999993,
                        "value": 0.4409448818897638
                    },
                    {
                        "number": 64,
                        "time": 190.52499999999299,
                        "value": 0.1889763779527559
                    },
                    {
                        "number": 64,
                        "time": 190.53249999999298,
                        "value": 0
                    },
                    {
                        "number": 64,
                        "time": 190.65499999999295,
                        "value": 0.1889763779527559
                    },
                    {
                        "number": 64,
                        "time": 190.66249999999295,
                        "value": 0.4409448818897638
                    },
                    {
                        "number": 64,
                        "time": 190.66499999999294,
                        "value": 0.5669291338582677
                    },
                    {
                        "number": 64,
                        "time": 190.67249999999294,
                        "value": 0.6929133858267716
                    },
                    {
                        "number": 64,
                        "time": 190.67499999999293,
                        "value": 0.8188976377952756
                    },
                    {
                        "number": 64,
                        "time": 190.68249999999293,
                        "value": 1
                    },
                    {
                        "number": 64,
                        "time": 191.50749999999286,
                        "value": 0.8188976377952756
                    },
                    {
                        "number": 64,
                        "time": 191.51249999999285,
                        "value": 0.6929133858267716
                    },
                    {
                        "number": 64,
                        "time": 191.51749999999285,
                        "value": 0.4409448818897638
                    },
                    {
                        "number": 64,
                        "time": 191.52249999999285,
                        "value": 0.31496062992125984
                    },
                    {
                        "number": 64,
                        "time": 191.52499999999284,
                        "value": 0
                    },
                    {
                        "number": 64,
                        "time": 191.64999999999284,
                        "value": 0.31496062992125984
                    },
                    {
                        "number": 64,
                        "time": 191.65499999999284,
                        "value": 0.4409448818897638
                    },
                    {
                        "number": 64,
                        "time": 191.65999999999283,
                        "value": 0.5669291338582677
                    },
                    {
                        "number": 64,
                        "time": 191.66499999999283,
                        "value": 0.6929133858267716
                    },
                    {
                        "number": 64,
                        "time": 191.66999999999283,
                        "value": 1
                    },
                    {
                        "number": 64,
                        "time": 192.4299999999928,
                        "value": 0.8188976377952756
                    },
                    {
                        "number": 64,
                        "time": 192.43499999999278,
                        "value": 0.6929133858267716
                    },
                    {
                        "number": 64,
                        "time": 192.43999999999278,
                        "value": 0.5669291338582677
                    },
                    {
                        "number": 64,
                        "time": 192.44499999999277,
                        "value": 0.31496062992125984
                    },
                    {
                        "number": 64,
                        "time": 192.44999999999277,
                        "value": 0.1889763779527559
                    },
                    {
                        "number": 64,
                        "time": 192.45499999999276,
                        "value": 0
                    },
                    {
                        "number": 64,
                        "time": 192.51999999999273,
                        "value": 0.1889763779527559
                    },
                    {
                        "number": 64,
                        "time": 192.52499999999273,
                        "value": 0.31496062992125984
                    },
                    {
                        "number": 64,
                        "time": 192.53499999999272,
                        "value": 0.4409448818897638
                    },
                    {
                        "number": 64,
                        "time": 192.5449999999927,
                        "value": 0.5669291338582677
                    },
                    {
                        "number": 64,
                        "time": 192.5499999999927,
                        "value": 0.6929133858267716
                    },
                    {
                        "number": 64,
                        "time": 192.5549999999927,
                        "value": 0.8188976377952756
                    },
                    {
                        "number": 64,
                        "time": 192.5599999999927,
                        "value": 1
                    },
                    {
                        "number": 64,
                        "time": 193.50249999999266,
                        "value": 0.6929133858267716
                    },
                    {
                        "number": 64,
                        "time": 193.50749999999266,
                        "value": 0.5669291338582677
                    },
                    {
                        "number": 64,
                        "time": 193.51249999999266,
                        "value": 0.4409448818897638
                    },
                    {
                        "number": 64,
                        "time": 193.51749999999265,
                        "value": 0.1889763779527559
                    },
                    {
                        "number": 64,
                        "time": 193.52249999999265,
                        "value": 0
                    },
                    {
                        "number": 64,
                        "time": 193.57749999999265,
                        "value": 0.1889763779527559
                    },
                    {
                        "number": 64,
                        "time": 193.58749999999264,
                        "value": 0.31496062992125984
                    },
                    {
                        "number": 64,
                        "time": 193.59249999999264,
                        "value": 0.4409448818897638
                    },
                    {
                        "number": 64,
                        "time": 193.59749999999264,
                        "value": 0.5669291338582677
                    },
                    {
                        "number": 64,
                        "time": 193.60749999999263,
                        "value": 0.6929133858267716
                    },
                    {
                        "number": 64,
                        "time": 193.61249999999262,
                        "value": 0.8188976377952756
                    },
                    {
                        "number": 64,
                        "time": 193.61749999999262,
                        "value": 1
                    },
                    {
                        "number": 64,
                        "time": 194.02499999999256,
                        "value": 0.8188976377952756
                    },
                    {
                        "number": 64,
                        "time": 194.02749999999256,
                        "value": 0.6929133858267716
                    },
                    {
                        "number": 64,
                        "time": 194.03499999999255,
                        "value": 0.5669291338582677
                    },
                    {
                        "number": 64,
                        "time": 194.03749999999255,
                        "value": 0.4409448818897638
                    },
                    {
                        "number": 64,
                        "time": 194.04499999999254,
                        "value": 0.31496062992125984
                    },
                    {
                        "number": 64,
                        "time": 194.07499999999254,
                        "value": 0.4409448818897638
                    },
                    {
                        "number": 64,
                        "time": 194.07749999999254,
                        "value": 0.5669291338582677
                    },
                    {
                        "number": 64,
                        "time": 194.08499999999253,
                        "value": 0.6929133858267716
                    },
                    {
                        "number": 64,
                        "time": 194.08999999999253,
                        "value": 0.8188976377952756
                    },
                    {
                        "number": 64,
                        "time": 194.09499999999252,
                        "value": 1
                    },
                    {
                        "number": 64,
                        "time": 194.47499999999252,
                        "value": 0.8188976377952756
                    },
                    {
                        "number": 64,
                        "time": 194.47749999999252,
                        "value": 0.5669291338582677
                    },
                    {
                        "number": 64,
                        "time": 194.4849999999925,
                        "value": 0.31496062992125984
                    },
                    {
                        "number": 64,
                        "time": 194.4899999999925,
                        "value": 0.1889763779527559
                    },
                    {
                        "number": 64,
                        "time": 194.5249999999925,
                        "value": 0.4409448818897638
                    },
                    {
                        "number": 64,
                        "time": 194.5349999999925,
                        "value": 0.5669291338582677
                    },
                    {
                        "number": 64,
                        "time": 194.5399999999925,
                        "value": 0.6929133858267716
                    },
                    {
                        "number": 64,
                        "time": 194.54499999999248,
                        "value": 0.8188976377952756
                    },
                    {
                        "number": 64,
                        "time": 194.55499999999248,
                        "value": 1
                    },
                    {
                        "number": 64,
                        "time": 194.92499999999245,
                        "value": 0.8188976377952756
                    },
                    {
                        "number": 64,
                        "time": 194.92749999999245,
                        "value": 0.5669291338582677
                    },
                    {
                        "number": 64,
                        "time": 194.93499999999244,
                        "value": 0.4409448818897638
                    },
                    {
                        "number": 64,
                        "time": 194.93749999999244,
                        "value": 0.31496062992125984
                    },
                    {
                        "number": 64,
                        "time": 194.94499999999243,
                        "value": 0.1889763779527559
                    },
                    {
                        "number": 64,
                        "time": 194.95749999999242,
                        "value": 0
                    },
                    {
                        "number": 64,
                        "time": 194.9774999999924,
                        "value": 0.31496062992125984
                    },
                    {
                        "number": 64,
                        "time": 194.9849999999924,
                        "value": 0.4409448818897638
                    },
                    {
                        "number": 64,
                        "time": 194.9949999999924,
                        "value": 0.5669291338582677
                    },
                    {
                        "number": 64,
                        "time": 194.99999999999238,
                        "value": 0.8188976377952756
                    },
                    {
                        "number": 64,
                        "time": 195.00499999999238,
                        "value": 1
                    },
                    {
                        "number": 64,
                        "time": 195.3549999999924,
                        "value": 0.5669291338582677
                    },
                    {
                        "number": 64,
                        "time": 195.3624999999924,
                        "value": 0.31496062992125984
                    },
                    {
                        "number": 64,
                        "time": 195.3649999999924,
                        "value": 0
                    },
                    {
                        "number": 64,
                        "time": 195.41249999999238,
                        "value": 0.1889763779527559
                    },
                    {
                        "number": 64,
                        "time": 195.41499999999238,
                        "value": 0.31496062992125984
                    },
                    {
                        "number": 64,
                        "time": 195.42249999999237,
                        "value": 0.4409448818897638
                    },
                    {
                        "number": 64,
                        "time": 195.42749999999236,
                        "value": 0.5669291338582677
                    },
                    {
                        "number": 64,
                        "time": 195.43249999999236,
                        "value": 0.8188976377952756
                    },
                    {
                        "number": 64,
                        "time": 195.43749999999235,
                        "value": 1
                    },
                    {
                        "number": 64,
                        "time": 195.79249999999237,
                        "value": 0.8188976377952756
                    },
                    {
                        "number": 64,
                        "time": 195.79749999999237,
                        "value": 0.5669291338582677
                    },
                    {
                        "number": 64,
                        "time": 195.80249999999236,
                        "value": 0.31496062992125984
                    },
                    {
                        "number": 64,
                        "time": 195.80499999999236,
                        "value": 0.1889763779527559
                    },
                    {
                        "number": 64,
                        "time": 195.81249999999235,
                        "value": 0
                    },
                    {
                        "number": 64,
                        "time": 195.83249999999234,
                        "value": 0.1889763779527559
                    },
                    {
                        "number": 64,
                        "time": 195.83749999999233,
                        "value": 0.31496062992125984
                    },
                    {
                        "number": 64,
                        "time": 195.84749999999232,
                        "value": 0.4409448818897638
                    },
                    {
                        "number": 64,
                        "time": 195.85499999999232,
                        "value": 0.6929133858267716
                    },
                    {
                        "number": 64,
                        "time": 195.8624999999923,
                        "value": 1
                    },
                    {
                        "number": 64,
                        "time": 196.17249999999228,
                        "value": 0.6929133858267716
                    },
                    {
                        "number": 64,
                        "time": 196.17499999999228,
                        "value": 0.4409448818897638
                    },
                    {
                        "number": 64,
                        "time": 196.18249999999227,
                        "value": 0
                    },
                    {
                        "number": 64,
                        "time": 196.24999999999227,
                        "value": 0.1889763779527559
                    },
                    {
                        "number": 64,
                        "time": 196.25499999999226,
                        "value": 0.4409448818897638
                    },
                    {
                        "number": 64,
                        "time": 196.25999999999226,
                        "value": 0.8188976377952756
                    },
                    {
                        "number": 64,
                        "time": 196.26499999999226,
                        "value": 1
                    },
                    {
                        "number": 64,
                        "time": 196.56499999999224,
                        "value": 0.5669291338582677
                    },
                    {
                        "number": 64,
                        "time": 196.57249999999223,
                        "value": 0.1889763779527559
                    },
                    {
                        "number": 64,
                        "time": 196.57499999999223,
                        "value": 0
                    },
                    {
                        "number": 64,
                        "time": 196.64249999999225,
                        "value": 0.31496062992125984
                    },
                    {
                        "number": 64,
                        "time": 196.64749999999225,
                        "value": 0.6929133858267716
                    },
                    {
                        "number": 64,
                        "time": 196.65249999999224,
                        "value": 1
                    },
                    {
                        "number": 64,
                        "time": 196.95249999999223,
                        "value": 0.8188976377952756
                    },
                    {
                        "number": 64,
                        "time": 196.95749999999222,
                        "value": 0.4409448818897638
                    },
                    {
                        "number": 64,
                        "time": 196.96249999999222,
                        "value": 0.1889763779527559
                    },
                    {
                        "number": 64,
                        "time": 196.9674999999922,
                        "value": 0
                    },
                    {
                        "number": 64,
                        "time": 197.0149999999922,
                        "value": 0.1889763779527559
                    },
                    {
                        "number": 64,
                        "time": 197.0224999999922,
                        "value": 0.31496062992125984
                    },
                    {
                        "number": 64,
                        "time": 197.0274999999922,
                        "value": 0.5669291338582677
                    },
                    {
                        "number": 64,
                        "time": 197.03249999999218,
                        "value": 0.6929133858267716
                    },
                    {
                        "number": 64,
                        "time": 197.03749999999218,
                        "value": 1
                    },
                    {
                        "number": 64,
                        "time": 197.10249999999218,
                        "value": 0.8188976377952756
                    },
                    {
                        "number": 64,
                        "time": 197.11499999999216,
                        "value": 0.6929133858267716
                    },
                    {
                        "number": 64,
                        "time": 197.11999999999216,
                        "value": 0.5669291338582677
                    },
                    {
                        "number": 64,
                        "time": 197.13499999999215,
                        "value": 0.4409448818897638
                    },
                    {
                        "number": 64,
                        "time": 197.15499999999213,
                        "value": 0.31496062992125984
                    },
                    {
                        "number": 64,
                        "time": 197.16999999999211,
                        "value": 0.1889763779527559
                    },
                    {
                        "number": 64,
                        "time": 197.2149999999921,
                        "value": 0
                    },
                    {
                        "number": 64,
                        "time": 197.7549999999921,
                        "value": 0.1889763779527559
                    },
                    {
                        "number": 64,
                        "time": 197.7599999999921,
                        "value": 0.4409448818897638
                    },
                    {
                        "number": 64,
                        "time": 197.76499999999209,
                        "value": 0.6929133858267716
                    },
                    {
                        "number": 64,
                        "time": 197.77249999999208,
                        "value": 1
                    },
                    {
                        "number": 64,
                        "time": 197.84499999999207,
                        "value": 0.8188976377952756
                    },
                    {
                        "number": 64,
                        "time": 197.84999999999206,
                        "value": 0.6929133858267716
                    },
                    {
                        "number": 64,
                        "time": 197.85499999999206,
                        "value": 0.5669291338582677
                    },
                    {
                        "number": 64,
                        "time": 197.86499999999205,
                        "value": 0.4409448818897638
                    },
                    {
                        "number": 64,
                        "time": 197.86999999999205,
                        "value": 0.31496062992125984
                    },
                    {
                        "number": 64,
                        "time": 197.87499999999204,
                        "value": 0.1889763779527559
                    },
                    {
                        "number": 64,
                        "time": 197.87999999999204,
                        "value": 0
                    },
                    {
                        "number": 64,
                        "time": 198.177499999992,
                        "value": 0.1889763779527559
                    },
                    {
                        "number": 64,
                        "time": 198.182499999992,
                        "value": 0.31496062992125984
                    },
                    {
                        "number": 64,
                        "time": 198.18749999999199,
                        "value": 0.5669291338582677
                    },
                    {
                        "number": 64,
                        "time": 198.19499999999198,
                        "value": 0.6929133858267716
                    },
                    {
                        "number": 64,
                        "time": 198.19999999999197,
                        "value": 1
                    },
                    {
                        "number": 64,
                        "time": 198.43499999999196,
                        "value": 0.8188976377952756
                    },
                    {
                        "number": 64,
                        "time": 198.46499999999196,
                        "value": 0.6929133858267716
                    },
                    {
                        "number": 64,
                        "time": 198.47999999999195,
                        "value": 0.5669291338582677
                    },
                    {
                        "number": 64,
                        "time": 198.49499999999193,
                        "value": 0.4409448818897638
                    },
                    {
                        "number": 64,
                        "time": 198.50999999999192,
                        "value": 0.31496062992125984
                    },
                    {
                        "number": 64,
                        "time": 198.5249999999919,
                        "value": 0.1889763779527559
                    },
                    {
                        "number": 64,
                        "time": 198.5399999999919,
                        "value": 0
                    },
                    {
                        "number": 64,
                        "time": 198.95999999999185,
                        "value": 0.1889763779527559
                    },
                    {
                        "number": 64,
                        "time": 198.96499999999185,
                        "value": 0.31496062992125984
                    },
                    {
                        "number": 64,
                        "time": 198.96999999999184,
                        "value": 0.4409448818897638
                    },
                    {
                        "number": 64,
                        "time": 198.97499999999184,
                        "value": 0.5669291338582677
                    },
                    {
                        "number": 64,
                        "time": 198.97999999999183,
                        "value": 0.6929133858267716
                    },
                    {
                        "number": 64,
                        "time": 198.98499999999183,
                        "value": 0.8188976377952756
                    },
                    {
                        "number": 64,
                        "time": 198.99499999999182,
                        "value": 1
                    },
                    {
                        "number": 64,
                        "time": 199.38499999999183,
                        "value": 0.8188976377952756
                    },
                    {
                        "number": 64,
                        "time": 199.38999999999183,
                        "value": 0.5669291338582677
                    },
                    {
                        "number": 64,
                        "time": 199.39499999999182,
                        "value": 0.4409448818897638
                    },
                    {
                        "number": 64,
                        "time": 199.39749999999182,
                        "value": 0.31496062992125984
                    },
                    {
                        "number": 64,
                        "time": 199.40499999999182,
                        "value": 0.1889763779527559
                    },
                    {
                        "number": 64,
                        "time": 199.4074999999918,
                        "value": 0
                    },
                    {
                        "number": 64,
                        "time": 199.46749999999182,
                        "value": 0.1889763779527559
                    },
                    {
                        "number": 64,
                        "time": 199.4774999999918,
                        "value": 0.31496062992125984
                    },
                    {
                        "number": 64,
                        "time": 199.4874999999918,
                        "value": 0.4409448818897638
                    },
                    {
                        "number": 64,
                        "time": 199.4949999999918,
                        "value": 0.5669291338582677
                    },
                    {
                        "number": 64,
                        "time": 199.4974999999918,
                        "value": 0.6929133858267716
                    },
                    {
                        "number": 64,
                        "time": 199.50499999999178,
                        "value": 0.8188976377952756
                    },
                    {
                        "number": 64,
                        "time": 199.51499999999177,
                        "value": 1
                    },
                    {
                        "number": 64,
                        "time": 199.82499999999177,
                        "value": 0.6929133858267716
                    },
                    {
                        "number": 64,
                        "time": 199.82749999999177,
                        "value": 0.5669291338582677
                    },
                    {
                        "number": 64,
                        "time": 199.83499999999177,
                        "value": 0.4409448818897638
                    },
                    {
                        "number": 64,
                        "time": 199.83749999999176,
                        "value": 0.31496062992125984
                    },
                    {
                        "number": 64,
                        "time": 199.84499999999176,
                        "value": 0.1889763779527559
                    },
                    {
                        "number": 64,
                        "time": 199.84999999999175,
                        "value": 0
                    },
                    {
                        "number": 64,
                        "time": 199.89499999999177,
                        "value": 0.1889763779527559
                    },
                    {
                        "number": 64,
                        "time": 199.89749999999177,
                        "value": 0.31496062992125984
                    },
                    {
                        "number": 64,
                        "time": 199.90749999999176,
                        "value": 0.4409448818897638
                    },
                    {
                        "number": 64,
                        "time": 199.91499999999175,
                        "value": 0.5669291338582677
                    },
                    {
                        "number": 64,
                        "time": 199.91749999999175,
                        "value": 0.6929133858267716
                    },
                    {
                        "number": 64,
                        "time": 199.92749999999174,
                        "value": 0.8188976377952756
                    },
                    {
                        "number": 64,
                        "time": 199.93249999999173,
                        "value": 1
                    },
                    {
                        "number": 64,
                        "time": 200.26499999999172,
                        "value": 0.8188976377952756
                    },
                    {
                        "number": 64,
                        "time": 200.2674999999917,
                        "value": 0.5669291338582677
                    },
                    {
                        "number": 64,
                        "time": 200.2749999999917,
                        "value": 0.4409448818897638
                    },
                    {
                        "number": 64,
                        "time": 200.2774999999917,
                        "value": 0.1889763779527559
                    },
                    {
                        "number": 64,
                        "time": 200.2849999999917,
                        "value": 0
                    },
                    {
                        "number": 64,
                        "time": 200.33249999999168,
                        "value": 0.1889763779527559
                    },
                    {
                        "number": 64,
                        "time": 200.33499999999168,
                        "value": 0.31496062992125984
                    },
                    {
                        "number": 64,
                        "time": 200.34249999999167,
                        "value": 0.4409448818897638
                    },
                    {
                        "number": 64,
                        "time": 200.34499999999167,
                        "value": 0.5669291338582677
                    },
                    {
                        "number": 64,
                        "time": 200.35999999999166,
                        "value": 0.6929133858267716
                    },
                    {
                        "number": 64,
                        "time": 200.36499999999165,
                        "value": 0.8188976377952756
                    },
                    {
                        "number": 64,
                        "time": 200.37249999999165,
                        "value": 1
                    },
                    {
                        "number": 64,
                        "time": 200.6024999999917,
                        "value": 0.8188976377952756
                    },
                    {
                        "number": 64,
                        "time": 200.6049999999917,
                        "value": 0.6929133858267716
                    },
                    {
                        "number": 64,
                        "time": 200.61499999999168,
                        "value": 0.5669291338582677
                    },
                    {
                        "number": 64,
                        "time": 200.6324999999917,
                        "value": 0.4409448818897638
                    },
                    {
                        "number": 64,
                        "time": 200.64999999999168,
                        "value": 0.6929133858267716
                    },
                    {
                        "number": 64,
                        "time": 200.65499999999167,
                        "value": 0.8188976377952756
                    },
                    {
                        "number": 64,
                        "time": 200.66499999999166,
                        "value": 1
                    },
                    {
                        "number": 64,
                        "time": 200.97249999999167,
                        "value": 0.8188976377952756
                    },
                    {
                        "number": 64,
                        "time": 200.97499999999167,
                        "value": 0.5669291338582677
                    },
                    {
                        "number": 64,
                        "time": 200.98249999999166,
                        "value": 0.31496062992125984
                    },
                    {
                        "number": 64,
                        "time": 200.98499999999166,
                        "value": 0
                    },
                    {
                        "number": 64,
                        "time": 201.04249999999163,
                        "value": 0.1889763779527559
                    },
                    {
                        "number": 64,
                        "time": 201.04499999999163,
                        "value": 0.4409448818897638
                    },
                    {
                        "number": 64,
                        "time": 201.05249999999162,
                        "value": 0.5669291338582677
                    },
                    {
                        "number": 64,
                        "time": 201.05499999999162,
                        "value": 0.8188976377952756
                    },
                    {
                        "number": 64,
                        "time": 201.06249999999162,
                        "value": 1
                    },
                    {
                        "number": 64,
                        "time": 201.84749999999156,
                        "value": 0.8188976377952756
                    },
                    {
                        "number": 64,
                        "time": 201.85499999999155,
                        "value": 0.5669291338582677
                    },
                    {
                        "number": 64,
                        "time": 201.86249999999154,
                        "value": 0.4409448818897638
                    },
                    {
                        "number": 64,
                        "time": 201.90499999999153,
                        "value": 0.5669291338582677
                    },
                    {
                        "number": 64,
                        "time": 201.90999999999153,
                        "value": 0.6929133858267716
                    },
                    {
                        "number": 64,
                        "time": 201.91999999999152,
                        "value": 0.8188976377952756
                    },
                    {
                        "number": 64,
                        "time": 201.9249999999915,
                        "value": 1
                    },
                    {
                        "number": 64,
                        "time": 202.4099999999915,
                        "value": 0.6929133858267716
                    },
                    {
                        "number": 64,
                        "time": 202.4149999999915,
                        "value": 0.5669291338582677
                    },
                    {
                        "number": 64,
                        "time": 202.4199999999915,
                        "value": 0.4409448818897638
                    },
                    {
                        "number": 64,
                        "time": 202.42499999999148,
                        "value": 0.31496062992125984
                    },
                    {
                        "number": 64,
                        "time": 202.43999999999147,
                        "value": 0.1889763779527559
                    },
                    {
                        "number": 64,
                        "time": 202.46999999999147,
                        "value": 0.31496062992125984
                    },
                    {
                        "number": 64,
                        "time": 202.47499999999147,
                        "value": 0.4409448818897638
                    },
                    {
                        "number": 64,
                        "time": 202.47999999999146,
                        "value": 0.5669291338582677
                    },
                    {
                        "number": 64,
                        "time": 202.48499999999146,
                        "value": 0.6929133858267716
                    },
                    {
                        "number": 64,
                        "time": 202.48999999999145,
                        "value": 0.8188976377952756
                    },
                    {
                        "number": 64,
                        "time": 202.49499999999145,
                        "value": 1
                    },
                    {
                        "number": 64,
                        "time": 202.71999999999144,
                        "value": 0.8188976377952756
                    },
                    {
                        "number": 64,
                        "time": 202.73999999999145,
                        "value": 1
                    },
                    {
                        "number": 64,
                        "time": 203.01249999999143,
                        "value": 0.8188976377952756
                    },
                    {
                        "number": 64,
                        "time": 203.01749999999143,
                        "value": 0.6929133858267716
                    },
                    {
                        "number": 64,
                        "time": 203.02249999999142,
                        "value": 0.4409448818897638
                    },
                    {
                        "number": 64,
                        "time": 203.02749999999142,
                        "value": 0.31496062992125984
                    },
                    {
                        "number": 64,
                        "time": 203.03249999999142,
                        "value": 0
                    },
                    {
                        "number": 64,
                        "time": 203.1024999999914,
                        "value": 0.1889763779527559
                    },
                    {
                        "number": 64,
                        "time": 203.1074999999914,
                        "value": 0.31496062992125984
                    },
                    {
                        "number": 64,
                        "time": 203.1124999999914,
                        "value": 0.5669291338582677
                    },
                    {
                        "number": 64,
                        "time": 203.1174999999914,
                        "value": 0.6929133858267716
                    },
                    {
                        "number": 64,
                        "time": 203.1224999999914,
                        "value": 1
                    },
                    {
                        "number": 64,
                        "time": 203.9524999999914,
                        "value": 0.8188976377952756
                    },
                    {
                        "number": 64,
                        "time": 203.9574999999914,
                        "value": 0.6929133858267716
                    },
                    {
                        "number": 64,
                        "time": 203.9624999999914,
                        "value": 0.4409448818897638
                    },
                    {
                        "number": 64,
                        "time": 203.9699999999914,
                        "value": 0.31496062992125984
                    },
                    {
                        "number": 64,
                        "time": 203.97249999999138,
                        "value": 0
                    },
                    {
                        "number": 64,
                        "time": 204.04999999999137,
                        "value": 0.1889763779527559
                    },
                    {
                        "number": 64,
                        "time": 204.05499999999137,
                        "value": 0.4409448818897638
                    },
                    {
                        "number": 64,
                        "time": 204.05999999999136,
                        "value": 0.5669291338582677
                    },
                    {
                        "number": 64,
                        "time": 204.06499999999136,
                        "value": 0.6929133858267716
                    },
                    {
                        "number": 64,
                        "time": 204.06999999999135,
                        "value": 1
                    },
                    {
                        "number": 64,
                        "time": 204.45999999999134,
                        "value": 0.8188976377952756
                    },
                    {
                        "number": 64,
                        "time": 204.46499999999133,
                        "value": 0.6929133858267716
                    },
                    {
                        "number": 64,
                        "time": 204.46999999999133,
                        "value": 0.5669291338582677
                    },
                    {
                        "number": 64,
                        "time": 204.47499999999133,
                        "value": 0.4409448818897638
                    },
                    {
                        "number": 64,
                        "time": 204.47999999999132,
                        "value": 0.31496062992125984
                    },
                    {
                        "number": 64,
                        "time": 204.48499999999132,
                        "value": 0.1889763779527559
                    },
                    {
                        "number": 64,
                        "time": 204.4899999999913,
                        "value": 0
                    },
                    {
                        "number": 64,
                        "time": 204.5299999999913,
                        "value": 0.1889763779527559
                    },
                    {
                        "number": 64,
                        "time": 204.5374999999913,
                        "value": 0.4409448818897638
                    },
                    {
                        "number": 64,
                        "time": 204.5449999999913,
                        "value": 0.5669291338582677
                    },
                    {
                        "number": 64,
                        "time": 204.5474999999913,
                        "value": 0.6929133858267716
                    },
                    {
                        "number": 64,
                        "time": 204.55249999999128,
                        "value": 0.8188976377952756
                    },
                    {
                        "number": 64,
                        "time": 204.55749999999128,
                        "value": 1
                    },
                    {
                        "number": 64,
                        "time": 204.77249999999128,
                        "value": 0.8188976377952756
                    },
                    {
                        "number": 64,
                        "time": 204.77749999999128,
                        "value": 0.6929133858267716
                    },
                    {
                        "number": 64,
                        "time": 204.78249999999127,
                        "value": 0.5669291338582677
                    },
                    {
                        "number": 64,
                        "time": 204.8224999999913,
                        "value": 0.6929133858267716
                    },
                    {
                        "number": 64,
                        "time": 204.8299999999913,
                        "value": 0.8188976377952756
                    },
                    {
                        "number": 64,
                        "time": 204.83249999999128,
                        "value": 1
                    },
                    {
                        "number": 64,
                        "time": 205.22499999999127,
                        "value": 0.8188976377952756
                    },
                    {
                        "number": 64,
                        "time": 205.22749999999127,
                        "value": 0.5669291338582677
                    },
                    {
                        "number": 64,
                        "time": 205.23499999999126,
                        "value": 0.31496062992125984
                    },
                    {
                        "number": 64,
                        "time": 205.23749999999126,
                        "value": 0
                    },
                    {
                        "number": 64,
                        "time": 205.28999999999124,
                        "value": 0.1889763779527559
                    },
                    {
                        "number": 64,
                        "time": 205.29499999999123,
                        "value": 0.31496062992125984
                    },
                    {
                        "number": 64,
                        "time": 205.30249999999123,
                        "value": 0.5669291338582677
                    },
                    {
                        "number": 64,
                        "time": 205.30499999999122,
                        "value": 0.8188976377952756
                    },
                    {
                        "number": 64,
                        "time": 205.30999999999122,
                        "value": 1
                    },
                    {
                        "number": 64,
                        "time": 209.09749999999116,
                        "value": 0.8188976377952756
                    },
                    {
                        "number": 64,
                        "time": 209.12249999999116,
                        "value": 0.6929133858267716
                    },
                    {
                        "number": 64,
                        "time": 209.19249999999116,
                        "value": 0.5669291338582677
                    },
                    {
                        "number": 64,
                        "time": 209.20499999999114,
                        "value": 0.4409448818897638
                    },
                    {
                        "number": 64,
                        "time": 209.21249999999114,
                        "value": 0.31496062992125984
                    },
                    {
                        "number": 64,
                        "time": 209.21749999999113,
                        "value": 0.1889763779527559
                    },
                    {
                        "number": 64,
                        "time": 209.22249999999113,
                        "value": 0
                    },
                    {
                        "number": 64,
                        "time": 209.31749999999113,
                        "value": 0.1889763779527559
                    },
                    {
                        "number": 64,
                        "time": 209.32249999999112,
                        "value": 0.31496062992125984
                    },
                    {
                        "number": 64,
                        "time": 209.32749999999112,
                        "value": 0.5669291338582677
                    },
                    {
                        "number": 64,
                        "time": 209.33249999999111,
                        "value": 0.8188976377952756
                    },
                    {
                        "number": 64,
                        "time": 209.3374999999911,
                        "value": 1
                    },
                    {
                        "number": 64,
                        "time": 211.03499999999107,
                        "value": 0.6929133858267716
                    },
                    {
                        "number": 64,
                        "time": 211.03749999999107,
                        "value": 0.5669291338582677
                    },
                    {
                        "number": 64,
                        "time": 211.04499999999106,
                        "value": 0.31496062992125984
                    },
                    {
                        "number": 64,
                        "time": 211.04749999999106,
                        "value": 0.1889763779527559
                    },
                    {
                        "number": 64,
                        "time": 211.05499999999105,
                        "value": 0
                    },
                    {
                        "number": 64,
                        "time": 211.12499999999105,
                        "value": 0.1889763779527559
                    },
                    {
                        "number": 64,
                        "time": 211.12749999999104,
                        "value": 0.4409448818897638
                    },
                    {
                        "number": 64,
                        "time": 211.13499999999104,
                        "value": 0.5669291338582677
                    },
                    {
                        "number": 64,
                        "time": 211.13749999999104,
                        "value": 0.6929133858267716
                    },
                    {
                        "number": 64,
                        "time": 211.14499999999103,
                        "value": 1
                    },
                    {
                        "number": 64,
                        "time": 212.622499999991,
                        "value": 0.8188976377952756
                    },
                    {
                        "number": 64,
                        "time": 212.624999999991,
                        "value": 0.6929133858267716
                    },
                    {
                        "number": 64,
                        "time": 212.63249999999098,
                        "value": 0.4409448818897638
                    },
                    {
                        "number": 64,
                        "time": 212.63499999999098,
                        "value": 0.31496062992125984
                    },
                    {
                        "number": 64,
                        "time": 212.64249999999097,
                        "value": 0.1889763779527559
                    },
                    {
                        "number": 64,
                        "time": 212.64499999999097,
                        "value": 0
                    },
                    {
                        "number": 64,
                        "time": 212.712499999991,
                        "value": 0.1889763779527559
                    },
                    {
                        "number": 64,
                        "time": 212.714999999991,
                        "value": 0.31496062992125984
                    },
                    {
                        "number": 64,
                        "time": 212.722499999991,
                        "value": 0.4409448818897638
                    },
                    {
                        "number": 64,
                        "time": 212.72499999999098,
                        "value": 0.6929133858267716
                    },
                    {
                        "number": 64,
                        "time": 212.73249999999098,
                        "value": 0.8188976377952756
                    },
                    {
                        "number": 64,
                        "time": 212.73499999999098,
                        "value": 1
                    },
                    {
                        "number": 64,
                        "time": 214.2024999999909,
                        "value": 0.8188976377952756
                    },
                    {
                        "number": 64,
                        "time": 214.2074999999909,
                        "value": 0.5669291338582677
                    },
                    {
                        "number": 64,
                        "time": 214.21249999999088,
                        "value": 0.31496062992125984
                    },
                    {
                        "number": 64,
                        "time": 214.21749999999088,
                        "value": 0
                    },
                    {
                        "number": 64,
                        "time": 214.31499999999087,
                        "value": 0.31496062992125984
                    },
                    {
                        "number": 64,
                        "time": 214.31999999999087,
                        "value": 0.5669291338582677
                    },
                    {
                        "number": 64,
                        "time": 214.32499999999087,
                        "value": 1
                    },
                    {
                        "number": 64,
                        "time": 215.85249999999078,
                        "value": 0.6929133858267716
                    },
                    {
                        "number": 64,
                        "time": 215.85749999999078,
                        "value": 0.4409448818897638
                    },
                    {
                        "number": 64,
                        "time": 215.86249999999077,
                        "value": 0
                    },
                    {
                        "number": 64,
                        "time": 215.95999999999077,
                        "value": 0.1889763779527559
                    },
                    {
                        "number": 64,
                        "time": 215.96499999999077,
                        "value": 0.4409448818897638
                    },
                    {
                        "number": 64,
                        "time": 215.96999999999076,
                        "value": 0.6929133858267716
                    },
                    {
                        "number": 64,
                        "time": 215.97499999999076,
                        "value": 1
                    },
                    {
                        "number": 64,
                        "time": 217.49499999999074,
                        "value": 0.6929133858267716
                    },
                    {
                        "number": 64,
                        "time": 217.49749999999074,
                        "value": 0.4409448818897638
                    },
                    {
                        "number": 64,
                        "time": 217.50499999999073,
                        "value": 0.1889763779527559
                    },
                    {
                        "number": 64,
                        "time": 217.50749999999073,
                        "value": 0
                    },
                    {
                        "number": 64,
                        "time": 217.57999999999072,
                        "value": 0.1889763779527559
                    },
                    {
                        "number": 64,
                        "time": 217.5849999999907,
                        "value": 0.4409448818897638
                    },
                    {
                        "number": 64,
                        "time": 217.5899999999907,
                        "value": 0.5669291338582677
                    },
                    {
                        "number": 64,
                        "time": 217.5949999999907,
                        "value": 0.8188976377952756
                    },
                    {
                        "number": 64,
                        "time": 217.6024999999907,
                        "value": 1
                    },
                    {
                        "number": 64,
                        "time": 220.04999999999072,
                        "value": 0.8188976377952756
                    },
                    {
                        "number": 64,
                        "time": 220.0549999999907,
                        "value": 0.6929133858267716
                    },
                    {
                        "number": 64,
                        "time": 220.0599999999907,
                        "value": 0.5669291338582677
                    },
                    {
                        "number": 64,
                        "time": 220.0674999999907,
                        "value": 0.4409448818897638
                    },
                    {
                        "number": 64,
                        "time": 220.0974999999907,
                        "value": 0.5669291338582677
                    },
                    {
                        "number": 64,
                        "time": 220.1024999999907,
                        "value": 0.6929133858267716
                    },
                    {
                        "number": 64,
                        "time": 220.1074999999907,
                        "value": 0.8188976377952756
                    },
                    {
                        "number": 64,
                        "time": 220.11749999999068,
                        "value": 1
                    },
                    {
                        "number": 64,
                        "time": 220.8924999999906,
                        "value": 0.8188976377952756
                    },
                    {
                        "number": 64,
                        "time": 220.8974999999906,
                        "value": 0.6929133858267716
                    },
                    {
                        "number": 64,
                        "time": 220.9024999999906,
                        "value": 0.5669291338582677
                    },
                    {
                        "number": 64,
                        "time": 220.9074999999906,
                        "value": 0.4409448818897638
                    },
                    {
                        "number": 64,
                        "time": 220.9124999999906,
                        "value": 0.31496062992125984
                    },
                    {
                        "number": 64,
                        "time": 220.91749999999058,
                        "value": 0.1889763779527559
                    },
                    {
                        "number": 64,
                        "time": 220.92249999999058,
                        "value": 0
                    },
                    {
                        "number": 64,
                        "time": 220.96749999999057,
                        "value": 0.1889763779527559
                    },
                    {
                        "number": 64,
                        "time": 220.97749999999056,
                        "value": 0.31496062992125984
                    },
                    {
                        "number": 64,
                        "time": 220.98249999999055,
                        "value": 0.4409448818897638
                    },
                    {
                        "number": 64,
                        "time": 220.98499999999055,
                        "value": 0.5669291338582677
                    },
                    {
                        "number": 64,
                        "time": 220.99249999999054,
                        "value": 0.6929133858267716
                    },
                    {
                        "number": 64,
                        "time": 220.99749999999054,
                        "value": 0.8188976377952756
                    },
                    {
                        "number": 64,
                        "time": 221.00249999999053,
                        "value": 1
                    },
                    {
                        "number": 64,
                        "time": 221.34499999999048,
                        "value": 0.8188976377952756
                    },
                    {
                        "number": 64,
                        "time": 221.3624999999905,
                        "value": 0.6929133858267716
                    },
                    {
                        "number": 64,
                        "time": 221.3824999999905,
                        "value": 1
                    },
                    {
                        "number": 64,
                        "time": 221.74249999999049,
                        "value": 0.8188976377952756
                    },
                    {
                        "number": 64,
                        "time": 221.74749999999048,
                        "value": 0.6929133858267716
                    },
                    {
                        "number": 64,
                        "time": 221.78249999999048,
                        "value": 0.8188976377952756
                    },
                    {
                        "number": 64,
                        "time": 221.78749999999047,
                        "value": 1
                    },
                    {
                        "number": 64,
                        "time": 222.15249999999045,
                        "value": 0.6929133858267716
                    },
                    {
                        "number": 64,
                        "time": 222.15749999999045,
                        "value": 0.5669291338582677
                    },
                    {
                        "number": 64,
                        "time": 222.16749999999044,
                        "value": 0.4409448818897638
                    },
                    {
                        "number": 64,
                        "time": 222.17249999999044,
                        "value": 0.31496062992125984
                    },
                    {
                        "number": 64,
                        "time": 222.20249999999044,
                        "value": 0.5669291338582677
                    },
                    {
                        "number": 64,
                        "time": 222.21249999999043,
                        "value": 0.6929133858267716
                    },
                    {
                        "number": 64,
                        "time": 222.21749999999042,
                        "value": 0.8188976377952756
                    },
                    {
                        "number": 64,
                        "time": 222.22249999999042,
                        "value": 1
                    },
                    {
                        "number": 64,
                        "time": 222.5874999999904,
                        "value": 0.8188976377952756
                    },
                    {
                        "number": 64,
                        "time": 222.5924999999904,
                        "value": 0.5669291338582677
                    },
                    {
                        "number": 64,
                        "time": 222.5974999999904,
                        "value": 0.4409448818897638
                    },
                    {
                        "number": 64,
                        "time": 222.60249999999039,
                        "value": 0.1889763779527559
                    },
                    {
                        "number": 64,
                        "time": 222.60749999999038,
                        "value": 0
                    },
                    {
                        "number": 64,
                        "time": 222.65499999999037,
                        "value": 0.1889763779527559
                    },
                    {
                        "number": 64,
                        "time": 222.65749999999036,
                        "value": 0.31496062992125984
                    },
                    {
                        "number": 64,
                        "time": 222.66249999999036,
                        "value": 0.4409448818897638
                    },
                    {
                        "number": 64,
                        "time": 222.66999999999035,
                        "value": 0.5669291338582677
                    },
                    {
                        "number": 64,
                        "time": 222.67249999999035,
                        "value": 0.8188976377952756
                    },
                    {
                        "number": 64,
                        "time": 222.67999999999034,
                        "value": 1
                    },
                    {
                        "number": 64,
                        "time": 223.01749999999035,
                        "value": 0.8188976377952756
                    },
                    {
                        "number": 64,
                        "time": 223.02249999999034,
                        "value": 0.6929133858267716
                    },
                    {
                        "number": 64,
                        "time": 223.02749999999034,
                        "value": 0.5669291338582677
                    },
                    {
                        "number": 64,
                        "time": 223.03499999999033,
                        "value": 0.4409448818897638
                    },
                    {
                        "number": 64,
                        "time": 223.03749999999033,
                        "value": 0.1889763779527559
                    },
                    {
                        "number": 64,
                        "time": 223.04499999999032,
                        "value": 0
                    },
                    {
                        "number": 64,
                        "time": 223.08499999999032,
                        "value": 0.1889763779527559
                    },
                    {
                        "number": 64,
                        "time": 223.0899999999903,
                        "value": 0.31496062992125984
                    },
                    {
                        "number": 64,
                        "time": 223.0999999999903,
                        "value": 0.5669291338582677
                    },
                    {
                        "number": 64,
                        "time": 223.1049999999903,
                        "value": 0.6929133858267716
                    },
                    {
                        "number": 64,
                        "time": 223.1099999999903,
                        "value": 0.8188976377952756
                    },
                    {
                        "number": 64,
                        "time": 223.1149999999903,
                        "value": 1
                    },
                    {
                        "number": 64,
                        "time": 223.47499999999027,
                        "value": 0.6929133858267716
                    },
                    {
                        "number": 64,
                        "time": 223.48249999999027,
                        "value": 0.5669291338582677
                    },
                    {
                        "number": 64,
                        "time": 223.48499999999026,
                        "value": 0.4409448818897638
                    },
                    {
                        "number": 64,
                        "time": 223.48999999999026,
                        "value": 0.31496062992125984
                    },
                    {
                        "number": 64,
                        "time": 223.49499999999026,
                        "value": 0.1889763779527559
                    },
                    {
                        "number": 64,
                        "time": 223.49999999999025,
                        "value": 0
                    },
                    {
                        "number": 64,
                        "time": 223.54999999999023,
                        "value": 0.1889763779527559
                    },
                    {
                        "number": 64,
                        "time": 223.55499999999023,
                        "value": 0.31496062992125984
                    },
                    {
                        "number": 64,
                        "time": 223.55749999999023,
                        "value": 0.4409448818897638
                    },
                    {
                        "number": 64,
                        "time": 223.56499999999022,
                        "value": 0.5669291338582677
                    },
                    {
                        "number": 64,
                        "time": 223.56749999999022,
                        "value": 0.6929133858267716
                    },
                    {
                        "number": 64,
                        "time": 223.5749999999902,
                        "value": 0.8188976377952756
                    },
                    {
                        "number": 64,
                        "time": 223.5774999999902,
                        "value": 1
                    },
                    {
                        "number": 64,
                        "time": 223.91499999999021,
                        "value": 0.8188976377952756
                    },
                    {
                        "number": 64,
                        "time": 223.9174999999902,
                        "value": 0.5669291338582677
                    },
                    {
                        "number": 64,
                        "time": 223.9249999999902,
                        "value": 0.4409448818897638
                    },
                    {
                        "number": 64,
                        "time": 223.9349999999902,
                        "value": 0.31496062992125984
                    },
                    {
                        "number": 64,
                        "time": 223.9374999999902,
                        "value": 0.1889763779527559
                    },
                    {
                        "number": 64,
                        "time": 223.97749999999021,
                        "value": 0.31496062992125984
                    },
                    {
                        "number": 64,
                        "time": 223.9824999999902,
                        "value": 0.4409448818897638
                    },
                    {
                        "number": 64,
                        "time": 223.9874999999902,
                        "value": 0.5669291338582677
                    },
                    {
                        "number": 64,
                        "time": 223.9924999999902,
                        "value": 0.6929133858267716
                    },
                    {
                        "number": 64,
                        "time": 223.9974999999902,
                        "value": 0.8188976377952756
                    },
                    {
                        "number": 64,
                        "time": 224.0049999999902,
                        "value": 1
                    },
                    {
                        "number": 64,
                        "time": 224.44749999999019,
                        "value": 0.8188976377952756
                    },
                    {
                        "number": 64,
                        "time": 224.45499999999018,
                        "value": 0.6929133858267716
                    },
                    {
                        "number": 64,
                        "time": 224.45999999999017,
                        "value": 0.4409448818897638
                    },
                    {
                        "number": 64,
                        "time": 224.46499999999017,
                        "value": 0.1889763779527559
                    },
                    {
                        "number": 64,
                        "time": 224.46999999999016,
                        "value": 0
                    },
                    {
                        "number": 64,
                        "time": 224.50999999999013,
                        "value": 0.1889763779527559
                    },
                    {
                        "number": 64,
                        "time": 224.51499999999012,
                        "value": 0.31496062992125984
                    },
                    {
                        "number": 64,
                        "time": 224.51999999999012,
                        "value": 0.4409448818897638
                    },
                    {
                        "number": 64,
                        "time": 224.52499999999011,
                        "value": 0.5669291338582677
                    },
                    {
                        "number": 64,
                        "time": 224.5299999999901,
                        "value": 0.8188976377952756
                    },
                    {
                        "number": 64,
                        "time": 224.5349999999901,
                        "value": 1
                    },
                    {
                        "number": 64,
                        "time": 225.78499999999005,
                        "value": 0.6929133858267716
                    },
                    {
                        "number": 64,
                        "time": 225.78999999999004,
                        "value": 0.5669291338582677
                    },
                    {
                        "number": 64,
                        "time": 225.79499999999004,
                        "value": 0.4409448818897638
                    },
                    {
                        "number": 64,
                        "time": 225.81999999999005,
                        "value": 0.5669291338582677
                    },
                    {
                        "number": 64,
                        "time": 225.82499999999004,
                        "value": 0.6929133858267716
                    },
                    {
                        "number": 64,
                        "time": 225.83499999999003,
                        "value": 0.8188976377952756
                    },
                    {
                        "number": 64,
                        "time": 225.83999999999003,
                        "value": 1
                    },
                    {
                        "number": 64,
                        "time": 226.33499999998998,
                        "value": 0.6929133858267716
                    },
                    {
                        "number": 64,
                        "time": 226.33999999998997,
                        "value": 0.4409448818897638
                    },
                    {
                        "number": 64,
                        "time": 226.34499999998997,
                        "value": 0.1889763779527559
                    },
                    {
                        "number": 64,
                        "time": 226.34999999998996,
                        "value": 0
                    },
                    {
                        "number": 64,
                        "time": 226.40999999998996,
                        "value": 0.1889763779527559
                    },
                    {
                        "number": 64,
                        "time": 226.41499999998996,
                        "value": 0.31496062992125984
                    },
                    {
                        "number": 64,
                        "time": 226.41999999998995,
                        "value": 0.4409448818897638
                    },
                    {
                        "number": 64,
                        "time": 226.42499999998995,
                        "value": 0.5669291338582677
                    },
                    {
                        "number": 64,
                        "time": 226.42999999998995,
                        "value": 0.8188976377952756
                    },
                    {
                        "number": 64,
                        "time": 226.43499999998994,
                        "value": 1
                    },
                    {
                        "number": 64,
                        "time": 226.86999999998991,
                        "value": 0.8188976377952756
                    },
                    {
                        "number": 64,
                        "time": 226.89999999998992,
                        "value": 1
                    },
                    {
                        "number": 64,
                        "time": 227.3349999999899,
                        "value": 0.8188976377952756
                    },
                    {
                        "number": 64,
                        "time": 227.33999999998989,
                        "value": 0.6929133858267716
                    },
                    {
                        "number": 64,
                        "time": 227.36499999998986,
                        "value": 1
                    },
                    {
                        "number": 64,
                        "time": 229.96749999998977,
                        "value": 0.8188976377952756
                    },
                    {
                        "number": 64,
                        "time": 229.98749999998978,
                        "value": 1
                    },
                    {
                        "number": 64,
                        "time": 231.1699999999897,
                        "value": 0.8188976377952756
                    },
                    {
                        "number": 64,
                        "time": 231.1774999999897,
                        "value": 0.6929133858267716
                    },
                    {
                        "number": 64,
                        "time": 231.1999999999897,
                        "value": 1
                    },
                    {
                        "number": 64,
                        "time": 231.56999999998965,
                        "value": 0.8188976377952756
                    },
                    {
                        "number": 64,
                        "time": 231.59999999998965,
                        "value": 1
                    },
                    {
                        "number": 64,
                        "time": 231.96999999998965,
                        "value": 0.8188976377952756
                    },
                    {
                        "number": 64,
                        "time": 231.97499999998965,
                        "value": 0.6929133858267716
                    },
                    {
                        "number": 64,
                        "time": 231.99999999998963,
                        "value": 1
                    },
                    {
                        "number": 64,
                        "time": 232.36499999998958,
                        "value": 0.8188976377952756
                    },
                    {
                        "number": 64,
                        "time": 232.36999999998957,
                        "value": 0.5669291338582677
                    },
                    {
                        "number": 64,
                        "time": 232.37499999998957,
                        "value": 0.4409448818897638
                    },
                    {
                        "number": 64,
                        "time": 232.39999999998955,
                        "value": 0.6929133858267716
                    },
                    {
                        "number": 64,
                        "time": 232.40499999998954,
                        "value": 0.8188976377952756
                    },
                    {
                        "number": 64,
                        "time": 232.40999999998954,
                        "value": 1
                    },
                    {
                        "number": 64,
                        "time": 232.75499999998954,
                        "value": 0.8188976377952756
                    },
                    {
                        "number": 64,
                        "time": 232.75999999998953,
                        "value": 0.6929133858267716
                    },
                    {
                        "number": 64,
                        "time": 232.78499999998954,
                        "value": 1
                    },
                    {
                        "number": 64,
                        "time": 233.13999999998953,
                        "value": 0.6929133858267716
                    },
                    {
                        "number": 64,
                        "time": 233.14499999998952,
                        "value": 0.4409448818897638
                    },
                    {
                        "number": 64,
                        "time": 233.14999999998952,
                        "value": 0.31496062992125984
                    },
                    {
                        "number": 64,
                        "time": 233.1549999999895,
                        "value": 0.1889763779527559
                    },
                    {
                        "number": 64,
                        "time": 233.1699999999895,
                        "value": 0
                    },
                    {
                        "number": 64,
                        "time": 233.1899999999895,
                        "value": 0.1889763779527559
                    },
                    {
                        "number": 64,
                        "time": 233.1949999999895,
                        "value": 0.31496062992125984
                    },
                    {
                        "number": 64,
                        "time": 233.1999999999895,
                        "value": 0.4409448818897638
                    },
                    {
                        "number": 64,
                        "time": 233.2049999999895,
                        "value": 0.5669291338582677
                    },
                    {
                        "number": 64,
                        "time": 233.2099999999895,
                        "value": 0.6929133858267716
                    },
                    {
                        "number": 64,
                        "time": 233.2149999999895,
                        "value": 0.8188976377952756
                    },
                    {
                        "number": 64,
                        "time": 233.21999999998948,
                        "value": 1
                    },
                    {
                        "number": 64,
                        "time": 233.58999999998946,
                        "value": 0.8188976377952756
                    },
                    {
                        "number": 64,
                        "time": 233.59499999998945,
                        "value": 0.5669291338582677
                    },
                    {
                        "number": 64,
                        "time": 233.59999999998945,
                        "value": 0.4409448818897638
                    },
                    {
                        "number": 64,
                        "time": 233.62999999998945,
                        "value": 0.5669291338582677
                    },
                    {
                        "number": 64,
                        "time": 233.63499999998945,
                        "value": 0.6929133858267716
                    },
                    {
                        "number": 64,
                        "time": 233.63999999998944,
                        "value": 0.8188976377952756
                    },
                    {
                        "number": 64,
                        "time": 233.64999999998943,
                        "value": 1
                    },
                    {
                        "number": 64,
                        "time": 234.01499999998939,
                        "value": 0.8188976377952756
                    },
                    {
                        "number": 64,
                        "time": 234.01999999998938,
                        "value": 0.5669291338582677
                    },
                    {
                        "number": 64,
                        "time": 234.02499999998938,
                        "value": 0.4409448818897638
                    },
                    {
                        "number": 64,
                        "time": 234.02999999998937,
                        "value": 0.31496062992125984
                    },
                    {
                        "number": 64,
                        "time": 234.03499999998937,
                        "value": 0.1889763779527559
                    },
                    {
                        "number": 64,
                        "time": 234.03999999998936,
                        "value": 0
                    },
                    {
                        "number": 64,
                        "time": 234.08499999998935,
                        "value": 0.1889763779527559
                    },
                    {
                        "number": 64,
                        "time": 234.08999999998935,
                        "value": 0.31496062992125984
                    },
                    {
                        "number": 64,
                        "time": 234.09499999998934,
                        "value": 0.4409448818897638
                    },
                    {
                        "number": 64,
                        "time": 234.10499999998933,
                        "value": 0.5669291338582677
                    },
                    {
                        "number": 64,
                        "time": 234.10999999998933,
                        "value": 0.8188976377952756
                    },
                    {
                        "number": 64,
                        "time": 234.11749999998932,
                        "value": 1
                    },
                    {
                        "number": 64,
                        "time": 234.40749999998926,
                        "value": 0.8188976377952756
                    },
                    {
                        "number": 64,
                        "time": 234.41249999998925,
                        "value": 0.6929133858267716
                    },
                    {
                        "number": 64,
                        "time": 234.41749999998925,
                        "value": 0.5669291338582677
                    },
                    {
                        "number": 64,
                        "time": 234.42249999998924,
                        "value": 0.4409448818897638
                    },
                    {
                        "number": 64,
                        "time": 234.42749999998924,
                        "value": 0.31496062992125984
                    },
                    {
                        "number": 64,
                        "time": 234.46499999998923,
                        "value": 0.5669291338582677
                    },
                    {
                        "number": 64,
                        "time": 234.47249999998922,
                        "value": 0.6929133858267716
                    },
                    {
                        "number": 64,
                        "time": 234.47749999998922,
                        "value": 0.8188976377952756
                    },
                    {
                        "number": 64,
                        "time": 234.4849999999892,
                        "value": 1
                    },
                    {
                        "number": 64,
                        "time": 234.82499999998922,
                        "value": 0.8188976377952756
                    },
                    {
                        "number": 64,
                        "time": 234.82749999998921,
                        "value": 0.5669291338582677
                    },
                    {
                        "number": 64,
                        "time": 234.8349999999892,
                        "value": 0.4409448818897638
                    },
                    {
                        "number": 64,
                        "time": 234.8374999999892,
                        "value": 0.31496062992125984
                    },
                    {
                        "number": 64,
                        "time": 234.8449999999892,
                        "value": 0.1889763779527559
                    },
                    {
                        "number": 64,
                        "time": 234.8474999999892,
                        "value": 0
                    },
                    {
                        "number": 64,
                        "time": 234.8874999999892,
                        "value": 0.1889763779527559
                    },
                    {
                        "number": 64,
                        "time": 234.89749999998918,
                        "value": 0.31496062992125984
                    },
                    {
                        "number": 64,
                        "time": 234.90499999998917,
                        "value": 0.4409448818897638
                    },
                    {
                        "number": 64,
                        "time": 234.91499999998916,
                        "value": 0.5669291338582677
                    },
                    {
                        "number": 64,
                        "time": 234.91749999998916,
                        "value": 0.6929133858267716
                    },
                    {
                        "number": 64,
                        "time": 234.92249999998916,
                        "value": 0.8188976377952756
                    },
                    {
                        "number": 64,
                        "time": 234.93499999998915,
                        "value": 1
                    },
                    {
                        "number": 64,
                        "time": 235.2724999999891,
                        "value": 0.8188976377952756
                    },
                    {
                        "number": 64,
                        "time": 235.2774999999891,
                        "value": 0.6929133858267716
                    },
                    {
                        "number": 64,
                        "time": 235.28499999998908,
                        "value": 0.4409448818897638
                    },
                    {
                        "number": 64,
                        "time": 235.28749999998908,
                        "value": 0.31496062992125984
                    },
                    {
                        "number": 64,
                        "time": 235.29499999998907,
                        "value": 0.1889763779527559
                    },
                    {
                        "number": 64,
                        "time": 235.32749999998907,
                        "value": 0.31496062992125984
                    },
                    {
                        "number": 64,
                        "time": 235.33499999998907,
                        "value": 0.4409448818897638
                    },
                    {
                        "number": 64,
                        "time": 235.34499999998906,
                        "value": 0.5669291338582677
                    },
                    {
                        "number": 64,
                        "time": 235.34999999998905,
                        "value": 0.6929133858267716
                    },
                    {
                        "number": 64,
                        "time": 235.35499999998905,
                        "value": 0.8188976377952756
                    },
                    {
                        "number": 64,
                        "time": 235.35999999998904,
                        "value": 1
                    },
                    {
                        "number": 64,
                        "time": 235.719999999989,
                        "value": 0.8188976377952756
                    },
                    {
                        "number": 64,
                        "time": 235.724999999989,
                        "value": 0.6929133858267716
                    },
                    {
                        "number": 64,
                        "time": 235.729999999989,
                        "value": 0.5669291338582677
                    },
                    {
                        "number": 64,
                        "time": 235.734999999989,
                        "value": 0.4409448818897638
                    },
                    {
                        "number": 64,
                        "time": 235.73999999998898,
                        "value": 0.31496062992125984
                    },
                    {
                        "number": 64,
                        "time": 235.74499999998898,
                        "value": 0
                    },
                    {
                        "number": 64,
                        "time": 235.80999999998897,
                        "value": 0.1889763779527559
                    },
                    {
                        "number": 64,
                        "time": 235.81499999998897,
                        "value": 0.31496062992125984
                    },
                    {
                        "number": 64,
                        "time": 235.82999999998896,
                        "value": 0.5669291338582677
                    },
                    {
                        "number": 64,
                        "time": 235.83499999998895,
                        "value": 0.6929133858267716
                    },
                    {
                        "number": 64,
                        "time": 235.84499999998894,
                        "value": 0.8188976377952756
                    },
                    {
                        "number": 64,
                        "time": 235.84749999998894,
                        "value": 1
                    },
                    {
                        "number": 64,
                        "time": 236.14499999998895,
                        "value": 0.8188976377952756
                    },
                    {
                        "number": 64,
                        "time": 236.14749999998895,
                        "value": 0.6929133858267716
                    },
                    {
                        "number": 64,
                        "time": 236.15499999998895,
                        "value": 0.5669291338582677
                    },
                    {
                        "number": 64,
                        "time": 236.15749999998894,
                        "value": 0.4409448818897638
                    },
                    {
                        "number": 64,
                        "time": 236.16499999998894,
                        "value": 0.31496062992125984
                    },
                    {
                        "number": 64,
                        "time": 236.16749999998893,
                        "value": 0.1889763779527559
                    },
                    {
                        "number": 64,
                        "time": 236.21749999998892,
                        "value": 0.31496062992125984
                    },
                    {
                        "number": 64,
                        "time": 236.2274999999889,
                        "value": 0.4409448818897638
                    },
                    {
                        "number": 64,
                        "time": 236.2399999999889,
                        "value": 0.5669291338582677
                    },
                    {
                        "number": 64,
                        "time": 236.2499999999889,
                        "value": 0.6929133858267716
                    },
                    {
                        "number": 64,
                        "time": 236.25499999998888,
                        "value": 0.8188976377952756
                    },
                    {
                        "number": 64,
                        "time": 236.26249999998888,
                        "value": 1
                    },
                    {
                        "number": 64,
                        "time": 236.54749999998884,
                        "value": 0.8188976377952756
                    },
                    {
                        "number": 64,
                        "time": 236.55499999998884,
                        "value": 0.6929133858267716
                    },
                    {
                        "number": 64,
                        "time": 236.55749999998883,
                        "value": 0.5669291338582677
                    },
                    {
                        "number": 64,
                        "time": 236.56499999998883,
                        "value": 0.4409448818897638
                    },
                    {
                        "number": 64,
                        "time": 236.56749999998883,
                        "value": 0.1889763779527559
                    },
                    {
                        "number": 64,
                        "time": 236.57499999998882,
                        "value": 0
                    },
                    {
                        "number": 64,
                        "time": 236.66499999998882,
                        "value": 0.1889763779527559
                    },
                    {
                        "number": 64,
                        "time": 236.66749999998882,
                        "value": 0.31496062992125984
                    },
                    {
                        "number": 64,
                        "time": 236.6749999999888,
                        "value": 0.4409448818897638
                    },
                    {
                        "number": 64,
                        "time": 236.6774999999888,
                        "value": 0.5669291338582677
                    },
                    {
                        "number": 64,
                        "time": 236.6849999999888,
                        "value": 0.6929133858267716
                    },
                    {
                        "number": 64,
                        "time": 236.6874999999888,
                        "value": 0.8188976377952756
                    },
                    {
                        "number": 64,
                        "time": 236.6949999999888,
                        "value": 1
                    },
                    {
                        "number": 64,
                        "time": 236.9699999999888,
                        "value": 0.8188976377952756
                    },
                    {
                        "number": 64,
                        "time": 236.9749999999888,
                        "value": 0.5669291338582677
                    },
                    {
                        "number": 64,
                        "time": 236.9799999999888,
                        "value": 0.4409448818897638
                    },
                    {
                        "number": 64,
                        "time": 236.9849999999888,
                        "value": 0.31496062992125984
                    },
                    {
                        "number": 64,
                        "time": 236.98999999998878,
                        "value": 0.1889763779527559
                    },
                    {
                        "number": 64,
                        "time": 236.99499999998878,
                        "value": 0
                    },
                    {
                        "number": 64,
                        "time": 237.06999999998877,
                        "value": 0.1889763779527559
                    },
                    {
                        "number": 64,
                        "time": 237.07499999998876,
                        "value": 0.31496062992125984
                    },
                    {
                        "number": 64,
                        "time": 237.07999999998876,
                        "value": 0.4409448818897638
                    },
                    {
                        "number": 64,
                        "time": 237.08499999998875,
                        "value": 0.5669291338582677
                    },
                    {
                        "number": 64,
                        "time": 237.08999999998875,
                        "value": 0.6929133858267716
                    },
                    {
                        "number": 64,
                        "time": 237.09499999998874,
                        "value": 0.8188976377952756
                    },
                    {
                        "number": 64,
                        "time": 237.09999999998874,
                        "value": 1
                    },
                    {
                        "number": 64,
                        "time": 237.2849999999887,
                        "value": 0.8188976377952756
                    },
                    {
                        "number": 64,
                        "time": 237.2949999999887,
                        "value": 0.6929133858267716
                    },
                    {
                        "number": 64,
                        "time": 237.31499999998871,
                        "value": 0.4409448818897638
                    },
                    {
                        "number": 64,
                        "time": 237.33499999998872,
                        "value": 0.31496062992125984
                    },
                    {
                        "number": 64,
                        "time": 237.3499999999887,
                        "value": 0
                    },
                    {
                        "number": 64,
                        "time": 240.77749999998863,
                        "value": 0.1889763779527559
                    },
                    {
                        "number": 64,
                        "time": 240.78499999998863,
                        "value": 0.4409448818897638
                    },
                    {
                        "number": 64,
                        "time": 240.78749999998863,
                        "value": 0.5669291338582677
                    },
                    {
                        "number": 64,
                        "time": 240.79499999998862,
                        "value": 0.6929133858267716
                    },
                    {
                        "number": 64,
                        "time": 240.79749999998862,
                        "value": 0.8188976377952756
                    },
                    {
                        "number": 64,
                        "time": 240.8049999999886,
                        "value": 1
                    },
                    {
                        "number": 64,
                        "time": 254.30499999998804,
                        "value": 0.8188976377952756
                    },
                    {
                        "number": 64,
                        "time": 254.35999999998805,
                        "value": 1
                    },
                    {
                        "number": 64,
                        "time": 261.35249999998797,
                        "value": 0.8188976377952756
                    },
                    {
                        "number": 64,
                        "time": 261.35749999998797,
                        "value": 0.6929133858267716
                    },
                    {
                        "number": 64,
                        "time": 261.36249999998796,
                        "value": 0.5669291338582677
                    },
                    {
                        "number": 64,
                        "time": 261.37249999998795,
                        "value": 0.4409448818897638
                    },
                    {
                        "number": 64,
                        "time": 261.37499999998795,
                        "value": 0.31496062992125984
                    },
                    {
                        "number": 64,
                        "time": 261.38249999998794,
                        "value": 0.1889763779527559
                    },
                    {
                        "number": 64,
                        "time": 261.38999999998794,
                        "value": 0
                    },
                    {
                        "number": 64,
                        "time": 261.50499999998794,
                        "value": 0.1889763779527559
                    },
                    {
                        "number": 64,
                        "time": 261.51749999998793,
                        "value": 0.31496062992125984
                    },
                    {
                        "number": 64,
                        "time": 261.52249999998793,
                        "value": 0.4409448818897638
                    },
                    {
                        "number": 64,
                        "time": 261.5324999999879,
                        "value": 0.5669291338582677
                    },
                    {
                        "number": 64,
                        "time": 261.5349999999879,
                        "value": 0.6929133858267716
                    },
                    {
                        "number": 64,
                        "time": 261.5449999999879,
                        "value": 0.8188976377952756
                    },
                    {
                        "number": 64,
                        "time": 261.5674999999879,
                        "value": 1
                    },
                    {
                        "number": 64,
                        "time": 262.8774999999878,
                        "value": 0.8188976377952756
                    },
                    {
                        "number": 64,
                        "time": 262.8824999999878,
                        "value": 0.6929133858267716
                    },
                    {
                        "number": 64,
                        "time": 262.88749999998777,
                        "value": 0.5669291338582677
                    },
                    {
                        "number": 64,
                        "time": 262.89499999998776,
                        "value": 0.4409448818897638
                    },
                    {
                        "number": 64,
                        "time": 262.89749999998776,
                        "value": 0.31496062992125984
                    },
                    {
                        "number": 64,
                        "time": 262.90249999998775,
                        "value": 0.1889763779527559
                    },
                    {
                        "number": 64,
                        "time": 262.91749999998774,
                        "value": 0
                    },
                    {
                        "number": 64,
                        "time": 262.98749999998773,
                        "value": 0.1889763779527559
                    },
                    {
                        "number": 64,
                        "time": 262.99249999998773,
                        "value": 0.31496062992125984
                    },
                    {
                        "number": 64,
                        "time": 262.9974999999877,
                        "value": 0.4409448818897638
                    },
                    {
                        "number": 64,
                        "time": 263.0074999999877,
                        "value": 0.5669291338582677
                    },
                    {
                        "number": 64,
                        "time": 263.0124999999877,
                        "value": 0.6929133858267716
                    },
                    {
                        "number": 64,
                        "time": 263.0174999999877,
                        "value": 0.8188976377952756
                    },
                    {
                        "number": 64,
                        "time": 263.0224999999877,
                        "value": 1
                    },
                    {
                        "number": 64,
                        "time": 264.0249999999876,
                        "value": 0.8188976377952756
                    },
                    {
                        "number": 64,
                        "time": 264.0299999999876,
                        "value": 0.6929133858267716
                    },
                    {
                        "number": 64,
                        "time": 264.0349999999876,
                        "value": 0.5669291338582677
                    },
                    {
                        "number": 64,
                        "time": 264.0399999999876,
                        "value": 0.4409448818897638
                    },
                    {
                        "number": 64,
                        "time": 264.04499999998757,
                        "value": 0.31496062992125984
                    },
                    {
                        "number": 64,
                        "time": 264.04999999998756,
                        "value": 0.1889763779527559
                    },
                    {
                        "number": 64,
                        "time": 264.05499999998756,
                        "value": 0
                    },
                    {
                        "number": 64,
                        "time": 264.1549999999876,
                        "value": 0.1889763779527559
                    },
                    {
                        "number": 64,
                        "time": 264.1649999999876,
                        "value": 0.31496062992125984
                    },
                    {
                        "number": 64,
                        "time": 264.16999999998757,
                        "value": 0.4409448818897638
                    },
                    {
                        "number": 64,
                        "time": 264.17499999998756,
                        "value": 0.5669291338582677
                    },
                    {
                        "number": 64,
                        "time": 264.17999999998756,
                        "value": 0.6929133858267716
                    },
                    {
                        "number": 64,
                        "time": 264.18499999998755,
                        "value": 0.8188976377952756
                    },
                    {
                        "number": 64,
                        "time": 264.18999999998755,
                        "value": 1
                    },
                    {
                        "number": 64,
                        "time": 265.13499999998754,
                        "value": 0.8188976377952756
                    },
                    {
                        "number": 64,
                        "time": 265.14499999998753,
                        "value": 0.5669291338582677
                    },
                    {
                        "number": 64,
                        "time": 265.14999999998753,
                        "value": 0.4409448818897638
                    },
                    {
                        "number": 64,
                        "time": 265.1574999999875,
                        "value": 0.31496062992125984
                    },
                    {
                        "number": 64,
                        "time": 265.1599999999875,
                        "value": 0.1889763779527559
                    },
                    {
                        "number": 64,
                        "time": 265.1649999999875,
                        "value": 0
                    },
                    {
                        "number": 64,
                        "time": 265.2449999999875,
                        "value": 0.1889763779527559
                    },
                    {
                        "number": 64,
                        "time": 265.2499999999875,
                        "value": 0.31496062992125984
                    },
                    {
                        "number": 64,
                        "time": 265.2599999999875,
                        "value": 0.4409448818897638
                    },
                    {
                        "number": 64,
                        "time": 265.2649999999875,
                        "value": 0.5669291338582677
                    },
                    {
                        "number": 64,
                        "time": 265.2699999999875,
                        "value": 0.6929133858267716
                    },
                    {
                        "number": 64,
                        "time": 265.2749999999875,
                        "value": 0.8188976377952756
                    },
                    {
                        "number": 64,
                        "time": 265.28499999998746,
                        "value": 1
                    },
                    {
                        "number": 64,
                        "time": 266.36499999998745,
                        "value": 0.8188976377952756
                    },
                    {
                        "number": 64,
                        "time": 266.36999999998744,
                        "value": 0.6929133858267716
                    },
                    {
                        "number": 64,
                        "time": 266.37499999998744,
                        "value": 0.5669291338582677
                    },
                    {
                        "number": 64,
                        "time": 266.37999999998743,
                        "value": 0.4409448818897638
                    },
                    {
                        "number": 64,
                        "time": 266.38499999998743,
                        "value": 0.1889763779527559
                    },
                    {
                        "number": 64,
                        "time": 266.3899999999874,
                        "value": 0
                    },
                    {
                        "number": 64,
                        "time": 266.50249999998744,
                        "value": 0.1889763779527559
                    },
                    {
                        "number": 64,
                        "time": 266.50499999998743,
                        "value": 0.31496062992125984
                    },
                    {
                        "number": 64,
                        "time": 266.5124999999874,
                        "value": 0.4409448818897638
                    },
                    {
                        "number": 64,
                        "time": 266.5149999999874,
                        "value": 0.5669291338582677
                    },
                    {
                        "number": 64,
                        "time": 266.5224999999874,
                        "value": 0.6929133858267716
                    },
                    {
                        "number": 64,
                        "time": 266.5249999999874,
                        "value": 0.8188976377952756
                    },
                    {
                        "number": 64,
                        "time": 266.5349999999874,
                        "value": 1
                    },
                    {
                        "number": 64,
                        "time": 267.5249999999873,
                        "value": 0.5669291338582677
                    },
                    {
                        "number": 64,
                        "time": 267.5249999999873,
                        "value": 0.8188976377952756
                    },
                    {
                        "number": 64,
                        "time": 267.5324999999873,
                        "value": 0.4409448818897638
                    },
                    {
                        "number": 64,
                        "time": 267.5374999999873,
                        "value": 0.31496062992125984
                    },
                    {
                        "number": 64,
                        "time": 267.5424999999873,
                        "value": 0.1889763779527559
                    },
                    {
                        "number": 64,
                        "time": 267.5449999999873,
                        "value": 0
                    },
                    {
                        "number": 64,
                        "time": 267.6624999999873,
                        "value": 0.1889763779527559
                    },
                    {
                        "number": 64,
                        "time": 267.6649999999873,
                        "value": 0.31496062992125984
                    },
                    {
                        "number": 64,
                        "time": 267.6749999999873,
                        "value": 0.4409448818897638
                    },
                    {
                        "number": 64,
                        "time": 267.6824999999873,
                        "value": 0.5669291338582677
                    },
                    {
                        "number": 64,
                        "time": 267.68749999998727,
                        "value": 0.6929133858267716
                    },
                    {
                        "number": 64,
                        "time": 267.69249999998726,
                        "value": 0.8188976377952756
                    },
                    {
                        "number": 64,
                        "time": 267.69749999998726,
                        "value": 1
                    },
                    {
                        "number": 64,
                        "time": 268.64749999998725,
                        "value": 0.8188976377952756
                    },
                    {
                        "number": 64,
                        "time": 268.65249999998724,
                        "value": 0.6929133858267716
                    },
                    {
                        "number": 64,
                        "time": 268.65749999998724,
                        "value": 0.4409448818897638
                    },
                    {
                        "number": 64,
                        "time": 268.66249999998723,
                        "value": 0.31496062992125984
                    },
                    {
                        "number": 64,
                        "time": 268.6674999999872,
                        "value": 0.1889763779527559
                    },
                    {
                        "number": 64,
                        "time": 268.6724999999872,
                        "value": 0
                    },
                    {
                        "number": 64,
                        "time": 268.8074999999872,
                        "value": 0.1889763779527559
                    },
                    {
                        "number": 64,
                        "time": 268.8124999999872,
                        "value": 0.31496062992125984
                    },
                    {
                        "number": 64,
                        "time": 268.8224999999872,
                        "value": 0.4409448818897638
                    },
                    {
                        "number": 64,
                        "time": 268.8274999999872,
                        "value": 0.5669291338582677
                    },
                    {
                        "number": 64,
                        "time": 268.8374999999872,
                        "value": 0.6929133858267716
                    },
                    {
                        "number": 64,
                        "time": 268.8474999999872,
                        "value": 0.8188976377952756
                    },
                    {
                        "number": 64,
                        "time": 268.86249999998716,
                        "value": 1
                    },
                    {
                        "number": 64,
                        "time": 269.92999999998705,
                        "value": 0.8188976377952756
                    },
                    {
                        "number": 64,
                        "time": 269.93749999998704,
                        "value": 0.6929133858267716
                    },
                    {
                        "number": 64,
                        "time": 269.94499999998703,
                        "value": 0.4409448818897638
                    },
                    {
                        "number": 64,
                        "time": 269.94749999998703,
                        "value": 0.31496062992125984
                    },
                    {
                        "number": 64,
                        "time": 269.952499999987,
                        "value": 0.1889763779527559
                    },
                    {
                        "number": 64,
                        "time": 269.957499999987,
                        "value": 0
                    },
                    {
                        "number": 64,
                        "time": 270.082499999987,
                        "value": 0.1889763779527559
                    },
                    {
                        "number": 64,
                        "time": 270.092499999987,
                        "value": 0.31496062992125984
                    },
                    {
                        "number": 64,
                        "time": 270.097499999987,
                        "value": 0.4409448818897638
                    },
                    {
                        "number": 64,
                        "time": 270.102499999987,
                        "value": 0.5669291338582677
                    },
                    {
                        "number": 64,
                        "time": 270.107499999987,
                        "value": 0.6929133858267716
                    },
                    {
                        "number": 64,
                        "time": 270.117499999987,
                        "value": 0.8188976377952756
                    },
                    {
                        "number": 64,
                        "time": 270.124999999987,
                        "value": 1
                    },
                    {
                        "number": 64,
                        "time": 270.73999999998694,
                        "value": 0.8188976377952756
                    },
                    {
                        "number": 64,
                        "time": 270.74499999998693,
                        "value": 0.6929133858267716
                    },
                    {
                        "number": 64,
                        "time": 270.7499999999869,
                        "value": 0.5669291338582677
                    },
                    {
                        "number": 64,
                        "time": 270.7549999999869,
                        "value": 0.4409448818897638
                    },
                    {
                        "number": 64,
                        "time": 270.7599999999869,
                        "value": 0.31496062992125984
                    },
                    {
                        "number": 64,
                        "time": 270.7649999999869,
                        "value": 0.1889763779527559
                    },
                    {
                        "number": 64,
                        "time": 270.7699999999869,
                        "value": 0
                    },
                    {
                        "number": 64,
                        "time": 270.9649999999869,
                        "value": 0.1889763779527559
                    },
                    {
                        "number": 64,
                        "time": 270.9799999999869,
                        "value": 0.31496062992125984
                    },
                    {
                        "number": 64,
                        "time": 270.99999999998687,
                        "value": 0.4409448818897638
                    },
                    {
                        "number": 64,
                        "time": 271.08999999998684,
                        "value": 0.5669291338582677
                    },
                    {
                        "number": 64,
                        "time": 271.10499999998683,
                        "value": 0.6929133858267716
                    },
                    {
                        "number": 64,
                        "time": 271.1199999999868,
                        "value": 0.8188976377952756
                    },
                    {
                        "number": 64,
                        "time": 271.3049999999868,
                        "value": 0.6929133858267716
                    },
                    {
                        "number": 64,
                        "time": 271.35999999998677,
                        "value": 0.5669291338582677
                    },
                    {
                        "number": 64,
                        "time": 271.38499999998675,
                        "value": 0.4409448818897638
                    },
                    {
                        "number": 64,
                        "time": 271.45999999998674,
                        "value": 0.31496062992125984
                    },
                    {
                        "number": 64,
                        "time": 271.52499999998673,
                        "value": 0.1889763779527559
                    },
                    {
                        "number": 64,
                        "time": 271.5549999999867,
                        "value": 0
                    },
                    {
                        "number": 64,
                        "time": 272.4249999999867,
                        "value": 0.1889763779527559
                    },
                    {
                        "number": 64,
                        "time": 272.4524999999867,
                        "value": 0.31496062992125984
                    },
                    {
                        "number": 64,
                        "time": 272.47499999998666,
                        "value": 0.4409448818897638
                    },
                    {
                        "number": 64,
                        "time": 272.49749999998664,
                        "value": 0.5669291338582677
                    },
                    {
                        "number": 64,
                        "time": 272.51249999998663,
                        "value": 0.6929133858267716
                    },
                    {
                        "number": 64,
                        "time": 272.5324999999866,
                        "value": 0.8188976377952756
                    },
                    {
                        "number": 64,
                        "time": 272.56499999998664,
                        "value": 1
                    },
                    {
                        "number": 64,
                        "time": 273.41499999998666,
                        "value": 0.8188976377952756
                    },
                    {
                        "number": 64,
                        "time": 273.41999999998666,
                        "value": 0.6929133858267716
                    },
                    {
                        "number": 64,
                        "time": 273.42999999998665,
                        "value": 0.5669291338582677
                    },
                    {
                        "number": 64,
                        "time": 273.43499999998664,
                        "value": 0.4409448818897638
                    },
                    {
                        "number": 64,
                        "time": 273.44499999998663,
                        "value": 0.31496062992125984
                    },
                    {
                        "number": 64,
                        "time": 273.4549999999866,
                        "value": 0.1889763779527559
                    },
                    {
                        "number": 64,
                        "time": 273.4674999999866,
                        "value": 0
                    },
                    {
                        "number": 64,
                        "time": 273.5199999999866,
                        "value": 0.1889763779527559
                    },
                    {
                        "number": 64,
                        "time": 273.5349999999866,
                        "value": 0.4409448818897638
                    },
                    {
                        "number": 64,
                        "time": 273.5449999999866,
                        "value": 0.5669291338582677
                    },
                    {
                        "number": 64,
                        "time": 273.5499999999866,
                        "value": 0.6929133858267716
                    },
                    {
                        "number": 64,
                        "time": 273.5599999999866,
                        "value": 0.8188976377952756
                    },
                    {
                        "number": 64,
                        "time": 273.5649999999866,
                        "value": 1
                    },
                    {
                        "number": 64,
                        "time": 274.1849999999866,
                        "value": 0.8188976377952756
                    },
                    {
                        "number": 64,
                        "time": 274.1899999999866,
                        "value": 0.6929133858267716
                    },
                    {
                        "number": 64,
                        "time": 274.1974999999866,
                        "value": 0.4409448818897638
                    },
                    {
                        "number": 64,
                        "time": 274.20999999998656,
                        "value": 0.1889763779527559
                    },
                    {
                        "number": 64,
                        "time": 274.21499999998656,
                        "value": 0
                    },
                    {
                        "number": 64,
                        "time": 274.3249999999866,
                        "value": 0.1889763779527559
                    },
                    {
                        "number": 64,
                        "time": 274.33499999998656,
                        "value": 0.31496062992125984
                    },
                    {
                        "number": 64,
                        "time": 274.33999999998656,
                        "value": 0.4409448818897638
                    },
                    {
                        "number": 64,
                        "time": 274.34499999998656,
                        "value": 0.5669291338582677
                    },
                    {
                        "number": 64,
                        "time": 274.34999999998655,
                        "value": 0.6929133858267716
                    },
                    {
                        "number": 64,
                        "time": 274.35499999998655,
                        "value": 0.8188976377952756
                    },
                    {
                        "number": 64,
                        "time": 274.36499999998654,
                        "value": 1
                    },
                    {
                        "number": 64,
                        "time": 274.8749999999866,
                        "value": 0.8188976377952756
                    },
                    {
                        "number": 64,
                        "time": 274.8799999999866,
                        "value": 0.5669291338582677
                    },
                    {
                        "number": 64,
                        "time": 274.8849999999866,
                        "value": 0.4409448818897638
                    },
                    {
                        "number": 64,
                        "time": 274.89249999998657,
                        "value": 0.31496062992125984
                    },
                    {
                        "number": 64,
                        "time": 274.89999999998656,
                        "value": 0
                    },
                    {
                        "number": 64,
                        "time": 275.01999999998657,
                        "value": 0.1889763779527559
                    },
                    {
                        "number": 64,
                        "time": 275.02999999998656,
                        "value": 0.31496062992125984
                    },
                    {
                        "number": 64,
                        "time": 275.03499999998655,
                        "value": 0.4409448818897638
                    },
                    {
                        "number": 64,
                        "time": 275.03999999998655,
                        "value": 0.5669291338582677
                    },
                    {
                        "number": 64,
                        "time": 275.04999999998654,
                        "value": 0.6929133858267716
                    },
                    {
                        "number": 64,
                        "time": 275.05499999998653,
                        "value": 0.8188976377952756
                    },
                    {
                        "number": 64,
                        "time": 275.0649999999865,
                        "value": 1
                    },
                    {
                        "number": 64,
                        "time": 275.6799999999865,
                        "value": 0.8188976377952756
                    },
                    {
                        "number": 64,
                        "time": 275.68999999998647,
                        "value": 0.6929133858267716
                    },
                    {
                        "number": 64,
                        "time": 275.69499999998646,
                        "value": 0.5669291338582677
                    },
                    {
                        "number": 64,
                        "time": 275.69999999998646,
                        "value": 0.4409448818897638
                    },
                    {
                        "number": 64,
                        "time": 275.70499999998646,
                        "value": 0.31496062992125984
                    },
                    {
                        "number": 64,
                        "time": 275.71499999998645,
                        "value": 0.1889763779527559
                    },
                    {
                        "number": 64,
                        "time": 275.71999999998644,
                        "value": 0
                    },
                    {
                        "number": 64,
                        "time": 275.8999999999864,
                        "value": 0.1889763779527559
                    },
                    {
                        "number": 64,
                        "time": 275.9099999999864,
                        "value": 0.31496062992125984
                    },
                    {
                        "number": 64,
                        "time": 275.9149999999864,
                        "value": 0.4409448818897638
                    },
                    {
                        "number": 64,
                        "time": 275.92499999998637,
                        "value": 0.5669291338582677
                    },
                    {
                        "number": 64,
                        "time": 275.93499999998636,
                        "value": 0.6929133858267716
                    },
                    {
                        "number": 64,
                        "time": 275.94499999998635,
                        "value": 0.8188976377952756
                    },
                    {
                        "number": 64,
                        "time": 275.95999999998634,
                        "value": 1
                    },
                    {
                        "number": 64,
                        "time": 276.52499999998633,
                        "value": 0.8188976377952756
                    },
                    {
                        "number": 64,
                        "time": 276.5324999999863,
                        "value": 0.6929133858267716
                    },
                    {
                        "number": 64,
                        "time": 276.5349999999863,
                        "value": 0.5669291338582677
                    },
                    {
                        "number": 64,
                        "time": 276.5399999999863,
                        "value": 0.4409448818897638
                    },
                    {
                        "number": 64,
                        "time": 276.5549999999863,
                        "value": 0.31496062992125984
                    },
                    {
                        "number": 64,
                        "time": 276.5599999999863,
                        "value": 0.1889763779527559
                    },
                    {
                        "number": 64,
                        "time": 276.5749999999863,
                        "value": 0
                    },
                    {
                        "number": 64,
                        "time": 276.6549999999863,
                        "value": 0.1889763779527559
                    },
                    {
                        "number": 64,
                        "time": 276.65999999998627,
                        "value": 0.31496062992125984
                    },
                    {
                        "number": 64,
                        "time": 276.66499999998626,
                        "value": 0.4409448818897638
                    },
                    {
                        "number": 64,
                        "time": 276.67499999998626,
                        "value": 0.5669291338582677
                    },
                    {
                        "number": 64,
                        "time": 276.67999999998625,
                        "value": 0.6929133858267716
                    },
                    {
                        "number": 64,
                        "time": 276.68499999998625,
                        "value": 0.8188976377952756
                    },
                    {
                        "number": 64,
                        "time": 276.69499999998624,
                        "value": 1
                    },
                    {
                        "number": 64,
                        "time": 277.3024999999862,
                        "value": 0.8188976377952756
                    },
                    {
                        "number": 64,
                        "time": 277.3049999999862,
                        "value": 0.6929133858267716
                    },
                    {
                        "number": 64,
                        "time": 277.3124999999862,
                        "value": 0.5669291338582677
                    },
                    {
                        "number": 64,
                        "time": 277.3174999999862,
                        "value": 0.4409448818897638
                    },
                    {
                        "number": 64,
                        "time": 277.3249999999862,
                        "value": 0.31496062992125984
                    },
                    {
                        "number": 64,
                        "time": 277.3274999999862,
                        "value": 0
                    },
                    {
                        "number": 64,
                        "time": 277.4474999999861,
                        "value": 0.1889763779527559
                    },
                    {
                        "number": 64,
                        "time": 277.4574999999861,
                        "value": 0.31496062992125984
                    },
                    {
                        "number": 64,
                        "time": 277.4649999999861,
                        "value": 0.4409448818897638
                    },
                    {
                        "number": 64,
                        "time": 277.4674999999861,
                        "value": 0.5669291338582677
                    },
                    {
                        "number": 64,
                        "time": 277.4749999999861,
                        "value": 0.6929133858267716
                    },
                    {
                        "number": 64,
                        "time": 277.4774999999861,
                        "value": 0.8188976377952756
                    },
                    {
                        "number": 64,
                        "time": 277.4899999999861,
                        "value": 1
                    },
                    {
                        "number": 64,
                        "time": 278.10999999998603,
                        "value": 0.8188976377952756
                    },
                    {
                        "number": 64,
                        "time": 278.117499999986,
                        "value": 0.5669291338582677
                    },
                    {
                        "number": 64,
                        "time": 278.122499999986,
                        "value": 0.4409448818897638
                    },
                    {
                        "number": 64,
                        "time": 278.124999999986,
                        "value": 0.31496062992125984
                    },
                    {
                        "number": 64,
                        "time": 278.132499999986,
                        "value": 0.1889763779527559
                    },
                    {
                        "number": 64,
                        "time": 278.134999999986,
                        "value": 0
                    },
                    {
                        "number": 64,
                        "time": 278.264999999986,
                        "value": 0.1889763779527559
                    },
                    {
                        "number": 64,
                        "time": 278.272499999986,
                        "value": 0.31496062992125984
                    },
                    {
                        "number": 64,
                        "time": 278.274999999986,
                        "value": 0.4409448818897638
                    },
                    {
                        "number": 64,
                        "time": 278.282499999986,
                        "value": 0.5669291338582677
                    },
                    {
                        "number": 64,
                        "time": 278.284999999986,
                        "value": 0.6929133858267716
                    },
                    {
                        "number": 64,
                        "time": 278.292499999986,
                        "value": 0.8188976377952756
                    },
                    {
                        "number": 64,
                        "time": 278.30249999998597,
                        "value": 1
                    },
                    {
                        "number": 64,
                        "time": 278.9249999999859,
                        "value": 0.8188976377952756
                    },
                    {
                        "number": 64,
                        "time": 278.9324999999859,
                        "value": 0.6929133858267716
                    },
                    {
                        "number": 64,
                        "time": 278.9349999999859,
                        "value": 0.5669291338582677
                    },
                    {
                        "number": 64,
                        "time": 278.9424999999859,
                        "value": 0.4409448818897638
                    },
                    {
                        "number": 64,
                        "time": 278.9474999999859,
                        "value": 0.31496062992125984
                    },
                    {
                        "number": 64,
                        "time": 278.9549999999859,
                        "value": 0.1889763779527559
                    },
                    {
                        "number": 64,
                        "time": 278.9599999999859,
                        "value": 0
                    },
                    {
                        "number": 64,
                        "time": 279.10499999998586,
                        "value": 0.1889763779527559
                    },
                    {
                        "number": 64,
                        "time": 279.11499999998586,
                        "value": 0.31496062992125984
                    },
                    {
                        "number": 64,
                        "time": 279.11749999998585,
                        "value": 0.4409448818897638
                    },
                    {
                        "number": 64,
                        "time": 279.12999999998584,
                        "value": 0.5669291338582677
                    },
                    {
                        "number": 64,
                        "time": 279.13499999998584,
                        "value": 0.6929133858267716
                    },
                    {
                        "number": 64,
                        "time": 279.1449999999858,
                        "value": 0.8188976377952756
                    },
                    {
                        "number": 64,
                        "time": 279.1549999999858,
                        "value": 1
                    },
                    {
                        "number": 64,
                        "time": 279.6999999999857,
                        "value": 0.8188976377952756
                    },
                    {
                        "number": 64,
                        "time": 279.7049999999857,
                        "value": 0.6929133858267716
                    },
                    {
                        "number": 64,
                        "time": 279.7099999999857,
                        "value": 0.5669291338582677
                    },
                    {
                        "number": 64,
                        "time": 279.7149999999857,
                        "value": 0.4409448818897638
                    },
                    {
                        "number": 64,
                        "time": 279.7199999999857,
                        "value": 0.31496062992125984
                    },
                    {
                        "number": 64,
                        "time": 279.7274999999857,
                        "value": 0.1889763779527559
                    },
                    {
                        "number": 64,
                        "time": 279.7349999999857,
                        "value": 0
                    },
                    {
                        "number": 64,
                        "time": 279.8299999999857,
                        "value": 0.1889763779527559
                    },
                    {
                        "number": 64,
                        "time": 279.8399999999857,
                        "value": 0.31496062992125984
                    },
                    {
                        "number": 64,
                        "time": 279.8449999999857,
                        "value": 0.4409448818897638
                    },
                    {
                        "number": 64,
                        "time": 279.8549999999857,
                        "value": 0.5669291338582677
                    },
                    {
                        "number": 64,
                        "time": 279.8599999999857,
                        "value": 0.6929133858267716
                    },
                    {
                        "number": 64,
                        "time": 279.8649999999857,
                        "value": 0.8188976377952756
                    },
                    {
                        "number": 64,
                        "time": 279.8699999999857,
                        "value": 1
                    },
                    {
                        "number": 64,
                        "time": 280.42999999998557,
                        "value": 0.8188976377952756
                    },
                    {
                        "number": 64,
                        "time": 280.43749999998556,
                        "value": 0.6929133858267716
                    },
                    {
                        "number": 64,
                        "time": 280.44499999998555,
                        "value": 0.4409448818897638
                    },
                    {
                        "number": 64,
                        "time": 280.44749999998555,
                        "value": 0.31496062992125984
                    },
                    {
                        "number": 64,
                        "time": 280.45749999998554,
                        "value": 0.1889763779527559
                    },
                    {
                        "number": 64,
                        "time": 280.46249999998554,
                        "value": 0
                    },
                    {
                        "number": 64,
                        "time": 280.61749999998557,
                        "value": 0.1889763779527559
                    },
                    {
                        "number": 64,
                        "time": 280.62249999998556,
                        "value": 0.31496062992125984
                    },
                    {
                        "number": 64,
                        "time": 280.63249999998555,
                        "value": 0.4409448818897638
                    },
                    {
                        "number": 64,
                        "time": 280.63749999998555,
                        "value": 0.5669291338582677
                    },
                    {
                        "number": 64,
                        "time": 280.64749999998554,
                        "value": 0.6929133858267716
                    },
                    {
                        "number": 64,
                        "time": 280.65249999998554,
                        "value": 0.8188976377952756
                    },
                    {
                        "number": 64,
                        "time": 280.6624999999855,
                        "value": 1
                    },
                    {
                        "number": 64,
                        "time": 281.22749999998547,
                        "value": 0.8188976377952756
                    },
                    {
                        "number": 64,
                        "time": 281.23499999998546,
                        "value": 0.5669291338582677
                    },
                    {
                        "number": 64,
                        "time": 281.23999999998546,
                        "value": 0.4409448818897638
                    },
                    {
                        "number": 64,
                        "time": 281.24499999998545,
                        "value": 0.31496062992125984
                    },
                    {
                        "number": 64,
                        "time": 281.24999999998545,
                        "value": 0.1889763779527559
                    },
                    {
                        "number": 64,
                        "time": 281.25499999998544,
                        "value": 0
                    },
                    {
                        "number": 64,
                        "time": 281.4149999999854,
                        "value": 0.1889763779527559
                    },
                    {
                        "number": 64,
                        "time": 281.4199999999854,
                        "value": 0.31496062992125984
                    },
                    {
                        "number": 64,
                        "time": 281.4249999999854,
                        "value": 0.4409448818897638
                    },
                    {
                        "number": 64,
                        "time": 281.4349999999854,
                        "value": 0.5669291338582677
                    },
                    {
                        "number": 64,
                        "time": 281.4399999999854,
                        "value": 0.6929133858267716
                    },
                    {
                        "number": 64,
                        "time": 281.4449999999854,
                        "value": 0.8188976377952756
                    },
                    {
                        "number": 64,
                        "time": 281.4549999999854,
                        "value": 1
                    },
                    {
                        "number": 64,
                        "time": 282.08999999998537,
                        "value": 0.8188976377952756
                    },
                    {
                        "number": 64,
                        "time": 282.09499999998536,
                        "value": 0.6929133858267716
                    },
                    {
                        "number": 64,
                        "time": 282.09999999998536,
                        "value": 0.5669291338582677
                    },
                    {
                        "number": 64,
                        "time": 282.10499999998535,
                        "value": 0.4409448818897638
                    },
                    {
                        "number": 64,
                        "time": 282.11249999998535,
                        "value": 0.31496062992125984
                    },
                    {
                        "number": 64,
                        "time": 282.11749999998534,
                        "value": 0.1889763779527559
                    },
                    {
                        "number": 64,
                        "time": 282.12499999998533,
                        "value": 0
                    },
                    {
                        "number": 64,
                        "time": 282.29999999998535,
                        "value": 0.1889763779527559
                    },
                    {
                        "number": 64,
                        "time": 282.30499999998534,
                        "value": 0.31496062992125984
                    },
                    {
                        "number": 64,
                        "time": 282.30999999998534,
                        "value": 0.4409448818897638
                    },
                    {
                        "number": 64,
                        "time": 282.3199999999853,
                        "value": 0.5669291338582677
                    },
                    {
                        "number": 64,
                        "time": 282.3249999999853,
                        "value": 0.6929133858267716
                    },
                    {
                        "number": 64,
                        "time": 282.3349999999853,
                        "value": 0.8188976377952756
                    },
                    {
                        "number": 64,
                        "time": 282.3399999999853,
                        "value": 1
                    },
                    {
                        "number": 64,
                        "time": 283.0549999999852,
                        "value": 0.8188976377952756
                    },
                    {
                        "number": 64,
                        "time": 283.0649999999852,
                        "value": 0.6929133858267716
                    },
                    {
                        "number": 64,
                        "time": 283.0724999999852,
                        "value": 0.5669291338582677
                    },
                    {
                        "number": 64,
                        "time": 283.0749999999852,
                        "value": 0.4409448818897638
                    },
                    {
                        "number": 64,
                        "time": 283.0874999999852,
                        "value": 0.31496062992125984
                    },
                    {
                        "number": 64,
                        "time": 283.0924999999852,
                        "value": 0.1889763779527559
                    },
                    {
                        "number": 64,
                        "time": 283.0974999999852,
                        "value": 0
                    },
                    {
                        "number": 64,
                        "time": 283.2649999999852,
                        "value": 0.1889763779527559
                    },
                    {
                        "number": 64,
                        "time": 283.2749999999852,
                        "value": 0.31496062992125984
                    },
                    {
                        "number": 64,
                        "time": 283.2799999999852,
                        "value": 0.4409448818897638
                    },
                    {
                        "number": 64,
                        "time": 283.2874999999852,
                        "value": 0.5669291338582677
                    },
                    {
                        "number": 64,
                        "time": 283.2974999999852,
                        "value": 0.6929133858267716
                    },
                    {
                        "number": 64,
                        "time": 283.30499999998517,
                        "value": 0.8188976377952756
                    },
                    {
                        "number": 64,
                        "time": 283.32499999998515,
                        "value": 1
                    },
                    {
                        "number": 64,
                        "time": 283.82749999998515,
                        "value": 0.8188976377952756
                    },
                    {
                        "number": 64,
                        "time": 283.83499999998514,
                        "value": 0.6929133858267716
                    },
                    {
                        "number": 64,
                        "time": 283.84499999998513,
                        "value": 0.5669291338582677
                    },
                    {
                        "number": 64,
                        "time": 283.84999999998513,
                        "value": 0.4409448818897638
                    },
                    {
                        "number": 64,
                        "time": 283.8549999999851,
                        "value": 0.31496062992125984
                    },
                    {
                        "number": 64,
                        "time": 283.8649999999851,
                        "value": 0.1889763779527559
                    },
                    {
                        "number": 64,
                        "time": 283.8674999999851,
                        "value": 0
                    },
                    {
                        "number": 64,
                        "time": 284.1049999999851,
                        "value": 0.1889763779527559
                    },
                    {
                        "number": 64,
                        "time": 284.1199999999851,
                        "value": 0.31496062992125984
                    },
                    {
                        "number": 64,
                        "time": 284.1349999999851,
                        "value": 0.4409448818897638
                    },
                    {
                        "number": 64,
                        "time": 284.3799999999851,
                        "value": 0.31496062992125984
                    },
                    {
                        "number": 64,
                        "time": 284.3999999999851,
                        "value": 0.1889763779527559
                    },
                    {
                        "number": 64,
                        "time": 284.41999999998507,
                        "value": 0
                    },
                    {
                        "number": 64,
                        "time": 285.569999999985,
                        "value": 0.1889763779527559
                    },
                    {
                        "number": 64,
                        "time": 285.58999999998497,
                        "value": 0.31496062992125984
                    },
                    {
                        "number": 64,
                        "time": 285.60999999998495,
                        "value": 0.4409448818897638
                    },
                    {
                        "number": 64,
                        "time": 285.6399999999849,
                        "value": 0.5669291338582677
                    },
                    {
                        "number": 64,
                        "time": 285.67999999998494,
                        "value": 0.6929133858267716
                    },
                    {
                        "number": 64,
                        "time": 285.69499999998493,
                        "value": 0.8188976377952756
                    },
                    {
                        "number": 64,
                        "time": 285.7099999999849,
                        "value": 1
                    },
                    {
                        "number": 64,
                        "time": 286.8699999999849,
                        "value": 0.8188976377952756
                    },
                    {
                        "number": 64,
                        "time": 286.8749999999849,
                        "value": 0.6929133858267716
                    },
                    {
                        "number": 64,
                        "time": 286.8799999999849,
                        "value": 0.5669291338582677
                    },
                    {
                        "number": 64,
                        "time": 286.88999999998487,
                        "value": 0.4409448818897638
                    },
                    {
                        "number": 64,
                        "time": 286.89499999998486,
                        "value": 0.31496062992125984
                    },
                    {
                        "number": 64,
                        "time": 286.89999999998486,
                        "value": 0.1889763779527559
                    },
                    {
                        "number": 64,
                        "time": 286.90499999998485,
                        "value": 0
                    },
                    {
                        "number": 64,
                        "time": 287.59499999998485,
                        "value": 0.1889763779527559
                    },
                    {
                        "number": 64,
                        "time": 287.63499999998487,
                        "value": 0.31496062992125984
                    },
                    {
                        "number": 64,
                        "time": 287.7349999999849,
                        "value": 0.4409448818897638
                    },
                    {
                        "number": 64,
                        "time": 287.7899999999849,
                        "value": 0.5669291338582677
                    },
                    {
                        "number": 64,
                        "time": 287.8049999999849,
                        "value": 0.8188976377952756
                    },
                    {
                        "number": 64,
                        "time": 287.8149999999849,
                        "value": 1
                    },
                    {
                        "number": 64,
                        "time": 290.1249999999848,
                        "value": 0.8188976377952756
                    },
                    {
                        "number": 64,
                        "time": 290.1299999999848,
                        "value": 0.6929133858267716
                    },
                    {
                        "number": 64,
                        "time": 290.1349999999848,
                        "value": 0.5669291338582677
                    },
                    {
                        "number": 64,
                        "time": 290.1449999999848,
                        "value": 0.4409448818897638
                    },
                    {
                        "number": 64,
                        "time": 290.1499999999848,
                        "value": 0.31496062992125984
                    },
                    {
                        "number": 64,
                        "time": 290.1674999999848,
                        "value": 0.1889763779527559
                    },
                    {
                        "number": 64,
                        "time": 290.21499999998474,
                        "value": 0.31496062992125984
                    },
                    {
                        "number": 64,
                        "time": 290.22749999998473,
                        "value": 0.4409448818897638
                    },
                    {
                        "number": 64,
                        "time": 290.2349999999847,
                        "value": 0.5669291338582677
                    },
                    {
                        "number": 64,
                        "time": 290.2399999999847,
                        "value": 0.6929133858267716
                    },
                    {
                        "number": 64,
                        "time": 290.2499999999847,
                        "value": 0.8188976377952756
                    },
                    {
                        "number": 64,
                        "time": 290.2549999999847,
                        "value": 1
                    },
                    {
                        "number": 64,
                        "time": 290.9449999999847,
                        "value": 0.8188976377952756
                    },
                    {
                        "number": 64,
                        "time": 290.9574999999847,
                        "value": 0.6929133858267716
                    },
                    {
                        "number": 64,
                        "time": 290.9649999999847,
                        "value": 0.5669291338582677
                    },
                    {
                        "number": 64,
                        "time": 290.9999999999847,
                        "value": 0.6929133858267716
                    },
                    {
                        "number": 64,
                        "time": 291.0049999999847,
                        "value": 0.8188976377952756
                    },
                    {
                        "number": 64,
                        "time": 291.0099999999847,
                        "value": 1
                    },
                    {
                        "number": 64,
                        "time": 291.72499999998473,
                        "value": 0.8188976377952756
                    },
                    {
                        "number": 64,
                        "time": 291.7299999999847,
                        "value": 0.6929133858267716
                    },
                    {
                        "number": 64,
                        "time": 291.7349999999847,
                        "value": 0.5669291338582677
                    },
                    {
                        "number": 64,
                        "time": 291.7799999999847,
                        "value": 0.6929133858267716
                    },
                    {
                        "number": 64,
                        "time": 291.7849999999847,
                        "value": 0.8188976377952756
                    },
                    {
                        "number": 64,
                        "time": 291.79999999998466,
                        "value": 1
                    },
                    {
                        "number": 64,
                        "time": 292.43249999998466,
                        "value": 0.8188976377952756
                    },
                    {
                        "number": 64,
                        "time": 292.43749999998465,
                        "value": 0.6929133858267716
                    },
                    {
                        "number": 64,
                        "time": 292.44499999998465,
                        "value": 0.5669291338582677
                    },
                    {
                        "number": 64,
                        "time": 292.4749999999846,
                        "value": 0.6929133858267716
                    },
                    {
                        "number": 64,
                        "time": 292.4849999999846,
                        "value": 0.8188976377952756
                    },
                    {
                        "number": 64,
                        "time": 292.4899999999846,
                        "value": 1
                    },
                    {
                        "number": 64,
                        "time": 293.2474999999844,
                        "value": 0.8188976377952756
                    },
                    {
                        "number": 64,
                        "time": 293.2524999999844,
                        "value": 0.6929133858267716
                    },
                    {
                        "number": 64,
                        "time": 293.2574999999844,
                        "value": 0.5669291338582677
                    },
                    {
                        "number": 64,
                        "time": 293.2624999999844,
                        "value": 0.4409448818897638
                    },
                    {
                        "number": 64,
                        "time": 293.2749999999844,
                        "value": 0.31496062992125984
                    },
                    {
                        "number": 64,
                        "time": 293.2874999999844,
                        "value": 0.1889763779527559
                    },
                    {
                        "number": 64,
                        "time": 293.3074999999844,
                        "value": 0.31496062992125984
                    },
                    {
                        "number": 64,
                        "time": 293.32499999998436,
                        "value": 0.5669291338582677
                    },
                    {
                        "number": 64,
                        "time": 293.32749999998435,
                        "value": 0.6929133858267716
                    },
                    {
                        "number": 64,
                        "time": 293.33749999998435,
                        "value": 0.8188976377952756
                    },
                    {
                        "number": 64,
                        "time": 293.34249999998434,
                        "value": 1
                    },
                    {
                        "number": 64,
                        "time": 293.96499999998423,
                        "value": 0.8188976377952756
                    },
                    {
                        "number": 64,
                        "time": 293.9699999999842,
                        "value": 0.6929133858267716
                    },
                    {
                        "number": 64,
                        "time": 293.9749999999842,
                        "value": 0.5669291338582677
                    },
                    {
                        "number": 64,
                        "time": 293.9799999999842,
                        "value": 0.4409448818897638
                    },
                    {
                        "number": 64,
                        "time": 293.9899999999842,
                        "value": 0.31496062992125984
                    },
                    {
                        "number": 64,
                        "time": 294.0074999999842,
                        "value": 0.1889763779527559
                    },
                    {
                        "number": 64,
                        "time": 294.03249999998417,
                        "value": 0.4409448818897638
                    },
                    {
                        "number": 64,
                        "time": 294.03999999998416,
                        "value": 0.5669291338582677
                    },
                    {
                        "number": 64,
                        "time": 294.04499999998416,
                        "value": 0.6929133858267716
                    },
                    {
                        "number": 64,
                        "time": 294.05499999998415,
                        "value": 0.8188976377952756
                    },
                    {
                        "number": 64,
                        "time": 294.05999999998414,
                        "value": 1
                    },
                    {
                        "number": 64,
                        "time": 294.729999999984,
                        "value": 0.8188976377952756
                    },
                    {
                        "number": 64,
                        "time": 294.734999999984,
                        "value": 0.6929133858267716
                    },
                    {
                        "number": 64,
                        "time": 294.744999999984,
                        "value": 0.5669291338582677
                    },
                    {
                        "number": 64,
                        "time": 294.74999999998397,
                        "value": 0.4409448818897638
                    },
                    {
                        "number": 64,
                        "time": 294.75499999998397,
                        "value": 0.31496062992125984
                    },
                    {
                        "number": 64,
                        "time": 294.77499999998395,
                        "value": 0.1889763779527559
                    },
                    {
                        "number": 64,
                        "time": 294.8024999999839,
                        "value": 0.31496062992125984
                    },
                    {
                        "number": 64,
                        "time": 294.8149999999839,
                        "value": 0.4409448818897638
                    },
                    {
                        "number": 64,
                        "time": 294.8199999999839,
                        "value": 0.5669291338582677
                    },
                    {
                        "number": 64,
                        "time": 294.8299999999839,
                        "value": 0.6929133858267716
                    },
                    {
                        "number": 64,
                        "time": 294.8349999999839,
                        "value": 0.8188976377952756
                    },
                    {
                        "number": 64,
                        "time": 294.8399999999839,
                        "value": 1
                    },
                    {
                        "number": 64,
                        "time": 295.4949999999838,
                        "value": 0.8188976377952756
                    },
                    {
                        "number": 64,
                        "time": 295.4999999999838,
                        "value": 0.6929133858267716
                    },
                    {
                        "number": 64,
                        "time": 295.5049999999838,
                        "value": 0.5669291338582677
                    },
                    {
                        "number": 64,
                        "time": 295.5099999999838,
                        "value": 0.4409448818897638
                    },
                    {
                        "number": 64,
                        "time": 295.5149999999838,
                        "value": 0.31496062992125984
                    },
                    {
                        "number": 64,
                        "time": 295.5249999999838,
                        "value": 0.1889763779527559
                    },
                    {
                        "number": 64,
                        "time": 295.53999999998376,
                        "value": 0
                    },
                    {
                        "number": 64,
                        "time": 295.5849999999837,
                        "value": 0.1889763779527559
                    },
                    {
                        "number": 64,
                        "time": 295.6024999999837,
                        "value": 0.4409448818897638
                    },
                    {
                        "number": 64,
                        "time": 295.6124999999837,
                        "value": 0.5669291338582677
                    },
                    {
                        "number": 64,
                        "time": 295.6149999999837,
                        "value": 0.6929133858267716
                    },
                    {
                        "number": 64,
                        "time": 295.6249999999837,
                        "value": 0.8188976377952756
                    },
                    {
                        "number": 64,
                        "time": 295.6324999999837,
                        "value": 1
                    },
                    {
                        "number": 64,
                        "time": 296.3149999999836,
                        "value": 0.8188976377952756
                    },
                    {
                        "number": 64,
                        "time": 296.3224999999836,
                        "value": 0.6929133858267716
                    },
                    {
                        "number": 64,
                        "time": 296.3274999999836,
                        "value": 0.5669291338582677
                    },
                    {
                        "number": 64,
                        "time": 296.3324999999836,
                        "value": 0.4409448818897638
                    },
                    {
                        "number": 64,
                        "time": 296.3349999999836,
                        "value": 0.31496062992125984
                    },
                    {
                        "number": 64,
                        "time": 296.3424999999836,
                        "value": 0.1889763779527559
                    },
                    {
                        "number": 64,
                        "time": 296.3524999999836,
                        "value": 0
                    },
                    {
                        "number": 64,
                        "time": 296.4024999999836,
                        "value": 0.1889763779527559
                    },
                    {
                        "number": 64,
                        "time": 296.4174999999836,
                        "value": 0.31496062992125984
                    },
                    {
                        "number": 64,
                        "time": 296.4224999999836,
                        "value": 0.4409448818897638
                    },
                    {
                        "number": 64,
                        "time": 296.4274999999836,
                        "value": 0.5669291338582677
                    },
                    {
                        "number": 64,
                        "time": 296.4324999999836,
                        "value": 0.6929133858267716
                    },
                    {
                        "number": 64,
                        "time": 296.4349999999836,
                        "value": 0.8188976377952756
                    },
                    {
                        "number": 64,
                        "time": 296.44249999998357,
                        "value": 1
                    },
                    {
                        "number": 64,
                        "time": 296.9974999999836,
                        "value": 0.8188976377952756
                    },
                    {
                        "number": 64,
                        "time": 297.00249999998357,
                        "value": 0.6929133858267716
                    },
                    {
                        "number": 64,
                        "time": 297.00499999998357,
                        "value": 0.5669291338582677
                    },
                    {
                        "number": 64,
                        "time": 297.01249999998356,
                        "value": 0.4409448818897638
                    },
                    {
                        "number": 64,
                        "time": 297.01499999998356,
                        "value": 0.31496062992125984
                    },
                    {
                        "number": 64,
                        "time": 297.02499999998355,
                        "value": 0.1889763779527559
                    },
                    {
                        "number": 64,
                        "time": 297.02999999998354,
                        "value": 0
                    },
                    {
                        "number": 64,
                        "time": 297.06999999998357,
                        "value": 0.1889763779527559
                    },
                    {
                        "number": 64,
                        "time": 297.07499999998356,
                        "value": 0.31496062992125984
                    },
                    {
                        "number": 64,
                        "time": 297.08499999998355,
                        "value": 0.4409448818897638
                    },
                    {
                        "number": 64,
                        "time": 297.08999999998355,
                        "value": 0.5669291338582677
                    },
                    {
                        "number": 64,
                        "time": 297.09499999998354,
                        "value": 0.6929133858267716
                    },
                    {
                        "number": 64,
                        "time": 297.10499999998353,
                        "value": 0.8188976377952756
                    },
                    {
                        "number": 64,
                        "time": 297.10999999998353,
                        "value": 1
                    },
                    {
                        "number": 64,
                        "time": 297.80749999998346,
                        "value": 0.8188976377952756
                    },
                    {
                        "number": 64,
                        "time": 297.81249999998346,
                        "value": 0.6929133858267716
                    },
                    {
                        "number": 64,
                        "time": 297.81749999998345,
                        "value": 0.5669291338582677
                    },
                    {
                        "number": 64,
                        "time": 297.82249999998345,
                        "value": 0.4409448818897638
                    },
                    {
                        "number": 64,
                        "time": 297.82749999998344,
                        "value": 0.31496062992125984
                    },
                    {
                        "number": 64,
                        "time": 297.8474999999834,
                        "value": 0.1889763779527559
                    },
                    {
                        "number": 64,
                        "time": 297.8824999999834,
                        "value": 0.31496062992125984
                    },
                    {
                        "number": 64,
                        "time": 297.9024999999834,
                        "value": 0.5669291338582677
                    },
                    {
                        "number": 64,
                        "time": 297.9074999999834,
                        "value": 0.6929133858267716
                    },
                    {
                        "number": 64,
                        "time": 297.91749999998336,
                        "value": 0.8188976377952756
                    },
                    {
                        "number": 64,
                        "time": 297.92249999998336,
                        "value": 1
                    },
                    {
                        "number": 64,
                        "time": 298.4399999999834,
                        "value": 0.6929133858267716
                    },
                    {
                        "number": 64,
                        "time": 298.4499999999834,
                        "value": 0.5669291338582677
                    },
                    {
                        "number": 64,
                        "time": 298.4549999999834,
                        "value": 0.4409448818897638
                    },
                    {
                        "number": 64,
                        "time": 298.4624999999834,
                        "value": 0.31496062992125984
                    },
                    {
                        "number": 64,
                        "time": 298.4699999999834,
                        "value": 0.1889763779527559
                    },
                    {
                        "number": 64,
                        "time": 298.49999999998334,
                        "value": 0.31496062992125984
                    },
                    {
                        "number": 64,
                        "time": 298.50499999998334,
                        "value": 0.4409448818897638
                    },
                    {
                        "number": 64,
                        "time": 298.51499999998333,
                        "value": 0.5669291338582677
                    },
                    {
                        "number": 64,
                        "time": 298.5199999999833,
                        "value": 0.6929133858267716
                    },
                    {
                        "number": 64,
                        "time": 298.5249999999833,
                        "value": 0.8188976377952756
                    },
                    {
                        "number": 64,
                        "time": 298.5299999999833,
                        "value": 1
                    },
                    {
                        "number": 64,
                        "time": 299.2599999999831,
                        "value": 0.8188976377952756
                    },
                    {
                        "number": 64,
                        "time": 299.2649999999831,
                        "value": 0.6929133858267716
                    },
                    {
                        "number": 64,
                        "time": 299.2699999999831,
                        "value": 0.4409448818897638
                    },
                    {
                        "number": 64,
                        "time": 299.2799999999831,
                        "value": 0.31496062992125984
                    },
                    {
                        "number": 64,
                        "time": 299.2849999999831,
                        "value": 0.1889763779527559
                    },
                    {
                        "number": 64,
                        "time": 299.2899999999831,
                        "value": 0
                    },
                    {
                        "number": 64,
                        "time": 299.3449999999831,
                        "value": 0.1889763779527559
                    },
                    {
                        "number": 64,
                        "time": 299.3499999999831,
                        "value": 0.31496062992125984
                    },
                    {
                        "number": 64,
                        "time": 299.3549999999831,
                        "value": 0.4409448818897638
                    },
                    {
                        "number": 64,
                        "time": 299.3599999999831,
                        "value": 0.5669291338582677
                    },
                    {
                        "number": 64,
                        "time": 299.36499999998307,
                        "value": 0.6929133858267716
                    },
                    {
                        "number": 64,
                        "time": 299.36999999998307,
                        "value": 0.8188976377952756
                    },
                    {
                        "number": 64,
                        "time": 299.37999999998306,
                        "value": 1
                    },
                    {
                        "number": 64,
                        "time": 299.952499999983,
                        "value": 0.8188976377952756
                    },
                    {
                        "number": 64,
                        "time": 299.957499999983,
                        "value": 0.6929133858267716
                    },
                    {
                        "number": 64,
                        "time": 299.962499999983,
                        "value": 0.5669291338582677
                    },
                    {
                        "number": 64,
                        "time": 299.967499999983,
                        "value": 0.4409448818897638
                    },
                    {
                        "number": 64,
                        "time": 299.97749999998297,
                        "value": 0.31496062992125984
                    },
                    {
                        "number": 64,
                        "time": 299.98249999998296,
                        "value": 0.1889763779527559
                    },
                    {
                        "number": 64,
                        "time": 299.98749999998296,
                        "value": 0
                    },
                    {
                        "number": 64,
                        "time": 300.0274999999829,
                        "value": 0.1889763779527559
                    },
                    {
                        "number": 64,
                        "time": 300.0349999999829,
                        "value": 0.31496062992125984
                    },
                    {
                        "number": 64,
                        "time": 300.0424999999829,
                        "value": 0.4409448818897638
                    },
                    {
                        "number": 64,
                        "time": 300.0549999999829,
                        "value": 0.5669291338582677
                    },
                    {
                        "number": 64,
                        "time": 300.0624999999829,
                        "value": 0.6929133858267716
                    },
                    {
                        "number": 64,
                        "time": 300.0649999999829,
                        "value": 0.8188976377952756
                    },
                    {
                        "number": 64,
                        "time": 300.0699999999829,
                        "value": 1
                    },
                    {
                        "number": 64,
                        "time": 300.70499999998293,
                        "value": 0.8188976377952756
                    },
                    {
                        "number": 64,
                        "time": 300.7099999999829,
                        "value": 0.6929133858267716
                    },
                    {
                        "number": 64,
                        "time": 300.7149999999829,
                        "value": 0.5669291338582677
                    },
                    {
                        "number": 64,
                        "time": 300.7199999999829,
                        "value": 0.4409448818897638
                    },
                    {
                        "number": 64,
                        "time": 300.7249999999829,
                        "value": 0.31496062992125984
                    },
                    {
                        "number": 64,
                        "time": 300.7349999999829,
                        "value": 0.1889763779527559
                    },
                    {
                        "number": 64,
                        "time": 300.7499999999829,
                        "value": 0
                    },
                    {
                        "number": 64,
                        "time": 300.78499999998286,
                        "value": 0.1889763779527559
                    },
                    {
                        "number": 64,
                        "time": 300.78999999998285,
                        "value": 0.31496062992125984
                    },
                    {
                        "number": 64,
                        "time": 300.79499999998285,
                        "value": 0.4409448818897638
                    },
                    {
                        "number": 64,
                        "time": 300.80499999998284,
                        "value": 0.5669291338582677
                    },
                    {
                        "number": 64,
                        "time": 300.80999999998284,
                        "value": 0.6929133858267716
                    },
                    {
                        "number": 64,
                        "time": 300.8199999999828,
                        "value": 0.8188976377952756
                    },
                    {
                        "number": 64,
                        "time": 300.8274999999828,
                        "value": 1
                    },
                    {
                        "number": 64,
                        "time": 301.45499999998276,
                        "value": 0.8188976377952756
                    },
                    {
                        "number": 64,
                        "time": 301.45749999998276,
                        "value": 0.6929133858267716
                    },
                    {
                        "number": 64,
                        "time": 301.46499999998275,
                        "value": 0.5669291338582677
                    },
                    {
                        "number": 64,
                        "time": 301.46749999998275,
                        "value": 0.4409448818897638
                    },
                    {
                        "number": 64,
                        "time": 301.47499999998274,
                        "value": 0.31496062992125984
                    },
                    {
                        "number": 64,
                        "time": 301.47749999998274,
                        "value": 0.1889763779527559
                    },
                    {
                        "number": 64,
                        "time": 301.48499999998273,
                        "value": 0
                    },
                    {
                        "number": 64,
                        "time": 301.5549999999827,
                        "value": 0.1889763779527559
                    },
                    {
                        "number": 64,
                        "time": 301.5649999999827,
                        "value": 0.31496062992125984
                    },
                    {
                        "number": 64,
                        "time": 301.5699999999827,
                        "value": 0.4409448818897638
                    },
                    {
                        "number": 64,
                        "time": 301.5749999999827,
                        "value": 0.5669291338582677
                    },
                    {
                        "number": 64,
                        "time": 301.5799999999827,
                        "value": 0.6929133858267716
                    },
                    {
                        "number": 64,
                        "time": 301.5899999999827,
                        "value": 0.8188976377952756
                    },
                    {
                        "number": 64,
                        "time": 301.5949999999827,
                        "value": 1
                    },
                    {
                        "number": 64,
                        "time": 302.27999999998264,
                        "value": 0.8188976377952756
                    },
                    {
                        "number": 64,
                        "time": 302.28499999998263,
                        "value": 0.5669291338582677
                    },
                    {
                        "number": 64,
                        "time": 302.28749999998263,
                        "value": 0.4409448818897638
                    },
                    {
                        "number": 64,
                        "time": 302.2949999999826,
                        "value": 0.31496062992125984
                    },
                    {
                        "number": 64,
                        "time": 302.2999999999826,
                        "value": 0
                    },
                    {
                        "number": 64,
                        "time": 302.3599999999826,
                        "value": 0.1889763779527559
                    },
                    {
                        "number": 64,
                        "time": 302.3649999999826,
                        "value": 0.31496062992125984
                    },
                    {
                        "number": 64,
                        "time": 302.3699999999826,
                        "value": 0.4409448818897638
                    },
                    {
                        "number": 64,
                        "time": 302.3749999999826,
                        "value": 0.6929133858267716
                    },
                    {
                        "number": 64,
                        "time": 302.3799999999826,
                        "value": 0.8188976377952756
                    },
                    {
                        "number": 64,
                        "time": 302.3849999999826,
                        "value": 1
                    },
                    {
                        "number": 64,
                        "time": 304.28999999998257,
                        "value": 0.8188976377952756
                    },
                    {
                        "number": 64,
                        "time": 304.29499999998256,
                        "value": 0.6929133858267716
                    },
                    {
                        "number": 64,
                        "time": 304.29999999998256,
                        "value": 0.5669291338582677
                    },
                    {
                        "number": 64,
                        "time": 304.30499999998256,
                        "value": 0.31496062992125984
                    },
                    {
                        "number": 64,
                        "time": 304.30999999998255,
                        "value": 0.1889763779527559
                    },
                    {
                        "number": 64,
                        "time": 304.31749999998254,
                        "value": 0
                    },
                    {
                        "number": 64,
                        "time": 304.39499999998253,
                        "value": 0.1889763779527559
                    },
                    {
                        "number": 64,
                        "time": 304.3999999999825,
                        "value": 0.31496062992125984
                    },
                    {
                        "number": 64,
                        "time": 304.4049999999825,
                        "value": 0.4409448818897638
                    },
                    {
                        "number": 64,
                        "time": 304.4099999999825,
                        "value": 0.5669291338582677
                    },
                    {
                        "number": 64,
                        "time": 304.4149999999825,
                        "value": 0.6929133858267716
                    },
                    {
                        "number": 64,
                        "time": 304.4199999999825,
                        "value": 1
                    },
                    {
                        "number": 64,
                        "time": 305.77999999998235,
                        "value": 0.8188976377952756
                    },
                    {
                        "number": 64,
                        "time": 305.78499999998235,
                        "value": 0.6929133858267716
                    },
                    {
                        "number": 64,
                        "time": 305.78999999998234,
                        "value": 0.5669291338582677
                    },
                    {
                        "number": 64,
                        "time": 305.79499999998234,
                        "value": 0.4409448818897638
                    },
                    {
                        "number": 64,
                        "time": 305.79999999998233,
                        "value": 0.1889763779527559
                    },
                    {
                        "number": 64,
                        "time": 305.80499999998233,
                        "value": 0
                    },
                    {
                        "number": 64,
                        "time": 305.8899999999823,
                        "value": 0.1889763779527559
                    },
                    {
                        "number": 64,
                        "time": 305.8949999999823,
                        "value": 0.31496062992125984
                    },
                    {
                        "number": 64,
                        "time": 305.8999999999823,
                        "value": 0.4409448818897638
                    },
                    {
                        "number": 64,
                        "time": 305.9049999999823,
                        "value": 0.5669291338582677
                    },
                    {
                        "number": 64,
                        "time": 305.9099999999823,
                        "value": 0.6929133858267716
                    },
                    {
                        "number": 64,
                        "time": 305.9149999999823,
                        "value": 0.8188976377952756
                    },
                    {
                        "number": 64,
                        "time": 305.9199999999823,
                        "value": 1
                    },
                    {
                        "number": 64,
                        "time": 307.2649999999824,
                        "value": 0.8188976377952756
                    },
                    {
                        "number": 64,
                        "time": 307.2724999999824,
                        "value": 0.5669291338582677
                    },
                    {
                        "number": 64,
                        "time": 307.2749999999824,
                        "value": 0.4409448818897638
                    },
                    {
                        "number": 64,
                        "time": 307.2824999999824,
                        "value": 0.31496062992125984
                    },
                    {
                        "number": 64,
                        "time": 307.2849999999824,
                        "value": 0.1889763779527559
                    },
                    {
                        "number": 64,
                        "time": 307.2899999999824,
                        "value": 0
                    },
                    {
                        "number": 64,
                        "time": 307.38249999998243,
                        "value": 0.1889763779527559
                    },
                    {
                        "number": 64,
                        "time": 307.3874999999824,
                        "value": 0.31496062992125984
                    },
                    {
                        "number": 64,
                        "time": 307.3924999999824,
                        "value": 0.4409448818897638
                    },
                    {
                        "number": 64,
                        "time": 307.3949999999824,
                        "value": 0.5669291338582677
                    },
                    {
                        "number": 64,
                        "time": 307.4024999999824,
                        "value": 0.6929133858267716
                    },
                    {
                        "number": 64,
                        "time": 307.4049999999824,
                        "value": 0.8188976377952756
                    },
                    {
                        "number": 64,
                        "time": 307.4124999999824,
                        "value": 1
                    },
                    {
                        "number": 64,
                        "time": 308.82499999998237,
                        "value": 0.8188976377952756
                    },
                    {
                        "number": 64,
                        "time": 308.82999999998236,
                        "value": 0.6929133858267716
                    },
                    {
                        "number": 64,
                        "time": 308.83999999998235,
                        "value": 0.4409448818897638
                    },
                    {
                        "number": 64,
                        "time": 308.84499999998235,
                        "value": 0.1889763779527559
                    },
                    {
                        "number": 64,
                        "time": 308.85249999998234,
                        "value": 0
                    },
                    {
                        "number": 64,
                        "time": 308.9349999999823,
                        "value": 0.1889763779527559
                    },
                    {
                        "number": 64,
                        "time": 308.9424999999823,
                        "value": 0.31496062992125984
                    },
                    {
                        "number": 64,
                        "time": 308.9449999999823,
                        "value": 0.4409448818897638
                    },
                    {
                        "number": 64,
                        "time": 308.9524999999823,
                        "value": 0.5669291338582677
                    },
                    {
                        "number": 64,
                        "time": 308.9549999999823,
                        "value": 0.6929133858267716
                    },
                    {
                        "number": 64,
                        "time": 308.9624999999823,
                        "value": 0.8188976377952756
                    },
                    {
                        "number": 64,
                        "time": 308.9649999999823,
                        "value": 1
                    },
                    {
                        "number": 64,
                        "time": 310.33999999998224,
                        "value": 0.8188976377952756
                    },
                    {
                        "number": 64,
                        "time": 310.34499999998224,
                        "value": 0.6929133858267716
                    },
                    {
                        "number": 64,
                        "time": 310.34999999998223,
                        "value": 0.5669291338582677
                    },
                    {
                        "number": 64,
                        "time": 310.3549999999822,
                        "value": 0.4409448818897638
                    },
                    {
                        "number": 64,
                        "time": 310.3599999999822,
                        "value": 0.31496062992125984
                    },
                    {
                        "number": 64,
                        "time": 310.3649999999822,
                        "value": 0.1889763779527559
                    },
                    {
                        "number": 64,
                        "time": 310.3699999999822,
                        "value": 0
                    },
                    {
                        "number": 64,
                        "time": 310.43999999998215,
                        "value": 0.1889763779527559
                    },
                    {
                        "number": 64,
                        "time": 310.44999999998214,
                        "value": 0.31496062992125984
                    },
                    {
                        "number": 64,
                        "time": 310.45499999998214,
                        "value": 0.4409448818897638
                    },
                    {
                        "number": 64,
                        "time": 310.45999999998213,
                        "value": 0.5669291338582677
                    },
                    {
                        "number": 64,
                        "time": 310.4649999999821,
                        "value": 0.6929133858267716
                    },
                    {
                        "number": 64,
                        "time": 310.4699999999821,
                        "value": 0.8188976377952756
                    },
                    {
                        "number": 64,
                        "time": 310.4749999999821,
                        "value": 1
                    },
                    {
                        "number": 64,
                        "time": 311.774999999982,
                        "value": 0.6929133858267716
                    },
                    {
                        "number": 64,
                        "time": 311.779999999982,
                        "value": 0.4409448818897638
                    },
                    {
                        "number": 64,
                        "time": 311.784999999982,
                        "value": 0.31496062992125984
                    },
                    {
                        "number": 64,
                        "time": 311.792499999982,
                        "value": 0.1889763779527559
                    },
                    {
                        "number": 64,
                        "time": 311.794999999982,
                        "value": 0
                    },
                    {
                        "number": 64,
                        "time": 311.88499999998197,
                        "value": 0.1889763779527559
                    },
                    {
                        "number": 64,
                        "time": 311.88999999998197,
                        "value": 0.31496062992125984
                    },
                    {
                        "number": 64,
                        "time": 311.89499999998196,
                        "value": 0.4409448818897638
                    },
                    {
                        "number": 64,
                        "time": 311.89999999998196,
                        "value": 0.5669291338582677
                    },
                    {
                        "number": 64,
                        "time": 311.90499999998195,
                        "value": 0.6929133858267716
                    },
                    {
                        "number": 64,
                        "time": 311.90999999998195,
                        "value": 0.8188976377952756
                    },
                    {
                        "number": 64,
                        "time": 311.91499999998194,
                        "value": 1
                    },
                    {
                        "number": 64,
                        "time": 313.1724999999818,
                        "value": 0.8188976377952756
                    },
                    {
                        "number": 64,
                        "time": 313.1749999999818,
                        "value": 0.5669291338582677
                    },
                    {
                        "number": 64,
                        "time": 313.1824999999818,
                        "value": 0.4409448818897638
                    },
                    {
                        "number": 64,
                        "time": 313.1849999999818,
                        "value": 0.31496062992125984
                    },
                    {
                        "number": 64,
                        "time": 313.1899999999818,
                        "value": 0.1889763779527559
                    },
                    {
                        "number": 64,
                        "time": 313.1949999999818,
                        "value": 0
                    },
                    {
                        "number": 64,
                        "time": 313.24499999998176,
                        "value": 0.1889763779527559
                    },
                    {
                        "number": 64,
                        "time": 313.24999999998175,
                        "value": 0.31496062992125984
                    },
                    {
                        "number": 64,
                        "time": 313.26249999998174,
                        "value": 0.4409448818897638
                    },
                    {
                        "number": 64,
                        "time": 313.26499999998174,
                        "value": 0.5669291338582677
                    },
                    {
                        "number": 64,
                        "time": 313.27499999998173,
                        "value": 0.6929133858267716
                    },
                    {
                        "number": 64,
                        "time": 313.2824999999817,
                        "value": 0.8188976377952756
                    },
                    {
                        "number": 64,
                        "time": 313.2849999999817,
                        "value": 1
                    },
                    {
                        "number": 64,
                        "time": 315.5424999999816,
                        "value": 0.8188976377952756
                    },
                    {
                        "number": 64,
                        "time": 315.5474999999816,
                        "value": 0.6929133858267716
                    },
                    {
                        "number": 64,
                        "time": 315.5524999999816,
                        "value": 0.5669291338582677
                    },
                    {
                        "number": 64,
                        "time": 315.5574999999816,
                        "value": 0.31496062992125984
                    },
                    {
                        "number": 64,
                        "time": 315.5624999999816,
                        "value": 0.1889763779527559
                    },
                    {
                        "number": 64,
                        "time": 315.5674999999816,
                        "value": 0
                    },
                    {
                        "number": 64,
                        "time": 315.6299999999816,
                        "value": 0.1889763779527559
                    },
                    {
                        "number": 64,
                        "time": 315.63999999998157,
                        "value": 0.31496062992125984
                    },
                    {
                        "number": 64,
                        "time": 315.64499999998156,
                        "value": 0.5669291338582677
                    },
                    {
                        "number": 64,
                        "time": 315.64999999998156,
                        "value": 0.6929133858267716
                    },
                    {
                        "number": 64,
                        "time": 315.65499999998156,
                        "value": 0.8188976377952756
                    },
                    {
                        "number": 64,
                        "time": 315.65999999998155,
                        "value": 1
                    },
                    {
                        "number": 64,
                        "time": 327.81249999998124,
                        "value": 0.8188976377952756
                    },
                    {
                        "number": 64,
                        "time": 327.81749999998124,
                        "value": 0.6929133858267716
                    },
                    {
                        "number": 64,
                        "time": 327.82249999998123,
                        "value": 0.5669291338582677
                    },
                    {
                        "number": 64,
                        "time": 327.8274999999812,
                        "value": 0.4409448818897638
                    },
                    {
                        "number": 64,
                        "time": 327.8324999999812,
                        "value": 0.31496062992125984
                    },
                    {
                        "number": 64,
                        "time": 327.8374999999812,
                        "value": 0.1889763779527559
                    },
                    {
                        "number": 64,
                        "time": 327.8424999999812,
                        "value": 0
                    },
                    {
                        "number": 64,
                        "time": 327.9249999999812,
                        "value": 0.1889763779527559
                    },
                    {
                        "number": 64,
                        "time": 327.9299999999812,
                        "value": 0.4409448818897638
                    },
                    {
                        "number": 64,
                        "time": 327.9349999999812,
                        "value": 0.6929133858267716
                    },
                    {
                        "number": 64,
                        "time": 327.9399999999812,
                        "value": 1
                    },
                    {
                        "number": 64,
                        "time": 331.4949999999811,
                        "value": 0.6929133858267716
                    },
                    {
                        "number": 64,
                        "time": 331.50249999998107,
                        "value": 0.5669291338582677
                    },
                    {
                        "number": 64,
                        "time": 331.50499999998107,
                        "value": 0.4409448818897638
                    },
                    {
                        "number": 64,
                        "time": 331.51249999998106,
                        "value": 0.1889763779527559
                    },
                    {
                        "number": 64,
                        "time": 331.51749999998106,
                        "value": 0
                    },
                    {
                        "number": 64,
                        "time": 331.632499999981,
                        "value": 0.1889763779527559
                    },
                    {
                        "number": 64,
                        "time": 331.637499999981,
                        "value": 0.31496062992125984
                    },
                    {
                        "number": 64,
                        "time": 331.642499999981,
                        "value": 0.4409448818897638
                    },
                    {
                        "number": 64,
                        "time": 331.647499999981,
                        "value": 0.5669291338582677
                    },
                    {
                        "number": 64,
                        "time": 331.652499999981,
                        "value": 0.6929133858267716
                    },
                    {
                        "number": 64,
                        "time": 331.654999999981,
                        "value": 0.8188976377952756
                    },
                    {
                        "number": 64,
                        "time": 331.662499999981,
                        "value": 1
                    },
                    {
                        "number": 64,
                        "time": 333.30249999998097,
                        "value": 0.8188976377952756
                    },
                    {
                        "number": 64,
                        "time": 333.50749999998095,
                        "value": 0.6929133858267716
                    },
                    {
                        "number": 64,
                        "time": 333.58249999998094,
                        "value": 0.5669291338582677
                    }
                ],
                "67": [
                    {
                        "number": 67,
                        "time": 32.395000000000074,
                        "value": 0
                    },
                    {
                        "number": 67,
                        "time": 34.370000000000076,
                        "value": 1
                    },
                    {
                        "number": 67,
                        "time": 35.26500000000009,
                        "value": 0
                    },
                    {
                        "number": 67,
                        "time": 49.787500000000186,
                        "value": 1
                    },
                    {
                        "number": 67,
                        "time": 63.69500000000029,
                        "value": 0
                    },
                    {
                        "number": 67,
                        "time": 64.10250000000026,
                        "value": 1
                    },
                    {
                        "number": 67,
                        "time": 64.13500000000025,
                        "value": 0
                    },
                    {
                        "number": 67,
                        "time": 64.14750000000025,
                        "value": 1
                    },
                    {
                        "number": 67,
                        "time": 64.23500000000024,
                        "value": 0
                    },
                    {
                        "number": 67,
                        "time": 72.7274999999997,
                        "value": 1
                    },
                    {
                        "number": 67,
                        "time": 78.04249999999932,
                        "value": 0
                    },
                    {
                        "number": 67,
                        "time": 90.44749999999888,
                        "value": 1
                    },
                    {
                        "number": 67,
                        "time": 113.55249999999756,
                        "value": 0
                    },
                    {
                        "number": 67,
                        "time": 121.59499999999717,
                        "value": 1
                    },
                    {
                        "number": 67,
                        "time": 143.45999999999623,
                        "value": 0
                    },
                    {
                        "number": 67,
                        "time": 176.002499999994,
                        "value": 1
                    },
                    {
                        "number": 67,
                        "time": 183.72499999999343,
                        "value": 0
                    },
                    {
                        "number": 67,
                        "time": 188.4074999999931,
                        "value": 1
                    },
                    {
                        "number": 67,
                        "time": 194.47999999999251,
                        "value": 0
                    },
                    {
                        "number": 67,
                        "time": 208.02249999999117,
                        "value": 1
                    },
                    {
                        "number": 67,
                        "time": 217.6324999999907,
                        "value": 0
                    },
                    {
                        "number": 67,
                        "time": 219.21499999999068,
                        "value": 1
                    },
                    {
                        "number": 67,
                        "time": 225.42249999999007,
                        "value": 0
                    },
                    {
                        "number": 67,
                        "time": 234.81499999998923,
                        "value": 1
                    },
                    {
                        "number": 67,
                        "time": 241.67499999998861,
                        "value": 0
                    },
                    {
                        "number": 67,
                        "time": 254.08749999998804,
                        "value": 1
                    }
                ]
            },
            "id": 1,
            "channelNumber": 0,
            "isPercussion": false
        }
    ]
}