{
    "header": {
        "PPQ": 1024,
        "timeSignature": [
            4,
            4
        ],
        "bpm": 96,
        "name": ""
    },
    "startTime": 0,
    "duration": 396.312255859375,
    "tracks": [
        {
            "startTime": 0,
            "duration": 0,
            "length": 0,
            "notes": [],
            "controlChanges": {},
            "id": 0
        },
        {
            "startTime": 2.5,
            "duration": 396.312255859375,
            "length": 3094,
            "notes": [
                {
                    "name": "F5",
                    "midi": 77,
                    "time": 2.5,
                    "velocity": 0.3937007874015748,
                    "duration": 0.3125
                },
                {
                    "name": "F5",
                    "midi": 77,
                    "time": 2.5,
                    "velocity": 0.2755905511811024,
                    "duration": 0.625
                },
                {
                    "name": "A#2",
                    "midi": 46,
                    "time": 2.5,
                    "velocity": 0.31496062992125984,
                    "duration": 0.3125
                },
                {
                    "name": "D4",
                    "midi": 62,
                    "time": 2.8125,
                    "velocity": 0.2755905511811024,
                    "duration": 0.3125
                },
                {
                    "name": "F3",
                    "midi": 53,
                    "time": 2.8125,
                    "velocity": 0.31496062992125984,
                    "duration": 0.3125
                },
                {
                    "name": "F5",
                    "midi": 77,
                    "time": 3.125,
                    "velocity": 0.3937007874015748,
                    "duration": 0.3125
                },
                {
                    "name": "F5",
                    "midi": 77,
                    "time": 3.125,
                    "velocity": 0.2755905511811024,
                    "duration": 0.3125
                },
                {
                    "name": "F2",
                    "midi": 41,
                    "time": 3.125,
                    "velocity": 0.31496062992125984,
                    "duration": 0.3125
                },
                {
                    "name": "D#5",
                    "midi": 75,
                    "time": 3.4375,
                    "velocity": 0.3937007874015748,
                    "duration": 0.3125
                },
                {
                    "name": "D#4",
                    "midi": 63,
                    "time": 3.4375,
                    "velocity": 0.2755905511811024,
                    "duration": 0.3125
                },
                {
                    "name": "G3",
                    "midi": 55,
                    "time": 3.4375,
                    "velocity": 0.31496062992125984,
                    "duration": 0.3125
                },
                {
                    "name": "D5",
                    "midi": 74,
                    "time": 3.75,
                    "velocity": 0.3937007874015748,
                    "duration": 0.3125
                },
                {
                    "name": "D5",
                    "midi": 74,
                    "time": 3.75,
                    "velocity": 0.2755905511811024,
                    "duration": 0.625
                },
                {
                    "name": "A#2",
                    "midi": 46,
                    "time": 3.75,
                    "velocity": 0.31496062992125984,
                    "duration": 0.3125
                },
                {
                    "name": "F4",
                    "midi": 65,
                    "time": 4.0625,
                    "velocity": 0.2755905511811024,
                    "duration": 0.3125
                },
                {
                    "name": "A3",
                    "midi": 57,
                    "time": 4.0625,
                    "velocity": 0.31496062992125984,
                    "duration": 0.3125
                },
                {
                    "name": "C5",
                    "midi": 72,
                    "time": 4.375,
                    "velocity": 0.3937007874015748,
                    "duration": 0.3125
                },
                {
                    "name": "C5",
                    "midi": 72,
                    "time": 4.375,
                    "velocity": 0.2755905511811024,
                    "duration": 0.625
                },
                {
                    "name": "F2",
                    "midi": 41,
                    "time": 4.375,
                    "velocity": 0.31496062992125984,
                    "duration": 0.3125
                },
                {
                    "name": "D#4",
                    "midi": 63,
                    "time": 4.6875,
                    "velocity": 0.2755905511811024,
                    "duration": 0.3125
                },
                {
                    "name": "G3",
                    "midi": 55,
                    "time": 4.6875,
                    "velocity": 0.31496062992125984,
                    "duration": 0.3125
                },
                {
                    "name": "A#4",
                    "midi": 70,
                    "time": 5,
                    "velocity": 0.3937007874015748,
                    "duration": 0.3125
                },
                {
                    "name": "A#4",
                    "midi": 70,
                    "time": 5,
                    "velocity": 0.2755905511811024,
                    "duration": 0.625
                },
                {
                    "name": "A#2",
                    "midi": 46,
                    "time": 5,
                    "velocity": 0.31496062992125984,
                    "duration": 0.3125
                },
                {
                    "name": "D4",
                    "midi": 62,
                    "time": 5.3125,
                    "velocity": 0.2755905511811024,
                    "duration": 0.3125
                },
                {
                    "name": "F3",
                    "midi": 53,
                    "time": 5.3125,
                    "velocity": 0.31496062992125984,
                    "duration": 0.3125
                },
                {
                    "name": "G4",
                    "midi": 67,
                    "time": 5.625,
                    "velocity": 0.3937007874015748,
                    "duration": 0.3125
                },
                {
                    "name": "G4",
                    "midi": 67,
                    "time": 5.625,
                    "velocity": 0.2755905511811024,
                    "duration": 0.625
                },
                {
                    "name": "F2",
                    "midi": 41,
                    "time": 5.625,
                    "velocity": 0.31496062992125984,
                    "duration": 0.3125
                },
                {
                    "name": "D#4",
                    "midi": 63,
                    "time": 5.9375,
                    "velocity": 0.2755905511811024,
                    "duration": 0.3125
                },
                {
                    "name": "G3",
                    "midi": 55,
                    "time": 5.9375,
                    "velocity": 0.31496062992125984,
                    "duration": 0.3125
                },
                {
                    "name": "F4",
                    "midi": 65,
                    "time": 6.25,
                    "velocity": 0.3937007874015748,
                    "duration": 1.25
                },
                {
                    "name": "A#2",
                    "midi": 46,
                    "time": 6.25,
                    "velocity": 0.31496062992125984,
                    "duration": 0.3125
                },
                {
                    "name": "D4",
                    "midi": 62,
                    "time": 6.5625,
                    "velocity": 0.2755905511811024,
                    "duration": 0.625
                },
                {
                    "name": "A3",
                    "midi": 57,
                    "time": 6.5625,
                    "velocity": 0.31496062992125984,
                    "duration": 0.3125
                },
                {
                    "name": "F2",
                    "midi": 41,
                    "time": 6.875,
                    "velocity": 0.31496062992125984,
                    "duration": 0.3125
                },
                {
                    "name": "C4",
                    "midi": 60,
                    "time": 7.1875,
                    "velocity": 0.2755905511811024,
                    "duration": 0.3125
                },
                {
                    "name": "G3",
                    "midi": 55,
                    "time": 7.1875,
                    "velocity": 0.31496062992125984,
                    "duration": 0.3125
                },
                {
                    "name": "F5",
                    "midi": 77,
                    "time": 7.5,
                    "velocity": 0.3937007874015748,
                    "duration": 0.3125
                },
                {
                    "name": "F5",
                    "midi": 77,
                    "time": 7.5,
                    "velocity": 0.2755905511811024,
                    "duration": 0.625
                },
                {
                    "name": "A#2",
                    "midi": 46,
                    "time": 7.5,
                    "velocity": 0.31496062992125984,
                    "duration": 0.3125
                },
                {
                    "name": "D4",
                    "midi": 62,
                    "time": 7.8125,
                    "velocity": 0.2755905511811024,
                    "duration": 0.3125
                },
                {
                    "name": "F3",
                    "midi": 53,
                    "time": 7.8125,
                    "velocity": 0.31496062992125984,
                    "duration": 0.3125
                },
                {
                    "name": "F5",
                    "midi": 77,
                    "time": 8.125,
                    "velocity": 0.3937007874015748,
                    "duration": 0.3125
                },
                {
                    "name": "F5",
                    "midi": 77,
                    "time": 8.125,
                    "velocity": 0.2755905511811024,
                    "duration": 0.3125
                },
                {
                    "name": "F2",
                    "midi": 41,
                    "time": 8.125,
                    "velocity": 0.31496062992125984,
                    "duration": 0.3125
                },
                {
                    "name": "D#5",
                    "midi": 75,
                    "time": 8.4375,
                    "velocity": 0.3937007874015748,
                    "duration": 0.3125
                },
                {
                    "name": "D#4",
                    "midi": 63,
                    "time": 8.4375,
                    "velocity": 0.2755905511811024,
                    "duration": 0.3125
                },
                {
                    "name": "G3",
                    "midi": 55,
                    "time": 8.4375,
                    "velocity": 0.31496062992125984,
                    "duration": 0.3125
                },
                {
                    "name": "D5",
                    "midi": 74,
                    "time": 8.75,
                    "velocity": 0.3937007874015748,
                    "duration": 0.3125
                },
                {
                    "name": "D5",
                    "midi": 74,
                    "time": 8.75,
                    "velocity": 0.2755905511811024,
                    "duration": 0.625
                },
                {
                    "name": "A#2",
                    "midi": 46,
                    "time": 8.75,
                    "velocity": 0.31496062992125984,
                    "duration": 0.3125
                },
                {
                    "name": "F4",
                    "midi": 65,
                    "time": 9.0625,
                    "velocity": 0.2755905511811024,
                    "duration": 0.3125
                },
                {
                    "name": "A3",
                    "midi": 57,
                    "time": 9.0625,
                    "velocity": 0.31496062992125984,
                    "duration": 0.3125
                },
                {
                    "name": "C5",
                    "midi": 72,
                    "time": 9.375,
                    "velocity": 0.3937007874015748,
                    "duration": 0.3125
                },
                {
                    "name": "C5",
                    "midi": 72,
                    "time": 9.375,
                    "velocity": 0.2755905511811024,
                    "duration": 0.625
                },
                {
                    "name": "F2",
                    "midi": 41,
                    "time": 9.375,
                    "velocity": 0.31496062992125984,
                    "duration": 0.3125
                },
                {
                    "name": "D#4",
                    "midi": 63,
                    "time": 9.6875,
                    "velocity": 0.2755905511811024,
                    "duration": 0.3125
                },
                {
                    "name": "G3",
                    "midi": 55,
                    "time": 9.6875,
                    "velocity": 0.31496062992125984,
                    "duration": 0.3125
                },
                {
                    "name": "A#4",
                    "midi": 70,
                    "time": 10,
                    "velocity": 0.3937007874015748,
                    "duration": 0.3125
                },
                {
                    "name": "A#4",
                    "midi": 70,
                    "time": 10,
                    "velocity": 0.2755905511811024,
                    "duration": 0.625
                },
                {
                    "name": "A#2",
                    "midi": 46,
                    "time": 10,
                    "velocity": 0.31496062992125984,
                    "duration": 0.3125
                },
                {
                    "name": "D4",
                    "midi": 62,
                    "time": 10.3125,
                    "velocity": 0.2755905511811024,
                    "duration": 0.3125
                },
                {
                    "name": "F3",
                    "midi": 53,
                    "time": 10.3125,
                    "velocity": 0.31496062992125984,
                    "duration": 0.3125
                },
                {
                    "name": "G4",
                    "midi": 67,
                    "time": 10.625,
                    "velocity": 0.3937007874015748,
                    "duration": 0.3125
                },
                {
                    "name": "G4",
                    "midi": 67,
                    "time": 10.625,
                    "velocity": 0.2755905511811024,
                    "duration": 0.625
                },
                {
                    "name": "F2",
                    "midi": 41,
                    "time": 10.625,
                    "velocity": 0.31496062992125984,
                    "duration": 0.3125
                },
                {
                    "name": "D#4",
                    "midi": 63,
                    "time": 10.9375,
                    "velocity": 0.2755905511811024,
                    "duration": 0.3125
                },
                {
                    "name": "G3",
                    "midi": 55,
                    "time": 10.9375,
                    "velocity": 0.31496062992125984,
                    "duration": 0.3125
                },
                {
                    "name": "F4",
                    "midi": 65,
                    "time": 11.25,
                    "velocity": 0.3937007874015748,
                    "duration": 1.25
                },
                {
                    "name": "A#2",
                    "midi": 46,
                    "time": 11.25,
                    "velocity": 0.31496062992125984,
                    "duration": 0.3125
                },
                {
                    "name": "D4",
                    "midi": 62,
                    "time": 11.5625,
                    "velocity": 0.2755905511811024,
                    "duration": 0.625
                },
                {
                    "name": "A3",
                    "midi": 57,
                    "time": 11.5625,
                    "velocity": 0.31496062992125984,
                    "duration": 0.3125
                },
                {
                    "name": "F2",
                    "midi": 41,
                    "time": 11.875,
                    "velocity": 0.31496062992125984,
                    "duration": 0.3125
                },
                {
                    "name": "C4",
                    "midi": 60,
                    "time": 12.1875,
                    "velocity": 0.2755905511811024,
                    "duration": 0.3125
                },
                {
                    "name": "G3",
                    "midi": 55,
                    "time": 12.1875,
                    "velocity": 0.31496062992125984,
                    "duration": 0.3125
                },
                {
                    "name": "A#2",
                    "midi": 46,
                    "time": 12.5,
                    "velocity": 0.3937007874015748,
                    "duration": 0.3125
                },
                {
                    "name": "C4",
                    "midi": 60,
                    "time": 12.8125,
                    "velocity": 0.47244094488188976,
                    "duration": 0.3125
                },
                {
                    "name": "F3",
                    "midi": 53,
                    "time": 12.8125,
                    "velocity": 0.3937007874015748,
                    "duration": 0.3125
                },
                {
                    "name": "D4",
                    "midi": 62,
                    "time": 13.125,
                    "velocity": 0.47244094488188976,
                    "duration": 0.3125
                },
                {
                    "name": "F2",
                    "midi": 41,
                    "time": 13.125,
                    "velocity": 0.3937007874015748,
                    "duration": 0.3125
                },
                {
                    "name": "E4",
                    "midi": 64,
                    "time": 13.4375,
                    "velocity": 0.47244094488188976,
                    "duration": 0.3125
                },
                {
                    "name": "G3",
                    "midi": 55,
                    "time": 13.4375,
                    "velocity": 0.3937007874015748,
                    "duration": 0.3125
                },
                {
                    "name": "F4",
                    "midi": 65,
                    "time": 13.75,
                    "velocity": 0.47244094488188976,
                    "duration": 0.3125
                },
                {
                    "name": "A#2",
                    "midi": 46,
                    "time": 13.75,
                    "velocity": 0.3937007874015748,
                    "duration": 0.3125
                },
                {
                    "name": "G4",
                    "midi": 67,
                    "time": 14.0625,
                    "velocity": 0.47244094488188976,
                    "duration": 0.3125
                },
                {
                    "name": "A3",
                    "midi": 57,
                    "time": 14.0625,
                    "velocity": 0.3937007874015748,
                    "duration": 0.3125
                },
                {
                    "name": "E4",
                    "midi": 64,
                    "time": 14.375,
                    "velocity": 0.47244094488188976,
                    "duration": 0.3125
                },
                {
                    "name": "F2",
                    "midi": 41,
                    "time": 14.375,
                    "velocity": 0.3937007874015748,
                    "duration": 0.3125
                },
                {
                    "name": "F4",
                    "midi": 65,
                    "time": 14.6875,
                    "velocity": 0.47244094488188976,
                    "duration": 0.3125
                },
                {
                    "name": "G3",
                    "midi": 55,
                    "time": 14.6875,
                    "velocity": 0.3937007874015748,
                    "duration": 0.3125
                },
                {
                    "name": "D4",
                    "midi": 62,
                    "time": 15,
                    "velocity": 0.47244094488188976,
                    "duration": 0.3125
                },
                {
                    "name": "A#2",
                    "midi": 46,
                    "time": 15,
                    "velocity": 0.3937007874015748,
                    "duration": 0.3125
                },
                {
                    "name": "C4",
                    "midi": 60,
                    "time": 15.3125,
                    "velocity": 0.47244094488188976,
                    "duration": 0.3125
                },
                {
                    "name": "F3",
                    "midi": 53,
                    "time": 15.3125,
                    "velocity": 0.3937007874015748,
                    "duration": 0.3125
                },
                {
                    "name": "D4",
                    "midi": 62,
                    "time": 15.625,
                    "velocity": 0.47244094488188976,
                    "duration": 0.3125
                },
                {
                    "name": "F2",
                    "midi": 41,
                    "time": 15.625,
                    "velocity": 0.3937007874015748,
                    "duration": 0.3125
                },
                {
                    "name": "E4",
                    "midi": 64,
                    "time": 15.9375,
                    "velocity": 0.47244094488188976,
                    "duration": 0.3125
                },
                {
                    "name": "G3",
                    "midi": 55,
                    "time": 15.9375,
                    "velocity": 0.3937007874015748,
                    "duration": 0.3125
                },
                {
                    "name": "F4",
                    "midi": 65,
                    "time": 16.25,
                    "velocity": 0.47244094488188976,
                    "duration": 0.3125
                },
                {
                    "name": "A#2",
                    "midi": 46,
                    "time": 16.25,
                    "velocity": 0.3937007874015748,
                    "duration": 0.3125
                },
                {
                    "name": "G4",
                    "midi": 67,
                    "time": 16.5625,
                    "velocity": 0.47244094488188976,
                    "duration": 0.3125
                },
                {
                    "name": "A3",
                    "midi": 57,
                    "time": 16.5625,
                    "velocity": 0.3937007874015748,
                    "duration": 0.3125
                },
                {
                    "name": "E4",
                    "midi": 64,
                    "time": 16.875,
                    "velocity": 0.47244094488188976,
                    "duration": 0.3125
                },
                {
                    "name": "F2",
                    "midi": 41,
                    "time": 16.875,
                    "velocity": 0.3937007874015748,
                    "duration": 0.3125
                },
                {
                    "name": "F4",
                    "midi": 65,
                    "time": 17.1875,
                    "velocity": 0.47244094488188976,
                    "duration": 0.3125
                },
                {
                    "name": "G3",
                    "midi": 55,
                    "time": 17.1875,
                    "velocity": 0.3937007874015748,
                    "duration": 0.3125
                },
                {
                    "name": "D4",
                    "midi": 62,
                    "time": 17.5,
                    "velocity": 0.47244094488188976,
                    "duration": 0.625
                },
                {
                    "name": "A#2",
                    "midi": 46,
                    "time": 17.5,
                    "velocity": 0.3937007874015748,
                    "duration": 0.3125
                },
                {
                    "name": "F3",
                    "midi": 53,
                    "time": 17.8125,
                    "velocity": 0.3937007874015748,
                    "duration": 0.3125
                },
                {
                    "name": "C4",
                    "midi": 60,
                    "time": 18.125,
                    "velocity": 0.47244094488188976,
                    "duration": 0.625
                },
                {
                    "name": "F2",
                    "midi": 41,
                    "time": 18.125,
                    "velocity": 0.3937007874015748,
                    "duration": 0.3125
                },
                {
                    "name": "G3",
                    "midi": 55,
                    "time": 18.4375,
                    "velocity": 0.3937007874015748,
                    "duration": 0.3125
                },
                {
                    "name": "D4",
                    "midi": 62,
                    "time": 18.75,
                    "velocity": 0.47244094488188976,
                    "duration": 1.25
                },
                {
                    "name": "A#2",
                    "midi": 46,
                    "time": 18.75,
                    "velocity": 0.3937007874015748,
                    "duration": 0.3125
                },
                {
                    "name": "A3",
                    "midi": 57,
                    "time": 19.0625,
                    "velocity": 0.3937007874015748,
                    "duration": 0.3125
                },
                {
                    "name": "F2",
                    "midi": 41,
                    "time": 19.375,
                    "velocity": 0.3937007874015748,
                    "duration": 0.3125
                },
                {
                    "name": "G3",
                    "midi": 55,
                    "time": 19.6875,
                    "velocity": 0.3937007874015748,
                    "duration": 0.3125
                },
                {
                    "name": "F5",
                    "midi": 77,
                    "time": 20,
                    "velocity": 0.3937007874015748,
                    "duration": 0.3125
                },
                {
                    "name": "F5",
                    "midi": 77,
                    "time": 20,
                    "velocity": 0.2755905511811024,
                    "duration": 0.625
                },
                {
                    "name": "A#2",
                    "midi": 46,
                    "time": 20,
                    "velocity": 0.31496062992125984,
                    "duration": 0.3125
                },
                {
                    "name": "D4",
                    "midi": 62,
                    "time": 20.3125,
                    "velocity": 0.2755905511811024,
                    "duration": 0.3125
                },
                {
                    "name": "F3",
                    "midi": 53,
                    "time": 20.3125,
                    "velocity": 0.31496062992125984,
                    "duration": 0.3125
                },
                {
                    "name": "F5",
                    "midi": 77,
                    "time": 20.625,
                    "velocity": 0.3937007874015748,
                    "duration": 0.3125
                },
                {
                    "name": "F5",
                    "midi": 77,
                    "time": 20.625,
                    "velocity": 0.2755905511811024,
                    "duration": 0.3125
                },
                {
                    "name": "F2",
                    "midi": 41,
                    "time": 20.625,
                    "velocity": 0.31496062992125984,
                    "duration": 0.3125
                },
                {
                    "name": "D#5",
                    "midi": 75,
                    "time": 20.9375,
                    "velocity": 0.3937007874015748,
                    "duration": 0.3125
                },
                {
                    "name": "D#4",
                    "midi": 63,
                    "time": 20.9375,
                    "velocity": 0.2755905511811024,
                    "duration": 0.3125
                },
                {
                    "name": "G3",
                    "midi": 55,
                    "time": 20.9375,
                    "velocity": 0.31496062992125984,
                    "duration": 0.3125
                },
                {
                    "name": "D5",
                    "midi": 74,
                    "time": 21.25,
                    "velocity": 0.3937007874015748,
                    "duration": 0.3125
                },
                {
                    "name": "D5",
                    "midi": 74,
                    "time": 21.25,
                    "velocity": 0.2755905511811024,
                    "duration": 0.625
                },
                {
                    "name": "A#2",
                    "midi": 46,
                    "time": 21.25,
                    "velocity": 0.31496062992125984,
                    "duration": 0.3125
                },
                {
                    "name": "F4",
                    "midi": 65,
                    "time": 21.5625,
                    "velocity": 0.2755905511811024,
                    "duration": 0.3125
                },
                {
                    "name": "A3",
                    "midi": 57,
                    "time": 21.5625,
                    "velocity": 0.31496062992125984,
                    "duration": 0.3125
                },
                {
                    "name": "C5",
                    "midi": 72,
                    "time": 21.875,
                    "velocity": 0.3937007874015748,
                    "duration": 0.3125
                },
                {
                    "name": "C5",
                    "midi": 72,
                    "time": 21.875,
                    "velocity": 0.2755905511811024,
                    "duration": 0.625
                },
                {
                    "name": "F2",
                    "midi": 41,
                    "time": 21.875,
                    "velocity": 0.31496062992125984,
                    "duration": 0.3125
                },
                {
                    "name": "D#4",
                    "midi": 63,
                    "time": 22.1875,
                    "velocity": 0.2755905511811024,
                    "duration": 0.3125
                },
                {
                    "name": "G3",
                    "midi": 55,
                    "time": 22.1875,
                    "velocity": 0.31496062992125984,
                    "duration": 0.3125
                },
                {
                    "name": "A#4",
                    "midi": 70,
                    "time": 22.5,
                    "velocity": 0.3937007874015748,
                    "duration": 0.3125
                },
                {
                    "name": "A#4",
                    "midi": 70,
                    "time": 22.5,
                    "velocity": 0.2755905511811024,
                    "duration": 0.625
                },
                {
                    "name": "A#2",
                    "midi": 46,
                    "time": 22.5,
                    "velocity": 0.31496062992125984,
                    "duration": 0.3125
                },
                {
                    "name": "D4",
                    "midi": 62,
                    "time": 22.8125,
                    "velocity": 0.2755905511811024,
                    "duration": 0.3125
                },
                {
                    "name": "F3",
                    "midi": 53,
                    "time": 22.8125,
                    "velocity": 0.31496062992125984,
                    "duration": 0.3125
                },
                {
                    "name": "G4",
                    "midi": 67,
                    "time": 23.125,
                    "velocity": 0.3937007874015748,
                    "duration": 0.3125
                },
                {
                    "name": "G4",
                    "midi": 67,
                    "time": 23.125,
                    "velocity": 0.2755905511811024,
                    "duration": 0.625
                },
                {
                    "name": "F2",
                    "midi": 41,
                    "time": 23.125,
                    "velocity": 0.31496062992125984,
                    "duration": 0.3125
                },
                {
                    "name": "D#4",
                    "midi": 63,
                    "time": 23.4375,
                    "velocity": 0.2755905511811024,
                    "duration": 0.3125
                },
                {
                    "name": "G3",
                    "midi": 55,
                    "time": 23.4375,
                    "velocity": 0.31496062992125984,
                    "duration": 0.3125
                },
                {
                    "name": "F4",
                    "midi": 65,
                    "time": 23.75,
                    "velocity": 0.3937007874015748,
                    "duration": 1.25
                },
                {
                    "name": "A#2",
                    "midi": 46,
                    "time": 23.75,
                    "velocity": 0.31496062992125984,
                    "duration": 0.3125
                },
                {
                    "name": "D4",
                    "midi": 62,
                    "time": 24.0625,
                    "velocity": 0.2755905511811024,
                    "duration": 0.625
                },
                {
                    "name": "A3",
                    "midi": 57,
                    "time": 24.0625,
                    "velocity": 0.31496062992125984,
                    "duration": 0.3125
                },
                {
                    "name": "F2",
                    "midi": 41,
                    "time": 24.375,
                    "velocity": 0.31496062992125984,
                    "duration": 0.3125
                },
                {
                    "name": "C4",
                    "midi": 60,
                    "time": 24.6875,
                    "velocity": 0.2755905511811024,
                    "duration": 0.3125
                },
                {
                    "name": "G3",
                    "midi": 55,
                    "time": 24.6875,
                    "velocity": 0.31496062992125984,
                    "duration": 0.3125
                },
                {
                    "name": "C#5",
                    "midi": 73,
                    "time": 25,
                    "velocity": 0.6692913385826772,
                    "duration": 0.625
                },
                {
                    "name": "A#2",
                    "midi": 46,
                    "time": 25,
                    "velocity": 0.31496062992125984,
                    "duration": 0.3125
                },
                {
                    "name": "F3",
                    "midi": 53,
                    "time": 25.3125,
                    "velocity": 0.31496062992125984,
                    "duration": 0.3125
                },
                {
                    "name": "C#5",
                    "midi": 73,
                    "time": 25.625,
                    "velocity": 0.6692913385826772,
                    "duration": 0.546875
                },
                {
                    "name": "F2",
                    "midi": 41,
                    "time": 25.625,
                    "velocity": 0.31496062992125984,
                    "duration": 0.3125
                },
                {
                    "name": "G3",
                    "midi": 55,
                    "time": 25.9375,
                    "velocity": 0.31496062992125984,
                    "duration": 0.3125
                },
                {
                    "name": "C#5",
                    "midi": 73,
                    "time": 26.09375,
                    "velocity": 0.6692913385826772,
                    "duration": 0.15625
                },
                {
                    "name": "D#5",
                    "midi": 75,
                    "time": 26.171875,
                    "velocity": 0.6692913385826772,
                    "duration": 0.078125
                },
                {
                    "name": "C#5",
                    "midi": 73,
                    "time": 26.25,
                    "velocity": 0.6692913385826772,
                    "duration": 0.3125
                },
                {
                    "name": "A#2",
                    "midi": 46,
                    "time": 26.25,
                    "velocity": 0.31496062992125984,
                    "duration": 0.3125
                },
                {
                    "name": "B4",
                    "midi": 71,
                    "time": 26.5625,
                    "velocity": 0.6692913385826772,
                    "duration": 0.3125
                },
                {
                    "name": "A3",
                    "midi": 57,
                    "time": 26.5625,
                    "velocity": 0.31496062992125984,
                    "duration": 0.3125
                },
                {
                    "name": "A#4",
                    "midi": 70,
                    "time": 26.875,
                    "velocity": 0.6692913385826772,
                    "duration": 0.3125
                },
                {
                    "name": "F2",
                    "midi": 41,
                    "time": 26.875,
                    "velocity": 0.31496062992125984,
                    "duration": 0.3125
                },
                {
                    "name": "G#4",
                    "midi": 68,
                    "time": 27.1875,
                    "velocity": 0.6692913385826772,
                    "duration": 0.3125
                },
                {
                    "name": "G3",
                    "midi": 55,
                    "time": 27.1875,
                    "velocity": 0.31496062992125984,
                    "duration": 0.3125
                },
                {
                    "name": "F#4",
                    "midi": 66,
                    "time": 27.5,
                    "velocity": 0.6692913385826772,
                    "duration": 0.625
                },
                {
                    "name": "A#2",
                    "midi": 46,
                    "time": 27.5,
                    "velocity": 0.31496062992125984,
                    "duration": 0.3125
                },
                {
                    "name": "F3",
                    "midi": 53,
                    "time": 27.8125,
                    "velocity": 0.31496062992125984,
                    "duration": 0.3125
                },
                {
                    "name": "D#4",
                    "midi": 63,
                    "time": 28.125,
                    "velocity": 0.6692913385826772,
                    "duration": 0.625
                },
                {
                    "name": "F2",
                    "midi": 41,
                    "time": 28.125,
                    "velocity": 0.31496062992125984,
                    "duration": 0.3125
                },
                {
                    "name": "G3",
                    "midi": 55,
                    "time": 28.4375,
                    "velocity": 0.31496062992125984,
                    "duration": 0.3125
                },
                {
                    "name": "C#4",
                    "midi": 61,
                    "time": 28.75,
                    "velocity": 0.6692913385826772,
                    "duration": 1.25
                },
                {
                    "name": "A#2",
                    "midi": 46,
                    "time": 28.75,
                    "velocity": 0.31496062992125984,
                    "duration": 0.3125
                },
                {
                    "name": "A3",
                    "midi": 57,
                    "time": 29.0625,
                    "velocity": 0.31496062992125984,
                    "duration": 0.3125
                },
                {
                    "name": "F2",
                    "midi": 41,
                    "time": 29.375,
                    "velocity": 0.31496062992125984,
                    "duration": 0.3125
                },
                {
                    "name": "G3",
                    "midi": 55,
                    "time": 29.6875,
                    "velocity": 0.31496062992125984,
                    "duration": 0.3125
                },
                {
                    "name": "G#4",
                    "midi": 68,
                    "time": 30,
                    "velocity": 0.31496062992125984,
                    "duration": 1.25
                },
                {
                    "name": "A#5",
                    "midi": 82,
                    "time": 30,
                    "velocity": 0.31496062992125984,
                    "duration": 1.25
                },
                {
                    "name": "A#2",
                    "midi": 46,
                    "time": 30,
                    "velocity": 0.1968503937007874,
                    "duration": 0.3125
                },
                {
                    "name": "F3",
                    "midi": 53,
                    "time": 30.3125,
                    "velocity": 0.1968503937007874,
                    "duration": 0.3125
                },
                {
                    "name": "F2",
                    "midi": 41,
                    "time": 30.625,
                    "velocity": 0.1968503937007874,
                    "duration": 0.3125
                },
                {
                    "name": "G3",
                    "midi": 55,
                    "time": 30.9375,
                    "velocity": 0.1968503937007874,
                    "duration": 0.3125
                },
                {
                    "name": "C#4",
                    "midi": 61,
                    "time": 31.25,
                    "velocity": 0.31496062992125984,
                    "duration": 1.25
                },
                {
                    "name": "D#5",
                    "midi": 75,
                    "time": 31.25,
                    "velocity": 0.31496062992125984,
                    "duration": 1.25
                },
                {
                    "name": "A#2",
                    "midi": 46,
                    "time": 31.25,
                    "velocity": 0.1968503937007874,
                    "duration": 0.3125
                },
                {
                    "name": "A3",
                    "midi": 57,
                    "time": 31.5625,
                    "velocity": 0.1968503937007874,
                    "duration": 0.3125
                },
                {
                    "name": "F2",
                    "midi": 41,
                    "time": 31.875,
                    "velocity": 0.1968503937007874,
                    "duration": 0.3125
                },
                {
                    "name": "G3",
                    "midi": 55,
                    "time": 32.1875,
                    "velocity": 0.1968503937007874,
                    "duration": 0.3125
                },
                {
                    "name": "G#4",
                    "midi": 68,
                    "time": 32.5,
                    "velocity": 0.31496062992125984,
                    "duration": 1.25
                },
                {
                    "name": "A#5",
                    "midi": 82,
                    "time": 32.5,
                    "velocity": 0.31496062992125984,
                    "duration": 1.25
                },
                {
                    "name": "A#2",
                    "midi": 46,
                    "time": 32.5,
                    "velocity": 0.1968503937007874,
                    "duration": 0.3125
                },
                {
                    "name": "F3",
                    "midi": 53,
                    "time": 32.8125,
                    "velocity": 0.1968503937007874,
                    "duration": 0.3125
                },
                {
                    "name": "F2",
                    "midi": 41,
                    "time": 33.125,
                    "velocity": 0.1968503937007874,
                    "duration": 0.3125
                },
                {
                    "name": "G3",
                    "midi": 55,
                    "time": 33.4375,
                    "velocity": 0.1968503937007874,
                    "duration": 0.3125
                },
                {
                    "name": "C#4",
                    "midi": 61,
                    "time": 33.75,
                    "velocity": 0.31496062992125984,
                    "duration": 1.25
                },
                {
                    "name": "D#5",
                    "midi": 75,
                    "time": 33.75,
                    "velocity": 0.31496062992125984,
                    "duration": 1.25
                },
                {
                    "name": "A#2",
                    "midi": 46,
                    "time": 33.75,
                    "velocity": 0.1968503937007874,
                    "duration": 0.3125
                },
                {
                    "name": "A3",
                    "midi": 57,
                    "time": 34.0625,
                    "velocity": 0.1968503937007874,
                    "duration": 0.3125
                },
                {
                    "name": "F2",
                    "midi": 41,
                    "time": 34.375,
                    "velocity": 0.1968503937007874,
                    "duration": 0.3125
                },
                {
                    "name": "G3",
                    "midi": 55,
                    "time": 34.6875,
                    "velocity": 0.1968503937007874,
                    "duration": 0.3125
                },
                {
                    "name": "G#5",
                    "midi": 80,
                    "time": 35,
                    "velocity": 0.3937007874015748,
                    "duration": 0.625
                },
                {
                    "name": "A#2",
                    "midi": 46,
                    "time": 35,
                    "velocity": 0.31496062992125984,
                    "duration": 0.3125
                },
                {
                    "name": "F3",
                    "midi": 53,
                    "time": 35.3125,
                    "velocity": 0.31496062992125984,
                    "duration": 0.3125
                },
                {
                    "name": "B5",
                    "midi": 83,
                    "time": 35.546875,
                    "velocity": 0.3937007874015748,
                    "duration": 0.078125
                },
                {
                    "name": "G5",
                    "midi": 79,
                    "time": 35.625,
                    "velocity": 0.3937007874015748,
                    "duration": 0.3125
                },
                {
                    "name": "F2",
                    "midi": 41,
                    "time": 35.625,
                    "velocity": 0.31496062992125984,
                    "duration": 0.3125
                },
                {
                    "name": "F#5",
                    "midi": 78,
                    "time": 35.9375,
                    "velocity": 0.3937007874015748,
                    "duration": 0.3125
                },
                {
                    "name": "G3",
                    "midi": 55,
                    "time": 35.9375,
                    "velocity": 0.31496062992125984,
                    "duration": 0.3125
                },
                {
                    "name": "D#5",
                    "midi": 75,
                    "time": 36.25,
                    "velocity": 0.3937007874015748,
                    "duration": 0.625
                },
                {
                    "name": "A#2",
                    "midi": 46,
                    "time": 36.25,
                    "velocity": 0.31496062992125984,
                    "duration": 0.3125
                },
                {
                    "name": "A3",
                    "midi": 57,
                    "time": 36.5625,
                    "velocity": 0.31496062992125984,
                    "duration": 0.3125
                },
                {
                    "name": "F#5",
                    "midi": 78,
                    "time": 36.796875,
                    "velocity": 0.3937007874015748,
                    "duration": 0.078125
                },
                {
                    "name": "D5",
                    "midi": 74,
                    "time": 36.875,
                    "velocity": 0.3937007874015748,
                    "duration": 0.3125
                },
                {
                    "name": "F2",
                    "midi": 41,
                    "time": 36.875,
                    "velocity": 0.31496062992125984,
                    "duration": 0.3125
                },
                {
                    "name": "C#5",
                    "midi": 73,
                    "time": 37.1875,
                    "velocity": 0.3937007874015748,
                    "duration": 0.3125
                },
                {
                    "name": "G3",
                    "midi": 55,
                    "time": 37.1875,
                    "velocity": 0.31496062992125984,
                    "duration": 0.3125
                },
                {
                    "name": "A#4",
                    "midi": 70,
                    "time": 37.5,
                    "velocity": 0.3937007874015748,
                    "duration": 0.625
                },
                {
                    "name": "A#2",
                    "midi": 46,
                    "time": 37.5,
                    "velocity": 0.31496062992125984,
                    "duration": 0.3125
                },
                {
                    "name": "F3",
                    "midi": 53,
                    "time": 37.8125,
                    "velocity": 0.31496062992125984,
                    "duration": 0.3125
                },
                {
                    "name": "C#5",
                    "midi": 73,
                    "time": 38.046875,
                    "velocity": 0.3937007874015748,
                    "duration": 0.078125
                },
                {
                    "name": "A4",
                    "midi": 69,
                    "time": 38.125,
                    "velocity": 0.3937007874015748,
                    "duration": 0.3125
                },
                {
                    "name": "F2",
                    "midi": 41,
                    "time": 38.125,
                    "velocity": 0.31496062992125984,
                    "duration": 0.3125
                },
                {
                    "name": "G#4",
                    "midi": 68,
                    "time": 38.4375,
                    "velocity": 0.3937007874015748,
                    "duration": 0.3125
                },
                {
                    "name": "G3",
                    "midi": 55,
                    "time": 38.4375,
                    "velocity": 0.31496062992125984,
                    "duration": 0.3125
                },
                {
                    "name": "G4",
                    "midi": 67,
                    "time": 38.75,
                    "velocity": 0.3937007874015748,
                    "duration": 0.3125
                },
                {
                    "name": "A#2",
                    "midi": 46,
                    "time": 38.75,
                    "velocity": 0.31496062992125984,
                    "duration": 0.3125
                },
                {
                    "name": "F#4",
                    "midi": 66,
                    "time": 39.0625,
                    "velocity": 0.3937007874015748,
                    "duration": 0.3125
                },
                {
                    "name": "A3",
                    "midi": 57,
                    "time": 39.0625,
                    "velocity": 0.31496062992125984,
                    "duration": 0.3125
                },
                {
                    "name": "D#4",
                    "midi": 63,
                    "time": 39.375,
                    "velocity": 0.3937007874015748,
                    "duration": 0.625
                },
                {
                    "name": "F2",
                    "midi": 41,
                    "time": 39.375,
                    "velocity": 0.31496062992125984,
                    "duration": 0.3125
                },
                {
                    "name": "G3",
                    "midi": 55,
                    "time": 39.6875,
                    "velocity": 0.31496062992125984,
                    "duration": 0.3125
                },
                {
                    "name": "G#5",
                    "midi": 80,
                    "time": 40,
                    "velocity": 0.2755905511811024,
                    "duration": 0.625
                },
                {
                    "name": "A#2",
                    "midi": 46,
                    "time": 40,
                    "velocity": 0.1968503937007874,
                    "duration": 0.3125
                },
                {
                    "name": "F3",
                    "midi": 53,
                    "time": 40.3125,
                    "velocity": 0.1968503937007874,
                    "duration": 0.3125
                },
                {
                    "name": "B5",
                    "midi": 83,
                    "time": 40.546875,
                    "velocity": 0.2755905511811024,
                    "duration": 0.078125
                },
                {
                    "name": "G5",
                    "midi": 79,
                    "time": 40.625,
                    "velocity": 0.2755905511811024,
                    "duration": 0.3125
                },
                {
                    "name": "F2",
                    "midi": 41,
                    "time": 40.625,
                    "velocity": 0.1968503937007874,
                    "duration": 0.3125
                },
                {
                    "name": "F#5",
                    "midi": 78,
                    "time": 40.9375,
                    "velocity": 0.2755905511811024,
                    "duration": 0.3125
                },
                {
                    "name": "G3",
                    "midi": 55,
                    "time": 40.9375,
                    "velocity": 0.1968503937007874,
                    "duration": 0.3125
                },
                {
                    "name": "D#5",
                    "midi": 75,
                    "time": 41.25,
                    "velocity": 0.2755905511811024,
                    "duration": 0.625
                },
                {
                    "name": "A#2",
                    "midi": 46,
                    "time": 41.25,
                    "velocity": 0.1968503937007874,
                    "duration": 0.3125
                },
                {
                    "name": "A3",
                    "midi": 57,
                    "time": 41.5625,
                    "velocity": 0.1968503937007874,
                    "duration": 0.3125
                },
                {
                    "name": "F#5",
                    "midi": 78,
                    "time": 41.796875,
                    "velocity": 0.2755905511811024,
                    "duration": 0.078125
                },
                {
                    "name": "D5",
                    "midi": 74,
                    "time": 41.875,
                    "velocity": 0.2755905511811024,
                    "duration": 0.3125
                },
                {
                    "name": "F2",
                    "midi": 41,
                    "time": 41.875,
                    "velocity": 0.1968503937007874,
                    "duration": 0.3125
                },
                {
                    "name": "C#5",
                    "midi": 73,
                    "time": 42.1875,
                    "velocity": 0.2755905511811024,
                    "duration": 0.3125
                },
                {
                    "name": "G3",
                    "midi": 55,
                    "time": 42.1875,
                    "velocity": 0.1968503937007874,
                    "duration": 0.3125
                },
                {
                    "name": "A#4",
                    "midi": 70,
                    "time": 42.5,
                    "velocity": 0.2755905511811024,
                    "duration": 0.625
                },
                {
                    "name": "A#2",
                    "midi": 46,
                    "time": 42.5,
                    "velocity": 0.1968503937007874,
                    "duration": 0.3125
                },
                {
                    "name": "F3",
                    "midi": 53,
                    "time": 42.8125,
                    "velocity": 0.1968503937007874,
                    "duration": 0.3125
                },
                {
                    "name": "C#5",
                    "midi": 73,
                    "time": 43.046875,
                    "velocity": 0.2755905511811024,
                    "duration": 0.078125
                },
                {
                    "name": "A4",
                    "midi": 69,
                    "time": 43.125,
                    "velocity": 0.2755905511811024,
                    "duration": 0.3125
                },
                {
                    "name": "F2",
                    "midi": 41,
                    "time": 43.125,
                    "velocity": 0.1968503937007874,
                    "duration": 0.3125
                },
                {
                    "name": "G#4",
                    "midi": 68,
                    "time": 43.4375,
                    "velocity": 0.2755905511811024,
                    "duration": 0.3125
                },
                {
                    "name": "G3",
                    "midi": 55,
                    "time": 43.4375,
                    "velocity": 0.1968503937007874,
                    "duration": 0.3125
                },
                {
                    "name": "G4",
                    "midi": 67,
                    "time": 43.75,
                    "velocity": 0.2755905511811024,
                    "duration": 0.3125
                },
                {
                    "name": "A#2",
                    "midi": 46,
                    "time": 43.75,
                    "velocity": 0.1968503937007874,
                    "duration": 0.3125
                },
                {
                    "name": "F#4",
                    "midi": 66,
                    "time": 44.0625,
                    "velocity": 0.2755905511811024,
                    "duration": 0.3125
                },
                {
                    "name": "A3",
                    "midi": 57,
                    "time": 44.0625,
                    "velocity": 0.1968503937007874,
                    "duration": 0.3125
                },
                {
                    "name": "D#4",
                    "midi": 63,
                    "time": 44.375,
                    "velocity": 0.2755905511811024,
                    "duration": 0.625
                },
                {
                    "name": "F2",
                    "midi": 41,
                    "time": 44.375,
                    "velocity": 0.1968503937007874,
                    "duration": 0.3125
                },
                {
                    "name": "G3",
                    "midi": 55,
                    "time": 44.6875,
                    "velocity": 0.1968503937007874,
                    "duration": 0.3125
                },
                {
                    "name": "G#4",
                    "midi": 68,
                    "time": 45,
                    "velocity": 0.31496062992125984,
                    "duration": 1.25
                },
                {
                    "name": "A#5",
                    "midi": 82,
                    "time": 45,
                    "velocity": 0.31496062992125984,
                    "duration": 1.25
                },
                {
                    "name": "A#2",
                    "midi": 46,
                    "time": 45,
                    "velocity": 0.1968503937007874,
                    "duration": 0.3125
                },
                {
                    "name": "F3",
                    "midi": 53,
                    "time": 45.3125,
                    "velocity": 0.1968503937007874,
                    "duration": 0.3125
                },
                {
                    "name": "F2",
                    "midi": 41,
                    "time": 45.625,
                    "velocity": 0.1968503937007874,
                    "duration": 0.3125
                },
                {
                    "name": "G3",
                    "midi": 55,
                    "time": 45.9375,
                    "velocity": 0.1968503937007874,
                    "duration": 0.3125
                },
                {
                    "name": "C#4",
                    "midi": 61,
                    "time": 46.25,
                    "velocity": 0.31496062992125984,
                    "duration": 1.25
                },
                {
                    "name": "D#5",
                    "midi": 75,
                    "time": 46.25,
                    "velocity": 0.31496062992125984,
                    "duration": 1.25
                },
                {
                    "name": "A#2",
                    "midi": 46,
                    "time": 46.25,
                    "velocity": 0.1968503937007874,
                    "duration": 0.3125
                },
                {
                    "name": "A3",
                    "midi": 57,
                    "time": 46.5625,
                    "velocity": 0.1968503937007874,
                    "duration": 0.3125
                },
                {
                    "name": "F2",
                    "midi": 41,
                    "time": 46.875,
                    "velocity": 0.1968503937007874,
                    "duration": 0.3125
                },
                {
                    "name": "G3",
                    "midi": 55,
                    "time": 47.1875,
                    "velocity": 0.1968503937007874,
                    "duration": 0.3125
                },
                {
                    "name": "G#4",
                    "midi": 68,
                    "time": 47.5,
                    "velocity": 0.31496062992125984,
                    "duration": 1.25
                },
                {
                    "name": "A#5",
                    "midi": 82,
                    "time": 47.5,
                    "velocity": 0.31496062992125984,
                    "duration": 1.25
                },
                {
                    "name": "A#2",
                    "midi": 46,
                    "time": 47.5,
                    "velocity": 0.1968503937007874,
                    "duration": 0.3125
                },
                {
                    "name": "F3",
                    "midi": 53,
                    "time": 47.8125,
                    "velocity": 0.1968503937007874,
                    "duration": 0.3125
                },
                {
                    "name": "F2",
                    "midi": 41,
                    "time": 48.125,
                    "velocity": 0.1968503937007874,
                    "duration": 0.3125
                },
                {
                    "name": "G3",
                    "midi": 55,
                    "time": 48.4375,
                    "velocity": 0.1968503937007874,
                    "duration": 0.3125
                },
                {
                    "name": "C#4",
                    "midi": 61,
                    "time": 48.75,
                    "velocity": 0.31496062992125984,
                    "duration": 1.25
                },
                {
                    "name": "D#5",
                    "midi": 75,
                    "time": 48.75,
                    "velocity": 0.31496062992125984,
                    "duration": 1.25
                },
                {
                    "name": "A#2",
                    "midi": 46,
                    "time": 48.75,
                    "velocity": 0.1968503937007874,
                    "duration": 0.3125
                },
                {
                    "name": "A3",
                    "midi": 57,
                    "time": 49.0625,
                    "velocity": 0.1968503937007874,
                    "duration": 0.3125
                },
                {
                    "name": "F2",
                    "midi": 41,
                    "time": 49.375,
                    "velocity": 0.1968503937007874,
                    "duration": 0.3125
                },
                {
                    "name": "G3",
                    "midi": 55,
                    "time": 49.6875,
                    "velocity": 0.1968503937007874,
                    "duration": 0.3125
                },
                {
                    "name": "F5",
                    "midi": 77,
                    "time": 50,
                    "velocity": 0.3937007874015748,
                    "duration": 0.3125
                },
                {
                    "name": "F5",
                    "midi": 77,
                    "time": 50,
                    "velocity": 0.2755905511811024,
                    "duration": 0.625
                },
                {
                    "name": "A#2",
                    "midi": 46,
                    "time": 50,
                    "velocity": 0.31496062992125984,
                    "duration": 0.3125
                },
                {
                    "name": "D4",
                    "midi": 62,
                    "time": 50.3125,
                    "velocity": 0.2755905511811024,
                    "duration": 0.3125
                },
                {
                    "name": "F3",
                    "midi": 53,
                    "time": 50.3125,
                    "velocity": 0.31496062992125984,
                    "duration": 0.3125
                },
                {
                    "name": "F5",
                    "midi": 77,
                    "time": 50.625,
                    "velocity": 0.3937007874015748,
                    "duration": 0.3125
                },
                {
                    "name": "F5",
                    "midi": 77,
                    "time": 50.625,
                    "velocity": 0.2755905511811024,
                    "duration": 0.3125
                },
                {
                    "name": "F2",
                    "midi": 41,
                    "time": 50.625,
                    "velocity": 0.31496062992125984,
                    "duration": 0.3125
                },
                {
                    "name": "D#5",
                    "midi": 75,
                    "time": 50.9375,
                    "velocity": 0.3937007874015748,
                    "duration": 0.3125
                },
                {
                    "name": "D#4",
                    "midi": 63,
                    "time": 50.9375,
                    "velocity": 0.2755905511811024,
                    "duration": 0.3125
                },
                {
                    "name": "G3",
                    "midi": 55,
                    "time": 50.9375,
                    "velocity": 0.31496062992125984,
                    "duration": 0.3125
                },
                {
                    "name": "D5",
                    "midi": 74,
                    "time": 51.25,
                    "velocity": 0.3937007874015748,
                    "duration": 0.3125
                },
                {
                    "name": "D5",
                    "midi": 74,
                    "time": 51.25,
                    "velocity": 0.2755905511811024,
                    "duration": 0.625
                },
                {
                    "name": "A#2",
                    "midi": 46,
                    "time": 51.25,
                    "velocity": 0.31496062992125984,
                    "duration": 0.3125
                },
                {
                    "name": "F4",
                    "midi": 65,
                    "time": 51.5625,
                    "velocity": 0.2755905511811024,
                    "duration": 0.3125
                },
                {
                    "name": "A3",
                    "midi": 57,
                    "time": 51.5625,
                    "velocity": 0.31496062992125984,
                    "duration": 0.3125
                },
                {
                    "name": "C5",
                    "midi": 72,
                    "time": 51.875,
                    "velocity": 0.3937007874015748,
                    "duration": 0.3125
                },
                {
                    "name": "C5",
                    "midi": 72,
                    "time": 51.875,
                    "velocity": 0.2755905511811024,
                    "duration": 0.625
                },
                {
                    "name": "F2",
                    "midi": 41,
                    "time": 51.875,
                    "velocity": 0.31496062992125984,
                    "duration": 0.3125
                },
                {
                    "name": "D#4",
                    "midi": 63,
                    "time": 52.1875,
                    "velocity": 0.2755905511811024,
                    "duration": 0.3125
                },
                {
                    "name": "G3",
                    "midi": 55,
                    "time": 52.1875,
                    "velocity": 0.31496062992125984,
                    "duration": 0.3125
                },
                {
                    "name": "A#4",
                    "midi": 70,
                    "time": 52.5,
                    "velocity": 0.3937007874015748,
                    "duration": 0.3125
                },
                {
                    "name": "A#4",
                    "midi": 70,
                    "time": 52.5,
                    "velocity": 0.2755905511811024,
                    "duration": 0.625
                },
                {
                    "name": "A#2",
                    "midi": 46,
                    "time": 52.5,
                    "velocity": 0.31496062992125984,
                    "duration": 0.3125
                },
                {
                    "name": "D4",
                    "midi": 62,
                    "time": 52.8125,
                    "velocity": 0.2755905511811024,
                    "duration": 0.3125
                },
                {
                    "name": "F3",
                    "midi": 53,
                    "time": 52.8125,
                    "velocity": 0.31496062992125984,
                    "duration": 0.3125
                },
                {
                    "name": "G4",
                    "midi": 67,
                    "time": 53.125,
                    "velocity": 0.3937007874015748,
                    "duration": 0.3125
                },
                {
                    "name": "G4",
                    "midi": 67,
                    "time": 53.125,
                    "velocity": 0.2755905511811024,
                    "duration": 0.625
                },
                {
                    "name": "F2",
                    "midi": 41,
                    "time": 53.125,
                    "velocity": 0.31496062992125984,
                    "duration": 0.3125
                },
                {
                    "name": "D#4",
                    "midi": 63,
                    "time": 53.4375,
                    "velocity": 0.2755905511811024,
                    "duration": 0.3125
                },
                {
                    "name": "G3",
                    "midi": 55,
                    "time": 53.4375,
                    "velocity": 0.31496062992125984,
                    "duration": 0.3125
                },
                {
                    "name": "F4",
                    "midi": 65,
                    "time": 53.75,
                    "velocity": 0.3937007874015748,
                    "duration": 1.25
                },
                {
                    "name": "A#2",
                    "midi": 46,
                    "time": 53.75,
                    "velocity": 0.31496062992125984,
                    "duration": 0.3125
                },
                {
                    "name": "D4",
                    "midi": 62,
                    "time": 54.0625,
                    "velocity": 0.2755905511811024,
                    "duration": 0.625
                },
                {
                    "name": "A3",
                    "midi": 57,
                    "time": 54.0625,
                    "velocity": 0.31496062992125984,
                    "duration": 0.3125
                },
                {
                    "name": "F2",
                    "midi": 41,
                    "time": 54.375,
                    "velocity": 0.31496062992125984,
                    "duration": 0.3125
                },
                {
                    "name": "C4",
                    "midi": 60,
                    "time": 54.6875,
                    "velocity": 0.2755905511811024,
                    "duration": 0.3125
                },
                {
                    "name": "G3",
                    "midi": 55,
                    "time": 54.6875,
                    "velocity": 0.31496062992125984,
                    "duration": 0.3125
                },
                {
                    "name": "F5",
                    "midi": 77,
                    "time": 55,
                    "velocity": 0.3937007874015748,
                    "duration": 0.3125
                },
                {
                    "name": "F5",
                    "midi": 77,
                    "time": 55,
                    "velocity": 0.2755905511811024,
                    "duration": 0.625
                },
                {
                    "name": "A#2",
                    "midi": 46,
                    "time": 55,
                    "velocity": 0.31496062992125984,
                    "duration": 0.3125
                },
                {
                    "name": "D4",
                    "midi": 62,
                    "time": 55.3125,
                    "velocity": 0.2755905511811024,
                    "duration": 0.3125
                },
                {
                    "name": "F3",
                    "midi": 53,
                    "time": 55.3125,
                    "velocity": 0.31496062992125984,
                    "duration": 0.3125
                },
                {
                    "name": "F5",
                    "midi": 77,
                    "time": 55.625,
                    "velocity": 0.3937007874015748,
                    "duration": 0.3125
                },
                {
                    "name": "F5",
                    "midi": 77,
                    "time": 55.625,
                    "velocity": 0.2755905511811024,
                    "duration": 0.3125
                },
                {
                    "name": "F2",
                    "midi": 41,
                    "time": 55.625,
                    "velocity": 0.31496062992125984,
                    "duration": 0.3125
                },
                {
                    "name": "D#5",
                    "midi": 75,
                    "time": 55.9375,
                    "velocity": 0.3937007874015748,
                    "duration": 0.3125
                },
                {
                    "name": "D#4",
                    "midi": 63,
                    "time": 55.9375,
                    "velocity": 0.2755905511811024,
                    "duration": 0.3125
                },
                {
                    "name": "G3",
                    "midi": 55,
                    "time": 55.9375,
                    "velocity": 0.31496062992125984,
                    "duration": 0.3125
                },
                {
                    "name": "D5",
                    "midi": 74,
                    "time": 56.25,
                    "velocity": 0.3937007874015748,
                    "duration": 0.3125
                },
                {
                    "name": "D5",
                    "midi": 74,
                    "time": 56.25,
                    "velocity": 0.2755905511811024,
                    "duration": 0.625
                },
                {
                    "name": "A#2",
                    "midi": 46,
                    "time": 56.25,
                    "velocity": 0.31496062992125984,
                    "duration": 0.3125
                },
                {
                    "name": "F4",
                    "midi": 65,
                    "time": 56.5625,
                    "velocity": 0.2755905511811024,
                    "duration": 0.3125
                },
                {
                    "name": "A3",
                    "midi": 57,
                    "time": 56.5625,
                    "velocity": 0.31496062992125984,
                    "duration": 0.3125
                },
                {
                    "name": "C5",
                    "midi": 72,
                    "time": 56.875,
                    "velocity": 0.3937007874015748,
                    "duration": 0.3125
                },
                {
                    "name": "C5",
                    "midi": 72,
                    "time": 56.875,
                    "velocity": 0.2755905511811024,
                    "duration": 0.625
                },
                {
                    "name": "F2",
                    "midi": 41,
                    "time": 56.875,
                    "velocity": 0.31496062992125984,
                    "duration": 0.3125
                },
                {
                    "name": "D#4",
                    "midi": 63,
                    "time": 57.1875,
                    "velocity": 0.2755905511811024,
                    "duration": 0.3125
                },
                {
                    "name": "G3",
                    "midi": 55,
                    "time": 57.1875,
                    "velocity": 0.31496062992125984,
                    "duration": 0.3125
                },
                {
                    "name": "A#4",
                    "midi": 70,
                    "time": 57.5,
                    "velocity": 0.3937007874015748,
                    "duration": 0.3125
                },
                {
                    "name": "A#4",
                    "midi": 70,
                    "time": 57.5,
                    "velocity": 0.2755905511811024,
                    "duration": 0.625
                },
                {
                    "name": "A#2",
                    "midi": 46,
                    "time": 57.5,
                    "velocity": 0.31496062992125984,
                    "duration": 0.3125
                },
                {
                    "name": "D4",
                    "midi": 62,
                    "time": 57.8125,
                    "velocity": 0.2755905511811024,
                    "duration": 0.3125
                },
                {
                    "name": "F3",
                    "midi": 53,
                    "time": 57.8125,
                    "velocity": 0.31496062992125984,
                    "duration": 0.3125
                },
                {
                    "name": "G4",
                    "midi": 67,
                    "time": 58.125,
                    "velocity": 0.3937007874015748,
                    "duration": 0.3125
                },
                {
                    "name": "G4",
                    "midi": 67,
                    "time": 58.125,
                    "velocity": 0.2755905511811024,
                    "duration": 0.625
                },
                {
                    "name": "F2",
                    "midi": 41,
                    "time": 58.125,
                    "velocity": 0.31496062992125984,
                    "duration": 0.3125
                },
                {
                    "name": "D#4",
                    "midi": 63,
                    "time": 58.4375,
                    "velocity": 0.2755905511811024,
                    "duration": 0.3125
                },
                {
                    "name": "G3",
                    "midi": 55,
                    "time": 58.4375,
                    "velocity": 0.31496062992125984,
                    "duration": 0.3125
                },
                {
                    "name": "F4",
                    "midi": 65,
                    "time": 58.75,
                    "velocity": 0.3937007874015748,
                    "duration": 1.25
                },
                {
                    "name": "A#2",
                    "midi": 46,
                    "time": 58.75,
                    "velocity": 0.31496062992125984,
                    "duration": 0.3125
                },
                {
                    "name": "D4",
                    "midi": 62,
                    "time": 59.0625,
                    "velocity": 0.2755905511811024,
                    "duration": 0.625
                },
                {
                    "name": "A3",
                    "midi": 57,
                    "time": 59.0625,
                    "velocity": 0.31496062992125984,
                    "duration": 0.3125
                },
                {
                    "name": "F2",
                    "midi": 41,
                    "time": 59.375,
                    "velocity": 0.31496062992125984,
                    "duration": 0.3125
                },
                {
                    "name": "C4",
                    "midi": 60,
                    "time": 59.6875,
                    "velocity": 0.2755905511811024,
                    "duration": 0.3125
                },
                {
                    "name": "G3",
                    "midi": 55,
                    "time": 59.6875,
                    "velocity": 0.31496062992125984,
                    "duration": 0.3125
                },
                {
                    "name": "A#2",
                    "midi": 46,
                    "time": 60,
                    "velocity": 0.3937007874015748,
                    "duration": 0.3125
                },
                {
                    "name": "C4",
                    "midi": 60,
                    "time": 60.3125,
                    "velocity": 0.47244094488188976,
                    "duration": 0.3125
                },
                {
                    "name": "F3",
                    "midi": 53,
                    "time": 60.3125,
                    "velocity": 0.3937007874015748,
                    "duration": 0.3125
                },
                {
                    "name": "D4",
                    "midi": 62,
                    "time": 60.625,
                    "velocity": 0.47244094488188976,
                    "duration": 0.3125
                },
                {
                    "name": "F2",
                    "midi": 41,
                    "time": 60.625,
                    "velocity": 0.3937007874015748,
                    "duration": 0.3125
                },
                {
                    "name": "E4",
                    "midi": 64,
                    "time": 60.9375,
                    "velocity": 0.47244094488188976,
                    "duration": 0.3125
                },
                {
                    "name": "G3",
                    "midi": 55,
                    "time": 60.9375,
                    "velocity": 0.3937007874015748,
                    "duration": 0.3125
                },
                {
                    "name": "F4",
                    "midi": 65,
                    "time": 61.25,
                    "velocity": 0.47244094488188976,
                    "duration": 0.3125
                },
                {
                    "name": "A#2",
                    "midi": 46,
                    "time": 61.25,
                    "velocity": 0.3937007874015748,
                    "duration": 0.3125
                },
                {
                    "name": "G4",
                    "midi": 67,
                    "time": 61.5625,
                    "velocity": 0.47244094488188976,
                    "duration": 0.3125
                },
                {
                    "name": "A3",
                    "midi": 57,
                    "time": 61.5625,
                    "velocity": 0.3937007874015748,
                    "duration": 0.3125
                },
                {
                    "name": "E4",
                    "midi": 64,
                    "time": 61.875,
                    "velocity": 0.47244094488188976,
                    "duration": 0.3125
                },
                {
                    "name": "F2",
                    "midi": 41,
                    "time": 61.875,
                    "velocity": 0.3937007874015748,
                    "duration": 0.3125
                },
                {
                    "name": "F4",
                    "midi": 65,
                    "time": 62.1875,
                    "velocity": 0.47244094488188976,
                    "duration": 0.3125
                },
                {
                    "name": "G3",
                    "midi": 55,
                    "time": 62.1875,
                    "velocity": 0.3937007874015748,
                    "duration": 0.3125
                },
                {
                    "name": "D4",
                    "midi": 62,
                    "time": 62.5,
                    "velocity": 0.47244094488188976,
                    "duration": 0.3125
                },
                {
                    "name": "A#2",
                    "midi": 46,
                    "time": 62.5,
                    "velocity": 0.3937007874015748,
                    "duration": 0.3125
                },
                {
                    "name": "C4",
                    "midi": 60,
                    "time": 62.8125,
                    "velocity": 0.47244094488188976,
                    "duration": 0.3125
                },
                {
                    "name": "F3",
                    "midi": 53,
                    "time": 62.8125,
                    "velocity": 0.3937007874015748,
                    "duration": 0.3125
                },
                {
                    "name": "D4",
                    "midi": 62,
                    "time": 63.125,
                    "velocity": 0.47244094488188976,
                    "duration": 0.3125
                },
                {
                    "name": "F2",
                    "midi": 41,
                    "time": 63.125,
                    "velocity": 0.3937007874015748,
                    "duration": 0.3125
                },
                {
                    "name": "E4",
                    "midi": 64,
                    "time": 63.4375,
                    "velocity": 0.47244094488188976,
                    "duration": 0.3125
                },
                {
                    "name": "G3",
                    "midi": 55,
                    "time": 63.4375,
                    "velocity": 0.3937007874015748,
                    "duration": 0.3125
                },
                {
                    "name": "F4",
                    "midi": 65,
                    "time": 63.75,
                    "velocity": 0.47244094488188976,
                    "duration": 0.3125
                },
                {
                    "name": "A#2",
                    "midi": 46,
                    "time": 63.75,
                    "velocity": 0.3937007874015748,
                    "duration": 0.3125
                },
                {
                    "name": "G4",
                    "midi": 67,
                    "time": 64.0625,
                    "velocity": 0.47244094488188976,
                    "duration": 0.3125
                },
                {
                    "name": "A3",
                    "midi": 57,
                    "time": 64.0625,
                    "velocity": 0.3937007874015748,
                    "duration": 0.3125
                },
                {
                    "name": "E4",
                    "midi": 64,
                    "time": 64.375,
                    "velocity": 0.47244094488188976,
                    "duration": 0.3125
                },
                {
                    "name": "F2",
                    "midi": 41,
                    "time": 64.375,
                    "velocity": 0.3937007874015748,
                    "duration": 0.3125
                },
                {
                    "name": "F4",
                    "midi": 65,
                    "time": 64.6875,
                    "velocity": 0.47244094488188976,
                    "duration": 0.3125
                },
                {
                    "name": "G3",
                    "midi": 55,
                    "time": 64.6875,
                    "velocity": 0.3937007874015748,
                    "duration": 0.3125
                },
                {
                    "name": "D4",
                    "midi": 62,
                    "time": 65,
                    "velocity": 0.47244094488188976,
                    "duration": 0.625
                },
                {
                    "name": "A#2",
                    "midi": 46,
                    "time": 65,
                    "velocity": 0.3937007874015748,
                    "duration": 0.3125
                },
                {
                    "name": "F3",
                    "midi": 53,
                    "time": 65.3125,
                    "velocity": 0.3937007874015748,
                    "duration": 0.3125
                },
                {
                    "name": "C4",
                    "midi": 60,
                    "time": 65.625,
                    "velocity": 0.47244094488188976,
                    "duration": 0.625
                },
                {
                    "name": "F2",
                    "midi": 41,
                    "time": 65.625,
                    "velocity": 0.3937007874015748,
                    "duration": 0.3125
                },
                {
                    "name": "G3",
                    "midi": 55,
                    "time": 65.9375,
                    "velocity": 0.3937007874015748,
                    "duration": 0.3125
                },
                {
                    "name": "D4",
                    "midi": 62,
                    "time": 66.25,
                    "velocity": 0.47244094488188976,
                    "duration": 1.25
                },
                {
                    "name": "A#2",
                    "midi": 46,
                    "time": 66.25,
                    "velocity": 0.3937007874015748,
                    "duration": 0.3125
                },
                {
                    "name": "A3",
                    "midi": 57,
                    "time": 66.5625,
                    "velocity": 0.3937007874015748,
                    "duration": 0.3125
                },
                {
                    "name": "F2",
                    "midi": 41,
                    "time": 66.875,
                    "velocity": 0.3937007874015748,
                    "duration": 0.3125
                },
                {
                    "name": "G3",
                    "midi": 55,
                    "time": 67.1875,
                    "velocity": 0.3937007874015748,
                    "duration": 0.3125
                },
                {
                    "name": "F5",
                    "midi": 77,
                    "time": 67.5,
                    "velocity": 0.3937007874015748,
                    "duration": 0.3125
                },
                {
                    "name": "F5",
                    "midi": 77,
                    "time": 67.5,
                    "velocity": 0.2755905511811024,
                    "duration": 0.625
                },
                {
                    "name": "A#2",
                    "midi": 46,
                    "time": 67.5,
                    "velocity": 0.31496062992125984,
                    "duration": 0.3125
                },
                {
                    "name": "D4",
                    "midi": 62,
                    "time": 67.8125,
                    "velocity": 0.2755905511811024,
                    "duration": 0.3125
                },
                {
                    "name": "F3",
                    "midi": 53,
                    "time": 67.8125,
                    "velocity": 0.31496062992125984,
                    "duration": 0.3125
                },
                {
                    "name": "F5",
                    "midi": 77,
                    "time": 68.125,
                    "velocity": 0.3937007874015748,
                    "duration": 0.3125
                },
                {
                    "name": "F5",
                    "midi": 77,
                    "time": 68.125,
                    "velocity": 0.2755905511811024,
                    "duration": 0.3125
                },
                {
                    "name": "F2",
                    "midi": 41,
                    "time": 68.125,
                    "velocity": 0.31496062992125984,
                    "duration": 0.3125
                },
                {
                    "name": "D#5",
                    "midi": 75,
                    "time": 68.4375,
                    "velocity": 0.3937007874015748,
                    "duration": 0.3125
                },
                {
                    "name": "D#4",
                    "midi": 63,
                    "time": 68.4375,
                    "velocity": 0.2755905511811024,
                    "duration": 0.3125
                },
                {
                    "name": "G3",
                    "midi": 55,
                    "time": 68.4375,
                    "velocity": 0.31496062992125984,
                    "duration": 0.3125
                },
                {
                    "name": "D5",
                    "midi": 74,
                    "time": 68.75,
                    "velocity": 0.3937007874015748,
                    "duration": 0.3125
                },
                {
                    "name": "D5",
                    "midi": 74,
                    "time": 68.75,
                    "velocity": 0.2755905511811024,
                    "duration": 0.625
                },
                {
                    "name": "A#2",
                    "midi": 46,
                    "time": 68.75,
                    "velocity": 0.31496062992125984,
                    "duration": 0.3125
                },
                {
                    "name": "F4",
                    "midi": 65,
                    "time": 69.0625,
                    "velocity": 0.2755905511811024,
                    "duration": 0.3125
                },
                {
                    "name": "A3",
                    "midi": 57,
                    "time": 69.0625,
                    "velocity": 0.31496062992125984,
                    "duration": 0.3125
                },
                {
                    "name": "C5",
                    "midi": 72,
                    "time": 69.375,
                    "velocity": 0.3937007874015748,
                    "duration": 0.3125
                },
                {
                    "name": "C5",
                    "midi": 72,
                    "time": 69.375,
                    "velocity": 0.2755905511811024,
                    "duration": 0.625
                },
                {
                    "name": "F2",
                    "midi": 41,
                    "time": 69.375,
                    "velocity": 0.31496062992125984,
                    "duration": 0.3125
                },
                {
                    "name": "D#4",
                    "midi": 63,
                    "time": 69.6875,
                    "velocity": 0.2755905511811024,
                    "duration": 0.3125
                },
                {
                    "name": "G3",
                    "midi": 55,
                    "time": 69.6875,
                    "velocity": 0.31496062992125984,
                    "duration": 0.3125
                },
                {
                    "name": "A#4",
                    "midi": 70,
                    "time": 70,
                    "velocity": 0.3937007874015748,
                    "duration": 0.3125
                },
                {
                    "name": "A#4",
                    "midi": 70,
                    "time": 70,
                    "velocity": 0.2755905511811024,
                    "duration": 0.625
                },
                {
                    "name": "A#2",
                    "midi": 46,
                    "time": 70,
                    "velocity": 0.31496062992125984,
                    "duration": 0.3125
                },
                {
                    "name": "D4",
                    "midi": 62,
                    "time": 70.3125,
                    "velocity": 0.2755905511811024,
                    "duration": 0.3125
                },
                {
                    "name": "F3",
                    "midi": 53,
                    "time": 70.3125,
                    "velocity": 0.31496062992125984,
                    "duration": 0.3125
                },
                {
                    "name": "G4",
                    "midi": 67,
                    "time": 70.625,
                    "velocity": 0.3937007874015748,
                    "duration": 0.3125
                },
                {
                    "name": "G4",
                    "midi": 67,
                    "time": 70.625,
                    "velocity": 0.2755905511811024,
                    "duration": 0.625
                },
                {
                    "name": "F2",
                    "midi": 41,
                    "time": 70.625,
                    "velocity": 0.31496062992125984,
                    "duration": 0.3125
                },
                {
                    "name": "D#4",
                    "midi": 63,
                    "time": 70.9375,
                    "velocity": 0.2755905511811024,
                    "duration": 0.3125
                },
                {
                    "name": "G3",
                    "midi": 55,
                    "time": 70.9375,
                    "velocity": 0.31496062992125984,
                    "duration": 0.3125
                },
                {
                    "name": "F4",
                    "midi": 65,
                    "time": 71.25,
                    "velocity": 0.3937007874015748,
                    "duration": 1.25
                },
                {
                    "name": "A#2",
                    "midi": 46,
                    "time": 71.25,
                    "velocity": 0.31496062992125984,
                    "duration": 0.3125
                },
                {
                    "name": "D4",
                    "midi": 62,
                    "time": 71.5625,
                    "velocity": 0.2755905511811024,
                    "duration": 0.625
                },
                {
                    "name": "A3",
                    "midi": 57,
                    "time": 71.5625,
                    "velocity": 0.31496062992125984,
                    "duration": 0.3125
                },
                {
                    "name": "F2",
                    "midi": 41,
                    "time": 71.875,
                    "velocity": 0.31496062992125984,
                    "duration": 0.3125
                },
                {
                    "name": "C4",
                    "midi": 60,
                    "time": 72.1875,
                    "velocity": 0.2755905511811024,
                    "duration": 0.3125
                },
                {
                    "name": "G3",
                    "midi": 55,
                    "time": 72.1875,
                    "velocity": 0.31496062992125984,
                    "duration": 0.3125
                },
                {
                    "name": "C#5",
                    "midi": 73,
                    "time": 72.5,
                    "velocity": 0.6692913385826772,
                    "duration": 0.625
                },
                {
                    "name": "A#2",
                    "midi": 46,
                    "time": 72.5,
                    "velocity": 0.31496062992125984,
                    "duration": 0.3125
                },
                {
                    "name": "F3",
                    "midi": 53,
                    "time": 72.8125,
                    "velocity": 0.31496062992125984,
                    "duration": 0.3125
                },
                {
                    "name": "C#5",
                    "midi": 73,
                    "time": 73.125,
                    "velocity": 0.6692913385826772,
                    "duration": 0.546875
                },
                {
                    "name": "F2",
                    "midi": 41,
                    "time": 73.125,
                    "velocity": 0.31496062992125984,
                    "duration": 0.3125
                },
                {
                    "name": "G3",
                    "midi": 55,
                    "time": 73.4375,
                    "velocity": 0.31496062992125984,
                    "duration": 0.3125
                },
                {
                    "name": "C#5",
                    "midi": 73,
                    "time": 73.59375,
                    "velocity": 0.6692913385826772,
                    "duration": 0.15625
                },
                {
                    "name": "D#5",
                    "midi": 75,
                    "time": 73.671875,
                    "velocity": 0.6692913385826772,
                    "duration": 0.078125
                },
                {
                    "name": "C#5",
                    "midi": 73,
                    "time": 73.75,
                    "velocity": 0.6692913385826772,
                    "duration": 0.3125
                },
                {
                    "name": "A#2",
                    "midi": 46,
                    "time": 73.75,
                    "velocity": 0.31496062992125984,
                    "duration": 0.3125
                },
                {
                    "name": "B4",
                    "midi": 71,
                    "time": 74.0625,
                    "velocity": 0.6692913385826772,
                    "duration": 0.3125
                },
                {
                    "name": "A3",
                    "midi": 57,
                    "time": 74.0625,
                    "velocity": 0.31496062992125984,
                    "duration": 0.3125
                },
                {
                    "name": "A#4",
                    "midi": 70,
                    "time": 74.375,
                    "velocity": 0.6692913385826772,
                    "duration": 0.3125
                },
                {
                    "name": "F2",
                    "midi": 41,
                    "time": 74.375,
                    "velocity": 0.31496062992125984,
                    "duration": 0.3125
                },
                {
                    "name": "G#4",
                    "midi": 68,
                    "time": 74.6875,
                    "velocity": 0.6692913385826772,
                    "duration": 0.3125
                },
                {
                    "name": "G3",
                    "midi": 55,
                    "time": 74.6875,
                    "velocity": 0.31496062992125984,
                    "duration": 0.3125
                },
                {
                    "name": "F#4",
                    "midi": 66,
                    "time": 75,
                    "velocity": 0.6692913385826772,
                    "duration": 0.625
                },
                {
                    "name": "A#2",
                    "midi": 46,
                    "time": 75,
                    "velocity": 0.31496062992125984,
                    "duration": 0.3125
                },
                {
                    "name": "F3",
                    "midi": 53,
                    "time": 75.3125,
                    "velocity": 0.31496062992125984,
                    "duration": 0.3125
                },
                {
                    "name": "D#4",
                    "midi": 63,
                    "time": 75.625,
                    "velocity": 0.6692913385826772,
                    "duration": 0.625
                },
                {
                    "name": "F2",
                    "midi": 41,
                    "time": 75.625,
                    "velocity": 0.31496062992125984,
                    "duration": 0.3125
                },
                {
                    "name": "G3",
                    "midi": 55,
                    "time": 75.9375,
                    "velocity": 0.31496062992125984,
                    "duration": 0.3125
                },
                {
                    "name": "C#4",
                    "midi": 61,
                    "time": 76.25,
                    "velocity": 0.6692913385826772,
                    "duration": 1.25
                },
                {
                    "name": "A#2",
                    "midi": 46,
                    "time": 76.25,
                    "velocity": 0.31496062992125984,
                    "duration": 0.3125
                },
                {
                    "name": "A3",
                    "midi": 57,
                    "time": 76.5625,
                    "velocity": 0.31496062992125984,
                    "duration": 0.3125
                },
                {
                    "name": "F2",
                    "midi": 41,
                    "time": 76.875,
                    "velocity": 0.31496062992125984,
                    "duration": 0.3125
                },
                {
                    "name": "G3",
                    "midi": 55,
                    "time": 77.1875,
                    "velocity": 0.31496062992125984,
                    "duration": 0.3125
                },
                {
                    "name": "G#4",
                    "midi": 68,
                    "time": 77.5,
                    "velocity": 0.31496062992125984,
                    "duration": 1.25
                },
                {
                    "name": "A#5",
                    "midi": 82,
                    "time": 77.5,
                    "velocity": 0.31496062992125984,
                    "duration": 1.25
                },
                {
                    "name": "A#2",
                    "midi": 46,
                    "time": 77.5,
                    "velocity": 0.1968503937007874,
                    "duration": 0.3125
                },
                {
                    "name": "F3",
                    "midi": 53,
                    "time": 77.8125,
                    "velocity": 0.1968503937007874,
                    "duration": 0.3125
                },
                {
                    "name": "F2",
                    "midi": 41,
                    "time": 78.125,
                    "velocity": 0.1968503937007874,
                    "duration": 0.3125
                },
                {
                    "name": "G3",
                    "midi": 55,
                    "time": 78.4375,
                    "velocity": 0.1968503937007874,
                    "duration": 0.3125
                },
                {
                    "name": "C#4",
                    "midi": 61,
                    "time": 78.75,
                    "velocity": 0.31496062992125984,
                    "duration": 1.25
                },
                {
                    "name": "D#5",
                    "midi": 75,
                    "time": 78.75,
                    "velocity": 0.31496062992125984,
                    "duration": 1.25
                },
                {
                    "name": "A#2",
                    "midi": 46,
                    "time": 78.75,
                    "velocity": 0.1968503937007874,
                    "duration": 0.3125
                },
                {
                    "name": "A3",
                    "midi": 57,
                    "time": 79.0625,
                    "velocity": 0.1968503937007874,
                    "duration": 0.3125
                },
                {
                    "name": "F2",
                    "midi": 41,
                    "time": 79.375,
                    "velocity": 0.1968503937007874,
                    "duration": 0.3125
                },
                {
                    "name": "G3",
                    "midi": 55,
                    "time": 79.6875,
                    "velocity": 0.1968503937007874,
                    "duration": 0.3125
                },
                {
                    "name": "G#4",
                    "midi": 68,
                    "time": 80,
                    "velocity": 0.31496062992125984,
                    "duration": 1.25
                },
                {
                    "name": "A#5",
                    "midi": 82,
                    "time": 80,
                    "velocity": 0.31496062992125984,
                    "duration": 1.25
                },
                {
                    "name": "A#2",
                    "midi": 46,
                    "time": 80,
                    "velocity": 0.1968503937007874,
                    "duration": 0.3125
                },
                {
                    "name": "F3",
                    "midi": 53,
                    "time": 80.3125,
                    "velocity": 0.1968503937007874,
                    "duration": 0.3125
                },
                {
                    "name": "F2",
                    "midi": 41,
                    "time": 80.625,
                    "velocity": 0.1968503937007874,
                    "duration": 0.3125
                },
                {
                    "name": "G3",
                    "midi": 55,
                    "time": 80.9375,
                    "velocity": 0.1968503937007874,
                    "duration": 0.3125
                },
                {
                    "name": "C#4",
                    "midi": 61,
                    "time": 81.25,
                    "velocity": 0.31496062992125984,
                    "duration": 1.25
                },
                {
                    "name": "D#5",
                    "midi": 75,
                    "time": 81.25,
                    "velocity": 0.31496062992125984,
                    "duration": 1.25
                },
                {
                    "name": "A#2",
                    "midi": 46,
                    "time": 81.25,
                    "velocity": 0.1968503937007874,
                    "duration": 0.3125
                },
                {
                    "name": "A3",
                    "midi": 57,
                    "time": 81.5625,
                    "velocity": 0.1968503937007874,
                    "duration": 0.3125
                },
                {
                    "name": "F2",
                    "midi": 41,
                    "time": 81.875,
                    "velocity": 0.1968503937007874,
                    "duration": 0.3125
                },
                {
                    "name": "G3",
                    "midi": 55,
                    "time": 82.1875,
                    "velocity": 0.1968503937007874,
                    "duration": 0.3125
                },
                {
                    "name": "G#5",
                    "midi": 80,
                    "time": 82.5,
                    "velocity": 0.3937007874015748,
                    "duration": 0.625
                },
                {
                    "name": "A#2",
                    "midi": 46,
                    "time": 82.5,
                    "velocity": 0.31496062992125984,
                    "duration": 0.3125
                },
                {
                    "name": "F3",
                    "midi": 53,
                    "time": 82.8125,
                    "velocity": 0.31496062992125984,
                    "duration": 0.3125
                },
                {
                    "name": "B5",
                    "midi": 83,
                    "time": 83.046875,
                    "velocity": 0.3937007874015748,
                    "duration": 0.078125
                },
                {
                    "name": "G5",
                    "midi": 79,
                    "time": 83.125,
                    "velocity": 0.3937007874015748,
                    "duration": 0.3125
                },
                {
                    "name": "F2",
                    "midi": 41,
                    "time": 83.125,
                    "velocity": 0.31496062992125984,
                    "duration": 0.3125
                },
                {
                    "name": "F#5",
                    "midi": 78,
                    "time": 83.4375,
                    "velocity": 0.3937007874015748,
                    "duration": 0.3125
                },
                {
                    "name": "G3",
                    "midi": 55,
                    "time": 83.4375,
                    "velocity": 0.31496062992125984,
                    "duration": 0.3125
                },
                {
                    "name": "D#5",
                    "midi": 75,
                    "time": 83.75,
                    "velocity": 0.3937007874015748,
                    "duration": 0.625
                },
                {
                    "name": "A#2",
                    "midi": 46,
                    "time": 83.75,
                    "velocity": 0.31496062992125984,
                    "duration": 0.3125
                },
                {
                    "name": "A3",
                    "midi": 57,
                    "time": 84.0625,
                    "velocity": 0.31496062992125984,
                    "duration": 0.3125
                },
                {
                    "name": "F#5",
                    "midi": 78,
                    "time": 84.296875,
                    "velocity": 0.3937007874015748,
                    "duration": 0.078125
                },
                {
                    "name": "D5",
                    "midi": 74,
                    "time": 84.375,
                    "velocity": 0.3937007874015748,
                    "duration": 0.3125
                },
                {
                    "name": "F2",
                    "midi": 41,
                    "time": 84.375,
                    "velocity": 0.31496062992125984,
                    "duration": 0.3125
                },
                {
                    "name": "C#5",
                    "midi": 73,
                    "time": 84.6875,
                    "velocity": 0.3937007874015748,
                    "duration": 0.3125
                },
                {
                    "name": "G3",
                    "midi": 55,
                    "time": 84.6875,
                    "velocity": 0.31496062992125984,
                    "duration": 0.3125
                },
                {
                    "name": "A#4",
                    "midi": 70,
                    "time": 85,
                    "velocity": 0.3937007874015748,
                    "duration": 0.625
                },
                {
                    "name": "A#2",
                    "midi": 46,
                    "time": 85,
                    "velocity": 0.31496062992125984,
                    "duration": 0.3125
                },
                {
                    "name": "F3",
                    "midi": 53,
                    "time": 85.3125,
                    "velocity": 0.31496062992125984,
                    "duration": 0.3125
                },
                {
                    "name": "C#5",
                    "midi": 73,
                    "time": 85.546875,
                    "velocity": 0.3937007874015748,
                    "duration": 0.078125
                },
                {
                    "name": "A4",
                    "midi": 69,
                    "time": 85.625,
                    "velocity": 0.3937007874015748,
                    "duration": 0.3125
                },
                {
                    "name": "F2",
                    "midi": 41,
                    "time": 85.625,
                    "velocity": 0.31496062992125984,
                    "duration": 0.3125
                },
                {
                    "name": "G#4",
                    "midi": 68,
                    "time": 85.9375,
                    "velocity": 0.3937007874015748,
                    "duration": 0.3125
                },
                {
                    "name": "G3",
                    "midi": 55,
                    "time": 85.9375,
                    "velocity": 0.31496062992125984,
                    "duration": 0.3125
                },
                {
                    "name": "G4",
                    "midi": 67,
                    "time": 86.25,
                    "velocity": 0.3937007874015748,
                    "duration": 0.3125
                },
                {
                    "name": "A#2",
                    "midi": 46,
                    "time": 86.25,
                    "velocity": 0.31496062992125984,
                    "duration": 0.3125
                },
                {
                    "name": "F#4",
                    "midi": 66,
                    "time": 86.5625,
                    "velocity": 0.3937007874015748,
                    "duration": 0.3125
                },
                {
                    "name": "A3",
                    "midi": 57,
                    "time": 86.5625,
                    "velocity": 0.31496062992125984,
                    "duration": 0.3125
                },
                {
                    "name": "D#4",
                    "midi": 63,
                    "time": 86.875,
                    "velocity": 0.3937007874015748,
                    "duration": 0.625
                },
                {
                    "name": "F2",
                    "midi": 41,
                    "time": 86.875,
                    "velocity": 0.31496062992125984,
                    "duration": 0.3125
                },
                {
                    "name": "G3",
                    "midi": 55,
                    "time": 87.1875,
                    "velocity": 0.31496062992125984,
                    "duration": 0.3125
                },
                {
                    "name": "G#5",
                    "midi": 80,
                    "time": 87.5,
                    "velocity": 0.2755905511811024,
                    "duration": 0.625
                },
                {
                    "name": "A#2",
                    "midi": 46,
                    "time": 87.5,
                    "velocity": 0.1968503937007874,
                    "duration": 0.3125
                },
                {
                    "name": "F3",
                    "midi": 53,
                    "time": 87.8125,
                    "velocity": 0.1968503937007874,
                    "duration": 0.3125
                },
                {
                    "name": "B5",
                    "midi": 83,
                    "time": 88.046875,
                    "velocity": 0.2755905511811024,
                    "duration": 0.078125
                },
                {
                    "name": "G5",
                    "midi": 79,
                    "time": 88.125,
                    "velocity": 0.2755905511811024,
                    "duration": 0.3125
                },
                {
                    "name": "F2",
                    "midi": 41,
                    "time": 88.125,
                    "velocity": 0.1968503937007874,
                    "duration": 0.3125
                },
                {
                    "name": "F#5",
                    "midi": 78,
                    "time": 88.4375,
                    "velocity": 0.2755905511811024,
                    "duration": 0.3125
                },
                {
                    "name": "G3",
                    "midi": 55,
                    "time": 88.4375,
                    "velocity": 0.1968503937007874,
                    "duration": 0.3125
                },
                {
                    "name": "D#5",
                    "midi": 75,
                    "time": 88.75,
                    "velocity": 0.2755905511811024,
                    "duration": 0.625
                },
                {
                    "name": "A#2",
                    "midi": 46,
                    "time": 88.75,
                    "velocity": 0.1968503937007874,
                    "duration": 0.3125
                },
                {
                    "name": "A3",
                    "midi": 57,
                    "time": 89.0625,
                    "velocity": 0.1968503937007874,
                    "duration": 0.3125
                },
                {
                    "name": "F#5",
                    "midi": 78,
                    "time": 89.296875,
                    "velocity": 0.2755905511811024,
                    "duration": 0.078125
                },
                {
                    "name": "D5",
                    "midi": 74,
                    "time": 89.375,
                    "velocity": 0.2755905511811024,
                    "duration": 0.3125
                },
                {
                    "name": "F2",
                    "midi": 41,
                    "time": 89.375,
                    "velocity": 0.1968503937007874,
                    "duration": 0.3125
                },
                {
                    "name": "C#5",
                    "midi": 73,
                    "time": 89.6875,
                    "velocity": 0.2755905511811024,
                    "duration": 0.3125
                },
                {
                    "name": "G3",
                    "midi": 55,
                    "time": 89.6875,
                    "velocity": 0.1968503937007874,
                    "duration": 0.3125
                },
                {
                    "name": "A#4",
                    "midi": 70,
                    "time": 90,
                    "velocity": 0.2755905511811024,
                    "duration": 0.625
                },
                {
                    "name": "A#2",
                    "midi": 46,
                    "time": 90,
                    "velocity": 0.1968503937007874,
                    "duration": 0.3125
                },
                {
                    "name": "F3",
                    "midi": 53,
                    "time": 90.3125,
                    "velocity": 0.1968503937007874,
                    "duration": 0.3125
                },
                {
                    "name": "C#5",
                    "midi": 73,
                    "time": 90.546875,
                    "velocity": 0.2755905511811024,
                    "duration": 0.078125
                },
                {
                    "name": "A4",
                    "midi": 69,
                    "time": 90.625,
                    "velocity": 0.2755905511811024,
                    "duration": 0.3125
                },
                {
                    "name": "F2",
                    "midi": 41,
                    "time": 90.625,
                    "velocity": 0.1968503937007874,
                    "duration": 0.3125
                },
                {
                    "name": "G#4",
                    "midi": 68,
                    "time": 90.9375,
                    "velocity": 0.2755905511811024,
                    "duration": 0.3125
                },
                {
                    "name": "G3",
                    "midi": 55,
                    "time": 90.9375,
                    "velocity": 0.1968503937007874,
                    "duration": 0.3125
                },
                {
                    "name": "G4",
                    "midi": 67,
                    "time": 91.25,
                    "velocity": 0.2755905511811024,
                    "duration": 0.3125
                },
                {
                    "name": "A#2",
                    "midi": 46,
                    "time": 91.25,
                    "velocity": 0.1968503937007874,
                    "duration": 0.3125
                },
                {
                    "name": "F#4",
                    "midi": 66,
                    "time": 91.5625,
                    "velocity": 0.2755905511811024,
                    "duration": 0.3125
                },
                {
                    "name": "A3",
                    "midi": 57,
                    "time": 91.5625,
                    "velocity": 0.1968503937007874,
                    "duration": 0.3125
                },
                {
                    "name": "D#4",
                    "midi": 63,
                    "time": 91.875,
                    "velocity": 0.2755905511811024,
                    "duration": 0.625
                },
                {
                    "name": "F2",
                    "midi": 41,
                    "time": 91.875,
                    "velocity": 0.1968503937007874,
                    "duration": 0.3125
                },
                {
                    "name": "G3",
                    "midi": 55,
                    "time": 92.1875,
                    "velocity": 0.1968503937007874,
                    "duration": 0.3125
                },
                {
                    "name": "G#4",
                    "midi": 68,
                    "time": 92.5,
                    "velocity": 0.31496062992125984,
                    "duration": 1.25
                },
                {
                    "name": "A#5",
                    "midi": 82,
                    "time": 92.5,
                    "velocity": 0.31496062992125984,
                    "duration": 1.25
                },
                {
                    "name": "A#2",
                    "midi": 46,
                    "time": 92.5,
                    "velocity": 0.1968503937007874,
                    "duration": 0.3125
                },
                {
                    "name": "F3",
                    "midi": 53,
                    "time": 92.8125,
                    "velocity": 0.1968503937007874,
                    "duration": 0.3125
                },
                {
                    "name": "F2",
                    "midi": 41,
                    "time": 93.125,
                    "velocity": 0.1968503937007874,
                    "duration": 0.3125
                },
                {
                    "name": "G3",
                    "midi": 55,
                    "time": 93.4375,
                    "velocity": 0.1968503937007874,
                    "duration": 0.3125
                },
                {
                    "name": "C#4",
                    "midi": 61,
                    "time": 93.75,
                    "velocity": 0.31496062992125984,
                    "duration": 1.25
                },
                {
                    "name": "D#5",
                    "midi": 75,
                    "time": 93.75,
                    "velocity": 0.31496062992125984,
                    "duration": 1.25
                },
                {
                    "name": "A#2",
                    "midi": 46,
                    "time": 93.75,
                    "velocity": 0.1968503937007874,
                    "duration": 0.3125
                },
                {
                    "name": "A3",
                    "midi": 57,
                    "time": 94.0625,
                    "velocity": 0.1968503937007874,
                    "duration": 0.3125
                },
                {
                    "name": "F2",
                    "midi": 41,
                    "time": 94.375,
                    "velocity": 0.1968503937007874,
                    "duration": 0.3125
                },
                {
                    "name": "G3",
                    "midi": 55,
                    "time": 94.6875,
                    "velocity": 0.1968503937007874,
                    "duration": 0.3125
                },
                {
                    "name": "G#4",
                    "midi": 68,
                    "time": 95,
                    "velocity": 0.31496062992125984,
                    "duration": 1.25
                },
                {
                    "name": "A#5",
                    "midi": 82,
                    "time": 95,
                    "velocity": 0.31496062992125984,
                    "duration": 1.25
                },
                {
                    "name": "A#2",
                    "midi": 46,
                    "time": 95,
                    "velocity": 0.1968503937007874,
                    "duration": 0.3125
                },
                {
                    "name": "F3",
                    "midi": 53,
                    "time": 95.3125,
                    "velocity": 0.1968503937007874,
                    "duration": 0.3125
                },
                {
                    "name": "F2",
                    "midi": 41,
                    "time": 95.625,
                    "velocity": 0.1968503937007874,
                    "duration": 0.3125
                },
                {
                    "name": "G3",
                    "midi": 55,
                    "time": 95.9375,
                    "velocity": 0.1968503937007874,
                    "duration": 0.3125
                },
                {
                    "name": "C#4",
                    "midi": 61,
                    "time": 96.25,
                    "velocity": 0.31496062992125984,
                    "duration": 1.25
                },
                {
                    "name": "D#5",
                    "midi": 75,
                    "time": 96.25,
                    "velocity": 0.31496062992125984,
                    "duration": 1.25
                },
                {
                    "name": "A#2",
                    "midi": 46,
                    "time": 96.25,
                    "velocity": 0.1968503937007874,
                    "duration": 0.3125
                },
                {
                    "name": "A3",
                    "midi": 57,
                    "time": 96.5625,
                    "velocity": 0.1968503937007874,
                    "duration": 0.3125
                },
                {
                    "name": "F2",
                    "midi": 41,
                    "time": 96.875,
                    "velocity": 0.1968503937007874,
                    "duration": 0.3125
                },
                {
                    "name": "G3",
                    "midi": 55,
                    "time": 97.1875,
                    "velocity": 0.1968503937007874,
                    "duration": 0.3125
                },
                {
                    "name": "F5",
                    "midi": 77,
                    "time": 97.5,
                    "velocity": 0.3937007874015748,
                    "duration": 0.3125
                },
                {
                    "name": "F5",
                    "midi": 77,
                    "time": 97.5,
                    "velocity": 0.23622047244094488,
                    "duration": 0.625
                },
                {
                    "name": "A#2",
                    "midi": 46,
                    "time": 97.5,
                    "velocity": 0.31496062992125984,
                    "duration": 0.3125
                },
                {
                    "name": "D4",
                    "midi": 62,
                    "time": 97.8125,
                    "velocity": 0.23622047244094488,
                    "duration": 0.3125
                },
                {
                    "name": "F3",
                    "midi": 53,
                    "time": 97.8125,
                    "velocity": 0.30708661417322836,
                    "duration": 0.3125
                },
                {
                    "name": "F5",
                    "midi": 77,
                    "time": 98.125,
                    "velocity": 0.3858267716535433,
                    "duration": 0.3125
                },
                {
                    "name": "F5",
                    "midi": 77,
                    "time": 98.125,
                    "velocity": 0.2283464566929134,
                    "duration": 0.3125
                },
                {
                    "name": "F2",
                    "midi": 41,
                    "time": 98.125,
                    "velocity": 0.30708661417322836,
                    "duration": 0.3125
                },
                {
                    "name": "D#5",
                    "midi": 75,
                    "time": 98.4375,
                    "velocity": 0.3779527559055118,
                    "duration": 0.3125
                },
                {
                    "name": "D#4",
                    "midi": 63,
                    "time": 98.4375,
                    "velocity": 0.2283464566929134,
                    "duration": 0.3125
                },
                {
                    "name": "G3",
                    "midi": 55,
                    "time": 98.4375,
                    "velocity": 0.2992125984251969,
                    "duration": 0.3125
                },
                {
                    "name": "D5",
                    "midi": 74,
                    "time": 98.75,
                    "velocity": 0.3700787401574803,
                    "duration": 0.3125
                },
                {
                    "name": "D5",
                    "midi": 74,
                    "time": 98.75,
                    "velocity": 0.2204724409448819,
                    "duration": 0.625
                },
                {
                    "name": "A#2",
                    "midi": 46,
                    "time": 98.75,
                    "velocity": 0.29133858267716534,
                    "duration": 0.3125
                },
                {
                    "name": "F4",
                    "midi": 65,
                    "time": 99.0625,
                    "velocity": 0.2204724409448819,
                    "duration": 0.3125
                },
                {
                    "name": "A3",
                    "midi": 57,
                    "time": 99.0625,
                    "velocity": 0.29133858267716534,
                    "duration": 0.3125
                },
                {
                    "name": "C5",
                    "midi": 72,
                    "time": 99.375,
                    "velocity": 0.36220472440944884,
                    "duration": 0.3125
                },
                {
                    "name": "C5",
                    "midi": 72,
                    "time": 99.375,
                    "velocity": 0.2125984251968504,
                    "duration": 0.625
                },
                {
                    "name": "F2",
                    "midi": 41,
                    "time": 99.375,
                    "velocity": 0.28346456692913385,
                    "duration": 0.3125
                },
                {
                    "name": "D#4",
                    "midi": 63,
                    "time": 99.6875,
                    "velocity": 0.2125984251968504,
                    "duration": 0.3125
                },
                {
                    "name": "G3",
                    "midi": 55,
                    "time": 99.6875,
                    "velocity": 0.28346456692913385,
                    "duration": 0.3125
                },
                {
                    "name": "A#4",
                    "midi": 70,
                    "time": 100,
                    "velocity": 0.3543307086614173,
                    "duration": 0.3125
                },
                {
                    "name": "A#4",
                    "midi": 70,
                    "time": 100,
                    "velocity": 0.2047244094488189,
                    "duration": 0.625
                },
                {
                    "name": "A#2",
                    "midi": 46,
                    "time": 100,
                    "velocity": 0.2755905511811024,
                    "duration": 0.3125
                },
                {
                    "name": "D4",
                    "midi": 62,
                    "time": 100.3125,
                    "velocity": 0.2047244094488189,
                    "duration": 0.3125
                },
                {
                    "name": "F3",
                    "midi": 53,
                    "time": 100.3125,
                    "velocity": 0.2677165354330709,
                    "duration": 0.3125
                },
                {
                    "name": "G4",
                    "midi": 67,
                    "time": 100.625,
                    "velocity": 0.3464566929133858,
                    "duration": 0.3125
                },
                {
                    "name": "G4",
                    "midi": 67,
                    "time": 100.625,
                    "velocity": 0.1968503937007874,
                    "duration": 0.625
                },
                {
                    "name": "F2",
                    "midi": 41,
                    "time": 100.625,
                    "velocity": 0.2677165354330709,
                    "duration": 0.3125
                },
                {
                    "name": "D#4",
                    "midi": 63,
                    "time": 100.9375,
                    "velocity": 0.1968503937007874,
                    "duration": 0.3125
                },
                {
                    "name": "G3",
                    "midi": 55,
                    "time": 100.9375,
                    "velocity": 0.25984251968503935,
                    "duration": 0.3125
                },
                {
                    "name": "F4",
                    "midi": 65,
                    "time": 101.25,
                    "velocity": 0.33070866141732286,
                    "duration": 6.25
                },
                {
                    "name": "A#2",
                    "midi": 46,
                    "time": 101.25,
                    "velocity": 0.25196850393700787,
                    "duration": 0.3125
                },
                {
                    "name": "D4",
                    "midi": 62,
                    "time": 101.5625,
                    "velocity": 0.1889763779527559,
                    "duration": 0.625
                },
                {
                    "name": "A3",
                    "midi": 57,
                    "time": 101.5625,
                    "velocity": 0.25196850393700787,
                    "duration": 0.3125
                },
                {
                    "name": "F2",
                    "midi": 41,
                    "time": 101.875,
                    "velocity": 0.2440944881889764,
                    "duration": 0.3125
                },
                {
                    "name": "C4",
                    "midi": 60,
                    "time": 102.1875,
                    "velocity": 0.18110236220472442,
                    "duration": 0.3125
                },
                {
                    "name": "G3",
                    "midi": 55,
                    "time": 102.1875,
                    "velocity": 0.2440944881889764,
                    "duration": 0.3125
                },
                {
                    "name": "A#2",
                    "midi": 46,
                    "time": 102.5,
                    "velocity": 0.23622047244094488,
                    "duration": 0.3125
                },
                {
                    "name": "D4",
                    "midi": 62,
                    "time": 102.8125,
                    "velocity": 0.1732283464566929,
                    "duration": 0.625
                },
                {
                    "name": "F3",
                    "midi": 53,
                    "time": 102.8125,
                    "velocity": 0.2283464566929134,
                    "duration": 0.3125
                },
                {
                    "name": "F2",
                    "midi": 41,
                    "time": 103.125,
                    "velocity": 0.2283464566929134,
                    "duration": 0.3125
                },
                {
                    "name": "C4",
                    "midi": 60,
                    "time": 103.4375,
                    "velocity": 0.16535433070866143,
                    "duration": 0.625
                },
                {
                    "name": "G3",
                    "midi": 55,
                    "time": 103.4375,
                    "velocity": 0.2204724409448819,
                    "duration": 0.3125
                },
                {
                    "name": "A#2",
                    "midi": 46,
                    "time": 103.75,
                    "velocity": 0.2125984251968504,
                    "duration": 0.3125
                },
                {
                    "name": "D4",
                    "midi": 62,
                    "time": 104.0625,
                    "velocity": 0.15748031496062992,
                    "duration": 0.625
                },
                {
                    "name": "A3",
                    "midi": 57,
                    "time": 104.0625,
                    "velocity": 0.2125984251968504,
                    "duration": 0.3125
                },
                {
                    "name": "F2",
                    "midi": 41,
                    "time": 104.375,
                    "velocity": 0.2047244094488189,
                    "duration": 0.3125
                },
                {
                    "name": "C4",
                    "midi": 60,
                    "time": 104.6875,
                    "velocity": 0.14960629921259844,
                    "duration": 0.3125
                },
                {
                    "name": "G3",
                    "midi": 55,
                    "time": 104.6875,
                    "velocity": 0.2047244094488189,
                    "duration": 0.3125
                },
                {
                    "name": "A#2",
                    "midi": 46,
                    "time": 105,
                    "velocity": 0.1968503937007874,
                    "duration": 0.3125
                },
                {
                    "name": "D4",
                    "midi": 62,
                    "time": 105.3125,
                    "velocity": 0.14173228346456693,
                    "duration": 0.625
                },
                {
                    "name": "F3",
                    "midi": 53,
                    "time": 105.3125,
                    "velocity": 0.1889763779527559,
                    "duration": 0.3125
                },
                {
                    "name": "F2",
                    "midi": 41,
                    "time": 105.625,
                    "velocity": 0.1889763779527559,
                    "duration": 0.3125
                },
                {
                    "name": "C4",
                    "midi": 60,
                    "time": 105.9375,
                    "velocity": 0.13385826771653545,
                    "duration": 0.625
                },
                {
                    "name": "G3",
                    "midi": 55,
                    "time": 105.9375,
                    "velocity": 0.18110236220472442,
                    "duration": 0.3125
                },
                {
                    "name": "A#2",
                    "midi": 46,
                    "time": 106.25,
                    "velocity": 0.1732283464566929,
                    "duration": 0.3125
                },
                {
                    "name": "D4",
                    "midi": 62,
                    "time": 106.5625,
                    "velocity": 0.12598425196850394,
                    "duration": 0.625
                },
                {
                    "name": "A3",
                    "midi": 57,
                    "time": 106.5625,
                    "velocity": 0.1732283464566929,
                    "duration": 0.3125
                },
                {
                    "name": "F2",
                    "midi": 41,
                    "time": 106.875,
                    "velocity": 0.16535433070866143,
                    "duration": 0.3125
                },
                {
                    "name": "C4",
                    "midi": 60,
                    "time": 107.1875,
                    "velocity": 0.11811023622047244,
                    "duration": 0.3125
                },
                {
                    "name": "G3",
                    "midi": 55,
                    "time": 107.1875,
                    "velocity": 0.16535433070866143,
                    "duration": 0.3125
                },
                {
                    "name": "A#2",
                    "midi": 46,
                    "time": 107.8125,
                    "velocity": 0.15748031496062992,
                    "duration": 0.625
                },
                {
                    "name": "D4",
                    "midi": 62,
                    "time": 108.125,
                    "velocity": 0.14960629921259844,
                    "duration": 0.3125
                },
                {
                    "name": "A4",
                    "midi": 69,
                    "time": 108.4375,
                    "velocity": 0.14960629921259844,
                    "duration": 0.3125
                },
                {
                    "name": "F#3",
                    "midi": 54,
                    "time": 108.4375,
                    "velocity": 0.14960629921259844,
                    "duration": 0.625
                },
                {
                    "name": "C#5",
                    "midi": 73,
                    "time": 108.75,
                    "velocity": 0.14173228346456693,
                    "duration": 0.3125
                },
                {
                    "name": "A5",
                    "midi": 81,
                    "time": 109.0625,
                    "velocity": 0.13385826771653545,
                    "duration": 0.3125
                },
                {
                    "name": "F#4",
                    "midi": 66,
                    "time": 109.0625,
                    "velocity": 0.13385826771653545,
                    "duration": 0.625
                },
                {
                    "name": "C#6",
                    "midi": 85,
                    "time": 109.375,
                    "velocity": 0.13385826771653545,
                    "duration": 0.3125
                },
                {
                    "name": "C#5",
                    "midi": 73,
                    "time": 109.609375,
                    "velocity": 0.12598425196850394,
                    "duration": 0.078125
                },
                {
                    "name": "F#5",
                    "midi": 78,
                    "time": 109.609375,
                    "velocity": 0.12598425196850394,
                    "duration": 0.078125
                },
                {
                    "name": "F#6",
                    "midi": 90,
                    "time": 109.6875,
                    "velocity": 0.12598425196850394,
                    "duration": 0.625
                },
                {
                    "name": "A6",
                    "midi": 93,
                    "time": 109.6875,
                    "velocity": 0.12598425196850394,
                    "duration": 0.625
                },
                {
                    "name": "C5",
                    "midi": 72,
                    "time": 109.6875,
                    "velocity": 0.12598425196850394,
                    "duration": 0.625
                },
                {
                    "name": "F5",
                    "midi": 77,
                    "time": 109.6875,
                    "velocity": 0.12598425196850394,
                    "duration": 0.625
                },
                {
                    "name": "D4",
                    "midi": 62,
                    "time": 120.3125,
                    "velocity": 0.23622047244094488,
                    "duration": 0.3594970703125
                },
                {
                    "name": "D4",
                    "midi": 62,
                    "time": 120.3125,
                    "velocity": 0.23622047244094488,
                    "duration": 0.3594970703125
                },
                {
                    "name": "E4",
                    "midi": 64,
                    "time": 120.625,
                    "velocity": 0.30708661417322836,
                    "duration": 0.3125
                },
                {
                    "name": "C#4",
                    "midi": 61,
                    "time": 120.625,
                    "velocity": 0.30708661417322836,
                    "duration": 0.3125
                },
                {
                    "name": "F4",
                    "midi": 65,
                    "time": 120.9375,
                    "velocity": 0.3700787401574803,
                    "duration": 0.3125
                },
                {
                    "name": "C4",
                    "midi": 60,
                    "time": 120.9375,
                    "velocity": 0.3700787401574803,
                    "duration": 0.3125
                },
                {
                    "name": "G4",
                    "midi": 67,
                    "time": 121.25,
                    "velocity": 0.4409448818897638,
                    "duration": 0.3125
                },
                {
                    "name": "A#3",
                    "midi": 58,
                    "time": 121.25,
                    "velocity": 0.4409448818897638,
                    "duration": 0.3125
                },
                {
                    "name": "A4",
                    "midi": 69,
                    "time": 121.5625,
                    "velocity": 0.5039370078740157,
                    "duration": 0.3125
                },
                {
                    "name": "G3",
                    "midi": 55,
                    "time": 121.5625,
                    "velocity": 0.31496062992125984,
                    "duration": 0.3125
                },
                {
                    "name": "E4",
                    "midi": 64,
                    "time": 121.875,
                    "velocity": 0.3937007874015748,
                    "duration": 0.3125
                },
                {
                    "name": "A#3",
                    "midi": 58,
                    "time": 121.875,
                    "velocity": 0.3937007874015748,
                    "duration": 0.3125
                },
                {
                    "name": "D4",
                    "midi": 62,
                    "time": 122.1875,
                    "velocity": 0.15748031496062992,
                    "duration": 0.625
                },
                {
                    "name": "A3",
                    "midi": 57,
                    "time": 122.1875,
                    "velocity": 0.15748031496062992,
                    "duration": 0.3125
                },
                {
                    "name": "C4",
                    "midi": 60,
                    "time": 122.5,
                    "velocity": 0.31496062992125984,
                    "duration": 0.3125
                },
                {
                    "name": "D4",
                    "midi": 62,
                    "time": 122.8125,
                    "velocity": 0.23622047244094488,
                    "duration": 0.3594970703125
                },
                {
                    "name": "D4",
                    "midi": 62,
                    "time": 122.8125,
                    "velocity": 0.23622047244094488,
                    "duration": 0.3594970703125
                },
                {
                    "name": "E4",
                    "midi": 64,
                    "time": 123.125,
                    "velocity": 0.30708661417322836,
                    "duration": 0.3125
                },
                {
                    "name": "C#4",
                    "midi": 61,
                    "time": 123.125,
                    "velocity": 0.30708661417322836,
                    "duration": 0.3125
                },
                {
                    "name": "F4",
                    "midi": 65,
                    "time": 123.4375,
                    "velocity": 0.3700787401574803,
                    "duration": 0.3125
                },
                {
                    "name": "C4",
                    "midi": 60,
                    "time": 123.4375,
                    "velocity": 0.3700787401574803,
                    "duration": 0.3125
                },
                {
                    "name": "G4",
                    "midi": 67,
                    "time": 123.75,
                    "velocity": 0.4409448818897638,
                    "duration": 0.3125
                },
                {
                    "name": "A#3",
                    "midi": 58,
                    "time": 123.75,
                    "velocity": 0.4409448818897638,
                    "duration": 0.3125
                },
                {
                    "name": "A4",
                    "midi": 69,
                    "time": 124.0625,
                    "velocity": 0.5039370078740157,
                    "duration": 0.15625
                },
                {
                    "name": "G3",
                    "midi": 55,
                    "time": 124.0625,
                    "velocity": 0.31496062992125984,
                    "duration": 0.3125
                },
                {
                    "name": "E4",
                    "midi": 64,
                    "time": 124.21875,
                    "velocity": 0.5039370078740157,
                    "duration": 0.15625
                },
                {
                    "name": "A4",
                    "midi": 69,
                    "time": 124.375,
                    "velocity": 0.3937007874015748,
                    "duration": 0.15625
                },
                {
                    "name": "A#3",
                    "midi": 58,
                    "time": 124.375,
                    "velocity": 0.3937007874015748,
                    "duration": 0.3125
                },
                {
                    "name": "E4",
                    "midi": 64,
                    "time": 124.53125,
                    "velocity": 0.5039370078740157,
                    "duration": 0.15625
                },
                {
                    "name": "D4",
                    "midi": 62,
                    "time": 124.6875,
                    "velocity": 0.15748031496062992,
                    "duration": 0.625
                },
                {
                    "name": "A3",
                    "midi": 57,
                    "time": 124.6875,
                    "velocity": 0.15748031496062992,
                    "duration": 0.3125
                },
                {
                    "name": "C4",
                    "midi": 60,
                    "time": 125,
                    "velocity": 0.31496062992125984,
                    "duration": 0.3125
                },
                {
                    "name": "D4",
                    "midi": 62,
                    "time": 125.3125,
                    "velocity": 0.31496062992125984,
                    "duration": 0.3125
                },
                {
                    "name": "D4",
                    "midi": 62,
                    "time": 125.3125,
                    "velocity": 0.23622047244094488,
                    "duration": 0.3125
                },
                {
                    "name": "E4",
                    "midi": 64,
                    "time": 125.625,
                    "velocity": 0.3858267716535433,
                    "duration": 0.3125
                },
                {
                    "name": "C#4",
                    "midi": 61,
                    "time": 125.625,
                    "velocity": 0.30708661417322836,
                    "duration": 0.3125
                },
                {
                    "name": "F4",
                    "midi": 65,
                    "time": 125.9375,
                    "velocity": 0.44881889763779526,
                    "duration": 0.3125
                },
                {
                    "name": "C4",
                    "midi": 60,
                    "time": 125.9375,
                    "velocity": 0.3700787401574803,
                    "duration": 0.3125
                },
                {
                    "name": "A#4",
                    "midi": 70,
                    "time": 126.25,
                    "velocity": 0.5196850393700787,
                    "duration": 0.3125
                },
                {
                    "name": "A#3",
                    "midi": 58,
                    "time": 126.25,
                    "velocity": 0.4409448818897638,
                    "duration": 0.3125
                },
                {
                    "name": "E5",
                    "midi": 76,
                    "time": 126.5625,
                    "velocity": 0.5826771653543307,
                    "duration": 0.3125
                },
                {
                    "name": "G3",
                    "midi": 55,
                    "time": 126.5625,
                    "velocity": 0.31496062992125984,
                    "duration": 0.3125
                },
                {
                    "name": "A4",
                    "midi": 69,
                    "time": 126.875,
                    "velocity": 0.47244094488188976,
                    "duration": 0.3125
                },
                {
                    "name": "E4",
                    "midi": 64,
                    "time": 126.875,
                    "velocity": 0.3937007874015748,
                    "duration": 0.3125
                },
                {
                    "name": "F4",
                    "midi": 65,
                    "time": 127.1875,
                    "velocity": 0.23622047244094488,
                    "duration": 0.625
                },
                {
                    "name": "A3",
                    "midi": 57,
                    "time": 127.1875,
                    "velocity": 0.15748031496062992,
                    "duration": 0.625
                },
                {
                    "name": "A#3",
                    "midi": 58,
                    "time": 127.5,
                    "velocity": 0.15748031496062992,
                    "duration": 0.3125
                },
                {
                    "name": "D4",
                    "midi": 62,
                    "time": 127.8125,
                    "velocity": 0.23622047244094488,
                    "duration": 0.3125
                },
                {
                    "name": "D4",
                    "midi": 62,
                    "time": 127.8125,
                    "velocity": 0.23622047244094488,
                    "duration": 0.3125
                },
                {
                    "name": "E4",
                    "midi": 64,
                    "time": 128.125,
                    "velocity": 0.30708661417322836,
                    "duration": 0.3125
                },
                {
                    "name": "C#4",
                    "midi": 61,
                    "time": 128.125,
                    "velocity": 0.30708661417322836,
                    "duration": 0.3125
                },
                {
                    "name": "F4",
                    "midi": 65,
                    "time": 128.4375,
                    "velocity": 0.3700787401574803,
                    "duration": 0.3125
                },
                {
                    "name": "C4",
                    "midi": 60,
                    "time": 128.4375,
                    "velocity": 0.3700787401574803,
                    "duration": 0.3125
                },
                {
                    "name": "A#4",
                    "midi": 70,
                    "time": 128.75,
                    "velocity": 0.4409448818897638,
                    "duration": 0.3125
                },
                {
                    "name": "A#3",
                    "midi": 58,
                    "time": 128.75,
                    "velocity": 0.4409448818897638,
                    "duration": 0.3125
                },
                {
                    "name": "E5",
                    "midi": 76,
                    "time": 129.0625,
                    "velocity": 0.5039370078740157,
                    "duration": 0.15625
                },
                {
                    "name": "G3",
                    "midi": 55,
                    "time": 129.0625,
                    "velocity": 0.31496062992125984,
                    "duration": 0.3125
                },
                {
                    "name": "A4",
                    "midi": 69,
                    "time": 129.21875,
                    "velocity": 0.3937007874015748,
                    "duration": 0.15625
                },
                {
                    "name": "E5",
                    "midi": 76,
                    "time": 129.375,
                    "velocity": 0.3464566929133858,
                    "duration": 0.15625
                },
                {
                    "name": "E4",
                    "midi": 64,
                    "time": 129.375,
                    "velocity": 0.3937007874015748,
                    "duration": 0.3125
                },
                {
                    "name": "A4",
                    "midi": 69,
                    "time": 129.53125,
                    "velocity": 0.2992125984251969,
                    "duration": 0.15625
                },
                {
                    "name": "F4",
                    "midi": 65,
                    "time": 129.6875,
                    "velocity": 0.25196850393700787,
                    "duration": 0.625
                },
                {
                    "name": "A3",
                    "midi": 57,
                    "time": 129.6875,
                    "velocity": 0.15748031496062992,
                    "duration": 0.625
                },
                {
                    "name": "A#3",
                    "midi": 58,
                    "time": 130,
                    "velocity": 0.15748031496062992,
                    "duration": 0.3125
                },
                {
                    "name": "D4",
                    "midi": 62,
                    "time": 130.234375,
                    "velocity": 0.07874015748031496,
                    "duration": 0.078125
                },
                {
                    "name": "E4",
                    "midi": 64,
                    "time": 130.3125,
                    "velocity": 0.07874015748031496,
                    "duration": 0.625
                },
                {
                    "name": "D4",
                    "midi": 62,
                    "time": 130.3125,
                    "velocity": 0.15748031496062992,
                    "duration": 0.3125
                },
                {
                    "name": "C#4",
                    "midi": 61,
                    "time": 130.625,
                    "velocity": 0.15748031496062992,
                    "duration": 0.3125
                },
                {
                    "name": "D4",
                    "midi": 62,
                    "time": 130.859375,
                    "velocity": 0.2204724409448819,
                    "duration": 0.078125
                },
                {
                    "name": "E4",
                    "midi": 64,
                    "time": 130.9375,
                    "velocity": 0.2204724409448819,
                    "duration": 0.625
                },
                {
                    "name": "C4",
                    "midi": 60,
                    "time": 130.9375,
                    "velocity": 0.15748031496062992,
                    "duration": 0.3125
                },
                {
                    "name": "A#3",
                    "midi": 58,
                    "time": 131.25,
                    "velocity": 0.15748031496062992,
                    "duration": 0.3125
                },
                {
                    "name": "D4",
                    "midi": 62,
                    "time": 131.484375,
                    "velocity": 0.3543307086614173,
                    "duration": 0.078125
                },
                {
                    "name": "E4",
                    "midi": 64,
                    "time": 131.5625,
                    "velocity": 0.3543307086614173,
                    "duration": 0.3125
                },
                {
                    "name": "G3",
                    "midi": 55,
                    "time": 131.5625,
                    "velocity": 0.15748031496062992,
                    "duration": 0.3125
                },
                {
                    "name": "A4",
                    "midi": 69,
                    "time": 131.875,
                    "velocity": 0.4251968503937008,
                    "duration": 0.3125
                },
                {
                    "name": "E4",
                    "midi": 64,
                    "time": 131.875,
                    "velocity": 0.15748031496062992,
                    "duration": 0.3125
                },
                {
                    "name": "F4",
                    "midi": 65,
                    "time": 132.1875,
                    "velocity": 0.31496062992125984,
                    "duration": 0.625
                },
                {
                    "name": "A3",
                    "midi": 57,
                    "time": 132.1875,
                    "velocity": 0.15748031496062992,
                    "duration": 0.625
                },
                {
                    "name": "A#3",
                    "midi": 58,
                    "time": 132.5,
                    "velocity": 0.07874015748031496,
                    "duration": 0.3125
                },
                {
                    "name": "E4",
                    "midi": 64,
                    "time": 132.8125,
                    "velocity": 0.15748031496062992,
                    "duration": 0.15625
                },
                {
                    "name": "D4",
                    "midi": 62,
                    "time": 132.8125,
                    "velocity": 0.15748031496062992,
                    "duration": 0.3125
                },
                {
                    "name": "D4",
                    "midi": 62,
                    "time": 132.96875,
                    "velocity": 0.15748031496062992,
                    "duration": 0.15625
                },
                {
                    "name": "E4",
                    "midi": 64,
                    "time": 133.125,
                    "velocity": 0.15748031496062992,
                    "duration": 0.15625
                },
                {
                    "name": "C#4",
                    "midi": 61,
                    "time": 133.125,
                    "velocity": 0.15748031496062992,
                    "duration": 0.3125
                },
                {
                    "name": "D4",
                    "midi": 62,
                    "time": 133.28125,
                    "velocity": 0.15748031496062992,
                    "duration": 0.15625
                },
                {
                    "name": "E4",
                    "midi": 64,
                    "time": 133.4375,
                    "velocity": 0.15748031496062992,
                    "duration": 0.3125
                },
                {
                    "name": "C4",
                    "midi": 60,
                    "time": 133.4375,
                    "velocity": 0.15748031496062992,
                    "duration": 0.3125
                },
                {
                    "name": "D4",
                    "midi": 62,
                    "time": 133.75,
                    "velocity": 0.15748031496062992,
                    "duration": 0.3125
                },
                {
                    "name": "A#3",
                    "midi": 58,
                    "time": 133.75,
                    "velocity": 0.15748031496062992,
                    "duration": 0.3125
                },
                {
                    "name": "E4",
                    "midi": 64,
                    "time": 134.0625,
                    "velocity": 0.15748031496062992,
                    "duration": 0.3125
                },
                {
                    "name": "G3",
                    "midi": 55,
                    "time": 134.0625,
                    "velocity": 0.15748031496062992,
                    "duration": 0.3125
                },
                {
                    "name": "A4",
                    "midi": 69,
                    "time": 134.375,
                    "velocity": 0.15748031496062992,
                    "duration": 0.3125
                },
                {
                    "name": "E4",
                    "midi": 64,
                    "time": 134.375,
                    "velocity": 0.15748031496062992,
                    "duration": 0.3125
                },
                {
                    "name": "F4",
                    "midi": 65,
                    "time": 134.6875,
                    "velocity": 0.15748031496062992,
                    "duration": 0.625
                },
                {
                    "name": "A3",
                    "midi": 57,
                    "time": 134.6875,
                    "velocity": 0.15748031496062992,
                    "duration": 0.625
                },
                {
                    "name": "A#3",
                    "midi": 58,
                    "time": 135,
                    "velocity": 0.15748031496062992,
                    "duration": 0.3125
                },
                {
                    "name": "D4",
                    "midi": 62,
                    "time": 135.234375,
                    "velocity": 0.2755905511811024,
                    "duration": 0.078125
                },
                {
                    "name": "E4",
                    "midi": 64,
                    "time": 135.3125,
                    "velocity": 0.2755905511811024,
                    "duration": 0.625
                },
                {
                    "name": "A#3",
                    "midi": 58,
                    "time": 135.3125,
                    "velocity": 0.3543307086614173,
                    "duration": 0.3125
                },
                {
                    "name": "D3",
                    "midi": 50,
                    "time": 135.625,
                    "velocity": 0.3543307086614173,
                    "duration": 0.3125
                },
                {
                    "name": "D4",
                    "midi": 62,
                    "time": 135.859375,
                    "velocity": 0.41732283464566927,
                    "duration": 0.078125
                },
                {
                    "name": "E4",
                    "midi": 64,
                    "time": 135.9375,
                    "velocity": 0.41732283464566927,
                    "duration": 0.625
                },
                {
                    "name": "E3",
                    "midi": 52,
                    "time": 135.9375,
                    "velocity": 0.3543307086614173,
                    "duration": 0.3125
                },
                {
                    "name": "G2",
                    "midi": 43,
                    "time": 136.25,
                    "velocity": 0.3543307086614173,
                    "duration": 0.3125
                },
                {
                    "name": "D4",
                    "midi": 62,
                    "time": 136.484375,
                    "velocity": 0.5511811023622047,
                    "duration": 0.078125
                },
                {
                    "name": "E4",
                    "midi": 64,
                    "time": 136.5625,
                    "velocity": 0.5511811023622047,
                    "duration": 0.3125
                },
                {
                    "name": "D3",
                    "midi": 50,
                    "time": 136.5625,
                    "velocity": 0.3543307086614173,
                    "duration": 0.3125
                },
                {
                    "name": "A4",
                    "midi": 69,
                    "time": 136.875,
                    "velocity": 0.6220472440944882,
                    "duration": 0.3125
                },
                {
                    "name": "C2",
                    "midi": 36,
                    "time": 136.875,
                    "velocity": 0.3543307086614173,
                    "duration": 0.3125
                },
                {
                    "name": "F4",
                    "midi": 65,
                    "time": 137.1875,
                    "velocity": 0.5118110236220472,
                    "duration": 0.625
                },
                {
                    "name": "D2",
                    "midi": 38,
                    "time": 137.1875,
                    "velocity": 0.3543307086614173,
                    "duration": 0.625
                },
                {
                    "name": "F3",
                    "midi": 53,
                    "time": 137.5,
                    "velocity": 0.2755905511811024,
                    "duration": 0.3125
                },
                {
                    "name": "A#3",
                    "midi": 58,
                    "time": 137.5,
                    "velocity": 0.2755905511811024,
                    "duration": 0.3125
                },
                {
                    "name": "E4",
                    "midi": 64,
                    "time": 137.8125,
                    "velocity": 0.3543307086614173,
                    "duration": 0.15625
                },
                {
                    "name": "A#3",
                    "midi": 58,
                    "time": 137.8125,
                    "velocity": 0.3543307086614173,
                    "duration": 0.3125
                },
                {
                    "name": "D4",
                    "midi": 62,
                    "time": 137.96875,
                    "velocity": 0.3543307086614173,
                    "duration": 0.15625
                },
                {
                    "name": "E4",
                    "midi": 64,
                    "time": 138.125,
                    "velocity": 0.3543307086614173,
                    "duration": 0.15625
                },
                {
                    "name": "D3",
                    "midi": 50,
                    "time": 138.125,
                    "velocity": 0.3543307086614173,
                    "duration": 0.3125
                },
                {
                    "name": "D4",
                    "midi": 62,
                    "time": 138.28125,
                    "velocity": 0.3543307086614173,
                    "duration": 0.15625
                },
                {
                    "name": "E4",
                    "midi": 64,
                    "time": 138.4375,
                    "velocity": 0.3543307086614173,
                    "duration": 0.3125
                },
                {
                    "name": "E3",
                    "midi": 52,
                    "time": 138.4375,
                    "velocity": 0.3543307086614173,
                    "duration": 0.3125
                },
                {
                    "name": "D4",
                    "midi": 62,
                    "time": 138.75,
                    "velocity": 0.3543307086614173,
                    "duration": 0.3125
                },
                {
                    "name": "G2",
                    "midi": 43,
                    "time": 138.75,
                    "velocity": 0.3543307086614173,
                    "duration": 0.3125
                },
                {
                    "name": "E4",
                    "midi": 64,
                    "time": 139.0625,
                    "velocity": 0.3543307086614173,
                    "duration": 0.3125
                },
                {
                    "name": "D3",
                    "midi": 50,
                    "time": 139.0625,
                    "velocity": 0.3543307086614173,
                    "duration": 0.3125
                },
                {
                    "name": "A4",
                    "midi": 69,
                    "time": 139.375,
                    "velocity": 0.3543307086614173,
                    "duration": 0.3125
                },
                {
                    "name": "C2",
                    "midi": 36,
                    "time": 139.375,
                    "velocity": 0.3543307086614173,
                    "duration": 0.3125
                },
                {
                    "name": "F4",
                    "midi": 65,
                    "time": 139.6875,
                    "velocity": 0.3543307086614173,
                    "duration": 0.625
                },
                {
                    "name": "D2",
                    "midi": 38,
                    "time": 139.6875,
                    "velocity": 0.3543307086614173,
                    "duration": 0.625
                },
                {
                    "name": "F3",
                    "midi": 53,
                    "time": 140,
                    "velocity": 0.3543307086614173,
                    "duration": 0.3125
                },
                {
                    "name": "A#3",
                    "midi": 58,
                    "time": 140,
                    "velocity": 0.3543307086614173,
                    "duration": 0.3125
                },
                {
                    "name": "D5",
                    "midi": 74,
                    "time": 140.234375,
                    "velocity": 0.23622047244094488,
                    "duration": 0.078125
                },
                {
                    "name": "E5",
                    "midi": 76,
                    "time": 140.3125,
                    "velocity": 0.23622047244094488,
                    "duration": 0.625
                },
                {
                    "name": "A#3",
                    "midi": 58,
                    "time": 140.3125,
                    "velocity": 0.2755905511811024,
                    "duration": 0.3125
                },
                {
                    "name": "D3",
                    "midi": 50,
                    "time": 140.625,
                    "velocity": 0.2755905511811024,
                    "duration": 0.3125
                },
                {
                    "name": "D5",
                    "midi": 74,
                    "time": 140.859375,
                    "velocity": 0.23622047244094488,
                    "duration": 0.078125
                },
                {
                    "name": "E5",
                    "midi": 76,
                    "time": 140.9375,
                    "velocity": 0.23622047244094488,
                    "duration": 0.625
                },
                {
                    "name": "E3",
                    "midi": 52,
                    "time": 140.9375,
                    "velocity": 0.2755905511811024,
                    "duration": 0.3125
                },
                {
                    "name": "G2",
                    "midi": 43,
                    "time": 141.25,
                    "velocity": 0.2755905511811024,
                    "duration": 0.3125
                },
                {
                    "name": "D5",
                    "midi": 74,
                    "time": 141.5625,
                    "velocity": 0.23622047244094488,
                    "duration": 0.3125
                },
                {
                    "name": "E5",
                    "midi": 76,
                    "time": 141.5625,
                    "velocity": 0.23622047244094488,
                    "duration": 0.3125
                },
                {
                    "name": "D3",
                    "midi": 50,
                    "time": 141.5625,
                    "velocity": 0.2755905511811024,
                    "duration": 0.3125
                },
                {
                    "name": "D6",
                    "midi": 86,
                    "time": 141.875,
                    "velocity": 0.23622047244094488,
                    "duration": 0.3125
                },
                {
                    "name": "E6",
                    "midi": 88,
                    "time": 141.875,
                    "velocity": 0.23622047244094488,
                    "duration": 0.3125
                },
                {
                    "name": "C2",
                    "midi": 36,
                    "time": 141.875,
                    "velocity": 0.2755905511811024,
                    "duration": 0.3125
                },
                {
                    "name": "D5",
                    "midi": 74,
                    "time": 142.1875,
                    "velocity": 0.23622047244094488,
                    "duration": 0.625
                },
                {
                    "name": "E5",
                    "midi": 76,
                    "time": 142.1875,
                    "velocity": 0.23622047244094488,
                    "duration": 0.625
                },
                {
                    "name": "D2",
                    "midi": 38,
                    "time": 142.1875,
                    "velocity": 0.2755905511811024,
                    "duration": 0.625
                },
                {
                    "name": "F4",
                    "midi": 65,
                    "time": 142.5,
                    "velocity": 0.23622047244094488,
                    "duration": 0.3125
                },
                {
                    "name": "A#4",
                    "midi": 70,
                    "time": 142.5,
                    "velocity": 0.23622047244094488,
                    "duration": 0.3125
                },
                {
                    "name": "D5",
                    "midi": 74,
                    "time": 142.8125,
                    "velocity": 0.23622047244094488,
                    "duration": 0.3125
                },
                {
                    "name": "E5",
                    "midi": 76,
                    "time": 142.8125,
                    "velocity": 0.23622047244094488,
                    "duration": 0.3125
                },
                {
                    "name": "A#3",
                    "midi": 58,
                    "time": 142.8125,
                    "velocity": 0.2755905511811024,
                    "duration": 0.3125
                },
                {
                    "name": "D6",
                    "midi": 86,
                    "time": 143.125,
                    "velocity": 0.23622047244094488,
                    "duration": 0.3125
                },
                {
                    "name": "E6",
                    "midi": 88,
                    "time": 143.125,
                    "velocity": 0.23622047244094488,
                    "duration": 0.3125
                },
                {
                    "name": "D3",
                    "midi": 50,
                    "time": 143.125,
                    "velocity": 0.2755905511811024,
                    "duration": 0.3125
                },
                {
                    "name": "D5",
                    "midi": 74,
                    "time": 143.4375,
                    "velocity": 0.23622047244094488,
                    "duration": 0.3125
                },
                {
                    "name": "E5",
                    "midi": 76,
                    "time": 143.4375,
                    "velocity": 0.23622047244094488,
                    "duration": 0.3125
                },
                {
                    "name": "E3",
                    "midi": 52,
                    "time": 143.4375,
                    "velocity": 0.2755905511811024,
                    "duration": 0.3125
                },
                {
                    "name": "D6",
                    "midi": 86,
                    "time": 143.75,
                    "velocity": 0.23622047244094488,
                    "duration": 0.3125
                },
                {
                    "name": "E6",
                    "midi": 88,
                    "time": 143.75,
                    "velocity": 0.23622047244094488,
                    "duration": 0.3125
                },
                {
                    "name": "G2",
                    "midi": 43,
                    "time": 143.75,
                    "velocity": 0.2755905511811024,
                    "duration": 0.3125
                },
                {
                    "name": "D5",
                    "midi": 74,
                    "time": 144.0625,
                    "velocity": 0.23622047244094488,
                    "duration": 0.3125
                },
                {
                    "name": "E5",
                    "midi": 76,
                    "time": 144.0625,
                    "velocity": 0.23622047244094488,
                    "duration": 0.3125
                },
                {
                    "name": "D3",
                    "midi": 50,
                    "time": 144.0625,
                    "velocity": 0.2755905511811024,
                    "duration": 0.3125
                },
                {
                    "name": "D6",
                    "midi": 86,
                    "time": 144.375,
                    "velocity": 0.23622047244094488,
                    "duration": 0.3125
                },
                {
                    "name": "E6",
                    "midi": 88,
                    "time": 144.375,
                    "velocity": 0.23622047244094488,
                    "duration": 0.3125
                },
                {
                    "name": "C2",
                    "midi": 36,
                    "time": 144.375,
                    "velocity": 0.2755905511811024,
                    "duration": 0.3125
                },
                {
                    "name": "D5",
                    "midi": 74,
                    "time": 144.6875,
                    "velocity": 0.23622047244094488,
                    "duration": 0.625
                },
                {
                    "name": "E5",
                    "midi": 76,
                    "time": 144.6875,
                    "velocity": 0.23622047244094488,
                    "duration": 0.625
                },
                {
                    "name": "D2",
                    "midi": 38,
                    "time": 144.6875,
                    "velocity": 0.2755905511811024,
                    "duration": 0.625
                },
                {
                    "name": "F4",
                    "midi": 65,
                    "time": 145,
                    "velocity": 0.23622047244094488,
                    "duration": 0.3125
                },
                {
                    "name": "A#4",
                    "midi": 70,
                    "time": 145,
                    "velocity": 0.23622047244094488,
                    "duration": 0.3125
                },
                {
                    "name": "E4",
                    "midi": 64,
                    "time": 145.234375,
                    "velocity": 0.15748031496062992,
                    "duration": 0.703125
                },
                {
                    "name": "E5",
                    "midi": 76,
                    "time": 145.3125,
                    "velocity": 0.15748031496062992,
                    "duration": 0.625
                },
                {
                    "name": "G3",
                    "midi": 55,
                    "time": 145.3125,
                    "velocity": 0.15748031496062992,
                    "duration": 0.3125
                },
                {
                    "name": "A#3",
                    "midi": 58,
                    "time": 145.625,
                    "velocity": 0.15748031496062992,
                    "duration": 0.3125
                },
                {
                    "name": "A4",
                    "midi": 69,
                    "time": 145.859375,
                    "velocity": 0.15748031496062992,
                    "duration": 0.703125
                },
                {
                    "name": "A5",
                    "midi": 81,
                    "time": 145.9375,
                    "velocity": 0.15748031496062992,
                    "duration": 0.625
                },
                {
                    "name": "A3",
                    "midi": 57,
                    "time": 145.9375,
                    "velocity": 0.15748031496062992,
                    "duration": 0.3125
                },
                {
                    "name": "C4",
                    "midi": 60,
                    "time": 146.25,
                    "velocity": 0.15748031496062992,
                    "duration": 0.3125
                },
                {
                    "name": "E5",
                    "midi": 76,
                    "time": 146.484375,
                    "velocity": 0.15748031496062992,
                    "duration": 0.703125
                },
                {
                    "name": "E6",
                    "midi": 88,
                    "time": 146.5625,
                    "velocity": 0.15748031496062992,
                    "duration": 0.625
                },
                {
                    "name": "A#3",
                    "midi": 58,
                    "time": 146.5625,
                    "velocity": 0.15748031496062992,
                    "duration": 0.3125
                },
                {
                    "name": "D4",
                    "midi": 62,
                    "time": 146.875,
                    "velocity": 0.15748031496062992,
                    "duration": 0.3125
                },
                {
                    "name": "A5",
                    "midi": 81,
                    "time": 147.109375,
                    "velocity": 0.15748031496062992,
                    "duration": 0.703125
                },
                {
                    "name": "A6",
                    "midi": 93,
                    "time": 147.1875,
                    "velocity": 0.15748031496062992,
                    "duration": 0.625
                },
                {
                    "name": "C4",
                    "midi": 60,
                    "time": 147.1875,
                    "velocity": 0.15748031496062992,
                    "duration": 0.3125
                },
                {
                    "name": "E4",
                    "midi": 64,
                    "time": 147.5,
                    "velocity": 0.15748031496062992,
                    "duration": 0.3125
                },
                {
                    "name": "E5",
                    "midi": 76,
                    "time": 147.734375,
                    "velocity": 0.15748031496062992,
                    "duration": 0.703125
                },
                {
                    "name": "E6",
                    "midi": 88,
                    "time": 147.8125,
                    "velocity": 0.15748031496062992,
                    "duration": 0.625
                },
                {
                    "name": "A#3",
                    "midi": 58,
                    "time": 147.8125,
                    "velocity": 0.15748031496062992,
                    "duration": 0.3125
                },
                {
                    "name": "D4",
                    "midi": 62,
                    "time": 148.125,
                    "velocity": 0.15748031496062992,
                    "duration": 0.3125
                },
                {
                    "name": "A4",
                    "midi": 69,
                    "time": 148.359375,
                    "velocity": 0.15748031496062992,
                    "duration": 0.703125
                },
                {
                    "name": "A5",
                    "midi": 81,
                    "time": 148.4375,
                    "velocity": 0.15748031496062992,
                    "duration": 0.625
                },
                {
                    "name": "A3",
                    "midi": 57,
                    "time": 148.4375,
                    "velocity": 0.15748031496062992,
                    "duration": 0.3125
                },
                {
                    "name": "C4",
                    "midi": 60,
                    "time": 148.75,
                    "velocity": 0.15748031496062992,
                    "duration": 0.3125
                },
                {
                    "name": "E4",
                    "midi": 64,
                    "time": 148.984375,
                    "velocity": 0.15748031496062992,
                    "duration": 0.703125
                },
                {
                    "name": "E5",
                    "midi": 76,
                    "time": 149.0625,
                    "velocity": 0.15748031496062992,
                    "duration": 0.625
                },
                {
                    "name": "G3",
                    "midi": 55,
                    "time": 149.0625,
                    "velocity": 0.15748031496062992,
                    "duration": 0.3125
                },
                {
                    "name": "A#3",
                    "midi": 58,
                    "time": 149.375,
                    "velocity": 0.15748031496062992,
                    "duration": 0.3125
                },
                {
                    "name": "A4",
                    "midi": 69,
                    "time": 149.609375,
                    "velocity": 0.15748031496062992,
                    "duration": 0.703125
                },
                {
                    "name": "A5",
                    "midi": 81,
                    "time": 149.6875,
                    "velocity": 0.15748031496062992,
                    "duration": 0.625
                },
                {
                    "name": "A3",
                    "midi": 57,
                    "time": 149.6875,
                    "velocity": 0.15748031496062992,
                    "duration": 0.3125
                },
                {
                    "name": "C4",
                    "midi": 60,
                    "time": 150,
                    "velocity": 0.15748031496062992,
                    "duration": 0.3125
                },
                {
                    "name": "E5",
                    "midi": 76,
                    "time": 150.234375,
                    "velocity": 0.15748031496062992,
                    "duration": 0.703125
                },
                {
                    "name": "E6",
                    "midi": 88,
                    "time": 150.3125,
                    "velocity": 0.15748031496062992,
                    "duration": 0.625
                },
                {
                    "name": "A#3",
                    "midi": 58,
                    "time": 150.3125,
                    "velocity": 0.15748031496062992,
                    "duration": 0.3125
                },
                {
                    "name": "D4",
                    "midi": 62,
                    "time": 150.625,
                    "velocity": 0.15748031496062992,
                    "duration": 0.3125
                },
                {
                    "name": "A5",
                    "midi": 81,
                    "time": 150.859375,
                    "velocity": 0.15748031496062992,
                    "duration": 0.703125
                },
                {
                    "name": "A6",
                    "midi": 93,
                    "time": 150.9375,
                    "velocity": 0.15748031496062992,
                    "duration": 0.625
                },
                {
                    "name": "C4",
                    "midi": 60,
                    "time": 150.9375,
                    "velocity": 0.15748031496062992,
                    "duration": 0.3125
                },
                {
                    "name": "E4",
                    "midi": 64,
                    "time": 151.25,
                    "velocity": 0.15748031496062992,
                    "duration": 0.3125
                },
                {
                    "name": "E5",
                    "midi": 76,
                    "time": 151.484375,
                    "velocity": 0.15748031496062992,
                    "duration": 0.703125
                },
                {
                    "name": "E6",
                    "midi": 88,
                    "time": 151.5625,
                    "velocity": 0.15748031496062992,
                    "duration": 0.625
                },
                {
                    "name": "A#3",
                    "midi": 58,
                    "time": 151.5625,
                    "velocity": 0.15748031496062992,
                    "duration": 0.3125
                },
                {
                    "name": "D4",
                    "midi": 62,
                    "time": 151.875,
                    "velocity": 0.15748031496062992,
                    "duration": 0.3125
                },
                {
                    "name": "A4",
                    "midi": 69,
                    "time": 152.109375,
                    "velocity": 0.15748031496062992,
                    "duration": 0.703125
                },
                {
                    "name": "A5",
                    "midi": 81,
                    "time": 152.1875,
                    "velocity": 0.15748031496062992,
                    "duration": 0.625
                },
                {
                    "name": "A3",
                    "midi": 57,
                    "time": 152.1875,
                    "velocity": 0.15748031496062992,
                    "duration": 0.3125
                },
                {
                    "name": "C4",
                    "midi": 60,
                    "time": 152.5,
                    "velocity": 0.15748031496062992,
                    "duration": 0.3125
                },
                {
                    "name": "D4",
                    "midi": 62,
                    "time": 152.8125,
                    "velocity": 0.23622047244094488,
                    "duration": 0.3594970703125
                },
                {
                    "name": "D4",
                    "midi": 62,
                    "time": 152.8125,
                    "velocity": 0.23622047244094488,
                    "duration": 0.3594970703125
                },
                {
                    "name": "E4",
                    "midi": 64,
                    "time": 153.125,
                    "velocity": 0.30708661417322836,
                    "duration": 0.3125
                },
                {
                    "name": "C#4",
                    "midi": 61,
                    "time": 153.125,
                    "velocity": 0.30708661417322836,
                    "duration": 0.3125
                },
                {
                    "name": "F4",
                    "midi": 65,
                    "time": 153.4375,
                    "velocity": 0.3700787401574803,
                    "duration": 0.3125
                },
                {
                    "name": "C4",
                    "midi": 60,
                    "time": 153.4375,
                    "velocity": 0.3700787401574803,
                    "duration": 0.3125
                },
                {
                    "name": "G4",
                    "midi": 67,
                    "time": 153.75,
                    "velocity": 0.4409448818897638,
                    "duration": 0.3125
                },
                {
                    "name": "A#3",
                    "midi": 58,
                    "time": 153.75,
                    "velocity": 0.4409448818897638,
                    "duration": 0.3125
                },
                {
                    "name": "A4",
                    "midi": 69,
                    "time": 154.0625,
                    "velocity": 0.5039370078740157,
                    "duration": 0.3125
                },
                {
                    "name": "G3",
                    "midi": 55,
                    "time": 154.0625,
                    "velocity": 0.31496062992125984,
                    "duration": 0.3125
                },
                {
                    "name": "E4",
                    "midi": 64,
                    "time": 154.375,
                    "velocity": 0.3937007874015748,
                    "duration": 0.3125
                },
                {
                    "name": "A#3",
                    "midi": 58,
                    "time": 154.375,
                    "velocity": 0.3937007874015748,
                    "duration": 0.3125
                },
                {
                    "name": "D4",
                    "midi": 62,
                    "time": 154.6875,
                    "velocity": 0.15748031496062992,
                    "duration": 0.625
                },
                {
                    "name": "A3",
                    "midi": 57,
                    "time": 154.6875,
                    "velocity": 0.15748031496062992,
                    "duration": 0.3125
                },
                {
                    "name": "C4",
                    "midi": 60,
                    "time": 155,
                    "velocity": 0.31496062992125984,
                    "duration": 0.3125
                },
                {
                    "name": "D4",
                    "midi": 62,
                    "time": 155.3125,
                    "velocity": 0.23622047244094488,
                    "duration": 0.3594970703125
                },
                {
                    "name": "D4",
                    "midi": 62,
                    "time": 155.3125,
                    "velocity": 0.23622047244094488,
                    "duration": 0.3594970703125
                },
                {
                    "name": "E4",
                    "midi": 64,
                    "time": 155.625,
                    "velocity": 0.30708661417322836,
                    "duration": 0.3125
                },
                {
                    "name": "C#4",
                    "midi": 61,
                    "time": 155.625,
                    "velocity": 0.30708661417322836,
                    "duration": 0.3125
                },
                {
                    "name": "F4",
                    "midi": 65,
                    "time": 155.9375,
                    "velocity": 0.3700787401574803,
                    "duration": 0.3125
                },
                {
                    "name": "C4",
                    "midi": 60,
                    "time": 155.9375,
                    "velocity": 0.3700787401574803,
                    "duration": 0.3125
                },
                {
                    "name": "G4",
                    "midi": 67,
                    "time": 156.25,
                    "velocity": 0.4409448818897638,
                    "duration": 0.3125
                },
                {
                    "name": "A#3",
                    "midi": 58,
                    "time": 156.25,
                    "velocity": 0.4409448818897638,
                    "duration": 0.3125
                },
                {
                    "name": "A4",
                    "midi": 69,
                    "time": 156.5625,
                    "velocity": 0.5039370078740157,
                    "duration": 0.15625
                },
                {
                    "name": "G3",
                    "midi": 55,
                    "time": 156.5625,
                    "velocity": 0.31496062992125984,
                    "duration": 0.3125
                },
                {
                    "name": "E4",
                    "midi": 64,
                    "time": 156.71875,
                    "velocity": 0.5039370078740157,
                    "duration": 0.15625
                },
                {
                    "name": "A4",
                    "midi": 69,
                    "time": 156.875,
                    "velocity": 0.3937007874015748,
                    "duration": 0.15625
                },
                {
                    "name": "A#3",
                    "midi": 58,
                    "time": 156.875,
                    "velocity": 0.3937007874015748,
                    "duration": 0.3125
                },
                {
                    "name": "E4",
                    "midi": 64,
                    "time": 157.03125,
                    "velocity": 0.5039370078740157,
                    "duration": 0.15625
                },
                {
                    "name": "D4",
                    "midi": 62,
                    "time": 157.1875,
                    "velocity": 0.15748031496062992,
                    "duration": 0.625
                },
                {
                    "name": "A3",
                    "midi": 57,
                    "time": 157.1875,
                    "velocity": 0.15748031496062992,
                    "duration": 0.3125
                },
                {
                    "name": "C4",
                    "midi": 60,
                    "time": 157.5,
                    "velocity": 0.31496062992125984,
                    "duration": 0.3125
                },
                {
                    "name": "D4",
                    "midi": 62,
                    "time": 157.8125,
                    "velocity": 0.31496062992125984,
                    "duration": 0.3125
                },
                {
                    "name": "D4",
                    "midi": 62,
                    "time": 157.8125,
                    "velocity": 0.23622047244094488,
                    "duration": 0.3125
                },
                {
                    "name": "E4",
                    "midi": 64,
                    "time": 158.125,
                    "velocity": 0.3858267716535433,
                    "duration": 0.3125
                },
                {
                    "name": "C#4",
                    "midi": 61,
                    "time": 158.125,
                    "velocity": 0.30708661417322836,
                    "duration": 0.3125
                },
                {
                    "name": "F4",
                    "midi": 65,
                    "time": 158.4375,
                    "velocity": 0.44881889763779526,
                    "duration": 0.3125
                },
                {
                    "name": "C4",
                    "midi": 60,
                    "time": 158.4375,
                    "velocity": 0.3700787401574803,
                    "duration": 0.3125
                },
                {
                    "name": "A#4",
                    "midi": 70,
                    "time": 158.75,
                    "velocity": 0.5196850393700787,
                    "duration": 0.3125
                },
                {
                    "name": "A#3",
                    "midi": 58,
                    "time": 158.75,
                    "velocity": 0.4409448818897638,
                    "duration": 0.3125
                },
                {
                    "name": "E5",
                    "midi": 76,
                    "time": 159.0625,
                    "velocity": 0.5826771653543307,
                    "duration": 0.3125
                },
                {
                    "name": "G3",
                    "midi": 55,
                    "time": 159.0625,
                    "velocity": 0.31496062992125984,
                    "duration": 0.3125
                },
                {
                    "name": "A4",
                    "midi": 69,
                    "time": 159.375,
                    "velocity": 0.47244094488188976,
                    "duration": 0.3125
                },
                {
                    "name": "E4",
                    "midi": 64,
                    "time": 159.375,
                    "velocity": 0.3937007874015748,
                    "duration": 0.3125
                },
                {
                    "name": "F4",
                    "midi": 65,
                    "time": 159.6875,
                    "velocity": 0.23622047244094488,
                    "duration": 0.625
                },
                {
                    "name": "A3",
                    "midi": 57,
                    "time": 159.6875,
                    "velocity": 0.15748031496062992,
                    "duration": 0.625
                },
                {
                    "name": "A#3",
                    "midi": 58,
                    "time": 160,
                    "velocity": 0.15748031496062992,
                    "duration": 0.3125
                },
                {
                    "name": "D4",
                    "midi": 62,
                    "time": 160.3125,
                    "velocity": 0.23622047244094488,
                    "duration": 0.3125
                },
                {
                    "name": "D4",
                    "midi": 62,
                    "time": 160.3125,
                    "velocity": 0.23622047244094488,
                    "duration": 0.3125
                },
                {
                    "name": "E4",
                    "midi": 64,
                    "time": 160.625,
                    "velocity": 0.30708661417322836,
                    "duration": 0.3125
                },
                {
                    "name": "C#4",
                    "midi": 61,
                    "time": 160.625,
                    "velocity": 0.30708661417322836,
                    "duration": 0.3125
                },
                {
                    "name": "F4",
                    "midi": 65,
                    "time": 160.9375,
                    "velocity": 0.3700787401574803,
                    "duration": 0.3125
                },
                {
                    "name": "C4",
                    "midi": 60,
                    "time": 160.9375,
                    "velocity": 0.3700787401574803,
                    "duration": 0.3125
                },
                {
                    "name": "A#4",
                    "midi": 70,
                    "time": 161.25,
                    "velocity": 0.4409448818897638,
                    "duration": 0.3125
                },
                {
                    "name": "A#3",
                    "midi": 58,
                    "time": 161.25,
                    "velocity": 0.4409448818897638,
                    "duration": 0.3125
                },
                {
                    "name": "E5",
                    "midi": 76,
                    "time": 161.5625,
                    "velocity": 0.5039370078740157,
                    "duration": 0.15625
                },
                {
                    "name": "G3",
                    "midi": 55,
                    "time": 161.5625,
                    "velocity": 0.31496062992125984,
                    "duration": 0.3125
                },
                {
                    "name": "A4",
                    "midi": 69,
                    "time": 161.71875,
                    "velocity": 0.3937007874015748,
                    "duration": 0.15625
                },
                {
                    "name": "E5",
                    "midi": 76,
                    "time": 161.875,
                    "velocity": 0.3464566929133858,
                    "duration": 0.15625
                },
                {
                    "name": "E4",
                    "midi": 64,
                    "time": 161.875,
                    "velocity": 0.3937007874015748,
                    "duration": 0.3125
                },
                {
                    "name": "A4",
                    "midi": 69,
                    "time": 162.03125,
                    "velocity": 0.2992125984251969,
                    "duration": 0.15625
                },
                {
                    "name": "F4",
                    "midi": 65,
                    "time": 162.1875,
                    "velocity": 0.25196850393700787,
                    "duration": 0.625
                },
                {
                    "name": "A3",
                    "midi": 57,
                    "time": 162.1875,
                    "velocity": 0.15748031496062992,
                    "duration": 0.625
                },
                {
                    "name": "A#3",
                    "midi": 58,
                    "time": 162.5,
                    "velocity": 0.15748031496062992,
                    "duration": 0.3125
                },
                {
                    "name": "D4",
                    "midi": 62,
                    "time": 162.734375,
                    "velocity": 0.07874015748031496,
                    "duration": 0.078125
                },
                {
                    "name": "E4",
                    "midi": 64,
                    "time": 162.8125,
                    "velocity": 0.07874015748031496,
                    "duration": 0.625
                },
                {
                    "name": "D4",
                    "midi": 62,
                    "time": 162.8125,
                    "velocity": 0.15748031496062992,
                    "duration": 0.3125
                },
                {
                    "name": "C#4",
                    "midi": 61,
                    "time": 163.125,
                    "velocity": 0.15748031496062992,
                    "duration": 0.3125
                },
                {
                    "name": "D4",
                    "midi": 62,
                    "time": 163.359375,
                    "velocity": 0.2204724409448819,
                    "duration": 0.078125
                },
                {
                    "name": "E4",
                    "midi": 64,
                    "time": 163.4375,
                    "velocity": 0.2204724409448819,
                    "duration": 0.625
                },
                {
                    "name": "C4",
                    "midi": 60,
                    "time": 163.4375,
                    "velocity": 0.15748031496062992,
                    "duration": 0.3125
                },
                {
                    "name": "A#3",
                    "midi": 58,
                    "time": 163.75,
                    "velocity": 0.15748031496062992,
                    "duration": 0.3125
                },
                {
                    "name": "D4",
                    "midi": 62,
                    "time": 163.984375,
                    "velocity": 0.3543307086614173,
                    "duration": 0.078125
                },
                {
                    "name": "E4",
                    "midi": 64,
                    "time": 164.0625,
                    "velocity": 0.3543307086614173,
                    "duration": 0.3125
                },
                {
                    "name": "G3",
                    "midi": 55,
                    "time": 164.0625,
                    "velocity": 0.15748031496062992,
                    "duration": 0.3125
                },
                {
                    "name": "A4",
                    "midi": 69,
                    "time": 164.375,
                    "velocity": 0.4251968503937008,
                    "duration": 0.3125
                },
                {
                    "name": "E4",
                    "midi": 64,
                    "time": 164.375,
                    "velocity": 0.15748031496062992,
                    "duration": 0.3125
                },
                {
                    "name": "F4",
                    "midi": 65,
                    "time": 164.6875,
                    "velocity": 0.31496062992125984,
                    "duration": 0.625
                },
                {
                    "name": "A3",
                    "midi": 57,
                    "time": 164.6875,
                    "velocity": 0.15748031496062992,
                    "duration": 0.625
                },
                {
                    "name": "A#3",
                    "midi": 58,
                    "time": 165,
                    "velocity": 0.07874015748031496,
                    "duration": 0.3125
                },
                {
                    "name": "E4",
                    "midi": 64,
                    "time": 165.3125,
                    "velocity": 0.15748031496062992,
                    "duration": 0.15625
                },
                {
                    "name": "D4",
                    "midi": 62,
                    "time": 165.3125,
                    "velocity": 0.15748031496062992,
                    "duration": 0.3125
                },
                {
                    "name": "D4",
                    "midi": 62,
                    "time": 165.46875,
                    "velocity": 0.15748031496062992,
                    "duration": 0.15625
                },
                {
                    "name": "E4",
                    "midi": 64,
                    "time": 165.625,
                    "velocity": 0.15748031496062992,
                    "duration": 0.15625
                },
                {
                    "name": "C#4",
                    "midi": 61,
                    "time": 165.625,
                    "velocity": 0.15748031496062992,
                    "duration": 0.3125
                },
                {
                    "name": "D4",
                    "midi": 62,
                    "time": 165.78125,
                    "velocity": 0.15748031496062992,
                    "duration": 0.15625
                },
                {
                    "name": "E4",
                    "midi": 64,
                    "time": 165.9375,
                    "velocity": 0.15748031496062992,
                    "duration": 0.3125
                },
                {
                    "name": "C4",
                    "midi": 60,
                    "time": 165.9375,
                    "velocity": 0.15748031496062992,
                    "duration": 0.3125
                },
                {
                    "name": "D4",
                    "midi": 62,
                    "time": 166.25,
                    "velocity": 0.15748031496062992,
                    "duration": 0.3125
                },
                {
                    "name": "A#3",
                    "midi": 58,
                    "time": 166.25,
                    "velocity": 0.15748031496062992,
                    "duration": 0.3125
                },
                {
                    "name": "E4",
                    "midi": 64,
                    "time": 166.5625,
                    "velocity": 0.15748031496062992,
                    "duration": 0.3125
                },
                {
                    "name": "G3",
                    "midi": 55,
                    "time": 166.5625,
                    "velocity": 0.15748031496062992,
                    "duration": 0.3125
                },
                {
                    "name": "A4",
                    "midi": 69,
                    "time": 166.875,
                    "velocity": 0.15748031496062992,
                    "duration": 0.3125
                },
                {
                    "name": "E4",
                    "midi": 64,
                    "time": 166.875,
                    "velocity": 0.15748031496062992,
                    "duration": 0.3125
                },
                {
                    "name": "F4",
                    "midi": 65,
                    "time": 167.1875,
                    "velocity": 0.15748031496062992,
                    "duration": 0.625
                },
                {
                    "name": "A3",
                    "midi": 57,
                    "time": 167.1875,
                    "velocity": 0.15748031496062992,
                    "duration": 0.625
                },
                {
                    "name": "A#3",
                    "midi": 58,
                    "time": 167.5,
                    "velocity": 0.15748031496062992,
                    "duration": 0.3125
                },
                {
                    "name": "D4",
                    "midi": 62,
                    "time": 167.734375,
                    "velocity": 0.2755905511811024,
                    "duration": 0.078125
                },
                {
                    "name": "E4",
                    "midi": 64,
                    "time": 167.8125,
                    "velocity": 0.2755905511811024,
                    "duration": 0.625
                },
                {
                    "name": "A#3",
                    "midi": 58,
                    "time": 167.8125,
                    "velocity": 0.3543307086614173,
                    "duration": 0.3125
                },
                {
                    "name": "D3",
                    "midi": 50,
                    "time": 168.125,
                    "velocity": 0.3543307086614173,
                    "duration": 0.3125
                },
                {
                    "name": "D4",
                    "midi": 62,
                    "time": 168.359375,
                    "velocity": 0.41732283464566927,
                    "duration": 0.078125
                },
                {
                    "name": "E4",
                    "midi": 64,
                    "time": 168.4375,
                    "velocity": 0.41732283464566927,
                    "duration": 0.625
                },
                {
                    "name": "E3",
                    "midi": 52,
                    "time": 168.4375,
                    "velocity": 0.3543307086614173,
                    "duration": 0.3125
                },
                {
                    "name": "G2",
                    "midi": 43,
                    "time": 168.75,
                    "velocity": 0.3543307086614173,
                    "duration": 0.3125
                },
                {
                    "name": "D4",
                    "midi": 62,
                    "time": 168.984375,
                    "velocity": 0.5511811023622047,
                    "duration": 0.078125
                },
                {
                    "name": "E4",
                    "midi": 64,
                    "time": 169.0625,
                    "velocity": 0.5511811023622047,
                    "duration": 0.3125
                },
                {
                    "name": "D3",
                    "midi": 50,
                    "time": 169.0625,
                    "velocity": 0.3543307086614173,
                    "duration": 0.3125
                },
                {
                    "name": "A4",
                    "midi": 69,
                    "time": 169.375,
                    "velocity": 0.6220472440944882,
                    "duration": 0.3125
                },
                {
                    "name": "C2",
                    "midi": 36,
                    "time": 169.375,
                    "velocity": 0.3543307086614173,
                    "duration": 0.3125
                },
                {
                    "name": "F4",
                    "midi": 65,
                    "time": 169.6875,
                    "velocity": 0.5118110236220472,
                    "duration": 0.625
                },
                {
                    "name": "D2",
                    "midi": 38,
                    "time": 169.6875,
                    "velocity": 0.3543307086614173,
                    "duration": 0.625
                },
                {
                    "name": "F3",
                    "midi": 53,
                    "time": 170,
                    "velocity": 0.2755905511811024,
                    "duration": 0.3125
                },
                {
                    "name": "A#3",
                    "midi": 58,
                    "time": 170,
                    "velocity": 0.2755905511811024,
                    "duration": 0.3125
                },
                {
                    "name": "E4",
                    "midi": 64,
                    "time": 170.3125,
                    "velocity": 0.3543307086614173,
                    "duration": 0.15625
                },
                {
                    "name": "A#3",
                    "midi": 58,
                    "time": 170.3125,
                    "velocity": 0.3543307086614173,
                    "duration": 0.3125
                },
                {
                    "name": "D4",
                    "midi": 62,
                    "time": 170.46875,
                    "velocity": 0.3543307086614173,
                    "duration": 0.15625
                },
                {
                    "name": "E4",
                    "midi": 64,
                    "time": 170.625,
                    "velocity": 0.3543307086614173,
                    "duration": 0.15625
                },
                {
                    "name": "D3",
                    "midi": 50,
                    "time": 170.625,
                    "velocity": 0.3543307086614173,
                    "duration": 0.3125
                },
                {
                    "name": "D4",
                    "midi": 62,
                    "time": 170.78125,
                    "velocity": 0.3543307086614173,
                    "duration": 0.15625
                },
                {
                    "name": "E4",
                    "midi": 64,
                    "time": 170.9375,
                    "velocity": 0.3543307086614173,
                    "duration": 0.3125
                },
                {
                    "name": "E3",
                    "midi": 52,
                    "time": 170.9375,
                    "velocity": 0.3543307086614173,
                    "duration": 0.3125
                },
                {
                    "name": "D4",
                    "midi": 62,
                    "time": 171.25,
                    "velocity": 0.3543307086614173,
                    "duration": 0.3125
                },
                {
                    "name": "G2",
                    "midi": 43,
                    "time": 171.25,
                    "velocity": 0.3543307086614173,
                    "duration": 0.3125
                },
                {
                    "name": "E4",
                    "midi": 64,
                    "time": 171.5625,
                    "velocity": 0.3543307086614173,
                    "duration": 0.3125
                },
                {
                    "name": "D3",
                    "midi": 50,
                    "time": 171.5625,
                    "velocity": 0.3543307086614173,
                    "duration": 0.3125
                },
                {
                    "name": "A4",
                    "midi": 69,
                    "time": 171.875,
                    "velocity": 0.3543307086614173,
                    "duration": 0.3125
                },
                {
                    "name": "C2",
                    "midi": 36,
                    "time": 171.875,
                    "velocity": 0.3543307086614173,
                    "duration": 0.3125
                },
                {
                    "name": "F4",
                    "midi": 65,
                    "time": 172.1875,
                    "velocity": 0.3543307086614173,
                    "duration": 0.625
                },
                {
                    "name": "D2",
                    "midi": 38,
                    "time": 172.1875,
                    "velocity": 0.3543307086614173,
                    "duration": 0.625
                },
                {
                    "name": "F3",
                    "midi": 53,
                    "time": 172.5,
                    "velocity": 0.3543307086614173,
                    "duration": 0.3125
                },
                {
                    "name": "A#3",
                    "midi": 58,
                    "time": 172.5,
                    "velocity": 0.3543307086614173,
                    "duration": 0.3125
                },
                {
                    "name": "D5",
                    "midi": 74,
                    "time": 172.734375,
                    "velocity": 0.23622047244094488,
                    "duration": 0.078125
                },
                {
                    "name": "E5",
                    "midi": 76,
                    "time": 172.8125,
                    "velocity": 0.23622047244094488,
                    "duration": 0.625
                },
                {
                    "name": "A#3",
                    "midi": 58,
                    "time": 172.8125,
                    "velocity": 0.2755905511811024,
                    "duration": 0.3125
                },
                {
                    "name": "D3",
                    "midi": 50,
                    "time": 173.125,
                    "velocity": 0.2755905511811024,
                    "duration": 0.3125
                },
                {
                    "name": "D5",
                    "midi": 74,
                    "time": 173.359375,
                    "velocity": 0.23622047244094488,
                    "duration": 0.078125
                },
                {
                    "name": "E5",
                    "midi": 76,
                    "time": 173.4375,
                    "velocity": 0.23622047244094488,
                    "duration": 0.625
                },
                {
                    "name": "E3",
                    "midi": 52,
                    "time": 173.4375,
                    "velocity": 0.2755905511811024,
                    "duration": 0.3125
                },
                {
                    "name": "G2",
                    "midi": 43,
                    "time": 173.75,
                    "velocity": 0.2755905511811024,
                    "duration": 0.3125
                },
                {
                    "name": "D5",
                    "midi": 74,
                    "time": 174.0625,
                    "velocity": 0.23622047244094488,
                    "duration": 0.3125
                },
                {
                    "name": "E5",
                    "midi": 76,
                    "time": 174.0625,
                    "velocity": 0.23622047244094488,
                    "duration": 0.3125
                },
                {
                    "name": "D3",
                    "midi": 50,
                    "time": 174.0625,
                    "velocity": 0.2755905511811024,
                    "duration": 0.3125
                },
                {
                    "name": "D6",
                    "midi": 86,
                    "time": 174.375,
                    "velocity": 0.23622047244094488,
                    "duration": 0.3125
                },
                {
                    "name": "E6",
                    "midi": 88,
                    "time": 174.375,
                    "velocity": 0.23622047244094488,
                    "duration": 0.3125
                },
                {
                    "name": "C2",
                    "midi": 36,
                    "time": 174.375,
                    "velocity": 0.2755905511811024,
                    "duration": 0.3125
                },
                {
                    "name": "D5",
                    "midi": 74,
                    "time": 174.6875,
                    "velocity": 0.23622047244094488,
                    "duration": 0.625
                },
                {
                    "name": "E5",
                    "midi": 76,
                    "time": 174.6875,
                    "velocity": 0.23622047244094488,
                    "duration": 0.625
                },
                {
                    "name": "D2",
                    "midi": 38,
                    "time": 174.6875,
                    "velocity": 0.2755905511811024,
                    "duration": 0.625
                },
                {
                    "name": "F4",
                    "midi": 65,
                    "time": 175,
                    "velocity": 0.23622047244094488,
                    "duration": 0.3125
                },
                {
                    "name": "A#4",
                    "midi": 70,
                    "time": 175,
                    "velocity": 0.23622047244094488,
                    "duration": 0.3125
                },
                {
                    "name": "D5",
                    "midi": 74,
                    "time": 175.3125,
                    "velocity": 0.23622047244094488,
                    "duration": 0.3125
                },
                {
                    "name": "E5",
                    "midi": 76,
                    "time": 175.3125,
                    "velocity": 0.23622047244094488,
                    "duration": 0.3125
                },
                {
                    "name": "A#3",
                    "midi": 58,
                    "time": 175.3125,
                    "velocity": 0.2755905511811024,
                    "duration": 0.3125
                },
                {
                    "name": "D6",
                    "midi": 86,
                    "time": 175.625,
                    "velocity": 0.23622047244094488,
                    "duration": 0.3125
                },
                {
                    "name": "E6",
                    "midi": 88,
                    "time": 175.625,
                    "velocity": 0.23622047244094488,
                    "duration": 0.3125
                },
                {
                    "name": "D3",
                    "midi": 50,
                    "time": 175.625,
                    "velocity": 0.2755905511811024,
                    "duration": 0.3125
                },
                {
                    "name": "D5",
                    "midi": 74,
                    "time": 175.9375,
                    "velocity": 0.23622047244094488,
                    "duration": 0.3125
                },
                {
                    "name": "E5",
                    "midi": 76,
                    "time": 175.9375,
                    "velocity": 0.23622047244094488,
                    "duration": 0.3125
                },
                {
                    "name": "E3",
                    "midi": 52,
                    "time": 175.9375,
                    "velocity": 0.2755905511811024,
                    "duration": 0.3125
                },
                {
                    "name": "D6",
                    "midi": 86,
                    "time": 176.25,
                    "velocity": 0.23622047244094488,
                    "duration": 0.3125
                },
                {
                    "name": "E6",
                    "midi": 88,
                    "time": 176.25,
                    "velocity": 0.23622047244094488,
                    "duration": 0.3125
                },
                {
                    "name": "G2",
                    "midi": 43,
                    "time": 176.25,
                    "velocity": 0.2755905511811024,
                    "duration": 0.3125
                },
                {
                    "name": "D5",
                    "midi": 74,
                    "time": 176.5625,
                    "velocity": 0.23622047244094488,
                    "duration": 0.3125
                },
                {
                    "name": "E5",
                    "midi": 76,
                    "time": 176.5625,
                    "velocity": 0.23622047244094488,
                    "duration": 0.3125
                },
                {
                    "name": "D3",
                    "midi": 50,
                    "time": 176.5625,
                    "velocity": 0.2755905511811024,
                    "duration": 0.3125
                },
                {
                    "name": "D6",
                    "midi": 86,
                    "time": 176.875,
                    "velocity": 0.23622047244094488,
                    "duration": 0.3125
                },
                {
                    "name": "E6",
                    "midi": 88,
                    "time": 176.875,
                    "velocity": 0.23622047244094488,
                    "duration": 0.3125
                },
                {
                    "name": "C2",
                    "midi": 36,
                    "time": 176.875,
                    "velocity": 0.2755905511811024,
                    "duration": 0.3125
                },
                {
                    "name": "D5",
                    "midi": 74,
                    "time": 177.1875,
                    "velocity": 0.23622047244094488,
                    "duration": 0.625
                },
                {
                    "name": "E5",
                    "midi": 76,
                    "time": 177.1875,
                    "velocity": 0.23622047244094488,
                    "duration": 0.625
                },
                {
                    "name": "D2",
                    "midi": 38,
                    "time": 177.1875,
                    "velocity": 0.2755905511811024,
                    "duration": 0.625
                },
                {
                    "name": "F4",
                    "midi": 65,
                    "time": 177.5,
                    "velocity": 0.23622047244094488,
                    "duration": 0.3125
                },
                {
                    "name": "A#4",
                    "midi": 70,
                    "time": 177.5,
                    "velocity": 0.23622047244094488,
                    "duration": 0.3125
                },
                {
                    "name": "E4",
                    "midi": 64,
                    "time": 177.734375,
                    "velocity": 0.15748031496062992,
                    "duration": 0.703125
                },
                {
                    "name": "E5",
                    "midi": 76,
                    "time": 177.8125,
                    "velocity": 0.15748031496062992,
                    "duration": 0.625
                },
                {
                    "name": "G3",
                    "midi": 55,
                    "time": 177.8125,
                    "velocity": 0.15748031496062992,
                    "duration": 0.3125
                },
                {
                    "name": "A#3",
                    "midi": 58,
                    "time": 178.125,
                    "velocity": 0.15748031496062992,
                    "duration": 0.3125
                },
                {
                    "name": "A4",
                    "midi": 69,
                    "time": 178.359375,
                    "velocity": 0.15748031496062992,
                    "duration": 0.703125
                },
                {
                    "name": "A5",
                    "midi": 81,
                    "time": 178.4375,
                    "velocity": 0.15748031496062992,
                    "duration": 0.625
                },
                {
                    "name": "A3",
                    "midi": 57,
                    "time": 178.4375,
                    "velocity": 0.15748031496062992,
                    "duration": 0.3125
                },
                {
                    "name": "C4",
                    "midi": 60,
                    "time": 178.75,
                    "velocity": 0.15748031496062992,
                    "duration": 0.3125
                },
                {
                    "name": "E5",
                    "midi": 76,
                    "time": 178.984375,
                    "velocity": 0.15748031496062992,
                    "duration": 0.703125
                },
                {
                    "name": "E6",
                    "midi": 88,
                    "time": 179.0625,
                    "velocity": 0.15748031496062992,
                    "duration": 0.625
                },
                {
                    "name": "A#3",
                    "midi": 58,
                    "time": 179.0625,
                    "velocity": 0.15748031496062992,
                    "duration": 0.3125
                },
                {
                    "name": "D4",
                    "midi": 62,
                    "time": 179.375,
                    "velocity": 0.15748031496062992,
                    "duration": 0.3125
                },
                {
                    "name": "A5",
                    "midi": 81,
                    "time": 179.609375,
                    "velocity": 0.15748031496062992,
                    "duration": 0.703125
                },
                {
                    "name": "A6",
                    "midi": 93,
                    "time": 179.6875,
                    "velocity": 0.15748031496062992,
                    "duration": 0.625
                },
                {
                    "name": "C4",
                    "midi": 60,
                    "time": 179.6875,
                    "velocity": 0.15748031496062992,
                    "duration": 0.3125
                },
                {
                    "name": "E4",
                    "midi": 64,
                    "time": 180,
                    "velocity": 0.15748031496062992,
                    "duration": 0.3125
                },
                {
                    "name": "E5",
                    "midi": 76,
                    "time": 180.234375,
                    "velocity": 0.15748031496062992,
                    "duration": 0.703125
                },
                {
                    "name": "E6",
                    "midi": 88,
                    "time": 180.3125,
                    "velocity": 0.15748031496062992,
                    "duration": 0.625
                },
                {
                    "name": "A#3",
                    "midi": 58,
                    "time": 180.3125,
                    "velocity": 0.15748031496062992,
                    "duration": 0.3125
                },
                {
                    "name": "D4",
                    "midi": 62,
                    "time": 180.625,
                    "velocity": 0.15748031496062992,
                    "duration": 0.3125
                },
                {
                    "name": "A4",
                    "midi": 69,
                    "time": 180.859375,
                    "velocity": 0.15748031496062992,
                    "duration": 0.703125
                },
                {
                    "name": "A5",
                    "midi": 81,
                    "time": 180.9375,
                    "velocity": 0.15748031496062992,
                    "duration": 0.625
                },
                {
                    "name": "A3",
                    "midi": 57,
                    "time": 180.9375,
                    "velocity": 0.15748031496062992,
                    "duration": 0.3125
                },
                {
                    "name": "C4",
                    "midi": 60,
                    "time": 181.25,
                    "velocity": 0.15748031496062992,
                    "duration": 0.3125
                },
                {
                    "name": "E4",
                    "midi": 64,
                    "time": 181.484375,
                    "velocity": 0.15748031496062992,
                    "duration": 0.703125
                },
                {
                    "name": "E5",
                    "midi": 76,
                    "time": 181.5625,
                    "velocity": 0.15748031496062992,
                    "duration": 0.625
                },
                {
                    "name": "G3",
                    "midi": 55,
                    "time": 181.5625,
                    "velocity": 0.15748031496062992,
                    "duration": 0.3125
                },
                {
                    "name": "A#3",
                    "midi": 58,
                    "time": 181.875,
                    "velocity": 0.15748031496062992,
                    "duration": 0.3125
                },
                {
                    "name": "A4",
                    "midi": 69,
                    "time": 182.109375,
                    "velocity": 0.15748031496062992,
                    "duration": 0.703125
                },
                {
                    "name": "A5",
                    "midi": 81,
                    "time": 182.1875,
                    "velocity": 0.15748031496062992,
                    "duration": 0.625
                },
                {
                    "name": "A3",
                    "midi": 57,
                    "time": 182.1875,
                    "velocity": 0.15748031496062992,
                    "duration": 0.3125
                },
                {
                    "name": "C4",
                    "midi": 60,
                    "time": 182.5,
                    "velocity": 0.15748031496062992,
                    "duration": 0.3125
                },
                {
                    "name": "E5",
                    "midi": 76,
                    "time": 182.734375,
                    "velocity": 0.15748031496062992,
                    "duration": 0.703125
                },
                {
                    "name": "E6",
                    "midi": 88,
                    "time": 182.8125,
                    "velocity": 0.15748031496062992,
                    "duration": 0.625
                },
                {
                    "name": "A#3",
                    "midi": 58,
                    "time": 182.8125,
                    "velocity": 0.15748031496062992,
                    "duration": 0.3125
                },
                {
                    "name": "D4",
                    "midi": 62,
                    "time": 183.125,
                    "velocity": 0.15748031496062992,
                    "duration": 0.3125
                },
                {
                    "name": "A5",
                    "midi": 81,
                    "time": 183.359375,
                    "velocity": 0.15748031496062992,
                    "duration": 0.703125
                },
                {
                    "name": "A6",
                    "midi": 93,
                    "time": 183.4375,
                    "velocity": 0.15748031496062992,
                    "duration": 0.625
                },
                {
                    "name": "C4",
                    "midi": 60,
                    "time": 183.4375,
                    "velocity": 0.15748031496062992,
                    "duration": 0.3125
                },
                {
                    "name": "E4",
                    "midi": 64,
                    "time": 183.75,
                    "velocity": 0.15748031496062992,
                    "duration": 0.3125
                },
                {
                    "name": "E5",
                    "midi": 76,
                    "time": 183.984375,
                    "velocity": 0.15748031496062992,
                    "duration": 0.703125
                },
                {
                    "name": "E6",
                    "midi": 88,
                    "time": 184.0625,
                    "velocity": 0.15748031496062992,
                    "duration": 0.625
                },
                {
                    "name": "A#3",
                    "midi": 58,
                    "time": 184.0625,
                    "velocity": 0.15748031496062992,
                    "duration": 0.3125
                },
                {
                    "name": "D4",
                    "midi": 62,
                    "time": 184.375,
                    "velocity": 0.15748031496062992,
                    "duration": 0.3125
                },
                {
                    "name": "A4",
                    "midi": 69,
                    "time": 184.609375,
                    "velocity": 0.15748031496062992,
                    "duration": 0.703125
                },
                {
                    "name": "A5",
                    "midi": 81,
                    "time": 184.6875,
                    "velocity": 0.15748031496062992,
                    "duration": 0.625
                },
                {
                    "name": "A3",
                    "midi": 57,
                    "time": 184.6875,
                    "velocity": 0.15748031496062992,
                    "duration": 0.3125
                },
                {
                    "name": "C4",
                    "midi": 60,
                    "time": 185,
                    "velocity": 0.15748031496062992,
                    "duration": 0.3125
                },
                {
                    "name": "D4",
                    "midi": 62,
                    "time": 185.3125,
                    "velocity": 0.15748031496062992,
                    "duration": 0.3594970703125
                },
                {
                    "name": "D4",
                    "midi": 62,
                    "time": 185.3125,
                    "velocity": 0.15748031496062992,
                    "duration": 0.3594970703125
                },
                {
                    "name": "E4",
                    "midi": 64,
                    "time": 185.625,
                    "velocity": 0.15748031496062992,
                    "duration": 0.3125
                },
                {
                    "name": "C#4",
                    "midi": 61,
                    "time": 185.625,
                    "velocity": 0.15748031496062992,
                    "duration": 0.3125
                },
                {
                    "name": "F4",
                    "midi": 65,
                    "time": 185.9375,
                    "velocity": 0.15748031496062992,
                    "duration": 0.3125
                },
                {
                    "name": "C4",
                    "midi": 60,
                    "time": 185.9375,
                    "velocity": 0.15748031496062992,
                    "duration": 0.3125
                },
                {
                    "name": "G4",
                    "midi": 67,
                    "time": 186.25,
                    "velocity": 0.15748031496062992,
                    "duration": 0.3125
                },
                {
                    "name": "A#3",
                    "midi": 58,
                    "time": 186.25,
                    "velocity": 0.15748031496062992,
                    "duration": 0.3125
                },
                {
                    "name": "A4",
                    "midi": 69,
                    "time": 186.5625,
                    "velocity": 0.15748031496062992,
                    "duration": 0.3125
                },
                {
                    "name": "G3",
                    "midi": 55,
                    "time": 186.5625,
                    "velocity": 0.15748031496062992,
                    "duration": 0.3125
                },
                {
                    "name": "E4",
                    "midi": 64,
                    "time": 186.875,
                    "velocity": 0.15748031496062992,
                    "duration": 0.3125
                },
                {
                    "name": "A#3",
                    "midi": 58,
                    "time": 186.875,
                    "velocity": 0.15748031496062992,
                    "duration": 0.3125
                },
                {
                    "name": "D4",
                    "midi": 62,
                    "time": 187.1875,
                    "velocity": 0.15748031496062992,
                    "duration": 0.6549072265625
                },
                {
                    "name": "A3",
                    "midi": 57,
                    "time": 187.1875,
                    "velocity": 0.15748031496062992,
                    "duration": 0.3125
                },
                {
                    "name": "C4",
                    "midi": 60,
                    "time": 187.5,
                    "velocity": 0.15748031496062992,
                    "duration": 0.3125
                },
                {
                    "name": "G1",
                    "midi": 31,
                    "time": 187.8125,
                    "velocity": 0.14173228346456693,
                    "duration": 0.374755859375
                },
                {
                    "name": "G2",
                    "midi": 43,
                    "time": 187.8125,
                    "velocity": 0.14173228346456693,
                    "duration": 0.374755859375
                },
                {
                    "name": "E4",
                    "midi": 64,
                    "time": 187.8424072265625,
                    "velocity": 0.14173228346456693,
                    "duration": 0.0299072265625
                },
                {
                    "name": "F4",
                    "midi": 65,
                    "time": 187.872314453125,
                    "velocity": 0.14173228346456693,
                    "duration": 0.029296875
                },
                {
                    "name": "G4",
                    "midi": 67,
                    "time": 187.901611328125,
                    "velocity": 0.14173228346456693,
                    "duration": 0.0299072265625
                },
                {
                    "name": "A4",
                    "midi": 69,
                    "time": 187.9315185546875,
                    "velocity": 0.14173228346456693,
                    "duration": 0.0299072265625
                },
                {
                    "name": "B4",
                    "midi": 71,
                    "time": 187.96142578125,
                    "velocity": 0.14173228346456693,
                    "duration": 0.0299072265625
                },
                {
                    "name": "C5",
                    "midi": 72,
                    "time": 187.9913330078125,
                    "velocity": 0.14173228346456693,
                    "duration": 0.029296875
                },
                {
                    "name": "D5",
                    "midi": 74,
                    "time": 188.0206298828125,
                    "velocity": 0.14173228346456693,
                    "duration": 0.0299072265625
                },
                {
                    "name": "E5",
                    "midi": 76,
                    "time": 188.050537109375,
                    "velocity": 0.14173228346456693,
                    "duration": 0.0299072265625
                },
                {
                    "name": "F5",
                    "midi": 77,
                    "time": 188.0804443359375,
                    "velocity": 0.14173228346456693,
                    "duration": 0.0299072265625
                },
                {
                    "name": "G5",
                    "midi": 79,
                    "time": 188.1103515625,
                    "velocity": 0.14173228346456693,
                    "duration": 0.029296875
                },
                {
                    "name": "A5",
                    "midi": 81,
                    "time": 188.1396484375,
                    "velocity": 0.14173228346456693,
                    "duration": 0.0299072265625
                },
                {
                    "name": "B5",
                    "midi": 83,
                    "time": 188.1695556640625,
                    "velocity": 0.14173228346456693,
                    "duration": 0.0299072265625
                },
                {
                    "name": "C6",
                    "midi": 84,
                    "time": 188.199462890625,
                    "velocity": 0.14173228346456693,
                    "duration": 0.0299072265625
                },
                {
                    "name": "D6",
                    "midi": 86,
                    "time": 188.2293701171875,
                    "velocity": 0.14173228346456693,
                    "duration": 0.029296875
                },
                {
                    "name": "E6",
                    "midi": 88,
                    "time": 188.2586669921875,
                    "velocity": 0.14173228346456693,
                    "duration": 0.0299072265625
                },
                {
                    "name": "F6",
                    "midi": 89,
                    "time": 188.28857421875,
                    "velocity": 0.14173228346456693,
                    "duration": 0.0299072265625
                },
                {
                    "name": "G6",
                    "midi": 91,
                    "time": 188.3184814453125,
                    "velocity": 0.14173228346456693,
                    "duration": 0.0299072265625
                },
                {
                    "name": "A6",
                    "midi": 93,
                    "time": 188.348388671875,
                    "velocity": 0.14173228346456693,
                    "duration": 0.0299072265625
                },
                {
                    "name": "B6",
                    "midi": 95,
                    "time": 188.3782958984375,
                    "velocity": 0.14173228346456693,
                    "duration": 0.029296875
                },
                {
                    "name": "C7",
                    "midi": 96,
                    "time": 188.4075927734375,
                    "velocity": 0.14173228346456693,
                    "duration": 0.0299072265625
                },
                {
                    "name": "D7",
                    "midi": 98,
                    "time": 188.4375,
                    "velocity": 0.14173228346456693,
                    "duration": 0.078125
                },
                {
                    "name": "C1",
                    "midi": 24,
                    "time": 188.4375,
                    "velocity": 0.14173228346456693,
                    "duration": 0.374755859375
                },
                {
                    "name": "C2",
                    "midi": 36,
                    "time": 188.4375,
                    "velocity": 0.14173228346456693,
                    "duration": 0.374755859375
                },
                {
                    "name": "G#6",
                    "midi": 92,
                    "time": 189.375,
                    "velocity": 0.14173228346456693,
                    "duration": 0.0390625
                },
                {
                    "name": "A#6",
                    "midi": 94,
                    "time": 189.4140625,
                    "velocity": 0.14173228346456693,
                    "duration": 0.0390625
                },
                {
                    "name": "C5",
                    "midi": 72,
                    "time": 199.84375,
                    "velocity": 0.31496062992125984,
                    "duration": 0.15625
                },
                {
                    "name": "D5",
                    "midi": 74,
                    "time": 200,
                    "velocity": 0.4330708661417323,
                    "duration": 0.15625
                },
                {
                    "name": "E5",
                    "midi": 76,
                    "time": 200.15625,
                    "velocity": 0.5511811023622047,
                    "duration": 0.15625
                },
                {
                    "name": "F4",
                    "midi": 65,
                    "time": 200.3125,
                    "velocity": 0.5511811023622047,
                    "duration": 0.625
                },
                {
                    "name": "F5",
                    "midi": 77,
                    "time": 200.3125,
                    "velocity": 0.5511811023622047,
                    "duration": 0.625
                },
                {
                    "name": "F2",
                    "midi": 41,
                    "time": 200.3125,
                    "velocity": 0.47244094488188976,
                    "duration": 0.625
                },
                {
                    "name": "A3",
                    "midi": 57,
                    "time": 200.3125,
                    "velocity": 0.47244094488188976,
                    "duration": 0.625
                },
                {
                    "name": "A4",
                    "midi": 69,
                    "time": 200.625,
                    "velocity": 0.4330708661417323,
                    "duration": 0.3125
                },
                {
                    "name": "C5",
                    "midi": 72,
                    "time": 200.625,
                    "velocity": 0.4330708661417323,
                    "duration": 0.3125
                },
                {
                    "name": "F4",
                    "midi": 65,
                    "time": 200.9375,
                    "velocity": 0.5511811023622047,
                    "duration": 0.46875
                },
                {
                    "name": "F5",
                    "midi": 77,
                    "time": 200.9375,
                    "velocity": 0.5511811023622047,
                    "duration": 0.46875
                },
                {
                    "name": "A#2",
                    "midi": 46,
                    "time": 200.9375,
                    "velocity": 0.47244094488188976,
                    "duration": 0.625
                },
                {
                    "name": "D4",
                    "midi": 62,
                    "time": 200.9375,
                    "velocity": 0.47244094488188976,
                    "duration": 0.625
                },
                {
                    "name": "A#4",
                    "midi": 70,
                    "time": 201.25,
                    "velocity": 0.4330708661417323,
                    "duration": 0.3125
                },
                {
                    "name": "D5",
                    "midi": 74,
                    "time": 201.25,
                    "velocity": 0.4330708661417323,
                    "duration": 0.3125
                },
                {
                    "name": "F5",
                    "midi": 77,
                    "time": 201.40625,
                    "velocity": 0.5511811023622047,
                    "duration": 0.15625
                },
                {
                    "name": "G5",
                    "midi": 79,
                    "time": 201.5625,
                    "velocity": 0.5511811023622047,
                    "duration": 0.15625
                },
                {
                    "name": "G2",
                    "midi": 43,
                    "time": 201.5625,
                    "velocity": 0.47244094488188976,
                    "duration": 0.625
                },
                {
                    "name": "A#3",
                    "midi": 58,
                    "time": 201.5625,
                    "velocity": 0.47244094488188976,
                    "duration": 0.625
                },
                {
                    "name": "F5",
                    "midi": 77,
                    "time": 201.71875,
                    "velocity": 0.5511811023622047,
                    "duration": 0.15625
                },
                {
                    "name": "E5",
                    "midi": 76,
                    "time": 201.875,
                    "velocity": 0.5511811023622047,
                    "duration": 0.15625
                },
                {
                    "name": "D5",
                    "midi": 74,
                    "time": 202.03125,
                    "velocity": 0.5511811023622047,
                    "duration": 0.15625
                },
                {
                    "name": "C5",
                    "midi": 72,
                    "time": 202.1875,
                    "velocity": 0.5511811023622047,
                    "duration": 0.3125
                },
                {
                    "name": "C3",
                    "midi": 48,
                    "time": 202.1875,
                    "velocity": 0.47244094488188976,
                    "duration": 3.125
                },
                {
                    "name": "E4",
                    "midi": 64,
                    "time": 202.5,
                    "velocity": 0.5511811023622047,
                    "duration": 0.15625
                },
                {
                    "name": "A4",
                    "midi": 69,
                    "time": 202.5,
                    "velocity": 0.5511811023622047,
                    "duration": 0.15625
                },
                {
                    "name": "C5",
                    "midi": 72,
                    "time": 202.5,
                    "velocity": 0.5511811023622047,
                    "duration": 0.15625
                },
                {
                    "name": "A3",
                    "midi": 57,
                    "time": 202.5,
                    "velocity": 0.47244094488188976,
                    "duration": 0.3125
                },
                {
                    "name": "C4",
                    "midi": 60,
                    "time": 202.5,
                    "velocity": 0.47244094488188976,
                    "duration": 0.3125
                },
                {
                    "name": "E5",
                    "midi": 76,
                    "time": 202.65625,
                    "velocity": 0.5511811023622047,
                    "duration": 0.15625
                },
                {
                    "name": "C5",
                    "midi": 72,
                    "time": 202.8125,
                    "velocity": 0.5511811023622047,
                    "duration": 0.3125
                },
                {
                    "name": "F4",
                    "midi": 65,
                    "time": 203.125,
                    "velocity": 0.5433070866141733,
                    "duration": 0.15625
                },
                {
                    "name": "A4",
                    "midi": 69,
                    "time": 203.125,
                    "velocity": 0.5433070866141733,
                    "duration": 0.15625
                },
                {
                    "name": "C5",
                    "midi": 72,
                    "time": 203.125,
                    "velocity": 0.5433070866141733,
                    "duration": 0.15625
                },
                {
                    "name": "A#3",
                    "midi": 58,
                    "time": 203.125,
                    "velocity": 0.47244094488188976,
                    "duration": 0.3125
                },
                {
                    "name": "D4",
                    "midi": 62,
                    "time": 203.125,
                    "velocity": 0.47244094488188976,
                    "duration": 0.3125
                },
                {
                    "name": "E5",
                    "midi": 76,
                    "time": 203.28125,
                    "velocity": 0.5354330708661418,
                    "duration": 0.15625
                },
                {
                    "name": "C5",
                    "midi": 72,
                    "time": 203.4375,
                    "velocity": 0.5275590551181102,
                    "duration": 0.3125
                },
                {
                    "name": "A4",
                    "midi": 69,
                    "time": 203.75,
                    "velocity": 0.5196850393700787,
                    "duration": 0.15625
                },
                {
                    "name": "C4",
                    "midi": 60,
                    "time": 203.75,
                    "velocity": 0.47244094488188976,
                    "duration": 0.3125
                },
                {
                    "name": "E4",
                    "midi": 64,
                    "time": 203.75,
                    "velocity": 0.47244094488188976,
                    "duration": 0.3125
                },
                {
                    "name": "A#4",
                    "midi": 70,
                    "time": 203.90625,
                    "velocity": 0.5196850393700787,
                    "duration": 0.15625
                },
                {
                    "name": "C5",
                    "midi": 72,
                    "time": 204.0625,
                    "velocity": 0.5118110236220472,
                    "duration": 0.15625
                },
                {
                    "name": "A#4",
                    "midi": 70,
                    "time": 204.21875,
                    "velocity": 0.5039370078740157,
                    "duration": 0.15625
                },
                {
                    "name": "A4",
                    "midi": 69,
                    "time": 204.375,
                    "velocity": 0.5039370078740157,
                    "duration": 0.15625
                },
                {
                    "name": "G4",
                    "midi": 67,
                    "time": 204.53125,
                    "velocity": 0.49606299212598426,
                    "duration": 0.15625
                },
                {
                    "name": "F4",
                    "midi": 65,
                    "time": 204.6875,
                    "velocity": 0.4881889763779528,
                    "duration": 0.2032470703125
                },
                {
                    "name": "C5",
                    "midi": 72,
                    "time": 204.84375,
                    "velocity": 0.3937007874015748,
                    "duration": 0.15625
                },
                {
                    "name": "D5",
                    "midi": 74,
                    "time": 205,
                    "velocity": 0.47244094488188976,
                    "duration": 0.15625
                },
                {
                    "name": "E5",
                    "midi": 76,
                    "time": 205.15625,
                    "velocity": 0.5511811023622047,
                    "duration": 0.15625
                },
                {
                    "name": "F4",
                    "midi": 65,
                    "time": 205.3125,
                    "velocity": 0.5511811023622047,
                    "duration": 0.625
                },
                {
                    "name": "F5",
                    "midi": 77,
                    "time": 205.3125,
                    "velocity": 0.5511811023622047,
                    "duration": 0.625
                },
                {
                    "name": "F2",
                    "midi": 41,
                    "time": 205.3125,
                    "velocity": 0.47244094488188976,
                    "duration": 0.625
                },
                {
                    "name": "A3",
                    "midi": 57,
                    "time": 205.3125,
                    "velocity": 0.47244094488188976,
                    "duration": 0.625
                },
                {
                    "name": "A4",
                    "midi": 69,
                    "time": 205.625,
                    "velocity": 0.4330708661417323,
                    "duration": 0.3125
                },
                {
                    "name": "C5",
                    "midi": 72,
                    "time": 205.625,
                    "velocity": 0.4330708661417323,
                    "duration": 0.3125
                },
                {
                    "name": "F4",
                    "midi": 65,
                    "time": 205.9375,
                    "velocity": 0.5511811023622047,
                    "duration": 0.46875
                },
                {
                    "name": "F5",
                    "midi": 77,
                    "time": 205.9375,
                    "velocity": 0.5511811023622047,
                    "duration": 0.46875
                },
                {
                    "name": "A#2",
                    "midi": 46,
                    "time": 205.9375,
                    "velocity": 0.47244094488188976,
                    "duration": 0.625
                },
                {
                    "name": "D4",
                    "midi": 62,
                    "time": 205.9375,
                    "velocity": 0.47244094488188976,
                    "duration": 0.625
                },
                {
                    "name": "A#4",
                    "midi": 70,
                    "time": 206.25,
                    "velocity": 0.4330708661417323,
                    "duration": 0.3125
                },
                {
                    "name": "D5",
                    "midi": 74,
                    "time": 206.25,
                    "velocity": 0.4330708661417323,
                    "duration": 0.3125
                },
                {
                    "name": "F5",
                    "midi": 77,
                    "time": 206.40625,
                    "velocity": 0.5511811023622047,
                    "duration": 0.15625
                },
                {
                    "name": "G5",
                    "midi": 79,
                    "time": 206.5625,
                    "velocity": 0.5511811023622047,
                    "duration": 0.15625
                },
                {
                    "name": "G2",
                    "midi": 43,
                    "time": 206.5625,
                    "velocity": 0.47244094488188976,
                    "duration": 0.625
                },
                {
                    "name": "A#3",
                    "midi": 58,
                    "time": 206.5625,
                    "velocity": 0.47244094488188976,
                    "duration": 0.625
                },
                {
                    "name": "F5",
                    "midi": 77,
                    "time": 206.71875,
                    "velocity": 0.5511811023622047,
                    "duration": 0.15625
                },
                {
                    "name": "E5",
                    "midi": 76,
                    "time": 206.875,
                    "velocity": 0.5511811023622047,
                    "duration": 0.15625
                },
                {
                    "name": "D5",
                    "midi": 74,
                    "time": 207.03125,
                    "velocity": 0.5511811023622047,
                    "duration": 0.15625
                },
                {
                    "name": "C5",
                    "midi": 72,
                    "time": 207.1875,
                    "velocity": 0.5511811023622047,
                    "duration": 0.3125
                },
                {
                    "name": "C3",
                    "midi": 48,
                    "time": 207.1875,
                    "velocity": 0.47244094488188976,
                    "duration": 2.5
                },
                {
                    "name": "E4",
                    "midi": 64,
                    "time": 207.5,
                    "velocity": 0.5511811023622047,
                    "duration": 0.15625
                },
                {
                    "name": "A4",
                    "midi": 69,
                    "time": 207.5,
                    "velocity": 0.5511811023622047,
                    "duration": 0.15625
                },
                {
                    "name": "C5",
                    "midi": 72,
                    "time": 207.5,
                    "velocity": 0.5511811023622047,
                    "duration": 0.15625
                },
                {
                    "name": "A3",
                    "midi": 57,
                    "time": 207.5,
                    "velocity": 0.47244094488188976,
                    "duration": 0.3125
                },
                {
                    "name": "C4",
                    "midi": 60,
                    "time": 207.5,
                    "velocity": 0.47244094488188976,
                    "duration": 0.3125
                },
                {
                    "name": "E5",
                    "midi": 76,
                    "time": 207.65625,
                    "velocity": 0.5511811023622047,
                    "duration": 0.15625
                },
                {
                    "name": "C5",
                    "midi": 72,
                    "time": 207.8125,
                    "velocity": 0.5039370078740157,
                    "duration": 0.3125
                },
                {
                    "name": "F4",
                    "midi": 65,
                    "time": 208.125,
                    "velocity": 0.5511811023622047,
                    "duration": 0.15625
                },
                {
                    "name": "A4",
                    "midi": 69,
                    "time": 208.125,
                    "velocity": 0.5511811023622047,
                    "duration": 0.15625
                },
                {
                    "name": "C5",
                    "midi": 72,
                    "time": 208.125,
                    "velocity": 0.5511811023622047,
                    "duration": 0.15625
                },
                {
                    "name": "A#3",
                    "midi": 58,
                    "time": 208.125,
                    "velocity": 0.5039370078740157,
                    "duration": 0.3125
                },
                {
                    "name": "D4",
                    "midi": 62,
                    "time": 208.125,
                    "velocity": 0.5039370078740157,
                    "duration": 0.3125
                },
                {
                    "name": "E5",
                    "midi": 76,
                    "time": 208.28125,
                    "velocity": 0.5354330708661418,
                    "duration": 0.15625
                },
                {
                    "name": "C5",
                    "midi": 72,
                    "time": 208.4375,
                    "velocity": 0.5275590551181102,
                    "duration": 0.3125
                },
                {
                    "name": "A4",
                    "midi": 69,
                    "time": 208.75,
                    "velocity": 0.49606299212598426,
                    "duration": 0.15625
                },
                {
                    "name": "C4",
                    "midi": 60,
                    "time": 208.75,
                    "velocity": 0.5039370078740157,
                    "duration": 0.3125
                },
                {
                    "name": "E4",
                    "midi": 64,
                    "time": 208.75,
                    "velocity": 0.5039370078740157,
                    "duration": 0.3125
                },
                {
                    "name": "A#4",
                    "midi": 70,
                    "time": 208.90625,
                    "velocity": 0.4881889763779528,
                    "duration": 0.15625
                },
                {
                    "name": "C5",
                    "midi": 72,
                    "time": 209.0625,
                    "velocity": 0.47244094488188976,
                    "duration": 0.15625
                },
                {
                    "name": "A#4",
                    "midi": 70,
                    "time": 209.21875,
                    "velocity": 0.4566929133858268,
                    "duration": 0.15625
                },
                {
                    "name": "A4",
                    "midi": 69,
                    "time": 209.375,
                    "velocity": 0.44881889763779526,
                    "duration": 0.15625
                },
                {
                    "name": "G4",
                    "midi": 67,
                    "time": 209.53125,
                    "velocity": 0.4330708661417323,
                    "duration": 0.15625
                },
                {
                    "name": "C4",
                    "midi": 60,
                    "time": 209.6875,
                    "velocity": 0.6299212598425197,
                    "duration": 0.625
                },
                {
                    "name": "F1",
                    "midi": 29,
                    "time": 209.6875,
                    "velocity": 0.6299212598425197,
                    "duration": 0.625
                },
                {
                    "name": "F2",
                    "midi": 41,
                    "time": 209.6875,
                    "velocity": 0.6299212598425197,
                    "duration": 0.625
                },
                {
                    "name": "F3",
                    "midi": 53,
                    "time": 210,
                    "velocity": 0.5511811023622047,
                    "duration": 0.3125
                },
                {
                    "name": "A3",
                    "midi": 57,
                    "time": 210,
                    "velocity": 0.5511811023622047,
                    "duration": 0.3125
                },
                {
                    "name": "D3",
                    "midi": 50,
                    "time": 210.3125,
                    "velocity": 0.6299212598425197,
                    "duration": 0.625
                },
                {
                    "name": "D4",
                    "midi": 62,
                    "time": 210.3125,
                    "velocity": 0.6299212598425197,
                    "duration": 0.625
                },
                {
                    "name": "G1",
                    "midi": 31,
                    "time": 210.3125,
                    "velocity": 0.6299212598425197,
                    "duration": 0.625
                },
                {
                    "name": "G2",
                    "midi": 43,
                    "time": 210.3125,
                    "velocity": 0.6299212598425197,
                    "duration": 0.625
                },
                {
                    "name": "G3",
                    "midi": 55,
                    "time": 210.625,
                    "velocity": 0.5511811023622047,
                    "duration": 0.3125
                },
                {
                    "name": "A#3",
                    "midi": 58,
                    "time": 210.625,
                    "velocity": 0.5511811023622047,
                    "duration": 0.3125
                },
                {
                    "name": "A3",
                    "midi": 57,
                    "time": 210.9375,
                    "velocity": 0.6299212598425197,
                    "duration": 0.625
                },
                {
                    "name": "A4",
                    "midi": 69,
                    "time": 210.9375,
                    "velocity": 0.6299212598425197,
                    "duration": 0.625
                },
                {
                    "name": "C1",
                    "midi": 24,
                    "time": 210.9375,
                    "velocity": 0.6299212598425197,
                    "duration": 1.25
                },
                {
                    "name": "C2",
                    "midi": 36,
                    "time": 210.9375,
                    "velocity": 0.6299212598425197,
                    "duration": 1.25
                },
                {
                    "name": "D4",
                    "midi": 62,
                    "time": 211.25,
                    "velocity": 0.5511811023622047,
                    "duration": 0.3125
                },
                {
                    "name": "E4",
                    "midi": 64,
                    "time": 211.25,
                    "velocity": 0.5511811023622047,
                    "duration": 0.3125
                },
                {
                    "name": "G4",
                    "midi": 67,
                    "time": 211.5625,
                    "velocity": 0.6299212598425197,
                    "duration": 0.3125
                },
                {
                    "name": "G3",
                    "midi": 55,
                    "time": 211.5625,
                    "velocity": 0.5511811023622047,
                    "duration": 0.3125
                },
                {
                    "name": "A#3",
                    "midi": 58,
                    "time": 211.5625,
                    "velocity": 0.5511811023622047,
                    "duration": 0.3125
                },
                {
                    "name": "A4",
                    "midi": 69,
                    "time": 211.875,
                    "velocity": 0.6299212598425197,
                    "duration": 0.3125
                },
                {
                    "name": "A3",
                    "midi": 57,
                    "time": 211.875,
                    "velocity": 0.5511811023622047,
                    "duration": 0.3125
                },
                {
                    "name": "C4",
                    "midi": 60,
                    "time": 211.875,
                    "velocity": 0.5511811023622047,
                    "duration": 0.3125
                },
                {
                    "name": "C3",
                    "midi": 48,
                    "time": 212.1875,
                    "velocity": 0.6299212598425197,
                    "duration": 0.625
                },
                {
                    "name": "C4",
                    "midi": 60,
                    "time": 212.1875,
                    "velocity": 0.6299212598425197,
                    "duration": 0.625
                },
                {
                    "name": "F1",
                    "midi": 29,
                    "time": 212.1875,
                    "velocity": 0.6299212598425197,
                    "duration": 0.625
                },
                {
                    "name": "F2",
                    "midi": 41,
                    "time": 212.1875,
                    "velocity": 0.6299212598425197,
                    "duration": 0.625
                },
                {
                    "name": "F3",
                    "midi": 53,
                    "time": 212.5,
                    "velocity": 0.5511811023622047,
                    "duration": 0.3125
                },
                {
                    "name": "A3",
                    "midi": 57,
                    "time": 212.5,
                    "velocity": 0.5511811023622047,
                    "duration": 0.3125
                },
                {
                    "name": "D3",
                    "midi": 50,
                    "time": 212.8125,
                    "velocity": 0.6299212598425197,
                    "duration": 0.625
                },
                {
                    "name": "D4",
                    "midi": 62,
                    "time": 212.8125,
                    "velocity": 0.6299212598425197,
                    "duration": 0.625
                },
                {
                    "name": "G1",
                    "midi": 31,
                    "time": 212.8125,
                    "velocity": 0.6299212598425197,
                    "duration": 0.625
                },
                {
                    "name": "G2",
                    "midi": 43,
                    "time": 212.8125,
                    "velocity": 0.6299212598425197,
                    "duration": 0.625
                },
                {
                    "name": "G3",
                    "midi": 55,
                    "time": 213.125,
                    "velocity": 0.5511811023622047,
                    "duration": 0.3125
                },
                {
                    "name": "A#3",
                    "midi": 58,
                    "time": 213.125,
                    "velocity": 0.5511811023622047,
                    "duration": 0.3125
                },
                {
                    "name": "A3",
                    "midi": 57,
                    "time": 213.4375,
                    "velocity": 0.6299212598425197,
                    "duration": 0.625
                },
                {
                    "name": "A4",
                    "midi": 69,
                    "time": 213.4375,
                    "velocity": 0.6299212598425197,
                    "duration": 0.625
                },
                {
                    "name": "C1",
                    "midi": 24,
                    "time": 213.4375,
                    "velocity": 0.6299212598425197,
                    "duration": 1.25
                },
                {
                    "name": "C2",
                    "midi": 36,
                    "time": 213.4375,
                    "velocity": 0.6299212598425197,
                    "duration": 1.25
                },
                {
                    "name": "D4",
                    "midi": 62,
                    "time": 213.75,
                    "velocity": 0.5511811023622047,
                    "duration": 0.3125
                },
                {
                    "name": "E4",
                    "midi": 64,
                    "time": 213.75,
                    "velocity": 0.5511811023622047,
                    "duration": 0.3125
                },
                {
                    "name": "G4",
                    "midi": 67,
                    "time": 214.0625,
                    "velocity": 0.6299212598425197,
                    "duration": 0.3125
                },
                {
                    "name": "G3",
                    "midi": 55,
                    "time": 214.0625,
                    "velocity": 0.5511811023622047,
                    "duration": 0.3125
                },
                {
                    "name": "A#3",
                    "midi": 58,
                    "time": 214.0625,
                    "velocity": 0.5511811023622047,
                    "duration": 0.3125
                },
                {
                    "name": "A4",
                    "midi": 69,
                    "time": 214.375,
                    "velocity": 0.6299212598425197,
                    "duration": 0.3125
                },
                {
                    "name": "A3",
                    "midi": 57,
                    "time": 214.375,
                    "velocity": 0.5511811023622047,
                    "duration": 0.3125
                },
                {
                    "name": "C4",
                    "midi": 60,
                    "time": 214.375,
                    "velocity": 0.5511811023622047,
                    "duration": 0.3125
                },
                {
                    "name": "G2",
                    "midi": 43,
                    "time": 214.6875,
                    "velocity": 0.5511811023622047,
                    "duration": 0.625
                },
                {
                    "name": "F3",
                    "midi": 53,
                    "time": 215,
                    "velocity": 0.5275590551181102,
                    "duration": 0.3125
                },
                {
                    "name": "A#3",
                    "midi": 58,
                    "time": 215,
                    "velocity": 0.5275590551181102,
                    "duration": 0.3125
                },
                {
                    "name": "D4",
                    "midi": 62,
                    "time": 215,
                    "velocity": 0.5275590551181102,
                    "duration": 0.3125
                },
                {
                    "name": "E3",
                    "midi": 52,
                    "time": 215.3125,
                    "velocity": 0.5118110236220472,
                    "duration": 0.3125
                },
                {
                    "name": "A3",
                    "midi": 57,
                    "time": 215.3125,
                    "velocity": 0.5118110236220472,
                    "duration": 0.3125
                },
                {
                    "name": "C4",
                    "midi": 60,
                    "time": 215.3125,
                    "velocity": 0.5118110236220472,
                    "duration": 0.3125
                },
                {
                    "name": "D3",
                    "midi": 50,
                    "time": 215.3125,
                    "velocity": 0.5118110236220472,
                    "duration": 0.3125
                },
                {
                    "name": "F3",
                    "midi": 53,
                    "time": 215.625,
                    "velocity": 0.4881889763779528,
                    "duration": 0.3125
                },
                {
                    "name": "A#3",
                    "midi": 58,
                    "time": 215.625,
                    "velocity": 0.4881889763779528,
                    "duration": 0.3125
                },
                {
                    "name": "D4",
                    "midi": 62,
                    "time": 215.625,
                    "velocity": 0.4881889763779528,
                    "duration": 0.3125
                },
                {
                    "name": "G3",
                    "midi": 55,
                    "time": 215.625,
                    "velocity": 0.4881889763779528,
                    "duration": 0.3125
                },
                {
                    "name": "G4",
                    "midi": 67,
                    "time": 215.9375,
                    "velocity": 0.47244094488188976,
                    "duration": 0.625
                },
                {
                    "name": "F4",
                    "midi": 65,
                    "time": 216.25,
                    "velocity": 0.44881889763779526,
                    "duration": 0.3125
                },
                {
                    "name": "A#4",
                    "midi": 70,
                    "time": 216.25,
                    "velocity": 0.44881889763779526,
                    "duration": 0.3125
                },
                {
                    "name": "D5",
                    "midi": 74,
                    "time": 216.25,
                    "velocity": 0.44881889763779526,
                    "duration": 0.3125
                },
                {
                    "name": "E4",
                    "midi": 64,
                    "time": 216.5625,
                    "velocity": 0.4330708661417323,
                    "duration": 0.3125
                },
                {
                    "name": "A4",
                    "midi": 69,
                    "time": 216.5625,
                    "velocity": 0.4330708661417323,
                    "duration": 0.3125
                },
                {
                    "name": "C5",
                    "midi": 72,
                    "time": 216.5625,
                    "velocity": 0.4330708661417323,
                    "duration": 0.3125
                },
                {
                    "name": "D4",
                    "midi": 62,
                    "time": 216.5625,
                    "velocity": 0.4330708661417323,
                    "duration": 0.3125
                },
                {
                    "name": "F4",
                    "midi": 65,
                    "time": 216.875,
                    "velocity": 0.4094488188976378,
                    "duration": 0.3125
                },
                {
                    "name": "A#4",
                    "midi": 70,
                    "time": 216.875,
                    "velocity": 0.4094488188976378,
                    "duration": 0.3125
                },
                {
                    "name": "D5",
                    "midi": 74,
                    "time": 216.875,
                    "velocity": 0.4094488188976378,
                    "duration": 0.3125
                },
                {
                    "name": "G4",
                    "midi": 67,
                    "time": 216.875,
                    "velocity": 0.4094488188976378,
                    "duration": 0.3125
                },
                {
                    "name": "G4",
                    "midi": 67,
                    "time": 217.1875,
                    "velocity": 0.3937007874015748,
                    "duration": 0.625
                },
                {
                    "name": "F4",
                    "midi": 65,
                    "time": 217.5,
                    "velocity": 0.3700787401574803,
                    "duration": 0.3125
                },
                {
                    "name": "A#4",
                    "midi": 70,
                    "time": 217.5,
                    "velocity": 0.3700787401574803,
                    "duration": 0.3125
                },
                {
                    "name": "D5",
                    "midi": 74,
                    "time": 217.5,
                    "velocity": 0.3700787401574803,
                    "duration": 0.3125
                },
                {
                    "name": "E4",
                    "midi": 64,
                    "time": 217.8125,
                    "velocity": 0.3543307086614173,
                    "duration": 0.3125
                },
                {
                    "name": "A4",
                    "midi": 69,
                    "time": 217.8125,
                    "velocity": 0.3543307086614173,
                    "duration": 0.3125
                },
                {
                    "name": "C5",
                    "midi": 72,
                    "time": 217.8125,
                    "velocity": 0.3543307086614173,
                    "duration": 0.3125
                },
                {
                    "name": "D4",
                    "midi": 62,
                    "time": 217.8125,
                    "velocity": 0.3543307086614173,
                    "duration": 0.3125
                },
                {
                    "name": "F4",
                    "midi": 65,
                    "time": 218.125,
                    "velocity": 0.33070866141732286,
                    "duration": 0.3125
                },
                {
                    "name": "A#4",
                    "midi": 70,
                    "time": 218.125,
                    "velocity": 0.33070866141732286,
                    "duration": 0.3125
                },
                {
                    "name": "D5",
                    "midi": 74,
                    "time": 218.125,
                    "velocity": 0.33070866141732286,
                    "duration": 0.3125
                },
                {
                    "name": "G4",
                    "midi": 67,
                    "time": 218.125,
                    "velocity": 0.33070866141732286,
                    "duration": 0.3125
                },
                {
                    "name": "G4",
                    "midi": 67,
                    "time": 218.4375,
                    "velocity": 0.31496062992125984,
                    "duration": 0.625
                },
                {
                    "name": "F4",
                    "midi": 65,
                    "time": 218.75,
                    "velocity": 0.29133858267716534,
                    "duration": 0.3125
                },
                {
                    "name": "A#4",
                    "midi": 70,
                    "time": 218.75,
                    "velocity": 0.29133858267716534,
                    "duration": 0.3125
                },
                {
                    "name": "D5",
                    "midi": 74,
                    "time": 218.75,
                    "velocity": 0.29133858267716534,
                    "duration": 0.3125
                },
                {
                    "name": "E4",
                    "midi": 64,
                    "time": 219.0625,
                    "velocity": 0.2755905511811024,
                    "duration": 0.3125
                },
                {
                    "name": "A4",
                    "midi": 69,
                    "time": 219.0625,
                    "velocity": 0.2755905511811024,
                    "duration": 0.3125
                },
                {
                    "name": "C5",
                    "midi": 72,
                    "time": 219.0625,
                    "velocity": 0.2755905511811024,
                    "duration": 0.3125
                },
                {
                    "name": "D4",
                    "midi": 62,
                    "time": 219.0625,
                    "velocity": 0.2755905511811024,
                    "duration": 0.3125
                },
                {
                    "name": "F4",
                    "midi": 65,
                    "time": 219.375,
                    "velocity": 0.25196850393700787,
                    "duration": 0.3125
                },
                {
                    "name": "A#4",
                    "midi": 70,
                    "time": 219.375,
                    "velocity": 0.25196850393700787,
                    "duration": 0.3125
                },
                {
                    "name": "D5",
                    "midi": 74,
                    "time": 219.375,
                    "velocity": 0.25196850393700787,
                    "duration": 0.3125
                },
                {
                    "name": "G4",
                    "midi": 67,
                    "time": 219.375,
                    "velocity": 0.25196850393700787,
                    "duration": 0.3125
                },
                {
                    "name": "A5",
                    "midi": 81,
                    "time": 219.6875,
                    "velocity": 0.5118110236220472,
                    "duration": 1.875
                },
                {
                    "name": "A4",
                    "midi": 69,
                    "time": 219.6875,
                    "velocity": 0.11811023622047244,
                    "duration": 0.3125
                },
                {
                    "name": "D5",
                    "midi": 74,
                    "time": 219.6875,
                    "velocity": 0.11811023622047244,
                    "duration": 0.3125
                },
                {
                    "name": "F5",
                    "midi": 77,
                    "time": 219.6875,
                    "velocity": 0.11811023622047244,
                    "duration": 0.3125
                },
                {
                    "name": "G2",
                    "midi": 43,
                    "time": 219.6875,
                    "velocity": 0.31496062992125984,
                    "duration": 0.9375
                },
                {
                    "name": "D3",
                    "midi": 50,
                    "time": 219.6875,
                    "velocity": 0.31496062992125984,
                    "duration": 0.9375
                },
                {
                    "name": "A#3",
                    "midi": 58,
                    "time": 219.6875,
                    "velocity": 0.31496062992125984,
                    "duration": 0.9375
                },
                {
                    "name": "F4",
                    "midi": 65,
                    "time": 220,
                    "velocity": 0.11811023622047244,
                    "duration": 0.3125
                },
                {
                    "name": "A#4",
                    "midi": 70,
                    "time": 220,
                    "velocity": 0.11811023622047244,
                    "duration": 0.3125
                },
                {
                    "name": "D5",
                    "midi": 74,
                    "time": 220,
                    "velocity": 0.11811023622047244,
                    "duration": 0.3125
                },
                {
                    "name": "D4",
                    "midi": 62,
                    "time": 220.3125,
                    "velocity": 0.11811023622047244,
                    "duration": 0.3125
                },
                {
                    "name": "G4",
                    "midi": 67,
                    "time": 220.3125,
                    "velocity": 0.11811023622047244,
                    "duration": 0.3125
                },
                {
                    "name": "F4",
                    "midi": 65,
                    "time": 220.625,
                    "velocity": 0.11811023622047244,
                    "duration": 0.3125
                },
                {
                    "name": "A#4",
                    "midi": 70,
                    "time": 220.625,
                    "velocity": 0.11811023622047244,
                    "duration": 0.3125
                },
                {
                    "name": "D5",
                    "midi": 74,
                    "time": 220.625,
                    "velocity": 0.11811023622047244,
                    "duration": 0.3125
                },
                {
                    "name": "D4",
                    "midi": 62,
                    "time": 220.9375,
                    "velocity": 0.11811023622047244,
                    "duration": 0.15625
                },
                {
                    "name": "G4",
                    "midi": 67,
                    "time": 220.9375,
                    "velocity": 0.11811023622047244,
                    "duration": 0.15625
                },
                {
                    "name": "F4",
                    "midi": 65,
                    "time": 221.09375,
                    "velocity": 0.11811023622047244,
                    "duration": 0.15625
                },
                {
                    "name": "A#4",
                    "midi": 70,
                    "time": 221.09375,
                    "velocity": 0.11811023622047244,
                    "duration": 0.15625
                },
                {
                    "name": "D5",
                    "midi": 74,
                    "time": 221.09375,
                    "velocity": 0.11811023622047244,
                    "duration": 0.15625
                },
                {
                    "name": "D4",
                    "midi": 62,
                    "time": 221.25,
                    "velocity": 0.11811023622047244,
                    "duration": 0.3125
                },
                {
                    "name": "G4",
                    "midi": 67,
                    "time": 221.25,
                    "velocity": 0.11811023622047244,
                    "duration": 0.3125
                },
                {
                    "name": "A5",
                    "midi": 81,
                    "time": 221.5625,
                    "velocity": 0.5118110236220472,
                    "duration": 1.875
                },
                {
                    "name": "A4",
                    "midi": 69,
                    "time": 221.5625,
                    "velocity": 0.11811023622047244,
                    "duration": 0.3125
                },
                {
                    "name": "D5",
                    "midi": 74,
                    "time": 221.5625,
                    "velocity": 0.11811023622047244,
                    "duration": 0.3125
                },
                {
                    "name": "F5",
                    "midi": 77,
                    "time": 221.5625,
                    "velocity": 0.11811023622047244,
                    "duration": 0.3125
                },
                {
                    "name": "G2",
                    "midi": 43,
                    "time": 221.5625,
                    "velocity": 0.31496062992125984,
                    "duration": 0.9375
                },
                {
                    "name": "D3",
                    "midi": 50,
                    "time": 221.5625,
                    "velocity": 0.31496062992125984,
                    "duration": 0.9375
                },
                {
                    "name": "A#3",
                    "midi": 58,
                    "time": 221.5625,
                    "velocity": 0.31496062992125984,
                    "duration": 0.9375
                },
                {
                    "name": "F4",
                    "midi": 65,
                    "time": 221.875,
                    "velocity": 0.11811023622047244,
                    "duration": 0.3125
                },
                {
                    "name": "A#4",
                    "midi": 70,
                    "time": 221.875,
                    "velocity": 0.11811023622047244,
                    "duration": 0.3125
                },
                {
                    "name": "D5",
                    "midi": 74,
                    "time": 221.875,
                    "velocity": 0.11811023622047244,
                    "duration": 0.3125
                },
                {
                    "name": "D4",
                    "midi": 62,
                    "time": 222.1875,
                    "velocity": 0.11811023622047244,
                    "duration": 0.3125
                },
                {
                    "name": "G4",
                    "midi": 67,
                    "time": 222.1875,
                    "velocity": 0.11811023622047244,
                    "duration": 0.3125
                },
                {
                    "name": "F4",
                    "midi": 65,
                    "time": 222.5,
                    "velocity": 0.11811023622047244,
                    "duration": 0.3125
                },
                {
                    "name": "A#4",
                    "midi": 70,
                    "time": 222.5,
                    "velocity": 0.11811023622047244,
                    "duration": 0.3125
                },
                {
                    "name": "D5",
                    "midi": 74,
                    "time": 222.5,
                    "velocity": 0.11811023622047244,
                    "duration": 0.3125
                },
                {
                    "name": "D4",
                    "midi": 62,
                    "time": 222.8125,
                    "velocity": 0.11811023622047244,
                    "duration": 0.15625
                },
                {
                    "name": "G4",
                    "midi": 67,
                    "time": 222.8125,
                    "velocity": 0.11811023622047244,
                    "duration": 0.15625
                },
                {
                    "name": "F4",
                    "midi": 65,
                    "time": 222.96875,
                    "velocity": 0.11811023622047244,
                    "duration": 0.15625
                },
                {
                    "name": "A#4",
                    "midi": 70,
                    "time": 222.96875,
                    "velocity": 0.11811023622047244,
                    "duration": 0.15625
                },
                {
                    "name": "D5",
                    "midi": 74,
                    "time": 222.96875,
                    "velocity": 0.11811023622047244,
                    "duration": 0.15625
                },
                {
                    "name": "D4",
                    "midi": 62,
                    "time": 223.125,
                    "velocity": 0.11811023622047244,
                    "duration": 0.3125
                },
                {
                    "name": "G4",
                    "midi": 67,
                    "time": 223.125,
                    "velocity": 0.11811023622047244,
                    "duration": 0.3125
                },
                {
                    "name": "A5",
                    "midi": 81,
                    "time": 223.4375,
                    "velocity": 0.31496062992125984,
                    "duration": 0.3125
                },
                {
                    "name": "A#5",
                    "midi": 82,
                    "time": 223.75,
                    "velocity": 0.4094488188976378,
                    "duration": 0.3125
                },
                {
                    "name": "F4",
                    "midi": 65,
                    "time": 223.75,
                    "velocity": 0.23622047244094488,
                    "duration": 0.625
                },
                {
                    "name": "A#4",
                    "midi": 70,
                    "time": 223.75,
                    "velocity": 0.23622047244094488,
                    "duration": 0.625
                },
                {
                    "name": "D5",
                    "midi": 74,
                    "time": 223.75,
                    "velocity": 0.23622047244094488,
                    "duration": 0.3125
                },
                {
                    "name": "C6",
                    "midi": 84,
                    "time": 224.0625,
                    "velocity": 0.5039370078740157,
                    "duration": 0.3125
                },
                {
                    "name": "D4",
                    "midi": 62,
                    "time": 224.0625,
                    "velocity": 0.23622047244094488,
                    "duration": 0.3125
                },
                {
                    "name": "A5",
                    "midi": 81,
                    "time": 224.375,
                    "velocity": 0.5039370078740157,
                    "duration": 0.3125
                },
                {
                    "name": "A3",
                    "midi": 57,
                    "time": 224.375,
                    "velocity": 0.23622047244094488,
                    "duration": 0.3125
                },
                {
                    "name": "C4",
                    "midi": 60,
                    "time": 224.375,
                    "velocity": 0.23622047244094488,
                    "duration": 0.3125
                },
                {
                    "name": "E4",
                    "midi": 64,
                    "time": 224.375,
                    "velocity": 0.23622047244094488,
                    "duration": 0.3125
                },
                {
                    "name": "G5",
                    "midi": 79,
                    "time": 224.6875,
                    "velocity": 0.3700787401574803,
                    "duration": 0.3125
                },
                {
                    "name": "F3",
                    "midi": 53,
                    "time": 224.6875,
                    "velocity": 0.23622047244094488,
                    "duration": 0.46875
                },
                {
                    "name": "A#3",
                    "midi": 58,
                    "time": 224.6875,
                    "velocity": 0.23622047244094488,
                    "duration": 0.46875
                },
                {
                    "name": "D4",
                    "midi": 62,
                    "time": 224.6875,
                    "velocity": 0.23622047244094488,
                    "duration": 0.46875
                },
                {
                    "name": "D5",
                    "midi": 74,
                    "time": 225,
                    "velocity": 0.23622047244094488,
                    "duration": 0.3125
                },
                {
                    "name": "A5",
                    "midi": 81,
                    "time": 225.3125,
                    "velocity": 0.2755905511811024,
                    "duration": 0.3125
                },
                {
                    "name": "A#5",
                    "midi": 82,
                    "time": 225.625,
                    "velocity": 0.3937007874015748,
                    "duration": 0.3125
                },
                {
                    "name": "E4",
                    "midi": 64,
                    "time": 225.625,
                    "velocity": 0.23622047244094488,
                    "duration": 0.3125
                },
                {
                    "name": "A4",
                    "midi": 69,
                    "time": 225.625,
                    "velocity": 0.23622047244094488,
                    "duration": 0.3125
                },
                {
                    "name": "C5",
                    "midi": 72,
                    "time": 225.625,
                    "velocity": 0.23622047244094488,
                    "duration": 0.3125
                },
                {
                    "name": "C6",
                    "midi": 84,
                    "time": 225.9375,
                    "velocity": 0.5039370078740157,
                    "duration": 0.3125
                },
                {
                    "name": "F4",
                    "midi": 65,
                    "time": 225.9375,
                    "velocity": 0.23622047244094488,
                    "duration": 0.3125
                },
                {
                    "name": "A#4",
                    "midi": 70,
                    "time": 225.9375,
                    "velocity": 0.23622047244094488,
                    "duration": 0.3125
                },
                {
                    "name": "D5",
                    "midi": 74,
                    "time": 225.9375,
                    "velocity": 0.23622047244094488,
                    "duration": 0.3125
                },
                {
                    "name": "A5",
                    "midi": 81,
                    "time": 226.09375,
                    "velocity": 0.5039370078740157,
                    "duration": 0.078125
                },
                {
                    "name": "A#5",
                    "midi": 82,
                    "time": 226.171875,
                    "velocity": 0.5039370078740157,
                    "duration": 0.078125
                },
                {
                    "name": "A5",
                    "midi": 81,
                    "time": 226.25,
                    "velocity": 0.5039370078740157,
                    "duration": 0.3125
                },
                {
                    "name": "D4",
                    "midi": 62,
                    "time": 226.25,
                    "velocity": 0.23622047244094488,
                    "duration": 0.3125
                },
                {
                    "name": "G4",
                    "midi": 67,
                    "time": 226.25,
                    "velocity": 0.23622047244094488,
                    "duration": 0.3125
                },
                {
                    "name": "A#4",
                    "midi": 70,
                    "time": 226.25,
                    "velocity": 0.23622047244094488,
                    "duration": 0.3125
                },
                {
                    "name": "G5",
                    "midi": 79,
                    "time": 226.5625,
                    "velocity": 0.3700787401574803,
                    "duration": 0.3125
                },
                {
                    "name": "C4",
                    "midi": 60,
                    "time": 226.5625,
                    "velocity": 0.23622047244094488,
                    "duration": 0.3125
                },
                {
                    "name": "F4",
                    "midi": 65,
                    "time": 226.5625,
                    "velocity": 0.23622047244094488,
                    "duration": 0.3125
                },
                {
                    "name": "A4",
                    "midi": 69,
                    "time": 226.5625,
                    "velocity": 0.23622047244094488,
                    "duration": 0.3125
                },
                {
                    "name": "D5",
                    "midi": 74,
                    "time": 226.875,
                    "velocity": 0.23622047244094488,
                    "duration": 0.3125
                },
                {
                    "name": "B3",
                    "midi": 59,
                    "time": 226.875,
                    "velocity": 0.23622047244094488,
                    "duration": 0.3125
                },
                {
                    "name": "E4",
                    "midi": 64,
                    "time": 226.875,
                    "velocity": 0.23622047244094488,
                    "duration": 0.3125
                },
                {
                    "name": "G4",
                    "midi": 67,
                    "time": 226.875,
                    "velocity": 0.23622047244094488,
                    "duration": 0.3125
                },
                {
                    "name": "A5",
                    "midi": 81,
                    "time": 227.1875,
                    "velocity": 0.5118110236220472,
                    "duration": 1.875
                },
                {
                    "name": "A4",
                    "midi": 69,
                    "time": 227.1875,
                    "velocity": 0.11811023622047244,
                    "duration": 0.3125
                },
                {
                    "name": "D5",
                    "midi": 74,
                    "time": 227.1875,
                    "velocity": 0.11811023622047244,
                    "duration": 0.3125
                },
                {
                    "name": "F5",
                    "midi": 77,
                    "time": 227.1875,
                    "velocity": 0.11811023622047244,
                    "duration": 0.3125
                },
                {
                    "name": "G2",
                    "midi": 43,
                    "time": 227.1875,
                    "velocity": 0.31496062992125984,
                    "duration": 0.9375
                },
                {
                    "name": "D3",
                    "midi": 50,
                    "time": 227.1875,
                    "velocity": 0.31496062992125984,
                    "duration": 0.9375
                },
                {
                    "name": "A#3",
                    "midi": 58,
                    "time": 227.1875,
                    "velocity": 0.31496062992125984,
                    "duration": 0.9375
                },
                {
                    "name": "F4",
                    "midi": 65,
                    "time": 227.5,
                    "velocity": 0.11811023622047244,
                    "duration": 0.3125
                },
                {
                    "name": "A#4",
                    "midi": 70,
                    "time": 227.5,
                    "velocity": 0.11811023622047244,
                    "duration": 0.3125
                },
                {
                    "name": "D5",
                    "midi": 74,
                    "time": 227.5,
                    "velocity": 0.11811023622047244,
                    "duration": 0.3125
                },
                {
                    "name": "D4",
                    "midi": 62,
                    "time": 227.8125,
                    "velocity": 0.11811023622047244,
                    "duration": 0.3125
                },
                {
                    "name": "G4",
                    "midi": 67,
                    "time": 227.8125,
                    "velocity": 0.11811023622047244,
                    "duration": 0.3125
                },
                {
                    "name": "F4",
                    "midi": 65,
                    "time": 228.125,
                    "velocity": 0.11811023622047244,
                    "duration": 0.3125
                },
                {
                    "name": "A#4",
                    "midi": 70,
                    "time": 228.125,
                    "velocity": 0.11811023622047244,
                    "duration": 0.3125
                },
                {
                    "name": "D5",
                    "midi": 74,
                    "time": 228.125,
                    "velocity": 0.11811023622047244,
                    "duration": 0.3125
                },
                {
                    "name": "D4",
                    "midi": 62,
                    "time": 228.4375,
                    "velocity": 0.11811023622047244,
                    "duration": 0.15625
                },
                {
                    "name": "G4",
                    "midi": 67,
                    "time": 228.4375,
                    "velocity": 0.11811023622047244,
                    "duration": 0.15625
                },
                {
                    "name": "F4",
                    "midi": 65,
                    "time": 228.59375,
                    "velocity": 0.11811023622047244,
                    "duration": 0.15625
                },
                {
                    "name": "A#4",
                    "midi": 70,
                    "time": 228.59375,
                    "velocity": 0.11811023622047244,
                    "duration": 0.15625
                },
                {
                    "name": "D5",
                    "midi": 74,
                    "time": 228.59375,
                    "velocity": 0.11811023622047244,
                    "duration": 0.15625
                },
                {
                    "name": "D4",
                    "midi": 62,
                    "time": 228.75,
                    "velocity": 0.11811023622047244,
                    "duration": 0.3125
                },
                {
                    "name": "G4",
                    "midi": 67,
                    "time": 228.75,
                    "velocity": 0.11811023622047244,
                    "duration": 0.3125
                },
                {
                    "name": "A5",
                    "midi": 81,
                    "time": 229.0625,
                    "velocity": 0.5118110236220472,
                    "duration": 1.875
                },
                {
                    "name": "A4",
                    "midi": 69,
                    "time": 229.0625,
                    "velocity": 0.11811023622047244,
                    "duration": 0.3125
                },
                {
                    "name": "D5",
                    "midi": 74,
                    "time": 229.0625,
                    "velocity": 0.11811023622047244,
                    "duration": 0.3125
                },
                {
                    "name": "F5",
                    "midi": 77,
                    "time": 229.0625,
                    "velocity": 0.11811023622047244,
                    "duration": 0.3125
                },
                {
                    "name": "G2",
                    "midi": 43,
                    "time": 229.0625,
                    "velocity": 0.31496062992125984,
                    "duration": 0.9375
                },
                {
                    "name": "D3",
                    "midi": 50,
                    "time": 229.0625,
                    "velocity": 0.31496062992125984,
                    "duration": 0.9375
                },
                {
                    "name": "A#3",
                    "midi": 58,
                    "time": 229.0625,
                    "velocity": 0.31496062992125984,
                    "duration": 0.9375
                },
                {
                    "name": "F4",
                    "midi": 65,
                    "time": 229.375,
                    "velocity": 0.11811023622047244,
                    "duration": 0.3125
                },
                {
                    "name": "A#4",
                    "midi": 70,
                    "time": 229.375,
                    "velocity": 0.11811023622047244,
                    "duration": 0.3125
                },
                {
                    "name": "D5",
                    "midi": 74,
                    "time": 229.375,
                    "velocity": 0.11811023622047244,
                    "duration": 0.3125
                },
                {
                    "name": "D4",
                    "midi": 62,
                    "time": 229.6875,
                    "velocity": 0.11811023622047244,
                    "duration": 0.3125
                },
                {
                    "name": "G4",
                    "midi": 67,
                    "time": 229.6875,
                    "velocity": 0.11811023622047244,
                    "duration": 0.3125
                },
                {
                    "name": "A4",
                    "midi": 69,
                    "time": 230,
                    "velocity": 0.11811023622047244,
                    "duration": 0.3125
                },
                {
                    "name": "D5",
                    "midi": 74,
                    "time": 230,
                    "velocity": 0.11811023622047244,
                    "duration": 0.3125
                },
                {
                    "name": "F5",
                    "midi": 77,
                    "time": 230,
                    "velocity": 0.11811023622047244,
                    "duration": 0.3125
                },
                {
                    "name": "F4",
                    "midi": 65,
                    "time": 230.3125,
                    "velocity": 0.11811023622047244,
                    "duration": 0.3125
                },
                {
                    "name": "A#4",
                    "midi": 70,
                    "time": 230.3125,
                    "velocity": 0.11811023622047244,
                    "duration": 0.3125
                },
                {
                    "name": "D5",
                    "midi": 74,
                    "time": 230.3125,
                    "velocity": 0.11811023622047244,
                    "duration": 0.3125
                },
                {
                    "name": "D4",
                    "midi": 62,
                    "time": 230.625,
                    "velocity": 0.11811023622047244,
                    "duration": 0.3125
                },
                {
                    "name": "G4",
                    "midi": 67,
                    "time": 230.625,
                    "velocity": 0.11811023622047244,
                    "duration": 0.3125
                },
                {
                    "name": "E5",
                    "midi": 76,
                    "time": 230.9375,
                    "velocity": 0.15748031496062992,
                    "duration": 0.15625
                },
                {
                    "name": "E4",
                    "midi": 64,
                    "time": 230.9375,
                    "velocity": 0.15748031496062992,
                    "duration": 0.3125
                },
                {
                    "name": "F5",
                    "midi": 77,
                    "time": 231.09375,
                    "velocity": 0.15748031496062992,
                    "duration": 0.15625
                },
                {
                    "name": "G5",
                    "midi": 79,
                    "time": 231.25,
                    "velocity": 0.15748031496062992,
                    "duration": 0.15625
                },
                {
                    "name": "F3",
                    "midi": 53,
                    "time": 231.25,
                    "velocity": 0.15748031496062992,
                    "duration": 0.3125
                },
                {
                    "name": "E5",
                    "midi": 76,
                    "time": 231.40625,
                    "velocity": 0.15748031496062992,
                    "duration": 0.15625
                },
                {
                    "name": "F5",
                    "midi": 77,
                    "time": 231.5625,
                    "velocity": 0.15748031496062992,
                    "duration": 0.15625
                },
                {
                    "name": "A3",
                    "midi": 57,
                    "time": 231.5625,
                    "velocity": 0.15748031496062992,
                    "duration": 0.3125
                },
                {
                    "name": "G5",
                    "midi": 79,
                    "time": 231.71875,
                    "velocity": 0.15748031496062992,
                    "duration": 0.15625
                },
                {
                    "name": "E5",
                    "midi": 76,
                    "time": 231.875,
                    "velocity": 0.15748031496062992,
                    "duration": 0.15625
                },
                {
                    "name": "C3",
                    "midi": 48,
                    "time": 231.875,
                    "velocity": 0.15748031496062992,
                    "duration": 0.3125
                },
                {
                    "name": "F5",
                    "midi": 77,
                    "time": 232.03125,
                    "velocity": 0.15748031496062992,
                    "duration": 0.15625
                },
                {
                    "name": "G5",
                    "midi": 79,
                    "time": 232.1875,
                    "velocity": 0.15748031496062992,
                    "duration": 0.15625
                },
                {
                    "name": "F2",
                    "midi": 41,
                    "time": 232.1875,
                    "velocity": 0.15748031496062992,
                    "duration": 0.3125
                },
                {
                    "name": "E5",
                    "midi": 76,
                    "time": 232.34375,
                    "velocity": 0.15748031496062992,
                    "duration": 0.15625
                },
                {
                    "name": "F5",
                    "midi": 77,
                    "time": 232.5,
                    "velocity": 0.15748031496062992,
                    "duration": 0.15625
                },
                {
                    "name": "A3",
                    "midi": 57,
                    "time": 232.5,
                    "velocity": 0.15748031496062992,
                    "duration": 0.3125
                },
                {
                    "name": "G5",
                    "midi": 79,
                    "time": 232.65625,
                    "velocity": 0.15748031496062992,
                    "duration": 0.15625
                },
                {
                    "name": "E5",
                    "midi": 76,
                    "time": 232.8125,
                    "velocity": 0.15748031496062992,
                    "duration": 0.179443359375
                },
                {
                    "name": "E4",
                    "midi": 64,
                    "time": 232.8125,
                    "velocity": 0.15748031496062992,
                    "duration": 0.3125
                },
                {
                    "name": "F5",
                    "midi": 77,
                    "time": 232.96875,
                    "velocity": 0.15748031496062992,
                    "duration": 0.15625
                },
                {
                    "name": "G5",
                    "midi": 79,
                    "time": 233.125,
                    "velocity": 0.15748031496062992,
                    "duration": 0.15625
                },
                {
                    "name": "F3",
                    "midi": 53,
                    "time": 233.125,
                    "velocity": 0.15748031496062992,
                    "duration": 0.3125
                },
                {
                    "name": "E5",
                    "midi": 76,
                    "time": 233.28125,
                    "velocity": 0.15748031496062992,
                    "duration": 0.15625
                },
                {
                    "name": "F5",
                    "midi": 77,
                    "time": 233.4375,
                    "velocity": 0.15748031496062992,
                    "duration": 0.15625
                },
                {
                    "name": "A3",
                    "midi": 57,
                    "time": 233.4375,
                    "velocity": 0.15748031496062992,
                    "duration": 0.3125
                },
                {
                    "name": "G5",
                    "midi": 79,
                    "time": 233.59375,
                    "velocity": 0.15748031496062992,
                    "duration": 0.15625
                },
                {
                    "name": "E5",
                    "midi": 76,
                    "time": 233.75,
                    "velocity": 0.15748031496062992,
                    "duration": 0.15625
                },
                {
                    "name": "C3",
                    "midi": 48,
                    "time": 233.75,
                    "velocity": 0.15748031496062992,
                    "duration": 0.3125
                },
                {
                    "name": "F5",
                    "midi": 77,
                    "time": 233.90625,
                    "velocity": 0.15748031496062992,
                    "duration": 0.15625
                },
                {
                    "name": "G5",
                    "midi": 79,
                    "time": 234.0625,
                    "velocity": 0.15748031496062992,
                    "duration": 0.15625
                },
                {
                    "name": "F2",
                    "midi": 41,
                    "time": 234.0625,
                    "velocity": 0.15748031496062992,
                    "duration": 0.3125
                },
                {
                    "name": "E5",
                    "midi": 76,
                    "time": 234.21875,
                    "velocity": 0.15748031496062992,
                    "duration": 0.15625
                },
                {
                    "name": "F5",
                    "midi": 77,
                    "time": 234.375,
                    "velocity": 0.2755905511811024,
                    "duration": 0.15625
                },
                {
                    "name": "A3",
                    "midi": 57,
                    "time": 234.375,
                    "velocity": 0.15748031496062992,
                    "duration": 0.3125
                },
                {
                    "name": "G5",
                    "midi": 79,
                    "time": 234.53125,
                    "velocity": 0.3937007874015748,
                    "duration": 0.15625
                },
                {
                    "name": "A5",
                    "midi": 81,
                    "time": 234.6875,
                    "velocity": 0.5118110236220472,
                    "duration": 1.875
                },
                {
                    "name": "A4",
                    "midi": 69,
                    "time": 234.6875,
                    "velocity": 0.11811023622047244,
                    "duration": 0.3125
                },
                {
                    "name": "D5",
                    "midi": 74,
                    "time": 234.6875,
                    "velocity": 0.11811023622047244,
                    "duration": 0.3125
                },
                {
                    "name": "F5",
                    "midi": 77,
                    "time": 234.6875,
                    "velocity": 0.11811023622047244,
                    "duration": 0.3125
                },
                {
                    "name": "G2",
                    "midi": 43,
                    "time": 234.6875,
                    "velocity": 0.31496062992125984,
                    "duration": 0.9375
                },
                {
                    "name": "D3",
                    "midi": 50,
                    "time": 234.6875,
                    "velocity": 0.31496062992125984,
                    "duration": 0.9375
                },
                {
                    "name": "A#3",
                    "midi": 58,
                    "time": 234.6875,
                    "velocity": 0.31496062992125984,
                    "duration": 0.9375
                },
                {
                    "name": "F4",
                    "midi": 65,
                    "time": 235,
                    "velocity": 0.11811023622047244,
                    "duration": 0.3125
                },
                {
                    "name": "A#4",
                    "midi": 70,
                    "time": 235,
                    "velocity": 0.11811023622047244,
                    "duration": 0.3125
                },
                {
                    "name": "D5",
                    "midi": 74,
                    "time": 235,
                    "velocity": 0.11811023622047244,
                    "duration": 0.3125
                },
                {
                    "name": "D4",
                    "midi": 62,
                    "time": 235.3125,
                    "velocity": 0.11811023622047244,
                    "duration": 0.3125
                },
                {
                    "name": "G4",
                    "midi": 67,
                    "time": 235.3125,
                    "velocity": 0.11811023622047244,
                    "duration": 0.3125
                },
                {
                    "name": "F4",
                    "midi": 65,
                    "time": 235.625,
                    "velocity": 0.11811023622047244,
                    "duration": 0.3125
                },
                {
                    "name": "A#4",
                    "midi": 70,
                    "time": 235.625,
                    "velocity": 0.11811023622047244,
                    "duration": 0.3125
                },
                {
                    "name": "D5",
                    "midi": 74,
                    "time": 235.625,
                    "velocity": 0.11811023622047244,
                    "duration": 0.3125
                },
                {
                    "name": "D4",
                    "midi": 62,
                    "time": 235.9375,
                    "velocity": 0.11811023622047244,
                    "duration": 0.15625
                },
                {
                    "name": "G4",
                    "midi": 67,
                    "time": 235.9375,
                    "velocity": 0.11811023622047244,
                    "duration": 0.15625
                },
                {
                    "name": "F4",
                    "midi": 65,
                    "time": 236.09375,
                    "velocity": 0.11811023622047244,
                    "duration": 0.15625
                },
                {
                    "name": "A#4",
                    "midi": 70,
                    "time": 236.09375,
                    "velocity": 0.11811023622047244,
                    "duration": 0.15625
                },
                {
                    "name": "D5",
                    "midi": 74,
                    "time": 236.09375,
                    "velocity": 0.11811023622047244,
                    "duration": 0.15625
                },
                {
                    "name": "D4",
                    "midi": 62,
                    "time": 236.25,
                    "velocity": 0.11811023622047244,
                    "duration": 0.3125
                },
                {
                    "name": "G4",
                    "midi": 67,
                    "time": 236.25,
                    "velocity": 0.11811023622047244,
                    "duration": 0.3125
                },
                {
                    "name": "A5",
                    "midi": 81,
                    "time": 236.5625,
                    "velocity": 0.5118110236220472,
                    "duration": 1.875
                },
                {
                    "name": "A4",
                    "midi": 69,
                    "time": 236.5625,
                    "velocity": 0.11811023622047244,
                    "duration": 0.3125
                },
                {
                    "name": "D5",
                    "midi": 74,
                    "time": 236.5625,
                    "velocity": 0.11811023622047244,
                    "duration": 0.3125
                },
                {
                    "name": "F5",
                    "midi": 77,
                    "time": 236.5625,
                    "velocity": 0.11811023622047244,
                    "duration": 0.3125
                },
                {
                    "name": "G2",
                    "midi": 43,
                    "time": 236.5625,
                    "velocity": 0.31496062992125984,
                    "duration": 0.9375
                },
                {
                    "name": "D3",
                    "midi": 50,
                    "time": 236.5625,
                    "velocity": 0.31496062992125984,
                    "duration": 0.9375
                },
                {
                    "name": "A#3",
                    "midi": 58,
                    "time": 236.5625,
                    "velocity": 0.31496062992125984,
                    "duration": 0.9375
                },
                {
                    "name": "F4",
                    "midi": 65,
                    "time": 236.875,
                    "velocity": 0.11811023622047244,
                    "duration": 0.3125
                },
                {
                    "name": "A#4",
                    "midi": 70,
                    "time": 236.875,
                    "velocity": 0.11811023622047244,
                    "duration": 0.3125
                },
                {
                    "name": "D5",
                    "midi": 74,
                    "time": 236.875,
                    "velocity": 0.11811023622047244,
                    "duration": 0.3125
                },
                {
                    "name": "D4",
                    "midi": 62,
                    "time": 237.1875,
                    "velocity": 0.11811023622047244,
                    "duration": 0.3125
                },
                {
                    "name": "G4",
                    "midi": 67,
                    "time": 237.1875,
                    "velocity": 0.11811023622047244,
                    "duration": 0.3125
                },
                {
                    "name": "F4",
                    "midi": 65,
                    "time": 237.5,
                    "velocity": 0.11811023622047244,
                    "duration": 0.3125
                },
                {
                    "name": "A#4",
                    "midi": 70,
                    "time": 237.5,
                    "velocity": 0.11811023622047244,
                    "duration": 0.3125
                },
                {
                    "name": "D5",
                    "midi": 74,
                    "time": 237.5,
                    "velocity": 0.11811023622047244,
                    "duration": 0.3125
                },
                {
                    "name": "D4",
                    "midi": 62,
                    "time": 237.8125,
                    "velocity": 0.11811023622047244,
                    "duration": 0.15625
                },
                {
                    "name": "G4",
                    "midi": 67,
                    "time": 237.8125,
                    "velocity": 0.11811023622047244,
                    "duration": 0.15625
                },
                {
                    "name": "F4",
                    "midi": 65,
                    "time": 237.96875,
                    "velocity": 0.11811023622047244,
                    "duration": 0.15625
                },
                {
                    "name": "A#4",
                    "midi": 70,
                    "time": 237.96875,
                    "velocity": 0.11811023622047244,
                    "duration": 0.15625
                },
                {
                    "name": "D5",
                    "midi": 74,
                    "time": 237.96875,
                    "velocity": 0.11811023622047244,
                    "duration": 0.15625
                },
                {
                    "name": "D4",
                    "midi": 62,
                    "time": 238.125,
                    "velocity": 0.11811023622047244,
                    "duration": 0.3125
                },
                {
                    "name": "G4",
                    "midi": 67,
                    "time": 238.125,
                    "velocity": 0.11811023622047244,
                    "duration": 0.3125
                },
                {
                    "name": "A5",
                    "midi": 81,
                    "time": 238.4375,
                    "velocity": 0.31496062992125984,
                    "duration": 0.3125
                },
                {
                    "name": "A#3",
                    "midi": 58,
                    "time": 238.4375,
                    "velocity": 0.31496062992125984,
                    "duration": 0.3125
                },
                {
                    "name": "A#5",
                    "midi": 82,
                    "time": 238.75,
                    "velocity": 0.31496062992125984,
                    "duration": 0.3125
                },
                {
                    "name": "D3",
                    "midi": 50,
                    "time": 238.75,
                    "velocity": 0.31496062992125984,
                    "duration": 0.3125
                },
                {
                    "name": "C6",
                    "midi": 84,
                    "time": 239.0625,
                    "velocity": 0.31496062992125984,
                    "duration": 0.3125
                },
                {
                    "name": "G2",
                    "midi": 43,
                    "time": 239.0625,
                    "velocity": 0.31496062992125984,
                    "duration": 0.3125
                },
                {
                    "name": "A5",
                    "midi": 81,
                    "time": 239.375,
                    "velocity": 0.31496062992125984,
                    "duration": 0.3125
                },
                {
                    "name": "A4",
                    "midi": 69,
                    "time": 239.375,
                    "velocity": 0.31496062992125984,
                    "duration": 0.3125
                },
                {
                    "name": "G5",
                    "midi": 79,
                    "time": 239.6875,
                    "velocity": 0.31496062992125984,
                    "duration": 0.3125
                },
                {
                    "name": "F4",
                    "midi": 65,
                    "time": 239.6875,
                    "velocity": 0.31496062992125984,
                    "duration": 0.3125
                },
                {
                    "name": "D5",
                    "midi": 74,
                    "time": 240,
                    "velocity": 0.31496062992125984,
                    "duration": 0.3125
                },
                {
                    "name": "A#3",
                    "midi": 58,
                    "time": 240,
                    "velocity": 0.31496062992125984,
                    "duration": 0.3125
                },
                {
                    "name": "A5",
                    "midi": 81,
                    "time": 240.3125,
                    "velocity": 0.31496062992125984,
                    "duration": 0.3125
                },
                {
                    "name": "A4",
                    "midi": 69,
                    "time": 240.3125,
                    "velocity": 0.31496062992125984,
                    "duration": 0.3125
                },
                {
                    "name": "D5",
                    "midi": 74,
                    "time": 240.625,
                    "velocity": 0.31496062992125984,
                    "duration": 0.3125
                },
                {
                    "name": "F4",
                    "midi": 65,
                    "time": 240.625,
                    "velocity": 0.31496062992125984,
                    "duration": 0.3125
                },
                {
                    "name": "E5",
                    "midi": 76,
                    "time": 240.9375,
                    "velocity": 0.31496062992125984,
                    "duration": 0.3125
                },
                {
                    "name": "B3",
                    "midi": 59,
                    "time": 240.9375,
                    "velocity": 0.31496062992125984,
                    "duration": 0.3125
                },
                {
                    "name": "G5",
                    "midi": 79,
                    "time": 241.25,
                    "velocity": 0.31496062992125984,
                    "duration": 0.3125
                },
                {
                    "name": "B3",
                    "midi": 59,
                    "time": 241.25,
                    "velocity": 0.31496062992125984,
                    "duration": 0.3125
                },
                {
                    "name": "F5",
                    "midi": 77,
                    "time": 241.40625,
                    "velocity": 0.31496062992125984,
                    "duration": 0.078125
                },
                {
                    "name": "G5",
                    "midi": 79,
                    "time": 241.484375,
                    "velocity": 0.31496062992125984,
                    "duration": 0.078125
                },
                {
                    "name": "F5",
                    "midi": 77,
                    "time": 241.5625,
                    "velocity": 0.31496062992125984,
                    "duration": 0.3125
                },
                {
                    "name": "D3",
                    "midi": 50,
                    "time": 241.5625,
                    "velocity": 0.31496062992125984,
                    "duration": 0.3125
                },
                {
                    "name": "E5",
                    "midi": 76,
                    "time": 241.875,
                    "velocity": 0.31496062992125984,
                    "duration": 0.269775390625
                },
                {
                    "name": "G2",
                    "midi": 43,
                    "time": 241.875,
                    "velocity": 0.31496062992125984,
                    "duration": 0.269775390625
                },
                {
                    "name": "A5",
                    "midi": 81,
                    "time": 242.1875,
                    "velocity": 0.31496062992125984,
                    "duration": 0.3125
                },
                {
                    "name": "A#3",
                    "midi": 58,
                    "time": 242.1875,
                    "velocity": 0.31496062992125984,
                    "duration": 0.3125
                },
                {
                    "name": "A#5",
                    "midi": 82,
                    "time": 242.5,
                    "velocity": 0.30708661417322836,
                    "duration": 0.3125
                },
                {
                    "name": "D3",
                    "midi": 50,
                    "time": 242.5,
                    "velocity": 0.30708661417322836,
                    "duration": 0.3125
                },
                {
                    "name": "C6",
                    "midi": 84,
                    "time": 242.8125,
                    "velocity": 0.30708661417322836,
                    "duration": 0.3125
                },
                {
                    "name": "G2",
                    "midi": 43,
                    "time": 242.8125,
                    "velocity": 0.30708661417322836,
                    "duration": 0.3125
                },
                {
                    "name": "A5",
                    "midi": 81,
                    "time": 243.125,
                    "velocity": 0.2992125984251969,
                    "duration": 0.3125
                },
                {
                    "name": "A4",
                    "midi": 69,
                    "time": 243.125,
                    "velocity": 0.2992125984251969,
                    "duration": 0.3125
                },
                {
                    "name": "G5",
                    "midi": 79,
                    "time": 243.4375,
                    "velocity": 0.29133858267716534,
                    "duration": 0.3125
                },
                {
                    "name": "F4",
                    "midi": 65,
                    "time": 243.4375,
                    "velocity": 0.29133858267716534,
                    "duration": 0.3125
                },
                {
                    "name": "D5",
                    "midi": 74,
                    "time": 243.75,
                    "velocity": 0.29133858267716534,
                    "duration": 0.3125
                },
                {
                    "name": "A#3",
                    "midi": 58,
                    "time": 243.75,
                    "velocity": 0.29133858267716534,
                    "duration": 0.3125
                },
                {
                    "name": "A5",
                    "midi": 81,
                    "time": 244.0625,
                    "velocity": 0.28346456692913385,
                    "duration": 0.3125
                },
                {
                    "name": "A4",
                    "midi": 69,
                    "time": 244.0625,
                    "velocity": 0.28346456692913385,
                    "duration": 0.3125
                },
                {
                    "name": "D5",
                    "midi": 74,
                    "time": 244.375,
                    "velocity": 0.2755905511811024,
                    "duration": 0.3125
                },
                {
                    "name": "F4",
                    "midi": 65,
                    "time": 244.375,
                    "velocity": 0.2755905511811024,
                    "duration": 0.3125
                },
                {
                    "name": "E5",
                    "midi": 76,
                    "time": 244.6875,
                    "velocity": 0.2755905511811024,
                    "duration": 0.3125
                },
                {
                    "name": "B3",
                    "midi": 59,
                    "time": 244.6875,
                    "velocity": 0.2755905511811024,
                    "duration": 0.3125
                },
                {
                    "name": "G5",
                    "midi": 79,
                    "time": 245,
                    "velocity": 0.2677165354330709,
                    "duration": 0.3125
                },
                {
                    "name": "B3",
                    "midi": 59,
                    "time": 245,
                    "velocity": 0.2677165354330709,
                    "duration": 0.3125
                },
                {
                    "name": "F5",
                    "midi": 77,
                    "time": 245.15625,
                    "velocity": 0.25984251968503935,
                    "duration": 0.078125
                },
                {
                    "name": "G5",
                    "midi": 79,
                    "time": 245.234375,
                    "velocity": 0.25984251968503935,
                    "duration": 0.078125
                },
                {
                    "name": "F5",
                    "midi": 77,
                    "time": 245.3125,
                    "velocity": 0.25984251968503935,
                    "duration": 0.3125
                },
                {
                    "name": "D3",
                    "midi": 50,
                    "time": 245.3125,
                    "velocity": 0.25984251968503935,
                    "duration": 0.3125
                },
                {
                    "name": "E5",
                    "midi": 76,
                    "time": 245.625,
                    "velocity": 0.25984251968503935,
                    "duration": 0.3125
                },
                {
                    "name": "G2",
                    "midi": 43,
                    "time": 245.625,
                    "velocity": 0.25984251968503935,
                    "duration": 0.3125
                },
                {
                    "name": "D5",
                    "midi": 74,
                    "time": 245.9375,
                    "velocity": 0.25196850393700787,
                    "duration": 0.3125
                },
                {
                    "name": "C3",
                    "midi": 48,
                    "time": 245.9375,
                    "velocity": 0.25196850393700787,
                    "duration": 0.3125
                },
                {
                    "name": "C5",
                    "midi": 72,
                    "time": 246.25,
                    "velocity": 0.2440944881889764,
                    "duration": 0.3125
                },
                {
                    "name": "A#3",
                    "midi": 58,
                    "time": 246.25,
                    "velocity": 0.2440944881889764,
                    "duration": 0.3125
                },
                {
                    "name": "A4",
                    "midi": 69,
                    "time": 246.5625,
                    "velocity": 0.2440944881889764,
                    "duration": 0.406494140625
                },
                {
                    "name": "D4",
                    "midi": 62,
                    "time": 246.5625,
                    "velocity": 0.2440944881889764,
                    "duration": 0.406494140625
                },
                {
                    "name": "F4",
                    "midi": 65,
                    "time": 246.875,
                    "velocity": 0.5511811023622047,
                    "duration": 0.625
                },
                {
                    "name": "F5",
                    "midi": 77,
                    "time": 246.875,
                    "velocity": 0.5511811023622047,
                    "duration": 0.625
                },
                {
                    "name": "F2",
                    "midi": 41,
                    "time": 246.875,
                    "velocity": 0.47244094488188976,
                    "duration": 0.625
                },
                {
                    "name": "A3",
                    "midi": 57,
                    "time": 246.875,
                    "velocity": 0.47244094488188976,
                    "duration": 0.625
                },
                {
                    "name": "A4",
                    "midi": 69,
                    "time": 247.1875,
                    "velocity": 0.4330708661417323,
                    "duration": 0.3125
                },
                {
                    "name": "C5",
                    "midi": 72,
                    "time": 247.1875,
                    "velocity": 0.4330708661417323,
                    "duration": 0.3125
                },
                {
                    "name": "F4",
                    "midi": 65,
                    "time": 247.5,
                    "velocity": 0.5511811023622047,
                    "duration": 0.46875
                },
                {
                    "name": "F5",
                    "midi": 77,
                    "time": 247.5,
                    "velocity": 0.5511811023622047,
                    "duration": 0.46875
                },
                {
                    "name": "A#2",
                    "midi": 46,
                    "time": 247.5,
                    "velocity": 0.47244094488188976,
                    "duration": 0.625
                },
                {
                    "name": "D4",
                    "midi": 62,
                    "time": 247.5,
                    "velocity": 0.47244094488188976,
                    "duration": 0.625
                },
                {
                    "name": "A#4",
                    "midi": 70,
                    "time": 247.8125,
                    "velocity": 0.4330708661417323,
                    "duration": 0.3125
                },
                {
                    "name": "D5",
                    "midi": 74,
                    "time": 247.8125,
                    "velocity": 0.4330708661417323,
                    "duration": 0.3125
                },
                {
                    "name": "F5",
                    "midi": 77,
                    "time": 247.96875,
                    "velocity": 0.5511811023622047,
                    "duration": 0.15625
                },
                {
                    "name": "G5",
                    "midi": 79,
                    "time": 248.125,
                    "velocity": 0.5511811023622047,
                    "duration": 0.15625
                },
                {
                    "name": "G2",
                    "midi": 43,
                    "time": 248.125,
                    "velocity": 0.47244094488188976,
                    "duration": 0.625
                },
                {
                    "name": "A#3",
                    "midi": 58,
                    "time": 248.125,
                    "velocity": 0.47244094488188976,
                    "duration": 0.625
                },
                {
                    "name": "F5",
                    "midi": 77,
                    "time": 248.28125,
                    "velocity": 0.5511811023622047,
                    "duration": 0.15625
                },
                {
                    "name": "E5",
                    "midi": 76,
                    "time": 248.4375,
                    "velocity": 0.5511811023622047,
                    "duration": 0.15625
                },
                {
                    "name": "D5",
                    "midi": 74,
                    "time": 248.59375,
                    "velocity": 0.5511811023622047,
                    "duration": 0.15625
                },
                {
                    "name": "C5",
                    "midi": 72,
                    "time": 248.75,
                    "velocity": 0.5511811023622047,
                    "duration": 0.3125
                },
                {
                    "name": "C3",
                    "midi": 48,
                    "time": 248.75,
                    "velocity": 0.47244094488188976,
                    "duration": 3.125
                },
                {
                    "name": "E4",
                    "midi": 64,
                    "time": 249.0625,
                    "velocity": 0.5511811023622047,
                    "duration": 0.15625
                },
                {
                    "name": "A4",
                    "midi": 69,
                    "time": 249.0625,
                    "velocity": 0.5511811023622047,
                    "duration": 0.15625
                },
                {
                    "name": "C5",
                    "midi": 72,
                    "time": 249.0625,
                    "velocity": 0.5511811023622047,
                    "duration": 0.15625
                },
                {
                    "name": "A3",
                    "midi": 57,
                    "time": 249.0625,
                    "velocity": 0.47244094488188976,
                    "duration": 0.3125
                },
                {
                    "name": "C4",
                    "midi": 60,
                    "time": 249.0625,
                    "velocity": 0.47244094488188976,
                    "duration": 0.3125
                },
                {
                    "name": "E5",
                    "midi": 76,
                    "time": 249.21875,
                    "velocity": 0.5511811023622047,
                    "duration": 0.15625
                },
                {
                    "name": "C5",
                    "midi": 72,
                    "time": 249.375,
                    "velocity": 0.5511811023622047,
                    "duration": 0.3125
                },
                {
                    "name": "F4",
                    "midi": 65,
                    "time": 249.6875,
                    "velocity": 0.5433070866141733,
                    "duration": 0.15625
                },
                {
                    "name": "A4",
                    "midi": 69,
                    "time": 249.6875,
                    "velocity": 0.5433070866141733,
                    "duration": 0.15625
                },
                {
                    "name": "C5",
                    "midi": 72,
                    "time": 249.6875,
                    "velocity": 0.5433070866141733,
                    "duration": 0.15625
                },
                {
                    "name": "A#3",
                    "midi": 58,
                    "time": 249.6875,
                    "velocity": 0.47244094488188976,
                    "duration": 0.3125
                },
                {
                    "name": "D4",
                    "midi": 62,
                    "time": 249.6875,
                    "velocity": 0.47244094488188976,
                    "duration": 0.3125
                },
                {
                    "name": "E5",
                    "midi": 76,
                    "time": 249.84375,
                    "velocity": 0.5354330708661418,
                    "duration": 0.15625
                },
                {
                    "name": "C5",
                    "midi": 72,
                    "time": 250,
                    "velocity": 0.5275590551181102,
                    "duration": 0.3125
                },
                {
                    "name": "A4",
                    "midi": 69,
                    "time": 250.3125,
                    "velocity": 0.5196850393700787,
                    "duration": 0.15625
                },
                {
                    "name": "C4",
                    "midi": 60,
                    "time": 250.3125,
                    "velocity": 0.47244094488188976,
                    "duration": 0.3125
                },
                {
                    "name": "E4",
                    "midi": 64,
                    "time": 250.3125,
                    "velocity": 0.47244094488188976,
                    "duration": 0.3125
                },
                {
                    "name": "A#4",
                    "midi": 70,
                    "time": 250.46875,
                    "velocity": 0.5196850393700787,
                    "duration": 0.15625
                },
                {
                    "name": "C5",
                    "midi": 72,
                    "time": 250.625,
                    "velocity": 0.5118110236220472,
                    "duration": 0.15625
                },
                {
                    "name": "A#4",
                    "midi": 70,
                    "time": 250.78125,
                    "velocity": 0.5039370078740157,
                    "duration": 0.15625
                },
                {
                    "name": "A4",
                    "midi": 69,
                    "time": 250.9375,
                    "velocity": 0.5039370078740157,
                    "duration": 0.15625
                },
                {
                    "name": "G4",
                    "midi": 67,
                    "time": 251.09375,
                    "velocity": 0.49606299212598426,
                    "duration": 0.15625
                },
                {
                    "name": "F4",
                    "midi": 65,
                    "time": 251.25,
                    "velocity": 0.4881889763779528,
                    "duration": 0.2032470703125
                },
                {
                    "name": "C5",
                    "midi": 72,
                    "time": 251.40625,
                    "velocity": 0.3937007874015748,
                    "duration": 0.15625
                },
                {
                    "name": "D5",
                    "midi": 74,
                    "time": 251.5625,
                    "velocity": 0.47244094488188976,
                    "duration": 0.15625
                },
                {
                    "name": "E5",
                    "midi": 76,
                    "time": 251.71875,
                    "velocity": 0.5511811023622047,
                    "duration": 0.15625
                },
                {
                    "name": "F4",
                    "midi": 65,
                    "time": 251.875,
                    "velocity": 0.5511811023622047,
                    "duration": 0.625
                },
                {
                    "name": "F5",
                    "midi": 77,
                    "time": 251.875,
                    "velocity": 0.5511811023622047,
                    "duration": 0.625
                },
                {
                    "name": "F2",
                    "midi": 41,
                    "time": 251.875,
                    "velocity": 0.47244094488188976,
                    "duration": 0.625
                },
                {
                    "name": "A3",
                    "midi": 57,
                    "time": 251.875,
                    "velocity": 0.47244094488188976,
                    "duration": 0.625
                },
                {
                    "name": "A4",
                    "midi": 69,
                    "time": 252.1875,
                    "velocity": 0.4330708661417323,
                    "duration": 0.3125
                },
                {
                    "name": "C5",
                    "midi": 72,
                    "time": 252.1875,
                    "velocity": 0.4330708661417323,
                    "duration": 0.3125
                },
                {
                    "name": "F4",
                    "midi": 65,
                    "time": 252.5,
                    "velocity": 0.5511811023622047,
                    "duration": 0.46875
                },
                {
                    "name": "F5",
                    "midi": 77,
                    "time": 252.5,
                    "velocity": 0.5511811023622047,
                    "duration": 0.46875
                },
                {
                    "name": "A#2",
                    "midi": 46,
                    "time": 252.5,
                    "velocity": 0.47244094488188976,
                    "duration": 0.625
                },
                {
                    "name": "D4",
                    "midi": 62,
                    "time": 252.5,
                    "velocity": 0.47244094488188976,
                    "duration": 0.625
                },
                {
                    "name": "A#4",
                    "midi": 70,
                    "time": 252.8125,
                    "velocity": 0.4330708661417323,
                    "duration": 0.3125
                },
                {
                    "name": "D5",
                    "midi": 74,
                    "time": 252.8125,
                    "velocity": 0.4330708661417323,
                    "duration": 0.3125
                },
                {
                    "name": "F5",
                    "midi": 77,
                    "time": 252.96875,
                    "velocity": 0.5511811023622047,
                    "duration": 0.15625
                },
                {
                    "name": "G5",
                    "midi": 79,
                    "time": 253.125,
                    "velocity": 0.5511811023622047,
                    "duration": 0.15625
                },
                {
                    "name": "G2",
                    "midi": 43,
                    "time": 253.125,
                    "velocity": 0.47244094488188976,
                    "duration": 0.625
                },
                {
                    "name": "A#3",
                    "midi": 58,
                    "time": 253.125,
                    "velocity": 0.47244094488188976,
                    "duration": 0.625
                },
                {
                    "name": "F5",
                    "midi": 77,
                    "time": 253.28125,
                    "velocity": 0.5511811023622047,
                    "duration": 0.15625
                },
                {
                    "name": "E5",
                    "midi": 76,
                    "time": 253.4375,
                    "velocity": 0.5511811023622047,
                    "duration": 0.15625
                },
                {
                    "name": "D5",
                    "midi": 74,
                    "time": 253.59375,
                    "velocity": 0.5511811023622047,
                    "duration": 0.15625
                },
                {
                    "name": "C5",
                    "midi": 72,
                    "time": 253.75,
                    "velocity": 0.5511811023622047,
                    "duration": 0.3125
                },
                {
                    "name": "C3",
                    "midi": 48,
                    "time": 253.75,
                    "velocity": 0.47244094488188976,
                    "duration": 2.5
                },
                {
                    "name": "E4",
                    "midi": 64,
                    "time": 254.0625,
                    "velocity": 0.5511811023622047,
                    "duration": 0.15625
                },
                {
                    "name": "A4",
                    "midi": 69,
                    "time": 254.0625,
                    "velocity": 0.5511811023622047,
                    "duration": 0.15625
                },
                {
                    "name": "C5",
                    "midi": 72,
                    "time": 254.0625,
                    "velocity": 0.5511811023622047,
                    "duration": 0.15625
                },
                {
                    "name": "A3",
                    "midi": 57,
                    "time": 254.0625,
                    "velocity": 0.47244094488188976,
                    "duration": 0.3125
                },
                {
                    "name": "C4",
                    "midi": 60,
                    "time": 254.0625,
                    "velocity": 0.47244094488188976,
                    "duration": 0.3125
                },
                {
                    "name": "E5",
                    "midi": 76,
                    "time": 254.21875,
                    "velocity": 0.5511811023622047,
                    "duration": 0.15625
                },
                {
                    "name": "C5",
                    "midi": 72,
                    "time": 254.375,
                    "velocity": 0.5039370078740157,
                    "duration": 0.3125
                },
                {
                    "name": "F4",
                    "midi": 65,
                    "time": 254.6875,
                    "velocity": 0.5511811023622047,
                    "duration": 0.15625
                },
                {
                    "name": "A4",
                    "midi": 69,
                    "time": 254.6875,
                    "velocity": 0.5511811023622047,
                    "duration": 0.15625
                },
                {
                    "name": "C5",
                    "midi": 72,
                    "time": 254.6875,
                    "velocity": 0.5511811023622047,
                    "duration": 0.15625
                },
                {
                    "name": "A#3",
                    "midi": 58,
                    "time": 254.6875,
                    "velocity": 0.5039370078740157,
                    "duration": 0.3125
                },
                {
                    "name": "D4",
                    "midi": 62,
                    "time": 254.6875,
                    "velocity": 0.5039370078740157,
                    "duration": 0.3125
                },
                {
                    "name": "E5",
                    "midi": 76,
                    "time": 254.84375,
                    "velocity": 0.5354330708661418,
                    "duration": 0.15625
                },
                {
                    "name": "C5",
                    "midi": 72,
                    "time": 255,
                    "velocity": 0.5275590551181102,
                    "duration": 0.3125
                },
                {
                    "name": "A4",
                    "midi": 69,
                    "time": 255.3125,
                    "velocity": 0.49606299212598426,
                    "duration": 0.15625
                },
                {
                    "name": "C4",
                    "midi": 60,
                    "time": 255.3125,
                    "velocity": 0.5039370078740157,
                    "duration": 0.3125
                },
                {
                    "name": "E4",
                    "midi": 64,
                    "time": 255.3125,
                    "velocity": 0.5039370078740157,
                    "duration": 0.3125
                },
                {
                    "name": "A#4",
                    "midi": 70,
                    "time": 255.46875,
                    "velocity": 0.4881889763779528,
                    "duration": 0.15625
                },
                {
                    "name": "C5",
                    "midi": 72,
                    "time": 255.625,
                    "velocity": 0.47244094488188976,
                    "duration": 0.15625
                },
                {
                    "name": "A#4",
                    "midi": 70,
                    "time": 255.78125,
                    "velocity": 0.4566929133858268,
                    "duration": 0.15625
                },
                {
                    "name": "A4",
                    "midi": 69,
                    "time": 255.9375,
                    "velocity": 0.44881889763779526,
                    "duration": 0.15625
                },
                {
                    "name": "G4",
                    "midi": 67,
                    "time": 256.09375,
                    "velocity": 0.4330708661417323,
                    "duration": 0.15625
                },
                {
                    "name": "A4",
                    "midi": 69,
                    "time": 256.25,
                    "velocity": 0.15748031496062992,
                    "duration": 0.625
                },
                {
                    "name": "A3",
                    "midi": 57,
                    "time": 256.25,
                    "velocity": 0.11811023622047244,
                    "duration": 0.3125
                },
                {
                    "name": "A#3",
                    "midi": 58,
                    "time": 256.25,
                    "velocity": 0.11811023622047244,
                    "duration": 0.3125
                },
                {
                    "name": "C4",
                    "midi": 60,
                    "time": 256.5625,
                    "velocity": 0.11811023622047244,
                    "duration": 0.3125
                },
                {
                    "name": "E4",
                    "midi": 64,
                    "time": 256.5625,
                    "velocity": 0.11811023622047244,
                    "duration": 0.3125
                },
                {
                    "name": "A4",
                    "midi": 69,
                    "time": 256.875,
                    "velocity": 0.15748031496062992,
                    "duration": 0.625
                },
                {
                    "name": "A3",
                    "midi": 57,
                    "time": 256.875,
                    "velocity": 0.11811023622047244,
                    "duration": 0.3125
                },
                {
                    "name": "A#3",
                    "midi": 58,
                    "time": 256.875,
                    "velocity": 0.11811023622047244,
                    "duration": 0.3125
                },
                {
                    "name": "D4",
                    "midi": 62,
                    "time": 257.1875,
                    "velocity": 0.11811023622047244,
                    "duration": 0.3125
                },
                {
                    "name": "F4",
                    "midi": 65,
                    "time": 257.1875,
                    "velocity": 0.11811023622047244,
                    "duration": 0.3125
                },
                {
                    "name": "A4",
                    "midi": 69,
                    "time": 257.5,
                    "velocity": 0.15748031496062992,
                    "duration": 0.9375
                },
                {
                    "name": "A3",
                    "midi": 57,
                    "time": 257.5,
                    "velocity": 0.11811023622047244,
                    "duration": 0.3125
                },
                {
                    "name": "A#3",
                    "midi": 58,
                    "time": 257.5,
                    "velocity": 0.11811023622047244,
                    "duration": 0.3125
                },
                {
                    "name": "C4",
                    "midi": 60,
                    "time": 257.8125,
                    "velocity": 0.11811023622047244,
                    "duration": 0.3125
                },
                {
                    "name": "E4",
                    "midi": 64,
                    "time": 257.8125,
                    "velocity": 0.11811023622047244,
                    "duration": 0.3125
                },
                {
                    "name": "A3",
                    "midi": 57,
                    "time": 258.125,
                    "velocity": 0.11811023622047244,
                    "duration": 0.3125
                },
                {
                    "name": "A#3",
                    "midi": 58,
                    "time": 258.125,
                    "velocity": 0.11811023622047244,
                    "duration": 0.3125
                },
                {
                    "name": "G4",
                    "midi": 67,
                    "time": 258.4375,
                    "velocity": 0.15748031496062992,
                    "duration": 0.3125
                },
                {
                    "name": "D4",
                    "midi": 62,
                    "time": 258.4375,
                    "velocity": 0.11811023622047244,
                    "duration": 0.3125
                },
                {
                    "name": "F4",
                    "midi": 65,
                    "time": 258.4375,
                    "velocity": 0.11811023622047244,
                    "duration": 0.3125
                },
                {
                    "name": "A4",
                    "midi": 69,
                    "time": 258.75,
                    "velocity": 0.15748031496062992,
                    "duration": 0.3125
                },
                {
                    "name": "A3",
                    "midi": 57,
                    "time": 258.75,
                    "velocity": 0.11811023622047244,
                    "duration": 0.3125
                },
                {
                    "name": "A#3",
                    "midi": 58,
                    "time": 258.75,
                    "velocity": 0.11811023622047244,
                    "duration": 0.3125
                },
                {
                    "name": "G4",
                    "midi": 67,
                    "time": 259.0625,
                    "velocity": 0.15748031496062992,
                    "duration": 0.3125
                },
                {
                    "name": "C4",
                    "midi": 60,
                    "time": 259.0625,
                    "velocity": 0.11811023622047244,
                    "duration": 0.3125
                },
                {
                    "name": "E4",
                    "midi": 64,
                    "time": 259.0625,
                    "velocity": 0.11811023622047244,
                    "duration": 0.3125
                },
                {
                    "name": "A4",
                    "midi": 69,
                    "time": 259.375,
                    "velocity": 0.2125984251968504,
                    "duration": 0.3125
                },
                {
                    "name": "A3",
                    "midi": 57,
                    "time": 259.375,
                    "velocity": 0.11811023622047244,
                    "duration": 0.3125
                },
                {
                    "name": "A#3",
                    "midi": 58,
                    "time": 259.375,
                    "velocity": 0.11811023622047244,
                    "duration": 0.3125
                },
                {
                    "name": "C5",
                    "midi": 72,
                    "time": 259.6875,
                    "velocity": 0.25984251968503935,
                    "duration": 0.3125
                },
                {
                    "name": "D4",
                    "midi": 62,
                    "time": 259.6875,
                    "velocity": 0.11811023622047244,
                    "duration": 0.3125
                },
                {
                    "name": "F4",
                    "midi": 65,
                    "time": 259.6875,
                    "velocity": 0.11811023622047244,
                    "duration": 0.3125
                },
                {
                    "name": "A4",
                    "midi": 69,
                    "time": 260,
                    "velocity": 0.31496062992125984,
                    "duration": 0.9375
                },
                {
                    "name": "A3",
                    "midi": 57,
                    "time": 260,
                    "velocity": 0.11811023622047244,
                    "duration": 0.3125
                },
                {
                    "name": "A#3",
                    "midi": 58,
                    "time": 260,
                    "velocity": 0.11811023622047244,
                    "duration": 0.3125
                },
                {
                    "name": "C4",
                    "midi": 60,
                    "time": 260.3125,
                    "velocity": 0.11811023622047244,
                    "duration": 0.3125
                },
                {
                    "name": "E4",
                    "midi": 64,
                    "time": 260.3125,
                    "velocity": 0.11811023622047244,
                    "duration": 0.3125
                },
                {
                    "name": "A3",
                    "midi": 57,
                    "time": 260.625,
                    "velocity": 0.11811023622047244,
                    "duration": 0.3125
                },
                {
                    "name": "A#3",
                    "midi": 58,
                    "time": 260.625,
                    "velocity": 0.11811023622047244,
                    "duration": 0.3125
                },
                {
                    "name": "G4",
                    "midi": 67,
                    "time": 260.9375,
                    "velocity": 0.15748031496062992,
                    "duration": 0.3125
                },
                {
                    "name": "D4",
                    "midi": 62,
                    "time": 260.9375,
                    "velocity": 0.11811023622047244,
                    "duration": 0.3125
                },
                {
                    "name": "F4",
                    "midi": 65,
                    "time": 260.9375,
                    "velocity": 0.11811023622047244,
                    "duration": 0.3125
                },
                {
                    "name": "A4",
                    "midi": 69,
                    "time": 261.25,
                    "velocity": 0.15748031496062992,
                    "duration": 0.3125
                },
                {
                    "name": "A3",
                    "midi": 57,
                    "time": 261.25,
                    "velocity": 0.11811023622047244,
                    "duration": 0.3125
                },
                {
                    "name": "A#3",
                    "midi": 58,
                    "time": 261.25,
                    "velocity": 0.11811023622047244,
                    "duration": 0.3125
                },
                {
                    "name": "G4",
                    "midi": 67,
                    "time": 261.5625,
                    "velocity": 0.15748031496062992,
                    "duration": 0.3125
                },
                {
                    "name": "C4",
                    "midi": 60,
                    "time": 261.5625,
                    "velocity": 0.11811023622047244,
                    "duration": 0.3125
                },
                {
                    "name": "E4",
                    "midi": 64,
                    "time": 261.5625,
                    "velocity": 0.11811023622047244,
                    "duration": 0.3125
                },
                {
                    "name": "A4",
                    "midi": 69,
                    "time": 261.875,
                    "velocity": 0.2125984251968504,
                    "duration": 0.3125
                },
                {
                    "name": "A3",
                    "midi": 57,
                    "time": 261.875,
                    "velocity": 0.11811023622047244,
                    "duration": 0.3125
                },
                {
                    "name": "A#3",
                    "midi": 58,
                    "time": 261.875,
                    "velocity": 0.11811023622047244,
                    "duration": 0.3125
                },
                {
                    "name": "D5",
                    "midi": 74,
                    "time": 262.1875,
                    "velocity": 0.25984251968503935,
                    "duration": 0.3125
                },
                {
                    "name": "D4",
                    "midi": 62,
                    "time": 262.1875,
                    "velocity": 0.11811023622047244,
                    "duration": 0.3125
                },
                {
                    "name": "F4",
                    "midi": 65,
                    "time": 262.1875,
                    "velocity": 0.11811023622047244,
                    "duration": 0.3125
                },
                {
                    "name": "C5",
                    "midi": 72,
                    "time": 262.34375,
                    "velocity": 0.31496062992125984,
                    "duration": 0.078125
                },
                {
                    "name": "D5",
                    "midi": 74,
                    "time": 262.421875,
                    "velocity": 0.31496062992125984,
                    "duration": 0.078125
                },
                {
                    "name": "C5",
                    "midi": 72,
                    "time": 262.5,
                    "velocity": 0.31496062992125984,
                    "duration": 0.15625
                },
                {
                    "name": "A3",
                    "midi": 57,
                    "time": 262.5,
                    "velocity": 0.11811023622047244,
                    "duration": 0.3125
                },
                {
                    "name": "A#3",
                    "midi": 58,
                    "time": 262.5,
                    "velocity": 0.11811023622047244,
                    "duration": 0.3125
                },
                {
                    "name": "A#4",
                    "midi": 70,
                    "time": 262.65625,
                    "velocity": 0.2755905511811024,
                    "duration": 0.15625
                },
                {
                    "name": "A4",
                    "midi": 69,
                    "time": 262.8125,
                    "velocity": 0.23622047244094488,
                    "duration": 0.15625
                },
                {
                    "name": "C4",
                    "midi": 60,
                    "time": 262.8125,
                    "velocity": 0.11811023622047244,
                    "duration": 0.3125
                },
                {
                    "name": "E4",
                    "midi": 64,
                    "time": 262.8125,
                    "velocity": 0.11811023622047244,
                    "duration": 0.3125
                },
                {
                    "name": "G4",
                    "midi": 67,
                    "time": 262.96875,
                    "velocity": 0.1968503937007874,
                    "duration": 0.15625
                },
                {
                    "name": "A4",
                    "midi": 69,
                    "time": 263.125,
                    "velocity": 0.15748031496062992,
                    "duration": 0.3125
                },
                {
                    "name": "A3",
                    "midi": 57,
                    "time": 263.125,
                    "velocity": 0.11811023622047244,
                    "duration": 0.3125
                },
                {
                    "name": "A#3",
                    "midi": 58,
                    "time": 263.125,
                    "velocity": 0.11811023622047244,
                    "duration": 0.3125
                },
                {
                    "name": "A4",
                    "midi": 69,
                    "time": 263.4375,
                    "velocity": 0.15748031496062992,
                    "duration": 0.3125
                },
                {
                    "name": "D4",
                    "midi": 62,
                    "time": 263.4375,
                    "velocity": 0.11811023622047244,
                    "duration": 0.3125
                },
                {
                    "name": "F4",
                    "midi": 65,
                    "time": 263.4375,
                    "velocity": 0.11811023622047244,
                    "duration": 0.3125
                },
                {
                    "name": "A4",
                    "midi": 69,
                    "time": 263.75,
                    "velocity": 0.15748031496062992,
                    "duration": 0.625
                },
                {
                    "name": "A3",
                    "midi": 57,
                    "time": 263.75,
                    "velocity": 0.11811023622047244,
                    "duration": 0.3125
                },
                {
                    "name": "A#3",
                    "midi": 58,
                    "time": 263.75,
                    "velocity": 0.11811023622047244,
                    "duration": 0.3125
                },
                {
                    "name": "C4",
                    "midi": 60,
                    "time": 264.0625,
                    "velocity": 0.11811023622047244,
                    "duration": 0.3125
                },
                {
                    "name": "E4",
                    "midi": 64,
                    "time": 264.0625,
                    "velocity": 0.11811023622047244,
                    "duration": 0.3125
                },
                {
                    "name": "A4",
                    "midi": 69,
                    "time": 264.375,
                    "velocity": 0.15748031496062992,
                    "duration": 0.625
                },
                {
                    "name": "A3",
                    "midi": 57,
                    "time": 264.375,
                    "velocity": 0.11811023622047244,
                    "duration": 0.3125
                },
                {
                    "name": "A#3",
                    "midi": 58,
                    "time": 264.375,
                    "velocity": 0.11811023622047244,
                    "duration": 0.3125
                },
                {
                    "name": "D4",
                    "midi": 62,
                    "time": 264.6875,
                    "velocity": 0.11811023622047244,
                    "duration": 0.3125
                },
                {
                    "name": "F4",
                    "midi": 65,
                    "time": 264.6875,
                    "velocity": 0.11811023622047244,
                    "duration": 0.3125
                },
                {
                    "name": "A4",
                    "midi": 69,
                    "time": 265,
                    "velocity": 0.15748031496062992,
                    "duration": 0.9375
                },
                {
                    "name": "A3",
                    "midi": 57,
                    "time": 265,
                    "velocity": 0.11811023622047244,
                    "duration": 0.3125
                },
                {
                    "name": "A#3",
                    "midi": 58,
                    "time": 265,
                    "velocity": 0.11811023622047244,
                    "duration": 0.3125
                },
                {
                    "name": "C4",
                    "midi": 60,
                    "time": 265.3125,
                    "velocity": 0.11811023622047244,
                    "duration": 0.3125
                },
                {
                    "name": "E4",
                    "midi": 64,
                    "time": 265.3125,
                    "velocity": 0.11811023622047244,
                    "duration": 0.3125
                },
                {
                    "name": "A3",
                    "midi": 57,
                    "time": 265.625,
                    "velocity": 0.11811023622047244,
                    "duration": 0.3125
                },
                {
                    "name": "A#3",
                    "midi": 58,
                    "time": 265.625,
                    "velocity": 0.11811023622047244,
                    "duration": 0.3125
                },
                {
                    "name": "G4",
                    "midi": 67,
                    "time": 265.9375,
                    "velocity": 0.15748031496062992,
                    "duration": 0.3125
                },
                {
                    "name": "D4",
                    "midi": 62,
                    "time": 265.9375,
                    "velocity": 0.11811023622047244,
                    "duration": 0.3125
                },
                {
                    "name": "F4",
                    "midi": 65,
                    "time": 265.9375,
                    "velocity": 0.11811023622047244,
                    "duration": 0.3125
                },
                {
                    "name": "A4",
                    "midi": 69,
                    "time": 266.25,
                    "velocity": 0.15748031496062992,
                    "duration": 0.3125
                },
                {
                    "name": "A3",
                    "midi": 57,
                    "time": 266.25,
                    "velocity": 0.11811023622047244,
                    "duration": 0.3125
                },
                {
                    "name": "A#3",
                    "midi": 58,
                    "time": 266.25,
                    "velocity": 0.11811023622047244,
                    "duration": 0.3125
                },
                {
                    "name": "G4",
                    "midi": 67,
                    "time": 266.5625,
                    "velocity": 0.15748031496062992,
                    "duration": 0.3125
                },
                {
                    "name": "C4",
                    "midi": 60,
                    "time": 266.5625,
                    "velocity": 0.11811023622047244,
                    "duration": 0.3125
                },
                {
                    "name": "E4",
                    "midi": 64,
                    "time": 266.5625,
                    "velocity": 0.11811023622047244,
                    "duration": 0.3125
                },
                {
                    "name": "A4",
                    "midi": 69,
                    "time": 266.875,
                    "velocity": 0.15748031496062992,
                    "duration": 0.3125
                },
                {
                    "name": "A3",
                    "midi": 57,
                    "time": 266.875,
                    "velocity": 0.11811023622047244,
                    "duration": 0.3125
                },
                {
                    "name": "A#3",
                    "midi": 58,
                    "time": 266.875,
                    "velocity": 0.11811023622047244,
                    "duration": 0.3125
                },
                {
                    "name": "C5",
                    "midi": 72,
                    "time": 267.1875,
                    "velocity": 0.15748031496062992,
                    "duration": 0.3125
                },
                {
                    "name": "D4",
                    "midi": 62,
                    "time": 267.1875,
                    "velocity": 0.11811023622047244,
                    "duration": 0.3125
                },
                {
                    "name": "F4",
                    "midi": 65,
                    "time": 267.1875,
                    "velocity": 0.11811023622047244,
                    "duration": 0.3125
                },
                {
                    "name": "A4",
                    "midi": 69,
                    "time": 267.5,
                    "velocity": 0.15748031496062992,
                    "duration": 1.25
                },
                {
                    "name": "A3",
                    "midi": 57,
                    "time": 267.5,
                    "velocity": 0.11811023622047244,
                    "duration": 0.3125
                },
                {
                    "name": "A#3",
                    "midi": 58,
                    "time": 267.5,
                    "velocity": 0.11811023622047244,
                    "duration": 0.3125
                },
                {
                    "name": "C4",
                    "midi": 60,
                    "time": 267.8125,
                    "velocity": 0.11811023622047244,
                    "duration": 0.3125
                },
                {
                    "name": "E4",
                    "midi": 64,
                    "time": 267.8125,
                    "velocity": 0.11811023622047244,
                    "duration": 0.3125
                },
                {
                    "name": "A3",
                    "midi": 57,
                    "time": 268.125,
                    "velocity": 0.11811023622047244,
                    "duration": 0.3125
                },
                {
                    "name": "A#3",
                    "midi": 58,
                    "time": 268.125,
                    "velocity": 0.11811023622047244,
                    "duration": 0.3125
                },
                {
                    "name": "D4",
                    "midi": 62,
                    "time": 268.4375,
                    "velocity": 0.11811023622047244,
                    "duration": 0.3125
                },
                {
                    "name": "F4",
                    "midi": 65,
                    "time": 268.4375,
                    "velocity": 0.11811023622047244,
                    "duration": 0.3125
                },
                {
                    "name": "A3",
                    "midi": 57,
                    "time": 268.75,
                    "velocity": 0.11811023622047244,
                    "duration": 0.3125
                },
                {
                    "name": "A#3",
                    "midi": 58,
                    "time": 268.75,
                    "velocity": 0.11811023622047244,
                    "duration": 0.3125
                },
                {
                    "name": "C4",
                    "midi": 60,
                    "time": 269.0625,
                    "velocity": 0.11811023622047244,
                    "duration": 0.3125
                },
                {
                    "name": "E4",
                    "midi": 64,
                    "time": 269.0625,
                    "velocity": 0.11811023622047244,
                    "duration": 0.3125
                },
                {
                    "name": "G4",
                    "midi": 67,
                    "time": 269.375,
                    "velocity": 0.31496062992125984,
                    "duration": 0.078125
                },
                {
                    "name": "A3",
                    "midi": 57,
                    "time": 269.375,
                    "velocity": 0.11811023622047244,
                    "duration": 0.3125
                },
                {
                    "name": "A#3",
                    "midi": 58,
                    "time": 269.375,
                    "velocity": 0.11811023622047244,
                    "duration": 0.3125
                },
                {
                    "name": "A4",
                    "midi": 69,
                    "time": 269.453125,
                    "velocity": 0.2755905511811024,
                    "duration": 0.078125
                },
                {
                    "name": "G4",
                    "midi": 67,
                    "time": 269.53125,
                    "velocity": 0.23622047244094488,
                    "duration": 0.078125
                },
                {
                    "name": "A4",
                    "midi": 69,
                    "time": 269.609375,
                    "velocity": 0.1968503937007874,
                    "duration": 0.078125
                },
                {
                    "name": "G4",
                    "midi": 67,
                    "time": 269.6875,
                    "velocity": 0.15748031496062992,
                    "duration": 0.078125
                },
                {
                    "name": "D4",
                    "midi": 62,
                    "time": 269.6875,
                    "velocity": 0.11811023622047244,
                    "duration": 0.3125
                },
                {
                    "name": "F4",
                    "midi": 65,
                    "time": 269.6875,
                    "velocity": 0.11811023622047244,
                    "duration": 0.3125
                },
                {
                    "name": "A4",
                    "midi": 69,
                    "time": 269.765625,
                    "velocity": 0.15748031496062992,
                    "duration": 0.078125
                },
                {
                    "name": "G4",
                    "midi": 67,
                    "time": 269.84375,
                    "velocity": 0.15748031496062992,
                    "duration": 0.078125
                },
                {
                    "name": "A4",
                    "midi": 69,
                    "time": 269.921875,
                    "velocity": 0.15748031496062992,
                    "duration": 0.078125
                },
                {
                    "name": "G4",
                    "midi": 67,
                    "time": 270,
                    "velocity": 0.15748031496062992,
                    "duration": 0.078125
                },
                {
                    "name": "A3",
                    "midi": 57,
                    "time": 270,
                    "velocity": 0.11811023622047244,
                    "duration": 0.3125
                },
                {
                    "name": "A#3",
                    "midi": 58,
                    "time": 270,
                    "velocity": 0.11811023622047244,
                    "duration": 0.3125
                },
                {
                    "name": "A4",
                    "midi": 69,
                    "time": 270.078125,
                    "velocity": 0.15748031496062992,
                    "duration": 0.078125
                },
                {
                    "name": "G4",
                    "midi": 67,
                    "time": 270.15625,
                    "velocity": 0.15748031496062992,
                    "duration": 0.078125
                },
                {
                    "name": "A4",
                    "midi": 69,
                    "time": 270.234375,
                    "velocity": 0.15748031496062992,
                    "duration": 0.078125
                },
                {
                    "name": "G4",
                    "midi": 67,
                    "time": 270.3125,
                    "velocity": 0.15748031496062992,
                    "duration": 0.078125
                },
                {
                    "name": "C4",
                    "midi": 60,
                    "time": 270.3125,
                    "velocity": 0.11811023622047244,
                    "duration": 0.3125
                },
                {
                    "name": "E4",
                    "midi": 64,
                    "time": 270.3125,
                    "velocity": 0.11811023622047244,
                    "duration": 0.3125
                },
                {
                    "name": "A4",
                    "midi": 69,
                    "time": 270.390625,
                    "velocity": 0.15748031496062992,
                    "duration": 0.078125
                },
                {
                    "name": "G4",
                    "midi": 67,
                    "time": 270.46875,
                    "velocity": 0.15748031496062992,
                    "duration": 0.078125
                },
                {
                    "name": "A4",
                    "midi": 69,
                    "time": 270.546875,
                    "velocity": 0.15748031496062992,
                    "duration": 0.078125
                },
                {
                    "name": "G4",
                    "midi": 67,
                    "time": 270.625,
                    "velocity": 0.15748031496062992,
                    "duration": 0.078125
                },
                {
                    "name": "A3",
                    "midi": 57,
                    "time": 270.625,
                    "velocity": 0.11811023622047244,
                    "duration": 0.3125
                },
                {
                    "name": "A#3",
                    "midi": 58,
                    "time": 270.625,
                    "velocity": 0.11811023622047244,
                    "duration": 0.3125
                },
                {
                    "name": "A4",
                    "midi": 69,
                    "time": 270.703125,
                    "velocity": 0.15748031496062992,
                    "duration": 0.078125
                },
                {
                    "name": "G4",
                    "midi": 67,
                    "time": 270.78125,
                    "velocity": 0.15748031496062992,
                    "duration": 0.078125
                },
                {
                    "name": "A4",
                    "midi": 69,
                    "time": 270.859375,
                    "velocity": 0.15748031496062992,
                    "duration": 0.078125
                },
                {
                    "name": "G4",
                    "midi": 67,
                    "time": 270.9375,
                    "velocity": 0.15748031496062992,
                    "duration": 0.078125
                },
                {
                    "name": "D4",
                    "midi": 62,
                    "time": 270.9375,
                    "velocity": 0.11811023622047244,
                    "duration": 0.3125
                },
                {
                    "name": "F4",
                    "midi": 65,
                    "time": 270.9375,
                    "velocity": 0.11811023622047244,
                    "duration": 0.3125
                },
                {
                    "name": "A4",
                    "midi": 69,
                    "time": 271.015625,
                    "velocity": 0.15748031496062992,
                    "duration": 0.078125
                },
                {
                    "name": "G4",
                    "midi": 67,
                    "time": 271.09375,
                    "velocity": 0.15748031496062992,
                    "duration": 0.078125
                },
                {
                    "name": "A4",
                    "midi": 69,
                    "time": 271.171875,
                    "velocity": 0.15748031496062992,
                    "duration": 0.078125
                },
                {
                    "name": "A3",
                    "midi": 57,
                    "time": 271.25,
                    "velocity": 0.11811023622047244,
                    "duration": 0.3125
                },
                {
                    "name": "A#3",
                    "midi": 58,
                    "time": 271.25,
                    "velocity": 0.11811023622047244,
                    "duration": 0.3125
                },
                {
                    "name": "C4",
                    "midi": 60,
                    "time": 271.5625,
                    "velocity": 0.11811023622047244,
                    "duration": 0.3125
                },
                {
                    "name": "E4",
                    "midi": 64,
                    "time": 271.5625,
                    "velocity": 0.11811023622047244,
                    "duration": 0.3125
                },
                {
                    "name": "G4",
                    "midi": 67,
                    "time": 271.875,
                    "velocity": 0.31496062992125984,
                    "duration": 0.078125
                },
                {
                    "name": "A3",
                    "midi": 57,
                    "time": 271.875,
                    "velocity": 0.11811023622047244,
                    "duration": 0.3125
                },
                {
                    "name": "A#3",
                    "midi": 58,
                    "time": 271.875,
                    "velocity": 0.11811023622047244,
                    "duration": 0.3125
                },
                {
                    "name": "A4",
                    "midi": 69,
                    "time": 271.953125,
                    "velocity": 0.2755905511811024,
                    "duration": 0.078125
                },
                {
                    "name": "G4",
                    "midi": 67,
                    "time": 272.03125,
                    "velocity": 0.23622047244094488,
                    "duration": 0.078125
                },
                {
                    "name": "A4",
                    "midi": 69,
                    "time": 272.109375,
                    "velocity": 0.1968503937007874,
                    "duration": 0.078125
                },
                {
                    "name": "G4",
                    "midi": 67,
                    "time": 272.1875,
                    "velocity": 0.15748031496062992,
                    "duration": 0.078125
                },
                {
                    "name": "D4",
                    "midi": 62,
                    "time": 272.1875,
                    "velocity": 0.11811023622047244,
                    "duration": 0.3125
                },
                {
                    "name": "F4",
                    "midi": 65,
                    "time": 272.1875,
                    "velocity": 0.11811023622047244,
                    "duration": 0.3125
                },
                {
                    "name": "A4",
                    "midi": 69,
                    "time": 272.265625,
                    "velocity": 0.15748031496062992,
                    "duration": 0.078125
                },
                {
                    "name": "G4",
                    "midi": 67,
                    "time": 272.34375,
                    "velocity": 0.15748031496062992,
                    "duration": 0.078125
                },
                {
                    "name": "A4",
                    "midi": 69,
                    "time": 272.421875,
                    "velocity": 0.15748031496062992,
                    "duration": 0.078125
                },
                {
                    "name": "G4",
                    "midi": 67,
                    "time": 272.5,
                    "velocity": 0.15748031496062992,
                    "duration": 0.078125
                },
                {
                    "name": "A3",
                    "midi": 57,
                    "time": 272.5,
                    "velocity": 0.11811023622047244,
                    "duration": 0.3125
                },
                {
                    "name": "A#3",
                    "midi": 58,
                    "time": 272.5,
                    "velocity": 0.11811023622047244,
                    "duration": 0.3125
                },
                {
                    "name": "A4",
                    "midi": 69,
                    "time": 272.578125,
                    "velocity": 0.15748031496062992,
                    "duration": 0.078125
                },
                {
                    "name": "G4",
                    "midi": 67,
                    "time": 272.65625,
                    "velocity": 0.15748031496062992,
                    "duration": 0.078125
                },
                {
                    "name": "A4",
                    "midi": 69,
                    "time": 272.734375,
                    "velocity": 0.15748031496062992,
                    "duration": 0.078125
                },
                {
                    "name": "G4",
                    "midi": 67,
                    "time": 272.8125,
                    "velocity": 0.15748031496062992,
                    "duration": 0.078125
                },
                {
                    "name": "C4",
                    "midi": 60,
                    "time": 272.8125,
                    "velocity": 0.11811023622047244,
                    "duration": 0.3125
                },
                {
                    "name": "E4",
                    "midi": 64,
                    "time": 272.8125,
                    "velocity": 0.11811023622047244,
                    "duration": 0.3125
                },
                {
                    "name": "A4",
                    "midi": 69,
                    "time": 272.890625,
                    "velocity": 0.15748031496062992,
                    "duration": 0.078125
                },
                {
                    "name": "G4",
                    "midi": 67,
                    "time": 272.96875,
                    "velocity": 0.15748031496062992,
                    "duration": 0.078125
                },
                {
                    "name": "A4",
                    "midi": 69,
                    "time": 273.046875,
                    "velocity": 0.15748031496062992,
                    "duration": 0.078125
                },
                {
                    "name": "G4",
                    "midi": 67,
                    "time": 273.125,
                    "velocity": 0.15748031496062992,
                    "duration": 0.078125
                },
                {
                    "name": "A3",
                    "midi": 57,
                    "time": 273.125,
                    "velocity": 0.11811023622047244,
                    "duration": 0.3125
                },
                {
                    "name": "A#3",
                    "midi": 58,
                    "time": 273.125,
                    "velocity": 0.11811023622047244,
                    "duration": 0.3125
                },
                {
                    "name": "A4",
                    "midi": 69,
                    "time": 273.203125,
                    "velocity": 0.15748031496062992,
                    "duration": 0.078125
                },
                {
                    "name": "G4",
                    "midi": 67,
                    "time": 273.28125,
                    "velocity": 0.15748031496062992,
                    "duration": 0.078125
                },
                {
                    "name": "A4",
                    "midi": 69,
                    "time": 273.359375,
                    "velocity": 0.15748031496062992,
                    "duration": 0.078125
                },
                {
                    "name": "G4",
                    "midi": 67,
                    "time": 273.4375,
                    "velocity": 0.15748031496062992,
                    "duration": 0.078125
                },
                {
                    "name": "D4",
                    "midi": 62,
                    "time": 273.4375,
                    "velocity": 0.11811023622047244,
                    "duration": 0.3125
                },
                {
                    "name": "F4",
                    "midi": 65,
                    "time": 273.4375,
                    "velocity": 0.11811023622047244,
                    "duration": 0.3125
                },
                {
                    "name": "A4",
                    "midi": 69,
                    "time": 273.515625,
                    "velocity": 0.15748031496062992,
                    "duration": 0.078125
                },
                {
                    "name": "G4",
                    "midi": 67,
                    "time": 273.59375,
                    "velocity": 0.15748031496062992,
                    "duration": 0.078125
                },
                {
                    "name": "A4",
                    "midi": 69,
                    "time": 273.671875,
                    "velocity": 0.15748031496062992,
                    "duration": 0.078125
                },
                {
                    "name": "A4",
                    "midi": 69,
                    "time": 273.75,
                    "velocity": 0.1968503937007874,
                    "duration": 0.625
                },
                {
                    "name": "A5",
                    "midi": 81,
                    "time": 273.75,
                    "velocity": 0.1968503937007874,
                    "duration": 0.625
                },
                {
                    "name": "G2",
                    "midi": 43,
                    "time": 273.75,
                    "velocity": 0.1968503937007874,
                    "duration": 0.625
                },
                {
                    "name": "A#3",
                    "midi": 58,
                    "time": 273.75,
                    "velocity": 0.1968503937007874,
                    "duration": 0.625
                },
                {
                    "name": "D5",
                    "midi": 74,
                    "time": 274.0625,
                    "velocity": 0.10236220472440945,
                    "duration": 0.3125
                },
                {
                    "name": "E5",
                    "midi": 76,
                    "time": 274.0625,
                    "velocity": 0.10236220472440945,
                    "duration": 0.3125
                },
                {
                    "name": "A4",
                    "midi": 69,
                    "time": 274.375,
                    "velocity": 0.1968503937007874,
                    "duration": 0.625
                },
                {
                    "name": "A5",
                    "midi": 81,
                    "time": 274.375,
                    "velocity": 0.1968503937007874,
                    "duration": 0.625
                },
                {
                    "name": "C2",
                    "midi": 36,
                    "time": 274.375,
                    "velocity": 0.1968503937007874,
                    "duration": 0.625
                },
                {
                    "name": "D3",
                    "midi": 50,
                    "time": 274.375,
                    "velocity": 0.1968503937007874,
                    "duration": 0.625
                },
                {
                    "name": "C5",
                    "midi": 72,
                    "time": 274.6875,
                    "velocity": 0.10236220472440945,
                    "duration": 0.3125
                },
                {
                    "name": "E5",
                    "midi": 76,
                    "time": 274.6875,
                    "velocity": 0.10236220472440945,
                    "duration": 0.3125
                },
                {
                    "name": "A4",
                    "midi": 69,
                    "time": 275,
                    "velocity": 0.1968503937007874,
                    "duration": 0.9375
                },
                {
                    "name": "A5",
                    "midi": 81,
                    "time": 275,
                    "velocity": 0.1968503937007874,
                    "duration": 0.9375
                },
                {
                    "name": "G2",
                    "midi": 43,
                    "time": 275,
                    "velocity": 0.1968503937007874,
                    "duration": 0.625
                },
                {
                    "name": "A#3",
                    "midi": 58,
                    "time": 275,
                    "velocity": 0.1968503937007874,
                    "duration": 0.625
                },
                {
                    "name": "D5",
                    "midi": 74,
                    "time": 275.3125,
                    "velocity": 0.10236220472440945,
                    "duration": 0.3125
                },
                {
                    "name": "E5",
                    "midi": 76,
                    "time": 275.3125,
                    "velocity": 0.10236220472440945,
                    "duration": 0.3125
                },
                {
                    "name": "C2",
                    "midi": 36,
                    "time": 275.625,
                    "velocity": 0.1968503937007874,
                    "duration": 0.625
                },
                {
                    "name": "D3",
                    "midi": 50,
                    "time": 275.625,
                    "velocity": 0.1968503937007874,
                    "duration": 0.625
                },
                {
                    "name": "G4",
                    "midi": 67,
                    "time": 275.9375,
                    "velocity": 0.1968503937007874,
                    "duration": 0.3125
                },
                {
                    "name": "G5",
                    "midi": 79,
                    "time": 275.9375,
                    "velocity": 0.1968503937007874,
                    "duration": 0.3125
                },
                {
                    "name": "A4",
                    "midi": 69,
                    "time": 276.25,
                    "velocity": 0.1968503937007874,
                    "duration": 0.3125
                },
                {
                    "name": "A5",
                    "midi": 81,
                    "time": 276.25,
                    "velocity": 0.1968503937007874,
                    "duration": 0.3125
                },
                {
                    "name": "G2",
                    "midi": 43,
                    "time": 276.25,
                    "velocity": 0.1968503937007874,
                    "duration": 0.625
                },
                {
                    "name": "A#3",
                    "midi": 58,
                    "time": 276.25,
                    "velocity": 0.1968503937007874,
                    "duration": 0.625
                },
                {
                    "name": "G4",
                    "midi": 67,
                    "time": 276.5625,
                    "velocity": 0.1968503937007874,
                    "duration": 0.3125
                },
                {
                    "name": "G5",
                    "midi": 79,
                    "time": 276.5625,
                    "velocity": 0.1968503937007874,
                    "duration": 0.3125
                },
                {
                    "name": "A4",
                    "midi": 69,
                    "time": 276.875,
                    "velocity": 0.1968503937007874,
                    "duration": 0.3125
                },
                {
                    "name": "A5",
                    "midi": 81,
                    "time": 276.875,
                    "velocity": 0.1968503937007874,
                    "duration": 0.3125
                },
                {
                    "name": "C2",
                    "midi": 36,
                    "time": 276.875,
                    "velocity": 0.1968503937007874,
                    "duration": 0.625
                },
                {
                    "name": "D3",
                    "midi": 50,
                    "time": 276.875,
                    "velocity": 0.1968503937007874,
                    "duration": 0.625
                },
                {
                    "name": "C5",
                    "midi": 72,
                    "time": 277.1875,
                    "velocity": 0.1968503937007874,
                    "duration": 0.3125
                },
                {
                    "name": "C6",
                    "midi": 84,
                    "time": 277.1875,
                    "velocity": 0.1968503937007874,
                    "duration": 0.3125
                },
                {
                    "name": "A4",
                    "midi": 69,
                    "time": 277.5,
                    "velocity": 0.1968503937007874,
                    "duration": 0.9375
                },
                {
                    "name": "A5",
                    "midi": 81,
                    "time": 277.5,
                    "velocity": 0.1968503937007874,
                    "duration": 0.9375
                },
                {
                    "name": "G2",
                    "midi": 43,
                    "time": 277.5,
                    "velocity": 0.1968503937007874,
                    "duration": 0.625
                },
                {
                    "name": "A#3",
                    "midi": 58,
                    "time": 277.5,
                    "velocity": 0.1968503937007874,
                    "duration": 0.625
                },
                {
                    "name": "D5",
                    "midi": 74,
                    "time": 277.8125,
                    "velocity": 0.10236220472440945,
                    "duration": 0.3125
                },
                {
                    "name": "E5",
                    "midi": 76,
                    "time": 277.8125,
                    "velocity": 0.10236220472440945,
                    "duration": 0.3125
                },
                {
                    "name": "C2",
                    "midi": 36,
                    "time": 278.125,
                    "velocity": 0.1968503937007874,
                    "duration": 0.625
                },
                {
                    "name": "D3",
                    "midi": 50,
                    "time": 278.125,
                    "velocity": 0.1968503937007874,
                    "duration": 0.625
                },
                {
                    "name": "G4",
                    "midi": 67,
                    "time": 278.4375,
                    "velocity": 0.1968503937007874,
                    "duration": 0.3125
                },
                {
                    "name": "G5",
                    "midi": 79,
                    "time": 278.4375,
                    "velocity": 0.1968503937007874,
                    "duration": 0.3125
                },
                {
                    "name": "A4",
                    "midi": 69,
                    "time": 278.75,
                    "velocity": 0.1968503937007874,
                    "duration": 0.3125
                },
                {
                    "name": "A5",
                    "midi": 81,
                    "time": 278.75,
                    "velocity": 0.1968503937007874,
                    "duration": 0.3125
                },
                {
                    "name": "A#3",
                    "midi": 58,
                    "time": 278.75,
                    "velocity": 0.1968503937007874,
                    "duration": 0.3125
                },
                {
                    "name": "G2",
                    "midi": 43,
                    "time": 278.75,
                    "velocity": 0.1968503937007874,
                    "duration": 0.625
                },
                {
                    "name": "G5",
                    "midi": 79,
                    "time": 279.0625,
                    "velocity": 0.1968503937007874,
                    "duration": 0.3125
                },
                {
                    "name": "D3",
                    "midi": 50,
                    "time": 279.0625,
                    "velocity": 0.1968503937007874,
                    "duration": 0.3125
                },
                {
                    "name": "A5",
                    "midi": 81,
                    "time": 279.375,
                    "velocity": 0.1968503937007874,
                    "duration": 0.3125
                },
                {
                    "name": "G2",
                    "midi": 43,
                    "time": 279.375,
                    "velocity": 0.1968503937007874,
                    "duration": 0.3125
                },
                {
                    "name": "C2",
                    "midi": 36,
                    "time": 279.375,
                    "velocity": 0.1968503937007874,
                    "duration": 0.625
                },
                {
                    "name": "D6",
                    "midi": 86,
                    "time": 279.6875,
                    "velocity": 0.1968503937007874,
                    "duration": 0.3125
                },
                {
                    "name": "E3",
                    "midi": 52,
                    "time": 279.6875,
                    "velocity": 0.1968503937007874,
                    "duration": 0.3125
                },
                {
                    "name": "C6",
                    "midi": 84,
                    "time": 279.84375,
                    "velocity": 0.1968503937007874,
                    "duration": 0.078125
                },
                {
                    "name": "D6",
                    "midi": 86,
                    "time": 279.921875,
                    "velocity": 0.1968503937007874,
                    "duration": 0.078125
                },
                {
                    "name": "C6",
                    "midi": 84,
                    "time": 280,
                    "velocity": 0.1968503937007874,
                    "duration": 0.15625
                },
                {
                    "name": "A#3",
                    "midi": 58,
                    "time": 280,
                    "velocity": 0.1968503937007874,
                    "duration": 0.3125
                },
                {
                    "name": "G2",
                    "midi": 43,
                    "time": 280,
                    "velocity": 0.1968503937007874,
                    "duration": 0.625
                },
                {
                    "name": "A#5",
                    "midi": 82,
                    "time": 280.15625,
                    "velocity": 0.1968503937007874,
                    "duration": 0.15625
                },
                {
                    "name": "A5",
                    "midi": 81,
                    "time": 280.3125,
                    "velocity": 0.1968503937007874,
                    "duration": 0.15625
                },
                {
                    "name": "D3",
                    "midi": 50,
                    "time": 280.3125,
                    "velocity": 0.1968503937007874,
                    "duration": 0.3125
                },
                {
                    "name": "G5",
                    "midi": 79,
                    "time": 280.46875,
                    "velocity": 0.1968503937007874,
                    "duration": 0.15625
                },
                {
                    "name": "A5",
                    "midi": 81,
                    "time": 280.625,
                    "velocity": 0.1968503937007874,
                    "duration": 0.3125
                },
                {
                    "name": "G2",
                    "midi": 43,
                    "time": 280.625,
                    "velocity": 0.1968503937007874,
                    "duration": 0.3125
                },
                {
                    "name": "C2",
                    "midi": 36,
                    "time": 280.625,
                    "velocity": 0.1968503937007874,
                    "duration": 0.625
                },
                {
                    "name": "G4",
                    "midi": 67,
                    "time": 280.9375,
                    "velocity": 0.1968503937007874,
                    "duration": 0.3125
                },
                {
                    "name": "G5",
                    "midi": 79,
                    "time": 280.9375,
                    "velocity": 0.1968503937007874,
                    "duration": 0.3125
                },
                {
                    "name": "E3",
                    "midi": 52,
                    "time": 280.9375,
                    "velocity": 0.1968503937007874,
                    "duration": 0.3125
                },
                {
                    "name": "A4",
                    "midi": 69,
                    "time": 281.25,
                    "velocity": 0.1968503937007874,
                    "duration": 0.3125
                },
                {
                    "name": "A5",
                    "midi": 81,
                    "time": 281.25,
                    "velocity": 0.1968503937007874,
                    "duration": 0.3125
                },
                {
                    "name": "A#3",
                    "midi": 58,
                    "time": 281.25,
                    "velocity": 0.1968503937007874,
                    "duration": 0.3125
                },
                {
                    "name": "G2",
                    "midi": 43,
                    "time": 281.25,
                    "velocity": 0.1968503937007874,
                    "duration": 0.625
                },
                {
                    "name": "G5",
                    "midi": 79,
                    "time": 281.5625,
                    "velocity": 0.1968503937007874,
                    "duration": 0.3125
                },
                {
                    "name": "D3",
                    "midi": 50,
                    "time": 281.5625,
                    "velocity": 0.1968503937007874,
                    "duration": 0.3125
                },
                {
                    "name": "A5",
                    "midi": 81,
                    "time": 281.875,
                    "velocity": 0.1968503937007874,
                    "duration": 0.3125
                },
                {
                    "name": "G2",
                    "midi": 43,
                    "time": 281.875,
                    "velocity": 0.1968503937007874,
                    "duration": 0.3125
                },
                {
                    "name": "C2",
                    "midi": 36,
                    "time": 281.875,
                    "velocity": 0.1968503937007874,
                    "duration": 0.625
                },
                {
                    "name": "D6",
                    "midi": 86,
                    "time": 282.1875,
                    "velocity": 0.1968503937007874,
                    "duration": 0.3125
                },
                {
                    "name": "E3",
                    "midi": 52,
                    "time": 282.1875,
                    "velocity": 0.1968503937007874,
                    "duration": 0.3125
                },
                {
                    "name": "C6",
                    "midi": 84,
                    "time": 282.34375,
                    "velocity": 0.1968503937007874,
                    "duration": 0.078125
                },
                {
                    "name": "D6",
                    "midi": 86,
                    "time": 282.421875,
                    "velocity": 0.1968503937007874,
                    "duration": 0.078125
                },
                {
                    "name": "C6",
                    "midi": 84,
                    "time": 282.5,
                    "velocity": 0.1968503937007874,
                    "duration": 0.15625
                },
                {
                    "name": "A#3",
                    "midi": 58,
                    "time": 282.5,
                    "velocity": 0.1968503937007874,
                    "duration": 0.3125
                },
                {
                    "name": "G2",
                    "midi": 43,
                    "time": 282.5,
                    "velocity": 0.1968503937007874,
                    "duration": 0.625
                },
                {
                    "name": "A#5",
                    "midi": 82,
                    "time": 282.65625,
                    "velocity": 0.1968503937007874,
                    "duration": 0.15625
                },
                {
                    "name": "A5",
                    "midi": 81,
                    "time": 282.8125,
                    "velocity": 0.1968503937007874,
                    "duration": 0.15625
                },
                {
                    "name": "D3",
                    "midi": 50,
                    "time": 282.8125,
                    "velocity": 0.1968503937007874,
                    "duration": 0.3125
                },
                {
                    "name": "G5",
                    "midi": 79,
                    "time": 282.96875,
                    "velocity": 0.1968503937007874,
                    "duration": 0.15625
                },
                {
                    "name": "A5",
                    "midi": 81,
                    "time": 283.125,
                    "velocity": 0.1968503937007874,
                    "duration": 0.625
                },
                {
                    "name": "G2",
                    "midi": 43,
                    "time": 283.125,
                    "velocity": 0.1968503937007874,
                    "duration": 0.3125
                },
                {
                    "name": "C2",
                    "midi": 36,
                    "time": 283.125,
                    "velocity": 0.1968503937007874,
                    "duration": 0.625
                },
                {
                    "name": "E3",
                    "midi": 52,
                    "time": 283.4375,
                    "velocity": 0.1968503937007874,
                    "duration": 0.3125
                },
                {
                    "name": "G3",
                    "midi": 55,
                    "time": 283.75,
                    "velocity": 0.5039370078740157,
                    "duration": 0.625
                },
                {
                    "name": "A3",
                    "midi": 57,
                    "time": 283.75,
                    "velocity": 0.11811023622047244,
                    "duration": 0.3125
                },
                {
                    "name": "A#3",
                    "midi": 58,
                    "time": 283.75,
                    "velocity": 0.11811023622047244,
                    "duration": 0.3125
                },
                {
                    "name": "C4",
                    "midi": 60,
                    "time": 284.0625,
                    "velocity": 0.11811023622047244,
                    "duration": 0.3125
                },
                {
                    "name": "E4",
                    "midi": 64,
                    "time": 284.0625,
                    "velocity": 0.11811023622047244,
                    "duration": 0.3125
                },
                {
                    "name": "G3",
                    "midi": 55,
                    "time": 284.375,
                    "velocity": 0.5039370078740157,
                    "duration": 0.625
                },
                {
                    "name": "A3",
                    "midi": 57,
                    "time": 284.375,
                    "velocity": 0.11811023622047244,
                    "duration": 0.3125
                },
                {
                    "name": "A#3",
                    "midi": 58,
                    "time": 284.375,
                    "velocity": 0.11811023622047244,
                    "duration": 0.3125
                },
                {
                    "name": "D4",
                    "midi": 62,
                    "time": 284.6875,
                    "velocity": 0.11811023622047244,
                    "duration": 0.3125
                },
                {
                    "name": "F4",
                    "midi": 65,
                    "time": 284.6875,
                    "velocity": 0.11811023622047244,
                    "duration": 0.3125
                },
                {
                    "name": "G3",
                    "midi": 55,
                    "time": 285,
                    "velocity": 0.5039370078740157,
                    "duration": 0.3125
                },
                {
                    "name": "A3",
                    "midi": 57,
                    "time": 285,
                    "velocity": 0.11811023622047244,
                    "duration": 0.3125
                },
                {
                    "name": "A#3",
                    "midi": 58,
                    "time": 285,
                    "velocity": 0.11811023622047244,
                    "duration": 0.3125
                },
                {
                    "name": "F3",
                    "midi": 53,
                    "time": 285.3125,
                    "velocity": 0.5039370078740157,
                    "duration": 0.3125
                },
                {
                    "name": "C4",
                    "midi": 60,
                    "time": 285.3125,
                    "velocity": 0.11811023622047244,
                    "duration": 0.3125
                },
                {
                    "name": "E4",
                    "midi": 64,
                    "time": 285.3125,
                    "velocity": 0.11811023622047244,
                    "duration": 0.3125
                },
                {
                    "name": "E3",
                    "midi": 52,
                    "time": 285.625,
                    "velocity": 0.5039370078740157,
                    "duration": 0.3125
                },
                {
                    "name": "A3",
                    "midi": 57,
                    "time": 285.625,
                    "velocity": 0.11811023622047244,
                    "duration": 0.3125
                },
                {
                    "name": "A#3",
                    "midi": 58,
                    "time": 285.625,
                    "velocity": 0.11811023622047244,
                    "duration": 0.3125
                },
                {
                    "name": "D3",
                    "midi": 50,
                    "time": 285.9375,
                    "velocity": 0.5039370078740157,
                    "duration": 0.3125
                },
                {
                    "name": "D4",
                    "midi": 62,
                    "time": 285.9375,
                    "velocity": 0.11811023622047244,
                    "duration": 0.3125
                },
                {
                    "name": "F4",
                    "midi": 65,
                    "time": 285.9375,
                    "velocity": 0.11811023622047244,
                    "duration": 0.3125
                },
                {
                    "name": "C3",
                    "midi": 48,
                    "time": 286.25,
                    "velocity": 0.5039370078740157,
                    "duration": 0.625
                },
                {
                    "name": "A3",
                    "midi": 57,
                    "time": 286.25,
                    "velocity": 0.11811023622047244,
                    "duration": 0.3125
                },
                {
                    "name": "A#3",
                    "midi": 58,
                    "time": 286.25,
                    "velocity": 0.11811023622047244,
                    "duration": 0.3125
                },
                {
                    "name": "C4",
                    "midi": 60,
                    "time": 286.5625,
                    "velocity": 0.11811023622047244,
                    "duration": 0.3125
                },
                {
                    "name": "E4",
                    "midi": 64,
                    "time": 286.5625,
                    "velocity": 0.11811023622047244,
                    "duration": 0.3125
                },
                {
                    "name": "G3",
                    "midi": 55,
                    "time": 286.875,
                    "velocity": 0.5039370078740157,
                    "duration": 0.625
                },
                {
                    "name": "A3",
                    "midi": 57,
                    "time": 286.875,
                    "velocity": 0.11811023622047244,
                    "duration": 0.3125
                },
                {
                    "name": "A#3",
                    "midi": 58,
                    "time": 286.875,
                    "velocity": 0.11811023622047244,
                    "duration": 0.3125
                },
                {
                    "name": "D4",
                    "midi": 62,
                    "time": 287.1875,
                    "velocity": 0.11811023622047244,
                    "duration": 0.3125
                },
                {
                    "name": "F4",
                    "midi": 65,
                    "time": 287.1875,
                    "velocity": 0.11811023622047244,
                    "duration": 0.3125
                },
                {
                    "name": "C3",
                    "midi": 48,
                    "time": 287.5,
                    "velocity": 0.5039370078740157,
                    "duration": 1.25
                },
                {
                    "name": "A3",
                    "midi": 57,
                    "time": 287.5,
                    "velocity": 0.11811023622047244,
                    "duration": 0.3125
                },
                {
                    "name": "A#3",
                    "midi": 58,
                    "time": 287.5,
                    "velocity": 0.11811023622047244,
                    "duration": 0.3125
                },
                {
                    "name": "C4",
                    "midi": 60,
                    "time": 287.8125,
                    "velocity": 0.11811023622047244,
                    "duration": 0.3125
                },
                {
                    "name": "E4",
                    "midi": 64,
                    "time": 287.8125,
                    "velocity": 0.11811023622047244,
                    "duration": 0.3125
                },
                {
                    "name": "A3",
                    "midi": 57,
                    "time": 288.125,
                    "velocity": 0.11811023622047244,
                    "duration": 0.3125
                },
                {
                    "name": "A#3",
                    "midi": 58,
                    "time": 288.125,
                    "velocity": 0.11811023622047244,
                    "duration": 0.3125
                },
                {
                    "name": "D4",
                    "midi": 62,
                    "time": 288.4375,
                    "velocity": 0.11811023622047244,
                    "duration": 0.3125
                },
                {
                    "name": "F4",
                    "midi": 65,
                    "time": 288.4375,
                    "velocity": 0.11811023622047244,
                    "duration": 0.3125
                },
                {
                    "name": "A3",
                    "midi": 57,
                    "time": 288.75,
                    "velocity": 0.11811023622047244,
                    "duration": 0.3125
                },
                {
                    "name": "A#3",
                    "midi": 58,
                    "time": 288.75,
                    "velocity": 0.11811023622047244,
                    "duration": 0.3125
                },
                {
                    "name": "C4",
                    "midi": 60,
                    "time": 289.0625,
                    "velocity": 0.11811023622047244,
                    "duration": 0.3125
                },
                {
                    "name": "E4",
                    "midi": 64,
                    "time": 289.0625,
                    "velocity": 0.11811023622047244,
                    "duration": 0.3125
                },
                {
                    "name": "G4",
                    "midi": 67,
                    "time": 289.375,
                    "velocity": 0.31496062992125984,
                    "duration": 0.078125
                },
                {
                    "name": "A3",
                    "midi": 57,
                    "time": 289.375,
                    "velocity": 0.11811023622047244,
                    "duration": 0.3125
                },
                {
                    "name": "A#3",
                    "midi": 58,
                    "time": 289.375,
                    "velocity": 0.11811023622047244,
                    "duration": 0.3125
                },
                {
                    "name": "A4",
                    "midi": 69,
                    "time": 289.453125,
                    "velocity": 0.2755905511811024,
                    "duration": 0.078125
                },
                {
                    "name": "G4",
                    "midi": 67,
                    "time": 289.53125,
                    "velocity": 0.23622047244094488,
                    "duration": 0.078125
                },
                {
                    "name": "A4",
                    "midi": 69,
                    "time": 289.609375,
                    "velocity": 0.1968503937007874,
                    "duration": 0.078125
                },
                {
                    "name": "G4",
                    "midi": 67,
                    "time": 289.6875,
                    "velocity": 0.15748031496062992,
                    "duration": 0.078125
                },
                {
                    "name": "D4",
                    "midi": 62,
                    "time": 289.6875,
                    "velocity": 0.11811023622047244,
                    "duration": 0.3125
                },
                {
                    "name": "F4",
                    "midi": 65,
                    "time": 289.6875,
                    "velocity": 0.11811023622047244,
                    "duration": 0.3125
                },
                {
                    "name": "A4",
                    "midi": 69,
                    "time": 289.765625,
                    "velocity": 0.15748031496062992,
                    "duration": 0.078125
                },
                {
                    "name": "G4",
                    "midi": 67,
                    "time": 289.84375,
                    "velocity": 0.15748031496062992,
                    "duration": 0.078125
                },
                {
                    "name": "A4",
                    "midi": 69,
                    "time": 289.921875,
                    "velocity": 0.15748031496062992,
                    "duration": 0.078125
                },
                {
                    "name": "G4",
                    "midi": 67,
                    "time": 290,
                    "velocity": 0.15748031496062992,
                    "duration": 0.078125
                },
                {
                    "name": "A3",
                    "midi": 57,
                    "time": 290,
                    "velocity": 0.11811023622047244,
                    "duration": 0.3125
                },
                {
                    "name": "A#3",
                    "midi": 58,
                    "time": 290,
                    "velocity": 0.11811023622047244,
                    "duration": 0.3125
                },
                {
                    "name": "A4",
                    "midi": 69,
                    "time": 290.078125,
                    "velocity": 0.15748031496062992,
                    "duration": 0.078125
                },
                {
                    "name": "G4",
                    "midi": 67,
                    "time": 290.15625,
                    "velocity": 0.15748031496062992,
                    "duration": 0.078125
                },
                {
                    "name": "A4",
                    "midi": 69,
                    "time": 290.234375,
                    "velocity": 0.15748031496062992,
                    "duration": 0.078125
                },
                {
                    "name": "G4",
                    "midi": 67,
                    "time": 290.3125,
                    "velocity": 0.15748031496062992,
                    "duration": 0.078125
                },
                {
                    "name": "C4",
                    "midi": 60,
                    "time": 290.3125,
                    "velocity": 0.11811023622047244,
                    "duration": 0.3125
                },
                {
                    "name": "E4",
                    "midi": 64,
                    "time": 290.3125,
                    "velocity": 0.11811023622047244,
                    "duration": 0.3125
                },
                {
                    "name": "A4",
                    "midi": 69,
                    "time": 290.390625,
                    "velocity": 0.15748031496062992,
                    "duration": 0.078125
                },
                {
                    "name": "G4",
                    "midi": 67,
                    "time": 290.46875,
                    "velocity": 0.15748031496062992,
                    "duration": 0.078125
                },
                {
                    "name": "A4",
                    "midi": 69,
                    "time": 290.546875,
                    "velocity": 0.15748031496062992,
                    "duration": 0.078125
                },
                {
                    "name": "G4",
                    "midi": 67,
                    "time": 290.625,
                    "velocity": 0.15748031496062992,
                    "duration": 0.078125
                },
                {
                    "name": "A3",
                    "midi": 57,
                    "time": 290.625,
                    "velocity": 0.11811023622047244,
                    "duration": 0.3125
                },
                {
                    "name": "A#3",
                    "midi": 58,
                    "time": 290.625,
                    "velocity": 0.11811023622047244,
                    "duration": 0.3125
                },
                {
                    "name": "A4",
                    "midi": 69,
                    "time": 290.703125,
                    "velocity": 0.15748031496062992,
                    "duration": 0.078125
                },
                {
                    "name": "G4",
                    "midi": 67,
                    "time": 290.78125,
                    "velocity": 0.15748031496062992,
                    "duration": 0.078125
                },
                {
                    "name": "A4",
                    "midi": 69,
                    "time": 290.859375,
                    "velocity": 0.15748031496062992,
                    "duration": 0.078125
                },
                {
                    "name": "G4",
                    "midi": 67,
                    "time": 290.9375,
                    "velocity": 0.15748031496062992,
                    "duration": 0.078125
                },
                {
                    "name": "D4",
                    "midi": 62,
                    "time": 290.9375,
                    "velocity": 0.11811023622047244,
                    "duration": 0.3125
                },
                {
                    "name": "F4",
                    "midi": 65,
                    "time": 290.9375,
                    "velocity": 0.11811023622047244,
                    "duration": 0.3125
                },
                {
                    "name": "A4",
                    "midi": 69,
                    "time": 291.015625,
                    "velocity": 0.15748031496062992,
                    "duration": 0.078125
                },
                {
                    "name": "G4",
                    "midi": 67,
                    "time": 291.09375,
                    "velocity": 0.15748031496062992,
                    "duration": 0.078125
                },
                {
                    "name": "A4",
                    "midi": 69,
                    "time": 291.171875,
                    "velocity": 0.15748031496062992,
                    "duration": 0.078125
                },
                {
                    "name": "A3",
                    "midi": 57,
                    "time": 291.25,
                    "velocity": 0.11811023622047244,
                    "duration": 0.3125
                },
                {
                    "name": "A#3",
                    "midi": 58,
                    "time": 291.25,
                    "velocity": 0.11811023622047244,
                    "duration": 0.3125
                },
                {
                    "name": "C4",
                    "midi": 60,
                    "time": 291.5625,
                    "velocity": 0.11811023622047244,
                    "duration": 0.3125
                },
                {
                    "name": "E4",
                    "midi": 64,
                    "time": 291.5625,
                    "velocity": 0.11811023622047244,
                    "duration": 0.3125
                },
                {
                    "name": "G4",
                    "midi": 67,
                    "time": 291.875,
                    "velocity": 0.31496062992125984,
                    "duration": 0.078125
                },
                {
                    "name": "A3",
                    "midi": 57,
                    "time": 291.875,
                    "velocity": 0.11811023622047244,
                    "duration": 0.3125
                },
                {
                    "name": "A#3",
                    "midi": 58,
                    "time": 291.875,
                    "velocity": 0.11811023622047244,
                    "duration": 0.3125
                },
                {
                    "name": "A4",
                    "midi": 69,
                    "time": 291.953125,
                    "velocity": 0.2755905511811024,
                    "duration": 0.078125
                },
                {
                    "name": "G4",
                    "midi": 67,
                    "time": 292.03125,
                    "velocity": 0.23622047244094488,
                    "duration": 0.078125
                },
                {
                    "name": "A4",
                    "midi": 69,
                    "time": 292.109375,
                    "velocity": 0.1968503937007874,
                    "duration": 0.078125
                },
                {
                    "name": "G4",
                    "midi": 67,
                    "time": 292.1875,
                    "velocity": 0.15748031496062992,
                    "duration": 0.078125
                },
                {
                    "name": "D4",
                    "midi": 62,
                    "time": 292.1875,
                    "velocity": 0.11811023622047244,
                    "duration": 0.3125
                },
                {
                    "name": "F4",
                    "midi": 65,
                    "time": 292.1875,
                    "velocity": 0.11811023622047244,
                    "duration": 0.3125
                },
                {
                    "name": "A4",
                    "midi": 69,
                    "time": 292.265625,
                    "velocity": 0.15748031496062992,
                    "duration": 0.078125
                },
                {
                    "name": "G4",
                    "midi": 67,
                    "time": 292.34375,
                    "velocity": 0.15748031496062992,
                    "duration": 0.078125
                },
                {
                    "name": "A4",
                    "midi": 69,
                    "time": 292.421875,
                    "velocity": 0.15748031496062992,
                    "duration": 0.078125
                },
                {
                    "name": "G4",
                    "midi": 67,
                    "time": 292.5,
                    "velocity": 0.15748031496062992,
                    "duration": 0.078125
                },
                {
                    "name": "A3",
                    "midi": 57,
                    "time": 292.5,
                    "velocity": 0.11811023622047244,
                    "duration": 0.3125
                },
                {
                    "name": "A#3",
                    "midi": 58,
                    "time": 292.5,
                    "velocity": 0.11811023622047244,
                    "duration": 0.3125
                },
                {
                    "name": "A4",
                    "midi": 69,
                    "time": 292.578125,
                    "velocity": 0.15748031496062992,
                    "duration": 0.078125
                },
                {
                    "name": "G4",
                    "midi": 67,
                    "time": 292.65625,
                    "velocity": 0.15748031496062992,
                    "duration": 0.078125
                },
                {
                    "name": "A4",
                    "midi": 69,
                    "time": 292.734375,
                    "velocity": 0.15748031496062992,
                    "duration": 0.078125
                },
                {
                    "name": "G4",
                    "midi": 67,
                    "time": 292.8125,
                    "velocity": 0.15748031496062992,
                    "duration": 0.078125
                },
                {
                    "name": "C4",
                    "midi": 60,
                    "time": 292.8125,
                    "velocity": 0.11811023622047244,
                    "duration": 0.3125
                },
                {
                    "name": "E4",
                    "midi": 64,
                    "time": 292.8125,
                    "velocity": 0.11811023622047244,
                    "duration": 0.3125
                },
                {
                    "name": "A4",
                    "midi": 69,
                    "time": 292.890625,
                    "velocity": 0.15748031496062992,
                    "duration": 0.078125
                },
                {
                    "name": "G4",
                    "midi": 67,
                    "time": 292.96875,
                    "velocity": 0.15748031496062992,
                    "duration": 0.078125
                },
                {
                    "name": "A4",
                    "midi": 69,
                    "time": 293.046875,
                    "velocity": 0.15748031496062992,
                    "duration": 0.078125
                },
                {
                    "name": "G4",
                    "midi": 67,
                    "time": 293.125,
                    "velocity": 0.15748031496062992,
                    "duration": 0.078125
                },
                {
                    "name": "A3",
                    "midi": 57,
                    "time": 293.125,
                    "velocity": 0.11811023622047244,
                    "duration": 0.3125
                },
                {
                    "name": "A#3",
                    "midi": 58,
                    "time": 293.125,
                    "velocity": 0.11811023622047244,
                    "duration": 0.3125
                },
                {
                    "name": "A4",
                    "midi": 69,
                    "time": 293.203125,
                    "velocity": 0.15748031496062992,
                    "duration": 0.078125
                },
                {
                    "name": "G4",
                    "midi": 67,
                    "time": 293.28125,
                    "velocity": 0.15748031496062992,
                    "duration": 0.078125
                },
                {
                    "name": "A4",
                    "midi": 69,
                    "time": 293.359375,
                    "velocity": 0.15748031496062992,
                    "duration": 0.078125
                },
                {
                    "name": "G4",
                    "midi": 67,
                    "time": 293.4375,
                    "velocity": 0.15748031496062992,
                    "duration": 0.078125
                },
                {
                    "name": "D4",
                    "midi": 62,
                    "time": 293.4375,
                    "velocity": 0.11811023622047244,
                    "duration": 0.3125
                },
                {
                    "name": "F4",
                    "midi": 65,
                    "time": 293.4375,
                    "velocity": 0.11811023622047244,
                    "duration": 0.3125
                },
                {
                    "name": "A4",
                    "midi": 69,
                    "time": 293.515625,
                    "velocity": 0.15748031496062992,
                    "duration": 0.078125
                },
                {
                    "name": "G4",
                    "midi": 67,
                    "time": 293.59375,
                    "velocity": 0.15748031496062992,
                    "duration": 0.078125
                },
                {
                    "name": "A4",
                    "midi": 69,
                    "time": 293.671875,
                    "velocity": 0.15748031496062992,
                    "duration": 0.078125
                },
                {
                    "name": "C4",
                    "midi": 60,
                    "time": 293.75,
                    "velocity": 0.09448818897637795,
                    "duration": 0.3125
                },
                {
                    "name": "C4",
                    "midi": 60,
                    "time": 293.75,
                    "velocity": 0.09448818897637795,
                    "duration": 0.3125
                },
                {
                    "name": "D4",
                    "midi": 62,
                    "time": 294.0625,
                    "velocity": 0.13385826771653545,
                    "duration": 0.3125
                },
                {
                    "name": "A#3",
                    "midi": 58,
                    "time": 294.0625,
                    "velocity": 0.13385826771653545,
                    "duration": 0.3125
                },
                {
                    "name": "E4",
                    "midi": 64,
                    "time": 294.375,
                    "velocity": 0.1732283464566929,
                    "duration": 0.3125
                },
                {
                    "name": "A3",
                    "midi": 57,
                    "time": 294.375,
                    "velocity": 0.1732283464566929,
                    "duration": 0.3125
                },
                {
                    "name": "F4",
                    "midi": 65,
                    "time": 294.6875,
                    "velocity": 0.2204724409448819,
                    "duration": 0.3125
                },
                {
                    "name": "G3",
                    "midi": 55,
                    "time": 294.6875,
                    "velocity": 0.2204724409448819,
                    "duration": 0.3125
                },
                {
                    "name": "G4",
                    "midi": 67,
                    "time": 295,
                    "velocity": 0.25984251968503935,
                    "duration": 0.3125
                },
                {
                    "name": "F3",
                    "midi": 53,
                    "time": 295,
                    "velocity": 0.25984251968503935,
                    "duration": 0.3125
                },
                {
                    "name": "A4",
                    "midi": 69,
                    "time": 295.3125,
                    "velocity": 0.2992125984251969,
                    "duration": 0.3125
                },
                {
                    "name": "E3",
                    "midi": 52,
                    "time": 295.3125,
                    "velocity": 0.2992125984251969,
                    "duration": 0.3125
                },
                {
                    "name": "A#4",
                    "midi": 70,
                    "time": 295.625,
                    "velocity": 0.33858267716535434,
                    "duration": 0.3125
                },
                {
                    "name": "D3",
                    "midi": 50,
                    "time": 295.625,
                    "velocity": 0.33858267716535434,
                    "duration": 0.3125
                },
                {
                    "name": "C5",
                    "midi": 72,
                    "time": 295.9375,
                    "velocity": 0.3779527559055118,
                    "duration": 0.3125
                },
                {
                    "name": "C3",
                    "midi": 48,
                    "time": 295.9375,
                    "velocity": 0.3779527559055118,
                    "duration": 0.3125
                },
                {
                    "name": "D5",
                    "midi": 74,
                    "time": 296.25,
                    "velocity": 0.4251968503937008,
                    "duration": 0.3125
                },
                {
                    "name": "A#2",
                    "midi": 46,
                    "time": 296.25,
                    "velocity": 0.4251968503937008,
                    "duration": 0.3125
                },
                {
                    "name": "E5",
                    "midi": 76,
                    "time": 296.5625,
                    "velocity": 0.4645669291338583,
                    "duration": 0.3125
                },
                {
                    "name": "G2",
                    "midi": 43,
                    "time": 296.5625,
                    "velocity": 0.4645669291338583,
                    "duration": 0.3125
                },
                {
                    "name": "F4",
                    "midi": 65,
                    "time": 296.875,
                    "velocity": 0.5511811023622047,
                    "duration": 0.625
                },
                {
                    "name": "F5",
                    "midi": 77,
                    "time": 296.875,
                    "velocity": 0.5511811023622047,
                    "duration": 0.625
                },
                {
                    "name": "F2",
                    "midi": 41,
                    "time": 296.875,
                    "velocity": 0.47244094488188976,
                    "duration": 0.625
                },
                {
                    "name": "A3",
                    "midi": 57,
                    "time": 296.875,
                    "velocity": 0.47244094488188976,
                    "duration": 0.625
                },
                {
                    "name": "A4",
                    "midi": 69,
                    "time": 297.1875,
                    "velocity": 0.4330708661417323,
                    "duration": 0.3125
                },
                {
                    "name": "C5",
                    "midi": 72,
                    "time": 297.1875,
                    "velocity": 0.4330708661417323,
                    "duration": 0.3125
                },
                {
                    "name": "F4",
                    "midi": 65,
                    "time": 297.5,
                    "velocity": 0.5511811023622047,
                    "duration": 0.46875
                },
                {
                    "name": "F5",
                    "midi": 77,
                    "time": 297.5,
                    "velocity": 0.5511811023622047,
                    "duration": 0.46875
                },
                {
                    "name": "A#2",
                    "midi": 46,
                    "time": 297.5,
                    "velocity": 0.47244094488188976,
                    "duration": 0.625
                },
                {
                    "name": "D4",
                    "midi": 62,
                    "time": 297.5,
                    "velocity": 0.47244094488188976,
                    "duration": 0.625
                },
                {
                    "name": "A#4",
                    "midi": 70,
                    "time": 297.8125,
                    "velocity": 0.4330708661417323,
                    "duration": 0.3125
                },
                {
                    "name": "D5",
                    "midi": 74,
                    "time": 297.8125,
                    "velocity": 0.4330708661417323,
                    "duration": 0.3125
                },
                {
                    "name": "F5",
                    "midi": 77,
                    "time": 297.96875,
                    "velocity": 0.5511811023622047,
                    "duration": 0.15625
                },
                {
                    "name": "G5",
                    "midi": 79,
                    "time": 298.125,
                    "velocity": 0.5511811023622047,
                    "duration": 0.15625
                },
                {
                    "name": "G2",
                    "midi": 43,
                    "time": 298.125,
                    "velocity": 0.47244094488188976,
                    "duration": 0.625
                },
                {
                    "name": "A#3",
                    "midi": 58,
                    "time": 298.125,
                    "velocity": 0.47244094488188976,
                    "duration": 0.625
                },
                {
                    "name": "F5",
                    "midi": 77,
                    "time": 298.28125,
                    "velocity": 0.5511811023622047,
                    "duration": 0.15625
                },
                {
                    "name": "E5",
                    "midi": 76,
                    "time": 298.4375,
                    "velocity": 0.5511811023622047,
                    "duration": 0.15625
                },
                {
                    "name": "D5",
                    "midi": 74,
                    "time": 298.59375,
                    "velocity": 0.5511811023622047,
                    "duration": 0.15625
                },
                {
                    "name": "C5",
                    "midi": 72,
                    "time": 298.75,
                    "velocity": 0.5511811023622047,
                    "duration": 0.3125
                },
                {
                    "name": "C3",
                    "midi": 48,
                    "time": 298.75,
                    "velocity": 0.47244094488188976,
                    "duration": 3.125
                },
                {
                    "name": "E4",
                    "midi": 64,
                    "time": 299.0625,
                    "velocity": 0.5511811023622047,
                    "duration": 0.15625
                },
                {
                    "name": "A4",
                    "midi": 69,
                    "time": 299.0625,
                    "velocity": 0.5511811023622047,
                    "duration": 0.15625
                },
                {
                    "name": "C5",
                    "midi": 72,
                    "time": 299.0625,
                    "velocity": 0.5511811023622047,
                    "duration": 0.15625
                },
                {
                    "name": "A3",
                    "midi": 57,
                    "time": 299.0625,
                    "velocity": 0.47244094488188976,
                    "duration": 0.3125
                },
                {
                    "name": "C4",
                    "midi": 60,
                    "time": 299.0625,
                    "velocity": 0.47244094488188976,
                    "duration": 0.3125
                },
                {
                    "name": "E5",
                    "midi": 76,
                    "time": 299.21875,
                    "velocity": 0.5511811023622047,
                    "duration": 0.15625
                },
                {
                    "name": "C5",
                    "midi": 72,
                    "time": 299.375,
                    "velocity": 0.5511811023622047,
                    "duration": 0.3125
                },
                {
                    "name": "F4",
                    "midi": 65,
                    "time": 299.6875,
                    "velocity": 0.5433070866141733,
                    "duration": 0.15625
                },
                {
                    "name": "A4",
                    "midi": 69,
                    "time": 299.6875,
                    "velocity": 0.5433070866141733,
                    "duration": 0.15625
                },
                {
                    "name": "C5",
                    "midi": 72,
                    "time": 299.6875,
                    "velocity": 0.5433070866141733,
                    "duration": 0.15625
                },
                {
                    "name": "A#3",
                    "midi": 58,
                    "time": 299.6875,
                    "velocity": 0.47244094488188976,
                    "duration": 0.3125
                },
                {
                    "name": "D4",
                    "midi": 62,
                    "time": 299.6875,
                    "velocity": 0.47244094488188976,
                    "duration": 0.3125
                },
                {
                    "name": "E5",
                    "midi": 76,
                    "time": 299.84375,
                    "velocity": 0.5354330708661418,
                    "duration": 0.15625
                },
                {
                    "name": "C5",
                    "midi": 72,
                    "time": 300,
                    "velocity": 0.5275590551181102,
                    "duration": 0.3125
                },
                {
                    "name": "A4",
                    "midi": 69,
                    "time": 300.3125,
                    "velocity": 0.5196850393700787,
                    "duration": 0.15625
                },
                {
                    "name": "C4",
                    "midi": 60,
                    "time": 300.3125,
                    "velocity": 0.47244094488188976,
                    "duration": 0.3125
                },
                {
                    "name": "E4",
                    "midi": 64,
                    "time": 300.3125,
                    "velocity": 0.47244094488188976,
                    "duration": 0.3125
                },
                {
                    "name": "A#4",
                    "midi": 70,
                    "time": 300.46875,
                    "velocity": 0.5196850393700787,
                    "duration": 0.15625
                },
                {
                    "name": "C5",
                    "midi": 72,
                    "time": 300.625,
                    "velocity": 0.5118110236220472,
                    "duration": 0.15625
                },
                {
                    "name": "A#4",
                    "midi": 70,
                    "time": 300.78125,
                    "velocity": 0.5039370078740157,
                    "duration": 0.15625
                },
                {
                    "name": "A4",
                    "midi": 69,
                    "time": 300.9375,
                    "velocity": 0.5039370078740157,
                    "duration": 0.15625
                },
                {
                    "name": "G4",
                    "midi": 67,
                    "time": 301.09375,
                    "velocity": 0.49606299212598426,
                    "duration": 0.15625
                },
                {
                    "name": "F4",
                    "midi": 65,
                    "time": 301.25,
                    "velocity": 0.4881889763779528,
                    "duration": 0.2032470703125
                },
                {
                    "name": "C5",
                    "midi": 72,
                    "time": 301.40625,
                    "velocity": 0.3937007874015748,
                    "duration": 0.15625
                },
                {
                    "name": "D5",
                    "midi": 74,
                    "time": 301.5625,
                    "velocity": 0.47244094488188976,
                    "duration": 0.15625
                },
                {
                    "name": "E5",
                    "midi": 76,
                    "time": 301.71875,
                    "velocity": 0.5511811023622047,
                    "duration": 0.15625
                },
                {
                    "name": "F4",
                    "midi": 65,
                    "time": 301.875,
                    "velocity": 0.5511811023622047,
                    "duration": 0.625
                },
                {
                    "name": "F5",
                    "midi": 77,
                    "time": 301.875,
                    "velocity": 0.5511811023622047,
                    "duration": 0.625
                },
                {
                    "name": "F2",
                    "midi": 41,
                    "time": 301.875,
                    "velocity": 0.47244094488188976,
                    "duration": 0.625
                },
                {
                    "name": "A3",
                    "midi": 57,
                    "time": 301.875,
                    "velocity": 0.47244094488188976,
                    "duration": 0.625
                },
                {
                    "name": "A4",
                    "midi": 69,
                    "time": 302.1875,
                    "velocity": 0.4330708661417323,
                    "duration": 0.3125
                },
                {
                    "name": "C5",
                    "midi": 72,
                    "time": 302.1875,
                    "velocity": 0.4330708661417323,
                    "duration": 0.3125
                },
                {
                    "name": "F4",
                    "midi": 65,
                    "time": 302.5,
                    "velocity": 0.5511811023622047,
                    "duration": 0.46875
                },
                {
                    "name": "F5",
                    "midi": 77,
                    "time": 302.5,
                    "velocity": 0.5511811023622047,
                    "duration": 0.46875
                },
                {
                    "name": "A#2",
                    "midi": 46,
                    "time": 302.5,
                    "velocity": 0.47244094488188976,
                    "duration": 0.625
                },
                {
                    "name": "D4",
                    "midi": 62,
                    "time": 302.5,
                    "velocity": 0.47244094488188976,
                    "duration": 0.625
                },
                {
                    "name": "A#4",
                    "midi": 70,
                    "time": 302.8125,
                    "velocity": 0.4330708661417323,
                    "duration": 0.3125
                },
                {
                    "name": "D5",
                    "midi": 74,
                    "time": 302.8125,
                    "velocity": 0.4330708661417323,
                    "duration": 0.3125
                },
                {
                    "name": "F5",
                    "midi": 77,
                    "time": 302.96875,
                    "velocity": 0.5511811023622047,
                    "duration": 0.15625
                },
                {
                    "name": "G5",
                    "midi": 79,
                    "time": 303.125,
                    "velocity": 0.5511811023622047,
                    "duration": 0.15625
                },
                {
                    "name": "G2",
                    "midi": 43,
                    "time": 303.125,
                    "velocity": 0.47244094488188976,
                    "duration": 0.625
                },
                {
                    "name": "A#3",
                    "midi": 58,
                    "time": 303.125,
                    "velocity": 0.47244094488188976,
                    "duration": 0.625
                },
                {
                    "name": "F5",
                    "midi": 77,
                    "time": 303.28125,
                    "velocity": 0.5511811023622047,
                    "duration": 0.15625
                },
                {
                    "name": "E5",
                    "midi": 76,
                    "time": 303.4375,
                    "velocity": 0.5511811023622047,
                    "duration": 0.15625
                },
                {
                    "name": "D5",
                    "midi": 74,
                    "time": 303.59375,
                    "velocity": 0.5511811023622047,
                    "duration": 0.15625
                },
                {
                    "name": "C5",
                    "midi": 72,
                    "time": 303.75,
                    "velocity": 0.5511811023622047,
                    "duration": 0.3125
                },
                {
                    "name": "C3",
                    "midi": 48,
                    "time": 303.75,
                    "velocity": 0.47244094488188976,
                    "duration": 2.5
                },
                {
                    "name": "E4",
                    "midi": 64,
                    "time": 304.0625,
                    "velocity": 0.5511811023622047,
                    "duration": 0.15625
                },
                {
                    "name": "A4",
                    "midi": 69,
                    "time": 304.0625,
                    "velocity": 0.5511811023622047,
                    "duration": 0.15625
                },
                {
                    "name": "C5",
                    "midi": 72,
                    "time": 304.0625,
                    "velocity": 0.5511811023622047,
                    "duration": 0.15625
                },
                {
                    "name": "A3",
                    "midi": 57,
                    "time": 304.0625,
                    "velocity": 0.47244094488188976,
                    "duration": 0.3125
                },
                {
                    "name": "C4",
                    "midi": 60,
                    "time": 304.0625,
                    "velocity": 0.47244094488188976,
                    "duration": 0.3125
                },
                {
                    "name": "E5",
                    "midi": 76,
                    "time": 304.21875,
                    "velocity": 0.5511811023622047,
                    "duration": 0.15625
                },
                {
                    "name": "C5",
                    "midi": 72,
                    "time": 304.375,
                    "velocity": 0.5039370078740157,
                    "duration": 0.3125
                },
                {
                    "name": "F4",
                    "midi": 65,
                    "time": 304.6875,
                    "velocity": 0.5511811023622047,
                    "duration": 0.15625
                },
                {
                    "name": "A4",
                    "midi": 69,
                    "time": 304.6875,
                    "velocity": 0.5511811023622047,
                    "duration": 0.15625
                },
                {
                    "name": "C5",
                    "midi": 72,
                    "time": 304.6875,
                    "velocity": 0.5511811023622047,
                    "duration": 0.15625
                },
                {
                    "name": "A#3",
                    "midi": 58,
                    "time": 304.6875,
                    "velocity": 0.5039370078740157,
                    "duration": 0.3125
                },
                {
                    "name": "D4",
                    "midi": 62,
                    "time": 304.6875,
                    "velocity": 0.5039370078740157,
                    "duration": 0.3125
                },
                {
                    "name": "E5",
                    "midi": 76,
                    "time": 304.84375,
                    "velocity": 0.5354330708661418,
                    "duration": 0.15625
                },
                {
                    "name": "C5",
                    "midi": 72,
                    "time": 305,
                    "velocity": 0.5275590551181102,
                    "duration": 0.3125
                },
                {
                    "name": "A4",
                    "midi": 69,
                    "time": 305.3125,
                    "velocity": 0.49606299212598426,
                    "duration": 0.15625
                },
                {
                    "name": "C4",
                    "midi": 60,
                    "time": 305.3125,
                    "velocity": 0.5039370078740157,
                    "duration": 0.3125
                },
                {
                    "name": "E4",
                    "midi": 64,
                    "time": 305.3125,
                    "velocity": 0.5039370078740157,
                    "duration": 0.3125
                },
                {
                    "name": "A#4",
                    "midi": 70,
                    "time": 305.46875,
                    "velocity": 0.4881889763779528,
                    "duration": 0.15625
                },
                {
                    "name": "C5",
                    "midi": 72,
                    "time": 305.625,
                    "velocity": 0.47244094488188976,
                    "duration": 0.15625
                },
                {
                    "name": "A#4",
                    "midi": 70,
                    "time": 305.78125,
                    "velocity": 0.4566929133858268,
                    "duration": 0.15625
                },
                {
                    "name": "A4",
                    "midi": 69,
                    "time": 305.9375,
                    "velocity": 0.44881889763779526,
                    "duration": 0.15625
                },
                {
                    "name": "G4",
                    "midi": 67,
                    "time": 306.09375,
                    "velocity": 0.4330708661417323,
                    "duration": 0.15625
                },
                {
                    "name": "C4",
                    "midi": 60,
                    "time": 306.25,
                    "velocity": 0.6299212598425197,
                    "duration": 0.625
                },
                {
                    "name": "F1",
                    "midi": 29,
                    "time": 306.25,
                    "velocity": 0.6299212598425197,
                    "duration": 0.625
                },
                {
                    "name": "F2",
                    "midi": 41,
                    "time": 306.25,
                    "velocity": 0.6299212598425197,
                    "duration": 0.625
                },
                {
                    "name": "F3",
                    "midi": 53,
                    "time": 306.5625,
                    "velocity": 0.5511811023622047,
                    "duration": 0.3125
                },
                {
                    "name": "A3",
                    "midi": 57,
                    "time": 306.5625,
                    "velocity": 0.5511811023622047,
                    "duration": 0.3125
                },
                {
                    "name": "D3",
                    "midi": 50,
                    "time": 306.875,
                    "velocity": 0.6299212598425197,
                    "duration": 0.625
                },
                {
                    "name": "D4",
                    "midi": 62,
                    "time": 306.875,
                    "velocity": 0.6299212598425197,
                    "duration": 0.625
                },
                {
                    "name": "G1",
                    "midi": 31,
                    "time": 306.875,
                    "velocity": 0.6299212598425197,
                    "duration": 0.625
                },
                {
                    "name": "G2",
                    "midi": 43,
                    "time": 306.875,
                    "velocity": 0.6299212598425197,
                    "duration": 0.625
                },
                {
                    "name": "G3",
                    "midi": 55,
                    "time": 307.1875,
                    "velocity": 0.5511811023622047,
                    "duration": 0.3125
                },
                {
                    "name": "A#3",
                    "midi": 58,
                    "time": 307.1875,
                    "velocity": 0.5511811023622047,
                    "duration": 0.3125
                },
                {
                    "name": "A3",
                    "midi": 57,
                    "time": 307.5,
                    "velocity": 0.6299212598425197,
                    "duration": 0.625
                },
                {
                    "name": "A4",
                    "midi": 69,
                    "time": 307.5,
                    "velocity": 0.6299212598425197,
                    "duration": 0.625
                },
                {
                    "name": "C1",
                    "midi": 24,
                    "time": 307.5,
                    "velocity": 0.6299212598425197,
                    "duration": 1.25
                },
                {
                    "name": "C2",
                    "midi": 36,
                    "time": 307.5,
                    "velocity": 0.6299212598425197,
                    "duration": 1.25
                },
                {
                    "name": "D4",
                    "midi": 62,
                    "time": 307.8125,
                    "velocity": 0.5511811023622047,
                    "duration": 0.3125
                },
                {
                    "name": "E4",
                    "midi": 64,
                    "time": 307.8125,
                    "velocity": 0.5511811023622047,
                    "duration": 0.3125
                },
                {
                    "name": "G4",
                    "midi": 67,
                    "time": 308.125,
                    "velocity": 0.6299212598425197,
                    "duration": 0.3125
                },
                {
                    "name": "G3",
                    "midi": 55,
                    "time": 308.125,
                    "velocity": 0.5511811023622047,
                    "duration": 0.3125
                },
                {
                    "name": "A#3",
                    "midi": 58,
                    "time": 308.125,
                    "velocity": 0.5511811023622047,
                    "duration": 0.3125
                },
                {
                    "name": "A4",
                    "midi": 69,
                    "time": 308.4375,
                    "velocity": 0.6299212598425197,
                    "duration": 0.3125
                },
                {
                    "name": "A3",
                    "midi": 57,
                    "time": 308.4375,
                    "velocity": 0.5511811023622047,
                    "duration": 0.3125
                },
                {
                    "name": "C4",
                    "midi": 60,
                    "time": 308.4375,
                    "velocity": 0.5511811023622047,
                    "duration": 0.3125
                },
                {
                    "name": "C3",
                    "midi": 48,
                    "time": 308.75,
                    "velocity": 0.6299212598425197,
                    "duration": 0.625
                },
                {
                    "name": "C4",
                    "midi": 60,
                    "time": 308.75,
                    "velocity": 0.6299212598425197,
                    "duration": 0.625
                },
                {
                    "name": "F1",
                    "midi": 29,
                    "time": 308.75,
                    "velocity": 0.6299212598425197,
                    "duration": 0.625
                },
                {
                    "name": "F2",
                    "midi": 41,
                    "time": 308.75,
                    "velocity": 0.6299212598425197,
                    "duration": 0.625
                },
                {
                    "name": "F3",
                    "midi": 53,
                    "time": 309.0625,
                    "velocity": 0.5511811023622047,
                    "duration": 0.3125
                },
                {
                    "name": "A3",
                    "midi": 57,
                    "time": 309.0625,
                    "velocity": 0.5511811023622047,
                    "duration": 0.3125
                },
                {
                    "name": "D3",
                    "midi": 50,
                    "time": 309.375,
                    "velocity": 0.6299212598425197,
                    "duration": 0.625
                },
                {
                    "name": "D4",
                    "midi": 62,
                    "time": 309.375,
                    "velocity": 0.6299212598425197,
                    "duration": 0.625
                },
                {
                    "name": "G1",
                    "midi": 31,
                    "time": 309.375,
                    "velocity": 0.6299212598425197,
                    "duration": 0.625
                },
                {
                    "name": "G2",
                    "midi": 43,
                    "time": 309.375,
                    "velocity": 0.6299212598425197,
                    "duration": 0.625
                },
                {
                    "name": "G3",
                    "midi": 55,
                    "time": 309.6875,
                    "velocity": 0.5511811023622047,
                    "duration": 0.3125
                },
                {
                    "name": "A#3",
                    "midi": 58,
                    "time": 309.6875,
                    "velocity": 0.5511811023622047,
                    "duration": 0.3125
                },
                {
                    "name": "A3",
                    "midi": 57,
                    "time": 310,
                    "velocity": 0.6299212598425197,
                    "duration": 0.625
                },
                {
                    "name": "A4",
                    "midi": 69,
                    "time": 310,
                    "velocity": 0.6299212598425197,
                    "duration": 0.625
                },
                {
                    "name": "C1",
                    "midi": 24,
                    "time": 310,
                    "velocity": 0.6299212598425197,
                    "duration": 1.25
                },
                {
                    "name": "C2",
                    "midi": 36,
                    "time": 310,
                    "velocity": 0.6299212598425197,
                    "duration": 1.25
                },
                {
                    "name": "D4",
                    "midi": 62,
                    "time": 310.3125,
                    "velocity": 0.5511811023622047,
                    "duration": 0.3125
                },
                {
                    "name": "E4",
                    "midi": 64,
                    "time": 310.3125,
                    "velocity": 0.5511811023622047,
                    "duration": 0.3125
                },
                {
                    "name": "G4",
                    "midi": 67,
                    "time": 310.625,
                    "velocity": 0.6299212598425197,
                    "duration": 0.3125
                },
                {
                    "name": "G3",
                    "midi": 55,
                    "time": 310.625,
                    "velocity": 0.5511811023622047,
                    "duration": 0.3125
                },
                {
                    "name": "A#3",
                    "midi": 58,
                    "time": 310.625,
                    "velocity": 0.5511811023622047,
                    "duration": 0.3125
                },
                {
                    "name": "A4",
                    "midi": 69,
                    "time": 310.9375,
                    "velocity": 0.6299212598425197,
                    "duration": 0.3125
                },
                {
                    "name": "A3",
                    "midi": 57,
                    "time": 310.9375,
                    "velocity": 0.5511811023622047,
                    "duration": 0.3125
                },
                {
                    "name": "C4",
                    "midi": 60,
                    "time": 310.9375,
                    "velocity": 0.5511811023622047,
                    "duration": 0.3125
                },
                {
                    "name": "G2",
                    "midi": 43,
                    "time": 311.25,
                    "velocity": 0.5511811023622047,
                    "duration": 0.625
                },
                {
                    "name": "F3",
                    "midi": 53,
                    "time": 311.5625,
                    "velocity": 0.5275590551181102,
                    "duration": 0.3125
                },
                {
                    "name": "A#3",
                    "midi": 58,
                    "time": 311.5625,
                    "velocity": 0.5275590551181102,
                    "duration": 0.3125
                },
                {
                    "name": "D4",
                    "midi": 62,
                    "time": 311.5625,
                    "velocity": 0.5275590551181102,
                    "duration": 0.3125
                },
                {
                    "name": "E3",
                    "midi": 52,
                    "time": 311.875,
                    "velocity": 0.5118110236220472,
                    "duration": 0.3125
                },
                {
                    "name": "A3",
                    "midi": 57,
                    "time": 311.875,
                    "velocity": 0.5118110236220472,
                    "duration": 0.3125
                },
                {
                    "name": "C4",
                    "midi": 60,
                    "time": 311.875,
                    "velocity": 0.5118110236220472,
                    "duration": 0.3125
                },
                {
                    "name": "D3",
                    "midi": 50,
                    "time": 311.875,
                    "velocity": 0.5118110236220472,
                    "duration": 0.3125
                },
                {
                    "name": "F3",
                    "midi": 53,
                    "time": 312.1875,
                    "velocity": 0.4881889763779528,
                    "duration": 0.3125
                },
                {
                    "name": "A#3",
                    "midi": 58,
                    "time": 312.1875,
                    "velocity": 0.4881889763779528,
                    "duration": 0.3125
                },
                {
                    "name": "D4",
                    "midi": 62,
                    "time": 312.1875,
                    "velocity": 0.4881889763779528,
                    "duration": 0.3125
                },
                {
                    "name": "G3",
                    "midi": 55,
                    "time": 312.1875,
                    "velocity": 0.4881889763779528,
                    "duration": 0.3125
                },
                {
                    "name": "G4",
                    "midi": 67,
                    "time": 312.5,
                    "velocity": 0.47244094488188976,
                    "duration": 0.625
                },
                {
                    "name": "F4",
                    "midi": 65,
                    "time": 312.8125,
                    "velocity": 0.44881889763779526,
                    "duration": 0.3125
                },
                {
                    "name": "A#4",
                    "midi": 70,
                    "time": 312.8125,
                    "velocity": 0.44881889763779526,
                    "duration": 0.3125
                },
                {
                    "name": "D5",
                    "midi": 74,
                    "time": 312.8125,
                    "velocity": 0.44881889763779526,
                    "duration": 0.3125
                },
                {
                    "name": "E4",
                    "midi": 64,
                    "time": 313.125,
                    "velocity": 0.4330708661417323,
                    "duration": 0.3125
                },
                {
                    "name": "A4",
                    "midi": 69,
                    "time": 313.125,
                    "velocity": 0.4330708661417323,
                    "duration": 0.3125
                },
                {
                    "name": "C5",
                    "midi": 72,
                    "time": 313.125,
                    "velocity": 0.4330708661417323,
                    "duration": 0.3125
                },
                {
                    "name": "D4",
                    "midi": 62,
                    "time": 313.125,
                    "velocity": 0.4330708661417323,
                    "duration": 0.3125
                },
                {
                    "name": "F4",
                    "midi": 65,
                    "time": 313.4375,
                    "velocity": 0.4094488188976378,
                    "duration": 0.3125
                },
                {
                    "name": "A#4",
                    "midi": 70,
                    "time": 313.4375,
                    "velocity": 0.4094488188976378,
                    "duration": 0.3125
                },
                {
                    "name": "D5",
                    "midi": 74,
                    "time": 313.4375,
                    "velocity": 0.4094488188976378,
                    "duration": 0.3125
                },
                {
                    "name": "G4",
                    "midi": 67,
                    "time": 313.4375,
                    "velocity": 0.4094488188976378,
                    "duration": 0.3125
                },
                {
                    "name": "G4",
                    "midi": 67,
                    "time": 313.75,
                    "velocity": 0.3937007874015748,
                    "duration": 0.625
                },
                {
                    "name": "F4",
                    "midi": 65,
                    "time": 314.0625,
                    "velocity": 0.3700787401574803,
                    "duration": 0.3125
                },
                {
                    "name": "A#4",
                    "midi": 70,
                    "time": 314.0625,
                    "velocity": 0.3700787401574803,
                    "duration": 0.3125
                },
                {
                    "name": "D5",
                    "midi": 74,
                    "time": 314.0625,
                    "velocity": 0.3700787401574803,
                    "duration": 0.3125
                },
                {
                    "name": "E4",
                    "midi": 64,
                    "time": 314.375,
                    "velocity": 0.3543307086614173,
                    "duration": 0.3125
                },
                {
                    "name": "A4",
                    "midi": 69,
                    "time": 314.375,
                    "velocity": 0.3543307086614173,
                    "duration": 0.3125
                },
                {
                    "name": "C5",
                    "midi": 72,
                    "time": 314.375,
                    "velocity": 0.3543307086614173,
                    "duration": 0.3125
                },
                {
                    "name": "D4",
                    "midi": 62,
                    "time": 314.375,
                    "velocity": 0.3543307086614173,
                    "duration": 0.3125
                },
                {
                    "name": "F4",
                    "midi": 65,
                    "time": 314.6875,
                    "velocity": 0.33070866141732286,
                    "duration": 0.3125
                },
                {
                    "name": "A#4",
                    "midi": 70,
                    "time": 314.6875,
                    "velocity": 0.33070866141732286,
                    "duration": 0.3125
                },
                {
                    "name": "D5",
                    "midi": 74,
                    "time": 314.6875,
                    "velocity": 0.33070866141732286,
                    "duration": 0.3125
                },
                {
                    "name": "G4",
                    "midi": 67,
                    "time": 314.6875,
                    "velocity": 0.33070866141732286,
                    "duration": 0.3125
                },
                {
                    "name": "G4",
                    "midi": 67,
                    "time": 315,
                    "velocity": 0.31496062992125984,
                    "duration": 0.625
                },
                {
                    "name": "F4",
                    "midi": 65,
                    "time": 315.3125,
                    "velocity": 0.29133858267716534,
                    "duration": 0.3125
                },
                {
                    "name": "A#4",
                    "midi": 70,
                    "time": 315.3125,
                    "velocity": 0.29133858267716534,
                    "duration": 0.3125
                },
                {
                    "name": "D5",
                    "midi": 74,
                    "time": 315.3125,
                    "velocity": 0.29133858267716534,
                    "duration": 0.3125
                },
                {
                    "name": "E4",
                    "midi": 64,
                    "time": 315.625,
                    "velocity": 0.2755905511811024,
                    "duration": 0.3125
                },
                {
                    "name": "A4",
                    "midi": 69,
                    "time": 315.625,
                    "velocity": 0.2755905511811024,
                    "duration": 0.3125
                },
                {
                    "name": "C5",
                    "midi": 72,
                    "time": 315.625,
                    "velocity": 0.2755905511811024,
                    "duration": 0.3125
                },
                {
                    "name": "D4",
                    "midi": 62,
                    "time": 315.625,
                    "velocity": 0.2755905511811024,
                    "duration": 0.3125
                },
                {
                    "name": "F4",
                    "midi": 65,
                    "time": 315.9375,
                    "velocity": 0.25196850393700787,
                    "duration": 0.3125
                },
                {
                    "name": "A#4",
                    "midi": 70,
                    "time": 315.9375,
                    "velocity": 0.25196850393700787,
                    "duration": 0.3125
                },
                {
                    "name": "D5",
                    "midi": 74,
                    "time": 315.9375,
                    "velocity": 0.25196850393700787,
                    "duration": 0.3125
                },
                {
                    "name": "G4",
                    "midi": 67,
                    "time": 315.9375,
                    "velocity": 0.25196850393700787,
                    "duration": 0.3125
                },
                {
                    "name": "A5",
                    "midi": 81,
                    "time": 316.25,
                    "velocity": 0.5118110236220472,
                    "duration": 1.875
                },
                {
                    "name": "A4",
                    "midi": 69,
                    "time": 316.25,
                    "velocity": 0.11811023622047244,
                    "duration": 0.3125
                },
                {
                    "name": "D5",
                    "midi": 74,
                    "time": 316.25,
                    "velocity": 0.11811023622047244,
                    "duration": 0.3125
                },
                {
                    "name": "F5",
                    "midi": 77,
                    "time": 316.25,
                    "velocity": 0.11811023622047244,
                    "duration": 0.3125
                },
                {
                    "name": "G2",
                    "midi": 43,
                    "time": 316.25,
                    "velocity": 0.31496062992125984,
                    "duration": 0.9375
                },
                {
                    "name": "D3",
                    "midi": 50,
                    "time": 316.25,
                    "velocity": 0.31496062992125984,
                    "duration": 0.9375
                },
                {
                    "name": "A#3",
                    "midi": 58,
                    "time": 316.25,
                    "velocity": 0.31496062992125984,
                    "duration": 0.9375
                },
                {
                    "name": "F4",
                    "midi": 65,
                    "time": 316.5625,
                    "velocity": 0.11811023622047244,
                    "duration": 0.3125
                },
                {
                    "name": "A#4",
                    "midi": 70,
                    "time": 316.5625,
                    "velocity": 0.11811023622047244,
                    "duration": 0.3125
                },
                {
                    "name": "D5",
                    "midi": 74,
                    "time": 316.5625,
                    "velocity": 0.11811023622047244,
                    "duration": 0.3125
                },
                {
                    "name": "D4",
                    "midi": 62,
                    "time": 316.875,
                    "velocity": 0.11811023622047244,
                    "duration": 0.3125
                },
                {
                    "name": "G4",
                    "midi": 67,
                    "time": 316.875,
                    "velocity": 0.11811023622047244,
                    "duration": 0.3125
                },
                {
                    "name": "F4",
                    "midi": 65,
                    "time": 317.1875,
                    "velocity": 0.11811023622047244,
                    "duration": 0.3125
                },
                {
                    "name": "A#4",
                    "midi": 70,
                    "time": 317.1875,
                    "velocity": 0.11811023622047244,
                    "duration": 0.3125
                },
                {
                    "name": "D5",
                    "midi": 74,
                    "time": 317.1875,
                    "velocity": 0.11811023622047244,
                    "duration": 0.3125
                },
                {
                    "name": "D4",
                    "midi": 62,
                    "time": 317.5,
                    "velocity": 0.11811023622047244,
                    "duration": 0.15625
                },
                {
                    "name": "G4",
                    "midi": 67,
                    "time": 317.5,
                    "velocity": 0.11811023622047244,
                    "duration": 0.15625
                },
                {
                    "name": "F4",
                    "midi": 65,
                    "time": 317.65625,
                    "velocity": 0.11811023622047244,
                    "duration": 0.15625
                },
                {
                    "name": "A#4",
                    "midi": 70,
                    "time": 317.65625,
                    "velocity": 0.11811023622047244,
                    "duration": 0.15625
                },
                {
                    "name": "D5",
                    "midi": 74,
                    "time": 317.65625,
                    "velocity": 0.11811023622047244,
                    "duration": 0.15625
                },
                {
                    "name": "D4",
                    "midi": 62,
                    "time": 317.8125,
                    "velocity": 0.11811023622047244,
                    "duration": 0.3125
                },
                {
                    "name": "G4",
                    "midi": 67,
                    "time": 317.8125,
                    "velocity": 0.11811023622047244,
                    "duration": 0.3125
                },
                {
                    "name": "A5",
                    "midi": 81,
                    "time": 318.125,
                    "velocity": 0.5118110236220472,
                    "duration": 1.875
                },
                {
                    "name": "A4",
                    "midi": 69,
                    "time": 318.125,
                    "velocity": 0.11811023622047244,
                    "duration": 0.3125
                },
                {
                    "name": "D5",
                    "midi": 74,
                    "time": 318.125,
                    "velocity": 0.11811023622047244,
                    "duration": 0.3125
                },
                {
                    "name": "F5",
                    "midi": 77,
                    "time": 318.125,
                    "velocity": 0.11811023622047244,
                    "duration": 0.3125
                },
                {
                    "name": "G2",
                    "midi": 43,
                    "time": 318.125,
                    "velocity": 0.31496062992125984,
                    "duration": 0.9375
                },
                {
                    "name": "D3",
                    "midi": 50,
                    "time": 318.125,
                    "velocity": 0.31496062992125984,
                    "duration": 0.9375
                },
                {
                    "name": "A#3",
                    "midi": 58,
                    "time": 318.125,
                    "velocity": 0.31496062992125984,
                    "duration": 0.9375
                },
                {
                    "name": "F4",
                    "midi": 65,
                    "time": 318.4375,
                    "velocity": 0.11811023622047244,
                    "duration": 0.3125
                },
                {
                    "name": "A#4",
                    "midi": 70,
                    "time": 318.4375,
                    "velocity": 0.11811023622047244,
                    "duration": 0.3125
                },
                {
                    "name": "D5",
                    "midi": 74,
                    "time": 318.4375,
                    "velocity": 0.11811023622047244,
                    "duration": 0.3125
                },
                {
                    "name": "D4",
                    "midi": 62,
                    "time": 318.75,
                    "velocity": 0.11811023622047244,
                    "duration": 0.3125
                },
                {
                    "name": "G4",
                    "midi": 67,
                    "time": 318.75,
                    "velocity": 0.11811023622047244,
                    "duration": 0.3125
                },
                {
                    "name": "F4",
                    "midi": 65,
                    "time": 319.0625,
                    "velocity": 0.11811023622047244,
                    "duration": 0.3125
                },
                {
                    "name": "A#4",
                    "midi": 70,
                    "time": 319.0625,
                    "velocity": 0.11811023622047244,
                    "duration": 0.3125
                },
                {
                    "name": "D5",
                    "midi": 74,
                    "time": 319.0625,
                    "velocity": 0.11811023622047244,
                    "duration": 0.3125
                },
                {
                    "name": "D4",
                    "midi": 62,
                    "time": 319.375,
                    "velocity": 0.11811023622047244,
                    "duration": 0.15625
                },
                {
                    "name": "G4",
                    "midi": 67,
                    "time": 319.375,
                    "velocity": 0.11811023622047244,
                    "duration": 0.15625
                },
                {
                    "name": "F4",
                    "midi": 65,
                    "time": 319.53125,
                    "velocity": 0.11811023622047244,
                    "duration": 0.15625
                },
                {
                    "name": "A#4",
                    "midi": 70,
                    "time": 319.53125,
                    "velocity": 0.11811023622047244,
                    "duration": 0.15625
                },
                {
                    "name": "D5",
                    "midi": 74,
                    "time": 319.53125,
                    "velocity": 0.11811023622047244,
                    "duration": 0.15625
                },
                {
                    "name": "D4",
                    "midi": 62,
                    "time": 319.6875,
                    "velocity": 0.11811023622047244,
                    "duration": 0.3125
                },
                {
                    "name": "G4",
                    "midi": 67,
                    "time": 319.6875,
                    "velocity": 0.11811023622047244,
                    "duration": 0.3125
                },
                {
                    "name": "A5",
                    "midi": 81,
                    "time": 320,
                    "velocity": 0.31496062992125984,
                    "duration": 0.3125
                },
                {
                    "name": "A#5",
                    "midi": 82,
                    "time": 320.3125,
                    "velocity": 0.4094488188976378,
                    "duration": 0.3125
                },
                {
                    "name": "F4",
                    "midi": 65,
                    "time": 320.3125,
                    "velocity": 0.23622047244094488,
                    "duration": 0.625
                },
                {
                    "name": "A#4",
                    "midi": 70,
                    "time": 320.3125,
                    "velocity": 0.23622047244094488,
                    "duration": 0.625
                },
                {
                    "name": "D5",
                    "midi": 74,
                    "time": 320.3125,
                    "velocity": 0.23622047244094488,
                    "duration": 0.3125
                },
                {
                    "name": "C6",
                    "midi": 84,
                    "time": 320.625,
                    "velocity": 0.5039370078740157,
                    "duration": 0.3125
                },
                {
                    "name": "D4",
                    "midi": 62,
                    "time": 320.625,
                    "velocity": 0.23622047244094488,
                    "duration": 0.3125
                },
                {
                    "name": "A5",
                    "midi": 81,
                    "time": 320.9375,
                    "velocity": 0.5039370078740157,
                    "duration": 0.3125
                },
                {
                    "name": "A3",
                    "midi": 57,
                    "time": 320.9375,
                    "velocity": 0.23622047244094488,
                    "duration": 0.3125
                },
                {
                    "name": "C4",
                    "midi": 60,
                    "time": 320.9375,
                    "velocity": 0.23622047244094488,
                    "duration": 0.3125
                },
                {
                    "name": "E4",
                    "midi": 64,
                    "time": 320.9375,
                    "velocity": 0.23622047244094488,
                    "duration": 0.3125
                },
                {
                    "name": "G5",
                    "midi": 79,
                    "time": 321.25,
                    "velocity": 0.3700787401574803,
                    "duration": 0.3125
                },
                {
                    "name": "F3",
                    "midi": 53,
                    "time": 321.25,
                    "velocity": 0.23622047244094488,
                    "duration": 0.46875
                },
                {
                    "name": "A#3",
                    "midi": 58,
                    "time": 321.25,
                    "velocity": 0.23622047244094488,
                    "duration": 0.46875
                },
                {
                    "name": "D4",
                    "midi": 62,
                    "time": 321.25,
                    "velocity": 0.23622047244094488,
                    "duration": 0.46875
                },
                {
                    "name": "D5",
                    "midi": 74,
                    "time": 321.5625,
                    "velocity": 0.23622047244094488,
                    "duration": 0.3125
                },
                {
                    "name": "A5",
                    "midi": 81,
                    "time": 321.875,
                    "velocity": 0.2755905511811024,
                    "duration": 0.3125
                },
                {
                    "name": "A#5",
                    "midi": 82,
                    "time": 322.1875,
                    "velocity": 0.3937007874015748,
                    "duration": 0.3125
                },
                {
                    "name": "E4",
                    "midi": 64,
                    "time": 322.1875,
                    "velocity": 0.23622047244094488,
                    "duration": 0.3125
                },
                {
                    "name": "A4",
                    "midi": 69,
                    "time": 322.1875,
                    "velocity": 0.23622047244094488,
                    "duration": 0.3125
                },
                {
                    "name": "C5",
                    "midi": 72,
                    "time": 322.1875,
                    "velocity": 0.23622047244094488,
                    "duration": 0.3125
                },
                {
                    "name": "C6",
                    "midi": 84,
                    "time": 322.5,
                    "velocity": 0.5039370078740157,
                    "duration": 0.3125
                },
                {
                    "name": "F4",
                    "midi": 65,
                    "time": 322.5,
                    "velocity": 0.23622047244094488,
                    "duration": 0.3125
                },
                {
                    "name": "A#4",
                    "midi": 70,
                    "time": 322.5,
                    "velocity": 0.23622047244094488,
                    "duration": 0.3125
                },
                {
                    "name": "D5",
                    "midi": 74,
                    "time": 322.5,
                    "velocity": 0.23622047244094488,
                    "duration": 0.3125
                },
                {
                    "name": "A5",
                    "midi": 81,
                    "time": 322.65625,
                    "velocity": 0.5039370078740157,
                    "duration": 0.078125
                },
                {
                    "name": "A#5",
                    "midi": 82,
                    "time": 322.734375,
                    "velocity": 0.5039370078740157,
                    "duration": 0.078125
                },
                {
                    "name": "A5",
                    "midi": 81,
                    "time": 322.8125,
                    "velocity": 0.5039370078740157,
                    "duration": 0.3125
                },
                {
                    "name": "D4",
                    "midi": 62,
                    "time": 322.8125,
                    "velocity": 0.23622047244094488,
                    "duration": 0.3125
                },
                {
                    "name": "G4",
                    "midi": 67,
                    "time": 322.8125,
                    "velocity": 0.23622047244094488,
                    "duration": 0.3125
                },
                {
                    "name": "A#4",
                    "midi": 70,
                    "time": 322.8125,
                    "velocity": 0.23622047244094488,
                    "duration": 0.3125
                },
                {
                    "name": "G5",
                    "midi": 79,
                    "time": 323.125,
                    "velocity": 0.3700787401574803,
                    "duration": 0.3125
                },
                {
                    "name": "C4",
                    "midi": 60,
                    "time": 323.125,
                    "velocity": 0.23622047244094488,
                    "duration": 0.3125
                },
                {
                    "name": "F4",
                    "midi": 65,
                    "time": 323.125,
                    "velocity": 0.23622047244094488,
                    "duration": 0.3125
                },
                {
                    "name": "A4",
                    "midi": 69,
                    "time": 323.125,
                    "velocity": 0.23622047244094488,
                    "duration": 0.3125
                },
                {
                    "name": "D5",
                    "midi": 74,
                    "time": 323.4375,
                    "velocity": 0.23622047244094488,
                    "duration": 0.3125
                },
                {
                    "name": "B3",
                    "midi": 59,
                    "time": 323.4375,
                    "velocity": 0.23622047244094488,
                    "duration": 0.3125
                },
                {
                    "name": "E4",
                    "midi": 64,
                    "time": 323.4375,
                    "velocity": 0.23622047244094488,
                    "duration": 0.3125
                },
                {
                    "name": "G4",
                    "midi": 67,
                    "time": 323.4375,
                    "velocity": 0.23622047244094488,
                    "duration": 0.3125
                },
                {
                    "name": "A5",
                    "midi": 81,
                    "time": 323.75,
                    "velocity": 0.5039370078740157,
                    "duration": 0.9375
                },
                {
                    "name": "A4",
                    "midi": 69,
                    "time": 323.75,
                    "velocity": 0.11811023622047244,
                    "duration": 0.3125
                },
                {
                    "name": "D5",
                    "midi": 74,
                    "time": 323.75,
                    "velocity": 0.11811023622047244,
                    "duration": 0.3125
                },
                {
                    "name": "F5",
                    "midi": 77,
                    "time": 323.75,
                    "velocity": 0.11811023622047244,
                    "duration": 0.3125
                },
                {
                    "name": "G2",
                    "midi": 43,
                    "time": 323.75,
                    "velocity": 0.5039370078740157,
                    "duration": 0.9375
                },
                {
                    "name": "D3",
                    "midi": 50,
                    "time": 323.75,
                    "velocity": 0.5039370078740157,
                    "duration": 0.9375
                },
                {
                    "name": "A#3",
                    "midi": 58,
                    "time": 323.75,
                    "velocity": 0.5039370078740157,
                    "duration": 0.9375
                },
                {
                    "name": "F4",
                    "midi": 65,
                    "time": 324.0625,
                    "velocity": 0.11811023622047244,
                    "duration": 0.3125
                },
                {
                    "name": "A#4",
                    "midi": 70,
                    "time": 324.0625,
                    "velocity": 0.11811023622047244,
                    "duration": 0.3125
                },
                {
                    "name": "D5",
                    "midi": 74,
                    "time": 324.0625,
                    "velocity": 0.11811023622047244,
                    "duration": 0.3125
                },
                {
                    "name": "D4",
                    "midi": 62,
                    "time": 324.375,
                    "velocity": 0.11811023622047244,
                    "duration": 0.3125
                },
                {
                    "name": "G4",
                    "midi": 67,
                    "time": 324.375,
                    "velocity": 0.11811023622047244,
                    "duration": 0.3125
                },
                {
                    "name": "A5",
                    "midi": 81,
                    "time": 324.6875,
                    "velocity": 0.5039370078740157,
                    "duration": 0.9375
                },
                {
                    "name": "F4",
                    "midi": 65,
                    "time": 324.6875,
                    "velocity": 0.11811023622047244,
                    "duration": 0.3125
                },
                {
                    "name": "A#4",
                    "midi": 70,
                    "time": 324.6875,
                    "velocity": 0.11811023622047244,
                    "duration": 0.3125
                },
                {
                    "name": "D5",
                    "midi": 74,
                    "time": 324.6875,
                    "velocity": 0.11811023622047244,
                    "duration": 0.3125
                },
                {
                    "name": "D4",
                    "midi": 62,
                    "time": 325,
                    "velocity": 0.11811023622047244,
                    "duration": 0.15625
                },
                {
                    "name": "G4",
                    "midi": 67,
                    "time": 325,
                    "velocity": 0.11811023622047244,
                    "duration": 0.15625
                },
                {
                    "name": "F4",
                    "midi": 65,
                    "time": 325.15625,
                    "velocity": 0.11811023622047244,
                    "duration": 0.15625
                },
                {
                    "name": "A#4",
                    "midi": 70,
                    "time": 325.15625,
                    "velocity": 0.11811023622047244,
                    "duration": 0.15625
                },
                {
                    "name": "D5",
                    "midi": 74,
                    "time": 325.15625,
                    "velocity": 0.11811023622047244,
                    "duration": 0.15625
                },
                {
                    "name": "D4",
                    "midi": 62,
                    "time": 325.3125,
                    "velocity": 0.11811023622047244,
                    "duration": 0.3125
                },
                {
                    "name": "G4",
                    "midi": 67,
                    "time": 325.3125,
                    "velocity": 0.11811023622047244,
                    "duration": 0.3125
                },
                {
                    "name": "A5",
                    "midi": 81,
                    "time": 325.625,
                    "velocity": 0.5039370078740157,
                    "duration": 0.9375
                },
                {
                    "name": "A4",
                    "midi": 69,
                    "time": 325.625,
                    "velocity": 0.11811023622047244,
                    "duration": 0.3125
                },
                {
                    "name": "D5",
                    "midi": 74,
                    "time": 325.625,
                    "velocity": 0.11811023622047244,
                    "duration": 0.3125
                },
                {
                    "name": "F5",
                    "midi": 77,
                    "time": 325.625,
                    "velocity": 0.11811023622047244,
                    "duration": 0.3125
                },
                {
                    "name": "G2",
                    "midi": 43,
                    "time": 325.625,
                    "velocity": 0.5039370078740157,
                    "duration": 0.9375
                },
                {
                    "name": "D3",
                    "midi": 50,
                    "time": 325.625,
                    "velocity": 0.5039370078740157,
                    "duration": 0.9375
                },
                {
                    "name": "A#3",
                    "midi": 58,
                    "time": 325.625,
                    "velocity": 0.5039370078740157,
                    "duration": 0.9375
                },
                {
                    "name": "F4",
                    "midi": 65,
                    "time": 325.9375,
                    "velocity": 0.11811023622047244,
                    "duration": 0.3125
                },
                {
                    "name": "A#4",
                    "midi": 70,
                    "time": 325.9375,
                    "velocity": 0.11811023622047244,
                    "duration": 0.3125
                },
                {
                    "name": "D5",
                    "midi": 74,
                    "time": 325.9375,
                    "velocity": 0.11811023622047244,
                    "duration": 0.3125
                },
                {
                    "name": "D4",
                    "midi": 62,
                    "time": 326.25,
                    "velocity": 0.11811023622047244,
                    "duration": 0.3125
                },
                {
                    "name": "G4",
                    "midi": 67,
                    "time": 326.25,
                    "velocity": 0.11811023622047244,
                    "duration": 0.3125
                },
                {
                    "name": "A5",
                    "midi": 81,
                    "time": 326.5625,
                    "velocity": 0.5039370078740157,
                    "duration": 0.9375
                },
                {
                    "name": "A4",
                    "midi": 69,
                    "time": 326.5625,
                    "velocity": 0.11811023622047244,
                    "duration": 0.3125
                },
                {
                    "name": "D5",
                    "midi": 74,
                    "time": 326.5625,
                    "velocity": 0.11811023622047244,
                    "duration": 0.3125
                },
                {
                    "name": "F5",
                    "midi": 77,
                    "time": 326.5625,
                    "velocity": 0.11811023622047244,
                    "duration": 0.3125
                },
                {
                    "name": "F4",
                    "midi": 65,
                    "time": 326.875,
                    "velocity": 0.11811023622047244,
                    "duration": 0.3125
                },
                {
                    "name": "A#4",
                    "midi": 70,
                    "time": 326.875,
                    "velocity": 0.11811023622047244,
                    "duration": 0.3125
                },
                {
                    "name": "D5",
                    "midi": 74,
                    "time": 326.875,
                    "velocity": 0.11811023622047244,
                    "duration": 0.3125
                },
                {
                    "name": "D4",
                    "midi": 62,
                    "time": 327.1875,
                    "velocity": 0.11811023622047244,
                    "duration": 0.3125
                },
                {
                    "name": "G4",
                    "midi": 67,
                    "time": 327.1875,
                    "velocity": 0.11811023622047244,
                    "duration": 0.3125
                },
                {
                    "name": "E5",
                    "midi": 76,
                    "time": 327.5,
                    "velocity": 0.5118110236220472,
                    "duration": 0.15625
                },
                {
                    "name": "E4",
                    "midi": 64,
                    "time": 327.5,
                    "velocity": 0.31496062992125984,
                    "duration": 0.3125
                },
                {
                    "name": "F5",
                    "midi": 77,
                    "time": 327.65625,
                    "velocity": 0.5039370078740157,
                    "duration": 0.15625
                },
                {
                    "name": "G5",
                    "midi": 79,
                    "time": 327.8125,
                    "velocity": 0.5039370078740157,
                    "duration": 0.15625
                },
                {
                    "name": "F3",
                    "midi": 53,
                    "time": 327.8125,
                    "velocity": 0.5039370078740157,
                    "duration": 0.3125
                },
                {
                    "name": "E5",
                    "midi": 76,
                    "time": 327.96875,
                    "velocity": 0.5039370078740157,
                    "duration": 0.15625
                },
                {
                    "name": "F5",
                    "midi": 77,
                    "time": 328.125,
                    "velocity": 0.5039370078740157,
                    "duration": 0.15625
                },
                {
                    "name": "A3",
                    "midi": 57,
                    "time": 328.125,
                    "velocity": 0.5039370078740157,
                    "duration": 0.3125
                },
                {
                    "name": "G5",
                    "midi": 79,
                    "time": 328.28125,
                    "velocity": 0.5039370078740157,
                    "duration": 0.15625
                },
                {
                    "name": "E5",
                    "midi": 76,
                    "time": 328.4375,
                    "velocity": 0.5118110236220472,
                    "duration": 0.15625
                },
                {
                    "name": "C3",
                    "midi": 48,
                    "time": 328.4375,
                    "velocity": 0.5039370078740157,
                    "duration": 0.3125
                },
                {
                    "name": "F5",
                    "midi": 77,
                    "time": 328.59375,
                    "velocity": 0.5039370078740157,
                    "duration": 0.15625
                },
                {
                    "name": "G5",
                    "midi": 79,
                    "time": 328.75,
                    "velocity": 0.5039370078740157,
                    "duration": 0.15625
                },
                {
                    "name": "F2",
                    "midi": 41,
                    "time": 328.75,
                    "velocity": 0.5039370078740157,
                    "duration": 0.3125
                },
                {
                    "name": "E5",
                    "midi": 76,
                    "time": 328.90625,
                    "velocity": 0.5039370078740157,
                    "duration": 0.15625
                },
                {
                    "name": "F5",
                    "midi": 77,
                    "time": 329.0625,
                    "velocity": 0.5039370078740157,
                    "duration": 0.15625
                },
                {
                    "name": "A3",
                    "midi": 57,
                    "time": 329.0625,
                    "velocity": 0.5039370078740157,
                    "duration": 0.3125
                },
                {
                    "name": "G5",
                    "midi": 79,
                    "time": 329.21875,
                    "velocity": 0.5039370078740157,
                    "duration": 0.15625
                },
                {
                    "name": "E5",
                    "midi": 76,
                    "time": 329.375,
                    "velocity": 0.5118110236220472,
                    "duration": 0.15625
                },
                {
                    "name": "E4",
                    "midi": 64,
                    "time": 329.375,
                    "velocity": 0.31496062992125984,
                    "duration": 0.3125
                },
                {
                    "name": "F5",
                    "midi": 77,
                    "time": 329.53125,
                    "velocity": 0.5039370078740157,
                    "duration": 0.15625
                },
                {
                    "name": "G5",
                    "midi": 79,
                    "time": 329.6875,
                    "velocity": 0.5039370078740157,
                    "duration": 0.15625
                },
                {
                    "name": "F3",
                    "midi": 53,
                    "time": 329.6875,
                    "velocity": 0.5039370078740157,
                    "duration": 0.3125
                },
                {
                    "name": "E5",
                    "midi": 76,
                    "time": 329.84375,
                    "velocity": 0.5039370078740157,
                    "duration": 0.15625
                },
                {
                    "name": "F5",
                    "midi": 77,
                    "time": 330,
                    "velocity": 0.5039370078740157,
                    "duration": 0.15625
                },
                {
                    "name": "A3",
                    "midi": 57,
                    "time": 330,
                    "velocity": 0.5039370078740157,
                    "duration": 0.3125
                },
                {
                    "name": "G5",
                    "midi": 79,
                    "time": 330.15625,
                    "velocity": 0.5039370078740157,
                    "duration": 0.15625
                },
                {
                    "name": "E5",
                    "midi": 76,
                    "time": 330.3125,
                    "velocity": 0.5118110236220472,
                    "duration": 0.15625
                },
                {
                    "name": "C3",
                    "midi": 48,
                    "time": 330.3125,
                    "velocity": 0.5039370078740157,
                    "duration": 0.3125
                },
                {
                    "name": "F5",
                    "midi": 77,
                    "time": 330.46875,
                    "velocity": 0.5039370078740157,
                    "duration": 0.15625
                },
                {
                    "name": "G5",
                    "midi": 79,
                    "time": 330.625,
                    "velocity": 0.5039370078740157,
                    "duration": 0.15625
                },
                {
                    "name": "F2",
                    "midi": 41,
                    "time": 330.625,
                    "velocity": 0.5039370078740157,
                    "duration": 0.3125
                },
                {
                    "name": "E5",
                    "midi": 76,
                    "time": 330.78125,
                    "velocity": 0.5039370078740157,
                    "duration": 0.15625
                },
                {
                    "name": "F5",
                    "midi": 77,
                    "time": 330.9375,
                    "velocity": 0.5039370078740157,
                    "duration": 0.15625
                },
                {
                    "name": "A3",
                    "midi": 57,
                    "time": 330.9375,
                    "velocity": 0.5039370078740157,
                    "duration": 0.3125
                },
                {
                    "name": "G5",
                    "midi": 79,
                    "time": 331.09375,
                    "velocity": 0.5039370078740157,
                    "duration": 0.15625
                },
                {
                    "name": "A5",
                    "midi": 81,
                    "time": 331.25,
                    "velocity": 0.5118110236220472,
                    "duration": 1.875
                },
                {
                    "name": "A4",
                    "midi": 69,
                    "time": 331.25,
                    "velocity": 0.11811023622047244,
                    "duration": 0.3125
                },
                {
                    "name": "D5",
                    "midi": 74,
                    "time": 331.25,
                    "velocity": 0.11811023622047244,
                    "duration": 0.3125
                },
                {
                    "name": "F5",
                    "midi": 77,
                    "time": 331.25,
                    "velocity": 0.11811023622047244,
                    "duration": 0.3125
                },
                {
                    "name": "G2",
                    "midi": 43,
                    "time": 331.25,
                    "velocity": 0.31496062992125984,
                    "duration": 0.9375
                },
                {
                    "name": "D3",
                    "midi": 50,
                    "time": 331.25,
                    "velocity": 0.31496062992125984,
                    "duration": 0.9375
                },
                {
                    "name": "A#3",
                    "midi": 58,
                    "time": 331.25,
                    "velocity": 0.31496062992125984,
                    "duration": 0.9375
                },
                {
                    "name": "F4",
                    "midi": 65,
                    "time": 331.5625,
                    "velocity": 0.11811023622047244,
                    "duration": 0.3125
                },
                {
                    "name": "A#4",
                    "midi": 70,
                    "time": 331.5625,
                    "velocity": 0.11811023622047244,
                    "duration": 0.3125
                },
                {
                    "name": "D5",
                    "midi": 74,
                    "time": 331.5625,
                    "velocity": 0.11811023622047244,
                    "duration": 0.3125
                },
                {
                    "name": "D4",
                    "midi": 62,
                    "time": 331.875,
                    "velocity": 0.11811023622047244,
                    "duration": 0.3125
                },
                {
                    "name": "G4",
                    "midi": 67,
                    "time": 331.875,
                    "velocity": 0.11811023622047244,
                    "duration": 0.3125
                },
                {
                    "name": "F4",
                    "midi": 65,
                    "time": 332.1875,
                    "velocity": 0.11811023622047244,
                    "duration": 0.3125
                },
                {
                    "name": "A#4",
                    "midi": 70,
                    "time": 332.1875,
                    "velocity": 0.11811023622047244,
                    "duration": 0.3125
                },
                {
                    "name": "D5",
                    "midi": 74,
                    "time": 332.1875,
                    "velocity": 0.11811023622047244,
                    "duration": 0.3125
                },
                {
                    "name": "D4",
                    "midi": 62,
                    "time": 332.5,
                    "velocity": 0.11811023622047244,
                    "duration": 0.15625
                },
                {
                    "name": "G4",
                    "midi": 67,
                    "time": 332.5,
                    "velocity": 0.11811023622047244,
                    "duration": 0.15625
                },
                {
                    "name": "F4",
                    "midi": 65,
                    "time": 332.65625,
                    "velocity": 0.11811023622047244,
                    "duration": 0.15625
                },
                {
                    "name": "A#4",
                    "midi": 70,
                    "time": 332.65625,
                    "velocity": 0.11811023622047244,
                    "duration": 0.15625
                },
                {
                    "name": "D5",
                    "midi": 74,
                    "time": 332.65625,
                    "velocity": 0.11811023622047244,
                    "duration": 0.15625
                },
                {
                    "name": "D4",
                    "midi": 62,
                    "time": 332.8125,
                    "velocity": 0.11811023622047244,
                    "duration": 0.3125
                },
                {
                    "name": "G4",
                    "midi": 67,
                    "time": 332.8125,
                    "velocity": 0.11811023622047244,
                    "duration": 0.3125
                },
                {
                    "name": "A5",
                    "midi": 81,
                    "time": 333.125,
                    "velocity": 0.5118110236220472,
                    "duration": 1.875
                },
                {
                    "name": "A4",
                    "midi": 69,
                    "time": 333.125,
                    "velocity": 0.11811023622047244,
                    "duration": 0.3125
                },
                {
                    "name": "D5",
                    "midi": 74,
                    "time": 333.125,
                    "velocity": 0.11811023622047244,
                    "duration": 0.3125
                },
                {
                    "name": "F5",
                    "midi": 77,
                    "time": 333.125,
                    "velocity": 0.11811023622047244,
                    "duration": 0.3125
                },
                {
                    "name": "G2",
                    "midi": 43,
                    "time": 333.125,
                    "velocity": 0.31496062992125984,
                    "duration": 0.9375
                },
                {
                    "name": "D3",
                    "midi": 50,
                    "time": 333.125,
                    "velocity": 0.31496062992125984,
                    "duration": 0.9375
                },
                {
                    "name": "A#3",
                    "midi": 58,
                    "time": 333.125,
                    "velocity": 0.31496062992125984,
                    "duration": 0.9375
                },
                {
                    "name": "F4",
                    "midi": 65,
                    "time": 333.4375,
                    "velocity": 0.11811023622047244,
                    "duration": 0.3125
                },
                {
                    "name": "A#4",
                    "midi": 70,
                    "time": 333.4375,
                    "velocity": 0.11811023622047244,
                    "duration": 0.3125
                },
                {
                    "name": "D5",
                    "midi": 74,
                    "time": 333.4375,
                    "velocity": 0.11811023622047244,
                    "duration": 0.3125
                },
                {
                    "name": "D4",
                    "midi": 62,
                    "time": 333.75,
                    "velocity": 0.11811023622047244,
                    "duration": 0.3125
                },
                {
                    "name": "G4",
                    "midi": 67,
                    "time": 333.75,
                    "velocity": 0.11811023622047244,
                    "duration": 0.3125
                },
                {
                    "name": "F4",
                    "midi": 65,
                    "time": 334.0625,
                    "velocity": 0.11811023622047244,
                    "duration": 0.3125
                },
                {
                    "name": "A#4",
                    "midi": 70,
                    "time": 334.0625,
                    "velocity": 0.11811023622047244,
                    "duration": 0.3125
                },
                {
                    "name": "D5",
                    "midi": 74,
                    "time": 334.0625,
                    "velocity": 0.11811023622047244,
                    "duration": 0.3125
                },
                {
                    "name": "D4",
                    "midi": 62,
                    "time": 334.375,
                    "velocity": 0.11811023622047244,
                    "duration": 0.15625
                },
                {
                    "name": "G4",
                    "midi": 67,
                    "time": 334.375,
                    "velocity": 0.11811023622047244,
                    "duration": 0.15625
                },
                {
                    "name": "F4",
                    "midi": 65,
                    "time": 334.53125,
                    "velocity": 0.11811023622047244,
                    "duration": 0.15625
                },
                {
                    "name": "A#4",
                    "midi": 70,
                    "time": 334.53125,
                    "velocity": 0.11811023622047244,
                    "duration": 0.15625
                },
                {
                    "name": "D5",
                    "midi": 74,
                    "time": 334.53125,
                    "velocity": 0.11811023622047244,
                    "duration": 0.15625
                },
                {
                    "name": "D4",
                    "midi": 62,
                    "time": 334.6875,
                    "velocity": 0.11811023622047244,
                    "duration": 0.3125
                },
                {
                    "name": "G4",
                    "midi": 67,
                    "time": 334.6875,
                    "velocity": 0.11811023622047244,
                    "duration": 0.3125
                },
                {
                    "name": "A5",
                    "midi": 81,
                    "time": 335,
                    "velocity": 0.31496062992125984,
                    "duration": 0.3125
                },
                {
                    "name": "A#3",
                    "midi": 58,
                    "time": 335,
                    "velocity": 0.31496062992125984,
                    "duration": 0.3125
                },
                {
                    "name": "A#5",
                    "midi": 82,
                    "time": 335.3125,
                    "velocity": 0.31496062992125984,
                    "duration": 0.3125
                },
                {
                    "name": "D3",
                    "midi": 50,
                    "time": 335.3125,
                    "velocity": 0.31496062992125984,
                    "duration": 0.3125
                },
                {
                    "name": "C6",
                    "midi": 84,
                    "time": 335.625,
                    "velocity": 0.31496062992125984,
                    "duration": 0.3125
                },
                {
                    "name": "G2",
                    "midi": 43,
                    "time": 335.625,
                    "velocity": 0.31496062992125984,
                    "duration": 0.3125
                },
                {
                    "name": "A5",
                    "midi": 81,
                    "time": 335.9375,
                    "velocity": 0.31496062992125984,
                    "duration": 0.3125
                },
                {
                    "name": "A4",
                    "midi": 69,
                    "time": 335.9375,
                    "velocity": 0.31496062992125984,
                    "duration": 0.3125
                },
                {
                    "name": "G5",
                    "midi": 79,
                    "time": 336.25,
                    "velocity": 0.31496062992125984,
                    "duration": 0.3125
                },
                {
                    "name": "F4",
                    "midi": 65,
                    "time": 336.25,
                    "velocity": 0.31496062992125984,
                    "duration": 0.3125
                },
                {
                    "name": "D5",
                    "midi": 74,
                    "time": 336.5625,
                    "velocity": 0.31496062992125984,
                    "duration": 0.3125
                },
                {
                    "name": "A#3",
                    "midi": 58,
                    "time": 336.5625,
                    "velocity": 0.31496062992125984,
                    "duration": 0.3125
                },
                {
                    "name": "A5",
                    "midi": 81,
                    "time": 336.875,
                    "velocity": 0.31496062992125984,
                    "duration": 0.3125
                },
                {
                    "name": "A4",
                    "midi": 69,
                    "time": 336.875,
                    "velocity": 0.31496062992125984,
                    "duration": 0.3125
                },
                {
                    "name": "D5",
                    "midi": 74,
                    "time": 337.1875,
                    "velocity": 0.31496062992125984,
                    "duration": 0.3125
                },
                {
                    "name": "F4",
                    "midi": 65,
                    "time": 337.1875,
                    "velocity": 0.31496062992125984,
                    "duration": 0.3125
                },
                {
                    "name": "E5",
                    "midi": 76,
                    "time": 337.5,
                    "velocity": 0.31496062992125984,
                    "duration": 0.3125
                },
                {
                    "name": "B3",
                    "midi": 59,
                    "time": 337.5,
                    "velocity": 0.31496062992125984,
                    "duration": 0.3125
                },
                {
                    "name": "G5",
                    "midi": 79,
                    "time": 337.8125,
                    "velocity": 0.31496062992125984,
                    "duration": 0.3125
                },
                {
                    "name": "B3",
                    "midi": 59,
                    "time": 337.8125,
                    "velocity": 0.31496062992125984,
                    "duration": 0.3125
                },
                {
                    "name": "F5",
                    "midi": 77,
                    "time": 337.96875,
                    "velocity": 0.31496062992125984,
                    "duration": 0.078125
                },
                {
                    "name": "G5",
                    "midi": 79,
                    "time": 338.046875,
                    "velocity": 0.31496062992125984,
                    "duration": 0.078125
                },
                {
                    "name": "F5",
                    "midi": 77,
                    "time": 338.125,
                    "velocity": 0.31496062992125984,
                    "duration": 0.3125
                },
                {
                    "name": "D3",
                    "midi": 50,
                    "time": 338.125,
                    "velocity": 0.31496062992125984,
                    "duration": 0.3125
                },
                {
                    "name": "E5",
                    "midi": 76,
                    "time": 338.4375,
                    "velocity": 0.31496062992125984,
                    "duration": 0.269775390625
                },
                {
                    "name": "G2",
                    "midi": 43,
                    "time": 338.4375,
                    "velocity": 0.31496062992125984,
                    "duration": 0.269775390625
                },
                {
                    "name": "A5",
                    "midi": 81,
                    "time": 338.75,
                    "velocity": 0.31496062992125984,
                    "duration": 0.3125
                },
                {
                    "name": "A#3",
                    "midi": 58,
                    "time": 338.75,
                    "velocity": 0.31496062992125984,
                    "duration": 0.3125
                },
                {
                    "name": "A#5",
                    "midi": 82,
                    "time": 339.0625,
                    "velocity": 0.30708661417322836,
                    "duration": 0.3125
                },
                {
                    "name": "D3",
                    "midi": 50,
                    "time": 339.0625,
                    "velocity": 0.30708661417322836,
                    "duration": 0.3125
                },
                {
                    "name": "C6",
                    "midi": 84,
                    "time": 339.375,
                    "velocity": 0.30708661417322836,
                    "duration": 0.3125
                },
                {
                    "name": "G2",
                    "midi": 43,
                    "time": 339.375,
                    "velocity": 0.30708661417322836,
                    "duration": 0.3125
                },
                {
                    "name": "A5",
                    "midi": 81,
                    "time": 339.6875,
                    "velocity": 0.2992125984251969,
                    "duration": 0.3125
                },
                {
                    "name": "A4",
                    "midi": 69,
                    "time": 339.6875,
                    "velocity": 0.2992125984251969,
                    "duration": 0.3125
                },
                {
                    "name": "G5",
                    "midi": 79,
                    "time": 340,
                    "velocity": 0.29133858267716534,
                    "duration": 0.3125
                },
                {
                    "name": "F4",
                    "midi": 65,
                    "time": 340,
                    "velocity": 0.29133858267716534,
                    "duration": 0.3125
                },
                {
                    "name": "D5",
                    "midi": 74,
                    "time": 340.3125,
                    "velocity": 0.29133858267716534,
                    "duration": 0.3125
                },
                {
                    "name": "A#3",
                    "midi": 58,
                    "time": 340.3125,
                    "velocity": 0.29133858267716534,
                    "duration": 0.3125
                },
                {
                    "name": "A5",
                    "midi": 81,
                    "time": 340.625,
                    "velocity": 0.28346456692913385,
                    "duration": 0.3125
                },
                {
                    "name": "A4",
                    "midi": 69,
                    "time": 340.625,
                    "velocity": 0.28346456692913385,
                    "duration": 0.3125
                },
                {
                    "name": "D5",
                    "midi": 74,
                    "time": 340.9375,
                    "velocity": 0.2755905511811024,
                    "duration": 0.3125
                },
                {
                    "name": "F4",
                    "midi": 65,
                    "time": 340.9375,
                    "velocity": 0.2755905511811024,
                    "duration": 0.3125
                },
                {
                    "name": "E5",
                    "midi": 76,
                    "time": 341.25,
                    "velocity": 0.2755905511811024,
                    "duration": 0.3125
                },
                {
                    "name": "B3",
                    "midi": 59,
                    "time": 341.25,
                    "velocity": 0.2755905511811024,
                    "duration": 0.3125
                },
                {
                    "name": "G5",
                    "midi": 79,
                    "time": 341.5625,
                    "velocity": 0.2677165354330709,
                    "duration": 0.3125
                },
                {
                    "name": "B3",
                    "midi": 59,
                    "time": 341.5625,
                    "velocity": 0.2677165354330709,
                    "duration": 0.3125
                },
                {
                    "name": "F5",
                    "midi": 77,
                    "time": 341.71875,
                    "velocity": 0.25984251968503935,
                    "duration": 0.078125
                },
                {
                    "name": "G5",
                    "midi": 79,
                    "time": 341.796875,
                    "velocity": 0.25984251968503935,
                    "duration": 0.078125
                },
                {
                    "name": "F5",
                    "midi": 77,
                    "time": 341.875,
                    "velocity": 0.25984251968503935,
                    "duration": 0.3125
                },
                {
                    "name": "D3",
                    "midi": 50,
                    "time": 341.875,
                    "velocity": 0.25984251968503935,
                    "duration": 0.3125
                },
                {
                    "name": "E5",
                    "midi": 76,
                    "time": 342.1875,
                    "velocity": 0.25984251968503935,
                    "duration": 0.3125
                },
                {
                    "name": "G2",
                    "midi": 43,
                    "time": 342.1875,
                    "velocity": 0.25984251968503935,
                    "duration": 0.3125
                },
                {
                    "name": "D5",
                    "midi": 74,
                    "time": 342.5,
                    "velocity": 0.25196850393700787,
                    "duration": 0.3125
                },
                {
                    "name": "C3",
                    "midi": 48,
                    "time": 342.5,
                    "velocity": 0.25196850393700787,
                    "duration": 0.3125
                },
                {
                    "name": "C5",
                    "midi": 72,
                    "time": 342.8125,
                    "velocity": 0.2440944881889764,
                    "duration": 0.3125
                },
                {
                    "name": "A#3",
                    "midi": 58,
                    "time": 342.8125,
                    "velocity": 0.2440944881889764,
                    "duration": 0.3125
                },
                {
                    "name": "A4",
                    "midi": 69,
                    "time": 343.125,
                    "velocity": 0.2440944881889764,
                    "duration": 0.3125
                },
                {
                    "name": "D4",
                    "midi": 62,
                    "time": 343.125,
                    "velocity": 0.2440944881889764,
                    "duration": 0.3125
                },
                {
                    "name": "F4",
                    "midi": 65,
                    "time": 343.4375,
                    "velocity": 0.5511811023622047,
                    "duration": 0.625
                },
                {
                    "name": "F5",
                    "midi": 77,
                    "time": 343.4375,
                    "velocity": 0.5511811023622047,
                    "duration": 0.625
                },
                {
                    "name": "F2",
                    "midi": 41,
                    "time": 343.4375,
                    "velocity": 0.47244094488188976,
                    "duration": 0.625
                },
                {
                    "name": "A3",
                    "midi": 57,
                    "time": 343.4375,
                    "velocity": 0.47244094488188976,
                    "duration": 0.625
                },
                {
                    "name": "A4",
                    "midi": 69,
                    "time": 343.75,
                    "velocity": 0.4330708661417323,
                    "duration": 0.3125
                },
                {
                    "name": "C5",
                    "midi": 72,
                    "time": 343.75,
                    "velocity": 0.4330708661417323,
                    "duration": 0.3125
                },
                {
                    "name": "F4",
                    "midi": 65,
                    "time": 344.0625,
                    "velocity": 0.5511811023622047,
                    "duration": 0.46875
                },
                {
                    "name": "F5",
                    "midi": 77,
                    "time": 344.0625,
                    "velocity": 0.5511811023622047,
                    "duration": 0.46875
                },
                {
                    "name": "A#2",
                    "midi": 46,
                    "time": 344.0625,
                    "velocity": 0.47244094488188976,
                    "duration": 0.625
                },
                {
                    "name": "D4",
                    "midi": 62,
                    "time": 344.0625,
                    "velocity": 0.47244094488188976,
                    "duration": 0.625
                },
                {
                    "name": "A#4",
                    "midi": 70,
                    "time": 344.375,
                    "velocity": 0.4330708661417323,
                    "duration": 0.3125
                },
                {
                    "name": "D5",
                    "midi": 74,
                    "time": 344.375,
                    "velocity": 0.4330708661417323,
                    "duration": 0.3125
                },
                {
                    "name": "F5",
                    "midi": 77,
                    "time": 344.53125,
                    "velocity": 0.5511811023622047,
                    "duration": 0.15625
                },
                {
                    "name": "G5",
                    "midi": 79,
                    "time": 344.6875,
                    "velocity": 0.5511811023622047,
                    "duration": 0.15625
                },
                {
                    "name": "G2",
                    "midi": 43,
                    "time": 344.6875,
                    "velocity": 0.47244094488188976,
                    "duration": 0.625
                },
                {
                    "name": "A#3",
                    "midi": 58,
                    "time": 344.6875,
                    "velocity": 0.47244094488188976,
                    "duration": 0.625
                },
                {
                    "name": "F5",
                    "midi": 77,
                    "time": 344.84375,
                    "velocity": 0.5511811023622047,
                    "duration": 0.15625
                },
                {
                    "name": "E5",
                    "midi": 76,
                    "time": 345,
                    "velocity": 0.5511811023622047,
                    "duration": 0.15625
                },
                {
                    "name": "D5",
                    "midi": 74,
                    "time": 345.15625,
                    "velocity": 0.5511811023622047,
                    "duration": 0.15625
                },
                {
                    "name": "C5",
                    "midi": 72,
                    "time": 345.3125,
                    "velocity": 0.5511811023622047,
                    "duration": 0.3125
                },
                {
                    "name": "C3",
                    "midi": 48,
                    "time": 345.3125,
                    "velocity": 0.47244094488188976,
                    "duration": 3.125
                },
                {
                    "name": "E4",
                    "midi": 64,
                    "time": 345.625,
                    "velocity": 0.5511811023622047,
                    "duration": 0.15625
                },
                {
                    "name": "A4",
                    "midi": 69,
                    "time": 345.625,
                    "velocity": 0.5511811023622047,
                    "duration": 0.15625
                },
                {
                    "name": "C5",
                    "midi": 72,
                    "time": 345.625,
                    "velocity": 0.5511811023622047,
                    "duration": 0.15625
                },
                {
                    "name": "A3",
                    "midi": 57,
                    "time": 345.625,
                    "velocity": 0.47244094488188976,
                    "duration": 0.3125
                },
                {
                    "name": "C4",
                    "midi": 60,
                    "time": 345.625,
                    "velocity": 0.47244094488188976,
                    "duration": 0.3125
                },
                {
                    "name": "E5",
                    "midi": 76,
                    "time": 345.78125,
                    "velocity": 0.5511811023622047,
                    "duration": 0.15625
                },
                {
                    "name": "C5",
                    "midi": 72,
                    "time": 345.9375,
                    "velocity": 0.5511811023622047,
                    "duration": 0.3125
                },
                {
                    "name": "F4",
                    "midi": 65,
                    "time": 346.25,
                    "velocity": 0.5433070866141733,
                    "duration": 0.15625
                },
                {
                    "name": "A4",
                    "midi": 69,
                    "time": 346.25,
                    "velocity": 0.5433070866141733,
                    "duration": 0.15625
                },
                {
                    "name": "C5",
                    "midi": 72,
                    "time": 346.25,
                    "velocity": 0.5433070866141733,
                    "duration": 0.15625
                },
                {
                    "name": "A#3",
                    "midi": 58,
                    "time": 346.25,
                    "velocity": 0.47244094488188976,
                    "duration": 0.3125
                },
                {
                    "name": "D4",
                    "midi": 62,
                    "time": 346.25,
                    "velocity": 0.47244094488188976,
                    "duration": 0.3125
                },
                {
                    "name": "E5",
                    "midi": 76,
                    "time": 346.40625,
                    "velocity": 0.5354330708661418,
                    "duration": 0.15625
                },
                {
                    "name": "C5",
                    "midi": 72,
                    "time": 346.5625,
                    "velocity": 0.5275590551181102,
                    "duration": 0.3125
                },
                {
                    "name": "A4",
                    "midi": 69,
                    "time": 346.875,
                    "velocity": 0.5196850393700787,
                    "duration": 0.15625
                },
                {
                    "name": "C4",
                    "midi": 60,
                    "time": 346.875,
                    "velocity": 0.47244094488188976,
                    "duration": 0.3125
                },
                {
                    "name": "E4",
                    "midi": 64,
                    "time": 346.875,
                    "velocity": 0.47244094488188976,
                    "duration": 0.3125
                },
                {
                    "name": "A#4",
                    "midi": 70,
                    "time": 347.03125,
                    "velocity": 0.5196850393700787,
                    "duration": 0.15625
                },
                {
                    "name": "C5",
                    "midi": 72,
                    "time": 347.1875,
                    "velocity": 0.5118110236220472,
                    "duration": 0.15625
                },
                {
                    "name": "A#4",
                    "midi": 70,
                    "time": 347.34375,
                    "velocity": 0.5039370078740157,
                    "duration": 0.15625
                },
                {
                    "name": "A4",
                    "midi": 69,
                    "time": 347.5,
                    "velocity": 0.5039370078740157,
                    "duration": 0.15625
                },
                {
                    "name": "G4",
                    "midi": 67,
                    "time": 347.65625,
                    "velocity": 0.49606299212598426,
                    "duration": 0.15625
                },
                {
                    "name": "F4",
                    "midi": 65,
                    "time": 347.8125,
                    "velocity": 0.4881889763779528,
                    "duration": 0.2032470703125
                },
                {
                    "name": "C5",
                    "midi": 72,
                    "time": 347.96875,
                    "velocity": 0.3937007874015748,
                    "duration": 0.15625
                },
                {
                    "name": "D5",
                    "midi": 74,
                    "time": 348.125,
                    "velocity": 0.47244094488188976,
                    "duration": 0.15625
                },
                {
                    "name": "E5",
                    "midi": 76,
                    "time": 348.28125,
                    "velocity": 0.5511811023622047,
                    "duration": 0.15625
                },
                {
                    "name": "F4",
                    "midi": 65,
                    "time": 348.4375,
                    "velocity": 0.5511811023622047,
                    "duration": 0.625
                },
                {
                    "name": "F5",
                    "midi": 77,
                    "time": 348.4375,
                    "velocity": 0.5511811023622047,
                    "duration": 0.625
                },
                {
                    "name": "F2",
                    "midi": 41,
                    "time": 348.4375,
                    "velocity": 0.47244094488188976,
                    "duration": 0.625
                },
                {
                    "name": "A3",
                    "midi": 57,
                    "time": 348.4375,
                    "velocity": 0.47244094488188976,
                    "duration": 0.625
                },
                {
                    "name": "A4",
                    "midi": 69,
                    "time": 348.75,
                    "velocity": 0.4330708661417323,
                    "duration": 0.3125
                },
                {
                    "name": "C5",
                    "midi": 72,
                    "time": 348.75,
                    "velocity": 0.4330708661417323,
                    "duration": 0.3125
                },
                {
                    "name": "F4",
                    "midi": 65,
                    "time": 349.0625,
                    "velocity": 0.5511811023622047,
                    "duration": 0.46875
                },
                {
                    "name": "F5",
                    "midi": 77,
                    "time": 349.0625,
                    "velocity": 0.5511811023622047,
                    "duration": 0.46875
                },
                {
                    "name": "A#2",
                    "midi": 46,
                    "time": 349.0625,
                    "velocity": 0.47244094488188976,
                    "duration": 0.625
                },
                {
                    "name": "D4",
                    "midi": 62,
                    "time": 349.0625,
                    "velocity": 0.47244094488188976,
                    "duration": 0.625
                },
                {
                    "name": "A#4",
                    "midi": 70,
                    "time": 349.375,
                    "velocity": 0.4330708661417323,
                    "duration": 0.3125
                },
                {
                    "name": "D5",
                    "midi": 74,
                    "time": 349.375,
                    "velocity": 0.4330708661417323,
                    "duration": 0.3125
                },
                {
                    "name": "F5",
                    "midi": 77,
                    "time": 349.53125,
                    "velocity": 0.5511811023622047,
                    "duration": 0.15625
                },
                {
                    "name": "G5",
                    "midi": 79,
                    "time": 349.6875,
                    "velocity": 0.5511811023622047,
                    "duration": 0.15625
                },
                {
                    "name": "G2",
                    "midi": 43,
                    "time": 349.6875,
                    "velocity": 0.47244094488188976,
                    "duration": 0.625
                },
                {
                    "name": "A#3",
                    "midi": 58,
                    "time": 349.6875,
                    "velocity": 0.47244094488188976,
                    "duration": 0.625
                },
                {
                    "name": "F5",
                    "midi": 77,
                    "time": 349.84375,
                    "velocity": 0.5511811023622047,
                    "duration": 0.15625
                },
                {
                    "name": "E5",
                    "midi": 76,
                    "time": 350,
                    "velocity": 0.5511811023622047,
                    "duration": 0.15625
                },
                {
                    "name": "D5",
                    "midi": 74,
                    "time": 350.15625,
                    "velocity": 0.5511811023622047,
                    "duration": 0.15625
                },
                {
                    "name": "C5",
                    "midi": 72,
                    "time": 350.3125,
                    "velocity": 0.5511811023622047,
                    "duration": 0.3125
                },
                {
                    "name": "C3",
                    "midi": 48,
                    "time": 350.3125,
                    "velocity": 0.47244094488188976,
                    "duration": 2.5
                },
                {
                    "name": "E4",
                    "midi": 64,
                    "time": 350.625,
                    "velocity": 0.5511811023622047,
                    "duration": 0.15625
                },
                {
                    "name": "A4",
                    "midi": 69,
                    "time": 350.625,
                    "velocity": 0.5511811023622047,
                    "duration": 0.15625
                },
                {
                    "name": "C5",
                    "midi": 72,
                    "time": 350.625,
                    "velocity": 0.5511811023622047,
                    "duration": 0.15625
                },
                {
                    "name": "A3",
                    "midi": 57,
                    "time": 350.625,
                    "velocity": 0.47244094488188976,
                    "duration": 0.3125
                },
                {
                    "name": "C4",
                    "midi": 60,
                    "time": 350.625,
                    "velocity": 0.47244094488188976,
                    "duration": 0.3125
                },
                {
                    "name": "E5",
                    "midi": 76,
                    "time": 350.78125,
                    "velocity": 0.5511811023622047,
                    "duration": 0.15625
                },
                {
                    "name": "C5",
                    "midi": 72,
                    "time": 350.9375,
                    "velocity": 0.5039370078740157,
                    "duration": 0.3125
                },
                {
                    "name": "F4",
                    "midi": 65,
                    "time": 351.25,
                    "velocity": 0.5511811023622047,
                    "duration": 0.15625
                },
                {
                    "name": "A4",
                    "midi": 69,
                    "time": 351.25,
                    "velocity": 0.5511811023622047,
                    "duration": 0.15625
                },
                {
                    "name": "C5",
                    "midi": 72,
                    "time": 351.25,
                    "velocity": 0.5511811023622047,
                    "duration": 0.15625
                },
                {
                    "name": "A#3",
                    "midi": 58,
                    "time": 351.25,
                    "velocity": 0.5039370078740157,
                    "duration": 0.3125
                },
                {
                    "name": "D4",
                    "midi": 62,
                    "time": 351.25,
                    "velocity": 0.5039370078740157,
                    "duration": 0.3125
                },
                {
                    "name": "E5",
                    "midi": 76,
                    "time": 351.40625,
                    "velocity": 0.5354330708661418,
                    "duration": 0.15625
                },
                {
                    "name": "C5",
                    "midi": 72,
                    "time": 351.5625,
                    "velocity": 0.5275590551181102,
                    "duration": 0.3125
                },
                {
                    "name": "A4",
                    "midi": 69,
                    "time": 351.875,
                    "velocity": 0.49606299212598426,
                    "duration": 0.15625
                },
                {
                    "name": "C4",
                    "midi": 60,
                    "time": 351.875,
                    "velocity": 0.5039370078740157,
                    "duration": 0.3125
                },
                {
                    "name": "E4",
                    "midi": 64,
                    "time": 351.875,
                    "velocity": 0.5039370078740157,
                    "duration": 0.3125
                },
                {
                    "name": "A#4",
                    "midi": 70,
                    "time": 352.03125,
                    "velocity": 0.4881889763779528,
                    "duration": 0.15625
                },
                {
                    "name": "C5",
                    "midi": 72,
                    "time": 352.1875,
                    "velocity": 0.47244094488188976,
                    "duration": 0.15625
                },
                {
                    "name": "A#4",
                    "midi": 70,
                    "time": 352.34375,
                    "velocity": 0.4566929133858268,
                    "duration": 0.15625
                },
                {
                    "name": "A4",
                    "midi": 69,
                    "time": 352.5,
                    "velocity": 0.44881889763779526,
                    "duration": 0.15625
                },
                {
                    "name": "G4",
                    "midi": 67,
                    "time": 352.65625,
                    "velocity": 0.4330708661417323,
                    "duration": 0.15625
                },
                {
                    "name": "A4",
                    "midi": 69,
                    "time": 352.8125,
                    "velocity": 0.15748031496062992,
                    "duration": 0.625
                },
                {
                    "name": "A3",
                    "midi": 57,
                    "time": 352.8125,
                    "velocity": 0.11811023622047244,
                    "duration": 0.3125
                },
                {
                    "name": "A#3",
                    "midi": 58,
                    "time": 352.8125,
                    "velocity": 0.11811023622047244,
                    "duration": 0.3125
                },
                {
                    "name": "C4",
                    "midi": 60,
                    "time": 353.125,
                    "velocity": 0.11811023622047244,
                    "duration": 0.3125
                },
                {
                    "name": "E4",
                    "midi": 64,
                    "time": 353.125,
                    "velocity": 0.11811023622047244,
                    "duration": 0.3125
                },
                {
                    "name": "A4",
                    "midi": 69,
                    "time": 353.4375,
                    "velocity": 0.15748031496062992,
                    "duration": 0.625
                },
                {
                    "name": "A3",
                    "midi": 57,
                    "time": 353.4375,
                    "velocity": 0.11811023622047244,
                    "duration": 0.3125
                },
                {
                    "name": "A#3",
                    "midi": 58,
                    "time": 353.4375,
                    "velocity": 0.11811023622047244,
                    "duration": 0.3125
                },
                {
                    "name": "D4",
                    "midi": 62,
                    "time": 353.75,
                    "velocity": 0.11811023622047244,
                    "duration": 0.3125
                },
                {
                    "name": "F4",
                    "midi": 65,
                    "time": 353.75,
                    "velocity": 0.11811023622047244,
                    "duration": 0.3125
                },
                {
                    "name": "A4",
                    "midi": 69,
                    "time": 354.0625,
                    "velocity": 0.15748031496062992,
                    "duration": 0.9375
                },
                {
                    "name": "A3",
                    "midi": 57,
                    "time": 354.0625,
                    "velocity": 0.11811023622047244,
                    "duration": 0.3125
                },
                {
                    "name": "A#3",
                    "midi": 58,
                    "time": 354.0625,
                    "velocity": 0.11811023622047244,
                    "duration": 0.3125
                },
                {
                    "name": "C4",
                    "midi": 60,
                    "time": 354.375,
                    "velocity": 0.11811023622047244,
                    "duration": 0.3125
                },
                {
                    "name": "E4",
                    "midi": 64,
                    "time": 354.375,
                    "velocity": 0.11811023622047244,
                    "duration": 0.3125
                },
                {
                    "name": "A3",
                    "midi": 57,
                    "time": 354.6875,
                    "velocity": 0.11811023622047244,
                    "duration": 0.3125
                },
                {
                    "name": "A#3",
                    "midi": 58,
                    "time": 354.6875,
                    "velocity": 0.11811023622047244,
                    "duration": 0.3125
                },
                {
                    "name": "G4",
                    "midi": 67,
                    "time": 355,
                    "velocity": 0.15748031496062992,
                    "duration": 0.3125
                },
                {
                    "name": "D4",
                    "midi": 62,
                    "time": 355,
                    "velocity": 0.11811023622047244,
                    "duration": 0.3125
                },
                {
                    "name": "F4",
                    "midi": 65,
                    "time": 355,
                    "velocity": 0.11811023622047244,
                    "duration": 0.3125
                },
                {
                    "name": "A4",
                    "midi": 69,
                    "time": 355.3125,
                    "velocity": 0.15748031496062992,
                    "duration": 0.3125
                },
                {
                    "name": "A3",
                    "midi": 57,
                    "time": 355.3125,
                    "velocity": 0.11811023622047244,
                    "duration": 0.3125
                },
                {
                    "name": "A#3",
                    "midi": 58,
                    "time": 355.3125,
                    "velocity": 0.11811023622047244,
                    "duration": 0.3125
                },
                {
                    "name": "G4",
                    "midi": 67,
                    "time": 355.625,
                    "velocity": 0.15748031496062992,
                    "duration": 0.3125
                },
                {
                    "name": "C4",
                    "midi": 60,
                    "time": 355.625,
                    "velocity": 0.11811023622047244,
                    "duration": 0.3125
                },
                {
                    "name": "E4",
                    "midi": 64,
                    "time": 355.625,
                    "velocity": 0.11811023622047244,
                    "duration": 0.3125
                },
                {
                    "name": "A4",
                    "midi": 69,
                    "time": 355.9375,
                    "velocity": 0.2125984251968504,
                    "duration": 0.3125
                },
                {
                    "name": "A3",
                    "midi": 57,
                    "time": 355.9375,
                    "velocity": 0.11811023622047244,
                    "duration": 0.3125
                },
                {
                    "name": "A#3",
                    "midi": 58,
                    "time": 355.9375,
                    "velocity": 0.11811023622047244,
                    "duration": 0.3125
                },
                {
                    "name": "C5",
                    "midi": 72,
                    "time": 356.25,
                    "velocity": 0.25984251968503935,
                    "duration": 0.3125
                },
                {
                    "name": "D4",
                    "midi": 62,
                    "time": 356.25,
                    "velocity": 0.11811023622047244,
                    "duration": 0.3125
                },
                {
                    "name": "F4",
                    "midi": 65,
                    "time": 356.25,
                    "velocity": 0.11811023622047244,
                    "duration": 0.3125
                },
                {
                    "name": "A4",
                    "midi": 69,
                    "time": 356.5625,
                    "velocity": 0.31496062992125984,
                    "duration": 0.9375
                },
                {
                    "name": "A3",
                    "midi": 57,
                    "time": 356.5625,
                    "velocity": 0.11811023622047244,
                    "duration": 0.3125
                },
                {
                    "name": "A#3",
                    "midi": 58,
                    "time": 356.5625,
                    "velocity": 0.11811023622047244,
                    "duration": 0.3125
                },
                {
                    "name": "C4",
                    "midi": 60,
                    "time": 356.875,
                    "velocity": 0.11811023622047244,
                    "duration": 0.3125
                },
                {
                    "name": "E4",
                    "midi": 64,
                    "time": 356.875,
                    "velocity": 0.11811023622047244,
                    "duration": 0.3125
                },
                {
                    "name": "A3",
                    "midi": 57,
                    "time": 357.1875,
                    "velocity": 0.11811023622047244,
                    "duration": 0.3125
                },
                {
                    "name": "A#3",
                    "midi": 58,
                    "time": 357.1875,
                    "velocity": 0.11811023622047244,
                    "duration": 0.3125
                },
                {
                    "name": "G4",
                    "midi": 67,
                    "time": 357.5,
                    "velocity": 0.15748031496062992,
                    "duration": 0.3125
                },
                {
                    "name": "D4",
                    "midi": 62,
                    "time": 357.5,
                    "velocity": 0.11811023622047244,
                    "duration": 0.3125
                },
                {
                    "name": "F4",
                    "midi": 65,
                    "time": 357.5,
                    "velocity": 0.11811023622047244,
                    "duration": 0.3125
                },
                {
                    "name": "A4",
                    "midi": 69,
                    "time": 357.8125,
                    "velocity": 0.15748031496062992,
                    "duration": 0.3125
                },
                {
                    "name": "A3",
                    "midi": 57,
                    "time": 357.8125,
                    "velocity": 0.11811023622047244,
                    "duration": 0.3125
                },
                {
                    "name": "A#3",
                    "midi": 58,
                    "time": 357.8125,
                    "velocity": 0.11811023622047244,
                    "duration": 0.3125
                },
                {
                    "name": "G4",
                    "midi": 67,
                    "time": 358.125,
                    "velocity": 0.15748031496062992,
                    "duration": 0.3125
                },
                {
                    "name": "C4",
                    "midi": 60,
                    "time": 358.125,
                    "velocity": 0.11811023622047244,
                    "duration": 0.3125
                },
                {
                    "name": "E4",
                    "midi": 64,
                    "time": 358.125,
                    "velocity": 0.11811023622047244,
                    "duration": 0.3125
                },
                {
                    "name": "A4",
                    "midi": 69,
                    "time": 358.4375,
                    "velocity": 0.2125984251968504,
                    "duration": 0.3125
                },
                {
                    "name": "A3",
                    "midi": 57,
                    "time": 358.4375,
                    "velocity": 0.11811023622047244,
                    "duration": 0.3125
                },
                {
                    "name": "A#3",
                    "midi": 58,
                    "time": 358.4375,
                    "velocity": 0.11811023622047244,
                    "duration": 0.3125
                },
                {
                    "name": "D5",
                    "midi": 74,
                    "time": 358.75,
                    "velocity": 0.25984251968503935,
                    "duration": 0.3125
                },
                {
                    "name": "D4",
                    "midi": 62,
                    "time": 358.75,
                    "velocity": 0.11811023622047244,
                    "duration": 0.3125
                },
                {
                    "name": "F4",
                    "midi": 65,
                    "time": 358.75,
                    "velocity": 0.11811023622047244,
                    "duration": 0.3125
                },
                {
                    "name": "C5",
                    "midi": 72,
                    "time": 358.90625,
                    "velocity": 0.31496062992125984,
                    "duration": 0.078125
                },
                {
                    "name": "D5",
                    "midi": 74,
                    "time": 358.984375,
                    "velocity": 0.31496062992125984,
                    "duration": 0.078125
                },
                {
                    "name": "C5",
                    "midi": 72,
                    "time": 359.0625,
                    "velocity": 0.31496062992125984,
                    "duration": 0.15625
                },
                {
                    "name": "A3",
                    "midi": 57,
                    "time": 359.0625,
                    "velocity": 0.11811023622047244,
                    "duration": 0.3125
                },
                {
                    "name": "A#3",
                    "midi": 58,
                    "time": 359.0625,
                    "velocity": 0.11811023622047244,
                    "duration": 0.3125
                },
                {
                    "name": "A#4",
                    "midi": 70,
                    "time": 359.21875,
                    "velocity": 0.2755905511811024,
                    "duration": 0.15625
                },
                {
                    "name": "A4",
                    "midi": 69,
                    "time": 359.375,
                    "velocity": 0.23622047244094488,
                    "duration": 0.15625
                },
                {
                    "name": "C4",
                    "midi": 60,
                    "time": 359.375,
                    "velocity": 0.11811023622047244,
                    "duration": 0.3125
                },
                {
                    "name": "E4",
                    "midi": 64,
                    "time": 359.375,
                    "velocity": 0.11811023622047244,
                    "duration": 0.3125
                },
                {
                    "name": "G4",
                    "midi": 67,
                    "time": 359.53125,
                    "velocity": 0.1968503937007874,
                    "duration": 0.15625
                },
                {
                    "name": "A4",
                    "midi": 69,
                    "time": 359.6875,
                    "velocity": 0.15748031496062992,
                    "duration": 0.3125
                },
                {
                    "name": "A3",
                    "midi": 57,
                    "time": 359.6875,
                    "velocity": 0.11811023622047244,
                    "duration": 0.3125
                },
                {
                    "name": "A#3",
                    "midi": 58,
                    "time": 359.6875,
                    "velocity": 0.11811023622047244,
                    "duration": 0.3125
                },
                {
                    "name": "A4",
                    "midi": 69,
                    "time": 360,
                    "velocity": 0.15748031496062992,
                    "duration": 0.3125
                },
                {
                    "name": "D4",
                    "midi": 62,
                    "time": 360,
                    "velocity": 0.11811023622047244,
                    "duration": 0.3125
                },
                {
                    "name": "F4",
                    "midi": 65,
                    "time": 360,
                    "velocity": 0.11811023622047244,
                    "duration": 0.3125
                },
                {
                    "name": "A4",
                    "midi": 69,
                    "time": 360.3125,
                    "velocity": 0.15748031496062992,
                    "duration": 0.625
                },
                {
                    "name": "A3",
                    "midi": 57,
                    "time": 360.3125,
                    "velocity": 0.11811023622047244,
                    "duration": 0.3125
                },
                {
                    "name": "A#3",
                    "midi": 58,
                    "time": 360.3125,
                    "velocity": 0.11811023622047244,
                    "duration": 0.3125
                },
                {
                    "name": "C4",
                    "midi": 60,
                    "time": 360.625,
                    "velocity": 0.11811023622047244,
                    "duration": 0.3125
                },
                {
                    "name": "E4",
                    "midi": 64,
                    "time": 360.625,
                    "velocity": 0.11811023622047244,
                    "duration": 0.3125
                },
                {
                    "name": "A4",
                    "midi": 69,
                    "time": 360.9375,
                    "velocity": 0.15748031496062992,
                    "duration": 0.625
                },
                {
                    "name": "A3",
                    "midi": 57,
                    "time": 360.9375,
                    "velocity": 0.11811023622047244,
                    "duration": 0.3125
                },
                {
                    "name": "A#3",
                    "midi": 58,
                    "time": 360.9375,
                    "velocity": 0.11811023622047244,
                    "duration": 0.3125
                },
                {
                    "name": "D4",
                    "midi": 62,
                    "time": 361.25,
                    "velocity": 0.11811023622047244,
                    "duration": 0.3125
                },
                {
                    "name": "F4",
                    "midi": 65,
                    "time": 361.25,
                    "velocity": 0.11811023622047244,
                    "duration": 0.3125
                },
                {
                    "name": "A4",
                    "midi": 69,
                    "time": 361.5625,
                    "velocity": 0.15748031496062992,
                    "duration": 0.9375
                },
                {
                    "name": "A3",
                    "midi": 57,
                    "time": 361.5625,
                    "velocity": 0.11811023622047244,
                    "duration": 0.3125
                },
                {
                    "name": "A#3",
                    "midi": 58,
                    "time": 361.5625,
                    "velocity": 0.11811023622047244,
                    "duration": 0.3125
                },
                {
                    "name": "C4",
                    "midi": 60,
                    "time": 361.875,
                    "velocity": 0.11811023622047244,
                    "duration": 0.3125
                },
                {
                    "name": "E4",
                    "midi": 64,
                    "time": 361.875,
                    "velocity": 0.11811023622047244,
                    "duration": 0.3125
                },
                {
                    "name": "A3",
                    "midi": 57,
                    "time": 362.1875,
                    "velocity": 0.11811023622047244,
                    "duration": 0.3125
                },
                {
                    "name": "A#3",
                    "midi": 58,
                    "time": 362.1875,
                    "velocity": 0.11811023622047244,
                    "duration": 0.3125
                },
                {
                    "name": "G4",
                    "midi": 67,
                    "time": 362.5,
                    "velocity": 0.15748031496062992,
                    "duration": 0.3125
                },
                {
                    "name": "D4",
                    "midi": 62,
                    "time": 362.5,
                    "velocity": 0.11811023622047244,
                    "duration": 0.3125
                },
                {
                    "name": "F4",
                    "midi": 65,
                    "time": 362.5,
                    "velocity": 0.11811023622047244,
                    "duration": 0.3125
                },
                {
                    "name": "A4",
                    "midi": 69,
                    "time": 362.8125,
                    "velocity": 0.15748031496062992,
                    "duration": 0.3125
                },
                {
                    "name": "A3",
                    "midi": 57,
                    "time": 362.8125,
                    "velocity": 0.11811023622047244,
                    "duration": 0.3125
                },
                {
                    "name": "A#3",
                    "midi": 58,
                    "time": 362.8125,
                    "velocity": 0.11811023622047244,
                    "duration": 0.3125
                },
                {
                    "name": "G4",
                    "midi": 67,
                    "time": 363.125,
                    "velocity": 0.15748031496062992,
                    "duration": 0.3125
                },
                {
                    "name": "C4",
                    "midi": 60,
                    "time": 363.125,
                    "velocity": 0.11811023622047244,
                    "duration": 0.3125
                },
                {
                    "name": "E4",
                    "midi": 64,
                    "time": 363.125,
                    "velocity": 0.11811023622047244,
                    "duration": 0.3125
                },
                {
                    "name": "A4",
                    "midi": 69,
                    "time": 363.4375,
                    "velocity": 0.15748031496062992,
                    "duration": 0.3125
                },
                {
                    "name": "A3",
                    "midi": 57,
                    "time": 363.4375,
                    "velocity": 0.11811023622047244,
                    "duration": 0.3125
                },
                {
                    "name": "A#3",
                    "midi": 58,
                    "time": 363.4375,
                    "velocity": 0.11811023622047244,
                    "duration": 0.3125
                },
                {
                    "name": "C5",
                    "midi": 72,
                    "time": 363.75,
                    "velocity": 0.15748031496062992,
                    "duration": 0.3125
                },
                {
                    "name": "D4",
                    "midi": 62,
                    "time": 363.75,
                    "velocity": 0.11811023622047244,
                    "duration": 0.3125
                },
                {
                    "name": "F4",
                    "midi": 65,
                    "time": 363.75,
                    "velocity": 0.11811023622047244,
                    "duration": 0.3125
                },
                {
                    "name": "A4",
                    "midi": 69,
                    "time": 364.0625,
                    "velocity": 0.15748031496062992,
                    "duration": 1.25
                },
                {
                    "name": "A3",
                    "midi": 57,
                    "time": 364.0625,
                    "velocity": 0.11811023622047244,
                    "duration": 0.3125
                },
                {
                    "name": "A#3",
                    "midi": 58,
                    "time": 364.0625,
                    "velocity": 0.11811023622047244,
                    "duration": 0.3125
                },
                {
                    "name": "C4",
                    "midi": 60,
                    "time": 364.375,
                    "velocity": 0.11811023622047244,
                    "duration": 0.3125
                },
                {
                    "name": "E4",
                    "midi": 64,
                    "time": 364.375,
                    "velocity": 0.11811023622047244,
                    "duration": 0.3125
                },
                {
                    "name": "A3",
                    "midi": 57,
                    "time": 364.6875,
                    "velocity": 0.11811023622047244,
                    "duration": 0.3125
                },
                {
                    "name": "A#3",
                    "midi": 58,
                    "time": 364.6875,
                    "velocity": 0.11811023622047244,
                    "duration": 0.3125
                },
                {
                    "name": "D4",
                    "midi": 62,
                    "time": 365,
                    "velocity": 0.11811023622047244,
                    "duration": 0.3125
                },
                {
                    "name": "F4",
                    "midi": 65,
                    "time": 365,
                    "velocity": 0.11811023622047244,
                    "duration": 0.3125
                },
                {
                    "name": "A3",
                    "midi": 57,
                    "time": 365.3125,
                    "velocity": 0.11811023622047244,
                    "duration": 0.3125
                },
                {
                    "name": "A#3",
                    "midi": 58,
                    "time": 365.3125,
                    "velocity": 0.11811023622047244,
                    "duration": 0.3125
                },
                {
                    "name": "C4",
                    "midi": 60,
                    "time": 365.625,
                    "velocity": 0.11811023622047244,
                    "duration": 0.3125
                },
                {
                    "name": "E4",
                    "midi": 64,
                    "time": 365.625,
                    "velocity": 0.11811023622047244,
                    "duration": 0.3125
                },
                {
                    "name": "G4",
                    "midi": 67,
                    "time": 365.9375,
                    "velocity": 0.31496062992125984,
                    "duration": 0.078125
                },
                {
                    "name": "A3",
                    "midi": 57,
                    "time": 365.9375,
                    "velocity": 0.11811023622047244,
                    "duration": 0.3125
                },
                {
                    "name": "A#3",
                    "midi": 58,
                    "time": 365.9375,
                    "velocity": 0.11811023622047244,
                    "duration": 0.3125
                },
                {
                    "name": "A4",
                    "midi": 69,
                    "time": 366.015625,
                    "velocity": 0.2755905511811024,
                    "duration": 0.078125
                },
                {
                    "name": "G4",
                    "midi": 67,
                    "time": 366.09375,
                    "velocity": 0.23622047244094488,
                    "duration": 0.078125
                },
                {
                    "name": "A4",
                    "midi": 69,
                    "time": 366.171875,
                    "velocity": 0.1968503937007874,
                    "duration": 0.078125
                },
                {
                    "name": "G4",
                    "midi": 67,
                    "time": 366.25,
                    "velocity": 0.15748031496062992,
                    "duration": 0.078125
                },
                {
                    "name": "D4",
                    "midi": 62,
                    "time": 366.25,
                    "velocity": 0.11811023622047244,
                    "duration": 0.3125
                },
                {
                    "name": "F4",
                    "midi": 65,
                    "time": 366.25,
                    "velocity": 0.11811023622047244,
                    "duration": 0.3125
                },
                {
                    "name": "A4",
                    "midi": 69,
                    "time": 366.328125,
                    "velocity": 0.15748031496062992,
                    "duration": 0.078125
                },
                {
                    "name": "G4",
                    "midi": 67,
                    "time": 366.40625,
                    "velocity": 0.15748031496062992,
                    "duration": 0.078125
                },
                {
                    "name": "A4",
                    "midi": 69,
                    "time": 366.484375,
                    "velocity": 0.15748031496062992,
                    "duration": 0.078125
                },
                {
                    "name": "G4",
                    "midi": 67,
                    "time": 366.5625,
                    "velocity": 0.15748031496062992,
                    "duration": 0.078125
                },
                {
                    "name": "A3",
                    "midi": 57,
                    "time": 366.5625,
                    "velocity": 0.11811023622047244,
                    "duration": 0.3125
                },
                {
                    "name": "A#3",
                    "midi": 58,
                    "time": 366.5625,
                    "velocity": 0.11811023622047244,
                    "duration": 0.3125
                },
                {
                    "name": "A4",
                    "midi": 69,
                    "time": 366.640625,
                    "velocity": 0.15748031496062992,
                    "duration": 0.078125
                },
                {
                    "name": "G4",
                    "midi": 67,
                    "time": 366.71875,
                    "velocity": 0.15748031496062992,
                    "duration": 0.078125
                },
                {
                    "name": "A4",
                    "midi": 69,
                    "time": 366.796875,
                    "velocity": 0.15748031496062992,
                    "duration": 0.078125
                },
                {
                    "name": "G4",
                    "midi": 67,
                    "time": 366.875,
                    "velocity": 0.15748031496062992,
                    "duration": 0.078125
                },
                {
                    "name": "C4",
                    "midi": 60,
                    "time": 366.875,
                    "velocity": 0.11811023622047244,
                    "duration": 0.3125
                },
                {
                    "name": "E4",
                    "midi": 64,
                    "time": 366.875,
                    "velocity": 0.11811023622047244,
                    "duration": 0.3125
                },
                {
                    "name": "A4",
                    "midi": 69,
                    "time": 366.953125,
                    "velocity": 0.15748031496062992,
                    "duration": 0.078125
                },
                {
                    "name": "G4",
                    "midi": 67,
                    "time": 367.03125,
                    "velocity": 0.15748031496062992,
                    "duration": 0.078125
                },
                {
                    "name": "A4",
                    "midi": 69,
                    "time": 367.109375,
                    "velocity": 0.15748031496062992,
                    "duration": 0.078125
                },
                {
                    "name": "G4",
                    "midi": 67,
                    "time": 367.1875,
                    "velocity": 0.15748031496062992,
                    "duration": 0.078125
                },
                {
                    "name": "A3",
                    "midi": 57,
                    "time": 367.1875,
                    "velocity": 0.11811023622047244,
                    "duration": 0.3125
                },
                {
                    "name": "A#3",
                    "midi": 58,
                    "time": 367.1875,
                    "velocity": 0.11811023622047244,
                    "duration": 0.3125
                },
                {
                    "name": "A4",
                    "midi": 69,
                    "time": 367.265625,
                    "velocity": 0.15748031496062992,
                    "duration": 0.078125
                },
                {
                    "name": "G4",
                    "midi": 67,
                    "time": 367.34375,
                    "velocity": 0.15748031496062992,
                    "duration": 0.078125
                },
                {
                    "name": "A4",
                    "midi": 69,
                    "time": 367.421875,
                    "velocity": 0.15748031496062992,
                    "duration": 0.078125
                },
                {
                    "name": "G4",
                    "midi": 67,
                    "time": 367.5,
                    "velocity": 0.15748031496062992,
                    "duration": 0.078125
                },
                {
                    "name": "D4",
                    "midi": 62,
                    "time": 367.5,
                    "velocity": 0.11811023622047244,
                    "duration": 0.3125
                },
                {
                    "name": "F4",
                    "midi": 65,
                    "time": 367.5,
                    "velocity": 0.11811023622047244,
                    "duration": 0.3125
                },
                {
                    "name": "A4",
                    "midi": 69,
                    "time": 367.578125,
                    "velocity": 0.15748031496062992,
                    "duration": 0.078125
                },
                {
                    "name": "G4",
                    "midi": 67,
                    "time": 367.65625,
                    "velocity": 0.15748031496062992,
                    "duration": 0.078125
                },
                {
                    "name": "A4",
                    "midi": 69,
                    "time": 367.734375,
                    "velocity": 0.15748031496062992,
                    "duration": 0.078125
                },
                {
                    "name": "A3",
                    "midi": 57,
                    "time": 367.8125,
                    "velocity": 0.11811023622047244,
                    "duration": 0.3125
                },
                {
                    "name": "A#3",
                    "midi": 58,
                    "time": 367.8125,
                    "velocity": 0.11811023622047244,
                    "duration": 0.3125
                },
                {
                    "name": "C4",
                    "midi": 60,
                    "time": 368.125,
                    "velocity": 0.11811023622047244,
                    "duration": 0.3125
                },
                {
                    "name": "E4",
                    "midi": 64,
                    "time": 368.125,
                    "velocity": 0.11811023622047244,
                    "duration": 0.3125
                },
                {
                    "name": "G4",
                    "midi": 67,
                    "time": 368.4375,
                    "velocity": 0.31496062992125984,
                    "duration": 0.078125
                },
                {
                    "name": "A3",
                    "midi": 57,
                    "time": 368.4375,
                    "velocity": 0.11811023622047244,
                    "duration": 0.3125
                },
                {
                    "name": "A#3",
                    "midi": 58,
                    "time": 368.4375,
                    "velocity": 0.11811023622047244,
                    "duration": 0.3125
                },
                {
                    "name": "A4",
                    "midi": 69,
                    "time": 368.515625,
                    "velocity": 0.2755905511811024,
                    "duration": 0.078125
                },
                {
                    "name": "G4",
                    "midi": 67,
                    "time": 368.59375,
                    "velocity": 0.23622047244094488,
                    "duration": 0.078125
                },
                {
                    "name": "A4",
                    "midi": 69,
                    "time": 368.671875,
                    "velocity": 0.1968503937007874,
                    "duration": 0.078125
                },
                {
                    "name": "G4",
                    "midi": 67,
                    "time": 368.75,
                    "velocity": 0.15748031496062992,
                    "duration": 0.078125
                },
                {
                    "name": "D4",
                    "midi": 62,
                    "time": 368.75,
                    "velocity": 0.11811023622047244,
                    "duration": 0.3125
                },
                {
                    "name": "F4",
                    "midi": 65,
                    "time": 368.75,
                    "velocity": 0.11811023622047244,
                    "duration": 0.3125
                },
                {
                    "name": "A4",
                    "midi": 69,
                    "time": 368.828125,
                    "velocity": 0.15748031496062992,
                    "duration": 0.078125
                },
                {
                    "name": "G4",
                    "midi": 67,
                    "time": 368.90625,
                    "velocity": 0.15748031496062992,
                    "duration": 0.078125
                },
                {
                    "name": "A4",
                    "midi": 69,
                    "time": 368.984375,
                    "velocity": 0.15748031496062992,
                    "duration": 0.078125
                },
                {
                    "name": "G4",
                    "midi": 67,
                    "time": 369.0625,
                    "velocity": 0.15748031496062992,
                    "duration": 0.078125
                },
                {
                    "name": "A3",
                    "midi": 57,
                    "time": 369.0625,
                    "velocity": 0.11811023622047244,
                    "duration": 0.3125
                },
                {
                    "name": "A#3",
                    "midi": 58,
                    "time": 369.0625,
                    "velocity": 0.11811023622047244,
                    "duration": 0.3125
                },
                {
                    "name": "A4",
                    "midi": 69,
                    "time": 369.140625,
                    "velocity": 0.15748031496062992,
                    "duration": 0.078125
                },
                {
                    "name": "G4",
                    "midi": 67,
                    "time": 369.21875,
                    "velocity": 0.15748031496062992,
                    "duration": 0.078125
                },
                {
                    "name": "A4",
                    "midi": 69,
                    "time": 369.296875,
                    "velocity": 0.15748031496062992,
                    "duration": 0.078125
                },
                {
                    "name": "G4",
                    "midi": 67,
                    "time": 369.375,
                    "velocity": 0.15748031496062992,
                    "duration": 0.078125
                },
                {
                    "name": "C4",
                    "midi": 60,
                    "time": 369.375,
                    "velocity": 0.11811023622047244,
                    "duration": 0.3125
                },
                {
                    "name": "E4",
                    "midi": 64,
                    "time": 369.375,
                    "velocity": 0.11811023622047244,
                    "duration": 0.3125
                },
                {
                    "name": "A4",
                    "midi": 69,
                    "time": 369.453125,
                    "velocity": 0.15748031496062992,
                    "duration": 0.078125
                },
                {
                    "name": "G4",
                    "midi": 67,
                    "time": 369.53125,
                    "velocity": 0.15748031496062992,
                    "duration": 0.078125
                },
                {
                    "name": "A4",
                    "midi": 69,
                    "time": 369.609375,
                    "velocity": 0.15748031496062992,
                    "duration": 0.078125
                },
                {
                    "name": "G4",
                    "midi": 67,
                    "time": 369.6875,
                    "velocity": 0.15748031496062992,
                    "duration": 0.078125
                },
                {
                    "name": "A3",
                    "midi": 57,
                    "time": 369.6875,
                    "velocity": 0.11811023622047244,
                    "duration": 0.3125
                },
                {
                    "name": "A#3",
                    "midi": 58,
                    "time": 369.6875,
                    "velocity": 0.11811023622047244,
                    "duration": 0.3125
                },
                {
                    "name": "A4",
                    "midi": 69,
                    "time": 369.765625,
                    "velocity": 0.15748031496062992,
                    "duration": 0.078125
                },
                {
                    "name": "G4",
                    "midi": 67,
                    "time": 369.84375,
                    "velocity": 0.15748031496062992,
                    "duration": 0.078125
                },
                {
                    "name": "A4",
                    "midi": 69,
                    "time": 369.921875,
                    "velocity": 0.15748031496062992,
                    "duration": 0.078125
                },
                {
                    "name": "G4",
                    "midi": 67,
                    "time": 370,
                    "velocity": 0.15748031496062992,
                    "duration": 0.078125
                },
                {
                    "name": "D4",
                    "midi": 62,
                    "time": 370,
                    "velocity": 0.11811023622047244,
                    "duration": 0.3125
                },
                {
                    "name": "F4",
                    "midi": 65,
                    "time": 370,
                    "velocity": 0.11811023622047244,
                    "duration": 0.3125
                },
                {
                    "name": "A4",
                    "midi": 69,
                    "time": 370.078125,
                    "velocity": 0.15748031496062992,
                    "duration": 0.078125
                },
                {
                    "name": "G4",
                    "midi": 67,
                    "time": 370.15625,
                    "velocity": 0.15748031496062992,
                    "duration": 0.078125
                },
                {
                    "name": "A4",
                    "midi": 69,
                    "time": 370.234375,
                    "velocity": 0.15748031496062992,
                    "duration": 0.078125
                },
                {
                    "name": "A4",
                    "midi": 69,
                    "time": 370.3125,
                    "velocity": 0.1968503937007874,
                    "duration": 0.625
                },
                {
                    "name": "A5",
                    "midi": 81,
                    "time": 370.3125,
                    "velocity": 0.1968503937007874,
                    "duration": 0.625
                },
                {
                    "name": "G2",
                    "midi": 43,
                    "time": 370.3125,
                    "velocity": 0.1968503937007874,
                    "duration": 0.625
                },
                {
                    "name": "A#3",
                    "midi": 58,
                    "time": 370.3125,
                    "velocity": 0.1968503937007874,
                    "duration": 0.625
                },
                {
                    "name": "D5",
                    "midi": 74,
                    "time": 370.625,
                    "velocity": 0.10236220472440945,
                    "duration": 0.3125
                },
                {
                    "name": "E5",
                    "midi": 76,
                    "time": 370.625,
                    "velocity": 0.10236220472440945,
                    "duration": 0.3125
                },
                {
                    "name": "A4",
                    "midi": 69,
                    "time": 370.9375,
                    "velocity": 0.1968503937007874,
                    "duration": 0.625
                },
                {
                    "name": "A5",
                    "midi": 81,
                    "time": 370.9375,
                    "velocity": 0.1968503937007874,
                    "duration": 0.625
                },
                {
                    "name": "C2",
                    "midi": 36,
                    "time": 370.9375,
                    "velocity": 0.1968503937007874,
                    "duration": 0.625
                },
                {
                    "name": "D3",
                    "midi": 50,
                    "time": 370.9375,
                    "velocity": 0.1968503937007874,
                    "duration": 0.625
                },
                {
                    "name": "C5",
                    "midi": 72,
                    "time": 371.25,
                    "velocity": 0.10236220472440945,
                    "duration": 0.3125
                },
                {
                    "name": "E5",
                    "midi": 76,
                    "time": 371.25,
                    "velocity": 0.10236220472440945,
                    "duration": 0.3125
                },
                {
                    "name": "A4",
                    "midi": 69,
                    "time": 371.5625,
                    "velocity": 0.1968503937007874,
                    "duration": 0.9375
                },
                {
                    "name": "A5",
                    "midi": 81,
                    "time": 371.5625,
                    "velocity": 0.1968503937007874,
                    "duration": 0.9375
                },
                {
                    "name": "G2",
                    "midi": 43,
                    "time": 371.5625,
                    "velocity": 0.1968503937007874,
                    "duration": 0.625
                },
                {
                    "name": "A#3",
                    "midi": 58,
                    "time": 371.5625,
                    "velocity": 0.1968503937007874,
                    "duration": 0.625
                },
                {
                    "name": "D5",
                    "midi": 74,
                    "time": 371.875,
                    "velocity": 0.10236220472440945,
                    "duration": 0.3125
                },
                {
                    "name": "E5",
                    "midi": 76,
                    "time": 371.875,
                    "velocity": 0.10236220472440945,
                    "duration": 0.3125
                },
                {
                    "name": "C2",
                    "midi": 36,
                    "time": 372.1875,
                    "velocity": 0.1968503937007874,
                    "duration": 0.625
                },
                {
                    "name": "D3",
                    "midi": 50,
                    "time": 372.1875,
                    "velocity": 0.1968503937007874,
                    "duration": 0.625
                },
                {
                    "name": "G4",
                    "midi": 67,
                    "time": 372.5,
                    "velocity": 0.1968503937007874,
                    "duration": 0.3125
                },
                {
                    "name": "G5",
                    "midi": 79,
                    "time": 372.5,
                    "velocity": 0.1968503937007874,
                    "duration": 0.3125
                },
                {
                    "name": "A4",
                    "midi": 69,
                    "time": 372.8125,
                    "velocity": 0.1968503937007874,
                    "duration": 0.3125
                },
                {
                    "name": "A5",
                    "midi": 81,
                    "time": 372.8125,
                    "velocity": 0.1968503937007874,
                    "duration": 0.3125
                },
                {
                    "name": "G2",
                    "midi": 43,
                    "time": 372.8125,
                    "velocity": 0.1968503937007874,
                    "duration": 0.625
                },
                {
                    "name": "A#3",
                    "midi": 58,
                    "time": 372.8125,
                    "velocity": 0.1968503937007874,
                    "duration": 0.625
                },
                {
                    "name": "G4",
                    "midi": 67,
                    "time": 373.125,
                    "velocity": 0.1968503937007874,
                    "duration": 0.3125
                },
                {
                    "name": "G5",
                    "midi": 79,
                    "time": 373.125,
                    "velocity": 0.1968503937007874,
                    "duration": 0.3125
                },
                {
                    "name": "A4",
                    "midi": 69,
                    "time": 373.4375,
                    "velocity": 0.1968503937007874,
                    "duration": 0.3125
                },
                {
                    "name": "A5",
                    "midi": 81,
                    "time": 373.4375,
                    "velocity": 0.1968503937007874,
                    "duration": 0.3125
                },
                {
                    "name": "C2",
                    "midi": 36,
                    "time": 373.4375,
                    "velocity": 0.1968503937007874,
                    "duration": 0.625
                },
                {
                    "name": "D3",
                    "midi": 50,
                    "time": 373.4375,
                    "velocity": 0.1968503937007874,
                    "duration": 0.625
                },
                {
                    "name": "C5",
                    "midi": 72,
                    "time": 373.75,
                    "velocity": 0.1968503937007874,
                    "duration": 0.3125
                },
                {
                    "name": "C6",
                    "midi": 84,
                    "time": 373.75,
                    "velocity": 0.1968503937007874,
                    "duration": 0.3125
                },
                {
                    "name": "A4",
                    "midi": 69,
                    "time": 374.0625,
                    "velocity": 0.1968503937007874,
                    "duration": 0.9375
                },
                {
                    "name": "A5",
                    "midi": 81,
                    "time": 374.0625,
                    "velocity": 0.1968503937007874,
                    "duration": 0.9375
                },
                {
                    "name": "G2",
                    "midi": 43,
                    "time": 374.0625,
                    "velocity": 0.1968503937007874,
                    "duration": 0.625
                },
                {
                    "name": "A#3",
                    "midi": 58,
                    "time": 374.0625,
                    "velocity": 0.1968503937007874,
                    "duration": 0.625
                },
                {
                    "name": "D5",
                    "midi": 74,
                    "time": 374.375,
                    "velocity": 0.10236220472440945,
                    "duration": 0.3125
                },
                {
                    "name": "E5",
                    "midi": 76,
                    "time": 374.375,
                    "velocity": 0.10236220472440945,
                    "duration": 0.3125
                },
                {
                    "name": "C2",
                    "midi": 36,
                    "time": 374.6875,
                    "velocity": 0.1968503937007874,
                    "duration": 0.625
                },
                {
                    "name": "D3",
                    "midi": 50,
                    "time": 374.6875,
                    "velocity": 0.1968503937007874,
                    "duration": 0.625
                },
                {
                    "name": "G4",
                    "midi": 67,
                    "time": 375,
                    "velocity": 0.1968503937007874,
                    "duration": 0.3125
                },
                {
                    "name": "G5",
                    "midi": 79,
                    "time": 375,
                    "velocity": 0.1968503937007874,
                    "duration": 0.3125
                },
                {
                    "name": "A4",
                    "midi": 69,
                    "time": 375.3125,
                    "velocity": 0.1968503937007874,
                    "duration": 0.3125
                },
                {
                    "name": "A5",
                    "midi": 81,
                    "time": 375.3125,
                    "velocity": 0.1968503937007874,
                    "duration": 0.3125
                },
                {
                    "name": "A#3",
                    "midi": 58,
                    "time": 375.3125,
                    "velocity": 0.1968503937007874,
                    "duration": 0.3125
                },
                {
                    "name": "G2",
                    "midi": 43,
                    "time": 375.3125,
                    "velocity": 0.1968503937007874,
                    "duration": 0.625
                },
                {
                    "name": "G5",
                    "midi": 79,
                    "time": 375.625,
                    "velocity": 0.1968503937007874,
                    "duration": 0.3125
                },
                {
                    "name": "D3",
                    "midi": 50,
                    "time": 375.625,
                    "velocity": 0.1968503937007874,
                    "duration": 0.3125
                },
                {
                    "name": "A5",
                    "midi": 81,
                    "time": 375.9375,
                    "velocity": 0.1968503937007874,
                    "duration": 0.3125
                },
                {
                    "name": "G2",
                    "midi": 43,
                    "time": 375.9375,
                    "velocity": 0.1968503937007874,
                    "duration": 0.3125
                },
                {
                    "name": "C2",
                    "midi": 36,
                    "time": 375.9375,
                    "velocity": 0.1968503937007874,
                    "duration": 0.625
                },
                {
                    "name": "D6",
                    "midi": 86,
                    "time": 376.25,
                    "velocity": 0.1968503937007874,
                    "duration": 0.3125
                },
                {
                    "name": "E3",
                    "midi": 52,
                    "time": 376.25,
                    "velocity": 0.1968503937007874,
                    "duration": 0.3125
                },
                {
                    "name": "C6",
                    "midi": 84,
                    "time": 376.40625,
                    "velocity": 0.1968503937007874,
                    "duration": 0.078125
                },
                {
                    "name": "D6",
                    "midi": 86,
                    "time": 376.484375,
                    "velocity": 0.1968503937007874,
                    "duration": 0.078125
                },
                {
                    "name": "C6",
                    "midi": 84,
                    "time": 376.5625,
                    "velocity": 0.1968503937007874,
                    "duration": 0.15625
                },
                {
                    "name": "A#3",
                    "midi": 58,
                    "time": 376.5625,
                    "velocity": 0.1968503937007874,
                    "duration": 0.3125
                },
                {
                    "name": "G2",
                    "midi": 43,
                    "time": 376.5625,
                    "velocity": 0.1968503937007874,
                    "duration": 0.625
                },
                {
                    "name": "A#5",
                    "midi": 82,
                    "time": 376.71875,
                    "velocity": 0.1968503937007874,
                    "duration": 0.15625
                },
                {
                    "name": "A5",
                    "midi": 81,
                    "time": 376.875,
                    "velocity": 0.1968503937007874,
                    "duration": 0.15625
                },
                {
                    "name": "D3",
                    "midi": 50,
                    "time": 376.875,
                    "velocity": 0.1968503937007874,
                    "duration": 0.3125
                },
                {
                    "name": "G5",
                    "midi": 79,
                    "time": 377.03125,
                    "velocity": 0.1968503937007874,
                    "duration": 0.15625
                },
                {
                    "name": "A5",
                    "midi": 81,
                    "time": 377.1875,
                    "velocity": 0.1968503937007874,
                    "duration": 0.3125
                },
                {
                    "name": "G2",
                    "midi": 43,
                    "time": 377.1875,
                    "velocity": 0.1968503937007874,
                    "duration": 0.3125
                },
                {
                    "name": "C2",
                    "midi": 36,
                    "time": 377.1875,
                    "velocity": 0.1968503937007874,
                    "duration": 0.625
                },
                {
                    "name": "G4",
                    "midi": 67,
                    "time": 377.5,
                    "velocity": 0.1968503937007874,
                    "duration": 0.3125
                },
                {
                    "name": "G5",
                    "midi": 79,
                    "time": 377.5,
                    "velocity": 0.1968503937007874,
                    "duration": 0.3125
                },
                {
                    "name": "E3",
                    "midi": 52,
                    "time": 377.5,
                    "velocity": 0.1968503937007874,
                    "duration": 0.3125
                },
                {
                    "name": "A4",
                    "midi": 69,
                    "time": 377.8125,
                    "velocity": 0.1968503937007874,
                    "duration": 0.3125
                },
                {
                    "name": "A5",
                    "midi": 81,
                    "time": 377.8125,
                    "velocity": 0.1968503937007874,
                    "duration": 0.3125
                },
                {
                    "name": "A#3",
                    "midi": 58,
                    "time": 377.8125,
                    "velocity": 0.1968503937007874,
                    "duration": 0.3125
                },
                {
                    "name": "G2",
                    "midi": 43,
                    "time": 377.8125,
                    "velocity": 0.1968503937007874,
                    "duration": 0.625
                },
                {
                    "name": "G5",
                    "midi": 79,
                    "time": 378.125,
                    "velocity": 0.1968503937007874,
                    "duration": 0.3125
                },
                {
                    "name": "D3",
                    "midi": 50,
                    "time": 378.125,
                    "velocity": 0.1968503937007874,
                    "duration": 0.3125
                },
                {
                    "name": "A5",
                    "midi": 81,
                    "time": 378.4375,
                    "velocity": 0.1968503937007874,
                    "duration": 0.3125
                },
                {
                    "name": "G2",
                    "midi": 43,
                    "time": 378.4375,
                    "velocity": 0.1968503937007874,
                    "duration": 0.3125
                },
                {
                    "name": "C2",
                    "midi": 36,
                    "time": 378.4375,
                    "velocity": 0.1968503937007874,
                    "duration": 0.625
                },
                {
                    "name": "D6",
                    "midi": 86,
                    "time": 378.75,
                    "velocity": 0.1968503937007874,
                    "duration": 0.3125
                },
                {
                    "name": "E3",
                    "midi": 52,
                    "time": 378.75,
                    "velocity": 0.1968503937007874,
                    "duration": 0.3125
                },
                {
                    "name": "C6",
                    "midi": 84,
                    "time": 378.90625,
                    "velocity": 0.1968503937007874,
                    "duration": 0.078125
                },
                {
                    "name": "D6",
                    "midi": 86,
                    "time": 378.984375,
                    "velocity": 0.1968503937007874,
                    "duration": 0.078125
                },
                {
                    "name": "C6",
                    "midi": 84,
                    "time": 379.0625,
                    "velocity": 0.1968503937007874,
                    "duration": 0.15625
                },
                {
                    "name": "A#3",
                    "midi": 58,
                    "time": 379.0625,
                    "velocity": 0.1968503937007874,
                    "duration": 0.3125
                },
                {
                    "name": "G2",
                    "midi": 43,
                    "time": 379.0625,
                    "velocity": 0.1968503937007874,
                    "duration": 0.625
                },
                {
                    "name": "A#5",
                    "midi": 82,
                    "time": 379.21875,
                    "velocity": 0.1968503937007874,
                    "duration": 0.15625
                },
                {
                    "name": "A5",
                    "midi": 81,
                    "time": 379.375,
                    "velocity": 0.1968503937007874,
                    "duration": 0.15625
                },
                {
                    "name": "D3",
                    "midi": 50,
                    "time": 379.375,
                    "velocity": 0.1968503937007874,
                    "duration": 0.3125
                },
                {
                    "name": "G5",
                    "midi": 79,
                    "time": 379.53125,
                    "velocity": 0.1968503937007874,
                    "duration": 0.15625
                },
                {
                    "name": "A5",
                    "midi": 81,
                    "time": 379.6875,
                    "velocity": 0.1968503937007874,
                    "duration": 0.625
                },
                {
                    "name": "G2",
                    "midi": 43,
                    "time": 379.6875,
                    "velocity": 0.1968503937007874,
                    "duration": 0.3125
                },
                {
                    "name": "C2",
                    "midi": 36,
                    "time": 379.6875,
                    "velocity": 0.1968503937007874,
                    "duration": 0.625
                },
                {
                    "name": "E3",
                    "midi": 52,
                    "time": 380,
                    "velocity": 0.1968503937007874,
                    "duration": 0.3125
                },
                {
                    "name": "G3",
                    "midi": 55,
                    "time": 380.3125,
                    "velocity": 0.5039370078740157,
                    "duration": 0.625
                },
                {
                    "name": "A3",
                    "midi": 57,
                    "time": 380.3125,
                    "velocity": 0.11811023622047244,
                    "duration": 0.3125
                },
                {
                    "name": "A#3",
                    "midi": 58,
                    "time": 380.3125,
                    "velocity": 0.11811023622047244,
                    "duration": 0.3125
                },
                {
                    "name": "C4",
                    "midi": 60,
                    "time": 380.625,
                    "velocity": 0.11811023622047244,
                    "duration": 0.3125
                },
                {
                    "name": "E4",
                    "midi": 64,
                    "time": 380.625,
                    "velocity": 0.11811023622047244,
                    "duration": 0.3125
                },
                {
                    "name": "G3",
                    "midi": 55,
                    "time": 380.9375,
                    "velocity": 0.5039370078740157,
                    "duration": 0.625
                },
                {
                    "name": "A3",
                    "midi": 57,
                    "time": 380.9375,
                    "velocity": 0.11811023622047244,
                    "duration": 0.3125
                },
                {
                    "name": "A#3",
                    "midi": 58,
                    "time": 380.9375,
                    "velocity": 0.11811023622047244,
                    "duration": 0.3125
                },
                {
                    "name": "D4",
                    "midi": 62,
                    "time": 381.25,
                    "velocity": 0.11811023622047244,
                    "duration": 0.3125
                },
                {
                    "name": "F4",
                    "midi": 65,
                    "time": 381.25,
                    "velocity": 0.11811023622047244,
                    "duration": 0.3125
                },
                {
                    "name": "G3",
                    "midi": 55,
                    "time": 381.5625,
                    "velocity": 0.5039370078740157,
                    "duration": 0.3125
                },
                {
                    "name": "A3",
                    "midi": 57,
                    "time": 381.5625,
                    "velocity": 0.11811023622047244,
                    "duration": 0.3125
                },
                {
                    "name": "A#3",
                    "midi": 58,
                    "time": 381.5625,
                    "velocity": 0.11811023622047244,
                    "duration": 0.3125
                },
                {
                    "name": "F3",
                    "midi": 53,
                    "time": 381.875,
                    "velocity": 0.5039370078740157,
                    "duration": 0.3125
                },
                {
                    "name": "C4",
                    "midi": 60,
                    "time": 381.875,
                    "velocity": 0.11811023622047244,
                    "duration": 0.3125
                },
                {
                    "name": "E4",
                    "midi": 64,
                    "time": 381.875,
                    "velocity": 0.11811023622047244,
                    "duration": 0.3125
                },
                {
                    "name": "E3",
                    "midi": 52,
                    "time": 382.1875,
                    "velocity": 0.5039370078740157,
                    "duration": 0.3125
                },
                {
                    "name": "A3",
                    "midi": 57,
                    "time": 382.1875,
                    "velocity": 0.11811023622047244,
                    "duration": 0.3125
                },
                {
                    "name": "A#3",
                    "midi": 58,
                    "time": 382.1875,
                    "velocity": 0.11811023622047244,
                    "duration": 0.3125
                },
                {
                    "name": "D3",
                    "midi": 50,
                    "time": 382.5,
                    "velocity": 0.5039370078740157,
                    "duration": 0.3125
                },
                {
                    "name": "D4",
                    "midi": 62,
                    "time": 382.5,
                    "velocity": 0.11811023622047244,
                    "duration": 0.3125
                },
                {
                    "name": "F4",
                    "midi": 65,
                    "time": 382.5,
                    "velocity": 0.11811023622047244,
                    "duration": 0.3125
                },
                {
                    "name": "C3",
                    "midi": 48,
                    "time": 382.8125,
                    "velocity": 0.5039370078740157,
                    "duration": 0.625
                },
                {
                    "name": "A3",
                    "midi": 57,
                    "time": 382.8125,
                    "velocity": 0.11811023622047244,
                    "duration": 0.3125
                },
                {
                    "name": "A#3",
                    "midi": 58,
                    "time": 382.8125,
                    "velocity": 0.11811023622047244,
                    "duration": 0.3125
                },
                {
                    "name": "C4",
                    "midi": 60,
                    "time": 383.125,
                    "velocity": 0.11811023622047244,
                    "duration": 0.3125
                },
                {
                    "name": "E4",
                    "midi": 64,
                    "time": 383.125,
                    "velocity": 0.11811023622047244,
                    "duration": 0.3125
                },
                {
                    "name": "G3",
                    "midi": 55,
                    "time": 383.4375,
                    "velocity": 0.5039370078740157,
                    "duration": 0.625
                },
                {
                    "name": "A3",
                    "midi": 57,
                    "time": 383.4375,
                    "velocity": 0.11811023622047244,
                    "duration": 0.3125
                },
                {
                    "name": "A#3",
                    "midi": 58,
                    "time": 383.4375,
                    "velocity": 0.11811023622047244,
                    "duration": 0.3125
                },
                {
                    "name": "D4",
                    "midi": 62,
                    "time": 383.75,
                    "velocity": 0.11811023622047244,
                    "duration": 0.3125
                },
                {
                    "name": "F4",
                    "midi": 65,
                    "time": 383.75,
                    "velocity": 0.11811023622047244,
                    "duration": 0.3125
                },
                {
                    "name": "C3",
                    "midi": 48,
                    "time": 384.0625,
                    "velocity": 0.5039370078740157,
                    "duration": 1.25
                },
                {
                    "name": "A3",
                    "midi": 57,
                    "time": 384.0625,
                    "velocity": 0.11811023622047244,
                    "duration": 0.3125
                },
                {
                    "name": "A#3",
                    "midi": 58,
                    "time": 384.0625,
                    "velocity": 0.11811023622047244,
                    "duration": 0.3125
                },
                {
                    "name": "C4",
                    "midi": 60,
                    "time": 384.375,
                    "velocity": 0.11811023622047244,
                    "duration": 0.3125
                },
                {
                    "name": "E4",
                    "midi": 64,
                    "time": 384.375,
                    "velocity": 0.11811023622047244,
                    "duration": 0.3125
                },
                {
                    "name": "A3",
                    "midi": 57,
                    "time": 384.6875,
                    "velocity": 0.11811023622047244,
                    "duration": 0.3125
                },
                {
                    "name": "A#3",
                    "midi": 58,
                    "time": 384.6875,
                    "velocity": 0.11811023622047244,
                    "duration": 0.3125
                },
                {
                    "name": "D4",
                    "midi": 62,
                    "time": 385,
                    "velocity": 0.11811023622047244,
                    "duration": 0.3125
                },
                {
                    "name": "F4",
                    "midi": 65,
                    "time": 385,
                    "velocity": 0.11811023622047244,
                    "duration": 0.3125
                },
                {
                    "name": "A3",
                    "midi": 57,
                    "time": 385.3125,
                    "velocity": 0.11811023622047244,
                    "duration": 0.3125
                },
                {
                    "name": "A#3",
                    "midi": 58,
                    "time": 385.3125,
                    "velocity": 0.11811023622047244,
                    "duration": 0.3125
                },
                {
                    "name": "C4",
                    "midi": 60,
                    "time": 385.625,
                    "velocity": 0.11811023622047244,
                    "duration": 0.3125
                },
                {
                    "name": "E4",
                    "midi": 64,
                    "time": 385.625,
                    "velocity": 0.11811023622047244,
                    "duration": 0.3125
                },
                {
                    "name": "G4",
                    "midi": 67,
                    "time": 385.9375,
                    "velocity": 0.31496062992125984,
                    "duration": 0.078125
                },
                {
                    "name": "A3",
                    "midi": 57,
                    "time": 385.9375,
                    "velocity": 0.11811023622047244,
                    "duration": 0.3125
                },
                {
                    "name": "A#3",
                    "midi": 58,
                    "time": 385.9375,
                    "velocity": 0.11811023622047244,
                    "duration": 0.3125
                },
                {
                    "name": "A4",
                    "midi": 69,
                    "time": 386.015625,
                    "velocity": 0.2755905511811024,
                    "duration": 0.078125
                },
                {
                    "name": "G4",
                    "midi": 67,
                    "time": 386.09375,
                    "velocity": 0.23622047244094488,
                    "duration": 0.078125
                },
                {
                    "name": "A4",
                    "midi": 69,
                    "time": 386.171875,
                    "velocity": 0.1968503937007874,
                    "duration": 0.078125
                },
                {
                    "name": "G4",
                    "midi": 67,
                    "time": 386.25,
                    "velocity": 0.15748031496062992,
                    "duration": 0.078125
                },
                {
                    "name": "D4",
                    "midi": 62,
                    "time": 386.25,
                    "velocity": 0.11811023622047244,
                    "duration": 0.3125
                },
                {
                    "name": "F4",
                    "midi": 65,
                    "time": 386.25,
                    "velocity": 0.11811023622047244,
                    "duration": 0.3125
                },
                {
                    "name": "A4",
                    "midi": 69,
                    "time": 386.328125,
                    "velocity": 0.15748031496062992,
                    "duration": 0.078125
                },
                {
                    "name": "G4",
                    "midi": 67,
                    "time": 386.40625,
                    "velocity": 0.15748031496062992,
                    "duration": 0.078125
                },
                {
                    "name": "A4",
                    "midi": 69,
                    "time": 386.484375,
                    "velocity": 0.15748031496062992,
                    "duration": 0.078125
                },
                {
                    "name": "G4",
                    "midi": 67,
                    "time": 386.5625,
                    "velocity": 0.15748031496062992,
                    "duration": 0.078125
                },
                {
                    "name": "A3",
                    "midi": 57,
                    "time": 386.5625,
                    "velocity": 0.11811023622047244,
                    "duration": 0.3125
                },
                {
                    "name": "A#3",
                    "midi": 58,
                    "time": 386.5625,
                    "velocity": 0.11811023622047244,
                    "duration": 0.3125
                },
                {
                    "name": "A4",
                    "midi": 69,
                    "time": 386.640625,
                    "velocity": 0.15748031496062992,
                    "duration": 0.078125
                },
                {
                    "name": "G4",
                    "midi": 67,
                    "time": 386.71875,
                    "velocity": 0.15748031496062992,
                    "duration": 0.078125
                },
                {
                    "name": "A4",
                    "midi": 69,
                    "time": 386.796875,
                    "velocity": 0.15748031496062992,
                    "duration": 0.078125
                },
                {
                    "name": "G4",
                    "midi": 67,
                    "time": 386.875,
                    "velocity": 0.15748031496062992,
                    "duration": 0.078125
                },
                {
                    "name": "C4",
                    "midi": 60,
                    "time": 386.875,
                    "velocity": 0.11811023622047244,
                    "duration": 0.3125
                },
                {
                    "name": "E4",
                    "midi": 64,
                    "time": 386.875,
                    "velocity": 0.11811023622047244,
                    "duration": 0.3125
                },
                {
                    "name": "A4",
                    "midi": 69,
                    "time": 386.953125,
                    "velocity": 0.15748031496062992,
                    "duration": 0.078125
                },
                {
                    "name": "G4",
                    "midi": 67,
                    "time": 387.03125,
                    "velocity": 0.15748031496062992,
                    "duration": 0.078125
                },
                {
                    "name": "A4",
                    "midi": 69,
                    "time": 387.109375,
                    "velocity": 0.15748031496062992,
                    "duration": 0.078125
                },
                {
                    "name": "G4",
                    "midi": 67,
                    "time": 387.1875,
                    "velocity": 0.15748031496062992,
                    "duration": 0.078125
                },
                {
                    "name": "A3",
                    "midi": 57,
                    "time": 387.1875,
                    "velocity": 0.11811023622047244,
                    "duration": 0.3125
                },
                {
                    "name": "A#3",
                    "midi": 58,
                    "time": 387.1875,
                    "velocity": 0.11811023622047244,
                    "duration": 0.3125
                },
                {
                    "name": "A4",
                    "midi": 69,
                    "time": 387.265625,
                    "velocity": 0.15748031496062992,
                    "duration": 0.078125
                },
                {
                    "name": "G4",
                    "midi": 67,
                    "time": 387.34375,
                    "velocity": 0.15748031496062992,
                    "duration": 0.078125
                },
                {
                    "name": "A4",
                    "midi": 69,
                    "time": 387.421875,
                    "velocity": 0.15748031496062992,
                    "duration": 0.078125
                },
                {
                    "name": "G4",
                    "midi": 67,
                    "time": 387.5,
                    "velocity": 0.15748031496062992,
                    "duration": 0.078125
                },
                {
                    "name": "D4",
                    "midi": 62,
                    "time": 387.5,
                    "velocity": 0.11811023622047244,
                    "duration": 0.3125
                },
                {
                    "name": "F4",
                    "midi": 65,
                    "time": 387.5,
                    "velocity": 0.11811023622047244,
                    "duration": 0.3125
                },
                {
                    "name": "A4",
                    "midi": 69,
                    "time": 387.578125,
                    "velocity": 0.15748031496062992,
                    "duration": 0.078125
                },
                {
                    "name": "G4",
                    "midi": 67,
                    "time": 387.65625,
                    "velocity": 0.15748031496062992,
                    "duration": 0.078125
                },
                {
                    "name": "A4",
                    "midi": 69,
                    "time": 387.734375,
                    "velocity": 0.15748031496062992,
                    "duration": 0.078125
                },
                {
                    "name": "A3",
                    "midi": 57,
                    "time": 387.8125,
                    "velocity": 0.11811023622047244,
                    "duration": 0.3125
                },
                {
                    "name": "A#3",
                    "midi": 58,
                    "time": 387.8125,
                    "velocity": 0.11811023622047244,
                    "duration": 0.3125
                },
                {
                    "name": "C4",
                    "midi": 60,
                    "time": 388.125,
                    "velocity": 0.11811023622047244,
                    "duration": 0.3125
                },
                {
                    "name": "E4",
                    "midi": 64,
                    "time": 388.125,
                    "velocity": 0.11811023622047244,
                    "duration": 0.3125
                },
                {
                    "name": "G4",
                    "midi": 67,
                    "time": 388.4375,
                    "velocity": 0.31496062992125984,
                    "duration": 0.078125
                },
                {
                    "name": "A3",
                    "midi": 57,
                    "time": 388.4375,
                    "velocity": 0.11811023622047244,
                    "duration": 0.3125
                },
                {
                    "name": "A#3",
                    "midi": 58,
                    "time": 388.4375,
                    "velocity": 0.11811023622047244,
                    "duration": 0.3125
                },
                {
                    "name": "A4",
                    "midi": 69,
                    "time": 388.515625,
                    "velocity": 0.2755905511811024,
                    "duration": 0.078125
                },
                {
                    "name": "G4",
                    "midi": 67,
                    "time": 388.59375,
                    "velocity": 0.23622047244094488,
                    "duration": 0.078125
                },
                {
                    "name": "A4",
                    "midi": 69,
                    "time": 388.671875,
                    "velocity": 0.1968503937007874,
                    "duration": 0.078125
                },
                {
                    "name": "G4",
                    "midi": 67,
                    "time": 388.75,
                    "velocity": 0.15748031496062992,
                    "duration": 0.078125
                },
                {
                    "name": "D4",
                    "midi": 62,
                    "time": 388.75,
                    "velocity": 0.11811023622047244,
                    "duration": 0.3125
                },
                {
                    "name": "F4",
                    "midi": 65,
                    "time": 388.75,
                    "velocity": 0.11811023622047244,
                    "duration": 0.3125
                },
                {
                    "name": "A4",
                    "midi": 69,
                    "time": 388.828125,
                    "velocity": 0.15748031496062992,
                    "duration": 0.078125
                },
                {
                    "name": "G4",
                    "midi": 67,
                    "time": 388.90625,
                    "velocity": 0.15748031496062992,
                    "duration": 0.078125
                },
                {
                    "name": "A4",
                    "midi": 69,
                    "time": 388.984375,
                    "velocity": 0.15748031496062992,
                    "duration": 0.078125
                },
                {
                    "name": "G4",
                    "midi": 67,
                    "time": 389.0625,
                    "velocity": 0.15748031496062992,
                    "duration": 0.078125
                },
                {
                    "name": "A3",
                    "midi": 57,
                    "time": 389.0625,
                    "velocity": 0.11811023622047244,
                    "duration": 0.3125
                },
                {
                    "name": "A#3",
                    "midi": 58,
                    "time": 389.0625,
                    "velocity": 0.11811023622047244,
                    "duration": 0.3125
                },
                {
                    "name": "A4",
                    "midi": 69,
                    "time": 389.140625,
                    "velocity": 0.15748031496062992,
                    "duration": 0.078125
                },
                {
                    "name": "G4",
                    "midi": 67,
                    "time": 389.21875,
                    "velocity": 0.15748031496062992,
                    "duration": 0.078125
                },
                {
                    "name": "A4",
                    "midi": 69,
                    "time": 389.296875,
                    "velocity": 0.15748031496062992,
                    "duration": 0.078125
                },
                {
                    "name": "G4",
                    "midi": 67,
                    "time": 389.375,
                    "velocity": 0.15748031496062992,
                    "duration": 0.078125
                },
                {
                    "name": "C4",
                    "midi": 60,
                    "time": 389.375,
                    "velocity": 0.11811023622047244,
                    "duration": 0.3125
                },
                {
                    "name": "E4",
                    "midi": 64,
                    "time": 389.375,
                    "velocity": 0.11811023622047244,
                    "duration": 0.3125
                },
                {
                    "name": "A4",
                    "midi": 69,
                    "time": 389.453125,
                    "velocity": 0.15748031496062992,
                    "duration": 0.078125
                },
                {
                    "name": "G4",
                    "midi": 67,
                    "time": 389.53125,
                    "velocity": 0.15748031496062992,
                    "duration": 0.078125
                },
                {
                    "name": "A4",
                    "midi": 69,
                    "time": 389.609375,
                    "velocity": 0.15748031496062992,
                    "duration": 0.078125
                },
                {
                    "name": "G4",
                    "midi": 67,
                    "time": 389.6875,
                    "velocity": 0.15748031496062992,
                    "duration": 0.078125
                },
                {
                    "name": "A3",
                    "midi": 57,
                    "time": 389.6875,
                    "velocity": 0.11811023622047244,
                    "duration": 0.3125
                },
                {
                    "name": "A#3",
                    "midi": 58,
                    "time": 389.6875,
                    "velocity": 0.11811023622047244,
                    "duration": 0.3125
                },
                {
                    "name": "A4",
                    "midi": 69,
                    "time": 389.765625,
                    "velocity": 0.15748031496062992,
                    "duration": 0.078125
                },
                {
                    "name": "G4",
                    "midi": 67,
                    "time": 389.84375,
                    "velocity": 0.15748031496062992,
                    "duration": 0.078125
                },
                {
                    "name": "A4",
                    "midi": 69,
                    "time": 389.921875,
                    "velocity": 0.15748031496062992,
                    "duration": 0.078125
                },
                {
                    "name": "G4",
                    "midi": 67,
                    "time": 390,
                    "velocity": 0.15748031496062992,
                    "duration": 0.078125
                },
                {
                    "name": "D4",
                    "midi": 62,
                    "time": 390,
                    "velocity": 0.11811023622047244,
                    "duration": 0.3125
                },
                {
                    "name": "F4",
                    "midi": 65,
                    "time": 390,
                    "velocity": 0.11811023622047244,
                    "duration": 0.3125
                },
                {
                    "name": "A4",
                    "midi": 69,
                    "time": 390.078125,
                    "velocity": 0.15748031496062992,
                    "duration": 0.078125
                },
                {
                    "name": "G4",
                    "midi": 67,
                    "time": 390.15625,
                    "velocity": 0.15748031496062992,
                    "duration": 0.078125
                },
                {
                    "name": "A4",
                    "midi": 69,
                    "time": 390.234375,
                    "velocity": 0.15748031496062992,
                    "duration": 0.078125
                },
                {
                    "name": "C5",
                    "midi": 72,
                    "time": 390.3125,
                    "velocity": 0.15748031496062992,
                    "duration": 0.3125
                },
                {
                    "name": "C4",
                    "midi": 60,
                    "time": 390.3125,
                    "velocity": 0.15748031496062992,
                    "duration": 0.3125
                },
                {
                    "name": "D5",
                    "midi": 74,
                    "time": 390.625,
                    "velocity": 0.15748031496062992,
                    "duration": 0.3125
                },
                {
                    "name": "A#3",
                    "midi": 58,
                    "time": 390.625,
                    "velocity": 0.15748031496062992,
                    "duration": 0.3125
                },
                {
                    "name": "E5",
                    "midi": 76,
                    "time": 390.9375,
                    "velocity": 0.14960629921259844,
                    "duration": 0.3125
                },
                {
                    "name": "A3",
                    "midi": 57,
                    "time": 390.9375,
                    "velocity": 0.14960629921259844,
                    "duration": 0.3125
                },
                {
                    "name": "F5",
                    "midi": 77,
                    "time": 391.25,
                    "velocity": 0.14960629921259844,
                    "duration": 0.3125
                },
                {
                    "name": "G3",
                    "midi": 55,
                    "time": 391.25,
                    "velocity": 0.14960629921259844,
                    "duration": 0.3125
                },
                {
                    "name": "G5",
                    "midi": 79,
                    "time": 391.5625,
                    "velocity": 0.14173228346456693,
                    "duration": 0.3125
                },
                {
                    "name": "F3",
                    "midi": 53,
                    "time": 391.5625,
                    "velocity": 0.14173228346456693,
                    "duration": 0.3125
                },
                {
                    "name": "A5",
                    "midi": 81,
                    "time": 391.875,
                    "velocity": 0.14173228346456693,
                    "duration": 0.3125
                },
                {
                    "name": "E3",
                    "midi": 52,
                    "time": 391.875,
                    "velocity": 0.14173228346456693,
                    "duration": 0.3125
                },
                {
                    "name": "A#5",
                    "midi": 82,
                    "time": 392.1875,
                    "velocity": 0.14173228346456693,
                    "duration": 0.3125
                },
                {
                    "name": "D3",
                    "midi": 50,
                    "time": 392.1875,
                    "velocity": 0.14173228346456693,
                    "duration": 0.3125
                },
                {
                    "name": "C6",
                    "midi": 84,
                    "time": 392.5,
                    "velocity": 0.13385826771653545,
                    "duration": 0.3125
                },
                {
                    "name": "C3",
                    "midi": 48,
                    "time": 392.5,
                    "velocity": 0.13385826771653545,
                    "duration": 0.3125
                },
                {
                    "name": "D6",
                    "midi": 86,
                    "time": 392.8125,
                    "velocity": 0.13385826771653545,
                    "duration": 0.3125
                },
                {
                    "name": "A#2",
                    "midi": 46,
                    "time": 392.8125,
                    "velocity": 0.13385826771653545,
                    "duration": 0.3125
                },
                {
                    "name": "E6",
                    "midi": 88,
                    "time": 393.125,
                    "velocity": 0.12598425196850394,
                    "duration": 0.3125
                },
                {
                    "name": "G2",
                    "midi": 43,
                    "time": 393.125,
                    "velocity": 0.12598425196850394,
                    "duration": 0.3125
                },
                {
                    "name": "F6",
                    "midi": 89,
                    "time": 393.4375,
                    "velocity": 0.12598425196850394,
                    "duration": 0.3125
                },
                {
                    "name": "D2",
                    "midi": 38,
                    "time": 393.4375,
                    "velocity": 0.12598425196850394,
                    "duration": 0.3125
                },
                {
                    "name": "G6",
                    "midi": 91,
                    "time": 393.75,
                    "velocity": 0.12598425196850394,
                    "duration": 0.3125
                },
                {
                    "name": "G1",
                    "midi": 31,
                    "time": 393.75,
                    "velocity": 0.12598425196850394,
                    "duration": 0.3125
                },
                {
                    "name": "A6",
                    "midi": 93,
                    "time": 394.0625,
                    "velocity": 0.11811023622047244,
                    "duration": 2.437744140625
                },
                {
                    "name": "C1",
                    "midi": 24,
                    "time": 394.0625,
                    "velocity": 0.11811023622047244,
                    "duration": 2.437744140625
                },
                {
                    "name": "A#3",
                    "midi": 58,
                    "time": 394.6875,
                    "velocity": 0.11811023622047244,
                    "duration": 1.624755859375
                },
                {
                    "name": "D4",
                    "midi": 62,
                    "time": 394.6875,
                    "velocity": 0.11811023622047244,
                    "duration": 1.624755859375
                },
                {
                    "name": "E4",
                    "midi": 64,
                    "time": 394.6875,
                    "velocity": 0.11811023622047244,
                    "duration": 1.624755859375
                },
                {
                    "name": "A4",
                    "midi": 69,
                    "time": 394.6875,
                    "velocity": 0.11811023622047244,
                    "duration": 1.624755859375
                },
                {
                    "name": "A#4",
                    "midi": 70,
                    "time": 394.6875,
                    "velocity": 0.11811023622047244,
                    "duration": 1.624755859375
                },
                {
                    "name": "C5",
                    "midi": 72,
                    "time": 394.6875,
                    "velocity": 0.11811023622047244,
                    "duration": 1.624755859375
                },
                {
                    "name": "E5",
                    "midi": 76,
                    "time": 394.6875,
                    "velocity": 0.11811023622047244,
                    "duration": 1.624755859375
                }
            ],
            "controlChanges": {
                "64": [
                    {
                        "number": 64,
                        "time": 2.5,
                        "value": 1
                    },
                    {
                        "number": 64,
                        "time": 2.5,
                        "value": 1
                    },
                    {
                        "number": 64,
                        "time": 3.280029296875,
                        "value": 0
                    },
                    {
                        "number": 64,
                        "time": 3.280029296875,
                        "value": 0
                    },
                    {
                        "number": 64,
                        "time": 3.84765625,
                        "value": 1
                    },
                    {
                        "number": 64,
                        "time": 3.84765625,
                        "value": 1
                    },
                    {
                        "number": 64,
                        "time": 4.556884765625,
                        "value": 0
                    },
                    {
                        "number": 64,
                        "time": 4.556884765625,
                        "value": 0
                    },
                    {
                        "number": 64,
                        "time": 5.1239013671875,
                        "value": 1
                    },
                    {
                        "number": 64,
                        "time": 5.1239013671875,
                        "value": 1
                    },
                    {
                        "number": 64,
                        "time": 5.7977294921875,
                        "value": 0
                    },
                    {
                        "number": 64,
                        "time": 5.7977294921875,
                        "value": 0
                    },
                    {
                        "number": 64,
                        "time": 6.4007568359375,
                        "value": 1
                    },
                    {
                        "number": 64,
                        "time": 6.4007568359375,
                        "value": 1
                    },
                    {
                        "number": 64,
                        "time": 7.09228515625,
                        "value": 0
                    },
                    {
                        "number": 64,
                        "time": 7.09228515625,
                        "value": 0
                    },
                    {
                        "number": 64,
                        "time": 7.5,
                        "value": 1
                    },
                    {
                        "number": 64,
                        "time": 7.5,
                        "value": 1
                    },
                    {
                        "number": 64,
                        "time": 8.280029296875,
                        "value": 0
                    },
                    {
                        "number": 64,
                        "time": 8.280029296875,
                        "value": 0
                    },
                    {
                        "number": 64,
                        "time": 8.84765625,
                        "value": 1
                    },
                    {
                        "number": 64,
                        "time": 8.84765625,
                        "value": 1
                    },
                    {
                        "number": 64,
                        "time": 9.556884765625,
                        "value": 0
                    },
                    {
                        "number": 64,
                        "time": 9.556884765625,
                        "value": 0
                    },
                    {
                        "number": 64,
                        "time": 10.1239013671875,
                        "value": 1
                    },
                    {
                        "number": 64,
                        "time": 10.1239013671875,
                        "value": 1
                    },
                    {
                        "number": 64,
                        "time": 10.7977294921875,
                        "value": 0
                    },
                    {
                        "number": 64,
                        "time": 10.7977294921875,
                        "value": 0
                    },
                    {
                        "number": 64,
                        "time": 11.4007568359375,
                        "value": 1
                    },
                    {
                        "number": 64,
                        "time": 11.4007568359375,
                        "value": 1
                    },
                    {
                        "number": 64,
                        "time": 12.09228515625,
                        "value": 0
                    },
                    {
                        "number": 64,
                        "time": 12.09228515625,
                        "value": 0
                    },
                    {
                        "number": 64,
                        "time": 20,
                        "value": 1
                    },
                    {
                        "number": 64,
                        "time": 20,
                        "value": 1
                    },
                    {
                        "number": 64,
                        "time": 20.780029296875,
                        "value": 0
                    },
                    {
                        "number": 64,
                        "time": 20.780029296875,
                        "value": 0
                    },
                    {
                        "number": 64,
                        "time": 21.34765625,
                        "value": 1
                    },
                    {
                        "number": 64,
                        "time": 21.34765625,
                        "value": 1
                    },
                    {
                        "number": 64,
                        "time": 22.056884765625,
                        "value": 0
                    },
                    {
                        "number": 64,
                        "time": 22.056884765625,
                        "value": 0
                    },
                    {
                        "number": 64,
                        "time": 22.6239013671875,
                        "value": 1
                    },
                    {
                        "number": 64,
                        "time": 22.6239013671875,
                        "value": 1
                    },
                    {
                        "number": 64,
                        "time": 23.2977294921875,
                        "value": 0
                    },
                    {
                        "number": 64,
                        "time": 23.2977294921875,
                        "value": 0
                    },
                    {
                        "number": 64,
                        "time": 23.9007568359375,
                        "value": 1
                    },
                    {
                        "number": 64,
                        "time": 23.9007568359375,
                        "value": 1
                    },
                    {
                        "number": 64,
                        "time": 24.59228515625,
                        "value": 0
                    },
                    {
                        "number": 64,
                        "time": 24.59228515625,
                        "value": 0
                    },
                    {
                        "number": 64,
                        "time": 30,
                        "value": 1
                    },
                    {
                        "number": 64,
                        "time": 30,
                        "value": 1
                    },
                    {
                        "number": 64,
                        "time": 31.41845703125,
                        "value": 0
                    },
                    {
                        "number": 64,
                        "time": 31.41845703125,
                        "value": 0
                    },
                    {
                        "number": 64,
                        "time": 31.649169921875,
                        "value": 1
                    },
                    {
                        "number": 64,
                        "time": 31.649169921875,
                        "value": 1
                    },
                    {
                        "number": 64,
                        "time": 32.5,
                        "value": 0
                    },
                    {
                        "number": 64,
                        "time": 32.5,
                        "value": 0
                    },
                    {
                        "number": 64,
                        "time": 32.5,
                        "value": 1
                    },
                    {
                        "number": 64,
                        "time": 32.5,
                        "value": 1
                    },
                    {
                        "number": 64,
                        "time": 33.91845703125,
                        "value": 0
                    },
                    {
                        "number": 64,
                        "time": 33.91845703125,
                        "value": 0
                    },
                    {
                        "number": 64,
                        "time": 34.149169921875,
                        "value": 1
                    },
                    {
                        "number": 64,
                        "time": 34.149169921875,
                        "value": 1
                    },
                    {
                        "number": 64,
                        "time": 35,
                        "value": 0
                    },
                    {
                        "number": 64,
                        "time": 35,
                        "value": 0
                    },
                    {
                        "number": 64,
                        "time": 45,
                        "value": 1
                    },
                    {
                        "number": 64,
                        "time": 45,
                        "value": 1
                    },
                    {
                        "number": 64,
                        "time": 46.41845703125,
                        "value": 0
                    },
                    {
                        "number": 64,
                        "time": 46.41845703125,
                        "value": 0
                    },
                    {
                        "number": 64,
                        "time": 46.649169921875,
                        "value": 1
                    },
                    {
                        "number": 64,
                        "time": 46.649169921875,
                        "value": 1
                    },
                    {
                        "number": 64,
                        "time": 47.5,
                        "value": 0
                    },
                    {
                        "number": 64,
                        "time": 47.5,
                        "value": 0
                    },
                    {
                        "number": 64,
                        "time": 47.5,
                        "value": 1
                    },
                    {
                        "number": 64,
                        "time": 47.5,
                        "value": 1
                    },
                    {
                        "number": 64,
                        "time": 48.91845703125,
                        "value": 0
                    },
                    {
                        "number": 64,
                        "time": 48.91845703125,
                        "value": 0
                    },
                    {
                        "number": 64,
                        "time": 49.149169921875,
                        "value": 1
                    },
                    {
                        "number": 64,
                        "time": 49.149169921875,
                        "value": 1
                    },
                    {
                        "number": 64,
                        "time": 49.8583984375,
                        "value": 0
                    },
                    {
                        "number": 64,
                        "time": 49.8583984375,
                        "value": 0
                    },
                    {
                        "number": 64,
                        "time": 50,
                        "value": 1
                    },
                    {
                        "number": 64,
                        "time": 50,
                        "value": 1
                    },
                    {
                        "number": 64,
                        "time": 50.780029296875,
                        "value": 0
                    },
                    {
                        "number": 64,
                        "time": 50.780029296875,
                        "value": 0
                    },
                    {
                        "number": 64,
                        "time": 51.34765625,
                        "value": 1
                    },
                    {
                        "number": 64,
                        "time": 51.34765625,
                        "value": 1
                    },
                    {
                        "number": 64,
                        "time": 52.056884765625,
                        "value": 0
                    },
                    {
                        "number": 64,
                        "time": 52.056884765625,
                        "value": 0
                    },
                    {
                        "number": 64,
                        "time": 52.6239013671875,
                        "value": 1
                    },
                    {
                        "number": 64,
                        "time": 52.6239013671875,
                        "value": 1
                    },
                    {
                        "number": 64,
                        "time": 53.2977294921875,
                        "value": 0
                    },
                    {
                        "number": 64,
                        "time": 53.2977294921875,
                        "value": 0
                    },
                    {
                        "number": 64,
                        "time": 53.9007568359375,
                        "value": 1
                    },
                    {
                        "number": 64,
                        "time": 53.9007568359375,
                        "value": 1
                    },
                    {
                        "number": 64,
                        "time": 54.59228515625,
                        "value": 0
                    },
                    {
                        "number": 64,
                        "time": 54.59228515625,
                        "value": 0
                    },
                    {
                        "number": 64,
                        "time": 55,
                        "value": 1
                    },
                    {
                        "number": 64,
                        "time": 55,
                        "value": 1
                    },
                    {
                        "number": 64,
                        "time": 55.780029296875,
                        "value": 0
                    },
                    {
                        "number": 64,
                        "time": 55.780029296875,
                        "value": 0
                    },
                    {
                        "number": 64,
                        "time": 56.34765625,
                        "value": 1
                    },
                    {
                        "number": 64,
                        "time": 56.34765625,
                        "value": 1
                    },
                    {
                        "number": 64,
                        "time": 57.056884765625,
                        "value": 0
                    },
                    {
                        "number": 64,
                        "time": 57.056884765625,
                        "value": 0
                    },
                    {
                        "number": 64,
                        "time": 57.6239013671875,
                        "value": 1
                    },
                    {
                        "number": 64,
                        "time": 57.6239013671875,
                        "value": 1
                    },
                    {
                        "number": 64,
                        "time": 58.2977294921875,
                        "value": 0
                    },
                    {
                        "number": 64,
                        "time": 58.2977294921875,
                        "value": 0
                    },
                    {
                        "number": 64,
                        "time": 58.9007568359375,
                        "value": 1
                    },
                    {
                        "number": 64,
                        "time": 58.9007568359375,
                        "value": 1
                    },
                    {
                        "number": 64,
                        "time": 59.59228515625,
                        "value": 0
                    },
                    {
                        "number": 64,
                        "time": 59.59228515625,
                        "value": 0
                    },
                    {
                        "number": 64,
                        "time": 67.5,
                        "value": 1
                    },
                    {
                        "number": 64,
                        "time": 67.5,
                        "value": 1
                    },
                    {
                        "number": 64,
                        "time": 68.280029296875,
                        "value": 0
                    },
                    {
                        "number": 64,
                        "time": 68.280029296875,
                        "value": 0
                    },
                    {
                        "number": 64,
                        "time": 68.84765625,
                        "value": 1
                    },
                    {
                        "number": 64,
                        "time": 68.84765625,
                        "value": 1
                    },
                    {
                        "number": 64,
                        "time": 69.556884765625,
                        "value": 0
                    },
                    {
                        "number": 64,
                        "time": 69.556884765625,
                        "value": 0
                    },
                    {
                        "number": 64,
                        "time": 70.1239013671875,
                        "value": 1
                    },
                    {
                        "number": 64,
                        "time": 70.1239013671875,
                        "value": 1
                    },
                    {
                        "number": 64,
                        "time": 70.7977294921875,
                        "value": 0
                    },
                    {
                        "number": 64,
                        "time": 70.7977294921875,
                        "value": 0
                    },
                    {
                        "number": 64,
                        "time": 71.4007568359375,
                        "value": 1
                    },
                    {
                        "number": 64,
                        "time": 71.4007568359375,
                        "value": 1
                    },
                    {
                        "number": 64,
                        "time": 72.09228515625,
                        "value": 0
                    },
                    {
                        "number": 64,
                        "time": 72.09228515625,
                        "value": 0
                    },
                    {
                        "number": 64,
                        "time": 77.5,
                        "value": 1
                    },
                    {
                        "number": 64,
                        "time": 77.5,
                        "value": 1
                    },
                    {
                        "number": 64,
                        "time": 78.91845703125,
                        "value": 0
                    },
                    {
                        "number": 64,
                        "time": 78.91845703125,
                        "value": 0
                    },
                    {
                        "number": 64,
                        "time": 79.149169921875,
                        "value": 1
                    },
                    {
                        "number": 64,
                        "time": 79.149169921875,
                        "value": 1
                    },
                    {
                        "number": 64,
                        "time": 80,
                        "value": 0
                    },
                    {
                        "number": 64,
                        "time": 80,
                        "value": 0
                    },
                    {
                        "number": 64,
                        "time": 80,
                        "value": 1
                    },
                    {
                        "number": 64,
                        "time": 80,
                        "value": 1
                    },
                    {
                        "number": 64,
                        "time": 81.41845703125,
                        "value": 0
                    },
                    {
                        "number": 64,
                        "time": 81.41845703125,
                        "value": 0
                    },
                    {
                        "number": 64,
                        "time": 81.649169921875,
                        "value": 1
                    },
                    {
                        "number": 64,
                        "time": 81.649169921875,
                        "value": 1
                    },
                    {
                        "number": 64,
                        "time": 82.5,
                        "value": 0
                    },
                    {
                        "number": 64,
                        "time": 82.5,
                        "value": 0
                    },
                    {
                        "number": 64,
                        "time": 92.5,
                        "value": 1
                    },
                    {
                        "number": 64,
                        "time": 92.5,
                        "value": 1
                    },
                    {
                        "number": 64,
                        "time": 93.91845703125,
                        "value": 0
                    },
                    {
                        "number": 64,
                        "time": 93.91845703125,
                        "value": 0
                    },
                    {
                        "number": 64,
                        "time": 94.149169921875,
                        "value": 1
                    },
                    {
                        "number": 64,
                        "time": 94.149169921875,
                        "value": 1
                    },
                    {
                        "number": 64,
                        "time": 95,
                        "value": 0
                    },
                    {
                        "number": 64,
                        "time": 95,
                        "value": 0
                    },
                    {
                        "number": 64,
                        "time": 95,
                        "value": 1
                    },
                    {
                        "number": 64,
                        "time": 95,
                        "value": 1
                    },
                    {
                        "number": 64,
                        "time": 96.41845703125,
                        "value": 0
                    },
                    {
                        "number": 64,
                        "time": 96.41845703125,
                        "value": 0
                    },
                    {
                        "number": 64,
                        "time": 96.649169921875,
                        "value": 1
                    },
                    {
                        "number": 64,
                        "time": 96.649169921875,
                        "value": 1
                    },
                    {
                        "number": 64,
                        "time": 97.3583984375,
                        "value": 0
                    },
                    {
                        "number": 64,
                        "time": 97.3583984375,
                        "value": 0
                    },
                    {
                        "number": 64,
                        "time": 97.5,
                        "value": 1
                    },
                    {
                        "number": 64,
                        "time": 97.5,
                        "value": 1
                    },
                    {
                        "number": 64,
                        "time": 98.280029296875,
                        "value": 0
                    },
                    {
                        "number": 64,
                        "time": 98.280029296875,
                        "value": 0
                    },
                    {
                        "number": 64,
                        "time": 98.84765625,
                        "value": 1
                    },
                    {
                        "number": 64,
                        "time": 98.84765625,
                        "value": 1
                    },
                    {
                        "number": 64,
                        "time": 99.556884765625,
                        "value": 0
                    },
                    {
                        "number": 64,
                        "time": 99.556884765625,
                        "value": 0
                    },
                    {
                        "number": 64,
                        "time": 100.1239013671875,
                        "value": 1
                    },
                    {
                        "number": 64,
                        "time": 100.1239013671875,
                        "value": 1
                    },
                    {
                        "number": 64,
                        "time": 100.7977294921875,
                        "value": 0
                    },
                    {
                        "number": 64,
                        "time": 100.7977294921875,
                        "value": 0
                    },
                    {
                        "number": 64,
                        "time": 101.4007568359375,
                        "value": 1
                    },
                    {
                        "number": 64,
                        "time": 101.4007568359375,
                        "value": 1
                    },
                    {
                        "number": 64,
                        "time": 102.09228515625,
                        "value": 0
                    },
                    {
                        "number": 64,
                        "time": 102.09228515625,
                        "value": 0
                    },
                    {
                        "number": 64,
                        "time": 102.6239013671875,
                        "value": 1
                    },
                    {
                        "number": 64,
                        "time": 102.6239013671875,
                        "value": 1
                    },
                    {
                        "number": 64,
                        "time": 103.2977294921875,
                        "value": 0
                    },
                    {
                        "number": 64,
                        "time": 103.2977294921875,
                        "value": 0
                    },
                    {
                        "number": 64,
                        "time": 103.9007568359375,
                        "value": 1
                    },
                    {
                        "number": 64,
                        "time": 103.9007568359375,
                        "value": 1
                    },
                    {
                        "number": 64,
                        "time": 104.59228515625,
                        "value": 0
                    },
                    {
                        "number": 64,
                        "time": 104.59228515625,
                        "value": 0
                    },
                    {
                        "number": 64,
                        "time": 105.1239013671875,
                        "value": 1
                    },
                    {
                        "number": 64,
                        "time": 105.1239013671875,
                        "value": 1
                    },
                    {
                        "number": 64,
                        "time": 105.7977294921875,
                        "value": 0
                    },
                    {
                        "number": 64,
                        "time": 105.7977294921875,
                        "value": 0
                    },
                    {
                        "number": 64,
                        "time": 106.4007568359375,
                        "value": 1
                    },
                    {
                        "number": 64,
                        "time": 106.4007568359375,
                        "value": 1
                    },
                    {
                        "number": 64,
                        "time": 107.6885986328125,
                        "value": 0
                    },
                    {
                        "number": 64,
                        "time": 107.6885986328125,
                        "value": 0
                    },
                    {
                        "number": 64,
                        "time": 107.8125,
                        "value": 1
                    },
                    {
                        "number": 64,
                        "time": 107.8125,
                        "value": 1
                    },
                    {
                        "number": 64,
                        "time": 111.2701416015625,
                        "value": 0
                    },
                    {
                        "number": 64,
                        "time": 111.2701416015625,
                        "value": 0
                    },
                    {
                        "number": 64,
                        "time": 122.2625732421875,
                        "value": 1
                    },
                    {
                        "number": 64,
                        "time": 122.2625732421875,
                        "value": 1
                    },
                    {
                        "number": 64,
                        "time": 122.80517578125,
                        "value": 0
                    },
                    {
                        "number": 64,
                        "time": 122.80517578125,
                        "value": 0
                    },
                    {
                        "number": 64,
                        "time": 124.744873046875,
                        "value": 1
                    },
                    {
                        "number": 64,
                        "time": 124.744873046875,
                        "value": 1
                    },
                    {
                        "number": 64,
                        "time": 125.30517578125,
                        "value": 0
                    },
                    {
                        "number": 64,
                        "time": 125.30517578125,
                        "value": 0
                    },
                    {
                        "number": 64,
                        "time": 127.244873046875,
                        "value": 1
                    },
                    {
                        "number": 64,
                        "time": 127.244873046875,
                        "value": 1
                    },
                    {
                        "number": 64,
                        "time": 127.80517578125,
                        "value": 0
                    },
                    {
                        "number": 64,
                        "time": 127.80517578125,
                        "value": 0
                    },
                    {
                        "number": 64,
                        "time": 129.744873046875,
                        "value": 1
                    },
                    {
                        "number": 64,
                        "time": 129.744873046875,
                        "value": 1
                    },
                    {
                        "number": 64,
                        "time": 130.3125,
                        "value": 0
                    },
                    {
                        "number": 64,
                        "time": 130.3125,
                        "value": 0
                    },
                    {
                        "number": 64,
                        "time": 130.4010009765625,
                        "value": 1
                    },
                    {
                        "number": 64,
                        "time": 130.4010009765625,
                        "value": 1
                    },
                    {
                        "number": 64,
                        "time": 130.8624267578125,
                        "value": 0
                    },
                    {
                        "number": 64,
                        "time": 130.8624267578125,
                        "value": 0
                    },
                    {
                        "number": 64,
                        "time": 132.8125,
                        "value": 1
                    },
                    {
                        "number": 64,
                        "time": 132.8125,
                        "value": 1
                    },
                    {
                        "number": 64,
                        "time": 133.2025146484375,
                        "value": 0
                    },
                    {
                        "number": 64,
                        "time": 133.2025146484375,
                        "value": 0
                    },
                    {
                        "number": 64,
                        "time": 135.3125,
                        "value": 1
                    },
                    {
                        "number": 64,
                        "time": 135.3125,
                        "value": 1
                    },
                    {
                        "number": 64,
                        "time": 135.7733154296875,
                        "value": 0
                    },
                    {
                        "number": 64,
                        "time": 135.7733154296875,
                        "value": 0
                    },
                    {
                        "number": 64,
                        "time": 136.0040283203125,
                        "value": 1
                    },
                    {
                        "number": 64,
                        "time": 136.0040283203125,
                        "value": 1
                    },
                    {
                        "number": 64,
                        "time": 136.4471435546875,
                        "value": 0
                    },
                    {
                        "number": 64,
                        "time": 136.4471435546875,
                        "value": 0
                    },
                    {
                        "number": 64,
                        "time": 136.6778564453125,
                        "value": 1
                    },
                    {
                        "number": 64,
                        "time": 136.6778564453125,
                        "value": 1
                    },
                    {
                        "number": 64,
                        "time": 136.9970703125,
                        "value": 0
                    },
                    {
                        "number": 64,
                        "time": 136.9970703125,
                        "value": 0
                    },
                    {
                        "number": 64,
                        "time": 137.2808837890625,
                        "value": 1
                    },
                    {
                        "number": 64,
                        "time": 137.2808837890625,
                        "value": 1
                    },
                    {
                        "number": 64,
                        "time": 137.6531982421875,
                        "value": 0
                    },
                    {
                        "number": 64,
                        "time": 137.6531982421875,
                        "value": 0
                    },
                    {
                        "number": 64,
                        "time": 137.8125,
                        "value": 1
                    },
                    {
                        "number": 64,
                        "time": 137.8125,
                        "value": 1
                    },
                    {
                        "number": 64,
                        "time": 138.2733154296875,
                        "value": 0
                    },
                    {
                        "number": 64,
                        "time": 138.2733154296875,
                        "value": 0
                    },
                    {
                        "number": 64,
                        "time": 138.5040283203125,
                        "value": 1
                    },
                    {
                        "number": 64,
                        "time": 138.5040283203125,
                        "value": 1
                    },
                    {
                        "number": 64,
                        "time": 138.9471435546875,
                        "value": 0
                    },
                    {
                        "number": 64,
                        "time": 138.9471435546875,
                        "value": 0
                    },
                    {
                        "number": 64,
                        "time": 139.1778564453125,
                        "value": 1
                    },
                    {
                        "number": 64,
                        "time": 139.1778564453125,
                        "value": 1
                    },
                    {
                        "number": 64,
                        "time": 139.4970703125,
                        "value": 0
                    },
                    {
                        "number": 64,
                        "time": 139.4970703125,
                        "value": 0
                    },
                    {
                        "number": 64,
                        "time": 139.7808837890625,
                        "value": 1
                    },
                    {
                        "number": 64,
                        "time": 139.7808837890625,
                        "value": 1
                    },
                    {
                        "number": 64,
                        "time": 140.1531982421875,
                        "value": 0
                    },
                    {
                        "number": 64,
                        "time": 140.1531982421875,
                        "value": 0
                    },
                    {
                        "number": 64,
                        "time": 140.3125,
                        "value": 1
                    },
                    {
                        "number": 64,
                        "time": 140.3125,
                        "value": 1
                    },
                    {
                        "number": 64,
                        "time": 140.7733154296875,
                        "value": 0
                    },
                    {
                        "number": 64,
                        "time": 140.7733154296875,
                        "value": 0
                    },
                    {
                        "number": 64,
                        "time": 141.0040283203125,
                        "value": 1
                    },
                    {
                        "number": 64,
                        "time": 141.0040283203125,
                        "value": 1
                    },
                    {
                        "number": 64,
                        "time": 141.4471435546875,
                        "value": 0
                    },
                    {
                        "number": 64,
                        "time": 141.4471435546875,
                        "value": 0
                    },
                    {
                        "number": 64,
                        "time": 141.6778564453125,
                        "value": 1
                    },
                    {
                        "number": 64,
                        "time": 141.6778564453125,
                        "value": 1
                    },
                    {
                        "number": 64,
                        "time": 141.9970703125,
                        "value": 0
                    },
                    {
                        "number": 64,
                        "time": 141.9970703125,
                        "value": 0
                    },
                    {
                        "number": 64,
                        "time": 142.2808837890625,
                        "value": 1
                    },
                    {
                        "number": 64,
                        "time": 142.2808837890625,
                        "value": 1
                    },
                    {
                        "number": 64,
                        "time": 142.6531982421875,
                        "value": 0
                    },
                    {
                        "number": 64,
                        "time": 142.6531982421875,
                        "value": 0
                    },
                    {
                        "number": 64,
                        "time": 142.8125,
                        "value": 1
                    },
                    {
                        "number": 64,
                        "time": 142.8125,
                        "value": 1
                    },
                    {
                        "number": 64,
                        "time": 143.2733154296875,
                        "value": 0
                    },
                    {
                        "number": 64,
                        "time": 143.2733154296875,
                        "value": 0
                    },
                    {
                        "number": 64,
                        "time": 143.5040283203125,
                        "value": 1
                    },
                    {
                        "number": 64,
                        "time": 143.5040283203125,
                        "value": 1
                    },
                    {
                        "number": 64,
                        "time": 143.9471435546875,
                        "value": 0
                    },
                    {
                        "number": 64,
                        "time": 143.9471435546875,
                        "value": 0
                    },
                    {
                        "number": 64,
                        "time": 144.1778564453125,
                        "value": 1
                    },
                    {
                        "number": 64,
                        "time": 144.1778564453125,
                        "value": 1
                    },
                    {
                        "number": 64,
                        "time": 144.4970703125,
                        "value": 0
                    },
                    {
                        "number": 64,
                        "time": 144.4970703125,
                        "value": 0
                    },
                    {
                        "number": 64,
                        "time": 144.7808837890625,
                        "value": 1
                    },
                    {
                        "number": 64,
                        "time": 144.7808837890625,
                        "value": 1
                    },
                    {
                        "number": 64,
                        "time": 145.1531982421875,
                        "value": 0
                    },
                    {
                        "number": 64,
                        "time": 145.1531982421875,
                        "value": 0
                    },
                    {
                        "number": 64,
                        "time": 145.3125,
                        "value": 1
                    },
                    {
                        "number": 64,
                        "time": 145.3125,
                        "value": 1
                    },
                    {
                        "number": 64,
                        "time": 148.1317138671875,
                        "value": 0
                    },
                    {
                        "number": 64,
                        "time": 148.1317138671875,
                        "value": 0
                    },
                    {
                        "number": 64,
                        "time": 149.0625,
                        "value": 1
                    },
                    {
                        "number": 64,
                        "time": 149.0625,
                        "value": 1
                    },
                    {
                        "number": 64,
                        "time": 151.8817138671875,
                        "value": 0
                    },
                    {
                        "number": 64,
                        "time": 151.8817138671875,
                        "value": 0
                    },
                    {
                        "number": 64,
                        "time": 154.7625732421875,
                        "value": 1
                    },
                    {
                        "number": 64,
                        "time": 154.7625732421875,
                        "value": 1
                    },
                    {
                        "number": 64,
                        "time": 155.30517578125,
                        "value": 0
                    },
                    {
                        "number": 64,
                        "time": 155.30517578125,
                        "value": 0
                    },
                    {
                        "number": 64,
                        "time": 157.244873046875,
                        "value": 1
                    },
                    {
                        "number": 64,
                        "time": 157.244873046875,
                        "value": 1
                    },
                    {
                        "number": 64,
                        "time": 157.80517578125,
                        "value": 0
                    },
                    {
                        "number": 64,
                        "time": 157.80517578125,
                        "value": 0
                    },
                    {
                        "number": 64,
                        "time": 159.744873046875,
                        "value": 1
                    },
                    {
                        "number": 64,
                        "time": 159.744873046875,
                        "value": 1
                    },
                    {
                        "number": 64,
                        "time": 160.30517578125,
                        "value": 0
                    },
                    {
                        "number": 64,
                        "time": 160.30517578125,
                        "value": 0
                    },
                    {
                        "number": 64,
                        "time": 162.244873046875,
                        "value": 1
                    },
                    {
                        "number": 64,
                        "time": 162.244873046875,
                        "value": 1
                    },
                    {
                        "number": 64,
                        "time": 162.8125,
                        "value": 0
                    },
                    {
                        "number": 64,
                        "time": 162.8125,
                        "value": 0
                    },
                    {
                        "number": 64,
                        "time": 162.9010009765625,
                        "value": 1
                    },
                    {
                        "number": 64,
                        "time": 162.9010009765625,
                        "value": 1
                    },
                    {
                        "number": 64,
                        "time": 163.3624267578125,
                        "value": 0
                    },
                    {
                        "number": 64,
                        "time": 163.3624267578125,
                        "value": 0
                    },
                    {
                        "number": 64,
                        "time": 165.3125,
                        "value": 1
                    },
                    {
                        "number": 64,
                        "time": 165.3125,
                        "value": 1
                    },
                    {
                        "number": 64,
                        "time": 165.7025146484375,
                        "value": 0
                    },
                    {
                        "number": 64,
                        "time": 165.7025146484375,
                        "value": 0
                    },
                    {
                        "number": 64,
                        "time": 167.8125,
                        "value": 1
                    },
                    {
                        "number": 64,
                        "time": 167.8125,
                        "value": 1
                    },
                    {
                        "number": 64,
                        "time": 168.2733154296875,
                        "value": 0
                    },
                    {
                        "number": 64,
                        "time": 168.2733154296875,
                        "value": 0
                    },
                    {
                        "number": 64,
                        "time": 168.5040283203125,
                        "value": 1
                    },
                    {
                        "number": 64,
                        "time": 168.5040283203125,
                        "value": 1
                    },
                    {
                        "number": 64,
                        "time": 168.9471435546875,
                        "value": 0
                    },
                    {
                        "number": 64,
                        "time": 168.9471435546875,
                        "value": 0
                    },
                    {
                        "number": 64,
                        "time": 169.1778564453125,
                        "value": 1
                    },
                    {
                        "number": 64,
                        "time": 169.1778564453125,
                        "value": 1
                    },
                    {
                        "number": 64,
                        "time": 169.4970703125,
                        "value": 0
                    },
                    {
                        "number": 64,
                        "time": 169.4970703125,
                        "value": 0
                    },
                    {
                        "number": 64,
                        "time": 169.7808837890625,
                        "value": 1
                    },
                    {
                        "number": 64,
                        "time": 169.7808837890625,
                        "value": 1
                    },
                    {
                        "number": 64,
                        "time": 170.1531982421875,
                        "value": 0
                    },
                    {
                        "number": 64,
                        "time": 170.1531982421875,
                        "value": 0
                    },
                    {
                        "number": 64,
                        "time": 170.3125,
                        "value": 1
                    },
                    {
                        "number": 64,
                        "time": 170.3125,
                        "value": 1
                    },
                    {
                        "number": 64,
                        "time": 170.7733154296875,
                        "value": 0
                    },
                    {
                        "number": 64,
                        "time": 170.7733154296875,
                        "value": 0
                    },
                    {
                        "number": 64,
                        "time": 171.0040283203125,
                        "value": 1
                    },
                    {
                        "number": 64,
                        "time": 171.0040283203125,
                        "value": 1
                    },
                    {
                        "number": 64,
                        "time": 171.4471435546875,
                        "value": 0
                    },
                    {
                        "number": 64,
                        "time": 171.4471435546875,
                        "value": 0
                    },
                    {
                        "number": 64,
                        "time": 171.6778564453125,
                        "value": 1
                    },
                    {
                        "number": 64,
                        "time": 171.6778564453125,
                        "value": 1
                    },
                    {
                        "number": 64,
                        "time": 171.9970703125,
                        "value": 0
                    },
                    {
                        "number": 64,
                        "time": 171.9970703125,
                        "value": 0
                    },
                    {
                        "number": 64,
                        "time": 172.2808837890625,
                        "value": 1
                    },
                    {
                        "number": 64,
                        "time": 172.2808837890625,
                        "value": 1
                    },
                    {
                        "number": 64,
                        "time": 172.6531982421875,
                        "value": 0
                    },
                    {
                        "number": 64,
                        "time": 172.6531982421875,
                        "value": 0
                    },
                    {
                        "number": 64,
                        "time": 172.8125,
                        "value": 1
                    },
                    {
                        "number": 64,
                        "time": 172.8125,
                        "value": 1
                    },
                    {
                        "number": 64,
                        "time": 173.2733154296875,
                        "value": 0
                    },
                    {
                        "number": 64,
                        "time": 173.2733154296875,
                        "value": 0
                    },
                    {
                        "number": 64,
                        "time": 173.5040283203125,
                        "value": 1
                    },
                    {
                        "number": 64,
                        "time": 173.5040283203125,
                        "value": 1
                    },
                    {
                        "number": 64,
                        "time": 173.9471435546875,
                        "value": 0
                    },
                    {
                        "number": 64,
                        "time": 173.9471435546875,
                        "value": 0
                    },
                    {
                        "number": 64,
                        "time": 174.1778564453125,
                        "value": 1
                    },
                    {
                        "number": 64,
                        "time": 174.1778564453125,
                        "value": 1
                    },
                    {
                        "number": 64,
                        "time": 174.4970703125,
                        "value": 0
                    },
                    {
                        "number": 64,
                        "time": 174.4970703125,
                        "value": 0
                    },
                    {
                        "number": 64,
                        "time": 174.7808837890625,
                        "value": 1
                    },
                    {
                        "number": 64,
                        "time": 174.7808837890625,
                        "value": 1
                    },
                    {
                        "number": 64,
                        "time": 175.1531982421875,
                        "value": 0
                    },
                    {
                        "number": 64,
                        "time": 175.1531982421875,
                        "value": 0
                    },
                    {
                        "number": 64,
                        "time": 175.3125,
                        "value": 1
                    },
                    {
                        "number": 64,
                        "time": 175.3125,
                        "value": 1
                    },
                    {
                        "number": 64,
                        "time": 175.7733154296875,
                        "value": 0
                    },
                    {
                        "number": 64,
                        "time": 175.7733154296875,
                        "value": 0
                    },
                    {
                        "number": 64,
                        "time": 176.0040283203125,
                        "value": 1
                    },
                    {
                        "number": 64,
                        "time": 176.0040283203125,
                        "value": 1
                    },
                    {
                        "number": 64,
                        "time": 176.4471435546875,
                        "value": 0
                    },
                    {
                        "number": 64,
                        "time": 176.4471435546875,
                        "value": 0
                    },
                    {
                        "number": 64,
                        "time": 176.6778564453125,
                        "value": 1
                    },
                    {
                        "number": 64,
                        "time": 176.6778564453125,
                        "value": 1
                    },
                    {
                        "number": 64,
                        "time": 176.9970703125,
                        "value": 0
                    },
                    {
                        "number": 64,
                        "time": 176.9970703125,
                        "value": 0
                    },
                    {
                        "number": 64,
                        "time": 177.2808837890625,
                        "value": 1
                    },
                    {
                        "number": 64,
                        "time": 177.2808837890625,
                        "value": 1
                    },
                    {
                        "number": 64,
                        "time": 177.6531982421875,
                        "value": 0
                    },
                    {
                        "number": 64,
                        "time": 177.6531982421875,
                        "value": 0
                    },
                    {
                        "number": 64,
                        "time": 177.8125,
                        "value": 1
                    },
                    {
                        "number": 64,
                        "time": 177.8125,
                        "value": 1
                    },
                    {
                        "number": 64,
                        "time": 180.6317138671875,
                        "value": 0
                    },
                    {
                        "number": 64,
                        "time": 180.6317138671875,
                        "value": 0
                    },
                    {
                        "number": 64,
                        "time": 181.5625,
                        "value": 1
                    },
                    {
                        "number": 64,
                        "time": 181.5625,
                        "value": 1
                    },
                    {
                        "number": 64,
                        "time": 184.3817138671875,
                        "value": 0
                    },
                    {
                        "number": 64,
                        "time": 184.3817138671875,
                        "value": 0
                    },
                    {
                        "number": 64,
                        "time": 187.1112060546875,
                        "value": 1
                    },
                    {
                        "number": 64,
                        "time": 187.1112060546875,
                        "value": 1
                    },
                    {
                        "number": 64,
                        "time": 187.8662109375,
                        "value": 0
                    },
                    {
                        "number": 64,
                        "time": 187.8662109375,
                        "value": 0
                    },
                    {
                        "number": 64,
                        "time": 219.6875,
                        "value": 1
                    },
                    {
                        "number": 64,
                        "time": 219.6875,
                        "value": 1
                    },
                    {
                        "number": 64,
                        "time": 220.1593017578125,
                        "value": 0
                    },
                    {
                        "number": 64,
                        "time": 220.1593017578125,
                        "value": 0
                    },
                    {
                        "number": 64,
                        "time": 221.5625,
                        "value": 1
                    },
                    {
                        "number": 64,
                        "time": 221.5625,
                        "value": 1
                    },
                    {
                        "number": 64,
                        "time": 221.9879150390625,
                        "value": 0
                    },
                    {
                        "number": 64,
                        "time": 221.9879150390625,
                        "value": 0
                    },
                    {
                        "number": 64,
                        "time": 227.1875,
                        "value": 1
                    },
                    {
                        "number": 64,
                        "time": 227.1875,
                        "value": 1
                    },
                    {
                        "number": 64,
                        "time": 227.6129150390625,
                        "value": 0
                    },
                    {
                        "number": 64,
                        "time": 227.6129150390625,
                        "value": 0
                    },
                    {
                        "number": 64,
                        "time": 229.0625,
                        "value": 1
                    },
                    {
                        "number": 64,
                        "time": 229.0625,
                        "value": 1
                    },
                    {
                        "number": 64,
                        "time": 229.4879150390625,
                        "value": 0
                    },
                    {
                        "number": 64,
                        "time": 229.4879150390625,
                        "value": 0
                    },
                    {
                        "number": 64,
                        "time": 230.9375,
                        "value": 1
                    },
                    {
                        "number": 64,
                        "time": 230.9375,
                        "value": 1
                    },
                    {
                        "number": 64,
                        "time": 231.5228271484375,
                        "value": 0
                    },
                    {
                        "number": 64,
                        "time": 231.5228271484375,
                        "value": 0
                    },
                    {
                        "number": 64,
                        "time": 231.961669921875,
                        "value": 1
                    },
                    {
                        "number": 64,
                        "time": 231.961669921875,
                        "value": 1
                    },
                    {
                        "number": 64,
                        "time": 232.4267578125,
                        "value": 0
                    },
                    {
                        "number": 64,
                        "time": 232.4267578125,
                        "value": 0
                    },
                    {
                        "number": 64,
                        "time": 232.8125,
                        "value": 1
                    },
                    {
                        "number": 64,
                        "time": 232.8125,
                        "value": 1
                    },
                    {
                        "number": 64,
                        "time": 233.3978271484375,
                        "value": 0
                    },
                    {
                        "number": 64,
                        "time": 233.3978271484375,
                        "value": 0
                    },
                    {
                        "number": 64,
                        "time": 233.836669921875,
                        "value": 1
                    },
                    {
                        "number": 64,
                        "time": 233.836669921875,
                        "value": 1
                    },
                    {
                        "number": 64,
                        "time": 234.3017578125,
                        "value": 0
                    },
                    {
                        "number": 64,
                        "time": 234.3017578125,
                        "value": 0
                    },
                    {
                        "number": 64,
                        "time": 234.6875,
                        "value": 1
                    },
                    {
                        "number": 64,
                        "time": 234.6875,
                        "value": 1
                    },
                    {
                        "number": 64,
                        "time": 235.1593017578125,
                        "value": 0
                    },
                    {
                        "number": 64,
                        "time": 235.1593017578125,
                        "value": 0
                    },
                    {
                        "number": 64,
                        "time": 236.5625,
                        "value": 1
                    },
                    {
                        "number": 64,
                        "time": 236.5625,
                        "value": 1
                    },
                    {
                        "number": 64,
                        "time": 236.9879150390625,
                        "value": 0
                    },
                    {
                        "number": 64,
                        "time": 236.9879150390625,
                        "value": 0
                    },
                    {
                        "number": 64,
                        "time": 238.4375,
                        "value": 1
                    },
                    {
                        "number": 64,
                        "time": 238.4375,
                        "value": 1
                    },
                    {
                        "number": 64,
                        "time": 239.122314453125,
                        "value": 0
                    },
                    {
                        "number": 64,
                        "time": 239.122314453125,
                        "value": 0
                    },
                    {
                        "number": 64,
                        "time": 239.375,
                        "value": 1
                    },
                    {
                        "number": 64,
                        "time": 239.375,
                        "value": 1
                    },
                    {
                        "number": 64,
                        "time": 240.059814453125,
                        "value": 0
                    },
                    {
                        "number": 64,
                        "time": 240.059814453125,
                        "value": 0
                    },
                    {
                        "number": 64,
                        "time": 240.3125,
                        "value": 1
                    },
                    {
                        "number": 64,
                        "time": 240.3125,
                        "value": 1
                    },
                    {
                        "number": 64,
                        "time": 240.997314453125,
                        "value": 0
                    },
                    {
                        "number": 64,
                        "time": 240.997314453125,
                        "value": 0
                    },
                    {
                        "number": 64,
                        "time": 241.25,
                        "value": 1
                    },
                    {
                        "number": 64,
                        "time": 241.25,
                        "value": 1
                    },
                    {
                        "number": 64,
                        "time": 241.842041015625,
                        "value": 0
                    },
                    {
                        "number": 64,
                        "time": 241.842041015625,
                        "value": 0
                    },
                    {
                        "number": 64,
                        "time": 241.961669921875,
                        "value": 1
                    },
                    {
                        "number": 64,
                        "time": 241.961669921875,
                        "value": 1
                    },
                    {
                        "number": 64,
                        "time": 242.1875,
                        "value": 0
                    },
                    {
                        "number": 64,
                        "time": 242.1875,
                        "value": 0
                    },
                    {
                        "number": 64,
                        "time": 242.293701171875,
                        "value": 1
                    },
                    {
                        "number": 64,
                        "time": 242.293701171875,
                        "value": 1
                    },
                    {
                        "number": 64,
                        "time": 242.9058837890625,
                        "value": 0
                    },
                    {
                        "number": 64,
                        "time": 242.9058837890625,
                        "value": 0
                    },
                    {
                        "number": 64,
                        "time": 243.125,
                        "value": 1
                    },
                    {
                        "number": 64,
                        "time": 243.125,
                        "value": 1
                    },
                    {
                        "number": 64,
                        "time": 243.809814453125,
                        "value": 0
                    },
                    {
                        "number": 64,
                        "time": 243.809814453125,
                        "value": 0
                    },
                    {
                        "number": 64,
                        "time": 244.0625,
                        "value": 1
                    },
                    {
                        "number": 64,
                        "time": 244.0625,
                        "value": 1
                    },
                    {
                        "number": 64,
                        "time": 244.747314453125,
                        "value": 0
                    },
                    {
                        "number": 64,
                        "time": 244.747314453125,
                        "value": 0
                    },
                    {
                        "number": 64,
                        "time": 245,
                        "value": 1
                    },
                    {
                        "number": 64,
                        "time": 245,
                        "value": 1
                    },
                    {
                        "number": 64,
                        "time": 245.684814453125,
                        "value": 0
                    },
                    {
                        "number": 64,
                        "time": 245.684814453125,
                        "value": 0
                    },
                    {
                        "number": 64,
                        "time": 245.98388671875,
                        "value": 1
                    },
                    {
                        "number": 64,
                        "time": 245.98388671875,
                        "value": 1
                    },
                    {
                        "number": 64,
                        "time": 246.7486572265625,
                        "value": 0
                    },
                    {
                        "number": 64,
                        "time": 246.7486572265625,
                        "value": 0
                    },
                    {
                        "number": 64,
                        "time": 273.75,
                        "value": 1
                    },
                    {
                        "number": 64,
                        "time": 273.75,
                        "value": 1
                    },
                    {
                        "number": 64,
                        "time": 274.2999267578125,
                        "value": 0
                    },
                    {
                        "number": 64,
                        "time": 274.2999267578125,
                        "value": 0
                    },
                    {
                        "number": 64,
                        "time": 274.459228515625,
                        "value": 1
                    },
                    {
                        "number": 64,
                        "time": 274.459228515625,
                        "value": 1
                    },
                    {
                        "number": 64,
                        "time": 274.90234375,
                        "value": 0
                    },
                    {
                        "number": 64,
                        "time": 274.90234375,
                        "value": 0
                    },
                    {
                        "number": 64,
                        "time": 275.1153564453125,
                        "value": 1
                    },
                    {
                        "number": 64,
                        "time": 275.1153564453125,
                        "value": 1
                    },
                    {
                        "number": 64,
                        "time": 275.540771484375,
                        "value": 0
                    },
                    {
                        "number": 64,
                        "time": 275.540771484375,
                        "value": 0
                    },
                    {
                        "number": 64,
                        "time": 275.771484375,
                        "value": 1
                    },
                    {
                        "number": 64,
                        "time": 275.771484375,
                        "value": 1
                    },
                    {
                        "number": 64,
                        "time": 276.17919921875,
                        "value": 0
                    },
                    {
                        "number": 64,
                        "time": 276.17919921875,
                        "value": 0
                    },
                    {
                        "number": 64,
                        "time": 276.25,
                        "value": 1
                    },
                    {
                        "number": 64,
                        "time": 276.25,
                        "value": 1
                    },
                    {
                        "number": 64,
                        "time": 276.7999267578125,
                        "value": 0
                    },
                    {
                        "number": 64,
                        "time": 276.7999267578125,
                        "value": 0
                    },
                    {
                        "number": 64,
                        "time": 276.959228515625,
                        "value": 1
                    },
                    {
                        "number": 64,
                        "time": 276.959228515625,
                        "value": 1
                    },
                    {
                        "number": 64,
                        "time": 277.40234375,
                        "value": 0
                    },
                    {
                        "number": 64,
                        "time": 277.40234375,
                        "value": 0
                    },
                    {
                        "number": 64,
                        "time": 277.6153564453125,
                        "value": 1
                    },
                    {
                        "number": 64,
                        "time": 277.6153564453125,
                        "value": 1
                    },
                    {
                        "number": 64,
                        "time": 278.040771484375,
                        "value": 0
                    },
                    {
                        "number": 64,
                        "time": 278.040771484375,
                        "value": 0
                    },
                    {
                        "number": 64,
                        "time": 278.271484375,
                        "value": 1
                    },
                    {
                        "number": 64,
                        "time": 278.271484375,
                        "value": 1
                    },
                    {
                        "number": 64,
                        "time": 278.67919921875,
                        "value": 0
                    },
                    {
                        "number": 64,
                        "time": 278.67919921875,
                        "value": 0
                    },
                    {
                        "number": 64,
                        "time": 278.75,
                        "value": 1
                    },
                    {
                        "number": 64,
                        "time": 278.75,
                        "value": 1
                    },
                    {
                        "number": 64,
                        "time": 279.2999267578125,
                        "value": 0
                    },
                    {
                        "number": 64,
                        "time": 279.2999267578125,
                        "value": 0
                    },
                    {
                        "number": 64,
                        "time": 279.459228515625,
                        "value": 1
                    },
                    {
                        "number": 64,
                        "time": 279.459228515625,
                        "value": 1
                    },
                    {
                        "number": 64,
                        "time": 279.90234375,
                        "value": 0
                    },
                    {
                        "number": 64,
                        "time": 279.90234375,
                        "value": 0
                    },
                    {
                        "number": 64,
                        "time": 280.1153564453125,
                        "value": 1
                    },
                    {
                        "number": 64,
                        "time": 280.1153564453125,
                        "value": 1
                    },
                    {
                        "number": 64,
                        "time": 280.540771484375,
                        "value": 0
                    },
                    {
                        "number": 64,
                        "time": 280.540771484375,
                        "value": 0
                    },
                    {
                        "number": 64,
                        "time": 280.771484375,
                        "value": 1
                    },
                    {
                        "number": 64,
                        "time": 280.771484375,
                        "value": 1
                    },
                    {
                        "number": 64,
                        "time": 281.17919921875,
                        "value": 0
                    },
                    {
                        "number": 64,
                        "time": 281.17919921875,
                        "value": 0
                    },
                    {
                        "number": 64,
                        "time": 281.25,
                        "value": 1
                    },
                    {
                        "number": 64,
                        "time": 281.25,
                        "value": 1
                    },
                    {
                        "number": 64,
                        "time": 281.7999267578125,
                        "value": 0
                    },
                    {
                        "number": 64,
                        "time": 281.7999267578125,
                        "value": 0
                    },
                    {
                        "number": 64,
                        "time": 281.959228515625,
                        "value": 1
                    },
                    {
                        "number": 64,
                        "time": 281.959228515625,
                        "value": 1
                    },
                    {
                        "number": 64,
                        "time": 282.40234375,
                        "value": 0
                    },
                    {
                        "number": 64,
                        "time": 282.40234375,
                        "value": 0
                    },
                    {
                        "number": 64,
                        "time": 282.6153564453125,
                        "value": 1
                    },
                    {
                        "number": 64,
                        "time": 282.6153564453125,
                        "value": 1
                    },
                    {
                        "number": 64,
                        "time": 283.040771484375,
                        "value": 0
                    },
                    {
                        "number": 64,
                        "time": 283.040771484375,
                        "value": 0
                    },
                    {
                        "number": 64,
                        "time": 283.271484375,
                        "value": 1
                    },
                    {
                        "number": 64,
                        "time": 283.271484375,
                        "value": 1
                    },
                    {
                        "number": 64,
                        "time": 283.67919921875,
                        "value": 0
                    },
                    {
                        "number": 64,
                        "time": 283.67919921875,
                        "value": 0
                    },
                    {
                        "number": 64,
                        "time": 316.25,
                        "value": 1
                    },
                    {
                        "number": 64,
                        "time": 316.25,
                        "value": 1
                    },
                    {
                        "number": 64,
                        "time": 316.7218017578125,
                        "value": 0
                    },
                    {
                        "number": 64,
                        "time": 316.7218017578125,
                        "value": 0
                    },
                    {
                        "number": 64,
                        "time": 318.125,
                        "value": 1
                    },
                    {
                        "number": 64,
                        "time": 318.125,
                        "value": 1
                    },
                    {
                        "number": 64,
                        "time": 318.5504150390625,
                        "value": 0
                    },
                    {
                        "number": 64,
                        "time": 318.5504150390625,
                        "value": 0
                    },
                    {
                        "number": 64,
                        "time": 323.75,
                        "value": 1
                    },
                    {
                        "number": 64,
                        "time": 323.75,
                        "value": 1
                    },
                    {
                        "number": 64,
                        "time": 324.1754150390625,
                        "value": 0
                    },
                    {
                        "number": 64,
                        "time": 324.1754150390625,
                        "value": 0
                    },
                    {
                        "number": 64,
                        "time": 325.625,
                        "value": 1
                    },
                    {
                        "number": 64,
                        "time": 325.625,
                        "value": 1
                    },
                    {
                        "number": 64,
                        "time": 326.0504150390625,
                        "value": 0
                    },
                    {
                        "number": 64,
                        "time": 326.0504150390625,
                        "value": 0
                    },
                    {
                        "number": 64,
                        "time": 327.5,
                        "value": 1
                    },
                    {
                        "number": 64,
                        "time": 327.5,
                        "value": 1
                    },
                    {
                        "number": 64,
                        "time": 328.0853271484375,
                        "value": 0
                    },
                    {
                        "number": 64,
                        "time": 328.0853271484375,
                        "value": 0
                    },
                    {
                        "number": 64,
                        "time": 328.524169921875,
                        "value": 1
                    },
                    {
                        "number": 64,
                        "time": 328.524169921875,
                        "value": 1
                    },
                    {
                        "number": 64,
                        "time": 328.9892578125,
                        "value": 0
                    },
                    {
                        "number": 64,
                        "time": 328.9892578125,
                        "value": 0
                    },
                    {
                        "number": 64,
                        "time": 329.375,
                        "value": 1
                    },
                    {
                        "number": 64,
                        "time": 329.375,
                        "value": 1
                    },
                    {
                        "number": 64,
                        "time": 329.9603271484375,
                        "value": 0
                    },
                    {
                        "number": 64,
                        "time": 329.9603271484375,
                        "value": 0
                    },
                    {
                        "number": 64,
                        "time": 330.399169921875,
                        "value": 1
                    },
                    {
                        "number": 64,
                        "time": 330.399169921875,
                        "value": 1
                    },
                    {
                        "number": 64,
                        "time": 330.8642578125,
                        "value": 0
                    },
                    {
                        "number": 64,
                        "time": 330.8642578125,
                        "value": 0
                    },
                    {
                        "number": 64,
                        "time": 331.25,
                        "value": 1
                    },
                    {
                        "number": 64,
                        "time": 331.25,
                        "value": 1
                    },
                    {
                        "number": 64,
                        "time": 331.7218017578125,
                        "value": 0
                    },
                    {
                        "number": 64,
                        "time": 331.7218017578125,
                        "value": 0
                    },
                    {
                        "number": 64,
                        "time": 333.125,
                        "value": 1
                    },
                    {
                        "number": 64,
                        "time": 333.125,
                        "value": 1
                    },
                    {
                        "number": 64,
                        "time": 333.5504150390625,
                        "value": 0
                    },
                    {
                        "number": 64,
                        "time": 333.5504150390625,
                        "value": 0
                    },
                    {
                        "number": 64,
                        "time": 335,
                        "value": 1
                    },
                    {
                        "number": 64,
                        "time": 335,
                        "value": 1
                    },
                    {
                        "number": 64,
                        "time": 335.684814453125,
                        "value": 0
                    },
                    {
                        "number": 64,
                        "time": 335.684814453125,
                        "value": 0
                    },
                    {
                        "number": 64,
                        "time": 335.9375,
                        "value": 1
                    },
                    {
                        "number": 64,
                        "time": 335.9375,
                        "value": 1
                    },
                    {
                        "number": 64,
                        "time": 336.622314453125,
                        "value": 0
                    },
                    {
                        "number": 64,
                        "time": 336.622314453125,
                        "value": 0
                    },
                    {
                        "number": 64,
                        "time": 336.875,
                        "value": 1
                    },
                    {
                        "number": 64,
                        "time": 336.875,
                        "value": 1
                    },
                    {
                        "number": 64,
                        "time": 337.559814453125,
                        "value": 0
                    },
                    {
                        "number": 64,
                        "time": 337.559814453125,
                        "value": 0
                    },
                    {
                        "number": 64,
                        "time": 337.8125,
                        "value": 1
                    },
                    {
                        "number": 64,
                        "time": 337.8125,
                        "value": 1
                    },
                    {
                        "number": 64,
                        "time": 338.404541015625,
                        "value": 0
                    },
                    {
                        "number": 64,
                        "time": 338.404541015625,
                        "value": 0
                    },
                    {
                        "number": 64,
                        "time": 338.524169921875,
                        "value": 1
                    },
                    {
                        "number": 64,
                        "time": 338.524169921875,
                        "value": 1
                    },
                    {
                        "number": 64,
                        "time": 338.75,
                        "value": 0
                    },
                    {
                        "number": 64,
                        "time": 338.75,
                        "value": 0
                    },
                    {
                        "number": 64,
                        "time": 338.856201171875,
                        "value": 1
                    },
                    {
                        "number": 64,
                        "time": 338.856201171875,
                        "value": 1
                    },
                    {
                        "number": 64,
                        "time": 339.4683837890625,
                        "value": 0
                    },
                    {
                        "number": 64,
                        "time": 339.4683837890625,
                        "value": 0
                    },
                    {
                        "number": 64,
                        "time": 339.6875,
                        "value": 1
                    },
                    {
                        "number": 64,
                        "time": 339.6875,
                        "value": 1
                    },
                    {
                        "number": 64,
                        "time": 340.372314453125,
                        "value": 0
                    },
                    {
                        "number": 64,
                        "time": 340.372314453125,
                        "value": 0
                    },
                    {
                        "number": 64,
                        "time": 340.625,
                        "value": 1
                    },
                    {
                        "number": 64,
                        "time": 340.625,
                        "value": 1
                    },
                    {
                        "number": 64,
                        "time": 341.309814453125,
                        "value": 0
                    },
                    {
                        "number": 64,
                        "time": 341.309814453125,
                        "value": 0
                    },
                    {
                        "number": 64,
                        "time": 341.5625,
                        "value": 1
                    },
                    {
                        "number": 64,
                        "time": 341.5625,
                        "value": 1
                    },
                    {
                        "number": 64,
                        "time": 342.247314453125,
                        "value": 0
                    },
                    {
                        "number": 64,
                        "time": 342.247314453125,
                        "value": 0
                    },
                    {
                        "number": 64,
                        "time": 342.54638671875,
                        "value": 1
                    },
                    {
                        "number": 64,
                        "time": 342.54638671875,
                        "value": 1
                    },
                    {
                        "number": 64,
                        "time": 343.3111572265625,
                        "value": 0
                    },
                    {
                        "number": 64,
                        "time": 343.3111572265625,
                        "value": 0
                    },
                    {
                        "number": 64,
                        "time": 370.3125,
                        "value": 1
                    },
                    {
                        "number": 64,
                        "time": 370.3125,
                        "value": 1
                    },
                    {
                        "number": 64,
                        "time": 370.8624267578125,
                        "value": 0
                    },
                    {
                        "number": 64,
                        "time": 370.8624267578125,
                        "value": 0
                    },
                    {
                        "number": 64,
                        "time": 371.021728515625,
                        "value": 1
                    },
                    {
                        "number": 64,
                        "time": 371.021728515625,
                        "value": 1
                    },
                    {
                        "number": 64,
                        "time": 371.46484375,
                        "value": 0
                    },
                    {
                        "number": 64,
                        "time": 371.46484375,
                        "value": 0
                    },
                    {
                        "number": 64,
                        "time": 371.6778564453125,
                        "value": 1
                    },
                    {
                        "number": 64,
                        "time": 371.6778564453125,
                        "value": 1
                    },
                    {
                        "number": 64,
                        "time": 372.103271484375,
                        "value": 0
                    },
                    {
                        "number": 64,
                        "time": 372.103271484375,
                        "value": 0
                    },
                    {
                        "number": 64,
                        "time": 372.333984375,
                        "value": 1
                    },
                    {
                        "number": 64,
                        "time": 372.333984375,
                        "value": 1
                    },
                    {
                        "number": 64,
                        "time": 372.74169921875,
                        "value": 0
                    },
                    {
                        "number": 64,
                        "time": 372.74169921875,
                        "value": 0
                    },
                    {
                        "number": 64,
                        "time": 372.8125,
                        "value": 1
                    },
                    {
                        "number": 64,
                        "time": 372.8125,
                        "value": 1
                    },
                    {
                        "number": 64,
                        "time": 373.3624267578125,
                        "value": 0
                    },
                    {
                        "number": 64,
                        "time": 373.3624267578125,
                        "value": 0
                    },
                    {
                        "number": 64,
                        "time": 373.521728515625,
                        "value": 1
                    },
                    {
                        "number": 64,
                        "time": 373.521728515625,
                        "value": 1
                    },
                    {
                        "number": 64,
                        "time": 373.96484375,
                        "value": 0
                    },
                    {
                        "number": 64,
                        "time": 373.96484375,
                        "value": 0
                    },
                    {
                        "number": 64,
                        "time": 374.1778564453125,
                        "value": 1
                    },
                    {
                        "number": 64,
                        "time": 374.1778564453125,
                        "value": 1
                    },
                    {
                        "number": 64,
                        "time": 374.603271484375,
                        "value": 0
                    },
                    {
                        "number": 64,
                        "time": 374.603271484375,
                        "value": 0
                    },
                    {
                        "number": 64,
                        "time": 374.833984375,
                        "value": 1
                    },
                    {
                        "number": 64,
                        "time": 374.833984375,
                        "value": 1
                    },
                    {
                        "number": 64,
                        "time": 375.24169921875,
                        "value": 0
                    },
                    {
                        "number": 64,
                        "time": 375.24169921875,
                        "value": 0
                    },
                    {
                        "number": 64,
                        "time": 375.3125,
                        "value": 1
                    },
                    {
                        "number": 64,
                        "time": 375.3125,
                        "value": 1
                    },
                    {
                        "number": 64,
                        "time": 375.8624267578125,
                        "value": 0
                    },
                    {
                        "number": 64,
                        "time": 375.8624267578125,
                        "value": 0
                    },
                    {
                        "number": 64,
                        "time": 376.021728515625,
                        "value": 1
                    },
                    {
                        "number": 64,
                        "time": 376.021728515625,
                        "value": 1
                    },
                    {
                        "number": 64,
                        "time": 376.46484375,
                        "value": 0
                    },
                    {
                        "number": 64,
                        "time": 376.46484375,
                        "value": 0
                    },
                    {
                        "number": 64,
                        "time": 376.6778564453125,
                        "value": 1
                    },
                    {
                        "number": 64,
                        "time": 376.6778564453125,
                        "value": 1
                    },
                    {
                        "number": 64,
                        "time": 377.103271484375,
                        "value": 0
                    },
                    {
                        "number": 64,
                        "time": 377.103271484375,
                        "value": 0
                    },
                    {
                        "number": 64,
                        "time": 377.333984375,
                        "value": 1
                    },
                    {
                        "number": 64,
                        "time": 377.333984375,
                        "value": 1
                    },
                    {
                        "number": 64,
                        "time": 377.74169921875,
                        "value": 0
                    },
                    {
                        "number": 64,
                        "time": 377.74169921875,
                        "value": 0
                    },
                    {
                        "number": 64,
                        "time": 377.8125,
                        "value": 1
                    },
                    {
                        "number": 64,
                        "time": 377.8125,
                        "value": 1
                    },
                    {
                        "number": 64,
                        "time": 378.3624267578125,
                        "value": 0
                    },
                    {
                        "number": 64,
                        "time": 378.3624267578125,
                        "value": 0
                    },
                    {
                        "number": 64,
                        "time": 378.521728515625,
                        "value": 1
                    },
                    {
                        "number": 64,
                        "time": 378.521728515625,
                        "value": 1
                    },
                    {
                        "number": 64,
                        "time": 378.96484375,
                        "value": 0
                    },
                    {
                        "number": 64,
                        "time": 378.96484375,
                        "value": 0
                    },
                    {
                        "number": 64,
                        "time": 379.1778564453125,
                        "value": 1
                    },
                    {
                        "number": 64,
                        "time": 379.1778564453125,
                        "value": 1
                    },
                    {
                        "number": 64,
                        "time": 379.603271484375,
                        "value": 0
                    },
                    {
                        "number": 64,
                        "time": 379.603271484375,
                        "value": 0
                    },
                    {
                        "number": 64,
                        "time": 379.833984375,
                        "value": 1
                    },
                    {
                        "number": 64,
                        "time": 379.833984375,
                        "value": 1
                    },
                    {
                        "number": 64,
                        "time": 380.24169921875,
                        "value": 0
                    },
                    {
                        "number": 64,
                        "time": 380.24169921875,
                        "value": 0
                    },
                    {
                        "number": 64,
                        "time": 394.1290283203125,
                        "value": 1
                    },
                    {
                        "number": 64,
                        "time": 394.1290283203125,
                        "value": 1
                    },
                    {
                        "number": 64,
                        "time": 397.21435546875,
                        "value": 0
                    },
                    {
                        "number": 64,
                        "time": 397.21435546875,
                        "value": 0
                    }
                ]
            },
            "id": 1,
            "name": "Instrument  1",
            "instrumentNumber": 0,
            "instrument": "acoustic grand piano",
            "instrumentFamily": "piano",
            "channelNumber": 0,
            "isPercussion": false
        },
        {
            "startTime": 0,
            "duration": 0,
            "length": 0,
            "notes": [],
            "controlChanges": {},
            "id": 2
        }
    ]
}