{
    "header": {
        "PPQ": 480,
        "bpm": 236.0002674669698,
        "timeSignature": [
            3,
            4
        ],
        "name": "=============="
    },
    "startTime": 0,
    "duration": 156.5210090500002,
    "tracks": [
        {
            "startTime": 0,
            "duration": 0,
            "length": 0,
            "notes": [],
            "controlChanges": {},
            "id": 0
        },
        {
            "startTime": 0.0031779624999999996,
            "duration": 156.5210090500002,
            "length": 1069,
            "notes": [
                {
                    "name": "G#4",
                    "midi": 68,
                    "time": 0.0031779624999999996,
                    "velocity": 0.7480314960629921,
                    "duration": 0.16525405
                },
                {
                    "name": "F4",
                    "midi": 65,
                    "time": 0.0031779624999999996,
                    "velocity": 0.7480314960629921,
                    "duration": 0.16525405
                },
                {
                    "name": "G#4",
                    "midi": 68,
                    "time": 0.508474,
                    "velocity": 0.7480314960629921,
                    "duration": 0.16525405000000004
                },
                {
                    "name": "F4",
                    "midi": 65,
                    "time": 0.508474,
                    "velocity": 0.7480314960629921,
                    "duration": 0.16525405000000004
                },
                {
                    "name": "G#4",
                    "midi": 68,
                    "time": 0.762711,
                    "velocity": 0.7480314960629921,
                    "duration": 0.16525405000000004
                },
                {
                    "name": "F4",
                    "midi": 65,
                    "time": 0.762711,
                    "velocity": 0.7480314960629921,
                    "duration": 0.16525405000000004
                },
                {
                    "name": "G#4",
                    "midi": 68,
                    "time": 1.271185,
                    "velocity": 0.7480314960629921,
                    "duration": 0.16525404999999993
                },
                {
                    "name": "F4",
                    "midi": 65,
                    "time": 1.271185,
                    "velocity": 0.7480314960629921,
                    "duration": 0.16525404999999993
                },
                {
                    "name": "G#4",
                    "midi": 68,
                    "time": 1.5254219999999998,
                    "velocity": 0.7480314960629921,
                    "duration": 0.16525404999999993
                },
                {
                    "name": "F4",
                    "midi": 65,
                    "time": 1.5254219999999998,
                    "velocity": 0.7480314960629921,
                    "duration": 0.16525404999999993
                },
                {
                    "name": "G#4",
                    "midi": 68,
                    "time": 2.033896,
                    "velocity": 0.7480314960629921,
                    "duration": 0.16525405000000015
                },
                {
                    "name": "F4",
                    "midi": 65,
                    "time": 2.033896,
                    "velocity": 0.7480314960629921,
                    "duration": 0.16525405000000015
                },
                {
                    "name": "G#4",
                    "midi": 68,
                    "time": 2.288133,
                    "velocity": 0.7480314960629921,
                    "duration": 0.16525405000000015
                },
                {
                    "name": "F4",
                    "midi": 65,
                    "time": 2.288133,
                    "velocity": 0.7480314960629921,
                    "duration": 0.16525405000000015
                },
                {
                    "name": "G#4",
                    "midi": 68,
                    "time": 2.7966070000000003,
                    "velocity": 0.7480314960629921,
                    "duration": 0.16525405000000015
                },
                {
                    "name": "F4",
                    "midi": 65,
                    "time": 2.7966070000000003,
                    "velocity": 0.7480314960629921,
                    "duration": 0.16525405000000015
                },
                {
                    "name": "G#4",
                    "midi": 68,
                    "time": 3.0508440000000006,
                    "velocity": 0.7480314960629921,
                    "duration": 0.16525405000000015
                },
                {
                    "name": "F4",
                    "midi": 65,
                    "time": 3.0508440000000006,
                    "velocity": 0.7480314960629921,
                    "duration": 0.16525405000000015
                },
                {
                    "name": "F4",
                    "midi": 65,
                    "time": 3.305081000000001,
                    "velocity": 0.7480314960629921,
                    "duration": 0.16525405000000015
                },
                {
                    "name": "G#4",
                    "midi": 68,
                    "time": 3.305081000000001,
                    "velocity": 0.7480314960629921,
                    "duration": 0.16525405000000015
                },
                {
                    "name": "F4",
                    "midi": 65,
                    "time": 3.559318000000001,
                    "velocity": 0.7480314960629921,
                    "duration": 0.16525405000000015
                },
                {
                    "name": "G#4",
                    "midi": 68,
                    "time": 3.559318000000001,
                    "velocity": 0.7480314960629921,
                    "duration": 0.16525405000000015
                },
                {
                    "name": "G#4",
                    "midi": 68,
                    "time": 3.8135550000000014,
                    "velocity": 0.7480314960629921,
                    "duration": 0.16525405000000015
                },
                {
                    "name": "F4",
                    "midi": 65,
                    "time": 3.8135550000000014,
                    "velocity": 0.7480314960629921,
                    "duration": 0.16525405000000015
                },
                {
                    "name": "F4",
                    "midi": 65,
                    "time": 4.067792000000002,
                    "velocity": 0.7480314960629921,
                    "duration": 0.1652540499999997
                },
                {
                    "name": "G#4",
                    "midi": 68,
                    "time": 4.067792000000002,
                    "velocity": 0.7480314960629921,
                    "duration": 0.1652540499999997
                },
                {
                    "name": "F4",
                    "midi": 65,
                    "time": 4.3220290000000015,
                    "velocity": 0.7480314960629921,
                    "duration": 0.1652540499999997
                },
                {
                    "name": "G#4",
                    "midi": 68,
                    "time": 4.3220290000000015,
                    "velocity": 0.7480314960629921,
                    "duration": 0.1652540499999997
                },
                {
                    "name": "F4",
                    "midi": 65,
                    "time": 4.576266000000001,
                    "velocity": 0.7480314960629921,
                    "duration": 0.1652540499999997
                },
                {
                    "name": "A#4",
                    "midi": 70,
                    "time": 4.576266000000001,
                    "velocity": 0.7480314960629921,
                    "duration": 0.1652540499999997
                },
                {
                    "name": "F4",
                    "midi": 65,
                    "time": 4.830503000000001,
                    "velocity": 0.7480314960629921,
                    "duration": 0.1652540499999997
                },
                {
                    "name": "A#4",
                    "midi": 70,
                    "time": 4.830503000000001,
                    "velocity": 0.7480314960629921,
                    "duration": 0.1652540499999997
                },
                {
                    "name": "F4",
                    "midi": 65,
                    "time": 5.084740000000001,
                    "velocity": 0.7480314960629921,
                    "duration": 0.1652540499999997
                },
                {
                    "name": "G#4",
                    "midi": 68,
                    "time": 5.084740000000001,
                    "velocity": 0.7480314960629921,
                    "duration": 0.1652540499999997
                },
                {
                    "name": "F4",
                    "midi": 65,
                    "time": 5.338977000000001,
                    "velocity": 0.7480314960629921,
                    "duration": 0.1652540499999997
                },
                {
                    "name": "A#4",
                    "midi": 70,
                    "time": 5.338977000000001,
                    "velocity": 0.7480314960629921,
                    "duration": 0.1652540499999997
                },
                {
                    "name": "F4",
                    "midi": 65,
                    "time": 5.593214000000001,
                    "velocity": 0.7480314960629921,
                    "duration": 0.1652540499999997
                },
                {
                    "name": "A#4",
                    "midi": 70,
                    "time": 5.593214000000001,
                    "velocity": 0.7480314960629921,
                    "duration": 0.1652540499999997
                },
                {
                    "name": "F4",
                    "midi": 65,
                    "time": 5.847451,
                    "velocity": 0.7480314960629921,
                    "duration": 0.1652540499999997
                },
                {
                    "name": "G#4",
                    "midi": 68,
                    "time": 5.847451,
                    "velocity": 0.7480314960629921,
                    "duration": 0.1652540499999997
                },
                {
                    "name": "F4",
                    "midi": 65,
                    "time": 6.101688,
                    "velocity": 0.7480314960629921,
                    "duration": 0.1652540499999997
                },
                {
                    "name": "A#4",
                    "midi": 70,
                    "time": 6.101688,
                    "velocity": 0.7480314960629921,
                    "duration": 0.1652540499999997
                },
                {
                    "name": "F4",
                    "midi": 65,
                    "time": 6.355925,
                    "velocity": 0.7480314960629921,
                    "duration": 0.1652540499999997
                },
                {
                    "name": "A#4",
                    "midi": 70,
                    "time": 6.355925,
                    "velocity": 0.7480314960629921,
                    "duration": 0.1652540499999997
                },
                {
                    "name": "F4",
                    "midi": 65,
                    "time": 6.610162,
                    "velocity": 0.7480314960629921,
                    "duration": 0.1652540499999997
                },
                {
                    "name": "G#4",
                    "midi": 68,
                    "time": 6.610162,
                    "velocity": 0.7480314960629921,
                    "duration": 0.1652540499999997
                },
                {
                    "name": "A#4",
                    "midi": 70,
                    "time": 6.864399,
                    "velocity": 0.7480314960629921,
                    "duration": 0.1652540499999997
                },
                {
                    "name": "F4",
                    "midi": 65,
                    "time": 6.864399,
                    "velocity": 0.7480314960629921,
                    "duration": 0.1652540499999997
                },
                {
                    "name": "G#4",
                    "midi": 68,
                    "time": 7.1186359999999995,
                    "velocity": 0.7480314960629921,
                    "duration": 0.1271184999999999
                },
                {
                    "name": "F4",
                    "midi": 65,
                    "time": 7.1186359999999995,
                    "velocity": 0.7480314960629921,
                    "duration": 0.2542369999999998
                },
                {
                    "name": "A#4",
                    "midi": 70,
                    "time": 7.245754499999999,
                    "velocity": 0.7480314960629921,
                    "duration": 0.1271184999999999
                },
                {
                    "name": "G#4",
                    "midi": 68,
                    "time": 7.372872999999999,
                    "velocity": 0.7480314960629921,
                    "duration": 0.1271184999999999
                },
                {
                    "name": "F4",
                    "midi": 65,
                    "time": 7.372872999999999,
                    "velocity": 0.7480314960629921,
                    "duration": 0.2542369999999998
                },
                {
                    "name": "A#4",
                    "midi": 70,
                    "time": 7.499991499999999,
                    "velocity": 0.7480314960629921,
                    "duration": 0.1271184999999999
                },
                {
                    "name": "F4",
                    "midi": 65,
                    "time": 7.627109999999999,
                    "velocity": 0.7480314960629921,
                    "duration": 0.1652540499999997
                },
                {
                    "name": "B4",
                    "midi": 71,
                    "time": 7.627109999999999,
                    "velocity": 0.7480314960629921,
                    "duration": 0.1652540499999997
                },
                {
                    "name": "F4",
                    "midi": 65,
                    "time": 7.881346999999999,
                    "velocity": 0.7480314960629921,
                    "duration": 0.1652540500000006
                },
                {
                    "name": "B4",
                    "midi": 71,
                    "time": 7.881346999999999,
                    "velocity": 0.7480314960629921,
                    "duration": 0.1652540500000006
                },
                {
                    "name": "F4",
                    "midi": 65,
                    "time": 8.135584,
                    "velocity": 0.7480314960629921,
                    "duration": 0.1652540499999997
                },
                {
                    "name": "A#4",
                    "midi": 70,
                    "time": 8.135584,
                    "velocity": 0.7480314960629921,
                    "duration": 0.1652540499999997
                },
                {
                    "name": "F4",
                    "midi": 65,
                    "time": 8.389821,
                    "velocity": 0.7480314960629921,
                    "duration": 0.1652540499999997
                },
                {
                    "name": "G#4",
                    "midi": 68,
                    "time": 8.389821,
                    "velocity": 0.7480314960629921,
                    "duration": 0.1652540499999997
                },
                {
                    "name": "F4",
                    "midi": 65,
                    "time": 8.644058,
                    "velocity": 0.7480314960629921,
                    "duration": 0.2542369999999998
                },
                {
                    "name": "G#4",
                    "midi": 68,
                    "time": 8.644058,
                    "velocity": 0.7480314960629921,
                    "duration": 0.1271184999999999
                },
                {
                    "name": "A#4",
                    "midi": 70,
                    "time": 8.7711765,
                    "velocity": 0.7480314960629921,
                    "duration": 0.1271184999999999
                },
                {
                    "name": "G#4",
                    "midi": 68,
                    "time": 8.898295,
                    "velocity": 0.7480314960629921,
                    "duration": 0.1271184999999999
                },
                {
                    "name": "F4",
                    "midi": 65,
                    "time": 8.898295,
                    "velocity": 0.7480314960629921,
                    "duration": 0.2542369999999998
                },
                {
                    "name": "A#4",
                    "midi": 70,
                    "time": 9.025413499999999,
                    "velocity": 0.7480314960629921,
                    "duration": 0.1271184999999999
                },
                {
                    "name": "B4",
                    "midi": 71,
                    "time": 9.152531999999999,
                    "velocity": 0.7480314960629921,
                    "duration": 0.1652540499999997
                },
                {
                    "name": "F4",
                    "midi": 65,
                    "time": 9.152531999999999,
                    "velocity": 0.7480314960629921,
                    "duration": 0.1652540499999997
                },
                {
                    "name": "B4",
                    "midi": 71,
                    "time": 9.406768999999999,
                    "velocity": 0.7480314960629921,
                    "duration": 0.1652540499999997
                },
                {
                    "name": "F4",
                    "midi": 65,
                    "time": 9.406768999999999,
                    "velocity": 0.7480314960629921,
                    "duration": 0.1652540499999997
                },
                {
                    "name": "A#4",
                    "midi": 70,
                    "time": 9.661005999999999,
                    "velocity": 0.7480314960629921,
                    "duration": 0.1652540499999997
                },
                {
                    "name": "F4",
                    "midi": 65,
                    "time": 9.661005999999999,
                    "velocity": 0.7480314960629921,
                    "duration": 0.1652540499999997
                },
                {
                    "name": "F4",
                    "midi": 65,
                    "time": 9.915242999999998,
                    "velocity": 0.7480314960629921,
                    "duration": 0.1652540499999997
                },
                {
                    "name": "G#4",
                    "midi": 68,
                    "time": 9.915242999999998,
                    "velocity": 0.7480314960629921,
                    "duration": 0.1652540499999997
                },
                {
                    "name": "F#4",
                    "midi": 66,
                    "time": 10.169479999999998,
                    "velocity": 0.7480314960629921,
                    "duration": 0.1271184999999999
                },
                {
                    "name": "F4",
                    "midi": 65,
                    "time": 10.296598499999998,
                    "velocity": 0.7480314960629921,
                    "duration": 0.1271184999999999
                },
                {
                    "name": "F4",
                    "midi": 65,
                    "time": 10.423716999999998,
                    "velocity": 0.7480314960629921,
                    "duration": 0.1271184999999999
                },
                {
                    "name": "F#4",
                    "midi": 66,
                    "time": 10.550835499999998,
                    "velocity": 0.7480314960629921,
                    "duration": 0.1271184999999999
                },
                {
                    "name": "G4",
                    "midi": 67,
                    "time": 10.677953999999998,
                    "velocity": 0.8661417322834646,
                    "duration": 0.2542369999999998
                },
                {
                    "name": "D4",
                    "midi": 62,
                    "time": 10.932190999999998,
                    "velocity": 0.7480314960629921,
                    "duration": 0.1652540499999997
                },
                {
                    "name": "D4",
                    "midi": 62,
                    "time": 11.186427999999998,
                    "velocity": 0.7480314960629921,
                    "duration": 0.1652540499999997
                },
                {
                    "name": "G#4",
                    "midi": 68,
                    "time": 11.440664999999997,
                    "velocity": 0.8661417322834646,
                    "duration": 0.2542369999999998
                },
                {
                    "name": "C#4",
                    "midi": 61,
                    "time": 11.694901999999997,
                    "velocity": 0.7480314960629921,
                    "duration": 0.1652540499999997
                },
                {
                    "name": "C#4",
                    "midi": 61,
                    "time": 11.949138999999997,
                    "velocity": 0.7480314960629921,
                    "duration": 0.1652540499999997
                },
                {
                    "name": "G5",
                    "midi": 79,
                    "time": 12.203375999999997,
                    "velocity": 0.7480314960629921,
                    "duration": 0.12499985833333405
                },
                {
                    "name": "F#5",
                    "midi": 78,
                    "time": 12.330494499999997,
                    "velocity": 0.7480314960629921,
                    "duration": 0.12499985833333405
                },
                {
                    "name": "G5",
                    "midi": 79,
                    "time": 12.457612999999997,
                    "velocity": 0.7480314960629921,
                    "duration": 0.12499985833333405
                },
                {
                    "name": "G#5",
                    "midi": 80,
                    "time": 12.584731499999997,
                    "velocity": 0.7480314960629921,
                    "duration": 0.12499985833333405
                },
                {
                    "name": "A#5",
                    "midi": 82,
                    "time": 12.711849999999997,
                    "velocity": 0.7480314960629921,
                    "duration": 0.12499985833333405
                },
                {
                    "name": "C6",
                    "midi": 84,
                    "time": 12.838968499999996,
                    "velocity": 0.7480314960629921,
                    "duration": 0.12499985833333405
                },
                {
                    "name": "A#5",
                    "midi": 82,
                    "time": 12.966086999999996,
                    "velocity": 0.7480314960629921,
                    "duration": 0.12499985833333405
                },
                {
                    "name": "G#5",
                    "midi": 80,
                    "time": 13.093205499999996,
                    "velocity": 0.7480314960629921,
                    "duration": 0.12499985833333405
                },
                {
                    "name": "A#5",
                    "midi": 82,
                    "time": 13.220323999999996,
                    "velocity": 0.7480314960629921,
                    "duration": 0.12499985833333405
                },
                {
                    "name": "G#5",
                    "midi": 80,
                    "time": 13.347442499999996,
                    "velocity": 0.7480314960629921,
                    "duration": 0.12499985833333405
                },
                {
                    "name": "F5",
                    "midi": 77,
                    "time": 13.474560999999996,
                    "velocity": 0.7480314960629921,
                    "duration": 0.12499985833333405
                },
                {
                    "name": "F#5",
                    "midi": 78,
                    "time": 13.601679499999996,
                    "velocity": 0.7480314960629921,
                    "duration": 0.12499985833333405
                },
                {
                    "name": "G5",
                    "midi": 79,
                    "time": 13.728797999999996,
                    "velocity": 0.7480314960629921,
                    "duration": 0.12499985833333405
                },
                {
                    "name": "F#5",
                    "midi": 78,
                    "time": 13.855916499999996,
                    "velocity": 0.7480314960629921,
                    "duration": 0.12499985833333405
                },
                {
                    "name": "G5",
                    "midi": 79,
                    "time": 13.983034999999996,
                    "velocity": 0.7480314960629921,
                    "duration": 0.12499985833333405
                },
                {
                    "name": "G#5",
                    "midi": 80,
                    "time": 14.110153499999996,
                    "velocity": 0.7480314960629921,
                    "duration": 0.12499985833333405
                },
                {
                    "name": "A#5",
                    "midi": 82,
                    "time": 14.237271999999995,
                    "velocity": 0.7480314960629921,
                    "duration": 0.12499985833333405
                },
                {
                    "name": "C6",
                    "midi": 84,
                    "time": 14.364390499999995,
                    "velocity": 0.7480314960629921,
                    "duration": 0.12499985833333405
                },
                {
                    "name": "A#5",
                    "midi": 82,
                    "time": 14.491508999999995,
                    "velocity": 0.7480314960629921,
                    "duration": 0.12499985833333405
                },
                {
                    "name": "G#5",
                    "midi": 80,
                    "time": 14.618627499999995,
                    "velocity": 0.7480314960629921,
                    "duration": 0.12499985833333405
                },
                {
                    "name": "A#5",
                    "midi": 82,
                    "time": 14.745745999999995,
                    "velocity": 0.7480314960629921,
                    "duration": 0.12499985833333405
                },
                {
                    "name": "G#5",
                    "midi": 80,
                    "time": 14.872864499999995,
                    "velocity": 0.7480314960629921,
                    "duration": 0.12499985833333405
                },
                {
                    "name": "F5",
                    "midi": 77,
                    "time": 14.999982999999995,
                    "velocity": 0.7480314960629921,
                    "duration": 0.2542369999999998
                },
                {
                    "name": "C6",
                    "midi": 84,
                    "time": 15.254219999999995,
                    "velocity": 0.7480314960629921,
                    "duration": 0.5084739999999996
                },
                {
                    "name": "C5",
                    "midi": 72,
                    "time": 15.254219999999995,
                    "velocity": 0.7480314960629921,
                    "duration": 0.5084739999999996
                },
                {
                    "name": "C#6",
                    "midi": 85,
                    "time": 15.762693999999994,
                    "velocity": 0.7480314960629921,
                    "duration": 0.2542370000000016
                },
                {
                    "name": "C#5",
                    "midi": 73,
                    "time": 15.762693999999994,
                    "velocity": 0.7480314960629921,
                    "duration": 0.2542370000000016
                },
                {
                    "name": "D#6",
                    "midi": 87,
                    "time": 16.016930999999996,
                    "velocity": 0.7480314960629921,
                    "duration": 0.2542369999999998
                },
                {
                    "name": "D#5",
                    "midi": 75,
                    "time": 16.016930999999996,
                    "velocity": 0.7480314960629921,
                    "duration": 0.2542369999999998
                },
                {
                    "name": "A#5",
                    "midi": 82,
                    "time": 16.271167999999996,
                    "velocity": 0.905511811023622,
                    "duration": 0.2542369999999998
                },
                {
                    "name": "A#4",
                    "midi": 70,
                    "time": 16.271167999999996,
                    "velocity": 0.905511811023622,
                    "duration": 0.2542369999999998
                },
                {
                    "name": "C6",
                    "midi": 84,
                    "time": 16.525404999999996,
                    "velocity": 0.905511811023622,
                    "duration": 0.2542369999999998
                },
                {
                    "name": "C5",
                    "midi": 72,
                    "time": 16.525404999999996,
                    "velocity": 0.905511811023622,
                    "duration": 0.2542369999999998
                },
                {
                    "name": "C#6",
                    "midi": 85,
                    "time": 16.779641999999996,
                    "velocity": 0.905511811023622,
                    "duration": 0.2542369999999998
                },
                {
                    "name": "C#5",
                    "midi": 73,
                    "time": 16.779641999999996,
                    "velocity": 0.905511811023622,
                    "duration": 0.2542369999999998
                },
                {
                    "name": "C6",
                    "midi": 84,
                    "time": 17.033878999999995,
                    "velocity": 0.7480314960629921,
                    "duration": 0.08262702500000074
                },
                {
                    "name": "G#5",
                    "midi": 80,
                    "time": 17.033878999999995,
                    "velocity": 0.7480314960629921,
                    "duration": 0.08262702500000074
                },
                {
                    "name": "A#5",
                    "midi": 82,
                    "time": 17.160997499999997,
                    "velocity": 0.7480314960629921,
                    "duration": 0.08262702500000074
                },
                {
                    "name": "F#5",
                    "midi": 78,
                    "time": 17.160997499999997,
                    "velocity": 0.7480314960629921,
                    "duration": 0.08262702500000074
                },
                {
                    "name": "G#5",
                    "midi": 80,
                    "time": 17.288116,
                    "velocity": 0.7480314960629921,
                    "duration": 0.08262702500000074
                },
                {
                    "name": "F5",
                    "midi": 77,
                    "time": 17.288116,
                    "velocity": 0.7480314960629921,
                    "duration": 0.08262702500000074
                },
                {
                    "name": "F#5",
                    "midi": 78,
                    "time": 17.4152345,
                    "velocity": 0.7480314960629921,
                    "duration": 0.08262702500000074
                },
                {
                    "name": "D#5",
                    "midi": 75,
                    "time": 17.4152345,
                    "velocity": 0.7480314960629921,
                    "duration": 0.08262702500000074
                },
                {
                    "name": "D5",
                    "midi": 74,
                    "time": 17.542353000000002,
                    "velocity": 0.7480314960629921,
                    "duration": 0.16525405000000148
                },
                {
                    "name": "F5",
                    "midi": 77,
                    "time": 17.542353000000002,
                    "velocity": 0.7480314960629921,
                    "duration": 0.16525405000000148
                },
                {
                    "name": "F5",
                    "midi": 77,
                    "time": 17.796590000000002,
                    "velocity": 0.7637795275590551,
                    "duration": 0.16525405000000148
                },
                {
                    "name": "D5",
                    "midi": 74,
                    "time": 17.796590000000002,
                    "velocity": 0.7637795275590551,
                    "duration": 0.16525405000000148
                },
                {
                    "name": "E5",
                    "midi": 76,
                    "time": 18.050827,
                    "velocity": 0.7795275590551181,
                    "duration": 0.16525405000000148
                },
                {
                    "name": "A4",
                    "midi": 69,
                    "time": 18.050827,
                    "velocity": 0.7795275590551181,
                    "duration": 0.16525405000000148
                },
                {
                    "name": "D5",
                    "midi": 74,
                    "time": 18.305064,
                    "velocity": 0.7952755905511811,
                    "duration": 0.16525405000000148
                },
                {
                    "name": "F5",
                    "midi": 77,
                    "time": 18.305064,
                    "velocity": 0.7952755905511811,
                    "duration": 0.16525405000000148
                },
                {
                    "name": "F5",
                    "midi": 77,
                    "time": 18.559301,
                    "velocity": 0.8110236220472441,
                    "duration": 0.16525405000000148
                },
                {
                    "name": "D5",
                    "midi": 74,
                    "time": 18.559301,
                    "velocity": 0.8110236220472441,
                    "duration": 0.16525405000000148
                },
                {
                    "name": "D#5",
                    "midi": 75,
                    "time": 18.813538,
                    "velocity": 0.8267716535433071,
                    "duration": 0.16525405000000148
                },
                {
                    "name": "G#4",
                    "midi": 68,
                    "time": 18.813538,
                    "velocity": 0.8267716535433071,
                    "duration": 0.16525405000000148
                },
                {
                    "name": "D5",
                    "midi": 74,
                    "time": 19.067775,
                    "velocity": 0.84251968503937,
                    "duration": 0.16525405000000148
                },
                {
                    "name": "F5",
                    "midi": 77,
                    "time": 19.067775,
                    "velocity": 0.84251968503937,
                    "duration": 0.16525405000000148
                },
                {
                    "name": "D5",
                    "midi": 74,
                    "time": 19.322012,
                    "velocity": 0.8582677165354331,
                    "duration": 0.16525405000000148
                },
                {
                    "name": "G4",
                    "midi": 67,
                    "time": 19.322012,
                    "velocity": 0.8582677165354331,
                    "duration": 0.16525405000000148
                },
                {
                    "name": "F5",
                    "midi": 77,
                    "time": 19.576249,
                    "velocity": 0.8740157480314961,
                    "duration": 0.16525405000000148
                },
                {
                    "name": "D5",
                    "midi": 74,
                    "time": 19.576249,
                    "velocity": 0.8740157480314961,
                    "duration": 0.16525405000000148
                },
                {
                    "name": "F#4",
                    "midi": 66,
                    "time": 19.830486,
                    "velocity": 0.889763779527559,
                    "duration": 0.16525405000000148
                },
                {
                    "name": "C#5",
                    "midi": 73,
                    "time": 19.830486,
                    "velocity": 0.889763779527559,
                    "duration": 0.16525405000000148
                },
                {
                    "name": "F5",
                    "midi": 77,
                    "time": 20.084723,
                    "velocity": 0.905511811023622,
                    "duration": 0.16525405000000148
                },
                {
                    "name": "D5",
                    "midi": 74,
                    "time": 20.084723,
                    "velocity": 0.905511811023622,
                    "duration": 0.16525405000000148
                },
                {
                    "name": "F3",
                    "midi": 53,
                    "time": 20.33896,
                    "velocity": 0.905511811023622,
                    "duration": 0.16525405000000148
                },
                {
                    "name": "A#3",
                    "midi": 58,
                    "time": 20.593197,
                    "velocity": 0.9921259842519685,
                    "duration": 0.3813555000000015
                },
                {
                    "name": "C4",
                    "midi": 60,
                    "time": 20.9745525,
                    "velocity": 0.905511811023622,
                    "duration": 0.1271185000000017
                },
                {
                    "name": "C#4",
                    "midi": 61,
                    "time": 21.101671000000003,
                    "velocity": 0.905511811023622,
                    "duration": 0.1271185000000017
                },
                {
                    "name": "D#4",
                    "midi": 63,
                    "time": 21.228789500000005,
                    "velocity": 0.905511811023622,
                    "duration": 0.1271185000000017
                },
                {
                    "name": "F4",
                    "midi": 65,
                    "time": 21.355908000000007,
                    "velocity": 0.905511811023622,
                    "duration": 0.1271185000000017
                },
                {
                    "name": "F#4",
                    "midi": 66,
                    "time": 21.48302650000001,
                    "velocity": 0.905511811023622,
                    "duration": 0.1271185000000017
                },
                {
                    "name": "G#4",
                    "midi": 68,
                    "time": 21.61014500000001,
                    "velocity": 0.905511811023622,
                    "duration": 0.1271185000000017
                },
                {
                    "name": "A#4",
                    "midi": 70,
                    "time": 21.73726350000001,
                    "velocity": 0.905511811023622,
                    "duration": 0.1271185000000017
                },
                {
                    "name": "C5",
                    "midi": 72,
                    "time": 21.864382000000013,
                    "velocity": 0.905511811023622,
                    "duration": 0.1271185000000017
                },
                {
                    "name": "C#5",
                    "midi": 73,
                    "time": 21.991500500000015,
                    "velocity": 0.905511811023622,
                    "duration": 0.1271185000000017
                },
                {
                    "name": "C5",
                    "midi": 72,
                    "time": 22.118619000000017,
                    "velocity": 0.905511811023622,
                    "duration": 0.3813555000000015
                },
                {
                    "name": "F4",
                    "midi": 65,
                    "time": 22.499974500000018,
                    "velocity": 0.905511811023622,
                    "duration": 0.1271185000000017
                },
                {
                    "name": "C5",
                    "midi": 72,
                    "time": 22.62709300000002,
                    "velocity": 0.905511811023622,
                    "duration": 0.1271185000000017
                },
                {
                    "name": "C#5",
                    "midi": 73,
                    "time": 22.75421150000002,
                    "velocity": 0.905511811023622,
                    "duration": 0.1271185000000017
                },
                {
                    "name": "C5",
                    "midi": 72,
                    "time": 22.881330000000023,
                    "velocity": 0.905511811023622,
                    "duration": 0.3813555000000015
                },
                {
                    "name": "F4",
                    "midi": 65,
                    "time": 23.262685500000025,
                    "velocity": 0.905511811023622,
                    "duration": 0.1271185000000017
                },
                {
                    "name": "C5",
                    "midi": 72,
                    "time": 23.389804000000026,
                    "velocity": 0.905511811023622,
                    "duration": 0.1271185000000017
                },
                {
                    "name": "C#5",
                    "midi": 73,
                    "time": 23.516922500000028,
                    "velocity": 0.905511811023622,
                    "duration": 0.1271185000000017
                },
                {
                    "name": "D#5",
                    "midi": 75,
                    "time": 23.64404100000003,
                    "velocity": 0.905511811023622,
                    "duration": 0.3813555000000015
                },
                {
                    "name": "C#5",
                    "midi": 73,
                    "time": 24.02539650000003,
                    "velocity": 0.905511811023622,
                    "duration": 0.1271185000000017
                },
                {
                    "name": "C5",
                    "midi": 72,
                    "time": 24.152515000000033,
                    "velocity": 0.905511811023622,
                    "duration": 0.1271185000000017
                },
                {
                    "name": "A#4",
                    "midi": 70,
                    "time": 24.279633500000035,
                    "velocity": 0.905511811023622,
                    "duration": 0.1271185000000017
                },
                {
                    "name": "G#4",
                    "midi": 68,
                    "time": 24.406752000000036,
                    "velocity": 0.905511811023622,
                    "duration": 0.1271185000000017
                },
                {
                    "name": "A#4",
                    "midi": 70,
                    "time": 24.533870500000038,
                    "velocity": 0.905511811023622,
                    "duration": 0.1271185000000017
                },
                {
                    "name": "C5",
                    "midi": 72,
                    "time": 24.66098900000004,
                    "velocity": 0.905511811023622,
                    "duration": 0.1271185000000017
                },
                {
                    "name": "A#4",
                    "midi": 70,
                    "time": 24.78810750000004,
                    "velocity": 0.905511811023622,
                    "duration": 0.1271185000000017
                },
                {
                    "name": "G#4",
                    "midi": 68,
                    "time": 24.915226000000043,
                    "velocity": 0.905511811023622,
                    "duration": 0.1271185000000017
                },
                {
                    "name": "F#4",
                    "midi": 66,
                    "time": 25.042344500000045,
                    "velocity": 0.905511811023622,
                    "duration": 0.1271185000000017
                },
                {
                    "name": "F4",
                    "midi": 65,
                    "time": 25.169463000000047,
                    "velocity": 0.9606299212598425,
                    "duration": 0.3813555000000015
                },
                {
                    "name": "C4",
                    "midi": 60,
                    "time": 25.550818500000048,
                    "velocity": 0.7874015748031497,
                    "duration": 0.1271185000000017
                },
                {
                    "name": "F4",
                    "midi": 65,
                    "time": 25.67793700000005,
                    "velocity": 0.84251968503937,
                    "duration": 0.1271185000000017
                },
                {
                    "name": "F#4",
                    "midi": 66,
                    "time": 25.80505550000005,
                    "velocity": 0.905511811023622,
                    "duration": 0.1271185000000017
                },
                {
                    "name": "F4",
                    "midi": 65,
                    "time": 25.932174000000053,
                    "velocity": 0.9921259842519685,
                    "duration": 0.3813555000000015
                },
                {
                    "name": "C4",
                    "midi": 60,
                    "time": 26.313529500000055,
                    "velocity": 0.8503937007874016,
                    "duration": 0.1271185000000017
                },
                {
                    "name": "F4",
                    "midi": 65,
                    "time": 26.440648000000056,
                    "velocity": 0.8503937007874016,
                    "duration": 0.1271185000000017
                },
                {
                    "name": "G#4",
                    "midi": 68,
                    "time": 26.567766500000058,
                    "velocity": 0.8503937007874016,
                    "duration": 0.1271185000000017
                },
                {
                    "name": "F#4",
                    "midi": 66,
                    "time": 26.69488500000006,
                    "velocity": 0.8503937007874016,
                    "duration": 0.5084739999999996
                },
                {
                    "name": "F4",
                    "midi": 65,
                    "time": 26.69488500000006,
                    "velocity": 0.8503937007874016,
                    "duration": 0.5084739999999996
                },
                {
                    "name": "C4",
                    "midi": 60,
                    "time": 26.69488500000006,
                    "velocity": 0.8503937007874016,
                    "duration": 0.5084739999999996
                },
                {
                    "name": "F4",
                    "midi": 65,
                    "time": 27.20335900000006,
                    "velocity": 0.905511811023622,
                    "duration": 0.2542369999999998
                },
                {
                    "name": "C4",
                    "midi": 60,
                    "time": 27.20335900000006,
                    "velocity": 0.905511811023622,
                    "duration": 0.2542369999999998
                },
                {
                    "name": "F#4",
                    "midi": 66,
                    "time": 27.45759600000006,
                    "velocity": 0.905511811023622,
                    "duration": 0.2542369999999998
                },
                {
                    "name": "F4",
                    "midi": 65,
                    "time": 27.45759600000006,
                    "velocity": 0.905511811023622,
                    "duration": 0.2542369999999998
                },
                {
                    "name": "C4",
                    "midi": 60,
                    "time": 27.45759600000006,
                    "velocity": 0.905511811023622,
                    "duration": 0.2542369999999998
                },
                {
                    "name": "D#4",
                    "midi": 63,
                    "time": 27.71183300000006,
                    "velocity": 0.905511811023622,
                    "duration": 0.1271185000000017
                },
                {
                    "name": "F4",
                    "midi": 65,
                    "time": 27.83895150000006,
                    "velocity": 0.905511811023622,
                    "duration": 0.1271185000000017
                },
                {
                    "name": "F#4",
                    "midi": 66,
                    "time": 27.966070000000062,
                    "velocity": 0.905511811023622,
                    "duration": 0.1271185000000017
                },
                {
                    "name": "G#4",
                    "midi": 68,
                    "time": 28.093188500000064,
                    "velocity": 0.905511811023622,
                    "duration": 0.1271185000000017
                },
                {
                    "name": "F#4",
                    "midi": 66,
                    "time": 28.220307000000066,
                    "velocity": 0.905511811023622,
                    "duration": 0.5084739999999996
                },
                {
                    "name": "F4",
                    "midi": 65,
                    "time": 28.220307000000066,
                    "velocity": 0.905511811023622,
                    "duration": 0.5084739999999996
                },
                {
                    "name": "C4",
                    "midi": 60,
                    "time": 28.220307000000066,
                    "velocity": 0.905511811023622,
                    "duration": 0.5084739999999996
                },
                {
                    "name": "F4",
                    "midi": 65,
                    "time": 28.728781000000065,
                    "velocity": 0.905511811023622,
                    "duration": 0.2542369999999998
                },
                {
                    "name": "C4",
                    "midi": 60,
                    "time": 28.728781000000065,
                    "velocity": 0.905511811023622,
                    "duration": 0.2542369999999998
                },
                {
                    "name": "F#4",
                    "midi": 66,
                    "time": 28.983018000000065,
                    "velocity": 0.905511811023622,
                    "duration": 0.2542369999999998
                },
                {
                    "name": "F4",
                    "midi": 65,
                    "time": 28.983018000000065,
                    "velocity": 0.905511811023622,
                    "duration": 0.2542369999999998
                },
                {
                    "name": "C4",
                    "midi": 60,
                    "time": 28.983018000000065,
                    "velocity": 0.905511811023622,
                    "duration": 0.2542369999999998
                },
                {
                    "name": "D#4",
                    "midi": 63,
                    "time": 29.237255000000065,
                    "velocity": 0.905511811023622,
                    "duration": 0.1271185000000017
                },
                {
                    "name": "F4",
                    "midi": 65,
                    "time": 29.364373500000067,
                    "velocity": 0.905511811023622,
                    "duration": 0.1271185000000017
                },
                {
                    "name": "F#4",
                    "midi": 66,
                    "time": 29.49149200000007,
                    "velocity": 0.905511811023622,
                    "duration": 0.1271185000000017
                },
                {
                    "name": "G#4",
                    "midi": 68,
                    "time": 29.61861050000007,
                    "velocity": 0.905511811023622,
                    "duration": 0.1271185000000017
                },
                {
                    "name": "F#4",
                    "midi": 66,
                    "time": 29.745729000000072,
                    "velocity": 0.905511811023622,
                    "duration": 0.2542369999999998
                },
                {
                    "name": "F4",
                    "midi": 65,
                    "time": 29.745729000000072,
                    "velocity": 0.905511811023622,
                    "duration": 0.2542369999999998
                },
                {
                    "name": "C4",
                    "midi": 60,
                    "time": 29.745729000000072,
                    "velocity": 0.905511811023622,
                    "duration": 0.2542369999999998
                },
                {
                    "name": "F4",
                    "midi": 65,
                    "time": 29.99996600000007,
                    "velocity": 0.905511811023622,
                    "duration": 0.1271185000000017
                },
                {
                    "name": "F#4",
                    "midi": 66,
                    "time": 30.127084500000073,
                    "velocity": 0.905511811023622,
                    "duration": 0.1271185000000017
                },
                {
                    "name": "G4",
                    "midi": 67,
                    "time": 30.254203000000075,
                    "velocity": 0.905511811023622,
                    "duration": 0.2542369999999998
                },
                {
                    "name": "C4",
                    "midi": 60,
                    "time": 30.508440000000075,
                    "velocity": 0.905511811023622,
                    "duration": 0.2542369999999998
                },
                {
                    "name": "C3",
                    "midi": 48,
                    "time": 30.508440000000075,
                    "velocity": 0.905511811023622,
                    "duration": 0.2542369999999998
                },
                {
                    "name": "C4",
                    "midi": 60,
                    "time": 30.762677000000075,
                    "velocity": 0.905511811023622,
                    "duration": 0.2542369999999998
                },
                {
                    "name": "C3",
                    "midi": 48,
                    "time": 30.762677000000075,
                    "velocity": 0.905511811023622,
                    "duration": 0.2542369999999998
                },
                {
                    "name": "C4",
                    "midi": 60,
                    "time": 31.016914000000074,
                    "velocity": 0.905511811023622,
                    "duration": 0.2542369999999998
                },
                {
                    "name": "C3",
                    "midi": 48,
                    "time": 31.016914000000074,
                    "velocity": 0.905511811023622,
                    "duration": 0.2542369999999998
                },
                {
                    "name": "C#4",
                    "midi": 61,
                    "time": 31.271151000000074,
                    "velocity": 0.905511811023622,
                    "duration": 0.2542369999999998
                },
                {
                    "name": "C#3",
                    "midi": 49,
                    "time": 31.271151000000074,
                    "velocity": 0.905511811023622,
                    "duration": 0.2542369999999998
                },
                {
                    "name": "C#4",
                    "midi": 61,
                    "time": 31.525388000000074,
                    "velocity": 0.905511811023622,
                    "duration": 0.2542369999999998
                },
                {
                    "name": "C#3",
                    "midi": 49,
                    "time": 31.525388000000074,
                    "velocity": 0.905511811023622,
                    "duration": 0.2542369999999998
                },
                {
                    "name": "C#4",
                    "midi": 61,
                    "time": 31.779625000000074,
                    "velocity": 0.905511811023622,
                    "duration": 0.2542370000000034
                },
                {
                    "name": "C#3",
                    "midi": 49,
                    "time": 31.779625000000074,
                    "velocity": 0.905511811023622,
                    "duration": 0.2542370000000034
                },
                {
                    "name": "F#3",
                    "midi": 54,
                    "time": 32.03386200000008,
                    "velocity": 0.905511811023622,
                    "duration": 0.2542370000000034
                },
                {
                    "name": "F#3",
                    "midi": 54,
                    "time": 32.28809900000008,
                    "velocity": 0.905511811023622,
                    "duration": 0.2542370000000034
                },
                {
                    "name": "F#3",
                    "midi": 54,
                    "time": 32.542336000000084,
                    "velocity": 0.905511811023622,
                    "duration": 0.2542370000000034
                },
                {
                    "name": "G3",
                    "midi": 55,
                    "time": 32.79657300000009,
                    "velocity": 0.905511811023622,
                    "duration": 0.38135549999999796
                },
                {
                    "name": "G#3",
                    "midi": 56,
                    "time": 33.177928500000085,
                    "velocity": 0.905511811023622,
                    "duration": 0.1271185000000017
                },
                {
                    "name": "A#3",
                    "midi": 58,
                    "time": 33.30504700000009,
                    "velocity": 0.905511811023622,
                    "duration": 0.1271185000000017
                },
                {
                    "name": "C4",
                    "midi": 60,
                    "time": 33.43216550000009,
                    "velocity": 0.905511811023622,
                    "duration": 0.1271185000000017
                },
                {
                    "name": "C#4",
                    "midi": 61,
                    "time": 33.55928400000009,
                    "velocity": 0.905511811023622,
                    "duration": 0.1271185000000017
                },
                {
                    "name": "D#4",
                    "midi": 63,
                    "time": 33.68640250000009,
                    "velocity": 0.905511811023622,
                    "duration": 0.1271185000000017
                },
                {
                    "name": "F4",
                    "midi": 65,
                    "time": 33.813521000000094,
                    "velocity": 0.905511811023622,
                    "duration": 0.1271185000000017
                },
                {
                    "name": "F#4",
                    "midi": 66,
                    "time": 33.940639500000096,
                    "velocity": 0.905511811023622,
                    "duration": 0.1271185000000017
                },
                {
                    "name": "G#4",
                    "midi": 68,
                    "time": 34.0677580000001,
                    "velocity": 0.905511811023622,
                    "duration": 0.1271185000000017
                },
                {
                    "name": "A#4",
                    "midi": 70,
                    "time": 34.1948765000001,
                    "velocity": 0.905511811023622,
                    "duration": 0.1271185000000017
                },
                {
                    "name": "C5",
                    "midi": 72,
                    "time": 34.3219950000001,
                    "velocity": 0.905511811023622,
                    "duration": 0.1271185000000017
                },
                {
                    "name": "C#5",
                    "midi": 73,
                    "time": 34.4491135000001,
                    "velocity": 0.905511811023622,
                    "duration": 0.1271185000000017
                },
                {
                    "name": "D#5",
                    "midi": 75,
                    "time": 34.576232000000104,
                    "velocity": 0.905511811023622,
                    "duration": 0.1271185000000017
                },
                {
                    "name": "F5",
                    "midi": 77,
                    "time": 34.703350500000106,
                    "velocity": 0.905511811023622,
                    "duration": 0.1271185000000017
                },
                {
                    "name": "F#5",
                    "midi": 78,
                    "time": 34.83046900000011,
                    "velocity": 0.905511811023622,
                    "duration": 0.1271185000000017
                },
                {
                    "name": "G#5",
                    "midi": 80,
                    "time": 34.95758750000011,
                    "velocity": 0.905511811023622,
                    "duration": 0.1271185000000017
                },
                {
                    "name": "A#5",
                    "midi": 82,
                    "time": 35.08470600000011,
                    "velocity": 0.905511811023622,
                    "duration": 0.16525405000000148
                },
                {
                    "name": "A#4",
                    "midi": 70,
                    "time": 35.338943000000114,
                    "velocity": 0.905511811023622,
                    "duration": 0.16525405000000148
                },
                {
                    "name": "A#5",
                    "midi": 82,
                    "time": 35.338943000000114,
                    "velocity": 0.905511811023622,
                    "duration": 0.16525405000000148
                },
                {
                    "name": "C6",
                    "midi": 84,
                    "time": 35.59318000000012,
                    "velocity": 0.905511811023622,
                    "duration": 0.16525405000000148
                },
                {
                    "name": "C5",
                    "midi": 72,
                    "time": 35.59318000000012,
                    "velocity": 0.905511811023622,
                    "duration": 0.16525405000000148
                },
                {
                    "name": "C#6",
                    "midi": 85,
                    "time": 35.84741700000012,
                    "velocity": 0.905511811023622,
                    "duration": 0.16525405000000148
                },
                {
                    "name": "C#5",
                    "midi": 73,
                    "time": 35.84741700000012,
                    "velocity": 0.905511811023622,
                    "duration": 0.16525405000000148
                },
                {
                    "name": "C#5",
                    "midi": 73,
                    "time": 36.101654000000124,
                    "velocity": 0.905511811023622,
                    "duration": 0.08262702500000074
                },
                {
                    "name": "C#6",
                    "midi": 85,
                    "time": 36.101654000000124,
                    "velocity": 0.905511811023622,
                    "duration": 0.08262702500000074
                },
                {
                    "name": "D#6",
                    "midi": 87,
                    "time": 36.228772500000126,
                    "velocity": 0.905511811023622,
                    "duration": 0.08262702500000074
                },
                {
                    "name": "D#5",
                    "midi": 75,
                    "time": 36.228772500000126,
                    "velocity": 0.905511811023622,
                    "duration": 0.08262702500000074
                },
                {
                    "name": "C#6",
                    "midi": 85,
                    "time": 36.35589100000013,
                    "velocity": 0.905511811023622,
                    "duration": 0.08262702500000074
                },
                {
                    "name": "C#5",
                    "midi": 73,
                    "time": 36.35589100000013,
                    "velocity": 0.905511811023622,
                    "duration": 0.08262702500000074
                },
                {
                    "name": "C5",
                    "midi": 72,
                    "time": 36.48300950000013,
                    "velocity": 0.905511811023622,
                    "duration": 0.08262702500000074
                },
                {
                    "name": "C6",
                    "midi": 84,
                    "time": 36.48300950000013,
                    "velocity": 0.905511811023622,
                    "duration": 0.08262702500000074
                },
                {
                    "name": "A#5",
                    "midi": 82,
                    "time": 36.61012800000013,
                    "velocity": 0.905511811023622,
                    "duration": 0.16525405000000148
                },
                {
                    "name": "A#4",
                    "midi": 70,
                    "time": 36.61012800000013,
                    "velocity": 0.905511811023622,
                    "duration": 0.16525405000000148
                },
                {
                    "name": "A#4",
                    "midi": 70,
                    "time": 36.864365000000134,
                    "velocity": 0.905511811023622,
                    "duration": 0.08262702500000074
                },
                {
                    "name": "A#5",
                    "midi": 82,
                    "time": 36.864365000000134,
                    "velocity": 0.905511811023622,
                    "duration": 0.08262702500000074
                },
                {
                    "name": "C6",
                    "midi": 84,
                    "time": 36.991483500000136,
                    "velocity": 0.905511811023622,
                    "duration": 0.08262702500000074
                },
                {
                    "name": "C5",
                    "midi": 72,
                    "time": 36.991483500000136,
                    "velocity": 0.905511811023622,
                    "duration": 0.08262702500000074
                },
                {
                    "name": "A#5",
                    "midi": 82,
                    "time": 37.11860200000014,
                    "velocity": 0.905511811023622,
                    "duration": 0.08262702500000074
                },
                {
                    "name": "A#4",
                    "midi": 70,
                    "time": 37.11860200000014,
                    "velocity": 0.905511811023622,
                    "duration": 0.08262702500000074
                },
                {
                    "name": "G#4",
                    "midi": 68,
                    "time": 37.24572050000014,
                    "velocity": 0.905511811023622,
                    "duration": 0.08262702500000074
                },
                {
                    "name": "G#5",
                    "midi": 80,
                    "time": 37.24572050000014,
                    "velocity": 0.905511811023622,
                    "duration": 0.08262702500000074
                },
                {
                    "name": "F#5",
                    "midi": 78,
                    "time": 37.37283900000014,
                    "velocity": 0.905511811023622,
                    "duration": 0.16525405000000148
                },
                {
                    "name": "F#4",
                    "midi": 66,
                    "time": 37.37283900000014,
                    "velocity": 0.905511811023622,
                    "duration": 0.16525405000000148
                },
                {
                    "name": "F#5",
                    "midi": 78,
                    "time": 37.627076000000145,
                    "velocity": 0.905511811023622,
                    "duration": 0.16525405000000148
                },
                {
                    "name": "F#4",
                    "midi": 66,
                    "time": 37.627076000000145,
                    "velocity": 0.905511811023622,
                    "duration": 0.16525405000000148
                },
                {
                    "name": "C#5",
                    "midi": 73,
                    "time": 37.88131300000015,
                    "velocity": 0.905511811023622,
                    "duration": 0.16525405000000148
                },
                {
                    "name": "C#4",
                    "midi": 61,
                    "time": 37.88131300000015,
                    "velocity": 0.905511811023622,
                    "duration": 0.16525405000000148
                },
                {
                    "name": "F#5",
                    "midi": 78,
                    "time": 38.13555000000015,
                    "velocity": 0.905511811023622,
                    "duration": 0.5084739999999996
                },
                {
                    "name": "F#4",
                    "midi": 66,
                    "time": 38.13555000000015,
                    "velocity": 0.905511811023622,
                    "duration": 0.5084739999999996
                },
                {
                    "name": "C#5",
                    "midi": 73,
                    "time": 38.64402400000015,
                    "velocity": 0.905511811023622,
                    "duration": 0.16525405000000148
                },
                {
                    "name": "C#4",
                    "midi": 61,
                    "time": 38.64402400000015,
                    "velocity": 0.905511811023622,
                    "duration": 0.16525405000000148
                },
                {
                    "name": "F#4",
                    "midi": 66,
                    "time": 38.898261000000154,
                    "velocity": 0.905511811023622,
                    "duration": 0.16525405000000148
                },
                {
                    "name": "F#5",
                    "midi": 78,
                    "time": 38.898261000000154,
                    "velocity": 0.905511811023622,
                    "duration": 0.16525405000000148
                },
                {
                    "name": "F#4",
                    "midi": 66,
                    "time": 39.15249800000016,
                    "velocity": 0.905511811023622,
                    "duration": 0.16525405000000148
                },
                {
                    "name": "F#5",
                    "midi": 78,
                    "time": 39.15249800000016,
                    "velocity": 0.905511811023622,
                    "duration": 0.16525405000000148
                },
                {
                    "name": "C#4",
                    "midi": 61,
                    "time": 39.40673500000016,
                    "velocity": 0.905511811023622,
                    "duration": 0.16525405000000148
                },
                {
                    "name": "C#5",
                    "midi": 73,
                    "time": 39.40673500000016,
                    "velocity": 0.905511811023622,
                    "duration": 0.16525405000000148
                },
                {
                    "name": "F#4",
                    "midi": 66,
                    "time": 39.660972000000164,
                    "velocity": 0.905511811023622,
                    "duration": 0.16525405000000148
                },
                {
                    "name": "F#5",
                    "midi": 78,
                    "time": 39.660972000000164,
                    "velocity": 0.905511811023622,
                    "duration": 0.16525405000000148
                },
                {
                    "name": "F#4",
                    "midi": 66,
                    "time": 39.91520900000017,
                    "velocity": 0.905511811023622,
                    "duration": 0.08262702500000074
                },
                {
                    "name": "F#5",
                    "midi": 78,
                    "time": 39.91520900000017,
                    "velocity": 0.905511811023622,
                    "duration": 0.08262702500000074
                },
                {
                    "name": "G#5",
                    "midi": 80,
                    "time": 40.04232750000017,
                    "velocity": 0.905511811023622,
                    "duration": 0.08262702500000074
                },
                {
                    "name": "G#4",
                    "midi": 68,
                    "time": 40.04232750000017,
                    "velocity": 0.905511811023622,
                    "duration": 0.08262702500000074
                },
                {
                    "name": "F#4",
                    "midi": 66,
                    "time": 40.16944600000017,
                    "velocity": 0.905511811023622,
                    "duration": 0.08262702500000074
                },
                {
                    "name": "F#5",
                    "midi": 78,
                    "time": 40.16944600000017,
                    "velocity": 0.905511811023622,
                    "duration": 0.08262702500000074
                },
                {
                    "name": "G#5",
                    "midi": 80,
                    "time": 40.29656450000017,
                    "velocity": 0.905511811023622,
                    "duration": 0.08262702500000074
                },
                {
                    "name": "G#4",
                    "midi": 68,
                    "time": 40.29656450000017,
                    "velocity": 0.905511811023622,
                    "duration": 0.08262702500000074
                },
                {
                    "name": "A4",
                    "midi": 69,
                    "time": 40.423683000000175,
                    "velocity": 0.905511811023622,
                    "duration": 0.16525405000000148
                },
                {
                    "name": "A5",
                    "midi": 81,
                    "time": 40.423683000000175,
                    "velocity": 0.905511811023622,
                    "duration": 0.16525405000000148
                },
                {
                    "name": "A5",
                    "midi": 81,
                    "time": 40.67792000000018,
                    "velocity": 0.905511811023622,
                    "duration": 0.08262702500000074
                },
                {
                    "name": "A4",
                    "midi": 69,
                    "time": 40.67792000000018,
                    "velocity": 0.905511811023622,
                    "duration": 0.08262702500000074
                },
                {
                    "name": "G#4",
                    "midi": 68,
                    "time": 40.80503850000018,
                    "velocity": 0.905511811023622,
                    "duration": 0.08262702500000074
                },
                {
                    "name": "G#5",
                    "midi": 80,
                    "time": 40.80503850000018,
                    "velocity": 0.905511811023622,
                    "duration": 0.08262702500000074
                },
                {
                    "name": "A5",
                    "midi": 81,
                    "time": 40.93215700000018,
                    "velocity": 0.905511811023622,
                    "duration": 0.08262702500000074
                },
                {
                    "name": "A4",
                    "midi": 69,
                    "time": 40.93215700000018,
                    "velocity": 0.905511811023622,
                    "duration": 0.08262702500000074
                },
                {
                    "name": "G#4",
                    "midi": 68,
                    "time": 41.05927550000018,
                    "velocity": 0.905511811023622,
                    "duration": 0.08262702500000074
                },
                {
                    "name": "G#5",
                    "midi": 80,
                    "time": 41.05927550000018,
                    "velocity": 0.905511811023622,
                    "duration": 0.08262702500000074
                },
                {
                    "name": "F#4",
                    "midi": 66,
                    "time": 41.186394000000185,
                    "velocity": 0.905511811023622,
                    "duration": 0.16525405000000148
                },
                {
                    "name": "F#5",
                    "midi": 78,
                    "time": 41.186394000000185,
                    "velocity": 0.905511811023622,
                    "duration": 0.16525405000000148
                },
                {
                    "name": "F#4",
                    "midi": 66,
                    "time": 41.44063100000019,
                    "velocity": 0.905511811023622,
                    "duration": 0.08262702500000074
                },
                {
                    "name": "F#5",
                    "midi": 78,
                    "time": 41.44063100000019,
                    "velocity": 0.905511811023622,
                    "duration": 0.08262702500000074
                },
                {
                    "name": "G#5",
                    "midi": 80,
                    "time": 41.56774950000019,
                    "velocity": 0.905511811023622,
                    "duration": 0.08262702500000074
                },
                {
                    "name": "G#4",
                    "midi": 68,
                    "time": 41.56774950000019,
                    "velocity": 0.905511811023622,
                    "duration": 0.08262702500000074
                },
                {
                    "name": "F#4",
                    "midi": 66,
                    "time": 41.69486800000019,
                    "velocity": 0.905511811023622,
                    "duration": 0.08262702500000074
                },
                {
                    "name": "F#5",
                    "midi": 78,
                    "time": 41.69486800000019,
                    "velocity": 0.905511811023622,
                    "duration": 0.08262702500000074
                },
                {
                    "name": "G#5",
                    "midi": 80,
                    "time": 41.82198650000019,
                    "velocity": 0.905511811023622,
                    "duration": 0.08262702500000074
                },
                {
                    "name": "G#4",
                    "midi": 68,
                    "time": 41.82198650000019,
                    "velocity": 0.905511811023622,
                    "duration": 0.08262702500000074
                },
                {
                    "name": "A4",
                    "midi": 69,
                    "time": 41.949105000000195,
                    "velocity": 0.905511811023622,
                    "duration": 0.16525405000000148
                },
                {
                    "name": "A5",
                    "midi": 81,
                    "time": 41.949105000000195,
                    "velocity": 0.905511811023622,
                    "duration": 0.16525405000000148
                },
                {
                    "name": "A5",
                    "midi": 81,
                    "time": 42.2033420000002,
                    "velocity": 0.905511811023622,
                    "duration": 0.08262702500000074
                },
                {
                    "name": "A4",
                    "midi": 69,
                    "time": 42.2033420000002,
                    "velocity": 0.905511811023622,
                    "duration": 0.08262702500000074
                },
                {
                    "name": "G#4",
                    "midi": 68,
                    "time": 42.3304605000002,
                    "velocity": 0.905511811023622,
                    "duration": 0.08262702500000074
                },
                {
                    "name": "G#5",
                    "midi": 80,
                    "time": 42.3304605000002,
                    "velocity": 0.905511811023622,
                    "duration": 0.08262702500000074
                },
                {
                    "name": "A5",
                    "midi": 81,
                    "time": 42.4575790000002,
                    "velocity": 0.905511811023622,
                    "duration": 0.08262702500000074
                },
                {
                    "name": "A4",
                    "midi": 69,
                    "time": 42.4575790000002,
                    "velocity": 0.905511811023622,
                    "duration": 0.08262702500000074
                },
                {
                    "name": "G#4",
                    "midi": 68,
                    "time": 42.5846975000002,
                    "velocity": 0.905511811023622,
                    "duration": 0.08262702500000074
                },
                {
                    "name": "G#5",
                    "midi": 80,
                    "time": 42.5846975000002,
                    "velocity": 0.905511811023622,
                    "duration": 0.08262702500000074
                },
                {
                    "name": "F#4",
                    "midi": 66,
                    "time": 42.711816000000205,
                    "velocity": 0.905511811023622,
                    "duration": 0.16525405000000148
                },
                {
                    "name": "F#5",
                    "midi": 78,
                    "time": 42.711816000000205,
                    "velocity": 0.905511811023622,
                    "duration": 0.16525405000000148
                },
                {
                    "name": "F5",
                    "midi": 77,
                    "time": 42.96605300000021,
                    "velocity": 0.905511811023622,
                    "duration": 0.08262702500000074
                },
                {
                    "name": "F#5",
                    "midi": 78,
                    "time": 43.09317150000021,
                    "velocity": 0.905511811023622,
                    "duration": 0.08262702500000074
                },
                {
                    "name": "F5",
                    "midi": 77,
                    "time": 43.22029000000021,
                    "velocity": 0.905511811023622,
                    "duration": 0.08262702500000074
                },
                {
                    "name": "F#5",
                    "midi": 78,
                    "time": 43.34740850000021,
                    "velocity": 0.905511811023622,
                    "duration": 0.08262702500000074
                },
                {
                    "name": "G5",
                    "midi": 79,
                    "time": 43.474527000000215,
                    "velocity": 0.905511811023622,
                    "duration": 0.12499985833333227
                },
                {
                    "name": "F#5",
                    "midi": 78,
                    "time": 43.60164550000022,
                    "velocity": 0.905511811023622,
                    "duration": 0.12499985833333227
                },
                {
                    "name": "G5",
                    "midi": 79,
                    "time": 43.72876400000022,
                    "velocity": 0.905511811023622,
                    "duration": 0.12499985833333227
                },
                {
                    "name": "G#5",
                    "midi": 80,
                    "time": 43.85588250000022,
                    "velocity": 0.905511811023622,
                    "duration": 0.12499985833333227
                },
                {
                    "name": "A#5",
                    "midi": 82,
                    "time": 43.98300100000022,
                    "velocity": 0.905511811023622,
                    "duration": 0.12499985833333227
                },
                {
                    "name": "C6",
                    "midi": 84,
                    "time": 44.11011950000022,
                    "velocity": 0.905511811023622,
                    "duration": 0.12499985833333227
                },
                {
                    "name": "A#5",
                    "midi": 82,
                    "time": 44.237238000000225,
                    "velocity": 0.905511811023622,
                    "duration": 0.12499985833333227
                },
                {
                    "name": "G#5",
                    "midi": 80,
                    "time": 44.36435650000023,
                    "velocity": 0.905511811023622,
                    "duration": 0.12499985833333227
                },
                {
                    "name": "A#5",
                    "midi": 82,
                    "time": 44.49147500000023,
                    "velocity": 0.905511811023622,
                    "duration": 0.12499985833333227
                },
                {
                    "name": "G#5",
                    "midi": 80,
                    "time": 44.61859350000023,
                    "velocity": 0.905511811023622,
                    "duration": 0.12499985833333227
                },
                {
                    "name": "F5",
                    "midi": 77,
                    "time": 44.74571200000023,
                    "velocity": 0.905511811023622,
                    "duration": 0.12499985833333227
                },
                {
                    "name": "F#5",
                    "midi": 78,
                    "time": 44.872830500000234,
                    "velocity": 0.905511811023622,
                    "duration": 0.12499985833333227
                },
                {
                    "name": "G5",
                    "midi": 79,
                    "time": 44.999949000000235,
                    "velocity": 0.905511811023622,
                    "duration": 0.12499985833333227
                },
                {
                    "name": "F#5",
                    "midi": 78,
                    "time": 45.12706750000024,
                    "velocity": 0.905511811023622,
                    "duration": 0.12499985833333227
                },
                {
                    "name": "G5",
                    "midi": 79,
                    "time": 45.25418600000024,
                    "velocity": 0.905511811023622,
                    "duration": 0.12499985833333227
                },
                {
                    "name": "G#5",
                    "midi": 80,
                    "time": 45.38130450000024,
                    "velocity": 0.905511811023622,
                    "duration": 0.12499985833333227
                },
                {
                    "name": "A#5",
                    "midi": 82,
                    "time": 45.50842300000024,
                    "velocity": 0.905511811023622,
                    "duration": 0.12499985833333227
                },
                {
                    "name": "C6",
                    "midi": 84,
                    "time": 45.635541500000244,
                    "velocity": 0.905511811023622,
                    "duration": 0.12499985833333227
                },
                {
                    "name": "A#5",
                    "midi": 82,
                    "time": 45.762660000000245,
                    "velocity": 0.905511811023622,
                    "duration": 0.12499985833333227
                },
                {
                    "name": "G#5",
                    "midi": 80,
                    "time": 45.88977850000025,
                    "velocity": 0.905511811023622,
                    "duration": 0.12499985833333227
                },
                {
                    "name": "A#5",
                    "midi": 82,
                    "time": 46.01689700000025,
                    "velocity": 0.905511811023622,
                    "duration": 0.12499985833333227
                },
                {
                    "name": "G#5",
                    "midi": 80,
                    "time": 46.14401550000025,
                    "velocity": 0.905511811023622,
                    "duration": 0.12499985833333227
                },
                {
                    "name": "F5",
                    "midi": 77,
                    "time": 46.27113400000025,
                    "velocity": 0.905511811023622,
                    "duration": 0.06355924999999729
                },
                {
                    "name": "F#5",
                    "midi": 78,
                    "time": 46.33469325000025,
                    "velocity": 0.905511811023622,
                    "duration": 0.06355924999999729
                },
                {
                    "name": "G#5",
                    "midi": 80,
                    "time": 46.39825250000025,
                    "velocity": 0.905511811023622,
                    "duration": 0.06355924999999729
                },
                {
                    "name": "A#5",
                    "midi": 82,
                    "time": 46.461811750000244,
                    "velocity": 0.905511811023622,
                    "duration": 0.06355924999999729
                },
                {
                    "name": "C5",
                    "midi": 72,
                    "time": 46.52537100000024,
                    "velocity": 0.905511811023622,
                    "duration": 0.2542370000000034
                },
                {
                    "name": "C6",
                    "midi": 84,
                    "time": 46.52537100000024,
                    "velocity": 0.905511811023622,
                    "duration": 0.2542370000000034
                },
                {
                    "name": "F#5",
                    "midi": 78,
                    "time": 46.779608000000245,
                    "velocity": 0.905511811023622,
                    "duration": 0.06355924999999729
                },
                {
                    "name": "G#5",
                    "midi": 80,
                    "time": 46.84316725000024,
                    "velocity": 0.905511811023622,
                    "duration": 0.06355924999999729
                },
                {
                    "name": "A#5",
                    "midi": 82,
                    "time": 46.90672650000024,
                    "velocity": 0.905511811023622,
                    "duration": 0.06355924999999729
                },
                {
                    "name": "C6",
                    "midi": 84,
                    "time": 46.97028575000024,
                    "velocity": 0.905511811023622,
                    "duration": 0.06355924999999729
                },
                {
                    "name": "C#5",
                    "midi": 73,
                    "time": 47.033845000000234,
                    "velocity": 0.905511811023622,
                    "duration": 0.2542370000000034
                },
                {
                    "name": "C#6",
                    "midi": 85,
                    "time": 47.033845000000234,
                    "velocity": 0.905511811023622,
                    "duration": 0.2542370000000034
                },
                {
                    "name": "D#5",
                    "midi": 75,
                    "time": 47.28808200000024,
                    "velocity": 0.905511811023622,
                    "duration": 0.2542370000000034
                },
                {
                    "name": "D#6",
                    "midi": 87,
                    "time": 47.28808200000024,
                    "velocity": 0.905511811023622,
                    "duration": 0.2542370000000034
                },
                {
                    "name": "G#4",
                    "midi": 68,
                    "time": 47.54231900000024,
                    "velocity": 0.905511811023622,
                    "duration": 0.2542370000000034
                },
                {
                    "name": "G#5",
                    "midi": 80,
                    "time": 47.54231900000024,
                    "velocity": 0.905511811023622,
                    "duration": 0.2542370000000034
                },
                {
                    "name": "A#4",
                    "midi": 70,
                    "time": 47.796556000000244,
                    "velocity": 0.905511811023622,
                    "duration": 0.2542370000000034
                },
                {
                    "name": "A#5",
                    "midi": 82,
                    "time": 47.796556000000244,
                    "velocity": 0.905511811023622,
                    "duration": 0.2542370000000034
                },
                {
                    "name": "B4",
                    "midi": 71,
                    "time": 48.05079300000025,
                    "velocity": 0.968503937007874,
                    "duration": 0.5084739999999996
                },
                {
                    "name": "B5",
                    "midi": 83,
                    "time": 48.05079300000025,
                    "velocity": 0.968503937007874,
                    "duration": 0.5084739999999996
                },
                {
                    "name": "D#6",
                    "midi": 87,
                    "time": 48.55926700000025,
                    "velocity": 0.8346456692913385,
                    "duration": 0.2542370000000034
                },
                {
                    "name": "D#5",
                    "midi": 75,
                    "time": 48.55926700000025,
                    "velocity": 0.8346456692913385,
                    "duration": 0.2542370000000034
                },
                {
                    "name": "B4",
                    "midi": 71,
                    "time": 48.81350400000025,
                    "velocity": 0.968503937007874,
                    "duration": 0.5084739999999996
                },
                {
                    "name": "B3",
                    "midi": 59,
                    "time": 48.81350400000025,
                    "velocity": 0.968503937007874,
                    "duration": 0.5084739999999996
                },
                {
                    "name": "D#4",
                    "midi": 63,
                    "time": 49.32197800000025,
                    "velocity": 0.8267716535433071,
                    "duration": 0.2542370000000034
                },
                {
                    "name": "D#5",
                    "midi": 75,
                    "time": 49.32197800000025,
                    "velocity": 0.8267716535433071,
                    "duration": 0.2542370000000034
                },
                {
                    "name": "B4",
                    "midi": 71,
                    "time": 49.57621500000025,
                    "velocity": 0.9763779527559056,
                    "duration": 0.5084739999999996
                },
                {
                    "name": "B5",
                    "midi": 83,
                    "time": 49.57621500000025,
                    "velocity": 0.9763779527559056,
                    "duration": 0.5084739999999996
                },
                {
                    "name": "D#6",
                    "midi": 87,
                    "time": 50.08468900000025,
                    "velocity": 0.8346456692913385,
                    "duration": 0.2542370000000034
                },
                {
                    "name": "D#5",
                    "midi": 75,
                    "time": 50.08468900000025,
                    "velocity": 0.8346456692913385,
                    "duration": 0.2542370000000034
                },
                {
                    "name": "B4",
                    "midi": 71,
                    "time": 50.33892600000026,
                    "velocity": 0.968503937007874,
                    "duration": 0.5084739999999996
                },
                {
                    "name": "B3",
                    "midi": 59,
                    "time": 50.33892600000026,
                    "velocity": 0.968503937007874,
                    "duration": 0.5084739999999996
                },
                {
                    "name": "D#4",
                    "midi": 63,
                    "time": 50.847400000000256,
                    "velocity": 0.8267716535433071,
                    "duration": 0.2542370000000034
                },
                {
                    "name": "D#5",
                    "midi": 75,
                    "time": 50.847400000000256,
                    "velocity": 0.8267716535433071,
                    "duration": 0.2542370000000034
                },
                {
                    "name": "C#6",
                    "midi": 85,
                    "time": 51.10163700000026,
                    "velocity": 0.905511811023622,
                    "duration": 0.2542370000000034
                },
                {
                    "name": "C#5",
                    "midi": 73,
                    "time": 51.10163700000026,
                    "velocity": 0.905511811023622,
                    "duration": 0.2542370000000034
                },
                {
                    "name": "C#6",
                    "midi": 85,
                    "time": 51.35587400000026,
                    "velocity": 0.905511811023622,
                    "duration": 0.2542370000000034
                },
                {
                    "name": "C#5",
                    "midi": 73,
                    "time": 51.35587400000026,
                    "velocity": 0.905511811023622,
                    "duration": 0.2542370000000034
                },
                {
                    "name": "C#6",
                    "midi": 85,
                    "time": 51.610111000000266,
                    "velocity": 0.905511811023622,
                    "duration": 0.2542370000000034
                },
                {
                    "name": "C#5",
                    "midi": 73,
                    "time": 51.610111000000266,
                    "velocity": 0.905511811023622,
                    "duration": 0.2542370000000034
                },
                {
                    "name": "C#6",
                    "midi": 85,
                    "time": 51.86434800000027,
                    "velocity": 0.905511811023622,
                    "duration": 0.5084739999999996
                },
                {
                    "name": "C#5",
                    "midi": 73,
                    "time": 51.86434800000027,
                    "velocity": 0.905511811023622,
                    "duration": 0.5084739999999996
                },
                {
                    "name": "F#5",
                    "midi": 78,
                    "time": 52.37282200000027,
                    "velocity": 0.905511811023622,
                    "duration": 0.2542370000000034
                },
                {
                    "name": "F#4",
                    "midi": 66,
                    "time": 52.37282200000027,
                    "velocity": 0.905511811023622,
                    "duration": 0.2542370000000034
                },
                {
                    "name": "A#5",
                    "midi": 82,
                    "time": 53.389770000000276,
                    "velocity": 0.905511811023622,
                    "duration": 0.2542370000000034
                },
                {
                    "name": "B5",
                    "midi": 83,
                    "time": 53.389770000000276,
                    "velocity": 1,
                    "duration": 0.5084740000000068
                },
                {
                    "name": "G#5",
                    "midi": 80,
                    "time": 53.64400700000028,
                    "velocity": 0.905511811023622,
                    "duration": 0.2542370000000034
                },
                {
                    "name": "G#5",
                    "midi": 80,
                    "time": 53.89824400000028,
                    "velocity": 0.905511811023622,
                    "duration": 0.2542370000000034
                },
                {
                    "name": "A#5",
                    "midi": 82,
                    "time": 53.89824400000028,
                    "velocity": 1,
                    "duration": 0.5084740000000068
                },
                {
                    "name": "F#5",
                    "midi": 78,
                    "time": 54.152481000000286,
                    "velocity": 0.905511811023622,
                    "duration": 0.2542370000000034
                },
                {
                    "name": "F#5",
                    "midi": 78,
                    "time": 54.40671800000029,
                    "velocity": 0.8582677165354331,
                    "duration": 0.2542370000000034
                },
                {
                    "name": "G#5",
                    "midi": 80,
                    "time": 54.40671800000029,
                    "velocity": 0.968503937007874,
                    "duration": 0.5084740000000068
                },
                {
                    "name": "F5",
                    "midi": 77,
                    "time": 54.66095500000029,
                    "velocity": 0.8031496062992126,
                    "duration": 0.2542370000000034
                },
                {
                    "name": "F4",
                    "midi": 65,
                    "time": 54.915192000000296,
                    "velocity": 0.7480314960629921,
                    "duration": 0.2542370000000034
                },
                {
                    "name": "C#5",
                    "midi": 73,
                    "time": 54.915192000000296,
                    "velocity": 0.7480314960629921,
                    "duration": 0.2542370000000034
                },
                {
                    "name": "F5",
                    "midi": 77,
                    "time": 54.915192000000296,
                    "velocity": 0.7480314960629921,
                    "duration": 0.2542370000000034
                },
                {
                    "name": "F4",
                    "midi": 65,
                    "time": 55.1694290000003,
                    "velocity": 0.7480314960629921,
                    "duration": 0.2542370000000034
                },
                {
                    "name": "C#5",
                    "midi": 73,
                    "time": 55.1694290000003,
                    "velocity": 0.7480314960629921,
                    "duration": 0.2542370000000034
                },
                {
                    "name": "F5",
                    "midi": 77,
                    "time": 55.1694290000003,
                    "velocity": 0.7480314960629921,
                    "duration": 0.2542370000000034
                },
                {
                    "name": "F4",
                    "midi": 65,
                    "time": 55.4236660000003,
                    "velocity": 0.7480314960629921,
                    "duration": 0.2542370000000034
                },
                {
                    "name": "C#5",
                    "midi": 73,
                    "time": 55.4236660000003,
                    "velocity": 0.7480314960629921,
                    "duration": 0.2542370000000034
                },
                {
                    "name": "F5",
                    "midi": 77,
                    "time": 55.4236660000003,
                    "velocity": 0.7480314960629921,
                    "duration": 0.2542370000000034
                },
                {
                    "name": "F5",
                    "midi": 77,
                    "time": 55.677903000000306,
                    "velocity": 0.7480314960629921,
                    "duration": 0.2542370000000034
                },
                {
                    "name": "C#5",
                    "midi": 73,
                    "time": 55.677903000000306,
                    "velocity": 0.7480314960629921,
                    "duration": 0.2542370000000034
                },
                {
                    "name": "F4",
                    "midi": 65,
                    "time": 55.677903000000306,
                    "velocity": 0.7480314960629921,
                    "duration": 0.2542370000000034
                },
                {
                    "name": "C#5",
                    "midi": 73,
                    "time": 55.93214000000031,
                    "velocity": 0.7480314960629921,
                    "duration": 0.1271185000000017
                },
                {
                    "name": "F5",
                    "midi": 77,
                    "time": 55.93214000000031,
                    "velocity": 0.7480314960629921,
                    "duration": 0.1271185000000017
                },
                {
                    "name": "C5",
                    "midi": 72,
                    "time": 56.05925850000031,
                    "velocity": 0.7480314960629921,
                    "duration": 0.1271185000000017
                },
                {
                    "name": "D#5",
                    "midi": 75,
                    "time": 56.05925850000031,
                    "velocity": 0.7480314960629921,
                    "duration": 0.1271185000000017
                },
                {
                    "name": "C#5",
                    "midi": 73,
                    "time": 56.18637700000031,
                    "velocity": 0.7480314960629921,
                    "duration": 0.1271185000000017
                },
                {
                    "name": "F5",
                    "midi": 77,
                    "time": 56.18637700000031,
                    "velocity": 0.7480314960629921,
                    "duration": 0.1271185000000017
                },
                {
                    "name": "D#5",
                    "midi": 75,
                    "time": 56.313495500000315,
                    "velocity": 0.7480314960629921,
                    "duration": 0.1271185000000017
                },
                {
                    "name": "F#5",
                    "midi": 78,
                    "time": 56.313495500000315,
                    "velocity": 0.7480314960629921,
                    "duration": 0.1271185000000017
                },
                {
                    "name": "F4",
                    "midi": 65,
                    "time": 56.440614000000316,
                    "velocity": 0.7480314960629921,
                    "duration": 0.2542370000000034
                },
                {
                    "name": "C#5",
                    "midi": 73,
                    "time": 56.440614000000316,
                    "velocity": 0.7480314960629921,
                    "duration": 0.2542370000000034
                },
                {
                    "name": "F5",
                    "midi": 77,
                    "time": 56.440614000000316,
                    "velocity": 0.7480314960629921,
                    "duration": 0.2542370000000034
                },
                {
                    "name": "F4",
                    "midi": 65,
                    "time": 56.69485100000032,
                    "velocity": 0.7480314960629921,
                    "duration": 0.2542370000000034
                },
                {
                    "name": "C#5",
                    "midi": 73,
                    "time": 56.69485100000032,
                    "velocity": 0.7480314960629921,
                    "duration": 0.2542370000000034
                },
                {
                    "name": "F5",
                    "midi": 77,
                    "time": 56.69485100000032,
                    "velocity": 0.7480314960629921,
                    "duration": 0.2542370000000034
                },
                {
                    "name": "F4",
                    "midi": 65,
                    "time": 56.94908800000032,
                    "velocity": 0.7480314960629921,
                    "duration": 0.2542370000000034
                },
                {
                    "name": "C#5",
                    "midi": 73,
                    "time": 56.94908800000032,
                    "velocity": 0.7480314960629921,
                    "duration": 0.2542370000000034
                },
                {
                    "name": "F5",
                    "midi": 77,
                    "time": 56.94908800000032,
                    "velocity": 0.7480314960629921,
                    "duration": 0.2542370000000034
                },
                {
                    "name": "F5",
                    "midi": 77,
                    "time": 57.203325000000326,
                    "velocity": 0.7480314960629921,
                    "duration": 0.2542370000000034
                },
                {
                    "name": "C#5",
                    "midi": 73,
                    "time": 57.203325000000326,
                    "velocity": 0.7480314960629921,
                    "duration": 0.2542370000000034
                },
                {
                    "name": "F4",
                    "midi": 65,
                    "time": 57.203325000000326,
                    "velocity": 0.7480314960629921,
                    "duration": 0.2542370000000034
                },
                {
                    "name": "C#5",
                    "midi": 73,
                    "time": 57.45756200000033,
                    "velocity": 0.7480314960629921,
                    "duration": 0.1271185000000017
                },
                {
                    "name": "F5",
                    "midi": 77,
                    "time": 57.45756200000033,
                    "velocity": 0.7480314960629921,
                    "duration": 0.1271185000000017
                },
                {
                    "name": "C5",
                    "midi": 72,
                    "time": 57.58468050000033,
                    "velocity": 0.7480314960629921,
                    "duration": 0.1271185000000017
                },
                {
                    "name": "D#5",
                    "midi": 75,
                    "time": 57.58468050000033,
                    "velocity": 0.7480314960629921,
                    "duration": 0.1271185000000017
                },
                {
                    "name": "C#5",
                    "midi": 73,
                    "time": 57.71179900000033,
                    "velocity": 0.7480314960629921,
                    "duration": 0.1271185000000017
                },
                {
                    "name": "F5",
                    "midi": 77,
                    "time": 57.71179900000033,
                    "velocity": 0.7480314960629921,
                    "duration": 0.1271185000000017
                },
                {
                    "name": "D#5",
                    "midi": 75,
                    "time": 57.838917500000335,
                    "velocity": 0.7480314960629921,
                    "duration": 0.1271185000000017
                },
                {
                    "name": "F#5",
                    "midi": 78,
                    "time": 57.838917500000335,
                    "velocity": 0.7480314960629921,
                    "duration": 0.1271185000000017
                },
                {
                    "name": "F5",
                    "midi": 77,
                    "time": 57.96603600000034,
                    "velocity": 0.7480314960629921,
                    "duration": 0.2542370000000034
                },
                {
                    "name": "C#5",
                    "midi": 73,
                    "time": 57.96603600000034,
                    "velocity": 0.7480314960629921,
                    "duration": 0.2542370000000034
                },
                {
                    "name": "F4",
                    "midi": 65,
                    "time": 57.96603600000034,
                    "velocity": 0.7480314960629921,
                    "duration": 0.2542370000000034
                },
                {
                    "name": "C#5",
                    "midi": 73,
                    "time": 58.22027300000034,
                    "velocity": 0.7480314960629921,
                    "duration": 0.1271185000000017
                },
                {
                    "name": "F5",
                    "midi": 77,
                    "time": 58.22027300000034,
                    "velocity": 0.7480314960629921,
                    "duration": 0.1271185000000017
                },
                {
                    "name": "C5",
                    "midi": 72,
                    "time": 58.34739150000034,
                    "velocity": 0.7559055118110236,
                    "duration": 0.1271185000000017
                },
                {
                    "name": "D#5",
                    "midi": 75,
                    "time": 58.34739150000034,
                    "velocity": 0.7559055118110236,
                    "duration": 0.1271185000000017
                },
                {
                    "name": "C#5",
                    "midi": 73,
                    "time": 58.47451000000034,
                    "velocity": 0.7637795275590551,
                    "duration": 0.1271185000000017
                },
                {
                    "name": "F5",
                    "midi": 77,
                    "time": 58.47451000000034,
                    "velocity": 0.7637795275590551,
                    "duration": 0.1271185000000017
                },
                {
                    "name": "D#5",
                    "midi": 75,
                    "time": 58.601628500000345,
                    "velocity": 0.7716535433070866,
                    "duration": 0.1271185000000017
                },
                {
                    "name": "F#5",
                    "midi": 78,
                    "time": 58.601628500000345,
                    "velocity": 0.7716535433070866,
                    "duration": 0.1271185000000017
                },
                {
                    "name": "F5",
                    "midi": 77,
                    "time": 58.72874700000035,
                    "velocity": 0.7874015748031497,
                    "duration": 0.2542370000000034
                },
                {
                    "name": "C#5",
                    "midi": 73,
                    "time": 58.72874700000035,
                    "velocity": 0.7874015748031497,
                    "duration": 0.2542370000000034
                },
                {
                    "name": "F4",
                    "midi": 65,
                    "time": 58.72874700000035,
                    "velocity": 0.7874015748031497,
                    "duration": 0.2542370000000034
                },
                {
                    "name": "C#5",
                    "midi": 73,
                    "time": 58.98298400000035,
                    "velocity": 0.8031496062992126,
                    "duration": 0.1271185000000017
                },
                {
                    "name": "F5",
                    "midi": 77,
                    "time": 58.98298400000035,
                    "velocity": 0.8031496062992126,
                    "duration": 0.1271185000000017
                },
                {
                    "name": "C5",
                    "midi": 72,
                    "time": 59.11010250000035,
                    "velocity": 0.8110236220472441,
                    "duration": 0.1271185000000017
                },
                {
                    "name": "D#5",
                    "midi": 75,
                    "time": 59.11010250000035,
                    "velocity": 0.8110236220472441,
                    "duration": 0.1271185000000017
                },
                {
                    "name": "C#5",
                    "midi": 73,
                    "time": 59.23722100000035,
                    "velocity": 0.8267716535433071,
                    "duration": 0.1271185000000017
                },
                {
                    "name": "F5",
                    "midi": 77,
                    "time": 59.23722100000035,
                    "velocity": 0.8267716535433071,
                    "duration": 0.1271185000000017
                },
                {
                    "name": "D#5",
                    "midi": 75,
                    "time": 59.364339500000355,
                    "velocity": 0.8346456692913385,
                    "duration": 0.1271185000000017
                },
                {
                    "name": "F#5",
                    "midi": 78,
                    "time": 59.364339500000355,
                    "velocity": 0.8346456692913385,
                    "duration": 0.1271185000000017
                },
                {
                    "name": "F5",
                    "midi": 77,
                    "time": 59.49145800000036,
                    "velocity": 0.84251968503937,
                    "duration": 0.2542370000000034
                },
                {
                    "name": "C#5",
                    "midi": 73,
                    "time": 59.49145800000036,
                    "velocity": 0.84251968503937,
                    "duration": 0.2542370000000034
                },
                {
                    "name": "F4",
                    "midi": 65,
                    "time": 59.49145800000036,
                    "velocity": 0.84251968503937,
                    "duration": 0.2542370000000034
                },
                {
                    "name": "C#5",
                    "midi": 73,
                    "time": 59.74569500000036,
                    "velocity": 0.8661417322834646,
                    "duration": 0.1271185000000017
                },
                {
                    "name": "F5",
                    "midi": 77,
                    "time": 59.74569500000036,
                    "velocity": 0.8661417322834646,
                    "duration": 0.1271185000000017
                },
                {
                    "name": "C5",
                    "midi": 72,
                    "time": 59.87281350000036,
                    "velocity": 0.8740157480314961,
                    "duration": 0.1271185000000017
                },
                {
                    "name": "D#5",
                    "midi": 75,
                    "time": 59.87281350000036,
                    "velocity": 0.8740157480314961,
                    "duration": 0.1271185000000017
                },
                {
                    "name": "C#5",
                    "midi": 73,
                    "time": 59.99993200000036,
                    "velocity": 0.8818897637795275,
                    "duration": 0.1271185000000017
                },
                {
                    "name": "F5",
                    "midi": 77,
                    "time": 59.99993200000036,
                    "velocity": 0.8818897637795275,
                    "duration": 0.1271185000000017
                },
                {
                    "name": "D#5",
                    "midi": 75,
                    "time": 60.127050500000365,
                    "velocity": 0.889763779527559,
                    "duration": 0.1271185000000017
                },
                {
                    "name": "F#5",
                    "midi": 78,
                    "time": 60.127050500000365,
                    "velocity": 0.889763779527559,
                    "duration": 0.1271185000000017
                },
                {
                    "name": "F5",
                    "midi": 77,
                    "time": 60.25416900000037,
                    "velocity": 0.9763779527559056,
                    "duration": 0.5084739999999996
                },
                {
                    "name": "C#5",
                    "midi": 73,
                    "time": 60.25416900000037,
                    "velocity": 0.9763779527559056,
                    "duration": 0.5084739999999996
                },
                {
                    "name": "F4",
                    "midi": 65,
                    "time": 60.25416900000037,
                    "velocity": 0.9763779527559056,
                    "duration": 0.5084739999999996
                },
                {
                    "name": "A#5",
                    "midi": 82,
                    "time": 60.76264300000037,
                    "velocity": 0.8267716535433071,
                    "duration": 0.16525405000000148
                },
                {
                    "name": "F5",
                    "midi": 77,
                    "time": 60.76264300000037,
                    "velocity": 0.8267716535433071,
                    "duration": 0.16525405000000148
                },
                {
                    "name": "G5",
                    "midi": 79,
                    "time": 61.01688000000037,
                    "velocity": 0.968503937007874,
                    "duration": 0.5084739999999996
                },
                {
                    "name": "D5",
                    "midi": 74,
                    "time": 61.01688000000037,
                    "velocity": 0.968503937007874,
                    "duration": 0.5084739999999996
                },
                {
                    "name": "G#5",
                    "midi": 80,
                    "time": 61.52535400000037,
                    "velocity": 0.8188976377952756,
                    "duration": 0.16525405000000148
                },
                {
                    "name": "D#5",
                    "midi": 75,
                    "time": 61.52535400000037,
                    "velocity": 0.8188976377952756,
                    "duration": 0.16525405000000148
                },
                {
                    "name": "F5",
                    "midi": 77,
                    "time": 61.77959100000037,
                    "velocity": 0.9763779527559056,
                    "duration": 0.5084739999999996
                },
                {
                    "name": "C#5",
                    "midi": 73,
                    "time": 61.77959100000037,
                    "velocity": 0.9763779527559056,
                    "duration": 0.5084739999999996
                },
                {
                    "name": "F4",
                    "midi": 65,
                    "time": 61.77959100000037,
                    "velocity": 0.9763779527559056,
                    "duration": 0.5084739999999996
                },
                {
                    "name": "A#5",
                    "midi": 82,
                    "time": 62.28806500000037,
                    "velocity": 0.8267716535433071,
                    "duration": 0.16525405000000148
                },
                {
                    "name": "F5",
                    "midi": 77,
                    "time": 62.28806500000037,
                    "velocity": 0.8267716535433071,
                    "duration": 0.16525405000000148
                },
                {
                    "name": "G5",
                    "midi": 79,
                    "time": 62.542302000000376,
                    "velocity": 0.968503937007874,
                    "duration": 0.5084739999999996
                },
                {
                    "name": "D5",
                    "midi": 74,
                    "time": 62.542302000000376,
                    "velocity": 0.968503937007874,
                    "duration": 0.5084739999999996
                },
                {
                    "name": "G#5",
                    "midi": 80,
                    "time": 63.050776000000376,
                    "velocity": 0.8346456692913385,
                    "duration": 0.16525405000000148
                },
                {
                    "name": "D#5",
                    "midi": 75,
                    "time": 63.050776000000376,
                    "velocity": 0.8346456692913385,
                    "duration": 0.16525405000000148
                },
                {
                    "name": "F5",
                    "midi": 77,
                    "time": 63.30501300000038,
                    "velocity": 0.905511811023622,
                    "duration": 0.2542370000000034
                },
                {
                    "name": "C#5",
                    "midi": 73,
                    "time": 63.30501300000038,
                    "velocity": 0.905511811023622,
                    "duration": 0.2542370000000034
                },
                {
                    "name": "F4",
                    "midi": 65,
                    "time": 63.30501300000038,
                    "velocity": 0.905511811023622,
                    "duration": 0.2542370000000034
                },
                {
                    "name": "F5",
                    "midi": 77,
                    "time": 63.55925000000038,
                    "velocity": 0.905511811023622,
                    "duration": 0.1271185000000017
                },
                {
                    "name": "C#5",
                    "midi": 73,
                    "time": 63.55925000000038,
                    "velocity": 0.905511811023622,
                    "duration": 0.1271185000000017
                },
                {
                    "name": "F4",
                    "midi": 65,
                    "time": 63.55925000000038,
                    "velocity": 0.905511811023622,
                    "duration": 0.1271185000000017
                },
                {
                    "name": "F5",
                    "midi": 77,
                    "time": 63.686368500000384,
                    "velocity": 0.9212598425196851,
                    "duration": 0.1271185000000017
                },
                {
                    "name": "C#5",
                    "midi": 73,
                    "time": 63.686368500000384,
                    "velocity": 0.9212598425196851,
                    "duration": 0.1271185000000017
                },
                {
                    "name": "F4",
                    "midi": 65,
                    "time": 63.686368500000384,
                    "velocity": 0.9212598425196851,
                    "duration": 0.1271185000000017
                },
                {
                    "name": "F5",
                    "midi": 77,
                    "time": 63.813487000000386,
                    "velocity": 0.937007874015748,
                    "duration": 0.1271185000000017
                },
                {
                    "name": "C#5",
                    "midi": 73,
                    "time": 63.813487000000386,
                    "velocity": 0.937007874015748,
                    "duration": 0.1271185000000017
                },
                {
                    "name": "F4",
                    "midi": 65,
                    "time": 63.813487000000386,
                    "velocity": 0.937007874015748,
                    "duration": 0.1271185000000017
                },
                {
                    "name": "F5",
                    "midi": 77,
                    "time": 63.94060550000039,
                    "velocity": 0.952755905511811,
                    "duration": 0.12711849999999458
                },
                {
                    "name": "C#5",
                    "midi": 73,
                    "time": 63.94060550000039,
                    "velocity": 0.952755905511811,
                    "duration": 0.12711849999999458
                },
                {
                    "name": "F4",
                    "midi": 65,
                    "time": 63.94060550000039,
                    "velocity": 0.952755905511811,
                    "duration": 0.12711849999999458
                },
                {
                    "name": "F5",
                    "midi": 77,
                    "time": 64.06772400000038,
                    "velocity": 0.968503937007874,
                    "duration": 0.2542370000000034
                },
                {
                    "name": "C#5",
                    "midi": 73,
                    "time": 64.06772400000038,
                    "velocity": 0.968503937007874,
                    "duration": 0.2542370000000034
                },
                {
                    "name": "F4",
                    "midi": 65,
                    "time": 64.06772400000038,
                    "velocity": 0.968503937007874,
                    "duration": 0.2542370000000034
                },
                {
                    "name": "G#5",
                    "midi": 80,
                    "time": 65.84738300000039,
                    "velocity": 0.5905511811023622,
                    "duration": 0.2542370000000034
                },
                {
                    "name": "G5",
                    "midi": 79,
                    "time": 66.1016200000004,
                    "velocity": 0.5905511811023622,
                    "duration": 0.2542370000000034
                },
                {
                    "name": "A#5",
                    "midi": 82,
                    "time": 66.3717468125004,
                    "velocity": 0.5905511811023622,
                    "duration": 0.2542370000000034
                },
                {
                    "name": "F5",
                    "midi": 77,
                    "time": 66.6100940000004,
                    "velocity": 0.5905511811023622,
                    "duration": 0.2542370000000034
                },
                {
                    "name": "G#5",
                    "midi": 80,
                    "time": 66.8643310000004,
                    "velocity": 0.5905511811023622,
                    "duration": 0.2542370000000034
                },
                {
                    "name": "C#5",
                    "midi": 73,
                    "time": 67.13445781250041,
                    "velocity": 0.5905511811023622,
                    "duration": 0.2542370000000034
                },
                {
                    "name": "F#5",
                    "midi": 78,
                    "time": 67.37280500000041,
                    "velocity": 0.5905511811023622,
                    "duration": 0.2542370000000034
                },
                {
                    "name": "D#5",
                    "midi": 75,
                    "time": 67.62704200000042,
                    "velocity": 0.5905511811023622,
                    "duration": 0.2542370000000034
                },
                {
                    "name": "F5",
                    "midi": 77,
                    "time": 67.89716881250042,
                    "velocity": 0.5905511811023622,
                    "duration": 1.2711850000000027
                },
                {
                    "name": "G#5",
                    "midi": 80,
                    "time": 69.15246400000042,
                    "velocity": 0.5905511811023622,
                    "duration": 0.2542370000000034
                },
                {
                    "name": "D#5",
                    "midi": 75,
                    "time": 69.42259081250043,
                    "velocity": 0.5905511811023622,
                    "duration": 1.2711850000000027
                },
                {
                    "name": "G#5",
                    "midi": 80,
                    "time": 70.67788600000043,
                    "velocity": 0.5905511811023622,
                    "duration": 0.2542370000000034
                },
                {
                    "name": "F5",
                    "midi": 77,
                    "time": 70.94801281250044,
                    "velocity": 0.5905511811023622,
                    "duration": 0.9661006000000043
                },
                {
                    "name": "G#5",
                    "midi": 80,
                    "time": 71.94907100000044,
                    "velocity": 0.5905511811023622,
                    "duration": 0.2542370000000034
                },
                {
                    "name": "G5",
                    "midi": 79,
                    "time": 72.20330800000045,
                    "velocity": 0.5905511811023622,
                    "duration": 0.2542370000000034
                },
                {
                    "name": "A#5",
                    "midi": 82,
                    "time": 72.47343481250046,
                    "velocity": 0.5905511811023622,
                    "duration": 0.2542370000000034
                },
                {
                    "name": "G#5",
                    "midi": 80,
                    "time": 72.71178200000045,
                    "velocity": 0.5905511811023622,
                    "duration": 0.2542370000000034
                },
                {
                    "name": "C#6",
                    "midi": 85,
                    "time": 72.96601900000046,
                    "velocity": 0.5905511811023622,
                    "duration": 0.2542370000000034
                },
                {
                    "name": "A#5",
                    "midi": 82,
                    "time": 73.23614581250047,
                    "velocity": 0.5905511811023622,
                    "duration": 0.2542370000000034
                },
                {
                    "name": "D#6",
                    "midi": 87,
                    "time": 73.47449300000046,
                    "velocity": 0.5905511811023622,
                    "duration": 0.2542370000000034
                },
                {
                    "name": "C6",
                    "midi": 84,
                    "time": 73.72873000000047,
                    "velocity": 0.5905511811023622,
                    "duration": 0.2542370000000034
                },
                {
                    "name": "F6",
                    "midi": 89,
                    "time": 73.99885681250048,
                    "velocity": 0.5905511811023622,
                    "duration": 1.2711850000000027
                },
                {
                    "name": "G#6",
                    "midi": 92,
                    "time": 75.25415200000047,
                    "velocity": 0.5905511811023622,
                    "duration": 0.2542370000000034
                },
                {
                    "name": "D#6",
                    "midi": 87,
                    "time": 75.52427881250048,
                    "velocity": 0.5905511811023622,
                    "duration": 1.2711850000000027
                },
                {
                    "name": "G#6",
                    "midi": 92,
                    "time": 76.77957400000048,
                    "velocity": 0.5905511811023622,
                    "duration": 0.2542370000000034
                },
                {
                    "name": "C#6",
                    "midi": 85,
                    "time": 77.04970081250049,
                    "velocity": 0.5905511811023622,
                    "duration": 0.9703378833333289
                },
                {
                    "name": "C#6",
                    "midi": 85,
                    "time": 78.05075900000048,
                    "velocity": 0.5905511811023622,
                    "duration": 0.2542370000000034
                },
                {
                    "name": "D#6",
                    "midi": 87,
                    "time": 78.30499600000049,
                    "velocity": 0.5905511811023622,
                    "duration": 0.2542370000000034
                },
                {
                    "name": "E6",
                    "midi": 88,
                    "time": 78.55923300000049,
                    "velocity": 0.5905511811023622,
                    "duration": 0.2542370000000034
                },
                {
                    "name": "D#6",
                    "midi": 87,
                    "time": 78.81347000000049,
                    "velocity": 0.5905511811023622,
                    "duration": 0.2542370000000034
                },
                {
                    "name": "E6",
                    "midi": 88,
                    "time": 79.0677070000005,
                    "velocity": 0.5905511811023622,
                    "duration": 0.2542370000000034
                },
                {
                    "name": "C#6",
                    "midi": 85,
                    "time": 79.3219440000005,
                    "velocity": 0.5905511811023622,
                    "duration": 0.2542370000000034
                },
                {
                    "name": "D#6",
                    "midi": 87,
                    "time": 79.5761810000005,
                    "velocity": 0.5905511811023622,
                    "duration": 0.2542370000000034
                },
                {
                    "name": "E6",
                    "midi": 88,
                    "time": 79.8304180000005,
                    "velocity": 0.5905511811023622,
                    "duration": 0.2542370000000034
                },
                {
                    "name": "D#6",
                    "midi": 87,
                    "time": 80.08465500000051,
                    "velocity": 0.5905511811023622,
                    "duration": 0.2542370000000034
                },
                {
                    "name": "C#6",
                    "midi": 85,
                    "time": 80.33889200000051,
                    "velocity": 0.5905511811023622,
                    "duration": 0.2542370000000034
                },
                {
                    "name": "D#6",
                    "midi": 87,
                    "time": 80.59312900000052,
                    "velocity": 0.5905511811023622,
                    "duration": 0.2542370000000034
                },
                {
                    "name": "B5",
                    "midi": 83,
                    "time": 80.84736600000052,
                    "velocity": 0.5905511811023622,
                    "duration": 0.2542370000000034
                },
                {
                    "name": "C#6",
                    "midi": 85,
                    "time": 81.10160300000052,
                    "velocity": 0.5905511811023622,
                    "duration": 0.2542370000000034
                },
                {
                    "name": "D#6",
                    "midi": 87,
                    "time": 81.35584000000053,
                    "velocity": 0.5905511811023622,
                    "duration": 0.2542370000000034
                },
                {
                    "name": "A#5",
                    "midi": 82,
                    "time": 81.61007700000053,
                    "velocity": 0.5905511811023622,
                    "duration": 0.5084740000000068
                },
                {
                    "name": "D#5",
                    "midi": 75,
                    "time": 82.11855100000054,
                    "velocity": 0.5905511811023622,
                    "duration": 0.2542370000000034
                },
                {
                    "name": "G#5",
                    "midi": 80,
                    "time": 82.38867781250055,
                    "velocity": 0.5905511811023622,
                    "duration": 0.5084740000000068
                },
                {
                    "name": "D#5",
                    "midi": 75,
                    "time": 82.88126200000055,
                    "velocity": 0.5905511811023622,
                    "duration": 0.2542370000000034
                },
                {
                    "name": "F5",
                    "midi": 77,
                    "time": 83.15138881250056,
                    "velocity": 0.5905511811023622,
                    "duration": 0.2542370000000034
                },
                {
                    "name": "F#5",
                    "midi": 78,
                    "time": 83.38973600000055,
                    "velocity": 0.5905511811023622,
                    "duration": 0.2542370000000034
                },
                {
                    "name": "F5",
                    "midi": 77,
                    "time": 83.64397300000056,
                    "velocity": 0.5905511811023622,
                    "duration": 0.2542370000000034
                },
                {
                    "name": "D#5",
                    "midi": 75,
                    "time": 83.91409981250057,
                    "velocity": 0.5905511811023622,
                    "duration": 0.5084740000000068
                },
                {
                    "name": "C#5",
                    "midi": 73,
                    "time": 84.40668400000057,
                    "velocity": 0.5905511811023622,
                    "duration": 0.2542370000000034
                },
                {
                    "name": "G#4",
                    "midi": 68,
                    "time": 84.67681081250058,
                    "velocity": 0.5905511811023622,
                    "duration": 0.4618638833333364
                },
                {
                    "name": "A#5",
                    "midi": 82,
                    "time": 85.16939500000058,
                    "velocity": 0.5905511811023622,
                    "duration": 0.2542370000000034
                },
                {
                    "name": "F#5",
                    "midi": 78,
                    "time": 85.43952181250059,
                    "velocity": 0.5905511811023622,
                    "duration": 0.5084740000000068
                },
                {
                    "name": "C#5",
                    "midi": 73,
                    "time": 85.93210600000059,
                    "velocity": 0.5905511811023622,
                    "duration": 0.2542370000000034
                },
                {
                    "name": "G#4",
                    "midi": 68,
                    "time": 86.2022328125006,
                    "velocity": 0.5905511811023622,
                    "duration": 0.45550795833332813
                },
                {
                    "name": "A#5",
                    "midi": 82,
                    "time": 86.6948170000006,
                    "velocity": 0.5905511811023622,
                    "duration": 0.2542370000000034
                },
                {
                    "name": "F#5",
                    "midi": 78,
                    "time": 86.96494381250061,
                    "velocity": 0.5905511811023622,
                    "duration": 0.5084740000000068
                },
                {
                    "name": "C#5",
                    "midi": 73,
                    "time": 87.45752800000061,
                    "velocity": 0.5905511811023622,
                    "duration": 0.2542370000000034
                },
                {
                    "name": "D#5",
                    "midi": 75,
                    "time": 87.72765481250062,
                    "velocity": 0.5905511811023622,
                    "duration": 0.5084740000000068
                },
                {
                    "name": "F5",
                    "midi": 77,
                    "time": 88.22023900000062,
                    "velocity": 0.5905511811023622,
                    "duration": 0.2542370000000034
                },
                {
                    "name": "A#4",
                    "midi": 70,
                    "time": 88.49036581250063,
                    "velocity": 0.5905511811023622,
                    "duration": 0.5084740000000068
                },
                {
                    "name": "B4",
                    "midi": 71,
                    "time": 88.98295000000063,
                    "velocity": 0.5905511811023622,
                    "duration": 0.2542370000000034
                },
                {
                    "name": "G#4",
                    "midi": 68,
                    "time": 89.25307681250064,
                    "velocity": 0.5905511811023622,
                    "duration": 0.5084740000000068
                },
                {
                    "name": "A#4",
                    "midi": 70,
                    "time": 89.74566100000064,
                    "velocity": 0.5905511811023622,
                    "duration": 0.2542370000000034
                },
                {
                    "name": "F#4",
                    "midi": 66,
                    "time": 90.01578781250065,
                    "velocity": 0.5905511811023622,
                    "duration": 0.5084740000000068
                },
                {
                    "name": "G#4",
                    "midi": 68,
                    "time": 90.50837200000065,
                    "velocity": 0.5905511811023622,
                    "duration": 0.2542370000000034
                },
                {
                    "name": "F4",
                    "midi": 65,
                    "time": 90.77849881250066,
                    "velocity": 0.5905511811023622,
                    "duration": 0.7627109999999959
                },
                {
                    "name": "G#5",
                    "midi": 80,
                    "time": 91.77955700000065,
                    "velocity": 0.5905511811023622,
                    "duration": 0.2542370000000034
                },
                {
                    "name": "G5",
                    "midi": 79,
                    "time": 92.03379400000065,
                    "velocity": 0.5905511811023622,
                    "duration": 0.2542370000000034
                },
                {
                    "name": "A#5",
                    "midi": 82,
                    "time": 92.28803100000066,
                    "velocity": 0.5905511811023622,
                    "duration": 0.2542370000000034
                },
                {
                    "name": "F5",
                    "midi": 77,
                    "time": 92.54226800000066,
                    "velocity": 0.5905511811023622,
                    "duration": 0.2542370000000034
                },
                {
                    "name": "G#5",
                    "midi": 80,
                    "time": 92.79650500000066,
                    "velocity": 0.5905511811023622,
                    "duration": 0.2542370000000034
                },
                {
                    "name": "C#5",
                    "midi": 73,
                    "time": 93.06663181250067,
                    "velocity": 0.5905511811023622,
                    "duration": 0.2542370000000034
                },
                {
                    "name": "F#5",
                    "midi": 78,
                    "time": 93.30497900000067,
                    "velocity": 0.5905511811023622,
                    "duration": 0.2542370000000034
                },
                {
                    "name": "D#5",
                    "midi": 75,
                    "time": 93.55921600000067,
                    "velocity": 0.5905511811023622,
                    "duration": 0.2542370000000034
                },
                {
                    "name": "F5",
                    "midi": 77,
                    "time": 93.82934281250068,
                    "velocity": 0.5905511811023622,
                    "duration": 1.222456241666663
                },
                {
                    "name": "G#5",
                    "midi": 80,
                    "time": 95.08463800000068,
                    "velocity": 0.5905511811023622,
                    "duration": 0.2542370000000034
                },
                {
                    "name": "D#5",
                    "midi": 75,
                    "time": 95.35476481250069,
                    "velocity": 0.5905511811023622,
                    "duration": 1.2711850000000027
                },
                {
                    "name": "G#5",
                    "midi": 80,
                    "time": 96.61006000000069,
                    "velocity": 0.5905511811023622,
                    "duration": 0.2542370000000034
                },
                {
                    "name": "D5",
                    "midi": 74,
                    "time": 96.8801868125007,
                    "velocity": 0.5905511811023622,
                    "duration": 1.0169479999999993
                },
                {
                    "name": "C#5",
                    "midi": 73,
                    "time": 97.88124500000069,
                    "velocity": 0.5905511811023622,
                    "duration": 0.2542370000000034
                },
                {
                    "name": "D5",
                    "midi": 74,
                    "time": 98.13548200000069,
                    "velocity": 0.5905511811023622,
                    "duration": 0.2542370000000034
                },
                {
                    "name": "E5",
                    "midi": 76,
                    "time": 98.4056088125007,
                    "velocity": 0.5905511811023622,
                    "duration": 0.2542370000000034
                },
                {
                    "name": "C#5",
                    "midi": 73,
                    "time": 98.6439560000007,
                    "velocity": 0.5905511811023622,
                    "duration": 0.2542370000000034
                },
                {
                    "name": "A4",
                    "midi": 69,
                    "time": 98.8981930000007,
                    "velocity": 0.5905511811023622,
                    "duration": 0.2542370000000034
                },
                {
                    "name": "D5",
                    "midi": 74,
                    "time": 99.16831981250071,
                    "velocity": 0.5905511811023622,
                    "duration": 0.2542370000000034
                },
                {
                    "name": "E5",
                    "midi": 76,
                    "time": 99.40666700000071,
                    "velocity": 0.5905511811023622,
                    "duration": 0.2542370000000034
                },
                {
                    "name": "F5",
                    "midi": 77,
                    "time": 99.66090400000071,
                    "velocity": 0.5905511811023622,
                    "duration": 0.2542370000000034
                },
                {
                    "name": "G5",
                    "midi": 79,
                    "time": 99.93103081250072,
                    "velocity": 0.5905511811023622,
                    "duration": 0.2542370000000034
                },
                {
                    "name": "E5",
                    "midi": 76,
                    "time": 100.16937800000072,
                    "velocity": 0.5905511811023622,
                    "duration": 0.2542370000000034
                },
                {
                    "name": "C5",
                    "midi": 72,
                    "time": 100.42361500000072,
                    "velocity": 0.5905511811023622,
                    "duration": 0.2542370000000034
                },
                {
                    "name": "F5",
                    "midi": 77,
                    "time": 100.69374181250073,
                    "velocity": 0.5905511811023622,
                    "duration": 1.2139816749999994
                },
                {
                    "name": "A#5",
                    "midi": 82,
                    "time": 101.94903700000073,
                    "velocity": 0.5905511811023622,
                    "duration": 0.2542370000000034
                },
                {
                    "name": "D#5",
                    "midi": 75,
                    "time": 102.20327400000073,
                    "velocity": 0.5905511811023622,
                    "duration": 1.222456241666663
                },
                {
                    "name": "A#5",
                    "midi": 82,
                    "time": 103.47445900000073,
                    "velocity": 0.5590551181102362,
                    "duration": 0.2542370000000034
                },
                {
                    "name": "F5",
                    "midi": 77,
                    "time": 103.74458581250074,
                    "velocity": 0.5511811023622047,
                    "duration": 1.2711850000000027
                },
                {
                    "name": "A#5",
                    "midi": 82,
                    "time": 104.99988100000074,
                    "velocity": 0.5196850393700787,
                    "duration": 0.2542370000000034
                },
                {
                    "name": "G#5",
                    "midi": 80,
                    "time": 105.25411800000074,
                    "velocity": 0.5118110236220472,
                    "duration": 0.16525405000000148
                },
                {
                    "name": "F5",
                    "midi": 77,
                    "time": 105.25411800000074,
                    "velocity": 0.5118110236220472,
                    "duration": 0.16525405000000148
                },
                {
                    "name": "F5",
                    "midi": 77,
                    "time": 105.50835500000075,
                    "velocity": 0.5118110236220472,
                    "duration": 0.16525405000000148
                },
                {
                    "name": "G#5",
                    "midi": 80,
                    "time": 105.50835500000075,
                    "velocity": 0.5118110236220472,
                    "duration": 0.16525405000000148
                },
                {
                    "name": "F5",
                    "midi": 77,
                    "time": 105.76259200000075,
                    "velocity": 0.5118110236220472,
                    "duration": 0.16525405000000148
                },
                {
                    "name": "G#5",
                    "midi": 80,
                    "time": 105.76259200000075,
                    "velocity": 0.5118110236220472,
                    "duration": 0.16525405000000148
                },
                {
                    "name": "G#5",
                    "midi": 80,
                    "time": 106.01682900000075,
                    "velocity": 0.5118110236220472,
                    "duration": 0.16525405000000148
                },
                {
                    "name": "F5",
                    "midi": 77,
                    "time": 106.01682900000075,
                    "velocity": 0.5118110236220472,
                    "duration": 0.16525405000000148
                },
                {
                    "name": "F5",
                    "midi": 77,
                    "time": 106.27106600000076,
                    "velocity": 0.5118110236220472,
                    "duration": 0.16525405000000148
                },
                {
                    "name": "G#5",
                    "midi": 80,
                    "time": 106.27106600000076,
                    "velocity": 0.5118110236220472,
                    "duration": 0.16525405000000148
                },
                {
                    "name": "F5",
                    "midi": 77,
                    "time": 106.52530300000076,
                    "velocity": 0.5118110236220472,
                    "duration": 0.16525405000000148
                },
                {
                    "name": "G#5",
                    "midi": 80,
                    "time": 106.52530300000076,
                    "velocity": 0.5118110236220472,
                    "duration": 0.16525405000000148
                },
                {
                    "name": "F5",
                    "midi": 77,
                    "time": 106.77954000000076,
                    "velocity": 0.5118110236220472,
                    "duration": 0.16525405000000148
                },
                {
                    "name": "A#5",
                    "midi": 82,
                    "time": 106.77954000000076,
                    "velocity": 0.5118110236220472,
                    "duration": 0.16525405000000148
                },
                {
                    "name": "F5",
                    "midi": 77,
                    "time": 107.03377700000077,
                    "velocity": 0.5118110236220472,
                    "duration": 0.16525405000000148
                },
                {
                    "name": "A#5",
                    "midi": 82,
                    "time": 107.03377700000077,
                    "velocity": 0.5118110236220472,
                    "duration": 0.16525405000000148
                },
                {
                    "name": "F5",
                    "midi": 77,
                    "time": 107.28801400000077,
                    "velocity": 0.5118110236220472,
                    "duration": 0.16525405000000148
                },
                {
                    "name": "G#5",
                    "midi": 80,
                    "time": 107.28801400000077,
                    "velocity": 0.5118110236220472,
                    "duration": 0.16525405000000148
                },
                {
                    "name": "F5",
                    "midi": 77,
                    "time": 107.54225100000077,
                    "velocity": 0.5118110236220472,
                    "duration": 0.16525405000000148
                },
                {
                    "name": "A#5",
                    "midi": 82,
                    "time": 107.54225100000077,
                    "velocity": 0.5118110236220472,
                    "duration": 0.16525405000000148
                },
                {
                    "name": "F5",
                    "midi": 77,
                    "time": 107.79648800000078,
                    "velocity": 0.5118110236220472,
                    "duration": 0.16525405000000148
                },
                {
                    "name": "A#5",
                    "midi": 82,
                    "time": 107.79648800000078,
                    "velocity": 0.5118110236220472,
                    "duration": 0.16525405000000148
                },
                {
                    "name": "F5",
                    "midi": 77,
                    "time": 108.05072500000078,
                    "velocity": 0.5118110236220472,
                    "duration": 0.16525405000000148
                },
                {
                    "name": "G#5",
                    "midi": 80,
                    "time": 108.05072500000078,
                    "velocity": 0.5118110236220472,
                    "duration": 0.16525405000000148
                },
                {
                    "name": "F5",
                    "midi": 77,
                    "time": 108.30496200000078,
                    "velocity": 0.5118110236220472,
                    "duration": 0.16525405000000148
                },
                {
                    "name": "A#5",
                    "midi": 82,
                    "time": 108.30496200000078,
                    "velocity": 0.5118110236220472,
                    "duration": 0.16525405000000148
                },
                {
                    "name": "F5",
                    "midi": 77,
                    "time": 108.55919900000079,
                    "velocity": 0.5118110236220472,
                    "duration": 0.16525405000000148
                },
                {
                    "name": "A#5",
                    "midi": 82,
                    "time": 108.55919900000079,
                    "velocity": 0.5118110236220472,
                    "duration": 0.16525405000000148
                },
                {
                    "name": "F5",
                    "midi": 77,
                    "time": 108.81343600000079,
                    "velocity": 0.5118110236220472,
                    "duration": 0.16525405000000148
                },
                {
                    "name": "G#5",
                    "midi": 80,
                    "time": 108.81343600000079,
                    "velocity": 0.5118110236220472,
                    "duration": 0.16525405000000148
                },
                {
                    "name": "A#5",
                    "midi": 82,
                    "time": 109.0676730000008,
                    "velocity": 0.5118110236220472,
                    "duration": 0.16525405000000148
                },
                {
                    "name": "F5",
                    "midi": 77,
                    "time": 109.0676730000008,
                    "velocity": 0.5118110236220472,
                    "duration": 0.16525405000000148
                },
                {
                    "name": "G#5",
                    "midi": 80,
                    "time": 109.3219100000008,
                    "velocity": 0.5118110236220472,
                    "duration": 0.12711849999999458
                },
                {
                    "name": "F5",
                    "midi": 77,
                    "time": 109.3219100000008,
                    "velocity": 0.5118110236220472,
                    "duration": 0.25423699999998917
                },
                {
                    "name": "A#5",
                    "midi": 82,
                    "time": 109.4490285000008,
                    "velocity": 0.5118110236220472,
                    "duration": 0.12711849999999458
                },
                {
                    "name": "G#5",
                    "midi": 80,
                    "time": 109.57614700000079,
                    "velocity": 0.5118110236220472,
                    "duration": 0.12711849999999458
                },
                {
                    "name": "F5",
                    "midi": 77,
                    "time": 109.57614700000079,
                    "velocity": 0.5118110236220472,
                    "duration": 0.25423699999998917
                },
                {
                    "name": "A#5",
                    "midi": 82,
                    "time": 109.70326550000078,
                    "velocity": 0.5118110236220472,
                    "duration": 0.12711849999999458
                },
                {
                    "name": "F5",
                    "midi": 77,
                    "time": 109.83038400000078,
                    "velocity": 0.5118110236220472,
                    "duration": 0.16525405000000148
                },
                {
                    "name": "B5",
                    "midi": 83,
                    "time": 109.83038400000078,
                    "velocity": 0.5118110236220472,
                    "duration": 0.16525405000000148
                },
                {
                    "name": "F5",
                    "midi": 77,
                    "time": 110.08462100000078,
                    "velocity": 0.5118110236220472,
                    "duration": 0.16525405000000148
                },
                {
                    "name": "B5",
                    "midi": 83,
                    "time": 110.08462100000078,
                    "velocity": 0.5118110236220472,
                    "duration": 0.16525405000000148
                },
                {
                    "name": "F5",
                    "midi": 77,
                    "time": 110.33885800000078,
                    "velocity": 0.5118110236220472,
                    "duration": 0.16525405000000148
                },
                {
                    "name": "A#5",
                    "midi": 82,
                    "time": 110.33885800000078,
                    "velocity": 0.5118110236220472,
                    "duration": 0.16525405000000148
                },
                {
                    "name": "F5",
                    "midi": 77,
                    "time": 110.59309500000079,
                    "velocity": 0.5118110236220472,
                    "duration": 0.16525405000000148
                },
                {
                    "name": "G#5",
                    "midi": 80,
                    "time": 110.59309500000079,
                    "velocity": 0.5118110236220472,
                    "duration": 0.16525405000000148
                },
                {
                    "name": "F5",
                    "midi": 77,
                    "time": 110.84733200000079,
                    "velocity": 0.5118110236220472,
                    "duration": 0.25423699999998917
                },
                {
                    "name": "G#5",
                    "midi": 80,
                    "time": 110.84733200000079,
                    "velocity": 0.5118110236220472,
                    "duration": 0.12711849999999458
                },
                {
                    "name": "A#5",
                    "midi": 82,
                    "time": 110.97445050000078,
                    "velocity": 0.5118110236220472,
                    "duration": 0.12711849999999458
                },
                {
                    "name": "G#5",
                    "midi": 80,
                    "time": 111.10156900000078,
                    "velocity": 0.5118110236220472,
                    "duration": 0.12711849999999458
                },
                {
                    "name": "F5",
                    "midi": 77,
                    "time": 111.10156900000078,
                    "velocity": 0.5118110236220472,
                    "duration": 0.25423699999998917
                },
                {
                    "name": "A#5",
                    "midi": 82,
                    "time": 111.22868750000077,
                    "velocity": 0.5118110236220472,
                    "duration": 0.12711849999999458
                },
                {
                    "name": "B5",
                    "midi": 83,
                    "time": 111.35580600000077,
                    "velocity": 0.5118110236220472,
                    "duration": 0.16525405000000148
                },
                {
                    "name": "F5",
                    "midi": 77,
                    "time": 111.35580600000077,
                    "velocity": 0.5118110236220472,
                    "duration": 0.16525405000000148
                },
                {
                    "name": "B5",
                    "midi": 83,
                    "time": 111.61004300000077,
                    "velocity": 0.5118110236220472,
                    "duration": 0.16525405000000148
                },
                {
                    "name": "F5",
                    "midi": 77,
                    "time": 111.61004300000077,
                    "velocity": 0.5118110236220472,
                    "duration": 0.16525405000000148
                },
                {
                    "name": "A#5",
                    "midi": 82,
                    "time": 111.86428000000078,
                    "velocity": 0.5118110236220472,
                    "duration": 0.16525405000000148
                },
                {
                    "name": "F5",
                    "midi": 77,
                    "time": 111.86428000000078,
                    "velocity": 0.5118110236220472,
                    "duration": 0.16525405000000148
                },
                {
                    "name": "F5",
                    "midi": 77,
                    "time": 112.11851700000078,
                    "velocity": 0.5118110236220472,
                    "duration": 0.16525405000000148
                },
                {
                    "name": "G#5",
                    "midi": 80,
                    "time": 112.11851700000078,
                    "velocity": 0.5118110236220472,
                    "duration": 0.16525405000000148
                },
                {
                    "name": "F#5",
                    "midi": 78,
                    "time": 112.37275400000078,
                    "velocity": 0.5118110236220472,
                    "duration": 0.12711849999999458
                },
                {
                    "name": "F5",
                    "midi": 77,
                    "time": 112.49987250000078,
                    "velocity": 0.5118110236220472,
                    "duration": 0.12711849999999458
                },
                {
                    "name": "F5",
                    "midi": 77,
                    "time": 112.62699100000077,
                    "velocity": 0.5118110236220472,
                    "duration": 0.12711849999999458
                },
                {
                    "name": "F#5",
                    "midi": 78,
                    "time": 112.75410950000077,
                    "velocity": 0.5118110236220472,
                    "duration": 0.12711849999999458
                },
                {
                    "name": "G5",
                    "midi": 79,
                    "time": 112.88122800000076,
                    "velocity": 0.7480314960629921,
                    "duration": 0.2542370000000034
                },
                {
                    "name": "D5",
                    "midi": 74,
                    "time": 113.13546500000076,
                    "velocity": 0.5118110236220472,
                    "duration": 0.16525405000000148
                },
                {
                    "name": "D5",
                    "midi": 74,
                    "time": 113.38970200000077,
                    "velocity": 0.5118110236220472,
                    "duration": 0.16525405000000148
                },
                {
                    "name": "G#5",
                    "midi": 80,
                    "time": 113.64393900000077,
                    "velocity": 0.7480314960629921,
                    "duration": 0.2542370000000034
                },
                {
                    "name": "C#5",
                    "midi": 73,
                    "time": 113.89817600000077,
                    "velocity": 0.5118110236220472,
                    "duration": 0.16525405000000148
                },
                {
                    "name": "C#5",
                    "midi": 73,
                    "time": 114.15241300000078,
                    "velocity": 0.5118110236220472,
                    "duration": 0.16525405000000148
                },
                {
                    "name": "G5",
                    "midi": 79,
                    "time": 114.40665000000078,
                    "velocity": 0.5118110236220472,
                    "duration": 0.12499985833333938
                },
                {
                    "name": "F#5",
                    "midi": 78,
                    "time": 114.53376850000079,
                    "velocity": 0.5196850393700787,
                    "duration": 0.12499985833333938
                },
                {
                    "name": "G5",
                    "midi": 79,
                    "time": 114.6608870000008,
                    "velocity": 0.5275590551181102,
                    "duration": 0.12499985833333938
                },
                {
                    "name": "G#5",
                    "midi": 80,
                    "time": 114.7880055000008,
                    "velocity": 0.5354330708661418,
                    "duration": 0.12499985833333938
                },
                {
                    "name": "A#5",
                    "midi": 82,
                    "time": 114.91512400000082,
                    "velocity": 0.5511811023622047,
                    "duration": 0.12499985833333938
                },
                {
                    "name": "C6",
                    "midi": 84,
                    "time": 115.04224250000082,
                    "velocity": 0.5590551181102362,
                    "duration": 0.12499985833333938
                },
                {
                    "name": "A#5",
                    "midi": 82,
                    "time": 115.16936100000083,
                    "velocity": 0.5669291338582677,
                    "duration": 0.12499985833333938
                },
                {
                    "name": "G#5",
                    "midi": 80,
                    "time": 115.29647950000084,
                    "velocity": 0.5748031496062992,
                    "duration": 0.12499985833333938
                },
                {
                    "name": "A#5",
                    "midi": 82,
                    "time": 115.42359800000085,
                    "velocity": 0.5905511811023622,
                    "duration": 0.12499985833333938
                },
                {
                    "name": "G#5",
                    "midi": 80,
                    "time": 115.55071650000086,
                    "velocity": 0.5984251968503937,
                    "duration": 0.12499985833333938
                },
                {
                    "name": "F5",
                    "midi": 77,
                    "time": 115.67783500000087,
                    "velocity": 0.6062992125984252,
                    "duration": 0.12499985833333938
                },
                {
                    "name": "F#5",
                    "midi": 78,
                    "time": 115.80495350000088,
                    "velocity": 0.6141732283464567,
                    "duration": 0.12499985833333938
                },
                {
                    "name": "G5",
                    "midi": 79,
                    "time": 115.93207200000089,
                    "velocity": 0.6299212598425197,
                    "duration": 0.12499985833333938
                },
                {
                    "name": "F#5",
                    "midi": 78,
                    "time": 116.0591905000009,
                    "velocity": 0.6377952755905512,
                    "duration": 0.12499985833333938
                },
                {
                    "name": "G5",
                    "midi": 79,
                    "time": 116.1863090000009,
                    "velocity": 0.6456692913385826,
                    "duration": 0.12499985833333938
                },
                {
                    "name": "G#5",
                    "midi": 80,
                    "time": 116.31342750000091,
                    "velocity": 0.6535433070866141,
                    "duration": 0.12499985833333938
                },
                {
                    "name": "A#5",
                    "midi": 82,
                    "time": 116.44054600000092,
                    "velocity": 0.6692913385826772,
                    "duration": 0.12499985833333938
                },
                {
                    "name": "C6",
                    "midi": 84,
                    "time": 116.56766450000093,
                    "velocity": 0.6771653543307087,
                    "duration": 0.12499985833333938
                },
                {
                    "name": "A#5",
                    "midi": 82,
                    "time": 116.69478300000094,
                    "velocity": 0.6850393700787402,
                    "duration": 0.12499985833333938
                },
                {
                    "name": "G#5",
                    "midi": 80,
                    "time": 116.82190150000095,
                    "velocity": 0.6929133858267716,
                    "duration": 0.12499985833333938
                },
                {
                    "name": "A#5",
                    "midi": 82,
                    "time": 116.94902000000096,
                    "velocity": 0.7086614173228346,
                    "duration": 0.12499985833333938
                },
                {
                    "name": "G#5",
                    "midi": 80,
                    "time": 117.07613850000097,
                    "velocity": 0.7165354330708661,
                    "duration": 0.12499985833333938
                },
                {
                    "name": "F5",
                    "midi": 77,
                    "time": 117.20325700000097,
                    "velocity": 0.7244094488188977,
                    "duration": 0.2542370000000034
                },
                {
                    "name": "C6",
                    "midi": 84,
                    "time": 117.45749400000098,
                    "velocity": 0.7480314960629921,
                    "duration": 0.5084740000000068
                },
                {
                    "name": "C5",
                    "midi": 72,
                    "time": 117.45749400000098,
                    "velocity": 0.7480314960629921,
                    "duration": 0.5084740000000068
                },
                {
                    "name": "C#6",
                    "midi": 85,
                    "time": 117.96596800000098,
                    "velocity": 0.7874015748031497,
                    "duration": 0.2542370000000034
                },
                {
                    "name": "C#5",
                    "midi": 73,
                    "time": 117.96596800000098,
                    "velocity": 0.7874015748031497,
                    "duration": 0.2542370000000034
                },
                {
                    "name": "D#6",
                    "midi": 87,
                    "time": 118.22020500000099,
                    "velocity": 0.8031496062992126,
                    "duration": 0.2542370000000034
                },
                {
                    "name": "D#5",
                    "midi": 75,
                    "time": 118.22020500000099,
                    "velocity": 0.8031496062992126,
                    "duration": 0.2542370000000034
                },
                {
                    "name": "A#5",
                    "midi": 82,
                    "time": 118.47444200000099,
                    "velocity": 0.8267716535433071,
                    "duration": 0.16525405000000148
                },
                {
                    "name": "A#4",
                    "midi": 70,
                    "time": 118.47444200000099,
                    "velocity": 0.8267716535433071,
                    "duration": 0.16525405000000148
                },
                {
                    "name": "C6",
                    "midi": 84,
                    "time": 118.728679000001,
                    "velocity": 0.8267716535433071,
                    "duration": 0.16525405000000148
                },
                {
                    "name": "C5",
                    "midi": 72,
                    "time": 118.728679000001,
                    "velocity": 0.8267716535433071,
                    "duration": 0.16525405000000148
                },
                {
                    "name": "C#6",
                    "midi": 85,
                    "time": 118.982916000001,
                    "velocity": 0.8267716535433071,
                    "duration": 0.16525405000000148
                },
                {
                    "name": "C#5",
                    "midi": 73,
                    "time": 118.982916000001,
                    "velocity": 0.8267716535433071,
                    "duration": 0.16525405000000148
                },
                {
                    "name": "C6",
                    "midi": 84,
                    "time": 119.237153000001,
                    "velocity": 0.8267716535433071,
                    "duration": 0.08262702499999364
                },
                {
                    "name": "G#5",
                    "midi": 80,
                    "time": 119.237153000001,
                    "velocity": 0.8267716535433071,
                    "duration": 0.08262702499999364
                },
                {
                    "name": "A#5",
                    "midi": 82,
                    "time": 119.364271500001,
                    "velocity": 0.8267716535433071,
                    "duration": 0.08262702499999364
                },
                {
                    "name": "F#5",
                    "midi": 78,
                    "time": 119.364271500001,
                    "velocity": 0.8267716535433071,
                    "duration": 0.08262702499999364
                },
                {
                    "name": "G#5",
                    "midi": 80,
                    "time": 119.49139000000099,
                    "velocity": 0.8267716535433071,
                    "duration": 0.08262702499999364
                },
                {
                    "name": "F5",
                    "midi": 77,
                    "time": 119.49139000000099,
                    "velocity": 0.8267716535433071,
                    "duration": 0.08262702499999364
                },
                {
                    "name": "F#5",
                    "midi": 78,
                    "time": 119.61850850000098,
                    "velocity": 0.8267716535433071,
                    "duration": 0.08262702499999364
                },
                {
                    "name": "D#5",
                    "midi": 75,
                    "time": 119.61850850000098,
                    "velocity": 0.8267716535433071,
                    "duration": 0.08262702499999364
                },
                {
                    "name": "D5",
                    "midi": 74,
                    "time": 119.74562700000098,
                    "velocity": 0.8267716535433071,
                    "duration": 0.16525405000000148
                },
                {
                    "name": "F5",
                    "midi": 77,
                    "time": 119.74562700000098,
                    "velocity": 0.8267716535433071,
                    "duration": 0.16525405000000148
                },
                {
                    "name": "F5",
                    "midi": 77,
                    "time": 119.99986400000098,
                    "velocity": 0.8346456692913385,
                    "duration": 0.16525405000000148
                },
                {
                    "name": "D5",
                    "midi": 74,
                    "time": 119.99986400000098,
                    "velocity": 0.8346456692913385,
                    "duration": 0.16525405000000148
                },
                {
                    "name": "E5",
                    "midi": 76,
                    "time": 120.25410100000099,
                    "velocity": 0.84251968503937,
                    "duration": 0.16525405000000148
                },
                {
                    "name": "A4",
                    "midi": 69,
                    "time": 120.25410100000099,
                    "velocity": 0.84251968503937,
                    "duration": 0.16525405000000148
                },
                {
                    "name": "D5",
                    "midi": 74,
                    "time": 120.50833800000099,
                    "velocity": 0.8503937007874016,
                    "duration": 0.16525405000000148
                },
                {
                    "name": "F5",
                    "midi": 77,
                    "time": 120.50833800000099,
                    "velocity": 0.8503937007874016,
                    "duration": 0.16525405000000148
                },
                {
                    "name": "F5",
                    "midi": 77,
                    "time": 120.762575000001,
                    "velocity": 0.8582677165354331,
                    "duration": 0.16525405000000148
                },
                {
                    "name": "D5",
                    "midi": 74,
                    "time": 120.762575000001,
                    "velocity": 0.8582677165354331,
                    "duration": 0.16525405000000148
                },
                {
                    "name": "D#5",
                    "midi": 75,
                    "time": 121.016812000001,
                    "velocity": 0.8661417322834646,
                    "duration": 0.16525405000000148
                },
                {
                    "name": "G#4",
                    "midi": 68,
                    "time": 121.016812000001,
                    "velocity": 0.8661417322834646,
                    "duration": 0.16525405000000148
                },
                {
                    "name": "D5",
                    "midi": 74,
                    "time": 121.271049000001,
                    "velocity": 0.8740157480314961,
                    "duration": 0.16525405000000148
                },
                {
                    "name": "F5",
                    "midi": 77,
                    "time": 121.271049000001,
                    "velocity": 0.8740157480314961,
                    "duration": 0.16525405000000148
                },
                {
                    "name": "D5",
                    "midi": 74,
                    "time": 121.525286000001,
                    "velocity": 0.8818897637795275,
                    "duration": 0.16525405000000148
                },
                {
                    "name": "G4",
                    "midi": 67,
                    "time": 121.525286000001,
                    "velocity": 0.8818897637795275,
                    "duration": 0.16525405000000148
                },
                {
                    "name": "F5",
                    "midi": 77,
                    "time": 121.779523000001,
                    "velocity": 0.889763779527559,
                    "duration": 0.16525405000000148
                },
                {
                    "name": "D5",
                    "midi": 74,
                    "time": 121.779523000001,
                    "velocity": 0.889763779527559,
                    "duration": 0.16525405000000148
                },
                {
                    "name": "F#4",
                    "midi": 66,
                    "time": 122.03376000000101,
                    "velocity": 0.8976377952755905,
                    "duration": 0.16525405000000148
                },
                {
                    "name": "C#5",
                    "midi": 73,
                    "time": 122.03376000000101,
                    "velocity": 0.8976377952755905,
                    "duration": 0.16525405000000148
                },
                {
                    "name": "F5",
                    "midi": 77,
                    "time": 122.28799700000101,
                    "velocity": 0.905511811023622,
                    "duration": 0.16525405000000148
                },
                {
                    "name": "D5",
                    "midi": 74,
                    "time": 122.28799700000101,
                    "velocity": 0.905511811023622,
                    "duration": 0.16525405000000148
                },
                {
                    "name": "G#3",
                    "midi": 56,
                    "time": 122.54223400000102,
                    "velocity": 0.905511811023622,
                    "duration": 0.16525405000000148
                },
                {
                    "name": "C#4",
                    "midi": 61,
                    "time": 122.79647100000102,
                    "velocity": 0.905511811023622,
                    "duration": 0.16525405000000148
                },
                {
                    "name": "C#5",
                    "midi": 73,
                    "time": 123.05070800000102,
                    "velocity": 0.905511811023622,
                    "duration": 0.08262702499999364
                },
                {
                    "name": "C#6",
                    "midi": 85,
                    "time": 123.05070800000102,
                    "velocity": 0.905511811023622,
                    "duration": 0.08262702499999364
                },
                {
                    "name": "D#6",
                    "midi": 87,
                    "time": 123.17782650000102,
                    "velocity": 0.905511811023622,
                    "duration": 0.08262702499999364
                },
                {
                    "name": "D#5",
                    "midi": 75,
                    "time": 123.17782650000102,
                    "velocity": 0.905511811023622,
                    "duration": 0.08262702499999364
                },
                {
                    "name": "C#6",
                    "midi": 85,
                    "time": 123.30494500000101,
                    "velocity": 0.905511811023622,
                    "duration": 0.08262702499999364
                },
                {
                    "name": "C#5",
                    "midi": 73,
                    "time": 123.30494500000101,
                    "velocity": 0.905511811023622,
                    "duration": 0.08262702499999364
                },
                {
                    "name": "C5",
                    "midi": 72,
                    "time": 123.43206350000101,
                    "velocity": 0.905511811023622,
                    "duration": 0.08262702499999364
                },
                {
                    "name": "C6",
                    "midi": 84,
                    "time": 123.43206350000101,
                    "velocity": 0.905511811023622,
                    "duration": 0.08262702499999364
                },
                {
                    "name": "A#5",
                    "midi": 82,
                    "time": 123.559182000001,
                    "velocity": 0.905511811023622,
                    "duration": 0.16525405000000148
                },
                {
                    "name": "A#4",
                    "midi": 70,
                    "time": 123.559182000001,
                    "velocity": 0.905511811023622,
                    "duration": 0.16525405000000148
                },
                {
                    "name": "A#4",
                    "midi": 70,
                    "time": 123.813419000001,
                    "velocity": 0.905511811023622,
                    "duration": 0.08262702499999364
                },
                {
                    "name": "A#5",
                    "midi": 82,
                    "time": 123.813419000001,
                    "velocity": 0.905511811023622,
                    "duration": 0.08262702499999364
                },
                {
                    "name": "C6",
                    "midi": 84,
                    "time": 123.940537500001,
                    "velocity": 0.905511811023622,
                    "duration": 0.08262702499999364
                },
                {
                    "name": "C5",
                    "midi": 72,
                    "time": 123.940537500001,
                    "velocity": 0.905511811023622,
                    "duration": 0.08262702499999364
                },
                {
                    "name": "A#5",
                    "midi": 82,
                    "time": 124.067656000001,
                    "velocity": 0.905511811023622,
                    "duration": 0.08262702499999364
                },
                {
                    "name": "A#4",
                    "midi": 70,
                    "time": 124.067656000001,
                    "velocity": 0.905511811023622,
                    "duration": 0.08262702499999364
                },
                {
                    "name": "G#4",
                    "midi": 68,
                    "time": 124.19477450000099,
                    "velocity": 0.905511811023622,
                    "duration": 0.08262702499999364
                },
                {
                    "name": "G#5",
                    "midi": 80,
                    "time": 124.19477450000099,
                    "velocity": 0.905511811023622,
                    "duration": 0.08262702499999364
                },
                {
                    "name": "F#5",
                    "midi": 78,
                    "time": 124.32189300000098,
                    "velocity": 0.905511811023622,
                    "duration": 0.16525405000000148
                },
                {
                    "name": "F#4",
                    "midi": 66,
                    "time": 124.32189300000098,
                    "velocity": 0.905511811023622,
                    "duration": 0.16525405000000148
                },
                {
                    "name": "F#5",
                    "midi": 78,
                    "time": 124.57613000000099,
                    "velocity": 0.905511811023622,
                    "duration": 0.16525405000000148
                },
                {
                    "name": "F#4",
                    "midi": 66,
                    "time": 124.57613000000099,
                    "velocity": 0.905511811023622,
                    "duration": 0.16525405000000148
                },
                {
                    "name": "C#5",
                    "midi": 73,
                    "time": 124.83036700000099,
                    "velocity": 0.905511811023622,
                    "duration": 0.16525405000000148
                },
                {
                    "name": "C#4",
                    "midi": 61,
                    "time": 124.83036700000099,
                    "velocity": 0.905511811023622,
                    "duration": 0.16525405000000148
                },
                {
                    "name": "F#5",
                    "midi": 78,
                    "time": 125.084604000001,
                    "velocity": 0.984251968503937,
                    "duration": 0.5084740000000068
                },
                {
                    "name": "F#4",
                    "midi": 66,
                    "time": 125.084604000001,
                    "velocity": 0.984251968503937,
                    "duration": 0.5084740000000068
                },
                {
                    "name": "C#5",
                    "midi": 73,
                    "time": 125.593078000001,
                    "velocity": 0.8582677165354331,
                    "duration": 0.16525405000000148
                },
                {
                    "name": "C#4",
                    "midi": 61,
                    "time": 125.593078000001,
                    "velocity": 0.8582677165354331,
                    "duration": 0.16525405000000148
                },
                {
                    "name": "F#4",
                    "midi": 66,
                    "time": 125.847315000001,
                    "velocity": 0.905511811023622,
                    "duration": 0.16525405000000148
                },
                {
                    "name": "F#5",
                    "midi": 78,
                    "time": 125.847315000001,
                    "velocity": 0.905511811023622,
                    "duration": 0.16525405000000148
                },
                {
                    "name": "F#4",
                    "midi": 66,
                    "time": 126.101552000001,
                    "velocity": 0.905511811023622,
                    "duration": 0.16525405000000148
                },
                {
                    "name": "F#5",
                    "midi": 78,
                    "time": 126.101552000001,
                    "velocity": 0.905511811023622,
                    "duration": 0.16525405000000148
                },
                {
                    "name": "C#4",
                    "midi": 61,
                    "time": 126.35578900000101,
                    "velocity": 0.905511811023622,
                    "duration": 0.16525405000000148
                },
                {
                    "name": "C#5",
                    "midi": 73,
                    "time": 126.35578900000101,
                    "velocity": 0.905511811023622,
                    "duration": 0.16525405000000148
                },
                {
                    "name": "F#5",
                    "midi": 78,
                    "time": 126.61002600000101,
                    "velocity": 0.905511811023622,
                    "duration": 0.16525405000000148
                },
                {
                    "name": "F#4",
                    "midi": 66,
                    "time": 126.61002600000101,
                    "velocity": 0.905511811023622,
                    "duration": 0.16525405000000148
                },
                {
                    "name": "A#5",
                    "midi": 82,
                    "time": 126.86426300000102,
                    "velocity": 0.905511811023622,
                    "duration": 0.16525405000000148
                },
                {
                    "name": "A#4",
                    "midi": 70,
                    "time": 126.86426300000102,
                    "velocity": 0.905511811023622,
                    "duration": 0.16525405000000148
                },
                {
                    "name": "F5",
                    "midi": 77,
                    "time": 126.86426300000102,
                    "velocity": 0.905511811023622,
                    "duration": 0.16525405000000148
                },
                {
                    "name": "C#5",
                    "midi": 73,
                    "time": 127.11850000000102,
                    "velocity": 0.905511811023622,
                    "duration": 0.16525405000000148
                },
                {
                    "name": "C#4",
                    "midi": 61,
                    "time": 127.11850000000102,
                    "velocity": 0.905511811023622,
                    "duration": 0.16525405000000148
                },
                {
                    "name": "D#5",
                    "midi": 75,
                    "time": 127.37273700000102,
                    "velocity": 0.8740157480314961,
                    "duration": 0.2542370000000034
                },
                {
                    "name": "C5",
                    "midi": 72,
                    "time": 127.37273700000102,
                    "velocity": 0.8740157480314961,
                    "duration": 0.2542370000000034
                },
                {
                    "name": "D#4",
                    "midi": 63,
                    "time": 127.37273700000102,
                    "velocity": 0.8740157480314961,
                    "duration": 0.2542370000000034
                },
                {
                    "name": "A#5",
                    "midi": 82,
                    "time": 127.62697400000103,
                    "velocity": 0.9921259842519685,
                    "duration": 0.2542370000000034
                },
                {
                    "name": "A#4",
                    "midi": 70,
                    "time": 127.62697400000103,
                    "velocity": 0.9921259842519685,
                    "duration": 0.2542370000000034
                },
                {
                    "name": "F5",
                    "midi": 77,
                    "time": 127.88121100000103,
                    "velocity": 0.8661417322834646,
                    "duration": 0.25423699999998917
                },
                {
                    "name": "C#5",
                    "midi": 73,
                    "time": 127.88121100000103,
                    "velocity": 0.8661417322834646,
                    "duration": 0.25423699999998917
                },
                {
                    "name": "F4",
                    "midi": 65,
                    "time": 127.88121100000103,
                    "velocity": 0.8661417322834646,
                    "duration": 0.25423699999998917
                },
                {
                    "name": "F#5",
                    "midi": 78,
                    "time": 128.13544800000102,
                    "velocity": 0.8661417322834646,
                    "duration": 0.25423699999998917
                },
                {
                    "name": "D#5",
                    "midi": 75,
                    "time": 128.13544800000102,
                    "velocity": 0.8661417322834646,
                    "duration": 0.25423699999998917
                },
                {
                    "name": "F#4",
                    "midi": 66,
                    "time": 128.13544800000102,
                    "velocity": 0.8661417322834646,
                    "duration": 0.25423699999998917
                },
                {
                    "name": "A#5",
                    "midi": 82,
                    "time": 128.389685000001,
                    "velocity": 0.984251968503937,
                    "duration": 0.25423699999998917
                },
                {
                    "name": "A#4",
                    "midi": 70,
                    "time": 128.389685000001,
                    "velocity": 0.984251968503937,
                    "duration": 0.25423699999998917
                },
                {
                    "name": "F5",
                    "midi": 77,
                    "time": 128.643922000001,
                    "velocity": 0.8582677165354331,
                    "duration": 0.25423699999998917
                },
                {
                    "name": "C#5",
                    "midi": 73,
                    "time": 128.643922000001,
                    "velocity": 0.8582677165354331,
                    "duration": 0.25423699999998917
                },
                {
                    "name": "F4",
                    "midi": 65,
                    "time": 128.643922000001,
                    "velocity": 0.8582677165354331,
                    "duration": 0.25423699999998917
                },
                {
                    "name": "D#5",
                    "midi": 75,
                    "time": 128.898159000001,
                    "velocity": 0.8582677165354331,
                    "duration": 0.25423699999998917
                },
                {
                    "name": "C5",
                    "midi": 72,
                    "time": 128.898159000001,
                    "velocity": 0.8582677165354331,
                    "duration": 0.25423699999998917
                },
                {
                    "name": "D#4",
                    "midi": 63,
                    "time": 128.898159000001,
                    "velocity": 0.8582677165354331,
                    "duration": 0.25423699999998917
                },
                {
                    "name": "A#5",
                    "midi": 82,
                    "time": 129.15239600000098,
                    "velocity": 0.9763779527559056,
                    "duration": 0.25423699999998917
                },
                {
                    "name": "A#4",
                    "midi": 70,
                    "time": 129.15239600000098,
                    "velocity": 0.9763779527559056,
                    "duration": 0.25423699999998917
                },
                {
                    "name": "F5",
                    "midi": 77,
                    "time": 129.40663300000097,
                    "velocity": 0.8346456692913385,
                    "duration": 0.25423699999998917
                },
                {
                    "name": "C#5",
                    "midi": 73,
                    "time": 129.40663300000097,
                    "velocity": 0.8346456692913385,
                    "duration": 0.25423699999998917
                },
                {
                    "name": "F4",
                    "midi": 65,
                    "time": 129.40663300000097,
                    "velocity": 0.8346456692913385,
                    "duration": 0.25423699999998917
                },
                {
                    "name": "F#5",
                    "midi": 78,
                    "time": 129.66087000000095,
                    "velocity": 0.905511811023622,
                    "duration": 0.25423699999998917
                },
                {
                    "name": "D#5",
                    "midi": 75,
                    "time": 129.66087000000095,
                    "velocity": 0.905511811023622,
                    "duration": 0.25423699999998917
                },
                {
                    "name": "F#4",
                    "midi": 66,
                    "time": 129.66087000000095,
                    "velocity": 0.905511811023622,
                    "duration": 0.25423699999998917
                },
                {
                    "name": "F5",
                    "midi": 77,
                    "time": 129.91510700000094,
                    "velocity": 0.905511811023622,
                    "duration": 0.25423699999998917
                },
                {
                    "name": "D#5",
                    "midi": 75,
                    "time": 129.91510700000094,
                    "velocity": 0.905511811023622,
                    "duration": 0.25423699999998917
                },
                {
                    "name": "F4",
                    "midi": 65,
                    "time": 129.91510700000094,
                    "velocity": 0.905511811023622,
                    "duration": 0.25423699999998917
                },
                {
                    "name": "F#5",
                    "midi": 78,
                    "time": 130.16934400000093,
                    "velocity": 0.905511811023622,
                    "duration": 0.25423699999998917
                },
                {
                    "name": "D#5",
                    "midi": 75,
                    "time": 130.16934400000093,
                    "velocity": 0.905511811023622,
                    "duration": 0.25423699999998917
                },
                {
                    "name": "F#4",
                    "midi": 66,
                    "time": 130.16934400000093,
                    "velocity": 0.905511811023622,
                    "duration": 0.25423699999998917
                },
                {
                    "name": "G5",
                    "midi": 79,
                    "time": 130.42358100000092,
                    "velocity": 0.9921259842519685,
                    "duration": 0.25423699999998917
                },
                {
                    "name": "D5",
                    "midi": 74,
                    "time": 130.42358100000092,
                    "velocity": 0.9921259842519685,
                    "duration": 0.25423699999998917
                },
                {
                    "name": "G4",
                    "midi": 67,
                    "time": 130.42358100000092,
                    "velocity": 0.9921259842519685,
                    "duration": 0.25423699999998917
                },
                {
                    "name": "D5",
                    "midi": 74,
                    "time": 130.6778180000009,
                    "velocity": 0.84251968503937,
                    "duration": 0.16525404999998727
                },
                {
                    "name": "G4",
                    "midi": 67,
                    "time": 130.6778180000009,
                    "velocity": 0.84251968503937,
                    "duration": 0.16525404999998727
                },
                {
                    "name": "D4",
                    "midi": 62,
                    "time": 130.6778180000009,
                    "velocity": 0.84251968503937,
                    "duration": 0.16525404999998727
                },
                {
                    "name": "D5",
                    "midi": 74,
                    "time": 130.9320550000009,
                    "velocity": 0.84251968503937,
                    "duration": 0.16525404999998727
                },
                {
                    "name": "G4",
                    "midi": 67,
                    "time": 130.9320550000009,
                    "velocity": 0.84251968503937,
                    "duration": 0.16525404999998727
                },
                {
                    "name": "D4",
                    "midi": 62,
                    "time": 130.9320550000009,
                    "velocity": 0.84251968503937,
                    "duration": 0.16525404999998727
                },
                {
                    "name": "G#5",
                    "midi": 80,
                    "time": 131.1862920000009,
                    "velocity": 0.9763779527559056,
                    "duration": 0.25423699999998917
                },
                {
                    "name": "C#5",
                    "midi": 73,
                    "time": 131.1862920000009,
                    "velocity": 0.9763779527559056,
                    "duration": 0.25423699999998917
                },
                {
                    "name": "G#4",
                    "midi": 68,
                    "time": 131.1862920000009,
                    "velocity": 0.9763779527559056,
                    "duration": 0.25423699999998917
                },
                {
                    "name": "C#5",
                    "midi": 73,
                    "time": 131.44052900000088,
                    "velocity": 0.8346456692913385,
                    "duration": 0.08262702499999364
                },
                {
                    "name": "G#4",
                    "midi": 68,
                    "time": 131.44052900000088,
                    "velocity": 0.8346456692913385,
                    "duration": 0.08262702499999364
                },
                {
                    "name": "C#4",
                    "midi": 61,
                    "time": 131.44052900000088,
                    "velocity": 0.8346456692913385,
                    "duration": 0.08262702499999364
                },
                {
                    "name": "D#5",
                    "midi": 75,
                    "time": 131.56764750000087,
                    "velocity": 0.8503937007874016,
                    "duration": 0.12711849999999458
                },
                {
                    "name": "D#4",
                    "midi": 63,
                    "time": 131.56764750000087,
                    "velocity": 0.8503937007874016,
                    "duration": 0.12711849999999458
                },
                {
                    "name": "C#5",
                    "midi": 73,
                    "time": 131.69476600000087,
                    "velocity": 0.8582677165354331,
                    "duration": 0.12711849999999458
                },
                {
                    "name": "F5",
                    "midi": 77,
                    "time": 131.69476600000087,
                    "velocity": 0.8582677165354331,
                    "duration": 0.12711849999999458
                },
                {
                    "name": "F4",
                    "midi": 65,
                    "time": 131.69476600000087,
                    "velocity": 0.8582677165354331,
                    "duration": 0.12711849999999458
                },
                {
                    "name": "F#5",
                    "midi": 78,
                    "time": 131.82188450000086,
                    "velocity": 0.8661417322834646,
                    "duration": 0.12711849999999458
                },
                {
                    "name": "F#4",
                    "midi": 66,
                    "time": 131.82188450000086,
                    "velocity": 0.8661417322834646,
                    "duration": 0.12711849999999458
                },
                {
                    "name": "D5",
                    "midi": 74,
                    "time": 131.94900300000086,
                    "velocity": 0.8740157480314961,
                    "duration": 0.25423699999998917
                },
                {
                    "name": "G4",
                    "midi": 67,
                    "time": 131.94900300000086,
                    "velocity": 0.8740157480314961,
                    "duration": 0.12711849999999458
                },
                {
                    "name": "G5",
                    "midi": 79,
                    "time": 131.94900300000086,
                    "velocity": 0.8740157480314961,
                    "duration": 0.12711849999999458
                },
                {
                    "name": "F#4",
                    "midi": 66,
                    "time": 132.07612150000085,
                    "velocity": 0.905511811023622,
                    "duration": 0.12711849999999458
                },
                {
                    "name": "F#5",
                    "midi": 78,
                    "time": 132.07612150000085,
                    "velocity": 0.905511811023622,
                    "duration": 0.12711849999999458
                },
                {
                    "name": "D5",
                    "midi": 74,
                    "time": 132.20324000000085,
                    "velocity": 0.905511811023622,
                    "duration": 0.25423699999998917
                },
                {
                    "name": "G4",
                    "midi": 67,
                    "time": 132.20324000000085,
                    "velocity": 0.905511811023622,
                    "duration": 0.12711849999999458
                },
                {
                    "name": "G5",
                    "midi": 79,
                    "time": 132.20324000000085,
                    "velocity": 0.905511811023622,
                    "duration": 0.12711849999999458
                },
                {
                    "name": "G#4",
                    "midi": 68,
                    "time": 132.33035850000084,
                    "velocity": 0.905511811023622,
                    "duration": 0.12711849999999458
                },
                {
                    "name": "G#5",
                    "midi": 80,
                    "time": 132.33035850000084,
                    "velocity": 0.905511811023622,
                    "duration": 0.12711849999999458
                },
                {
                    "name": "D5",
                    "midi": 74,
                    "time": 132.45747700000084,
                    "velocity": 0.905511811023622,
                    "duration": 0.25423699999998917
                },
                {
                    "name": "A#4",
                    "midi": 70,
                    "time": 132.45747700000084,
                    "velocity": 0.905511811023622,
                    "duration": 0.12711849999999458
                },
                {
                    "name": "A#5",
                    "midi": 82,
                    "time": 132.45747700000084,
                    "velocity": 0.905511811023622,
                    "duration": 0.12711849999999458
                },
                {
                    "name": "C5",
                    "midi": 72,
                    "time": 132.58459550000083,
                    "velocity": 0.905511811023622,
                    "duration": 0.12711849999999458
                },
                {
                    "name": "C6",
                    "midi": 84,
                    "time": 132.58459550000083,
                    "velocity": 0.905511811023622,
                    "duration": 0.12711849999999458
                },
                {
                    "name": "C#5",
                    "midi": 73,
                    "time": 132.71171400000082,
                    "velocity": 0.905511811023622,
                    "duration": 0.25423699999998917
                },
                {
                    "name": "A#4",
                    "midi": 70,
                    "time": 132.71171400000082,
                    "velocity": 0.905511811023622,
                    "duration": 0.12711849999999458
                },
                {
                    "name": "A#5",
                    "midi": 82,
                    "time": 132.71171400000082,
                    "velocity": 0.905511811023622,
                    "duration": 0.12711849999999458
                },
                {
                    "name": "G#4",
                    "midi": 68,
                    "time": 132.83883250000082,
                    "velocity": 0.905511811023622,
                    "duration": 0.12711849999999458
                },
                {
                    "name": "G#5",
                    "midi": 80,
                    "time": 132.83883250000082,
                    "velocity": 0.905511811023622,
                    "duration": 0.12711849999999458
                },
                {
                    "name": "C#5",
                    "midi": 73,
                    "time": 132.9659510000008,
                    "velocity": 0.905511811023622,
                    "duration": 0.25423699999998917
                },
                {
                    "name": "A#4",
                    "midi": 70,
                    "time": 132.9659510000008,
                    "velocity": 0.905511811023622,
                    "duration": 0.12711849999999458
                },
                {
                    "name": "A#5",
                    "midi": 82,
                    "time": 132.9659510000008,
                    "velocity": 0.905511811023622,
                    "duration": 0.12711849999999458
                },
                {
                    "name": "G#4",
                    "midi": 68,
                    "time": 133.0930695000008,
                    "velocity": 0.905511811023622,
                    "duration": 0.12711849999999458
                },
                {
                    "name": "G#5",
                    "midi": 80,
                    "time": 133.0930695000008,
                    "velocity": 0.905511811023622,
                    "duration": 0.12711849999999458
                },
                {
                    "name": "F5",
                    "midi": 77,
                    "time": 133.2201880000008,
                    "velocity": 0.905511811023622,
                    "duration": 0.06355924999999729
                },
                {
                    "name": "F#5",
                    "midi": 78,
                    "time": 133.2837472500008,
                    "velocity": 0.905511811023622,
                    "duration": 0.06355924999999729
                },
                {
                    "name": "G#5",
                    "midi": 80,
                    "time": 133.3473065000008,
                    "velocity": 0.905511811023622,
                    "duration": 0.06355924999999729
                },
                {
                    "name": "A#5",
                    "midi": 82,
                    "time": 133.4108657500008,
                    "velocity": 0.905511811023622,
                    "duration": 0.06355924999999729
                },
                {
                    "name": "C6",
                    "midi": 84,
                    "time": 133.4744250000008,
                    "velocity": 0.905511811023622,
                    "duration": 0.25423699999998917
                },
                {
                    "name": "C5",
                    "midi": 72,
                    "time": 133.4744250000008,
                    "velocity": 0.905511811023622,
                    "duration": 0.25423699999998917
                },
                {
                    "name": "F#5",
                    "midi": 78,
                    "time": 133.72866200000078,
                    "velocity": 0.905511811023622,
                    "duration": 0.06355924999999729
                },
                {
                    "name": "G#5",
                    "midi": 80,
                    "time": 133.79222125000078,
                    "velocity": 0.905511811023622,
                    "duration": 0.06355924999999729
                },
                {
                    "name": "A#5",
                    "midi": 82,
                    "time": 133.85578050000078,
                    "velocity": 0.905511811023622,
                    "duration": 0.06355924999999729
                },
                {
                    "name": "C6",
                    "midi": 84,
                    "time": 133.91933975000077,
                    "velocity": 0.905511811023622,
                    "duration": 0.06355924999999729
                },
                {
                    "name": "C#6",
                    "midi": 85,
                    "time": 133.98289900000077,
                    "velocity": 0.905511811023622,
                    "duration": 0.25423699999998917
                },
                {
                    "name": "C#5",
                    "midi": 73,
                    "time": 133.98289900000077,
                    "velocity": 0.905511811023622,
                    "duration": 0.25423699999998917
                },
                {
                    "name": "D#5",
                    "midi": 75,
                    "time": 134.23713600000076,
                    "velocity": 0.905511811023622,
                    "duration": 0.25423699999998917
                },
                {
                    "name": "D#6",
                    "midi": 87,
                    "time": 134.23713600000076,
                    "velocity": 0.905511811023622,
                    "duration": 0.25423699999998917
                },
                {
                    "name": "G#5",
                    "midi": 80,
                    "time": 134.49137300000075,
                    "velocity": 0.905511811023622,
                    "duration": 0.25423699999998917
                },
                {
                    "name": "G#4",
                    "midi": 68,
                    "time": 134.49137300000075,
                    "velocity": 0.905511811023622,
                    "duration": 0.25423699999998917
                },
                {
                    "name": "A#5",
                    "midi": 82,
                    "time": 134.74561000000074,
                    "velocity": 0.905511811023622,
                    "duration": 0.25423699999998917
                },
                {
                    "name": "A#4",
                    "midi": 70,
                    "time": 134.74561000000074,
                    "velocity": 0.905511811023622,
                    "duration": 0.25423699999998917
                },
                {
                    "name": "B4",
                    "midi": 71,
                    "time": 134.99984700000073,
                    "velocity": 0.9763779527559056,
                    "duration": 0.5084740000000068
                },
                {
                    "name": "B5",
                    "midi": 83,
                    "time": 134.99984700000073,
                    "velocity": 0.9763779527559056,
                    "duration": 0.5084740000000068
                },
                {
                    "name": "D#6",
                    "midi": 87,
                    "time": 135.50832100000073,
                    "velocity": 0.8110236220472441,
                    "duration": 0.25423699999998917
                },
                {
                    "name": "D#5",
                    "midi": 75,
                    "time": 135.50832100000073,
                    "velocity": 0.8110236220472441,
                    "duration": 0.25423699999998917
                },
                {
                    "name": "B4",
                    "midi": 71,
                    "time": 135.76255800000072,
                    "velocity": 0.9606299212598425,
                    "duration": 0.5084740000000068
                },
                {
                    "name": "B3",
                    "midi": 59,
                    "time": 135.76255800000072,
                    "velocity": 0.9606299212598425,
                    "duration": 0.5084740000000068
                },
                {
                    "name": "D#4",
                    "midi": 63,
                    "time": 136.27103200000073,
                    "velocity": 0.8267716535433071,
                    "duration": 0.25423699999998917
                },
                {
                    "name": "D#5",
                    "midi": 75,
                    "time": 136.27103200000073,
                    "velocity": 0.8267716535433071,
                    "duration": 0.25423699999998917
                },
                {
                    "name": "B4",
                    "midi": 71,
                    "time": 136.52526900000072,
                    "velocity": 0.9763779527559056,
                    "duration": 0.5084740000000068
                },
                {
                    "name": "B5",
                    "midi": 83,
                    "time": 136.52526900000072,
                    "velocity": 0.9763779527559056,
                    "duration": 0.5084740000000068
                },
                {
                    "name": "D#6",
                    "midi": 87,
                    "time": 137.03374300000073,
                    "velocity": 0.84251968503937,
                    "duration": 0.25423699999998917
                },
                {
                    "name": "D#5",
                    "midi": 75,
                    "time": 137.03374300000073,
                    "velocity": 0.84251968503937,
                    "duration": 0.25423699999998917
                },
                {
                    "name": "B4",
                    "midi": 71,
                    "time": 137.28798000000072,
                    "velocity": 0.9763779527559056,
                    "duration": 0.5084740000000068
                },
                {
                    "name": "B3",
                    "midi": 59,
                    "time": 137.28798000000072,
                    "velocity": 0.9763779527559056,
                    "duration": 0.5084740000000068
                },
                {
                    "name": "D#4",
                    "midi": 63,
                    "time": 137.79645400000072,
                    "velocity": 0.8346456692913385,
                    "duration": 0.25423699999998917
                },
                {
                    "name": "D#5",
                    "midi": 75,
                    "time": 137.79645400000072,
                    "velocity": 0.8346456692913385,
                    "duration": 0.25423699999998917
                },
                {
                    "name": "C#6",
                    "midi": 85,
                    "time": 138.0506910000007,
                    "velocity": 0.905511811023622,
                    "duration": 0.25423699999998917
                },
                {
                    "name": "C#5",
                    "midi": 73,
                    "time": 138.0506910000007,
                    "velocity": 0.905511811023622,
                    "duration": 0.25423699999998917
                },
                {
                    "name": "C#6",
                    "midi": 85,
                    "time": 138.3049280000007,
                    "velocity": 0.905511811023622,
                    "duration": 0.25423699999998917
                },
                {
                    "name": "C#5",
                    "midi": 73,
                    "time": 138.3049280000007,
                    "velocity": 0.905511811023622,
                    "duration": 0.25423699999998917
                },
                {
                    "name": "C#6",
                    "midi": 85,
                    "time": 138.5591650000007,
                    "velocity": 0.905511811023622,
                    "duration": 0.25423699999998917
                },
                {
                    "name": "C#5",
                    "midi": 73,
                    "time": 138.5591650000007,
                    "velocity": 0.905511811023622,
                    "duration": 0.25423699999998917
                },
                {
                    "name": "C#6",
                    "midi": 85,
                    "time": 138.81340200000068,
                    "velocity": 0.905511811023622,
                    "duration": 0.5084740000000068
                },
                {
                    "name": "C#5",
                    "midi": 73,
                    "time": 138.81340200000068,
                    "velocity": 0.905511811023622,
                    "duration": 0.5084740000000068
                },
                {
                    "name": "F#5",
                    "midi": 78,
                    "time": 139.32187600000069,
                    "velocity": 0.905511811023622,
                    "duration": 0.25423699999998917
                },
                {
                    "name": "F#4",
                    "midi": 66,
                    "time": 139.32187600000069,
                    "velocity": 0.905511811023622,
                    "duration": 0.25423699999998917
                },
                {
                    "name": "A#5",
                    "midi": 82,
                    "time": 140.33882400000067,
                    "velocity": 0.905511811023622,
                    "duration": 0.25423699999998917
                },
                {
                    "name": "B5",
                    "midi": 83,
                    "time": 140.33882400000067,
                    "velocity": 1,
                    "duration": 0.5084739999999783
                },
                {
                    "name": "G#5",
                    "midi": 80,
                    "time": 140.59306100000066,
                    "velocity": 0.905511811023622,
                    "duration": 0.25423699999998917
                },
                {
                    "name": "G#5",
                    "midi": 80,
                    "time": 140.84729800000065,
                    "velocity": 0.905511811023622,
                    "duration": 0.25423699999998917
                },
                {
                    "name": "A#5",
                    "midi": 82,
                    "time": 140.84729800000065,
                    "velocity": 1,
                    "duration": 0.5084739999999783
                },
                {
                    "name": "F#5",
                    "midi": 78,
                    "time": 141.10153500000064,
                    "velocity": 0.905511811023622,
                    "duration": 0.25423699999998917
                },
                {
                    "name": "F#5",
                    "midi": 78,
                    "time": 141.35577200000063,
                    "velocity": 0.905511811023622,
                    "duration": 0.25423699999998917
                },
                {
                    "name": "G#5",
                    "midi": 80,
                    "time": 141.35577200000063,
                    "velocity": 1,
                    "duration": 0.5084739999999783
                },
                {
                    "name": "F5",
                    "midi": 77,
                    "time": 141.61000900000062,
                    "velocity": 0.7874015748031497,
                    "duration": 0.25423699999998917
                },
                {
                    "name": "F4",
                    "midi": 65,
                    "time": 141.8642460000006,
                    "velocity": 0.6692913385826772,
                    "duration": 0.25423699999998917
                },
                {
                    "name": "C#5",
                    "midi": 73,
                    "time": 141.8642460000006,
                    "velocity": 0.6692913385826772,
                    "duration": 0.25423699999998917
                },
                {
                    "name": "F5",
                    "midi": 77,
                    "time": 141.8642460000006,
                    "velocity": 0.6692913385826772,
                    "duration": 0.25423699999998917
                },
                {
                    "name": "F4",
                    "midi": 65,
                    "time": 142.1184830000006,
                    "velocity": 0.6692913385826772,
                    "duration": 0.25423699999998917
                },
                {
                    "name": "C#5",
                    "midi": 73,
                    "time": 142.1184830000006,
                    "velocity": 0.6692913385826772,
                    "duration": 0.25423699999998917
                },
                {
                    "name": "F5",
                    "midi": 77,
                    "time": 142.1184830000006,
                    "velocity": 0.6692913385826772,
                    "duration": 0.25423699999998917
                },
                {
                    "name": "F4",
                    "midi": 65,
                    "time": 142.37272000000058,
                    "velocity": 0.6692913385826772,
                    "duration": 0.25423699999998917
                },
                {
                    "name": "C#5",
                    "midi": 73,
                    "time": 142.37272000000058,
                    "velocity": 0.6692913385826772,
                    "duration": 0.25423699999998917
                },
                {
                    "name": "F5",
                    "midi": 77,
                    "time": 142.37272000000058,
                    "velocity": 0.6692913385826772,
                    "duration": 0.25423699999998917
                },
                {
                    "name": "F5",
                    "midi": 77,
                    "time": 142.62695700000057,
                    "velocity": 0.6692913385826772,
                    "duration": 0.25423699999998917
                },
                {
                    "name": "C#5",
                    "midi": 73,
                    "time": 142.62695700000057,
                    "velocity": 0.6692913385826772,
                    "duration": 0.25423699999998917
                },
                {
                    "name": "F4",
                    "midi": 65,
                    "time": 142.62695700000057,
                    "velocity": 0.6692913385826772,
                    "duration": 0.25423699999998917
                },
                {
                    "name": "C#5",
                    "midi": 73,
                    "time": 142.88119400000056,
                    "velocity": 0.7086614173228346,
                    "duration": 0.12711849999999458
                },
                {
                    "name": "F5",
                    "midi": 77,
                    "time": 142.88119400000056,
                    "velocity": 0.7086614173228346,
                    "duration": 0.12711849999999458
                },
                {
                    "name": "C5",
                    "midi": 72,
                    "time": 143.00831250000056,
                    "velocity": 0.7244094488188977,
                    "duration": 0.12711849999999458
                },
                {
                    "name": "D#5",
                    "midi": 75,
                    "time": 143.00831250000056,
                    "velocity": 0.7244094488188977,
                    "duration": 0.12711849999999458
                },
                {
                    "name": "C#5",
                    "midi": 73,
                    "time": 143.13543100000055,
                    "velocity": 0.7480314960629921,
                    "duration": 0.12711849999999458
                },
                {
                    "name": "F5",
                    "midi": 77,
                    "time": 143.13543100000055,
                    "velocity": 0.7480314960629921,
                    "duration": 0.12711849999999458
                },
                {
                    "name": "D#5",
                    "midi": 75,
                    "time": 143.26254950000055,
                    "velocity": 0.7637795275590551,
                    "duration": 0.12711849999999458
                },
                {
                    "name": "F#5",
                    "midi": 78,
                    "time": 143.26254950000055,
                    "velocity": 0.7637795275590551,
                    "duration": 0.12711849999999458
                },
                {
                    "name": "F4",
                    "midi": 65,
                    "time": 143.38966800000054,
                    "velocity": 0.7874015748031497,
                    "duration": 0.25423699999998917
                },
                {
                    "name": "C#5",
                    "midi": 73,
                    "time": 143.38966800000054,
                    "velocity": 0.7874015748031497,
                    "duration": 0.25423699999998917
                },
                {
                    "name": "F5",
                    "midi": 77,
                    "time": 143.38966800000054,
                    "velocity": 0.7874015748031497,
                    "duration": 0.25423699999998917
                },
                {
                    "name": "F4",
                    "midi": 65,
                    "time": 143.64390500000053,
                    "velocity": 0.7874015748031497,
                    "duration": 0.25423699999998917
                },
                {
                    "name": "C#5",
                    "midi": 73,
                    "time": 143.64390500000053,
                    "velocity": 0.7874015748031497,
                    "duration": 0.25423699999998917
                },
                {
                    "name": "F5",
                    "midi": 77,
                    "time": 143.64390500000053,
                    "velocity": 0.7874015748031497,
                    "duration": 0.25423699999998917
                },
                {
                    "name": "F4",
                    "midi": 65,
                    "time": 143.89814200000052,
                    "velocity": 0.7874015748031497,
                    "duration": 0.25423699999998917
                },
                {
                    "name": "C#5",
                    "midi": 73,
                    "time": 143.89814200000052,
                    "velocity": 0.7874015748031497,
                    "duration": 0.25423699999998917
                },
                {
                    "name": "F5",
                    "midi": 77,
                    "time": 143.89814200000052,
                    "velocity": 0.7874015748031497,
                    "duration": 0.25423699999998917
                },
                {
                    "name": "F5",
                    "midi": 77,
                    "time": 144.1523790000005,
                    "velocity": 0.7874015748031497,
                    "duration": 0.25423699999998917
                },
                {
                    "name": "C#5",
                    "midi": 73,
                    "time": 144.1523790000005,
                    "velocity": 0.7874015748031497,
                    "duration": 0.25423699999998917
                },
                {
                    "name": "F4",
                    "midi": 65,
                    "time": 144.1523790000005,
                    "velocity": 0.7874015748031497,
                    "duration": 0.25423699999998917
                },
                {
                    "name": "C#5",
                    "midi": 73,
                    "time": 144.4066160000005,
                    "velocity": 0.7874015748031497,
                    "duration": 0.12711849999999458
                },
                {
                    "name": "F5",
                    "midi": 77,
                    "time": 144.4066160000005,
                    "velocity": 0.7874015748031497,
                    "duration": 0.12711849999999458
                },
                {
                    "name": "C5",
                    "midi": 72,
                    "time": 144.5337345000005,
                    "velocity": 0.7874015748031497,
                    "duration": 0.12711849999999458
                },
                {
                    "name": "D#5",
                    "midi": 75,
                    "time": 144.5337345000005,
                    "velocity": 0.7874015748031497,
                    "duration": 0.12711849999999458
                },
                {
                    "name": "C#5",
                    "midi": 73,
                    "time": 144.6608530000005,
                    "velocity": 0.7874015748031497,
                    "duration": 0.12711849999999458
                },
                {
                    "name": "F5",
                    "midi": 77,
                    "time": 144.6608530000005,
                    "velocity": 0.7874015748031497,
                    "duration": 0.12711849999999458
                },
                {
                    "name": "D#5",
                    "midi": 75,
                    "time": 144.78797150000048,
                    "velocity": 0.7874015748031497,
                    "duration": 0.12711849999999458
                },
                {
                    "name": "F#5",
                    "midi": 78,
                    "time": 144.78797150000048,
                    "velocity": 0.7874015748031497,
                    "duration": 0.12711849999999458
                },
                {
                    "name": "F5",
                    "midi": 77,
                    "time": 144.91509000000048,
                    "velocity": 0.7874015748031497,
                    "duration": 0.25423699999998917
                },
                {
                    "name": "C#5",
                    "midi": 73,
                    "time": 144.91509000000048,
                    "velocity": 0.7874015748031497,
                    "duration": 0.25423699999998917
                },
                {
                    "name": "F4",
                    "midi": 65,
                    "time": 144.91509000000048,
                    "velocity": 0.7874015748031497,
                    "duration": 0.25423699999998917
                },
                {
                    "name": "C#5",
                    "midi": 73,
                    "time": 145.16932700000046,
                    "velocity": 0.7952755905511811,
                    "duration": 0.12711849999999458
                },
                {
                    "name": "F5",
                    "midi": 77,
                    "time": 145.16932700000046,
                    "velocity": 0.7952755905511811,
                    "duration": 0.12711849999999458
                },
                {
                    "name": "C5",
                    "midi": 72,
                    "time": 145.29644550000046,
                    "velocity": 0.8031496062992126,
                    "duration": 0.12711849999999458
                },
                {
                    "name": "D#5",
                    "midi": 75,
                    "time": 145.29644550000046,
                    "velocity": 0.8031496062992126,
                    "duration": 0.12711849999999458
                },
                {
                    "name": "C#5",
                    "midi": 73,
                    "time": 145.42356400000045,
                    "velocity": 0.8110236220472441,
                    "duration": 0.12711849999999458
                },
                {
                    "name": "F5",
                    "midi": 77,
                    "time": 145.42356400000045,
                    "velocity": 0.8110236220472441,
                    "duration": 0.12711849999999458
                },
                {
                    "name": "D#5",
                    "midi": 75,
                    "time": 145.55068250000045,
                    "velocity": 0.8188976377952756,
                    "duration": 0.12711849999999458
                },
                {
                    "name": "F#5",
                    "midi": 78,
                    "time": 145.55068250000045,
                    "velocity": 0.8188976377952756,
                    "duration": 0.12711849999999458
                },
                {
                    "name": "F5",
                    "midi": 77,
                    "time": 145.67780100000044,
                    "velocity": 0.8267716535433071,
                    "duration": 0.25423699999998917
                },
                {
                    "name": "C#5",
                    "midi": 73,
                    "time": 145.67780100000044,
                    "velocity": 0.8267716535433071,
                    "duration": 0.25423699999998917
                },
                {
                    "name": "F4",
                    "midi": 65,
                    "time": 145.67780100000044,
                    "velocity": 0.8267716535433071,
                    "duration": 0.25423699999998917
                },
                {
                    "name": "C#5",
                    "midi": 73,
                    "time": 145.93203800000043,
                    "velocity": 0.8346456692913385,
                    "duration": 0.12711849999999458
                },
                {
                    "name": "F5",
                    "midi": 77,
                    "time": 145.93203800000043,
                    "velocity": 0.8346456692913385,
                    "duration": 0.12711849999999458
                },
                {
                    "name": "C5",
                    "midi": 72,
                    "time": 146.05915650000043,
                    "velocity": 0.84251968503937,
                    "duration": 0.12711849999999458
                },
                {
                    "name": "D#5",
                    "midi": 75,
                    "time": 146.05915650000043,
                    "velocity": 0.84251968503937,
                    "duration": 0.12711849999999458
                },
                {
                    "name": "C#5",
                    "midi": 73,
                    "time": 146.18627500000042,
                    "velocity": 0.8503937007874016,
                    "duration": 0.12711849999999458
                },
                {
                    "name": "F5",
                    "midi": 77,
                    "time": 146.18627500000042,
                    "velocity": 0.8503937007874016,
                    "duration": 0.12711849999999458
                },
                {
                    "name": "D#5",
                    "midi": 75,
                    "time": 146.31339350000042,
                    "velocity": 0.8582677165354331,
                    "duration": 0.12711849999999458
                },
                {
                    "name": "F#5",
                    "midi": 78,
                    "time": 146.31339350000042,
                    "velocity": 0.8582677165354331,
                    "duration": 0.12711849999999458
                },
                {
                    "name": "F5",
                    "midi": 77,
                    "time": 146.4405120000004,
                    "velocity": 0.8661417322834646,
                    "duration": 0.25423699999998917
                },
                {
                    "name": "C#5",
                    "midi": 73,
                    "time": 146.4405120000004,
                    "velocity": 0.8661417322834646,
                    "duration": 0.25423699999998917
                },
                {
                    "name": "F4",
                    "midi": 65,
                    "time": 146.4405120000004,
                    "velocity": 0.8661417322834646,
                    "duration": 0.25423699999998917
                },
                {
                    "name": "C#5",
                    "midi": 73,
                    "time": 146.6947490000004,
                    "velocity": 0.8740157480314961,
                    "duration": 0.12711849999999458
                },
                {
                    "name": "F5",
                    "midi": 77,
                    "time": 146.6947490000004,
                    "velocity": 0.8740157480314961,
                    "duration": 0.12711849999999458
                },
                {
                    "name": "C5",
                    "midi": 72,
                    "time": 146.8218675000004,
                    "velocity": 0.8818897637795275,
                    "duration": 0.12711849999999458
                },
                {
                    "name": "D#5",
                    "midi": 75,
                    "time": 146.8218675000004,
                    "velocity": 0.8818897637795275,
                    "duration": 0.12711849999999458
                },
                {
                    "name": "C#5",
                    "midi": 73,
                    "time": 146.9489860000004,
                    "velocity": 0.889763779527559,
                    "duration": 0.12711849999999458
                },
                {
                    "name": "F5",
                    "midi": 77,
                    "time": 146.9489860000004,
                    "velocity": 0.889763779527559,
                    "duration": 0.12711849999999458
                },
                {
                    "name": "D#5",
                    "midi": 75,
                    "time": 147.07610450000038,
                    "velocity": 0.8976377952755905,
                    "duration": 0.12711849999999458
                },
                {
                    "name": "F#5",
                    "midi": 78,
                    "time": 147.07610450000038,
                    "velocity": 0.8976377952755905,
                    "duration": 0.12711849999999458
                },
                {
                    "name": "F5",
                    "midi": 77,
                    "time": 147.20322300000038,
                    "velocity": 0.984251968503937,
                    "duration": 0.5084740000000068
                },
                {
                    "name": "C#5",
                    "midi": 73,
                    "time": 147.20322300000038,
                    "velocity": 0.984251968503937,
                    "duration": 0.5084740000000068
                },
                {
                    "name": "F4",
                    "midi": 65,
                    "time": 147.20322300000038,
                    "velocity": 0.984251968503937,
                    "duration": 0.5084740000000068
                },
                {
                    "name": "A#5",
                    "midi": 82,
                    "time": 147.71169700000038,
                    "velocity": 0.7952755905511811,
                    "duration": 0.16525404999998727
                },
                {
                    "name": "F5",
                    "midi": 77,
                    "time": 147.71169700000038,
                    "velocity": 0.7952755905511811,
                    "duration": 0.16525404999998727
                },
                {
                    "name": "G5",
                    "midi": 79,
                    "time": 147.96593400000037,
                    "velocity": 0.9763779527559056,
                    "duration": 0.5084740000000068
                },
                {
                    "name": "D5",
                    "midi": 74,
                    "time": 147.96593400000037,
                    "velocity": 0.9763779527559056,
                    "duration": 0.5084740000000068
                },
                {
                    "name": "G#5",
                    "midi": 80,
                    "time": 148.47440800000038,
                    "velocity": 0.84251968503937,
                    "duration": 0.16525404999998727
                },
                {
                    "name": "D#5",
                    "midi": 75,
                    "time": 148.47440800000038,
                    "velocity": 0.84251968503937,
                    "duration": 0.16525404999998727
                },
                {
                    "name": "F5",
                    "midi": 77,
                    "time": 148.72864500000037,
                    "velocity": 0.984251968503937,
                    "duration": 0.5084740000000068
                },
                {
                    "name": "C#5",
                    "midi": 73,
                    "time": 148.72864500000037,
                    "velocity": 0.984251968503937,
                    "duration": 0.5084740000000068
                },
                {
                    "name": "F4",
                    "midi": 65,
                    "time": 148.72864500000037,
                    "velocity": 0.984251968503937,
                    "duration": 0.5084740000000068
                },
                {
                    "name": "A#5",
                    "midi": 82,
                    "time": 149.23711900000038,
                    "velocity": 0.8346456692913385,
                    "duration": 0.16525404999998727
                },
                {
                    "name": "F5",
                    "midi": 77,
                    "time": 149.23711900000038,
                    "velocity": 0.8346456692913385,
                    "duration": 0.16525404999998727
                },
                {
                    "name": "G5",
                    "midi": 79,
                    "time": 149.49135600000037,
                    "velocity": 0.9763779527559056,
                    "duration": 0.5084740000000068
                },
                {
                    "name": "D5",
                    "midi": 74,
                    "time": 149.49135600000037,
                    "velocity": 0.9763779527559056,
                    "duration": 0.5084740000000068
                },
                {
                    "name": "G#5",
                    "midi": 80,
                    "time": 149.99983000000037,
                    "velocity": 0.84251968503937,
                    "duration": 0.16525404999998727
                },
                {
                    "name": "D#5",
                    "midi": 75,
                    "time": 149.99983000000037,
                    "velocity": 0.84251968503937,
                    "duration": 0.16525404999998727
                },
                {
                    "name": "F5",
                    "midi": 77,
                    "time": 150.25406700000036,
                    "velocity": 0.8976377952755905,
                    "duration": 0.25423699999998917
                },
                {
                    "name": "C#5",
                    "midi": 73,
                    "time": 150.25406700000036,
                    "velocity": 0.8976377952755905,
                    "duration": 0.25423699999998917
                },
                {
                    "name": "F4",
                    "midi": 65,
                    "time": 150.25406700000036,
                    "velocity": 0.8976377952755905,
                    "duration": 0.25423699999998917
                },
                {
                    "name": "F5",
                    "midi": 77,
                    "time": 150.50830400000035,
                    "velocity": 0.889763779527559,
                    "duration": 0.12711849999999458
                },
                {
                    "name": "C#5",
                    "midi": 73,
                    "time": 150.50830400000035,
                    "velocity": 0.889763779527559,
                    "duration": 0.12711849999999458
                },
                {
                    "name": "F4",
                    "midi": 65,
                    "time": 150.50830400000035,
                    "velocity": 0.889763779527559,
                    "duration": 0.12711849999999458
                },
                {
                    "name": "F5",
                    "midi": 77,
                    "time": 150.63542250000035,
                    "velocity": 0.889763779527559,
                    "duration": 0.12711849999999458
                },
                {
                    "name": "C#5",
                    "midi": 73,
                    "time": 150.63542250000035,
                    "velocity": 0.889763779527559,
                    "duration": 0.12711849999999458
                },
                {
                    "name": "F4",
                    "midi": 65,
                    "time": 150.63542250000035,
                    "velocity": 0.889763779527559,
                    "duration": 0.12711849999999458
                },
                {
                    "name": "F5",
                    "midi": 77,
                    "time": 150.76254100000034,
                    "velocity": 0.889763779527559,
                    "duration": 0.12711849999999458
                },
                {
                    "name": "C#5",
                    "midi": 73,
                    "time": 150.76254100000034,
                    "velocity": 0.889763779527559,
                    "duration": 0.12711849999999458
                },
                {
                    "name": "F4",
                    "midi": 65,
                    "time": 150.76254100000034,
                    "velocity": 0.889763779527559,
                    "duration": 0.12711849999999458
                },
                {
                    "name": "F5",
                    "midi": 77,
                    "time": 150.88965950000033,
                    "velocity": 0.889763779527559,
                    "duration": 0.12711849999999458
                },
                {
                    "name": "C#5",
                    "midi": 73,
                    "time": 150.88965950000033,
                    "velocity": 0.889763779527559,
                    "duration": 0.12711849999999458
                },
                {
                    "name": "F4",
                    "midi": 65,
                    "time": 150.88965950000033,
                    "velocity": 0.889763779527559,
                    "duration": 0.12711849999999458
                },
                {
                    "name": "F5",
                    "midi": 77,
                    "time": 151.01677800000033,
                    "velocity": 0.889763779527559,
                    "duration": 0.25423699999998917
                },
                {
                    "name": "C#5",
                    "midi": 73,
                    "time": 151.01677800000033,
                    "velocity": 0.889763779527559,
                    "duration": 0.25423699999998917
                },
                {
                    "name": "F4",
                    "midi": 65,
                    "time": 151.01677800000033,
                    "velocity": 0.889763779527559,
                    "duration": 0.25423699999998917
                },
                {
                    "name": "G#4",
                    "midi": 68,
                    "time": 152.28796300000033,
                    "velocity": 0.8818897637795275,
                    "duration": 0.16525404999998727
                },
                {
                    "name": "D#5",
                    "midi": 75,
                    "time": 152.28796300000033,
                    "velocity": 0.8818897637795275,
                    "duration": 0.16525404999998727
                },
                {
                    "name": "G#5",
                    "midi": 80,
                    "time": 152.28796300000033,
                    "velocity": 0.8818897637795275,
                    "duration": 0.16525404999998727
                },
                {
                    "name": "F4",
                    "midi": 65,
                    "time": 152.54220000000032,
                    "velocity": 0.8818897637795275,
                    "duration": 0.16525404999998727
                },
                {
                    "name": "F5",
                    "midi": 77,
                    "time": 152.54220000000032,
                    "velocity": 0.8818897637795275,
                    "duration": 0.16525404999998727
                },
                {
                    "name": "C#5",
                    "midi": 73,
                    "time": 152.54220000000032,
                    "velocity": 0.8818897637795275,
                    "duration": 0.16525404999998727
                },
                {
                    "name": "G#4",
                    "midi": 68,
                    "time": 153.8133850000003,
                    "velocity": 0.8740157480314961,
                    "duration": 0.16525404999998727
                },
                {
                    "name": "D#5",
                    "midi": 75,
                    "time": 153.8133850000003,
                    "velocity": 0.8740157480314961,
                    "duration": 0.16525404999998727
                },
                {
                    "name": "G#5",
                    "midi": 80,
                    "time": 153.8133850000003,
                    "velocity": 0.8740157480314961,
                    "duration": 0.16525404999998727
                },
                {
                    "name": "F4",
                    "midi": 65,
                    "time": 154.06762200000028,
                    "velocity": 0.8740157480314961,
                    "duration": 0.16525404999998727
                },
                {
                    "name": "F5",
                    "midi": 77,
                    "time": 154.06762200000028,
                    "velocity": 0.8740157480314961,
                    "duration": 0.16525404999998727
                },
                {
                    "name": "C#5",
                    "midi": 73,
                    "time": 154.06762200000028,
                    "velocity": 0.8740157480314961,
                    "duration": 0.16525404999998727
                },
                {
                    "name": "G#4",
                    "midi": 68,
                    "time": 155.33880700000026,
                    "velocity": 0.905511811023622,
                    "duration": 0.16525404999998727
                },
                {
                    "name": "D#5",
                    "midi": 75,
                    "time": 155.33880700000026,
                    "velocity": 0.905511811023622,
                    "duration": 0.16525404999998727
                },
                {
                    "name": "G#5",
                    "midi": 80,
                    "time": 155.33880700000026,
                    "velocity": 0.905511811023622,
                    "duration": 0.16525404999998727
                },
                {
                    "name": "F4",
                    "midi": 65,
                    "time": 155.59304400000025,
                    "velocity": 0.905511811023622,
                    "duration": 0.16525404999998727
                },
                {
                    "name": "F5",
                    "midi": 77,
                    "time": 155.59304400000025,
                    "velocity": 0.905511811023622,
                    "duration": 0.16525404999998727
                },
                {
                    "name": "C#5",
                    "midi": 73,
                    "time": 155.59304400000025,
                    "velocity": 0.905511811023622,
                    "duration": 0.16525404999998727
                },
                {
                    "name": "F5",
                    "midi": 77,
                    "time": 155.84728100000024,
                    "velocity": 0.905511811023622,
                    "duration": 0.10805072499999824
                },
                {
                    "name": "C#5",
                    "midi": 73,
                    "time": 155.84728100000024,
                    "velocity": 0.905511811023622,
                    "duration": 0.10805072499999824
                },
                {
                    "name": "F4",
                    "midi": 65,
                    "time": 155.84728100000024,
                    "velocity": 0.905511811023622,
                    "duration": 0.10805072499999824
                },
                {
                    "name": "F5",
                    "midi": 77,
                    "time": 155.97439950000023,
                    "velocity": 0.9212598425196851,
                    "duration": 0.10805072499999824
                },
                {
                    "name": "C#5",
                    "midi": 73,
                    "time": 155.97439950000023,
                    "velocity": 0.9212598425196851,
                    "duration": 0.10805072499999824
                },
                {
                    "name": "F4",
                    "midi": 65,
                    "time": 155.97439950000023,
                    "velocity": 0.9212598425196851,
                    "duration": 0.10805072499999824
                },
                {
                    "name": "F5",
                    "midi": 77,
                    "time": 156.10151800000023,
                    "velocity": 0.937007874015748,
                    "duration": 0.10805072499999824
                },
                {
                    "name": "C#5",
                    "midi": 73,
                    "time": 156.10151800000023,
                    "velocity": 0.937007874015748,
                    "duration": 0.10805072499999824
                },
                {
                    "name": "F4",
                    "midi": 65,
                    "time": 156.10151800000023,
                    "velocity": 0.937007874015748,
                    "duration": 0.10805072499999824
                },
                {
                    "name": "F5",
                    "midi": 77,
                    "time": 156.22863650000022,
                    "velocity": 0.952755905511811,
                    "duration": 0.10805072499999824
                },
                {
                    "name": "C#5",
                    "midi": 73,
                    "time": 156.22863650000022,
                    "velocity": 0.952755905511811,
                    "duration": 0.10805072499999824
                },
                {
                    "name": "F4",
                    "midi": 65,
                    "time": 156.22863650000022,
                    "velocity": 0.952755905511811,
                    "duration": 0.10805072499999824
                },
                {
                    "name": "F4",
                    "midi": 65,
                    "time": 156.35575500000022,
                    "velocity": 0.968503937007874,
                    "duration": 0.16525404999998727
                },
                {
                    "name": "F5",
                    "midi": 77,
                    "time": 156.35575500000022,
                    "velocity": 0.968503937007874,
                    "duration": 0.16525404999998727
                },
                {
                    "name": "C#5",
                    "midi": 73,
                    "time": 156.35575500000022,
                    "velocity": 0.968503937007874,
                    "duration": 0.16525404999998727
                }
            ],
            "controlChanges": {
                "7": [
                    {
                        "number": 7,
                        "time": 0,
                        "value": 1
                    }
                ],
                "10": [
                    {
                        "number": 10,
                        "time": 0,
                        "value": 0.5354330708661418
                    }
                ],
                "91": [
                    {
                        "number": 91,
                        "time": 0.0010593208333333332,
                        "value": 0.4881889763779528
                    },
                    {
                        "number": 91,
                        "time": 157.11634735833354,
                        "value": 0
                    }
                ],
                "93": [
                    {
                        "number": 93,
                        "time": 0.0010593208333333332,
                        "value": 0.07874015748031496
                    },
                    {
                        "number": 93,
                        "time": 157.11634735833354,
                        "value": 0
                    }
                ],
                "121": [
                    {
                        "number": 121,
                        "time": 0,
                        "value": 0
                    },
                    {
                        "number": 121,
                        "time": 157.11740667916686,
                        "value": 0
                    }
                ]
            },
            "id": 1,
            "name": "RH",
            "instrumentNumber": 0,
            "instrument": "acoustic grand piano",
            "instrumentFamily": "piano",
            "channelNumber": 0,
            "isPercussion": false
        },
        {
            "startTime": 2.7913103958333334,
            "duration": 156.51571244583357,
            "length": 848,
            "notes": [
                {
                    "name": "G#3",
                    "midi": 56,
                    "time": 2.7913103958333334,
                    "velocity": 0.7874015748031497,
                    "duration": 0.16525405000000015
                },
                {
                    "name": "C#4",
                    "midi": 61,
                    "time": 3.051373660416667,
                    "velocity": 0.7874015748031497,
                    "duration": 0.1594277854166668
                },
                {
                    "name": "C#4",
                    "midi": 61,
                    "time": 3.3019030375000007,
                    "velocity": 0.7874015748031497,
                    "duration": 0.0805083833333331
                },
                {
                    "name": "D#4",
                    "midi": 63,
                    "time": 3.4353774625000004,
                    "velocity": 0.7874015748031497,
                    "duration": 0.07415245833333328
                },
                {
                    "name": "C#4",
                    "midi": 61,
                    "time": 3.5603773208333336,
                    "velocity": 0.7874015748031497,
                    "duration": 0.07627110000000004
                },
                {
                    "name": "C4",
                    "midi": 60,
                    "time": 3.6864365,
                    "velocity": 0.7874015748031497,
                    "duration": 0.07733042083333341
                },
                {
                    "name": "A#3",
                    "midi": 58,
                    "time": 3.81196601875,
                    "velocity": 0.7874015748031497,
                    "duration": 0.1615464270833331
                },
                {
                    "name": "A#3",
                    "midi": 58,
                    "time": 4.072029283333333,
                    "velocity": 0.7874015748031497,
                    "duration": 0.0730931374999999
                },
                {
                    "name": "C4",
                    "midi": 60,
                    "time": 4.198618122916667,
                    "velocity": 0.7874015748031497,
                    "duration": 0.07362279791666637
                },
                {
                    "name": "A#3",
                    "midi": 58,
                    "time": 4.324677302083333,
                    "velocity": 0.7874015748031497,
                    "duration": 0.07468211875000019
                },
                {
                    "name": "G#3",
                    "midi": 56,
                    "time": 4.445439877083333,
                    "velocity": 0.7874015748031497,
                    "duration": 0.08103804374999957
                },
                {
                    "name": "F#3",
                    "midi": 54,
                    "time": 4.580503283333333,
                    "velocity": 0.7874015748031497,
                    "duration": 0.15572016249999976
                },
                {
                    "name": "F#3",
                    "midi": 54,
                    "time": 4.832621641666666,
                    "velocity": 0.7874015748031497,
                    "duration": 0.1578388041666665
                },
                {
                    "name": "C#3",
                    "midi": 49,
                    "time": 5.084739999999999,
                    "velocity": 0.7874015748031497,
                    "duration": 0.15995744583333327
                },
                {
                    "name": "F#3",
                    "midi": 54,
                    "time": 5.336858358333332,
                    "velocity": 0.937007874015748,
                    "duration": 0.5052960375
                },
                {
                    "name": "C#3",
                    "midi": 49,
                    "time": 5.842154395833332,
                    "velocity": 0.7874015748031497,
                    "duration": 0.1652540499999997
                },
                {
                    "name": "F#3",
                    "midi": 54,
                    "time": 6.0969210562499985,
                    "velocity": 0.7874015748031497,
                    "duration": 0.16472438958333324
                },
                {
                    "name": "F#3",
                    "midi": 54,
                    "time": 6.354336018749998,
                    "velocity": 0.7874015748031497,
                    "duration": 0.16154642708333355
                },
                {
                    "name": "C#3",
                    "midi": 49,
                    "time": 6.606454377083332,
                    "velocity": 0.7874015748031497,
                    "duration": 0.1636650687500003
                },
                {
                    "name": "F#3",
                    "midi": 54,
                    "time": 6.860691377083333,
                    "velocity": 0.9212598425196851,
                    "duration": 0.5068850187500002
                },
                {
                    "name": "C#3",
                    "midi": 49,
                    "time": 7.378169604166667,
                    "velocity": 0.7874015748031497,
                    "duration": 0.15466084166666683
                },
                {
                    "name": "C#3",
                    "midi": 49,
                    "time": 7.626580339583334,
                    "velocity": 0.7874015748031497,
                    "duration": 0.16048710624999973
                },
                {
                    "name": "C#3",
                    "midi": 49,
                    "time": 7.877109716666666,
                    "velocity": 0.7874015748031497,
                    "duration": 0.16419472916666678
                },
                {
                    "name": "F#3",
                    "midi": 54,
                    "time": 8.130287395833333,
                    "velocity": 0.7874015748031497,
                    "duration": 0.1652540499999997
                },
                {
                    "name": "C#3",
                    "midi": 49,
                    "time": 8.384524395833333,
                    "velocity": 0.7874015748031497,
                    "duration": 0.1652540499999997
                },
                {
                    "name": "C#3",
                    "midi": 49,
                    "time": 8.642469018749999,
                    "velocity": 0.7874015748031497,
                    "duration": 0.16154642708333355
                },
                {
                    "name": "C#3",
                    "midi": 49,
                    "time": 8.898824660416667,
                    "velocity": 0.7874015748031497,
                    "duration": 0.1594277854166659
                },
                {
                    "name": "C#3",
                    "midi": 49,
                    "time": 9.153061660416666,
                    "velocity": 0.7874015748031497,
                    "duration": 0.1594277854166659
                },
                {
                    "name": "C#3",
                    "midi": 49,
                    "time": 9.407828320833332,
                    "velocity": 0.7874015748031497,
                    "duration": 0.15889812500000033
                },
                {
                    "name": "F#3",
                    "midi": 54,
                    "time": 9.662065320833332,
                    "velocity": 0.7874015748031497,
                    "duration": 0.15889812500000033
                },
                {
                    "name": "C#3",
                    "midi": 49,
                    "time": 9.911535377083332,
                    "velocity": 0.7874015748031497,
                    "duration": 0.16366506874999942
                },
                {
                    "name": "F#3",
                    "midi": 54,
                    "time": 10.171068981249999,
                    "velocity": 0.7874015748031497,
                    "duration": 0.12023291458333318
                },
                {
                    "name": "F3",
                    "midi": 53,
                    "time": 10.296068839583333,
                    "velocity": 0.7874015748031497,
                    "duration": 0.12235155625000083
                },
                {
                    "name": "F3",
                    "midi": 53,
                    "time": 10.42212801875,
                    "velocity": 0.7874015748031497,
                    "duration": 0.12341087708333376
                },
                {
                    "name": "F#3",
                    "midi": 54,
                    "time": 10.54606855625,
                    "velocity": 0.7874015748031497,
                    "duration": 0.12658883958333256
                },
                {
                    "name": "G3",
                    "midi": 55,
                    "time": 10.679013320833333,
                    "velocity": 0.9212598425196851,
                    "duration": 0.15889812500000033
                },
                {
                    "name": "D3",
                    "midi": 50,
                    "time": 10.9353689625,
                    "velocity": 0.7874015748031497,
                    "duration": 0.1567794833333327
                },
                {
                    "name": "D3",
                    "midi": 50,
                    "time": 11.1896059625,
                    "velocity": 0.7874015748031497,
                    "duration": 0.1567794833333327
                },
                {
                    "name": "G#3",
                    "midi": 56,
                    "time": 11.440665,
                    "velocity": 0.9133858267716536,
                    "duration": 0.15995744583333327
                },
                {
                    "name": "C#3",
                    "midi": 49,
                    "time": 11.692783358333333,
                    "velocity": 0.7874015748031497,
                    "duration": 0.16207608749999913
                },
                {
                    "name": "C#3",
                    "midi": 49,
                    "time": 11.953376283333332,
                    "velocity": 0.7874015748031497,
                    "duration": 0.15572016249999976
                },
                {
                    "name": "G3",
                    "midi": 55,
                    "time": 12.206024302083332,
                    "velocity": 0.905511811023622,
                    "duration": 0.24629209375000016
                },
                {
                    "name": "G4",
                    "midi": 67,
                    "time": 12.208672604166665,
                    "velocity": 0.905511811023622,
                    "duration": 0.24364379166666694
                },
                {
                    "name": "D4",
                    "midi": 62,
                    "time": 12.458142660416666,
                    "velocity": 0.7874015748031497,
                    "duration": 0.1594277854166677
                },
                {
                    "name": "D3",
                    "midi": 50,
                    "time": 12.46237994375,
                    "velocity": 0.7874015748031497,
                    "duration": 0.15519050208333418
                },
                {
                    "name": "D3",
                    "midi": 50,
                    "time": 12.707612716666667,
                    "velocity": 0.7874015748031497,
                    "duration": 0.16419472916666678
                },
                {
                    "name": "D4",
                    "midi": 62,
                    "time": 12.711320339583333,
                    "velocity": 0.7874015748031497,
                    "duration": 0.16048710625000062
                },
                {
                    "name": "G#3",
                    "midi": 56,
                    "time": 12.9629090375,
                    "velocity": 0.8976377952755905,
                    "duration": 0.25211835833333396
                },
                {
                    "name": "G#4",
                    "midi": 68,
                    "time": 12.970324283333333,
                    "velocity": 0.8976377952755905,
                    "duration": 0.24470311249999988
                },
                {
                    "name": "C#3",
                    "midi": 49,
                    "time": 13.2171460375,
                    "velocity": 0.7874015748031497,
                    "duration": 0.16313540833333207
                },
                {
                    "name": "C#4",
                    "midi": 61,
                    "time": 13.223501962499999,
                    "velocity": 0.7874015748031497,
                    "duration": 0.1567794833333327
                },
                {
                    "name": "C#3",
                    "midi": 49,
                    "time": 13.478268622916664,
                    "velocity": 0.7874015748031497,
                    "duration": 0.1562498229166671
                },
                {
                    "name": "C#4",
                    "midi": 61,
                    "time": 13.479857604166664,
                    "velocity": 0.7874015748031497,
                    "duration": 0.15466084166666683
                },
                {
                    "name": "G4",
                    "midi": 67,
                    "time": 13.72985732083333,
                    "velocity": 0.9133858267716536,
                    "duration": 0.24788107500000045
                },
                {
                    "name": "G3",
                    "midi": 55,
                    "time": 13.734094604166664,
                    "velocity": 0.9133858267716536,
                    "duration": 0.24364379166666694
                },
                {
                    "name": "D4",
                    "midi": 62,
                    "time": 13.980386697916664,
                    "velocity": 0.7874015748031497,
                    "duration": 0.1626057479166665
                },
                {
                    "name": "D3",
                    "midi": 50,
                    "time": 13.981975679166665,
                    "velocity": 0.7874015748031497,
                    "duration": 0.1610167666666662
                },
                {
                    "name": "D3",
                    "midi": 50,
                    "time": 14.235153358333331,
                    "velocity": 0.7874015748031497,
                    "duration": 0.1620760875000009
                },
                {
                    "name": "D4",
                    "midi": 62,
                    "time": 14.240979622916665,
                    "velocity": 0.7874015748031497,
                    "duration": 0.1562498229166671
                },
                {
                    "name": "G#3",
                    "midi": 56,
                    "time": 14.486212395833332,
                    "velocity": 0.9133858267716536,
                    "duration": 0.2542369999999998
                },
                {
                    "name": "G#4",
                    "midi": 68,
                    "time": 14.489920018749999,
                    "velocity": 0.9133858267716536,
                    "duration": 0.25052937708333367
                },
                {
                    "name": "C#3",
                    "midi": 49,
                    "time": 14.74097905625,
                    "velocity": 0.7874015748031497,
                    "duration": 0.16472438958333413
                },
                {
                    "name": "C#4",
                    "midi": 61,
                    "time": 14.747864641666666,
                    "velocity": 0.7874015748031497,
                    "duration": 0.1578388041666674
                },
                {
                    "name": "C#4",
                    "midi": 61,
                    "time": 14.994686395833334,
                    "velocity": 0.7874015748031497,
                    "duration": 0.16525405000000148
                },
                {
                    "name": "C#3",
                    "midi": 49,
                    "time": 14.995216056250001,
                    "velocity": 0.7874015748031497,
                    "duration": 0.16472438958333413
                },
                {
                    "name": "C3",
                    "midi": 48,
                    "time": 15.258986943750003,
                    "velocity": 0.7874015748031497,
                    "duration": 0.24417345208333252
                },
                {
                    "name": "C4",
                    "midi": 60,
                    "time": 15.505808697916668,
                    "velocity": 0.7874015748031497,
                    "duration": 0.07997872291666752
                },
                {
                    "name": "A#3",
                    "midi": 58,
                    "time": 15.63292719791667,
                    "velocity": 0.7874015748031497,
                    "duration": 0.07997872291666752
                },
                {
                    "name": "C4",
                    "midi": 60,
                    "time": 15.763753320833338,
                    "velocity": 0.7874015748031497,
                    "duration": 0.07627109999999959
                },
                {
                    "name": "C#4",
                    "midi": 61,
                    "time": 15.89193114166667,
                    "velocity": 0.7874015748031497,
                    "duration": 0.07521177916666666
                },
                {
                    "name": "D#4",
                    "midi": 63,
                    "time": 16.02063862291667,
                    "velocity": 0.7874015748031497,
                    "duration": 0.1562498229166671
                },
                {
                    "name": "A#2",
                    "midi": 46,
                    "time": 16.271168000000007,
                    "velocity": 0.8818897637795275,
                    "duration": 0.24894039583333338
                },
                {
                    "name": "A#3",
                    "midi": 58,
                    "time": 16.27381630208334,
                    "velocity": 0.8818897637795275,
                    "duration": 0.24629209375000016
                },
                {
                    "name": "C4",
                    "midi": 60,
                    "time": 16.522227037500006,
                    "velocity": 0.8818897637795275,
                    "duration": 0.25211835833333396
                },
                {
                    "name": "C3",
                    "midi": 48,
                    "time": 16.52805330208334,
                    "velocity": 0.8818897637795275,
                    "duration": 0.24629209375000016
                },
                {
                    "name": "C#4",
                    "midi": 61,
                    "time": 16.77911233958334,
                    "velocity": 0.8818897637795275,
                    "duration": 0.24947005625000074
                },
                {
                    "name": "C#3",
                    "midi": 49,
                    "time": 16.77911233958334,
                    "velocity": 0.8818897637795275,
                    "duration": 0.24947005625000074
                },
                {
                    "name": "G#3",
                    "midi": 56,
                    "time": 17.03652730208334,
                    "velocity": 0.7874015748031497,
                    "duration": 0.07468211874999753
                },
                {
                    "name": "C4",
                    "midi": 60,
                    "time": 17.038645943750005,
                    "velocity": 0.7874015748031497,
                    "duration": 0.07256347708333166
                },
                {
                    "name": "A#3",
                    "midi": 58,
                    "time": 17.15676021666667,
                    "velocity": 0.7874015748031497,
                    "duration": 0.08156770416666603
                },
                {
                    "name": "F#3",
                    "midi": 54,
                    "time": 17.162056820833335,
                    "velocity": 0.7874015748031497,
                    "duration": 0.07627109999999959
                },
                {
                    "name": "G#3",
                    "midi": 56,
                    "time": 17.287056679166668,
                    "velocity": 0.7874015748031497,
                    "duration": 0.07838974166666901
                },
                {
                    "name": "F3",
                    "midi": 53,
                    "time": 17.290764302083335,
                    "velocity": 0.7874015748031497,
                    "duration": 0.07468211875000108
                },
                {
                    "name": "F#3",
                    "midi": 54,
                    "time": 17.416293820833335,
                    "velocity": 0.7874015748031497,
                    "duration": 0.07627109999999959
                },
                {
                    "name": "D#3",
                    "midi": 51,
                    "time": 17.416293820833335,
                    "velocity": 0.7874015748031497,
                    "duration": 0.07627109999999959
                },
                {
                    "name": "F3",
                    "midi": 53,
                    "time": 17.538645377083334,
                    "velocity": 0.7480314960629921,
                    "duration": 0.16366506874999942
                },
                {
                    "name": "D3",
                    "midi": 50,
                    "time": 17.54076401875,
                    "velocity": 0.7480314960629921,
                    "duration": 0.16154642708333355
                },
                {
                    "name": "F3",
                    "midi": 53,
                    "time": 17.7934120375,
                    "velocity": 0.7637795275590551,
                    "duration": 0.16313540833333207
                },
                {
                    "name": "D3",
                    "midi": 50,
                    "time": 17.795530679166667,
                    "velocity": 0.7637795275590551,
                    "duration": 0.1610167666666662
                },
                {
                    "name": "A2",
                    "midi": 45,
                    "time": 18.050827,
                    "velocity": 0.7795275590551181,
                    "duration": 0.15995744583333504
                },
                {
                    "name": "E3",
                    "midi": 52,
                    "time": 18.054004962500002,
                    "velocity": 0.7795275590551181,
                    "duration": 0.15677948333333447
                },
                {
                    "name": "F3",
                    "midi": 53,
                    "time": 18.30771230208334,
                    "velocity": 0.7952755905511811,
                    "duration": 0.15730914374999827
                },
                {
                    "name": "D3",
                    "midi": 50,
                    "time": 18.31036060416667,
                    "velocity": 0.7952755905511811,
                    "duration": 0.15466084166666505
                },
                {
                    "name": "D3",
                    "midi": 50,
                    "time": 18.555593377083337,
                    "velocity": 0.8110236220472441,
                    "duration": 0.16366506874999942
                },
                {
                    "name": "F3",
                    "midi": 53,
                    "time": 18.557712018750003,
                    "velocity": 0.8110236220472441,
                    "duration": 0.16154642708333355
                },
                {
                    "name": "G#2",
                    "midi": 44,
                    "time": 18.813538000000005,
                    "velocity": 0.8267716535433071,
                    "duration": 0.1599574458333315
                },
                {
                    "name": "D#3",
                    "midi": 51,
                    "time": 18.815126981250003,
                    "velocity": 0.8267716535433071,
                    "duration": 0.15836846458333298
                },
                {
                    "name": "D3",
                    "midi": 50,
                    "time": 19.063008056250002,
                    "velocity": 0.84251968503937,
                    "duration": 0.16472438958333058
                },
                {
                    "name": "F3",
                    "midi": 53,
                    "time": 19.069893641666667,
                    "velocity": 0.84251968503937,
                    "duration": 0.15783880416666562
                },
                {
                    "name": "G2",
                    "midi": 43,
                    "time": 19.318304377083333,
                    "velocity": 0.8582677165354331,
                    "duration": 0.16366506875000297
                },
                {
                    "name": "D3",
                    "midi": 50,
                    "time": 19.322012,
                    "velocity": 0.8582677165354331,
                    "duration": 0.15995744583333504
                },
                {
                    "name": "F3",
                    "midi": 53,
                    "time": 19.57201171666667,
                    "velocity": 0.8740157480314961,
                    "duration": 0.16419472916666678
                },
                {
                    "name": "D3",
                    "midi": 50,
                    "time": 19.581015943750003,
                    "velocity": 0.8740157480314961,
                    "duration": 0.1551905020833324
                },
                {
                    "name": "C#3",
                    "midi": 49,
                    "time": 19.83260464166667,
                    "velocity": 0.889763779527559,
                    "duration": 0.15783880416666562
                },
                {
                    "name": "F#2",
                    "midi": 42,
                    "time": 19.835252943750003,
                    "velocity": 0.889763779527559,
                    "duration": 0.1551905020833324
                },
                {
                    "name": "F3",
                    "midi": 53,
                    "time": 20.082604358333334,
                    "velocity": 0.905511811023622,
                    "duration": 0.1620760875000009
                },
                {
                    "name": "D3",
                    "midi": 50,
                    "time": 20.08366367916667,
                    "velocity": 0.905511811023622,
                    "duration": 0.1610167666666662
                },
                {
                    "name": "F2",
                    "midi": 41,
                    "time": 20.33419305625,
                    "velocity": 0.905511811023622,
                    "duration": 0.16472438958333058
                },
                {
                    "name": "F1",
                    "midi": 29,
                    "time": 20.344256604166667,
                    "velocity": 0.905511811023622,
                    "duration": 0.15466084166666505
                },
                {
                    "name": "A#1",
                    "midi": 34,
                    "time": 20.589489377083332,
                    "velocity": 0.9921259842519685,
                    "duration": 0.2526480187500013
                },
                {
                    "name": "A#2",
                    "midi": 46,
                    "time": 20.595315641666666,
                    "velocity": 0.9921259842519685,
                    "duration": 0.24682175416666752
                },
                {
                    "name": "F#3",
                    "midi": 54,
                    "time": 20.851671283333335,
                    "velocity": 0.8346456692913385,
                    "duration": 0.24470311250000165
                },
                {
                    "name": "F3",
                    "midi": 53,
                    "time": 21.10537862291667,
                    "velocity": 0.8346456692913385,
                    "duration": 0.24523277291666545
                },
                {
                    "name": "C3",
                    "midi": 48,
                    "time": 21.352730037500002,
                    "velocity": 1,
                    "duration": 0.2521183583333304
                },
                {
                    "name": "C2",
                    "midi": 36,
                    "time": 21.356967320833334,
                    "velocity": 1,
                    "duration": 0.24788107499999867
                },
                {
                    "name": "F#3",
                    "midi": 54,
                    "time": 21.60643737708333,
                    "velocity": 0.8267716535433071,
                    "duration": 0.2526480187500013
                },
                {
                    "name": "F3",
                    "midi": 53,
                    "time": 21.868089622916667,
                    "velocity": 0.8267716535433071,
                    "duration": 0.24523277291666545
                },
                {
                    "name": "C#2",
                    "midi": 37,
                    "time": 22.11491137708333,
                    "velocity": 0.984251968503937,
                    "duration": 0.2526480187500013
                },
                {
                    "name": "C#3",
                    "midi": 49,
                    "time": 22.11808933958333,
                    "velocity": 0.984251968503937,
                    "duration": 0.24947005625000074
                },
                {
                    "name": "F#3",
                    "midi": 54,
                    "time": 22.372856,
                    "velocity": 0.8267716535433071,
                    "duration": 0.24894039583333338
                },
                {
                    "name": "F3",
                    "midi": 53,
                    "time": 22.629741302083332,
                    "velocity": 0.8267716535433071,
                    "duration": 0.24629209375000016
                },
                {
                    "name": "D#3",
                    "midi": 51,
                    "time": 22.878681697916665,
                    "velocity": 0.968503937007874,
                    "duration": 0.2515886979166666
                },
                {
                    "name": "D#2",
                    "midi": 39,
                    "time": 22.880270679166664,
                    "velocity": 0.968503937007874,
                    "duration": 0.2499997166666681
                },
                {
                    "name": "F#3",
                    "midi": 54,
                    "time": 23.136096660416666,
                    "velocity": 0.8346456692913385,
                    "duration": 0.24841073541666603
                },
                {
                    "name": "F3",
                    "midi": 53,
                    "time": 23.391922641666664,
                    "velocity": 0.8346456692913385,
                    "duration": 0.24682175416666752
                },
                {
                    "name": "A#2",
                    "midi": 46,
                    "time": 23.64668930208333,
                    "velocity": 0.984251968503937,
                    "duration": 0.24629209375000016
                },
                {
                    "name": "A#1",
                    "midi": 34,
                    "time": 23.64668930208333,
                    "velocity": 0.984251968503937,
                    "duration": 0.24629209375000016
                },
                {
                    "name": "F#3",
                    "midi": 54,
                    "time": 23.89774833958333,
                    "velocity": 0.8267716535433071,
                    "duration": 0.24947005625000074
                },
                {
                    "name": "F3",
                    "midi": 53,
                    "time": 24.148277716666666,
                    "velocity": 0.8267716535433071,
                    "duration": 0.2531776791666651
                },
                {
                    "name": "C2",
                    "midi": 36,
                    "time": 24.40516301875,
                    "velocity": 0.9763779527559056,
                    "duration": 0.2505293770833319
                },
                {
                    "name": "C3",
                    "midi": 48,
                    "time": 24.410459622916665,
                    "velocity": 0.9763779527559056,
                    "duration": 0.24523277291666545
                },
                {
                    "name": "F#3",
                    "midi": 54,
                    "time": 24.65569239583333,
                    "velocity": 0.8267716535433071,
                    "duration": 0.2542369999999998
                },
                {
                    "name": "F3",
                    "midi": 53,
                    "time": 24.915225999999997,
                    "velocity": 0.8267716535433071,
                    "duration": 0.24894039583333338
                },
                {
                    "name": "C#2",
                    "midi": 37,
                    "time": 25.168403679166662,
                    "velocity": 0.9763779527559056,
                    "duration": 0.2499997166666681
                },
                {
                    "name": "C#3",
                    "midi": 49,
                    "time": 25.171051981249995,
                    "velocity": 0.9763779527559056,
                    "duration": 0.24735141458333487
                },
                {
                    "name": "F#3",
                    "midi": 54,
                    "time": 25.419462716666665,
                    "velocity": 0.8267716535433071,
                    "duration": 0.2531776791666651
                },
                {
                    "name": "F3",
                    "midi": 53,
                    "time": 25.682703943749996,
                    "velocity": 0.8267716535433071,
                    "duration": 0.2441734520833343
                },
                {
                    "name": "A#1",
                    "midi": 34,
                    "time": 25.932703660416664,
                    "velocity": 0.84251968503937,
                    "duration": 0.24841073541666603
                },
                {
                    "name": "A#2",
                    "midi": 46,
                    "time": 25.936940943749995,
                    "velocity": 0.84251968503937,
                    "duration": 0.2441734520833343
                },
                {
                    "name": "C3",
                    "midi": 48,
                    "time": 26.184822018749998,
                    "velocity": 0.84251968503937,
                    "duration": 0.25052937708333545
                },
                {
                    "name": "C2",
                    "midi": 36,
                    "time": 26.185881339583332,
                    "velocity": 0.84251968503937,
                    "duration": 0.24947005625000074
                },
                {
                    "name": "C#3",
                    "midi": 49,
                    "time": 26.43905901875,
                    "velocity": 0.84251968503937,
                    "duration": 0.2505293770833319
                },
                {
                    "name": "C#2",
                    "midi": 37,
                    "time": 26.444355622916667,
                    "velocity": 0.84251968503937,
                    "duration": 0.24523277291666545
                },
                {
                    "name": "D#2",
                    "midi": 39,
                    "time": 26.692766358333333,
                    "velocity": 0.8503937007874016,
                    "duration": 0.25105903749999925
                },
                {
                    "name": "D#1",
                    "midi": 27,
                    "time": 26.694355339583332,
                    "velocity": 0.8503937007874016,
                    "duration": 0.24947005625000074
                },
                {
                    "name": "C#3",
                    "midi": 49,
                    "time": 26.946473697916666,
                    "velocity": 0.984251968503937,
                    "duration": 0.2515886979166666
                },
                {
                    "name": "F1",
                    "midi": 29,
                    "time": 27.201240358333333,
                    "velocity": 0.8661417322834646,
                    "duration": 0.25105903749999925
                },
                {
                    "name": "F2",
                    "midi": 41,
                    "time": 27.208655604166665,
                    "velocity": 0.8661417322834646,
                    "duration": 0.24364379166666694
                },
                {
                    "name": "F#1",
                    "midi": 30,
                    "time": 27.458125660416666,
                    "velocity": 0.8661417322834646,
                    "duration": 0.24841073541666603
                },
                {
                    "name": "F#2",
                    "midi": 42,
                    "time": 27.460244302083332,
                    "velocity": 0.8661417322834646,
                    "duration": 0.24629209375000016
                },
                {
                    "name": "C#3",
                    "midi": 49,
                    "time": 27.708655037499998,
                    "velocity": 0.984251968503937,
                    "duration": 0.25211835833333396
                },
                {
                    "name": "F2",
                    "midi": 41,
                    "time": 27.96871830208333,
                    "velocity": 0.8661417322834646,
                    "duration": 0.24629209375000016
                },
                {
                    "name": "F1",
                    "midi": 29,
                    "time": 27.969777622916666,
                    "velocity": 0.8661417322834646,
                    "duration": 0.24523277291666545
                },
                {
                    "name": "D#2",
                    "midi": 39,
                    "time": 28.219247679166664,
                    "velocity": 0.8740157480314961,
                    "duration": 0.2499997166666681
                },
                {
                    "name": "D#1",
                    "midi": 27,
                    "time": 28.220307,
                    "velocity": 0.8740157480314961,
                    "duration": 0.24894039583333338
                },
                {
                    "name": "C#3",
                    "midi": 49,
                    "time": 28.478781283333333,
                    "velocity": 0.984251968503937,
                    "duration": 0.24470311250000165
                },
                {
                    "name": "F2",
                    "midi": 41,
                    "time": 28.723484395833335,
                    "velocity": 0.889763779527559,
                    "duration": 0.2542369999999998
                },
                {
                    "name": "F1",
                    "midi": 29,
                    "time": 28.734077604166668,
                    "velocity": 0.889763779527559,
                    "duration": 0.24364379166666694
                },
                {
                    "name": "F#1",
                    "midi": 30,
                    "time": 28.978251056250002,
                    "velocity": 0.889763779527559,
                    "duration": 0.25370733958333247
                },
                {
                    "name": "F#2",
                    "midi": 42,
                    "time": 28.984077320833336,
                    "velocity": 0.889763779527559,
                    "duration": 0.24788107499999867
                },
                {
                    "name": "C#3",
                    "midi": 49,
                    "time": 29.23778466041667,
                    "velocity": 0.9921259842519685,
                    "duration": 0.24841073541666603
                },
                {
                    "name": "F2",
                    "midi": 41,
                    "time": 29.4883140375,
                    "velocity": 0.8661417322834646,
                    "duration": 0.2521183583333304
                },
                {
                    "name": "F1",
                    "midi": 29,
                    "time": 29.495199622916665,
                    "velocity": 0.8661417322834646,
                    "duration": 0.24523277291666545
                },
                {
                    "name": "D#2",
                    "midi": 39,
                    "time": 29.747317981249996,
                    "velocity": 0.8661417322834646,
                    "duration": 0.24735141458333487
                },
                {
                    "name": "D#1",
                    "midi": 27,
                    "time": 29.747317981249996,
                    "velocity": 0.8661417322834646,
                    "duration": 0.24735141458333487
                },
                {
                    "name": "C#3",
                    "midi": 49,
                    "time": 29.996788037499996,
                    "velocity": 0.9763779527559056,
                    "duration": 0.25211835833333396
                },
                {
                    "name": "F1",
                    "midi": 29,
                    "time": 30.249965716666665,
                    "velocity": 0.8582677165354331,
                    "duration": 0.2531776791666651
                },
                {
                    "name": "F2",
                    "midi": 41,
                    "time": 30.257910622916665,
                    "velocity": 0.8582677165354331,
                    "duration": 0.24523277291666545
                },
                {
                    "name": "F#2",
                    "midi": 42,
                    "time": 30.504202716666665,
                    "velocity": 0.905511811023622,
                    "duration": 0.2531776791666651
                },
                {
                    "name": "F#1",
                    "midi": 30,
                    "time": 30.51108830208333,
                    "velocity": 0.905511811023622,
                    "duration": 0.24629209375000016
                },
                {
                    "name": "G2",
                    "midi": 43,
                    "time": 30.76055835833333,
                    "velocity": 0.905511811023622,
                    "duration": 0.25105903749999925
                },
                {
                    "name": "G1",
                    "midi": 31,
                    "time": 30.767443943749996,
                    "velocity": 0.905511811023622,
                    "duration": 0.2441734520833343
                },
                {
                    "name": "C1",
                    "midi": 24,
                    "time": 31.01479535833333,
                    "velocity": 0.905511811023622,
                    "duration": 0.25105903749999925
                },
                {
                    "name": "C2",
                    "midi": 36,
                    "time": 31.015325018749998,
                    "velocity": 0.905511811023622,
                    "duration": 0.2505293770833319
                },
                {
                    "name": "C#2",
                    "midi": 37,
                    "time": 31.266913716666664,
                    "velocity": 0.905511811023622,
                    "duration": 0.2531776791666651
                },
                {
                    "name": "C#1",
                    "midi": 25,
                    "time": 31.27379930208333,
                    "velocity": 0.905511811023622,
                    "duration": 0.24629209375000016
                },
                {
                    "name": "C#2",
                    "midi": 37,
                    "time": 31.527506641666662,
                    "velocity": 0.905511811023622,
                    "duration": 0.24682175416666396
                },
                {
                    "name": "C#1",
                    "midi": 25,
                    "time": 31.52909562291666,
                    "velocity": 0.905511811023622,
                    "duration": 0.24523277291666545
                },
                {
                    "name": "C#2",
                    "midi": 37,
                    "time": 31.780684320833327,
                    "velocity": 0.905511811023622,
                    "duration": 0.24788107499999867
                },
                {
                    "name": "C#1",
                    "midi": 25,
                    "time": 31.782273302083325,
                    "velocity": 0.905511811023622,
                    "duration": 0.24629209375000016
                },
                {
                    "name": "F#1",
                    "midi": 30,
                    "time": 32.03015437708333,
                    "velocity": 0.905511811023622,
                    "duration": 0.2526480187500013
                },
                {
                    "name": "F#2",
                    "midi": 42,
                    "time": 32.03121369791666,
                    "velocity": 0.905511811023622,
                    "duration": 0.2515886979166666
                },
                {
                    "name": "F#1",
                    "midi": 30,
                    "time": 32.28280239583333,
                    "velocity": 0.905511811023622,
                    "duration": 0.2542370000000034
                },
                {
                    "name": "F#2",
                    "midi": 42,
                    "time": 32.283332056249996,
                    "velocity": 0.905511811023622,
                    "duration": 0.253707339583336
                },
                {
                    "name": "F#2",
                    "midi": 42,
                    "time": 32.545513962499996,
                    "velocity": 0.905511811023622,
                    "duration": 0.2457624333333328
                },
                {
                    "name": "F#1",
                    "midi": 30,
                    "time": 32.54604362291666,
                    "velocity": 0.905511811023622,
                    "duration": 0.24523277291666545
                },
                {
                    "name": "G2",
                    "midi": 43,
                    "time": 32.7933950375,
                    "velocity": 0.905511811023622,
                    "duration": 0.25211835833333396
                },
                {
                    "name": "C3",
                    "midi": 48,
                    "time": 33.04657271666667,
                    "velocity": 0.905511811023622,
                    "duration": 0.25317767916666867
                },
                {
                    "name": "C3",
                    "midi": 48,
                    "time": 33.30557666041667,
                    "velocity": 0.905511811023622,
                    "duration": 0.24841073541666958
                },
                {
                    "name": "F#2",
                    "midi": 42,
                    "time": 33.55398739583334,
                    "velocity": 0.905511811023622,
                    "duration": 0.2542370000000034
                },
                {
                    "name": "C3",
                    "midi": 48,
                    "time": 33.80928371666668,
                    "velocity": 0.905511811023622,
                    "duration": 0.25317767916666867
                },
                {
                    "name": "C3",
                    "midi": 48,
                    "time": 34.067228339583345,
                    "velocity": 0.905511811023622,
                    "duration": 0.24947005624999719
                },
                {
                    "name": "F2",
                    "midi": 41,
                    "time": 34.324643302083345,
                    "velocity": 0.905511811023622,
                    "duration": 0.24629209375000016
                },
                {
                    "name": "C#3",
                    "midi": 49,
                    "time": 34.57835064166668,
                    "velocity": 0.905511811023622,
                    "duration": 0.24682175416666752
                },
                {
                    "name": "C3",
                    "midi": 48,
                    "time": 34.83099866041668,
                    "velocity": 0.905511811023622,
                    "duration": 0.24841073541666958
                },
                {
                    "name": "A#2",
                    "midi": 46,
                    "time": 35.07993905625002,
                    "velocity": 0.905511811023622,
                    "duration": 0.16472438958333413
                },
                {
                    "name": "A#2",
                    "midi": 46,
                    "time": 35.33576503750002,
                    "velocity": 0.905511811023622,
                    "duration": 0.16313540833333917
                },
                {
                    "name": "A#1",
                    "midi": 34,
                    "time": 35.338413339583354,
                    "velocity": 0.905511811023622,
                    "duration": 0.1604871062500024
                },
                {
                    "name": "C3",
                    "midi": 48,
                    "time": 35.591061358333356,
                    "velocity": 0.905511811023622,
                    "duration": 0.16207608749999736
                },
                {
                    "name": "C2",
                    "midi": 36,
                    "time": 35.59529864166669,
                    "velocity": 0.905511811023622,
                    "duration": 0.15783880416666562
                },
                {
                    "name": "C#3",
                    "midi": 49,
                    "time": 35.84423903750002,
                    "velocity": 0.905511811023622,
                    "duration": 0.16313540833333917
                },
                {
                    "name": "C#2",
                    "midi": 37,
                    "time": 35.846887339583354,
                    "velocity": 0.905511811023622,
                    "duration": 0.1604871062500024
                },
                {
                    "name": "F3",
                    "midi": 53,
                    "time": 36.10218366041669,
                    "velocity": 0.905511811023622,
                    "duration": 0.1594277854166677
                },
                {
                    "name": "G#3",
                    "midi": 56,
                    "time": 36.10271332083336,
                    "velocity": 0.905511811023622,
                    "duration": 0.15889812500000033
                },
                {
                    "name": "F3",
                    "midi": 53,
                    "time": 36.35218337708336,
                    "velocity": 0.905511811023622,
                    "duration": 0.16366506874999942
                },
                {
                    "name": "G#3",
                    "midi": 56,
                    "time": 36.35747998125002,
                    "velocity": 0.905511811023622,
                    "duration": 0.15836846458333298
                },
                {
                    "name": "C#3",
                    "midi": 49,
                    "time": 36.610128000000024,
                    "velocity": 0.905511811023622,
                    "duration": 0.15995744583333504
                },
                {
                    "name": "G#3",
                    "midi": 56,
                    "time": 36.86648364166669,
                    "velocity": 0.905511811023622,
                    "duration": 0.15783880416666562
                },
                {
                    "name": "F3",
                    "midi": 53,
                    "time": 36.86966160416669,
                    "velocity": 0.905511811023622,
                    "duration": 0.1546608416666686
                },
                {
                    "name": "G#3",
                    "midi": 56,
                    "time": 37.11489437708335,
                    "velocity": 0.905511811023622,
                    "duration": 0.16366506874999942
                },
                {
                    "name": "F3",
                    "midi": 53,
                    "time": 37.123368943750016,
                    "velocity": 0.905511811023622,
                    "duration": 0.15519050208333596
                },
                {
                    "name": "D#3",
                    "midi": 51,
                    "time": 37.37125001875002,
                    "velocity": 0.905511811023622,
                    "duration": 0.16154642708333
                },
                {
                    "name": "A#3",
                    "midi": 58,
                    "time": 37.623368377083345,
                    "velocity": 0.905511811023622,
                    "duration": 0.16366506874999942
                },
                {
                    "name": "F3",
                    "midi": 53,
                    "time": 37.632372604166676,
                    "velocity": 0.905511811023622,
                    "duration": 0.1546608416666686
                },
                {
                    "name": "C#3",
                    "midi": 49,
                    "time": 37.880783339583346,
                    "velocity": 0.905511811023622,
                    "duration": 0.1604871062500024
                },
                {
                    "name": "D#3",
                    "midi": 51,
                    "time": 38.14084660416668,
                    "velocity": 0.905511811023622,
                    "duration": 0.1546608416666686
                },
                {
                    "name": "A#3",
                    "midi": 58,
                    "time": 38.38554971666669,
                    "velocity": 0.905511811023622,
                    "duration": 0.16419472916666678
                },
                {
                    "name": "F3",
                    "midi": 53,
                    "time": 38.39137598125002,
                    "velocity": 0.905511811023622,
                    "duration": 0.15836846458333298
                },
                {
                    "name": "C#3",
                    "midi": 49,
                    "time": 38.639257056250024,
                    "velocity": 0.905511811023622,
                    "duration": 0.16472438958333413
                },
                {
                    "name": "D#3",
                    "midi": 51,
                    "time": 38.89773133958336,
                    "velocity": 0.905511811023622,
                    "duration": 0.1604871062500024
                },
                {
                    "name": "F3",
                    "midi": 53,
                    "time": 39.14773105625003,
                    "velocity": 0.905511811023622,
                    "duration": 0.16472438958333413
                },
                {
                    "name": "A#3",
                    "midi": 58,
                    "time": 39.15726494375003,
                    "velocity": 0.905511811023622,
                    "duration": 0.15519050208333596
                },
                {
                    "name": "C#3",
                    "midi": 49,
                    "time": 39.410972283333365,
                    "velocity": 0.905511811023622,
                    "duration": 0.1557201625000033
                },
                {
                    "name": "D#3",
                    "midi": 51,
                    "time": 39.65885335833337,
                    "velocity": 0.905511811023622,
                    "duration": 0.16207608749999736
                },
                {
                    "name": "A#3",
                    "midi": 58,
                    "time": 39.91203103750003,
                    "velocity": 0.905511811023622,
                    "duration": 0.16313540833333207
                },
                {
                    "name": "F3",
                    "midi": 53,
                    "time": 39.91838696250003,
                    "velocity": 0.905511811023622,
                    "duration": 0.15677948333333092
                },
                {
                    "name": "C#3",
                    "midi": 49,
                    "time": 40.168386679166694,
                    "velocity": 0.905511811023622,
                    "duration": 0.16101676666666975
                },
                {
                    "name": "D#3",
                    "midi": 51,
                    "time": 40.42050503750003,
                    "velocity": 0.905511811023622,
                    "duration": 0.25211835833333396
                },
                {
                    "name": "C3",
                    "midi": 48,
                    "time": 40.42527198125003,
                    "velocity": 0.905511811023622,
                    "duration": 0.24735141458333487
                },
                {
                    "name": "A#3",
                    "midi": 58,
                    "time": 40.67897932083336,
                    "velocity": 0.9763779527559056,
                    "duration": 0.24788107500000223
                },
                {
                    "name": "F3",
                    "midi": 53,
                    "time": 40.931627339583365,
                    "velocity": 0.905511811023622,
                    "duration": 0.24947005624999719
                },
                {
                    "name": "C#3",
                    "midi": 49,
                    "time": 40.931627339583365,
                    "velocity": 0.905511811023622,
                    "duration": 0.24947005624999719
                },
                {
                    "name": "F#3",
                    "midi": 54,
                    "time": 41.18745332083336,
                    "velocity": 0.905511811023622,
                    "duration": 0.24788107500000223
                },
                {
                    "name": "D#3",
                    "midi": 51,
                    "time": 41.18798298125003,
                    "velocity": 0.905511811023622,
                    "duration": 0.24735141458333487
                },
                {
                    "name": "A#3",
                    "midi": 58,
                    "time": 41.444338622916696,
                    "velocity": 0.9921259842519685,
                    "duration": 0.24523277291666545
                },
                {
                    "name": "C#3",
                    "midi": 49,
                    "time": 41.69645698125003,
                    "velocity": 0.905511811023622,
                    "duration": 0.24735141458333487
                },
                {
                    "name": "F3",
                    "midi": 53,
                    "time": 41.6985756229167,
                    "velocity": 0.905511811023622,
                    "duration": 0.24523277291666545
                },
                {
                    "name": "C3",
                    "midi": 48,
                    "time": 41.9496346604167,
                    "velocity": 0.905511811023622,
                    "duration": 0.24841073541666958
                },
                {
                    "name": "D#3",
                    "midi": 51,
                    "time": 41.95175330208337,
                    "velocity": 0.905511811023622,
                    "duration": 0.24629209375000016
                },
                {
                    "name": "A#3",
                    "midi": 58,
                    "time": 42.20175301875003,
                    "velocity": 0.9763779527559056,
                    "duration": 0.2505293770833319
                },
                {
                    "name": "F3",
                    "midi": 53,
                    "time": 42.45387137708337,
                    "velocity": 0.905511811023622,
                    "duration": 0.2526480187500013
                },
                {
                    "name": "C#3",
                    "midi": 49,
                    "time": 42.46022730208337,
                    "velocity": 0.905511811023622,
                    "duration": 0.24629209375000016
                },
                {
                    "name": "F#3",
                    "midi": 54,
                    "time": 42.7123456604167,
                    "velocity": 0.905511811023622,
                    "duration": 0.24841073541666248
                },
                {
                    "name": "D#3",
                    "midi": 51,
                    "time": 42.71658294375003,
                    "velocity": 0.905511811023622,
                    "duration": 0.24417345208333074
                },
                {
                    "name": "F3",
                    "midi": 53,
                    "time": 42.962345377083366,
                    "velocity": 0.905511811023622,
                    "duration": 0.2526480187500013
                },
                {
                    "name": "F4",
                    "midi": 65,
                    "time": 42.9634046979167,
                    "velocity": 0.905511811023622,
                    "duration": 0.2515886979166666
                },
                {
                    "name": "F#4",
                    "midi": 66,
                    "time": 43.22134932083337,
                    "velocity": 0.905511811023622,
                    "duration": 0.24788107500000223
                },
                {
                    "name": "F#3",
                    "midi": 54,
                    "time": 43.2224086416667,
                    "velocity": 0.905511811023622,
                    "duration": 0.24682175416666752
                },
                {
                    "name": "G4",
                    "midi": 67,
                    "time": 43.472938018750035,
                    "velocity": 0.952755905511811,
                    "duration": 0.250529377083339
                },
                {
                    "name": "G3",
                    "midi": 55,
                    "time": 43.47558632083337,
                    "velocity": 0.952755905511811,
                    "duration": 0.24788107500000223
                },
                {
                    "name": "D4",
                    "midi": 62,
                    "time": 43.72399705625004,
                    "velocity": 0.8976377952755905,
                    "duration": 0.16472438958333413
                },
                {
                    "name": "D3",
                    "midi": 50,
                    "time": 43.72876400000004,
                    "velocity": 0.8976377952755905,
                    "duration": 0.15995744583333504
                },
                {
                    "name": "D4",
                    "midi": 62,
                    "time": 43.98406032083338,
                    "velocity": 0.8503937007874016,
                    "duration": 0.15889812500000033
                },
                {
                    "name": "D3",
                    "midi": 50,
                    "time": 43.98564930208338,
                    "velocity": 0.8503937007874016,
                    "duration": 0.15730914374999827
                },
                {
                    "name": "G#3",
                    "midi": 56,
                    "time": 44.23882698125004,
                    "velocity": 0.9763779527559056,
                    "duration": 0.24735141458333487
                },
                {
                    "name": "G#4",
                    "midi": 68,
                    "time": 44.23935664166671,
                    "velocity": 0.9763779527559056,
                    "duration": 0.24682175416666752
                },
                {
                    "name": "C#4",
                    "midi": 61,
                    "time": 44.48776737708338,
                    "velocity": 0.9133858267716536,
                    "duration": 0.16366506874999942
                },
                {
                    "name": "C#3",
                    "midi": 49,
                    "time": 44.49465296250005,
                    "velocity": 0.9133858267716536,
                    "duration": 0.15677948333333092
                },
                {
                    "name": "C#3",
                    "midi": 49,
                    "time": 44.74677132083338,
                    "velocity": 0.8582677165354331,
                    "duration": 0.15889812500000033
                },
                {
                    "name": "C#4",
                    "midi": 61,
                    "time": 44.74994928333338,
                    "velocity": 0.8582677165354331,
                    "duration": 0.1557201625000033
                },
                {
                    "name": "G4",
                    "midi": 67,
                    "time": 45.001008320833385,
                    "velocity": 0.968503937007874,
                    "duration": 0.24788107499999512
                },
                {
                    "name": "G3",
                    "midi": 55,
                    "time": 45.00471594375005,
                    "velocity": 0.968503937007874,
                    "duration": 0.24417345208333074
                },
                {
                    "name": "D4",
                    "midi": 62,
                    "time": 45.24888939583338,
                    "velocity": 0.8976377952755905,
                    "duration": 0.16525405000000148
                },
                {
                    "name": "D3",
                    "midi": 50,
                    "time": 45.256834302083384,
                    "velocity": 0.8976377952755905,
                    "duration": 0.15730914374999827
                },
                {
                    "name": "D3",
                    "midi": 50,
                    "time": 45.51054164166671,
                    "velocity": 0.8267716535433071,
                    "duration": 0.15783880416666562
                },
                {
                    "name": "D4",
                    "midi": 62,
                    "time": 45.51371960416671,
                    "velocity": 0.8267716535433071,
                    "duration": 0.1546608416666686
                },
                {
                    "name": "G#3",
                    "midi": 56,
                    "time": 45.76054135833338,
                    "velocity": 0.968503937007874,
                    "duration": 0.25105903750000635
                },
                {
                    "name": "G#4",
                    "midi": 68,
                    "time": 45.763189660416714,
                    "velocity": 0.968503937007874,
                    "duration": 0.24841073541666958
                },
                {
                    "name": "C#4",
                    "midi": 61,
                    "time": 46.013189377083386,
                    "velocity": 0.8976377952755905,
                    "duration": 0.16366506874999942
                },
                {
                    "name": "C#3",
                    "midi": 49,
                    "time": 46.01477835833339,
                    "velocity": 0.8976377952755905,
                    "duration": 0.16207608749999736
                },
                {
                    "name": "C#3",
                    "midi": 49,
                    "time": 46.26689671666672,
                    "velocity": 0.8188976377952756,
                    "duration": 0.16419472916666678
                },
                {
                    "name": "C#4",
                    "midi": 61,
                    "time": 46.275371283333385,
                    "velocity": 0.8188976377952756,
                    "duration": 0.1557201625000033
                },
                {
                    "name": "C3",
                    "midi": 48,
                    "time": 46.528019302083386,
                    "velocity": 0.905511811023622,
                    "duration": 0.5005290937500035
                },
                {
                    "name": "C4",
                    "midi": 60,
                    "time": 46.52907862291672,
                    "velocity": 0.905511811023622,
                    "duration": 0.49946977291666883
                },
                {
                    "name": "A#2",
                    "midi": 46,
                    "time": 47.03013737708339,
                    "velocity": 0.905511811023622,
                    "duration": 0.2526480187500013
                },
                {
                    "name": "A#3",
                    "midi": 58,
                    "time": 47.031726358333394,
                    "velocity": 0.905511811023622,
                    "duration": 0.25105903749999925
                },
                {
                    "name": "G#2",
                    "midi": 44,
                    "time": 47.28331505625006,
                    "velocity": 0.905511811023622,
                    "duration": 0.253707339583336
                },
                {
                    "name": "G#3",
                    "midi": 56,
                    "time": 47.28331505625006,
                    "velocity": 0.905511811023622,
                    "duration": 0.253707339583336
                },
                {
                    "name": "F#3",
                    "midi": 54,
                    "time": 47.543907981250065,
                    "velocity": 0.905511811023622,
                    "duration": 0.24735141458333487
                },
                {
                    "name": "F#2",
                    "midi": 42,
                    "time": 47.546026622916735,
                    "velocity": 0.905511811023622,
                    "duration": 0.24523277291666545
                },
                {
                    "name": "F3",
                    "midi": 53,
                    "time": 47.7960263395834,
                    "velocity": 0.905511811023622,
                    "duration": 0.2494700562500043
                },
                {
                    "name": "F2",
                    "midi": 41,
                    "time": 47.797085660416734,
                    "velocity": 0.905511811023622,
                    "duration": 0.24841073541666958
                },
                {
                    "name": "D#2",
                    "midi": 39,
                    "time": 48.0486743583334,
                    "velocity": 0.905511811023622,
                    "duration": 0.25105903749999925
                },
                {
                    "name": "D#3",
                    "midi": 51,
                    "time": 48.049733679166735,
                    "velocity": 0.905511811023622,
                    "duration": 0.24999971666666454
                },
                {
                    "name": "C#2",
                    "midi": 37,
                    "time": 48.3045003395834,
                    "velocity": 0.905511811023622,
                    "duration": 0.24947005624999719
                },
                {
                    "name": "C#3",
                    "midi": 49,
                    "time": 48.305030000000066,
                    "velocity": 0.905511811023622,
                    "duration": 0.24894039583332983
                },
                {
                    "name": "B1",
                    "midi": 35,
                    "time": 48.5555593770834,
                    "velocity": 0.905511811023622,
                    "duration": 0.2526480187500013
                },
                {
                    "name": "B2",
                    "midi": 47,
                    "time": 48.5571483583334,
                    "velocity": 0.905511811023622,
                    "duration": 0.25105903749999925
                },
                {
                    "name": "D#2",
                    "midi": 39,
                    "time": 48.811385358333396,
                    "velocity": 0.905511811023622,
                    "duration": 0.25105903749999925
                },
                {
                    "name": "D#3",
                    "midi": 51,
                    "time": 48.816152302083395,
                    "velocity": 0.905511811023622,
                    "duration": 0.24629209375000016
                },
                {
                    "name": "C#2",
                    "midi": 37,
                    "time": 49.071448622916726,
                    "velocity": 0.905511811023622,
                    "duration": 0.24523277291666545
                },
                {
                    "name": "C#3",
                    "midi": 49,
                    "time": 49.07303760416673,
                    "velocity": 0.905511811023622,
                    "duration": 0.2436437916666634
                },
                {
                    "name": "B2",
                    "midi": 47,
                    "time": 49.324626302083395,
                    "velocity": 0.905511811023622,
                    "duration": 0.24629209375000016
                },
                {
                    "name": "B1",
                    "midi": 35,
                    "time": 49.3262152833334,
                    "velocity": 0.905511811023622,
                    "duration": 0.2447031124999981
                },
                {
                    "name": "D#3",
                    "midi": 51,
                    "time": 49.57409635833339,
                    "velocity": 0.905511811023622,
                    "duration": 0.25105903749999925
                },
                {
                    "name": "D#2",
                    "midi": 39,
                    "time": 49.58098194375006,
                    "velocity": 0.905511811023622,
                    "duration": 0.24417345208333074
                },
                {
                    "name": "C#3",
                    "midi": 49,
                    "time": 49.82568505625006,
                    "velocity": 0.905511811023622,
                    "duration": 0.253707339583336
                },
                {
                    "name": "C#2",
                    "midi": 37,
                    "time": 49.826214716666726,
                    "velocity": 0.905511811023622,
                    "duration": 0.25317767916666867
                },
                {
                    "name": "B2",
                    "midi": 47,
                    "time": 50.08521866041673,
                    "velocity": 0.905511811023622,
                    "duration": 0.24841073541666958
                },
                {
                    "name": "B1",
                    "midi": 35,
                    "time": 50.087866962500065,
                    "velocity": 0.905511811023622,
                    "duration": 0.2457624333333328
                },
                {
                    "name": "D#3",
                    "midi": 51,
                    "time": 50.3399853208334,
                    "velocity": 0.905511811023622,
                    "duration": 0.24788107499999512
                },
                {
                    "name": "D#2",
                    "midi": 39,
                    "time": 50.34422260416673,
                    "velocity": 0.905511811023622,
                    "duration": 0.2436437916666634
                },
                {
                    "name": "C#2",
                    "midi": 37,
                    "time": 50.58839605625006,
                    "velocity": 0.905511811023622,
                    "duration": 0.2537073395833289
                },
                {
                    "name": "C#3",
                    "midi": 49,
                    "time": 50.59740028333339,
                    "velocity": 0.905511811023622,
                    "duration": 0.2447031124999981
                },
                {
                    "name": "B2",
                    "midi": 47,
                    "time": 50.84528135833339,
                    "velocity": 0.905511811023622,
                    "duration": 0.25105903749999925
                },
                {
                    "name": "B1",
                    "midi": 35,
                    "time": 50.84898898125005,
                    "velocity": 0.905511811023622,
                    "duration": 0.24735141458333487
                },
                {
                    "name": "A#2",
                    "midi": 46,
                    "time": 51.09739971666672,
                    "velocity": 0.905511811023622,
                    "duration": 0.25317767916666156
                },
                {
                    "name": "A#1",
                    "midi": 34,
                    "time": 51.10163700000005,
                    "velocity": 0.905511811023622,
                    "duration": 0.24894039583332983
                },
                {
                    "name": "G#1",
                    "midi": 32,
                    "time": 51.35269603750005,
                    "velocity": 0.905511811023622,
                    "duration": 0.25211835833333396
                },
                {
                    "name": "G#2",
                    "midi": 44,
                    "time": 51.35375535833339,
                    "velocity": 0.905511811023622,
                    "duration": 0.25105903749999925
                },
                {
                    "name": "F#2",
                    "midi": 42,
                    "time": 51.61064066041672,
                    "velocity": 0.905511811023622,
                    "duration": 0.24841073541666248
                },
                {
                    "name": "F#1",
                    "midi": 30,
                    "time": 51.61487794375005,
                    "velocity": 0.905511811023622,
                    "duration": 0.24417345208333074
                },
                {
                    "name": "F1",
                    "midi": 29,
                    "time": 51.86011071666672,
                    "velocity": 0.905511811023622,
                    "duration": 0.25317767916666867
                },
                {
                    "name": "F2",
                    "midi": 41,
                    "time": 51.86593698125005,
                    "velocity": 0.905511811023622,
                    "duration": 0.24735141458333487
                },
                {
                    "name": "D#2",
                    "midi": 39,
                    "time": 52.11699601875005,
                    "velocity": 0.905511811023622,
                    "duration": 0.2505293770833319
                },
                {
                    "name": "D#1",
                    "midi": 27,
                    "time": 52.11858500000005,
                    "velocity": 0.905511811023622,
                    "duration": 0.24894039583332983
                },
                {
                    "name": "C#1",
                    "midi": 25,
                    "time": 52.37282200000005,
                    "velocity": 0.905511811023622,
                    "duration": 0.24894039583332983
                },
                {
                    "name": "C#2",
                    "midi": 37,
                    "time": 52.375999962500046,
                    "velocity": 0.905511811023622,
                    "duration": 0.2457624333333328
                },
                {
                    "name": "D#4",
                    "midi": 63,
                    "time": 52.627059000000045,
                    "velocity": 0.905511811023622,
                    "duration": 0.24894039583332983
                },
                {
                    "name": "D#4",
                    "midi": 63,
                    "time": 52.88023667916671,
                    "velocity": 0.905511811023622,
                    "duration": 0.24999971666666454
                },
                {
                    "name": "D#4",
                    "midi": 63,
                    "time": 53.13765164166671,
                    "velocity": 0.905511811023622,
                    "duration": 0.24682175416666752
                },
                {
                    "name": "D#4",
                    "midi": 63,
                    "time": 53.39029966041671,
                    "velocity": 0.905511811023622,
                    "duration": 0.5026477354166659
                },
                {
                    "name": "G#3",
                    "midi": 56,
                    "time": 53.899303320833376,
                    "velocity": 0.905511811023622,
                    "duration": 0.12076257500000054
                },
                {
                    "name": "D#4",
                    "midi": 63,
                    "time": 54.15142167916671,
                    "velocity": 0.905511811023622,
                    "duration": 0.5042367166666679
                },
                {
                    "name": "G#3",
                    "midi": 56,
                    "time": 54.65565839583338,
                    "velocity": 0.8031496062992126,
                    "duration": 0.1271185000000017
                },
                {
                    "name": "A#1",
                    "midi": 34,
                    "time": 54.910954716666716,
                    "velocity": 0.7480314960629921,
                    "duration": 0.5074146791666649
                },
                {
                    "name": "A#2",
                    "midi": 46,
                    "time": 54.91731064166672,
                    "velocity": 0.7480314960629921,
                    "duration": 0.5010587541666638
                },
                {
                    "name": "C2",
                    "midi": 36,
                    "time": 55.42525498125005,
                    "velocity": 0.7480314960629921,
                    "duration": 0.24735141458333487
                },
                {
                    "name": "C3",
                    "midi": 48,
                    "time": 55.427903283333386,
                    "velocity": 0.7480314960629921,
                    "duration": 0.2447031124999981
                },
                {
                    "name": "C#3",
                    "midi": 49,
                    "time": 55.67790300000005,
                    "velocity": 0.7480314960629921,
                    "duration": 0.7574143958333366
                },
                {
                    "name": "C#2",
                    "midi": 37,
                    "time": 55.68055130208339,
                    "velocity": 0.7480314960629921,
                    "duration": 0.7547660937499998
                },
                {
                    "name": "A#1",
                    "midi": 34,
                    "time": 56.43902501875005,
                    "velocity": 0.7480314960629921,
                    "duration": 0.5047663770833353
                },
                {
                    "name": "A#2",
                    "midi": 46,
                    "time": 56.44061400000005,
                    "velocity": 0.7480314960629921,
                    "duration": 0.5031773958333332
                },
                {
                    "name": "C3",
                    "midi": 48,
                    "time": 56.94961766041672,
                    "velocity": 0.7480314960629921,
                    "duration": 0.24841073541666958
                },
                {
                    "name": "C2",
                    "midi": 36,
                    "time": 56.95226596250006,
                    "velocity": 0.7480314960629921,
                    "duration": 0.2457624333333328
                },
                {
                    "name": "C#3",
                    "midi": 49,
                    "time": 57.201736018750054,
                    "velocity": 0.7480314960629921,
                    "duration": 0.7590033770833386
                },
                {
                    "name": "C#2",
                    "midi": 37,
                    "time": 57.20862160416672,
                    "velocity": 0.7480314960629921,
                    "duration": 0.7521177916666701
                },
                {
                    "name": "D#2",
                    "midi": 39,
                    "time": 57.962328377083395,
                    "velocity": 0.7874015748031497,
                    "duration": 0.2526480187500013
                },
                {
                    "name": "D#3",
                    "midi": 51,
                    "time": 57.96762498125006,
                    "velocity": 0.7874015748031497,
                    "duration": 0.24735141458333487
                },
                {
                    "name": "D#3",
                    "midi": 51,
                    "time": 58.21603571666673,
                    "velocity": 0.7480314960629921,
                    "duration": 0.25317767916666867
                },
                {
                    "name": "D#2",
                    "midi": 39,
                    "time": 58.21868401875007,
                    "velocity": 0.7480314960629921,
                    "duration": 0.2505293770833319
                },
                {
                    "name": "D#2",
                    "midi": 39,
                    "time": 58.4771583020834,
                    "velocity": 0.7637795275590551,
                    "duration": 0.24629209375000016
                },
                {
                    "name": "D#3",
                    "midi": 51,
                    "time": 58.47927694375007,
                    "velocity": 0.7637795275590551,
                    "duration": 0.24417345208333074
                },
                {
                    "name": "G#1",
                    "midi": 32,
                    "time": 58.7234503958334,
                    "velocity": 0.7874015748031497,
                    "duration": 0.2542370000000034
                },
                {
                    "name": "G#2",
                    "midi": 44,
                    "time": 58.729806320833404,
                    "velocity": 0.7874015748031497,
                    "duration": 0.24788107500000223
                },
                {
                    "name": "G#2",
                    "midi": 44,
                    "time": 58.978217056250074,
                    "velocity": 0.8031496062992126,
                    "duration": 0.253707339583336
                },
                {
                    "name": "G#1",
                    "midi": 32,
                    "time": 58.98086535833341,
                    "velocity": 0.8031496062992126,
                    "duration": 0.25105903749999925
                },
                {
                    "name": "G#2",
                    "midi": 44,
                    "time": 59.232983716666745,
                    "velocity": 0.8267716535433071,
                    "duration": 0.25317767916666867
                },
                {
                    "name": "G#1",
                    "midi": 32,
                    "time": 59.23880998125008,
                    "velocity": 0.8267716535433071,
                    "duration": 0.24735141458333487
                },
                {
                    "name": "A#2",
                    "midi": 46,
                    "time": 59.495165622916744,
                    "velocity": 0.84251968503937,
                    "duration": 0.49946977291666883
                },
                {
                    "name": "A#1",
                    "midi": 34,
                    "time": 59.49569528333341,
                    "velocity": 0.84251968503937,
                    "duration": 0.4989401125000015
                },
                {
                    "name": "C3",
                    "midi": 48,
                    "time": 60.000991320833414,
                    "velocity": 0.8818897637795275,
                    "duration": 0.24788107500000223
                },
                {
                    "name": "C2",
                    "midi": 36,
                    "time": 60.002580302083416,
                    "velocity": 0.8818897637795275,
                    "duration": 0.24629209375000016
                },
                {
                    "name": "C#3",
                    "midi": 49,
                    "time": 60.248872395833416,
                    "velocity": 0.905511811023622,
                    "duration": 0.25423699999999627
                },
                {
                    "name": "C#2",
                    "midi": 37,
                    "time": 60.25787662291675,
                    "velocity": 0.905511811023622,
                    "duration": 0.24523277291666545
                },
                {
                    "name": "C#3",
                    "midi": 49,
                    "time": 60.50416871666675,
                    "velocity": 0.905511811023622,
                    "duration": 0.25317767916666867
                },
                {
                    "name": "C#4",
                    "midi": 61,
                    "time": 60.51052464166675,
                    "velocity": 0.905511811023622,
                    "duration": 0.24682175416666752
                },
                {
                    "name": "C#3",
                    "midi": 49,
                    "time": 60.759465037500085,
                    "velocity": 0.905511811023622,
                    "duration": 0.25211835833333396
                },
                {
                    "name": "C#4",
                    "midi": 61,
                    "time": 60.76370232083342,
                    "velocity": 0.905511811023622,
                    "duration": 0.24788107500000223
                },
                {
                    "name": "D#2",
                    "midi": 39,
                    "time": 61.01211305625009,
                    "velocity": 0.905511811023622,
                    "duration": 0.253707339583336
                },
                {
                    "name": "D#3",
                    "midi": 51,
                    "time": 61.01317237708342,
                    "velocity": 0.905511811023622,
                    "duration": 0.2526480187500013
                },
                {
                    "name": "C#4",
                    "midi": 61,
                    "time": 61.26952801875009,
                    "velocity": 0.984251968503937,
                    "duration": 0.2505293770833319
                },
                {
                    "name": "C#3",
                    "midi": 49,
                    "time": 61.272705981250084,
                    "velocity": 0.984251968503937,
                    "duration": 0.24735141458333487
                },
                {
                    "name": "G#2",
                    "midi": 44,
                    "time": 61.523235358333416,
                    "velocity": 0.905511811023622,
                    "duration": 0.25105903749999925
                },
                {
                    "name": "G#1",
                    "midi": 32,
                    "time": 61.52376501875008,
                    "velocity": 0.905511811023622,
                    "duration": 0.2505293770833319
                },
                {
                    "name": "C#2",
                    "midi": 37,
                    "time": 61.781179981250084,
                    "velocity": 0.905511811023622,
                    "duration": 0.24735141458333487
                },
                {
                    "name": "C#3",
                    "midi": 49,
                    "time": 61.782768962500086,
                    "velocity": 0.905511811023622,
                    "duration": 0.2457624333333328
                },
                {
                    "name": "C#4",
                    "midi": 61,
                    "time": 62.03435766041675,
                    "velocity": 0.905511811023622,
                    "duration": 0.24841073541666958
                },
                {
                    "name": "C#3",
                    "midi": 49,
                    "time": 62.03700596250009,
                    "velocity": 0.905511811023622,
                    "duration": 0.2457624333333328
                },
                {
                    "name": "C#4",
                    "midi": 61,
                    "time": 62.28912432083342,
                    "velocity": 0.905511811023622,
                    "duration": 0.24788107500000223
                },
                {
                    "name": "C#3",
                    "midi": 49,
                    "time": 62.29124296250009,
                    "velocity": 0.905511811023622,
                    "duration": 0.2457624333333328
                },
                {
                    "name": "D#3",
                    "midi": 51,
                    "time": 62.53859437708343,
                    "velocity": 0.905511811023622,
                    "duration": 0.2526480187500013
                },
                {
                    "name": "D#2",
                    "midi": 39,
                    "time": 62.54653928333343,
                    "velocity": 0.905511811023622,
                    "duration": 0.2447031124999981
                },
                {
                    "name": "C#4",
                    "midi": 61,
                    "time": 62.79547967916676,
                    "velocity": 0.9921259842519685,
                    "duration": 0.24999971666667165
                },
                {
                    "name": "C#3",
                    "midi": 49,
                    "time": 62.7981279812501,
                    "velocity": 0.9921259842519685,
                    "duration": 0.24735141458333487
                },
                {
                    "name": "G#1",
                    "midi": 32,
                    "time": 63.04653871666677,
                    "velocity": 0.905511811023622,
                    "duration": 0.25317767916666867
                },
                {
                    "name": "G#2",
                    "midi": 44,
                    "time": 63.04812769791677,
                    "velocity": 0.905511811023622,
                    "duration": 0.2515886979166666
                },
                {
                    "name": "C#2",
                    "midi": 37,
                    "time": 63.3002460562501,
                    "velocity": 0.905511811023622,
                    "duration": 0.2537073395833289
                },
                {
                    "name": "C#3",
                    "midi": 49,
                    "time": 63.308720622916766,
                    "velocity": 0.905511811023622,
                    "duration": 0.24523277291666545
                },
                {
                    "name": "G#2",
                    "midi": 44,
                    "time": 63.55819067916676,
                    "velocity": 0.905511811023622,
                    "duration": 0.24999971666667165
                },
                {
                    "name": "G#1",
                    "midi": 32,
                    "time": 63.56030932083343,
                    "velocity": 0.905511811023622,
                    "duration": 0.24788107500000223
                },
                {
                    "name": "F2",
                    "midi": 41,
                    "time": 63.81136835833343,
                    "velocity": 0.937007874015748,
                    "duration": 0.25105903750000635
                },
                {
                    "name": "F1",
                    "midi": 29,
                    "time": 63.81401666041677,
                    "velocity": 0.937007874015748,
                    "duration": 0.24841073541666958
                },
                {
                    "name": "C#2",
                    "midi": 37,
                    "time": 64.06454603750011,
                    "velocity": 0.968503937007874,
                    "duration": 0.25211835833333396
                },
                {
                    "name": "C#1",
                    "midi": 25,
                    "time": 64.06560535833344,
                    "velocity": 0.968503937007874,
                    "duration": 0.25105903749999925
                },
                {
                    "name": "G#4",
                    "midi": 68,
                    "time": 64.57196071666678,
                    "velocity": 0.5905511811023622,
                    "duration": 0.16419472916666678
                },
                {
                    "name": "G#3",
                    "midi": 56,
                    "time": 64.84950277500012,
                    "velocity": 0.5905511811023622,
                    "duration": 0.15677948333333802
                },
                {
                    "name": "G#4",
                    "midi": 68,
                    "time": 65.33467171666679,
                    "velocity": 0.5905511811023622,
                    "duration": 0.16419472916666678
                },
                {
                    "name": "G#3",
                    "midi": 56,
                    "time": 65.6063875104168,
                    "velocity": 0.5905511811023622,
                    "duration": 0.16260574791667182
                },
                {
                    "name": "G#4",
                    "midi": 68,
                    "time": 66.10479796250013,
                    "velocity": 0.5905511811023622,
                    "duration": 0.15677948333333802
                },
                {
                    "name": "G#3",
                    "midi": 56,
                    "time": 66.37598409583347,
                    "velocity": 0.5905511811023622,
                    "duration": 0.1557201625000033
                },
                {
                    "name": "G#4",
                    "midi": 68,
                    "time": 66.86750896250014,
                    "velocity": 0.5905511811023622,
                    "duration": 0.15677948333333802
                },
                {
                    "name": "G#3",
                    "midi": 56,
                    "time": 67.13710611458347,
                    "velocity": 0.5905511811023622,
                    "duration": 0.15730914374999827
                },
                {
                    "name": "G#4",
                    "midi": 68,
                    "time": 67.62810132083348,
                    "velocity": 0.5905511811023622,
                    "duration": 0.15889812499999323
                },
                {
                    "name": "C#3",
                    "midi": 49,
                    "time": 67.89557983125015,
                    "velocity": 0.5905511811023622,
                    "duration": 0.1615464270833371
                },
                {
                    "name": "G#4",
                    "midi": 68,
                    "time": 68.39346062291682,
                    "velocity": 0.5905511811023622,
                    "duration": 0.15624982291666356
                },
                {
                    "name": "G#3",
                    "midi": 56,
                    "time": 68.65670185000015,
                    "velocity": 0.5905511811023622,
                    "duration": 0.16313540833333207
                },
                {
                    "name": "G#4",
                    "midi": 68,
                    "time": 69.15670128333348,
                    "velocity": 0.5905511811023622,
                    "duration": 0.1557201625000033
                },
                {
                    "name": "D#3",
                    "midi": 51,
                    "time": 69.41941285000014,
                    "velocity": 0.5905511811023622,
                    "duration": 0.16313540833333207
                },
                {
                    "name": "G#4",
                    "midi": 68,
                    "time": 69.9125266979168,
                    "velocity": 0.5905511811023622,
                    "duration": 0.16260574791667182
                },
                {
                    "name": "G#3",
                    "midi": 56,
                    "time": 70.1858314729168,
                    "velocity": 0.5905511811023622,
                    "duration": 0.1594277854166677
                },
                {
                    "name": "G#4",
                    "midi": 68,
                    "time": 70.6831826041668,
                    "velocity": 0.5905511811023622,
                    "duration": 0.1546608416666686
                },
                {
                    "name": "F3",
                    "midi": 53,
                    "time": 70.94324586875014,
                    "velocity": 0.5905511811023622,
                    "duration": 0.16472438958332702
                },
                {
                    "name": "G#4",
                    "midi": 68,
                    "time": 71.43583005625014,
                    "velocity": 0.5905511811023622,
                    "duration": 0.16472438958332702
                },
                {
                    "name": "G#3",
                    "midi": 56,
                    "time": 71.7112534729168,
                    "velocity": 0.5905511811023622,
                    "duration": 0.1594277854166677
                },
                {
                    "name": "G#4",
                    "midi": 68,
                    "time": 72.2022486791668,
                    "velocity": 0.5905511811023622,
                    "duration": 0.16101676666666265
                },
                {
                    "name": "F#3",
                    "midi": 54,
                    "time": 72.46866786875013,
                    "velocity": 0.5905511811023622,
                    "duration": 0.16472438958332702
                },
                {
                    "name": "G#4",
                    "midi": 68,
                    "time": 72.96337069791679,
                    "velocity": 0.5905511811023622,
                    "duration": 0.16260574791667182
                },
                {
                    "name": "G#3",
                    "midi": 56,
                    "time": 73.24038309583347,
                    "velocity": 0.5905511811023622,
                    "duration": 0.1557201625000033
                },
                {
                    "name": "G#4",
                    "midi": 68,
                    "time": 73.72555203750014,
                    "velocity": 0.5905511811023622,
                    "duration": 0.16313540833333207
                },
                {
                    "name": "F3",
                    "midi": 53,
                    "time": 73.99514918958347,
                    "velocity": 0.5905511811023622,
                    "duration": 0.16366506875000653
                },
                {
                    "name": "G#4",
                    "midi": 68,
                    "time": 74.48720371666681,
                    "velocity": 0.5905511811023622,
                    "duration": 0.16419472916666678
                },
                {
                    "name": "G#3",
                    "midi": 56,
                    "time": 74.76633475625015,
                    "velocity": 0.5905511811023622,
                    "duration": 0.15519050208332885
                },
                {
                    "name": "G#4",
                    "midi": 68,
                    "time": 75.24938505625015,
                    "velocity": 0.5905511811023622,
                    "duration": 0.16472438958332702
                },
                {
                    "name": "D#3",
                    "midi": 51,
                    "time": 75.51898220833347,
                    "velocity": 0.5905511811023622,
                    "duration": 0.16525405000000148
                },
                {
                    "name": "G#4",
                    "midi": 68,
                    "time": 76.01209605625014,
                    "velocity": 0.5905511811023622,
                    "duration": 0.16472438958332702
                },
                {
                    "name": "G#3",
                    "midi": 56,
                    "time": 76.28540083125014,
                    "velocity": 0.5905511811023622,
                    "duration": 0.1615464270833371
                },
                {
                    "name": "G#4",
                    "midi": 68,
                    "time": 76.78434094375015,
                    "velocity": 0.5905511811023622,
                    "duration": 0.15519050208332885
                },
                {
                    "name": "C#3",
                    "midi": 49,
                    "time": 77.04864149166681,
                    "velocity": 0.5905511811023622,
                    "duration": 0.16101676666666265
                },
                {
                    "name": "G#4",
                    "midi": 68,
                    "time": 77.54175533958347,
                    "velocity": 0.5905511811023622,
                    "duration": 0.1604871062500024
                },
                {
                    "name": "G#3",
                    "midi": 56,
                    "time": 77.80128894375014,
                    "velocity": 0.5905511811023622,
                    "duration": 0.15519050208332885
                },
                {
                    "name": "C#4",
                    "midi": 61,
                    "time": 78.0544666229168,
                    "velocity": 0.5905511811023622,
                    "duration": 0.24523277291666545
                },
                {
                    "name": "D#4",
                    "midi": 63,
                    "time": 78.3055256604168,
                    "velocity": 0.5905511811023622,
                    "duration": 0.24841073541666958
                },
                {
                    "name": "E4",
                    "midi": 64,
                    "time": 78.56294062291681,
                    "velocity": 0.5905511811023622,
                    "duration": 0.24523277291666545
                },
                {
                    "name": "D#4",
                    "midi": 63,
                    "time": 78.8155886416668,
                    "velocity": 0.5905511811023622,
                    "duration": 0.2468217541666604
                },
                {
                    "name": "E4",
                    "midi": 64,
                    "time": 79.0650586979168,
                    "velocity": 0.5905511811023622,
                    "duration": 0.2515886979166595
                },
                {
                    "name": "G#4",
                    "midi": 68,
                    "time": 79.06664767916679,
                    "velocity": 0.5905511811023622,
                    "duration": 0.24999971666666454
                },
                {
                    "name": "C#4",
                    "midi": 61,
                    "time": 79.31664739583346,
                    "velocity": 0.5905511811023622,
                    "duration": 0.2542370000000034
                },
                {
                    "name": "G#3",
                    "midi": 56,
                    "time": 79.32247366041679,
                    "velocity": 0.5905511811023622,
                    "duration": 0.24841073541666958
                },
                {
                    "name": "D#4",
                    "midi": 63,
                    "time": 79.58147760416679,
                    "velocity": 0.5905511811023622,
                    "duration": 0.2436437916666705
                },
                {
                    "name": "E4",
                    "midi": 64,
                    "time": 79.8293586791668,
                    "velocity": 0.5905511811023622,
                    "duration": 0.24999971666666454
                },
                {
                    "name": "D#4",
                    "midi": 63,
                    "time": 80.0820066979168,
                    "velocity": 0.5905511811023622,
                    "duration": 0.2515886979166737
                },
                {
                    "name": "C#4",
                    "midi": 61,
                    "time": 80.33995132083346,
                    "velocity": 0.5905511811023622,
                    "duration": 0.24788107499999512
                },
                {
                    "name": "G#4",
                    "midi": 68,
                    "time": 80.59048069791679,
                    "velocity": 0.5905511811023622,
                    "duration": 0.21769043125000564
                },
                {
                    "name": "D#4",
                    "midi": 63,
                    "time": 80.59524764166679,
                    "velocity": 0.5905511811023622,
                    "duration": 0.20868620416666772
                },
                {
                    "name": "B3",
                    "midi": 59,
                    "time": 80.84683633958346,
                    "velocity": 0.5905511811023622,
                    "duration": 0.2494700562500043
                },
                {
                    "name": "G#3",
                    "midi": 56,
                    "time": 80.85213294375014,
                    "velocity": 0.5905511811023622,
                    "duration": 0.24417345208333074
                },
                {
                    "name": "C#4",
                    "midi": 61,
                    "time": 81.10584028333346,
                    "velocity": 0.5905511811023622,
                    "duration": 0.2447031125000052
                },
                {
                    "name": "D#4",
                    "midi": 63,
                    "time": 81.35054339583347,
                    "velocity": 0.5905511811023622,
                    "duration": 0.2542370000000034
                },
                {
                    "name": "D#3",
                    "midi": 51,
                    "time": 81.61484394375015,
                    "velocity": 0.5905511811023622,
                    "duration": 0.15519050208332885
                },
                {
                    "name": "B3",
                    "midi": 59,
                    "time": 82.11961032083347,
                    "velocity": 0.5905511811023622,
                    "duration": 0.15889812499999323
                },
                {
                    "name": "A#3",
                    "midi": 58,
                    "time": 82.39185577500014,
                    "velocity": 0.5905511811023622,
                    "duration": 0.15677948333333802
                },
                {
                    "name": "A#2",
                    "midi": 46,
                    "time": 82.88232132083348,
                    "velocity": 0.5905511811023622,
                    "duration": 0.15889812499999323
                },
                {
                    "name": "D#3",
                    "midi": 51,
                    "time": 83.1471515291668,
                    "velocity": 0.5905511811023622,
                    "duration": 0.16419472916666678
                },
                {
                    "name": "B3",
                    "midi": 59,
                    "time": 83.64079503750014,
                    "velocity": 0.5905511811023622,
                    "duration": 0.16313540833333207
                },
                {
                    "name": "A#3",
                    "midi": 58,
                    "time": 83.9130404916668,
                    "velocity": 0.5905511811023622,
                    "duration": 0.16101676666666265
                },
                {
                    "name": "G#2",
                    "midi": 44,
                    "time": 84.40138739583347,
                    "velocity": 0.5905511811023622,
                    "duration": 0.16525405000000148
                },
                {
                    "name": "C#3",
                    "midi": 49,
                    "time": 84.6757514916668,
                    "velocity": 0.5905511811023622,
                    "duration": 0.16101676666666265
                },
                {
                    "name": "B3",
                    "midi": 59,
                    "time": 85.16462805625014,
                    "velocity": 0.5905511811023622,
                    "duration": 0.16472438958332702
                },
                {
                    "name": "A#3",
                    "midi": 58,
                    "time": 85.44111079375013,
                    "velocity": 0.5905511811023622,
                    "duration": 0.15836846458333298
                },
                {
                    "name": "G#2",
                    "midi": 44,
                    "time": 85.9358136229168,
                    "velocity": 0.5905511811023622,
                    "duration": 0.15624982291666356
                },
                {
                    "name": "C#3",
                    "midi": 49,
                    "time": 86.19746586875013,
                    "velocity": 0.5905511811023622,
                    "duration": 0.16472438958332702
                },
                {
                    "name": "B3",
                    "midi": 59,
                    "time": 86.69852462291679,
                    "velocity": 0.5905511811023622,
                    "duration": 0.15624982291666356
                },
                {
                    "name": "A#3",
                    "midi": 58,
                    "time": 86.96653279375012,
                    "velocity": 0.5905511811023622,
                    "duration": 0.15836846458333298
                },
                {
                    "name": "G#2",
                    "midi": 44,
                    "time": 87.45964664166678,
                    "velocity": 0.5905511811023622,
                    "duration": 0.15783880416667273
                },
                {
                    "name": "C#3",
                    "midi": 49,
                    "time": 87.73083277500012,
                    "velocity": 0.5905511811023622,
                    "duration": 0.15677948333333802
                },
                {
                    "name": "B3",
                    "midi": 59,
                    "time": 88.2207686604168,
                    "velocity": 0.5905511811023622,
                    "duration": 0.1594277854166677
                },
                {
                    "name": "A#3",
                    "midi": 58,
                    "time": 88.4924844541668,
                    "velocity": 0.5905511811023622,
                    "duration": 0.15783880416667273
                },
                {
                    "name": "D#4",
                    "midi": 63,
                    "time": 88.9787127166668,
                    "velocity": 0.5905511811023622,
                    "duration": 0.16419472916666678
                },
                {
                    "name": "A#3",
                    "midi": 58,
                    "time": 89.25519545416681,
                    "velocity": 0.5905511811023622,
                    "duration": 0.15783880416667273
                },
                {
                    "name": "F3",
                    "midi": 53,
                    "time": 89.74830930208348,
                    "velocity": 0.5905511811023622,
                    "duration": 0.15730914374999827
                },
                {
                    "name": "A#3",
                    "midi": 58,
                    "time": 90.01896577500015,
                    "velocity": 0.5905511811023622,
                    "duration": 0.15677948333333802
                },
                {
                    "name": "D#4",
                    "midi": 63,
                    "time": 90.50307539583349,
                    "velocity": 0.5905511811023622,
                    "duration": 0.16525405000000148
                },
                {
                    "name": "F3",
                    "midi": 53,
                    "time": 90.7827360958335,
                    "velocity": 0.5905511811023622,
                    "duration": 0.1557201625000033
                },
                {
                    "name": "F#3",
                    "midi": 54,
                    "time": 91.27267198125017,
                    "velocity": 0.5905511811023622,
                    "duration": 0.15836846458333298
                },
                {
                    "name": "D#3",
                    "midi": 51,
                    "time": 91.54332845416684,
                    "velocity": 0.5905511811023622,
                    "duration": 0.15783880416667273
                },
                {
                    "name": "F3",
                    "midi": 53,
                    "time": 92.02902705625019,
                    "velocity": 0.5905511811023622,
                    "duration": 0.16472438958332702
                },
                {
                    "name": "C#3",
                    "midi": 49,
                    "time": 92.30445047291684,
                    "velocity": 0.5905511811023622,
                    "duration": 0.1594277854166677
                },
                {
                    "name": "G#4",
                    "midi": 68,
                    "time": 92.80127194375018,
                    "velocity": 0.5905511811023622,
                    "duration": 0.15519050208332885
                },
                {
                    "name": "G#3",
                    "midi": 56,
                    "time": 93.06186486875018,
                    "velocity": 0.5905511811023622,
                    "duration": 0.16472438958332702
                },
                {
                    "name": "G#4",
                    "midi": 68,
                    "time": 93.55656769791683,
                    "velocity": 0.5905511811023622,
                    "duration": 0.16260574791667182
                },
                {
                    "name": "C#3",
                    "midi": 49,
                    "time": 93.82563518958351,
                    "velocity": 0.5905511811023622,
                    "duration": 0.16366506875000653
                },
                {
                    "name": "G#4",
                    "midi": 68,
                    "time": 94.32722360416685,
                    "velocity": 0.5905511811023622,
                    "duration": 0.1546608416666686
                },
                {
                    "name": "G#3",
                    "midi": 56,
                    "time": 94.59364279375018,
                    "velocity": 0.5905511811023622,
                    "duration": 0.15836846458333298
                },
                {
                    "name": "G#4",
                    "midi": 68,
                    "time": 95.08251935833351,
                    "velocity": 0.5905511811023622,
                    "duration": 0.16207608749999736
                },
                {
                    "name": "D#3",
                    "midi": 51,
                    "time": 95.35953175625018,
                    "velocity": 0.5905511811023622,
                    "duration": 0.15519050208332885
                },
                {
                    "name": "G#4",
                    "midi": 68,
                    "time": 95.84576001875017,
                    "velocity": 0.5905511811023622,
                    "duration": 0.1615464270833371
                },
                {
                    "name": "G#3",
                    "midi": 56,
                    "time": 96.11959445416684,
                    "velocity": 0.5905511811023622,
                    "duration": 0.15783880416667273
                },
                {
                    "name": "G#4",
                    "midi": 68,
                    "time": 96.60688203750018,
                    "velocity": 0.5905511811023622,
                    "duration": 0.16313540833333207
                },
                {
                    "name": "F3",
                    "midi": 53,
                    "time": 96.87647918958352,
                    "velocity": 0.5905511811023622,
                    "duration": 0.16366506875000653
                },
                {
                    "name": "G#4",
                    "midi": 68,
                    "time": 97.37012269791686,
                    "velocity": 0.5905511811023622,
                    "duration": 0.16260574791667182
                },
                {
                    "name": "G#3",
                    "midi": 56,
                    "time": 97.6428978125002,
                    "velocity": 0.5905511811023622,
                    "duration": 0.15995744583332794
                },
                {
                    "name": "E2",
                    "midi": 40,
                    "time": 98.13971928333352,
                    "velocity": 0.5905511811023622,
                    "duration": 0.1557201625000033
                },
                {
                    "name": "A2",
                    "midi": 45,
                    "time": 98.40137152916685,
                    "velocity": 0.5905511811023622,
                    "duration": 0.16419472916666678
                },
                {
                    "name": "G4",
                    "midi": 67,
                    "time": 98.90243028333352,
                    "velocity": 0.5905511811023622,
                    "duration": 0.1557201625000033
                },
                {
                    "name": "G3",
                    "midi": 55,
                    "time": 99.16779015208351,
                    "velocity": 0.5905511811023622,
                    "duration": 0.1604871062500024
                },
                {
                    "name": "D3",
                    "midi": 50,
                    "time": 99.65613705625019,
                    "velocity": 0.5905511811023622,
                    "duration": 0.16472438958332702
                },
                {
                    "name": "C3",
                    "midi": 48,
                    "time": 99.93420877500019,
                    "velocity": 0.5905511811023622,
                    "duration": 0.15677948333333802
                },
                {
                    "name": "A#4",
                    "midi": 70,
                    "time": 100.41990737708352,
                    "velocity": 0.5905511811023622,
                    "duration": 0.16366506875000653
                },
                {
                    "name": "A3",
                    "midi": 57,
                    "time": 100.69903841666685,
                    "velocity": 0.5905511811023622,
                    "duration": 0.1546608416666686
                },
                {
                    "name": "A#3",
                    "midi": 58,
                    "time": 101.18950396250018,
                    "velocity": 0.5905511811023622,
                    "duration": 0.15677948333333802
                },
                {
                    "name": "G#2",
                    "midi": 44,
                    "time": 101.46069009583353,
                    "velocity": 0.5905511811023622,
                    "duration": 0.2447031125000052
                },
                {
                    "name": "G#4",
                    "midi": 68,
                    "time": 102.7085700375002,
                    "velocity": 0.5826771653543307,
                    "duration": 0.16313540833333207
                },
                {
                    "name": "G#3",
                    "midi": 56,
                    "time": 102.98134515208352,
                    "velocity": 0.5748031496062992,
                    "duration": 0.1604871062500024
                },
                {
                    "name": "D#3",
                    "midi": 51,
                    "time": 103.46916239583352,
                    "velocity": 0.5590551181102362,
                    "duration": 0.16525405000000148
                },
                {
                    "name": "F3",
                    "midi": 53,
                    "time": 103.74723411458352,
                    "velocity": 0.5511811023622047,
                    "duration": 0.15730914374999827
                },
                {
                    "name": "G#4",
                    "midi": 68,
                    "time": 104.23293271666685,
                    "velocity": 0.5433070866141733,
                    "duration": 0.16419472916666678
                },
                {
                    "name": "G#3",
                    "midi": 56,
                    "time": 104.50623749166685,
                    "velocity": 0.5354330708661418,
                    "duration": 0.16101676666666265
                },
                {
                    "name": "G#4",
                    "midi": 68,
                    "time": 104.99776235833352,
                    "velocity": 0.5196850393700787,
                    "duration": 0.16207608749999736
                },
                {
                    "name": "C#5",
                    "midi": 73,
                    "time": 105.25941460416685,
                    "velocity": 0.5118110236220472,
                    "duration": 0.1546608416666686
                },
                {
                    "name": "C#5",
                    "midi": 73,
                    "time": 105.50305839583352,
                    "velocity": 0.5118110236220472,
                    "duration": 0.08262702499999364
                },
                {
                    "name": "D#5",
                    "midi": 75,
                    "time": 105.63282519791684,
                    "velocity": 0.5118110236220472,
                    "duration": 0.07997872291666397
                },
                {
                    "name": "C#5",
                    "midi": 73,
                    "time": 105.7588843770835,
                    "velocity": 0.5118110236220472,
                    "duration": 0.08103804374999868
                },
                {
                    "name": "C5",
                    "midi": 72,
                    "time": 105.88706219791683,
                    "velocity": 0.5118110236220472,
                    "duration": 0.07997872291666397
                },
                {
                    "name": "A#4",
                    "midi": 70,
                    "time": 106.0131213770835,
                    "velocity": 0.5118110236220472,
                    "duration": 0.16366506875000653
                },
                {
                    "name": "A#4",
                    "midi": 70,
                    "time": 106.27265498125017,
                    "velocity": 0.5118110236220472,
                    "duration": 0.07574143958333934
                },
                {
                    "name": "C5",
                    "midi": 72,
                    "time": 106.40242178333351,
                    "velocity": 0.5118110236220472,
                    "duration": 0.07309313749999546
                },
                {
                    "name": "A#4",
                    "midi": 70,
                    "time": 106.53006994375018,
                    "velocity": 0.5118110236220472,
                    "duration": 0.07256347708333521
                },
                {
                    "name": "G#4",
                    "midi": 68,
                    "time": 106.64924353750018,
                    "velocity": 0.5118110236220472,
                    "duration": 0.08050838333333843
                },
                {
                    "name": "F#4",
                    "midi": 66,
                    "time": 106.78271796250019,
                    "velocity": 0.5118110236220472,
                    "duration": 0.09957615833333477
                },
                {
                    "name": "F#4",
                    "midi": 66,
                    "time": 107.0353659812502,
                    "velocity": 0.5118110236220472,
                    "duration": 0.15836846458333298
                },
                {
                    "name": "C#4",
                    "midi": 61,
                    "time": 107.2896029812502,
                    "velocity": 0.5118110236220472,
                    "duration": 0.15836846458333298
                },
                {
                    "name": "F#4",
                    "midi": 66,
                    "time": 107.54701794375019,
                    "velocity": 0.5118110236220472,
                    "duration": 0.4984104520833341
                },
                {
                    "name": "C#4",
                    "midi": 61,
                    "time": 108.05019533958352,
                    "velocity": 0.5118110236220472,
                    "duration": 0.1604871062500024
                },
                {
                    "name": "F#4",
                    "midi": 66,
                    "time": 108.30972894375019,
                    "velocity": 0.5118110236220472,
                    "duration": 0.09798717708333982
                },
                {
                    "name": "F#4",
                    "midi": 66,
                    "time": 108.5607879812502,
                    "velocity": 0.5118110236220472,
                    "duration": 0.15836846458333298
                },
                {
                    "name": "C#4",
                    "midi": 61,
                    "time": 108.80972837708353,
                    "velocity": 0.5118110236220472,
                    "duration": 0.16366506875000653
                },
                {
                    "name": "F#4",
                    "midi": 66,
                    "time": 109.06926198125021,
                    "velocity": 0.5118110236220472,
                    "duration": 0.5015884145833382
                },
                {
                    "name": "C#4",
                    "midi": 61,
                    "time": 109.57667666041688,
                    "velocity": 0.5118110236220472,
                    "duration": 0.1594277854166677
                },
                {
                    "name": "C#4",
                    "midi": 61,
                    "time": 109.82932467916687,
                    "velocity": 0.5118110236220472,
                    "duration": 0.10381344166667361
                },
                {
                    "name": "C#4",
                    "midi": 61,
                    "time": 110.08938794375021,
                    "velocity": 0.5118110236220472,
                    "duration": 0.15519050208332885
                },
                {
                    "name": "F#4",
                    "midi": 66,
                    "time": 110.33938766041688,
                    "velocity": 0.5118110236220472,
                    "duration": 0.1594277854166677
                },
                {
                    "name": "C#4",
                    "midi": 61,
                    "time": 110.59415432083354,
                    "velocity": 0.5118110236220472,
                    "duration": 0.10169480000000419
                },
                {
                    "name": "C#4",
                    "midi": 61,
                    "time": 110.84786166041688,
                    "velocity": 0.5118110236220472,
                    "duration": 0.1594277854166677
                },
                {
                    "name": "C#4",
                    "midi": 61,
                    "time": 111.09892069791688,
                    "velocity": 0.5118110236220472,
                    "duration": 0.16260574791667182
                },
                {
                    "name": "C#4",
                    "midi": 61,
                    "time": 111.35474667916688,
                    "velocity": 0.5118110236220472,
                    "duration": 0.10381344166667361
                },
                {
                    "name": "C#4",
                    "midi": 61,
                    "time": 111.60845401875022,
                    "velocity": 0.5118110236220472,
                    "duration": 0.1615464270833371
                },
                {
                    "name": "F#4",
                    "midi": 66,
                    "time": 111.85898339583356,
                    "velocity": 0.5118110236220472,
                    "duration": 0.16525405000000148
                },
                {
                    "name": "C#4",
                    "midi": 61,
                    "time": 112.12169496250023,
                    "velocity": 0.5118110236220472,
                    "duration": 0.09957615833333477
                },
                {
                    "name": "F#4",
                    "midi": 66,
                    "time": 112.36957603750022,
                    "velocity": 0.5118110236220472,
                    "duration": 0.12499985833333938
                },
                {
                    "name": "F4",
                    "midi": 65,
                    "time": 112.49510555625022,
                    "velocity": 0.5118110236220472,
                    "duration": 0.12658883958333433
                },
                {
                    "name": "F4",
                    "midi": 65,
                    "time": 112.6259316791669,
                    "velocity": 0.5118110236220472,
                    "duration": 0.12288121666666996
                },
                {
                    "name": "F#4",
                    "midi": 66,
                    "time": 112.75516882083356,
                    "velocity": 0.5118110236220472,
                    "duration": 0.12076257500000054
                },
                {
                    "name": "G4",
                    "midi": 67,
                    "time": 112.87646105625022,
                    "velocity": 0.8346456692913385,
                    "duration": 0.16472438958332702
                },
                {
                    "name": "D4",
                    "midi": 62,
                    "time": 113.13228703750022,
                    "velocity": 0.5118110236220472,
                    "duration": 0.16313540833333207
                },
                {
                    "name": "D4",
                    "midi": 62,
                    "time": 113.38599437708355,
                    "velocity": 0.5118110236220472,
                    "duration": 0.16366506875000653
                },
                {
                    "name": "G#4",
                    "midi": 68,
                    "time": 113.64552798125023,
                    "velocity": 0.8661417322834646,
                    "duration": 0.15836846458333298
                },
                {
                    "name": "C#4",
                    "midi": 61,
                    "time": 113.89764633958356,
                    "velocity": 0.5118110236220472,
                    "duration": 0.1604871062500024
                },
                {
                    "name": "C#4",
                    "midi": 61,
                    "time": 114.15347232083356,
                    "velocity": 0.5118110236220472,
                    "duration": 0.15889812499999323
                },
                {
                    "name": "G4",
                    "midi": 67,
                    "time": 114.40876864166688,
                    "velocity": 0.8503937007874016,
                    "duration": 0.2468217541666604
                },
                {
                    "name": "D4",
                    "midi": 62,
                    "time": 114.66035733958354,
                    "velocity": 0.5275590551181102,
                    "duration": 0.1604871062500024
                },
                {
                    "name": "D4",
                    "midi": 62,
                    "time": 114.91724264166687,
                    "velocity": 0.5511811023622047,
                    "duration": 0.15783880416667273
                },
                {
                    "name": "G#4",
                    "midi": 68,
                    "time": 115.16830167916687,
                    "velocity": 0.8110236220472441,
                    "duration": 0.24999971666666454
                },
                {
                    "name": "C#4",
                    "midi": 61,
                    "time": 115.42730562291688,
                    "velocity": 0.5905511811023622,
                    "duration": 0.15624982291666356
                },
                {
                    "name": "C#4",
                    "midi": 61,
                    "time": 115.67889432083354,
                    "velocity": 0.6062992125984252,
                    "duration": 0.15889812499999323
                },
                {
                    "name": "G3",
                    "midi": 55,
                    "time": 115.9288940375002,
                    "velocity": 0.8188976377952756,
                    "duration": 0.25211835833333396
                },
                {
                    "name": "G4",
                    "midi": 67,
                    "time": 115.9368389437502,
                    "velocity": 0.8188976377952756,
                    "duration": 0.24417345208333074
                },
                {
                    "name": "D4",
                    "midi": 62,
                    "time": 116.18524967916687,
                    "velocity": 0.6456692913385826,
                    "duration": 0.16101676666667686
                },
                {
                    "name": "D3",
                    "midi": 50,
                    "time": 116.19054628333355,
                    "velocity": 0.6456692913385826,
                    "duration": 0.1557201625000033
                },
                {
                    "name": "D4",
                    "midi": 62,
                    "time": 116.43683837708355,
                    "velocity": 0.6692913385826772,
                    "duration": 0.16366506875000653
                },
                {
                    "name": "D3",
                    "midi": 50,
                    "time": 116.44584260416688,
                    "velocity": 0.6692913385826772,
                    "duration": 0.1546608416666686
                },
                {
                    "name": "G#4",
                    "midi": 68,
                    "time": 116.69584232083355,
                    "velocity": 0.8582677165354331,
                    "duration": 0.24788107500000933
                },
                {
                    "name": "G#3",
                    "midi": 56,
                    "time": 116.69902028333355,
                    "velocity": 0.8582677165354331,
                    "duration": 0.2447031125000052
                },
                {
                    "name": "C#3",
                    "midi": 49,
                    "time": 116.94849033958356,
                    "velocity": 0.7086614173228346,
                    "duration": 0.1604871062500024
                },
                {
                    "name": "C#4",
                    "midi": 61,
                    "time": 116.95060898125023,
                    "velocity": 0.7086614173228346,
                    "duration": 0.15836846458333298
                },
                {
                    "name": "C#4",
                    "midi": 61,
                    "time": 117.19849005625022,
                    "velocity": 0.7244094488188977,
                    "duration": 0.16472438958334124
                },
                {
                    "name": "C#3",
                    "midi": 49,
                    "time": 117.20537564166689,
                    "velocity": 0.7244094488188977,
                    "duration": 0.15783880416667273
                },
                {
                    "name": "C3",
                    "midi": 48,
                    "time": 117.4548456979169,
                    "velocity": 0.7480314960629921,
                    "duration": 0.2515886979166737
                },
                {
                    "name": "C4",
                    "midi": 60,
                    "time": 117.7090826979169,
                    "velocity": 0.7637795275590551,
                    "duration": 0.07997872291666397
                },
                {
                    "name": "A#3",
                    "midi": 58,
                    "time": 117.8377901791669,
                    "velocity": 0.7716535433070866,
                    "duration": 0.07838974166666901
                },
                {
                    "name": "C4",
                    "midi": 60,
                    "time": 117.97020528333357,
                    "velocity": 0.7874015748031497,
                    "duration": 0.07309313749999546
                },
                {
                    "name": "C#4",
                    "midi": 61,
                    "time": 118.0952051416669,
                    "velocity": 0.7952755905511811,
                    "duration": 0.07521177916666488
                },
                {
                    "name": "D#4",
                    "midi": 63,
                    "time": 118.22285330208356,
                    "velocity": 0.8031496062992126,
                    "duration": 0.15730914374999827
                },
                {
                    "name": "A#2",
                    "midi": 46,
                    "time": 118.47338267916689,
                    "velocity": 0.8267716535433071,
                    "duration": 0.16101676666667686
                },
                {
                    "name": "A#3",
                    "midi": 58,
                    "time": 118.47867928333356,
                    "velocity": 0.8267716535433071,
                    "duration": 0.1557201625000033
                },
                {
                    "name": "C4",
                    "midi": 60,
                    "time": 118.72761967916689,
                    "velocity": 0.8267716535433071,
                    "duration": 0.16101676666667686
                },
                {
                    "name": "C3",
                    "midi": 48,
                    "time": 118.73291628333357,
                    "velocity": 0.8267716535433071,
                    "duration": 0.1557201625000033
                },
                {
                    "name": "C#4",
                    "midi": 61,
                    "time": 118.98079735833358,
                    "velocity": 0.8267716535433071,
                    "duration": 0.16207608749999736
                },
                {
                    "name": "C#3",
                    "midi": 49,
                    "time": 118.98185667916691,
                    "velocity": 0.8267716535433071,
                    "duration": 0.16101676666666265
                },
                {
                    "name": "G#3",
                    "midi": 56,
                    "time": 119.23556401875024,
                    "velocity": 0.8267716535433071,
                    "duration": 0.07891940208332926
                },
                {
                    "name": "C4",
                    "midi": 60,
                    "time": 119.23768266041691,
                    "velocity": 0.8267716535433071,
                    "duration": 0.07680076041665984
                },
                {
                    "name": "A#3",
                    "midi": 58,
                    "time": 119.36691980208357,
                    "velocity": 0.8267716535433071,
                    "duration": 0.07468211875000463
                },
                {
                    "name": "F#3",
                    "midi": 54,
                    "time": 119.36691980208357,
                    "velocity": 0.8267716535433071,
                    "duration": 0.07468211875000463
                },
                {
                    "name": "G#3",
                    "midi": 56,
                    "time": 119.49403830208358,
                    "velocity": 0.8267716535433071,
                    "duration": 0.07468211875000463
                },
                {
                    "name": "F3",
                    "midi": 53,
                    "time": 119.49403830208358,
                    "velocity": 0.8267716535433071,
                    "duration": 0.07468211875000463
                },
                {
                    "name": "F#3",
                    "midi": 54,
                    "time": 119.61427121666692,
                    "velocity": 0.8267716535433071,
                    "duration": 0.08156770416667314
                },
                {
                    "name": "D#3",
                    "midi": 51,
                    "time": 119.61533053750026,
                    "velocity": 0.8267716535433071,
                    "duration": 0.08050838333333843
                },
                {
                    "name": "D3",
                    "midi": 50,
                    "time": 119.74297869791693,
                    "velocity": 0.8267716535433071,
                    "duration": 0.16260574791667182
                },
                {
                    "name": "F3",
                    "midi": 53,
                    "time": 119.74774564166692,
                    "velocity": 0.8267716535433071,
                    "duration": 0.15783880416667273
                },
                {
                    "name": "D3",
                    "midi": 50,
                    "time": 119.99827501875026,
                    "velocity": 0.8346456692913385,
                    "duration": 0.1615464270833229
                },
                {
                    "name": "F3",
                    "midi": 53,
                    "time": 120.00463094375026,
                    "velocity": 0.8346456692913385,
                    "duration": 0.15519050208332885
                },
                {
                    "name": "A2",
                    "midi": 45,
                    "time": 120.24986371666692,
                    "velocity": 0.84251968503937,
                    "duration": 0.16419472916666678
                },
                {
                    "name": "E3",
                    "midi": 52,
                    "time": 120.25410100000026,
                    "velocity": 0.84251968503937,
                    "duration": 0.15995744583332794
                },
                {
                    "name": "F3",
                    "midi": 53,
                    "time": 120.50516003750026,
                    "velocity": 0.8503937007874016,
                    "duration": 0.16313540833333207
                },
                {
                    "name": "D3",
                    "midi": 50,
                    "time": 120.51310494375026,
                    "velocity": 0.8503937007874016,
                    "duration": 0.15519050208332885
                },
                {
                    "name": "F3",
                    "midi": 53,
                    "time": 120.76257500000025,
                    "velocity": 0.8582677165354331,
                    "duration": 0.15995744583332794
                },
                {
                    "name": "D3",
                    "midi": 50,
                    "time": 120.76416398125025,
                    "velocity": 0.8582677165354331,
                    "duration": 0.15836846458333298
                },
                {
                    "name": "D#3",
                    "midi": 51,
                    "time": 121.01628233958358,
                    "velocity": 0.8661417322834646,
                    "duration": 0.1604871062500024
                },
                {
                    "name": "G#2",
                    "midi": 44,
                    "time": 121.01893064166691,
                    "velocity": 0.8661417322834646,
                    "duration": 0.15783880416667273
                },
                {
                    "name": "D3",
                    "midi": 50,
                    "time": 121.26628205625025,
                    "velocity": 0.8740157480314961,
                    "duration": 0.16472438958332702
                },
                {
                    "name": "F3",
                    "midi": 53,
                    "time": 121.26628205625025,
                    "velocity": 0.8740157480314961,
                    "duration": 0.16472438958332702
                },
                {
                    "name": "G2",
                    "midi": 43,
                    "time": 121.51998939583358,
                    "velocity": 0.8818897637795275,
                    "duration": 0.16525404999998727
                },
                {
                    "name": "D3",
                    "midi": 50,
                    "time": 121.52051905625024,
                    "velocity": 0.8818897637795275,
                    "duration": 0.16472438958332702
                },
                {
                    "name": "F3",
                    "midi": 53,
                    "time": 121.77740435833357,
                    "velocity": 0.889763779527559,
                    "duration": 0.16207608749999736
                },
                {
                    "name": "D3",
                    "midi": 50,
                    "time": 121.77793401875023,
                    "velocity": 0.889763779527559,
                    "duration": 0.1615464270833371
                },
                {
                    "name": "C#3",
                    "midi": 49,
                    "time": 122.0295227166669,
                    "velocity": 0.8976377952755905,
                    "duration": 0.16419472916666678
                },
                {
                    "name": "F#2",
                    "midi": 42,
                    "time": 122.0358786416669,
                    "velocity": 0.8976377952755905,
                    "duration": 0.15783880416667273
                },
                {
                    "name": "D3",
                    "midi": 50,
                    "time": 122.28323005625023,
                    "velocity": 0.905511811023622,
                    "duration": 0.16472438958332702
                },
                {
                    "name": "F3",
                    "midi": 53,
                    "time": 122.2869376791669,
                    "velocity": 0.905511811023622,
                    "duration": 0.16101676666666265
                },
                {
                    "name": "G#2",
                    "midi": 44,
                    "time": 122.54435264166689,
                    "velocity": 0.905511811023622,
                    "duration": 0.15783880416665852
                },
                {
                    "name": "G#1",
                    "midi": 32,
                    "time": 122.54488230208355,
                    "velocity": 0.905511811023622,
                    "duration": 0.15730914374999827
                },
                {
                    "name": "C#3",
                    "midi": 49,
                    "time": 122.79329303750022,
                    "velocity": 0.905511811023622,
                    "duration": 0.16313540833334628
                },
                {
                    "name": "C#2",
                    "midi": 37,
                    "time": 122.7985896416669,
                    "velocity": 0.905511811023622,
                    "duration": 0.15783880416667273
                },
                {
                    "name": "G#3",
                    "midi": 56,
                    "time": 123.05176732083356,
                    "velocity": 0.905511811023622,
                    "duration": 0.15889812499999323
                },
                {
                    "name": "F3",
                    "midi": 53,
                    "time": 123.05229698125022,
                    "velocity": 0.905511811023622,
                    "duration": 0.15836846458333298
                },
                {
                    "name": "F3",
                    "midi": 53,
                    "time": 123.30070771666689,
                    "velocity": 0.905511811023622,
                    "duration": 0.16419472916666678
                },
                {
                    "name": "G#3",
                    "midi": 56,
                    "time": 123.30547466041689,
                    "velocity": 0.905511811023622,
                    "duration": 0.1594277854166677
                },
                {
                    "name": "C#3",
                    "midi": 49,
                    "time": 123.5597116604169,
                    "velocity": 0.905511811023622,
                    "duration": 0.1594277854166677
                },
                {
                    "name": "F3",
                    "midi": 53,
                    "time": 123.80865205625022,
                    "velocity": 0.905511811023622,
                    "duration": 0.16472438958334124
                },
                {
                    "name": "G#3",
                    "midi": 56,
                    "time": 123.8187156041669,
                    "velocity": 0.905511811023622,
                    "duration": 0.1546608416666686
                },
                {
                    "name": "F3",
                    "midi": 53,
                    "time": 124.06712633958357,
                    "velocity": 0.905511811023622,
                    "duration": 0.1604871062500024
                },
                {
                    "name": "G#3",
                    "midi": 56,
                    "time": 124.0729526041669,
                    "velocity": 0.905511811023622,
                    "duration": 0.1546608416666686
                },
                {
                    "name": "D#3",
                    "midi": 51,
                    "time": 124.32454130208357,
                    "velocity": 0.905511811023622,
                    "duration": 0.15730914374999827
                },
                {
                    "name": "A#3",
                    "midi": 58,
                    "time": 124.57665966041691,
                    "velocity": 0.905511811023622,
                    "duration": 0.1594277854166677
                },
                {
                    "name": "F3",
                    "midi": 53,
                    "time": 124.5782486416669,
                    "velocity": 0.905511811023622,
                    "duration": 0.15783880416667273
                },
                {
                    "name": "C#3",
                    "midi": 49,
                    "time": 124.8324856416669,
                    "velocity": 0.905511811023622,
                    "duration": 0.15783880416667273
                },
                {
                    "name": "D#3",
                    "midi": 51,
                    "time": 125.08301501875025,
                    "velocity": 0.905511811023622,
                    "duration": 0.1615464270833371
                },
                {
                    "name": "F3",
                    "midi": 53,
                    "time": 125.33407405625024,
                    "velocity": 0.905511811023622,
                    "duration": 0.16472438958332702
                },
                {
                    "name": "A#3",
                    "midi": 58,
                    "time": 125.33778167916691,
                    "velocity": 0.905511811023622,
                    "duration": 0.16101676666666265
                },
                {
                    "name": "C#3",
                    "midi": 49,
                    "time": 125.59678562291691,
                    "velocity": 0.905511811023622,
                    "duration": 0.15624982291666356
                },
                {
                    "name": "D#3",
                    "midi": 51,
                    "time": 125.84360737708357,
                    "velocity": 0.905511811023622,
                    "duration": 0.16366506875000653
                },
                {
                    "name": "A#3",
                    "midi": 58,
                    "time": 126.09678505625024,
                    "velocity": 0.905511811023622,
                    "duration": 0.16472438958332702
                },
                {
                    "name": "F3",
                    "midi": 53,
                    "time": 126.09943335833357,
                    "velocity": 0.905511811023622,
                    "duration": 0.16207608749999736
                },
                {
                    "name": "C#3",
                    "midi": 49,
                    "time": 126.35896696250023,
                    "velocity": 0.905511811023622,
                    "duration": 0.15677948333333802
                },
                {
                    "name": "D#3",
                    "midi": 51,
                    "time": 126.60684803750024,
                    "velocity": 0.905511811023622,
                    "duration": 0.25211835833333396
                },
                {
                    "name": "F#2",
                    "midi": 42,
                    "time": 126.86214435833358,
                    "velocity": 0.905511811023622,
                    "duration": 0.12394053750000467
                },
                {
                    "name": "F#3",
                    "midi": 54,
                    "time": 126.86426300000025,
                    "velocity": 0.905511811023622,
                    "duration": 0.12182189583333525
                },
                {
                    "name": "G#2",
                    "midi": 44,
                    "time": 126.98608489583359,
                    "velocity": 0.905511811023622,
                    "duration": 0.12711849999999458
                },
                {
                    "name": "G#3",
                    "midi": 56,
                    "time": 126.99085183958358,
                    "velocity": 0.905511811023622,
                    "duration": 0.1223515562499955
                },
                {
                    "name": "F#2",
                    "midi": 42,
                    "time": 127.11850000000025,
                    "velocity": 0.905511811023622,
                    "duration": 0.12182189583333525
                },
                {
                    "name": "F#3",
                    "midi": 54,
                    "time": 127.11955932083359,
                    "velocity": 0.905511811023622,
                    "duration": 0.12076257500000054
                },
                {
                    "name": "G#3",
                    "midi": 56,
                    "time": 127.24455917916693,
                    "velocity": 0.905511811023622,
                    "duration": 0.12288121666666996
                },
                {
                    "name": "G#2",
                    "midi": 44,
                    "time": 127.24826680208359,
                    "velocity": 0.905511811023622,
                    "duration": 0.11917359375000558
                },
                {
                    "name": "A3",
                    "midi": 57,
                    "time": 127.37114801875026,
                    "velocity": 0.905511811023622,
                    "duration": 0.250529377083339
                },
                {
                    "name": "A2",
                    "midi": 45,
                    "time": 127.37644462291694,
                    "velocity": 0.905511811023622,
                    "duration": 0.24523277291666545
                },
                {
                    "name": "A3",
                    "midi": 57,
                    "time": 127.62856298125027,
                    "velocity": 0.905511811023622,
                    "duration": 0.12023291458334029
                },
                {
                    "name": "A2",
                    "midi": 45,
                    "time": 127.63174094375027,
                    "velocity": 0.905511811023622,
                    "duration": 0.11705495208333616
                },
                {
                    "name": "G#3",
                    "midi": 56,
                    "time": 127.74932555625027,
                    "velocity": 0.905511811023622,
                    "duration": 0.12658883958333433
                },
                {
                    "name": "G#2",
                    "midi": 44,
                    "time": 127.75938910416694,
                    "velocity": 0.905511811023622,
                    "duration": 0.1165252916666617
                },
                {
                    "name": "A2",
                    "midi": 45,
                    "time": 127.88174066041694,
                    "velocity": 0.905511811023622,
                    "duration": 0.12129223541666079
                },
                {
                    "name": "A3",
                    "midi": 57,
                    "time": 127.8854482833336,
                    "velocity": 0.905511811023622,
                    "duration": 0.11758461249999641
                },
                {
                    "name": "G#3",
                    "midi": 56,
                    "time": 128.0062108583336,
                    "velocity": 0.905511811023622,
                    "duration": 0.12394053749997624
                },
                {
                    "name": "G#2",
                    "midi": 44,
                    "time": 128.0072701791669,
                    "velocity": 0.905511811023622,
                    "duration": 0.12288121666665575
                },
                {
                    "name": "F#2",
                    "midi": 42,
                    "time": 128.13015139583356,
                    "velocity": 0.905511811023622,
                    "duration": 0.2542370000000176
                },
                {
                    "name": "F#3",
                    "midi": 54,
                    "time": 128.1327996979169,
                    "velocity": 0.905511811023622,
                    "duration": 0.2515886979166737
                },
                {
                    "name": "F#3",
                    "midi": 54,
                    "time": 128.38862567916692,
                    "velocity": 0.905511811023622,
                    "duration": 0.12288121666665575
                },
                {
                    "name": "F#2",
                    "midi": 42,
                    "time": 128.3907443208336,
                    "velocity": 0.905511811023622,
                    "duration": 0.12076257499998633
                },
                {
                    "name": "G#2",
                    "midi": 44,
                    "time": 128.51150689583358,
                    "velocity": 0.905511811023622,
                    "duration": 0.12711849999999458
                },
                {
                    "name": "G#3",
                    "midi": 56,
                    "time": 128.51150689583358,
                    "velocity": 0.905511811023622,
                    "duration": 0.12711849999999458
                },
                {
                    "name": "F#2",
                    "midi": 42,
                    "time": 128.64339233958358,
                    "velocity": 0.905511811023622,
                    "duration": 0.12235155625000971
                },
                {
                    "name": "F#3",
                    "midi": 54,
                    "time": 128.6481592833336,
                    "velocity": 0.905511811023622,
                    "duration": 0.11758461249999641
                },
                {
                    "name": "G#3",
                    "midi": 56,
                    "time": 128.76998117916693,
                    "velocity": 0.905511811023622,
                    "duration": 0.12288121666665575
                },
                {
                    "name": "G#2",
                    "midi": 44,
                    "time": 128.77580744375027,
                    "velocity": 0.905511811023622,
                    "duration": 0.11705495208332195
                },
                {
                    "name": "A2",
                    "midi": 45,
                    "time": 128.8992183208336,
                    "velocity": 0.905511811023622,
                    "duration": 0.2478810749999809
                },
                {
                    "name": "A3",
                    "midi": 57,
                    "time": 128.9008073020836,
                    "velocity": 0.905511811023622,
                    "duration": 0.24629209374998595
                },
                {
                    "name": "A2",
                    "midi": 45,
                    "time": 129.15557396250026,
                    "velocity": 0.905511811023622,
                    "duration": 0.11864393333331691
                },
                {
                    "name": "A3",
                    "midi": 57,
                    "time": 129.15663328333358,
                    "velocity": 0.905511811023622,
                    "duration": 0.11758461249999641
                },
                {
                    "name": "G#2",
                    "midi": 44,
                    "time": 129.28057382083358,
                    "velocity": 0.905511811023622,
                    "duration": 0.12076257499998633
                },
                {
                    "name": "G#3",
                    "midi": 56,
                    "time": 129.28057382083358,
                    "velocity": 0.905511811023622,
                    "duration": 0.12076257499998633
                },
                {
                    "name": "A2",
                    "midi": 45,
                    "time": 129.40186605625024,
                    "velocity": 0.905511811023622,
                    "duration": 0.12658883958334854
                },
                {
                    "name": "A3",
                    "midi": 57,
                    "time": 129.40981096250025,
                    "velocity": 0.905511811023622,
                    "duration": 0.11864393333334533
                },
                {
                    "name": "G#2",
                    "midi": 44,
                    "time": 129.5332218395836,
                    "velocity": 0.905511811023622,
                    "duration": 0.12235155624998129
                },
                {
                    "name": "G#3",
                    "midi": 56,
                    "time": 129.5348108208336,
                    "velocity": 0.905511811023622,
                    "duration": 0.12076257499998633
                },
                {
                    "name": "F#2",
                    "midi": 42,
                    "time": 129.66139966041692,
                    "velocity": 0.905511811023622,
                    "duration": 0.2484107354166838
                },
                {
                    "name": "F#3",
                    "midi": 54,
                    "time": 129.6619293208336,
                    "velocity": 0.905511811023622,
                    "duration": 0.24788107500000933
                },
                {
                    "name": "F2",
                    "midi": 41,
                    "time": 129.91722564166693,
                    "velocity": 0.905511811023622,
                    "duration": 0.11970325416666583
                },
                {
                    "name": "F3",
                    "midi": 53,
                    "time": 129.91881462291693,
                    "velocity": 0.905511811023622,
                    "duration": 0.11811427291667087
                },
                {
                    "name": "F#2",
                    "midi": 42,
                    "time": 130.0369288958336,
                    "velocity": 0.905511811023622,
                    "duration": 0.12711849999999458
                },
                {
                    "name": "F#3",
                    "midi": 54,
                    "time": 130.04063651875026,
                    "velocity": 0.905511811023622,
                    "duration": 0.1234108770833302
                },
                {
                    "name": "F2",
                    "midi": 41,
                    "time": 130.16669569791694,
                    "velocity": 0.905511811023622,
                    "duration": 0.1244701979166507
                },
                {
                    "name": "F3",
                    "midi": 53,
                    "time": 130.16775501875026,
                    "velocity": 0.905511811023622,
                    "duration": 0.1234108770833302
                },
                {
                    "name": "F#3",
                    "midi": 54,
                    "time": 130.29328453750026,
                    "velocity": 0.905511811023622,
                    "duration": 0.12499985833335359
                },
                {
                    "name": "F#2",
                    "midi": 42,
                    "time": 130.29964046250026,
                    "velocity": 0.905511811023622,
                    "duration": 0.11864393333334533
                },
                {
                    "name": "G3",
                    "midi": 55,
                    "time": 130.42464032083362,
                    "velocity": 0.905511811023622,
                    "duration": 0.1234108770833302
                },
                {
                    "name": "G2",
                    "midi": 43,
                    "time": 130.43046658541695,
                    "velocity": 0.905511811023622,
                    "duration": 0.11758461249999641
                },
                {
                    "name": "F#3",
                    "midi": 54,
                    "time": 130.54646221666695,
                    "velocity": 0.905511811023622,
                    "duration": 0.12605917916664566
                },
                {
                    "name": "F#2",
                    "midi": 42,
                    "time": 130.5533478020836,
                    "velocity": 0.905511811023622,
                    "duration": 0.11917359374999137
                },
                {
                    "name": "G3",
                    "midi": 55,
                    "time": 130.67940698125025,
                    "velocity": 0.905511811023622,
                    "duration": 0.12023291458334029
                },
                {
                    "name": "G2",
                    "midi": 43,
                    "time": 130.6820552833336,
                    "velocity": 0.905511811023622,
                    "duration": 0.11758461249999641
                },
                {
                    "name": "G#3",
                    "midi": 56,
                    "time": 130.8012288770836,
                    "velocity": 0.905511811023622,
                    "duration": 0.12552951874999962
                },
                {
                    "name": "G#2",
                    "midi": 44,
                    "time": 130.80546616041693,
                    "velocity": 0.905511811023622,
                    "duration": 0.12129223541666079
                },
                {
                    "name": "A#2",
                    "midi": 46,
                    "time": 130.93523296250027,
                    "velocity": 0.905511811023622,
                    "duration": 0.11864393333331691
                },
                {
                    "name": "A#3",
                    "midi": 58,
                    "time": 130.9362922833336,
                    "velocity": 0.905511811023622,
                    "duration": 0.11758461249999641
                },
                {
                    "name": "C3",
                    "midi": 48,
                    "time": 131.05599553750025,
                    "velocity": 0.905511811023622,
                    "duration": 0.12499985833335359
                },
                {
                    "name": "C4",
                    "midi": 60,
                    "time": 131.06447010416693,
                    "velocity": 0.905511811023622,
                    "duration": 0.11652529166667591
                },
                {
                    "name": "A#2",
                    "midi": 46,
                    "time": 131.18946996250028,
                    "velocity": 0.905511811023622,
                    "duration": 0.11864393333331691
                },
                {
                    "name": "A#3",
                    "midi": 58,
                    "time": 131.1905292833336,
                    "velocity": 0.905511811023622,
                    "duration": 0.11758461249999641
                },
                {
                    "name": "G#2",
                    "midi": 44,
                    "time": 131.31711812291692,
                    "velocity": 0.905511811023622,
                    "duration": 0.11811427291667087
                },
                {
                    "name": "G#3",
                    "midi": 56,
                    "time": 131.31870710416692,
                    "velocity": 0.905511811023622,
                    "duration": 0.11652529166667591
                },
                {
                    "name": "A#2",
                    "midi": 46,
                    "time": 131.44211798125025,
                    "velocity": 0.905511811023622,
                    "duration": 0.12023291458334029
                },
                {
                    "name": "A#3",
                    "midi": 58,
                    "time": 131.4447662833336,
                    "velocity": 0.905511811023622,
                    "duration": 0.11758461249999641
                },
                {
                    "name": "G#3",
                    "midi": 56,
                    "time": 131.56393987708358,
                    "velocity": 0.8818897637795275,
                    "duration": 0.12552951874999962
                },
                {
                    "name": "G#2",
                    "midi": 44,
                    "time": 131.5687068208336,
                    "velocity": 0.8818897637795275,
                    "duration": 0.12076257499998633
                },
                {
                    "name": "F3",
                    "midi": 53,
                    "time": 131.69211769791693,
                    "velocity": 0.8582677165354331,
                    "duration": 0.12447019791667913
                },
                {
                    "name": "F2",
                    "midi": 41,
                    "time": 131.69211769791693,
                    "velocity": 0.8582677165354331,
                    "duration": 0.12447019791667913
                },
                {
                    "name": "F#3",
                    "midi": 54,
                    "time": 131.8245328020836,
                    "velocity": 0.8503937007874016,
                    "duration": 0.11917359375001979
                },
                {
                    "name": "F#2",
                    "midi": 42,
                    "time": 131.82506246250028,
                    "velocity": 0.8503937007874016,
                    "duration": 0.11864393333334533
                },
                {
                    "name": "G2",
                    "midi": 43,
                    "time": 131.94529537708362,
                    "velocity": 0.9763779527559056,
                    "duration": 0.2526480187499942
                },
                {
                    "name": "G3",
                    "midi": 55,
                    "time": 131.95112164166696,
                    "velocity": 0.9763779527559056,
                    "duration": 0.2468217541666604
                },
                {
                    "name": "D3",
                    "midi": 50,
                    "time": 132.1984730562503,
                    "velocity": 0.8661417322834646,
                    "duration": 0.2537073395833431
                },
                {
                    "name": "D2",
                    "midi": 38,
                    "time": 132.2032400000003,
                    "velocity": 0.8661417322834646,
                    "duration": 0.24894039583332983
                },
                {
                    "name": "D2",
                    "midi": 38,
                    "time": 132.4606549625003,
                    "velocity": 0.8582677165354331,
                    "duration": 0.15677948333333802
                },
                {
                    "name": "D3",
                    "midi": 50,
                    "time": 132.461184622917,
                    "velocity": 0.8582677165354331,
                    "duration": 0.15624982291666356
                },
                {
                    "name": "G#3",
                    "midi": 56,
                    "time": 132.70747671666697,
                    "velocity": 0.905511811023622,
                    "duration": 0.25317767916666867
                },
                {
                    "name": "G#2",
                    "midi": 44,
                    "time": 132.70959535833364,
                    "velocity": 0.905511811023622,
                    "duration": 0.25105903749999925
                },
                {
                    "name": "C#2",
                    "midi": 37,
                    "time": 132.96542133958366,
                    "velocity": 0.905511811023622,
                    "duration": 0.2494700562500043
                },
                {
                    "name": "C#3",
                    "midi": 49,
                    "time": 132.96701032083365,
                    "velocity": 0.905511811023622,
                    "duration": 0.24788107500000933
                },
                {
                    "name": "F3",
                    "midi": 53,
                    "time": 133.22336596250034,
                    "velocity": 0.905511811023622,
                    "duration": 0.05508468333331962
                },
                {
                    "name": "F#3",
                    "midi": 54,
                    "time": 133.28056928750033,
                    "velocity": 0.905511811023622,
                    "duration": 0.06144060833332787
                },
                {
                    "name": "G#3",
                    "midi": 56,
                    "time": 133.34995480208366,
                    "velocity": 0.905511811023622,
                    "duration": 0.05561434374999408
                },
                {
                    "name": "A#3",
                    "midi": 58,
                    "time": 133.416162354167,
                    "velocity": 0.905511811023622,
                    "duration": 0.05296604166667862
                },
                {
                    "name": "C4",
                    "midi": 60,
                    "time": 133.46912839583368,
                    "velocity": 0.905511811023622,
                    "duration": 0.5084739999999783
                },
                {
                    "name": "C3",
                    "midi": 48,
                    "time": 133.47601398125033,
                    "velocity": 0.905511811023622,
                    "duration": 0.501588414583324
                },
                {
                    "name": "A#3",
                    "midi": 58,
                    "time": 133.97919137708365,
                    "velocity": 0.905511811023622,
                    "duration": 0.2526480187499942
                },
                {
                    "name": "A#2",
                    "midi": 46,
                    "time": 133.98501764166699,
                    "velocity": 0.905511811023622,
                    "duration": 0.2468217541666604
                },
                {
                    "name": "G#2",
                    "midi": 44,
                    "time": 134.23236905625032,
                    "velocity": 0.905511811023622,
                    "duration": 0.2537073395833431
                },
                {
                    "name": "G#3",
                    "midi": 56,
                    "time": 134.234487697917,
                    "velocity": 0.905511811023622,
                    "duration": 0.2515886979166737
                },
                {
                    "name": "F#2",
                    "midi": 42,
                    "time": 134.493491641667,
                    "velocity": 0.905511811023622,
                    "duration": 0.2468217541666604
                },
                {
                    "name": "F#3",
                    "midi": 54,
                    "time": 134.495080622917,
                    "velocity": 0.905511811023622,
                    "duration": 0.24523277291666545
                },
                {
                    "name": "F3",
                    "midi": 53,
                    "time": 134.74402101875032,
                    "velocity": 0.905511811023622,
                    "duration": 0.2505293770833248
                },
                {
                    "name": "F2",
                    "midi": 41,
                    "time": 134.746139660417,
                    "velocity": 0.905511811023622,
                    "duration": 0.24841073541665537
                },
                {
                    "name": "D#2",
                    "midi": 39,
                    "time": 134.9966690375003,
                    "velocity": 0.905511811023622,
                    "duration": 0.25211835833334817
                },
                {
                    "name": "D#3",
                    "midi": 51,
                    "time": 135.00302496250032,
                    "velocity": 0.905511811023622,
                    "duration": 0.2457624333333399
                },
                {
                    "name": "C#3",
                    "midi": 49,
                    "time": 135.25090603750033,
                    "velocity": 0.905511811023622,
                    "duration": 0.25211835833334817
                },
                {
                    "name": "C#2",
                    "midi": 37,
                    "time": 135.25567298125034,
                    "velocity": 0.905511811023622,
                    "duration": 0.24735141458333487
                },
                {
                    "name": "B2",
                    "midi": 47,
                    "time": 135.50514303750035,
                    "velocity": 0.905511811023622,
                    "duration": 0.25211835833334817
                },
                {
                    "name": "B1",
                    "midi": 35,
                    "time": 135.51361760416702,
                    "velocity": 0.905511811023622,
                    "duration": 0.2436437916666705
                },
                {
                    "name": "D#2",
                    "midi": 39,
                    "time": 135.7572613958337,
                    "velocity": 0.905511811023622,
                    "duration": 0.2542370000000176
                },
                {
                    "name": "D#3",
                    "midi": 51,
                    "time": 135.75990969791704,
                    "velocity": 0.905511811023622,
                    "duration": 0.2515886979166737
                },
                {
                    "name": "C#3",
                    "midi": 49,
                    "time": 136.0130873770837,
                    "velocity": 0.905511811023622,
                    "duration": 0.2526480187499942
                },
                {
                    "name": "C#2",
                    "midi": 37,
                    "time": 136.01997296250036,
                    "velocity": 0.905511811023622,
                    "duration": 0.2457624333333399
                },
                {
                    "name": "B2",
                    "midi": 47,
                    "time": 136.2657353958337,
                    "velocity": 0.905511811023622,
                    "duration": 0.25423699999998917
                },
                {
                    "name": "B1",
                    "midi": 35,
                    "time": 136.2657353958337,
                    "velocity": 0.905511811023622,
                    "duration": 0.25423699999998917
                },
                {
                    "name": "D#3",
                    "midi": 51,
                    "time": 136.52368001875035,
                    "velocity": 0.905511811023622,
                    "duration": 0.2505293770833248
                },
                {
                    "name": "D#2",
                    "midi": 39,
                    "time": 136.52685798125034,
                    "velocity": 0.905511811023622,
                    "duration": 0.24735141458333487
                },
                {
                    "name": "C#2",
                    "midi": 37,
                    "time": 136.77791701875034,
                    "velocity": 0.905511811023622,
                    "duration": 0.2505293770833532
                },
                {
                    "name": "C#3",
                    "midi": 49,
                    "time": 136.77844667916702,
                    "velocity": 0.905511811023622,
                    "duration": 0.24999971666667875
                },
                {
                    "name": "B1",
                    "midi": 35,
                    "time": 137.02897605625037,
                    "velocity": 0.905511811023622,
                    "duration": 0.2537073395833431
                },
                {
                    "name": "B2",
                    "midi": 47,
                    "time": 137.03268367916704,
                    "velocity": 0.905511811023622,
                    "duration": 0.24999971666667875
                },
                {
                    "name": "D#3",
                    "midi": 51,
                    "time": 137.28850966041705,
                    "velocity": 0.905511811023622,
                    "duration": 0.24841073541665537
                },
                {
                    "name": "D#2",
                    "midi": 39,
                    "time": 137.29009864166704,
                    "velocity": 0.905511811023622,
                    "duration": 0.2468217541666604
                },
                {
                    "name": "C#2",
                    "midi": 37,
                    "time": 137.54062801875037,
                    "velocity": 0.905511811023622,
                    "duration": 0.2505293770833248
                },
                {
                    "name": "C#3",
                    "midi": 49,
                    "time": 137.54380598125036,
                    "velocity": 0.905511811023622,
                    "duration": 0.24735141458333487
                },
                {
                    "name": "B1",
                    "midi": 35,
                    "time": 137.79698366041703,
                    "velocity": 0.905511811023622,
                    "duration": 0.24841073541665537
                },
                {
                    "name": "B2",
                    "midi": 47,
                    "time": 137.8006912833337,
                    "velocity": 0.905511811023622,
                    "duration": 0.244703112499991
                },
                {
                    "name": "A#1",
                    "midi": 34,
                    "time": 138.04592405625036,
                    "velocity": 0.905511811023622,
                    "duration": 0.2537073395833147
                },
                {
                    "name": "A#2",
                    "midi": 46,
                    "time": 138.05122066041702,
                    "velocity": 0.905511811023622,
                    "duration": 0.24841073541665537
                },
                {
                    "name": "G#2",
                    "midi": 44,
                    "time": 138.30227969791702,
                    "velocity": 0.905511811023622,
                    "duration": 0.2515886979166737
                },
                {
                    "name": "G#1",
                    "midi": 32,
                    "time": 138.30439833958368,
                    "velocity": 0.905511811023622,
                    "duration": 0.2494700562500043
                },
                {
                    "name": "F#2",
                    "midi": 42,
                    "time": 138.55810567916703,
                    "velocity": 0.905511811023622,
                    "duration": 0.24999971666665033
                },
                {
                    "name": "F#1",
                    "midi": 30,
                    "time": 138.5634022833337,
                    "velocity": 0.905511811023622,
                    "duration": 0.244703112499991
                },
                {
                    "name": "F1",
                    "midi": 29,
                    "time": 138.80863505625035,
                    "velocity": 0.905511811023622,
                    "duration": 0.2537073395833431
                },
                {
                    "name": "F2",
                    "midi": 41,
                    "time": 138.81340200000037,
                    "velocity": 0.905511811023622,
                    "duration": 0.24894039583332983
                },
                {
                    "name": "D#1",
                    "midi": 27,
                    "time": 139.06816866041703,
                    "velocity": 0.905511811023622,
                    "duration": 0.24841073541665537
                },
                {
                    "name": "D#2",
                    "midi": 39,
                    "time": 139.06975764166702,
                    "velocity": 0.905511811023622,
                    "duration": 0.2468217541666604
                },
                {
                    "name": "C#2",
                    "midi": 37,
                    "time": 139.32505396250036,
                    "velocity": 0.905511811023622,
                    "duration": 0.2457624333333115
                },
                {
                    "name": "C#1",
                    "midi": 25,
                    "time": 139.32611328333368,
                    "velocity": 0.905511811023622,
                    "duration": 0.244703112499991
                },
                {
                    "name": "D#4",
                    "midi": 63,
                    "time": 139.579820622917,
                    "velocity": 0.9921259842519685,
                    "duration": 0.24523277291666545
                },
                {
                    "name": "D#4",
                    "midi": 63,
                    "time": 139.82823135833365,
                    "velocity": 0.9921259842519685,
                    "duration": 0.25105903749999925
                },
                {
                    "name": "D#4",
                    "midi": 63,
                    "time": 140.08882428333365,
                    "velocity": 0.9921259842519685,
                    "duration": 0.244703112499991
                },
                {
                    "name": "D#4",
                    "midi": 63,
                    "time": 140.3404129812503,
                    "velocity": 0.9763779527559056,
                    "duration": 0.501588414583324
                },
                {
                    "name": "G#3",
                    "midi": 56,
                    "time": 140.84994630208362,
                    "velocity": 0.8267716535433071,
                    "duration": 0.11917359374999137
                },
                {
                    "name": "D#4",
                    "midi": 63,
                    "time": 141.10524262291696,
                    "velocity": 0.9763779527559056,
                    "duration": 0.4994697729166546
                },
                {
                    "name": "G#3",
                    "midi": 56,
                    "time": 141.6131869625003,
                    "velocity": 0.8267716535433071,
                    "duration": 0.11864393333334533
                },
                {
                    "name": "A#2",
                    "midi": 46,
                    "time": 141.86848328333363,
                    "velocity": 0.7007874015748031,
                    "duration": 0.4989401125000086
                },
                {
                    "name": "A#1",
                    "midi": 34,
                    "time": 141.8690129437503,
                    "velocity": 0.7007874015748031,
                    "duration": 0.4984104520833341
                },
                {
                    "name": "C3",
                    "midi": 48,
                    "time": 142.3727200000003,
                    "velocity": 0.7007874015748031,
                    "duration": 0.24894039583335825
                },
                {
                    "name": "C2",
                    "midi": 36,
                    "time": 142.3774869437503,
                    "velocity": 0.7007874015748031,
                    "duration": 0.24417345208334496
                },
                {
                    "name": "C#2",
                    "midi": 37,
                    "time": 142.62271971666698,
                    "velocity": 0.7007874015748031,
                    "duration": 0.7616516791666754
                },
                {
                    "name": "C#3",
                    "midi": 49,
                    "time": 142.62642733958364,
                    "velocity": 0.7007874015748031,
                    "duration": 0.757944056250011
                },
                {
                    "name": "A#2",
                    "midi": 46,
                    "time": 143.38807901875032,
                    "velocity": 0.8267716535433071,
                    "duration": 0.504766377083314
                },
                {
                    "name": "A#1",
                    "midi": 34,
                    "time": 143.39337562291698,
                    "velocity": 0.8267716535433071,
                    "duration": 0.4994697729166546
                },
                {
                    "name": "C3",
                    "midi": 48,
                    "time": 143.89443437708363,
                    "velocity": 0.8267716535433071,
                    "duration": 0.25264801875002263
                },
                {
                    "name": "C2",
                    "midi": 36,
                    "time": 143.89708267916697,
                    "velocity": 0.8267716535433071,
                    "duration": 0.24999971666667875
                },
                {
                    "name": "C#3",
                    "midi": 49,
                    "time": 144.14708239583365,
                    "velocity": 0.8267716535433071,
                    "duration": 0.7627109999999959
                },
                {
                    "name": "C#2",
                    "midi": 37,
                    "time": 144.1539679812503,
                    "velocity": 0.8267716535433071,
                    "duration": 0.7558254145833416
                },
                {
                    "name": "D#2",
                    "midi": 39,
                    "time": 144.91032305625032,
                    "velocity": 0.8267716535433071,
                    "duration": 0.2537073395833431
                },
                {
                    "name": "D#3",
                    "midi": 51,
                    "time": 144.91826796250032,
                    "velocity": 0.8267716535433071,
                    "duration": 0.2457624333333399
                },
                {
                    "name": "D#2",
                    "midi": 39,
                    "time": 145.16456005625034,
                    "velocity": 0.8346456692913385,
                    "duration": 0.2537073395833431
                },
                {
                    "name": "D#3",
                    "midi": 51,
                    "time": 145.168267679167,
                    "velocity": 0.8346456692913385,
                    "duration": 0.24999971666667875
                },
                {
                    "name": "D#2",
                    "midi": 39,
                    "time": 145.425682641667,
                    "velocity": 0.8503937007874016,
                    "duration": 0.2468217541666604
                },
                {
                    "name": "D#3",
                    "midi": 51,
                    "time": 145.42674196250033,
                    "velocity": 0.8503937007874016,
                    "duration": 0.2457624333333399
                },
                {
                    "name": "G#2",
                    "midi": 44,
                    "time": 145.67409337708366,
                    "velocity": 0.8661417322834646,
                    "duration": 0.2526480187499942
                },
                {
                    "name": "G#1",
                    "midi": 32,
                    "time": 145.67409337708366,
                    "velocity": 0.8661417322834646,
                    "duration": 0.2526480187499942
                },
                {
                    "name": "G#1",
                    "midi": 32,
                    "time": 145.92727105625033,
                    "velocity": 0.8740157480314961,
                    "duration": 0.2537073395833147
                },
                {
                    "name": "G#2",
                    "midi": 44,
                    "time": 145.93044901875032,
                    "velocity": 0.8740157480314961,
                    "duration": 0.2505293770833248
                },
                {
                    "name": "G#1",
                    "midi": 32,
                    "time": 146.18097839583365,
                    "velocity": 0.889763779527559,
                    "duration": 0.2542370000000176
                },
                {
                    "name": "G#2",
                    "midi": 44,
                    "time": 146.191571604167,
                    "velocity": 0.889763779527559,
                    "duration": 0.2436437916666705
                },
                {
                    "name": "A#1",
                    "midi": 34,
                    "time": 146.43574505625034,
                    "velocity": 0.905511811023622,
                    "duration": 0.5079443395833323
                },
                {
                    "name": "A#2",
                    "midi": 46,
                    "time": 146.44210098125035,
                    "velocity": 0.905511811023622,
                    "duration": 0.501588414583324
                },
                {
                    "name": "C2",
                    "midi": 36,
                    "time": 146.95057498125033,
                    "velocity": 0.9291338582677166,
                    "duration": 0.24735141458333487
                },
                {
                    "name": "C3",
                    "midi": 48,
                    "time": 146.95375294375032,
                    "velocity": 0.9291338582677166,
                    "duration": 0.24417345208334496
                },
                {
                    "name": "C#3",
                    "midi": 49,
                    "time": 147.19792639583366,
                    "velocity": 0.9448818897637795,
                    "duration": 0.2542370000000176
                },
                {
                    "name": "C#2",
                    "midi": 37,
                    "time": 147.20269333958367,
                    "velocity": 0.9448818897637795,
                    "duration": 0.2494700562500043
                },
                {
                    "name": "C#3",
                    "midi": 49,
                    "time": 147.45481169791702,
                    "velocity": 0.905511811023622,
                    "duration": 0.2515886979166737
                },
                {
                    "name": "C#4",
                    "midi": 61,
                    "time": 147.45640067916702,
                    "velocity": 0.905511811023622,
                    "duration": 0.24999971666667875
                },
                {
                    "name": "C#4",
                    "midi": 61,
                    "time": 147.71328598125035,
                    "velocity": 0.905511811023622,
                    "duration": 0.24735141458333487
                },
                {
                    "name": "C#3",
                    "midi": 49,
                    "time": 147.71487496250035,
                    "velocity": 0.905511811023622,
                    "duration": 0.2457624333333399
                },
                {
                    "name": "D#2",
                    "midi": 39,
                    "time": 147.9606373958337,
                    "velocity": 0.905511811023622,
                    "duration": 0.25423699999998917
                },
                {
                    "name": "D#3",
                    "midi": 51,
                    "time": 147.969641622917,
                    "velocity": 0.905511811023622,
                    "duration": 0.24523277291666545
                },
                {
                    "name": "C#3",
                    "midi": 49,
                    "time": 148.215933716667,
                    "velocity": 0.905511811023622,
                    "duration": 0.25317767916666867
                },
                {
                    "name": "C#4",
                    "midi": 61,
                    "time": 148.22175998125033,
                    "velocity": 0.905511811023622,
                    "duration": 0.24735141458333487
                },
                {
                    "name": "G#2",
                    "midi": 44,
                    "time": 148.474937660417,
                    "velocity": 0.905511811023622,
                    "duration": 0.2484107354166838
                },
                {
                    "name": "G#1",
                    "midi": 32,
                    "time": 148.479704604167,
                    "velocity": 0.905511811023622,
                    "duration": 0.2436437916666705
                },
                {
                    "name": "C#3",
                    "midi": 49,
                    "time": 148.72546703750035,
                    "velocity": 0.905511811023622,
                    "duration": 0.25211835833334817
                },
                {
                    "name": "C#2",
                    "midi": 37,
                    "time": 148.7281153395837,
                    "velocity": 0.905511811023622,
                    "duration": 0.2494700562500043
                },
                {
                    "name": "C#3",
                    "midi": 49,
                    "time": 148.9807633583337,
                    "velocity": 0.8976377952755905,
                    "duration": 0.25105903749999925
                },
                {
                    "name": "C#4",
                    "midi": 61,
                    "time": 148.98605996250035,
                    "velocity": 0.8976377952755905,
                    "duration": 0.2457624333333399
                },
                {
                    "name": "C#4",
                    "midi": 61,
                    "time": 149.23553001875035,
                    "velocity": 0.8976377952755905,
                    "duration": 0.2505293770833248
                },
                {
                    "name": "C#3",
                    "midi": 49,
                    "time": 149.23711900000035,
                    "velocity": 0.8976377952755905,
                    "duration": 0.24894039583332983
                },
                {
                    "name": "D#3",
                    "midi": 51,
                    "time": 149.487118716667,
                    "velocity": 0.8976377952755905,
                    "duration": 0.25317767916666867
                },
                {
                    "name": "D#2",
                    "midi": 39,
                    "time": 149.49241532083366,
                    "velocity": 0.8976377952755905,
                    "duration": 0.24788107500000933
                },
                {
                    "name": "C#4",
                    "midi": 61,
                    "time": 149.74824130208367,
                    "velocity": 0.8976377952755905,
                    "duration": 0.24629209375001437
                },
                {
                    "name": "C#3",
                    "midi": 49,
                    "time": 149.750889604167,
                    "velocity": 0.8976377952755905,
                    "duration": 0.2436437916666705
                },
                {
                    "name": "G#2",
                    "midi": 44,
                    "time": 149.99612237708368,
                    "velocity": 0.8976377952755905,
                    "duration": 0.2526480187499942
                },
                {
                    "name": "G#1",
                    "midi": 32,
                    "time": 149.99930033958367,
                    "velocity": 0.8976377952755905,
                    "duration": 0.2494700562500043
                },
                {
                    "name": "C#3",
                    "midi": 49,
                    "time": 150.256185641667,
                    "velocity": 0.8976377952755905,
                    "duration": 0.2468217541666604
                },
                {
                    "name": "C#2",
                    "midi": 37,
                    "time": 150.259363604167,
                    "velocity": 0.8976377952755905,
                    "duration": 0.2436437916666705
                },
                {
                    "name": "G#1",
                    "midi": 32,
                    "time": 150.50989298125032,
                    "velocity": 0.889763779527559,
                    "duration": 0.24735141458333487
                },
                {
                    "name": "G#2",
                    "midi": 44,
                    "time": 150.5114819625003,
                    "velocity": 0.889763779527559,
                    "duration": 0.2457624333333399
                },
                {
                    "name": "F2",
                    "midi": 41,
                    "time": 150.7641299812503,
                    "velocity": 0.889763779527559,
                    "duration": 0.24735141458333487
                },
                {
                    "name": "F1",
                    "midi": 29,
                    "time": 150.7673079437503,
                    "velocity": 0.889763779527559,
                    "duration": 0.24417345208334496
                },
                {
                    "name": "C#1",
                    "midi": 25,
                    "time": 151.01465935833363,
                    "velocity": 0.889763779527559,
                    "duration": 0.25105903749999925
                },
                {
                    "name": "C#2",
                    "midi": 37,
                    "time": 151.01889664166697,
                    "velocity": 0.889763779527559,
                    "duration": 0.2468217541666604
                },
                {
                    "name": "A4",
                    "midi": 69,
                    "time": 151.52578166041695,
                    "velocity": 0.889763779527559,
                    "duration": 0.15942778541665348
                },
                {
                    "name": "A3",
                    "midi": 57,
                    "time": 151.7773703583336,
                    "velocity": 0.889763779527559,
                    "duration": 0.16207608749999736
                },
                {
                    "name": "G#2",
                    "midi": 44,
                    "time": 152.28849266041692,
                    "velocity": 0.7952755905511811,
                    "duration": 0.15942778541665348
                },
                {
                    "name": "G#1",
                    "midi": 32,
                    "time": 152.29008164166692,
                    "velocity": 0.7952755905511811,
                    "duration": 0.15783880416665852
                },
                {
                    "name": "C#2",
                    "midi": 37,
                    "time": 152.53955169791692,
                    "velocity": 0.8818897637795275,
                    "duration": 0.1626057479166434
                },
                {
                    "name": "C#1",
                    "midi": 25,
                    "time": 152.5427296604169,
                    "velocity": 0.8818897637795275,
                    "duration": 0.15942778541665348
                },
                {
                    "name": "G2",
                    "midi": 43,
                    "time": 153.05067400000024,
                    "velocity": 0.7559055118110236,
                    "duration": 0.15995744583332794
                },
                {
                    "name": "G3",
                    "midi": 55,
                    "time": 153.32556775625022,
                    "velocity": 0.8818897637795275,
                    "duration": 0.15519050208334306
                },
                {
                    "name": "G#2",
                    "midi": 44,
                    "time": 153.8155036416669,
                    "velocity": 0.7637795275590551,
                    "duration": 0.15783880416665852
                },
                {
                    "name": "G#1",
                    "midi": 32,
                    "time": 153.81656296250023,
                    "velocity": 0.7637795275590551,
                    "duration": 0.15677948333333802
                },
                {
                    "name": "C#2",
                    "midi": 37,
                    "time": 154.08298215208356,
                    "velocity": 0.8740157480314961,
                    "duration": 0.1604871062500024
                },
                {
                    "name": "C#3",
                    "midi": 49,
                    "time": 154.08510079375023,
                    "velocity": 0.8740157480314961,
                    "duration": 0.15836846458333298
                },
                {
                    "name": "D4",
                    "midi": 62,
                    "time": 154.57927396250022,
                    "velocity": 0.6692913385826772,
                    "duration": 0.15677948333333802
                },
                {
                    "name": "D3",
                    "midi": 50,
                    "time": 154.84887111458357,
                    "velocity": 0.7401574803149606,
                    "duration": 0.15730914375001248
                },
                {
                    "name": "G#1",
                    "midi": 32,
                    "time": 155.33562903750024,
                    "velocity": 0.905511811023622,
                    "duration": 0.16313540833334628
                },
                {
                    "name": "G#2",
                    "midi": 44,
                    "time": 155.34410360416692,
                    "velocity": 0.905511811023622,
                    "duration": 0.1546608416666686
                },
                {
                    "name": "C#3",
                    "midi": 49,
                    "time": 155.59463298125024,
                    "velocity": 0.905511811023622,
                    "duration": 0.15836846458333298
                },
                {
                    "name": "C#2",
                    "midi": 37,
                    "time": 155.59781094375023,
                    "velocity": 0.905511811023622,
                    "duration": 0.15519050208334306
                },
                {
                    "name": "G#2",
                    "midi": 44,
                    "time": 155.8483403208336,
                    "velocity": 0.905511811023622,
                    "duration": 0.15889812500000744
                },
                {
                    "name": "G#1",
                    "midi": 32,
                    "time": 155.85204794375025,
                    "velocity": 0.905511811023622,
                    "duration": 0.15519050208334306
                },
                {
                    "name": "F2",
                    "midi": 41,
                    "time": 156.10151800000025,
                    "velocity": 0.937007874015748,
                    "duration": 0.15995744583332794
                },
                {
                    "name": "F1",
                    "midi": 29,
                    "time": 156.10151800000025,
                    "velocity": 0.937007874015748,
                    "duration": 0.15995744583332794
                },
                {
                    "name": "C#2",
                    "midi": 37,
                    "time": 156.35522533958357,
                    "velocity": 0.968503937007874,
                    "duration": 0.1604871062500024
                },
                {
                    "name": "C#1",
                    "midi": 25,
                    "time": 156.35999228333358,
                    "velocity": 0.968503937007874,
                    "duration": 0.1557201624999891
                }
            ],
            "controlChanges": {
                "7": [
                    {
                        "number": 7,
                        "time": 0,
                        "value": 1
                    }
                ],
                "10": [
                    {
                        "number": 10,
                        "time": 0,
                        "value": 0.47244094488188976
                    }
                ],
                "91": [
                    {
                        "number": 91,
                        "time": 0.0010593208333333332,
                        "value": 0.4094488188976378
                    },
                    {
                        "number": 91,
                        "time": 157.11634735833357,
                        "value": 0
                    }
                ],
                "93": [
                    {
                        "number": 93,
                        "time": 0.0010593208333333332,
                        "value": 0.11811023622047244
                    },
                    {
                        "number": 93,
                        "time": 157.11634735833357,
                        "value": 0
                    }
                ],
                "121": [
                    {
                        "number": 121,
                        "time": 0,
                        "value": 0
                    },
                    {
                        "number": 121,
                        "time": 157.1174066791669,
                        "value": 0
                    }
                ]
            },
            "id": 2,
            "name": "LH",
            "instrumentNumber": 0,
            "instrument": "acoustic grand piano",
            "instrumentFamily": "piano",
            "channelNumber": 1,
            "isPercussion": false
        },
        {
            "startTime": 0,
            "duration": 0,
            "length": 0,
            "notes": [],
            "controlChanges": {},
            "id": 3,
            "name": "=============="
        },
        {
            "startTime": 0,
            "duration": 0,
            "length": 0,
            "notes": [],
            "controlChanges": {},
            "id": 4,
            "name": "D. SHOSTAKOVICH"
        },
        {
            "startTime": 0,
            "duration": 0,
            "length": 0,
            "notes": [],
            "controlChanges": {},
            "id": 5,
            "name": "Prelude in Db Major"
        },
        {
            "startTime": 0,
            "duration": 0,
            "length": 0,
            "notes": [],
            "controlChanges": {},
            "id": 6,
            "name": "opus 87 no. 15"
        },
        {
            "startTime": 0,
            "duration": 0,
            "length": 0,
            "notes": [],
            "controlChanges": {},
            "id": 7,
            "name": "Seq. by J. Marques"
        },
        {
            "startTime": 0,
            "duration": 0,
            "length": 0,
            "notes": [],
            "controlChanges": {},
            "id": 8,
            "name": "marques@super.zippo.com"
        },
        {
            "startTime": 0,
            "duration": 0,
            "length": 0,
            "notes": [],
            "controlChanges": {},
            "id": 9,
            "name": "==============="
        },
        {
            "startTime": 0,
            "duration": 0,
            "length": 0,
            "notes": [],
            "controlChanges": {},
            "id": 10
        }
    ]
}