{
    "header": {
        "PPQ": 480,
        "bpm": 60,
        "timeSignature": [
            7,
            8
        ],
        "name": "nameless"
    },
    "startTime": 0,
    "duration": 235.49583333333268,
    "tracks": [
        {
            "startTime": 0,
            "duration": 0,
            "length": 0,
            "notes": [],
            "controlChanges": {},
            "id": 0,
            "name": "nameless"
        },
        {
            "startTime": 3.999999999999999,
            "duration": 235.49583333333268,
            "length": 1952,
            "notes": [
                {
                    "name": "B2",
                    "midi": 47,
                    "time": 3.999999999999999,
                    "velocity": 0.2677165354330709,
                    "duration": 0.9958333333333336
                },
                {
                    "name": "G#2",
                    "midi": 44,
                    "time": 3.999999999999999,
                    "velocity": 0.25984251968503935,
                    "duration": 0.9958333333333336
                },
                {
                    "name": "D#3",
                    "midi": 51,
                    "time": 3.999999999999999,
                    "velocity": 0.29133858267716534,
                    "duration": 0.49583333333333357
                },
                {
                    "name": "G#3",
                    "midi": 56,
                    "time": 4.499999999999999,
                    "velocity": 0.4330708661417323,
                    "duration": 1.4958333333333336
                },
                {
                    "name": "F#2",
                    "midi": 42,
                    "time": 4.999999999999999,
                    "velocity": 0.3543307086614173,
                    "duration": 0.49583333333333357
                },
                {
                    "name": "B2",
                    "midi": 47,
                    "time": 5.499999999999999,
                    "velocity": 0.4094488188976378,
                    "duration": 1.4958333333333336
                },
                {
                    "name": "G#2",
                    "midi": 44,
                    "time": 5.999999999999999,
                    "velocity": 0.3779527559055118,
                    "duration": 0.9958333333333336
                },
                {
                    "name": "D#3",
                    "midi": 51,
                    "time": 5.999999999999999,
                    "velocity": 0.29133858267716534,
                    "duration": 0.49583333333333357
                },
                {
                    "name": "G#3",
                    "midi": 56,
                    "time": 6.499999999999999,
                    "velocity": 0.3779527559055118,
                    "duration": 1.4958333333333336
                },
                {
                    "name": "F#2",
                    "midi": 42,
                    "time": 6.999999999999999,
                    "velocity": 0.33858267716535434,
                    "duration": 0.49583333333333357
                },
                {
                    "name": "B2",
                    "midi": 47,
                    "time": 7.499999999999999,
                    "velocity": 0.41732283464566927,
                    "duration": 1.4958333333333345
                },
                {
                    "name": "G#2",
                    "midi": 44,
                    "time": 7.999999999999999,
                    "velocity": 0.3937007874015748,
                    "duration": 0.9958333333333345
                },
                {
                    "name": "D#3",
                    "midi": 51,
                    "time": 7.999999999999999,
                    "velocity": 0.2755905511811024,
                    "duration": 0.49583333333333446
                },
                {
                    "name": "G#3",
                    "midi": 56,
                    "time": 8.5,
                    "velocity": 0.4409448818897638,
                    "duration": 1.4958333333333336
                },
                {
                    "name": "F#2",
                    "midi": 42,
                    "time": 9,
                    "velocity": 0.4094488188976378,
                    "duration": 0.49583333333333357
                },
                {
                    "name": "B2",
                    "midi": 47,
                    "time": 9.5,
                    "velocity": 0.48031496062992124,
                    "duration": 2.4958333333333336
                },
                {
                    "name": "G#2",
                    "midi": 44,
                    "time": 10,
                    "velocity": 0.33070866141732286,
                    "duration": 1.9958333333333336
                },
                {
                    "name": "D#3",
                    "midi": 51,
                    "time": 10,
                    "velocity": 0.31496062992125984,
                    "duration": 0.49583333333333357
                },
                {
                    "name": "G#3",
                    "midi": 56,
                    "time": 10.5,
                    "velocity": 0.4094488188976378,
                    "duration": 0.49583333333333357
                },
                {
                    "name": "E4",
                    "midi": 64,
                    "time": 11,
                    "velocity": 0.5748031496062992,
                    "duration": 0.49583333333333357
                },
                {
                    "name": "D#3",
                    "midi": 51,
                    "time": 11,
                    "velocity": 0.28346456692913385,
                    "duration": 0.49583333333333357
                },
                {
                    "name": "C#4",
                    "midi": 61,
                    "time": 11.5,
                    "velocity": 0.3858267716535433,
                    "duration": 0.49583333333333357
                },
                {
                    "name": "G#3",
                    "midi": 56,
                    "time": 11.5,
                    "velocity": 0.3543307086614173,
                    "duration": 0.49583333333333357
                },
                {
                    "name": "D#4",
                    "midi": 63,
                    "time": 12,
                    "velocity": 0.4566929133858268,
                    "duration": 0.49583333333333357
                },
                {
                    "name": "G#2",
                    "midi": 44,
                    "time": 12,
                    "velocity": 0.33858267716535434,
                    "duration": 7.995833333333334
                },
                {
                    "name": "B2",
                    "midi": 47,
                    "time": 12,
                    "velocity": 0.41732283464566927,
                    "duration": 7.995833333333334
                },
                {
                    "name": "D#3",
                    "midi": 51,
                    "time": 12,
                    "velocity": 0.2992125984251969,
                    "duration": 0.49583333333333357
                },
                {
                    "name": "B3",
                    "midi": 59,
                    "time": 12.5,
                    "velocity": 0.2755905511811024,
                    "duration": 0.49583333333333357
                },
                {
                    "name": "G#3",
                    "midi": 56,
                    "time": 12.5,
                    "velocity": 0.28346456692913385,
                    "duration": 0.49583333333333357
                },
                {
                    "name": "C#4",
                    "midi": 61,
                    "time": 13,
                    "velocity": 0.5275590551181102,
                    "duration": 0.49583333333333357
                },
                {
                    "name": "D#3",
                    "midi": 51,
                    "time": 13,
                    "velocity": 0.36220472440944884,
                    "duration": 0.49583333333333357
                },
                {
                    "name": "D#4",
                    "midi": 63,
                    "time": 13.5,
                    "velocity": 0.33858267716535434,
                    "duration": 0.49583333333333357
                },
                {
                    "name": "G#3",
                    "midi": 56,
                    "time": 13.5,
                    "velocity": 0.3543307086614173,
                    "duration": 0.49583333333333357
                },
                {
                    "name": "E4",
                    "midi": 64,
                    "time": 14,
                    "velocity": 0.5118110236220472,
                    "duration": 0.49583333333333357
                },
                {
                    "name": "D#3",
                    "midi": 51,
                    "time": 14,
                    "velocity": 0.2992125984251969,
                    "duration": 0.49583333333333357
                },
                {
                    "name": "C#4",
                    "midi": 61,
                    "time": 14.5,
                    "velocity": 0.29133858267716534,
                    "duration": 0.49583333333333357
                },
                {
                    "name": "G#3",
                    "midi": 56,
                    "time": 14.5,
                    "velocity": 0.33070866141732286,
                    "duration": 0.49583333333333357
                },
                {
                    "name": "D#4",
                    "midi": 63,
                    "time": 15,
                    "velocity": 0.3858267716535433,
                    "duration": 0.49583333333333357
                },
                {
                    "name": "D#3",
                    "midi": 51,
                    "time": 15,
                    "velocity": 0.3228346456692913,
                    "duration": 0.49583333333333357
                },
                {
                    "name": "B3",
                    "midi": 59,
                    "time": 15.5,
                    "velocity": 0.30708661417322836,
                    "duration": 0.49583333333333357
                },
                {
                    "name": "G#3",
                    "midi": 56,
                    "time": 15.5,
                    "velocity": 0.31496062992125984,
                    "duration": 0.49583333333333357
                },
                {
                    "name": "C#4",
                    "midi": 61,
                    "time": 16,
                    "velocity": 0.47244094488188976,
                    "duration": 0.49583333333333357
                },
                {
                    "name": "D#3",
                    "midi": 51,
                    "time": 16,
                    "velocity": 0.2992125984251969,
                    "duration": 0.49583333333333357
                },
                {
                    "name": "A#3",
                    "midi": 58,
                    "time": 16.5,
                    "velocity": 0.31496062992125984,
                    "duration": 0.49583333333333357
                },
                {
                    "name": "G#3",
                    "midi": 56,
                    "time": 16.5,
                    "velocity": 0.3543307086614173,
                    "duration": 0.49583333333333357
                },
                {
                    "name": "B3",
                    "midi": 59,
                    "time": 17,
                    "velocity": 0.4881889763779528,
                    "duration": 0.49583333333333357
                },
                {
                    "name": "D#3",
                    "midi": 51,
                    "time": 17,
                    "velocity": 0.3700787401574803,
                    "duration": 0.49583333333333357
                },
                {
                    "name": "C#4",
                    "midi": 61,
                    "time": 17.5,
                    "velocity": 0.4566929133858268,
                    "duration": 0.49583333333333357
                },
                {
                    "name": "G#3",
                    "midi": 56,
                    "time": 17.5,
                    "velocity": 0.2992125984251969,
                    "duration": 0.49583333333333357
                },
                {
                    "name": "D#4",
                    "midi": 63,
                    "time": 18,
                    "velocity": 0.4645669291338583,
                    "duration": 0.49583333333333357
                },
                {
                    "name": "D#3",
                    "midi": 51,
                    "time": 18,
                    "velocity": 0.31496062992125984,
                    "duration": 0.49583333333333357
                },
                {
                    "name": "B3",
                    "midi": 59,
                    "time": 18.5,
                    "velocity": 0.3779527559055118,
                    "duration": 0.49583333333333357
                },
                {
                    "name": "G#3",
                    "midi": 56,
                    "time": 18.5,
                    "velocity": 0.2755905511811024,
                    "duration": 0.49583333333333357
                },
                {
                    "name": "E4",
                    "midi": 64,
                    "time": 19,
                    "velocity": 0.41732283464566927,
                    "duration": 0.49583333333333357
                },
                {
                    "name": "G#4",
                    "midi": 68,
                    "time": 19,
                    "velocity": 0.6456692913385826,
                    "duration": 0.7458333333333336
                },
                {
                    "name": "D#3",
                    "midi": 51,
                    "time": 19,
                    "velocity": 0.2992125984251969,
                    "duration": 0.49583333333333357
                },
                {
                    "name": "C#4",
                    "midi": 61,
                    "time": 19.5,
                    "velocity": 0.33858267716535434,
                    "duration": 0.49583333333333357
                },
                {
                    "name": "G#3",
                    "midi": 56,
                    "time": 19.5,
                    "velocity": 0.2992125984251969,
                    "duration": 0.49583333333333357
                },
                {
                    "name": "D#5",
                    "midi": 75,
                    "time": 19.75,
                    "velocity": 0.5984251968503937,
                    "duration": 0.24583333333333357
                },
                {
                    "name": "B2",
                    "midi": 47,
                    "time": 20,
                    "velocity": 0.3937007874015748,
                    "duration": 7.995833333333334
                },
                {
                    "name": "G#2",
                    "midi": 44,
                    "time": 20,
                    "velocity": 0.4094488188976378,
                    "duration": 7.995833333333334
                },
                {
                    "name": "D#4",
                    "midi": 63,
                    "time": 20,
                    "velocity": 0.2992125984251969,
                    "duration": 0.49583333333333357
                },
                {
                    "name": "G#4",
                    "midi": 68,
                    "time": 20,
                    "velocity": 0.6929133858267716,
                    "duration": 2.9958333333333336
                },
                {
                    "name": "D#3",
                    "midi": 51,
                    "time": 20,
                    "velocity": 0.31496062992125984,
                    "duration": 0.49583333333333357
                },
                {
                    "name": "B3",
                    "midi": 59,
                    "time": 20.5,
                    "velocity": 0.25984251968503935,
                    "duration": 0.49583333333333357
                },
                {
                    "name": "G#3",
                    "midi": 56,
                    "time": 20.5,
                    "velocity": 0.29133858267716534,
                    "duration": 0.49583333333333357
                },
                {
                    "name": "C#4",
                    "midi": 61,
                    "time": 21,
                    "velocity": 0.31496062992125984,
                    "duration": 0.49583333333333357
                },
                {
                    "name": "D#3",
                    "midi": 51,
                    "time": 21,
                    "velocity": 0.2992125984251969,
                    "duration": 0.49583333333333357
                },
                {
                    "name": "D#4",
                    "midi": 63,
                    "time": 21.5,
                    "velocity": 0.14173228346456693,
                    "duration": 0.49583333333333357
                },
                {
                    "name": "G#3",
                    "midi": 56,
                    "time": 21.5,
                    "velocity": 0.2755905511811024,
                    "duration": 0.49583333333333357
                },
                {
                    "name": "E4",
                    "midi": 64,
                    "time": 22,
                    "velocity": 0.3779527559055118,
                    "duration": 0.49583333333333357
                },
                {
                    "name": "D#3",
                    "midi": 51,
                    "time": 22,
                    "velocity": 0.3228346456692913,
                    "duration": 0.49583333333333357
                },
                {
                    "name": "C#4",
                    "midi": 61,
                    "time": 22.5,
                    "velocity": 0.23622047244094488,
                    "duration": 0.49583333333333357
                },
                {
                    "name": "G#3",
                    "midi": 56,
                    "time": 22.5,
                    "velocity": 0.2992125984251969,
                    "duration": 0.49583333333333357
                },
                {
                    "name": "D#4",
                    "midi": 63,
                    "time": 23,
                    "velocity": 0.3779527559055118,
                    "duration": 0.49583333333333357
                },
                {
                    "name": "G4",
                    "midi": 67,
                    "time": 23,
                    "velocity": 0.5984251968503937,
                    "duration": 0.9958333333333336
                },
                {
                    "name": "D#3",
                    "midi": 51,
                    "time": 23,
                    "velocity": 0.3543307086614173,
                    "duration": 0.49583333333333357
                },
                {
                    "name": "B3",
                    "midi": 59,
                    "time": 23.5,
                    "velocity": 0.3700787401574803,
                    "duration": 0.49583333333333357
                },
                {
                    "name": "G#3",
                    "midi": 56,
                    "time": 23.5,
                    "velocity": 0.25984251968503935,
                    "duration": 0.49583333333333357
                },
                {
                    "name": "C#4",
                    "midi": 61,
                    "time": 24,
                    "velocity": 0.4015748031496063,
                    "duration": 0.49583333333333357
                },
                {
                    "name": "G#4",
                    "midi": 68,
                    "time": 24,
                    "velocity": 0.5590551181102362,
                    "duration": 2.9958333333333336
                },
                {
                    "name": "D#3",
                    "midi": 51,
                    "time": 24,
                    "velocity": 0.25196850393700787,
                    "duration": 0.49583333333333357
                },
                {
                    "name": "A#3",
                    "midi": 58,
                    "time": 24.5,
                    "velocity": 0.33070866141732286,
                    "duration": 0.49583333333333357
                },
                {
                    "name": "G#3",
                    "midi": 56,
                    "time": 24.5,
                    "velocity": 0.25196850393700787,
                    "duration": 0.49583333333333357
                },
                {
                    "name": "B3",
                    "midi": 59,
                    "time": 25,
                    "velocity": 0.48031496062992124,
                    "duration": 0.49583333333333357
                },
                {
                    "name": "D#3",
                    "midi": 51,
                    "time": 25,
                    "velocity": 0.28346456692913385,
                    "duration": 0.49583333333333357
                },
                {
                    "name": "C#4",
                    "midi": 61,
                    "time": 25.5,
                    "velocity": 0.2204724409448819,
                    "duration": 0.49583333333333357
                },
                {
                    "name": "G#3",
                    "midi": 56,
                    "time": 25.5,
                    "velocity": 0.31496062992125984,
                    "duration": 0.49583333333333357
                },
                {
                    "name": "D#4",
                    "midi": 63,
                    "time": 26,
                    "velocity": 0.4015748031496063,
                    "duration": 0.49583333333333357
                },
                {
                    "name": "D#3",
                    "midi": 51,
                    "time": 26,
                    "velocity": 0.33070866141732286,
                    "duration": 0.49583333333333357
                },
                {
                    "name": "E4",
                    "midi": 64,
                    "time": 26.5,
                    "velocity": 0.15748031496062992,
                    "duration": 0.49583333333333357
                },
                {
                    "name": "G#3",
                    "midi": 56,
                    "time": 26.5,
                    "velocity": 0.2125984251968504,
                    "duration": 0.49583333333333357
                },
                {
                    "name": "F#4",
                    "midi": 66,
                    "time": 27,
                    "velocity": 0.4015748031496063,
                    "duration": 0.49583333333333357
                },
                {
                    "name": "A#4",
                    "midi": 70,
                    "time": 27,
                    "velocity": 0.6535433070866141,
                    "duration": 0.9958333333333336
                },
                {
                    "name": "D#3",
                    "midi": 51,
                    "time": 27,
                    "velocity": 0.25984251968503935,
                    "duration": 0.49583333333333357
                },
                {
                    "name": "D#4",
                    "midi": 63,
                    "time": 27.5,
                    "velocity": 0.2204724409448819,
                    "duration": 0.49583333333333357
                },
                {
                    "name": "G#3",
                    "midi": 56,
                    "time": 27.5,
                    "velocity": 0.2755905511811024,
                    "duration": 0.49583333333333357
                },
                {
                    "name": "B2",
                    "midi": 47,
                    "time": 28,
                    "velocity": 0.41732283464566927,
                    "duration": 7.99583333333333
                },
                {
                    "name": "G2",
                    "midi": 43,
                    "time": 28,
                    "velocity": 0.4330708661417323,
                    "duration": 7.99583333333333
                },
                {
                    "name": "E4",
                    "midi": 64,
                    "time": 28,
                    "velocity": 0.41732283464566927,
                    "duration": 0.49583333333333357
                },
                {
                    "name": "B4",
                    "midi": 71,
                    "time": 28,
                    "velocity": 0.6614173228346457,
                    "duration": 1.4958333333333336
                },
                {
                    "name": "E3",
                    "midi": 52,
                    "time": 28,
                    "velocity": 0.48031496062992124,
                    "duration": 0.49583333333333357
                },
                {
                    "name": "C#4",
                    "midi": 61,
                    "time": 28.5,
                    "velocity": 0.2992125984251969,
                    "duration": 0.49583333333333357
                },
                {
                    "name": "G3",
                    "midi": 55,
                    "time": 28.5,
                    "velocity": 0.33070866141732286,
                    "duration": 0.49583333333333357
                },
                {
                    "name": "D#4",
                    "midi": 63,
                    "time": 29,
                    "velocity": 0.31496062992125984,
                    "duration": 0.49583333333333357
                },
                {
                    "name": "E3",
                    "midi": 52,
                    "time": 29,
                    "velocity": 0.3543307086614173,
                    "duration": 0.49583333333333357
                },
                {
                    "name": "E4",
                    "midi": 64,
                    "time": 29.5,
                    "velocity": 0.28346456692913385,
                    "duration": 0.49583333333333357
                },
                {
                    "name": "A#4",
                    "midi": 70,
                    "time": 29.5,
                    "velocity": 0.5984251968503937,
                    "duration": 0.49583333333333357
                },
                {
                    "name": "G3",
                    "midi": 55,
                    "time": 29.5,
                    "velocity": 0.29133858267716534,
                    "duration": 0.49583333333333357
                },
                {
                    "name": "F#4",
                    "midi": 66,
                    "time": 30,
                    "velocity": 0.4094488188976378,
                    "duration": 0.49583333333333357
                },
                {
                    "name": "B4",
                    "midi": 71,
                    "time": 30,
                    "velocity": 0.6535433070866141,
                    "duration": 0.9958333333333336
                },
                {
                    "name": "E3",
                    "midi": 52,
                    "time": 30,
                    "velocity": 0.33858267716535434,
                    "duration": 0.49583333333333357
                },
                {
                    "name": "D#4",
                    "midi": 63,
                    "time": 30.5,
                    "velocity": 0.29133858267716534,
                    "duration": 0.49583333333333357
                },
                {
                    "name": "G3",
                    "midi": 55,
                    "time": 30.5,
                    "velocity": 0.31496062992125984,
                    "duration": 0.49583333333333357
                },
                {
                    "name": "E4",
                    "midi": 64,
                    "time": 31,
                    "velocity": 0.44881889763779526,
                    "duration": 0.49583333333333357
                },
                {
                    "name": "C#5",
                    "midi": 73,
                    "time": 31,
                    "velocity": 0.6456692913385826,
                    "duration": 0.9958333333333336
                },
                {
                    "name": "E3",
                    "midi": 52,
                    "time": 31,
                    "velocity": 0.2677165354330709,
                    "duration": 0.49583333333333357
                },
                {
                    "name": "C#4",
                    "midi": 61,
                    "time": 31.5,
                    "velocity": 0.2440944881889764,
                    "duration": 0.49583333333333357
                },
                {
                    "name": "G3",
                    "midi": 55,
                    "time": 31.5,
                    "velocity": 0.25984251968503935,
                    "duration": 0.49583333333333357
                },
                {
                    "name": "D#4",
                    "midi": 63,
                    "time": 32,
                    "velocity": 0.36220472440944884,
                    "duration": 0.49583333333333
                },
                {
                    "name": "B4",
                    "midi": 71,
                    "time": 32,
                    "velocity": 0.6377952755905512,
                    "duration": 0.99583333333333
                },
                {
                    "name": "E3",
                    "midi": 52,
                    "time": 32,
                    "velocity": 0.4330708661417323,
                    "duration": 0.49583333333333
                },
                {
                    "name": "B3",
                    "midi": 59,
                    "time": 32.5,
                    "velocity": 0.3543307086614173,
                    "duration": 0.49583333333333
                },
                {
                    "name": "G3",
                    "midi": 55,
                    "time": 32.5,
                    "velocity": 0.2992125984251969,
                    "duration": 0.49583333333333
                },
                {
                    "name": "C#4",
                    "midi": 61,
                    "time": 33,
                    "velocity": 0.3779527559055118,
                    "duration": 0.49583333333333
                },
                {
                    "name": "G4",
                    "midi": 67,
                    "time": 33,
                    "velocity": 0.5669291338582677,
                    "duration": 0.99583333333333
                },
                {
                    "name": "E3",
                    "midi": 52,
                    "time": 33,
                    "velocity": 0.3543307086614173,
                    "duration": 0.49583333333333
                },
                {
                    "name": "D#4",
                    "midi": 63,
                    "time": 33.5,
                    "velocity": 0.28346456692913385,
                    "duration": 0.49583333333333
                },
                {
                    "name": "G3",
                    "midi": 55,
                    "time": 33.5,
                    "velocity": 0.2755905511811024,
                    "duration": 0.49583333333333
                },
                {
                    "name": "E4",
                    "midi": 64,
                    "time": 34,
                    "velocity": 0.4015748031496063,
                    "duration": 0.49583333333333
                },
                {
                    "name": "E3",
                    "midi": 52,
                    "time": 34,
                    "velocity": 0.33858267716535434,
                    "duration": 0.49583333333333
                },
                {
                    "name": "C#4",
                    "midi": 61,
                    "time": 34.5,
                    "velocity": 0.29133858267716534,
                    "duration": 0.49583333333333
                },
                {
                    "name": "G3",
                    "midi": 55,
                    "time": 34.5,
                    "velocity": 0.2992125984251969,
                    "duration": 0.49583333333333
                },
                {
                    "name": "A4",
                    "midi": 69,
                    "time": 35,
                    "velocity": 0.6377952755905512,
                    "duration": 0.99583333333333
                },
                {
                    "name": "F#4",
                    "midi": 66,
                    "time": 35,
                    "velocity": 0.4409448818897638,
                    "duration": 0.49583333333333
                },
                {
                    "name": "E3",
                    "midi": 52,
                    "time": 35,
                    "velocity": 0.28346456692913385,
                    "duration": 0.49583333333333
                },
                {
                    "name": "D4",
                    "midi": 62,
                    "time": 35.5,
                    "velocity": 0.4330708661417323,
                    "duration": 0.49583333333333
                },
                {
                    "name": "G3",
                    "midi": 55,
                    "time": 35.5,
                    "velocity": 0.23622047244094488,
                    "duration": 0.49583333333333
                },
                {
                    "name": "B2",
                    "midi": 47,
                    "time": 36,
                    "velocity": 0.41732283464566927,
                    "duration": 7.99583333333333
                },
                {
                    "name": "G2",
                    "midi": 43,
                    "time": 36,
                    "velocity": 0.41732283464566927,
                    "duration": 7.99583333333333
                },
                {
                    "name": "B4",
                    "midi": 71,
                    "time": 36,
                    "velocity": 0.6220472440944882,
                    "duration": 0.99583333333333
                },
                {
                    "name": "E4",
                    "midi": 64,
                    "time": 36,
                    "velocity": 0.4409448818897638,
                    "duration": 0.49583333333333
                },
                {
                    "name": "E3",
                    "midi": 52,
                    "time": 36,
                    "velocity": 0.3779527559055118,
                    "duration": 0.49583333333333
                },
                {
                    "name": "C#4",
                    "midi": 61,
                    "time": 36.5,
                    "velocity": 0.2755905511811024,
                    "duration": 0.49583333333333
                },
                {
                    "name": "G3",
                    "midi": 55,
                    "time": 36.5,
                    "velocity": 0.2755905511811024,
                    "duration": 0.49583333333333
                },
                {
                    "name": "D4",
                    "midi": 62,
                    "time": 36.75,
                    "velocity": 0.4409448818897638,
                    "duration": 0.74583333333333
                },
                {
                    "name": "B5",
                    "midi": 83,
                    "time": 37,
                    "velocity": 0.7401574803149606,
                    "duration": 0.99583333333333
                },
                {
                    "name": "E3",
                    "midi": 52,
                    "time": 37,
                    "velocity": 0.41732283464566927,
                    "duration": 0.49583333333333
                },
                {
                    "name": "E4",
                    "midi": 64,
                    "time": 37.5,
                    "velocity": 0.3937007874015748,
                    "duration": 0.49583333333333
                },
                {
                    "name": "G3",
                    "midi": 55,
                    "time": 37.5,
                    "velocity": 0.1889763779527559,
                    "duration": 0.49583333333333
                },
                {
                    "name": "F4",
                    "midi": 65,
                    "time": 38,
                    "velocity": 0.25196850393700787,
                    "duration": 0.49583333333333
                },
                {
                    "name": "F#5",
                    "midi": 78,
                    "time": 38,
                    "velocity": 0.6535433070866141,
                    "duration": 0.49583333333333
                },
                {
                    "name": "E3",
                    "midi": 52,
                    "time": 38,
                    "velocity": 0.4094488188976378,
                    "duration": 0.49583333333333
                },
                {
                    "name": "D4",
                    "midi": 62,
                    "time": 38.5,
                    "velocity": 0.3543307086614173,
                    "duration": 0.49583333333333
                },
                {
                    "name": "E5",
                    "midi": 76,
                    "time": 38.5,
                    "velocity": 0.6220472440944882,
                    "duration": 0.49583333333333
                },
                {
                    "name": "G3",
                    "midi": 55,
                    "time": 38.5,
                    "velocity": 0.3228346456692913,
                    "duration": 0.49583333333333
                },
                {
                    "name": "E4",
                    "midi": 64,
                    "time": 39,
                    "velocity": 0.2047244094488189,
                    "duration": 0.49583333333333
                },
                {
                    "name": "D5",
                    "midi": 74,
                    "time": 39,
                    "velocity": 0.6141732283464567,
                    "duration": 0.49583333333333
                },
                {
                    "name": "E3",
                    "midi": 52,
                    "time": 39,
                    "velocity": 0.3937007874015748,
                    "duration": 0.49583333333333
                },
                {
                    "name": "C#4",
                    "midi": 61,
                    "time": 39.5,
                    "velocity": 0.31496062992125984,
                    "duration": 0.49583333333333
                },
                {
                    "name": "C#5",
                    "midi": 73,
                    "time": 39.5,
                    "velocity": 0.5748031496062992,
                    "duration": 0.49583333333333
                },
                {
                    "name": "G3",
                    "midi": 55,
                    "time": 39.5,
                    "velocity": 0.25196850393700787,
                    "duration": 0.49583333333333
                },
                {
                    "name": "D4",
                    "midi": 62,
                    "time": 40,
                    "velocity": 0.33858267716535434,
                    "duration": 0.49583333333333
                },
                {
                    "name": "B4",
                    "midi": 71,
                    "time": 40,
                    "velocity": 0.6220472440944882,
                    "duration": 0.99583333333333
                },
                {
                    "name": "E3",
                    "midi": 52,
                    "time": 40,
                    "velocity": 0.3779527559055118,
                    "duration": 0.49583333333333
                },
                {
                    "name": "B3",
                    "midi": 59,
                    "time": 40.5,
                    "velocity": 0.36220472440944884,
                    "duration": 0.49583333333333
                },
                {
                    "name": "G3",
                    "midi": 55,
                    "time": 40.5,
                    "velocity": 0.25984251968503935,
                    "duration": 0.49583333333333
                },
                {
                    "name": "C#4",
                    "midi": 61,
                    "time": 41,
                    "velocity": 0.29133858267716534,
                    "duration": 0.49583333333333
                },
                {
                    "name": "G4",
                    "midi": 67,
                    "time": 41,
                    "velocity": 0.5669291338582677,
                    "duration": 0.99583333333333
                },
                {
                    "name": "E3",
                    "midi": 52,
                    "time": 41,
                    "velocity": 0.3700787401574803,
                    "duration": 0.49583333333333
                },
                {
                    "name": "D4",
                    "midi": 62,
                    "time": 41.5,
                    "velocity": 0.3543307086614173,
                    "duration": 0.49583333333333
                },
                {
                    "name": "G3",
                    "midi": 55,
                    "time": 41.5,
                    "velocity": 0.25196850393700787,
                    "duration": 0.49583333333333
                },
                {
                    "name": "E4",
                    "midi": 64,
                    "time": 42,
                    "velocity": 0.3779527559055118,
                    "duration": 0.49583333333333
                },
                {
                    "name": "E3",
                    "midi": 52,
                    "time": 42,
                    "velocity": 0.33070866141732286,
                    "duration": 0.49583333333333
                },
                {
                    "name": "F#4",
                    "midi": 66,
                    "time": 42.5,
                    "velocity": 0.4015748031496063,
                    "duration": 0.49583333333333
                },
                {
                    "name": "G3",
                    "midi": 55,
                    "time": 42.5,
                    "velocity": 0.25196850393700787,
                    "duration": 0.49583333333333
                },
                {
                    "name": "G4",
                    "midi": 67,
                    "time": 43,
                    "velocity": 0.3779527559055118,
                    "duration": 0.49583333333333
                },
                {
                    "name": "C5",
                    "midi": 72,
                    "time": 43,
                    "velocity": 0.6220472440944882,
                    "duration": 0.99583333333333
                },
                {
                    "name": "E3",
                    "midi": 52,
                    "time": 43,
                    "velocity": 0.4330708661417323,
                    "duration": 0.49583333333333
                },
                {
                    "name": "E4",
                    "midi": 64,
                    "time": 43.5,
                    "velocity": 0.44881889763779526,
                    "duration": 0.49583333333333
                },
                {
                    "name": "G3",
                    "midi": 55,
                    "time": 43.5,
                    "velocity": 0.25196850393700787,
                    "duration": 0.49583333333333
                },
                {
                    "name": "F4",
                    "midi": 65,
                    "time": 44,
                    "velocity": 0.3543307086614173,
                    "duration": 0.49583333333333
                },
                {
                    "name": "A2",
                    "midi": 45,
                    "time": 44,
                    "velocity": 0.4094488188976378,
                    "duration": 3.99583333333333
                },
                {
                    "name": "F2",
                    "midi": 41,
                    "time": 44,
                    "velocity": 0.3779527559055118,
                    "duration": 3.99583333333333
                },
                {
                    "name": "D5",
                    "midi": 74,
                    "time": 44,
                    "velocity": 0.6771653543307087,
                    "duration": 1.49583333333333
                },
                {
                    "name": "D3",
                    "midi": 50,
                    "time": 44,
                    "velocity": 0.4015748031496063,
                    "duration": 0.49583333333333
                },
                {
                    "name": "D4",
                    "midi": 62,
                    "time": 44.5,
                    "velocity": 0.36220472440944884,
                    "duration": 0.49583333333333
                },
                {
                    "name": "F3",
                    "midi": 53,
                    "time": 44.5,
                    "velocity": 0.4094488188976378,
                    "duration": 0.49583333333333
                },
                {
                    "name": "E4",
                    "midi": 64,
                    "time": 45,
                    "velocity": 0.33070866141732286,
                    "duration": 0.49583333333333
                },
                {
                    "name": "D3",
                    "midi": 50,
                    "time": 45,
                    "velocity": 0.44881889763779526,
                    "duration": 0.49583333333333
                },
                {
                    "name": "F4",
                    "midi": 65,
                    "time": 45.5,
                    "velocity": 0.36220472440944884,
                    "duration": 0.49583333333333
                },
                {
                    "name": "B4",
                    "midi": 71,
                    "time": 45.5,
                    "velocity": 0.5905511811023622,
                    "duration": 0.49583333333333
                },
                {
                    "name": "A3",
                    "midi": 57,
                    "time": 45.5,
                    "velocity": 0.41732283464566927,
                    "duration": 0.49583333333333
                },
                {
                    "name": "G4",
                    "midi": 67,
                    "time": 46,
                    "velocity": 0.25196850393700787,
                    "duration": 0.49583333333333
                },
                {
                    "name": "C5",
                    "midi": 72,
                    "time": 46,
                    "velocity": 0.6062992125984252,
                    "duration": 0.49583333333333
                },
                {
                    "name": "D3",
                    "midi": 50,
                    "time": 46,
                    "velocity": 0.25196850393700787,
                    "duration": 0.49583333333333
                },
                {
                    "name": "E4",
                    "midi": 64,
                    "time": 46.5,
                    "velocity": 0.33070866141732286,
                    "duration": 0.49583333333333
                },
                {
                    "name": "C5",
                    "midi": 72,
                    "time": 46.5,
                    "velocity": 0.6220472440944882,
                    "duration": 0.49583333333333
                },
                {
                    "name": "F3",
                    "midi": 53,
                    "time": 46.5,
                    "velocity": 0.3779527559055118,
                    "duration": 0.49583333333333
                },
                {
                    "name": "F4",
                    "midi": 65,
                    "time": 47,
                    "velocity": 0.36220472440944884,
                    "duration": 0.49583333333333
                },
                {
                    "name": "D5",
                    "midi": 74,
                    "time": 47,
                    "velocity": 0.6614173228346457,
                    "duration": 0.49583333333333
                },
                {
                    "name": "D3",
                    "midi": 50,
                    "time": 47,
                    "velocity": 0.3543307086614173,
                    "duration": 0.49583333333333
                },
                {
                    "name": "D4",
                    "midi": 62,
                    "time": 47.5,
                    "velocity": 0.33070866141732286,
                    "duration": 0.49583333333333
                },
                {
                    "name": "D5",
                    "midi": 74,
                    "time": 47.5,
                    "velocity": 0.6456692913385826,
                    "duration": 0.49583333333333
                },
                {
                    "name": "A3",
                    "midi": 57,
                    "time": 47.5,
                    "velocity": 0.33858267716535434,
                    "duration": 0.49583333333333
                },
                {
                    "name": "E4",
                    "midi": 64,
                    "time": 48,
                    "velocity": 0.3543307086614173,
                    "duration": 0.49583333333333
                },
                {
                    "name": "A2",
                    "midi": 45,
                    "time": 48,
                    "velocity": 0.3779527559055118,
                    "duration": 3.99583333333333
                },
                {
                    "name": "F2",
                    "midi": 41,
                    "time": 48,
                    "velocity": 0.4094488188976378,
                    "duration": 3.99583333333333
                },
                {
                    "name": "E5",
                    "midi": 76,
                    "time": 48,
                    "velocity": 0.5984251968503937,
                    "duration": 0.49583333333333
                },
                {
                    "name": "D3",
                    "midi": 50,
                    "time": 48,
                    "velocity": 0.3543307086614173,
                    "duration": 0.49583333333333
                },
                {
                    "name": "C4",
                    "midi": 60,
                    "time": 48.5,
                    "velocity": 0.3543307086614173,
                    "duration": 0.49583333333333
                },
                {
                    "name": "A4",
                    "midi": 69,
                    "time": 48.5,
                    "velocity": 0.6220472440944882,
                    "duration": 0.49583333333333
                },
                {
                    "name": "F3",
                    "midi": 53,
                    "time": 48.5,
                    "velocity": 0.33070866141732286,
                    "duration": 0.49583333333333
                },
                {
                    "name": "D4",
                    "midi": 62,
                    "time": 49,
                    "velocity": 0.3700787401574803,
                    "duration": 0.49583333333333
                },
                {
                    "name": "D5",
                    "midi": 74,
                    "time": 49,
                    "velocity": 0.6377952755905512,
                    "duration": 0.99583333333333
                },
                {
                    "name": "D3",
                    "midi": 50,
                    "time": 49,
                    "velocity": 0.28346456692913385,
                    "duration": 0.49583333333333
                },
                {
                    "name": "E4",
                    "midi": 64,
                    "time": 49.5,
                    "velocity": 0.25984251968503935,
                    "duration": 0.49583333333333
                },
                {
                    "name": "A3",
                    "midi": 57,
                    "time": 49.5,
                    "velocity": 0.3700787401574803,
                    "duration": 0.49583333333333
                },
                {
                    "name": "F4",
                    "midi": 65,
                    "time": 50,
                    "velocity": 0.36220472440944884,
                    "duration": 0.49583333333333
                },
                {
                    "name": "D3",
                    "midi": 50,
                    "time": 50,
                    "velocity": 0.3228346456692913,
                    "duration": 0.49583333333333
                },
                {
                    "name": "G4",
                    "midi": 67,
                    "time": 50.5,
                    "velocity": 0.33070866141732286,
                    "duration": 0.49583333333333
                },
                {
                    "name": "F3",
                    "midi": 53,
                    "time": 50.5,
                    "velocity": 0.3779527559055118,
                    "duration": 0.49583333333333
                },
                {
                    "name": "A4",
                    "midi": 69,
                    "time": 51,
                    "velocity": 0.3543307086614173,
                    "duration": 0.49583333333333
                },
                {
                    "name": "C5",
                    "midi": 72,
                    "time": 51,
                    "velocity": 0.6220472440944882,
                    "duration": 0.99583333333333
                },
                {
                    "name": "D3",
                    "midi": 50,
                    "time": 51,
                    "velocity": 0.4094488188976378,
                    "duration": 0.49583333333333
                },
                {
                    "name": "F4",
                    "midi": 65,
                    "time": 51.5,
                    "velocity": 0.36220472440944884,
                    "duration": 0.49583333333333
                },
                {
                    "name": "A3",
                    "midi": 57,
                    "time": 51.5,
                    "velocity": 0.4094488188976378,
                    "duration": 0.49583333333333
                },
                {
                    "name": "D3",
                    "midi": 50,
                    "time": 52,
                    "velocity": 0.4094488188976378,
                    "duration": 0.49583333333333
                },
                {
                    "name": "G4",
                    "midi": 67,
                    "time": 52,
                    "velocity": 0.4330708661417323,
                    "duration": 0.49583333333333
                },
                {
                    "name": "E2",
                    "midi": 40,
                    "time": 52,
                    "velocity": 0.4881889763779528,
                    "duration": 4
                },
                {
                    "name": "A#2",
                    "midi": 46,
                    "time": 52,
                    "velocity": 0.4094488188976378,
                    "duration": 4
                },
                {
                    "name": "D5",
                    "midi": 74,
                    "time": 52,
                    "velocity": 0.6929133858267716,
                    "duration": 1.49583333333333
                },
                {
                    "name": "G3",
                    "midi": 55,
                    "time": 52.5,
                    "velocity": 0.33070866141732286,
                    "duration": 0.49583333333333
                },
                {
                    "name": "E4",
                    "midi": 64,
                    "time": 52.5,
                    "velocity": 0.3543307086614173,
                    "duration": 0.49583333333333
                },
                {
                    "name": "D3",
                    "midi": 50,
                    "time": 53,
                    "velocity": 0.4409448818897638,
                    "duration": 0.49583333333333
                },
                {
                    "name": "F4",
                    "midi": 65,
                    "time": 53,
                    "velocity": 0.4330708661417323,
                    "duration": 0.49583333333333
                },
                {
                    "name": "A#3",
                    "midi": 58,
                    "time": 53.5,
                    "velocity": 0.3700787401574803,
                    "duration": 0.49583333333333
                },
                {
                    "name": "G4",
                    "midi": 67,
                    "time": 53.5,
                    "velocity": 0.4094488188976378,
                    "duration": 0.49583333333333
                },
                {
                    "name": "C5",
                    "midi": 72,
                    "time": 53.5,
                    "velocity": 0.6141732283464567,
                    "duration": 0.49583333333333
                },
                {
                    "name": "D3",
                    "midi": 50,
                    "time": 54,
                    "velocity": 0.4566929133858268,
                    "duration": 0.49583333333333
                },
                {
                    "name": "A4",
                    "midi": 69,
                    "time": 54,
                    "velocity": 0.5196850393700787,
                    "duration": 0.49583333333333
                },
                {
                    "name": "D5",
                    "midi": 74,
                    "time": 54,
                    "velocity": 0.7401574803149606,
                    "duration": 0.49583333333333
                },
                {
                    "name": "G3",
                    "midi": 55,
                    "time": 54.5,
                    "velocity": 0.33858267716535434,
                    "duration": 0.49583333333333
                },
                {
                    "name": "F4",
                    "midi": 65,
                    "time": 54.5,
                    "velocity": 0.3543307086614173,
                    "duration": 0.49583333333333
                },
                {
                    "name": "D5",
                    "midi": 74,
                    "time": 54.5,
                    "velocity": 0.6456692913385826,
                    "duration": 0.49583333333333
                },
                {
                    "name": "D3",
                    "midi": 50,
                    "time": 55,
                    "velocity": 0.2755905511811024,
                    "duration": 0.49583333333333
                },
                {
                    "name": "G4",
                    "midi": 67,
                    "time": 55,
                    "velocity": 0.4566929133858268,
                    "duration": 0.49583333333333
                },
                {
                    "name": "E5",
                    "midi": 76,
                    "time": 55,
                    "velocity": 0.6456692913385826,
                    "duration": 0.49583333333333
                },
                {
                    "name": "A#3",
                    "midi": 58,
                    "time": 55.5,
                    "velocity": 0.31496062992125984,
                    "duration": 0.49583333333333
                },
                {
                    "name": "E4",
                    "midi": 64,
                    "time": 55.5,
                    "velocity": 0.4015748031496063,
                    "duration": 0.49583333333333
                },
                {
                    "name": "E5",
                    "midi": 76,
                    "time": 55.5,
                    "velocity": 0.6377952755905512,
                    "duration": 0.49583333333333
                },
                {
                    "name": "A#2",
                    "midi": 46,
                    "time": 56,
                    "velocity": 0.2992125984251969,
                    "duration": 2.99583333333333
                },
                {
                    "name": "E2",
                    "midi": 40,
                    "time": 56,
                    "velocity": 0.4015748031496063,
                    "duration": 2.99583333333333
                },
                {
                    "name": "D3",
                    "midi": 50,
                    "time": 56,
                    "velocity": 0.4409448818897638,
                    "duration": 0.49583333333333
                },
                {
                    "name": "F4",
                    "midi": 65,
                    "time": 56,
                    "velocity": 0.31496062992125984,
                    "duration": 0.49583333333333
                },
                {
                    "name": "F5",
                    "midi": 77,
                    "time": 56,
                    "velocity": 0.6535433070866141,
                    "duration": 0.49583333333333
                },
                {
                    "name": "G3",
                    "midi": 55,
                    "time": 56.5,
                    "velocity": 0.36220472440944884,
                    "duration": 0.49583333333333
                },
                {
                    "name": "D4",
                    "midi": 62,
                    "time": 56.5,
                    "velocity": 0.31496062992125984,
                    "duration": 0.49583333333333
                },
                {
                    "name": "A#4",
                    "midi": 70,
                    "time": 56.5,
                    "velocity": 0.6220472440944882,
                    "duration": 0.49583333333333
                },
                {
                    "name": "D3",
                    "midi": 50,
                    "time": 57,
                    "velocity": 0.3700787401574803,
                    "duration": 0.49583333333333
                },
                {
                    "name": "E4",
                    "midi": 64,
                    "time": 57,
                    "velocity": 0.25984251968503935,
                    "duration": 0.49583333333333
                },
                {
                    "name": "E5",
                    "midi": 76,
                    "time": 57,
                    "velocity": 0.6062992125984252,
                    "duration": 0.99583333333333
                },
                {
                    "name": "A#3",
                    "midi": 58,
                    "time": 57.5,
                    "velocity": 0.4330708661417323,
                    "duration": 0.49583333333333
                },
                {
                    "name": "F4",
                    "midi": 65,
                    "time": 57.5,
                    "velocity": 0.23622047244094488,
                    "duration": 0.49583333333333
                },
                {
                    "name": "D3",
                    "midi": 50,
                    "time": 58,
                    "velocity": 0.36220472440944884,
                    "duration": 0.49583333333333
                },
                {
                    "name": "G4",
                    "midi": 67,
                    "time": 58,
                    "velocity": 0.33070866141732286,
                    "duration": 0.49583333333333
                },
                {
                    "name": "G3",
                    "midi": 55,
                    "time": 58.5,
                    "velocity": 0.33070866141732286,
                    "duration": 0.49583333333333
                },
                {
                    "name": "A4",
                    "midi": 69,
                    "time": 58.5,
                    "velocity": 0.31496062992125984,
                    "duration": 0.49583333333333
                },
                {
                    "name": "G3",
                    "midi": 55,
                    "time": 59,
                    "velocity": 0.5275590551181102,
                    "duration": 0.49583333333333
                },
                {
                    "name": "B2",
                    "midi": 47,
                    "time": 59,
                    "velocity": 0.4881889763779528,
                    "duration": 0.49583333333333
                },
                {
                    "name": "B4",
                    "midi": 71,
                    "time": 59,
                    "velocity": 0.5511811023622047,
                    "duration": 0.49583333333333
                },
                {
                    "name": "F#3",
                    "midi": 54,
                    "time": 59.5,
                    "velocity": 0.5196850393700787,
                    "duration": 0.49583333333333
                },
                {
                    "name": "A#2",
                    "midi": 46,
                    "time": 59.5,
                    "velocity": 0.4330708661417323,
                    "duration": 0.49583333333333
                },
                {
                    "name": "G#4",
                    "midi": 68,
                    "time": 59.5,
                    "velocity": 0.4094488188976378,
                    "duration": 0.49583333333333
                },
                {
                    "name": "D#2",
                    "midi": 39,
                    "time": 60,
                    "velocity": 0.5669291338582677,
                    "duration": 0.49583333333333
                },
                {
                    "name": "F3",
                    "midi": 53,
                    "time": 60,
                    "velocity": 0.5511811023622047,
                    "duration": 0.49583333333333
                },
                {
                    "name": "A2",
                    "midi": 45,
                    "time": 60,
                    "velocity": 0.5748031496062992,
                    "duration": 0.49583333333333
                },
                {
                    "name": "A#4",
                    "midi": 70,
                    "time": 60,
                    "velocity": 0.6141732283464567,
                    "duration": 0.49583333333333
                },
                {
                    "name": "E3",
                    "midi": 52,
                    "time": 60.5,
                    "velocity": 0.49606299212598426,
                    "duration": 0.49583333333333
                },
                {
                    "name": "G#2",
                    "midi": 44,
                    "time": 60.5,
                    "velocity": 0.3543307086614173,
                    "duration": 0.49583333333333
                },
                {
                    "name": "G4",
                    "midi": 67,
                    "time": 60.5,
                    "velocity": 0.4645669291338583,
                    "duration": 0.49583333333333
                },
                {
                    "name": "D#5",
                    "midi": 75,
                    "time": 61,
                    "velocity": 0.6377952755905512,
                    "duration": 0.87083333333333
                },
                {
                    "name": "G#4",
                    "midi": 68,
                    "time": 61,
                    "velocity": 0.5748031496062992,
                    "duration": 0.49583333333333
                },
                {
                    "name": "B3",
                    "midi": 59,
                    "time": 61,
                    "velocity": 0.4409448818897638,
                    "duration": 0.49583333333333
                },
                {
                    "name": "D#3",
                    "midi": 51,
                    "time": 61,
                    "velocity": 0.47244094488188976,
                    "duration": 0.49583333333333
                },
                {
                    "name": "G#3",
                    "midi": 56,
                    "time": 61.5,
                    "velocity": 0.3779527559055118,
                    "duration": 0.49583333333333
                },
                {
                    "name": "A#4",
                    "midi": 70,
                    "time": 61.5,
                    "velocity": 0.5275590551181102,
                    "duration": 0.49583333333333
                },
                {
                    "name": "D#4",
                    "midi": 63,
                    "time": 61.5,
                    "velocity": 0.3858267716535433,
                    "duration": 0.49583333333333
                },
                {
                    "name": "D#5",
                    "midi": 75,
                    "time": 61.875,
                    "velocity": 0.6771653543307087,
                    "duration": 0.12083333333333002
                },
                {
                    "name": "G#5",
                    "midi": 80,
                    "time": 61.875,
                    "velocity": 0.6929133858267716,
                    "duration": 0.12083333333333002
                },
                {
                    "name": "D#5",
                    "midi": 75,
                    "time": 62,
                    "velocity": 0.7401574803149606,
                    "duration": 0.99583333333333
                },
                {
                    "name": "B4",
                    "midi": 71,
                    "time": 62,
                    "velocity": 0.5118110236220472,
                    "duration": 0.49583333333333
                },
                {
                    "name": "B3",
                    "midi": 59,
                    "time": 62,
                    "velocity": 0.33070866141732286,
                    "duration": 0.49583333333333
                },
                {
                    "name": "D#3",
                    "midi": 51,
                    "time": 62,
                    "velocity": 0.4015748031496063,
                    "duration": 0.49583333333333
                },
                {
                    "name": "G#4",
                    "midi": 68,
                    "time": 62.5,
                    "velocity": 0.5748031496062992,
                    "duration": 0.49583333333333
                },
                {
                    "name": "D#4",
                    "midi": 63,
                    "time": 62.5,
                    "velocity": 0.3700787401574803,
                    "duration": 0.49583333333333
                },
                {
                    "name": "G#3",
                    "midi": 56,
                    "time": 62.5,
                    "velocity": 0.4409448818897638,
                    "duration": 0.49583333333333
                },
                {
                    "name": "E5",
                    "midi": 76,
                    "time": 63,
                    "velocity": 0.6535433070866141,
                    "duration": 0.99583333333333
                },
                {
                    "name": "B2",
                    "midi": 47,
                    "time": 63,
                    "velocity": 0.44881889763779526,
                    "duration": 0.49583333333333
                },
                {
                    "name": "D#2",
                    "midi": 39,
                    "time": 63,
                    "velocity": 0.4330708661417323,
                    "duration": 0.49583333333333
                },
                {
                    "name": "A#4",
                    "midi": 70,
                    "time": 63,
                    "velocity": 0.5511811023622047,
                    "duration": 0.49583333333333
                },
                {
                    "name": "D#3",
                    "midi": 51,
                    "time": 63.5,
                    "velocity": 0.3779527559055118,
                    "duration": 0.49583333333333
                },
                {
                    "name": "G#2",
                    "midi": 44,
                    "time": 63.5,
                    "velocity": 0.4409448818897638,
                    "duration": 0.49583333333333
                },
                {
                    "name": "G4",
                    "midi": 67,
                    "time": 63.5,
                    "velocity": 0.5511811023622047,
                    "duration": 0.49583333333333
                },
                {
                    "name": "B2",
                    "midi": 47,
                    "time": 64,
                    "velocity": 0.48031496062992124,
                    "duration": 0.4958333333333371
                },
                {
                    "name": "D#2",
                    "midi": 39,
                    "time": 64,
                    "velocity": 0.4881889763779528,
                    "duration": 0.4958333333333371
                },
                {
                    "name": "G#4",
                    "midi": 68,
                    "time": 64,
                    "velocity": 0.5590551181102362,
                    "duration": 0.4958333333333371
                },
                {
                    "name": "F5",
                    "midi": 77,
                    "time": 64,
                    "velocity": 0.7795275590551181,
                    "duration": 1.4958333333333371
                },
                {
                    "name": "D#3",
                    "midi": 51,
                    "time": 64.5,
                    "velocity": 0.3937007874015748,
                    "duration": 0.4958333333333371
                },
                {
                    "name": "G#2",
                    "midi": 44,
                    "time": 64.5,
                    "velocity": 0.5354330708661418,
                    "duration": 0.4958333333333371
                },
                {
                    "name": "F4",
                    "midi": 65,
                    "time": 64.5,
                    "velocity": 0.5118110236220472,
                    "duration": 0.4958333333333371
                },
                {
                    "name": "B3",
                    "midi": 59,
                    "time": 65,
                    "velocity": 0.33070866141732286,
                    "duration": 0.4958333333333371
                },
                {
                    "name": "D#3",
                    "midi": 51,
                    "time": 65,
                    "velocity": 0.4566929133858268,
                    "duration": 0.4958333333333371
                },
                {
                    "name": "G4",
                    "midi": 67,
                    "time": 65,
                    "velocity": 0.5669291338582677,
                    "duration": 0.4958333333333371
                },
                {
                    "name": "D#4",
                    "midi": 63,
                    "time": 65.5,
                    "velocity": 0.41732283464566927,
                    "duration": 0.4958333333333371
                },
                {
                    "name": "G#3",
                    "midi": 56,
                    "time": 65.5,
                    "velocity": 0.5196850393700787,
                    "duration": 0.4958333333333371
                },
                {
                    "name": "G#4",
                    "midi": 68,
                    "time": 65.5,
                    "velocity": 0.5669291338582677,
                    "duration": 0.4958333333333371
                },
                {
                    "name": "E5",
                    "midi": 76,
                    "time": 65.5,
                    "velocity": 0.6456692913385826,
                    "duration": 0.4958333333333371
                },
                {
                    "name": "D#3",
                    "midi": 51,
                    "time": 66,
                    "velocity": 0.4881889763779528,
                    "duration": 0.4958333333333371
                },
                {
                    "name": "D4",
                    "midi": 62,
                    "time": 66,
                    "velocity": 0.5905511811023622,
                    "duration": 0.4958333333333371
                },
                {
                    "name": "A#4",
                    "midi": 70,
                    "time": 66,
                    "velocity": 0.49606299212598426,
                    "duration": 0.4958333333333371
                },
                {
                    "name": "F5",
                    "midi": 77,
                    "time": 66,
                    "velocity": 0.6535433070866141,
                    "duration": 0.9958333333333371
                },
                {
                    "name": "D#4",
                    "midi": 63,
                    "time": 66.5,
                    "velocity": 0.48031496062992124,
                    "duration": 0.4958333333333371
                },
                {
                    "name": "B3",
                    "midi": 59,
                    "time": 66.5,
                    "velocity": 0.4566929133858268,
                    "duration": 0.4958333333333371
                },
                {
                    "name": "G4",
                    "midi": 67,
                    "time": 66.5,
                    "velocity": 0.49606299212598426,
                    "duration": 0.24583333333333712
                },
                {
                    "name": "B2",
                    "midi": 47,
                    "time": 67,
                    "velocity": 0.5275590551181102,
                    "duration": 0.4958333333333371
                },
                {
                    "name": "G3",
                    "midi": 55,
                    "time": 67,
                    "velocity": 0.5196850393700787,
                    "duration": 0.4958333333333371
                },
                {
                    "name": "B4",
                    "midi": 71,
                    "time": 67,
                    "velocity": 0.5511811023622047,
                    "duration": 0.4958333333333371
                },
                {
                    "name": "A#2",
                    "midi": 46,
                    "time": 67.5,
                    "velocity": 0.3228346456692913,
                    "duration": 0.4958333333333371
                },
                {
                    "name": "F#3",
                    "midi": 54,
                    "time": 67.5,
                    "velocity": 0.33858267716535434,
                    "duration": 0.4958333333333371
                },
                {
                    "name": "G#4",
                    "midi": 68,
                    "time": 67.5,
                    "velocity": 0.3700787401574803,
                    "duration": 0.4958333333333371
                },
                {
                    "name": "F3",
                    "midi": 53,
                    "time": 68,
                    "velocity": 0.5590551181102362,
                    "duration": 0.4958333333333371
                },
                {
                    "name": "A2",
                    "midi": 45,
                    "time": 68,
                    "velocity": 0.4881889763779528,
                    "duration": 0.4958333333333371
                },
                {
                    "name": "A#4",
                    "midi": 70,
                    "time": 68,
                    "velocity": 0.47244094488188976,
                    "duration": 0.4958333333333371
                },
                {
                    "name": "E3",
                    "midi": 52,
                    "time": 68.5,
                    "velocity": 0.4566929133858268,
                    "duration": 0.4958333333333371
                },
                {
                    "name": "G#2",
                    "midi": 44,
                    "time": 68.5,
                    "velocity": 0.5118110236220472,
                    "duration": 0.4958333333333371
                },
                {
                    "name": "G4",
                    "midi": 67,
                    "time": 68.5,
                    "velocity": 0.5275590551181102,
                    "duration": 0.4958333333333371
                },
                {
                    "name": "B3",
                    "midi": 59,
                    "time": 69,
                    "velocity": 0.5118110236220472,
                    "duration": 0.4958333333333371
                },
                {
                    "name": "D#3",
                    "midi": 51,
                    "time": 69,
                    "velocity": 0.49606299212598426,
                    "duration": 0.4958333333333371
                },
                {
                    "name": "D#5",
                    "midi": 75,
                    "time": 69,
                    "velocity": 0.6062992125984252,
                    "duration": 0.8708333333333371
                },
                {
                    "name": "F5",
                    "midi": 77,
                    "time": 69,
                    "velocity": 0.6377952755905512,
                    "duration": 0.8708333333333371
                },
                {
                    "name": "G#4",
                    "midi": 68,
                    "time": 69,
                    "velocity": 0.5275590551181102,
                    "duration": 0.4958333333333371
                },
                {
                    "name": "D#4",
                    "midi": 63,
                    "time": 69.5,
                    "velocity": 0.5748031496062992,
                    "duration": 0.4958333333333371
                },
                {
                    "name": "G#3",
                    "midi": 56,
                    "time": 69.5,
                    "velocity": 0.5275590551181102,
                    "duration": 0.4958333333333371
                },
                {
                    "name": "A#4",
                    "midi": 70,
                    "time": 69.5,
                    "velocity": 0.5511811023622047,
                    "duration": 0.4958333333333371
                },
                {
                    "name": "D#5",
                    "midi": 75,
                    "time": 69.875,
                    "velocity": 0.6377952755905512,
                    "duration": 0.12083333333333712
                },
                {
                    "name": "F5",
                    "midi": 77,
                    "time": 69.875,
                    "velocity": 0.6220472440944882,
                    "duration": 0.12083333333333712
                },
                {
                    "name": "B5",
                    "midi": 83,
                    "time": 69.875,
                    "velocity": 0.6377952755905512,
                    "duration": 0.12083333333333712
                },
                {
                    "name": "B3",
                    "midi": 59,
                    "time": 70,
                    "velocity": 0.48031496062992124,
                    "duration": 0.4958333333333371
                },
                {
                    "name": "D#3",
                    "midi": 51,
                    "time": 70,
                    "velocity": 0.44881889763779526,
                    "duration": 0.4958333333333371
                },
                {
                    "name": "D#5",
                    "midi": 75,
                    "time": 70,
                    "velocity": 0.5984251968503937,
                    "duration": 0.9958333333333371
                },
                {
                    "name": "F5",
                    "midi": 77,
                    "time": 70,
                    "velocity": 0.6771653543307087,
                    "duration": 0.9958333333333371
                },
                {
                    "name": "B4",
                    "midi": 71,
                    "time": 70,
                    "velocity": 0.5511811023622047,
                    "duration": 0.4958333333333371
                },
                {
                    "name": "D#4",
                    "midi": 63,
                    "time": 70.5,
                    "velocity": 0.5590551181102362,
                    "duration": 0.4958333333333371
                },
                {
                    "name": "G#3",
                    "midi": 56,
                    "time": 70.5,
                    "velocity": 0.49606299212598426,
                    "duration": 0.4958333333333371
                },
                {
                    "name": "G#4",
                    "midi": 68,
                    "time": 70.5,
                    "velocity": 0.44881889763779526,
                    "duration": 0.4958333333333371
                },
                {
                    "name": "D#2",
                    "midi": 39,
                    "time": 71,
                    "velocity": 0.4566929133858268,
                    "duration": 0.4958333333333371
                },
                {
                    "name": "B2",
                    "midi": 47,
                    "time": 71,
                    "velocity": 0.5511811023622047,
                    "duration": 0.4958333333333371
                },
                {
                    "name": "G5",
                    "midi": 79,
                    "time": 71,
                    "velocity": 0.6220472440944882,
                    "duration": 0.9958333333333371
                },
                {
                    "name": "E5",
                    "midi": 76,
                    "time": 71,
                    "velocity": 0.5748031496062992,
                    "duration": 0.9958333333333371
                },
                {
                    "name": "A#4",
                    "midi": 70,
                    "time": 71,
                    "velocity": 0.5354330708661418,
                    "duration": 0.4958333333333371
                },
                {
                    "name": "D#3",
                    "midi": 51,
                    "time": 71.5,
                    "velocity": 0.5275590551181102,
                    "duration": 0.4958333333333371
                },
                {
                    "name": "G#2",
                    "midi": 44,
                    "time": 71.5,
                    "velocity": 0.5354330708661418,
                    "duration": 0.4958333333333371
                },
                {
                    "name": "G4",
                    "midi": 67,
                    "time": 71.5,
                    "velocity": 0.5984251968503937,
                    "duration": 0.4958333333333371
                },
                {
                    "name": "B2",
                    "midi": 47,
                    "time": 72,
                    "velocity": 0.5590551181102362,
                    "duration": 0.4958333333333371
                },
                {
                    "name": "D#2",
                    "midi": 39,
                    "time": 72,
                    "velocity": 0.5511811023622047,
                    "duration": 0.4958333333333371
                },
                {
                    "name": "F5",
                    "midi": 77,
                    "time": 72,
                    "velocity": 0.6377952755905512,
                    "duration": 1.4958333333333371
                },
                {
                    "name": "G#5",
                    "midi": 80,
                    "time": 72,
                    "velocity": 0.6456692913385826,
                    "duration": 1.4958333333333371
                },
                {
                    "name": "G#4",
                    "midi": 68,
                    "time": 72,
                    "velocity": 0.5590551181102362,
                    "duration": 0.4958333333333371
                },
                {
                    "name": "D#3",
                    "midi": 51,
                    "time": 72.5,
                    "velocity": 0.4881889763779528,
                    "duration": 0.4958333333333371
                },
                {
                    "name": "G#2",
                    "midi": 44,
                    "time": 72.5,
                    "velocity": 0.5511811023622047,
                    "duration": 0.4958333333333371
                },
                {
                    "name": "F4",
                    "midi": 65,
                    "time": 72.5,
                    "velocity": 0.5354330708661418,
                    "duration": 0.4958333333333371
                },
                {
                    "name": "B3",
                    "midi": 59,
                    "time": 73,
                    "velocity": 0.44881889763779526,
                    "duration": 0.4958333333333371
                },
                {
                    "name": "D#3",
                    "midi": 51,
                    "time": 73,
                    "velocity": 0.48031496062992124,
                    "duration": 0.4958333333333371
                },
                {
                    "name": "G4",
                    "midi": 67,
                    "time": 73,
                    "velocity": 0.5748031496062992,
                    "duration": 0.4958333333333371
                },
                {
                    "name": "D#4",
                    "midi": 63,
                    "time": 73.5,
                    "velocity": 0.5275590551181102,
                    "duration": 0.4958333333333371
                },
                {
                    "name": "G#3",
                    "midi": 56,
                    "time": 73.5,
                    "velocity": 0.5354330708661418,
                    "duration": 0.4958333333333371
                },
                {
                    "name": "F#5",
                    "midi": 78,
                    "time": 73.5,
                    "velocity": 0.6535433070866141,
                    "duration": 0.4958333333333371
                },
                {
                    "name": "D#5",
                    "midi": 75,
                    "time": 73.5,
                    "velocity": 0.6220472440944882,
                    "duration": 0.4958333333333371
                },
                {
                    "name": "G#4",
                    "midi": 68,
                    "time": 73.5,
                    "velocity": 0.5511811023622047,
                    "duration": 0.4958333333333371
                },
                {
                    "name": "D#4",
                    "midi": 63,
                    "time": 74,
                    "velocity": 0.5118110236220472,
                    "duration": 0.4958333333333371
                },
                {
                    "name": "C#4",
                    "midi": 61,
                    "time": 74,
                    "velocity": 0.5354330708661418,
                    "duration": 0.4958333333333371
                },
                {
                    "name": "E5",
                    "midi": 76,
                    "time": 74,
                    "velocity": 0.6141732283464567,
                    "duration": 0.9958333333333371
                },
                {
                    "name": "C#6",
                    "midi": 85,
                    "time": 74,
                    "velocity": 0.6535433070866141,
                    "duration": 0.9958333333333371
                },
                {
                    "name": "A#4",
                    "midi": 70,
                    "time": 74,
                    "velocity": 0.5669291338582677,
                    "duration": 0.4958333333333371
                },
                {
                    "name": "A3",
                    "midi": 57,
                    "time": 74.5,
                    "velocity": 0.49606299212598426,
                    "duration": 0.4958333333333371
                },
                {
                    "name": "D#3",
                    "midi": 51,
                    "time": 74.5,
                    "velocity": 0.48031496062992124,
                    "duration": 0.4958333333333371
                },
                {
                    "name": "G4",
                    "midi": 67,
                    "time": 74.5,
                    "velocity": 0.5275590551181102,
                    "duration": 0.4958333333333371
                },
                {
                    "name": "G#4",
                    "midi": 68,
                    "time": 75,
                    "velocity": 0.8346456692913385,
                    "duration": 0.8708333333333371
                },
                {
                    "name": "E4",
                    "midi": 64,
                    "time": 75,
                    "velocity": 0.5669291338582677,
                    "duration": 0.4958333333333371
                },
                {
                    "name": "G#3",
                    "midi": 56,
                    "time": 75,
                    "velocity": 0.4881889763779528,
                    "duration": 0.4958333333333371
                },
                {
                    "name": "D3",
                    "midi": 50,
                    "time": 75,
                    "velocity": 0.5118110236220472,
                    "duration": 0.4958333333333371
                },
                {
                    "name": "C#4",
                    "midi": 61,
                    "time": 75.5,
                    "velocity": 0.47244094488188976,
                    "duration": 0.4958333333333371
                },
                {
                    "name": "G3",
                    "midi": 55,
                    "time": 75.5,
                    "velocity": 0.5275590551181102,
                    "duration": 0.4958333333333371
                },
                {
                    "name": "C#3",
                    "midi": 49,
                    "time": 75.5,
                    "velocity": 0.5590551181102362,
                    "duration": 0.4958333333333371
                },
                {
                    "name": "G#4",
                    "midi": 68,
                    "time": 75.875,
                    "velocity": 0.7401574803149606,
                    "duration": 0.12083333333333712
                },
                {
                    "name": "D#5",
                    "midi": 75,
                    "time": 75.875,
                    "velocity": 0.7952755905511811,
                    "duration": 0.12083333333333712
                },
                {
                    "name": "F#3",
                    "midi": 54,
                    "time": 76,
                    "velocity": 0.48031496062992124,
                    "duration": 0.4958333333333371
                },
                {
                    "name": "C3",
                    "midi": 48,
                    "time": 76,
                    "velocity": 0.5748031496062992,
                    "duration": 0.4958333333333371
                },
                {
                    "name": "G#2",
                    "midi": 44,
                    "time": 76,
                    "velocity": 0.5669291338582677,
                    "duration": 0.9958333333333371
                },
                {
                    "name": "D#4",
                    "midi": 63,
                    "time": 76,
                    "velocity": 0.5354330708661418,
                    "duration": 0.4958333333333371
                },
                {
                    "name": "G#4",
                    "midi": 68,
                    "time": 76,
                    "velocity": 0.7716535433070866,
                    "duration": 6.995833333333337
                },
                {
                    "name": "B2",
                    "midi": 47,
                    "time": 76.5,
                    "velocity": 0.5354330708661418,
                    "duration": 0.4958333333333371
                },
                {
                    "name": "F3",
                    "midi": 53,
                    "time": 76.5,
                    "velocity": 0.49606299212598426,
                    "duration": 0.4958333333333371
                },
                {
                    "name": "B3",
                    "midi": 59,
                    "time": 76.5,
                    "velocity": 0.48031496062992124,
                    "duration": 0.4958333333333371
                },
                {
                    "name": "E3",
                    "midi": 52,
                    "time": 77,
                    "velocity": 0.4881889763779528,
                    "duration": 0.4958333333333371
                },
                {
                    "name": "A#2",
                    "midi": 46,
                    "time": 77,
                    "velocity": 0.4409448818897638,
                    "duration": 0.4958333333333371
                },
                {
                    "name": "C#4",
                    "midi": 61,
                    "time": 77,
                    "velocity": 0.4330708661417323,
                    "duration": 0.4958333333333371
                },
                {
                    "name": "A2",
                    "midi": 45,
                    "time": 77.5,
                    "velocity": 0.5511811023622047,
                    "duration": 0.4958333333333371
                },
                {
                    "name": "D#3",
                    "midi": 51,
                    "time": 77.5,
                    "velocity": 0.4881889763779528,
                    "duration": 0.4958333333333371
                },
                {
                    "name": "D#4",
                    "midi": 63,
                    "time": 77.5,
                    "velocity": 0.47244094488188976,
                    "duration": 0.4958333333333371
                },
                {
                    "name": "G#2",
                    "midi": 44,
                    "time": 78,
                    "velocity": 0.4409448818897638,
                    "duration": 0.4958333333333371
                },
                {
                    "name": "D3",
                    "midi": 50,
                    "time": 78,
                    "velocity": 0.47244094488188976,
                    "duration": 0.4958333333333371
                },
                {
                    "name": "E4",
                    "midi": 64,
                    "time": 78,
                    "velocity": 0.6850393700787402,
                    "duration": 0.4958333333333371
                },
                {
                    "name": "G2",
                    "midi": 43,
                    "time": 78.5,
                    "velocity": 0.5275590551181102,
                    "duration": 0.4958333333333371
                },
                {
                    "name": "C#3",
                    "midi": 49,
                    "time": 78.5,
                    "velocity": 0.5354330708661418,
                    "duration": 0.4958333333333371
                },
                {
                    "name": "C#4",
                    "midi": 61,
                    "time": 78.5,
                    "velocity": 0.4015748031496063,
                    "duration": 0.4958333333333371
                },
                {
                    "name": "C3",
                    "midi": 48,
                    "time": 79,
                    "velocity": 0.44881889763779526,
                    "duration": 0.4958333333333371
                },
                {
                    "name": "F#2",
                    "midi": 42,
                    "time": 79,
                    "velocity": 0.4881889763779528,
                    "duration": 0.4958333333333371
                },
                {
                    "name": "D#4",
                    "midi": 63,
                    "time": 79,
                    "velocity": 0.5511811023622047,
                    "duration": 0.4958333333333371
                },
                {
                    "name": "F2",
                    "midi": 41,
                    "time": 79.5,
                    "velocity": 0.33070866141732286,
                    "duration": 0.4958333333333371
                },
                {
                    "name": "B2",
                    "midi": 47,
                    "time": 79.5,
                    "velocity": 0.31496062992125984,
                    "duration": 0.4958333333333371
                },
                {
                    "name": "B3",
                    "midi": 59,
                    "time": 79.5,
                    "velocity": 0.36220472440944884,
                    "duration": 0.4958333333333371
                },
                {
                    "name": "A#2",
                    "midi": 46,
                    "time": 80,
                    "velocity": 0.2992125984251969,
                    "duration": 0.4958333333333371
                },
                {
                    "name": "E2",
                    "midi": 40,
                    "time": 80,
                    "velocity": 0.4409448818897638,
                    "duration": 0.4958333333333371
                },
                {
                    "name": "C#4",
                    "midi": 61,
                    "time": 80,
                    "velocity": 0.3779527559055118,
                    "duration": 0.4958333333333371
                },
                {
                    "name": "A2",
                    "midi": 45,
                    "time": 80.5,
                    "velocity": 0.33858267716535434,
                    "duration": 0.4958333333333371
                },
                {
                    "name": "D#2",
                    "midi": 39,
                    "time": 80.5,
                    "velocity": 0.3543307086614173,
                    "duration": 0.4958333333333371
                },
                {
                    "name": "A#3",
                    "midi": 58,
                    "time": 80.5,
                    "velocity": 0.33070866141732286,
                    "duration": 0.4958333333333371
                },
                {
                    "name": "G#2",
                    "midi": 44,
                    "time": 81,
                    "velocity": 0.4094488188976378,
                    "duration": 0.4958333333333371
                },
                {
                    "name": "D2",
                    "midi": 38,
                    "time": 81,
                    "velocity": 0.4094488188976378,
                    "duration": 0.4958333333333371
                },
                {
                    "name": "B3",
                    "midi": 59,
                    "time": 81,
                    "velocity": 0.2992125984251969,
                    "duration": 0.4958333333333371
                },
                {
                    "name": "G2",
                    "midi": 43,
                    "time": 81.5,
                    "velocity": 0.3700787401574803,
                    "duration": 0.4958333333333371
                },
                {
                    "name": "C#2",
                    "midi": 37,
                    "time": 81.5,
                    "velocity": 0.2677165354330709,
                    "duration": 0.4958333333333371
                },
                {
                    "name": "C#4",
                    "midi": 61,
                    "time": 81.5,
                    "velocity": 0.31496062992125984,
                    "duration": 0.4958333333333371
                },
                {
                    "name": "C2",
                    "midi": 36,
                    "time": 82,
                    "velocity": 0.3543307086614173,
                    "duration": 0.4958333333333371
                },
                {
                    "name": "F#2",
                    "midi": 42,
                    "time": 82,
                    "velocity": 0.3779527559055118,
                    "duration": 0.4958333333333371
                },
                {
                    "name": "D#4",
                    "midi": 63,
                    "time": 82,
                    "velocity": 0.41732283464566927,
                    "duration": 0.4958333333333371
                },
                {
                    "name": "B1",
                    "midi": 35,
                    "time": 82.5,
                    "velocity": 0.3700787401574803,
                    "duration": 0.4958333333333371
                },
                {
                    "name": "F2",
                    "midi": 41,
                    "time": 82.5,
                    "velocity": 0.3779527559055118,
                    "duration": 0.4958333333333371
                },
                {
                    "name": "B3",
                    "midi": 59,
                    "time": 82.5,
                    "velocity": 0.36220472440944884,
                    "duration": 0.24583333333333712
                },
                {
                    "name": "G#3",
                    "midi": 56,
                    "time": 83,
                    "velocity": 0.36220472440944884,
                    "duration": 0.4958333333333371
                },
                {
                    "name": "D3",
                    "midi": 50,
                    "time": 83,
                    "velocity": 0.44881889763779526,
                    "duration": 0.4958333333333371
                },
                {
                    "name": "E4",
                    "midi": 64,
                    "time": 83,
                    "velocity": 0.31496062992125984,
                    "duration": 0.4958333333333371
                },
                {
                    "name": "G#4",
                    "midi": 68,
                    "time": 83,
                    "velocity": 0.3937007874015748,
                    "duration": 0.8708333333333371
                },
                {
                    "name": "G3",
                    "midi": 55,
                    "time": 83.5,
                    "velocity": 0.2755905511811024,
                    "duration": 0.4958333333333371
                },
                {
                    "name": "C#3",
                    "midi": 49,
                    "time": 83.5,
                    "velocity": 0.44881889763779526,
                    "duration": 0.4958333333333371
                },
                {
                    "name": "C#4",
                    "midi": 61,
                    "time": 83.5,
                    "velocity": 0.36220472440944884,
                    "duration": 0.4958333333333371
                },
                {
                    "name": "D#5",
                    "midi": 75,
                    "time": 83.875,
                    "velocity": 0.5275590551181102,
                    "duration": 0.12083333333333712
                },
                {
                    "name": "G#4",
                    "midi": 68,
                    "time": 83.875,
                    "velocity": 0.44881889763779526,
                    "duration": 0.12083333333333712
                },
                {
                    "name": "G#2",
                    "midi": 44,
                    "time": 84,
                    "velocity": 0.44881889763779526,
                    "duration": 0.9958333333333371
                },
                {
                    "name": "G3",
                    "midi": 55,
                    "time": 84,
                    "velocity": 0.3779527559055118,
                    "duration": 0.4958333333333371
                },
                {
                    "name": "C#3",
                    "midi": 49,
                    "time": 84,
                    "velocity": 0.36220472440944884,
                    "duration": 0.4958333333333371
                },
                {
                    "name": "D#4",
                    "midi": 63,
                    "time": 84,
                    "velocity": 0.3937007874015748,
                    "duration": 0.4958333333333371
                },
                {
                    "name": "G#4",
                    "midi": 68,
                    "time": 84,
                    "velocity": 0.5039370078740157,
                    "duration": 6.995833333333337
                },
                {
                    "name": "F3",
                    "midi": 53,
                    "time": 84.5,
                    "velocity": 0.2440944881889764,
                    "duration": 0.4958333333333371
                },
                {
                    "name": "B2",
                    "midi": 47,
                    "time": 84.5,
                    "velocity": 0.3700787401574803,
                    "duration": 0.4958333333333371
                },
                {
                    "name": "B3",
                    "midi": 59,
                    "time": 84.5,
                    "velocity": 0.4015748031496063,
                    "duration": 0.4958333333333371
                },
                {
                    "name": "E3",
                    "midi": 52,
                    "time": 85,
                    "velocity": 0.31496062992125984,
                    "duration": 0.4958333333333371
                },
                {
                    "name": "A#2",
                    "midi": 46,
                    "time": 85,
                    "velocity": 0.2677165354330709,
                    "duration": 0.4958333333333371
                },
                {
                    "name": "C#4",
                    "midi": 61,
                    "time": 85,
                    "velocity": 0.4094488188976378,
                    "duration": 0.4958333333333371
                },
                {
                    "name": "D#3",
                    "midi": 51,
                    "time": 85.5,
                    "velocity": 0.2440944881889764,
                    "duration": 0.4958333333333371
                },
                {
                    "name": "A2",
                    "midi": 45,
                    "time": 85.5,
                    "velocity": 0.4409448818897638,
                    "duration": 0.4958333333333371
                },
                {
                    "name": "D#4",
                    "midi": 63,
                    "time": 85.5,
                    "velocity": 0.2125984251968504,
                    "duration": 0.4958333333333371
                },
                {
                    "name": "D3",
                    "midi": 50,
                    "time": 86,
                    "velocity": 0.33858267716535434,
                    "duration": 0.4958333333333371
                },
                {
                    "name": "G#2",
                    "midi": 44,
                    "time": 86,
                    "velocity": 0.33858267716535434,
                    "duration": 0.4958333333333371
                },
                {
                    "name": "E4",
                    "midi": 64,
                    "time": 86,
                    "velocity": 0.36220472440944884,
                    "duration": 0.4958333333333371
                },
                {
                    "name": "C#3",
                    "midi": 49,
                    "time": 86.5,
                    "velocity": 0.3543307086614173,
                    "duration": 0.4958333333333371
                },
                {
                    "name": "G2",
                    "midi": 43,
                    "time": 86.5,
                    "velocity": 0.4409448818897638,
                    "duration": 0.4958333333333371
                },
                {
                    "name": "C#4",
                    "midi": 61,
                    "time": 86.5,
                    "velocity": 0.18110236220472442,
                    "duration": 0.4958333333333371
                },
                {
                    "name": "C3",
                    "midi": 48,
                    "time": 87,
                    "velocity": 0.3700787401574803,
                    "duration": 0.4958333333333371
                },
                {
                    "name": "F#2",
                    "midi": 42,
                    "time": 87,
                    "velocity": 0.3543307086614173,
                    "duration": 0.4958333333333371
                },
                {
                    "name": "D#4",
                    "midi": 63,
                    "time": 87,
                    "velocity": 0.3779527559055118,
                    "duration": 0.4958333333333371
                },
                {
                    "name": "B2",
                    "midi": 47,
                    "time": 87.5,
                    "velocity": 0.25196850393700787,
                    "duration": 0.4958333333333371
                },
                {
                    "name": "F2",
                    "midi": 41,
                    "time": 87.5,
                    "velocity": 0.33070866141732286,
                    "duration": 0.4958333333333371
                },
                {
                    "name": "B3",
                    "midi": 59,
                    "time": 87.5,
                    "velocity": 0.2755905511811024,
                    "duration": 0.4958333333333371
                },
                {
                    "name": "A#2",
                    "midi": 46,
                    "time": 88,
                    "velocity": 0.2440944881889764,
                    "duration": 0.4958333333333371
                },
                {
                    "name": "E2",
                    "midi": 40,
                    "time": 88,
                    "velocity": 0.4015748031496063,
                    "duration": 0.4958333333333371
                },
                {
                    "name": "C#4",
                    "midi": 61,
                    "time": 88,
                    "velocity": 0.3779527559055118,
                    "duration": 0.4958333333333371
                },
                {
                    "name": "A2",
                    "midi": 45,
                    "time": 88.5,
                    "velocity": 0.2992125984251969,
                    "duration": 0.4958333333333371
                },
                {
                    "name": "D#2",
                    "midi": 39,
                    "time": 88.5,
                    "velocity": 0.2992125984251969,
                    "duration": 0.4958333333333371
                },
                {
                    "name": "A#3",
                    "midi": 58,
                    "time": 88.5,
                    "velocity": 0.25196850393700787,
                    "duration": 0.4958333333333371
                },
                {
                    "name": "G#2",
                    "midi": 44,
                    "time": 89,
                    "velocity": 0.33070866141732286,
                    "duration": 0.4958333333333371
                },
                {
                    "name": "D2",
                    "midi": 38,
                    "time": 89,
                    "velocity": 0.36220472440944884,
                    "duration": 0.4958333333333371
                },
                {
                    "name": "B3",
                    "midi": 59,
                    "time": 89,
                    "velocity": 0.4094488188976378,
                    "duration": 0.4958333333333371
                },
                {
                    "name": "G2",
                    "midi": 43,
                    "time": 89.5,
                    "velocity": 0.3228346456692913,
                    "duration": 0.4958333333333371
                },
                {
                    "name": "C#2",
                    "midi": 37,
                    "time": 89.5,
                    "velocity": 0.33070866141732286,
                    "duration": 0.4958333333333371
                },
                {
                    "name": "C#4",
                    "midi": 61,
                    "time": 89.5,
                    "velocity": 0.33070866141732286,
                    "duration": 0.4958333333333371
                },
                {
                    "name": "F#2",
                    "midi": 42,
                    "time": 90,
                    "velocity": 0.3543307086614173,
                    "duration": 0.4958333333333371
                },
                {
                    "name": "C2",
                    "midi": 36,
                    "time": 90,
                    "velocity": 0.33858267716535434,
                    "duration": 0.4958333333333371
                },
                {
                    "name": "D#4",
                    "midi": 63,
                    "time": 90,
                    "velocity": 0.25196850393700787,
                    "duration": 0.4958333333333371
                },
                {
                    "name": "F2",
                    "midi": 41,
                    "time": 90.5,
                    "velocity": 0.3543307086614173,
                    "duration": 0.4958333333333371
                },
                {
                    "name": "B1",
                    "midi": 35,
                    "time": 90.5,
                    "velocity": 0.31496062992125984,
                    "duration": 0.4958333333333371
                },
                {
                    "name": "B3",
                    "midi": 59,
                    "time": 90.5,
                    "velocity": 0.2283464566929134,
                    "duration": 0.4958333333333371
                },
                {
                    "name": "G#4",
                    "midi": 68,
                    "time": 91,
                    "velocity": 0.33858267716535434,
                    "duration": 0.4958333333333371
                },
                {
                    "name": "D#4",
                    "midi": 63,
                    "time": 91,
                    "velocity": 0.3937007874015748,
                    "duration": 0.4958333333333371
                },
                {
                    "name": "B3",
                    "midi": 59,
                    "time": 91,
                    "velocity": 0.3779527559055118,
                    "duration": 0.4958333333333371
                },
                {
                    "name": "D#5",
                    "midi": 75,
                    "time": 91,
                    "velocity": 0.28346456692913385,
                    "duration": 0.24583333333333712
                },
                {
                    "name": "D5",
                    "midi": 74,
                    "time": 91.25,
                    "velocity": 0.4409448818897638,
                    "duration": 0.24583333333333712
                },
                {
                    "name": "G#2",
                    "midi": 44,
                    "time": 91.5,
                    "velocity": 0.3937007874015748,
                    "duration": 0.4958333333333371
                },
                {
                    "name": "G#1",
                    "midi": 32,
                    "time": 91.5,
                    "velocity": 0.48031496062992124,
                    "duration": 0.4958333333333371
                },
                {
                    "name": "G#5",
                    "midi": 80,
                    "time": 91.5,
                    "velocity": 0.5039370078740157,
                    "duration": 0.4958333333333371
                },
                {
                    "name": "C#5",
                    "midi": 73,
                    "time": 91.5,
                    "velocity": 0.2992125984251969,
                    "duration": 0.24583333333333712
                },
                {
                    "name": "C5",
                    "midi": 72,
                    "time": 91.75,
                    "velocity": 0.33858267716535434,
                    "duration": 0.24583333333333712
                },
                {
                    "name": "G4",
                    "midi": 67,
                    "time": 92,
                    "velocity": 0.33858267716535434,
                    "duration": 0.4958333333333371
                },
                {
                    "name": "B3",
                    "midi": 59,
                    "time": 92,
                    "velocity": 0.23622047244094488,
                    "duration": 0.4958333333333371
                },
                {
                    "name": "D4",
                    "midi": 62,
                    "time": 92,
                    "velocity": 0.2283464566929134,
                    "duration": 0.4958333333333371
                },
                {
                    "name": "B4",
                    "midi": 71,
                    "time": 92,
                    "velocity": 0.31496062992125984,
                    "duration": 0.24583333333333712
                },
                {
                    "name": "D5",
                    "midi": 74,
                    "time": 92,
                    "velocity": 0.33858267716535434,
                    "duration": 0.4958333333333371
                },
                {
                    "name": "G5",
                    "midi": 79,
                    "time": 92,
                    "velocity": 0.5196850393700787,
                    "duration": 0.4958333333333371
                },
                {
                    "name": "A#4",
                    "midi": 70,
                    "time": 92.25,
                    "velocity": 0.25984251968503935,
                    "duration": 0.24583333333333712
                },
                {
                    "name": "G#2",
                    "midi": 44,
                    "time": 92.5,
                    "velocity": 0.2755905511811024,
                    "duration": 0.4958333333333371
                },
                {
                    "name": "G#1",
                    "midi": 32,
                    "time": 92.5,
                    "velocity": 0.23622047244094488,
                    "duration": 0.4958333333333371
                },
                {
                    "name": "A4",
                    "midi": 69,
                    "time": 92.5,
                    "velocity": 0.31496062992125984,
                    "duration": 0.24583333333333712
                },
                {
                    "name": "C5",
                    "midi": 72,
                    "time": 92.5,
                    "velocity": 0.33858267716535434,
                    "duration": 0.4958333333333371
                },
                {
                    "name": "F5",
                    "midi": 77,
                    "time": 92.5,
                    "velocity": 0.5275590551181102,
                    "duration": 0.4958333333333371
                },
                {
                    "name": "G#4",
                    "midi": 68,
                    "time": 92.75,
                    "velocity": 0.30708661417322836,
                    "duration": 0.24583333333333712
                },
                {
                    "name": "C4",
                    "midi": 60,
                    "time": 93,
                    "velocity": 0.31496062992125984,
                    "duration": 0.4958333333333371
                },
                {
                    "name": "F#3",
                    "midi": 54,
                    "time": 93,
                    "velocity": 0.2283464566929134,
                    "duration": 0.4958333333333371
                },
                {
                    "name": "D3",
                    "midi": 50,
                    "time": 93,
                    "velocity": 0.2755905511811024,
                    "duration": 0.4958333333333371
                },
                {
                    "name": "G4",
                    "midi": 67,
                    "time": 93,
                    "velocity": 0.1889763779527559,
                    "duration": 0.24583333333333712
                },
                {
                    "name": "A#4",
                    "midi": 70,
                    "time": 93,
                    "velocity": 0.23622047244094488,
                    "duration": 0.4958333333333371
                },
                {
                    "name": "D#5",
                    "midi": 75,
                    "time": 93,
                    "velocity": 0.5039370078740157,
                    "duration": 0.4958333333333371
                },
                {
                    "name": "F#4",
                    "midi": 66,
                    "time": 93.25,
                    "velocity": 0.2440944881889764,
                    "duration": 0.24583333333333712
                },
                {
                    "name": "G#2",
                    "midi": 44,
                    "time": 93.5,
                    "velocity": 0.1732283464566929,
                    "duration": 0.4958333333333371
                },
                {
                    "name": "G#1",
                    "midi": 32,
                    "time": 93.5,
                    "velocity": 0.18110236220472442,
                    "duration": 0.4958333333333371
                },
                {
                    "name": "F4",
                    "midi": 65,
                    "time": 93.5,
                    "velocity": 0.25984251968503935,
                    "duration": 0.24583333333333712
                },
                {
                    "name": "F5",
                    "midi": 77,
                    "time": 93.5,
                    "velocity": 0.5196850393700787,
                    "duration": 0.24583333333333712
                },
                {
                    "name": "A#4",
                    "midi": 70,
                    "time": 93.75,
                    "velocity": 0.2440944881889764,
                    "duration": 0.24583333333333712
                },
                {
                    "name": "G5",
                    "midi": 79,
                    "time": 93.75,
                    "velocity": 0.4645669291338583,
                    "duration": 0.24583333333333712
                },
                {
                    "name": "C4",
                    "midi": 60,
                    "time": 94,
                    "velocity": 0.2992125984251969,
                    "duration": 0.4958333333333371
                },
                {
                    "name": "G3",
                    "midi": 55,
                    "time": 94,
                    "velocity": 0.2440944881889764,
                    "duration": 0.4958333333333371
                },
                {
                    "name": "E3",
                    "midi": 52,
                    "time": 94,
                    "velocity": 0.15748031496062992,
                    "duration": 0.4958333333333371
                },
                {
                    "name": "A4",
                    "midi": 69,
                    "time": 94,
                    "velocity": 0.28346456692913385,
                    "duration": 0.24583333333333712
                },
                {
                    "name": "C5",
                    "midi": 72,
                    "time": 94,
                    "velocity": 0.5196850393700787,
                    "duration": 0.4958333333333371
                },
                {
                    "name": "G#4",
                    "midi": 68,
                    "time": 94.25,
                    "velocity": 0.28346456692913385,
                    "duration": 0.24583333333333712
                },
                {
                    "name": "E2",
                    "midi": 40,
                    "time": 94.5,
                    "velocity": 0.36220472440944884,
                    "duration": 0.4958333333333371
                },
                {
                    "name": "G4",
                    "midi": 67,
                    "time": 94.5,
                    "velocity": 0.28346456692913385,
                    "duration": 0.24583333333333712
                },
                {
                    "name": "A4",
                    "midi": 69,
                    "time": 94.5,
                    "velocity": 0.31496062992125984,
                    "duration": 0.4958333333333371
                },
                {
                    "name": "C5",
                    "midi": 72,
                    "time": 94.5,
                    "velocity": 0.5196850393700787,
                    "duration": 0.4958333333333371
                },
                {
                    "name": "F#4",
                    "midi": 66,
                    "time": 94.75,
                    "velocity": 0.28346456692913385,
                    "duration": 0.24583333333333712
                },
                {
                    "name": "G#2",
                    "midi": 44,
                    "time": 95,
                    "velocity": 0.2204724409448819,
                    "duration": 0.4958333333333371
                },
                {
                    "name": "G#1",
                    "midi": 32,
                    "time": 95,
                    "velocity": 0.25984251968503935,
                    "duration": 0.4958333333333371
                },
                {
                    "name": "F4",
                    "midi": 65,
                    "time": 95,
                    "velocity": 0.2992125984251969,
                    "duration": 0.24583333333333712
                },
                {
                    "name": "B4",
                    "midi": 71,
                    "time": 95,
                    "velocity": 0.3464566929133858,
                    "duration": 0.4958333333333371
                },
                {
                    "name": "D#5",
                    "midi": 75,
                    "time": 95,
                    "velocity": 0.5039370078740157,
                    "duration": 0.4958333333333371
                },
                {
                    "name": "F#4",
                    "midi": 66,
                    "time": 95.25,
                    "velocity": 0.2755905511811024,
                    "duration": 0.24583333333333712
                },
                {
                    "name": "B3",
                    "midi": 59,
                    "time": 95.5,
                    "velocity": 0.33858267716535434,
                    "duration": 0.4958333333333371
                },
                {
                    "name": "G3",
                    "midi": 55,
                    "time": 95.5,
                    "velocity": 0.28346456692913385,
                    "duration": 0.4958333333333371
                },
                {
                    "name": "D3",
                    "midi": 50,
                    "time": 95.5,
                    "velocity": 0.3543307086614173,
                    "duration": 0.4958333333333371
                },
                {
                    "name": "G4",
                    "midi": 67,
                    "time": 95.5,
                    "velocity": 0.4094488188976378,
                    "duration": 0.24583333333333712
                },
                {
                    "name": "B4",
                    "midi": 71,
                    "time": 95.5,
                    "velocity": 0.4330708661417323,
                    "duration": 0.4958333333333371
                },
                {
                    "name": "D5",
                    "midi": 74,
                    "time": 95.5,
                    "velocity": 0.5354330708661418,
                    "duration": 0.4958333333333371
                },
                {
                    "name": "F#4",
                    "midi": 66,
                    "time": 95.75,
                    "velocity": 0.33070866141732286,
                    "duration": 0.24583333333333712
                },
                {
                    "name": "G#2",
                    "midi": 44,
                    "time": 96,
                    "velocity": 0.2283464566929134,
                    "duration": 0.4958333333333371
                },
                {
                    "name": "G#1",
                    "midi": 32,
                    "time": 96,
                    "velocity": 0.2440944881889764,
                    "duration": 0.4958333333333371
                },
                {
                    "name": "F4",
                    "midi": 65,
                    "time": 96,
                    "velocity": 0.2755905511811024,
                    "duration": 0.24583333333333712
                },
                {
                    "name": "A4",
                    "midi": 69,
                    "time": 96,
                    "velocity": 0.2125984251968504,
                    "duration": 0.4958333333333371
                },
                {
                    "name": "C5",
                    "midi": 72,
                    "time": 96,
                    "velocity": 0.5039370078740157,
                    "duration": 0.4958333333333371
                },
                {
                    "name": "E4",
                    "midi": 64,
                    "time": 96.25,
                    "velocity": 0.36220472440944884,
                    "duration": 0.24583333333333712
                },
                {
                    "name": "C4",
                    "midi": 60,
                    "time": 96.5,
                    "velocity": 0.23622047244094488,
                    "duration": 0.4958333333333371
                },
                {
                    "name": "F#3",
                    "midi": 54,
                    "time": 96.5,
                    "velocity": 0.33070866141732286,
                    "duration": 0.4958333333333371
                },
                {
                    "name": "D3",
                    "midi": 50,
                    "time": 96.5,
                    "velocity": 0.4566929133858268,
                    "duration": 0.4958333333333371
                },
                {
                    "name": "D#4",
                    "midi": 63,
                    "time": 96.5,
                    "velocity": 0.2677165354330709,
                    "duration": 0.24583333333333712
                },
                {
                    "name": "G4",
                    "midi": 67,
                    "time": 96.5,
                    "velocity": 0.33070866141732286,
                    "duration": 0.4958333333333371
                },
                {
                    "name": "A#4",
                    "midi": 70,
                    "time": 96.5,
                    "velocity": 0.48031496062992124,
                    "duration": 0.4958333333333371
                },
                {
                    "name": "D4",
                    "midi": 62,
                    "time": 96.75,
                    "velocity": 0.3700787401574803,
                    "duration": 0.24583333333333712
                },
                {
                    "name": "G#1",
                    "midi": 32,
                    "time": 97,
                    "velocity": 0.2440944881889764,
                    "duration": 0.4958333333333371
                },
                {
                    "name": "G#2",
                    "midi": 44,
                    "time": 97,
                    "velocity": 0.2677165354330709,
                    "duration": 0.4958333333333371
                },
                {
                    "name": "C4",
                    "midi": 60,
                    "time": 97,
                    "velocity": 0.33070866141732286,
                    "duration": 0.24583333333333712
                },
                {
                    "name": "C5",
                    "midi": 72,
                    "time": 97,
                    "velocity": 0.5354330708661418,
                    "duration": 0.24583333333333712
                },
                {
                    "name": "F#4",
                    "midi": 66,
                    "time": 97.25,
                    "velocity": 0.2755905511811024,
                    "duration": 0.24583333333333712
                },
                {
                    "name": "D5",
                    "midi": 74,
                    "time": 97.25,
                    "velocity": 0.5354330708661418,
                    "duration": 0.24583333333333712
                },
                {
                    "name": "C4",
                    "midi": 60,
                    "time": 97.5,
                    "velocity": 0.2125984251968504,
                    "duration": 0.4958333333333371
                },
                {
                    "name": "G3",
                    "midi": 55,
                    "time": 97.5,
                    "velocity": 0.3543307086614173,
                    "duration": 0.4958333333333371
                },
                {
                    "name": "E3",
                    "midi": 52,
                    "time": 97.5,
                    "velocity": 0.2677165354330709,
                    "duration": 0.4958333333333371
                },
                {
                    "name": "F4",
                    "midi": 65,
                    "time": 97.5,
                    "velocity": 0.28346456692913385,
                    "duration": 0.24583333333333712
                },
                {
                    "name": "A4",
                    "midi": 69,
                    "time": 97.5,
                    "velocity": 0.5196850393700787,
                    "duration": 0.4958333333333371
                },
                {
                    "name": "E4",
                    "midi": 64,
                    "time": 97.75,
                    "velocity": 0.33858267716535434,
                    "duration": 0.24583333333333712
                },
                {
                    "name": "E2",
                    "midi": 40,
                    "time": 98,
                    "velocity": 0.3779527559055118,
                    "duration": 0.4958333333333371
                },
                {
                    "name": "D#4",
                    "midi": 63,
                    "time": 98,
                    "velocity": 0.2125984251968504,
                    "duration": 0.24583333333333712
                },
                {
                    "name": "A4",
                    "midi": 69,
                    "time": 98,
                    "velocity": 0.5039370078740157,
                    "duration": 0.4958333333333371
                },
                {
                    "name": "D4",
                    "midi": 62,
                    "time": 98.25,
                    "velocity": 0.25984251968503935,
                    "duration": 0.24583333333333712
                },
                {
                    "name": "G#1",
                    "midi": 32,
                    "time": 98.5,
                    "velocity": 0.23622047244094488,
                    "duration": 0.4958333333333371
                },
                {
                    "name": "G#2",
                    "midi": 44,
                    "time": 98.5,
                    "velocity": 0.28346456692913385,
                    "duration": 0.4958333333333371
                },
                {
                    "name": "C#4",
                    "midi": 61,
                    "time": 98.5,
                    "velocity": 0.2992125984251969,
                    "duration": 0.24583333333333712
                },
                {
                    "name": "D#4",
                    "midi": 63,
                    "time": 98.5,
                    "velocity": 0.2125984251968504,
                    "duration": 0.4958333333333371
                },
                {
                    "name": "G#4",
                    "midi": 68,
                    "time": 98.5,
                    "velocity": 0.6220472440944882,
                    "duration": 0.4958333333333371
                },
                {
                    "name": "C4",
                    "midi": 60,
                    "time": 98.75,
                    "velocity": 0.36220472440944884,
                    "duration": 0.24583333333333712
                },
                {
                    "name": "D3",
                    "midi": 50,
                    "time": 99,
                    "velocity": 0.31496062992125984,
                    "duration": 0.4958333333333371
                },
                {
                    "name": "B2",
                    "midi": 47,
                    "time": 99,
                    "velocity": 0.2125984251968504,
                    "duration": 0.4958333333333371
                },
                {
                    "name": "G3",
                    "midi": 55,
                    "time": 99,
                    "velocity": 0.2677165354330709,
                    "duration": 0.4958333333333371
                },
                {
                    "name": "B3",
                    "midi": 59,
                    "time": 99,
                    "velocity": 0.2755905511811024,
                    "duration": 0.24583333333333712
                },
                {
                    "name": "D4",
                    "midi": 62,
                    "time": 99,
                    "velocity": 0.2992125984251969,
                    "duration": 0.4958333333333371
                },
                {
                    "name": "G4",
                    "midi": 67,
                    "time": 99,
                    "velocity": 0.5275590551181102,
                    "duration": 0.4958333333333371
                },
                {
                    "name": "A#3",
                    "midi": 58,
                    "time": 99.25,
                    "velocity": 0.2755905511811024,
                    "duration": 0.24583333333333712
                },
                {
                    "name": "G#1",
                    "midi": 32,
                    "time": 99.5,
                    "velocity": 0.3543307086614173,
                    "duration": 0.4958333333333371
                },
                {
                    "name": "A3",
                    "midi": 57,
                    "time": 99.5,
                    "velocity": 0.2755905511811024,
                    "duration": 0.24583333333333712
                },
                {
                    "name": "C4",
                    "midi": 60,
                    "time": 99.5,
                    "velocity": 0.41732283464566927,
                    "duration": 0.4958333333333371
                },
                {
                    "name": "F4",
                    "midi": 65,
                    "time": 99.5,
                    "velocity": 0.5433070866141733,
                    "duration": 0.4958333333333371
                },
                {
                    "name": "G#3",
                    "midi": 56,
                    "time": 99.75,
                    "velocity": 0.28346456692913385,
                    "duration": 0.24583333333333712
                },
                {
                    "name": "C3",
                    "midi": 48,
                    "time": 100,
                    "velocity": 0.2204724409448819,
                    "duration": 0.4958333333333371
                },
                {
                    "name": "F#2",
                    "midi": 42,
                    "time": 100,
                    "velocity": 0.25196850393700787,
                    "duration": 0.4958333333333371
                },
                {
                    "name": "D2",
                    "midi": 38,
                    "time": 100,
                    "velocity": 0.2992125984251969,
                    "duration": 0.4958333333333371
                },
                {
                    "name": "G3",
                    "midi": 55,
                    "time": 100,
                    "velocity": 0.3543307086614173,
                    "duration": 0.24583333333333712
                },
                {
                    "name": "A#3",
                    "midi": 58,
                    "time": 100,
                    "velocity": 0.33070866141732286,
                    "duration": 0.4958333333333371
                },
                {
                    "name": "D#4",
                    "midi": 63,
                    "time": 100,
                    "velocity": 0.48031496062992124,
                    "duration": 0.4958333333333371
                },
                {
                    "name": "F#3",
                    "midi": 54,
                    "time": 100.25,
                    "velocity": 0.3543307086614173,
                    "duration": 0.24583333333333712
                },
                {
                    "name": "G#1",
                    "midi": 32,
                    "time": 100.5,
                    "velocity": 0.33070866141732286,
                    "duration": 0.4958333333333371
                },
                {
                    "name": "F3",
                    "midi": 53,
                    "time": 100.5,
                    "velocity": 0.2125984251968504,
                    "duration": 0.24583333333333712
                },
                {
                    "name": "F4",
                    "midi": 65,
                    "time": 100.5,
                    "velocity": 0.5196850393700787,
                    "duration": 0.24583333333333712
                },
                {
                    "name": "A#3",
                    "midi": 58,
                    "time": 100.75,
                    "velocity": 0.3543307086614173,
                    "duration": 0.24583333333333712
                },
                {
                    "name": "G4",
                    "midi": 67,
                    "time": 100.75,
                    "velocity": 0.5039370078740157,
                    "duration": 0.24583333333333712
                },
                {
                    "name": "C3",
                    "midi": 48,
                    "time": 101,
                    "velocity": 0.2677165354330709,
                    "duration": 0.4958333333333371
                },
                {
                    "name": "G2",
                    "midi": 43,
                    "time": 101,
                    "velocity": 0.3937007874015748,
                    "duration": 0.4958333333333371
                },
                {
                    "name": "E2",
                    "midi": 40,
                    "time": 101,
                    "velocity": 0.25196850393700787,
                    "duration": 0.4958333333333371
                },
                {
                    "name": "A3",
                    "midi": 57,
                    "time": 101,
                    "velocity": 0.33070866141732286,
                    "duration": 0.24583333333333712
                },
                {
                    "name": "C4",
                    "midi": 60,
                    "time": 101,
                    "velocity": 0.5433070866141733,
                    "duration": 0.4958333333333371
                },
                {
                    "name": "G#3",
                    "midi": 56,
                    "time": 101.25,
                    "velocity": 0.33070866141732286,
                    "duration": 0.24583333333333712
                },
                {
                    "name": "E2",
                    "midi": 40,
                    "time": 101.5,
                    "velocity": 0.33070866141732286,
                    "duration": 0.4958333333333371
                },
                {
                    "name": "G3",
                    "midi": 55,
                    "time": 101.5,
                    "velocity": 0.3228346456692913,
                    "duration": 0.24583333333333712
                },
                {
                    "name": "C4",
                    "midi": 60,
                    "time": 101.5,
                    "velocity": 0.5354330708661418,
                    "duration": 0.4958333333333371
                },
                {
                    "name": "F#3",
                    "midi": 54,
                    "time": 101.75,
                    "velocity": 0.3228346456692913,
                    "duration": 0.24583333333333712
                },
                {
                    "name": "G#1",
                    "midi": 32,
                    "time": 102,
                    "velocity": 0.2992125984251969,
                    "duration": 0.4958333333333371
                },
                {
                    "name": "F3",
                    "midi": 53,
                    "time": 102,
                    "velocity": 0.3700787401574803,
                    "duration": 0.24583333333333712
                },
                {
                    "name": "B3",
                    "midi": 59,
                    "time": 102,
                    "velocity": 0.28346456692913385,
                    "duration": 0.4958333333333371
                },
                {
                    "name": "D#4",
                    "midi": 63,
                    "time": 102,
                    "velocity": 0.5039370078740157,
                    "duration": 0.4958333333333371
                },
                {
                    "name": "F#3",
                    "midi": 54,
                    "time": 102.25,
                    "velocity": 0.2992125984251969,
                    "duration": 0.24583333333333712
                },
                {
                    "name": "B2",
                    "midi": 47,
                    "time": 102.5,
                    "velocity": 0.25984251968503935,
                    "duration": 0.4958333333333371
                },
                {
                    "name": "D2",
                    "midi": 38,
                    "time": 102.5,
                    "velocity": 0.2755905511811024,
                    "duration": 0.4958333333333371
                },
                {
                    "name": "G2",
                    "midi": 43,
                    "time": 102.5,
                    "velocity": 0.33070866141732286,
                    "duration": 0.4958333333333371
                },
                {
                    "name": "G3",
                    "midi": 55,
                    "time": 102.5,
                    "velocity": 0.4330708661417323,
                    "duration": 0.24583333333333712
                },
                {
                    "name": "B3",
                    "midi": 59,
                    "time": 102.5,
                    "velocity": 0.25984251968503935,
                    "duration": 0.4958333333333371
                },
                {
                    "name": "D4",
                    "midi": 62,
                    "time": 102.5,
                    "velocity": 0.5590551181102362,
                    "duration": 0.4958333333333371
                },
                {
                    "name": "F#3",
                    "midi": 54,
                    "time": 102.75,
                    "velocity": 0.36220472440944884,
                    "duration": 0.24583333333333712
                },
                {
                    "name": "G#1",
                    "midi": 32,
                    "time": 103,
                    "velocity": 0.33858267716535434,
                    "duration": 0.4958333333333371
                },
                {
                    "name": "F3",
                    "midi": 53,
                    "time": 103,
                    "velocity": 0.25196850393700787,
                    "duration": 0.24583333333333712
                },
                {
                    "name": "A3",
                    "midi": 57,
                    "time": 103,
                    "velocity": 0.25984251968503935,
                    "duration": 0.4958333333333371
                },
                {
                    "name": "C4",
                    "midi": 60,
                    "time": 103,
                    "velocity": 0.5354330708661418,
                    "duration": 0.4958333333333371
                },
                {
                    "name": "E3",
                    "midi": 52,
                    "time": 103.25,
                    "velocity": 0.25984251968503935,
                    "duration": 0.24583333333333712
                },
                {
                    "name": "D2",
                    "midi": 38,
                    "time": 103.5,
                    "velocity": 0.29133858267716534,
                    "duration": 0.4958333333333371
                },
                {
                    "name": "C3",
                    "midi": 48,
                    "time": 103.5,
                    "velocity": 0.2755905511811024,
                    "duration": 0.4958333333333371
                },
                {
                    "name": "F#2",
                    "midi": 42,
                    "time": 103.5,
                    "velocity": 0.25984251968503935,
                    "duration": 0.4958333333333371
                },
                {
                    "name": "D#3",
                    "midi": 51,
                    "time": 103.5,
                    "velocity": 0.2992125984251969,
                    "duration": 0.24583333333333712
                },
                {
                    "name": "G3",
                    "midi": 55,
                    "time": 103.5,
                    "velocity": 0.3700787401574803,
                    "duration": 0.4958333333333371
                },
                {
                    "name": "A#3",
                    "midi": 58,
                    "time": 103.5,
                    "velocity": 0.5275590551181102,
                    "duration": 0.4958333333333371
                },
                {
                    "name": "D3",
                    "midi": 50,
                    "time": 103.75,
                    "velocity": 0.15748031496062992,
                    "duration": 0.24583333333333712
                },
                {
                    "name": "G#1",
                    "midi": 32,
                    "time": 104,
                    "velocity": 0.33070866141732286,
                    "duration": 0.4958333333333371
                },
                {
                    "name": "C3",
                    "midi": 48,
                    "time": 104,
                    "velocity": 0.33858267716535434,
                    "duration": 0.24583333333333712
                },
                {
                    "name": "C4",
                    "midi": 60,
                    "time": 104,
                    "velocity": 0.5039370078740157,
                    "duration": 0.24583333333333712
                },
                {
                    "name": "F#3",
                    "midi": 54,
                    "time": 104.25,
                    "velocity": 0.28346456692913385,
                    "duration": 0.24583333333333712
                },
                {
                    "name": "D4",
                    "midi": 62,
                    "time": 104.25,
                    "velocity": 0.5984251968503937,
                    "duration": 0.24583333333333712
                },
                {
                    "name": "G2",
                    "midi": 43,
                    "time": 104.5,
                    "velocity": 0.33858267716535434,
                    "duration": 0.4958333333333371
                },
                {
                    "name": "C3",
                    "midi": 48,
                    "time": 104.5,
                    "velocity": 0.3228346456692913,
                    "duration": 0.4958333333333371
                },
                {
                    "name": "E2",
                    "midi": 40,
                    "time": 104.5,
                    "velocity": 0.25196850393700787,
                    "duration": 0.4958333333333371
                },
                {
                    "name": "F3",
                    "midi": 53,
                    "time": 104.5,
                    "velocity": 0.3779527559055118,
                    "duration": 0.24583333333333712
                },
                {
                    "name": "A3",
                    "midi": 57,
                    "time": 104.5,
                    "velocity": 0.49606299212598426,
                    "duration": 0.4958333333333371
                },
                {
                    "name": "E3",
                    "midi": 52,
                    "time": 104.75,
                    "velocity": 0.2992125984251969,
                    "duration": 0.24583333333333712
                },
                {
                    "name": "B1",
                    "midi": 35,
                    "time": 105,
                    "velocity": 0.44881889763779526,
                    "duration": 0.4958333333333371
                },
                {
                    "name": "D#3",
                    "midi": 51,
                    "time": 105,
                    "velocity": 0.31496062992125984,
                    "duration": 0.24583333333333712
                },
                {
                    "name": "A3",
                    "midi": 57,
                    "time": 105,
                    "velocity": 0.5196850393700787,
                    "duration": 0.4958333333333371
                },
                {
                    "name": "D3",
                    "midi": 50,
                    "time": 105.25,
                    "velocity": 0.3228346456692913,
                    "duration": 0.24583333333333712
                },
                {
                    "name": "C2",
                    "midi": 36,
                    "time": 105.5,
                    "velocity": 0.31496062992125984,
                    "duration": 0.4958333333333371
                },
                {
                    "name": "F5",
                    "midi": 77,
                    "time": 105.5,
                    "velocity": 0.36220472440944884,
                    "duration": 0.24583333333333712
                },
                {
                    "name": "G5",
                    "midi": 79,
                    "time": 105.5,
                    "velocity": 0.41732283464566927,
                    "duration": 0.4958333333333371
                },
                {
                    "name": "C6",
                    "midi": 84,
                    "time": 105.5,
                    "velocity": 0.5433070866141733,
                    "duration": 0.4958333333333371
                },
                {
                    "name": "E6",
                    "midi": 88,
                    "time": 105.75,
                    "velocity": 0.3700787401574803,
                    "duration": 0.24583333333333712
                },
                {
                    "name": "E5",
                    "midi": 76,
                    "time": 105.75,
                    "velocity": 0.4015748031496063,
                    "duration": 0.24583333333333712
                },
                {
                    "name": "B4",
                    "midi": 71,
                    "time": 106,
                    "velocity": 0.3937007874015748,
                    "duration": 0.4958333333333371
                },
                {
                    "name": "F#4",
                    "midi": 66,
                    "time": 106,
                    "velocity": 0.2755905511811024,
                    "duration": 0.4958333333333371
                },
                {
                    "name": "D#4",
                    "midi": 63,
                    "time": 106,
                    "velocity": 0.2283464566929134,
                    "duration": 0.4958333333333371
                },
                {
                    "name": "D#5",
                    "midi": 75,
                    "time": 106,
                    "velocity": 0.1732283464566929,
                    "duration": 0.24583333333333712
                },
                {
                    "name": "F#5",
                    "midi": 78,
                    "time": 106,
                    "velocity": 0.36220472440944884,
                    "duration": 0.4958333333333371
                },
                {
                    "name": "B5",
                    "midi": 83,
                    "time": 106,
                    "velocity": 0.49606299212598426,
                    "duration": 0.4958333333333371
                },
                {
                    "name": "D6",
                    "midi": 86,
                    "time": 106.25,
                    "velocity": 0.36220472440944884,
                    "duration": 0.24583333333333712
                },
                {
                    "name": "D5",
                    "midi": 74,
                    "time": 106.25,
                    "velocity": 0.33070866141732286,
                    "duration": 0.24583333333333712
                },
                {
                    "name": "C2",
                    "midi": 36,
                    "time": 106.5,
                    "velocity": 0.3543307086614173,
                    "duration": 0.4958333333333371
                },
                {
                    "name": "F#4",
                    "midi": 66,
                    "time": 106.5,
                    "velocity": 0.2440944881889764,
                    "duration": 0.4958333333333371
                },
                {
                    "name": "D#4",
                    "midi": 63,
                    "time": 106.5,
                    "velocity": 0.28346456692913385,
                    "duration": 0.4958333333333371
                },
                {
                    "name": "B4",
                    "midi": 71,
                    "time": 106.5,
                    "velocity": 0.28346456692913385,
                    "duration": 0.4958333333333371
                },
                {
                    "name": "C#5",
                    "midi": 73,
                    "time": 106.5,
                    "velocity": 0.3779527559055118,
                    "duration": 0.24583333333333712
                },
                {
                    "name": "E5",
                    "midi": 76,
                    "time": 106.5,
                    "velocity": 0.3700787401574803,
                    "duration": 0.4958333333333371
                },
                {
                    "name": "A5",
                    "midi": 81,
                    "time": 106.5,
                    "velocity": 0.5590551181102362,
                    "duration": 0.4958333333333371
                },
                {
                    "name": "C6",
                    "midi": 84,
                    "time": 106.75,
                    "velocity": 0.4094488188976378,
                    "duration": 0.24583333333333712
                },
                {
                    "name": "C5",
                    "midi": 72,
                    "time": 106.75,
                    "velocity": 0.36220472440944884,
                    "duration": 0.24583333333333712
                },
                {
                    "name": "A#3",
                    "midi": 58,
                    "time": 107,
                    "velocity": 0.3543307086614173,
                    "duration": 0.4958333333333371
                },
                {
                    "name": "E4",
                    "midi": 64,
                    "time": 107,
                    "velocity": 0.1889763779527559,
                    "duration": 0.4958333333333371
                },
                {
                    "name": "F#3",
                    "midi": 54,
                    "time": 107,
                    "velocity": 0.3543307086614173,
                    "duration": 0.4958333333333371
                },
                {
                    "name": "B4",
                    "midi": 71,
                    "time": 107,
                    "velocity": 0.4094488188976378,
                    "duration": 0.24583333333333712
                },
                {
                    "name": "D5",
                    "midi": 74,
                    "time": 107,
                    "velocity": 0.3779527559055118,
                    "duration": 0.4958333333333371
                },
                {
                    "name": "G5",
                    "midi": 79,
                    "time": 107,
                    "velocity": 0.5275590551181102,
                    "duration": 0.4958333333333371
                },
                {
                    "name": "A#5",
                    "midi": 82,
                    "time": 107.25,
                    "velocity": 0.31496062992125984,
                    "duration": 0.24583333333333712
                },
                {
                    "name": "A#4",
                    "midi": 70,
                    "time": 107.25,
                    "velocity": 0.28346456692913385,
                    "duration": 0.24583333333333712
                },
                {
                    "name": "C2",
                    "midi": 36,
                    "time": 107.5,
                    "velocity": 0.36220472440944884,
                    "duration": 0.4958333333333371
                },
                {
                    "name": "A4",
                    "midi": 69,
                    "time": 107.5,
                    "velocity": 0.44881889763779526,
                    "duration": 0.24583333333333712
                },
                {
                    "name": "A5",
                    "midi": 81,
                    "time": 107.5,
                    "velocity": 0.5354330708661418,
                    "duration": 0.24583333333333712
                },
                {
                    "name": "D5",
                    "midi": 74,
                    "time": 107.75,
                    "velocity": 0.36220472440944884,
                    "duration": 0.24583333333333712
                },
                {
                    "name": "B5",
                    "midi": 83,
                    "time": 107.75,
                    "velocity": 0.5433070866141733,
                    "duration": 0.24583333333333712
                },
                {
                    "name": "B3",
                    "midi": 59,
                    "time": 108,
                    "velocity": 0.23622047244094488,
                    "duration": 0.4958333333333371
                },
                {
                    "name": "G#3",
                    "midi": 56,
                    "time": 108,
                    "velocity": 0.2440944881889764,
                    "duration": 0.4958333333333371
                },
                {
                    "name": "E4",
                    "midi": 64,
                    "time": 108,
                    "velocity": 0.2125984251968504,
                    "duration": 0.4958333333333371
                },
                {
                    "name": "C#5",
                    "midi": 73,
                    "time": 108,
                    "velocity": 0.4015748031496063,
                    "duration": 0.24583333333333712
                },
                {
                    "name": "E5",
                    "midi": 76,
                    "time": 108,
                    "velocity": 0.4881889763779528,
                    "duration": 0.4958333333333371
                },
                {
                    "name": "C5",
                    "midi": 72,
                    "time": 108.25,
                    "velocity": 0.3543307086614173,
                    "duration": 0.24583333333333712
                },
                {
                    "name": "G#2",
                    "midi": 44,
                    "time": 108.5,
                    "velocity": 0.3228346456692913,
                    "duration": 0.4958333333333371
                },
                {
                    "name": "B4",
                    "midi": 71,
                    "time": 108.5,
                    "velocity": 0.33070866141732286,
                    "duration": 0.24583333333333712
                },
                {
                    "name": "E5",
                    "midi": 76,
                    "time": 108.5,
                    "velocity": 0.5275590551181102,
                    "duration": 0.4958333333333371
                },
                {
                    "name": "A#4",
                    "midi": 70,
                    "time": 108.75,
                    "velocity": 0.25984251968503935,
                    "duration": 0.24583333333333712
                },
                {
                    "name": "C2",
                    "midi": 36,
                    "time": 109,
                    "velocity": 0.2992125984251969,
                    "duration": 0.4958333333333371
                },
                {
                    "name": "A4",
                    "midi": 69,
                    "time": 109,
                    "velocity": 0.3700787401574803,
                    "duration": 0.24583333333333712
                },
                {
                    "name": "D#5",
                    "midi": 75,
                    "time": 109,
                    "velocity": 0.3543307086614173,
                    "duration": 0.4958333333333371
                },
                {
                    "name": "G5",
                    "midi": 79,
                    "time": 109,
                    "velocity": 0.5354330708661418,
                    "duration": 0.4958333333333371
                },
                {
                    "name": "C6",
                    "midi": 84,
                    "time": 109.25,
                    "velocity": 0.3228346456692913,
                    "duration": 0.24583333333333712
                },
                {
                    "name": "A#4",
                    "midi": 70,
                    "time": 109.25,
                    "velocity": 0.2283464566929134,
                    "duration": 0.24583333333333712
                },
                {
                    "name": "D#4",
                    "midi": 63,
                    "time": 109.5,
                    "velocity": 0.1732283464566929,
                    "duration": 0.4958333333333371
                },
                {
                    "name": "B3",
                    "midi": 59,
                    "time": 109.5,
                    "velocity": 0.36220472440944884,
                    "duration": 0.4958333333333371
                },
                {
                    "name": "F#3",
                    "midi": 54,
                    "time": 109.5,
                    "velocity": 0.2047244094488189,
                    "duration": 0.4958333333333371
                },
                {
                    "name": "B4",
                    "midi": 71,
                    "time": 109.5,
                    "velocity": 0.2992125984251969,
                    "duration": 0.24583333333333712
                },
                {
                    "name": "D#5",
                    "midi": 75,
                    "time": 109.5,
                    "velocity": 0.33858267716535434,
                    "duration": 0.4958333333333371
                },
                {
                    "name": "F#5",
                    "midi": 78,
                    "time": 109.5,
                    "velocity": 0.5590551181102362,
                    "duration": 0.4958333333333371
                },
                {
                    "name": "A#4",
                    "midi": 70,
                    "time": 109.75,
                    "velocity": 0.29133858267716534,
                    "duration": 0.24583333333333712
                },
                {
                    "name": "C2",
                    "midi": 36,
                    "time": 110,
                    "velocity": 0.25196850393700787,
                    "duration": 0.4958333333333371
                },
                {
                    "name": "A4",
                    "midi": 69,
                    "time": 110,
                    "velocity": 0.2125984251968504,
                    "duration": 0.24583333333333712
                },
                {
                    "name": "C#5",
                    "midi": 73,
                    "time": 110,
                    "velocity": 0.3700787401574803,
                    "duration": 0.4958333333333371
                },
                {
                    "name": "E5",
                    "midi": 76,
                    "time": 110,
                    "velocity": 0.5275590551181102,
                    "duration": 0.4958333333333371
                },
                {
                    "name": "G#5",
                    "midi": 80,
                    "time": 110.25,
                    "velocity": 0.3779527559055118,
                    "duration": 0.24583333333333712
                },
                {
                    "name": "G#4",
                    "midi": 68,
                    "time": 110.25,
                    "velocity": 0.2283464566929134,
                    "duration": 0.24583333333333712
                },
                {
                    "name": "E4",
                    "midi": 64,
                    "time": 110.5,
                    "velocity": 0.18110236220472442,
                    "duration": 0.4958333333333371
                },
                {
                    "name": "A#3",
                    "midi": 58,
                    "time": 110.5,
                    "velocity": 0.2677165354330709,
                    "duration": 0.4958333333333371
                },
                {
                    "name": "F#3",
                    "midi": 54,
                    "time": 110.5,
                    "velocity": 0.2992125984251969,
                    "duration": 0.4958333333333371
                },
                {
                    "name": "G4",
                    "midi": 67,
                    "time": 110.5,
                    "velocity": 0.33070866141732286,
                    "duration": 0.24583333333333712
                },
                {
                    "name": "B4",
                    "midi": 71,
                    "time": 110.5,
                    "velocity": 0.3937007874015748,
                    "duration": 0.4958333333333371
                },
                {
                    "name": "D5",
                    "midi": 74,
                    "time": 110.5,
                    "velocity": 0.6220472440944882,
                    "duration": 0.4958333333333371
                },
                {
                    "name": "F#5",
                    "midi": 78,
                    "time": 110.75,
                    "velocity": 0.3543307086614173,
                    "duration": 0.24583333333333712
                },
                {
                    "name": "F#4",
                    "midi": 66,
                    "time": 110.75,
                    "velocity": 0.2125984251968504,
                    "duration": 0.24583333333333712
                },
                {
                    "name": "C2",
                    "midi": 36,
                    "time": 111,
                    "velocity": 0.33070866141732286,
                    "duration": 0.4958333333333371
                },
                {
                    "name": "E4",
                    "midi": 64,
                    "time": 111,
                    "velocity": 0.1889763779527559,
                    "duration": 0.24583333333333712
                },
                {
                    "name": "E5",
                    "midi": 76,
                    "time": 111,
                    "velocity": 0.5039370078740157,
                    "duration": 0.24583333333333712
                },
                {
                    "name": "A#4",
                    "midi": 70,
                    "time": 111.25,
                    "velocity": 0.2755905511811024,
                    "duration": 0.24583333333333712
                },
                {
                    "name": "F#5",
                    "midi": 78,
                    "time": 111.25,
                    "velocity": 0.5196850393700787,
                    "duration": 0.24583333333333712
                },
                {
                    "name": "B3",
                    "midi": 59,
                    "time": 111.5,
                    "velocity": 0.2047244094488189,
                    "duration": 0.4958333333333371
                },
                {
                    "name": "G#3",
                    "midi": 56,
                    "time": 111.5,
                    "velocity": 0.2755905511811024,
                    "duration": 0.4958333333333371
                },
                {
                    "name": "E4",
                    "midi": 64,
                    "time": 111.5,
                    "velocity": 0.23622047244094488,
                    "duration": 0.4958333333333371
                },
                {
                    "name": "A4",
                    "midi": 69,
                    "time": 111.5,
                    "velocity": 0.25984251968503935,
                    "duration": 0.24583333333333712
                },
                {
                    "name": "C#5",
                    "midi": 73,
                    "time": 111.5,
                    "velocity": 0.5039370078740157,
                    "duration": 0.4958333333333371
                },
                {
                    "name": "G#4",
                    "midi": 68,
                    "time": 111.75,
                    "velocity": 0.3700787401574803,
                    "duration": 0.24583333333333712
                },
                {
                    "name": "G#2",
                    "midi": 44,
                    "time": 112,
                    "velocity": 0.23622047244094488,
                    "duration": 0.4958333333333371
                },
                {
                    "name": "G4",
                    "midi": 67,
                    "time": 112,
                    "velocity": 0.4330708661417323,
                    "duration": 0.24583333333333712
                },
                {
                    "name": "C#5",
                    "midi": 73,
                    "time": 112,
                    "velocity": 0.49606299212598426,
                    "duration": 0.4958333333333371
                },
                {
                    "name": "F#4",
                    "midi": 66,
                    "time": 112.25,
                    "velocity": 0.36220472440944884,
                    "duration": 0.24583333333333712
                },
                {
                    "name": "C2",
                    "midi": 36,
                    "time": 112.5,
                    "velocity": 0.2992125984251969,
                    "duration": 0.4958333333333371
                },
                {
                    "name": "F4",
                    "midi": 65,
                    "time": 112.5,
                    "velocity": 0.3779527559055118,
                    "duration": 0.24583333333333712
                },
                {
                    "name": "G4",
                    "midi": 67,
                    "time": 112.5,
                    "velocity": 0.33070866141732286,
                    "duration": 0.4958333333333371
                },
                {
                    "name": "C5",
                    "midi": 72,
                    "time": 112.5,
                    "velocity": 0.49606299212598426,
                    "duration": 0.4958333333333371
                },
                {
                    "name": "E5",
                    "midi": 76,
                    "time": 112.75,
                    "velocity": 0.2755905511811024,
                    "duration": 0.24583333333333712
                },
                {
                    "name": "E4",
                    "midi": 64,
                    "time": 112.75,
                    "velocity": 0.1968503937007874,
                    "duration": 0.24583333333333712
                },
                {
                    "name": "F#3",
                    "midi": 54,
                    "time": 113,
                    "velocity": 0.33070866141732286,
                    "duration": 0.4958333333333371
                },
                {
                    "name": "B3",
                    "midi": 59,
                    "time": 113,
                    "velocity": 0.2992125984251969,
                    "duration": 0.4958333333333371
                },
                {
                    "name": "D#3",
                    "midi": 51,
                    "time": 113,
                    "velocity": 0.25984251968503935,
                    "duration": 0.4958333333333371
                },
                {
                    "name": "D#4",
                    "midi": 63,
                    "time": 113,
                    "velocity": 0.2125984251968504,
                    "duration": 0.24583333333333712
                },
                {
                    "name": "F#4",
                    "midi": 66,
                    "time": 113,
                    "velocity": 0.3543307086614173,
                    "duration": 0.4958333333333371
                },
                {
                    "name": "B4",
                    "midi": 71,
                    "time": 113,
                    "velocity": 0.5275590551181102,
                    "duration": 0.4958333333333371
                },
                {
                    "name": "B4",
                    "midi": 71,
                    "time": 113.25,
                    "velocity": 0.2992125984251969,
                    "duration": 0.24583333333333712
                },
                {
                    "name": "D4",
                    "midi": 62,
                    "time": 113.25,
                    "velocity": 0.2047244094488189,
                    "duration": 0.24583333333333712
                },
                {
                    "name": "C2",
                    "midi": 36,
                    "time": 113.5,
                    "velocity": 0.44881889763779526,
                    "duration": 0.4958333333333371
                },
                {
                    "name": "C#4",
                    "midi": 61,
                    "time": 113.5,
                    "velocity": 0.2283464566929134,
                    "duration": 0.24583333333333712
                },
                {
                    "name": "E4",
                    "midi": 64,
                    "time": 113.5,
                    "velocity": 0.3937007874015748,
                    "duration": 0.4958333333333371
                },
                {
                    "name": "A4",
                    "midi": 69,
                    "time": 113.5,
                    "velocity": 0.5354330708661418,
                    "duration": 0.4958333333333371
                },
                {
                    "name": "C5",
                    "midi": 72,
                    "time": 113.75,
                    "velocity": 0.31496062992125984,
                    "duration": 0.24583333333333712
                },
                {
                    "name": "C4",
                    "midi": 60,
                    "time": 113.75,
                    "velocity": 0.18110236220472442,
                    "duration": 0.24583333333333712
                },
                {
                    "name": "F#2",
                    "midi": 42,
                    "time": 114,
                    "velocity": 0.1968503937007874,
                    "duration": 0.4958333333333371
                },
                {
                    "name": "A#2",
                    "midi": 46,
                    "time": 114,
                    "velocity": 0.2283464566929134,
                    "duration": 0.4958333333333371
                },
                {
                    "name": "E3",
                    "midi": 52,
                    "time": 114,
                    "velocity": 0.18110236220472442,
                    "duration": 0.4958333333333371
                },
                {
                    "name": "B3",
                    "midi": 59,
                    "time": 114,
                    "velocity": 0.3543307086614173,
                    "duration": 0.24583333333333712
                },
                {
                    "name": "D4",
                    "midi": 62,
                    "time": 114,
                    "velocity": 0.4330708661417323,
                    "duration": 0.4958333333333371
                },
                {
                    "name": "G4",
                    "midi": 67,
                    "time": 114,
                    "velocity": 0.49606299212598426,
                    "duration": 0.4958333333333371
                },
                {
                    "name": "A#4",
                    "midi": 70,
                    "time": 114.25,
                    "velocity": 0.25196850393700787,
                    "duration": 0.24583333333333712
                },
                {
                    "name": "A#3",
                    "midi": 58,
                    "time": 114.25,
                    "velocity": 0.2047244094488189,
                    "duration": 0.24583333333333712
                },
                {
                    "name": "C2",
                    "midi": 36,
                    "time": 114.5,
                    "velocity": 0.41732283464566927,
                    "duration": 0.4958333333333371
                },
                {
                    "name": "A3",
                    "midi": 57,
                    "time": 114.5,
                    "velocity": 0.3228346456692913,
                    "duration": 0.24583333333333712
                },
                {
                    "name": "A4",
                    "midi": 69,
                    "time": 114.5,
                    "velocity": 0.49606299212598426,
                    "duration": 0.24583333333333712
                },
                {
                    "name": "D4",
                    "midi": 62,
                    "time": 114.75,
                    "velocity": 0.2125984251968504,
                    "duration": 0.24583333333333712
                },
                {
                    "name": "B4",
                    "midi": 71,
                    "time": 114.75,
                    "velocity": 0.5354330708661418,
                    "duration": 0.24583333333333712
                },
                {
                    "name": "B2",
                    "midi": 47,
                    "time": 115,
                    "velocity": 0.23622047244094488,
                    "duration": 0.4958333333333371
                },
                {
                    "name": "E3",
                    "midi": 52,
                    "time": 115,
                    "velocity": 0.25196850393700787,
                    "duration": 0.4958333333333371
                },
                {
                    "name": "G#2",
                    "midi": 44,
                    "time": 115,
                    "velocity": 0.2047244094488189,
                    "duration": 0.4958333333333371
                },
                {
                    "name": "C#4",
                    "midi": 61,
                    "time": 115,
                    "velocity": 0.2992125984251969,
                    "duration": 0.24583333333333712
                },
                {
                    "name": "E4",
                    "midi": 64,
                    "time": 115,
                    "velocity": 0.5354330708661418,
                    "duration": 0.4958333333333371
                },
                {
                    "name": "C4",
                    "midi": 60,
                    "time": 115.25,
                    "velocity": 0.23622047244094488,
                    "duration": 0.24583333333333712
                },
                {
                    "name": "G#2",
                    "midi": 44,
                    "time": 115.5,
                    "velocity": 0.28346456692913385,
                    "duration": 0.4958333333333371
                },
                {
                    "name": "B3",
                    "midi": 59,
                    "time": 115.5,
                    "velocity": 0.2125984251968504,
                    "duration": 0.24583333333333712
                },
                {
                    "name": "E4",
                    "midi": 64,
                    "time": 115.5,
                    "velocity": 0.5039370078740157,
                    "duration": 0.4958333333333371
                },
                {
                    "name": "A#3",
                    "midi": 58,
                    "time": 115.75,
                    "velocity": 0.33858267716535434,
                    "duration": 0.24583333333333712
                },
                {
                    "name": "C2",
                    "midi": 36,
                    "time": 116,
                    "velocity": 0.2677165354330709,
                    "duration": 0.4958333333333371
                },
                {
                    "name": "A3",
                    "midi": 57,
                    "time": 116,
                    "velocity": 0.3779527559055118,
                    "duration": 0.24583333333333712
                },
                {
                    "name": "D#4",
                    "midi": 63,
                    "time": 116,
                    "velocity": 0.3543307086614173,
                    "duration": 0.4958333333333371
                },
                {
                    "name": "G4",
                    "midi": 67,
                    "time": 116,
                    "velocity": 0.5039370078740157,
                    "duration": 0.4958333333333371
                },
                {
                    "name": "C5",
                    "midi": 72,
                    "time": 116.25,
                    "velocity": 0.2125984251968504,
                    "duration": 0.24583333333333712
                },
                {
                    "name": "A#3",
                    "midi": 58,
                    "time": 116.25,
                    "velocity": 0.25984251968503935,
                    "duration": 0.24583333333333712
                },
                {
                    "name": "B2",
                    "midi": 47,
                    "time": 116.5,
                    "velocity": 0.2440944881889764,
                    "duration": 0.4958333333333371
                },
                {
                    "name": "D#3",
                    "midi": 51,
                    "time": 116.5,
                    "velocity": 0.2047244094488189,
                    "duration": 0.4958333333333371
                },
                {
                    "name": "F#2",
                    "midi": 42,
                    "time": 116.5,
                    "velocity": 0.1889763779527559,
                    "duration": 0.4958333333333371
                },
                {
                    "name": "B3",
                    "midi": 59,
                    "time": 116.5,
                    "velocity": 0.23622047244094488,
                    "duration": 0.24583333333333712
                },
                {
                    "name": "D#4",
                    "midi": 63,
                    "time": 116.5,
                    "velocity": 0.33858267716535434,
                    "duration": 0.4958333333333371
                },
                {
                    "name": "F#4",
                    "midi": 66,
                    "time": 116.5,
                    "velocity": 0.5039370078740157,
                    "duration": 0.4958333333333371
                },
                {
                    "name": "A#4",
                    "midi": 70,
                    "time": 116.75,
                    "velocity": 0.29133858267716534,
                    "duration": 0.24583333333333712
                },
                {
                    "name": "A#3",
                    "midi": 58,
                    "time": 116.75,
                    "velocity": 0.25984251968503935,
                    "duration": 0.24583333333333712
                },
                {
                    "name": "C2",
                    "midi": 36,
                    "time": 117,
                    "velocity": 0.29133858267716534,
                    "duration": 0.4958333333333371
                },
                {
                    "name": "A3",
                    "midi": 57,
                    "time": 117,
                    "velocity": 0.2047244094488189,
                    "duration": 0.24583333333333712
                },
                {
                    "name": "C#4",
                    "midi": 61,
                    "time": 117,
                    "velocity": 0.2755905511811024,
                    "duration": 0.4958333333333371
                },
                {
                    "name": "E4",
                    "midi": 64,
                    "time": 117,
                    "velocity": 0.4566929133858268,
                    "duration": 0.4958333333333371
                },
                {
                    "name": "G#4",
                    "midi": 68,
                    "time": 117.25,
                    "velocity": 0.2677165354330709,
                    "duration": 0.24583333333333712
                },
                {
                    "name": "G#3",
                    "midi": 56,
                    "time": 117.25,
                    "velocity": 0.2283464566929134,
                    "duration": 0.24583333333333712
                },
                {
                    "name": "A#2",
                    "midi": 46,
                    "time": 117.5,
                    "velocity": 0.25196850393700787,
                    "duration": 0.4958333333333371
                },
                {
                    "name": "F#2",
                    "midi": 42,
                    "time": 117.5,
                    "velocity": 0.2440944881889764,
                    "duration": 0.4958333333333371
                },
                {
                    "name": "E3",
                    "midi": 52,
                    "time": 117.5,
                    "velocity": 0.2125984251968504,
                    "duration": 0.4958333333333371
                },
                {
                    "name": "G3",
                    "midi": 55,
                    "time": 117.5,
                    "velocity": 0.28346456692913385,
                    "duration": 0.24583333333333712
                },
                {
                    "name": "B3",
                    "midi": 59,
                    "time": 117.5,
                    "velocity": 0.4330708661417323,
                    "duration": 0.4958333333333371
                },
                {
                    "name": "D4",
                    "midi": 62,
                    "time": 117.5,
                    "velocity": 0.5354330708661418,
                    "duration": 0.4958333333333371
                },
                {
                    "name": "F#4",
                    "midi": 66,
                    "time": 117.75,
                    "velocity": 0.3228346456692913,
                    "duration": 0.24583333333333712
                },
                {
                    "name": "F#3",
                    "midi": 54,
                    "time": 117.75,
                    "velocity": 0.2755905511811024,
                    "duration": 0.24583333333333712
                },
                {
                    "name": "C#2",
                    "midi": 37,
                    "time": 118,
                    "velocity": 0.3228346456692913,
                    "duration": 0.9958333333333371
                },
                {
                    "name": "C#3",
                    "midi": 49,
                    "time": 118,
                    "velocity": 0.3464566929133858,
                    "duration": 0.9958333333333371
                },
                {
                    "name": "E3",
                    "midi": 52,
                    "time": 118,
                    "velocity": 0.4094488188976378,
                    "duration": 0.24583333333333712
                },
                {
                    "name": "E4",
                    "midi": 64,
                    "time": 118,
                    "velocity": 0.4881889763779528,
                    "duration": 0.24583333333333712
                },
                {
                    "name": "A#3",
                    "midi": 58,
                    "time": 118.25,
                    "velocity": 0.3228346456692913,
                    "duration": 0.24583333333333712
                },
                {
                    "name": "F#4",
                    "midi": 66,
                    "time": 118.25,
                    "velocity": 0.5039370078740157,
                    "duration": 0.24583333333333712
                },
                {
                    "name": "A3",
                    "midi": 57,
                    "time": 118.5,
                    "velocity": 0.33070866141732286,
                    "duration": 0.24583333333333712
                },
                {
                    "name": "C#4",
                    "midi": 61,
                    "time": 118.5,
                    "velocity": 0.4881889763779528,
                    "duration": 0.4958333333333371
                },
                {
                    "name": "G#3",
                    "midi": 56,
                    "time": 118.75,
                    "velocity": 0.31496062992125984,
                    "duration": 0.24583333333333712
                },
                {
                    "name": "A#2",
                    "midi": 46,
                    "time": 119,
                    "velocity": 0.30708661417322836,
                    "duration": 0.9958333333333371
                },
                {
                    "name": "A#1",
                    "midi": 34,
                    "time": 119,
                    "velocity": 0.41732283464566927,
                    "duration": 0.9958333333333371
                },
                {
                    "name": "G3",
                    "midi": 55,
                    "time": 119,
                    "velocity": 0.4094488188976378,
                    "duration": 0.24583333333333712
                },
                {
                    "name": "E4",
                    "midi": 64,
                    "time": 119,
                    "velocity": 0.31496062992125984,
                    "duration": 0.24583333333333712
                },
                {
                    "name": "C#4",
                    "midi": 61,
                    "time": 119,
                    "velocity": 0.48031496062992124,
                    "duration": 0.4958333333333371
                },
                {
                    "name": "F#3",
                    "midi": 54,
                    "time": 119.25,
                    "velocity": 0.3543307086614173,
                    "duration": 0.24583333333333712
                },
                {
                    "name": "E4",
                    "midi": 64,
                    "time": 119.25,
                    "velocity": 0.3543307086614173,
                    "duration": 0.24583333333333712
                },
                {
                    "name": "F3",
                    "midi": 53,
                    "time": 119.5,
                    "velocity": 0.3228346456692913,
                    "duration": 0.24583333333333712
                },
                {
                    "name": "F3",
                    "midi": 53,
                    "time": 119.5,
                    "velocity": 0.33070866141732286,
                    "duration": 0.24583333333333712
                },
                {
                    "name": "C#4",
                    "midi": 61,
                    "time": 119.5,
                    "velocity": 0.29133858267716534,
                    "duration": 0.24583333333333712
                },
                {
                    "name": "E3",
                    "midi": 52,
                    "time": 119.75,
                    "velocity": 0.3937007874015748,
                    "duration": 0.24583333333333712
                },
                {
                    "name": "C#4",
                    "midi": 61,
                    "time": 119.75,
                    "velocity": 0.2440944881889764,
                    "duration": 0.24583333333333712
                },
                {
                    "name": "E3",
                    "midi": 52,
                    "time": 119.75,
                    "velocity": 0.3700787401574803,
                    "duration": 0.24583333333333712
                },
                {
                    "name": "F3",
                    "midi": 53,
                    "time": 120,
                    "velocity": 0.33858267716535434,
                    "duration": 0.7458333333333371
                },
                {
                    "name": "B2",
                    "midi": 47,
                    "time": 120,
                    "velocity": 0.4409448818897638,
                    "duration": 0.9958333333333371
                },
                {
                    "name": "B1",
                    "midi": 35,
                    "time": 120,
                    "velocity": 0.25196850393700787,
                    "duration": 0.9958333333333371
                },
                {
                    "name": "D#4",
                    "midi": 63,
                    "time": 120,
                    "velocity": 0.2755905511811024,
                    "duration": 0.24583333333333712
                },
                {
                    "name": "D#4",
                    "midi": 63,
                    "time": 120.25,
                    "velocity": 0.25984251968503935,
                    "duration": 0.24583333333333712
                },
                {
                    "name": "B3",
                    "midi": 59,
                    "time": 120.5,
                    "velocity": 0.3779527559055118,
                    "duration": 0.24583333333333712
                },
                {
                    "name": "F3",
                    "midi": 53,
                    "time": 120.75,
                    "velocity": 0.3700787401574803,
                    "duration": 0.24583333333333712
                },
                {
                    "name": "B3",
                    "midi": 59,
                    "time": 120.75,
                    "velocity": 0.1889763779527559,
                    "duration": 0.24583333333333712
                },
                {
                    "name": "F3",
                    "midi": 53,
                    "time": 121,
                    "velocity": 0.36220472440944884,
                    "duration": 0.9958333333333371
                },
                {
                    "name": "G#2",
                    "midi": 44,
                    "time": 121,
                    "velocity": 0.3779527559055118,
                    "duration": 0.9958333333333371
                },
                {
                    "name": "G#1",
                    "midi": 32,
                    "time": 121,
                    "velocity": 0.25984251968503935,
                    "duration": 0.9958333333333371
                },
                {
                    "name": "C#4",
                    "midi": 61,
                    "time": 121,
                    "velocity": 0.33070866141732286,
                    "duration": 0.24583333333333712
                },
                {
                    "name": "C#4",
                    "midi": 61,
                    "time": 121.25,
                    "velocity": 0.23622047244094488,
                    "duration": 0.24583333333333712
                },
                {
                    "name": "D#4",
                    "midi": 63,
                    "time": 121.5,
                    "velocity": 0.3779527559055118,
                    "duration": 0.24583333333333712
                },
                {
                    "name": "D#4",
                    "midi": 63,
                    "time": 121.75,
                    "velocity": 0.2992125984251969,
                    "duration": 0.24583333333333712
                },
                {
                    "name": "F#3",
                    "midi": 54,
                    "time": 122,
                    "velocity": 0.3543307086614173,
                    "duration": 1.9958333333333371
                },
                {
                    "name": "A#2",
                    "midi": 46,
                    "time": 122,
                    "velocity": 0.3228346456692913,
                    "duration": 0.9958333333333371
                },
                {
                    "name": "A#1",
                    "midi": 34,
                    "time": 122,
                    "velocity": 0.2047244094488189,
                    "duration": 0.9958333333333371
                },
                {
                    "name": "E4",
                    "midi": 64,
                    "time": 122,
                    "velocity": 0.2047244094488189,
                    "duration": 0.24583333333333712
                },
                {
                    "name": "E4",
                    "midi": 64,
                    "time": 122.25,
                    "velocity": 0.25984251968503935,
                    "duration": 0.24583333333333712
                },
                {
                    "name": "C#4",
                    "midi": 61,
                    "time": 122.5,
                    "velocity": 0.25984251968503935,
                    "duration": 0.24583333333333712
                },
                {
                    "name": "C#4",
                    "midi": 61,
                    "time": 122.75,
                    "velocity": 0.1732283464566929,
                    "duration": 0.24583333333333712
                },
                {
                    "name": "B2",
                    "midi": 47,
                    "time": 123,
                    "velocity": 0.4094488188976378,
                    "duration": 0.9958333333333371
                },
                {
                    "name": "B1",
                    "midi": 35,
                    "time": 123,
                    "velocity": 0.2677165354330709,
                    "duration": 0.9958333333333371
                },
                {
                    "name": "D#4",
                    "midi": 63,
                    "time": 123,
                    "velocity": 0.41732283464566927,
                    "duration": 0.24583333333333712
                },
                {
                    "name": "D#4",
                    "midi": 63,
                    "time": 123.25,
                    "velocity": 0.2755905511811024,
                    "duration": 0.24583333333333712
                },
                {
                    "name": "B3",
                    "midi": 59,
                    "time": 123.5,
                    "velocity": 0.3543307086614173,
                    "duration": 0.24583333333333712
                },
                {
                    "name": "B3",
                    "midi": 59,
                    "time": 123.75,
                    "velocity": 0.25984251968503935,
                    "duration": 0.24583333333333712
                },
                {
                    "name": "G3",
                    "midi": 55,
                    "time": 124,
                    "velocity": 0.44881889763779526,
                    "duration": 0.7458333333333371
                },
                {
                    "name": "C#3",
                    "midi": 49,
                    "time": 124,
                    "velocity": 0.28346456692913385,
                    "duration": 0.9958333333333371
                },
                {
                    "name": "C#2",
                    "midi": 37,
                    "time": 124,
                    "velocity": 0.2755905511811024,
                    "duration": 0.9958333333333371
                },
                {
                    "name": "C#4",
                    "midi": 61,
                    "time": 124,
                    "velocity": 0.3700787401574803,
                    "duration": 0.24583333333333712
                },
                {
                    "name": "C#4",
                    "midi": 61,
                    "time": 124.25,
                    "velocity": 0.3700787401574803,
                    "duration": 0.24583333333333712
                },
                {
                    "name": "A#3",
                    "midi": 58,
                    "time": 124.5,
                    "velocity": 0.3543307086614173,
                    "duration": 0.24583333333333712
                },
                {
                    "name": "G3",
                    "midi": 55,
                    "time": 124.75,
                    "velocity": 0.4330708661417323,
                    "duration": 0.24583333333333712
                },
                {
                    "name": "A#3",
                    "midi": 58,
                    "time": 124.75,
                    "velocity": 0.25984251968503935,
                    "duration": 0.24583333333333712
                },
                {
                    "name": "G3",
                    "midi": 55,
                    "time": 125,
                    "velocity": 0.36220472440944884,
                    "duration": 0.9958333333333371
                },
                {
                    "name": "A#2",
                    "midi": 46,
                    "time": 125,
                    "velocity": 0.3543307086614173,
                    "duration": 0.9958333333333371
                },
                {
                    "name": "A#1",
                    "midi": 34,
                    "time": 125,
                    "velocity": 0.25196850393700787,
                    "duration": 0.9958333333333371
                },
                {
                    "name": "B3",
                    "midi": 59,
                    "time": 125,
                    "velocity": 0.4566929133858268,
                    "duration": 0.24583333333333712
                },
                {
                    "name": "B3",
                    "midi": 59,
                    "time": 125.25,
                    "velocity": 0.1968503937007874,
                    "duration": 0.24583333333333712
                },
                {
                    "name": "C#4",
                    "midi": 61,
                    "time": 125.5,
                    "velocity": 0.31496062992125984,
                    "duration": 0.24583333333333712
                },
                {
                    "name": "C#4",
                    "midi": 61,
                    "time": 125.75,
                    "velocity": 0.2047244094488189,
                    "duration": 0.24583333333333712
                },
                {
                    "name": "G#3",
                    "midi": 56,
                    "time": 126,
                    "velocity": 0.3937007874015748,
                    "duration": 1.9958333333333371
                },
                {
                    "name": "B2",
                    "midi": 47,
                    "time": 126,
                    "velocity": 0.2677165354330709,
                    "duration": 0.9958333333333371
                },
                {
                    "name": "B1",
                    "midi": 35,
                    "time": 126,
                    "velocity": 0.2283464566929134,
                    "duration": 0.9958333333333371
                },
                {
                    "name": "D#4",
                    "midi": 63,
                    "time": 126,
                    "velocity": 0.4094488188976378,
                    "duration": 0.24583333333333712
                },
                {
                    "name": "D#4",
                    "midi": 63,
                    "time": 126.25,
                    "velocity": 0.2755905511811024,
                    "duration": 0.24583333333333712
                },
                {
                    "name": "B3",
                    "midi": 59,
                    "time": 126.5,
                    "velocity": 0.31496062992125984,
                    "duration": 0.24583333333333712
                },
                {
                    "name": "B3",
                    "midi": 59,
                    "time": 126.75,
                    "velocity": 0.25196850393700787,
                    "duration": 0.24583333333333712
                },
                {
                    "name": "G#2",
                    "midi": 44,
                    "time": 127,
                    "velocity": 0.2047244094488189,
                    "duration": 0.9958333333333371
                },
                {
                    "name": "G#1",
                    "midi": 32,
                    "time": 127,
                    "velocity": 0.18110236220472442,
                    "duration": 0.9958333333333371
                },
                {
                    "name": "D#4",
                    "midi": 63,
                    "time": 127,
                    "velocity": 0.36220472440944884,
                    "duration": 0.24583333333333712
                },
                {
                    "name": "D#4",
                    "midi": 63,
                    "time": 127.25,
                    "velocity": 0.18110236220472442,
                    "duration": 0.24583333333333712
                },
                {
                    "name": "B3",
                    "midi": 59,
                    "time": 127.5,
                    "velocity": 0.33858267716535434,
                    "duration": 0.24583333333333712
                },
                {
                    "name": "B3",
                    "midi": 59,
                    "time": 127.75,
                    "velocity": 0.28346456692913385,
                    "duration": 0.24583333333333712
                },
                {
                    "name": "D#3",
                    "midi": 51,
                    "time": 128,
                    "velocity": 0.3700787401574803,
                    "duration": 0.7458333333333371
                },
                {
                    "name": "A#2",
                    "midi": 46,
                    "time": 128,
                    "velocity": 0.2677165354330709,
                    "duration": 0.9958333333333371
                },
                {
                    "name": "A#1",
                    "midi": 34,
                    "time": 128,
                    "velocity": 0.1968503937007874,
                    "duration": 0.9958333333333371
                },
                {
                    "name": "C#4",
                    "midi": 61,
                    "time": 128,
                    "velocity": 0.33858267716535434,
                    "duration": 0.24583333333333712
                },
                {
                    "name": "C#4",
                    "midi": 61,
                    "time": 128.25,
                    "velocity": 0.1968503937007874,
                    "duration": 0.24583333333333712
                },
                {
                    "name": "A#3",
                    "midi": 58,
                    "time": 128.5,
                    "velocity": 0.31496062992125984,
                    "duration": 0.24583333333333712
                },
                {
                    "name": "D#3",
                    "midi": 51,
                    "time": 128.75,
                    "velocity": 0.3700787401574803,
                    "duration": 0.24583333333333712
                },
                {
                    "name": "A#3",
                    "midi": 58,
                    "time": 128.75,
                    "velocity": 0.1889763779527559,
                    "duration": 0.24583333333333712
                },
                {
                    "name": "D#3",
                    "midi": 51,
                    "time": 129,
                    "velocity": 0.36220472440944884,
                    "duration": 0.9958333333333371
                },
                {
                    "name": "F#1",
                    "midi": 30,
                    "time": 129,
                    "velocity": 0.2204724409448819,
                    "duration": 0.9958333333333371
                },
                {
                    "name": "F#2",
                    "midi": 42,
                    "time": 129,
                    "velocity": 0.2677165354330709,
                    "duration": 0.9958333333333371
                },
                {
                    "name": "B3",
                    "midi": 59,
                    "time": 129,
                    "velocity": 0.3700787401574803,
                    "duration": 0.24583333333333712
                },
                {
                    "name": "B3",
                    "midi": 59,
                    "time": 129.25,
                    "velocity": 0.23622047244094488,
                    "duration": 0.24583333333333712
                },
                {
                    "name": "C#4",
                    "midi": 61,
                    "time": 129.5,
                    "velocity": 0.2677165354330709,
                    "duration": 0.24583333333333712
                },
                {
                    "name": "C#4",
                    "midi": 61,
                    "time": 129.75,
                    "velocity": 0.2204724409448819,
                    "duration": 0.24583333333333712
                },
                {
                    "name": "E3",
                    "midi": 52,
                    "time": 130,
                    "velocity": 0.4330708661417323,
                    "duration": 1.9958333333333371
                },
                {
                    "name": "G#2",
                    "midi": 44,
                    "time": 130,
                    "velocity": 0.2755905511811024,
                    "duration": 0.9958333333333371
                },
                {
                    "name": "G#1",
                    "midi": 32,
                    "time": 130,
                    "velocity": 0.1732283464566929,
                    "duration": 0.9958333333333371
                },
                {
                    "name": "D#4",
                    "midi": 63,
                    "time": 130,
                    "velocity": 0.3937007874015748,
                    "duration": 0.24583333333333712
                },
                {
                    "name": "D#4",
                    "midi": 63,
                    "time": 130.25,
                    "velocity": 0.23622047244094488,
                    "duration": 0.24583333333333712
                },
                {
                    "name": "B3",
                    "midi": 59,
                    "time": 130.5,
                    "velocity": 0.18110236220472442,
                    "duration": 0.24583333333333712
                },
                {
                    "name": "B3",
                    "midi": 59,
                    "time": 130.75,
                    "velocity": 0.1889763779527559,
                    "duration": 0.24583333333333712
                },
                {
                    "name": "A#1",
                    "midi": 34,
                    "time": 131,
                    "velocity": 0.2125984251968504,
                    "duration": 0.9958333333333371
                },
                {
                    "name": "A#2",
                    "midi": 46,
                    "time": 131,
                    "velocity": 0.28346456692913385,
                    "duration": 0.9958333333333371
                },
                {
                    "name": "C#4",
                    "midi": 61,
                    "time": 131,
                    "velocity": 0.3543307086614173,
                    "duration": 0.24583333333333712
                },
                {
                    "name": "C#4",
                    "midi": 61,
                    "time": 131.25,
                    "velocity": 0.2755905511811024,
                    "duration": 0.24583333333333712
                },
                {
                    "name": "A#3",
                    "midi": 58,
                    "time": 131.5,
                    "velocity": 0.36220472440944884,
                    "duration": 0.24583333333333712
                },
                {
                    "name": "A#3",
                    "midi": 58,
                    "time": 131.75,
                    "velocity": 0.2125984251968504,
                    "duration": 0.24583333333333712
                },
                {
                    "name": "F3",
                    "midi": 53,
                    "time": 132,
                    "velocity": 0.44881889763779526,
                    "duration": 0.7458333333333371
                },
                {
                    "name": "B2",
                    "midi": 47,
                    "time": 132,
                    "velocity": 0.2992125984251969,
                    "duration": 0.9958333333333371
                },
                {
                    "name": "B1",
                    "midi": 35,
                    "time": 132,
                    "velocity": 0.2440944881889764,
                    "duration": 0.9958333333333371
                },
                {
                    "name": "B3",
                    "midi": 59,
                    "time": 132,
                    "velocity": 0.4330708661417323,
                    "duration": 0.24583333333333712
                },
                {
                    "name": "B3",
                    "midi": 59,
                    "time": 132.25,
                    "velocity": 0.33070866141732286,
                    "duration": 0.24583333333333712
                },
                {
                    "name": "G#3",
                    "midi": 56,
                    "time": 132.5,
                    "velocity": 0.2755905511811024,
                    "duration": 0.24583333333333712
                },
                {
                    "name": "F3",
                    "midi": 53,
                    "time": 132.75,
                    "velocity": 0.4330708661417323,
                    "duration": 0.24583333333333712
                },
                {
                    "name": "G#3",
                    "midi": 56,
                    "time": 132.75,
                    "velocity": 0.1889763779527559,
                    "duration": 0.24583333333333712
                },
                {
                    "name": "F3",
                    "midi": 53,
                    "time": 133,
                    "velocity": 0.36220472440944884,
                    "duration": 0.9958333333333371
                },
                {
                    "name": "G#1",
                    "midi": 32,
                    "time": 133,
                    "velocity": 0.2047244094488189,
                    "duration": 0.9958333333333371
                },
                {
                    "name": "G#2",
                    "midi": 44,
                    "time": 133,
                    "velocity": 0.23622047244094488,
                    "duration": 0.9958333333333371
                },
                {
                    "name": "A#3",
                    "midi": 58,
                    "time": 133,
                    "velocity": 0.3779527559055118,
                    "duration": 0.24583333333333712
                },
                {
                    "name": "A#3",
                    "midi": 58,
                    "time": 133.25,
                    "velocity": 0.2992125984251969,
                    "duration": 0.24583333333333712
                },
                {
                    "name": "B3",
                    "midi": 59,
                    "time": 133.5,
                    "velocity": 0.3700787401574803,
                    "duration": 0.24583333333333712
                },
                {
                    "name": "B3",
                    "midi": 59,
                    "time": 133.75,
                    "velocity": 0.2440944881889764,
                    "duration": 0.24583333333333712
                },
                {
                    "name": "F#3",
                    "midi": 54,
                    "time": 134,
                    "velocity": 0.3700787401574803,
                    "duration": 0.9958333333333371
                },
                {
                    "name": "A#2",
                    "midi": 46,
                    "time": 134,
                    "velocity": 0.2677165354330709,
                    "duration": 0.9958333333333371
                },
                {
                    "name": "A#1",
                    "midi": 34,
                    "time": 134,
                    "velocity": 0.2047244094488189,
                    "duration": 0.9958333333333371
                },
                {
                    "name": "C#4",
                    "midi": 61,
                    "time": 134,
                    "velocity": 0.33858267716535434,
                    "duration": 0.24583333333333712
                },
                {
                    "name": "C#4",
                    "midi": 61,
                    "time": 134.25,
                    "velocity": 0.2047244094488189,
                    "duration": 0.24583333333333712
                },
                {
                    "name": "A#3",
                    "midi": 58,
                    "time": 134.5,
                    "velocity": 0.28346456692913385,
                    "duration": 0.24583333333333712
                },
                {
                    "name": "A#3",
                    "midi": 58,
                    "time": 134.75,
                    "velocity": 0.2440944881889764,
                    "duration": 0.24583333333333712
                },
                {
                    "name": "G#4",
                    "midi": 68,
                    "time": 135,
                    "velocity": 0.5748031496062992,
                    "duration": 0.7458333333333371
                },
                {
                    "name": "F#1",
                    "midi": 30,
                    "time": 135,
                    "velocity": 0.2047244094488189,
                    "duration": 0.9958333333333371
                },
                {
                    "name": "F#2",
                    "midi": 42,
                    "time": 135,
                    "velocity": 0.28346456692913385,
                    "duration": 0.9958333333333371
                },
                {
                    "name": "E4",
                    "midi": 64,
                    "time": 135,
                    "velocity": 0.3543307086614173,
                    "duration": 0.24583333333333712
                },
                {
                    "name": "E4",
                    "midi": 64,
                    "time": 135.25,
                    "velocity": 0.15748031496062992,
                    "duration": 0.24583333333333712
                },
                {
                    "name": "C#4",
                    "midi": 61,
                    "time": 135.5,
                    "velocity": 0.2125984251968504,
                    "duration": 0.24583333333333712
                },
                {
                    "name": "D#5",
                    "midi": 75,
                    "time": 135.75,
                    "velocity": 0.5905511811023622,
                    "duration": 0.24583333333333712
                },
                {
                    "name": "G#4",
                    "midi": 68,
                    "time": 135.75,
                    "velocity": 0.47244094488188976,
                    "duration": 0.24583333333333712
                },
                {
                    "name": "C#4",
                    "midi": 61,
                    "time": 135.75,
                    "velocity": 0.18110236220472442,
                    "duration": 0.24583333333333712
                },
                {
                    "name": "B2",
                    "midi": 47,
                    "time": 136,
                    "velocity": 0.25984251968503935,
                    "duration": 0.24583333333333712
                },
                {
                    "name": "G#4",
                    "midi": 68,
                    "time": 136,
                    "velocity": 0.5984251968503937,
                    "duration": 2.995833333333337
                },
                {
                    "name": "G#2",
                    "midi": 44,
                    "time": 136,
                    "velocity": 0.33070866141732286,
                    "duration": 3.995833333333337
                },
                {
                    "name": "D#4",
                    "midi": 63,
                    "time": 136,
                    "velocity": 0.3543307086614173,
                    "duration": 0.24583333333333712
                },
                {
                    "name": "D#3",
                    "midi": 51,
                    "time": 136.25,
                    "velocity": 0.25984251968503935,
                    "duration": 0.24583333333333712
                },
                {
                    "name": "D#4",
                    "midi": 63,
                    "time": 136.25,
                    "velocity": 0.1732283464566929,
                    "duration": 0.24583333333333712
                },
                {
                    "name": "E3",
                    "midi": 52,
                    "time": 136.5,
                    "velocity": 0.36220472440944884,
                    "duration": 0.24583333333333712
                },
                {
                    "name": "B3",
                    "midi": 59,
                    "time": 136.5,
                    "velocity": 0.25984251968503935,
                    "duration": 0.24583333333333712
                },
                {
                    "name": "D#3",
                    "midi": 51,
                    "time": 136.75,
                    "velocity": 0.3779527559055118,
                    "duration": 0.24583333333333712
                },
                {
                    "name": "B3",
                    "midi": 59,
                    "time": 136.75,
                    "velocity": 0.2677165354330709,
                    "duration": 0.24583333333333712
                },
                {
                    "name": "G3",
                    "midi": 55,
                    "time": 137,
                    "velocity": 0.3543307086614173,
                    "duration": 0.24583333333333712
                },
                {
                    "name": "C#4",
                    "midi": 61,
                    "time": 137,
                    "velocity": 0.41732283464566927,
                    "duration": 0.24583333333333712
                },
                {
                    "name": "F#3",
                    "midi": 54,
                    "time": 137.25,
                    "velocity": 0.4330708661417323,
                    "duration": 0.24583333333333712
                },
                {
                    "name": "C#4",
                    "midi": 61,
                    "time": 137.25,
                    "velocity": 0.33858267716535434,
                    "duration": 0.24583333333333712
                },
                {
                    "name": "A#3",
                    "midi": 58,
                    "time": 137.5,
                    "velocity": 0.3779527559055118,
                    "duration": 0.24583333333333712
                },
                {
                    "name": "D#4",
                    "midi": 63,
                    "time": 137.5,
                    "velocity": 0.4094488188976378,
                    "duration": 0.24583333333333712
                },
                {
                    "name": "A3",
                    "midi": 57,
                    "time": 137.75,
                    "velocity": 0.3543307086614173,
                    "duration": 0.24583333333333712
                },
                {
                    "name": "D#4",
                    "midi": 63,
                    "time": 137.75,
                    "velocity": 0.23622047244094488,
                    "duration": 0.24583333333333712
                },
                {
                    "name": "C4",
                    "midi": 60,
                    "time": 138,
                    "velocity": 0.48031496062992124,
                    "duration": 0.24583333333333712
                },
                {
                    "name": "E4",
                    "midi": 64,
                    "time": 138,
                    "velocity": 0.2755905511811024,
                    "duration": 0.24583333333333712
                },
                {
                    "name": "B3",
                    "midi": 59,
                    "time": 138.25,
                    "velocity": 0.25984251968503935,
                    "duration": 0.24583333333333712
                },
                {
                    "name": "E4",
                    "midi": 64,
                    "time": 138.25,
                    "velocity": 0.1732283464566929,
                    "duration": 0.24583333333333712
                },
                {
                    "name": "A#3",
                    "midi": 58,
                    "time": 138.5,
                    "velocity": 0.3779527559055118,
                    "duration": 0.24583333333333712
                },
                {
                    "name": "C#4",
                    "midi": 61,
                    "time": 138.5,
                    "velocity": 0.3543307086614173,
                    "duration": 0.24583333333333712
                },
                {
                    "name": "D#3",
                    "midi": 51,
                    "time": 138.75,
                    "velocity": 0.2992125984251969,
                    "duration": 0.24583333333333712
                },
                {
                    "name": "C#4",
                    "midi": 61,
                    "time": 138.75,
                    "velocity": 0.31496062992125984,
                    "duration": 0.24583333333333712
                },
                {
                    "name": "B3",
                    "midi": 59,
                    "time": 139,
                    "velocity": 0.2992125984251969,
                    "duration": 0.24583333333333712
                },
                {
                    "name": "G4",
                    "midi": 67,
                    "time": 139,
                    "velocity": 0.6220472440944882,
                    "duration": 0.9958333333333371
                },
                {
                    "name": "D#4",
                    "midi": 63,
                    "time": 139,
                    "velocity": 0.4409448818897638,
                    "duration": 0.24583333333333712
                },
                {
                    "name": "A#3",
                    "midi": 58,
                    "time": 139.25,
                    "velocity": 0.2755905511811024,
                    "duration": 0.24583333333333712
                },
                {
                    "name": "D#4",
                    "midi": 63,
                    "time": 139.25,
                    "velocity": 0.33070866141732286,
                    "duration": 0.24583333333333712
                },
                {
                    "name": "A3",
                    "midi": 57,
                    "time": 139.5,
                    "velocity": 0.25984251968503935,
                    "duration": 0.24583333333333712
                },
                {
                    "name": "B3",
                    "midi": 59,
                    "time": 139.5,
                    "velocity": 0.25984251968503935,
                    "duration": 0.24583333333333712
                },
                {
                    "name": "D#3",
                    "midi": 51,
                    "time": 139.75,
                    "velocity": 0.2125984251968504,
                    "duration": 0.24583333333333712
                },
                {
                    "name": "B3",
                    "midi": 59,
                    "time": 139.75,
                    "velocity": 0.2047244094488189,
                    "duration": 0.24583333333333712
                },
                {
                    "name": "E3",
                    "midi": 52,
                    "time": 140,
                    "velocity": 0.2755905511811024,
                    "duration": 0.24583333333333712
                },
                {
                    "name": "G#4",
                    "midi": 68,
                    "time": 140,
                    "velocity": 0.7559055118110236,
                    "duration": 2.995833333333337
                },
                {
                    "name": "G#2",
                    "midi": 44,
                    "time": 140,
                    "velocity": 0.33858267716535434,
                    "duration": 4
                },
                {
                    "name": "C#4",
                    "midi": 61,
                    "time": 140,
                    "velocity": 0.33070866141732286,
                    "duration": 0.24583333333333712
                },
                {
                    "name": "C#3",
                    "midi": 49,
                    "time": 140.25,
                    "velocity": 0.2677165354330709,
                    "duration": 0.24583333333333712
                },
                {
                    "name": "C#4",
                    "midi": 61,
                    "time": 140.25,
                    "velocity": 0.31496062992125984,
                    "duration": 0.24583333333333712
                },
                {
                    "name": "D3",
                    "midi": 50,
                    "time": 140.5,
                    "velocity": 0.4330708661417323,
                    "duration": 0.24583333333333712
                },
                {
                    "name": "A#3",
                    "midi": 58,
                    "time": 140.5,
                    "velocity": 0.28346456692913385,
                    "duration": 0.24583333333333712
                },
                {
                    "name": "D#3",
                    "midi": 51,
                    "time": 140.75,
                    "velocity": 0.3937007874015748,
                    "duration": 0.24583333333333712
                },
                {
                    "name": "A#3",
                    "midi": 58,
                    "time": 140.75,
                    "velocity": 0.18110236220472442,
                    "duration": 0.24583333333333712
                },
                {
                    "name": "E3",
                    "midi": 52,
                    "time": 141,
                    "velocity": 0.28346456692913385,
                    "duration": 0.24583333333333712
                },
                {
                    "name": "B3",
                    "midi": 59,
                    "time": 141,
                    "velocity": 0.4330708661417323,
                    "duration": 0.24583333333333712
                },
                {
                    "name": "F3",
                    "midi": 53,
                    "time": 141.25,
                    "velocity": 0.33858267716535434,
                    "duration": 0.24583333333333712
                },
                {
                    "name": "B3",
                    "midi": 59,
                    "time": 141.25,
                    "velocity": 0.2125984251968504,
                    "duration": 0.24583333333333712
                },
                {
                    "name": "F#3",
                    "midi": 54,
                    "time": 141.5,
                    "velocity": 0.33070866141732286,
                    "duration": 0.24583333333333712
                },
                {
                    "name": "C#4",
                    "midi": 61,
                    "time": 141.5,
                    "velocity": 0.2677165354330709,
                    "duration": 0.24583333333333712
                },
                {
                    "name": "G3",
                    "midi": 55,
                    "time": 141.75,
                    "velocity": 0.2992125984251969,
                    "duration": 0.24583333333333712
                },
                {
                    "name": "C#4",
                    "midi": 61,
                    "time": 141.75,
                    "velocity": 0.2755905511811024,
                    "duration": 0.24583333333333712
                },
                {
                    "name": "G#3",
                    "midi": 56,
                    "time": 142,
                    "velocity": 0.33858267716535434,
                    "duration": 0.24583333333333712
                },
                {
                    "name": "D#4",
                    "midi": 63,
                    "time": 142,
                    "velocity": 0.3543307086614173,
                    "duration": 0.24583333333333712
                },
                {
                    "name": "B3",
                    "midi": 59,
                    "time": 142.25,
                    "velocity": 0.36220472440944884,
                    "duration": 0.24583333333333712
                },
                {
                    "name": "D#4",
                    "midi": 63,
                    "time": 142.25,
                    "velocity": 0.3779527559055118,
                    "duration": 0.24583333333333712
                },
                {
                    "name": "C#4",
                    "midi": 61,
                    "time": 142.5,
                    "velocity": 0.33070866141732286,
                    "duration": 0.24583333333333712
                },
                {
                    "name": "E4",
                    "midi": 64,
                    "time": 142.5,
                    "velocity": 0.2992125984251969,
                    "duration": 0.24583333333333712
                },
                {
                    "name": "A#3",
                    "midi": 58,
                    "time": 142.75,
                    "velocity": 0.28346456692913385,
                    "duration": 0.24583333333333712
                },
                {
                    "name": "G#3",
                    "midi": 56,
                    "time": 143,
                    "velocity": 0.3543307086614173,
                    "duration": 0.24583333333333712
                },
                {
                    "name": "A#4",
                    "midi": 70,
                    "time": 143,
                    "velocity": 0.6220472440944882,
                    "duration": 0.9958333333333371
                },
                {
                    "name": "F#4",
                    "midi": 66,
                    "time": 143,
                    "velocity": 0.41732283464566927,
                    "duration": 0.24583333333333712
                },
                {
                    "name": "G3",
                    "midi": 55,
                    "time": 143.25,
                    "velocity": 0.33858267716535434,
                    "duration": 0.24583333333333712
                },
                {
                    "name": "F#4",
                    "midi": 66,
                    "time": 143.25,
                    "velocity": 0.2992125984251969,
                    "duration": 0.24583333333333712
                },
                {
                    "name": "F#3",
                    "midi": 54,
                    "time": 143.5,
                    "velocity": 0.3543307086614173,
                    "duration": 0.24583333333333712
                },
                {
                    "name": "D#4",
                    "midi": 63,
                    "time": 143.5,
                    "velocity": 0.36220472440944884,
                    "duration": 0.24583333333333712
                },
                {
                    "name": "F3",
                    "midi": 53,
                    "time": 143.75,
                    "velocity": 0.2047244094488189,
                    "duration": 0.24583333333333712
                },
                {
                    "name": "D#4",
                    "midi": 63,
                    "time": 143.75,
                    "velocity": 0.2755905511811024,
                    "duration": 0.24583333333333712
                },
                {
                    "name": "E3",
                    "midi": 52,
                    "time": 144,
                    "velocity": 0.3543307086614173,
                    "duration": 0.24583333333333712
                },
                {
                    "name": "B4",
                    "midi": 71,
                    "time": 144,
                    "velocity": 0.6299212598425197,
                    "duration": 1.4958333333333087
                },
                {
                    "name": "G2",
                    "midi": 43,
                    "time": 144,
                    "velocity": 0.4330708661417323,
                    "duration": 3.9958333333332803
                },
                {
                    "name": "E4",
                    "midi": 64,
                    "time": 144,
                    "velocity": 0.44881889763779526,
                    "duration": 0.24583333333333712
                },
                {
                    "name": "G3",
                    "midi": 55,
                    "time": 144.25,
                    "velocity": 0.3779527559055118,
                    "duration": 0.24583333333333712
                },
                {
                    "name": "E4",
                    "midi": 64,
                    "time": 144.25,
                    "velocity": 0.2125984251968504,
                    "duration": 0.24583333333333712
                },
                {
                    "name": "B3",
                    "midi": 59,
                    "time": 144.5,
                    "velocity": 0.36220472440944884,
                    "duration": 0.24583333333333712
                },
                {
                    "name": "C#4",
                    "midi": 61,
                    "time": 144.5,
                    "velocity": 0.2677165354330709,
                    "duration": 0.24583333333333712
                },
                {
                    "name": "A#3",
                    "midi": 58,
                    "time": 144.75,
                    "velocity": 0.25984251968503935,
                    "duration": 0.24583333333333712
                },
                {
                    "name": "C#4",
                    "midi": 61,
                    "time": 144.75,
                    "velocity": 0.29133858267716534,
                    "duration": 0.24583333333333712
                },
                {
                    "name": "A3",
                    "midi": 57,
                    "time": 145,
                    "velocity": 0.18110236220472442,
                    "duration": 0.2458333333333087
                },
                {
                    "name": "D#4",
                    "midi": 63,
                    "time": 145,
                    "velocity": 0.44881889763779526,
                    "duration": 0.2458333333333087
                },
                {
                    "name": "G#3",
                    "midi": 56,
                    "time": 145.24999999999997,
                    "velocity": 0.3779527559055118,
                    "duration": 0.24583333333333712
                },
                {
                    "name": "D#4",
                    "midi": 63,
                    "time": 145.24999999999997,
                    "velocity": 0.31496062992125984,
                    "duration": 0.24583333333333712
                },
                {
                    "name": "G3",
                    "midi": 55,
                    "time": 145.49999999999997,
                    "velocity": 0.1732283464566929,
                    "duration": 0.24583333333333712
                },
                {
                    "name": "A#4",
                    "midi": 70,
                    "time": 145.49999999999997,
                    "velocity": 0.5826771653543307,
                    "duration": 0.4958333333333371
                },
                {
                    "name": "E4",
                    "midi": 64,
                    "time": 145.49999999999997,
                    "velocity": 0.3228346456692913,
                    "duration": 0.24583333333333712
                },
                {
                    "name": "E3",
                    "midi": 52,
                    "time": 145.74999999999997,
                    "velocity": 0.33070866141732286,
                    "duration": 0.24583333333333712
                },
                {
                    "name": "E4",
                    "midi": 64,
                    "time": 145.74999999999997,
                    "velocity": 0.1889763779527559,
                    "duration": 0.24583333333333712
                },
                {
                    "name": "A3",
                    "midi": 57,
                    "time": 145.99999999999997,
                    "velocity": 0.33070866141732286,
                    "duration": 0.24583333333333712
                },
                {
                    "name": "B4",
                    "midi": 71,
                    "time": 145.99999999999997,
                    "velocity": 0.6220472440944882,
                    "duration": 0.9958333333333371
                },
                {
                    "name": "F#4",
                    "midi": 66,
                    "time": 145.99999999999997,
                    "velocity": 0.4409448818897638,
                    "duration": 0.24583333333333712
                },
                {
                    "name": "G#3",
                    "midi": 56,
                    "time": 146.24999999999997,
                    "velocity": 0.2992125984251969,
                    "duration": 0.24583333333333712
                },
                {
                    "name": "F#4",
                    "midi": 66,
                    "time": 146.24999999999997,
                    "velocity": 0.41732283464566927,
                    "duration": 0.24583333333333712
                },
                {
                    "name": "G3",
                    "midi": 55,
                    "time": 146.49999999999997,
                    "velocity": 0.25984251968503935,
                    "duration": 0.24583333333333712
                },
                {
                    "name": "D#4",
                    "midi": 63,
                    "time": 146.49999999999997,
                    "velocity": 0.2283464566929134,
                    "duration": 0.24583333333333712
                },
                {
                    "name": "F#3",
                    "midi": 54,
                    "time": 146.74999999999997,
                    "velocity": 0.33070866141732286,
                    "duration": 0.24583333333333712
                },
                {
                    "name": "D#4",
                    "midi": 63,
                    "time": 146.74999999999997,
                    "velocity": 0.25984251968503935,
                    "duration": 0.24583333333333712
                },
                {
                    "name": "G3",
                    "midi": 55,
                    "time": 146.99999999999997,
                    "velocity": 0.33070866141732286,
                    "duration": 0.2458333333333087
                },
                {
                    "name": "C#5",
                    "midi": 73,
                    "time": 146.99999999999997,
                    "velocity": 0.5984251968503937,
                    "duration": 0.9958333333333087
                },
                {
                    "name": "E4",
                    "midi": 64,
                    "time": 146.99999999999997,
                    "velocity": 0.18110236220472442,
                    "duration": 0.2458333333333087
                },
                {
                    "name": "F#3",
                    "midi": 54,
                    "time": 147.24999999999994,
                    "velocity": 0.2677165354330709,
                    "duration": 0.24583333333333712
                },
                {
                    "name": "E4",
                    "midi": 64,
                    "time": 147.24999999999994,
                    "velocity": 0.33858267716535434,
                    "duration": 0.24583333333333712
                },
                {
                    "name": "F3",
                    "midi": 53,
                    "time": 147.49999999999994,
                    "velocity": 0.14173228346456693,
                    "duration": 0.24583333333333712
                },
                {
                    "name": "C#4",
                    "midi": 61,
                    "time": 147.49999999999994,
                    "velocity": 0.2204724409448819,
                    "duration": 0.24583333333333712
                },
                {
                    "name": "E3",
                    "midi": 52,
                    "time": 147.74999999999994,
                    "velocity": 0.3543307086614173,
                    "duration": 0.24583333333333712
                },
                {
                    "name": "C#4",
                    "midi": 61,
                    "time": 147.74999999999994,
                    "velocity": 0.047244094488188976,
                    "duration": 0.24583333333333712
                },
                {
                    "name": "F3",
                    "midi": 53,
                    "time": 147.99999999999994,
                    "velocity": 0.3700787401574803,
                    "duration": 0.24583333333333712
                },
                {
                    "name": "B4",
                    "midi": 71,
                    "time": 147.99999999999994,
                    "velocity": 0.5748031496062992,
                    "duration": 0.9958333333333371
                },
                {
                    "name": "G2",
                    "midi": 43,
                    "time": 147.99999999999994,
                    "velocity": 0.44881889763779526,
                    "duration": 3.995833333333337
                },
                {
                    "name": "D#4",
                    "midi": 63,
                    "time": 147.99999999999994,
                    "velocity": 0.3543307086614173,
                    "duration": 0.24583333333333712
                },
                {
                    "name": "F#3",
                    "midi": 54,
                    "time": 148.24999999999994,
                    "velocity": 0.3543307086614173,
                    "duration": 0.24583333333333712
                },
                {
                    "name": "D#4",
                    "midi": 63,
                    "time": 148.24999999999994,
                    "velocity": 0.25984251968503935,
                    "duration": 0.24583333333333712
                },
                {
                    "name": "G3",
                    "midi": 55,
                    "time": 148.49999999999994,
                    "velocity": 0.3779527559055118,
                    "duration": 0.24583333333333712
                },
                {
                    "name": "B3",
                    "midi": 59,
                    "time": 148.49999999999994,
                    "velocity": 0.4015748031496063,
                    "duration": 0.24583333333333712
                },
                {
                    "name": "G#3",
                    "midi": 56,
                    "time": 148.74999999999994,
                    "velocity": 0.31496062992125984,
                    "duration": 0.24583333333333712
                },
                {
                    "name": "B3",
                    "midi": 59,
                    "time": 148.74999999999994,
                    "velocity": 0.25984251968503935,
                    "duration": 0.24583333333333712
                },
                {
                    "name": "A3",
                    "midi": 57,
                    "time": 148.99999999999994,
                    "velocity": 0.33070866141732286,
                    "duration": 0.24583333333333712
                },
                {
                    "name": "G4",
                    "midi": 67,
                    "time": 148.99999999999994,
                    "velocity": 0.5748031496062992,
                    "duration": 0.9958333333333371
                },
                {
                    "name": "C#4",
                    "midi": 61,
                    "time": 148.99999999999994,
                    "velocity": 0.3700787401574803,
                    "duration": 0.24583333333333712
                },
                {
                    "name": "A#3",
                    "midi": 58,
                    "time": 149.24999999999994,
                    "velocity": 0.33070866141732286,
                    "duration": 0.24583333333333712
                },
                {
                    "name": "C#4",
                    "midi": 61,
                    "time": 149.24999999999994,
                    "velocity": 0.2992125984251969,
                    "duration": 0.24583333333333712
                },
                {
                    "name": "B3",
                    "midi": 59,
                    "time": 149.49999999999994,
                    "velocity": 0.3543307086614173,
                    "duration": 0.24583333333333712
                },
                {
                    "name": "D#4",
                    "midi": 63,
                    "time": 149.49999999999994,
                    "velocity": 0.3700787401574803,
                    "duration": 0.24583333333333712
                },
                {
                    "name": "C4",
                    "midi": 60,
                    "time": 149.74999999999994,
                    "velocity": 0.3779527559055118,
                    "duration": 0.24583333333333712
                },
                {
                    "name": "D#4",
                    "midi": 63,
                    "time": 149.74999999999994,
                    "velocity": 0.2755905511811024,
                    "duration": 0.24583333333333712
                },
                {
                    "name": "C#4",
                    "midi": 61,
                    "time": 149.99999999999994,
                    "velocity": 0.4015748031496063,
                    "duration": 0.24583333333333712
                },
                {
                    "name": "E4",
                    "midi": 64,
                    "time": 149.99999999999994,
                    "velocity": 0.33858267716535434,
                    "duration": 0.24583333333333712
                },
                {
                    "name": "C4",
                    "midi": 60,
                    "time": 150.24999999999994,
                    "velocity": 0.23622047244094488,
                    "duration": 0.24583333333333712
                },
                {
                    "name": "E4",
                    "midi": 64,
                    "time": 150.24999999999994,
                    "velocity": 0.33070866141732286,
                    "duration": 0.24583333333333712
                },
                {
                    "name": "B3",
                    "midi": 59,
                    "time": 150.49999999999994,
                    "velocity": 0.33070866141732286,
                    "duration": 0.24583333333333712
                },
                {
                    "name": "C#4",
                    "midi": 61,
                    "time": 150.49999999999994,
                    "velocity": 0.1889763779527559,
                    "duration": 0.24583333333333712
                },
                {
                    "name": "A#3",
                    "midi": 58,
                    "time": 150.74999999999994,
                    "velocity": 0.29133858267716534,
                    "duration": 0.24583333333333712
                },
                {
                    "name": "A3",
                    "midi": 57,
                    "time": 150.99999999999994,
                    "velocity": 0.25984251968503935,
                    "duration": 0.24583333333333712
                },
                {
                    "name": "A4",
                    "midi": 69,
                    "time": 150.99999999999994,
                    "velocity": 0.5275590551181102,
                    "duration": 0.9958333333333371
                },
                {
                    "name": "F#4",
                    "midi": 66,
                    "time": 150.99999999999994,
                    "velocity": 0.3543307086614173,
                    "duration": 0.24583333333333712
                },
                {
                    "name": "G#3",
                    "midi": 56,
                    "time": 151.24999999999994,
                    "velocity": 0.29133858267716534,
                    "duration": 0.24583333333333712
                },
                {
                    "name": "F#4",
                    "midi": 66,
                    "time": 151.24999999999994,
                    "velocity": 0.2755905511811024,
                    "duration": 0.24583333333333712
                },
                {
                    "name": "G3",
                    "midi": 55,
                    "time": 151.49999999999994,
                    "velocity": 0.25984251968503935,
                    "duration": 0.24583333333333712
                },
                {
                    "name": "D4",
                    "midi": 62,
                    "time": 151.49999999999994,
                    "velocity": 0.47244094488188976,
                    "duration": 0.24583333333333712
                },
                {
                    "name": "F#3",
                    "midi": 54,
                    "time": 151.74999999999994,
                    "velocity": 0.28346456692913385,
                    "duration": 0.24583333333333712
                },
                {
                    "name": "D4",
                    "midi": 62,
                    "time": 151.74999999999994,
                    "velocity": 0.4015748031496063,
                    "duration": 0.24583333333333712
                },
                {
                    "name": "G3",
                    "midi": 55,
                    "time": 151.99999999999994,
                    "velocity": 0.3700787401574803,
                    "duration": 0.24583333333333712
                },
                {
                    "name": "B4",
                    "midi": 71,
                    "time": 151.99999999999994,
                    "velocity": 0.6220472440944882,
                    "duration": 0.9958333333333371
                },
                {
                    "name": "E4",
                    "midi": 64,
                    "time": 151.99999999999994,
                    "velocity": 0.33070866141732286,
                    "duration": 0.24583333333333712
                },
                {
                    "name": "D#3",
                    "midi": 51,
                    "time": 152.24999999999994,
                    "velocity": 0.2992125984251969,
                    "duration": 0.24583333333333712
                },
                {
                    "name": "E4",
                    "midi": 64,
                    "time": 152.24999999999994,
                    "velocity": 0.3779527559055118,
                    "duration": 0.24583333333333712
                },
                {
                    "name": "E3",
                    "midi": 52,
                    "time": 152.49999999999994,
                    "velocity": 0.4015748031496063,
                    "duration": 0.24583333333333712
                },
                {
                    "name": "C#4",
                    "midi": 61,
                    "time": 152.49999999999994,
                    "velocity": 0.3543307086614173,
                    "duration": 0.24583333333333712
                },
                {
                    "name": "A#2",
                    "midi": 46,
                    "time": 152.74999999999994,
                    "velocity": 0.4094488188976378,
                    "duration": 0.24583333333333712
                },
                {
                    "name": "C#4",
                    "midi": 61,
                    "time": 152.74999999999994,
                    "velocity": 0.3228346456692913,
                    "duration": 0.24583333333333712
                },
                {
                    "name": "D4",
                    "midi": 62,
                    "time": 152.8333333333333,
                    "velocity": 0.4566929133858268,
                    "duration": 0.6624999999999659
                },
                {
                    "name": "B2",
                    "midi": 47,
                    "time": 152.99999999999994,
                    "velocity": 0.3228346456692913,
                    "duration": 0.2458333333333087
                },
                {
                    "name": "B5",
                    "midi": 83,
                    "time": 152.99999999999994,
                    "velocity": 0.5984251968503937,
                    "duration": 0.9958333333333087
                },
                {
                    "name": "G1",
                    "midi": 31,
                    "time": 153.24999999999991,
                    "velocity": 0.2677165354330709,
                    "duration": 0.24583333333333712
                },
                {
                    "name": "D4",
                    "midi": 62,
                    "time": 153.24999999999991,
                    "velocity": 0.4566929133858268,
                    "duration": 0.24583333333333712
                },
                {
                    "name": "B1",
                    "midi": 35,
                    "time": 153.49999999999991,
                    "velocity": 0.3228346456692913,
                    "duration": 0.24583333333333712
                },
                {
                    "name": "E4",
                    "midi": 64,
                    "time": 153.49999999999991,
                    "velocity": 0.4094488188976378,
                    "duration": 0.24583333333333712
                },
                {
                    "name": "E2",
                    "midi": 40,
                    "time": 153.74999999999991,
                    "velocity": 0.4015748031496063,
                    "duration": 0.24583333333333712
                },
                {
                    "name": "E4",
                    "midi": 64,
                    "time": 153.74999999999991,
                    "velocity": 0.2677165354330709,
                    "duration": 0.24583333333333712
                },
                {
                    "name": "B2",
                    "midi": 47,
                    "time": 153.99999999999991,
                    "velocity": 0.16535433070866143,
                    "duration": 0.24583333333333712
                },
                {
                    "name": "F#5",
                    "midi": 78,
                    "time": 153.99999999999991,
                    "velocity": 0.5669291338582677,
                    "duration": 0.4958333333333371
                },
                {
                    "name": "F#4",
                    "midi": 66,
                    "time": 153.99999999999991,
                    "velocity": 0.3779527559055118,
                    "duration": 0.24583333333333712
                },
                {
                    "name": "E3",
                    "midi": 52,
                    "time": 154.24999999999991,
                    "velocity": 0.3543307086614173,
                    "duration": 0.24583333333333712
                },
                {
                    "name": "F#4",
                    "midi": 66,
                    "time": 154.24999999999991,
                    "velocity": 0.36220472440944884,
                    "duration": 0.24583333333333712
                },
                {
                    "name": "G3",
                    "midi": 55,
                    "time": 154.49999999999991,
                    "velocity": 0.3937007874015748,
                    "duration": 0.24583333333333712
                },
                {
                    "name": "E5",
                    "midi": 76,
                    "time": 154.49999999999991,
                    "velocity": 0.5826771653543307,
                    "duration": 0.4958333333333371
                },
                {
                    "name": "D4",
                    "midi": 62,
                    "time": 154.49999999999991,
                    "velocity": 0.4330708661417323,
                    "duration": 0.24583333333333712
                },
                {
                    "name": "A3",
                    "midi": 57,
                    "time": 154.74999999999991,
                    "velocity": 0.3543307086614173,
                    "duration": 0.24583333333333712
                },
                {
                    "name": "D4",
                    "midi": 62,
                    "time": 154.74999999999991,
                    "velocity": 0.4015748031496063,
                    "duration": 0.24583333333333712
                },
                {
                    "name": "B3",
                    "midi": 59,
                    "time": 154.99999999999991,
                    "velocity": 0.33070866141732286,
                    "duration": 0.2458333333333087
                },
                {
                    "name": "D5",
                    "midi": 74,
                    "time": 154.99999999999991,
                    "velocity": 0.5826771653543307,
                    "duration": 0.4958333333333087
                },
                {
                    "name": "E4",
                    "midi": 64,
                    "time": 154.99999999999991,
                    "velocity": 0.3700787401574803,
                    "duration": 0.2458333333333087
                },
                {
                    "name": "F#3",
                    "midi": 54,
                    "time": 155.2499999999999,
                    "velocity": 0.2677165354330709,
                    "duration": 0.24583333333333712
                },
                {
                    "name": "E4",
                    "midi": 64,
                    "time": 155.2499999999999,
                    "velocity": 0.31496062992125984,
                    "duration": 0.24583333333333712
                },
                {
                    "name": "G3",
                    "midi": 55,
                    "time": 155.4999999999999,
                    "velocity": 0.3779527559055118,
                    "duration": 0.24583333333333712
                },
                {
                    "name": "C#5",
                    "midi": 73,
                    "time": 155.4999999999999,
                    "velocity": 0.5118110236220472,
                    "duration": 0.4958333333333371
                },
                {
                    "name": "C#4",
                    "midi": 61,
                    "time": 155.4999999999999,
                    "velocity": 0.3543307086614173,
                    "duration": 0.24583333333333712
                },
                {
                    "name": "E3",
                    "midi": 52,
                    "time": 155.7499999999999,
                    "velocity": 0.4094488188976378,
                    "duration": 0.24583333333333712
                },
                {
                    "name": "C#4",
                    "midi": 61,
                    "time": 155.7499999999999,
                    "velocity": 0.3779527559055118,
                    "duration": 0.24583333333333712
                },
                {
                    "name": "F3",
                    "midi": 53,
                    "time": 155.9999999999999,
                    "velocity": 0.25984251968503935,
                    "duration": 0.24583333333333712
                },
                {
                    "name": "B2",
                    "midi": 47,
                    "time": 155.9999999999999,
                    "velocity": 0.31496062992125984,
                    "duration": 3.9958333333332803
                },
                {
                    "name": "G2",
                    "midi": 43,
                    "time": 155.9999999999999,
                    "velocity": 0.4330708661417323,
                    "duration": 3.9958333333332803
                },
                {
                    "name": "B4",
                    "midi": 71,
                    "time": 155.9999999999999,
                    "velocity": 0.6141732283464567,
                    "duration": 0.9958333333333371
                },
                {
                    "name": "D4",
                    "midi": 62,
                    "time": 155.9999999999999,
                    "velocity": 0.4330708661417323,
                    "duration": 0.24583333333333712
                },
                {
                    "name": "F#3",
                    "midi": 54,
                    "time": 156.2499999999999,
                    "velocity": 0.33858267716535434,
                    "duration": 0.24583333333333712
                },
                {
                    "name": "D4",
                    "midi": 62,
                    "time": 156.2499999999999,
                    "velocity": 0.44881889763779526,
                    "duration": 0.24583333333333712
                },
                {
                    "name": "G3",
                    "midi": 55,
                    "time": 156.4999999999999,
                    "velocity": 0.3779527559055118,
                    "duration": 0.24583333333333712
                },
                {
                    "name": "B3",
                    "midi": 59,
                    "time": 156.4999999999999,
                    "velocity": 0.3228346456692913,
                    "duration": 0.24583333333333712
                },
                {
                    "name": "G#3",
                    "midi": 56,
                    "time": 156.7499999999999,
                    "velocity": 0.3543307086614173,
                    "duration": 0.24583333333333712
                },
                {
                    "name": "B3",
                    "midi": 59,
                    "time": 156.7499999999999,
                    "velocity": 0.25984251968503935,
                    "duration": 0.24583333333333712
                },
                {
                    "name": "A3",
                    "midi": 57,
                    "time": 156.9999999999999,
                    "velocity": 0.3700787401574803,
                    "duration": 0.2458333333333087
                },
                {
                    "name": "G4",
                    "midi": 67,
                    "time": 156.9999999999999,
                    "velocity": 0.5511811023622047,
                    "duration": 0.9958333333333087
                },
                {
                    "name": "C#4",
                    "midi": 61,
                    "time": 156.9999999999999,
                    "velocity": 0.3543307086614173,
                    "duration": 0.2458333333333087
                },
                {
                    "name": "A#3",
                    "midi": 58,
                    "time": 157.24999999999986,
                    "velocity": 0.41732283464566927,
                    "duration": 0.24583333333333712
                },
                {
                    "name": "C#4",
                    "midi": 61,
                    "time": 157.24999999999986,
                    "velocity": 0.3543307086614173,
                    "duration": 0.24583333333333712
                },
                {
                    "name": "B3",
                    "midi": 59,
                    "time": 157.49999999999986,
                    "velocity": 0.4330708661417323,
                    "duration": 0.24583333333333712
                },
                {
                    "name": "D4",
                    "midi": 62,
                    "time": 157.49999999999986,
                    "velocity": 0.33858267716535434,
                    "duration": 0.24583333333333712
                },
                {
                    "name": "C4",
                    "midi": 60,
                    "time": 157.74999999999986,
                    "velocity": 0.3779527559055118,
                    "duration": 0.24583333333333712
                },
                {
                    "name": "D4",
                    "midi": 62,
                    "time": 157.74999999999986,
                    "velocity": 0.4015748031496063,
                    "duration": 0.24583333333333712
                },
                {
                    "name": "C#4",
                    "midi": 61,
                    "time": 157.99999999999986,
                    "velocity": 0.4094488188976378,
                    "duration": 0.24583333333333712
                },
                {
                    "name": "E4",
                    "midi": 64,
                    "time": 157.99999999999986,
                    "velocity": 0.3937007874015748,
                    "duration": 0.24583333333333712
                },
                {
                    "name": "B3",
                    "midi": 59,
                    "time": 158.24999999999986,
                    "velocity": 0.36220472440944884,
                    "duration": 0.24583333333333712
                },
                {
                    "name": "E4",
                    "midi": 64,
                    "time": 158.24999999999986,
                    "velocity": 0.3700787401574803,
                    "duration": 0.24583333333333712
                },
                {
                    "name": "F#3",
                    "midi": 54,
                    "time": 158.49999999999986,
                    "velocity": 0.33070866141732286,
                    "duration": 0.24583333333333712
                },
                {
                    "name": "F#4",
                    "midi": 66,
                    "time": 158.49999999999986,
                    "velocity": 0.3543307086614173,
                    "duration": 0.24583333333333712
                },
                {
                    "name": "D3",
                    "midi": 50,
                    "time": 158.74999999999986,
                    "velocity": 0.4015748031496063,
                    "duration": 0.24583333333333712
                },
                {
                    "name": "D#3",
                    "midi": 51,
                    "time": 158.99999999999986,
                    "velocity": 0.2992125984251969,
                    "duration": 0.2458333333333087
                },
                {
                    "name": "C5",
                    "midi": 72,
                    "time": 158.99999999999986,
                    "velocity": 0.5984251968503937,
                    "duration": 0.9958333333333087
                },
                {
                    "name": "G4",
                    "midi": 67,
                    "time": 158.99999999999986,
                    "velocity": 0.4330708661417323,
                    "duration": 0.2458333333333087
                },
                {
                    "name": "E3",
                    "midi": 52,
                    "time": 159.24999999999983,
                    "velocity": 0.4094488188976378,
                    "duration": 0.24583333333333712
                },
                {
                    "name": "G4",
                    "midi": 67,
                    "time": 159.24999999999983,
                    "velocity": 0.4330708661417323,
                    "duration": 0.24583333333333712
                },
                {
                    "name": "F3",
                    "midi": 53,
                    "time": 159.49999999999983,
                    "velocity": 0.3700787401574803,
                    "duration": 0.24583333333333712
                },
                {
                    "name": "E4",
                    "midi": 64,
                    "time": 159.49999999999983,
                    "velocity": 0.4094488188976378,
                    "duration": 0.24583333333333712
                },
                {
                    "name": "G3",
                    "midi": 55,
                    "time": 159.74999999999983,
                    "velocity": 0.41732283464566927,
                    "duration": 0.24583333333333712
                },
                {
                    "name": "E4",
                    "midi": 64,
                    "time": 159.74999999999983,
                    "velocity": 0.33070866141732286,
                    "duration": 0.24583333333333712
                },
                {
                    "name": "A2",
                    "midi": 45,
                    "time": 159.83333333333317,
                    "velocity": 0.4015748031496063,
                    "duration": 3.995833333333337
                },
                {
                    "name": "D3",
                    "midi": 50,
                    "time": 159.83333333333317,
                    "velocity": 0.4015748031496063,
                    "duration": 3.995833333333337
                },
                {
                    "name": "F2",
                    "midi": 41,
                    "time": 159.83333333333317,
                    "velocity": 0.36220472440944884,
                    "duration": 3.995833333333337
                },
                {
                    "name": "A3",
                    "midi": 57,
                    "time": 159.99999999999983,
                    "velocity": 0.41732283464566927,
                    "duration": 0.24583333333333712
                },
                {
                    "name": "D5",
                    "midi": 74,
                    "time": 159.99999999999983,
                    "velocity": 0.7480314960629921,
                    "duration": 1.4958333333333371
                },
                {
                    "name": "F4",
                    "midi": 65,
                    "time": 159.99999999999983,
                    "velocity": 0.5511811023622047,
                    "duration": 0.24583333333333712
                },
                {
                    "name": "G#3",
                    "midi": 56,
                    "time": 160.24999999999983,
                    "velocity": 0.4251968503937008,
                    "duration": 0.24583333333333712
                },
                {
                    "name": "F4",
                    "midi": 65,
                    "time": 160.24999999999983,
                    "velocity": 0.47244094488188976,
                    "duration": 0.24583333333333712
                },
                {
                    "name": "A3",
                    "midi": 57,
                    "time": 160.49999999999983,
                    "velocity": 0.44881889763779526,
                    "duration": 0.24583333333333712
                },
                {
                    "name": "D4",
                    "midi": 62,
                    "time": 160.49999999999983,
                    "velocity": 0.4645669291338583,
                    "duration": 0.24583333333333712
                },
                {
                    "name": "B3",
                    "midi": 59,
                    "time": 160.74999999999983,
                    "velocity": 0.4645669291338583,
                    "duration": 0.24583333333333712
                },
                {
                    "name": "D4",
                    "midi": 62,
                    "time": 160.74999999999983,
                    "velocity": 0.3937007874015748,
                    "duration": 0.24583333333333712
                },
                {
                    "name": "C4",
                    "midi": 60,
                    "time": 160.99999999999983,
                    "velocity": 0.3779527559055118,
                    "duration": 0.24583333333333712
                },
                {
                    "name": "E4",
                    "midi": 64,
                    "time": 160.99999999999983,
                    "velocity": 0.5275590551181102,
                    "duration": 0.24583333333333712
                },
                {
                    "name": "B3",
                    "midi": 59,
                    "time": 161.24999999999983,
                    "velocity": 0.44881889763779526,
                    "duration": 0.24583333333333712
                },
                {
                    "name": "E4",
                    "midi": 64,
                    "time": 161.24999999999983,
                    "velocity": 0.25984251968503935,
                    "duration": 0.24583333333333712
                },
                {
                    "name": "C4",
                    "midi": 60,
                    "time": 161.49999999999983,
                    "velocity": 0.4094488188976378,
                    "duration": 0.24583333333333712
                },
                {
                    "name": "B4",
                    "midi": 71,
                    "time": 161.49999999999983,
                    "velocity": 0.7165354330708661,
                    "duration": 0.4958333333333371
                },
                {
                    "name": "F4",
                    "midi": 65,
                    "time": 161.49999999999983,
                    "velocity": 0.4566929133858268,
                    "duration": 0.24583333333333712
                },
                {
                    "name": "D4",
                    "midi": 62,
                    "time": 161.74999999999983,
                    "velocity": 0.44881889763779526,
                    "duration": 0.24583333333333712
                },
                {
                    "name": "F4",
                    "midi": 65,
                    "time": 161.74999999999983,
                    "velocity": 0.3464566929133858,
                    "duration": 0.24583333333333712
                },
                {
                    "name": "E4",
                    "midi": 64,
                    "time": 161.99999999999983,
                    "velocity": 0.4094488188976378,
                    "duration": 0.24583333333333712
                },
                {
                    "name": "C5",
                    "midi": 72,
                    "time": 161.99999999999983,
                    "velocity": 0.6929133858267716,
                    "duration": 0.4958333333333371
                },
                {
                    "name": "G4",
                    "midi": 67,
                    "time": 161.99999999999983,
                    "velocity": 0.4566929133858268,
                    "duration": 0.24583333333333712
                },
                {
                    "name": "D4",
                    "midi": 62,
                    "time": 162.24999999999983,
                    "velocity": 0.41732283464566927,
                    "duration": 0.24583333333333712
                },
                {
                    "name": "G4",
                    "midi": 67,
                    "time": 162.24999999999983,
                    "velocity": 0.4094488188976378,
                    "duration": 0.24583333333333712
                },
                {
                    "name": "C4",
                    "midi": 60,
                    "time": 162.49999999999983,
                    "velocity": 0.4330708661417323,
                    "duration": 0.24583333333333712
                },
                {
                    "name": "C5",
                    "midi": 72,
                    "time": 162.49999999999983,
                    "velocity": 0.7322834645669292,
                    "duration": 0.4958333333333371
                },
                {
                    "name": "E4",
                    "midi": 64,
                    "time": 162.49999999999983,
                    "velocity": 0.4645669291338583,
                    "duration": 0.24583333333333712
                },
                {
                    "name": "B3",
                    "midi": 59,
                    "time": 162.74999999999983,
                    "velocity": 0.4251968503937008,
                    "duration": 0.24583333333333712
                },
                {
                    "name": "E4",
                    "midi": 64,
                    "time": 162.74999999999983,
                    "velocity": 0.33070866141732286,
                    "duration": 0.24583333333333712
                },
                {
                    "name": "C4",
                    "midi": 60,
                    "time": 162.99999999999983,
                    "velocity": 0.44881889763779526,
                    "duration": 0.24583333333333712
                },
                {
                    "name": "D5",
                    "midi": 74,
                    "time": 162.99999999999983,
                    "velocity": 0.7244094488188977,
                    "duration": 0.4958333333333371
                },
                {
                    "name": "F4",
                    "midi": 65,
                    "time": 162.99999999999983,
                    "velocity": 0.4251968503937008,
                    "duration": 0.24583333333333712
                },
                {
                    "name": "B3",
                    "midi": 59,
                    "time": 163.24999999999983,
                    "velocity": 0.4251968503937008,
                    "duration": 0.24583333333333712
                },
                {
                    "name": "F4",
                    "midi": 65,
                    "time": 163.24999999999983,
                    "velocity": 0.4251968503937008,
                    "duration": 0.24583333333333712
                },
                {
                    "name": "A3",
                    "midi": 57,
                    "time": 163.49999999999983,
                    "velocity": 0.4566929133858268,
                    "duration": 0.24583333333333712
                },
                {
                    "name": "D5",
                    "midi": 74,
                    "time": 163.49999999999983,
                    "velocity": 0.7874015748031497,
                    "duration": 0.49583333333336554
                },
                {
                    "name": "D4",
                    "midi": 62,
                    "time": 163.49999999999983,
                    "velocity": 0.4566929133858268,
                    "duration": 0.24583333333333712
                },
                {
                    "name": "G3",
                    "midi": 55,
                    "time": 163.74999999999983,
                    "velocity": 0.3937007874015748,
                    "duration": 0.24583333333336554
                },
                {
                    "name": "D4",
                    "midi": 62,
                    "time": 163.74999999999983,
                    "velocity": 0.44881889763779526,
                    "duration": 0.24583333333336554
                },
                {
                    "name": "A2",
                    "midi": 45,
                    "time": 163.83333333333317,
                    "velocity": 0.4645669291338583,
                    "duration": 3.1625000000000227
                },
                {
                    "name": "F2",
                    "midi": 41,
                    "time": 163.83333333333317,
                    "velocity": 0.49606299212598426,
                    "duration": 3.9958333333333655
                },
                {
                    "name": "D3",
                    "midi": 50,
                    "time": 163.83333333333317,
                    "velocity": 0.4566929133858268,
                    "duration": 1.9125000000000227
                },
                {
                    "name": "A3",
                    "midi": 57,
                    "time": 163.99999999999986,
                    "velocity": 0.36220472440944884,
                    "duration": 0.24583333333333712
                },
                {
                    "name": "E5",
                    "midi": 76,
                    "time": 163.99999999999986,
                    "velocity": 0.6929133858267716,
                    "duration": 0.4958333333333371
                },
                {
                    "name": "E4",
                    "midi": 64,
                    "time": 163.99999999999986,
                    "velocity": 0.4645669291338583,
                    "duration": 0.24583333333333712
                },
                {
                    "name": "G3",
                    "midi": 55,
                    "time": 164.24999999999986,
                    "velocity": 0.4645669291338583,
                    "duration": 0.24583333333333712
                },
                {
                    "name": "E4",
                    "midi": 64,
                    "time": 164.24999999999986,
                    "velocity": 0.33858267716535434,
                    "duration": 0.24583333333333712
                },
                {
                    "name": "F3",
                    "midi": 53,
                    "time": 164.49999999999986,
                    "velocity": 0.4566929133858268,
                    "duration": 0.24583333333333712
                },
                {
                    "name": "A4",
                    "midi": 69,
                    "time": 164.49999999999986,
                    "velocity": 0.6456692913385826,
                    "duration": 0.4958333333333371
                },
                {
                    "name": "C4",
                    "midi": 60,
                    "time": 164.49999999999986,
                    "velocity": 0.4566929133858268,
                    "duration": 0.24583333333333712
                },
                {
                    "name": "E3",
                    "midi": 52,
                    "time": 164.74999999999986,
                    "velocity": 0.44881889763779526,
                    "duration": 0.24583333333333712
                },
                {
                    "name": "C4",
                    "midi": 60,
                    "time": 164.74999999999986,
                    "velocity": 0.3779527559055118,
                    "duration": 0.24583333333333712
                },
                {
                    "name": "F3",
                    "midi": 53,
                    "time": 164.99999999999986,
                    "velocity": 0.44881889763779526,
                    "duration": 0.24583333333333712
                },
                {
                    "name": "D5",
                    "midi": 74,
                    "time": 164.99999999999986,
                    "velocity": 0.7244094488188977,
                    "duration": 0.9958333333333371
                },
                {
                    "name": "D4",
                    "midi": 62,
                    "time": 164.99999999999986,
                    "velocity": 0.5275590551181102,
                    "duration": 0.24583333333333712
                },
                {
                    "name": "E3",
                    "midi": 52,
                    "time": 165.24999999999986,
                    "velocity": 0.4330708661417323,
                    "duration": 0.24583333333333712
                },
                {
                    "name": "D4",
                    "midi": 62,
                    "time": 165.24999999999986,
                    "velocity": 0.2283464566929134,
                    "duration": 0.24583333333333712
                },
                {
                    "name": "D3",
                    "midi": 50,
                    "time": 165.49999999999986,
                    "velocity": 0.5039370078740157,
                    "duration": 0.7458333333333371
                },
                {
                    "name": "E4",
                    "midi": 64,
                    "time": 165.49999999999986,
                    "velocity": 0.3937007874015748,
                    "duration": 0.24583333333333712
                },
                {
                    "name": "C3",
                    "midi": 48,
                    "time": 165.74999999999986,
                    "velocity": 0.47244094488188976,
                    "duration": 0.24583333333333712
                },
                {
                    "name": "E4",
                    "midi": 64,
                    "time": 165.74999999999986,
                    "velocity": 0.3937007874015748,
                    "duration": 0.24583333333333712
                },
                {
                    "name": "D3",
                    "midi": 50,
                    "time": 165.99999999999986,
                    "velocity": 0.4645669291338583,
                    "duration": 1.82916666666668
                },
                {
                    "name": "F4",
                    "midi": 65,
                    "time": 165.99999999999986,
                    "velocity": 0.5275590551181102,
                    "duration": 0.24583333333333712
                },
                {
                    "name": "C3",
                    "midi": 48,
                    "time": 166.24999999999986,
                    "velocity": 0.5118110236220472,
                    "duration": 0.24583333333333712
                },
                {
                    "name": "F4",
                    "midi": 65,
                    "time": 166.24999999999986,
                    "velocity": 0.29133858267716534,
                    "duration": 0.24583333333333712
                },
                {
                    "name": "B2",
                    "midi": 47,
                    "time": 166.49999999999986,
                    "velocity": 0.47244094488188976,
                    "duration": 0.24583333333333712
                },
                {
                    "name": "G4",
                    "midi": 67,
                    "time": 166.49999999999986,
                    "velocity": 0.49606299212598426,
                    "duration": 0.24583333333333712
                },
                {
                    "name": "A2",
                    "midi": 45,
                    "time": 166.74999999999986,
                    "velocity": 0.41732283464566927,
                    "duration": 1.07916666666668
                },
                {
                    "name": "C3",
                    "midi": 48,
                    "time": 166.99999999999986,
                    "velocity": 0.4881889763779528,
                    "duration": 0.24583333333333712
                },
                {
                    "name": "C5",
                    "midi": 72,
                    "time": 166.99999999999986,
                    "velocity": 0.6929133858267716,
                    "duration": 0.9958333333333655
                },
                {
                    "name": "A4",
                    "midi": 69,
                    "time": 166.99999999999986,
                    "velocity": 0.41732283464566927,
                    "duration": 0.24583333333333712
                },
                {
                    "name": "E3",
                    "midi": 52,
                    "time": 167.24999999999986,
                    "velocity": 0.5354330708661418,
                    "duration": 0.24583333333333712
                },
                {
                    "name": "A4",
                    "midi": 69,
                    "time": 167.24999999999986,
                    "velocity": 0.44881889763779526,
                    "duration": 0.24583333333333712
                },
                {
                    "name": "F3",
                    "midi": 53,
                    "time": 167.49999999999986,
                    "velocity": 0.5039370078740157,
                    "duration": 0.24583333333333712
                },
                {
                    "name": "F4",
                    "midi": 65,
                    "time": 167.49999999999986,
                    "velocity": 0.4881889763779528,
                    "duration": 0.24583333333333712
                },
                {
                    "name": "A3",
                    "midi": 57,
                    "time": 167.74999999999986,
                    "velocity": 0.41732283464566927,
                    "duration": 0.24583333333336554
                },
                {
                    "name": "F4",
                    "midi": 65,
                    "time": 167.74999999999986,
                    "velocity": 0.33858267716535434,
                    "duration": 0.24583333333336554
                },
                {
                    "name": "A#2",
                    "midi": 46,
                    "time": 167.8333333333332,
                    "velocity": 0.5826771653543307,
                    "duration": 3.9958333333333655
                },
                {
                    "name": "D3",
                    "midi": 50,
                    "time": 167.8333333333332,
                    "velocity": 0.5275590551181102,
                    "duration": 3.9958333333333655
                },
                {
                    "name": "E2",
                    "midi": 40,
                    "time": 167.8333333333332,
                    "velocity": 0.5826771653543307,
                    "duration": 3.9958333333333655
                },
                {
                    "name": "A#3",
                    "midi": 58,
                    "time": 167.9999999999999,
                    "velocity": 0.4251968503937008,
                    "duration": 0.24583333333333712
                },
                {
                    "name": "D5",
                    "midi": 74,
                    "time": 167.9999999999999,
                    "velocity": 0.8110236220472441,
                    "duration": 1.4958333333333371
                },
                {
                    "name": "G4",
                    "midi": 67,
                    "time": 167.9999999999999,
                    "velocity": 0.5118110236220472,
                    "duration": 0.24583333333333712
                },
                {
                    "name": "A3",
                    "midi": 57,
                    "time": 168.2499999999999,
                    "velocity": 0.3779527559055118,
                    "duration": 0.24583333333333712
                },
                {
                    "name": "G4",
                    "midi": 67,
                    "time": 168.2499999999999,
                    "velocity": 0.3700787401574803,
                    "duration": 0.24583333333333712
                },
                {
                    "name": "A#3",
                    "midi": 58,
                    "time": 168.4999999999999,
                    "velocity": 0.4330708661417323,
                    "duration": 0.24583333333333712
                },
                {
                    "name": "E4",
                    "midi": 64,
                    "time": 168.4999999999999,
                    "velocity": 0.3779527559055118,
                    "duration": 0.24583333333333712
                },
                {
                    "name": "C4",
                    "midi": 60,
                    "time": 168.7499999999999,
                    "velocity": 0.3858267716535433,
                    "duration": 0.24583333333333712
                },
                {
                    "name": "E4",
                    "midi": 64,
                    "time": 168.7499999999999,
                    "velocity": 0.31496062992125984,
                    "duration": 0.24583333333333712
                },
                {
                    "name": "D4",
                    "midi": 62,
                    "time": 168.9999999999999,
                    "velocity": 0.49606299212598426,
                    "duration": 0.24583333333333712
                },
                {
                    "name": "F4",
                    "midi": 65,
                    "time": 168.9999999999999,
                    "velocity": 0.5433070866141733,
                    "duration": 0.24583333333333712
                },
                {
                    "name": "C4",
                    "midi": 60,
                    "time": 169.2499999999999,
                    "velocity": 0.3937007874015748,
                    "duration": 0.24583333333333712
                },
                {
                    "name": "F4",
                    "midi": 65,
                    "time": 169.2499999999999,
                    "velocity": 0.3700787401574803,
                    "duration": 0.24583333333333712
                },
                {
                    "name": "D4",
                    "midi": 62,
                    "time": 169.4999999999999,
                    "velocity": 0.47244094488188976,
                    "duration": 0.24583333333333712
                },
                {
                    "name": "C5",
                    "midi": 72,
                    "time": 169.4999999999999,
                    "velocity": 0.6929133858267716,
                    "duration": 0.4958333333333371
                },
                {
                    "name": "G4",
                    "midi": 67,
                    "time": 169.4999999999999,
                    "velocity": 0.5118110236220472,
                    "duration": 0.24583333333333712
                },
                {
                    "name": "E4",
                    "midi": 64,
                    "time": 169.7499999999999,
                    "velocity": 0.4251968503937008,
                    "duration": 0.24583333333333712
                },
                {
                    "name": "G4",
                    "midi": 67,
                    "time": 169.7499999999999,
                    "velocity": 0.4094488188976378,
                    "duration": 0.24583333333333712
                },
                {
                    "name": "F4",
                    "midi": 65,
                    "time": 169.9999999999999,
                    "velocity": 0.2283464566929134,
                    "duration": 0.24583333333333712
                },
                {
                    "name": "D5",
                    "midi": 74,
                    "time": 169.9999999999999,
                    "velocity": 0.6771653543307087,
                    "duration": 0.4958333333333371
                },
                {
                    "name": "A4",
                    "midi": 69,
                    "time": 169.9999999999999,
                    "velocity": 0.4330708661417323,
                    "duration": 0.24583333333333712
                },
                {
                    "name": "E4",
                    "midi": 64,
                    "time": 170.2499999999999,
                    "velocity": 0.4251968503937008,
                    "duration": 0.24583333333333712
                },
                {
                    "name": "A4",
                    "midi": 69,
                    "time": 170.2499999999999,
                    "velocity": 0.33858267716535434,
                    "duration": 0.24583333333333712
                },
                {
                    "name": "D4",
                    "midi": 62,
                    "time": 170.4999999999999,
                    "velocity": 0.44881889763779526,
                    "duration": 0.24583333333333712
                },
                {
                    "name": "D5",
                    "midi": 74,
                    "time": 170.4999999999999,
                    "velocity": 0.8503937007874016,
                    "duration": 0.4958333333333371
                },
                {
                    "name": "F4",
                    "midi": 65,
                    "time": 170.4999999999999,
                    "velocity": 0.4566929133858268,
                    "duration": 0.24583333333333712
                },
                {
                    "name": "C4",
                    "midi": 60,
                    "time": 170.7499999999999,
                    "velocity": 0.44881889763779526,
                    "duration": 0.24583333333333712
                },
                {
                    "name": "F4",
                    "midi": 65,
                    "time": 170.7499999999999,
                    "velocity": 0.30708661417322836,
                    "duration": 0.24583333333333712
                },
                {
                    "name": "D4",
                    "midi": 62,
                    "time": 170.9999999999999,
                    "velocity": 0.47244094488188976,
                    "duration": 0.24583333333333712
                },
                {
                    "name": "E5",
                    "midi": 76,
                    "time": 170.9999999999999,
                    "velocity": 0.7480314960629921,
                    "duration": 0.4958333333333371
                },
                {
                    "name": "G4",
                    "midi": 67,
                    "time": 170.9999999999999,
                    "velocity": 0.4566929133858268,
                    "duration": 0.24583333333333712
                },
                {
                    "name": "C4",
                    "midi": 60,
                    "time": 171.2499999999999,
                    "velocity": 0.5039370078740157,
                    "duration": 0.24583333333333712
                },
                {
                    "name": "G4",
                    "midi": 67,
                    "time": 171.2499999999999,
                    "velocity": 0.4330708661417323,
                    "duration": 0.24583333333333712
                },
                {
                    "name": "A#3",
                    "midi": 58,
                    "time": 171.4999999999999,
                    "velocity": 0.44881889763779526,
                    "duration": 0.24583333333333712
                },
                {
                    "name": "E5",
                    "midi": 76,
                    "time": 171.4999999999999,
                    "velocity": 0.7480314960629921,
                    "duration": 0.49583333333336554
                },
                {
                    "name": "E4",
                    "midi": 64,
                    "time": 171.4999999999999,
                    "velocity": 0.41732283464566927,
                    "duration": 0.24583333333333712
                },
                {
                    "name": "A3",
                    "midi": 57,
                    "time": 171.7499999999999,
                    "velocity": 0.49606299212598426,
                    "duration": 0.24583333333336554
                },
                {
                    "name": "E4",
                    "midi": 64,
                    "time": 171.7499999999999,
                    "velocity": 0.33858267716535434,
                    "duration": 0.24583333333336554
                },
                {
                    "name": "A#2",
                    "midi": 46,
                    "time": 171.83333333333323,
                    "velocity": 0.5275590551181102,
                    "duration": 3.995833333333337
                },
                {
                    "name": "D3",
                    "midi": 50,
                    "time": 171.83333333333323,
                    "velocity": 0.4645669291338583,
                    "duration": 2.1625000000000227
                },
                {
                    "name": "E2",
                    "midi": 40,
                    "time": 171.83333333333323,
                    "velocity": 0.4251968503937008,
                    "duration": 3.995833333333337
                },
                {
                    "name": "A#3",
                    "midi": 58,
                    "time": 171.99999999999991,
                    "velocity": 0.4251968503937008,
                    "duration": 0.24583333333333712
                },
                {
                    "name": "F5",
                    "midi": 77,
                    "time": 171.99999999999991,
                    "velocity": 0.7480314960629921,
                    "duration": 0.4958333333333371
                },
                {
                    "name": "F4",
                    "midi": 65,
                    "time": 171.99999999999991,
                    "velocity": 0.4566929133858268,
                    "duration": 0.24583333333333712
                },
                {
                    "name": "A3",
                    "midi": 57,
                    "time": 172.24999999999991,
                    "velocity": 0.4251968503937008,
                    "duration": 0.24583333333333712
                },
                {
                    "name": "F4",
                    "midi": 65,
                    "time": 172.24999999999991,
                    "velocity": 0.3700787401574803,
                    "duration": 0.24583333333333712
                },
                {
                    "name": "G3",
                    "midi": 55,
                    "time": 172.49999999999991,
                    "velocity": 0.44881889763779526,
                    "duration": 0.24583333333333712
                },
                {
                    "name": "A#4",
                    "midi": 70,
                    "time": 172.49999999999991,
                    "velocity": 0.5511811023622047,
                    "duration": 0.4958333333333371
                },
                {
                    "name": "D4",
                    "midi": 62,
                    "time": 172.49999999999991,
                    "velocity": 0.4566929133858268,
                    "duration": 0.24583333333333712
                },
                {
                    "name": "F3",
                    "midi": 53,
                    "time": 172.74999999999991,
                    "velocity": 0.3543307086614173,
                    "duration": 0.24583333333333712
                },
                {
                    "name": "D4",
                    "midi": 62,
                    "time": 172.74999999999991,
                    "velocity": 0.3543307086614173,
                    "duration": 0.24583333333333712
                },
                {
                    "name": "G3",
                    "midi": 55,
                    "time": 172.99999999999991,
                    "velocity": 0.36220472440944884,
                    "duration": 0.24583333333333712
                },
                {
                    "name": "E5",
                    "midi": 76,
                    "time": 172.99999999999991,
                    "velocity": 0.6850393700787402,
                    "duration": 0.9958333333333371
                },
                {
                    "name": "E4",
                    "midi": 64,
                    "time": 172.99999999999991,
                    "velocity": 0.3779527559055118,
                    "duration": 0.24583333333333712
                },
                {
                    "name": "F3",
                    "midi": 53,
                    "time": 173.24999999999991,
                    "velocity": 0.44881889763779526,
                    "duration": 0.24583333333333712
                },
                {
                    "name": "E4",
                    "midi": 64,
                    "time": 173.24999999999991,
                    "velocity": 0.2992125984251969,
                    "duration": 0.24583333333333712
                },
                {
                    "name": "E3",
                    "midi": 52,
                    "time": 173.49999999999991,
                    "velocity": 0.4251968503937008,
                    "duration": 0.24583333333333712
                },
                {
                    "name": "F4",
                    "midi": 65,
                    "time": 173.49999999999991,
                    "velocity": 0.47244094488188976,
                    "duration": 0.24583333333333712
                },
                {
                    "name": "D3",
                    "midi": 50,
                    "time": 173.74999999999991,
                    "velocity": 0.4566929133858268,
                    "duration": 0.7458333333333371
                },
                {
                    "name": "F4",
                    "midi": 65,
                    "time": 173.74999999999991,
                    "velocity": 0.44881889763779526,
                    "duration": 0.24583333333333712
                },
                {
                    "name": "E3",
                    "midi": 52,
                    "time": 173.99999999999991,
                    "velocity": 0.44881889763779526,
                    "duration": 0.24583333333333712
                },
                {
                    "name": "G4",
                    "midi": 67,
                    "time": 173.99999999999991,
                    "velocity": 0.5039370078740157,
                    "duration": 0.24583333333333712
                },
                {
                    "name": "D3",
                    "midi": 50,
                    "time": 174.24999999999991,
                    "velocity": 0.4251968503937008,
                    "duration": 1.5791666666666515
                },
                {
                    "name": "G4",
                    "midi": 67,
                    "time": 174.24999999999991,
                    "velocity": 0.3228346456692913,
                    "duration": 0.24583333333333712
                },
                {
                    "name": "C#3",
                    "midi": 49,
                    "time": 174.49999999999991,
                    "velocity": 0.5118110236220472,
                    "duration": 0.24583333333333712
                },
                {
                    "name": "A4",
                    "midi": 69,
                    "time": 174.49999999999991,
                    "velocity": 0.2992125984251969,
                    "duration": 0.24583333333333712
                },
                {
                    "name": "C3",
                    "midi": 48,
                    "time": 174.74999999999991,
                    "velocity": 0.44881889763779526,
                    "duration": 0.24583333333333712
                },
                {
                    "name": "A#4",
                    "midi": 70,
                    "time": 174.74999999999991,
                    "velocity": 0.4251968503937008,
                    "duration": 0.24583333333333712
                },
                {
                    "name": "B2",
                    "midi": 47,
                    "time": 174.99999999999991,
                    "velocity": 0.4566929133858268,
                    "duration": 0.4958333333333087
                },
                {
                    "name": "G3",
                    "midi": 55,
                    "time": 174.99999999999991,
                    "velocity": 0.49606299212598426,
                    "duration": 0.4958333333333087
                },
                {
                    "name": "B4",
                    "midi": 71,
                    "time": 174.99999999999991,
                    "velocity": 0.44881889763779526,
                    "duration": 0.2458333333333087
                },
                {
                    "name": "D4",
                    "midi": 62,
                    "time": 174.99999999999991,
                    "velocity": 0.47244094488188976,
                    "duration": 0.2458333333333087
                },
                {
                    "name": "B4",
                    "midi": 71,
                    "time": 175.2499999999999,
                    "velocity": 0.44881889763779526,
                    "duration": 0.24583333333333712
                },
                {
                    "name": "D4",
                    "midi": 62,
                    "time": 175.2499999999999,
                    "velocity": 0.5118110236220472,
                    "duration": 0.24583333333333712
                },
                {
                    "name": "F#3",
                    "midi": 54,
                    "time": 175.4999999999999,
                    "velocity": 0.4881889763779528,
                    "duration": 0.49583333333336554
                },
                {
                    "name": "A#2",
                    "midi": 46,
                    "time": 175.4999999999999,
                    "velocity": 0.5905511811023622,
                    "duration": 0.49583333333336554
                },
                {
                    "name": "G#4",
                    "midi": 68,
                    "time": 175.4999999999999,
                    "velocity": 0.5354330708661418,
                    "duration": 0.24583333333333712
                },
                {
                    "name": "C4",
                    "midi": 60,
                    "time": 175.4999999999999,
                    "velocity": 0.4645669291338583,
                    "duration": 0.24583333333333712
                },
                {
                    "name": "G#4",
                    "midi": 68,
                    "time": 175.7499999999999,
                    "velocity": 0.5354330708661418,
                    "duration": 0.24583333333336554
                },
                {
                    "name": "C4",
                    "midi": 60,
                    "time": 175.7499999999999,
                    "velocity": 0.4330708661417323,
                    "duration": 0.24583333333336554
                },
                {
                    "name": "D#2",
                    "midi": 39,
                    "time": 175.83333333333323,
                    "velocity": 0.4330708661417323,
                    "duration": 0.6625000000000227
                },
                {
                    "name": "F3",
                    "midi": 53,
                    "time": 175.99999999999991,
                    "velocity": 0.5905511811023622,
                    "duration": 0.4958333333333371
                },
                {
                    "name": "A2",
                    "midi": 45,
                    "time": 175.99999999999991,
                    "velocity": 0.5748031496062992,
                    "duration": 0.4958333333333371
                },
                {
                    "name": "A#4",
                    "midi": 70,
                    "time": 175.99999999999991,
                    "velocity": 0.6141732283464567,
                    "duration": 0.24583333333333712
                },
                {
                    "name": "C#4",
                    "midi": 61,
                    "time": 175.99999999999991,
                    "velocity": 0.5748031496062992,
                    "duration": 0.24583333333333712
                },
                {
                    "name": "A#4",
                    "midi": 70,
                    "time": 176.24999999999991,
                    "velocity": 0.5669291338582677,
                    "duration": 0.24583333333333712
                },
                {
                    "name": "C#4",
                    "midi": 61,
                    "time": 176.24999999999991,
                    "velocity": 0.5511811023622047,
                    "duration": 0.24583333333333712
                },
                {
                    "name": "E3",
                    "midi": 52,
                    "time": 176.49999999999991,
                    "velocity": 0.5748031496062992,
                    "duration": 0.4958333333333371
                },
                {
                    "name": "G#2",
                    "midi": 44,
                    "time": 176.49999999999991,
                    "velocity": 0.5669291338582677,
                    "duration": 0.4958333333333371
                },
                {
                    "name": "G4",
                    "midi": 67,
                    "time": 176.49999999999991,
                    "velocity": 0.7007874015748031,
                    "duration": 0.24583333333333712
                },
                {
                    "name": "A#3",
                    "midi": 58,
                    "time": 176.49999999999991,
                    "velocity": 0.5354330708661418,
                    "duration": 0.24583333333333712
                },
                {
                    "name": "A#3",
                    "midi": 58,
                    "time": 176.74999999999991,
                    "velocity": 0.47244094488188976,
                    "duration": 0.24583333333333712
                },
                {
                    "name": "G4",
                    "midi": 67,
                    "time": 176.74999999999991,
                    "velocity": 0.5905511811023622,
                    "duration": 0.24583333333333712
                },
                {
                    "name": "B3",
                    "midi": 59,
                    "time": 176.99999999999991,
                    "velocity": 0.5354330708661418,
                    "duration": 0.4958333333333087
                },
                {
                    "name": "B2",
                    "midi": 47,
                    "time": 176.99999999999991,
                    "velocity": 0.5748031496062992,
                    "duration": 0.4958333333333087
                },
                {
                    "name": "D#5",
                    "midi": 75,
                    "time": 176.99999999999991,
                    "velocity": 0.8661417322834646,
                    "duration": 0.8708333333333087
                },
                {
                    "name": "G#4",
                    "midi": 68,
                    "time": 176.99999999999991,
                    "velocity": 0.6062992125984252,
                    "duration": 0.2458333333333087
                },
                {
                    "name": "G#4",
                    "midi": 68,
                    "time": 177.2499999999999,
                    "velocity": 0.5826771653543307,
                    "duration": 0.24583333333333712
                },
                {
                    "name": "C#4",
                    "midi": 61,
                    "time": 177.4999999999999,
                    "velocity": 0.6299212598425197,
                    "duration": 0.4958333333333371
                },
                {
                    "name": "D#3",
                    "midi": 51,
                    "time": 177.4999999999999,
                    "velocity": 0.5511811023622047,
                    "duration": 0.4958333333333371
                },
                {
                    "name": "A#4",
                    "midi": 70,
                    "time": 177.4999999999999,
                    "velocity": 0.6692913385826772,
                    "duration": 0.24583333333333712
                },
                {
                    "name": "A#4",
                    "midi": 70,
                    "time": 177.7499999999999,
                    "velocity": 0.6535433070866141,
                    "duration": 0.24583333333333712
                },
                {
                    "name": "D#5",
                    "midi": 75,
                    "time": 177.8749999999999,
                    "velocity": 0.8267716535433071,
                    "duration": 0.12083333333333712
                },
                {
                    "name": "G#5",
                    "midi": 80,
                    "time": 177.8749999999999,
                    "velocity": 0.8267716535433071,
                    "duration": 0.12083333333333712
                },
                {
                    "name": "D#4",
                    "midi": 63,
                    "time": 177.9999999999999,
                    "velocity": 0.5748031496062992,
                    "duration": 0.4958333333333371
                },
                {
                    "name": "G#3",
                    "midi": 56,
                    "time": 177.9999999999999,
                    "velocity": 0.5511811023622047,
                    "duration": 0.4958333333333371
                },
                {
                    "name": "D#5",
                    "midi": 75,
                    "time": 177.9999999999999,
                    "velocity": 0.8110236220472441,
                    "duration": 0.9958333333333371
                },
                {
                    "name": "B4",
                    "midi": 71,
                    "time": 177.9999999999999,
                    "velocity": 0.6692913385826772,
                    "duration": 0.24583333333333712
                },
                {
                    "name": "B4",
                    "midi": 71,
                    "time": 178.2499999999999,
                    "velocity": 0.6850393700787402,
                    "duration": 0.24583333333333712
                },
                {
                    "name": "B3",
                    "midi": 59,
                    "time": 178.4999999999999,
                    "velocity": 0.5748031496062992,
                    "duration": 0.4958333333333371
                },
                {
                    "name": "D#3",
                    "midi": 51,
                    "time": 178.4999999999999,
                    "velocity": 0.48031496062992124,
                    "duration": 0.4958333333333371
                },
                {
                    "name": "G#4",
                    "midi": 68,
                    "time": 178.4999999999999,
                    "velocity": 0.6456692913385826,
                    "duration": 0.24583333333333712
                },
                {
                    "name": "G#4",
                    "midi": 68,
                    "time": 178.7499999999999,
                    "velocity": 0.5669291338582677,
                    "duration": 0.24583333333333712
                },
                {
                    "name": "C#4",
                    "midi": 61,
                    "time": 178.9999999999999,
                    "velocity": 0.5669291338582677,
                    "duration": 0.4958333333333087
                },
                {
                    "name": "B2",
                    "midi": 47,
                    "time": 178.9999999999999,
                    "velocity": 0.5433070866141733,
                    "duration": 0.4958333333333087
                },
                {
                    "name": "E5",
                    "midi": 76,
                    "time": 178.9999999999999,
                    "velocity": 0.7716535433070866,
                    "duration": 0.9958333333333087
                },
                {
                    "name": "A#4",
                    "midi": 70,
                    "time": 178.9999999999999,
                    "velocity": 0.6220472440944882,
                    "duration": 0.2458333333333087
                },
                {
                    "name": "A#4",
                    "midi": 70,
                    "time": 179.24999999999986,
                    "velocity": 0.6692913385826772,
                    "duration": 0.24583333333333712
                },
                {
                    "name": "A#3",
                    "midi": 58,
                    "time": 179.49999999999986,
                    "velocity": 0.5511811023622047,
                    "duration": 0.4958333333333371
                },
                {
                    "name": "G#2",
                    "midi": 44,
                    "time": 179.49999999999986,
                    "velocity": 0.4330708661417323,
                    "duration": 0.4958333333333371
                },
                {
                    "name": "G4",
                    "midi": 67,
                    "time": 179.49999999999986,
                    "velocity": 0.6535433070866141,
                    "duration": 0.24583333333333712
                },
                {
                    "name": "G4",
                    "midi": 67,
                    "time": 179.74999999999986,
                    "velocity": 0.5826771653543307,
                    "duration": 0.24583333333333712
                },
                {
                    "name": "D#2",
                    "midi": 39,
                    "time": 179.99999999999986,
                    "velocity": 0.4409448818897638,
                    "duration": 0.4958333333333371
                },
                {
                    "name": "B3",
                    "midi": 59,
                    "time": 179.99999999999986,
                    "velocity": 0.5511811023622047,
                    "duration": 0.4958333333333371
                },
                {
                    "name": "F5",
                    "midi": 77,
                    "time": 179.99999999999986,
                    "velocity": 0.7165354330708661,
                    "duration": 1.4958333333333087
                },
                {
                    "name": "G#4",
                    "midi": 68,
                    "time": 179.99999999999986,
                    "velocity": 0.5511811023622047,
                    "duration": 0.24583333333333712
                },
                {
                    "name": "G#4",
                    "midi": 68,
                    "time": 180.24999999999986,
                    "velocity": 0.3700787401574803,
                    "duration": 0.24583333333333712
                },
                {
                    "name": "G#3",
                    "midi": 56,
                    "time": 180.49999999999986,
                    "velocity": 0.49606299212598426,
                    "duration": 0.4958333333333371
                },
                {
                    "name": "G#2",
                    "midi": 44,
                    "time": 180.49999999999986,
                    "velocity": 0.33070866141732286,
                    "duration": 0.4958333333333371
                },
                {
                    "name": "F4",
                    "midi": 65,
                    "time": 180.49999999999986,
                    "velocity": 0.6220472440944882,
                    "duration": 0.24583333333333712
                },
                {
                    "name": "F4",
                    "midi": 65,
                    "time": 180.74999999999986,
                    "velocity": 0.5669291338582677,
                    "duration": 0.24583333333333712
                },
                {
                    "name": "B2",
                    "midi": 47,
                    "time": 180.99999999999986,
                    "velocity": 0.4409448818897638,
                    "duration": 0.4958333333333087
                },
                {
                    "name": "A#3",
                    "midi": 58,
                    "time": 180.99999999999986,
                    "velocity": 0.41732283464566927,
                    "duration": 0.4958333333333087
                },
                {
                    "name": "G4",
                    "midi": 67,
                    "time": 180.99999999999986,
                    "velocity": 0.5511811023622047,
                    "duration": 0.2458333333333087
                },
                {
                    "name": "G4",
                    "midi": 67,
                    "time": 181.24999999999983,
                    "velocity": 0.5748031496062992,
                    "duration": 0.24583333333333712
                },
                {
                    "name": "B3",
                    "midi": 59,
                    "time": 181.49999999999983,
                    "velocity": 0.49606299212598426,
                    "duration": 0.4958333333333371
                },
                {
                    "name": "D#3",
                    "midi": 51,
                    "time": 181.49999999999983,
                    "velocity": 0.3228346456692913,
                    "duration": 0.4958333333333371
                },
                {
                    "name": "E5",
                    "midi": 76,
                    "time": 181.49999999999983,
                    "velocity": 0.6456692913385826,
                    "duration": 0.4958333333333371
                },
                {
                    "name": "G#4",
                    "midi": 68,
                    "time": 181.49999999999983,
                    "velocity": 0.5511811023622047,
                    "duration": 0.24583333333333712
                },
                {
                    "name": "G#4",
                    "midi": 68,
                    "time": 181.74999999999983,
                    "velocity": 0.3858267716535433,
                    "duration": 0.24583333333333712
                },
                {
                    "name": "C#4",
                    "midi": 61,
                    "time": 181.99999999999983,
                    "velocity": 0.47244094488188976,
                    "duration": 0.4958333333333371
                },
                {
                    "name": "G#3",
                    "midi": 56,
                    "time": 181.99999999999983,
                    "velocity": 0.47244094488188976,
                    "duration": 0.4958333333333371
                },
                {
                    "name": "F5",
                    "midi": 77,
                    "time": 181.99999999999983,
                    "velocity": 0.7637795275590551,
                    "duration": 0.9958333333333371
                },
                {
                    "name": "A#4",
                    "midi": 70,
                    "time": 181.99999999999983,
                    "velocity": 0.5905511811023622,
                    "duration": 0.24583333333333712
                },
                {
                    "name": "A#4",
                    "midi": 70,
                    "time": 182.24999999999983,
                    "velocity": 0.5275590551181102,
                    "duration": 0.24583333333333712
                },
                {
                    "name": "A#3",
                    "midi": 58,
                    "time": 182.49999999999983,
                    "velocity": 0.48031496062992124,
                    "duration": 0.4958333333333371
                },
                {
                    "name": "D#3",
                    "midi": 51,
                    "time": 182.49999999999983,
                    "velocity": 0.3700787401574803,
                    "duration": 0.4958333333333371
                },
                {
                    "name": "G4",
                    "midi": 67,
                    "time": 182.49999999999983,
                    "velocity": 0.5669291338582677,
                    "duration": 0.24583333333333712
                },
                {
                    "name": "B2",
                    "midi": 47,
                    "time": 182.99999999999983,
                    "velocity": 0.5354330708661418,
                    "duration": 0.4958333333333087
                },
                {
                    "name": "G3",
                    "midi": 55,
                    "time": 182.99999999999983,
                    "velocity": 0.5354330708661418,
                    "duration": 0.4958333333333087
                },
                {
                    "name": "B4",
                    "midi": 71,
                    "time": 182.99999999999983,
                    "velocity": 0.5748031496062992,
                    "duration": 0.2458333333333087
                },
                {
                    "name": "D4",
                    "midi": 62,
                    "time": 182.99999999999983,
                    "velocity": 0.4409448818897638,
                    "duration": 0.2458333333333087
                },
                {
                    "name": "D4",
                    "midi": 62,
                    "time": 183.2499999999998,
                    "velocity": 0.5196850393700787,
                    "duration": 0.24583333333333712
                },
                {
                    "name": "B4",
                    "midi": 71,
                    "time": 183.2499999999998,
                    "velocity": 0.5354330708661418,
                    "duration": 0.24583333333333712
                },
                {
                    "name": "F#3",
                    "midi": 54,
                    "time": 183.4999999999998,
                    "velocity": 0.47244094488188976,
                    "duration": 0.4958333333333371
                },
                {
                    "name": "A#2",
                    "midi": 46,
                    "time": 183.4999999999998,
                    "velocity": 0.47244094488188976,
                    "duration": 0.4958333333333371
                },
                {
                    "name": "G#4",
                    "midi": 68,
                    "time": 183.4999999999998,
                    "velocity": 0.5275590551181102,
                    "duration": 0.24583333333333712
                },
                {
                    "name": "C4",
                    "midi": 60,
                    "time": 183.4999999999998,
                    "velocity": 0.5354330708661418,
                    "duration": 0.24583333333333712
                },
                {
                    "name": "G#4",
                    "midi": 68,
                    "time": 183.7499999999998,
                    "velocity": 0.5590551181102362,
                    "duration": 0.24583333333333712
                },
                {
                    "name": "C4",
                    "midi": 60,
                    "time": 183.7499999999998,
                    "velocity": 0.5590551181102362,
                    "duration": 0.24583333333333712
                },
                {
                    "name": "D#2",
                    "midi": 39,
                    "time": 183.83333333333314,
                    "velocity": 0.6062992125984252,
                    "duration": 0.6624999999999943
                },
                {
                    "name": "A2",
                    "midi": 45,
                    "time": 183.9999999999998,
                    "velocity": 0.5905511811023622,
                    "duration": 0.4958333333333371
                },
                {
                    "name": "F3",
                    "midi": 53,
                    "time": 183.9999999999998,
                    "velocity": 0.5590551181102362,
                    "duration": 0.4958333333333371
                },
                {
                    "name": "A#4",
                    "midi": 70,
                    "time": 183.9999999999998,
                    "velocity": 0.5590551181102362,
                    "duration": 0.24583333333333712
                },
                {
                    "name": "C#4",
                    "midi": 61,
                    "time": 183.9999999999998,
                    "velocity": 0.5511811023622047,
                    "duration": 0.24583333333333712
                },
                {
                    "name": "C#4",
                    "midi": 61,
                    "time": 184.2499999999998,
                    "velocity": 0.4409448818897638,
                    "duration": 0.24583333333333712
                },
                {
                    "name": "A#4",
                    "midi": 70,
                    "time": 184.2499999999998,
                    "velocity": 0.4881889763779528,
                    "duration": 0.24583333333333712
                },
                {
                    "name": "G#2",
                    "midi": 44,
                    "time": 184.4999999999998,
                    "velocity": 0.5275590551181102,
                    "duration": 0.4958333333333371
                },
                {
                    "name": "E3",
                    "midi": 52,
                    "time": 184.4999999999998,
                    "velocity": 0.5118110236220472,
                    "duration": 0.4958333333333371
                },
                {
                    "name": "G4",
                    "midi": 67,
                    "time": 184.4999999999998,
                    "velocity": 0.5196850393700787,
                    "duration": 0.24583333333333712
                },
                {
                    "name": "A#3",
                    "midi": 58,
                    "time": 184.4999999999998,
                    "velocity": 0.5196850393700787,
                    "duration": 0.24583333333333712
                },
                {
                    "name": "A#3",
                    "midi": 58,
                    "time": 184.7499999999998,
                    "velocity": 0.48031496062992124,
                    "duration": 0.24583333333333712
                },
                {
                    "name": "G4",
                    "midi": 67,
                    "time": 184.7499999999998,
                    "velocity": 0.5275590551181102,
                    "duration": 0.24583333333333712
                },
                {
                    "name": "B2",
                    "midi": 47,
                    "time": 184.9999999999998,
                    "velocity": 0.6220472440944882,
                    "duration": 0.4958333333333087
                },
                {
                    "name": "B3",
                    "midi": 59,
                    "time": 184.9999999999998,
                    "velocity": 0.5748031496062992,
                    "duration": 0.4958333333333087
                },
                {
                    "name": "D#5",
                    "midi": 75,
                    "time": 184.9999999999998,
                    "velocity": 0.6692913385826772,
                    "duration": 0.8708333333333087
                },
                {
                    "name": "F5",
                    "midi": 77,
                    "time": 184.9999999999998,
                    "velocity": 0.7401574803149606,
                    "duration": 0.8708333333333087
                },
                {
                    "name": "G#4",
                    "midi": 68,
                    "time": 184.9999999999998,
                    "velocity": 0.6692913385826772,
                    "duration": 0.2458333333333087
                },
                {
                    "name": "G#4",
                    "midi": 68,
                    "time": 185.24999999999977,
                    "velocity": 0.5905511811023622,
                    "duration": 0.24583333333333712
                },
                {
                    "name": "C#4",
                    "midi": 61,
                    "time": 185.49999999999977,
                    "velocity": 0.5748031496062992,
                    "duration": 0.4958333333333371
                },
                {
                    "name": "D#3",
                    "midi": 51,
                    "time": 185.49999999999977,
                    "velocity": 0.5275590551181102,
                    "duration": 0.4958333333333371
                },
                {
                    "name": "A#4",
                    "midi": 70,
                    "time": 185.49999999999977,
                    "velocity": 0.6456692913385826,
                    "duration": 0.24583333333333712
                },
                {
                    "name": "A#4",
                    "midi": 70,
                    "time": 185.74999999999977,
                    "velocity": 0.6614173228346457,
                    "duration": 0.24583333333333712
                },
                {
                    "name": "F5",
                    "midi": 77,
                    "time": 185.87499999999977,
                    "velocity": 0.6614173228346457,
                    "duration": 0.12083333333333712
                },
                {
                    "name": "B5",
                    "midi": 83,
                    "time": 185.87499999999977,
                    "velocity": 0.7165354330708661,
                    "duration": 0.12083333333333712
                },
                {
                    "name": "D#5",
                    "midi": 75,
                    "time": 185.87499999999977,
                    "velocity": 0.6614173228346457,
                    "duration": 0.12083333333333712
                },
                {
                    "name": "D#4",
                    "midi": 63,
                    "time": 185.99999999999977,
                    "velocity": 0.6456692913385826,
                    "duration": 0.4958333333333371
                },
                {
                    "name": "G#3",
                    "midi": 56,
                    "time": 185.99999999999977,
                    "velocity": 0.6141732283464567,
                    "duration": 0.4958333333333371
                },
                {
                    "name": "D#5",
                    "midi": 75,
                    "time": 185.99999999999977,
                    "velocity": 0.6850393700787402,
                    "duration": 0.9958333333333371
                },
                {
                    "name": "F5",
                    "midi": 77,
                    "time": 185.99999999999977,
                    "velocity": 0.7559055118110236,
                    "duration": 0.9958333333333371
                },
                {
                    "name": "B4",
                    "midi": 71,
                    "time": 185.99999999999977,
                    "velocity": 0.7874015748031497,
                    "duration": 0.24583333333333712
                },
                {
                    "name": "B4",
                    "midi": 71,
                    "time": 186.24999999999977,
                    "velocity": 0.6929133858267716,
                    "duration": 0.24583333333333712
                },
                {
                    "name": "B3",
                    "midi": 59,
                    "time": 186.49999999999977,
                    "velocity": 0.6535433070866141,
                    "duration": 0.4958333333333371
                },
                {
                    "name": "D#3",
                    "midi": 51,
                    "time": 186.49999999999977,
                    "velocity": 0.5275590551181102,
                    "duration": 0.4958333333333371
                },
                {
                    "name": "G#4",
                    "midi": 68,
                    "time": 186.49999999999977,
                    "velocity": 0.5433070866141733,
                    "duration": 0.24583333333333712
                },
                {
                    "name": "G#4",
                    "midi": 68,
                    "time": 186.74999999999977,
                    "velocity": 0.5118110236220472,
                    "duration": 0.24583333333333712
                },
                {
                    "name": "C#4",
                    "midi": 61,
                    "time": 186.99999999999977,
                    "velocity": 0.6299212598425197,
                    "duration": 0.4958333333333087
                },
                {
                    "name": "B2",
                    "midi": 47,
                    "time": 186.99999999999977,
                    "velocity": 0.5748031496062992,
                    "duration": 0.4958333333333087
                },
                {
                    "name": "G5",
                    "midi": 79,
                    "time": 186.99999999999977,
                    "velocity": 0.7322834645669292,
                    "duration": 0.9958333333333087
                },
                {
                    "name": "E5",
                    "midi": 76,
                    "time": 186.99999999999977,
                    "velocity": 0.6692913385826772,
                    "duration": 0.9958333333333087
                },
                {
                    "name": "A#4",
                    "midi": 70,
                    "time": 186.99999999999977,
                    "velocity": 0.6535433070866141,
                    "duration": 0.2458333333333087
                },
                {
                    "name": "A#4",
                    "midi": 70,
                    "time": 187.24999999999974,
                    "velocity": 0.6614173228346457,
                    "duration": 0.24583333333333712
                },
                {
                    "name": "A#3",
                    "midi": 58,
                    "time": 187.49999999999974,
                    "velocity": 0.6456692913385826,
                    "duration": 0.4958333333333371
                },
                {
                    "name": "G#2",
                    "midi": 44,
                    "time": 187.49999999999974,
                    "velocity": 0.49606299212598426,
                    "duration": 0.4958333333333371
                },
                {
                    "name": "G4",
                    "midi": 67,
                    "time": 187.49999999999974,
                    "velocity": 0.6535433070866141,
                    "duration": 0.24583333333333712
                },
                {
                    "name": "G4",
                    "midi": 67,
                    "time": 187.74999999999974,
                    "velocity": 0.5669291338582677,
                    "duration": 0.24583333333333712
                },
                {
                    "name": "B3",
                    "midi": 59,
                    "time": 187.99999999999974,
                    "velocity": 0.6692913385826772,
                    "duration": 0.4958333333333371
                },
                {
                    "name": "D#2",
                    "midi": 39,
                    "time": 187.99999999999974,
                    "velocity": 0.44881889763779526,
                    "duration": 0.4958333333333371
                },
                {
                    "name": "F5",
                    "midi": 77,
                    "time": 187.99999999999974,
                    "velocity": 0.7480314960629921,
                    "duration": 1.4958333333333087
                },
                {
                    "name": "G#5",
                    "midi": 80,
                    "time": 187.99999999999974,
                    "velocity": 0.7559055118110236,
                    "duration": 1.4958333333333087
                },
                {
                    "name": "G#4",
                    "midi": 68,
                    "time": 187.99999999999974,
                    "velocity": 0.6456692913385826,
                    "duration": 0.24583333333333712
                },
                {
                    "name": "G#4",
                    "midi": 68,
                    "time": 188.24999999999974,
                    "velocity": 0.5669291338582677,
                    "duration": 0.24583333333333712
                },
                {
                    "name": "G#3",
                    "midi": 56,
                    "time": 188.49999999999974,
                    "velocity": 0.5826771653543307,
                    "duration": 0.4958333333333371
                },
                {
                    "name": "G#2",
                    "midi": 44,
                    "time": 188.49999999999974,
                    "velocity": 0.5748031496062992,
                    "duration": 0.4958333333333371
                },
                {
                    "name": "F4",
                    "midi": 65,
                    "time": 188.49999999999974,
                    "velocity": 0.7322834645669292,
                    "duration": 0.24583333333333712
                },
                {
                    "name": "F4",
                    "midi": 65,
                    "time": 188.74999999999974,
                    "velocity": 0.6062992125984252,
                    "duration": 0.24583333333333712
                },
                {
                    "name": "A#3",
                    "midi": 58,
                    "time": 188.99999999999974,
                    "velocity": 0.6141732283464567,
                    "duration": 0.4958333333333087
                },
                {
                    "name": "B2",
                    "midi": 47,
                    "time": 188.99999999999974,
                    "velocity": 0.5354330708661418,
                    "duration": 0.4958333333333087
                },
                {
                    "name": "G4",
                    "midi": 67,
                    "time": 188.99999999999974,
                    "velocity": 0.6692913385826772,
                    "duration": 0.2458333333333087
                },
                {
                    "name": "G4",
                    "midi": 67,
                    "time": 189.24999999999972,
                    "velocity": 0.6614173228346457,
                    "duration": 0.24583333333333712
                },
                {
                    "name": "B3",
                    "midi": 59,
                    "time": 189.49999999999972,
                    "velocity": 0.6456692913385826,
                    "duration": 0.4958333333333371
                },
                {
                    "name": "D#3",
                    "midi": 51,
                    "time": 189.49999999999972,
                    "velocity": 0.49606299212598426,
                    "duration": 0.4958333333333371
                },
                {
                    "name": "F#5",
                    "midi": 78,
                    "time": 189.49999999999972,
                    "velocity": 0.7322834645669292,
                    "duration": 0.4958333333333371
                },
                {
                    "name": "D#5",
                    "midi": 75,
                    "time": 189.49999999999972,
                    "velocity": 0.6614173228346457,
                    "duration": 0.4958333333333371
                },
                {
                    "name": "G#4",
                    "midi": 68,
                    "time": 189.49999999999972,
                    "velocity": 0.6535433070866141,
                    "duration": 0.24583333333333712
                },
                {
                    "name": "G#4",
                    "midi": 68,
                    "time": 189.74999999999972,
                    "velocity": 0.5669291338582677,
                    "duration": 0.24583333333333712
                },
                {
                    "name": "C#4",
                    "midi": 61,
                    "time": 189.99999999999972,
                    "velocity": 0.5905511811023622,
                    "duration": 0.4958333333333371
                },
                {
                    "name": "G3",
                    "midi": 55,
                    "time": 189.99999999999972,
                    "velocity": 0.5511811023622047,
                    "duration": 0.4958333333333371
                },
                {
                    "name": "C#6",
                    "midi": 85,
                    "time": 189.99999999999972,
                    "velocity": 0.7559055118110236,
                    "duration": 0.9958333333333371
                },
                {
                    "name": "E5",
                    "midi": 76,
                    "time": 189.99999999999972,
                    "velocity": 0.7086614173228346,
                    "duration": 0.9958333333333371
                },
                {
                    "name": "A#4",
                    "midi": 70,
                    "time": 189.99999999999972,
                    "velocity": 0.6456692913385826,
                    "duration": 0.24583333333333712
                },
                {
                    "name": "A#4",
                    "midi": 70,
                    "time": 190.24999999999972,
                    "velocity": 0.6141732283464567,
                    "duration": 0.24583333333333712
                },
                {
                    "name": "A#3",
                    "midi": 58,
                    "time": 190.49999999999972,
                    "velocity": 0.5275590551181102,
                    "duration": 0.4958333333333371
                },
                {
                    "name": "G4",
                    "midi": 67,
                    "time": 190.49999999999972,
                    "velocity": 0.5118110236220472,
                    "duration": 0.24583333333333712
                },
                {
                    "name": "G#3",
                    "midi": 56,
                    "time": 190.99999999999972,
                    "velocity": 0.6220472440944882,
                    "duration": 0.16249999999999432
                },
                {
                    "name": "D3",
                    "midi": 50,
                    "time": 190.99999999999972,
                    "velocity": 0.6535433070866141,
                    "duration": 0.16249999999999432
                },
                {
                    "name": "G#4",
                    "midi": 68,
                    "time": 190.99999999999972,
                    "velocity": 0.8582677165354331,
                    "duration": 0.8708333333333087
                },
                {
                    "name": "E4",
                    "midi": 64,
                    "time": 190.99999999999972,
                    "velocity": 0.6692913385826772,
                    "duration": 0.2458333333333087
                },
                {
                    "name": "A3",
                    "midi": 57,
                    "time": 191.16666666666637,
                    "velocity": 0.6141732283464567,
                    "duration": 0.16249999999999432
                },
                {
                    "name": "E4",
                    "midi": 64,
                    "time": 191.2499999999997,
                    "velocity": 0.4881889763779528,
                    "duration": 0.24583333333333712
                },
                {
                    "name": "G#3",
                    "midi": 56,
                    "time": 191.33333333333303,
                    "velocity": 0.5748031496062992,
                    "duration": 0.16249999999999432
                },
                {
                    "name": "C#3",
                    "midi": 49,
                    "time": 191.4999999999997,
                    "velocity": 0.6692913385826772,
                    "duration": 0.16249999999999432
                },
                {
                    "name": "G3",
                    "midi": 55,
                    "time": 191.4999999999997,
                    "velocity": 0.6929133858267716,
                    "duration": 0.16249999999999432
                },
                {
                    "name": "C#4",
                    "midi": 61,
                    "time": 191.4999999999997,
                    "velocity": 0.5905511811023622,
                    "duration": 0.24583333333333712
                },
                {
                    "name": "G#3",
                    "midi": 56,
                    "time": 191.66666666666634,
                    "velocity": 0.6692913385826772,
                    "duration": 0.16250000000002274
                },
                {
                    "name": "C#4",
                    "midi": 61,
                    "time": 191.7499999999997,
                    "velocity": 0.5826771653543307,
                    "duration": 0.24583333333333712
                },
                {
                    "name": "G3",
                    "midi": 55,
                    "time": 191.83333333333303,
                    "velocity": 0.6850393700787402,
                    "duration": 0.16249999999999432
                },
                {
                    "name": "D#5",
                    "midi": 75,
                    "time": 191.8749999999997,
                    "velocity": 0.889763779527559,
                    "duration": 0.12083333333333712
                },
                {
                    "name": "G#4",
                    "midi": 68,
                    "time": 191.8749999999997,
                    "velocity": 0.7086614173228346,
                    "duration": 0.12083333333333712
                },
                {
                    "name": "D#4",
                    "midi": 63,
                    "time": 191.9999999999997,
                    "velocity": 0.33858267716535434,
                    "duration": 0.24583333333333712
                },
                {
                    "name": "G#4",
                    "midi": 68,
                    "time": 191.9999999999997,
                    "velocity": 0.7322834645669292,
                    "duration": 6.9958333333333655
                },
                {
                    "name": "F#3",
                    "midi": 54,
                    "time": 191.9999999999997,
                    "velocity": 0.5511811023622047,
                    "duration": 0.16249999999999432
                },
                {
                    "name": "C3",
                    "midi": 48,
                    "time": 191.9999999999997,
                    "velocity": 0.5118110236220472,
                    "duration": 0.16249999999999432
                },
                {
                    "name": "G#2",
                    "midi": 44,
                    "time": 191.9999999999997,
                    "velocity": 0.5984251968503937,
                    "duration": 0.9958333333333371
                },
                {
                    "name": "G3",
                    "midi": 55,
                    "time": 192.16666666666634,
                    "velocity": 0.5354330708661418,
                    "duration": 0.16250000000002274
                },
                {
                    "name": "D#4",
                    "midi": 63,
                    "time": 192.2499999999997,
                    "velocity": 0.3779527559055118,
                    "duration": 0.24583333333333712
                },
                {
                    "name": "F#3",
                    "midi": 54,
                    "time": 192.33333333333303,
                    "velocity": 0.5039370078740157,
                    "duration": 0.16249999999999432
                },
                {
                    "name": "B3",
                    "midi": 59,
                    "time": 192.4999999999997,
                    "velocity": 0.5433070866141733,
                    "duration": 0.24583333333333712
                },
                {
                    "name": "F3",
                    "midi": 53,
                    "time": 192.4999999999997,
                    "velocity": 0.6220472440944882,
                    "duration": 0.16249999999999432
                },
                {
                    "name": "B2",
                    "midi": 47,
                    "time": 192.4999999999997,
                    "velocity": 0.5433070866141733,
                    "duration": 0.16249999999999432
                },
                {
                    "name": "F#3",
                    "midi": 54,
                    "time": 192.66666666666634,
                    "velocity": 0.5511811023622047,
                    "duration": 0.16250000000002274
                },
                {
                    "name": "B3",
                    "midi": 59,
                    "time": 192.7499999999997,
                    "velocity": 0.4645669291338583,
                    "duration": 0.24583333333333712
                },
                {
                    "name": "F3",
                    "midi": 53,
                    "time": 192.83333333333303,
                    "velocity": 0.44881889763779526,
                    "duration": 0.16249999999999432
                },
                {
                    "name": "C#4",
                    "midi": 61,
                    "time": 192.9999999999997,
                    "velocity": 0.5275590551181102,
                    "duration": 0.24583333333333712
                },
                {
                    "name": "E3",
                    "midi": 52,
                    "time": 192.9999999999997,
                    "velocity": 0.5433070866141733,
                    "duration": 0.16249999999999432
                },
                {
                    "name": "A#2",
                    "midi": 46,
                    "time": 192.9999999999997,
                    "velocity": 0.5275590551181102,
                    "duration": 0.16249999999999432
                },
                {
                    "name": "F3",
                    "midi": 53,
                    "time": 193.16666666666634,
                    "velocity": 0.5275590551181102,
                    "duration": 0.16250000000002274
                },
                {
                    "name": "C#4",
                    "midi": 61,
                    "time": 193.2499999999997,
                    "velocity": 0.41732283464566927,
                    "duration": 0.24583333333333712
                },
                {
                    "name": "E3",
                    "midi": 52,
                    "time": 193.33333333333303,
                    "velocity": 0.5433070866141733,
                    "duration": 0.16249999999999432
                },
                {
                    "name": "D#4",
                    "midi": 63,
                    "time": 193.4999999999997,
                    "velocity": 0.4645669291338583,
                    "duration": 0.24583333333333712
                },
                {
                    "name": "D#3",
                    "midi": 51,
                    "time": 193.4999999999997,
                    "velocity": 0.5039370078740157,
                    "duration": 0.16249999999999432
                },
                {
                    "name": "A2",
                    "midi": 45,
                    "time": 193.4999999999997,
                    "velocity": 0.5511811023622047,
                    "duration": 0.16249999999999432
                },
                {
                    "name": "E3",
                    "midi": 52,
                    "time": 193.66666666666634,
                    "velocity": 0.3937007874015748,
                    "duration": 0.16250000000002274
                },
                {
                    "name": "D#4",
                    "midi": 63,
                    "time": 193.7499999999997,
                    "velocity": 0.33070866141732286,
                    "duration": 0.24583333333336554
                },
                {
                    "name": "D#3",
                    "midi": 51,
                    "time": 193.83333333333303,
                    "velocity": 0.41732283464566927,
                    "duration": 0.16250000000002274
                },
                {
                    "name": "E4",
                    "midi": 64,
                    "time": 193.99999999999972,
                    "velocity": 0.4330708661417323,
                    "duration": 0.24583333333333712
                },
                {
                    "name": "D3",
                    "midi": 50,
                    "time": 193.99999999999972,
                    "velocity": 0.4566929133858268,
                    "duration": 0.16249999999999432
                },
                {
                    "name": "G#2",
                    "midi": 44,
                    "time": 193.99999999999972,
                    "velocity": 0.4094488188976378,
                    "duration": 0.16249999999999432
                },
                {
                    "name": "D#3",
                    "midi": 51,
                    "time": 194.16666666666637,
                    "velocity": 0.36220472440944884,
                    "duration": 0.16250000000002274
                },
                {
                    "name": "E4",
                    "midi": 64,
                    "time": 194.24999999999972,
                    "velocity": 0.3543307086614173,
                    "duration": 0.24583333333333712
                },
                {
                    "name": "D3",
                    "midi": 50,
                    "time": 194.33333333333306,
                    "velocity": 0.44881889763779526,
                    "duration": 0.16249999999999432
                },
                {
                    "name": "C#4",
                    "midi": 61,
                    "time": 194.49999999999972,
                    "velocity": 0.2204724409448819,
                    "duration": 0.24583333333333712
                },
                {
                    "name": "G2",
                    "midi": 43,
                    "time": 194.49999999999972,
                    "velocity": 0.4094488188976378,
                    "duration": 0.16249999999999432
                },
                {
                    "name": "C#3",
                    "midi": 49,
                    "time": 194.49999999999972,
                    "velocity": 0.41732283464566927,
                    "duration": 0.16249999999999432
                },
                {
                    "name": "D3",
                    "midi": 50,
                    "time": 194.66666666666637,
                    "velocity": 0.4330708661417323,
                    "duration": 0.16250000000002274
                },
                {
                    "name": "C#4",
                    "midi": 61,
                    "time": 194.74999999999972,
                    "velocity": 0.1889763779527559,
                    "duration": 0.24583333333333712
                },
                {
                    "name": "C#3",
                    "midi": 49,
                    "time": 194.83333333333306,
                    "velocity": 0.3937007874015748,
                    "duration": 0.16249999999999432
                },
                {
                    "name": "D#4",
                    "midi": 63,
                    "time": 194.99999999999972,
                    "velocity": 0.33070866141732286,
                    "duration": 0.2458333333333087
                },
                {
                    "name": "C3",
                    "midi": 48,
                    "time": 194.99999999999972,
                    "velocity": 0.48031496062992124,
                    "duration": 0.16249999999999432
                },
                {
                    "name": "F#2",
                    "midi": 42,
                    "time": 194.99999999999972,
                    "velocity": 0.4094488188976378,
                    "duration": 0.16249999999999432
                },
                {
                    "name": "C#3",
                    "midi": 49,
                    "time": 195.16666666666637,
                    "velocity": 0.4566929133858268,
                    "duration": 0.16249999999999432
                },
                {
                    "name": "D#4",
                    "midi": 63,
                    "time": 195.2499999999997,
                    "velocity": 0.36220472440944884,
                    "duration": 0.24583333333333712
                },
                {
                    "name": "C3",
                    "midi": 48,
                    "time": 195.33333333333303,
                    "velocity": 0.4409448818897638,
                    "duration": 0.16249999999999432
                },
                {
                    "name": "B3",
                    "midi": 59,
                    "time": 195.4999999999997,
                    "velocity": 0.3543307086614173,
                    "duration": 0.24583333333333712
                },
                {
                    "name": "F2",
                    "midi": 41,
                    "time": 195.4999999999997,
                    "velocity": 0.4409448818897638,
                    "duration": 0.16249999999999432
                },
                {
                    "name": "B2",
                    "midi": 47,
                    "time": 195.4999999999997,
                    "velocity": 0.4881889763779528,
                    "duration": 0.16249999999999432
                },
                {
                    "name": "C3",
                    "midi": 48,
                    "time": 195.66666666666634,
                    "velocity": 0.33858267716535434,
                    "duration": 0.16250000000002274
                },
                {
                    "name": "B3",
                    "midi": 59,
                    "time": 195.7499999999997,
                    "velocity": 0.4015748031496063,
                    "duration": 0.24583333333333712
                },
                {
                    "name": "B2",
                    "midi": 47,
                    "time": 195.83333333333303,
                    "velocity": 0.4330708661417323,
                    "duration": 0.16249999999999432
                },
                {
                    "name": "C#4",
                    "midi": 61,
                    "time": 195.9999999999997,
                    "velocity": 0.4330708661417323,
                    "duration": 0.24583333333333712
                },
                {
                    "name": "E2",
                    "midi": 40,
                    "time": 195.9999999999997,
                    "velocity": 0.49606299212598426,
                    "duration": 0.16249999999999432
                },
                {
                    "name": "A#2",
                    "midi": 46,
                    "time": 195.9999999999997,
                    "velocity": 0.4566929133858268,
                    "duration": 0.16249999999999432
                },
                {
                    "name": "B2",
                    "midi": 47,
                    "time": 196.16666666666634,
                    "velocity": 0.41732283464566927,
                    "duration": 0.16250000000002274
                },
                {
                    "name": "C#4",
                    "midi": 61,
                    "time": 196.2499999999997,
                    "velocity": 0.11811023622047244,
                    "duration": 0.24583333333333712
                },
                {
                    "name": "A#2",
                    "midi": 46,
                    "time": 196.33333333333303,
                    "velocity": 0.3937007874015748,
                    "duration": 0.16249999999999432
                },
                {
                    "name": "A#3",
                    "midi": 58,
                    "time": 196.4999999999997,
                    "velocity": 0.3779527559055118,
                    "duration": 0.24583333333333712
                },
                {
                    "name": "A2",
                    "midi": 45,
                    "time": 196.4999999999997,
                    "velocity": 0.44881889763779526,
                    "duration": 0.16249999999999432
                },
                {
                    "name": "D#2",
                    "midi": 39,
                    "time": 196.4999999999997,
                    "velocity": 0.3700787401574803,
                    "duration": 0.16249999999999432
                },
                {
                    "name": "A#2",
                    "midi": 46,
                    "time": 196.66666666666634,
                    "velocity": 0.4015748031496063,
                    "duration": 0.16250000000002274
                },
                {
                    "name": "A#3",
                    "midi": 58,
                    "time": 196.7499999999997,
                    "velocity": 0.3700787401574803,
                    "duration": 0.24583333333333712
                },
                {
                    "name": "A2",
                    "midi": 45,
                    "time": 196.83333333333303,
                    "velocity": 0.4409448818897638,
                    "duration": 0.16249999999999432
                },
                {
                    "name": "B3",
                    "midi": 59,
                    "time": 196.9999999999997,
                    "velocity": 0.44881889763779526,
                    "duration": 0.24583333333333712
                },
                {
                    "name": "D2",
                    "midi": 38,
                    "time": 196.9999999999997,
                    "velocity": 0.4409448818897638,
                    "duration": 0.16249999999999432
                },
                {
                    "name": "G#2",
                    "midi": 44,
                    "time": 196.9999999999997,
                    "velocity": 0.4094488188976378,
                    "duration": 0.16249999999999432
                },
                {
                    "name": "A2",
                    "midi": 45,
                    "time": 197.16666666666634,
                    "velocity": 0.4330708661417323,
                    "duration": 0.16250000000002274
                },
                {
                    "name": "B3",
                    "midi": 59,
                    "time": 197.2499999999997,
                    "velocity": 0.2125984251968504,
                    "duration": 0.24583333333333712
                },
                {
                    "name": "G#2",
                    "midi": 44,
                    "time": 197.33333333333303,
                    "velocity": 0.2755905511811024,
                    "duration": 0.16249999999999432
                },
                {
                    "name": "C#4",
                    "midi": 61,
                    "time": 197.4999999999997,
                    "velocity": 0.36220472440944884,
                    "duration": 0.24583333333333712
                },
                {
                    "name": "C#2",
                    "midi": 37,
                    "time": 197.4999999999997,
                    "velocity": 0.4330708661417323,
                    "duration": 0.16249999999999432
                },
                {
                    "name": "G2",
                    "midi": 43,
                    "time": 197.4999999999997,
                    "velocity": 0.49606299212598426,
                    "duration": 0.16249999999999432
                },
                {
                    "name": "G#2",
                    "midi": 44,
                    "time": 197.66666666666634,
                    "velocity": 0.4015748031496063,
                    "duration": 0.16250000000002274
                },
                {
                    "name": "C#4",
                    "midi": 61,
                    "time": 197.7499999999997,
                    "velocity": 0.36220472440944884,
                    "duration": 0.24583333333336554
                },
                {
                    "name": "G2",
                    "midi": 43,
                    "time": 197.83333333333303,
                    "velocity": 0.4409448818897638,
                    "duration": 0.16250000000002274
                },
                {
                    "name": "D#4",
                    "midi": 63,
                    "time": 197.99999999999972,
                    "velocity": 0.3779527559055118,
                    "duration": 0.24583333333333712
                },
                {
                    "name": "C2",
                    "midi": 36,
                    "time": 197.99999999999972,
                    "velocity": 0.4566929133858268,
                    "duration": 0.16249999999999432
                },
                {
                    "name": "F#2",
                    "midi": 42,
                    "time": 197.99999999999972,
                    "velocity": 0.41732283464566927,
                    "duration": 0.16249999999999432
                },
                {
                    "name": "G2",
                    "midi": 43,
                    "time": 198.16666666666637,
                    "velocity": 0.44881889763779526,
                    "duration": 0.16250000000002274
                },
                {
                    "name": "D#4",
                    "midi": 63,
                    "time": 198.24999999999972,
                    "velocity": 0.3700787401574803,
                    "duration": 0.24583333333333712
                },
                {
                    "name": "F#2",
                    "midi": 42,
                    "time": 198.33333333333306,
                    "velocity": 0.3779527559055118,
                    "duration": 0.16249999999999432
                },
                {
                    "name": "B3",
                    "midi": 59,
                    "time": 198.49999999999972,
                    "velocity": 0.2125984251968504,
                    "duration": 0.24583333333333712
                },
                {
                    "name": "B1",
                    "midi": 35,
                    "time": 198.49999999999972,
                    "velocity": 0.41732283464566927,
                    "duration": 0.12083333333333712
                },
                {
                    "name": "F2",
                    "midi": 41,
                    "time": 198.49999999999972,
                    "velocity": 0.44881889763779526,
                    "duration": 0.16249999999999432
                },
                {
                    "name": "F#2",
                    "midi": 42,
                    "time": 198.66666666666637,
                    "velocity": 0.4094488188976378,
                    "duration": 0.16250000000002274
                },
                {
                    "name": "F2",
                    "midi": 41,
                    "time": 198.83333333333306,
                    "velocity": 0.5196850393700787,
                    "duration": 0.16249999999999432
                },
                {
                    "name": "G#3",
                    "midi": 56,
                    "time": 198.99999999999972,
                    "velocity": 0.4094488188976378,
                    "duration": 0.2458333333333087
                },
                {
                    "name": "D3",
                    "midi": 50,
                    "time": 198.99999999999972,
                    "velocity": 0.3543307086614173,
                    "duration": 0.2458333333333087
                },
                {
                    "name": "E4",
                    "midi": 64,
                    "time": 198.99999999999972,
                    "velocity": 0.31496062992125984,
                    "duration": 0.4958333333333087
                },
                {
                    "name": "G#4",
                    "midi": 68,
                    "time": 198.99999999999972,
                    "velocity": 0.5275590551181102,
                    "duration": 0.7458333333333087
                },
                {
                    "name": "G3",
                    "midi": 55,
                    "time": 199.2499999999997,
                    "velocity": 0.3543307086614173,
                    "duration": 0.24583333333333712
                },
                {
                    "name": "G3",
                    "midi": 55,
                    "time": 199.4999999999997,
                    "velocity": 0.4094488188976378,
                    "duration": 0.24583333333333712
                },
                {
                    "name": "C#3",
                    "midi": 49,
                    "time": 199.4999999999997,
                    "velocity": 0.3543307086614173,
                    "duration": 0.24583333333333712
                },
                {
                    "name": "C#4",
                    "midi": 61,
                    "time": 199.4999999999997,
                    "velocity": 0.2125984251968504,
                    "duration": 0.4958333333333371
                },
                {
                    "name": "F#3",
                    "midi": 54,
                    "time": 199.7499999999997,
                    "velocity": 0.41732283464566927,
                    "duration": 0.24583333333333712
                },
                {
                    "name": "D#5",
                    "midi": 75,
                    "time": 199.7499999999997,
                    "velocity": 0.5354330708661418,
                    "duration": 0.24583333333333712
                },
                {
                    "name": "D#4",
                    "midi": 63,
                    "time": 199.9999999999997,
                    "velocity": 0.5275590551181102,
                    "duration": 0.4958333333333371
                },
                {
                    "name": "F#3",
                    "midi": 54,
                    "time": 199.9999999999997,
                    "velocity": 0.5039370078740157,
                    "duration": 0.24583333333333712
                },
                {
                    "name": "C3",
                    "midi": 48,
                    "time": 199.9999999999997,
                    "velocity": 0.3779527559055118,
                    "duration": 0.24583333333333712
                },
                {
                    "name": "G#2",
                    "midi": 44,
                    "time": 199.9999999999997,
                    "velocity": 0.3700787401574803,
                    "duration": 0.9958333333333371
                },
                {
                    "name": "G#4",
                    "midi": 68,
                    "time": 199.9999999999997,
                    "velocity": 0.6456692913385826,
                    "duration": 6.995833333333252
                },
                {
                    "name": "F3",
                    "midi": 53,
                    "time": 200.2499999999997,
                    "velocity": 0.28346456692913385,
                    "duration": 0.24583333333333712
                },
                {
                    "name": "B3",
                    "midi": 59,
                    "time": 200.4999999999997,
                    "velocity": 0.4251968503937008,
                    "duration": 0.4958333333333371
                },
                {
                    "name": "F3",
                    "midi": 53,
                    "time": 200.4999999999997,
                    "velocity": 0.4881889763779528,
                    "duration": 0.24583333333333712
                },
                {
                    "name": "B2",
                    "midi": 47,
                    "time": 200.4999999999997,
                    "velocity": 0.41732283464566927,
                    "duration": 0.24583333333333712
                },
                {
                    "name": "E3",
                    "midi": 52,
                    "time": 200.7499999999997,
                    "velocity": 0.5275590551181102,
                    "duration": 0.24583333333333712
                },
                {
                    "name": "C#4",
                    "midi": 61,
                    "time": 200.9999999999997,
                    "velocity": 0.5118110236220472,
                    "duration": 0.4958333333333087
                },
                {
                    "name": "E3",
                    "midi": 52,
                    "time": 200.9999999999997,
                    "velocity": 0.4881889763779528,
                    "duration": 0.2458333333333087
                },
                {
                    "name": "A#2",
                    "midi": 46,
                    "time": 200.9999999999997,
                    "velocity": 0.4094488188976378,
                    "duration": 0.2458333333333087
                },
                {
                    "name": "D#3",
                    "midi": 51,
                    "time": 201.24999999999966,
                    "velocity": 0.33858267716535434,
                    "duration": 0.24583333333333712
                },
                {
                    "name": "D#4",
                    "midi": 63,
                    "time": 201.49999999999966,
                    "velocity": 0.4330708661417323,
                    "duration": 0.4958333333333371
                },
                {
                    "name": "D#3",
                    "midi": 51,
                    "time": 201.49999999999966,
                    "velocity": 0.4094488188976378,
                    "duration": 0.24583333333333712
                },
                {
                    "name": "A2",
                    "midi": 45,
                    "time": 201.49999999999966,
                    "velocity": 0.41732283464566927,
                    "duration": 0.24583333333333712
                },
                {
                    "name": "D3",
                    "midi": 50,
                    "time": 201.74999999999966,
                    "velocity": 0.3543307086614173,
                    "duration": 0.24583333333333712
                },
                {
                    "name": "E4",
                    "midi": 64,
                    "time": 201.99999999999966,
                    "velocity": 0.2992125984251969,
                    "duration": 0.4958333333333371
                },
                {
                    "name": "D3",
                    "midi": 50,
                    "time": 201.99999999999966,
                    "velocity": 0.47244094488188976,
                    "duration": 0.24583333333333712
                },
                {
                    "name": "G#2",
                    "midi": 44,
                    "time": 201.99999999999966,
                    "velocity": 0.36220472440944884,
                    "duration": 0.24583333333333712
                },
                {
                    "name": "C#3",
                    "midi": 49,
                    "time": 202.24999999999966,
                    "velocity": 0.4645669291338583,
                    "duration": 0.24583333333333712
                },
                {
                    "name": "C#4",
                    "midi": 61,
                    "time": 202.49999999999966,
                    "velocity": 0.2755905511811024,
                    "duration": 0.4958333333333371
                },
                {
                    "name": "C#3",
                    "midi": 49,
                    "time": 202.49999999999966,
                    "velocity": 0.4330708661417323,
                    "duration": 0.24583333333333712
                },
                {
                    "name": "G2",
                    "midi": 43,
                    "time": 202.49999999999966,
                    "velocity": 0.47244094488188976,
                    "duration": 0.24583333333333712
                },
                {
                    "name": "C3",
                    "midi": 48,
                    "time": 202.74999999999966,
                    "velocity": 0.47244094488188976,
                    "duration": 0.24583333333333712
                },
                {
                    "name": "D#4",
                    "midi": 63,
                    "time": 202.99999999999966,
                    "velocity": 0.4645669291338583,
                    "duration": 0.4958333333333087
                },
                {
                    "name": "C3",
                    "midi": 48,
                    "time": 202.99999999999966,
                    "velocity": 0.5039370078740157,
                    "duration": 0.2458333333333087
                },
                {
                    "name": "F#2",
                    "midi": 42,
                    "time": 202.99999999999966,
                    "velocity": 0.44881889763779526,
                    "duration": 0.2458333333333087
                },
                {
                    "name": "B2",
                    "midi": 47,
                    "time": 203.24999999999963,
                    "velocity": 0.2677165354330709,
                    "duration": 0.24583333333333712
                },
                {
                    "name": "B3",
                    "midi": 59,
                    "time": 203.49999999999963,
                    "velocity": 0.3228346456692913,
                    "duration": 0.4958333333333371
                },
                {
                    "name": "B2",
                    "midi": 47,
                    "time": 203.49999999999963,
                    "velocity": 0.44881889763779526,
                    "duration": 0.24583333333333712
                },
                {
                    "name": "F2",
                    "midi": 41,
                    "time": 203.49999999999963,
                    "velocity": 0.4330708661417323,
                    "duration": 0.24583333333333712
                },
                {
                    "name": "A#2",
                    "midi": 46,
                    "time": 203.74999999999963,
                    "velocity": 0.4330708661417323,
                    "duration": 0.24583333333333712
                },
                {
                    "name": "C#4",
                    "midi": 61,
                    "time": 203.99999999999963,
                    "velocity": 0.5748031496062992,
                    "duration": 0.4958333333333371
                },
                {
                    "name": "A#2",
                    "midi": 46,
                    "time": 203.99999999999963,
                    "velocity": 0.47244094488188976,
                    "duration": 0.24583333333333712
                },
                {
                    "name": "E2",
                    "midi": 40,
                    "time": 203.99999999999963,
                    "velocity": 0.4094488188976378,
                    "duration": 0.24583333333333712
                },
                {
                    "name": "A2",
                    "midi": 45,
                    "time": 204.24999999999963,
                    "velocity": 0.3464566929133858,
                    "duration": 0.24583333333333712
                },
                {
                    "name": "A#3",
                    "midi": 58,
                    "time": 204.49999999999963,
                    "velocity": 0.4251968503937008,
                    "duration": 0.4958333333333371
                },
                {
                    "name": "A2",
                    "midi": 45,
                    "time": 204.49999999999963,
                    "velocity": 0.4330708661417323,
                    "duration": 0.24583333333333712
                },
                {
                    "name": "D#2",
                    "midi": 39,
                    "time": 204.49999999999963,
                    "velocity": 0.3464566929133858,
                    "duration": 0.24583333333333712
                },
                {
                    "name": "G#2",
                    "midi": 44,
                    "time": 204.74999999999963,
                    "velocity": 0.3543307086614173,
                    "duration": 0.24583333333333712
                },
                {
                    "name": "B3",
                    "midi": 59,
                    "time": 204.99999999999963,
                    "velocity": 0.5275590551181102,
                    "duration": 0.4958333333333087
                },
                {
                    "name": "D2",
                    "midi": 38,
                    "time": 204.99999999999963,
                    "velocity": 0.4566929133858268,
                    "duration": 0.2458333333333087
                },
                {
                    "name": "G#2",
                    "midi": 44,
                    "time": 204.99999999999963,
                    "velocity": 0.3464566929133858,
                    "duration": 0.2458333333333087
                },
                {
                    "name": "G2",
                    "midi": 43,
                    "time": 205.2499999999996,
                    "velocity": 0.44881889763779526,
                    "duration": 0.24583333333333712
                },
                {
                    "name": "C#4",
                    "midi": 61,
                    "time": 205.4999999999996,
                    "velocity": 0.3779527559055118,
                    "duration": 0.4958333333333371
                },
                {
                    "name": "G2",
                    "midi": 43,
                    "time": 205.4999999999996,
                    "velocity": 0.3779527559055118,
                    "duration": 0.24583333333333712
                },
                {
                    "name": "C#2",
                    "midi": 37,
                    "time": 205.4999999999996,
                    "velocity": 0.3464566929133858,
                    "duration": 0.24583333333333712
                },
                {
                    "name": "F#2",
                    "midi": 42,
                    "time": 205.7499999999996,
                    "velocity": 0.3779527559055118,
                    "duration": 0.24583333333333712
                },
                {
                    "name": "D#4",
                    "midi": 63,
                    "time": 205.9999999999996,
                    "velocity": 0.5275590551181102,
                    "duration": 0.4958333333333371
                },
                {
                    "name": "F#2",
                    "midi": 42,
                    "time": 205.9999999999996,
                    "velocity": 0.3543307086614173,
                    "duration": 0.24583333333333712
                },
                {
                    "name": "C2",
                    "midi": 36,
                    "time": 205.9999999999996,
                    "velocity": 0.36220472440944884,
                    "duration": 0.24583333333333712
                },
                {
                    "name": "F2",
                    "midi": 41,
                    "time": 206.2499999999996,
                    "velocity": 0.4330708661417323,
                    "duration": 0.24583333333333712
                },
                {
                    "name": "B3",
                    "midi": 59,
                    "time": 206.4999999999996,
                    "velocity": 0.44881889763779526,
                    "duration": 0.4958333333333371
                },
                {
                    "name": "B1",
                    "midi": 35,
                    "time": 206.4999999999996,
                    "velocity": 0.4330708661417323,
                    "duration": 0.24583333333333712
                },
                {
                    "name": "F2",
                    "midi": 41,
                    "time": 206.4999999999996,
                    "velocity": 0.4094488188976378,
                    "duration": 0.24583333333333712
                },
                {
                    "name": "E2",
                    "midi": 40,
                    "time": 206.7499999999996,
                    "velocity": 0.41732283464566927,
                    "duration": 0.24583333333333712
                },
                {
                    "name": "D#5",
                    "midi": 75,
                    "time": 206.9999999999996,
                    "velocity": 0.33858267716535434,
                    "duration": 0.4958333333333087
                },
                {
                    "name": "B4",
                    "midi": 71,
                    "time": 206.9999999999996,
                    "velocity": 0.33858267716535434,
                    "duration": 0.4958333333333087
                },
                {
                    "name": "G#5",
                    "midi": 80,
                    "time": 206.9999999999996,
                    "velocity": 0.2992125984251969,
                    "duration": 0.4958333333333087
                },
                {
                    "name": "D#6",
                    "midi": 87,
                    "time": 206.9999999999996,
                    "velocity": 0.4330708661417323,
                    "duration": 0.2458333333333087
                },
                {
                    "name": "D6",
                    "midi": 86,
                    "time": 207.24999999999957,
                    "velocity": 0.4409448818897638,
                    "duration": 0.24583333333333712
                },
                {
                    "name": "G#2",
                    "midi": 44,
                    "time": 207.49999999999957,
                    "velocity": 0.36220472440944884,
                    "duration": 0.7458333333333371
                },
                {
                    "name": "G#1",
                    "midi": 32,
                    "time": 207.49999999999957,
                    "velocity": 0.4015748031496063,
                    "duration": 0.7458333333333371
                },
                {
                    "name": "D#6",
                    "midi": 87,
                    "time": 207.49999999999957,
                    "velocity": 0.3779527559055118,
                    "duration": 0.4958333333333371
                },
                {
                    "name": "G#6",
                    "midi": 92,
                    "time": 207.49999999999957,
                    "velocity": 0.3937007874015748,
                    "duration": 0.4958333333333371
                },
                {
                    "name": "C#6",
                    "midi": 85,
                    "time": 207.49999999999957,
                    "velocity": 0.4094488188976378,
                    "duration": 0.24583333333333712
                },
                {
                    "name": "C6",
                    "midi": 84,
                    "time": 207.74999999999957,
                    "velocity": 0.3543307086614173,
                    "duration": 0.24583333333333712
                },
                {
                    "name": "B4",
                    "midi": 71,
                    "time": 207.99999999999957,
                    "velocity": 0.44881889763779526,
                    "duration": 0.4958333333333371
                },
                {
                    "name": "D5",
                    "midi": 74,
                    "time": 207.99999999999957,
                    "velocity": 0.3858267716535433,
                    "duration": 0.4958333333333371
                },
                {
                    "name": "G5",
                    "midi": 79,
                    "time": 207.99999999999957,
                    "velocity": 0.3779527559055118,
                    "duration": 0.4958333333333371
                },
                {
                    "name": "D5",
                    "midi": 74,
                    "time": 207.99999999999957,
                    "velocity": 0.4566929133858268,
                    "duration": 0.4958333333333371
                },
                {
                    "name": "B4",
                    "midi": 71,
                    "time": 207.99999999999957,
                    "velocity": 0.44881889763779526,
                    "duration": 0.4958333333333371
                },
                {
                    "name": "G5",
                    "midi": 79,
                    "time": 207.99999999999957,
                    "velocity": 0.31496062992125984,
                    "duration": 0.4958333333333371
                },
                {
                    "name": "B5",
                    "midi": 83,
                    "time": 207.99999999999957,
                    "velocity": 0.4330708661417323,
                    "duration": 0.24583333333333712
                },
                {
                    "name": "G6",
                    "midi": 91,
                    "time": 207.99999999999957,
                    "velocity": 0.5354330708661418,
                    "duration": 0.4958333333333371
                },
                {
                    "name": "D6",
                    "midi": 86,
                    "time": 207.99999999999957,
                    "velocity": 0.5669291338582677,
                    "duration": 0.4958333333333371
                },
                {
                    "name": "A#5",
                    "midi": 82,
                    "time": 208.24999999999957,
                    "velocity": 0.4251968503937008,
                    "duration": 0.24583333333333712
                },
                {
                    "name": "G#2",
                    "midi": 44,
                    "time": 208.49999999999957,
                    "velocity": 0.2047244094488189,
                    "duration": 0.4958333333333371
                },
                {
                    "name": "G#1",
                    "midi": 32,
                    "time": 208.49999999999957,
                    "velocity": 0.2204724409448819,
                    "duration": 0.4958333333333371
                },
                {
                    "name": "A5",
                    "midi": 81,
                    "time": 208.49999999999957,
                    "velocity": 0.44881889763779526,
                    "duration": 0.24583333333333712
                },
                {
                    "name": "F6",
                    "midi": 89,
                    "time": 208.49999999999957,
                    "velocity": 0.5354330708661418,
                    "duration": 0.4958333333333371
                },
                {
                    "name": "C6",
                    "midi": 84,
                    "time": 208.49999999999957,
                    "velocity": 0.49606299212598426,
                    "duration": 0.4958333333333371
                },
                {
                    "name": "G#5",
                    "midi": 80,
                    "time": 208.74999999999957,
                    "velocity": 0.4566929133858268,
                    "duration": 0.24583333333333712
                },
                {
                    "name": "C5",
                    "midi": 72,
                    "time": 208.99999999999957,
                    "velocity": 0.3858267716535433,
                    "duration": 0.4958333333333087
                },
                {
                    "name": "D#4",
                    "midi": 63,
                    "time": 208.99999999999957,
                    "velocity": 0.2125984251968504,
                    "duration": 0.4958333333333087
                },
                {
                    "name": "F#4",
                    "midi": 66,
                    "time": 208.99999999999957,
                    "velocity": 0.2755905511811024,
                    "duration": 0.4958333333333087
                },
                {
                    "name": "G5",
                    "midi": 79,
                    "time": 208.99999999999957,
                    "velocity": 0.5039370078740157,
                    "duration": 0.2458333333333087
                },
                {
                    "name": "D#6",
                    "midi": 87,
                    "time": 208.99999999999957,
                    "velocity": 0.5275590551181102,
                    "duration": 0.4958333333333087
                },
                {
                    "name": "A#5",
                    "midi": 82,
                    "time": 208.99999999999957,
                    "velocity": 0.44881889763779526,
                    "duration": 0.4958333333333087
                },
                {
                    "name": "F#5",
                    "midi": 78,
                    "time": 209.24999999999955,
                    "velocity": 0.4094488188976378,
                    "duration": 0.24583333333333712
                },
                {
                    "name": "G#2",
                    "midi": 44,
                    "time": 209.49999999999955,
                    "velocity": 0.2440944881889764,
                    "duration": 0.4958333333333371
                },
                {
                    "name": "G#1",
                    "midi": 32,
                    "time": 209.49999999999955,
                    "velocity": 0.2677165354330709,
                    "duration": 0.4958333333333371
                },
                {
                    "name": "F5",
                    "midi": 77,
                    "time": 209.49999999999955,
                    "velocity": 0.4645669291338583,
                    "duration": 0.24583333333333712
                },
                {
                    "name": "F6",
                    "midi": 89,
                    "time": 209.49999999999955,
                    "velocity": 0.5826771653543307,
                    "duration": 0.24583333333333712
                },
                {
                    "name": "A#5",
                    "midi": 82,
                    "time": 209.74999999999955,
                    "velocity": 0.3779527559055118,
                    "duration": 0.24583333333333712
                },
                {
                    "name": "G6",
                    "midi": 91,
                    "time": 209.74999999999955,
                    "velocity": 0.5511811023622047,
                    "duration": 0.24583333333333712
                },
                {
                    "name": "E4",
                    "midi": 64,
                    "time": 209.99999999999955,
                    "velocity": 0.4330708661417323,
                    "duration": 0.4958333333333371
                },
                {
                    "name": "C5",
                    "midi": 72,
                    "time": 209.99999999999955,
                    "velocity": 0.33858267716535434,
                    "duration": 0.4958333333333371
                },
                {
                    "name": "G4",
                    "midi": 67,
                    "time": 209.99999999999955,
                    "velocity": 0.3228346456692913,
                    "duration": 0.4958333333333371
                },
                {
                    "name": "A5",
                    "midi": 81,
                    "time": 209.99999999999955,
                    "velocity": 0.3700787401574803,
                    "duration": 0.24583333333333712
                },
                {
                    "name": "C6",
                    "midi": 84,
                    "time": 209.99999999999955,
                    "velocity": 0.5354330708661418,
                    "duration": 0.4958333333333371
                },
                {
                    "name": "G#5",
                    "midi": 80,
                    "time": 210.24999999999955,
                    "velocity": 0.47244094488188976,
                    "duration": 0.24583333333333712
                },
                {
                    "name": "E2",
                    "midi": 40,
                    "time": 210.49999999999955,
                    "velocity": 0.3937007874015748,
                    "duration": 0.4958333333333371
                },
                {
                    "name": "G5",
                    "midi": 79,
                    "time": 210.49999999999955,
                    "velocity": 0.44881889763779526,
                    "duration": 0.24583333333333712
                },
                {
                    "name": "C6",
                    "midi": 84,
                    "time": 210.49999999999955,
                    "velocity": 0.49606299212598426,
                    "duration": 0.4958333333333371
                },
                {
                    "name": "F#5",
                    "midi": 78,
                    "time": 210.74999999999955,
                    "velocity": 0.5433070866141733,
                    "duration": 0.24583333333333712
                },
                {
                    "name": "G#2",
                    "midi": 44,
                    "time": 210.99999999999955,
                    "velocity": 0.18110236220472442,
                    "duration": 0.4958333333333087
                },
                {
                    "name": "G#1",
                    "midi": 32,
                    "time": 210.99999999999955,
                    "velocity": 0.18110236220472442,
                    "duration": 0.4958333333333087
                },
                {
                    "name": "F5",
                    "midi": 77,
                    "time": 210.99999999999955,
                    "velocity": 0.5039370078740157,
                    "duration": 0.2458333333333087
                },
                {
                    "name": "B5",
                    "midi": 83,
                    "time": 210.99999999999955,
                    "velocity": 0.5433070866141733,
                    "duration": 0.4958333333333087
                },
                {
                    "name": "D#6",
                    "midi": 87,
                    "time": 210.99999999999955,
                    "velocity": 0.4330708661417323,
                    "duration": 0.4958333333333087
                },
                {
                    "name": "F#5",
                    "midi": 78,
                    "time": 211.24999999999952,
                    "velocity": 0.3700787401574803,
                    "duration": 0.24583333333333712
                },
                {
                    "name": "G4",
                    "midi": 67,
                    "time": 211.49999999999952,
                    "velocity": 0.36220472440944884,
                    "duration": 0.4958333333333371
                },
                {
                    "name": "B4",
                    "midi": 71,
                    "time": 211.49999999999952,
                    "velocity": 0.3937007874015748,
                    "duration": 0.4958333333333371
                },
                {
                    "name": "D4",
                    "midi": 62,
                    "time": 211.49999999999952,
                    "velocity": 0.3700787401574803,
                    "duration": 0.4958333333333371
                },
                {
                    "name": "G5",
                    "midi": 79,
                    "time": 211.49999999999952,
                    "velocity": 0.4645669291338583,
                    "duration": 0.24583333333333712
                },
                {
                    "name": "B5",
                    "midi": 83,
                    "time": 211.49999999999952,
                    "velocity": 0.49606299212598426,
                    "duration": 0.4958333333333371
                },
                {
                    "name": "D6",
                    "midi": 86,
                    "time": 211.49999999999952,
                    "velocity": 0.5039370078740157,
                    "duration": 0.4958333333333371
                },
                {
                    "name": "F#5",
                    "midi": 78,
                    "time": 211.74999999999952,
                    "velocity": 0.4881889763779528,
                    "duration": 0.24583333333333712
                },
                {
                    "name": "G#2",
                    "midi": 44,
                    "time": 211.99999999999952,
                    "velocity": 0.33858267716535434,
                    "duration": 0.4958333333333371
                },
                {
                    "name": "G#1",
                    "midi": 32,
                    "time": 211.99999999999952,
                    "velocity": 0.33858267716535434,
                    "duration": 0.4958333333333371
                },
                {
                    "name": "F5",
                    "midi": 77,
                    "time": 211.99999999999952,
                    "velocity": 0.49606299212598426,
                    "duration": 0.24583333333333712
                },
                {
                    "name": "A5",
                    "midi": 81,
                    "time": 211.99999999999952,
                    "velocity": 0.4566929133858268,
                    "duration": 0.4958333333333371
                },
                {
                    "name": "C6",
                    "midi": 84,
                    "time": 211.99999999999952,
                    "velocity": 0.47244094488188976,
                    "duration": 0.4958333333333371
                },
                {
                    "name": "E5",
                    "midi": 76,
                    "time": 212.24999999999952,
                    "velocity": 0.47244094488188976,
                    "duration": 0.24583333333333712
                },
                {
                    "name": "C5",
                    "midi": 72,
                    "time": 212.49999999999952,
                    "velocity": 0.4251968503937008,
                    "duration": 0.4958333333333087
                },
                {
                    "name": "F#4",
                    "midi": 66,
                    "time": 212.49999999999952,
                    "velocity": 0.3779527559055118,
                    "duration": 0.4958333333333087
                },
                {
                    "name": "D#4",
                    "midi": 63,
                    "time": 212.49999999999952,
                    "velocity": 0.2204724409448819,
                    "duration": 0.4958333333333087
                },
                {
                    "name": "D#5",
                    "midi": 75,
                    "time": 212.49999999999952,
                    "velocity": 0.4566929133858268,
                    "duration": 0.2458333333333087
                },
                {
                    "name": "A#5",
                    "midi": 82,
                    "time": 212.49999999999952,
                    "velocity": 0.5275590551181102,
                    "duration": 0.4958333333333087
                },
                {
                    "name": "G5",
                    "midi": 79,
                    "time": 212.49999999999952,
                    "velocity": 0.4251968503937008,
                    "duration": 0.4958333333333087
                },
                {
                    "name": "D5",
                    "midi": 74,
                    "time": 212.7499999999995,
                    "velocity": 0.3543307086614173,
                    "duration": 0.24583333333333712
                },
                {
                    "name": "G#2",
                    "midi": 44,
                    "time": 212.9999999999995,
                    "velocity": 0.2204724409448819,
                    "duration": 0.4958333333333371
                },
                {
                    "name": "G#1",
                    "midi": 32,
                    "time": 212.9999999999995,
                    "velocity": 0.31496062992125984,
                    "duration": 0.4958333333333371
                },
                {
                    "name": "C5",
                    "midi": 72,
                    "time": 212.9999999999995,
                    "velocity": 0.4330708661417323,
                    "duration": 0.24583333333333712
                },
                {
                    "name": "C6",
                    "midi": 84,
                    "time": 212.9999999999995,
                    "velocity": 0.5748031496062992,
                    "duration": 0.24583333333333712
                },
                {
                    "name": "F#5",
                    "midi": 78,
                    "time": 213.2499999999995,
                    "velocity": 0.4251968503937008,
                    "duration": 0.24583333333333712
                },
                {
                    "name": "D6",
                    "midi": 86,
                    "time": 213.2499999999995,
                    "velocity": 0.5984251968503937,
                    "duration": 0.24583333333333712
                },
                {
                    "name": "G4",
                    "midi": 67,
                    "time": 213.4999999999995,
                    "velocity": 0.41732283464566927,
                    "duration": 0.4958333333333371
                },
                {
                    "name": "C5",
                    "midi": 72,
                    "time": 213.4999999999995,
                    "velocity": 0.4330708661417323,
                    "duration": 0.4958333333333371
                },
                {
                    "name": "E4",
                    "midi": 64,
                    "time": 213.4999999999995,
                    "velocity": 0.4015748031496063,
                    "duration": 0.4958333333333371
                },
                {
                    "name": "F5",
                    "midi": 77,
                    "time": 213.4999999999995,
                    "velocity": 0.4881889763779528,
                    "duration": 0.24583333333333712
                },
                {
                    "name": "A5",
                    "midi": 81,
                    "time": 213.4999999999995,
                    "velocity": 0.4566929133858268,
                    "duration": 0.4958333333333371
                },
                {
                    "name": "E5",
                    "midi": 76,
                    "time": 213.7499999999995,
                    "velocity": 0.47244094488188976,
                    "duration": 0.24583333333333712
                },
                {
                    "name": "E2",
                    "midi": 40,
                    "time": 213.9999999999995,
                    "velocity": 0.4094488188976378,
                    "duration": 0.4958333333333371
                },
                {
                    "name": "D#5",
                    "midi": 75,
                    "time": 213.9999999999995,
                    "velocity": 0.5354330708661418,
                    "duration": 0.24583333333333712
                },
                {
                    "name": "F5",
                    "midi": 77,
                    "time": 213.9999999999995,
                    "velocity": 0.3937007874015748,
                    "duration": 0.4958333333333371
                },
                {
                    "name": "A5",
                    "midi": 81,
                    "time": 213.9999999999995,
                    "velocity": 0.3700787401574803,
                    "duration": 0.4958333333333371
                },
                {
                    "name": "D5",
                    "midi": 74,
                    "time": 214.2499999999995,
                    "velocity": 0.44881889763779526,
                    "duration": 0.24583333333333712
                },
                {
                    "name": "G#2",
                    "midi": 44,
                    "time": 214.4999999999995,
                    "velocity": 0.28346456692913385,
                    "duration": 0.4958333333333087
                },
                {
                    "name": "G#1",
                    "midi": 32,
                    "time": 214.4999999999995,
                    "velocity": 0.28346456692913385,
                    "duration": 0.4958333333333087
                },
                {
                    "name": "C#5",
                    "midi": 73,
                    "time": 214.4999999999995,
                    "velocity": 0.44881889763779526,
                    "duration": 0.2458333333333087
                },
                {
                    "name": "D#5",
                    "midi": 75,
                    "time": 214.4999999999995,
                    "velocity": 0.41732283464566927,
                    "duration": 0.4958333333333087
                },
                {
                    "name": "G#5",
                    "midi": 80,
                    "time": 214.4999999999995,
                    "velocity": 0.44881889763779526,
                    "duration": 0.4958333333333087
                },
                {
                    "name": "C5",
                    "midi": 72,
                    "time": 214.74999999999946,
                    "velocity": 0.4251968503937008,
                    "duration": 0.24583333333333712
                },
                {
                    "name": "G4",
                    "midi": 67,
                    "time": 214.99999999999946,
                    "velocity": 0.2204724409448819,
                    "duration": 0.4958333333333371
                },
                {
                    "name": "D4",
                    "midi": 62,
                    "time": 214.99999999999946,
                    "velocity": 0.3700787401574803,
                    "duration": 0.4958333333333371
                },
                {
                    "name": "B3",
                    "midi": 59,
                    "time": 214.99999999999946,
                    "velocity": 0.3543307086614173,
                    "duration": 0.4958333333333371
                },
                {
                    "name": "B4",
                    "midi": 71,
                    "time": 214.99999999999946,
                    "velocity": 0.3700787401574803,
                    "duration": 0.24583333333333712
                },
                {
                    "name": "D5",
                    "midi": 74,
                    "time": 214.99999999999946,
                    "velocity": 0.41732283464566927,
                    "duration": 0.4958333333333371
                },
                {
                    "name": "G5",
                    "midi": 79,
                    "time": 214.99999999999946,
                    "velocity": 0.47244094488188976,
                    "duration": 0.4958333333333371
                },
                {
                    "name": "A#4",
                    "midi": 70,
                    "time": 215.24999999999946,
                    "velocity": 0.3858267716535433,
                    "duration": 0.24583333333333712
                },
                {
                    "name": "G#2",
                    "midi": 44,
                    "time": 215.49999999999946,
                    "velocity": 0.2755905511811024,
                    "duration": 0.4958333333333371
                },
                {
                    "name": "G#1",
                    "midi": 32,
                    "time": 215.49999999999946,
                    "velocity": 0.3228346456692913,
                    "duration": 0.4958333333333371
                },
                {
                    "name": "A4",
                    "midi": 69,
                    "time": 215.49999999999946,
                    "velocity": 0.4330708661417323,
                    "duration": 0.24583333333333712
                },
                {
                    "name": "F5",
                    "midi": 77,
                    "time": 215.49999999999946,
                    "velocity": 0.3937007874015748,
                    "duration": 0.4958333333333371
                },
                {
                    "name": "C5",
                    "midi": 72,
                    "time": 215.49999999999946,
                    "velocity": 0.4330708661417323,
                    "duration": 0.4958333333333371
                },
                {
                    "name": "G#4",
                    "midi": 68,
                    "time": 215.74999999999946,
                    "velocity": 0.4094488188976378,
                    "duration": 0.24583333333333712
                },
                {
                    "name": "C4",
                    "midi": 60,
                    "time": 215.99999999999946,
                    "velocity": 0.4094488188976378,
                    "duration": 0.4958333333333087
                },
                {
                    "name": "D3",
                    "midi": 50,
                    "time": 215.99999999999946,
                    "velocity": 0.3543307086614173,
                    "duration": 0.4958333333333087
                },
                {
                    "name": "F#3",
                    "midi": 54,
                    "time": 215.99999999999946,
                    "velocity": 0.3543307086614173,
                    "duration": 0.4958333333333087
                },
                {
                    "name": "G4",
                    "midi": 67,
                    "time": 215.99999999999946,
                    "velocity": 0.3700787401574803,
                    "duration": 0.2458333333333087
                },
                {
                    "name": "A#4",
                    "midi": 70,
                    "time": 215.99999999999946,
                    "velocity": 0.3937007874015748,
                    "duration": 0.4958333333333087
                },
                {
                    "name": "D#5",
                    "midi": 75,
                    "time": 215.99999999999946,
                    "velocity": 0.41732283464566927,
                    "duration": 0.4958333333333087
                },
                {
                    "name": "F#4",
                    "midi": 66,
                    "time": 216.24999999999943,
                    "velocity": 0.3937007874015748,
                    "duration": 0.24583333333333712
                },
                {
                    "name": "G#2",
                    "midi": 44,
                    "time": 216.49999999999943,
                    "velocity": 0.36220472440944884,
                    "duration": 0.4958333333333371
                },
                {
                    "name": "G#1",
                    "midi": 32,
                    "time": 216.49999999999943,
                    "velocity": 0.3779527559055118,
                    "duration": 0.4958333333333371
                },
                {
                    "name": "F4",
                    "midi": 65,
                    "time": 216.49999999999943,
                    "velocity": 0.4015748031496063,
                    "duration": 0.24583333333333712
                },
                {
                    "name": "F5",
                    "midi": 77,
                    "time": 216.49999999999943,
                    "velocity": 0.5433070866141733,
                    "duration": 0.24583333333333712
                },
                {
                    "name": "A#4",
                    "midi": 70,
                    "time": 216.74999999999943,
                    "velocity": 0.3543307086614173,
                    "duration": 0.24583333333333712
                },
                {
                    "name": "G5",
                    "midi": 79,
                    "time": 216.74999999999943,
                    "velocity": 0.5669291338582677,
                    "duration": 0.24583333333333712
                },
                {
                    "name": "C4",
                    "midi": 60,
                    "time": 216.99999999999943,
                    "velocity": 0.3700787401574803,
                    "duration": 0.4958333333333371
                },
                {
                    "name": "G3",
                    "midi": 55,
                    "time": 216.99999999999943,
                    "velocity": 0.33070866141732286,
                    "duration": 0.4958333333333371
                },
                {
                    "name": "E3",
                    "midi": 52,
                    "time": 216.99999999999943,
                    "velocity": 0.3228346456692913,
                    "duration": 0.4958333333333371
                },
                {
                    "name": "A4",
                    "midi": 69,
                    "time": 216.99999999999943,
                    "velocity": 0.3858267716535433,
                    "duration": 0.24583333333333712
                },
                {
                    "name": "C5",
                    "midi": 72,
                    "time": 216.99999999999943,
                    "velocity": 0.5118110236220472,
                    "duration": 0.4958333333333371
                },
                {
                    "name": "G#4",
                    "midi": 68,
                    "time": 217.24999999999943,
                    "velocity": 0.2125984251968504,
                    "duration": 0.24583333333333712
                },
                {
                    "name": "E2",
                    "midi": 40,
                    "time": 217.49999999999943,
                    "velocity": 0.4566929133858268,
                    "duration": 0.4958333333333371
                },
                {
                    "name": "G4",
                    "midi": 67,
                    "time": 217.49999999999943,
                    "velocity": 0.2755905511811024,
                    "duration": 0.24583333333333712
                },
                {
                    "name": "C5",
                    "midi": 72,
                    "time": 217.49999999999943,
                    "velocity": 0.4330708661417323,
                    "duration": 0.4958333333333371
                },
                {
                    "name": "A4",
                    "midi": 69,
                    "time": 217.49999999999943,
                    "velocity": 0.5118110236220472,
                    "duration": 0.4958333333333371
                },
                {
                    "name": "F#4",
                    "midi": 66,
                    "time": 217.74999999999943,
                    "velocity": 0.2204724409448819,
                    "duration": 0.24583333333333712
                },
                {
                    "name": "G#2",
                    "midi": 44,
                    "time": 217.99999999999943,
                    "velocity": 0.41732283464566927,
                    "duration": 0.4958333333333087
                },
                {
                    "name": "G#1",
                    "midi": 32,
                    "time": 217.99999999999943,
                    "velocity": 0.36220472440944884,
                    "duration": 0.4958333333333087
                },
                {
                    "name": "F4",
                    "midi": 65,
                    "time": 217.99999999999943,
                    "velocity": 0.25984251968503935,
                    "duration": 0.2458333333333087
                },
                {
                    "name": "B4",
                    "midi": 71,
                    "time": 217.99999999999943,
                    "velocity": 0.5039370078740157,
                    "duration": 0.4958333333333087
                },
                {
                    "name": "D#5",
                    "midi": 75,
                    "time": 217.99999999999943,
                    "velocity": 0.4566929133858268,
                    "duration": 0.4958333333333087
                },
                {
                    "name": "F#4",
                    "midi": 66,
                    "time": 218.2499999999994,
                    "velocity": 0.2677165354330709,
                    "duration": 0.24583333333333712
                },
                {
                    "name": "D3",
                    "midi": 50,
                    "time": 218.4999999999994,
                    "velocity": 0.2125984251968504,
                    "duration": 0.4958333333333371
                },
                {
                    "name": "G3",
                    "midi": 55,
                    "time": 218.4999999999994,
                    "velocity": 0.36220472440944884,
                    "duration": 0.4958333333333371
                },
                {
                    "name": "B3",
                    "midi": 59,
                    "time": 218.4999999999994,
                    "velocity": 0.33858267716535434,
                    "duration": 0.4958333333333371
                },
                {
                    "name": "G4",
                    "midi": 67,
                    "time": 218.4999999999994,
                    "velocity": 0.41732283464566927,
                    "duration": 0.24583333333333712
                },
                {
                    "name": "B4",
                    "midi": 71,
                    "time": 218.4999999999994,
                    "velocity": 0.4566929133858268,
                    "duration": 0.4958333333333371
                },
                {
                    "name": "D5",
                    "midi": 74,
                    "time": 218.4999999999994,
                    "velocity": 0.41732283464566927,
                    "duration": 0.4958333333333371
                },
                {
                    "name": "F#4",
                    "midi": 66,
                    "time": 218.7499999999994,
                    "velocity": 0.3543307086614173,
                    "duration": 0.24583333333333712
                },
                {
                    "name": "G#2",
                    "midi": 44,
                    "time": 218.9999999999994,
                    "velocity": 0.28346456692913385,
                    "duration": 0.4958333333333371
                },
                {
                    "name": "G#1",
                    "midi": 32,
                    "time": 218.9999999999994,
                    "velocity": 0.25196850393700787,
                    "duration": 0.4958333333333371
                },
                {
                    "name": "F4",
                    "midi": 65,
                    "time": 218.9999999999994,
                    "velocity": 0.3543307086614173,
                    "duration": 0.24583333333333712
                },
                {
                    "name": "A4",
                    "midi": 69,
                    "time": 218.9999999999994,
                    "velocity": 0.4881889763779528,
                    "duration": 0.4958333333333371
                },
                {
                    "name": "C5",
                    "midi": 72,
                    "time": 218.9999999999994,
                    "velocity": 0.44881889763779526,
                    "duration": 0.4958333333333371
                },
                {
                    "name": "E4",
                    "midi": 64,
                    "time": 219.2499999999994,
                    "velocity": 0.4094488188976378,
                    "duration": 0.24583333333333712
                },
                {
                    "name": "C4",
                    "midi": 60,
                    "time": 219.4999999999994,
                    "velocity": 0.4094488188976378,
                    "duration": 0.4958333333333087
                },
                {
                    "name": "F#3",
                    "midi": 54,
                    "time": 219.4999999999994,
                    "velocity": 0.2677165354330709,
                    "duration": 0.4958333333333087
                },
                {
                    "name": "D3",
                    "midi": 50,
                    "time": 219.4999999999994,
                    "velocity": 0.2992125984251969,
                    "duration": 0.4958333333333087
                },
                {
                    "name": "D#4",
                    "midi": 63,
                    "time": 219.4999999999994,
                    "velocity": 0.2755905511811024,
                    "duration": 0.2458333333333087
                },
                {
                    "name": "G4",
                    "midi": 67,
                    "time": 219.4999999999994,
                    "velocity": 0.33858267716535434,
                    "duration": 0.4958333333333087
                },
                {
                    "name": "A#4",
                    "midi": 70,
                    "time": 219.4999999999994,
                    "velocity": 0.4881889763779528,
                    "duration": 0.4958333333333087
                },
                {
                    "name": "D4",
                    "midi": 62,
                    "time": 219.74999999999937,
                    "velocity": 0.2992125984251969,
                    "duration": 0.24583333333333712
                },
                {
                    "name": "G#2",
                    "midi": 44,
                    "time": 219.99999999999937,
                    "velocity": 0.3700787401574803,
                    "duration": 0.4958333333333371
                },
                {
                    "name": "G#1",
                    "midi": 32,
                    "time": 219.99999999999937,
                    "velocity": 0.33858267716535434,
                    "duration": 0.4958333333333371
                },
                {
                    "name": "C4",
                    "midi": 60,
                    "time": 219.99999999999937,
                    "velocity": 0.2992125984251969,
                    "duration": 0.24583333333333712
                },
                {
                    "name": "C5",
                    "midi": 72,
                    "time": 219.99999999999937,
                    "velocity": 0.5118110236220472,
                    "duration": 0.24583333333333712
                },
                {
                    "name": "F#4",
                    "midi": 66,
                    "time": 220.24999999999937,
                    "velocity": 0.25984251968503935,
                    "duration": 0.24583333333333712
                },
                {
                    "name": "D5",
                    "midi": 74,
                    "time": 220.24999999999937,
                    "velocity": 0.5905511811023622,
                    "duration": 0.24583333333333712
                },
                {
                    "name": "C4",
                    "midi": 60,
                    "time": 220.49999999999937,
                    "velocity": 0.4330708661417323,
                    "duration": 0.4958333333333371
                },
                {
                    "name": "E3",
                    "midi": 52,
                    "time": 220.49999999999937,
                    "velocity": 0.3543307086614173,
                    "duration": 0.4958333333333371
                },
                {
                    "name": "G3",
                    "midi": 55,
                    "time": 220.49999999999937,
                    "velocity": 0.31496062992125984,
                    "duration": 0.4958333333333371
                },
                {
                    "name": "F4",
                    "midi": 65,
                    "time": 220.49999999999937,
                    "velocity": 0.25984251968503935,
                    "duration": 0.24583333333333712
                },
                {
                    "name": "A4",
                    "midi": 69,
                    "time": 220.49999999999937,
                    "velocity": 0.5511811023622047,
                    "duration": 0.4958333333333371
                },
                {
                    "name": "E4",
                    "midi": 64,
                    "time": 220.74999999999937,
                    "velocity": 0.33858267716535434,
                    "duration": 0.24583333333333712
                },
                {
                    "name": "E2",
                    "midi": 40,
                    "time": 220.99999999999937,
                    "velocity": 0.5039370078740157,
                    "duration": 0.4958333333333371
                },
                {
                    "name": "D#4",
                    "midi": 63,
                    "time": 220.99999999999937,
                    "velocity": 0.23622047244094488,
                    "duration": 0.24583333333333712
                },
                {
                    "name": "F4",
                    "midi": 65,
                    "time": 220.99999999999937,
                    "velocity": 0.3543307086614173,
                    "duration": 0.4958333333333371
                },
                {
                    "name": "A4",
                    "midi": 69,
                    "time": 220.99999999999937,
                    "velocity": 0.4330708661417323,
                    "duration": 0.4958333333333371
                },
                {
                    "name": "D4",
                    "midi": 62,
                    "time": 221.24999999999937,
                    "velocity": 0.3543307086614173,
                    "duration": 0.24583333333333712
                },
                {
                    "name": "G#2",
                    "midi": 44,
                    "time": 221.49999999999937,
                    "velocity": 0.4094488188976378,
                    "duration": 0.4958333333333087
                },
                {
                    "name": "G#1",
                    "midi": 32,
                    "time": 221.49999999999937,
                    "velocity": 0.4409448818897638,
                    "duration": 0.4958333333333087
                },
                {
                    "name": "C#4",
                    "midi": 61,
                    "time": 221.49999999999937,
                    "velocity": 0.2204724409448819,
                    "duration": 0.2458333333333087
                },
                {
                    "name": "D#4",
                    "midi": 63,
                    "time": 221.49999999999937,
                    "velocity": 0.33858267716535434,
                    "duration": 0.4958333333333087
                },
                {
                    "name": "G#4",
                    "midi": 68,
                    "time": 221.49999999999937,
                    "velocity": 0.3937007874015748,
                    "duration": 0.4958333333333087
                },
                {
                    "name": "C4",
                    "midi": 60,
                    "time": 221.74999999999935,
                    "velocity": 0.29133858267716534,
                    "duration": 0.24583333333333712
                },
                {
                    "name": "D3",
                    "midi": 50,
                    "time": 221.99999999999935,
                    "velocity": 0.25984251968503935,
                    "duration": 0.4958333333333371
                },
                {
                    "name": "B2",
                    "midi": 47,
                    "time": 221.99999999999935,
                    "velocity": 0.2125984251968504,
                    "duration": 0.4958333333333371
                },
                {
                    "name": "G3",
                    "midi": 55,
                    "time": 221.99999999999935,
                    "velocity": 0.2283464566929134,
                    "duration": 0.4958333333333371
                },
                {
                    "name": "B3",
                    "midi": 59,
                    "time": 221.99999999999935,
                    "velocity": 0.44881889763779526,
                    "duration": 0.24583333333333712
                },
                {
                    "name": "G4",
                    "midi": 67,
                    "time": 221.99999999999935,
                    "velocity": 0.3779527559055118,
                    "duration": 0.4958333333333371
                },
                {
                    "name": "D4",
                    "midi": 62,
                    "time": 221.99999999999935,
                    "velocity": 0.3779527559055118,
                    "duration": 0.4958333333333371
                },
                {
                    "name": "A#3",
                    "midi": 58,
                    "time": 222.24999999999935,
                    "velocity": 0.4251968503937008,
                    "duration": 0.24583333333333712
                },
                {
                    "name": "G#1",
                    "midi": 32,
                    "time": 222.49999999999935,
                    "velocity": 0.3779527559055118,
                    "duration": 0.4958333333333371
                },
                {
                    "name": "A3",
                    "midi": 57,
                    "time": 222.49999999999935,
                    "velocity": 0.3779527559055118,
                    "duration": 0.24583333333333712
                },
                {
                    "name": "C4",
                    "midi": 60,
                    "time": 222.49999999999935,
                    "velocity": 0.4251968503937008,
                    "duration": 0.4958333333333371
                },
                {
                    "name": "F4",
                    "midi": 65,
                    "time": 222.49999999999935,
                    "velocity": 0.47244094488188976,
                    "duration": 0.4958333333333371
                },
                {
                    "name": "G#3",
                    "midi": 56,
                    "time": 222.74999999999935,
                    "velocity": 0.2047244094488189,
                    "duration": 0.24583333333333712
                },
                {
                    "name": "D2",
                    "midi": 38,
                    "time": 222.99999999999935,
                    "velocity": 0.2677165354330709,
                    "duration": 0.4958333333333371
                },
                {
                    "name": "F#2",
                    "midi": 42,
                    "time": 222.99999999999935,
                    "velocity": 0.25196850393700787,
                    "duration": 0.4958333333333371
                },
                {
                    "name": "C3",
                    "midi": 48,
                    "time": 222.99999999999935,
                    "velocity": 0.36220472440944884,
                    "duration": 0.4958333333333371
                },
                {
                    "name": "G3",
                    "midi": 55,
                    "time": 222.99999999999935,
                    "velocity": 0.3779527559055118,
                    "duration": 0.24583333333333712
                },
                {
                    "name": "D#4",
                    "midi": 63,
                    "time": 222.99999999999935,
                    "velocity": 0.4566929133858268,
                    "duration": 0.4958333333333371
                },
                {
                    "name": "A#3",
                    "midi": 58,
                    "time": 222.99999999999935,
                    "velocity": 0.3937007874015748,
                    "duration": 0.4958333333333371
                },
                {
                    "name": "F#3",
                    "midi": 54,
                    "time": 223.24999999999935,
                    "velocity": 0.28346456692913385,
                    "duration": 0.24583333333333712
                },
                {
                    "name": "G#1",
                    "midi": 32,
                    "time": 223.49999999999935,
                    "velocity": 0.4094488188976378,
                    "duration": 0.4958333333333371
                },
                {
                    "name": "F3",
                    "midi": 53,
                    "time": 223.49999999999935,
                    "velocity": 0.3543307086614173,
                    "duration": 0.24583333333333712
                },
                {
                    "name": "F4",
                    "midi": 65,
                    "time": 223.49999999999935,
                    "velocity": 0.5748031496062992,
                    "duration": 0.24583333333333712
                },
                {
                    "name": "A#3",
                    "midi": 58,
                    "time": 223.74999999999935,
                    "velocity": 0.3937007874015748,
                    "duration": 0.24583333333333712
                },
                {
                    "name": "G4",
                    "midi": 67,
                    "time": 223.74999999999935,
                    "velocity": 0.5275590551181102,
                    "duration": 0.24583333333333712
                },
                {
                    "name": "G2",
                    "midi": 43,
                    "time": 223.99999999999935,
                    "velocity": 0.4094488188976378,
                    "duration": 0.4958333333333371
                },
                {
                    "name": "E2",
                    "midi": 40,
                    "time": 223.99999999999935,
                    "velocity": 0.2992125984251969,
                    "duration": 0.4958333333333371
                },
                {
                    "name": "C3",
                    "midi": 48,
                    "time": 223.99999999999935,
                    "velocity": 0.3543307086614173,
                    "duration": 0.4958333333333371
                },
                {
                    "name": "A3",
                    "midi": 57,
                    "time": 223.99999999999935,
                    "velocity": 0.2755905511811024,
                    "duration": 0.24583333333333712
                },
                {
                    "name": "C4",
                    "midi": 60,
                    "time": 223.99999999999935,
                    "velocity": 0.5275590551181102,
                    "duration": 0.4958333333333371
                },
                {
                    "name": "G#3",
                    "midi": 56,
                    "time": 224.24999999999935,
                    "velocity": 0.2204724409448819,
                    "duration": 0.24583333333333712
                },
                {
                    "name": "E2",
                    "midi": 40,
                    "time": 224.49999999999935,
                    "velocity": 0.4409448818897638,
                    "duration": 0.4958333333333371
                },
                {
                    "name": "G3",
                    "midi": 55,
                    "time": 224.49999999999935,
                    "velocity": 0.33070866141732286,
                    "duration": 0.24583333333333712
                },
                {
                    "name": "C4",
                    "midi": 60,
                    "time": 224.49999999999935,
                    "velocity": 0.5118110236220472,
                    "duration": 0.4958333333333371
                },
                {
                    "name": "A3",
                    "midi": 57,
                    "time": 224.49999999999935,
                    "velocity": 0.3228346456692913,
                    "duration": 0.4958333333333371
                },
                {
                    "name": "F#3",
                    "midi": 54,
                    "time": 224.74999999999935,
                    "velocity": 0.28346456692913385,
                    "duration": 0.24583333333333712
                },
                {
                    "name": "G#1",
                    "midi": 32,
                    "time": 224.99999999999935,
                    "velocity": 0.3779527559055118,
                    "duration": 0.4958333333333371
                },
                {
                    "name": "F3",
                    "midi": 53,
                    "time": 224.99999999999935,
                    "velocity": 0.2677165354330709,
                    "duration": 0.24583333333333712
                },
                {
                    "name": "B3",
                    "midi": 59,
                    "time": 224.99999999999935,
                    "velocity": 0.47244094488188976,
                    "duration": 0.4958333333333371
                },
                {
                    "name": "D#4",
                    "midi": 63,
                    "time": 224.99999999999935,
                    "velocity": 0.47244094488188976,
                    "duration": 0.4958333333333371
                },
                {
                    "name": "F#3",
                    "midi": 54,
                    "time": 225.24999999999935,
                    "velocity": 0.23622047244094488,
                    "duration": 0.24583333333333712
                },
                {
                    "name": "D2",
                    "midi": 38,
                    "time": 225.49999999999935,
                    "velocity": 0.33858267716535434,
                    "duration": 0.4958333333333371
                },
                {
                    "name": "G2",
                    "midi": 43,
                    "time": 225.49999999999935,
                    "velocity": 0.33070866141732286,
                    "duration": 0.4958333333333371
                },
                {
                    "name": "B2",
                    "midi": 47,
                    "time": 225.49999999999935,
                    "velocity": 0.3543307086614173,
                    "duration": 0.4958333333333371
                },
                {
                    "name": "G3",
                    "midi": 55,
                    "time": 225.49999999999935,
                    "velocity": 0.33858267716535434,
                    "duration": 0.24583333333333712
                },
                {
                    "name": "B3",
                    "midi": 59,
                    "time": 225.49999999999935,
                    "velocity": 0.4566929133858268,
                    "duration": 0.4958333333333371
                },
                {
                    "name": "D4",
                    "midi": 62,
                    "time": 225.49999999999935,
                    "velocity": 0.4566929133858268,
                    "duration": 0.4958333333333371
                },
                {
                    "name": "F#3",
                    "midi": 54,
                    "time": 225.74999999999935,
                    "velocity": 0.3543307086614173,
                    "duration": 0.24583333333333712
                },
                {
                    "name": "C3",
                    "midi": 48,
                    "time": 225.99999999999935,
                    "velocity": 0.2047244094488189,
                    "duration": 0.4958333333333371
                },
                {
                    "name": "F#2",
                    "midi": 42,
                    "time": 225.99999999999935,
                    "velocity": 0.3543307086614173,
                    "duration": 0.4958333333333371
                },
                {
                    "name": "D2",
                    "midi": 38,
                    "time": 225.99999999999935,
                    "velocity": 0.2992125984251969,
                    "duration": 0.4958333333333371
                },
                {
                    "name": "G#1",
                    "midi": 32,
                    "time": 225.99999999999935,
                    "velocity": 0.36220472440944884,
                    "duration": 0.4958333333333371
                },
                {
                    "name": "F3",
                    "midi": 53,
                    "time": 225.99999999999935,
                    "velocity": 0.28346456692913385,
                    "duration": 0.24583333333333712
                },
                {
                    "name": "A3",
                    "midi": 57,
                    "time": 225.99999999999935,
                    "velocity": 0.25984251968503935,
                    "duration": 0.4958333333333371
                },
                {
                    "name": "C4",
                    "midi": 60,
                    "time": 225.99999999999935,
                    "velocity": 0.4330708661417323,
                    "duration": 0.4958333333333371
                },
                {
                    "name": "E3",
                    "midi": 52,
                    "time": 226.24999999999935,
                    "velocity": 0.3543307086614173,
                    "duration": 0.24583333333333712
                },
                {
                    "name": "G#2",
                    "midi": 44,
                    "time": 226.49999999999935,
                    "velocity": 0.31496062992125984,
                    "duration": 0.4958333333333371
                },
                {
                    "name": "D#3",
                    "midi": 51,
                    "time": 226.49999999999935,
                    "velocity": 0.33070866141732286,
                    "duration": 0.24583333333333712
                },
                {
                    "name": "A#3",
                    "midi": 58,
                    "time": 226.49999999999935,
                    "velocity": 0.3700787401574803,
                    "duration": 0.4958333333333371
                },
                {
                    "name": "G3",
                    "midi": 55,
                    "time": 226.49999999999935,
                    "velocity": 0.3228346456692913,
                    "duration": 0.4958333333333371
                },
                {
                    "name": "D3",
                    "midi": 50,
                    "time": 226.74999999999935,
                    "velocity": 0.33858267716535434,
                    "duration": 0.24583333333333712
                },
                {
                    "name": "G#1",
                    "midi": 32,
                    "time": 226.99999999999935,
                    "velocity": 0.33858267716535434,
                    "duration": 0.4958333333333371
                },
                {
                    "name": "C3",
                    "midi": 48,
                    "time": 226.99999999999935,
                    "velocity": 0.33070866141732286,
                    "duration": 0.24583333333333712
                },
                {
                    "name": "C4",
                    "midi": 60,
                    "time": 226.99999999999935,
                    "velocity": 0.5354330708661418,
                    "duration": 0.24583333333333712
                },
                {
                    "name": "F#3",
                    "midi": 54,
                    "time": 227.24999999999935,
                    "velocity": 0.3228346456692913,
                    "duration": 0.24583333333333712
                },
                {
                    "name": "D4",
                    "midi": 62,
                    "time": 227.24999999999935,
                    "velocity": 0.5433070866141733,
                    "duration": 0.24583333333333712
                },
                {
                    "name": "G#2",
                    "midi": 44,
                    "time": 227.49999999999935,
                    "velocity": 0.3543307086614173,
                    "duration": 0.4958333333333371
                },
                {
                    "name": "F3",
                    "midi": 53,
                    "time": 227.49999999999935,
                    "velocity": 0.36220472440944884,
                    "duration": 0.24583333333333712
                },
                {
                    "name": "C3",
                    "midi": 48,
                    "time": 227.49999999999935,
                    "velocity": 0.2755905511811024,
                    "duration": 0.24583333333333712
                },
                {
                    "name": "G#3",
                    "midi": 56,
                    "time": 227.49999999999935,
                    "velocity": 0.36220472440944884,
                    "duration": 0.4958333333333371
                },
                {
                    "name": "E3",
                    "midi": 52,
                    "time": 227.74999999999935,
                    "velocity": 0.4015748031496063,
                    "duration": 0.24583333333333712
                },
                {
                    "name": "C#3",
                    "midi": 49,
                    "time": 227.74999999999935,
                    "velocity": 0.2755905511811024,
                    "duration": 0.24583333333333712
                },
                {
                    "name": "G#1",
                    "midi": 32,
                    "time": 227.99999999999935,
                    "velocity": 0.31496062992125984,
                    "duration": 0.4958333333333371
                },
                {
                    "name": "C3",
                    "midi": 48,
                    "time": 227.99999999999935,
                    "velocity": 0.36220472440944884,
                    "duration": 0.24583333333333712
                },
                {
                    "name": "F3",
                    "midi": 53,
                    "time": 227.99999999999935,
                    "velocity": 0.3700787401574803,
                    "duration": 0.24583333333333712
                },
                {
                    "name": "G#3",
                    "midi": 56,
                    "time": 227.99999999999935,
                    "velocity": 0.41732283464566927,
                    "duration": 0.4958333333333371
                },
                {
                    "name": "C#3",
                    "midi": 49,
                    "time": 228.24999999999935,
                    "velocity": 0.25984251968503935,
                    "duration": 0.24583333333333712
                },
                {
                    "name": "E3",
                    "midi": 52,
                    "time": 228.24999999999935,
                    "velocity": 0.31496062992125984,
                    "duration": 0.24583333333333712
                },
                {
                    "name": "F3",
                    "midi": 53,
                    "time": 228.49999999999935,
                    "velocity": 0.36220472440944884,
                    "duration": 0.24583333333333712
                },
                {
                    "name": "C3",
                    "midi": 48,
                    "time": 228.49999999999935,
                    "velocity": 0.2283464566929134,
                    "duration": 0.24583333333333712
                },
                {
                    "name": "G#3",
                    "midi": 56,
                    "time": 228.49999999999935,
                    "velocity": 0.4330708661417323,
                    "duration": 0.9958333333333371
                },
                {
                    "name": "E3",
                    "midi": 52,
                    "time": 228.74999999999935,
                    "velocity": 0.3779527559055118,
                    "duration": 0.24583333333333712
                },
                {
                    "name": "C#3",
                    "midi": 49,
                    "time": 228.74999999999935,
                    "velocity": 0.2125984251968504,
                    "duration": 0.24583333333333712
                },
                {
                    "name": "C#2",
                    "midi": 37,
                    "time": 228.99999999999935,
                    "velocity": 0.2283464566929134,
                    "duration": 0.4958333333333371
                },
                {
                    "name": "F3",
                    "midi": 53,
                    "time": 228.99999999999935,
                    "velocity": 0.33070866141732286,
                    "duration": 0.24583333333333712
                },
                {
                    "name": "C3",
                    "midi": 48,
                    "time": 228.99999999999935,
                    "velocity": 0.28346456692913385,
                    "duration": 0.24583333333333712
                },
                {
                    "name": "E3",
                    "midi": 52,
                    "time": 229.24999999999935,
                    "velocity": 0.3543307086614173,
                    "duration": 0.24583333333333712
                },
                {
                    "name": "C#3",
                    "midi": 49,
                    "time": 229.24999999999935,
                    "velocity": 0.2204724409448819,
                    "duration": 0.24583333333333712
                },
                {
                    "name": "E2",
                    "midi": 40,
                    "time": 229.49999999999935,
                    "velocity": 0.4409448818897638,
                    "duration": 0.4958333333333371
                },
                {
                    "name": "F3",
                    "midi": 53,
                    "time": 229.49999999999935,
                    "velocity": 0.36220472440944884,
                    "duration": 0.24583333333333712
                },
                {
                    "name": "C3",
                    "midi": 48,
                    "time": 229.49999999999935,
                    "velocity": 0.31496062992125984,
                    "duration": 0.24583333333333712
                },
                {
                    "name": "G#3",
                    "midi": 56,
                    "time": 229.49999999999935,
                    "velocity": 0.4251968503937008,
                    "duration": 0.9958333333333371
                },
                {
                    "name": "E3",
                    "midi": 52,
                    "time": 229.74999999999935,
                    "velocity": 0.33070866141732286,
                    "duration": 0.24583333333333712
                },
                {
                    "name": "C#3",
                    "midi": 49,
                    "time": 229.74999999999935,
                    "velocity": 0.2047244094488189,
                    "duration": 0.24583333333333712
                },
                {
                    "name": "G#2",
                    "midi": 44,
                    "time": 229.99999999999935,
                    "velocity": 0.4330708661417323,
                    "duration": 0.4958333333333371
                },
                {
                    "name": "F3",
                    "midi": 53,
                    "time": 229.99999999999935,
                    "velocity": 0.33070866141732286,
                    "duration": 0.24583333333333712
                },
                {
                    "name": "C3",
                    "midi": 48,
                    "time": 229.99999999999935,
                    "velocity": 0.28346456692913385,
                    "duration": 0.24583333333333712
                },
                {
                    "name": "E3",
                    "midi": 52,
                    "time": 230.24999999999935,
                    "velocity": 0.3937007874015748,
                    "duration": 0.24583333333333712
                },
                {
                    "name": "C#3",
                    "midi": 49,
                    "time": 230.24999999999935,
                    "velocity": 0.1968503937007874,
                    "duration": 0.24583333333333712
                },
                {
                    "name": "C#2",
                    "midi": 37,
                    "time": 230.49999999999935,
                    "velocity": 0.2755905511811024,
                    "duration": 0.4958333333333371
                },
                {
                    "name": "F3",
                    "midi": 53,
                    "time": 230.49999999999935,
                    "velocity": 0.4330708661417323,
                    "duration": 0.24583333333333712
                },
                {
                    "name": "C3",
                    "midi": 48,
                    "time": 230.49999999999935,
                    "velocity": 0.2283464566929134,
                    "duration": 0.24583333333333712
                },
                {
                    "name": "G#3",
                    "midi": 56,
                    "time": 230.49999999999935,
                    "velocity": 0.36220472440944884,
                    "duration": 1.9958333333333371
                },
                {
                    "name": "E3",
                    "midi": 52,
                    "time": 230.74999999999935,
                    "velocity": 0.33858267716535434,
                    "duration": 1.7458333333333371
                },
                {
                    "name": "C#3",
                    "midi": 49,
                    "time": 230.74999999999935,
                    "velocity": 0.2047244094488189,
                    "duration": 1.7458333333333371
                },
                {
                    "name": "F2",
                    "midi": 41,
                    "time": 230.99999999999935,
                    "velocity": 0.4015748031496063,
                    "duration": 0.24583333333333712
                },
                {
                    "name": "E2",
                    "midi": 40,
                    "time": 231.24999999999935,
                    "velocity": 0.36220472440944884,
                    "duration": 0.24583333333333712
                },
                {
                    "name": "D#2",
                    "midi": 39,
                    "time": 231.49999999999935,
                    "velocity": 0.3543307086614173,
                    "duration": 0.24583333333333712
                },
                {
                    "name": "C#2",
                    "midi": 37,
                    "time": 231.74999999999935,
                    "velocity": 0.3543307086614173,
                    "duration": 0.24583333333333712
                },
                {
                    "name": "G#2",
                    "midi": 44,
                    "time": 231.99999999999935,
                    "velocity": 0.47244094488188976,
                    "duration": 1.4958333333333371
                },
                {
                    "name": "G#1",
                    "midi": 32,
                    "time": 233.49999999999935,
                    "velocity": 0.33070866141732286,
                    "duration": 1.9958333333333371
                }
            ],
            "controlChanges": {
                "5": [
                    {
                        "number": 5,
                        "time": 0.07291666666666666,
                        "value": 0
                    }
                ],
                "6": [
                    {
                        "number": 6,
                        "time": 2.020833333333333,
                        "value": 0.015748031496062992
                    }
                ],
                "7": [
                    {
                        "number": 7,
                        "time": 0.020833333333333332,
                        "value": 1
                    }
                ],
                "10": [
                    {
                        "number": 10,
                        "time": 0,
                        "value": 0.5039370078740157
                    },
                    {
                        "number": 10,
                        "time": 0.03125,
                        "value": 0.5039370078740157
                    }
                ],
                "11": [
                    {
                        "number": 11,
                        "time": 0.08333333333333333,
                        "value": 1
                    }
                ],
                "64": [
                    {
                        "number": 64,
                        "time": 4.158333333333332,
                        "value": 1
                    },
                    {
                        "number": 64,
                        "time": 7.883333333333333,
                        "value": 0
                    },
                    {
                        "number": 64,
                        "time": 8.158333333333333,
                        "value": 1
                    },
                    {
                        "number": 64,
                        "time": 11.883333333333333,
                        "value": 0
                    },
                    {
                        "number": 64,
                        "time": 12.158333333333333,
                        "value": 1
                    },
                    {
                        "number": 64,
                        "time": 15.883333333333333,
                        "value": 0
                    },
                    {
                        "number": 64,
                        "time": 16.158333333333335,
                        "value": 1
                    },
                    {
                        "number": 64,
                        "time": 19.883333333333333,
                        "value": 0
                    },
                    {
                        "number": 64,
                        "time": 20.158333333333335,
                        "value": 1
                    },
                    {
                        "number": 64,
                        "time": 23.883333333333333,
                        "value": 0
                    },
                    {
                        "number": 64,
                        "time": 24.158333333333335,
                        "value": 1
                    },
                    {
                        "number": 64,
                        "time": 27.883333333333333,
                        "value": 0
                    },
                    {
                        "number": 64,
                        "time": 28.158333333333335,
                        "value": 1
                    },
                    {
                        "number": 64,
                        "time": 31.883333333333333,
                        "value": 0
                    },
                    {
                        "number": 64,
                        "time": 32.15833333333333,
                        "value": 1
                    },
                    {
                        "number": 64,
                        "time": 35.88333333333333,
                        "value": 0
                    },
                    {
                        "number": 64,
                        "time": 36.15833333333333,
                        "value": 1
                    },
                    {
                        "number": 64,
                        "time": 39.88333333333333,
                        "value": 0
                    },
                    {
                        "number": 64,
                        "time": 40.15833333333333,
                        "value": 1
                    },
                    {
                        "number": 64,
                        "time": 43.88333333333333,
                        "value": 0
                    },
                    {
                        "number": 64,
                        "time": 44.15833333333333,
                        "value": 1
                    },
                    {
                        "number": 64,
                        "time": 47.88333333333333,
                        "value": 0
                    },
                    {
                        "number": 64,
                        "time": 48.15833333333333,
                        "value": 1
                    },
                    {
                        "number": 64,
                        "time": 51.88333333333333,
                        "value": 0
                    },
                    {
                        "number": 64,
                        "time": 52.15833333333333,
                        "value": 1
                    },
                    {
                        "number": 64,
                        "time": 55.88333333333333,
                        "value": 0
                    },
                    {
                        "number": 64,
                        "time": 56.15833333333333,
                        "value": 1
                    },
                    {
                        "number": 64,
                        "time": 59.88333333333333,
                        "value": 0
                    },
                    {
                        "number": 64,
                        "time": 92.05833333333334,
                        "value": 1
                    },
                    {
                        "number": 64,
                        "time": 92.93333333333334,
                        "value": 0
                    },
                    {
                        "number": 64,
                        "time": 93.10833333333333,
                        "value": 1
                    },
                    {
                        "number": 64,
                        "time": 93.94791666666667,
                        "value": 0
                    },
                    {
                        "number": 64,
                        "time": 94.0875,
                        "value": 1
                    },
                    {
                        "number": 64,
                        "time": 95.17083333333333,
                        "value": 0
                    },
                    {
                        "number": 64,
                        "time": 95.55833333333334,
                        "value": 1
                    },
                    {
                        "number": 64,
                        "time": 96.43333333333334,
                        "value": 0
                    },
                    {
                        "number": 64,
                        "time": 96.60833333333333,
                        "value": 1
                    },
                    {
                        "number": 64,
                        "time": 97.44791666666667,
                        "value": 0
                    },
                    {
                        "number": 64,
                        "time": 97.5875,
                        "value": 1
                    },
                    {
                        "number": 64,
                        "time": 98.67083333333333,
                        "value": 0
                    },
                    {
                        "number": 64,
                        "time": 99.05833333333334,
                        "value": 1
                    },
                    {
                        "number": 64,
                        "time": 99.93333333333334,
                        "value": 0
                    },
                    {
                        "number": 64,
                        "time": 100.10833333333333,
                        "value": 1
                    },
                    {
                        "number": 64,
                        "time": 100.94791666666667,
                        "value": 0
                    },
                    {
                        "number": 64,
                        "time": 101.0875,
                        "value": 1
                    },
                    {
                        "number": 64,
                        "time": 102.17083333333333,
                        "value": 0
                    },
                    {
                        "number": 64,
                        "time": 102.55833333333334,
                        "value": 1
                    },
                    {
                        "number": 64,
                        "time": 103.43333333333334,
                        "value": 0
                    },
                    {
                        "number": 64,
                        "time": 103.60833333333333,
                        "value": 1
                    },
                    {
                        "number": 64,
                        "time": 104.44791666666667,
                        "value": 0
                    },
                    {
                        "number": 64,
                        "time": 104.5875,
                        "value": 1
                    },
                    {
                        "number": 64,
                        "time": 105.67083333333333,
                        "value": 0
                    },
                    {
                        "number": 64,
                        "time": 106.05833333333334,
                        "value": 1
                    },
                    {
                        "number": 64,
                        "time": 106.93333333333334,
                        "value": 0
                    },
                    {
                        "number": 64,
                        "time": 107.10833333333333,
                        "value": 1
                    },
                    {
                        "number": 64,
                        "time": 107.94791666666667,
                        "value": 0
                    },
                    {
                        "number": 64,
                        "time": 108.0875,
                        "value": 1
                    },
                    {
                        "number": 64,
                        "time": 109.17083333333333,
                        "value": 0
                    },
                    {
                        "number": 64,
                        "time": 109.55833333333334,
                        "value": 1
                    },
                    {
                        "number": 64,
                        "time": 110.43333333333334,
                        "value": 0
                    },
                    {
                        "number": 64,
                        "time": 110.60833333333333,
                        "value": 1
                    },
                    {
                        "number": 64,
                        "time": 111.44791666666667,
                        "value": 0
                    },
                    {
                        "number": 64,
                        "time": 111.5875,
                        "value": 1
                    },
                    {
                        "number": 64,
                        "time": 112.67083333333333,
                        "value": 0
                    },
                    {
                        "number": 64,
                        "time": 113.05833333333334,
                        "value": 1
                    },
                    {
                        "number": 64,
                        "time": 113.93333333333334,
                        "value": 0
                    },
                    {
                        "number": 64,
                        "time": 114.10833333333333,
                        "value": 1
                    },
                    {
                        "number": 64,
                        "time": 114.94791666666667,
                        "value": 0
                    },
                    {
                        "number": 64,
                        "time": 115.0875,
                        "value": 1
                    },
                    {
                        "number": 64,
                        "time": 116.17083333333333,
                        "value": 0
                    },
                    {
                        "number": 64,
                        "time": 116.55833333333334,
                        "value": 1
                    },
                    {
                        "number": 64,
                        "time": 117.43333333333334,
                        "value": 0
                    },
                    {
                        "number": 64,
                        "time": 117.60833333333333,
                        "value": 1
                    },
                    {
                        "number": 64,
                        "time": 118.44791666666667,
                        "value": 0
                    },
                    {
                        "number": 64,
                        "time": 118.5875,
                        "value": 1
                    },
                    {
                        "number": 64,
                        "time": 119.67083333333333,
                        "value": 0
                    },
                    {
                        "number": 64,
                        "time": 144.05833333333334,
                        "value": 1
                    },
                    {
                        "number": 64,
                        "time": 144.93333333333334,
                        "value": 0
                    },
                    {
                        "number": 64,
                        "time": 145.10833333333332,
                        "value": 1
                    },
                    {
                        "number": 64,
                        "time": 145.94791666666663,
                        "value": 0
                    },
                    {
                        "number": 64,
                        "time": 146.08749999999998,
                        "value": 1
                    },
                    {
                        "number": 64,
                        "time": 147.1708333333333,
                        "value": 0
                    },
                    {
                        "number": 64,
                        "time": 152.05833333333328,
                        "value": 1
                    },
                    {
                        "number": 64,
                        "time": 152.93333333333328,
                        "value": 0
                    },
                    {
                        "number": 64,
                        "time": 153.10833333333326,
                        "value": 1
                    },
                    {
                        "number": 64,
                        "time": 153.94791666666657,
                        "value": 0
                    },
                    {
                        "number": 64,
                        "time": 154.08749999999992,
                        "value": 1
                    },
                    {
                        "number": 64,
                        "time": 155.17083333333323,
                        "value": 0
                    },
                    {
                        "number": 64,
                        "time": 156.05833333333322,
                        "value": 1
                    },
                    {
                        "number": 64,
                        "time": 156.93333333333322,
                        "value": 0
                    },
                    {
                        "number": 64,
                        "time": 157.1083333333332,
                        "value": 1
                    },
                    {
                        "number": 64,
                        "time": 157.94791666666652,
                        "value": 0
                    },
                    {
                        "number": 64,
                        "time": 158.08749999999986,
                        "value": 1
                    },
                    {
                        "number": 64,
                        "time": 159.17083333333318,
                        "value": 0
                    },
                    {
                        "number": 64,
                        "time": 160.03749999999982,
                        "value": 1
                    },
                    {
                        "number": 64,
                        "time": 163.85208333333318,
                        "value": 0
                    },
                    {
                        "number": 64,
                        "time": 164.03749999999985,
                        "value": 1
                    },
                    {
                        "number": 64,
                        "time": 167.8520833333332,
                        "value": 0
                    },
                    {
                        "number": 64,
                        "time": 168.03749999999988,
                        "value": 1
                    },
                    {
                        "number": 64,
                        "time": 171.85208333333324,
                        "value": 0
                    },
                    {
                        "number": 64,
                        "time": 172.0374999999999,
                        "value": 1
                    },
                    {
                        "number": 64,
                        "time": 173.94791666666657,
                        "value": 0
                    },
                    {
                        "number": 64,
                        "time": 174.08749999999992,
                        "value": 1
                    },
                    {
                        "number": 64,
                        "time": 175.17083333333323,
                        "value": 0
                    },
                    {
                        "number": 64,
                        "time": 175.85208333333324,
                        "value": 0
                    },
                    {
                        "number": 64,
                        "time": 176.05833333333325,
                        "value": 1
                    },
                    {
                        "number": 64,
                        "time": 176.93333333333325,
                        "value": 0
                    },
                    {
                        "number": 64,
                        "time": 177.10833333333323,
                        "value": 1
                    },
                    {
                        "number": 64,
                        "time": 177.94791666666654,
                        "value": 0
                    },
                    {
                        "number": 64,
                        "time": 178.0874999999999,
                        "value": 1
                    },
                    {
                        "number": 64,
                        "time": 179.1708333333332,
                        "value": 0
                    },
                    {
                        "number": 64,
                        "time": 180.0583333333332,
                        "value": 1
                    },
                    {
                        "number": 64,
                        "time": 180.9333333333332,
                        "value": 0
                    },
                    {
                        "number": 64,
                        "time": 181.10833333333318,
                        "value": 1
                    },
                    {
                        "number": 64,
                        "time": 181.9479166666665,
                        "value": 0
                    },
                    {
                        "number": 64,
                        "time": 182.08749999999984,
                        "value": 1
                    },
                    {
                        "number": 64,
                        "time": 183.17083333333315,
                        "value": 0
                    },
                    {
                        "number": 64,
                        "time": 184.05833333333314,
                        "value": 1
                    },
                    {
                        "number": 64,
                        "time": 184.93333333333314,
                        "value": 0
                    },
                    {
                        "number": 64,
                        "time": 185.10833333333312,
                        "value": 1
                    },
                    {
                        "number": 64,
                        "time": 185.94791666666643,
                        "value": 0
                    },
                    {
                        "number": 64,
                        "time": 186.08749999999978,
                        "value": 1
                    },
                    {
                        "number": 64,
                        "time": 187.1708333333331,
                        "value": 0
                    },
                    {
                        "number": 64,
                        "time": 188.05833333333308,
                        "value": 1
                    },
                    {
                        "number": 64,
                        "time": 188.93333333333308,
                        "value": 0
                    },
                    {
                        "number": 64,
                        "time": 189.10833333333306,
                        "value": 1
                    },
                    {
                        "number": 64,
                        "time": 189.94791666666637,
                        "value": 0
                    },
                    {
                        "number": 64,
                        "time": 190.08749999999972,
                        "value": 1
                    },
                    {
                        "number": 64,
                        "time": 191.17083333333304,
                        "value": 0
                    },
                    {
                        "number": 64,
                        "time": 192.05833333333302,
                        "value": 1
                    },
                    {
                        "number": 64,
                        "time": 192.93333333333302,
                        "value": 0
                    },
                    {
                        "number": 64,
                        "time": 193.108333333333,
                        "value": 1
                    },
                    {
                        "number": 64,
                        "time": 193.94791666666637,
                        "value": 0
                    },
                    {
                        "number": 64,
                        "time": 194.08749999999972,
                        "value": 1
                    },
                    {
                        "number": 64,
                        "time": 195.17083333333304,
                        "value": 0
                    },
                    {
                        "number": 64,
                        "time": 196.05833333333302,
                        "value": 1
                    },
                    {
                        "number": 64,
                        "time": 196.93333333333302,
                        "value": 0
                    },
                    {
                        "number": 64,
                        "time": 197.108333333333,
                        "value": 1
                    },
                    {
                        "number": 64,
                        "time": 197.94791666666637,
                        "value": 0
                    },
                    {
                        "number": 64,
                        "time": 198.08749999999972,
                        "value": 1
                    },
                    {
                        "number": 64,
                        "time": 199.17083333333304,
                        "value": 0
                    },
                    {
                        "number": 64,
                        "time": 200.05833333333302,
                        "value": 1
                    },
                    {
                        "number": 64,
                        "time": 200.93333333333302,
                        "value": 0
                    },
                    {
                        "number": 64,
                        "time": 201.108333333333,
                        "value": 1
                    },
                    {
                        "number": 64,
                        "time": 201.94791666666632,
                        "value": 0
                    },
                    {
                        "number": 64,
                        "time": 202.08749999999966,
                        "value": 1
                    },
                    {
                        "number": 64,
                        "time": 203.17083333333298,
                        "value": 0
                    },
                    {
                        "number": 64,
                        "time": 204.05833333333297,
                        "value": 1
                    },
                    {
                        "number": 64,
                        "time": 204.93333333333297,
                        "value": 0
                    },
                    {
                        "number": 64,
                        "time": 205.10833333333295,
                        "value": 1
                    },
                    {
                        "number": 64,
                        "time": 205.94791666666626,
                        "value": 0
                    },
                    {
                        "number": 64,
                        "time": 206.0874999999996,
                        "value": 1
                    },
                    {
                        "number": 64,
                        "time": 207.17083333333292,
                        "value": 0
                    },
                    {
                        "number": 64,
                        "time": 208.0583333333329,
                        "value": 1
                    },
                    {
                        "number": 64,
                        "time": 208.9333333333329,
                        "value": 0
                    },
                    {
                        "number": 64,
                        "time": 209.1083333333329,
                        "value": 1
                    },
                    {
                        "number": 64,
                        "time": 209.9479166666662,
                        "value": 0
                    },
                    {
                        "number": 64,
                        "time": 210.08749999999955,
                        "value": 1
                    },
                    {
                        "number": 64,
                        "time": 211.17083333333287,
                        "value": 0
                    },
                    {
                        "number": 64,
                        "time": 211.55833333333285,
                        "value": 1
                    },
                    {
                        "number": 64,
                        "time": 212.43333333333285,
                        "value": 0
                    },
                    {
                        "number": 64,
                        "time": 212.60833333333284,
                        "value": 1
                    },
                    {
                        "number": 64,
                        "time": 213.44791666666615,
                        "value": 0
                    },
                    {
                        "number": 64,
                        "time": 213.5874999999995,
                        "value": 1
                    },
                    {
                        "number": 64,
                        "time": 214.6708333333328,
                        "value": 0
                    },
                    {
                        "number": 64,
                        "time": 215.0583333333328,
                        "value": 1
                    },
                    {
                        "number": 64,
                        "time": 215.9333333333328,
                        "value": 0
                    },
                    {
                        "number": 64,
                        "time": 216.10833333333278,
                        "value": 1
                    },
                    {
                        "number": 64,
                        "time": 216.9479166666661,
                        "value": 0
                    },
                    {
                        "number": 64,
                        "time": 217.08749999999944,
                        "value": 1
                    },
                    {
                        "number": 64,
                        "time": 218.17083333333275,
                        "value": 0
                    },
                    {
                        "number": 64,
                        "time": 218.55833333333274,
                        "value": 1
                    },
                    {
                        "number": 64,
                        "time": 219.43333333333274,
                        "value": 0
                    },
                    {
                        "number": 64,
                        "time": 219.60833333333272,
                        "value": 1
                    },
                    {
                        "number": 64,
                        "time": 220.44791666666603,
                        "value": 0
                    },
                    {
                        "number": 64,
                        "time": 220.58749999999938,
                        "value": 1
                    },
                    {
                        "number": 64,
                        "time": 221.6708333333327,
                        "value": 0
                    }
                ],
                "91": [
                    {
                        "number": 91,
                        "time": 0.041666666666666664,
                        "value": 0.5826771653543307
                    }
                ],
                "93": [
                    {
                        "number": 93,
                        "time": 0.05208333333333333,
                        "value": 0
                    }
                ],
                "94": [
                    {
                        "number": 94,
                        "time": 0.06249999999999999,
                        "value": 0
                    }
                ],
                "100": [
                    {
                        "number": 100,
                        "time": 2.0104166666666665,
                        "value": 0
                    },
                    {
                        "number": 100,
                        "time": 2.041666666666666,
                        "value": 1
                    }
                ],
                "101": [
                    {
                        "number": 101,
                        "time": 2,
                        "value": 0
                    },
                    {
                        "number": 101,
                        "time": 2.0312499999999996,
                        "value": 1
                    }
                ]
            },
            "id": 1,
            "name": "Grand piano",
            "instrumentNumber": 0,
            "instrument": "acoustic grand piano",
            "instrumentFamily": "piano",
            "channelNumber": 0,
            "isPercussion": false
        },
        {
            "startTime": 0,
            "duration": 0,
            "length": 0,
            "notes": [],
            "controlChanges": {},
            "id": 2,
            "name": "Piano sonata no.2, Op.14"
        },
        {
            "startTime": 0,
            "duration": 0,
            "length": 0,
            "notes": [],
            "controlChanges": {},
            "id": 3,
            "name": "by Serge Prokofiev(1912)"
        },
        {
            "startTime": 0,
            "duration": 0,
            "length": 0,
            "notes": [],
            "controlChanges": {},
            "id": 4,
            "name": "3. Andante"
        },
        {
            "startTime": 0,
            "duration": 0,
            "length": 0,
            "notes": [],
            "controlChanges": {},
            "id": 5,
            "name": "sequenced by R. Ungar"
        },
        {
            "startTime": 0,
            "duration": 0,
            "length": 0,
            "notes": [],
            "controlChanges": {},
            "id": 6,
            "name": "2002"
        },
        {
            "startTime": 0,
            "duration": 0,
            "length": 0,
            "notes": [],
            "controlChanges": {},
            "id": 7
        }
    ]
}