{
    "header": {
        "PPQ": 480,
        "timeSignature": [
            12,
            8
        ],
        "bpm": 60.699992311334306,
        "name": "Non allegro - Presto"
    },
    "startTime": 0,
    "duration": 160.13181600000007,
    "tracks": [
        {
            "startTime": 0,
            "duration": 0,
            "length": 0,
            "notes": [],
            "controlChanges": {},
            "id": 0,
            "name": "Non allegro - Presto"
        },
        {
            "startTime": 0,
            "duration": 160.13181600000007,
            "length": 831,
            "notes": [
                {
                    "name": "F#5",
                    "midi": 78,
                    "time": 0,
                    "velocity": 0.30708661417322836,
                    "duration": 1.482702
                },
                {
                    "name": "D#5",
                    "midi": 75,
                    "time": 0,
                    "velocity": 0.25984251968503935,
                    "duration": 1.482702
                },
                {
                    "name": "D4",
                    "midi": 62,
                    "time": 2.965404,
                    "velocity": 0.28346456692913385,
                    "duration": 1.4827020000000002
                },
                {
                    "name": "A#3",
                    "midi": 58,
                    "time": 2.965404,
                    "velocity": 0.23622047244094488,
                    "duration": 1.4827020000000002
                },
                {
                    "name": "D#2",
                    "midi": 39,
                    "time": 4.94234,
                    "velocity": 0.14173228346456693,
                    "duration": 3.9538720000000005
                },
                {
                    "name": "A#2",
                    "midi": 46,
                    "time": 4.94234,
                    "velocity": 0.16535433070866143,
                    "duration": 3.9538720000000005
                },
                {
                    "name": "A#3",
                    "midi": 58,
                    "time": 8.896212,
                    "velocity": 0.29133858267716534,
                    "duration": 0.16474466666666743
                },
                {
                    "name": "B3",
                    "midi": 59,
                    "time": 9.060956666666668,
                    "velocity": 0.33070866141732286,
                    "duration": 0.16474466666666743
                },
                {
                    "name": "A3",
                    "midi": 57,
                    "time": 9.225701333333335,
                    "velocity": 0.33858267716535434,
                    "duration": 0.16474466666666743
                },
                {
                    "name": "A#3",
                    "midi": 58,
                    "time": 9.390446000000003,
                    "velocity": 0.3779527559055118,
                    "duration": 0.16474466666666743
                },
                {
                    "name": "D#4",
                    "midi": 63,
                    "time": 9.55519066666667,
                    "velocity": 0.3858267716535433,
                    "duration": 0.16474466666666743
                },
                {
                    "name": "C#4",
                    "midi": 61,
                    "time": 9.719935333333337,
                    "velocity": 0.3700787401574803,
                    "duration": 0.16474466666666743
                },
                {
                    "name": "D4",
                    "midi": 62,
                    "time": 9.884680000000005,
                    "velocity": 0.4251968503937008,
                    "duration": 0.16474466666666743
                },
                {
                    "name": "D#4",
                    "midi": 63,
                    "time": 10.049424666666672,
                    "velocity": 0.44881889763779526,
                    "duration": 0.16474466666666743
                },
                {
                    "name": "F#4",
                    "midi": 66,
                    "time": 10.21416933333334,
                    "velocity": 0.4015748031496063,
                    "duration": 0.16474466666666743
                },
                {
                    "name": "G4",
                    "midi": 67,
                    "time": 10.378914000000007,
                    "velocity": 0.49606299212598426,
                    "duration": 0.16474466666666743
                },
                {
                    "name": "A#4",
                    "midi": 70,
                    "time": 10.543658666666675,
                    "velocity": 0.5039370078740157,
                    "duration": 0.16474466666666743
                },
                {
                    "name": "G#4",
                    "midi": 68,
                    "time": 10.708403333333342,
                    "velocity": 0.4645669291338583,
                    "duration": 0.16474466666666743
                },
                {
                    "name": "B4",
                    "midi": 71,
                    "time": 10.87314800000001,
                    "velocity": 0.5433070866141733,
                    "duration": 0.16474466666666743
                },
                {
                    "name": "D5",
                    "midi": 74,
                    "time": 11.037892666666677,
                    "velocity": 0.5590551181102362,
                    "duration": 0.16474466666666743
                },
                {
                    "name": "D#5",
                    "midi": 75,
                    "time": 11.202637333333344,
                    "velocity": 0.5905511811023622,
                    "duration": 0.16474466666666743
                },
                {
                    "name": "F#5",
                    "midi": 78,
                    "time": 11.367382000000012,
                    "velocity": 0.5905511811023622,
                    "duration": 0.16474466666666743
                },
                {
                    "name": "D#5",
                    "midi": 75,
                    "time": 11.532126666666679,
                    "velocity": 0.6299212598425197,
                    "duration": 0.16474466666666743
                },
                {
                    "name": "D5",
                    "midi": 74,
                    "time": 11.696871333333346,
                    "velocity": 0.5826771653543307,
                    "duration": 0.16474466666666743
                },
                {
                    "name": "F5",
                    "midi": 77,
                    "time": 11.861616000000014,
                    "velocity": 0.7244094488188977,
                    "duration": 0.16474466666666743
                },
                {
                    "name": "D5",
                    "midi": 74,
                    "time": 12.026360666666681,
                    "velocity": 0.6377952755905512,
                    "duration": 0.16474466666666743
                },
                {
                    "name": "C#5",
                    "midi": 73,
                    "time": 12.191105333333349,
                    "velocity": 0.5905511811023622,
                    "duration": 0.16474466666666743
                },
                {
                    "name": "E5",
                    "midi": 76,
                    "time": 12.355850000000016,
                    "velocity": 0.6850393700787402,
                    "duration": 0.16474466666666743
                },
                {
                    "name": "C#5",
                    "midi": 73,
                    "time": 12.520594666666684,
                    "velocity": 0.5905511811023622,
                    "duration": 0.16474466666666743
                },
                {
                    "name": "C5",
                    "midi": 72,
                    "time": 12.685339333333351,
                    "velocity": 0.5433070866141733,
                    "duration": 0.16474466666666743
                },
                {
                    "name": "D#5",
                    "midi": 75,
                    "time": 12.850084000000018,
                    "velocity": 0.6377952755905512,
                    "duration": 0.16474466666666743
                },
                {
                    "name": "C5",
                    "midi": 72,
                    "time": 13.014828666666686,
                    "velocity": 0.5905511811023622,
                    "duration": 0.16474466666666743
                },
                {
                    "name": "B4",
                    "midi": 71,
                    "time": 13.179573333333353,
                    "velocity": 0.5590551181102362,
                    "duration": 0.16474466666666743
                },
                {
                    "name": "A#4",
                    "midi": 70,
                    "time": 13.34431800000002,
                    "velocity": 0.6141732283464567,
                    "duration": 0.16474466666666743
                },
                {
                    "name": "B4",
                    "midi": 71,
                    "time": 13.509062666666688,
                    "velocity": 0.5905511811023622,
                    "duration": 0.16474466666666743
                },
                {
                    "name": "A4",
                    "midi": 69,
                    "time": 13.673807333333356,
                    "velocity": 0.5511811023622047,
                    "duration": 0.16474466666666743
                },
                {
                    "name": "D#5",
                    "midi": 75,
                    "time": 13.838552000000023,
                    "velocity": 0.6141732283464567,
                    "duration": 0.16474466666666743
                },
                {
                    "name": "A#4",
                    "midi": 70,
                    "time": 14.00329666666669,
                    "velocity": 0.5590551181102362,
                    "duration": 0.16474466666666743
                },
                {
                    "name": "F4",
                    "midi": 65,
                    "time": 14.168041333333358,
                    "velocity": 0.5039370078740157,
                    "duration": 0.16474466666666743
                },
                {
                    "name": "F#4",
                    "midi": 66,
                    "time": 14.332786000000025,
                    "velocity": 0.5905511811023622,
                    "duration": 0.16474466666666743
                },
                {
                    "name": "D#4",
                    "midi": 63,
                    "time": 14.497530666666693,
                    "velocity": 0.5590551181102362,
                    "duration": 0.16474466666666743
                },
                {
                    "name": "F4",
                    "midi": 65,
                    "time": 14.66227533333336,
                    "velocity": 0.5196850393700787,
                    "duration": 0.16474466666666743
                },
                {
                    "name": "D4",
                    "midi": 62,
                    "time": 14.827020000000028,
                    "velocity": 0.6062992125984252,
                    "duration": 0.16474466666666743
                },
                {
                    "name": "C#4",
                    "midi": 61,
                    "time": 14.991764666666695,
                    "velocity": 0.5826771653543307,
                    "duration": 0.16474466666666743
                },
                {
                    "name": "E4",
                    "midi": 64,
                    "time": 15.156509333333362,
                    "velocity": 0.5511811023622047,
                    "duration": 0.16474466666666743
                },
                {
                    "name": "C#4",
                    "midi": 61,
                    "time": 15.32125400000003,
                    "velocity": 0.49606299212598426,
                    "duration": 0.16474466666666743
                },
                {
                    "name": "C4",
                    "midi": 60,
                    "time": 15.485998666666697,
                    "velocity": 0.4566929133858268,
                    "duration": 0.16474466666666743
                },
                {
                    "name": "D#4",
                    "midi": 63,
                    "time": 15.650743333333365,
                    "velocity": 0.4409448818897638,
                    "duration": 0.16474466666666743
                },
                {
                    "name": "C4",
                    "midi": 60,
                    "time": 15.815488000000032,
                    "velocity": 0.47244094488188976,
                    "duration": 0.16474466666666743
                },
                {
                    "name": "B3",
                    "midi": 59,
                    "time": 15.9802326666667,
                    "velocity": 0.4094488188976378,
                    "duration": 0.16474466666666565
                },
                {
                    "name": "D4",
                    "midi": 62,
                    "time": 16.144977333333365,
                    "velocity": 0.3937007874015748,
                    "duration": 0.16474466666666743
                },
                {
                    "name": "B3",
                    "midi": 59,
                    "time": 16.309722000000033,
                    "velocity": 0.3937007874015748,
                    "duration": 0.16474466666666743
                },
                {
                    "name": "A#3",
                    "midi": 58,
                    "time": 16.4744666666667,
                    "velocity": 0.3858267716535433,
                    "duration": 0.16474466666666743
                },
                {
                    "name": "C#4",
                    "midi": 61,
                    "time": 16.639211333333368,
                    "velocity": 0.3779527559055118,
                    "duration": 0.16474466666666743
                },
                {
                    "name": "A3",
                    "midi": 57,
                    "time": 16.803956000000035,
                    "velocity": 0.4409448818897638,
                    "duration": 0.16474466666666743
                },
                {
                    "name": "C4",
                    "midi": 60,
                    "time": 16.968700666666702,
                    "velocity": 0.36220472440944884,
                    "duration": 0.16474466666666743
                },
                {
                    "name": "G#3",
                    "midi": 56,
                    "time": 17.13344533333337,
                    "velocity": 0.3464566929133858,
                    "duration": 0.16474466666666743
                },
                {
                    "name": "B3",
                    "midi": 59,
                    "time": 17.298190000000037,
                    "velocity": 0.33858267716535434,
                    "duration": 0.16474466666666743
                },
                {
                    "name": "G3",
                    "midi": 55,
                    "time": 17.462934666666705,
                    "velocity": 0.31496062992125984,
                    "duration": 0.16474466666666743
                },
                {
                    "name": "A#3",
                    "midi": 58,
                    "time": 17.627679333333372,
                    "velocity": 0.28346456692913385,
                    "duration": 0.16474466666666743
                },
                {
                    "name": "F#3",
                    "midi": 54,
                    "time": 17.79242400000004,
                    "velocity": 0.3228346456692913,
                    "duration": 0.16474466666666743
                },
                {
                    "name": "F3",
                    "midi": 53,
                    "time": 17.957168666666707,
                    "velocity": 0.2755905511811024,
                    "duration": 0.16474466666666743
                },
                {
                    "name": "G#3",
                    "midi": 56,
                    "time": 18.121913333333374,
                    "velocity": 0.2755905511811024,
                    "duration": 0.16474466666666743
                },
                {
                    "name": "F#3",
                    "midi": 54,
                    "time": 18.286658000000042,
                    "velocity": 0.3228346456692913,
                    "duration": 0.16474466666666743
                },
                {
                    "name": "E3",
                    "midi": 52,
                    "time": 18.45140266666671,
                    "velocity": 0.28346456692913385,
                    "duration": 0.16474466666666743
                },
                {
                    "name": "G#3",
                    "midi": 56,
                    "time": 18.616147333333377,
                    "velocity": 0.28346456692913385,
                    "duration": 0.16474466666666743
                },
                {
                    "name": "F#3",
                    "midi": 54,
                    "time": 18.780892000000044,
                    "velocity": 0.31496062992125984,
                    "duration": 0.16474466666666743
                },
                {
                    "name": "D#3",
                    "midi": 51,
                    "time": 18.94563666666671,
                    "velocity": 0.2755905511811024,
                    "duration": 0.16474466666666743
                },
                {
                    "name": "G#3",
                    "midi": 56,
                    "time": 19.11038133333338,
                    "velocity": 0.2677165354330709,
                    "duration": 0.16474466666666743
                },
                {
                    "name": "F#3",
                    "midi": 54,
                    "time": 19.275126000000046,
                    "velocity": 0.30708661417322836,
                    "duration": 0.16474466666666743
                },
                {
                    "name": "F3",
                    "midi": 53,
                    "time": 19.439870666666714,
                    "velocity": 0.2677165354330709,
                    "duration": 0.16474466666666743
                },
                {
                    "name": "A#2",
                    "midi": 46,
                    "time": 19.60461533333338,
                    "velocity": 0.25196850393700787,
                    "duration": 0.16474466666666743
                },
                {
                    "name": "A#3",
                    "midi": 58,
                    "time": 19.76936000000005,
                    "velocity": 0.29133858267716534,
                    "duration": 0.16474466666666743
                },
                {
                    "name": "F#3",
                    "midi": 54,
                    "time": 19.934104666666716,
                    "velocity": 0.29133858267716534,
                    "duration": 0.16474466666666743
                },
                {
                    "name": "G#3",
                    "midi": 56,
                    "time": 20.098849333333384,
                    "velocity": 0.25984251968503935,
                    "duration": 0.16474466666666743
                },
                {
                    "name": "A3",
                    "midi": 57,
                    "time": 20.26359400000005,
                    "velocity": 0.29133858267716534,
                    "duration": 0.16474466666666743
                },
                {
                    "name": "B3",
                    "midi": 59,
                    "time": 20.42833866666672,
                    "velocity": 0.2677165354330709,
                    "duration": 0.16474466666666743
                },
                {
                    "name": "A#3",
                    "midi": 58,
                    "time": 20.593083333333386,
                    "velocity": 0.2677165354330709,
                    "duration": 0.16474466666666743
                },
                {
                    "name": "F4",
                    "midi": 65,
                    "time": 20.757828000000053,
                    "velocity": 0.2440944881889764,
                    "duration": 0.16474466666666743
                },
                {
                    "name": "B3",
                    "midi": 59,
                    "time": 20.92257266666672,
                    "velocity": 0.2677165354330709,
                    "duration": 0.16474466666666743
                },
                {
                    "name": "A3",
                    "midi": 57,
                    "time": 21.087317333333388,
                    "velocity": 0.2755905511811024,
                    "duration": 0.16474466666666743
                },
                {
                    "name": "A#3",
                    "midi": 58,
                    "time": 21.252062000000056,
                    "velocity": 0.31496062992125984,
                    "duration": 0.16474466666666743
                },
                {
                    "name": "D#4",
                    "midi": 63,
                    "time": 21.416806666666723,
                    "velocity": 0.33070866141732286,
                    "duration": 0.16474466666666743
                },
                {
                    "name": "C#4",
                    "midi": 61,
                    "time": 21.58155133333339,
                    "velocity": 0.31496062992125984,
                    "duration": 0.16474466666666743
                },
                {
                    "name": "D4",
                    "midi": 62,
                    "time": 21.746296000000058,
                    "velocity": 0.3779527559055118,
                    "duration": 0.16474466666666743
                },
                {
                    "name": "D#4",
                    "midi": 63,
                    "time": 21.911040666666725,
                    "velocity": 0.3937007874015748,
                    "duration": 0.16474466666666743
                },
                {
                    "name": "F#4",
                    "midi": 66,
                    "time": 22.075785333333393,
                    "velocity": 0.3700787401574803,
                    "duration": 0.16474466666666743
                },
                {
                    "name": "G4",
                    "midi": 67,
                    "time": 22.24053000000006,
                    "velocity": 0.44881889763779526,
                    "duration": 0.16474466666666743
                },
                {
                    "name": "A#4",
                    "midi": 70,
                    "time": 22.405274666666728,
                    "velocity": 0.4645669291338583,
                    "duration": 0.16474466666666743
                },
                {
                    "name": "G#4",
                    "midi": 68,
                    "time": 22.570019333333395,
                    "velocity": 0.4409448818897638,
                    "duration": 0.16474466666666743
                },
                {
                    "name": "B4",
                    "midi": 71,
                    "time": 22.734764000000062,
                    "velocity": 0.5118110236220472,
                    "duration": 0.16474466666666743
                },
                {
                    "name": "D5",
                    "midi": 74,
                    "time": 22.89950866666673,
                    "velocity": 0.5511811023622047,
                    "duration": 0.16474466666666743
                },
                {
                    "name": "D#5",
                    "midi": 75,
                    "time": 23.064253333333397,
                    "velocity": 0.5826771653543307,
                    "duration": 0.16474466666666743
                },
                {
                    "name": "F#5",
                    "midi": 78,
                    "time": 23.228998000000065,
                    "velocity": 0.6062992125984252,
                    "duration": 0.16474466666666743
                },
                {
                    "name": "D#5",
                    "midi": 75,
                    "time": 23.393742666666732,
                    "velocity": 0.6299212598425197,
                    "duration": 0.16474466666666743
                },
                {
                    "name": "D5",
                    "midi": 74,
                    "time": 23.5584873333334,
                    "velocity": 0.5905511811023622,
                    "duration": 0.16474466666666743
                },
                {
                    "name": "F5",
                    "midi": 77,
                    "time": 23.723232000000067,
                    "velocity": 0.7244094488188977,
                    "duration": 0.16474466666666743
                },
                {
                    "name": "D5",
                    "midi": 74,
                    "time": 23.887976666666734,
                    "velocity": 0.6377952755905512,
                    "duration": 0.16474466666666743
                },
                {
                    "name": "C#5",
                    "midi": 73,
                    "time": 24.052721333333402,
                    "velocity": 0.5905511811023622,
                    "duration": 0.16474466666666743
                },
                {
                    "name": "E5",
                    "midi": 76,
                    "time": 24.21746600000007,
                    "velocity": 0.6850393700787402,
                    "duration": 0.16474466666666743
                },
                {
                    "name": "C#5",
                    "midi": 73,
                    "time": 24.382210666666737,
                    "velocity": 0.5905511811023622,
                    "duration": 0.16474466666666743
                },
                {
                    "name": "C5",
                    "midi": 72,
                    "time": 24.546955333333404,
                    "velocity": 0.5433070866141733,
                    "duration": 0.16474466666666743
                },
                {
                    "name": "D#5",
                    "midi": 75,
                    "time": 24.71170000000007,
                    "velocity": 0.6377952755905512,
                    "duration": 0.16474466666666743
                },
                {
                    "name": "C5",
                    "midi": 72,
                    "time": 24.87644466666674,
                    "velocity": 0.5905511811023622,
                    "duration": 0.16474466666666743
                },
                {
                    "name": "B4",
                    "midi": 71,
                    "time": 25.041189333333406,
                    "velocity": 0.5590551181102362,
                    "duration": 0.16474466666666743
                },
                {
                    "name": "A#4",
                    "midi": 70,
                    "time": 25.205934000000074,
                    "velocity": 0.7007874015748031,
                    "duration": 0.16474466666666743
                },
                {
                    "name": "B4",
                    "midi": 71,
                    "time": 25.37067866666674,
                    "velocity": 0.5905511811023622,
                    "duration": 0.16474466666666743
                },
                {
                    "name": "A4",
                    "midi": 69,
                    "time": 25.53542333333341,
                    "velocity": 0.5511811023622047,
                    "duration": 0.16474466666666743
                },
                {
                    "name": "D#5",
                    "midi": 75,
                    "time": 25.700168000000076,
                    "velocity": 0.6929133858267716,
                    "duration": 0.16474466666666743
                },
                {
                    "name": "A#4",
                    "midi": 70,
                    "time": 25.864912666666743,
                    "velocity": 0.5826771653543307,
                    "duration": 0.16474466666666743
                },
                {
                    "name": "F4",
                    "midi": 65,
                    "time": 26.02965733333341,
                    "velocity": 0.5039370078740157,
                    "duration": 0.16474466666666743
                },
                {
                    "name": "F#4",
                    "midi": 66,
                    "time": 26.19440200000008,
                    "velocity": 0.6377952755905512,
                    "duration": 0.16474466666666743
                },
                {
                    "name": "D#4",
                    "midi": 63,
                    "time": 26.359146666666746,
                    "velocity": 0.5669291338582677,
                    "duration": 0.16474466666666743
                },
                {
                    "name": "F4",
                    "midi": 65,
                    "time": 26.523891333333413,
                    "velocity": 0.5196850393700787,
                    "duration": 0.16474466666666743
                },
                {
                    "name": "D4",
                    "midi": 62,
                    "time": 26.68863600000008,
                    "velocity": 0.6062992125984252,
                    "duration": 0.16474466666666743
                },
                {
                    "name": "C#4",
                    "midi": 61,
                    "time": 26.853380666666748,
                    "velocity": 0.5905511811023622,
                    "duration": 0.16474466666666743
                },
                {
                    "name": "E4",
                    "midi": 64,
                    "time": 27.018125333333415,
                    "velocity": 0.5590551181102362,
                    "duration": 0.16474466666666743
                },
                {
                    "name": "C#4",
                    "midi": 61,
                    "time": 27.182870000000083,
                    "velocity": 0.5118110236220472,
                    "duration": 0.16474466666666743
                },
                {
                    "name": "C4",
                    "midi": 60,
                    "time": 27.34761466666675,
                    "velocity": 0.47244094488188976,
                    "duration": 0.16474466666666743
                },
                {
                    "name": "D#4",
                    "midi": 63,
                    "time": 27.512359333333418,
                    "velocity": 0.4645669291338583,
                    "duration": 0.16474466666666743
                },
                {
                    "name": "C4",
                    "midi": 60,
                    "time": 27.677104000000085,
                    "velocity": 0.5590551181102362,
                    "duration": 0.16474466666666743
                },
                {
                    "name": "B3",
                    "midi": 59,
                    "time": 27.841848666666753,
                    "velocity": 0.44881889763779526,
                    "duration": 0.16474466666666743
                },
                {
                    "name": "D4",
                    "midi": 62,
                    "time": 28.00659333333342,
                    "velocity": 0.4330708661417323,
                    "duration": 0.16474466666666743
                },
                {
                    "name": "B3",
                    "midi": 59,
                    "time": 28.171338000000087,
                    "velocity": 0.5039370078740157,
                    "duration": 0.16474466666666743
                },
                {
                    "name": "A#3",
                    "midi": 58,
                    "time": 28.336082666666755,
                    "velocity": 0.4330708661417323,
                    "duration": 0.16474466666666743
                },
                {
                    "name": "C#4",
                    "midi": 61,
                    "time": 28.500827333333422,
                    "velocity": 0.4330708661417323,
                    "duration": 0.16474466666666743
                },
                {
                    "name": "A#3",
                    "midi": 58,
                    "time": 28.66557200000009,
                    "velocity": 0.5196850393700787,
                    "duration": 0.16474466666666743
                },
                {
                    "name": "A3",
                    "midi": 57,
                    "time": 28.830316666666757,
                    "velocity": 0.3858267716535433,
                    "duration": 0.16474466666666743
                },
                {
                    "name": "C#4",
                    "midi": 61,
                    "time": 28.995061333333425,
                    "velocity": 0.3858267716535433,
                    "duration": 0.16474466666666743
                },
                {
                    "name": "A3",
                    "midi": 57,
                    "time": 29.159806000000092,
                    "velocity": 0.49606299212598426,
                    "duration": 0.16474466666666743
                },
                {
                    "name": "G#3",
                    "midi": 56,
                    "time": 29.32455066666676,
                    "velocity": 0.4094488188976378,
                    "duration": 0.16474466666666743
                },
                {
                    "name": "A3",
                    "midi": 57,
                    "time": 29.489295333333427,
                    "velocity": 0.4015748031496063,
                    "duration": 0.16474466666666743
                },
                {
                    "name": "A#3",
                    "midi": 58,
                    "time": 29.654040000000094,
                    "velocity": 0.4015748031496063,
                    "duration": 0.16474466666666743
                },
                {
                    "name": "B3",
                    "midi": 59,
                    "time": 29.81878466666676,
                    "velocity": 0.36220472440944884,
                    "duration": 0.16474466666666743
                },
                {
                    "name": "A3",
                    "midi": 57,
                    "time": 29.98352933333343,
                    "velocity": 0.33858267716535434,
                    "duration": 0.16474466666666743
                },
                {
                    "name": "A#3",
                    "midi": 58,
                    "time": 30.148274000000097,
                    "velocity": 0.3858267716535433,
                    "duration": 0.16474466666666743
                },
                {
                    "name": "B3",
                    "midi": 59,
                    "time": 30.313018666666764,
                    "velocity": 0.33070866141732286,
                    "duration": 0.16474466666666743
                },
                {
                    "name": "G#3",
                    "midi": 56,
                    "time": 30.47776333333343,
                    "velocity": 0.31496062992125984,
                    "duration": 0.16474466666666743
                },
                {
                    "name": "A#3",
                    "midi": 58,
                    "time": 30.6425080000001,
                    "velocity": 0.3700787401574803,
                    "duration": 0.16474466666666743
                },
                {
                    "name": "B3",
                    "midi": 59,
                    "time": 30.807252666666766,
                    "velocity": 0.31496062992125984,
                    "duration": 0.16474466666666743
                },
                {
                    "name": "C#3",
                    "midi": 49,
                    "time": 30.971997333333434,
                    "velocity": 0.31496062992125984,
                    "duration": 0.16474466666666743
                },
                {
                    "name": "F#3",
                    "midi": 54,
                    "time": 31.1367420000001,
                    "velocity": 0.33858267716535434,
                    "duration": 0.16474466666666743
                },
                {
                    "name": "A#3",
                    "midi": 58,
                    "time": 31.30148666666677,
                    "velocity": 0.29133858267716534,
                    "duration": 0.16474466666666743
                },
                {
                    "name": "C#4",
                    "midi": 61,
                    "time": 31.466231333333436,
                    "velocity": 0.28346456692913385,
                    "duration": 0.16474466666666743
                },
                {
                    "name": "D#4",
                    "midi": 63,
                    "time": 31.630976000000103,
                    "velocity": 0.3228346456692913,
                    "duration": 0.16474466666666743
                },
                {
                    "name": "F4",
                    "midi": 65,
                    "time": 31.79572066666677,
                    "velocity": 0.2755905511811024,
                    "duration": 0.16474466666666743
                },
                {
                    "name": "F#4",
                    "midi": 66,
                    "time": 31.96046533333344,
                    "velocity": 0.25984251968503935,
                    "duration": 0.16474466666666387
                },
                {
                    "name": "G#4",
                    "midi": 68,
                    "time": 32.1252100000001,
                    "velocity": 0.30708661417322836,
                    "duration": 0.16474466666666387
                },
                {
                    "name": "A#4",
                    "midi": 70,
                    "time": 32.289954666666766,
                    "velocity": 0.29133858267716534,
                    "duration": 0.16474466666666387
                },
                {
                    "name": "B4",
                    "midi": 71,
                    "time": 32.45469933333343,
                    "velocity": 0.25984251968503935,
                    "duration": 0.16474466666666387
                },
                {
                    "name": "C#5",
                    "midi": 73,
                    "time": 32.619444000000094,
                    "velocity": 0.28346456692913385,
                    "duration": 0.16474466666666387
                },
                {
                    "name": "D#5",
                    "midi": 75,
                    "time": 32.78418866666676,
                    "velocity": 0.25196850393700787,
                    "duration": 0.16474466666666387
                },
                {
                    "name": "F5",
                    "midi": 77,
                    "time": 32.94893333333342,
                    "velocity": 0.25196850393700787,
                    "duration": 0.16474466666666387
                },
                {
                    "name": "F#5",
                    "midi": 78,
                    "time": 33.113678000000085,
                    "velocity": 0.2755905511811024,
                    "duration": 0.16474466666666387
                },
                {
                    "name": "G#5",
                    "midi": 80,
                    "time": 33.27842266666675,
                    "velocity": 0.25196850393700787,
                    "duration": 0.16474466666666387
                },
                {
                    "name": "A5",
                    "midi": 81,
                    "time": 33.44316733333341,
                    "velocity": 0.25196850393700787,
                    "duration": 0.16474466666666387
                },
                {
                    "name": "A#5",
                    "midi": 82,
                    "time": 33.60791200000008,
                    "velocity": 0.2992125984251969,
                    "duration": 0.16474466666666387
                },
                {
                    "name": "F5",
                    "midi": 77,
                    "time": 33.77265666666674,
                    "velocity": 0.25196850393700787,
                    "duration": 0.16474466666666387
                },
                {
                    "name": "C#5",
                    "midi": 73,
                    "time": 33.937401333333405,
                    "velocity": 0.23622047244094488,
                    "duration": 0.16474466666666387
                },
                {
                    "name": "F5",
                    "midi": 77,
                    "time": 34.10214600000007,
                    "velocity": 0.23622047244094488,
                    "duration": 0.16474466666666387
                },
                {
                    "name": "F#5",
                    "midi": 78,
                    "time": 34.26689066666673,
                    "velocity": 0.2440944881889764,
                    "duration": 0.16474466666666387
                },
                {
                    "name": "G#5",
                    "midi": 80,
                    "time": 34.431635333333396,
                    "velocity": 0.2440944881889764,
                    "duration": 0.16474466666666387
                },
                {
                    "name": "A#5",
                    "midi": 82,
                    "time": 34.59638000000006,
                    "velocity": 0.2755905511811024,
                    "duration": 0.16474466666666387
                },
                {
                    "name": "F5",
                    "midi": 77,
                    "time": 34.761124666666724,
                    "velocity": 0.25196850393700787,
                    "duration": 0.16474466666666387
                },
                {
                    "name": "A#4",
                    "midi": 70,
                    "time": 34.92586933333339,
                    "velocity": 0.25196850393700787,
                    "duration": 0.16474466666666387
                },
                {
                    "name": "F5",
                    "midi": 77,
                    "time": 35.09061400000005,
                    "velocity": 0.2440944881889764,
                    "duration": 0.16474466666666387
                },
                {
                    "name": "F#5",
                    "midi": 78,
                    "time": 35.255358666666716,
                    "velocity": 0.25984251968503935,
                    "duration": 0.16474466666666387
                },
                {
                    "name": "G#5",
                    "midi": 80,
                    "time": 35.42010333333338,
                    "velocity": 0.2677165354330709,
                    "duration": 0.16474466666666387
                },
                {
                    "name": "A#5",
                    "midi": 82,
                    "time": 35.584848000000044,
                    "velocity": 0.29133858267716534,
                    "duration": 0.49423399999999873
                },
                {
                    "name": "D3",
                    "midi": 50,
                    "time": 36.07908200000004,
                    "velocity": 0.5039370078740157,
                    "duration": 0.16474466666666387
                },
                {
                    "name": "G#3",
                    "midi": 56,
                    "time": 36.243826666666706,
                    "velocity": 0.5275590551181102,
                    "duration": 0.16474466666666387
                },
                {
                    "name": "A#3",
                    "midi": 58,
                    "time": 36.40857133333337,
                    "velocity": 0.5354330708661418,
                    "duration": 0.16474466666666387
                },
                {
                    "name": "D4",
                    "midi": 62,
                    "time": 36.573316000000034,
                    "velocity": 0.5669291338582677,
                    "duration": 0.16474466666666387
                },
                {
                    "name": "G#4",
                    "midi": 68,
                    "time": 36.7380606666667,
                    "velocity": 0.5748031496062992,
                    "duration": 0.16474466666666387
                },
                {
                    "name": "A#4",
                    "midi": 70,
                    "time": 36.90280533333336,
                    "velocity": 0.5905511811023622,
                    "duration": 0.16474466666666387
                },
                {
                    "name": "D#5",
                    "midi": 75,
                    "time": 37.067550000000026,
                    "velocity": 0.6614173228346457,
                    "duration": 0.16474466666666387
                },
                {
                    "name": "D#4",
                    "midi": 63,
                    "time": 37.067550000000026,
                    "velocity": 0.6614173228346457,
                    "duration": 0.16474466666666387
                },
                {
                    "name": "G#4",
                    "midi": 68,
                    "time": 37.23229466666669,
                    "velocity": 0.5590551181102362,
                    "duration": 0.16474466666666387
                },
                {
                    "name": "G4",
                    "midi": 67,
                    "time": 37.39703933333335,
                    "velocity": 0.5511811023622047,
                    "duration": 0.16474466666666387
                },
                {
                    "name": "F#4",
                    "midi": 66,
                    "time": 37.56178400000002,
                    "velocity": 0.5590551181102362,
                    "duration": 0.16474466666666387
                },
                {
                    "name": "G#4",
                    "midi": 68,
                    "time": 37.56178400000002,
                    "velocity": 0.5590551181102362,
                    "duration": 0.16474466666666387
                },
                {
                    "name": "F4",
                    "midi": 65,
                    "time": 37.72652866666668,
                    "velocity": 0.47244094488188976,
                    "duration": 0.16474466666666387
                },
                {
                    "name": "E4",
                    "midi": 64,
                    "time": 37.891273333333345,
                    "velocity": 0.47244094488188976,
                    "duration": 0.16474466666666387
                },
                {
                    "name": "D#4",
                    "midi": 63,
                    "time": 38.05601800000001,
                    "velocity": 0.5118110236220472,
                    "duration": 0.16474466666666387
                },
                {
                    "name": "A#3",
                    "midi": 58,
                    "time": 38.22076266666667,
                    "velocity": 0.44881889763779526,
                    "duration": 0.16474466666666387
                },
                {
                    "name": "G#3",
                    "midi": 56,
                    "time": 38.38550733333334,
                    "velocity": 0.44881889763779526,
                    "duration": 0.16474466666666387
                },
                {
                    "name": "G3",
                    "midi": 55,
                    "time": 38.550252,
                    "velocity": 0.5118110236220472,
                    "duration": 0.16474466666666387
                },
                {
                    "name": "F#3",
                    "midi": 54,
                    "time": 38.714996666666664,
                    "velocity": 0.4566929133858268,
                    "duration": 0.16474466666666387
                },
                {
                    "name": "F3",
                    "midi": 53,
                    "time": 38.87974133333333,
                    "velocity": 0.4566929133858268,
                    "duration": 0.16474466666666387
                },
                {
                    "name": "B3",
                    "midi": 59,
                    "time": 39.209230666666656,
                    "velocity": 0.5275590551181102,
                    "duration": 0.16474466666666387
                },
                {
                    "name": "E4",
                    "midi": 64,
                    "time": 39.37397533333332,
                    "velocity": 0.5354330708661418,
                    "duration": 0.16474466666666387
                },
                {
                    "name": "F4",
                    "midi": 65,
                    "time": 39.538719999999984,
                    "velocity": 0.5669291338582677,
                    "duration": 0.16474466666666387
                },
                {
                    "name": "B4",
                    "midi": 71,
                    "time": 39.70346466666665,
                    "velocity": 0.5748031496062992,
                    "duration": 0.16474466666666387
                },
                {
                    "name": "C#5",
                    "midi": 73,
                    "time": 39.86820933333331,
                    "velocity": 0.5905511811023622,
                    "duration": 0.16474466666666387
                },
                {
                    "name": "F#5",
                    "midi": 78,
                    "time": 40.032953999999975,
                    "velocity": 0.6771653543307087,
                    "duration": 0.16474466666666387
                },
                {
                    "name": "F#4",
                    "midi": 66,
                    "time": 40.032953999999975,
                    "velocity": 0.6771653543307087,
                    "duration": 0.16474466666666387
                },
                {
                    "name": "C#5",
                    "midi": 73,
                    "time": 40.19769866666664,
                    "velocity": 0.5590551181102362,
                    "duration": 0.16474466666666387
                },
                {
                    "name": "B4",
                    "midi": 71,
                    "time": 40.3624433333333,
                    "velocity": 0.5511811023622047,
                    "duration": 0.16474466666666387
                },
                {
                    "name": "A4",
                    "midi": 69,
                    "time": 40.52718799999997,
                    "velocity": 0.5590551181102362,
                    "duration": 0.16474466666666387
                },
                {
                    "name": "G#4",
                    "midi": 68,
                    "time": 40.69193266666663,
                    "velocity": 0.47244094488188976,
                    "duration": 0.16474466666666387
                },
                {
                    "name": "G4",
                    "midi": 67,
                    "time": 40.856677333333295,
                    "velocity": 0.47244094488188976,
                    "duration": 0.16474466666666387
                },
                {
                    "name": "F#4",
                    "midi": 66,
                    "time": 41.02142199999996,
                    "velocity": 0.5118110236220472,
                    "duration": 0.16474466666666387
                },
                {
                    "name": "F4",
                    "midi": 65,
                    "time": 41.18616666666662,
                    "velocity": 0.44881889763779526,
                    "duration": 0.16474466666666387
                },
                {
                    "name": "E4",
                    "midi": 64,
                    "time": 41.350911333333286,
                    "velocity": 0.44881889763779526,
                    "duration": 0.16474466666666387
                },
                {
                    "name": "D#7",
                    "midi": 99,
                    "time": 42.00988999999995,
                    "velocity": 0.5669291338582677,
                    "duration": 0.16474466666666387
                },
                {
                    "name": "D#6",
                    "midi": 87,
                    "time": 42.17463466666661,
                    "velocity": 0.3858267716535433,
                    "duration": 0.16474466666666387
                },
                {
                    "name": "D#7",
                    "midi": 99,
                    "time": 42.33937933333328,
                    "velocity": 0.31496062992125984,
                    "duration": 0.16474466666666387
                },
                {
                    "name": "C#7",
                    "midi": 97,
                    "time": 42.50412399999994,
                    "velocity": 0.49606299212598426,
                    "duration": 0.16474466666666387
                },
                {
                    "name": "C#6",
                    "midi": 85,
                    "time": 42.668868666666604,
                    "velocity": 0.31496062992125984,
                    "duration": 0.16474466666666387
                },
                {
                    "name": "C#7",
                    "midi": 97,
                    "time": 42.83361333333327,
                    "velocity": 0.3700787401574803,
                    "duration": 0.16474466666666387
                },
                {
                    "name": "D#7",
                    "midi": 99,
                    "time": 42.99835799999993,
                    "velocity": 0.5039370078740157,
                    "duration": 0.16474466666666387
                },
                {
                    "name": "D#6",
                    "midi": 87,
                    "time": 43.163102666666596,
                    "velocity": 0.3779527559055118,
                    "duration": 0.16474466666666387
                },
                {
                    "name": "D#7",
                    "midi": 99,
                    "time": 43.32784733333326,
                    "velocity": 0.3779527559055118,
                    "duration": 0.16474466666666387
                },
                {
                    "name": "D#6",
                    "midi": 87,
                    "time": 43.492591999999924,
                    "velocity": 0.5039370078740157,
                    "duration": 0.24711700000000292
                },
                {
                    "name": "C#7",
                    "midi": 97,
                    "time": 43.98682599999993,
                    "velocity": 0.4645669291338583,
                    "duration": 0.16474466666666387
                },
                {
                    "name": "C#6",
                    "midi": 85,
                    "time": 44.15157066666659,
                    "velocity": 0.3543307086614173,
                    "duration": 0.16474466666666387
                },
                {
                    "name": "C#7",
                    "midi": 97,
                    "time": 44.31631533333326,
                    "velocity": 0.3543307086614173,
                    "duration": 0.16474466666666387
                },
                {
                    "name": "D#7",
                    "midi": 99,
                    "time": 44.48105999999992,
                    "velocity": 0.5433070866141733,
                    "duration": 0.16474466666666387
                },
                {
                    "name": "D#6",
                    "midi": 87,
                    "time": 44.645804666666585,
                    "velocity": 0.36220472440944884,
                    "duration": 0.16474466666666387
                },
                {
                    "name": "D#7",
                    "midi": 99,
                    "time": 44.81054933333325,
                    "velocity": 0.31496062992125984,
                    "duration": 0.16474466666666387
                },
                {
                    "name": "D#6",
                    "midi": 87,
                    "time": 44.97529399999991,
                    "velocity": 0.44881889763779526,
                    "duration": 0.24711700000000292
                },
                {
                    "name": "C#7",
                    "midi": 97,
                    "time": 45.46952799999992,
                    "velocity": 0.5354330708661418,
                    "duration": 0.16474466666666387
                },
                {
                    "name": "C#6",
                    "midi": 85,
                    "time": 45.63427266666658,
                    "velocity": 0.3543307086614173,
                    "duration": 0.16474466666666387
                },
                {
                    "name": "C#7",
                    "midi": 97,
                    "time": 45.799017333333246,
                    "velocity": 0.3543307086614173,
                    "duration": 0.16474466666666387
                },
                {
                    "name": "D#7",
                    "midi": 99,
                    "time": 45.96376199999991,
                    "velocity": 0.5590551181102362,
                    "duration": 0.16474466666666387
                },
                {
                    "name": "D#6",
                    "midi": 87,
                    "time": 46.128506666666574,
                    "velocity": 0.36220472440944884,
                    "duration": 0.16474466666666387
                },
                {
                    "name": "D#7",
                    "midi": 99,
                    "time": 46.29325133333324,
                    "velocity": 0.36220472440944884,
                    "duration": 0.16474466666666387
                },
                {
                    "name": "D#6",
                    "midi": 87,
                    "time": 46.4579959999999,
                    "velocity": 0.44881889763779526,
                    "duration": 0.24711700000000292
                },
                {
                    "name": "D#4",
                    "midi": 63,
                    "time": 46.95222999999991,
                    "velocity": 0.4881889763779528,
                    "duration": 0.16474466666666387
                },
                {
                    "name": "C#4",
                    "midi": 61,
                    "time": 47.11697466666657,
                    "velocity": 0.5118110236220472,
                    "duration": 0.16474466666666387
                },
                {
                    "name": "B3",
                    "midi": 59,
                    "time": 47.281719333333236,
                    "velocity": 0.5275590551181102,
                    "duration": 0.16474466666666387
                },
                {
                    "name": "A#3",
                    "midi": 58,
                    "time": 47.4464639999999,
                    "velocity": 0.5196850393700787,
                    "duration": 0.16474466666666387
                },
                {
                    "name": "B3",
                    "midi": 59,
                    "time": 47.61120866666656,
                    "velocity": 0.4409448818897638,
                    "duration": 0.16474466666666387
                },
                {
                    "name": "A3",
                    "midi": 57,
                    "time": 47.77595333333323,
                    "velocity": 0.44881889763779526,
                    "duration": 0.16474466666666387
                },
                {
                    "name": "A#3",
                    "midi": 58,
                    "time": 47.94069799999989,
                    "velocity": 0.5039370078740157,
                    "duration": 0.16474466666666387
                },
                {
                    "name": "D#4",
                    "midi": 63,
                    "time": 48.105442666666555,
                    "velocity": 0.4645669291338583,
                    "duration": 0.16474466666666387
                },
                {
                    "name": "C#4",
                    "midi": 61,
                    "time": 48.27018733333322,
                    "velocity": 0.47244094488188976,
                    "duration": 0.16474466666666387
                },
                {
                    "name": "D4",
                    "midi": 62,
                    "time": 48.43493199999988,
                    "velocity": 0.5354330708661418,
                    "duration": 0.16474466666666387
                },
                {
                    "name": "D#4",
                    "midi": 63,
                    "time": 48.59967666666655,
                    "velocity": 0.47244094488188976,
                    "duration": 0.16474466666666387
                },
                {
                    "name": "F#4",
                    "midi": 66,
                    "time": 48.76442133333321,
                    "velocity": 0.47244094488188976,
                    "duration": 0.16474466666666387
                },
                {
                    "name": "G4",
                    "midi": 67,
                    "time": 48.929165999999874,
                    "velocity": 0.5433070866141733,
                    "duration": 0.16474466666666387
                },
                {
                    "name": "A#4",
                    "midi": 70,
                    "time": 49.09391066666654,
                    "velocity": 0.48031496062992124,
                    "duration": 0.16474466666666387
                },
                {
                    "name": "G#4",
                    "midi": 68,
                    "time": 49.2586553333332,
                    "velocity": 0.4881889763779528,
                    "duration": 0.16474466666666387
                },
                {
                    "name": "B4",
                    "midi": 71,
                    "time": 49.423399999999866,
                    "velocity": 0.5669291338582677,
                    "duration": 0.16474466666666387
                },
                {
                    "name": "D5",
                    "midi": 74,
                    "time": 49.58814466666653,
                    "velocity": 0.49606299212598426,
                    "duration": 0.16474466666666387
                },
                {
                    "name": "D#5",
                    "midi": 75,
                    "time": 49.752889333333194,
                    "velocity": 0.5039370078740157,
                    "duration": 0.16474466666666387
                },
                {
                    "name": "F#5",
                    "midi": 78,
                    "time": 49.91763399999986,
                    "velocity": 0.6220472440944882,
                    "duration": 0.16474466666666387
                },
                {
                    "name": "D#5",
                    "midi": 75,
                    "time": 50.08237866666652,
                    "velocity": 0.5118110236220472,
                    "duration": 0.16474466666666387
                },
                {
                    "name": "D5",
                    "midi": 74,
                    "time": 50.247123333333185,
                    "velocity": 0.5196850393700787,
                    "duration": 0.16474466666666387
                },
                {
                    "name": "F5",
                    "midi": 77,
                    "time": 50.41186799999985,
                    "velocity": 0.6771653543307087,
                    "duration": 0.16474466666666387
                },
                {
                    "name": "D5",
                    "midi": 74,
                    "time": 50.57661266666651,
                    "velocity": 0.5275590551181102,
                    "duration": 0.16474466666666387
                },
                {
                    "name": "C#5",
                    "midi": 73,
                    "time": 50.74135733333318,
                    "velocity": 0.5275590551181102,
                    "duration": 0.16474466666666387
                },
                {
                    "name": "E5",
                    "midi": 76,
                    "time": 50.90610199999984,
                    "velocity": 0.6141732283464567,
                    "duration": 0.16474466666666387
                },
                {
                    "name": "C#5",
                    "midi": 73,
                    "time": 51.070846666666505,
                    "velocity": 0.5275590551181102,
                    "duration": 0.16474466666666387
                },
                {
                    "name": "C5",
                    "midi": 72,
                    "time": 51.23559133333317,
                    "velocity": 0.5275590551181102,
                    "duration": 0.16474466666666387
                },
                {
                    "name": "D#5",
                    "midi": 75,
                    "time": 51.40033599999983,
                    "velocity": 0.6220472440944882,
                    "duration": 0.16474466666666387
                },
                {
                    "name": "C5",
                    "midi": 72,
                    "time": 51.565080666666496,
                    "velocity": 0.5275590551181102,
                    "duration": 0.16474466666666387
                },
                {
                    "name": "B4",
                    "midi": 71,
                    "time": 51.72982533333316,
                    "velocity": 0.5275590551181102,
                    "duration": 0.16474466666666387
                },
                {
                    "name": "A#4",
                    "midi": 70,
                    "time": 51.894569999999824,
                    "velocity": 0.6141732283464567,
                    "duration": 0.16474466666666387
                },
                {
                    "name": "B4",
                    "midi": 71,
                    "time": 52.05931466666649,
                    "velocity": 0.5275590551181102,
                    "duration": 0.16474466666666387
                },
                {
                    "name": "A4",
                    "midi": 69,
                    "time": 52.22405933333315,
                    "velocity": 0.5275590551181102,
                    "duration": 0.16474466666666387
                },
                {
                    "name": "D#5",
                    "midi": 75,
                    "time": 52.388803999999816,
                    "velocity": 0.6062992125984252,
                    "duration": 0.16474466666666387
                },
                {
                    "name": "A#4",
                    "midi": 70,
                    "time": 52.55354866666648,
                    "velocity": 0.5275590551181102,
                    "duration": 0.16474466666666387
                },
                {
                    "name": "F4",
                    "midi": 65,
                    "time": 52.71829333333314,
                    "velocity": 0.5275590551181102,
                    "duration": 0.16474466666666387
                },
                {
                    "name": "F5",
                    "midi": 77,
                    "time": 53.377271999999806,
                    "velocity": 0.5039370078740157,
                    "duration": 1.9769359999999665
                },
                {
                    "name": "G4",
                    "midi": 67,
                    "time": 53.377271999999806,
                    "velocity": 0.4251968503937008,
                    "duration": 0.16474466666666387
                },
                {
                    "name": "C#5",
                    "midi": 73,
                    "time": 53.54201666666647,
                    "velocity": 0.3543307086614173,
                    "duration": 0.16474466666666387
                },
                {
                    "name": "C5",
                    "midi": 72,
                    "time": 53.706761333333134,
                    "velocity": 0.3543307086614173,
                    "duration": 0.16474466666666387
                },
                {
                    "name": "B4",
                    "midi": 71,
                    "time": 53.8715059999998,
                    "velocity": 0.41732283464566927,
                    "duration": 0.16474466666666387
                },
                {
                    "name": "C5",
                    "midi": 72,
                    "time": 54.03625066666646,
                    "velocity": 0.3700787401574803,
                    "duration": 0.16474466666666387
                },
                {
                    "name": "C#5",
                    "midi": 73,
                    "time": 54.200995333333125,
                    "velocity": 0.3700787401574803,
                    "duration": 0.16474466666666387
                },
                {
                    "name": "A4",
                    "midi": 69,
                    "time": 54.36573999999979,
                    "velocity": 0.41732283464566927,
                    "duration": 0.16474466666666387
                },
                {
                    "name": "A#4",
                    "midi": 70,
                    "time": 54.53048466666645,
                    "velocity": 0.3700787401574803,
                    "duration": 0.16474466666666387
                },
                {
                    "name": "C#5",
                    "midi": 73,
                    "time": 54.69522933333312,
                    "velocity": 0.3700787401574803,
                    "duration": 0.16474466666666387
                },
                {
                    "name": "G4",
                    "midi": 67,
                    "time": 54.85997399999978,
                    "velocity": 0.41732283464566927,
                    "duration": 0.16474466666666387
                },
                {
                    "name": "G#4",
                    "midi": 68,
                    "time": 55.024718666666445,
                    "velocity": 0.3700787401574803,
                    "duration": 0.16474466666666387
                },
                {
                    "name": "B4",
                    "midi": 71,
                    "time": 55.18946333333311,
                    "velocity": 0.3700787401574803,
                    "duration": 0.16474466666666387
                },
                {
                    "name": "G#5",
                    "midi": 80,
                    "time": 55.35420799999977,
                    "velocity": 0.5748031496062992,
                    "duration": 0.49423399999999873
                },
                {
                    "name": "B5",
                    "midi": 83,
                    "time": 55.35420799999977,
                    "velocity": 0.6062992125984252,
                    "duration": 0.49423399999999873
                },
                {
                    "name": "D#5",
                    "midi": 75,
                    "time": 55.84844199999977,
                    "velocity": 0.5275590551181102,
                    "duration": 0.49423399999999873
                },
                {
                    "name": "F4",
                    "midi": 65,
                    "time": 56.34267599999977,
                    "velocity": 0.4566929133858268,
                    "duration": 0.16474466666666387
                },
                {
                    "name": "D5",
                    "midi": 74,
                    "time": 56.34267599999977,
                    "velocity": 0.5433070866141733,
                    "duration": 1.9769359999999665
                },
                {
                    "name": "B4",
                    "midi": 71,
                    "time": 56.507420666666434,
                    "velocity": 0.4015748031496063,
                    "duration": 0.16474466666666387
                },
                {
                    "name": "A#4",
                    "midi": 70,
                    "time": 56.6721653333331,
                    "velocity": 0.3937007874015748,
                    "duration": 0.16474466666666387
                },
                {
                    "name": "A4",
                    "midi": 69,
                    "time": 56.83690999999976,
                    "velocity": 0.3937007874015748,
                    "duration": 0.16474466666666387
                },
                {
                    "name": "A#4",
                    "midi": 70,
                    "time": 57.001654666666425,
                    "velocity": 0.36220472440944884,
                    "duration": 0.16474466666666387
                },
                {
                    "name": "B4",
                    "midi": 71,
                    "time": 57.16639933333309,
                    "velocity": 0.3543307086614173,
                    "duration": 0.16474466666666387
                },
                {
                    "name": "G4",
                    "midi": 67,
                    "time": 57.33114399999975,
                    "velocity": 0.3700787401574803,
                    "duration": 0.16474466666666387
                },
                {
                    "name": "G#4",
                    "midi": 68,
                    "time": 57.49588866666642,
                    "velocity": 0.33070866141732286,
                    "duration": 0.16474466666666387
                },
                {
                    "name": "B4",
                    "midi": 71,
                    "time": 57.66063333333308,
                    "velocity": 0.3228346456692913,
                    "duration": 0.16474466666666387
                },
                {
                    "name": "E4",
                    "midi": 64,
                    "time": 57.825377999999745,
                    "velocity": 0.3543307086614173,
                    "duration": 0.16474466666666387
                },
                {
                    "name": "F4",
                    "midi": 65,
                    "time": 57.99012266666641,
                    "velocity": 0.30708661417322836,
                    "duration": 0.16474466666666387
                },
                {
                    "name": "G#4",
                    "midi": 68,
                    "time": 58.15486733333307,
                    "velocity": 0.2992125984251969,
                    "duration": 0.6589786666666626
                },
                {
                    "name": "D#5",
                    "midi": 75,
                    "time": 58.319611999999736,
                    "velocity": 0.5118110236220472,
                    "duration": 0.9884679999999975
                },
                {
                    "name": "A4",
                    "midi": 69,
                    "time": 58.813845999999735,
                    "velocity": 0.31496062992125984,
                    "duration": 0.49423399999999873
                },
                {
                    "name": "A#4",
                    "midi": 70,
                    "time": 59.308079999999734,
                    "velocity": 0.3543307086614173,
                    "duration": 0.16474466666666387
                },
                {
                    "name": "G4",
                    "midi": 67,
                    "time": 59.4728246666664,
                    "velocity": 0.3228346456692913,
                    "duration": 0.16474466666666387
                },
                {
                    "name": "G#4",
                    "midi": 68,
                    "time": 59.63756933333306,
                    "velocity": 0.3228346456692913,
                    "duration": 0.16474466666666387
                },
                {
                    "name": "A4",
                    "midi": 69,
                    "time": 59.802313999999726,
                    "velocity": 0.3543307086614173,
                    "duration": 0.16474466666666387
                },
                {
                    "name": "A#4",
                    "midi": 70,
                    "time": 59.96705866666639,
                    "velocity": 0.33070866141732286,
                    "duration": 0.16474466666666387
                },
                {
                    "name": "B4",
                    "midi": 71,
                    "time": 60.13180333333305,
                    "velocity": 0.33070866141732286,
                    "duration": 0.16474466666666387
                },
                {
                    "name": "D#5",
                    "midi": 75,
                    "time": 60.29654799999972,
                    "velocity": 0.4330708661417323,
                    "duration": 0.2471169999999958
                },
                {
                    "name": "C#5",
                    "midi": 73,
                    "time": 60.46129266666638,
                    "velocity": 0.3543307086614173,
                    "duration": 0.16474466666666387
                },
                {
                    "name": "D5",
                    "midi": 74,
                    "time": 60.626037333333045,
                    "velocity": 0.3543307086614173,
                    "duration": 0.16474466666666387
                },
                {
                    "name": "D#5",
                    "midi": 75,
                    "time": 60.79078199999971,
                    "velocity": 0.3543307086614173,
                    "duration": 0.16474466666666387
                },
                {
                    "name": "F5",
                    "midi": 77,
                    "time": 60.79078199999971,
                    "velocity": 0.49606299212598426,
                    "duration": 0.2471169999999958
                },
                {
                    "name": "A4",
                    "midi": 69,
                    "time": 60.95552666666637,
                    "velocity": 0.3543307086614173,
                    "duration": 0.16474466666666387
                },
                {
                    "name": "A#4",
                    "midi": 70,
                    "time": 61.12027133333304,
                    "velocity": 0.3543307086614173,
                    "duration": 0.16474466666666387
                },
                {
                    "name": "B4",
                    "midi": 71,
                    "time": 61.2850159999997,
                    "velocity": 0.3543307086614173,
                    "duration": 0.16474466666666387
                },
                {
                    "name": "C5",
                    "midi": 72,
                    "time": 61.449760666666364,
                    "velocity": 0.33070866141732286,
                    "duration": 0.16474466666666387
                },
                {
                    "name": "C#5",
                    "midi": 73,
                    "time": 61.61450533333303,
                    "velocity": 0.33070866141732286,
                    "duration": 0.16474466666666387
                },
                {
                    "name": "G5",
                    "midi": 79,
                    "time": 61.77924999999969,
                    "velocity": 0.4330708661417323,
                    "duration": 0.2471169999999958
                },
                {
                    "name": "C#5",
                    "midi": 73,
                    "time": 61.943994666666356,
                    "velocity": 0.3228346456692913,
                    "duration": 0.16474466666666387
                },
                {
                    "name": "D5",
                    "midi": 74,
                    "time": 62.10873933333302,
                    "velocity": 0.3228346456692913,
                    "duration": 0.16474466666666387
                },
                {
                    "name": "D#5",
                    "midi": 75,
                    "time": 62.273483999999684,
                    "velocity": 0.3543307086614173,
                    "duration": 0.16474466666666387
                },
                {
                    "name": "G#5",
                    "midi": 80,
                    "time": 62.273483999999684,
                    "velocity": 0.5039370078740157,
                    "duration": 0.2471169999999958
                },
                {
                    "name": "B4",
                    "midi": 71,
                    "time": 62.43822866666635,
                    "velocity": 0.3543307086614173,
                    "duration": 0.16474466666666387
                },
                {
                    "name": "C#5",
                    "midi": 73,
                    "time": 62.60297333333301,
                    "velocity": 0.3543307086614173,
                    "duration": 0.16474466666666387
                },
                {
                    "name": "D#5",
                    "midi": 75,
                    "time": 62.767717999999675,
                    "velocity": 0.3543307086614173,
                    "duration": 0.16474466666666387
                },
                {
                    "name": "E5",
                    "midi": 76,
                    "time": 62.93246266666634,
                    "velocity": 0.33070866141732286,
                    "duration": 0.16474466666666387
                },
                {
                    "name": "F5",
                    "midi": 77,
                    "time": 63.097207333333,
                    "velocity": 0.33070866141732286,
                    "duration": 0.16474466666666387
                },
                {
                    "name": "F#5",
                    "midi": 78,
                    "time": 63.26195199999967,
                    "velocity": 0.3543307086614173,
                    "duration": 0.16474466666666387
                },
                {
                    "name": "A5",
                    "midi": 81,
                    "time": 63.26195199999967,
                    "velocity": 0.4330708661417323,
                    "duration": 0.18533774999999508
                },
                {
                    "name": "F5",
                    "midi": 77,
                    "time": 63.42669666666633,
                    "velocity": 0.33070866141732286,
                    "duration": 0.16474466666666387
                },
                {
                    "name": "F#5",
                    "midi": 78,
                    "time": 63.591441333332995,
                    "velocity": 0.33070866141732286,
                    "duration": 0.32948933333332775
                },
                {
                    "name": "A#5",
                    "midi": 82,
                    "time": 63.75618599999966,
                    "velocity": 0.48031496062992124,
                    "duration": 0.18533774999999508
                },
                {
                    "name": "F5",
                    "midi": 77,
                    "time": 63.92093066666632,
                    "velocity": 0.33070866141732286,
                    "duration": 0.16474466666666387
                },
                {
                    "name": "F#5",
                    "midi": 78,
                    "time": 64.08567533333299,
                    "velocity": 0.3228346456692913,
                    "duration": 0.16474466666666387
                },
                {
                    "name": "G5",
                    "midi": 79,
                    "time": 64.25041999999965,
                    "velocity": 0.3543307086614173,
                    "duration": 0.16474466666666387
                },
                {
                    "name": "C6",
                    "midi": 84,
                    "time": 64.25041999999965,
                    "velocity": 0.4566929133858268,
                    "duration": 0.1853377500000022
                },
                {
                    "name": "G#5",
                    "midi": 80,
                    "time": 64.41516466666631,
                    "velocity": 0.33070866141732286,
                    "duration": 0.16474466666667809
                },
                {
                    "name": "A5",
                    "midi": 81,
                    "time": 64.57990933333299,
                    "velocity": 0.33070866141732286,
                    "duration": 0.16474466666666387
                },
                {
                    "name": "A#5",
                    "midi": 82,
                    "time": 64.74465399999966,
                    "velocity": 0.3543307086614173,
                    "duration": 0.16474466666666387
                },
                {
                    "name": "D6",
                    "midi": 86,
                    "time": 64.74465399999966,
                    "velocity": 0.47244094488188976,
                    "duration": 0.1853377500000022
                },
                {
                    "name": "G#5",
                    "midi": 80,
                    "time": 64.90939866666632,
                    "velocity": 0.31496062992125984,
                    "duration": 0.16474466666667809
                },
                {
                    "name": "F#5",
                    "midi": 78,
                    "time": 65.074143333333,
                    "velocity": 0.31496062992125984,
                    "duration": 0.6589786666666697
                },
                {
                    "name": "D#6",
                    "midi": 87,
                    "time": 65.23888799999966,
                    "velocity": 0.5196850393700787,
                    "duration": 0.49423400000000584
                },
                {
                    "name": "B5",
                    "midi": 83,
                    "time": 65.73312199999967,
                    "velocity": 0.3858267716535433,
                    "duration": 0.16474466666666387
                },
                {
                    "name": "G5",
                    "midi": 79,
                    "time": 65.89786666666633,
                    "velocity": 0.33858267716535434,
                    "duration": 0.16474466666666387
                },
                {
                    "name": "D5",
                    "midi": 74,
                    "time": 66.062611333333,
                    "velocity": 0.33858267716535434,
                    "duration": 0.16474466666666387
                },
                {
                    "name": "A#5",
                    "midi": 82,
                    "time": 66.22735599999966,
                    "velocity": 0.3858267716535433,
                    "duration": 0.16474466666666387
                },
                {
                    "name": "F#5",
                    "midi": 78,
                    "time": 66.39210066666632,
                    "velocity": 0.33070866141732286,
                    "duration": 0.16474466666666387
                },
                {
                    "name": "C#5",
                    "midi": 73,
                    "time": 66.55684533333299,
                    "velocity": 0.33070866141732286,
                    "duration": 0.16474466666666387
                },
                {
                    "name": "A5",
                    "midi": 81,
                    "time": 66.72158999999965,
                    "velocity": 0.3858267716535433,
                    "duration": 0.16474466666666387
                },
                {
                    "name": "F5",
                    "midi": 77,
                    "time": 66.88633466666631,
                    "velocity": 0.33858267716535434,
                    "duration": 0.16474466666666387
                },
                {
                    "name": "C5",
                    "midi": 72,
                    "time": 67.05107933333298,
                    "velocity": 0.33858267716535434,
                    "duration": 0.16474466666666387
                },
                {
                    "name": "G#5",
                    "midi": 80,
                    "time": 67.21582399999964,
                    "velocity": 0.3858267716535433,
                    "duration": 0.16474466666666387
                },
                {
                    "name": "E5",
                    "midi": 76,
                    "time": 67.3805686666663,
                    "velocity": 0.33070866141732286,
                    "duration": 0.16474466666666387
                },
                {
                    "name": "B4",
                    "midi": 71,
                    "time": 67.54531333333297,
                    "velocity": 0.33070866141732286,
                    "duration": 0.16474466666666387
                },
                {
                    "name": "G5",
                    "midi": 79,
                    "time": 67.71005799999963,
                    "velocity": 0.3858267716535433,
                    "duration": 0.16474466666666387
                },
                {
                    "name": "B4",
                    "midi": 71,
                    "time": 67.8748026666663,
                    "velocity": 0.33858267716535434,
                    "duration": 0.16474466666666387
                },
                {
                    "name": "A4",
                    "midi": 69,
                    "time": 68.03954733333296,
                    "velocity": 0.33858267716535434,
                    "duration": 0.16474466666666387
                },
                {
                    "name": "F#5",
                    "midi": 78,
                    "time": 68.20429199999963,
                    "velocity": 0.3858267716535433,
                    "duration": 0.16474466666666387
                },
                {
                    "name": "C#5",
                    "midi": 73,
                    "time": 68.36903666666629,
                    "velocity": 0.33070866141732286,
                    "duration": 0.16474466666666387
                },
                {
                    "name": "F#4",
                    "midi": 66,
                    "time": 68.53378133333295,
                    "velocity": 0.33070866141732286,
                    "duration": 0.16474466666666387
                },
                {
                    "name": "B4",
                    "midi": 71,
                    "time": 68.69852599999962,
                    "velocity": 0.3858267716535433,
                    "duration": 0.16474466666666387
                },
                {
                    "name": "G4",
                    "midi": 67,
                    "time": 68.86327066666628,
                    "velocity": 0.3464566929133858,
                    "duration": 0.16474466666666387
                },
                {
                    "name": "D4",
                    "midi": 62,
                    "time": 69.02801533333295,
                    "velocity": 0.3464566929133858,
                    "duration": 0.16474466666666387
                },
                {
                    "name": "A#4",
                    "midi": 70,
                    "time": 69.19275999999961,
                    "velocity": 0.3858267716535433,
                    "duration": 0.16474466666666387
                },
                {
                    "name": "F#4",
                    "midi": 66,
                    "time": 69.35750466666627,
                    "velocity": 0.33070866141732286,
                    "duration": 0.16474466666666387
                },
                {
                    "name": "C#4",
                    "midi": 61,
                    "time": 69.52224933333294,
                    "velocity": 0.33070866141732286,
                    "duration": 0.16474466666666387
                },
                {
                    "name": "A4",
                    "midi": 69,
                    "time": 69.6869939999996,
                    "velocity": 0.3858267716535433,
                    "duration": 0.16474466666666387
                },
                {
                    "name": "F4",
                    "midi": 65,
                    "time": 69.85173866666626,
                    "velocity": 0.31496062992125984,
                    "duration": 0.16474466666666387
                },
                {
                    "name": "C4",
                    "midi": 60,
                    "time": 70.01648333333293,
                    "velocity": 0.31496062992125984,
                    "duration": 0.16474466666666387
                },
                {
                    "name": "G#4",
                    "midi": 68,
                    "time": 70.18122799999959,
                    "velocity": 0.3937007874015748,
                    "duration": 0.16474466666666387
                },
                {
                    "name": "E4",
                    "midi": 64,
                    "time": 70.34597266666626,
                    "velocity": 0.3464566929133858,
                    "duration": 0.16474466666666387
                },
                {
                    "name": "B3",
                    "midi": 59,
                    "time": 70.51071733333292,
                    "velocity": 0.3464566929133858,
                    "duration": 0.16474466666666387
                },
                {
                    "name": "G4",
                    "midi": 67,
                    "time": 70.67546199999958,
                    "velocity": 0.3937007874015748,
                    "duration": 0.16474466666666387
                },
                {
                    "name": "B3",
                    "midi": 59,
                    "time": 70.84020666666625,
                    "velocity": 0.33858267716535434,
                    "duration": 0.16474466666666387
                },
                {
                    "name": "A3",
                    "midi": 57,
                    "time": 71.00495133333291,
                    "velocity": 0.33858267716535434,
                    "duration": 0.16474466666666387
                },
                {
                    "name": "F#4",
                    "midi": 66,
                    "time": 71.16969599999958,
                    "velocity": 0.3937007874015748,
                    "duration": 0.16474466666666387
                },
                {
                    "name": "A#3",
                    "midi": 58,
                    "time": 71.33444066666624,
                    "velocity": 0.33070866141732286,
                    "duration": 0.16474466666666387
                },
                {
                    "name": "D#3",
                    "midi": 51,
                    "time": 71.4991853333329,
                    "velocity": 0.3464566929133858,
                    "duration": 0.16474466666666387
                },
                {
                    "name": "D#4",
                    "midi": 63,
                    "time": 71.66392999999957,
                    "velocity": 0.5748031496062992,
                    "duration": 0.49423400000000584
                },
                {
                    "name": "G4",
                    "midi": 67,
                    "time": 72.15816399999957,
                    "velocity": 0.3937007874015748,
                    "duration": 0.16474466666666387
                },
                {
                    "name": "B3",
                    "midi": 59,
                    "time": 72.32290866666624,
                    "velocity": 0.33858267716535434,
                    "duration": 0.16474466666666387
                },
                {
                    "name": "A3",
                    "midi": 57,
                    "time": 72.4876533333329,
                    "velocity": 0.33858267716535434,
                    "duration": 0.16474466666666387
                },
                {
                    "name": "F#4",
                    "midi": 66,
                    "time": 72.65239799999956,
                    "velocity": 0.3937007874015748,
                    "duration": 0.16474466666666387
                },
                {
                    "name": "A#3",
                    "midi": 58,
                    "time": 72.81714266666623,
                    "velocity": 0.36220472440944884,
                    "duration": 0.16474466666666387
                },
                {
                    "name": "D#3",
                    "midi": 51,
                    "time": 72.98188733333289,
                    "velocity": 0.36220472440944884,
                    "duration": 0.16474466666666387
                },
                {
                    "name": "D#4",
                    "midi": 63,
                    "time": 73.14663199999956,
                    "velocity": 0.5590551181102362,
                    "duration": 0.49423400000000584
                },
                {
                    "name": "G4",
                    "midi": 67,
                    "time": 73.64086599999956,
                    "velocity": 0.3937007874015748,
                    "duration": 0.16474466666666387
                },
                {
                    "name": "B3",
                    "midi": 59,
                    "time": 73.80561066666623,
                    "velocity": 0.36220472440944884,
                    "duration": 0.16474466666666387
                },
                {
                    "name": "A3",
                    "midi": 57,
                    "time": 73.97035533333289,
                    "velocity": 0.36220472440944884,
                    "duration": 0.16474466666666387
                },
                {
                    "name": "F#4",
                    "midi": 66,
                    "time": 74.13509999999955,
                    "velocity": 0.3937007874015748,
                    "duration": 0.16474466666666387
                },
                {
                    "name": "A#3",
                    "midi": 58,
                    "time": 74.29984466666622,
                    "velocity": 0.36220472440944884,
                    "duration": 0.16474466666666387
                },
                {
                    "name": "D#3",
                    "midi": 51,
                    "time": 74.46458933333288,
                    "velocity": 0.3700787401574803,
                    "duration": 0.16474466666666387
                },
                {
                    "name": "D#4",
                    "midi": 63,
                    "time": 74.62933399999955,
                    "velocity": 0.7874015748031497,
                    "duration": 1.4827020000000175
                },
                {
                    "name": "B3",
                    "midi": 59,
                    "time": 75.12356799999955,
                    "velocity": 0.6771653543307087,
                    "duration": 0.49423400000000584
                },
                {
                    "name": "G#3",
                    "midi": 56,
                    "time": 75.61780199999956,
                    "velocity": 0.7637795275590551,
                    "duration": 0.49423400000000584
                },
                {
                    "name": "F3",
                    "midi": 53,
                    "time": 76.11203599999956,
                    "velocity": 0.6299212598425197,
                    "duration": 0.24711700000000292
                },
                {
                    "name": "D#3",
                    "midi": 51,
                    "time": 76.35915299999957,
                    "velocity": 0.6771653543307087,
                    "duration": 0.24711700000000292
                },
                {
                    "name": "D3",
                    "midi": 50,
                    "time": 76.60626999999957,
                    "velocity": 0.7086614173228346,
                    "duration": 0.24711700000000292
                },
                {
                    "name": "C3",
                    "midi": 48,
                    "time": 76.85338699999957,
                    "velocity": 0.7322834645669292,
                    "duration": 0.24711700000000292
                },
                {
                    "name": "A#2",
                    "midi": 46,
                    "time": 77.10050399999957,
                    "velocity": 0.7716535433070866,
                    "duration": 0.49423400000000584
                },
                {
                    "name": "D2",
                    "midi": 38,
                    "time": 77.59473799999958,
                    "velocity": 0.49606299212598426,
                    "duration": 0.16474466666666387
                },
                {
                    "name": "G#2",
                    "midi": 44,
                    "time": 77.75948266666624,
                    "velocity": 0.5039370078740157,
                    "duration": 0.16474466666666387
                },
                {
                    "name": "A#2",
                    "midi": 46,
                    "time": 77.92422733333291,
                    "velocity": 0.5118110236220472,
                    "duration": 0.16474466666666387
                },
                {
                    "name": "D3",
                    "midi": 50,
                    "time": 78.08897199999957,
                    "velocity": 0.5275590551181102,
                    "duration": 0.16474466666666387
                },
                {
                    "name": "G#3",
                    "midi": 56,
                    "time": 78.25371666666624,
                    "velocity": 0.5354330708661418,
                    "duration": 0.16474466666666387
                },
                {
                    "name": "A#3",
                    "midi": 58,
                    "time": 78.4184613333329,
                    "velocity": 0.5748031496062992,
                    "duration": 0.16474466666666387
                },
                {
                    "name": "D#4",
                    "midi": 63,
                    "time": 78.58320599999956,
                    "velocity": 0.6299212598425197,
                    "duration": 0.16474466666666387
                },
                {
                    "name": "D#3",
                    "midi": 51,
                    "time": 78.58320599999956,
                    "velocity": 0.6299212598425197,
                    "duration": 0.16474466666666387
                },
                {
                    "name": "G#3",
                    "midi": 56,
                    "time": 78.74795066666623,
                    "velocity": 0.5984251968503937,
                    "duration": 0.16474466666666387
                },
                {
                    "name": "G3",
                    "midi": 55,
                    "time": 78.91269533333289,
                    "velocity": 0.5433070866141733,
                    "duration": 0.16474466666666387
                },
                {
                    "name": "F#3",
                    "midi": 54,
                    "time": 79.07743999999956,
                    "velocity": 0.5118110236220472,
                    "duration": 0.16474466666666387
                },
                {
                    "name": "F3",
                    "midi": 53,
                    "time": 79.24218466666622,
                    "velocity": 0.49606299212598426,
                    "duration": 0.16474466666666387
                },
                {
                    "name": "E3",
                    "midi": 52,
                    "time": 79.40692933333288,
                    "velocity": 0.5118110236220472,
                    "duration": 0.16474466666666387
                },
                {
                    "name": "D#3",
                    "midi": 51,
                    "time": 79.57167399999955,
                    "velocity": 0.5039370078740157,
                    "duration": 0.16474466666666387
                },
                {
                    "name": "A#2",
                    "midi": 46,
                    "time": 79.73641866666621,
                    "velocity": 0.4881889763779528,
                    "duration": 0.16474466666666387
                },
                {
                    "name": "G#2",
                    "midi": 44,
                    "time": 79.90116333333287,
                    "velocity": 0.48031496062992124,
                    "duration": 0.16474466666666387
                },
                {
                    "name": "G2",
                    "midi": 43,
                    "time": 80.06590799999954,
                    "velocity": 0.48031496062992124,
                    "duration": 0.16474466666666387
                },
                {
                    "name": "F#2",
                    "midi": 42,
                    "time": 80.2306526666662,
                    "velocity": 0.4566929133858268,
                    "duration": 0.16474466666666387
                },
                {
                    "name": "F2",
                    "midi": 41,
                    "time": 80.39539733333287,
                    "velocity": 0.4645669291338583,
                    "duration": 0.16474466666666387
                },
                {
                    "name": "B2",
                    "midi": 47,
                    "time": 80.7248866666662,
                    "velocity": 0.5039370078740157,
                    "duration": 0.16474466666666387
                },
                {
                    "name": "C#3",
                    "midi": 49,
                    "time": 80.88963133333286,
                    "velocity": 0.5118110236220472,
                    "duration": 0.16474466666666387
                },
                {
                    "name": "F3",
                    "midi": 53,
                    "time": 81.05437599999952,
                    "velocity": 0.5275590551181102,
                    "duration": 0.16474466666666387
                },
                {
                    "name": "B3",
                    "midi": 59,
                    "time": 81.21912066666619,
                    "velocity": 0.5354330708661418,
                    "duration": 0.16474466666666387
                },
                {
                    "name": "C#4",
                    "midi": 61,
                    "time": 81.38386533333285,
                    "velocity": 0.5748031496062992,
                    "duration": 0.16474466666666387
                },
                {
                    "name": "F#4",
                    "midi": 66,
                    "time": 81.54860999999951,
                    "velocity": 0.6299212598425197,
                    "duration": 0.16474466666666387
                },
                {
                    "name": "F#3",
                    "midi": 54,
                    "time": 81.54860999999951,
                    "velocity": 0.6299212598425197,
                    "duration": 0.16474466666666387
                },
                {
                    "name": "C#4",
                    "midi": 61,
                    "time": 81.71335466666618,
                    "velocity": 0.6062992125984252,
                    "duration": 0.16474466666666387
                },
                {
                    "name": "B3",
                    "midi": 59,
                    "time": 81.87809933333284,
                    "velocity": 0.5826771653543307,
                    "duration": 0.16474466666666387
                },
                {
                    "name": "A3",
                    "midi": 57,
                    "time": 82.0428439999995,
                    "velocity": 0.5748031496062992,
                    "duration": 0.16474466666666387
                },
                {
                    "name": "G#3",
                    "midi": 56,
                    "time": 82.20758866666617,
                    "velocity": 0.5669291338582677,
                    "duration": 0.16474466666666387
                },
                {
                    "name": "G3",
                    "midi": 55,
                    "time": 82.37233333333283,
                    "velocity": 0.5669291338582677,
                    "duration": 0.16474466666666387
                },
                {
                    "name": "F#3",
                    "midi": 54,
                    "time": 82.5370779999995,
                    "velocity": 0.5590551181102362,
                    "duration": 0.16474466666666387
                },
                {
                    "name": "F3",
                    "midi": 53,
                    "time": 82.70182266666616,
                    "velocity": 0.5511811023622047,
                    "duration": 0.16474466666666387
                },
                {
                    "name": "E3",
                    "midi": 52,
                    "time": 82.86656733333282,
                    "velocity": 0.5511811023622047,
                    "duration": 0.16474466666666387
                },
                {
                    "name": "F#3",
                    "midi": 54,
                    "time": 83.36080133333282,
                    "velocity": 0.48031496062992124,
                    "duration": 0.16474466666666387
                },
                {
                    "name": "G3",
                    "midi": 55,
                    "time": 83.52554599999948,
                    "velocity": 0.48031496062992124,
                    "duration": 0.16474466666666387
                },
                {
                    "name": "C#4",
                    "midi": 61,
                    "time": 83.69029066666614,
                    "velocity": 0.48031496062992124,
                    "duration": 0.16474466666666387
                },
                {
                    "name": "D#4",
                    "midi": 63,
                    "time": 83.85503533333281,
                    "velocity": 0.5039370078740157,
                    "duration": 0.16474466666666387
                },
                {
                    "name": "G4",
                    "midi": 67,
                    "time": 84.01977999999947,
                    "velocity": 0.5275590551181102,
                    "duration": 0.16474466666666387
                },
                {
                    "name": "C#5",
                    "midi": 73,
                    "time": 84.18452466666614,
                    "velocity": 0.5511811023622047,
                    "duration": 0.16474466666666387
                },
                {
                    "name": "D#5",
                    "midi": 75,
                    "time": 84.3492693333328,
                    "velocity": 0.5905511811023622,
                    "duration": 0.16474466666666387
                },
                {
                    "name": "G#5",
                    "midi": 80,
                    "time": 84.51401399999946,
                    "velocity": 0.6299212598425197,
                    "duration": 0.16474466666666387
                },
                {
                    "name": "G#4",
                    "midi": 68,
                    "time": 84.51401399999946,
                    "velocity": 0.6299212598425197,
                    "duration": 0.16474466666666387
                },
                {
                    "name": "C#5",
                    "midi": 73,
                    "time": 84.67875866666613,
                    "velocity": 0.6062992125984252,
                    "duration": 0.16474466666666387
                },
                {
                    "name": "C5",
                    "midi": 72,
                    "time": 84.84350333333279,
                    "velocity": 0.5590551181102362,
                    "duration": 0.16474466666666387
                },
                {
                    "name": "B4",
                    "midi": 71,
                    "time": 85.00824799999945,
                    "velocity": 0.5748031496062992,
                    "duration": 0.16474466666666387
                },
                {
                    "name": "A#4",
                    "midi": 70,
                    "time": 85.17299266666612,
                    "velocity": 0.5669291338582677,
                    "duration": 0.16474466666666387
                },
                {
                    "name": "A4",
                    "midi": 69,
                    "time": 85.33773733333278,
                    "velocity": 0.5669291338582677,
                    "duration": 0.16474466666666387
                },
                {
                    "name": "G#4",
                    "midi": 68,
                    "time": 85.50248199999945,
                    "velocity": 0.5590551181102362,
                    "duration": 0.16474466666666387
                },
                {
                    "name": "G4",
                    "midi": 67,
                    "time": 85.66722666666611,
                    "velocity": 0.5511811023622047,
                    "duration": 0.16474466666666387
                },
                {
                    "name": "F#4",
                    "midi": 66,
                    "time": 85.83197133333277,
                    "velocity": 0.5511811023622047,
                    "duration": 0.16474466666666387
                },
                {
                    "name": "A4",
                    "midi": 69,
                    "time": 86.1614606666661,
                    "velocity": 0.5354330708661418,
                    "duration": 0.16474466666666387
                },
                {
                    "name": "D#5",
                    "midi": 75,
                    "time": 86.32620533333277,
                    "velocity": 0.5511811023622047,
                    "duration": 0.16474466666666387
                },
                {
                    "name": "F5",
                    "midi": 77,
                    "time": 86.49094999999943,
                    "velocity": 0.5669291338582677,
                    "duration": 0.16474466666666387
                },
                {
                    "name": "A5",
                    "midi": 81,
                    "time": 86.6556946666661,
                    "velocity": 0.5748031496062992,
                    "duration": 0.16474466666666387
                },
                {
                    "name": "D#6",
                    "midi": 87,
                    "time": 86.82043933333276,
                    "velocity": 0.6141732283464567,
                    "duration": 0.16474466666666387
                },
                {
                    "name": "A6",
                    "midi": 93,
                    "time": 86.98518399999942,
                    "velocity": 0.6377952755905512,
                    "duration": 0.16474466666666387
                },
                {
                    "name": "A5",
                    "midi": 81,
                    "time": 86.98518399999942,
                    "velocity": 0.6377952755905512,
                    "duration": 0.16474466666666387
                },
                {
                    "name": "F6",
                    "midi": 89,
                    "time": 87.14992866666609,
                    "velocity": 0.6614173228346457,
                    "duration": 0.16474466666666387
                },
                {
                    "name": "D#6",
                    "midi": 87,
                    "time": 87.31467333333275,
                    "velocity": 0.6771653543307087,
                    "duration": 0.16474466666666387
                },
                {
                    "name": "A#6",
                    "midi": 94,
                    "time": 87.47941799999941,
                    "velocity": 0.6692913385826772,
                    "duration": 0.16474466666666387
                },
                {
                    "name": "A#5",
                    "midi": 82,
                    "time": 87.47941799999941,
                    "velocity": 0.6692913385826772,
                    "duration": 0.16474466666666387
                },
                {
                    "name": "F6",
                    "midi": 89,
                    "time": 87.64416266666608,
                    "velocity": 0.6141732283464567,
                    "duration": 0.16474466666666387
                },
                {
                    "name": "D#6",
                    "midi": 87,
                    "time": 87.80890733333274,
                    "velocity": 0.6377952755905512,
                    "duration": 0.16474466666666387
                },
                {
                    "name": "C#5",
                    "midi": 73,
                    "time": 87.9736519999994,
                    "velocity": 0.6377952755905512,
                    "duration": 0.16474466666666387
                },
                {
                    "name": "C6",
                    "midi": 84,
                    "time": 88.13839666666607,
                    "velocity": 0.6377952755905512,
                    "duration": 0.16474466666666387
                },
                {
                    "name": "D#6",
                    "midi": 87,
                    "time": 88.30314133333273,
                    "velocity": 0.6377952755905512,
                    "duration": 0.16474466666666387
                },
                {
                    "name": "A#6",
                    "midi": 94,
                    "time": 88.4678859999994,
                    "velocity": 0.6299212598425197,
                    "duration": 0.16474466666666387
                },
                {
                    "name": "C7",
                    "midi": 96,
                    "time": 88.63263066666606,
                    "velocity": 0.6299212598425197,
                    "duration": 0.16474466666666387
                },
                {
                    "name": "D#7",
                    "midi": 99,
                    "time": 88.79737533333272,
                    "velocity": 0.6220472440944882,
                    "duration": 0.16474466666666387
                },
                {
                    "name": "A#7",
                    "midi": 106,
                    "time": 88.96211999999939,
                    "velocity": 0.7007874015748031,
                    "duration": 0.49423400000000584
                },
                {
                    "name": "A#6",
                    "midi": 94,
                    "time": 88.96211999999939,
                    "velocity": 0.7007874015748031,
                    "duration": 0.49423400000000584
                },
                {
                    "name": "A#7",
                    "midi": 106,
                    "time": 89.4563539999994,
                    "velocity": 0.5669291338582677,
                    "duration": 0.16474466666666387
                },
                {
                    "name": "A#6",
                    "midi": 94,
                    "time": 89.62109866666606,
                    "velocity": 0.3858267716535433,
                    "duration": 0.16474466666666387
                },
                {
                    "name": "A#7",
                    "midi": 106,
                    "time": 89.78584333333272,
                    "velocity": 0.31496062992125984,
                    "duration": 0.16474466666666387
                },
                {
                    "name": "G#7",
                    "midi": 104,
                    "time": 89.95058799999939,
                    "velocity": 0.49606299212598426,
                    "duration": 0.16474466666666387
                },
                {
                    "name": "G#6",
                    "midi": 92,
                    "time": 90.11533266666605,
                    "velocity": 0.31496062992125984,
                    "duration": 0.16474466666666387
                },
                {
                    "name": "G#7",
                    "midi": 104,
                    "time": 90.28007733333271,
                    "velocity": 0.3937007874015748,
                    "duration": 0.16474466666666387
                },
                {
                    "name": "A#7",
                    "midi": 106,
                    "time": 90.44482199999938,
                    "velocity": 0.47244094488188976,
                    "duration": 0.16474466666666387
                },
                {
                    "name": "A#6",
                    "midi": 94,
                    "time": 90.60956666666604,
                    "velocity": 0.3779527559055118,
                    "duration": 0.16474466666666387
                },
                {
                    "name": "A#7",
                    "midi": 106,
                    "time": 90.7743113333327,
                    "velocity": 0.3779527559055118,
                    "duration": 0.16474466666666387
                },
                {
                    "name": "A#6",
                    "midi": 94,
                    "time": 90.93905599999937,
                    "velocity": 0.5039370078740157,
                    "duration": 0.24711700000000292
                },
                {
                    "name": "G#7",
                    "midi": 104,
                    "time": 91.43328999999937,
                    "velocity": 0.4645669291338583,
                    "duration": 0.16474466666666387
                },
                {
                    "name": "G#6",
                    "midi": 92,
                    "time": 91.59803466666604,
                    "velocity": 0.3543307086614173,
                    "duration": 0.16474466666666387
                },
                {
                    "name": "G#7",
                    "midi": 104,
                    "time": 91.7627793333327,
                    "velocity": 0.3543307086614173,
                    "duration": 0.16474466666666387
                },
                {
                    "name": "A#7",
                    "midi": 106,
                    "time": 91.92752399999937,
                    "velocity": 0.5433070866141733,
                    "duration": 0.16474466666666387
                },
                {
                    "name": "A#6",
                    "midi": 94,
                    "time": 92.09226866666603,
                    "velocity": 0.36220472440944884,
                    "duration": 0.16474466666666387
                },
                {
                    "name": "A#7",
                    "midi": 106,
                    "time": 92.2570133333327,
                    "velocity": 0.31496062992125984,
                    "duration": 0.16474466666666387
                },
                {
                    "name": "A#6",
                    "midi": 94,
                    "time": 92.42175799999936,
                    "velocity": 0.44881889763779526,
                    "duration": 0.24711700000000292
                },
                {
                    "name": "G#7",
                    "midi": 104,
                    "time": 92.91599199999936,
                    "velocity": 0.5354330708661418,
                    "duration": 0.16474466666666387
                },
                {
                    "name": "G#6",
                    "midi": 92,
                    "time": 93.08073666666603,
                    "velocity": 0.3543307086614173,
                    "duration": 0.16474466666666387
                },
                {
                    "name": "G#7",
                    "midi": 104,
                    "time": 93.24548133333269,
                    "velocity": 0.3543307086614173,
                    "duration": 0.16474466666666387
                },
                {
                    "name": "A#7",
                    "midi": 106,
                    "time": 93.41022599999935,
                    "velocity": 0.5590551181102362,
                    "duration": 0.16474466666666387
                },
                {
                    "name": "A#6",
                    "midi": 94,
                    "time": 93.57497066666602,
                    "velocity": 0.36220472440944884,
                    "duration": 0.16474466666666387
                },
                {
                    "name": "A#7",
                    "midi": 106,
                    "time": 93.73971533333268,
                    "velocity": 0.36220472440944884,
                    "duration": 0.16474466666666387
                },
                {
                    "name": "A#6",
                    "midi": 94,
                    "time": 93.90445999999935,
                    "velocity": 0.44881889763779526,
                    "duration": 0.24711700000000292
                },
                {
                    "name": "C#4",
                    "midi": 61,
                    "time": 94.39869399999935,
                    "velocity": 0.4251968503937008,
                    "duration": 0.16474466666666387
                },
                {
                    "name": "C4",
                    "midi": 60,
                    "time": 94.56343866666602,
                    "velocity": 0.44881889763779526,
                    "duration": 0.16474466666666387
                },
                {
                    "name": "B3",
                    "midi": 59,
                    "time": 94.72818333333268,
                    "velocity": 0.4566929133858268,
                    "duration": 0.16474466666666387
                },
                {
                    "name": "A#3",
                    "midi": 58,
                    "time": 94.89292799999934,
                    "velocity": 0.4409448818897638,
                    "duration": 0.16474466666666387
                },
                {
                    "name": "B3",
                    "midi": 59,
                    "time": 95.05767266666601,
                    "velocity": 0.3700787401574803,
                    "duration": 0.16474466666666387
                },
                {
                    "name": "A3",
                    "midi": 57,
                    "time": 95.22241733333267,
                    "velocity": 0.3779527559055118,
                    "duration": 0.16474466666666387
                },
                {
                    "name": "A#3",
                    "midi": 58,
                    "time": 95.38716199999934,
                    "velocity": 0.4330708661417323,
                    "duration": 0.16474466666666387
                },
                {
                    "name": "D#4",
                    "midi": 63,
                    "time": 95.551906666666,
                    "velocity": 0.3937007874015748,
                    "duration": 0.16474466666666387
                },
                {
                    "name": "C#4",
                    "midi": 61,
                    "time": 95.71665133333266,
                    "velocity": 0.4094488188976378,
                    "duration": 0.16474466666666387
                },
                {
                    "name": "D4",
                    "midi": 62,
                    "time": 95.88139599999933,
                    "velocity": 0.4645669291338583,
                    "duration": 0.16474466666666387
                },
                {
                    "name": "D#4",
                    "midi": 63,
                    "time": 96.04614066666599,
                    "velocity": 0.3858267716535433,
                    "duration": 0.16474466666666387
                },
                {
                    "name": "F#4",
                    "midi": 66,
                    "time": 96.21088533333266,
                    "velocity": 0.3937007874015748,
                    "duration": 0.16474466666666387
                },
                {
                    "name": "G4",
                    "midi": 67,
                    "time": 96.37562999999932,
                    "velocity": 0.47244094488188976,
                    "duration": 0.16474466666666387
                },
                {
                    "name": "A#4",
                    "midi": 70,
                    "time": 96.54037466666598,
                    "velocity": 0.4015748031496063,
                    "duration": 0.16474466666666387
                },
                {
                    "name": "G#4",
                    "midi": 68,
                    "time": 96.70511933333265,
                    "velocity": 0.4094488188976378,
                    "duration": 0.16474466666666387
                },
                {
                    "name": "B4",
                    "midi": 71,
                    "time": 96.86986399999931,
                    "velocity": 0.5039370078740157,
                    "duration": 0.16474466666666387
                },
                {
                    "name": "D5",
                    "midi": 74,
                    "time": 97.03460866666597,
                    "velocity": 0.41732283464566927,
                    "duration": 0.16474466666666387
                },
                {
                    "name": "D#5",
                    "midi": 75,
                    "time": 97.19935333333264,
                    "velocity": 0.41732283464566927,
                    "duration": 0.16474466666666387
                },
                {
                    "name": "F#5",
                    "midi": 78,
                    "time": 97.3640979999993,
                    "velocity": 0.49606299212598426,
                    "duration": 0.16474466666666387
                },
                {
                    "name": "D#5",
                    "midi": 75,
                    "time": 97.52884266666597,
                    "velocity": 0.4330708661417323,
                    "duration": 0.16474466666666387
                },
                {
                    "name": "D5",
                    "midi": 74,
                    "time": 97.69358733333263,
                    "velocity": 0.4330708661417323,
                    "duration": 0.16474466666666387
                },
                {
                    "name": "F5",
                    "midi": 77,
                    "time": 97.8583319999993,
                    "velocity": 0.5196850393700787,
                    "duration": 0.16474466666666387
                },
                {
                    "name": "D5",
                    "midi": 74,
                    "time": 98.02307666666596,
                    "velocity": 0.41732283464566927,
                    "duration": 0.16474466666666387
                },
                {
                    "name": "C#5",
                    "midi": 73,
                    "time": 98.18782133333262,
                    "velocity": 0.41732283464566927,
                    "duration": 0.16474466666666387
                },
                {
                    "name": "E5",
                    "midi": 76,
                    "time": 98.35256599999929,
                    "velocity": 0.5118110236220472,
                    "duration": 0.16474466666666387
                },
                {
                    "name": "C#5",
                    "midi": 73,
                    "time": 98.51731066666595,
                    "velocity": 0.41732283464566927,
                    "duration": 0.16474466666666387
                },
                {
                    "name": "C5",
                    "midi": 72,
                    "time": 98.68205533333261,
                    "velocity": 0.41732283464566927,
                    "duration": 0.16474466666666387
                },
                {
                    "name": "D#5",
                    "midi": 75,
                    "time": 98.84679999999928,
                    "velocity": 0.5196850393700787,
                    "duration": 0.16474466666666387
                },
                {
                    "name": "A#4",
                    "midi": 70,
                    "time": 99.01154466666594,
                    "velocity": 0.44881889763779526,
                    "duration": 0.16474466666666387
                },
                {
                    "name": "B4",
                    "midi": 71,
                    "time": 99.1762893333326,
                    "velocity": 0.44881889763779526,
                    "duration": 0.16474466666666387
                },
                {
                    "name": "D5",
                    "midi": 74,
                    "time": 99.34103399999927,
                    "velocity": 0.5275590551181102,
                    "duration": 0.16474466666666387
                },
                {
                    "name": "D#5",
                    "midi": 75,
                    "time": 99.50577866666593,
                    "velocity": 0.4566929133858268,
                    "duration": 0.16474466666666387
                },
                {
                    "name": "F#5",
                    "midi": 78,
                    "time": 99.6705233333326,
                    "velocity": 0.4645669291338583,
                    "duration": 0.16474466666666387
                },
                {
                    "name": "G5",
                    "midi": 79,
                    "time": 99.83526799999926,
                    "velocity": 0.5748031496062992,
                    "duration": 0.16474466666666387
                },
                {
                    "name": "A#5",
                    "midi": 82,
                    "time": 100.00001266666592,
                    "velocity": 0.47244094488188976,
                    "duration": 0.16474466666666387
                },
                {
                    "name": "G#5",
                    "midi": 80,
                    "time": 100.16475733333259,
                    "velocity": 0.48031496062992124,
                    "duration": 0.16474466666666387
                },
                {
                    "name": "B5",
                    "midi": 83,
                    "time": 100.32950199999925,
                    "velocity": 0.5511811023622047,
                    "duration": 0.16474466666666387
                },
                {
                    "name": "G#5",
                    "midi": 80,
                    "time": 100.49424666666592,
                    "velocity": 0.49606299212598426,
                    "duration": 0.16474466666666387
                },
                {
                    "name": "G5",
                    "midi": 79,
                    "time": 100.65899133333258,
                    "velocity": 0.49606299212598426,
                    "duration": 0.16474466666666387
                },
                {
                    "name": "A#5",
                    "midi": 82,
                    "time": 100.82373599999924,
                    "velocity": 0.6220472440944882,
                    "duration": 0.16474466666666387
                },
                {
                    "name": "G5",
                    "midi": 79,
                    "time": 100.98848066666591,
                    "velocity": 0.5511811023622047,
                    "duration": 0.16474466666666387
                },
                {
                    "name": "F#5",
                    "midi": 78,
                    "time": 101.15322533333257,
                    "velocity": 0.5196850393700787,
                    "duration": 0.16474466666666387
                },
                {
                    "name": "A5",
                    "midi": 81,
                    "time": 101.31796999999924,
                    "velocity": 0.6141732283464567,
                    "duration": 0.16474466666666387
                },
                {
                    "name": "F#5",
                    "midi": 78,
                    "time": 101.4827146666659,
                    "velocity": 0.5275590551181102,
                    "duration": 0.16474466666666387
                },
                {
                    "name": "F5",
                    "midi": 77,
                    "time": 101.64745933333256,
                    "velocity": 0.5275590551181102,
                    "duration": 0.16474466666666387
                },
                {
                    "name": "G#5",
                    "midi": 80,
                    "time": 101.81220399999923,
                    "velocity": 0.6141732283464567,
                    "duration": 0.16474466666666387
                },
                {
                    "name": "D#5",
                    "midi": 75,
                    "time": 101.97694866666589,
                    "velocity": 0.5433070866141733,
                    "duration": 0.16474466666666387
                },
                {
                    "name": "E5",
                    "midi": 76,
                    "time": 102.14169333333255,
                    "velocity": 0.5433070866141733,
                    "duration": 0.16474466666666387
                },
                {
                    "name": "G5",
                    "midi": 79,
                    "time": 102.30643799999922,
                    "velocity": 0.5511811023622047,
                    "duration": 0.16474466666666387
                },
                {
                    "name": "G#5",
                    "midi": 80,
                    "time": 102.47118266666588,
                    "velocity": 0.49606299212598426,
                    "duration": 0.16474466666666387
                },
                {
                    "name": "B5",
                    "midi": 83,
                    "time": 102.63592733333255,
                    "velocity": 0.49606299212598426,
                    "duration": 0.16474466666666387
                },
                {
                    "name": "C6",
                    "midi": 84,
                    "time": 102.80067199999921,
                    "velocity": 0.5590551181102362,
                    "duration": 0.16474466666666387
                },
                {
                    "name": "D#6",
                    "midi": 87,
                    "time": 102.96541666666587,
                    "velocity": 0.49606299212598426,
                    "duration": 0.16474466666666387
                },
                {
                    "name": "C#6",
                    "midi": 85,
                    "time": 103.13016133333254,
                    "velocity": 0.5039370078740157,
                    "duration": 0.16474466666666387
                },
                {
                    "name": "E6",
                    "midi": 88,
                    "time": 103.2949059999992,
                    "velocity": 0.5748031496062992,
                    "duration": 0.16474466666666387
                },
                {
                    "name": "C#6",
                    "midi": 85,
                    "time": 103.45965066666587,
                    "velocity": 0.5196850393700787,
                    "duration": 0.16474466666666387
                },
                {
                    "name": "C6",
                    "midi": 84,
                    "time": 103.62439533333253,
                    "velocity": 0.5196850393700787,
                    "duration": 0.16474466666666387
                },
                {
                    "name": "D#6",
                    "midi": 87,
                    "time": 103.7891399999992,
                    "velocity": 0.5826771653543307,
                    "duration": 0.16474466666666387
                },
                {
                    "name": "C6",
                    "midi": 84,
                    "time": 103.95388466666586,
                    "velocity": 0.5354330708661418,
                    "duration": 0.16474466666666387
                },
                {
                    "name": "B5",
                    "midi": 83,
                    "time": 104.11862933333252,
                    "velocity": 0.5354330708661418,
                    "duration": 0.16474466666666387
                },
                {
                    "name": "D6",
                    "midi": 86,
                    "time": 104.28337399999918,
                    "velocity": 0.5984251968503937,
                    "duration": 0.16474466666666387
                },
                {
                    "name": "A#5",
                    "midi": 82,
                    "time": 104.44811866666585,
                    "velocity": 0.5511811023622047,
                    "duration": 0.16474466666666387
                },
                {
                    "name": "D6",
                    "midi": 86,
                    "time": 104.61286333333251,
                    "velocity": 0.5511811023622047,
                    "duration": 0.16474466666666387
                },
                {
                    "name": "F#5",
                    "midi": 78,
                    "time": 104.77760799999918,
                    "velocity": 0.5748031496062992,
                    "duration": 0.16474466666666387
                },
                {
                    "name": "F#6",
                    "midi": 90,
                    "time": 104.77760799999918,
                    "velocity": 0.6850393700787402,
                    "duration": 0.16474466666666387
                },
                {
                    "name": "D#6",
                    "midi": 87,
                    "time": 104.94235266666584,
                    "velocity": 0.5511811023622047,
                    "duration": 0.16474466666666387
                },
                {
                    "name": "D6",
                    "midi": 86,
                    "time": 105.1070973333325,
                    "velocity": 0.5669291338582677,
                    "duration": 0.16474466666666387
                },
                {
                    "name": "F5",
                    "midi": 77,
                    "time": 105.27184199999917,
                    "velocity": 0.6141732283464567,
                    "duration": 0.16474466666666387
                },
                {
                    "name": "F6",
                    "midi": 89,
                    "time": 105.27184199999917,
                    "velocity": 0.7244094488188977,
                    "duration": 0.16474466666666387
                },
                {
                    "name": "D6",
                    "midi": 86,
                    "time": 105.43658666666583,
                    "velocity": 0.5669291338582677,
                    "duration": 0.16474466666666387
                },
                {
                    "name": "C#6",
                    "midi": 85,
                    "time": 105.6013313333325,
                    "velocity": 0.5669291338582677,
                    "duration": 0.16474466666666387
                },
                {
                    "name": "E5",
                    "midi": 76,
                    "time": 105.76607599999916,
                    "velocity": 0.6299212598425197,
                    "duration": 0.16474466666666387
                },
                {
                    "name": "E6",
                    "midi": 88,
                    "time": 105.76607599999916,
                    "velocity": 0.7480314960629921,
                    "duration": 0.16474466666666387
                },
                {
                    "name": "C#6",
                    "midi": 85,
                    "time": 105.93082066666582,
                    "velocity": 0.5748031496062992,
                    "duration": 0.16474466666666387
                },
                {
                    "name": "C6",
                    "midi": 84,
                    "time": 106.09556533333249,
                    "velocity": 0.5826771653543307,
                    "duration": 0.16474466666666387
                },
                {
                    "name": "D#5",
                    "midi": 75,
                    "time": 106.26030999999915,
                    "velocity": 0.6456692913385826,
                    "duration": 0.16474466666666387
                },
                {
                    "name": "D#6",
                    "midi": 87,
                    "time": 106.26030999999915,
                    "velocity": 0.7637795275590551,
                    "duration": 0.16474466666666387
                },
                {
                    "name": "B5",
                    "midi": 83,
                    "time": 106.42505466666582,
                    "velocity": 0.5905511811023622,
                    "duration": 0.16474466666666387
                },
                {
                    "name": "A#5",
                    "midi": 82,
                    "time": 106.58979933333248,
                    "velocity": 0.5984251968503937,
                    "duration": 0.16474466666666387
                },
                {
                    "name": "E5",
                    "midi": 76,
                    "time": 106.75454399999914,
                    "velocity": 0.7480314960629921,
                    "duration": 1.4827019999999749
                },
                {
                    "name": "E6",
                    "midi": 88,
                    "time": 106.75454399999914,
                    "velocity": 0.8188976377952756,
                    "duration": 1.4827019999999749
                },
                {
                    "name": "C#6",
                    "midi": 85,
                    "time": 106.9192886666658,
                    "velocity": 0.5354330708661418,
                    "duration": 0.16474466666666387
                },
                {
                    "name": "C6",
                    "midi": 84,
                    "time": 107.08403333333247,
                    "velocity": 0.5433070866141733,
                    "duration": 0.16474466666666387
                },
                {
                    "name": "B5",
                    "midi": 83,
                    "time": 107.24877799999913,
                    "velocity": 0.5590551181102362,
                    "duration": 0.16474466666666387
                },
                {
                    "name": "A#5",
                    "midi": 82,
                    "time": 107.4135226666658,
                    "velocity": 0.5511811023622047,
                    "duration": 0.16474466666666387
                },
                {
                    "name": "A5",
                    "midi": 81,
                    "time": 107.57826733333246,
                    "velocity": 0.5669291338582677,
                    "duration": 0.16474466666666387
                },
                {
                    "name": "G#5",
                    "midi": 80,
                    "time": 107.74301199999913,
                    "velocity": 0.5669291338582677,
                    "duration": 0.16474466666666387
                },
                {
                    "name": "G5",
                    "midi": 79,
                    "time": 107.90775666666579,
                    "velocity": 0.5669291338582677,
                    "duration": 0.16474466666666387
                },
                {
                    "name": "F#5",
                    "midi": 78,
                    "time": 108.07250133333245,
                    "velocity": 0.5433070866141733,
                    "duration": 0.16474466666666387
                },
                {
                    "name": "F5",
                    "midi": 77,
                    "time": 108.23724599999912,
                    "velocity": 0.7086614173228346,
                    "duration": 1.4827019999999749
                },
                {
                    "name": "F6",
                    "midi": 89,
                    "time": 108.23724599999912,
                    "velocity": 0.8188976377952756,
                    "duration": 0.6589786666666555
                },
                {
                    "name": "B5",
                    "midi": 83,
                    "time": 108.40199066666578,
                    "velocity": 0.6377952755905512,
                    "duration": 0.16474466666666387
                },
                {
                    "name": "E6",
                    "midi": 88,
                    "time": 108.56673533333245,
                    "velocity": 0.6377952755905512,
                    "duration": 0.16474466666666387
                },
                {
                    "name": "F6",
                    "midi": 89,
                    "time": 108.73147999999911,
                    "velocity": 0.7401574803149606,
                    "duration": 0.9884679999999832
                },
                {
                    "name": "B6",
                    "midi": 95,
                    "time": 108.89622466666577,
                    "velocity": 0.6850393700787402,
                    "duration": 0.16474466666666387
                },
                {
                    "name": "E7",
                    "midi": 100,
                    "time": 109.06096933333244,
                    "velocity": 0.7165354330708661,
                    "duration": 0.16474466666666387
                },
                {
                    "name": "F7",
                    "midi": 101,
                    "time": 109.2257139999991,
                    "velocity": 0.7559055118110236,
                    "duration": 0.16474466666666387
                },
                {
                    "name": "B6",
                    "midi": 95,
                    "time": 109.39045866666577,
                    "velocity": 0.7007874015748031,
                    "duration": 0.16474466666666387
                },
                {
                    "name": "F6",
                    "midi": 89,
                    "time": 109.55520333333243,
                    "velocity": 0.6377952755905512,
                    "duration": 0.16474466666666387
                },
                {
                    "name": "D5",
                    "midi": 74,
                    "time": 109.71994799999909,
                    "velocity": 0.7480314960629921,
                    "duration": 1.4827019999999749
                },
                {
                    "name": "D6",
                    "midi": 86,
                    "time": 109.71994799999909,
                    "velocity": 0.8188976377952756,
                    "duration": 1.4827019999999749
                },
                {
                    "name": "B5",
                    "midi": 83,
                    "time": 109.88469266666576,
                    "velocity": 0.5354330708661418,
                    "duration": 0.16474466666666387
                },
                {
                    "name": "A#5",
                    "midi": 82,
                    "time": 110.04943733333242,
                    "velocity": 0.5354330708661418,
                    "duration": 0.16474466666666387
                },
                {
                    "name": "A5",
                    "midi": 81,
                    "time": 110.21418199999908,
                    "velocity": 0.5354330708661418,
                    "duration": 0.16474466666666387
                },
                {
                    "name": "G#5",
                    "midi": 80,
                    "time": 110.37892666666575,
                    "velocity": 0.5511811023622047,
                    "duration": 0.16474466666666387
                },
                {
                    "name": "G5",
                    "midi": 79,
                    "time": 110.54367133333241,
                    "velocity": 0.5511811023622047,
                    "duration": 0.16474466666666387
                },
                {
                    "name": "F#5",
                    "midi": 78,
                    "time": 110.70841599999908,
                    "velocity": 0.5511811023622047,
                    "duration": 0.16474466666666387
                },
                {
                    "name": "F5",
                    "midi": 77,
                    "time": 110.87316066666574,
                    "velocity": 0.5511811023622047,
                    "duration": 0.16474466666666387
                },
                {
                    "name": "E5",
                    "midi": 76,
                    "time": 111.0379053333324,
                    "velocity": 0.5984251968503937,
                    "duration": 0.16474466666666387
                },
                {
                    "name": "D#5",
                    "midi": 75,
                    "time": 111.20264999999907,
                    "velocity": 0.7086614173228346,
                    "duration": 1.4827019999999749
                },
                {
                    "name": "D#6",
                    "midi": 87,
                    "time": 111.20264999999907,
                    "velocity": 0.8188976377952756,
                    "duration": 1.4827019999999749
                },
                {
                    "name": "F#5",
                    "midi": 78,
                    "time": 111.36739466666573,
                    "velocity": 0.6377952755905512,
                    "duration": 0.16474466666666387
                },
                {
                    "name": "B5",
                    "midi": 83,
                    "time": 111.5321393333324,
                    "velocity": 0.6377952755905512,
                    "duration": 0.16474466666666387
                },
                {
                    "name": "C6",
                    "midi": 84,
                    "time": 111.69688399999906,
                    "velocity": 0.7322834645669292,
                    "duration": 0.16474466666666387
                },
                {
                    "name": "F#6",
                    "midi": 90,
                    "time": 111.86162866666572,
                    "velocity": 0.6692913385826772,
                    "duration": 0.16474466666666387
                },
                {
                    "name": "B6",
                    "midi": 95,
                    "time": 112.02637333333239,
                    "velocity": 0.7952755905511811,
                    "duration": 0.16474466666666387
                },
                {
                    "name": "C7",
                    "midi": 96,
                    "time": 112.19111799999905,
                    "velocity": 0.8110236220472441,
                    "duration": 0.16474466666666387
                },
                {
                    "name": "F#6",
                    "midi": 90,
                    "time": 112.35586266666571,
                    "velocity": 0.7007874015748031,
                    "duration": 0.16474466666666387
                },
                {
                    "name": "C6",
                    "midi": 84,
                    "time": 112.52060733333238,
                    "velocity": 0.6377952755905512,
                    "duration": 0.16474466666666387
                },
                {
                    "name": "A#5",
                    "midi": 82,
                    "time": 112.68535199999904,
                    "velocity": 0.5511811023622047,
                    "duration": 0.9884679999999832
                },
                {
                    "name": "A#4",
                    "midi": 70,
                    "time": 112.68535199999904,
                    "velocity": 0.5511811023622047,
                    "duration": 0.16474466666666387
                },
                {
                    "name": "F#5",
                    "midi": 78,
                    "time": 112.8500966666657,
                    "velocity": 0.5118110236220472,
                    "duration": 0.16474466666666387
                },
                {
                    "name": "A#4",
                    "midi": 70,
                    "time": 113.01484133333237,
                    "velocity": 0.5039370078740157,
                    "duration": 0.16474466666666387
                },
                {
                    "name": "A4",
                    "midi": 69,
                    "time": 113.3443306666657,
                    "velocity": 0.47244094488188976,
                    "duration": 0.16474466666666387
                },
                {
                    "name": "A#4",
                    "midi": 70,
                    "time": 113.50907533333236,
                    "velocity": 0.4566929133858268,
                    "duration": 0.16474466666666387
                },
                {
                    "name": "B4",
                    "midi": 71,
                    "time": 113.67381999999903,
                    "velocity": 0.5039370078740157,
                    "duration": 0.4942339999999916
                },
                {
                    "name": "E5",
                    "midi": 76,
                    "time": 113.83856466666569,
                    "velocity": 0.4566929133858268,
                    "duration": 0.16474466666666387
                },
                {
                    "name": "B5",
                    "midi": 83,
                    "time": 114.00330933333235,
                    "velocity": 0.4566929133858268,
                    "duration": 0.16474466666666387
                },
                {
                    "name": "G5",
                    "midi": 79,
                    "time": 114.16805399999902,
                    "velocity": 0.4881889763779528,
                    "duration": 0.9884679999999832
                },
                {
                    "name": "E5",
                    "midi": 76,
                    "time": 114.33279866666568,
                    "velocity": 0.4409448818897638,
                    "duration": 0.16474466666666387
                },
                {
                    "name": "G4",
                    "midi": 67,
                    "time": 114.49754333333235,
                    "velocity": 0.4330708661417323,
                    "duration": 0.16474466666666387
                },
                {
                    "name": "F#4",
                    "midi": 66,
                    "time": 114.82703266666567,
                    "velocity": 0.4015748031496063,
                    "duration": 0.16474466666666387
                },
                {
                    "name": "G4",
                    "midi": 67,
                    "time": 114.99177733333234,
                    "velocity": 0.3937007874015748,
                    "duration": 0.16474466666666387
                },
                {
                    "name": "G#4",
                    "midi": 68,
                    "time": 115.156521999999,
                    "velocity": 0.4330708661417323,
                    "duration": 0.4942339999999916
                },
                {
                    "name": "D#5",
                    "midi": 75,
                    "time": 115.32126666666566,
                    "velocity": 0.3937007874015748,
                    "duration": 0.16474466666666387
                },
                {
                    "name": "G#5",
                    "midi": 80,
                    "time": 115.48601133333233,
                    "velocity": 0.3858267716535433,
                    "duration": 0.16474466666666387
                },
                {
                    "name": "F#4",
                    "midi": 66,
                    "time": 115.81550066666566,
                    "velocity": 0.3228346456692913,
                    "duration": 0.16474466666666387
                },
                {
                    "name": "G#4",
                    "midi": 68,
                    "time": 115.98024533333232,
                    "velocity": 0.3228346456692913,
                    "duration": 0.16474466666666387
                },
                {
                    "name": "A4",
                    "midi": 69,
                    "time": 116.14498999999898,
                    "velocity": 0.3543307086614173,
                    "duration": 0.16474466666666387
                },
                {
                    "name": "A#4",
                    "midi": 70,
                    "time": 116.30973466666565,
                    "velocity": 0.33070866141732286,
                    "duration": 0.16474466666666387
                },
                {
                    "name": "B4",
                    "midi": 71,
                    "time": 116.47447933333231,
                    "velocity": 0.33070866141732286,
                    "duration": 0.16474466666666387
                },
                {
                    "name": "D#5",
                    "midi": 75,
                    "time": 116.63922399999898,
                    "velocity": 0.4330708661417323,
                    "duration": 0.24711700000000292
                },
                {
                    "name": "C#5",
                    "midi": 73,
                    "time": 116.80396866666564,
                    "velocity": 0.3543307086614173,
                    "duration": 0.16474466666667809
                },
                {
                    "name": "D5",
                    "midi": 74,
                    "time": 116.96871333333232,
                    "velocity": 0.3543307086614173,
                    "duration": 0.16474466666666387
                },
                {
                    "name": "D#5",
                    "midi": 75,
                    "time": 117.13345799999898,
                    "velocity": 0.3543307086614173,
                    "duration": 0.16474466666666387
                },
                {
                    "name": "F5",
                    "midi": 77,
                    "time": 117.13345799999898,
                    "velocity": 0.49606299212598426,
                    "duration": 0.24711700000000292
                },
                {
                    "name": "A4",
                    "midi": 69,
                    "time": 117.29820266666565,
                    "velocity": 0.3543307086614173,
                    "duration": 0.16474466666667809
                },
                {
                    "name": "A#4",
                    "midi": 70,
                    "time": 117.46294733333232,
                    "velocity": 0.3543307086614173,
                    "duration": 0.16474466666666387
                },
                {
                    "name": "B4",
                    "midi": 71,
                    "time": 117.62769199999899,
                    "velocity": 0.3543307086614173,
                    "duration": 0.16474466666666387
                },
                {
                    "name": "C5",
                    "midi": 72,
                    "time": 117.79243666666565,
                    "velocity": 0.33070866141732286,
                    "duration": 0.16474466666666387
                },
                {
                    "name": "C#5",
                    "midi": 73,
                    "time": 117.95718133333231,
                    "velocity": 0.33070866141732286,
                    "duration": 0.16474466666666387
                },
                {
                    "name": "G5",
                    "midi": 79,
                    "time": 118.12192599999898,
                    "velocity": 0.4330708661417323,
                    "duration": 0.24711700000000292
                },
                {
                    "name": "C#5",
                    "midi": 73,
                    "time": 118.28667066666564,
                    "velocity": 0.3228346456692913,
                    "duration": 0.16474466666667809
                },
                {
                    "name": "D5",
                    "midi": 74,
                    "time": 118.45141533333232,
                    "velocity": 0.3228346456692913,
                    "duration": 0.16474466666666387
                },
                {
                    "name": "D#5",
                    "midi": 75,
                    "time": 118.61615999999898,
                    "velocity": 0.3543307086614173,
                    "duration": 0.16474466666666387
                },
                {
                    "name": "G#5",
                    "midi": 80,
                    "time": 118.61615999999898,
                    "velocity": 0.5039370078740157,
                    "duration": 0.24711700000000292
                },
                {
                    "name": "B4",
                    "midi": 71,
                    "time": 118.78090466666565,
                    "velocity": 0.3543307086614173,
                    "duration": 0.16474466666667809
                },
                {
                    "name": "C#5",
                    "midi": 73,
                    "time": 118.94564933333233,
                    "velocity": 0.3543307086614173,
                    "duration": 0.16474466666666387
                },
                {
                    "name": "D#5",
                    "midi": 75,
                    "time": 119.11039399999899,
                    "velocity": 0.3543307086614173,
                    "duration": 0.16474466666666387
                },
                {
                    "name": "E5",
                    "midi": 76,
                    "time": 119.27513866666565,
                    "velocity": 0.33070866141732286,
                    "duration": 0.16474466666666387
                },
                {
                    "name": "F5",
                    "midi": 77,
                    "time": 119.43988333333232,
                    "velocity": 0.33070866141732286,
                    "duration": 0.16474466666666387
                },
                {
                    "name": "F#5",
                    "midi": 78,
                    "time": 119.60462799999898,
                    "velocity": 0.3543307086614173,
                    "duration": 0.16474466666666387
                },
                {
                    "name": "A5",
                    "midi": 81,
                    "time": 119.60462799999898,
                    "velocity": 0.4330708661417323,
                    "duration": 0.1853377500000022
                },
                {
                    "name": "F5",
                    "midi": 77,
                    "time": 119.76937266666565,
                    "velocity": 0.33070866141732286,
                    "duration": 0.16474466666667809
                },
                {
                    "name": "F#5",
                    "midi": 78,
                    "time": 119.93411733333232,
                    "velocity": 0.33070866141732286,
                    "duration": 0.32948933333332775
                },
                {
                    "name": "A#5",
                    "midi": 82,
                    "time": 120.09886199999899,
                    "velocity": 0.48031496062992124,
                    "duration": 0.1853377500000022
                },
                {
                    "name": "F5",
                    "midi": 77,
                    "time": 120.26360666666565,
                    "velocity": 0.33070866141732286,
                    "duration": 0.16474466666667809
                },
                {
                    "name": "F#5",
                    "midi": 78,
                    "time": 120.42835133333233,
                    "velocity": 0.3228346456692913,
                    "duration": 0.16474466666666387
                },
                {
                    "name": "G5",
                    "midi": 79,
                    "time": 120.593095999999,
                    "velocity": 0.3543307086614173,
                    "duration": 0.16474466666666387
                },
                {
                    "name": "C6",
                    "midi": 84,
                    "time": 120.593095999999,
                    "velocity": 0.4566929133858268,
                    "duration": 0.1853377500000022
                },
                {
                    "name": "G#5",
                    "midi": 80,
                    "time": 120.75784066666566,
                    "velocity": 0.33070866141732286,
                    "duration": 0.16474466666667809
                },
                {
                    "name": "A5",
                    "midi": 81,
                    "time": 120.92258533333234,
                    "velocity": 0.33070866141732286,
                    "duration": 0.16474466666666387
                },
                {
                    "name": "A#5",
                    "midi": 82,
                    "time": 121.087329999999,
                    "velocity": 0.3543307086614173,
                    "duration": 0.16474466666666387
                },
                {
                    "name": "D6",
                    "midi": 86,
                    "time": 121.087329999999,
                    "velocity": 0.47244094488188976,
                    "duration": 0.1853377500000022
                },
                {
                    "name": "G#5",
                    "midi": 80,
                    "time": 121.25207466666566,
                    "velocity": 0.31496062992125984,
                    "duration": 0.16474466666667809
                },
                {
                    "name": "F#5",
                    "midi": 78,
                    "time": 121.41681933333234,
                    "velocity": 0.31496062992125984,
                    "duration": 0.6589786666666555
                },
                {
                    "name": "D#6",
                    "midi": 87,
                    "time": 121.581563999999,
                    "velocity": 0.5196850393700787,
                    "duration": 0.4942339999999916
                },
                {
                    "name": "A#5",
                    "midi": 82,
                    "time": 121.91105333333233,
                    "velocity": 0.3464566929133858,
                    "duration": 0.16474466666666387
                },
                {
                    "name": "D#6",
                    "midi": 87,
                    "time": 122.075797999999,
                    "velocity": 0.41732283464566927,
                    "duration": 0.16474466666666387
                },
                {
                    "name": "F#6",
                    "midi": 90,
                    "time": 122.24054266666566,
                    "velocity": 0.3464566929133858,
                    "duration": 0.16474466666666387
                },
                {
                    "name": "A#6",
                    "midi": 94,
                    "time": 122.40528733333232,
                    "velocity": 0.3464566929133858,
                    "duration": 0.16474466666666387
                },
                {
                    "name": "D#7",
                    "midi": 99,
                    "time": 122.57003199999899,
                    "velocity": 0.41732283464566927,
                    "duration": 0.16474466666666387
                },
                {
                    "name": "G6",
                    "midi": 91,
                    "time": 122.73477666666565,
                    "velocity": 0.3464566929133858,
                    "duration": 0.16474466666666387
                },
                {
                    "name": "F#6",
                    "midi": 90,
                    "time": 122.89952133333232,
                    "velocity": 0.3464566929133858,
                    "duration": 0.16474466666666387
                },
                {
                    "name": "D7",
                    "midi": 98,
                    "time": 123.06426599999898,
                    "velocity": 0.4094488188976378,
                    "duration": 0.16474466666666387
                },
                {
                    "name": "F#6",
                    "midi": 90,
                    "time": 123.22901066666564,
                    "velocity": 0.3543307086614173,
                    "duration": 0.16474466666666387
                },
                {
                    "name": "F6",
                    "midi": 89,
                    "time": 123.39375533333231,
                    "velocity": 0.3543307086614173,
                    "duration": 0.16474466666666387
                },
                {
                    "name": "C#7",
                    "midi": 97,
                    "time": 123.55849999999897,
                    "velocity": 0.4251968503937008,
                    "duration": 0.16474466666666387
                },
                {
                    "name": "F6",
                    "midi": 89,
                    "time": 123.72324466666564,
                    "velocity": 0.3543307086614173,
                    "duration": 0.16474466666666387
                },
                {
                    "name": "E6",
                    "midi": 88,
                    "time": 123.8879893333323,
                    "velocity": 0.36220472440944884,
                    "duration": 0.16474466666666387
                },
                {
                    "name": "C7",
                    "midi": 96,
                    "time": 124.05273399999896,
                    "velocity": 0.41732283464566927,
                    "duration": 0.16474466666666387
                },
                {
                    "name": "E6",
                    "midi": 88,
                    "time": 124.21747866666563,
                    "velocity": 0.36220472440944884,
                    "duration": 0.16474466666666387
                },
                {
                    "name": "D#6",
                    "midi": 87,
                    "time": 124.38222333333229,
                    "velocity": 0.36220472440944884,
                    "duration": 0.16474466666666387
                },
                {
                    "name": "F#5",
                    "midi": 78,
                    "time": 124.54696799999896,
                    "velocity": 0.4251968503937008,
                    "duration": 0.16474466666666387
                },
                {
                    "name": "A5",
                    "midi": 81,
                    "time": 124.71171266666562,
                    "velocity": 0.3700787401574803,
                    "duration": 0.16474466666666387
                },
                {
                    "name": "A#5",
                    "midi": 82,
                    "time": 124.87645733333228,
                    "velocity": 0.3700787401574803,
                    "duration": 0.16474466666666387
                },
                {
                    "name": "D6",
                    "midi": 86,
                    "time": 125.04120199999895,
                    "velocity": 0.44881889763779526,
                    "duration": 0.16474466666666387
                },
                {
                    "name": "D#6",
                    "midi": 87,
                    "time": 125.20594666666561,
                    "velocity": 0.3700787401574803,
                    "duration": 0.16474466666666387
                },
                {
                    "name": "F#6",
                    "midi": 90,
                    "time": 125.37069133333227,
                    "velocity": 0.3700787401574803,
                    "duration": 0.16474466666666387
                },
                {
                    "name": "A#6",
                    "midi": 94,
                    "time": 125.53543599999894,
                    "velocity": 0.4566929133858268,
                    "duration": 0.16474466666666387
                },
                {
                    "name": "D6",
                    "midi": 86,
                    "time": 125.7001806666656,
                    "velocity": 0.3779527559055118,
                    "duration": 0.16474466666666387
                },
                {
                    "name": "C#6",
                    "midi": 85,
                    "time": 125.86492533333227,
                    "velocity": 0.3779527559055118,
                    "duration": 0.16474466666666387
                },
                {
                    "name": "A6",
                    "midi": 93,
                    "time": 126.02966999999893,
                    "velocity": 0.4645669291338583,
                    "duration": 0.16474466666666387
                },
                {
                    "name": "C#6",
                    "midi": 85,
                    "time": 126.1944146666656,
                    "velocity": 0.3858267716535433,
                    "duration": 0.16474466666666387
                },
                {
                    "name": "C6",
                    "midi": 84,
                    "time": 126.35915933333226,
                    "velocity": 0.3858267716535433,
                    "duration": 0.16474466666666387
                },
                {
                    "name": "G#6",
                    "midi": 92,
                    "time": 126.52390399999892,
                    "velocity": 0.48031496062992124,
                    "duration": 0.16474466666666387
                },
                {
                    "name": "C6",
                    "midi": 84,
                    "time": 126.68864866666559,
                    "velocity": 0.3858267716535433,
                    "duration": 0.16474466666666387
                },
                {
                    "name": "B5",
                    "midi": 83,
                    "time": 126.85339333333225,
                    "velocity": 0.3937007874015748,
                    "duration": 0.16474466666666387
                },
                {
                    "name": "G6",
                    "midi": 91,
                    "time": 127.01813799999891,
                    "velocity": 0.47244094488188976,
                    "duration": 0.16474466666666387
                },
                {
                    "name": "B5",
                    "midi": 83,
                    "time": 127.18288266666558,
                    "velocity": 0.3937007874015748,
                    "duration": 0.16474466666666387
                },
                {
                    "name": "A#5",
                    "midi": 82,
                    "time": 127.34762733333224,
                    "velocity": 0.3937007874015748,
                    "duration": 0.16474466666666387
                },
                {
                    "name": "C5",
                    "midi": 72,
                    "time": 127.5123719999989,
                    "velocity": 0.48031496062992124,
                    "duration": 0.16474466666666387
                },
                {
                    "name": "D#5",
                    "midi": 75,
                    "time": 127.67711666666557,
                    "velocity": 0.4251968503937008,
                    "duration": 0.16474466666666387
                },
                {
                    "name": "F#5",
                    "midi": 78,
                    "time": 127.84186133333223,
                    "velocity": 0.4409448818897638,
                    "duration": 0.16474466666666387
                },
                {
                    "name": "G#5",
                    "midi": 80,
                    "time": 128.0066059999989,
                    "velocity": 0.4881889763779528,
                    "duration": 0.16474466666667809
                },
                {
                    "name": "A5",
                    "midi": 81,
                    "time": 128.17135066666557,
                    "velocity": 0.4015748031496063,
                    "duration": 0.16474466666667809
                },
                {
                    "name": "C6",
                    "midi": 84,
                    "time": 128.33609533333225,
                    "velocity": 0.4015748031496063,
                    "duration": 0.16474466666667809
                },
                {
                    "name": "D#6",
                    "midi": 87,
                    "time": 128.50083999999893,
                    "velocity": 0.4881889763779528,
                    "duration": 0.16474466666667809
                },
                {
                    "name": "G5",
                    "midi": 79,
                    "time": 128.6655846666656,
                    "velocity": 0.4094488188976378,
                    "duration": 0.16474466666667809
                },
                {
                    "name": "F#5",
                    "midi": 78,
                    "time": 128.8303293333323,
                    "velocity": 0.4094488188976378,
                    "duration": 0.16474466666667809
                },
                {
                    "name": "D6",
                    "midi": 86,
                    "time": 128.99507399999897,
                    "velocity": 0.48031496062992124,
                    "duration": 0.16474466666667809
                },
                {
                    "name": "F#5",
                    "midi": 78,
                    "time": 129.15981866666564,
                    "velocity": 0.4094488188976378,
                    "duration": 0.16474466666667809
                },
                {
                    "name": "F5",
                    "midi": 77,
                    "time": 129.32456333333232,
                    "velocity": 0.41732283464566927,
                    "duration": 0.16474466666667809
                },
                {
                    "name": "C#6",
                    "midi": 85,
                    "time": 129.489307999999,
                    "velocity": 0.4881889763779528,
                    "duration": 0.16474466666667809
                },
                {
                    "name": "F5",
                    "midi": 77,
                    "time": 129.65405266666568,
                    "velocity": 0.41732283464566927,
                    "duration": 0.16474466666667809
                },
                {
                    "name": "E5",
                    "midi": 76,
                    "time": 129.81879733333236,
                    "velocity": 0.41732283464566927,
                    "duration": 0.16474466666667809
                },
                {
                    "name": "C6",
                    "midi": 84,
                    "time": 129.98354199999903,
                    "velocity": 0.4881889763779528,
                    "duration": 0.16474466666667809
                },
                {
                    "name": "E5",
                    "midi": 76,
                    "time": 130.1482866666657,
                    "velocity": 0.4251968503937008,
                    "duration": 0.16474466666667809
                },
                {
                    "name": "D#5",
                    "midi": 75,
                    "time": 130.3130313333324,
                    "velocity": 0.4251968503937008,
                    "duration": 0.16474466666667809
                },
                {
                    "name": "F#4",
                    "midi": 66,
                    "time": 130.47777599999907,
                    "velocity": 0.6141732283464567,
                    "duration": 0.16474466666667809
                },
                {
                    "name": "A4",
                    "midi": 69,
                    "time": 130.64252066666575,
                    "velocity": 0.4251968503937008,
                    "duration": 0.16474466666667809
                },
                {
                    "name": "A#4",
                    "midi": 70,
                    "time": 130.80726533333242,
                    "velocity": 0.4251968503937008,
                    "duration": 0.16474466666667809
                },
                {
                    "name": "D5",
                    "midi": 74,
                    "time": 130.9720099999991,
                    "velocity": 0.5039370078740157,
                    "duration": 0.16474466666667809
                },
                {
                    "name": "D#5",
                    "midi": 75,
                    "time": 131.13675466666578,
                    "velocity": 0.4094488188976378,
                    "duration": 0.16474466666667809
                },
                {
                    "name": "F#5",
                    "midi": 78,
                    "time": 131.30149933333246,
                    "velocity": 0.4015748031496063,
                    "duration": 0.16474466666667809
                },
                {
                    "name": "A#5",
                    "midi": 82,
                    "time": 131.46624399999914,
                    "velocity": 0.4881889763779528,
                    "duration": 0.16474466666667809
                },
                {
                    "name": "D5",
                    "midi": 74,
                    "time": 131.63098866666581,
                    "velocity": 0.4015748031496063,
                    "duration": 0.16474466666667809
                },
                {
                    "name": "C#5",
                    "midi": 73,
                    "time": 131.7957333333325,
                    "velocity": 0.3937007874015748,
                    "duration": 0.16474466666667809
                },
                {
                    "name": "A5",
                    "midi": 81,
                    "time": 131.96047799999917,
                    "velocity": 0.48031496062992124,
                    "duration": 0.16474466666667809
                },
                {
                    "name": "C#5",
                    "midi": 73,
                    "time": 132.12522266666585,
                    "velocity": 0.3779527559055118,
                    "duration": 0.16474466666667809
                },
                {
                    "name": "C5",
                    "midi": 72,
                    "time": 132.28996733333253,
                    "velocity": 0.3779527559055118,
                    "duration": 0.16474466666667809
                },
                {
                    "name": "G#5",
                    "midi": 80,
                    "time": 132.4547119999992,
                    "velocity": 0.4566929133858268,
                    "duration": 0.16474466666667809
                },
                {
                    "name": "C5",
                    "midi": 72,
                    "time": 132.61945666666588,
                    "velocity": 0.3700787401574803,
                    "duration": 0.16474466666667809
                },
                {
                    "name": "B4",
                    "midi": 71,
                    "time": 132.78420133333256,
                    "velocity": 0.36220472440944884,
                    "duration": 0.16474466666667809
                },
                {
                    "name": "G5",
                    "midi": 79,
                    "time": 132.94894599999924,
                    "velocity": 0.4330708661417323,
                    "duration": 0.16474466666667809
                },
                {
                    "name": "B4",
                    "midi": 71,
                    "time": 133.11369066666592,
                    "velocity": 0.3543307086614173,
                    "duration": 0.16474466666667809
                },
                {
                    "name": "A#4",
                    "midi": 70,
                    "time": 133.2784353333326,
                    "velocity": 0.3464566929133858,
                    "duration": 0.16474466666667809
                },
                {
                    "name": "F#5",
                    "midi": 78,
                    "time": 133.44317999999927,
                    "velocity": 0.4330708661417323,
                    "duration": 0.16474466666667809
                },
                {
                    "name": "A#4",
                    "midi": 70,
                    "time": 133.60792466666595,
                    "velocity": 0.4015748031496063,
                    "duration": 0.16474466666667809
                },
                {
                    "name": "D#5",
                    "midi": 75,
                    "time": 133.77266933333263,
                    "velocity": 0.4015748031496063,
                    "duration": 0.16474466666667809
                },
                {
                    "name": "B5",
                    "midi": 83,
                    "time": 133.9374139999993,
                    "velocity": 0.3858267716535433,
                    "duration": 0.16474466666667809
                },
                {
                    "name": "G5",
                    "midi": 79,
                    "time": 134.10215866666599,
                    "velocity": 0.33858267716535434,
                    "duration": 0.16474466666667809
                },
                {
                    "name": "D5",
                    "midi": 74,
                    "time": 134.26690333333266,
                    "velocity": 0.33858267716535434,
                    "duration": 0.16474466666667809
                },
                {
                    "name": "A#5",
                    "midi": 82,
                    "time": 134.43164799999934,
                    "velocity": 0.3858267716535433,
                    "duration": 0.16474466666667809
                },
                {
                    "name": "F#5",
                    "midi": 78,
                    "time": 134.59639266666602,
                    "velocity": 0.33070866141732286,
                    "duration": 0.16474466666667809
                },
                {
                    "name": "C#5",
                    "midi": 73,
                    "time": 134.7611373333327,
                    "velocity": 0.33070866141732286,
                    "duration": 0.16474466666667809
                },
                {
                    "name": "A5",
                    "midi": 81,
                    "time": 134.92588199999938,
                    "velocity": 0.3858267716535433,
                    "duration": 0.16474466666667809
                },
                {
                    "name": "F5",
                    "midi": 77,
                    "time": 135.09062666666605,
                    "velocity": 0.33858267716535434,
                    "duration": 0.16474466666667809
                },
                {
                    "name": "C5",
                    "midi": 72,
                    "time": 135.25537133333273,
                    "velocity": 0.33858267716535434,
                    "duration": 0.16474466666667809
                },
                {
                    "name": "G#5",
                    "midi": 80,
                    "time": 135.4201159999994,
                    "velocity": 0.3858267716535433,
                    "duration": 0.16474466666667809
                },
                {
                    "name": "E5",
                    "midi": 76,
                    "time": 135.5848606666661,
                    "velocity": 0.33070866141732286,
                    "duration": 0.16474466666667809
                },
                {
                    "name": "B4",
                    "midi": 71,
                    "time": 135.74960533333277,
                    "velocity": 0.33070866141732286,
                    "duration": 0.16474466666667809
                },
                {
                    "name": "G5",
                    "midi": 79,
                    "time": 135.91434999999944,
                    "velocity": 0.3858267716535433,
                    "duration": 0.16474466666667809
                },
                {
                    "name": "B4",
                    "midi": 71,
                    "time": 136.07909466666612,
                    "velocity": 0.33858267716535434,
                    "duration": 0.16474466666667809
                },
                {
                    "name": "A4",
                    "midi": 69,
                    "time": 136.2438393333328,
                    "velocity": 0.33858267716535434,
                    "duration": 0.16474466666667809
                },
                {
                    "name": "F#5",
                    "midi": 78,
                    "time": 136.40858399999948,
                    "velocity": 0.3858267716535433,
                    "duration": 0.16474466666667809
                },
                {
                    "name": "C#5",
                    "midi": 73,
                    "time": 136.57332866666616,
                    "velocity": 0.33070866141732286,
                    "duration": 0.16474466666667809
                },
                {
                    "name": "F#4",
                    "midi": 66,
                    "time": 136.73807333333284,
                    "velocity": 0.33070866141732286,
                    "duration": 0.16474466666667809
                },
                {
                    "name": "B4",
                    "midi": 71,
                    "time": 136.9028179999995,
                    "velocity": 0.3858267716535433,
                    "duration": 0.16474466666667809
                },
                {
                    "name": "G4",
                    "midi": 67,
                    "time": 137.0675626666662,
                    "velocity": 0.3464566929133858,
                    "duration": 0.16474466666667809
                },
                {
                    "name": "D4",
                    "midi": 62,
                    "time": 137.23230733333287,
                    "velocity": 0.3464566929133858,
                    "duration": 0.16474466666667809
                },
                {
                    "name": "A#4",
                    "midi": 70,
                    "time": 137.39705199999955,
                    "velocity": 0.3858267716535433,
                    "duration": 0.16474466666667809
                },
                {
                    "name": "F#4",
                    "midi": 66,
                    "time": 137.56179666666623,
                    "velocity": 0.33070866141732286,
                    "duration": 0.16474466666667809
                },
                {
                    "name": "C#4",
                    "midi": 61,
                    "time": 137.7265413333329,
                    "velocity": 0.33070866141732286,
                    "duration": 0.16474466666667809
                },
                {
                    "name": "A4",
                    "midi": 69,
                    "time": 137.89128599999958,
                    "velocity": 0.3858267716535433,
                    "duration": 0.16474466666667809
                },
                {
                    "name": "F4",
                    "midi": 65,
                    "time": 138.05603066666626,
                    "velocity": 0.31496062992125984,
                    "duration": 0.16474466666667809
                },
                {
                    "name": "C4",
                    "midi": 60,
                    "time": 138.22077533333294,
                    "velocity": 0.31496062992125984,
                    "duration": 0.16474466666667809
                },
                {
                    "name": "G#4",
                    "midi": 68,
                    "time": 138.38551999999962,
                    "velocity": 0.3937007874015748,
                    "duration": 0.16474466666667809
                },
                {
                    "name": "E4",
                    "midi": 64,
                    "time": 138.5502646666663,
                    "velocity": 0.3464566929133858,
                    "duration": 0.16474466666667809
                },
                {
                    "name": "B3",
                    "midi": 59,
                    "time": 138.71500933333297,
                    "velocity": 0.3464566929133858,
                    "duration": 0.16474466666667809
                },
                {
                    "name": "G4",
                    "midi": 67,
                    "time": 138.87975399999965,
                    "velocity": 0.3937007874015748,
                    "duration": 0.16474466666667809
                },
                {
                    "name": "B3",
                    "midi": 59,
                    "time": 139.04449866666633,
                    "velocity": 0.33858267716535434,
                    "duration": 0.16474466666667809
                },
                {
                    "name": "A3",
                    "midi": 57,
                    "time": 139.209243333333,
                    "velocity": 0.33858267716535434,
                    "duration": 0.16474466666667809
                },
                {
                    "name": "F#4",
                    "midi": 66,
                    "time": 139.37398799999968,
                    "velocity": 0.3937007874015748,
                    "duration": 0.16474466666667809
                },
                {
                    "name": "A#3",
                    "midi": 58,
                    "time": 139.53873266666636,
                    "velocity": 0.33070866141732286,
                    "duration": 0.16474466666667809
                },
                {
                    "name": "F#4",
                    "midi": 66,
                    "time": 140.3624559999997,
                    "velocity": 0.33070866141732286,
                    "duration": 0.16474466666667809
                },
                {
                    "name": "F4",
                    "midi": 65,
                    "time": 140.52720066666637,
                    "velocity": 0.2992125984251969,
                    "duration": 0.16474466666667809
                },
                {
                    "name": "A#4",
                    "midi": 70,
                    "time": 140.69194533333305,
                    "velocity": 0.2992125984251969,
                    "duration": 0.16474466666667809
                },
                {
                    "name": "A#3",
                    "midi": 58,
                    "time": 140.85668999999973,
                    "velocity": 0.33070866141732286,
                    "duration": 0.16474466666667809
                },
                {
                    "name": "F#4",
                    "midi": 66,
                    "time": 140.85668999999973,
                    "velocity": 0.33070866141732286,
                    "duration": 0.16474466666667809
                },
                {
                    "name": "D#4",
                    "midi": 63,
                    "time": 140.85668999999973,
                    "velocity": 0.33070866141732286,
                    "duration": 0.16474466666667809
                },
                {
                    "name": "G#4",
                    "midi": 68,
                    "time": 141.0214346666664,
                    "velocity": 0.29133858267716534,
                    "duration": 0.16474466666667809
                },
                {
                    "name": "A4",
                    "midi": 69,
                    "time": 141.1861793333331,
                    "velocity": 0.2992125984251969,
                    "duration": 0.16474466666667809
                },
                {
                    "name": "A#4",
                    "midi": 70,
                    "time": 141.35092399999976,
                    "velocity": 0.33070866141732286,
                    "duration": 0.16474466666667809
                },
                {
                    "name": "D5",
                    "midi": 74,
                    "time": 141.51566866666644,
                    "velocity": 0.30708661417322836,
                    "duration": 0.16474466666667809
                },
                {
                    "name": "D#5",
                    "midi": 75,
                    "time": 141.68041333333312,
                    "velocity": 0.30708661417322836,
                    "duration": 0.16474466666667809
                },
                {
                    "name": "F#5",
                    "midi": 78,
                    "time": 141.8451579999998,
                    "velocity": 0.33070866141732286,
                    "duration": 0.16474466666667809
                },
                {
                    "name": "F5",
                    "midi": 77,
                    "time": 142.00990266666648,
                    "velocity": 0.31496062992125984,
                    "duration": 0.16474466666667809
                },
                {
                    "name": "A#5",
                    "midi": 82,
                    "time": 142.17464733333316,
                    "velocity": 0.31496062992125984,
                    "duration": 0.16474466666667809
                },
                {
                    "name": "A#4",
                    "midi": 70,
                    "time": 142.33939199999983,
                    "velocity": 0.33070866141732286,
                    "duration": 0.16474466666667809
                },
                {
                    "name": "D#5",
                    "midi": 75,
                    "time": 142.33939199999983,
                    "velocity": 0.33070866141732286,
                    "duration": 0.16474466666667809
                },
                {
                    "name": "F#5",
                    "midi": 78,
                    "time": 142.33939199999983,
                    "velocity": 0.33070866141732286,
                    "duration": 0.16474466666667809
                },
                {
                    "name": "G#5",
                    "midi": 80,
                    "time": 142.5041366666665,
                    "velocity": 0.2992125984251969,
                    "duration": 0.16474466666667809
                },
                {
                    "name": "A5",
                    "midi": 81,
                    "time": 142.6688813333332,
                    "velocity": 0.2992125984251969,
                    "duration": 0.16474466666667809
                },
                {
                    "name": "A#5",
                    "midi": 82,
                    "time": 142.83362599999987,
                    "velocity": 0.33070866141732286,
                    "duration": 0.16474466666667809
                },
                {
                    "name": "D6",
                    "midi": 86,
                    "time": 142.99837066666655,
                    "velocity": 0.2992125984251969,
                    "duration": 0.16474466666667809
                },
                {
                    "name": "D#6",
                    "midi": 87,
                    "time": 143.16311533333322,
                    "velocity": 0.2992125984251969,
                    "duration": 0.16474466666667809
                },
                {
                    "name": "F#6",
                    "midi": 90,
                    "time": 143.3278599999999,
                    "velocity": 0.33070866141732286,
                    "duration": 0.16474466666667809
                },
                {
                    "name": "F6",
                    "midi": 89,
                    "time": 143.49260466666658,
                    "velocity": 0.31496062992125984,
                    "duration": 0.16474466666667809
                },
                {
                    "name": "A#6",
                    "midi": 94,
                    "time": 143.65734933333326,
                    "velocity": 0.31496062992125984,
                    "duration": 0.16474466666667809
                },
                {
                    "name": "F#6",
                    "midi": 90,
                    "time": 143.82209399999994,
                    "velocity": 0.33070866141732286,
                    "duration": 0.16474466666667809
                },
                {
                    "name": "G6",
                    "midi": 91,
                    "time": 143.9868386666666,
                    "velocity": 0.3464566929133858,
                    "duration": 0.16474466666667809
                },
                {
                    "name": "G#6",
                    "midi": 92,
                    "time": 144.1515833333333,
                    "velocity": 0.3700787401574803,
                    "duration": 0.16474466666667809
                },
                {
                    "name": "A6",
                    "midi": 93,
                    "time": 144.31632799999997,
                    "velocity": 0.3779527559055118,
                    "duration": 0.16474466666667809
                },
                {
                    "name": "A#6",
                    "midi": 94,
                    "time": 144.48107266666665,
                    "velocity": 0.3937007874015748,
                    "duration": 0.16474466666667809
                },
                {
                    "name": "B6",
                    "midi": 95,
                    "time": 144.64581733333333,
                    "velocity": 0.41732283464566927,
                    "duration": 0.16474466666667809
                },
                {
                    "name": "C7",
                    "midi": 96,
                    "time": 144.810562,
                    "velocity": 0.4251968503937008,
                    "duration": 0.16474466666667809
                },
                {
                    "name": "C#7",
                    "midi": 97,
                    "time": 144.97530666666668,
                    "velocity": 0.4330708661417323,
                    "duration": 0.16474466666667809
                },
                {
                    "name": "D7",
                    "midi": 98,
                    "time": 145.14005133333336,
                    "velocity": 0.4409448818897638,
                    "duration": 0.16474466666667809
                },
                {
                    "name": "D#7",
                    "midi": 99,
                    "time": 145.30479600000004,
                    "velocity": 0.5118110236220472,
                    "duration": 0.49423400000000584
                },
                {
                    "name": "F#6",
                    "midi": 90,
                    "time": 145.79903000000004,
                    "velocity": 0.44881889763779526,
                    "duration": 0.24711700000000292
                },
                {
                    "name": "D#6",
                    "midi": 87,
                    "time": 145.79903000000004,
                    "velocity": 0.44881889763779526,
                    "duration": 0.24711700000000292
                },
                {
                    "name": "F#5",
                    "midi": 78,
                    "time": 146.29326400000005,
                    "velocity": 0.41732283464566927,
                    "duration": 0.24711700000000292
                },
                {
                    "name": "D#5",
                    "midi": 75,
                    "time": 146.29326400000005,
                    "velocity": 0.41732283464566927,
                    "duration": 0.24711700000000292
                },
                {
                    "name": "A#2",
                    "midi": 46,
                    "time": 149.75290200000006,
                    "velocity": 0.4251968503937008,
                    "duration": 0.16474466666667809
                },
                {
                    "name": "B2",
                    "midi": 47,
                    "time": 149.91764666666674,
                    "velocity": 0.3779527559055118,
                    "duration": 0.16474466666667809
                },
                {
                    "name": "A2",
                    "midi": 45,
                    "time": 150.08239133333342,
                    "velocity": 0.36220472440944884,
                    "duration": 0.16474466666667809
                },
                {
                    "name": "A#2",
                    "midi": 46,
                    "time": 150.2471360000001,
                    "velocity": 0.4251968503937008,
                    "duration": 0.49423400000000584
                },
                {
                    "name": "A#2",
                    "midi": 46,
                    "time": 151.2356040000001,
                    "velocity": 0.36220472440944884,
                    "duration": 0.16474466666667809
                },
                {
                    "name": "B2",
                    "midi": 47,
                    "time": 151.4003486666668,
                    "velocity": 0.31496062992125984,
                    "duration": 0.16474466666667809
                },
                {
                    "name": "A2",
                    "midi": 45,
                    "time": 151.56509333333346,
                    "velocity": 0.3228346456692913,
                    "duration": 0.16474466666667809
                },
                {
                    "name": "A#2",
                    "midi": 46,
                    "time": 151.72983800000014,
                    "velocity": 0.3700787401574803,
                    "duration": 0.49423400000000584
                },
                {
                    "name": "A#2",
                    "midi": 46,
                    "time": 153.70677400000014,
                    "velocity": 0.2677165354330709,
                    "duration": 0.19769360000000802
                },
                {
                    "name": "B2",
                    "midi": 47,
                    "time": 153.87151866666682,
                    "velocity": 0.25196850393700787,
                    "duration": 0.1976935999999796
                },
                {
                    "name": "A2",
                    "midi": 45,
                    "time": 154.03626333333347,
                    "velocity": 0.2440944881889764,
                    "duration": 0.1976935999999796
                },
                {
                    "name": "A#2",
                    "midi": 46,
                    "time": 154.20100800000012,
                    "velocity": 0.2755905511811024,
                    "duration": 0.1976935999999796
                },
                {
                    "name": "B2",
                    "midi": 47,
                    "time": 154.36575266666676,
                    "velocity": 0.2440944881889764,
                    "duration": 0.1976935999999796
                },
                {
                    "name": "A2",
                    "midi": 45,
                    "time": 154.53049733333341,
                    "velocity": 0.2440944881889764,
                    "duration": 0.1976935999999796
                },
                {
                    "name": "A#2",
                    "midi": 46,
                    "time": 154.69524200000006,
                    "velocity": 0.3228346456692913,
                    "duration": 0.49423400000000584
                },
                {
                    "name": "A#2",
                    "midi": 46,
                    "time": 157.16641200000007,
                    "velocity": 0.25196850393700787,
                    "duration": 2.9654040000000066
                }
            ],
            "controlChanges": {},
            "id": 1,
            "name": "Piano right",
            "instrumentNumber": 0,
            "instrument": "acoustic grand piano",
            "instrumentFamily": "piano",
            "channelNumber": 0,
            "isPercussion": false
        },
        {
            "startTime": 1.482702,
            "duration": 159.63758200000075,
            "length": 489,
            "notes": [
                {
                    "name": "C5",
                    "midi": 72,
                    "time": 1.482702,
                    "velocity": 0.2677165354330709,
                    "duration": 1.482702
                },
                {
                    "name": "A4",
                    "midi": 69,
                    "time": 1.482702,
                    "velocity": 0.2204724409448819,
                    "duration": 1.482702
                },
                {
                    "name": "F#3",
                    "midi": 54,
                    "time": 4.448106,
                    "velocity": 0.2204724409448819,
                    "duration": 4.448106
                },
                {
                    "name": "D#3",
                    "midi": 51,
                    "time": 4.448106,
                    "velocity": 0.18110236220472442,
                    "duration": 4.448106
                },
                {
                    "name": "F#5",
                    "midi": 78,
                    "time": 11.861616,
                    "velocity": 0.7007874015748031,
                    "duration": 2.9654039999999995
                },
                {
                    "name": "F#4",
                    "midi": 66,
                    "time": 11.861616,
                    "velocity": 0.7007874015748031,
                    "duration": 2.9654039999999995
                },
                {
                    "name": "F#3",
                    "midi": 54,
                    "time": 14.82702,
                    "velocity": 0.6692913385826772,
                    "duration": 1.9769360000000002
                },
                {
                    "name": "F#4",
                    "midi": 66,
                    "time": 14.82702,
                    "velocity": 0.7322834645669292,
                    "duration": 1.9769360000000002
                },
                {
                    "name": "A#1",
                    "midi": 34,
                    "time": 16.803956,
                    "velocity": 0.5590551181102362,
                    "duration": 3.9538720000000005
                },
                {
                    "name": "A#2",
                    "midi": 46,
                    "time": 16.803956,
                    "velocity": 0.6141732283464567,
                    "duration": 3.9538720000000005
                },
                {
                    "name": "F#6",
                    "midi": 90,
                    "time": 23.723232,
                    "velocity": 0.7874015748031497,
                    "duration": 0.12355850000000146
                },
                {
                    "name": "F#5",
                    "midi": 78,
                    "time": 24.217466,
                    "velocity": 0.6850393700787402,
                    "duration": 0.12355850000000146
                },
                {
                    "name": "C5",
                    "midi": 72,
                    "time": 24.711700000000004,
                    "velocity": 0.6692913385826772,
                    "duration": 0.12355850000000146
                },
                {
                    "name": "F#5",
                    "midi": 78,
                    "time": 25.205934000000006,
                    "velocity": 0.7716535433070866,
                    "duration": 0.12355850000000146
                },
                {
                    "name": "D#4",
                    "midi": 63,
                    "time": 25.70016800000001,
                    "velocity": 0.6377952755905512,
                    "duration": 0.12355850000000146
                },
                {
                    "name": "F#4",
                    "midi": 66,
                    "time": 26.68863600000001,
                    "velocity": 0.7244094488188977,
                    "duration": 0.49423399999999873
                },
                {
                    "name": "F#3",
                    "midi": 54,
                    "time": 26.68863600000001,
                    "velocity": 0.7244094488188977,
                    "duration": 0.49423399999999873
                },
                {
                    "name": "A3",
                    "midi": 57,
                    "time": 27.18287000000001,
                    "velocity": 0.5826771653543307,
                    "duration": 0.49423399999999873
                },
                {
                    "name": "A2",
                    "midi": 45,
                    "time": 27.18287000000001,
                    "velocity": 0.5826771653543307,
                    "duration": 0.49423399999999873
                },
                {
                    "name": "C#2",
                    "midi": 37,
                    "time": 28.171338000000006,
                    "velocity": 0.6771653543307087,
                    "duration": 0.49423399999999873
                },
                {
                    "name": "C#3",
                    "midi": 49,
                    "time": 28.171338000000006,
                    "velocity": 0.6771653543307087,
                    "duration": 0.49423399999999873
                },
                {
                    "name": "F#2",
                    "midi": 42,
                    "time": 28.665572000000004,
                    "velocity": 0.5511811023622047,
                    "duration": 0.49423399999999873
                },
                {
                    "name": "F#1",
                    "midi": 30,
                    "time": 28.665572000000004,
                    "velocity": 0.5511811023622047,
                    "duration": 0.49423399999999873
                },
                {
                    "name": "C#4",
                    "midi": 61,
                    "time": 30.148274000000004,
                    "velocity": 0.5039370078740157,
                    "duration": 1.4827019999999997
                },
                {
                    "name": "F#4",
                    "midi": 66,
                    "time": 30.148274000000004,
                    "velocity": 0.5039370078740157,
                    "duration": 1.4827019999999997
                },
                {
                    "name": "C#5",
                    "midi": 73,
                    "time": 30.148274000000004,
                    "velocity": 0.5039370078740157,
                    "duration": 1.4827019999999997
                },
                {
                    "name": "F6",
                    "midi": 89,
                    "time": 33.607912000000006,
                    "velocity": 0.3543307086614173,
                    "duration": 0.49423399999999873
                },
                {
                    "name": "D6",
                    "midi": 86,
                    "time": 33.607912000000006,
                    "velocity": 0.3543307086614173,
                    "duration": 0.49423399999999873
                },
                {
                    "name": "D#6",
                    "midi": 87,
                    "time": 34.102146000000005,
                    "velocity": 0.3228346456692913,
                    "duration": 0.49423399999999873
                },
                {
                    "name": "A#6",
                    "midi": 94,
                    "time": 34.102146000000005,
                    "velocity": 0.3228346456692913,
                    "duration": 0.49423399999999873
                },
                {
                    "name": "F6",
                    "midi": 89,
                    "time": 34.59638,
                    "velocity": 0.3543307086614173,
                    "duration": 0.49423399999999873
                },
                {
                    "name": "D6",
                    "midi": 86,
                    "time": 34.59638,
                    "velocity": 0.3543307086614173,
                    "duration": 0.49423399999999873
                },
                {
                    "name": "D#6",
                    "midi": 87,
                    "time": 35.090614,
                    "velocity": 0.31496062992125984,
                    "duration": 0.49423399999999873
                },
                {
                    "name": "A#6",
                    "midi": 94,
                    "time": 35.090614,
                    "velocity": 0.31496062992125984,
                    "duration": 0.49423399999999873
                },
                {
                    "name": "F6",
                    "midi": 89,
                    "time": 35.584848,
                    "velocity": 0.3543307086614173,
                    "duration": 0.49423399999999873
                },
                {
                    "name": "D6",
                    "midi": 86,
                    "time": 35.584848,
                    "velocity": 0.3543307086614173,
                    "duration": 0.49423399999999873
                },
                {
                    "name": "A#0",
                    "midi": 22,
                    "time": 36.079082,
                    "velocity": 0.6692913385826772,
                    "duration": 0.9884679999999975
                },
                {
                    "name": "A#1",
                    "midi": 34,
                    "time": 36.079082,
                    "velocity": 0.6692913385826772,
                    "duration": 0.9884679999999975
                },
                {
                    "name": "B1",
                    "midi": 35,
                    "time": 37.06755,
                    "velocity": 0.6771653543307087,
                    "duration": 1.976936000000002
                },
                {
                    "name": "B2",
                    "midi": 47,
                    "time": 37.06755,
                    "velocity": 0.6771653543307087,
                    "duration": 1.976936000000002
                },
                {
                    "name": "C#2",
                    "midi": 37,
                    "time": 39.044486,
                    "velocity": 0.6692913385826772,
                    "duration": 0.9884679999999975
                },
                {
                    "name": "C#3",
                    "midi": 49,
                    "time": 39.044486,
                    "velocity": 0.6692913385826772,
                    "duration": 0.9884679999999975
                },
                {
                    "name": "D3",
                    "midi": 50,
                    "time": 40.032954,
                    "velocity": 0.7086614173228346,
                    "duration": 1.4827020000000033
                },
                {
                    "name": "D4",
                    "midi": 62,
                    "time": 40.032954,
                    "velocity": 0.7086614173228346,
                    "duration": 1.4827020000000033
                },
                {
                    "name": "D#4",
                    "midi": 63,
                    "time": 41.515656,
                    "velocity": 0.6850393700787402,
                    "duration": 0.24711700000000292
                },
                {
                    "name": "D#3",
                    "midi": 51,
                    "time": 41.515656,
                    "velocity": 0.6850393700787402,
                    "duration": 0.24711700000000292
                },
                {
                    "name": "G5",
                    "midi": 79,
                    "time": 42.009890000000006,
                    "velocity": 0.28346456692913385,
                    "duration": 0.24711700000000292
                },
                {
                    "name": "A#5",
                    "midi": 82,
                    "time": 42.009890000000006,
                    "velocity": 0.33858267716535434,
                    "duration": 0.24711700000000292
                },
                {
                    "name": "D#5",
                    "midi": 75,
                    "time": 42.009890000000006,
                    "velocity": 0.28346456692913385,
                    "duration": 0.24711700000000292
                },
                {
                    "name": "A#4",
                    "midi": 70,
                    "time": 42.009890000000006,
                    "velocity": 0.28346456692913385,
                    "duration": 0.24711700000000292
                },
                {
                    "name": "B4",
                    "midi": 71,
                    "time": 42.50412400000001,
                    "velocity": 0.2204724409448819,
                    "duration": 0.24711700000000292
                },
                {
                    "name": "E5",
                    "midi": 76,
                    "time": 42.50412400000001,
                    "velocity": 0.2204724409448819,
                    "duration": 0.24711700000000292
                },
                {
                    "name": "G#5",
                    "midi": 80,
                    "time": 42.50412400000001,
                    "velocity": 0.2204724409448819,
                    "duration": 0.24711700000000292
                },
                {
                    "name": "B5",
                    "midi": 83,
                    "time": 42.50412400000001,
                    "velocity": 0.2677165354330709,
                    "duration": 0.24711700000000292
                },
                {
                    "name": "D#4",
                    "midi": 63,
                    "time": 42.99835800000002,
                    "velocity": 0.23622047244094488,
                    "duration": 0.24711700000000292
                },
                {
                    "name": "G#5",
                    "midi": 80,
                    "time": 43.49259200000002,
                    "velocity": 0.3543307086614173,
                    "duration": 0.24711700000000292
                },
                {
                    "name": "E5",
                    "midi": 76,
                    "time": 43.49259200000002,
                    "velocity": 0.2992125984251969,
                    "duration": 0.24711700000000292
                },
                {
                    "name": "C#5",
                    "midi": 73,
                    "time": 43.49259200000002,
                    "velocity": 0.2992125984251969,
                    "duration": 0.24711700000000292
                },
                {
                    "name": "G#4",
                    "midi": 68,
                    "time": 43.49259200000002,
                    "velocity": 0.2992125984251969,
                    "duration": 0.24711700000000292
                },
                {
                    "name": "A#4",
                    "midi": 70,
                    "time": 43.98682600000003,
                    "velocity": 0.2204724409448819,
                    "duration": 0.24711700000000292
                },
                {
                    "name": "D#5",
                    "midi": 75,
                    "time": 43.98682600000003,
                    "velocity": 0.2204724409448819,
                    "duration": 0.24711700000000292
                },
                {
                    "name": "F#5",
                    "midi": 78,
                    "time": 43.98682600000003,
                    "velocity": 0.2204724409448819,
                    "duration": 0.24711700000000292
                },
                {
                    "name": "A#5",
                    "midi": 82,
                    "time": 43.98682600000003,
                    "velocity": 0.2677165354330709,
                    "duration": 0.24711700000000292
                },
                {
                    "name": "D#4",
                    "midi": 63,
                    "time": 44.481060000000035,
                    "velocity": 0.23622047244094488,
                    "duration": 0.24711700000000292
                },
                {
                    "name": "F#5",
                    "midi": 78,
                    "time": 44.97529400000004,
                    "velocity": 0.3543307086614173,
                    "duration": 0.24711700000000292
                },
                {
                    "name": "D#5",
                    "midi": 75,
                    "time": 44.97529400000004,
                    "velocity": 0.2992125984251969,
                    "duration": 0.24711700000000292
                },
                {
                    "name": "B4",
                    "midi": 71,
                    "time": 44.97529400000004,
                    "velocity": 0.2992125984251969,
                    "duration": 0.24711700000000292
                },
                {
                    "name": "F#4",
                    "midi": 66,
                    "time": 44.97529400000004,
                    "velocity": 0.2992125984251969,
                    "duration": 0.24711700000000292
                },
                {
                    "name": "G#4",
                    "midi": 68,
                    "time": 45.46952800000005,
                    "velocity": 0.2204724409448819,
                    "duration": 0.24711700000000292
                },
                {
                    "name": "C#5",
                    "midi": 73,
                    "time": 45.46952800000005,
                    "velocity": 0.2204724409448819,
                    "duration": 0.24711700000000292
                },
                {
                    "name": "E5",
                    "midi": 76,
                    "time": 45.46952800000005,
                    "velocity": 0.2204724409448819,
                    "duration": 0.24711700000000292
                },
                {
                    "name": "G#5",
                    "midi": 80,
                    "time": 45.46952800000005,
                    "velocity": 0.2677165354330709,
                    "duration": 0.24711700000000292
                },
                {
                    "name": "D#4",
                    "midi": 63,
                    "time": 45.96376200000005,
                    "velocity": 0.25984251968503935,
                    "duration": 0.24711700000000292
                },
                {
                    "name": "E4",
                    "midi": 64,
                    "time": 46.45799600000006,
                    "velocity": 0.30708661417322836,
                    "duration": 0.24711700000000292
                },
                {
                    "name": "G#4",
                    "midi": 68,
                    "time": 46.45799600000006,
                    "velocity": 0.25984251968503935,
                    "duration": 0.24711700000000292
                },
                {
                    "name": "B4",
                    "midi": 71,
                    "time": 46.45799600000006,
                    "velocity": 0.25984251968503935,
                    "duration": 0.24711700000000292
                },
                {
                    "name": "E5",
                    "midi": 76,
                    "time": 46.45799600000006,
                    "velocity": 0.30708661417322836,
                    "duration": 0.24711700000000292
                },
                {
                    "name": "F#5",
                    "midi": 78,
                    "time": 46.952230000000064,
                    "velocity": 0.2677165354330709,
                    "duration": 0.24711700000000292
                },
                {
                    "name": "D#5",
                    "midi": 75,
                    "time": 46.952230000000064,
                    "velocity": 0.18110236220472442,
                    "duration": 0.24711700000000292
                },
                {
                    "name": "A#4",
                    "midi": 70,
                    "time": 46.952230000000064,
                    "velocity": 0.18110236220472442,
                    "duration": 0.24711700000000292
                },
                {
                    "name": "F#4",
                    "midi": 66,
                    "time": 46.952230000000064,
                    "velocity": 0.18110236220472442,
                    "duration": 0.24711700000000292
                },
                {
                    "name": "F#3",
                    "midi": 54,
                    "time": 47.94069800000007,
                    "velocity": 0.6692913385826772,
                    "duration": 0.49423399999999873
                },
                {
                    "name": "B2",
                    "midi": 47,
                    "time": 48.43493200000007,
                    "velocity": 0.6062992125984252,
                    "duration": 0.49423399999999873
                },
                {
                    "name": "D2",
                    "midi": 38,
                    "time": 48.929166000000066,
                    "velocity": 0.6771653543307087,
                    "duration": 0.49423399999999873
                },
                {
                    "name": "F#2",
                    "midi": 42,
                    "time": 49.423400000000065,
                    "velocity": 0.5984251968503937,
                    "duration": 0.49423399999999873
                },
                {
                    "name": "A1",
                    "midi": 33,
                    "time": 49.917634000000064,
                    "velocity": 0.7007874015748031,
                    "duration": 0.49423399999999873
                },
                {
                    "name": "D#1",
                    "midi": 27,
                    "time": 50.41186800000006,
                    "velocity": 0.6299212598425197,
                    "duration": 2.9654039999999853
                },
                {
                    "name": "D#2",
                    "midi": 39,
                    "time": 50.41186800000006,
                    "velocity": 0.6299212598425197,
                    "duration": 2.9654039999999853
                },
                {
                    "name": "A2",
                    "midi": 45,
                    "time": 50.90610200000006,
                    "velocity": 0.7401574803149606,
                    "duration": 0.9884679999999975
                },
                {
                    "name": "A3",
                    "midi": 57,
                    "time": 50.90610200000006,
                    "velocity": 0.7401574803149606,
                    "duration": 0.9884679999999975
                },
                {
                    "name": "F#3",
                    "midi": 54,
                    "time": 51.89457000000006,
                    "velocity": 0.7637795275590551,
                    "duration": 1.482701999999989
                },
                {
                    "name": "F#4",
                    "midi": 66,
                    "time": 51.89457000000006,
                    "velocity": 0.7637795275590551,
                    "duration": 0.9884679999999975
                },
                {
                    "name": "F#4",
                    "midi": 66,
                    "time": 52.883038000000056,
                    "velocity": 0.5196850393700787,
                    "duration": 0.16474466666666387
                },
                {
                    "name": "A#3",
                    "midi": 58,
                    "time": 53.04778266666672,
                    "velocity": 0.47244094488188976,
                    "duration": 0.16474466666666387
                },
                {
                    "name": "D#3",
                    "midi": 51,
                    "time": 53.212527333333384,
                    "velocity": 0.47244094488188976,
                    "duration": 2.141680666666659
                },
                {
                    "name": "B3",
                    "midi": 59,
                    "time": 53.37727200000005,
                    "velocity": 0.5039370078740157,
                    "duration": 0.49423399999999873
                },
                {
                    "name": "C4",
                    "midi": 60,
                    "time": 53.871506000000046,
                    "velocity": 0.5039370078740157,
                    "duration": 0.49423399999999873
                },
                {
                    "name": "C#4",
                    "midi": 61,
                    "time": 54.365740000000045,
                    "velocity": 0.47244094488188976,
                    "duration": 0.49423399999999873
                },
                {
                    "name": "D4",
                    "midi": 62,
                    "time": 54.859974000000044,
                    "velocity": 0.47244094488188976,
                    "duration": 0.49423399999999873
                },
                {
                    "name": "B3",
                    "midi": 59,
                    "time": 55.35420800000004,
                    "velocity": 0.4881889763779528,
                    "duration": 1.9769359999999807
                },
                {
                    "name": "D#4",
                    "midi": 63,
                    "time": 55.35420800000004,
                    "velocity": 0.4094488188976378,
                    "duration": 0.16474466666666387
                },
                {
                    "name": "F4",
                    "midi": 65,
                    "time": 55.518952666666706,
                    "velocity": 0.3779527559055118,
                    "duration": 0.16474466666666387
                },
                {
                    "name": "G4",
                    "midi": 67,
                    "time": 55.68369733333337,
                    "velocity": 0.3858267716535433,
                    "duration": 0.16474466666666387
                },
                {
                    "name": "G#4",
                    "midi": 68,
                    "time": 55.848442000000034,
                    "velocity": 0.4330708661417323,
                    "duration": 0.16474466666666387
                },
                {
                    "name": "A#4",
                    "midi": 70,
                    "time": 56.0131866666667,
                    "velocity": 0.3858267716535433,
                    "duration": 0.16474466666666387
                },
                {
                    "name": "B4",
                    "midi": 71,
                    "time": 56.17793133333336,
                    "velocity": 0.3858267716535433,
                    "duration": 0.16474466666666387
                },
                {
                    "name": "G#3",
                    "midi": 56,
                    "time": 56.342676000000026,
                    "velocity": 0.4881889763779528,
                    "duration": 0.49423399999999873
                },
                {
                    "name": "D#3",
                    "midi": 51,
                    "time": 56.342676000000026,
                    "velocity": 0.4881889763779528,
                    "duration": 1.976935999999995
                },
                {
                    "name": "A#3",
                    "midi": 58,
                    "time": 56.836910000000024,
                    "velocity": 0.4566929133858268,
                    "duration": 0.49423399999999873
                },
                {
                    "name": "B3",
                    "midi": 59,
                    "time": 57.33114400000002,
                    "velocity": 0.4330708661417323,
                    "duration": 0.49423399999999873
                },
                {
                    "name": "D4",
                    "midi": 62,
                    "time": 57.82537800000002,
                    "velocity": 0.4094488188976378,
                    "duration": 0.49423399999999873
                },
                {
                    "name": "B3",
                    "midi": 59,
                    "time": 58.31961200000002,
                    "velocity": 0.3858267716535433,
                    "duration": 0.9884679999999832
                },
                {
                    "name": "D#4",
                    "midi": 63,
                    "time": 58.31961200000002,
                    "velocity": 0.3858267716535433,
                    "duration": 0.16474466666666387
                },
                {
                    "name": "E4",
                    "midi": 64,
                    "time": 58.484356666666685,
                    "velocity": 0.3779527559055118,
                    "duration": 0.16474466666666387
                },
                {
                    "name": "F4",
                    "midi": 65,
                    "time": 58.64910133333335,
                    "velocity": 0.3700787401574803,
                    "duration": 0.16474466666666387
                },
                {
                    "name": "F#4",
                    "midi": 66,
                    "time": 58.81384600000001,
                    "velocity": 0.36220472440944884,
                    "duration": 0.16474466666666387
                },
                {
                    "name": "G#4",
                    "midi": 68,
                    "time": 58.978590666666676,
                    "velocity": 0.3543307086614173,
                    "duration": 0.16474466666666387
                },
                {
                    "name": "A4",
                    "midi": 69,
                    "time": 59.14333533333334,
                    "velocity": 0.3464566929133858,
                    "duration": 0.16474466666666387
                },
                {
                    "name": "A#3",
                    "midi": 58,
                    "time": 59.308080000000004,
                    "velocity": 0.30708661417322836,
                    "duration": 0.49423399999999873
                },
                {
                    "name": "D#4",
                    "midi": 63,
                    "time": 59.308080000000004,
                    "velocity": 0.30708661417322836,
                    "duration": 0.49423399999999873
                },
                {
                    "name": "F#4",
                    "midi": 66,
                    "time": 59.308080000000004,
                    "velocity": 0.36220472440944884,
                    "duration": 0.49423399999999873
                },
                {
                    "name": "C5",
                    "midi": 72,
                    "time": 60.296548,
                    "velocity": 0.3543307086614173,
                    "duration": 0.24711700000000292
                },
                {
                    "name": "G4",
                    "midi": 67,
                    "time": 60.296548,
                    "velocity": 0.2992125984251969,
                    "duration": 0.24711700000000292
                },
                {
                    "name": "D#4",
                    "midi": 63,
                    "time": 60.296548,
                    "velocity": 0.2992125984251969,
                    "duration": 0.24711700000000292
                },
                {
                    "name": "B4",
                    "midi": 71,
                    "time": 60.79078200000001,
                    "velocity": 0.3543307086614173,
                    "duration": 0.24711700000000292
                },
                {
                    "name": "G#4",
                    "midi": 68,
                    "time": 60.79078200000001,
                    "velocity": 0.2992125984251969,
                    "duration": 0.24711700000000292
                },
                {
                    "name": "D#4",
                    "midi": 63,
                    "time": 60.79078200000001,
                    "velocity": 0.2992125984251969,
                    "duration": 0.24711700000000292
                },
                {
                    "name": "A#3",
                    "midi": 58,
                    "time": 60.79078200000001,
                    "velocity": 0.2992125984251969,
                    "duration": 0.24711700000000292
                },
                {
                    "name": "C5",
                    "midi": 72,
                    "time": 61.77925000000001,
                    "velocity": 0.3543307086614173,
                    "duration": 0.24711700000000292
                },
                {
                    "name": "G4",
                    "midi": 67,
                    "time": 61.77925000000001,
                    "velocity": 0.2992125984251969,
                    "duration": 0.24711700000000292
                },
                {
                    "name": "E4",
                    "midi": 64,
                    "time": 61.77925000000001,
                    "velocity": 0.2992125984251969,
                    "duration": 0.24711700000000292
                },
                {
                    "name": "B4",
                    "midi": 71,
                    "time": 62.27348400000002,
                    "velocity": 0.3700787401574803,
                    "duration": 0.24711700000000292
                },
                {
                    "name": "G#4",
                    "midi": 68,
                    "time": 62.27348400000002,
                    "velocity": 0.30708661417322836,
                    "duration": 0.24711700000000292
                },
                {
                    "name": "D#4",
                    "midi": 63,
                    "time": 62.27348400000002,
                    "velocity": 0.30708661417322836,
                    "duration": 0.24711700000000292
                },
                {
                    "name": "A#3",
                    "midi": 58,
                    "time": 62.27348400000002,
                    "velocity": 0.30708661417322836,
                    "duration": 0.24711700000000292
                },
                {
                    "name": "D#4",
                    "midi": 63,
                    "time": 63.26195200000002,
                    "velocity": 0.2677165354330709,
                    "duration": 0.1853377500000022
                },
                {
                    "name": "A4",
                    "midi": 69,
                    "time": 63.26195200000002,
                    "velocity": 0.2677165354330709,
                    "duration": 0.1853377500000022
                },
                {
                    "name": "C5",
                    "midi": 72,
                    "time": 63.26195200000002,
                    "velocity": 0.3228346456692913,
                    "duration": 0.1853377500000022
                },
                {
                    "name": "A#3",
                    "midi": 58,
                    "time": 63.75618600000002,
                    "velocity": 0.30708661417322836,
                    "duration": 0.1853377500000022
                },
                {
                    "name": "D#4",
                    "midi": 63,
                    "time": 63.75618600000002,
                    "velocity": 0.30708661417322836,
                    "duration": 0.1853377500000022
                },
                {
                    "name": "G4",
                    "midi": 67,
                    "time": 63.75618600000002,
                    "velocity": 0.30708661417322836,
                    "duration": 0.1853377500000022
                },
                {
                    "name": "A#4",
                    "midi": 70,
                    "time": 63.75618600000002,
                    "velocity": 0.36220472440944884,
                    "duration": 0.1853377500000022
                },
                {
                    "name": "D#4",
                    "midi": 63,
                    "time": 64.25042000000002,
                    "velocity": 0.28346456692913385,
                    "duration": 0.1853377500000022
                },
                {
                    "name": "A4",
                    "midi": 69,
                    "time": 64.25042000000002,
                    "velocity": 0.28346456692913385,
                    "duration": 0.1853377500000022
                },
                {
                    "name": "C5",
                    "midi": 72,
                    "time": 64.25042000000002,
                    "velocity": 0.33858267716535434,
                    "duration": 0.1853377500000022
                },
                {
                    "name": "A#3",
                    "midi": 58,
                    "time": 64.74465400000003,
                    "velocity": 0.30708661417322836,
                    "duration": 0.1853377500000022
                },
                {
                    "name": "D4",
                    "midi": 62,
                    "time": 64.74465400000003,
                    "velocity": 0.30708661417322836,
                    "duration": 0.1853377500000022
                },
                {
                    "name": "A#4",
                    "midi": 70,
                    "time": 64.74465400000003,
                    "velocity": 0.36220472440944884,
                    "duration": 0.1853377500000022
                },
                {
                    "name": "D#5",
                    "midi": 75,
                    "time": 65.23888800000003,
                    "velocity": 0.4094488188976378,
                    "duration": 0.49423400000000584
                },
                {
                    "name": "A#4",
                    "midi": 70,
                    "time": 65.23888800000003,
                    "velocity": 0.3464566929133858,
                    "duration": 0.49423400000000584
                },
                {
                    "name": "D#4",
                    "midi": 63,
                    "time": 65.23888800000003,
                    "velocity": 0.3464566929133858,
                    "duration": 0.49423400000000584
                },
                {
                    "name": "D#6",
                    "midi": 87,
                    "time": 65.73312200000004,
                    "velocity": 0.3858267716535433,
                    "duration": 0.12355850000000146
                },
                {
                    "name": "D#5",
                    "midi": 75,
                    "time": 65.98023900000004,
                    "velocity": 0.3228346456692913,
                    "duration": 0.12355850000000146
                },
                {
                    "name": "D#6",
                    "midi": 87,
                    "time": 66.22735600000004,
                    "velocity": 0.3858267716535433,
                    "duration": 0.12355850000000146
                },
                {
                    "name": "D#5",
                    "midi": 75,
                    "time": 66.47447300000005,
                    "velocity": 0.33070866141732286,
                    "duration": 0.12355850000000146
                },
                {
                    "name": "D#6",
                    "midi": 87,
                    "time": 66.72159000000005,
                    "velocity": 0.3858267716535433,
                    "duration": 0.12355850000000146
                },
                {
                    "name": "D#5",
                    "midi": 75,
                    "time": 66.96870700000005,
                    "velocity": 0.3228346456692913,
                    "duration": 0.12355850000000146
                },
                {
                    "name": "D#6",
                    "midi": 87,
                    "time": 67.21582400000005,
                    "velocity": 0.3858267716535433,
                    "duration": 0.12355850000000146
                },
                {
                    "name": "D#5",
                    "midi": 75,
                    "time": 67.46294100000006,
                    "velocity": 0.31496062992125984,
                    "duration": 0.12355850000000146
                },
                {
                    "name": "D#6",
                    "midi": 87,
                    "time": 67.71005800000006,
                    "velocity": 0.3858267716535433,
                    "duration": 0.12355850000000146
                },
                {
                    "name": "D#5",
                    "midi": 75,
                    "time": 67.95717500000006,
                    "velocity": 0.33070866141732286,
                    "duration": 0.12355850000000146
                },
                {
                    "name": "D#6",
                    "midi": 87,
                    "time": 68.20429200000007,
                    "velocity": 0.3858267716535433,
                    "duration": 0.12355850000000146
                },
                {
                    "name": "D#5",
                    "midi": 75,
                    "time": 68.45140900000007,
                    "velocity": 0.3228346456692913,
                    "duration": 0.12355850000000146
                },
                {
                    "name": "D#5",
                    "midi": 75,
                    "time": 68.69852600000007,
                    "velocity": 0.3858267716535433,
                    "duration": 0.12355850000000146
                },
                {
                    "name": "D#4",
                    "midi": 63,
                    "time": 68.94564300000008,
                    "velocity": 0.31496062992125984,
                    "duration": 0.12355850000000146
                },
                {
                    "name": "D#5",
                    "midi": 75,
                    "time": 69.19276000000008,
                    "velocity": 0.3858267716535433,
                    "duration": 0.12355850000000146
                },
                {
                    "name": "D#4",
                    "midi": 63,
                    "time": 69.43987700000008,
                    "velocity": 0.33070866141732286,
                    "duration": 0.12355850000000146
                },
                {
                    "name": "D#5",
                    "midi": 75,
                    "time": 69.68699400000008,
                    "velocity": 0.3858267716535433,
                    "duration": 0.12355850000000146
                },
                {
                    "name": "D#4",
                    "midi": 63,
                    "time": 69.93411100000009,
                    "velocity": 0.33070866141732286,
                    "duration": 0.12355850000000146
                },
                {
                    "name": "D#5",
                    "midi": 75,
                    "time": 70.18122800000009,
                    "velocity": 0.3858267716535433,
                    "duration": 0.12355850000000146
                },
                {
                    "name": "D#4",
                    "midi": 63,
                    "time": 70.42834500000009,
                    "velocity": 0.3464566929133858,
                    "duration": 0.12355850000000146
                },
                {
                    "name": "D#5",
                    "midi": 75,
                    "time": 70.6754620000001,
                    "velocity": 0.3858267716535433,
                    "duration": 0.12355850000000146
                },
                {
                    "name": "D#4",
                    "midi": 63,
                    "time": 70.9225790000001,
                    "velocity": 0.33858267716535434,
                    "duration": 0.12355850000000146
                },
                {
                    "name": "D#5",
                    "midi": 75,
                    "time": 71.1696960000001,
                    "velocity": 0.3858267716535433,
                    "duration": 0.12355850000000146
                },
                {
                    "name": "D#4",
                    "midi": 63,
                    "time": 71.4168130000001,
                    "velocity": 0.3228346456692913,
                    "duration": 0.12355850000000146
                },
                {
                    "name": "D#5",
                    "midi": 75,
                    "time": 72.1581640000001,
                    "velocity": 0.3779527559055118,
                    "duration": 0.12355850000000146
                },
                {
                    "name": "D#4",
                    "midi": 63,
                    "time": 72.4052810000001,
                    "velocity": 0.33858267716535434,
                    "duration": 0.12355850000000146
                },
                {
                    "name": "D#5",
                    "midi": 75,
                    "time": 72.6523980000001,
                    "velocity": 0.3779527559055118,
                    "duration": 0.12355850000000146
                },
                {
                    "name": "D#4",
                    "midi": 63,
                    "time": 72.89951500000011,
                    "velocity": 0.3228346456692913,
                    "duration": 0.12355850000000146
                },
                {
                    "name": "D#5",
                    "midi": 75,
                    "time": 73.6408660000001,
                    "velocity": 0.3858267716535433,
                    "duration": 0.12355850000000146
                },
                {
                    "name": "D#4",
                    "midi": 63,
                    "time": 73.8879830000001,
                    "velocity": 0.33070866141732286,
                    "duration": 0.12355850000000146
                },
                {
                    "name": "D#5",
                    "midi": 75,
                    "time": 74.13510000000011,
                    "velocity": 0.3858267716535433,
                    "duration": 0.12355850000000146
                },
                {
                    "name": "D#4",
                    "midi": 63,
                    "time": 74.38221700000011,
                    "velocity": 0.33070866141732286,
                    "duration": 0.12355850000000146
                },
                {
                    "name": "D#2",
                    "midi": 39,
                    "time": 74.62933400000011,
                    "velocity": 0.5275590551181102,
                    "duration": 0.49423400000000584
                },
                {
                    "name": "D#3",
                    "midi": 51,
                    "time": 74.62933400000011,
                    "velocity": 0.6299212598425197,
                    "duration": 0.49423400000000584
                },
                {
                    "name": "B2",
                    "midi": 47,
                    "time": 75.12356800000012,
                    "velocity": 0.5748031496062992,
                    "duration": 0.49423400000000584
                },
                {
                    "name": "B1",
                    "midi": 35,
                    "time": 75.12356800000012,
                    "velocity": 0.4881889763779528,
                    "duration": 0.49423400000000584
                },
                {
                    "name": "G#1",
                    "midi": 32,
                    "time": 75.61780200000013,
                    "velocity": 0.5275590551181102,
                    "duration": 0.49423400000000584
                },
                {
                    "name": "G#2",
                    "midi": 44,
                    "time": 75.61780200000013,
                    "velocity": 0.6299212598425197,
                    "duration": 0.49423400000000584
                },
                {
                    "name": "F2",
                    "midi": 41,
                    "time": 76.11203600000013,
                    "velocity": 0.6220472440944882,
                    "duration": 0.24711700000000292
                },
                {
                    "name": "F1",
                    "midi": 29,
                    "time": 76.11203600000013,
                    "velocity": 0.5196850393700787,
                    "duration": 0.24711700000000292
                },
                {
                    "name": "D#2",
                    "midi": 39,
                    "time": 76.35915300000013,
                    "velocity": 0.6456692913385826,
                    "duration": 0.24711700000000292
                },
                {
                    "name": "D#1",
                    "midi": 27,
                    "time": 76.35915300000013,
                    "velocity": 0.5511811023622047,
                    "duration": 0.24711700000000292
                },
                {
                    "name": "D2",
                    "midi": 38,
                    "time": 76.60627000000014,
                    "velocity": 0.6929133858267716,
                    "duration": 0.24711700000000292
                },
                {
                    "name": "D1",
                    "midi": 26,
                    "time": 76.60627000000014,
                    "velocity": 0.5826771653543307,
                    "duration": 0.24711700000000292
                },
                {
                    "name": "C2",
                    "midi": 36,
                    "time": 76.85338700000014,
                    "velocity": 0.7086614173228346,
                    "duration": 0.24711700000000292
                },
                {
                    "name": "C1",
                    "midi": 24,
                    "time": 76.85338700000014,
                    "velocity": 0.6062992125984252,
                    "duration": 0.24711700000000292
                },
                {
                    "name": "A#1",
                    "midi": 34,
                    "time": 77.10050400000014,
                    "velocity": 0.7480314960629921,
                    "duration": 1.4827020000000033
                },
                {
                    "name": "A#0",
                    "midi": 22,
                    "time": 77.10050400000014,
                    "velocity": 0.6299212598425197,
                    "duration": 1.4827020000000033
                },
                {
                    "name": "G#2",
                    "midi": 44,
                    "time": 78.58320600000015,
                    "velocity": 0.5748031496062992,
                    "duration": 0.49423400000000584
                },
                {
                    "name": "B1",
                    "midi": 35,
                    "time": 78.58320600000015,
                    "velocity": 0.3858267716535433,
                    "duration": 1.4827020000000175
                },
                {
                    "name": "D#2",
                    "midi": 39,
                    "time": 78.58320600000015,
                    "velocity": 0.3858267716535433,
                    "duration": 1.4827020000000175
                },
                {
                    "name": "B2",
                    "midi": 47,
                    "time": 78.58320600000015,
                    "velocity": 0.4881889763779528,
                    "duration": 1.4827020000000175
                },
                {
                    "name": "G2",
                    "midi": 43,
                    "time": 79.07744000000015,
                    "velocity": 0.5433070866141733,
                    "duration": 0.49423400000000584
                },
                {
                    "name": "F#2",
                    "midi": 42,
                    "time": 79.57167400000016,
                    "velocity": 0.4881889763779528,
                    "duration": 0.49423400000000584
                },
                {
                    "name": "C#1",
                    "midi": 25,
                    "time": 80.06590800000016,
                    "velocity": 0.6850393700787402,
                    "duration": 1.4827020000000033
                },
                {
                    "name": "C#2",
                    "midi": 37,
                    "time": 80.06590800000016,
                    "velocity": 0.7480314960629921,
                    "duration": 1.4827020000000033
                },
                {
                    "name": "B2",
                    "midi": 47,
                    "time": 81.54861000000017,
                    "velocity": 0.5748031496062992,
                    "duration": 0.49423400000000584
                },
                {
                    "name": "D2",
                    "midi": 38,
                    "time": 81.54861000000017,
                    "velocity": 0.4881889763779528,
                    "duration": 1.4827020000000175
                },
                {
                    "name": "F#2",
                    "midi": 42,
                    "time": 81.54861000000017,
                    "velocity": 0.4881889763779528,
                    "duration": 1.4827020000000175
                },
                {
                    "name": "D3",
                    "midi": 50,
                    "time": 81.54861000000017,
                    "velocity": 0.4881889763779528,
                    "duration": 1.4827020000000175
                },
                {
                    "name": "A2",
                    "midi": 45,
                    "time": 82.04284400000017,
                    "velocity": 0.5433070866141733,
                    "duration": 0.49423400000000584
                },
                {
                    "name": "G#2",
                    "midi": 44,
                    "time": 82.53707800000018,
                    "velocity": 0.4881889763779528,
                    "duration": 0.49423400000000584
                },
                {
                    "name": "G2",
                    "midi": 43,
                    "time": 83.03131200000018,
                    "velocity": 0.5984251968503937,
                    "duration": 1.4827020000000033
                },
                {
                    "name": "D#2",
                    "midi": 39,
                    "time": 83.03131200000018,
                    "velocity": 0.5984251968503937,
                    "duration": 1.4827020000000033
                },
                {
                    "name": "D#3",
                    "midi": 51,
                    "time": 83.03131200000018,
                    "velocity": 0.6535433070866141,
                    "duration": 1.4827020000000033
                },
                {
                    "name": "G3",
                    "midi": 55,
                    "time": 84.01978000000018,
                    "velocity": 0.5354330708661418,
                    "duration": 0.49423400000000584
                },
                {
                    "name": "D#3",
                    "midi": 51,
                    "time": 84.01978000000018,
                    "velocity": 0.4881889763779528,
                    "duration": 0.49423400000000584
                },
                {
                    "name": "D#4",
                    "midi": 63,
                    "time": 84.01978000000018,
                    "velocity": 0.6850393700787402,
                    "duration": 0.49423400000000584
                },
                {
                    "name": "E3",
                    "midi": 52,
                    "time": 84.51401400000019,
                    "velocity": 0.4094488188976378,
                    "duration": 1.4827020000000175
                },
                {
                    "name": "C#4",
                    "midi": 61,
                    "time": 84.51401400000019,
                    "velocity": 0.5669291338582677,
                    "duration": 1.4827020000000175
                },
                {
                    "name": "E4",
                    "midi": 64,
                    "time": 84.51401400000019,
                    "velocity": 0.7244094488188977,
                    "duration": 1.4827020000000175
                },
                {
                    "name": "G#3",
                    "midi": 56,
                    "time": 84.51401400000019,
                    "velocity": 0.4330708661417323,
                    "duration": 0.49423400000000584
                },
                {
                    "name": "A3",
                    "midi": 57,
                    "time": 85.0082480000002,
                    "velocity": 0.4881889763779528,
                    "duration": 0.49423400000000584
                },
                {
                    "name": "A#3",
                    "midi": 58,
                    "time": 85.5024820000002,
                    "velocity": 0.4881889763779528,
                    "duration": 0.49423400000000584
                },
                {
                    "name": "F3",
                    "midi": 53,
                    "time": 85.9967160000002,
                    "velocity": 0.5984251968503937,
                    "duration": 0.9884679999999975
                },
                {
                    "name": "A3",
                    "midi": 57,
                    "time": 85.9967160000002,
                    "velocity": 0.5984251968503937,
                    "duration": 0.9884679999999975
                },
                {
                    "name": "D#4",
                    "midi": 63,
                    "time": 85.9967160000002,
                    "velocity": 0.5984251968503937,
                    "duration": 0.9884679999999975
                },
                {
                    "name": "C4",
                    "midi": 60,
                    "time": 85.9967160000002,
                    "velocity": 0.5984251968503937,
                    "duration": 0.9884679999999975
                },
                {
                    "name": "F4",
                    "midi": 65,
                    "time": 85.9967160000002,
                    "velocity": 0.6535433070866141,
                    "duration": 0.9884679999999975
                },
                {
                    "name": "F4",
                    "midi": 65,
                    "time": 86.9851840000002,
                    "velocity": 0.4881889763779528,
                    "duration": 0.49423400000000584
                },
                {
                    "name": "A4",
                    "midi": 69,
                    "time": 86.9851840000002,
                    "velocity": 0.4881889763779528,
                    "duration": 0.49423400000000584
                },
                {
                    "name": "C5",
                    "midi": 72,
                    "time": 86.9851840000002,
                    "velocity": 0.5748031496062992,
                    "duration": 0.49423400000000584
                },
                {
                    "name": "F5",
                    "midi": 77,
                    "time": 86.9851840000002,
                    "velocity": 0.6850393700787402,
                    "duration": 0.49423400000000584
                },
                {
                    "name": "D#5",
                    "midi": 75,
                    "time": 86.9851840000002,
                    "velocity": 0.5748031496062992,
                    "duration": 0.49423400000000584
                },
                {
                    "name": "F#4",
                    "midi": 66,
                    "time": 87.47941800000021,
                    "velocity": 0.5196850393700787,
                    "duration": 1.4827020000000033
                },
                {
                    "name": "A#4",
                    "midi": 70,
                    "time": 87.47941800000021,
                    "velocity": 0.5196850393700787,
                    "duration": 1.4827020000000033
                },
                {
                    "name": "C5",
                    "midi": 72,
                    "time": 87.47941800000021,
                    "velocity": 0.6141732283464567,
                    "duration": 1.4827020000000033
                },
                {
                    "name": "D#5",
                    "midi": 75,
                    "time": 87.47941800000021,
                    "velocity": 0.6141732283464567,
                    "duration": 1.4827020000000033
                },
                {
                    "name": "F#5",
                    "midi": 78,
                    "time": 87.47941800000021,
                    "velocity": 0.7244094488188977,
                    "duration": 1.4827020000000033
                },
                {
                    "name": "A#3",
                    "midi": 58,
                    "time": 88.96212000000021,
                    "velocity": 0.5984251968503937,
                    "duration": 0.49423400000000584
                },
                {
                    "name": "A#4",
                    "midi": 70,
                    "time": 88.96212000000021,
                    "velocity": 0.6535433070866141,
                    "duration": 0.49423400000000584
                },
                {
                    "name": "D5",
                    "midi": 74,
                    "time": 89.45635400000022,
                    "velocity": 0.28346456692913385,
                    "duration": 0.24711700000000292
                },
                {
                    "name": "F5",
                    "midi": 77,
                    "time": 89.45635400000022,
                    "velocity": 0.33858267716535434,
                    "duration": 0.24711700000000292
                },
                {
                    "name": "A#4",
                    "midi": 70,
                    "time": 89.45635400000022,
                    "velocity": 0.28346456692913385,
                    "duration": 0.24711700000000292
                },
                {
                    "name": "F4",
                    "midi": 65,
                    "time": 89.45635400000022,
                    "velocity": 0.28346456692913385,
                    "duration": 0.24711700000000292
                },
                {
                    "name": "F#4",
                    "midi": 66,
                    "time": 89.95058800000022,
                    "velocity": 0.2204724409448819,
                    "duration": 0.24711700000000292
                },
                {
                    "name": "B4",
                    "midi": 71,
                    "time": 89.95058800000022,
                    "velocity": 0.2204724409448819,
                    "duration": 0.24711700000000292
                },
                {
                    "name": "D#5",
                    "midi": 75,
                    "time": 89.95058800000022,
                    "velocity": 0.2204724409448819,
                    "duration": 0.24711700000000292
                },
                {
                    "name": "F#5",
                    "midi": 78,
                    "time": 89.95058800000022,
                    "velocity": 0.2677165354330709,
                    "duration": 0.24711700000000292
                },
                {
                    "name": "A#3",
                    "midi": 58,
                    "time": 90.44482200000023,
                    "velocity": 0.23622047244094488,
                    "duration": 0.24711700000000292
                },
                {
                    "name": "D#5",
                    "midi": 75,
                    "time": 90.93905600000024,
                    "velocity": 0.3543307086614173,
                    "duration": 0.24711700000000292
                },
                {
                    "name": "B4",
                    "midi": 71,
                    "time": 90.93905600000024,
                    "velocity": 0.2992125984251969,
                    "duration": 0.24711700000000292
                },
                {
                    "name": "G#4",
                    "midi": 68,
                    "time": 90.93905600000024,
                    "velocity": 0.2992125984251969,
                    "duration": 0.24711700000000292
                },
                {
                    "name": "D#4",
                    "midi": 63,
                    "time": 90.93905600000024,
                    "velocity": 0.2992125984251969,
                    "duration": 0.24711700000000292
                },
                {
                    "name": "F4",
                    "midi": 65,
                    "time": 91.43329000000024,
                    "velocity": 0.2204724409448819,
                    "duration": 0.24711700000000292
                },
                {
                    "name": "A#4",
                    "midi": 70,
                    "time": 91.43329000000024,
                    "velocity": 0.2204724409448819,
                    "duration": 0.24711700000000292
                },
                {
                    "name": "C#5",
                    "midi": 73,
                    "time": 91.43329000000024,
                    "velocity": 0.2204724409448819,
                    "duration": 0.24711700000000292
                },
                {
                    "name": "F5",
                    "midi": 77,
                    "time": 91.43329000000024,
                    "velocity": 0.2677165354330709,
                    "duration": 0.24711700000000292
                },
                {
                    "name": "A#3",
                    "midi": 58,
                    "time": 91.92752400000025,
                    "velocity": 0.23622047244094488,
                    "duration": 0.24711700000000292
                },
                {
                    "name": "C#5",
                    "midi": 73,
                    "time": 92.42175800000025,
                    "velocity": 0.3543307086614173,
                    "duration": 0.24711700000000292
                },
                {
                    "name": "A#4",
                    "midi": 70,
                    "time": 92.42175800000025,
                    "velocity": 0.2992125984251969,
                    "duration": 0.24711700000000292
                },
                {
                    "name": "F#4",
                    "midi": 66,
                    "time": 92.42175800000025,
                    "velocity": 0.2992125984251969,
                    "duration": 0.24711700000000292
                },
                {
                    "name": "C#4",
                    "midi": 61,
                    "time": 92.42175800000025,
                    "velocity": 0.2992125984251969,
                    "duration": 0.24711700000000292
                },
                {
                    "name": "D#4",
                    "midi": 63,
                    "time": 92.91599200000026,
                    "velocity": 0.2204724409448819,
                    "duration": 0.24711700000000292
                },
                {
                    "name": "G#4",
                    "midi": 68,
                    "time": 92.91599200000026,
                    "velocity": 0.2204724409448819,
                    "duration": 0.24711700000000292
                },
                {
                    "name": "B4",
                    "midi": 71,
                    "time": 92.91599200000026,
                    "velocity": 0.2204724409448819,
                    "duration": 0.24711700000000292
                },
                {
                    "name": "D#5",
                    "midi": 75,
                    "time": 92.91599200000026,
                    "velocity": 0.2677165354330709,
                    "duration": 0.24711700000000292
                },
                {
                    "name": "A#3",
                    "midi": 58,
                    "time": 93.41022600000026,
                    "velocity": 0.25984251968503935,
                    "duration": 0.24711700000000292
                },
                {
                    "name": "B3",
                    "midi": 59,
                    "time": 93.90446000000027,
                    "velocity": 0.30708661417322836,
                    "duration": 0.24711700000000292
                },
                {
                    "name": "D#4",
                    "midi": 63,
                    "time": 93.90446000000027,
                    "velocity": 0.25984251968503935,
                    "duration": 0.24711700000000292
                },
                {
                    "name": "F#4",
                    "midi": 66,
                    "time": 93.90446000000027,
                    "velocity": 0.25984251968503935,
                    "duration": 0.24711700000000292
                },
                {
                    "name": "B4",
                    "midi": 71,
                    "time": 93.90446000000027,
                    "velocity": 0.30708661417322836,
                    "duration": 0.24711700000000292
                },
                {
                    "name": "C#5",
                    "midi": 73,
                    "time": 94.39869400000028,
                    "velocity": 0.2677165354330709,
                    "duration": 0.24711700000000292
                },
                {
                    "name": "A#4",
                    "midi": 70,
                    "time": 94.39869400000028,
                    "velocity": 0.18110236220472442,
                    "duration": 0.24711700000000292
                },
                {
                    "name": "F4",
                    "midi": 65,
                    "time": 94.39869400000028,
                    "velocity": 0.18110236220472442,
                    "duration": 0.24711700000000292
                },
                {
                    "name": "B2",
                    "midi": 47,
                    "time": 95.88139600000028,
                    "velocity": 0.3543307086614173,
                    "duration": 0.49423400000000584
                },
                {
                    "name": "D3",
                    "midi": 50,
                    "time": 95.88139600000028,
                    "velocity": 0.4881889763779528,
                    "duration": 0.49423400000000584
                },
                {
                    "name": "A#2",
                    "midi": 46,
                    "time": 96.37563000000029,
                    "velocity": 0.3543307086614173,
                    "duration": 0.49423400000000584
                },
                {
                    "name": "D#3",
                    "midi": 51,
                    "time": 96.37563000000029,
                    "velocity": 0.4881889763779528,
                    "duration": 0.49423400000000584
                },
                {
                    "name": "F3",
                    "midi": 53,
                    "time": 96.86986400000029,
                    "velocity": 0.5196850393700787,
                    "duration": 0.49423400000000584
                },
                {
                    "name": "A2",
                    "midi": 45,
                    "time": 96.86986400000029,
                    "velocity": 0.3858267716535433,
                    "duration": 0.49423400000000584
                },
                {
                    "name": "F#3",
                    "midi": 54,
                    "time": 97.3640980000003,
                    "velocity": 0.7401574803149606,
                    "duration": 0.9884680000000117
                },
                {
                    "name": "A#2",
                    "midi": 46,
                    "time": 97.3640980000003,
                    "velocity": 0.4881889763779528,
                    "duration": 0.9884680000000117
                },
                {
                    "name": "D#2",
                    "midi": 39,
                    "time": 97.8583320000003,
                    "velocity": 0.44881889763779526,
                    "duration": 1.4827020000000175
                },
                {
                    "name": "D#1",
                    "midi": 27,
                    "time": 97.8583320000003,
                    "velocity": 0.3779527559055118,
                    "duration": 1.4827020000000175
                },
                {
                    "name": "G#3",
                    "midi": 56,
                    "time": 98.35256600000031,
                    "velocity": 0.5275590551181102,
                    "duration": 0.49423400000000584
                },
                {
                    "name": "E3",
                    "midi": 52,
                    "time": 98.35256600000031,
                    "velocity": 0.3937007874015748,
                    "duration": 0.49423400000000584
                },
                {
                    "name": "D#3",
                    "midi": 51,
                    "time": 98.84680000000031,
                    "velocity": 0.4015748031496063,
                    "duration": 0.49423400000000584
                },
                {
                    "name": "A3",
                    "midi": 57,
                    "time": 98.84680000000031,
                    "velocity": 0.5511811023622047,
                    "duration": 0.49423400000000584
                },
                {
                    "name": "D3",
                    "midi": 50,
                    "time": 99.34103400000032,
                    "velocity": 0.4094488188976378,
                    "duration": 0.49423400000000584
                },
                {
                    "name": "A#3",
                    "midi": 58,
                    "time": 99.34103400000032,
                    "velocity": 0.5590551181102362,
                    "duration": 0.49423400000000584
                },
                {
                    "name": "C#3",
                    "midi": 49,
                    "time": 99.83526800000033,
                    "velocity": 0.41732283464566927,
                    "duration": 0.49423400000000584
                },
                {
                    "name": "F3",
                    "midi": 53,
                    "time": 99.83526800000033,
                    "velocity": 0.41732283464566927,
                    "duration": 0.49423400000000584
                },
                {
                    "name": "B3",
                    "midi": 59,
                    "time": 99.83526800000033,
                    "velocity": 0.5669291338582677,
                    "duration": 0.49423400000000584
                },
                {
                    "name": "B2",
                    "midi": 47,
                    "time": 100.32950200000033,
                    "velocity": 0.4330708661417323,
                    "duration": 0.49423400000000584
                },
                {
                    "name": "G3",
                    "midi": 55,
                    "time": 100.32950200000033,
                    "velocity": 0.4330708661417323,
                    "duration": 0.49423400000000584
                },
                {
                    "name": "C#4",
                    "midi": 61,
                    "time": 100.32950200000033,
                    "velocity": 0.5826771653543307,
                    "duration": 0.49423400000000584
                },
                {
                    "name": "A#2",
                    "midi": 46,
                    "time": 100.82373600000034,
                    "velocity": 0.5669291338582677,
                    "duration": 0.9884680000000117
                },
                {
                    "name": "G#3",
                    "midi": 56,
                    "time": 100.82373600000034,
                    "velocity": 0.5669291338582677,
                    "duration": 0.9884680000000117
                },
                {
                    "name": "D4",
                    "midi": 62,
                    "time": 100.82373600000034,
                    "velocity": 0.7637795275590551,
                    "duration": 0.9884680000000117
                },
                {
                    "name": "D#2",
                    "midi": 39,
                    "time": 101.31797000000034,
                    "velocity": 0.5433070866141733,
                    "duration": 1.4827020000000175
                },
                {
                    "name": "D#1",
                    "midi": 27,
                    "time": 101.31797000000034,
                    "velocity": 0.4566929133858268,
                    "duration": 1.4827020000000175
                },
                {
                    "name": "D#4",
                    "midi": 63,
                    "time": 101.81220400000035,
                    "velocity": 0.6456692913385826,
                    "duration": 0.49423400000000584
                },
                {
                    "name": "B3",
                    "midi": 59,
                    "time": 101.81220400000035,
                    "velocity": 0.48031496062992124,
                    "duration": 0.49423400000000584
                },
                {
                    "name": "E4",
                    "midi": 64,
                    "time": 102.30643800000036,
                    "velocity": 0.6771653543307087,
                    "duration": 0.49423400000000584
                },
                {
                    "name": "C#4",
                    "midi": 61,
                    "time": 102.30643800000036,
                    "velocity": 0.49606299212598426,
                    "duration": 0.49423400000000584
                },
                {
                    "name": "A#3",
                    "midi": 58,
                    "time": 102.30643800000036,
                    "velocity": 0.49606299212598426,
                    "duration": 0.49423400000000584
                },
                {
                    "name": "F4",
                    "midi": 65,
                    "time": 102.80067200000036,
                    "velocity": 0.7007874015748031,
                    "duration": 0.49423400000000584
                },
                {
                    "name": "C4",
                    "midi": 60,
                    "time": 102.80067200000036,
                    "velocity": 0.5196850393700787,
                    "duration": 0.49423400000000584
                },
                {
                    "name": "A3",
                    "midi": 57,
                    "time": 102.80067200000036,
                    "velocity": 0.5196850393700787,
                    "duration": 0.49423400000000584
                },
                {
                    "name": "F#4",
                    "midi": 66,
                    "time": 103.29490600000037,
                    "velocity": 0.7401574803149606,
                    "duration": 0.49423400000000584
                },
                {
                    "name": "B3",
                    "midi": 59,
                    "time": 103.29490600000037,
                    "velocity": 0.5433070866141733,
                    "duration": 0.49423400000000584
                },
                {
                    "name": "G#3",
                    "midi": 56,
                    "time": 103.29490600000037,
                    "velocity": 0.5433070866141733,
                    "duration": 0.49423400000000584
                },
                {
                    "name": "G4",
                    "midi": 67,
                    "time": 103.78914000000037,
                    "velocity": 0.7559055118110236,
                    "duration": 0.49423400000000584
                },
                {
                    "name": "A#3",
                    "midi": 58,
                    "time": 103.78914000000037,
                    "velocity": 0.5590551181102362,
                    "duration": 0.9884680000000117
                },
                {
                    "name": "G3",
                    "midi": 55,
                    "time": 103.78914000000037,
                    "velocity": 0.5590551181102362,
                    "duration": 0.49423400000000584
                },
                {
                    "name": "G#4",
                    "midi": 68,
                    "time": 104.28337400000038,
                    "velocity": 0.7952755905511811,
                    "duration": 0.49423400000000584
                },
                {
                    "name": "F#3",
                    "midi": 54,
                    "time": 104.28337400000038,
                    "velocity": 0.5826771653543307,
                    "duration": 0.49423400000000584
                },
                {
                    "name": "A4",
                    "midi": 69,
                    "time": 104.77760800000038,
                    "velocity": 0.8031496062992126,
                    "duration": 0.49423400000000584
                },
                {
                    "name": "D#4",
                    "midi": 63,
                    "time": 104.77760800000038,
                    "velocity": 0.5905511811023622,
                    "duration": 0.49423400000000584
                },
                {
                    "name": "C4",
                    "midi": 60,
                    "time": 104.77760800000038,
                    "velocity": 0.5905511811023622,
                    "duration": 0.49423400000000584
                },
                {
                    "name": "A3",
                    "midi": 57,
                    "time": 104.77760800000038,
                    "velocity": 0.5905511811023622,
                    "duration": 0.49423400000000584
                },
                {
                    "name": "F3",
                    "midi": 53,
                    "time": 104.77760800000038,
                    "velocity": 0.5905511811023622,
                    "duration": 0.49423400000000584
                },
                {
                    "name": "D#2",
                    "midi": 39,
                    "time": 105.27184200000039,
                    "velocity": 0.6535433070866141,
                    "duration": 1.4827020000000033
                },
                {
                    "name": "D#1",
                    "midi": 27,
                    "time": 105.27184200000039,
                    "velocity": 0.5511811023622047,
                    "duration": 1.4827020000000033
                },
                {
                    "name": "A#4",
                    "midi": 70,
                    "time": 106.26031000000039,
                    "velocity": 0.6141732283464567,
                    "duration": 0.49423400000000584
                },
                {
                    "name": "D#4",
                    "midi": 63,
                    "time": 106.26031000000039,
                    "velocity": 0.5196850393700787,
                    "duration": 0.49423400000000584
                },
                {
                    "name": "A#3",
                    "midi": 58,
                    "time": 106.26031000000039,
                    "velocity": 0.5196850393700787,
                    "duration": 0.49423400000000584
                },
                {
                    "name": "F#3",
                    "midi": 54,
                    "time": 106.26031000000039,
                    "velocity": 0.5196850393700787,
                    "duration": 0.49423400000000584
                },
                {
                    "name": "B4",
                    "midi": 71,
                    "time": 106.7545440000004,
                    "velocity": 0.7244094488188977,
                    "duration": 1.4827020000000033
                },
                {
                    "name": "G4",
                    "midi": 67,
                    "time": 106.7545440000004,
                    "velocity": 0.6141732283464567,
                    "duration": 1.4827020000000033
                },
                {
                    "name": "E4",
                    "midi": 64,
                    "time": 106.7545440000004,
                    "velocity": 0.6141732283464567,
                    "duration": 1.4827020000000033
                },
                {
                    "name": "C#4",
                    "midi": 61,
                    "time": 106.7545440000004,
                    "velocity": 0.6141732283464567,
                    "duration": 1.4827020000000033
                },
                {
                    "name": "B3",
                    "midi": 59,
                    "time": 106.7545440000004,
                    "velocity": 0.6141732283464567,
                    "duration": 1.4827020000000033
                },
                {
                    "name": "D3",
                    "midi": 50,
                    "time": 108.2372460000004,
                    "velocity": 0.6141732283464567,
                    "duration": 1.4827020000000033
                },
                {
                    "name": "F3",
                    "midi": 53,
                    "time": 108.2372460000004,
                    "velocity": 0.6141732283464567,
                    "duration": 1.4827020000000033
                },
                {
                    "name": "G#3",
                    "midi": 56,
                    "time": 108.2372460000004,
                    "velocity": 0.6141732283464567,
                    "duration": 1.4827020000000033
                },
                {
                    "name": "B3",
                    "midi": 59,
                    "time": 108.2372460000004,
                    "velocity": 0.6141732283464567,
                    "duration": 1.4827020000000033
                },
                {
                    "name": "D4",
                    "midi": 62,
                    "time": 108.2372460000004,
                    "velocity": 0.7244094488188977,
                    "duration": 1.4827020000000033
                },
                {
                    "name": "D#1",
                    "midi": 27,
                    "time": 108.7314800000004,
                    "velocity": 0.6141732283464567,
                    "duration": 0.9884679999999975
                },
                {
                    "name": "D#2",
                    "midi": 39,
                    "time": 108.7314800000004,
                    "velocity": 0.6141732283464567,
                    "duration": 0.9884679999999975
                },
                {
                    "name": "F#4",
                    "midi": 66,
                    "time": 109.7199480000004,
                    "velocity": 0.7244094488188977,
                    "duration": 1.4827020000000033
                },
                {
                    "name": "D4",
                    "midi": 62,
                    "time": 109.7199480000004,
                    "velocity": 0.6141732283464567,
                    "duration": 1.4827020000000033
                },
                {
                    "name": "B3",
                    "midi": 59,
                    "time": 109.7199480000004,
                    "velocity": 0.6141732283464567,
                    "duration": 1.4827020000000033
                },
                {
                    "name": "G#3",
                    "midi": 56,
                    "time": 109.7199480000004,
                    "velocity": 0.6141732283464567,
                    "duration": 1.4827020000000033
                },
                {
                    "name": "F#3",
                    "midi": 54,
                    "time": 109.7199480000004,
                    "velocity": 0.6141732283464567,
                    "duration": 1.4827020000000033
                },
                {
                    "name": "A2",
                    "midi": 45,
                    "time": 111.2026500000004,
                    "velocity": 0.6141732283464567,
                    "duration": 1.4827020000000033
                },
                {
                    "name": "C3",
                    "midi": 48,
                    "time": 111.2026500000004,
                    "velocity": 0.6141732283464567,
                    "duration": 1.4827020000000033
                },
                {
                    "name": "D#3",
                    "midi": 51,
                    "time": 111.2026500000004,
                    "velocity": 0.6141732283464567,
                    "duration": 1.4827020000000033
                },
                {
                    "name": "F#3",
                    "midi": 54,
                    "time": 111.2026500000004,
                    "velocity": 0.6141732283464567,
                    "duration": 1.4827020000000033
                },
                {
                    "name": "A3",
                    "midi": 57,
                    "time": 111.2026500000004,
                    "velocity": 0.7244094488188977,
                    "duration": 1.4827020000000033
                },
                {
                    "name": "D#1",
                    "midi": 27,
                    "time": 111.69688400000041,
                    "velocity": 0.6141732283464567,
                    "duration": 0.9884679999999975
                },
                {
                    "name": "D#2",
                    "midi": 39,
                    "time": 111.69688400000041,
                    "velocity": 0.6141732283464567,
                    "duration": 0.9884679999999975
                },
                {
                    "name": "D#4",
                    "midi": 63,
                    "time": 112.6853520000004,
                    "velocity": 0.6299212598425197,
                    "duration": 0.49423400000000584
                },
                {
                    "name": "F#3",
                    "midi": 54,
                    "time": 112.6853520000004,
                    "velocity": 0.5354330708661418,
                    "duration": 0.49423400000000584
                },
                {
                    "name": "D#3",
                    "midi": 51,
                    "time": 112.6853520000004,
                    "velocity": 0.5354330708661418,
                    "duration": 0.49423400000000584
                },
                {
                    "name": "D3",
                    "midi": 50,
                    "time": 113.17958600000041,
                    "velocity": 0.5118110236220472,
                    "duration": 0.49423400000000584
                },
                {
                    "name": "F3",
                    "midi": 53,
                    "time": 113.17958600000041,
                    "velocity": 0.5118110236220472,
                    "duration": 0.49423400000000584
                },
                {
                    "name": "D4",
                    "midi": 62,
                    "time": 113.17958600000041,
                    "velocity": 0.6062992125984252,
                    "duration": 0.49423400000000584
                },
                {
                    "name": "E3",
                    "midi": 52,
                    "time": 113.67382000000042,
                    "velocity": 0.4566929133858268,
                    "duration": 0.49423400000000584
                },
                {
                    "name": "C#3",
                    "midi": 49,
                    "time": 113.67382000000042,
                    "velocity": 0.4566929133858268,
                    "duration": 0.49423400000000584
                },
                {
                    "name": "C#4",
                    "midi": 61,
                    "time": 113.67382000000042,
                    "velocity": 0.5511811023622047,
                    "duration": 0.49423400000000584
                },
                {
                    "name": "E3",
                    "midi": 52,
                    "time": 114.16805400000042,
                    "velocity": 0.44881889763779526,
                    "duration": 0.49423400000000584
                },
                {
                    "name": "C3",
                    "midi": 48,
                    "time": 114.16805400000042,
                    "velocity": 0.44881889763779526,
                    "duration": 0.9884680000000117
                },
                {
                    "name": "C4",
                    "midi": 60,
                    "time": 114.16805400000042,
                    "velocity": 0.5354330708661418,
                    "duration": 0.9884680000000117
                },
                {
                    "name": "D#3",
                    "midi": 51,
                    "time": 114.66228800000043,
                    "velocity": 0.5196850393700787,
                    "duration": 0.9884680000000117
                },
                {
                    "name": "B2",
                    "midi": 47,
                    "time": 115.15652200000044,
                    "velocity": 0.41732283464566927,
                    "duration": 0.49423400000000584
                },
                {
                    "name": "B3",
                    "midi": 59,
                    "time": 115.15652200000044,
                    "velocity": 0.49606299212598426,
                    "duration": 0.49423400000000584
                },
                {
                    "name": "A#2",
                    "midi": 46,
                    "time": 115.65075600000044,
                    "velocity": 0.30708661417322836,
                    "duration": 0.49423400000000584
                },
                {
                    "name": "D#3",
                    "midi": 51,
                    "time": 115.65075600000044,
                    "velocity": 0.30708661417322836,
                    "duration": 0.49423400000000584
                },
                {
                    "name": "F#3",
                    "midi": 54,
                    "time": 115.65075600000044,
                    "velocity": 0.30708661417322836,
                    "duration": 0.49423400000000584
                },
                {
                    "name": "A#3",
                    "midi": 58,
                    "time": 115.65075600000044,
                    "velocity": 0.36220472440944884,
                    "duration": 0.49423400000000584
                },
                {
                    "name": "C5",
                    "midi": 72,
                    "time": 116.63922400000045,
                    "velocity": 0.3543307086614173,
                    "duration": 0.24711700000000292
                },
                {
                    "name": "G4",
                    "midi": 67,
                    "time": 116.63922400000045,
                    "velocity": 0.2992125984251969,
                    "duration": 0.24711700000000292
                },
                {
                    "name": "D#4",
                    "midi": 63,
                    "time": 116.63922400000045,
                    "velocity": 0.2992125984251969,
                    "duration": 0.24711700000000292
                },
                {
                    "name": "B4",
                    "midi": 71,
                    "time": 117.13345800000046,
                    "velocity": 0.3543307086614173,
                    "duration": 0.24711700000000292
                },
                {
                    "name": "G#4",
                    "midi": 68,
                    "time": 117.13345800000046,
                    "velocity": 0.2992125984251969,
                    "duration": 0.24711700000000292
                },
                {
                    "name": "D#4",
                    "midi": 63,
                    "time": 117.13345800000046,
                    "velocity": 0.2992125984251969,
                    "duration": 0.24711700000000292
                },
                {
                    "name": "A#3",
                    "midi": 58,
                    "time": 117.13345800000046,
                    "velocity": 0.2992125984251969,
                    "duration": 0.24711700000000292
                },
                {
                    "name": "C5",
                    "midi": 72,
                    "time": 118.12192600000046,
                    "velocity": 0.3543307086614173,
                    "duration": 0.24711700000000292
                },
                {
                    "name": "G4",
                    "midi": 67,
                    "time": 118.12192600000046,
                    "velocity": 0.2992125984251969,
                    "duration": 0.24711700000000292
                },
                {
                    "name": "E4",
                    "midi": 64,
                    "time": 118.12192600000046,
                    "velocity": 0.2992125984251969,
                    "duration": 0.24711700000000292
                },
                {
                    "name": "B4",
                    "midi": 71,
                    "time": 118.61616000000046,
                    "velocity": 0.3700787401574803,
                    "duration": 0.24711700000000292
                },
                {
                    "name": "G#4",
                    "midi": 68,
                    "time": 118.61616000000046,
                    "velocity": 0.30708661417322836,
                    "duration": 0.24711700000000292
                },
                {
                    "name": "D#4",
                    "midi": 63,
                    "time": 118.61616000000046,
                    "velocity": 0.30708661417322836,
                    "duration": 0.24711700000000292
                },
                {
                    "name": "A#3",
                    "midi": 58,
                    "time": 118.61616000000046,
                    "velocity": 0.30708661417322836,
                    "duration": 0.24711700000000292
                },
                {
                    "name": "D#4",
                    "midi": 63,
                    "time": 119.60462800000046,
                    "velocity": 0.2677165354330709,
                    "duration": 0.1853377500000022
                },
                {
                    "name": "A4",
                    "midi": 69,
                    "time": 119.60462800000046,
                    "velocity": 0.2677165354330709,
                    "duration": 0.1853377500000022
                },
                {
                    "name": "C5",
                    "midi": 72,
                    "time": 119.60462800000046,
                    "velocity": 0.3228346456692913,
                    "duration": 0.1853377500000022
                },
                {
                    "name": "A#3",
                    "midi": 58,
                    "time": 120.09886200000047,
                    "velocity": 0.30708661417322836,
                    "duration": 0.1853377500000022
                },
                {
                    "name": "D#4",
                    "midi": 63,
                    "time": 120.09886200000047,
                    "velocity": 0.30708661417322836,
                    "duration": 0.1853377500000022
                },
                {
                    "name": "G4",
                    "midi": 67,
                    "time": 120.09886200000047,
                    "velocity": 0.30708661417322836,
                    "duration": 0.1853377500000022
                },
                {
                    "name": "A#4",
                    "midi": 70,
                    "time": 120.09886200000047,
                    "velocity": 0.36220472440944884,
                    "duration": 0.1853377500000022
                },
                {
                    "name": "D#4",
                    "midi": 63,
                    "time": 120.59309600000047,
                    "velocity": 0.28346456692913385,
                    "duration": 0.1853377500000022
                },
                {
                    "name": "A4",
                    "midi": 69,
                    "time": 120.59309600000047,
                    "velocity": 0.28346456692913385,
                    "duration": 0.1853377500000022
                },
                {
                    "name": "C5",
                    "midi": 72,
                    "time": 120.59309600000047,
                    "velocity": 0.33858267716535434,
                    "duration": 0.1853377500000022
                },
                {
                    "name": "A#3",
                    "midi": 58,
                    "time": 121.08733000000048,
                    "velocity": 0.30708661417322836,
                    "duration": 0.1853377500000022
                },
                {
                    "name": "D4",
                    "midi": 62,
                    "time": 121.08733000000048,
                    "velocity": 0.30708661417322836,
                    "duration": 0.1853377500000022
                },
                {
                    "name": "A#4",
                    "midi": 70,
                    "time": 121.08733000000048,
                    "velocity": 0.36220472440944884,
                    "duration": 0.1853377500000022
                },
                {
                    "name": "D#5",
                    "midi": 75,
                    "time": 121.58156400000048,
                    "velocity": 0.4094488188976378,
                    "duration": 0.49423400000000584
                },
                {
                    "name": "A#4",
                    "midi": 70,
                    "time": 121.58156400000048,
                    "velocity": 0.3464566929133858,
                    "duration": 0.49423400000000584
                },
                {
                    "name": "D#4",
                    "midi": 63,
                    "time": 121.58156400000048,
                    "velocity": 0.3464566929133858,
                    "duration": 0.49423400000000584
                },
                {
                    "name": "D#1",
                    "midi": 27,
                    "time": 122.07579800000049,
                    "velocity": 0.36220472440944884,
                    "duration": 0.9884680000000117
                },
                {
                    "name": "D#2",
                    "midi": 39,
                    "time": 122.07579800000049,
                    "velocity": 0.36220472440944884,
                    "duration": 2.965404000000021
                },
                {
                    "name": "G#2",
                    "midi": 44,
                    "time": 122.5700320000005,
                    "velocity": 0.3464566929133858,
                    "duration": 0.49423400000000584
                },
                {
                    "name": "A2",
                    "midi": 45,
                    "time": 123.0642660000005,
                    "velocity": 0.4015748031496063,
                    "duration": 0.9884679999999975
                },
                {
                    "name": "A#2",
                    "midi": 46,
                    "time": 124.0527340000005,
                    "velocity": 0.4015748031496063,
                    "duration": 0.49423400000000584
                },
                {
                    "name": "C3",
                    "midi": 48,
                    "time": 124.5469680000005,
                    "velocity": 0.44881889763779526,
                    "duration": 0.9884680000000117
                },
                {
                    "name": "D#1",
                    "midi": 27,
                    "time": 125.04120200000051,
                    "velocity": 0.3700787401574803,
                    "duration": 0.9884680000000117
                },
                {
                    "name": "D#2",
                    "midi": 39,
                    "time": 125.04120200000051,
                    "velocity": 0.3700787401574803,
                    "duration": 0.9884680000000117
                },
                {
                    "name": "D3",
                    "midi": 50,
                    "time": 125.53543600000052,
                    "velocity": 0.4094488188976378,
                    "duration": 0.49423400000000584
                },
                {
                    "name": "D#2",
                    "midi": 39,
                    "time": 125.53543600000052,
                    "velocity": 0.4094488188976378,
                    "duration": 1.9769360000000091
                },
                {
                    "name": "D#3",
                    "midi": 51,
                    "time": 126.02967000000052,
                    "velocity": 0.4645669291338583,
                    "duration": 0.9884679999999975
                },
                {
                    "name": "F3",
                    "midi": 53,
                    "time": 127.01813800000052,
                    "velocity": 0.4330708661417323,
                    "duration": 0.49423400000000584
                },
                {
                    "name": "F#3",
                    "midi": 54,
                    "time": 127.51237200000052,
                    "velocity": 0.47244094488188976,
                    "duration": 0.4942339999999916
                },
                {
                    "name": "C3",
                    "midi": 48,
                    "time": 127.51237200000052,
                    "velocity": 0.4015748031496063,
                    "duration": 0.4942339999999916
                },
                {
                    "name": "A2",
                    "midi": 45,
                    "time": 127.51237200000052,
                    "velocity": 0.4015748031496063,
                    "duration": 0.4942339999999916
                },
                {
                    "name": "D#1",
                    "midi": 27,
                    "time": 128.00660600000052,
                    "velocity": 0.41732283464566927,
                    "duration": 0.9884680000000117
                },
                {
                    "name": "D#2",
                    "midi": 39,
                    "time": 128.00660600000052,
                    "velocity": 0.41732283464566927,
                    "duration": 0.9884680000000117
                },
                {
                    "name": "F3",
                    "midi": 53,
                    "time": 128.50084000000052,
                    "velocity": 0.33858267716535434,
                    "duration": 0.49423400000000584
                },
                {
                    "name": "G#3",
                    "midi": 56,
                    "time": 128.50084000000052,
                    "velocity": 0.4015748031496063,
                    "duration": 0.49423400000000584
                },
                {
                    "name": "C3",
                    "midi": 48,
                    "time": 128.99507400000053,
                    "velocity": 0.3937007874015748,
                    "duration": 0.9884680000000117
                },
                {
                    "name": "D#3",
                    "midi": 51,
                    "time": 128.99507400000053,
                    "velocity": 0.3937007874015748,
                    "duration": 0.9884680000000117
                },
                {
                    "name": "A3",
                    "midi": 57,
                    "time": 128.99507400000053,
                    "velocity": 0.47244094488188976,
                    "duration": 0.9884680000000117
                },
                {
                    "name": "F#3",
                    "midi": 54,
                    "time": 129.98354200000054,
                    "velocity": 0.3937007874015748,
                    "duration": 1.4827020000000175
                },
                {
                    "name": "A#3",
                    "midi": 58,
                    "time": 129.98354200000054,
                    "velocity": 0.47244094488188976,
                    "duration": 0.49423400000000584
                },
                {
                    "name": "D#3",
                    "midi": 51,
                    "time": 130.47777600000055,
                    "velocity": 0.5433070866141733,
                    "duration": 0.9884680000000117
                },
                {
                    "name": "C4",
                    "midi": 60,
                    "time": 130.47777600000055,
                    "velocity": 0.5433070866141733,
                    "duration": 0.9884680000000117
                },
                {
                    "name": "D#2",
                    "midi": 39,
                    "time": 130.97201000000055,
                    "velocity": 0.41732283464566927,
                    "duration": 0.9884680000000117
                },
                {
                    "name": "A#3",
                    "midi": 58,
                    "time": 131.46624400000056,
                    "velocity": 0.36220472440944884,
                    "duration": 0.49423400000000584
                },
                {
                    "name": "D4",
                    "midi": 62,
                    "time": 131.46624400000056,
                    "velocity": 0.4409448818897638,
                    "duration": 0.49423400000000584
                },
                {
                    "name": "F#3",
                    "midi": 54,
                    "time": 131.96047800000056,
                    "velocity": 0.3937007874015748,
                    "duration": 0.9884680000000117
                },
                {
                    "name": "A3",
                    "midi": 57,
                    "time": 131.96047800000056,
                    "velocity": 0.3937007874015748,
                    "duration": 0.9884680000000117
                },
                {
                    "name": "D#4",
                    "midi": 63,
                    "time": 131.96047800000056,
                    "velocity": 0.48031496062992124,
                    "duration": 0.9884680000000117
                },
                {
                    "name": "D4",
                    "midi": 62,
                    "time": 132.94894600000057,
                    "velocity": 0.33070866141732286,
                    "duration": 0.49423400000000584
                },
                {
                    "name": "F4",
                    "midi": 65,
                    "time": 132.94894600000057,
                    "velocity": 0.3937007874015748,
                    "duration": 0.49423400000000584
                },
                {
                    "name": "F#4",
                    "midi": 66,
                    "time": 133.44318000000058,
                    "velocity": 0.48031496062992124,
                    "duration": 0.49423400000000584
                },
                {
                    "name": "D#4",
                    "midi": 63,
                    "time": 133.44318000000058,
                    "velocity": 0.4015748031496063,
                    "duration": 0.49423400000000584
                },
                {
                    "name": "A#3",
                    "midi": 58,
                    "time": 133.44318000000058,
                    "velocity": 0.4015748031496063,
                    "duration": 0.49423400000000584
                },
                {
                    "name": "D#6",
                    "midi": 87,
                    "time": 133.9374140000006,
                    "velocity": 0.3858267716535433,
                    "duration": 0.12355850000000146
                },
                {
                    "name": "D#5",
                    "midi": 75,
                    "time": 134.1845310000006,
                    "velocity": 0.3228346456692913,
                    "duration": 0.12355850000000146
                },
                {
                    "name": "D#6",
                    "midi": 87,
                    "time": 134.4316480000006,
                    "velocity": 0.3858267716535433,
                    "duration": 0.12355850000000146
                },
                {
                    "name": "D#5",
                    "midi": 75,
                    "time": 134.6787650000006,
                    "velocity": 0.33070866141732286,
                    "duration": 0.12355850000000146
                },
                {
                    "name": "D#6",
                    "midi": 87,
                    "time": 134.9258820000006,
                    "velocity": 0.3858267716535433,
                    "duration": 0.12355850000000146
                },
                {
                    "name": "D#5",
                    "midi": 75,
                    "time": 135.1729990000006,
                    "velocity": 0.3228346456692913,
                    "duration": 0.12355850000000146
                },
                {
                    "name": "D#6",
                    "midi": 87,
                    "time": 135.4201160000006,
                    "velocity": 0.3858267716535433,
                    "duration": 0.12355850000000146
                },
                {
                    "name": "D#5",
                    "midi": 75,
                    "time": 135.6672330000006,
                    "velocity": 0.31496062992125984,
                    "duration": 0.12355850000000146
                },
                {
                    "name": "D#6",
                    "midi": 87,
                    "time": 135.9143500000006,
                    "velocity": 0.3858267716535433,
                    "duration": 0.12355850000000146
                },
                {
                    "name": "D#5",
                    "midi": 75,
                    "time": 136.1614670000006,
                    "velocity": 0.33070866141732286,
                    "duration": 0.12355850000000146
                },
                {
                    "name": "D#6",
                    "midi": 87,
                    "time": 136.40858400000062,
                    "velocity": 0.3858267716535433,
                    "duration": 0.12355850000000146
                },
                {
                    "name": "D#5",
                    "midi": 75,
                    "time": 136.65570100000062,
                    "velocity": 0.3228346456692913,
                    "duration": 0.12355850000000146
                },
                {
                    "name": "D#5",
                    "midi": 75,
                    "time": 136.90281800000062,
                    "velocity": 0.3858267716535433,
                    "duration": 0.12355850000000146
                },
                {
                    "name": "D#4",
                    "midi": 63,
                    "time": 137.14993500000062,
                    "velocity": 0.31496062992125984,
                    "duration": 0.12355850000000146
                },
                {
                    "name": "D#5",
                    "midi": 75,
                    "time": 137.39705200000063,
                    "velocity": 0.3858267716535433,
                    "duration": 0.12355850000000146
                },
                {
                    "name": "D#4",
                    "midi": 63,
                    "time": 137.64416900000063,
                    "velocity": 0.33070866141732286,
                    "duration": 0.12355850000000146
                },
                {
                    "name": "D#5",
                    "midi": 75,
                    "time": 137.89128600000063,
                    "velocity": 0.3858267716535433,
                    "duration": 0.12355850000000146
                },
                {
                    "name": "D#4",
                    "midi": 63,
                    "time": 138.13840300000064,
                    "velocity": 0.33070866141732286,
                    "duration": 0.12355850000000146
                },
                {
                    "name": "D#5",
                    "midi": 75,
                    "time": 138.38552000000064,
                    "velocity": 0.3858267716535433,
                    "duration": 0.12355850000000146
                },
                {
                    "name": "D#4",
                    "midi": 63,
                    "time": 138.63263700000064,
                    "velocity": 0.3464566929133858,
                    "duration": 0.12355850000000146
                },
                {
                    "name": "D#5",
                    "midi": 75,
                    "time": 138.87975400000064,
                    "velocity": 0.3858267716535433,
                    "duration": 0.12355850000000146
                },
                {
                    "name": "D#4",
                    "midi": 63,
                    "time": 139.12687100000065,
                    "velocity": 0.33858267716535434,
                    "duration": 0.12355850000000146
                },
                {
                    "name": "D#5",
                    "midi": 75,
                    "time": 139.37398800000065,
                    "velocity": 0.3858267716535433,
                    "duration": 0.12355850000000146
                },
                {
                    "name": "A#2",
                    "midi": 46,
                    "time": 139.70347733333398,
                    "velocity": 0.33070866141732286,
                    "duration": 0.16474466666667809
                },
                {
                    "name": "D#2",
                    "midi": 39,
                    "time": 139.70347733333398,
                    "velocity": 0.33070866141732286,
                    "duration": 0.16474466666667809
                },
                {
                    "name": "D#3",
                    "midi": 51,
                    "time": 139.86822200000066,
                    "velocity": 0.2992125984251969,
                    "duration": 0.08237233333332483
                },
                {
                    "name": "F#3",
                    "midi": 54,
                    "time": 139.95059433333398,
                    "velocity": 0.2992125984251969,
                    "duration": 0.08237233333332483
                },
                {
                    "name": "A3",
                    "midi": 57,
                    "time": 140.03502597500065,
                    "velocity": 0.30708661417322836,
                    "duration": 0.08237233333332483
                },
                {
                    "name": "A#3",
                    "midi": 58,
                    "time": 140.11739830833397,
                    "velocity": 0.31496062992125984,
                    "duration": 0.08237233333332483
                },
                {
                    "name": "D4",
                    "midi": 62,
                    "time": 140.1997706416673,
                    "velocity": 0.31496062992125984,
                    "duration": 0.08237233333335325
                },
                {
                    "name": "D#4",
                    "midi": 63,
                    "time": 140.2800836666673,
                    "velocity": 0.33070866141732286,
                    "duration": 0.08237233333335325
                },
                {
                    "name": "D#6",
                    "midi": 87,
                    "time": 143.82209400000067,
                    "velocity": 0.33070866141732286,
                    "duration": 0.49423400000000584
                },
                {
                    "name": "A#5",
                    "midi": 82,
                    "time": 143.82209400000067,
                    "velocity": 0.33070866141732286,
                    "duration": 0.49423400000000584
                },
                {
                    "name": "G6",
                    "midi": 91,
                    "time": 144.31632800000068,
                    "velocity": 0.33070866141732286,
                    "duration": 0.49423400000000584
                },
                {
                    "name": "E6",
                    "midi": 88,
                    "time": 144.31632800000068,
                    "velocity": 0.33070866141732286,
                    "duration": 0.49423400000000584
                },
                {
                    "name": "F6",
                    "midi": 89,
                    "time": 144.8105620000007,
                    "velocity": 0.3543307086614173,
                    "duration": 0.49423400000000584
                },
                {
                    "name": "G#6",
                    "midi": 92,
                    "time": 144.8105620000007,
                    "velocity": 0.3543307086614173,
                    "duration": 0.49423400000000584
                },
                {
                    "name": "D#6",
                    "midi": 87,
                    "time": 145.3047960000007,
                    "velocity": 0.3779527559055118,
                    "duration": 0.49423400000000584
                },
                {
                    "name": "F#6",
                    "midi": 90,
                    "time": 145.3047960000007,
                    "velocity": 0.3779527559055118,
                    "duration": 0.49423400000000584
                },
                {
                    "name": "A#6",
                    "midi": 94,
                    "time": 145.3047960000007,
                    "velocity": 0.3779527559055118,
                    "duration": 0.49423400000000584
                },
                {
                    "name": "C5",
                    "midi": 72,
                    "time": 146.7874980000007,
                    "velocity": 0.3464566929133858,
                    "duration": 0.24711700000000292
                },
                {
                    "name": "A4",
                    "midi": 69,
                    "time": 146.7874980000007,
                    "velocity": 0.3464566929133858,
                    "duration": 0.24711700000000292
                },
                {
                    "name": "C4",
                    "midi": 60,
                    "time": 147.28173200000072,
                    "velocity": 0.31496062992125984,
                    "duration": 0.24711700000000292
                },
                {
                    "name": "A3",
                    "midi": 57,
                    "time": 147.28173200000072,
                    "velocity": 0.31496062992125984,
                    "duration": 0.24711700000000292
                },
                {
                    "name": "D3",
                    "midi": 50,
                    "time": 147.77596600000072,
                    "velocity": 0.2677165354330709,
                    "duration": 0.24711700000000292
                },
                {
                    "name": "A#2",
                    "midi": 46,
                    "time": 147.77596600000072,
                    "velocity": 0.2677165354330709,
                    "duration": 0.24711700000000292
                },
                {
                    "name": "F#2",
                    "midi": 42,
                    "time": 148.27020000000073,
                    "velocity": 0.2677165354330709,
                    "duration": 11.861616000000026
                },
                {
                    "name": "D#2",
                    "midi": 39,
                    "time": 148.27020000000073,
                    "velocity": 0.2677165354330709,
                    "duration": 11.861616000000026
                },
                {
                    "name": "D#1",
                    "midi": 27,
                    "time": 148.76443400000073,
                    "velocity": 0.2677165354330709,
                    "duration": 10.873148000000015
                }
            ],
            "controlChanges": {},
            "id": 2,
            "name": "Piano left",
            "instrumentNumber": 0,
            "instrument": "acoustic grand piano",
            "instrumentFamily": "piano",
            "channelNumber": 0,
            "isPercussion": false
        },
        {
            "startTime": 0,
            "duration": 0,
            "length": 0,
            "notes": [],
            "controlChanges": {
                "64": [
                    {
                        "number": 64,
                        "time": 0,
                        "value": 1
                    },
                    {
                        "number": 64,
                        "time": 1.5156509333333334,
                        "value": 0
                    },
                    {
                        "number": 64,
                        "time": 1.8533775000000001,
                        "value": 1
                    },
                    {
                        "number": 64,
                        "time": 2.988056391666667,
                        "value": 0
                    },
                    {
                        "number": 64,
                        "time": 3.3360795000000003,
                        "value": 1
                    },
                    {
                        "number": 64,
                        "time": 4.487232858333334,
                        "value": 0
                    },
                    {
                        "number": 64,
                        "time": 4.769358100000001,
                        "value": 1
                    },
                    {
                        "number": 64,
                        "time": 8.896212,
                        "value": 0
                    },
                    {
                        "number": 64,
                        "time": 11.8863277,
                        "value": 0
                    },
                    {
                        "number": 64,
                        "time": 11.99753035,
                        "value": 1
                    },
                    {
                        "number": 64,
                        "time": 14.82702,
                        "value": 0
                    },
                    {
                        "number": 64,
                        "time": 14.909392333333333,
                        "value": 1
                    },
                    {
                        "number": 64,
                        "time": 16.814252541666665,
                        "value": 0
                    },
                    {
                        "number": 64,
                        "time": 16.880150408333332,
                        "value": 1
                    },
                    {
                        "number": 64,
                        "time": 18.78912923333333,
                        "value": 0
                    },
                    {
                        "number": 64,
                        "time": 23.723231999999996,
                        "value": 0
                    },
                    {
                        "number": 64,
                        "time": 32.619443999999994,
                        "value": 1
                    },
                    {
                        "number": 64,
                        "time": 33.62644577499999,
                        "value": 0
                    },
                    {
                        "number": 64,
                        "time": 33.68410640833333,
                        "value": 1
                    },
                    {
                        "number": 64,
                        "time": 35.61985624166666,
                        "value": 0
                    },
                    {
                        "number": 64,
                        "time": 36.138801941666664,
                        "value": 1
                    },
                    {
                        "number": 64,
                        "time": 37.09432100833333,
                        "value": 0
                    },
                    {
                        "number": 64,
                        "time": 37.14580371666666,
                        "value": 1
                    },
                    {
                        "number": 64,
                        "time": 38.07249246666666,
                        "value": 0
                    },
                    {
                        "number": 64,
                        "time": 38.13427171666666,
                        "value": 1
                    },
                    {
                        "number": 64,
                        "time": 39.06507908333333,
                        "value": 0
                    },
                    {
                        "number": 64,
                        "time": 39.10420594166666,
                        "value": 1
                    },
                    {
                        "number": 64,
                        "time": 40.05972500833333,
                        "value": 0
                    },
                    {
                        "number": 64,
                        "time": 40.11120771666666,
                        "value": 1
                    },
                    {
                        "number": 64,
                        "time": 41.03789646666666,
                        "value": 0
                    },
                    {
                        "number": 64,
                        "time": 41.09967571666666,
                        "value": 1
                    },
                    {
                        "number": 64,
                        "time": 41.639214499999994,
                        "value": 0
                    },
                    {
                        "number": 64,
                        "time": 42.06137270833333,
                        "value": 1
                    },
                    {
                        "number": 64,
                        "time": 42.54325085833333,
                        "value": 0
                    },
                    {
                        "number": 64,
                        "time": 42.584437025,
                        "value": 1
                    },
                    {
                        "number": 64,
                        "time": 43.016891775,
                        "value": 0
                    },
                    {
                        "number": 64,
                        "time": 43.072493099999996,
                        "value": 1
                    },
                    {
                        "number": 64,
                        "time": 43.511125775,
                        "value": 0
                    },
                    {
                        "number": 64,
                        "time": 44.02389355,
                        "value": 1
                    },
                    {
                        "number": 64,
                        "time": 44.48929723333333,
                        "value": 0
                    },
                    {
                        "number": 64,
                        "time": 44.57578818333333,
                        "value": 1
                    },
                    {
                        "number": 64,
                        "time": 44.997946391666666,
                        "value": 0
                    },
                    {
                        "number": 64,
                        "time": 45.55807825833333,
                        "value": 1
                    },
                    {
                        "number": 64,
                        "time": 46.015244708333334,
                        "value": 0
                    },
                    {
                        "number": 64,
                        "time": 46.09555773333334,
                        "value": 1
                    },
                    {
                        "number": 64,
                        "time": 46.49300424166667,
                        "value": 0
                    },
                    {
                        "number": 64,
                        "time": 47.032543025,
                        "value": 1
                    },
                    {
                        "number": 64,
                        "time": 47.97570624166667,
                        "value": 0
                    },
                    {
                        "number": 64,
                        "time": 48.09514612500001,
                        "value": 1
                    },
                    {
                        "number": 64,
                        "time": 48.945640466666674,
                        "value": 0
                    },
                    {
                        "number": 64,
                        "time": 49.05272450000001,
                        "value": 1
                    },
                    {
                        "number": 64,
                        "time": 49.92998985000001,
                        "value": 0
                    },
                    {
                        "number": 64,
                        "time": 50.00618425833335,
                        "value": 1
                    },
                    {
                        "number": 64,
                        "time": 50.43452039166668,
                        "value": 0
                    },
                    {
                        "number": 64,
                        "time": 50.54160442500002,
                        "value": 1
                    },
                    {
                        "number": 64,
                        "time": 51.98312025833335,
                        "value": 0
                    },
                    {
                        "number": 64,
                        "time": 52.03666227500002,
                        "value": 1
                    },
                    {
                        "number": 64,
                        "time": 53.38962785000002,
                        "value": 0
                    },
                    {
                        "number": 64,
                        "time": 53.443169866666686,
                        "value": 1
                    },
                    {
                        "number": 64,
                        "time": 55.40569070833335,
                        "value": 0
                    },
                    {
                        "number": 64,
                        "time": 55.50247820000002,
                        "value": 1
                    },
                    {
                        "number": 64,
                        "time": 56.313845683333355,
                        "value": 0
                    },
                    {
                        "number": 64,
                        "time": 56.408573866666686,
                        "value": 1
                    },
                    {
                        "number": 64,
                        "time": 58.35050162500002,
                        "value": 0
                    },
                    {
                        "number": 64,
                        "time": 58.408162258333356,
                        "value": 1
                    },
                    {
                        "number": 64,
                        "time": 59.31425792500002,
                        "value": 0
                    },
                    {
                        "number": 64,
                        "time": 59.384274408333354,
                        "value": 1
                    },
                    {
                        "number": 64,
                        "time": 60.315081775000024,
                        "value": 0
                    },
                    {
                        "number": 64,
                        "time": 61.34473594166669,
                        "value": 1
                    },
                    {
                        "number": 64,
                        "time": 61.810139625000026,
                        "value": 0
                    },
                    {
                        "number": 64,
                        "time": 62.85626825833336,
                        "value": 1
                    },
                    {
                        "number": 64,
                        "time": 63.278426466666694,
                        "value": 0
                    },
                    {
                        "number": 64,
                        "time": 63.66351712500003,
                        "value": 1
                    },
                    {
                        "number": 64,
                        "time": 63.81590594166669,
                        "value": 0
                    },
                    {
                        "number": 64,
                        "time": 64.0506670916667,
                        "value": 1
                    },
                    {
                        "number": 64,
                        "time": 64.26277585000003,
                        "value": 0
                    },
                    {
                        "number": 64,
                        "time": 64.52842662500002,
                        "value": 1
                    },
                    {
                        "number": 64,
                        "time": 64.76318777500002,
                        "value": 0
                    },
                    {
                        "number": 64,
                        "time": 65.04531301666668,
                        "value": 1
                    },
                    {
                        "number": 64,
                        "time": 65.23888800000002,
                        "value": 0
                    },
                    {
                        "number": 64,
                        "time": 65.80519779166669,
                        "value": 1
                    },
                    {
                        "number": 64,
                        "time": 68.73353424166669,
                        "value": 0
                    },
                    {
                        "number": 64,
                        "time": 68.81590657500003,
                        "value": 1
                    },
                    {
                        "number": 64,
                        "time": 72.1869943166667,
                        "value": 0
                    },
                    {
                        "number": 64,
                        "time": 72.24671425833337,
                        "value": 1
                    },
                    {
                        "number": 64,
                        "time": 73.6573404666667,
                        "value": 0
                    },
                    {
                        "number": 64,
                        "time": 73.76442450000003,
                        "value": 1
                    },
                    {
                        "number": 64,
                        "time": 74.64786777500004,
                        "value": 0
                    },
                    {
                        "number": 64,
                        "time": 77.68328825833338,
                        "value": 1
                    },
                    {
                        "number": 64,
                        "time": 80.07826385000004,
                        "value": 0
                    },
                    {
                        "number": 64,
                        "time": 80.77225075833337,
                        "value": 1
                    },
                    {
                        "number": 64,
                        "time": 83.05396439166671,
                        "value": 0
                    },
                    {
                        "number": 64,
                        "time": 83.61409625833338,
                        "value": 1
                    },
                    {
                        "number": 64,
                        "time": 86.02760562500005,
                        "value": 0
                    },
                    {
                        "number": 64,
                        "time": 86.17999444166672,
                        "value": 1
                    },
                    {
                        "number": 64,
                        "time": 87.52884140000006,
                        "value": 0
                    },
                    {
                        "number": 64,
                        "time": 87.67505229166673,
                        "value": 1
                    },
                    {
                        "number": 64,
                        "time": 89.49136224166674,
                        "value": 0
                    },
                    {
                        "number": 64,
                        "time": 89.5634380333334,
                        "value": 1
                    },
                    {
                        "number": 64,
                        "time": 89.97324039166674,
                        "value": 0
                    },
                    {
                        "number": 64,
                        "time": 90.02266379166673,
                        "value": 1
                    },
                    {
                        "number": 64,
                        "time": 90.46335577500007,
                        "value": 0
                    },
                    {
                        "number": 64,
                        "time": 90.51895710000007,
                        "value": 1
                    },
                    {
                        "number": 64,
                        "time": 90.95758977500006,
                        "value": 0
                    },
                    {
                        "number": 64,
                        "time": 91.47035755000006,
                        "value": 1
                    },
                    {
                        "number": 64,
                        "time": 91.9357612333334,
                        "value": 0
                    },
                    {
                        "number": 64,
                        "time": 92.02225218333339,
                        "value": 1
                    },
                    {
                        "number": 64,
                        "time": 92.44441039166672,
                        "value": 0
                    },
                    {
                        "number": 64,
                        "time": 93.00454225833339,
                        "value": 1
                    },
                    {
                        "number": 64,
                        "time": 93.46170870833339,
                        "value": 0
                    },
                    {
                        "number": 64,
                        "time": 93.54202173333339,
                        "value": 1
                    },
                    {
                        "number": 64,
                        "time": 93.93946824166672,
                        "value": 0
                    },
                    {
                        "number": 64,
                        "time": 94.47900702500004,
                        "value": 1
                    },
                    {
                        "number": 64,
                        "time": 94.89292800000004,
                        "value": 0
                    },
                    {
                        "number": 64,
                        "time": 94.9588258666667,
                        "value": 1
                    },
                    {
                        "number": 64,
                        "time": 96.3921044666667,
                        "value": 0
                    },
                    {
                        "number": 64,
                        "time": 96.49918850000003,
                        "value": 1
                    },
                    {
                        "number": 64,
                        "time": 97.37645385000003,
                        "value": 0
                    },
                    {
                        "number": 64,
                        "time": 97.45264825833337,
                        "value": 1
                    },
                    {
                        "number": 64,
                        "time": 99.42958425833336,
                        "value": 0
                    },
                    {
                        "number": 64,
                        "time": 99.48312627500003,
                        "value": 1
                    },
                    {
                        "number": 64,
                        "time": 100.83815115833336,
                        "value": 0
                    },
                    {
                        "number": 64,
                        "time": 100.89993040833336,
                        "value": 1
                    },
                    {
                        "number": 64,
                        "time": 101.84309362500002,
                        "value": 0
                    },
                    {
                        "number": 64,
                        "time": 101.92958457500002,
                        "value": 1
                    },
                    {
                        "number": 64,
                        "time": 103.81591100833336,
                        "value": 0
                    },
                    {
                        "number": 64,
                        "time": 103.91887642500002,
                        "value": 1
                    },
                    {
                        "number": 64,
                        "time": 105.29861300833336,
                        "value": 0
                    },
                    {
                        "number": 64,
                        "time": 105.39540050000002,
                        "value": 1
                    },
                    {
                        "number": 64,
                        "time": 106.77925570000002,
                        "value": 0
                    },
                    {
                        "number": 64,
                        "time": 106.91928866666669,
                        "value": 1
                    },
                    {
                        "number": 64,
                        "time": 108.25989839166668,
                        "value": 0
                    },
                    {
                        "number": 64,
                        "time": 108.33815210833335,
                        "value": 1
                    },
                    {
                        "number": 64,
                        "time": 109.74465970000001,
                        "value": 0
                    },
                    {
                        "number": 64,
                        "time": 109.88469266666668,
                        "value": 1
                    },
                    {
                        "number": 64,
                        "time": 111.22530239166667,
                        "value": 0
                    },
                    {
                        "number": 64,
                        "time": 111.30355610833334,
                        "value": 1
                    },
                    {
                        "number": 64,
                        "time": 112.70594508333333,
                        "value": 0
                    },
                    {
                        "number": 64,
                        "time": 112.76772433333333,
                        "value": 1
                    },
                    {
                        "number": 64,
                        "time": 113.185763925,
                        "value": 0
                    },
                    {
                        "number": 64,
                        "time": 113.26813625833334,
                        "value": 1
                    },
                    {
                        "number": 64,
                        "time": 113.68617585000001,
                        "value": 0
                    },
                    {
                        "number": 64,
                        "time": 113.8220902,
                        "value": 1
                    },
                    {
                        "number": 64,
                        "time": 114.20306224166667,
                        "value": 0
                    },
                    {
                        "number": 64,
                        "time": 114.31014627500001,
                        "value": 1
                    },
                    {
                        "number": 64,
                        "time": 115.71047594166667,
                        "value": 0
                    },
                    {
                        "number": 64,
                        "time": 115.72695040833334,
                        "value": 1
                    },
                    {
                        "number": 64,
                        "time": 116.65775777500001,
                        "value": 0
                    },
                    {
                        "number": 64,
                        "time": 117.68741194166667,
                        "value": 1
                    },
                    {
                        "number": 64,
                        "time": 118.152815625,
                        "value": 0
                    },
                    {
                        "number": 64,
                        "time": 119.19894425833334,
                        "value": 1
                    },
                    {
                        "number": 64,
                        "time": 119.62110246666667,
                        "value": 0
                    },
                    {
                        "number": 64,
                        "time": 120.00619312500001,
                        "value": 1
                    },
                    {
                        "number": 64,
                        "time": 120.15858194166668,
                        "value": 0
                    },
                    {
                        "number": 64,
                        "time": 120.39334309166668,
                        "value": 1
                    },
                    {
                        "number": 64,
                        "time": 120.60545185000001,
                        "value": 0
                    },
                    {
                        "number": 64,
                        "time": 120.871102625,
                        "value": 1
                    },
                    {
                        "number": 64,
                        "time": 121.105863775,
                        "value": 0
                    },
                    {
                        "number": 64,
                        "time": 121.38798901666667,
                        "value": 1
                    },
                    {
                        "number": 64,
                        "time": 121.581564,
                        "value": 0
                    },
                    {
                        "number": 64,
                        "time": 121.946061575,
                        "value": 1
                    },
                    {
                        "number": 64,
                        "time": 123.08074046666667,
                        "value": 0
                    },
                    {
                        "number": 64,
                        "time": 123.14663833333333,
                        "value": 1
                    },
                    {
                        "number": 64,
                        "time": 124.56962039166666,
                        "value": 0
                    },
                    {
                        "number": 64,
                        "time": 124.65405203333333,
                        "value": 1
                    },
                    {
                        "number": 64,
                        "time": 126.06467824166666,
                        "value": 0
                    },
                    {
                        "number": 64,
                        "time": 126.15322849999998,
                        "value": 1
                    },
                    {
                        "number": 64,
                        "time": 127.51237199999998,
                        "value": 0
                    },
                    {
                        "number": 64,
                        "time": 127.59474433333332,
                        "value": 1
                    },
                    {
                        "number": 64,
                        "time": 129.01154846666665,
                        "value": 0
                    },
                    {
                        "number": 64,
                        "time": 129.0774463333333,
                        "value": 1
                    },
                    {
                        "number": 64,
                        "time": 130.50042839166665,
                        "value": 0
                    },
                    {
                        "number": 64,
                        "time": 130.5848600333333,
                        "value": 1
                    },
                    {
                        "number": 64,
                        "time": 131.99548624166664,
                        "value": 0
                    },
                    {
                        "number": 64,
                        "time": 132.08403649999997,
                        "value": 1
                    },
                    {
                        "number": 64,
                        "time": 133.4575951583333,
                        "value": 0
                    },
                    {
                        "number": 64,
                        "time": 133.58939089166662,
                        "value": 1
                    },
                    {
                        "number": 64,
                        "time": 133.95388846666663,
                        "value": 0
                    },
                    {
                        "number": 64,
                        "time": 134.07950627499997,
                        "value": 1
                    },
                    {
                        "number": 64,
                        "time": 136.93782624166664,
                        "value": 0
                    },
                    {
                        "number": 64,
                        "time": 137.02019857499997,
                        "value": 1
                    },
                    {
                        "number": 64,
                        "time": 139.81879859999998,
                        "value": 0
                    },
                    {
                        "number": 64,
                        "time": 139.88881508333333,
                        "value": 1
                    },
                    {
                        "number": 64,
                        "time": 140.89169824166666,
                        "value": 0
                    },
                    {
                        "number": 64,
                        "time": 140.96995195833333,
                        "value": 1
                    },
                    {
                        "number": 64,
                        "time": 143.86945809166667,
                        "value": 0
                    },
                    {
                        "number": 64,
                        "time": 143.9209408,
                        "value": 1
                    },
                    {
                        "number": 64,
                        "time": 145.829919625,
                        "value": 0
                    },
                    {
                        "number": 64,
                        "time": 149.83527433333333,
                        "value": 1
                    },
                    {
                        "number": 64,
                        "time": 150.278025625,
                        "value": 0
                    },
                    {
                        "number": 64,
                        "time": 151.27679016666667,
                        "value": 1
                    },
                    {
                        "number": 64,
                        "time": 151.76484624166667,
                        "value": 0
                    },
                    {
                        "number": 64,
                        "time": 157.23848779166667,
                        "value": 1
                    },
                    {
                        "number": 64,
                        "time": 163.26196466666667,
                        "value": 0
                    }
                ]
            },
            "id": 3,
            "name": "Pedale",
            "instrumentNumber": 0,
            "instrument": "acoustic grand piano",
            "instrumentFamily": "piano",
            "channelNumber": 0,
            "isPercussion": false
        },
        {
            "startTime": 0,
            "duration": 0,
            "length": 0,
            "notes": [],
            "controlChanges": {},
            "id": 4,
            "name": "Rachmaninov: Etudes-Tableux Opus 33 No. 5"
        },
        {
            "startTime": 0,
            "duration": 0,
            "length": 0,
            "notes": [],
            "controlChanges": {},
            "id": 5,
            "name": "Copyright  2013 by Bernd Krueger"
        },
        {
            "startTime": 0,
            "duration": 0,
            "length": 0,
            "notes": [],
            "controlChanges": {},
            "id": 6,
            "name": "http://www.piano-midi.de/"
        },
        {
            "startTime": 0,
            "duration": 0,
            "length": 0,
            "notes": [],
            "controlChanges": {},
            "id": 7,
            "name": "Edition: 2013-02-13"
        },
        {
            "startTime": 0,
            "duration": 0,
            "length": 0,
            "notes": [],
            "controlChanges": {},
            "id": 8,
            "name": "Spur 8"
        },
        {
            "startTime": 0,
            "duration": 0,
            "length": 0,
            "notes": [],
            "controlChanges": {},
            "id": 9,
            "name": "Spur 9"
        },
        {
            "startTime": 0,
            "duration": 0,
            "length": 0,
            "notes": [],
            "controlChanges": {},
            "id": 10,
            "name": "Spur 10"
        },
        {
            "startTime": 0,
            "duration": 0,
            "length": 0,
            "notes": [],
            "controlChanges": {},
            "id": 11,
            "name": "Spur 11"
        },
        {
            "startTime": 0,
            "duration": 0,
            "length": 0,
            "notes": [],
            "controlChanges": {},
            "id": 12,
            "name": "Spur 12"
        },
        {
            "startTime": 0,
            "duration": 0,
            "length": 0,
            "notes": [],
            "controlChanges": {},
            "id": 13,
            "name": "Spur 13"
        },
        {
            "startTime": 0,
            "duration": 0,
            "length": 0,
            "notes": [],
            "controlChanges": {},
            "id": 14,
            "name": "Spur 14"
        },
        {
            "startTime": 0,
            "duration": 0,
            "length": 0,
            "notes": [],
            "controlChanges": {},
            "id": 15,
            "name": "Spur 15"
        },
        {
            "startTime": 0,
            "duration": 0,
            "length": 0,
            "notes": [],
            "controlChanges": {},
            "id": 16,
            "name": "Spur 16"
        }
    ]
}