{
    "header": {
        "PPQ": 384,
        "timeSignature": [
            4,
            4
        ],
        "bpm": 120,
        "name": "Arnold Schönberg's Drei Klavierstucke, op. 11"
    },
    "startTime": 0,
    "duration": 362.0885416666674,
    "tracks": [
        {
            "startTime": 0,
            "duration": 0,
            "length": 0,
            "notes": [],
            "controlChanges": {},
            "id": 0
        },
        {
            "startTime": 5.307291666666667,
            "duration": 362.0885416666674,
            "length": 1385,
            "notes": [
                {
                    "name": "F2",
                    "midi": 41,
                    "time": 5.307291666666667,
                    "velocity": 0.2047244094488189,
                    "duration": 0.39583333333333304
                },
                {
                    "name": "F1",
                    "midi": 29,
                    "time": 5.307291666666667,
                    "velocity": 0.1968503937007874,
                    "duration": 9.453125
                },
                {
                    "name": "D2",
                    "midi": 38,
                    "time": 5.708333333333333,
                    "velocity": 0.18110236220472442,
                    "duration": 0.41666666666666696
                },
                {
                    "name": "F2",
                    "midi": 41,
                    "time": 6.083333333333333,
                    "velocity": 0.18110236220472442,
                    "duration": 0.41666666666666696
                },
                {
                    "name": "D2",
                    "midi": 38,
                    "time": 6.473958333333333,
                    "velocity": 0.1968503937007874,
                    "duration": 0.43229166666666696
                },
                {
                    "name": "F2",
                    "midi": 41,
                    "time": 6.864583333333333,
                    "velocity": 0.18110236220472442,
                    "duration": 0.4114583333333339
                },
                {
                    "name": "D2",
                    "midi": 38,
                    "time": 7.260416666666667,
                    "velocity": 0.18110236220472442,
                    "duration": 0.40625
                },
                {
                    "name": "F2",
                    "midi": 41,
                    "time": 7.640625,
                    "velocity": 0.18110236220472442,
                    "duration": 0.43229166666666785
                },
                {
                    "name": "D2",
                    "midi": 38,
                    "time": 8.041666666666668,
                    "velocity": 0.18110236220472442,
                    "duration": 0.453125
                },
                {
                    "name": "F2",
                    "midi": 41,
                    "time": 8.432291666666668,
                    "velocity": 0.18110236220472442,
                    "duration": 0.3958333333333339
                },
                {
                    "name": "D2",
                    "midi": 38,
                    "time": 8.807291666666668,
                    "velocity": 0.18110236220472442,
                    "duration": 0.41666666666666785
                },
                {
                    "name": "F2",
                    "midi": 41,
                    "time": 9.203125000000002,
                    "velocity": 0.18110236220472442,
                    "duration": 0.390625
                },
                {
                    "name": "D2",
                    "midi": 38,
                    "time": 9.593750000000002,
                    "velocity": 0.18110236220472442,
                    "duration": 0.42708333333333215
                },
                {
                    "name": "F2",
                    "midi": 41,
                    "time": 9.963541666666668,
                    "velocity": 0.18110236220472442,
                    "duration": 0.421875
                },
                {
                    "name": "D2",
                    "midi": 38,
                    "time": 10.380208333333334,
                    "velocity": 0.18110236220472442,
                    "duration": 0.3958333333333339
                },
                {
                    "name": "C#3",
                    "midi": 49,
                    "time": 10.760416666666668,
                    "velocity": 0.3779527559055118,
                    "duration": 1.203125
                },
                {
                    "name": "F2",
                    "midi": 41,
                    "time": 10.776041666666668,
                    "velocity": 0.18110236220472442,
                    "duration": 0.40625
                },
                {
                    "name": "D2",
                    "midi": 38,
                    "time": 11.145833333333334,
                    "velocity": 0.18110236220472442,
                    "duration": 0.4114583333333339
                },
                {
                    "name": "F2",
                    "midi": 41,
                    "time": 11.541666666666668,
                    "velocity": 0.18110236220472442,
                    "duration": 0.3802083333333339
                },
                {
                    "name": "A3",
                    "midi": 57,
                    "time": 11.932291666666668,
                    "velocity": 0.3858267716535433,
                    "duration": 1.229166666666666
                },
                {
                    "name": "D2",
                    "midi": 38,
                    "time": 11.932291666666668,
                    "velocity": 0.18110236220472442,
                    "duration": 0.41145833333333215
                },
                {
                    "name": "F2",
                    "midi": 41,
                    "time": 12.333333333333334,
                    "velocity": 0.18110236220472442,
                    "duration": 0.39583333333333215
                },
                {
                    "name": "D2",
                    "midi": 38,
                    "time": 12.75,
                    "velocity": 0.18110236220472442,
                    "duration": 0.40625
                },
                {
                    "name": "D#3",
                    "midi": 51,
                    "time": 13.135416666666666,
                    "velocity": 0.36220472440944884,
                    "duration": 2.479166666666666
                },
                {
                    "name": "F2",
                    "midi": 41,
                    "time": 13.151041666666666,
                    "velocity": 0.18110236220472442,
                    "duration": 0.3750000000000018
                },
                {
                    "name": "D2",
                    "midi": 38,
                    "time": 13.526041666666668,
                    "velocity": 0.18110236220472442,
                    "duration": 0.44270833333333215
                },
                {
                    "name": "F2",
                    "midi": 41,
                    "time": 13.927083333333334,
                    "velocity": 0.18110236220472442,
                    "duration": 0.47395833333333215
                },
                {
                    "name": "D2",
                    "midi": 38,
                    "time": 14.375,
                    "velocity": 0.18110236220472442,
                    "duration": 0.3854166666666661
                },
                {
                    "name": "G#3",
                    "midi": 56,
                    "time": 15.567708333333332,
                    "velocity": 0.3700787401574803,
                    "duration": 0.453125
                },
                {
                    "name": "D3",
                    "midi": 50,
                    "time": 15.973958333333332,
                    "velocity": 0.3543307086614173,
                    "duration": 0.7864583333333357
                },
                {
                    "name": "F2",
                    "midi": 41,
                    "time": 16.359375,
                    "velocity": 0.1968503937007874,
                    "duration": 0.390625
                },
                {
                    "name": "C3",
                    "midi": 48,
                    "time": 16.744791666666668,
                    "velocity": 0.3464566929133858,
                    "duration": 0.84375
                },
                {
                    "name": "D2",
                    "midi": 38,
                    "time": 16.770833333333336,
                    "velocity": 0.2283464566929134,
                    "duration": 0.375
                },
                {
                    "name": "F1",
                    "midi": 29,
                    "time": 17.130208333333336,
                    "velocity": 0.29133858267716534,
                    "duration": 4.1875000000000036
                },
                {
                    "name": "F2",
                    "midi": 41,
                    "time": 17.145833333333336,
                    "velocity": 0.23622047244094488,
                    "duration": 0.40625
                },
                {
                    "name": "D#3",
                    "midi": 51,
                    "time": 17.541666666666668,
                    "velocity": 0.33070866141732286,
                    "duration": 0.8437500000000071
                },
                {
                    "name": "D2",
                    "midi": 38,
                    "time": 17.541666666666668,
                    "velocity": 0.2204724409448819,
                    "duration": 0.4114583333333357
                },
                {
                    "name": "F2",
                    "midi": 41,
                    "time": 17.927083333333336,
                    "velocity": 0.2125984251968504,
                    "duration": 0.4479166666666714
                },
                {
                    "name": "D2",
                    "midi": 38,
                    "time": 18.33854166666667,
                    "velocity": 0.2047244094488189,
                    "duration": 0.4895833333333357
                },
                {
                    "name": "C#3",
                    "midi": 49,
                    "time": 18.34895833333334,
                    "velocity": 0.28346456692913385,
                    "duration": 1.890625
                },
                {
                    "name": "F2",
                    "midi": 41,
                    "time": 18.791666666666675,
                    "velocity": 0.1968503937007874,
                    "duration": 0.46874999999999645
                },
                {
                    "name": "D2",
                    "midi": 38,
                    "time": 19.23958333333334,
                    "velocity": 0.1889763779527559,
                    "duration": 0.4322916666666643
                },
                {
                    "name": "F2",
                    "midi": 41,
                    "time": 19.66666666666667,
                    "velocity": 0.18110236220472442,
                    "duration": 0.5
                },
                {
                    "name": "D2",
                    "midi": 38,
                    "time": 20.15104166666667,
                    "velocity": 0.18110236220472442,
                    "duration": 0.6927083333333357
                },
                {
                    "name": "F2",
                    "midi": 41,
                    "time": 20.77083333333334,
                    "velocity": 0.18110236220472442,
                    "duration": 0.5729166666666679
                },
                {
                    "name": "A4",
                    "midi": 69,
                    "time": 22.791666666666675,
                    "velocity": 0.41732283464566927,
                    "duration": 0.5416666666666679
                },
                {
                    "name": "F#4",
                    "midi": 66,
                    "time": 22.807291666666675,
                    "velocity": 0.2283464566929134,
                    "duration": 0.7760416666666679
                },
                {
                    "name": "E4",
                    "midi": 64,
                    "time": 22.817708333333343,
                    "velocity": 0.2283464566929134,
                    "duration": 0.75
                },
                {
                    "name": "A#3",
                    "midi": 58,
                    "time": 22.817708333333343,
                    "velocity": 0.28346456692913385,
                    "duration": 0.765625
                },
                {
                    "name": "B4",
                    "midi": 71,
                    "time": 23.338541666666675,
                    "velocity": 0.4251968503937008,
                    "duration": 0.2708333333333357
                },
                {
                    "name": "D5",
                    "midi": 74,
                    "time": 23.94791666666668,
                    "velocity": 0.44881889763779526,
                    "duration": 1.4114583333333357
                },
                {
                    "name": "A4",
                    "midi": 69,
                    "time": 23.94791666666668,
                    "velocity": 0.41732283464566927,
                    "duration": 1.4166666666666679
                },
                {
                    "name": "D#4",
                    "midi": 63,
                    "time": 23.96354166666668,
                    "velocity": 0.18110236220472442,
                    "duration": 1.421875
                },
                {
                    "name": "G3",
                    "midi": 55,
                    "time": 23.96354166666668,
                    "velocity": 0.3464566929133858,
                    "duration": 1.6927083333333357
                },
                {
                    "name": "G#4",
                    "midi": 68,
                    "time": 25.58854166666668,
                    "velocity": 0.3464566929133858,
                    "duration": 0.2395833333333357
                },
                {
                    "name": "C#5",
                    "midi": 73,
                    "time": 25.598958333333346,
                    "velocity": 0.25196850393700787,
                    "duration": 0.234375
                },
                {
                    "name": "C4",
                    "midi": 60,
                    "time": 26.083333333333346,
                    "velocity": 0.31496062992125984,
                    "duration": 0.11979166666666785
                },
                {
                    "name": "A3",
                    "midi": 57,
                    "time": 26.08854166666668,
                    "velocity": 0.23622047244094488,
                    "duration": 0.10416666666666785
                },
                {
                    "name": "D#3",
                    "midi": 51,
                    "time": 26.572916666666682,
                    "velocity": 0.2677165354330709,
                    "duration": 2.6093749999999964
                },
                {
                    "name": "F2",
                    "midi": 41,
                    "time": 27.494791666666682,
                    "velocity": 0.1889763779527559,
                    "duration": 0.453125
                },
                {
                    "name": "D2",
                    "midi": 38,
                    "time": 27.906250000000014,
                    "velocity": 0.18110236220472442,
                    "duration": 0.46354166666666785
                },
                {
                    "name": "F2",
                    "midi": 41,
                    "time": 28.33333333333335,
                    "velocity": 0.18110236220472442,
                    "duration": 0.46874999999999645
                },
                {
                    "name": "D2",
                    "midi": 38,
                    "time": 28.750000000000014,
                    "velocity": 0.18110236220472442,
                    "duration": 0.4635416666666643
                },
                {
                    "name": "C#3",
                    "midi": 49,
                    "time": 29.145833333333346,
                    "velocity": 0.3228346456692913,
                    "duration": 1.1874999999999964
                },
                {
                    "name": "F2",
                    "midi": 41,
                    "time": 29.145833333333346,
                    "velocity": 0.1889763779527559,
                    "duration": 0.44270833333333215
                },
                {
                    "name": "F1",
                    "midi": 29,
                    "time": 29.16666666666668,
                    "velocity": 0.18110236220472442,
                    "duration": 7.015624999999993
                },
                {
                    "name": "D2",
                    "midi": 38,
                    "time": 29.54687500000001,
                    "velocity": 0.1968503937007874,
                    "duration": 0.421875
                },
                {
                    "name": "F2",
                    "midi": 41,
                    "time": 29.93750000000001,
                    "velocity": 0.1889763779527559,
                    "duration": 0.4375
                },
                {
                    "name": "D2",
                    "midi": 38,
                    "time": 30.348958333333343,
                    "velocity": 0.1968503937007874,
                    "duration": 0.39583333333333215
                },
                {
                    "name": "G#4",
                    "midi": 68,
                    "time": 30.614583333333343,
                    "velocity": 0.4094488188976378,
                    "duration": 0.1197916666666643
                },
                {
                    "name": "C#5",
                    "midi": 73,
                    "time": 30.708333333333343,
                    "velocity": 0.3464566929133858,
                    "duration": 0.03645833333333215
                },
                {
                    "name": "F2",
                    "midi": 41,
                    "time": 30.729166666666675,
                    "velocity": 0.18110236220472442,
                    "duration": 0.40104166666666785
                },
                {
                    "name": "C4",
                    "midi": 60,
                    "time": 31.10937500000001,
                    "velocity": 0.41732283464566927,
                    "duration": 0.17187499999999645
                },
                {
                    "name": "D2",
                    "midi": 38,
                    "time": 31.10937500000001,
                    "velocity": 0.18110236220472442,
                    "duration": 0.23437499999999645
                },
                {
                    "name": "A3",
                    "midi": 57,
                    "time": 31.114583333333343,
                    "velocity": 0.33070866141732286,
                    "duration": 0.1666666666666643
                },
                {
                    "name": "F#2",
                    "midi": 42,
                    "time": 31.52083333333334,
                    "velocity": 0.25984251968503935,
                    "duration": 0.4166666666666643
                },
                {
                    "name": "D#3",
                    "midi": 51,
                    "time": 31.52604166666667,
                    "velocity": 0.33858267716535434,
                    "duration": 0.8385416666666572
                },
                {
                    "name": "F#3",
                    "midi": 54,
                    "time": 31.52604166666667,
                    "velocity": 0.3937007874015748,
                    "duration": 1.6666666666666714
                },
                {
                    "name": "D2",
                    "midi": 38,
                    "time": 31.937500000000004,
                    "velocity": 0.2204724409448819,
                    "duration": 0.41145833333332504
                },
                {
                    "name": "F#2",
                    "midi": 42,
                    "time": 32.328125,
                    "velocity": 0.1889763779527559,
                    "duration": 0.4583333333333286
                },
                {
                    "name": "C#3",
                    "midi": 49,
                    "time": 32.338541666666664,
                    "velocity": 0.33070866141732286,
                    "duration": 0.8125000000000071
                },
                {
                    "name": "D2",
                    "midi": 38,
                    "time": 32.73958333333333,
                    "velocity": 0.2283464566929134,
                    "duration": 0.4062500000000071
                },
                {
                    "name": "F2",
                    "midi": 41,
                    "time": 33.140625,
                    "velocity": 0.18110236220472442,
                    "duration": 0.4218750000000071
                },
                {
                    "name": "D3",
                    "midi": 50,
                    "time": 33.145833333333336,
                    "velocity": 0.2755905511811024,
                    "duration": 1.5208333333333357
                },
                {
                    "name": "D2",
                    "midi": 38,
                    "time": 33.57291666666667,
                    "velocity": 0.18110236220472442,
                    "duration": 0.359375
                },
                {
                    "name": "F2",
                    "midi": 41,
                    "time": 33.91666666666667,
                    "velocity": 0.18110236220472442,
                    "duration": 0.40625
                },
                {
                    "name": "D2",
                    "midi": 38,
                    "time": 34.333333333333336,
                    "velocity": 0.18110236220472442,
                    "duration": 0.3854166666666714
                },
                {
                    "name": "F2",
                    "midi": 41,
                    "time": 34.68229166666667,
                    "velocity": 0.1968503937007874,
                    "duration": 0.4010416666666714
                },
                {
                    "name": "D2",
                    "midi": 38,
                    "time": 35.06770833333334,
                    "velocity": 0.2204724409448819,
                    "duration": 0.4010416666666643
                },
                {
                    "name": "G#4",
                    "midi": 68,
                    "time": 35.36458333333334,
                    "velocity": 0.44881889763779526,
                    "duration": 0.1458333333333286
                },
                {
                    "name": "C#5",
                    "midi": 73,
                    "time": 35.46875000000001,
                    "velocity": 0.3937007874015748,
                    "duration": 0.0416666666666643
                },
                {
                    "name": "F2",
                    "midi": 41,
                    "time": 35.47916666666667,
                    "velocity": 0.2204724409448819,
                    "duration": 0.4010416666666643
                },
                {
                    "name": "C4",
                    "midi": 60,
                    "time": 35.890625,
                    "velocity": 0.4251968503937008,
                    "duration": 0.1354166666666714
                },
                {
                    "name": "A3",
                    "midi": 57,
                    "time": 35.890625,
                    "velocity": 0.4409448818897638,
                    "duration": 0.1197916666666714
                },
                {
                    "name": "D2",
                    "midi": 38,
                    "time": 35.890625,
                    "velocity": 0.2125984251968504,
                    "duration": 0.2291666666666714
                },
                {
                    "name": "F1",
                    "midi": 29,
                    "time": 36.302083333333336,
                    "velocity": 0.4094488188976378,
                    "duration": 4.479166666666657
                },
                {
                    "name": "D#3",
                    "midi": 51,
                    "time": 36.302083333333336,
                    "velocity": 0.3779527559055118,
                    "duration": 0.5260416666666572
                },
                {
                    "name": "F#3",
                    "midi": 54,
                    "time": 36.302083333333336,
                    "velocity": 0.4251968503937008,
                    "duration": 0.5156249999999929
                },
                {
                    "name": "G#2",
                    "midi": 44,
                    "time": 36.3125,
                    "velocity": 0.36220472440944884,
                    "duration": 0.5156249999999929
                },
                {
                    "name": "F2",
                    "midi": 41,
                    "time": 36.322916666666664,
                    "velocity": 0.2047244094488189,
                    "duration": 0.390625
                },
                {
                    "name": "D2",
                    "midi": 38,
                    "time": 36.697916666666664,
                    "velocity": 0.2283464566929134,
                    "duration": 0.4010416666666643
                },
                {
                    "name": "F2",
                    "midi": 41,
                    "time": 37.06770833333333,
                    "velocity": 0.2440944881889764,
                    "duration": 0.390625
                },
                {
                    "name": "G3",
                    "midi": 55,
                    "time": 37.072916666666664,
                    "velocity": 0.4015748031496063,
                    "duration": 0.4895833333333286
                },
                {
                    "name": "G#2",
                    "midi": 44,
                    "time": 37.08333333333333,
                    "velocity": 0.2677165354330709,
                    "duration": 0.4947916666666643
                },
                {
                    "name": "D3",
                    "midi": 50,
                    "time": 37.11458333333333,
                    "velocity": 0.3543307086614173,
                    "duration": 0.46875
                },
                {
                    "name": "D2",
                    "midi": 38,
                    "time": 37.45833333333333,
                    "velocity": 0.2755905511811024,
                    "duration": 0.4166666666666714
                },
                {
                    "name": "G#2",
                    "midi": 44,
                    "time": 37.86458333333333,
                    "velocity": 0.2677165354330709,
                    "duration": 0.6458333333333428
                },
                {
                    "name": "C#3",
                    "midi": 49,
                    "time": 37.869791666666664,
                    "velocity": 0.31496062992125984,
                    "duration": 0.6666666666666714
                },
                {
                    "name": "G#3",
                    "midi": 56,
                    "time": 37.869791666666664,
                    "velocity": 0.33070866141732286,
                    "duration": 0.6666666666666714
                },
                {
                    "name": "F2",
                    "midi": 41,
                    "time": 37.869791666666664,
                    "velocity": 0.2755905511811024,
                    "duration": 0.1822916666666714
                },
                {
                    "name": "G2",
                    "midi": 43,
                    "time": 38.27604166666667,
                    "velocity": 0.29133858267716534,
                    "duration": 0.109375
                },
                {
                    "name": "F#2",
                    "midi": 42,
                    "time": 38.66666666666667,
                    "velocity": 0.2992125984251969,
                    "duration": 0.4635416666666643
                },
                {
                    "name": "D2",
                    "midi": 38,
                    "time": 39.067708333333336,
                    "velocity": 0.2755905511811024,
                    "duration": 0.4166666666666643
                },
                {
                    "name": "F2",
                    "midi": 41,
                    "time": 39.458333333333336,
                    "velocity": 0.25984251968503935,
                    "duration": 0.4114583333333286
                },
                {
                    "name": "D2",
                    "midi": 38,
                    "time": 39.88020833333333,
                    "velocity": 0.23622047244094488,
                    "duration": 0.390625
                },
                {
                    "name": "G#4",
                    "midi": 68,
                    "time": 40.151041666666664,
                    "velocity": 0.4251968503937008,
                    "duration": 0.1510416666666643
                },
                {
                    "name": "C#5",
                    "midi": 73,
                    "time": 40.260416666666664,
                    "velocity": 0.4251968503937008,
                    "duration": 0.0625
                },
                {
                    "name": "F2",
                    "midi": 41,
                    "time": 40.27083333333333,
                    "velocity": 0.2125984251968504,
                    "duration": 0.40625
                },
                {
                    "name": "E5",
                    "midi": 76,
                    "time": 40.64583333333333,
                    "velocity": 0.5118110236220472,
                    "duration": 0.0677083333333286
                },
                {
                    "name": "B4",
                    "midi": 71,
                    "time": 40.64583333333333,
                    "velocity": 0.47244094488188976,
                    "duration": 0.0572916666666643
                },
                {
                    "name": "F4",
                    "midi": 65,
                    "time": 40.65624999999999,
                    "velocity": 0.44881889763779526,
                    "duration": 0.0364583333333357
                },
                {
                    "name": "D2",
                    "midi": 38,
                    "time": 40.66145833333333,
                    "velocity": 0.1889763779527559,
                    "duration": 0.140625
                },
                {
                    "name": "G#5",
                    "midi": 80,
                    "time": 41.088541666666664,
                    "velocity": 0.5748031496062992,
                    "duration": 0.65625
                },
                {
                    "name": "D#5",
                    "midi": 75,
                    "time": 41.088541666666664,
                    "velocity": 0.5748031496062992,
                    "duration": 0.6458333333333286
                },
                {
                    "name": "A#4",
                    "midi": 70,
                    "time": 41.088541666666664,
                    "velocity": 0.48031496062992124,
                    "duration": 0.6510416666666643
                },
                {
                    "name": "F1",
                    "midi": 29,
                    "time": 41.088541666666664,
                    "velocity": 0.28346456692913385,
                    "duration": 4.5416666666666785
                },
                {
                    "name": "F2",
                    "midi": 41,
                    "time": 41.09895833333333,
                    "velocity": 0.23622047244094488,
                    "duration": 0.4010416666666643
                },
                {
                    "name": "D2",
                    "midi": 38,
                    "time": 41.48958333333333,
                    "velocity": 0.25196850393700787,
                    "duration": 0.40625
                },
                {
                    "name": "F2",
                    "midi": 41,
                    "time": 41.88020833333333,
                    "velocity": 0.25196850393700787,
                    "duration": 0.4062500000000071
                },
                {
                    "name": "E5",
                    "midi": 76,
                    "time": 41.89062499999999,
                    "velocity": 0.4251968503937008,
                    "duration": 0.0781250000000071
                },
                {
                    "name": "G5",
                    "midi": 79,
                    "time": 41.89062499999999,
                    "velocity": 0.4881889763779528,
                    "duration": 0.0729166666666714
                },
                {
                    "name": "B4",
                    "midi": 71,
                    "time": 41.89062499999999,
                    "velocity": 0.3779527559055118,
                    "duration": 0.08333333333334281
                },
                {
                    "name": "F4",
                    "midi": 65,
                    "time": 42.29166666666667,
                    "velocity": 0.44881889763779526,
                    "duration": 0.1614583333333357
                },
                {
                    "name": "D2",
                    "midi": 38,
                    "time": 42.29166666666667,
                    "velocity": 0.2677165354330709,
                    "duration": 0.40625
                },
                {
                    "name": "C#4",
                    "midi": 61,
                    "time": 42.67708333333334,
                    "velocity": 0.3858267716535433,
                    "duration": 0.3385416666666643
                },
                {
                    "name": "F2",
                    "midi": 41,
                    "time": 42.67708333333334,
                    "velocity": 0.25984251968503935,
                    "duration": 0.4114583333333286
                },
                {
                    "name": "D2",
                    "midi": 38,
                    "time": 43.08854166666667,
                    "velocity": 0.25196850393700787,
                    "duration": 0.5416666666666714
                },
                {
                    "name": "F5",
                    "midi": 77,
                    "time": 43.47916666666667,
                    "velocity": 0.41732283464566927,
                    "duration": 0.057291666666671404
                },
                {
                    "name": "F2",
                    "midi": 41,
                    "time": 43.47916666666667,
                    "velocity": 0.25984251968503935,
                    "duration": 0.4375
                },
                {
                    "name": "G#4",
                    "midi": 68,
                    "time": 43.48437500000001,
                    "velocity": 0.33858267716535434,
                    "duration": 0.0625
                },
                {
                    "name": "C5",
                    "midi": 72,
                    "time": 43.48437500000001,
                    "velocity": 0.3464566929133858,
                    "duration": 0.0625
                },
                {
                    "name": "D2",
                    "midi": 38,
                    "time": 43.88541666666668,
                    "velocity": 0.25984251968503935,
                    "duration": 0.4427083333333286
                },
                {
                    "name": "D#4",
                    "midi": 63,
                    "time": 43.89583333333334,
                    "velocity": 0.3937007874015748,
                    "duration": 0.1145833333333286
                },
                {
                    "name": "F#3",
                    "midi": 54,
                    "time": 44.29687500000001,
                    "velocity": 0.36220472440944884,
                    "duration": 0.390625
                },
                {
                    "name": "F2",
                    "midi": 41,
                    "time": 44.29687500000001,
                    "velocity": 0.25196850393700787,
                    "duration": 0.390625
                },
                {
                    "name": "D2",
                    "midi": 38,
                    "time": 44.67708333333334,
                    "velocity": 0.2440944881889764,
                    "duration": 0.5104166666666643
                },
                {
                    "name": "G#4",
                    "midi": 68,
                    "time": 45.08854166666667,
                    "velocity": 0.33070866141732286,
                    "duration": 0.3489583333333357
                },
                {
                    "name": "F2",
                    "midi": 41,
                    "time": 45.098958333333336,
                    "velocity": 0.25196850393700787,
                    "duration": 0.4739583333333428
                },
                {
                    "name": "E4",
                    "midi": 64,
                    "time": 45.098958333333336,
                    "velocity": 0.2204724409448819,
                    "duration": 0.3333333333333357
                },
                {
                    "name": "C#5",
                    "midi": 73,
                    "time": 45.098958333333336,
                    "velocity": 0.3464566929133858,
                    "duration": 0.3385416666666714
                },
                {
                    "name": "D2",
                    "midi": 38,
                    "time": 45.48958333333334,
                    "velocity": 0.23622047244094488,
                    "duration": 0.171875
                },
                {
                    "name": "F2",
                    "midi": 41,
                    "time": 45.92187500000001,
                    "velocity": 0.2283464566929134,
                    "duration": 0.4739583333333357
                },
                {
                    "name": "D4",
                    "midi": 62,
                    "time": 45.92187500000001,
                    "velocity": 0.3464566929133858,
                    "duration": 2.828124999999993
                },
                {
                    "name": "G3",
                    "midi": 55,
                    "time": 45.92187500000001,
                    "velocity": 0.2677165354330709,
                    "duration": 2.828124999999993
                },
                {
                    "name": "B3",
                    "midi": 59,
                    "time": 45.92708333333334,
                    "velocity": 0.33070866141732286,
                    "duration": 2.838541666666657
                },
                {
                    "name": "F1",
                    "midi": 29,
                    "time": 45.92708333333334,
                    "velocity": 0.2204724409448819,
                    "duration": 2.8333333333333215
                },
                {
                    "name": "D#3",
                    "midi": 51,
                    "time": 45.92708333333334,
                    "velocity": 0.25196850393700787,
                    "duration": 2.812499999999993
                },
                {
                    "name": "D2",
                    "midi": 38,
                    "time": 46.36979166666668,
                    "velocity": 0.2047244094488189,
                    "duration": 0.4375
                },
                {
                    "name": "F2",
                    "midi": 41,
                    "time": 46.79166666666668,
                    "velocity": 0.2047244094488189,
                    "duration": 0.4947916666666643
                },
                {
                    "name": "D2",
                    "midi": 38,
                    "time": 47.22916666666668,
                    "velocity": 0.18110236220472442,
                    "duration": 0.5468749999999929
                },
                {
                    "name": "F2",
                    "midi": 41,
                    "time": 47.68750000000001,
                    "velocity": 0.15748031496062992,
                    "duration": 0.6614583333333286
                },
                {
                    "name": "D2",
                    "midi": 38,
                    "time": 48.21354166666667,
                    "velocity": 0.1732283464566929,
                    "duration": 0.5260416666666643
                },
                {
                    "name": "A4",
                    "midi": 69,
                    "time": 49.78125,
                    "velocity": 0.44881889763779526,
                    "duration": 1.0729166666666643
                },
                {
                    "name": "F#4",
                    "midi": 66,
                    "time": 49.78125,
                    "velocity": 0.3543307086614173,
                    "duration": 1.6666666666666714
                },
                {
                    "name": "E4",
                    "midi": 64,
                    "time": 49.791666666666664,
                    "velocity": 0.29133858267716534,
                    "duration": 1.6770833333333428
                },
                {
                    "name": "A#3",
                    "midi": 58,
                    "time": 49.80208333333333,
                    "velocity": 0.1732283464566929,
                    "duration": 1.625000000000007
                },
                {
                    "name": "B4",
                    "midi": 71,
                    "time": 50.83333333333333,
                    "velocity": 0.4330708661417323,
                    "duration": 0.6145833333333428
                },
                {
                    "name": "D5",
                    "midi": 74,
                    "time": 51.91666666666667,
                    "velocity": 0.3779527559055118,
                    "duration": 3.468750000000007
                },
                {
                    "name": "A4",
                    "midi": 69,
                    "time": 51.91666666666667,
                    "velocity": 0.3700787401574803,
                    "duration": 3.4479166666666714
                },
                {
                    "name": "D#4",
                    "midi": 63,
                    "time": 51.92187500000001,
                    "velocity": 0.2755905511811024,
                    "duration": 3.4322916666666714
                },
                {
                    "name": "G3",
                    "midi": 55,
                    "time": 51.92708333333334,
                    "velocity": 0.1889763779527559,
                    "duration": 3.4375
                },
                {
                    "name": "D5",
                    "midi": 74,
                    "time": 55.88541666666668,
                    "velocity": 0.5039370078740157,
                    "duration": 1.03125
                },
                {
                    "name": "B4",
                    "midi": 71,
                    "time": 55.88541666666668,
                    "velocity": 0.4566929133858268,
                    "duration": 1.53125
                },
                {
                    "name": "D#4",
                    "midi": 63,
                    "time": 55.89583333333334,
                    "velocity": 0.23622047244094488,
                    "duration": 1.484375
                },
                {
                    "name": "A4",
                    "midi": 69,
                    "time": 55.89583333333334,
                    "velocity": 0.2440944881889764,
                    "duration": 1.5
                },
                {
                    "name": "E5",
                    "midi": 76,
                    "time": 56.88541666666668,
                    "velocity": 0.5433070866141733,
                    "duration": 0.5572916666666643
                },
                {
                    "name": "C5",
                    "midi": 72,
                    "time": 58.01041666666668,
                    "velocity": 0.4330708661417323,
                    "duration": 3.4739583333333357
                },
                {
                    "name": "F4",
                    "midi": 65,
                    "time": 58.01041666666668,
                    "velocity": 0.31496062992125984,
                    "duration": 3.4947916666666714
                },
                {
                    "name": "G#5",
                    "midi": 80,
                    "time": 58.01041666666668,
                    "velocity": 0.5433070866141733,
                    "duration": 3.4947916666666714
                },
                {
                    "name": "A3",
                    "midi": 57,
                    "time": 58.03645833333335,
                    "velocity": 0.18110236220472442,
                    "duration": 3.46875
                },
                {
                    "name": "G4",
                    "midi": 67,
                    "time": 62.026041666666686,
                    "velocity": 0.25196850393700787,
                    "duration": 1.3854166666666643
                },
                {
                    "name": "E4",
                    "midi": 64,
                    "time": 62.026041666666686,
                    "velocity": 0.25984251968503935,
                    "duration": 1.40625
                },
                {
                    "name": "F#5",
                    "midi": 78,
                    "time": 62.026041666666686,
                    "velocity": 0.3543307086614173,
                    "duration": 1.375
                },
                {
                    "name": "C#4",
                    "midi": 61,
                    "time": 62.03645833333335,
                    "velocity": 0.2047244094488189,
                    "duration": 1.3645833333333357
                },
                {
                    "name": "D4",
                    "midi": 62,
                    "time": 63.91145833333335,
                    "velocity": 0.25984251968503935,
                    "duration": 1.3385416666666785
                },
                {
                    "name": "F4",
                    "midi": 65,
                    "time": 63.916666666666686,
                    "velocity": 0.23622047244094488,
                    "duration": 1.3125000000000142
                },
                {
                    "name": "D#5",
                    "midi": 75,
                    "time": 63.916666666666686,
                    "velocity": 0.3543307086614173,
                    "duration": 1.3177083333333428
                },
                {
                    "name": "B4",
                    "midi": 71,
                    "time": 63.916666666666686,
                    "velocity": 0.2283464566929134,
                    "duration": 1.3020833333333428
                },
                {
                    "name": "E5",
                    "midi": 76,
                    "time": 66.00520833333336,
                    "velocity": 0.4015748031496063,
                    "duration": 1.3124999999999858
                },
                {
                    "name": "G#4",
                    "midi": 68,
                    "time": 66.00520833333336,
                    "velocity": 0.2755905511811024,
                    "duration": 1.3177083333333144
                },
                {
                    "name": "F3",
                    "midi": 53,
                    "time": 66.01041666666669,
                    "velocity": 0.1968503937007874,
                    "duration": 1.3281249999999858
                },
                {
                    "name": "C4",
                    "midi": 60,
                    "time": 66.01041666666669,
                    "velocity": 0.25196850393700787,
                    "duration": 1.3072916666666572
                },
                {
                    "name": "F4",
                    "midi": 65,
                    "time": 67.984375,
                    "velocity": 0.2125984251968504,
                    "duration": 1.625
                },
                {
                    "name": "C#4",
                    "midi": 61,
                    "time": 67.984375,
                    "velocity": 0.1732283464566929,
                    "duration": 1.6302083333333286
                },
                {
                    "name": "A4",
                    "midi": 69,
                    "time": 67.984375,
                    "velocity": 0.29133858267716534,
                    "duration": 1.6302083333333286
                },
                {
                    "name": "F#3",
                    "midi": 54,
                    "time": 68,
                    "velocity": 0.1968503937007874,
                    "duration": 1.640625
                },
                {
                    "name": "A#3",
                    "midi": 58,
                    "time": 68.015625,
                    "velocity": 0.18110236220472442,
                    "duration": 1.609375
                },
                {
                    "name": "A#2",
                    "midi": 46,
                    "time": 68.015625,
                    "velocity": 0.16535433070866143,
                    "duration": 1.640625
                },
                {
                    "name": "G2",
                    "midi": 43,
                    "time": 70.953125,
                    "velocity": 0.18110236220472442,
                    "duration": 3.7552083333333144
                },
                {
                    "name": "G#3",
                    "midi": 56,
                    "time": 70.95833333333333,
                    "velocity": 0.1889763779527559,
                    "duration": 3.765624999999986
                },
                {
                    "name": "C#3",
                    "midi": 49,
                    "time": 70.95833333333333,
                    "velocity": 0.18110236220472442,
                    "duration": 3.765624999999986
                },
                {
                    "name": "A#3",
                    "midi": 58,
                    "time": 70.95833333333333,
                    "velocity": 0.18110236220472442,
                    "duration": 3.7864583333333144
                },
                {
                    "name": "C5",
                    "midi": 72,
                    "time": 70.95833333333333,
                    "velocity": 0.25984251968503935,
                    "duration": 3.812499999999986
                },
                {
                    "name": "F4",
                    "midi": 65,
                    "time": 70.96354166666666,
                    "velocity": 0.2204724409448819,
                    "duration": 3.796874999999986
                },
                {
                    "name": "C#3",
                    "midi": 49,
                    "time": 76.46874999999999,
                    "velocity": 0.2677165354330709,
                    "duration": 1.515625
                },
                {
                    "name": "A3",
                    "midi": 57,
                    "time": 77.90104166666666,
                    "velocity": 0.29133858267716534,
                    "duration": 1.4010416666666572
                },
                {
                    "name": "D#3",
                    "midi": 51,
                    "time": 79.25520833333331,
                    "velocity": 0.2677165354330709,
                    "duration": 2.703125
                },
                {
                    "name": "F2",
                    "midi": 41,
                    "time": 80.14583333333331,
                    "velocity": 0.18110236220472442,
                    "duration": 0.484375
                },
                {
                    "name": "D2",
                    "midi": 38,
                    "time": 80.57291666666664,
                    "velocity": 0.1968503937007874,
                    "duration": 0.484375
                },
                {
                    "name": "F2",
                    "midi": 41,
                    "time": 81.02083333333331,
                    "velocity": 0.18110236220472442,
                    "duration": 0.4583333333333286
                },
                {
                    "name": "D2",
                    "midi": 38,
                    "time": 81.45833333333331,
                    "velocity": 0.18110236220472442,
                    "duration": 0.4739583333333286
                },
                {
                    "name": "G#3",
                    "midi": 56,
                    "time": 81.89062499999997,
                    "velocity": 0.2992125984251969,
                    "duration": 0.4427083333333428
                },
                {
                    "name": "F2",
                    "midi": 41,
                    "time": 81.90104166666664,
                    "velocity": 0.18110236220472442,
                    "duration": 0.4479166666666714
                },
                {
                    "name": "D2",
                    "midi": 38,
                    "time": 82.31249999999999,
                    "velocity": 0.18110236220472442,
                    "duration": 0.4270833333333286
                },
                {
                    "name": "D3",
                    "midi": 50,
                    "time": 82.31249999999999,
                    "velocity": 0.31496062992125984,
                    "duration": 0.8385416666666572
                },
                {
                    "name": "F2",
                    "midi": 41,
                    "time": 82.72395833333331,
                    "velocity": 0.18110236220472442,
                    "duration": 0.40625
                },
                {
                    "name": "D2",
                    "midi": 38,
                    "time": 83.13020833333331,
                    "velocity": 0.18110236220472442,
                    "duration": 0.2291666666666572
                },
                {
                    "name": "C3",
                    "midi": 48,
                    "time": 83.13020833333331,
                    "velocity": 0.29133858267716534,
                    "duration": 0.875
                },
                {
                    "name": "F2",
                    "midi": 41,
                    "time": 83.52604166666664,
                    "velocity": 0.18110236220472442,
                    "duration": 0.4270833333333428
                },
                {
                    "name": "F1",
                    "midi": 29,
                    "time": 83.53645833333331,
                    "velocity": 0.28346456692913385,
                    "duration": 4.526041666666671
                },
                {
                    "name": "D2",
                    "midi": 38,
                    "time": 83.92708333333331,
                    "velocity": 0.18110236220472442,
                    "duration": 0.4114583333333286
                },
                {
                    "name": "D#3",
                    "midi": 51,
                    "time": 83.95833333333331,
                    "velocity": 0.3543307086614173,
                    "duration": 0.7604166666666572
                },
                {
                    "name": "F2",
                    "midi": 41,
                    "time": 84.32291666666664,
                    "velocity": 0.18110236220472442,
                    "duration": 0.4635416666666572
                },
                {
                    "name": "C#3",
                    "midi": 49,
                    "time": 84.70312499999997,
                    "velocity": 0.25196850393700787,
                    "duration": 2.1927083333333286
                },
                {
                    "name": "D2",
                    "midi": 38,
                    "time": 84.71354166666664,
                    "velocity": 0.18110236220472442,
                    "duration": 0.4010416666666572
                },
                {
                    "name": "F2",
                    "midi": 41,
                    "time": 85.0833333333333,
                    "velocity": 0.18110236220472442,
                    "duration": 0.40625
                },
                {
                    "name": "D2",
                    "midi": 38,
                    "time": 85.4895833333333,
                    "velocity": 0.2047244094488189,
                    "duration": 0.4270833333333286
                },
                {
                    "name": "F2",
                    "midi": 41,
                    "time": 85.8958333333333,
                    "velocity": 0.18110236220472442,
                    "duration": 0.4166666666666714
                },
                {
                    "name": "D2",
                    "midi": 38,
                    "time": 86.2864583333333,
                    "velocity": 0.18110236220472442,
                    "duration": 0.4635416666666714
                },
                {
                    "name": "F2",
                    "midi": 41,
                    "time": 86.7083333333333,
                    "velocity": 0.2047244094488189,
                    "duration": 0.4322916666666714
                },
                {
                    "name": "D2",
                    "midi": 38,
                    "time": 87.1145833333333,
                    "velocity": 0.2204724409448819,
                    "duration": 0.4791666666666714
                },
                {
                    "name": "F2",
                    "midi": 41,
                    "time": 87.55729166666664,
                    "velocity": 0.23622047244094488,
                    "duration": 0.4322916666666714
                },
                {
                    "name": "D2",
                    "midi": 38,
                    "time": 87.97916666666664,
                    "velocity": 0.2755905511811024,
                    "duration": 0.520833333333357
                },
                {
                    "name": "C#5",
                    "midi": 73,
                    "time": 87.98958333333331,
                    "velocity": 0.48031496062992124,
                    "duration": 0.2031250000000142
                },
                {
                    "name": "C#5",
                    "midi": 73,
                    "time": 88.46354166666667,
                    "velocity": 0.48031496062992124,
                    "duration": 0.5312499999999858
                },
                {
                    "name": "A5",
                    "midi": 81,
                    "time": 88.46354166666667,
                    "velocity": 0.5905511811023622,
                    "duration": 0.5312499999999858
                },
                {
                    "name": "A#2",
                    "midi": 46,
                    "time": 88.46354166666667,
                    "velocity": 0.41732283464566927,
                    "duration": 0.07291666666665719
                },
                {
                    "name": "A#1",
                    "midi": 34,
                    "time": 88.46875,
                    "velocity": 0.3779527559055118,
                    "duration": 0.0677083333333286
                },
                {
                    "name": "F3",
                    "midi": 53,
                    "time": 88.88541666666666,
                    "velocity": 0.4645669291338583,
                    "duration": 0.140625
                },
                {
                    "name": "D#5",
                    "midi": 75,
                    "time": 89.28645833333333,
                    "velocity": 0.5590551181102362,
                    "duration": 0.9947916666666572
                },
                {
                    "name": "G#4",
                    "midi": 68,
                    "time": 89.29166666666666,
                    "velocity": 0.47244094488188976,
                    "duration": 0.203125
                },
                {
                    "name": "B3",
                    "midi": 59,
                    "time": 89.29166666666666,
                    "velocity": 0.49606299212598426,
                    "duration": 0.0885416666666714
                },
                {
                    "name": "G4",
                    "midi": 67,
                    "time": 89.68229166666666,
                    "velocity": 0.6062992125984252,
                    "duration": 0.109375
                },
                {
                    "name": "D4",
                    "midi": 62,
                    "time": 89.69270833333333,
                    "velocity": 0.4566929133858268,
                    "duration": 0.0677083333333286
                },
                {
                    "name": "F#4",
                    "midi": 66,
                    "time": 90.10416666666666,
                    "velocity": 0.5433070866141733,
                    "duration": 0.1822916666666572
                },
                {
                    "name": "G4",
                    "midi": 67,
                    "time": 90.10416666666666,
                    "velocity": 0.49606299212598426,
                    "duration": 0.0989583333333286
                },
                {
                    "name": "D5",
                    "midi": 74,
                    "time": 90.57291666666664,
                    "velocity": 0.5590551181102362,
                    "duration": 0.1197916666666714
                },
                {
                    "name": "F4",
                    "midi": 65,
                    "time": 90.57291666666664,
                    "velocity": 0.5039370078740157,
                    "duration": 0.140625
                },
                {
                    "name": "A4",
                    "midi": 69,
                    "time": 90.98958333333331,
                    "velocity": 0.4881889763779528,
                    "duration": 1.7812499999999716
                },
                {
                    "name": "E4",
                    "midi": 64,
                    "time": 90.99479166666664,
                    "velocity": 0.3779527559055118,
                    "duration": 2.0677083333333144
                },
                {
                    "name": "C#4",
                    "midi": 61,
                    "time": 91.40624999999997,
                    "velocity": 0.4881889763779528,
                    "duration": 0.578125
                },
                {
                    "name": "A#2",
                    "midi": 46,
                    "time": 91.40624999999997,
                    "velocity": 0.3779527559055118,
                    "duration": 0.078125
                },
                {
                    "name": "F3",
                    "midi": 53,
                    "time": 91.78124999999997,
                    "velocity": 0.4881889763779528,
                    "duration": 0.09375
                },
                {
                    "name": "B3",
                    "midi": 59,
                    "time": 92.18749999999997,
                    "velocity": 0.4881889763779528,
                    "duration": 0.1614583333333286
                },
                {
                    "name": "D#4",
                    "midi": 63,
                    "time": 92.57291666666663,
                    "velocity": 0.4645669291338583,
                    "duration": 0.08854166666665719
                },
                {
                    "name": "A4",
                    "midi": 69,
                    "time": 92.96354166666661,
                    "velocity": 0.5433070866141733,
                    "duration": 0.0885416666666714
                },
                {
                    "name": "D4",
                    "midi": 62,
                    "time": 93.36458333333329,
                    "velocity": 0.4094488188976378,
                    "duration": 0.21875
                },
                {
                    "name": "G4",
                    "midi": 67,
                    "time": 93.36458333333329,
                    "velocity": 0.5433070866141733,
                    "duration": 0.171875
                },
                {
                    "name": "A#3",
                    "midi": 58,
                    "time": 93.38020833333329,
                    "velocity": 0.2755905511811024,
                    "duration": 0.1770833333333286
                },
                {
                    "name": "C#3",
                    "midi": 49,
                    "time": 93.38541666666661,
                    "velocity": 0.25196850393700787,
                    "duration": 2.2552083333333144
                },
                {
                    "name": "C#4",
                    "midi": 61,
                    "time": 93.78645833333329,
                    "velocity": 0.31496062992125984,
                    "duration": 0.0833333333333286
                },
                {
                    "name": "D4",
                    "midi": 62,
                    "time": 93.78645833333329,
                    "velocity": 0.4881889763779528,
                    "duration": 0.08854166666665719
                },
                {
                    "name": "A3",
                    "midi": 57,
                    "time": 93.79166666666661,
                    "velocity": 0.25984251968503935,
                    "duration": 0.057291666666671404
                },
                {
                    "name": "C4",
                    "midi": 60,
                    "time": 94.17708333333327,
                    "velocity": 0.30708661417322836,
                    "duration": 0.11979166666665719
                },
                {
                    "name": "D#5",
                    "midi": 75,
                    "time": 94.17708333333327,
                    "velocity": 0.47244094488188976,
                    "duration": 0.08854166666665719
                },
                {
                    "name": "G#3",
                    "midi": 56,
                    "time": 94.17708333333327,
                    "velocity": 0.25984251968503935,
                    "duration": 0.11979166666665719
                },
                {
                    "name": "A4",
                    "midi": 69,
                    "time": 94.5572916666666,
                    "velocity": 0.5118110236220472,
                    "duration": 0.0729166666666714
                },
                {
                    "name": "F4",
                    "midi": 65,
                    "time": 94.5572916666666,
                    "velocity": 0.3543307086614173,
                    "duration": 0.0729166666666714
                },
                {
                    "name": "D4",
                    "midi": 62,
                    "time": 94.5572916666666,
                    "velocity": 0.3228346456692913,
                    "duration": 0.21875
                },
                {
                    "name": "A#3",
                    "midi": 58,
                    "time": 94.5572916666666,
                    "velocity": 0.28346456692913385,
                    "duration": 0.2291666666666714
                },
                {
                    "name": "G#4",
                    "midi": 68,
                    "time": 94.74999999999994,
                    "velocity": 0.48031496062992124,
                    "duration": 0.08854166666665719
                },
                {
                    "name": "E4",
                    "midi": 64,
                    "time": 94.75520833333327,
                    "velocity": 0.36220472440944884,
                    "duration": 0.0677083333333286
                },
                {
                    "name": "C#4",
                    "midi": 61,
                    "time": 94.9635416666666,
                    "velocity": 0.33070866141732286,
                    "duration": 0.171875
                },
                {
                    "name": "D4",
                    "midi": 62,
                    "time": 94.96874999999993,
                    "velocity": 0.4094488188976378,
                    "duration": 0.6614583333333428
                },
                {
                    "name": "A3",
                    "midi": 57,
                    "time": 94.96874999999993,
                    "velocity": 0.28346456692913385,
                    "duration": 0.1666666666666714
                },
                {
                    "name": "C4",
                    "midi": 60,
                    "time": 95.3854166666666,
                    "velocity": 0.3779527559055118,
                    "duration": 0.25
                },
                {
                    "name": "G#3",
                    "midi": 56,
                    "time": 95.3854166666666,
                    "velocity": 0.3464566929133858,
                    "duration": 0.25
                },
                {
                    "name": "E5",
                    "midi": 76,
                    "time": 95.58333333333327,
                    "velocity": 0.6062992125984252,
                    "duration": 0.036458333333328596
                },
                {
                    "name": "D5",
                    "midi": 74,
                    "time": 95.78645833333326,
                    "velocity": 0.5590551181102362,
                    "duration": 0.4843749999999858
                },
                {
                    "name": "D#4",
                    "midi": 63,
                    "time": 95.79687499999993,
                    "velocity": 0.41732283464566927,
                    "duration": 0.4999999999999858
                },
                {
                    "name": "C#3",
                    "midi": 49,
                    "time": 95.79687499999993,
                    "velocity": 0.4330708661417323,
                    "duration": 2.1822916666666714
                },
                {
                    "name": "G3",
                    "midi": 55,
                    "time": 95.79687499999993,
                    "velocity": 0.3700787401574803,
                    "duration": 0.1979166666666714
                },
                {
                    "name": "B3",
                    "midi": 59,
                    "time": 95.79687499999993,
                    "velocity": 0.3779527559055118,
                    "duration": 0.1927083333333428
                },
                {
                    "name": "F#3",
                    "midi": 54,
                    "time": 96.15624999999993,
                    "velocity": 0.3543307086614173,
                    "duration": 0.11458333333331439
                },
                {
                    "name": "A#3",
                    "midi": 58,
                    "time": 96.16145833333326,
                    "velocity": 0.41732283464566927,
                    "duration": 0.11979166666665719
                },
                {
                    "name": "E4",
                    "midi": 64,
                    "time": 96.54166666666659,
                    "velocity": 0.5511811023622047,
                    "duration": 0.1822916666666714
                },
                {
                    "name": "B4",
                    "midi": 71,
                    "time": 96.54166666666659,
                    "velocity": 0.5433070866141733,
                    "duration": 1.5468750000000142
                },
                {
                    "name": "F3",
                    "midi": 53,
                    "time": 96.54166666666659,
                    "velocity": 0.3779527559055118,
                    "duration": 0.2447916666666714
                },
                {
                    "name": "A3",
                    "midi": 57,
                    "time": 96.54166666666659,
                    "velocity": 0.2755905511811024,
                    "duration": 0.2447916666666714
                },
                {
                    "name": "F4",
                    "midi": 65,
                    "time": 96.73437499999993,
                    "velocity": 0.5354330708661418,
                    "duration": 0.203125
                },
                {
                    "name": "D#4",
                    "midi": 63,
                    "time": 96.94270833333326,
                    "velocity": 0.48031496062992124,
                    "duration": 0.21875
                },
                {
                    "name": "B3",
                    "midi": 59,
                    "time": 96.94270833333326,
                    "velocity": 0.3858267716535433,
                    "duration": 0.140625
                },
                {
                    "name": "G3",
                    "midi": 55,
                    "time": 96.95312499999993,
                    "velocity": 0.33858267716535434,
                    "duration": 0.140625
                },
                {
                    "name": "A#3",
                    "midi": 58,
                    "time": 97.33333333333326,
                    "velocity": 0.4409448818897638,
                    "duration": 0.1770833333333286
                },
                {
                    "name": "F#3",
                    "midi": 54,
                    "time": 97.33333333333326,
                    "velocity": 0.36220472440944884,
                    "duration": 0.171875
                },
                {
                    "name": "E4",
                    "midi": 64,
                    "time": 97.54166666666659,
                    "velocity": 0.5905511811023622,
                    "duration": 0.5208333333333428
                },
                {
                    "name": "F4",
                    "midi": 65,
                    "time": 97.74479166666659,
                    "velocity": 0.6220472440944882,
                    "duration": 0.2031250000000142
                },
                {
                    "name": "A3",
                    "midi": 57,
                    "time": 97.74479166666659,
                    "velocity": 0.49606299212598426,
                    "duration": 0.2083333333333428
                },
                {
                    "name": "F3",
                    "midi": 53,
                    "time": 97.74479166666659,
                    "velocity": 0.44881889763779526,
                    "duration": 0.2083333333333428
                },
                {
                    "name": "G4",
                    "midi": 67,
                    "time": 97.9635416666666,
                    "velocity": 0.6692913385826772,
                    "duration": 0.109375
                },
                {
                    "name": "B4",
                    "midi": 71,
                    "time": 98.3229166666666,
                    "velocity": 0.5590551181102362,
                    "duration": 0.5885416666666572
                },
                {
                    "name": "D#5",
                    "midi": 75,
                    "time": 98.32812499999993,
                    "velocity": 0.5905511811023622,
                    "duration": 0.5677083333333286
                },
                {
                    "name": "B5",
                    "midi": 83,
                    "time": 98.32812499999993,
                    "velocity": 0.6771653543307087,
                    "duration": 0.5625
                },
                {
                    "name": "A#2",
                    "midi": 46,
                    "time": 98.32812499999993,
                    "velocity": 0.6535433070866141,
                    "duration": 0.1302083333333286
                },
                {
                    "name": "A#1",
                    "midi": 34,
                    "time": 98.33333333333326,
                    "velocity": 0.8110236220472441,
                    "duration": 0.109375
                },
                {
                    "name": "F3",
                    "midi": 53,
                    "time": 98.74999999999993,
                    "velocity": 0.6062992125984252,
                    "duration": 0.5364583333333286
                },
                {
                    "name": "G#5",
                    "midi": 80,
                    "time": 99.15104166666659,
                    "velocity": 0.5826771653543307,
                    "duration": 0.9895833333333428
                },
                {
                    "name": "A#4",
                    "midi": 70,
                    "time": 99.15104166666659,
                    "velocity": 0.49606299212598426,
                    "duration": 0.2083333333333286
                },
                {
                    "name": "D5",
                    "midi": 74,
                    "time": 99.15104166666659,
                    "velocity": 0.5039370078740157,
                    "duration": 0.1875
                },
                {
                    "name": "B3",
                    "midi": 59,
                    "time": 99.15104166666659,
                    "velocity": 0.5826771653543307,
                    "duration": 0.15625
                },
                {
                    "name": "C#5",
                    "midi": 73,
                    "time": 99.52604166666659,
                    "velocity": 0.5196850393700787,
                    "duration": 0.1041666666666714
                },
                {
                    "name": "A4",
                    "midi": 69,
                    "time": 99.52604166666659,
                    "velocity": 0.5196850393700787,
                    "duration": 0.1197916666666714
                },
                {
                    "name": "D4",
                    "midi": 62,
                    "time": 99.53124999999991,
                    "velocity": 0.5984251968503937,
                    "duration": 0.0885416666666714
                },
                {
                    "name": "G4",
                    "midi": 67,
                    "time": 99.90624999999993,
                    "velocity": 0.5748031496062992,
                    "duration": 0.4374999999999858
                },
                {
                    "name": "C5",
                    "midi": 72,
                    "time": 99.9166666666666,
                    "velocity": 0.5039370078740157,
                    "duration": 0.1614583333333286
                },
                {
                    "name": "G#4",
                    "midi": 68,
                    "time": 99.9166666666666,
                    "velocity": 0.4409448818897638,
                    "duration": 0.21875
                },
                {
                    "name": "C#5",
                    "midi": 73,
                    "time": 100.29166666666659,
                    "velocity": 0.5826771653543307,
                    "duration": 0.05729166666665719
                },
                {
                    "name": "A4",
                    "midi": 69,
                    "time": 100.29166666666659,
                    "velocity": 0.5039370078740157,
                    "duration": 0.05729166666665719
                },
                {
                    "name": "F#5",
                    "midi": 78,
                    "time": 100.29166666666659,
                    "velocity": 0.5905511811023622,
                    "duration": 0.07291666666665719
                },
                {
                    "name": "E6",
                    "midi": 88,
                    "time": 100.80729166666657,
                    "velocity": 0.7007874015748031,
                    "duration": 0.5729166666666572
                },
                {
                    "name": "E5",
                    "midi": 76,
                    "time": 100.8124999999999,
                    "velocity": 0.5984251968503937,
                    "duration": 0.5677083333333286
                },
                {
                    "name": "F#5",
                    "midi": 78,
                    "time": 100.8124999999999,
                    "velocity": 0.6377952755905512,
                    "duration": 0.59375
                },
                {
                    "name": "G#5",
                    "midi": 80,
                    "time": 100.82291666666657,
                    "velocity": 0.5905511811023622,
                    "duration": 0.5677083333333286
                },
                {
                    "name": "A2",
                    "midi": 45,
                    "time": 101.25520833333323,
                    "velocity": 0.6062992125984252,
                    "duration": 0.03125
                },
                {
                    "name": "A1",
                    "midi": 33,
                    "time": 101.25520833333323,
                    "velocity": 0.5905511811023622,
                    "duration": 0.020833333333328596
                },
                {
                    "name": "A4",
                    "midi": 69,
                    "time": 101.6406249999999,
                    "velocity": 0.5118110236220472,
                    "duration": 1.0624999999999858
                },
                {
                    "name": "F5",
                    "midi": 77,
                    "time": 101.6406249999999,
                    "velocity": 0.5826771653543307,
                    "duration": 0.6145833333333286
                },
                {
                    "name": "G5",
                    "midi": 79,
                    "time": 101.6406249999999,
                    "velocity": 0.5511811023622047,
                    "duration": 0.640625
                },
                {
                    "name": "A5",
                    "midi": 81,
                    "time": 101.64583333333323,
                    "velocity": 0.6377952755905512,
                    "duration": 1.3281249999999858
                },
                {
                    "name": "F2",
                    "midi": 41,
                    "time": 101.64583333333323,
                    "velocity": 0.5354330708661418,
                    "duration": 0.1614583333333428
                },
                {
                    "name": "F3",
                    "midi": 53,
                    "time": 101.64583333333323,
                    "velocity": 0.5511811023622047,
                    "duration": 0.1614583333333428
                },
                {
                    "name": "D#4",
                    "midi": 63,
                    "time": 102.0468749999999,
                    "velocity": 0.4881889763779528,
                    "duration": 0.916666666666643
                },
                {
                    "name": "D#3",
                    "midi": 51,
                    "time": 102.0468749999999,
                    "velocity": 0.5275590551181102,
                    "duration": 0.916666666666643
                },
                {
                    "name": "E5",
                    "midi": 76,
                    "time": 102.44270833333323,
                    "velocity": 0.49606299212598426,
                    "duration": 0.2760416666666572
                },
                {
                    "name": "C#5",
                    "midi": 73,
                    "time": 102.85937499999989,
                    "velocity": 0.4409448818897638,
                    "duration": 0.125
                },
                {
                    "name": "C5",
                    "midi": 72,
                    "time": 103.29166666666656,
                    "velocity": 0.4015748031496063,
                    "duration": 0.2187499999999858
                },
                {
                    "name": "E4",
                    "midi": 64,
                    "time": 103.30729166666656,
                    "velocity": 0.28346456692913385,
                    "duration": 0.401041666666643
                },
                {
                    "name": "C#4",
                    "midi": 61,
                    "time": 103.30729166666656,
                    "velocity": 0.29133858267716534,
                    "duration": 0.635416666666643
                },
                {
                    "name": "G#3",
                    "midi": 56,
                    "time": 103.30729166666656,
                    "velocity": 0.2440944881889764,
                    "duration": 0.666666666666643
                },
                {
                    "name": "G4",
                    "midi": 67,
                    "time": 103.71874999999986,
                    "velocity": 0.3779527559055118,
                    "duration": 0.2135416666666714
                },
                {
                    "name": "F#4",
                    "midi": 66,
                    "time": 103.93229166666653,
                    "velocity": 0.3700787401574803,
                    "duration": 0.041666666666671404
                },
                {
                    "name": "G#5",
                    "midi": 80,
                    "time": 104.16666666666653,
                    "velocity": 0.5118110236220472,
                    "duration": 0.2135416666666714
                },
                {
                    "name": "D4",
                    "midi": 62,
                    "time": 104.17187499999986,
                    "velocity": 0.3228346456692913,
                    "duration": 0.2395833333333428
                },
                {
                    "name": "A#4",
                    "midi": 70,
                    "time": 104.17187499999986,
                    "velocity": 0.41732283464566927,
                    "duration": 0.2187500000000142
                },
                {
                    "name": "G3",
                    "midi": 55,
                    "time": 104.18749999999986,
                    "velocity": 0.25196850393700787,
                    "duration": 0.2447916666666714
                },
                {
                    "name": "C#4",
                    "midi": 61,
                    "time": 104.4114583333332,
                    "velocity": 0.2677165354330709,
                    "duration": 0.2395833333333286
                },
                {
                    "name": "F#4",
                    "midi": 66,
                    "time": 104.6614583333332,
                    "velocity": 0.3858267716535433,
                    "duration": 0.59375
                },
                {
                    "name": "G#3",
                    "midi": 56,
                    "time": 104.6614583333332,
                    "velocity": 0.28346456692913385,
                    "duration": 0.4427083333333286
                },
                {
                    "name": "B2",
                    "midi": 47,
                    "time": 104.6614583333332,
                    "velocity": 0.2283464566929134,
                    "duration": 0.6927083333333428
                },
                {
                    "name": "F3",
                    "midi": 53,
                    "time": 104.68229166666653,
                    "velocity": 0.25984251968503935,
                    "duration": 0.6614583333333428
                },
                {
                    "name": "C4",
                    "midi": 60,
                    "time": 105.08854166666653,
                    "velocity": 0.4015748031496063,
                    "duration": 0.125
                },
                {
                    "name": "A3",
                    "midi": 57,
                    "time": 105.31249999999987,
                    "velocity": 0.29133858267716534,
                    "duration": 0.03125
                },
                {
                    "name": "B4",
                    "midi": 71,
                    "time": 105.58333333333321,
                    "velocity": 0.4015748031496063,
                    "duration": 0.2291666666666714
                },
                {
                    "name": "F#3",
                    "midi": 54,
                    "time": 105.58333333333321,
                    "velocity": 0.29133858267716534,
                    "duration": 0.171875
                },
                {
                    "name": "C4",
                    "midi": 60,
                    "time": 105.59374999999989,
                    "velocity": 0.28346456692913385,
                    "duration": 0.7031250000000142
                },
                {
                    "name": "G2",
                    "midi": 43,
                    "time": 105.61458333333321,
                    "velocity": 0.18110236220472442,
                    "duration": 0.3489583333333428
                },
                {
                    "name": "F3",
                    "midi": 53,
                    "time": 105.85937499999989,
                    "velocity": 0.2677165354330709,
                    "duration": 0.0885416666666714
                },
                {
                    "name": "A#3",
                    "midi": 58,
                    "time": 106.20833333333323,
                    "velocity": 0.3543307086614173,
                    "duration": 1.6510416666666714
                },
                {
                    "name": "A3",
                    "midi": 57,
                    "time": 107.7656249999999,
                    "velocity": 0.23622047244094488,
                    "duration": 1.5052083333333286
                },
                {
                    "name": "A#3",
                    "midi": 58,
                    "time": 109.6406249999999,
                    "velocity": 0.2755905511811024,
                    "duration": 0.5208333333333286
                },
                {
                    "name": "A3",
                    "midi": 57,
                    "time": 110.1406249999999,
                    "velocity": 0.2677165354330709,
                    "duration": 0.4583333333333286
                },
                {
                    "name": "A#3",
                    "midi": 58,
                    "time": 110.55208333333323,
                    "velocity": 0.25984251968503935,
                    "duration": 0.4739583333333286
                },
                {
                    "name": "F#3",
                    "midi": 54,
                    "time": 110.99479166666656,
                    "velocity": 0.25196850393700787,
                    "duration": 0.4895833333333428
                },
                {
                    "name": "A#3",
                    "midi": 58,
                    "time": 111.44270833333323,
                    "velocity": 0.2440944881889764,
                    "duration": 0.4322916666666714
                },
                {
                    "name": "F#3",
                    "midi": 54,
                    "time": 111.83854166666657,
                    "velocity": 0.23622047244094488,
                    "duration": 0.4947916666666572
                },
                {
                    "name": "A#3",
                    "midi": 58,
                    "time": 112.27083333333323,
                    "velocity": 0.2440944881889764,
                    "duration": 0.4270833333333286
                },
                {
                    "name": "F1",
                    "midi": 29,
                    "time": 112.65104166666656,
                    "velocity": 0.29133858267716534,
                    "duration": 0.057291666666671404
                },
                {
                    "name": "F#3",
                    "midi": 54,
                    "time": 112.66666666666656,
                    "velocity": 0.2677165354330709,
                    "duration": 0.4479166666666714
                },
                {
                    "name": "A#3",
                    "midi": 58,
                    "time": 113.06770833333323,
                    "velocity": 0.28346456692913385,
                    "duration": 0.4114583333333428
                },
                {
                    "name": "A2",
                    "midi": 45,
                    "time": 113.06770833333323,
                    "velocity": 0.4094488188976378,
                    "duration": 0.8333333333333428
                },
                {
                    "name": "F#3",
                    "midi": 54,
                    "time": 113.46354166666657,
                    "velocity": 0.2755905511811024,
                    "duration": 0.453125
                },
                {
                    "name": "A#3",
                    "midi": 58,
                    "time": 113.8749999999999,
                    "velocity": 0.2677165354330709,
                    "duration": 0.4479166666666714
                },
                {
                    "name": "F2",
                    "midi": 41,
                    "time": 113.88541666666657,
                    "velocity": 0.3543307086614173,
                    "duration": 1.2135416666666714
                },
                {
                    "name": "F#3",
                    "midi": 54,
                    "time": 114.28645833333324,
                    "velocity": 0.25196850393700787,
                    "duration": 0.453125
                },
                {
                    "name": "A#3",
                    "midi": 58,
                    "time": 114.68229166666657,
                    "velocity": 0.23622047244094488,
                    "duration": 0.4322916666666572
                },
                {
                    "name": "E2",
                    "midi": 40,
                    "time": 115.08333333333324,
                    "velocity": 0.30708661417322836,
                    "duration": 0.026041666666657193
                },
                {
                    "name": "F#3",
                    "midi": 54,
                    "time": 115.09895833333324,
                    "velocity": 0.23622047244094488,
                    "duration": 0.4739583333333144
                },
                {
                    "name": "A#3",
                    "midi": 58,
                    "time": 115.54166666666656,
                    "velocity": 0.2283464566929134,
                    "duration": 0.4010416666666572
                },
                {
                    "name": "E4",
                    "midi": 64,
                    "time": 115.57291666666656,
                    "velocity": 0.4409448818897638,
                    "duration": 1.2239583333333286
                },
                {
                    "name": "F#3",
                    "midi": 54,
                    "time": 115.90624999999989,
                    "velocity": 0.23622047244094488,
                    "duration": 0.4427083333333286
                },
                {
                    "name": "A#3",
                    "midi": 58,
                    "time": 116.30208333333321,
                    "velocity": 0.23622047244094488,
                    "duration": 0.453125
                },
                {
                    "name": "C4",
                    "midi": 60,
                    "time": 116.72395833333321,
                    "velocity": 0.2992125984251969,
                    "duration": 0.9270833333333286
                },
                {
                    "name": "F#3",
                    "midi": 54,
                    "time": 116.72395833333321,
                    "velocity": 0.28346456692913385,
                    "duration": 0.4375
                },
                {
                    "name": "A#3",
                    "midi": 58,
                    "time": 117.09895833333321,
                    "velocity": 0.2440944881889764,
                    "duration": 0.421875
                },
                {
                    "name": "F#3",
                    "midi": 54,
                    "time": 117.50520833333321,
                    "velocity": 0.2440944881889764,
                    "duration": 0.4635416666666572
                },
                {
                    "name": "A#3",
                    "midi": 58,
                    "time": 117.94791666666654,
                    "velocity": 0.23622047244094488,
                    "duration": 0.3958333333333286
                },
                {
                    "name": "F1",
                    "midi": 29,
                    "time": 118.30729166666654,
                    "velocity": 0.4409448818897638,
                    "duration": 0.1510416666666572
                },
                {
                    "name": "F#3",
                    "midi": 54,
                    "time": 118.31249999999987,
                    "velocity": 0.2440944881889764,
                    "duration": 0.4270833333333286
                },
                {
                    "name": "A2",
                    "midi": 45,
                    "time": 118.7083333333332,
                    "velocity": 0.49606299212598426,
                    "duration": 0.828125
                },
                {
                    "name": "A#3",
                    "midi": 58,
                    "time": 118.71874999999987,
                    "velocity": 0.25196850393700787,
                    "duration": 0.40625
                },
                {
                    "name": "F#3",
                    "midi": 54,
                    "time": 119.0989583333332,
                    "velocity": 0.2677165354330709,
                    "duration": 0.421875
                },
                {
                    "name": "F2",
                    "midi": 41,
                    "time": 119.5052083333332,
                    "velocity": 0.4330708661417323,
                    "duration": 0.4114583333333428
                },
                {
                    "name": "A#3",
                    "midi": 58,
                    "time": 119.51041666666653,
                    "velocity": 0.25196850393700787,
                    "duration": 0.3958333333333428
                },
                {
                    "name": "F#3",
                    "midi": 54,
                    "time": 119.8958333333332,
                    "velocity": 0.25984251968503935,
                    "duration": 0.4843750000000142
                },
                {
                    "name": "E2",
                    "midi": 40,
                    "time": 119.8958333333332,
                    "velocity": 0.44881889763779526,
                    "duration": 0.07291666666668561
                },
                {
                    "name": "A#3",
                    "midi": 58,
                    "time": 120.37499999999989,
                    "velocity": 0.25984251968503935,
                    "duration": 0.4270833333333286
                },
                {
                    "name": "B4",
                    "midi": 71,
                    "time": 120.41145833333321,
                    "velocity": 0.5905511811023622,
                    "duration": 1.171875
                },
                {
                    "name": "F#3",
                    "midi": 54,
                    "time": 120.77604166666654,
                    "velocity": 0.2677165354330709,
                    "duration": 0.390625
                },
                {
                    "name": "A#3",
                    "midi": 58,
                    "time": 121.11979166666654,
                    "velocity": 0.2677165354330709,
                    "duration": 0.4322916666666714
                },
                {
                    "name": "G#4",
                    "midi": 68,
                    "time": 121.52083333333321,
                    "velocity": 0.4015748031496063,
                    "duration": 1.859375
                },
                {
                    "name": "F#3",
                    "midi": 54,
                    "time": 121.53124999999989,
                    "velocity": 0.2677165354330709,
                    "duration": 0.4427083333333286
                },
                {
                    "name": "A#3",
                    "midi": 58,
                    "time": 121.93229166666654,
                    "velocity": 0.2755905511811024,
                    "duration": 0.4218750000000142
                },
                {
                    "name": "F#3",
                    "midi": 54,
                    "time": 122.29687499999989,
                    "velocity": 0.2677165354330709,
                    "duration": 0.46875
                },
                {
                    "name": "A#3",
                    "midi": 58,
                    "time": 122.71354166666656,
                    "velocity": 0.2755905511811024,
                    "duration": 0.4218749999999858
                },
                {
                    "name": "F#3",
                    "midi": 54,
                    "time": 123.11458333333321,
                    "velocity": 0.2755905511811024,
                    "duration": 0.453125
                },
                {
                    "name": "A4",
                    "midi": 69,
                    "time": 123.52604166666654,
                    "velocity": 0.4566929133858268,
                    "duration": 0.05208333333334281
                },
                {
                    "name": "A#3",
                    "midi": 58,
                    "time": 123.52604166666654,
                    "velocity": 0.2755905511811024,
                    "duration": 0.07812500000001421
                },
                {
                    "name": "D5",
                    "midi": 74,
                    "time": 124.03645833333323,
                    "velocity": 0.5905511811023622,
                    "duration": 2.2760416666667
                },
                {
                    "name": "E4",
                    "midi": 64,
                    "time": 124.03645833333323,
                    "velocity": 0.29133858267716534,
                    "duration": 0.5000000000000142
                },
                {
                    "name": "F#3",
                    "midi": 54,
                    "time": 124.03645833333323,
                    "velocity": 0.2677165354330709,
                    "duration": 0.5052083333333428
                },
                {
                    "name": "A#3",
                    "midi": 58,
                    "time": 124.4218749999999,
                    "velocity": 0.28346456692913385,
                    "duration": 0.1510416666666714
                },
                {
                    "name": "A4",
                    "midi": 69,
                    "time": 124.79166666666657,
                    "velocity": 0.5039370078740157,
                    "duration": 0.7656250000000142
                },
                {
                    "name": "E4",
                    "midi": 64,
                    "time": 124.80208333333324,
                    "velocity": 0.28346456692913385,
                    "duration": 0.5677083333333286
                },
                {
                    "name": "F#3",
                    "midi": 54,
                    "time": 124.80208333333324,
                    "velocity": 0.2992125984251969,
                    "duration": 0.5833333333333286
                },
                {
                    "name": "A#3",
                    "midi": 58,
                    "time": 125.18229166666657,
                    "velocity": 0.31496062992125984,
                    "duration": 0.2135416666666714
                },
                {
                    "name": "G#4",
                    "midi": 68,
                    "time": 125.54687499999991,
                    "velocity": 0.5275590551181102,
                    "duration": 0.3697916666666714
                },
                {
                    "name": "E4",
                    "midi": 64,
                    "time": 125.55729166666659,
                    "velocity": 0.2755905511811024,
                    "duration": 0.5260416666666714
                },
                {
                    "name": "F#3",
                    "midi": 54,
                    "time": 125.55729166666659,
                    "velocity": 0.33070866141732286,
                    "duration": 0.5364583333333428
                },
                {
                    "name": "G4",
                    "midi": 67,
                    "time": 125.92708333333326,
                    "velocity": 0.5433070866141733,
                    "duration": 0.75
                },
                {
                    "name": "A#3",
                    "midi": 58,
                    "time": 125.92708333333326,
                    "velocity": 0.3464566929133858,
                    "duration": 0.1770833333333428
                },
                {
                    "name": "D#5",
                    "midi": 75,
                    "time": 126.29687499999993,
                    "velocity": 0.6062992125984252,
                    "duration": 1.5208333333333286
                },
                {
                    "name": "E4",
                    "midi": 64,
                    "time": 126.30208333333326,
                    "velocity": 0.33858267716535434,
                    "duration": 0.5572916666666714
                },
                {
                    "name": "F#3",
                    "midi": 54,
                    "time": 126.30208333333326,
                    "velocity": 0.36220472440944884,
                    "duration": 0.5677083333333428
                },
                {
                    "name": "A#3",
                    "midi": 58,
                    "time": 126.65624999999993,
                    "velocity": 0.33070866141732286,
                    "duration": 0.2291666666666714
                },
                {
                    "name": "B4",
                    "midi": 71,
                    "time": 126.67708333333326,
                    "velocity": 0.5433070866141733,
                    "duration": 0.3854166666666856
                },
                {
                    "name": "F#3",
                    "midi": 54,
                    "time": 127.0260416666666,
                    "velocity": 0.3779527559055118,
                    "duration": 0.5677083333333286
                },
                {
                    "name": "E4",
                    "midi": 64,
                    "time": 127.03645833333327,
                    "velocity": 0.3700787401574803,
                    "duration": 0.5729166666666572
                },
                {
                    "name": "G4",
                    "midi": 67,
                    "time": 127.05208333333327,
                    "velocity": 0.5275590551181102,
                    "duration": 0.2760416666666714
                },
                {
                    "name": "A#3",
                    "midi": 58,
                    "time": 127.40624999999994,
                    "velocity": 0.3779527559055118,
                    "duration": 0.2031249999999858
                },
                {
                    "name": "B4",
                    "midi": 71,
                    "time": 127.43749999999994,
                    "velocity": 0.4645669291338583,
                    "duration": 0.8281249999999716
                },
                {
                    "name": "E4",
                    "midi": 64,
                    "time": 127.78645833333326,
                    "velocity": 0.4094488188976378,
                    "duration": 0.5624999999999716
                },
                {
                    "name": "F#3",
                    "midi": 54,
                    "time": 127.78645833333326,
                    "velocity": 0.3543307086614173,
                    "duration": 0.5624999999999716
                },
                {
                    "name": "D5",
                    "midi": 74,
                    "time": 127.80729166666659,
                    "velocity": 0.5905511811023622,
                    "duration": 0.4895833333333286
                },
                {
                    "name": "A#3",
                    "midi": 58,
                    "time": 128.15624999999991,
                    "velocity": 0.41732283464566927,
                    "duration": 0.1822916666666572
                },
                {
                    "name": "E4",
                    "midi": 64,
                    "time": 128.5781249999999,
                    "velocity": 0.4566929133858268,
                    "duration": 0.5000000000000284
                },
                {
                    "name": "F#3",
                    "midi": 54,
                    "time": 128.5781249999999,
                    "velocity": 0.44881889763779526,
                    "duration": 0.5468750000000284
                },
                {
                    "name": "F5",
                    "midi": 77,
                    "time": 128.60416666666654,
                    "velocity": 0.6929133858267716,
                    "duration": 1.921875
                },
                {
                    "name": "A#3",
                    "midi": 58,
                    "time": 128.9531249999999,
                    "velocity": 0.48031496062992124,
                    "duration": 0.19791666666668561
                },
                {
                    "name": "C4",
                    "midi": 60,
                    "time": 129.31770833333323,
                    "velocity": 0.49606299212598426,
                    "duration": 0.4739583333333428
                },
                {
                    "name": "C#5",
                    "midi": 73,
                    "time": 129.31770833333323,
                    "velocity": 0.5826771653543307,
                    "duration": 0.7135416666666572
                },
                {
                    "name": "D3",
                    "midi": 50,
                    "time": 129.31770833333323,
                    "velocity": 0.5354330708661418,
                    "duration": 0.5052083333333428
                },
                {
                    "name": "F#3",
                    "midi": 54,
                    "time": 129.69791666666657,
                    "velocity": 0.5354330708661418,
                    "duration": 0.1354166666666572
                },
                {
                    "name": "C5",
                    "midi": 72,
                    "time": 130.0468749999999,
                    "velocity": 0.6692913385826772,
                    "duration": 0.3802083333333144
                },
                {
                    "name": "A2",
                    "midi": 45,
                    "time": 130.0468749999999,
                    "velocity": 0.5511811023622047,
                    "duration": 0.5
                },
                {
                    "name": "G3",
                    "midi": 55,
                    "time": 130.05208333333323,
                    "velocity": 0.5196850393700787,
                    "duration": 0.4791666666666572
                },
                {
                    "name": "B4",
                    "midi": 71,
                    "time": 130.43229166666654,
                    "velocity": 0.6456692913385826,
                    "duration": 0.08333333333334281
                },
                {
                    "name": "C#3",
                    "midi": 49,
                    "time": 130.43229166666654,
                    "velocity": 0.5748031496062992,
                    "duration": 0.11458333333334281
                },
                {
                    "name": "A5",
                    "midi": 81,
                    "time": 130.86979166666654,
                    "velocity": 0.7716535433070866,
                    "duration": 1.7968750000000568
                },
                {
                    "name": "A#4",
                    "midi": 70,
                    "time": 130.86979166666654,
                    "velocity": 0.6299212598425197,
                    "duration": 0.6250000000000568
                },
                {
                    "name": "F2",
                    "midi": 41,
                    "time": 130.86979166666654,
                    "velocity": 0.6141732283464567,
                    "duration": 0.526041666666714
                },
                {
                    "name": "D#3",
                    "midi": 51,
                    "time": 130.86979166666654,
                    "velocity": 0.6062992125984252,
                    "duration": 0.48958333333337123
                },
                {
                    "name": "D5",
                    "midi": 74,
                    "time": 131.26041666666657,
                    "velocity": 0.6771653543307087,
                    "duration": 0.6822916666666856
                },
                {
                    "name": "A2",
                    "midi": 45,
                    "time": 131.26041666666657,
                    "velocity": 0.6535433070866141,
                    "duration": 0.18229166666668561
                },
                {
                    "name": "A#4",
                    "midi": 70,
                    "time": 131.6822916666666,
                    "velocity": 0.6299212598425197,
                    "duration": 0.2447916666666572
                },
                {
                    "name": "B2",
                    "midi": 47,
                    "time": 131.6822916666666,
                    "velocity": 0.6141732283464567,
                    "duration": 0.5520833333333144
                },
                {
                    "name": "D#2",
                    "midi": 39,
                    "time": 131.6822916666666,
                    "velocity": 0.5748031496062992,
                    "duration": 0.5520833333333144
                },
                {
                    "name": "D5",
                    "midi": 74,
                    "time": 132.1197916666666,
                    "velocity": 0.5826771653543307,
                    "duration": 1.2708333333333428
                },
                {
                    "name": "F2",
                    "midi": 41,
                    "time": 132.1197916666666,
                    "velocity": 0.5275590551181102,
                    "duration": 0.19270833333331439
                },
                {
                    "name": "G#2",
                    "midi": 44,
                    "time": 132.56249999999991,
                    "velocity": 0.5905511811023622,
                    "duration": 0.7864583333333428
                },
                {
                    "name": "A#1",
                    "midi": 34,
                    "time": 132.56249999999991,
                    "velocity": 0.49606299212598426,
                    "duration": 0.7916666666666856
                },
                {
                    "name": "F#5",
                    "midi": 78,
                    "time": 132.6510416666666,
                    "velocity": 0.5590551181102362,
                    "duration": 0.75
                },
                {
                    "name": "D2",
                    "midi": 38,
                    "time": 133.17187499999994,
                    "velocity": 0.3858267716535433,
                    "duration": 0.1666666666666572
                },
                {
                    "name": "C#4",
                    "midi": 61,
                    "time": 134.3020833333333,
                    "velocity": 0.3464566929133858,
                    "duration": 0.11458333333334281
                },
                {
                    "name": "G4",
                    "midi": 67,
                    "time": 134.30729166666663,
                    "velocity": 0.23622047244094488,
                    "duration": 0.5833333333333144
                },
                {
                    "name": "C5",
                    "midi": 72,
                    "time": 134.30729166666663,
                    "velocity": 0.25984251968503935,
                    "duration": 0.1875
                },
                {
                    "name": "F5",
                    "midi": 77,
                    "time": 134.30729166666663,
                    "velocity": 0.5433070866141733,
                    "duration": 0.1770833333333428
                },
                {
                    "name": "E5",
                    "midi": 76,
                    "time": 134.76041666666663,
                    "velocity": 0.49606299212598426,
                    "duration": 0.07291666666665719
                },
                {
                    "name": "F4",
                    "midi": 65,
                    "time": 134.7708333333333,
                    "velocity": 0.36220472440944884,
                    "duration": 0.046875
                },
                {
                    "name": "B4",
                    "midi": 71,
                    "time": 134.7708333333333,
                    "velocity": 0.36220472440944884,
                    "duration": 0.07291666666665719
                },
                {
                    "name": "F4",
                    "midi": 65,
                    "time": 135.20312499999994,
                    "velocity": 0.3937007874015748,
                    "duration": 1.4062499999999716
                },
                {
                    "name": "B4",
                    "midi": 71,
                    "time": 135.20312499999994,
                    "velocity": 0.4566929133858268,
                    "duration": 1.4166666666666288
                },
                {
                    "name": "G#3",
                    "midi": 56,
                    "time": 135.20312499999994,
                    "velocity": 0.2992125984251969,
                    "duration": 0.0625
                },
                {
                    "name": "C4",
                    "midi": 60,
                    "time": 135.2083333333333,
                    "velocity": 0.25196850393700787,
                    "duration": 1.411458333333286
                },
                {
                    "name": "C#4",
                    "midi": 61,
                    "time": 135.3697916666666,
                    "velocity": 0.3779527559055118,
                    "duration": 0.026041666666657193
                },
                {
                    "name": "D3",
                    "midi": 50,
                    "time": 135.48437499999991,
                    "velocity": 0.3937007874015748,
                    "duration": 0.046875
                },
                {
                    "name": "G2",
                    "midi": 43,
                    "time": 135.71354166666657,
                    "velocity": 0.33070866141732286,
                    "duration": 0.5364583333333144
                },
                {
                    "name": "A#2",
                    "midi": 46,
                    "time": 136.45833333333323,
                    "velocity": 0.25984251968503935,
                    "duration": 0.15104166666668561
                },
                {
                    "name": "G#4",
                    "midi": 68,
                    "time": 137.10416666666657,
                    "velocity": 0.3228346456692913,
                    "duration": 0.14062499999997158
                },
                {
                    "name": "C#5",
                    "midi": 73,
                    "time": 137.10416666666657,
                    "velocity": 0.4251968503937008,
                    "duration": 0.17187499999997158
                },
                {
                    "name": "A3",
                    "midi": 57,
                    "time": 137.10416666666657,
                    "velocity": 0.28346456692913385,
                    "duration": 0.14062499999997158
                },
                {
                    "name": "D#4",
                    "midi": 63,
                    "time": 137.11458333333323,
                    "velocity": 0.29133858267716534,
                    "duration": 0.16145833333331439
                },
                {
                    "name": "G4",
                    "midi": 67,
                    "time": 137.5833333333332,
                    "velocity": 0.2440944881889764,
                    "duration": 0.1302083333333428
                },
                {
                    "name": "C5",
                    "midi": 72,
                    "time": 137.5833333333332,
                    "velocity": 0.36220472440944884,
                    "duration": 0.11979166666668561
                },
                {
                    "name": "C#4",
                    "midi": 61,
                    "time": 137.59374999999986,
                    "velocity": 0.29133858267716534,
                    "duration": 0.10416666666668561
                },
                {
                    "name": "E4",
                    "midi": 64,
                    "time": 138.10416666666654,
                    "velocity": 0.2677165354330709,
                    "duration": 1.0416666666666856
                },
                {
                    "name": "A4",
                    "midi": 69,
                    "time": 138.10416666666654,
                    "velocity": 0.31496062992125984,
                    "duration": 1.0520833333333428
                },
                {
                    "name": "F#3",
                    "midi": 54,
                    "time": 138.10416666666654,
                    "velocity": 0.29133858267716534,
                    "duration": 0.10416666666668561
                },
                {
                    "name": "A#3",
                    "midi": 58,
                    "time": 138.13020833333323,
                    "velocity": 0.2440944881889764,
                    "duration": 1.015625
                },
                {
                    "name": "B3",
                    "midi": 59,
                    "time": 138.34895833333323,
                    "velocity": 0.33858267716535434,
                    "duration": 0.03125
                },
                {
                    "name": "A#2",
                    "midi": 46,
                    "time": 138.55208333333323,
                    "velocity": 0.36220472440944884,
                    "duration": 0.3958333333333428
                },
                {
                    "name": "D2",
                    "midi": 38,
                    "time": 138.94791666666657,
                    "velocity": 0.2755905511811024,
                    "duration": 1.1249999999999716
                },
                {
                    "name": "G2",
                    "midi": 43,
                    "time": 139.91666666666654,
                    "velocity": 0.23622047244094488,
                    "duration": 0.46875
                },
                {
                    "name": "F#2",
                    "midi": 42,
                    "time": 140.36979166666654,
                    "velocity": 0.2204724409448819,
                    "duration": 0.4947916666666572
                },
                {
                    "name": "D#2",
                    "midi": 39,
                    "time": 140.82291666666654,
                    "velocity": 0.2047244094488189,
                    "duration": 0.4427083333333144
                },
                {
                    "name": "F#2",
                    "midi": 42,
                    "time": 141.2395833333332,
                    "velocity": 0.2047244094488189,
                    "duration": 0.453125
                },
                {
                    "name": "D#2",
                    "midi": 39,
                    "time": 141.65624999999986,
                    "velocity": 0.1968503937007874,
                    "duration": 0.4322916666666856
                },
                {
                    "name": "F#2",
                    "midi": 42,
                    "time": 142.08854166666654,
                    "velocity": 0.2047244094488189,
                    "duration": 0.4322916666666572
                },
                {
                    "name": "D#2",
                    "midi": 39,
                    "time": 142.51041666666654,
                    "velocity": 0.2125984251968504,
                    "duration": 0.4114583333333144
                },
                {
                    "name": "B3",
                    "midi": 59,
                    "time": 142.68229166666654,
                    "velocity": 0.2755905511811024,
                    "duration": 0.046875
                },
                {
                    "name": "A4",
                    "midi": 69,
                    "time": 142.7864583333332,
                    "velocity": 0.31496062992125984,
                    "duration": 0.03125
                },
                {
                    "name": "F4",
                    "midi": 65,
                    "time": 142.7864583333332,
                    "velocity": 0.3228346456692913,
                    "duration": 0.026041666666657193
                },
                {
                    "name": "C#5",
                    "midi": 73,
                    "time": 142.90624999999986,
                    "velocity": 0.3700787401574803,
                    "duration": 0.2239583333333428
                },
                {
                    "name": "F#2",
                    "midi": 42,
                    "time": 142.90624999999986,
                    "velocity": 0.23622047244094488,
                    "duration": 0.4010416666666572
                },
                {
                    "name": "D#2",
                    "midi": 39,
                    "time": 143.29687499999986,
                    "velocity": 0.1968503937007874,
                    "duration": 0.390625
                },
                {
                    "name": "F#4",
                    "midi": 66,
                    "time": 143.32291666666652,
                    "velocity": 0.23622047244094488,
                    "duration": 0.42708333333339965
                },
                {
                    "name": "A4",
                    "midi": 69,
                    "time": 143.32812499999986,
                    "velocity": 0.3543307086614173,
                    "duration": 0.140625
                },
                {
                    "name": "E4",
                    "midi": 64,
                    "time": 143.32812499999986,
                    "velocity": 0.2677165354330709,
                    "duration": 0.41145833333337123
                },
                {
                    "name": "B3",
                    "midi": 59,
                    "time": 143.32812499999986,
                    "velocity": 0.2283464566929134,
                    "duration": 0.41145833333337123
                },
                {
                    "name": "F#2",
                    "midi": 42,
                    "time": 143.6927083333332,
                    "velocity": 0.2125984251968504,
                    "duration": 0.6302083333333712
                },
                {
                    "name": "B4",
                    "midi": 71,
                    "time": 143.7031249999999,
                    "velocity": 0.3858267716535433,
                    "duration": 0.041666666666685614
                },
                {
                    "name": "G3",
                    "midi": 55,
                    "time": 143.88020833333326,
                    "velocity": 0.29133858267716534,
                    "duration": 0.125
                },
                {
                    "name": "D#4",
                    "midi": 63,
                    "time": 143.9635416666666,
                    "velocity": 0.3228346456692913,
                    "duration": 0.10937499999997158
                },
                {
                    "name": "A4",
                    "midi": 69,
                    "time": 144.06249999999991,
                    "velocity": 0.3858267716535433,
                    "duration": 0.026041666666657193
                },
                {
                    "name": "D#2",
                    "midi": 39,
                    "time": 144.09895833333323,
                    "velocity": 0.2440944881889764,
                    "duration": 0.5052083333333428
                },
                {
                    "name": "D5",
                    "midi": 74,
                    "time": 144.19791666666657,
                    "velocity": 0.49606299212598426,
                    "duration": 0.1770833333333428
                },
                {
                    "name": "E3",
                    "midi": 52,
                    "time": 144.57812499999991,
                    "velocity": 0.4015748031496063,
                    "duration": 0.604166666666714
                },
                {
                    "name": "F#2",
                    "midi": 42,
                    "time": 144.57812499999991,
                    "velocity": 0.2125984251968504,
                    "duration": 0.4531250000000284
                },
                {
                    "name": "A5",
                    "midi": 81,
                    "time": 144.58854166666657,
                    "velocity": 0.4251968503937008,
                    "duration": 1.1093750000000568
                },
                {
                    "name": "F#5",
                    "midi": 78,
                    "time": 144.58854166666657,
                    "velocity": 0.31496062992125984,
                    "duration": 1.1093750000000568
                },
                {
                    "name": "E5",
                    "midi": 76,
                    "time": 144.59374999999991,
                    "velocity": 0.28346456692913385,
                    "duration": 1.104166666666714
                },
                {
                    "name": "A#4",
                    "midi": 70,
                    "time": 144.59374999999991,
                    "velocity": 0.28346456692913385,
                    "duration": 1.104166666666714
                },
                {
                    "name": "D#2",
                    "midi": 39,
                    "time": 145.02083333333326,
                    "velocity": 0.2047244094488189,
                    "duration": 0.5208333333333712
                },
                {
                    "name": "D3",
                    "midi": 50,
                    "time": 145.49999999999997,
                    "velocity": 0.28346456692913385,
                    "duration": 2.635416666666657
                },
                {
                    "name": "F#2",
                    "midi": 42,
                    "time": 145.49999999999997,
                    "velocity": 0.2283464566929134,
                    "duration": 0.4479166666666856
                },
                {
                    "name": "G#5",
                    "midi": 80,
                    "time": 145.82291666666663,
                    "velocity": 0.3464566929133858,
                    "duration": 0.15104166666668561
                },
                {
                    "name": "D#2",
                    "midi": 39,
                    "time": 145.92708333333331,
                    "velocity": 0.2283464566929134,
                    "duration": 0.4635416666666572
                },
                {
                    "name": "C#6",
                    "midi": 85,
                    "time": 145.94270833333331,
                    "velocity": 0.4330708661417323,
                    "duration": 0.03125
                },
                {
                    "name": "F#2",
                    "midi": 42,
                    "time": 146.35937499999997,
                    "velocity": 0.2125984251968504,
                    "duration": 0.4270833333333428
                },
                {
                    "name": "C5",
                    "midi": 72,
                    "time": 146.36979166666663,
                    "velocity": 0.4251968503937008,
                    "duration": 0.09375000000002842
                },
                {
                    "name": "A4",
                    "midi": 69,
                    "time": 146.36979166666663,
                    "velocity": 0.25984251968503935,
                    "duration": 0.08854166666668561
                },
                {
                    "name": "D#2",
                    "midi": 39,
                    "time": 146.80208333333331,
                    "velocity": 0.2204724409448819,
                    "duration": 0.49479166666662877
                },
                {
                    "name": "D#4",
                    "midi": 63,
                    "time": 146.81249999999997,
                    "velocity": 0.3543307086614173,
                    "duration": 0.13020833333331439
                },
                {
                    "name": "A4",
                    "midi": 69,
                    "time": 147.23437499999994,
                    "velocity": 0.29133858267716534,
                    "duration": 2.0781250000000284
                },
                {
                    "name": "F#4",
                    "midi": 66,
                    "time": 147.23437499999994,
                    "velocity": 0.2047244094488189,
                    "duration": 2.0781250000000284
                },
                {
                    "name": "F#2",
                    "midi": 42,
                    "time": 147.23437499999994,
                    "velocity": 0.2047244094488189,
                    "duration": 0.4270833333333428
                },
                {
                    "name": "A#3",
                    "midi": 58,
                    "time": 147.23437499999994,
                    "velocity": 0.2204724409448819,
                    "duration": 2.0833333333333712
                },
                {
                    "name": "E4",
                    "midi": 64,
                    "time": 147.24999999999994,
                    "velocity": 0.18110236220472442,
                    "duration": 2.0572916666666856
                },
                {
                    "name": "D#2",
                    "midi": 39,
                    "time": 147.6458333333333,
                    "velocity": 0.2283464566929134,
                    "duration": 0.4375
                },
                {
                    "name": "F#2",
                    "midi": 42,
                    "time": 148.05729166666663,
                    "velocity": 0.23622047244094488,
                    "duration": 0.4583333333333144
                },
                {
                    "name": "D#2",
                    "midi": 39,
                    "time": 148.4739583333333,
                    "velocity": 0.2283464566929134,
                    "duration": 0.453125
                },
                {
                    "name": "F#2",
                    "midi": 42,
                    "time": 148.89062499999994,
                    "velocity": 0.2204724409448819,
                    "duration": 0.43229166666671404
                },
                {
                    "name": "D#2",
                    "midi": 39,
                    "time": 149.31249999999997,
                    "velocity": 0.23622047244094488,
                    "duration": 0.4739583333333428
                },
                {
                    "name": "F#2",
                    "midi": 42,
                    "time": 149.73958333333331,
                    "velocity": 0.25196850393700787,
                    "duration": 0.421875
                },
                {
                    "name": "F3",
                    "midi": 53,
                    "time": 149.73958333333331,
                    "velocity": 0.3779527559055118,
                    "duration": 0.8177083333333144
                },
                {
                    "name": "D#2",
                    "midi": 39,
                    "time": 150.15104166666666,
                    "velocity": 0.23622047244094488,
                    "duration": 0.42708333333328596
                },
                {
                    "name": "E3",
                    "midi": 52,
                    "time": 150.54687499999997,
                    "velocity": 0.29133858267716534,
                    "duration": 1.0729166666666572
                },
                {
                    "name": "F#2",
                    "midi": 42,
                    "time": 150.5677083333333,
                    "velocity": 0.2047244094488189,
                    "duration": 0.4270833333333428
                },
                {
                    "name": "D#2",
                    "midi": 39,
                    "time": 150.9739583333333,
                    "velocity": 0.1968503937007874,
                    "duration": 0.4375
                },
                {
                    "name": "F#2",
                    "midi": 42,
                    "time": 151.40104166666663,
                    "velocity": 0.1889763779527559,
                    "duration": 0.4166666666666572
                },
                {
                    "name": "D#2",
                    "midi": 39,
                    "time": 151.82812499999994,
                    "velocity": 0.18110236220472442,
                    "duration": 0.4270833333333144
                },
                {
                    "name": "F4",
                    "midi": 65,
                    "time": 152.1197916666666,
                    "velocity": 0.3700787401574803,
                    "duration": 0.14583333333331439
                },
                {
                    "name": "F#2",
                    "midi": 42,
                    "time": 152.22395833333326,
                    "velocity": 0.1968503937007874,
                    "duration": 0.4843749999999716
                },
                {
                    "name": "A#4",
                    "midi": 70,
                    "time": 152.23958333333326,
                    "velocity": 0.41732283464566927,
                    "duration": 0.036458333333314386
                },
                {
                    "name": "D#2",
                    "midi": 39,
                    "time": 152.69791666666657,
                    "velocity": 0.1889763779527559,
                    "duration": 0.5260416666666856
                },
                {
                    "name": "F3",
                    "midi": 53,
                    "time": 152.72916666666657,
                    "velocity": 0.3228346456692913,
                    "duration": 0.5364583333333712
                },
                {
                    "name": "A3",
                    "midi": 57,
                    "time": 152.72916666666657,
                    "velocity": 0.3937007874015748,
                    "duration": 0.7187500000000284
                },
                {
                    "name": "F#2",
                    "midi": 42,
                    "time": 153.20833333333326,
                    "velocity": 0.1889763779527559,
                    "duration": 0.4947916666666856
                },
                {
                    "name": "D3",
                    "midi": 50,
                    "time": 153.3072916666666,
                    "velocity": 0.28346456692913385,
                    "duration": 1.8541666666666856
                },
                {
                    "name": "D#2",
                    "midi": 39,
                    "time": 153.6822916666666,
                    "velocity": 0.18110236220472442,
                    "duration": 0.5468750000000284
                },
                {
                    "name": "F#2",
                    "midi": 42,
                    "time": 154.2083333333333,
                    "velocity": 0.1732283464566929,
                    "duration": 0.6197916666666572
                },
                {
                    "name": "D#2",
                    "midi": 39,
                    "time": 154.7395833333333,
                    "velocity": 0.1732283464566929,
                    "duration": 0.6666666666666572
                },
                {
                    "name": "F#2",
                    "midi": 42,
                    "time": 155.3177083333333,
                    "velocity": 0.1732283464566929,
                    "duration": 0.6875
                },
                {
                    "name": "D#2",
                    "midi": 39,
                    "time": 156.0052083333333,
                    "velocity": 0.16535433070866143,
                    "duration": 0.4114583333333428
                },
                {
                    "name": "D3",
                    "midi": 50,
                    "time": 157.45312499999997,
                    "velocity": 0.2047244094488189,
                    "duration": 1.359375
                },
                {
                    "name": "B3",
                    "midi": 59,
                    "time": 157.45312499999997,
                    "velocity": 0.2047244094488189,
                    "duration": 1.359375
                },
                {
                    "name": "F3",
                    "midi": 53,
                    "time": 157.45312499999997,
                    "velocity": 0.23622047244094488,
                    "duration": 1.375
                },
                {
                    "name": "A#4",
                    "midi": 70,
                    "time": 157.99999999999997,
                    "velocity": 0.4330708661417323,
                    "duration": 0.109375
                },
                {
                    "name": "D5",
                    "midi": 74,
                    "time": 158.63541666666663,
                    "velocity": 0.4881889763779528,
                    "duration": 0.9531250000000284
                },
                {
                    "name": "C#4",
                    "midi": 61,
                    "time": 159.23437499999997,
                    "velocity": 0.16535433070866143,
                    "duration": 0.8177083333333428
                },
                {
                    "name": "D3",
                    "midi": 50,
                    "time": 159.24999999999997,
                    "velocity": 0.18110236220472442,
                    "duration": 0.8229166666666856
                },
                {
                    "name": "F3",
                    "midi": 53,
                    "time": 159.24999999999997,
                    "velocity": 0.18110236220472442,
                    "duration": 0.8072916666666856
                },
                {
                    "name": "A5",
                    "midi": 81,
                    "time": 159.84895833333331,
                    "velocity": 0.44881889763779526,
                    "duration": 1.1979166666666856
                },
                {
                    "name": "B3",
                    "midi": 59,
                    "time": 160.4375,
                    "velocity": 0.18110236220472442,
                    "duration": 1.3385416666666856
                },
                {
                    "name": "D3",
                    "midi": 50,
                    "time": 160.4375,
                    "velocity": 0.2283464566929134,
                    "duration": 1.3593750000000284
                },
                {
                    "name": "F3",
                    "midi": 53,
                    "time": 160.4375,
                    "velocity": 0.18110236220472442,
                    "duration": 1.3385416666666856
                },
                {
                    "name": "E5",
                    "midi": 76,
                    "time": 161,
                    "velocity": 0.3464566929133858,
                    "duration": 0.6145833333333428
                },
                {
                    "name": "D3",
                    "midi": 50,
                    "time": 162.11458333333337,
                    "velocity": 0.2440944881889764,
                    "duration": 1.5364583333333428
                },
                {
                    "name": "F3",
                    "midi": 53,
                    "time": 162.13020833333337,
                    "velocity": 0.2283464566929134,
                    "duration": 1.5208333333333428
                },
                {
                    "name": "B3",
                    "midi": 59,
                    "time": 162.13020833333337,
                    "velocity": 0.2204724409448819,
                    "duration": 1.5208333333333428
                },
                {
                    "name": "G#5",
                    "midi": 80,
                    "time": 162.7916666666667,
                    "velocity": 0.4015748031496063,
                    "duration": 0.2864583333333428
                },
                {
                    "name": "C4",
                    "midi": 60,
                    "time": 163.9791666666667,
                    "velocity": 0.2047244094488189,
                    "duration": 0.7604166666666288
                },
                {
                    "name": "C#3",
                    "midi": 49,
                    "time": 163.9791666666667,
                    "velocity": 0.2047244094488189,
                    "duration": 0.786458333333286
                },
                {
                    "name": "A#4",
                    "midi": 70,
                    "time": 163.98958333333337,
                    "velocity": 0.36220472440944884,
                    "duration": 2.9947916666666288
                },
                {
                    "name": "E3",
                    "midi": 52,
                    "time": 164.03125000000003,
                    "velocity": 0.1968503937007874,
                    "duration": 0.7447916666666288
                },
                {
                    "name": "A3",
                    "midi": 57,
                    "time": 165.48958333333331,
                    "velocity": 0.1732283464566929,
                    "duration": 1.984375
                },
                {
                    "name": "A#2",
                    "midi": 46,
                    "time": 165.48958333333331,
                    "velocity": 0.16535433070866143,
                    "duration": 1.953125
                },
                {
                    "name": "D#3",
                    "midi": 51,
                    "time": 165.48958333333331,
                    "velocity": 0.1732283464566929,
                    "duration": 1.984375
                },
                {
                    "name": "D#5",
                    "midi": 75,
                    "time": 167.19791666666666,
                    "velocity": 0.2204724409448819,
                    "duration": 0.4895833333333144
                },
                {
                    "name": "E6",
                    "midi": 88,
                    "time": 169.48958333333331,
                    "velocity": 0.4015748031496063,
                    "duration": 0.5989583333333144
                },
                {
                    "name": "C6",
                    "midi": 84,
                    "time": 169.48958333333331,
                    "velocity": 0.36220472440944884,
                    "duration": 0.6770833333333428
                },
                {
                    "name": "G#5",
                    "midi": 80,
                    "time": 169.76041666666666,
                    "velocity": 0.29133858267716534,
                    "duration": 0.3489583333333144
                },
                {
                    "name": "C#5",
                    "midi": 73,
                    "time": 169.91145833333331,
                    "velocity": 0.2283464566929134,
                    "duration": 0.203125
                },
                {
                    "name": "A4",
                    "midi": 69,
                    "time": 170.05208333333331,
                    "velocity": 0.2125984251968504,
                    "duration": 0.06770833333334281
                },
                {
                    "name": "G6",
                    "midi": 91,
                    "time": 170.07812499999997,
                    "velocity": 0.3464566929133858,
                    "duration": 0.10416666666668561
                },
                {
                    "name": "F6",
                    "midi": 89,
                    "time": 170.390625,
                    "velocity": 0.3700787401574803,
                    "duration": 1.0260416666666856
                },
                {
                    "name": "C#5",
                    "midi": 73,
                    "time": 170.39583333333334,
                    "velocity": 0.2204724409448819,
                    "duration": 0.6197916666666856
                },
                {
                    "name": "C6",
                    "midi": 84,
                    "time": 170.39583333333334,
                    "velocity": 0.33070866141732286,
                    "duration": 0.3229166666666856
                },
                {
                    "name": "G5",
                    "midi": 79,
                    "time": 170.39583333333334,
                    "velocity": 0.23622047244094488,
                    "duration": 0.4479166666666856
                },
                {
                    "name": "D6",
                    "midi": 86,
                    "time": 170.84375000000003,
                    "velocity": 0.3543307086614173,
                    "duration": 0.5729166666666572
                },
                {
                    "name": "A#5",
                    "midi": 82,
                    "time": 171.01562500000003,
                    "velocity": 0.3937007874015748,
                    "duration": 0.1510416666666572
                },
                {
                    "name": "F#5",
                    "midi": 78,
                    "time": 171.16666666666669,
                    "velocity": 0.4094488188976378,
                    "duration": 0.08333333333331439
                },
                {
                    "name": "F5",
                    "midi": 77,
                    "time": 171.39583333333334,
                    "velocity": 0.3700787401574803,
                    "duration": 0.3281250000000284
                },
                {
                    "name": "G#4",
                    "midi": 68,
                    "time": 171.70312500000003,
                    "velocity": 0.31496062992125984,
                    "duration": 0.6406250000000568
                },
                {
                    "name": "C#4",
                    "midi": 61,
                    "time": 171.8854166666667,
                    "velocity": 0.2755905511811024,
                    "duration": 0.45833333333337123
                },
                {
                    "name": "A3",
                    "midi": 57,
                    "time": 172.09375000000006,
                    "velocity": 0.1968503937007874,
                    "duration": 0.23437500000002842
                },
                {
                    "name": "E5",
                    "midi": 76,
                    "time": 172.1145833333334,
                    "velocity": 0.3464566929133858,
                    "duration": 0.2916666666666856
                },
                {
                    "name": "G5",
                    "midi": 79,
                    "time": 172.1145833333334,
                    "velocity": 0.3858267716535433,
                    "duration": 0.6770833333333428
                },
                {
                    "name": "C5",
                    "midi": 72,
                    "time": 172.11979166666674,
                    "velocity": 0.2677165354330709,
                    "duration": 0.78125
                },
                {
                    "name": "A5",
                    "midi": 81,
                    "time": 172.79166666666674,
                    "velocity": 0.3779527559055118,
                    "duration": 0.3385416666666856
                },
                {
                    "name": "F#5",
                    "midi": 78,
                    "time": 173.12500000000009,
                    "velocity": 0.36220472440944884,
                    "duration": 0.3645833333333428
                },
                {
                    "name": "F5",
                    "midi": 77,
                    "time": 173.47395833333343,
                    "velocity": 0.3858267716535433,
                    "duration": 0.3802083333333428
                },
                {
                    "name": "G4",
                    "midi": 67,
                    "time": 173.83333333333343,
                    "velocity": 0.33070866141732286,
                    "duration": 0.6093750000000568
                },
                {
                    "name": "C4",
                    "midi": 60,
                    "time": 173.9843750000001,
                    "velocity": 0.33858267716535434,
                    "duration": 0.4531250000000284
                },
                {
                    "name": "G#3",
                    "midi": 56,
                    "time": 174.1406250000001,
                    "velocity": 0.1889763779527559,
                    "duration": 0.30729166666671404
                },
                {
                    "name": "G5",
                    "midi": 79,
                    "time": 174.17708333333346,
                    "velocity": 0.3937007874015748,
                    "duration": 0.7395833333333712
                },
                {
                    "name": "D#5",
                    "midi": 75,
                    "time": 174.17708333333346,
                    "velocity": 0.3543307086614173,
                    "duration": 0.27083333333337123
                },
                {
                    "name": "B4",
                    "midi": 71,
                    "time": 174.1822916666668,
                    "velocity": 0.33858267716535434,
                    "duration": 0.7812500000000284
                },
                {
                    "name": "G#5",
                    "midi": 80,
                    "time": 174.91666666666683,
                    "velocity": 0.3464566929133858,
                    "duration": 0.40625
                },
                {
                    "name": "E5",
                    "midi": 76,
                    "time": 175.31250000000017,
                    "velocity": 0.3228346456692913,
                    "duration": 0.4114583333333428
                },
                {
                    "name": "D#5",
                    "midi": 75,
                    "time": 175.70312500000017,
                    "velocity": 0.2992125984251969,
                    "duration": 0.4166666666666856
                },
                {
                    "name": "G4",
                    "midi": 67,
                    "time": 176.0989583333335,
                    "velocity": 0.2204724409448819,
                    "duration": 0.8697916666666856
                },
                {
                    "name": "C#5",
                    "midi": 73,
                    "time": 176.1250000000002,
                    "velocity": 0.28346456692913385,
                    "duration": 0.1770833333333428
                },
                {
                    "name": "C4",
                    "midi": 60,
                    "time": 176.3281250000002,
                    "velocity": 0.25196850393700787,
                    "duration": 0.640625
                },
                {
                    "name": "A3",
                    "midi": 57,
                    "time": 176.5781250000002,
                    "velocity": 0.2283464566929134,
                    "duration": 0.4166666666666572
                },
                {
                    "name": "G5",
                    "midi": 79,
                    "time": 176.59895833333354,
                    "velocity": 0.2755905511811024,
                    "duration": 1.1354166666666572
                },
                {
                    "name": "G#4",
                    "midi": 68,
                    "time": 176.59895833333354,
                    "velocity": 0.2440944881889764,
                    "duration": 1.0989583333333144
                },
                {
                    "name": "C5",
                    "midi": 72,
                    "time": 176.6093750000002,
                    "velocity": 0.2440944881889764,
                    "duration": 0.4166666666666572
                },
                {
                    "name": "E5",
                    "midi": 76,
                    "time": 177.69791666666686,
                    "velocity": 0.2755905511811024,
                    "duration": 0.8958333333333428
                },
                {
                    "name": "B4",
                    "midi": 71,
                    "time": 178.4843750000002,
                    "velocity": 0.28346456692913385,
                    "duration": 1.375
                },
                {
                    "name": "A#4",
                    "midi": 70,
                    "time": 179.69791666666686,
                    "velocity": 0.2440944881889764,
                    "duration": 1.4114583333333428
                },
                {
                    "name": "F3",
                    "midi": 53,
                    "time": 180.45833333333354,
                    "velocity": 0.2125984251968504,
                    "duration": 1.3489583333333144
                },
                {
                    "name": "D3",
                    "midi": 50,
                    "time": 180.45833333333354,
                    "velocity": 0.2283464566929134,
                    "duration": 1.3541666666666572
                },
                {
                    "name": "B3",
                    "midi": 59,
                    "time": 180.45833333333354,
                    "velocity": 0.2204724409448819,
                    "duration": 1.3489583333333144
                },
                {
                    "name": "D5",
                    "midi": 74,
                    "time": 181.5312500000002,
                    "velocity": 0.31496062992125984,
                    "duration": 0.8177083333333428
                },
                {
                    "name": "C#4",
                    "midi": 61,
                    "time": 182.1093750000002,
                    "velocity": 0.16535433070866143,
                    "duration": 0.6093750000000284
                },
                {
                    "name": "D3",
                    "midi": 50,
                    "time": 182.1093750000002,
                    "velocity": 0.18110236220472442,
                    "duration": 0.6406250000000284
                },
                {
                    "name": "F3",
                    "midi": 53,
                    "time": 182.13020833333354,
                    "velocity": 0.18110236220472442,
                    "duration": 0.6093750000000284
                },
                {
                    "name": "A5",
                    "midi": 81,
                    "time": 182.58854166666688,
                    "velocity": 0.28346456692913385,
                    "duration": 0.984375
                },
                {
                    "name": "D3",
                    "midi": 50,
                    "time": 183.11458333333357,
                    "velocity": 0.18110236220472442,
                    "duration": 0.9791666666666288
                },
                {
                    "name": "B3",
                    "midi": 59,
                    "time": 183.12500000000023,
                    "velocity": 0.18110236220472442,
                    "duration": 0.9791666666666288
                },
                {
                    "name": "F3",
                    "midi": 53,
                    "time": 183.12500000000023,
                    "velocity": 0.18110236220472442,
                    "duration": 0.9791666666666288
                },
                {
                    "name": "E5",
                    "midi": 76,
                    "time": 183.58333333333354,
                    "velocity": 0.23622047244094488,
                    "duration": 0.7135416666666572
                },
                {
                    "name": "C4",
                    "midi": 60,
                    "time": 184.5312500000002,
                    "velocity": 0.1968503937007874,
                    "duration": 1.1979166666666572
                },
                {
                    "name": "C#3",
                    "midi": 49,
                    "time": 184.5312500000002,
                    "velocity": 0.16535433070866143,
                    "duration": 1.2083333333333144
                },
                {
                    "name": "E3",
                    "midi": 52,
                    "time": 184.5468750000002,
                    "velocity": 0.18110236220472442,
                    "duration": 1.1822916666666572
                },
                {
                    "name": "A5",
                    "midi": 81,
                    "time": 184.86979166666686,
                    "velocity": 0.23622047244094488,
                    "duration": 0.234375
                },
                {
                    "name": "A6",
                    "midi": 93,
                    "time": 185.04166666666686,
                    "velocity": 0.28346456692913385,
                    "duration": 0.0625
                },
                {
                    "name": "D6",
                    "midi": 86,
                    "time": 185.57291666666686,
                    "velocity": 0.2677165354330709,
                    "duration": 0.7239583333333144
                },
                {
                    "name": "D5",
                    "midi": 74,
                    "time": 185.5833333333335,
                    "velocity": 0.28346456692913385,
                    "duration": 0.734375
                },
                {
                    "name": "D#3",
                    "midi": 51,
                    "time": 186.0833333333335,
                    "velocity": 0.16535433070866143,
                    "duration": 1.546875
                },
                {
                    "name": "A3",
                    "midi": 57,
                    "time": 186.0833333333335,
                    "velocity": 0.1889763779527559,
                    "duration": 1.546875
                },
                {
                    "name": "A#2",
                    "midi": 46,
                    "time": 186.0833333333335,
                    "velocity": 0.18110236220472442,
                    "duration": 1.5520833333333428
                },
                {
                    "name": "C6",
                    "midi": 84,
                    "time": 186.7083333333335,
                    "velocity": 0.25196850393700787,
                    "duration": 0.296875
                },
                {
                    "name": "C5",
                    "midi": 72,
                    "time": 186.7083333333335,
                    "velocity": 0.23622047244094488,
                    "duration": 0.25
                },
                {
                    "name": "F#6",
                    "midi": 90,
                    "time": 187.51562500000017,
                    "velocity": 0.25196850393700787,
                    "duration": 1.744791666666714
                },
                {
                    "name": "F#5",
                    "midi": 78,
                    "time": 187.51562500000017,
                    "velocity": 0.25984251968503935,
                    "duration": 1.744791666666714
                },
                {
                    "name": "E3",
                    "midi": 52,
                    "time": 188.2812500000002,
                    "velocity": 0.18110236220472442,
                    "duration": 15.588541666666742
                },
                {
                    "name": "A2",
                    "midi": 45,
                    "time": 188.2812500000002,
                    "velocity": 0.18110236220472442,
                    "duration": 15.656250000000085
                },
                {
                    "name": "A#3",
                    "midi": 58,
                    "time": 188.2968750000002,
                    "velocity": 0.16535433070866143,
                    "duration": 15.666666666666742
                },
                {
                    "name": "D4",
                    "midi": 62,
                    "time": 190.17187500000023,
                    "velocity": 0.2440944881889764,
                    "duration": 0.8541666666666572
                },
                {
                    "name": "G#4",
                    "midi": 68,
                    "time": 191.50000000000023,
                    "velocity": 0.30708661417322836,
                    "duration": 3.755208333333343
                },
                {
                    "name": "C#5",
                    "midi": 73,
                    "time": 195.20312500000023,
                    "velocity": 0.2992125984251969,
                    "duration": 1.3125
                },
                {
                    "name": "F#4",
                    "midi": 66,
                    "time": 196.46875000000023,
                    "velocity": 0.2677165354330709,
                    "duration": 1.9427083333333428
                },
                {
                    "name": "D4",
                    "midi": 62,
                    "time": 198.4322916666669,
                    "velocity": 0.25984251968503935,
                    "duration": 0.40625
                },
                {
                    "name": "B4",
                    "midi": 71,
                    "time": 199.11458333333357,
                    "velocity": 0.2755905511811024,
                    "duration": 4.807291666666714
                },
                {
                    "name": "C5",
                    "midi": 72,
                    "time": 201.78125000000026,
                    "velocity": 0.18110236220472442,
                    "duration": 2.1406250000000284
                },
                {
                    "name": "B3",
                    "midi": 59,
                    "time": 204.80729166666694,
                    "velocity": 0.1889763779527559,
                    "duration": 1.1093750000000284
                },
                {
                    "name": "F3",
                    "midi": 53,
                    "time": 204.80729166666694,
                    "velocity": 0.18110236220472442,
                    "duration": 1.1197916666666856
                },
                {
                    "name": "D3",
                    "midi": 50,
                    "time": 204.82812500000028,
                    "velocity": 0.18110236220472442,
                    "duration": 1.1197916666666856
                },
                {
                    "name": "A#4",
                    "midi": 70,
                    "time": 205.27083333333363,
                    "velocity": 0.31496062992125984,
                    "duration": 0.078125
                },
                {
                    "name": "D5",
                    "midi": 74,
                    "time": 205.82291666666697,
                    "velocity": 0.3700787401574803,
                    "duration": 0.859375
                },
                {
                    "name": "C#4",
                    "midi": 61,
                    "time": 206.36458333333363,
                    "velocity": 0.16535433070866143,
                    "duration": 0.6822916666666856
                },
                {
                    "name": "F3",
                    "midi": 53,
                    "time": 206.38541666666697,
                    "velocity": 0.1889763779527559,
                    "duration": 0.6979166666666856
                },
                {
                    "name": "D3",
                    "midi": 50,
                    "time": 206.40104166666697,
                    "velocity": 0.18110236220472442,
                    "duration": 0.7135416666666856
                },
                {
                    "name": "A5",
                    "midi": 81,
                    "time": 206.9375000000003,
                    "velocity": 0.30708661417322836,
                    "duration": 1.2239583333333428
                },
                {
                    "name": "B3",
                    "midi": 59,
                    "time": 207.526041666667,
                    "velocity": 0.15748031496062992,
                    "duration": 0.8749999999999716
                },
                {
                    "name": "D3",
                    "midi": 50,
                    "time": 207.526041666667,
                    "velocity": 0.14173228346456693,
                    "duration": 0.8854166666666288
                },
                {
                    "name": "F3",
                    "midi": 53,
                    "time": 207.53645833333366,
                    "velocity": 0.16535433070866143,
                    "duration": 0.8489583333333144
                },
                {
                    "name": "E5",
                    "midi": 76,
                    "time": 208.1406250000003,
                    "velocity": 0.25196850393700787,
                    "duration": 0.1875
                },
                {
                    "name": "F#1",
                    "midi": 30,
                    "time": 209.33854166666697,
                    "velocity": 0.2047244094488189,
                    "duration": 0.046875
                },
                {
                    "name": "A4",
                    "midi": 69,
                    "time": 209.34895833333363,
                    "velocity": 0.30708661417322836,
                    "duration": 0.03645833333334281
                },
                {
                    "name": "D#5",
                    "midi": 75,
                    "time": 209.35416666666697,
                    "velocity": 0.2283464566929134,
                    "duration": 0.03125
                },
                {
                    "name": "F4",
                    "midi": 65,
                    "time": 209.35416666666697,
                    "velocity": 0.28346456692913385,
                    "duration": 0.0625
                },
                {
                    "name": "D2",
                    "midi": 38,
                    "time": 209.35416666666697,
                    "velocity": 0.2677165354330709,
                    "duration": 0.03125
                },
                {
                    "name": "A#2",
                    "midi": 46,
                    "time": 209.7187500000003,
                    "velocity": 0.28346456692913385,
                    "duration": 0.8489583333333144
                },
                {
                    "name": "E4",
                    "midi": 64,
                    "time": 209.7343750000003,
                    "velocity": 0.30708661417322836,
                    "duration": 0.34375
                },
                {
                    "name": "C#3",
                    "midi": 49,
                    "time": 210.0625000000003,
                    "velocity": 0.30708661417322836,
                    "duration": 0.5208333333333144
                },
                {
                    "name": "C4",
                    "midi": 60,
                    "time": 210.0781250000003,
                    "velocity": 0.2677165354330709,
                    "duration": 0.4895833333333144
                },
                {
                    "name": "A#3",
                    "midi": 58,
                    "time": 210.48958333333366,
                    "velocity": 0.2283464566929134,
                    "duration": 0.06770833333331439
                },
                {
                    "name": "G#3",
                    "midi": 56,
                    "time": 210.48958333333366,
                    "velocity": 0.23622047244094488,
                    "duration": 0.09374999999997158
                },
                {
                    "name": "F#4",
                    "midi": 66,
                    "time": 211.13020833333363,
                    "velocity": 0.2125984251968504,
                    "duration": 0.15624999999997158
                },
                {
                    "name": "A#4",
                    "midi": 70,
                    "time": 211.13020833333363,
                    "velocity": 0.2125984251968504,
                    "duration": 0.15624999999997158
                },
                {
                    "name": "C#4",
                    "midi": 61,
                    "time": 211.14583333333363,
                    "velocity": 0.1968503937007874,
                    "duration": 0.09895833333331439
                },
                {
                    "name": "A3",
                    "midi": 57,
                    "time": 211.14583333333363,
                    "velocity": 0.2440944881889764,
                    "duration": 0.11458333333331439
                },
                {
                    "name": "E3",
                    "midi": 52,
                    "time": 211.14583333333363,
                    "velocity": 0.25196850393700787,
                    "duration": 0.10416666666665719
                },
                {
                    "name": "C3",
                    "midi": 48,
                    "time": 211.14583333333363,
                    "velocity": 0.23622047244094488,
                    "duration": 0.10416666666665719
                },
                {
                    "name": "A#3",
                    "midi": 58,
                    "time": 211.90104166666694,
                    "velocity": 0.25196850393700787,
                    "duration": 0.4166666666666572
                },
                {
                    "name": "D#6",
                    "midi": 87,
                    "time": 211.9270833333336,
                    "velocity": 0.2204724409448819,
                    "duration": 0.375
                },
                {
                    "name": "E6",
                    "midi": 88,
                    "time": 211.9270833333336,
                    "velocity": 0.2125984251968504,
                    "duration": 1.1875
                },
                {
                    "name": "D5",
                    "midi": 74,
                    "time": 212.32812500000026,
                    "velocity": 0.1968503937007874,
                    "duration": 0.40625
                },
                {
                    "name": "B3",
                    "midi": 59,
                    "time": 212.32812500000026,
                    "velocity": 0.2677165354330709,
                    "duration": 0.390625
                },
                {
                    "name": "C#6",
                    "midi": 85,
                    "time": 212.73437500000026,
                    "velocity": 0.1968503937007874,
                    "duration": 0.421875
                },
                {
                    "name": "C4",
                    "midi": 60,
                    "time": 212.8020833333336,
                    "velocity": 0.28346456692913385,
                    "duration": 0.5208333333333144
                },
                {
                    "name": "D5",
                    "midi": 74,
                    "time": 213.21875000000026,
                    "velocity": 0.18110236220472442,
                    "duration": 0.140625
                },
                {
                    "name": "G#3",
                    "midi": 56,
                    "time": 215.52083333333357,
                    "velocity": 0.1968503937007874,
                    "duration": 0.21875
                },
                {
                    "name": "C#4",
                    "midi": 61,
                    "time": 215.70833333333357,
                    "velocity": 0.2677165354330709,
                    "duration": 0.03125
                },
                {
                    "name": "F4",
                    "midi": 65,
                    "time": 216.25000000000023,
                    "velocity": 0.3937007874015748,
                    "duration": 0.265625
                },
                {
                    "name": "C3",
                    "midi": 48,
                    "time": 216.27083333333357,
                    "velocity": 0.25984251968503935,
                    "duration": 0.078125
                },
                {
                    "name": "A2",
                    "midi": 45,
                    "time": 216.2760416666669,
                    "velocity": 0.23622047244094488,
                    "duration": 0.07291666666665719
                },
                {
                    "name": "F#4",
                    "midi": 66,
                    "time": 216.84375000000023,
                    "velocity": 0.3858267716535433,
                    "duration": 0.6145833333333428
                },
                {
                    "name": "D5",
                    "midi": 74,
                    "time": 216.84375000000023,
                    "velocity": 0.5118110236220472,
                    "duration": 0.53125
                },
                {
                    "name": "D#2",
                    "midi": 39,
                    "time": 216.84375000000023,
                    "velocity": 0.3228346456692913,
                    "duration": 0.8958333333333712
                },
                {
                    "name": "A#2",
                    "midi": 46,
                    "time": 217.27083333333357,
                    "velocity": 0.28346456692913385,
                    "duration": 0.4791666666666856
                },
                {
                    "name": "G#4",
                    "midi": 68,
                    "time": 217.69270833333357,
                    "velocity": 0.47244094488188976,
                    "duration": 0.9947916666666856
                },
                {
                    "name": "C#4",
                    "midi": 61,
                    "time": 217.6979166666669,
                    "velocity": 0.36220472440944884,
                    "duration": 0.2604166666666856
                },
                {
                    "name": "E3",
                    "midi": 52,
                    "time": 217.6979166666669,
                    "velocity": 0.36220472440944884,
                    "duration": 0.1770833333333428
                },
                {
                    "name": "C4",
                    "midi": 60,
                    "time": 218.10937500000026,
                    "velocity": 0.4645669291338583,
                    "duration": 0.171875
                },
                {
                    "name": "G3",
                    "midi": 55,
                    "time": 218.10937500000026,
                    "velocity": 0.3937007874015748,
                    "duration": 0.078125
                },
                {
                    "name": "G3",
                    "midi": 55,
                    "time": 218.4166666666669,
                    "velocity": 0.23622047244094488,
                    "duration": 0.1927083333333428
                },
                {
                    "name": "C4",
                    "midi": 60,
                    "time": 218.5572916666669,
                    "velocity": 0.2440944881889764,
                    "duration": 0.03125
                },
                {
                    "name": "B3",
                    "midi": 59,
                    "time": 218.5572916666669,
                    "velocity": 0.4330708661417323,
                    "duration": 0.109375
                },
                {
                    "name": "G4",
                    "midi": 67,
                    "time": 218.9635416666669,
                    "velocity": 0.49606299212598426,
                    "duration": 0.4062500000000284
                },
                {
                    "name": "A#3",
                    "midi": 58,
                    "time": 218.96875000000026,
                    "velocity": 0.3937007874015748,
                    "duration": 0.1875
                },
                {
                    "name": "G#2",
                    "midi": 44,
                    "time": 218.96875000000026,
                    "velocity": 0.25984251968503935,
                    "duration": 0.1770833333333428
                },
                {
                    "name": "B2",
                    "midi": 47,
                    "time": 218.9739583333336,
                    "velocity": 0.29133858267716534,
                    "duration": 0.1666666666666572
                },
                {
                    "name": "D#1",
                    "midi": 27,
                    "time": 219.3541666666669,
                    "velocity": 0.33070866141732286,
                    "duration": 0.057291666666685614
                },
                {
                    "name": "D#4",
                    "midi": 63,
                    "time": 219.35937500000026,
                    "velocity": 0.4094488188976378,
                    "duration": 1.7135416666666856
                },
                {
                    "name": "A3",
                    "midi": 57,
                    "time": 219.3645833333336,
                    "velocity": 0.3858267716535433,
                    "duration": 1.6145833333333428
                },
                {
                    "name": "D#2",
                    "midi": 39,
                    "time": 219.7395833333336,
                    "velocity": 0.3700787401574803,
                    "duration": 0.1510416666666572
                },
                {
                    "name": "F#3",
                    "midi": 54,
                    "time": 219.75000000000026,
                    "velocity": 0.3858267716535433,
                    "duration": 0.546875
                },
                {
                    "name": "A#2",
                    "midi": 46,
                    "time": 220.1145833333336,
                    "velocity": 0.41732283464566927,
                    "duration": 0.1354166666666572
                },
                {
                    "name": "E3",
                    "midi": 52,
                    "time": 220.53125000000026,
                    "velocity": 0.4251968503937008,
                    "duration": 0.9583333333333428
                },
                {
                    "name": "G#3",
                    "midi": 56,
                    "time": 220.94791666666694,
                    "velocity": 0.4330708661417323,
                    "duration": 0.515625
                },
                {
                    "name": "D4",
                    "midi": 62,
                    "time": 221.35416666666694,
                    "velocity": 0.5039370078740157,
                    "duration": 0.25
                },
                {
                    "name": "D#4",
                    "midi": 63,
                    "time": 221.76562500000028,
                    "velocity": 0.5275590551181102,
                    "duration": 0.34375
                },
                {
                    "name": "A#3",
                    "midi": 58,
                    "time": 221.77604166666694,
                    "velocity": 0.3700787401574803,
                    "duration": 0.265625
                },
                {
                    "name": "A2",
                    "midi": 45,
                    "time": 221.77604166666694,
                    "velocity": 0.4409448818897638,
                    "duration": 2.213541666666714
                },
                {
                    "name": "F#3",
                    "midi": 54,
                    "time": 221.77604166666694,
                    "velocity": 0.36220472440944884,
                    "duration": 0.1822916666666572
                },
                {
                    "name": "F3",
                    "midi": 53,
                    "time": 222.18750000000028,
                    "velocity": 0.4566929133858268,
                    "duration": 0.1458333333333428
                },
                {
                    "name": "A3",
                    "midi": 57,
                    "time": 222.18750000000028,
                    "velocity": 0.4330708661417323,
                    "duration": 0.13541666666668561
                },
                {
                    "name": "A#3",
                    "midi": 58,
                    "time": 222.19270833333363,
                    "velocity": 0.4645669291338583,
                    "duration": 0.1927083333333428
                },
                {
                    "name": "B4",
                    "midi": 71,
                    "time": 222.60416666666697,
                    "velocity": 0.6062992125984252,
                    "duration": 0.10416666666668561
                },
                {
                    "name": "G#3",
                    "midi": 56,
                    "time": 222.60416666666697,
                    "velocity": 0.3937007874015748,
                    "duration": 0.1614583333333428
                },
                {
                    "name": "E3",
                    "midi": 52,
                    "time": 222.6093750000003,
                    "velocity": 0.3779527559055118,
                    "duration": 0.1458333333333428
                },
                {
                    "name": "F4",
                    "midi": 65,
                    "time": 222.97916666666697,
                    "velocity": 0.5984251968503937,
                    "duration": 0.08333333333331439
                },
                {
                    "name": "F#3",
                    "midi": 54,
                    "time": 222.97916666666697,
                    "velocity": 0.3543307086614173,
                    "duration": 0.234375
                },
                {
                    "name": "A#3",
                    "midi": 58,
                    "time": 222.97916666666697,
                    "velocity": 0.4015748031496063,
                    "duration": 0.234375
                },
                {
                    "name": "C#4",
                    "midi": 61,
                    "time": 222.98958333333363,
                    "velocity": 0.41732283464566927,
                    "duration": 0.078125
                },
                {
                    "name": "E4",
                    "midi": 64,
                    "time": 223.16666666666697,
                    "velocity": 0.5905511811023622,
                    "duration": 0.05208333333334281
                },
                {
                    "name": "C4",
                    "midi": 60,
                    "time": 223.17708333333363,
                    "velocity": 0.4330708661417323,
                    "duration": 0.041666666666685614
                },
                {
                    "name": "A#3",
                    "midi": 58,
                    "time": 223.36458333333366,
                    "velocity": 0.5511811023622047,
                    "duration": 0.6041666666666572
                },
                {
                    "name": "F3",
                    "midi": 53,
                    "time": 223.369791666667,
                    "velocity": 0.41732283464566927,
                    "duration": 0.1770833333333428
                },
                {
                    "name": "A3",
                    "midi": 57,
                    "time": 223.37500000000034,
                    "velocity": 0.4015748031496063,
                    "duration": 0.1666666666666572
                },
                {
                    "name": "G#3",
                    "midi": 56,
                    "time": 223.75000000000034,
                    "velocity": 0.4566929133858268,
                    "duration": 0.21874999999997158
                },
                {
                    "name": "E3",
                    "midi": 52,
                    "time": 223.760416666667,
                    "velocity": 0.4566929133858268,
                    "duration": 0.2135416666666572
                },
                {
                    "name": "C5",
                    "midi": 72,
                    "time": 223.95833333333366,
                    "velocity": 0.6377952755905512,
                    "duration": 0.078125
                },
                {
                    "name": "A#4",
                    "midi": 70,
                    "time": 224.16145833333366,
                    "velocity": 0.6692913385826772,
                    "duration": 0.5468749999999716
                },
                {
                    "name": "C4",
                    "midi": 60,
                    "time": 224.16145833333366,
                    "velocity": 0.4881889763779528,
                    "duration": 0.5885416666666288
                },
                {
                    "name": "D#3",
                    "midi": 51,
                    "time": 224.16145833333366,
                    "velocity": 0.4330708661417323,
                    "duration": 0.2135416666666572
                },
                {
                    "name": "A2",
                    "midi": 45,
                    "time": 224.16145833333366,
                    "velocity": 0.5118110236220472,
                    "duration": 2.2343749999999716
                },
                {
                    "name": "G3",
                    "midi": 55,
                    "time": 224.16145833333366,
                    "velocity": 0.4566929133858268,
                    "duration": 0.1979166666666572
                },
                {
                    "name": "F#3",
                    "midi": 54,
                    "time": 224.55729166666697,
                    "velocity": 0.5039370078740157,
                    "duration": 0.17708333333331439
                },
                {
                    "name": "D3",
                    "midi": 50,
                    "time": 224.55729166666697,
                    "velocity": 0.5275590551181102,
                    "duration": 0.1979166666666572
                },
                {
                    "name": "G4",
                    "midi": 67,
                    "time": 224.95312500000028,
                    "velocity": 0.6141732283464567,
                    "duration": 1.0208333333333428
                },
                {
                    "name": "C#3",
                    "midi": 49,
                    "time": 224.95312500000028,
                    "velocity": 0.3779527559055118,
                    "duration": 0.2395833333333428
                },
                {
                    "name": "C4",
                    "midi": 60,
                    "time": 224.95833333333363,
                    "velocity": 0.48031496062992124,
                    "duration": 0.2083333333333428
                },
                {
                    "name": "F3",
                    "midi": 53,
                    "time": 224.95833333333363,
                    "velocity": 0.5275590551181102,
                    "duration": 0.2239583333333428
                },
                {
                    "name": "C#4",
                    "midi": 61,
                    "time": 225.16145833333363,
                    "velocity": 0.48031496062992124,
                    "duration": 0.11458333333334281
                },
                {
                    "name": "B3",
                    "midi": 59,
                    "time": 225.35416666666697,
                    "velocity": 0.5590551181102362,
                    "duration": 0.234375
                },
                {
                    "name": "G3",
                    "midi": 55,
                    "time": 225.35416666666697,
                    "velocity": 0.44881889763779526,
                    "duration": 0.1770833333333428
                },
                {
                    "name": "D#3",
                    "midi": 51,
                    "time": 225.3593750000003,
                    "velocity": 0.3937007874015748,
                    "duration": 0.1614583333333428
                },
                {
                    "name": "F#3",
                    "midi": 54,
                    "time": 225.72395833333363,
                    "velocity": 0.5275590551181102,
                    "duration": 0.21875
                },
                {
                    "name": "D3",
                    "midi": 50,
                    "time": 225.72395833333363,
                    "velocity": 0.5433070866141733,
                    "duration": 0.21875
                },
                {
                    "name": "C4",
                    "midi": 60,
                    "time": 225.94270833333363,
                    "velocity": 0.5748031496062992,
                    "duration": 0.03125
                },
                {
                    "name": "A#4",
                    "midi": 70,
                    "time": 226.13541666666697,
                    "velocity": 0.6299212598425197,
                    "duration": 0.2864583333333144
                },
                {
                    "name": "C#4",
                    "midi": 61,
                    "time": 226.14583333333363,
                    "velocity": 0.6062992125984252,
                    "duration": 0.1770833333333428
                },
                {
                    "name": "C#3",
                    "midi": 49,
                    "time": 226.14583333333363,
                    "velocity": 0.5039370078740157,
                    "duration": 0.25
                },
                {
                    "name": "F3",
                    "midi": 53,
                    "time": 226.14583333333363,
                    "velocity": 0.5118110236220472,
                    "duration": 0.2395833333333428
                },
                {
                    "name": "D#4",
                    "midi": 63,
                    "time": 226.42187500000028,
                    "velocity": 0.6614173228346457,
                    "duration": 0.020833333333342807
                },
                {
                    "name": "F#1",
                    "midi": 30,
                    "time": 226.66666666666697,
                    "velocity": 0.6062992125984252,
                    "duration": 0.09895833333334281
                },
                {
                    "name": "F#2",
                    "midi": 42,
                    "time": 226.66666666666697,
                    "velocity": 0.6456692913385826,
                    "duration": 0.125
                },
                {
                    "name": "G5",
                    "midi": 79,
                    "time": 226.66666666666697,
                    "velocity": 0.8188976377952756,
                    "duration": 0.4270833333333428
                },
                {
                    "name": "B4",
                    "midi": 71,
                    "time": 226.66666666666697,
                    "velocity": 0.7244094488188977,
                    "duration": 0.4375
                },
                {
                    "name": "G4",
                    "midi": 67,
                    "time": 226.66666666666697,
                    "velocity": 0.6220472440944882,
                    "duration": 0.4375
                },
                {
                    "name": "C#3",
                    "midi": 49,
                    "time": 227.0625000000003,
                    "velocity": 0.5590551181102362,
                    "duration": 0.3125
                },
                {
                    "name": "A#4",
                    "midi": 70,
                    "time": 227.47395833333366,
                    "velocity": 0.5905511811023622,
                    "duration": 0.14062500000002842
                },
                {
                    "name": "E5",
                    "midi": 76,
                    "time": 227.47395833333366,
                    "velocity": 0.6614173228346457,
                    "duration": 0.9895833333333428
                },
                {
                    "name": "F#4",
                    "midi": 66,
                    "time": 227.479166666667,
                    "velocity": 0.5196850393700787,
                    "duration": 0.16666666666668561
                },
                {
                    "name": "G3",
                    "midi": 55,
                    "time": 227.48437500000034,
                    "velocity": 0.49606299212598426,
                    "duration": 0.09895833333334281
                },
                {
                    "name": "A#3",
                    "midi": 58,
                    "time": 227.88020833333368,
                    "velocity": 0.5511811023622047,
                    "duration": 0.1875
                },
                {
                    "name": "F4",
                    "midi": 65,
                    "time": 227.88541666666703,
                    "velocity": 0.5984251968503937,
                    "duration": 0.171875
                },
                {
                    "name": "A4",
                    "midi": 69,
                    "time": 227.88541666666703,
                    "velocity": 0.6062992125984252,
                    "duration": 0.1614583333333428
                },
                {
                    "name": "D#4",
                    "midi": 63,
                    "time": 228.28645833333368,
                    "velocity": 0.5748031496062992,
                    "duration": 0.4427083333333144
                },
                {
                    "name": "G#4",
                    "midi": 68,
                    "time": 228.28645833333368,
                    "velocity": 0.5984251968503937,
                    "duration": 0.1510416666666572
                },
                {
                    "name": "E4",
                    "midi": 64,
                    "time": 228.28645833333368,
                    "velocity": 0.5984251968503937,
                    "duration": 0.16145833333331439
                },
                {
                    "name": "A4",
                    "midi": 69,
                    "time": 228.69270833333366,
                    "velocity": 0.5905511811023622,
                    "duration": 0.03645833333334281
                },
                {
                    "name": "D5",
                    "midi": 74,
                    "time": 228.69270833333366,
                    "velocity": 0.6692913385826772,
                    "duration": 0.05208333333334281
                },
                {
                    "name": "F4",
                    "midi": 65,
                    "time": 228.69270833333366,
                    "velocity": 0.5433070866141733,
                    "duration": 0.03645833333334281
                },
                {
                    "name": "D#6",
                    "midi": 87,
                    "time": 229.20312500000034,
                    "velocity": 0.8110236220472441,
                    "duration": 0.4322916666666856
                },
                {
                    "name": "E5",
                    "midi": 76,
                    "time": 229.20312500000034,
                    "velocity": 0.6614173228346457,
                    "duration": 0.4427083333333428
                },
                {
                    "name": "G5",
                    "midi": 79,
                    "time": 229.20833333333368,
                    "velocity": 0.7086614173228346,
                    "duration": 0.4375
                },
                {
                    "name": "C#3",
                    "midi": 49,
                    "time": 229.21354166666703,
                    "velocity": 0.6141732283464567,
                    "duration": 0.109375
                },
                {
                    "name": "C#2",
                    "midi": 37,
                    "time": 229.21354166666703,
                    "velocity": 0.6141732283464567,
                    "duration": 0.08333333333334281
                },
                {
                    "name": "G#3",
                    "midi": 56,
                    "time": 229.62500000000037,
                    "velocity": 0.6299212598425197,
                    "duration": 0.2135416666666572
                },
                {
                    "name": "C#4",
                    "midi": 61,
                    "time": 230.01562500000037,
                    "velocity": 0.5275590551181102,
                    "duration": 0.15625
                },
                {
                    "name": "G5",
                    "midi": 79,
                    "time": 230.01562500000037,
                    "velocity": 0.6850393700787402,
                    "duration": 0.1875
                },
                {
                    "name": "D#5",
                    "midi": 75,
                    "time": 230.01562500000037,
                    "velocity": 0.5039370078740157,
                    "duration": 0.2135416666666572
                },
                {
                    "name": "B5",
                    "midi": 83,
                    "time": 230.01562500000037,
                    "velocity": 0.6141732283464567,
                    "duration": 0.8645833333333144
                },
                {
                    "name": "F#5",
                    "midi": 78,
                    "time": 230.40104166666703,
                    "velocity": 0.5984251968503937,
                    "duration": 0.1979166666666572
                },
                {
                    "name": "D5",
                    "midi": 74,
                    "time": 230.40104166666703,
                    "velocity": 0.5669291338582677,
                    "duration": 0.1875
                },
                {
                    "name": "E4",
                    "midi": 64,
                    "time": 230.40104166666703,
                    "velocity": 0.5354330708661418,
                    "duration": 0.1510416666666572
                },
                {
                    "name": "G#4",
                    "midi": 68,
                    "time": 230.79166666666703,
                    "velocity": 0.44881889763779526,
                    "duration": 0.05729166666665719
                },
                {
                    "name": "C#5",
                    "midi": 73,
                    "time": 230.80208333333368,
                    "velocity": 0.5118110236220472,
                    "duration": 0.05729166666665719
                },
                {
                    "name": "F5",
                    "midi": 77,
                    "time": 230.80208333333368,
                    "velocity": 0.5275590551181102,
                    "duration": 0.05729166666665719
                },
                {
                    "name": "B5",
                    "midi": 83,
                    "time": 231.18750000000037,
                    "velocity": 0.31496062992125984,
                    "duration": 0.34375
                },
                {
                    "name": "E6",
                    "midi": 88,
                    "time": 231.18750000000037,
                    "velocity": 0.4094488188976378,
                    "duration": 0.4635416666666856
                },
                {
                    "name": "A#5",
                    "midi": 82,
                    "time": 231.57812500000037,
                    "velocity": 0.41732283464566927,
                    "duration": 0.07812500000002842
                },
                {
                    "name": "G5",
                    "midi": 79,
                    "time": 231.93229166666706,
                    "velocity": 0.44881889763779526,
                    "duration": 0.2083333333333428
                },
                {
                    "name": "C6",
                    "midi": 84,
                    "time": 231.9531250000004,
                    "velocity": 0.6220472440944882,
                    "duration": 0.078125
                },
                {
                    "name": "G#4",
                    "midi": 68,
                    "time": 232.3593750000004,
                    "velocity": 0.3700787401574803,
                    "duration": 0.09895833333334281
                },
                {
                    "name": "B4",
                    "midi": 71,
                    "time": 232.36458333333374,
                    "velocity": 0.5196850393700787,
                    "duration": 0.09895833333334281
                },
                {
                    "name": "D4",
                    "midi": 62,
                    "time": 232.77604166666708,
                    "velocity": 0.3700787401574803,
                    "duration": 0.05208333333334281
                },
                {
                    "name": "G5",
                    "midi": 79,
                    "time": 233.1354166666671,
                    "velocity": 0.23622047244094488,
                    "duration": 0.1979166666666572
                },
                {
                    "name": "C6",
                    "midi": 84,
                    "time": 233.3072916666671,
                    "velocity": 0.2440944881889764,
                    "duration": 0.21875
                },
                {
                    "name": "B4",
                    "midi": 71,
                    "time": 233.5104166666671,
                    "velocity": 0.2677165354330709,
                    "duration": 0.19270833333331439
                },
                {
                    "name": "G#4",
                    "midi": 68,
                    "time": 233.69270833333377,
                    "velocity": 0.28346456692913385,
                    "duration": 0.3802083333333144
                },
                {
                    "name": "D4",
                    "midi": 62,
                    "time": 233.90104166666708,
                    "velocity": 0.2992125984251969,
                    "duration": 0.4114583333333144
                },
                {
                    "name": "F#3",
                    "midi": 54,
                    "time": 233.91666666666708,
                    "velocity": 0.2677165354330709,
                    "duration": 0.2552083333333144
                },
                {
                    "name": "D5",
                    "midi": 74,
                    "time": 234.10416666666708,
                    "velocity": 0.31496062992125984,
                    "duration": 0.21875
                },
                {
                    "name": "B3",
                    "midi": 59,
                    "time": 234.14583333333374,
                    "velocity": 0.28346456692913385,
                    "duration": 0.171875
                },
                {
                    "name": "G#5",
                    "midi": 80,
                    "time": 234.30208333333374,
                    "velocity": 0.33070866141732286,
                    "duration": 0.1875
                },
                {
                    "name": "A#2",
                    "midi": 46,
                    "time": 234.31770833333374,
                    "velocity": 0.29133858267716534,
                    "duration": 0.21875
                },
                {
                    "name": "G2",
                    "midi": 43,
                    "time": 234.48958333333374,
                    "velocity": 0.2992125984251969,
                    "duration": 0.2291666666666572
                },
                {
                    "name": "C#6",
                    "midi": 85,
                    "time": 234.48958333333374,
                    "velocity": 0.3543307086614173,
                    "duration": 0.2135416666666572
                },
                {
                    "name": "C#2",
                    "midi": 37,
                    "time": 234.67708333333374,
                    "velocity": 0.31496062992125984,
                    "duration": 0.2239583333333428
                },
                {
                    "name": "C5",
                    "midi": 72,
                    "time": 234.6875000000004,
                    "velocity": 0.3700787401574803,
                    "duration": 0.19791666666668561
                },
                {
                    "name": "C#3",
                    "midi": 49,
                    "time": 234.88020833333374,
                    "velocity": 0.3228346456692913,
                    "duration": 0.21875000000002842
                },
                {
                    "name": "A4",
                    "midi": 69,
                    "time": 234.88020833333374,
                    "velocity": 0.3858267716535433,
                    "duration": 0.18229166666668561
                },
                {
                    "name": "D#4",
                    "midi": 63,
                    "time": 235.05729166666708,
                    "velocity": 0.4015748031496063,
                    "duration": 0.18229166666668561
                },
                {
                    "name": "G3",
                    "midi": 55,
                    "time": 235.08333333333377,
                    "velocity": 0.33070866141732286,
                    "duration": 0.21875
                },
                {
                    "name": "D#5",
                    "midi": 75,
                    "time": 235.23958333333377,
                    "velocity": 0.41732283464566927,
                    "duration": 0.171875
                },
                {
                    "name": "C4",
                    "midi": 60,
                    "time": 235.26562500000043,
                    "velocity": 0.33858267716535434,
                    "duration": 0.1666666666666572
                },
                {
                    "name": "B2",
                    "midi": 47,
                    "time": 235.42187500000043,
                    "velocity": 0.3543307086614173,
                    "duration": 0.19270833333331439
                },
                {
                    "name": "A5",
                    "midi": 81,
                    "time": 235.42187500000043,
                    "velocity": 0.4330708661417323,
                    "duration": 0.2135416666666572
                },
                {
                    "name": "G#2",
                    "midi": 44,
                    "time": 235.60416666666708,
                    "velocity": 0.36220472440944884,
                    "duration": 0.1770833333333428
                },
                {
                    "name": "D6",
                    "midi": 86,
                    "time": 235.61979166666708,
                    "velocity": 0.4566929133858268,
                    "duration": 0.1770833333333428
                },
                {
                    "name": "D2",
                    "midi": 38,
                    "time": 235.78645833333377,
                    "velocity": 0.3700787401574803,
                    "duration": 0.203125
                },
                {
                    "name": "C#5",
                    "midi": 73,
                    "time": 235.78645833333377,
                    "velocity": 0.47244094488188976,
                    "duration": 0.2135416666666572
                },
                {
                    "name": "D3",
                    "midi": 50,
                    "time": 235.98958333333377,
                    "velocity": 0.3779527559055118,
                    "duration": 0.19270833333331439
                },
                {
                    "name": "A#4",
                    "midi": 70,
                    "time": 235.98958333333377,
                    "velocity": 0.4881889763779528,
                    "duration": 0.1666666666666572
                },
                {
                    "name": "E4",
                    "midi": 64,
                    "time": 236.15104166666708,
                    "velocity": 0.5039370078740157,
                    "duration": 0.1979166666666572
                },
                {
                    "name": "G#3",
                    "midi": 56,
                    "time": 236.17187500000043,
                    "velocity": 0.3937007874015748,
                    "duration": 0.2135416666666572
                },
                {
                    "name": "E5",
                    "midi": 76,
                    "time": 236.34895833333374,
                    "velocity": 0.5196850393700787,
                    "duration": 0.15104166666668561
                },
                {
                    "name": "C#4",
                    "midi": 61,
                    "time": 236.36979166666708,
                    "velocity": 0.4015748031496063,
                    "duration": 0.171875
                },
                {
                    "name": "B5",
                    "midi": 83,
                    "time": 236.53125000000043,
                    "velocity": 0.5433070866141733,
                    "duration": 0.1875
                },
                {
                    "name": "C3",
                    "midi": 48,
                    "time": 236.54687500000043,
                    "velocity": 0.4881889763779528,
                    "duration": 0.1770833333333428
                },
                {
                    "name": "E6",
                    "midi": 88,
                    "time": 236.71875000000043,
                    "velocity": 0.5354330708661418,
                    "duration": 0.18750000000002842
                },
                {
                    "name": "D#2",
                    "midi": 39,
                    "time": 236.73437500000043,
                    "velocity": 0.4881889763779528,
                    "duration": 0.16666666666668561
                },
                {
                    "name": "A2",
                    "midi": 45,
                    "time": 236.73437500000043,
                    "velocity": 0.4409448818897638,
                    "duration": 0.22916666666668561
                },
                {
                    "name": "D#5",
                    "midi": 75,
                    "time": 236.89583333333377,
                    "velocity": 0.5748031496062992,
                    "duration": 0.21875000000002842
                },
                {
                    "name": "A3",
                    "midi": 57,
                    "time": 236.9010416666671,
                    "velocity": 0.4881889763779528,
                    "duration": 0.2239583333333428
                },
                {
                    "name": "F#4",
                    "midi": 66,
                    "time": 237.07812500000045,
                    "velocity": 0.5748031496062992,
                    "duration": 0.1614583333333428
                },
                {
                    "name": "C5",
                    "midi": 72,
                    "time": 237.07812500000045,
                    "velocity": 0.5905511811023622,
                    "duration": 0.16666666666668561
                },
                {
                    "name": "D4",
                    "midi": 62,
                    "time": 237.0989583333338,
                    "velocity": 0.5905511811023622,
                    "duration": 0.1666666666666572
                },
                {
                    "name": "C#3",
                    "midi": 49,
                    "time": 237.24479166666714,
                    "velocity": 0.49606299212598426,
                    "duration": 0.19791666666662877
                },
                {
                    "name": "C6",
                    "midi": 84,
                    "time": 237.2552083333338,
                    "velocity": 0.5984251968503937,
                    "duration": 0.17708333333331439
                },
                {
                    "name": "A#2",
                    "midi": 46,
                    "time": 237.4322916666671,
                    "velocity": 0.5748031496062992,
                    "duration": 0.23958333333331439
                },
                {
                    "name": "F6",
                    "midi": 89,
                    "time": 237.4322916666671,
                    "velocity": 0.6220472440944882,
                    "duration": 0.2135416666666572
                },
                {
                    "name": "E2",
                    "midi": 40,
                    "time": 237.44270833333377,
                    "velocity": 0.5196850393700787,
                    "duration": 0.2291666666666572
                },
                {
                    "name": "E5",
                    "midi": 76,
                    "time": 237.62500000000043,
                    "velocity": 0.6299212598425197,
                    "duration": 0.1875
                },
                {
                    "name": "A#3",
                    "midi": 58,
                    "time": 237.64583333333377,
                    "velocity": 0.5511811023622047,
                    "duration": 0.2083333333333428
                },
                {
                    "name": "C#5",
                    "midi": 73,
                    "time": 237.81250000000043,
                    "velocity": 0.6614173228346457,
                    "duration": 0.21354166666668561
                },
                {
                    "name": "G4",
                    "midi": 67,
                    "time": 237.81770833333377,
                    "velocity": 0.6614173228346457,
                    "duration": 0.21875
                },
                {
                    "name": "D#4",
                    "midi": 63,
                    "time": 237.8385416666671,
                    "velocity": 0.6614173228346457,
                    "duration": 0.22395833333331439
                },
                {
                    "name": "C#6",
                    "midi": 85,
                    "time": 238.0260416666671,
                    "velocity": 0.6771653543307087,
                    "duration": 0.2656249999999716
                },
                {
                    "name": "D3",
                    "midi": 50,
                    "time": 238.05208333333377,
                    "velocity": 0.5590551181102362,
                    "duration": 0.2604166666666572
                },
                {
                    "name": "F#5",
                    "midi": 78,
                    "time": 238.25520833333377,
                    "velocity": 0.6929133858267716,
                    "duration": 0.06770833333331439
                },
                {
                    "name": "F#6",
                    "midi": 90,
                    "time": 238.25520833333377,
                    "velocity": 0.6929133858267716,
                    "duration": 0.06770833333331439
                },
                {
                    "name": "B2",
                    "midi": 47,
                    "time": 238.27604166666708,
                    "velocity": 0.5748031496062992,
                    "duration": 0.2239583333333428
                },
                {
                    "name": "F2",
                    "midi": 41,
                    "time": 238.27604166666708,
                    "velocity": 0.5354330708661418,
                    "duration": 0.21354166666668561
                },
                {
                    "name": "D6",
                    "midi": 86,
                    "time": 238.43750000000043,
                    "velocity": 0.7244094488188977,
                    "duration": 2.166666666666657
                },
                {
                    "name": "D#4",
                    "midi": 63,
                    "time": 238.47395833333377,
                    "velocity": 0.7165354330708661,
                    "duration": 0.2760416666666572
                },
                {
                    "name": "F3",
                    "midi": 53,
                    "time": 238.76041666666708,
                    "velocity": 0.5039370078740157,
                    "duration": 0.1614583333333428
                },
                {
                    "name": "B3",
                    "midi": 59,
                    "time": 238.77083333333374,
                    "velocity": 0.49606299212598426,
                    "duration": 0.1458333333333428
                },
                {
                    "name": "G5",
                    "midi": 79,
                    "time": 238.80208333333374,
                    "velocity": 0.7637795275590551,
                    "duration": 1.734375
                },
                {
                    "name": "G6",
                    "midi": 91,
                    "time": 238.80208333333374,
                    "velocity": 0.8031496062992126,
                    "duration": 1.7395833333333428
                },
                {
                    "name": "E3",
                    "midi": 52,
                    "time": 239.01562500000043,
                    "velocity": 0.5669291338582677,
                    "duration": 0.2760416666666572
                },
                {
                    "name": "C3",
                    "midi": 48,
                    "time": 239.26562500000043,
                    "velocity": 0.6220472440944882,
                    "duration": 0.11979166666665719
                },
                {
                    "name": "F#2",
                    "midi": 42,
                    "time": 239.28125000000043,
                    "velocity": 0.6377952755905512,
                    "duration": 0.05729166666665719
                },
                {
                    "name": "F2",
                    "midi": 41,
                    "time": 239.57812500000043,
                    "velocity": 0.7086614173228346,
                    "duration": 0.3385416666666572
                },
                {
                    "name": "C#2",
                    "midi": 37,
                    "time": 239.89062500000043,
                    "velocity": 0.6692913385826772,
                    "duration": 0.3645833333333144
                },
                {
                    "name": "G1",
                    "midi": 31,
                    "time": 239.90625000000043,
                    "velocity": 0.6062992125984252,
                    "duration": 0.3489583333333144
                },
                {
                    "name": "A#2",
                    "midi": 46,
                    "time": 240.27604166666708,
                    "velocity": 0.5748031496062992,
                    "duration": 1.1666666666666572
                },
                {
                    "name": "F#3",
                    "midi": 54,
                    "time": 240.27604166666708,
                    "velocity": 0.5748031496062992,
                    "duration": 1.1666666666666572
                },
                {
                    "name": "E3",
                    "midi": 52,
                    "time": 240.28125000000043,
                    "velocity": 0.5748031496062992,
                    "duration": 1.1770833333333144
                },
                {
                    "name": "A3",
                    "midi": 57,
                    "time": 240.28125000000043,
                    "velocity": 0.5748031496062992,
                    "duration": 1.1927083333333144
                },
                {
                    "name": "G6",
                    "midi": 91,
                    "time": 240.50520833333374,
                    "velocity": 0.47244094488188976,
                    "duration": 0.07291666666668561
                },
                {
                    "name": "G5",
                    "midi": 79,
                    "time": 240.50520833333374,
                    "velocity": 0.47244094488188976,
                    "duration": 0.06770833333334281
                },
                {
                    "name": "G6",
                    "midi": 91,
                    "time": 240.71354166666708,
                    "velocity": 0.5669291338582677,
                    "duration": 0.08333333333334281
                },
                {
                    "name": "A6",
                    "midi": 93,
                    "time": 240.80729166666708,
                    "velocity": 0.47244094488188976,
                    "duration": 0.08333333333334281
                },
                {
                    "name": "G6",
                    "midi": 91,
                    "time": 240.90104166666708,
                    "velocity": 0.47244094488188976,
                    "duration": 0.10416666666665719
                },
                {
                    "name": "A6",
                    "midi": 93,
                    "time": 241.00520833333374,
                    "velocity": 0.47244094488188976,
                    "duration": 0.10416666666665719
                },
                {
                    "name": "G6",
                    "midi": 91,
                    "time": 241.1093750000004,
                    "velocity": 0.47244094488188976,
                    "duration": 0.09375
                },
                {
                    "name": "A6",
                    "midi": 93,
                    "time": 241.19270833333374,
                    "velocity": 0.47244094488188976,
                    "duration": 0.09895833333331439
                },
                {
                    "name": "G6",
                    "midi": 91,
                    "time": 241.2812500000004,
                    "velocity": 0.47244094488188976,
                    "duration": 0.09895833333334281
                },
                {
                    "name": "A6",
                    "midi": 93,
                    "time": 241.3750000000004,
                    "velocity": 0.47244094488188976,
                    "duration": 0.08333333333334281
                },
                {
                    "name": "G6",
                    "midi": 91,
                    "time": 241.45833333333374,
                    "velocity": 0.47244094488188976,
                    "duration": 0.08333333333334281
                },
                {
                    "name": "A6",
                    "midi": 93,
                    "time": 241.54166666666708,
                    "velocity": 0.47244094488188976,
                    "duration": 0.08854166666665719
                },
                {
                    "name": "G6",
                    "midi": 91,
                    "time": 241.63020833333374,
                    "velocity": 0.47244094488188976,
                    "duration": 0.078125
                },
                {
                    "name": "A6",
                    "midi": 93,
                    "time": 241.70833333333374,
                    "velocity": 0.47244094488188976,
                    "duration": 0.06770833333334281
                },
                {
                    "name": "E4",
                    "midi": 64,
                    "time": 241.78645833333374,
                    "velocity": 0.49606299212598426,
                    "duration": 0.375
                },
                {
                    "name": "A4",
                    "midi": 69,
                    "time": 241.78645833333374,
                    "velocity": 0.5433070866141733,
                    "duration": 0.2552083333333428
                },
                {
                    "name": "F#4",
                    "midi": 66,
                    "time": 241.78645833333374,
                    "velocity": 0.47244094488188976,
                    "duration": 0.3854166666666572
                },
                {
                    "name": "G6",
                    "midi": 91,
                    "time": 241.78645833333374,
                    "velocity": 0.47244094488188976,
                    "duration": 0.09895833333334281
                },
                {
                    "name": "A#3",
                    "midi": 58,
                    "time": 241.79166666666708,
                    "velocity": 0.47244094488188976,
                    "duration": 0.3802083333333144
                },
                {
                    "name": "A6",
                    "midi": 93,
                    "time": 241.87500000000043,
                    "velocity": 0.47244094488188976,
                    "duration": 0.07291666666665719
                },
                {
                    "name": "G6",
                    "midi": 91,
                    "time": 241.94791666666708,
                    "velocity": 0.47244094488188976,
                    "duration": 0.08333333333334281
                },
                {
                    "name": "A6",
                    "midi": 93,
                    "time": 242.02604166666708,
                    "velocity": 0.47244094488188976,
                    "duration": 0.07291666666665719
                },
                {
                    "name": "B4",
                    "midi": 71,
                    "time": 242.09895833333374,
                    "velocity": 0.5984251968503937,
                    "duration": 0.0625
                },
                {
                    "name": "G6",
                    "midi": 91,
                    "time": 242.10416666666708,
                    "velocity": 0.48031496062992124,
                    "duration": 0.10416666666665719
                },
                {
                    "name": "A6",
                    "midi": 93,
                    "time": 242.1875000000004,
                    "velocity": 0.4881889763779528,
                    "duration": 0.07291666666668561
                },
                {
                    "name": "G6",
                    "midi": 91,
                    "time": 242.26041666666708,
                    "velocity": 0.47244094488188976,
                    "duration": 0.078125
                },
                {
                    "name": "A4",
                    "midi": 69,
                    "time": 242.33854166666708,
                    "velocity": 0.5118110236220472,
                    "duration": 0.09895833333331439
                },
                {
                    "name": "D#4",
                    "midi": 63,
                    "time": 242.33854166666708,
                    "velocity": 0.5196850393700787,
                    "duration": 0.07291666666665719
                },
                {
                    "name": "G3",
                    "midi": 55,
                    "time": 242.33854166666708,
                    "velocity": 0.5433070866141733,
                    "duration": 0.07291666666665719
                },
                {
                    "name": "A6",
                    "midi": 93,
                    "time": 242.34895833333374,
                    "velocity": 0.48031496062992124,
                    "duration": 0.140625
                },
                {
                    "name": "G6",
                    "midi": 91,
                    "time": 242.5000000000004,
                    "velocity": 0.4881889763779528,
                    "duration": 0.1302083333333428
                },
                {
                    "name": "D5",
                    "midi": 74,
                    "time": 242.5000000000004,
                    "velocity": 0.6456692913385826,
                    "duration": 0.7864583333333428
                },
                {
                    "name": "A6",
                    "midi": 93,
                    "time": 242.63020833333374,
                    "velocity": 0.5039370078740157,
                    "duration": 0.109375
                },
                {
                    "name": "G6",
                    "midi": 91,
                    "time": 242.74479166666708,
                    "velocity": 0.5433070866141733,
                    "duration": 0.08854166666668561
                },
                {
                    "name": "A6",
                    "midi": 93,
                    "time": 242.82812500000043,
                    "velocity": 0.47244094488188976,
                    "duration": 0.08333333333334281
                },
                {
                    "name": "G6",
                    "midi": 91,
                    "time": 242.90625000000043,
                    "velocity": 0.5275590551181102,
                    "duration": 0.08854166666665719
                },
                {
                    "name": "A6",
                    "midi": 93,
                    "time": 242.98437500000043,
                    "velocity": 0.36220472440944884,
                    "duration": 0.078125
                },
                {
                    "name": "G6",
                    "midi": 91,
                    "time": 243.06250000000043,
                    "velocity": 0.47244094488188976,
                    "duration": 0.08333333333331439
                },
                {
                    "name": "A6",
                    "midi": 93,
                    "time": 243.13541666666708,
                    "velocity": 0.4330708661417323,
                    "duration": 0.08854166666665719
                },
                {
                    "name": "G6",
                    "midi": 91,
                    "time": 243.22916666666708,
                    "velocity": 0.47244094488188976,
                    "duration": 0.09375
                },
                {
                    "name": "A6",
                    "midi": 93,
                    "time": 243.31770833333374,
                    "velocity": 0.4409448818897638,
                    "duration": 0.08333333333334281
                },
                {
                    "name": "G6",
                    "midi": 91,
                    "time": 243.39583333333374,
                    "velocity": 0.49606299212598426,
                    "duration": 0.09895833333334281
                },
                {
                    "name": "A6",
                    "midi": 93,
                    "time": 243.48958333333374,
                    "velocity": 0.4409448818897638,
                    "duration": 0.08333333333334281
                },
                {
                    "name": "G6",
                    "midi": 91,
                    "time": 243.57812500000043,
                    "velocity": 0.5275590551181102,
                    "duration": 0.06770833333334281
                },
                {
                    "name": "A6",
                    "midi": 93,
                    "time": 243.65625000000043,
                    "velocity": 0.47244094488188976,
                    "duration": 0.08333333333334281
                },
                {
                    "name": "G6",
                    "midi": 91,
                    "time": 243.73958333333377,
                    "velocity": 0.5039370078740157,
                    "duration": 0.06770833333334281
                },
                {
                    "name": "A6",
                    "midi": 93,
                    "time": 243.81770833333377,
                    "velocity": 0.49606299212598426,
                    "duration": 0.078125
                },
                {
                    "name": "G6",
                    "midi": 91,
                    "time": 243.89583333333377,
                    "velocity": 0.5039370078740157,
                    "duration": 0.078125
                },
                {
                    "name": "A6",
                    "midi": 93,
                    "time": 243.97395833333377,
                    "velocity": 0.4881889763779528,
                    "duration": 0.07291666666665719
                },
                {
                    "name": "G6",
                    "midi": 91,
                    "time": 244.04687500000043,
                    "velocity": 0.48031496062992124,
                    "duration": 0.078125
                },
                {
                    "name": "A6",
                    "midi": 93,
                    "time": 244.12500000000043,
                    "velocity": 0.47244094488188976,
                    "duration": 0.078125
                },
                {
                    "name": "G6",
                    "midi": 91,
                    "time": 244.20312500000043,
                    "velocity": 0.47244094488188976,
                    "duration": 0.06770833333334281
                },
                {
                    "name": "A6",
                    "midi": 93,
                    "time": 244.28125000000043,
                    "velocity": 0.49606299212598426,
                    "duration": 0.07291666666665719
                },
                {
                    "name": "G6",
                    "midi": 91,
                    "time": 244.35416666666708,
                    "velocity": 0.5039370078740157,
                    "duration": 0.07291666666665719
                },
                {
                    "name": "A6",
                    "midi": 93,
                    "time": 244.42708333333374,
                    "velocity": 0.49606299212598426,
                    "duration": 0.0625
                },
                {
                    "name": "G6",
                    "midi": 91,
                    "time": 244.48958333333374,
                    "velocity": 0.4645669291338583,
                    "duration": 0.06770833333334281
                },
                {
                    "name": "B4",
                    "midi": 71,
                    "time": 244.55208333333374,
                    "velocity": 0.49606299212598426,
                    "duration": 0.6250000000000284
                },
                {
                    "name": "A4",
                    "midi": 69,
                    "time": 244.55208333333374,
                    "velocity": 0.5275590551181102,
                    "duration": 0.6250000000000284
                },
                {
                    "name": "D#4",
                    "midi": 63,
                    "time": 244.55208333333374,
                    "velocity": 0.4015748031496063,
                    "duration": 0.6302083333333712
                },
                {
                    "name": "F#6",
                    "midi": 90,
                    "time": 244.55729166666708,
                    "velocity": 0.5039370078740157,
                    "duration": 0.07291666666665719
                },
                {
                    "name": "G#6",
                    "midi": 92,
                    "time": 244.63020833333374,
                    "velocity": 0.47244094488188976,
                    "duration": 0.06770833333334281
                },
                {
                    "name": "F#6",
                    "midi": 90,
                    "time": 244.69791666666708,
                    "velocity": 0.5118110236220472,
                    "duration": 0.08333333333334281
                },
                {
                    "name": "G#6",
                    "midi": 92,
                    "time": 244.77604166666708,
                    "velocity": 0.4881889763779528,
                    "duration": 0.06770833333334281
                },
                {
                    "name": "D5",
                    "midi": 74,
                    "time": 244.84895833333377,
                    "velocity": 0.6692913385826772,
                    "duration": 0.125
                },
                {
                    "name": "F#6",
                    "midi": 90,
                    "time": 244.84895833333377,
                    "velocity": 0.4881889763779528,
                    "duration": 0.08333333333334281
                },
                {
                    "name": "G#6",
                    "midi": 92,
                    "time": 244.92708333333377,
                    "velocity": 0.5039370078740157,
                    "duration": 0.07291666666665719
                },
                {
                    "name": "F#6",
                    "midi": 90,
                    "time": 245.00520833333377,
                    "velocity": 0.5748031496062992,
                    "duration": 0.078125
                },
                {
                    "name": "G#6",
                    "midi": 92,
                    "time": 245.08333333333377,
                    "velocity": 0.5275590551181102,
                    "duration": 0.078125
                },
                {
                    "name": "E5",
                    "midi": 76,
                    "time": 245.16145833333377,
                    "velocity": 0.6614173228346457,
                    "duration": 0.020833333333342807
                },
                {
                    "name": "F#6",
                    "midi": 90,
                    "time": 245.16145833333377,
                    "velocity": 0.5590551181102362,
                    "duration": 0.08854166666668561
                },
                {
                    "name": "G#6",
                    "midi": 92,
                    "time": 245.2447916666671,
                    "velocity": 0.5118110236220472,
                    "duration": 0.078125
                },
                {
                    "name": "F#6",
                    "midi": 90,
                    "time": 245.3229166666671,
                    "velocity": 0.5511811023622047,
                    "duration": 0.07291666666665719
                },
                {
                    "name": "G#6",
                    "midi": 92,
                    "time": 245.39583333333377,
                    "velocity": 0.5748031496062992,
                    "duration": 0.1927083333333428
                },
                {
                    "name": "G#4",
                    "midi": 68,
                    "time": 245.45833333333377,
                    "velocity": 0.47244094488188976,
                    "duration": 0.0625
                },
                {
                    "name": "D5",
                    "midi": 74,
                    "time": 245.45833333333377,
                    "velocity": 0.5433070866141733,
                    "duration": 0.078125
                },
                {
                    "name": "C4",
                    "midi": 60,
                    "time": 245.45833333333377,
                    "velocity": 0.5275590551181102,
                    "duration": 0.0625
                },
                {
                    "name": "G5",
                    "midi": 79,
                    "time": 245.5885416666671,
                    "velocity": 0.7559055118110236,
                    "duration": 0.3593749999999716
                },
                {
                    "name": "F#6",
                    "midi": 90,
                    "time": 245.59895833333377,
                    "velocity": 0.5275590551181102,
                    "duration": 0.08333333333334281
                },
                {
                    "name": "G#6",
                    "midi": 92,
                    "time": 245.6822916666671,
                    "velocity": 0.5039370078740157,
                    "duration": 0.08333333333331439
                },
                {
                    "name": "F#6",
                    "midi": 90,
                    "time": 245.75520833333377,
                    "velocity": 0.5039370078740157,
                    "duration": 0.07291666666665719
                },
                {
                    "name": "G#6",
                    "midi": 92,
                    "time": 245.83333333333377,
                    "velocity": 0.47244094488188976,
                    "duration": 0.07291666666665719
                },
                {
                    "name": "F#6",
                    "midi": 90,
                    "time": 245.90625000000043,
                    "velocity": 0.5118110236220472,
                    "duration": 0.08333333333331439
                },
                {
                    "name": "G#6",
                    "midi": 92,
                    "time": 245.97916666666708,
                    "velocity": 0.49606299212598426,
                    "duration": 0.08854166666665719
                },
                {
                    "name": "F#6",
                    "midi": 90,
                    "time": 246.05208333333374,
                    "velocity": 0.5433070866141733,
                    "duration": 0.078125
                },
                {
                    "name": "G#6",
                    "midi": 92,
                    "time": 246.1250000000004,
                    "velocity": 0.4881889763779528,
                    "duration": 0.0625
                },
                {
                    "name": "F#6",
                    "midi": 90,
                    "time": 246.1875000000004,
                    "velocity": 0.49606299212598426,
                    "duration": 0.07291666666665719
                },
                {
                    "name": "G#6",
                    "midi": 92,
                    "time": 246.26041666666706,
                    "velocity": 0.5039370078740157,
                    "duration": 0.06770833333334281
                },
                {
                    "name": "F#6",
                    "midi": 90,
                    "time": 246.33333333333374,
                    "velocity": 0.5275590551181102,
                    "duration": 0.07291666666665719
                },
                {
                    "name": "G#6",
                    "midi": 92,
                    "time": 246.4062500000004,
                    "velocity": 0.5039370078740157,
                    "duration": 0.07291666666665719
                },
                {
                    "name": "F6",
                    "midi": 89,
                    "time": 246.4843750000004,
                    "velocity": 0.5433070866141733,
                    "duration": 0.08333333333337123
                },
                {
                    "name": "G#4",
                    "midi": 68,
                    "time": 246.48958333333374,
                    "velocity": 0.4409448818897638,
                    "duration": 0.11458333333337123
                },
                {
                    "name": "D5",
                    "midi": 74,
                    "time": 246.48958333333374,
                    "velocity": 0.5275590551181102,
                    "duration": 0.10937500000002842
                },
                {
                    "name": "E5",
                    "midi": 76,
                    "time": 246.48958333333374,
                    "velocity": 0.6062992125984252,
                    "duration": 0.13541666666671404
                },
                {
                    "name": "G6",
                    "midi": 91,
                    "time": 246.56250000000043,
                    "velocity": 0.5433070866141733,
                    "duration": 0.057291666666685614
                },
                {
                    "name": "F6",
                    "midi": 89,
                    "time": 246.62500000000045,
                    "velocity": 0.5433070866141733,
                    "duration": 0.08333333333334281
                },
                {
                    "name": "G6",
                    "midi": 91,
                    "time": 246.6927083333338,
                    "velocity": 0.6062992125984252,
                    "duration": 0.0625
                },
                {
                    "name": "G5",
                    "midi": 79,
                    "time": 246.76041666666714,
                    "velocity": 0.7244094488188977,
                    "duration": 0.21875000000002842
                },
                {
                    "name": "F6",
                    "midi": 89,
                    "time": 246.76041666666714,
                    "velocity": 0.5433070866141733,
                    "duration": 0.07291666666665719
                },
                {
                    "name": "G6",
                    "midi": 91,
                    "time": 246.83854166666714,
                    "velocity": 0.5905511811023622,
                    "duration": 0.0625
                },
                {
                    "name": "F6",
                    "midi": 89,
                    "time": 246.90625000000048,
                    "velocity": 0.5433070866141733,
                    "duration": 0.07291666666668561
                },
                {
                    "name": "G6",
                    "midi": 91,
                    "time": 246.97395833333383,
                    "velocity": 0.5748031496062992,
                    "duration": 0.0625
                },
                {
                    "name": "A5",
                    "midi": 81,
                    "time": 247.04166666666717,
                    "velocity": 0.7244094488188977,
                    "duration": 0.06770833333334281
                },
                {
                    "name": "F6",
                    "midi": 89,
                    "time": 247.0468750000005,
                    "velocity": 0.5275590551181102,
                    "duration": 0.05729166666665719
                },
                {
                    "name": "G6",
                    "midi": 91,
                    "time": 247.1093750000005,
                    "velocity": 0.5905511811023622,
                    "duration": 0.06770833333334281
                },
                {
                    "name": "F6",
                    "midi": 89,
                    "time": 247.1875000000005,
                    "velocity": 0.5590551181102362,
                    "duration": 0.057291666666685614
                },
                {
                    "name": "F4",
                    "midi": 65,
                    "time": 247.22395833333385,
                    "velocity": 0.5905511811023622,
                    "duration": 0.05729166666665719
                },
                {
                    "name": "G6",
                    "midi": 91,
                    "time": 247.2447916666672,
                    "velocity": 0.5748031496062992,
                    "duration": 0.16145833333331439
                },
                {
                    "name": "C#5",
                    "midi": 73,
                    "time": 247.27083333333385,
                    "velocity": 0.4251968503937008,
                    "duration": 0.04166666666665719
                },
                {
                    "name": "G5",
                    "midi": 79,
                    "time": 247.31770833333385,
                    "velocity": 0.5905511811023622,
                    "duration": 0.04166666666665719
                },
                {
                    "name": "E6",
                    "midi": 88,
                    "time": 247.41666666666717,
                    "velocity": 0.5275590551181102,
                    "duration": 0.125
                },
                {
                    "name": "C6",
                    "midi": 84,
                    "time": 247.4375000000005,
                    "velocity": 0.7480314960629921,
                    "duration": 0.40625
                },
                {
                    "name": "F#6",
                    "midi": 90,
                    "time": 247.5468750000005,
                    "velocity": 0.5354330708661418,
                    "duration": 0.05208333333334281
                },
                {
                    "name": "E6",
                    "midi": 88,
                    "time": 247.6093750000005,
                    "velocity": 0.5275590551181102,
                    "duration": 0.078125
                },
                {
                    "name": "F#6",
                    "midi": 90,
                    "time": 247.68229166666717,
                    "velocity": 0.5039370078740157,
                    "duration": 0.0625
                },
                {
                    "name": "E6",
                    "midi": 88,
                    "time": 247.75520833333383,
                    "velocity": 0.5275590551181102,
                    "duration": 0.08854166666668561
                },
                {
                    "name": "F#6",
                    "midi": 90,
                    "time": 247.82291666666717,
                    "velocity": 0.4881889763779528,
                    "duration": 0.07291666666668561
                },
                {
                    "name": "E6",
                    "midi": 88,
                    "time": 247.9062500000005,
                    "velocity": 0.5354330708661418,
                    "duration": 0.109375
                },
                {
                    "name": "F#6",
                    "midi": 90,
                    "time": 248.00520833333385,
                    "velocity": 0.5039370078740157,
                    "duration": 0.09375
                },
                {
                    "name": "C#5",
                    "midi": 73,
                    "time": 248.1041666666672,
                    "velocity": 0.5039370078740157,
                    "duration": 0.11979166666665719
                },
                {
                    "name": "E5",
                    "midi": 76,
                    "time": 248.1041666666672,
                    "velocity": 0.5748031496062992,
                    "duration": 0.140625
                },
                {
                    "name": "D#6",
                    "midi": 87,
                    "time": 248.1041666666672,
                    "velocity": 0.5433070866141733,
                    "duration": 0.08333333333331439
                },
                {
                    "name": "G#4",
                    "midi": 68,
                    "time": 248.1041666666672,
                    "velocity": 0.4881889763779528,
                    "duration": 0.11979166666665719
                },
                {
                    "name": "F6",
                    "midi": 89,
                    "time": 248.17708333333385,
                    "velocity": 0.5039370078740157,
                    "duration": 0.07291666666668561
                },
                {
                    "name": "D#6",
                    "midi": 87,
                    "time": 248.25520833333388,
                    "velocity": 0.49606299212598426,
                    "duration": 0.07291666666668561
                },
                {
                    "name": "F6",
                    "midi": 89,
                    "time": 248.32291666666723,
                    "velocity": 0.5275590551181102,
                    "duration": 0.0625
                },
                {
                    "name": "G5",
                    "midi": 79,
                    "time": 248.39062500000057,
                    "velocity": 0.7244094488188977,
                    "duration": 0.14583333333331439
                },
                {
                    "name": "D#6",
                    "midi": 87,
                    "time": 248.39062500000057,
                    "velocity": 0.49606299212598426,
                    "duration": 0.08333333333331439
                },
                {
                    "name": "F6",
                    "midi": 89,
                    "time": 248.46354166666723,
                    "velocity": 0.5433070866141733,
                    "duration": 0.07291666666665719
                },
                {
                    "name": "D#6",
                    "midi": 87,
                    "time": 248.54166666666723,
                    "velocity": 0.4881889763779528,
                    "duration": 0.06770833333334281
                },
                {
                    "name": "F6",
                    "midi": 89,
                    "time": 248.60937500000057,
                    "velocity": 0.5590551181102362,
                    "duration": 0.06770833333334281
                },
                {
                    "name": "A5",
                    "midi": 81,
                    "time": 248.6770833333339,
                    "velocity": 0.7874015748031497,
                    "duration": 0.015625
                },
                {
                    "name": "D#6",
                    "midi": 87,
                    "time": 248.68750000000057,
                    "velocity": 0.49606299212598426,
                    "duration": 0.08333333333334281
                },
                {
                    "name": "F6",
                    "midi": 89,
                    "time": 248.76562500000057,
                    "velocity": 0.5433070866141733,
                    "duration": 0.07291666666668561
                },
                {
                    "name": "D#6",
                    "midi": 87,
                    "time": 248.83854166666725,
                    "velocity": 0.4881889763779528,
                    "duration": 0.06770833333331439
                },
                {
                    "name": "F6",
                    "midi": 89,
                    "time": 248.8958333333339,
                    "velocity": 0.5433070866141733,
                    "duration": 0.20833333333331439
                },
                {
                    "name": "F4",
                    "midi": 65,
                    "time": 248.90625000000057,
                    "velocity": 0.5905511811023622,
                    "duration": 0.078125
                },
                {
                    "name": "C#5",
                    "midi": 73,
                    "time": 248.93229166666723,
                    "velocity": 0.5433070866141733,
                    "duration": 0.07291666666665719
                },
                {
                    "name": "G5",
                    "midi": 79,
                    "time": 248.99479166666723,
                    "velocity": 0.5905511811023622,
                    "duration": 0.046875
                },
                {
                    "name": "C6",
                    "midi": 84,
                    "time": 249.10416666666723,
                    "velocity": 0.7007874015748031,
                    "duration": 0.1770833333333428
                },
                {
                    "name": "D6",
                    "midi": 86,
                    "time": 249.10937500000057,
                    "velocity": 0.5433070866141733,
                    "duration": 0.1302083333333428
                },
                {
                    "name": "E6",
                    "midi": 88,
                    "time": 249.2395833333339,
                    "velocity": 0.5905511811023622,
                    "duration": 0.0625
                },
                {
                    "name": "D6",
                    "midi": 86,
                    "time": 249.30729166666725,
                    "velocity": 0.5590551181102362,
                    "duration": 0.08333333333331439
                },
                {
                    "name": "E6",
                    "midi": 88,
                    "time": 249.3802083333339,
                    "velocity": 0.6299212598425197,
                    "duration": 0.06770833333331439
                },
                {
                    "name": "G5",
                    "midi": 79,
                    "time": 249.45312500000057,
                    "velocity": 0.6771653543307087,
                    "duration": 0.15625
                },
                {
                    "name": "D6",
                    "midi": 86,
                    "time": 249.45312500000057,
                    "velocity": 0.5905511811023622,
                    "duration": 0.078125
                },
                {
                    "name": "E6",
                    "midi": 88,
                    "time": 249.53125000000057,
                    "velocity": 0.5748031496062992,
                    "duration": 0.05729166666665719
                },
                {
                    "name": "D6",
                    "midi": 86,
                    "time": 249.60416666666723,
                    "velocity": 0.6299212598425197,
                    "duration": 0.0625
                },
                {
                    "name": "E6",
                    "midi": 88,
                    "time": 249.66666666666723,
                    "velocity": 0.5748031496062992,
                    "duration": 0.06770833333334281
                },
                {
                    "name": "A5",
                    "midi": 81,
                    "time": 249.7395833333339,
                    "velocity": 0.6535433070866141,
                    "duration": 0.020833333333342807
                },
                {
                    "name": "D6",
                    "midi": 86,
                    "time": 249.7395833333339,
                    "velocity": 0.6771653543307087,
                    "duration": 0.08333333333334281
                },
                {
                    "name": "E6",
                    "midi": 88,
                    "time": 249.82291666666725,
                    "velocity": 0.5905511811023622,
                    "duration": 0.07291666666665719
                },
                {
                    "name": "D6",
                    "midi": 86,
                    "time": 249.90104166666725,
                    "velocity": 0.6535433070866141,
                    "duration": 0.05729166666665719
                },
                {
                    "name": "E6",
                    "midi": 88,
                    "time": 249.96354166666725,
                    "velocity": 0.5905511811023622,
                    "duration": 0.020833333333314386
                },
                {
                    "name": "F4",
                    "midi": 65,
                    "time": 249.9739583333339,
                    "velocity": 0.5039370078740157,
                    "duration": 0.29166666666671404
                },
                {
                    "name": "C#5",
                    "midi": 73,
                    "time": 250.0052083333339,
                    "velocity": 0.5118110236220472,
                    "duration": 0.26041666666671404
                },
                {
                    "name": "G5",
                    "midi": 79,
                    "time": 250.0364583333339,
                    "velocity": 0.6299212598425197,
                    "duration": 0.30729166666671404
                },
                {
                    "name": "C#6",
                    "midi": 85,
                    "time": 250.07291666666725,
                    "velocity": 0.6062992125984252,
                    "duration": 0.09895833333334281
                },
                {
                    "name": "C6",
                    "midi": 84,
                    "time": 250.07291666666725,
                    "velocity": 0.5905511811023622,
                    "duration": 1.1145833333333712
                },
                {
                    "name": "D#6",
                    "midi": 87,
                    "time": 250.1718750000006,
                    "velocity": 0.5748031496062992,
                    "duration": 0.08854166666668561
                },
                {
                    "name": "C#6",
                    "midi": 85,
                    "time": 250.25520833333394,
                    "velocity": 0.5748031496062992,
                    "duration": 0.09375000000002842
                },
                {
                    "name": "D#6",
                    "midi": 87,
                    "time": 250.34375000000063,
                    "velocity": 0.5433070866141733,
                    "duration": 0.078125
                },
                {
                    "name": "C#6",
                    "midi": 85,
                    "time": 250.42708333333397,
                    "velocity": 0.5118110236220472,
                    "duration": 0.08854166666668561
                },
                {
                    "name": "G5",
                    "midi": 79,
                    "time": 250.4322916666673,
                    "velocity": 0.6535433070866141,
                    "duration": 0.28125
                },
                {
                    "name": "D#6",
                    "midi": 87,
                    "time": 250.51562500000065,
                    "velocity": 0.5433070866141733,
                    "duration": 0.07291666666665719
                },
                {
                    "name": "C#6",
                    "midi": 85,
                    "time": 250.59375000000065,
                    "velocity": 0.5275590551181102,
                    "duration": 0.08854166666665719
                },
                {
                    "name": "D#6",
                    "midi": 87,
                    "time": 250.67187500000065,
                    "velocity": 0.5118110236220472,
                    "duration": 0.09895833333331439
                },
                {
                    "name": "A5",
                    "midi": 81,
                    "time": 250.77083333333397,
                    "velocity": 0.7007874015748031,
                    "duration": 0.04166666666665719
                },
                {
                    "name": "C#6",
                    "midi": 85,
                    "time": 250.77083333333397,
                    "velocity": 0.5590551181102362,
                    "duration": 0.09895833333334281
                },
                {
                    "name": "D#6",
                    "midi": 87,
                    "time": 250.86458333333397,
                    "velocity": 0.5118110236220472,
                    "duration": 0.11979166666665719
                },
                {
                    "name": "C#6",
                    "midi": 85,
                    "time": 250.97395833333397,
                    "velocity": 0.5748031496062992,
                    "duration": 0.09375
                },
                {
                    "name": "D#6",
                    "midi": 87,
                    "time": 251.0729166666673,
                    "velocity": 0.6062992125984252,
                    "duration": 0.09895833333331439
                },
                {
                    "name": "F#4",
                    "midi": 66,
                    "time": 251.1041666666673,
                    "velocity": 0.4645669291338583,
                    "duration": 0.7760416666666856
                },
                {
                    "name": "D5",
                    "midi": 74,
                    "time": 251.16145833333397,
                    "velocity": 0.6062992125984252,
                    "duration": 0.7187500000000284
                },
                {
                    "name": "G5",
                    "midi": 79,
                    "time": 251.21354166666728,
                    "velocity": 0.5748031496062992,
                    "duration": 0.6614583333333712
                },
                {
                    "name": "C#6",
                    "midi": 85,
                    "time": 251.36458333333397,
                    "velocity": 0.7007874015748031,
                    "duration": 0.12500000000002842
                },
                {
                    "name": "C6",
                    "midi": 84,
                    "time": 251.3697916666673,
                    "velocity": 0.5590551181102362,
                    "duration": 0.06770833333334281
                },
                {
                    "name": "C6",
                    "midi": 84,
                    "time": 251.505208333334,
                    "velocity": 0.6535433070866141,
                    "duration": 0.140625
                },
                {
                    "name": "C#6",
                    "midi": 85,
                    "time": 251.661458333334,
                    "velocity": 0.6062992125984252,
                    "duration": 0.140625
                },
                {
                    "name": "C6",
                    "midi": 84,
                    "time": 251.817708333334,
                    "velocity": 0.5433070866141733,
                    "duration": 0.15625
                },
                {
                    "name": "B5",
                    "midi": 83,
                    "time": 251.973958333334,
                    "velocity": 0.5039370078740157,
                    "duration": 0.1875
                },
                {
                    "name": "A#5",
                    "midi": 82,
                    "time": 252.12500000000065,
                    "velocity": 0.5039370078740157,
                    "duration": 0.1510416666666572
                },
                {
                    "name": "B5",
                    "midi": 83,
                    "time": 252.26562500000065,
                    "velocity": 0.49606299212598426,
                    "duration": 0.140625
                },
                {
                    "name": "A#5",
                    "midi": 82,
                    "time": 252.4010416666673,
                    "velocity": 0.4881889763779528,
                    "duration": 0.1302083333333428
                },
                {
                    "name": "A5",
                    "midi": 81,
                    "time": 252.5260416666673,
                    "velocity": 0.4881889763779528,
                    "duration": 0.15625
                },
                {
                    "name": "G#5",
                    "midi": 80,
                    "time": 252.6666666666673,
                    "velocity": 0.4881889763779528,
                    "duration": 0.1510416666666572
                },
                {
                    "name": "A5",
                    "midi": 81,
                    "time": 252.8072916666673,
                    "velocity": 0.47244094488188976,
                    "duration": 0.16145833333331439
                },
                {
                    "name": "G#5",
                    "midi": 80,
                    "time": 252.95312500000063,
                    "velocity": 0.4566929133858268,
                    "duration": 0.15625
                },
                {
                    "name": "G5",
                    "midi": 79,
                    "time": 253.10937500000063,
                    "velocity": 0.4566929133858268,
                    "duration": 0.1979166666666572
                },
                {
                    "name": "F#5",
                    "midi": 78,
                    "time": 253.28125000000063,
                    "velocity": 0.48031496062992124,
                    "duration": 0.1927083333333428
                },
                {
                    "name": "G5",
                    "midi": 79,
                    "time": 253.45312500000063,
                    "velocity": 0.44881889763779526,
                    "duration": 0.1770833333333428
                },
                {
                    "name": "F#5",
                    "midi": 78,
                    "time": 253.63020833333397,
                    "velocity": 0.4566929133858268,
                    "duration": 0.1979166666666572
                },
                {
                    "name": "F5",
                    "midi": 77,
                    "time": 253.81250000000063,
                    "velocity": 0.4566929133858268,
                    "duration": 0.1979166666666572
                },
                {
                    "name": "E5",
                    "midi": 76,
                    "time": 254.01041666666728,
                    "velocity": 0.4409448818897638,
                    "duration": 0.2291666666666572
                },
                {
                    "name": "F5",
                    "midi": 77,
                    "time": 254.22395833333394,
                    "velocity": 0.4330708661417323,
                    "duration": 0.265625
                },
                {
                    "name": "E5",
                    "midi": 76,
                    "time": 254.4843750000006,
                    "velocity": 0.4094488188976378,
                    "duration": 0.5104166666666572
                },
                {
                    "name": "D#5",
                    "midi": 75,
                    "time": 254.9531250000006,
                    "velocity": 0.3858267716535433,
                    "duration": 1.192708333333286
                },
                {
                    "name": "A4",
                    "midi": 69,
                    "time": 256.08854166666725,
                    "velocity": 0.33070866141732286,
                    "duration": 0.052083333333314386
                },
                {
                    "name": "F#1",
                    "midi": 30,
                    "time": 256.08854166666725,
                    "velocity": 0.33858267716535434,
                    "duration": 0.036458333333314386
                },
                {
                    "name": "F4",
                    "midi": 65,
                    "time": 256.09895833333394,
                    "velocity": 0.3464566929133858,
                    "duration": 0.09895833333325754
                },
                {
                    "name": "D2",
                    "midi": 38,
                    "time": 256.09895833333394,
                    "velocity": 0.33858267716535434,
                    "duration": 0.020833333333314386
                },
                {
                    "name": "E4",
                    "midi": 64,
                    "time": 256.3802083333339,
                    "velocity": 0.3543307086614173,
                    "duration": 0.796875
                },
                {
                    "name": "A#2",
                    "midi": 46,
                    "time": 256.3802083333339,
                    "velocity": 0.3543307086614173,
                    "duration": 0.7864583333333144
                },
                {
                    "name": "C4",
                    "midi": 60,
                    "time": 256.6510416666672,
                    "velocity": 0.3464566929133858,
                    "duration": 0.5
                },
                {
                    "name": "C#3",
                    "midi": 49,
                    "time": 256.6510416666672,
                    "velocity": 0.33858267716535434,
                    "duration": 0.5260416666666856
                },
                {
                    "name": "G#3",
                    "midi": 56,
                    "time": 256.9583333333339,
                    "velocity": 0.3543307086614173,
                    "duration": 0.19270833333331439
                },
                {
                    "name": "A#3",
                    "midi": 58,
                    "time": 256.9583333333339,
                    "velocity": 0.3464566929133858,
                    "duration": 0.20833333333331439
                },
                {
                    "name": "F4",
                    "midi": 65,
                    "time": 259.8802083333339,
                    "velocity": 0.2992125984251969,
                    "duration": 0.046875
                },
                {
                    "name": "A4",
                    "midi": 69,
                    "time": 259.8802083333339,
                    "velocity": 0.2992125984251969,
                    "duration": 0.026041666666685614
                },
                {
                    "name": "F#1",
                    "midi": 30,
                    "time": 259.8854166666672,
                    "velocity": 0.2992125984251969,
                    "duration": 0.041666666666685614
                },
                {
                    "name": "D#5",
                    "midi": 75,
                    "time": 259.8958333333339,
                    "velocity": 0.25984251968503935,
                    "duration": 0.015625
                },
                {
                    "name": "D2",
                    "midi": 38,
                    "time": 259.8958333333339,
                    "velocity": 0.2992125984251969,
                    "duration": 0.020833333333314386
                },
                {
                    "name": "E4",
                    "midi": 64,
                    "time": 260.17187500000057,
                    "velocity": 0.2992125984251969,
                    "duration": 0.7395833333333144
                },
                {
                    "name": "A#2",
                    "midi": 46,
                    "time": 260.1770833333339,
                    "velocity": 0.2992125984251969,
                    "duration": 0.7708333333333712
                },
                {
                    "name": "C#3",
                    "midi": 49,
                    "time": 260.4635416666672,
                    "velocity": 0.29133858267716534,
                    "duration": 0.48437500000005684
                },
                {
                    "name": "C4",
                    "midi": 60,
                    "time": 260.4791666666672,
                    "velocity": 0.29133858267716534,
                    "duration": 0.45833333333337123
                },
                {
                    "name": "G#3",
                    "midi": 56,
                    "time": 260.7604166666672,
                    "velocity": 0.29133858267716534,
                    "duration": 0.17708333333337123
                },
                {
                    "name": "A#3",
                    "midi": 58,
                    "time": 260.7760416666672,
                    "velocity": 0.29133858267716534,
                    "duration": 0.19791666666674246
                },
                {
                    "name": "D#5",
                    "midi": 75,
                    "time": 263.5468750000006,
                    "velocity": 0.2440944881889764,
                    "duration": 0.08333333333337123
                },
                {
                    "name": "A4",
                    "midi": 69,
                    "time": 263.5468750000006,
                    "velocity": 0.2755905511811024,
                    "duration": 0.08333333333337123
                },
                {
                    "name": "F#1",
                    "midi": 30,
                    "time": 263.5468750000006,
                    "velocity": 0.2677165354330709,
                    "duration": 0.07291666666668561
                },
                {
                    "name": "F4",
                    "midi": 65,
                    "time": 263.5572916666673,
                    "velocity": 0.2677165354330709,
                    "duration": 0.09895833333337123
                },
                {
                    "name": "D2",
                    "midi": 38,
                    "time": 263.5729166666673,
                    "velocity": 0.25984251968503935,
                    "duration": 0.046875
                },
                {
                    "name": "E4",
                    "midi": 64,
                    "time": 264.192708333334,
                    "velocity": 0.2440944881889764,
                    "duration": 0.13020833333331439
                },
                {
                    "name": "A#2",
                    "midi": 46,
                    "time": 264.192708333334,
                    "velocity": 0.2440944881889764,
                    "duration": 1.8645833333332575
                },
                {
                    "name": "C4",
                    "midi": 60,
                    "time": 264.8750000000006,
                    "velocity": 0.23622047244094488,
                    "duration": 0.140625
                },
                {
                    "name": "C#3",
                    "midi": 49,
                    "time": 264.8854166666673,
                    "velocity": 0.23622047244094488,
                    "duration": 1.1510416666666288
                },
                {
                    "name": "G#3",
                    "midi": 56,
                    "time": 265.7656250000006,
                    "velocity": 0.2204724409448819,
                    "duration": 0.265625
                },
                {
                    "name": "A#3",
                    "midi": 58,
                    "time": 265.7656250000006,
                    "velocity": 0.2204724409448819,
                    "duration": 0.1875
                },
                {
                    "name": "D3",
                    "midi": 50,
                    "time": 269.48958333333394,
                    "velocity": 0.1889763779527559,
                    "duration": 4.390625
                },
                {
                    "name": "B3",
                    "midi": 59,
                    "time": 269.48958333333394,
                    "velocity": 0.18110236220472442,
                    "duration": 4.380208333333314
                },
                {
                    "name": "F3",
                    "midi": 53,
                    "time": 269.48958333333394,
                    "velocity": 0.1968503937007874,
                    "duration": 4.401041666666686
                },
                {
                    "name": "A#4",
                    "midi": 70,
                    "time": 273.33854166666725,
                    "velocity": 0.2992125984251969,
                    "duration": 0.0625
                },
                {
                    "name": "D5",
                    "midi": 74,
                    "time": 273.82291666666725,
                    "velocity": 0.36220472440944884,
                    "duration": 0.7604166666667425
                },
                {
                    "name": "C#4",
                    "midi": 61,
                    "time": 274.3541666666673,
                    "velocity": 0.1732283464566929,
                    "duration": 0.5885416666666856
                },
                {
                    "name": "F3",
                    "midi": 53,
                    "time": 274.3697916666673,
                    "velocity": 0.18110236220472442,
                    "duration": 0.6041666666666856
                },
                {
                    "name": "D3",
                    "midi": 50,
                    "time": 274.3750000000006,
                    "velocity": 0.1968503937007874,
                    "duration": 0.5989583333333712
                },
                {
                    "name": "A5",
                    "midi": 81,
                    "time": 274.8593750000007,
                    "velocity": 0.33858267716535434,
                    "duration": 0.84375
                },
                {
                    "name": "B3",
                    "midi": 59,
                    "time": 275.4218750000007,
                    "velocity": 0.18110236220472442,
                    "duration": 2.1197916666666288
                },
                {
                    "name": "F3",
                    "midi": 53,
                    "time": 275.43229166666737,
                    "velocity": 0.1968503937007874,
                    "duration": 2.1197916666666288
                },
                {
                    "name": "D3",
                    "midi": 50,
                    "time": 275.43229166666737,
                    "velocity": 0.1889763779527559,
                    "duration": 2.109374999999943
                },
                {
                    "name": "E5",
                    "midi": 76,
                    "time": 276.005208333334,
                    "velocity": 0.2677165354330709,
                    "duration": 0.07291666666662877
                },
                {
                    "name": "G5",
                    "midi": 79,
                    "time": 277.48958333333394,
                    "velocity": 0.2992125984251969,
                    "duration": 0.765625
                },
                {
                    "name": "C#4",
                    "midi": 61,
                    "time": 277.9479166666673,
                    "velocity": 0.2204724409448819,
                    "duration": 0.78125
                },
                {
                    "name": "F3",
                    "midi": 53,
                    "time": 277.9531250000006,
                    "velocity": 0.2204724409448819,
                    "duration": 0.796875
                },
                {
                    "name": "D3",
                    "midi": 50,
                    "time": 277.9635416666673,
                    "velocity": 0.2047244094488189,
                    "duration": 0.7864583333333144
                },
                {
                    "name": "E5",
                    "midi": 76,
                    "time": 278.5156250000006,
                    "velocity": 0.25984251968503935,
                    "duration": 2.3229166666667425
                },
                {
                    "name": "B3",
                    "midi": 59,
                    "time": 279.1041666666673,
                    "velocity": 0.18110236220472442,
                    "duration": 2.2447916666667425
                },
                {
                    "name": "D3",
                    "midi": 50,
                    "time": 279.114583333334,
                    "velocity": 0.1889763779527559,
                    "duration": 2.234375000000057
                },
                {
                    "name": "F3",
                    "midi": 53,
                    "time": 279.114583333334,
                    "velocity": 0.16535433070866143,
                    "duration": 2.2239583333333712
                },
                {
                    "name": "G5",
                    "midi": 79,
                    "time": 281.07812500000074,
                    "velocity": 0.3700787401574803,
                    "duration": 0.546875
                },
                {
                    "name": "C#4",
                    "midi": 61,
                    "time": 281.60937500000074,
                    "velocity": 0.1889763779527559,
                    "duration": 0.7500000000000568
                },
                {
                    "name": "F#5",
                    "midi": 78,
                    "time": 281.60937500000074,
                    "velocity": 0.4094488188976378,
                    "duration": 0.29687500000005684
                },
                {
                    "name": "F3",
                    "midi": 53,
                    "time": 281.61458333333405,
                    "velocity": 0.1968503937007874,
                    "duration": 0.7656250000000568
                },
                {
                    "name": "D3",
                    "midi": 50,
                    "time": 281.62500000000074,
                    "velocity": 0.1968503937007874,
                    "duration": 0.7864583333333712
                },
                {
                    "name": "D#5",
                    "midi": 75,
                    "time": 282.1822916666675,
                    "velocity": 0.3543307086614173,
                    "duration": 2.0208333333333144
                },
                {
                    "name": "B3",
                    "midi": 59,
                    "time": 282.8020833333341,
                    "velocity": 0.1889763779527559,
                    "duration": 0.47395833333337123
                },
                {
                    "name": "D3",
                    "midi": 50,
                    "time": 282.8020833333341,
                    "velocity": 0.1889763779527559,
                    "duration": 0.5052083333333712
                },
                {
                    "name": "F3",
                    "midi": 53,
                    "time": 282.8020833333341,
                    "velocity": 0.1889763779527559,
                    "duration": 0.4635416666666856
                },
                {
                    "name": "C4",
                    "midi": 60,
                    "time": 284.2083333333341,
                    "velocity": 0.1889763779527559,
                    "duration": 2.437499999999943
                },
                {
                    "name": "E3",
                    "midi": 52,
                    "time": 284.2083333333341,
                    "velocity": 0.1889763779527559,
                    "duration": 2.4322916666666288
                },
                {
                    "name": "C#3",
                    "midi": 49,
                    "time": 284.2083333333341,
                    "velocity": 0.1732283464566929,
                    "duration": 2.4322916666666288
                },
                {
                    "name": "F5",
                    "midi": 77,
                    "time": 284.7447916666675,
                    "velocity": 0.3937007874015748,
                    "duration": 0.28125
                },
                {
                    "name": "E5",
                    "midi": 76,
                    "time": 285.2291666666675,
                    "velocity": 0.4094488188976378,
                    "duration": 0.26041666666662877
                },
                {
                    "name": "D5",
                    "midi": 74,
                    "time": 285.8333333333341,
                    "velocity": 0.4251968503937008,
                    "duration": 0.29166666666662877
                },
                {
                    "name": "D#5",
                    "midi": 75,
                    "time": 287.05729166666737,
                    "velocity": 0.36220472440944884,
                    "duration": 3.7083333333333712
                },
                {
                    "name": "A4",
                    "midi": 69,
                    "time": 287.05729166666737,
                    "velocity": 0.3228346456692913,
                    "duration": 3.687500000000057
                },
                {
                    "name": "F4",
                    "midi": 65,
                    "time": 287.05729166666737,
                    "velocity": 0.2440944881889764,
                    "duration": 3.7083333333333712
                },
                {
                    "name": "D2",
                    "midi": 38,
                    "time": 289.1093750000007,
                    "velocity": 0.2204724409448819,
                    "duration": 0.453125
                },
                {
                    "name": "F2",
                    "midi": 41,
                    "time": 289.5781250000007,
                    "velocity": 0.2047244094488189,
                    "duration": 0.4166666666666856
                },
                {
                    "name": "D2",
                    "midi": 38,
                    "time": 289.9687500000007,
                    "velocity": 0.2125984251968504,
                    "duration": 0.43750000000005684
                },
                {
                    "name": "F2",
                    "midi": 41,
                    "time": 290.39583333333405,
                    "velocity": 0.1968503937007874,
                    "duration": 0.4322916666666856
                },
                {
                    "name": "D2",
                    "midi": 38,
                    "time": 290.80208333333405,
                    "velocity": 0.2204724409448819,
                    "duration": 0.39583333333337123
                },
                {
                    "name": "F2",
                    "midi": 41,
                    "time": 291.1822916666674,
                    "velocity": 0.2204724409448819,
                    "duration": 0.4322916666666856
                },
                {
                    "name": "D2",
                    "midi": 38,
                    "time": 291.5885416666674,
                    "velocity": 0.1968503937007874,
                    "duration": 0.4114583333333144
                },
                {
                    "name": "F2",
                    "midi": 41,
                    "time": 291.9947916666674,
                    "velocity": 0.18110236220472442,
                    "duration": 0.40625
                },
                {
                    "name": "D2",
                    "midi": 38,
                    "time": 292.3697916666674,
                    "velocity": 0.1889763779527559,
                    "duration": 0.4166666666666856
                },
                {
                    "name": "F2",
                    "midi": 41,
                    "time": 292.7760416666674,
                    "velocity": 0.18110236220472442,
                    "duration": 0.42708333333337123
                },
                {
                    "name": "C#3",
                    "midi": 49,
                    "time": 293.1822916666674,
                    "velocity": 0.3700787401574803,
                    "duration": 1.2187500000000568
                },
                {
                    "name": "D2",
                    "midi": 38,
                    "time": 293.1927083333341,
                    "velocity": 0.1889763779527559,
                    "duration": 0.3854166666666856
                },
                {
                    "name": "F2",
                    "midi": 41,
                    "time": 293.5729166666675,
                    "velocity": 0.18110236220472442,
                    "duration": 0.40625
                },
                {
                    "name": "D2",
                    "midi": 38,
                    "time": 293.9479166666675,
                    "velocity": 0.2047244094488189,
                    "duration": 0.421875
                },
                {
                    "name": "F2",
                    "midi": 41,
                    "time": 294.3593750000008,
                    "velocity": 0.1732283464566929,
                    "duration": 0.4010416666666856
                },
                {
                    "name": "A3",
                    "midi": 57,
                    "time": 294.3750000000008,
                    "velocity": 0.41732283464566927,
                    "duration": 1.1770833333333144
                },
                {
                    "name": "D2",
                    "midi": 38,
                    "time": 294.75520833333417,
                    "velocity": 0.18110236220472442,
                    "duration": 0.3802083333333144
                },
                {
                    "name": "F2",
                    "midi": 41,
                    "time": 295.1510416666675,
                    "velocity": 0.18110236220472442,
                    "duration": 0.41666666666662877
                },
                {
                    "name": "D#3",
                    "midi": 51,
                    "time": 295.5312500000008,
                    "velocity": 0.2992125984251969,
                    "duration": 2.4114583333333144
                },
                {
                    "name": "D2",
                    "midi": 38,
                    "time": 295.5312500000008,
                    "velocity": 0.18110236220472442,
                    "duration": 0.4114583333333144
                },
                {
                    "name": "F2",
                    "midi": 41,
                    "time": 295.9375000000008,
                    "velocity": 0.18110236220472442,
                    "duration": 0.3958333333333144
                },
                {
                    "name": "D2",
                    "midi": 38,
                    "time": 296.3020833333341,
                    "velocity": 0.1968503937007874,
                    "duration": 0.421875
                },
                {
                    "name": "F2",
                    "midi": 41,
                    "time": 296.6979166666674,
                    "velocity": 0.18110236220472442,
                    "duration": 0.421875
                },
                {
                    "name": "D2",
                    "midi": 38,
                    "time": 297.1041666666674,
                    "velocity": 0.1889763779527559,
                    "duration": 0.41145833333337123
                },
                {
                    "name": "F2",
                    "midi": 41,
                    "time": 297.5052083333341,
                    "velocity": 0.18110236220472442,
                    "duration": 0.40625
                },
                {
                    "name": "D2",
                    "midi": 38,
                    "time": 297.8958333333341,
                    "velocity": 0.1968503937007874,
                    "duration": 0.3854166666666856
                },
                {
                    "name": "G#3",
                    "midi": 56,
                    "time": 297.9114583333341,
                    "velocity": 0.3464566929133858,
                    "duration": 0.3697916666666856
                },
                {
                    "name": "F2",
                    "midi": 41,
                    "time": 298.2864583333341,
                    "velocity": 0.18110236220472442,
                    "duration": 0.3958333333333144
                },
                {
                    "name": "D3",
                    "midi": 50,
                    "time": 298.2916666666674,
                    "velocity": 0.3228346456692913,
                    "duration": 0.7604166666666288
                },
                {
                    "name": "D2",
                    "midi": 38,
                    "time": 298.67187500000074,
                    "velocity": 0.18110236220472442,
                    "duration": 0.3802083333333144
                },
                {
                    "name": "F2",
                    "midi": 41,
                    "time": 299.01562500000074,
                    "velocity": 0.1889763779527559,
                    "duration": 0.453125
                },
                {
                    "name": "C3",
                    "midi": 48,
                    "time": 299.03125000000074,
                    "velocity": 0.3464566929133858,
                    "duration": 0.8593750000000568
                },
                {
                    "name": "D2",
                    "midi": 38,
                    "time": 299.44270833333405,
                    "velocity": 0.1889763779527559,
                    "duration": 0.40625000000005684
                },
                {
                    "name": "F2",
                    "midi": 41,
                    "time": 299.8385416666674,
                    "velocity": 0.18110236220472442,
                    "duration": 0.41666666666674246
                },
                {
                    "name": "D#3",
                    "midi": 51,
                    "time": 299.8489583333341,
                    "velocity": 0.31496062992125984,
                    "duration": 0.8281250000001137
                },
                {
                    "name": "D2",
                    "midi": 38,
                    "time": 300.2447916666675,
                    "velocity": 0.18110236220472442,
                    "duration": 0.39062500000005684
                },
                {
                    "name": "C#3",
                    "midi": 49,
                    "time": 300.62500000000085,
                    "velocity": 0.1889763779527559,
                    "duration": 1.3281250000000568
                },
                {
                    "name": "F2",
                    "midi": 41,
                    "time": 300.63541666666754,
                    "velocity": 0.18110236220472442,
                    "duration": 0.41145833333337123
                },
                {
                    "name": "D2",
                    "midi": 38,
                    "time": 301.0052083333342,
                    "velocity": 0.18110236220472442,
                    "duration": 0.3958333333333144
                },
                {
                    "name": "F2",
                    "midi": 41,
                    "time": 301.3802083333342,
                    "velocity": 0.1889763779527559,
                    "duration": 0.4166666666666856
                },
                {
                    "name": "D2",
                    "midi": 38,
                    "time": 301.7864583333342,
                    "velocity": 0.18110236220472442,
                    "duration": 0.4270833333333144
                },
                {
                    "name": "F2",
                    "midi": 41,
                    "time": 302.1770833333342,
                    "velocity": 0.1732283464566929,
                    "duration": 0.40624999999994316
                },
                {
                    "name": "D#3",
                    "midi": 51,
                    "time": 302.21354166666754,
                    "velocity": 0.33858267716535434,
                    "duration": 0.7604166666666288
                },
                {
                    "name": "D2",
                    "midi": 38,
                    "time": 302.56250000000085,
                    "velocity": 0.1889763779527559,
                    "duration": 0.3802083333333144
                },
                {
                    "name": "F2",
                    "midi": 41,
                    "time": 302.9322916666675,
                    "velocity": 0.18110236220472442,
                    "duration": 0.39062500000005684
                },
                {
                    "name": "C#3",
                    "midi": 49,
                    "time": 302.9635416666675,
                    "velocity": 0.3464566929133858,
                    "duration": 0.7552083333333712
                },
                {
                    "name": "D2",
                    "midi": 38,
                    "time": 303.31250000000085,
                    "velocity": 0.1889763779527559,
                    "duration": 0.375
                },
                {
                    "name": "F2",
                    "midi": 41,
                    "time": 303.66666666666754,
                    "velocity": 0.18110236220472442,
                    "duration": 0.4427083333333144
                },
                {
                    "name": "B2",
                    "midi": 47,
                    "time": 303.71354166666754,
                    "velocity": 0.3858267716535433,
                    "duration": 0.45312499999994316
                },
                {
                    "name": "D2",
                    "midi": 38,
                    "time": 304.07812500000085,
                    "velocity": 0.1968503937007874,
                    "duration": 0.43749999999994316
                },
                {
                    "name": "G3",
                    "midi": 55,
                    "time": 304.14583333333417,
                    "velocity": 0.36220472440944884,
                    "duration": 1.5364583333333144
                },
                {
                    "name": "F2",
                    "midi": 41,
                    "time": 304.4947916666675,
                    "velocity": 0.1889763779527559,
                    "duration": 0.41666666666662877
                },
                {
                    "name": "D2",
                    "midi": 38,
                    "time": 304.8906250000008,
                    "velocity": 0.18110236220472442,
                    "duration": 0.40625
                },
                {
                    "name": "F2",
                    "midi": 41,
                    "time": 305.2708333333341,
                    "velocity": 0.18110236220472442,
                    "duration": 0.4635416666666856
                },
                {
                    "name": "C#3",
                    "midi": 49,
                    "time": 305.69270833333417,
                    "velocity": 0.33858267716535434,
                    "duration": 1.2864583333332575
                },
                {
                    "name": "D2",
                    "midi": 38,
                    "time": 305.7135416666675,
                    "velocity": 0.1968503937007874,
                    "duration": 0.40624999999994316
                },
                {
                    "name": "F2",
                    "midi": 41,
                    "time": 306.0989583333341,
                    "velocity": 0.1968503937007874,
                    "duration": 0.3802083333333144
                },
                {
                    "name": "D2",
                    "midi": 38,
                    "time": 306.4635416666674,
                    "velocity": 0.18110236220472442,
                    "duration": 0.3489583333333144
                },
                {
                    "name": "F2",
                    "midi": 41,
                    "time": 306.79687500000074,
                    "velocity": 0.1968503937007874,
                    "duration": 0.4322916666666856
                },
                {
                    "name": "C3",
                    "midi": 48,
                    "time": 306.8541666666674,
                    "velocity": 0.2992125984251969,
                    "duration": 0.41666666666662877
                },
                {
                    "name": "D2",
                    "midi": 38,
                    "time": 307.1979166666674,
                    "velocity": 0.18110236220472442,
                    "duration": 0.43229166666662877
                },
                {
                    "name": "G3",
                    "midi": 55,
                    "time": 307.23437500000074,
                    "velocity": 0.30708661417322836,
                    "duration": 0.7968749999999432
                },
                {
                    "name": "F2",
                    "midi": 41,
                    "time": 307.59895833333405,
                    "velocity": 0.18110236220472442,
                    "duration": 0.3958333333333144
                },
                {
                    "name": "D2",
                    "midi": 38,
                    "time": 307.97395833333405,
                    "velocity": 0.18110236220472442,
                    "duration": 0.4479166666666856
                },
                {
                    "name": "G#2",
                    "midi": 44,
                    "time": 307.99479166666737,
                    "velocity": 0.33070866141732286,
                    "duration": 0.4010416666666856
                },
                {
                    "name": "F2",
                    "midi": 41,
                    "time": 308.35416666666737,
                    "velocity": 0.18110236220472442,
                    "duration": 0.5989583333333144
                },
                {
                    "name": "C3",
                    "midi": 48,
                    "time": 308.39583333333405,
                    "velocity": 0.3543307086614173,
                    "duration": 0.078125
                },
                {
                    "name": "A4",
                    "midi": 69,
                    "time": 308.94791666666737,
                    "velocity": 0.5354330708661418,
                    "duration": 0.5416666666666288
                },
                {
                    "name": "C#4",
                    "midi": 61,
                    "time": 308.958333333334,
                    "velocity": 0.36220472440944884,
                    "duration": 0.6145833333333144
                },
                {
                    "name": "A#1",
                    "midi": 34,
                    "time": 308.958333333334,
                    "velocity": 0.31496062992125984,
                    "duration": 4.6510416666667425
                },
                {
                    "name": "D2",
                    "midi": 38,
                    "time": 308.958333333334,
                    "velocity": 0.30708661417322836,
                    "duration": 0.4375
                },
                {
                    "name": "F2",
                    "midi": 41,
                    "time": 309.4062500000007,
                    "velocity": 0.28346456692913385,
                    "duration": 0.48958333333325754
                },
                {
                    "name": "D2",
                    "midi": 38,
                    "time": 309.864583333334,
                    "velocity": 0.25984251968503935,
                    "duration": 0.42187499999994316
                },
                {
                    "name": "D#4",
                    "midi": 63,
                    "time": 309.8697916666673,
                    "velocity": 0.44881889763779526,
                    "duration": 0.9479166666666856
                },
                {
                    "name": "G#3",
                    "midi": 56,
                    "time": 309.8750000000006,
                    "velocity": 0.3858267716535433,
                    "duration": 0.40104166666662877
                },
                {
                    "name": "G3",
                    "midi": 55,
                    "time": 310.28645833333394,
                    "velocity": 0.47244094488188976,
                    "duration": 0.234375
                },
                {
                    "name": "F2",
                    "midi": 41,
                    "time": 310.28645833333394,
                    "velocity": 0.23622047244094488,
                    "duration": 0.4010416666666856
                },
                {
                    "name": "F#3",
                    "midi": 54,
                    "time": 310.6718750000006,
                    "velocity": 0.4881889763779528,
                    "duration": 0.16666666666668561
                },
                {
                    "name": "D2",
                    "midi": 38,
                    "time": 310.67708333333394,
                    "velocity": 0.23622047244094488,
                    "duration": 0.39583333333337123
                },
                {
                    "name": "D4",
                    "midi": 62,
                    "time": 311.067708333334,
                    "velocity": 0.4566929133858268,
                    "duration": 0.13541666666668561
                },
                {
                    "name": "F2",
                    "midi": 41,
                    "time": 311.067708333334,
                    "velocity": 0.2283464566929134,
                    "duration": 0.41145833333337123
                },
                {
                    "name": "F3",
                    "midi": 53,
                    "time": 311.067708333334,
                    "velocity": 0.4015748031496063,
                    "duration": 0.16145833333337123
                },
                {
                    "name": "D2",
                    "midi": 38,
                    "time": 311.4687500000007,
                    "velocity": 0.23622047244094488,
                    "duration": 0.38020833333337123
                },
                {
                    "name": "A3",
                    "midi": 57,
                    "time": 311.4687500000007,
                    "velocity": 0.44881889763779526,
                    "duration": 1.6406250000000568
                },
                {
                    "name": "E3",
                    "midi": 52,
                    "time": 311.4687500000007,
                    "velocity": 0.49606299212598426,
                    "duration": 0.8385416666666856
                },
                {
                    "name": "F2",
                    "midi": 41,
                    "time": 311.83854166666737,
                    "velocity": 0.25196850393700787,
                    "duration": 0.4375
                },
                {
                    "name": "C#3",
                    "midi": 49,
                    "time": 311.88541666666737,
                    "velocity": 0.41732283464566927,
                    "duration": 1.1979166666666856
                },
                {
                    "name": "D2",
                    "midi": 38,
                    "time": 312.27083333333405,
                    "velocity": 0.23622047244094488,
                    "duration": 0.38541666666662877
                },
                {
                    "name": "F2",
                    "midi": 41,
                    "time": 312.68229166666737,
                    "velocity": 0.25984251968503935,
                    "duration": 0.3697916666666856
                },
                {
                    "name": "D2",
                    "midi": 38,
                    "time": 313.05208333333405,
                    "velocity": 0.2677165354330709,
                    "duration": 0.39583333333337123
                },
                {
                    "name": "F2",
                    "midi": 41,
                    "time": 313.4479166666674,
                    "velocity": 0.2755905511811024,
                    "duration": 0.16145833333331439
                },
                {
                    "name": "C4",
                    "midi": 60,
                    "time": 313.4791666666674,
                    "velocity": 0.5196850393700787,
                    "duration": 0.052083333333314386
                },
                {
                    "name": "B4",
                    "midi": 71,
                    "time": 313.88020833333405,
                    "velocity": 0.5905511811023622,
                    "duration": 0.5052083333333144
                },
                {
                    "name": "D#4",
                    "midi": 63,
                    "time": 313.88020833333405,
                    "velocity": 0.5590551181102362,
                    "duration": 0.515625
                },
                {
                    "name": "B3",
                    "midi": 59,
                    "time": 313.88020833333405,
                    "velocity": 0.5275590551181102,
                    "duration": 0.5208333333333144
                },
                {
                    "name": "A#1",
                    "midi": 34,
                    "time": 313.88541666666737,
                    "velocity": 0.4094488188976378,
                    "duration": 4.776041666666458
                },
                {
                    "name": "D2",
                    "midi": 38,
                    "time": 313.8906250000007,
                    "velocity": 0.30708661417322836,
                    "duration": 0.421875
                },
                {
                    "name": "F2",
                    "midi": 41,
                    "time": 314.3281250000007,
                    "velocity": 0.3228346456692913,
                    "duration": 0.4791666666666856
                },
                {
                    "name": "G#4",
                    "midi": 68,
                    "time": 314.7812500000007,
                    "velocity": 0.48031496062992124,
                    "duration": 0.9843749999999432
                },
                {
                    "name": "C4",
                    "midi": 60,
                    "time": 314.7812500000007,
                    "velocity": 0.5275590551181102,
                    "duration": 0.2760416666666856
                },
                {
                    "name": "G#3",
                    "midi": 56,
                    "time": 314.7812500000007,
                    "velocity": 0.36220472440944884,
                    "duration": 0.234375
                },
                {
                    "name": "D2",
                    "midi": 38,
                    "time": 314.7812500000007,
                    "velocity": 0.33070866141732286,
                    "duration": 0.4166666666666856
                },
                {
                    "name": "C#4",
                    "midi": 61,
                    "time": 315.18229166666737,
                    "velocity": 0.47244094488188976,
                    "duration": 0.17708333333331439
                },
                {
                    "name": "A3",
                    "midi": 57,
                    "time": 315.18229166666737,
                    "velocity": 0.5039370078740157,
                    "duration": 0.1875
                },
                {
                    "name": "F2",
                    "midi": 41,
                    "time": 315.19791666666737,
                    "velocity": 0.2992125984251969,
                    "duration": 0.39062499999994316
                },
                {
                    "name": "C4",
                    "midi": 60,
                    "time": 315.5781250000007,
                    "velocity": 0.5118110236220472,
                    "duration": 0.15104166666662877
                },
                {
                    "name": "G#3",
                    "midi": 56,
                    "time": 315.583333333334,
                    "velocity": 0.47244094488188976,
                    "duration": 0.17708333333331439
                },
                {
                    "name": "D2",
                    "midi": 38,
                    "time": 315.5885416666673,
                    "velocity": 0.29133858267716534,
                    "duration": 0.38541666666662877
                },
                {
                    "name": "G4",
                    "midi": 67,
                    "time": 315.9635416666673,
                    "velocity": 0.5590551181102362,
                    "duration": 0.10937499999994316
                },
                {
                    "name": "C#4",
                    "midi": 61,
                    "time": 315.9687500000006,
                    "velocity": 0.47244094488188976,
                    "duration": 0.09374999999994316
                },
                {
                    "name": "A3",
                    "midi": 57,
                    "time": 315.9687500000006,
                    "velocity": 0.49606299212598426,
                    "duration": 0.07812499999994316
                },
                {
                    "name": "F2",
                    "midi": 41,
                    "time": 315.97916666666725,
                    "velocity": 0.28346456692913385,
                    "duration": 0.46875
                },
                {
                    "name": "E5",
                    "midi": 76,
                    "time": 316.43750000000057,
                    "velocity": 0.6456692913385826,
                    "duration": 0.7760416666666856
                },
                {
                    "name": "A4",
                    "midi": 69,
                    "time": 316.43750000000057,
                    "velocity": 0.5905511811023622,
                    "duration": 0.7395833333333144
                },
                {
                    "name": "F4",
                    "midi": 65,
                    "time": 316.43750000000057,
                    "velocity": 0.5590551181102362,
                    "duration": 0.75
                },
                {
                    "name": "D2",
                    "midi": 38,
                    "time": 316.44791666666725,
                    "velocity": 0.33070866141732286,
                    "duration": 0.453125
                },
                {
                    "name": "F2",
                    "midi": 41,
                    "time": 316.90625000000057,
                    "velocity": 0.36220472440944884,
                    "duration": 0.4166666666666856
                },
                {
                    "name": "G#4",
                    "midi": 68,
                    "time": 317.30729166666725,
                    "velocity": 0.5039370078740157,
                    "duration": 0.19791666666668561
                },
                {
                    "name": "E4",
                    "midi": 64,
                    "time": 317.31770833333394,
                    "velocity": 0.4881889763779528,
                    "duration": 0.21875
                },
                {
                    "name": "C#5",
                    "midi": 73,
                    "time": 317.31770833333394,
                    "velocity": 0.4881889763779528,
                    "duration": 0.9635416666665719
                },
                {
                    "name": "D2",
                    "midi": 38,
                    "time": 317.31770833333394,
                    "velocity": 0.3543307086614173,
                    "duration": 0.3854166666666856
                },
                {
                    "name": "G4",
                    "midi": 67,
                    "time": 317.69270833333394,
                    "velocity": 0.47244094488188976,
                    "duration": 0.23958333333331439
                },
                {
                    "name": "D#4",
                    "midi": 63,
                    "time": 317.7031250000006,
                    "velocity": 0.41732283464566927,
                    "duration": 0.24999999999994316
                },
                {
                    "name": "F2",
                    "midi": 41,
                    "time": 317.70833333333394,
                    "velocity": 0.3543307086614173,
                    "duration": 0.36979166666662877
                },
                {
                    "name": "F#4",
                    "midi": 66,
                    "time": 318.07291666666725,
                    "velocity": 0.48031496062992124,
                    "duration": 0.20833333333325754
                },
                {
                    "name": "D4",
                    "midi": 62,
                    "time": 318.07291666666725,
                    "velocity": 0.49606299212598426,
                    "duration": 0.20833333333325754
                },
                {
                    "name": "D2",
                    "midi": 38,
                    "time": 318.07291666666725,
                    "velocity": 0.33858267716535434,
                    "duration": 0.39062499999994316
                },
                {
                    "name": "F2",
                    "midi": 41,
                    "time": 318.4687500000005,
                    "velocity": 0.3464566929133858,
                    "duration": 0.20833333333331439
                },
                {
                    "name": "A#4",
                    "midi": 70,
                    "time": 318.4739583333338,
                    "velocity": 0.5118110236220472,
                    "duration": 0.09375
                },
                {
                    "name": "G4",
                    "midi": 67,
                    "time": 318.4739583333338,
                    "velocity": 0.5984251968503937,
                    "duration": 0.078125
                },
                {
                    "name": "E4",
                    "midi": 64,
                    "time": 318.4739583333338,
                    "velocity": 0.5275590551181102,
                    "duration": 0.0625
                },
                {
                    "name": "A5",
                    "midi": 81,
                    "time": 318.9531250000005,
                    "velocity": 0.7559055118110236,
                    "duration": 1.0572916666666856
                },
                {
                    "name": "D#5",
                    "midi": 75,
                    "time": 318.9531250000005,
                    "velocity": 0.6141732283464567,
                    "duration": 1.0572916666666856
                },
                {
                    "name": "A#4",
                    "midi": 70,
                    "time": 318.9531250000005,
                    "velocity": 0.5905511811023622,
                    "duration": 1.0572916666666856
                },
                {
                    "name": "A#1",
                    "midi": 34,
                    "time": 318.9531250000005,
                    "velocity": 0.4330708661417323,
                    "duration": 5.005208333333542
                },
                {
                    "name": "D2",
                    "midi": 38,
                    "time": 318.9583333333338,
                    "velocity": 0.3543307086614173,
                    "duration": 0.42708333333337123
                },
                {
                    "name": "F2",
                    "midi": 41,
                    "time": 319.3854166666672,
                    "velocity": 0.3464566929133858,
                    "duration": 0.453125
                },
                {
                    "name": "D2",
                    "midi": 38,
                    "time": 319.8177083333339,
                    "velocity": 0.33858267716535434,
                    "duration": 0.46354166666662877
                },
                {
                    "name": "C4",
                    "midi": 60,
                    "time": 320.2812500000005,
                    "velocity": 0.4251968503937008,
                    "duration": 2.7760416666667993
                },
                {
                    "name": "G3",
                    "midi": 55,
                    "time": 320.2812500000005,
                    "velocity": 0.3937007874015748,
                    "duration": 2.7604166666667993
                },
                {
                    "name": "F2",
                    "midi": 41,
                    "time": 320.2812500000005,
                    "velocity": 0.3228346456692913,
                    "duration": 0.45833333333337123
                },
                {
                    "name": "F#4",
                    "midi": 66,
                    "time": 320.2812500000005,
                    "velocity": 0.5275590551181102,
                    "duration": 2.786458333333485
                },
                {
                    "name": "D2",
                    "midi": 38,
                    "time": 320.6822916666672,
                    "velocity": 0.29133858267716534,
                    "duration": 0.42187500000005684
                },
                {
                    "name": "F2",
                    "midi": 41,
                    "time": 321.09375000000057,
                    "velocity": 0.2755905511811024,
                    "duration": 0.44270833333337123
                },
                {
                    "name": "D2",
                    "midi": 38,
                    "time": 321.50520833333394,
                    "velocity": 0.25196850393700787,
                    "duration": 0.4166666666666856
                },
                {
                    "name": "F2",
                    "midi": 41,
                    "time": 321.92708333333394,
                    "velocity": 0.2440944881889764,
                    "duration": 0.5
                },
                {
                    "name": "D2",
                    "midi": 38,
                    "time": 322.3437500000006,
                    "velocity": 0.2204724409448819,
                    "duration": 0.4375
                },
                {
                    "name": "F2",
                    "midi": 41,
                    "time": 322.77083333333394,
                    "velocity": 0.2125984251968504,
                    "duration": 0.4895833333334281
                },
                {
                    "name": "D2",
                    "midi": 38,
                    "time": 323.2187500000007,
                    "velocity": 0.2047244094488189,
                    "duration": 0.53125
                },
                {
                    "name": "G#4",
                    "midi": 68,
                    "time": 323.27604166666737,
                    "velocity": 0.3464566929133858,
                    "duration": 0.15625
                },
                {
                    "name": "C#5",
                    "midi": 73,
                    "time": 323.3125000000007,
                    "velocity": 0.41732283464566927,
                    "duration": 0.109375
                },
                {
                    "name": "F2",
                    "midi": 41,
                    "time": 323.67708333333405,
                    "velocity": 0.2047244094488189,
                    "duration": 0.3125
                },
                {
                    "name": "C4",
                    "midi": 60,
                    "time": 323.69270833333405,
                    "velocity": 0.36220472440944884,
                    "duration": 0.11458333333331439
                },
                {
                    "name": "A3",
                    "midi": 57,
                    "time": 323.69270833333405,
                    "velocity": 0.28346456692913385,
                    "duration": 0.13020833333331439
                },
                {
                    "name": "A#1",
                    "midi": 34,
                    "time": 324.17187500000074,
                    "velocity": 0.3543307086614173,
                    "duration": 2.5729166666666856
                },
                {
                    "name": "D2",
                    "midi": 38,
                    "time": 324.1822916666674,
                    "velocity": 0.2125984251968504,
                    "duration": 0.5052083333333144
                },
                {
                    "name": "D#3",
                    "midi": 51,
                    "time": 324.1979166666674,
                    "velocity": 0.33070866141732286,
                    "duration": 1.5
                },
                {
                    "name": "F2",
                    "midi": 41,
                    "time": 324.68750000000074,
                    "velocity": 0.25196850393700787,
                    "duration": 0.515625
                },
                {
                    "name": "D#2",
                    "midi": 39,
                    "time": 325.19270833333405,
                    "velocity": 0.2677165354330709,
                    "duration": 0.47395833333337123
                },
                {
                    "name": "G#2",
                    "midi": 44,
                    "time": 325.64583333333405,
                    "velocity": 0.23622047244094488,
                    "duration": 0.5104166666666856
                },
                {
                    "name": "C#3",
                    "midi": 49,
                    "time": 325.65625000000074,
                    "velocity": 0.2992125984251969,
                    "duration": 1.03125
                },
                {
                    "name": "F#2",
                    "midi": 42,
                    "time": 326.1354166666674,
                    "velocity": 0.23622047244094488,
                    "duration": 0.609375
                },
                {
                    "name": "C3",
                    "midi": 48,
                    "time": 326.67187500000074,
                    "velocity": 0.2755905511811024,
                    "duration": 0.09895833333337123
                },
                {
                    "name": "B4",
                    "midi": 71,
                    "time": 327.4114583333341,
                    "velocity": 0.3464566929133858,
                    "duration": 1.6145833333333712
                },
                {
                    "name": "F4",
                    "midi": 65,
                    "time": 327.4218750000008,
                    "velocity": 0.2677165354330709,
                    "duration": 2.765625
                },
                {
                    "name": "C4",
                    "midi": 60,
                    "time": 327.4218750000008,
                    "velocity": 0.2440944881889764,
                    "duration": 2.765625
                },
                {
                    "name": "G#3",
                    "midi": 56,
                    "time": 327.4218750000008,
                    "velocity": 0.2283464566929134,
                    "duration": 2.765625
                },
                {
                    "name": "C#3",
                    "midi": 49,
                    "time": 327.4218750000008,
                    "velocity": 0.18110236220472442,
                    "duration": 2.75
                },
                {
                    "name": "A2",
                    "midi": 45,
                    "time": 327.4427083333341,
                    "velocity": 0.2047244094488189,
                    "duration": 2.7135416666666856
                },
                {
                    "name": "G#4",
                    "midi": 68,
                    "time": 328.9843750000008,
                    "velocity": 0.2440944881889764,
                    "duration": 1.203125
                },
                {
                    "name": "C#4",
                    "midi": 61,
                    "time": 330.8541666666675,
                    "velocity": 0.16535433070866143,
                    "duration": 1.6197916666666856
                },
                {
                    "name": "D3",
                    "midi": 50,
                    "time": 330.8541666666675,
                    "velocity": 0.2047244094488189,
                    "duration": 3.484374999999943
                },
                {
                    "name": "F3",
                    "midi": 53,
                    "time": 330.8750000000008,
                    "velocity": 0.1968503937007874,
                    "duration": 3.4635416666666288
                },
                {
                    "name": "A#4",
                    "midi": 70,
                    "time": 331.4010416666675,
                    "velocity": 0.2755905511811024,
                    "duration": 0.18229166666662877
                },
                {
                    "name": "D5",
                    "midi": 74,
                    "time": 331.8697916666674,
                    "velocity": 0.3228346456692913,
                    "duration": 0.20833333333337123
                },
                {
                    "name": "A5",
                    "midi": 81,
                    "time": 332.3697916666675,
                    "velocity": 0.28346456692913385,
                    "duration": 1.9114583333333144
                },
                {
                    "name": "B3",
                    "midi": 59,
                    "time": 332.84895833333417,
                    "velocity": 0.2047244094488189,
                    "duration": 1.4843749999999432
                },
                {
                    "name": "E5",
                    "midi": 76,
                    "time": 334.2604166666675,
                    "velocity": 0.25196850393700787,
                    "duration": 0.40624999999994316
                },
                {
                    "name": "C#3",
                    "midi": 49,
                    "time": 334.79687500000074,
                    "velocity": 0.2047244094488189,
                    "duration": 3.2447916666666288
                },
                {
                    "name": "C4",
                    "midi": 60,
                    "time": 334.8072916666674,
                    "velocity": 0.18110236220472442,
                    "duration": 1.6458333333332575
                },
                {
                    "name": "E3",
                    "midi": 52,
                    "time": 334.8072916666674,
                    "velocity": 0.18110236220472442,
                    "duration": 3.2552083333332575
                },
                {
                    "name": "D6",
                    "midi": 86,
                    "time": 335.28125000000074,
                    "velocity": 0.2992125984251969,
                    "duration": 0.078125
                },
                {
                    "name": "D5",
                    "midi": 74,
                    "time": 335.28125000000074,
                    "velocity": 0.2283464566929134,
                    "duration": 0.0625
                },
                {
                    "name": "G#6",
                    "midi": 92,
                    "time": 335.78645833333405,
                    "velocity": 0.28346456692913385,
                    "duration": 1.0416666666666288
                },
                {
                    "name": "G#5",
                    "midi": 80,
                    "time": 335.79687500000074,
                    "velocity": 0.2204724409448819,
                    "duration": 1.0416666666666288
                },
                {
                    "name": "A#3",
                    "midi": 58,
                    "time": 336.7343750000007,
                    "velocity": 0.16535433070866143,
                    "duration": 1.296875
                },
                {
                    "name": "E6",
                    "midi": 88,
                    "time": 337.2187500000007,
                    "velocity": 0.1889763779527559,
                    "duration": 0.9479166666666856
                },
                {
                    "name": "E5",
                    "midi": 76,
                    "time": 337.2187500000007,
                    "velocity": 0.2047244094488189,
                    "duration": 0.9479166666666856
                },
                {
                    "name": "D#6",
                    "midi": 87,
                    "time": 339.2031250000007,
                    "velocity": 0.25984251968503935,
                    "duration": 0.0625
                },
                {
                    "name": "F#1",
                    "midi": 30,
                    "time": 339.2031250000007,
                    "velocity": 0.2125984251968504,
                    "duration": 0.0625
                },
                {
                    "name": "F5",
                    "midi": 77,
                    "time": 339.208333333334,
                    "velocity": 0.2283464566929134,
                    "duration": 0.041666666666685614
                },
                {
                    "name": "A5",
                    "midi": 81,
                    "time": 339.2135416666673,
                    "velocity": 0.23622047244094488,
                    "duration": 0.026041666666685614
                },
                {
                    "name": "E5",
                    "midi": 76,
                    "time": 339.6718750000007,
                    "velocity": 0.2440944881889764,
                    "duration": 2.385416666666572
                },
                {
                    "name": "A#2",
                    "midi": 46,
                    "time": 339.69791666666737,
                    "velocity": 0.2047244094488189,
                    "duration": 0.20833333333331439
                },
                {
                    "name": "C5",
                    "midi": 72,
                    "time": 340.2187500000007,
                    "velocity": 0.2204724409448819,
                    "duration": 1.838541666666572
                },
                {
                    "name": "C#3",
                    "midi": 49,
                    "time": 340.223958333334,
                    "velocity": 0.2047244094488189,
                    "duration": 0.13541666666668561
                },
                {
                    "name": "A#4",
                    "midi": 70,
                    "time": 340.723958333334,
                    "velocity": 0.2125984251968504,
                    "duration": 0.15104166666662877
                },
                {
                    "name": "G#3",
                    "midi": 56,
                    "time": 340.7447916666673,
                    "velocity": 0.18110236220472442,
                    "duration": 0.06770833333331439
                },
                {
                    "name": "G#4",
                    "midi": 68,
                    "time": 341.27083333333394,
                    "velocity": 0.1889763779527559,
                    "duration": 0.21875
                },
                {
                    "name": "C#4",
                    "midi": 61,
                    "time": 341.27083333333394,
                    "velocity": 0.18110236220472442,
                    "duration": 0.1875
                },
                {
                    "name": "F#4",
                    "midi": 66,
                    "time": 341.98958333333394,
                    "velocity": 0.18110236220472442,
                    "duration": 0.13541666666662877
                },
                {
                    "name": "G4",
                    "midi": 67,
                    "time": 341.99479166666725,
                    "velocity": 0.18110236220472442,
                    "duration": 0.13020833333331439
                },
                {
                    "name": "A4",
                    "midi": 69,
                    "time": 345.42708333333394,
                    "velocity": 0.2755905511811024,
                    "duration": 0.609375
                },
                {
                    "name": "F#4",
                    "midi": 66,
                    "time": 345.42708333333394,
                    "velocity": 0.2047244094488189,
                    "duration": 0.9270833333333712
                },
                {
                    "name": "E4",
                    "midi": 64,
                    "time": 345.42708333333394,
                    "velocity": 0.18110236220472442,
                    "duration": 0.9531250000000568
                },
                {
                    "name": "A#3",
                    "midi": 58,
                    "time": 345.44270833333394,
                    "velocity": 0.16535433070866143,
                    "duration": 0.9791666666667425
                },
                {
                    "name": "B4",
                    "midi": 71,
                    "time": 346.05729166666725,
                    "velocity": 0.3543307086614173,
                    "duration": 0.36979166666674246
                },
                {
                    "name": "D5",
                    "midi": 74,
                    "time": 347.005208333334,
                    "velocity": 0.3228346456692913,
                    "duration": 1.8958333333333712
                },
                {
                    "name": "A4",
                    "midi": 69,
                    "time": 347.0104166666673,
                    "velocity": 0.2440944881889764,
                    "duration": 1.8802083333333712
                },
                {
                    "name": "G3",
                    "midi": 55,
                    "time": 347.0104166666673,
                    "velocity": 0.2125984251968504,
                    "duration": 1.9322916666667425
                },
                {
                    "name": "D#4",
                    "midi": 63,
                    "time": 347.020833333334,
                    "velocity": 0.1968503937007874,
                    "duration": 1.828125
                },
                {
                    "name": "G#3",
                    "midi": 56,
                    "time": 349.58333333333405,
                    "velocity": 0.18110236220472442,
                    "duration": 0.22916666666668561
                },
                {
                    "name": "C#4",
                    "midi": 61,
                    "time": 349.72395833333405,
                    "velocity": 0.2440944881889764,
                    "duration": 0.07291666666668561
                },
                {
                    "name": "A2",
                    "midi": 45,
                    "time": 350.5416666666674,
                    "velocity": 0.2125984251968504,
                    "duration": 0.40625
                },
                {
                    "name": "C3",
                    "midi": 48,
                    "time": 350.5572916666674,
                    "velocity": 0.2204724409448819,
                    "duration": 0.390625
                },
                {
                    "name": "D4",
                    "midi": 62,
                    "time": 352.5416666666674,
                    "velocity": 0.1968503937007874,
                    "duration": 2.6510416666666856
                },
                {
                    "name": "G3",
                    "midi": 55,
                    "time": 352.5416666666674,
                    "velocity": 0.1889763779527559,
                    "duration": 2.65625
                },
                {
                    "name": "D#1",
                    "midi": 27,
                    "time": 352.5416666666674,
                    "velocity": 0.18110236220472442,
                    "duration": 9.546875
                },
                {
                    "name": "G#4",
                    "midi": 68,
                    "time": 352.5416666666674,
                    "velocity": 0.25196850393700787,
                    "duration": 2.6770833333333144
                },
                {
                    "name": "F4",
                    "midi": 65,
                    "time": 357.1354166666674,
                    "velocity": 0.2125984251968504,
                    "duration": 4.9375
                },
                {
                    "name": "C4",
                    "midi": 60,
                    "time": 357.1354166666674,
                    "velocity": 0.18110236220472442,
                    "duration": 4.921875
                },
                {
                    "name": "F#3",
                    "midi": 54,
                    "time": 357.1354166666674,
                    "velocity": 0.1732283464566929,
                    "duration": 4.953125
                }
            ],
            "controlChanges": {
                "64": [
                    {
                        "number": 64,
                        "time": 4.125,
                        "value": 0
                    },
                    {
                        "number": 64,
                        "time": 23.510416666666675,
                        "value": 1
                    },
                    {
                        "number": 64,
                        "time": 23.96354166666668,
                        "value": 0
                    },
                    {
                        "number": 64,
                        "time": 25.239583333333346,
                        "value": 1
                    },
                    {
                        "number": 64,
                        "time": 25.609375000000014,
                        "value": 0
                    },
                    {
                        "number": 64,
                        "time": 25.817708333333346,
                        "value": 1
                    },
                    {
                        "number": 64,
                        "time": 26.10416666666668,
                        "value": 0
                    },
                    {
                        "number": 64,
                        "time": 26.16666666666668,
                        "value": 1
                    },
                    {
                        "number": 64,
                        "time": 26.59895833333335,
                        "value": 0
                    },
                    {
                        "number": 64,
                        "time": 30.729166666666675,
                        "value": 1
                    },
                    {
                        "number": 64,
                        "time": 31.020833333333343,
                        "value": 0
                    },
                    {
                        "number": 64,
                        "time": 31.244791666666675,
                        "value": 1
                    },
                    {
                        "number": 64,
                        "time": 31.546875000000004,
                        "value": 0
                    },
                    {
                        "number": 64,
                        "time": 32.114583333333336,
                        "value": 1
                    },
                    {
                        "number": 64,
                        "time": 32.338541666666664,
                        "value": 0
                    },
                    {
                        "number": 64,
                        "time": 32.854166666666664,
                        "value": 1
                    },
                    {
                        "number": 64,
                        "time": 33.17187500000001,
                        "value": 0
                    },
                    {
                        "number": 64,
                        "time": 35.47916666666667,
                        "value": 1
                    },
                    {
                        "number": 64,
                        "time": 35.895833333333336,
                        "value": 0
                    },
                    {
                        "number": 64,
                        "time": 35.958333333333336,
                        "value": 1
                    },
                    {
                        "number": 64,
                        "time": 36.322916666666664,
                        "value": 0
                    },
                    {
                        "number": 64,
                        "time": 36.760416666666664,
                        "value": 1
                    },
                    {
                        "number": 64,
                        "time": 37.09374999999999,
                        "value": 0
                    },
                    {
                        "number": 64,
                        "time": 37.49999999999999,
                        "value": 1
                    },
                    {
                        "number": 64,
                        "time": 37.895833333333336,
                        "value": 0
                    },
                    {
                        "number": 64,
                        "time": 38.03125,
                        "value": 1
                    },
                    {
                        "number": 64,
                        "time": 38.286458333333336,
                        "value": 0
                    },
                    {
                        "number": 64,
                        "time": 38.364583333333336,
                        "value": 1
                    },
                    {
                        "number": 64,
                        "time": 38.72916666666667,
                        "value": 0
                    },
                    {
                        "number": 64,
                        "time": 40.28645833333333,
                        "value": 1
                    },
                    {
                        "number": 64,
                        "time": 40.635416666666664,
                        "value": 0
                    },
                    {
                        "number": 64,
                        "time": 40.65624999999999,
                        "value": 1
                    },
                    {
                        "number": 64,
                        "time": 41.104166666666664,
                        "value": 0
                    },
                    {
                        "number": 64,
                        "time": 41.70312499999999,
                        "value": 1
                    },
                    {
                        "number": 64,
                        "time": 41.89583333333333,
                        "value": 0
                    },
                    {
                        "number": 64,
                        "time": 41.932291666666664,
                        "value": 1
                    },
                    {
                        "number": 64,
                        "time": 42.30729166666667,
                        "value": 0
                    },
                    {
                        "number": 64,
                        "time": 42.37500000000001,
                        "value": 1
                    },
                    {
                        "number": 64,
                        "time": 42.68750000000001,
                        "value": 0
                    },
                    {
                        "number": 64,
                        "time": 42.97916666666667,
                        "value": 1
                    },
                    {
                        "number": 64,
                        "time": 43.46354166666667,
                        "value": 0
                    },
                    {
                        "number": 64,
                        "time": 43.50000000000001,
                        "value": 1
                    },
                    {
                        "number": 64,
                        "time": 43.90625000000001,
                        "value": 0
                    },
                    {
                        "number": 64,
                        "time": 43.95312500000001,
                        "value": 1
                    },
                    {
                        "number": 64,
                        "time": 44.31250000000001,
                        "value": 0
                    },
                    {
                        "number": 64,
                        "time": 44.67708333333334,
                        "value": 1
                    },
                    {
                        "number": 64,
                        "time": 45.10416666666667,
                        "value": 0
                    },
                    {
                        "number": 64,
                        "time": 45.18750000000001,
                        "value": 1
                    },
                    {
                        "number": 64,
                        "time": 45.93229166666668,
                        "value": 0
                    },
                    {
                        "number": 64,
                        "time": 51.359375,
                        "value": 1
                    },
                    {
                        "number": 64,
                        "time": 51.94270833333334,
                        "value": 0
                    },
                    {
                        "number": 64,
                        "time": 55.30208333333334,
                        "value": 1
                    },
                    {
                        "number": 64,
                        "time": 55.671875000000014,
                        "value": 0
                    },
                    {
                        "number": 64,
                        "time": 57.27083333333334,
                        "value": 1
                    },
                    {
                        "number": 64,
                        "time": 58.031250000000014,
                        "value": 0
                    },
                    {
                        "number": 64,
                        "time": 61.38020833333335,
                        "value": 1
                    },
                    {
                        "number": 64,
                        "time": 62.03645833333335,
                        "value": 0
                    },
                    {
                        "number": 64,
                        "time": 63.291666666666686,
                        "value": 1
                    },
                    {
                        "number": 64,
                        "time": 63.93750000000002,
                        "value": 0
                    },
                    {
                        "number": 64,
                        "time": 65.17708333333336,
                        "value": 1
                    },
                    {
                        "number": 64,
                        "time": 66.04687500000001,
                        "value": 0
                    },
                    {
                        "number": 64,
                        "time": 67.25520833333334,
                        "value": 1
                    },
                    {
                        "number": 64,
                        "time": 68,
                        "value": 0
                    },
                    {
                        "number": 64,
                        "time": 69.546875,
                        "value": 1
                    },
                    {
                        "number": 64,
                        "time": 70.95833333333333,
                        "value": 0
                    },
                    {
                        "number": 64,
                        "time": 74.68749999999999,
                        "value": 1
                    },
                    {
                        "number": 64,
                        "time": 74.78645833333331,
                        "value": 0
                    },
                    {
                        "number": 64,
                        "time": 83.34374999999997,
                        "value": 1
                    },
                    {
                        "number": 64,
                        "time": 83.54687499999999,
                        "value": 0
                    },
                    {
                        "number": 64,
                        "time": 88.07291666666666,
                        "value": 1
                    },
                    {
                        "number": 64,
                        "time": 88.453125,
                        "value": 0
                    },
                    {
                        "number": 64,
                        "time": 88.484375,
                        "value": 1
                    },
                    {
                        "number": 64,
                        "time": 90.12499999999999,
                        "value": 0
                    },
                    {
                        "number": 64,
                        "time": 90.14062499999999,
                        "value": 1
                    },
                    {
                        "number": 64,
                        "time": 91.03124999999997,
                        "value": 0
                    },
                    {
                        "number": 64,
                        "time": 91.41666666666664,
                        "value": 1
                    },
                    {
                        "number": 64,
                        "time": 91.79687499999997,
                        "value": 0
                    },
                    {
                        "number": 64,
                        "time": 91.8177083333333,
                        "value": 1
                    },
                    {
                        "number": 64,
                        "time": 92.57812499999996,
                        "value": 0
                    },
                    {
                        "number": 64,
                        "time": 92.60937499999996,
                        "value": 1
                    },
                    {
                        "number": 64,
                        "time": 93.39583333333329,
                        "value": 0
                    },
                    {
                        "number": 64,
                        "time": 93.45833333333329,
                        "value": 1
                    },
                    {
                        "number": 64,
                        "time": 93.80208333333329,
                        "value": 0
                    },
                    {
                        "number": 64,
                        "time": 93.82812499999996,
                        "value": 1
                    },
                    {
                        "number": 64,
                        "time": 94.19270833333327,
                        "value": 0
                    },
                    {
                        "number": 64,
                        "time": 94.1979166666666,
                        "value": 1
                    },
                    {
                        "number": 64,
                        "time": 94.56770833333327,
                        "value": 0
                    },
                    {
                        "number": 64,
                        "time": 94.5885416666666,
                        "value": 1
                    },
                    {
                        "number": 64,
                        "time": 94.96874999999993,
                        "value": 0
                    },
                    {
                        "number": 64,
                        "time": 95.09374999999993,
                        "value": 1
                    },
                    {
                        "number": 64,
                        "time": 95.3854166666666,
                        "value": 0
                    },
                    {
                        "number": 64,
                        "time": 95.59895833333327,
                        "value": 1
                    },
                    {
                        "number": 64,
                        "time": 95.8072916666666,
                        "value": 0
                    },
                    {
                        "number": 64,
                        "time": 95.9635416666666,
                        "value": 1
                    },
                    {
                        "number": 64,
                        "time": 96.16666666666659,
                        "value": 0
                    },
                    {
                        "number": 64,
                        "time": 96.21874999999991,
                        "value": 1
                    },
                    {
                        "number": 64,
                        "time": 96.54166666666659,
                        "value": 0
                    },
                    {
                        "number": 64,
                        "time": 96.63541666666659,
                        "value": 1
                    },
                    {
                        "number": 64,
                        "time": 96.95312499999993,
                        "value": 0
                    },
                    {
                        "number": 64,
                        "time": 97.03645833333326,
                        "value": 1
                    },
                    {
                        "number": 64,
                        "time": 97.35416666666659,
                        "value": 0
                    },
                    {
                        "number": 64,
                        "time": 97.36979166666659,
                        "value": 1
                    },
                    {
                        "number": 64,
                        "time": 97.74479166666659,
                        "value": 0
                    },
                    {
                        "number": 64,
                        "time": 97.81770833333326,
                        "value": 1
                    },
                    {
                        "number": 64,
                        "time": 97.92187499999993,
                        "value": 0
                    },
                    {
                        "number": 64,
                        "time": 97.9322916666666,
                        "value": 1
                    },
                    {
                        "number": 64,
                        "time": 98.33854166666659,
                        "value": 0
                    },
                    {
                        "number": 64,
                        "time": 98.41666666666659,
                        "value": 1
                    },
                    {
                        "number": 64,
                        "time": 99.17187499999991,
                        "value": 0
                    },
                    {
                        "number": 64,
                        "time": 99.18229166666659,
                        "value": 1
                    },
                    {
                        "number": 64,
                        "time": 99.9322916666666,
                        "value": 0
                    },
                    {
                        "number": 64,
                        "time": 99.99999999999993,
                        "value": 1
                    },
                    {
                        "number": 64,
                        "time": 100.28645833333326,
                        "value": 0
                    },
                    {
                        "number": 64,
                        "time": 100.29166666666659,
                        "value": 1
                    },
                    {
                        "number": 64,
                        "time": 100.8281249999999,
                        "value": 0
                    },
                    {
                        "number": 64,
                        "time": 101.25520833333323,
                        "value": 1
                    },
                    {
                        "number": 64,
                        "time": 101.6562499999999,
                        "value": 0
                    },
                    {
                        "number": 64,
                        "time": 101.7343749999999,
                        "value": 1
                    },
                    {
                        "number": 64,
                        "time": 102.06770833333323,
                        "value": 0
                    },
                    {
                        "number": 64,
                        "time": 102.1874999999999,
                        "value": 1
                    },
                    {
                        "number": 64,
                        "time": 102.46354166666656,
                        "value": 0
                    },
                    {
                        "number": 64,
                        "time": 102.51562499999989,
                        "value": 1
                    },
                    {
                        "number": 64,
                        "time": 102.87499999999989,
                        "value": 0
                    },
                    {
                        "number": 64,
                        "time": 102.89583333333321,
                        "value": 1
                    },
                    {
                        "number": 64,
                        "time": 103.32812499999989,
                        "value": 0
                    },
                    {
                        "number": 64,
                        "time": 103.45833333333321,
                        "value": 1
                    },
                    {
                        "number": 64,
                        "time": 103.68749999999987,
                        "value": 0
                    },
                    {
                        "number": 64,
                        "time": 103.71354166666653,
                        "value": 1
                    },
                    {
                        "number": 64,
                        "time": 104.19791666666653,
                        "value": 0
                    },
                    {
                        "number": 64,
                        "time": 104.33854166666653,
                        "value": 1
                    },
                    {
                        "number": 64,
                        "time": 104.65104166666653,
                        "value": 0
                    },
                    {
                        "number": 64,
                        "time": 105.0989583333332,
                        "value": 1
                    },
                    {
                        "number": 64,
                        "time": 105.62499999999989,
                        "value": 0
                    },
                    {
                        "number": 64,
                        "time": 105.70312499999989,
                        "value": 1
                    },
                    {
                        "number": 64,
                        "time": 106.2499999999999,
                        "value": 0
                    },
                    {
                        "number": 64,
                        "time": 112.67708333333323,
                        "value": 1
                    },
                    {
                        "number": 64,
                        "time": 113.1249999999999,
                        "value": 0
                    },
                    {
                        "number": 64,
                        "time": 115.10416666666657,
                        "value": 1
                    },
                    {
                        "number": 64,
                        "time": 115.65624999999989,
                        "value": 0
                    },
                    {
                        "number": 64,
                        "time": 117.59895833333321,
                        "value": 1
                    },
                    {
                        "number": 64,
                        "time": 117.94791666666654,
                        "value": 0
                    },
                    {
                        "number": 64,
                        "time": 118.32812499999987,
                        "value": 1
                    },
                    {
                        "number": 64,
                        "time": 118.74999999999987,
                        "value": 0
                    },
                    {
                        "number": 64,
                        "time": 119.92708333333321,
                        "value": 1
                    },
                    {
                        "number": 64,
                        "time": 120.52604166666654,
                        "value": 0
                    },
                    {
                        "number": 64,
                        "time": 123.16145833333321,
                        "value": 1
                    },
                    {
                        "number": 64,
                        "time": 124.0624999999999,
                        "value": 0
                    },
                    {
                        "number": 64,
                        "time": 124.43229166666657,
                        "value": 1
                    },
                    {
                        "number": 64,
                        "time": 124.82291666666657,
                        "value": 0
                    },
                    {
                        "number": 64,
                        "time": 124.94270833333324,
                        "value": 1
                    },
                    {
                        "number": 64,
                        "time": 125.57812499999991,
                        "value": 0
                    },
                    {
                        "number": 64,
                        "time": 125.65104166666659,
                        "value": 1
                    },
                    {
                        "number": 64,
                        "time": 125.93229166666659,
                        "value": 0
                    },
                    {
                        "number": 64,
                        "time": 125.96354166666659,
                        "value": 1
                    },
                    {
                        "number": 64,
                        "time": 126.32812499999993,
                        "value": 0
                    },
                    {
                        "number": 64,
                        "time": 126.3697916666666,
                        "value": 1
                    },
                    {
                        "number": 64,
                        "time": 126.68749999999993,
                        "value": 0
                    },
                    {
                        "number": 64,
                        "time": 126.73437499999993,
                        "value": 1
                    },
                    {
                        "number": 64,
                        "time": 127.06249999999994,
                        "value": 0
                    },
                    {
                        "number": 64,
                        "time": 127.11979166666661,
                        "value": 1
                    },
                    {
                        "number": 64,
                        "time": 127.44270833333327,
                        "value": 0
                    },
                    {
                        "number": 64,
                        "time": 127.4947916666666,
                        "value": 1
                    },
                    {
                        "number": 64,
                        "time": 127.83333333333326,
                        "value": 0
                    },
                    {
                        "number": 64,
                        "time": 127.93229166666659,
                        "value": 1
                    },
                    {
                        "number": 64,
                        "time": 128.17187499999991,
                        "value": 0
                    },
                    {
                        "number": 64,
                        "time": 128.17708333333326,
                        "value": 1
                    },
                    {
                        "number": 64,
                        "time": 128.61979166666654,
                        "value": 0
                    },
                    {
                        "number": 64,
                        "time": 128.7031249999999,
                        "value": 1
                    },
                    {
                        "number": 64,
                        "time": 128.97395833333323,
                        "value": 0
                    },
                    {
                        "number": 64,
                        "time": 128.99479166666657,
                        "value": 1
                    },
                    {
                        "number": 64,
                        "time": 129.34895833333323,
                        "value": 0
                    },
                    {
                        "number": 64,
                        "time": 129.40104166666657,
                        "value": 1
                    },
                    {
                        "number": 64,
                        "time": 129.68749999999991,
                        "value": 0
                    },
                    {
                        "number": 64,
                        "time": 129.71874999999991,
                        "value": 1
                    },
                    {
                        "number": 64,
                        "time": 130.0624999999999,
                        "value": 0
                    },
                    {
                        "number": 64,
                        "time": 130.13541666666654,
                        "value": 1
                    },
                    {
                        "number": 64,
                        "time": 130.4374999999999,
                        "value": 0
                    },
                    {
                        "number": 64,
                        "time": 130.44270833333323,
                        "value": 1
                    },
                    {
                        "number": 64,
                        "time": 130.8906249999999,
                        "value": 0
                    },
                    {
                        "number": 64,
                        "time": 130.95833333333323,
                        "value": 1
                    },
                    {
                        "number": 64,
                        "time": 131.29166666666657,
                        "value": 0
                    },
                    {
                        "number": 64,
                        "time": 131.33854166666657,
                        "value": 1
                    },
                    {
                        "number": 64,
                        "time": 131.7135416666666,
                        "value": 0
                    },
                    {
                        "number": 64,
                        "time": 131.7760416666666,
                        "value": 1
                    },
                    {
                        "number": 64,
                        "time": 132.13020833333326,
                        "value": 0
                    },
                    {
                        "number": 64,
                        "time": 132.20312499999991,
                        "value": 1
                    },
                    {
                        "number": 64,
                        "time": 132.57812499999991,
                        "value": 0
                    },
                    {
                        "number": 64,
                        "time": 132.63020833333326,
                        "value": 1
                    },
                    {
                        "number": 64,
                        "time": 133.20312499999994,
                        "value": 0
                    },
                    {
                        "number": 64,
                        "time": 133.2916666666666,
                        "value": 1
                    },
                    {
                        "number": 64,
                        "time": 133.74999999999994,
                        "value": 0
                    },
                    {
                        "number": 64,
                        "time": 134.3333333333333,
                        "value": 1
                    },
                    {
                        "number": 64,
                        "time": 134.7708333333333,
                        "value": 0
                    },
                    {
                        "number": 64,
                        "time": 134.77604166666663,
                        "value": 1
                    },
                    {
                        "number": 64,
                        "time": 135.2083333333333,
                        "value": 0
                    },
                    {
                        "number": 64,
                        "time": 135.2395833333333,
                        "value": 1
                    },
                    {
                        "number": 64,
                        "time": 135.73958333333323,
                        "value": 0
                    },
                    {
                        "number": 64,
                        "time": 135.9218749999999,
                        "value": 1
                    },
                    {
                        "number": 64,
                        "time": 136.52604166666657,
                        "value": 0
                    },
                    {
                        "number": 64,
                        "time": 137.1406249999999,
                        "value": 1
                    },
                    {
                        "number": 64,
                        "time": 137.6145833333332,
                        "value": 0
                    },
                    {
                        "number": 64,
                        "time": 137.63541666666654,
                        "value": 1
                    },
                    {
                        "number": 64,
                        "time": 138.1249999999999,
                        "value": 0
                    },
                    {
                        "number": 64,
                        "time": 138.14583333333323,
                        "value": 1
                    },
                    {
                        "number": 64,
                        "time": 138.94791666666657,
                        "value": 0
                    },
                    {
                        "number": 64,
                        "time": 139.02083333333323,
                        "value": 1
                    },
                    {
                        "number": 64,
                        "time": 140.38541666666654,
                        "value": 0
                    },
                    {
                        "number": 64,
                        "time": 143.1145833333332,
                        "value": 1
                    },
                    {
                        "number": 64,
                        "time": 143.31770833333317,
                        "value": 0
                    },
                    {
                        "number": 64,
                        "time": 143.43229166666652,
                        "value": 1
                    },
                    {
                        "number": 64,
                        "time": 143.69791666666654,
                        "value": 0
                    },
                    {
                        "number": 64,
                        "time": 143.72395833333323,
                        "value": 1
                    },
                    {
                        "number": 64,
                        "time": 143.92708333333326,
                        "value": 0
                    },
                    {
                        "number": 64,
                        "time": 143.9791666666666,
                        "value": 1
                    },
                    {
                        "number": 64,
                        "time": 144.21354166666657,
                        "value": 0
                    },
                    {
                        "number": 64,
                        "time": 144.24999999999991,
                        "value": 1
                    },
                    {
                        "number": 64,
                        "time": 144.60416666666657,
                        "value": 0
                    },
                    {
                        "number": 64,
                        "time": 144.76562499999991,
                        "value": 1
                    },
                    {
                        "number": 64,
                        "time": 145.0260416666666,
                        "value": 0
                    },
                    {
                        "number": 64,
                        "time": 145.1302083333333,
                        "value": 1
                    },
                    {
                        "number": 64,
                        "time": 145.51562499999997,
                        "value": 0
                    },
                    {
                        "number": 64,
                        "time": 145.5833333333333,
                        "value": 1
                    },
                    {
                        "number": 64,
                        "time": 145.89062499999997,
                        "value": 0
                    },
                    {
                        "number": 64,
                        "time": 145.94270833333331,
                        "value": 1
                    },
                    {
                        "number": 64,
                        "time": 146.36979166666663,
                        "value": 0
                    },
                    {
                        "number": 64,
                        "time": 146.39062499999997,
                        "value": 1
                    },
                    {
                        "number": 64,
                        "time": 146.80208333333331,
                        "value": 0
                    },
                    {
                        "number": 64,
                        "time": 146.83854166666663,
                        "value": 1
                    },
                    {
                        "number": 64,
                        "time": 147.2760416666666,
                        "value": 0
                    },
                    {
                        "number": 64,
                        "time": 147.39062499999994,
                        "value": 1
                    },
                    {
                        "number": 64,
                        "time": 147.6614583333333,
                        "value": 0
                    },
                    {
                        "number": 64,
                        "time": 149.31770833333331,
                        "value": 1
                    },
                    {
                        "number": 64,
                        "time": 149.77083333333331,
                        "value": 0
                    },
                    {
                        "number": 64,
                        "time": 152.2447916666666,
                        "value": 1
                    },
                    {
                        "number": 64,
                        "time": 152.72916666666657,
                        "value": 0
                    },
                    {
                        "number": 64,
                        "time": 152.93749999999991,
                        "value": 1
                    },
                    {
                        "number": 64,
                        "time": 153.2604166666666,
                        "value": 0
                    },
                    {
                        "number": 64,
                        "time": 156.02604166666663,
                        "value": 1
                    },
                    {
                        "number": 64,
                        "time": 156.57812499999997,
                        "value": 0
                    },
                    {
                        "number": 64,
                        "time": 158.03645833333331,
                        "value": 1
                    },
                    {
                        "number": 64,
                        "time": 158.62499999999997,
                        "value": 0
                    },
                    {
                        "number": 64,
                        "time": 158.73437499999997,
                        "value": 1
                    },
                    {
                        "number": 64,
                        "time": 159.23437499999997,
                        "value": 0
                    },
                    {
                        "number": 64,
                        "time": 159.53645833333331,
                        "value": 1
                    },
                    {
                        "number": 64,
                        "time": 159.88541666666666,
                        "value": 0
                    },
                    {
                        "number": 64,
                        "time": 159.97395833333331,
                        "value": 1
                    },
                    {
                        "number": 64,
                        "time": 160.47395833333334,
                        "value": 0
                    },
                    {
                        "number": 64,
                        "time": 162.1979166666667,
                        "value": 1
                    },
                    {
                        "number": 64,
                        "time": 162.26562500000006,
                        "value": 0
                    },
                    {
                        "number": 64,
                        "time": 162.7916666666667,
                        "value": 1
                    },
                    {
                        "number": 64,
                        "time": 164.04687500000003,
                        "value": 0
                    },
                    {
                        "number": 64,
                        "time": 164.69791666666669,
                        "value": 1
                    },
                    {
                        "number": 64,
                        "time": 165.74479166666666,
                        "value": 0
                    },
                    {
                        "number": 64,
                        "time": 167.16666666666666,
                        "value": 1
                    },
                    {
                        "number": 64,
                        "time": 167.67187499999997,
                        "value": 0
                    },
                    {
                        "number": 64,
                        "time": 170.09374999999997,
                        "value": 1
                    },
                    {
                        "number": 64,
                        "time": 170.41666666666669,
                        "value": 0
                    },
                    {
                        "number": 64,
                        "time": 171.17708333333334,
                        "value": 1
                    },
                    {
                        "number": 64,
                        "time": 171.41666666666669,
                        "value": 0
                    },
                    {
                        "number": 64,
                        "time": 171.72395833333337,
                        "value": 1
                    },
                    {
                        "number": 64,
                        "time": 172.12500000000009,
                        "value": 0
                    },
                    {
                        "number": 64,
                        "time": 172.22395833333343,
                        "value": 1
                    },
                    {
                        "number": 64,
                        "time": 172.42187500000009,
                        "value": 0
                    },
                    {
                        "number": 64,
                        "time": 173.85416666666677,
                        "value": 1
                    },
                    {
                        "number": 64,
                        "time": 174.14583333333346,
                        "value": 0
                    },
                    {
                        "number": 64,
                        "time": 176.31770833333354,
                        "value": 1
                    },
                    {
                        "number": 64,
                        "time": 176.64583333333354,
                        "value": 0
                    },
                    {
                        "number": 64,
                        "time": 176.91145833333354,
                        "value": 1
                    },
                    {
                        "number": 64,
                        "time": 177.04166666666686,
                        "value": 0
                    },
                    {
                        "number": 64,
                        "time": 181.05208333333354,
                        "value": 1
                    },
                    {
                        "number": 64,
                        "time": 181.55208333333354,
                        "value": 0
                    },
                    {
                        "number": 64,
                        "time": 181.7343750000002,
                        "value": 1
                    },
                    {
                        "number": 64,
                        "time": 182.11458333333354,
                        "value": 0
                    },
                    {
                        "number": 64,
                        "time": 182.30729166666688,
                        "value": 1
                    },
                    {
                        "number": 64,
                        "time": 182.61979166666688,
                        "value": 0
                    },
                    {
                        "number": 64,
                        "time": 182.65104166666688,
                        "value": 1
                    },
                    {
                        "number": 64,
                        "time": 183.15625000000023,
                        "value": 0
                    },
                    {
                        "number": 64,
                        "time": 184.05208333333354,
                        "value": 1
                    },
                    {
                        "number": 64,
                        "time": 184.5468750000002,
                        "value": 0
                    },
                    {
                        "number": 64,
                        "time": 185.0520833333335,
                        "value": 1
                    },
                    {
                        "number": 64,
                        "time": 185.58854166666686,
                        "value": 0
                    },
                    {
                        "number": 64,
                        "time": 185.6406250000002,
                        "value": 1
                    },
                    {
                        "number": 64,
                        "time": 186.10416666666686,
                        "value": 0
                    },
                    {
                        "number": 64,
                        "time": 186.2552083333335,
                        "value": 1
                    },
                    {
                        "number": 64,
                        "time": 186.7395833333335,
                        "value": 0
                    },
                    {
                        "number": 64,
                        "time": 186.79687500000017,
                        "value": 1
                    },
                    {
                        "number": 64,
                        "time": 188.34895833333354,
                        "value": 0
                    },
                    {
                        "number": 64,
                        "time": 190.83854166666688,
                        "value": 1
                    },
                    {
                        "number": 64,
                        "time": 191.56770833333357,
                        "value": 0
                    },
                    {
                        "number": 64,
                        "time": 198.70833333333357,
                        "value": 1
                    },
                    {
                        "number": 64,
                        "time": 199.2447916666669,
                        "value": 0
                    },
                    {
                        "number": 64,
                        "time": 203.8177083333336,
                        "value": 1
                    },
                    {
                        "number": 64,
                        "time": 204.4270833333336,
                        "value": 0
                    },
                    {
                        "number": 64,
                        "time": 205.29687500000028,
                        "value": 1
                    },
                    {
                        "number": 64,
                        "time": 205.79166666666697,
                        "value": 0
                    },
                    {
                        "number": 64,
                        "time": 205.88020833333363,
                        "value": 1
                    },
                    {
                        "number": 64,
                        "time": 206.41145833333363,
                        "value": 0
                    },
                    {
                        "number": 64,
                        "time": 206.63020833333363,
                        "value": 1
                    },
                    {
                        "number": 64,
                        "time": 206.9375000000003,
                        "value": 0
                    },
                    {
                        "number": 64,
                        "time": 207.00520833333366,
                        "value": 1
                    },
                    {
                        "number": 64,
                        "time": 207.526041666667,
                        "value": 0
                    },
                    {
                        "number": 64,
                        "time": 208.28645833333366,
                        "value": 1
                    },
                    {
                        "number": 64,
                        "time": 208.71354166666697,
                        "value": 0
                    },
                    {
                        "number": 64,
                        "time": 209.35416666666697,
                        "value": 1
                    },
                    {
                        "number": 64,
                        "time": 210.27083333333366,
                        "value": 0
                    },
                    {
                        "number": 64,
                        "time": 210.5156250000003,
                        "value": 1
                    },
                    {
                        "number": 64,
                        "time": 211.15625000000028,
                        "value": 0
                    },
                    {
                        "number": 64,
                        "time": 211.19791666666694,
                        "value": 1
                    },
                    {
                        "number": 64,
                        "time": 215.2135416666669,
                        "value": 0
                    },
                    {
                        "number": 64,
                        "time": 215.56770833333357,
                        "value": 1
                    },
                    {
                        "number": 64,
                        "time": 216.84375000000023,
                        "value": 0
                    },
                    {
                        "number": 64,
                        "time": 217.36458333333357,
                        "value": 1
                    },
                    {
                        "number": 64,
                        "time": 217.70312500000026,
                        "value": 0
                    },
                    {
                        "number": 64,
                        "time": 217.76562500000026,
                        "value": 1
                    },
                    {
                        "number": 64,
                        "time": 218.1302083333336,
                        "value": 0
                    },
                    {
                        "number": 64,
                        "time": 218.17187500000026,
                        "value": 1
                    },
                    {
                        "number": 64,
                        "time": 218.5572916666669,
                        "value": 0
                    },
                    {
                        "number": 64,
                        "time": 218.5729166666669,
                        "value": 1
                    },
                    {
                        "number": 64,
                        "time": 218.9739583333336,
                        "value": 0
                    },
                    {
                        "number": 64,
                        "time": 219.04687500000026,
                        "value": 1
                    },
                    {
                        "number": 64,
                        "time": 219.3645833333336,
                        "value": 0
                    },
                    {
                        "number": 64,
                        "time": 219.3958333333336,
                        "value": 1
                    },
                    {
                        "number": 64,
                        "time": 219.7604166666669,
                        "value": 0
                    },
                    {
                        "number": 64,
                        "time": 219.8229166666669,
                        "value": 1
                    },
                    {
                        "number": 64,
                        "time": 220.12500000000026,
                        "value": 0
                    },
                    {
                        "number": 64,
                        "time": 220.1770833333336,
                        "value": 1
                    },
                    {
                        "number": 64,
                        "time": 220.5364583333336,
                        "value": 0
                    },
                    {
                        "number": 64,
                        "time": 221.0208333333336,
                        "value": 1
                    },
                    {
                        "number": 64,
                        "time": 221.31250000000028,
                        "value": 0
                    },
                    {
                        "number": 64,
                        "time": 221.39062500000028,
                        "value": 1
                    },
                    {
                        "number": 64,
                        "time": 221.79687500000028,
                        "value": 0
                    },
                    {
                        "number": 64,
                        "time": 221.90104166666694,
                        "value": 1
                    },
                    {
                        "number": 64,
                        "time": 222.19791666666697,
                        "value": 0
                    },
                    {
                        "number": 64,
                        "time": 222.28645833333363,
                        "value": 1
                    },
                    {
                        "number": 64,
                        "time": 222.6093750000003,
                        "value": 0
                    },
                    {
                        "number": 64,
                        "time": 222.66145833333366,
                        "value": 1
                    },
                    {
                        "number": 64,
                        "time": 222.9687500000003,
                        "value": 0
                    },
                    {
                        "number": 64,
                        "time": 223.01562500000028,
                        "value": 1
                    },
                    {
                        "number": 64,
                        "time": 223.16666666666697,
                        "value": 0
                    },
                    {
                        "number": 64,
                        "time": 223.17708333333363,
                        "value": 1
                    },
                    {
                        "number": 64,
                        "time": 223.37500000000034,
                        "value": 0
                    },
                    {
                        "number": 64,
                        "time": 223.479166666667,
                        "value": 1
                    },
                    {
                        "number": 64,
                        "time": 223.744791666667,
                        "value": 0
                    },
                    {
                        "number": 64,
                        "time": 223.947916666667,
                        "value": 1
                    },
                    {
                        "number": 64,
                        "time": 224.182291666667,
                        "value": 0
                    },
                    {
                        "number": 64,
                        "time": 224.31770833333366,
                        "value": 1
                    },
                    {
                        "number": 64,
                        "time": 224.55729166666697,
                        "value": 0
                    },
                    {
                        "number": 64,
                        "time": 224.66666666666697,
                        "value": 1
                    },
                    {
                        "number": 64,
                        "time": 224.96875000000028,
                        "value": 0
                    },
                    {
                        "number": 64,
                        "time": 225.16145833333363,
                        "value": 1
                    },
                    {
                        "number": 64,
                        "time": 225.36458333333366,
                        "value": 0
                    },
                    {
                        "number": 64,
                        "time": 225.47395833333366,
                        "value": 1
                    },
                    {
                        "number": 64,
                        "time": 225.76041666666697,
                        "value": 0
                    },
                    {
                        "number": 64,
                        "time": 225.92708333333363,
                        "value": 1
                    },
                    {
                        "number": 64,
                        "time": 226.16145833333363,
                        "value": 0
                    },
                    {
                        "number": 64,
                        "time": 226.32291666666697,
                        "value": 1
                    },
                    {
                        "number": 64,
                        "time": 226.68229166666697,
                        "value": 0
                    },
                    {
                        "number": 64,
                        "time": 226.7343750000003,
                        "value": 1
                    },
                    {
                        "number": 64,
                        "time": 227.90625000000037,
                        "value": 0
                    },
                    {
                        "number": 64,
                        "time": 227.9114583333337,
                        "value": 1
                    },
                    {
                        "number": 64,
                        "time": 228.30729166666703,
                        "value": 0
                    },
                    {
                        "number": 64,
                        "time": 228.34895833333368,
                        "value": 1
                    },
                    {
                        "number": 64,
                        "time": 229.22395833333368,
                        "value": 0
                    },
                    {
                        "number": 64,
                        "time": 229.26041666666703,
                        "value": 1
                    },
                    {
                        "number": 64,
                        "time": 230.78645833333368,
                        "value": 1
                    },
                    {
                        "number": 64,
                        "time": 230.97916666666703,
                        "value": 0
                    },
                    {
                        "number": 64,
                        "time": 231.2239583333337,
                        "value": 0
                    },
                    {
                        "number": 64,
                        "time": 231.31250000000037,
                        "value": 1
                    },
                    {
                        "number": 64,
                        "time": 231.5989583333337,
                        "value": 0
                    },
                    {
                        "number": 64,
                        "time": 231.61979166666706,
                        "value": 1
                    },
                    {
                        "number": 64,
                        "time": 231.98958333333374,
                        "value": 0
                    },
                    {
                        "number": 64,
                        "time": 232.0000000000004,
                        "value": 1
                    },
                    {
                        "number": 64,
                        "time": 232.36979166666708,
                        "value": 0
                    },
                    {
                        "number": 64,
                        "time": 232.39583333333374,
                        "value": 1
                    },
                    {
                        "number": 64,
                        "time": 233.03645833333377,
                        "value": 0
                    },
                    {
                        "number": 64,
                        "time": 238.06250000000043,
                        "value": 1
                    },
                    {
                        "number": 64,
                        "time": 238.23437500000043,
                        "value": 0
                    },
                    {
                        "number": 64,
                        "time": 238.26562500000043,
                        "value": 1
                    },
                    {
                        "number": 64,
                        "time": 238.45312500000043,
                        "value": 0
                    },
                    {
                        "number": 64,
                        "time": 238.47395833333377,
                        "value": 1
                    },
                    {
                        "number": 64,
                        "time": 238.79166666666708,
                        "value": 0
                    },
                    {
                        "number": 64,
                        "time": 239.30729166666708,
                        "value": 1
                    },
                    {
                        "number": 64,
                        "time": 239.46354166666708,
                        "value": 0
                    },
                    {
                        "number": 64,
                        "time": 240.28125000000043,
                        "value": 1
                    },
                    {
                        "number": 64,
                        "time": 240.29166666666708,
                        "value": 1
                    },
                    {
                        "number": 64,
                        "time": 242.09895833333374,
                        "value": 0
                    },
                    {
                        "number": 64,
                        "time": 242.11458333333374,
                        "value": 1
                    },
                    {
                        "number": 64,
                        "time": 242.30729166666708,
                        "value": 0
                    },
                    {
                        "number": 64,
                        "time": 242.3906250000004,
                        "value": 1
                    },
                    {
                        "number": 64,
                        "time": 242.59895833333374,
                        "value": 1
                    },
                    {
                        "number": 64,
                        "time": 244.55729166666708,
                        "value": 0
                    },
                    {
                        "number": 64,
                        "time": 244.60416666666708,
                        "value": 1
                    },
                    {
                        "number": 64,
                        "time": 245.45833333333377,
                        "value": 0
                    },
                    {
                        "number": 64,
                        "time": 245.50000000000043,
                        "value": 1
                    },
                    {
                        "number": 64,
                        "time": 246.49479166666708,
                        "value": 0
                    },
                    {
                        "number": 64,
                        "time": 246.51562500000043,
                        "value": 1
                    },
                    {
                        "number": 64,
                        "time": 247.22395833333385,
                        "value": 0
                    },
                    {
                        "number": 64,
                        "time": 247.25520833333385,
                        "value": 1
                    },
                    {
                        "number": 64,
                        "time": 248.1041666666672,
                        "value": 0
                    },
                    {
                        "number": 64,
                        "time": 248.1354166666672,
                        "value": 1
                    },
                    {
                        "number": 64,
                        "time": 248.94791666666723,
                        "value": 0
                    },
                    {
                        "number": 64,
                        "time": 248.99479166666723,
                        "value": 1
                    },
                    {
                        "number": 64,
                        "time": 250.0677083333339,
                        "value": 0
                    },
                    {
                        "number": 64,
                        "time": 250.1093750000006,
                        "value": 1
                    },
                    {
                        "number": 64,
                        "time": 251.32812500000063,
                        "value": 0
                    },
                    {
                        "number": 64,
                        "time": 251.39062500000065,
                        "value": 1
                    },
                    {
                        "number": 64,
                        "time": 252.30208333333397,
                        "value": 0
                    },
                    {
                        "number": 64,
                        "time": 255.3958333333339,
                        "value": 1
                    },
                    {
                        "number": 64,
                        "time": 257.4947916666672,
                        "value": 0
                    },
                    {
                        "number": 64,
                        "time": 259.8958333333339,
                        "value": 1
                    },
                    {
                        "number": 64,
                        "time": 261.34895833333394,
                        "value": 0
                    },
                    {
                        "number": 64,
                        "time": 263.583333333334,
                        "value": 1
                    },
                    {
                        "number": 64,
                        "time": 269.52083333333394,
                        "value": 0
                    },
                    {
                        "number": 64,
                        "time": 273.35416666666725,
                        "value": 1
                    },
                    {
                        "number": 64,
                        "time": 273.78125000000057,
                        "value": 0
                    },
                    {
                        "number": 64,
                        "time": 273.83854166666725,
                        "value": 1
                    },
                    {
                        "number": 64,
                        "time": 274.3750000000006,
                        "value": 0
                    },
                    {
                        "number": 64,
                        "time": 274.5260416666673,
                        "value": 1
                    },
                    {
                        "number": 64,
                        "time": 274.8593750000007,
                        "value": 0
                    },
                    {
                        "number": 64,
                        "time": 274.8906250000007,
                        "value": 1
                    },
                    {
                        "number": 64,
                        "time": 275.4375000000007,
                        "value": 0
                    },
                    {
                        "number": 64,
                        "time": 275.66666666666737,
                        "value": 1
                    },
                    {
                        "number": 64,
                        "time": 276.020833333334,
                        "value": 0
                    },
                    {
                        "number": 64,
                        "time": 276.0416666666673,
                        "value": 1
                    },
                    {
                        "number": 64,
                        "time": 277.1875000000006,
                        "value": 0
                    },
                    {
                        "number": 64,
                        "time": 277.5000000000006,
                        "value": 1
                    },
                    {
                        "number": 64,
                        "time": 278.0000000000006,
                        "value": 0
                    },
                    {
                        "number": 64,
                        "time": 278.19270833333394,
                        "value": 1
                    },
                    {
                        "number": 64,
                        "time": 278.5312500000006,
                        "value": 0
                    },
                    {
                        "number": 64,
                        "time": 278.6562500000006,
                        "value": 1
                    },
                    {
                        "number": 64,
                        "time": 279.1406250000007,
                        "value": 0
                    },
                    {
                        "number": 64,
                        "time": 280.83854166666737,
                        "value": 1
                    },
                    {
                        "number": 64,
                        "time": 281.06770833333405,
                        "value": 0
                    },
                    {
                        "number": 64,
                        "time": 281.23958333333405,
                        "value": 1
                    },
                    {
                        "number": 64,
                        "time": 281.6354166666674,
                        "value": 0
                    },
                    {
                        "number": 64,
                        "time": 281.8333333333341,
                        "value": 1
                    },
                    {
                        "number": 64,
                        "time": 282.1875000000008,
                        "value": 0
                    },
                    {
                        "number": 64,
                        "time": 282.2864583333341,
                        "value": 1
                    },
                    {
                        "number": 64,
                        "time": 282.8437500000008,
                        "value": 0
                    },
                    {
                        "number": 64,
                        "time": 283.2239583333341,
                        "value": 1
                    },
                    {
                        "number": 64,
                        "time": 284.2812500000008,
                        "value": 0
                    },
                    {
                        "number": 64,
                        "time": 284.8281250000008,
                        "value": 1
                    },
                    {
                        "number": 64,
                        "time": 285.2812500000008,
                        "value": 0
                    },
                    {
                        "number": 64,
                        "time": 285.3906250000008,
                        "value": 1
                    },
                    {
                        "number": 64,
                        "time": 285.8697916666674,
                        "value": 0
                    },
                    {
                        "number": 64,
                        "time": 286.1041666666674,
                        "value": 1
                    },
                    {
                        "number": 64,
                        "time": 287.2031250000007,
                        "value": 0
                    },
                    {
                        "number": 64,
                        "time": 308.41145833333405,
                        "value": 1
                    },
                    {
                        "number": 64,
                        "time": 308.9791666666673,
                        "value": 0
                    },
                    {
                        "number": 64,
                        "time": 309.442708333334,
                        "value": 1
                    },
                    {
                        "number": 64,
                        "time": 309.89583333333394,
                        "value": 0
                    },
                    {
                        "number": 64,
                        "time": 310.42708333333394,
                        "value": 1
                    },
                    {
                        "number": 64,
                        "time": 310.6875000000006,
                        "value": 0
                    },
                    {
                        "number": 64,
                        "time": 310.7604166666673,
                        "value": 1
                    },
                    {
                        "number": 64,
                        "time": 311.083333333334,
                        "value": 0
                    },
                    {
                        "number": 64,
                        "time": 311.1406250000007,
                        "value": 1
                    },
                    {
                        "number": 64,
                        "time": 311.48958333333405,
                        "value": 0
                    },
                    {
                        "number": 64,
                        "time": 311.98958333333405,
                        "value": 1
                    },
                    {
                        "number": 64,
                        "time": 312.27083333333405,
                        "value": 0
                    },
                    {
                        "number": 64,
                        "time": 313.08333333333405,
                        "value": 1
                    },
                    {
                        "number": 64,
                        "time": 313.4479166666674,
                        "value": 0
                    },
                    {
                        "number": 64,
                        "time": 313.46875000000074,
                        "value": 1
                    },
                    {
                        "number": 64,
                        "time": 313.895833333334,
                        "value": 0
                    },
                    {
                        "number": 64,
                        "time": 314.3593750000007,
                        "value": 1
                    },
                    {
                        "number": 64,
                        "time": 314.80729166666737,
                        "value": 0
                    },
                    {
                        "number": 64,
                        "time": 314.9531250000007,
                        "value": 1
                    },
                    {
                        "number": 64,
                        "time": 315.2031250000007,
                        "value": 0
                    },
                    {
                        "number": 64,
                        "time": 315.333333333334,
                        "value": 1
                    },
                    {
                        "number": 64,
                        "time": 315.5937500000006,
                        "value": 0
                    },
                    {
                        "number": 64,
                        "time": 315.6822916666673,
                        "value": 1
                    },
                    {
                        "number": 64,
                        "time": 315.97916666666725,
                        "value": 0
                    },
                    {
                        "number": 64,
                        "time": 316.00000000000057,
                        "value": 1
                    },
                    {
                        "number": 64,
                        "time": 316.45833333333394,
                        "value": 0
                    },
                    {
                        "number": 64,
                        "time": 317.09375000000057,
                        "value": 1
                    },
                    {
                        "number": 64,
                        "time": 317.33333333333394,
                        "value": 0
                    },
                    {
                        "number": 64,
                        "time": 317.5000000000006,
                        "value": 1
                    },
                    {
                        "number": 64,
                        "time": 317.70833333333394,
                        "value": 0
                    },
                    {
                        "number": 64,
                        "time": 317.88541666666725,
                        "value": 1
                    },
                    {
                        "number": 64,
                        "time": 318.0833333333339,
                        "value": 0
                    },
                    {
                        "number": 64,
                        "time": 318.2604166666672,
                        "value": 1
                    },
                    {
                        "number": 64,
                        "time": 318.4739583333338,
                        "value": 0
                    },
                    {
                        "number": 64,
                        "time": 318.5052083333338,
                        "value": 1
                    },
                    {
                        "number": 64,
                        "time": 318.9687500000005,
                        "value": 0
                    },
                    {
                        "number": 64,
                        "time": 319.9947916666672,
                        "value": 1
                    },
                    {
                        "number": 64,
                        "time": 320.2968750000005,
                        "value": 0
                    },
                    {
                        "number": 64,
                        "time": 323.364583333334,
                        "value": 1
                    },
                    {
                        "number": 64,
                        "time": 323.69791666666737,
                        "value": 0
                    },
                    {
                        "number": 64,
                        "time": 323.7500000000007,
                        "value": 1
                    },
                    {
                        "number": 64,
                        "time": 324.21875000000074,
                        "value": 0
                    },
                    {
                        "number": 64,
                        "time": 326.6666666666674,
                        "value": 1
                    },
                    {
                        "number": 64,
                        "time": 327.6093750000008,
                        "value": 0
                    },
                    {
                        "number": 64,
                        "time": 330.1197916666675,
                        "value": 1
                    },
                    {
                        "number": 64,
                        "time": 330.8750000000008,
                        "value": 0
                    },
                    {
                        "number": 64,
                        "time": 331.4531250000008,
                        "value": 1
                    },
                    {
                        "number": 64,
                        "time": 331.8854166666674,
                        "value": 0
                    },
                    {
                        "number": 64,
                        "time": 332.0052083333341,
                        "value": 1
                    },
                    {
                        "number": 64,
                        "time": 332.38020833333417,
                        "value": 0
                    },
                    {
                        "number": 64,
                        "time": 332.44270833333417,
                        "value": 1
                    },
                    {
                        "number": 64,
                        "time": 332.86458333333417,
                        "value": 0
                    },
                    {
                        "number": 64,
                        "time": 334.3177083333341,
                        "value": 1
                    },
                    {
                        "number": 64,
                        "time": 334.82812500000074,
                        "value": 0
                    },
                    {
                        "number": 64,
                        "time": 335.28645833333405,
                        "value": 1
                    },
                    {
                        "number": 64,
                        "time": 335.84895833333405,
                        "value": 0
                    },
                    {
                        "number": 64,
                        "time": 336.04166666666737,
                        "value": 1
                    },
                    {
                        "number": 64,
                        "time": 336.7343750000007,
                        "value": 0
                    },
                    {
                        "number": 64,
                        "time": 336.7968750000007,
                        "value": 1
                    },
                    {
                        "number": 64,
                        "time": 337.30729166666737,
                        "value": 0
                    },
                    {
                        "number": 64,
                        "time": 337.94791666666737,
                        "value": 1
                    },
                    {
                        "number": 64,
                        "time": 338.46354166666737,
                        "value": 0
                    },
                    {
                        "number": 64,
                        "time": 339.2031250000007,
                        "value": 1
                    },
                    {
                        "number": 64,
                        "time": 342.94791666666725,
                        "value": 0
                    },
                    {
                        "number": 64,
                        "time": 345.70833333333394,
                        "value": 1
                    },
                    {
                        "number": 64,
                        "time": 346.08333333333394,
                        "value": 0
                    },
                    {
                        "number": 64,
                        "time": 346.1093750000006,
                        "value": 1
                    },
                    {
                        "number": 64,
                        "time": 347.067708333334,
                        "value": 0
                    },
                    {
                        "number": 64,
                        "time": 348.7656250000007,
                        "value": 1
                    },
                    {
                        "number": 64,
                        "time": 349.59375000000074,
                        "value": 0
                    },
                    {
                        "number": 64,
                        "time": 349.76562500000074,
                        "value": 1
                    },
                    {
                        "number": 64,
                        "time": 350.5885416666674,
                        "value": 0
                    },
                    {
                        "number": 64,
                        "time": 350.73437500000074,
                        "value": 1
                    },
                    {
                        "number": 64,
                        "time": 352.62500000000074,
                        "value": 0
                    },
                    {
                        "number": 64,
                        "time": 354.7604166666674,
                        "value": 1
                    },
                    {
                        "number": 64,
                        "time": 357.3072916666674,
                        "value": 0
                    }
                ],
                "67": [
                    {
                        "number": 67,
                        "time": 209.10416666666697,
                        "value": 1
                    },
                    {
                        "number": 67,
                        "time": 213.71875000000026,
                        "value": 0
                    }
                ],
                "91": [
                    {
                        "number": 91,
                        "time": 0,
                        "value": 0.4330708661417323
                    },
                    {
                        "number": 91,
                        "time": 0.005208333333333333,
                        "value": 0.4330708661417323
                    },
                    {
                        "number": 91,
                        "time": 4.125,
                        "value": 0.4330708661417323
                    }
                ],
                "121": [
                    {
                        "number": 121,
                        "time": 0,
                        "value": 0
                    },
                    {
                        "number": 121,
                        "time": 0,
                        "value": 0
                    },
                    {
                        "number": 121,
                        "time": 4.125,
                        "value": 1
                    }
                ]
            },
            "id": 1,
            "name": "...",
            "channelNumber": 0,
            "isPercussion": false
        },
        {
            "startTime": 0,
            "duration": 0,
            "length": 0,
            "notes": [],
            "controlChanges": {},
            "id": 2,
            "name": "Arnold Schönberg's Drei Klavierstucke, op. 11"
        },
        {
            "startTime": 0,
            "duration": 0,
            "length": 0,
            "notes": [],
            "controlChanges": {},
            "id": 3,
            "name": "(It's necessary to play the mute chord on the 14th m.)"
        },
        {
            "startTime": 0,
            "duration": 0,
            "length": 0,
            "notes": [],
            "controlChanges": {},
            "id": 4,
            "name": "..."
        },
        {
            "startTime": 0,
            "duration": 0,
            "length": 0,
            "notes": [],
            "controlChanges": {},
            "id": 5,
            "name": "Live on MIDI support by Alessandro Simonetto"
        },
        {
            "startTime": 0,
            "duration": 0,
            "length": 0,
            "notes": [],
            "controlChanges": {},
            "id": 6,
            "name": "Info: ® onclassical.com (by the Author)"
        },
        {
            "startTime": 0,
            "duration": 0,
            "length": 0,
            "notes": [],
            "controlChanges": {},
            "id": 7,
            "name": "A. Simonetto,  © 2003. All rights reserved."
        },
        {
            "startTime": 0,
            "duration": 0,
            "length": 0,
            "notes": [],
            "controlChanges": {},
            "id": 8,
            "name": "..."
        },
        {
            "startTime": 0,
            "duration": 0,
            "length": 0,
            "notes": [],
            "controlChanges": {},
            "id": 9,
            "name": "This file sounds better with Steinberg \"the Grand\""
        },
        {
            "startTime": 0,
            "duration": 0,
            "length": 0,
            "notes": [],
            "controlChanges": {},
            "id": 10
        },
        {
            "startTime": 0,
            "duration": 0,
            "length": 0,
            "notes": [],
            "controlChanges": {},
            "id": 11
        },
        {
            "startTime": 0,
            "duration": 0,
            "length": 0,
            "notes": [],
            "controlChanges": {},
            "id": 12
        },
        {
            "startTime": 0,
            "duration": 0,
            "length": 0,
            "notes": [],
            "controlChanges": {},
            "id": 13
        },
        {
            "startTime": 0,
            "duration": 0,
            "length": 0,
            "notes": [],
            "controlChanges": {},
            "id": 14
        },
        {
            "startTime": 0,
            "duration": 0,
            "length": 0,
            "notes": [],
            "controlChanges": {},
            "id": 15
        },
        {
            "startTime": 0,
            "duration": 0,
            "length": 0,
            "notes": [],
            "controlChanges": {},
            "id": 16
        },
        {
            "startTime": 0,
            "duration": 0,
            "length": 0,
            "notes": [],
            "controlChanges": {},
            "id": 17
        }
    ]
}