{
    "header": {
        "PPQ": 480,
        "timeSignature": [
            8,
            8
        ],
        "bpm": 54.00000540000054,
        "name": "stravinsky firebird part 01"
    },
    "startTime": 0,
    "duration": 226.6666440000009,
    "tracks": [
        {
            "startTime": 0,
            "duration": 0,
            "length": 0,
            "notes": [],
            "controlChanges": {},
            "id": 0,
            "name": "stravinsky firebird part 01"
        },
        {
            "startTime": 0,
            "duration": 222.7777554999981,
            "length": 850,
            "notes": [
                {
                    "name": "G#2",
                    "midi": 44,
                    "time": 0,
                    "velocity": 0.3858267716535433,
                    "duration": 0.5555555
                },
                {
                    "name": "E2",
                    "midi": 40,
                    "time": 0.5555555,
                    "velocity": 0.3858267716535433,
                    "duration": 0.5555555
                },
                {
                    "name": "D#2",
                    "midi": 39,
                    "time": 1.111111,
                    "velocity": 0.3858267716535433,
                    "duration": 0.5555554999999999
                },
                {
                    "name": "D2",
                    "midi": 38,
                    "time": 1.6666664999999998,
                    "velocity": 0.3858267716535433,
                    "duration": 0.5555555000000001
                },
                {
                    "name": "F2",
                    "midi": 41,
                    "time": 2.222222,
                    "velocity": 0.3858267716535433,
                    "duration": 0.5555555000000001
                },
                {
                    "name": "G2",
                    "midi": 43,
                    "time": 2.7777775,
                    "velocity": 0.3858267716535433,
                    "duration": 0.5555555000000001
                },
                {
                    "name": "G#2",
                    "midi": 44,
                    "time": 3.333333,
                    "velocity": 0.3858267716535433,
                    "duration": 0.5555555000000001
                },
                {
                    "name": "E2",
                    "midi": 40,
                    "time": 3.8888885,
                    "velocity": 0.3858267716535433,
                    "duration": 0.5555554999999996
                },
                {
                    "name": "D#2",
                    "midi": 39,
                    "time": 4.444444,
                    "velocity": 0.3858267716535433,
                    "duration": 0.5555554999999996
                },
                {
                    "name": "D2",
                    "midi": 38,
                    "time": 4.9999994999999995,
                    "velocity": 0.3858267716535433,
                    "duration": 0.5555554999999996
                },
                {
                    "name": "F2",
                    "midi": 41,
                    "time": 5.555554999999999,
                    "velocity": 0.3858267716535433,
                    "duration": 0.5555554999999996
                },
                {
                    "name": "G2",
                    "midi": 43,
                    "time": 6.111110499999999,
                    "velocity": 0.3858267716535433,
                    "duration": 0.5555554999999996
                },
                {
                    "name": "G#2",
                    "midi": 44,
                    "time": 6.666665999999998,
                    "velocity": 0.3858267716535433,
                    "duration": 0.5555554999999996
                },
                {
                    "name": "E2",
                    "midi": 40,
                    "time": 7.222221499999998,
                    "velocity": 0.3858267716535433,
                    "duration": 0.5555554999999996
                },
                {
                    "name": "G#2",
                    "midi": 44,
                    "time": 7.777776999999998,
                    "velocity": 0.3858267716535433,
                    "duration": 0.5555554999999996
                },
                {
                    "name": "F2",
                    "midi": 41,
                    "time": 8.333332499999997,
                    "velocity": 0.3858267716535433,
                    "duration": 0.5555555000000005
                },
                {
                    "name": "A2",
                    "midi": 45,
                    "time": 8.888887999999998,
                    "velocity": 0.3858267716535433,
                    "duration": 0.5555555000000005
                },
                {
                    "name": "D3",
                    "midi": 50,
                    "time": 9.444443499999998,
                    "velocity": 0.3858267716535433,
                    "duration": 0.5555555000000005
                },
                {
                    "name": "G#2",
                    "midi": 44,
                    "time": 9.999998999999999,
                    "velocity": 0.3858267716535433,
                    "duration": 0.5555555000000005
                },
                {
                    "name": "E2",
                    "midi": 40,
                    "time": 10.5555545,
                    "velocity": 0.3858267716535433,
                    "duration": 0.5555555000000005
                },
                {
                    "name": "D#2",
                    "midi": 39,
                    "time": 11.11111,
                    "velocity": 0.3858267716535433,
                    "duration": 0.5555555000000005
                },
                {
                    "name": "D2",
                    "midi": 38,
                    "time": 11.6666655,
                    "velocity": 0.3858267716535433,
                    "duration": 0.5555555000000005
                },
                {
                    "name": "F2",
                    "midi": 41,
                    "time": 12.222221000000001,
                    "velocity": 0.3858267716535433,
                    "duration": 0.5555555000000005
                },
                {
                    "name": "G2",
                    "midi": 43,
                    "time": 12.777776500000002,
                    "velocity": 0.3858267716535433,
                    "duration": 0.5555555000000005
                },
                {
                    "name": "G#3",
                    "midi": 56,
                    "time": 13.333332000000002,
                    "velocity": 0.3858267716535433,
                    "duration": 0.5555555000000005
                },
                {
                    "name": "E3",
                    "midi": 52,
                    "time": 13.888887500000003,
                    "velocity": 0.3858267716535433,
                    "duration": 0.5555555000000005
                },
                {
                    "name": "D#3",
                    "midi": 51,
                    "time": 14.444443000000003,
                    "velocity": 0.3858267716535433,
                    "duration": 0.5555555000000005
                },
                {
                    "name": "D3",
                    "midi": 50,
                    "time": 14.999998500000004,
                    "velocity": 0.3858267716535433,
                    "duration": 0.5555555000000005
                },
                {
                    "name": "F3",
                    "midi": 53,
                    "time": 15.555554000000004,
                    "velocity": 0.3858267716535433,
                    "duration": 0.5555555000000005
                },
                {
                    "name": "G3",
                    "midi": 55,
                    "time": 16.111109500000005,
                    "velocity": 0.3858267716535433,
                    "duration": 0.5555555000000005
                },
                {
                    "name": "G#3",
                    "midi": 56,
                    "time": 16.666665000000005,
                    "velocity": 0.3858267716535433,
                    "duration": 0.5555555000000005
                },
                {
                    "name": "E3",
                    "midi": 52,
                    "time": 17.222220500000006,
                    "velocity": 0.3858267716535433,
                    "duration": 0.5555555000000005
                },
                {
                    "name": "G#3",
                    "midi": 56,
                    "time": 17.777776000000006,
                    "velocity": 0.3858267716535433,
                    "duration": 0.5555555000000005
                },
                {
                    "name": "F3",
                    "midi": 53,
                    "time": 18.333331500000007,
                    "velocity": 0.3858267716535433,
                    "duration": 0.5555555000000005
                },
                {
                    "name": "A3",
                    "midi": 57,
                    "time": 18.888887000000008,
                    "velocity": 0.3858267716535433,
                    "duration": 0.5555555000000005
                },
                {
                    "name": "D4",
                    "midi": 62,
                    "time": 19.444442500000008,
                    "velocity": 0.3858267716535433,
                    "duration": 0.5555555000000005
                },
                {
                    "name": "G#3",
                    "midi": 56,
                    "time": 19.99999800000001,
                    "velocity": 0.3858267716535433,
                    "duration": 0.5555555000000005
                },
                {
                    "name": "E3",
                    "midi": 52,
                    "time": 20.55555350000001,
                    "velocity": 0.3858267716535433,
                    "duration": 0.5555555000000005
                },
                {
                    "name": "D#3",
                    "midi": 51,
                    "time": 21.11110900000001,
                    "velocity": 0.3858267716535433,
                    "duration": 0.5555555000000005
                },
                {
                    "name": "D3",
                    "midi": 50,
                    "time": 21.66666450000001,
                    "velocity": 0.3858267716535433,
                    "duration": 0.5555555000000005
                },
                {
                    "name": "F3",
                    "midi": 53,
                    "time": 22.22222000000001,
                    "velocity": 0.3858267716535433,
                    "duration": 0.5555555000000005
                },
                {
                    "name": "G3",
                    "midi": 55,
                    "time": 22.77777550000001,
                    "velocity": 0.3858267716535433,
                    "duration": 0.5555555000000005
                },
                {
                    "name": "G#3",
                    "midi": 56,
                    "time": 23.333331000000012,
                    "velocity": 0.3858267716535433,
                    "duration": 0.5555555000000005
                },
                {
                    "name": "E3",
                    "midi": 52,
                    "time": 23.888886500000012,
                    "velocity": 0.3858267716535433,
                    "duration": 0.5555555000000005
                },
                {
                    "name": "D#3",
                    "midi": 51,
                    "time": 24.444442000000013,
                    "velocity": 0.3858267716535433,
                    "duration": 0.5555555000000005
                },
                {
                    "name": "D3",
                    "midi": 50,
                    "time": 24.999997500000013,
                    "velocity": 0.3858267716535433,
                    "duration": 0.5555555000000005
                },
                {
                    "name": "F3",
                    "midi": 53,
                    "time": 25.555553000000014,
                    "velocity": 0.3858267716535433,
                    "duration": 0.5555555000000005
                },
                {
                    "name": "G3",
                    "midi": 55,
                    "time": 26.111108500000014,
                    "velocity": 0.3858267716535433,
                    "duration": 0.5555555000000005
                },
                {
                    "name": "G#3",
                    "midi": 56,
                    "time": 26.666664000000015,
                    "velocity": 0.3858267716535433,
                    "duration": 0.5555555000000005
                },
                {
                    "name": "E3",
                    "midi": 52,
                    "time": 27.222219500000016,
                    "velocity": 0.3858267716535433,
                    "duration": 0.5555555000000005
                },
                {
                    "name": "D#3",
                    "midi": 51,
                    "time": 27.777775000000016,
                    "velocity": 0.3858267716535433,
                    "duration": 0.5555555000000005
                },
                {
                    "name": "D3",
                    "midi": 50,
                    "time": 28.333330500000017,
                    "velocity": 0.3858267716535433,
                    "duration": 0.5555555000000005
                },
                {
                    "name": "F3",
                    "midi": 53,
                    "time": 28.888886000000017,
                    "velocity": 0.3858267716535433,
                    "duration": 0.5555555000000005
                },
                {
                    "name": "G3",
                    "midi": 55,
                    "time": 29.444441500000018,
                    "velocity": 0.3858267716535433,
                    "duration": 0.5555555000000005
                },
                {
                    "name": "G#3",
                    "midi": 56,
                    "time": 29.99999700000002,
                    "velocity": 0.3858267716535433,
                    "duration": 0.5555555000000005
                },
                {
                    "name": "E3",
                    "midi": 52,
                    "time": 30.55555250000002,
                    "velocity": 0.3858267716535433,
                    "duration": 0.5555555000000005
                },
                {
                    "name": "G#3",
                    "midi": 56,
                    "time": 31.11110800000002,
                    "velocity": 0.3858267716535433,
                    "duration": 0.5555555000000005
                },
                {
                    "name": "F3",
                    "midi": 53,
                    "time": 31.66666350000002,
                    "velocity": 0.3858267716535433,
                    "duration": 0.555555499999997
                },
                {
                    "name": "A3",
                    "midi": 57,
                    "time": 32.22221900000002,
                    "velocity": 0.3858267716535433,
                    "duration": 0.555555499999997
                },
                {
                    "name": "D4",
                    "midi": 62,
                    "time": 32.777774500000014,
                    "velocity": 0.3858267716535433,
                    "duration": 0.555555499999997
                },
                {
                    "name": "G#3",
                    "midi": 56,
                    "time": 33.33333000000001,
                    "velocity": 0.3858267716535433,
                    "duration": 0.555555499999997
                },
                {
                    "name": "E3",
                    "midi": 52,
                    "time": 33.88888550000001,
                    "velocity": 0.3858267716535433,
                    "duration": 0.555555499999997
                },
                {
                    "name": "D#3",
                    "midi": 51,
                    "time": 34.444441000000005,
                    "velocity": 0.3858267716535433,
                    "duration": 0.555555499999997
                },
                {
                    "name": "D3",
                    "midi": 50,
                    "time": 34.9999965,
                    "velocity": 0.3858267716535433,
                    "duration": 0.555555499999997
                },
                {
                    "name": "F3",
                    "midi": 53,
                    "time": 35.555552,
                    "velocity": 0.3858267716535433,
                    "duration": 0.555555499999997
                },
                {
                    "name": "G3",
                    "midi": 55,
                    "time": 36.111107499999996,
                    "velocity": 0.3858267716535433,
                    "duration": 0.555555499999997
                },
                {
                    "name": "G#3",
                    "midi": 56,
                    "time": 36.66666299999999,
                    "velocity": 0.3858267716535433,
                    "duration": 0.555555499999997
                },
                {
                    "name": "E3",
                    "midi": 52,
                    "time": 37.22221849999999,
                    "velocity": 0.3858267716535433,
                    "duration": 0.555555499999997
                },
                {
                    "name": "D#3",
                    "midi": 51,
                    "time": 37.77777399999999,
                    "velocity": 0.3858267716535433,
                    "duration": 0.555555499999997
                },
                {
                    "name": "D3",
                    "midi": 50,
                    "time": 38.333329499999984,
                    "velocity": 0.3858267716535433,
                    "duration": 0.555555499999997
                },
                {
                    "name": "F3",
                    "midi": 53,
                    "time": 38.88888499999998,
                    "velocity": 0.3858267716535433,
                    "duration": 0.555555499999997
                },
                {
                    "name": "G3",
                    "midi": 55,
                    "time": 39.44444049999998,
                    "velocity": 0.3858267716535433,
                    "duration": 0.555555499999997
                },
                {
                    "name": "G#3",
                    "midi": 56,
                    "time": 39.999995999999975,
                    "velocity": 0.3858267716535433,
                    "duration": 0.13888887499999925
                },
                {
                    "name": "E3",
                    "midi": 52,
                    "time": 40.138884874999974,
                    "velocity": 0.3858267716535433,
                    "duration": 0.13888887499999925
                },
                {
                    "name": "G#3",
                    "midi": 56,
                    "time": 40.27777374999997,
                    "velocity": 0.3858267716535433,
                    "duration": 0.13888887499999925
                },
                {
                    "name": "E3",
                    "midi": 52,
                    "time": 40.41666262499997,
                    "velocity": 0.3858267716535433,
                    "duration": 0.13888887499999925
                },
                {
                    "name": "G#3",
                    "midi": 56,
                    "time": 40.55555149999997,
                    "velocity": 0.3858267716535433,
                    "duration": 0.13888887499999925
                },
                {
                    "name": "E3",
                    "midi": 52,
                    "time": 40.69444037499997,
                    "velocity": 0.3858267716535433,
                    "duration": 0.13888887499999925
                },
                {
                    "name": "G#3",
                    "midi": 56,
                    "time": 40.83332924999997,
                    "velocity": 0.3858267716535433,
                    "duration": 0.13888887499999925
                },
                {
                    "name": "E3",
                    "midi": 52,
                    "time": 40.97221812499997,
                    "velocity": 0.3858267716535433,
                    "duration": 0.13888887499999925
                },
                {
                    "name": "G#3",
                    "midi": 56,
                    "time": 41.11110699999997,
                    "velocity": 0.3858267716535433,
                    "duration": 0.13888887499999925
                },
                {
                    "name": "E3",
                    "midi": 52,
                    "time": 41.24999587499997,
                    "velocity": 0.3858267716535433,
                    "duration": 0.13888887499999925
                },
                {
                    "name": "G#3",
                    "midi": 56,
                    "time": 41.38888474999997,
                    "velocity": 0.3858267716535433,
                    "duration": 0.13888887499999925
                },
                {
                    "name": "E3",
                    "midi": 52,
                    "time": 41.527773624999966,
                    "velocity": 0.3858267716535433,
                    "duration": 0.13888887499999925
                },
                {
                    "name": "G#4",
                    "midi": 68,
                    "time": 41.666662499999966,
                    "velocity": 0.3858267716535433,
                    "duration": 0.13888887499999925
                },
                {
                    "name": "E4",
                    "midi": 64,
                    "time": 41.805551374999965,
                    "velocity": 0.3858267716535433,
                    "duration": 0.13888887499999925
                },
                {
                    "name": "G#4",
                    "midi": 68,
                    "time": 41.944440249999964,
                    "velocity": 0.3858267716535433,
                    "duration": 0.13888887499999925
                },
                {
                    "name": "E4",
                    "midi": 64,
                    "time": 42.08332912499996,
                    "velocity": 0.3858267716535433,
                    "duration": 0.13888887499999925
                },
                {
                    "name": "G#4",
                    "midi": 68,
                    "time": 42.22221799999996,
                    "velocity": 0.3858267716535433,
                    "duration": 0.13888887499999925
                },
                {
                    "name": "E4",
                    "midi": 64,
                    "time": 42.36110687499996,
                    "velocity": 0.3858267716535433,
                    "duration": 0.13888887499999925
                },
                {
                    "name": "G#4",
                    "midi": 68,
                    "time": 42.49999574999996,
                    "velocity": 0.3858267716535433,
                    "duration": 0.13888887499999925
                },
                {
                    "name": "E4",
                    "midi": 64,
                    "time": 42.63888462499996,
                    "velocity": 0.3858267716535433,
                    "duration": 0.13888887499999925
                },
                {
                    "name": "G#4",
                    "midi": 68,
                    "time": 42.77777349999996,
                    "velocity": 0.3858267716535433,
                    "duration": 0.04629629166666405
                },
                {
                    "name": "F#4",
                    "midi": 66,
                    "time": 42.82406979166662,
                    "velocity": 0.3858267716535433,
                    "duration": 0.04398147708333511
                },
                {
                    "name": "E4",
                    "midi": 64,
                    "time": 42.86805126874996,
                    "velocity": 0.3858267716535433,
                    "duration": 0.04861110625000009
                },
                {
                    "name": "D4",
                    "midi": 62,
                    "time": 42.91666237499996,
                    "velocity": 0.3858267716535433,
                    "duration": 0.04629629166666405
                },
                {
                    "name": "C4",
                    "midi": 60,
                    "time": 42.96295866666662,
                    "velocity": 0.3858267716535433,
                    "duration": 0.04398147708333511
                },
                {
                    "name": "A#3",
                    "midi": 58,
                    "time": 43.00694014374996,
                    "velocity": 0.3858267716535433,
                    "duration": 0.04861110625000009
                },
                {
                    "name": "E3",
                    "midi": 52,
                    "time": 43.05555124999996,
                    "velocity": 0.3858267716535433,
                    "duration": 1.8055553749999973
                },
                {
                    "name": "G#3",
                    "midi": 56,
                    "time": 43.05555124999996,
                    "velocity": 0.3858267716535433,
                    "duration": 1.8055553749999973
                },
                {
                    "name": "E3",
                    "midi": 52,
                    "time": 44.861106624999955,
                    "velocity": 0.3858267716535433,
                    "duration": 0.13888887499999925
                },
                {
                    "name": "G#3",
                    "midi": 56,
                    "time": 44.861106624999955,
                    "velocity": 0.3858267716535433,
                    "duration": 0.13888887499999925
                },
                {
                    "name": "G3",
                    "midi": 55,
                    "time": 44.999995499999955,
                    "velocity": 0.3858267716535433,
                    "duration": 0.13888887499999925
                },
                {
                    "name": "A#3",
                    "midi": 58,
                    "time": 44.999995499999955,
                    "velocity": 0.3858267716535433,
                    "duration": 0.13888887499999925
                },
                {
                    "name": "E3",
                    "midi": 52,
                    "time": 45.138884374999954,
                    "velocity": 0.3858267716535433,
                    "duration": 0.8333332500000026
                },
                {
                    "name": "G#3",
                    "midi": 56,
                    "time": 45.138884374999954,
                    "velocity": 0.3858267716535433,
                    "duration": 0.8333332500000026
                },
                {
                    "name": "E3",
                    "midi": 52,
                    "time": 45.972217624999956,
                    "velocity": 0.3858267716535433,
                    "duration": 0.13888887499999925
                },
                {
                    "name": "G#3",
                    "midi": 56,
                    "time": 45.972217624999956,
                    "velocity": 0.3858267716535433,
                    "duration": 0.13888887499999925
                },
                {
                    "name": "G3",
                    "midi": 55,
                    "time": 46.111106499999956,
                    "velocity": 0.3858267716535433,
                    "duration": 0.13888887499999925
                },
                {
                    "name": "A#3",
                    "midi": 58,
                    "time": 46.111106499999956,
                    "velocity": 0.3858267716535433,
                    "duration": 0.13888887499999925
                },
                {
                    "name": "E3",
                    "midi": 52,
                    "time": 46.249995374999955,
                    "velocity": 0.3858267716535433,
                    "duration": 0.9722221250000018
                },
                {
                    "name": "G#3",
                    "midi": 56,
                    "time": 46.249995374999955,
                    "velocity": 0.3858267716535433,
                    "duration": 0.9722221250000018
                },
                {
                    "name": "G3",
                    "midi": 55,
                    "time": 47.22221749999996,
                    "velocity": 0.3858267716535433,
                    "duration": 0.13888887499999925
                },
                {
                    "name": "A#3",
                    "midi": 58,
                    "time": 47.22221749999996,
                    "velocity": 0.3858267716535433,
                    "duration": 0.13888887499999925
                },
                {
                    "name": "E3",
                    "midi": 52,
                    "time": 47.361106374999956,
                    "velocity": 0.3858267716535433,
                    "duration": 0.9722221250000018
                },
                {
                    "name": "G#3",
                    "midi": 56,
                    "time": 47.361106374999956,
                    "velocity": 0.3858267716535433,
                    "duration": 0.9722221250000018
                },
                {
                    "name": "G3",
                    "midi": 55,
                    "time": 48.33332849999996,
                    "velocity": 0.3858267716535433,
                    "duration": 0.13888887499999925
                },
                {
                    "name": "A#3",
                    "midi": 58,
                    "time": 48.33332849999996,
                    "velocity": 0.3858267716535433,
                    "duration": 0.13888887499999925
                },
                {
                    "name": "E3",
                    "midi": 52,
                    "time": 48.47221737499996,
                    "velocity": 0.3858267716535433,
                    "duration": 0.8333332500000026
                },
                {
                    "name": "G#3",
                    "midi": 56,
                    "time": 48.47221737499996,
                    "velocity": 0.3858267716535433,
                    "duration": 0.8333332500000026
                },
                {
                    "name": "E3",
                    "midi": 52,
                    "time": 49.30555062499996,
                    "velocity": 0.3858267716535433,
                    "duration": 0.13888887499999925
                },
                {
                    "name": "G#3",
                    "midi": 56,
                    "time": 49.30555062499996,
                    "velocity": 0.3858267716535433,
                    "duration": 0.13888887499999925
                },
                {
                    "name": "G3",
                    "midi": 55,
                    "time": 49.44443949999996,
                    "velocity": 0.3858267716535433,
                    "duration": 0.13888887499999925
                },
                {
                    "name": "A#3",
                    "midi": 58,
                    "time": 49.44443949999996,
                    "velocity": 0.3858267716535433,
                    "duration": 0.13888887499999925
                },
                {
                    "name": "E3",
                    "midi": 52,
                    "time": 49.58332837499996,
                    "velocity": 0.3858267716535433,
                    "duration": 3.749999625000001
                },
                {
                    "name": "G#3",
                    "midi": 56,
                    "time": 49.58332837499996,
                    "velocity": 0.3858267716535433,
                    "duration": 3.749999625000001
                },
                {
                    "name": "G#3",
                    "midi": 56,
                    "time": 53.33332799999996,
                    "velocity": 0.3858267716535433,
                    "duration": 0.555555499999997
                },
                {
                    "name": "E3",
                    "midi": 52,
                    "time": 53.888883499999956,
                    "velocity": 0.3858267716535433,
                    "duration": 0.555555499999997
                },
                {
                    "name": "D#3",
                    "midi": 51,
                    "time": 54.44443899999995,
                    "velocity": 0.3858267716535433,
                    "duration": 0.555555499999997
                },
                {
                    "name": "D3",
                    "midi": 50,
                    "time": 54.99999449999995,
                    "velocity": 0.3858267716535433,
                    "duration": 0.555555499999997
                },
                {
                    "name": "F3",
                    "midi": 53,
                    "time": 55.55554999999995,
                    "velocity": 0.3858267716535433,
                    "duration": 0.555555499999997
                },
                {
                    "name": "G3",
                    "midi": 55,
                    "time": 56.111105499999944,
                    "velocity": 0.3858267716535433,
                    "duration": 0.555555499999997
                },
                {
                    "name": "G#3",
                    "midi": 56,
                    "time": 56.66666099999994,
                    "velocity": 0.3858267716535433,
                    "duration": 0.41666662499999774
                },
                {
                    "name": "G3",
                    "midi": 55,
                    "time": 57.08332762499994,
                    "velocity": 0.3858267716535433,
                    "duration": 0.13888887499999925
                },
                {
                    "name": "A#3",
                    "midi": 58,
                    "time": 57.08332762499994,
                    "velocity": 0.3858267716535433,
                    "duration": 0.13888887499999925
                },
                {
                    "name": "A3",
                    "midi": 57,
                    "time": 57.22221649999994,
                    "velocity": 0.3858267716535433,
                    "duration": 0.13888887499999925
                },
                {
                    "name": "C#4",
                    "midi": 61,
                    "time": 57.22221649999994,
                    "velocity": 0.3858267716535433,
                    "duration": 0.13888887499999925
                },
                {
                    "name": "G3",
                    "midi": 55,
                    "time": 57.36110537499994,
                    "velocity": 0.3858267716535433,
                    "duration": 0.41666662499999774
                },
                {
                    "name": "A#3",
                    "midi": 58,
                    "time": 57.36110537499994,
                    "velocity": 0.3858267716535433,
                    "duration": 0.41666662499999774
                },
                {
                    "name": "A3",
                    "midi": 57,
                    "time": 57.777771999999935,
                    "velocity": 0.3858267716535433,
                    "duration": 0.13888887499999925
                },
                {
                    "name": "C#4",
                    "midi": 61,
                    "time": 57.777771999999935,
                    "velocity": 0.3858267716535433,
                    "duration": 0.13888887499999925
                },
                {
                    "name": "G3",
                    "midi": 55,
                    "time": 57.916660874999934,
                    "velocity": 0.3858267716535433,
                    "duration": 0.8333332500000026
                },
                {
                    "name": "A#3",
                    "midi": 58,
                    "time": 57.916660874999934,
                    "velocity": 0.3858267716535433,
                    "duration": 0.8333332500000026
                },
                {
                    "name": "G3",
                    "midi": 55,
                    "time": 58.74999412499994,
                    "velocity": 0.3858267716535433,
                    "duration": 0.13888887499999925
                },
                {
                    "name": "A#3",
                    "midi": 58,
                    "time": 58.74999412499994,
                    "velocity": 0.3858267716535433,
                    "duration": 0.13888887499999925
                },
                {
                    "name": "A3",
                    "midi": 57,
                    "time": 58.888882999999936,
                    "velocity": 0.3858267716535433,
                    "duration": 0.13888887499999925
                },
                {
                    "name": "C#4",
                    "midi": 61,
                    "time": 58.888882999999936,
                    "velocity": 0.3858267716535433,
                    "duration": 0.13888887499999925
                },
                {
                    "name": "G3",
                    "midi": 55,
                    "time": 59.027771874999935,
                    "velocity": 0.3858267716535433,
                    "duration": 0.8333332500000026
                },
                {
                    "name": "A#3",
                    "midi": 58,
                    "time": 59.027771874999935,
                    "velocity": 0.3858267716535433,
                    "duration": 0.8333332500000026
                },
                {
                    "name": "G3",
                    "midi": 55,
                    "time": 59.86110512499994,
                    "velocity": 0.3858267716535433,
                    "duration": 0.13888887499999925
                },
                {
                    "name": "A#3",
                    "midi": 58,
                    "time": 59.86110512499994,
                    "velocity": 0.3858267716535433,
                    "duration": 0.13888887499999925
                },
                {
                    "name": "A3",
                    "midi": 57,
                    "time": 59.99999399999994,
                    "velocity": 0.3858267716535433,
                    "duration": 0.41666662499999774
                },
                {
                    "name": "C#4",
                    "midi": 61,
                    "time": 59.99999399999994,
                    "velocity": 0.3858267716535433,
                    "duration": 0.41666662499999774
                },
                {
                    "name": "A3",
                    "midi": 57,
                    "time": 60.416660624999935,
                    "velocity": 0.3858267716535433,
                    "duration": 0.13888887499999925
                },
                {
                    "name": "C#4",
                    "midi": 61,
                    "time": 60.416660624999935,
                    "velocity": 0.3858267716535433,
                    "duration": 0.13888887499999925
                },
                {
                    "name": "C4",
                    "midi": 60,
                    "time": 60.555549499999934,
                    "velocity": 0.3858267716535433,
                    "duration": 0.13888887499999925
                },
                {
                    "name": "D#4",
                    "midi": 63,
                    "time": 60.555549499999934,
                    "velocity": 0.3858267716535433,
                    "duration": 0.13888887499999925
                },
                {
                    "name": "C#4",
                    "midi": 61,
                    "time": 60.69443837499993,
                    "velocity": 0.4881889763779528,
                    "duration": 0.8333332500000026
                },
                {
                    "name": "F#4",
                    "midi": 66,
                    "time": 60.69443837499993,
                    "velocity": 0.4881889763779528,
                    "duration": 0.8333332500000026
                },
                {
                    "name": "C#4",
                    "midi": 61,
                    "time": 61.527771624999936,
                    "velocity": 0.4881889763779528,
                    "duration": 0.13888887499999925
                },
                {
                    "name": "F#4",
                    "midi": 66,
                    "time": 61.527771624999936,
                    "velocity": 0.4881889763779528,
                    "duration": 0.13888887499999925
                },
                {
                    "name": "F4",
                    "midi": 65,
                    "time": 61.666660499999935,
                    "velocity": 0.4881889763779528,
                    "duration": 0.13888887499999925
                },
                {
                    "name": "G#4",
                    "midi": 68,
                    "time": 61.666660499999935,
                    "velocity": 0.4881889763779528,
                    "duration": 0.13888887499999925
                },
                {
                    "name": "G4",
                    "midi": 67,
                    "time": 61.805549374999934,
                    "velocity": 0.4881889763779528,
                    "duration": 0.8333332500000026
                },
                {
                    "name": "B4",
                    "midi": 71,
                    "time": 61.805549374999934,
                    "velocity": 0.4881889763779528,
                    "duration": 0.8333332500000026
                },
                {
                    "name": "G4",
                    "midi": 67,
                    "time": 62.63888262499994,
                    "velocity": 0.4881889763779528,
                    "duration": 0.13888887499999925
                },
                {
                    "name": "B4",
                    "midi": 71,
                    "time": 62.63888262499994,
                    "velocity": 0.4881889763779528,
                    "duration": 0.13888887499999925
                },
                {
                    "name": "A#4",
                    "midi": 70,
                    "time": 62.777771499999936,
                    "velocity": 0.4881889763779528,
                    "duration": 0.13888887499999925
                },
                {
                    "name": "C#5",
                    "midi": 73,
                    "time": 62.777771499999936,
                    "velocity": 0.4881889763779528,
                    "duration": 0.13888887499999925
                },
                {
                    "name": "C5",
                    "midi": 72,
                    "time": 62.916660374999935,
                    "velocity": 0.4881889763779528,
                    "duration": 0.8333332500000026
                },
                {
                    "name": "E5",
                    "midi": 76,
                    "time": 62.916660374999935,
                    "velocity": 0.4881889763779528,
                    "duration": 0.8333332500000026
                },
                {
                    "name": "C5",
                    "midi": 72,
                    "time": 63.74999362499994,
                    "velocity": 0.4881889763779528,
                    "duration": 0.13888887499999925
                },
                {
                    "name": "E5",
                    "midi": 76,
                    "time": 63.74999362499994,
                    "velocity": 0.4881889763779528,
                    "duration": 0.13888887499999925
                },
                {
                    "name": "A#4",
                    "midi": 70,
                    "time": 63.88888249999994,
                    "velocity": 0.4881889763779528,
                    "duration": 0.13888887500000635
                },
                {
                    "name": "C#5",
                    "midi": 73,
                    "time": 63.88888249999994,
                    "velocity": 0.4881889763779528,
                    "duration": 0.13888887500000635
                },
                {
                    "name": "G4",
                    "midi": 67,
                    "time": 64.02777137499994,
                    "velocity": 0.4881889763779528,
                    "duration": 0.8333332499999955
                },
                {
                    "name": "B4",
                    "midi": 71,
                    "time": 64.02777137499994,
                    "velocity": 0.4881889763779528,
                    "duration": 0.8333332499999955
                },
                {
                    "name": "G4",
                    "midi": 67,
                    "time": 64.86110462499994,
                    "velocity": 0.4881889763779528,
                    "duration": 0.13888887500000635
                },
                {
                    "name": "B4",
                    "midi": 71,
                    "time": 64.86110462499994,
                    "velocity": 0.4881889763779528,
                    "duration": 0.13888887500000635
                },
                {
                    "name": "F4",
                    "midi": 65,
                    "time": 64.99999349999995,
                    "velocity": 0.4881889763779528,
                    "duration": 0.13888887500000635
                },
                {
                    "name": "G#4",
                    "midi": 68,
                    "time": 64.99999349999995,
                    "velocity": 0.4881889763779528,
                    "duration": 0.13888887500000635
                },
                {
                    "name": "G4",
                    "midi": 67,
                    "time": 65.13888237499995,
                    "velocity": 0.4881889763779528,
                    "duration": 0.8333332499999955
                },
                {
                    "name": "B4",
                    "midi": 71,
                    "time": 65.13888237499995,
                    "velocity": 0.4881889763779528,
                    "duration": 0.8333332499999955
                },
                {
                    "name": "G4",
                    "midi": 67,
                    "time": 65.97221562499995,
                    "velocity": 0.4881889763779528,
                    "duration": 0.13888887500000635
                },
                {
                    "name": "B4",
                    "midi": 71,
                    "time": 65.97221562499995,
                    "velocity": 0.4881889763779528,
                    "duration": 0.13888887500000635
                },
                {
                    "name": "A#4",
                    "midi": 70,
                    "time": 66.11110449999995,
                    "velocity": 0.4881889763779528,
                    "duration": 0.13888887500000635
                },
                {
                    "name": "C#5",
                    "midi": 73,
                    "time": 66.11110449999995,
                    "velocity": 0.4881889763779528,
                    "duration": 0.13888887500000635
                },
                {
                    "name": "C5",
                    "midi": 72,
                    "time": 66.24999337499996,
                    "velocity": 0.4881889763779528,
                    "duration": 0.8333332499999955
                },
                {
                    "name": "E5",
                    "midi": 76,
                    "time": 66.24999337499996,
                    "velocity": 0.4881889763779528,
                    "duration": 0.8333332499999955
                },
                {
                    "name": "C5",
                    "midi": 72,
                    "time": 67.08332662499996,
                    "velocity": 0.4881889763779528,
                    "duration": 0.13888887500000635
                },
                {
                    "name": "E5",
                    "midi": 76,
                    "time": 67.08332662499996,
                    "velocity": 0.4881889763779528,
                    "duration": 0.13888887500000635
                },
                {
                    "name": "A#4",
                    "midi": 70,
                    "time": 67.22221549999996,
                    "velocity": 0.4881889763779528,
                    "duration": 0.13888887500000635
                },
                {
                    "name": "C#5",
                    "midi": 73,
                    "time": 67.22221549999996,
                    "velocity": 0.4881889763779528,
                    "duration": 0.13888887500000635
                },
                {
                    "name": "C5",
                    "midi": 72,
                    "time": 67.36110437499997,
                    "velocity": 0.4881889763779528,
                    "duration": 0.8333332499999955
                },
                {
                    "name": "E5",
                    "midi": 76,
                    "time": 67.36110437499997,
                    "velocity": 0.4881889763779528,
                    "duration": 0.8333332499999955
                },
                {
                    "name": "C5",
                    "midi": 72,
                    "time": 68.19443762499996,
                    "velocity": 0.4881889763779528,
                    "duration": 0.13888887500000635
                },
                {
                    "name": "E5",
                    "midi": 76,
                    "time": 68.19443762499996,
                    "velocity": 0.4881889763779528,
                    "duration": 0.13888887500000635
                },
                {
                    "name": "A#4",
                    "midi": 70,
                    "time": 68.33332649999997,
                    "velocity": 0.4881889763779528,
                    "duration": 0.13888887500000635
                },
                {
                    "name": "C#5",
                    "midi": 73,
                    "time": 68.33332649999997,
                    "velocity": 0.4881889763779528,
                    "duration": 0.13888887500000635
                },
                {
                    "name": "C5",
                    "midi": 72,
                    "time": 68.47221537499998,
                    "velocity": 0.4881889763779528,
                    "duration": 0.8333332499999955
                },
                {
                    "name": "E5",
                    "midi": 76,
                    "time": 68.47221537499998,
                    "velocity": 0.4881889763779528,
                    "duration": 0.8333332499999955
                },
                {
                    "name": "C5",
                    "midi": 72,
                    "time": 69.30554862499997,
                    "velocity": 0.4881889763779528,
                    "duration": 0.13888887500000635
                },
                {
                    "name": "E5",
                    "midi": 76,
                    "time": 69.30554862499997,
                    "velocity": 0.4881889763779528,
                    "duration": 0.13888887500000635
                },
                {
                    "name": "A#4",
                    "midi": 70,
                    "time": 69.44443749999998,
                    "velocity": 0.4881889763779528,
                    "duration": 0.13888887500000635
                },
                {
                    "name": "C#5",
                    "midi": 73,
                    "time": 69.44443749999998,
                    "velocity": 0.4881889763779528,
                    "duration": 0.13888887500000635
                },
                {
                    "name": "C5",
                    "midi": 72,
                    "time": 69.58332637499998,
                    "velocity": 0.4881889763779528,
                    "duration": 0.6944443750000033
                },
                {
                    "name": "E5",
                    "midi": 76,
                    "time": 69.58332637499998,
                    "velocity": 0.4881889763779528,
                    "duration": 0.6944443750000033
                },
                {
                    "name": "A#4",
                    "midi": 70,
                    "time": 70.27777074999999,
                    "velocity": 0.4881889763779528,
                    "duration": 0.13888887500000635
                },
                {
                    "name": "C#5",
                    "midi": 73,
                    "time": 70.27777074999999,
                    "velocity": 0.4881889763779528,
                    "duration": 0.13888887500000635
                },
                {
                    "name": "C5",
                    "midi": 72,
                    "time": 70.416659625,
                    "velocity": 0.4881889763779528,
                    "duration": 0.13888887500000635
                },
                {
                    "name": "E5",
                    "midi": 76,
                    "time": 70.416659625,
                    "velocity": 0.4881889763779528,
                    "duration": 0.13888887500000635
                },
                {
                    "name": "C5",
                    "midi": 72,
                    "time": 70.5555485,
                    "velocity": 0.4881889763779528,
                    "duration": 0.2777777499999985
                },
                {
                    "name": "E5",
                    "midi": 76,
                    "time": 70.5555485,
                    "velocity": 0.4881889763779528,
                    "duration": 0.2777777499999985
                },
                {
                    "name": "A#4",
                    "midi": 70,
                    "time": 70.83332625,
                    "velocity": 0.4881889763779528,
                    "duration": 0.13888887500000635
                },
                {
                    "name": "C#5",
                    "midi": 73,
                    "time": 70.83332625,
                    "velocity": 0.4881889763779528,
                    "duration": 0.13888887500000635
                },
                {
                    "name": "C5",
                    "midi": 72,
                    "time": 70.972215125,
                    "velocity": 0.4881889763779528,
                    "duration": 0.13888887500000635
                },
                {
                    "name": "E5",
                    "midi": 76,
                    "time": 70.972215125,
                    "velocity": 0.4881889763779528,
                    "duration": 0.13888887500000635
                },
                {
                    "name": "C5",
                    "midi": 72,
                    "time": 71.11110400000001,
                    "velocity": 0.4881889763779528,
                    "duration": 0.2777777499999985
                },
                {
                    "name": "E5",
                    "midi": 76,
                    "time": 71.11110400000001,
                    "velocity": 0.4881889763779528,
                    "duration": 0.2777777499999985
                },
                {
                    "name": "A#4",
                    "midi": 70,
                    "time": 71.38888175000001,
                    "velocity": 0.4881889763779528,
                    "duration": 0.13888887500000635
                },
                {
                    "name": "C#5",
                    "midi": 73,
                    "time": 71.38888175000001,
                    "velocity": 0.4881889763779528,
                    "duration": 0.13888887500000635
                },
                {
                    "name": "C5",
                    "midi": 72,
                    "time": 71.52777062500002,
                    "velocity": 0.4881889763779528,
                    "duration": 0.13888887500000635
                },
                {
                    "name": "E5",
                    "midi": 76,
                    "time": 71.52777062500002,
                    "velocity": 0.4881889763779528,
                    "duration": 0.13888887500000635
                },
                {
                    "name": "F#4",
                    "midi": 66,
                    "time": 71.66665950000002,
                    "velocity": 0.4881889763779528,
                    "duration": 0.13888887500000635
                },
                {
                    "name": "A#4",
                    "midi": 70,
                    "time": 71.66665950000002,
                    "velocity": 0.4881889763779528,
                    "duration": 0.13888887500000635
                },
                {
                    "name": "C#5",
                    "midi": 73,
                    "time": 71.66665950000002,
                    "velocity": 0.4881889763779528,
                    "duration": 0.13888887500000635
                },
                {
                    "name": "E4",
                    "midi": 64,
                    "time": 71.80554837500003,
                    "velocity": 0.4881889763779528,
                    "duration": 0.13888887500000635
                },
                {
                    "name": "G4",
                    "midi": 67,
                    "time": 71.80554837500003,
                    "velocity": 0.4881889763779528,
                    "duration": 0.13888887500000635
                },
                {
                    "name": "C5",
                    "midi": 72,
                    "time": 71.80554837500003,
                    "velocity": 0.4881889763779528,
                    "duration": 0.13888887500000635
                },
                {
                    "name": "E5",
                    "midi": 76,
                    "time": 71.80554837500003,
                    "velocity": 0.4881889763779528,
                    "duration": 0.13888887500000635
                },
                {
                    "name": "F#4",
                    "midi": 66,
                    "time": 71.94443725000004,
                    "velocity": 0.4881889763779528,
                    "duration": 0.13888887500000635
                },
                {
                    "name": "A#4",
                    "midi": 70,
                    "time": 71.94443725000004,
                    "velocity": 0.4881889763779528,
                    "duration": 0.13888887500000635
                },
                {
                    "name": "C#5",
                    "midi": 73,
                    "time": 71.94443725000004,
                    "velocity": 0.4881889763779528,
                    "duration": 0.13888887500000635
                },
                {
                    "name": "E4",
                    "midi": 64,
                    "time": 72.08332612500004,
                    "velocity": 0.4881889763779528,
                    "duration": 0.13888887500000635
                },
                {
                    "name": "G4",
                    "midi": 67,
                    "time": 72.08332612500004,
                    "velocity": 0.4881889763779528,
                    "duration": 0.13888887500000635
                },
                {
                    "name": "C5",
                    "midi": 72,
                    "time": 72.08332612500004,
                    "velocity": 0.4881889763779528,
                    "duration": 0.13888887500000635
                },
                {
                    "name": "E5",
                    "midi": 76,
                    "time": 72.08332612500004,
                    "velocity": 0.4881889763779528,
                    "duration": 0.13888887500000635
                },
                {
                    "name": "F#4",
                    "midi": 66,
                    "time": 72.22221500000005,
                    "velocity": 0.4881889763779528,
                    "duration": 0.13888887500000635
                },
                {
                    "name": "A#4",
                    "midi": 70,
                    "time": 72.22221500000005,
                    "velocity": 0.4881889763779528,
                    "duration": 0.13888887500000635
                },
                {
                    "name": "C#5",
                    "midi": 73,
                    "time": 72.22221500000005,
                    "velocity": 0.4881889763779528,
                    "duration": 0.13888887500000635
                },
                {
                    "name": "E4",
                    "midi": 64,
                    "time": 72.36110387500005,
                    "velocity": 0.4881889763779528,
                    "duration": 0.13888887500000635
                },
                {
                    "name": "G4",
                    "midi": 67,
                    "time": 72.36110387500005,
                    "velocity": 0.4881889763779528,
                    "duration": 0.13888887500000635
                },
                {
                    "name": "C5",
                    "midi": 72,
                    "time": 72.36110387500005,
                    "velocity": 0.4881889763779528,
                    "duration": 0.13888887500000635
                },
                {
                    "name": "E5",
                    "midi": 76,
                    "time": 72.36110387500005,
                    "velocity": 0.4881889763779528,
                    "duration": 0.13888887500000635
                },
                {
                    "name": "F#4",
                    "midi": 66,
                    "time": 72.49999275000006,
                    "velocity": 0.4881889763779528,
                    "duration": 0.13888887500000635
                },
                {
                    "name": "A#4",
                    "midi": 70,
                    "time": 72.49999275000006,
                    "velocity": 0.4881889763779528,
                    "duration": 0.13888887500000635
                },
                {
                    "name": "C#5",
                    "midi": 73,
                    "time": 72.49999275000006,
                    "velocity": 0.4881889763779528,
                    "duration": 0.13888887500000635
                },
                {
                    "name": "E4",
                    "midi": 64,
                    "time": 72.63888162500007,
                    "velocity": 0.4881889763779528,
                    "duration": 0.13888887500000635
                },
                {
                    "name": "G4",
                    "midi": 67,
                    "time": 72.63888162500007,
                    "velocity": 0.4881889763779528,
                    "duration": 0.13888887500000635
                },
                {
                    "name": "C5",
                    "midi": 72,
                    "time": 72.63888162500007,
                    "velocity": 0.4881889763779528,
                    "duration": 0.13888887500000635
                },
                {
                    "name": "E5",
                    "midi": 76,
                    "time": 72.63888162500007,
                    "velocity": 0.4881889763779528,
                    "duration": 0.13888887500000635
                },
                {
                    "name": "F#4",
                    "midi": 66,
                    "time": 72.77777050000007,
                    "velocity": 0.4881889763779528,
                    "duration": 0.13888887500000635
                },
                {
                    "name": "A#4",
                    "midi": 70,
                    "time": 72.77777050000007,
                    "velocity": 0.4881889763779528,
                    "duration": 0.13888887500000635
                },
                {
                    "name": "C#5",
                    "midi": 73,
                    "time": 72.77777050000007,
                    "velocity": 0.4881889763779528,
                    "duration": 0.13888887500000635
                },
                {
                    "name": "E4",
                    "midi": 64,
                    "time": 72.91665937500008,
                    "velocity": 0.4881889763779528,
                    "duration": 0.13888887500000635
                },
                {
                    "name": "G4",
                    "midi": 67,
                    "time": 72.91665937500008,
                    "velocity": 0.4881889763779528,
                    "duration": 0.13888887500000635
                },
                {
                    "name": "C5",
                    "midi": 72,
                    "time": 72.91665937500008,
                    "velocity": 0.4881889763779528,
                    "duration": 0.13888887500000635
                },
                {
                    "name": "E5",
                    "midi": 76,
                    "time": 72.91665937500008,
                    "velocity": 0.4881889763779528,
                    "duration": 0.13888887500000635
                },
                {
                    "name": "F#4",
                    "midi": 66,
                    "time": 73.05554825000009,
                    "velocity": 0.4881889763779528,
                    "duration": 0.13888887500000635
                },
                {
                    "name": "A#4",
                    "midi": 70,
                    "time": 73.05554825000009,
                    "velocity": 0.4881889763779528,
                    "duration": 0.13888887500000635
                },
                {
                    "name": "C#5",
                    "midi": 73,
                    "time": 73.05554825000009,
                    "velocity": 0.4881889763779528,
                    "duration": 0.13888887500000635
                },
                {
                    "name": "E4",
                    "midi": 64,
                    "time": 73.19443712500009,
                    "velocity": 0.4881889763779528,
                    "duration": 0.13888887500000635
                },
                {
                    "name": "G4",
                    "midi": 67,
                    "time": 73.19443712500009,
                    "velocity": 0.4881889763779528,
                    "duration": 0.13888887500000635
                },
                {
                    "name": "C5",
                    "midi": 72,
                    "time": 73.19443712500009,
                    "velocity": 0.4881889763779528,
                    "duration": 0.13888887500000635
                },
                {
                    "name": "E5",
                    "midi": 76,
                    "time": 73.19443712500009,
                    "velocity": 0.4881889763779528,
                    "duration": 0.13888887500000635
                },
                {
                    "name": "F#4",
                    "midi": 66,
                    "time": 73.3333260000001,
                    "velocity": 0.5905511811023622,
                    "duration": 0.13888887500000635
                },
                {
                    "name": "F#5",
                    "midi": 78,
                    "time": 73.4722148750001,
                    "velocity": 0.5905511811023622,
                    "duration": 0.13888887500000635
                },
                {
                    "name": "F#4",
                    "midi": 66,
                    "time": 73.61110375000011,
                    "velocity": 0.5905511811023622,
                    "duration": 0.13888887500000635
                },
                {
                    "name": "F#5",
                    "midi": 78,
                    "time": 73.74999262500012,
                    "velocity": 0.5905511811023622,
                    "duration": 0.13888887500000635
                },
                {
                    "name": "F#4",
                    "midi": 66,
                    "time": 73.88888150000012,
                    "velocity": 0.6929133858267716,
                    "duration": 0.13888887500000635
                },
                {
                    "name": "F#5",
                    "midi": 78,
                    "time": 74.02777037500013,
                    "velocity": 0.6929133858267716,
                    "duration": 0.13888887500000635
                },
                {
                    "name": "F#4",
                    "midi": 66,
                    "time": 74.16665925000014,
                    "velocity": 0.6929133858267716,
                    "duration": 0.13888887500000635
                },
                {
                    "name": "F#5",
                    "midi": 78,
                    "time": 74.30554812500014,
                    "velocity": 0.6929133858267716,
                    "duration": 0.13888887500000635
                },
                {
                    "name": "F#4",
                    "midi": 66,
                    "time": 74.44443700000015,
                    "velocity": 0.5905511811023622,
                    "duration": 0.13888887500000635
                },
                {
                    "name": "F#5",
                    "midi": 78,
                    "time": 74.58332587500016,
                    "velocity": 0.5905511811023622,
                    "duration": 0.13888887500000635
                },
                {
                    "name": "F#4",
                    "midi": 66,
                    "time": 74.72221475000016,
                    "velocity": 0.5905511811023622,
                    "duration": 0.13888887500000635
                },
                {
                    "name": "F#5",
                    "midi": 78,
                    "time": 74.86110362500017,
                    "velocity": 0.5905511811023622,
                    "duration": 0.13888887500000635
                },
                {
                    "name": "D6",
                    "midi": 86,
                    "time": 80.55554750000017,
                    "velocity": 0.3858267716535433,
                    "duration": 0.13888887500000635
                },
                {
                    "name": "A6",
                    "midi": 93,
                    "time": 80.69443637500018,
                    "velocity": 0.3858267716535433,
                    "duration": 0.13888887500000635
                },
                {
                    "name": "D7",
                    "midi": 98,
                    "time": 80.83332525000019,
                    "velocity": 0.3858267716535433,
                    "duration": 0.13888887500000635
                },
                {
                    "name": "F#7",
                    "midi": 102,
                    "time": 80.97221412500019,
                    "velocity": 0.3858267716535433,
                    "duration": 0.13888887500000635
                },
                {
                    "name": "A7",
                    "midi": 105,
                    "time": 81.1111030000002,
                    "velocity": 0.3858267716535433,
                    "duration": 0.13888887500000635
                },
                {
                    "name": "F#7",
                    "midi": 102,
                    "time": 81.2499918750002,
                    "velocity": 0.3858267716535433,
                    "duration": 0.13888887500000635
                },
                {
                    "name": "D7",
                    "midi": 98,
                    "time": 81.38888075000021,
                    "velocity": 0.3858267716535433,
                    "duration": 0.13888887500000635
                },
                {
                    "name": "A6",
                    "midi": 93,
                    "time": 81.52776962500022,
                    "velocity": 0.3858267716535433,
                    "duration": 0.13888887500000635
                },
                {
                    "name": "D6",
                    "midi": 86,
                    "time": 81.66665850000022,
                    "velocity": 0.3858267716535433,
                    "duration": 0.13888887500000635
                },
                {
                    "name": "A6",
                    "midi": 93,
                    "time": 81.80554737500023,
                    "velocity": 0.3858267716535433,
                    "duration": 0.13888887500000635
                },
                {
                    "name": "D7",
                    "midi": 98,
                    "time": 81.94443625000024,
                    "velocity": 0.3858267716535433,
                    "duration": 0.13888887500000635
                },
                {
                    "name": "F#7",
                    "midi": 102,
                    "time": 82.08332512500024,
                    "velocity": 0.3858267716535433,
                    "duration": 0.13888887500000635
                },
                {
                    "name": "A7",
                    "midi": 105,
                    "time": 82.22221400000025,
                    "velocity": 0.3858267716535433,
                    "duration": 0.13888887500000635
                },
                {
                    "name": "F#7",
                    "midi": 102,
                    "time": 82.36110287500026,
                    "velocity": 0.3858267716535433,
                    "duration": 0.13888887500000635
                },
                {
                    "name": "D7",
                    "midi": 98,
                    "time": 82.49999175000026,
                    "velocity": 0.3858267716535433,
                    "duration": 0.13888887500000635
                },
                {
                    "name": "A6",
                    "midi": 93,
                    "time": 82.63888062500027,
                    "velocity": 0.3858267716535433,
                    "duration": 0.13888887500000635
                },
                {
                    "name": "D6",
                    "midi": 86,
                    "time": 82.77776950000028,
                    "velocity": 0.3858267716535433,
                    "duration": 0.13888887500000635
                },
                {
                    "name": "A6",
                    "midi": 93,
                    "time": 82.91665837500028,
                    "velocity": 0.3858267716535433,
                    "duration": 0.13888887500000635
                },
                {
                    "name": "D7",
                    "midi": 98,
                    "time": 83.05554725000029,
                    "velocity": 0.3858267716535433,
                    "duration": 0.13888887500000635
                },
                {
                    "name": "F#7",
                    "midi": 102,
                    "time": 83.1944361250003,
                    "velocity": 0.3858267716535433,
                    "duration": 0.13888887500000635
                },
                {
                    "name": "A7",
                    "midi": 105,
                    "time": 83.3333250000003,
                    "velocity": 0.3858267716535433,
                    "duration": 0.13888887500000635
                },
                {
                    "name": "F#7",
                    "midi": 102,
                    "time": 83.4722138750003,
                    "velocity": 0.3858267716535433,
                    "duration": 0.13888887500000635
                },
                {
                    "name": "D7",
                    "midi": 98,
                    "time": 83.61110275000031,
                    "velocity": 0.3858267716535433,
                    "duration": 0.13888887500000635
                },
                {
                    "name": "A6",
                    "midi": 93,
                    "time": 83.74999162500032,
                    "velocity": 0.3858267716535433,
                    "duration": 0.13888887500000635
                },
                {
                    "name": "D6",
                    "midi": 86,
                    "time": 83.88888050000033,
                    "velocity": 0.3858267716535433,
                    "duration": 0.13888887500000635
                },
                {
                    "name": "A6",
                    "midi": 93,
                    "time": 84.02776937500033,
                    "velocity": 0.3858267716535433,
                    "duration": 0.13888887500000635
                },
                {
                    "name": "D7",
                    "midi": 98,
                    "time": 84.16665825000034,
                    "velocity": 0.3858267716535433,
                    "duration": 0.13888887500000635
                },
                {
                    "name": "F#7",
                    "midi": 102,
                    "time": 84.30554712500034,
                    "velocity": 0.3858267716535433,
                    "duration": 0.13888887500000635
                },
                {
                    "name": "A7",
                    "midi": 105,
                    "time": 84.44443600000035,
                    "velocity": 0.3858267716535433,
                    "duration": 0.13888887500000635
                },
                {
                    "name": "F#7",
                    "midi": 102,
                    "time": 84.58332487500036,
                    "velocity": 0.3858267716535433,
                    "duration": 0.13888887500000635
                },
                {
                    "name": "D7",
                    "midi": 98,
                    "time": 84.72221375000036,
                    "velocity": 0.3858267716535433,
                    "duration": 0.13888887500000635
                },
                {
                    "name": "A6",
                    "midi": 93,
                    "time": 84.86110262500037,
                    "velocity": 0.3858267716535433,
                    "duration": 0.13888887500000635
                },
                {
                    "name": "D6",
                    "midi": 86,
                    "time": 84.99999150000038,
                    "velocity": 0.3858267716535433,
                    "duration": 0.13888887500000635
                },
                {
                    "name": "A6",
                    "midi": 93,
                    "time": 85.13888037500038,
                    "velocity": 0.3858267716535433,
                    "duration": 0.13888887500000635
                },
                {
                    "name": "D7",
                    "midi": 98,
                    "time": 85.27776925000039,
                    "velocity": 0.3858267716535433,
                    "duration": 0.13888887500000635
                },
                {
                    "name": "F#7",
                    "midi": 102,
                    "time": 85.4166581250004,
                    "velocity": 0.3858267716535433,
                    "duration": 0.13888887500000635
                },
                {
                    "name": "A7",
                    "midi": 105,
                    "time": 85.5555470000004,
                    "velocity": 0.3858267716535433,
                    "duration": 0.13888887500000635
                },
                {
                    "name": "F#7",
                    "midi": 102,
                    "time": 85.69443587500041,
                    "velocity": 0.3858267716535433,
                    "duration": 0.13888887500000635
                },
                {
                    "name": "D7",
                    "midi": 98,
                    "time": 85.83332475000041,
                    "velocity": 0.3858267716535433,
                    "duration": 0.13888887500000635
                },
                {
                    "name": "A6",
                    "midi": 93,
                    "time": 85.97221362500042,
                    "velocity": 0.3858267716535433,
                    "duration": 0.13888887500000635
                },
                {
                    "name": "D6",
                    "midi": 86,
                    "time": 86.11110250000043,
                    "velocity": 0.3858267716535433,
                    "duration": 0.13888887500000635
                },
                {
                    "name": "A6",
                    "midi": 93,
                    "time": 86.24999137500043,
                    "velocity": 0.3858267716535433,
                    "duration": 0.13888887500000635
                },
                {
                    "name": "D7",
                    "midi": 98,
                    "time": 86.38888025000044,
                    "velocity": 0.3858267716535433,
                    "duration": 0.13888887500000635
                },
                {
                    "name": "F#7",
                    "midi": 102,
                    "time": 86.52776912500045,
                    "velocity": 0.3858267716535433,
                    "duration": 0.13888887500000635
                },
                {
                    "name": "A7",
                    "midi": 105,
                    "time": 86.66665800000045,
                    "velocity": 0.3858267716535433,
                    "duration": 0.555555499999997
                },
                {
                    "name": "C5",
                    "midi": 72,
                    "time": 89.99999100000045,
                    "velocity": 0.3858267716535433,
                    "duration": 0.13888887500000635
                },
                {
                    "name": "A4",
                    "midi": 69,
                    "time": 90.13887987500046,
                    "velocity": 0.3858267716535433,
                    "duration": 0.13888887500000635
                },
                {
                    "name": "C5",
                    "midi": 72,
                    "time": 90.27776875000046,
                    "velocity": 0.3858267716535433,
                    "duration": 0.13888887500000635
                },
                {
                    "name": "A4",
                    "midi": 69,
                    "time": 90.41665762500047,
                    "velocity": 0.3858267716535433,
                    "duration": 0.13888887500000635
                },
                {
                    "name": "C5",
                    "midi": 72,
                    "time": 90.55554650000047,
                    "velocity": 0.3858267716535433,
                    "duration": 0.13888887500000635
                },
                {
                    "name": "A4",
                    "midi": 69,
                    "time": 90.69443537500048,
                    "velocity": 0.3858267716535433,
                    "duration": 0.13888887500000635
                },
                {
                    "name": "C5",
                    "midi": 72,
                    "time": 90.83332425000049,
                    "velocity": 0.3858267716535433,
                    "duration": 0.13888887500000635
                },
                {
                    "name": "A4",
                    "midi": 69,
                    "time": 90.9722131250005,
                    "velocity": 0.3858267716535433,
                    "duration": 0.13888887500000635
                },
                {
                    "name": "C5",
                    "midi": 72,
                    "time": 91.1111020000005,
                    "velocity": 0.3858267716535433,
                    "duration": 0.13888887500000635
                },
                {
                    "name": "A4",
                    "midi": 69,
                    "time": 91.2499908750005,
                    "velocity": 0.3858267716535433,
                    "duration": 0.13888887500000635
                },
                {
                    "name": "C5",
                    "midi": 72,
                    "time": 91.38887975000051,
                    "velocity": 0.3858267716535433,
                    "duration": 0.13888887500000635
                },
                {
                    "name": "A4",
                    "midi": 69,
                    "time": 91.52776862500052,
                    "velocity": 0.3858267716535433,
                    "duration": 0.13888887500000635
                },
                {
                    "name": "A#4",
                    "midi": 70,
                    "time": 91.66665750000053,
                    "velocity": 0.3858267716535433,
                    "duration": 0.13888887500000635
                },
                {
                    "name": "F#4",
                    "midi": 66,
                    "time": 91.80554637500053,
                    "velocity": 0.3858267716535433,
                    "duration": 0.13888887500000635
                },
                {
                    "name": "A#4",
                    "midi": 70,
                    "time": 91.94443525000054,
                    "velocity": 0.3858267716535433,
                    "duration": 0.13888887500000635
                },
                {
                    "name": "F#4",
                    "midi": 66,
                    "time": 92.08332412500054,
                    "velocity": 0.3858267716535433,
                    "duration": 0.13888887500000635
                },
                {
                    "name": "A#4",
                    "midi": 70,
                    "time": 92.22221300000055,
                    "velocity": 0.3858267716535433,
                    "duration": 0.13888887500000635
                },
                {
                    "name": "F#4",
                    "midi": 66,
                    "time": 92.36110187500056,
                    "velocity": 0.3858267716535433,
                    "duration": 0.13888887500000635
                },
                {
                    "name": "A#4",
                    "midi": 70,
                    "time": 92.49999075000056,
                    "velocity": 0.3858267716535433,
                    "duration": 0.13888887500000635
                },
                {
                    "name": "F#4",
                    "midi": 66,
                    "time": 92.63887962500057,
                    "velocity": 0.3858267716535433,
                    "duration": 0.13888887500000635
                },
                {
                    "name": "A#4",
                    "midi": 70,
                    "time": 92.77776850000058,
                    "velocity": 0.3858267716535433,
                    "duration": 0.13888887500000635
                },
                {
                    "name": "F#4",
                    "midi": 66,
                    "time": 92.91665737500058,
                    "velocity": 0.3858267716535433,
                    "duration": 0.13888887500000635
                },
                {
                    "name": "A#4",
                    "midi": 70,
                    "time": 93.05554625000059,
                    "velocity": 0.3858267716535433,
                    "duration": 0.13888887500000635
                },
                {
                    "name": "F#4",
                    "midi": 66,
                    "time": 93.1944351250006,
                    "velocity": 0.3858267716535433,
                    "duration": 0.13888887500000635
                },
                {
                    "name": "D#5",
                    "midi": 75,
                    "time": 93.3333240000006,
                    "velocity": 0.4881889763779528,
                    "duration": 0.555555499999997
                },
                {
                    "name": "F#5",
                    "midi": 78,
                    "time": 93.3333240000006,
                    "velocity": 0.4881889763779528,
                    "duration": 0.555555499999997
                },
                {
                    "name": "B4",
                    "midi": 71,
                    "time": 93.8888795000006,
                    "velocity": 0.4881889763779528,
                    "duration": 0.555555499999997
                },
                {
                    "name": "A#4",
                    "midi": 70,
                    "time": 94.4444350000006,
                    "velocity": 0.4881889763779528,
                    "duration": 0.555555499999997
                },
                {
                    "name": "A4",
                    "midi": 69,
                    "time": 94.99999050000059,
                    "velocity": 0.4881889763779528,
                    "duration": 0.555555499999997
                },
                {
                    "name": "C5",
                    "midi": 72,
                    "time": 95.55554600000059,
                    "velocity": 0.4881889763779528,
                    "duration": 0.555555499999997
                },
                {
                    "name": "D5",
                    "midi": 74,
                    "time": 96.11110150000059,
                    "velocity": 0.4881889763779528,
                    "duration": 0.555555499999997
                },
                {
                    "name": "D#4",
                    "midi": 63,
                    "time": 96.66665700000058,
                    "velocity": 0.4881889763779528,
                    "duration": 3.333332999999996
                },
                {
                    "name": "G4",
                    "midi": 67,
                    "time": 96.66665700000058,
                    "velocity": 0.4881889763779528,
                    "duration": 3.333332999999996
                },
                {
                    "name": "C5",
                    "midi": 72,
                    "time": 96.66665700000058,
                    "velocity": 0.4881889763779528,
                    "duration": 3.333332999999996
                },
                {
                    "name": "D#5",
                    "midi": 75,
                    "time": 96.66665700000058,
                    "velocity": 0.4881889763779528,
                    "duration": 3.333332999999996
                },
                {
                    "name": "D#4",
                    "midi": 63,
                    "time": 99.99999000000058,
                    "velocity": 0.4881889763779528,
                    "duration": 0.555555499999997
                },
                {
                    "name": "B4",
                    "midi": 71,
                    "time": 99.99999000000058,
                    "velocity": 0.4881889763779528,
                    "duration": 0.555555499999997
                },
                {
                    "name": "D#5",
                    "midi": 75,
                    "time": 99.99999000000058,
                    "velocity": 0.4881889763779528,
                    "duration": 0.555555499999997
                },
                {
                    "name": "B4",
                    "midi": 71,
                    "time": 100.55554550000058,
                    "velocity": 0.4881889763779528,
                    "duration": 0.555555499999997
                },
                {
                    "name": "A#4",
                    "midi": 70,
                    "time": 101.11110100000057,
                    "velocity": 0.4881889763779528,
                    "duration": 0.555555499999997
                },
                {
                    "name": "A4",
                    "midi": 69,
                    "time": 101.66665650000057,
                    "velocity": 0.4881889763779528,
                    "duration": 0.555555499999997
                },
                {
                    "name": "C5",
                    "midi": 72,
                    "time": 102.22221200000057,
                    "velocity": 0.4881889763779528,
                    "duration": 0.555555499999997
                },
                {
                    "name": "D5",
                    "midi": 74,
                    "time": 102.77776750000056,
                    "velocity": 0.4881889763779528,
                    "duration": 0.555555499999997
                },
                {
                    "name": "D#4",
                    "midi": 63,
                    "time": 103.33332300000056,
                    "velocity": 0.4881889763779528,
                    "duration": 2.222222000000002
                },
                {
                    "name": "G4",
                    "midi": 67,
                    "time": 103.33332300000056,
                    "velocity": 0.4881889763779528,
                    "duration": 2.222222000000002
                },
                {
                    "name": "C5",
                    "midi": 72,
                    "time": 103.33332300000056,
                    "velocity": 0.4881889763779528,
                    "duration": 2.222222000000002
                },
                {
                    "name": "D#5",
                    "midi": 75,
                    "time": 103.33332300000056,
                    "velocity": 0.4881889763779528,
                    "duration": 2.222222000000002
                },
                {
                    "name": "C#4",
                    "midi": 61,
                    "time": 105.55554500000056,
                    "velocity": 0.4881889763779528,
                    "duration": 0.555555499999997
                },
                {
                    "name": "E4",
                    "midi": 64,
                    "time": 105.55554500000056,
                    "velocity": 0.4881889763779528,
                    "duration": 0.555555499999997
                },
                {
                    "name": "A4",
                    "midi": 69,
                    "time": 105.55554500000056,
                    "velocity": 0.4881889763779528,
                    "duration": 0.555555499999997
                },
                {
                    "name": "C#5",
                    "midi": 73,
                    "time": 105.55554500000056,
                    "velocity": 0.4881889763779528,
                    "duration": 0.555555499999997
                },
                {
                    "name": "A#3",
                    "midi": 58,
                    "time": 106.11110050000056,
                    "velocity": 0.4881889763779528,
                    "duration": 0.555555499999997
                },
                {
                    "name": "D4",
                    "midi": 62,
                    "time": 106.11110050000056,
                    "velocity": 0.4881889763779528,
                    "duration": 0.555555499999997
                },
                {
                    "name": "G4",
                    "midi": 67,
                    "time": 106.11110050000056,
                    "velocity": 0.4881889763779528,
                    "duration": 0.555555499999997
                },
                {
                    "name": "A#4",
                    "midi": 70,
                    "time": 106.11110050000056,
                    "velocity": 0.4881889763779528,
                    "duration": 0.555555499999997
                },
                {
                    "name": "G#3",
                    "midi": 56,
                    "time": 106.66665600000056,
                    "velocity": 0.4881889763779528,
                    "duration": 0.555555499999997
                },
                {
                    "name": "B3",
                    "midi": 59,
                    "time": 106.66665600000056,
                    "velocity": 0.4881889763779528,
                    "duration": 0.555555499999997
                },
                {
                    "name": "E4",
                    "midi": 64,
                    "time": 106.66665600000056,
                    "velocity": 0.4881889763779528,
                    "duration": 0.555555499999997
                },
                {
                    "name": "G#4",
                    "midi": 68,
                    "time": 106.66665600000056,
                    "velocity": 0.4881889763779528,
                    "duration": 0.555555499999997
                },
                {
                    "name": "E3",
                    "midi": 52,
                    "time": 107.22221150000055,
                    "velocity": 0.4881889763779528,
                    "duration": 0.555555499999997
                },
                {
                    "name": "E4",
                    "midi": 64,
                    "time": 107.22221150000055,
                    "velocity": 0.4881889763779528,
                    "duration": 0.555555499999997
                },
                {
                    "name": "D#3",
                    "midi": 51,
                    "time": 107.77776700000055,
                    "velocity": 0.4881889763779528,
                    "duration": 0.555555499999997
                },
                {
                    "name": "D#4",
                    "midi": 63,
                    "time": 107.77776700000055,
                    "velocity": 0.4881889763779528,
                    "duration": 0.555555499999997
                },
                {
                    "name": "D3",
                    "midi": 50,
                    "time": 108.33332250000055,
                    "velocity": 0.4881889763779528,
                    "duration": 0.555555499999997
                },
                {
                    "name": "D4",
                    "midi": 62,
                    "time": 108.33332250000055,
                    "velocity": 0.4881889763779528,
                    "duration": 0.555555499999997
                },
                {
                    "name": "F3",
                    "midi": 53,
                    "time": 108.88887800000055,
                    "velocity": 0.4881889763779528,
                    "duration": 0.555555499999997
                },
                {
                    "name": "F4",
                    "midi": 65,
                    "time": 108.88887800000055,
                    "velocity": 0.4881889763779528,
                    "duration": 0.555555499999997
                },
                {
                    "name": "G3",
                    "midi": 55,
                    "time": 109.44443350000054,
                    "velocity": 0.4881889763779528,
                    "duration": 0.555555499999997
                },
                {
                    "name": "G4",
                    "midi": 67,
                    "time": 109.44443350000054,
                    "velocity": 0.4881889763779528,
                    "duration": 0.555555499999997
                },
                {
                    "name": "G#3",
                    "midi": 56,
                    "time": 109.99998900000054,
                    "velocity": 0.4881889763779528,
                    "duration": 0.555555499999997
                },
                {
                    "name": "G#4",
                    "midi": 68,
                    "time": 109.99998900000054,
                    "velocity": 0.4881889763779528,
                    "duration": 0.555555499999997
                },
                {
                    "name": "E3",
                    "midi": 52,
                    "time": 110.55554450000054,
                    "velocity": 0.4881889763779528,
                    "duration": 0.555555499999997
                },
                {
                    "name": "E4",
                    "midi": 64,
                    "time": 110.55554450000054,
                    "velocity": 0.4881889763779528,
                    "duration": 0.555555499999997
                },
                {
                    "name": "D#3",
                    "midi": 51,
                    "time": 111.11110000000053,
                    "velocity": 0.4881889763779528,
                    "duration": 0.555555499999997
                },
                {
                    "name": "D#4",
                    "midi": 63,
                    "time": 111.11110000000053,
                    "velocity": 0.4881889763779528,
                    "duration": 0.555555499999997
                },
                {
                    "name": "D3",
                    "midi": 50,
                    "time": 111.66665550000053,
                    "velocity": 0.4881889763779528,
                    "duration": 0.555555499999997
                },
                {
                    "name": "D4",
                    "midi": 62,
                    "time": 111.66665550000053,
                    "velocity": 0.4881889763779528,
                    "duration": 0.555555499999997
                },
                {
                    "name": "F3",
                    "midi": 53,
                    "time": 112.22221100000053,
                    "velocity": 0.4881889763779528,
                    "duration": 0.555555499999997
                },
                {
                    "name": "F4",
                    "midi": 65,
                    "time": 112.22221100000053,
                    "velocity": 0.4881889763779528,
                    "duration": 0.555555499999997
                },
                {
                    "name": "G3",
                    "midi": 55,
                    "time": 112.77776650000052,
                    "velocity": 0.4881889763779528,
                    "duration": 0.555555499999997
                },
                {
                    "name": "G4",
                    "midi": 67,
                    "time": 112.77776650000052,
                    "velocity": 0.4881889763779528,
                    "duration": 0.555555499999997
                },
                {
                    "name": "G#3",
                    "midi": 56,
                    "time": 113.33332200000052,
                    "velocity": 0.4881889763779528,
                    "duration": 0.555555499999997
                },
                {
                    "name": "G#4",
                    "midi": 68,
                    "time": 113.33332200000052,
                    "velocity": 0.4881889763779528,
                    "duration": 0.555555499999997
                },
                {
                    "name": "E3",
                    "midi": 52,
                    "time": 113.88887750000052,
                    "velocity": 0.4881889763779528,
                    "duration": 0.555555499999997
                },
                {
                    "name": "E4",
                    "midi": 64,
                    "time": 113.88887750000052,
                    "velocity": 0.4881889763779528,
                    "duration": 0.555555499999997
                },
                {
                    "name": "G#3",
                    "midi": 56,
                    "time": 114.44443300000052,
                    "velocity": 0.4881889763779528,
                    "duration": 0.555555499999997
                },
                {
                    "name": "G#4",
                    "midi": 68,
                    "time": 114.44443300000052,
                    "velocity": 0.4881889763779528,
                    "duration": 0.555555499999997
                },
                {
                    "name": "F3",
                    "midi": 53,
                    "time": 114.99998850000051,
                    "velocity": 0.4881889763779528,
                    "duration": 0.555555499999997
                },
                {
                    "name": "F4",
                    "midi": 65,
                    "time": 114.99998850000051,
                    "velocity": 0.4881889763779528,
                    "duration": 0.555555499999997
                },
                {
                    "name": "A3",
                    "midi": 57,
                    "time": 115.55554400000051,
                    "velocity": 0.4881889763779528,
                    "duration": 0.555555499999997
                },
                {
                    "name": "A4",
                    "midi": 69,
                    "time": 115.55554400000051,
                    "velocity": 0.4881889763779528,
                    "duration": 0.555555499999997
                },
                {
                    "name": "D4",
                    "midi": 62,
                    "time": 116.1110995000005,
                    "velocity": 0.4881889763779528,
                    "duration": 0.555555499999997
                },
                {
                    "name": "D5",
                    "midi": 74,
                    "time": 116.1110995000005,
                    "velocity": 0.4881889763779528,
                    "duration": 0.555555499999997
                },
                {
                    "name": "G#3",
                    "midi": 56,
                    "time": 116.6666550000005,
                    "velocity": 0.4881889763779528,
                    "duration": 0.555555499999997
                },
                {
                    "name": "G#4",
                    "midi": 68,
                    "time": 116.6666550000005,
                    "velocity": 0.4881889763779528,
                    "duration": 0.555555499999997
                },
                {
                    "name": "E3",
                    "midi": 52,
                    "time": 117.2222105000005,
                    "velocity": 0.4881889763779528,
                    "duration": 0.555555499999997
                },
                {
                    "name": "E4",
                    "midi": 64,
                    "time": 117.2222105000005,
                    "velocity": 0.4881889763779528,
                    "duration": 0.555555499999997
                },
                {
                    "name": "D#3",
                    "midi": 51,
                    "time": 117.7777660000005,
                    "velocity": 0.4881889763779528,
                    "duration": 0.555555499999997
                },
                {
                    "name": "D#4",
                    "midi": 63,
                    "time": 117.7777660000005,
                    "velocity": 0.4881889763779528,
                    "duration": 0.555555499999997
                },
                {
                    "name": "D3",
                    "midi": 50,
                    "time": 118.3333215000005,
                    "velocity": 0.4881889763779528,
                    "duration": 0.555555499999997
                },
                {
                    "name": "D4",
                    "midi": 62,
                    "time": 118.3333215000005,
                    "velocity": 0.4881889763779528,
                    "duration": 0.555555499999997
                },
                {
                    "name": "F3",
                    "midi": 53,
                    "time": 118.88887700000049,
                    "velocity": 0.4881889763779528,
                    "duration": 0.555555499999997
                },
                {
                    "name": "F4",
                    "midi": 65,
                    "time": 118.88887700000049,
                    "velocity": 0.4881889763779528,
                    "duration": 0.555555499999997
                },
                {
                    "name": "G3",
                    "midi": 55,
                    "time": 119.44443250000049,
                    "velocity": 0.4881889763779528,
                    "duration": 0.555555499999997
                },
                {
                    "name": "G4",
                    "midi": 67,
                    "time": 119.44443250000049,
                    "velocity": 0.4881889763779528,
                    "duration": 0.555555499999997
                },
                {
                    "name": "A#3",
                    "midi": 58,
                    "time": 119.99998800000049,
                    "velocity": 0.4881889763779528,
                    "duration": 4.444444000000004
                },
                {
                    "name": "G#4",
                    "midi": 68,
                    "time": 119.99998800000049,
                    "velocity": 0.4881889763779528,
                    "duration": 4.444444000000004
                },
                {
                    "name": "G3",
                    "midi": 55,
                    "time": 126.66665400000049,
                    "velocity": 0.3858267716535433,
                    "duration": 3.333332999999996
                },
                {
                    "name": "C#4",
                    "midi": 61,
                    "time": 126.66665400000049,
                    "velocity": 0.3858267716535433,
                    "duration": 3.333332999999996
                },
                {
                    "name": "B3",
                    "midi": 59,
                    "time": 129.9999870000005,
                    "velocity": 0.3858267716535433,
                    "duration": 0.1851851666666562
                },
                {
                    "name": "F4",
                    "midi": 65,
                    "time": 130.18517216666714,
                    "velocity": 0.3858267716535433,
                    "duration": 0.18287035208334146
                },
                {
                    "name": "A#3",
                    "midi": 58,
                    "time": 130.36804251875049,
                    "velocity": 0.3858267716535433,
                    "duration": 1.8541664812499903
                },
                {
                    "name": "B3",
                    "midi": 59,
                    "time": 132.22220900000048,
                    "velocity": 0.3858267716535433,
                    "duration": 0.555555499999997
                },
                {
                    "name": "A#3",
                    "midi": 58,
                    "time": 132.77776450000047,
                    "velocity": 0.3858267716535433,
                    "duration": 1.111110999999994
                },
                {
                    "name": "B3",
                    "midi": 59,
                    "time": 133.88887550000047,
                    "velocity": 0.3858267716535433,
                    "duration": 0.555555499999997
                },
                {
                    "name": "A#3",
                    "midi": 58,
                    "time": 134.44443100000046,
                    "velocity": 0.3858267716535433,
                    "duration": 0.7407406666666532
                },
                {
                    "name": "F4",
                    "midi": 65,
                    "time": 135.18517166666712,
                    "velocity": 0.3858267716535433,
                    "duration": 0.18287035208334146
                },
                {
                    "name": "B3",
                    "midi": 59,
                    "time": 135.36804201875046,
                    "velocity": 0.3858267716535433,
                    "duration": 1.2986109812499933
                },
                {
                    "name": "D#5",
                    "midi": 75,
                    "time": 136.66665300000045,
                    "velocity": 0.3858267716535433,
                    "duration": 0.13888887499999214
                },
                {
                    "name": "C#5",
                    "midi": 73,
                    "time": 136.80554187500044,
                    "velocity": 0.3858267716535433,
                    "duration": 0.13888887499999214
                },
                {
                    "name": "D#5",
                    "midi": 75,
                    "time": 136.94443075000044,
                    "velocity": 0.3858267716535433,
                    "duration": 0.13888887499999214
                },
                {
                    "name": "C#5",
                    "midi": 73,
                    "time": 137.08331962500043,
                    "velocity": 0.3858267716535433,
                    "duration": 0.13888887499999214
                },
                {
                    "name": "D#5",
                    "midi": 75,
                    "time": 137.22220850000042,
                    "velocity": 0.3858267716535433,
                    "duration": 0.13888887499999214
                },
                {
                    "name": "C#5",
                    "midi": 73,
                    "time": 137.3610973750004,
                    "velocity": 0.3858267716535433,
                    "duration": 0.13888887499999214
                },
                {
                    "name": "D#5",
                    "midi": 75,
                    "time": 137.4999862500004,
                    "velocity": 0.3858267716535433,
                    "duration": 0.13888887499999214
                },
                {
                    "name": "C#5",
                    "midi": 73,
                    "time": 137.6388751250004,
                    "velocity": 0.3858267716535433,
                    "duration": 0.13888887499999214
                },
                {
                    "name": "D#5",
                    "midi": 75,
                    "time": 137.7777640000004,
                    "velocity": 0.3858267716535433,
                    "duration": 0.13888887499999214
                },
                {
                    "name": "C#5",
                    "midi": 73,
                    "time": 137.91665287500038,
                    "velocity": 0.3858267716535433,
                    "duration": 0.13888887499999214
                },
                {
                    "name": "D#5",
                    "midi": 75,
                    "time": 138.05554175000037,
                    "velocity": 0.3858267716535433,
                    "duration": 0.13888887499999214
                },
                {
                    "name": "C#5",
                    "midi": 73,
                    "time": 138.19443062500036,
                    "velocity": 0.3858267716535433,
                    "duration": 0.13888887499999214
                },
                {
                    "name": "C#6",
                    "midi": 85,
                    "time": 138.33331950000036,
                    "velocity": 0.3858267716535433,
                    "duration": 0.13888887499999214
                },
                {
                    "name": "D#6",
                    "midi": 87,
                    "time": 138.33331950000036,
                    "velocity": 0.3858267716535433,
                    "duration": 0.13888887499999214
                },
                {
                    "name": "D#6",
                    "midi": 87,
                    "time": 138.47220837500035,
                    "velocity": 0.3858267716535433,
                    "duration": 0.13888887499999214
                },
                {
                    "name": "B5",
                    "midi": 83,
                    "time": 138.61109725000034,
                    "velocity": 0.3858267716535433,
                    "duration": 0.13888887499999214
                },
                {
                    "name": "D#5",
                    "midi": 75,
                    "time": 138.74998612500033,
                    "velocity": 0.3858267716535433,
                    "duration": 0.13888887499999214
                },
                {
                    "name": "E5",
                    "midi": 76,
                    "time": 138.88887500000033,
                    "velocity": 0.3858267716535433,
                    "duration": 0.13888887499999214
                },
                {
                    "name": "A#5",
                    "midi": 82,
                    "time": 139.02776387500032,
                    "velocity": 0.3858267716535433,
                    "duration": 0.13888887499999214
                },
                {
                    "name": "F6",
                    "midi": 89,
                    "time": 139.1666527500003,
                    "velocity": 0.3858267716535433,
                    "duration": 0.13888887499999214
                },
                {
                    "name": "C#6",
                    "midi": 85,
                    "time": 139.3055416250003,
                    "velocity": 0.3858267716535433,
                    "duration": 0.13888887499999214
                },
                {
                    "name": "F5",
                    "midi": 77,
                    "time": 139.4444305000003,
                    "velocity": 0.3858267716535433,
                    "duration": 0.1851851666666562
                },
                {
                    "name": "A4",
                    "midi": 69,
                    "time": 139.62961566666695,
                    "velocity": 0.3858267716535433,
                    "duration": 0.18287035208334146
                },
                {
                    "name": "F5",
                    "midi": 77,
                    "time": 139.8124860187503,
                    "velocity": 0.3858267716535433,
                    "duration": 0.18749998124999934
                },
                {
                    "name": "C#5",
                    "midi": 73,
                    "time": 140.5555415000003,
                    "velocity": 0.3858267716535433,
                    "duration": 0.555555499999997
                },
                {
                    "name": "F5",
                    "midi": 77,
                    "time": 140.5555415000003,
                    "velocity": 0.3858267716535433,
                    "duration": 0.555555499999997
                },
                {
                    "name": "C5",
                    "midi": 72,
                    "time": 141.11109700000029,
                    "velocity": 0.3858267716535433,
                    "duration": 0.555555499999997
                },
                {
                    "name": "F#5",
                    "midi": 78,
                    "time": 141.11109700000029,
                    "velocity": 0.3858267716535433,
                    "duration": 0.555555499999997
                },
                {
                    "name": "B4",
                    "midi": 71,
                    "time": 141.66665250000028,
                    "velocity": 0.3858267716535433,
                    "duration": 0.555555499999997
                },
                {
                    "name": "G5",
                    "midi": 79,
                    "time": 141.66665250000028,
                    "velocity": 0.3858267716535433,
                    "duration": 0.555555499999997
                },
                {
                    "name": "C5",
                    "midi": 72,
                    "time": 142.22220800000028,
                    "velocity": 0.3858267716535433,
                    "duration": 0.555555499999997
                },
                {
                    "name": "F#5",
                    "midi": 78,
                    "time": 142.22220800000028,
                    "velocity": 0.3858267716535433,
                    "duration": 0.555555499999997
                },
                {
                    "name": "B4",
                    "midi": 71,
                    "time": 142.77776350000028,
                    "velocity": 0.3858267716535433,
                    "duration": 0.555555499999997
                },
                {
                    "name": "G5",
                    "midi": 79,
                    "time": 142.77776350000028,
                    "velocity": 0.3858267716535433,
                    "duration": 0.555555499999997
                },
                {
                    "name": "C#4",
                    "midi": 61,
                    "time": 143.33331900000027,
                    "velocity": 0.3858267716535433,
                    "duration": 0.1851851666666562
                },
                {
                    "name": "F#4",
                    "midi": 66,
                    "time": 143.51850416666693,
                    "velocity": 0.3858267716535433,
                    "duration": 0.18287035208334146
                },
                {
                    "name": "D#4",
                    "midi": 63,
                    "time": 143.70137451875027,
                    "velocity": 0.3858267716535433,
                    "duration": 1.8541664812499903
                },
                {
                    "name": "C#4",
                    "midi": 61,
                    "time": 145.55554100000026,
                    "velocity": 0.3858267716535433,
                    "duration": 0.555555499999997
                },
                {
                    "name": "D#4",
                    "midi": 63,
                    "time": 146.11109650000026,
                    "velocity": 0.3858267716535433,
                    "duration": 0.555555499999997
                },
                {
                    "name": "G3",
                    "midi": 55,
                    "time": 147.22220750000025,
                    "velocity": 0.4881889763779528,
                    "duration": 0.555555499999997
                },
                {
                    "name": "G3",
                    "midi": 55,
                    "time": 147.77776300000025,
                    "velocity": 0.4881889763779528,
                    "duration": 0.555555499999997
                },
                {
                    "name": "G3",
                    "midi": 55,
                    "time": 148.33331850000025,
                    "velocity": 0.4881889763779528,
                    "duration": 0.555555499999997
                },
                {
                    "name": "G3",
                    "midi": 55,
                    "time": 148.88887400000024,
                    "velocity": 0.4881889763779528,
                    "duration": 0.2777777500000127
                },
                {
                    "name": "F#3",
                    "midi": 54,
                    "time": 149.16665175000026,
                    "velocity": 0.4881889763779528,
                    "duration": 0.2777777500000127
                },
                {
                    "name": "F3",
                    "midi": 53,
                    "time": 149.44442950000027,
                    "velocity": 0.4881889763779528,
                    "duration": 0.2777777500000127
                },
                {
                    "name": "E3",
                    "midi": 52,
                    "time": 149.72220725000028,
                    "velocity": 0.4881889763779528,
                    "duration": 0.2777777500000127
                },
                {
                    "name": "D#3",
                    "midi": 51,
                    "time": 149.9999850000003,
                    "velocity": 0.4881889763779528,
                    "duration": 0.555555499999997
                },
                {
                    "name": "D#3",
                    "midi": 51,
                    "time": 150.5555405000003,
                    "velocity": 0.4881889763779528,
                    "duration": 0.555555499999997
                },
                {
                    "name": "D#3",
                    "midi": 51,
                    "time": 151.1110960000003,
                    "velocity": 0.4881889763779528,
                    "duration": 0.555555499999997
                },
                {
                    "name": "D#3",
                    "midi": 51,
                    "time": 151.66665150000028,
                    "velocity": 0.4881889763779528,
                    "duration": 0.555555499999997
                },
                {
                    "name": "D#3",
                    "midi": 51,
                    "time": 152.22220700000028,
                    "velocity": 0.4881889763779528,
                    "duration": 0.2777777500000127
                },
                {
                    "name": "E3",
                    "midi": 52,
                    "time": 152.4999847500003,
                    "velocity": 0.4881889763779528,
                    "duration": 0.2777777500000127
                },
                {
                    "name": "F3",
                    "midi": 53,
                    "time": 152.7777625000003,
                    "velocity": 0.4881889763779528,
                    "duration": 0.2777777500000127
                },
                {
                    "name": "F#3",
                    "midi": 54,
                    "time": 153.05554025000032,
                    "velocity": 0.4881889763779528,
                    "duration": 0.2777777500000127
                },
                {
                    "name": "G3",
                    "midi": 55,
                    "time": 153.33331800000033,
                    "velocity": 0.4881889763779528,
                    "duration": 0.555555499999997
                },
                {
                    "name": "G3",
                    "midi": 55,
                    "time": 153.88887350000033,
                    "velocity": 0.4881889763779528,
                    "duration": 0.555555499999997
                },
                {
                    "name": "G3",
                    "midi": 55,
                    "time": 154.44442900000033,
                    "velocity": 0.4881889763779528,
                    "duration": 0.555555499999997
                },
                {
                    "name": "G3",
                    "midi": 55,
                    "time": 154.99998450000032,
                    "velocity": 0.4881889763779528,
                    "duration": 0.555555499999997
                },
                {
                    "name": "G3",
                    "midi": 55,
                    "time": 155.55554000000032,
                    "velocity": 0.4881889763779528,
                    "duration": 0.2777777500000127
                },
                {
                    "name": "F#3",
                    "midi": 54,
                    "time": 155.83331775000033,
                    "velocity": 0.4881889763779528,
                    "duration": 0.2777777500000127
                },
                {
                    "name": "F3",
                    "midi": 53,
                    "time": 156.11109550000035,
                    "velocity": 0.4881889763779528,
                    "duration": 0.2777777500000127
                },
                {
                    "name": "E3",
                    "midi": 52,
                    "time": 156.38887325000036,
                    "velocity": 0.4881889763779528,
                    "duration": 0.2777777500000127
                },
                {
                    "name": "D#3",
                    "midi": 51,
                    "time": 156.66665100000037,
                    "velocity": 0.4881889763779528,
                    "duration": 0.555555499999997
                },
                {
                    "name": "C4",
                    "midi": 60,
                    "time": 156.66665100000037,
                    "velocity": 0.4881889763779528,
                    "duration": 0.555555499999997
                },
                {
                    "name": "D#4",
                    "midi": 63,
                    "time": 159.99998400000038,
                    "velocity": 0.4881889763779528,
                    "duration": 0.13888887499999214
                },
                {
                    "name": "D#3",
                    "midi": 51,
                    "time": 160.13887287500037,
                    "velocity": 0.4881889763779528,
                    "duration": 0.13888887499999214
                },
                {
                    "name": "D#4",
                    "midi": 63,
                    "time": 160.27776175000037,
                    "velocity": 0.4881889763779528,
                    "duration": 0.13888887499999214
                },
                {
                    "name": "D#3",
                    "midi": 51,
                    "time": 160.41665062500036,
                    "velocity": 0.4881889763779528,
                    "duration": 0.13888887499999214
                },
                {
                    "name": "B3",
                    "midi": 59,
                    "time": 160.55553950000035,
                    "velocity": 0.4881889763779528,
                    "duration": 0.13888887499999214
                },
                {
                    "name": "B2",
                    "midi": 47,
                    "time": 160.69442837500034,
                    "velocity": 0.4881889763779528,
                    "duration": 0.13888887499999214
                },
                {
                    "name": "B3",
                    "midi": 59,
                    "time": 160.83331725000033,
                    "velocity": 0.4881889763779528,
                    "duration": 0.13888887499999214
                },
                {
                    "name": "B2",
                    "midi": 47,
                    "time": 160.97220612500033,
                    "velocity": 0.4881889763779528,
                    "duration": 0.13888887499999214
                },
                {
                    "name": "A#3",
                    "midi": 58,
                    "time": 161.11109500000032,
                    "velocity": 0.4881889763779528,
                    "duration": 0.13888887499999214
                },
                {
                    "name": "A#2",
                    "midi": 46,
                    "time": 161.2499838750003,
                    "velocity": 0.4881889763779528,
                    "duration": 0.13888887499999214
                },
                {
                    "name": "A#3",
                    "midi": 58,
                    "time": 161.3888727500003,
                    "velocity": 0.4881889763779528,
                    "duration": 0.13888887499999214
                },
                {
                    "name": "A#2",
                    "midi": 46,
                    "time": 161.5277616250003,
                    "velocity": 0.4881889763779528,
                    "duration": 0.13888887499999214
                },
                {
                    "name": "A3",
                    "midi": 57,
                    "time": 161.6666505000003,
                    "velocity": 0.4881889763779528,
                    "duration": 0.13888887499999214
                },
                {
                    "name": "A2",
                    "midi": 45,
                    "time": 161.80553937500028,
                    "velocity": 0.4881889763779528,
                    "duration": 0.13888887499999214
                },
                {
                    "name": "A3",
                    "midi": 57,
                    "time": 161.94442825000027,
                    "velocity": 0.4881889763779528,
                    "duration": 0.13888887499999214
                },
                {
                    "name": "A2",
                    "midi": 45,
                    "time": 162.08331712500026,
                    "velocity": 0.4881889763779528,
                    "duration": 0.13888887499999214
                },
                {
                    "name": "C4",
                    "midi": 60,
                    "time": 162.22220600000026,
                    "velocity": 0.4881889763779528,
                    "duration": 0.13888887499999214
                },
                {
                    "name": "C3",
                    "midi": 48,
                    "time": 162.36109487500025,
                    "velocity": 0.4881889763779528,
                    "duration": 0.13888887499999214
                },
                {
                    "name": "C4",
                    "midi": 60,
                    "time": 162.49998375000024,
                    "velocity": 0.4881889763779528,
                    "duration": 0.13888887499999214
                },
                {
                    "name": "C3",
                    "midi": 48,
                    "time": 162.63887262500023,
                    "velocity": 0.4881889763779528,
                    "duration": 0.13888887499999214
                },
                {
                    "name": "D4",
                    "midi": 62,
                    "time": 162.77776150000022,
                    "velocity": 0.4881889763779528,
                    "duration": 0.13888887499999214
                },
                {
                    "name": "D3",
                    "midi": 50,
                    "time": 162.91665037500022,
                    "velocity": 0.4881889763779528,
                    "duration": 0.13888887499999214
                },
                {
                    "name": "D4",
                    "midi": 62,
                    "time": 163.0555392500002,
                    "velocity": 0.4881889763779528,
                    "duration": 0.13888887499999214
                },
                {
                    "name": "D3",
                    "midi": 50,
                    "time": 163.1944281250002,
                    "velocity": 0.4881889763779528,
                    "duration": 0.13888887499999214
                },
                {
                    "name": "D#4",
                    "midi": 63,
                    "time": 163.3333170000002,
                    "velocity": 0.4881889763779528,
                    "duration": 0.13888887499999214
                },
                {
                    "name": "D#3",
                    "midi": 51,
                    "time": 163.47220587500018,
                    "velocity": 0.4881889763779528,
                    "duration": 0.13888887499999214
                },
                {
                    "name": "D#4",
                    "midi": 63,
                    "time": 163.61109475000018,
                    "velocity": 0.4881889763779528,
                    "duration": 0.13888887499999214
                },
                {
                    "name": "D#3",
                    "midi": 51,
                    "time": 163.74998362500017,
                    "velocity": 0.4881889763779528,
                    "duration": 0.13888887499999214
                },
                {
                    "name": "D#4",
                    "midi": 63,
                    "time": 163.88887250000016,
                    "velocity": 0.4881889763779528,
                    "duration": 0.13888887499999214
                },
                {
                    "name": "D#3",
                    "midi": 51,
                    "time": 164.02776137500015,
                    "velocity": 0.4881889763779528,
                    "duration": 0.13888887499999214
                },
                {
                    "name": "D#4",
                    "midi": 63,
                    "time": 164.16665025000015,
                    "velocity": 0.4881889763779528,
                    "duration": 0.13888887499999214
                },
                {
                    "name": "D#3",
                    "midi": 51,
                    "time": 164.30553912500014,
                    "velocity": 0.4881889763779528,
                    "duration": 0.13888887499999214
                },
                {
                    "name": "D#4",
                    "midi": 63,
                    "time": 164.44442800000013,
                    "velocity": 0.4881889763779528,
                    "duration": 0.13888887499999214
                },
                {
                    "name": "D#3",
                    "midi": 51,
                    "time": 164.58331687500012,
                    "velocity": 0.4881889763779528,
                    "duration": 0.13888887499999214
                },
                {
                    "name": "D#4",
                    "midi": 63,
                    "time": 164.72220575000011,
                    "velocity": 0.4881889763779528,
                    "duration": 0.13888887499999214
                },
                {
                    "name": "D#3",
                    "midi": 51,
                    "time": 164.8610946250001,
                    "velocity": 0.4881889763779528,
                    "duration": 0.13888887499999214
                },
                {
                    "name": "D#4",
                    "midi": 63,
                    "time": 164.9999835000001,
                    "velocity": 0.4881889763779528,
                    "duration": 0.13888887499999214
                },
                {
                    "name": "D#3",
                    "midi": 51,
                    "time": 165.1388723750001,
                    "velocity": 0.4881889763779528,
                    "duration": 0.13888887499999214
                },
                {
                    "name": "D#4",
                    "midi": 63,
                    "time": 165.27776125000008,
                    "velocity": 0.4881889763779528,
                    "duration": 0.13888887499999214
                },
                {
                    "name": "D#3",
                    "midi": 51,
                    "time": 165.41665012500007,
                    "velocity": 0.4881889763779528,
                    "duration": 0.13888887499999214
                },
                {
                    "name": "D#4",
                    "midi": 63,
                    "time": 165.55553900000007,
                    "velocity": 0.4881889763779528,
                    "duration": 0.13888887499999214
                },
                {
                    "name": "D#3",
                    "midi": 51,
                    "time": 165.69442787500006,
                    "velocity": 0.4881889763779528,
                    "duration": 0.13888887499999214
                },
                {
                    "name": "D#4",
                    "midi": 63,
                    "time": 165.83331675000005,
                    "velocity": 0.4881889763779528,
                    "duration": 0.13888887499999214
                },
                {
                    "name": "D#3",
                    "midi": 51,
                    "time": 165.97220562500004,
                    "velocity": 0.4881889763779528,
                    "duration": 0.13888887499999214
                },
                {
                    "name": "D#4",
                    "midi": 63,
                    "time": 166.11109450000004,
                    "velocity": 0.4881889763779528,
                    "duration": 0.13888887499999214
                },
                {
                    "name": "D#3",
                    "midi": 51,
                    "time": 166.24998337500003,
                    "velocity": 0.4881889763779528,
                    "duration": 0.13888887499999214
                },
                {
                    "name": "D#4",
                    "midi": 63,
                    "time": 166.38887225000002,
                    "velocity": 0.4881889763779528,
                    "duration": 0.13888887499999214
                },
                {
                    "name": "D#3",
                    "midi": 51,
                    "time": 166.527761125,
                    "velocity": 0.4881889763779528,
                    "duration": 0.13888887499999214
                },
                {
                    "name": "D#4",
                    "midi": 63,
                    "time": 166.66665,
                    "velocity": 0.4881889763779528,
                    "duration": 0.13888887499999214
                },
                {
                    "name": "D#3",
                    "midi": 51,
                    "time": 166.805538875,
                    "velocity": 0.4881889763779528,
                    "duration": 0.13888887499999214
                },
                {
                    "name": "D#4",
                    "midi": 63,
                    "time": 166.94442775,
                    "velocity": 0.4881889763779528,
                    "duration": 0.13888887499999214
                },
                {
                    "name": "D#3",
                    "midi": 51,
                    "time": 167.08331662499998,
                    "velocity": 0.4881889763779528,
                    "duration": 0.13888887499999214
                },
                {
                    "name": "B3",
                    "midi": 59,
                    "time": 167.22220549999997,
                    "velocity": 0.4881889763779528,
                    "duration": 0.13888887499999214
                },
                {
                    "name": "B2",
                    "midi": 47,
                    "time": 167.36109437499996,
                    "velocity": 0.4881889763779528,
                    "duration": 0.13888887499999214
                },
                {
                    "name": "B3",
                    "midi": 59,
                    "time": 167.49998324999996,
                    "velocity": 0.4881889763779528,
                    "duration": 0.13888887499999214
                },
                {
                    "name": "B2",
                    "midi": 47,
                    "time": 167.63887212499995,
                    "velocity": 0.4881889763779528,
                    "duration": 0.13888887499999214
                },
                {
                    "name": "A#3",
                    "midi": 58,
                    "time": 167.77776099999994,
                    "velocity": 0.4881889763779528,
                    "duration": 0.13888887499999214
                },
                {
                    "name": "A#2",
                    "midi": 46,
                    "time": 167.91664987499993,
                    "velocity": 0.4881889763779528,
                    "duration": 0.13888887499999214
                },
                {
                    "name": "A#3",
                    "midi": 58,
                    "time": 168.05553874999993,
                    "velocity": 0.4881889763779528,
                    "duration": 0.13888887499999214
                },
                {
                    "name": "A#2",
                    "midi": 46,
                    "time": 168.19442762499992,
                    "velocity": 0.4881889763779528,
                    "duration": 0.13888887499999214
                },
                {
                    "name": "A3",
                    "midi": 57,
                    "time": 168.3333164999999,
                    "velocity": 0.4881889763779528,
                    "duration": 0.13888887499999214
                },
                {
                    "name": "A2",
                    "midi": 45,
                    "time": 168.4722053749999,
                    "velocity": 0.4881889763779528,
                    "duration": 0.13888887499999214
                },
                {
                    "name": "A3",
                    "midi": 57,
                    "time": 168.6110942499999,
                    "velocity": 0.4881889763779528,
                    "duration": 0.13888887499999214
                },
                {
                    "name": "A2",
                    "midi": 45,
                    "time": 168.7499831249999,
                    "velocity": 0.4881889763779528,
                    "duration": 0.13888887499999214
                },
                {
                    "name": "C4",
                    "midi": 60,
                    "time": 168.88887199999988,
                    "velocity": 0.4881889763779528,
                    "duration": 0.13888887499999214
                },
                {
                    "name": "C3",
                    "midi": 48,
                    "time": 169.02776087499987,
                    "velocity": 0.4881889763779528,
                    "duration": 0.13888887499999214
                },
                {
                    "name": "C4",
                    "midi": 60,
                    "time": 169.16664974999986,
                    "velocity": 0.4881889763779528,
                    "duration": 0.13888887499999214
                },
                {
                    "name": "C3",
                    "midi": 48,
                    "time": 169.30553862499985,
                    "velocity": 0.4881889763779528,
                    "duration": 0.13888887499999214
                },
                {
                    "name": "D4",
                    "midi": 62,
                    "time": 169.44442749999985,
                    "velocity": 0.4881889763779528,
                    "duration": 0.13888887499999214
                },
                {
                    "name": "D3",
                    "midi": 50,
                    "time": 169.58331637499984,
                    "velocity": 0.4881889763779528,
                    "duration": 0.13888887499999214
                },
                {
                    "name": "D4",
                    "midi": 62,
                    "time": 169.72220524999983,
                    "velocity": 0.4881889763779528,
                    "duration": 0.13888887499999214
                },
                {
                    "name": "D3",
                    "midi": 50,
                    "time": 169.86109412499982,
                    "velocity": 0.4881889763779528,
                    "duration": 0.13888887499999214
                },
                {
                    "name": "D#4",
                    "midi": 63,
                    "time": 169.99998299999982,
                    "velocity": 0.4881889763779528,
                    "duration": 0.13888887499999214
                },
                {
                    "name": "D#3",
                    "midi": 51,
                    "time": 170.1388718749998,
                    "velocity": 0.4881889763779528,
                    "duration": 0.13888887499999214
                },
                {
                    "name": "D#4",
                    "midi": 63,
                    "time": 170.2777607499998,
                    "velocity": 0.4881889763779528,
                    "duration": 0.13888887499999214
                },
                {
                    "name": "D#3",
                    "midi": 51,
                    "time": 170.4166496249998,
                    "velocity": 0.4881889763779528,
                    "duration": 0.13888887499999214
                },
                {
                    "name": "B3",
                    "midi": 59,
                    "time": 170.55553849999978,
                    "velocity": 0.4881889763779528,
                    "duration": 0.13888887499999214
                },
                {
                    "name": "B2",
                    "midi": 47,
                    "time": 170.69442737499978,
                    "velocity": 0.4881889763779528,
                    "duration": 0.13888887499999214
                },
                {
                    "name": "B3",
                    "midi": 59,
                    "time": 170.83331624999977,
                    "velocity": 0.4881889763779528,
                    "duration": 0.13888887499999214
                },
                {
                    "name": "B2",
                    "midi": 47,
                    "time": 170.97220512499976,
                    "velocity": 0.4881889763779528,
                    "duration": 0.13888887499999214
                },
                {
                    "name": "A#3",
                    "midi": 58,
                    "time": 171.11109399999975,
                    "velocity": 0.4881889763779528,
                    "duration": 0.13888887499999214
                },
                {
                    "name": "A#2",
                    "midi": 46,
                    "time": 171.24998287499974,
                    "velocity": 0.4881889763779528,
                    "duration": 0.13888887499999214
                },
                {
                    "name": "A#3",
                    "midi": 58,
                    "time": 171.38887174999974,
                    "velocity": 0.4881889763779528,
                    "duration": 0.13888887499999214
                },
                {
                    "name": "A#2",
                    "midi": 46,
                    "time": 171.52776062499973,
                    "velocity": 0.4881889763779528,
                    "duration": 0.13888887499999214
                },
                {
                    "name": "A3",
                    "midi": 57,
                    "time": 171.66664949999972,
                    "velocity": 0.4881889763779528,
                    "duration": 0.13888887499999214
                },
                {
                    "name": "A2",
                    "midi": 45,
                    "time": 171.8055383749997,
                    "velocity": 0.4881889763779528,
                    "duration": 0.13888887499999214
                },
                {
                    "name": "A3",
                    "midi": 57,
                    "time": 171.9444272499997,
                    "velocity": 0.4881889763779528,
                    "duration": 0.13888887499999214
                },
                {
                    "name": "A2",
                    "midi": 45,
                    "time": 172.0833161249997,
                    "velocity": 0.4881889763779528,
                    "duration": 0.13888887499999214
                },
                {
                    "name": "C4",
                    "midi": 60,
                    "time": 172.2222049999997,
                    "velocity": 0.4881889763779528,
                    "duration": 0.13888887499999214
                },
                {
                    "name": "C3",
                    "midi": 48,
                    "time": 172.36109387499968,
                    "velocity": 0.4881889763779528,
                    "duration": 0.13888887499999214
                },
                {
                    "name": "C4",
                    "midi": 60,
                    "time": 172.49998274999967,
                    "velocity": 0.4881889763779528,
                    "duration": 0.13888887499999214
                },
                {
                    "name": "C3",
                    "midi": 48,
                    "time": 172.63887162499967,
                    "velocity": 0.4881889763779528,
                    "duration": 0.13888887499999214
                },
                {
                    "name": "D4",
                    "midi": 62,
                    "time": 172.77776049999966,
                    "velocity": 0.4881889763779528,
                    "duration": 0.13888887499999214
                },
                {
                    "name": "D3",
                    "midi": 50,
                    "time": 172.91664937499965,
                    "velocity": 0.4881889763779528,
                    "duration": 0.13888887499999214
                },
                {
                    "name": "D4",
                    "midi": 62,
                    "time": 173.05553824999964,
                    "velocity": 0.4881889763779528,
                    "duration": 0.13888887499999214
                },
                {
                    "name": "D3",
                    "midi": 50,
                    "time": 173.19442712499963,
                    "velocity": 0.4881889763779528,
                    "duration": 0.13888887499999214
                },
                {
                    "name": "D#4",
                    "midi": 63,
                    "time": 173.33331599999963,
                    "velocity": 0.4881889763779528,
                    "duration": 0.13888887499999214
                },
                {
                    "name": "D#3",
                    "midi": 51,
                    "time": 173.47220487499962,
                    "velocity": 0.4881889763779528,
                    "duration": 0.13888887499999214
                },
                {
                    "name": "D#4",
                    "midi": 63,
                    "time": 173.6110937499996,
                    "velocity": 0.4881889763779528,
                    "duration": 0.13888887499999214
                },
                {
                    "name": "D#3",
                    "midi": 51,
                    "time": 173.7499826249996,
                    "velocity": 0.4881889763779528,
                    "duration": 0.13888887499999214
                },
                {
                    "name": "B3",
                    "midi": 59,
                    "time": 173.8888714999996,
                    "velocity": 0.4881889763779528,
                    "duration": 0.13888887499999214
                },
                {
                    "name": "B2",
                    "midi": 47,
                    "time": 174.0277603749996,
                    "velocity": 0.4881889763779528,
                    "duration": 0.13888887499999214
                },
                {
                    "name": "B3",
                    "midi": 59,
                    "time": 174.16664924999958,
                    "velocity": 0.4881889763779528,
                    "duration": 0.13888887499999214
                },
                {
                    "name": "B2",
                    "midi": 47,
                    "time": 174.30553812499957,
                    "velocity": 0.4881889763779528,
                    "duration": 0.13888887499999214
                },
                {
                    "name": "D#4",
                    "midi": 63,
                    "time": 174.44442699999956,
                    "velocity": 0.4881889763779528,
                    "duration": 0.13888887499999214
                },
                {
                    "name": "D#3",
                    "midi": 51,
                    "time": 174.58331587499956,
                    "velocity": 0.4881889763779528,
                    "duration": 0.13888887499999214
                },
                {
                    "name": "D#4",
                    "midi": 63,
                    "time": 174.72220474999955,
                    "velocity": 0.4881889763779528,
                    "duration": 0.13888887499999214
                },
                {
                    "name": "D#3",
                    "midi": 51,
                    "time": 174.86109362499954,
                    "velocity": 0.4881889763779528,
                    "duration": 0.13888887499999214
                },
                {
                    "name": "C4",
                    "midi": 60,
                    "time": 174.99998249999953,
                    "velocity": 0.4881889763779528,
                    "duration": 0.13888887499999214
                },
                {
                    "name": "C3",
                    "midi": 48,
                    "time": 175.13887137499952,
                    "velocity": 0.4881889763779528,
                    "duration": 0.13888887499999214
                },
                {
                    "name": "C4",
                    "midi": 60,
                    "time": 175.27776024999952,
                    "velocity": 0.4881889763779528,
                    "duration": 0.13888887499999214
                },
                {
                    "name": "C3",
                    "midi": 48,
                    "time": 175.4166491249995,
                    "velocity": 0.4881889763779528,
                    "duration": 0.13888887499999214
                },
                {
                    "name": "E4",
                    "midi": 64,
                    "time": 175.5555379999995,
                    "velocity": 0.4881889763779528,
                    "duration": 0.13888887499999214
                },
                {
                    "name": "E3",
                    "midi": 52,
                    "time": 175.6944268749995,
                    "velocity": 0.4881889763779528,
                    "duration": 0.13888887499999214
                },
                {
                    "name": "E4",
                    "midi": 64,
                    "time": 175.83331574999949,
                    "velocity": 0.4881889763779528,
                    "duration": 0.13888887499999214
                },
                {
                    "name": "E3",
                    "midi": 52,
                    "time": 175.97220462499948,
                    "velocity": 0.4881889763779528,
                    "duration": 0.13888887499999214
                },
                {
                    "name": "A4",
                    "midi": 69,
                    "time": 176.11109349999947,
                    "velocity": 0.4881889763779528,
                    "duration": 0.13888887499999214
                },
                {
                    "name": "A3",
                    "midi": 57,
                    "time": 176.24998237499946,
                    "velocity": 0.4881889763779528,
                    "duration": 0.13888887499999214
                },
                {
                    "name": "A4",
                    "midi": 69,
                    "time": 176.38887124999945,
                    "velocity": 0.4881889763779528,
                    "duration": 0.13888887499999214
                },
                {
                    "name": "A3",
                    "midi": 57,
                    "time": 176.52776012499945,
                    "velocity": 0.4881889763779528,
                    "duration": 0.13888887499999214
                },
                {
                    "name": "G#4",
                    "midi": 68,
                    "time": 176.66664899999944,
                    "velocity": 0.4881889763779528,
                    "duration": 0.13888887499999214
                },
                {
                    "name": "G#3",
                    "midi": 56,
                    "time": 176.80553787499943,
                    "velocity": 0.4881889763779528,
                    "duration": 0.13888887499999214
                },
                {
                    "name": "G#4",
                    "midi": 68,
                    "time": 176.94442674999942,
                    "velocity": 0.4881889763779528,
                    "duration": 0.13888887499999214
                },
                {
                    "name": "G#3",
                    "midi": 56,
                    "time": 177.08331562499941,
                    "velocity": 0.4881889763779528,
                    "duration": 0.13888887499999214
                },
                {
                    "name": "E4",
                    "midi": 64,
                    "time": 177.2222044999994,
                    "velocity": 0.4881889763779528,
                    "duration": 0.13888887499999214
                },
                {
                    "name": "E3",
                    "midi": 52,
                    "time": 177.3610933749994,
                    "velocity": 0.4881889763779528,
                    "duration": 0.13888887499999214
                },
                {
                    "name": "E4",
                    "midi": 64,
                    "time": 177.4999822499994,
                    "velocity": 0.4881889763779528,
                    "duration": 0.13888887499999214
                },
                {
                    "name": "E3",
                    "midi": 52,
                    "time": 177.63887112499938,
                    "velocity": 0.4881889763779528,
                    "duration": 0.13888887499999214
                },
                {
                    "name": "D#4",
                    "midi": 63,
                    "time": 177.77775999999938,
                    "velocity": 0.4881889763779528,
                    "duration": 0.13888887499999214
                },
                {
                    "name": "D#3",
                    "midi": 51,
                    "time": 177.91664887499937,
                    "velocity": 0.4881889763779528,
                    "duration": 0.13888887499999214
                },
                {
                    "name": "D#4",
                    "midi": 63,
                    "time": 178.05553774999936,
                    "velocity": 0.4881889763779528,
                    "duration": 0.13888887499999214
                },
                {
                    "name": "D#3",
                    "midi": 51,
                    "time": 178.19442662499935,
                    "velocity": 0.4881889763779528,
                    "duration": 0.13888887499999214
                },
                {
                    "name": "D4",
                    "midi": 62,
                    "time": 178.33331549999934,
                    "velocity": 0.4881889763779528,
                    "duration": 0.13888887499999214
                },
                {
                    "name": "D3",
                    "midi": 50,
                    "time": 178.47220437499934,
                    "velocity": 0.4881889763779528,
                    "duration": 0.13888887499999214
                },
                {
                    "name": "D4",
                    "midi": 62,
                    "time": 178.61109324999933,
                    "velocity": 0.4881889763779528,
                    "duration": 0.13888887499999214
                },
                {
                    "name": "D3",
                    "midi": 50,
                    "time": 178.74998212499932,
                    "velocity": 0.4881889763779528,
                    "duration": 0.13888887499999214
                },
                {
                    "name": "F4",
                    "midi": 65,
                    "time": 178.8888709999993,
                    "velocity": 0.4881889763779528,
                    "duration": 0.13888887499999214
                },
                {
                    "name": "F3",
                    "midi": 53,
                    "time": 179.0277598749993,
                    "velocity": 0.4881889763779528,
                    "duration": 0.13888887499999214
                },
                {
                    "name": "F4",
                    "midi": 65,
                    "time": 179.1666487499993,
                    "velocity": 0.4881889763779528,
                    "duration": 0.13888887499999214
                },
                {
                    "name": "F3",
                    "midi": 53,
                    "time": 179.3055376249993,
                    "velocity": 0.4881889763779528,
                    "duration": 0.13888887499999214
                },
                {
                    "name": "G4",
                    "midi": 67,
                    "time": 179.44442649999928,
                    "velocity": 0.4881889763779528,
                    "duration": 0.13888887499999214
                },
                {
                    "name": "G3",
                    "midi": 55,
                    "time": 179.58331537499927,
                    "velocity": 0.4881889763779528,
                    "duration": 0.13888887499999214
                },
                {
                    "name": "G4",
                    "midi": 67,
                    "time": 179.72220424999927,
                    "velocity": 0.4881889763779528,
                    "duration": 0.13888887499999214
                },
                {
                    "name": "G3",
                    "midi": 55,
                    "time": 179.86109312499926,
                    "velocity": 0.4881889763779528,
                    "duration": 0.13888887499999214
                },
                {
                    "name": "G#4",
                    "midi": 68,
                    "time": 179.99998199999925,
                    "velocity": 0.4881889763779528,
                    "duration": 0.13888887499999214
                },
                {
                    "name": "G#3",
                    "midi": 56,
                    "time": 180.13887087499924,
                    "velocity": 0.4881889763779528,
                    "duration": 0.13888887499999214
                },
                {
                    "name": "G#4",
                    "midi": 68,
                    "time": 180.27775974999923,
                    "velocity": 0.4881889763779528,
                    "duration": 0.13888887499999214
                },
                {
                    "name": "G#3",
                    "midi": 56,
                    "time": 180.41664862499923,
                    "velocity": 0.4881889763779528,
                    "duration": 0.13888887499999214
                },
                {
                    "name": "E4",
                    "midi": 64,
                    "time": 180.55553749999922,
                    "velocity": 0.4881889763779528,
                    "duration": 0.13888887499999214
                },
                {
                    "name": "E3",
                    "midi": 52,
                    "time": 180.6944263749992,
                    "velocity": 0.4881889763779528,
                    "duration": 0.13888887499999214
                },
                {
                    "name": "E4",
                    "midi": 64,
                    "time": 180.8333152499992,
                    "velocity": 0.4881889763779528,
                    "duration": 0.13888887499999214
                },
                {
                    "name": "E3",
                    "midi": 52,
                    "time": 180.9722041249992,
                    "velocity": 0.4881889763779528,
                    "duration": 0.13888887499999214
                },
                {
                    "name": "G#4",
                    "midi": 68,
                    "time": 181.1110929999992,
                    "velocity": 0.4881889763779528,
                    "duration": 0.13888887499999214
                },
                {
                    "name": "G#3",
                    "midi": 56,
                    "time": 181.24998187499918,
                    "velocity": 0.4881889763779528,
                    "duration": 0.13888887499999214
                },
                {
                    "name": "G#4",
                    "midi": 68,
                    "time": 181.38887074999917,
                    "velocity": 0.4881889763779528,
                    "duration": 0.13888887499999214
                },
                {
                    "name": "G#3",
                    "midi": 56,
                    "time": 181.52775962499916,
                    "velocity": 0.4881889763779528,
                    "duration": 0.13888887499999214
                },
                {
                    "name": "F4",
                    "midi": 65,
                    "time": 181.66664849999916,
                    "velocity": 0.4881889763779528,
                    "duration": 0.13888887499999214
                },
                {
                    "name": "F3",
                    "midi": 53,
                    "time": 181.80553737499915,
                    "velocity": 0.4881889763779528,
                    "duration": 0.13888887499999214
                },
                {
                    "name": "F4",
                    "midi": 65,
                    "time": 181.94442624999914,
                    "velocity": 0.4881889763779528,
                    "duration": 0.13888887499999214
                },
                {
                    "name": "F3",
                    "midi": 53,
                    "time": 182.08331512499913,
                    "velocity": 0.4881889763779528,
                    "duration": 0.13888887499999214
                },
                {
                    "name": "A4",
                    "midi": 69,
                    "time": 182.22220399999912,
                    "velocity": 0.4881889763779528,
                    "duration": 0.13888887499999214
                },
                {
                    "name": "A3",
                    "midi": 57,
                    "time": 182.36109287499912,
                    "velocity": 0.4881889763779528,
                    "duration": 0.13888887499999214
                },
                {
                    "name": "A4",
                    "midi": 69,
                    "time": 182.4999817499991,
                    "velocity": 0.4881889763779528,
                    "duration": 0.13888887499999214
                },
                {
                    "name": "A3",
                    "midi": 57,
                    "time": 182.6388706249991,
                    "velocity": 0.4881889763779528,
                    "duration": 0.13888887499999214
                },
                {
                    "name": "D5",
                    "midi": 74,
                    "time": 182.7777594999991,
                    "velocity": 0.4881889763779528,
                    "duration": 0.13888887499999214
                },
                {
                    "name": "D4",
                    "midi": 62,
                    "time": 182.91664837499908,
                    "velocity": 0.4881889763779528,
                    "duration": 0.13888887499999214
                },
                {
                    "name": "D5",
                    "midi": 74,
                    "time": 183.05553724999908,
                    "velocity": 0.4881889763779528,
                    "duration": 0.13888887499999214
                },
                {
                    "name": "D4",
                    "midi": 62,
                    "time": 183.19442612499907,
                    "velocity": 0.4881889763779528,
                    "duration": 0.13888887499999214
                },
                {
                    "name": "G#4",
                    "midi": 68,
                    "time": 183.33331499999906,
                    "velocity": 0.4881889763779528,
                    "duration": 0.13888887499999214
                },
                {
                    "name": "G#3",
                    "midi": 56,
                    "time": 183.47220387499905,
                    "velocity": 0.4881889763779528,
                    "duration": 0.13888887499999214
                },
                {
                    "name": "G#4",
                    "midi": 68,
                    "time": 183.61109274999905,
                    "velocity": 0.4881889763779528,
                    "duration": 0.13888887499999214
                },
                {
                    "name": "G#3",
                    "midi": 56,
                    "time": 183.74998162499904,
                    "velocity": 0.4881889763779528,
                    "duration": 0.13888887499999214
                },
                {
                    "name": "E4",
                    "midi": 64,
                    "time": 183.88887049999903,
                    "velocity": 0.4881889763779528,
                    "duration": 0.13888887499999214
                },
                {
                    "name": "E3",
                    "midi": 52,
                    "time": 184.02775937499902,
                    "velocity": 0.4881889763779528,
                    "duration": 0.13888887499999214
                },
                {
                    "name": "E4",
                    "midi": 64,
                    "time": 184.166648249999,
                    "velocity": 0.4881889763779528,
                    "duration": 0.13888887499999214
                },
                {
                    "name": "E3",
                    "midi": 52,
                    "time": 184.305537124999,
                    "velocity": 0.4881889763779528,
                    "duration": 0.13888887499999214
                },
                {
                    "name": "D#4",
                    "midi": 63,
                    "time": 184.444425999999,
                    "velocity": 0.4881889763779528,
                    "duration": 0.13888887499999214
                },
                {
                    "name": "D#3",
                    "midi": 51,
                    "time": 184.583314874999,
                    "velocity": 0.4881889763779528,
                    "duration": 0.13888887499999214
                },
                {
                    "name": "D#4",
                    "midi": 63,
                    "time": 184.72220374999898,
                    "velocity": 0.4881889763779528,
                    "duration": 0.13888887499999214
                },
                {
                    "name": "D#3",
                    "midi": 51,
                    "time": 184.86109262499897,
                    "velocity": 0.4881889763779528,
                    "duration": 0.13888887499999214
                },
                {
                    "name": "D4",
                    "midi": 62,
                    "time": 184.99998149999897,
                    "velocity": 0.4881889763779528,
                    "duration": 0.13888887499999214
                },
                {
                    "name": "D3",
                    "midi": 50,
                    "time": 185.13887037499896,
                    "velocity": 0.4881889763779528,
                    "duration": 0.13888887499999214
                },
                {
                    "name": "D4",
                    "midi": 62,
                    "time": 185.27775924999895,
                    "velocity": 0.4881889763779528,
                    "duration": 0.13888887499999214
                },
                {
                    "name": "D3",
                    "midi": 50,
                    "time": 185.41664812499894,
                    "velocity": 0.4881889763779528,
                    "duration": 0.13888887499999214
                },
                {
                    "name": "F4",
                    "midi": 65,
                    "time": 185.55553699999894,
                    "velocity": 0.4881889763779528,
                    "duration": 0.13888887499999214
                },
                {
                    "name": "F3",
                    "midi": 53,
                    "time": 185.69442587499893,
                    "velocity": 0.4881889763779528,
                    "duration": 0.13888887499999214
                },
                {
                    "name": "F4",
                    "midi": 65,
                    "time": 185.83331474999892,
                    "velocity": 0.4881889763779528,
                    "duration": 0.13888887499999214
                },
                {
                    "name": "F3",
                    "midi": 53,
                    "time": 185.9722036249989,
                    "velocity": 0.4881889763779528,
                    "duration": 0.13888887499999214
                },
                {
                    "name": "G4",
                    "midi": 67,
                    "time": 186.1110924999989,
                    "velocity": 0.4881889763779528,
                    "duration": 0.13888887499999214
                },
                {
                    "name": "G3",
                    "midi": 55,
                    "time": 186.2499813749989,
                    "velocity": 0.4881889763779528,
                    "duration": 0.13888887499999214
                },
                {
                    "name": "G4",
                    "midi": 67,
                    "time": 186.3888702499989,
                    "velocity": 0.4881889763779528,
                    "duration": 0.13888887499999214
                },
                {
                    "name": "G3",
                    "midi": 55,
                    "time": 186.52775912499888,
                    "velocity": 0.4881889763779528,
                    "duration": 0.13888887499999214
                },
                {
                    "name": "G#4",
                    "midi": 68,
                    "time": 186.66664799999887,
                    "velocity": 0.4881889763779528,
                    "duration": 0.13888887499999214
                },
                {
                    "name": "G#3",
                    "midi": 56,
                    "time": 186.80553687499886,
                    "velocity": 0.4881889763779528,
                    "duration": 0.13888887499999214
                },
                {
                    "name": "G#4",
                    "midi": 68,
                    "time": 186.94442574999886,
                    "velocity": 0.4881889763779528,
                    "duration": 0.13888887499999214
                },
                {
                    "name": "G#3",
                    "midi": 56,
                    "time": 187.08331462499885,
                    "velocity": 0.4881889763779528,
                    "duration": 0.13888887499999214
                },
                {
                    "name": "E4",
                    "midi": 64,
                    "time": 187.22220349999884,
                    "velocity": 0.4881889763779528,
                    "duration": 0.13888887499999214
                },
                {
                    "name": "E3",
                    "midi": 52,
                    "time": 187.36109237499883,
                    "velocity": 0.4881889763779528,
                    "duration": 0.13888887499999214
                },
                {
                    "name": "E4",
                    "midi": 64,
                    "time": 187.49998124999883,
                    "velocity": 0.4881889763779528,
                    "duration": 0.13888887499999214
                },
                {
                    "name": "E3",
                    "midi": 52,
                    "time": 187.63887012499882,
                    "velocity": 0.4881889763779528,
                    "duration": 0.13888887499999214
                },
                {
                    "name": "G#4",
                    "midi": 68,
                    "time": 187.7777589999988,
                    "velocity": 0.4881889763779528,
                    "duration": 0.13888887499999214
                },
                {
                    "name": "G#3",
                    "midi": 56,
                    "time": 187.9166478749988,
                    "velocity": 0.4881889763779528,
                    "duration": 0.13888887499999214
                },
                {
                    "name": "G#4",
                    "midi": 68,
                    "time": 188.0555367499988,
                    "velocity": 0.4881889763779528,
                    "duration": 0.13888887499999214
                },
                {
                    "name": "G#3",
                    "midi": 56,
                    "time": 188.1944256249988,
                    "velocity": 0.4881889763779528,
                    "duration": 0.13888887499999214
                },
                {
                    "name": "F4",
                    "midi": 65,
                    "time": 188.33331449999878,
                    "velocity": 0.4881889763779528,
                    "duration": 0.13888887499999214
                },
                {
                    "name": "F3",
                    "midi": 53,
                    "time": 188.47220337499877,
                    "velocity": 0.4881889763779528,
                    "duration": 0.13888887499999214
                },
                {
                    "name": "F4",
                    "midi": 65,
                    "time": 188.61109224999876,
                    "velocity": 0.4881889763779528,
                    "duration": 0.13888887499999214
                },
                {
                    "name": "F3",
                    "midi": 53,
                    "time": 188.74998112499875,
                    "velocity": 0.4881889763779528,
                    "duration": 0.13888887499999214
                },
                {
                    "name": "A4",
                    "midi": 69,
                    "time": 188.88886999999875,
                    "velocity": 0.4881889763779528,
                    "duration": 0.13888887499999214
                },
                {
                    "name": "A3",
                    "midi": 57,
                    "time": 189.02775887499874,
                    "velocity": 0.4881889763779528,
                    "duration": 0.13888887499999214
                },
                {
                    "name": "A4",
                    "midi": 69,
                    "time": 189.16664774999873,
                    "velocity": 0.4881889763779528,
                    "duration": 0.13888887499999214
                },
                {
                    "name": "A3",
                    "midi": 57,
                    "time": 189.30553662499872,
                    "velocity": 0.4881889763779528,
                    "duration": 0.13888887499999214
                },
                {
                    "name": "D5",
                    "midi": 74,
                    "time": 189.44442549999872,
                    "velocity": 0.4881889763779528,
                    "duration": 0.13888887499999214
                },
                {
                    "name": "D4",
                    "midi": 62,
                    "time": 189.5833143749987,
                    "velocity": 0.4881889763779528,
                    "duration": 0.13888887499999214
                },
                {
                    "name": "D5",
                    "midi": 74,
                    "time": 189.7222032499987,
                    "velocity": 0.4881889763779528,
                    "duration": 0.13888887499999214
                },
                {
                    "name": "D4",
                    "midi": 62,
                    "time": 189.8610921249987,
                    "velocity": 0.4881889763779528,
                    "duration": 0.13888887499999214
                },
                {
                    "name": "A4",
                    "midi": 69,
                    "time": 189.99998099999868,
                    "velocity": 0.4881889763779528,
                    "duration": 0.13888887499999214
                },
                {
                    "name": "A3",
                    "midi": 57,
                    "time": 190.13886987499868,
                    "velocity": 0.4881889763779528,
                    "duration": 0.13888887499999214
                },
                {
                    "name": "A4",
                    "midi": 69,
                    "time": 190.27775874999867,
                    "velocity": 0.4881889763779528,
                    "duration": 0.13888887499999214
                },
                {
                    "name": "A3",
                    "midi": 57,
                    "time": 190.41664762499866,
                    "velocity": 0.4881889763779528,
                    "duration": 0.13888887499999214
                },
                {
                    "name": "F4",
                    "midi": 65,
                    "time": 190.55553649999865,
                    "velocity": 0.4881889763779528,
                    "duration": 0.13888887499999214
                },
                {
                    "name": "F3",
                    "midi": 53,
                    "time": 190.69442537499864,
                    "velocity": 0.4881889763779528,
                    "duration": 0.13888887499999214
                },
                {
                    "name": "F4",
                    "midi": 65,
                    "time": 190.83331424999864,
                    "velocity": 0.4881889763779528,
                    "duration": 0.13888887499999214
                },
                {
                    "name": "F3",
                    "midi": 53,
                    "time": 190.97220312499863,
                    "velocity": 0.4881889763779528,
                    "duration": 0.13888887499999214
                },
                {
                    "name": "A4",
                    "midi": 69,
                    "time": 191.11109199999862,
                    "velocity": 0.4881889763779528,
                    "duration": 0.13888887499999214
                },
                {
                    "name": "A3",
                    "midi": 57,
                    "time": 191.2499808749986,
                    "velocity": 0.4881889763779528,
                    "duration": 0.13888887499999214
                },
                {
                    "name": "A4",
                    "midi": 69,
                    "time": 191.3888697499986,
                    "velocity": 0.4881889763779528,
                    "duration": 0.13888887499999214
                },
                {
                    "name": "A3",
                    "midi": 57,
                    "time": 191.5277586249986,
                    "velocity": 0.4881889763779528,
                    "duration": 0.13888887499999214
                },
                {
                    "name": "F#4",
                    "midi": 66,
                    "time": 191.6666474999986,
                    "velocity": 0.4881889763779528,
                    "duration": 0.13888887499999214
                },
                {
                    "name": "F#3",
                    "midi": 54,
                    "time": 191.80553637499858,
                    "velocity": 0.4881889763779528,
                    "duration": 0.13888887499999214
                },
                {
                    "name": "F#4",
                    "midi": 66,
                    "time": 191.94442524999857,
                    "velocity": 0.4881889763779528,
                    "duration": 0.13888887499999214
                },
                {
                    "name": "F#3",
                    "midi": 54,
                    "time": 192.08331412499857,
                    "velocity": 0.4881889763779528,
                    "duration": 0.13888887499999214
                },
                {
                    "name": "A#4",
                    "midi": 70,
                    "time": 192.22220299999856,
                    "velocity": 0.4881889763779528,
                    "duration": 0.13888887499999214
                },
                {
                    "name": "A#3",
                    "midi": 58,
                    "time": 192.36109187499855,
                    "velocity": 0.4881889763779528,
                    "duration": 0.13888887499999214
                },
                {
                    "name": "A#4",
                    "midi": 70,
                    "time": 192.49998074999854,
                    "velocity": 0.4881889763779528,
                    "duration": 0.13888887499999214
                },
                {
                    "name": "A#3",
                    "midi": 58,
                    "time": 192.63886962499853,
                    "velocity": 0.4881889763779528,
                    "duration": 0.13888887499999214
                },
                {
                    "name": "D#5",
                    "midi": 75,
                    "time": 192.77775849999853,
                    "velocity": 0.4881889763779528,
                    "duration": 0.13888887499999214
                },
                {
                    "name": "D#4",
                    "midi": 63,
                    "time": 192.91664737499852,
                    "velocity": 0.4881889763779528,
                    "duration": 0.13888887499999214
                },
                {
                    "name": "D#5",
                    "midi": 75,
                    "time": 193.0555362499985,
                    "velocity": 0.4881889763779528,
                    "duration": 0.13888887499999214
                },
                {
                    "name": "D#4",
                    "midi": 63,
                    "time": 193.1944251249985,
                    "velocity": 0.4881889763779528,
                    "duration": 0.13888887499999214
                },
                {
                    "name": "A4",
                    "midi": 69,
                    "time": 193.3333139999985,
                    "velocity": 0.4881889763779528,
                    "duration": 0.13888887499999214
                },
                {
                    "name": "A3",
                    "midi": 57,
                    "time": 193.4722028749985,
                    "velocity": 0.4881889763779528,
                    "duration": 0.13888887499999214
                },
                {
                    "name": "A4",
                    "midi": 69,
                    "time": 193.61109174999848,
                    "velocity": 0.4881889763779528,
                    "duration": 0.13888887499999214
                },
                {
                    "name": "A3",
                    "midi": 57,
                    "time": 193.74998062499847,
                    "velocity": 0.4881889763779528,
                    "duration": 0.13888887499999214
                },
                {
                    "name": "F4",
                    "midi": 65,
                    "time": 193.88886949999846,
                    "velocity": 0.4881889763779528,
                    "duration": 0.13888887499999214
                },
                {
                    "name": "F3",
                    "midi": 53,
                    "time": 194.02775837499846,
                    "velocity": 0.4881889763779528,
                    "duration": 0.13888887499999214
                },
                {
                    "name": "F4",
                    "midi": 65,
                    "time": 194.16664724999845,
                    "velocity": 0.4881889763779528,
                    "duration": 0.13888887499999214
                },
                {
                    "name": "F3",
                    "midi": 53,
                    "time": 194.30553612499844,
                    "velocity": 0.4881889763779528,
                    "duration": 0.13888887499999214
                },
                {
                    "name": "A4",
                    "midi": 69,
                    "time": 194.44442499999843,
                    "velocity": 0.4881889763779528,
                    "duration": 0.13888887499999214
                },
                {
                    "name": "A3",
                    "midi": 57,
                    "time": 194.58331387499842,
                    "velocity": 0.4881889763779528,
                    "duration": 0.13888887499999214
                },
                {
                    "name": "A4",
                    "midi": 69,
                    "time": 194.72220274999842,
                    "velocity": 0.4881889763779528,
                    "duration": 0.13888887499999214
                },
                {
                    "name": "A3",
                    "midi": 57,
                    "time": 194.8610916249984,
                    "velocity": 0.4881889763779528,
                    "duration": 0.13888887499999214
                },
                {
                    "name": "F#4",
                    "midi": 66,
                    "time": 194.9999804999984,
                    "velocity": 0.4881889763779528,
                    "duration": 0.13888887499999214
                },
                {
                    "name": "F#3",
                    "midi": 54,
                    "time": 195.1388693749984,
                    "velocity": 0.4881889763779528,
                    "duration": 0.13888887499999214
                },
                {
                    "name": "F#4",
                    "midi": 66,
                    "time": 195.27775824999839,
                    "velocity": 0.4881889763779528,
                    "duration": 0.13888887499999214
                },
                {
                    "name": "F#3",
                    "midi": 54,
                    "time": 195.41664712499838,
                    "velocity": 0.4881889763779528,
                    "duration": 0.13888887499999214
                },
                {
                    "name": "A#4",
                    "midi": 70,
                    "time": 195.55553599999837,
                    "velocity": 0.4881889763779528,
                    "duration": 0.13888887499999214
                },
                {
                    "name": "A#3",
                    "midi": 58,
                    "time": 195.69442487499836,
                    "velocity": 0.4881889763779528,
                    "duration": 0.13888887499999214
                },
                {
                    "name": "A#4",
                    "midi": 70,
                    "time": 195.83331374999835,
                    "velocity": 0.4881889763779528,
                    "duration": 0.13888887499999214
                },
                {
                    "name": "A#3",
                    "midi": 58,
                    "time": 195.97220262499835,
                    "velocity": 0.4881889763779528,
                    "duration": 0.13888887499999214
                },
                {
                    "name": "D#5",
                    "midi": 75,
                    "time": 196.11109149999834,
                    "velocity": 0.4881889763779528,
                    "duration": 0.13888887499999214
                },
                {
                    "name": "D#4",
                    "midi": 63,
                    "time": 196.24998037499833,
                    "velocity": 0.4881889763779528,
                    "duration": 0.13888887499999214
                },
                {
                    "name": "D#5",
                    "midi": 75,
                    "time": 196.38886924999832,
                    "velocity": 0.4881889763779528,
                    "duration": 0.13888887499999214
                },
                {
                    "name": "D#4",
                    "midi": 63,
                    "time": 196.52775812499831,
                    "velocity": 0.4881889763779528,
                    "duration": 0.13888887499999214
                },
                {
                    "name": "G4",
                    "midi": 67,
                    "time": 196.6666469999983,
                    "velocity": 0.4881889763779528,
                    "duration": 0.13888887499999214
                },
                {
                    "name": "G3",
                    "midi": 55,
                    "time": 196.8055358749983,
                    "velocity": 0.4881889763779528,
                    "duration": 0.13888887499999214
                },
                {
                    "name": "G4",
                    "midi": 67,
                    "time": 196.9444247499983,
                    "velocity": 0.4881889763779528,
                    "duration": 0.13888887499999214
                },
                {
                    "name": "G3",
                    "midi": 55,
                    "time": 197.08331362499828,
                    "velocity": 0.4881889763779528,
                    "duration": 0.13888887499999214
                },
                {
                    "name": "B4",
                    "midi": 71,
                    "time": 197.22220249999828,
                    "velocity": 0.4881889763779528,
                    "duration": 0.13888887499999214
                },
                {
                    "name": "B3",
                    "midi": 59,
                    "time": 197.36109137499827,
                    "velocity": 0.4881889763779528,
                    "duration": 0.13888887499999214
                },
                {
                    "name": "B4",
                    "midi": 71,
                    "time": 197.49998024999826,
                    "velocity": 0.4881889763779528,
                    "duration": 0.13888887499999214
                },
                {
                    "name": "B3",
                    "midi": 59,
                    "time": 197.63886912499825,
                    "velocity": 0.4881889763779528,
                    "duration": 0.13888887499999214
                },
                {
                    "name": "E5",
                    "midi": 76,
                    "time": 197.77775799999824,
                    "velocity": 0.4881889763779528,
                    "duration": 0.13888887499999214
                },
                {
                    "name": "E4",
                    "midi": 64,
                    "time": 197.91664687499824,
                    "velocity": 0.4881889763779528,
                    "duration": 0.13888887499999214
                },
                {
                    "name": "E5",
                    "midi": 76,
                    "time": 198.05553574999823,
                    "velocity": 0.4881889763779528,
                    "duration": 0.13888887499999214
                },
                {
                    "name": "E4",
                    "midi": 64,
                    "time": 198.19442462499822,
                    "velocity": 0.4881889763779528,
                    "duration": 0.13888887499999214
                },
                {
                    "name": "G4",
                    "midi": 67,
                    "time": 198.3333134999982,
                    "velocity": 0.4881889763779528,
                    "duration": 0.13888887499999214
                },
                {
                    "name": "G3",
                    "midi": 55,
                    "time": 198.4722023749982,
                    "velocity": 0.4881889763779528,
                    "duration": 0.13888887499999214
                },
                {
                    "name": "G4",
                    "midi": 67,
                    "time": 198.6110912499982,
                    "velocity": 0.4881889763779528,
                    "duration": 0.13888887499999214
                },
                {
                    "name": "G3",
                    "midi": 55,
                    "time": 198.7499801249982,
                    "velocity": 0.4881889763779528,
                    "duration": 0.13888887499999214
                },
                {
                    "name": "B4",
                    "midi": 71,
                    "time": 198.88886899999818,
                    "velocity": 0.4881889763779528,
                    "duration": 0.13888887499999214
                },
                {
                    "name": "B3",
                    "midi": 59,
                    "time": 199.02775787499817,
                    "velocity": 0.4881889763779528,
                    "duration": 0.13888887499999214
                },
                {
                    "name": "B4",
                    "midi": 71,
                    "time": 199.16664674999816,
                    "velocity": 0.4881889763779528,
                    "duration": 0.13888887499999214
                },
                {
                    "name": "B3",
                    "midi": 59,
                    "time": 199.30553562499816,
                    "velocity": 0.4881889763779528,
                    "duration": 0.13888887499999214
                },
                {
                    "name": "E5",
                    "midi": 76,
                    "time": 199.44442449999815,
                    "velocity": 0.4881889763779528,
                    "duration": 0.13888887499999214
                },
                {
                    "name": "E4",
                    "midi": 64,
                    "time": 199.58331337499814,
                    "velocity": 0.4881889763779528,
                    "duration": 0.13888887499999214
                },
                {
                    "name": "E5",
                    "midi": 76,
                    "time": 199.72220224999813,
                    "velocity": 0.4881889763779528,
                    "duration": 0.13888887499999214
                },
                {
                    "name": "E4",
                    "midi": 64,
                    "time": 199.86109112499813,
                    "velocity": 0.4881889763779528,
                    "duration": 0.13888887499999214
                },
                {
                    "name": "C5",
                    "midi": 72,
                    "time": 199.99997999999812,
                    "velocity": 0.4881889763779528,
                    "duration": 0.555555499999997
                },
                {
                    "name": "A4",
                    "midi": 69,
                    "time": 200.55553549999811,
                    "velocity": 0.4881889763779528,
                    "duration": 0.555555499999997
                },
                {
                    "name": "A#4",
                    "midi": 70,
                    "time": 201.1110909999981,
                    "velocity": 0.4881889763779528,
                    "duration": 0.555555499999997
                },
                {
                    "name": "F#4",
                    "midi": 66,
                    "time": 201.6666464999981,
                    "velocity": 0.4881889763779528,
                    "duration": 0.555555499999997
                },
                {
                    "name": "G4",
                    "midi": 67,
                    "time": 202.2222019999981,
                    "velocity": 0.4881889763779528,
                    "duration": 0.555555499999997
                },
                {
                    "name": "E4",
                    "midi": 64,
                    "time": 202.7777574999981,
                    "velocity": 0.4881889763779528,
                    "duration": 0.555555499999997
                },
                {
                    "name": "C#4",
                    "midi": 61,
                    "time": 203.3333129999981,
                    "velocity": 0.4881889763779528,
                    "duration": 0.555555499999997
                },
                {
                    "name": "F4",
                    "midi": 65,
                    "time": 203.8888684999981,
                    "velocity": 0.4881889763779528,
                    "duration": 0.555555499999997
                },
                {
                    "name": "D4",
                    "midi": 62,
                    "time": 204.4444239999981,
                    "velocity": 0.4881889763779528,
                    "duration": 0.555555499999997
                },
                {
                    "name": "B3",
                    "midi": 59,
                    "time": 204.9999794999981,
                    "velocity": 0.4881889763779528,
                    "duration": 0.555555499999997
                },
                {
                    "name": "G#3",
                    "midi": 56,
                    "time": 205.5555349999981,
                    "velocity": 0.4881889763779528,
                    "duration": 0.555555499999997
                },
                {
                    "name": "C4",
                    "midi": 60,
                    "time": 206.11109049999808,
                    "velocity": 0.4881889763779528,
                    "duration": 0.555555499999997
                },
                {
                    "name": "F#3",
                    "midi": 54,
                    "time": 206.66664599999808,
                    "velocity": 0.3858267716535433,
                    "duration": 3.3333330000000103
                },
                {
                    "name": "F#4",
                    "midi": 66,
                    "time": 206.66664599999808,
                    "velocity": 0.3858267716535433,
                    "duration": 3.3333330000000103
                },
                {
                    "name": "A3",
                    "midi": 57,
                    "time": 209.9999789999981,
                    "velocity": 0.3858267716535433,
                    "duration": 3.3333330000000103
                },
                {
                    "name": "D#4",
                    "midi": 63,
                    "time": 209.9999789999981,
                    "velocity": 0.3858267716535433,
                    "duration": 3.3333330000000103
                },
                {
                    "name": "C#4",
                    "midi": 61,
                    "time": 213.3333119999981,
                    "velocity": 0.3858267716535433,
                    "duration": 0.1851851666666562
                },
                {
                    "name": "F#4",
                    "midi": 66,
                    "time": 213.51849716666476,
                    "velocity": 0.3858267716535433,
                    "duration": 0.18287035208334146
                },
                {
                    "name": "C4",
                    "midi": 60,
                    "time": 213.7013675187481,
                    "velocity": 0.3858267716535433,
                    "duration": 1.2986109812499933
                },
                {
                    "name": "C4",
                    "midi": 60,
                    "time": 214.9999784999981,
                    "velocity": 0.3858267716535433,
                    "duration": 0.555555499999997
                },
                {
                    "name": "C#4",
                    "midi": 61,
                    "time": 215.5555339999981,
                    "velocity": 0.3858267716535433,
                    "duration": 0.555555499999997
                },
                {
                    "name": "C4",
                    "midi": 60,
                    "time": 216.1110894999981,
                    "velocity": 0.3858267716535433,
                    "duration": 0.7407406666666532
                },
                {
                    "name": "F#4",
                    "midi": 66,
                    "time": 216.85183016666474,
                    "velocity": 0.3858267716535433,
                    "duration": 0.18287035208334146
                },
                {
                    "name": "C#4",
                    "midi": 61,
                    "time": 217.03470051874808,
                    "velocity": 0.3858267716535433,
                    "duration": 0.7430554812499963
                },
                {
                    "name": "D#5",
                    "midi": 75,
                    "time": 217.77775599999808,
                    "velocity": 0.3858267716535433,
                    "duration": 0.13888887499999214
                },
                {
                    "name": "C#5",
                    "midi": 73,
                    "time": 217.91664487499807,
                    "velocity": 0.3858267716535433,
                    "duration": 0.13888887499999214
                },
                {
                    "name": "D#5",
                    "midi": 75,
                    "time": 218.05553374999806,
                    "velocity": 0.3858267716535433,
                    "duration": 0.13888887499999214
                },
                {
                    "name": "C#5",
                    "midi": 73,
                    "time": 218.19442262499805,
                    "velocity": 0.3858267716535433,
                    "duration": 0.13888887499999214
                },
                {
                    "name": "C#6",
                    "midi": 85,
                    "time": 218.33331149999805,
                    "velocity": 0.3858267716535433,
                    "duration": 0.15046294791667947
                },
                {
                    "name": "D#6",
                    "midi": 87,
                    "time": 218.33331149999805,
                    "velocity": 0.3858267716535433,
                    "duration": 0.15046294791667947
                },
                {
                    "name": "F6",
                    "midi": 89,
                    "time": 218.48377444791473,
                    "velocity": 0.3858267716535433,
                    "duration": 0.15046294791667947
                },
                {
                    "name": "C#6",
                    "midi": 85,
                    "time": 218.6342373958314,
                    "velocity": 0.3858267716535433,
                    "duration": 0.1527777624999942
                },
                {
                    "name": "F5",
                    "midi": 77,
                    "time": 218.7870151583314,
                    "velocity": 0.3858267716535433,
                    "duration": 0.1527777624999942
                },
                {
                    "name": "F#5",
                    "midi": 78,
                    "time": 218.9397929208314,
                    "velocity": 0.3858267716535433,
                    "duration": 0.15046294791667947
                },
                {
                    "name": "C6",
                    "midi": 84,
                    "time": 219.09025586874807,
                    "velocity": 0.3858267716535433,
                    "duration": 0.15046294791667947
                },
                {
                    "name": "G6",
                    "midi": 91,
                    "time": 219.24071881666475,
                    "velocity": 0.3858267716535433,
                    "duration": 0.15046294791667947
                },
                {
                    "name": "B5",
                    "midi": 83,
                    "time": 219.39118176458143,
                    "velocity": 0.3858267716535433,
                    "duration": 0.1527777624999942
                },
                {
                    "name": "G5",
                    "midi": 79,
                    "time": 219.54395952708143,
                    "velocity": 0.3858267716535433,
                    "duration": 0.1527777624999942
                },
                {
                    "name": "B4",
                    "midi": 71,
                    "time": 219.69673728958142,
                    "velocity": 0.3858267716535433,
                    "duration": 0.15046294791667947
                },
                {
                    "name": "G5",
                    "midi": 79,
                    "time": 219.8472002374981,
                    "velocity": 0.3858267716535433,
                    "duration": 0.1527777624999942
                },
                {
                    "name": "G5",
                    "midi": 79,
                    "time": 220.30784833958143,
                    "velocity": 0.3858267716535433,
                    "duration": 0.15509257708333735
                },
                {
                    "name": "D#5",
                    "midi": 75,
                    "time": 220.46294091666476,
                    "velocity": 0.3858267716535433,
                    "duration": 0.1527777624999942
                },
                {
                    "name": "G4",
                    "midi": 67,
                    "time": 220.61571867916476,
                    "velocity": 0.3858267716535433,
                    "duration": 0.15509257708333735
                },
                {
                    "name": "G#4",
                    "midi": 68,
                    "time": 220.7708112562481,
                    "velocity": 0.3858267716535433,
                    "duration": 0.1527777624999942
                },
                {
                    "name": "D5",
                    "midi": 74,
                    "time": 220.9235890187481,
                    "velocity": 0.3858267716535433,
                    "duration": 0.15509257708333735
                },
                {
                    "name": "A5",
                    "midi": 81,
                    "time": 221.07868159583143,
                    "velocity": 0.3858267716535433,
                    "duration": 0.15509257708333735
                },
                {
                    "name": "C#5",
                    "midi": 73,
                    "time": 221.23377417291476,
                    "velocity": 0.3858267716535433,
                    "duration": 0.15509257708333735
                },
                {
                    "name": "A6",
                    "midi": 93,
                    "time": 221.23377417291476,
                    "velocity": 0.3858267716535433,
                    "duration": 0.15509257708333735
                },
                {
                    "name": "G#4",
                    "midi": 68,
                    "time": 221.3888667499981,
                    "velocity": 0.3858267716535433,
                    "duration": 0.1527777624999942
                },
                {
                    "name": "F6",
                    "midi": 89,
                    "time": 221.3888667499981,
                    "velocity": 0.3858267716535433,
                    "duration": 0.1527777624999942
                },
                {
                    "name": "A5",
                    "midi": 81,
                    "time": 221.5416445124981,
                    "velocity": 0.3858267716535433,
                    "duration": 0.15509257708333735
                },
                {
                    "name": "A#5",
                    "midi": 82,
                    "time": 221.69673708958143,
                    "velocity": 0.3858267716535433,
                    "duration": 0.15509257708333735
                },
                {
                    "name": "E6",
                    "midi": 88,
                    "time": 221.85182966666477,
                    "velocity": 0.3858267716535433,
                    "duration": 0.1527777624999942
                },
                {
                    "name": "B6",
                    "midi": 95,
                    "time": 222.00460742916476,
                    "velocity": 0.3858267716535433,
                    "duration": 0.15509257708333735
                },
                {
                    "name": "D#6",
                    "midi": 87,
                    "time": 222.1597000062481,
                    "velocity": 0.3858267716535433,
                    "duration": 0.1527777624999942
                },
                {
                    "name": "B5",
                    "midi": 83,
                    "time": 222.3124777687481,
                    "velocity": 0.3858267716535433,
                    "duration": 0.15509257708333735
                },
                {
                    "name": "D#5",
                    "midi": 75,
                    "time": 222.46757034583143,
                    "velocity": 0.3858267716535433,
                    "duration": 0.15509257708333735
                },
                {
                    "name": "B5",
                    "midi": 83,
                    "time": 222.62266292291477,
                    "velocity": 0.3858267716535433,
                    "duration": 0.15509257708333735
                }
            ],
            "controlChanges": {
                "7": [
                    {
                        "number": 7,
                        "time": 0,
                        "value": 1
                    }
                ],
                "10": [
                    {
                        "number": 10,
                        "time": 0,
                        "value": 0.7637795275590551
                    }
                ],
                "64": [
                    {
                        "number": 64,
                        "time": 222.7777554999981,
                        "value": 1
                    },
                    {
                        "number": 64,
                        "time": 223.8888664999981,
                        "value": 0
                    }
                ]
            },
            "id": 1,
            "name": "Grand Piano",
            "instrumentNumber": 0,
            "instrument": "acoustic grand piano",
            "instrumentFamily": "piano",
            "channelNumber": 0,
            "isPercussion": false
        },
        {
            "startTime": 26.666663999999997,
            "duration": 213.33331199999978,
            "length": 190,
            "notes": [
                {
                    "name": "G#2",
                    "midi": 44,
                    "time": 26.666663999999997,
                    "velocity": 0.3858267716535433,
                    "duration": 2.4999997500000006
                },
                {
                    "name": "B2",
                    "midi": 47,
                    "time": 26.666663999999997,
                    "velocity": 0.3858267716535433,
                    "duration": 2.4999997500000006
                },
                {
                    "name": "A#2",
                    "midi": 46,
                    "time": 29.166663749999998,
                    "velocity": 0.3858267716535433,
                    "duration": 0.833333249999999
                },
                {
                    "name": "D3",
                    "midi": 50,
                    "time": 29.166663749999998,
                    "velocity": 0.3858267716535433,
                    "duration": 0.833333249999999
                },
                {
                    "name": "G#2",
                    "midi": 44,
                    "time": 29.999996999999997,
                    "velocity": 0.3858267716535433,
                    "duration": 1.6666665000000016
                },
                {
                    "name": "B2",
                    "midi": 47,
                    "time": 29.999996999999997,
                    "velocity": 0.3858267716535433,
                    "duration": 1.6666665000000016
                },
                {
                    "name": "A#2",
                    "midi": 46,
                    "time": 31.6666635,
                    "velocity": 0.3858267716535433,
                    "duration": 1.666666499999998
                },
                {
                    "name": "D3",
                    "midi": 50,
                    "time": 31.6666635,
                    "velocity": 0.3858267716535433,
                    "duration": 1.666666499999998
                },
                {
                    "name": "G#2",
                    "midi": 44,
                    "time": 33.33333,
                    "velocity": 0.3858267716535433,
                    "duration": 2.4999997500000006
                },
                {
                    "name": "B2",
                    "midi": 47,
                    "time": 33.33333,
                    "velocity": 0.3858267716535433,
                    "duration": 2.4999997500000006
                },
                {
                    "name": "A#2",
                    "midi": 46,
                    "time": 35.83332975,
                    "velocity": 0.3858267716535433,
                    "duration": 0.8333332500000026
                },
                {
                    "name": "D3",
                    "midi": 50,
                    "time": 35.83332975,
                    "velocity": 0.3858267716535433,
                    "duration": 0.8333332500000026
                },
                {
                    "name": "G#2",
                    "midi": 44,
                    "time": 36.666663,
                    "velocity": 0.3858267716535433,
                    "duration": 2.4999997500000006
                },
                {
                    "name": "B2",
                    "midi": 47,
                    "time": 36.666663,
                    "velocity": 0.3858267716535433,
                    "duration": 2.4999997500000006
                },
                {
                    "name": "A#2",
                    "midi": 46,
                    "time": 39.16666275,
                    "velocity": 0.3858267716535433,
                    "duration": 0.8333332500000026
                },
                {
                    "name": "D3",
                    "midi": 50,
                    "time": 39.16666275,
                    "velocity": 0.3858267716535433,
                    "duration": 0.8333332500000026
                },
                {
                    "name": "G#2",
                    "midi": 44,
                    "time": 39.999996,
                    "velocity": 0.3858267716535433,
                    "duration": 1.666666499999998
                },
                {
                    "name": "B2",
                    "midi": 47,
                    "time": 39.999996,
                    "velocity": 0.3858267716535433,
                    "duration": 1.666666499999998
                },
                {
                    "name": "G#2",
                    "midi": 44,
                    "time": 53.333328,
                    "velocity": 0.3858267716535433,
                    "duration": 2.4999997500000006
                },
                {
                    "name": "B2",
                    "midi": 47,
                    "time": 53.333328,
                    "velocity": 0.3858267716535433,
                    "duration": 2.4999997500000006
                },
                {
                    "name": "A#2",
                    "midi": 46,
                    "time": 55.83332775,
                    "velocity": 0.3858267716535433,
                    "duration": 0.8333332500000026
                },
                {
                    "name": "D3",
                    "midi": 50,
                    "time": 55.83332775,
                    "velocity": 0.3858267716535433,
                    "duration": 0.8333332500000026
                },
                {
                    "name": "C#3",
                    "midi": 49,
                    "time": 56.666661000000005,
                    "velocity": 0.3858267716535433,
                    "duration": 0.555555499999997
                },
                {
                    "name": "E3",
                    "midi": 52,
                    "time": 56.666661000000005,
                    "velocity": 0.3858267716535433,
                    "duration": 0.555555499999997
                },
                {
                    "name": "G#3",
                    "midi": 56,
                    "time": 56.666661000000005,
                    "velocity": 0.3858267716535433,
                    "duration": 0.555555499999997
                },
                {
                    "name": "F#4",
                    "midi": 66,
                    "time": 73.333326,
                    "velocity": 0.3858267716535433,
                    "duration": 6.666665999999992
                },
                {
                    "name": "A5",
                    "midi": 81,
                    "time": 80.55554749999999,
                    "velocity": 0.3858267716535433,
                    "duration": 0.13888887500000635
                },
                {
                    "name": "F#5",
                    "midi": 78,
                    "time": 80.694436375,
                    "velocity": 0.3858267716535433,
                    "duration": 0.13888887500000635
                },
                {
                    "name": "D5",
                    "midi": 74,
                    "time": 80.83332525,
                    "velocity": 0.3858267716535433,
                    "duration": 0.13888887500000635
                },
                {
                    "name": "A4",
                    "midi": 69,
                    "time": 80.97221412500001,
                    "velocity": 0.3858267716535433,
                    "duration": 0.13888887500000635
                },
                {
                    "name": "D4",
                    "midi": 62,
                    "time": 81.11110300000001,
                    "velocity": 0.3858267716535433,
                    "duration": 0.13888887500000635
                },
                {
                    "name": "A4",
                    "midi": 69,
                    "time": 81.24999187500002,
                    "velocity": 0.3858267716535433,
                    "duration": 0.13888887500000635
                },
                {
                    "name": "D5",
                    "midi": 74,
                    "time": 81.38888075000003,
                    "velocity": 0.3858267716535433,
                    "duration": 0.13888887500000635
                },
                {
                    "name": "F#5",
                    "midi": 78,
                    "time": 81.52776962500003,
                    "velocity": 0.3858267716535433,
                    "duration": 0.13888887500000635
                },
                {
                    "name": "A5",
                    "midi": 81,
                    "time": 81.66665850000004,
                    "velocity": 0.3858267716535433,
                    "duration": 0.13888887500000635
                },
                {
                    "name": "F#5",
                    "midi": 78,
                    "time": 81.80554737500005,
                    "velocity": 0.3858267716535433,
                    "duration": 0.13888887500000635
                },
                {
                    "name": "D5",
                    "midi": 74,
                    "time": 81.94443625000005,
                    "velocity": 0.3858267716535433,
                    "duration": 0.13888887500000635
                },
                {
                    "name": "A4",
                    "midi": 69,
                    "time": 82.08332512500006,
                    "velocity": 0.3858267716535433,
                    "duration": 0.13888887500000635
                },
                {
                    "name": "D4",
                    "midi": 62,
                    "time": 82.22221400000006,
                    "velocity": 0.3858267716535433,
                    "duration": 0.13888887500000635
                },
                {
                    "name": "A4",
                    "midi": 69,
                    "time": 82.36110287500007,
                    "velocity": 0.3858267716535433,
                    "duration": 0.13888887500000635
                },
                {
                    "name": "D5",
                    "midi": 74,
                    "time": 82.49999175000008,
                    "velocity": 0.3858267716535433,
                    "duration": 0.13888887500000635
                },
                {
                    "name": "F#5",
                    "midi": 78,
                    "time": 82.63888062500008,
                    "velocity": 0.3858267716535433,
                    "duration": 0.13888887500000635
                },
                {
                    "name": "A5",
                    "midi": 81,
                    "time": 82.77776950000009,
                    "velocity": 0.3858267716535433,
                    "duration": 0.13888887500000635
                },
                {
                    "name": "F#5",
                    "midi": 78,
                    "time": 82.9166583750001,
                    "velocity": 0.3858267716535433,
                    "duration": 0.13888887500000635
                },
                {
                    "name": "D5",
                    "midi": 74,
                    "time": 83.0555472500001,
                    "velocity": 0.3858267716535433,
                    "duration": 0.13888887500000635
                },
                {
                    "name": "A4",
                    "midi": 69,
                    "time": 83.19443612500011,
                    "velocity": 0.3858267716535433,
                    "duration": 0.13888887500000635
                },
                {
                    "name": "D4",
                    "midi": 62,
                    "time": 83.33332500000012,
                    "velocity": 0.3858267716535433,
                    "duration": 0.13888887500000635
                },
                {
                    "name": "A4",
                    "midi": 69,
                    "time": 83.47221387500012,
                    "velocity": 0.3858267716535433,
                    "duration": 0.13888887500000635
                },
                {
                    "name": "D5",
                    "midi": 74,
                    "time": 83.61110275000013,
                    "velocity": 0.3858267716535433,
                    "duration": 0.13888887500000635
                },
                {
                    "name": "F#5",
                    "midi": 78,
                    "time": 83.74999162500013,
                    "velocity": 0.3858267716535433,
                    "duration": 0.13888887500000635
                },
                {
                    "name": "A5",
                    "midi": 81,
                    "time": 83.88888050000014,
                    "velocity": 0.3858267716535433,
                    "duration": 0.13888887500000635
                },
                {
                    "name": "F#5",
                    "midi": 78,
                    "time": 84.02776937500015,
                    "velocity": 0.3858267716535433,
                    "duration": 0.13888887500000635
                },
                {
                    "name": "D5",
                    "midi": 74,
                    "time": 84.16665825000015,
                    "velocity": 0.3858267716535433,
                    "duration": 0.13888887500000635
                },
                {
                    "name": "A4",
                    "midi": 69,
                    "time": 84.30554712500016,
                    "velocity": 0.3858267716535433,
                    "duration": 0.13888887500000635
                },
                {
                    "name": "D4",
                    "midi": 62,
                    "time": 84.44443600000017,
                    "velocity": 0.3858267716535433,
                    "duration": 0.13888887500000635
                },
                {
                    "name": "A4",
                    "midi": 69,
                    "time": 84.58332487500017,
                    "velocity": 0.3858267716535433,
                    "duration": 0.13888887500000635
                },
                {
                    "name": "D5",
                    "midi": 74,
                    "time": 84.72221375000018,
                    "velocity": 0.3858267716535433,
                    "duration": 0.13888887500000635
                },
                {
                    "name": "F#5",
                    "midi": 78,
                    "time": 84.86110262500019,
                    "velocity": 0.3858267716535433,
                    "duration": 0.13888887500000635
                },
                {
                    "name": "A5",
                    "midi": 81,
                    "time": 84.99999150000019,
                    "velocity": 0.3858267716535433,
                    "duration": 0.13888887500000635
                },
                {
                    "name": "F#5",
                    "midi": 78,
                    "time": 85.1388803750002,
                    "velocity": 0.3858267716535433,
                    "duration": 0.13888887500000635
                },
                {
                    "name": "D5",
                    "midi": 74,
                    "time": 85.2777692500002,
                    "velocity": 0.3858267716535433,
                    "duration": 0.13888887500000635
                },
                {
                    "name": "A4",
                    "midi": 69,
                    "time": 85.41665812500021,
                    "velocity": 0.3858267716535433,
                    "duration": 0.13888887500000635
                },
                {
                    "name": "D4",
                    "midi": 62,
                    "time": 85.55554700000022,
                    "velocity": 0.3858267716535433,
                    "duration": 0.13888887500000635
                },
                {
                    "name": "A4",
                    "midi": 69,
                    "time": 85.69443587500022,
                    "velocity": 0.3858267716535433,
                    "duration": 0.13888887500000635
                },
                {
                    "name": "D5",
                    "midi": 74,
                    "time": 85.83332475000023,
                    "velocity": 0.3858267716535433,
                    "duration": 0.13888887500000635
                },
                {
                    "name": "F#5",
                    "midi": 78,
                    "time": 85.97221362500024,
                    "velocity": 0.3858267716535433,
                    "duration": 0.13888887500000635
                },
                {
                    "name": "A5",
                    "midi": 81,
                    "time": 86.11110250000024,
                    "velocity": 0.3858267716535433,
                    "duration": 0.13888887500000635
                },
                {
                    "name": "F#5",
                    "midi": 78,
                    "time": 86.24999137500025,
                    "velocity": 0.3858267716535433,
                    "duration": 0.13888887500000635
                },
                {
                    "name": "D5",
                    "midi": 74,
                    "time": 86.38888025000026,
                    "velocity": 0.3858267716535433,
                    "duration": 0.13888887500000635
                },
                {
                    "name": "A4",
                    "midi": 69,
                    "time": 86.52776912500026,
                    "velocity": 0.3858267716535433,
                    "duration": 0.13888887500000635
                },
                {
                    "name": "F#4",
                    "midi": 66,
                    "time": 86.66665800000027,
                    "velocity": 0.4881889763779528,
                    "duration": 0.555555499999997
                },
                {
                    "name": "D4",
                    "midi": 62,
                    "time": 87.22221350000027,
                    "velocity": 0.4881889763779528,
                    "duration": 0.555555499999997
                },
                {
                    "name": "C#4",
                    "midi": 61,
                    "time": 87.77776900000026,
                    "velocity": 0.4881889763779528,
                    "duration": 0.555555499999997
                },
                {
                    "name": "C4",
                    "midi": 60,
                    "time": 88.33332450000026,
                    "velocity": 0.4881889763779528,
                    "duration": 0.555555499999997
                },
                {
                    "name": "D#4",
                    "midi": 63,
                    "time": 88.88888000000026,
                    "velocity": 0.4881889763779528,
                    "duration": 0.555555499999997
                },
                {
                    "name": "F4",
                    "midi": 65,
                    "time": 89.44443550000025,
                    "velocity": 0.4881889763779528,
                    "duration": 0.555555499999997
                },
                {
                    "name": "F#4",
                    "midi": 66,
                    "time": 89.99999100000025,
                    "velocity": 0.4881889763779528,
                    "duration": 0.555555499999997
                },
                {
                    "name": "F#5",
                    "midi": 78,
                    "time": 89.99999100000025,
                    "velocity": 0.4881889763779528,
                    "duration": 0.555555499999997
                },
                {
                    "name": "D4",
                    "midi": 62,
                    "time": 90.55554650000025,
                    "velocity": 0.4881889763779528,
                    "duration": 0.555555499999997
                },
                {
                    "name": "D5",
                    "midi": 74,
                    "time": 90.55554650000025,
                    "velocity": 0.4881889763779528,
                    "duration": 0.555555499999997
                },
                {
                    "name": "C#4",
                    "midi": 61,
                    "time": 91.11110200000024,
                    "velocity": 0.4881889763779528,
                    "duration": 0.555555499999997
                },
                {
                    "name": "C#5",
                    "midi": 73,
                    "time": 91.11110200000024,
                    "velocity": 0.4881889763779528,
                    "duration": 0.555555499999997
                },
                {
                    "name": "C4",
                    "midi": 60,
                    "time": 91.66665750000024,
                    "velocity": 0.4881889763779528,
                    "duration": 0.555555499999997
                },
                {
                    "name": "C5",
                    "midi": 72,
                    "time": 91.66665750000024,
                    "velocity": 0.4881889763779528,
                    "duration": 0.555555499999997
                },
                {
                    "name": "D#4",
                    "midi": 63,
                    "time": 92.22221300000024,
                    "velocity": 0.4881889763779528,
                    "duration": 0.555555499999997
                },
                {
                    "name": "D#5",
                    "midi": 75,
                    "time": 92.22221300000024,
                    "velocity": 0.4881889763779528,
                    "duration": 0.555555499999997
                },
                {
                    "name": "F4",
                    "midi": 65,
                    "time": 92.77776850000024,
                    "velocity": 0.4881889763779528,
                    "duration": 0.555555499999997
                },
                {
                    "name": "F5",
                    "midi": 77,
                    "time": 92.77776850000024,
                    "velocity": 0.4881889763779528,
                    "duration": 0.555555499999997
                },
                {
                    "name": "F#4",
                    "midi": 66,
                    "time": 93.33332400000023,
                    "velocity": 0.4881889763779528,
                    "duration": 1.6666665000000052
                },
                {
                    "name": "G4",
                    "midi": 67,
                    "time": 94.99999050000024,
                    "velocity": 0.4881889763779528,
                    "duration": 1.6666665000000052
                },
                {
                    "name": "F#4",
                    "midi": 66,
                    "time": 99.99999000000024,
                    "velocity": 0.4881889763779528,
                    "duration": 1.6666665000000052
                },
                {
                    "name": "G4",
                    "midi": 67,
                    "time": 101.66665650000024,
                    "velocity": 0.4881889763779528,
                    "duration": 1.6666665000000052
                },
                {
                    "name": "A#3",
                    "midi": 58,
                    "time": 108.33332250000025,
                    "velocity": 0.4881889763779528,
                    "duration": 1.6666665000000052
                },
                {
                    "name": "D4",
                    "midi": 62,
                    "time": 108.33332250000025,
                    "velocity": 0.4881889763779528,
                    "duration": 1.6666665000000052
                },
                {
                    "name": "G#3",
                    "midi": 56,
                    "time": 109.99998900000026,
                    "velocity": 0.4881889763779528,
                    "duration": 1.6666665000000052
                },
                {
                    "name": "B3",
                    "midi": 59,
                    "time": 109.99998900000026,
                    "velocity": 0.4881889763779528,
                    "duration": 1.6666665000000052
                },
                {
                    "name": "A#3",
                    "midi": 58,
                    "time": 111.66665550000026,
                    "velocity": 0.4881889763779528,
                    "duration": 1.6666665000000052
                },
                {
                    "name": "D4",
                    "midi": 62,
                    "time": 111.66665550000026,
                    "velocity": 0.4881889763779528,
                    "duration": 1.6666665000000052
                },
                {
                    "name": "G#3",
                    "midi": 56,
                    "time": 113.33332200000027,
                    "velocity": 0.4881889763779528,
                    "duration": 1.6666665000000052
                },
                {
                    "name": "B3",
                    "midi": 59,
                    "time": 113.33332200000027,
                    "velocity": 0.4881889763779528,
                    "duration": 1.6666665000000052
                },
                {
                    "name": "A#3",
                    "midi": 58,
                    "time": 114.99998850000027,
                    "velocity": 0.4881889763779528,
                    "duration": 1.6666665000000052
                },
                {
                    "name": "D4",
                    "midi": 62,
                    "time": 114.99998850000027,
                    "velocity": 0.4881889763779528,
                    "duration": 1.6666665000000052
                },
                {
                    "name": "G#3",
                    "midi": 56,
                    "time": 116.66665500000028,
                    "velocity": 0.4881889763779528,
                    "duration": 1.6666665000000052
                },
                {
                    "name": "B3",
                    "midi": 59,
                    "time": 116.66665500000028,
                    "velocity": 0.4881889763779528,
                    "duration": 1.6666665000000052
                },
                {
                    "name": "A#3",
                    "midi": 58,
                    "time": 118.33332150000028,
                    "velocity": 0.4881889763779528,
                    "duration": 1.6666665000000052
                },
                {
                    "name": "D4",
                    "midi": 62,
                    "time": 118.33332150000028,
                    "velocity": 0.4881889763779528,
                    "duration": 1.6666665000000052
                },
                {
                    "name": "G#3",
                    "midi": 56,
                    "time": 119.99998800000029,
                    "velocity": 0.4881889763779528,
                    "duration": 0.555555499999997
                },
                {
                    "name": "A3",
                    "midi": 57,
                    "time": 153.33331800000028,
                    "velocity": 0.3858267716535433,
                    "duration": 3.3333330000000103
                },
                {
                    "name": "C#4",
                    "midi": 61,
                    "time": 153.33331800000028,
                    "velocity": 0.3858267716535433,
                    "duration": 3.3333330000000103
                },
                {
                    "name": "D#4",
                    "midi": 63,
                    "time": 156.6666510000003,
                    "velocity": 0.3858267716535433,
                    "duration": 0.13888887499999214
                },
                {
                    "name": "D#3",
                    "midi": 51,
                    "time": 156.80553987500028,
                    "velocity": 0.3858267716535433,
                    "duration": 0.13888887499999214
                },
                {
                    "name": "D#4",
                    "midi": 63,
                    "time": 156.94442875000027,
                    "velocity": 0.3858267716535433,
                    "duration": 0.13888887499999214
                },
                {
                    "name": "D#3",
                    "midi": 51,
                    "time": 157.08331762500026,
                    "velocity": 0.3858267716535433,
                    "duration": 0.13888887499999214
                },
                {
                    "name": "D#4",
                    "midi": 63,
                    "time": 157.22220650000025,
                    "velocity": 0.3858267716535433,
                    "duration": 0.13888887499999214
                },
                {
                    "name": "D#3",
                    "midi": 51,
                    "time": 157.36109537500025,
                    "velocity": 0.3858267716535433,
                    "duration": 0.13888887499999214
                },
                {
                    "name": "D#4",
                    "midi": 63,
                    "time": 157.49998425000024,
                    "velocity": 0.3858267716535433,
                    "duration": 0.13888887499999214
                },
                {
                    "name": "D#3",
                    "midi": 51,
                    "time": 157.63887312500023,
                    "velocity": 0.3858267716535433,
                    "duration": 0.13888887499999214
                },
                {
                    "name": "D#4",
                    "midi": 63,
                    "time": 157.77776200000022,
                    "velocity": 0.3858267716535433,
                    "duration": 0.13888887499999214
                },
                {
                    "name": "D#3",
                    "midi": 51,
                    "time": 157.91665087500022,
                    "velocity": 0.3858267716535433,
                    "duration": 0.13888887499999214
                },
                {
                    "name": "D#4",
                    "midi": 63,
                    "time": 158.0555397500002,
                    "velocity": 0.3858267716535433,
                    "duration": 0.13888887499999214
                },
                {
                    "name": "D#3",
                    "midi": 51,
                    "time": 158.1944286250002,
                    "velocity": 0.3858267716535433,
                    "duration": 0.13888887499999214
                },
                {
                    "name": "D#4",
                    "midi": 63,
                    "time": 158.3333175000002,
                    "velocity": 0.3858267716535433,
                    "duration": 0.13888887499999214
                },
                {
                    "name": "D#3",
                    "midi": 51,
                    "time": 158.47220637500018,
                    "velocity": 0.3858267716535433,
                    "duration": 0.13888887499999214
                },
                {
                    "name": "D#4",
                    "midi": 63,
                    "time": 158.61109525000018,
                    "velocity": 0.3858267716535433,
                    "duration": 0.13888887499999214
                },
                {
                    "name": "D#3",
                    "midi": 51,
                    "time": 158.74998412500017,
                    "velocity": 0.3858267716535433,
                    "duration": 0.13888887499999214
                },
                {
                    "name": "D#4",
                    "midi": 63,
                    "time": 158.88887300000016,
                    "velocity": 0.3858267716535433,
                    "duration": 0.13888887499999214
                },
                {
                    "name": "D#3",
                    "midi": 51,
                    "time": 159.02776187500015,
                    "velocity": 0.3858267716535433,
                    "duration": 0.13888887499999214
                },
                {
                    "name": "D#4",
                    "midi": 63,
                    "time": 159.16665075000014,
                    "velocity": 0.3858267716535433,
                    "duration": 0.13888887499999214
                },
                {
                    "name": "D#3",
                    "midi": 51,
                    "time": 159.30553962500014,
                    "velocity": 0.3858267716535433,
                    "duration": 0.13888887499999214
                },
                {
                    "name": "D#4",
                    "midi": 63,
                    "time": 159.44442850000013,
                    "velocity": 0.3858267716535433,
                    "duration": 0.13888887499999214
                },
                {
                    "name": "D#3",
                    "midi": 51,
                    "time": 159.58331737500012,
                    "velocity": 0.3858267716535433,
                    "duration": 0.13888887499999214
                },
                {
                    "name": "D#4",
                    "midi": 63,
                    "time": 159.7222062500001,
                    "velocity": 0.3858267716535433,
                    "duration": 0.13888887499999214
                },
                {
                    "name": "D#3",
                    "midi": 51,
                    "time": 159.8610951250001,
                    "velocity": 0.3858267716535433,
                    "duration": 0.13888887499999214
                },
                {
                    "name": "E5",
                    "midi": 76,
                    "time": 199.9999800000001,
                    "velocity": 0.3858267716535433,
                    "duration": 0.13888887499999214
                },
                {
                    "name": "E4",
                    "midi": 64,
                    "time": 200.1388688750001,
                    "velocity": 0.3858267716535433,
                    "duration": 0.13888887499999214
                },
                {
                    "name": "E5",
                    "midi": 76,
                    "time": 200.2777577500001,
                    "velocity": 0.3858267716535433,
                    "duration": 0.13888887499999214
                },
                {
                    "name": "E4",
                    "midi": 64,
                    "time": 200.41664662500008,
                    "velocity": 0.3858267716535433,
                    "duration": 0.13888887499999214
                },
                {
                    "name": "E5",
                    "midi": 76,
                    "time": 200.55553550000008,
                    "velocity": 0.3858267716535433,
                    "duration": 0.13888887499999214
                },
                {
                    "name": "E4",
                    "midi": 64,
                    "time": 200.69442437500007,
                    "velocity": 0.3858267716535433,
                    "duration": 0.13888887499999214
                },
                {
                    "name": "E5",
                    "midi": 76,
                    "time": 200.83331325000006,
                    "velocity": 0.3858267716535433,
                    "duration": 0.13888887499999214
                },
                {
                    "name": "E4",
                    "midi": 64,
                    "time": 200.97220212500005,
                    "velocity": 0.3858267716535433,
                    "duration": 0.13888887499999214
                },
                {
                    "name": "E5",
                    "midi": 76,
                    "time": 201.11109100000004,
                    "velocity": 0.3858267716535433,
                    "duration": 0.13888887499999214
                },
                {
                    "name": "E4",
                    "midi": 64,
                    "time": 201.24997987500004,
                    "velocity": 0.3858267716535433,
                    "duration": 0.13888887499999214
                },
                {
                    "name": "E5",
                    "midi": 76,
                    "time": 201.38886875000003,
                    "velocity": 0.3858267716535433,
                    "duration": 0.13888887499999214
                },
                {
                    "name": "E4",
                    "midi": 64,
                    "time": 201.52775762500002,
                    "velocity": 0.3858267716535433,
                    "duration": 0.13888887499999214
                },
                {
                    "name": "E5",
                    "midi": 76,
                    "time": 201.6666465,
                    "velocity": 0.3858267716535433,
                    "duration": 0.13888887499999214
                },
                {
                    "name": "E4",
                    "midi": 64,
                    "time": 201.805535375,
                    "velocity": 0.3858267716535433,
                    "duration": 0.13888887499999214
                },
                {
                    "name": "E5",
                    "midi": 76,
                    "time": 201.94442425,
                    "velocity": 0.3858267716535433,
                    "duration": 0.13888887499999214
                },
                {
                    "name": "E4",
                    "midi": 64,
                    "time": 202.083313125,
                    "velocity": 0.3858267716535433,
                    "duration": 0.13888887499999214
                },
                {
                    "name": "E5",
                    "midi": 76,
                    "time": 202.22220199999998,
                    "velocity": 0.3858267716535433,
                    "duration": 0.13888887499999214
                },
                {
                    "name": "E4",
                    "midi": 64,
                    "time": 202.36109087499997,
                    "velocity": 0.3858267716535433,
                    "duration": 0.13888887499999214
                },
                {
                    "name": "E5",
                    "midi": 76,
                    "time": 202.49997974999997,
                    "velocity": 0.3858267716535433,
                    "duration": 0.13888887499999214
                },
                {
                    "name": "E4",
                    "midi": 64,
                    "time": 202.63886862499996,
                    "velocity": 0.3858267716535433,
                    "duration": 0.13888887499999214
                },
                {
                    "name": "E5",
                    "midi": 76,
                    "time": 202.77775749999995,
                    "velocity": 0.3858267716535433,
                    "duration": 0.13888887499999214
                },
                {
                    "name": "E4",
                    "midi": 64,
                    "time": 202.91664637499994,
                    "velocity": 0.3858267716535433,
                    "duration": 0.13888887499999214
                },
                {
                    "name": "E5",
                    "midi": 76,
                    "time": 203.05553524999993,
                    "velocity": 0.3858267716535433,
                    "duration": 0.13888887499999214
                },
                {
                    "name": "E4",
                    "midi": 64,
                    "time": 203.19442412499993,
                    "velocity": 0.3858267716535433,
                    "duration": 0.13888887499999214
                },
                {
                    "name": "F4",
                    "midi": 65,
                    "time": 203.33331299999992,
                    "velocity": 0.3858267716535433,
                    "duration": 0.13888887499999214
                },
                {
                    "name": "F3",
                    "midi": 53,
                    "time": 203.4722018749999,
                    "velocity": 0.3858267716535433,
                    "duration": 0.13888887499999214
                },
                {
                    "name": "F4",
                    "midi": 65,
                    "time": 203.6110907499999,
                    "velocity": 0.3858267716535433,
                    "duration": 0.13888887499999214
                },
                {
                    "name": "F3",
                    "midi": 53,
                    "time": 203.7499796249999,
                    "velocity": 0.3858267716535433,
                    "duration": 0.13888887499999214
                },
                {
                    "name": "F4",
                    "midi": 65,
                    "time": 203.8888684999999,
                    "velocity": 0.3858267716535433,
                    "duration": 0.13888887499999214
                },
                {
                    "name": "F3",
                    "midi": 53,
                    "time": 204.02775737499988,
                    "velocity": 0.3858267716535433,
                    "duration": 0.13888887499999214
                },
                {
                    "name": "F4",
                    "midi": 65,
                    "time": 204.16664624999987,
                    "velocity": 0.3858267716535433,
                    "duration": 0.13888887499999214
                },
                {
                    "name": "F3",
                    "midi": 53,
                    "time": 204.30553512499986,
                    "velocity": 0.3858267716535433,
                    "duration": 0.13888887499999214
                },
                {
                    "name": "F4",
                    "midi": 65,
                    "time": 204.44442399999986,
                    "velocity": 0.3858267716535433,
                    "duration": 0.13888887499999214
                },
                {
                    "name": "F3",
                    "midi": 53,
                    "time": 204.58331287499985,
                    "velocity": 0.3858267716535433,
                    "duration": 0.13888887499999214
                },
                {
                    "name": "F4",
                    "midi": 65,
                    "time": 204.72220174999984,
                    "velocity": 0.3858267716535433,
                    "duration": 0.13888887499999214
                },
                {
                    "name": "F3",
                    "midi": 53,
                    "time": 204.86109062499983,
                    "velocity": 0.3858267716535433,
                    "duration": 0.13888887499999214
                },
                {
                    "name": "F4",
                    "midi": 65,
                    "time": 204.99997949999982,
                    "velocity": 0.3858267716535433,
                    "duration": 0.13888887499999214
                },
                {
                    "name": "F3",
                    "midi": 53,
                    "time": 205.13886837499982,
                    "velocity": 0.3858267716535433,
                    "duration": 0.13888887499999214
                },
                {
                    "name": "F4",
                    "midi": 65,
                    "time": 205.2777572499998,
                    "velocity": 0.3858267716535433,
                    "duration": 0.13888887499999214
                },
                {
                    "name": "F3",
                    "midi": 53,
                    "time": 205.4166461249998,
                    "velocity": 0.3858267716535433,
                    "duration": 0.13888887499999214
                },
                {
                    "name": "F4",
                    "midi": 65,
                    "time": 205.5555349999998,
                    "velocity": 0.3858267716535433,
                    "duration": 0.13888887499999214
                },
                {
                    "name": "F3",
                    "midi": 53,
                    "time": 205.69442387499979,
                    "velocity": 0.3858267716535433,
                    "duration": 0.13888887499999214
                },
                {
                    "name": "F4",
                    "midi": 65,
                    "time": 205.83331274999978,
                    "velocity": 0.3858267716535433,
                    "duration": 0.13888887499999214
                },
                {
                    "name": "F3",
                    "midi": 53,
                    "time": 205.97220162499977,
                    "velocity": 0.3858267716535433,
                    "duration": 0.13888887499999214
                },
                {
                    "name": "F4",
                    "midi": 65,
                    "time": 206.11109049999976,
                    "velocity": 0.3858267716535433,
                    "duration": 0.13888887499999214
                },
                {
                    "name": "F3",
                    "midi": 53,
                    "time": 206.24997937499975,
                    "velocity": 0.3858267716535433,
                    "duration": 0.13888887499999214
                },
                {
                    "name": "F4",
                    "midi": 65,
                    "time": 206.38886824999975,
                    "velocity": 0.3858267716535433,
                    "duration": 0.13888887499999214
                },
                {
                    "name": "F3",
                    "midi": 53,
                    "time": 206.52775712499974,
                    "velocity": 0.3858267716535433,
                    "duration": 0.13888887499999214
                },
                {
                    "name": "B3",
                    "midi": 59,
                    "time": 206.66664599999973,
                    "velocity": 0.3858267716535433,
                    "duration": 0.8333332500000097
                },
                {
                    "name": "D4",
                    "midi": 62,
                    "time": 206.66664599999973,
                    "velocity": 0.3858267716535433,
                    "duration": 0.8333332500000097
                },
                {
                    "name": "G#3",
                    "midi": 56,
                    "time": 207.49997924999974,
                    "velocity": 0.3858267716535433,
                    "duration": 0.8333332500000097
                },
                {
                    "name": "C4",
                    "midi": 60,
                    "time": 207.49997924999974,
                    "velocity": 0.3858267716535433,
                    "duration": 0.8333332500000097
                },
                {
                    "name": "B3",
                    "midi": 59,
                    "time": 208.33331249999975,
                    "velocity": 0.3858267716535433,
                    "duration": 0.8333332500000097
                },
                {
                    "name": "D4",
                    "midi": 62,
                    "time": 208.33331249999975,
                    "velocity": 0.3858267716535433,
                    "duration": 0.8333332500000097
                },
                {
                    "name": "G#3",
                    "midi": 56,
                    "time": 209.16664574999976,
                    "velocity": 0.3858267716535433,
                    "duration": 0.8333332500000097
                },
                {
                    "name": "C4",
                    "midi": 60,
                    "time": 209.16664574999976,
                    "velocity": 0.3858267716535433,
                    "duration": 0.8333332500000097
                },
                {
                    "name": "F3",
                    "midi": 53,
                    "time": 209.99997899999977,
                    "velocity": 0.3858267716535433,
                    "duration": 3.3333330000000103
                }
            ],
            "controlChanges": {
                "7": [
                    {
                        "number": 7,
                        "time": 0,
                        "value": 1
                    }
                ],
                "10": [
                    {
                        "number": 10,
                        "time": 0,
                        "value": 0.7637795275590551
                    }
                ]
            },
            "id": 2,
            "name": "Instrument17",
            "instrumentNumber": 0,
            "instrument": "acoustic grand piano",
            "instrumentFamily": "piano",
            "channelNumber": 1,
            "isPercussion": false
        },
        {
            "startTime": 0,
            "duration": 226.6666440000009,
            "length": 508,
            "notes": [
                {
                    "name": "G#1",
                    "midi": 32,
                    "time": 0,
                    "velocity": 0.3858267716535433,
                    "duration": 0.5555555
                },
                {
                    "name": "E1",
                    "midi": 28,
                    "time": 0.5555555,
                    "velocity": 0.3858267716535433,
                    "duration": 0.5555555
                },
                {
                    "name": "D#1",
                    "midi": 27,
                    "time": 1.111111,
                    "velocity": 0.3858267716535433,
                    "duration": 0.5555554999999999
                },
                {
                    "name": "D1",
                    "midi": 26,
                    "time": 1.6666664999999998,
                    "velocity": 0.3858267716535433,
                    "duration": 0.5555555000000001
                },
                {
                    "name": "F1",
                    "midi": 29,
                    "time": 2.222222,
                    "velocity": 0.3858267716535433,
                    "duration": 0.5555555000000001
                },
                {
                    "name": "G1",
                    "midi": 31,
                    "time": 2.7777775,
                    "velocity": 0.3858267716535433,
                    "duration": 0.5555555000000001
                },
                {
                    "name": "G#1",
                    "midi": 32,
                    "time": 3.333333,
                    "velocity": 0.3858267716535433,
                    "duration": 0.5555555000000001
                },
                {
                    "name": "E1",
                    "midi": 28,
                    "time": 3.8888885,
                    "velocity": 0.3858267716535433,
                    "duration": 0.5555554999999996
                },
                {
                    "name": "D#1",
                    "midi": 27,
                    "time": 4.444444,
                    "velocity": 0.3858267716535433,
                    "duration": 0.5555554999999996
                },
                {
                    "name": "D1",
                    "midi": 26,
                    "time": 4.9999994999999995,
                    "velocity": 0.3858267716535433,
                    "duration": 0.5555554999999996
                },
                {
                    "name": "F1",
                    "midi": 29,
                    "time": 5.555554999999999,
                    "velocity": 0.3858267716535433,
                    "duration": 0.5555554999999996
                },
                {
                    "name": "G1",
                    "midi": 31,
                    "time": 6.111110499999999,
                    "velocity": 0.3858267716535433,
                    "duration": 0.5555554999999996
                },
                {
                    "name": "G#1",
                    "midi": 32,
                    "time": 6.666665999999998,
                    "velocity": 0.3858267716535433,
                    "duration": 0.5555554999999996
                },
                {
                    "name": "E1",
                    "midi": 28,
                    "time": 7.222221499999998,
                    "velocity": 0.3858267716535433,
                    "duration": 0.5555554999999996
                },
                {
                    "name": "G#1",
                    "midi": 32,
                    "time": 7.777776999999998,
                    "velocity": 0.3858267716535433,
                    "duration": 0.5555554999999996
                },
                {
                    "name": "F1",
                    "midi": 29,
                    "time": 8.333332499999997,
                    "velocity": 0.3858267716535433,
                    "duration": 0.5555555000000005
                },
                {
                    "name": "A1",
                    "midi": 33,
                    "time": 8.888887999999998,
                    "velocity": 0.3858267716535433,
                    "duration": 0.5555555000000005
                },
                {
                    "name": "D2",
                    "midi": 38,
                    "time": 9.444443499999998,
                    "velocity": 0.3858267716535433,
                    "duration": 0.5555555000000005
                },
                {
                    "name": "G#1",
                    "midi": 32,
                    "time": 9.999998999999999,
                    "velocity": 0.3858267716535433,
                    "duration": 0.5555555000000005
                },
                {
                    "name": "E1",
                    "midi": 28,
                    "time": 10.5555545,
                    "velocity": 0.3858267716535433,
                    "duration": 0.5555555000000005
                },
                {
                    "name": "D#1",
                    "midi": 27,
                    "time": 11.11111,
                    "velocity": 0.3858267716535433,
                    "duration": 0.5555555000000005
                },
                {
                    "name": "D1",
                    "midi": 26,
                    "time": 11.6666655,
                    "velocity": 0.3858267716535433,
                    "duration": 0.5555555000000005
                },
                {
                    "name": "F1",
                    "midi": 29,
                    "time": 12.222221000000001,
                    "velocity": 0.3858267716535433,
                    "duration": 0.5555555000000005
                },
                {
                    "name": "G1",
                    "midi": 31,
                    "time": 12.777776500000002,
                    "velocity": 0.3858267716535433,
                    "duration": 0.5555555000000005
                },
                {
                    "name": "G#2",
                    "midi": 44,
                    "time": 13.333332000000002,
                    "velocity": 0.3858267716535433,
                    "duration": 0.5555555000000005
                },
                {
                    "name": "E2",
                    "midi": 40,
                    "time": 13.888887500000003,
                    "velocity": 0.3858267716535433,
                    "duration": 0.5555555000000005
                },
                {
                    "name": "D#2",
                    "midi": 39,
                    "time": 14.444443000000003,
                    "velocity": 0.3858267716535433,
                    "duration": 0.5555555000000005
                },
                {
                    "name": "D2",
                    "midi": 38,
                    "time": 14.999998500000004,
                    "velocity": 0.3858267716535433,
                    "duration": 0.5555555000000005
                },
                {
                    "name": "F2",
                    "midi": 41,
                    "time": 15.555554000000004,
                    "velocity": 0.3858267716535433,
                    "duration": 0.5555555000000005
                },
                {
                    "name": "G2",
                    "midi": 43,
                    "time": 16.111109500000005,
                    "velocity": 0.3858267716535433,
                    "duration": 0.5555555000000005
                },
                {
                    "name": "G#2",
                    "midi": 44,
                    "time": 16.666665000000005,
                    "velocity": 0.3858267716535433,
                    "duration": 0.5555555000000005
                },
                {
                    "name": "E2",
                    "midi": 40,
                    "time": 17.222220500000006,
                    "velocity": 0.3858267716535433,
                    "duration": 0.5555555000000005
                },
                {
                    "name": "G#2",
                    "midi": 44,
                    "time": 17.777776000000006,
                    "velocity": 0.3858267716535433,
                    "duration": 0.5555555000000005
                },
                {
                    "name": "F2",
                    "midi": 41,
                    "time": 18.333331500000007,
                    "velocity": 0.3858267716535433,
                    "duration": 0.5555555000000005
                },
                {
                    "name": "A2",
                    "midi": 45,
                    "time": 18.888887000000008,
                    "velocity": 0.3858267716535433,
                    "duration": 0.5555555000000005
                },
                {
                    "name": "D3",
                    "midi": 50,
                    "time": 19.444442500000008,
                    "velocity": 0.3858267716535433,
                    "duration": 0.5555555000000005
                },
                {
                    "name": "G#2",
                    "midi": 44,
                    "time": 19.99999800000001,
                    "velocity": 0.3858267716535433,
                    "duration": 0.5555555000000005
                },
                {
                    "name": "E2",
                    "midi": 40,
                    "time": 20.55555350000001,
                    "velocity": 0.3858267716535433,
                    "duration": 0.5555555000000005
                },
                {
                    "name": "D#2",
                    "midi": 39,
                    "time": 21.11110900000001,
                    "velocity": 0.3858267716535433,
                    "duration": 0.5555555000000005
                },
                {
                    "name": "D2",
                    "midi": 38,
                    "time": 21.66666450000001,
                    "velocity": 0.3858267716535433,
                    "duration": 0.5555555000000005
                },
                {
                    "name": "F2",
                    "midi": 41,
                    "time": 22.22222000000001,
                    "velocity": 0.3858267716535433,
                    "duration": 0.5555555000000005
                },
                {
                    "name": "G2",
                    "midi": 43,
                    "time": 22.77777550000001,
                    "velocity": 0.3858267716535433,
                    "duration": 0.5555555000000005
                },
                {
                    "name": "G#2",
                    "midi": 44,
                    "time": 23.333331000000012,
                    "velocity": 0.3858267716535433,
                    "duration": 0.5555555000000005
                },
                {
                    "name": "E2",
                    "midi": 40,
                    "time": 23.888886500000012,
                    "velocity": 0.3858267716535433,
                    "duration": 0.5555555000000005
                },
                {
                    "name": "D#2",
                    "midi": 39,
                    "time": 24.444442000000013,
                    "velocity": 0.3858267716535433,
                    "duration": 0.5555555000000005
                },
                {
                    "name": "D2",
                    "midi": 38,
                    "time": 24.999997500000013,
                    "velocity": 0.3858267716535433,
                    "duration": 0.5555555000000005
                },
                {
                    "name": "F2",
                    "midi": 41,
                    "time": 25.555553000000014,
                    "velocity": 0.3858267716535433,
                    "duration": 0.5555555000000005
                },
                {
                    "name": "G2",
                    "midi": 43,
                    "time": 26.111108500000014,
                    "velocity": 0.3858267716535433,
                    "duration": 0.5555555000000005
                },
                {
                    "name": "G#2",
                    "midi": 44,
                    "time": 26.666664000000015,
                    "velocity": 0.3858267716535433,
                    "duration": 0.5555555000000005
                },
                {
                    "name": "E2",
                    "midi": 40,
                    "time": 27.222219500000016,
                    "velocity": 0.3858267716535433,
                    "duration": 0.5555555000000005
                },
                {
                    "name": "D#2",
                    "midi": 39,
                    "time": 27.777775000000016,
                    "velocity": 0.3858267716535433,
                    "duration": 0.5555555000000005
                },
                {
                    "name": "D2",
                    "midi": 38,
                    "time": 28.333330500000017,
                    "velocity": 0.3858267716535433,
                    "duration": 0.5555555000000005
                },
                {
                    "name": "F2",
                    "midi": 41,
                    "time": 28.888886000000017,
                    "velocity": 0.3858267716535433,
                    "duration": 0.5555555000000005
                },
                {
                    "name": "G2",
                    "midi": 43,
                    "time": 29.444441500000018,
                    "velocity": 0.3858267716535433,
                    "duration": 0.5555555000000005
                },
                {
                    "name": "G#2",
                    "midi": 44,
                    "time": 29.99999700000002,
                    "velocity": 0.3858267716535433,
                    "duration": 0.5555555000000005
                },
                {
                    "name": "E2",
                    "midi": 40,
                    "time": 30.55555250000002,
                    "velocity": 0.3858267716535433,
                    "duration": 0.5555555000000005
                },
                {
                    "name": "G#2",
                    "midi": 44,
                    "time": 31.11110800000002,
                    "velocity": 0.3858267716535433,
                    "duration": 0.5555555000000005
                },
                {
                    "name": "F2",
                    "midi": 41,
                    "time": 31.66666350000002,
                    "velocity": 0.3858267716535433,
                    "duration": 0.555555499999997
                },
                {
                    "name": "A2",
                    "midi": 45,
                    "time": 32.22221900000002,
                    "velocity": 0.3858267716535433,
                    "duration": 0.555555499999997
                },
                {
                    "name": "D3",
                    "midi": 50,
                    "time": 32.777774500000014,
                    "velocity": 0.3858267716535433,
                    "duration": 0.555555499999997
                },
                {
                    "name": "G#2",
                    "midi": 44,
                    "time": 33.33333000000001,
                    "velocity": 0.3858267716535433,
                    "duration": 0.555555499999997
                },
                {
                    "name": "E2",
                    "midi": 40,
                    "time": 33.88888550000001,
                    "velocity": 0.3858267716535433,
                    "duration": 0.555555499999997
                },
                {
                    "name": "D#2",
                    "midi": 39,
                    "time": 34.444441000000005,
                    "velocity": 0.3858267716535433,
                    "duration": 0.555555499999997
                },
                {
                    "name": "D2",
                    "midi": 38,
                    "time": 34.9999965,
                    "velocity": 0.3858267716535433,
                    "duration": 0.555555499999997
                },
                {
                    "name": "F2",
                    "midi": 41,
                    "time": 35.555552,
                    "velocity": 0.3858267716535433,
                    "duration": 0.555555499999997
                },
                {
                    "name": "G2",
                    "midi": 43,
                    "time": 36.111107499999996,
                    "velocity": 0.3858267716535433,
                    "duration": 0.555555499999997
                },
                {
                    "name": "G#2",
                    "midi": 44,
                    "time": 36.66666299999999,
                    "velocity": 0.3858267716535433,
                    "duration": 0.555555499999997
                },
                {
                    "name": "E2",
                    "midi": 40,
                    "time": 37.22221849999999,
                    "velocity": 0.3858267716535433,
                    "duration": 0.555555499999997
                },
                {
                    "name": "D#2",
                    "midi": 39,
                    "time": 37.77777399999999,
                    "velocity": 0.3858267716535433,
                    "duration": 0.555555499999997
                },
                {
                    "name": "D2",
                    "midi": 38,
                    "time": 38.333329499999984,
                    "velocity": 0.3858267716535433,
                    "duration": 0.555555499999997
                },
                {
                    "name": "F2",
                    "midi": 41,
                    "time": 38.88888499999998,
                    "velocity": 0.3858267716535433,
                    "duration": 0.555555499999997
                },
                {
                    "name": "G2",
                    "midi": 43,
                    "time": 39.44444049999998,
                    "velocity": 0.3858267716535433,
                    "duration": 0.555555499999997
                },
                {
                    "name": "G#1",
                    "midi": 32,
                    "time": 39.999995999999975,
                    "velocity": 0.3858267716535433,
                    "duration": 0.555555499999997
                },
                {
                    "name": "G#2",
                    "midi": 44,
                    "time": 39.999995999999975,
                    "velocity": 0.3858267716535433,
                    "duration": 0.555555499999997
                },
                {
                    "name": "A#2",
                    "midi": 46,
                    "time": 42.08332912499997,
                    "velocity": 0.3858267716535433,
                    "duration": 0.13888887499999925
                },
                {
                    "name": "D3",
                    "midi": 50,
                    "time": 42.08332912499997,
                    "velocity": 0.3858267716535433,
                    "duration": 0.13888887499999925
                },
                {
                    "name": "C#3",
                    "midi": 49,
                    "time": 42.22221799999997,
                    "velocity": 0.3858267716535433,
                    "duration": 0.13888887499999925
                },
                {
                    "name": "E3",
                    "midi": 52,
                    "time": 42.22221799999997,
                    "velocity": 0.3858267716535433,
                    "duration": 0.13888887499999925
                },
                {
                    "name": "A#2",
                    "midi": 46,
                    "time": 42.36110687499997,
                    "velocity": 0.3858267716535433,
                    "duration": 0.41666662499999774
                },
                {
                    "name": "D3",
                    "midi": 50,
                    "time": 42.36110687499997,
                    "velocity": 0.3858267716535433,
                    "duration": 0.41666662499999774
                },
                {
                    "name": "C#3",
                    "midi": 49,
                    "time": 42.77777349999997,
                    "velocity": 0.3858267716535433,
                    "duration": 0.13888887499999925
                },
                {
                    "name": "E3",
                    "midi": 52,
                    "time": 42.77777349999997,
                    "velocity": 0.3858267716535433,
                    "duration": 0.13888887499999925
                },
                {
                    "name": "A#2",
                    "midi": 46,
                    "time": 42.916662374999966,
                    "velocity": 0.3858267716535433,
                    "duration": 0.9722221250000018
                },
                {
                    "name": "D3",
                    "midi": 50,
                    "time": 42.916662374999966,
                    "velocity": 0.3858267716535433,
                    "duration": 0.9722221250000018
                },
                {
                    "name": "C#3",
                    "midi": 49,
                    "time": 43.88888449999997,
                    "velocity": 0.3858267716535433,
                    "duration": 0.13888887499999925
                },
                {
                    "name": "E3",
                    "midi": 52,
                    "time": 43.88888449999997,
                    "velocity": 0.3858267716535433,
                    "duration": 0.13888887499999925
                },
                {
                    "name": "A#2",
                    "midi": 46,
                    "time": 44.02777337499997,
                    "velocity": 0.3858267716535433,
                    "duration": 0.41666662499999774
                },
                {
                    "name": "D3",
                    "midi": 50,
                    "time": 44.02777337499997,
                    "velocity": 0.3858267716535433,
                    "duration": 0.41666662499999774
                },
                {
                    "name": "C#3",
                    "midi": 49,
                    "time": 44.444439999999965,
                    "velocity": 0.3858267716535433,
                    "duration": 0.13888887499999925
                },
                {
                    "name": "E3",
                    "midi": 52,
                    "time": 44.444439999999965,
                    "velocity": 0.3858267716535433,
                    "duration": 0.13888887499999925
                },
                {
                    "name": "A#2",
                    "midi": 46,
                    "time": 44.583328874999964,
                    "velocity": 0.3858267716535433,
                    "duration": 0.8333332500000026
                },
                {
                    "name": "D3",
                    "midi": 50,
                    "time": 44.583328874999964,
                    "velocity": 0.3858267716535433,
                    "duration": 0.8333332500000026
                },
                {
                    "name": "A#2",
                    "midi": 46,
                    "time": 45.41666212499997,
                    "velocity": 0.3858267716535433,
                    "duration": 0.13888887499999925
                },
                {
                    "name": "D3",
                    "midi": 50,
                    "time": 45.41666212499997,
                    "velocity": 0.3858267716535433,
                    "duration": 0.13888887499999925
                },
                {
                    "name": "C#3",
                    "midi": 49,
                    "time": 45.555550999999966,
                    "velocity": 0.3858267716535433,
                    "duration": 0.13888887499999925
                },
                {
                    "name": "E3",
                    "midi": 52,
                    "time": 45.555550999999966,
                    "velocity": 0.3858267716535433,
                    "duration": 0.13888887499999925
                },
                {
                    "name": "A#2",
                    "midi": 46,
                    "time": 45.694439874999965,
                    "velocity": 0.3858267716535433,
                    "duration": 0.9722221250000018
                },
                {
                    "name": "D3",
                    "midi": 50,
                    "time": 45.694439874999965,
                    "velocity": 0.3858267716535433,
                    "duration": 0.9722221250000018
                },
                {
                    "name": "C#4",
                    "midi": 61,
                    "time": 46.66666199999997,
                    "velocity": 0.3858267716535433,
                    "duration": 0.13888887499999925
                },
                {
                    "name": "E4",
                    "midi": 64,
                    "time": 46.66666199999997,
                    "velocity": 0.3858267716535433,
                    "duration": 0.13888887499999925
                },
                {
                    "name": "A#3",
                    "midi": 58,
                    "time": 46.805550874999966,
                    "velocity": 0.3858267716535433,
                    "duration": 0.9722221250000018
                },
                {
                    "name": "D4",
                    "midi": 62,
                    "time": 46.805550874999966,
                    "velocity": 0.3858267716535433,
                    "duration": 0.9722221250000018
                },
                {
                    "name": "C#3",
                    "midi": 49,
                    "time": 47.77777299999997,
                    "velocity": 0.3858267716535433,
                    "duration": 0.13888887499999925
                },
                {
                    "name": "E3",
                    "midi": 52,
                    "time": 47.77777299999997,
                    "velocity": 0.3858267716535433,
                    "duration": 0.13888887499999925
                },
                {
                    "name": "A#2",
                    "midi": 46,
                    "time": 47.91666187499997,
                    "velocity": 0.3858267716535433,
                    "duration": 0.9722221250000018
                },
                {
                    "name": "D3",
                    "midi": 50,
                    "time": 47.91666187499997,
                    "velocity": 0.3858267716535433,
                    "duration": 0.9722221250000018
                },
                {
                    "name": "C#4",
                    "midi": 61,
                    "time": 48.88888399999997,
                    "velocity": 0.3858267716535433,
                    "duration": 0.13888887499999925
                },
                {
                    "name": "E4",
                    "midi": 64,
                    "time": 48.88888399999997,
                    "velocity": 0.3858267716535433,
                    "duration": 0.13888887499999925
                },
                {
                    "name": "A#3",
                    "midi": 58,
                    "time": 49.02777287499997,
                    "velocity": 0.3858267716535433,
                    "duration": 0.9722221250000018
                },
                {
                    "name": "D4",
                    "midi": 62,
                    "time": 49.02777287499997,
                    "velocity": 0.3858267716535433,
                    "duration": 0.9722221250000018
                },
                {
                    "name": "C#2",
                    "midi": 37,
                    "time": 49.99999499999997,
                    "velocity": 0.3858267716535433,
                    "duration": 0.1087962854166662
                },
                {
                    "name": "E2",
                    "midi": 40,
                    "time": 49.99999499999997,
                    "velocity": 0.3858267716535433,
                    "duration": 0.1087962854166662
                },
                {
                    "name": "C#3",
                    "midi": 49,
                    "time": 49.99999499999997,
                    "velocity": 0.3858267716535433,
                    "duration": 0.1087962854166662
                },
                {
                    "name": "E3",
                    "midi": 52,
                    "time": 49.99999499999997,
                    "velocity": 0.3858267716535433,
                    "duration": 0.1087962854166662
                },
                {
                    "name": "A#1",
                    "midi": 34,
                    "time": 50.55555049999997,
                    "velocity": 0.3858267716535433,
                    "duration": 0.1087962854166662
                },
                {
                    "name": "D2",
                    "midi": 38,
                    "time": 50.55555049999997,
                    "velocity": 0.3858267716535433,
                    "duration": 0.1087962854166662
                },
                {
                    "name": "A#2",
                    "midi": 46,
                    "time": 50.55555049999997,
                    "velocity": 0.3858267716535433,
                    "duration": 0.1087962854166662
                },
                {
                    "name": "D3",
                    "midi": 50,
                    "time": 50.55555049999997,
                    "velocity": 0.3858267716535433,
                    "duration": 0.1087962854166662
                },
                {
                    "name": "C#2",
                    "midi": 37,
                    "time": 51.111105999999964,
                    "velocity": 0.3858267716535433,
                    "duration": 0.1087962854166662
                },
                {
                    "name": "E2",
                    "midi": 40,
                    "time": 51.111105999999964,
                    "velocity": 0.3858267716535433,
                    "duration": 0.1087962854166662
                },
                {
                    "name": "C#3",
                    "midi": 49,
                    "time": 51.111105999999964,
                    "velocity": 0.3858267716535433,
                    "duration": 0.1087962854166662
                },
                {
                    "name": "E3",
                    "midi": 52,
                    "time": 51.111105999999964,
                    "velocity": 0.3858267716535433,
                    "duration": 0.1087962854166662
                },
                {
                    "name": "A#1",
                    "midi": 34,
                    "time": 51.66666149999996,
                    "velocity": 0.3858267716535433,
                    "duration": 0.1087962854166662
                },
                {
                    "name": "D2",
                    "midi": 38,
                    "time": 51.66666149999996,
                    "velocity": 0.3858267716535433,
                    "duration": 0.1087962854166662
                },
                {
                    "name": "A#2",
                    "midi": 46,
                    "time": 51.66666149999996,
                    "velocity": 0.3858267716535433,
                    "duration": 0.1087962854166662
                },
                {
                    "name": "D3",
                    "midi": 50,
                    "time": 51.66666149999996,
                    "velocity": 0.3858267716535433,
                    "duration": 0.1087962854166662
                },
                {
                    "name": "C#2",
                    "midi": 37,
                    "time": 52.22221699999996,
                    "velocity": 0.3858267716535433,
                    "duration": 0.1087962854166662
                },
                {
                    "name": "E2",
                    "midi": 40,
                    "time": 52.22221699999996,
                    "velocity": 0.3858267716535433,
                    "duration": 0.1087962854166662
                },
                {
                    "name": "C#3",
                    "midi": 49,
                    "time": 52.22221699999996,
                    "velocity": 0.3858267716535433,
                    "duration": 0.1087962854166662
                },
                {
                    "name": "E3",
                    "midi": 52,
                    "time": 52.22221699999996,
                    "velocity": 0.3858267716535433,
                    "duration": 0.1087962854166662
                },
                {
                    "name": "A#1",
                    "midi": 34,
                    "time": 52.777772499999955,
                    "velocity": 0.3858267716535433,
                    "duration": 0.1087962854166662
                },
                {
                    "name": "D2",
                    "midi": 38,
                    "time": 52.777772499999955,
                    "velocity": 0.3858267716535433,
                    "duration": 0.1087962854166662
                },
                {
                    "name": "A#2",
                    "midi": 46,
                    "time": 52.777772499999955,
                    "velocity": 0.3858267716535433,
                    "duration": 0.1087962854166662
                },
                {
                    "name": "D3",
                    "midi": 50,
                    "time": 52.777772499999955,
                    "velocity": 0.3858267716535433,
                    "duration": 0.1087962854166662
                },
                {
                    "name": "G#2",
                    "midi": 44,
                    "time": 53.33332799999995,
                    "velocity": 0.3858267716535433,
                    "duration": 0.555555499999997
                },
                {
                    "name": "E2",
                    "midi": 40,
                    "time": 53.88888349999995,
                    "velocity": 0.3858267716535433,
                    "duration": 0.555555499999997
                },
                {
                    "name": "D#2",
                    "midi": 39,
                    "time": 54.444438999999946,
                    "velocity": 0.3858267716535433,
                    "duration": 0.555555499999997
                },
                {
                    "name": "D2",
                    "midi": 38,
                    "time": 54.99999449999994,
                    "velocity": 0.3858267716535433,
                    "duration": 0.555555499999997
                },
                {
                    "name": "F2",
                    "midi": 41,
                    "time": 55.55554999999994,
                    "velocity": 0.3858267716535433,
                    "duration": 0.555555499999997
                },
                {
                    "name": "G2",
                    "midi": 43,
                    "time": 56.11110549999994,
                    "velocity": 0.3858267716535433,
                    "duration": 0.555555499999997
                },
                {
                    "name": "G#2",
                    "midi": 44,
                    "time": 56.666660999999934,
                    "velocity": 0.3858267716535433,
                    "duration": 0.555555499999997
                },
                {
                    "name": "D3",
                    "midi": 50,
                    "time": 57.22221649999993,
                    "velocity": 0.3858267716535433,
                    "duration": 0.9722221250000018
                },
                {
                    "name": "F3",
                    "midi": 53,
                    "time": 57.22221649999993,
                    "velocity": 0.3858267716535433,
                    "duration": 0.9722221250000018
                },
                {
                    "name": "D3",
                    "midi": 50,
                    "time": 58.19443862499993,
                    "velocity": 0.3858267716535433,
                    "duration": 0.13888887499999925
                },
                {
                    "name": "F3",
                    "midi": 53,
                    "time": 58.19443862499993,
                    "velocity": 0.3858267716535433,
                    "duration": 0.13888887499999925
                },
                {
                    "name": "A#2",
                    "midi": 46,
                    "time": 58.33332749999993,
                    "velocity": 0.3858267716535433,
                    "duration": 0.13888887499999925
                },
                {
                    "name": "D3",
                    "midi": 50,
                    "time": 58.33332749999993,
                    "velocity": 0.3858267716535433,
                    "duration": 0.13888887499999925
                },
                {
                    "name": "C#3",
                    "midi": 49,
                    "time": 58.47221637499993,
                    "velocity": 0.3858267716535433,
                    "duration": 0.41666662499999774
                },
                {
                    "name": "F3",
                    "midi": 53,
                    "time": 58.47221637499993,
                    "velocity": 0.3858267716535433,
                    "duration": 0.41666662499999774
                },
                {
                    "name": "D#3",
                    "midi": 51,
                    "time": 58.88888299999993,
                    "velocity": 0.3858267716535433,
                    "duration": 0.41666662499999774
                },
                {
                    "name": "G3",
                    "midi": 55,
                    "time": 58.88888299999993,
                    "velocity": 0.3858267716535433,
                    "duration": 0.41666662499999774
                },
                {
                    "name": "D#3",
                    "midi": 51,
                    "time": 59.30554962499993,
                    "velocity": 0.3858267716535433,
                    "duration": 0.13888887499999925
                },
                {
                    "name": "G3",
                    "midi": 55,
                    "time": 59.30554962499993,
                    "velocity": 0.3858267716535433,
                    "duration": 0.13888887499999925
                },
                {
                    "name": "C#3",
                    "midi": 49,
                    "time": 59.444438499999926,
                    "velocity": 0.3858267716535433,
                    "duration": 0.13888887499999925
                },
                {
                    "name": "F3",
                    "midi": 53,
                    "time": 59.444438499999926,
                    "velocity": 0.3858267716535433,
                    "duration": 0.13888887499999925
                },
                {
                    "name": "D#3",
                    "midi": 51,
                    "time": 59.583327374999925,
                    "velocity": 0.3858267716535433,
                    "duration": 0.41666662499999774
                },
                {
                    "name": "G3",
                    "midi": 55,
                    "time": 59.583327374999925,
                    "velocity": 0.3858267716535433,
                    "duration": 0.41666662499999774
                },
                {
                    "name": "F#3",
                    "midi": 54,
                    "time": 60.13888287499992,
                    "velocity": 0.3858267716535433,
                    "duration": 0.8333332500000026
                },
                {
                    "name": "A3",
                    "midi": 57,
                    "time": 60.13888287499992,
                    "velocity": 0.3858267716535433,
                    "duration": 0.8333332500000026
                },
                {
                    "name": "F#3",
                    "midi": 54,
                    "time": 60.972216124999925,
                    "velocity": 0.4881889763779528,
                    "duration": 0.13888887499999925
                },
                {
                    "name": "A3",
                    "midi": 57,
                    "time": 60.972216124999925,
                    "velocity": 0.4881889763779528,
                    "duration": 0.13888887499999925
                },
                {
                    "name": "G#3",
                    "midi": 56,
                    "time": 61.111104999999924,
                    "velocity": 0.4881889763779528,
                    "duration": 0.13888887499999925
                },
                {
                    "name": "C4",
                    "midi": 60,
                    "time": 61.111104999999924,
                    "velocity": 0.4881889763779528,
                    "duration": 0.13888887499999925
                },
                {
                    "name": "B3",
                    "midi": 59,
                    "time": 61.24999387499992,
                    "velocity": 0.4881889763779528,
                    "duration": 0.8333332500000026
                },
                {
                    "name": "D4",
                    "midi": 62,
                    "time": 61.24999387499992,
                    "velocity": 0.4881889763779528,
                    "duration": 0.8333332500000026
                },
                {
                    "name": "B3",
                    "midi": 59,
                    "time": 62.083327124999926,
                    "velocity": 0.4881889763779528,
                    "duration": 0.13888887499999925
                },
                {
                    "name": "D4",
                    "midi": 62,
                    "time": 62.083327124999926,
                    "velocity": 0.4881889763779528,
                    "duration": 0.13888887499999925
                },
                {
                    "name": "C#4",
                    "midi": 61,
                    "time": 62.222215999999925,
                    "velocity": 0.4881889763779528,
                    "duration": 0.13888887499999925
                },
                {
                    "name": "F4",
                    "midi": 65,
                    "time": 62.222215999999925,
                    "velocity": 0.4881889763779528,
                    "duration": 0.13888887499999925
                },
                {
                    "name": "E4",
                    "midi": 64,
                    "time": 62.361104874999924,
                    "velocity": 0.4881889763779528,
                    "duration": 0.8333332500000026
                },
                {
                    "name": "G4",
                    "midi": 67,
                    "time": 62.361104874999924,
                    "velocity": 0.4881889763779528,
                    "duration": 0.8333332500000026
                },
                {
                    "name": "E4",
                    "midi": 64,
                    "time": 63.19443812499993,
                    "velocity": 0.4881889763779528,
                    "duration": 0.13888887499999925
                },
                {
                    "name": "G4",
                    "midi": 67,
                    "time": 63.19443812499993,
                    "velocity": 0.4881889763779528,
                    "duration": 0.13888887499999925
                },
                {
                    "name": "F#4",
                    "midi": 66,
                    "time": 63.333326999999926,
                    "velocity": 0.4881889763779528,
                    "duration": 0.13888887499999925
                },
                {
                    "name": "A#4",
                    "midi": 70,
                    "time": 63.333326999999926,
                    "velocity": 0.4881889763779528,
                    "duration": 0.13888887499999925
                },
                {
                    "name": "E4",
                    "midi": 64,
                    "time": 63.472215874999925,
                    "velocity": 0.4881889763779528,
                    "duration": 0.8333332500000026
                },
                {
                    "name": "G4",
                    "midi": 67,
                    "time": 63.472215874999925,
                    "velocity": 0.4881889763779528,
                    "duration": 0.8333332500000026
                },
                {
                    "name": "E4",
                    "midi": 64,
                    "time": 64.30554912499993,
                    "velocity": 0.4881889763779528,
                    "duration": 0.13888887500000635
                },
                {
                    "name": "G4",
                    "midi": 67,
                    "time": 64.30554912499993,
                    "velocity": 0.4881889763779528,
                    "duration": 0.13888887500000635
                },
                {
                    "name": "C#4",
                    "midi": 61,
                    "time": 64.44443799999993,
                    "velocity": 0.4881889763779528,
                    "duration": 0.13888887500000635
                },
                {
                    "name": "F4",
                    "midi": 65,
                    "time": 64.44443799999993,
                    "velocity": 0.4881889763779528,
                    "duration": 0.13888887500000635
                },
                {
                    "name": "B3",
                    "midi": 59,
                    "time": 64.58332687499994,
                    "velocity": 0.4881889763779528,
                    "duration": 0.8333332499999955
                },
                {
                    "name": "D4",
                    "midi": 62,
                    "time": 64.58332687499994,
                    "velocity": 0.4881889763779528,
                    "duration": 0.8333332499999955
                },
                {
                    "name": "B3",
                    "midi": 59,
                    "time": 65.41666012499994,
                    "velocity": 0.4881889763779528,
                    "duration": 0.13888887500000635
                },
                {
                    "name": "D4",
                    "midi": 62,
                    "time": 65.41666012499994,
                    "velocity": 0.4881889763779528,
                    "duration": 0.13888887500000635
                },
                {
                    "name": "C#4",
                    "midi": 61,
                    "time": 65.55554899999994,
                    "velocity": 0.4881889763779528,
                    "duration": 0.13888887500000635
                },
                {
                    "name": "F4",
                    "midi": 65,
                    "time": 65.55554899999994,
                    "velocity": 0.4881889763779528,
                    "duration": 0.13888887500000635
                },
                {
                    "name": "E4",
                    "midi": 64,
                    "time": 65.69443787499995,
                    "velocity": 0.4881889763779528,
                    "duration": 0.8333332499999955
                },
                {
                    "name": "G4",
                    "midi": 67,
                    "time": 65.69443787499995,
                    "velocity": 0.4881889763779528,
                    "duration": 0.8333332499999955
                },
                {
                    "name": "E4",
                    "midi": 64,
                    "time": 66.52777112499994,
                    "velocity": 0.4881889763779528,
                    "duration": 0.13888887500000635
                },
                {
                    "name": "G4",
                    "midi": 67,
                    "time": 66.52777112499994,
                    "velocity": 0.4881889763779528,
                    "duration": 0.13888887500000635
                },
                {
                    "name": "F#4",
                    "midi": 66,
                    "time": 66.66665999999995,
                    "velocity": 0.4881889763779528,
                    "duration": 0.13888887500000635
                },
                {
                    "name": "A#4",
                    "midi": 70,
                    "time": 66.66665999999995,
                    "velocity": 0.4881889763779528,
                    "duration": 0.13888887500000635
                },
                {
                    "name": "E4",
                    "midi": 64,
                    "time": 66.80554887499996,
                    "velocity": 0.4881889763779528,
                    "duration": 0.8333332499999955
                },
                {
                    "name": "G4",
                    "midi": 67,
                    "time": 66.80554887499996,
                    "velocity": 0.4881889763779528,
                    "duration": 0.8333332499999955
                },
                {
                    "name": "E4",
                    "midi": 64,
                    "time": 67.63888212499995,
                    "velocity": 0.4881889763779528,
                    "duration": 0.13888887500000635
                },
                {
                    "name": "G4",
                    "midi": 67,
                    "time": 67.63888212499995,
                    "velocity": 0.4881889763779528,
                    "duration": 0.13888887500000635
                },
                {
                    "name": "F#4",
                    "midi": 66,
                    "time": 67.77777099999996,
                    "velocity": 0.4881889763779528,
                    "duration": 0.13888887500000635
                },
                {
                    "name": "A#4",
                    "midi": 70,
                    "time": 67.77777099999996,
                    "velocity": 0.4881889763779528,
                    "duration": 0.13888887500000635
                },
                {
                    "name": "E4",
                    "midi": 64,
                    "time": 67.91665987499997,
                    "velocity": 0.4881889763779528,
                    "duration": 0.8333332499999955
                },
                {
                    "name": "G4",
                    "midi": 67,
                    "time": 67.91665987499997,
                    "velocity": 0.4881889763779528,
                    "duration": 0.8333332499999955
                },
                {
                    "name": "E4",
                    "midi": 64,
                    "time": 68.74999312499996,
                    "velocity": 0.4881889763779528,
                    "duration": 0.13888887500000635
                },
                {
                    "name": "G4",
                    "midi": 67,
                    "time": 68.74999312499996,
                    "velocity": 0.4881889763779528,
                    "duration": 0.13888887500000635
                },
                {
                    "name": "F#4",
                    "midi": 66,
                    "time": 68.88888199999997,
                    "velocity": 0.4881889763779528,
                    "duration": 0.13888887500000635
                },
                {
                    "name": "A#4",
                    "midi": 70,
                    "time": 68.88888199999997,
                    "velocity": 0.4881889763779528,
                    "duration": 0.13888887500000635
                },
                {
                    "name": "E4",
                    "midi": 64,
                    "time": 69.02777087499997,
                    "velocity": 0.4881889763779528,
                    "duration": 0.8333332499999955
                },
                {
                    "name": "G4",
                    "midi": 67,
                    "time": 69.02777087499997,
                    "velocity": 0.4881889763779528,
                    "duration": 0.8333332499999955
                },
                {
                    "name": "E4",
                    "midi": 64,
                    "time": 69.86110412499997,
                    "velocity": 0.4881889763779528,
                    "duration": 0.13888887500000635
                },
                {
                    "name": "G4",
                    "midi": 67,
                    "time": 69.86110412499997,
                    "velocity": 0.4881889763779528,
                    "duration": 0.13888887500000635
                },
                {
                    "name": "F#4",
                    "midi": 66,
                    "time": 69.99999299999998,
                    "velocity": 0.4881889763779528,
                    "duration": 0.13888887500000635
                },
                {
                    "name": "A#4",
                    "midi": 70,
                    "time": 69.99999299999998,
                    "velocity": 0.4881889763779528,
                    "duration": 0.13888887500000635
                },
                {
                    "name": "E4",
                    "midi": 64,
                    "time": 70.13888187499998,
                    "velocity": 0.4881889763779528,
                    "duration": 0.41666662500000484
                },
                {
                    "name": "G4",
                    "midi": 67,
                    "time": 70.13888187499998,
                    "velocity": 0.4881889763779528,
                    "duration": 0.41666662500000484
                },
                {
                    "name": "F#4",
                    "midi": 66,
                    "time": 70.55554849999999,
                    "velocity": 0.4881889763779528,
                    "duration": 0.13888887500000635
                },
                {
                    "name": "A#4",
                    "midi": 70,
                    "time": 70.55554849999999,
                    "velocity": 0.4881889763779528,
                    "duration": 0.13888887500000635
                },
                {
                    "name": "E4",
                    "midi": 64,
                    "time": 70.69443737499999,
                    "velocity": 0.4881889763779528,
                    "duration": 0.41666662500000484
                },
                {
                    "name": "G4",
                    "midi": 67,
                    "time": 70.69443737499999,
                    "velocity": 0.4881889763779528,
                    "duration": 0.41666662500000484
                },
                {
                    "name": "F#4",
                    "midi": 66,
                    "time": 71.111104,
                    "velocity": 0.4881889763779528,
                    "duration": 0.13888887500000635
                },
                {
                    "name": "A#4",
                    "midi": 70,
                    "time": 71.111104,
                    "velocity": 0.4881889763779528,
                    "duration": 0.13888887500000635
                },
                {
                    "name": "E4",
                    "midi": 64,
                    "time": 71.249992875,
                    "velocity": 0.4881889763779528,
                    "duration": 0.41666662500000484
                },
                {
                    "name": "G4",
                    "midi": 67,
                    "time": 71.249992875,
                    "velocity": 0.4881889763779528,
                    "duration": 0.41666662500000484
                },
                {
                    "name": "C#4",
                    "midi": 61,
                    "time": 74.9999925,
                    "velocity": 0.3858267716535433,
                    "duration": 0.13888887500000635
                },
                {
                    "name": "F4",
                    "midi": 65,
                    "time": 75.13888137500001,
                    "velocity": 0.3858267716535433,
                    "duration": 0.13888887500000635
                },
                {
                    "name": "C#4",
                    "midi": 61,
                    "time": 75.27777025000002,
                    "velocity": 0.3858267716535433,
                    "duration": 0.13888887500000635
                },
                {
                    "name": "F4",
                    "midi": 65,
                    "time": 75.41665912500002,
                    "velocity": 0.3858267716535433,
                    "duration": 0.13888887500000635
                },
                {
                    "name": "C#4",
                    "midi": 61,
                    "time": 75.55554800000003,
                    "velocity": 0.3858267716535433,
                    "duration": 0.13888887500000635
                },
                {
                    "name": "F4",
                    "midi": 65,
                    "time": 75.69443687500004,
                    "velocity": 0.3858267716535433,
                    "duration": 0.13888887500000635
                },
                {
                    "name": "C#4",
                    "midi": 61,
                    "time": 75.83332575000004,
                    "velocity": 0.3858267716535433,
                    "duration": 0.13888887500000635
                },
                {
                    "name": "F4",
                    "midi": 65,
                    "time": 75.97221462500005,
                    "velocity": 0.3858267716535433,
                    "duration": 0.13888887500000635
                },
                {
                    "name": "C#4",
                    "midi": 61,
                    "time": 76.11110350000006,
                    "velocity": 0.3858267716535433,
                    "duration": 0.13888887500000635
                },
                {
                    "name": "F4",
                    "midi": 65,
                    "time": 76.24999237500006,
                    "velocity": 0.3858267716535433,
                    "duration": 0.13888887500000635
                },
                {
                    "name": "C#4",
                    "midi": 61,
                    "time": 76.38888125000007,
                    "velocity": 0.3858267716535433,
                    "duration": 0.13888887500000635
                },
                {
                    "name": "F4",
                    "midi": 65,
                    "time": 76.52777012500007,
                    "velocity": 0.3858267716535433,
                    "duration": 0.13888887500000635
                },
                {
                    "name": "B3",
                    "midi": 59,
                    "time": 76.66665900000008,
                    "velocity": 0.3858267716535433,
                    "duration": 0.13888887500000635
                },
                {
                    "name": "D4",
                    "midi": 62,
                    "time": 76.80554787500009,
                    "velocity": 0.3858267716535433,
                    "duration": 0.13888887500000635
                },
                {
                    "name": "B3",
                    "midi": 59,
                    "time": 76.9444367500001,
                    "velocity": 0.3858267716535433,
                    "duration": 0.13888887500000635
                },
                {
                    "name": "D4",
                    "midi": 62,
                    "time": 77.0833256250001,
                    "velocity": 0.3858267716535433,
                    "duration": 0.13888887500000635
                },
                {
                    "name": "B3",
                    "midi": 59,
                    "time": 77.2222145000001,
                    "velocity": 0.3858267716535433,
                    "duration": 0.13888887500000635
                },
                {
                    "name": "D4",
                    "midi": 62,
                    "time": 77.36110337500011,
                    "velocity": 0.3858267716535433,
                    "duration": 0.13888887500000635
                },
                {
                    "name": "B3",
                    "midi": 59,
                    "time": 77.49999225000012,
                    "velocity": 0.3858267716535433,
                    "duration": 0.13888887500000635
                },
                {
                    "name": "D4",
                    "midi": 62,
                    "time": 77.63888112500013,
                    "velocity": 0.3858267716535433,
                    "duration": 0.13888887500000635
                },
                {
                    "name": "B3",
                    "midi": 59,
                    "time": 77.77777000000013,
                    "velocity": 0.3858267716535433,
                    "duration": 0.13888887500000635
                },
                {
                    "name": "D4",
                    "midi": 62,
                    "time": 77.91665887500014,
                    "velocity": 0.3858267716535433,
                    "duration": 0.13888887500000635
                },
                {
                    "name": "B3",
                    "midi": 59,
                    "time": 78.05554775000014,
                    "velocity": 0.3858267716535433,
                    "duration": 0.13888887500000635
                },
                {
                    "name": "D4",
                    "midi": 62,
                    "time": 78.19443662500015,
                    "velocity": 0.3858267716535433,
                    "duration": 0.13888887500000635
                },
                {
                    "name": "G#3",
                    "midi": 56,
                    "time": 78.33332550000016,
                    "velocity": 0.3858267716535433,
                    "duration": 0.13888887500000635
                },
                {
                    "name": "C4",
                    "midi": 60,
                    "time": 78.47221437500016,
                    "velocity": 0.3858267716535433,
                    "duration": 0.13888887500000635
                },
                {
                    "name": "G#3",
                    "midi": 56,
                    "time": 78.61110325000017,
                    "velocity": 0.3858267716535433,
                    "duration": 0.13888887500000635
                },
                {
                    "name": "C4",
                    "midi": 60,
                    "time": 78.74999212500018,
                    "velocity": 0.3858267716535433,
                    "duration": 0.13888887500000635
                },
                {
                    "name": "G#3",
                    "midi": 56,
                    "time": 78.88888100000018,
                    "velocity": 0.3858267716535433,
                    "duration": 0.13888887500000635
                },
                {
                    "name": "C4",
                    "midi": 60,
                    "time": 79.02776987500019,
                    "velocity": 0.3858267716535433,
                    "duration": 0.13888887500000635
                },
                {
                    "name": "G#3",
                    "midi": 56,
                    "time": 79.1666587500002,
                    "velocity": 0.3858267716535433,
                    "duration": 0.13888887500000635
                },
                {
                    "name": "C4",
                    "midi": 60,
                    "time": 79.3055476250002,
                    "velocity": 0.3858267716535433,
                    "duration": 0.13888887500000635
                },
                {
                    "name": "G#3",
                    "midi": 56,
                    "time": 79.44443650000021,
                    "velocity": 0.3858267716535433,
                    "duration": 0.13888887500000635
                },
                {
                    "name": "C4",
                    "midi": 60,
                    "time": 79.58332537500021,
                    "velocity": 0.3858267716535433,
                    "duration": 0.13888887500000635
                },
                {
                    "name": "G#3",
                    "midi": 56,
                    "time": 79.72221425000022,
                    "velocity": 0.3858267716535433,
                    "duration": 0.13888887500000635
                },
                {
                    "name": "C4",
                    "midi": 60,
                    "time": 79.86110312500023,
                    "velocity": 0.3858267716535433,
                    "duration": 0.13888887500000635
                },
                {
                    "name": "F#3",
                    "midi": 54,
                    "time": 79.99999200000023,
                    "velocity": 0.3858267716535433,
                    "duration": 6.666666000000006
                },
                {
                    "name": "C4",
                    "midi": 60,
                    "time": 79.99999200000023,
                    "velocity": 0.3858267716535433,
                    "duration": 6.666666000000006
                },
                {
                    "name": "D4",
                    "midi": 62,
                    "time": 79.99999200000023,
                    "velocity": 0.3858267716535433,
                    "duration": 6.666666000000006
                },
                {
                    "name": "D2",
                    "midi": 38,
                    "time": 86.66665800000024,
                    "velocity": 0.3858267716535433,
                    "duration": 0.13888887500000635
                },
                {
                    "name": "A3",
                    "midi": 57,
                    "time": 86.66665800000024,
                    "velocity": 0.3858267716535433,
                    "duration": 0.13888887500000635
                },
                {
                    "name": "C4",
                    "midi": 60,
                    "time": 86.80554687500025,
                    "velocity": 0.3858267716535433,
                    "duration": 0.13888887500000635
                },
                {
                    "name": "A3",
                    "midi": 57,
                    "time": 86.94443575000025,
                    "velocity": 0.3858267716535433,
                    "duration": 0.13888887500000635
                },
                {
                    "name": "C4",
                    "midi": 60,
                    "time": 87.08332462500026,
                    "velocity": 0.3858267716535433,
                    "duration": 0.13888887500000635
                },
                {
                    "name": "A3",
                    "midi": 57,
                    "time": 87.22221350000027,
                    "velocity": 0.3858267716535433,
                    "duration": 0.13888887500000635
                },
                {
                    "name": "C4",
                    "midi": 60,
                    "time": 87.36110237500027,
                    "velocity": 0.3858267716535433,
                    "duration": 0.13888887500000635
                },
                {
                    "name": "A3",
                    "midi": 57,
                    "time": 87.49999125000028,
                    "velocity": 0.3858267716535433,
                    "duration": 0.13888887500000635
                },
                {
                    "name": "C4",
                    "midi": 60,
                    "time": 87.63888012500028,
                    "velocity": 0.3858267716535433,
                    "duration": 0.13888887500000635
                },
                {
                    "name": "A3",
                    "midi": 57,
                    "time": 87.77776900000029,
                    "velocity": 0.3858267716535433,
                    "duration": 0.13888887500000635
                },
                {
                    "name": "C4",
                    "midi": 60,
                    "time": 87.9166578750003,
                    "velocity": 0.3858267716535433,
                    "duration": 0.13888887500000635
                },
                {
                    "name": "A3",
                    "midi": 57,
                    "time": 88.0555467500003,
                    "velocity": 0.3858267716535433,
                    "duration": 0.13888887500000635
                },
                {
                    "name": "C4",
                    "midi": 60,
                    "time": 88.19443562500031,
                    "velocity": 0.3858267716535433,
                    "duration": 0.13888887500000635
                },
                {
                    "name": "G#2",
                    "midi": 44,
                    "time": 88.33332450000032,
                    "velocity": 0.3858267716535433,
                    "duration": 0.13888887500000635
                },
                {
                    "name": "F#3",
                    "midi": 54,
                    "time": 88.33332450000032,
                    "velocity": 0.3858267716535433,
                    "duration": 0.13888887500000635
                },
                {
                    "name": "A#3",
                    "midi": 58,
                    "time": 88.47221337500032,
                    "velocity": 0.3858267716535433,
                    "duration": 0.13888887500000635
                },
                {
                    "name": "F#3",
                    "midi": 54,
                    "time": 88.61110225000033,
                    "velocity": 0.3858267716535433,
                    "duration": 0.13888887500000635
                },
                {
                    "name": "A#3",
                    "midi": 58,
                    "time": 88.74999112500034,
                    "velocity": 0.3858267716535433,
                    "duration": 0.13888887500000635
                },
                {
                    "name": "F#3",
                    "midi": 54,
                    "time": 88.88888000000034,
                    "velocity": 0.3858267716535433,
                    "duration": 0.13888887500000635
                },
                {
                    "name": "A#3",
                    "midi": 58,
                    "time": 89.02776887500035,
                    "velocity": 0.3858267716535433,
                    "duration": 0.13888887500000635
                },
                {
                    "name": "F#3",
                    "midi": 54,
                    "time": 89.16665775000035,
                    "velocity": 0.3858267716535433,
                    "duration": 0.13888887500000635
                },
                {
                    "name": "A#3",
                    "midi": 58,
                    "time": 89.30554662500036,
                    "velocity": 0.3858267716535433,
                    "duration": 0.13888887500000635
                },
                {
                    "name": "F#3",
                    "midi": 54,
                    "time": 89.44443550000037,
                    "velocity": 0.3858267716535433,
                    "duration": 0.13888887500000635
                },
                {
                    "name": "A#3",
                    "midi": 58,
                    "time": 89.58332437500037,
                    "velocity": 0.3858267716535433,
                    "duration": 0.13888887500000635
                },
                {
                    "name": "F#3",
                    "midi": 54,
                    "time": 89.72221325000038,
                    "velocity": 0.3858267716535433,
                    "duration": 0.13888887500000635
                },
                {
                    "name": "A#3",
                    "midi": 58,
                    "time": 89.86110212500039,
                    "velocity": 0.3858267716535433,
                    "duration": 0.13888887500000635
                },
                {
                    "name": "D2",
                    "midi": 38,
                    "time": 89.99999100000039,
                    "velocity": 0.3858267716535433,
                    "duration": 0.13888887500000635
                },
                {
                    "name": "A3",
                    "midi": 57,
                    "time": 89.99999100000039,
                    "velocity": 0.3858267716535433,
                    "duration": 0.13888887500000635
                },
                {
                    "name": "C4",
                    "midi": 60,
                    "time": 90.1388798750004,
                    "velocity": 0.3858267716535433,
                    "duration": 0.13888887500000635
                },
                {
                    "name": "A3",
                    "midi": 57,
                    "time": 90.2777687500004,
                    "velocity": 0.3858267716535433,
                    "duration": 0.13888887500000635
                },
                {
                    "name": "C4",
                    "midi": 60,
                    "time": 90.41665762500041,
                    "velocity": 0.3858267716535433,
                    "duration": 0.13888887500000635
                },
                {
                    "name": "A3",
                    "midi": 57,
                    "time": 90.55554650000042,
                    "velocity": 0.3858267716535433,
                    "duration": 0.13888887500000635
                },
                {
                    "name": "C4",
                    "midi": 60,
                    "time": 90.69443537500042,
                    "velocity": 0.3858267716535433,
                    "duration": 0.13888887500000635
                },
                {
                    "name": "A3",
                    "midi": 57,
                    "time": 90.83332425000043,
                    "velocity": 0.3858267716535433,
                    "duration": 0.13888887500000635
                },
                {
                    "name": "C4",
                    "midi": 60,
                    "time": 90.97221312500044,
                    "velocity": 0.3858267716535433,
                    "duration": 0.13888887500000635
                },
                {
                    "name": "A3",
                    "midi": 57,
                    "time": 91.11110200000044,
                    "velocity": 0.3858267716535433,
                    "duration": 0.13888887500000635
                },
                {
                    "name": "C4",
                    "midi": 60,
                    "time": 91.24999087500045,
                    "velocity": 0.3858267716535433,
                    "duration": 0.13888887500000635
                },
                {
                    "name": "A3",
                    "midi": 57,
                    "time": 91.38887975000046,
                    "velocity": 0.3858267716535433,
                    "duration": 0.13888887500000635
                },
                {
                    "name": "C4",
                    "midi": 60,
                    "time": 91.52776862500046,
                    "velocity": 0.3858267716535433,
                    "duration": 0.13888887500000635
                },
                {
                    "name": "G#2",
                    "midi": 44,
                    "time": 91.66665750000047,
                    "velocity": 0.3858267716535433,
                    "duration": 0.13888887500000635
                },
                {
                    "name": "F#3",
                    "midi": 54,
                    "time": 91.66665750000047,
                    "velocity": 0.3858267716535433,
                    "duration": 0.13888887500000635
                },
                {
                    "name": "A#3",
                    "midi": 58,
                    "time": 91.80554637500047,
                    "velocity": 0.3858267716535433,
                    "duration": 0.13888887500000635
                },
                {
                    "name": "F#3",
                    "midi": 54,
                    "time": 91.94443525000048,
                    "velocity": 0.3858267716535433,
                    "duration": 0.13888887500000635
                },
                {
                    "name": "A#3",
                    "midi": 58,
                    "time": 92.08332412500049,
                    "velocity": 0.3858267716535433,
                    "duration": 0.13888887500000635
                },
                {
                    "name": "F#3",
                    "midi": 54,
                    "time": 92.2222130000005,
                    "velocity": 0.3858267716535433,
                    "duration": 0.13888887500000635
                },
                {
                    "name": "A#3",
                    "midi": 58,
                    "time": 92.3611018750005,
                    "velocity": 0.3858267716535433,
                    "duration": 0.13888887500000635
                },
                {
                    "name": "F#3",
                    "midi": 54,
                    "time": 92.4999907500005,
                    "velocity": 0.3858267716535433,
                    "duration": 0.13888887500000635
                },
                {
                    "name": "A#3",
                    "midi": 58,
                    "time": 92.63887962500051,
                    "velocity": 0.3858267716535433,
                    "duration": 0.13888887500000635
                },
                {
                    "name": "F#3",
                    "midi": 54,
                    "time": 92.77776850000052,
                    "velocity": 0.3858267716535433,
                    "duration": 0.13888887500000635
                },
                {
                    "name": "A#3",
                    "midi": 58,
                    "time": 92.91665737500053,
                    "velocity": 0.3858267716535433,
                    "duration": 0.13888887500000635
                },
                {
                    "name": "F#3",
                    "midi": 54,
                    "time": 93.05554625000053,
                    "velocity": 0.3858267716535433,
                    "duration": 0.13888887500000635
                },
                {
                    "name": "A#3",
                    "midi": 58,
                    "time": 93.19443512500054,
                    "velocity": 0.3858267716535433,
                    "duration": 0.13888887500000635
                },
                {
                    "name": "B2",
                    "midi": 47,
                    "time": 93.33332400000054,
                    "velocity": 0.3858267716535433,
                    "duration": 1.6666665000000052
                },
                {
                    "name": "A3",
                    "midi": 57,
                    "time": 93.33332400000054,
                    "velocity": 0.3858267716535433,
                    "duration": 1.6666665000000052
                },
                {
                    "name": "F3",
                    "midi": 53,
                    "time": 94.99999050000055,
                    "velocity": 0.3858267716535433,
                    "duration": 1.6666665000000052
                },
                {
                    "name": "D#4",
                    "midi": 63,
                    "time": 94.99999050000055,
                    "velocity": 0.3858267716535433,
                    "duration": 1.6666665000000052
                },
                {
                    "name": "C2",
                    "midi": 36,
                    "time": 97.22221250000055,
                    "velocity": 0.3858267716535433,
                    "duration": 0.555555499999997
                },
                {
                    "name": "C3",
                    "midi": 48,
                    "time": 97.22221250000055,
                    "velocity": 0.3858267716535433,
                    "duration": 0.555555499999997
                },
                {
                    "name": "B1",
                    "midi": 35,
                    "time": 97.77776800000055,
                    "velocity": 0.3858267716535433,
                    "duration": 0.555555499999997
                },
                {
                    "name": "B2",
                    "midi": 47,
                    "time": 97.77776800000055,
                    "velocity": 0.3858267716535433,
                    "duration": 0.555555499999997
                },
                {
                    "name": "A#1",
                    "midi": 34,
                    "time": 98.33332350000055,
                    "velocity": 0.3858267716535433,
                    "duration": 0.555555499999997
                },
                {
                    "name": "A#2",
                    "midi": 46,
                    "time": 98.33332350000055,
                    "velocity": 0.3858267716535433,
                    "duration": 0.555555499999997
                },
                {
                    "name": "A1",
                    "midi": 33,
                    "time": 98.88887900000054,
                    "velocity": 0.3858267716535433,
                    "duration": 0.555555499999997
                },
                {
                    "name": "A2",
                    "midi": 45,
                    "time": 98.88887900000054,
                    "velocity": 0.3858267716535433,
                    "duration": 0.555555499999997
                },
                {
                    "name": "A#1",
                    "midi": 34,
                    "time": 99.44443450000054,
                    "velocity": 0.3858267716535433,
                    "duration": 0.555555499999997
                },
                {
                    "name": "A#2",
                    "midi": 46,
                    "time": 99.44443450000054,
                    "velocity": 0.3858267716535433,
                    "duration": 0.555555499999997
                },
                {
                    "name": "B1",
                    "midi": 35,
                    "time": 99.99999000000054,
                    "velocity": 0.3858267716535433,
                    "duration": 1.6666665000000052
                },
                {
                    "name": "B2",
                    "midi": 47,
                    "time": 99.99999000000054,
                    "velocity": 0.3858267716535433,
                    "duration": 1.6666665000000052
                },
                {
                    "name": "A3",
                    "midi": 57,
                    "time": 99.99999000000054,
                    "velocity": 0.3858267716535433,
                    "duration": 1.6666665000000052
                },
                {
                    "name": "F3",
                    "midi": 53,
                    "time": 101.66665650000054,
                    "velocity": 0.3858267716535433,
                    "duration": 1.6666665000000052
                },
                {
                    "name": "D#4",
                    "midi": 63,
                    "time": 101.66665650000054,
                    "velocity": 0.3858267716535433,
                    "duration": 1.6666665000000052
                },
                {
                    "name": "C2",
                    "midi": 36,
                    "time": 103.88887850000054,
                    "velocity": 0.3858267716535433,
                    "duration": 0.555555499999997
                },
                {
                    "name": "C3",
                    "midi": 48,
                    "time": 103.88887850000054,
                    "velocity": 0.3858267716535433,
                    "duration": 0.555555499999997
                },
                {
                    "name": "C2",
                    "midi": 36,
                    "time": 104.44443400000054,
                    "velocity": 0.3858267716535433,
                    "duration": 0.555555499999997
                },
                {
                    "name": "C3",
                    "midi": 48,
                    "time": 104.44443400000054,
                    "velocity": 0.3858267716535433,
                    "duration": 0.555555499999997
                },
                {
                    "name": "C2",
                    "midi": 36,
                    "time": 104.99998950000054,
                    "velocity": 0.3858267716535433,
                    "duration": 0.555555499999997
                },
                {
                    "name": "C3",
                    "midi": 48,
                    "time": 104.99998950000054,
                    "velocity": 0.3858267716535433,
                    "duration": 0.555555499999997
                },
                {
                    "name": "C#2",
                    "midi": 37,
                    "time": 105.55554500000054,
                    "velocity": 0.3858267716535433,
                    "duration": 0.555555499999997
                },
                {
                    "name": "C#3",
                    "midi": 49,
                    "time": 105.55554500000054,
                    "velocity": 0.3858267716535433,
                    "duration": 0.555555499999997
                },
                {
                    "name": "D2",
                    "midi": 38,
                    "time": 106.11110050000053,
                    "velocity": 0.3858267716535433,
                    "duration": 0.555555499999997
                },
                {
                    "name": "D3",
                    "midi": 50,
                    "time": 106.11110050000053,
                    "velocity": 0.3858267716535433,
                    "duration": 0.555555499999997
                },
                {
                    "name": "E2",
                    "midi": 40,
                    "time": 106.66665600000053,
                    "velocity": 0.3858267716535433,
                    "duration": 1.6666665000000052
                },
                {
                    "name": "B2",
                    "midi": 47,
                    "time": 106.66665600000053,
                    "velocity": 0.3858267716535433,
                    "duration": 1.6666665000000052
                },
                {
                    "name": "F2",
                    "midi": 41,
                    "time": 108.33332250000053,
                    "velocity": 0.3858267716535433,
                    "duration": 1.6666665000000052
                },
                {
                    "name": "D3",
                    "midi": 50,
                    "time": 108.33332250000053,
                    "velocity": 0.3858267716535433,
                    "duration": 1.6666665000000052
                },
                {
                    "name": "E2",
                    "midi": 40,
                    "time": 109.99998900000054,
                    "velocity": 0.3858267716535433,
                    "duration": 1.6666665000000052
                },
                {
                    "name": "B2",
                    "midi": 47,
                    "time": 109.99998900000054,
                    "velocity": 0.3858267716535433,
                    "duration": 1.6666665000000052
                },
                {
                    "name": "F2",
                    "midi": 41,
                    "time": 111.66665550000054,
                    "velocity": 0.3858267716535433,
                    "duration": 1.6666665000000052
                },
                {
                    "name": "D3",
                    "midi": 50,
                    "time": 111.66665550000054,
                    "velocity": 0.3858267716535433,
                    "duration": 1.6666665000000052
                },
                {
                    "name": "G#2",
                    "midi": 44,
                    "time": 113.33332200000055,
                    "velocity": 0.3858267716535433,
                    "duration": 1.6666665000000052
                },
                {
                    "name": "B2",
                    "midi": 47,
                    "time": 113.33332200000055,
                    "velocity": 0.3858267716535433,
                    "duration": 1.6666665000000052
                },
                {
                    "name": "A#2",
                    "midi": 46,
                    "time": 114.99998850000055,
                    "velocity": 0.3858267716535433,
                    "duration": 1.6666665000000052
                },
                {
                    "name": "D3",
                    "midi": 50,
                    "time": 114.99998850000055,
                    "velocity": 0.3858267716535433,
                    "duration": 1.6666665000000052
                },
                {
                    "name": "G#2",
                    "midi": 44,
                    "time": 116.66665500000056,
                    "velocity": 0.3858267716535433,
                    "duration": 1.6666665000000052
                },
                {
                    "name": "B2",
                    "midi": 47,
                    "time": 116.66665500000056,
                    "velocity": 0.3858267716535433,
                    "duration": 1.6666665000000052
                },
                {
                    "name": "A#2",
                    "midi": 46,
                    "time": 118.33332150000057,
                    "velocity": 0.3858267716535433,
                    "duration": 1.6666665000000052
                },
                {
                    "name": "D3",
                    "midi": 50,
                    "time": 118.33332150000057,
                    "velocity": 0.3858267716535433,
                    "duration": 1.6666665000000052
                },
                {
                    "name": "D2",
                    "midi": 38,
                    "time": 119.99998800000057,
                    "velocity": 0.3858267716535433,
                    "duration": 0.555555499999997
                },
                {
                    "name": "D3",
                    "midi": 50,
                    "time": 119.99998800000057,
                    "velocity": 0.3858267716535433,
                    "duration": 0.555555499999997
                },
                {
                    "name": "F3",
                    "midi": 53,
                    "time": 119.99998800000057,
                    "velocity": 0.3858267716535433,
                    "duration": 0.555555499999997
                },
                {
                    "name": "E3",
                    "midi": 52,
                    "time": 120.55554350000057,
                    "velocity": 0.3858267716535433,
                    "duration": 0.555555499999997
                },
                {
                    "name": "G#3",
                    "midi": 56,
                    "time": 120.55554350000057,
                    "velocity": 0.3858267716535433,
                    "duration": 0.555555499999997
                },
                {
                    "name": "D3",
                    "midi": 50,
                    "time": 121.11109900000056,
                    "velocity": 0.3858267716535433,
                    "duration": 0.555555499999997
                },
                {
                    "name": "F3",
                    "midi": 53,
                    "time": 121.11109900000056,
                    "velocity": 0.3858267716535433,
                    "duration": 0.555555499999997
                },
                {
                    "name": "E3",
                    "midi": 52,
                    "time": 121.66665450000056,
                    "velocity": 0.3858267716535433,
                    "duration": 0.8333332499999955
                },
                {
                    "name": "G#3",
                    "midi": 56,
                    "time": 121.66665450000056,
                    "velocity": 0.3858267716535433,
                    "duration": 0.8333332499999955
                },
                {
                    "name": "D3",
                    "midi": 50,
                    "time": 122.49998775000056,
                    "velocity": 0.3858267716535433,
                    "duration": 0.8333332499999955
                },
                {
                    "name": "F3",
                    "midi": 53,
                    "time": 122.49998775000056,
                    "velocity": 0.3858267716535433,
                    "duration": 0.8333332499999955
                },
                {
                    "name": "E3",
                    "midi": 52,
                    "time": 123.33332100000055,
                    "velocity": 0.3858267716535433,
                    "duration": 0.8333332499999955
                },
                {
                    "name": "G#3",
                    "midi": 56,
                    "time": 123.33332100000055,
                    "velocity": 0.3858267716535433,
                    "duration": 0.8333332499999955
                },
                {
                    "name": "G3",
                    "midi": 55,
                    "time": 124.16665425000055,
                    "velocity": 0.3858267716535433,
                    "duration": 0.8333332499999955
                },
                {
                    "name": "A#3",
                    "midi": 58,
                    "time": 124.16665425000055,
                    "velocity": 0.3858267716535433,
                    "duration": 0.8333332499999955
                },
                {
                    "name": "E3",
                    "midi": 52,
                    "time": 124.99998750000054,
                    "velocity": 0.3858267716535433,
                    "duration": 0.555555499999997
                },
                {
                    "name": "G#3",
                    "midi": 56,
                    "time": 124.99998750000054,
                    "velocity": 0.3858267716535433,
                    "duration": 0.555555499999997
                },
                {
                    "name": "G3",
                    "midi": 55,
                    "time": 125.55554300000054,
                    "velocity": 0.3858267716535433,
                    "duration": 0.555555499999997
                },
                {
                    "name": "A#3",
                    "midi": 58,
                    "time": 125.55554300000054,
                    "velocity": 0.3858267716535433,
                    "duration": 0.555555499999997
                },
                {
                    "name": "E3",
                    "midi": 52,
                    "time": 126.11109850000054,
                    "velocity": 0.3858267716535433,
                    "duration": 0.555555499999997
                },
                {
                    "name": "G#3",
                    "midi": 56,
                    "time": 126.11109850000054,
                    "velocity": 0.3858267716535433,
                    "duration": 0.555555499999997
                },
                {
                    "name": "A#2",
                    "midi": 46,
                    "time": 126.66665400000053,
                    "velocity": 0.3858267716535433,
                    "duration": 3.3333330000000103
                },
                {
                    "name": "C#4",
                    "midi": 61,
                    "time": 143.33331900000053,
                    "velocity": 0.3858267716535433,
                    "duration": 2.222221999999988
                },
                {
                    "name": "C#4",
                    "midi": 61,
                    "time": 145.55554100000052,
                    "velocity": 0.3858267716535433,
                    "duration": 1.111110999999994
                },
                {
                    "name": "A2",
                    "midi": 45,
                    "time": 146.6666520000005,
                    "velocity": 0.3858267716535433,
                    "duration": 3.3333330000000103
                },
                {
                    "name": "C#3",
                    "midi": 49,
                    "time": 146.6666520000005,
                    "velocity": 0.3858267716535433,
                    "duration": 3.3333330000000103
                },
                {
                    "name": "C3",
                    "midi": 48,
                    "time": 149.99998500000052,
                    "velocity": 0.3858267716535433,
                    "duration": 3.3333330000000103
                },
                {
                    "name": "D#3",
                    "midi": 51,
                    "time": 149.99998500000052,
                    "velocity": 0.3858267716535433,
                    "duration": 3.3333330000000103
                },
                {
                    "name": "A2",
                    "midi": 45,
                    "time": 153.33331800000053,
                    "velocity": 0.3858267716535433,
                    "duration": 3.3333330000000103
                },
                {
                    "name": "C#3",
                    "midi": 49,
                    "time": 153.33331800000053,
                    "velocity": 0.3858267716535433,
                    "duration": 3.3333330000000103
                },
                {
                    "name": "C3",
                    "midi": 48,
                    "time": 156.66665100000054,
                    "velocity": 0.4881889763779528,
                    "duration": 0.555555499999997
                },
                {
                    "name": "D#3",
                    "midi": 51,
                    "time": 156.66665100000054,
                    "velocity": 0.4881889763779528,
                    "duration": 0.555555499999997
                },
                {
                    "name": "C2",
                    "midi": 36,
                    "time": 157.22220650000054,
                    "velocity": 0.4881889763779528,
                    "duration": 0.555555499999997
                },
                {
                    "name": "C2",
                    "midi": 36,
                    "time": 157.77776200000054,
                    "velocity": 0.4881889763779528,
                    "duration": 0.555555499999997
                },
                {
                    "name": "C2",
                    "midi": 36,
                    "time": 158.33331750000053,
                    "velocity": 0.4881889763779528,
                    "duration": 0.555555499999997
                },
                {
                    "name": "C2",
                    "midi": 36,
                    "time": 158.88887300000053,
                    "velocity": 0.4881889763779528,
                    "duration": 0.36805551874999765
                },
                {
                    "name": "C#2",
                    "midi": 37,
                    "time": 159.25692851875053,
                    "velocity": 0.4881889763779528,
                    "duration": 0.3726851479166555
                },
                {
                    "name": "D2",
                    "midi": 38,
                    "time": 159.62961366666718,
                    "velocity": 0.4881889763779528,
                    "duration": 0.3703703333333408
                },
                {
                    "name": "D#2",
                    "midi": 39,
                    "time": 159.99998400000052,
                    "velocity": 0.4881889763779528,
                    "duration": 0.16666664999999625
                },
                {
                    "name": "F#2",
                    "midi": 42,
                    "time": 159.99998400000052,
                    "velocity": 0.4881889763779528,
                    "duration": 0.16666664999999625
                },
                {
                    "name": "D#1",
                    "midi": 27,
                    "time": 160.83331725000053,
                    "velocity": 0.4881889763779528,
                    "duration": 0.16666664999999625
                },
                {
                    "name": "F#1",
                    "midi": 30,
                    "time": 160.83331725000053,
                    "velocity": 0.4881889763779528,
                    "duration": 0.16666664999999625
                },
                {
                    "name": "F1",
                    "midi": 29,
                    "time": 161.66665050000054,
                    "velocity": 0.4881889763779528,
                    "duration": 0.16666664999999625
                },
                {
                    "name": "A1",
                    "midi": 33,
                    "time": 161.66665050000054,
                    "velocity": 0.4881889763779528,
                    "duration": 0.16666664999999625
                },
                {
                    "name": "F2",
                    "midi": 41,
                    "time": 162.49998375000055,
                    "velocity": 0.4881889763779528,
                    "duration": 0.16666664999999625
                },
                {
                    "name": "A2",
                    "midi": 45,
                    "time": 162.49998375000055,
                    "velocity": 0.4881889763779528,
                    "duration": 0.16666664999999625
                },
                {
                    "name": "C2",
                    "midi": 36,
                    "time": 163.88887250000056,
                    "velocity": 0.4881889763779528,
                    "duration": 0.555555499999997
                },
                {
                    "name": "C2",
                    "midi": 36,
                    "time": 164.44442800000056,
                    "velocity": 0.4881889763779528,
                    "duration": 0.555555499999997
                },
                {
                    "name": "C2",
                    "midi": 36,
                    "time": 164.99998350000055,
                    "velocity": 0.4881889763779528,
                    "duration": 0.555555499999997
                },
                {
                    "name": "C#2",
                    "midi": 37,
                    "time": 165.55553900000055,
                    "velocity": 0.4881889763779528,
                    "duration": 0.555555499999997
                },
                {
                    "name": "D2",
                    "midi": 38,
                    "time": 166.11109450000055,
                    "velocity": 0.4881889763779528,
                    "duration": 0.555555499999997
                },
                {
                    "name": "D#2",
                    "midi": 39,
                    "time": 166.66665000000054,
                    "velocity": 0.4881889763779528,
                    "duration": 0.16666664999999625
                },
                {
                    "name": "F#2",
                    "midi": 42,
                    "time": 166.66665000000054,
                    "velocity": 0.4881889763779528,
                    "duration": 0.16666664999999625
                },
                {
                    "name": "D#1",
                    "midi": 27,
                    "time": 167.49998325000055,
                    "velocity": 0.4881889763779528,
                    "duration": 0.16666664999999625
                },
                {
                    "name": "F#1",
                    "midi": 30,
                    "time": 167.49998325000055,
                    "velocity": 0.4881889763779528,
                    "duration": 0.16666664999999625
                },
                {
                    "name": "F1",
                    "midi": 29,
                    "time": 168.33331650000056,
                    "velocity": 0.4881889763779528,
                    "duration": 0.16666664999999625
                },
                {
                    "name": "A1",
                    "midi": 33,
                    "time": 168.33331650000056,
                    "velocity": 0.4881889763779528,
                    "duration": 0.16666664999999625
                },
                {
                    "name": "F2",
                    "midi": 41,
                    "time": 169.16664975000057,
                    "velocity": 0.4881889763779528,
                    "duration": 0.16666664999999625
                },
                {
                    "name": "A2",
                    "midi": 45,
                    "time": 169.16664975000057,
                    "velocity": 0.4881889763779528,
                    "duration": 0.16666664999999625
                },
                {
                    "name": "D#1",
                    "midi": 27,
                    "time": 169.99998300000058,
                    "velocity": 0.4881889763779528,
                    "duration": 0.16666664999999625
                },
                {
                    "name": "F#1",
                    "midi": 30,
                    "time": 169.99998300000058,
                    "velocity": 0.4881889763779528,
                    "duration": 0.16666664999999625
                },
                {
                    "name": "D#2",
                    "midi": 39,
                    "time": 170.8333162500006,
                    "velocity": 0.4881889763779528,
                    "duration": 0.16666664999999625
                },
                {
                    "name": "F#2",
                    "midi": 42,
                    "time": 170.8333162500006,
                    "velocity": 0.4881889763779528,
                    "duration": 0.16666664999999625
                },
                {
                    "name": "F1",
                    "midi": 29,
                    "time": 171.6666495000006,
                    "velocity": 0.4881889763779528,
                    "duration": 0.16666664999999625
                },
                {
                    "name": "A1",
                    "midi": 33,
                    "time": 171.6666495000006,
                    "velocity": 0.4881889763779528,
                    "duration": 0.16666664999999625
                },
                {
                    "name": "F2",
                    "midi": 41,
                    "time": 172.4999827500006,
                    "velocity": 0.4881889763779528,
                    "duration": 0.16666664999999625
                },
                {
                    "name": "A2",
                    "midi": 45,
                    "time": 172.4999827500006,
                    "velocity": 0.4881889763779528,
                    "duration": 0.16666664999999625
                },
                {
                    "name": "D#1",
                    "midi": 27,
                    "time": 173.33331600000062,
                    "velocity": 0.4881889763779528,
                    "duration": 0.16666664999999625
                },
                {
                    "name": "F#1",
                    "midi": 30,
                    "time": 173.33331600000062,
                    "velocity": 0.4881889763779528,
                    "duration": 0.16666664999999625
                },
                {
                    "name": "D#2",
                    "midi": 39,
                    "time": 174.16664925000063,
                    "velocity": 0.4881889763779528,
                    "duration": 0.16666664999999625
                },
                {
                    "name": "F#2",
                    "midi": 42,
                    "time": 174.16664925000063,
                    "velocity": 0.4881889763779528,
                    "duration": 0.16666664999999625
                },
                {
                    "name": "F1",
                    "midi": 29,
                    "time": 174.99998250000064,
                    "velocity": 0.4881889763779528,
                    "duration": 0.16666664999999625
                },
                {
                    "name": "A1",
                    "midi": 33,
                    "time": 174.99998250000064,
                    "velocity": 0.4881889763779528,
                    "duration": 0.16666664999999625
                },
                {
                    "name": "F2",
                    "midi": 41,
                    "time": 175.83331575000065,
                    "velocity": 0.4881889763779528,
                    "duration": 0.16666664999999625
                },
                {
                    "name": "A2",
                    "midi": 45,
                    "time": 175.83331575000065,
                    "velocity": 0.4881889763779528,
                    "duration": 0.16666664999999625
                },
                {
                    "name": "G#1",
                    "midi": 32,
                    "time": 176.66664900000066,
                    "velocity": 0.4881889763779528,
                    "duration": 0.16666664999999625
                },
                {
                    "name": "B1",
                    "midi": 35,
                    "time": 176.66664900000066,
                    "velocity": 0.4881889763779528,
                    "duration": 0.16666664999999625
                },
                {
                    "name": "G#2",
                    "midi": 44,
                    "time": 177.49998225000067,
                    "velocity": 0.4881889763779528,
                    "duration": 0.16666664999999625
                },
                {
                    "name": "B2",
                    "midi": 47,
                    "time": 177.49998225000067,
                    "velocity": 0.4881889763779528,
                    "duration": 0.16666664999999625
                },
                {
                    "name": "A#1",
                    "midi": 34,
                    "time": 178.33331550000068,
                    "velocity": 0.4881889763779528,
                    "duration": 0.16666664999999625
                },
                {
                    "name": "D2",
                    "midi": 38,
                    "time": 178.33331550000068,
                    "velocity": 0.4881889763779528,
                    "duration": 0.16666664999999625
                },
                {
                    "name": "A#2",
                    "midi": 46,
                    "time": 179.1666487500007,
                    "velocity": 0.4881889763779528,
                    "duration": 0.16666664999999625
                },
                {
                    "name": "D3",
                    "midi": 50,
                    "time": 179.1666487500007,
                    "velocity": 0.4881889763779528,
                    "duration": 0.16666664999999625
                },
                {
                    "name": "G#1",
                    "midi": 32,
                    "time": 179.9999820000007,
                    "velocity": 0.4881889763779528,
                    "duration": 0.16666664999999625
                },
                {
                    "name": "B1",
                    "midi": 35,
                    "time": 179.9999820000007,
                    "velocity": 0.4881889763779528,
                    "duration": 0.16666664999999625
                },
                {
                    "name": "G#2",
                    "midi": 44,
                    "time": 180.8333152500007,
                    "velocity": 0.4881889763779528,
                    "duration": 0.16666664999999625
                },
                {
                    "name": "B2",
                    "midi": 47,
                    "time": 180.8333152500007,
                    "velocity": 0.4881889763779528,
                    "duration": 0.16666664999999625
                },
                {
                    "name": "A#1",
                    "midi": 34,
                    "time": 181.66664850000072,
                    "velocity": 0.4881889763779528,
                    "duration": 0.16666664999999625
                },
                {
                    "name": "D2",
                    "midi": 38,
                    "time": 181.66664850000072,
                    "velocity": 0.4881889763779528,
                    "duration": 0.16666664999999625
                },
                {
                    "name": "A#2",
                    "midi": 46,
                    "time": 182.49998175000073,
                    "velocity": 0.4881889763779528,
                    "duration": 0.16666664999999625
                },
                {
                    "name": "D3",
                    "midi": 50,
                    "time": 182.49998175000073,
                    "velocity": 0.4881889763779528,
                    "duration": 0.16666664999999625
                },
                {
                    "name": "G#1",
                    "midi": 32,
                    "time": 183.33331500000074,
                    "velocity": 0.4881889763779528,
                    "duration": 0.16666664999999625
                },
                {
                    "name": "B1",
                    "midi": 35,
                    "time": 183.33331500000074,
                    "velocity": 0.4881889763779528,
                    "duration": 0.16666664999999625
                },
                {
                    "name": "G#2",
                    "midi": 44,
                    "time": 184.16664825000075,
                    "velocity": 0.4881889763779528,
                    "duration": 0.16666664999999625
                },
                {
                    "name": "B2",
                    "midi": 47,
                    "time": 184.16664825000075,
                    "velocity": 0.4881889763779528,
                    "duration": 0.16666664999999625
                },
                {
                    "name": "A#1",
                    "midi": 34,
                    "time": 184.99998150000076,
                    "velocity": 0.4881889763779528,
                    "duration": 0.16666664999999625
                },
                {
                    "name": "D2",
                    "midi": 38,
                    "time": 184.99998150000076,
                    "velocity": 0.4881889763779528,
                    "duration": 0.16666664999999625
                },
                {
                    "name": "A#2",
                    "midi": 46,
                    "time": 185.83331475000077,
                    "velocity": 0.4881889763779528,
                    "duration": 0.16666664999999625
                },
                {
                    "name": "D3",
                    "midi": 50,
                    "time": 185.83331475000077,
                    "velocity": 0.4881889763779528,
                    "duration": 0.16666664999999625
                },
                {
                    "name": "G#1",
                    "midi": 32,
                    "time": 186.66664800000078,
                    "velocity": 0.4881889763779528,
                    "duration": 0.1087962854166733
                },
                {
                    "name": "C2",
                    "midi": 36,
                    "time": 186.66664800000078,
                    "velocity": 0.4881889763779528,
                    "duration": 0.1087962854166733
                },
                {
                    "name": "G#2",
                    "midi": 44,
                    "time": 187.4999812500008,
                    "velocity": 0.4881889763779528,
                    "duration": 0.1087962854166733
                },
                {
                    "name": "C3",
                    "midi": 48,
                    "time": 187.4999812500008,
                    "velocity": 0.4881889763779528,
                    "duration": 0.1087962854166733
                },
                {
                    "name": "A#1",
                    "midi": 34,
                    "time": 188.3333145000008,
                    "velocity": 0.4881889763779528,
                    "duration": 0.1087962854166733
                },
                {
                    "name": "D2",
                    "midi": 38,
                    "time": 188.3333145000008,
                    "velocity": 0.4881889763779528,
                    "duration": 0.1087962854166733
                },
                {
                    "name": "A#2",
                    "midi": 46,
                    "time": 189.1666477500008,
                    "velocity": 0.4881889763779528,
                    "duration": 0.1087962854166733
                },
                {
                    "name": "D3",
                    "midi": 50,
                    "time": 189.1666477500008,
                    "velocity": 0.4881889763779528,
                    "duration": 0.1087962854166733
                },
                {
                    "name": "A1",
                    "midi": 33,
                    "time": 189.99998100000082,
                    "velocity": 0.4881889763779528,
                    "duration": 0.1087962854166733
                },
                {
                    "name": "C2",
                    "midi": 36,
                    "time": 189.99998100000082,
                    "velocity": 0.4881889763779528,
                    "duration": 0.1087962854166733
                },
                {
                    "name": "A2",
                    "midi": 45,
                    "time": 190.83331425000083,
                    "velocity": 0.4881889763779528,
                    "duration": 0.1087962854166733
                },
                {
                    "name": "C3",
                    "midi": 48,
                    "time": 190.83331425000083,
                    "velocity": 0.4881889763779528,
                    "duration": 0.1087962854166733
                },
                {
                    "name": "B1",
                    "midi": 35,
                    "time": 191.66664750000083,
                    "velocity": 0.4881889763779528,
                    "duration": 0.1087962854166733
                },
                {
                    "name": "D#2",
                    "midi": 39,
                    "time": 191.66664750000083,
                    "velocity": 0.4881889763779528,
                    "duration": 0.1087962854166733
                },
                {
                    "name": "B2",
                    "midi": 47,
                    "time": 192.49998075000084,
                    "velocity": 0.4881889763779528,
                    "duration": 0.1087962854166733
                },
                {
                    "name": "D#3",
                    "midi": 51,
                    "time": 192.49998075000084,
                    "velocity": 0.4881889763779528,
                    "duration": 0.1087962854166733
                },
                {
                    "name": "A1",
                    "midi": 33,
                    "time": 193.33331400000085,
                    "velocity": 0.4881889763779528,
                    "duration": 0.1087962854166733
                },
                {
                    "name": "C2",
                    "midi": 36,
                    "time": 193.33331400000085,
                    "velocity": 0.4881889763779528,
                    "duration": 0.1087962854166733
                },
                {
                    "name": "A2",
                    "midi": 45,
                    "time": 194.16664725000086,
                    "velocity": 0.4881889763779528,
                    "duration": 0.1087962854166733
                },
                {
                    "name": "C3",
                    "midi": 48,
                    "time": 194.16664725000086,
                    "velocity": 0.4881889763779528,
                    "duration": 0.1087962854166733
                },
                {
                    "name": "B1",
                    "midi": 35,
                    "time": 194.99998050000087,
                    "velocity": 0.4881889763779528,
                    "duration": 0.1087962854166733
                },
                {
                    "name": "D#2",
                    "midi": 39,
                    "time": 194.99998050000087,
                    "velocity": 0.4881889763779528,
                    "duration": 0.1087962854166733
                },
                {
                    "name": "B2",
                    "midi": 47,
                    "time": 195.83331375000088,
                    "velocity": 0.4881889763779528,
                    "duration": 0.1087962854166733
                },
                {
                    "name": "D#3",
                    "midi": 51,
                    "time": 195.83331375000088,
                    "velocity": 0.4881889763779528,
                    "duration": 0.1087962854166733
                },
                {
                    "name": "C2",
                    "midi": 36,
                    "time": 196.6666470000009,
                    "velocity": 0.4881889763779528,
                    "duration": 0.16666664999999625
                },
                {
                    "name": "E2",
                    "midi": 40,
                    "time": 196.6666470000009,
                    "velocity": 0.4881889763779528,
                    "duration": 0.16666664999999625
                },
                {
                    "name": "C3",
                    "midi": 48,
                    "time": 197.4999802500009,
                    "velocity": 0.4881889763779528,
                    "duration": 0.16666664999999625
                },
                {
                    "name": "E3",
                    "midi": 52,
                    "time": 197.4999802500009,
                    "velocity": 0.4881889763779528,
                    "duration": 0.16666664999999625
                },
                {
                    "name": "C2",
                    "midi": 36,
                    "time": 198.3333135000009,
                    "velocity": 0.4881889763779528,
                    "duration": 0.16666664999999625
                },
                {
                    "name": "E2",
                    "midi": 40,
                    "time": 198.3333135000009,
                    "velocity": 0.4881889763779528,
                    "duration": 0.16666664999999625
                },
                {
                    "name": "C3",
                    "midi": 48,
                    "time": 199.16664675000092,
                    "velocity": 0.4881889763779528,
                    "duration": 0.16666664999999625
                },
                {
                    "name": "E3",
                    "midi": 52,
                    "time": 199.16664675000092,
                    "velocity": 0.4881889763779528,
                    "duration": 0.16666664999999625
                },
                {
                    "name": "A2",
                    "midi": 45,
                    "time": 199.99998000000093,
                    "velocity": 0.4881889763779528,
                    "duration": 0.22222220000000448
                },
                {
                    "name": "C3",
                    "midi": 48,
                    "time": 199.99998000000093,
                    "velocity": 0.4881889763779528,
                    "duration": 0.22222220000000448
                },
                {
                    "name": "F#2",
                    "midi": 42,
                    "time": 201.11109100000093,
                    "velocity": 0.4881889763779528,
                    "duration": 0.22222220000000448
                },
                {
                    "name": "A#2",
                    "midi": 46,
                    "time": 201.11109100000093,
                    "velocity": 0.4881889763779528,
                    "duration": 0.22222220000000448
                },
                {
                    "name": "E2",
                    "midi": 40,
                    "time": 202.22220200000092,
                    "velocity": 0.4881889763779528,
                    "duration": 0.22222220000000448
                },
                {
                    "name": "G2",
                    "midi": 43,
                    "time": 202.22220200000092,
                    "velocity": 0.4881889763779528,
                    "duration": 0.22222220000000448
                },
                {
                    "name": "C#2",
                    "midi": 37,
                    "time": 203.3333130000009,
                    "velocity": 0.4881889763779528,
                    "duration": 0.22222220000000448
                },
                {
                    "name": "F#2",
                    "midi": 42,
                    "time": 203.3333130000009,
                    "velocity": 0.4881889763779528,
                    "duration": 0.22222220000000448
                },
                {
                    "name": "A#1",
                    "midi": 34,
                    "time": 204.4444240000009,
                    "velocity": 0.4881889763779528,
                    "duration": 0.22222220000000448
                },
                {
                    "name": "D2",
                    "midi": 38,
                    "time": 204.4444240000009,
                    "velocity": 0.4881889763779528,
                    "duration": 0.22222220000000448
                },
                {
                    "name": "G#1",
                    "midi": 32,
                    "time": 205.5555350000009,
                    "velocity": 0.4881889763779528,
                    "duration": 0.22222220000000448
                },
                {
                    "name": "C2",
                    "midi": 36,
                    "time": 205.5555350000009,
                    "velocity": 0.4881889763779528,
                    "duration": 0.22222220000000448
                },
                {
                    "name": "F#1",
                    "midi": 30,
                    "time": 206.6666460000009,
                    "velocity": 0.3858267716535433,
                    "duration": 3.3333330000000103
                },
                {
                    "name": "F#2",
                    "midi": 42,
                    "time": 206.6666460000009,
                    "velocity": 0.3858267716535433,
                    "duration": 3.3333330000000103
                },
                {
                    "name": "F1",
                    "midi": 29,
                    "time": 209.9999790000009,
                    "velocity": 0.3858267716535433,
                    "duration": 3.3333330000000103
                },
                {
                    "name": "F2",
                    "midi": 41,
                    "time": 209.9999790000009,
                    "velocity": 0.3858267716535433,
                    "duration": 3.3333330000000103
                },
                {
                    "name": "C3",
                    "midi": 48,
                    "time": 209.9999790000009,
                    "velocity": 0.3858267716535433,
                    "duration": 3.3333330000000103
                },
                {
                    "name": "F3",
                    "midi": 53,
                    "time": 219.9999780000009,
                    "velocity": 0.3858267716535433,
                    "duration": 6.666665999999992
                },
                {
                    "name": "A3",
                    "midi": 57,
                    "time": 219.9999780000009,
                    "velocity": 0.3858267716535433,
                    "duration": 6.666665999999992
                },
                {
                    "name": "D#4",
                    "midi": 63,
                    "time": 219.9999780000009,
                    "velocity": 0.3858267716535433,
                    "duration": 6.666665999999992
                }
            ],
            "controlChanges": {
                "7": [
                    {
                        "number": 7,
                        "time": 0,
                        "value": 1
                    }
                ],
                "10": [
                    {
                        "number": 10,
                        "time": 0,
                        "value": 0.23622047244094488
                    }
                ]
            },
            "id": 3,
            "name": "Instrument18",
            "instrumentNumber": 0,
            "instrument": "acoustic grand piano",
            "instrumentFamily": "piano",
            "channelNumber": 2,
            "isPercussion": false
        },
        {
            "startTime": 13.333331999999999,
            "duration": 213.33331199999995,
            "length": 68,
            "notes": [
                {
                    "name": "G#1",
                    "midi": 32,
                    "time": 13.333331999999999,
                    "velocity": 0.3858267716535433,
                    "duration": 0.5555555000000005
                },
                {
                    "name": "E1",
                    "midi": 28,
                    "time": 13.8888875,
                    "velocity": 0.3858267716535433,
                    "duration": 0.5555555000000005
                },
                {
                    "name": "D#1",
                    "midi": 27,
                    "time": 14.444443,
                    "velocity": 0.3858267716535433,
                    "duration": 0.5555555000000005
                },
                {
                    "name": "D1",
                    "midi": 26,
                    "time": 14.9999985,
                    "velocity": 0.3858267716535433,
                    "duration": 0.5555555000000005
                },
                {
                    "name": "F1",
                    "midi": 29,
                    "time": 15.555554,
                    "velocity": 0.3858267716535433,
                    "duration": 0.5555555000000005
                },
                {
                    "name": "G1",
                    "midi": 31,
                    "time": 16.1111095,
                    "velocity": 0.3858267716535433,
                    "duration": 0.5555555000000005
                },
                {
                    "name": "G#1",
                    "midi": 32,
                    "time": 16.666665000000002,
                    "velocity": 0.3858267716535433,
                    "duration": 0.5555555000000005
                },
                {
                    "name": "E1",
                    "midi": 28,
                    "time": 17.222220500000002,
                    "velocity": 0.3858267716535433,
                    "duration": 0.5555555000000005
                },
                {
                    "name": "G#1",
                    "midi": 32,
                    "time": 17.777776000000003,
                    "velocity": 0.3858267716535433,
                    "duration": 0.5555555000000005
                },
                {
                    "name": "F1",
                    "midi": 29,
                    "time": 18.333331500000003,
                    "velocity": 0.3858267716535433,
                    "duration": 0.5555555000000005
                },
                {
                    "name": "A1",
                    "midi": 33,
                    "time": 18.888887000000004,
                    "velocity": 0.3858267716535433,
                    "duration": 0.5555555000000005
                },
                {
                    "name": "D2",
                    "midi": 38,
                    "time": 19.444442500000005,
                    "velocity": 0.3858267716535433,
                    "duration": 0.5555555000000005
                },
                {
                    "name": "G#1",
                    "midi": 32,
                    "time": 19.999998000000005,
                    "velocity": 0.3858267716535433,
                    "duration": 0.5555555000000005
                },
                {
                    "name": "E1",
                    "midi": 28,
                    "time": 20.555553500000006,
                    "velocity": 0.3858267716535433,
                    "duration": 0.5555555000000005
                },
                {
                    "name": "D#1",
                    "midi": 27,
                    "time": 21.111109000000006,
                    "velocity": 0.3858267716535433,
                    "duration": 0.5555555000000005
                },
                {
                    "name": "D1",
                    "midi": 26,
                    "time": 21.666664500000007,
                    "velocity": 0.3858267716535433,
                    "duration": 0.5555555000000005
                },
                {
                    "name": "F1",
                    "midi": 29,
                    "time": 22.222220000000007,
                    "velocity": 0.3858267716535433,
                    "duration": 0.5555555000000005
                },
                {
                    "name": "G1",
                    "midi": 31,
                    "time": 22.777775500000008,
                    "velocity": 0.3858267716535433,
                    "duration": 0.5555555000000005
                },
                {
                    "name": "G#1",
                    "midi": 32,
                    "time": 23.33333100000001,
                    "velocity": 0.3858267716535433,
                    "duration": 0.5555555000000005
                },
                {
                    "name": "E1",
                    "midi": 28,
                    "time": 23.88888650000001,
                    "velocity": 0.3858267716535433,
                    "duration": 0.5555555000000005
                },
                {
                    "name": "D#1",
                    "midi": 27,
                    "time": 24.44444200000001,
                    "velocity": 0.3858267716535433,
                    "duration": 0.5555555000000005
                },
                {
                    "name": "D1",
                    "midi": 26,
                    "time": 24.99999750000001,
                    "velocity": 0.3858267716535433,
                    "duration": 0.5555555000000005
                },
                {
                    "name": "F1",
                    "midi": 29,
                    "time": 25.55555300000001,
                    "velocity": 0.3858267716535433,
                    "duration": 0.5555555000000005
                },
                {
                    "name": "G1",
                    "midi": 31,
                    "time": 26.11110850000001,
                    "velocity": 0.3858267716535433,
                    "duration": 0.5555555000000005
                },
                {
                    "name": "G#1",
                    "midi": 32,
                    "time": 26.66666400000001,
                    "velocity": 0.3858267716535433,
                    "duration": 0.5555555000000005
                },
                {
                    "name": "E1",
                    "midi": 28,
                    "time": 27.222219500000012,
                    "velocity": 0.3858267716535433,
                    "duration": 0.5555555000000005
                },
                {
                    "name": "D#1",
                    "midi": 27,
                    "time": 27.777775000000013,
                    "velocity": 0.3858267716535433,
                    "duration": 0.5555555000000005
                },
                {
                    "name": "D1",
                    "midi": 26,
                    "time": 28.333330500000013,
                    "velocity": 0.3858267716535433,
                    "duration": 0.5555555000000005
                },
                {
                    "name": "F1",
                    "midi": 29,
                    "time": 28.888886000000014,
                    "velocity": 0.3858267716535433,
                    "duration": 0.5555555000000005
                },
                {
                    "name": "G1",
                    "midi": 31,
                    "time": 29.444441500000014,
                    "velocity": 0.3858267716535433,
                    "duration": 0.5555555000000005
                },
                {
                    "name": "G#1",
                    "midi": 32,
                    "time": 29.999997000000015,
                    "velocity": 0.3858267716535433,
                    "duration": 0.5555555000000005
                },
                {
                    "name": "E1",
                    "midi": 28,
                    "time": 30.555552500000015,
                    "velocity": 0.3858267716535433,
                    "duration": 0.5555555000000005
                },
                {
                    "name": "G#1",
                    "midi": 32,
                    "time": 31.111108000000016,
                    "velocity": 0.3858267716535433,
                    "duration": 0.5555555000000005
                },
                {
                    "name": "F1",
                    "midi": 29,
                    "time": 31.666663500000016,
                    "velocity": 0.3858267716535433,
                    "duration": 0.5555555000000005
                },
                {
                    "name": "A1",
                    "midi": 33,
                    "time": 32.22221900000002,
                    "velocity": 0.3858267716535433,
                    "duration": 0.555555499999997
                },
                {
                    "name": "D2",
                    "midi": 38,
                    "time": 32.777774500000014,
                    "velocity": 0.3858267716535433,
                    "duration": 0.555555499999997
                },
                {
                    "name": "G#1",
                    "midi": 32,
                    "time": 33.33333000000001,
                    "velocity": 0.3858267716535433,
                    "duration": 0.555555499999997
                },
                {
                    "name": "E1",
                    "midi": 28,
                    "time": 33.88888550000001,
                    "velocity": 0.3858267716535433,
                    "duration": 0.555555499999997
                },
                {
                    "name": "D#1",
                    "midi": 27,
                    "time": 34.444441000000005,
                    "velocity": 0.3858267716535433,
                    "duration": 0.555555499999997
                },
                {
                    "name": "D1",
                    "midi": 26,
                    "time": 34.9999965,
                    "velocity": 0.3858267716535433,
                    "duration": 0.555555499999997
                },
                {
                    "name": "F1",
                    "midi": 29,
                    "time": 35.555552,
                    "velocity": 0.3858267716535433,
                    "duration": 0.555555499999997
                },
                {
                    "name": "G1",
                    "midi": 31,
                    "time": 36.111107499999996,
                    "velocity": 0.3858267716535433,
                    "duration": 0.555555499999997
                },
                {
                    "name": "G#1",
                    "midi": 32,
                    "time": 36.66666299999999,
                    "velocity": 0.3858267716535433,
                    "duration": 0.555555499999997
                },
                {
                    "name": "E1",
                    "midi": 28,
                    "time": 37.22221849999999,
                    "velocity": 0.3858267716535433,
                    "duration": 0.555555499999997
                },
                {
                    "name": "D#1",
                    "midi": 27,
                    "time": 37.77777399999999,
                    "velocity": 0.3858267716535433,
                    "duration": 0.555555499999997
                },
                {
                    "name": "D1",
                    "midi": 26,
                    "time": 38.333329499999984,
                    "velocity": 0.3858267716535433,
                    "duration": 0.555555499999997
                },
                {
                    "name": "F1",
                    "midi": 29,
                    "time": 38.88888499999998,
                    "velocity": 0.3858267716535433,
                    "duration": 0.555555499999997
                },
                {
                    "name": "G1",
                    "midi": 31,
                    "time": 39.44444049999998,
                    "velocity": 0.3858267716535433,
                    "duration": 0.555555499999997
                },
                {
                    "name": "G#1",
                    "midi": 32,
                    "time": 53.33332799999997,
                    "velocity": 0.3858267716535433,
                    "duration": 0.555555499999997
                },
                {
                    "name": "E1",
                    "midi": 28,
                    "time": 53.88888349999997,
                    "velocity": 0.3858267716535433,
                    "duration": 0.555555499999997
                },
                {
                    "name": "D#1",
                    "midi": 27,
                    "time": 54.44443899999997,
                    "velocity": 0.3858267716535433,
                    "duration": 0.555555499999997
                },
                {
                    "name": "D1",
                    "midi": 26,
                    "time": 54.999994499999964,
                    "velocity": 0.3858267716535433,
                    "duration": 0.555555499999997
                },
                {
                    "name": "F1",
                    "midi": 29,
                    "time": 55.55554999999996,
                    "velocity": 0.3858267716535433,
                    "duration": 0.555555499999997
                },
                {
                    "name": "G1",
                    "midi": 31,
                    "time": 56.11110549999996,
                    "velocity": 0.3858267716535433,
                    "duration": 0.555555499999997
                },
                {
                    "name": "G#1",
                    "midi": 32,
                    "time": 56.666660999999955,
                    "velocity": 0.3858267716535433,
                    "duration": 0.555555499999997
                },
                {
                    "name": "D2",
                    "midi": 38,
                    "time": 79.99999199999995,
                    "velocity": 0.3858267716535433,
                    "duration": 6.666666000000006
                },
                {
                    "name": "G#2",
                    "midi": 44,
                    "time": 79.99999199999995,
                    "velocity": 0.3858267716535433,
                    "duration": 6.666666000000006
                },
                {
                    "name": "D3",
                    "midi": 50,
                    "time": 79.99999199999995,
                    "velocity": 0.3858267716535433,
                    "duration": 6.666666000000006
                },
                {
                    "name": "D#2",
                    "midi": 39,
                    "time": 127.22220949999996,
                    "velocity": 0.3858267716535433,
                    "duration": 0.555555499999997
                },
                {
                    "name": "D#2",
                    "midi": 39,
                    "time": 127.77776499999996,
                    "velocity": 0.3858267716535433,
                    "duration": 0.555555499999997
                },
                {
                    "name": "D#2",
                    "midi": 39,
                    "time": 128.33332049999996,
                    "velocity": 0.3858267716535433,
                    "duration": 0.555555499999997
                },
                {
                    "name": "D#2",
                    "midi": 39,
                    "time": 128.88887599999995,
                    "velocity": 0.3858267716535433,
                    "duration": 0.555555499999997
                },
                {
                    "name": "D#2",
                    "midi": 39,
                    "time": 129.44443149999995,
                    "velocity": 0.3858267716535433,
                    "duration": 0.555555499999997
                },
                {
                    "name": "F2",
                    "midi": 41,
                    "time": 210.55553449999996,
                    "velocity": 0.3858267716535433,
                    "duration": 0.555555499999997
                },
                {
                    "name": "F2",
                    "midi": 41,
                    "time": 211.11108999999996,
                    "velocity": 0.3858267716535433,
                    "duration": 0.555555499999997
                },
                {
                    "name": "F2",
                    "midi": 41,
                    "time": 211.66664549999996,
                    "velocity": 0.3858267716535433,
                    "duration": 0.555555499999997
                },
                {
                    "name": "F2",
                    "midi": 41,
                    "time": 212.22220099999996,
                    "velocity": 0.3858267716535433,
                    "duration": 0.555555499999997
                },
                {
                    "name": "F2",
                    "midi": 41,
                    "time": 212.77775649999995,
                    "velocity": 0.3858267716535433,
                    "duration": 0.555555499999997
                }
            ],
            "controlChanges": {
                "7": [
                    {
                        "number": 7,
                        "time": 0,
                        "value": 1
                    }
                ],
                "10": [
                    {
                        "number": 10,
                        "time": 0,
                        "value": 0.23622047244094488
                    }
                ]
            },
            "id": 4,
            "name": "Instrument19",
            "instrumentNumber": 0,
            "instrument": "acoustic grand piano",
            "instrumentFamily": "piano",
            "channelNumber": 3,
            "isPercussion": false
        },
        {
            "startTime": 0,
            "duration": 0,
            "length": 0,
            "notes": [],
            "controlChanges": {},
            "id": 5
        }
    ]
}