{
    "header": {
        "PPQ": 480,
        "timeSignature": [
            6,
            4
        ],
        "bpm": 165.99990040005977,
        "name": "stravinsky rite of spring 03"
    },
    "startTime": 0,
    "duration": 141.32538600000063,
    "tracks": [
        {
            "startTime": 0,
            "duration": 0,
            "length": 0,
            "notes": [],
            "controlChanges": {},
            "id": 0,
            "name": "stravinsky rite of spring 03"
        },
        {
            "startTime": 3.253014,
            "duration": 141.32538600000063,
            "length": 1218,
            "notes": [
                {
                    "name": "A3",
                    "midi": 57,
                    "time": 3.253014,
                    "velocity": 0.6929133858267716,
                    "duration": 0.36144599999999993
                },
                {
                    "name": "F4",
                    "midi": 65,
                    "time": 3.253014,
                    "velocity": 0.6929133858267716,
                    "duration": 0.36144599999999993
                },
                {
                    "name": "A4",
                    "midi": 69,
                    "time": 3.253014,
                    "velocity": 0.6929133858267716,
                    "duration": 0.36144599999999993
                },
                {
                    "name": "E4",
                    "midi": 64,
                    "time": 3.61446,
                    "velocity": 0.6929133858267716,
                    "duration": 0.18072299999999997
                },
                {
                    "name": "G4",
                    "midi": 67,
                    "time": 3.61446,
                    "velocity": 0.6929133858267716,
                    "duration": 0.18072299999999997
                },
                {
                    "name": "F4",
                    "midi": 65,
                    "time": 3.7951829999999998,
                    "velocity": 0.6929133858267716,
                    "duration": 0.18072299999999997
                },
                {
                    "name": "A4",
                    "midi": 69,
                    "time": 3.7951829999999998,
                    "velocity": 0.6929133858267716,
                    "duration": 0.18072299999999997
                },
                {
                    "name": "E4",
                    "midi": 64,
                    "time": 3.9759059999999997,
                    "velocity": 0.6929133858267716,
                    "duration": 0.18072299999999997
                },
                {
                    "name": "G4",
                    "midi": 67,
                    "time": 3.9759059999999997,
                    "velocity": 0.6929133858267716,
                    "duration": 0.18072299999999997
                },
                {
                    "name": "D4",
                    "midi": 62,
                    "time": 4.156629,
                    "velocity": 0.6929133858267716,
                    "duration": 0.1807230000000004
                },
                {
                    "name": "F4",
                    "midi": 65,
                    "time": 4.156629,
                    "velocity": 0.6929133858267716,
                    "duration": 0.1807230000000004
                },
                {
                    "name": "C4",
                    "midi": 60,
                    "time": 4.337352,
                    "velocity": 0.6929133858267716,
                    "duration": 0.1807230000000004
                },
                {
                    "name": "E4",
                    "midi": 64,
                    "time": 4.337352,
                    "velocity": 0.6929133858267716,
                    "duration": 0.1807230000000004
                },
                {
                    "name": "D4",
                    "midi": 62,
                    "time": 4.5180750000000005,
                    "velocity": 0.6929133858267716,
                    "duration": 0.1807230000000004
                },
                {
                    "name": "F4",
                    "midi": 65,
                    "time": 4.5180750000000005,
                    "velocity": 0.6929133858267716,
                    "duration": 0.1807230000000004
                },
                {
                    "name": "B3",
                    "midi": 59,
                    "time": 4.698798000000001,
                    "velocity": 0.6929133858267716,
                    "duration": 0.1807230000000004
                },
                {
                    "name": "D4",
                    "midi": 62,
                    "time": 4.698798000000001,
                    "velocity": 0.6929133858267716,
                    "duration": 0.1807230000000004
                },
                {
                    "name": "B3",
                    "midi": 59,
                    "time": 4.879521000000001,
                    "velocity": 0.6929133858267716,
                    "duration": 0.1807230000000004
                },
                {
                    "name": "D4",
                    "midi": 62,
                    "time": 4.879521000000001,
                    "velocity": 0.6929133858267716,
                    "duration": 0.1807230000000004
                },
                {
                    "name": "B3",
                    "midi": 59,
                    "time": 5.060244000000002,
                    "velocity": 0.6929133858267716,
                    "duration": 0.1807230000000004
                },
                {
                    "name": "D4",
                    "midi": 62,
                    "time": 5.060244000000002,
                    "velocity": 0.6929133858267716,
                    "duration": 0.1807230000000004
                },
                {
                    "name": "C4",
                    "midi": 60,
                    "time": 5.240967000000002,
                    "velocity": 0.6929133858267716,
                    "duration": 0.1807230000000004
                },
                {
                    "name": "E4",
                    "midi": 64,
                    "time": 5.240967000000002,
                    "velocity": 0.6929133858267716,
                    "duration": 0.1807230000000004
                },
                {
                    "name": "D4",
                    "midi": 62,
                    "time": 5.421690000000003,
                    "velocity": 0.7952755905511811,
                    "duration": 0.1807230000000004
                },
                {
                    "name": "F4",
                    "midi": 65,
                    "time": 5.421690000000003,
                    "velocity": 0.7952755905511811,
                    "duration": 0.1807230000000004
                },
                {
                    "name": "E4",
                    "midi": 64,
                    "time": 5.602413000000003,
                    "velocity": 0.7952755905511811,
                    "duration": 0.1807230000000004
                },
                {
                    "name": "G4",
                    "midi": 67,
                    "time": 5.602413000000003,
                    "velocity": 0.7952755905511811,
                    "duration": 0.1807230000000004
                },
                {
                    "name": "C5",
                    "midi": 72,
                    "time": 5.783136000000003,
                    "velocity": 0.7952755905511811,
                    "duration": 0.36144599999999993
                },
                {
                    "name": "F5",
                    "midi": 77,
                    "time": 5.783136000000003,
                    "velocity": 0.7952755905511811,
                    "duration": 0.36144599999999993
                },
                {
                    "name": "A5",
                    "midi": 81,
                    "time": 5.783136000000003,
                    "velocity": 0.7952755905511811,
                    "duration": 0.36144599999999993
                },
                {
                    "name": "B4",
                    "midi": 71,
                    "time": 6.144582000000003,
                    "velocity": 0.7952755905511811,
                    "duration": 0.1807230000000004
                },
                {
                    "name": "E5",
                    "midi": 76,
                    "time": 6.144582000000003,
                    "velocity": 0.7952755905511811,
                    "duration": 0.1807230000000004
                },
                {
                    "name": "G5",
                    "midi": 79,
                    "time": 6.144582000000003,
                    "velocity": 0.7952755905511811,
                    "duration": 0.1807230000000004
                },
                {
                    "name": "C5",
                    "midi": 72,
                    "time": 6.325305000000004,
                    "velocity": 0.7952755905511811,
                    "duration": 0.1807230000000004
                },
                {
                    "name": "F5",
                    "midi": 77,
                    "time": 6.325305000000004,
                    "velocity": 0.7952755905511811,
                    "duration": 0.1807230000000004
                },
                {
                    "name": "A5",
                    "midi": 81,
                    "time": 6.325305000000004,
                    "velocity": 0.7952755905511811,
                    "duration": 0.1807230000000004
                },
                {
                    "name": "G4",
                    "midi": 67,
                    "time": 6.506028000000004,
                    "velocity": 0.7952755905511811,
                    "duration": 0.1807230000000004
                },
                {
                    "name": "B4",
                    "midi": 71,
                    "time": 6.506028000000004,
                    "velocity": 0.7952755905511811,
                    "duration": 0.1807230000000004
                },
                {
                    "name": "E5",
                    "midi": 76,
                    "time": 6.506028000000004,
                    "velocity": 0.7952755905511811,
                    "duration": 0.1807230000000004
                },
                {
                    "name": "A4",
                    "midi": 69,
                    "time": 6.6867510000000046,
                    "velocity": 0.7952755905511811,
                    "duration": 0.1807230000000004
                },
                {
                    "name": "C5",
                    "midi": 72,
                    "time": 6.6867510000000046,
                    "velocity": 0.7952755905511811,
                    "duration": 0.1807230000000004
                },
                {
                    "name": "F5",
                    "midi": 77,
                    "time": 6.6867510000000046,
                    "velocity": 0.7952755905511811,
                    "duration": 0.1807230000000004
                },
                {
                    "name": "G4",
                    "midi": 67,
                    "time": 6.867474000000005,
                    "velocity": 0.7952755905511811,
                    "duration": 0.1807230000000004
                },
                {
                    "name": "B4",
                    "midi": 71,
                    "time": 6.867474000000005,
                    "velocity": 0.7952755905511811,
                    "duration": 0.1807230000000004
                },
                {
                    "name": "E5",
                    "midi": 76,
                    "time": 6.867474000000005,
                    "velocity": 0.7952755905511811,
                    "duration": 0.1807230000000004
                },
                {
                    "name": "B4",
                    "midi": 71,
                    "time": 7.048197000000005,
                    "velocity": 0.7952755905511811,
                    "duration": 0.1807230000000004
                },
                {
                    "name": "E5",
                    "midi": 76,
                    "time": 7.048197000000005,
                    "velocity": 0.7952755905511811,
                    "duration": 0.1807230000000004
                },
                {
                    "name": "G5",
                    "midi": 79,
                    "time": 7.048197000000005,
                    "velocity": 0.7952755905511811,
                    "duration": 0.1807230000000004
                },
                {
                    "name": "A4",
                    "midi": 69,
                    "time": 7.228920000000006,
                    "velocity": 0.7952755905511811,
                    "duration": 0.1807230000000004
                },
                {
                    "name": "C5",
                    "midi": 72,
                    "time": 7.228920000000006,
                    "velocity": 0.7952755905511811,
                    "duration": 0.1807230000000004
                },
                {
                    "name": "F5",
                    "midi": 77,
                    "time": 7.228920000000006,
                    "velocity": 0.7952755905511811,
                    "duration": 0.1807230000000004
                },
                {
                    "name": "C5",
                    "midi": 72,
                    "time": 7.409643000000006,
                    "velocity": 0.7952755905511811,
                    "duration": 0.1807230000000004
                },
                {
                    "name": "F5",
                    "midi": 77,
                    "time": 7.409643000000006,
                    "velocity": 0.7952755905511811,
                    "duration": 0.1807230000000004
                },
                {
                    "name": "A5",
                    "midi": 81,
                    "time": 7.409643000000006,
                    "velocity": 0.7952755905511811,
                    "duration": 0.1807230000000004
                },
                {
                    "name": "G4",
                    "midi": 67,
                    "time": 7.590366000000007,
                    "velocity": 0.7952755905511811,
                    "duration": 0.1807230000000004
                },
                {
                    "name": "B4",
                    "midi": 71,
                    "time": 7.590366000000007,
                    "velocity": 0.7952755905511811,
                    "duration": 0.1807230000000004
                },
                {
                    "name": "E5",
                    "midi": 76,
                    "time": 7.590366000000007,
                    "velocity": 0.7952755905511811,
                    "duration": 0.1807230000000004
                },
                {
                    "name": "A4",
                    "midi": 69,
                    "time": 7.771089000000007,
                    "velocity": 0.7952755905511811,
                    "duration": 0.1807230000000004
                },
                {
                    "name": "C5",
                    "midi": 72,
                    "time": 7.771089000000007,
                    "velocity": 0.7952755905511811,
                    "duration": 0.1807230000000004
                },
                {
                    "name": "F5",
                    "midi": 77,
                    "time": 7.771089000000007,
                    "velocity": 0.7952755905511811,
                    "duration": 0.1807230000000004
                },
                {
                    "name": "G4",
                    "midi": 67,
                    "time": 7.951812000000007,
                    "velocity": 0.7952755905511811,
                    "duration": 0.1807230000000004
                },
                {
                    "name": "B4",
                    "midi": 71,
                    "time": 7.951812000000007,
                    "velocity": 0.7952755905511811,
                    "duration": 0.1807230000000004
                },
                {
                    "name": "E5",
                    "midi": 76,
                    "time": 7.951812000000007,
                    "velocity": 0.7952755905511811,
                    "duration": 0.1807230000000004
                },
                {
                    "name": "B4",
                    "midi": 71,
                    "time": 8.132535000000008,
                    "velocity": 0.7952755905511811,
                    "duration": 0.1807230000000004
                },
                {
                    "name": "E5",
                    "midi": 76,
                    "time": 8.132535000000008,
                    "velocity": 0.7952755905511811,
                    "duration": 0.1807230000000004
                },
                {
                    "name": "G5",
                    "midi": 79,
                    "time": 8.132535000000008,
                    "velocity": 0.7952755905511811,
                    "duration": 0.1807230000000004
                },
                {
                    "name": "A3",
                    "midi": 57,
                    "time": 8.313258000000008,
                    "velocity": 0.6929133858267716,
                    "duration": 0.3614460000000008
                },
                {
                    "name": "F4",
                    "midi": 65,
                    "time": 8.313258000000008,
                    "velocity": 0.6929133858267716,
                    "duration": 0.3614460000000008
                },
                {
                    "name": "A4",
                    "midi": 69,
                    "time": 8.313258000000008,
                    "velocity": 0.6929133858267716,
                    "duration": 0.3614460000000008
                },
                {
                    "name": "E4",
                    "midi": 64,
                    "time": 8.674704000000009,
                    "velocity": 0.6929133858267716,
                    "duration": 0.1807230000000004
                },
                {
                    "name": "G4",
                    "midi": 67,
                    "time": 8.674704000000009,
                    "velocity": 0.6929133858267716,
                    "duration": 0.1807230000000004
                },
                {
                    "name": "F4",
                    "midi": 65,
                    "time": 8.85542700000001,
                    "velocity": 0.6929133858267716,
                    "duration": 0.1807230000000004
                },
                {
                    "name": "A4",
                    "midi": 69,
                    "time": 8.85542700000001,
                    "velocity": 0.6929133858267716,
                    "duration": 0.1807230000000004
                },
                {
                    "name": "E4",
                    "midi": 64,
                    "time": 9.03615000000001,
                    "velocity": 0.6929133858267716,
                    "duration": 0.1807230000000004
                },
                {
                    "name": "G4",
                    "midi": 67,
                    "time": 9.03615000000001,
                    "velocity": 0.6929133858267716,
                    "duration": 0.1807230000000004
                },
                {
                    "name": "D4",
                    "midi": 62,
                    "time": 9.21687300000001,
                    "velocity": 0.6929133858267716,
                    "duration": 0.1807230000000004
                },
                {
                    "name": "F4",
                    "midi": 65,
                    "time": 9.21687300000001,
                    "velocity": 0.6929133858267716,
                    "duration": 0.1807230000000004
                },
                {
                    "name": "C4",
                    "midi": 60,
                    "time": 9.39759600000001,
                    "velocity": 0.6929133858267716,
                    "duration": 0.1807230000000004
                },
                {
                    "name": "E4",
                    "midi": 64,
                    "time": 9.39759600000001,
                    "velocity": 0.6929133858267716,
                    "duration": 0.1807230000000004
                },
                {
                    "name": "D4",
                    "midi": 62,
                    "time": 9.578319000000011,
                    "velocity": 0.6929133858267716,
                    "duration": 0.1807230000000004
                },
                {
                    "name": "F4",
                    "midi": 65,
                    "time": 9.578319000000011,
                    "velocity": 0.6929133858267716,
                    "duration": 0.1807230000000004
                },
                {
                    "name": "B3",
                    "midi": 59,
                    "time": 9.759042000000012,
                    "velocity": 0.6929133858267716,
                    "duration": 0.1807230000000004
                },
                {
                    "name": "D4",
                    "midi": 62,
                    "time": 9.759042000000012,
                    "velocity": 0.6929133858267716,
                    "duration": 0.1807230000000004
                },
                {
                    "name": "C4",
                    "midi": 60,
                    "time": 9.939765000000012,
                    "velocity": 0.6929133858267716,
                    "duration": 0.1807230000000004
                },
                {
                    "name": "E4",
                    "midi": 64,
                    "time": 9.939765000000012,
                    "velocity": 0.6929133858267716,
                    "duration": 0.1807230000000004
                },
                {
                    "name": "D4",
                    "midi": 62,
                    "time": 10.120488000000012,
                    "velocity": 0.7952755905511811,
                    "duration": 0.1807230000000004
                },
                {
                    "name": "F4",
                    "midi": 65,
                    "time": 10.120488000000012,
                    "velocity": 0.7952755905511811,
                    "duration": 0.1807230000000004
                },
                {
                    "name": "E4",
                    "midi": 64,
                    "time": 10.301211000000013,
                    "velocity": 0.7952755905511811,
                    "duration": 0.1807230000000004
                },
                {
                    "name": "G4",
                    "midi": 67,
                    "time": 10.301211000000013,
                    "velocity": 0.7952755905511811,
                    "duration": 0.1807230000000004
                },
                {
                    "name": "C5",
                    "midi": 72,
                    "time": 10.481934000000013,
                    "velocity": 0.7952755905511811,
                    "duration": 0.3614460000000008
                },
                {
                    "name": "F5",
                    "midi": 77,
                    "time": 10.481934000000013,
                    "velocity": 0.7952755905511811,
                    "duration": 0.3614460000000008
                },
                {
                    "name": "A5",
                    "midi": 81,
                    "time": 10.481934000000013,
                    "velocity": 0.7952755905511811,
                    "duration": 0.3614460000000008
                },
                {
                    "name": "B4",
                    "midi": 71,
                    "time": 10.843380000000014,
                    "velocity": 0.7952755905511811,
                    "duration": 0.1807230000000004
                },
                {
                    "name": "E5",
                    "midi": 76,
                    "time": 10.843380000000014,
                    "velocity": 0.7952755905511811,
                    "duration": 0.1807230000000004
                },
                {
                    "name": "G5",
                    "midi": 79,
                    "time": 10.843380000000014,
                    "velocity": 0.7952755905511811,
                    "duration": 0.1807230000000004
                },
                {
                    "name": "C5",
                    "midi": 72,
                    "time": 11.024103000000014,
                    "velocity": 0.7952755905511811,
                    "duration": 0.1807230000000004
                },
                {
                    "name": "F5",
                    "midi": 77,
                    "time": 11.024103000000014,
                    "velocity": 0.7952755905511811,
                    "duration": 0.1807230000000004
                },
                {
                    "name": "A5",
                    "midi": 81,
                    "time": 11.024103000000014,
                    "velocity": 0.7952755905511811,
                    "duration": 0.1807230000000004
                },
                {
                    "name": "G4",
                    "midi": 67,
                    "time": 11.204826000000015,
                    "velocity": 0.7952755905511811,
                    "duration": 0.1807230000000004
                },
                {
                    "name": "B4",
                    "midi": 71,
                    "time": 11.204826000000015,
                    "velocity": 0.7952755905511811,
                    "duration": 0.1807230000000004
                },
                {
                    "name": "E5",
                    "midi": 76,
                    "time": 11.204826000000015,
                    "velocity": 0.7952755905511811,
                    "duration": 0.1807230000000004
                },
                {
                    "name": "A4",
                    "midi": 69,
                    "time": 11.385549000000015,
                    "velocity": 0.7952755905511811,
                    "duration": 0.1807230000000004
                },
                {
                    "name": "C5",
                    "midi": 72,
                    "time": 11.385549000000015,
                    "velocity": 0.7952755905511811,
                    "duration": 0.1807230000000004
                },
                {
                    "name": "F5",
                    "midi": 77,
                    "time": 11.385549000000015,
                    "velocity": 0.7952755905511811,
                    "duration": 0.1807230000000004
                },
                {
                    "name": "G4",
                    "midi": 67,
                    "time": 11.566272000000016,
                    "velocity": 0.7952755905511811,
                    "duration": 0.1807230000000004
                },
                {
                    "name": "B4",
                    "midi": 71,
                    "time": 11.566272000000016,
                    "velocity": 0.7952755905511811,
                    "duration": 0.1807230000000004
                },
                {
                    "name": "E5",
                    "midi": 76,
                    "time": 11.566272000000016,
                    "velocity": 0.7952755905511811,
                    "duration": 0.1807230000000004
                },
                {
                    "name": "B4",
                    "midi": 71,
                    "time": 11.746995000000016,
                    "velocity": 0.7952755905511811,
                    "duration": 0.1807230000000004
                },
                {
                    "name": "E5",
                    "midi": 76,
                    "time": 11.746995000000016,
                    "velocity": 0.7952755905511811,
                    "duration": 0.1807230000000004
                },
                {
                    "name": "G5",
                    "midi": 79,
                    "time": 11.746995000000016,
                    "velocity": 0.7952755905511811,
                    "duration": 0.1807230000000004
                },
                {
                    "name": "A4",
                    "midi": 69,
                    "time": 11.927718000000016,
                    "velocity": 0.7952755905511811,
                    "duration": 0.1807230000000004
                },
                {
                    "name": "C5",
                    "midi": 72,
                    "time": 11.927718000000016,
                    "velocity": 0.7952755905511811,
                    "duration": 0.1807230000000004
                },
                {
                    "name": "F5",
                    "midi": 77,
                    "time": 11.927718000000016,
                    "velocity": 0.7952755905511811,
                    "duration": 0.1807230000000004
                },
                {
                    "name": "C5",
                    "midi": 72,
                    "time": 12.108441000000017,
                    "velocity": 0.7952755905511811,
                    "duration": 0.1807230000000004
                },
                {
                    "name": "F5",
                    "midi": 77,
                    "time": 12.108441000000017,
                    "velocity": 0.7952755905511811,
                    "duration": 0.1807230000000004
                },
                {
                    "name": "A5",
                    "midi": 81,
                    "time": 12.108441000000017,
                    "velocity": 0.7952755905511811,
                    "duration": 0.1807230000000004
                },
                {
                    "name": "G4",
                    "midi": 67,
                    "time": 12.289164000000017,
                    "velocity": 0.7952755905511811,
                    "duration": 0.1807230000000004
                },
                {
                    "name": "B4",
                    "midi": 71,
                    "time": 12.289164000000017,
                    "velocity": 0.7952755905511811,
                    "duration": 0.1807230000000004
                },
                {
                    "name": "E5",
                    "midi": 76,
                    "time": 12.289164000000017,
                    "velocity": 0.7952755905511811,
                    "duration": 0.1807230000000004
                },
                {
                    "name": "A4",
                    "midi": 69,
                    "time": 12.469887000000018,
                    "velocity": 0.7952755905511811,
                    "duration": 0.1807230000000004
                },
                {
                    "name": "C5",
                    "midi": 72,
                    "time": 12.469887000000018,
                    "velocity": 0.7952755905511811,
                    "duration": 0.1807230000000004
                },
                {
                    "name": "F5",
                    "midi": 77,
                    "time": 12.469887000000018,
                    "velocity": 0.7952755905511811,
                    "duration": 0.1807230000000004
                },
                {
                    "name": "G4",
                    "midi": 67,
                    "time": 12.650610000000018,
                    "velocity": 0.7952755905511811,
                    "duration": 0.1807230000000004
                },
                {
                    "name": "B4",
                    "midi": 71,
                    "time": 12.650610000000018,
                    "velocity": 0.7952755905511811,
                    "duration": 0.1807230000000004
                },
                {
                    "name": "E5",
                    "midi": 76,
                    "time": 12.650610000000018,
                    "velocity": 0.7952755905511811,
                    "duration": 0.1807230000000004
                },
                {
                    "name": "B4",
                    "midi": 71,
                    "time": 12.831333000000019,
                    "velocity": 0.7952755905511811,
                    "duration": 0.1807230000000004
                },
                {
                    "name": "E5",
                    "midi": 76,
                    "time": 12.831333000000019,
                    "velocity": 0.7952755905511811,
                    "duration": 0.1807230000000004
                },
                {
                    "name": "G5",
                    "midi": 79,
                    "time": 12.831333000000019,
                    "velocity": 0.7952755905511811,
                    "duration": 0.1807230000000004
                },
                {
                    "name": "C5",
                    "midi": 72,
                    "time": 13.012056000000019,
                    "velocity": 0.7952755905511811,
                    "duration": 0.3614460000000008
                },
                {
                    "name": "F5",
                    "midi": 77,
                    "time": 13.012056000000019,
                    "velocity": 0.7952755905511811,
                    "duration": 0.3614460000000008
                },
                {
                    "name": "A5",
                    "midi": 81,
                    "time": 13.012056000000019,
                    "velocity": 0.7952755905511811,
                    "duration": 0.3614460000000008
                },
                {
                    "name": "B4",
                    "midi": 71,
                    "time": 13.37350200000002,
                    "velocity": 0.7952755905511811,
                    "duration": 0.1807230000000004
                },
                {
                    "name": "E5",
                    "midi": 76,
                    "time": 13.37350200000002,
                    "velocity": 0.7952755905511811,
                    "duration": 0.1807230000000004
                },
                {
                    "name": "G5",
                    "midi": 79,
                    "time": 13.37350200000002,
                    "velocity": 0.7952755905511811,
                    "duration": 0.1807230000000004
                },
                {
                    "name": "C5",
                    "midi": 72,
                    "time": 13.55422500000002,
                    "velocity": 0.7952755905511811,
                    "duration": 0.1807230000000004
                },
                {
                    "name": "F5",
                    "midi": 77,
                    "time": 13.55422500000002,
                    "velocity": 0.7952755905511811,
                    "duration": 0.1807230000000004
                },
                {
                    "name": "A5",
                    "midi": 81,
                    "time": 13.55422500000002,
                    "velocity": 0.7952755905511811,
                    "duration": 0.1807230000000004
                },
                {
                    "name": "G4",
                    "midi": 67,
                    "time": 13.73494800000002,
                    "velocity": 0.7952755905511811,
                    "duration": 0.1807230000000004
                },
                {
                    "name": "B4",
                    "midi": 71,
                    "time": 13.73494800000002,
                    "velocity": 0.7952755905511811,
                    "duration": 0.1807230000000004
                },
                {
                    "name": "E5",
                    "midi": 76,
                    "time": 13.73494800000002,
                    "velocity": 0.7952755905511811,
                    "duration": 0.1807230000000004
                },
                {
                    "name": "A4",
                    "midi": 69,
                    "time": 13.915671000000021,
                    "velocity": 0.7952755905511811,
                    "duration": 0.1807230000000004
                },
                {
                    "name": "C5",
                    "midi": 72,
                    "time": 13.915671000000021,
                    "velocity": 0.7952755905511811,
                    "duration": 0.1807230000000004
                },
                {
                    "name": "F5",
                    "midi": 77,
                    "time": 13.915671000000021,
                    "velocity": 0.7952755905511811,
                    "duration": 0.1807230000000004
                },
                {
                    "name": "G4",
                    "midi": 67,
                    "time": 14.096394000000021,
                    "velocity": 0.7952755905511811,
                    "duration": 0.1807230000000004
                },
                {
                    "name": "B4",
                    "midi": 71,
                    "time": 14.096394000000021,
                    "velocity": 0.7952755905511811,
                    "duration": 0.1807230000000004
                },
                {
                    "name": "E5",
                    "midi": 76,
                    "time": 14.096394000000021,
                    "velocity": 0.7952755905511811,
                    "duration": 0.1807230000000004
                },
                {
                    "name": "B4",
                    "midi": 71,
                    "time": 14.277117000000022,
                    "velocity": 0.7952755905511811,
                    "duration": 0.1807230000000004
                },
                {
                    "name": "E5",
                    "midi": 76,
                    "time": 14.277117000000022,
                    "velocity": 0.7952755905511811,
                    "duration": 0.1807230000000004
                },
                {
                    "name": "G5",
                    "midi": 79,
                    "time": 14.277117000000022,
                    "velocity": 0.7952755905511811,
                    "duration": 0.1807230000000004
                },
                {
                    "name": "D4",
                    "midi": 62,
                    "time": 14.457840000000022,
                    "velocity": 0.7952755905511811,
                    "duration": 0.24096399999999996
                },
                {
                    "name": "A#4",
                    "midi": 70,
                    "time": 14.457840000000022,
                    "velocity": 0.7952755905511811,
                    "duration": 0.24096399999999996
                },
                {
                    "name": "B4",
                    "midi": 71,
                    "time": 14.457840000000022,
                    "velocity": 0.7952755905511811,
                    "duration": 0.24096399999999996
                },
                {
                    "name": "D5",
                    "midi": 74,
                    "time": 14.457840000000022,
                    "velocity": 0.7952755905511811,
                    "duration": 0.24096399999999996
                },
                {
                    "name": "D4",
                    "midi": 62,
                    "time": 14.698804000000022,
                    "velocity": 0.7952755905511811,
                    "duration": 0.24021098749999936
                },
                {
                    "name": "A#4",
                    "midi": 70,
                    "time": 14.698804000000022,
                    "velocity": 0.7952755905511811,
                    "duration": 0.24021098749999936
                },
                {
                    "name": "B4",
                    "midi": 71,
                    "time": 14.698804000000022,
                    "velocity": 0.7952755905511811,
                    "duration": 0.24021098749999936
                },
                {
                    "name": "D5",
                    "midi": 74,
                    "time": 14.698804000000022,
                    "velocity": 0.7952755905511811,
                    "duration": 0.24021098749999936
                },
                {
                    "name": "C#4",
                    "midi": 61,
                    "time": 14.939014987500022,
                    "velocity": 0.7952755905511811,
                    "duration": 0.24171701250000055
                },
                {
                    "name": "A4",
                    "midi": 69,
                    "time": 14.939014987500022,
                    "velocity": 0.7952755905511811,
                    "duration": 0.24171701250000055
                },
                {
                    "name": "C5",
                    "midi": 72,
                    "time": 14.939014987500022,
                    "velocity": 0.7952755905511811,
                    "duration": 0.24171701250000055
                },
                {
                    "name": "G3",
                    "midi": 55,
                    "time": 15.180732000000022,
                    "velocity": 1,
                    "duration": 1.4457840000000015
                },
                {
                    "name": "D#4",
                    "midi": 63,
                    "time": 15.180732000000022,
                    "velocity": 1,
                    "duration": 1.4457840000000015
                },
                {
                    "name": "G4",
                    "midi": 67,
                    "time": 15.180732000000022,
                    "velocity": 1,
                    "duration": 1.4457840000000015
                },
                {
                    "name": "G3",
                    "midi": 55,
                    "time": 18.072300000000023,
                    "velocity": 1,
                    "duration": 2.1686760000000014
                },
                {
                    "name": "D#4",
                    "midi": 63,
                    "time": 18.072300000000023,
                    "velocity": 1,
                    "duration": 2.1686760000000014
                },
                {
                    "name": "G4",
                    "midi": 67,
                    "time": 18.072300000000023,
                    "velocity": 1,
                    "duration": 2.1686760000000014
                },
                {
                    "name": "A3",
                    "midi": 57,
                    "time": 22.048206000000025,
                    "velocity": 0.6929133858267716,
                    "duration": 0.3614460000000008
                },
                {
                    "name": "F4",
                    "midi": 65,
                    "time": 22.048206000000025,
                    "velocity": 0.6929133858267716,
                    "duration": 0.3614460000000008
                },
                {
                    "name": "A4",
                    "midi": 69,
                    "time": 22.048206000000025,
                    "velocity": 0.6929133858267716,
                    "duration": 0.3614460000000008
                },
                {
                    "name": "E4",
                    "midi": 64,
                    "time": 22.409652000000026,
                    "velocity": 0.6929133858267716,
                    "duration": 0.1807230000000004
                },
                {
                    "name": "G4",
                    "midi": 67,
                    "time": 22.409652000000026,
                    "velocity": 0.6929133858267716,
                    "duration": 0.1807230000000004
                },
                {
                    "name": "F4",
                    "midi": 65,
                    "time": 22.590375000000027,
                    "velocity": 0.6929133858267716,
                    "duration": 0.1807230000000004
                },
                {
                    "name": "A4",
                    "midi": 69,
                    "time": 22.590375000000027,
                    "velocity": 0.6929133858267716,
                    "duration": 0.1807230000000004
                },
                {
                    "name": "E4",
                    "midi": 64,
                    "time": 22.771098000000027,
                    "velocity": 0.6929133858267716,
                    "duration": 0.1807230000000004
                },
                {
                    "name": "G4",
                    "midi": 67,
                    "time": 22.771098000000027,
                    "velocity": 0.6929133858267716,
                    "duration": 0.1807230000000004
                },
                {
                    "name": "D4",
                    "midi": 62,
                    "time": 22.951821000000027,
                    "velocity": 0.6929133858267716,
                    "duration": 0.1807230000000004
                },
                {
                    "name": "F4",
                    "midi": 65,
                    "time": 22.951821000000027,
                    "velocity": 0.6929133858267716,
                    "duration": 0.1807230000000004
                },
                {
                    "name": "C4",
                    "midi": 60,
                    "time": 23.132544000000028,
                    "velocity": 0.6929133858267716,
                    "duration": 0.1807230000000004
                },
                {
                    "name": "E4",
                    "midi": 64,
                    "time": 23.132544000000028,
                    "velocity": 0.6929133858267716,
                    "duration": 0.1807230000000004
                },
                {
                    "name": "D4",
                    "midi": 62,
                    "time": 23.313267000000028,
                    "velocity": 0.6929133858267716,
                    "duration": 0.1807230000000004
                },
                {
                    "name": "F4",
                    "midi": 65,
                    "time": 23.313267000000028,
                    "velocity": 0.6929133858267716,
                    "duration": 0.1807230000000004
                },
                {
                    "name": "B3",
                    "midi": 59,
                    "time": 23.49399000000003,
                    "velocity": 0.6929133858267716,
                    "duration": 0.1807230000000004
                },
                {
                    "name": "D4",
                    "midi": 62,
                    "time": 23.49399000000003,
                    "velocity": 0.6929133858267716,
                    "duration": 0.1807230000000004
                },
                {
                    "name": "C4",
                    "midi": 60,
                    "time": 23.67471300000003,
                    "velocity": 0.6929133858267716,
                    "duration": 0.1807230000000004
                },
                {
                    "name": "E4",
                    "midi": 64,
                    "time": 23.67471300000003,
                    "velocity": 0.6929133858267716,
                    "duration": 0.1807230000000004
                },
                {
                    "name": "D4",
                    "midi": 62,
                    "time": 23.85543600000003,
                    "velocity": 0.6929133858267716,
                    "duration": 0.1807230000000004
                },
                {
                    "name": "F4",
                    "midi": 65,
                    "time": 23.85543600000003,
                    "velocity": 0.6929133858267716,
                    "duration": 0.1807230000000004
                },
                {
                    "name": "E4",
                    "midi": 64,
                    "time": 24.03615900000003,
                    "velocity": 0.6929133858267716,
                    "duration": 0.1807230000000004
                },
                {
                    "name": "G4",
                    "midi": 67,
                    "time": 24.03615900000003,
                    "velocity": 0.6929133858267716,
                    "duration": 0.1807230000000004
                },
                {
                    "name": "F4",
                    "midi": 65,
                    "time": 24.21688200000003,
                    "velocity": 0.6929133858267716,
                    "duration": 0.1807230000000004
                },
                {
                    "name": "A4",
                    "midi": 69,
                    "time": 24.21688200000003,
                    "velocity": 0.6929133858267716,
                    "duration": 0.1807230000000004
                },
                {
                    "name": "A5",
                    "midi": 81,
                    "time": 24.39760500000003,
                    "velocity": 0.6929133858267716,
                    "duration": 0.1807230000000004
                },
                {
                    "name": "C#6",
                    "midi": 85,
                    "time": 24.39760500000003,
                    "velocity": 0.6929133858267716,
                    "duration": 0.1807230000000004
                },
                {
                    "name": "G#5",
                    "midi": 80,
                    "time": 24.57832800000003,
                    "velocity": 0.6929133858267716,
                    "duration": 0.1807230000000004
                },
                {
                    "name": "B5",
                    "midi": 83,
                    "time": 24.57832800000003,
                    "velocity": 0.6929133858267716,
                    "duration": 0.1807230000000004
                },
                {
                    "name": "A5",
                    "midi": 81,
                    "time": 24.75905100000003,
                    "velocity": 0.6929133858267716,
                    "duration": 0.1807230000000004
                },
                {
                    "name": "C#6",
                    "midi": 85,
                    "time": 24.75905100000003,
                    "velocity": 0.6929133858267716,
                    "duration": 0.1807230000000004
                },
                {
                    "name": "G#5",
                    "midi": 80,
                    "time": 24.939774000000032,
                    "velocity": 0.6929133858267716,
                    "duration": 0.1807230000000004
                },
                {
                    "name": "B5",
                    "midi": 83,
                    "time": 24.939774000000032,
                    "velocity": 0.6929133858267716,
                    "duration": 0.1807230000000004
                },
                {
                    "name": "F5",
                    "midi": 77,
                    "time": 25.120497000000032,
                    "velocity": 0.6929133858267716,
                    "duration": 0.1807230000000004
                },
                {
                    "name": "A5",
                    "midi": 81,
                    "time": 25.120497000000032,
                    "velocity": 0.6929133858267716,
                    "duration": 0.1807230000000004
                },
                {
                    "name": "E5",
                    "midi": 76,
                    "time": 25.301220000000033,
                    "velocity": 0.6929133858267716,
                    "duration": 0.1807230000000004
                },
                {
                    "name": "G#5",
                    "midi": 80,
                    "time": 25.301220000000033,
                    "velocity": 0.6929133858267716,
                    "duration": 0.1807230000000004
                },
                {
                    "name": "F5",
                    "midi": 77,
                    "time": 25.481943000000033,
                    "velocity": 0.6929133858267716,
                    "duration": 0.1807230000000004
                },
                {
                    "name": "A5",
                    "midi": 81,
                    "time": 25.481943000000033,
                    "velocity": 0.6929133858267716,
                    "duration": 0.1807230000000004
                },
                {
                    "name": "D#5",
                    "midi": 75,
                    "time": 25.662666000000034,
                    "velocity": 0.6929133858267716,
                    "duration": 0.1807230000000004
                },
                {
                    "name": "F#5",
                    "midi": 78,
                    "time": 25.662666000000034,
                    "velocity": 0.6929133858267716,
                    "duration": 0.1807230000000004
                },
                {
                    "name": "E5",
                    "midi": 76,
                    "time": 25.843389000000034,
                    "velocity": 0.6929133858267716,
                    "duration": 0.1807230000000004
                },
                {
                    "name": "G#5",
                    "midi": 80,
                    "time": 25.843389000000034,
                    "velocity": 0.6929133858267716,
                    "duration": 0.1807230000000004
                },
                {
                    "name": "F5",
                    "midi": 77,
                    "time": 26.024112000000034,
                    "velocity": 0.6929133858267716,
                    "duration": 0.1807230000000004
                },
                {
                    "name": "A5",
                    "midi": 81,
                    "time": 26.024112000000034,
                    "velocity": 0.6929133858267716,
                    "duration": 0.1807230000000004
                },
                {
                    "name": "G#5",
                    "midi": 80,
                    "time": 26.204835000000035,
                    "velocity": 0.6929133858267716,
                    "duration": 0.1807230000000004
                },
                {
                    "name": "B5",
                    "midi": 83,
                    "time": 26.204835000000035,
                    "velocity": 0.6929133858267716,
                    "duration": 0.1807230000000004
                },
                {
                    "name": "A5",
                    "midi": 81,
                    "time": 26.385558000000035,
                    "velocity": 0.6929133858267716,
                    "duration": 0.1807230000000004
                },
                {
                    "name": "C#6",
                    "midi": 85,
                    "time": 26.385558000000035,
                    "velocity": 0.6929133858267716,
                    "duration": 0.1807230000000004
                },
                {
                    "name": "A5",
                    "midi": 81,
                    "time": 29.096403000000034,
                    "velocity": 0.6929133858267716,
                    "duration": 0.1807230000000004
                },
                {
                    "name": "C#6",
                    "midi": 85,
                    "time": 29.096403000000034,
                    "velocity": 0.6929133858267716,
                    "duration": 0.1807230000000004
                },
                {
                    "name": "G#5",
                    "midi": 80,
                    "time": 29.277126000000035,
                    "velocity": 0.6929133858267716,
                    "duration": 0.1807230000000004
                },
                {
                    "name": "B5",
                    "midi": 83,
                    "time": 29.277126000000035,
                    "velocity": 0.6929133858267716,
                    "duration": 0.1807230000000004
                },
                {
                    "name": "A5",
                    "midi": 81,
                    "time": 29.457849000000035,
                    "velocity": 0.6929133858267716,
                    "duration": 0.1807230000000004
                },
                {
                    "name": "C#6",
                    "midi": 85,
                    "time": 29.457849000000035,
                    "velocity": 0.6929133858267716,
                    "duration": 0.1807230000000004
                },
                {
                    "name": "G#5",
                    "midi": 80,
                    "time": 29.638572000000035,
                    "velocity": 0.6929133858267716,
                    "duration": 0.1807230000000004
                },
                {
                    "name": "B5",
                    "midi": 83,
                    "time": 29.638572000000035,
                    "velocity": 0.6929133858267716,
                    "duration": 0.1807230000000004
                },
                {
                    "name": "F5",
                    "midi": 77,
                    "time": 29.819295000000036,
                    "velocity": 0.6929133858267716,
                    "duration": 0.1807230000000004
                },
                {
                    "name": "A5",
                    "midi": 81,
                    "time": 29.819295000000036,
                    "velocity": 0.6929133858267716,
                    "duration": 0.1807230000000004
                },
                {
                    "name": "E5",
                    "midi": 76,
                    "time": 30.000018000000036,
                    "velocity": 0.6929133858267716,
                    "duration": 0.1807230000000004
                },
                {
                    "name": "G#5",
                    "midi": 80,
                    "time": 30.000018000000036,
                    "velocity": 0.6929133858267716,
                    "duration": 0.1807230000000004
                },
                {
                    "name": "F5",
                    "midi": 77,
                    "time": 30.180741000000037,
                    "velocity": 0.6929133858267716,
                    "duration": 0.1807230000000004
                },
                {
                    "name": "A5",
                    "midi": 81,
                    "time": 30.180741000000037,
                    "velocity": 0.6929133858267716,
                    "duration": 0.1807230000000004
                },
                {
                    "name": "D#5",
                    "midi": 75,
                    "time": 30.361464000000037,
                    "velocity": 0.6929133858267716,
                    "duration": 0.1807230000000004
                },
                {
                    "name": "F#5",
                    "midi": 78,
                    "time": 30.361464000000037,
                    "velocity": 0.6929133858267716,
                    "duration": 0.1807230000000004
                },
                {
                    "name": "D#5",
                    "midi": 75,
                    "time": 30.542187000000038,
                    "velocity": 0.6929133858267716,
                    "duration": 0.1807230000000004
                },
                {
                    "name": "F#5",
                    "midi": 78,
                    "time": 30.542187000000038,
                    "velocity": 0.6929133858267716,
                    "duration": 0.1807230000000004
                },
                {
                    "name": "D#5",
                    "midi": 75,
                    "time": 30.722910000000038,
                    "velocity": 0.6929133858267716,
                    "duration": 0.1807230000000004
                },
                {
                    "name": "F#5",
                    "midi": 78,
                    "time": 30.722910000000038,
                    "velocity": 0.6929133858267716,
                    "duration": 0.1807230000000004
                },
                {
                    "name": "E5",
                    "midi": 76,
                    "time": 30.90363300000004,
                    "velocity": 0.6929133858267716,
                    "duration": 0.1807230000000004
                },
                {
                    "name": "G#5",
                    "midi": 80,
                    "time": 30.90363300000004,
                    "velocity": 0.6929133858267716,
                    "duration": 0.1807230000000004
                },
                {
                    "name": "F5",
                    "midi": 77,
                    "time": 31.08435600000004,
                    "velocity": 0.6929133858267716,
                    "duration": 0.1807230000000004
                },
                {
                    "name": "A5",
                    "midi": 81,
                    "time": 31.08435600000004,
                    "velocity": 0.6929133858267716,
                    "duration": 0.1807230000000004
                },
                {
                    "name": "G#5",
                    "midi": 80,
                    "time": 31.26507900000004,
                    "velocity": 0.6929133858267716,
                    "duration": 0.1807230000000004
                },
                {
                    "name": "B5",
                    "midi": 83,
                    "time": 31.26507900000004,
                    "velocity": 0.6929133858267716,
                    "duration": 0.1807230000000004
                },
                {
                    "name": "A5",
                    "midi": 81,
                    "time": 31.44580200000004,
                    "velocity": 0.6929133858267716,
                    "duration": 0.1807230000000004
                },
                {
                    "name": "C#6",
                    "midi": 85,
                    "time": 31.44580200000004,
                    "velocity": 0.6929133858267716,
                    "duration": 0.1807230000000004
                },
                {
                    "name": "B5",
                    "midi": 83,
                    "time": 31.80724800000004,
                    "velocity": 0.3858267716535433,
                    "duration": 0.1807230000000004
                },
                {
                    "name": "D#6",
                    "midi": 87,
                    "time": 31.80724800000004,
                    "velocity": 0.3858267716535433,
                    "duration": 0.1807230000000004
                },
                {
                    "name": "C#6",
                    "midi": 85,
                    "time": 31.98797100000004,
                    "velocity": 0.3858267716535433,
                    "duration": 0.18072299999999686
                },
                {
                    "name": "E6",
                    "midi": 88,
                    "time": 31.98797100000004,
                    "velocity": 0.3858267716535433,
                    "duration": 0.18072299999999686
                },
                {
                    "name": "D6",
                    "midi": 86,
                    "time": 32.16869400000004,
                    "velocity": 0.3858267716535433,
                    "duration": 0.5421690000000012
                },
                {
                    "name": "F#6",
                    "midi": 90,
                    "time": 32.16869400000004,
                    "velocity": 0.3858267716535433,
                    "duration": 0.5421690000000012
                },
                {
                    "name": "C6",
                    "midi": 84,
                    "time": 32.71086300000004,
                    "velocity": 0.3858267716535433,
                    "duration": 0.1807230000000004
                },
                {
                    "name": "E6",
                    "midi": 88,
                    "time": 32.71086300000004,
                    "velocity": 0.3858267716535433,
                    "duration": 0.1807230000000004
                },
                {
                    "name": "B5",
                    "midi": 83,
                    "time": 32.89158600000004,
                    "velocity": 0.3858267716535433,
                    "duration": 0.1807230000000004
                },
                {
                    "name": "D#6",
                    "midi": 87,
                    "time": 32.89158600000004,
                    "velocity": 0.3858267716535433,
                    "duration": 0.1807230000000004
                },
                {
                    "name": "A5",
                    "midi": 81,
                    "time": 33.07230900000004,
                    "velocity": 0.3858267716535433,
                    "duration": 0.1807230000000004
                },
                {
                    "name": "C#6",
                    "midi": 85,
                    "time": 33.07230900000004,
                    "velocity": 0.3858267716535433,
                    "duration": 0.1807230000000004
                },
                {
                    "name": "B5",
                    "midi": 83,
                    "time": 33.25303200000004,
                    "velocity": 0.3858267716535433,
                    "duration": 0.1807230000000004
                },
                {
                    "name": "D#6",
                    "midi": 87,
                    "time": 33.25303200000004,
                    "velocity": 0.3858267716535433,
                    "duration": 0.1807230000000004
                },
                {
                    "name": "C#6",
                    "midi": 85,
                    "time": 33.43375500000004,
                    "velocity": 0.3858267716535433,
                    "duration": 0.1807230000000004
                },
                {
                    "name": "E6",
                    "midi": 88,
                    "time": 33.43375500000004,
                    "velocity": 0.3858267716535433,
                    "duration": 0.1807230000000004
                },
                {
                    "name": "D6",
                    "midi": 86,
                    "time": 33.61447800000004,
                    "velocity": 0.3858267716535433,
                    "duration": 0.5421690000000012
                },
                {
                    "name": "F#6",
                    "midi": 90,
                    "time": 33.61447800000004,
                    "velocity": 0.3858267716535433,
                    "duration": 0.5421690000000012
                },
                {
                    "name": "C6",
                    "midi": 84,
                    "time": 34.15664700000004,
                    "velocity": 0.3858267716535433,
                    "duration": 0.1807230000000004
                },
                {
                    "name": "E6",
                    "midi": 88,
                    "time": 34.15664700000004,
                    "velocity": 0.3858267716535433,
                    "duration": 0.1807230000000004
                },
                {
                    "name": "B5",
                    "midi": 83,
                    "time": 34.33737000000004,
                    "velocity": 0.3858267716535433,
                    "duration": 0.1807230000000004
                },
                {
                    "name": "D#6",
                    "midi": 87,
                    "time": 34.33737000000004,
                    "velocity": 0.3858267716535433,
                    "duration": 0.1807230000000004
                },
                {
                    "name": "A5",
                    "midi": 81,
                    "time": 34.51809300000004,
                    "velocity": 0.3858267716535433,
                    "duration": 0.1807230000000004
                },
                {
                    "name": "C#6",
                    "midi": 85,
                    "time": 34.51809300000004,
                    "velocity": 0.3858267716535433,
                    "duration": 0.1807230000000004
                },
                {
                    "name": "B5",
                    "midi": 83,
                    "time": 34.69881600000004,
                    "velocity": 0.3858267716535433,
                    "duration": 0.1807230000000004
                },
                {
                    "name": "D#6",
                    "midi": 87,
                    "time": 34.69881600000004,
                    "velocity": 0.3858267716535433,
                    "duration": 0.1807230000000004
                },
                {
                    "name": "C#6",
                    "midi": 85,
                    "time": 34.879539000000044,
                    "velocity": 0.3858267716535433,
                    "duration": 0.1807230000000004
                },
                {
                    "name": "E6",
                    "midi": 88,
                    "time": 34.879539000000044,
                    "velocity": 0.3858267716535433,
                    "duration": 0.1807230000000004
                },
                {
                    "name": "D6",
                    "midi": 86,
                    "time": 35.060262000000044,
                    "velocity": 0.3858267716535433,
                    "duration": 0.24096399999999818
                },
                {
                    "name": "F#6",
                    "midi": 90,
                    "time": 35.060262000000044,
                    "velocity": 0.3858267716535433,
                    "duration": 0.24096399999999818
                },
                {
                    "name": "C6",
                    "midi": 84,
                    "time": 35.30122600000004,
                    "velocity": 0.3858267716535433,
                    "duration": 0.24021098749999936
                },
                {
                    "name": "E6",
                    "midi": 88,
                    "time": 35.30122600000004,
                    "velocity": 0.3858267716535433,
                    "duration": 0.24021098749999936
                },
                {
                    "name": "B5",
                    "midi": 83,
                    "time": 35.54143698750004,
                    "velocity": 0.3858267716535433,
                    "duration": 0.241717012499997
                },
                {
                    "name": "D#6",
                    "midi": 87,
                    "time": 35.54143698750004,
                    "velocity": 0.3858267716535433,
                    "duration": 0.241717012499997
                },
                {
                    "name": "A5",
                    "midi": 81,
                    "time": 35.78315400000004,
                    "velocity": 0.3858267716535433,
                    "duration": 0.3614460000000008
                },
                {
                    "name": "C#6",
                    "midi": 85,
                    "time": 35.78315400000004,
                    "velocity": 0.3858267716535433,
                    "duration": 0.3614460000000008
                },
                {
                    "name": "G5",
                    "midi": 79,
                    "time": 36.14460000000004,
                    "velocity": 0.3858267716535433,
                    "duration": 0.1807230000000004
                },
                {
                    "name": "B5",
                    "midi": 83,
                    "time": 36.14460000000004,
                    "velocity": 0.3858267716535433,
                    "duration": 0.1807230000000004
                },
                {
                    "name": "A5",
                    "midi": 81,
                    "time": 36.32532300000004,
                    "velocity": 0.3858267716535433,
                    "duration": 0.1807230000000004
                },
                {
                    "name": "C6",
                    "midi": 84,
                    "time": 36.32532300000004,
                    "velocity": 0.3858267716535433,
                    "duration": 0.1807230000000004
                },
                {
                    "name": "A#5",
                    "midi": 82,
                    "time": 36.50604600000004,
                    "velocity": 0.3858267716535433,
                    "duration": 0.5421690000000012
                },
                {
                    "name": "D6",
                    "midi": 86,
                    "time": 36.50604600000004,
                    "velocity": 0.3858267716535433,
                    "duration": 0.5421690000000012
                },
                {
                    "name": "G#5",
                    "midi": 80,
                    "time": 37.04821500000004,
                    "velocity": 0.3858267716535433,
                    "duration": 0.1807230000000004
                },
                {
                    "name": "C6",
                    "midi": 84,
                    "time": 37.04821500000004,
                    "velocity": 0.3858267716535433,
                    "duration": 0.1807230000000004
                },
                {
                    "name": "G5",
                    "midi": 79,
                    "time": 37.22893800000004,
                    "velocity": 0.3858267716535433,
                    "duration": 0.1807230000000004
                },
                {
                    "name": "B5",
                    "midi": 83,
                    "time": 37.22893800000004,
                    "velocity": 0.3858267716535433,
                    "duration": 0.1807230000000004
                },
                {
                    "name": "F5",
                    "midi": 77,
                    "time": 37.40966100000004,
                    "velocity": 0.3858267716535433,
                    "duration": 0.1807230000000004
                },
                {
                    "name": "A5",
                    "midi": 81,
                    "time": 37.40966100000004,
                    "velocity": 0.3858267716535433,
                    "duration": 0.1807230000000004
                },
                {
                    "name": "G5",
                    "midi": 79,
                    "time": 37.59038400000004,
                    "velocity": 0.3858267716535433,
                    "duration": 0.1807230000000004
                },
                {
                    "name": "B5",
                    "midi": 83,
                    "time": 37.59038400000004,
                    "velocity": 0.3858267716535433,
                    "duration": 0.1807230000000004
                },
                {
                    "name": "A5",
                    "midi": 81,
                    "time": 37.77110700000004,
                    "velocity": 0.3858267716535433,
                    "duration": 0.1807230000000004
                },
                {
                    "name": "C6",
                    "midi": 84,
                    "time": 37.77110700000004,
                    "velocity": 0.3858267716535433,
                    "duration": 0.1807230000000004
                },
                {
                    "name": "A#5",
                    "midi": 82,
                    "time": 37.951830000000044,
                    "velocity": 0.3858267716535433,
                    "duration": 0.1807230000000004
                },
                {
                    "name": "D6",
                    "midi": 86,
                    "time": 37.951830000000044,
                    "velocity": 0.3858267716535433,
                    "duration": 0.1807230000000004
                },
                {
                    "name": "A4",
                    "midi": 69,
                    "time": 38.313276000000045,
                    "velocity": 0.7952755905511811,
                    "duration": 0.3614460000000008
                },
                {
                    "name": "F5",
                    "midi": 77,
                    "time": 38.313276000000045,
                    "velocity": 0.7952755905511811,
                    "duration": 0.3614460000000008
                },
                {
                    "name": "A5",
                    "midi": 81,
                    "time": 38.313276000000045,
                    "velocity": 0.7952755905511811,
                    "duration": 0.3614460000000008
                },
                {
                    "name": "G4",
                    "midi": 67,
                    "time": 38.674722000000045,
                    "velocity": 0.7952755905511811,
                    "duration": 0.1807230000000004
                },
                {
                    "name": "E5",
                    "midi": 76,
                    "time": 38.674722000000045,
                    "velocity": 0.7952755905511811,
                    "duration": 0.1807230000000004
                },
                {
                    "name": "G5",
                    "midi": 79,
                    "time": 38.674722000000045,
                    "velocity": 0.7952755905511811,
                    "duration": 0.1807230000000004
                },
                {
                    "name": "A4",
                    "midi": 69,
                    "time": 38.855445000000046,
                    "velocity": 0.7952755905511811,
                    "duration": 0.1807230000000004
                },
                {
                    "name": "F5",
                    "midi": 77,
                    "time": 38.855445000000046,
                    "velocity": 0.7952755905511811,
                    "duration": 0.1807230000000004
                },
                {
                    "name": "A5",
                    "midi": 81,
                    "time": 38.855445000000046,
                    "velocity": 0.7952755905511811,
                    "duration": 0.1807230000000004
                },
                {
                    "name": "G4",
                    "midi": 67,
                    "time": 39.036168000000046,
                    "velocity": 0.7952755905511811,
                    "duration": 0.1807230000000004
                },
                {
                    "name": "E5",
                    "midi": 76,
                    "time": 39.036168000000046,
                    "velocity": 0.7952755905511811,
                    "duration": 0.1807230000000004
                },
                {
                    "name": "G5",
                    "midi": 79,
                    "time": 39.036168000000046,
                    "velocity": 0.7952755905511811,
                    "duration": 0.1807230000000004
                },
                {
                    "name": "F4",
                    "midi": 65,
                    "time": 39.21689100000005,
                    "velocity": 0.7952755905511811,
                    "duration": 0.1807230000000004
                },
                {
                    "name": "D5",
                    "midi": 74,
                    "time": 39.21689100000005,
                    "velocity": 0.7952755905511811,
                    "duration": 0.1807230000000004
                },
                {
                    "name": "F5",
                    "midi": 77,
                    "time": 39.21689100000005,
                    "velocity": 0.7952755905511811,
                    "duration": 0.1807230000000004
                },
                {
                    "name": "E4",
                    "midi": 64,
                    "time": 39.39761400000005,
                    "velocity": 0.7952755905511811,
                    "duration": 0.1807230000000004
                },
                {
                    "name": "C5",
                    "midi": 72,
                    "time": 39.39761400000005,
                    "velocity": 0.7952755905511811,
                    "duration": 0.1807230000000004
                },
                {
                    "name": "E5",
                    "midi": 76,
                    "time": 39.39761400000005,
                    "velocity": 0.7952755905511811,
                    "duration": 0.1807230000000004
                },
                {
                    "name": "F4",
                    "midi": 65,
                    "time": 39.57833700000005,
                    "velocity": 0.7952755905511811,
                    "duration": 0.1807230000000004
                },
                {
                    "name": "D5",
                    "midi": 74,
                    "time": 39.57833700000005,
                    "velocity": 0.7952755905511811,
                    "duration": 0.1807230000000004
                },
                {
                    "name": "F5",
                    "midi": 77,
                    "time": 39.57833700000005,
                    "velocity": 0.7952755905511811,
                    "duration": 0.1807230000000004
                },
                {
                    "name": "D4",
                    "midi": 62,
                    "time": 39.75906000000005,
                    "velocity": 0.7952755905511811,
                    "duration": 0.1807230000000004
                },
                {
                    "name": "B4",
                    "midi": 71,
                    "time": 39.75906000000005,
                    "velocity": 0.7952755905511811,
                    "duration": 0.1807230000000004
                },
                {
                    "name": "D5",
                    "midi": 74,
                    "time": 39.75906000000005,
                    "velocity": 0.7952755905511811,
                    "duration": 0.1807230000000004
                },
                {
                    "name": "A4",
                    "midi": 69,
                    "time": 39.93978300000005,
                    "velocity": 0.7952755905511811,
                    "duration": 0.1807230000000004
                },
                {
                    "name": "F5",
                    "midi": 77,
                    "time": 39.93978300000005,
                    "velocity": 0.7952755905511811,
                    "duration": 0.1807230000000004
                },
                {
                    "name": "A5",
                    "midi": 81,
                    "time": 39.93978300000005,
                    "velocity": 0.7952755905511811,
                    "duration": 0.1807230000000004
                },
                {
                    "name": "G4",
                    "midi": 67,
                    "time": 40.12050600000005,
                    "velocity": 0.7952755905511811,
                    "duration": 0.1807230000000004
                },
                {
                    "name": "E5",
                    "midi": 76,
                    "time": 40.12050600000005,
                    "velocity": 0.7952755905511811,
                    "duration": 0.1807230000000004
                },
                {
                    "name": "G5",
                    "midi": 79,
                    "time": 40.12050600000005,
                    "velocity": 0.7952755905511811,
                    "duration": 0.1807230000000004
                },
                {
                    "name": "A4",
                    "midi": 69,
                    "time": 40.30122900000005,
                    "velocity": 0.7952755905511811,
                    "duration": 0.1807230000000004
                },
                {
                    "name": "F5",
                    "midi": 77,
                    "time": 40.30122900000005,
                    "velocity": 0.7952755905511811,
                    "duration": 0.1807230000000004
                },
                {
                    "name": "A5",
                    "midi": 81,
                    "time": 40.30122900000005,
                    "velocity": 0.7952755905511811,
                    "duration": 0.1807230000000004
                },
                {
                    "name": "G4",
                    "midi": 67,
                    "time": 40.48195200000005,
                    "velocity": 0.7952755905511811,
                    "duration": 0.1807230000000004
                },
                {
                    "name": "E5",
                    "midi": 76,
                    "time": 40.48195200000005,
                    "velocity": 0.7952755905511811,
                    "duration": 0.1807230000000004
                },
                {
                    "name": "G5",
                    "midi": 79,
                    "time": 40.48195200000005,
                    "velocity": 0.7952755905511811,
                    "duration": 0.1807230000000004
                },
                {
                    "name": "F4",
                    "midi": 65,
                    "time": 40.66267500000005,
                    "velocity": 0.7952755905511811,
                    "duration": 0.1807230000000004
                },
                {
                    "name": "D5",
                    "midi": 74,
                    "time": 40.66267500000005,
                    "velocity": 0.7952755905511811,
                    "duration": 0.1807230000000004
                },
                {
                    "name": "F5",
                    "midi": 77,
                    "time": 40.66267500000005,
                    "velocity": 0.7952755905511811,
                    "duration": 0.1807230000000004
                },
                {
                    "name": "E4",
                    "midi": 64,
                    "time": 40.84339800000005,
                    "velocity": 0.7952755905511811,
                    "duration": 0.1807230000000004
                },
                {
                    "name": "C5",
                    "midi": 72,
                    "time": 40.84339800000005,
                    "velocity": 0.7952755905511811,
                    "duration": 0.1807230000000004
                },
                {
                    "name": "E5",
                    "midi": 76,
                    "time": 40.84339800000005,
                    "velocity": 0.7952755905511811,
                    "duration": 0.1807230000000004
                },
                {
                    "name": "F4",
                    "midi": 65,
                    "time": 41.02412100000005,
                    "velocity": 0.7952755905511811,
                    "duration": 0.1807230000000004
                },
                {
                    "name": "D5",
                    "midi": 74,
                    "time": 41.02412100000005,
                    "velocity": 0.7952755905511811,
                    "duration": 0.1807230000000004
                },
                {
                    "name": "F5",
                    "midi": 77,
                    "time": 41.02412100000005,
                    "velocity": 0.7952755905511811,
                    "duration": 0.1807230000000004
                },
                {
                    "name": "D4",
                    "midi": 62,
                    "time": 41.20484400000005,
                    "velocity": 0.7952755905511811,
                    "duration": 0.1807230000000004
                },
                {
                    "name": "B4",
                    "midi": 71,
                    "time": 41.20484400000005,
                    "velocity": 0.7952755905511811,
                    "duration": 0.1807230000000004
                },
                {
                    "name": "D5",
                    "midi": 74,
                    "time": 41.20484400000005,
                    "velocity": 0.7952755905511811,
                    "duration": 0.1807230000000004
                },
                {
                    "name": "E4",
                    "midi": 64,
                    "time": 41.38556700000005,
                    "velocity": 0.7952755905511811,
                    "duration": 0.1807230000000004
                },
                {
                    "name": "C5",
                    "midi": 72,
                    "time": 41.38556700000005,
                    "velocity": 0.7952755905511811,
                    "duration": 0.1807230000000004
                },
                {
                    "name": "E5",
                    "midi": 76,
                    "time": 41.38556700000005,
                    "velocity": 0.7952755905511811,
                    "duration": 0.1807230000000004
                },
                {
                    "name": "F4",
                    "midi": 65,
                    "time": 41.56629000000005,
                    "velocity": 0.7952755905511811,
                    "duration": 0.1807230000000004
                },
                {
                    "name": "D5",
                    "midi": 74,
                    "time": 41.56629000000005,
                    "velocity": 0.7952755905511811,
                    "duration": 0.1807230000000004
                },
                {
                    "name": "F5",
                    "midi": 77,
                    "time": 41.56629000000005,
                    "velocity": 0.7952755905511811,
                    "duration": 0.1807230000000004
                },
                {
                    "name": "G4",
                    "midi": 67,
                    "time": 41.74701300000005,
                    "velocity": 0.7952755905511811,
                    "duration": 0.1807230000000004
                },
                {
                    "name": "E5",
                    "midi": 76,
                    "time": 41.74701300000005,
                    "velocity": 0.7952755905511811,
                    "duration": 0.1807230000000004
                },
                {
                    "name": "G5",
                    "midi": 79,
                    "time": 41.74701300000005,
                    "velocity": 0.7952755905511811,
                    "duration": 0.1807230000000004
                },
                {
                    "name": "A4",
                    "midi": 69,
                    "time": 41.92773600000005,
                    "velocity": 0.7952755905511811,
                    "duration": 0.1807230000000004
                },
                {
                    "name": "F5",
                    "midi": 77,
                    "time": 41.92773600000005,
                    "velocity": 0.7952755905511811,
                    "duration": 0.1807230000000004
                },
                {
                    "name": "A5",
                    "midi": 81,
                    "time": 41.92773600000005,
                    "velocity": 0.7952755905511811,
                    "duration": 0.1807230000000004
                },
                {
                    "name": "G4",
                    "midi": 67,
                    "time": 42.289182000000054,
                    "velocity": 0.3858267716535433,
                    "duration": 0.1807230000000004
                },
                {
                    "name": "B4",
                    "midi": 71,
                    "time": 42.289182000000054,
                    "velocity": 0.3858267716535433,
                    "duration": 0.1807230000000004
                },
                {
                    "name": "A4",
                    "midi": 69,
                    "time": 42.469905000000054,
                    "velocity": 0.3858267716535433,
                    "duration": 0.1807230000000004
                },
                {
                    "name": "C5",
                    "midi": 72,
                    "time": 42.469905000000054,
                    "velocity": 0.3858267716535433,
                    "duration": 0.1807230000000004
                },
                {
                    "name": "B4",
                    "midi": 71,
                    "time": 42.650628000000054,
                    "velocity": 0.3858267716535433,
                    "duration": 0.5421690000000012
                },
                {
                    "name": "D5",
                    "midi": 74,
                    "time": 42.650628000000054,
                    "velocity": 0.3858267716535433,
                    "duration": 0.5421690000000012
                },
                {
                    "name": "A4",
                    "midi": 69,
                    "time": 43.192797000000056,
                    "velocity": 0.3858267716535433,
                    "duration": 0.1807230000000004
                },
                {
                    "name": "C5",
                    "midi": 72,
                    "time": 43.192797000000056,
                    "velocity": 0.3858267716535433,
                    "duration": 0.1807230000000004
                },
                {
                    "name": "G4",
                    "midi": 67,
                    "time": 43.373520000000056,
                    "velocity": 0.3858267716535433,
                    "duration": 0.1807230000000004
                },
                {
                    "name": "B4",
                    "midi": 71,
                    "time": 43.373520000000056,
                    "velocity": 0.3858267716535433,
                    "duration": 0.1807230000000004
                },
                {
                    "name": "F4",
                    "midi": 65,
                    "time": 43.554243000000056,
                    "velocity": 0.3858267716535433,
                    "duration": 0.1807230000000004
                },
                {
                    "name": "A4",
                    "midi": 69,
                    "time": 43.554243000000056,
                    "velocity": 0.3858267716535433,
                    "duration": 0.1807230000000004
                },
                {
                    "name": "B4",
                    "midi": 71,
                    "time": 43.73496600000006,
                    "velocity": 0.3858267716535433,
                    "duration": 0.1807230000000004
                },
                {
                    "name": "G5",
                    "midi": 79,
                    "time": 43.73496600000006,
                    "velocity": 0.3858267716535433,
                    "duration": 0.1807230000000004
                },
                {
                    "name": "B5",
                    "midi": 83,
                    "time": 43.73496600000006,
                    "velocity": 0.3858267716535433,
                    "duration": 0.1807230000000004
                },
                {
                    "name": "C5",
                    "midi": 72,
                    "time": 43.91568900000006,
                    "velocity": 0.3858267716535433,
                    "duration": 0.1807230000000004
                },
                {
                    "name": "A5",
                    "midi": 81,
                    "time": 43.91568900000006,
                    "velocity": 0.3858267716535433,
                    "duration": 0.1807230000000004
                },
                {
                    "name": "C6",
                    "midi": 84,
                    "time": 43.91568900000006,
                    "velocity": 0.3858267716535433,
                    "duration": 0.1807230000000004
                },
                {
                    "name": "D5",
                    "midi": 74,
                    "time": 44.09641200000006,
                    "velocity": 0.3858267716535433,
                    "duration": 0.5421690000000012
                },
                {
                    "name": "B5",
                    "midi": 83,
                    "time": 44.09641200000006,
                    "velocity": 0.3858267716535433,
                    "duration": 0.5421690000000012
                },
                {
                    "name": "D6",
                    "midi": 86,
                    "time": 44.09641200000006,
                    "velocity": 0.3858267716535433,
                    "duration": 0.5421690000000012
                },
                {
                    "name": "C5",
                    "midi": 72,
                    "time": 44.63858100000006,
                    "velocity": 0.3858267716535433,
                    "duration": 0.1807230000000004
                },
                {
                    "name": "A5",
                    "midi": 81,
                    "time": 44.63858100000006,
                    "velocity": 0.3858267716535433,
                    "duration": 0.1807230000000004
                },
                {
                    "name": "C6",
                    "midi": 84,
                    "time": 44.63858100000006,
                    "velocity": 0.3858267716535433,
                    "duration": 0.1807230000000004
                },
                {
                    "name": "B4",
                    "midi": 71,
                    "time": 44.81930400000006,
                    "velocity": 0.3858267716535433,
                    "duration": 0.1807230000000004
                },
                {
                    "name": "G5",
                    "midi": 79,
                    "time": 44.81930400000006,
                    "velocity": 0.3858267716535433,
                    "duration": 0.1807230000000004
                },
                {
                    "name": "B5",
                    "midi": 83,
                    "time": 44.81930400000006,
                    "velocity": 0.3858267716535433,
                    "duration": 0.1807230000000004
                },
                {
                    "name": "A4",
                    "midi": 69,
                    "time": 45.00002700000006,
                    "velocity": 0.3858267716535433,
                    "duration": 0.1807230000000004
                },
                {
                    "name": "F5",
                    "midi": 77,
                    "time": 45.00002700000006,
                    "velocity": 0.3858267716535433,
                    "duration": 0.1807230000000004
                },
                {
                    "name": "A5",
                    "midi": 81,
                    "time": 45.00002700000006,
                    "velocity": 0.3858267716535433,
                    "duration": 0.1807230000000004
                },
                {
                    "name": "B4",
                    "midi": 71,
                    "time": 45.18075000000006,
                    "velocity": 0.3858267716535433,
                    "duration": 0.1807230000000004
                },
                {
                    "name": "G5",
                    "midi": 79,
                    "time": 45.18075000000006,
                    "velocity": 0.3858267716535433,
                    "duration": 0.1807230000000004
                },
                {
                    "name": "B5",
                    "midi": 83,
                    "time": 45.18075000000006,
                    "velocity": 0.3858267716535433,
                    "duration": 0.1807230000000004
                },
                {
                    "name": "C5",
                    "midi": 72,
                    "time": 45.36147300000006,
                    "velocity": 0.3858267716535433,
                    "duration": 0.1807230000000004
                },
                {
                    "name": "A5",
                    "midi": 81,
                    "time": 45.36147300000006,
                    "velocity": 0.3858267716535433,
                    "duration": 0.1807230000000004
                },
                {
                    "name": "C6",
                    "midi": 84,
                    "time": 45.36147300000006,
                    "velocity": 0.3858267716535433,
                    "duration": 0.1807230000000004
                },
                {
                    "name": "D5",
                    "midi": 74,
                    "time": 45.54219600000006,
                    "velocity": 0.3858267716535433,
                    "duration": 0.3614460000000008
                },
                {
                    "name": "B5",
                    "midi": 83,
                    "time": 45.54219600000006,
                    "velocity": 0.3858267716535433,
                    "duration": 0.3614460000000008
                },
                {
                    "name": "D6",
                    "midi": 86,
                    "time": 45.54219600000006,
                    "velocity": 0.3858267716535433,
                    "duration": 0.3614460000000008
                },
                {
                    "name": "A4",
                    "midi": 69,
                    "time": 45.90364200000006,
                    "velocity": 0.3858267716535433,
                    "duration": 0.1807230000000004
                },
                {
                    "name": "C5",
                    "midi": 72,
                    "time": 45.90364200000006,
                    "velocity": 0.3858267716535433,
                    "duration": 0.1807230000000004
                },
                {
                    "name": "G4",
                    "midi": 67,
                    "time": 46.08436500000006,
                    "velocity": 0.3858267716535433,
                    "duration": 0.1807230000000004
                },
                {
                    "name": "B4",
                    "midi": 71,
                    "time": 46.08436500000006,
                    "velocity": 0.3858267716535433,
                    "duration": 0.1807230000000004
                },
                {
                    "name": "F4",
                    "midi": 65,
                    "time": 46.26508800000006,
                    "velocity": 0.3858267716535433,
                    "duration": 0.3614460000000008
                },
                {
                    "name": "A4",
                    "midi": 69,
                    "time": 46.26508800000006,
                    "velocity": 0.3858267716535433,
                    "duration": 0.3614460000000008
                },
                {
                    "name": "G4",
                    "midi": 67,
                    "time": 46.62653400000006,
                    "velocity": 0.3858267716535433,
                    "duration": 0.1807230000000004
                },
                {
                    "name": "B4",
                    "midi": 71,
                    "time": 46.62653400000006,
                    "velocity": 0.3858267716535433,
                    "duration": 0.1807230000000004
                },
                {
                    "name": "A4",
                    "midi": 69,
                    "time": 46.807257000000064,
                    "velocity": 0.3858267716535433,
                    "duration": 0.1807230000000004
                },
                {
                    "name": "C5",
                    "midi": 72,
                    "time": 46.807257000000064,
                    "velocity": 0.3858267716535433,
                    "duration": 0.1807230000000004
                },
                {
                    "name": "B4",
                    "midi": 71,
                    "time": 46.987980000000064,
                    "velocity": 0.3858267716535433,
                    "duration": 0.1807230000000004
                },
                {
                    "name": "D5",
                    "midi": 74,
                    "time": 46.987980000000064,
                    "velocity": 0.3858267716535433,
                    "duration": 0.1807230000000004
                },
                {
                    "name": "C5",
                    "midi": 72,
                    "time": 47.349426000000065,
                    "velocity": 0.5905511811023622,
                    "duration": 0.1807230000000004
                },
                {
                    "name": "E5",
                    "midi": 76,
                    "time": 47.349426000000065,
                    "velocity": 0.5905511811023622,
                    "duration": 0.1807230000000004
                },
                {
                    "name": "D5",
                    "midi": 74,
                    "time": 47.530149000000065,
                    "velocity": 0.5905511811023622,
                    "duration": 0.1807230000000004
                },
                {
                    "name": "F5",
                    "midi": 77,
                    "time": 47.530149000000065,
                    "velocity": 0.5905511811023622,
                    "duration": 0.1807230000000004
                },
                {
                    "name": "E5",
                    "midi": 76,
                    "time": 47.710872000000066,
                    "velocity": 0.5905511811023622,
                    "duration": 0.5421690000000012
                },
                {
                    "name": "G5",
                    "midi": 79,
                    "time": 47.710872000000066,
                    "velocity": 0.5905511811023622,
                    "duration": 0.5421690000000012
                },
                {
                    "name": "D5",
                    "midi": 74,
                    "time": 48.25304100000007,
                    "velocity": 0.5905511811023622,
                    "duration": 0.1807230000000004
                },
                {
                    "name": "F5",
                    "midi": 77,
                    "time": 48.25304100000007,
                    "velocity": 0.5905511811023622,
                    "duration": 0.1807230000000004
                },
                {
                    "name": "C5",
                    "midi": 72,
                    "time": 48.43376400000007,
                    "velocity": 0.5905511811023622,
                    "duration": 0.1807230000000004
                },
                {
                    "name": "E5",
                    "midi": 76,
                    "time": 48.43376400000007,
                    "velocity": 0.5905511811023622,
                    "duration": 0.1807230000000004
                },
                {
                    "name": "B4",
                    "midi": 71,
                    "time": 48.61448700000007,
                    "velocity": 0.5905511811023622,
                    "duration": 0.1807230000000004
                },
                {
                    "name": "D5",
                    "midi": 74,
                    "time": 48.61448700000007,
                    "velocity": 0.5905511811023622,
                    "duration": 0.1807230000000004
                },
                {
                    "name": "C5",
                    "midi": 72,
                    "time": 48.79521000000007,
                    "velocity": 0.5905511811023622,
                    "duration": 0.1807230000000004
                },
                {
                    "name": "E5",
                    "midi": 76,
                    "time": 48.79521000000007,
                    "velocity": 0.5905511811023622,
                    "duration": 0.1807230000000004
                },
                {
                    "name": "D5",
                    "midi": 74,
                    "time": 48.97593300000007,
                    "velocity": 0.5905511811023622,
                    "duration": 0.1807230000000004
                },
                {
                    "name": "F5",
                    "midi": 77,
                    "time": 48.97593300000007,
                    "velocity": 0.5905511811023622,
                    "duration": 0.1807230000000004
                },
                {
                    "name": "E5",
                    "midi": 76,
                    "time": 49.15665600000007,
                    "velocity": 0.5905511811023622,
                    "duration": 0.3614460000000008
                },
                {
                    "name": "G5",
                    "midi": 79,
                    "time": 49.15665600000007,
                    "velocity": 0.5905511811023622,
                    "duration": 0.3614460000000008
                },
                {
                    "name": "D5",
                    "midi": 74,
                    "time": 49.51810200000007,
                    "velocity": 0.5905511811023622,
                    "duration": 0.1807230000000004
                },
                {
                    "name": "F5",
                    "midi": 77,
                    "time": 49.51810200000007,
                    "velocity": 0.5905511811023622,
                    "duration": 0.1807230000000004
                },
                {
                    "name": "C5",
                    "midi": 72,
                    "time": 49.69882500000007,
                    "velocity": 0.5905511811023622,
                    "duration": 0.1807230000000004
                },
                {
                    "name": "E5",
                    "midi": 76,
                    "time": 49.69882500000007,
                    "velocity": 0.5905511811023622,
                    "duration": 0.1807230000000004
                },
                {
                    "name": "B4",
                    "midi": 71,
                    "time": 49.87954800000007,
                    "velocity": 0.5905511811023622,
                    "duration": 0.3614460000000008
                },
                {
                    "name": "D5",
                    "midi": 74,
                    "time": 49.87954800000007,
                    "velocity": 0.5905511811023622,
                    "duration": 0.3614460000000008
                },
                {
                    "name": "C5",
                    "midi": 72,
                    "time": 50.24099400000007,
                    "velocity": 0.5905511811023622,
                    "duration": 0.1807230000000004
                },
                {
                    "name": "E5",
                    "midi": 76,
                    "time": 50.24099400000007,
                    "velocity": 0.5905511811023622,
                    "duration": 0.1807230000000004
                },
                {
                    "name": "D5",
                    "midi": 74,
                    "time": 50.42171700000007,
                    "velocity": 0.5905511811023622,
                    "duration": 0.1807230000000004
                },
                {
                    "name": "F5",
                    "midi": 77,
                    "time": 50.42171700000007,
                    "velocity": 0.5905511811023622,
                    "duration": 0.1807230000000004
                },
                {
                    "name": "E5",
                    "midi": 76,
                    "time": 50.60244000000007,
                    "velocity": 0.5905511811023622,
                    "duration": 0.3614460000000008
                },
                {
                    "name": "G5",
                    "midi": 79,
                    "time": 50.60244000000007,
                    "velocity": 0.5905511811023622,
                    "duration": 0.3614460000000008
                },
                {
                    "name": "C5",
                    "midi": 72,
                    "time": 50.96388600000007,
                    "velocity": 0.5905511811023622,
                    "duration": 0.1807230000000004
                },
                {
                    "name": "E5",
                    "midi": 76,
                    "time": 50.96388600000007,
                    "velocity": 0.5905511811023622,
                    "duration": 0.1807230000000004
                },
                {
                    "name": "D5",
                    "midi": 74,
                    "time": 51.144609000000074,
                    "velocity": 0.5905511811023622,
                    "duration": 0.1807230000000004
                },
                {
                    "name": "F5",
                    "midi": 77,
                    "time": 51.144609000000074,
                    "velocity": 0.5905511811023622,
                    "duration": 0.1807230000000004
                },
                {
                    "name": "E5",
                    "midi": 76,
                    "time": 51.325332000000074,
                    "velocity": 0.5905511811023622,
                    "duration": 0.5421690000000012
                },
                {
                    "name": "G5",
                    "midi": 79,
                    "time": 51.325332000000074,
                    "velocity": 0.5905511811023622,
                    "duration": 0.5421690000000012
                },
                {
                    "name": "D5",
                    "midi": 74,
                    "time": 51.867501000000075,
                    "velocity": 0.5905511811023622,
                    "duration": 0.1807230000000004
                },
                {
                    "name": "F5",
                    "midi": 77,
                    "time": 51.867501000000075,
                    "velocity": 0.5905511811023622,
                    "duration": 0.1807230000000004
                },
                {
                    "name": "C5",
                    "midi": 72,
                    "time": 52.048224000000076,
                    "velocity": 0.5905511811023622,
                    "duration": 0.1807230000000004
                },
                {
                    "name": "E5",
                    "midi": 76,
                    "time": 52.048224000000076,
                    "velocity": 0.5905511811023622,
                    "duration": 0.1807230000000004
                },
                {
                    "name": "B4",
                    "midi": 71,
                    "time": 52.228947000000076,
                    "velocity": 0.5905511811023622,
                    "duration": 0.1807230000000004
                },
                {
                    "name": "D5",
                    "midi": 74,
                    "time": 52.228947000000076,
                    "velocity": 0.5905511811023622,
                    "duration": 0.1807230000000004
                },
                {
                    "name": "E5",
                    "midi": 76,
                    "time": 52.40967000000008,
                    "velocity": 0.6929133858267716,
                    "duration": 0.1807230000000004
                },
                {
                    "name": "C6",
                    "midi": 84,
                    "time": 52.40967000000008,
                    "velocity": 0.6929133858267716,
                    "duration": 0.1807230000000004
                },
                {
                    "name": "E6",
                    "midi": 88,
                    "time": 52.40967000000008,
                    "velocity": 0.6929133858267716,
                    "duration": 0.1807230000000004
                },
                {
                    "name": "F5",
                    "midi": 77,
                    "time": 52.59039300000008,
                    "velocity": 0.6929133858267716,
                    "duration": 0.1807230000000004
                },
                {
                    "name": "D6",
                    "midi": 86,
                    "time": 52.59039300000008,
                    "velocity": 0.6929133858267716,
                    "duration": 0.1807230000000004
                },
                {
                    "name": "F6",
                    "midi": 89,
                    "time": 52.59039300000008,
                    "velocity": 0.6929133858267716,
                    "duration": 0.1807230000000004
                },
                {
                    "name": "F5",
                    "midi": 77,
                    "time": 52.77111600000008,
                    "velocity": 0.6929133858267716,
                    "duration": 0.5421690000000012
                },
                {
                    "name": "G5",
                    "midi": 79,
                    "time": 52.77111600000008,
                    "velocity": 0.6929133858267716,
                    "duration": 0.5421690000000012
                },
                {
                    "name": "E6",
                    "midi": 88,
                    "time": 52.77111600000008,
                    "velocity": 0.6929133858267716,
                    "duration": 0.5421690000000012
                },
                {
                    "name": "G6",
                    "midi": 91,
                    "time": 52.77111600000008,
                    "velocity": 0.6929133858267716,
                    "duration": 0.5421690000000012
                },
                {
                    "name": "F5",
                    "midi": 77,
                    "time": 53.31328500000008,
                    "velocity": 0.6929133858267716,
                    "duration": 0.1807230000000004
                },
                {
                    "name": "D6",
                    "midi": 86,
                    "time": 53.31328500000008,
                    "velocity": 0.6929133858267716,
                    "duration": 0.1807230000000004
                },
                {
                    "name": "F6",
                    "midi": 89,
                    "time": 53.31328500000008,
                    "velocity": 0.6929133858267716,
                    "duration": 0.1807230000000004
                },
                {
                    "name": "E5",
                    "midi": 76,
                    "time": 53.49400800000008,
                    "velocity": 0.6929133858267716,
                    "duration": 0.1807230000000004
                },
                {
                    "name": "C6",
                    "midi": 84,
                    "time": 53.49400800000008,
                    "velocity": 0.6929133858267716,
                    "duration": 0.1807230000000004
                },
                {
                    "name": "E6",
                    "midi": 88,
                    "time": 53.49400800000008,
                    "velocity": 0.6929133858267716,
                    "duration": 0.1807230000000004
                },
                {
                    "name": "D5",
                    "midi": 74,
                    "time": 53.67473100000008,
                    "velocity": 0.6929133858267716,
                    "duration": 0.1807230000000004
                },
                {
                    "name": "B5",
                    "midi": 83,
                    "time": 53.67473100000008,
                    "velocity": 0.6929133858267716,
                    "duration": 0.1807230000000004
                },
                {
                    "name": "D6",
                    "midi": 86,
                    "time": 53.67473100000008,
                    "velocity": 0.6929133858267716,
                    "duration": 0.1807230000000004
                },
                {
                    "name": "E5",
                    "midi": 76,
                    "time": 53.85545400000008,
                    "velocity": 0.6929133858267716,
                    "duration": 0.1807230000000004
                },
                {
                    "name": "C6",
                    "midi": 84,
                    "time": 53.85545400000008,
                    "velocity": 0.6929133858267716,
                    "duration": 0.1807230000000004
                },
                {
                    "name": "E6",
                    "midi": 88,
                    "time": 53.85545400000008,
                    "velocity": 0.6929133858267716,
                    "duration": 0.1807230000000004
                },
                {
                    "name": "F5",
                    "midi": 77,
                    "time": 54.03617700000008,
                    "velocity": 0.6929133858267716,
                    "duration": 0.1807230000000004
                },
                {
                    "name": "D6",
                    "midi": 86,
                    "time": 54.03617700000008,
                    "velocity": 0.6929133858267716,
                    "duration": 0.1807230000000004
                },
                {
                    "name": "F6",
                    "midi": 89,
                    "time": 54.03617700000008,
                    "velocity": 0.6929133858267716,
                    "duration": 0.1807230000000004
                },
                {
                    "name": "G5",
                    "midi": 79,
                    "time": 54.21690000000008,
                    "velocity": 0.8976377952755905,
                    "duration": 0.3614460000000008
                },
                {
                    "name": "A#5",
                    "midi": 82,
                    "time": 54.21690000000008,
                    "velocity": 0.8976377952755905,
                    "duration": 0.3614460000000008
                },
                {
                    "name": "D#6",
                    "midi": 87,
                    "time": 54.21690000000008,
                    "velocity": 0.8976377952755905,
                    "duration": 0.3614460000000008
                },
                {
                    "name": "G6",
                    "midi": 91,
                    "time": 54.21690000000008,
                    "velocity": 0.8976377952755905,
                    "duration": 0.3614460000000008
                },
                {
                    "name": "D#5",
                    "midi": 75,
                    "time": 57.01810650000008,
                    "velocity": 0.6929133858267716,
                    "duration": 0.029367487499996514
                },
                {
                    "name": "F5",
                    "midi": 77,
                    "time": 57.04747398750008,
                    "velocity": 0.6929133858267716,
                    "duration": 0.030873512500001254
                },
                {
                    "name": "F#5",
                    "midi": 78,
                    "time": 57.07834750000008,
                    "velocity": 0.6929133858267716,
                    "duration": 0.030120500000002437
                },
                {
                    "name": "A#4",
                    "midi": 70,
                    "time": 57.10846800000008,
                    "velocity": 0.6929133858267716,
                    "duration": 0.3614460000000008
                },
                {
                    "name": "D#5",
                    "midi": 75,
                    "time": 57.10846800000008,
                    "velocity": 0.6929133858267716,
                    "duration": 0.3614460000000008
                },
                {
                    "name": "G5",
                    "midi": 79,
                    "time": 57.10846800000008,
                    "velocity": 0.6929133858267716,
                    "duration": 0.3614460000000008
                },
                {
                    "name": "A4",
                    "midi": 69,
                    "time": 57.46991400000008,
                    "velocity": 0.6929133858267716,
                    "duration": 0.1807230000000004
                },
                {
                    "name": "D5",
                    "midi": 74,
                    "time": 57.46991400000008,
                    "velocity": 0.6929133858267716,
                    "duration": 0.1807230000000004
                },
                {
                    "name": "F5",
                    "midi": 77,
                    "time": 57.46991400000008,
                    "velocity": 0.6929133858267716,
                    "duration": 0.1807230000000004
                },
                {
                    "name": "A#4",
                    "midi": 70,
                    "time": 57.65063700000008,
                    "velocity": 0.6929133858267716,
                    "duration": 0.1807230000000004
                },
                {
                    "name": "D#5",
                    "midi": 75,
                    "time": 57.65063700000008,
                    "velocity": 0.6929133858267716,
                    "duration": 0.1807230000000004
                },
                {
                    "name": "G5",
                    "midi": 79,
                    "time": 57.65063700000008,
                    "velocity": 0.6929133858267716,
                    "duration": 0.1807230000000004
                },
                {
                    "name": "F4",
                    "midi": 65,
                    "time": 57.83136000000008,
                    "velocity": 0.6929133858267716,
                    "duration": 0.1807230000000004
                },
                {
                    "name": "A4",
                    "midi": 69,
                    "time": 57.83136000000008,
                    "velocity": 0.6929133858267716,
                    "duration": 0.1807230000000004
                },
                {
                    "name": "D5",
                    "midi": 74,
                    "time": 57.83136000000008,
                    "velocity": 0.6929133858267716,
                    "duration": 0.1807230000000004
                },
                {
                    "name": "G4",
                    "midi": 67,
                    "time": 58.01208300000008,
                    "velocity": 0.6929133858267716,
                    "duration": 0.1807230000000004
                },
                {
                    "name": "A#4",
                    "midi": 70,
                    "time": 58.01208300000008,
                    "velocity": 0.6929133858267716,
                    "duration": 0.1807230000000004
                },
                {
                    "name": "D#5",
                    "midi": 75,
                    "time": 58.01208300000008,
                    "velocity": 0.6929133858267716,
                    "duration": 0.1807230000000004
                },
                {
                    "name": "F4",
                    "midi": 65,
                    "time": 58.19280600000008,
                    "velocity": 0.6929133858267716,
                    "duration": 0.1807230000000004
                },
                {
                    "name": "A4",
                    "midi": 69,
                    "time": 58.19280600000008,
                    "velocity": 0.6929133858267716,
                    "duration": 0.1807230000000004
                },
                {
                    "name": "D5",
                    "midi": 74,
                    "time": 58.19280600000008,
                    "velocity": 0.6929133858267716,
                    "duration": 0.1807230000000004
                },
                {
                    "name": "A4",
                    "midi": 69,
                    "time": 58.37352900000008,
                    "velocity": 0.6929133858267716,
                    "duration": 0.1807230000000004
                },
                {
                    "name": "D5",
                    "midi": 74,
                    "time": 58.37352900000008,
                    "velocity": 0.6929133858267716,
                    "duration": 0.1807230000000004
                },
                {
                    "name": "F5",
                    "midi": 77,
                    "time": 58.37352900000008,
                    "velocity": 0.6929133858267716,
                    "duration": 0.1807230000000004
                },
                {
                    "name": "G4",
                    "midi": 67,
                    "time": 58.55425200000008,
                    "velocity": 0.6929133858267716,
                    "duration": 0.1807230000000004
                },
                {
                    "name": "A#4",
                    "midi": 70,
                    "time": 58.55425200000008,
                    "velocity": 0.6929133858267716,
                    "duration": 0.1807230000000004
                },
                {
                    "name": "D#5",
                    "midi": 75,
                    "time": 58.55425200000008,
                    "velocity": 0.6929133858267716,
                    "duration": 0.1807230000000004
                },
                {
                    "name": "A#4",
                    "midi": 70,
                    "time": 58.734975000000084,
                    "velocity": 0.6929133858267716,
                    "duration": 0.1807230000000004
                },
                {
                    "name": "D#5",
                    "midi": 75,
                    "time": 58.734975000000084,
                    "velocity": 0.6929133858267716,
                    "duration": 0.1807230000000004
                },
                {
                    "name": "G5",
                    "midi": 79,
                    "time": 58.734975000000084,
                    "velocity": 0.6929133858267716,
                    "duration": 0.1807230000000004
                },
                {
                    "name": "F4",
                    "midi": 65,
                    "time": 58.915698000000084,
                    "velocity": 0.6929133858267716,
                    "duration": 0.1807230000000004
                },
                {
                    "name": "A#4",
                    "midi": 70,
                    "time": 58.915698000000084,
                    "velocity": 0.6929133858267716,
                    "duration": 0.1807230000000004
                },
                {
                    "name": "D5",
                    "midi": 74,
                    "time": 58.915698000000084,
                    "velocity": 0.6929133858267716,
                    "duration": 0.1807230000000004
                },
                {
                    "name": "G4",
                    "midi": 67,
                    "time": 59.096421000000085,
                    "velocity": 0.6929133858267716,
                    "duration": 0.1807230000000004
                },
                {
                    "name": "C5",
                    "midi": 72,
                    "time": 59.096421000000085,
                    "velocity": 0.6929133858267716,
                    "duration": 0.1807230000000004
                },
                {
                    "name": "D#5",
                    "midi": 75,
                    "time": 59.096421000000085,
                    "velocity": 0.6929133858267716,
                    "duration": 0.1807230000000004
                },
                {
                    "name": "F4",
                    "midi": 65,
                    "time": 59.277144000000085,
                    "velocity": 0.6929133858267716,
                    "duration": 0.1807230000000004
                },
                {
                    "name": "A4",
                    "midi": 69,
                    "time": 59.277144000000085,
                    "velocity": 0.6929133858267716,
                    "duration": 0.1807230000000004
                },
                {
                    "name": "D5",
                    "midi": 74,
                    "time": 59.277144000000085,
                    "velocity": 0.6929133858267716,
                    "duration": 0.1807230000000004
                },
                {
                    "name": "A4",
                    "midi": 69,
                    "time": 59.457867000000086,
                    "velocity": 0.6929133858267716,
                    "duration": 0.1807230000000004
                },
                {
                    "name": "D5",
                    "midi": 74,
                    "time": 59.457867000000086,
                    "velocity": 0.6929133858267716,
                    "duration": 0.1807230000000004
                },
                {
                    "name": "F5",
                    "midi": 77,
                    "time": 59.457867000000086,
                    "velocity": 0.6929133858267716,
                    "duration": 0.1807230000000004
                },
                {
                    "name": "A#4",
                    "midi": 70,
                    "time": 59.638590000000086,
                    "velocity": 0.6929133858267716,
                    "duration": 0.3614460000000008
                },
                {
                    "name": "D#5",
                    "midi": 75,
                    "time": 59.638590000000086,
                    "velocity": 0.6929133858267716,
                    "duration": 0.3614460000000008
                },
                {
                    "name": "G5",
                    "midi": 79,
                    "time": 59.638590000000086,
                    "velocity": 0.6929133858267716,
                    "duration": 0.3614460000000008
                },
                {
                    "name": "A4",
                    "midi": 69,
                    "time": 60.00003600000009,
                    "velocity": 0.6929133858267716,
                    "duration": 0.1807230000000004
                },
                {
                    "name": "D5",
                    "midi": 74,
                    "time": 60.00003600000009,
                    "velocity": 0.6929133858267716,
                    "duration": 0.1807230000000004
                },
                {
                    "name": "F5",
                    "midi": 77,
                    "time": 60.00003600000009,
                    "velocity": 0.6929133858267716,
                    "duration": 0.1807230000000004
                },
                {
                    "name": "A#4",
                    "midi": 70,
                    "time": 60.18075900000009,
                    "velocity": 0.6929133858267716,
                    "duration": 0.1807230000000004
                },
                {
                    "name": "D#5",
                    "midi": 75,
                    "time": 60.18075900000009,
                    "velocity": 0.6929133858267716,
                    "duration": 0.1807230000000004
                },
                {
                    "name": "G5",
                    "midi": 79,
                    "time": 60.18075900000009,
                    "velocity": 0.6929133858267716,
                    "duration": 0.1807230000000004
                },
                {
                    "name": "F4",
                    "midi": 65,
                    "time": 60.36148200000009,
                    "velocity": 0.6929133858267716,
                    "duration": 0.1807230000000004
                },
                {
                    "name": "A4",
                    "midi": 69,
                    "time": 60.36148200000009,
                    "velocity": 0.6929133858267716,
                    "duration": 0.1807230000000004
                },
                {
                    "name": "D5",
                    "midi": 74,
                    "time": 60.36148200000009,
                    "velocity": 0.6929133858267716,
                    "duration": 0.1807230000000004
                },
                {
                    "name": "G4",
                    "midi": 67,
                    "time": 60.54220500000009,
                    "velocity": 0.6929133858267716,
                    "duration": 0.1807230000000004
                },
                {
                    "name": "A#4",
                    "midi": 70,
                    "time": 60.54220500000009,
                    "velocity": 0.6929133858267716,
                    "duration": 0.1807230000000004
                },
                {
                    "name": "D#5",
                    "midi": 75,
                    "time": 60.54220500000009,
                    "velocity": 0.6929133858267716,
                    "duration": 0.1807230000000004
                },
                {
                    "name": "F4",
                    "midi": 65,
                    "time": 60.72292800000009,
                    "velocity": 0.6929133858267716,
                    "duration": 0.1807230000000004
                },
                {
                    "name": "A4",
                    "midi": 69,
                    "time": 60.72292800000009,
                    "velocity": 0.6929133858267716,
                    "duration": 0.1807230000000004
                },
                {
                    "name": "D5",
                    "midi": 74,
                    "time": 60.72292800000009,
                    "velocity": 0.6929133858267716,
                    "duration": 0.1807230000000004
                },
                {
                    "name": "A4",
                    "midi": 69,
                    "time": 60.90365100000009,
                    "velocity": 0.6929133858267716,
                    "duration": 0.1807230000000004
                },
                {
                    "name": "D5",
                    "midi": 74,
                    "time": 60.90365100000009,
                    "velocity": 0.6929133858267716,
                    "duration": 0.1807230000000004
                },
                {
                    "name": "F5",
                    "midi": 77,
                    "time": 60.90365100000009,
                    "velocity": 0.6929133858267716,
                    "duration": 0.1807230000000004
                },
                {
                    "name": "D#4",
                    "midi": 63,
                    "time": 61.08437400000009,
                    "velocity": 0.8976377952755905,
                    "duration": 0.3614460000000008
                },
                {
                    "name": "G#4",
                    "midi": 68,
                    "time": 61.08437400000009,
                    "velocity": 0.8976377952755905,
                    "duration": 0.3614460000000008
                },
                {
                    "name": "C5",
                    "midi": 72,
                    "time": 61.08437400000009,
                    "velocity": 0.8976377952755905,
                    "duration": 0.3614460000000008
                },
                {
                    "name": "D4",
                    "midi": 62,
                    "time": 61.44582000000009,
                    "velocity": 0.6929133858267716,
                    "duration": 0.3614460000000008
                },
                {
                    "name": "F4",
                    "midi": 65,
                    "time": 61.44582000000009,
                    "velocity": 0.6929133858267716,
                    "duration": 0.3614460000000008
                },
                {
                    "name": "A4",
                    "midi": 69,
                    "time": 61.44582000000009,
                    "velocity": 0.6929133858267716,
                    "duration": 0.3614460000000008
                },
                {
                    "name": "C6",
                    "midi": 84,
                    "time": 61.80726600000009,
                    "velocity": 0.8976377952755905,
                    "duration": 0.7228920000000016
                },
                {
                    "name": "D#6",
                    "midi": 87,
                    "time": 61.80726600000009,
                    "velocity": 0.8976377952755905,
                    "duration": 0.7228920000000016
                },
                {
                    "name": "G#6",
                    "midi": 92,
                    "time": 61.80726600000009,
                    "velocity": 0.8976377952755905,
                    "duration": 0.7228920000000016
                },
                {
                    "name": "C7",
                    "midi": 96,
                    "time": 61.80726600000009,
                    "velocity": 0.8976377952755905,
                    "duration": 0.7228920000000016
                },
                {
                    "name": "D4",
                    "midi": 62,
                    "time": 62.89160400000009,
                    "velocity": 0.6929133858267716,
                    "duration": 0.3614460000000008
                },
                {
                    "name": "F4",
                    "midi": 65,
                    "time": 62.89160400000009,
                    "velocity": 0.6929133858267716,
                    "duration": 0.3614460000000008
                },
                {
                    "name": "A4",
                    "midi": 69,
                    "time": 62.89160400000009,
                    "velocity": 0.6929133858267716,
                    "duration": 0.3614460000000008
                },
                {
                    "name": "D#4",
                    "midi": 63,
                    "time": 63.253050000000094,
                    "velocity": 0.6929133858267716,
                    "duration": 0.1807230000000004
                },
                {
                    "name": "G#4",
                    "midi": 68,
                    "time": 63.253050000000094,
                    "velocity": 0.6929133858267716,
                    "duration": 0.1807230000000004
                },
                {
                    "name": "C5",
                    "midi": 72,
                    "time": 63.253050000000094,
                    "velocity": 0.6929133858267716,
                    "duration": 0.1807230000000004
                },
                {
                    "name": "F4",
                    "midi": 65,
                    "time": 63.433773000000095,
                    "velocity": 0.6929133858267716,
                    "duration": 0.1807230000000004
                },
                {
                    "name": "A4",
                    "midi": 69,
                    "time": 63.433773000000095,
                    "velocity": 0.6929133858267716,
                    "duration": 0.1807230000000004
                },
                {
                    "name": "D5",
                    "midi": 74,
                    "time": 63.433773000000095,
                    "velocity": 0.6929133858267716,
                    "duration": 0.1807230000000004
                },
                {
                    "name": "D4",
                    "midi": 62,
                    "time": 63.614496000000095,
                    "velocity": 0.6929133858267716,
                    "duration": 0.1807230000000004
                },
                {
                    "name": "F4",
                    "midi": 65,
                    "time": 63.614496000000095,
                    "velocity": 0.6929133858267716,
                    "duration": 0.1807230000000004
                },
                {
                    "name": "A4",
                    "midi": 69,
                    "time": 63.614496000000095,
                    "velocity": 0.6929133858267716,
                    "duration": 0.1807230000000004
                },
                {
                    "name": "D#4",
                    "midi": 63,
                    "time": 63.795219000000095,
                    "velocity": 0.6929133858267716,
                    "duration": 0.1807230000000004
                },
                {
                    "name": "G4",
                    "midi": 67,
                    "time": 63.795219000000095,
                    "velocity": 0.6929133858267716,
                    "duration": 0.1807230000000004
                },
                {
                    "name": "A#4",
                    "midi": 70,
                    "time": 63.795219000000095,
                    "velocity": 0.6929133858267716,
                    "duration": 0.1807230000000004
                },
                {
                    "name": "C6",
                    "midi": 84,
                    "time": 63.975942000000096,
                    "velocity": 0.8976377952755905,
                    "duration": 0.7228919999999945
                },
                {
                    "name": "D#6",
                    "midi": 87,
                    "time": 63.975942000000096,
                    "velocity": 0.8976377952755905,
                    "duration": 0.7228919999999945
                },
                {
                    "name": "G#6",
                    "midi": 92,
                    "time": 63.975942000000096,
                    "velocity": 0.8976377952755905,
                    "duration": 0.7228919999999945
                },
                {
                    "name": "C7",
                    "midi": 96,
                    "time": 63.975942000000096,
                    "velocity": 0.8976377952755905,
                    "duration": 0.7228919999999945
                },
                {
                    "name": "A4",
                    "midi": 69,
                    "time": 65.06028000000009,
                    "velocity": 0.6929133858267716,
                    "duration": 0.3614460000000008
                },
                {
                    "name": "D5",
                    "midi": 74,
                    "time": 65.06028000000009,
                    "velocity": 0.6929133858267716,
                    "duration": 0.3614460000000008
                },
                {
                    "name": "F5",
                    "midi": 77,
                    "time": 65.06028000000009,
                    "velocity": 0.6929133858267716,
                    "duration": 0.3614460000000008
                },
                {
                    "name": "A5",
                    "midi": 81,
                    "time": 65.06028000000009,
                    "velocity": 0.6929133858267716,
                    "duration": 0.3614460000000008
                },
                {
                    "name": "C5",
                    "midi": 72,
                    "time": 65.42172600000009,
                    "velocity": 0.6929133858267716,
                    "duration": 0.3614460000000008
                },
                {
                    "name": "D#5",
                    "midi": 75,
                    "time": 65.42172600000009,
                    "velocity": 0.6929133858267716,
                    "duration": 0.3614460000000008
                },
                {
                    "name": "G#5",
                    "midi": 80,
                    "time": 65.42172600000009,
                    "velocity": 0.6929133858267716,
                    "duration": 0.3614460000000008
                },
                {
                    "name": "C6",
                    "midi": 84,
                    "time": 65.42172600000009,
                    "velocity": 0.6929133858267716,
                    "duration": 0.3614460000000008
                },
                {
                    "name": "A4",
                    "midi": 69,
                    "time": 65.78317200000009,
                    "velocity": 0.6929133858267716,
                    "duration": 0.3614460000000008
                },
                {
                    "name": "D5",
                    "midi": 74,
                    "time": 65.78317200000009,
                    "velocity": 0.6929133858267716,
                    "duration": 0.3614460000000008
                },
                {
                    "name": "F5",
                    "midi": 77,
                    "time": 65.78317200000009,
                    "velocity": 0.6929133858267716,
                    "duration": 0.3614460000000008
                },
                {
                    "name": "A5",
                    "midi": 81,
                    "time": 65.78317200000009,
                    "velocity": 0.6929133858267716,
                    "duration": 0.3614460000000008
                },
                {
                    "name": "D4",
                    "midi": 62,
                    "time": 66.5060640000001,
                    "velocity": 0.6929133858267716,
                    "duration": 0.3614460000000008
                },
                {
                    "name": "F4",
                    "midi": 65,
                    "time": 66.5060640000001,
                    "velocity": 0.6929133858267716,
                    "duration": 0.3614460000000008
                },
                {
                    "name": "A4",
                    "midi": 69,
                    "time": 66.5060640000001,
                    "velocity": 0.6929133858267716,
                    "duration": 0.3614460000000008
                },
                {
                    "name": "D#4",
                    "midi": 63,
                    "time": 66.8675100000001,
                    "velocity": 0.6929133858267716,
                    "duration": 0.1807230000000004
                },
                {
                    "name": "G#4",
                    "midi": 68,
                    "time": 66.8675100000001,
                    "velocity": 0.6929133858267716,
                    "duration": 0.1807230000000004
                },
                {
                    "name": "C5",
                    "midi": 72,
                    "time": 66.8675100000001,
                    "velocity": 0.6929133858267716,
                    "duration": 0.1807230000000004
                },
                {
                    "name": "F4",
                    "midi": 65,
                    "time": 67.0482330000001,
                    "velocity": 0.6929133858267716,
                    "duration": 0.1807230000000004
                },
                {
                    "name": "A4",
                    "midi": 69,
                    "time": 67.0482330000001,
                    "velocity": 0.6929133858267716,
                    "duration": 0.1807230000000004
                },
                {
                    "name": "D5",
                    "midi": 74,
                    "time": 67.0482330000001,
                    "velocity": 0.6929133858267716,
                    "duration": 0.1807230000000004
                },
                {
                    "name": "D4",
                    "midi": 62,
                    "time": 67.2289560000001,
                    "velocity": 0.6929133858267716,
                    "duration": 0.1807230000000004
                },
                {
                    "name": "F4",
                    "midi": 65,
                    "time": 67.2289560000001,
                    "velocity": 0.6929133858267716,
                    "duration": 0.1807230000000004
                },
                {
                    "name": "A4",
                    "midi": 69,
                    "time": 67.2289560000001,
                    "velocity": 0.6929133858267716,
                    "duration": 0.1807230000000004
                },
                {
                    "name": "D#4",
                    "midi": 63,
                    "time": 67.4096790000001,
                    "velocity": 0.6929133858267716,
                    "duration": 0.1807230000000004
                },
                {
                    "name": "G4",
                    "midi": 67,
                    "time": 67.4096790000001,
                    "velocity": 0.6929133858267716,
                    "duration": 0.1807230000000004
                },
                {
                    "name": "A#4",
                    "midi": 70,
                    "time": 67.4096790000001,
                    "velocity": 0.6929133858267716,
                    "duration": 0.1807230000000004
                },
                {
                    "name": "C5",
                    "midi": 72,
                    "time": 67.5904020000001,
                    "velocity": 0.6929133858267716,
                    "duration": 0.3614460000000008
                },
                {
                    "name": "D#5",
                    "midi": 75,
                    "time": 67.5904020000001,
                    "velocity": 0.6929133858267716,
                    "duration": 0.3614460000000008
                },
                {
                    "name": "G#5",
                    "midi": 80,
                    "time": 67.5904020000001,
                    "velocity": 0.6929133858267716,
                    "duration": 0.3614460000000008
                },
                {
                    "name": "C6",
                    "midi": 84,
                    "time": 67.5904020000001,
                    "velocity": 0.6929133858267716,
                    "duration": 0.3614460000000008
                },
                {
                    "name": "A4",
                    "midi": 69,
                    "time": 67.9518480000001,
                    "velocity": 0.6929133858267716,
                    "duration": 0.3614460000000008
                },
                {
                    "name": "D5",
                    "midi": 74,
                    "time": 67.9518480000001,
                    "velocity": 0.6929133858267716,
                    "duration": 0.3614460000000008
                },
                {
                    "name": "F5",
                    "midi": 77,
                    "time": 67.9518480000001,
                    "velocity": 0.6929133858267716,
                    "duration": 0.3614460000000008
                },
                {
                    "name": "A5",
                    "midi": 81,
                    "time": 67.9518480000001,
                    "velocity": 0.6929133858267716,
                    "duration": 0.3614460000000008
                },
                {
                    "name": "D4",
                    "midi": 62,
                    "time": 68.6747400000001,
                    "velocity": 0.6929133858267716,
                    "duration": 0.3614460000000008
                },
                {
                    "name": "F4",
                    "midi": 65,
                    "time": 68.6747400000001,
                    "velocity": 0.6929133858267716,
                    "duration": 0.3614460000000008
                },
                {
                    "name": "A4",
                    "midi": 69,
                    "time": 68.6747400000001,
                    "velocity": 0.6929133858267716,
                    "duration": 0.3614460000000008
                },
                {
                    "name": "D#4",
                    "midi": 63,
                    "time": 69.0361860000001,
                    "velocity": 0.6929133858267716,
                    "duration": 0.1807230000000004
                },
                {
                    "name": "G#4",
                    "midi": 68,
                    "time": 69.0361860000001,
                    "velocity": 0.6929133858267716,
                    "duration": 0.1807230000000004
                },
                {
                    "name": "C5",
                    "midi": 72,
                    "time": 69.0361860000001,
                    "velocity": 0.6929133858267716,
                    "duration": 0.1807230000000004
                },
                {
                    "name": "F4",
                    "midi": 65,
                    "time": 69.2169090000001,
                    "velocity": 0.6929133858267716,
                    "duration": 0.1807230000000004
                },
                {
                    "name": "A4",
                    "midi": 69,
                    "time": 69.2169090000001,
                    "velocity": 0.6929133858267716,
                    "duration": 0.1807230000000004
                },
                {
                    "name": "D5",
                    "midi": 74,
                    "time": 69.2169090000001,
                    "velocity": 0.6929133858267716,
                    "duration": 0.1807230000000004
                },
                {
                    "name": "D4",
                    "midi": 62,
                    "time": 69.3976320000001,
                    "velocity": 0.6929133858267716,
                    "duration": 0.1807230000000004
                },
                {
                    "name": "F4",
                    "midi": 65,
                    "time": 69.3976320000001,
                    "velocity": 0.6929133858267716,
                    "duration": 0.1807230000000004
                },
                {
                    "name": "A4",
                    "midi": 69,
                    "time": 69.3976320000001,
                    "velocity": 0.6929133858267716,
                    "duration": 0.1807230000000004
                },
                {
                    "name": "D#4",
                    "midi": 63,
                    "time": 69.5783550000001,
                    "velocity": 0.6929133858267716,
                    "duration": 0.1807230000000004
                },
                {
                    "name": "G4",
                    "midi": 67,
                    "time": 69.5783550000001,
                    "velocity": 0.6929133858267716,
                    "duration": 0.1807230000000004
                },
                {
                    "name": "A#4",
                    "midi": 70,
                    "time": 69.5783550000001,
                    "velocity": 0.6929133858267716,
                    "duration": 0.1807230000000004
                },
                {
                    "name": "D#4",
                    "midi": 63,
                    "time": 69.7590780000001,
                    "velocity": 0.6929133858267716,
                    "duration": 0.3614460000000008
                },
                {
                    "name": "G#4",
                    "midi": 68,
                    "time": 69.7590780000001,
                    "velocity": 0.6929133858267716,
                    "duration": 0.3614460000000008
                },
                {
                    "name": "C5",
                    "midi": 72,
                    "time": 69.7590780000001,
                    "velocity": 0.6929133858267716,
                    "duration": 0.3614460000000008
                },
                {
                    "name": "D4",
                    "midi": 62,
                    "time": 70.1205240000001,
                    "velocity": 0.6929133858267716,
                    "duration": 0.3614460000000008
                },
                {
                    "name": "F4",
                    "midi": 65,
                    "time": 70.1205240000001,
                    "velocity": 0.6929133858267716,
                    "duration": 0.3614460000000008
                },
                {
                    "name": "A4",
                    "midi": 69,
                    "time": 70.1205240000001,
                    "velocity": 0.6929133858267716,
                    "duration": 0.3614460000000008
                },
                {
                    "name": "D#4",
                    "midi": 63,
                    "time": 70.4819700000001,
                    "velocity": 0.6929133858267716,
                    "duration": 0.1807230000000004
                },
                {
                    "name": "G#4",
                    "midi": 68,
                    "time": 70.4819700000001,
                    "velocity": 0.6929133858267716,
                    "duration": 0.1807230000000004
                },
                {
                    "name": "C5",
                    "midi": 72,
                    "time": 70.4819700000001,
                    "velocity": 0.6929133858267716,
                    "duration": 0.1807230000000004
                },
                {
                    "name": "F4",
                    "midi": 65,
                    "time": 70.6626930000001,
                    "velocity": 0.6929133858267716,
                    "duration": 0.1807230000000004
                },
                {
                    "name": "A4",
                    "midi": 69,
                    "time": 70.6626930000001,
                    "velocity": 0.6929133858267716,
                    "duration": 0.1807230000000004
                },
                {
                    "name": "D5",
                    "midi": 74,
                    "time": 70.6626930000001,
                    "velocity": 0.6929133858267716,
                    "duration": 0.1807230000000004
                },
                {
                    "name": "D4",
                    "midi": 62,
                    "time": 70.8434160000001,
                    "velocity": 0.6929133858267716,
                    "duration": 0.1807230000000004
                },
                {
                    "name": "F4",
                    "midi": 65,
                    "time": 70.8434160000001,
                    "velocity": 0.6929133858267716,
                    "duration": 0.1807230000000004
                },
                {
                    "name": "A4",
                    "midi": 69,
                    "time": 70.8434160000001,
                    "velocity": 0.6929133858267716,
                    "duration": 0.1807230000000004
                },
                {
                    "name": "D#4",
                    "midi": 63,
                    "time": 71.0241390000001,
                    "velocity": 0.6929133858267716,
                    "duration": 0.1807230000000004
                },
                {
                    "name": "G4",
                    "midi": 67,
                    "time": 71.0241390000001,
                    "velocity": 0.6929133858267716,
                    "duration": 0.1807230000000004
                },
                {
                    "name": "A#4",
                    "midi": 70,
                    "time": 71.0241390000001,
                    "velocity": 0.6929133858267716,
                    "duration": 0.1807230000000004
                },
                {
                    "name": "D4",
                    "midi": 62,
                    "time": 71.2048620000001,
                    "velocity": 0.6929133858267716,
                    "duration": 0.1807230000000004
                },
                {
                    "name": "F4",
                    "midi": 65,
                    "time": 71.2048620000001,
                    "velocity": 0.6929133858267716,
                    "duration": 0.1807230000000004
                },
                {
                    "name": "A4",
                    "midi": 69,
                    "time": 71.2048620000001,
                    "velocity": 0.6929133858267716,
                    "duration": 0.1807230000000004
                },
                {
                    "name": "F4",
                    "midi": 65,
                    "time": 71.3855850000001,
                    "velocity": 0.6929133858267716,
                    "duration": 0.1807230000000004
                },
                {
                    "name": "A4",
                    "midi": 69,
                    "time": 71.3855850000001,
                    "velocity": 0.6929133858267716,
                    "duration": 0.1807230000000004
                },
                {
                    "name": "D5",
                    "midi": 74,
                    "time": 71.3855850000001,
                    "velocity": 0.6929133858267716,
                    "duration": 0.1807230000000004
                },
                {
                    "name": "D#4",
                    "midi": 63,
                    "time": 71.5663080000001,
                    "velocity": 0.6929133858267716,
                    "duration": 0.3614460000000008
                },
                {
                    "name": "G#4",
                    "midi": 68,
                    "time": 71.5663080000001,
                    "velocity": 0.6929133858267716,
                    "duration": 0.3614460000000008
                },
                {
                    "name": "C5",
                    "midi": 72,
                    "time": 71.5663080000001,
                    "velocity": 0.6929133858267716,
                    "duration": 0.3614460000000008
                },
                {
                    "name": "D4",
                    "midi": 62,
                    "time": 71.9277540000001,
                    "velocity": 0.6929133858267716,
                    "duration": 0.1807230000000004
                },
                {
                    "name": "F4",
                    "midi": 65,
                    "time": 71.9277540000001,
                    "velocity": 0.6929133858267716,
                    "duration": 0.1807230000000004
                },
                {
                    "name": "A4",
                    "midi": 69,
                    "time": 71.9277540000001,
                    "velocity": 0.6929133858267716,
                    "duration": 0.1807230000000004
                },
                {
                    "name": "D#4",
                    "midi": 63,
                    "time": 72.10847700000011,
                    "velocity": 0.6929133858267716,
                    "duration": 0.1807230000000004
                },
                {
                    "name": "G4",
                    "midi": 67,
                    "time": 72.10847700000011,
                    "velocity": 0.6929133858267716,
                    "duration": 0.1807230000000004
                },
                {
                    "name": "A#4",
                    "midi": 70,
                    "time": 72.10847700000011,
                    "velocity": 0.6929133858267716,
                    "duration": 0.1807230000000004
                },
                {
                    "name": "D4",
                    "midi": 62,
                    "time": 72.28920000000011,
                    "velocity": 0.6929133858267716,
                    "duration": 0.1807230000000004
                },
                {
                    "name": "F4",
                    "midi": 65,
                    "time": 72.28920000000011,
                    "velocity": 0.6929133858267716,
                    "duration": 0.1807230000000004
                },
                {
                    "name": "A4",
                    "midi": 69,
                    "time": 72.28920000000011,
                    "velocity": 0.6929133858267716,
                    "duration": 0.1807230000000004
                },
                {
                    "name": "F4",
                    "midi": 65,
                    "time": 72.46992300000011,
                    "velocity": 0.6929133858267716,
                    "duration": 0.1807230000000004
                },
                {
                    "name": "A4",
                    "midi": 69,
                    "time": 72.46992300000011,
                    "velocity": 0.6929133858267716,
                    "duration": 0.1807230000000004
                },
                {
                    "name": "D5",
                    "midi": 74,
                    "time": 72.46992300000011,
                    "velocity": 0.6929133858267716,
                    "duration": 0.1807230000000004
                },
                {
                    "name": "D#4",
                    "midi": 63,
                    "time": 72.65064600000011,
                    "velocity": 0.6929133858267716,
                    "duration": 0.3614460000000008
                },
                {
                    "name": "G#4",
                    "midi": 68,
                    "time": 72.65064600000011,
                    "velocity": 0.6929133858267716,
                    "duration": 0.3614460000000008
                },
                {
                    "name": "C5",
                    "midi": 72,
                    "time": 72.65064600000011,
                    "velocity": 0.6929133858267716,
                    "duration": 0.3614460000000008
                },
                {
                    "name": "D4",
                    "midi": 62,
                    "time": 73.01209200000011,
                    "velocity": 0.6929133858267716,
                    "duration": 0.7228920000000016
                },
                {
                    "name": "F4",
                    "midi": 65,
                    "time": 73.01209200000011,
                    "velocity": 0.6929133858267716,
                    "duration": 0.7228920000000016
                },
                {
                    "name": "A4",
                    "midi": 69,
                    "time": 73.01209200000011,
                    "velocity": 0.6929133858267716,
                    "duration": 0.7228920000000016
                },
                {
                    "name": "A4",
                    "midi": 69,
                    "time": 74.09643000000011,
                    "velocity": 0.6929133858267716,
                    "duration": 0.3614460000000008
                },
                {
                    "name": "D5",
                    "midi": 74,
                    "time": 74.09643000000011,
                    "velocity": 0.6929133858267716,
                    "duration": 0.3614460000000008
                },
                {
                    "name": "F5",
                    "midi": 77,
                    "time": 74.09643000000011,
                    "velocity": 0.6929133858267716,
                    "duration": 0.3614460000000008
                },
                {
                    "name": "A5",
                    "midi": 81,
                    "time": 74.09643000000011,
                    "velocity": 0.6929133858267716,
                    "duration": 0.3614460000000008
                },
                {
                    "name": "A4",
                    "midi": 69,
                    "time": 74.81932200000011,
                    "velocity": 0.6929133858267716,
                    "duration": 0.3614460000000008
                },
                {
                    "name": "D5",
                    "midi": 74,
                    "time": 74.81932200000011,
                    "velocity": 0.6929133858267716,
                    "duration": 0.3614460000000008
                },
                {
                    "name": "F5",
                    "midi": 77,
                    "time": 74.81932200000011,
                    "velocity": 0.6929133858267716,
                    "duration": 0.3614460000000008
                },
                {
                    "name": "A5",
                    "midi": 81,
                    "time": 74.81932200000011,
                    "velocity": 0.6929133858267716,
                    "duration": 0.3614460000000008
                },
                {
                    "name": "C4",
                    "midi": 60,
                    "time": 75.18076800000011,
                    "velocity": 0.6929133858267716,
                    "duration": 0.060241000000004874
                },
                {
                    "name": "F4",
                    "midi": 65,
                    "time": 75.24100900000012,
                    "velocity": 0.6929133858267716,
                    "duration": 0.059487987500006057
                },
                {
                    "name": "A4",
                    "midi": 69,
                    "time": 75.30049698750013,
                    "velocity": 0.6929133858267716,
                    "duration": 0.06099401250000369
                },
                {
                    "name": "B4",
                    "midi": 71,
                    "time": 75.36149100000013,
                    "velocity": 0.6929133858267716,
                    "duration": 0.060241000000004874
                },
                {
                    "name": "C5",
                    "midi": 72,
                    "time": 75.42173200000013,
                    "velocity": 0.6929133858267716,
                    "duration": 0.059487987500006057
                },
                {
                    "name": "F5",
                    "midi": 77,
                    "time": 75.48121998750014,
                    "velocity": 0.6929133858267716,
                    "duration": 0.06099401250000369
                },
                {
                    "name": "A5",
                    "midi": 81,
                    "time": 75.54221400000014,
                    "velocity": 0.6929133858267716,
                    "duration": 0.060241000000004874
                },
                {
                    "name": "B5",
                    "midi": 83,
                    "time": 75.60245500000015,
                    "velocity": 0.6929133858267716,
                    "duration": 0.059487987500006057
                },
                {
                    "name": "C6",
                    "midi": 84,
                    "time": 75.66194298750015,
                    "velocity": 0.6929133858267716,
                    "duration": 0.06099401250000369
                },
                {
                    "name": "F6",
                    "midi": 89,
                    "time": 75.72293700000016,
                    "velocity": 0.6929133858267716,
                    "duration": 0.060241000000004874
                },
                {
                    "name": "A6",
                    "midi": 93,
                    "time": 75.78317800000016,
                    "velocity": 0.6929133858267716,
                    "duration": 0.059487987500006057
                },
                {
                    "name": "B6",
                    "midi": 95,
                    "time": 75.84266598750017,
                    "velocity": 0.6929133858267716,
                    "duration": 0.06099401250000369
                },
                {
                    "name": "C6",
                    "midi": 84,
                    "time": 75.90366000000017,
                    "velocity": 0.6929133858267716,
                    "duration": 0.060241000000004874
                },
                {
                    "name": "F6",
                    "midi": 89,
                    "time": 75.90366000000017,
                    "velocity": 0.6929133858267716,
                    "duration": 0.060241000000004874
                },
                {
                    "name": "A6",
                    "midi": 93,
                    "time": 75.90366000000017,
                    "velocity": 0.6929133858267716,
                    "duration": 0.060241000000004874
                },
                {
                    "name": "B6",
                    "midi": 95,
                    "time": 75.96390100000018,
                    "velocity": 0.6929133858267716,
                    "duration": 0.059487987500006057
                },
                {
                    "name": "C6",
                    "midi": 84,
                    "time": 76.02338898750018,
                    "velocity": 0.6929133858267716,
                    "duration": 0.06099401250000369
                },
                {
                    "name": "F6",
                    "midi": 89,
                    "time": 76.02338898750018,
                    "velocity": 0.6929133858267716,
                    "duration": 0.06099401250000369
                },
                {
                    "name": "A6",
                    "midi": 93,
                    "time": 76.02338898750018,
                    "velocity": 0.6929133858267716,
                    "duration": 0.06099401250000369
                },
                {
                    "name": "B6",
                    "midi": 95,
                    "time": 76.08438300000019,
                    "velocity": 0.6929133858267716,
                    "duration": 0.060241000000004874
                },
                {
                    "name": "C6",
                    "midi": 84,
                    "time": 76.14462400000019,
                    "velocity": 0.6929133858267716,
                    "duration": 0.059487987500006057
                },
                {
                    "name": "F6",
                    "midi": 89,
                    "time": 76.14462400000019,
                    "velocity": 0.6929133858267716,
                    "duration": 0.059487987500006057
                },
                {
                    "name": "A6",
                    "midi": 93,
                    "time": 76.14462400000019,
                    "velocity": 0.6929133858267716,
                    "duration": 0.059487987500006057
                },
                {
                    "name": "B6",
                    "midi": 95,
                    "time": 76.2041119875002,
                    "velocity": 0.6929133858267716,
                    "duration": 0.06099401250000369
                },
                {
                    "name": "C6",
                    "midi": 84,
                    "time": 76.2651060000002,
                    "velocity": 0.6929133858267716,
                    "duration": 0.060241000000004874
                },
                {
                    "name": "F6",
                    "midi": 89,
                    "time": 76.2651060000002,
                    "velocity": 0.6929133858267716,
                    "duration": 0.060241000000004874
                },
                {
                    "name": "A6",
                    "midi": 93,
                    "time": 76.2651060000002,
                    "velocity": 0.6929133858267716,
                    "duration": 0.060241000000004874
                },
                {
                    "name": "B6",
                    "midi": 95,
                    "time": 76.3253470000002,
                    "velocity": 0.6929133858267716,
                    "duration": 0.059487987500006057
                },
                {
                    "name": "C6",
                    "midi": 84,
                    "time": 76.38483498750021,
                    "velocity": 0.6929133858267716,
                    "duration": 0.06099401250000369
                },
                {
                    "name": "F6",
                    "midi": 89,
                    "time": 76.38483498750021,
                    "velocity": 0.6929133858267716,
                    "duration": 0.06099401250000369
                },
                {
                    "name": "A6",
                    "midi": 93,
                    "time": 76.38483498750021,
                    "velocity": 0.6929133858267716,
                    "duration": 0.06099401250000369
                },
                {
                    "name": "B6",
                    "midi": 95,
                    "time": 76.44582900000022,
                    "velocity": 0.6929133858267716,
                    "duration": 0.060241000000004874
                },
                {
                    "name": "C6",
                    "midi": 84,
                    "time": 76.50607000000022,
                    "velocity": 0.6929133858267716,
                    "duration": 0.059487987500006057
                },
                {
                    "name": "F6",
                    "midi": 89,
                    "time": 76.50607000000022,
                    "velocity": 0.6929133858267716,
                    "duration": 0.059487987500006057
                },
                {
                    "name": "A6",
                    "midi": 93,
                    "time": 76.50607000000022,
                    "velocity": 0.6929133858267716,
                    "duration": 0.059487987500006057
                },
                {
                    "name": "B6",
                    "midi": 95,
                    "time": 76.56555798750023,
                    "velocity": 0.6929133858267716,
                    "duration": 0.06099401250000369
                },
                {
                    "name": "C6",
                    "midi": 84,
                    "time": 76.62655200000023,
                    "velocity": 0.6929133858267716,
                    "duration": 0.060241000000004874
                },
                {
                    "name": "F6",
                    "midi": 89,
                    "time": 76.62655200000023,
                    "velocity": 0.6929133858267716,
                    "duration": 0.060241000000004874
                },
                {
                    "name": "A6",
                    "midi": 93,
                    "time": 76.62655200000023,
                    "velocity": 0.6929133858267716,
                    "duration": 0.060241000000004874
                },
                {
                    "name": "B6",
                    "midi": 95,
                    "time": 76.68679300000024,
                    "velocity": 0.6929133858267716,
                    "duration": 0.059487987500006057
                },
                {
                    "name": "C6",
                    "midi": 84,
                    "time": 76.74628098750024,
                    "velocity": 0.6929133858267716,
                    "duration": 0.06099401250000369
                },
                {
                    "name": "F6",
                    "midi": 89,
                    "time": 76.74628098750024,
                    "velocity": 0.6929133858267716,
                    "duration": 0.06099401250000369
                },
                {
                    "name": "A6",
                    "midi": 93,
                    "time": 76.74628098750024,
                    "velocity": 0.6929133858267716,
                    "duration": 0.06099401250000369
                },
                {
                    "name": "B6",
                    "midi": 95,
                    "time": 76.80727500000025,
                    "velocity": 0.6929133858267716,
                    "duration": 0.060241000000004874
                },
                {
                    "name": "C6",
                    "midi": 84,
                    "time": 76.86751600000025,
                    "velocity": 0.6929133858267716,
                    "duration": 0.059487987500006057
                },
                {
                    "name": "F6",
                    "midi": 89,
                    "time": 76.86751600000025,
                    "velocity": 0.6929133858267716,
                    "duration": 0.059487987500006057
                },
                {
                    "name": "A6",
                    "midi": 93,
                    "time": 76.86751600000025,
                    "velocity": 0.6929133858267716,
                    "duration": 0.059487987500006057
                },
                {
                    "name": "B6",
                    "midi": 95,
                    "time": 76.92700398750026,
                    "velocity": 0.6929133858267716,
                    "duration": 0.06099401250000369
                },
                {
                    "name": "C6",
                    "midi": 84,
                    "time": 76.98799800000026,
                    "velocity": 0.6929133858267716,
                    "duration": 0.060241000000004874
                },
                {
                    "name": "F6",
                    "midi": 89,
                    "time": 76.98799800000026,
                    "velocity": 0.6929133858267716,
                    "duration": 0.060241000000004874
                },
                {
                    "name": "A6",
                    "midi": 93,
                    "time": 76.98799800000026,
                    "velocity": 0.6929133858267716,
                    "duration": 0.060241000000004874
                },
                {
                    "name": "B6",
                    "midi": 95,
                    "time": 77.04823900000027,
                    "velocity": 0.6929133858267716,
                    "duration": 0.059487987500006057
                },
                {
                    "name": "C6",
                    "midi": 84,
                    "time": 77.10772698750027,
                    "velocity": 0.6929133858267716,
                    "duration": 0.06099401250000369
                },
                {
                    "name": "F6",
                    "midi": 89,
                    "time": 77.10772698750027,
                    "velocity": 0.6929133858267716,
                    "duration": 0.06099401250000369
                },
                {
                    "name": "A6",
                    "midi": 93,
                    "time": 77.10772698750027,
                    "velocity": 0.6929133858267716,
                    "duration": 0.06099401250000369
                },
                {
                    "name": "B6",
                    "midi": 95,
                    "time": 77.16872100000028,
                    "velocity": 0.6929133858267716,
                    "duration": 0.060241000000004874
                },
                {
                    "name": "C6",
                    "midi": 84,
                    "time": 77.22896200000028,
                    "velocity": 0.6929133858267716,
                    "duration": 0.059487987500006057
                },
                {
                    "name": "F6",
                    "midi": 89,
                    "time": 77.22896200000028,
                    "velocity": 0.6929133858267716,
                    "duration": 0.059487987500006057
                },
                {
                    "name": "A6",
                    "midi": 93,
                    "time": 77.22896200000028,
                    "velocity": 0.6929133858267716,
                    "duration": 0.059487987500006057
                },
                {
                    "name": "B6",
                    "midi": 95,
                    "time": 77.28844998750029,
                    "velocity": 0.6929133858267716,
                    "duration": 0.06099401250000369
                },
                {
                    "name": "C6",
                    "midi": 84,
                    "time": 77.34944400000029,
                    "velocity": 0.6929133858267716,
                    "duration": 0.060241000000004874
                },
                {
                    "name": "F6",
                    "midi": 89,
                    "time": 77.34944400000029,
                    "velocity": 0.6929133858267716,
                    "duration": 0.060241000000004874
                },
                {
                    "name": "A6",
                    "midi": 93,
                    "time": 77.34944400000029,
                    "velocity": 0.6929133858267716,
                    "duration": 0.060241000000004874
                },
                {
                    "name": "B6",
                    "midi": 95,
                    "time": 77.4096850000003,
                    "velocity": 0.6929133858267716,
                    "duration": 0.059487987500006057
                },
                {
                    "name": "C6",
                    "midi": 84,
                    "time": 77.4691729875003,
                    "velocity": 0.6929133858267716,
                    "duration": 0.06099401250000369
                },
                {
                    "name": "F6",
                    "midi": 89,
                    "time": 77.4691729875003,
                    "velocity": 0.6929133858267716,
                    "duration": 0.06099401250000369
                },
                {
                    "name": "A6",
                    "midi": 93,
                    "time": 77.4691729875003,
                    "velocity": 0.6929133858267716,
                    "duration": 0.06099401250000369
                },
                {
                    "name": "B6",
                    "midi": 95,
                    "time": 77.5301670000003,
                    "velocity": 0.6929133858267716,
                    "duration": 0.060241000000004874
                },
                {
                    "name": "C6",
                    "midi": 84,
                    "time": 77.59040800000031,
                    "velocity": 0.6929133858267716,
                    "duration": 0.059487987500006057
                },
                {
                    "name": "F6",
                    "midi": 89,
                    "time": 77.59040800000031,
                    "velocity": 0.6929133858267716,
                    "duration": 0.059487987500006057
                },
                {
                    "name": "A6",
                    "midi": 93,
                    "time": 77.59040800000031,
                    "velocity": 0.6929133858267716,
                    "duration": 0.059487987500006057
                },
                {
                    "name": "B6",
                    "midi": 95,
                    "time": 77.64989598750032,
                    "velocity": 0.6929133858267716,
                    "duration": 0.06099401250000369
                },
                {
                    "name": "C6",
                    "midi": 84,
                    "time": 77.71089000000032,
                    "velocity": 0.6929133858267716,
                    "duration": 0.060241000000004874
                },
                {
                    "name": "F6",
                    "midi": 89,
                    "time": 77.71089000000032,
                    "velocity": 0.6929133858267716,
                    "duration": 0.060241000000004874
                },
                {
                    "name": "A6",
                    "midi": 93,
                    "time": 77.71089000000032,
                    "velocity": 0.6929133858267716,
                    "duration": 0.060241000000004874
                },
                {
                    "name": "B6",
                    "midi": 95,
                    "time": 77.77113100000032,
                    "velocity": 0.6929133858267716,
                    "duration": 0.059487987500006057
                },
                {
                    "name": "C6",
                    "midi": 84,
                    "time": 77.83061898750033,
                    "velocity": 0.6929133858267716,
                    "duration": 0.06099401250000369
                },
                {
                    "name": "F6",
                    "midi": 89,
                    "time": 77.83061898750033,
                    "velocity": 0.6929133858267716,
                    "duration": 0.06099401250000369
                },
                {
                    "name": "A6",
                    "midi": 93,
                    "time": 77.83061898750033,
                    "velocity": 0.6929133858267716,
                    "duration": 0.06099401250000369
                },
                {
                    "name": "B6",
                    "midi": 95,
                    "time": 77.89161300000033,
                    "velocity": 0.6929133858267716,
                    "duration": 0.060241000000004874
                },
                {
                    "name": "C6",
                    "midi": 84,
                    "time": 77.95185400000034,
                    "velocity": 0.6929133858267716,
                    "duration": 0.059487987500006057
                },
                {
                    "name": "F6",
                    "midi": 89,
                    "time": 77.95185400000034,
                    "velocity": 0.6929133858267716,
                    "duration": 0.059487987500006057
                },
                {
                    "name": "A6",
                    "midi": 93,
                    "time": 77.95185400000034,
                    "velocity": 0.6929133858267716,
                    "duration": 0.059487987500006057
                },
                {
                    "name": "B6",
                    "midi": 95,
                    "time": 78.01134198750034,
                    "velocity": 0.6929133858267716,
                    "duration": 0.06099401250000369
                },
                {
                    "name": "C6",
                    "midi": 84,
                    "time": 78.07233600000035,
                    "velocity": 0.6929133858267716,
                    "duration": 0.060241000000004874
                },
                {
                    "name": "F6",
                    "midi": 89,
                    "time": 78.07233600000035,
                    "velocity": 0.6929133858267716,
                    "duration": 0.060241000000004874
                },
                {
                    "name": "A6",
                    "midi": 93,
                    "time": 78.07233600000035,
                    "velocity": 0.6929133858267716,
                    "duration": 0.060241000000004874
                },
                {
                    "name": "B6",
                    "midi": 95,
                    "time": 78.13257700000035,
                    "velocity": 0.6929133858267716,
                    "duration": 0.059487987500006057
                },
                {
                    "name": "C6",
                    "midi": 84,
                    "time": 78.19206498750036,
                    "velocity": 0.6929133858267716,
                    "duration": 0.06099401250000369
                },
                {
                    "name": "F6",
                    "midi": 89,
                    "time": 78.19206498750036,
                    "velocity": 0.6929133858267716,
                    "duration": 0.06099401250000369
                },
                {
                    "name": "A6",
                    "midi": 93,
                    "time": 78.19206498750036,
                    "velocity": 0.6929133858267716,
                    "duration": 0.06099401250000369
                },
                {
                    "name": "B6",
                    "midi": 95,
                    "time": 78.25305900000036,
                    "velocity": 0.6929133858267716,
                    "duration": 0.060241000000004874
                },
                {
                    "name": "C6",
                    "midi": 84,
                    "time": 78.31330000000037,
                    "velocity": 0.6929133858267716,
                    "duration": 0.059487987500006057
                },
                {
                    "name": "F6",
                    "midi": 89,
                    "time": 78.31330000000037,
                    "velocity": 0.6929133858267716,
                    "duration": 0.059487987500006057
                },
                {
                    "name": "A6",
                    "midi": 93,
                    "time": 78.31330000000037,
                    "velocity": 0.6929133858267716,
                    "duration": 0.059487987500006057
                },
                {
                    "name": "B6",
                    "midi": 95,
                    "time": 78.37278798750037,
                    "velocity": 0.6929133858267716,
                    "duration": 0.06099401250000369
                },
                {
                    "name": "C6",
                    "midi": 84,
                    "time": 78.43378200000038,
                    "velocity": 0.6929133858267716,
                    "duration": 0.3614460000000008
                },
                {
                    "name": "F6",
                    "midi": 89,
                    "time": 78.43378200000038,
                    "velocity": 0.6929133858267716,
                    "duration": 0.3614460000000008
                },
                {
                    "name": "A6",
                    "midi": 93,
                    "time": 78.43378200000038,
                    "velocity": 0.6929133858267716,
                    "duration": 0.3614460000000008
                },
                {
                    "name": "G5",
                    "midi": 79,
                    "time": 78.79522800000038,
                    "velocity": 0.8976377952755905,
                    "duration": 0.1807230000000004
                },
                {
                    "name": "B5",
                    "midi": 83,
                    "time": 78.79522800000038,
                    "velocity": 0.8976377952755905,
                    "duration": 0.1807230000000004
                },
                {
                    "name": "E6",
                    "midi": 88,
                    "time": 78.79522800000038,
                    "velocity": 0.8976377952755905,
                    "duration": 0.1807230000000004
                },
                {
                    "name": "G6",
                    "midi": 91,
                    "time": 78.79522800000038,
                    "velocity": 0.8976377952755905,
                    "duration": 0.1807230000000004
                },
                {
                    "name": "A5",
                    "midi": 81,
                    "time": 78.97595100000038,
                    "velocity": 0.6929133858267716,
                    "duration": 0.1807230000000004
                },
                {
                    "name": "D6",
                    "midi": 86,
                    "time": 78.97595100000038,
                    "velocity": 0.6929133858267716,
                    "duration": 0.1807230000000004
                },
                {
                    "name": "F6",
                    "midi": 89,
                    "time": 78.97595100000038,
                    "velocity": 0.6929133858267716,
                    "duration": 0.1807230000000004
                },
                {
                    "name": "A6",
                    "midi": 93,
                    "time": 78.97595100000038,
                    "velocity": 0.6929133858267716,
                    "duration": 0.1807230000000004
                },
                {
                    "name": "B5",
                    "midi": 83,
                    "time": 79.15667400000038,
                    "velocity": 0.6929133858267716,
                    "duration": 0.1807230000000004
                },
                {
                    "name": "D6",
                    "midi": 86,
                    "time": 79.15667400000038,
                    "velocity": 0.6929133858267716,
                    "duration": 0.1807230000000004
                },
                {
                    "name": "G6",
                    "midi": 91,
                    "time": 79.15667400000038,
                    "velocity": 0.6929133858267716,
                    "duration": 0.1807230000000004
                },
                {
                    "name": "B6",
                    "midi": 95,
                    "time": 79.15667400000038,
                    "velocity": 0.6929133858267716,
                    "duration": 0.1807230000000004
                },
                {
                    "name": "C6",
                    "midi": 84,
                    "time": 79.33739700000038,
                    "velocity": 0.6929133858267716,
                    "duration": 0.1807230000000004
                },
                {
                    "name": "F6",
                    "midi": 89,
                    "time": 79.33739700000038,
                    "velocity": 0.6929133858267716,
                    "duration": 0.1807230000000004
                },
                {
                    "name": "A6",
                    "midi": 93,
                    "time": 79.33739700000038,
                    "velocity": 0.6929133858267716,
                    "duration": 0.1807230000000004
                },
                {
                    "name": "C7",
                    "midi": 96,
                    "time": 79.33739700000038,
                    "velocity": 0.6929133858267716,
                    "duration": 0.1807230000000004
                },
                {
                    "name": "B5",
                    "midi": 83,
                    "time": 79.51812000000038,
                    "velocity": 0.6929133858267716,
                    "duration": 0.1807230000000004
                },
                {
                    "name": "D6",
                    "midi": 86,
                    "time": 79.51812000000038,
                    "velocity": 0.6929133858267716,
                    "duration": 0.1807230000000004
                },
                {
                    "name": "G6",
                    "midi": 91,
                    "time": 79.51812000000038,
                    "velocity": 0.6929133858267716,
                    "duration": 0.1807230000000004
                },
                {
                    "name": "B6",
                    "midi": 95,
                    "time": 79.51812000000038,
                    "velocity": 0.6929133858267716,
                    "duration": 0.1807230000000004
                },
                {
                    "name": "C6",
                    "midi": 84,
                    "time": 79.69884300000038,
                    "velocity": 0.6929133858267716,
                    "duration": 0.1807230000000004
                },
                {
                    "name": "F6",
                    "midi": 89,
                    "time": 79.69884300000038,
                    "velocity": 0.6929133858267716,
                    "duration": 0.1807230000000004
                },
                {
                    "name": "A6",
                    "midi": 93,
                    "time": 79.69884300000038,
                    "velocity": 0.6929133858267716,
                    "duration": 0.1807230000000004
                },
                {
                    "name": "C7",
                    "midi": 96,
                    "time": 79.69884300000038,
                    "velocity": 0.6929133858267716,
                    "duration": 0.1807230000000004
                },
                {
                    "name": "B5",
                    "midi": 83,
                    "time": 79.87956600000038,
                    "velocity": 0.6929133858267716,
                    "duration": 0.1807230000000004
                },
                {
                    "name": "D6",
                    "midi": 86,
                    "time": 79.87956600000038,
                    "velocity": 0.6929133858267716,
                    "duration": 0.1807230000000004
                },
                {
                    "name": "G6",
                    "midi": 91,
                    "time": 79.87956600000038,
                    "velocity": 0.6929133858267716,
                    "duration": 0.1807230000000004
                },
                {
                    "name": "B6",
                    "midi": 95,
                    "time": 79.87956600000038,
                    "velocity": 0.6929133858267716,
                    "duration": 0.1807230000000004
                },
                {
                    "name": "D6",
                    "midi": 86,
                    "time": 80.06028900000038,
                    "velocity": 0.6929133858267716,
                    "duration": 0.1807230000000004
                },
                {
                    "name": "F6",
                    "midi": 89,
                    "time": 80.06028900000038,
                    "velocity": 0.6929133858267716,
                    "duration": 0.1807230000000004
                },
                {
                    "name": "A6",
                    "midi": 93,
                    "time": 80.06028900000038,
                    "velocity": 0.6929133858267716,
                    "duration": 0.1807230000000004
                },
                {
                    "name": "D7",
                    "midi": 98,
                    "time": 80.06028900000038,
                    "velocity": 0.6929133858267716,
                    "duration": 0.1807230000000004
                },
                {
                    "name": "A5",
                    "midi": 81,
                    "time": 80.24101200000038,
                    "velocity": 0.6929133858267716,
                    "duration": 0.3614460000000008
                },
                {
                    "name": "C6",
                    "midi": 84,
                    "time": 80.24101200000038,
                    "velocity": 0.6929133858267716,
                    "duration": 0.3614460000000008
                },
                {
                    "name": "F6",
                    "midi": 89,
                    "time": 80.24101200000038,
                    "velocity": 0.6929133858267716,
                    "duration": 0.3614460000000008
                },
                {
                    "name": "A6",
                    "midi": 93,
                    "time": 80.24101200000038,
                    "velocity": 0.6929133858267716,
                    "duration": 0.3614460000000008
                },
                {
                    "name": "B5",
                    "midi": 83,
                    "time": 80.60245800000038,
                    "velocity": 0.6929133858267716,
                    "duration": 0.1807230000000004
                },
                {
                    "name": "D6",
                    "midi": 86,
                    "time": 80.60245800000038,
                    "velocity": 0.6929133858267716,
                    "duration": 0.1807230000000004
                },
                {
                    "name": "G6",
                    "midi": 91,
                    "time": 80.60245800000038,
                    "velocity": 0.6929133858267716,
                    "duration": 0.1807230000000004
                },
                {
                    "name": "B6",
                    "midi": 95,
                    "time": 80.60245800000038,
                    "velocity": 0.6929133858267716,
                    "duration": 0.1807230000000004
                },
                {
                    "name": "C6",
                    "midi": 84,
                    "time": 80.78318100000038,
                    "velocity": 0.6929133858267716,
                    "duration": 0.1807230000000004
                },
                {
                    "name": "F6",
                    "midi": 89,
                    "time": 80.78318100000038,
                    "velocity": 0.6929133858267716,
                    "duration": 0.1807230000000004
                },
                {
                    "name": "A6",
                    "midi": 93,
                    "time": 80.78318100000038,
                    "velocity": 0.6929133858267716,
                    "duration": 0.1807230000000004
                },
                {
                    "name": "C7",
                    "midi": 96,
                    "time": 80.78318100000038,
                    "velocity": 0.6929133858267716,
                    "duration": 0.1807230000000004
                },
                {
                    "name": "B5",
                    "midi": 83,
                    "time": 80.96390400000038,
                    "velocity": 0.6929133858267716,
                    "duration": 0.1807230000000004
                },
                {
                    "name": "D6",
                    "midi": 86,
                    "time": 80.96390400000038,
                    "velocity": 0.6929133858267716,
                    "duration": 0.1807230000000004
                },
                {
                    "name": "G6",
                    "midi": 91,
                    "time": 80.96390400000038,
                    "velocity": 0.6929133858267716,
                    "duration": 0.1807230000000004
                },
                {
                    "name": "B6",
                    "midi": 95,
                    "time": 80.96390400000038,
                    "velocity": 0.6929133858267716,
                    "duration": 0.1807230000000004
                },
                {
                    "name": "D6",
                    "midi": 86,
                    "time": 81.14462700000038,
                    "velocity": 0.6929133858267716,
                    "duration": 0.1807230000000004
                },
                {
                    "name": "F6",
                    "midi": 89,
                    "time": 81.14462700000038,
                    "velocity": 0.6929133858267716,
                    "duration": 0.1807230000000004
                },
                {
                    "name": "A6",
                    "midi": 93,
                    "time": 81.14462700000038,
                    "velocity": 0.6929133858267716,
                    "duration": 0.1807230000000004
                },
                {
                    "name": "D7",
                    "midi": 98,
                    "time": 81.14462700000038,
                    "velocity": 0.6929133858267716,
                    "duration": 0.1807230000000004
                },
                {
                    "name": "A5",
                    "midi": 81,
                    "time": 81.32535000000038,
                    "velocity": 0.6929133858267716,
                    "duration": 0.3614460000000008
                },
                {
                    "name": "C6",
                    "midi": 84,
                    "time": 81.32535000000038,
                    "velocity": 0.6929133858267716,
                    "duration": 0.3614460000000008
                },
                {
                    "name": "F6",
                    "midi": 89,
                    "time": 81.32535000000038,
                    "velocity": 0.6929133858267716,
                    "duration": 0.3614460000000008
                },
                {
                    "name": "A6",
                    "midi": 93,
                    "time": 81.32535000000038,
                    "velocity": 0.6929133858267716,
                    "duration": 0.3614460000000008
                },
                {
                    "name": "A5",
                    "midi": 81,
                    "time": 81.68679600000038,
                    "velocity": 0.6929133858267716,
                    "duration": 0.3614460000000008
                },
                {
                    "name": "C6",
                    "midi": 84,
                    "time": 81.68679600000038,
                    "velocity": 0.6929133858267716,
                    "duration": 0.3614460000000008
                },
                {
                    "name": "F6",
                    "midi": 89,
                    "time": 81.68679600000038,
                    "velocity": 0.6929133858267716,
                    "duration": 0.3614460000000008
                },
                {
                    "name": "A6",
                    "midi": 93,
                    "time": 81.68679600000038,
                    "velocity": 0.6929133858267716,
                    "duration": 0.3614460000000008
                },
                {
                    "name": "G5",
                    "midi": 79,
                    "time": 82.04824200000039,
                    "velocity": 0.6929133858267716,
                    "duration": 0.1807230000000004
                },
                {
                    "name": "B5",
                    "midi": 83,
                    "time": 82.04824200000039,
                    "velocity": 0.6929133858267716,
                    "duration": 0.1807230000000004
                },
                {
                    "name": "E6",
                    "midi": 88,
                    "time": 82.04824200000039,
                    "velocity": 0.6929133858267716,
                    "duration": 0.1807230000000004
                },
                {
                    "name": "G6",
                    "midi": 91,
                    "time": 82.04824200000039,
                    "velocity": 0.6929133858267716,
                    "duration": 0.1807230000000004
                },
                {
                    "name": "A5",
                    "midi": 81,
                    "time": 82.22896500000039,
                    "velocity": 0.6929133858267716,
                    "duration": 0.1807230000000004
                },
                {
                    "name": "D6",
                    "midi": 86,
                    "time": 82.22896500000039,
                    "velocity": 0.6929133858267716,
                    "duration": 0.1807230000000004
                },
                {
                    "name": "F6",
                    "midi": 89,
                    "time": 82.22896500000039,
                    "velocity": 0.6929133858267716,
                    "duration": 0.1807230000000004
                },
                {
                    "name": "A6",
                    "midi": 93,
                    "time": 82.22896500000039,
                    "velocity": 0.6929133858267716,
                    "duration": 0.1807230000000004
                },
                {
                    "name": "B5",
                    "midi": 83,
                    "time": 82.40968800000039,
                    "velocity": 0.6929133858267716,
                    "duration": 0.1807230000000004
                },
                {
                    "name": "D6",
                    "midi": 86,
                    "time": 82.40968800000039,
                    "velocity": 0.6929133858267716,
                    "duration": 0.1807230000000004
                },
                {
                    "name": "G6",
                    "midi": 91,
                    "time": 82.40968800000039,
                    "velocity": 0.6929133858267716,
                    "duration": 0.1807230000000004
                },
                {
                    "name": "B6",
                    "midi": 95,
                    "time": 82.40968800000039,
                    "velocity": 0.6929133858267716,
                    "duration": 0.1807230000000004
                },
                {
                    "name": "C6",
                    "midi": 84,
                    "time": 82.59041100000039,
                    "velocity": 0.6929133858267716,
                    "duration": 0.1807230000000004
                },
                {
                    "name": "F6",
                    "midi": 89,
                    "time": 82.59041100000039,
                    "velocity": 0.6929133858267716,
                    "duration": 0.1807230000000004
                },
                {
                    "name": "A6",
                    "midi": 93,
                    "time": 82.59041100000039,
                    "velocity": 0.6929133858267716,
                    "duration": 0.1807230000000004
                },
                {
                    "name": "C7",
                    "midi": 96,
                    "time": 82.59041100000039,
                    "velocity": 0.6929133858267716,
                    "duration": 0.1807230000000004
                },
                {
                    "name": "B5",
                    "midi": 83,
                    "time": 82.77113400000039,
                    "velocity": 0.6929133858267716,
                    "duration": 0.1807230000000004
                },
                {
                    "name": "D6",
                    "midi": 86,
                    "time": 82.77113400000039,
                    "velocity": 0.6929133858267716,
                    "duration": 0.1807230000000004
                },
                {
                    "name": "G6",
                    "midi": 91,
                    "time": 82.77113400000039,
                    "velocity": 0.6929133858267716,
                    "duration": 0.1807230000000004
                },
                {
                    "name": "B6",
                    "midi": 95,
                    "time": 82.77113400000039,
                    "velocity": 0.6929133858267716,
                    "duration": 0.1807230000000004
                },
                {
                    "name": "C6",
                    "midi": 84,
                    "time": 82.95185700000039,
                    "velocity": 0.6929133858267716,
                    "duration": 0.1807230000000004
                },
                {
                    "name": "F6",
                    "midi": 89,
                    "time": 82.95185700000039,
                    "velocity": 0.6929133858267716,
                    "duration": 0.1807230000000004
                },
                {
                    "name": "A6",
                    "midi": 93,
                    "time": 82.95185700000039,
                    "velocity": 0.6929133858267716,
                    "duration": 0.1807230000000004
                },
                {
                    "name": "C7",
                    "midi": 96,
                    "time": 82.95185700000039,
                    "velocity": 0.6929133858267716,
                    "duration": 0.1807230000000004
                },
                {
                    "name": "B5",
                    "midi": 83,
                    "time": 83.13258000000039,
                    "velocity": 0.6929133858267716,
                    "duration": 0.1807230000000004
                },
                {
                    "name": "D6",
                    "midi": 86,
                    "time": 83.13258000000039,
                    "velocity": 0.6929133858267716,
                    "duration": 0.1807230000000004
                },
                {
                    "name": "G6",
                    "midi": 91,
                    "time": 83.13258000000039,
                    "velocity": 0.6929133858267716,
                    "duration": 0.1807230000000004
                },
                {
                    "name": "B6",
                    "midi": 95,
                    "time": 83.13258000000039,
                    "velocity": 0.6929133858267716,
                    "duration": 0.1807230000000004
                },
                {
                    "name": "D6",
                    "midi": 86,
                    "time": 83.31330300000039,
                    "velocity": 0.6929133858267716,
                    "duration": 0.1807230000000004
                },
                {
                    "name": "F6",
                    "midi": 89,
                    "time": 83.31330300000039,
                    "velocity": 0.6929133858267716,
                    "duration": 0.1807230000000004
                },
                {
                    "name": "A6",
                    "midi": 93,
                    "time": 83.31330300000039,
                    "velocity": 0.6929133858267716,
                    "duration": 0.1807230000000004
                },
                {
                    "name": "D7",
                    "midi": 98,
                    "time": 83.31330300000039,
                    "velocity": 0.6929133858267716,
                    "duration": 0.1807230000000004
                },
                {
                    "name": "C6",
                    "midi": 84,
                    "time": 83.49402600000039,
                    "velocity": 0.6929133858267716,
                    "duration": 0.1807230000000004
                },
                {
                    "name": "F6",
                    "midi": 89,
                    "time": 83.49402600000039,
                    "velocity": 0.6929133858267716,
                    "duration": 0.1807230000000004
                },
                {
                    "name": "A6",
                    "midi": 93,
                    "time": 83.49402600000039,
                    "velocity": 0.6929133858267716,
                    "duration": 0.1807230000000004
                },
                {
                    "name": "C7",
                    "midi": 96,
                    "time": 83.49402600000039,
                    "velocity": 0.6929133858267716,
                    "duration": 0.1807230000000004
                },
                {
                    "name": "B5",
                    "midi": 83,
                    "time": 83.67474900000039,
                    "velocity": 0.6929133858267716,
                    "duration": 0.1807230000000004
                },
                {
                    "name": "D6",
                    "midi": 86,
                    "time": 83.67474900000039,
                    "velocity": 0.6929133858267716,
                    "duration": 0.1807230000000004
                },
                {
                    "name": "G6",
                    "midi": 91,
                    "time": 83.67474900000039,
                    "velocity": 0.6929133858267716,
                    "duration": 0.1807230000000004
                },
                {
                    "name": "B6",
                    "midi": 95,
                    "time": 83.67474900000039,
                    "velocity": 0.6929133858267716,
                    "duration": 0.1807230000000004
                },
                {
                    "name": "A5",
                    "midi": 81,
                    "time": 83.85547200000039,
                    "velocity": 0.6929133858267716,
                    "duration": 0.1807230000000004
                },
                {
                    "name": "D6",
                    "midi": 86,
                    "time": 83.85547200000039,
                    "velocity": 0.6929133858267716,
                    "duration": 0.1807230000000004
                },
                {
                    "name": "F6",
                    "midi": 89,
                    "time": 83.85547200000039,
                    "velocity": 0.6929133858267716,
                    "duration": 0.1807230000000004
                },
                {
                    "name": "A6",
                    "midi": 93,
                    "time": 83.85547200000039,
                    "velocity": 0.6929133858267716,
                    "duration": 0.1807230000000004
                },
                {
                    "name": "G5",
                    "midi": 79,
                    "time": 84.03619500000039,
                    "velocity": 0.6929133858267716,
                    "duration": 0.1807230000000004
                },
                {
                    "name": "B5",
                    "midi": 83,
                    "time": 84.03619500000039,
                    "velocity": 0.6929133858267716,
                    "duration": 0.1807230000000004
                },
                {
                    "name": "E6",
                    "midi": 88,
                    "time": 84.03619500000039,
                    "velocity": 0.6929133858267716,
                    "duration": 0.1807230000000004
                },
                {
                    "name": "G6",
                    "midi": 91,
                    "time": 84.03619500000039,
                    "velocity": 0.6929133858267716,
                    "duration": 0.1807230000000004
                },
                {
                    "name": "A5",
                    "midi": 81,
                    "time": 84.21691800000039,
                    "velocity": 0.8976377952755905,
                    "duration": 0.3614460000000008
                },
                {
                    "name": "C6",
                    "midi": 84,
                    "time": 84.21691800000039,
                    "velocity": 0.8976377952755905,
                    "duration": 0.3614460000000008
                },
                {
                    "name": "F6",
                    "midi": 89,
                    "time": 84.21691800000039,
                    "velocity": 0.8976377952755905,
                    "duration": 0.3614460000000008
                },
                {
                    "name": "A6",
                    "midi": 93,
                    "time": 84.21691800000039,
                    "velocity": 0.8976377952755905,
                    "duration": 0.3614460000000008
                },
                {
                    "name": "C4",
                    "midi": 60,
                    "time": 84.57836400000039,
                    "velocity": 0.5905511811023622,
                    "duration": 0.0903615000000002
                },
                {
                    "name": "F4",
                    "midi": 65,
                    "time": 84.57836400000039,
                    "velocity": 0.5905511811023622,
                    "duration": 0.0903615000000002
                },
                {
                    "name": "A3",
                    "midi": 57,
                    "time": 84.66872550000039,
                    "velocity": 0.5905511811023622,
                    "duration": 0.0903615000000002
                },
                {
                    "name": "C4",
                    "midi": 60,
                    "time": 84.75908700000039,
                    "velocity": 0.5905511811023622,
                    "duration": 0.0903615000000002
                },
                {
                    "name": "F4",
                    "midi": 65,
                    "time": 84.75908700000039,
                    "velocity": 0.5905511811023622,
                    "duration": 0.0903615000000002
                },
                {
                    "name": "A3",
                    "midi": 57,
                    "time": 84.84944850000039,
                    "velocity": 0.5905511811023622,
                    "duration": 0.0903615000000002
                },
                {
                    "name": "F4",
                    "midi": 65,
                    "time": 84.93981000000039,
                    "velocity": 0.5905511811023622,
                    "duration": 0.0903615000000002
                },
                {
                    "name": "A4",
                    "midi": 69,
                    "time": 84.93981000000039,
                    "velocity": 0.5905511811023622,
                    "duration": 0.0903615000000002
                },
                {
                    "name": "C4",
                    "midi": 60,
                    "time": 85.03017150000039,
                    "velocity": 0.5905511811023622,
                    "duration": 0.0903615000000002
                },
                {
                    "name": "F4",
                    "midi": 65,
                    "time": 85.12053300000039,
                    "velocity": 0.5905511811023622,
                    "duration": 0.0903615000000002
                },
                {
                    "name": "A4",
                    "midi": 69,
                    "time": 85.12053300000039,
                    "velocity": 0.5905511811023622,
                    "duration": 0.0903615000000002
                },
                {
                    "name": "C4",
                    "midi": 60,
                    "time": 85.21089450000039,
                    "velocity": 0.5905511811023622,
                    "duration": 0.0903615000000002
                },
                {
                    "name": "A4",
                    "midi": 69,
                    "time": 85.3012560000004,
                    "velocity": 0.5905511811023622,
                    "duration": 0.0903615000000002
                },
                {
                    "name": "C5",
                    "midi": 72,
                    "time": 85.3012560000004,
                    "velocity": 0.5905511811023622,
                    "duration": 0.0903615000000002
                },
                {
                    "name": "F4",
                    "midi": 65,
                    "time": 85.3916175000004,
                    "velocity": 0.5905511811023622,
                    "duration": 0.0903615000000002
                },
                {
                    "name": "A4",
                    "midi": 69,
                    "time": 85.4819790000004,
                    "velocity": 0.5905511811023622,
                    "duration": 0.0903615000000002
                },
                {
                    "name": "C5",
                    "midi": 72,
                    "time": 85.4819790000004,
                    "velocity": 0.5905511811023622,
                    "duration": 0.0903615000000002
                },
                {
                    "name": "F4",
                    "midi": 65,
                    "time": 85.5723405000004,
                    "velocity": 0.5905511811023622,
                    "duration": 0.0903615000000002
                },
                {
                    "name": "C5",
                    "midi": 72,
                    "time": 85.6627020000004,
                    "velocity": 0.6929133858267716,
                    "duration": 0.0903615000000002
                },
                {
                    "name": "F5",
                    "midi": 77,
                    "time": 85.6627020000004,
                    "velocity": 0.6929133858267716,
                    "duration": 0.0903615000000002
                },
                {
                    "name": "A4",
                    "midi": 69,
                    "time": 85.7530635000004,
                    "velocity": 0.6929133858267716,
                    "duration": 0.0903615000000002
                },
                {
                    "name": "C5",
                    "midi": 72,
                    "time": 85.8434250000004,
                    "velocity": 0.6929133858267716,
                    "duration": 0.0903615000000002
                },
                {
                    "name": "F5",
                    "midi": 77,
                    "time": 85.8434250000004,
                    "velocity": 0.6929133858267716,
                    "duration": 0.0903615000000002
                },
                {
                    "name": "A4",
                    "midi": 69,
                    "time": 85.9337865000004,
                    "velocity": 0.6929133858267716,
                    "duration": 0.0903615000000002
                },
                {
                    "name": "F5",
                    "midi": 77,
                    "time": 86.0241480000004,
                    "velocity": 0.6929133858267716,
                    "duration": 0.0903615000000002
                },
                {
                    "name": "A5",
                    "midi": 81,
                    "time": 86.0241480000004,
                    "velocity": 0.6929133858267716,
                    "duration": 0.0903615000000002
                },
                {
                    "name": "C5",
                    "midi": 72,
                    "time": 86.1145095000004,
                    "velocity": 0.6929133858267716,
                    "duration": 0.0903615000000002
                },
                {
                    "name": "F5",
                    "midi": 77,
                    "time": 86.2048710000004,
                    "velocity": 0.6929133858267716,
                    "duration": 0.0903615000000002
                },
                {
                    "name": "A5",
                    "midi": 81,
                    "time": 86.2048710000004,
                    "velocity": 0.6929133858267716,
                    "duration": 0.0903615000000002
                },
                {
                    "name": "C5",
                    "midi": 72,
                    "time": 86.2952325000004,
                    "velocity": 0.6929133858267716,
                    "duration": 0.0903615000000002
                },
                {
                    "name": "E5",
                    "midi": 76,
                    "time": 86.3855940000004,
                    "velocity": 0.5905511811023622,
                    "duration": 0.5421690000000012
                },
                {
                    "name": "G5",
                    "midi": 79,
                    "time": 86.3855940000004,
                    "velocity": 0.5905511811023622,
                    "duration": 0.5421690000000012
                },
                {
                    "name": "D5",
                    "midi": 74,
                    "time": 86.9277630000004,
                    "velocity": 0.5905511811023622,
                    "duration": 0.1807230000000004
                },
                {
                    "name": "F5",
                    "midi": 77,
                    "time": 86.9277630000004,
                    "velocity": 0.5905511811023622,
                    "duration": 0.1807230000000004
                },
                {
                    "name": "C5",
                    "midi": 72,
                    "time": 87.1084860000004,
                    "velocity": 0.5905511811023622,
                    "duration": 0.1807230000000004
                },
                {
                    "name": "E5",
                    "midi": 76,
                    "time": 87.1084860000004,
                    "velocity": 0.5905511811023622,
                    "duration": 0.1807230000000004
                },
                {
                    "name": "A#4",
                    "midi": 70,
                    "time": 87.2892090000004,
                    "velocity": 0.5905511811023622,
                    "duration": 0.1807230000000004
                },
                {
                    "name": "D5",
                    "midi": 74,
                    "time": 87.2892090000004,
                    "velocity": 0.5905511811023622,
                    "duration": 0.1807230000000004
                },
                {
                    "name": "C5",
                    "midi": 72,
                    "time": 87.4699320000004,
                    "velocity": 0.5905511811023622,
                    "duration": 0.1807230000000004
                },
                {
                    "name": "E5",
                    "midi": 76,
                    "time": 87.4699320000004,
                    "velocity": 0.5905511811023622,
                    "duration": 0.1807230000000004
                },
                {
                    "name": "D5",
                    "midi": 74,
                    "time": 87.6506550000004,
                    "velocity": 0.5905511811023622,
                    "duration": 0.1807230000000004
                },
                {
                    "name": "F5",
                    "midi": 77,
                    "time": 87.6506550000004,
                    "velocity": 0.5905511811023622,
                    "duration": 0.1807230000000004
                },
                {
                    "name": "E5",
                    "midi": 76,
                    "time": 87.8313780000004,
                    "velocity": 0.5905511811023622,
                    "duration": 0.3614460000000008
                },
                {
                    "name": "G5",
                    "midi": 79,
                    "time": 87.8313780000004,
                    "velocity": 0.5905511811023622,
                    "duration": 0.3614460000000008
                },
                {
                    "name": "D5",
                    "midi": 74,
                    "time": 88.1928240000004,
                    "velocity": 0.5905511811023622,
                    "duration": 0.1807230000000004
                },
                {
                    "name": "F5",
                    "midi": 77,
                    "time": 88.1928240000004,
                    "velocity": 0.5905511811023622,
                    "duration": 0.1807230000000004
                },
                {
                    "name": "C5",
                    "midi": 72,
                    "time": 88.3735470000004,
                    "velocity": 0.4881889763779528,
                    "duration": 0.1807230000000004
                },
                {
                    "name": "E5",
                    "midi": 76,
                    "time": 88.3735470000004,
                    "velocity": 0.4881889763779528,
                    "duration": 0.1807230000000004
                },
                {
                    "name": "A#4",
                    "midi": 70,
                    "time": 88.5542700000004,
                    "velocity": 0.4881889763779528,
                    "duration": 0.3614460000000008
                },
                {
                    "name": "D5",
                    "midi": 74,
                    "time": 88.5542700000004,
                    "velocity": 0.4881889763779528,
                    "duration": 0.3614460000000008
                },
                {
                    "name": "C5",
                    "midi": 72,
                    "time": 88.9157160000004,
                    "velocity": 0.4881889763779528,
                    "duration": 0.1807230000000004
                },
                {
                    "name": "E5",
                    "midi": 76,
                    "time": 88.9157160000004,
                    "velocity": 0.4881889763779528,
                    "duration": 0.1807230000000004
                },
                {
                    "name": "D5",
                    "midi": 74,
                    "time": 89.0964390000004,
                    "velocity": 0.4881889763779528,
                    "duration": 0.1807230000000004
                },
                {
                    "name": "F5",
                    "midi": 77,
                    "time": 89.0964390000004,
                    "velocity": 0.4881889763779528,
                    "duration": 0.1807230000000004
                },
                {
                    "name": "A5",
                    "midi": 81,
                    "time": 89.2771620000004,
                    "velocity": 0.5905511811023622,
                    "duration": 1.4457840000000033
                },
                {
                    "name": "A5",
                    "midi": 81,
                    "time": 90.7229460000004,
                    "velocity": 0.5905511811023622,
                    "duration": 1.4457840000000033
                },
                {
                    "name": "A5",
                    "midi": 81,
                    "time": 92.16873000000041,
                    "velocity": 0.5905511811023622,
                    "duration": 1.0843380000000025
                },
                {
                    "name": "A5",
                    "midi": 81,
                    "time": 93.29824875000041,
                    "velocity": 0.5905511811023622,
                    "duration": 0.0451807500000001
                },
                {
                    "name": "B5",
                    "midi": 83,
                    "time": 93.34342950000041,
                    "velocity": 0.5905511811023622,
                    "duration": 0.0451807500000001
                },
                {
                    "name": "C6",
                    "midi": 84,
                    "time": 93.38861025000041,
                    "velocity": 0.5905511811023622,
                    "duration": 0.0451807500000001
                },
                {
                    "name": "D6",
                    "midi": 86,
                    "time": 93.43379100000041,
                    "velocity": 0.5905511811023622,
                    "duration": 0.0451807500000001
                },
                {
                    "name": "E6",
                    "midi": 88,
                    "time": 93.47897175000041,
                    "velocity": 0.5905511811023622,
                    "duration": 0.0451807500000001
                },
                {
                    "name": "F6",
                    "midi": 89,
                    "time": 93.52415250000041,
                    "velocity": 0.5905511811023622,
                    "duration": 0.0451807500000001
                },
                {
                    "name": "G6",
                    "midi": 91,
                    "time": 93.56933325000041,
                    "velocity": 0.5905511811023622,
                    "duration": 0.0451807500000001
                },
                {
                    "name": "A5",
                    "midi": 81,
                    "time": 93.61451400000041,
                    "velocity": 0.5905511811023622,
                    "duration": 0.5421690000000012
                },
                {
                    "name": "E6",
                    "midi": 88,
                    "time": 93.61451400000041,
                    "velocity": 0.5905511811023622,
                    "duration": 0.5421690000000012
                },
                {
                    "name": "G6",
                    "midi": 91,
                    "time": 93.61451400000041,
                    "velocity": 0.5905511811023622,
                    "duration": 0.5421690000000012
                },
                {
                    "name": "A6",
                    "midi": 93,
                    "time": 93.61451400000041,
                    "velocity": 0.5905511811023622,
                    "duration": 0.5421690000000012
                },
                {
                    "name": "D6",
                    "midi": 86,
                    "time": 94.15668300000041,
                    "velocity": 0.5905511811023622,
                    "duration": 0.1807230000000004
                },
                {
                    "name": "F6",
                    "midi": 89,
                    "time": 94.15668300000041,
                    "velocity": 0.5905511811023622,
                    "duration": 0.1807230000000004
                },
                {
                    "name": "A6",
                    "midi": 93,
                    "time": 94.15668300000041,
                    "velocity": 0.5905511811023622,
                    "duration": 0.1807230000000004
                },
                {
                    "name": "C6",
                    "midi": 84,
                    "time": 94.33740600000041,
                    "velocity": 0.5905511811023622,
                    "duration": 0.1807230000000004
                },
                {
                    "name": "E6",
                    "midi": 88,
                    "time": 94.33740600000041,
                    "velocity": 0.5905511811023622,
                    "duration": 0.1807230000000004
                },
                {
                    "name": "A6",
                    "midi": 93,
                    "time": 94.33740600000041,
                    "velocity": 0.5905511811023622,
                    "duration": 0.1807230000000004
                },
                {
                    "name": "A#5",
                    "midi": 82,
                    "time": 94.51812900000041,
                    "velocity": 0.5905511811023622,
                    "duration": 0.1807230000000004
                },
                {
                    "name": "D6",
                    "midi": 86,
                    "time": 94.51812900000041,
                    "velocity": 0.5905511811023622,
                    "duration": 0.1807230000000004
                },
                {
                    "name": "A6",
                    "midi": 93,
                    "time": 94.51812900000041,
                    "velocity": 0.5905511811023622,
                    "duration": 0.1807230000000004
                },
                {
                    "name": "C6",
                    "midi": 84,
                    "time": 94.69885200000041,
                    "velocity": 0.5905511811023622,
                    "duration": 0.1807230000000004
                },
                {
                    "name": "E6",
                    "midi": 88,
                    "time": 94.69885200000041,
                    "velocity": 0.5905511811023622,
                    "duration": 0.1807230000000004
                },
                {
                    "name": "A6",
                    "midi": 93,
                    "time": 94.69885200000041,
                    "velocity": 0.5905511811023622,
                    "duration": 0.1807230000000004
                },
                {
                    "name": "D6",
                    "midi": 86,
                    "time": 94.87957500000041,
                    "velocity": 0.5905511811023622,
                    "duration": 0.1807230000000004
                },
                {
                    "name": "F6",
                    "midi": 89,
                    "time": 94.87957500000041,
                    "velocity": 0.5905511811023622,
                    "duration": 0.1807230000000004
                },
                {
                    "name": "A6",
                    "midi": 93,
                    "time": 94.87957500000041,
                    "velocity": 0.5905511811023622,
                    "duration": 0.1807230000000004
                },
                {
                    "name": "E6",
                    "midi": 88,
                    "time": 95.06029800000042,
                    "velocity": 0.5905511811023622,
                    "duration": 0.3614460000000008
                },
                {
                    "name": "G6",
                    "midi": 91,
                    "time": 95.06029800000042,
                    "velocity": 0.5905511811023622,
                    "duration": 0.3614460000000008
                },
                {
                    "name": "A6",
                    "midi": 93,
                    "time": 95.06029800000042,
                    "velocity": 0.5905511811023622,
                    "duration": 0.3614460000000008
                },
                {
                    "name": "D6",
                    "midi": 86,
                    "time": 95.42174400000042,
                    "velocity": 0.5905511811023622,
                    "duration": 0.1807230000000004
                },
                {
                    "name": "F6",
                    "midi": 89,
                    "time": 95.42174400000042,
                    "velocity": 0.5905511811023622,
                    "duration": 0.1807230000000004
                },
                {
                    "name": "A6",
                    "midi": 93,
                    "time": 95.42174400000042,
                    "velocity": 0.5905511811023622,
                    "duration": 0.1807230000000004
                },
                {
                    "name": "C6",
                    "midi": 84,
                    "time": 95.60246700000042,
                    "velocity": 0.5905511811023622,
                    "duration": 0.1807230000000004
                },
                {
                    "name": "E6",
                    "midi": 88,
                    "time": 95.60246700000042,
                    "velocity": 0.5905511811023622,
                    "duration": 0.1807230000000004
                },
                {
                    "name": "A6",
                    "midi": 93,
                    "time": 95.60246700000042,
                    "velocity": 0.5905511811023622,
                    "duration": 0.1807230000000004
                },
                {
                    "name": "A#5",
                    "midi": 82,
                    "time": 95.78319000000042,
                    "velocity": 0.5905511811023622,
                    "duration": 0.3614460000000008
                },
                {
                    "name": "D6",
                    "midi": 86,
                    "time": 95.78319000000042,
                    "velocity": 0.5905511811023622,
                    "duration": 0.3614460000000008
                },
                {
                    "name": "A6",
                    "midi": 93,
                    "time": 95.78319000000042,
                    "velocity": 0.5905511811023622,
                    "duration": 0.3614460000000008
                },
                {
                    "name": "C6",
                    "midi": 84,
                    "time": 96.14463600000042,
                    "velocity": 0.5905511811023622,
                    "duration": 0.1807230000000004
                },
                {
                    "name": "E6",
                    "midi": 88,
                    "time": 96.14463600000042,
                    "velocity": 0.5905511811023622,
                    "duration": 0.1807230000000004
                },
                {
                    "name": "A6",
                    "midi": 93,
                    "time": 96.14463600000042,
                    "velocity": 0.5905511811023622,
                    "duration": 0.1807230000000004
                },
                {
                    "name": "D6",
                    "midi": 86,
                    "time": 96.32535900000042,
                    "velocity": 0.5905511811023622,
                    "duration": 0.1807230000000004
                },
                {
                    "name": "F6",
                    "midi": 89,
                    "time": 96.32535900000042,
                    "velocity": 0.5905511811023622,
                    "duration": 0.1807230000000004
                },
                {
                    "name": "A6",
                    "midi": 93,
                    "time": 96.32535900000042,
                    "velocity": 0.5905511811023622,
                    "duration": 0.1807230000000004
                },
                {
                    "name": "E6",
                    "midi": 88,
                    "time": 96.50608200000042,
                    "velocity": 0.5905511811023622,
                    "duration": 0.3614460000000008
                },
                {
                    "name": "G6",
                    "midi": 91,
                    "time": 96.50608200000042,
                    "velocity": 0.5905511811023622,
                    "duration": 0.3614460000000008
                },
                {
                    "name": "A6",
                    "midi": 93,
                    "time": 96.50608200000042,
                    "velocity": 0.5905511811023622,
                    "duration": 0.3614460000000008
                },
                {
                    "name": "D6",
                    "midi": 86,
                    "time": 96.86752800000042,
                    "velocity": 0.5905511811023622,
                    "duration": 0.1807230000000004
                },
                {
                    "name": "F6",
                    "midi": 89,
                    "time": 96.86752800000042,
                    "velocity": 0.5905511811023622,
                    "duration": 0.1807230000000004
                },
                {
                    "name": "A6",
                    "midi": 93,
                    "time": 96.86752800000042,
                    "velocity": 0.5905511811023622,
                    "duration": 0.1807230000000004
                },
                {
                    "name": "C6",
                    "midi": 84,
                    "time": 97.04825100000042,
                    "velocity": 0.5905511811023622,
                    "duration": 0.1807230000000004
                },
                {
                    "name": "E6",
                    "midi": 88,
                    "time": 97.04825100000042,
                    "velocity": 0.5905511811023622,
                    "duration": 0.1807230000000004
                },
                {
                    "name": "A6",
                    "midi": 93,
                    "time": 97.04825100000042,
                    "velocity": 0.5905511811023622,
                    "duration": 0.1807230000000004
                },
                {
                    "name": "A#5",
                    "midi": 82,
                    "time": 97.22897400000042,
                    "velocity": 0.5905511811023622,
                    "duration": 0.3614460000000008
                },
                {
                    "name": "D6",
                    "midi": 86,
                    "time": 97.22897400000042,
                    "velocity": 0.5905511811023622,
                    "duration": 0.3614460000000008
                },
                {
                    "name": "A6",
                    "midi": 93,
                    "time": 97.22897400000042,
                    "velocity": 0.5905511811023622,
                    "duration": 0.3614460000000008
                },
                {
                    "name": "C6",
                    "midi": 84,
                    "time": 97.59042000000042,
                    "velocity": 0.5905511811023622,
                    "duration": 0.1807230000000004
                },
                {
                    "name": "E6",
                    "midi": 88,
                    "time": 97.59042000000042,
                    "velocity": 0.5905511811023622,
                    "duration": 0.1807230000000004
                },
                {
                    "name": "A6",
                    "midi": 93,
                    "time": 97.59042000000042,
                    "velocity": 0.5905511811023622,
                    "duration": 0.1807230000000004
                },
                {
                    "name": "D6",
                    "midi": 86,
                    "time": 97.77114300000042,
                    "velocity": 0.5905511811023622,
                    "duration": 0.1807230000000004
                },
                {
                    "name": "F6",
                    "midi": 89,
                    "time": 97.77114300000042,
                    "velocity": 0.5905511811023622,
                    "duration": 0.1807230000000004
                },
                {
                    "name": "A6",
                    "midi": 93,
                    "time": 97.77114300000042,
                    "velocity": 0.5905511811023622,
                    "duration": 0.1807230000000004
                },
                {
                    "name": "E6",
                    "midi": 88,
                    "time": 97.95186600000042,
                    "velocity": 0.5905511811023622,
                    "duration": 0.5421690000000012
                },
                {
                    "name": "G6",
                    "midi": 91,
                    "time": 97.95186600000042,
                    "velocity": 0.5905511811023622,
                    "duration": 0.5421690000000012
                },
                {
                    "name": "A6",
                    "midi": 93,
                    "time": 97.95186600000042,
                    "velocity": 0.5905511811023622,
                    "duration": 0.5421690000000012
                },
                {
                    "name": "D6",
                    "midi": 86,
                    "time": 98.49403500000042,
                    "velocity": 0.5905511811023622,
                    "duration": 0.1807230000000004
                },
                {
                    "name": "F6",
                    "midi": 89,
                    "time": 98.49403500000042,
                    "velocity": 0.5905511811023622,
                    "duration": 0.1807230000000004
                },
                {
                    "name": "A6",
                    "midi": 93,
                    "time": 98.49403500000042,
                    "velocity": 0.5905511811023622,
                    "duration": 0.1807230000000004
                },
                {
                    "name": "C6",
                    "midi": 84,
                    "time": 98.67475800000042,
                    "velocity": 0.5905511811023622,
                    "duration": 0.1807230000000004
                },
                {
                    "name": "E6",
                    "midi": 88,
                    "time": 98.67475800000042,
                    "velocity": 0.5905511811023622,
                    "duration": 0.1807230000000004
                },
                {
                    "name": "A6",
                    "midi": 93,
                    "time": 98.67475800000042,
                    "velocity": 0.5905511811023622,
                    "duration": 0.1807230000000004
                },
                {
                    "name": "A#5",
                    "midi": 82,
                    "time": 98.85548100000042,
                    "velocity": 0.5905511811023622,
                    "duration": 0.1807230000000004
                },
                {
                    "name": "D6",
                    "midi": 86,
                    "time": 98.85548100000042,
                    "velocity": 0.5905511811023622,
                    "duration": 0.1807230000000004
                },
                {
                    "name": "A6",
                    "midi": 93,
                    "time": 98.85548100000042,
                    "velocity": 0.5905511811023622,
                    "duration": 0.1807230000000004
                },
                {
                    "name": "C6",
                    "midi": 84,
                    "time": 99.03620400000042,
                    "velocity": 0.5905511811023622,
                    "duration": 0.1807230000000004
                },
                {
                    "name": "E6",
                    "midi": 88,
                    "time": 99.03620400000042,
                    "velocity": 0.5905511811023622,
                    "duration": 0.1807230000000004
                },
                {
                    "name": "A6",
                    "midi": 93,
                    "time": 99.03620400000042,
                    "velocity": 0.5905511811023622,
                    "duration": 0.1807230000000004
                },
                {
                    "name": "D6",
                    "midi": 86,
                    "time": 99.21692700000042,
                    "velocity": 0.5905511811023622,
                    "duration": 0.1807230000000004
                },
                {
                    "name": "F6",
                    "midi": 89,
                    "time": 99.21692700000042,
                    "velocity": 0.5905511811023622,
                    "duration": 0.1807230000000004
                },
                {
                    "name": "A6",
                    "midi": 93,
                    "time": 99.21692700000042,
                    "velocity": 0.5905511811023622,
                    "duration": 0.1807230000000004
                },
                {
                    "name": "E6",
                    "midi": 88,
                    "time": 99.39765000000043,
                    "velocity": 0.5905511811023622,
                    "duration": 0.035391587500001265
                },
                {
                    "name": "G6",
                    "midi": 91,
                    "time": 99.39765000000043,
                    "velocity": 0.5905511811023622,
                    "duration": 0.035391587500001265
                },
                {
                    "name": "A6",
                    "midi": 93,
                    "time": 99.39765000000043,
                    "velocity": 0.5905511811023622,
                    "duration": 0.035391587500001265
                },
                {
                    "name": "A5",
                    "midi": 81,
                    "time": 99.57837300000043,
                    "velocity": 0.5905511811023622,
                    "duration": 0.035391587500001265
                },
                {
                    "name": "F6",
                    "midi": 89,
                    "time": 99.57837300000043,
                    "velocity": 0.5905511811023622,
                    "duration": 0.035391587500001265
                },
                {
                    "name": "A6",
                    "midi": 93,
                    "time": 99.57837300000043,
                    "velocity": 0.5905511811023622,
                    "duration": 0.035391587500001265
                },
                {
                    "name": "B5",
                    "midi": 83,
                    "time": 99.75909600000043,
                    "velocity": 0.6929133858267716,
                    "duration": 0.023343387500005974
                },
                {
                    "name": "G6",
                    "midi": 91,
                    "time": 99.75909600000043,
                    "velocity": 0.6929133858267716,
                    "duration": 0.023343387500005974
                },
                {
                    "name": "B6",
                    "midi": 95,
                    "time": 99.75909600000043,
                    "velocity": 0.6929133858267716,
                    "duration": 0.023343387500005974
                },
                {
                    "name": "C6",
                    "midi": 84,
                    "time": 99.87882498750044,
                    "velocity": 0.6929133858267716,
                    "duration": 0.024096400000004792
                },
                {
                    "name": "A6",
                    "midi": 93,
                    "time": 99.87882498750044,
                    "velocity": 0.6929133858267716,
                    "duration": 0.024096400000004792
                },
                {
                    "name": "C7",
                    "midi": 96,
                    "time": 99.87882498750044,
                    "velocity": 0.6929133858267716,
                    "duration": 0.024096400000004792
                },
                {
                    "name": "D6",
                    "midi": 86,
                    "time": 100.00006000000045,
                    "velocity": 0.6929133858267716,
                    "duration": 0.024096400000004792
                },
                {
                    "name": "B6",
                    "midi": 95,
                    "time": 100.00006000000045,
                    "velocity": 0.6929133858267716,
                    "duration": 0.024096400000004792
                },
                {
                    "name": "D7",
                    "midi": 98,
                    "time": 100.00006000000045,
                    "velocity": 0.6929133858267716,
                    "duration": 0.024096400000004792
                },
                {
                    "name": "E6",
                    "midi": 88,
                    "time": 100.12054200000046,
                    "velocity": 0.7952755905511811,
                    "duration": 0.023343387500005974
                },
                {
                    "name": "A6",
                    "midi": 93,
                    "time": 100.12054200000046,
                    "velocity": 0.7952755905511811,
                    "duration": 0.023343387500005974
                },
                {
                    "name": "E7",
                    "midi": 100,
                    "time": 100.12054200000046,
                    "velocity": 0.7952755905511811,
                    "duration": 0.023343387500005974
                },
                {
                    "name": "D6",
                    "midi": 86,
                    "time": 100.24027098750047,
                    "velocity": 0.7952755905511811,
                    "duration": 0.024096400000004792
                },
                {
                    "name": "G6",
                    "midi": 91,
                    "time": 100.24027098750047,
                    "velocity": 0.7952755905511811,
                    "duration": 0.024096400000004792
                },
                {
                    "name": "D7",
                    "midi": 98,
                    "time": 100.24027098750047,
                    "velocity": 0.7952755905511811,
                    "duration": 0.024096400000004792
                },
                {
                    "name": "C6",
                    "midi": 84,
                    "time": 100.36150600000047,
                    "velocity": 0.7952755905511811,
                    "duration": 0.024096400000004792
                },
                {
                    "name": "F6",
                    "midi": 89,
                    "time": 100.36150600000047,
                    "velocity": 0.7952755905511811,
                    "duration": 0.024096400000004792
                },
                {
                    "name": "C7",
                    "midi": 96,
                    "time": 100.36150600000047,
                    "velocity": 0.7952755905511811,
                    "duration": 0.024096400000004792
                },
                {
                    "name": "B5",
                    "midi": 83,
                    "time": 100.48198800000048,
                    "velocity": 0.7952755905511811,
                    "duration": 0.023343387500005974
                },
                {
                    "name": "E6",
                    "midi": 88,
                    "time": 100.48198800000048,
                    "velocity": 0.7952755905511811,
                    "duration": 0.023343387500005974
                },
                {
                    "name": "B6",
                    "midi": 95,
                    "time": 100.48198800000048,
                    "velocity": 0.7952755905511811,
                    "duration": 0.023343387500005974
                },
                {
                    "name": "A#5",
                    "midi": 82,
                    "time": 100.6017169875005,
                    "velocity": 0.7952755905511811,
                    "duration": 0.024096400000004792
                },
                {
                    "name": "D#6",
                    "midi": 87,
                    "time": 100.6017169875005,
                    "velocity": 0.7952755905511811,
                    "duration": 0.024096400000004792
                },
                {
                    "name": "A#6",
                    "midi": 94,
                    "time": 100.6017169875005,
                    "velocity": 0.7952755905511811,
                    "duration": 0.024096400000004792
                },
                {
                    "name": "A5",
                    "midi": 81,
                    "time": 100.7229520000005,
                    "velocity": 0.7952755905511811,
                    "duration": 0.024096400000004792
                },
                {
                    "name": "D6",
                    "midi": 86,
                    "time": 100.7229520000005,
                    "velocity": 0.7952755905511811,
                    "duration": 0.024096400000004792
                },
                {
                    "name": "A6",
                    "midi": 93,
                    "time": 100.7229520000005,
                    "velocity": 0.7952755905511811,
                    "duration": 0.024096400000004792
                },
                {
                    "name": "B5",
                    "midi": 83,
                    "time": 100.84343400000051,
                    "velocity": 0.7952755905511811,
                    "duration": 0.023343387500005974
                },
                {
                    "name": "E6",
                    "midi": 88,
                    "time": 100.84343400000051,
                    "velocity": 0.7952755905511811,
                    "duration": 0.023343387500005974
                },
                {
                    "name": "B6",
                    "midi": 95,
                    "time": 100.84343400000051,
                    "velocity": 0.7952755905511811,
                    "duration": 0.023343387500005974
                },
                {
                    "name": "A5",
                    "midi": 81,
                    "time": 100.96316298750052,
                    "velocity": 0.7952755905511811,
                    "duration": 0.024096400000004792
                },
                {
                    "name": "D6",
                    "midi": 86,
                    "time": 100.96316298750052,
                    "velocity": 0.7952755905511811,
                    "duration": 0.024096400000004792
                },
                {
                    "name": "A6",
                    "midi": 93,
                    "time": 100.96316298750052,
                    "velocity": 0.7952755905511811,
                    "duration": 0.024096400000004792
                },
                {
                    "name": "G5",
                    "midi": 79,
                    "time": 101.08439800000053,
                    "velocity": 0.7952755905511811,
                    "duration": 0.024096400000004792
                },
                {
                    "name": "C6",
                    "midi": 84,
                    "time": 101.08439800000053,
                    "velocity": 0.7952755905511811,
                    "duration": 0.024096400000004792
                },
                {
                    "name": "G6",
                    "midi": 91,
                    "time": 101.08439800000053,
                    "velocity": 0.7952755905511811,
                    "duration": 0.024096400000004792
                },
                {
                    "name": "F5",
                    "midi": 77,
                    "time": 101.20488000000054,
                    "velocity": 0.7952755905511811,
                    "duration": 0.023343387500005974
                },
                {
                    "name": "A#5",
                    "midi": 82,
                    "time": 101.20488000000054,
                    "velocity": 0.7952755905511811,
                    "duration": 0.023343387500005974
                },
                {
                    "name": "F6",
                    "midi": 89,
                    "time": 101.20488000000054,
                    "velocity": 0.7952755905511811,
                    "duration": 0.023343387500005974
                },
                {
                    "name": "E5",
                    "midi": 76,
                    "time": 101.32460898750055,
                    "velocity": 0.7952755905511811,
                    "duration": 0.024096400000004792
                },
                {
                    "name": "A5",
                    "midi": 81,
                    "time": 101.32460898750055,
                    "velocity": 0.7952755905511811,
                    "duration": 0.024096400000004792
                },
                {
                    "name": "E6",
                    "midi": 88,
                    "time": 101.32460898750055,
                    "velocity": 0.7952755905511811,
                    "duration": 0.024096400000004792
                },
                {
                    "name": "G#3",
                    "midi": 56,
                    "time": 102.28921800000056,
                    "velocity": 0.7952755905511811,
                    "duration": 1.0843380000000025
                },
                {
                    "name": "G#4",
                    "midi": 68,
                    "time": 102.28921800000056,
                    "velocity": 0.7952755905511811,
                    "duration": 1.0843380000000025
                },
                {
                    "name": "F#3",
                    "midi": 54,
                    "time": 103.37355600000056,
                    "velocity": 0.7952755905511811,
                    "duration": 0.3614460000000008
                },
                {
                    "name": "F#4",
                    "midi": 66,
                    "time": 103.37355600000056,
                    "velocity": 0.7952755905511811,
                    "duration": 0.3614460000000008
                },
                {
                    "name": "G#3",
                    "midi": 56,
                    "time": 103.73500200000056,
                    "velocity": 0.7952755905511811,
                    "duration": 1.0843380000000025
                },
                {
                    "name": "G#4",
                    "midi": 68,
                    "time": 103.73500200000056,
                    "velocity": 0.7952755905511811,
                    "duration": 1.0843380000000025
                },
                {
                    "name": "G3",
                    "midi": 55,
                    "time": 104.81934000000057,
                    "velocity": 0.7952755905511811,
                    "duration": 0.3614460000000008
                },
                {
                    "name": "G4",
                    "midi": 67,
                    "time": 104.81934000000057,
                    "velocity": 0.7952755905511811,
                    "duration": 0.3614460000000008
                },
                {
                    "name": "G#3",
                    "midi": 56,
                    "time": 105.18078600000057,
                    "velocity": 0.7952755905511811,
                    "duration": 0.3614460000000008
                },
                {
                    "name": "G#4",
                    "midi": 68,
                    "time": 105.18078600000057,
                    "velocity": 0.7952755905511811,
                    "duration": 0.3614460000000008
                },
                {
                    "name": "A#3",
                    "midi": 58,
                    "time": 105.54223200000057,
                    "velocity": 0.7952755905511811,
                    "duration": 0.3614460000000008
                },
                {
                    "name": "A#4",
                    "midi": 70,
                    "time": 105.54223200000057,
                    "velocity": 0.7952755905511811,
                    "duration": 0.3614460000000008
                },
                {
                    "name": "C#4",
                    "midi": 61,
                    "time": 105.90367800000057,
                    "velocity": 0.7952755905511811,
                    "duration": 0.3614460000000008
                },
                {
                    "name": "C#5",
                    "midi": 73,
                    "time": 105.90367800000057,
                    "velocity": 0.7952755905511811,
                    "duration": 0.3614460000000008
                },
                {
                    "name": "A#3",
                    "midi": 58,
                    "time": 106.26512400000057,
                    "velocity": 0.7952755905511811,
                    "duration": 0.3614460000000008
                },
                {
                    "name": "A#4",
                    "midi": 70,
                    "time": 106.26512400000057,
                    "velocity": 0.7952755905511811,
                    "duration": 0.3614460000000008
                },
                {
                    "name": "G#3",
                    "midi": 56,
                    "time": 106.62657000000057,
                    "velocity": 0.7952755905511811,
                    "duration": 1.0843380000000025
                },
                {
                    "name": "G#4",
                    "midi": 68,
                    "time": 106.62657000000057,
                    "velocity": 0.7952755905511811,
                    "duration": 1.0843380000000025
                },
                {
                    "name": "G3",
                    "midi": 55,
                    "time": 107.71090800000057,
                    "velocity": 0.7952755905511811,
                    "duration": 0.3614460000000008
                },
                {
                    "name": "G4",
                    "midi": 67,
                    "time": 107.71090800000057,
                    "velocity": 0.7952755905511811,
                    "duration": 0.3614460000000008
                },
                {
                    "name": "G#3",
                    "midi": 56,
                    "time": 108.07235400000057,
                    "velocity": 0.7952755905511811,
                    "duration": 1.0843380000000025
                },
                {
                    "name": "G#4",
                    "midi": 68,
                    "time": 108.07235400000057,
                    "velocity": 0.7952755905511811,
                    "duration": 1.0843380000000025
                },
                {
                    "name": "G3",
                    "midi": 55,
                    "time": 109.15669200000058,
                    "velocity": 0.7952755905511811,
                    "duration": 0.3614460000000008
                },
                {
                    "name": "G4",
                    "midi": 67,
                    "time": 109.15669200000058,
                    "velocity": 0.7952755905511811,
                    "duration": 0.3614460000000008
                },
                {
                    "name": "G#3",
                    "midi": 56,
                    "time": 109.51813800000058,
                    "velocity": 0.7952755905511811,
                    "duration": 1.0843380000000025
                },
                {
                    "name": "G#4",
                    "midi": 68,
                    "time": 109.51813800000058,
                    "velocity": 0.7952755905511811,
                    "duration": 1.0843380000000025
                },
                {
                    "name": "F#3",
                    "midi": 54,
                    "time": 110.60247600000058,
                    "velocity": 0.7952755905511811,
                    "duration": 0.3614460000000008
                },
                {
                    "name": "F#4",
                    "midi": 66,
                    "time": 110.60247600000058,
                    "velocity": 0.7952755905511811,
                    "duration": 0.3614460000000008
                },
                {
                    "name": "G#3",
                    "midi": 56,
                    "time": 110.96392200000058,
                    "velocity": 1,
                    "duration": 0.3614460000000008
                },
                {
                    "name": "G#4",
                    "midi": 68,
                    "time": 110.96392200000058,
                    "velocity": 1,
                    "duration": 0.3614460000000008
                },
                {
                    "name": "A#3",
                    "midi": 58,
                    "time": 111.32536800000058,
                    "velocity": 1,
                    "duration": 0.3614460000000008
                },
                {
                    "name": "A#4",
                    "midi": 70,
                    "time": 111.32536800000058,
                    "velocity": 1,
                    "duration": 0.3614460000000008
                },
                {
                    "name": "C#4",
                    "midi": 61,
                    "time": 111.68681400000058,
                    "velocity": 1,
                    "duration": 0.3614460000000008
                },
                {
                    "name": "C#5",
                    "midi": 73,
                    "time": 111.68681400000058,
                    "velocity": 1,
                    "duration": 0.3614460000000008
                },
                {
                    "name": "A#3",
                    "midi": 58,
                    "time": 112.04826000000058,
                    "velocity": 1,
                    "duration": 0.3614460000000008
                },
                {
                    "name": "A#4",
                    "midi": 70,
                    "time": 112.04826000000058,
                    "velocity": 1,
                    "duration": 0.3614460000000008
                },
                {
                    "name": "G#3",
                    "midi": 56,
                    "time": 112.40970600000058,
                    "velocity": 0.7952755905511811,
                    "duration": 1.0843380000000025
                },
                {
                    "name": "G#4",
                    "midi": 68,
                    "time": 112.40970600000058,
                    "velocity": 0.7952755905511811,
                    "duration": 1.0843380000000025
                },
                {
                    "name": "G3",
                    "midi": 55,
                    "time": 113.49404400000059,
                    "velocity": 0.7952755905511811,
                    "duration": 0.3614460000000008
                },
                {
                    "name": "G4",
                    "midi": 67,
                    "time": 113.49404400000059,
                    "velocity": 0.7952755905511811,
                    "duration": 0.3614460000000008
                },
                {
                    "name": "G#3",
                    "midi": 56,
                    "time": 113.85549000000059,
                    "velocity": 0.7952755905511811,
                    "duration": 1.0843380000000025
                },
                {
                    "name": "G#4",
                    "midi": 68,
                    "time": 113.85549000000059,
                    "velocity": 0.7952755905511811,
                    "duration": 1.0843380000000025
                },
                {
                    "name": "F#3",
                    "midi": 54,
                    "time": 114.93982800000059,
                    "velocity": 0.7952755905511811,
                    "duration": 0.3614460000000008
                },
                {
                    "name": "F#4",
                    "midi": 66,
                    "time": 114.93982800000059,
                    "velocity": 0.7952755905511811,
                    "duration": 0.3614460000000008
                },
                {
                    "name": "G#3",
                    "midi": 56,
                    "time": 115.30127400000059,
                    "velocity": 0.7952755905511811,
                    "duration": 1.0843380000000025
                },
                {
                    "name": "G#4",
                    "midi": 68,
                    "time": 115.30127400000059,
                    "velocity": 0.7952755905511811,
                    "duration": 1.0843380000000025
                },
                {
                    "name": "F#3",
                    "midi": 54,
                    "time": 116.38561200000059,
                    "velocity": 0.7952755905511811,
                    "duration": 0.3614460000000008
                },
                {
                    "name": "F#4",
                    "midi": 66,
                    "time": 116.38561200000059,
                    "velocity": 0.7952755905511811,
                    "duration": 0.3614460000000008
                },
                {
                    "name": "G#3",
                    "midi": 56,
                    "time": 116.74705800000059,
                    "velocity": 0.7952755905511811,
                    "duration": 0.3614460000000008
                },
                {
                    "name": "G#4",
                    "midi": 68,
                    "time": 116.74705800000059,
                    "velocity": 0.7952755905511811,
                    "duration": 0.3614460000000008
                },
                {
                    "name": "A#3",
                    "midi": 58,
                    "time": 117.1085040000006,
                    "velocity": 0.7952755905511811,
                    "duration": 0.3614460000000008
                },
                {
                    "name": "A#4",
                    "midi": 70,
                    "time": 117.1085040000006,
                    "velocity": 0.7952755905511811,
                    "duration": 0.3614460000000008
                },
                {
                    "name": "C#4",
                    "midi": 61,
                    "time": 117.4699500000006,
                    "velocity": 0.7952755905511811,
                    "duration": 0.3614460000000008
                },
                {
                    "name": "C#5",
                    "midi": 73,
                    "time": 117.4699500000006,
                    "velocity": 0.7952755905511811,
                    "duration": 0.3614460000000008
                },
                {
                    "name": "A#3",
                    "midi": 58,
                    "time": 117.8313960000006,
                    "velocity": 0.7952755905511811,
                    "duration": 0.3614460000000008
                },
                {
                    "name": "A#4",
                    "midi": 70,
                    "time": 117.8313960000006,
                    "velocity": 0.7952755905511811,
                    "duration": 0.3614460000000008
                },
                {
                    "name": "G#3",
                    "midi": 56,
                    "time": 118.1928420000006,
                    "velocity": 0.7952755905511811,
                    "duration": 1.0843380000000025
                },
                {
                    "name": "G#4",
                    "midi": 68,
                    "time": 118.1928420000006,
                    "velocity": 0.7952755905511811,
                    "duration": 1.0843380000000025
                },
                {
                    "name": "G3",
                    "midi": 55,
                    "time": 119.2771800000006,
                    "velocity": 0.7952755905511811,
                    "duration": 0.3614460000000008
                },
                {
                    "name": "G4",
                    "midi": 67,
                    "time": 119.2771800000006,
                    "velocity": 0.7952755905511811,
                    "duration": 0.3614460000000008
                },
                {
                    "name": "G#3",
                    "midi": 56,
                    "time": 119.6386260000006,
                    "velocity": 0.7952755905511811,
                    "duration": 1.0843380000000025
                },
                {
                    "name": "G#4",
                    "midi": 68,
                    "time": 119.6386260000006,
                    "velocity": 0.7952755905511811,
                    "duration": 1.0843380000000025
                },
                {
                    "name": "F#3",
                    "midi": 54,
                    "time": 120.7229640000006,
                    "velocity": 0.7952755905511811,
                    "duration": 0.3614460000000008
                },
                {
                    "name": "F#4",
                    "midi": 66,
                    "time": 120.7229640000006,
                    "velocity": 0.7952755905511811,
                    "duration": 0.3614460000000008
                },
                {
                    "name": "G#3",
                    "midi": 56,
                    "time": 121.0844100000006,
                    "velocity": 0.7952755905511811,
                    "duration": 1.0843380000000025
                },
                {
                    "name": "G#4",
                    "midi": 68,
                    "time": 121.0844100000006,
                    "velocity": 0.7952755905511811,
                    "duration": 1.0843380000000025
                },
                {
                    "name": "F#3",
                    "midi": 54,
                    "time": 122.1687480000006,
                    "velocity": 0.7952755905511811,
                    "duration": 0.3614460000000008
                },
                {
                    "name": "F#4",
                    "midi": 66,
                    "time": 122.1687480000006,
                    "velocity": 0.7952755905511811,
                    "duration": 0.3614460000000008
                },
                {
                    "name": "G#3",
                    "midi": 56,
                    "time": 122.5301940000006,
                    "velocity": 0.7952755905511811,
                    "duration": 0.3614460000000008
                },
                {
                    "name": "G#4",
                    "midi": 68,
                    "time": 122.5301940000006,
                    "velocity": 0.7952755905511811,
                    "duration": 0.3614460000000008
                },
                {
                    "name": "A#3",
                    "midi": 58,
                    "time": 122.8916400000006,
                    "velocity": 0.7952755905511811,
                    "duration": 0.3614460000000008
                },
                {
                    "name": "A#4",
                    "midi": 70,
                    "time": 122.8916400000006,
                    "velocity": 0.7952755905511811,
                    "duration": 0.3614460000000008
                },
                {
                    "name": "C#4",
                    "midi": 61,
                    "time": 123.25308600000061,
                    "velocity": 0.7952755905511811,
                    "duration": 0.3614460000000008
                },
                {
                    "name": "C#5",
                    "midi": 73,
                    "time": 123.25308600000061,
                    "velocity": 0.7952755905511811,
                    "duration": 0.3614460000000008
                },
                {
                    "name": "A#3",
                    "midi": 58,
                    "time": 123.61453200000061,
                    "velocity": 0.7952755905511811,
                    "duration": 0.3614460000000008
                },
                {
                    "name": "A#4",
                    "midi": 70,
                    "time": 123.61453200000061,
                    "velocity": 0.7952755905511811,
                    "duration": 0.3614460000000008
                },
                {
                    "name": "F#4",
                    "midi": 66,
                    "time": 123.97597800000061,
                    "velocity": 1,
                    "duration": 0.3614460000000008
                },
                {
                    "name": "F#5",
                    "midi": 78,
                    "time": 123.97597800000061,
                    "velocity": 1,
                    "duration": 0.3614460000000008
                },
                {
                    "name": "D5",
                    "midi": 74,
                    "time": 124.33742400000061,
                    "velocity": 1,
                    "duration": 0.3614460000000008
                },
                {
                    "name": "D6",
                    "midi": 86,
                    "time": 124.33742400000061,
                    "velocity": 1,
                    "duration": 0.3614460000000008
                },
                {
                    "name": "D4",
                    "midi": 62,
                    "time": 124.69887000000061,
                    "velocity": 1,
                    "duration": 0.3614460000000008
                },
                {
                    "name": "A#4",
                    "midi": 70,
                    "time": 125.06031600000061,
                    "velocity": 1,
                    "duration": 0.3614460000000008
                },
                {
                    "name": "G#4",
                    "midi": 68,
                    "time": 125.42176200000061,
                    "velocity": 1,
                    "duration": 0.3614460000000008
                },
                {
                    "name": "G#5",
                    "midi": 80,
                    "time": 125.42176200000061,
                    "velocity": 1,
                    "duration": 0.3614460000000008
                },
                {
                    "name": "D5",
                    "midi": 74,
                    "time": 125.78320800000061,
                    "velocity": 1,
                    "duration": 0.3614460000000008
                },
                {
                    "name": "D6",
                    "midi": 86,
                    "time": 125.78320800000061,
                    "velocity": 1,
                    "duration": 0.3614460000000008
                },
                {
                    "name": "F4",
                    "midi": 65,
                    "time": 126.14465400000061,
                    "velocity": 1,
                    "duration": 0.3614460000000008
                },
                {
                    "name": "B4",
                    "midi": 71,
                    "time": 126.50610000000061,
                    "velocity": 1,
                    "duration": 0.3614460000000008
                },
                {
                    "name": "F#4",
                    "midi": 66,
                    "time": 126.86754600000062,
                    "velocity": 1,
                    "duration": 0.3614460000000008
                },
                {
                    "name": "F#5",
                    "midi": 78,
                    "time": 126.86754600000062,
                    "velocity": 1,
                    "duration": 0.3614460000000008
                },
                {
                    "name": "D5",
                    "midi": 74,
                    "time": 127.22899200000062,
                    "velocity": 1,
                    "duration": 0.3614460000000008
                },
                {
                    "name": "D6",
                    "midi": 86,
                    "time": 127.22899200000062,
                    "velocity": 1,
                    "duration": 0.3614460000000008
                },
                {
                    "name": "D4",
                    "midi": 62,
                    "time": 127.59043800000062,
                    "velocity": 1,
                    "duration": 0.3614460000000008
                },
                {
                    "name": "A#4",
                    "midi": 70,
                    "time": 127.95188400000062,
                    "velocity": 1,
                    "duration": 0.3614459999999866
                },
                {
                    "name": "G#4",
                    "midi": 68,
                    "time": 128.3133300000006,
                    "velocity": 1,
                    "duration": 0.3614460000000008
                },
                {
                    "name": "G#5",
                    "midi": 80,
                    "time": 128.3133300000006,
                    "velocity": 1,
                    "duration": 0.3614460000000008
                },
                {
                    "name": "D5",
                    "midi": 74,
                    "time": 128.6747760000006,
                    "velocity": 1,
                    "duration": 0.3614460000000008
                },
                {
                    "name": "D6",
                    "midi": 86,
                    "time": 128.6747760000006,
                    "velocity": 1,
                    "duration": 0.3614460000000008
                },
                {
                    "name": "F4",
                    "midi": 65,
                    "time": 129.0362220000006,
                    "velocity": 1,
                    "duration": 0.3614460000000008
                },
                {
                    "name": "B4",
                    "midi": 71,
                    "time": 129.3976680000006,
                    "velocity": 1,
                    "duration": 0.3614460000000008
                },
                {
                    "name": "F#4",
                    "midi": 66,
                    "time": 129.7591140000006,
                    "velocity": 1,
                    "duration": 0.3614460000000008
                },
                {
                    "name": "F#5",
                    "midi": 78,
                    "time": 129.7591140000006,
                    "velocity": 1,
                    "duration": 0.3614460000000008
                },
                {
                    "name": "D5",
                    "midi": 74,
                    "time": 130.1205600000006,
                    "velocity": 1,
                    "duration": 0.3614460000000008
                },
                {
                    "name": "D6",
                    "midi": 86,
                    "time": 130.1205600000006,
                    "velocity": 1,
                    "duration": 0.3614460000000008
                },
                {
                    "name": "D4",
                    "midi": 62,
                    "time": 130.4820060000006,
                    "velocity": 1,
                    "duration": 0.3614460000000008
                },
                {
                    "name": "A#4",
                    "midi": 70,
                    "time": 130.8434520000006,
                    "velocity": 1,
                    "duration": 0.3614460000000008
                },
                {
                    "name": "G#4",
                    "midi": 68,
                    "time": 131.2048980000006,
                    "velocity": 1,
                    "duration": 0.3614460000000008
                },
                {
                    "name": "G#5",
                    "midi": 80,
                    "time": 131.2048980000006,
                    "velocity": 1,
                    "duration": 0.3614460000000008
                },
                {
                    "name": "D5",
                    "midi": 74,
                    "time": 131.5663440000006,
                    "velocity": 1,
                    "duration": 0.3614460000000008
                },
                {
                    "name": "D6",
                    "midi": 86,
                    "time": 131.5663440000006,
                    "velocity": 1,
                    "duration": 0.3614460000000008
                },
                {
                    "name": "F4",
                    "midi": 65,
                    "time": 131.9277900000006,
                    "velocity": 1,
                    "duration": 0.3614460000000008
                },
                {
                    "name": "B4",
                    "midi": 71,
                    "time": 132.2892360000006,
                    "velocity": 1,
                    "duration": 0.3614460000000008
                },
                {
                    "name": "F#4",
                    "midi": 66,
                    "time": 132.65068200000061,
                    "velocity": 1,
                    "duration": 0.3614460000000008
                },
                {
                    "name": "F#5",
                    "midi": 78,
                    "time": 132.65068200000061,
                    "velocity": 1,
                    "duration": 0.3614460000000008
                },
                {
                    "name": "D5",
                    "midi": 74,
                    "time": 133.01212800000062,
                    "velocity": 1,
                    "duration": 0.3614460000000008
                },
                {
                    "name": "D6",
                    "midi": 86,
                    "time": 133.01212800000062,
                    "velocity": 1,
                    "duration": 0.3614460000000008
                },
                {
                    "name": "D4",
                    "midi": 62,
                    "time": 133.37357400000062,
                    "velocity": 1,
                    "duration": 0.3614460000000008
                },
                {
                    "name": "A#4",
                    "midi": 70,
                    "time": 133.73502000000062,
                    "velocity": 1,
                    "duration": 0.3614460000000008
                },
                {
                    "name": "G#4",
                    "midi": 68,
                    "time": 134.09646600000062,
                    "velocity": 1,
                    "duration": 0.3614460000000008
                },
                {
                    "name": "G#5",
                    "midi": 80,
                    "time": 134.09646600000062,
                    "velocity": 1,
                    "duration": 0.3614460000000008
                },
                {
                    "name": "D5",
                    "midi": 74,
                    "time": 134.45791200000062,
                    "velocity": 1,
                    "duration": 0.3614460000000008
                },
                {
                    "name": "D6",
                    "midi": 86,
                    "time": 134.45791200000062,
                    "velocity": 1,
                    "duration": 0.3614460000000008
                },
                {
                    "name": "F4",
                    "midi": 65,
                    "time": 134.81935800000062,
                    "velocity": 1,
                    "duration": 0.3614460000000008
                },
                {
                    "name": "B4",
                    "midi": 71,
                    "time": 135.18080400000062,
                    "velocity": 1,
                    "duration": 0.3614460000000008
                },
                {
                    "name": "F#4",
                    "midi": 66,
                    "time": 135.54225000000062,
                    "velocity": 1,
                    "duration": 0.3614460000000008
                },
                {
                    "name": "F#5",
                    "midi": 78,
                    "time": 135.54225000000062,
                    "velocity": 1,
                    "duration": 0.3614460000000008
                },
                {
                    "name": "D5",
                    "midi": 74,
                    "time": 135.90369600000062,
                    "velocity": 1,
                    "duration": 0.3614460000000008
                },
                {
                    "name": "D6",
                    "midi": 86,
                    "time": 135.90369600000062,
                    "velocity": 1,
                    "duration": 0.3614460000000008
                },
                {
                    "name": "D4",
                    "midi": 62,
                    "time": 136.26514200000062,
                    "velocity": 1,
                    "duration": 0.3614460000000008
                },
                {
                    "name": "A#4",
                    "midi": 70,
                    "time": 136.62658800000062,
                    "velocity": 1,
                    "duration": 0.3614460000000008
                },
                {
                    "name": "G#4",
                    "midi": 68,
                    "time": 136.98803400000062,
                    "velocity": 1,
                    "duration": 0.3614460000000008
                },
                {
                    "name": "G#5",
                    "midi": 80,
                    "time": 136.98803400000062,
                    "velocity": 1,
                    "duration": 0.3614460000000008
                },
                {
                    "name": "D5",
                    "midi": 74,
                    "time": 137.34948000000063,
                    "velocity": 1,
                    "duration": 0.3614460000000008
                },
                {
                    "name": "D6",
                    "midi": 86,
                    "time": 137.34948000000063,
                    "velocity": 1,
                    "duration": 0.3614460000000008
                },
                {
                    "name": "F4",
                    "midi": 65,
                    "time": 137.71092600000063,
                    "velocity": 1,
                    "duration": 0.3614460000000008
                },
                {
                    "name": "B4",
                    "midi": 71,
                    "time": 138.07237200000063,
                    "velocity": 1,
                    "duration": 0.3614460000000008
                },
                {
                    "name": "F#4",
                    "midi": 66,
                    "time": 138.43381800000063,
                    "velocity": 1,
                    "duration": 0.3614460000000008
                },
                {
                    "name": "F#5",
                    "midi": 78,
                    "time": 138.43381800000063,
                    "velocity": 1,
                    "duration": 0.3614460000000008
                },
                {
                    "name": "D5",
                    "midi": 74,
                    "time": 138.79526400000063,
                    "velocity": 1,
                    "duration": 0.3614460000000008
                },
                {
                    "name": "D6",
                    "midi": 86,
                    "time": 138.79526400000063,
                    "velocity": 1,
                    "duration": 0.3614460000000008
                },
                {
                    "name": "D4",
                    "midi": 62,
                    "time": 139.15671000000063,
                    "velocity": 1,
                    "duration": 0.3614460000000008
                },
                {
                    "name": "A#4",
                    "midi": 70,
                    "time": 139.51815600000063,
                    "velocity": 1,
                    "duration": 0.3614460000000008
                },
                {
                    "name": "G#4",
                    "midi": 68,
                    "time": 139.87960200000063,
                    "velocity": 1,
                    "duration": 0.3614460000000008
                },
                {
                    "name": "G#5",
                    "midi": 80,
                    "time": 139.87960200000063,
                    "velocity": 1,
                    "duration": 0.3614460000000008
                },
                {
                    "name": "D5",
                    "midi": 74,
                    "time": 140.24104800000063,
                    "velocity": 1,
                    "duration": 0.3614460000000008
                },
                {
                    "name": "D6",
                    "midi": 86,
                    "time": 140.24104800000063,
                    "velocity": 1,
                    "duration": 0.3614460000000008
                },
                {
                    "name": "F4",
                    "midi": 65,
                    "time": 140.60249400000063,
                    "velocity": 1,
                    "duration": 0.3614460000000008
                },
                {
                    "name": "B4",
                    "midi": 71,
                    "time": 140.96394000000063,
                    "velocity": 1,
                    "duration": 0.3614460000000008
                }
            ],
            "controlChanges": {
                "7": [
                    {
                        "number": 7,
                        "time": 0,
                        "value": 1
                    }
                ],
                "10": [
                    {
                        "number": 10,
                        "time": 0,
                        "value": 0.7637795275590551
                    }
                ],
                "64": [
                    {
                        "number": 64,
                        "time": 31.80724800000004,
                        "value": 1
                    },
                    {
                        "number": 64,
                        "time": 33.07230900000004,
                        "value": 0
                    },
                    {
                        "number": 64,
                        "time": 33.25303200000004,
                        "value": 1
                    },
                    {
                        "number": 64,
                        "time": 34.51809300000004,
                        "value": 0
                    },
                    {
                        "number": 64,
                        "time": 35.060262000000044,
                        "value": 1
                    },
                    {
                        "number": 64,
                        "time": 35.78315400000004,
                        "value": 0
                    },
                    {
                        "number": 64,
                        "time": 36.14460000000004,
                        "value": 1
                    },
                    {
                        "number": 64,
                        "time": 37.951830000000044,
                        "value": 0
                    },
                    {
                        "number": 64,
                        "time": 42.289182000000054,
                        "value": 1
                    },
                    {
                        "number": 64,
                        "time": 43.554243000000056,
                        "value": 0
                    },
                    {
                        "number": 64,
                        "time": 43.73496600000006,
                        "value": 1
                    },
                    {
                        "number": 64,
                        "time": 45.54219600000006,
                        "value": 0
                    },
                    {
                        "number": 64,
                        "time": 45.90364200000006,
                        "value": 1
                    },
                    {
                        "number": 64,
                        "time": 46.987980000000064,
                        "value": 0
                    },
                    {
                        "number": 64,
                        "time": 47.710872000000066,
                        "value": 1
                    },
                    {
                        "number": 64,
                        "time": 48.97593300000007,
                        "value": 0
                    },
                    {
                        "number": 64,
                        "time": 49.15665600000007,
                        "value": 1
                    },
                    {
                        "number": 64,
                        "time": 50.60244000000007,
                        "value": 0
                    },
                    {
                        "number": 64,
                        "time": 50.96388600000007,
                        "value": 1
                    },
                    {
                        "number": 64,
                        "time": 52.228947000000076,
                        "value": 0
                    },
                    {
                        "number": 64,
                        "time": 75.18076800000011,
                        "value": 1
                    },
                    {
                        "number": 64,
                        "time": 75.84266598750017,
                        "value": 0
                    },
                    {
                        "number": 64,
                        "time": 75.90366000000017,
                        "value": 1
                    },
                    {
                        "number": 64,
                        "time": 78.01134198750034,
                        "value": 0
                    },
                    {
                        "number": 64,
                        "time": 84.57836400000039,
                        "value": 1
                    },
                    {
                        "number": 64,
                        "time": 86.2952325000004,
                        "value": 0
                    },
                    {
                        "number": 64,
                        "time": 86.3855940000004,
                        "value": 1
                    },
                    {
                        "number": 64,
                        "time": 88.5542700000004,
                        "value": 0
                    },
                    {
                        "number": 64,
                        "time": 93.29824875000041,
                        "value": 1
                    },
                    {
                        "number": 64,
                        "time": 93.61451400000041,
                        "value": 0
                    },
                    {
                        "number": 64,
                        "time": 141.32538600000063,
                        "value": 1
                    },
                    {
                        "number": 64,
                        "time": 143.13261600000064,
                        "value": 0
                    }
                ]
            },
            "id": 1,
            "name": "Grand Piano",
            "instrumentNumber": 0,
            "instrument": "acoustic grand piano",
            "instrumentFamily": "piano",
            "channelNumber": 0,
            "isPercussion": false
        },
        {
            "startTime": 0.542169,
            "duration": 141.32538600000012,
            "length": 280,
            "notes": [
                {
                    "name": "C3",
                    "midi": 48,
                    "time": 0.542169,
                    "velocity": 0.8976377952755905,
                    "duration": 0.36144600000000005
                },
                {
                    "name": "B3",
                    "midi": 59,
                    "time": 0.9036150000000001,
                    "velocity": 0.8976377952755905,
                    "duration": 0.36144599999999993
                },
                {
                    "name": "C3",
                    "midi": 48,
                    "time": 1.265061,
                    "velocity": 0.8976377952755905,
                    "duration": 0.36144599999999993
                },
                {
                    "name": "B3",
                    "midi": 59,
                    "time": 1.626507,
                    "velocity": 0.8976377952755905,
                    "duration": 0.18072299999999997
                },
                {
                    "name": "C3",
                    "midi": 48,
                    "time": 1.80723,
                    "velocity": 0.8976377952755905,
                    "duration": 0.03539158749999993
                },
                {
                    "name": "B3",
                    "midi": 59,
                    "time": 2.349399,
                    "velocity": 0.8976377952755905,
                    "duration": 0.36144599999999993
                },
                {
                    "name": "C3",
                    "midi": 48,
                    "time": 2.710845,
                    "velocity": 0.8976377952755905,
                    "duration": 0.36144599999999993
                },
                {
                    "name": "B3",
                    "midi": 59,
                    "time": 3.072291,
                    "velocity": 0.8976377952755905,
                    "duration": 0.18072299999999997
                },
                {
                    "name": "C3",
                    "midi": 48,
                    "time": 16.807239,
                    "velocity": 0.8976377952755905,
                    "duration": 0.3614460000000008
                },
                {
                    "name": "B3",
                    "midi": 59,
                    "time": 17.168685,
                    "velocity": 0.8976377952755905,
                    "duration": 0.3614460000000008
                },
                {
                    "name": "C3",
                    "midi": 48,
                    "time": 17.530131,
                    "velocity": 0.8976377952755905,
                    "duration": 0.3614460000000008
                },
                {
                    "name": "B3",
                    "midi": 59,
                    "time": 17.891577,
                    "velocity": 0.8976377952755905,
                    "duration": 0.1807230000000004
                },
                {
                    "name": "C3",
                    "midi": 48,
                    "time": 20.421699000000004,
                    "velocity": 0.8976377952755905,
                    "duration": 0.3614460000000008
                },
                {
                    "name": "B3",
                    "midi": 59,
                    "time": 20.783145000000005,
                    "velocity": 0.8976377952755905,
                    "duration": 0.3614460000000008
                },
                {
                    "name": "C3",
                    "midi": 48,
                    "time": 21.144591000000005,
                    "velocity": 0.8976377952755905,
                    "duration": 0.3614460000000008
                },
                {
                    "name": "B3",
                    "midi": 59,
                    "time": 21.506037000000006,
                    "velocity": 0.8976377952755905,
                    "duration": 0.1807230000000004
                },
                {
                    "name": "B3",
                    "midi": 59,
                    "time": 26.566281000000007,
                    "velocity": 0.8976377952755905,
                    "duration": 0.3614460000000008
                },
                {
                    "name": "C3",
                    "midi": 48,
                    "time": 26.927727000000008,
                    "velocity": 0.8976377952755905,
                    "duration": 0.3614460000000008
                },
                {
                    "name": "B3",
                    "midi": 59,
                    "time": 27.28917300000001,
                    "velocity": 0.8976377952755905,
                    "duration": 0.1807230000000004
                },
                {
                    "name": "C3",
                    "midi": 48,
                    "time": 27.46989600000001,
                    "velocity": 0.8976377952755905,
                    "duration": 0.1807230000000004
                },
                {
                    "name": "B3",
                    "midi": 59,
                    "time": 28.01206500000001,
                    "velocity": 0.8976377952755905,
                    "duration": 0.3614460000000008
                },
                {
                    "name": "C3",
                    "midi": 48,
                    "time": 28.37351100000001,
                    "velocity": 0.8976377952755905,
                    "duration": 0.3614460000000008
                },
                {
                    "name": "B3",
                    "midi": 59,
                    "time": 28.734957000000012,
                    "velocity": 0.8976377952755905,
                    "duration": 0.1807230000000004
                },
                {
                    "name": "F4",
                    "midi": 65,
                    "time": 49.15665600000001,
                    "velocity": 0.4881889763779528,
                    "duration": 2.168675999999998
                },
                {
                    "name": "F4",
                    "midi": 65,
                    "time": 51.32533200000001,
                    "velocity": 0.4881889763779528,
                    "duration": 1.0843380000000025
                },
                {
                    "name": "A#2",
                    "midi": 46,
                    "time": 54.48798450000001,
                    "velocity": 0.4881889763779528,
                    "duration": 0.029367487499996514
                },
                {
                    "name": "C3",
                    "midi": 48,
                    "time": 54.51735198750001,
                    "velocity": 0.4881889763779528,
                    "duration": 0.030873512500001254
                },
                {
                    "name": "D3",
                    "midi": 50,
                    "time": 54.54822550000001,
                    "velocity": 0.4881889763779528,
                    "duration": 0.030120500000002437
                },
                {
                    "name": "G2",
                    "midi": 43,
                    "time": 54.57834600000001,
                    "velocity": 0.4881889763779528,
                    "duration": 0.035391587500001265
                },
                {
                    "name": "D#3",
                    "midi": 51,
                    "time": 54.57834600000001,
                    "velocity": 0.4881889763779528,
                    "duration": 0.035391587500001265
                },
                {
                    "name": "D#3",
                    "midi": 51,
                    "time": 54.84943050000001,
                    "velocity": 0.4881889763779528,
                    "duration": 0.029367487499996514
                },
                {
                    "name": "F3",
                    "midi": 53,
                    "time": 54.87879798750001,
                    "velocity": 0.4881889763779528,
                    "duration": 0.030873512500001254
                },
                {
                    "name": "F#3",
                    "midi": 54,
                    "time": 54.90967150000001,
                    "velocity": 0.4881889763779528,
                    "duration": 0.030120500000002437
                },
                {
                    "name": "A#2",
                    "midi": 46,
                    "time": 54.93979200000001,
                    "velocity": 0.4881889763779528,
                    "duration": 0.035391587500001265
                },
                {
                    "name": "G3",
                    "midi": 55,
                    "time": 54.93979200000001,
                    "velocity": 0.4881889763779528,
                    "duration": 0.035391587500001265
                },
                {
                    "name": "G3",
                    "midi": 55,
                    "time": 55.21087650000001,
                    "velocity": 0.4881889763779528,
                    "duration": 0.029367487499996514
                },
                {
                    "name": "G#3",
                    "midi": 56,
                    "time": 55.24024398750001,
                    "velocity": 0.4881889763779528,
                    "duration": 0.030873512500001254
                },
                {
                    "name": "A3",
                    "midi": 57,
                    "time": 55.27111750000001,
                    "velocity": 0.4881889763779528,
                    "duration": 0.030120500000002437
                },
                {
                    "name": "D#3",
                    "midi": 51,
                    "time": 55.30123800000001,
                    "velocity": 0.4881889763779528,
                    "duration": 0.035391587500001265
                },
                {
                    "name": "A#3",
                    "midi": 58,
                    "time": 55.30123800000001,
                    "velocity": 0.4881889763779528,
                    "duration": 0.035391587500001265
                },
                {
                    "name": "A#3",
                    "midi": 58,
                    "time": 55.57232250000001,
                    "velocity": 0.5905511811023622,
                    "duration": 0.029367487499996514
                },
                {
                    "name": "C4",
                    "midi": 60,
                    "time": 55.60168998750001,
                    "velocity": 0.5905511811023622,
                    "duration": 0.030873512500001254
                },
                {
                    "name": "D4",
                    "midi": 62,
                    "time": 55.63256350000001,
                    "velocity": 0.5905511811023622,
                    "duration": 0.030120500000002437
                },
                {
                    "name": "G3",
                    "midi": 55,
                    "time": 55.66268400000001,
                    "velocity": 0.5905511811023622,
                    "duration": 0.035391587500001265
                },
                {
                    "name": "D#4",
                    "midi": 63,
                    "time": 55.66268400000001,
                    "velocity": 0.5905511811023622,
                    "duration": 0.035391587500001265
                },
                {
                    "name": "D#4",
                    "midi": 63,
                    "time": 55.93376850000001,
                    "velocity": 0.5905511811023622,
                    "duration": 0.029367487499996514
                },
                {
                    "name": "F4",
                    "midi": 65,
                    "time": 55.96313598750001,
                    "velocity": 0.5905511811023622,
                    "duration": 0.030873512500001254
                },
                {
                    "name": "F#4",
                    "midi": 66,
                    "time": 55.99400950000001,
                    "velocity": 0.5905511811023622,
                    "duration": 0.030120500000002437
                },
                {
                    "name": "A#3",
                    "midi": 58,
                    "time": 56.024130000000014,
                    "velocity": 0.5905511811023622,
                    "duration": 0.035391587500001265
                },
                {
                    "name": "G4",
                    "midi": 67,
                    "time": 56.024130000000014,
                    "velocity": 0.5905511811023622,
                    "duration": 0.035391587500001265
                },
                {
                    "name": "G4",
                    "midi": 67,
                    "time": 56.295214500000014,
                    "velocity": 0.5905511811023622,
                    "duration": 0.029367487499996514
                },
                {
                    "name": "G#4",
                    "midi": 68,
                    "time": 56.32458198750001,
                    "velocity": 0.5905511811023622,
                    "duration": 0.030873512500001254
                },
                {
                    "name": "A4",
                    "midi": 69,
                    "time": 56.35545550000001,
                    "velocity": 0.5905511811023622,
                    "duration": 0.030120500000002437
                },
                {
                    "name": "D#4",
                    "midi": 63,
                    "time": 56.385576000000015,
                    "velocity": 0.5905511811023622,
                    "duration": 0.035391587500001265
                },
                {
                    "name": "A#4",
                    "midi": 70,
                    "time": 56.385576000000015,
                    "velocity": 0.5905511811023622,
                    "duration": 0.035391587500001265
                },
                {
                    "name": "A#4",
                    "midi": 70,
                    "time": 56.656660500000015,
                    "velocity": 0.6929133858267716,
                    "duration": 0.029367487499996514
                },
                {
                    "name": "C5",
                    "midi": 72,
                    "time": 56.68602798750001,
                    "velocity": 0.6929133858267716,
                    "duration": 0.030873512500001254
                },
                {
                    "name": "D5",
                    "midi": 74,
                    "time": 56.71690150000001,
                    "velocity": 0.6929133858267716,
                    "duration": 0.030120500000002437
                },
                {
                    "name": "G4",
                    "midi": 67,
                    "time": 56.747022000000015,
                    "velocity": 0.6929133858267716,
                    "duration": 0.035391587500001265
                },
                {
                    "name": "D#5",
                    "midi": 75,
                    "time": 56.747022000000015,
                    "velocity": 0.6929133858267716,
                    "duration": 0.035391587500001265
                },
                {
                    "name": "G4",
                    "midi": 67,
                    "time": 86.38559400000003,
                    "velocity": 0.4881889763779528,
                    "duration": 0.1807230000000004
                },
                {
                    "name": "E5",
                    "midi": 76,
                    "time": 89.27716200000003,
                    "velocity": 0.5905511811023622,
                    "duration": 0.5421690000000012
                },
                {
                    "name": "G5",
                    "midi": 79,
                    "time": 89.27716200000003,
                    "velocity": 0.5905511811023622,
                    "duration": 0.5421690000000012
                },
                {
                    "name": "D5",
                    "midi": 74,
                    "time": 89.81933100000003,
                    "velocity": 0.5905511811023622,
                    "duration": 0.1807230000000004
                },
                {
                    "name": "F5",
                    "midi": 77,
                    "time": 89.81933100000003,
                    "velocity": 0.5905511811023622,
                    "duration": 0.1807230000000004
                },
                {
                    "name": "C5",
                    "midi": 72,
                    "time": 90.00005400000003,
                    "velocity": 0.5905511811023622,
                    "duration": 0.1807230000000004
                },
                {
                    "name": "E5",
                    "midi": 76,
                    "time": 90.00005400000003,
                    "velocity": 0.5905511811023622,
                    "duration": 0.1807230000000004
                },
                {
                    "name": "A#4",
                    "midi": 70,
                    "time": 90.18077700000003,
                    "velocity": 0.5905511811023622,
                    "duration": 0.1807230000000004
                },
                {
                    "name": "D5",
                    "midi": 74,
                    "time": 90.18077700000003,
                    "velocity": 0.5905511811023622,
                    "duration": 0.1807230000000004
                },
                {
                    "name": "C5",
                    "midi": 72,
                    "time": 90.36150000000004,
                    "velocity": 0.4881889763779528,
                    "duration": 0.1807230000000004
                },
                {
                    "name": "E5",
                    "midi": 76,
                    "time": 90.36150000000004,
                    "velocity": 0.4881889763779528,
                    "duration": 0.1807230000000004
                },
                {
                    "name": "D5",
                    "midi": 74,
                    "time": 90.54222300000004,
                    "velocity": 0.4881889763779528,
                    "duration": 0.1807230000000004
                },
                {
                    "name": "F5",
                    "midi": 77,
                    "time": 90.54222300000004,
                    "velocity": 0.4881889763779528,
                    "duration": 0.1807230000000004
                },
                {
                    "name": "E5",
                    "midi": 76,
                    "time": 90.72294600000004,
                    "velocity": 0.5905511811023622,
                    "duration": 0.5421690000000012
                },
                {
                    "name": "G5",
                    "midi": 79,
                    "time": 90.72294600000004,
                    "velocity": 0.5905511811023622,
                    "duration": 0.5421690000000012
                },
                {
                    "name": "D5",
                    "midi": 74,
                    "time": 91.26511500000004,
                    "velocity": 0.5905511811023622,
                    "duration": 0.1807230000000004
                },
                {
                    "name": "F5",
                    "midi": 77,
                    "time": 91.26511500000004,
                    "velocity": 0.5905511811023622,
                    "duration": 0.1807230000000004
                },
                {
                    "name": "C5",
                    "midi": 72,
                    "time": 91.44583800000004,
                    "velocity": 0.5905511811023622,
                    "duration": 0.1807230000000004
                },
                {
                    "name": "E5",
                    "midi": 76,
                    "time": 91.44583800000004,
                    "velocity": 0.5905511811023622,
                    "duration": 0.1807230000000004
                },
                {
                    "name": "A#4",
                    "midi": 70,
                    "time": 91.62656100000004,
                    "velocity": 0.4881889763779528,
                    "duration": 0.1807230000000004
                },
                {
                    "name": "D5",
                    "midi": 74,
                    "time": 91.62656100000004,
                    "velocity": 0.4881889763779528,
                    "duration": 0.1807230000000004
                },
                {
                    "name": "C5",
                    "midi": 72,
                    "time": 91.80728400000004,
                    "velocity": 0.4881889763779528,
                    "duration": 0.1807230000000004
                },
                {
                    "name": "E5",
                    "midi": 76,
                    "time": 91.80728400000004,
                    "velocity": 0.4881889763779528,
                    "duration": 0.1807230000000004
                },
                {
                    "name": "D5",
                    "midi": 74,
                    "time": 91.98800700000004,
                    "velocity": 0.4881889763779528,
                    "duration": 0.1807230000000004
                },
                {
                    "name": "F5",
                    "midi": 77,
                    "time": 91.98800700000004,
                    "velocity": 0.4881889763779528,
                    "duration": 0.1807230000000004
                },
                {
                    "name": "E5",
                    "midi": 76,
                    "time": 92.16873000000004,
                    "velocity": 0.4881889763779528,
                    "duration": 0.3614460000000008
                },
                {
                    "name": "G5",
                    "midi": 79,
                    "time": 92.16873000000004,
                    "velocity": 0.4881889763779528,
                    "duration": 0.3614460000000008
                },
                {
                    "name": "D5",
                    "midi": 74,
                    "time": 92.53017600000004,
                    "velocity": 0.4881889763779528,
                    "duration": 0.1807230000000004
                },
                {
                    "name": "F5",
                    "midi": 77,
                    "time": 92.53017600000004,
                    "velocity": 0.4881889763779528,
                    "duration": 0.1807230000000004
                },
                {
                    "name": "C5",
                    "midi": 72,
                    "time": 92.71089900000004,
                    "velocity": 0.4881889763779528,
                    "duration": 0.1807230000000004
                },
                {
                    "name": "E5",
                    "midi": 76,
                    "time": 92.71089900000004,
                    "velocity": 0.4881889763779528,
                    "duration": 0.1807230000000004
                },
                {
                    "name": "A#4",
                    "midi": 70,
                    "time": 92.89162200000004,
                    "velocity": 0.4881889763779528,
                    "duration": 0.3614460000000008
                },
                {
                    "name": "D5",
                    "midi": 74,
                    "time": 92.89162200000004,
                    "velocity": 0.4881889763779528,
                    "duration": 0.3614460000000008
                },
                {
                    "name": "D4",
                    "midi": 62,
                    "time": 102.28921800000003,
                    "velocity": 0.6929133858267716,
                    "duration": 1.4457840000000033
                },
                {
                    "name": "A4",
                    "midi": 69,
                    "time": 106.26512400000004,
                    "velocity": 0.6929133858267716,
                    "duration": 0.3614460000000008
                },
                {
                    "name": "D4",
                    "midi": 62,
                    "time": 106.62657000000004,
                    "velocity": 0.8976377952755905,
                    "duration": 0.3614460000000008
                },
                {
                    "name": "C4",
                    "midi": 60,
                    "time": 106.98801600000004,
                    "velocity": 0.8976377952755905,
                    "duration": 0.3614460000000008
                },
                {
                    "name": "D4",
                    "midi": 62,
                    "time": 107.34946200000005,
                    "velocity": 0.8976377952755905,
                    "duration": 1.4457840000000033
                },
                {
                    "name": "A4",
                    "midi": 69,
                    "time": 110.96392200000005,
                    "velocity": 0.6929133858267716,
                    "duration": 0.3614460000000008
                },
                {
                    "name": "D4",
                    "midi": 62,
                    "time": 111.32536800000005,
                    "velocity": 0.6929133858267716,
                    "duration": 0.3614460000000008
                },
                {
                    "name": "C5",
                    "midi": 72,
                    "time": 111.68681400000006,
                    "velocity": 0.6929133858267716,
                    "duration": 0.3614460000000008
                },
                {
                    "name": "D4",
                    "midi": 62,
                    "time": 112.04826000000006,
                    "velocity": 0.6929133858267716,
                    "duration": 0.3614460000000008
                },
                {
                    "name": "D4",
                    "midi": 62,
                    "time": 112.40970600000006,
                    "velocity": 0.6929133858267716,
                    "duration": 2.168676000000005
                },
                {
                    "name": "D4",
                    "midi": 62,
                    "time": 115.66272000000006,
                    "velocity": 0.8976377952755905,
                    "duration": 1.0843380000000025
                },
                {
                    "name": "A4",
                    "midi": 69,
                    "time": 117.46995000000007,
                    "velocity": 0.6929133858267716,
                    "duration": 0.3614460000000008
                },
                {
                    "name": "D4",
                    "midi": 62,
                    "time": 117.83139600000007,
                    "velocity": 0.6929133858267716,
                    "duration": 0.3614460000000008
                },
                {
                    "name": "C4",
                    "midi": 60,
                    "time": 118.19284200000007,
                    "velocity": 0.6929133858267716,
                    "duration": 0.3614460000000008
                },
                {
                    "name": "D4",
                    "midi": 62,
                    "time": 118.55428800000007,
                    "velocity": 0.6929133858267716,
                    "duration": 1.807230000000004
                },
                {
                    "name": "D4",
                    "midi": 62,
                    "time": 121.80730200000008,
                    "velocity": 0.6929133858267716,
                    "duration": 1.0843380000000025
                },
                {
                    "name": "A4",
                    "midi": 69,
                    "time": 122.89164000000008,
                    "velocity": 0.6929133858267716,
                    "duration": 0.3614460000000008
                },
                {
                    "name": "D5",
                    "midi": 74,
                    "time": 123.25308600000008,
                    "velocity": 0.6929133858267716,
                    "duration": 0.3614460000000008
                },
                {
                    "name": "C4",
                    "midi": 60,
                    "time": 123.61453200000008,
                    "velocity": 0.6929133858267716,
                    "duration": 0.3614460000000008
                },
                {
                    "name": "F#4",
                    "midi": 66,
                    "time": 123.97597800000008,
                    "velocity": 0.6929133858267716,
                    "duration": 0.1807230000000004
                },
                {
                    "name": "B4",
                    "midi": 71,
                    "time": 124.15670100000008,
                    "velocity": 0.6929133858267716,
                    "duration": 0.1807230000000004
                },
                {
                    "name": "D5",
                    "midi": 74,
                    "time": 124.15670100000008,
                    "velocity": 0.6929133858267716,
                    "duration": 0.1807230000000004
                },
                {
                    "name": "D5",
                    "midi": 74,
                    "time": 124.33742400000008,
                    "velocity": 0.6929133858267716,
                    "duration": 0.1807230000000004
                },
                {
                    "name": "F#5",
                    "midi": 78,
                    "time": 124.51814700000008,
                    "velocity": 0.6929133858267716,
                    "duration": 0.1807230000000004
                },
                {
                    "name": "A5",
                    "midi": 81,
                    "time": 124.51814700000008,
                    "velocity": 0.6929133858267716,
                    "duration": 0.1807230000000004
                },
                {
                    "name": "D4",
                    "midi": 62,
                    "time": 124.69887000000008,
                    "velocity": 0.6929133858267716,
                    "duration": 0.1807230000000004
                },
                {
                    "name": "G4",
                    "midi": 67,
                    "time": 124.87959300000009,
                    "velocity": 0.6929133858267716,
                    "duration": 0.1807230000000004
                },
                {
                    "name": "A#4",
                    "midi": 70,
                    "time": 124.87959300000009,
                    "velocity": 0.6929133858267716,
                    "duration": 0.1807230000000004
                },
                {
                    "name": "C#5",
                    "midi": 73,
                    "time": 124.87959300000009,
                    "velocity": 0.6929133858267716,
                    "duration": 0.1807230000000004
                },
                {
                    "name": "A#4",
                    "midi": 70,
                    "time": 125.06031600000009,
                    "velocity": 0.6929133858267716,
                    "duration": 0.1807230000000004
                },
                {
                    "name": "F5",
                    "midi": 77,
                    "time": 125.24103900000009,
                    "velocity": 0.6929133858267716,
                    "duration": 0.1807230000000004
                },
                {
                    "name": "G#5",
                    "midi": 80,
                    "time": 125.24103900000009,
                    "velocity": 0.6929133858267716,
                    "duration": 0.1807230000000004
                },
                {
                    "name": "B5",
                    "midi": 83,
                    "time": 125.24103900000009,
                    "velocity": 0.6929133858267716,
                    "duration": 0.1807230000000004
                },
                {
                    "name": "G#4",
                    "midi": 68,
                    "time": 125.42176200000009,
                    "velocity": 0.6929133858267716,
                    "duration": 0.1807230000000004
                },
                {
                    "name": "D5",
                    "midi": 74,
                    "time": 125.60248500000009,
                    "velocity": 0.6929133858267716,
                    "duration": 0.1807230000000004
                },
                {
                    "name": "F5",
                    "midi": 77,
                    "time": 125.60248500000009,
                    "velocity": 0.6929133858267716,
                    "duration": 0.1807230000000004
                },
                {
                    "name": "D5",
                    "midi": 74,
                    "time": 125.78320800000009,
                    "velocity": 0.6929133858267716,
                    "duration": 0.1807230000000004
                },
                {
                    "name": "F#5",
                    "midi": 78,
                    "time": 125.96393100000009,
                    "velocity": 0.6929133858267716,
                    "duration": 0.1807230000000004
                },
                {
                    "name": "G#5",
                    "midi": 80,
                    "time": 125.96393100000009,
                    "velocity": 0.6929133858267716,
                    "duration": 0.1807230000000004
                },
                {
                    "name": "F4",
                    "midi": 65,
                    "time": 126.14465400000009,
                    "velocity": 0.6929133858267716,
                    "duration": 0.1807230000000004
                },
                {
                    "name": "A4",
                    "midi": 69,
                    "time": 126.32537700000009,
                    "velocity": 0.6929133858267716,
                    "duration": 0.1807230000000004
                },
                {
                    "name": "C#5",
                    "midi": 73,
                    "time": 126.32537700000009,
                    "velocity": 0.6929133858267716,
                    "duration": 0.1807230000000004
                },
                {
                    "name": "E5",
                    "midi": 76,
                    "time": 126.32537700000009,
                    "velocity": 0.6929133858267716,
                    "duration": 0.1807230000000004
                },
                {
                    "name": "B4",
                    "midi": 71,
                    "time": 126.50610000000009,
                    "velocity": 0.6929133858267716,
                    "duration": 0.1807230000000004
                },
                {
                    "name": "F#5",
                    "midi": 78,
                    "time": 126.68682300000009,
                    "velocity": 0.6929133858267716,
                    "duration": 0.1807230000000004
                },
                {
                    "name": "A5",
                    "midi": 81,
                    "time": 126.68682300000009,
                    "velocity": 0.6929133858267716,
                    "duration": 0.1807230000000004
                },
                {
                    "name": "C6",
                    "midi": 84,
                    "time": 126.68682300000009,
                    "velocity": 0.6929133858267716,
                    "duration": 0.1807230000000004
                },
                {
                    "name": "F#4",
                    "midi": 66,
                    "time": 126.86754600000009,
                    "velocity": 0.6929133858267716,
                    "duration": 0.1807230000000004
                },
                {
                    "name": "B4",
                    "midi": 71,
                    "time": 127.04826900000009,
                    "velocity": 0.6929133858267716,
                    "duration": 0.1807230000000004
                },
                {
                    "name": "D5",
                    "midi": 74,
                    "time": 127.04826900000009,
                    "velocity": 0.6929133858267716,
                    "duration": 0.1807230000000004
                },
                {
                    "name": "D5",
                    "midi": 74,
                    "time": 127.22899200000009,
                    "velocity": 0.6929133858267716,
                    "duration": 0.1807230000000004
                },
                {
                    "name": "F#5",
                    "midi": 78,
                    "time": 127.40971500000009,
                    "velocity": 0.6929133858267716,
                    "duration": 0.1807230000000004
                },
                {
                    "name": "A5",
                    "midi": 81,
                    "time": 127.40971500000009,
                    "velocity": 0.6929133858267716,
                    "duration": 0.1807230000000004
                },
                {
                    "name": "D4",
                    "midi": 62,
                    "time": 127.59043800000009,
                    "velocity": 0.6929133858267716,
                    "duration": 0.1807230000000004
                },
                {
                    "name": "G4",
                    "midi": 67,
                    "time": 127.77116100000009,
                    "velocity": 0.6929133858267716,
                    "duration": 0.1807230000000004
                },
                {
                    "name": "A#4",
                    "midi": 70,
                    "time": 127.77116100000009,
                    "velocity": 0.6929133858267716,
                    "duration": 0.1807230000000004
                },
                {
                    "name": "C#5",
                    "midi": 73,
                    "time": 127.77116100000009,
                    "velocity": 0.6929133858267716,
                    "duration": 0.1807230000000004
                },
                {
                    "name": "A#4",
                    "midi": 70,
                    "time": 127.95188400000009,
                    "velocity": 0.6929133858267716,
                    "duration": 0.1807230000000004
                },
                {
                    "name": "F5",
                    "midi": 77,
                    "time": 128.1326070000001,
                    "velocity": 0.6929133858267716,
                    "duration": 0.1807230000000004
                },
                {
                    "name": "G#5",
                    "midi": 80,
                    "time": 128.1326070000001,
                    "velocity": 0.6929133858267716,
                    "duration": 0.1807230000000004
                },
                {
                    "name": "B5",
                    "midi": 83,
                    "time": 128.1326070000001,
                    "velocity": 0.6929133858267716,
                    "duration": 0.1807230000000004
                },
                {
                    "name": "G#4",
                    "midi": 68,
                    "time": 128.3133300000001,
                    "velocity": 0.6929133858267716,
                    "duration": 0.1807230000000004
                },
                {
                    "name": "D5",
                    "midi": 74,
                    "time": 128.4940530000001,
                    "velocity": 0.6929133858267716,
                    "duration": 0.1807230000000004
                },
                {
                    "name": "F5",
                    "midi": 77,
                    "time": 128.4940530000001,
                    "velocity": 0.6929133858267716,
                    "duration": 0.1807230000000004
                },
                {
                    "name": "D5",
                    "midi": 74,
                    "time": 128.6747760000001,
                    "velocity": 0.6929133858267716,
                    "duration": 0.1807230000000004
                },
                {
                    "name": "F#5",
                    "midi": 78,
                    "time": 128.8554990000001,
                    "velocity": 0.6929133858267716,
                    "duration": 0.1807230000000004
                },
                {
                    "name": "G#5",
                    "midi": 80,
                    "time": 128.8554990000001,
                    "velocity": 0.6929133858267716,
                    "duration": 0.1807230000000004
                },
                {
                    "name": "F4",
                    "midi": 65,
                    "time": 129.0362220000001,
                    "velocity": 0.6929133858267716,
                    "duration": 0.1807230000000004
                },
                {
                    "name": "A4",
                    "midi": 69,
                    "time": 129.2169450000001,
                    "velocity": 0.6929133858267716,
                    "duration": 0.1807230000000004
                },
                {
                    "name": "C#5",
                    "midi": 73,
                    "time": 129.2169450000001,
                    "velocity": 0.6929133858267716,
                    "duration": 0.1807230000000004
                },
                {
                    "name": "E5",
                    "midi": 76,
                    "time": 129.2169450000001,
                    "velocity": 0.6929133858267716,
                    "duration": 0.1807230000000004
                },
                {
                    "name": "B4",
                    "midi": 71,
                    "time": 129.3976680000001,
                    "velocity": 0.6929133858267716,
                    "duration": 0.1807230000000004
                },
                {
                    "name": "F#5",
                    "midi": 78,
                    "time": 129.5783910000001,
                    "velocity": 0.6929133858267716,
                    "duration": 0.1807230000000004
                },
                {
                    "name": "A5",
                    "midi": 81,
                    "time": 129.5783910000001,
                    "velocity": 0.6929133858267716,
                    "duration": 0.1807230000000004
                },
                {
                    "name": "C6",
                    "midi": 84,
                    "time": 129.5783910000001,
                    "velocity": 0.6929133858267716,
                    "duration": 0.1807230000000004
                },
                {
                    "name": "F#4",
                    "midi": 66,
                    "time": 129.7591140000001,
                    "velocity": 0.6929133858267716,
                    "duration": 0.1807230000000004
                },
                {
                    "name": "B4",
                    "midi": 71,
                    "time": 129.9398370000001,
                    "velocity": 0.6929133858267716,
                    "duration": 0.1807230000000004
                },
                {
                    "name": "D5",
                    "midi": 74,
                    "time": 129.9398370000001,
                    "velocity": 0.6929133858267716,
                    "duration": 0.1807230000000004
                },
                {
                    "name": "D5",
                    "midi": 74,
                    "time": 130.1205600000001,
                    "velocity": 0.6929133858267716,
                    "duration": 0.1807230000000004
                },
                {
                    "name": "F#5",
                    "midi": 78,
                    "time": 130.3012830000001,
                    "velocity": 0.6929133858267716,
                    "duration": 0.1807230000000004
                },
                {
                    "name": "A5",
                    "midi": 81,
                    "time": 130.3012830000001,
                    "velocity": 0.6929133858267716,
                    "duration": 0.1807230000000004
                },
                {
                    "name": "D4",
                    "midi": 62,
                    "time": 130.4820060000001,
                    "velocity": 0.6929133858267716,
                    "duration": 0.1807230000000004
                },
                {
                    "name": "G4",
                    "midi": 67,
                    "time": 130.6627290000001,
                    "velocity": 0.6929133858267716,
                    "duration": 0.1807230000000004
                },
                {
                    "name": "A#4",
                    "midi": 70,
                    "time": 130.6627290000001,
                    "velocity": 0.6929133858267716,
                    "duration": 0.1807230000000004
                },
                {
                    "name": "C#5",
                    "midi": 73,
                    "time": 130.6627290000001,
                    "velocity": 0.6929133858267716,
                    "duration": 0.1807230000000004
                },
                {
                    "name": "A#4",
                    "midi": 70,
                    "time": 130.8434520000001,
                    "velocity": 0.6929133858267716,
                    "duration": 0.1807230000000004
                },
                {
                    "name": "F5",
                    "midi": 77,
                    "time": 131.0241750000001,
                    "velocity": 0.6929133858267716,
                    "duration": 0.1807230000000004
                },
                {
                    "name": "G#5",
                    "midi": 80,
                    "time": 131.0241750000001,
                    "velocity": 0.6929133858267716,
                    "duration": 0.1807230000000004
                },
                {
                    "name": "B5",
                    "midi": 83,
                    "time": 131.0241750000001,
                    "velocity": 0.6929133858267716,
                    "duration": 0.1807230000000004
                },
                {
                    "name": "G#4",
                    "midi": 68,
                    "time": 131.2048980000001,
                    "velocity": 0.6929133858267716,
                    "duration": 0.1807230000000004
                },
                {
                    "name": "D5",
                    "midi": 74,
                    "time": 131.3856210000001,
                    "velocity": 0.6929133858267716,
                    "duration": 0.1807230000000004
                },
                {
                    "name": "F5",
                    "midi": 77,
                    "time": 131.3856210000001,
                    "velocity": 0.6929133858267716,
                    "duration": 0.1807230000000004
                },
                {
                    "name": "D5",
                    "midi": 74,
                    "time": 131.5663440000001,
                    "velocity": 0.6929133858267716,
                    "duration": 0.1807230000000004
                },
                {
                    "name": "F#5",
                    "midi": 78,
                    "time": 131.7470670000001,
                    "velocity": 0.6929133858267716,
                    "duration": 0.1807230000000004
                },
                {
                    "name": "G#5",
                    "midi": 80,
                    "time": 131.7470670000001,
                    "velocity": 0.6929133858267716,
                    "duration": 0.1807230000000004
                },
                {
                    "name": "F4",
                    "midi": 65,
                    "time": 131.9277900000001,
                    "velocity": 0.6929133858267716,
                    "duration": 0.1807230000000004
                },
                {
                    "name": "A4",
                    "midi": 69,
                    "time": 132.1085130000001,
                    "velocity": 0.6929133858267716,
                    "duration": 0.1807230000000004
                },
                {
                    "name": "C#5",
                    "midi": 73,
                    "time": 132.1085130000001,
                    "velocity": 0.6929133858267716,
                    "duration": 0.1807230000000004
                },
                {
                    "name": "E5",
                    "midi": 76,
                    "time": 132.1085130000001,
                    "velocity": 0.6929133858267716,
                    "duration": 0.1807230000000004
                },
                {
                    "name": "B4",
                    "midi": 71,
                    "time": 132.2892360000001,
                    "velocity": 0.6929133858267716,
                    "duration": 0.1807230000000004
                },
                {
                    "name": "F#5",
                    "midi": 78,
                    "time": 132.4699590000001,
                    "velocity": 0.6929133858267716,
                    "duration": 0.1807230000000004
                },
                {
                    "name": "A5",
                    "midi": 81,
                    "time": 132.4699590000001,
                    "velocity": 0.6929133858267716,
                    "duration": 0.1807230000000004
                },
                {
                    "name": "C6",
                    "midi": 84,
                    "time": 132.4699590000001,
                    "velocity": 0.6929133858267716,
                    "duration": 0.1807230000000004
                },
                {
                    "name": "F#4",
                    "midi": 66,
                    "time": 132.6506820000001,
                    "velocity": 0.6929133858267716,
                    "duration": 0.1807230000000004
                },
                {
                    "name": "B4",
                    "midi": 71,
                    "time": 132.8314050000001,
                    "velocity": 0.6929133858267716,
                    "duration": 0.1807230000000004
                },
                {
                    "name": "D5",
                    "midi": 74,
                    "time": 132.8314050000001,
                    "velocity": 0.6929133858267716,
                    "duration": 0.1807230000000004
                },
                {
                    "name": "D5",
                    "midi": 74,
                    "time": 133.0121280000001,
                    "velocity": 0.6929133858267716,
                    "duration": 0.1807230000000004
                },
                {
                    "name": "F#5",
                    "midi": 78,
                    "time": 133.1928510000001,
                    "velocity": 0.6929133858267716,
                    "duration": 0.1807230000000004
                },
                {
                    "name": "A5",
                    "midi": 81,
                    "time": 133.1928510000001,
                    "velocity": 0.6929133858267716,
                    "duration": 0.1807230000000004
                },
                {
                    "name": "D4",
                    "midi": 62,
                    "time": 133.3735740000001,
                    "velocity": 0.6929133858267716,
                    "duration": 0.1807230000000004
                },
                {
                    "name": "G4",
                    "midi": 67,
                    "time": 133.5542970000001,
                    "velocity": 0.6929133858267716,
                    "duration": 0.1807230000000004
                },
                {
                    "name": "A#4",
                    "midi": 70,
                    "time": 133.5542970000001,
                    "velocity": 0.6929133858267716,
                    "duration": 0.1807230000000004
                },
                {
                    "name": "C#5",
                    "midi": 73,
                    "time": 133.5542970000001,
                    "velocity": 0.6929133858267716,
                    "duration": 0.1807230000000004
                },
                {
                    "name": "A#4",
                    "midi": 70,
                    "time": 133.7350200000001,
                    "velocity": 0.6929133858267716,
                    "duration": 0.1807230000000004
                },
                {
                    "name": "F5",
                    "midi": 77,
                    "time": 133.9157430000001,
                    "velocity": 0.6929133858267716,
                    "duration": 0.1807230000000004
                },
                {
                    "name": "G#5",
                    "midi": 80,
                    "time": 133.9157430000001,
                    "velocity": 0.6929133858267716,
                    "duration": 0.1807230000000004
                },
                {
                    "name": "B5",
                    "midi": 83,
                    "time": 133.9157430000001,
                    "velocity": 0.6929133858267716,
                    "duration": 0.1807230000000004
                },
                {
                    "name": "G#4",
                    "midi": 68,
                    "time": 134.0964660000001,
                    "velocity": 0.6929133858267716,
                    "duration": 0.1807230000000004
                },
                {
                    "name": "D5",
                    "midi": 74,
                    "time": 134.2771890000001,
                    "velocity": 0.6929133858267716,
                    "duration": 0.1807230000000004
                },
                {
                    "name": "F5",
                    "midi": 77,
                    "time": 134.2771890000001,
                    "velocity": 0.6929133858267716,
                    "duration": 0.1807230000000004
                },
                {
                    "name": "D5",
                    "midi": 74,
                    "time": 134.4579120000001,
                    "velocity": 0.6929133858267716,
                    "duration": 0.1807230000000004
                },
                {
                    "name": "F#5",
                    "midi": 78,
                    "time": 134.6386350000001,
                    "velocity": 0.6929133858267716,
                    "duration": 0.1807230000000004
                },
                {
                    "name": "G#5",
                    "midi": 80,
                    "time": 134.6386350000001,
                    "velocity": 0.6929133858267716,
                    "duration": 0.1807230000000004
                },
                {
                    "name": "F4",
                    "midi": 65,
                    "time": 134.8193580000001,
                    "velocity": 0.6929133858267716,
                    "duration": 0.1807230000000004
                },
                {
                    "name": "A4",
                    "midi": 69,
                    "time": 135.0000810000001,
                    "velocity": 0.6929133858267716,
                    "duration": 0.1807230000000004
                },
                {
                    "name": "C#5",
                    "midi": 73,
                    "time": 135.0000810000001,
                    "velocity": 0.6929133858267716,
                    "duration": 0.1807230000000004
                },
                {
                    "name": "E5",
                    "midi": 76,
                    "time": 135.0000810000001,
                    "velocity": 0.6929133858267716,
                    "duration": 0.1807230000000004
                },
                {
                    "name": "B4",
                    "midi": 71,
                    "time": 135.1808040000001,
                    "velocity": 0.6929133858267716,
                    "duration": 0.1807230000000004
                },
                {
                    "name": "F#5",
                    "midi": 78,
                    "time": 135.3615270000001,
                    "velocity": 0.6929133858267716,
                    "duration": 0.1807230000000004
                },
                {
                    "name": "A5",
                    "midi": 81,
                    "time": 135.3615270000001,
                    "velocity": 0.6929133858267716,
                    "duration": 0.1807230000000004
                },
                {
                    "name": "C6",
                    "midi": 84,
                    "time": 135.3615270000001,
                    "velocity": 0.6929133858267716,
                    "duration": 0.1807230000000004
                },
                {
                    "name": "F#4",
                    "midi": 66,
                    "time": 135.5422500000001,
                    "velocity": 0.6929133858267716,
                    "duration": 0.1807230000000004
                },
                {
                    "name": "B4",
                    "midi": 71,
                    "time": 135.7229730000001,
                    "velocity": 0.6929133858267716,
                    "duration": 0.1807230000000004
                },
                {
                    "name": "D5",
                    "midi": 74,
                    "time": 135.7229730000001,
                    "velocity": 0.6929133858267716,
                    "duration": 0.1807230000000004
                },
                {
                    "name": "D5",
                    "midi": 74,
                    "time": 135.9036960000001,
                    "velocity": 0.6929133858267716,
                    "duration": 0.1807230000000004
                },
                {
                    "name": "F#5",
                    "midi": 78,
                    "time": 136.0844190000001,
                    "velocity": 0.6929133858267716,
                    "duration": 0.1807230000000004
                },
                {
                    "name": "A5",
                    "midi": 81,
                    "time": 136.0844190000001,
                    "velocity": 0.6929133858267716,
                    "duration": 0.1807230000000004
                },
                {
                    "name": "D4",
                    "midi": 62,
                    "time": 136.2651420000001,
                    "velocity": 0.6929133858267716,
                    "duration": 0.1807230000000004
                },
                {
                    "name": "G4",
                    "midi": 67,
                    "time": 136.4458650000001,
                    "velocity": 0.6929133858267716,
                    "duration": 0.1807230000000004
                },
                {
                    "name": "A#4",
                    "midi": 70,
                    "time": 136.4458650000001,
                    "velocity": 0.6929133858267716,
                    "duration": 0.1807230000000004
                },
                {
                    "name": "C#5",
                    "midi": 73,
                    "time": 136.4458650000001,
                    "velocity": 0.6929133858267716,
                    "duration": 0.1807230000000004
                },
                {
                    "name": "A#4",
                    "midi": 70,
                    "time": 136.6265880000001,
                    "velocity": 0.6929133858267716,
                    "duration": 0.1807230000000004
                },
                {
                    "name": "F5",
                    "midi": 77,
                    "time": 136.8073110000001,
                    "velocity": 0.6929133858267716,
                    "duration": 0.1807230000000004
                },
                {
                    "name": "G#5",
                    "midi": 80,
                    "time": 136.8073110000001,
                    "velocity": 0.6929133858267716,
                    "duration": 0.1807230000000004
                },
                {
                    "name": "B5",
                    "midi": 83,
                    "time": 136.8073110000001,
                    "velocity": 0.6929133858267716,
                    "duration": 0.1807230000000004
                },
                {
                    "name": "G#4",
                    "midi": 68,
                    "time": 136.9880340000001,
                    "velocity": 0.6929133858267716,
                    "duration": 0.1807230000000004
                },
                {
                    "name": "D5",
                    "midi": 74,
                    "time": 137.1687570000001,
                    "velocity": 0.6929133858267716,
                    "duration": 0.1807230000000004
                },
                {
                    "name": "F5",
                    "midi": 77,
                    "time": 137.1687570000001,
                    "velocity": 0.6929133858267716,
                    "duration": 0.1807230000000004
                },
                {
                    "name": "D5",
                    "midi": 74,
                    "time": 137.3494800000001,
                    "velocity": 0.6929133858267716,
                    "duration": 0.1807230000000004
                },
                {
                    "name": "F#5",
                    "midi": 78,
                    "time": 137.5302030000001,
                    "velocity": 0.6929133858267716,
                    "duration": 0.1807230000000004
                },
                {
                    "name": "G#5",
                    "midi": 80,
                    "time": 137.5302030000001,
                    "velocity": 0.6929133858267716,
                    "duration": 0.1807230000000004
                },
                {
                    "name": "F4",
                    "midi": 65,
                    "time": 137.71092600000011,
                    "velocity": 0.6929133858267716,
                    "duration": 0.1807230000000004
                },
                {
                    "name": "A4",
                    "midi": 69,
                    "time": 137.89164900000011,
                    "velocity": 0.6929133858267716,
                    "duration": 0.1807230000000004
                },
                {
                    "name": "C#5",
                    "midi": 73,
                    "time": 137.89164900000011,
                    "velocity": 0.6929133858267716,
                    "duration": 0.1807230000000004
                },
                {
                    "name": "E5",
                    "midi": 76,
                    "time": 137.89164900000011,
                    "velocity": 0.6929133858267716,
                    "duration": 0.1807230000000004
                },
                {
                    "name": "B4",
                    "midi": 71,
                    "time": 138.07237200000012,
                    "velocity": 0.6929133858267716,
                    "duration": 0.1807230000000004
                },
                {
                    "name": "F#5",
                    "midi": 78,
                    "time": 138.25309500000012,
                    "velocity": 0.6929133858267716,
                    "duration": 0.1807230000000004
                },
                {
                    "name": "A5",
                    "midi": 81,
                    "time": 138.25309500000012,
                    "velocity": 0.6929133858267716,
                    "duration": 0.1807230000000004
                },
                {
                    "name": "C6",
                    "midi": 84,
                    "time": 138.25309500000012,
                    "velocity": 0.6929133858267716,
                    "duration": 0.1807230000000004
                },
                {
                    "name": "F#4",
                    "midi": 66,
                    "time": 138.43381800000012,
                    "velocity": 0.6929133858267716,
                    "duration": 0.1807230000000004
                },
                {
                    "name": "B4",
                    "midi": 71,
                    "time": 138.61454100000012,
                    "velocity": 0.6929133858267716,
                    "duration": 0.1807230000000004
                },
                {
                    "name": "D5",
                    "midi": 74,
                    "time": 138.61454100000012,
                    "velocity": 0.6929133858267716,
                    "duration": 0.1807230000000004
                },
                {
                    "name": "D5",
                    "midi": 74,
                    "time": 138.79526400000012,
                    "velocity": 0.6929133858267716,
                    "duration": 0.1807230000000004
                },
                {
                    "name": "F#5",
                    "midi": 78,
                    "time": 138.97598700000012,
                    "velocity": 0.6929133858267716,
                    "duration": 0.1807230000000004
                },
                {
                    "name": "A5",
                    "midi": 81,
                    "time": 138.97598700000012,
                    "velocity": 0.6929133858267716,
                    "duration": 0.1807230000000004
                },
                {
                    "name": "D4",
                    "midi": 62,
                    "time": 139.15671000000012,
                    "velocity": 0.6929133858267716,
                    "duration": 0.1807230000000004
                },
                {
                    "name": "G4",
                    "midi": 67,
                    "time": 139.33743300000012,
                    "velocity": 0.6929133858267716,
                    "duration": 0.1807230000000004
                },
                {
                    "name": "A#4",
                    "midi": 70,
                    "time": 139.33743300000012,
                    "velocity": 0.6929133858267716,
                    "duration": 0.1807230000000004
                },
                {
                    "name": "C#5",
                    "midi": 73,
                    "time": 139.33743300000012,
                    "velocity": 0.6929133858267716,
                    "duration": 0.1807230000000004
                },
                {
                    "name": "A#4",
                    "midi": 70,
                    "time": 139.51815600000012,
                    "velocity": 0.6929133858267716,
                    "duration": 0.1807230000000004
                },
                {
                    "name": "F5",
                    "midi": 77,
                    "time": 139.69887900000012,
                    "velocity": 0.6929133858267716,
                    "duration": 0.1807230000000004
                },
                {
                    "name": "G#5",
                    "midi": 80,
                    "time": 139.69887900000012,
                    "velocity": 0.6929133858267716,
                    "duration": 0.1807230000000004
                },
                {
                    "name": "B5",
                    "midi": 83,
                    "time": 139.69887900000012,
                    "velocity": 0.6929133858267716,
                    "duration": 0.1807230000000004
                },
                {
                    "name": "G#4",
                    "midi": 68,
                    "time": 139.87960200000012,
                    "velocity": 0.6929133858267716,
                    "duration": 0.1807230000000004
                },
                {
                    "name": "D5",
                    "midi": 74,
                    "time": 140.06032500000012,
                    "velocity": 0.6929133858267716,
                    "duration": 0.1807230000000004
                },
                {
                    "name": "F5",
                    "midi": 77,
                    "time": 140.06032500000012,
                    "velocity": 0.6929133858267716,
                    "duration": 0.1807230000000004
                },
                {
                    "name": "D5",
                    "midi": 74,
                    "time": 140.24104800000012,
                    "velocity": 0.6929133858267716,
                    "duration": 0.1807230000000004
                },
                {
                    "name": "F#5",
                    "midi": 78,
                    "time": 140.42177100000012,
                    "velocity": 0.6929133858267716,
                    "duration": 0.1807230000000004
                },
                {
                    "name": "A5",
                    "midi": 81,
                    "time": 140.42177100000012,
                    "velocity": 0.6929133858267716,
                    "duration": 0.1807230000000004
                },
                {
                    "name": "F4",
                    "midi": 65,
                    "time": 140.60249400000012,
                    "velocity": 0.6929133858267716,
                    "duration": 0.1807230000000004
                },
                {
                    "name": "A4",
                    "midi": 69,
                    "time": 140.78321700000012,
                    "velocity": 0.6929133858267716,
                    "duration": 0.1807230000000004
                },
                {
                    "name": "C#5",
                    "midi": 73,
                    "time": 140.78321700000012,
                    "velocity": 0.6929133858267716,
                    "duration": 0.1807230000000004
                },
                {
                    "name": "E5",
                    "midi": 76,
                    "time": 140.78321700000012,
                    "velocity": 0.6929133858267716,
                    "duration": 0.1807230000000004
                },
                {
                    "name": "B4",
                    "midi": 71,
                    "time": 140.96394000000012,
                    "velocity": 0.6929133858267716,
                    "duration": 0.1807230000000004
                },
                {
                    "name": "F#5",
                    "midi": 78,
                    "time": 141.14466300000012,
                    "velocity": 0.6929133858267716,
                    "duration": 0.1807230000000004
                },
                {
                    "name": "A5",
                    "midi": 81,
                    "time": 141.14466300000012,
                    "velocity": 0.6929133858267716,
                    "duration": 0.1807230000000004
                },
                {
                    "name": "C6",
                    "midi": 84,
                    "time": 141.14466300000012,
                    "velocity": 0.6929133858267716,
                    "duration": 0.1807230000000004
                }
            ],
            "controlChanges": {
                "7": [
                    {
                        "number": 7,
                        "time": 0,
                        "value": 1
                    }
                ],
                "10": [
                    {
                        "number": 10,
                        "time": 0,
                        "value": 0.7637795275590551
                    }
                ],
                "64": [
                    {
                        "number": 64,
                        "time": 89.27716200000003,
                        "value": 1
                    },
                    {
                        "number": 64,
                        "time": 90.72294600000004,
                        "value": 1
                    },
                    {
                        "number": 64,
                        "time": 102.28921800000003,
                        "value": 1
                    },
                    {
                        "number": 64,
                        "time": 105.90367800000004,
                        "value": 0
                    }
                ]
            },
            "id": 2,
            "name": "Instrument17",
            "instrumentNumber": 0,
            "instrument": "acoustic grand piano",
            "instrumentFamily": "piano",
            "channelNumber": 1,
            "isPercussion": false
        },
        {
            "startTime": 0,
            "duration": 141.32538600000026,
            "length": 904,
            "notes": [
                {
                    "name": "C2",
                    "midi": 36,
                    "time": 0,
                    "velocity": 0.5905511811023622,
                    "duration": 0.722892
                },
                {
                    "name": "F#2",
                    "midi": 42,
                    "time": 0,
                    "velocity": 0.5905511811023622,
                    "duration": 0.722892
                },
                {
                    "name": "C3",
                    "midi": 48,
                    "time": 0,
                    "velocity": 0.5905511811023622,
                    "duration": 0.722892
                },
                {
                    "name": "C#2",
                    "midi": 37,
                    "time": 0.722892,
                    "velocity": 0.5905511811023622,
                    "duration": 0.36144600000000005
                },
                {
                    "name": "F#2",
                    "midi": 42,
                    "time": 0.722892,
                    "velocity": 0.5905511811023622,
                    "duration": 0.36144600000000005
                },
                {
                    "name": "C2",
                    "midi": 36,
                    "time": 1.084338,
                    "velocity": 0.5905511811023622,
                    "duration": 0.36144599999999993
                },
                {
                    "name": "F#2",
                    "midi": 42,
                    "time": 1.084338,
                    "velocity": 0.5905511811023622,
                    "duration": 0.36144599999999993
                },
                {
                    "name": "C3",
                    "midi": 48,
                    "time": 1.084338,
                    "velocity": 0.5905511811023622,
                    "duration": 0.36144599999999993
                },
                {
                    "name": "C#2",
                    "midi": 37,
                    "time": 1.445784,
                    "velocity": 0.5905511811023622,
                    "duration": 0.36144599999999993
                },
                {
                    "name": "F#2",
                    "midi": 42,
                    "time": 1.445784,
                    "velocity": 0.5905511811023622,
                    "duration": 0.36144599999999993
                },
                {
                    "name": "C2",
                    "midi": 36,
                    "time": 1.80723,
                    "velocity": 0.5905511811023622,
                    "duration": 0.7228920000000001
                },
                {
                    "name": "F#2",
                    "midi": 42,
                    "time": 1.80723,
                    "velocity": 0.5905511811023622,
                    "duration": 0.7228920000000001
                },
                {
                    "name": "C2",
                    "midi": 36,
                    "time": 2.530122,
                    "velocity": 0.5905511811023622,
                    "duration": 0.36144599999999993
                },
                {
                    "name": "F#2",
                    "midi": 42,
                    "time": 2.530122,
                    "velocity": 0.5905511811023622,
                    "duration": 0.36144599999999993
                },
                {
                    "name": "C3",
                    "midi": 48,
                    "time": 2.530122,
                    "velocity": 0.5905511811023622,
                    "duration": 0.36144599999999993
                },
                {
                    "name": "C#2",
                    "midi": 37,
                    "time": 2.891568,
                    "velocity": 0.5905511811023622,
                    "duration": 0.36144599999999993
                },
                {
                    "name": "F#2",
                    "midi": 42,
                    "time": 2.891568,
                    "velocity": 0.5905511811023622,
                    "duration": 0.36144599999999993
                },
                {
                    "name": "C2",
                    "midi": 36,
                    "time": 3.253014,
                    "velocity": 0.5905511811023622,
                    "duration": 0.36144599999999993
                },
                {
                    "name": "F#2",
                    "midi": 42,
                    "time": 3.253014,
                    "velocity": 0.5905511811023622,
                    "duration": 0.36144599999999993
                },
                {
                    "name": "C3",
                    "midi": 48,
                    "time": 3.253014,
                    "velocity": 0.5905511811023622,
                    "duration": 0.36144599999999993
                },
                {
                    "name": "E3",
                    "midi": 52,
                    "time": 3.61446,
                    "velocity": 0.5905511811023622,
                    "duration": 0.18072299999999997
                },
                {
                    "name": "G#3",
                    "midi": 56,
                    "time": 3.61446,
                    "velocity": 0.5905511811023622,
                    "duration": 0.18072299999999997
                },
                {
                    "name": "F#3",
                    "midi": 54,
                    "time": 3.7951829999999998,
                    "velocity": 0.5905511811023622,
                    "duration": 0.18072299999999997
                },
                {
                    "name": "A3",
                    "midi": 57,
                    "time": 3.7951829999999998,
                    "velocity": 0.5905511811023622,
                    "duration": 0.18072299999999997
                },
                {
                    "name": "E3",
                    "midi": 52,
                    "time": 3.9759059999999997,
                    "velocity": 0.5905511811023622,
                    "duration": 0.18072299999999997
                },
                {
                    "name": "G#3",
                    "midi": 56,
                    "time": 3.9759059999999997,
                    "velocity": 0.5905511811023622,
                    "duration": 0.18072299999999997
                },
                {
                    "name": "D3",
                    "midi": 50,
                    "time": 4.156629,
                    "velocity": 0.5905511811023622,
                    "duration": 0.1807230000000004
                },
                {
                    "name": "F#3",
                    "midi": 54,
                    "time": 4.156629,
                    "velocity": 0.5905511811023622,
                    "duration": 0.1807230000000004
                },
                {
                    "name": "C#3",
                    "midi": 49,
                    "time": 4.337352,
                    "velocity": 0.5905511811023622,
                    "duration": 0.1807230000000004
                },
                {
                    "name": "E3",
                    "midi": 52,
                    "time": 4.337352,
                    "velocity": 0.5905511811023622,
                    "duration": 0.1807230000000004
                },
                {
                    "name": "D3",
                    "midi": 50,
                    "time": 4.5180750000000005,
                    "velocity": 0.5905511811023622,
                    "duration": 0.1807230000000004
                },
                {
                    "name": "F#3",
                    "midi": 54,
                    "time": 4.5180750000000005,
                    "velocity": 0.5905511811023622,
                    "duration": 0.1807230000000004
                },
                {
                    "name": "C2",
                    "midi": 36,
                    "time": 4.698798000000001,
                    "velocity": 0.5905511811023622,
                    "duration": 0.1807230000000004
                },
                {
                    "name": "F#2",
                    "midi": 42,
                    "time": 4.698798000000001,
                    "velocity": 0.5905511811023622,
                    "duration": 0.1807230000000004
                },
                {
                    "name": "C3",
                    "midi": 48,
                    "time": 4.698798000000001,
                    "velocity": 0.5905511811023622,
                    "duration": 0.1807230000000004
                },
                {
                    "name": "B2",
                    "midi": 47,
                    "time": 4.879521000000001,
                    "velocity": 0.5905511811023622,
                    "duration": 0.1807230000000004
                },
                {
                    "name": "D#3",
                    "midi": 51,
                    "time": 4.879521000000001,
                    "velocity": 0.5905511811023622,
                    "duration": 0.1807230000000004
                },
                {
                    "name": "B2",
                    "midi": 47,
                    "time": 5.060244000000002,
                    "velocity": 0.5905511811023622,
                    "duration": 0.1807230000000004
                },
                {
                    "name": "D#3",
                    "midi": 51,
                    "time": 5.060244000000002,
                    "velocity": 0.5905511811023622,
                    "duration": 0.1807230000000004
                },
                {
                    "name": "C#3",
                    "midi": 49,
                    "time": 5.240967000000002,
                    "velocity": 0.5905511811023622,
                    "duration": 0.1807230000000004
                },
                {
                    "name": "E3",
                    "midi": 52,
                    "time": 5.240967000000002,
                    "velocity": 0.5905511811023622,
                    "duration": 0.1807230000000004
                },
                {
                    "name": "D3",
                    "midi": 50,
                    "time": 5.421690000000003,
                    "velocity": 0.6929133858267716,
                    "duration": 0.1807230000000004
                },
                {
                    "name": "F#3",
                    "midi": 54,
                    "time": 5.421690000000003,
                    "velocity": 0.6929133858267716,
                    "duration": 0.1807230000000004
                },
                {
                    "name": "E3",
                    "midi": 52,
                    "time": 5.602413000000003,
                    "velocity": 0.6929133858267716,
                    "duration": 0.1807230000000004
                },
                {
                    "name": "G#3",
                    "midi": 56,
                    "time": 5.602413000000003,
                    "velocity": 0.6929133858267716,
                    "duration": 0.1807230000000004
                },
                {
                    "name": "G#3",
                    "midi": 56,
                    "time": 5.783136000000003,
                    "velocity": 0.8976377952755905,
                    "duration": 0.7228919999999999
                },
                {
                    "name": "G#4",
                    "midi": 68,
                    "time": 5.783136000000003,
                    "velocity": 0.8976377952755905,
                    "duration": 0.7228919999999999
                },
                {
                    "name": "F#1",
                    "midi": 30,
                    "time": 6.506028000000003,
                    "velocity": 0.8976377952755905,
                    "duration": 0.7228919999999999
                },
                {
                    "name": "F#2",
                    "midi": 42,
                    "time": 6.506028000000003,
                    "velocity": 0.8976377952755905,
                    "duration": 0.7228919999999999
                },
                {
                    "name": "G#3",
                    "midi": 56,
                    "time": 7.228920000000003,
                    "velocity": 0.8976377952755905,
                    "duration": 0.36144599999999993
                },
                {
                    "name": "G#4",
                    "midi": 68,
                    "time": 7.228920000000003,
                    "velocity": 0.8976377952755905,
                    "duration": 0.36144599999999993
                },
                {
                    "name": "F#1",
                    "midi": 30,
                    "time": 7.590366000000003,
                    "velocity": 0.8976377952755905,
                    "duration": 0.7228919999999999
                },
                {
                    "name": "F#2",
                    "midi": 42,
                    "time": 7.590366000000003,
                    "velocity": 0.8976377952755905,
                    "duration": 0.7228919999999999
                },
                {
                    "name": "C2",
                    "midi": 36,
                    "time": 8.313258000000003,
                    "velocity": 0.5905511811023622,
                    "duration": 0.3614460000000008
                },
                {
                    "name": "F#2",
                    "midi": 42,
                    "time": 8.313258000000003,
                    "velocity": 0.5905511811023622,
                    "duration": 0.3614460000000008
                },
                {
                    "name": "C3",
                    "midi": 48,
                    "time": 8.313258000000003,
                    "velocity": 0.5905511811023622,
                    "duration": 0.3614460000000008
                },
                {
                    "name": "E3",
                    "midi": 52,
                    "time": 8.674704000000004,
                    "velocity": 0.5905511811023622,
                    "duration": 0.1807230000000004
                },
                {
                    "name": "G#3",
                    "midi": 56,
                    "time": 8.674704000000004,
                    "velocity": 0.5905511811023622,
                    "duration": 0.1807230000000004
                },
                {
                    "name": "F#3",
                    "midi": 54,
                    "time": 8.855427000000004,
                    "velocity": 0.5905511811023622,
                    "duration": 0.1807230000000004
                },
                {
                    "name": "A3",
                    "midi": 57,
                    "time": 8.855427000000004,
                    "velocity": 0.5905511811023622,
                    "duration": 0.1807230000000004
                },
                {
                    "name": "E3",
                    "midi": 52,
                    "time": 9.036150000000005,
                    "velocity": 0.5905511811023622,
                    "duration": 0.1807230000000004
                },
                {
                    "name": "G#3",
                    "midi": 56,
                    "time": 9.036150000000005,
                    "velocity": 0.5905511811023622,
                    "duration": 0.1807230000000004
                },
                {
                    "name": "D3",
                    "midi": 50,
                    "time": 9.216873000000005,
                    "velocity": 0.5905511811023622,
                    "duration": 0.1807230000000004
                },
                {
                    "name": "F#3",
                    "midi": 54,
                    "time": 9.216873000000005,
                    "velocity": 0.5905511811023622,
                    "duration": 0.1807230000000004
                },
                {
                    "name": "C#3",
                    "midi": 49,
                    "time": 9.397596000000005,
                    "velocity": 0.5905511811023622,
                    "duration": 0.1807230000000004
                },
                {
                    "name": "E3",
                    "midi": 52,
                    "time": 9.397596000000005,
                    "velocity": 0.5905511811023622,
                    "duration": 0.1807230000000004
                },
                {
                    "name": "D3",
                    "midi": 50,
                    "time": 9.578319000000006,
                    "velocity": 0.5905511811023622,
                    "duration": 0.1807230000000004
                },
                {
                    "name": "F#3",
                    "midi": 54,
                    "time": 9.578319000000006,
                    "velocity": 0.5905511811023622,
                    "duration": 0.1807230000000004
                },
                {
                    "name": "C2",
                    "midi": 36,
                    "time": 9.759042000000006,
                    "velocity": 0.5905511811023622,
                    "duration": 0.1807230000000004
                },
                {
                    "name": "F#2",
                    "midi": 42,
                    "time": 9.759042000000006,
                    "velocity": 0.5905511811023622,
                    "duration": 0.1807230000000004
                },
                {
                    "name": "C3",
                    "midi": 48,
                    "time": 9.759042000000006,
                    "velocity": 0.5905511811023622,
                    "duration": 0.1807230000000004
                },
                {
                    "name": "C#3",
                    "midi": 49,
                    "time": 9.939765000000007,
                    "velocity": 0.5905511811023622,
                    "duration": 0.1807230000000004
                },
                {
                    "name": "E3",
                    "midi": 52,
                    "time": 9.939765000000007,
                    "velocity": 0.5905511811023622,
                    "duration": 0.1807230000000004
                },
                {
                    "name": "D3",
                    "midi": 50,
                    "time": 10.120488000000007,
                    "velocity": 0.6929133858267716,
                    "duration": 0.1807230000000004
                },
                {
                    "name": "F#3",
                    "midi": 54,
                    "time": 10.120488000000007,
                    "velocity": 0.6929133858267716,
                    "duration": 0.1807230000000004
                },
                {
                    "name": "E3",
                    "midi": 52,
                    "time": 10.301211000000007,
                    "velocity": 0.6929133858267716,
                    "duration": 0.1807230000000004
                },
                {
                    "name": "G#3",
                    "midi": 56,
                    "time": 10.301211000000007,
                    "velocity": 0.6929133858267716,
                    "duration": 0.1807230000000004
                },
                {
                    "name": "G#3",
                    "midi": 56,
                    "time": 10.481934000000008,
                    "velocity": 0.8976377952755905,
                    "duration": 0.7228919999999999
                },
                {
                    "name": "G#4",
                    "midi": 68,
                    "time": 10.481934000000008,
                    "velocity": 0.8976377952755905,
                    "duration": 0.7228919999999999
                },
                {
                    "name": "F#1",
                    "midi": 30,
                    "time": 11.204826000000008,
                    "velocity": 0.8976377952755905,
                    "duration": 0.7228919999999999
                },
                {
                    "name": "F#2",
                    "midi": 42,
                    "time": 11.204826000000008,
                    "velocity": 0.8976377952755905,
                    "duration": 0.7228919999999999
                },
                {
                    "name": "G#3",
                    "midi": 56,
                    "time": 11.927718000000008,
                    "velocity": 0.8976377952755905,
                    "duration": 0.3614460000000008
                },
                {
                    "name": "G#4",
                    "midi": 68,
                    "time": 11.927718000000008,
                    "velocity": 0.8976377952755905,
                    "duration": 0.3614460000000008
                },
                {
                    "name": "F#1",
                    "midi": 30,
                    "time": 12.289164000000008,
                    "velocity": 0.8976377952755905,
                    "duration": 0.7228919999999999
                },
                {
                    "name": "F#2",
                    "midi": 42,
                    "time": 12.289164000000008,
                    "velocity": 0.8976377952755905,
                    "duration": 0.7228919999999999
                },
                {
                    "name": "G#3",
                    "midi": 56,
                    "time": 13.012056000000008,
                    "velocity": 0.8976377952755905,
                    "duration": 0.7228919999999999
                },
                {
                    "name": "G#4",
                    "midi": 68,
                    "time": 13.012056000000008,
                    "velocity": 0.8976377952755905,
                    "duration": 0.7228919999999999
                },
                {
                    "name": "F#1",
                    "midi": 30,
                    "time": 13.734948000000008,
                    "velocity": 0.8976377952755905,
                    "duration": 0.7228919999999999
                },
                {
                    "name": "F#2",
                    "midi": 42,
                    "time": 13.734948000000008,
                    "velocity": 0.8976377952755905,
                    "duration": 0.7228919999999999
                },
                {
                    "name": "F2",
                    "midi": 41,
                    "time": 14.457840000000008,
                    "velocity": 0.6929133858267716,
                    "duration": 0.24096399999999996
                },
                {
                    "name": "B2",
                    "midi": 47,
                    "time": 14.457840000000008,
                    "velocity": 0.6929133858267716,
                    "duration": 0.24096399999999996
                },
                {
                    "name": "F3",
                    "midi": 53,
                    "time": 14.457840000000008,
                    "velocity": 0.6929133858267716,
                    "duration": 0.24096399999999996
                },
                {
                    "name": "D#2",
                    "midi": 39,
                    "time": 14.698804000000008,
                    "velocity": 0.6929133858267716,
                    "duration": 0.24021098749999936
                },
                {
                    "name": "A2",
                    "midi": 45,
                    "time": 14.698804000000008,
                    "velocity": 0.6929133858267716,
                    "duration": 0.24021098749999936
                },
                {
                    "name": "D#3",
                    "midi": 51,
                    "time": 14.698804000000008,
                    "velocity": 0.6929133858267716,
                    "duration": 0.24021098749999936
                },
                {
                    "name": "C#2",
                    "midi": 37,
                    "time": 14.939014987500007,
                    "velocity": 0.6929133858267716,
                    "duration": 0.24171701250000055
                },
                {
                    "name": "G2",
                    "midi": 43,
                    "time": 14.939014987500007,
                    "velocity": 0.6929133858267716,
                    "duration": 0.24171701250000055
                },
                {
                    "name": "C#3",
                    "midi": 49,
                    "time": 14.939014987500007,
                    "velocity": 0.6929133858267716,
                    "duration": 0.24171701250000055
                },
                {
                    "name": "A#1",
                    "midi": 34,
                    "time": 15.180732000000008,
                    "velocity": 0.8976377952755905,
                    "duration": 1.4457840000000015
                },
                {
                    "name": "E2",
                    "midi": 40,
                    "time": 15.180732000000008,
                    "velocity": 0.8976377952755905,
                    "duration": 1.4457840000000015
                },
                {
                    "name": "A#2",
                    "midi": 46,
                    "time": 15.180732000000008,
                    "velocity": 0.8976377952755905,
                    "duration": 1.4457840000000015
                },
                {
                    "name": "C#2",
                    "midi": 37,
                    "time": 16.98796200000001,
                    "velocity": 0.5905511811023622,
                    "duration": 0.3614460000000008
                },
                {
                    "name": "G2",
                    "midi": 43,
                    "time": 16.98796200000001,
                    "velocity": 0.5905511811023622,
                    "duration": 0.3614460000000008
                },
                {
                    "name": "C#3",
                    "midi": 49,
                    "time": 16.98796200000001,
                    "velocity": 0.5905511811023622,
                    "duration": 0.3614460000000008
                },
                {
                    "name": "G1",
                    "midi": 31,
                    "time": 17.34940800000001,
                    "velocity": 0.5905511811023622,
                    "duration": 0.3614460000000008
                },
                {
                    "name": "C2",
                    "midi": 36,
                    "time": 17.34940800000001,
                    "velocity": 0.5905511811023622,
                    "duration": 0.3614460000000008
                },
                {
                    "name": "G2",
                    "midi": 43,
                    "time": 17.34940800000001,
                    "velocity": 0.5905511811023622,
                    "duration": 0.3614460000000008
                },
                {
                    "name": "C#2",
                    "midi": 37,
                    "time": 17.710854000000012,
                    "velocity": 0.5905511811023622,
                    "duration": 0.3614460000000008
                },
                {
                    "name": "G2",
                    "midi": 43,
                    "time": 17.710854000000012,
                    "velocity": 0.5905511811023622,
                    "duration": 0.3614460000000008
                },
                {
                    "name": "C#3",
                    "midi": 49,
                    "time": 17.710854000000012,
                    "velocity": 0.5905511811023622,
                    "duration": 0.3614460000000008
                },
                {
                    "name": "A#1",
                    "midi": 34,
                    "time": 18.072300000000013,
                    "velocity": 0.6929133858267716,
                    "duration": 2.1686760000000014
                },
                {
                    "name": "E2",
                    "midi": 40,
                    "time": 18.072300000000013,
                    "velocity": 0.6929133858267716,
                    "duration": 2.1686760000000014
                },
                {
                    "name": "A#2",
                    "midi": 46,
                    "time": 18.072300000000013,
                    "velocity": 0.6929133858267716,
                    "duration": 2.1686760000000014
                },
                {
                    "name": "C#2",
                    "midi": 37,
                    "time": 20.602422000000015,
                    "velocity": 0.5905511811023622,
                    "duration": 0.3614460000000008
                },
                {
                    "name": "G2",
                    "midi": 43,
                    "time": 20.602422000000015,
                    "velocity": 0.5905511811023622,
                    "duration": 0.3614460000000008
                },
                {
                    "name": "C#3",
                    "midi": 49,
                    "time": 20.602422000000015,
                    "velocity": 0.5905511811023622,
                    "duration": 0.3614460000000008
                },
                {
                    "name": "G1",
                    "midi": 31,
                    "time": 20.963868000000016,
                    "velocity": 0.5905511811023622,
                    "duration": 0.3614460000000008
                },
                {
                    "name": "C2",
                    "midi": 36,
                    "time": 20.963868000000016,
                    "velocity": 0.5905511811023622,
                    "duration": 0.3614460000000008
                },
                {
                    "name": "G2",
                    "midi": 43,
                    "time": 20.963868000000016,
                    "velocity": 0.5905511811023622,
                    "duration": 0.3614460000000008
                },
                {
                    "name": "C#2",
                    "midi": 37,
                    "time": 21.325314000000017,
                    "velocity": 0.5905511811023622,
                    "duration": 0.3614460000000008
                },
                {
                    "name": "G2",
                    "midi": 43,
                    "time": 21.325314000000017,
                    "velocity": 0.5905511811023622,
                    "duration": 0.3614460000000008
                },
                {
                    "name": "C#3",
                    "midi": 49,
                    "time": 21.325314000000017,
                    "velocity": 0.5905511811023622,
                    "duration": 0.3614460000000008
                },
                {
                    "name": "G1",
                    "midi": 31,
                    "time": 21.686760000000017,
                    "velocity": 0.7952755905511811,
                    "duration": 0.035391587500001265
                },
                {
                    "name": "C2",
                    "midi": 36,
                    "time": 21.686760000000017,
                    "velocity": 0.7952755905511811,
                    "duration": 0.035391587500001265
                },
                {
                    "name": "G2",
                    "midi": 43,
                    "time": 21.686760000000017,
                    "velocity": 0.7952755905511811,
                    "duration": 0.035391587500001265
                },
                {
                    "name": "D#2",
                    "midi": 39,
                    "time": 21.867483000000018,
                    "velocity": 0.5905511811023622,
                    "duration": 0.3614460000000008
                },
                {
                    "name": "A2",
                    "midi": 45,
                    "time": 21.867483000000018,
                    "velocity": 0.5905511811023622,
                    "duration": 0.3614460000000008
                },
                {
                    "name": "F#3",
                    "midi": 54,
                    "time": 21.867483000000018,
                    "velocity": 0.5905511811023622,
                    "duration": 0.3614460000000008
                },
                {
                    "name": "E3",
                    "midi": 52,
                    "time": 22.22892900000002,
                    "velocity": 0.5905511811023622,
                    "duration": 0.1807230000000004
                },
                {
                    "name": "G#3",
                    "midi": 56,
                    "time": 22.22892900000002,
                    "velocity": 0.5905511811023622,
                    "duration": 0.1807230000000004
                },
                {
                    "name": "F#3",
                    "midi": 54,
                    "time": 22.40965200000002,
                    "velocity": 0.5905511811023622,
                    "duration": 0.1807230000000004
                },
                {
                    "name": "A3",
                    "midi": 57,
                    "time": 22.40965200000002,
                    "velocity": 0.5905511811023622,
                    "duration": 0.1807230000000004
                },
                {
                    "name": "E3",
                    "midi": 52,
                    "time": 22.59037500000002,
                    "velocity": 0.5905511811023622,
                    "duration": 0.1807230000000004
                },
                {
                    "name": "G#3",
                    "midi": 56,
                    "time": 22.59037500000002,
                    "velocity": 0.5905511811023622,
                    "duration": 0.1807230000000004
                },
                {
                    "name": "D3",
                    "midi": 50,
                    "time": 22.77109800000002,
                    "velocity": 0.5905511811023622,
                    "duration": 0.1807230000000004
                },
                {
                    "name": "F#3",
                    "midi": 54,
                    "time": 22.77109800000002,
                    "velocity": 0.5905511811023622,
                    "duration": 0.1807230000000004
                },
                {
                    "name": "C#3",
                    "midi": 49,
                    "time": 22.95182100000002,
                    "velocity": 0.5905511811023622,
                    "duration": 0.1807230000000004
                },
                {
                    "name": "E3",
                    "midi": 52,
                    "time": 22.95182100000002,
                    "velocity": 0.5905511811023622,
                    "duration": 0.1807230000000004
                },
                {
                    "name": "D3",
                    "midi": 50,
                    "time": 23.13254400000002,
                    "velocity": 0.5905511811023622,
                    "duration": 0.1807230000000004
                },
                {
                    "name": "F#3",
                    "midi": 54,
                    "time": 23.13254400000002,
                    "velocity": 0.5905511811023622,
                    "duration": 0.1807230000000004
                },
                {
                    "name": "B2",
                    "midi": 47,
                    "time": 23.49399000000002,
                    "velocity": 0.5905511811023622,
                    "duration": 0.1807230000000004
                },
                {
                    "name": "D#3",
                    "midi": 51,
                    "time": 23.49399000000002,
                    "velocity": 0.5905511811023622,
                    "duration": 0.1807230000000004
                },
                {
                    "name": "C#3",
                    "midi": 49,
                    "time": 23.674713000000022,
                    "velocity": 0.5905511811023622,
                    "duration": 0.1807230000000004
                },
                {
                    "name": "E3",
                    "midi": 52,
                    "time": 23.674713000000022,
                    "velocity": 0.5905511811023622,
                    "duration": 0.1807230000000004
                },
                {
                    "name": "D#3",
                    "midi": 51,
                    "time": 23.855436000000022,
                    "velocity": 0.5905511811023622,
                    "duration": 0.1807230000000004
                },
                {
                    "name": "F#3",
                    "midi": 54,
                    "time": 23.855436000000022,
                    "velocity": 0.5905511811023622,
                    "duration": 0.1807230000000004
                },
                {
                    "name": "E3",
                    "midi": 52,
                    "time": 24.036159000000023,
                    "velocity": 0.5905511811023622,
                    "duration": 0.1807230000000004
                },
                {
                    "name": "G#3",
                    "midi": 56,
                    "time": 24.036159000000023,
                    "velocity": 0.5905511811023622,
                    "duration": 0.1807230000000004
                },
                {
                    "name": "F#3",
                    "midi": 54,
                    "time": 24.216882000000023,
                    "velocity": 0.5905511811023622,
                    "duration": 0.1807230000000004
                },
                {
                    "name": "A3",
                    "midi": 57,
                    "time": 24.216882000000023,
                    "velocity": 0.5905511811023622,
                    "duration": 0.1807230000000004
                },
                {
                    "name": "A#4",
                    "midi": 70,
                    "time": 24.397605000000024,
                    "velocity": 0.5905511811023622,
                    "duration": 0.1807230000000004
                },
                {
                    "name": "C#5",
                    "midi": 73,
                    "time": 24.397605000000024,
                    "velocity": 0.5905511811023622,
                    "duration": 0.1807230000000004
                },
                {
                    "name": "G#4",
                    "midi": 68,
                    "time": 24.578328000000024,
                    "velocity": 0.5905511811023622,
                    "duration": 0.1807230000000004
                },
                {
                    "name": "C5",
                    "midi": 72,
                    "time": 24.578328000000024,
                    "velocity": 0.5905511811023622,
                    "duration": 0.1807230000000004
                },
                {
                    "name": "A#4",
                    "midi": 70,
                    "time": 24.759051000000024,
                    "velocity": 0.5905511811023622,
                    "duration": 0.1807230000000004
                },
                {
                    "name": "C#5",
                    "midi": 73,
                    "time": 24.759051000000024,
                    "velocity": 0.5905511811023622,
                    "duration": 0.1807230000000004
                },
                {
                    "name": "G#4",
                    "midi": 68,
                    "time": 24.939774000000025,
                    "velocity": 0.5905511811023622,
                    "duration": 0.1807230000000004
                },
                {
                    "name": "C5",
                    "midi": 72,
                    "time": 24.939774000000025,
                    "velocity": 0.5905511811023622,
                    "duration": 0.1807230000000004
                },
                {
                    "name": "F#4",
                    "midi": 66,
                    "time": 25.120497000000025,
                    "velocity": 0.5905511811023622,
                    "duration": 0.1807230000000004
                },
                {
                    "name": "A4",
                    "midi": 69,
                    "time": 25.120497000000025,
                    "velocity": 0.5905511811023622,
                    "duration": 0.1807230000000004
                },
                {
                    "name": "F4",
                    "midi": 65,
                    "time": 25.301220000000026,
                    "velocity": 0.5905511811023622,
                    "duration": 0.1807230000000004
                },
                {
                    "name": "G#4",
                    "midi": 68,
                    "time": 25.301220000000026,
                    "velocity": 0.5905511811023622,
                    "duration": 0.1807230000000004
                },
                {
                    "name": "F#4",
                    "midi": 66,
                    "time": 25.481943000000026,
                    "velocity": 0.5905511811023622,
                    "duration": 0.1807230000000004
                },
                {
                    "name": "A4",
                    "midi": 69,
                    "time": 25.481943000000026,
                    "velocity": 0.5905511811023622,
                    "duration": 0.1807230000000004
                },
                {
                    "name": "D#4",
                    "midi": 63,
                    "time": 25.662666000000026,
                    "velocity": 0.5905511811023622,
                    "duration": 0.1807230000000004
                },
                {
                    "name": "G4",
                    "midi": 67,
                    "time": 25.662666000000026,
                    "velocity": 0.5905511811023622,
                    "duration": 0.1807230000000004
                },
                {
                    "name": "F4",
                    "midi": 65,
                    "time": 25.843389000000027,
                    "velocity": 0.5905511811023622,
                    "duration": 0.1807230000000004
                },
                {
                    "name": "G#4",
                    "midi": 68,
                    "time": 25.843389000000027,
                    "velocity": 0.5905511811023622,
                    "duration": 0.1807230000000004
                },
                {
                    "name": "F#4",
                    "midi": 66,
                    "time": 26.024112000000027,
                    "velocity": 0.5905511811023622,
                    "duration": 0.1807230000000004
                },
                {
                    "name": "A4",
                    "midi": 69,
                    "time": 26.024112000000027,
                    "velocity": 0.5905511811023622,
                    "duration": 0.1807230000000004
                },
                {
                    "name": "G#4",
                    "midi": 68,
                    "time": 26.204835000000028,
                    "velocity": 0.5905511811023622,
                    "duration": 0.1807230000000004
                },
                {
                    "name": "C5",
                    "midi": 72,
                    "time": 26.204835000000028,
                    "velocity": 0.5905511811023622,
                    "duration": 0.1807230000000004
                },
                {
                    "name": "A#4",
                    "midi": 70,
                    "time": 26.385558000000028,
                    "velocity": 0.5905511811023622,
                    "duration": 0.1807230000000004
                },
                {
                    "name": "C#5",
                    "midi": 73,
                    "time": 26.385558000000028,
                    "velocity": 0.5905511811023622,
                    "duration": 0.1807230000000004
                },
                {
                    "name": "G1",
                    "midi": 31,
                    "time": 26.74700400000003,
                    "velocity": 0.5905511811023622,
                    "duration": 0.3614460000000008
                },
                {
                    "name": "C2",
                    "midi": 36,
                    "time": 26.74700400000003,
                    "velocity": 0.5905511811023622,
                    "duration": 0.3614460000000008
                },
                {
                    "name": "G2",
                    "midi": 43,
                    "time": 26.74700400000003,
                    "velocity": 0.5905511811023622,
                    "duration": 0.3614460000000008
                },
                {
                    "name": "C#2",
                    "midi": 37,
                    "time": 27.10845000000003,
                    "velocity": 0.5905511811023622,
                    "duration": 0.3614460000000008
                },
                {
                    "name": "G2",
                    "midi": 43,
                    "time": 27.10845000000003,
                    "velocity": 0.5905511811023622,
                    "duration": 0.3614460000000008
                },
                {
                    "name": "C#3",
                    "midi": 49,
                    "time": 27.10845000000003,
                    "velocity": 0.5905511811023622,
                    "duration": 0.3614460000000008
                },
                {
                    "name": "G1",
                    "midi": 31,
                    "time": 27.46989600000003,
                    "velocity": 0.5905511811023622,
                    "duration": 0.3614460000000008
                },
                {
                    "name": "C2",
                    "midi": 36,
                    "time": 27.46989600000003,
                    "velocity": 0.5905511811023622,
                    "duration": 0.3614460000000008
                },
                {
                    "name": "G2",
                    "midi": 43,
                    "time": 27.46989600000003,
                    "velocity": 0.5905511811023622,
                    "duration": 0.3614460000000008
                },
                {
                    "name": "G1",
                    "midi": 31,
                    "time": 28.192788000000032,
                    "velocity": 0.5905511811023622,
                    "duration": 0.3614460000000008
                },
                {
                    "name": "C2",
                    "midi": 36,
                    "time": 28.192788000000032,
                    "velocity": 0.5905511811023622,
                    "duration": 0.3614460000000008
                },
                {
                    "name": "G2",
                    "midi": 43,
                    "time": 28.192788000000032,
                    "velocity": 0.5905511811023622,
                    "duration": 0.3614460000000008
                },
                {
                    "name": "C#2",
                    "midi": 37,
                    "time": 28.554234000000033,
                    "velocity": 0.5905511811023622,
                    "duration": 0.3614460000000008
                },
                {
                    "name": "G2",
                    "midi": 43,
                    "time": 28.554234000000033,
                    "velocity": 0.5905511811023622,
                    "duration": 0.3614460000000008
                },
                {
                    "name": "C#3",
                    "midi": 49,
                    "time": 28.554234000000033,
                    "velocity": 0.5905511811023622,
                    "duration": 0.3614460000000008
                },
                {
                    "name": "G1",
                    "midi": 31,
                    "time": 28.915680000000034,
                    "velocity": 0.7952755905511811,
                    "duration": 0.035391587500001265
                },
                {
                    "name": "C2",
                    "midi": 36,
                    "time": 28.915680000000034,
                    "velocity": 0.7952755905511811,
                    "duration": 0.035391587500001265
                },
                {
                    "name": "G2",
                    "midi": 43,
                    "time": 28.915680000000034,
                    "velocity": 0.7952755905511811,
                    "duration": 0.035391587500001265
                },
                {
                    "name": "A#4",
                    "midi": 70,
                    "time": 29.096403000000034,
                    "velocity": 0.5905511811023622,
                    "duration": 0.1807230000000004
                },
                {
                    "name": "C#5",
                    "midi": 73,
                    "time": 29.096403000000034,
                    "velocity": 0.5905511811023622,
                    "duration": 0.1807230000000004
                },
                {
                    "name": "G#4",
                    "midi": 68,
                    "time": 29.277126000000035,
                    "velocity": 0.5905511811023622,
                    "duration": 0.1807230000000004
                },
                {
                    "name": "C5",
                    "midi": 72,
                    "time": 29.277126000000035,
                    "velocity": 0.5905511811023622,
                    "duration": 0.1807230000000004
                },
                {
                    "name": "A#4",
                    "midi": 70,
                    "time": 29.457849000000035,
                    "velocity": 0.5905511811023622,
                    "duration": 0.1807230000000004
                },
                {
                    "name": "C#5",
                    "midi": 73,
                    "time": 29.457849000000035,
                    "velocity": 0.5905511811023622,
                    "duration": 0.1807230000000004
                },
                {
                    "name": "G#4",
                    "midi": 68,
                    "time": 29.638572000000035,
                    "velocity": 0.5905511811023622,
                    "duration": 0.1807230000000004
                },
                {
                    "name": "C5",
                    "midi": 72,
                    "time": 29.638572000000035,
                    "velocity": 0.5905511811023622,
                    "duration": 0.1807230000000004
                },
                {
                    "name": "F#4",
                    "midi": 66,
                    "time": 29.819295000000036,
                    "velocity": 0.5905511811023622,
                    "duration": 0.1807230000000004
                },
                {
                    "name": "A4",
                    "midi": 69,
                    "time": 29.819295000000036,
                    "velocity": 0.5905511811023622,
                    "duration": 0.1807230000000004
                },
                {
                    "name": "F4",
                    "midi": 65,
                    "time": 30.000018000000036,
                    "velocity": 0.5905511811023622,
                    "duration": 0.1807230000000004
                },
                {
                    "name": "G#4",
                    "midi": 68,
                    "time": 30.000018000000036,
                    "velocity": 0.5905511811023622,
                    "duration": 0.1807230000000004
                },
                {
                    "name": "F#4",
                    "midi": 66,
                    "time": 30.180741000000037,
                    "velocity": 0.5905511811023622,
                    "duration": 0.1807230000000004
                },
                {
                    "name": "A4",
                    "midi": 69,
                    "time": 30.180741000000037,
                    "velocity": 0.5905511811023622,
                    "duration": 0.1807230000000004
                },
                {
                    "name": "D#4",
                    "midi": 63,
                    "time": 30.361464000000037,
                    "velocity": 0.5905511811023622,
                    "duration": 0.1807230000000004
                },
                {
                    "name": "G4",
                    "midi": 67,
                    "time": 30.361464000000037,
                    "velocity": 0.5905511811023622,
                    "duration": 0.1807230000000004
                },
                {
                    "name": "D#4",
                    "midi": 63,
                    "time": 30.542187000000038,
                    "velocity": 0.5905511811023622,
                    "duration": 0.1807230000000004
                },
                {
                    "name": "G4",
                    "midi": 67,
                    "time": 30.542187000000038,
                    "velocity": 0.5905511811023622,
                    "duration": 0.1807230000000004
                },
                {
                    "name": "D#4",
                    "midi": 63,
                    "time": 30.722910000000038,
                    "velocity": 0.5905511811023622,
                    "duration": 0.1807230000000004
                },
                {
                    "name": "G4",
                    "midi": 67,
                    "time": 30.722910000000038,
                    "velocity": 0.5905511811023622,
                    "duration": 0.1807230000000004
                },
                {
                    "name": "F4",
                    "midi": 65,
                    "time": 30.90363300000004,
                    "velocity": 0.5905511811023622,
                    "duration": 0.1807230000000004
                },
                {
                    "name": "G#4",
                    "midi": 68,
                    "time": 30.90363300000004,
                    "velocity": 0.5905511811023622,
                    "duration": 0.1807230000000004
                },
                {
                    "name": "F#4",
                    "midi": 66,
                    "time": 31.08435600000004,
                    "velocity": 0.5905511811023622,
                    "duration": 0.1807230000000004
                },
                {
                    "name": "A4",
                    "midi": 69,
                    "time": 31.08435600000004,
                    "velocity": 0.5905511811023622,
                    "duration": 0.1807230000000004
                },
                {
                    "name": "G#4",
                    "midi": 68,
                    "time": 31.26507900000004,
                    "velocity": 0.5905511811023622,
                    "duration": 0.1807230000000004
                },
                {
                    "name": "C5",
                    "midi": 72,
                    "time": 31.26507900000004,
                    "velocity": 0.5905511811023622,
                    "duration": 0.1807230000000004
                },
                {
                    "name": "A#4",
                    "midi": 70,
                    "time": 31.44580200000004,
                    "velocity": 0.5905511811023622,
                    "duration": 0.1807230000000004
                },
                {
                    "name": "C#5",
                    "midi": 73,
                    "time": 31.44580200000004,
                    "velocity": 0.5905511811023622,
                    "duration": 0.1807230000000004
                },
                {
                    "name": "D#5",
                    "midi": 75,
                    "time": 32.16869400000004,
                    "velocity": 0.3858267716535433,
                    "duration": 0.7228920000000016
                },
                {
                    "name": "E5",
                    "midi": 76,
                    "time": 32.89158600000004,
                    "velocity": 0.3858267716535433,
                    "duration": 0.7228920000000016
                },
                {
                    "name": "D#5",
                    "midi": 75,
                    "time": 33.61447800000004,
                    "velocity": 0.3858267716535433,
                    "duration": 0.7228920000000016
                },
                {
                    "name": "E5",
                    "midi": 76,
                    "time": 34.33737000000004,
                    "velocity": 0.3858267716535433,
                    "duration": 0.7228920000000016
                },
                {
                    "name": "D#5",
                    "midi": 75,
                    "time": 35.060262000000044,
                    "velocity": 0.3858267716535433,
                    "duration": 0.7228920000000016
                },
                {
                    "name": "E5",
                    "midi": 76,
                    "time": 35.783154000000046,
                    "velocity": 0.3858267716535433,
                    "duration": 0.3614460000000008
                },
                {
                    "name": "G4",
                    "midi": 67,
                    "time": 36.50604600000005,
                    "velocity": 0.3858267716535433,
                    "duration": 0.7228920000000016
                },
                {
                    "name": "B4",
                    "midi": 71,
                    "time": 36.50604600000005,
                    "velocity": 0.3858267716535433,
                    "duration": 0.7228920000000016
                },
                {
                    "name": "F#4",
                    "midi": 66,
                    "time": 37.22893800000005,
                    "velocity": 0.3858267716535433,
                    "duration": 0.7228920000000016
                },
                {
                    "name": "C5",
                    "midi": 72,
                    "time": 37.22893800000005,
                    "velocity": 0.3858267716535433,
                    "duration": 0.7228920000000016
                },
                {
                    "name": "F4",
                    "midi": 65,
                    "time": 37.95183000000005,
                    "velocity": 0.3858267716535433,
                    "duration": 0.1807230000000004
                },
                {
                    "name": "B4",
                    "midi": 71,
                    "time": 37.95183000000005,
                    "velocity": 0.3858267716535433,
                    "duration": 0.1807230000000004
                },
                {
                    "name": "C2",
                    "midi": 36,
                    "time": 38.31327600000005,
                    "velocity": 0.6929133858267716,
                    "duration": 0.3614460000000008
                },
                {
                    "name": "F#2",
                    "midi": 42,
                    "time": 38.31327600000005,
                    "velocity": 0.6929133858267716,
                    "duration": 0.3614460000000008
                },
                {
                    "name": "C3",
                    "midi": 48,
                    "time": 38.31327600000005,
                    "velocity": 0.6929133858267716,
                    "duration": 0.3614460000000008
                },
                {
                    "name": "E3",
                    "midi": 52,
                    "time": 38.67472200000005,
                    "velocity": 0.6929133858267716,
                    "duration": 0.1807230000000004
                },
                {
                    "name": "G#3",
                    "midi": 56,
                    "time": 38.67472200000005,
                    "velocity": 0.6929133858267716,
                    "duration": 0.1807230000000004
                },
                {
                    "name": "F#3",
                    "midi": 54,
                    "time": 38.85544500000005,
                    "velocity": 0.6929133858267716,
                    "duration": 0.1807230000000004
                },
                {
                    "name": "A3",
                    "midi": 57,
                    "time": 38.85544500000005,
                    "velocity": 0.6929133858267716,
                    "duration": 0.1807230000000004
                },
                {
                    "name": "E3",
                    "midi": 52,
                    "time": 39.03616800000005,
                    "velocity": 0.6929133858267716,
                    "duration": 0.1807230000000004
                },
                {
                    "name": "G#3",
                    "midi": 56,
                    "time": 39.03616800000005,
                    "velocity": 0.6929133858267716,
                    "duration": 0.1807230000000004
                },
                {
                    "name": "D3",
                    "midi": 50,
                    "time": 39.216891000000054,
                    "velocity": 0.6929133858267716,
                    "duration": 0.1807230000000004
                },
                {
                    "name": "F#3",
                    "midi": 54,
                    "time": 39.216891000000054,
                    "velocity": 0.6929133858267716,
                    "duration": 0.1807230000000004
                },
                {
                    "name": "C#3",
                    "midi": 49,
                    "time": 39.397614000000054,
                    "velocity": 0.6929133858267716,
                    "duration": 0.1807230000000004
                },
                {
                    "name": "E3",
                    "midi": 52,
                    "time": 39.397614000000054,
                    "velocity": 0.6929133858267716,
                    "duration": 0.1807230000000004
                },
                {
                    "name": "D3",
                    "midi": 50,
                    "time": 39.578337000000055,
                    "velocity": 0.6929133858267716,
                    "duration": 0.1807230000000004
                },
                {
                    "name": "F#3",
                    "midi": 54,
                    "time": 39.578337000000055,
                    "velocity": 0.6929133858267716,
                    "duration": 0.1807230000000004
                },
                {
                    "name": "C2",
                    "midi": 36,
                    "time": 39.759060000000055,
                    "velocity": 0.6929133858267716,
                    "duration": 0.1807230000000004
                },
                {
                    "name": "F#2",
                    "midi": 42,
                    "time": 39.759060000000055,
                    "velocity": 0.6929133858267716,
                    "duration": 0.1807230000000004
                },
                {
                    "name": "C3",
                    "midi": 48,
                    "time": 39.759060000000055,
                    "velocity": 0.6929133858267716,
                    "duration": 0.1807230000000004
                },
                {
                    "name": "F#3",
                    "midi": 54,
                    "time": 39.939783000000055,
                    "velocity": 0.6929133858267716,
                    "duration": 0.1807230000000004
                },
                {
                    "name": "A3",
                    "midi": 57,
                    "time": 39.939783000000055,
                    "velocity": 0.6929133858267716,
                    "duration": 0.1807230000000004
                },
                {
                    "name": "E3",
                    "midi": 52,
                    "time": 40.120506000000056,
                    "velocity": 0.6929133858267716,
                    "duration": 0.1807230000000004
                },
                {
                    "name": "G#3",
                    "midi": 56,
                    "time": 40.120506000000056,
                    "velocity": 0.6929133858267716,
                    "duration": 0.1807230000000004
                },
                {
                    "name": "F#3",
                    "midi": 54,
                    "time": 40.301229000000056,
                    "velocity": 0.6929133858267716,
                    "duration": 0.1807230000000004
                },
                {
                    "name": "A3",
                    "midi": 57,
                    "time": 40.301229000000056,
                    "velocity": 0.6929133858267716,
                    "duration": 0.1807230000000004
                },
                {
                    "name": "E3",
                    "midi": 52,
                    "time": 40.48195200000006,
                    "velocity": 0.6929133858267716,
                    "duration": 0.1807230000000004
                },
                {
                    "name": "G#3",
                    "midi": 56,
                    "time": 40.48195200000006,
                    "velocity": 0.6929133858267716,
                    "duration": 0.1807230000000004
                },
                {
                    "name": "D3",
                    "midi": 50,
                    "time": 40.66267500000006,
                    "velocity": 0.6929133858267716,
                    "duration": 0.1807230000000004
                },
                {
                    "name": "F#3",
                    "midi": 54,
                    "time": 40.66267500000006,
                    "velocity": 0.6929133858267716,
                    "duration": 0.1807230000000004
                },
                {
                    "name": "C#3",
                    "midi": 49,
                    "time": 40.84339800000006,
                    "velocity": 0.6929133858267716,
                    "duration": 0.1807230000000004
                },
                {
                    "name": "E3",
                    "midi": 52,
                    "time": 40.84339800000006,
                    "velocity": 0.6929133858267716,
                    "duration": 0.1807230000000004
                },
                {
                    "name": "D3",
                    "midi": 50,
                    "time": 41.02412100000006,
                    "velocity": 0.6929133858267716,
                    "duration": 0.1807230000000004
                },
                {
                    "name": "F#3",
                    "midi": 54,
                    "time": 41.02412100000006,
                    "velocity": 0.6929133858267716,
                    "duration": 0.1807230000000004
                },
                {
                    "name": "B2",
                    "midi": 47,
                    "time": 41.20484400000006,
                    "velocity": 0.6929133858267716,
                    "duration": 0.1807230000000004
                },
                {
                    "name": "D#3",
                    "midi": 51,
                    "time": 41.20484400000006,
                    "velocity": 0.6929133858267716,
                    "duration": 0.1807230000000004
                },
                {
                    "name": "C#3",
                    "midi": 49,
                    "time": 41.38556700000006,
                    "velocity": 0.6929133858267716,
                    "duration": 0.1807230000000004
                },
                {
                    "name": "E3",
                    "midi": 52,
                    "time": 41.38556700000006,
                    "velocity": 0.6929133858267716,
                    "duration": 0.1807230000000004
                },
                {
                    "name": "D3",
                    "midi": 50,
                    "time": 41.56629000000006,
                    "velocity": 0.6929133858267716,
                    "duration": 0.1807230000000004
                },
                {
                    "name": "F#3",
                    "midi": 54,
                    "time": 41.56629000000006,
                    "velocity": 0.6929133858267716,
                    "duration": 0.1807230000000004
                },
                {
                    "name": "E3",
                    "midi": 52,
                    "time": 41.74701300000006,
                    "velocity": 0.6929133858267716,
                    "duration": 0.1807230000000004
                },
                {
                    "name": "G#3",
                    "midi": 56,
                    "time": 41.74701300000006,
                    "velocity": 0.6929133858267716,
                    "duration": 0.1807230000000004
                },
                {
                    "name": "F#3",
                    "midi": 54,
                    "time": 41.92773600000006,
                    "velocity": 0.6929133858267716,
                    "duration": 0.1807230000000004
                },
                {
                    "name": "A3",
                    "midi": 57,
                    "time": 41.92773600000006,
                    "velocity": 0.6929133858267716,
                    "duration": 0.1807230000000004
                },
                {
                    "name": "C4",
                    "midi": 60,
                    "time": 42.65062800000006,
                    "velocity": 0.3858267716535433,
                    "duration": 0.7228920000000016
                },
                {
                    "name": "A3",
                    "midi": 57,
                    "time": 43.37352000000006,
                    "velocity": 0.3858267716535433,
                    "duration": 0.7228920000000016
                },
                {
                    "name": "C4",
                    "midi": 60,
                    "time": 44.096412000000065,
                    "velocity": 0.3858267716535433,
                    "duration": 0.7228920000000016
                },
                {
                    "name": "A3",
                    "midi": 57,
                    "time": 44.819304000000066,
                    "velocity": 0.3858267716535433,
                    "duration": 0.7228920000000016
                },
                {
                    "name": "C4",
                    "midi": 60,
                    "time": 45.54219600000007,
                    "velocity": 0.3858267716535433,
                    "duration": 0.7228920000000016
                },
                {
                    "name": "A3",
                    "midi": 57,
                    "time": 46.26508800000007,
                    "velocity": 0.3858267716535433,
                    "duration": 0.7228920000000016
                },
                {
                    "name": "C4",
                    "midi": 60,
                    "time": 46.98798000000007,
                    "velocity": 0.3858267716535433,
                    "duration": 0.3614460000000008
                },
                {
                    "name": "A3",
                    "midi": 57,
                    "time": 47.71087200000007,
                    "velocity": 0.4881889763779528,
                    "duration": 0.7228920000000016
                },
                {
                    "name": "C4",
                    "midi": 60,
                    "time": 48.433764000000075,
                    "velocity": 0.4881889763779528,
                    "duration": 0.7228920000000016
                },
                {
                    "name": "A3",
                    "midi": 57,
                    "time": 49.156656000000076,
                    "velocity": 0.4881889763779528,
                    "duration": 0.7228920000000016
                },
                {
                    "name": "C4",
                    "midi": 60,
                    "time": 49.87954800000008,
                    "velocity": 0.4881889763779528,
                    "duration": 0.7228920000000016
                },
                {
                    "name": "A3",
                    "midi": 57,
                    "time": 50.60244000000008,
                    "velocity": 0.4881889763779528,
                    "duration": 0.3614460000000008
                },
                {
                    "name": "A3",
                    "midi": 57,
                    "time": 51.32533200000008,
                    "velocity": 0.4881889763779528,
                    "duration": 0.7228920000000016
                },
                {
                    "name": "C4",
                    "midi": 60,
                    "time": 52.04822400000008,
                    "velocity": 0.4881889763779528,
                    "duration": 0.7228920000000016
                },
                {
                    "name": "A3",
                    "midi": 57,
                    "time": 52.771116000000085,
                    "velocity": 0.5905511811023622,
                    "duration": 0.7228920000000016
                },
                {
                    "name": "C4",
                    "midi": 60,
                    "time": 53.494008000000086,
                    "velocity": 0.5905511811023622,
                    "duration": 0.7228920000000016
                },
                {
                    "name": "F#1",
                    "midi": 30,
                    "time": 54.21690000000009,
                    "velocity": 0.5905511811023622,
                    "duration": 0.1807230000000004
                },
                {
                    "name": "F#2",
                    "midi": 42,
                    "time": 54.21690000000009,
                    "velocity": 0.5905511811023622,
                    "duration": 0.1807230000000004
                },
                {
                    "name": "E1",
                    "midi": 28,
                    "time": 54.39762300000009,
                    "velocity": 0.4881889763779528,
                    "duration": 0.1807230000000004
                },
                {
                    "name": "E2",
                    "midi": 40,
                    "time": 54.39762300000009,
                    "velocity": 0.4881889763779528,
                    "duration": 0.1807230000000004
                },
                {
                    "name": "F#1",
                    "midi": 30,
                    "time": 54.57834600000009,
                    "velocity": 0.4881889763779528,
                    "duration": 0.1807230000000004
                },
                {
                    "name": "F#2",
                    "midi": 42,
                    "time": 54.57834600000009,
                    "velocity": 0.4881889763779528,
                    "duration": 0.1807230000000004
                },
                {
                    "name": "E1",
                    "midi": 28,
                    "time": 54.75906900000009,
                    "velocity": 0.4881889763779528,
                    "duration": 0.1807230000000004
                },
                {
                    "name": "E2",
                    "midi": 40,
                    "time": 54.75906900000009,
                    "velocity": 0.4881889763779528,
                    "duration": 0.1807230000000004
                },
                {
                    "name": "F#1",
                    "midi": 30,
                    "time": 54.93979200000009,
                    "velocity": 0.4881889763779528,
                    "duration": 0.1807230000000004
                },
                {
                    "name": "F#2",
                    "midi": 42,
                    "time": 54.93979200000009,
                    "velocity": 0.4881889763779528,
                    "duration": 0.1807230000000004
                },
                {
                    "name": "E1",
                    "midi": 28,
                    "time": 55.12051500000009,
                    "velocity": 0.4881889763779528,
                    "duration": 0.1807230000000004
                },
                {
                    "name": "E2",
                    "midi": 40,
                    "time": 55.12051500000009,
                    "velocity": 0.4881889763779528,
                    "duration": 0.1807230000000004
                },
                {
                    "name": "F#1",
                    "midi": 30,
                    "time": 55.30123800000009,
                    "velocity": 0.5905511811023622,
                    "duration": 0.1807230000000004
                },
                {
                    "name": "F#2",
                    "midi": 42,
                    "time": 55.30123800000009,
                    "velocity": 0.5905511811023622,
                    "duration": 0.1807230000000004
                },
                {
                    "name": "E1",
                    "midi": 28,
                    "time": 55.48196100000009,
                    "velocity": 0.5905511811023622,
                    "duration": 0.1807230000000004
                },
                {
                    "name": "E2",
                    "midi": 40,
                    "time": 55.48196100000009,
                    "velocity": 0.5905511811023622,
                    "duration": 0.1807230000000004
                },
                {
                    "name": "F#1",
                    "midi": 30,
                    "time": 55.66268400000009,
                    "velocity": 0.5905511811023622,
                    "duration": 0.1807230000000004
                },
                {
                    "name": "F#2",
                    "midi": 42,
                    "time": 55.66268400000009,
                    "velocity": 0.5905511811023622,
                    "duration": 0.1807230000000004
                },
                {
                    "name": "E1",
                    "midi": 28,
                    "time": 55.84340700000009,
                    "velocity": 0.5905511811023622,
                    "duration": 0.1807230000000004
                },
                {
                    "name": "E2",
                    "midi": 40,
                    "time": 55.84340700000009,
                    "velocity": 0.5905511811023622,
                    "duration": 0.1807230000000004
                },
                {
                    "name": "F#1",
                    "midi": 30,
                    "time": 56.02413000000009,
                    "velocity": 0.5905511811023622,
                    "duration": 0.1807230000000004
                },
                {
                    "name": "F#2",
                    "midi": 42,
                    "time": 56.02413000000009,
                    "velocity": 0.5905511811023622,
                    "duration": 0.1807230000000004
                },
                {
                    "name": "E1",
                    "midi": 28,
                    "time": 56.20485300000009,
                    "velocity": 0.5905511811023622,
                    "duration": 0.1807230000000004
                },
                {
                    "name": "E2",
                    "midi": 40,
                    "time": 56.20485300000009,
                    "velocity": 0.5905511811023622,
                    "duration": 0.1807230000000004
                },
                {
                    "name": "F#1",
                    "midi": 30,
                    "time": 56.38557600000009,
                    "velocity": 0.5905511811023622,
                    "duration": 0.1807230000000004
                },
                {
                    "name": "F#2",
                    "midi": 42,
                    "time": 56.38557600000009,
                    "velocity": 0.5905511811023622,
                    "duration": 0.1807230000000004
                },
                {
                    "name": "E1",
                    "midi": 28,
                    "time": 56.56629900000009,
                    "velocity": 0.5905511811023622,
                    "duration": 0.1807230000000004
                },
                {
                    "name": "E2",
                    "midi": 40,
                    "time": 56.56629900000009,
                    "velocity": 0.5905511811023622,
                    "duration": 0.1807230000000004
                },
                {
                    "name": "F#1",
                    "midi": 30,
                    "time": 56.747022000000094,
                    "velocity": 0.6929133858267716,
                    "duration": 0.1807230000000004
                },
                {
                    "name": "F#2",
                    "midi": 42,
                    "time": 56.747022000000094,
                    "velocity": 0.6929133858267716,
                    "duration": 0.1807230000000004
                },
                {
                    "name": "E1",
                    "midi": 28,
                    "time": 56.927745000000094,
                    "velocity": 0.6929133858267716,
                    "duration": 0.1807230000000004
                },
                {
                    "name": "E2",
                    "midi": 40,
                    "time": 56.927745000000094,
                    "velocity": 0.6929133858267716,
                    "duration": 0.1807230000000004
                },
                {
                    "name": "F#1",
                    "midi": 30,
                    "time": 57.108468000000094,
                    "velocity": 0.6929133858267716,
                    "duration": 0.1807230000000004
                },
                {
                    "name": "F#2",
                    "midi": 42,
                    "time": 57.108468000000094,
                    "velocity": 0.6929133858267716,
                    "duration": 0.1807230000000004
                },
                {
                    "name": "E1",
                    "midi": 28,
                    "time": 57.289191000000095,
                    "velocity": 0.6929133858267716,
                    "duration": 0.1807230000000004
                },
                {
                    "name": "E2",
                    "midi": 40,
                    "time": 57.289191000000095,
                    "velocity": 0.6929133858267716,
                    "duration": 0.1807230000000004
                },
                {
                    "name": "F#1",
                    "midi": 30,
                    "time": 57.469914000000095,
                    "velocity": 0.6929133858267716,
                    "duration": 0.1807230000000004
                },
                {
                    "name": "F#2",
                    "midi": 42,
                    "time": 57.469914000000095,
                    "velocity": 0.6929133858267716,
                    "duration": 0.1807230000000004
                },
                {
                    "name": "E1",
                    "midi": 28,
                    "time": 57.650637000000096,
                    "velocity": 0.6929133858267716,
                    "duration": 0.1807230000000004
                },
                {
                    "name": "E2",
                    "midi": 40,
                    "time": 57.650637000000096,
                    "velocity": 0.6929133858267716,
                    "duration": 0.1807230000000004
                },
                {
                    "name": "F#1",
                    "midi": 30,
                    "time": 57.831360000000096,
                    "velocity": 0.6929133858267716,
                    "duration": 0.1807230000000004
                },
                {
                    "name": "F#2",
                    "midi": 42,
                    "time": 57.831360000000096,
                    "velocity": 0.6929133858267716,
                    "duration": 0.1807230000000004
                },
                {
                    "name": "E1",
                    "midi": 28,
                    "time": 58.012083000000096,
                    "velocity": 0.6929133858267716,
                    "duration": 0.1807230000000004
                },
                {
                    "name": "E2",
                    "midi": 40,
                    "time": 58.012083000000096,
                    "velocity": 0.6929133858267716,
                    "duration": 0.1807230000000004
                },
                {
                    "name": "F#1",
                    "midi": 30,
                    "time": 58.1928060000001,
                    "velocity": 0.6929133858267716,
                    "duration": 0.1807230000000004
                },
                {
                    "name": "F#2",
                    "midi": 42,
                    "time": 58.1928060000001,
                    "velocity": 0.6929133858267716,
                    "duration": 0.1807230000000004
                },
                {
                    "name": "E1",
                    "midi": 28,
                    "time": 58.3735290000001,
                    "velocity": 0.6929133858267716,
                    "duration": 0.1807230000000004
                },
                {
                    "name": "E2",
                    "midi": 40,
                    "time": 58.3735290000001,
                    "velocity": 0.6929133858267716,
                    "duration": 0.1807230000000004
                },
                {
                    "name": "F#1",
                    "midi": 30,
                    "time": 58.5542520000001,
                    "velocity": 0.6929133858267716,
                    "duration": 0.1807230000000004
                },
                {
                    "name": "F#2",
                    "midi": 42,
                    "time": 58.5542520000001,
                    "velocity": 0.6929133858267716,
                    "duration": 0.1807230000000004
                },
                {
                    "name": "E1",
                    "midi": 28,
                    "time": 58.7349750000001,
                    "velocity": 0.6929133858267716,
                    "duration": 0.1807230000000004
                },
                {
                    "name": "E2",
                    "midi": 40,
                    "time": 58.7349750000001,
                    "velocity": 0.6929133858267716,
                    "duration": 0.1807230000000004
                },
                {
                    "name": "F#1",
                    "midi": 30,
                    "time": 58.9156980000001,
                    "velocity": 0.6929133858267716,
                    "duration": 0.1807230000000004
                },
                {
                    "name": "F#2",
                    "midi": 42,
                    "time": 58.9156980000001,
                    "velocity": 0.6929133858267716,
                    "duration": 0.1807230000000004
                },
                {
                    "name": "E1",
                    "midi": 28,
                    "time": 59.0964210000001,
                    "velocity": 0.6929133858267716,
                    "duration": 0.1807230000000004
                },
                {
                    "name": "E2",
                    "midi": 40,
                    "time": 59.0964210000001,
                    "velocity": 0.6929133858267716,
                    "duration": 0.1807230000000004
                },
                {
                    "name": "F#1",
                    "midi": 30,
                    "time": 59.2771440000001,
                    "velocity": 0.6929133858267716,
                    "duration": 0.1807230000000004
                },
                {
                    "name": "F#2",
                    "midi": 42,
                    "time": 59.2771440000001,
                    "velocity": 0.6929133858267716,
                    "duration": 0.1807230000000004
                },
                {
                    "name": "E1",
                    "midi": 28,
                    "time": 59.4578670000001,
                    "velocity": 0.6929133858267716,
                    "duration": 0.1807230000000004
                },
                {
                    "name": "E2",
                    "midi": 40,
                    "time": 59.4578670000001,
                    "velocity": 0.6929133858267716,
                    "duration": 0.1807230000000004
                },
                {
                    "name": "F#1",
                    "midi": 30,
                    "time": 59.6385900000001,
                    "velocity": 0.6929133858267716,
                    "duration": 0.1807230000000004
                },
                {
                    "name": "F#2",
                    "midi": 42,
                    "time": 59.6385900000001,
                    "velocity": 0.6929133858267716,
                    "duration": 0.1807230000000004
                },
                {
                    "name": "E1",
                    "midi": 28,
                    "time": 59.8193130000001,
                    "velocity": 0.6929133858267716,
                    "duration": 0.1807230000000004
                },
                {
                    "name": "E2",
                    "midi": 40,
                    "time": 59.8193130000001,
                    "velocity": 0.6929133858267716,
                    "duration": 0.1807230000000004
                },
                {
                    "name": "F#1",
                    "midi": 30,
                    "time": 60.0000360000001,
                    "velocity": 0.6929133858267716,
                    "duration": 0.1807230000000004
                },
                {
                    "name": "F#2",
                    "midi": 42,
                    "time": 60.0000360000001,
                    "velocity": 0.6929133858267716,
                    "duration": 0.1807230000000004
                },
                {
                    "name": "E1",
                    "midi": 28,
                    "time": 60.1807590000001,
                    "velocity": 0.6929133858267716,
                    "duration": 0.1807230000000004
                },
                {
                    "name": "E2",
                    "midi": 40,
                    "time": 60.1807590000001,
                    "velocity": 0.6929133858267716,
                    "duration": 0.1807230000000004
                },
                {
                    "name": "F#1",
                    "midi": 30,
                    "time": 60.3614820000001,
                    "velocity": 0.6929133858267716,
                    "duration": 0.1807230000000004
                },
                {
                    "name": "F#2",
                    "midi": 42,
                    "time": 60.3614820000001,
                    "velocity": 0.6929133858267716,
                    "duration": 0.1807230000000004
                },
                {
                    "name": "E1",
                    "midi": 28,
                    "time": 60.5422050000001,
                    "velocity": 0.6929133858267716,
                    "duration": 0.1807230000000004
                },
                {
                    "name": "E2",
                    "midi": 40,
                    "time": 60.5422050000001,
                    "velocity": 0.6929133858267716,
                    "duration": 0.1807230000000004
                },
                {
                    "name": "F#1",
                    "midi": 30,
                    "time": 60.7229280000001,
                    "velocity": 0.6929133858267716,
                    "duration": 0.1807230000000004
                },
                {
                    "name": "F#2",
                    "midi": 42,
                    "time": 60.7229280000001,
                    "velocity": 0.6929133858267716,
                    "duration": 0.1807230000000004
                },
                {
                    "name": "E1",
                    "midi": 28,
                    "time": 60.9036510000001,
                    "velocity": 0.6929133858267716,
                    "duration": 0.1807230000000004
                },
                {
                    "name": "E2",
                    "midi": 40,
                    "time": 60.9036510000001,
                    "velocity": 0.6929133858267716,
                    "duration": 0.1807230000000004
                },
                {
                    "name": "F#1",
                    "midi": 30,
                    "time": 61.0843740000001,
                    "velocity": 0.6929133858267716,
                    "duration": 0.1807230000000004
                },
                {
                    "name": "F#2",
                    "midi": 42,
                    "time": 61.0843740000001,
                    "velocity": 0.6929133858267716,
                    "duration": 0.1807230000000004
                },
                {
                    "name": "E1",
                    "midi": 28,
                    "time": 61.265097000000104,
                    "velocity": 0.6929133858267716,
                    "duration": 0.1807230000000004
                },
                {
                    "name": "E2",
                    "midi": 40,
                    "time": 61.265097000000104,
                    "velocity": 0.6929133858267716,
                    "duration": 0.1807230000000004
                },
                {
                    "name": "F#1",
                    "midi": 30,
                    "time": 61.445820000000104,
                    "velocity": 0.6929133858267716,
                    "duration": 0.1807230000000004
                },
                {
                    "name": "F#2",
                    "midi": 42,
                    "time": 61.445820000000104,
                    "velocity": 0.6929133858267716,
                    "duration": 0.1807230000000004
                },
                {
                    "name": "E1",
                    "midi": 28,
                    "time": 61.626543000000105,
                    "velocity": 0.6929133858267716,
                    "duration": 0.1807230000000004
                },
                {
                    "name": "E2",
                    "midi": 40,
                    "time": 61.626543000000105,
                    "velocity": 0.6929133858267716,
                    "duration": 0.1807230000000004
                },
                {
                    "name": "F#1",
                    "midi": 30,
                    "time": 61.807266000000105,
                    "velocity": 0.6929133858267716,
                    "duration": 0.1807230000000004
                },
                {
                    "name": "F#2",
                    "midi": 42,
                    "time": 61.807266000000105,
                    "velocity": 0.6929133858267716,
                    "duration": 0.1807230000000004
                },
                {
                    "name": "E1",
                    "midi": 28,
                    "time": 61.987989000000105,
                    "velocity": 0.6929133858267716,
                    "duration": 0.1807230000000004
                },
                {
                    "name": "E2",
                    "midi": 40,
                    "time": 61.987989000000105,
                    "velocity": 0.6929133858267716,
                    "duration": 0.1807230000000004
                },
                {
                    "name": "F#1",
                    "midi": 30,
                    "time": 62.168712000000106,
                    "velocity": 0.6929133858267716,
                    "duration": 0.1807230000000004
                },
                {
                    "name": "F#2",
                    "midi": 42,
                    "time": 62.168712000000106,
                    "velocity": 0.6929133858267716,
                    "duration": 0.1807230000000004
                },
                {
                    "name": "E1",
                    "midi": 28,
                    "time": 62.349435000000106,
                    "velocity": 0.6929133858267716,
                    "duration": 0.1807230000000004
                },
                {
                    "name": "E2",
                    "midi": 40,
                    "time": 62.349435000000106,
                    "velocity": 0.6929133858267716,
                    "duration": 0.1807230000000004
                },
                {
                    "name": "F#1",
                    "midi": 30,
                    "time": 62.53015800000011,
                    "velocity": 0.6929133858267716,
                    "duration": 0.1807230000000004
                },
                {
                    "name": "F#2",
                    "midi": 42,
                    "time": 62.53015800000011,
                    "velocity": 0.6929133858267716,
                    "duration": 0.1807230000000004
                },
                {
                    "name": "E1",
                    "midi": 28,
                    "time": 62.71088100000011,
                    "velocity": 0.6929133858267716,
                    "duration": 0.1807230000000004
                },
                {
                    "name": "E2",
                    "midi": 40,
                    "time": 62.71088100000011,
                    "velocity": 0.6929133858267716,
                    "duration": 0.1807230000000004
                },
                {
                    "name": "F#1",
                    "midi": 30,
                    "time": 62.89160400000011,
                    "velocity": 0.6929133858267716,
                    "duration": 0.1807230000000004
                },
                {
                    "name": "F#2",
                    "midi": 42,
                    "time": 62.89160400000011,
                    "velocity": 0.6929133858267716,
                    "duration": 0.1807230000000004
                },
                {
                    "name": "E1",
                    "midi": 28,
                    "time": 63.07232700000011,
                    "velocity": 0.6929133858267716,
                    "duration": 0.1807230000000004
                },
                {
                    "name": "E2",
                    "midi": 40,
                    "time": 63.07232700000011,
                    "velocity": 0.6929133858267716,
                    "duration": 0.1807230000000004
                },
                {
                    "name": "F#1",
                    "midi": 30,
                    "time": 63.25305000000011,
                    "velocity": 0.6929133858267716,
                    "duration": 0.1807230000000004
                },
                {
                    "name": "F#2",
                    "midi": 42,
                    "time": 63.25305000000011,
                    "velocity": 0.6929133858267716,
                    "duration": 0.1807230000000004
                },
                {
                    "name": "E1",
                    "midi": 28,
                    "time": 63.43377300000011,
                    "velocity": 0.6929133858267716,
                    "duration": 0.1807230000000004
                },
                {
                    "name": "E2",
                    "midi": 40,
                    "time": 63.43377300000011,
                    "velocity": 0.6929133858267716,
                    "duration": 0.1807230000000004
                },
                {
                    "name": "F#1",
                    "midi": 30,
                    "time": 63.61449600000011,
                    "velocity": 0.6929133858267716,
                    "duration": 0.1807230000000004
                },
                {
                    "name": "F#2",
                    "midi": 42,
                    "time": 63.61449600000011,
                    "velocity": 0.6929133858267716,
                    "duration": 0.1807230000000004
                },
                {
                    "name": "E1",
                    "midi": 28,
                    "time": 63.79521900000011,
                    "velocity": 0.6929133858267716,
                    "duration": 0.1807230000000004
                },
                {
                    "name": "E2",
                    "midi": 40,
                    "time": 63.79521900000011,
                    "velocity": 0.6929133858267716,
                    "duration": 0.1807230000000004
                },
                {
                    "name": "F#1",
                    "midi": 30,
                    "time": 63.97594200000011,
                    "velocity": 0.6929133858267716,
                    "duration": 0.1807229999999933
                },
                {
                    "name": "F#2",
                    "midi": 42,
                    "time": 63.97594200000011,
                    "velocity": 0.6929133858267716,
                    "duration": 0.1807229999999933
                },
                {
                    "name": "E1",
                    "midi": 28,
                    "time": 64.1566650000001,
                    "velocity": 0.6929133858267716,
                    "duration": 0.1807230000000004
                },
                {
                    "name": "E2",
                    "midi": 40,
                    "time": 64.1566650000001,
                    "velocity": 0.6929133858267716,
                    "duration": 0.1807230000000004
                },
                {
                    "name": "F#1",
                    "midi": 30,
                    "time": 64.3373880000001,
                    "velocity": 0.6929133858267716,
                    "duration": 0.1807230000000004
                },
                {
                    "name": "F#2",
                    "midi": 42,
                    "time": 64.3373880000001,
                    "velocity": 0.6929133858267716,
                    "duration": 0.1807230000000004
                },
                {
                    "name": "E1",
                    "midi": 28,
                    "time": 64.5181110000001,
                    "velocity": 0.6929133858267716,
                    "duration": 0.1807230000000004
                },
                {
                    "name": "E2",
                    "midi": 40,
                    "time": 64.5181110000001,
                    "velocity": 0.6929133858267716,
                    "duration": 0.1807230000000004
                },
                {
                    "name": "F#1",
                    "midi": 30,
                    "time": 64.6988340000001,
                    "velocity": 0.6929133858267716,
                    "duration": 0.1807230000000004
                },
                {
                    "name": "F#2",
                    "midi": 42,
                    "time": 64.6988340000001,
                    "velocity": 0.6929133858267716,
                    "duration": 0.1807230000000004
                },
                {
                    "name": "E1",
                    "midi": 28,
                    "time": 64.8795570000001,
                    "velocity": 0.6929133858267716,
                    "duration": 0.1807230000000004
                },
                {
                    "name": "E2",
                    "midi": 40,
                    "time": 64.8795570000001,
                    "velocity": 0.6929133858267716,
                    "duration": 0.1807230000000004
                },
                {
                    "name": "F#1",
                    "midi": 30,
                    "time": 65.0602800000001,
                    "velocity": 0.6929133858267716,
                    "duration": 0.1807230000000004
                },
                {
                    "name": "F#2",
                    "midi": 42,
                    "time": 65.0602800000001,
                    "velocity": 0.6929133858267716,
                    "duration": 0.1807230000000004
                },
                {
                    "name": "E1",
                    "midi": 28,
                    "time": 65.2410030000001,
                    "velocity": 0.6929133858267716,
                    "duration": 0.1807230000000004
                },
                {
                    "name": "E2",
                    "midi": 40,
                    "time": 65.2410030000001,
                    "velocity": 0.6929133858267716,
                    "duration": 0.1807230000000004
                },
                {
                    "name": "F#1",
                    "midi": 30,
                    "time": 65.4217260000001,
                    "velocity": 0.6929133858267716,
                    "duration": 0.1807230000000004
                },
                {
                    "name": "F#2",
                    "midi": 42,
                    "time": 65.4217260000001,
                    "velocity": 0.6929133858267716,
                    "duration": 0.1807230000000004
                },
                {
                    "name": "E1",
                    "midi": 28,
                    "time": 65.6024490000001,
                    "velocity": 0.6929133858267716,
                    "duration": 0.1807230000000004
                },
                {
                    "name": "E2",
                    "midi": 40,
                    "time": 65.6024490000001,
                    "velocity": 0.6929133858267716,
                    "duration": 0.1807230000000004
                },
                {
                    "name": "F#1",
                    "midi": 30,
                    "time": 65.7831720000001,
                    "velocity": 0.6929133858267716,
                    "duration": 0.1807230000000004
                },
                {
                    "name": "F#2",
                    "midi": 42,
                    "time": 65.7831720000001,
                    "velocity": 0.6929133858267716,
                    "duration": 0.1807230000000004
                },
                {
                    "name": "E1",
                    "midi": 28,
                    "time": 65.96389500000011,
                    "velocity": 0.6929133858267716,
                    "duration": 0.1807230000000004
                },
                {
                    "name": "E2",
                    "midi": 40,
                    "time": 65.96389500000011,
                    "velocity": 0.6929133858267716,
                    "duration": 0.1807230000000004
                },
                {
                    "name": "F#1",
                    "midi": 30,
                    "time": 66.14461800000011,
                    "velocity": 0.6929133858267716,
                    "duration": 0.1807230000000004
                },
                {
                    "name": "F#2",
                    "midi": 42,
                    "time": 66.14461800000011,
                    "velocity": 0.6929133858267716,
                    "duration": 0.1807230000000004
                },
                {
                    "name": "E1",
                    "midi": 28,
                    "time": 66.32534100000011,
                    "velocity": 0.6929133858267716,
                    "duration": 0.1807230000000004
                },
                {
                    "name": "E2",
                    "midi": 40,
                    "time": 66.32534100000011,
                    "velocity": 0.6929133858267716,
                    "duration": 0.1807230000000004
                },
                {
                    "name": "F#1",
                    "midi": 30,
                    "time": 66.50606400000011,
                    "velocity": 0.6929133858267716,
                    "duration": 0.1807230000000004
                },
                {
                    "name": "F#2",
                    "midi": 42,
                    "time": 66.50606400000011,
                    "velocity": 0.6929133858267716,
                    "duration": 0.1807230000000004
                },
                {
                    "name": "E1",
                    "midi": 28,
                    "time": 66.68678700000011,
                    "velocity": 0.6929133858267716,
                    "duration": 0.1807230000000004
                },
                {
                    "name": "E2",
                    "midi": 40,
                    "time": 66.68678700000011,
                    "velocity": 0.6929133858267716,
                    "duration": 0.1807230000000004
                },
                {
                    "name": "F#1",
                    "midi": 30,
                    "time": 66.86751000000011,
                    "velocity": 0.6929133858267716,
                    "duration": 0.1807230000000004
                },
                {
                    "name": "F#2",
                    "midi": 42,
                    "time": 66.86751000000011,
                    "velocity": 0.6929133858267716,
                    "duration": 0.1807230000000004
                },
                {
                    "name": "E1",
                    "midi": 28,
                    "time": 67.04823300000011,
                    "velocity": 0.6929133858267716,
                    "duration": 0.1807230000000004
                },
                {
                    "name": "E2",
                    "midi": 40,
                    "time": 67.04823300000011,
                    "velocity": 0.6929133858267716,
                    "duration": 0.1807230000000004
                },
                {
                    "name": "F#1",
                    "midi": 30,
                    "time": 67.22895600000011,
                    "velocity": 0.6929133858267716,
                    "duration": 0.1807230000000004
                },
                {
                    "name": "F#2",
                    "midi": 42,
                    "time": 67.22895600000011,
                    "velocity": 0.6929133858267716,
                    "duration": 0.1807230000000004
                },
                {
                    "name": "E1",
                    "midi": 28,
                    "time": 67.40967900000011,
                    "velocity": 0.6929133858267716,
                    "duration": 0.1807230000000004
                },
                {
                    "name": "E2",
                    "midi": 40,
                    "time": 67.40967900000011,
                    "velocity": 0.6929133858267716,
                    "duration": 0.1807230000000004
                },
                {
                    "name": "F#1",
                    "midi": 30,
                    "time": 67.59040200000011,
                    "velocity": 0.6929133858267716,
                    "duration": 0.1807230000000004
                },
                {
                    "name": "F#2",
                    "midi": 42,
                    "time": 67.59040200000011,
                    "velocity": 0.6929133858267716,
                    "duration": 0.1807230000000004
                },
                {
                    "name": "E1",
                    "midi": 28,
                    "time": 67.77112500000011,
                    "velocity": 0.6929133858267716,
                    "duration": 0.1807230000000004
                },
                {
                    "name": "E2",
                    "midi": 40,
                    "time": 67.77112500000011,
                    "velocity": 0.6929133858267716,
                    "duration": 0.1807230000000004
                },
                {
                    "name": "F#1",
                    "midi": 30,
                    "time": 67.95184800000011,
                    "velocity": 0.6929133858267716,
                    "duration": 0.1807230000000004
                },
                {
                    "name": "F#2",
                    "midi": 42,
                    "time": 67.95184800000011,
                    "velocity": 0.6929133858267716,
                    "duration": 0.1807230000000004
                },
                {
                    "name": "E1",
                    "midi": 28,
                    "time": 68.13257100000011,
                    "velocity": 0.6929133858267716,
                    "duration": 0.1807230000000004
                },
                {
                    "name": "E2",
                    "midi": 40,
                    "time": 68.13257100000011,
                    "velocity": 0.6929133858267716,
                    "duration": 0.1807230000000004
                },
                {
                    "name": "F#1",
                    "midi": 30,
                    "time": 68.31329400000011,
                    "velocity": 0.6929133858267716,
                    "duration": 0.1807230000000004
                },
                {
                    "name": "F#2",
                    "midi": 42,
                    "time": 68.31329400000011,
                    "velocity": 0.6929133858267716,
                    "duration": 0.1807230000000004
                },
                {
                    "name": "E1",
                    "midi": 28,
                    "time": 68.49401700000011,
                    "velocity": 0.6929133858267716,
                    "duration": 0.1807230000000004
                },
                {
                    "name": "E2",
                    "midi": 40,
                    "time": 68.49401700000011,
                    "velocity": 0.6929133858267716,
                    "duration": 0.1807230000000004
                },
                {
                    "name": "F#1",
                    "midi": 30,
                    "time": 68.67474000000011,
                    "velocity": 0.6929133858267716,
                    "duration": 0.1807230000000004
                },
                {
                    "name": "F#2",
                    "midi": 42,
                    "time": 68.67474000000011,
                    "velocity": 0.6929133858267716,
                    "duration": 0.1807230000000004
                },
                {
                    "name": "E1",
                    "midi": 28,
                    "time": 68.85546300000011,
                    "velocity": 0.6929133858267716,
                    "duration": 0.1807230000000004
                },
                {
                    "name": "E2",
                    "midi": 40,
                    "time": 68.85546300000011,
                    "velocity": 0.6929133858267716,
                    "duration": 0.1807230000000004
                },
                {
                    "name": "F#1",
                    "midi": 30,
                    "time": 69.03618600000011,
                    "velocity": 0.6929133858267716,
                    "duration": 0.1807230000000004
                },
                {
                    "name": "F#2",
                    "midi": 42,
                    "time": 69.03618600000011,
                    "velocity": 0.6929133858267716,
                    "duration": 0.1807230000000004
                },
                {
                    "name": "E1",
                    "midi": 28,
                    "time": 69.21690900000011,
                    "velocity": 0.6929133858267716,
                    "duration": 0.1807230000000004
                },
                {
                    "name": "E2",
                    "midi": 40,
                    "time": 69.21690900000011,
                    "velocity": 0.6929133858267716,
                    "duration": 0.1807230000000004
                },
                {
                    "name": "F#1",
                    "midi": 30,
                    "time": 69.39763200000012,
                    "velocity": 0.6929133858267716,
                    "duration": 0.1807230000000004
                },
                {
                    "name": "F#2",
                    "midi": 42,
                    "time": 69.39763200000012,
                    "velocity": 0.6929133858267716,
                    "duration": 0.1807230000000004
                },
                {
                    "name": "E1",
                    "midi": 28,
                    "time": 69.57835500000012,
                    "velocity": 0.6929133858267716,
                    "duration": 0.1807230000000004
                },
                {
                    "name": "E2",
                    "midi": 40,
                    "time": 69.57835500000012,
                    "velocity": 0.6929133858267716,
                    "duration": 0.1807230000000004
                },
                {
                    "name": "F#1",
                    "midi": 30,
                    "time": 69.75907800000012,
                    "velocity": 0.6929133858267716,
                    "duration": 0.1807230000000004
                },
                {
                    "name": "F#2",
                    "midi": 42,
                    "time": 69.75907800000012,
                    "velocity": 0.6929133858267716,
                    "duration": 0.1807230000000004
                },
                {
                    "name": "E1",
                    "midi": 28,
                    "time": 69.93980100000012,
                    "velocity": 0.6929133858267716,
                    "duration": 0.1807230000000004
                },
                {
                    "name": "E2",
                    "midi": 40,
                    "time": 69.93980100000012,
                    "velocity": 0.6929133858267716,
                    "duration": 0.1807230000000004
                },
                {
                    "name": "F#1",
                    "midi": 30,
                    "time": 70.12052400000012,
                    "velocity": 0.6929133858267716,
                    "duration": 0.1807230000000004
                },
                {
                    "name": "F#2",
                    "midi": 42,
                    "time": 70.12052400000012,
                    "velocity": 0.6929133858267716,
                    "duration": 0.1807230000000004
                },
                {
                    "name": "E1",
                    "midi": 28,
                    "time": 70.30124700000012,
                    "velocity": 0.6929133858267716,
                    "duration": 0.1807230000000004
                },
                {
                    "name": "E2",
                    "midi": 40,
                    "time": 70.30124700000012,
                    "velocity": 0.6929133858267716,
                    "duration": 0.1807230000000004
                },
                {
                    "name": "F#1",
                    "midi": 30,
                    "time": 70.48197000000012,
                    "velocity": 0.6929133858267716,
                    "duration": 0.1807230000000004
                },
                {
                    "name": "F#2",
                    "midi": 42,
                    "time": 70.48197000000012,
                    "velocity": 0.6929133858267716,
                    "duration": 0.1807230000000004
                },
                {
                    "name": "E1",
                    "midi": 28,
                    "time": 70.66269300000012,
                    "velocity": 0.6929133858267716,
                    "duration": 0.1807230000000004
                },
                {
                    "name": "E2",
                    "midi": 40,
                    "time": 70.66269300000012,
                    "velocity": 0.6929133858267716,
                    "duration": 0.1807230000000004
                },
                {
                    "name": "F#1",
                    "midi": 30,
                    "time": 70.84341600000012,
                    "velocity": 0.6929133858267716,
                    "duration": 0.1807230000000004
                },
                {
                    "name": "F#2",
                    "midi": 42,
                    "time": 70.84341600000012,
                    "velocity": 0.6929133858267716,
                    "duration": 0.1807230000000004
                },
                {
                    "name": "E1",
                    "midi": 28,
                    "time": 71.02413900000012,
                    "velocity": 0.6929133858267716,
                    "duration": 0.1807230000000004
                },
                {
                    "name": "E2",
                    "midi": 40,
                    "time": 71.02413900000012,
                    "velocity": 0.6929133858267716,
                    "duration": 0.1807230000000004
                },
                {
                    "name": "F#1",
                    "midi": 30,
                    "time": 71.20486200000012,
                    "velocity": 0.6929133858267716,
                    "duration": 0.1807230000000004
                },
                {
                    "name": "F#2",
                    "midi": 42,
                    "time": 71.20486200000012,
                    "velocity": 0.6929133858267716,
                    "duration": 0.1807230000000004
                },
                {
                    "name": "E1",
                    "midi": 28,
                    "time": 71.38558500000012,
                    "velocity": 0.6929133858267716,
                    "duration": 0.1807230000000004
                },
                {
                    "name": "E2",
                    "midi": 40,
                    "time": 71.38558500000012,
                    "velocity": 0.6929133858267716,
                    "duration": 0.1807230000000004
                },
                {
                    "name": "F#1",
                    "midi": 30,
                    "time": 71.56630800000012,
                    "velocity": 0.6929133858267716,
                    "duration": 0.1807230000000004
                },
                {
                    "name": "F#2",
                    "midi": 42,
                    "time": 71.56630800000012,
                    "velocity": 0.6929133858267716,
                    "duration": 0.1807230000000004
                },
                {
                    "name": "E1",
                    "midi": 28,
                    "time": 71.74703100000012,
                    "velocity": 0.6929133858267716,
                    "duration": 0.1807230000000004
                },
                {
                    "name": "E2",
                    "midi": 40,
                    "time": 71.74703100000012,
                    "velocity": 0.6929133858267716,
                    "duration": 0.1807230000000004
                },
                {
                    "name": "F#1",
                    "midi": 30,
                    "time": 71.92775400000012,
                    "velocity": 0.6929133858267716,
                    "duration": 0.1807230000000004
                },
                {
                    "name": "F#2",
                    "midi": 42,
                    "time": 71.92775400000012,
                    "velocity": 0.6929133858267716,
                    "duration": 0.1807230000000004
                },
                {
                    "name": "E1",
                    "midi": 28,
                    "time": 72.10847700000012,
                    "velocity": 0.6929133858267716,
                    "duration": 0.1807230000000004
                },
                {
                    "name": "E2",
                    "midi": 40,
                    "time": 72.10847700000012,
                    "velocity": 0.6929133858267716,
                    "duration": 0.1807230000000004
                },
                {
                    "name": "F#1",
                    "midi": 30,
                    "time": 72.28920000000012,
                    "velocity": 0.6929133858267716,
                    "duration": 0.1807230000000004
                },
                {
                    "name": "F#2",
                    "midi": 42,
                    "time": 72.28920000000012,
                    "velocity": 0.6929133858267716,
                    "duration": 0.1807230000000004
                },
                {
                    "name": "E1",
                    "midi": 28,
                    "time": 72.46992300000012,
                    "velocity": 0.6929133858267716,
                    "duration": 0.1807230000000004
                },
                {
                    "name": "E2",
                    "midi": 40,
                    "time": 72.46992300000012,
                    "velocity": 0.6929133858267716,
                    "duration": 0.1807230000000004
                },
                {
                    "name": "F#1",
                    "midi": 30,
                    "time": 72.65064600000012,
                    "velocity": 0.6929133858267716,
                    "duration": 0.1807230000000004
                },
                {
                    "name": "F#2",
                    "midi": 42,
                    "time": 72.65064600000012,
                    "velocity": 0.6929133858267716,
                    "duration": 0.1807230000000004
                },
                {
                    "name": "E1",
                    "midi": 28,
                    "time": 72.83136900000012,
                    "velocity": 0.6929133858267716,
                    "duration": 0.1807230000000004
                },
                {
                    "name": "E2",
                    "midi": 40,
                    "time": 72.83136900000012,
                    "velocity": 0.6929133858267716,
                    "duration": 0.1807230000000004
                },
                {
                    "name": "F#1",
                    "midi": 30,
                    "time": 73.01209200000012,
                    "velocity": 0.6929133858267716,
                    "duration": 0.1807230000000004
                },
                {
                    "name": "F#2",
                    "midi": 42,
                    "time": 73.01209200000012,
                    "velocity": 0.6929133858267716,
                    "duration": 0.1807230000000004
                },
                {
                    "name": "E1",
                    "midi": 28,
                    "time": 73.19281500000012,
                    "velocity": 0.6929133858267716,
                    "duration": 0.1807230000000004
                },
                {
                    "name": "E2",
                    "midi": 40,
                    "time": 73.19281500000012,
                    "velocity": 0.6929133858267716,
                    "duration": 0.1807230000000004
                },
                {
                    "name": "F#1",
                    "midi": 30,
                    "time": 73.37353800000012,
                    "velocity": 0.6929133858267716,
                    "duration": 0.1807230000000004
                },
                {
                    "name": "F#2",
                    "midi": 42,
                    "time": 73.37353800000012,
                    "velocity": 0.6929133858267716,
                    "duration": 0.1807230000000004
                },
                {
                    "name": "E1",
                    "midi": 28,
                    "time": 73.55426100000012,
                    "velocity": 0.6929133858267716,
                    "duration": 0.1807230000000004
                },
                {
                    "name": "E2",
                    "midi": 40,
                    "time": 73.55426100000012,
                    "velocity": 0.6929133858267716,
                    "duration": 0.1807230000000004
                },
                {
                    "name": "F#1",
                    "midi": 30,
                    "time": 73.73498400000013,
                    "velocity": 0.6929133858267716,
                    "duration": 0.1807230000000004
                },
                {
                    "name": "F#2",
                    "midi": 42,
                    "time": 73.73498400000013,
                    "velocity": 0.6929133858267716,
                    "duration": 0.1807230000000004
                },
                {
                    "name": "E1",
                    "midi": 28,
                    "time": 73.91570700000013,
                    "velocity": 0.6929133858267716,
                    "duration": 0.1807230000000004
                },
                {
                    "name": "E2",
                    "midi": 40,
                    "time": 73.91570700000013,
                    "velocity": 0.6929133858267716,
                    "duration": 0.1807230000000004
                },
                {
                    "name": "F#1",
                    "midi": 30,
                    "time": 74.09643000000013,
                    "velocity": 0.6929133858267716,
                    "duration": 0.1807230000000004
                },
                {
                    "name": "F#2",
                    "midi": 42,
                    "time": 74.09643000000013,
                    "velocity": 0.6929133858267716,
                    "duration": 0.1807230000000004
                },
                {
                    "name": "E1",
                    "midi": 28,
                    "time": 74.27715300000013,
                    "velocity": 0.6929133858267716,
                    "duration": 0.1807230000000004
                },
                {
                    "name": "E2",
                    "midi": 40,
                    "time": 74.27715300000013,
                    "velocity": 0.6929133858267716,
                    "duration": 0.1807230000000004
                },
                {
                    "name": "F#1",
                    "midi": 30,
                    "time": 74.45787600000013,
                    "velocity": 0.6929133858267716,
                    "duration": 0.1807230000000004
                },
                {
                    "name": "F#2",
                    "midi": 42,
                    "time": 74.45787600000013,
                    "velocity": 0.6929133858267716,
                    "duration": 0.1807230000000004
                },
                {
                    "name": "E1",
                    "midi": 28,
                    "time": 74.63859900000013,
                    "velocity": 0.6929133858267716,
                    "duration": 0.1807230000000004
                },
                {
                    "name": "E2",
                    "midi": 40,
                    "time": 74.63859900000013,
                    "velocity": 0.6929133858267716,
                    "duration": 0.1807230000000004
                },
                {
                    "name": "F#1",
                    "midi": 30,
                    "time": 74.81932200000013,
                    "velocity": 0.6929133858267716,
                    "duration": 0.1807230000000004
                },
                {
                    "name": "F#2",
                    "midi": 42,
                    "time": 74.81932200000013,
                    "velocity": 0.6929133858267716,
                    "duration": 0.1807230000000004
                },
                {
                    "name": "E1",
                    "midi": 28,
                    "time": 75.00004500000013,
                    "velocity": 0.6929133858267716,
                    "duration": 0.1807230000000004
                },
                {
                    "name": "E2",
                    "midi": 40,
                    "time": 75.00004500000013,
                    "velocity": 0.6929133858267716,
                    "duration": 0.1807230000000004
                },
                {
                    "name": "F#1",
                    "midi": 30,
                    "time": 75.18076800000013,
                    "velocity": 0.6929133858267716,
                    "duration": 0.1807230000000004
                },
                {
                    "name": "F#2",
                    "midi": 42,
                    "time": 75.18076800000013,
                    "velocity": 0.6929133858267716,
                    "duration": 0.1807230000000004
                },
                {
                    "name": "E1",
                    "midi": 28,
                    "time": 75.36149100000013,
                    "velocity": 0.6929133858267716,
                    "duration": 0.1807230000000004
                },
                {
                    "name": "E2",
                    "midi": 40,
                    "time": 75.36149100000013,
                    "velocity": 0.6929133858267716,
                    "duration": 0.1807230000000004
                },
                {
                    "name": "F#1",
                    "midi": 30,
                    "time": 75.54221400000013,
                    "velocity": 0.6929133858267716,
                    "duration": 0.1807230000000004
                },
                {
                    "name": "F#2",
                    "midi": 42,
                    "time": 75.54221400000013,
                    "velocity": 0.6929133858267716,
                    "duration": 0.1807230000000004
                },
                {
                    "name": "E1",
                    "midi": 28,
                    "time": 75.72293700000013,
                    "velocity": 0.6929133858267716,
                    "duration": 0.1807230000000004
                },
                {
                    "name": "E2",
                    "midi": 40,
                    "time": 75.72293700000013,
                    "velocity": 0.6929133858267716,
                    "duration": 0.1807230000000004
                },
                {
                    "name": "F#1",
                    "midi": 30,
                    "time": 75.90366000000013,
                    "velocity": 0.6929133858267716,
                    "duration": 0.1807230000000004
                },
                {
                    "name": "F#2",
                    "midi": 42,
                    "time": 75.90366000000013,
                    "velocity": 0.6929133858267716,
                    "duration": 0.1807230000000004
                },
                {
                    "name": "E1",
                    "midi": 28,
                    "time": 76.08438300000013,
                    "velocity": 0.6929133858267716,
                    "duration": 0.1807230000000004
                },
                {
                    "name": "E2",
                    "midi": 40,
                    "time": 76.08438300000013,
                    "velocity": 0.6929133858267716,
                    "duration": 0.1807230000000004
                },
                {
                    "name": "F#1",
                    "midi": 30,
                    "time": 76.26510600000013,
                    "velocity": 0.6929133858267716,
                    "duration": 0.1807230000000004
                },
                {
                    "name": "F#2",
                    "midi": 42,
                    "time": 76.26510600000013,
                    "velocity": 0.6929133858267716,
                    "duration": 0.1807230000000004
                },
                {
                    "name": "E1",
                    "midi": 28,
                    "time": 76.44582900000013,
                    "velocity": 0.6929133858267716,
                    "duration": 0.1807230000000004
                },
                {
                    "name": "E2",
                    "midi": 40,
                    "time": 76.44582900000013,
                    "velocity": 0.6929133858267716,
                    "duration": 0.1807230000000004
                },
                {
                    "name": "F#1",
                    "midi": 30,
                    "time": 76.62655200000013,
                    "velocity": 0.6929133858267716,
                    "duration": 0.1807230000000004
                },
                {
                    "name": "F#2",
                    "midi": 42,
                    "time": 76.62655200000013,
                    "velocity": 0.6929133858267716,
                    "duration": 0.1807230000000004
                },
                {
                    "name": "E1",
                    "midi": 28,
                    "time": 76.80727500000013,
                    "velocity": 0.6929133858267716,
                    "duration": 0.1807230000000004
                },
                {
                    "name": "E2",
                    "midi": 40,
                    "time": 76.80727500000013,
                    "velocity": 0.6929133858267716,
                    "duration": 0.1807230000000004
                },
                {
                    "name": "F#1",
                    "midi": 30,
                    "time": 76.98799800000013,
                    "velocity": 0.6929133858267716,
                    "duration": 0.1807230000000004
                },
                {
                    "name": "F#2",
                    "midi": 42,
                    "time": 76.98799800000013,
                    "velocity": 0.6929133858267716,
                    "duration": 0.1807230000000004
                },
                {
                    "name": "E1",
                    "midi": 28,
                    "time": 77.16872100000013,
                    "velocity": 0.6929133858267716,
                    "duration": 0.1807230000000004
                },
                {
                    "name": "E2",
                    "midi": 40,
                    "time": 77.16872100000013,
                    "velocity": 0.6929133858267716,
                    "duration": 0.1807230000000004
                },
                {
                    "name": "F#1",
                    "midi": 30,
                    "time": 77.34944400000013,
                    "velocity": 0.6929133858267716,
                    "duration": 0.1807230000000004
                },
                {
                    "name": "F#2",
                    "midi": 42,
                    "time": 77.34944400000013,
                    "velocity": 0.6929133858267716,
                    "duration": 0.1807230000000004
                },
                {
                    "name": "E1",
                    "midi": 28,
                    "time": 77.53016700000013,
                    "velocity": 0.6929133858267716,
                    "duration": 0.1807230000000004
                },
                {
                    "name": "E2",
                    "midi": 40,
                    "time": 77.53016700000013,
                    "velocity": 0.6929133858267716,
                    "duration": 0.1807230000000004
                },
                {
                    "name": "F#1",
                    "midi": 30,
                    "time": 77.71089000000013,
                    "velocity": 0.6929133858267716,
                    "duration": 0.1807230000000004
                },
                {
                    "name": "F#2",
                    "midi": 42,
                    "time": 77.71089000000013,
                    "velocity": 0.6929133858267716,
                    "duration": 0.1807230000000004
                },
                {
                    "name": "E1",
                    "midi": 28,
                    "time": 77.89161300000013,
                    "velocity": 0.6929133858267716,
                    "duration": 0.1807230000000004
                },
                {
                    "name": "E2",
                    "midi": 40,
                    "time": 77.89161300000013,
                    "velocity": 0.6929133858267716,
                    "duration": 0.1807230000000004
                },
                {
                    "name": "F#1",
                    "midi": 30,
                    "time": 78.07233600000013,
                    "velocity": 0.6929133858267716,
                    "duration": 0.1807230000000004
                },
                {
                    "name": "F#2",
                    "midi": 42,
                    "time": 78.07233600000013,
                    "velocity": 0.6929133858267716,
                    "duration": 0.1807230000000004
                },
                {
                    "name": "E1",
                    "midi": 28,
                    "time": 78.25305900000014,
                    "velocity": 0.6929133858267716,
                    "duration": 0.1807230000000004
                },
                {
                    "name": "E2",
                    "midi": 40,
                    "time": 78.25305900000014,
                    "velocity": 0.6929133858267716,
                    "duration": 0.1807230000000004
                },
                {
                    "name": "F#1",
                    "midi": 30,
                    "time": 78.43378200000014,
                    "velocity": 0.6929133858267716,
                    "duration": 0.1807230000000004
                },
                {
                    "name": "F#2",
                    "midi": 42,
                    "time": 78.43378200000014,
                    "velocity": 0.6929133858267716,
                    "duration": 0.1807230000000004
                },
                {
                    "name": "E1",
                    "midi": 28,
                    "time": 78.61450500000014,
                    "velocity": 0.6929133858267716,
                    "duration": 0.1807230000000004
                },
                {
                    "name": "E2",
                    "midi": 40,
                    "time": 78.61450500000014,
                    "velocity": 0.6929133858267716,
                    "duration": 0.1807230000000004
                },
                {
                    "name": "F#1",
                    "midi": 30,
                    "time": 78.79522800000014,
                    "velocity": 0.6929133858267716,
                    "duration": 0.1807230000000004
                },
                {
                    "name": "F#2",
                    "midi": 42,
                    "time": 78.79522800000014,
                    "velocity": 0.6929133858267716,
                    "duration": 0.1807230000000004
                },
                {
                    "name": "E1",
                    "midi": 28,
                    "time": 78.97595100000014,
                    "velocity": 0.6929133858267716,
                    "duration": 0.1807230000000004
                },
                {
                    "name": "E2",
                    "midi": 40,
                    "time": 78.97595100000014,
                    "velocity": 0.6929133858267716,
                    "duration": 0.1807230000000004
                },
                {
                    "name": "F#1",
                    "midi": 30,
                    "time": 79.15667400000014,
                    "velocity": 0.6929133858267716,
                    "duration": 0.1807230000000004
                },
                {
                    "name": "F#2",
                    "midi": 42,
                    "time": 79.15667400000014,
                    "velocity": 0.6929133858267716,
                    "duration": 0.1807230000000004
                },
                {
                    "name": "E1",
                    "midi": 28,
                    "time": 79.33739700000014,
                    "velocity": 0.6929133858267716,
                    "duration": 0.1807230000000004
                },
                {
                    "name": "E2",
                    "midi": 40,
                    "time": 79.33739700000014,
                    "velocity": 0.6929133858267716,
                    "duration": 0.1807230000000004
                },
                {
                    "name": "F#1",
                    "midi": 30,
                    "time": 79.51812000000014,
                    "velocity": 0.6929133858267716,
                    "duration": 0.1807230000000004
                },
                {
                    "name": "F#2",
                    "midi": 42,
                    "time": 79.51812000000014,
                    "velocity": 0.6929133858267716,
                    "duration": 0.1807230000000004
                },
                {
                    "name": "E1",
                    "midi": 28,
                    "time": 79.69884300000014,
                    "velocity": 0.6929133858267716,
                    "duration": 0.1807230000000004
                },
                {
                    "name": "E2",
                    "midi": 40,
                    "time": 79.69884300000014,
                    "velocity": 0.6929133858267716,
                    "duration": 0.1807230000000004
                },
                {
                    "name": "F#1",
                    "midi": 30,
                    "time": 79.87956600000014,
                    "velocity": 0.6929133858267716,
                    "duration": 0.1807230000000004
                },
                {
                    "name": "F#2",
                    "midi": 42,
                    "time": 79.87956600000014,
                    "velocity": 0.6929133858267716,
                    "duration": 0.1807230000000004
                },
                {
                    "name": "E1",
                    "midi": 28,
                    "time": 80.06028900000014,
                    "velocity": 0.6929133858267716,
                    "duration": 0.1807230000000004
                },
                {
                    "name": "E2",
                    "midi": 40,
                    "time": 80.06028900000014,
                    "velocity": 0.6929133858267716,
                    "duration": 0.1807230000000004
                },
                {
                    "name": "F#1",
                    "midi": 30,
                    "time": 80.24101200000014,
                    "velocity": 0.6929133858267716,
                    "duration": 0.1807230000000004
                },
                {
                    "name": "F#2",
                    "midi": 42,
                    "time": 80.24101200000014,
                    "velocity": 0.6929133858267716,
                    "duration": 0.1807230000000004
                },
                {
                    "name": "E1",
                    "midi": 28,
                    "time": 80.42173500000014,
                    "velocity": 0.6929133858267716,
                    "duration": 0.1807230000000004
                },
                {
                    "name": "E2",
                    "midi": 40,
                    "time": 80.42173500000014,
                    "velocity": 0.6929133858267716,
                    "duration": 0.1807230000000004
                },
                {
                    "name": "F#1",
                    "midi": 30,
                    "time": 80.60245800000014,
                    "velocity": 0.6929133858267716,
                    "duration": 0.1807230000000004
                },
                {
                    "name": "F#2",
                    "midi": 42,
                    "time": 80.60245800000014,
                    "velocity": 0.6929133858267716,
                    "duration": 0.1807230000000004
                },
                {
                    "name": "E1",
                    "midi": 28,
                    "time": 80.78318100000014,
                    "velocity": 0.6929133858267716,
                    "duration": 0.1807230000000004
                },
                {
                    "name": "E2",
                    "midi": 40,
                    "time": 80.78318100000014,
                    "velocity": 0.6929133858267716,
                    "duration": 0.1807230000000004
                },
                {
                    "name": "F#1",
                    "midi": 30,
                    "time": 80.96390400000014,
                    "velocity": 0.6929133858267716,
                    "duration": 0.1807230000000004
                },
                {
                    "name": "F#2",
                    "midi": 42,
                    "time": 80.96390400000014,
                    "velocity": 0.6929133858267716,
                    "duration": 0.1807230000000004
                },
                {
                    "name": "E1",
                    "midi": 28,
                    "time": 81.14462700000014,
                    "velocity": 0.6929133858267716,
                    "duration": 0.1807230000000004
                },
                {
                    "name": "E2",
                    "midi": 40,
                    "time": 81.14462700000014,
                    "velocity": 0.6929133858267716,
                    "duration": 0.1807230000000004
                },
                {
                    "name": "F#1",
                    "midi": 30,
                    "time": 81.32535000000014,
                    "velocity": 0.6929133858267716,
                    "duration": 0.1807230000000004
                },
                {
                    "name": "F#2",
                    "midi": 42,
                    "time": 81.32535000000014,
                    "velocity": 0.6929133858267716,
                    "duration": 0.1807230000000004
                },
                {
                    "name": "E1",
                    "midi": 28,
                    "time": 81.50607300000014,
                    "velocity": 0.6929133858267716,
                    "duration": 0.1807230000000004
                },
                {
                    "name": "E2",
                    "midi": 40,
                    "time": 81.50607300000014,
                    "velocity": 0.6929133858267716,
                    "duration": 0.1807230000000004
                },
                {
                    "name": "F#1",
                    "midi": 30,
                    "time": 81.68679600000014,
                    "velocity": 0.6929133858267716,
                    "duration": 0.1807230000000004
                },
                {
                    "name": "F#2",
                    "midi": 42,
                    "time": 81.68679600000014,
                    "velocity": 0.6929133858267716,
                    "duration": 0.1807230000000004
                },
                {
                    "name": "E1",
                    "midi": 28,
                    "time": 81.86751900000014,
                    "velocity": 0.6929133858267716,
                    "duration": 0.1807230000000004
                },
                {
                    "name": "E2",
                    "midi": 40,
                    "time": 81.86751900000014,
                    "velocity": 0.6929133858267716,
                    "duration": 0.1807230000000004
                },
                {
                    "name": "F#1",
                    "midi": 30,
                    "time": 82.04824200000014,
                    "velocity": 0.6929133858267716,
                    "duration": 0.1807230000000004
                },
                {
                    "name": "F#2",
                    "midi": 42,
                    "time": 82.04824200000014,
                    "velocity": 0.6929133858267716,
                    "duration": 0.1807230000000004
                },
                {
                    "name": "E1",
                    "midi": 28,
                    "time": 82.22896500000014,
                    "velocity": 0.6929133858267716,
                    "duration": 0.1807230000000004
                },
                {
                    "name": "E2",
                    "midi": 40,
                    "time": 82.22896500000014,
                    "velocity": 0.6929133858267716,
                    "duration": 0.1807230000000004
                },
                {
                    "name": "F#1",
                    "midi": 30,
                    "time": 82.40968800000014,
                    "velocity": 0.6929133858267716,
                    "duration": 0.1807230000000004
                },
                {
                    "name": "F#2",
                    "midi": 42,
                    "time": 82.40968800000014,
                    "velocity": 0.6929133858267716,
                    "duration": 0.1807230000000004
                },
                {
                    "name": "E1",
                    "midi": 28,
                    "time": 82.59041100000015,
                    "velocity": 0.6929133858267716,
                    "duration": 0.1807230000000004
                },
                {
                    "name": "E2",
                    "midi": 40,
                    "time": 82.59041100000015,
                    "velocity": 0.6929133858267716,
                    "duration": 0.1807230000000004
                },
                {
                    "name": "F#1",
                    "midi": 30,
                    "time": 82.77113400000015,
                    "velocity": 0.6929133858267716,
                    "duration": 0.1807230000000004
                },
                {
                    "name": "F#2",
                    "midi": 42,
                    "time": 82.77113400000015,
                    "velocity": 0.6929133858267716,
                    "duration": 0.1807230000000004
                },
                {
                    "name": "E1",
                    "midi": 28,
                    "time": 82.95185700000015,
                    "velocity": 0.6929133858267716,
                    "duration": 0.1807230000000004
                },
                {
                    "name": "E2",
                    "midi": 40,
                    "time": 82.95185700000015,
                    "velocity": 0.6929133858267716,
                    "duration": 0.1807230000000004
                },
                {
                    "name": "F#1",
                    "midi": 30,
                    "time": 83.13258000000015,
                    "velocity": 0.6929133858267716,
                    "duration": 0.1807230000000004
                },
                {
                    "name": "F#2",
                    "midi": 42,
                    "time": 83.13258000000015,
                    "velocity": 0.6929133858267716,
                    "duration": 0.1807230000000004
                },
                {
                    "name": "E1",
                    "midi": 28,
                    "time": 83.31330300000015,
                    "velocity": 0.6929133858267716,
                    "duration": 0.1807230000000004
                },
                {
                    "name": "E2",
                    "midi": 40,
                    "time": 83.31330300000015,
                    "velocity": 0.6929133858267716,
                    "duration": 0.1807230000000004
                },
                {
                    "name": "F#1",
                    "midi": 30,
                    "time": 83.49402600000015,
                    "velocity": 0.6929133858267716,
                    "duration": 0.1807230000000004
                },
                {
                    "name": "F#2",
                    "midi": 42,
                    "time": 83.49402600000015,
                    "velocity": 0.6929133858267716,
                    "duration": 0.1807230000000004
                },
                {
                    "name": "E1",
                    "midi": 28,
                    "time": 83.67474900000015,
                    "velocity": 0.6929133858267716,
                    "duration": 0.1807230000000004
                },
                {
                    "name": "E2",
                    "midi": 40,
                    "time": 83.67474900000015,
                    "velocity": 0.6929133858267716,
                    "duration": 0.1807230000000004
                },
                {
                    "name": "F#1",
                    "midi": 30,
                    "time": 83.85547200000015,
                    "velocity": 0.6929133858267716,
                    "duration": 0.1807230000000004
                },
                {
                    "name": "F#2",
                    "midi": 42,
                    "time": 83.85547200000015,
                    "velocity": 0.6929133858267716,
                    "duration": 0.1807230000000004
                },
                {
                    "name": "E1",
                    "midi": 28,
                    "time": 84.03619500000015,
                    "velocity": 0.6929133858267716,
                    "duration": 0.1807230000000004
                },
                {
                    "name": "E2",
                    "midi": 40,
                    "time": 84.03619500000015,
                    "velocity": 0.6929133858267716,
                    "duration": 0.1807230000000004
                },
                {
                    "name": "F#1",
                    "midi": 30,
                    "time": 84.21691800000015,
                    "velocity": 0.6929133858267716,
                    "duration": 0.1807230000000004
                },
                {
                    "name": "F#2",
                    "midi": 42,
                    "time": 84.21691800000015,
                    "velocity": 0.6929133858267716,
                    "duration": 0.1807230000000004
                },
                {
                    "name": "E1",
                    "midi": 28,
                    "time": 84.39764100000015,
                    "velocity": 0.6929133858267716,
                    "duration": 0.1807230000000004
                },
                {
                    "name": "E2",
                    "midi": 40,
                    "time": 84.39764100000015,
                    "velocity": 0.6929133858267716,
                    "duration": 0.1807230000000004
                },
                {
                    "name": "F#1",
                    "midi": 30,
                    "time": 84.57836400000015,
                    "velocity": 0.6929133858267716,
                    "duration": 0.1807230000000004
                },
                {
                    "name": "F#2",
                    "midi": 42,
                    "time": 84.57836400000015,
                    "velocity": 0.6929133858267716,
                    "duration": 0.1807230000000004
                },
                {
                    "name": "E1",
                    "midi": 28,
                    "time": 84.75908700000015,
                    "velocity": 0.6929133858267716,
                    "duration": 0.1807230000000004
                },
                {
                    "name": "E2",
                    "midi": 40,
                    "time": 84.75908700000015,
                    "velocity": 0.6929133858267716,
                    "duration": 0.1807230000000004
                },
                {
                    "name": "F#1",
                    "midi": 30,
                    "time": 84.93981000000015,
                    "velocity": 0.6929133858267716,
                    "duration": 0.1807230000000004
                },
                {
                    "name": "F#2",
                    "midi": 42,
                    "time": 84.93981000000015,
                    "velocity": 0.6929133858267716,
                    "duration": 0.1807230000000004
                },
                {
                    "name": "E1",
                    "midi": 28,
                    "time": 85.12053300000015,
                    "velocity": 0.6929133858267716,
                    "duration": 0.1807230000000004
                },
                {
                    "name": "E2",
                    "midi": 40,
                    "time": 85.12053300000015,
                    "velocity": 0.6929133858267716,
                    "duration": 0.1807230000000004
                },
                {
                    "name": "F#1",
                    "midi": 30,
                    "time": 85.30125600000015,
                    "velocity": 0.6929133858267716,
                    "duration": 0.1807230000000004
                },
                {
                    "name": "F#2",
                    "midi": 42,
                    "time": 85.30125600000015,
                    "velocity": 0.6929133858267716,
                    "duration": 0.1807230000000004
                },
                {
                    "name": "E1",
                    "midi": 28,
                    "time": 85.48197900000015,
                    "velocity": 0.6929133858267716,
                    "duration": 0.1807230000000004
                },
                {
                    "name": "E2",
                    "midi": 40,
                    "time": 85.48197900000015,
                    "velocity": 0.6929133858267716,
                    "duration": 0.1807230000000004
                },
                {
                    "name": "F#1",
                    "midi": 30,
                    "time": 85.66270200000015,
                    "velocity": 0.6929133858267716,
                    "duration": 0.1807230000000004
                },
                {
                    "name": "F#2",
                    "midi": 42,
                    "time": 85.66270200000015,
                    "velocity": 0.6929133858267716,
                    "duration": 0.1807230000000004
                },
                {
                    "name": "E1",
                    "midi": 28,
                    "time": 85.84342500000015,
                    "velocity": 0.6929133858267716,
                    "duration": 0.1807230000000004
                },
                {
                    "name": "E2",
                    "midi": 40,
                    "time": 85.84342500000015,
                    "velocity": 0.6929133858267716,
                    "duration": 0.1807230000000004
                },
                {
                    "name": "F#1",
                    "midi": 30,
                    "time": 86.02414800000015,
                    "velocity": 0.6929133858267716,
                    "duration": 0.1807230000000004
                },
                {
                    "name": "F#2",
                    "midi": 42,
                    "time": 86.02414800000015,
                    "velocity": 0.6929133858267716,
                    "duration": 0.1807230000000004
                },
                {
                    "name": "E1",
                    "midi": 28,
                    "time": 86.20487100000015,
                    "velocity": 0.6929133858267716,
                    "duration": 0.1807230000000004
                },
                {
                    "name": "E2",
                    "midi": 40,
                    "time": 86.20487100000015,
                    "velocity": 0.6929133858267716,
                    "duration": 0.1807230000000004
                },
                {
                    "name": "G#3",
                    "midi": 56,
                    "time": 86.38559400000015,
                    "velocity": 0.5905511811023622,
                    "duration": 2.5301220000000058
                },
                {
                    "name": "G#4",
                    "midi": 68,
                    "time": 86.38559400000015,
                    "velocity": 0.5905511811023622,
                    "duration": 2.5301220000000058
                },
                {
                    "name": "G3",
                    "midi": 55,
                    "time": 88.91571600000016,
                    "velocity": 0.5905511811023622,
                    "duration": 0.1807230000000004
                },
                {
                    "name": "G4",
                    "midi": 67,
                    "time": 88.91571600000016,
                    "velocity": 0.5905511811023622,
                    "duration": 0.1807230000000004
                },
                {
                    "name": "G#3",
                    "midi": 56,
                    "time": 89.27716200000016,
                    "velocity": 0.5905511811023622,
                    "duration": 1.0843380000000025
                },
                {
                    "name": "G#4",
                    "midi": 68,
                    "time": 89.27716200000016,
                    "velocity": 0.5905511811023622,
                    "duration": 1.0843380000000025
                },
                {
                    "name": "G3",
                    "midi": 55,
                    "time": 90.36150000000016,
                    "velocity": 0.5905511811023622,
                    "duration": 0.1807230000000004
                },
                {
                    "name": "G4",
                    "midi": 67,
                    "time": 90.36150000000016,
                    "velocity": 0.5905511811023622,
                    "duration": 0.1807230000000004
                },
                {
                    "name": "G#3",
                    "midi": 56,
                    "time": 90.72294600000016,
                    "velocity": 0.5905511811023622,
                    "duration": 1.0843380000000025
                },
                {
                    "name": "G#4",
                    "midi": 68,
                    "time": 90.72294600000016,
                    "velocity": 0.5905511811023622,
                    "duration": 1.0843380000000025
                },
                {
                    "name": "F#3",
                    "midi": 54,
                    "time": 91.80728400000017,
                    "velocity": 0.5905511811023622,
                    "duration": 0.1807230000000004
                },
                {
                    "name": "F#4",
                    "midi": 66,
                    "time": 91.80728400000017,
                    "velocity": 0.5905511811023622,
                    "duration": 0.1807230000000004
                },
                {
                    "name": "G#3",
                    "midi": 56,
                    "time": 92.16873000000017,
                    "velocity": 0.7952755905511811,
                    "duration": 0.3614460000000008
                },
                {
                    "name": "G#4",
                    "midi": 68,
                    "time": 92.16873000000017,
                    "velocity": 0.7952755905511811,
                    "duration": 0.3614460000000008
                },
                {
                    "name": "A#3",
                    "midi": 58,
                    "time": 92.53017600000017,
                    "velocity": 0.7952755905511811,
                    "duration": 0.3614460000000008
                },
                {
                    "name": "A#4",
                    "midi": 70,
                    "time": 92.53017600000017,
                    "velocity": 0.7952755905511811,
                    "duration": 0.3614460000000008
                },
                {
                    "name": "C#4",
                    "midi": 61,
                    "time": 92.89162200000017,
                    "velocity": 0.7952755905511811,
                    "duration": 0.3614460000000008
                },
                {
                    "name": "C#5",
                    "midi": 73,
                    "time": 92.89162200000017,
                    "velocity": 0.7952755905511811,
                    "duration": 0.3614460000000008
                },
                {
                    "name": "A#3",
                    "midi": 58,
                    "time": 93.25306800000017,
                    "velocity": 0.7952755905511811,
                    "duration": 0.3614460000000008
                },
                {
                    "name": "A#4",
                    "midi": 70,
                    "time": 93.25306800000017,
                    "velocity": 0.7952755905511811,
                    "duration": 0.3614460000000008
                },
                {
                    "name": "G#3",
                    "midi": 56,
                    "time": 93.61451400000017,
                    "velocity": 0.5905511811023622,
                    "duration": 1.0843380000000025
                },
                {
                    "name": "G#4",
                    "midi": 68,
                    "time": 93.61451400000017,
                    "velocity": 0.5905511811023622,
                    "duration": 1.0843380000000025
                },
                {
                    "name": "G3",
                    "midi": 55,
                    "time": 94.69885200000017,
                    "velocity": 0.5905511811023622,
                    "duration": 0.1807230000000004
                },
                {
                    "name": "G4",
                    "midi": 67,
                    "time": 94.69885200000017,
                    "velocity": 0.5905511811023622,
                    "duration": 0.1807230000000004
                },
                {
                    "name": "G#3",
                    "midi": 56,
                    "time": 95.06029800000017,
                    "velocity": 0.5905511811023622,
                    "duration": 1.0843380000000025
                },
                {
                    "name": "G#4",
                    "midi": 68,
                    "time": 95.06029800000017,
                    "velocity": 0.5905511811023622,
                    "duration": 1.0843380000000025
                },
                {
                    "name": "F#3",
                    "midi": 54,
                    "time": 96.14463600000018,
                    "velocity": 0.5905511811023622,
                    "duration": 0.1807230000000004
                },
                {
                    "name": "F#4",
                    "midi": 66,
                    "time": 96.14463600000018,
                    "velocity": 0.5905511811023622,
                    "duration": 0.1807230000000004
                },
                {
                    "name": "G#3",
                    "midi": 56,
                    "time": 96.50608200000018,
                    "velocity": 0.5905511811023622,
                    "duration": 1.0843380000000025
                },
                {
                    "name": "G#4",
                    "midi": 68,
                    "time": 96.50608200000018,
                    "velocity": 0.5905511811023622,
                    "duration": 1.0843380000000025
                },
                {
                    "name": "F#3",
                    "midi": 54,
                    "time": 97.59042000000018,
                    "velocity": 0.5905511811023622,
                    "duration": 0.1807230000000004
                },
                {
                    "name": "F#4",
                    "midi": 66,
                    "time": 97.59042000000018,
                    "velocity": 0.5905511811023622,
                    "duration": 0.1807230000000004
                },
                {
                    "name": "G#3",
                    "midi": 56,
                    "time": 97.95186600000018,
                    "velocity": 0.7952755905511811,
                    "duration": 0.3614460000000008
                },
                {
                    "name": "G#4",
                    "midi": 68,
                    "time": 97.95186600000018,
                    "velocity": 0.7952755905511811,
                    "duration": 0.3614460000000008
                },
                {
                    "name": "A#3",
                    "midi": 58,
                    "time": 98.31331200000018,
                    "velocity": 0.7952755905511811,
                    "duration": 0.3614460000000008
                },
                {
                    "name": "A#4",
                    "midi": 70,
                    "time": 98.31331200000018,
                    "velocity": 0.7952755905511811,
                    "duration": 0.3614460000000008
                },
                {
                    "name": "C#4",
                    "midi": 61,
                    "time": 98.67475800000018,
                    "velocity": 0.7952755905511811,
                    "duration": 0.3614460000000008
                },
                {
                    "name": "C#5",
                    "midi": 73,
                    "time": 98.67475800000018,
                    "velocity": 0.7952755905511811,
                    "duration": 0.3614460000000008
                },
                {
                    "name": "A#3",
                    "midi": 58,
                    "time": 99.03620400000018,
                    "velocity": 0.7952755905511811,
                    "duration": 0.3614460000000008
                },
                {
                    "name": "A#4",
                    "midi": 70,
                    "time": 99.03620400000018,
                    "velocity": 0.7952755905511811,
                    "duration": 0.3614460000000008
                },
                {
                    "name": "G#3",
                    "midi": 56,
                    "time": 99.39765000000018,
                    "velocity": 0.5905511811023622,
                    "duration": 1.0843380000000025
                },
                {
                    "name": "G#4",
                    "midi": 68,
                    "time": 99.39765000000018,
                    "velocity": 0.5905511811023622,
                    "duration": 1.0843380000000025
                },
                {
                    "name": "F#3",
                    "midi": 54,
                    "time": 100.48198800000019,
                    "velocity": 0.6929133858267716,
                    "duration": 0.1807230000000004
                },
                {
                    "name": "F#4",
                    "midi": 66,
                    "time": 100.48198800000019,
                    "velocity": 0.6929133858267716,
                    "duration": 0.1807230000000004
                },
                {
                    "name": "G#3",
                    "midi": 56,
                    "time": 100.84343400000019,
                    "velocity": 0.8976377952755905,
                    "duration": 0.3614460000000008
                },
                {
                    "name": "G#4",
                    "midi": 68,
                    "time": 100.84343400000019,
                    "velocity": 0.8976377952755905,
                    "duration": 0.3614460000000008
                },
                {
                    "name": "A#3",
                    "midi": 58,
                    "time": 101.20488000000019,
                    "velocity": 0.8976377952755905,
                    "duration": 0.3614460000000008
                },
                {
                    "name": "A#4",
                    "midi": 70,
                    "time": 101.20488000000019,
                    "velocity": 0.8976377952755905,
                    "duration": 0.3614460000000008
                },
                {
                    "name": "C#4",
                    "midi": 61,
                    "time": 101.56632600000019,
                    "velocity": 0.8976377952755905,
                    "duration": 0.3614460000000008
                },
                {
                    "name": "C#5",
                    "midi": 73,
                    "time": 101.56632600000019,
                    "velocity": 0.8976377952755905,
                    "duration": 0.3614460000000008
                },
                {
                    "name": "A#3",
                    "midi": 58,
                    "time": 101.92777200000019,
                    "velocity": 0.8976377952755905,
                    "duration": 0.3614460000000008
                },
                {
                    "name": "A#4",
                    "midi": 70,
                    "time": 101.92777200000019,
                    "velocity": 0.8976377952755905,
                    "duration": 0.3614460000000008
                },
                {
                    "name": "F#2",
                    "midi": 42,
                    "time": 102.24403725000019,
                    "velocity": 0.4881889763779528,
                    "duration": 0.0451807500000001
                },
                {
                    "name": "G#2",
                    "midi": 44,
                    "time": 102.28921800000019,
                    "velocity": 0.4881889763779528,
                    "duration": 0.035391587500001265
                },
                {
                    "name": "D3",
                    "midi": 50,
                    "time": 102.28921800000019,
                    "velocity": 0.4881889763779528,
                    "duration": 0.035391587500001265
                },
                {
                    "name": "D2",
                    "midi": 38,
                    "time": 102.46994100000019,
                    "velocity": 0.4881889763779528,
                    "duration": 0.035391587500001265
                },
                {
                    "name": "F#2",
                    "midi": 42,
                    "time": 102.60548325000019,
                    "velocity": 0.4881889763779528,
                    "duration": 0.0451807500000001
                },
                {
                    "name": "G#2",
                    "midi": 44,
                    "time": 102.65066400000019,
                    "velocity": 0.4881889763779528,
                    "duration": 0.035391587500001265
                },
                {
                    "name": "D3",
                    "midi": 50,
                    "time": 102.65066400000019,
                    "velocity": 0.4881889763779528,
                    "duration": 0.035391587500001265
                },
                {
                    "name": "D2",
                    "midi": 38,
                    "time": 102.83138700000019,
                    "velocity": 0.4881889763779528,
                    "duration": 0.035391587500001265
                },
                {
                    "name": "F#2",
                    "midi": 42,
                    "time": 102.96692925000019,
                    "velocity": 0.4881889763779528,
                    "duration": 0.0451807500000001
                },
                {
                    "name": "G#2",
                    "midi": 44,
                    "time": 103.01211000000019,
                    "velocity": 0.4881889763779528,
                    "duration": 0.035391587500001265
                },
                {
                    "name": "D3",
                    "midi": 50,
                    "time": 103.01211000000019,
                    "velocity": 0.4881889763779528,
                    "duration": 0.035391587500001265
                },
                {
                    "name": "D2",
                    "midi": 38,
                    "time": 103.19283300000019,
                    "velocity": 0.4881889763779528,
                    "duration": 0.035391587500001265
                },
                {
                    "name": "F#2",
                    "midi": 42,
                    "time": 103.32837525000019,
                    "velocity": 0.4881889763779528,
                    "duration": 0.0451807500000001
                },
                {
                    "name": "G#2",
                    "midi": 44,
                    "time": 103.37355600000019,
                    "velocity": 0.4881889763779528,
                    "duration": 0.035391587500001265
                },
                {
                    "name": "D3",
                    "midi": 50,
                    "time": 103.37355600000019,
                    "velocity": 0.4881889763779528,
                    "duration": 0.035391587500001265
                },
                {
                    "name": "D2",
                    "midi": 38,
                    "time": 103.5542790000002,
                    "velocity": 0.4881889763779528,
                    "duration": 0.035391587500001265
                },
                {
                    "name": "F#2",
                    "midi": 42,
                    "time": 103.6898212500002,
                    "velocity": 0.4881889763779528,
                    "duration": 0.0451807500000001
                },
                {
                    "name": "G#2",
                    "midi": 44,
                    "time": 103.7350020000002,
                    "velocity": 0.4881889763779528,
                    "duration": 0.035391587500001265
                },
                {
                    "name": "D3",
                    "midi": 50,
                    "time": 103.7350020000002,
                    "velocity": 0.4881889763779528,
                    "duration": 0.035391587500001265
                },
                {
                    "name": "D2",
                    "midi": 38,
                    "time": 103.9157250000002,
                    "velocity": 0.4881889763779528,
                    "duration": 0.035391587500001265
                },
                {
                    "name": "F#2",
                    "midi": 42,
                    "time": 104.0512672500002,
                    "velocity": 0.4881889763779528,
                    "duration": 0.0451807500000001
                },
                {
                    "name": "G#2",
                    "midi": 44,
                    "time": 104.0964480000002,
                    "velocity": 0.4881889763779528,
                    "duration": 0.035391587500001265
                },
                {
                    "name": "D3",
                    "midi": 50,
                    "time": 104.0964480000002,
                    "velocity": 0.4881889763779528,
                    "duration": 0.035391587500001265
                },
                {
                    "name": "D2",
                    "midi": 38,
                    "time": 104.2771710000002,
                    "velocity": 0.4881889763779528,
                    "duration": 0.035391587500001265
                },
                {
                    "name": "F#2",
                    "midi": 42,
                    "time": 104.4127132500002,
                    "velocity": 0.4881889763779528,
                    "duration": 0.0451807500000001
                },
                {
                    "name": "G#2",
                    "midi": 44,
                    "time": 104.4578940000002,
                    "velocity": 0.4881889763779528,
                    "duration": 0.035391587500001265
                },
                {
                    "name": "D3",
                    "midi": 50,
                    "time": 104.4578940000002,
                    "velocity": 0.4881889763779528,
                    "duration": 0.035391587500001265
                },
                {
                    "name": "D2",
                    "midi": 38,
                    "time": 104.6386170000002,
                    "velocity": 0.4881889763779528,
                    "duration": 0.035391587500001265
                },
                {
                    "name": "F#2",
                    "midi": 42,
                    "time": 104.7741592500002,
                    "velocity": 0.4881889763779528,
                    "duration": 0.0451807500000001
                },
                {
                    "name": "G#2",
                    "midi": 44,
                    "time": 104.8193400000002,
                    "velocity": 0.4881889763779528,
                    "duration": 0.035391587500001265
                },
                {
                    "name": "D3",
                    "midi": 50,
                    "time": 104.8193400000002,
                    "velocity": 0.4881889763779528,
                    "duration": 0.035391587500001265
                },
                {
                    "name": "D2",
                    "midi": 38,
                    "time": 105.0000630000002,
                    "velocity": 0.4881889763779528,
                    "duration": 0.035391587500001265
                },
                {
                    "name": "F#2",
                    "midi": 42,
                    "time": 105.1356052500002,
                    "velocity": 0.4881889763779528,
                    "duration": 0.0451807500000001
                },
                {
                    "name": "G#2",
                    "midi": 44,
                    "time": 105.1807860000002,
                    "velocity": 0.4881889763779528,
                    "duration": 0.035391587500001265
                },
                {
                    "name": "D3",
                    "midi": 50,
                    "time": 105.1807860000002,
                    "velocity": 0.4881889763779528,
                    "duration": 0.035391587500001265
                },
                {
                    "name": "D2",
                    "midi": 38,
                    "time": 105.3615090000002,
                    "velocity": 0.4881889763779528,
                    "duration": 0.035391587500001265
                },
                {
                    "name": "F#2",
                    "midi": 42,
                    "time": 105.4970512500002,
                    "velocity": 0.4881889763779528,
                    "duration": 0.0451807500000001
                },
                {
                    "name": "G#2",
                    "midi": 44,
                    "time": 105.5422320000002,
                    "velocity": 0.4881889763779528,
                    "duration": 0.035391587500001265
                },
                {
                    "name": "D3",
                    "midi": 50,
                    "time": 105.5422320000002,
                    "velocity": 0.4881889763779528,
                    "duration": 0.035391587500001265
                },
                {
                    "name": "D2",
                    "midi": 38,
                    "time": 105.7229550000002,
                    "velocity": 0.4881889763779528,
                    "duration": 0.035391587500001265
                },
                {
                    "name": "F#2",
                    "midi": 42,
                    "time": 105.8584972500002,
                    "velocity": 0.4881889763779528,
                    "duration": 0.0451807500000001
                },
                {
                    "name": "G#2",
                    "midi": 44,
                    "time": 105.9036780000002,
                    "velocity": 0.4881889763779528,
                    "duration": 0.035391587500001265
                },
                {
                    "name": "D3",
                    "midi": 50,
                    "time": 105.9036780000002,
                    "velocity": 0.4881889763779528,
                    "duration": 0.035391587500001265
                },
                {
                    "name": "D2",
                    "midi": 38,
                    "time": 106.0844010000002,
                    "velocity": 0.4881889763779528,
                    "duration": 0.035391587500001265
                },
                {
                    "name": "F#2",
                    "midi": 42,
                    "time": 106.2199432500002,
                    "velocity": 0.4881889763779528,
                    "duration": 0.0451807500000001
                },
                {
                    "name": "G#2",
                    "midi": 44,
                    "time": 106.2651240000002,
                    "velocity": 0.4881889763779528,
                    "duration": 0.035391587500001265
                },
                {
                    "name": "D3",
                    "midi": 50,
                    "time": 106.2651240000002,
                    "velocity": 0.4881889763779528,
                    "duration": 0.035391587500001265
                },
                {
                    "name": "D2",
                    "midi": 38,
                    "time": 106.4458470000002,
                    "velocity": 0.4881889763779528,
                    "duration": 0.035391587500001265
                },
                {
                    "name": "F#2",
                    "midi": 42,
                    "time": 106.5813892500002,
                    "velocity": 0.4881889763779528,
                    "duration": 0.0451807500000001
                },
                {
                    "name": "G#2",
                    "midi": 44,
                    "time": 106.6265700000002,
                    "velocity": 0.4881889763779528,
                    "duration": 0.035391587500001265
                },
                {
                    "name": "D3",
                    "midi": 50,
                    "time": 106.6265700000002,
                    "velocity": 0.4881889763779528,
                    "duration": 0.035391587500001265
                },
                {
                    "name": "D2",
                    "midi": 38,
                    "time": 106.8072930000002,
                    "velocity": 0.4881889763779528,
                    "duration": 0.035391587500001265
                },
                {
                    "name": "G#2",
                    "midi": 44,
                    "time": 106.9428352500002,
                    "velocity": 0.4881889763779528,
                    "duration": 0.0451807500000001
                },
                {
                    "name": "A#2",
                    "midi": 46,
                    "time": 106.9880160000002,
                    "velocity": 0.4881889763779528,
                    "duration": 0.035391587500001265
                },
                {
                    "name": "E3",
                    "midi": 52,
                    "time": 106.9880160000002,
                    "velocity": 0.4881889763779528,
                    "duration": 0.035391587500001265
                },
                {
                    "name": "D2",
                    "midi": 38,
                    "time": 107.1687390000002,
                    "velocity": 0.4881889763779528,
                    "duration": 0.035391587500001265
                },
                {
                    "name": "F#2",
                    "midi": 42,
                    "time": 107.3042812500002,
                    "velocity": 0.4881889763779528,
                    "duration": 0.0451807500000001
                },
                {
                    "name": "G2",
                    "midi": 43,
                    "time": 107.3494620000002,
                    "velocity": 0.4881889763779528,
                    "duration": 0.035391587500001265
                },
                {
                    "name": "C#3",
                    "midi": 49,
                    "time": 107.3494620000002,
                    "velocity": 0.4881889763779528,
                    "duration": 0.035391587500001265
                },
                {
                    "name": "D2",
                    "midi": 38,
                    "time": 107.5301850000002,
                    "velocity": 0.4881889763779528,
                    "duration": 0.035391587500001265
                },
                {
                    "name": "G#2",
                    "midi": 44,
                    "time": 107.6657272500002,
                    "velocity": 0.4881889763779528,
                    "duration": 0.0451807500000001
                },
                {
                    "name": "A#2",
                    "midi": 46,
                    "time": 107.7109080000002,
                    "velocity": 0.4881889763779528,
                    "duration": 0.035391587500001265
                },
                {
                    "name": "E3",
                    "midi": 52,
                    "time": 107.7109080000002,
                    "velocity": 0.4881889763779528,
                    "duration": 0.035391587500001265
                },
                {
                    "name": "D2",
                    "midi": 38,
                    "time": 107.8916310000002,
                    "velocity": 0.4881889763779528,
                    "duration": 0.035391587500001265
                },
                {
                    "name": "F#2",
                    "midi": 42,
                    "time": 108.0271732500002,
                    "velocity": 0.4881889763779528,
                    "duration": 0.0451807500000001
                },
                {
                    "name": "G2",
                    "midi": 43,
                    "time": 108.0723540000002,
                    "velocity": 0.4881889763779528,
                    "duration": 0.035391587500001265
                },
                {
                    "name": "C#3",
                    "midi": 49,
                    "time": 108.0723540000002,
                    "velocity": 0.4881889763779528,
                    "duration": 0.035391587500001265
                },
                {
                    "name": "D2",
                    "midi": 38,
                    "time": 108.2530770000002,
                    "velocity": 0.4881889763779528,
                    "duration": 0.035391587500001265
                },
                {
                    "name": "F#2",
                    "midi": 42,
                    "time": 108.3886192500002,
                    "velocity": 0.4881889763779528,
                    "duration": 0.0451807500000001
                },
                {
                    "name": "G2",
                    "midi": 43,
                    "time": 108.4338000000002,
                    "velocity": 0.4881889763779528,
                    "duration": 0.035391587500001265
                },
                {
                    "name": "B2",
                    "midi": 47,
                    "time": 108.4338000000002,
                    "velocity": 0.4881889763779528,
                    "duration": 0.035391587500001265
                },
                {
                    "name": "D2",
                    "midi": 38,
                    "time": 108.6145230000002,
                    "velocity": 0.4881889763779528,
                    "duration": 0.035391587500001265
                },
                {
                    "name": "G#2",
                    "midi": 44,
                    "time": 108.7500652500002,
                    "velocity": 0.4881889763779528,
                    "duration": 0.0451807500000001
                },
                {
                    "name": "A#2",
                    "midi": 46,
                    "time": 108.7952460000002,
                    "velocity": 0.4881889763779528,
                    "duration": 0.035391587500001265
                },
                {
                    "name": "D3",
                    "midi": 50,
                    "time": 108.7952460000002,
                    "velocity": 0.4881889763779528,
                    "duration": 0.035391587500001265
                },
                {
                    "name": "D2",
                    "midi": 38,
                    "time": 108.9759690000002,
                    "velocity": 0.4881889763779528,
                    "duration": 0.035391587500001265
                },
                {
                    "name": "G#2",
                    "midi": 44,
                    "time": 109.1115112500002,
                    "velocity": 0.4881889763779528,
                    "duration": 0.0451807500000001
                },
                {
                    "name": "A#2",
                    "midi": 46,
                    "time": 109.1566920000002,
                    "velocity": 0.4881889763779528,
                    "duration": 0.035391587500001265
                },
                {
                    "name": "B2",
                    "midi": 47,
                    "time": 109.1566920000002,
                    "velocity": 0.4881889763779528,
                    "duration": 0.035391587500001265
                },
                {
                    "name": "D2",
                    "midi": 38,
                    "time": 109.3374150000002,
                    "velocity": 0.4881889763779528,
                    "duration": 0.035391587500001265
                },
                {
                    "name": "F#2",
                    "midi": 42,
                    "time": 109.4729572500002,
                    "velocity": 0.4881889763779528,
                    "duration": 0.0451807500000001
                },
                {
                    "name": "G#2",
                    "midi": 44,
                    "time": 109.5181380000002,
                    "velocity": 0.4881889763779528,
                    "duration": 0.035391587500001265
                },
                {
                    "name": "D3",
                    "midi": 50,
                    "time": 109.5181380000002,
                    "velocity": 0.4881889763779528,
                    "duration": 0.035391587500001265
                },
                {
                    "name": "D2",
                    "midi": 38,
                    "time": 109.6988610000002,
                    "velocity": 0.4881889763779528,
                    "duration": 0.035391587500001265
                },
                {
                    "name": "G#2",
                    "midi": 44,
                    "time": 109.83440325000021,
                    "velocity": 0.4881889763779528,
                    "duration": 0.0451807500000001
                },
                {
                    "name": "A#2",
                    "midi": 46,
                    "time": 109.87958400000021,
                    "velocity": 0.4881889763779528,
                    "duration": 0.035391587500001265
                },
                {
                    "name": "E3",
                    "midi": 52,
                    "time": 109.87958400000021,
                    "velocity": 0.4881889763779528,
                    "duration": 0.035391587500001265
                },
                {
                    "name": "D2",
                    "midi": 38,
                    "time": 110.06030700000021,
                    "velocity": 0.4881889763779528,
                    "duration": 0.035391587500001265
                },
                {
                    "name": "F#2",
                    "midi": 42,
                    "time": 110.19584925000021,
                    "velocity": 0.4881889763779528,
                    "duration": 0.0451807500000001
                },
                {
                    "name": "G2",
                    "midi": 43,
                    "time": 110.24103000000021,
                    "velocity": 0.4881889763779528,
                    "duration": 0.035391587500001265
                },
                {
                    "name": "C#3",
                    "midi": 49,
                    "time": 110.24103000000021,
                    "velocity": 0.4881889763779528,
                    "duration": 0.035391587500001265
                },
                {
                    "name": "D2",
                    "midi": 38,
                    "time": 110.42175300000021,
                    "velocity": 0.4881889763779528,
                    "duration": 0.035391587500001265
                },
                {
                    "name": "G#2",
                    "midi": 44,
                    "time": 110.55729525000021,
                    "velocity": 0.4881889763779528,
                    "duration": 0.0451807500000001
                },
                {
                    "name": "A#2",
                    "midi": 46,
                    "time": 110.60247600000021,
                    "velocity": 0.4881889763779528,
                    "duration": 0.035391587500001265
                },
                {
                    "name": "E3",
                    "midi": 52,
                    "time": 110.60247600000021,
                    "velocity": 0.4881889763779528,
                    "duration": 0.035391587500001265
                },
                {
                    "name": "D2",
                    "midi": 38,
                    "time": 110.78319900000021,
                    "velocity": 0.4881889763779528,
                    "duration": 0.035391587500001265
                },
                {
                    "name": "F#2",
                    "midi": 42,
                    "time": 110.91874125000021,
                    "velocity": 0.4881889763779528,
                    "duration": 0.0451807500000001
                },
                {
                    "name": "G2",
                    "midi": 43,
                    "time": 110.96392200000021,
                    "velocity": 0.4881889763779528,
                    "duration": 0.035391587500001265
                },
                {
                    "name": "C#3",
                    "midi": 49,
                    "time": 110.96392200000021,
                    "velocity": 0.4881889763779528,
                    "duration": 0.035391587500001265
                },
                {
                    "name": "D2",
                    "midi": 38,
                    "time": 111.14464500000021,
                    "velocity": 0.4881889763779528,
                    "duration": 0.035391587500001265
                },
                {
                    "name": "F#2",
                    "midi": 42,
                    "time": 111.28018725000021,
                    "velocity": 0.4881889763779528,
                    "duration": 0.0451807500000001
                },
                {
                    "name": "G2",
                    "midi": 43,
                    "time": 111.32536800000021,
                    "velocity": 0.4881889763779528,
                    "duration": 0.035391587500001265
                },
                {
                    "name": "B2",
                    "midi": 47,
                    "time": 111.32536800000021,
                    "velocity": 0.4881889763779528,
                    "duration": 0.035391587500001265
                },
                {
                    "name": "D2",
                    "midi": 38,
                    "time": 111.50609100000021,
                    "velocity": 0.4881889763779528,
                    "duration": 0.035391587500001265
                },
                {
                    "name": "F#2",
                    "midi": 42,
                    "time": 111.64163325000021,
                    "velocity": 0.4881889763779528,
                    "duration": 0.0451807500000001
                },
                {
                    "name": "G#2",
                    "midi": 44,
                    "time": 111.68681400000021,
                    "velocity": 0.4881889763779528,
                    "duration": 0.035391587500001265
                },
                {
                    "name": "D3",
                    "midi": 50,
                    "time": 111.68681400000021,
                    "velocity": 0.4881889763779528,
                    "duration": 0.035391587500001265
                },
                {
                    "name": "D2",
                    "midi": 38,
                    "time": 111.86753700000021,
                    "velocity": 0.4881889763779528,
                    "duration": 0.035391587500001265
                },
                {
                    "name": "F#2",
                    "midi": 42,
                    "time": 112.00307925000021,
                    "velocity": 0.4881889763779528,
                    "duration": 0.0451807500000001
                },
                {
                    "name": "G2",
                    "midi": 43,
                    "time": 112.04826000000021,
                    "velocity": 0.4881889763779528,
                    "duration": 0.035391587500001265
                },
                {
                    "name": "B2",
                    "midi": 47,
                    "time": 112.04826000000021,
                    "velocity": 0.4881889763779528,
                    "duration": 0.035391587500001265
                },
                {
                    "name": "D2",
                    "midi": 38,
                    "time": 112.22898300000021,
                    "velocity": 0.4881889763779528,
                    "duration": 0.035391587500001265
                },
                {
                    "name": "D2",
                    "midi": 38,
                    "time": 112.40970600000021,
                    "velocity": 0.4881889763779528,
                    "duration": 0.035391587500001265
                },
                {
                    "name": "D3",
                    "midi": 50,
                    "time": 112.59042900000021,
                    "velocity": 0.4881889763779528,
                    "duration": 0.035391587500001265
                },
                {
                    "name": "E3",
                    "midi": 52,
                    "time": 112.77115200000021,
                    "velocity": 0.4881889763779528,
                    "duration": 0.035391587500001265
                },
                {
                    "name": "D3",
                    "midi": 50,
                    "time": 112.95187500000021,
                    "velocity": 0.4881889763779528,
                    "duration": 0.035391587500001265
                },
                {
                    "name": "A#3",
                    "midi": 58,
                    "time": 113.13259800000021,
                    "velocity": 0.4881889763779528,
                    "duration": 0.035391587500001265
                },
                {
                    "name": "D3",
                    "midi": 50,
                    "time": 113.31332100000022,
                    "velocity": 0.4881889763779528,
                    "duration": 0.035391587500001265
                },
                {
                    "name": "E3",
                    "midi": 52,
                    "time": 113.49404400000022,
                    "velocity": 0.4881889763779528,
                    "duration": 0.035391587500001265
                },
                {
                    "name": "D3",
                    "midi": 50,
                    "time": 113.67476700000022,
                    "velocity": 0.4881889763779528,
                    "duration": 0.035391587500001265
                },
                {
                    "name": "D2",
                    "midi": 38,
                    "time": 113.85549000000022,
                    "velocity": 0.4881889763779528,
                    "duration": 0.035391587500001265
                },
                {
                    "name": "B2",
                    "midi": 47,
                    "time": 114.03621300000022,
                    "velocity": 0.4881889763779528,
                    "duration": 0.035391587500001265
                },
                {
                    "name": "C#3",
                    "midi": 49,
                    "time": 114.21693600000022,
                    "velocity": 0.4881889763779528,
                    "duration": 0.035391587500001265
                },
                {
                    "name": "B2",
                    "midi": 47,
                    "time": 114.39765900000022,
                    "velocity": 0.4881889763779528,
                    "duration": 0.035391587500001265
                },
                {
                    "name": "F#3",
                    "midi": 54,
                    "time": 114.57838200000022,
                    "velocity": 0.4881889763779528,
                    "duration": 0.035391587500001265
                },
                {
                    "name": "C#3",
                    "midi": 49,
                    "time": 114.75910500000022,
                    "velocity": 0.4881889763779528,
                    "duration": 0.035391587500001265
                },
                {
                    "name": "D3",
                    "midi": 50,
                    "time": 114.93982800000022,
                    "velocity": 0.4881889763779528,
                    "duration": 0.035391587500001265
                },
                {
                    "name": "C#3",
                    "midi": 49,
                    "time": 115.12055100000022,
                    "velocity": 0.4881889763779528,
                    "duration": 0.035391587500001265
                },
                {
                    "name": "D2",
                    "midi": 38,
                    "time": 115.30127400000022,
                    "velocity": 0.4881889763779528,
                    "duration": 0.035391587500001265
                },
                {
                    "name": "A#2",
                    "midi": 46,
                    "time": 115.48199700000022,
                    "velocity": 0.4881889763779528,
                    "duration": 0.035391587500001265
                },
                {
                    "name": "B2",
                    "midi": 47,
                    "time": 115.66272000000022,
                    "velocity": 0.4881889763779528,
                    "duration": 0.035391587500001265
                },
                {
                    "name": "A#2",
                    "midi": 46,
                    "time": 115.84344300000022,
                    "velocity": 0.4881889763779528,
                    "duration": 0.035391587500001265
                },
                {
                    "name": "F3",
                    "midi": 53,
                    "time": 116.02416600000022,
                    "velocity": 0.4881889763779528,
                    "duration": 0.035391587500001265
                },
                {
                    "name": "A2",
                    "midi": 45,
                    "time": 116.20488900000022,
                    "velocity": 0.4881889763779528,
                    "duration": 0.035391587500001265
                },
                {
                    "name": "B2",
                    "midi": 47,
                    "time": 116.38561200000022,
                    "velocity": 0.4881889763779528,
                    "duration": 0.035391587500001265
                },
                {
                    "name": "A2",
                    "midi": 45,
                    "time": 116.56633500000022,
                    "velocity": 0.4881889763779528,
                    "duration": 0.035391587500001265
                },
                {
                    "name": "D2",
                    "midi": 38,
                    "time": 116.74705800000022,
                    "velocity": 0.4881889763779528,
                    "duration": 0.035391587500001265
                },
                {
                    "name": "B2",
                    "midi": 47,
                    "time": 116.92778100000022,
                    "velocity": 0.4881889763779528,
                    "duration": 0.035391587500001265
                },
                {
                    "name": "C#3",
                    "midi": 49,
                    "time": 117.10850400000022,
                    "velocity": 0.4881889763779528,
                    "duration": 0.035391587500001265
                },
                {
                    "name": "B2",
                    "midi": 47,
                    "time": 117.28922700000022,
                    "velocity": 0.4881889763779528,
                    "duration": 0.035391587500001265
                },
                {
                    "name": "G#3",
                    "midi": 56,
                    "time": 117.46995000000022,
                    "velocity": 0.4881889763779528,
                    "duration": 0.035391587500001265
                },
                {
                    "name": "B2",
                    "midi": 47,
                    "time": 117.65067300000022,
                    "velocity": 0.4881889763779528,
                    "duration": 0.035391587500001265
                },
                {
                    "name": "C#3",
                    "midi": 49,
                    "time": 117.83139600000023,
                    "velocity": 0.4881889763779528,
                    "duration": 0.035391587500001265
                },
                {
                    "name": "B2",
                    "midi": 47,
                    "time": 118.01211900000023,
                    "velocity": 0.4881889763779528,
                    "duration": 0.035391587500001265
                },
                {
                    "name": "D2",
                    "midi": 38,
                    "time": 118.19284200000023,
                    "velocity": 0.4881889763779528,
                    "duration": 0.035391587500001265
                },
                {
                    "name": "D3",
                    "midi": 50,
                    "time": 118.37356500000023,
                    "velocity": 0.4881889763779528,
                    "duration": 0.035391587500001265
                },
                {
                    "name": "E3",
                    "midi": 52,
                    "time": 118.55428800000023,
                    "velocity": 0.4881889763779528,
                    "duration": 0.035391587500001265
                },
                {
                    "name": "D3",
                    "midi": 50,
                    "time": 118.73501100000023,
                    "velocity": 0.4881889763779528,
                    "duration": 0.035391587500001265
                },
                {
                    "name": "A#3",
                    "midi": 58,
                    "time": 118.91573400000023,
                    "velocity": 0.4881889763779528,
                    "duration": 0.035391587500001265
                },
                {
                    "name": "D3",
                    "midi": 50,
                    "time": 119.09645700000023,
                    "velocity": 0.4881889763779528,
                    "duration": 0.035391587500001265
                },
                {
                    "name": "E3",
                    "midi": 52,
                    "time": 119.27718000000023,
                    "velocity": 0.4881889763779528,
                    "duration": 0.035391587500001265
                },
                {
                    "name": "D3",
                    "midi": 50,
                    "time": 119.45790300000023,
                    "velocity": 0.4881889763779528,
                    "duration": 0.035391587500001265
                },
                {
                    "name": "D2",
                    "midi": 38,
                    "time": 119.63862600000023,
                    "velocity": 0.4881889763779528,
                    "duration": 0.035391587500001265
                },
                {
                    "name": "B2",
                    "midi": 47,
                    "time": 119.81934900000023,
                    "velocity": 0.4881889763779528,
                    "duration": 0.035391587500001265
                },
                {
                    "name": "C#3",
                    "midi": 49,
                    "time": 120.00007200000023,
                    "velocity": 0.4881889763779528,
                    "duration": 0.035391587500001265
                },
                {
                    "name": "B2",
                    "midi": 47,
                    "time": 120.18079500000023,
                    "velocity": 0.4881889763779528,
                    "duration": 0.035391587500001265
                },
                {
                    "name": "F#3",
                    "midi": 54,
                    "time": 120.36151800000023,
                    "velocity": 0.4881889763779528,
                    "duration": 0.035391587500001265
                },
                {
                    "name": "C#3",
                    "midi": 49,
                    "time": 120.54224100000023,
                    "velocity": 0.4881889763779528,
                    "duration": 0.035391587500001265
                },
                {
                    "name": "D3",
                    "midi": 50,
                    "time": 120.72296400000023,
                    "velocity": 0.4881889763779528,
                    "duration": 0.035391587500001265
                },
                {
                    "name": "C#3",
                    "midi": 49,
                    "time": 120.90368700000023,
                    "velocity": 0.4881889763779528,
                    "duration": 0.035391587500001265
                },
                {
                    "name": "D2",
                    "midi": 38,
                    "time": 121.08441000000023,
                    "velocity": 0.4881889763779528,
                    "duration": 0.035391587500001265
                },
                {
                    "name": "A#2",
                    "midi": 46,
                    "time": 121.26513300000023,
                    "velocity": 0.4881889763779528,
                    "duration": 0.035391587500001265
                },
                {
                    "name": "B2",
                    "midi": 47,
                    "time": 121.44585600000023,
                    "velocity": 0.4881889763779528,
                    "duration": 0.035391587500001265
                },
                {
                    "name": "A#2",
                    "midi": 46,
                    "time": 121.62657900000023,
                    "velocity": 0.4881889763779528,
                    "duration": 0.035391587500001265
                },
                {
                    "name": "F3",
                    "midi": 53,
                    "time": 121.80730200000023,
                    "velocity": 0.4881889763779528,
                    "duration": 0.035391587500001265
                },
                {
                    "name": "A2",
                    "midi": 45,
                    "time": 121.98802500000023,
                    "velocity": 0.4881889763779528,
                    "duration": 0.035391587500001265
                },
                {
                    "name": "B2",
                    "midi": 47,
                    "time": 122.16874800000024,
                    "velocity": 0.4881889763779528,
                    "duration": 0.035391587500001265
                },
                {
                    "name": "A2",
                    "midi": 45,
                    "time": 122.34947100000024,
                    "velocity": 0.4881889763779528,
                    "duration": 0.035391587500001265
                },
                {
                    "name": "D2",
                    "midi": 38,
                    "time": 122.53019400000024,
                    "velocity": 0.4881889763779528,
                    "duration": 0.035391587500001265
                },
                {
                    "name": "B2",
                    "midi": 47,
                    "time": 122.71091700000024,
                    "velocity": 0.4881889763779528,
                    "duration": 0.035391587500001265
                },
                {
                    "name": "C#3",
                    "midi": 49,
                    "time": 122.89164000000024,
                    "velocity": 0.4881889763779528,
                    "duration": 0.035391587500001265
                },
                {
                    "name": "B2",
                    "midi": 47,
                    "time": 123.07236300000024,
                    "velocity": 0.4881889763779528,
                    "duration": 0.035391587500001265
                },
                {
                    "name": "G#3",
                    "midi": 56,
                    "time": 123.25308600000024,
                    "velocity": 0.4881889763779528,
                    "duration": 0.035391587500001265
                },
                {
                    "name": "B2",
                    "midi": 47,
                    "time": 123.43380900000024,
                    "velocity": 0.4881889763779528,
                    "duration": 0.035391587500001265
                },
                {
                    "name": "C#3",
                    "midi": 49,
                    "time": 123.61453200000024,
                    "velocity": 0.4881889763779528,
                    "duration": 0.035391587500001265
                },
                {
                    "name": "B2",
                    "midi": 47,
                    "time": 123.79525500000024,
                    "velocity": 0.4881889763779528,
                    "duration": 0.035391587500001265
                },
                {
                    "name": "G#3",
                    "midi": 56,
                    "time": 123.97597800000024,
                    "velocity": 0.7952755905511811,
                    "duration": 1.0843380000000025
                },
                {
                    "name": "G3",
                    "midi": 55,
                    "time": 125.06031600000024,
                    "velocity": 0.7952755905511811,
                    "duration": 0.3614460000000008
                },
                {
                    "name": "G#3",
                    "midi": 56,
                    "time": 125.42176200000024,
                    "velocity": 0.7952755905511811,
                    "duration": 1.0843380000000025
                },
                {
                    "name": "F#3",
                    "midi": 54,
                    "time": 126.50610000000025,
                    "velocity": 0.7952755905511811,
                    "duration": 0.3614460000000008
                },
                {
                    "name": "G#3",
                    "midi": 56,
                    "time": 126.86754600000025,
                    "velocity": 0.7952755905511811,
                    "duration": 1.0843380000000025
                },
                {
                    "name": "F#3",
                    "midi": 54,
                    "time": 127.95188400000025,
                    "velocity": 0.7952755905511811,
                    "duration": 0.3614459999999866
                },
                {
                    "name": "G#3",
                    "midi": 56,
                    "time": 128.31333000000024,
                    "velocity": 0.7952755905511811,
                    "duration": 0.3614460000000008
                },
                {
                    "name": "A#3",
                    "midi": 58,
                    "time": 128.67477600000024,
                    "velocity": 0.7952755905511811,
                    "duration": 0.3614460000000008
                },
                {
                    "name": "C#4",
                    "midi": 61,
                    "time": 129.03622200000024,
                    "velocity": 0.7952755905511811,
                    "duration": 0.3614460000000008
                },
                {
                    "name": "A#3",
                    "midi": 58,
                    "time": 129.39766800000024,
                    "velocity": 0.7952755905511811,
                    "duration": 0.3614460000000008
                },
                {
                    "name": "G#3",
                    "midi": 56,
                    "time": 129.75911400000024,
                    "velocity": 0.7952755905511811,
                    "duration": 1.0843380000000025
                },
                {
                    "name": "G3",
                    "midi": 55,
                    "time": 130.84345200000024,
                    "velocity": 0.7952755905511811,
                    "duration": 0.3614460000000008
                },
                {
                    "name": "G#3",
                    "midi": 56,
                    "time": 131.20489800000024,
                    "velocity": 0.7952755905511811,
                    "duration": 1.0843380000000025
                },
                {
                    "name": "F#3",
                    "midi": 54,
                    "time": 132.28923600000024,
                    "velocity": 0.7952755905511811,
                    "duration": 0.3614460000000008
                },
                {
                    "name": "G#3",
                    "midi": 56,
                    "time": 132.65068200000024,
                    "velocity": 0.7952755905511811,
                    "duration": 1.0843380000000025
                },
                {
                    "name": "F#3",
                    "midi": 54,
                    "time": 133.73502000000025,
                    "velocity": 0.7952755905511811,
                    "duration": 0.3614460000000008
                },
                {
                    "name": "G#3",
                    "midi": 56,
                    "time": 134.09646600000025,
                    "velocity": 0.7952755905511811,
                    "duration": 0.3614460000000008
                },
                {
                    "name": "A#3",
                    "midi": 58,
                    "time": 134.45791200000025,
                    "velocity": 0.7952755905511811,
                    "duration": 0.3614460000000008
                },
                {
                    "name": "C#4",
                    "midi": 61,
                    "time": 134.81935800000025,
                    "velocity": 0.7952755905511811,
                    "duration": 0.3614460000000008
                },
                {
                    "name": "A#3",
                    "midi": 58,
                    "time": 135.18080400000025,
                    "velocity": 0.7952755905511811,
                    "duration": 0.3614460000000008
                },
                {
                    "name": "G#3",
                    "midi": 56,
                    "time": 135.54225000000025,
                    "velocity": 0.7952755905511811,
                    "duration": 1.0843380000000025
                },
                {
                    "name": "G3",
                    "midi": 55,
                    "time": 136.62658800000025,
                    "velocity": 0.7952755905511811,
                    "duration": 0.3614460000000008
                },
                {
                    "name": "G#3",
                    "midi": 56,
                    "time": 136.98803400000025,
                    "velocity": 0.7952755905511811,
                    "duration": 1.0843380000000025
                },
                {
                    "name": "F#3",
                    "midi": 54,
                    "time": 138.07237200000026,
                    "velocity": 0.7952755905511811,
                    "duration": 0.3614460000000008
                },
                {
                    "name": "G#3",
                    "midi": 56,
                    "time": 138.43381800000026,
                    "velocity": 0.7952755905511811,
                    "duration": 1.0843380000000025
                },
                {
                    "name": "F#3",
                    "midi": 54,
                    "time": 139.51815600000026,
                    "velocity": 0.7952755905511811,
                    "duration": 0.3614460000000008
                },
                {
                    "name": "G#3",
                    "midi": 56,
                    "time": 139.87960200000026,
                    "velocity": 0.7952755905511811,
                    "duration": 0.3614460000000008
                },
                {
                    "name": "A#3",
                    "midi": 58,
                    "time": 140.24104800000026,
                    "velocity": 0.7952755905511811,
                    "duration": 0.3614460000000008
                },
                {
                    "name": "C#4",
                    "midi": 61,
                    "time": 140.60249400000026,
                    "velocity": 0.7952755905511811,
                    "duration": 0.3614460000000008
                },
                {
                    "name": "A#3",
                    "midi": 58,
                    "time": 140.96394000000026,
                    "velocity": 0.7952755905511811,
                    "duration": 0.3614460000000008
                }
            ],
            "controlChanges": {
                "7": [
                    {
                        "number": 7,
                        "time": 0,
                        "value": 1
                    }
                ],
                "10": [
                    {
                        "number": 10,
                        "time": 0,
                        "value": 0.23622047244094488
                    }
                ]
            },
            "id": 3,
            "name": "Instrument18",
            "instrumentNumber": 0,
            "instrument": "acoustic grand piano",
            "instrumentFamily": "piano",
            "channelNumber": 2,
            "isPercussion": false
        },
        {
            "startTime": 23.49399,
            "duration": 141.32538600000012,
            "length": 274,
            "notes": [
                {
                    "name": "D#2",
                    "midi": 39,
                    "time": 23.49399,
                    "velocity": 0.5905511811023622,
                    "duration": 0.1807230000000004
                },
                {
                    "name": "A2",
                    "midi": 45,
                    "time": 23.49399,
                    "velocity": 0.5905511811023622,
                    "duration": 0.1807230000000004
                },
                {
                    "name": "A4",
                    "midi": 69,
                    "time": 32.53014,
                    "velocity": 0.3858267716535433,
                    "duration": 0.3614460000000008
                },
                {
                    "name": "C5",
                    "midi": 72,
                    "time": 32.891586000000004,
                    "velocity": 0.3858267716535433,
                    "duration": 0.3614460000000008
                },
                {
                    "name": "B4",
                    "midi": 71,
                    "time": 33.253032000000005,
                    "velocity": 0.3858267716535433,
                    "duration": 0.7228920000000016
                },
                {
                    "name": "A4",
                    "midi": 69,
                    "time": 33.975924000000006,
                    "velocity": 0.3858267716535433,
                    "duration": 0.3614460000000008
                },
                {
                    "name": "C5",
                    "midi": 72,
                    "time": 34.33737000000001,
                    "velocity": 0.3858267716535433,
                    "duration": 0.3614460000000008
                },
                {
                    "name": "B4",
                    "midi": 71,
                    "time": 34.69881600000001,
                    "velocity": 0.3858267716535433,
                    "duration": 0.7228920000000016
                },
                {
                    "name": "A4",
                    "midi": 69,
                    "time": 35.42170800000001,
                    "velocity": 0.3858267716535433,
                    "duration": 0.3614460000000008
                },
                {
                    "name": "A#4",
                    "midi": 70,
                    "time": 35.78315400000001,
                    "velocity": 0.3858267716535433,
                    "duration": 0.3614460000000008
                },
                {
                    "name": "F#3",
                    "midi": 54,
                    "time": 42.83135100000001,
                    "velocity": 0.4881889763779528,
                    "duration": 0.035391587500001265
                },
                {
                    "name": "D#3",
                    "midi": 51,
                    "time": 43.01207400000001,
                    "velocity": 0.4881889763779528,
                    "duration": 0.035391587500001265
                },
                {
                    "name": "B2",
                    "midi": 47,
                    "time": 43.19279700000001,
                    "velocity": 0.4881889763779528,
                    "duration": 0.035391587500001265
                },
                {
                    "name": "D#3",
                    "midi": 51,
                    "time": 43.554243000000014,
                    "velocity": 0.4881889763779528,
                    "duration": 0.035391587500001265
                },
                {
                    "name": "G#2",
                    "midi": 44,
                    "time": 43.734966000000014,
                    "velocity": 0.4881889763779528,
                    "duration": 0.035391587500001265
                },
                {
                    "name": "D#3",
                    "midi": 51,
                    "time": 43.915689000000015,
                    "velocity": 0.4881889763779528,
                    "duration": 0.035391587500001265
                },
                {
                    "name": "F#3",
                    "midi": 54,
                    "time": 44.277135000000015,
                    "velocity": 0.4881889763779528,
                    "duration": 0.035391587500001265
                },
                {
                    "name": "D#3",
                    "midi": 51,
                    "time": 44.457858000000016,
                    "velocity": 0.4881889763779528,
                    "duration": 0.035391587500001265
                },
                {
                    "name": "B2",
                    "midi": 47,
                    "time": 44.638581000000016,
                    "velocity": 0.4881889763779528,
                    "duration": 0.035391587500001265
                },
                {
                    "name": "D#3",
                    "midi": 51,
                    "time": 45.00002700000002,
                    "velocity": 0.4881889763779528,
                    "duration": 0.035391587500001265
                },
                {
                    "name": "G#2",
                    "midi": 44,
                    "time": 45.18075000000002,
                    "velocity": 0.4881889763779528,
                    "duration": 0.035391587500001265
                },
                {
                    "name": "D#3",
                    "midi": 51,
                    "time": 45.36147300000002,
                    "velocity": 0.4881889763779528,
                    "duration": 0.035391587500001265
                },
                {
                    "name": "F#3",
                    "midi": 54,
                    "time": 45.72291900000002,
                    "velocity": 0.4881889763779528,
                    "duration": 0.035391587500001265
                },
                {
                    "name": "D#3",
                    "midi": 51,
                    "time": 45.90364200000002,
                    "velocity": 0.4881889763779528,
                    "duration": 0.035391587500001265
                },
                {
                    "name": "B2",
                    "midi": 47,
                    "time": 46.08436500000002,
                    "velocity": 0.4881889763779528,
                    "duration": 0.035391587500001265
                },
                {
                    "name": "D#3",
                    "midi": 51,
                    "time": 46.44581100000002,
                    "velocity": 0.4881889763779528,
                    "duration": 0.035391587500001265
                },
                {
                    "name": "G#2",
                    "midi": 44,
                    "time": 46.62653400000002,
                    "velocity": 0.4881889763779528,
                    "duration": 0.035391587500001265
                },
                {
                    "name": "D#3",
                    "midi": 51,
                    "time": 46.80725700000002,
                    "velocity": 0.4881889763779528,
                    "duration": 0.035391587500001265
                },
                {
                    "name": "F#3",
                    "midi": 54,
                    "time": 47.16870300000002,
                    "velocity": 0.4881889763779528,
                    "duration": 0.035391587500001265
                },
                {
                    "name": "F3",
                    "midi": 53,
                    "time": 47.891595000000024,
                    "velocity": 0.4881889763779528,
                    "duration": 0.035391587500001265
                },
                {
                    "name": "B2",
                    "midi": 47,
                    "time": 48.072318000000024,
                    "velocity": 0.4881889763779528,
                    "duration": 0.035391587500001265
                },
                {
                    "name": "F3",
                    "midi": 53,
                    "time": 48.253041000000024,
                    "velocity": 0.4881889763779528,
                    "duration": 0.035391587500001265
                },
                {
                    "name": "F#3",
                    "midi": 54,
                    "time": 48.614487000000025,
                    "velocity": 0.4881889763779528,
                    "duration": 0.035391587500001265
                },
                {
                    "name": "G#2",
                    "midi": 44,
                    "time": 48.795210000000026,
                    "velocity": 0.4881889763779528,
                    "duration": 0.035391587500001265
                },
                {
                    "name": "F#3",
                    "midi": 54,
                    "time": 48.975933000000026,
                    "velocity": 0.4881889763779528,
                    "duration": 0.035391587500001265
                },
                {
                    "name": "F3",
                    "midi": 53,
                    "time": 49.33737900000003,
                    "velocity": 0.4881889763779528,
                    "duration": 0.035391587500001265
                },
                {
                    "name": "B2",
                    "midi": 47,
                    "time": 49.51810200000003,
                    "velocity": 0.4881889763779528,
                    "duration": 0.035391587500001265
                },
                {
                    "name": "F3",
                    "midi": 53,
                    "time": 49.69882500000003,
                    "velocity": 0.4881889763779528,
                    "duration": 0.035391587500001265
                },
                {
                    "name": "F#3",
                    "midi": 54,
                    "time": 50.06027100000003,
                    "velocity": 0.4881889763779528,
                    "duration": 0.035391587500001265
                },
                {
                    "name": "G#2",
                    "midi": 44,
                    "time": 50.24099400000003,
                    "velocity": 0.4881889763779528,
                    "duration": 0.035391587500001265
                },
                {
                    "name": "F#3",
                    "midi": 54,
                    "time": 50.42171700000003,
                    "velocity": 0.4881889763779528,
                    "duration": 0.035391587500001265
                },
                {
                    "name": "E3",
                    "midi": 52,
                    "time": 51.50605500000003,
                    "velocity": 0.4881889763779528,
                    "duration": 0.035391587500001265
                },
                {
                    "name": "B2",
                    "midi": 47,
                    "time": 51.68677800000003,
                    "velocity": 0.4881889763779528,
                    "duration": 0.035391587500001265
                },
                {
                    "name": "E3",
                    "midi": 52,
                    "time": 51.86750100000003,
                    "velocity": 0.4881889763779528,
                    "duration": 0.035391587500001265
                },
                {
                    "name": "G#3",
                    "midi": 56,
                    "time": 52.22894700000003,
                    "velocity": 0.5905511811023622,
                    "duration": 0.035391587500001265
                },
                {
                    "name": "C#3",
                    "midi": 49,
                    "time": 52.409670000000034,
                    "velocity": 0.5905511811023622,
                    "duration": 0.035391587500001265
                },
                {
                    "name": "G#3",
                    "midi": 56,
                    "time": 52.590393000000034,
                    "velocity": 0.5905511811023622,
                    "duration": 0.035391587500001265
                },
                {
                    "name": "E3",
                    "midi": 52,
                    "time": 52.951839000000035,
                    "velocity": 0.5905511811023622,
                    "duration": 0.035391587500001265
                },
                {
                    "name": "B2",
                    "midi": 47,
                    "time": 53.132562000000036,
                    "velocity": 0.5905511811023622,
                    "duration": 0.035391587500001265
                },
                {
                    "name": "E3",
                    "midi": 52,
                    "time": 53.313285000000036,
                    "velocity": 0.5905511811023622,
                    "duration": 0.035391587500001265
                },
                {
                    "name": "G#3",
                    "midi": 56,
                    "time": 53.67473100000004,
                    "velocity": 0.5905511811023622,
                    "duration": 0.035391587500001265
                },
                {
                    "name": "C#3",
                    "midi": 49,
                    "time": 53.85545400000004,
                    "velocity": 0.5905511811023622,
                    "duration": 0.035391587500001265
                },
                {
                    "name": "G#3",
                    "midi": 56,
                    "time": 54.03617700000004,
                    "velocity": 0.5905511811023622,
                    "duration": 0.035391587500001265
                },
                {
                    "name": "D4",
                    "midi": 62,
                    "time": 96.50608200000005,
                    "velocity": 0.6929133858267716,
                    "duration": 1.4457840000000033
                },
                {
                    "name": "D4",
                    "midi": 62,
                    "time": 98.67475800000005,
                    "velocity": 0.6929133858267716,
                    "duration": 0.7228920000000016
                },
                {
                    "name": "D4",
                    "midi": 62,
                    "time": 101.56632600000006,
                    "velocity": 0.6929133858267716,
                    "duration": 0.7228920000000016
                },
                {
                    "name": "G#2",
                    "midi": 44,
                    "time": 112.59042900000006,
                    "velocity": 0.4881889763779528,
                    "duration": 0.035391587500001265
                },
                {
                    "name": "G#2",
                    "midi": 44,
                    "time": 112.95187500000006,
                    "velocity": 0.4881889763779528,
                    "duration": 0.035391587500001265
                },
                {
                    "name": "G#2",
                    "midi": 44,
                    "time": 113.31332100000006,
                    "velocity": 0.4881889763779528,
                    "duration": 0.035391587500001265
                },
                {
                    "name": "G#2",
                    "midi": 44,
                    "time": 113.67476700000006,
                    "velocity": 0.4881889763779528,
                    "duration": 0.035391587500001265
                },
                {
                    "name": "F2",
                    "midi": 41,
                    "time": 114.03621300000006,
                    "velocity": 0.4881889763779528,
                    "duration": 0.035391587500001265
                },
                {
                    "name": "F2",
                    "midi": 41,
                    "time": 114.39765900000006,
                    "velocity": 0.4881889763779528,
                    "duration": 0.035391587500001265
                },
                {
                    "name": "G2",
                    "midi": 43,
                    "time": 114.75910500000006,
                    "velocity": 0.4881889763779528,
                    "duration": 0.035391587500001265
                },
                {
                    "name": "G2",
                    "midi": 43,
                    "time": 115.12055100000006,
                    "velocity": 0.4881889763779528,
                    "duration": 0.035391587500001265
                },
                {
                    "name": "E2",
                    "midi": 40,
                    "time": 115.48199700000006,
                    "velocity": 0.4881889763779528,
                    "duration": 0.035391587500001265
                },
                {
                    "name": "E2",
                    "midi": 40,
                    "time": 115.84344300000006,
                    "velocity": 0.4881889763779528,
                    "duration": 0.035391587500001265
                },
                {
                    "name": "D#2",
                    "midi": 39,
                    "time": 116.20488900000007,
                    "velocity": 0.4881889763779528,
                    "duration": 0.035391587500001265
                },
                {
                    "name": "D#2",
                    "midi": 39,
                    "time": 116.56633500000007,
                    "velocity": 0.4881889763779528,
                    "duration": 0.035391587500001265
                },
                {
                    "name": "F2",
                    "midi": 41,
                    "time": 116.92778100000007,
                    "velocity": 0.4881889763779528,
                    "duration": 0.035391587500001265
                },
                {
                    "name": "F2",
                    "midi": 41,
                    "time": 117.28922700000007,
                    "velocity": 0.4881889763779528,
                    "duration": 0.035391587500001265
                },
                {
                    "name": "F2",
                    "midi": 41,
                    "time": 117.65067300000007,
                    "velocity": 0.4881889763779528,
                    "duration": 0.035391587500001265
                },
                {
                    "name": "F2",
                    "midi": 41,
                    "time": 118.01211900000007,
                    "velocity": 0.4881889763779528,
                    "duration": 0.035391587500001265
                },
                {
                    "name": "G#2",
                    "midi": 44,
                    "time": 118.37356500000007,
                    "velocity": 0.4881889763779528,
                    "duration": 0.035391587500001265
                },
                {
                    "name": "G#2",
                    "midi": 44,
                    "time": 118.73501100000007,
                    "velocity": 0.4881889763779528,
                    "duration": 0.035391587500001265
                },
                {
                    "name": "G#2",
                    "midi": 44,
                    "time": 119.09645700000007,
                    "velocity": 0.4881889763779528,
                    "duration": 0.035391587500001265
                },
                {
                    "name": "G#2",
                    "midi": 44,
                    "time": 119.45790300000007,
                    "velocity": 0.4881889763779528,
                    "duration": 0.035391587500001265
                },
                {
                    "name": "F2",
                    "midi": 41,
                    "time": 119.81934900000007,
                    "velocity": 0.4881889763779528,
                    "duration": 0.035391587500001265
                },
                {
                    "name": "F2",
                    "midi": 41,
                    "time": 120.18079500000007,
                    "velocity": 0.4881889763779528,
                    "duration": 0.035391587500001265
                },
                {
                    "name": "G2",
                    "midi": 43,
                    "time": 120.54224100000008,
                    "velocity": 0.4881889763779528,
                    "duration": 0.035391587500001265
                },
                {
                    "name": "G2",
                    "midi": 43,
                    "time": 120.90368700000008,
                    "velocity": 0.4881889763779528,
                    "duration": 0.035391587500001265
                },
                {
                    "name": "E2",
                    "midi": 40,
                    "time": 121.26513300000008,
                    "velocity": 0.4881889763779528,
                    "duration": 0.035391587500001265
                },
                {
                    "name": "E2",
                    "midi": 40,
                    "time": 121.62657900000008,
                    "velocity": 0.4881889763779528,
                    "duration": 0.035391587500001265
                },
                {
                    "name": "D#2",
                    "midi": 39,
                    "time": 121.98802500000008,
                    "velocity": 0.4881889763779528,
                    "duration": 0.035391587500001265
                },
                {
                    "name": "D#2",
                    "midi": 39,
                    "time": 122.34947100000008,
                    "velocity": 0.4881889763779528,
                    "duration": 0.035391587500001265
                },
                {
                    "name": "F2",
                    "midi": 41,
                    "time": 122.71091700000008,
                    "velocity": 0.4881889763779528,
                    "duration": 0.035391587500001265
                },
                {
                    "name": "F2",
                    "midi": 41,
                    "time": 123.07236300000008,
                    "velocity": 0.4881889763779528,
                    "duration": 0.035391587500001265
                },
                {
                    "name": "F2",
                    "midi": 41,
                    "time": 123.43380900000008,
                    "velocity": 0.4881889763779528,
                    "duration": 0.035391587500001265
                },
                {
                    "name": "F2",
                    "midi": 41,
                    "time": 123.79525500000008,
                    "velocity": 0.4881889763779528,
                    "duration": 0.035391587500001265
                },
                {
                    "name": "G#3",
                    "midi": 56,
                    "time": 123.97597800000008,
                    "velocity": 0.6929133858267716,
                    "duration": 0.1807230000000004
                },
                {
                    "name": "B2",
                    "midi": 47,
                    "time": 124.15670100000008,
                    "velocity": 0.6929133858267716,
                    "duration": 0.1807230000000004
                },
                {
                    "name": "D3",
                    "midi": 50,
                    "time": 124.15670100000008,
                    "velocity": 0.6929133858267716,
                    "duration": 0.1807230000000004
                },
                {
                    "name": "F3",
                    "midi": 53,
                    "time": 124.15670100000008,
                    "velocity": 0.6929133858267716,
                    "duration": 0.1807230000000004
                },
                {
                    "name": "A2",
                    "midi": 45,
                    "time": 124.33742400000008,
                    "velocity": 0.6929133858267716,
                    "duration": 0.1807230000000004
                },
                {
                    "name": "C2",
                    "midi": 36,
                    "time": 124.51814700000008,
                    "velocity": 0.6929133858267716,
                    "duration": 0.1807230000000004
                },
                {
                    "name": "D#2",
                    "midi": 39,
                    "time": 124.51814700000008,
                    "velocity": 0.6929133858267716,
                    "duration": 0.1807230000000004
                },
                {
                    "name": "F#2",
                    "midi": 42,
                    "time": 124.51814700000008,
                    "velocity": 0.6929133858267716,
                    "duration": 0.1807230000000004
                },
                {
                    "name": "A#2",
                    "midi": 46,
                    "time": 124.69887000000008,
                    "velocity": 0.6929133858267716,
                    "duration": 0.1807230000000004
                },
                {
                    "name": "C#2",
                    "midi": 37,
                    "time": 124.87959300000009,
                    "velocity": 0.6929133858267716,
                    "duration": 0.1807230000000004
                },
                {
                    "name": "E2",
                    "midi": 40,
                    "time": 124.87959300000009,
                    "velocity": 0.6929133858267716,
                    "duration": 0.1807230000000004
                },
                {
                    "name": "G2",
                    "midi": 43,
                    "time": 124.87959300000009,
                    "velocity": 0.6929133858267716,
                    "duration": 0.1807230000000004
                },
                {
                    "name": "G#3",
                    "midi": 56,
                    "time": 125.06031600000009,
                    "velocity": 0.6929133858267716,
                    "duration": 0.1807230000000004
                },
                {
                    "name": "G#2",
                    "midi": 44,
                    "time": 125.24103900000009,
                    "velocity": 0.6929133858267716,
                    "duration": 0.1807230000000004
                },
                {
                    "name": "B2",
                    "midi": 47,
                    "time": 125.24103900000009,
                    "velocity": 0.6929133858267716,
                    "duration": 0.1807230000000004
                },
                {
                    "name": "D3",
                    "midi": 50,
                    "time": 125.24103900000009,
                    "velocity": 0.6929133858267716,
                    "duration": 0.1807230000000004
                },
                {
                    "name": "G#3",
                    "midi": 56,
                    "time": 125.42176200000009,
                    "velocity": 0.6929133858267716,
                    "duration": 0.1807230000000004
                },
                {
                    "name": "G2",
                    "midi": 43,
                    "time": 125.60248500000009,
                    "velocity": 0.6929133858267716,
                    "duration": 0.1807230000000004
                },
                {
                    "name": "B2",
                    "midi": 47,
                    "time": 125.60248500000009,
                    "velocity": 0.6929133858267716,
                    "duration": 0.1807230000000004
                },
                {
                    "name": "D3",
                    "midi": 50,
                    "time": 125.60248500000009,
                    "velocity": 0.6929133858267716,
                    "duration": 0.1807230000000004
                },
                {
                    "name": "G#2",
                    "midi": 44,
                    "time": 125.78320800000009,
                    "velocity": 0.6929133858267716,
                    "duration": 0.1807230000000004
                },
                {
                    "name": "C3",
                    "midi": 48,
                    "time": 125.78320800000009,
                    "velocity": 0.6929133858267716,
                    "duration": 0.1807230000000004
                },
                {
                    "name": "F#3",
                    "midi": 54,
                    "time": 125.96393100000009,
                    "velocity": 0.6929133858267716,
                    "duration": 0.1807230000000004
                },
                {
                    "name": "A2",
                    "midi": 45,
                    "time": 126.14465400000009,
                    "velocity": 0.6929133858267716,
                    "duration": 0.1807230000000004
                },
                {
                    "name": "C#3",
                    "midi": 49,
                    "time": 126.14465400000009,
                    "velocity": 0.6929133858267716,
                    "duration": 0.1807230000000004
                },
                {
                    "name": "E3",
                    "midi": 52,
                    "time": 126.32537700000009,
                    "velocity": 0.6929133858267716,
                    "duration": 0.1807230000000004
                },
                {
                    "name": "F#3",
                    "midi": 54,
                    "time": 126.50610000000009,
                    "velocity": 0.6929133858267716,
                    "duration": 0.1807230000000004
                },
                {
                    "name": "A2",
                    "midi": 45,
                    "time": 126.68682300000009,
                    "velocity": 0.6929133858267716,
                    "duration": 0.1807230000000004
                },
                {
                    "name": "B2",
                    "midi": 47,
                    "time": 126.68682300000009,
                    "velocity": 0.6929133858267716,
                    "duration": 0.1807230000000004
                },
                {
                    "name": "D#3",
                    "midi": 51,
                    "time": 126.68682300000009,
                    "velocity": 0.6929133858267716,
                    "duration": 0.1807230000000004
                },
                {
                    "name": "G#3",
                    "midi": 56,
                    "time": 126.86754600000009,
                    "velocity": 0.6929133858267716,
                    "duration": 0.1807230000000004
                },
                {
                    "name": "B2",
                    "midi": 47,
                    "time": 127.04826900000009,
                    "velocity": 0.6929133858267716,
                    "duration": 0.1807230000000004
                },
                {
                    "name": "D3",
                    "midi": 50,
                    "time": 127.04826900000009,
                    "velocity": 0.6929133858267716,
                    "duration": 0.1807230000000004
                },
                {
                    "name": "F3",
                    "midi": 53,
                    "time": 127.04826900000009,
                    "velocity": 0.6929133858267716,
                    "duration": 0.1807230000000004
                },
                {
                    "name": "C3",
                    "midi": 48,
                    "time": 127.22899200000009,
                    "velocity": 0.6929133858267716,
                    "duration": 0.1807230000000004
                },
                {
                    "name": "D#2",
                    "midi": 39,
                    "time": 127.40971500000009,
                    "velocity": 0.6929133858267716,
                    "duration": 0.1807230000000004
                },
                {
                    "name": "F#2",
                    "midi": 42,
                    "time": 127.40971500000009,
                    "velocity": 0.6929133858267716,
                    "duration": 0.1807230000000004
                },
                {
                    "name": "A2",
                    "midi": 45,
                    "time": 127.40971500000009,
                    "velocity": 0.6929133858267716,
                    "duration": 0.1807230000000004
                },
                {
                    "name": "C#3",
                    "midi": 49,
                    "time": 127.59043800000009,
                    "velocity": 0.6929133858267716,
                    "duration": 0.1807230000000004
                },
                {
                    "name": "E2",
                    "midi": 40,
                    "time": 127.77116100000009,
                    "velocity": 0.6929133858267716,
                    "duration": 0.1807230000000004
                },
                {
                    "name": "G2",
                    "midi": 43,
                    "time": 127.77116100000009,
                    "velocity": 0.6929133858267716,
                    "duration": 0.1807230000000004
                },
                {
                    "name": "A#2",
                    "midi": 46,
                    "time": 127.77116100000009,
                    "velocity": 0.6929133858267716,
                    "duration": 0.1807230000000004
                },
                {
                    "name": "F#3",
                    "midi": 54,
                    "time": 127.95188400000009,
                    "velocity": 0.6929133858267716,
                    "duration": 0.1807230000000004
                },
                {
                    "name": "G#2",
                    "midi": 44,
                    "time": 128.1326070000001,
                    "velocity": 0.6929133858267716,
                    "duration": 0.1807230000000004
                },
                {
                    "name": "B2",
                    "midi": 47,
                    "time": 128.1326070000001,
                    "velocity": 0.6929133858267716,
                    "duration": 0.1807230000000004
                },
                {
                    "name": "D3",
                    "midi": 50,
                    "time": 128.1326070000001,
                    "velocity": 0.6929133858267716,
                    "duration": 0.1807230000000004
                },
                {
                    "name": "G#3",
                    "midi": 56,
                    "time": 128.3133300000001,
                    "velocity": 0.6929133858267716,
                    "duration": 0.1807230000000004
                },
                {
                    "name": "B2",
                    "midi": 47,
                    "time": 128.4940530000001,
                    "velocity": 0.6929133858267716,
                    "duration": 0.1807230000000004
                },
                {
                    "name": "D3",
                    "midi": 50,
                    "time": 128.4940530000001,
                    "velocity": 0.6929133858267716,
                    "duration": 0.1807230000000004
                },
                {
                    "name": "F3",
                    "midi": 53,
                    "time": 128.4940530000001,
                    "velocity": 0.6929133858267716,
                    "duration": 0.1807230000000004
                },
                {
                    "name": "A#3",
                    "midi": 58,
                    "time": 128.6747760000001,
                    "velocity": 0.6929133858267716,
                    "duration": 0.1807230000000004
                },
                {
                    "name": "C3",
                    "midi": 48,
                    "time": 128.8554990000001,
                    "velocity": 0.6929133858267716,
                    "duration": 0.1807230000000004
                },
                {
                    "name": "D#3",
                    "midi": 51,
                    "time": 128.8554990000001,
                    "velocity": 0.6929133858267716,
                    "duration": 0.1807230000000004
                },
                {
                    "name": "F#3",
                    "midi": 54,
                    "time": 128.8554990000001,
                    "velocity": 0.6929133858267716,
                    "duration": 0.1807230000000004
                },
                {
                    "name": "C#4",
                    "midi": 61,
                    "time": 129.0362220000001,
                    "velocity": 0.6929133858267716,
                    "duration": 0.1807230000000004
                },
                {
                    "name": "E3",
                    "midi": 52,
                    "time": 129.2169450000001,
                    "velocity": 0.6929133858267716,
                    "duration": 0.1807230000000004
                },
                {
                    "name": "G3",
                    "midi": 55,
                    "time": 129.2169450000001,
                    "velocity": 0.6929133858267716,
                    "duration": 0.1807230000000004
                },
                {
                    "name": "A3",
                    "midi": 57,
                    "time": 129.2169450000001,
                    "velocity": 0.6929133858267716,
                    "duration": 0.1807230000000004
                },
                {
                    "name": "A#3",
                    "midi": 58,
                    "time": 129.3976680000001,
                    "velocity": 0.6929133858267716,
                    "duration": 0.1807230000000004
                },
                {
                    "name": "C3",
                    "midi": 48,
                    "time": 129.5783910000001,
                    "velocity": 0.6929133858267716,
                    "duration": 0.1807230000000004
                },
                {
                    "name": "D#3",
                    "midi": 51,
                    "time": 129.5783910000001,
                    "velocity": 0.6929133858267716,
                    "duration": 0.1807230000000004
                },
                {
                    "name": "F#3",
                    "midi": 54,
                    "time": 129.5783910000001,
                    "velocity": 0.6929133858267716,
                    "duration": 0.1807230000000004
                },
                {
                    "name": "G#3",
                    "midi": 56,
                    "time": 129.7591140000001,
                    "velocity": 0.6929133858267716,
                    "duration": 0.1807230000000004
                },
                {
                    "name": "B2",
                    "midi": 47,
                    "time": 129.9398370000001,
                    "velocity": 0.6929133858267716,
                    "duration": 0.1807230000000004
                },
                {
                    "name": "D3",
                    "midi": 50,
                    "time": 129.9398370000001,
                    "velocity": 0.6929133858267716,
                    "duration": 0.1807230000000004
                },
                {
                    "name": "F3",
                    "midi": 53,
                    "time": 129.9398370000001,
                    "velocity": 0.6929133858267716,
                    "duration": 0.1807230000000004
                },
                {
                    "name": "D#3",
                    "midi": 51,
                    "time": 130.1205600000001,
                    "velocity": 0.6929133858267716,
                    "duration": 0.1807230000000004
                },
                {
                    "name": "F#2",
                    "midi": 42,
                    "time": 130.3012830000001,
                    "velocity": 0.6929133858267716,
                    "duration": 0.1807230000000004
                },
                {
                    "name": "A2",
                    "midi": 45,
                    "time": 130.3012830000001,
                    "velocity": 0.6929133858267716,
                    "duration": 0.1807230000000004
                },
                {
                    "name": "C3",
                    "midi": 48,
                    "time": 130.3012830000001,
                    "velocity": 0.6929133858267716,
                    "duration": 0.1807230000000004
                },
                {
                    "name": "E3",
                    "midi": 52,
                    "time": 130.4820060000001,
                    "velocity": 0.6929133858267716,
                    "duration": 0.1807230000000004
                },
                {
                    "name": "G2",
                    "midi": 43,
                    "time": 130.6627290000001,
                    "velocity": 0.6929133858267716,
                    "duration": 0.1807230000000004
                },
                {
                    "name": "A#2",
                    "midi": 46,
                    "time": 130.6627290000001,
                    "velocity": 0.6929133858267716,
                    "duration": 0.1807230000000004
                },
                {
                    "name": "C#3",
                    "midi": 49,
                    "time": 130.6627290000001,
                    "velocity": 0.6929133858267716,
                    "duration": 0.1807230000000004
                },
                {
                    "name": "G3",
                    "midi": 55,
                    "time": 130.8434520000001,
                    "velocity": 0.6929133858267716,
                    "duration": 0.1807230000000004
                },
                {
                    "name": "G#2",
                    "midi": 44,
                    "time": 131.0241750000001,
                    "velocity": 0.6929133858267716,
                    "duration": 0.1807230000000004
                },
                {
                    "name": "B2",
                    "midi": 47,
                    "time": 131.0241750000001,
                    "velocity": 0.6929133858267716,
                    "duration": 0.1807230000000004
                },
                {
                    "name": "D3",
                    "midi": 50,
                    "time": 131.0241750000001,
                    "velocity": 0.6929133858267716,
                    "duration": 0.1807230000000004
                },
                {
                    "name": "G#3",
                    "midi": 56,
                    "time": 131.2048980000001,
                    "velocity": 0.6929133858267716,
                    "duration": 0.1807230000000004
                },
                {
                    "name": "G2",
                    "midi": 43,
                    "time": 131.3856210000001,
                    "velocity": 0.6929133858267716,
                    "duration": 0.1807230000000004
                },
                {
                    "name": "B2",
                    "midi": 47,
                    "time": 131.3856210000001,
                    "velocity": 0.6929133858267716,
                    "duration": 0.1807230000000004
                },
                {
                    "name": "D3",
                    "midi": 50,
                    "time": 131.3856210000001,
                    "velocity": 0.6929133858267716,
                    "duration": 0.1807230000000004
                },
                {
                    "name": "G#2",
                    "midi": 44,
                    "time": 131.5663440000001,
                    "velocity": 0.6929133858267716,
                    "duration": 0.1807230000000004
                },
                {
                    "name": "C3",
                    "midi": 48,
                    "time": 131.5663440000001,
                    "velocity": 0.6929133858267716,
                    "duration": 0.1807230000000004
                },
                {
                    "name": "F#3",
                    "midi": 54,
                    "time": 131.7470670000001,
                    "velocity": 0.6929133858267716,
                    "duration": 0.1807230000000004
                },
                {
                    "name": "A2",
                    "midi": 45,
                    "time": 131.9277900000001,
                    "velocity": 0.6929133858267716,
                    "duration": 0.1807230000000004
                },
                {
                    "name": "C#3",
                    "midi": 49,
                    "time": 131.9277900000001,
                    "velocity": 0.6929133858267716,
                    "duration": 0.1807230000000004
                },
                {
                    "name": "E3",
                    "midi": 52,
                    "time": 132.1085130000001,
                    "velocity": 0.6929133858267716,
                    "duration": 0.1807230000000004
                },
                {
                    "name": "F#3",
                    "midi": 54,
                    "time": 132.2892360000001,
                    "velocity": 0.6929133858267716,
                    "duration": 0.1807230000000004
                },
                {
                    "name": "A2",
                    "midi": 45,
                    "time": 132.4699590000001,
                    "velocity": 0.6929133858267716,
                    "duration": 0.1807230000000004
                },
                {
                    "name": "B2",
                    "midi": 47,
                    "time": 132.4699590000001,
                    "velocity": 0.6929133858267716,
                    "duration": 0.1807230000000004
                },
                {
                    "name": "D#3",
                    "midi": 51,
                    "time": 132.4699590000001,
                    "velocity": 0.6929133858267716,
                    "duration": 0.1807230000000004
                },
                {
                    "name": "G#3",
                    "midi": 56,
                    "time": 132.6506820000001,
                    "velocity": 0.6929133858267716,
                    "duration": 0.1807230000000004
                },
                {
                    "name": "B2",
                    "midi": 47,
                    "time": 132.8314050000001,
                    "velocity": 0.6929133858267716,
                    "duration": 0.1807230000000004
                },
                {
                    "name": "D3",
                    "midi": 50,
                    "time": 132.8314050000001,
                    "velocity": 0.6929133858267716,
                    "duration": 0.1807230000000004
                },
                {
                    "name": "F3",
                    "midi": 53,
                    "time": 132.8314050000001,
                    "velocity": 0.6929133858267716,
                    "duration": 0.1807230000000004
                },
                {
                    "name": "A2",
                    "midi": 45,
                    "time": 133.0121280000001,
                    "velocity": 0.6929133858267716,
                    "duration": 0.1807230000000004
                },
                {
                    "name": "D#2",
                    "midi": 39,
                    "time": 133.1928510000001,
                    "velocity": 0.6929133858267716,
                    "duration": 0.1807230000000004
                },
                {
                    "name": "F#2",
                    "midi": 42,
                    "time": 133.1928510000001,
                    "velocity": 0.6929133858267716,
                    "duration": 0.1807230000000004
                },
                {
                    "name": "A2",
                    "midi": 45,
                    "time": 133.1928510000001,
                    "velocity": 0.6929133858267716,
                    "duration": 0.1807230000000004
                },
                {
                    "name": "C#3",
                    "midi": 49,
                    "time": 133.3735740000001,
                    "velocity": 0.6929133858267716,
                    "duration": 0.1807230000000004
                },
                {
                    "name": "E2",
                    "midi": 40,
                    "time": 133.5542970000001,
                    "velocity": 0.6929133858267716,
                    "duration": 0.1807230000000004
                },
                {
                    "name": "G2",
                    "midi": 43,
                    "time": 133.5542970000001,
                    "velocity": 0.6929133858267716,
                    "duration": 0.1807230000000004
                },
                {
                    "name": "A#2",
                    "midi": 46,
                    "time": 133.5542970000001,
                    "velocity": 0.6929133858267716,
                    "duration": 0.1807230000000004
                },
                {
                    "name": "F#3",
                    "midi": 54,
                    "time": 133.7350200000001,
                    "velocity": 0.6929133858267716,
                    "duration": 0.1807230000000004
                },
                {
                    "name": "G#2",
                    "midi": 44,
                    "time": 133.9157430000001,
                    "velocity": 0.6929133858267716,
                    "duration": 0.1807230000000004
                },
                {
                    "name": "B2",
                    "midi": 47,
                    "time": 133.9157430000001,
                    "velocity": 0.6929133858267716,
                    "duration": 0.1807230000000004
                },
                {
                    "name": "D3",
                    "midi": 50,
                    "time": 133.9157430000001,
                    "velocity": 0.6929133858267716,
                    "duration": 0.1807230000000004
                },
                {
                    "name": "G#3",
                    "midi": 56,
                    "time": 134.0964660000001,
                    "velocity": 0.6929133858267716,
                    "duration": 0.1807230000000004
                },
                {
                    "name": "G2",
                    "midi": 43,
                    "time": 134.2771890000001,
                    "velocity": 0.6929133858267716,
                    "duration": 0.1807230000000004
                },
                {
                    "name": "B2",
                    "midi": 47,
                    "time": 134.2771890000001,
                    "velocity": 0.6929133858267716,
                    "duration": 0.1807230000000004
                },
                {
                    "name": "D3",
                    "midi": 50,
                    "time": 134.2771890000001,
                    "velocity": 0.6929133858267716,
                    "duration": 0.1807230000000004
                },
                {
                    "name": "A#3",
                    "midi": 58,
                    "time": 134.4579120000001,
                    "velocity": 0.6929133858267716,
                    "duration": 0.1807230000000004
                },
                {
                    "name": "C3",
                    "midi": 48,
                    "time": 134.6386350000001,
                    "velocity": 0.6929133858267716,
                    "duration": 0.1807230000000004
                },
                {
                    "name": "D#3",
                    "midi": 51,
                    "time": 134.6386350000001,
                    "velocity": 0.6929133858267716,
                    "duration": 0.1807230000000004
                },
                {
                    "name": "F#3",
                    "midi": 54,
                    "time": 134.6386350000001,
                    "velocity": 0.6929133858267716,
                    "duration": 0.1807230000000004
                },
                {
                    "name": "C#4",
                    "midi": 61,
                    "time": 134.8193580000001,
                    "velocity": 0.6929133858267716,
                    "duration": 0.1807230000000004
                },
                {
                    "name": "E3",
                    "midi": 52,
                    "time": 135.0000810000001,
                    "velocity": 0.6929133858267716,
                    "duration": 0.1807230000000004
                },
                {
                    "name": "G3",
                    "midi": 55,
                    "time": 135.0000810000001,
                    "velocity": 0.6929133858267716,
                    "duration": 0.1807230000000004
                },
                {
                    "name": "A3",
                    "midi": 57,
                    "time": 135.0000810000001,
                    "velocity": 0.6929133858267716,
                    "duration": 0.1807230000000004
                },
                {
                    "name": "A#3",
                    "midi": 58,
                    "time": 135.1808040000001,
                    "velocity": 0.6929133858267716,
                    "duration": 0.1807230000000004
                },
                {
                    "name": "B2",
                    "midi": 47,
                    "time": 135.3615270000001,
                    "velocity": 0.6929133858267716,
                    "duration": 0.1807230000000004
                },
                {
                    "name": "D#3",
                    "midi": 51,
                    "time": 135.3615270000001,
                    "velocity": 0.6929133858267716,
                    "duration": 0.1807230000000004
                },
                {
                    "name": "F#3",
                    "midi": 54,
                    "time": 135.3615270000001,
                    "velocity": 0.6929133858267716,
                    "duration": 0.1807230000000004
                },
                {
                    "name": "G#3",
                    "midi": 56,
                    "time": 135.5422500000001,
                    "velocity": 0.6929133858267716,
                    "duration": 0.1807230000000004
                },
                {
                    "name": "B2",
                    "midi": 47,
                    "time": 135.7229730000001,
                    "velocity": 0.6929133858267716,
                    "duration": 0.1807230000000004
                },
                {
                    "name": "D3",
                    "midi": 50,
                    "time": 135.7229730000001,
                    "velocity": 0.6929133858267716,
                    "duration": 0.1807230000000004
                },
                {
                    "name": "F3",
                    "midi": 53,
                    "time": 135.7229730000001,
                    "velocity": 0.6929133858267716,
                    "duration": 0.1807230000000004
                },
                {
                    "name": "D#3",
                    "midi": 51,
                    "time": 135.9036960000001,
                    "velocity": 0.6929133858267716,
                    "duration": 0.1807230000000004
                },
                {
                    "name": "F#2",
                    "midi": 42,
                    "time": 136.0844190000001,
                    "velocity": 0.6929133858267716,
                    "duration": 0.1807230000000004
                },
                {
                    "name": "A2",
                    "midi": 45,
                    "time": 136.0844190000001,
                    "velocity": 0.6929133858267716,
                    "duration": 0.1807230000000004
                },
                {
                    "name": "C3",
                    "midi": 48,
                    "time": 136.0844190000001,
                    "velocity": 0.6929133858267716,
                    "duration": 0.1807230000000004
                },
                {
                    "name": "E3",
                    "midi": 52,
                    "time": 136.2651420000001,
                    "velocity": 0.6929133858267716,
                    "duration": 0.1807230000000004
                },
                {
                    "name": "G2",
                    "midi": 43,
                    "time": 136.4458650000001,
                    "velocity": 0.6929133858267716,
                    "duration": 0.1807230000000004
                },
                {
                    "name": "A#2",
                    "midi": 46,
                    "time": 136.4458650000001,
                    "velocity": 0.6929133858267716,
                    "duration": 0.1807230000000004
                },
                {
                    "name": "C#3",
                    "midi": 49,
                    "time": 136.4458650000001,
                    "velocity": 0.6929133858267716,
                    "duration": 0.1807230000000004
                },
                {
                    "name": "G3",
                    "midi": 55,
                    "time": 136.6265880000001,
                    "velocity": 0.6929133858267716,
                    "duration": 0.1807230000000004
                },
                {
                    "name": "G#2",
                    "midi": 44,
                    "time": 136.8073110000001,
                    "velocity": 0.6929133858267716,
                    "duration": 0.1807230000000004
                },
                {
                    "name": "B2",
                    "midi": 47,
                    "time": 136.8073110000001,
                    "velocity": 0.6929133858267716,
                    "duration": 0.1807230000000004
                },
                {
                    "name": "D3",
                    "midi": 50,
                    "time": 136.8073110000001,
                    "velocity": 0.6929133858267716,
                    "duration": 0.1807230000000004
                },
                {
                    "name": "G3",
                    "midi": 55,
                    "time": 136.9880340000001,
                    "velocity": 0.6929133858267716,
                    "duration": 0.1807230000000004
                },
                {
                    "name": "G2",
                    "midi": 43,
                    "time": 137.1687570000001,
                    "velocity": 0.6929133858267716,
                    "duration": 0.1807230000000004
                },
                {
                    "name": "B2",
                    "midi": 47,
                    "time": 137.1687570000001,
                    "velocity": 0.6929133858267716,
                    "duration": 0.1807230000000004
                },
                {
                    "name": "D3",
                    "midi": 50,
                    "time": 137.1687570000001,
                    "velocity": 0.6929133858267716,
                    "duration": 0.1807230000000004
                },
                {
                    "name": "G#2",
                    "midi": 44,
                    "time": 137.3494800000001,
                    "velocity": 0.6929133858267716,
                    "duration": 0.1807230000000004
                },
                {
                    "name": "C3",
                    "midi": 48,
                    "time": 137.3494800000001,
                    "velocity": 0.6929133858267716,
                    "duration": 0.1807230000000004
                },
                {
                    "name": "F#3",
                    "midi": 54,
                    "time": 137.5302030000001,
                    "velocity": 0.6929133858267716,
                    "duration": 0.1807230000000004
                },
                {
                    "name": "A2",
                    "midi": 45,
                    "time": 137.71092600000011,
                    "velocity": 0.6929133858267716,
                    "duration": 0.1807230000000004
                },
                {
                    "name": "C#3",
                    "midi": 49,
                    "time": 137.71092600000011,
                    "velocity": 0.6929133858267716,
                    "duration": 0.1807230000000004
                },
                {
                    "name": "E3",
                    "midi": 52,
                    "time": 137.89164900000011,
                    "velocity": 0.6929133858267716,
                    "duration": 0.1807230000000004
                },
                {
                    "name": "F#3",
                    "midi": 54,
                    "time": 138.07237200000012,
                    "velocity": 0.6929133858267716,
                    "duration": 0.1807230000000004
                },
                {
                    "name": "A2",
                    "midi": 45,
                    "time": 138.25309500000012,
                    "velocity": 0.6929133858267716,
                    "duration": 0.1807230000000004
                },
                {
                    "name": "B2",
                    "midi": 47,
                    "time": 138.25309500000012,
                    "velocity": 0.6929133858267716,
                    "duration": 0.1807230000000004
                },
                {
                    "name": "D#3",
                    "midi": 51,
                    "time": 138.25309500000012,
                    "velocity": 0.6929133858267716,
                    "duration": 0.1807230000000004
                },
                {
                    "name": "G#3",
                    "midi": 56,
                    "time": 138.43381800000012,
                    "velocity": 0.6929133858267716,
                    "duration": 0.1807230000000004
                },
                {
                    "name": "B2",
                    "midi": 47,
                    "time": 138.61454100000012,
                    "velocity": 0.6929133858267716,
                    "duration": 0.1807230000000004
                },
                {
                    "name": "D3",
                    "midi": 50,
                    "time": 138.61454100000012,
                    "velocity": 0.6929133858267716,
                    "duration": 0.1807230000000004
                },
                {
                    "name": "F3",
                    "midi": 53,
                    "time": 138.61454100000012,
                    "velocity": 0.6929133858267716,
                    "duration": 0.1807230000000004
                },
                {
                    "name": "C3",
                    "midi": 48,
                    "time": 138.79526400000012,
                    "velocity": 0.6929133858267716,
                    "duration": 0.1807230000000004
                },
                {
                    "name": "D#2",
                    "midi": 39,
                    "time": 138.97598700000012,
                    "velocity": 0.6929133858267716,
                    "duration": 0.1807230000000004
                },
                {
                    "name": "F#2",
                    "midi": 42,
                    "time": 138.97598700000012,
                    "velocity": 0.6929133858267716,
                    "duration": 0.1807230000000004
                },
                {
                    "name": "A2",
                    "midi": 45,
                    "time": 138.97598700000012,
                    "velocity": 0.6929133858267716,
                    "duration": 0.1807230000000004
                },
                {
                    "name": "C#3",
                    "midi": 49,
                    "time": 139.15671000000012,
                    "velocity": 0.6929133858267716,
                    "duration": 0.1807230000000004
                },
                {
                    "name": "E2",
                    "midi": 40,
                    "time": 139.33743300000012,
                    "velocity": 0.6929133858267716,
                    "duration": 0.1807230000000004
                },
                {
                    "name": "G2",
                    "midi": 43,
                    "time": 139.33743300000012,
                    "velocity": 0.6929133858267716,
                    "duration": 0.1807230000000004
                },
                {
                    "name": "A#2",
                    "midi": 46,
                    "time": 139.33743300000012,
                    "velocity": 0.6929133858267716,
                    "duration": 0.1807230000000004
                },
                {
                    "name": "F#3",
                    "midi": 54,
                    "time": 139.51815600000012,
                    "velocity": 0.6929133858267716,
                    "duration": 0.1807230000000004
                },
                {
                    "name": "G#2",
                    "midi": 44,
                    "time": 139.69887900000012,
                    "velocity": 0.6929133858267716,
                    "duration": 0.1807230000000004
                },
                {
                    "name": "B2",
                    "midi": 47,
                    "time": 139.69887900000012,
                    "velocity": 0.6929133858267716,
                    "duration": 0.1807230000000004
                },
                {
                    "name": "D3",
                    "midi": 50,
                    "time": 139.69887900000012,
                    "velocity": 0.6929133858267716,
                    "duration": 0.1807230000000004
                },
                {
                    "name": "G#3",
                    "midi": 56,
                    "time": 139.87960200000012,
                    "velocity": 0.6929133858267716,
                    "duration": 0.1807230000000004
                },
                {
                    "name": "G2",
                    "midi": 43,
                    "time": 140.06032500000012,
                    "velocity": 0.6929133858267716,
                    "duration": 0.1807230000000004
                },
                {
                    "name": "B2",
                    "midi": 47,
                    "time": 140.06032500000012,
                    "velocity": 0.6929133858267716,
                    "duration": 0.1807230000000004
                },
                {
                    "name": "D3",
                    "midi": 50,
                    "time": 140.06032500000012,
                    "velocity": 0.6929133858267716,
                    "duration": 0.1807230000000004
                },
                {
                    "name": "A#3",
                    "midi": 58,
                    "time": 140.24104800000012,
                    "velocity": 0.6929133858267716,
                    "duration": 0.1807230000000004
                },
                {
                    "name": "C3",
                    "midi": 48,
                    "time": 140.42177100000012,
                    "velocity": 0.6929133858267716,
                    "duration": 0.1807230000000004
                },
                {
                    "name": "D#3",
                    "midi": 51,
                    "time": 140.42177100000012,
                    "velocity": 0.6929133858267716,
                    "duration": 0.1807230000000004
                },
                {
                    "name": "F#3",
                    "midi": 54,
                    "time": 140.42177100000012,
                    "velocity": 0.6929133858267716,
                    "duration": 0.1807230000000004
                },
                {
                    "name": "C#4",
                    "midi": 61,
                    "time": 140.60249400000012,
                    "velocity": 0.6929133858267716,
                    "duration": 0.1807230000000004
                },
                {
                    "name": "E3",
                    "midi": 52,
                    "time": 140.78321700000012,
                    "velocity": 0.6929133858267716,
                    "duration": 0.1807230000000004
                },
                {
                    "name": "G3",
                    "midi": 55,
                    "time": 140.78321700000012,
                    "velocity": 0.6929133858267716,
                    "duration": 0.1807230000000004
                },
                {
                    "name": "A3",
                    "midi": 57,
                    "time": 140.78321700000012,
                    "velocity": 0.6929133858267716,
                    "duration": 0.1807230000000004
                },
                {
                    "name": "A#3",
                    "midi": 58,
                    "time": 140.96394000000012,
                    "velocity": 0.6929133858267716,
                    "duration": 0.1807230000000004
                },
                {
                    "name": "B2",
                    "midi": 47,
                    "time": 141.14466300000012,
                    "velocity": 0.6929133858267716,
                    "duration": 0.1807230000000004
                },
                {
                    "name": "D#3",
                    "midi": 51,
                    "time": 141.14466300000012,
                    "velocity": 0.6929133858267716,
                    "duration": 0.1807230000000004
                },
                {
                    "name": "F#3",
                    "midi": 54,
                    "time": 141.14466300000012,
                    "velocity": 0.6929133858267716,
                    "duration": 0.1807230000000004
                }
            ],
            "controlChanges": {
                "7": [
                    {
                        "number": 7,
                        "time": 0,
                        "value": 1
                    }
                ],
                "10": [
                    {
                        "number": 10,
                        "time": 0,
                        "value": 0.23622047244094488
                    }
                ]
            },
            "id": 4,
            "name": "Instrument19",
            "instrumentNumber": 0,
            "instrument": "acoustic grand piano",
            "instrumentFamily": "piano",
            "channelNumber": 3,
            "isPercussion": false
        },
        {
            "startTime": 0,
            "duration": 0,
            "length": 0,
            "notes": [],
            "controlChanges": {},
            "id": 5
        }
    ]
}