{
    "header": {
        "PPQ": 480,
        "timeSignature": [
            3,
            4
        ],
        "bpm": 50,
        "name": "untitled"
    },
    "startTime": 0,
    "duration": 115.19999999999966,
    "tracks": [
        {
            "startTime": 0,
            "duration": 0,
            "length": 0,
            "notes": [],
            "controlChanges": {},
            "id": 0,
            "name": "untitled"
        },
        {
            "startTime": 0,
            "duration": 115.19999999999966,
            "length": 260,
            "notes": [
                {
                    "name": "B3",
                    "midi": 59,
                    "time": 0,
                    "velocity": 0.7874015748031497,
                    "duration": 1.2
                },
                {
                    "name": "C4",
                    "midi": 60,
                    "time": 1.2,
                    "velocity": 0.7874015748031497,
                    "duration": 1.8
                },
                {
                    "name": "B3",
                    "midi": 59,
                    "time": 3,
                    "velocity": 0.7874015748031497,
                    "duration": 0.6000000000000001
                },
                {
                    "name": "F#3",
                    "midi": 54,
                    "time": 3.6,
                    "velocity": 0.7874015748031497,
                    "duration": 0.2999999999999998
                },
                {
                    "name": "A3",
                    "midi": 57,
                    "time": 3.9,
                    "velocity": 0.7874015748031497,
                    "duration": 0.30000000000000027
                },
                {
                    "name": "B3",
                    "midi": 59,
                    "time": 4.2,
                    "velocity": 0.7874015748031497,
                    "duration": 0.2999999999999998
                },
                {
                    "name": "C4",
                    "midi": 60,
                    "time": 4.5,
                    "velocity": 0.7874015748031497,
                    "duration": 0.2999999999999998
                },
                {
                    "name": "B3",
                    "midi": 59,
                    "time": 4.8,
                    "velocity": 0.7874015748031497,
                    "duration": 1.1999999999999993
                },
                {
                    "name": "A3",
                    "midi": 57,
                    "time": 5.999999999999999,
                    "velocity": 0.7874015748031497,
                    "duration": 0.5999999999999996
                },
                {
                    "name": "G3",
                    "midi": 55,
                    "time": 6.599999999999999,
                    "velocity": 0.7874015748031497,
                    "duration": 0.5999999999999996
                },
                {
                    "name": "D4",
                    "midi": 62,
                    "time": 7.199999999999998,
                    "velocity": 0.7874015748031497,
                    "duration": 0.5999999999999996
                },
                {
                    "name": "F3",
                    "midi": 53,
                    "time": 7.799999999999998,
                    "velocity": 0.7874015748031497,
                    "duration": 0.6000000000000005
                },
                {
                    "name": "E3",
                    "midi": 52,
                    "time": 8.399999999999999,
                    "velocity": 0.7874015748031497,
                    "duration": 0.9000000000000004
                },
                {
                    "name": "D3",
                    "midi": 50,
                    "time": 9.299999999999999,
                    "velocity": 0.7874015748031497,
                    "duration": 0.09999999999999964
                },
                {
                    "name": "C3",
                    "midi": 48,
                    "time": 9.399999999999999,
                    "velocity": 0.7874015748031497,
                    "duration": 0.09999999999999964
                },
                {
                    "name": "B2",
                    "midi": 47,
                    "time": 9.499999999999998,
                    "velocity": 0.7874015748031497,
                    "duration": 0.09999999999999964
                },
                {
                    "name": "C3",
                    "midi": 48,
                    "time": 9.599999999999998,
                    "velocity": 0.7874015748031497,
                    "duration": 0.5999999999999996
                },
                {
                    "name": "E3",
                    "midi": 52,
                    "time": 10.199999999999998,
                    "velocity": 0.7874015748031497,
                    "duration": 0.5999999999999996
                },
                {
                    "name": "F#3",
                    "midi": 54,
                    "time": 10.799999999999997,
                    "velocity": 0.7874015748031497,
                    "duration": 0.3000000000000007
                },
                {
                    "name": "C4",
                    "midi": 60,
                    "time": 11.099999999999998,
                    "velocity": 0.7874015748031497,
                    "duration": 0.3000000000000007
                },
                {
                    "name": "B3",
                    "midi": 59,
                    "time": 11.399999999999999,
                    "velocity": 0.7874015748031497,
                    "duration": 0.3000000000000007
                },
                {
                    "name": "G3",
                    "midi": 55,
                    "time": 11.7,
                    "velocity": 0.7874015748031497,
                    "duration": 0.3000000000000007
                },
                {
                    "name": "F#3",
                    "midi": 54,
                    "time": 12,
                    "velocity": 0.7874015748031497,
                    "duration": 1.200000000000001
                },
                {
                    "name": "E3",
                    "midi": 52,
                    "time": 13.200000000000001,
                    "velocity": 0.7874015748031497,
                    "duration": 0.5999999999999996
                },
                {
                    "name": "D3",
                    "midi": 50,
                    "time": 13.8,
                    "velocity": 0.7874015748031497,
                    "duration": 0.5999999999999996
                },
                {
                    "name": "A3",
                    "midi": 57,
                    "time": 14.4,
                    "velocity": 0.7874015748031497,
                    "duration": 0.3000000000000007
                },
                {
                    "name": "F#3",
                    "midi": 54,
                    "time": 14.700000000000001,
                    "velocity": 0.7874015748031497,
                    "duration": 0.3000000000000007
                },
                {
                    "name": "D3",
                    "midi": 50,
                    "time": 15.000000000000002,
                    "velocity": 0.7874015748031497,
                    "duration": 0.3000000000000007
                },
                {
                    "name": "C3",
                    "midi": 48,
                    "time": 15.300000000000002,
                    "velocity": 0.7874015748031497,
                    "duration": 0.3000000000000007
                },
                {
                    "name": "B2",
                    "midi": 47,
                    "time": 15.600000000000003,
                    "velocity": 0.7874015748031497,
                    "duration": 0.9000000000000004
                },
                {
                    "name": "G2",
                    "midi": 43,
                    "time": 16.500000000000004,
                    "velocity": 0.7874015748031497,
                    "duration": 0.3000000000000007
                },
                {
                    "name": "B2",
                    "midi": 47,
                    "time": 16.800000000000004,
                    "velocity": 0.7874015748031497,
                    "duration": 0.3000000000000007
                },
                {
                    "name": "D3",
                    "midi": 50,
                    "time": 17.100000000000005,
                    "velocity": 0.7874015748031497,
                    "duration": 0.3000000000000007
                },
                {
                    "name": "G3",
                    "midi": 55,
                    "time": 17.400000000000006,
                    "velocity": 0.7874015748031497,
                    "duration": 0.3000000000000007
                },
                {
                    "name": "A3",
                    "midi": 57,
                    "time": 17.700000000000006,
                    "velocity": 0.7874015748031497,
                    "duration": 0.3000000000000007
                },
                {
                    "name": "B3",
                    "midi": 59,
                    "time": 18.000000000000007,
                    "velocity": 0.7874015748031497,
                    "duration": 0.3000000000000007
                },
                {
                    "name": "G3",
                    "midi": 55,
                    "time": 18.300000000000008,
                    "velocity": 0.7874015748031497,
                    "duration": 0.3000000000000007
                },
                {
                    "name": "E3",
                    "midi": 52,
                    "time": 18.60000000000001,
                    "velocity": 0.7874015748031497,
                    "duration": 0.3000000000000007
                },
                {
                    "name": "D3",
                    "midi": 50,
                    "time": 18.90000000000001,
                    "velocity": 0.7874015748031497,
                    "duration": 0.3000000000000007
                },
                {
                    "name": "C#3",
                    "midi": 49,
                    "time": 19.20000000000001,
                    "velocity": 0.7874015748031497,
                    "duration": 0.9000000000000057
                },
                {
                    "name": "A2",
                    "midi": 45,
                    "time": 20.100000000000016,
                    "velocity": 0.7874015748031497,
                    "duration": 0.14999999999999858
                },
                {
                    "name": "B2",
                    "midi": 47,
                    "time": 20.250000000000014,
                    "velocity": 0.7874015748031497,
                    "duration": 0.14999999999999858
                },
                {
                    "name": "C#3",
                    "midi": 49,
                    "time": 20.400000000000013,
                    "velocity": 0.7874015748031497,
                    "duration": 0.3000000000000007
                },
                {
                    "name": "D3",
                    "midi": 50,
                    "time": 20.700000000000014,
                    "velocity": 0.7874015748031497,
                    "duration": 0.3000000000000007
                },
                {
                    "name": "E3",
                    "midi": 52,
                    "time": 21.000000000000014,
                    "velocity": 0.7874015748031497,
                    "duration": 0.3000000000000007
                },
                {
                    "name": "F#3",
                    "midi": 54,
                    "time": 21.300000000000015,
                    "velocity": 0.7874015748031497,
                    "duration": 0.3000000000000007
                },
                {
                    "name": "G3",
                    "midi": 55,
                    "time": 21.600000000000016,
                    "velocity": 0.7874015748031497,
                    "duration": 0.3000000000000007
                },
                {
                    "name": "C#4",
                    "midi": 61,
                    "time": 21.900000000000016,
                    "velocity": 0.7874015748031497,
                    "duration": 0.3000000000000007
                },
                {
                    "name": "D4",
                    "midi": 62,
                    "time": 22.200000000000017,
                    "velocity": 0.7874015748031497,
                    "duration": 0.3000000000000007
                },
                {
                    "name": "C#4",
                    "midi": 61,
                    "time": 22.500000000000018,
                    "velocity": 0.7874015748031497,
                    "duration": 0.3000000000000007
                },
                {
                    "name": "D4",
                    "midi": 62,
                    "time": 22.80000000000002,
                    "velocity": 0.7874015748031497,
                    "duration": 0.3000000000000007
                },
                {
                    "name": "A3",
                    "midi": 57,
                    "time": 23.10000000000002,
                    "velocity": 0.7874015748031497,
                    "duration": 0.3000000000000007
                },
                {
                    "name": "G3",
                    "midi": 55,
                    "time": 23.40000000000002,
                    "velocity": 0.7874015748031497,
                    "duration": 0.3000000000000007
                },
                {
                    "name": "F#3",
                    "midi": 54,
                    "time": 23.70000000000002,
                    "velocity": 0.7874015748031497,
                    "duration": 0.3000000000000007
                },
                {
                    "name": "E3",
                    "midi": 52,
                    "time": 24.00000000000002,
                    "velocity": 0.7874015748031497,
                    "duration": 0.3000000000000007
                },
                {
                    "name": "G3",
                    "midi": 55,
                    "time": 24.300000000000022,
                    "velocity": 0.7874015748031497,
                    "duration": 0.3000000000000007
                },
                {
                    "name": "F#3",
                    "midi": 54,
                    "time": 24.600000000000023,
                    "velocity": 0.7874015748031497,
                    "duration": 0.3000000000000007
                },
                {
                    "name": "D3",
                    "midi": 50,
                    "time": 24.900000000000023,
                    "velocity": 0.7874015748031497,
                    "duration": 0.3000000000000007
                },
                {
                    "name": "A2",
                    "midi": 45,
                    "time": 25.200000000000024,
                    "velocity": 0.7874015748031497,
                    "duration": 0.3000000000000007
                },
                {
                    "name": "D3",
                    "midi": 50,
                    "time": 25.500000000000025,
                    "velocity": 0.7874015748031497,
                    "duration": 0.3000000000000007
                },
                {
                    "name": "E3",
                    "midi": 52,
                    "time": 25.800000000000026,
                    "velocity": 0.7874015748031497,
                    "duration": 0.3000000000000007
                },
                {
                    "name": "C#3",
                    "midi": 49,
                    "time": 26.100000000000026,
                    "velocity": 0.7874015748031497,
                    "duration": 0.3000000000000007
                },
                {
                    "name": "D3",
                    "midi": 50,
                    "time": 26.400000000000027,
                    "velocity": 0.7874015748031497,
                    "duration": 1.1999999999999993
                },
                {
                    "name": "D2",
                    "midi": 38,
                    "time": 27.600000000000026,
                    "velocity": 0.7874015748031497,
                    "duration": 1.1999999999999993
                },
                {
                    "name": "B3",
                    "midi": 59,
                    "time": 28.800000000000026,
                    "velocity": 0.7874015748031497,
                    "duration": 1.1999999999999993
                },
                {
                    "name": "C4",
                    "midi": 60,
                    "time": 30.000000000000025,
                    "velocity": 0.7874015748031497,
                    "duration": 1.8000000000000007
                },
                {
                    "name": "B3",
                    "midi": 59,
                    "time": 31.800000000000026,
                    "velocity": 0.7874015748031497,
                    "duration": 0.6000000000000014
                },
                {
                    "name": "F#3",
                    "midi": 54,
                    "time": 32.40000000000003,
                    "velocity": 0.7874015748031497,
                    "duration": 0.29999999999999716
                },
                {
                    "name": "A3",
                    "midi": 57,
                    "time": 32.700000000000024,
                    "velocity": 0.7874015748031497,
                    "duration": 0.29999999999999716
                },
                {
                    "name": "B3",
                    "midi": 59,
                    "time": 33.00000000000002,
                    "velocity": 0.7874015748031497,
                    "duration": 0.29999999999999716
                },
                {
                    "name": "C4",
                    "midi": 60,
                    "time": 33.30000000000002,
                    "velocity": 0.7874015748031497,
                    "duration": 0.29999999999999716
                },
                {
                    "name": "B3",
                    "midi": 59,
                    "time": 33.600000000000016,
                    "velocity": 0.7874015748031497,
                    "duration": 1.200000000000017
                },
                {
                    "name": "A3",
                    "midi": 57,
                    "time": 34.80000000000003,
                    "velocity": 0.7874015748031497,
                    "duration": 0.6000000000000014
                },
                {
                    "name": "G3",
                    "midi": 55,
                    "time": 35.400000000000034,
                    "velocity": 0.7874015748031497,
                    "duration": 0.6000000000000014
                },
                {
                    "name": "D4",
                    "midi": 62,
                    "time": 36.000000000000036,
                    "velocity": 0.7874015748031497,
                    "duration": 0.6000000000000014
                },
                {
                    "name": "F3",
                    "midi": 53,
                    "time": 36.60000000000004,
                    "velocity": 0.7874015748031497,
                    "duration": 0.6000000000000014
                },
                {
                    "name": "E3",
                    "midi": 52,
                    "time": 37.20000000000004,
                    "velocity": 0.7874015748031497,
                    "duration": 0.8999999999999986
                },
                {
                    "name": "D3",
                    "midi": 50,
                    "time": 38.10000000000004,
                    "velocity": 0.7874015748031497,
                    "duration": 0.10000000000000142
                },
                {
                    "name": "C3",
                    "midi": 48,
                    "time": 38.20000000000004,
                    "velocity": 0.7874015748031497,
                    "duration": 0.10000000000000142
                },
                {
                    "name": "B2",
                    "midi": 47,
                    "time": 38.30000000000004,
                    "velocity": 0.7874015748031497,
                    "duration": 0.10000000000000142
                },
                {
                    "name": "C3",
                    "midi": 48,
                    "time": 38.40000000000004,
                    "velocity": 0.7874015748031497,
                    "duration": 0.6000000000000014
                },
                {
                    "name": "E3",
                    "midi": 52,
                    "time": 39.00000000000004,
                    "velocity": 0.7874015748031497,
                    "duration": 0.6000000000000014
                },
                {
                    "name": "F#3",
                    "midi": 54,
                    "time": 39.600000000000044,
                    "velocity": 0.7874015748031497,
                    "duration": 0.29999999999999716
                },
                {
                    "name": "C4",
                    "midi": 60,
                    "time": 39.90000000000004,
                    "velocity": 0.7874015748031497,
                    "duration": 0.29999999999999716
                },
                {
                    "name": "B3",
                    "midi": 59,
                    "time": 40.20000000000004,
                    "velocity": 0.7874015748031497,
                    "duration": 0.29999999999999716
                },
                {
                    "name": "G3",
                    "midi": 55,
                    "time": 40.500000000000036,
                    "velocity": 0.7874015748031497,
                    "duration": 0.29999999999999716
                },
                {
                    "name": "F#3",
                    "midi": 54,
                    "time": 40.80000000000003,
                    "velocity": 0.7874015748031497,
                    "duration": 1.1999999999999957
                },
                {
                    "name": "E3",
                    "midi": 52,
                    "time": 42.00000000000003,
                    "velocity": 0.7874015748031497,
                    "duration": 0.6000000000000014
                },
                {
                    "name": "D3",
                    "midi": 50,
                    "time": 42.60000000000003,
                    "velocity": 0.7874015748031497,
                    "duration": 0.6000000000000014
                },
                {
                    "name": "A3",
                    "midi": 57,
                    "time": 43.20000000000003,
                    "velocity": 0.7874015748031497,
                    "duration": 0.29999999999999716
                },
                {
                    "name": "F#3",
                    "midi": 54,
                    "time": 43.50000000000003,
                    "velocity": 0.7874015748031497,
                    "duration": 0.29999999999999716
                },
                {
                    "name": "D3",
                    "midi": 50,
                    "time": 43.800000000000026,
                    "velocity": 0.7874015748031497,
                    "duration": 0.29999999999999716
                },
                {
                    "name": "C3",
                    "midi": 48,
                    "time": 44.10000000000002,
                    "velocity": 0.7874015748031497,
                    "duration": 0.29999999999999716
                },
                {
                    "name": "B2",
                    "midi": 47,
                    "time": 44.40000000000002,
                    "velocity": 0.7874015748031497,
                    "duration": 0.8999999999999986
                },
                {
                    "name": "G2",
                    "midi": 43,
                    "time": 45.30000000000002,
                    "velocity": 0.7874015748031497,
                    "duration": 0.29999999999999716
                },
                {
                    "name": "B2",
                    "midi": 47,
                    "time": 45.600000000000016,
                    "velocity": 0.7874015748031497,
                    "duration": 0.29999999999999716
                },
                {
                    "name": "D3",
                    "midi": 50,
                    "time": 45.90000000000001,
                    "velocity": 0.7874015748031497,
                    "duration": 0.29999999999999716
                },
                {
                    "name": "G3",
                    "midi": 55,
                    "time": 46.20000000000001,
                    "velocity": 0.7874015748031497,
                    "duration": 0.29999999999999716
                },
                {
                    "name": "A3",
                    "midi": 57,
                    "time": 46.50000000000001,
                    "velocity": 0.7874015748031497,
                    "duration": 0.29999999999999716
                },
                {
                    "name": "B3",
                    "midi": 59,
                    "time": 46.800000000000004,
                    "velocity": 0.7874015748031497,
                    "duration": 0.29999999999999716
                },
                {
                    "name": "G3",
                    "midi": 55,
                    "time": 47.1,
                    "velocity": 0.7874015748031497,
                    "duration": 0.29999999999999716
                },
                {
                    "name": "E3",
                    "midi": 52,
                    "time": 47.4,
                    "velocity": 0.7874015748031497,
                    "duration": 0.29999999999999716
                },
                {
                    "name": "D3",
                    "midi": 50,
                    "time": 47.699999999999996,
                    "velocity": 0.7874015748031497,
                    "duration": 0.29999999999999716
                },
                {
                    "name": "C#3",
                    "midi": 49,
                    "time": 47.99999999999999,
                    "velocity": 0.7874015748031497,
                    "duration": 0.9000000000000057
                },
                {
                    "name": "A2",
                    "midi": 45,
                    "time": 48.9,
                    "velocity": 0.7874015748031497,
                    "duration": 0.14999999999999858
                },
                {
                    "name": "B2",
                    "midi": 47,
                    "time": 49.05,
                    "velocity": 0.7874015748031497,
                    "duration": 0.14999999999999858
                },
                {
                    "name": "C#3",
                    "midi": 49,
                    "time": 49.199999999999996,
                    "velocity": 0.7874015748031497,
                    "duration": 0.29999999999999716
                },
                {
                    "name": "D3",
                    "midi": 50,
                    "time": 49.49999999999999,
                    "velocity": 0.7874015748031497,
                    "duration": 0.29999999999999716
                },
                {
                    "name": "E3",
                    "midi": 52,
                    "time": 49.79999999999999,
                    "velocity": 0.7874015748031497,
                    "duration": 0.29999999999999716
                },
                {
                    "name": "F#3",
                    "midi": 54,
                    "time": 50.09999999999999,
                    "velocity": 0.7874015748031497,
                    "duration": 0.29999999999999716
                },
                {
                    "name": "G3",
                    "midi": 55,
                    "time": 50.399999999999984,
                    "velocity": 0.7874015748031497,
                    "duration": 0.29999999999999716
                },
                {
                    "name": "C#4",
                    "midi": 61,
                    "time": 50.69999999999998,
                    "velocity": 0.7874015748031497,
                    "duration": 0.29999999999999716
                },
                {
                    "name": "D4",
                    "midi": 62,
                    "time": 50.99999999999998,
                    "velocity": 0.7874015748031497,
                    "duration": 0.29999999999999716
                },
                {
                    "name": "C#4",
                    "midi": 61,
                    "time": 51.299999999999976,
                    "velocity": 0.7874015748031497,
                    "duration": 0.29999999999999716
                },
                {
                    "name": "D4",
                    "midi": 62,
                    "time": 51.59999999999997,
                    "velocity": 0.7874015748031497,
                    "duration": 0.29999999999999716
                },
                {
                    "name": "A3",
                    "midi": 57,
                    "time": 51.89999999999997,
                    "velocity": 0.7874015748031497,
                    "duration": 0.29999999999999716
                },
                {
                    "name": "G3",
                    "midi": 55,
                    "time": 52.19999999999997,
                    "velocity": 0.7874015748031497,
                    "duration": 0.29999999999999716
                },
                {
                    "name": "F#3",
                    "midi": 54,
                    "time": 52.499999999999964,
                    "velocity": 0.7874015748031497,
                    "duration": 0.29999999999999716
                },
                {
                    "name": "E3",
                    "midi": 52,
                    "time": 52.79999999999996,
                    "velocity": 0.7874015748031497,
                    "duration": 0.29999999999999716
                },
                {
                    "name": "G3",
                    "midi": 55,
                    "time": 53.09999999999996,
                    "velocity": 0.7874015748031497,
                    "duration": 0.29999999999999716
                },
                {
                    "name": "F#3",
                    "midi": 54,
                    "time": 53.399999999999956,
                    "velocity": 0.7874015748031497,
                    "duration": 0.29999999999999716
                },
                {
                    "name": "D3",
                    "midi": 50,
                    "time": 53.69999999999995,
                    "velocity": 0.7874015748031497,
                    "duration": 0.29999999999999716
                },
                {
                    "name": "A2",
                    "midi": 45,
                    "time": 53.99999999999995,
                    "velocity": 0.7874015748031497,
                    "duration": 0.29999999999999716
                },
                {
                    "name": "D3",
                    "midi": 50,
                    "time": 54.29999999999995,
                    "velocity": 0.7874015748031497,
                    "duration": 0.29999999999999716
                },
                {
                    "name": "E3",
                    "midi": 52,
                    "time": 54.599999999999945,
                    "velocity": 0.7874015748031497,
                    "duration": 0.29999999999999716
                },
                {
                    "name": "C#3",
                    "midi": 49,
                    "time": 54.89999999999994,
                    "velocity": 0.7874015748031497,
                    "duration": 0.29999999999999716
                },
                {
                    "name": "D3",
                    "midi": 50,
                    "time": 55.19999999999994,
                    "velocity": 0.7874015748031497,
                    "duration": 1.2000000000000028
                },
                {
                    "name": "D2",
                    "midi": 38,
                    "time": 56.39999999999994,
                    "velocity": 0.7874015748031497,
                    "duration": 1.2000000000000028
                },
                {
                    "name": "F#3",
                    "midi": 54,
                    "time": 57.599999999999945,
                    "velocity": 0.7874015748031497,
                    "duration": 0.6000000000000014
                },
                {
                    "name": "E3",
                    "midi": 52,
                    "time": 58.199999999999946,
                    "velocity": 0.7874015748031497,
                    "duration": 0.29999999999999716
                },
                {
                    "name": "D3",
                    "midi": 50,
                    "time": 58.49999999999994,
                    "velocity": 0.7874015748031497,
                    "duration": 0.29999999999999716
                },
                {
                    "name": "C4",
                    "midi": 60,
                    "time": 58.79999999999994,
                    "velocity": 0.7874015748031497,
                    "duration": 1.7999999999999972
                },
                {
                    "name": "B3",
                    "midi": 59,
                    "time": 60.59999999999994,
                    "velocity": 0.7874015748031497,
                    "duration": 0.29999999999999716
                },
                {
                    "name": "A3",
                    "midi": 57,
                    "time": 60.899999999999935,
                    "velocity": 0.7874015748031497,
                    "duration": 0.29999999999999716
                },
                {
                    "name": "B3",
                    "midi": 59,
                    "time": 61.19999999999993,
                    "velocity": 0.7874015748031497,
                    "duration": 0.29999999999999716
                },
                {
                    "name": "F#3",
                    "midi": 54,
                    "time": 61.49999999999993,
                    "velocity": 0.7874015748031497,
                    "duration": 0.29999999999999716
                },
                {
                    "name": "G3",
                    "midi": 55,
                    "time": 61.799999999999926,
                    "velocity": 0.7874015748031497,
                    "duration": 0.29999999999999716
                },
                {
                    "name": "E3",
                    "midi": 52,
                    "time": 62.09999999999992,
                    "velocity": 0.7874015748031497,
                    "duration": 0.29999999999999716
                },
                {
                    "name": "D#3",
                    "midi": 51,
                    "time": 62.39999999999992,
                    "velocity": 0.7874015748031497,
                    "duration": 0.9000000000000057
                },
                {
                    "name": "E3",
                    "midi": 52,
                    "time": 63.299999999999926,
                    "velocity": 0.7874015748031497,
                    "duration": 0.29999999999999716
                },
                {
                    "name": "F#3",
                    "midi": 54,
                    "time": 63.59999999999992,
                    "velocity": 0.7874015748031497,
                    "duration": 0.29999999999999716
                },
                {
                    "name": "G3",
                    "midi": 55,
                    "time": 63.89999999999992,
                    "velocity": 0.7874015748031497,
                    "duration": 0.29999999999999716
                },
                {
                    "name": "A3",
                    "midi": 57,
                    "time": 64.19999999999992,
                    "velocity": 0.7874015748031497,
                    "duration": 0.29999999999999716
                },
                {
                    "name": "B3",
                    "midi": 59,
                    "time": 64.49999999999991,
                    "velocity": 0.7874015748031497,
                    "duration": 0.29999999999999716
                },
                {
                    "name": "D#3",
                    "midi": 51,
                    "time": 64.79999999999991,
                    "velocity": 0.7874015748031497,
                    "duration": 0.29999999999999716
                },
                {
                    "name": "A3",
                    "midi": 57,
                    "time": 65.09999999999991,
                    "velocity": 0.7874015748031497,
                    "duration": 0.29999999999999716
                },
                {
                    "name": "B3",
                    "midi": 59,
                    "time": 65.3999999999999,
                    "velocity": 0.7874015748031497,
                    "duration": 0.29999999999999716
                },
                {
                    "name": "C4",
                    "midi": 60,
                    "time": 65.6999999999999,
                    "velocity": 0.7874015748031497,
                    "duration": 0.29999999999999716
                },
                {
                    "name": "B3",
                    "midi": 59,
                    "time": 65.9999999999999,
                    "velocity": 0.7874015748031497,
                    "duration": 0.5999999999999801
                },
                {
                    "name": "A3",
                    "midi": 57,
                    "time": 66.59999999999988,
                    "velocity": 0.7874015748031497,
                    "duration": 0.29999999999999716
                },
                {
                    "name": "G3",
                    "midi": 55,
                    "time": 66.89999999999988,
                    "velocity": 0.7874015748031497,
                    "duration": 0.29999999999999716
                },
                {
                    "name": "F#3",
                    "midi": 54,
                    "time": 67.19999999999987,
                    "velocity": 0.7874015748031497,
                    "duration": 0.29999999999999716
                },
                {
                    "name": "E3",
                    "midi": 52,
                    "time": 67.49999999999987,
                    "velocity": 0.7874015748031497,
                    "duration": 0.29999999999999716
                },
                {
                    "name": "A3",
                    "midi": 57,
                    "time": 67.79999999999987,
                    "velocity": 0.7874015748031497,
                    "duration": 0.29999999999999716
                },
                {
                    "name": "F#3",
                    "midi": 54,
                    "time": 68.09999999999987,
                    "velocity": 0.7874015748031497,
                    "duration": 0.29999999999999716
                },
                {
                    "name": "G3",
                    "midi": 55,
                    "time": 68.39999999999986,
                    "velocity": 0.7874015748031497,
                    "duration": 0.29999999999999716
                },
                {
                    "name": "E3",
                    "midi": 52,
                    "time": 68.69999999999986,
                    "velocity": 0.7874015748031497,
                    "duration": 0.29999999999999716
                },
                {
                    "name": "F#3",
                    "midi": 54,
                    "time": 68.99999999999986,
                    "velocity": 0.7874015748031497,
                    "duration": 0.29999999999999716
                },
                {
                    "name": "D#3",
                    "midi": 51,
                    "time": 69.29999999999986,
                    "velocity": 0.7874015748031497,
                    "duration": 0.29999999999999716
                },
                {
                    "name": "E3",
                    "midi": 52,
                    "time": 69.59999999999985,
                    "velocity": 0.7874015748031497,
                    "duration": 1.2000000000000028
                },
                {
                    "name": "E2",
                    "midi": 40,
                    "time": 70.79999999999986,
                    "velocity": 0.7874015748031497,
                    "duration": 1.2000000000000028
                },
                {
                    "name": "D3",
                    "midi": 50,
                    "time": 71.99999999999986,
                    "velocity": 0.7874015748031497,
                    "duration": 0.9000000000000057
                },
                {
                    "name": "E3",
                    "midi": 52,
                    "time": 72.89999999999986,
                    "velocity": 0.7874015748031497,
                    "duration": 0.15000000000000568
                },
                {
                    "name": "F3",
                    "midi": 53,
                    "time": 73.04999999999987,
                    "velocity": 0.7874015748031497,
                    "duration": 0.15000000000000568
                },
                {
                    "name": "E3",
                    "midi": 52,
                    "time": 73.19999999999987,
                    "velocity": 0.7874015748031497,
                    "duration": 0.9000000000000057
                },
                {
                    "name": "F#3",
                    "midi": 54,
                    "time": 74.09999999999988,
                    "velocity": 0.7874015748031497,
                    "duration": 0.29999999999999716
                },
                {
                    "name": "G3",
                    "midi": 55,
                    "time": 74.39999999999988,
                    "velocity": 0.7874015748031497,
                    "duration": 0.29999999999999716
                },
                {
                    "name": "A3",
                    "midi": 57,
                    "time": 74.69999999999987,
                    "velocity": 0.7874015748031497,
                    "duration": 0.29999999999999716
                },
                {
                    "name": "B3",
                    "midi": 59,
                    "time": 74.99999999999987,
                    "velocity": 0.7874015748031497,
                    "duration": 0.29999999999999716
                },
                {
                    "name": "C4",
                    "midi": 60,
                    "time": 75.29999999999987,
                    "velocity": 0.7874015748031497,
                    "duration": 0.29999999999999716
                },
                {
                    "name": "G#2",
                    "midi": 44,
                    "time": 75.59999999999987,
                    "velocity": 0.7874015748031497,
                    "duration": 0.29999999999999716
                },
                {
                    "name": "D4",
                    "midi": 62,
                    "time": 75.89999999999986,
                    "velocity": 0.7874015748031497,
                    "duration": 0.29999999999999716
                },
                {
                    "name": "C4",
                    "midi": 60,
                    "time": 76.19999999999986,
                    "velocity": 0.7874015748031497,
                    "duration": 0.29999999999999716
                },
                {
                    "name": "B3",
                    "midi": 59,
                    "time": 76.49999999999986,
                    "velocity": 0.7874015748031497,
                    "duration": 0.29999999999999716
                },
                {
                    "name": "C4",
                    "midi": 60,
                    "time": 76.79999999999986,
                    "velocity": 0.7874015748031497,
                    "duration": 0.9000000000000057
                },
                {
                    "name": "B3",
                    "midi": 59,
                    "time": 77.69999999999986,
                    "velocity": 0.7874015748031497,
                    "duration": 0.29999999999999716
                },
                {
                    "name": "A3",
                    "midi": 57,
                    "time": 77.99999999999986,
                    "velocity": 0.7874015748031497,
                    "duration": 0.29999999999999716
                },
                {
                    "name": "G3",
                    "midi": 55,
                    "time": 78.29999999999986,
                    "velocity": 0.7874015748031497,
                    "duration": 0.29999999999999716
                },
                {
                    "name": "F#3",
                    "midi": 54,
                    "time": 78.59999999999985,
                    "velocity": 0.7874015748031497,
                    "duration": 0.29999999999999716
                },
                {
                    "name": "E3",
                    "midi": 52,
                    "time": 78.89999999999985,
                    "velocity": 0.7874015748031497,
                    "duration": 0.29999999999999716
                },
                {
                    "name": "D3",
                    "midi": 50,
                    "time": 79.19999999999985,
                    "velocity": 0.7874015748031497,
                    "duration": 1.5
                },
                {
                    "name": "E3",
                    "midi": 52,
                    "time": 80.69999999999985,
                    "velocity": 0.7874015748031497,
                    "duration": 0.29999999999999716
                },
                {
                    "name": "F#3",
                    "midi": 54,
                    "time": 80.99999999999984,
                    "velocity": 0.7874015748031497,
                    "duration": 0.29999999999999716
                },
                {
                    "name": "G3",
                    "midi": 55,
                    "time": 81.29999999999984,
                    "velocity": 0.7874015748031497,
                    "duration": 0.29999999999999716
                },
                {
                    "name": "A3",
                    "midi": 57,
                    "time": 81.59999999999984,
                    "velocity": 0.7874015748031497,
                    "duration": 0.29999999999999716
                },
                {
                    "name": "C4",
                    "midi": 60,
                    "time": 81.89999999999984,
                    "velocity": 0.7874015748031497,
                    "duration": 0.29999999999999716
                },
                {
                    "name": "B3",
                    "midi": 59,
                    "time": 82.19999999999983,
                    "velocity": 0.7874015748031497,
                    "duration": 0.29999999999999716
                },
                {
                    "name": "G3",
                    "midi": 55,
                    "time": 82.49999999999983,
                    "velocity": 0.7874015748031497,
                    "duration": 0.29999999999999716
                },
                {
                    "name": "D3",
                    "midi": 50,
                    "time": 82.79999999999983,
                    "velocity": 0.7874015748031497,
                    "duration": 0.29999999999999716
                },
                {
                    "name": "G3",
                    "midi": 55,
                    "time": 83.09999999999982,
                    "velocity": 0.7874015748031497,
                    "duration": 0.29999999999999716
                },
                {
                    "name": "A3",
                    "midi": 57,
                    "time": 83.39999999999982,
                    "velocity": 0.7874015748031497,
                    "duration": 0.29999999999999716
                },
                {
                    "name": "F#3",
                    "midi": 54,
                    "time": 83.69999999999982,
                    "velocity": 0.7874015748031497,
                    "duration": 0.29999999999999716
                },
                {
                    "name": "G3",
                    "midi": 55,
                    "time": 83.99999999999982,
                    "velocity": 0.7874015748031497,
                    "duration": 1.2000000000000028
                },
                {
                    "name": "G2",
                    "midi": 43,
                    "time": 85.19999999999982,
                    "velocity": 0.7874015748031497,
                    "duration": 1.2000000000000028
                },
                {
                    "name": "F#3",
                    "midi": 54,
                    "time": 86.39999999999982,
                    "velocity": 0.7874015748031497,
                    "duration": 0.5999999999999943
                },
                {
                    "name": "E3",
                    "midi": 52,
                    "time": 86.99999999999982,
                    "velocity": 0.7874015748031497,
                    "duration": 0.29999999999999716
                },
                {
                    "name": "D3",
                    "midi": 50,
                    "time": 87.29999999999981,
                    "velocity": 0.7874015748031497,
                    "duration": 0.29999999999999716
                },
                {
                    "name": "C4",
                    "midi": 60,
                    "time": 87.59999999999981,
                    "velocity": 0.7874015748031497,
                    "duration": 1.7999999999999972
                },
                {
                    "name": "B3",
                    "midi": 59,
                    "time": 89.3999999999998,
                    "velocity": 0.7874015748031497,
                    "duration": 0.29999999999999716
                },
                {
                    "name": "A3",
                    "midi": 57,
                    "time": 89.6999999999998,
                    "velocity": 0.7874015748031497,
                    "duration": 0.29999999999999716
                },
                {
                    "name": "B3",
                    "midi": 59,
                    "time": 89.9999999999998,
                    "velocity": 0.7874015748031497,
                    "duration": 0.29999999999999716
                },
                {
                    "name": "F#3",
                    "midi": 54,
                    "time": 90.2999999999998,
                    "velocity": 0.7874015748031497,
                    "duration": 0.29999999999999716
                },
                {
                    "name": "G3",
                    "midi": 55,
                    "time": 90.5999999999998,
                    "velocity": 0.7874015748031497,
                    "duration": 0.29999999999999716
                },
                {
                    "name": "E3",
                    "midi": 52,
                    "time": 90.89999999999979,
                    "velocity": 0.7874015748031497,
                    "duration": 0.29999999999999716
                },
                {
                    "name": "D#3",
                    "midi": 51,
                    "time": 91.19999999999979,
                    "velocity": 0.7874015748031497,
                    "duration": 0.8999999999999773
                },
                {
                    "name": "E3",
                    "midi": 52,
                    "time": 92.09999999999977,
                    "velocity": 0.7874015748031497,
                    "duration": 0.29999999999999716
                },
                {
                    "name": "F#3",
                    "midi": 54,
                    "time": 92.39999999999976,
                    "velocity": 0.7874015748031497,
                    "duration": 0.29999999999999716
                },
                {
                    "name": "G3",
                    "midi": 55,
                    "time": 92.69999999999976,
                    "velocity": 0.7874015748031497,
                    "duration": 0.29999999999999716
                },
                {
                    "name": "A3",
                    "midi": 57,
                    "time": 92.99999999999976,
                    "velocity": 0.7874015748031497,
                    "duration": 0.29999999999999716
                },
                {
                    "name": "B3",
                    "midi": 59,
                    "time": 93.29999999999976,
                    "velocity": 0.7874015748031497,
                    "duration": 0.29999999999999716
                },
                {
                    "name": "D#3",
                    "midi": 51,
                    "time": 93.59999999999975,
                    "velocity": 0.7874015748031497,
                    "duration": 0.29999999999999716
                },
                {
                    "name": "A3",
                    "midi": 57,
                    "time": 93.89999999999975,
                    "velocity": 0.7874015748031497,
                    "duration": 0.29999999999999716
                },
                {
                    "name": "B3",
                    "midi": 59,
                    "time": 94.19999999999975,
                    "velocity": 0.7874015748031497,
                    "duration": 0.29999999999999716
                },
                {
                    "name": "C4",
                    "midi": 60,
                    "time": 94.49999999999974,
                    "velocity": 0.7874015748031497,
                    "duration": 0.29999999999999716
                },
                {
                    "name": "B3",
                    "midi": 59,
                    "time": 94.79999999999974,
                    "velocity": 0.7874015748031497,
                    "duration": 0.5999999999999801
                },
                {
                    "name": "A3",
                    "midi": 57,
                    "time": 95.39999999999972,
                    "velocity": 0.7874015748031497,
                    "duration": 0.29999999999999716
                },
                {
                    "name": "G3",
                    "midi": 55,
                    "time": 95.69999999999972,
                    "velocity": 0.7874015748031497,
                    "duration": 0.29999999999999716
                },
                {
                    "name": "F#3",
                    "midi": 54,
                    "time": 95.99999999999972,
                    "velocity": 0.7874015748031497,
                    "duration": 0.29999999999999716
                },
                {
                    "name": "E3",
                    "midi": 52,
                    "time": 96.29999999999971,
                    "velocity": 0.7874015748031497,
                    "duration": 0.29999999999999716
                },
                {
                    "name": "A3",
                    "midi": 57,
                    "time": 96.59999999999971,
                    "velocity": 0.7874015748031497,
                    "duration": 0.29999999999999716
                },
                {
                    "name": "F#3",
                    "midi": 54,
                    "time": 96.89999999999971,
                    "velocity": 0.7874015748031497,
                    "duration": 0.29999999999999716
                },
                {
                    "name": "G3",
                    "midi": 55,
                    "time": 97.1999999999997,
                    "velocity": 0.7874015748031497,
                    "duration": 0.29999999999999716
                },
                {
                    "name": "E3",
                    "midi": 52,
                    "time": 97.4999999999997,
                    "velocity": 0.7874015748031497,
                    "duration": 0.29999999999999716
                },
                {
                    "name": "F#3",
                    "midi": 54,
                    "time": 97.7999999999997,
                    "velocity": 0.7874015748031497,
                    "duration": 0.29999999999999716
                },
                {
                    "name": "D#3",
                    "midi": 51,
                    "time": 98.0999999999997,
                    "velocity": 0.7874015748031497,
                    "duration": 0.29999999999999716
                },
                {
                    "name": "E3",
                    "midi": 52,
                    "time": 98.3999999999997,
                    "velocity": 0.7874015748031497,
                    "duration": 1.2000000000000028
                },
                {
                    "name": "E2",
                    "midi": 40,
                    "time": 99.5999999999997,
                    "velocity": 0.7874015748031497,
                    "duration": 1.2000000000000028
                },
                {
                    "name": "D3",
                    "midi": 50,
                    "time": 100.7999999999997,
                    "velocity": 0.7874015748031497,
                    "duration": 0.9000000000000057
                },
                {
                    "name": "E3",
                    "midi": 52,
                    "time": 101.6999999999997,
                    "velocity": 0.7874015748031497,
                    "duration": 0.15000000000000568
                },
                {
                    "name": "F3",
                    "midi": 53,
                    "time": 101.84999999999971,
                    "velocity": 0.7874015748031497,
                    "duration": 0.15000000000000568
                },
                {
                    "name": "E3",
                    "midi": 52,
                    "time": 101.99999999999972,
                    "velocity": 0.7874015748031497,
                    "duration": 0.9000000000000057
                },
                {
                    "name": "F#3",
                    "midi": 54,
                    "time": 102.89999999999972,
                    "velocity": 0.7874015748031497,
                    "duration": 0.29999999999999716
                },
                {
                    "name": "G3",
                    "midi": 55,
                    "time": 103.19999999999972,
                    "velocity": 0.7874015748031497,
                    "duration": 0.29999999999999716
                },
                {
                    "name": "A3",
                    "midi": 57,
                    "time": 103.49999999999972,
                    "velocity": 0.7874015748031497,
                    "duration": 0.29999999999999716
                },
                {
                    "name": "B3",
                    "midi": 59,
                    "time": 103.79999999999971,
                    "velocity": 0.7874015748031497,
                    "duration": 0.29999999999999716
                },
                {
                    "name": "C4",
                    "midi": 60,
                    "time": 104.09999999999971,
                    "velocity": 0.7874015748031497,
                    "duration": 0.29999999999999716
                },
                {
                    "name": "G#2",
                    "midi": 44,
                    "time": 104.39999999999971,
                    "velocity": 0.7874015748031497,
                    "duration": 0.29999999999999716
                },
                {
                    "name": "D4",
                    "midi": 62,
                    "time": 104.6999999999997,
                    "velocity": 0.7874015748031497,
                    "duration": 0.29999999999999716
                },
                {
                    "name": "C4",
                    "midi": 60,
                    "time": 104.9999999999997,
                    "velocity": 0.7874015748031497,
                    "duration": 0.29999999999999716
                },
                {
                    "name": "B3",
                    "midi": 59,
                    "time": 105.2999999999997,
                    "velocity": 0.7874015748031497,
                    "duration": 0.29999999999999716
                },
                {
                    "name": "C4",
                    "midi": 60,
                    "time": 105.5999999999997,
                    "velocity": 0.7874015748031497,
                    "duration": 0.9000000000000057
                },
                {
                    "name": "B3",
                    "midi": 59,
                    "time": 106.4999999999997,
                    "velocity": 0.7874015748031497,
                    "duration": 0.29999999999999716
                },
                {
                    "name": "A3",
                    "midi": 57,
                    "time": 106.7999999999997,
                    "velocity": 0.7874015748031497,
                    "duration": 0.29999999999999716
                },
                {
                    "name": "G3",
                    "midi": 55,
                    "time": 107.0999999999997,
                    "velocity": 0.7874015748031497,
                    "duration": 0.29999999999999716
                },
                {
                    "name": "F#3",
                    "midi": 54,
                    "time": 107.3999999999997,
                    "velocity": 0.7874015748031497,
                    "duration": 0.29999999999999716
                },
                {
                    "name": "E3",
                    "midi": 52,
                    "time": 107.69999999999969,
                    "velocity": 0.7874015748031497,
                    "duration": 0.29999999999999716
                },
                {
                    "name": "D3",
                    "midi": 50,
                    "time": 107.99999999999969,
                    "velocity": 0.7874015748031497,
                    "duration": 1.5
                },
                {
                    "name": "E3",
                    "midi": 52,
                    "time": 109.49999999999969,
                    "velocity": 0.7874015748031497,
                    "duration": 0.29999999999999716
                },
                {
                    "name": "F#3",
                    "midi": 54,
                    "time": 109.79999999999968,
                    "velocity": 0.7874015748031497,
                    "duration": 0.29999999999999716
                },
                {
                    "name": "G3",
                    "midi": 55,
                    "time": 110.09999999999968,
                    "velocity": 0.7874015748031497,
                    "duration": 0.29999999999999716
                },
                {
                    "name": "A3",
                    "midi": 57,
                    "time": 110.39999999999968,
                    "velocity": 0.7874015748031497,
                    "duration": 0.29999999999999716
                },
                {
                    "name": "C4",
                    "midi": 60,
                    "time": 110.69999999999968,
                    "velocity": 0.7874015748031497,
                    "duration": 0.29999999999999716
                },
                {
                    "name": "B3",
                    "midi": 59,
                    "time": 110.99999999999967,
                    "velocity": 0.7874015748031497,
                    "duration": 0.29999999999999716
                },
                {
                    "name": "G3",
                    "midi": 55,
                    "time": 111.29999999999967,
                    "velocity": 0.7874015748031497,
                    "duration": 0.29999999999999716
                },
                {
                    "name": "D3",
                    "midi": 50,
                    "time": 111.59999999999967,
                    "velocity": 0.7874015748031497,
                    "duration": 0.29999999999999716
                },
                {
                    "name": "G3",
                    "midi": 55,
                    "time": 111.89999999999966,
                    "velocity": 0.7874015748031497,
                    "duration": 0.29999999999999716
                },
                {
                    "name": "A3",
                    "midi": 57,
                    "time": 112.19999999999966,
                    "velocity": 0.7874015748031497,
                    "duration": 0.29999999999999716
                },
                {
                    "name": "F#3",
                    "midi": 54,
                    "time": 112.49999999999966,
                    "velocity": 0.7874015748031497,
                    "duration": 0.29999999999999716
                },
                {
                    "name": "G3",
                    "midi": 55,
                    "time": 112.79999999999966,
                    "velocity": 0.7874015748031497,
                    "duration": 1.2000000000000028
                },
                {
                    "name": "G2",
                    "midi": 43,
                    "time": 113.99999999999966,
                    "velocity": 0.7874015748031497,
                    "duration": 1.2000000000000028
                }
            ],
            "controlChanges": {
                "7": [
                    {
                        "number": 7,
                        "time": 0,
                        "value": 0.7874015748031497
                    }
                ],
                "10": [
                    {
                        "number": 10,
                        "time": 0,
                        "value": 0.5433070866141733
                    }
                ]
            },
            "id": 1,
            "name": "Solo Cello",
            "instrumentNumber": 42,
            "instrument": "cello",
            "instrumentFamily": "strings",
            "channelNumber": 0,
            "isPercussion": false
        },
        {
            "startTime": 0,
            "duration": 109.5,
            "length": 26,
            "notes": [
                {
                    "name": "D3",
                    "midi": 50,
                    "time": 0,
                    "velocity": 0.7874015748031497,
                    "duration": 1.2
                },
                {
                    "name": "E3",
                    "midi": 52,
                    "time": 1.2,
                    "velocity": 0.7874015748031497,
                    "duration": 2.3999999999999995
                },
                {
                    "name": "D3",
                    "midi": 50,
                    "time": 4.8,
                    "velocity": 0.7874015748031497,
                    "duration": 1.2000000000000002
                },
                {
                    "name": "A2",
                    "midi": 45,
                    "time": 12,
                    "velocity": 0.7874015748031497,
                    "duration": 1.1999999999999993
                },
                {
                    "name": "D3",
                    "midi": 50,
                    "time": 28.799999999999997,
                    "velocity": 0.7874015748031497,
                    "duration": 1.1999999999999993
                },
                {
                    "name": "E3",
                    "midi": 52,
                    "time": 29.999999999999996,
                    "velocity": 0.7874015748031497,
                    "duration": 2.400000000000002
                },
                {
                    "name": "D3",
                    "midi": 50,
                    "time": 33.6,
                    "velocity": 0.7874015748031497,
                    "duration": 1.2000000000000028
                },
                {
                    "name": "A2",
                    "midi": 45,
                    "time": 40.800000000000004,
                    "velocity": 0.7874015748031497,
                    "duration": 1.2000000000000028
                },
                {
                    "name": "F#3",
                    "midi": 54,
                    "time": 58.80000000000001,
                    "velocity": 0.7874015748031497,
                    "duration": 1.7999999999999972
                },
                {
                    "name": "D3",
                    "midi": 50,
                    "time": 61.20000000000001,
                    "velocity": 0.7874015748031497,
                    "duration": 0.29999999999999716
                },
                {
                    "name": "B2",
                    "midi": 47,
                    "time": 72,
                    "velocity": 0.7874015748031497,
                    "duration": 0.9000000000000057
                },
                {
                    "name": "G2",
                    "midi": 43,
                    "time": 73.2,
                    "velocity": 0.7874015748031497,
                    "duration": 0.9000000000000057
                },
                {
                    "name": "E3",
                    "midi": 52,
                    "time": 76.80000000000001,
                    "velocity": 0.7874015748031497,
                    "duration": 0.9000000000000057
                },
                {
                    "name": "B2",
                    "midi": 47,
                    "time": 79.50000000000001,
                    "velocity": 0.7874015748031497,
                    "duration": 0.29999999999999716
                },
                {
                    "name": "C3",
                    "midi": 48,
                    "time": 79.80000000000001,
                    "velocity": 0.7874015748031497,
                    "duration": 0.29999999999999716
                },
                {
                    "name": "A2",
                    "midi": 45,
                    "time": 80.10000000000001,
                    "velocity": 0.7874015748031497,
                    "duration": 0.29999999999999716
                },
                {
                    "name": "B2",
                    "midi": 47,
                    "time": 80.4,
                    "velocity": 0.7874015748031497,
                    "duration": 0.29999999999999716
                },
                {
                    "name": "F#3",
                    "midi": 54,
                    "time": 87.60000000000001,
                    "velocity": 0.7874015748031497,
                    "duration": 1.7999999999999972
                },
                {
                    "name": "D3",
                    "midi": 50,
                    "time": 90,
                    "velocity": 0.7874015748031497,
                    "duration": 0.29999999999999716
                },
                {
                    "name": "B2",
                    "midi": 47,
                    "time": 100.8,
                    "velocity": 0.7874015748031497,
                    "duration": 0.9000000000000057
                },
                {
                    "name": "G2",
                    "midi": 43,
                    "time": 102,
                    "velocity": 0.7874015748031497,
                    "duration": 0.9000000000000057
                },
                {
                    "name": "E3",
                    "midi": 52,
                    "time": 105.60000000000001,
                    "velocity": 0.7874015748031497,
                    "duration": 0.9000000000000057
                },
                {
                    "name": "B2",
                    "midi": 47,
                    "time": 108.30000000000001,
                    "velocity": 0.7874015748031497,
                    "duration": 0.29999999999999716
                },
                {
                    "name": "C3",
                    "midi": 48,
                    "time": 108.60000000000001,
                    "velocity": 0.7874015748031497,
                    "duration": 0.29999999999999716
                },
                {
                    "name": "A2",
                    "midi": 45,
                    "time": 108.9,
                    "velocity": 0.7874015748031497,
                    "duration": 0.29999999999999716
                },
                {
                    "name": "B2",
                    "midi": 47,
                    "time": 109.2,
                    "velocity": 0.7874015748031497,
                    "duration": 0.29999999999999716
                }
            ],
            "controlChanges": {
                "7": [
                    {
                        "number": 7,
                        "time": 0,
                        "value": 0.7874015748031497
                    }
                ],
                "10": [
                    {
                        "number": 10,
                        "time": 0,
                        "value": 0.4645669291338583
                    }
                ]
            },
            "id": 2,
            "name": "--------------------------------------",
            "instrumentNumber": 42,
            "instrument": "cello",
            "instrumentFamily": "strings",
            "channelNumber": 1,
            "isPercussion": false
        },
        {
            "startTime": 0,
            "duration": 106.50000000000003,
            "length": 20,
            "notes": [
                {
                    "name": "G2",
                    "midi": 43,
                    "time": 0,
                    "velocity": 0.7874015748031497,
                    "duration": 1.2
                },
                {
                    "name": "G2",
                    "midi": 43,
                    "time": 1.2,
                    "velocity": 0.7874015748031497,
                    "duration": 2.3999999999999995
                },
                {
                    "name": "G2",
                    "midi": 43,
                    "time": 4.8,
                    "velocity": 0.7874015748031497,
                    "duration": 1.2000000000000002
                },
                {
                    "name": "D2",
                    "midi": 38,
                    "time": 12,
                    "velocity": 0.7874015748031497,
                    "duration": 1.1999999999999993
                },
                {
                    "name": "G2",
                    "midi": 43,
                    "time": 28.799999999999997,
                    "velocity": 0.7874015748031497,
                    "duration": 1.1999999999999993
                },
                {
                    "name": "G2",
                    "midi": 43,
                    "time": 29.999999999999996,
                    "velocity": 0.7874015748031497,
                    "duration": 2.400000000000002
                },
                {
                    "name": "G2",
                    "midi": 43,
                    "time": 33.6,
                    "velocity": 0.7874015748031497,
                    "duration": 1.2000000000000028
                },
                {
                    "name": "D2",
                    "midi": 38,
                    "time": 40.800000000000004,
                    "velocity": 0.7874015748031497,
                    "duration": 1.2000000000000028
                },
                {
                    "name": "A2",
                    "midi": 45,
                    "time": 57.60000000000001,
                    "velocity": 0.7874015748031497,
                    "duration": 0.6000000000000014
                },
                {
                    "name": "A2",
                    "midi": 45,
                    "time": 58.80000000000001,
                    "velocity": 0.7874015748031497,
                    "duration": 1.7999999999999972
                },
                {
                    "name": "G2",
                    "midi": 43,
                    "time": 61.20000000000001,
                    "velocity": 0.7874015748031497,
                    "duration": 0.29999999999999716
                },
                {
                    "name": "A2",
                    "midi": 45,
                    "time": 62.400000000000006,
                    "velocity": 0.7874015748031497,
                    "duration": 0.8999999999999986
                },
                {
                    "name": "C2",
                    "midi": 36,
                    "time": 73.2,
                    "velocity": 0.7874015748031497,
                    "duration": 0.9000000000000057
                },
                {
                    "name": "A2",
                    "midi": 45,
                    "time": 76.80000000000001,
                    "velocity": 0.7874015748031497,
                    "duration": 0.9000000000000057
                },
                {
                    "name": "A2",
                    "midi": 45,
                    "time": 86.40000000000002,
                    "velocity": 0.7874015748031497,
                    "duration": 0.5999999999999943
                },
                {
                    "name": "A2",
                    "midi": 45,
                    "time": 87.60000000000001,
                    "velocity": 0.7874015748031497,
                    "duration": 1.7999999999999972
                },
                {
                    "name": "G2",
                    "midi": 43,
                    "time": 90,
                    "velocity": 0.7874015748031497,
                    "duration": 0.29999999999999716
                },
                {
                    "name": "A2",
                    "midi": 45,
                    "time": 91.2,
                    "velocity": 0.7874015748031497,
                    "duration": 0.9000000000000057
                },
                {
                    "name": "C2",
                    "midi": 36,
                    "time": 102.00000000000001,
                    "velocity": 0.7874015748031497,
                    "duration": 0.9000000000000057
                },
                {
                    "name": "A2",
                    "midi": 45,
                    "time": 105.60000000000002,
                    "velocity": 0.7874015748031497,
                    "duration": 0.9000000000000057
                }
            ],
            "controlChanges": {
                "7": [
                    {
                        "number": 7,
                        "time": 0,
                        "value": 0.7874015748031497
                    }
                ],
                "10": [
                    {
                        "number": 10,
                        "time": 0,
                        "value": 0.6220472440944882
                    }
                ]
            },
            "id": 3,
            "name": "Johann Sebastian Bach  (1685-1750)",
            "instrumentNumber": 42,
            "instrument": "cello",
            "instrumentFamily": "strings",
            "channelNumber": 2,
            "isPercussion": false
        },
        {
            "startTime": 57.599999999999994,
            "duration": 89.39999999999998,
            "length": 4,
            "notes": [
                {
                    "name": "D2",
                    "midi": 38,
                    "time": 57.599999999999994,
                    "velocity": 0.7874015748031497,
                    "duration": 0.6000000000000014
                },
                {
                    "name": "D2",
                    "midi": 38,
                    "time": 58.8,
                    "velocity": 0.7874015748031497,
                    "duration": 1.7999999999999972
                },
                {
                    "name": "D2",
                    "midi": 38,
                    "time": 86.39999999999999,
                    "velocity": 0.7874015748031497,
                    "duration": 0.5999999999999943
                },
                {
                    "name": "D2",
                    "midi": 38,
                    "time": 87.59999999999998,
                    "velocity": 0.7874015748031497,
                    "duration": 1.7999999999999972
                }
            ],
            "controlChanges": {
                "7": [
                    {
                        "number": 7,
                        "time": 0,
                        "value": 0.7874015748031497
                    }
                ],
                "10": [
                    {
                        "number": 10,
                        "time": 0,
                        "value": 0.3858267716535433
                    }
                ]
            },
            "id": 4,
            "name": "Six Suites for Solo Cello",
            "instrumentNumber": 42,
            "instrument": "cello",
            "instrumentFamily": "strings",
            "channelNumber": 3,
            "isPercussion": false
        },
        {
            "startTime": 0,
            "duration": 0,
            "length": 0,
            "notes": [],
            "controlChanges": {},
            "id": 5,
            "name": "--------------------------------------"
        },
        {
            "startTime": 0,
            "duration": 0,
            "length": 0,
            "notes": [],
            "controlChanges": {},
            "id": 6,
            "name": "Suite No. 1 in G major - BWV 1007"
        },
        {
            "startTime": 0,
            "duration": 0,
            "length": 0,
            "notes": [],
            "controlChanges": {},
            "id": 7,
            "name": "4th Movement: Sarabande"
        },
        {
            "startTime": 0,
            "duration": 0,
            "length": 0,
            "notes": [],
            "controlChanges": {},
            "id": 8,
            "name": "--------------------------------------"
        },
        {
            "startTime": 0,
            "duration": 0,
            "length": 0,
            "notes": [],
            "controlChanges": {},
            "id": 9,
            "name": "Sequenced with Cakewalk Pro Audio by"
        },
        {
            "startTime": 0,
            "duration": 0,
            "length": 0,
            "notes": [],
            "controlChanges": {},
            "id": 10,
            "name": "David J. Grossman - dave@unpronounceable.com"
        },
        {
            "startTime": 0,
            "duration": 0,
            "length": 0,
            "notes": [],
            "controlChanges": {},
            "id": 11,
            "name": "This and other Bach MIDI files can be found at:"
        },
        {
            "startTime": 0,
            "duration": 0,
            "length": 0,
            "notes": [],
            "controlChanges": {},
            "id": 12,
            "name": "Dave's J.S. Bach Page"
        },
        {
            "startTime": 0,
            "duration": 0,
            "length": 0,
            "notes": [],
            "controlChanges": {},
            "id": 13,
            "name": "http://www.unpronounceable.com/bach"
        },
        {
            "startTime": 0,
            "duration": 0,
            "length": 0,
            "notes": [],
            "controlChanges": {},
            "id": 14,
            "name": "--------------------------------------"
        },
        {
            "startTime": 0,
            "duration": 0,
            "length": 0,
            "notes": [],
            "controlChanges": {},
            "id": 15,
            "name": "Original Filename: cs1-4sar.mid"
        },
        {
            "startTime": 0,
            "duration": 0,
            "length": 0,
            "notes": [],
            "controlChanges": {},
            "id": 16,
            "name": "Last Modified: February 22, 1997"
        }
    ]
}