{
    "header": {
        "PPQ": 480,
        "timeSignature": [
            3,
            4
        ],
        "bpm": 150,
        "name": "untitled"
    },
    "startTime": 0,
    "duration": 144.00000000000034,
    "tracks": [
        {
            "startTime": 0,
            "duration": 0,
            "length": 0,
            "notes": [],
            "controlChanges": {},
            "id": 0,
            "name": "untitled"
        },
        {
            "startTime": 0,
            "duration": 144.00000000000034,
            "length": 642,
            "notes": [
                {
                    "name": "G2",
                    "midi": 43,
                    "time": 0,
                    "velocity": 0.7874015748031497,
                    "duration": 0.2
                },
                {
                    "name": "D3",
                    "midi": 50,
                    "time": 0.2,
                    "velocity": 0.7874015748031497,
                    "duration": 0.2
                },
                {
                    "name": "B3",
                    "midi": 59,
                    "time": 0.4,
                    "velocity": 0.7874015748031497,
                    "duration": 0.4
                },
                {
                    "name": "A3",
                    "midi": 57,
                    "time": 0.8,
                    "velocity": 0.7874015748031497,
                    "duration": 0.19999999999999996
                },
                {
                    "name": "B3",
                    "midi": 59,
                    "time": 1,
                    "velocity": 0.7874015748031497,
                    "duration": 0.10000000000000009
                },
                {
                    "name": "C4",
                    "midi": 60,
                    "time": 1.1,
                    "velocity": 0.7874015748031497,
                    "duration": 0.10000000000000009
                },
                {
                    "name": "B3",
                    "midi": 59,
                    "time": 1.2000000000000002,
                    "velocity": 0.7874015748031497,
                    "duration": 0.19999999999999996
                },
                {
                    "name": "A3",
                    "midi": 57,
                    "time": 1.4000000000000001,
                    "velocity": 0.7874015748031497,
                    "duration": 0.19999999999999996
                },
                {
                    "name": "G3",
                    "midi": 55,
                    "time": 1.6,
                    "velocity": 0.7874015748031497,
                    "duration": 0.19999999999999996
                },
                {
                    "name": "F#3",
                    "midi": 54,
                    "time": 1.8,
                    "velocity": 0.7874015748031497,
                    "duration": 0.19999999999999996
                },
                {
                    "name": "G3",
                    "midi": 55,
                    "time": 2,
                    "velocity": 0.7874015748031497,
                    "duration": 0.20000000000000018
                },
                {
                    "name": "D3",
                    "midi": 50,
                    "time": 2.2,
                    "velocity": 0.7874015748031497,
                    "duration": 0.20000000000000018
                },
                {
                    "name": "E3",
                    "midi": 52,
                    "time": 2.4000000000000004,
                    "velocity": 0.7874015748031497,
                    "duration": 0.20000000000000018
                },
                {
                    "name": "G3",
                    "midi": 55,
                    "time": 2.6000000000000005,
                    "velocity": 0.7874015748031497,
                    "duration": 0.20000000000000018
                },
                {
                    "name": "C4",
                    "midi": 60,
                    "time": 2.8000000000000007,
                    "velocity": 0.7874015748031497,
                    "duration": 0.20000000000000018
                },
                {
                    "name": "A3",
                    "midi": 57,
                    "time": 3.000000000000001,
                    "velocity": 0.7874015748031497,
                    "duration": 0.20000000000000018
                },
                {
                    "name": "F#3",
                    "midi": 54,
                    "time": 3.200000000000001,
                    "velocity": 0.7874015748031497,
                    "duration": 0.20000000000000018
                },
                {
                    "name": "D4",
                    "midi": 62,
                    "time": 3.4000000000000012,
                    "velocity": 0.7874015748031497,
                    "duration": 0.20000000000000018
                },
                {
                    "name": "B3",
                    "midi": 59,
                    "time": 3.6000000000000014,
                    "velocity": 0.7874015748031497,
                    "duration": 0.8000000000000007
                },
                {
                    "name": "A3",
                    "midi": 57,
                    "time": 4.400000000000002,
                    "velocity": 0.7874015748031497,
                    "duration": 0.40000000000000036
                },
                {
                    "name": "A2",
                    "midi": 45,
                    "time": 4.8000000000000025,
                    "velocity": 0.7874015748031497,
                    "duration": 0.20000000000000018
                },
                {
                    "name": "F#3",
                    "midi": 54,
                    "time": 5.000000000000003,
                    "velocity": 0.7874015748031497,
                    "duration": 0.20000000000000018
                },
                {
                    "name": "C4",
                    "midi": 60,
                    "time": 5.200000000000003,
                    "velocity": 0.7874015748031497,
                    "duration": 0.40000000000000036
                },
                {
                    "name": "B3",
                    "midi": 59,
                    "time": 5.600000000000003,
                    "velocity": 0.7874015748031497,
                    "duration": 0.20000000000000018
                },
                {
                    "name": "C4",
                    "midi": 60,
                    "time": 5.800000000000003,
                    "velocity": 0.7874015748031497,
                    "duration": 0.09999999999999964
                },
                {
                    "name": "D4",
                    "midi": 62,
                    "time": 5.900000000000003,
                    "velocity": 0.7874015748031497,
                    "duration": 0.09999999999999964
                },
                {
                    "name": "C4",
                    "midi": 60,
                    "time": 6.000000000000003,
                    "velocity": 0.7874015748031497,
                    "duration": 0.20000000000000018
                },
                {
                    "name": "B3",
                    "midi": 59,
                    "time": 6.200000000000003,
                    "velocity": 0.7874015748031497,
                    "duration": 0.20000000000000018
                },
                {
                    "name": "A3",
                    "midi": 57,
                    "time": 6.400000000000003,
                    "velocity": 0.7874015748031497,
                    "duration": 0.20000000000000018
                },
                {
                    "name": "G3",
                    "midi": 55,
                    "time": 6.600000000000003,
                    "velocity": 0.7874015748031497,
                    "duration": 0.20000000000000018
                },
                {
                    "name": "F#3",
                    "midi": 54,
                    "time": 6.800000000000003,
                    "velocity": 0.7874015748031497,
                    "duration": 0.20000000000000018
                },
                {
                    "name": "E3",
                    "midi": 52,
                    "time": 7.0000000000000036,
                    "velocity": 0.7874015748031497,
                    "duration": 0.20000000000000018
                },
                {
                    "name": "F#3",
                    "midi": 54,
                    "time": 7.200000000000004,
                    "velocity": 0.7874015748031497,
                    "duration": 0.20000000000000018
                },
                {
                    "name": "G3",
                    "midi": 55,
                    "time": 7.400000000000004,
                    "velocity": 0.7874015748031497,
                    "duration": 0.09999999999999964
                },
                {
                    "name": "A3",
                    "midi": 57,
                    "time": 7.5000000000000036,
                    "velocity": 0.7874015748031497,
                    "duration": 0.09999999999999964
                },
                {
                    "name": "G3",
                    "midi": 55,
                    "time": 7.600000000000003,
                    "velocity": 0.7874015748031497,
                    "duration": 0.20000000000000018
                },
                {
                    "name": "F#3",
                    "midi": 54,
                    "time": 7.800000000000003,
                    "velocity": 0.7874015748031497,
                    "duration": 0.20000000000000018
                },
                {
                    "name": "E3",
                    "midi": 52,
                    "time": 8.000000000000004,
                    "velocity": 0.7874015748031497,
                    "duration": 0.1999999999999993
                },
                {
                    "name": "F#3",
                    "midi": 54,
                    "time": 8.200000000000003,
                    "velocity": 0.7874015748031497,
                    "duration": 0.1999999999999993
                },
                {
                    "name": "D3",
                    "midi": 50,
                    "time": 8.400000000000002,
                    "velocity": 0.7874015748031497,
                    "duration": 0.40000000000000036
                },
                {
                    "name": "A2",
                    "midi": 45,
                    "time": 8.800000000000002,
                    "velocity": 0.7874015748031497,
                    "duration": 0.40000000000000036
                },
                {
                    "name": "D2",
                    "midi": 38,
                    "time": 9.200000000000003,
                    "velocity": 0.7874015748031497,
                    "duration": 0.40000000000000036
                },
                {
                    "name": "G2",
                    "midi": 43,
                    "time": 9.600000000000003,
                    "velocity": 0.7874015748031497,
                    "duration": 0.1999999999999993
                },
                {
                    "name": "D3",
                    "midi": 50,
                    "time": 9.800000000000002,
                    "velocity": 0.7874015748031497,
                    "duration": 0.1999999999999993
                },
                {
                    "name": "B3",
                    "midi": 59,
                    "time": 10.000000000000002,
                    "velocity": 0.7874015748031497,
                    "duration": 0.40000000000000036
                },
                {
                    "name": "A3",
                    "midi": 57,
                    "time": 10.400000000000002,
                    "velocity": 0.7874015748031497,
                    "duration": 0.1999999999999993
                },
                {
                    "name": "B3",
                    "midi": 59,
                    "time": 10.600000000000001,
                    "velocity": 0.7874015748031497,
                    "duration": 0.09999999999999964
                },
                {
                    "name": "C4",
                    "midi": 60,
                    "time": 10.700000000000001,
                    "velocity": 0.7874015748031497,
                    "duration": 0.09999999999999964
                },
                {
                    "name": "B3",
                    "midi": 59,
                    "time": 10.8,
                    "velocity": 0.7874015748031497,
                    "duration": 0.1999999999999993
                },
                {
                    "name": "A3",
                    "midi": 57,
                    "time": 11,
                    "velocity": 0.7874015748031497,
                    "duration": 0.1999999999999993
                },
                {
                    "name": "G3",
                    "midi": 55,
                    "time": 11.2,
                    "velocity": 0.7874015748031497,
                    "duration": 0.1999999999999993
                },
                {
                    "name": "F#3",
                    "midi": 54,
                    "time": 11.399999999999999,
                    "velocity": 0.7874015748031497,
                    "duration": 0.1999999999999993
                },
                {
                    "name": "G3",
                    "midi": 55,
                    "time": 11.599999999999998,
                    "velocity": 0.7874015748031497,
                    "duration": 0.1999999999999993
                },
                {
                    "name": "D3",
                    "midi": 50,
                    "time": 11.799999999999997,
                    "velocity": 0.7874015748031497,
                    "duration": 0.1999999999999993
                },
                {
                    "name": "E3",
                    "midi": 52,
                    "time": 11.999999999999996,
                    "velocity": 0.7874015748031497,
                    "duration": 0.1999999999999993
                },
                {
                    "name": "G3",
                    "midi": 55,
                    "time": 12.199999999999996,
                    "velocity": 0.7874015748031497,
                    "duration": 0.1999999999999993
                },
                {
                    "name": "C4",
                    "midi": 60,
                    "time": 12.399999999999995,
                    "velocity": 0.7874015748031497,
                    "duration": 0.1999999999999993
                },
                {
                    "name": "A3",
                    "midi": 57,
                    "time": 12.599999999999994,
                    "velocity": 0.7874015748031497,
                    "duration": 0.1999999999999993
                },
                {
                    "name": "F#3",
                    "midi": 54,
                    "time": 12.799999999999994,
                    "velocity": 0.7874015748031497,
                    "duration": 0.1999999999999993
                },
                {
                    "name": "D4",
                    "midi": 62,
                    "time": 12.999999999999993,
                    "velocity": 0.7874015748031497,
                    "duration": 0.1999999999999993
                },
                {
                    "name": "B3",
                    "midi": 59,
                    "time": 13.199999999999992,
                    "velocity": 0.7874015748031497,
                    "duration": 0.7999999999999989
                },
                {
                    "name": "A3",
                    "midi": 57,
                    "time": 13.999999999999991,
                    "velocity": 0.7874015748031497,
                    "duration": 0.40000000000000036
                },
                {
                    "name": "A2",
                    "midi": 45,
                    "time": 14.399999999999991,
                    "velocity": 0.7874015748031497,
                    "duration": 0.1999999999999993
                },
                {
                    "name": "F#3",
                    "midi": 54,
                    "time": 14.59999999999999,
                    "velocity": 0.7874015748031497,
                    "duration": 0.1999999999999993
                },
                {
                    "name": "C4",
                    "midi": 60,
                    "time": 14.79999999999999,
                    "velocity": 0.7874015748031497,
                    "duration": 0.40000000000000036
                },
                {
                    "name": "B3",
                    "midi": 59,
                    "time": 15.19999999999999,
                    "velocity": 0.7874015748031497,
                    "duration": 0.1999999999999993
                },
                {
                    "name": "C4",
                    "midi": 60,
                    "time": 15.39999999999999,
                    "velocity": 0.7874015748031497,
                    "duration": 0.09999999999999964
                },
                {
                    "name": "D4",
                    "midi": 62,
                    "time": 15.49999999999999,
                    "velocity": 0.7874015748031497,
                    "duration": 0.09999999999999964
                },
                {
                    "name": "C4",
                    "midi": 60,
                    "time": 15.599999999999989,
                    "velocity": 0.7874015748031497,
                    "duration": 0.1999999999999993
                },
                {
                    "name": "B3",
                    "midi": 59,
                    "time": 15.799999999999988,
                    "velocity": 0.7874015748031497,
                    "duration": 0.1999999999999993
                },
                {
                    "name": "A3",
                    "midi": 57,
                    "time": 15.999999999999988,
                    "velocity": 0.7874015748031497,
                    "duration": 0.20000000000000107
                },
                {
                    "name": "G3",
                    "midi": 55,
                    "time": 16.19999999999999,
                    "velocity": 0.7874015748031497,
                    "duration": 0.1999999999999993
                },
                {
                    "name": "F#3",
                    "midi": 54,
                    "time": 16.399999999999988,
                    "velocity": 0.7874015748031497,
                    "duration": 0.1999999999999993
                },
                {
                    "name": "E3",
                    "midi": 52,
                    "time": 16.599999999999987,
                    "velocity": 0.7874015748031497,
                    "duration": 0.1999999999999993
                },
                {
                    "name": "F#3",
                    "midi": 54,
                    "time": 16.799999999999986,
                    "velocity": 0.7874015748031497,
                    "duration": 0.1999999999999993
                },
                {
                    "name": "G3",
                    "midi": 55,
                    "time": 16.999999999999986,
                    "velocity": 0.7874015748031497,
                    "duration": 0.10000000000000142
                },
                {
                    "name": "A3",
                    "midi": 57,
                    "time": 17.099999999999987,
                    "velocity": 0.7874015748031497,
                    "duration": 0.10000000000000142
                },
                {
                    "name": "G3",
                    "midi": 55,
                    "time": 17.19999999999999,
                    "velocity": 0.7874015748031497,
                    "duration": 0.1999999999999993
                },
                {
                    "name": "F#3",
                    "midi": 54,
                    "time": 17.399999999999988,
                    "velocity": 0.7874015748031497,
                    "duration": 0.1999999999999993
                },
                {
                    "name": "E3",
                    "midi": 52,
                    "time": 17.599999999999987,
                    "velocity": 0.7874015748031497,
                    "duration": 0.1999999999999993
                },
                {
                    "name": "F#3",
                    "midi": 54,
                    "time": 17.799999999999986,
                    "velocity": 0.7874015748031497,
                    "duration": 0.1999999999999993
                },
                {
                    "name": "D3",
                    "midi": 50,
                    "time": 17.999999999999986,
                    "velocity": 0.7874015748031497,
                    "duration": 0.3999999999999986
                },
                {
                    "name": "A2",
                    "midi": 45,
                    "time": 18.399999999999984,
                    "velocity": 0.7874015748031497,
                    "duration": 0.3999999999999986
                },
                {
                    "name": "D2",
                    "midi": 38,
                    "time": 18.799999999999983,
                    "velocity": 0.7874015748031497,
                    "duration": 0.3999999999999986
                },
                {
                    "name": "D3",
                    "midi": 50,
                    "time": 19.19999999999998,
                    "velocity": 0.7874015748031497,
                    "duration": 0.1999999999999993
                },
                {
                    "name": "F#3",
                    "midi": 54,
                    "time": 19.39999999999998,
                    "velocity": 0.7874015748031497,
                    "duration": 0.1999999999999993
                },
                {
                    "name": "A3",
                    "midi": 57,
                    "time": 19.59999999999998,
                    "velocity": 0.7874015748031497,
                    "duration": 0.3999999999999986
                },
                {
                    "name": "G3",
                    "midi": 55,
                    "time": 19.99999999999998,
                    "velocity": 0.7874015748031497,
                    "duration": 0.1999999999999993
                },
                {
                    "name": "A3",
                    "midi": 57,
                    "time": 20.199999999999978,
                    "velocity": 0.7874015748031497,
                    "duration": 0.10000000000000142
                },
                {
                    "name": "B3",
                    "midi": 59,
                    "time": 20.29999999999998,
                    "velocity": 0.7874015748031497,
                    "duration": 0.10000000000000142
                },
                {
                    "name": "A3",
                    "midi": 57,
                    "time": 20.39999999999998,
                    "velocity": 0.7874015748031497,
                    "duration": 0.1999999999999993
                },
                {
                    "name": "G3",
                    "midi": 55,
                    "time": 20.59999999999998,
                    "velocity": 0.7874015748031497,
                    "duration": 0.1999999999999993
                },
                {
                    "name": "F#3",
                    "midi": 54,
                    "time": 20.79999999999998,
                    "velocity": 0.7874015748031497,
                    "duration": 0.1999999999999993
                },
                {
                    "name": "E3",
                    "midi": 52,
                    "time": 20.99999999999998,
                    "velocity": 0.7874015748031497,
                    "duration": 0.1999999999999993
                },
                {
                    "name": "D3",
                    "midi": 50,
                    "time": 21.199999999999978,
                    "velocity": 0.7874015748031497,
                    "duration": 0.1999999999999993
                },
                {
                    "name": "F#3",
                    "midi": 54,
                    "time": 21.399999999999977,
                    "velocity": 0.7874015748031497,
                    "duration": 0.1999999999999993
                },
                {
                    "name": "B2",
                    "midi": 47,
                    "time": 21.599999999999977,
                    "velocity": 0.7874015748031497,
                    "duration": 0.1999999999999993
                },
                {
                    "name": "D3",
                    "midi": 50,
                    "time": 21.799999999999976,
                    "velocity": 0.7874015748031497,
                    "duration": 0.1999999999999993
                },
                {
                    "name": "G#3",
                    "midi": 56,
                    "time": 21.999999999999975,
                    "velocity": 0.7874015748031497,
                    "duration": 0.1999999999999993
                },
                {
                    "name": "A3",
                    "midi": 57,
                    "time": 22.199999999999974,
                    "velocity": 0.7874015748031497,
                    "duration": 0.1999999999999993
                },
                {
                    "name": "B3",
                    "midi": 59,
                    "time": 22.399999999999974,
                    "velocity": 0.7874015748031497,
                    "duration": 0.1999999999999993
                },
                {
                    "name": "D4",
                    "midi": 62,
                    "time": 22.599999999999973,
                    "velocity": 0.7874015748031497,
                    "duration": 0.1999999999999993
                },
                {
                    "name": "A2",
                    "midi": 45,
                    "time": 22.799999999999972,
                    "velocity": 0.7874015748031497,
                    "duration": 0.1999999999999993
                },
                {
                    "name": "D4",
                    "midi": 62,
                    "time": 22.99999999999997,
                    "velocity": 0.7874015748031497,
                    "duration": 0.1999999999999993
                },
                {
                    "name": "C4",
                    "midi": 60,
                    "time": 23.19999999999997,
                    "velocity": 0.7874015748031497,
                    "duration": 0.1999999999999993
                },
                {
                    "name": "B3",
                    "midi": 59,
                    "time": 23.39999999999997,
                    "velocity": 0.7874015748031497,
                    "duration": 0.1999999999999993
                },
                {
                    "name": "C4",
                    "midi": 60,
                    "time": 23.59999999999997,
                    "velocity": 0.7874015748031497,
                    "duration": 0.3999999999999986
                },
                {
                    "name": "D#3",
                    "midi": 51,
                    "time": 23.999999999999968,
                    "velocity": 0.7874015748031497,
                    "duration": 0.1999999999999993
                },
                {
                    "name": "F#3",
                    "midi": 54,
                    "time": 24.199999999999967,
                    "velocity": 0.7874015748031497,
                    "duration": 0.1999999999999993
                },
                {
                    "name": "A3",
                    "midi": 57,
                    "time": 24.399999999999967,
                    "velocity": 0.7874015748031497,
                    "duration": 0.1999999999999993
                },
                {
                    "name": "C4",
                    "midi": 60,
                    "time": 24.599999999999966,
                    "velocity": 0.7874015748031497,
                    "duration": 0.1999999999999993
                },
                {
                    "name": "B3",
                    "midi": 59,
                    "time": 24.799999999999965,
                    "velocity": 0.7874015748031497,
                    "duration": 0.1999999999999993
                },
                {
                    "name": "A3",
                    "midi": 57,
                    "time": 24.999999999999964,
                    "velocity": 0.7874015748031497,
                    "duration": 0.1999999999999993
                },
                {
                    "name": "B3",
                    "midi": 59,
                    "time": 25.199999999999964,
                    "velocity": 0.7874015748031497,
                    "duration": 0.1999999999999993
                },
                {
                    "name": "E3",
                    "midi": 52,
                    "time": 25.399999999999963,
                    "velocity": 0.7874015748031497,
                    "duration": 0.1999999999999993
                },
                {
                    "name": "G2",
                    "midi": 43,
                    "time": 25.599999999999962,
                    "velocity": 0.7874015748031497,
                    "duration": 0.1999999999999993
                },
                {
                    "name": "A3",
                    "midi": 57,
                    "time": 25.79999999999996,
                    "velocity": 0.7874015748031497,
                    "duration": 0.1999999999999993
                },
                {
                    "name": "C4",
                    "midi": 60,
                    "time": 25.99999999999996,
                    "velocity": 0.7874015748031497,
                    "duration": 0.1999999999999993
                },
                {
                    "name": "B3",
                    "midi": 59,
                    "time": 26.19999999999996,
                    "velocity": 0.7874015748031497,
                    "duration": 0.1999999999999993
                },
                {
                    "name": "A3",
                    "midi": 57,
                    "time": 26.39999999999996,
                    "velocity": 0.7874015748031497,
                    "duration": 0.1999999999999993
                },
                {
                    "name": "G3",
                    "midi": 55,
                    "time": 26.59999999999996,
                    "velocity": 0.7874015748031497,
                    "duration": 0.1999999999999993
                },
                {
                    "name": "F#3",
                    "midi": 54,
                    "time": 26.799999999999958,
                    "velocity": 0.7874015748031497,
                    "duration": 0.1999999999999993
                },
                {
                    "name": "E3",
                    "midi": 52,
                    "time": 26.999999999999957,
                    "velocity": 0.7874015748031497,
                    "duration": 0.1999999999999993
                },
                {
                    "name": "B2",
                    "midi": 47,
                    "time": 27.199999999999957,
                    "velocity": 0.7874015748031497,
                    "duration": 0.1999999999999993
                },
                {
                    "name": "D#3",
                    "midi": 51,
                    "time": 27.399999999999956,
                    "velocity": 0.7874015748031497,
                    "duration": 0.1999999999999993
                },
                {
                    "name": "E2",
                    "midi": 40,
                    "time": 27.599999999999955,
                    "velocity": 0.7874015748031497,
                    "duration": 0.6000000000000014
                },
                {
                    "name": "E3",
                    "midi": 52,
                    "time": 28.199999999999957,
                    "velocity": 0.7874015748031497,
                    "duration": 0.1999999999999993
                },
                {
                    "name": "D3",
                    "midi": 50,
                    "time": 28.399999999999956,
                    "velocity": 0.7874015748031497,
                    "duration": 0.1999999999999993
                },
                {
                    "name": "C3",
                    "midi": 48,
                    "time": 28.599999999999955,
                    "velocity": 0.7874015748031497,
                    "duration": 0.1999999999999993
                },
                {
                    "name": "B2",
                    "midi": 47,
                    "time": 28.799999999999955,
                    "velocity": 0.7874015748031497,
                    "duration": 0.1999999999999993
                },
                {
                    "name": "D3",
                    "midi": 50,
                    "time": 28.999999999999954,
                    "velocity": 0.7874015748031497,
                    "duration": 0.1999999999999993
                },
                {
                    "name": "G3",
                    "midi": 55,
                    "time": 29.199999999999953,
                    "velocity": 0.7874015748031497,
                    "duration": 0.3999999999999986
                },
                {
                    "name": "D3",
                    "midi": 50,
                    "time": 29.59999999999995,
                    "velocity": 0.7874015748031497,
                    "duration": 0.1999999999999993
                },
                {
                    "name": "E3",
                    "midi": 52,
                    "time": 29.79999999999995,
                    "velocity": 0.7874015748031497,
                    "duration": 0.10000000000000142
                },
                {
                    "name": "F3",
                    "midi": 53,
                    "time": 29.899999999999952,
                    "velocity": 0.7874015748031497,
                    "duration": 0.10000000000000142
                },
                {
                    "name": "F3",
                    "midi": 53,
                    "time": 29.999999999999954,
                    "velocity": 0.7874015748031497,
                    "duration": 0.1999999999999993
                },
                {
                    "name": "D3",
                    "midi": 50,
                    "time": 30.199999999999953,
                    "velocity": 0.7874015748031497,
                    "duration": 0.1999999999999993
                },
                {
                    "name": "E3",
                    "midi": 52,
                    "time": 30.399999999999952,
                    "velocity": 0.7874015748031497,
                    "duration": 0.1999999999999993
                },
                {
                    "name": "C3",
                    "midi": 48,
                    "time": 30.59999999999995,
                    "velocity": 0.7874015748031497,
                    "duration": 0.1999999999999993
                },
                {
                    "name": "C2",
                    "midi": 36,
                    "time": 30.79999999999995,
                    "velocity": 0.7874015748031497,
                    "duration": 0.1999999999999993
                },
                {
                    "name": "B2",
                    "midi": 47,
                    "time": 30.99999999999995,
                    "velocity": 0.7874015748031497,
                    "duration": 0.1999999999999993
                },
                {
                    "name": "C#3",
                    "midi": 49,
                    "time": 31.19999999999995,
                    "velocity": 0.7874015748031497,
                    "duration": 0.1999999999999993
                },
                {
                    "name": "E3",
                    "midi": 52,
                    "time": 31.39999999999995,
                    "velocity": 0.7874015748031497,
                    "duration": 0.1999999999999993
                },
                {
                    "name": "A3",
                    "midi": 57,
                    "time": 31.599999999999948,
                    "velocity": 0.7874015748031497,
                    "duration": 0.3999999999999986
                },
                {
                    "name": "E3",
                    "midi": 52,
                    "time": 31.999999999999947,
                    "velocity": 0.7874015748031497,
                    "duration": 0.1999999999999993
                },
                {
                    "name": "F#3",
                    "midi": 54,
                    "time": 32.199999999999946,
                    "velocity": 0.7874015748031497,
                    "duration": 0.10000000000000142
                },
                {
                    "name": "G3",
                    "midi": 55,
                    "time": 32.29999999999995,
                    "velocity": 0.7874015748031497,
                    "duration": 0.10000000000000142
                },
                {
                    "name": "G3",
                    "midi": 55,
                    "time": 32.39999999999995,
                    "velocity": 0.7874015748031497,
                    "duration": 0.20000000000000284
                },
                {
                    "name": "E3",
                    "midi": 52,
                    "time": 32.59999999999995,
                    "velocity": 0.7874015748031497,
                    "duration": 0.20000000000000284
                },
                {
                    "name": "F#3",
                    "midi": 54,
                    "time": 32.799999999999955,
                    "velocity": 0.7874015748031497,
                    "duration": 0.20000000000000284
                },
                {
                    "name": "D3",
                    "midi": 50,
                    "time": 32.99999999999996,
                    "velocity": 0.7874015748031497,
                    "duration": 0.20000000000000284
                },
                {
                    "name": "D2",
                    "midi": 38,
                    "time": 33.19999999999996,
                    "velocity": 0.7874015748031497,
                    "duration": 0.20000000000000284
                },
                {
                    "name": "A2",
                    "midi": 45,
                    "time": 33.39999999999996,
                    "velocity": 0.7874015748031497,
                    "duration": 0.20000000000000284
                },
                {
                    "name": "D3",
                    "midi": 50,
                    "time": 33.599999999999966,
                    "velocity": 0.7874015748031497,
                    "duration": 0.20000000000000284
                },
                {
                    "name": "F#3",
                    "midi": 54,
                    "time": 33.79999999999997,
                    "velocity": 0.7874015748031497,
                    "duration": 0.20000000000000284
                },
                {
                    "name": "A3",
                    "midi": 57,
                    "time": 33.99999999999997,
                    "velocity": 0.7874015748031497,
                    "duration": 0.20000000000000284
                },
                {
                    "name": "C4",
                    "midi": 60,
                    "time": 34.199999999999974,
                    "velocity": 0.7874015748031497,
                    "duration": 0.20000000000000284
                },
                {
                    "name": "B3",
                    "midi": 59,
                    "time": 34.39999999999998,
                    "velocity": 0.7874015748031497,
                    "duration": 0.20000000000000284
                },
                {
                    "name": "D4",
                    "midi": 62,
                    "time": 34.59999999999998,
                    "velocity": 0.7874015748031497,
                    "duration": 0.20000000000000284
                },
                {
                    "name": "E3",
                    "midi": 52,
                    "time": 34.79999999999998,
                    "velocity": 0.7874015748031497,
                    "duration": 0.20000000000000284
                },
                {
                    "name": "G3",
                    "midi": 55,
                    "time": 34.999999999999986,
                    "velocity": 0.7874015748031497,
                    "duration": 0.20000000000000284
                },
                {
                    "name": "B3",
                    "midi": 59,
                    "time": 35.19999999999999,
                    "velocity": 0.7874015748031497,
                    "duration": 0.20000000000000284
                },
                {
                    "name": "D4",
                    "midi": 62,
                    "time": 35.39999999999999,
                    "velocity": 0.7874015748031497,
                    "duration": 0.20000000000000284
                },
                {
                    "name": "C4",
                    "midi": 60,
                    "time": 35.599999999999994,
                    "velocity": 0.7874015748031497,
                    "duration": 0.20000000000000284
                },
                {
                    "name": "E4",
                    "midi": 64,
                    "time": 35.8,
                    "velocity": 0.7874015748031497,
                    "duration": 0.20000000000000284
                },
                {
                    "name": "D4",
                    "midi": 62,
                    "time": 36,
                    "velocity": 0.7874015748031497,
                    "duration": 0.20000000000000284
                },
                {
                    "name": "F#3",
                    "midi": 54,
                    "time": 36.2,
                    "velocity": 0.7874015748031497,
                    "duration": 0.20000000000000284
                },
                {
                    "name": "G3",
                    "midi": 55,
                    "time": 36.400000000000006,
                    "velocity": 0.7874015748031497,
                    "duration": 0.20000000000000284
                },
                {
                    "name": "B2",
                    "midi": 47,
                    "time": 36.60000000000001,
                    "velocity": 0.7874015748031497,
                    "duration": 0.20000000000000284
                },
                {
                    "name": "D2",
                    "midi": 38,
                    "time": 36.80000000000001,
                    "velocity": 0.7874015748031497,
                    "duration": 0.20000000000000284
                },
                {
                    "name": "F#3",
                    "midi": 54,
                    "time": 37.000000000000014,
                    "velocity": 0.7874015748031497,
                    "duration": 0.20000000000000284
                },
                {
                    "name": "G3",
                    "midi": 55,
                    "time": 37.20000000000002,
                    "velocity": 0.7874015748031497,
                    "duration": 1.2000000000000028
                },
                {
                    "name": "D3",
                    "midi": 50,
                    "time": 38.40000000000002,
                    "velocity": 0.7874015748031497,
                    "duration": 0.20000000000000284
                },
                {
                    "name": "F#3",
                    "midi": 54,
                    "time": 38.60000000000002,
                    "velocity": 0.7874015748031497,
                    "duration": 0.20000000000000284
                },
                {
                    "name": "A3",
                    "midi": 57,
                    "time": 38.800000000000026,
                    "velocity": 0.7874015748031497,
                    "duration": 0.3999999999999986
                },
                {
                    "name": "G3",
                    "midi": 55,
                    "time": 39.200000000000024,
                    "velocity": 0.7874015748031497,
                    "duration": 0.20000000000000284
                },
                {
                    "name": "A3",
                    "midi": 57,
                    "time": 39.40000000000003,
                    "velocity": 0.7874015748031497,
                    "duration": 0.10000000000000142
                },
                {
                    "name": "B3",
                    "midi": 59,
                    "time": 39.50000000000003,
                    "velocity": 0.7874015748031497,
                    "duration": 0.10000000000000142
                },
                {
                    "name": "A3",
                    "midi": 57,
                    "time": 39.60000000000003,
                    "velocity": 0.7874015748031497,
                    "duration": 0.20000000000000284
                },
                {
                    "name": "G3",
                    "midi": 55,
                    "time": 39.80000000000003,
                    "velocity": 0.7874015748031497,
                    "duration": 0.20000000000000284
                },
                {
                    "name": "F#3",
                    "midi": 54,
                    "time": 40.000000000000036,
                    "velocity": 0.7874015748031497,
                    "duration": 0.20000000000000284
                },
                {
                    "name": "E3",
                    "midi": 52,
                    "time": 40.20000000000004,
                    "velocity": 0.7874015748031497,
                    "duration": 0.20000000000000284
                },
                {
                    "name": "D3",
                    "midi": 50,
                    "time": 40.40000000000004,
                    "velocity": 0.7874015748031497,
                    "duration": 0.20000000000000284
                },
                {
                    "name": "F#3",
                    "midi": 54,
                    "time": 40.600000000000044,
                    "velocity": 0.7874015748031497,
                    "duration": 0.20000000000000284
                },
                {
                    "name": "B2",
                    "midi": 47,
                    "time": 40.80000000000005,
                    "velocity": 0.7874015748031497,
                    "duration": 0.20000000000000284
                },
                {
                    "name": "D3",
                    "midi": 50,
                    "time": 41.00000000000005,
                    "velocity": 0.7874015748031497,
                    "duration": 0.20000000000000284
                },
                {
                    "name": "G#3",
                    "midi": 56,
                    "time": 41.20000000000005,
                    "velocity": 0.7874015748031497,
                    "duration": 0.20000000000000284
                },
                {
                    "name": "A3",
                    "midi": 57,
                    "time": 41.400000000000055,
                    "velocity": 0.7874015748031497,
                    "duration": 0.20000000000000284
                },
                {
                    "name": "B3",
                    "midi": 59,
                    "time": 41.60000000000006,
                    "velocity": 0.7874015748031497,
                    "duration": 0.20000000000000284
                },
                {
                    "name": "D4",
                    "midi": 62,
                    "time": 41.80000000000006,
                    "velocity": 0.7874015748031497,
                    "duration": 0.20000000000000284
                },
                {
                    "name": "A2",
                    "midi": 45,
                    "time": 42.000000000000064,
                    "velocity": 0.7874015748031497,
                    "duration": 0.20000000000000284
                },
                {
                    "name": "D4",
                    "midi": 62,
                    "time": 42.20000000000007,
                    "velocity": 0.7874015748031497,
                    "duration": 0.20000000000000284
                },
                {
                    "name": "C4",
                    "midi": 60,
                    "time": 42.40000000000007,
                    "velocity": 0.7874015748031497,
                    "duration": 0.20000000000000284
                },
                {
                    "name": "B3",
                    "midi": 59,
                    "time": 42.60000000000007,
                    "velocity": 0.7874015748031497,
                    "duration": 0.20000000000000284
                },
                {
                    "name": "C4",
                    "midi": 60,
                    "time": 42.800000000000075,
                    "velocity": 0.7874015748031497,
                    "duration": 0.3999999999999986
                },
                {
                    "name": "D#3",
                    "midi": 51,
                    "time": 43.200000000000074,
                    "velocity": 0.7874015748031497,
                    "duration": 0.20000000000000284
                },
                {
                    "name": "F#3",
                    "midi": 54,
                    "time": 43.40000000000008,
                    "velocity": 0.7874015748031497,
                    "duration": 0.20000000000000284
                },
                {
                    "name": "A3",
                    "midi": 57,
                    "time": 43.60000000000008,
                    "velocity": 0.7874015748031497,
                    "duration": 0.20000000000000284
                },
                {
                    "name": "C4",
                    "midi": 60,
                    "time": 43.80000000000008,
                    "velocity": 0.7874015748031497,
                    "duration": 0.20000000000000284
                },
                {
                    "name": "B3",
                    "midi": 59,
                    "time": 44.000000000000085,
                    "velocity": 0.7874015748031497,
                    "duration": 0.20000000000000284
                },
                {
                    "name": "A3",
                    "midi": 57,
                    "time": 44.20000000000009,
                    "velocity": 0.7874015748031497,
                    "duration": 0.20000000000000284
                },
                {
                    "name": "B3",
                    "midi": 59,
                    "time": 44.40000000000009,
                    "velocity": 0.7874015748031497,
                    "duration": 0.20000000000000284
                },
                {
                    "name": "E3",
                    "midi": 52,
                    "time": 44.600000000000094,
                    "velocity": 0.7874015748031497,
                    "duration": 0.20000000000000284
                },
                {
                    "name": "G2",
                    "midi": 43,
                    "time": 44.8000000000001,
                    "velocity": 0.7874015748031497,
                    "duration": 0.20000000000000284
                },
                {
                    "name": "A3",
                    "midi": 57,
                    "time": 45.0000000000001,
                    "velocity": 0.7874015748031497,
                    "duration": 0.20000000000000284
                },
                {
                    "name": "C4",
                    "midi": 60,
                    "time": 45.2000000000001,
                    "velocity": 0.7874015748031497,
                    "duration": 0.20000000000000284
                },
                {
                    "name": "B3",
                    "midi": 59,
                    "time": 45.400000000000105,
                    "velocity": 0.7874015748031497,
                    "duration": 0.20000000000000284
                },
                {
                    "name": "A3",
                    "midi": 57,
                    "time": 45.60000000000011,
                    "velocity": 0.7874015748031497,
                    "duration": 0.20000000000000284
                },
                {
                    "name": "G3",
                    "midi": 55,
                    "time": 45.80000000000011,
                    "velocity": 0.7874015748031497,
                    "duration": 0.20000000000000284
                },
                {
                    "name": "F#3",
                    "midi": 54,
                    "time": 46.000000000000114,
                    "velocity": 0.7874015748031497,
                    "duration": 0.20000000000000284
                },
                {
                    "name": "E3",
                    "midi": 52,
                    "time": 46.20000000000012,
                    "velocity": 0.7874015748031497,
                    "duration": 0.20000000000000284
                },
                {
                    "name": "B2",
                    "midi": 47,
                    "time": 46.40000000000012,
                    "velocity": 0.7874015748031497,
                    "duration": 0.20000000000000284
                },
                {
                    "name": "D#3",
                    "midi": 51,
                    "time": 46.60000000000012,
                    "velocity": 0.7874015748031497,
                    "duration": 0.20000000000000284
                },
                {
                    "name": "E2",
                    "midi": 40,
                    "time": 46.800000000000125,
                    "velocity": 0.7874015748031497,
                    "duration": 0.6000000000000014
                },
                {
                    "name": "E3",
                    "midi": 52,
                    "time": 47.40000000000013,
                    "velocity": 0.7874015748031497,
                    "duration": 0.20000000000000284
                },
                {
                    "name": "D3",
                    "midi": 50,
                    "time": 47.60000000000013,
                    "velocity": 0.7874015748031497,
                    "duration": 0.20000000000000284
                },
                {
                    "name": "C3",
                    "midi": 48,
                    "time": 47.80000000000013,
                    "velocity": 0.7874015748031497,
                    "duration": 0.20000000000000284
                },
                {
                    "name": "B2",
                    "midi": 47,
                    "time": 48.000000000000135,
                    "velocity": 0.7874015748031497,
                    "duration": 0.20000000000000284
                },
                {
                    "name": "D3",
                    "midi": 50,
                    "time": 48.20000000000014,
                    "velocity": 0.7874015748031497,
                    "duration": 0.20000000000000284
                },
                {
                    "name": "G3",
                    "midi": 55,
                    "time": 48.40000000000014,
                    "velocity": 0.7874015748031497,
                    "duration": 0.3999999999999986
                },
                {
                    "name": "D3",
                    "midi": 50,
                    "time": 48.80000000000014,
                    "velocity": 0.7874015748031497,
                    "duration": 0.20000000000000284
                },
                {
                    "name": "E3",
                    "midi": 52,
                    "time": 49.00000000000014,
                    "velocity": 0.7874015748031497,
                    "duration": 0.10000000000000142
                },
                {
                    "name": "F3",
                    "midi": 53,
                    "time": 49.10000000000014,
                    "velocity": 0.7874015748031497,
                    "duration": 0.10000000000000142
                },
                {
                    "name": "F3",
                    "midi": 53,
                    "time": 49.200000000000145,
                    "velocity": 0.7874015748031497,
                    "duration": 0.20000000000000284
                },
                {
                    "name": "D3",
                    "midi": 50,
                    "time": 49.40000000000015,
                    "velocity": 0.7874015748031497,
                    "duration": 0.20000000000000284
                },
                {
                    "name": "E3",
                    "midi": 52,
                    "time": 49.60000000000015,
                    "velocity": 0.7874015748031497,
                    "duration": 0.20000000000000284
                },
                {
                    "name": "C3",
                    "midi": 48,
                    "time": 49.80000000000015,
                    "velocity": 0.7874015748031497,
                    "duration": 0.20000000000000284
                },
                {
                    "name": "C2",
                    "midi": 36,
                    "time": 50.000000000000156,
                    "velocity": 0.7874015748031497,
                    "duration": 0.20000000000000284
                },
                {
                    "name": "B2",
                    "midi": 47,
                    "time": 50.20000000000016,
                    "velocity": 0.7874015748031497,
                    "duration": 0.20000000000000284
                },
                {
                    "name": "C#3",
                    "midi": 49,
                    "time": 50.40000000000016,
                    "velocity": 0.7874015748031497,
                    "duration": 0.20000000000000284
                },
                {
                    "name": "E3",
                    "midi": 52,
                    "time": 50.600000000000165,
                    "velocity": 0.7874015748031497,
                    "duration": 0.20000000000000284
                },
                {
                    "name": "A3",
                    "midi": 57,
                    "time": 50.80000000000017,
                    "velocity": 0.7874015748031497,
                    "duration": 0.3999999999999986
                },
                {
                    "name": "E3",
                    "midi": 52,
                    "time": 51.200000000000166,
                    "velocity": 0.7874015748031497,
                    "duration": 0.20000000000000284
                },
                {
                    "name": "F#3",
                    "midi": 54,
                    "time": 51.40000000000017,
                    "velocity": 0.7874015748031497,
                    "duration": 0.10000000000000142
                },
                {
                    "name": "G3",
                    "midi": 55,
                    "time": 51.50000000000017,
                    "velocity": 0.7874015748031497,
                    "duration": 0.10000000000000142
                },
                {
                    "name": "G3",
                    "midi": 55,
                    "time": 51.60000000000017,
                    "velocity": 0.7874015748031497,
                    "duration": 0.20000000000000284
                },
                {
                    "name": "E3",
                    "midi": 52,
                    "time": 51.800000000000175,
                    "velocity": 0.7874015748031497,
                    "duration": 0.20000000000000284
                },
                {
                    "name": "F#3",
                    "midi": 54,
                    "time": 52.00000000000018,
                    "velocity": 0.7874015748031497,
                    "duration": 0.20000000000000284
                },
                {
                    "name": "D3",
                    "midi": 50,
                    "time": 52.20000000000018,
                    "velocity": 0.7874015748031497,
                    "duration": 0.20000000000000284
                },
                {
                    "name": "D2",
                    "midi": 38,
                    "time": 52.40000000000018,
                    "velocity": 0.7874015748031497,
                    "duration": 0.20000000000000284
                },
                {
                    "name": "A2",
                    "midi": 45,
                    "time": 52.600000000000186,
                    "velocity": 0.7874015748031497,
                    "duration": 0.20000000000000284
                },
                {
                    "name": "D3",
                    "midi": 50,
                    "time": 52.80000000000019,
                    "velocity": 0.7874015748031497,
                    "duration": 0.20000000000000284
                },
                {
                    "name": "F#3",
                    "midi": 54,
                    "time": 53.00000000000019,
                    "velocity": 0.7874015748031497,
                    "duration": 0.20000000000000284
                },
                {
                    "name": "A3",
                    "midi": 57,
                    "time": 53.200000000000195,
                    "velocity": 0.7874015748031497,
                    "duration": 0.20000000000000284
                },
                {
                    "name": "C4",
                    "midi": 60,
                    "time": 53.4000000000002,
                    "velocity": 0.7874015748031497,
                    "duration": 0.20000000000000284
                },
                {
                    "name": "B3",
                    "midi": 59,
                    "time": 53.6000000000002,
                    "velocity": 0.7874015748031497,
                    "duration": 0.20000000000000284
                },
                {
                    "name": "D4",
                    "midi": 62,
                    "time": 53.8000000000002,
                    "velocity": 0.7874015748031497,
                    "duration": 0.20000000000000284
                },
                {
                    "name": "E3",
                    "midi": 52,
                    "time": 54.000000000000206,
                    "velocity": 0.7874015748031497,
                    "duration": 0.20000000000000284
                },
                {
                    "name": "G3",
                    "midi": 55,
                    "time": 54.20000000000021,
                    "velocity": 0.7874015748031497,
                    "duration": 0.20000000000000284
                },
                {
                    "name": "B3",
                    "midi": 59,
                    "time": 54.40000000000021,
                    "velocity": 0.7874015748031497,
                    "duration": 0.20000000000000284
                },
                {
                    "name": "D4",
                    "midi": 62,
                    "time": 54.600000000000215,
                    "velocity": 0.7874015748031497,
                    "duration": 0.20000000000000284
                },
                {
                    "name": "C4",
                    "midi": 60,
                    "time": 54.80000000000022,
                    "velocity": 0.7874015748031497,
                    "duration": 0.20000000000000284
                },
                {
                    "name": "E4",
                    "midi": 64,
                    "time": 55.00000000000022,
                    "velocity": 0.7874015748031497,
                    "duration": 0.20000000000000284
                },
                {
                    "name": "D4",
                    "midi": 62,
                    "time": 55.20000000000022,
                    "velocity": 0.7874015748031497,
                    "duration": 0.20000000000000284
                },
                {
                    "name": "F#3",
                    "midi": 54,
                    "time": 55.400000000000226,
                    "velocity": 0.7874015748031497,
                    "duration": 0.20000000000000284
                },
                {
                    "name": "G3",
                    "midi": 55,
                    "time": 55.60000000000023,
                    "velocity": 0.7874015748031497,
                    "duration": 0.20000000000000284
                },
                {
                    "name": "B2",
                    "midi": 47,
                    "time": 55.80000000000023,
                    "velocity": 0.7874015748031497,
                    "duration": 0.20000000000000284
                },
                {
                    "name": "D2",
                    "midi": 38,
                    "time": 56.000000000000234,
                    "velocity": 0.7874015748031497,
                    "duration": 0.20000000000000284
                },
                {
                    "name": "F#3",
                    "midi": 54,
                    "time": 56.20000000000024,
                    "velocity": 0.7874015748031497,
                    "duration": 0.20000000000000284
                },
                {
                    "name": "G3",
                    "midi": 55,
                    "time": 56.40000000000024,
                    "velocity": 0.7874015748031497,
                    "duration": 1.2000000000000028
                },
                {
                    "name": "A#3",
                    "midi": 58,
                    "time": 57.60000000000024,
                    "velocity": 0.7874015748031497,
                    "duration": 0.20000000000000284
                },
                {
                    "name": "A3",
                    "midi": 57,
                    "time": 57.800000000000246,
                    "velocity": 0.7874015748031497,
                    "duration": 0.20000000000000284
                },
                {
                    "name": "A#3",
                    "midi": 58,
                    "time": 58.00000000000025,
                    "velocity": 0.7874015748031497,
                    "duration": 0.20000000000000284
                },
                {
                    "name": "D3",
                    "midi": 50,
                    "time": 58.20000000000025,
                    "velocity": 0.7874015748031497,
                    "duration": 0.20000000000000284
                },
                {
                    "name": "D#3",
                    "midi": 51,
                    "time": 58.400000000000254,
                    "velocity": 0.7874015748031497,
                    "duration": 0.20000000000000284
                },
                {
                    "name": "G2",
                    "midi": 43,
                    "time": 58.60000000000026,
                    "velocity": 0.7874015748031497,
                    "duration": 0.20000000000000284
                },
                {
                    "name": "F2",
                    "midi": 41,
                    "time": 58.80000000000026,
                    "velocity": 0.7874015748031497,
                    "duration": 0.3999999999999986
                },
                {
                    "name": "A3",
                    "midi": 57,
                    "time": 59.20000000000026,
                    "velocity": 0.7874015748031497,
                    "duration": 0.3999999999999986
                },
                {
                    "name": "D3",
                    "midi": 50,
                    "time": 59.60000000000026,
                    "velocity": 0.7874015748031497,
                    "duration": 0.3999999999999986
                },
                {
                    "name": "G3",
                    "midi": 55,
                    "time": 60.000000000000256,
                    "velocity": 0.7874015748031497,
                    "duration": 0.20000000000000284
                },
                {
                    "name": "F#3",
                    "midi": 54,
                    "time": 60.20000000000026,
                    "velocity": 0.7874015748031497,
                    "duration": 0.20000000000000284
                },
                {
                    "name": "G3",
                    "midi": 55,
                    "time": 60.40000000000026,
                    "velocity": 0.7874015748031497,
                    "duration": 0.20000000000000284
                },
                {
                    "name": "A#2",
                    "midi": 46,
                    "time": 60.600000000000264,
                    "velocity": 0.7874015748031497,
                    "duration": 0.20000000000000284
                },
                {
                    "name": "C3",
                    "midi": 48,
                    "time": 60.80000000000027,
                    "velocity": 0.7874015748031497,
                    "duration": 0.20000000000000284
                },
                {
                    "name": "D#2",
                    "midi": 39,
                    "time": 61.00000000000027,
                    "velocity": 0.7874015748031497,
                    "duration": 0.20000000000000284
                },
                {
                    "name": "D2",
                    "midi": 38,
                    "time": 61.20000000000027,
                    "velocity": 0.7874015748031497,
                    "duration": 0.20000000000000284
                },
                {
                    "name": "A2",
                    "midi": 45,
                    "time": 61.400000000000276,
                    "velocity": 0.7874015748031497,
                    "duration": 0.20000000000000284
                },
                {
                    "name": "D3",
                    "midi": 50,
                    "time": 61.60000000000028,
                    "velocity": 0.7874015748031497,
                    "duration": 0.20000000000000284
                },
                {
                    "name": "G3",
                    "midi": 55,
                    "time": 61.80000000000028,
                    "velocity": 0.7874015748031497,
                    "duration": 0.20000000000000284
                },
                {
                    "name": "F#3",
                    "midi": 54,
                    "time": 62.000000000000284,
                    "velocity": 0.7874015748031497,
                    "duration": 0.20000000000000284
                },
                {
                    "name": "A3",
                    "midi": 57,
                    "time": 62.20000000000029,
                    "velocity": 0.7874015748031497,
                    "duration": 0.20000000000000284
                },
                {
                    "name": "A#3",
                    "midi": 58,
                    "time": 62.40000000000029,
                    "velocity": 0.7874015748031497,
                    "duration": 0.20000000000000284
                },
                {
                    "name": "A3",
                    "midi": 57,
                    "time": 62.60000000000029,
                    "velocity": 0.7874015748031497,
                    "duration": 0.20000000000000284
                },
                {
                    "name": "A#3",
                    "midi": 58,
                    "time": 62.800000000000296,
                    "velocity": 0.7874015748031497,
                    "duration": 0.20000000000000284
                },
                {
                    "name": "D3",
                    "midi": 50,
                    "time": 63.0000000000003,
                    "velocity": 0.7874015748031497,
                    "duration": 0.20000000000000284
                },
                {
                    "name": "D#3",
                    "midi": 51,
                    "time": 63.2000000000003,
                    "velocity": 0.7874015748031497,
                    "duration": 0.20000000000000284
                },
                {
                    "name": "G2",
                    "midi": 43,
                    "time": 63.400000000000304,
                    "velocity": 0.7874015748031497,
                    "duration": 0.20000000000000284
                },
                {
                    "name": "F2",
                    "midi": 41,
                    "time": 63.60000000000031,
                    "velocity": 0.7874015748031497,
                    "duration": 0.4000000000000057
                },
                {
                    "name": "A3",
                    "midi": 57,
                    "time": 64.00000000000031,
                    "velocity": 0.7874015748031497,
                    "duration": 0.4000000000000057
                },
                {
                    "name": "D3",
                    "midi": 50,
                    "time": 64.40000000000032,
                    "velocity": 0.7874015748031497,
                    "duration": 0.4000000000000057
                },
                {
                    "name": "G3",
                    "midi": 55,
                    "time": 64.80000000000032,
                    "velocity": 0.7874015748031497,
                    "duration": 0.20000000000000284
                },
                {
                    "name": "F#3",
                    "midi": 54,
                    "time": 65.00000000000033,
                    "velocity": 0.7874015748031497,
                    "duration": 0.20000000000000284
                },
                {
                    "name": "G3",
                    "midi": 55,
                    "time": 65.20000000000033,
                    "velocity": 0.7874015748031497,
                    "duration": 0.20000000000000284
                },
                {
                    "name": "A#2",
                    "midi": 46,
                    "time": 65.40000000000033,
                    "velocity": 0.7874015748031497,
                    "duration": 0.20000000000000284
                },
                {
                    "name": "C3",
                    "midi": 48,
                    "time": 65.60000000000034,
                    "velocity": 0.7874015748031497,
                    "duration": 0.20000000000000284
                },
                {
                    "name": "E2",
                    "midi": 40,
                    "time": 65.80000000000034,
                    "velocity": 0.7874015748031497,
                    "duration": 0.20000000000000284
                },
                {
                    "name": "D2",
                    "midi": 38,
                    "time": 66.00000000000034,
                    "velocity": 0.7874015748031497,
                    "duration": 0.20000000000000284
                },
                {
                    "name": "G3",
                    "midi": 55,
                    "time": 66.20000000000034,
                    "velocity": 0.7874015748031497,
                    "duration": 0.20000000000000284
                },
                {
                    "name": "F#3",
                    "midi": 54,
                    "time": 66.40000000000035,
                    "velocity": 0.7874015748031497,
                    "duration": 0.7999999999999972
                },
                {
                    "name": "A#3",
                    "midi": 58,
                    "time": 67.20000000000034,
                    "velocity": 0.7874015748031497,
                    "duration": 0.20000000000000284
                },
                {
                    "name": "A3",
                    "midi": 57,
                    "time": 67.40000000000035,
                    "velocity": 0.7874015748031497,
                    "duration": 0.20000000000000284
                },
                {
                    "name": "A#3",
                    "midi": 58,
                    "time": 67.60000000000035,
                    "velocity": 0.7874015748031497,
                    "duration": 0.20000000000000284
                },
                {
                    "name": "D3",
                    "midi": 50,
                    "time": 67.80000000000035,
                    "velocity": 0.7874015748031497,
                    "duration": 0.20000000000000284
                },
                {
                    "name": "D#3",
                    "midi": 51,
                    "time": 68.00000000000036,
                    "velocity": 0.7874015748031497,
                    "duration": 0.20000000000000284
                },
                {
                    "name": "G2",
                    "midi": 43,
                    "time": 68.20000000000036,
                    "velocity": 0.7874015748031497,
                    "duration": 0.20000000000000284
                },
                {
                    "name": "F2",
                    "midi": 41,
                    "time": 68.40000000000036,
                    "velocity": 0.7874015748031497,
                    "duration": 0.4000000000000057
                },
                {
                    "name": "A3",
                    "midi": 57,
                    "time": 68.80000000000037,
                    "velocity": 0.7874015748031497,
                    "duration": 0.4000000000000057
                },
                {
                    "name": "D3",
                    "midi": 50,
                    "time": 69.20000000000037,
                    "velocity": 0.7874015748031497,
                    "duration": 0.4000000000000057
                },
                {
                    "name": "G3",
                    "midi": 55,
                    "time": 69.60000000000038,
                    "velocity": 0.7874015748031497,
                    "duration": 0.20000000000000284
                },
                {
                    "name": "F#3",
                    "midi": 54,
                    "time": 69.80000000000038,
                    "velocity": 0.7874015748031497,
                    "duration": 0.20000000000000284
                },
                {
                    "name": "G3",
                    "midi": 55,
                    "time": 70.00000000000038,
                    "velocity": 0.7874015748031497,
                    "duration": 0.20000000000000284
                },
                {
                    "name": "A#2",
                    "midi": 46,
                    "time": 70.20000000000039,
                    "velocity": 0.7874015748031497,
                    "duration": 0.20000000000000284
                },
                {
                    "name": "C3",
                    "midi": 48,
                    "time": 70.40000000000039,
                    "velocity": 0.7874015748031497,
                    "duration": 0.20000000000000284
                },
                {
                    "name": "D#2",
                    "midi": 39,
                    "time": 70.60000000000039,
                    "velocity": 0.7874015748031497,
                    "duration": 0.20000000000000284
                },
                {
                    "name": "D2",
                    "midi": 38,
                    "time": 70.8000000000004,
                    "velocity": 0.7874015748031497,
                    "duration": 0.20000000000000284
                },
                {
                    "name": "A2",
                    "midi": 45,
                    "time": 71.0000000000004,
                    "velocity": 0.7874015748031497,
                    "duration": 0.20000000000000284
                },
                {
                    "name": "D3",
                    "midi": 50,
                    "time": 71.2000000000004,
                    "velocity": 0.7874015748031497,
                    "duration": 0.20000000000000284
                },
                {
                    "name": "G3",
                    "midi": 55,
                    "time": 71.4000000000004,
                    "velocity": 0.7874015748031497,
                    "duration": 0.20000000000000284
                },
                {
                    "name": "F#3",
                    "midi": 54,
                    "time": 71.6000000000004,
                    "velocity": 0.7874015748031497,
                    "duration": 0.20000000000000284
                },
                {
                    "name": "A3",
                    "midi": 57,
                    "time": 71.80000000000041,
                    "velocity": 0.7874015748031497,
                    "duration": 0.20000000000000284
                },
                {
                    "name": "A#3",
                    "midi": 58,
                    "time": 72.00000000000041,
                    "velocity": 0.7874015748031497,
                    "duration": 0.20000000000000284
                },
                {
                    "name": "A3",
                    "midi": 57,
                    "time": 72.20000000000041,
                    "velocity": 0.7874015748031497,
                    "duration": 0.20000000000000284
                },
                {
                    "name": "A#3",
                    "midi": 58,
                    "time": 72.40000000000042,
                    "velocity": 0.7874015748031497,
                    "duration": 0.20000000000000284
                },
                {
                    "name": "D3",
                    "midi": 50,
                    "time": 72.60000000000042,
                    "velocity": 0.7874015748031497,
                    "duration": 0.20000000000000284
                },
                {
                    "name": "D#3",
                    "midi": 51,
                    "time": 72.80000000000042,
                    "velocity": 0.7874015748031497,
                    "duration": 0.20000000000000284
                },
                {
                    "name": "G2",
                    "midi": 43,
                    "time": 73.00000000000043,
                    "velocity": 0.7874015748031497,
                    "duration": 0.20000000000000284
                },
                {
                    "name": "F2",
                    "midi": 41,
                    "time": 73.20000000000043,
                    "velocity": 0.7874015748031497,
                    "duration": 0.4000000000000057
                },
                {
                    "name": "A3",
                    "midi": 57,
                    "time": 73.60000000000043,
                    "velocity": 0.7874015748031497,
                    "duration": 0.4000000000000057
                },
                {
                    "name": "D3",
                    "midi": 50,
                    "time": 74.00000000000044,
                    "velocity": 0.7874015748031497,
                    "duration": 0.4000000000000057
                },
                {
                    "name": "G3",
                    "midi": 55,
                    "time": 74.40000000000045,
                    "velocity": 0.7874015748031497,
                    "duration": 0.20000000000000284
                },
                {
                    "name": "F#3",
                    "midi": 54,
                    "time": 74.60000000000045,
                    "velocity": 0.7874015748031497,
                    "duration": 0.20000000000000284
                },
                {
                    "name": "G3",
                    "midi": 55,
                    "time": 74.80000000000045,
                    "velocity": 0.7874015748031497,
                    "duration": 0.20000000000000284
                },
                {
                    "name": "A#2",
                    "midi": 46,
                    "time": 75.00000000000045,
                    "velocity": 0.7874015748031497,
                    "duration": 0.20000000000000284
                },
                {
                    "name": "C3",
                    "midi": 48,
                    "time": 75.20000000000046,
                    "velocity": 0.7874015748031497,
                    "duration": 0.20000000000000284
                },
                {
                    "name": "E2",
                    "midi": 40,
                    "time": 75.40000000000046,
                    "velocity": 0.7874015748031497,
                    "duration": 0.20000000000000284
                },
                {
                    "name": "D2",
                    "midi": 38,
                    "time": 75.60000000000046,
                    "velocity": 0.7874015748031497,
                    "duration": 0.20000000000000284
                },
                {
                    "name": "G3",
                    "midi": 55,
                    "time": 75.80000000000047,
                    "velocity": 0.7874015748031497,
                    "duration": 0.20000000000000284
                },
                {
                    "name": "F#3",
                    "midi": 54,
                    "time": 76.00000000000047,
                    "velocity": 0.7874015748031497,
                    "duration": 0.7999999999999972
                },
                {
                    "name": "D3",
                    "midi": 50,
                    "time": 76.80000000000047,
                    "velocity": 0.7874015748031497,
                    "duration": 0.20000000000000284
                },
                {
                    "name": "F#3",
                    "midi": 54,
                    "time": 77.00000000000047,
                    "velocity": 0.7874015748031497,
                    "duration": 0.20000000000000284
                },
                {
                    "name": "A3",
                    "midi": 57,
                    "time": 77.20000000000047,
                    "velocity": 0.7874015748031497,
                    "duration": 0.20000000000000284
                },
                {
                    "name": "C4",
                    "midi": 60,
                    "time": 77.40000000000047,
                    "velocity": 0.7874015748031497,
                    "duration": 0.20000000000000284
                },
                {
                    "name": "D#4",
                    "midi": 63,
                    "time": 77.60000000000048,
                    "velocity": 0.7874015748031497,
                    "duration": 0.20000000000000284
                },
                {
                    "name": "D4",
                    "midi": 62,
                    "time": 77.80000000000048,
                    "velocity": 0.7874015748031497,
                    "duration": 0.20000000000000284
                },
                {
                    "name": "C4",
                    "midi": 60,
                    "time": 78.00000000000048,
                    "velocity": 0.7874015748031497,
                    "duration": 0.20000000000000284
                },
                {
                    "name": "A#3",
                    "midi": 58,
                    "time": 78.20000000000049,
                    "velocity": 0.7874015748031497,
                    "duration": 0.20000000000000284
                },
                {
                    "name": "A3",
                    "midi": 57,
                    "time": 78.40000000000049,
                    "velocity": 0.7874015748031497,
                    "duration": 0.20000000000000284
                },
                {
                    "name": "A#3",
                    "midi": 58,
                    "time": 78.60000000000049,
                    "velocity": 0.7874015748031497,
                    "duration": 0.20000000000000284
                },
                {
                    "name": "G3",
                    "midi": 55,
                    "time": 78.8000000000005,
                    "velocity": 0.7874015748031497,
                    "duration": 0.4000000000000057
                },
                {
                    "name": "C3",
                    "midi": 48,
                    "time": 79.2000000000005,
                    "velocity": 0.7874015748031497,
                    "duration": 0.20000000000000284
                },
                {
                    "name": "E3",
                    "midi": 52,
                    "time": 79.4000000000005,
                    "velocity": 0.7874015748031497,
                    "duration": 0.20000000000000284
                },
                {
                    "name": "G3",
                    "midi": 55,
                    "time": 79.6000000000005,
                    "velocity": 0.7874015748031497,
                    "duration": 0.20000000000000284
                },
                {
                    "name": "A#3",
                    "midi": 58,
                    "time": 79.80000000000051,
                    "velocity": 0.7874015748031497,
                    "duration": 0.20000000000000284
                },
                {
                    "name": "D4",
                    "midi": 62,
                    "time": 80.00000000000051,
                    "velocity": 0.7874015748031497,
                    "duration": 0.20000000000000284
                },
                {
                    "name": "C4",
                    "midi": 60,
                    "time": 80.20000000000051,
                    "velocity": 0.7874015748031497,
                    "duration": 0.20000000000000284
                },
                {
                    "name": "A#3",
                    "midi": 58,
                    "time": 80.40000000000052,
                    "velocity": 0.7874015748031497,
                    "duration": 0.20000000000000284
                },
                {
                    "name": "A3",
                    "midi": 57,
                    "time": 80.60000000000052,
                    "velocity": 0.7874015748031497,
                    "duration": 0.20000000000000284
                },
                {
                    "name": "G3",
                    "midi": 55,
                    "time": 80.80000000000052,
                    "velocity": 0.7874015748031497,
                    "duration": 0.20000000000000284
                },
                {
                    "name": "A3",
                    "midi": 57,
                    "time": 81.00000000000053,
                    "velocity": 0.7874015748031497,
                    "duration": 0.20000000000000284
                },
                {
                    "name": "F3",
                    "midi": 53,
                    "time": 81.20000000000053,
                    "velocity": 0.7874015748031497,
                    "duration": 0.20000000000000284
                },
                {
                    "name": "D#3",
                    "midi": 51,
                    "time": 81.40000000000053,
                    "velocity": 0.7874015748031497,
                    "duration": 0.20000000000000284
                },
                {
                    "name": "D3",
                    "midi": 50,
                    "time": 81.60000000000053,
                    "velocity": 0.7874015748031497,
                    "duration": 0.20000000000000284
                },
                {
                    "name": "F3",
                    "midi": 53,
                    "time": 81.80000000000054,
                    "velocity": 0.7874015748031497,
                    "duration": 0.20000000000000284
                },
                {
                    "name": "A#3",
                    "midi": 58,
                    "time": 82.00000000000054,
                    "velocity": 0.7874015748031497,
                    "duration": 0.20000000000000284
                },
                {
                    "name": "A3",
                    "midi": 57,
                    "time": 82.20000000000054,
                    "velocity": 0.7874015748031497,
                    "duration": 0.20000000000000284
                },
                {
                    "name": "A#3",
                    "midi": 58,
                    "time": 82.40000000000055,
                    "velocity": 0.7874015748031497,
                    "duration": 0.20000000000000284
                },
                {
                    "name": "D3",
                    "midi": 50,
                    "time": 82.60000000000055,
                    "velocity": 0.7874015748031497,
                    "duration": 0.20000000000000284
                },
                {
                    "name": "D#3",
                    "midi": 51,
                    "time": 82.80000000000055,
                    "velocity": 0.7874015748031497,
                    "duration": 0.20000000000000284
                },
                {
                    "name": "G3",
                    "midi": 55,
                    "time": 83.00000000000055,
                    "velocity": 0.7874015748031497,
                    "duration": 0.20000000000000284
                },
                {
                    "name": "A#3",
                    "midi": 58,
                    "time": 83.20000000000056,
                    "velocity": 0.7874015748031497,
                    "duration": 0.20000000000000284
                },
                {
                    "name": "A3",
                    "midi": 57,
                    "time": 83.40000000000056,
                    "velocity": 0.7874015748031497,
                    "duration": 0.20000000000000284
                },
                {
                    "name": "A#3",
                    "midi": 58,
                    "time": 83.60000000000056,
                    "velocity": 0.7874015748031497,
                    "duration": 0.20000000000000284
                },
                {
                    "name": "D4",
                    "midi": 62,
                    "time": 83.80000000000057,
                    "velocity": 0.7874015748031497,
                    "duration": 0.20000000000000284
                },
                {
                    "name": "C4",
                    "midi": 60,
                    "time": 84.00000000000057,
                    "velocity": 0.7874015748031497,
                    "duration": 0.20000000000000284
                },
                {
                    "name": "D#4",
                    "midi": 63,
                    "time": 84.20000000000057,
                    "velocity": 0.7874015748031497,
                    "duration": 0.20000000000000284
                },
                {
                    "name": "D4",
                    "midi": 62,
                    "time": 84.40000000000057,
                    "velocity": 0.7874015748031497,
                    "duration": 0.20000000000000284
                },
                {
                    "name": "A#3",
                    "midi": 58,
                    "time": 84.60000000000058,
                    "velocity": 0.7874015748031497,
                    "duration": 0.20000000000000284
                },
                {
                    "name": "F3",
                    "midi": 53,
                    "time": 84.80000000000058,
                    "velocity": 0.7874015748031497,
                    "duration": 0.20000000000000284
                },
                {
                    "name": "A3",
                    "midi": 57,
                    "time": 85.00000000000058,
                    "velocity": 0.7874015748031497,
                    "duration": 0.20000000000000284
                },
                {
                    "name": "A#3",
                    "midi": 58,
                    "time": 85.20000000000059,
                    "velocity": 0.7874015748031497,
                    "duration": 0.20000000000000284
                },
                {
                    "name": "F3",
                    "midi": 53,
                    "time": 85.40000000000059,
                    "velocity": 0.7874015748031497,
                    "duration": 0.20000000000000284
                },
                {
                    "name": "D3",
                    "midi": 50,
                    "time": 85.60000000000059,
                    "velocity": 0.7874015748031497,
                    "duration": 0.20000000000000284
                },
                {
                    "name": "F3",
                    "midi": 53,
                    "time": 85.8000000000006,
                    "velocity": 0.7874015748031497,
                    "duration": 0.20000000000000284
                },
                {
                    "name": "A#2",
                    "midi": 46,
                    "time": 86.0000000000006,
                    "velocity": 0.7874015748031497,
                    "duration": 0.4000000000000057
                },
                {
                    "name": "B2",
                    "midi": 47,
                    "time": 86.4000000000006,
                    "velocity": 0.7874015748031497,
                    "duration": 0.20000000000000284
                },
                {
                    "name": "D3",
                    "midi": 50,
                    "time": 86.6000000000006,
                    "velocity": 0.7874015748031497,
                    "duration": 0.20000000000000284
                },
                {
                    "name": "F3",
                    "midi": 53,
                    "time": 86.80000000000061,
                    "velocity": 0.7874015748031497,
                    "duration": 0.20000000000000284
                },
                {
                    "name": "G#3",
                    "midi": 56,
                    "time": 87.00000000000061,
                    "velocity": 0.7874015748031497,
                    "duration": 0.20000000000000284
                },
                {
                    "name": "G3",
                    "midi": 55,
                    "time": 87.20000000000061,
                    "velocity": 0.7874015748031497,
                    "duration": 0.20000000000000284
                },
                {
                    "name": "F3",
                    "midi": 53,
                    "time": 87.40000000000062,
                    "velocity": 0.7874015748031497,
                    "duration": 0.20000000000000284
                },
                {
                    "name": "D#3",
                    "midi": 51,
                    "time": 87.60000000000062,
                    "velocity": 0.7874015748031497,
                    "duration": 0.20000000000000284
                },
                {
                    "name": "G3",
                    "midi": 55,
                    "time": 87.80000000000062,
                    "velocity": 0.7874015748031497,
                    "duration": 0.20000000000000284
                },
                {
                    "name": "C4",
                    "midi": 60,
                    "time": 88.00000000000063,
                    "velocity": 0.7874015748031497,
                    "duration": 0.20000000000000284
                },
                {
                    "name": "D4",
                    "midi": 62,
                    "time": 88.20000000000063,
                    "velocity": 0.7874015748031497,
                    "duration": 0.20000000000000284
                },
                {
                    "name": "D#4",
                    "midi": 63,
                    "time": 88.40000000000063,
                    "velocity": 0.7874015748031497,
                    "duration": 0.4000000000000057
                },
                {
                    "name": "A2",
                    "midi": 45,
                    "time": 88.80000000000064,
                    "velocity": 0.7874015748031497,
                    "duration": 0.20000000000000284
                },
                {
                    "name": "C3",
                    "midi": 48,
                    "time": 89.00000000000064,
                    "velocity": 0.7874015748031497,
                    "duration": 0.20000000000000284
                },
                {
                    "name": "D#3",
                    "midi": 51,
                    "time": 89.20000000000064,
                    "velocity": 0.7874015748031497,
                    "duration": 0.20000000000000284
                },
                {
                    "name": "G3",
                    "midi": 55,
                    "time": 89.40000000000065,
                    "velocity": 0.7874015748031497,
                    "duration": 0.20000000000000284
                },
                {
                    "name": "F3",
                    "midi": 53,
                    "time": 89.60000000000065,
                    "velocity": 0.7874015748031497,
                    "duration": 0.20000000000000284
                },
                {
                    "name": "D#3",
                    "midi": 51,
                    "time": 89.80000000000065,
                    "velocity": 0.7874015748031497,
                    "duration": 0.20000000000000284
                },
                {
                    "name": "D3",
                    "midi": 50,
                    "time": 90.00000000000065,
                    "velocity": 0.7874015748031497,
                    "duration": 0.20000000000000284
                },
                {
                    "name": "F3",
                    "midi": 53,
                    "time": 90.20000000000066,
                    "velocity": 0.7874015748031497,
                    "duration": 0.20000000000000284
                },
                {
                    "name": "A#3",
                    "midi": 58,
                    "time": 90.40000000000066,
                    "velocity": 0.7874015748031497,
                    "duration": 0.20000000000000284
                },
                {
                    "name": "C4",
                    "midi": 60,
                    "time": 90.60000000000066,
                    "velocity": 0.7874015748031497,
                    "duration": 0.20000000000000284
                },
                {
                    "name": "D4",
                    "midi": 62,
                    "time": 90.80000000000067,
                    "velocity": 0.7874015748031497,
                    "duration": 0.4000000000000057
                },
                {
                    "name": "F#2",
                    "midi": 42,
                    "time": 91.20000000000067,
                    "velocity": 0.7874015748031497,
                    "duration": 0.20000000000000284
                },
                {
                    "name": "A2",
                    "midi": 45,
                    "time": 91.40000000000067,
                    "velocity": 0.7874015748031497,
                    "duration": 0.20000000000000284
                },
                {
                    "name": "C3",
                    "midi": 48,
                    "time": 91.60000000000068,
                    "velocity": 0.7874015748031497,
                    "duration": 0.20000000000000284
                },
                {
                    "name": "D#3",
                    "midi": 51,
                    "time": 91.80000000000068,
                    "velocity": 0.7874015748031497,
                    "duration": 0.20000000000000284
                },
                {
                    "name": "D3",
                    "midi": 50,
                    "time": 92.00000000000068,
                    "velocity": 0.7874015748031497,
                    "duration": 0.20000000000000284
                },
                {
                    "name": "C3",
                    "midi": 48,
                    "time": 92.20000000000068,
                    "velocity": 0.7874015748031497,
                    "duration": 0.20000000000000284
                },
                {
                    "name": "A#2",
                    "midi": 46,
                    "time": 92.40000000000069,
                    "velocity": 0.7874015748031497,
                    "duration": 0.20000000000000284
                },
                {
                    "name": "D3",
                    "midi": 50,
                    "time": 92.60000000000069,
                    "velocity": 0.7874015748031497,
                    "duration": 0.20000000000000284
                },
                {
                    "name": "G3",
                    "midi": 55,
                    "time": 92.8000000000007,
                    "velocity": 0.7874015748031497,
                    "duration": 0.20000000000000284
                },
                {
                    "name": "A3",
                    "midi": 57,
                    "time": 93.0000000000007,
                    "velocity": 0.7874015748031497,
                    "duration": 0.20000000000000284
                },
                {
                    "name": "A#3",
                    "midi": 58,
                    "time": 93.2000000000007,
                    "velocity": 0.7874015748031497,
                    "duration": 0.20000000000000284
                },
                {
                    "name": "G3",
                    "midi": 55,
                    "time": 93.4000000000007,
                    "velocity": 0.7874015748031497,
                    "duration": 0.20000000000000284
                },
                {
                    "name": "C3",
                    "midi": 48,
                    "time": 93.6000000000007,
                    "velocity": 0.7874015748031497,
                    "duration": 0.20000000000000284
                },
                {
                    "name": "A#3",
                    "midi": 58,
                    "time": 93.80000000000071,
                    "velocity": 0.7874015748031497,
                    "duration": 0.20000000000000284
                },
                {
                    "name": "A3",
                    "midi": 57,
                    "time": 94.00000000000071,
                    "velocity": 0.7874015748031497,
                    "duration": 0.20000000000000284
                },
                {
                    "name": "G3",
                    "midi": 55,
                    "time": 94.20000000000071,
                    "velocity": 0.7874015748031497,
                    "duration": 0.20000000000000284
                },
                {
                    "name": "D3",
                    "midi": 50,
                    "time": 94.40000000000072,
                    "velocity": 0.7874015748031497,
                    "duration": 0.20000000000000284
                },
                {
                    "name": "F#3",
                    "midi": 54,
                    "time": 94.60000000000072,
                    "velocity": 0.7874015748031497,
                    "duration": 0.20000000000000284
                },
                {
                    "name": "G2",
                    "midi": 43,
                    "time": 94.80000000000072,
                    "velocity": 0.7874015748031497,
                    "duration": 1.2000000000000028
                },
                {
                    "name": "D3",
                    "midi": 50,
                    "time": 96.00000000000072,
                    "velocity": 0.7874015748031497,
                    "duration": 0.20000000000000284
                },
                {
                    "name": "F#3",
                    "midi": 54,
                    "time": 96.20000000000073,
                    "velocity": 0.7874015748031497,
                    "duration": 0.20000000000000284
                },
                {
                    "name": "A3",
                    "midi": 57,
                    "time": 96.40000000000073,
                    "velocity": 0.7874015748031497,
                    "duration": 0.20000000000000284
                },
                {
                    "name": "C4",
                    "midi": 60,
                    "time": 96.60000000000073,
                    "velocity": 0.7874015748031497,
                    "duration": 0.20000000000000284
                },
                {
                    "name": "D#4",
                    "midi": 63,
                    "time": 96.80000000000074,
                    "velocity": 0.7874015748031497,
                    "duration": 0.20000000000000284
                },
                {
                    "name": "D4",
                    "midi": 62,
                    "time": 97.00000000000074,
                    "velocity": 0.7874015748031497,
                    "duration": 0.20000000000000284
                },
                {
                    "name": "C4",
                    "midi": 60,
                    "time": 97.20000000000074,
                    "velocity": 0.7874015748031497,
                    "duration": 0.20000000000000284
                },
                {
                    "name": "A#3",
                    "midi": 58,
                    "time": 97.40000000000074,
                    "velocity": 0.7874015748031497,
                    "duration": 0.20000000000000284
                },
                {
                    "name": "A3",
                    "midi": 57,
                    "time": 97.60000000000075,
                    "velocity": 0.7874015748031497,
                    "duration": 0.20000000000000284
                },
                {
                    "name": "A#3",
                    "midi": 58,
                    "time": 97.80000000000075,
                    "velocity": 0.7874015748031497,
                    "duration": 0.20000000000000284
                },
                {
                    "name": "G3",
                    "midi": 55,
                    "time": 98.00000000000075,
                    "velocity": 0.7874015748031497,
                    "duration": 0.4000000000000057
                },
                {
                    "name": "C3",
                    "midi": 48,
                    "time": 98.40000000000076,
                    "velocity": 0.7874015748031497,
                    "duration": 0.20000000000000284
                },
                {
                    "name": "E3",
                    "midi": 52,
                    "time": 98.60000000000076,
                    "velocity": 0.7874015748031497,
                    "duration": 0.20000000000000284
                },
                {
                    "name": "G3",
                    "midi": 55,
                    "time": 98.80000000000076,
                    "velocity": 0.7874015748031497,
                    "duration": 0.20000000000000284
                },
                {
                    "name": "A#3",
                    "midi": 58,
                    "time": 99.00000000000077,
                    "velocity": 0.7874015748031497,
                    "duration": 0.20000000000000284
                },
                {
                    "name": "D4",
                    "midi": 62,
                    "time": 99.20000000000077,
                    "velocity": 0.7874015748031497,
                    "duration": 0.20000000000000284
                },
                {
                    "name": "C4",
                    "midi": 60,
                    "time": 99.40000000000077,
                    "velocity": 0.7874015748031497,
                    "duration": 0.20000000000000284
                },
                {
                    "name": "A#3",
                    "midi": 58,
                    "time": 99.60000000000078,
                    "velocity": 0.7874015748031497,
                    "duration": 0.20000000000000284
                },
                {
                    "name": "A3",
                    "midi": 57,
                    "time": 99.80000000000078,
                    "velocity": 0.7874015748031497,
                    "duration": 0.20000000000000284
                },
                {
                    "name": "G3",
                    "midi": 55,
                    "time": 100.00000000000078,
                    "velocity": 0.7874015748031497,
                    "duration": 0.20000000000000284
                },
                {
                    "name": "A3",
                    "midi": 57,
                    "time": 100.20000000000078,
                    "velocity": 0.7874015748031497,
                    "duration": 0.20000000000000284
                },
                {
                    "name": "F3",
                    "midi": 53,
                    "time": 100.40000000000079,
                    "velocity": 0.7874015748031497,
                    "duration": 0.20000000000000284
                },
                {
                    "name": "D#3",
                    "midi": 51,
                    "time": 100.60000000000079,
                    "velocity": 0.7874015748031497,
                    "duration": 0.20000000000000284
                },
                {
                    "name": "D3",
                    "midi": 50,
                    "time": 100.8000000000008,
                    "velocity": 0.7874015748031497,
                    "duration": 0.20000000000000284
                },
                {
                    "name": "F3",
                    "midi": 53,
                    "time": 101.0000000000008,
                    "velocity": 0.7874015748031497,
                    "duration": 0.20000000000000284
                },
                {
                    "name": "A#3",
                    "midi": 58,
                    "time": 101.2000000000008,
                    "velocity": 0.7874015748031497,
                    "duration": 0.20000000000000284
                },
                {
                    "name": "A3",
                    "midi": 57,
                    "time": 101.4000000000008,
                    "velocity": 0.7874015748031497,
                    "duration": 0.20000000000000284
                },
                {
                    "name": "A#3",
                    "midi": 58,
                    "time": 101.6000000000008,
                    "velocity": 0.7874015748031497,
                    "duration": 0.20000000000000284
                },
                {
                    "name": "D3",
                    "midi": 50,
                    "time": 101.80000000000081,
                    "velocity": 0.7874015748031497,
                    "duration": 0.20000000000000284
                },
                {
                    "name": "D#3",
                    "midi": 51,
                    "time": 102.00000000000081,
                    "velocity": 0.7874015748031497,
                    "duration": 0.20000000000000284
                },
                {
                    "name": "G3",
                    "midi": 55,
                    "time": 102.20000000000081,
                    "velocity": 0.7874015748031497,
                    "duration": 0.20000000000000284
                },
                {
                    "name": "A#3",
                    "midi": 58,
                    "time": 102.40000000000082,
                    "velocity": 0.7874015748031497,
                    "duration": 0.20000000000000284
                },
                {
                    "name": "A3",
                    "midi": 57,
                    "time": 102.60000000000082,
                    "velocity": 0.7874015748031497,
                    "duration": 0.20000000000000284
                },
                {
                    "name": "A#3",
                    "midi": 58,
                    "time": 102.80000000000082,
                    "velocity": 0.7874015748031497,
                    "duration": 0.20000000000000284
                },
                {
                    "name": "D4",
                    "midi": 62,
                    "time": 103.00000000000082,
                    "velocity": 0.7874015748031497,
                    "duration": 0.20000000000000284
                },
                {
                    "name": "C4",
                    "midi": 60,
                    "time": 103.20000000000083,
                    "velocity": 0.7874015748031497,
                    "duration": 0.20000000000000284
                },
                {
                    "name": "D#4",
                    "midi": 63,
                    "time": 103.40000000000083,
                    "velocity": 0.7874015748031497,
                    "duration": 0.20000000000000284
                },
                {
                    "name": "D4",
                    "midi": 62,
                    "time": 103.60000000000083,
                    "velocity": 0.7874015748031497,
                    "duration": 0.20000000000000284
                },
                {
                    "name": "A#3",
                    "midi": 58,
                    "time": 103.80000000000084,
                    "velocity": 0.7874015748031497,
                    "duration": 0.20000000000000284
                },
                {
                    "name": "F3",
                    "midi": 53,
                    "time": 104.00000000000084,
                    "velocity": 0.7874015748031497,
                    "duration": 0.20000000000000284
                },
                {
                    "name": "A3",
                    "midi": 57,
                    "time": 104.20000000000084,
                    "velocity": 0.7874015748031497,
                    "duration": 0.20000000000000284
                },
                {
                    "name": "A#3",
                    "midi": 58,
                    "time": 104.40000000000084,
                    "velocity": 0.7874015748031497,
                    "duration": 0.20000000000000284
                },
                {
                    "name": "F3",
                    "midi": 53,
                    "time": 104.60000000000085,
                    "velocity": 0.7874015748031497,
                    "duration": 0.20000000000000284
                },
                {
                    "name": "D3",
                    "midi": 50,
                    "time": 104.80000000000085,
                    "velocity": 0.7874015748031497,
                    "duration": 0.20000000000000284
                },
                {
                    "name": "F3",
                    "midi": 53,
                    "time": 105.00000000000085,
                    "velocity": 0.7874015748031497,
                    "duration": 0.20000000000000284
                },
                {
                    "name": "A#2",
                    "midi": 46,
                    "time": 105.20000000000086,
                    "velocity": 0.7874015748031497,
                    "duration": 0.4000000000000057
                },
                {
                    "name": "B2",
                    "midi": 47,
                    "time": 105.60000000000086,
                    "velocity": 0.7874015748031497,
                    "duration": 0.20000000000000284
                },
                {
                    "name": "D3",
                    "midi": 50,
                    "time": 105.80000000000086,
                    "velocity": 0.7874015748031497,
                    "duration": 0.20000000000000284
                },
                {
                    "name": "F3",
                    "midi": 53,
                    "time": 106.00000000000087,
                    "velocity": 0.7874015748031497,
                    "duration": 0.20000000000000284
                },
                {
                    "name": "G#3",
                    "midi": 56,
                    "time": 106.20000000000087,
                    "velocity": 0.7874015748031497,
                    "duration": 0.20000000000000284
                },
                {
                    "name": "G3",
                    "midi": 55,
                    "time": 106.40000000000087,
                    "velocity": 0.7874015748031497,
                    "duration": 0.20000000000000284
                },
                {
                    "name": "F3",
                    "midi": 53,
                    "time": 106.60000000000088,
                    "velocity": 0.7874015748031497,
                    "duration": 0.20000000000000284
                },
                {
                    "name": "D#3",
                    "midi": 51,
                    "time": 106.80000000000088,
                    "velocity": 0.7874015748031497,
                    "duration": 0.20000000000000284
                },
                {
                    "name": "G3",
                    "midi": 55,
                    "time": 107.00000000000088,
                    "velocity": 0.7874015748031497,
                    "duration": 0.20000000000000284
                },
                {
                    "name": "C4",
                    "midi": 60,
                    "time": 107.20000000000088,
                    "velocity": 0.7874015748031497,
                    "duration": 0.20000000000000284
                },
                {
                    "name": "D4",
                    "midi": 62,
                    "time": 107.40000000000089,
                    "velocity": 0.7874015748031497,
                    "duration": 0.20000000000000284
                },
                {
                    "name": "D#4",
                    "midi": 63,
                    "time": 107.60000000000089,
                    "velocity": 0.7874015748031497,
                    "duration": 0.4000000000000057
                },
                {
                    "name": "A2",
                    "midi": 45,
                    "time": 108.0000000000009,
                    "velocity": 0.7874015748031497,
                    "duration": 0.20000000000000284
                },
                {
                    "name": "C3",
                    "midi": 48,
                    "time": 108.2000000000009,
                    "velocity": 0.7874015748031497,
                    "duration": 0.20000000000000284
                },
                {
                    "name": "D#3",
                    "midi": 51,
                    "time": 108.4000000000009,
                    "velocity": 0.7874015748031497,
                    "duration": 0.20000000000000284
                },
                {
                    "name": "G3",
                    "midi": 55,
                    "time": 108.6000000000009,
                    "velocity": 0.7874015748031497,
                    "duration": 0.20000000000000284
                },
                {
                    "name": "F3",
                    "midi": 53,
                    "time": 108.8000000000009,
                    "velocity": 0.7874015748031497,
                    "duration": 0.20000000000000284
                },
                {
                    "name": "D#3",
                    "midi": 51,
                    "time": 109.00000000000091,
                    "velocity": 0.7874015748031497,
                    "duration": 0.20000000000000284
                },
                {
                    "name": "D3",
                    "midi": 50,
                    "time": 109.20000000000091,
                    "velocity": 0.7874015748031497,
                    "duration": 0.20000000000000284
                },
                {
                    "name": "F3",
                    "midi": 53,
                    "time": 109.40000000000092,
                    "velocity": 0.7874015748031497,
                    "duration": 0.20000000000000284
                },
                {
                    "name": "A#3",
                    "midi": 58,
                    "time": 109.60000000000092,
                    "velocity": 0.7874015748031497,
                    "duration": 0.20000000000000284
                },
                {
                    "name": "C4",
                    "midi": 60,
                    "time": 109.80000000000092,
                    "velocity": 0.7874015748031497,
                    "duration": 0.20000000000000284
                },
                {
                    "name": "D4",
                    "midi": 62,
                    "time": 110.00000000000092,
                    "velocity": 0.7874015748031497,
                    "duration": 0.4000000000000057
                },
                {
                    "name": "F#2",
                    "midi": 42,
                    "time": 110.40000000000093,
                    "velocity": 0.7874015748031497,
                    "duration": 0.20000000000000284
                },
                {
                    "name": "A2",
                    "midi": 45,
                    "time": 110.60000000000093,
                    "velocity": 0.7874015748031497,
                    "duration": 0.20000000000000284
                },
                {
                    "name": "C3",
                    "midi": 48,
                    "time": 110.80000000000094,
                    "velocity": 0.7874015748031497,
                    "duration": 0.20000000000000284
                },
                {
                    "name": "D#3",
                    "midi": 51,
                    "time": 111.00000000000094,
                    "velocity": 0.7874015748031497,
                    "duration": 0.20000000000000284
                },
                {
                    "name": "D3",
                    "midi": 50,
                    "time": 111.20000000000094,
                    "velocity": 0.7874015748031497,
                    "duration": 0.20000000000000284
                },
                {
                    "name": "C3",
                    "midi": 48,
                    "time": 111.40000000000094,
                    "velocity": 0.7874015748031497,
                    "duration": 0.20000000000000284
                },
                {
                    "name": "A#2",
                    "midi": 46,
                    "time": 111.60000000000095,
                    "velocity": 0.7874015748031497,
                    "duration": 0.20000000000000284
                },
                {
                    "name": "D3",
                    "midi": 50,
                    "time": 111.80000000000095,
                    "velocity": 0.7874015748031497,
                    "duration": 0.20000000000000284
                },
                {
                    "name": "G3",
                    "midi": 55,
                    "time": 112.00000000000095,
                    "velocity": 0.7874015748031497,
                    "duration": 0.20000000000000284
                },
                {
                    "name": "A3",
                    "midi": 57,
                    "time": 112.20000000000095,
                    "velocity": 0.7874015748031497,
                    "duration": 0.20000000000000284
                },
                {
                    "name": "A#3",
                    "midi": 58,
                    "time": 112.40000000000096,
                    "velocity": 0.7874015748031497,
                    "duration": 0.20000000000000284
                },
                {
                    "name": "G3",
                    "midi": 55,
                    "time": 112.60000000000096,
                    "velocity": 0.7874015748031497,
                    "duration": 0.20000000000000284
                },
                {
                    "name": "C3",
                    "midi": 48,
                    "time": 112.80000000000096,
                    "velocity": 0.7874015748031497,
                    "duration": 0.20000000000000284
                },
                {
                    "name": "A#3",
                    "midi": 58,
                    "time": 113.00000000000097,
                    "velocity": 0.7874015748031497,
                    "duration": 0.20000000000000284
                },
                {
                    "name": "A3",
                    "midi": 57,
                    "time": 113.20000000000097,
                    "velocity": 0.7874015748031497,
                    "duration": 0.20000000000000284
                },
                {
                    "name": "G3",
                    "midi": 55,
                    "time": 113.40000000000097,
                    "velocity": 0.7874015748031497,
                    "duration": 0.20000000000000284
                },
                {
                    "name": "D3",
                    "midi": 50,
                    "time": 113.60000000000097,
                    "velocity": 0.7874015748031497,
                    "duration": 0.20000000000000284
                },
                {
                    "name": "F#3",
                    "midi": 54,
                    "time": 113.80000000000098,
                    "velocity": 0.7874015748031497,
                    "duration": 0.20000000000000284
                },
                {
                    "name": "G2",
                    "midi": 43,
                    "time": 114.00000000000098,
                    "velocity": 0.7874015748031497,
                    "duration": 1.2000000000000028
                },
                {
                    "name": "G2",
                    "midi": 43,
                    "time": 115.20000000000098,
                    "velocity": 0.7874015748031497,
                    "duration": 0.20000000000000284
                },
                {
                    "name": "D3",
                    "midi": 50,
                    "time": 115.40000000000099,
                    "velocity": 0.7874015748031497,
                    "duration": 0.20000000000000284
                },
                {
                    "name": "B3",
                    "midi": 59,
                    "time": 115.60000000000099,
                    "velocity": 0.7874015748031497,
                    "duration": 0.4000000000000057
                },
                {
                    "name": "A3",
                    "midi": 57,
                    "time": 116.000000000001,
                    "velocity": 0.7874015748031497,
                    "duration": 0.20000000000000284
                },
                {
                    "name": "B3",
                    "midi": 59,
                    "time": 116.200000000001,
                    "velocity": 0.7874015748031497,
                    "duration": 0.09999999999999432
                },
                {
                    "name": "C4",
                    "midi": 60,
                    "time": 116.30000000000099,
                    "velocity": 0.7874015748031497,
                    "duration": 0.09999999999999432
                },
                {
                    "name": "B3",
                    "midi": 59,
                    "time": 116.40000000000099,
                    "velocity": 0.7874015748031497,
                    "duration": 0.20000000000000284
                },
                {
                    "name": "A3",
                    "midi": 57,
                    "time": 116.60000000000099,
                    "velocity": 0.7874015748031497,
                    "duration": 0.20000000000000284
                },
                {
                    "name": "G3",
                    "midi": 55,
                    "time": 116.80000000000099,
                    "velocity": 0.7874015748031497,
                    "duration": 0.20000000000000284
                },
                {
                    "name": "F#3",
                    "midi": 54,
                    "time": 117.000000000001,
                    "velocity": 0.7874015748031497,
                    "duration": 0.20000000000000284
                },
                {
                    "name": "G3",
                    "midi": 55,
                    "time": 117.200000000001,
                    "velocity": 0.7874015748031497,
                    "duration": 0.20000000000000284
                },
                {
                    "name": "D3",
                    "midi": 50,
                    "time": 117.400000000001,
                    "velocity": 0.7874015748031497,
                    "duration": 0.20000000000000284
                },
                {
                    "name": "E3",
                    "midi": 52,
                    "time": 117.600000000001,
                    "velocity": 0.7874015748031497,
                    "duration": 0.20000000000000284
                },
                {
                    "name": "G3",
                    "midi": 55,
                    "time": 117.800000000001,
                    "velocity": 0.7874015748031497,
                    "duration": 0.20000000000000284
                },
                {
                    "name": "C4",
                    "midi": 60,
                    "time": 118.00000000000101,
                    "velocity": 0.7874015748031497,
                    "duration": 0.20000000000000284
                },
                {
                    "name": "A3",
                    "midi": 57,
                    "time": 118.20000000000101,
                    "velocity": 0.7874015748031497,
                    "duration": 0.20000000000000284
                },
                {
                    "name": "F#3",
                    "midi": 54,
                    "time": 118.40000000000101,
                    "velocity": 0.7874015748031497,
                    "duration": 0.20000000000000284
                },
                {
                    "name": "D4",
                    "midi": 62,
                    "time": 118.60000000000102,
                    "velocity": 0.7874015748031497,
                    "duration": 0.20000000000000284
                },
                {
                    "name": "B3",
                    "midi": 59,
                    "time": 118.80000000000102,
                    "velocity": 0.7874015748031497,
                    "duration": 0.799999999999983
                },
                {
                    "name": "A3",
                    "midi": 57,
                    "time": 119.600000000001,
                    "velocity": 0.7874015748031497,
                    "duration": 0.4000000000000057
                },
                {
                    "name": "A2",
                    "midi": 45,
                    "time": 120.00000000000101,
                    "velocity": 0.7874015748031497,
                    "duration": 0.20000000000000284
                },
                {
                    "name": "F#3",
                    "midi": 54,
                    "time": 120.20000000000101,
                    "velocity": 0.7874015748031497,
                    "duration": 0.20000000000000284
                },
                {
                    "name": "C4",
                    "midi": 60,
                    "time": 120.40000000000101,
                    "velocity": 0.7874015748031497,
                    "duration": 0.4000000000000057
                },
                {
                    "name": "B3",
                    "midi": 59,
                    "time": 120.80000000000102,
                    "velocity": 0.7874015748031497,
                    "duration": 0.20000000000000284
                },
                {
                    "name": "C4",
                    "midi": 60,
                    "time": 121.00000000000102,
                    "velocity": 0.7874015748031497,
                    "duration": 0.09999999999999432
                },
                {
                    "name": "D4",
                    "midi": 62,
                    "time": 121.10000000000102,
                    "velocity": 0.7874015748031497,
                    "duration": 0.09999999999999432
                },
                {
                    "name": "C4",
                    "midi": 60,
                    "time": 121.20000000000101,
                    "velocity": 0.7874015748031497,
                    "duration": 0.20000000000000284
                },
                {
                    "name": "B3",
                    "midi": 59,
                    "time": 121.40000000000101,
                    "velocity": 0.7874015748031497,
                    "duration": 0.20000000000000284
                },
                {
                    "name": "A3",
                    "midi": 57,
                    "time": 121.60000000000102,
                    "velocity": 0.7874015748031497,
                    "duration": 0.20000000000000284
                },
                {
                    "name": "G3",
                    "midi": 55,
                    "time": 121.80000000000102,
                    "velocity": 0.7874015748031497,
                    "duration": 0.20000000000000284
                },
                {
                    "name": "F#3",
                    "midi": 54,
                    "time": 122.00000000000102,
                    "velocity": 0.7874015748031497,
                    "duration": 0.20000000000000284
                },
                {
                    "name": "E3",
                    "midi": 52,
                    "time": 122.20000000000103,
                    "velocity": 0.7874015748031497,
                    "duration": 0.20000000000000284
                },
                {
                    "name": "F#3",
                    "midi": 54,
                    "time": 122.40000000000103,
                    "velocity": 0.7874015748031497,
                    "duration": 0.20000000000000284
                },
                {
                    "name": "G3",
                    "midi": 55,
                    "time": 122.60000000000103,
                    "velocity": 0.7874015748031497,
                    "duration": 0.09999999999999432
                },
                {
                    "name": "A3",
                    "midi": 57,
                    "time": 122.70000000000103,
                    "velocity": 0.7874015748031497,
                    "duration": 0.09999999999999432
                },
                {
                    "name": "G3",
                    "midi": 55,
                    "time": 122.80000000000102,
                    "velocity": 0.7874015748031497,
                    "duration": 0.20000000000000284
                },
                {
                    "name": "F#3",
                    "midi": 54,
                    "time": 123.00000000000102,
                    "velocity": 0.7874015748031497,
                    "duration": 0.20000000000000284
                },
                {
                    "name": "E3",
                    "midi": 52,
                    "time": 123.20000000000103,
                    "velocity": 0.7874015748031497,
                    "duration": 0.20000000000000284
                },
                {
                    "name": "F#3",
                    "midi": 54,
                    "time": 123.40000000000103,
                    "velocity": 0.7874015748031497,
                    "duration": 0.20000000000000284
                },
                {
                    "name": "D3",
                    "midi": 50,
                    "time": 123.60000000000103,
                    "velocity": 0.7874015748031497,
                    "duration": 0.4000000000000057
                },
                {
                    "name": "A2",
                    "midi": 45,
                    "time": 124.00000000000104,
                    "velocity": 0.7874015748031497,
                    "duration": 0.4000000000000057
                },
                {
                    "name": "D2",
                    "midi": 38,
                    "time": 124.40000000000104,
                    "velocity": 0.7874015748031497,
                    "duration": 0.4000000000000057
                },
                {
                    "name": "D3",
                    "midi": 50,
                    "time": 124.80000000000105,
                    "velocity": 0.7874015748031497,
                    "duration": 0.20000000000000284
                },
                {
                    "name": "F#3",
                    "midi": 54,
                    "time": 125.00000000000105,
                    "velocity": 0.7874015748031497,
                    "duration": 0.20000000000000284
                },
                {
                    "name": "A3",
                    "midi": 57,
                    "time": 125.20000000000105,
                    "velocity": 0.7874015748031497,
                    "duration": 0.4000000000000057
                },
                {
                    "name": "G3",
                    "midi": 55,
                    "time": 125.60000000000106,
                    "velocity": 0.7874015748031497,
                    "duration": 0.20000000000000284
                },
                {
                    "name": "A3",
                    "midi": 57,
                    "time": 125.80000000000106,
                    "velocity": 0.7874015748031497,
                    "duration": 0.09999999999999432
                },
                {
                    "name": "B3",
                    "midi": 59,
                    "time": 125.90000000000106,
                    "velocity": 0.7874015748031497,
                    "duration": 0.09999999999999432
                },
                {
                    "name": "A3",
                    "midi": 57,
                    "time": 126.00000000000105,
                    "velocity": 0.7874015748031497,
                    "duration": 0.20000000000000284
                },
                {
                    "name": "G3",
                    "midi": 55,
                    "time": 126.20000000000105,
                    "velocity": 0.7874015748031497,
                    "duration": 0.20000000000000284
                },
                {
                    "name": "F#3",
                    "midi": 54,
                    "time": 126.40000000000106,
                    "velocity": 0.7874015748031497,
                    "duration": 0.20000000000000284
                },
                {
                    "name": "E3",
                    "midi": 52,
                    "time": 126.60000000000106,
                    "velocity": 0.7874015748031497,
                    "duration": 0.20000000000000284
                },
                {
                    "name": "D3",
                    "midi": 50,
                    "time": 126.80000000000106,
                    "velocity": 0.7874015748031497,
                    "duration": 0.20000000000000284
                },
                {
                    "name": "F#3",
                    "midi": 54,
                    "time": 127.00000000000107,
                    "velocity": 0.7874015748031497,
                    "duration": 0.20000000000000284
                },
                {
                    "name": "B2",
                    "midi": 47,
                    "time": 127.20000000000107,
                    "velocity": 0.7874015748031497,
                    "duration": 0.20000000000000284
                },
                {
                    "name": "D3",
                    "midi": 50,
                    "time": 127.40000000000107,
                    "velocity": 0.7874015748031497,
                    "duration": 0.20000000000000284
                },
                {
                    "name": "G#3",
                    "midi": 56,
                    "time": 127.60000000000107,
                    "velocity": 0.7874015748031497,
                    "duration": 0.20000000000000284
                },
                {
                    "name": "A3",
                    "midi": 57,
                    "time": 127.80000000000108,
                    "velocity": 0.7874015748031497,
                    "duration": 0.20000000000000284
                },
                {
                    "name": "B3",
                    "midi": 59,
                    "time": 128.00000000000108,
                    "velocity": 0.7874015748031497,
                    "duration": 0.19999999999998863
                },
                {
                    "name": "D4",
                    "midi": 62,
                    "time": 128.20000000000107,
                    "velocity": 0.7874015748031497,
                    "duration": 0.19999999999998863
                },
                {
                    "name": "A2",
                    "midi": 45,
                    "time": 128.40000000000106,
                    "velocity": 0.7874015748031497,
                    "duration": 0.19999999999998863
                },
                {
                    "name": "D4",
                    "midi": 62,
                    "time": 128.60000000000105,
                    "velocity": 0.7874015748031497,
                    "duration": 0.19999999999998863
                },
                {
                    "name": "C4",
                    "midi": 60,
                    "time": 128.80000000000103,
                    "velocity": 0.7874015748031497,
                    "duration": 0.19999999999998863
                },
                {
                    "name": "B3",
                    "midi": 59,
                    "time": 129.00000000000102,
                    "velocity": 0.7874015748031497,
                    "duration": 0.19999999999998863
                },
                {
                    "name": "C4",
                    "midi": 60,
                    "time": 129.200000000001,
                    "velocity": 0.7874015748031497,
                    "duration": 0.4000000000000057
                },
                {
                    "name": "D#3",
                    "midi": 51,
                    "time": 129.60000000000102,
                    "velocity": 0.7874015748031497,
                    "duration": 0.19999999999998863
                },
                {
                    "name": "F#3",
                    "midi": 54,
                    "time": 129.800000000001,
                    "velocity": 0.7874015748031497,
                    "duration": 0.19999999999998863
                },
                {
                    "name": "A3",
                    "midi": 57,
                    "time": 130.000000000001,
                    "velocity": 0.7874015748031497,
                    "duration": 0.19999999999998863
                },
                {
                    "name": "C4",
                    "midi": 60,
                    "time": 130.20000000000098,
                    "velocity": 0.7874015748031497,
                    "duration": 0.19999999999998863
                },
                {
                    "name": "B3",
                    "midi": 59,
                    "time": 130.40000000000097,
                    "velocity": 0.7874015748031497,
                    "duration": 0.19999999999998863
                },
                {
                    "name": "A3",
                    "midi": 57,
                    "time": 130.60000000000096,
                    "velocity": 0.7874015748031497,
                    "duration": 0.19999999999998863
                },
                {
                    "name": "B3",
                    "midi": 59,
                    "time": 130.80000000000095,
                    "velocity": 0.7874015748031497,
                    "duration": 0.19999999999998863
                },
                {
                    "name": "E3",
                    "midi": 52,
                    "time": 131.00000000000094,
                    "velocity": 0.7874015748031497,
                    "duration": 0.19999999999998863
                },
                {
                    "name": "G2",
                    "midi": 43,
                    "time": 131.20000000000093,
                    "velocity": 0.7874015748031497,
                    "duration": 0.19999999999998863
                },
                {
                    "name": "A3",
                    "midi": 57,
                    "time": 131.40000000000092,
                    "velocity": 0.7874015748031497,
                    "duration": 0.19999999999998863
                },
                {
                    "name": "C4",
                    "midi": 60,
                    "time": 131.6000000000009,
                    "velocity": 0.7874015748031497,
                    "duration": 0.19999999999998863
                },
                {
                    "name": "B3",
                    "midi": 59,
                    "time": 131.8000000000009,
                    "velocity": 0.7874015748031497,
                    "duration": 0.19999999999998863
                },
                {
                    "name": "A3",
                    "midi": 57,
                    "time": 132.00000000000088,
                    "velocity": 0.7874015748031497,
                    "duration": 0.19999999999998863
                },
                {
                    "name": "G3",
                    "midi": 55,
                    "time": 132.20000000000087,
                    "velocity": 0.7874015748031497,
                    "duration": 0.19999999999998863
                },
                {
                    "name": "F#3",
                    "midi": 54,
                    "time": 132.40000000000086,
                    "velocity": 0.7874015748031497,
                    "duration": 0.19999999999998863
                },
                {
                    "name": "E3",
                    "midi": 52,
                    "time": 132.60000000000085,
                    "velocity": 0.7874015748031497,
                    "duration": 0.19999999999998863
                },
                {
                    "name": "B2",
                    "midi": 47,
                    "time": 132.80000000000084,
                    "velocity": 0.7874015748031497,
                    "duration": 0.19999999999998863
                },
                {
                    "name": "D#3",
                    "midi": 51,
                    "time": 133.00000000000082,
                    "velocity": 0.7874015748031497,
                    "duration": 0.19999999999998863
                },
                {
                    "name": "E2",
                    "midi": 40,
                    "time": 133.2000000000008,
                    "velocity": 0.7874015748031497,
                    "duration": 0.5999999999999943
                },
                {
                    "name": "E3",
                    "midi": 52,
                    "time": 133.8000000000008,
                    "velocity": 0.7874015748031497,
                    "duration": 0.19999999999998863
                },
                {
                    "name": "D3",
                    "midi": 50,
                    "time": 134.0000000000008,
                    "velocity": 0.7874015748031497,
                    "duration": 0.19999999999998863
                },
                {
                    "name": "C3",
                    "midi": 48,
                    "time": 134.20000000000078,
                    "velocity": 0.7874015748031497,
                    "duration": 0.19999999999998863
                },
                {
                    "name": "B2",
                    "midi": 47,
                    "time": 134.40000000000077,
                    "velocity": 0.7874015748031497,
                    "duration": 0.19999999999998863
                },
                {
                    "name": "D3",
                    "midi": 50,
                    "time": 134.60000000000076,
                    "velocity": 0.7874015748031497,
                    "duration": 0.19999999999998863
                },
                {
                    "name": "G3",
                    "midi": 55,
                    "time": 134.80000000000075,
                    "velocity": 0.7874015748031497,
                    "duration": 0.4000000000000057
                },
                {
                    "name": "D3",
                    "midi": 50,
                    "time": 135.20000000000076,
                    "velocity": 0.7874015748031497,
                    "duration": 0.19999999999998863
                },
                {
                    "name": "E3",
                    "midi": 52,
                    "time": 135.40000000000074,
                    "velocity": 0.7874015748031497,
                    "duration": 0.09999999999999432
                },
                {
                    "name": "F3",
                    "midi": 53,
                    "time": 135.50000000000074,
                    "velocity": 0.7874015748031497,
                    "duration": 0.09999999999999432
                },
                {
                    "name": "F3",
                    "midi": 53,
                    "time": 135.60000000000073,
                    "velocity": 0.7874015748031497,
                    "duration": 0.19999999999998863
                },
                {
                    "name": "D3",
                    "midi": 50,
                    "time": 135.80000000000072,
                    "velocity": 0.7874015748031497,
                    "duration": 0.19999999999998863
                },
                {
                    "name": "E3",
                    "midi": 52,
                    "time": 136.0000000000007,
                    "velocity": 0.7874015748031497,
                    "duration": 0.19999999999998863
                },
                {
                    "name": "C3",
                    "midi": 48,
                    "time": 136.2000000000007,
                    "velocity": 0.7874015748031497,
                    "duration": 0.19999999999998863
                },
                {
                    "name": "C2",
                    "midi": 36,
                    "time": 136.4000000000007,
                    "velocity": 0.7874015748031497,
                    "duration": 0.19999999999998863
                },
                {
                    "name": "B2",
                    "midi": 47,
                    "time": 136.60000000000068,
                    "velocity": 0.7874015748031497,
                    "duration": 0.19999999999998863
                },
                {
                    "name": "C#3",
                    "midi": 49,
                    "time": 136.80000000000067,
                    "velocity": 0.7874015748031497,
                    "duration": 0.19999999999998863
                },
                {
                    "name": "E3",
                    "midi": 52,
                    "time": 137.00000000000065,
                    "velocity": 0.7874015748031497,
                    "duration": 0.19999999999998863
                },
                {
                    "name": "A3",
                    "midi": 57,
                    "time": 137.20000000000064,
                    "velocity": 0.7874015748031497,
                    "duration": 0.4000000000000057
                },
                {
                    "name": "E3",
                    "midi": 52,
                    "time": 137.60000000000065,
                    "velocity": 0.7874015748031497,
                    "duration": 0.19999999999998863
                },
                {
                    "name": "F#3",
                    "midi": 54,
                    "time": 137.80000000000064,
                    "velocity": 0.7874015748031497,
                    "duration": 0.09999999999999432
                },
                {
                    "name": "G3",
                    "midi": 55,
                    "time": 137.90000000000063,
                    "velocity": 0.7874015748031497,
                    "duration": 0.09999999999999432
                },
                {
                    "name": "G3",
                    "midi": 55,
                    "time": 138.00000000000063,
                    "velocity": 0.7874015748031497,
                    "duration": 0.19999999999998863
                },
                {
                    "name": "E3",
                    "midi": 52,
                    "time": 138.2000000000006,
                    "velocity": 0.7874015748031497,
                    "duration": 0.19999999999998863
                },
                {
                    "name": "F#3",
                    "midi": 54,
                    "time": 138.4000000000006,
                    "velocity": 0.7874015748031497,
                    "duration": 0.19999999999998863
                },
                {
                    "name": "D3",
                    "midi": 50,
                    "time": 138.6000000000006,
                    "velocity": 0.7874015748031497,
                    "duration": 0.19999999999998863
                },
                {
                    "name": "D2",
                    "midi": 38,
                    "time": 138.80000000000058,
                    "velocity": 0.7874015748031497,
                    "duration": 0.19999999999998863
                },
                {
                    "name": "A2",
                    "midi": 45,
                    "time": 139.00000000000057,
                    "velocity": 0.7874015748031497,
                    "duration": 0.19999999999998863
                },
                {
                    "name": "D3",
                    "midi": 50,
                    "time": 139.20000000000056,
                    "velocity": 0.7874015748031497,
                    "duration": 0.19999999999998863
                },
                {
                    "name": "F#3",
                    "midi": 54,
                    "time": 139.40000000000055,
                    "velocity": 0.7874015748031497,
                    "duration": 0.19999999999998863
                },
                {
                    "name": "A3",
                    "midi": 57,
                    "time": 139.60000000000053,
                    "velocity": 0.7874015748031497,
                    "duration": 0.19999999999998863
                },
                {
                    "name": "C4",
                    "midi": 60,
                    "time": 139.80000000000052,
                    "velocity": 0.7874015748031497,
                    "duration": 0.19999999999998863
                },
                {
                    "name": "B3",
                    "midi": 59,
                    "time": 140.0000000000005,
                    "velocity": 0.7874015748031497,
                    "duration": 0.19999999999998863
                },
                {
                    "name": "D4",
                    "midi": 62,
                    "time": 140.2000000000005,
                    "velocity": 0.7874015748031497,
                    "duration": 0.19999999999998863
                },
                {
                    "name": "E3",
                    "midi": 52,
                    "time": 140.4000000000005,
                    "velocity": 0.7874015748031497,
                    "duration": 0.19999999999998863
                },
                {
                    "name": "G3",
                    "midi": 55,
                    "time": 140.60000000000048,
                    "velocity": 0.7874015748031497,
                    "duration": 0.19999999999998863
                },
                {
                    "name": "B3",
                    "midi": 59,
                    "time": 140.80000000000047,
                    "velocity": 0.7874015748031497,
                    "duration": 0.19999999999998863
                },
                {
                    "name": "D4",
                    "midi": 62,
                    "time": 141.00000000000045,
                    "velocity": 0.7874015748031497,
                    "duration": 0.19999999999998863
                },
                {
                    "name": "C4",
                    "midi": 60,
                    "time": 141.20000000000044,
                    "velocity": 0.7874015748031497,
                    "duration": 0.19999999999998863
                },
                {
                    "name": "E4",
                    "midi": 64,
                    "time": 141.40000000000043,
                    "velocity": 0.7874015748031497,
                    "duration": 0.19999999999998863
                },
                {
                    "name": "D4",
                    "midi": 62,
                    "time": 141.60000000000042,
                    "velocity": 0.7874015748031497,
                    "duration": 0.19999999999998863
                },
                {
                    "name": "F#3",
                    "midi": 54,
                    "time": 141.8000000000004,
                    "velocity": 0.7874015748031497,
                    "duration": 0.19999999999998863
                },
                {
                    "name": "G3",
                    "midi": 55,
                    "time": 142.0000000000004,
                    "velocity": 0.7874015748031497,
                    "duration": 0.19999999999998863
                },
                {
                    "name": "B2",
                    "midi": 47,
                    "time": 142.2000000000004,
                    "velocity": 0.7874015748031497,
                    "duration": 0.19999999999998863
                },
                {
                    "name": "D2",
                    "midi": 38,
                    "time": 142.40000000000038,
                    "velocity": 0.7874015748031497,
                    "duration": 0.19999999999998863
                },
                {
                    "name": "F#3",
                    "midi": 54,
                    "time": 142.60000000000036,
                    "velocity": 0.7874015748031497,
                    "duration": 0.19999999999998863
                },
                {
                    "name": "G3",
                    "midi": 55,
                    "time": 142.80000000000035,
                    "velocity": 0.7874015748031497,
                    "duration": 1.1999999999999886
                }
            ],
            "controlChanges": {
                "7": [
                    {
                        "number": 7,
                        "time": 0,
                        "value": 0.7874015748031497
                    }
                ],
                "10": [
                    {
                        "number": 10,
                        "time": 0,
                        "value": 0.5039370078740157
                    }
                ]
            },
            "id": 1,
            "name": "Solo Cello",
            "instrumentNumber": 42,
            "instrument": "cello",
            "instrumentFamily": "strings",
            "channelNumber": 0,
            "isPercussion": false
        },
        {
            "startTime": 3.6,
            "duration": 144,
            "length": 9,
            "notes": [
                {
                    "name": "D3",
                    "midi": 50,
                    "time": 3.6,
                    "velocity": 0.7874015748031497,
                    "duration": 0.8000000000000003
                },
                {
                    "name": "D3",
                    "midi": 50,
                    "time": 4.4,
                    "velocity": 0.7874015748031497,
                    "duration": 0.40000000000000036
                },
                {
                    "name": "D3",
                    "midi": 50,
                    "time": 13.200000000000001,
                    "velocity": 0.7874015748031497,
                    "duration": 0.8000000000000007
                },
                {
                    "name": "D3",
                    "midi": 50,
                    "time": 14.000000000000002,
                    "velocity": 0.7874015748031497,
                    "duration": 0.40000000000000036
                },
                {
                    "name": "G2",
                    "midi": 43,
                    "time": 37.2,
                    "velocity": 0.7874015748031497,
                    "duration": 1.2000000000000028
                },
                {
                    "name": "G2",
                    "midi": 43,
                    "time": 56.400000000000006,
                    "velocity": 0.7874015748031497,
                    "duration": 1.2000000000000028
                },
                {
                    "name": "D3",
                    "midi": 50,
                    "time": 118.80000000000001,
                    "velocity": 0.7874015748031497,
                    "duration": 0.7999999999999972
                },
                {
                    "name": "D3",
                    "midi": 50,
                    "time": 119.60000000000001,
                    "velocity": 0.7874015748031497,
                    "duration": 0.4000000000000057
                },
                {
                    "name": "G2",
                    "midi": 43,
                    "time": 142.8,
                    "velocity": 0.7874015748031497,
                    "duration": 1.1999999999999886
                }
            ],
            "controlChanges": {
                "7": [
                    {
                        "number": 7,
                        "time": 0,
                        "value": 0.7874015748031497
                    }
                ],
                "10": [
                    {
                        "number": 10,
                        "time": 0,
                        "value": 0.5826771653543307
                    }
                ]
            },
            "id": 2,
            "name": "--------------------------------------",
            "instrumentNumber": 42,
            "instrument": "cello",
            "instrumentFamily": "strings",
            "channelNumber": 1,
            "isPercussion": false
        },
        {
            "startTime": 3.6,
            "duration": 119.60000000000001,
            "length": 3,
            "notes": [
                {
                    "name": "G2",
                    "midi": 43,
                    "time": 3.6,
                    "velocity": 0.7874015748031497,
                    "duration": 0.8000000000000003
                },
                {
                    "name": "G2",
                    "midi": 43,
                    "time": 13.200000000000001,
                    "velocity": 0.7874015748031497,
                    "duration": 0.8000000000000007
                },
                {
                    "name": "G2",
                    "midi": 43,
                    "time": 118.80000000000001,
                    "velocity": 0.7874015748031497,
                    "duration": 0.7999999999999972
                }
            ],
            "controlChanges": {
                "7": [
                    {
                        "number": 7,
                        "time": 0,
                        "value": 0.7874015748031497
                    }
                ],
                "10": [
                    {
                        "number": 10,
                        "time": 0,
                        "value": 0.4251968503937008
                    }
                ]
            },
            "id": 3,
            "name": "Johann Sebastian Bach  (1685-1750)",
            "instrumentNumber": 42,
            "instrument": "cello",
            "instrumentFamily": "strings",
            "channelNumber": 2,
            "isPercussion": false
        },
        {
            "startTime": 0,
            "duration": 0,
            "length": 0,
            "notes": [],
            "controlChanges": {},
            "id": 4,
            "name": "Six Suites for Solo Cello"
        },
        {
            "startTime": 0,
            "duration": 0,
            "length": 0,
            "notes": [],
            "controlChanges": {},
            "id": 5,
            "name": "--------------------------------------"
        },
        {
            "startTime": 0,
            "duration": 0,
            "length": 0,
            "notes": [],
            "controlChanges": {},
            "id": 6,
            "name": "Suite No. 1 in G major - BWV 1007"
        },
        {
            "startTime": 0,
            "duration": 0,
            "length": 0,
            "notes": [],
            "controlChanges": {},
            "id": 7,
            "name": "5th Movement: Menuet I/II"
        },
        {
            "startTime": 0,
            "duration": 0,
            "length": 0,
            "notes": [],
            "controlChanges": {},
            "id": 8,
            "name": "--------------------------------------"
        },
        {
            "startTime": 0,
            "duration": 0,
            "length": 0,
            "notes": [],
            "controlChanges": {},
            "id": 9,
            "name": "Sequenced with Cakewalk Pro Audio by"
        },
        {
            "startTime": 0,
            "duration": 0,
            "length": 0,
            "notes": [],
            "controlChanges": {},
            "id": 10,
            "name": "David J. Grossman - dave@unpronounceable.com"
        },
        {
            "startTime": 0,
            "duration": 0,
            "length": 0,
            "notes": [],
            "controlChanges": {},
            "id": 11,
            "name": "This and other Bach MIDI files can be found at:"
        },
        {
            "startTime": 0,
            "duration": 0,
            "length": 0,
            "notes": [],
            "controlChanges": {},
            "id": 12,
            "name": "Dave's J.S. Bach Page"
        },
        {
            "startTime": 0,
            "duration": 0,
            "length": 0,
            "notes": [],
            "controlChanges": {},
            "id": 13,
            "name": "http://www.unpronounceable.com/bach"
        },
        {
            "startTime": 0,
            "duration": 0,
            "length": 0,
            "notes": [],
            "controlChanges": {},
            "id": 14,
            "name": "--------------------------------------"
        },
        {
            "startTime": 0,
            "duration": 0,
            "length": 0,
            "notes": [],
            "controlChanges": {},
            "id": 15,
            "name": "Original Filename: cs1-5men.mid"
        },
        {
            "startTime": 0,
            "duration": 0,
            "length": 0,
            "notes": [],
            "controlChanges": {},
            "id": 16,
            "name": "Last Modified: February 22, 1997"
        }
    ]
}