{
    "header": {
        "PPQ": 480,
        "timeSignature": [
            3,
            8
        ],
        "bpm": 250,
        "name": "untitled"
    },
    "startTime": 0,
    "duration": 54.96000000000009,
    "tracks": [
        {
            "startTime": 0,
            "duration": 0,
            "length": 0,
            "notes": [],
            "controlChanges": {},
            "id": 0,
            "name": "untitled"
        },
        {
            "startTime": 0.24,
            "duration": 53.5200000000004,
            "length": 690,
            "notes": [
                {
                    "name": "A3",
                    "midi": 57,
                    "time": 0.24,
                    "velocity": 0.7874015748031497,
                    "duration": 0.12
                },
                {
                    "name": "D3",
                    "midi": 50,
                    "time": 0.36,
                    "velocity": 0.7874015748031497,
                    "duration": 0.24
                },
                {
                    "name": "A#3",
                    "midi": 58,
                    "time": 0.6,
                    "velocity": 0.7874015748031497,
                    "duration": 0.12
                },
                {
                    "name": "C#3",
                    "midi": 49,
                    "time": 0.72,
                    "velocity": 0.7874015748031497,
                    "duration": 0.24
                },
                {
                    "name": "G3",
                    "midi": 55,
                    "time": 0.96,
                    "velocity": 0.7874015748031497,
                    "duration": 0.1200000000000001
                },
                {
                    "name": "F3",
                    "midi": 53,
                    "time": 1.08,
                    "velocity": 0.7874015748031497,
                    "duration": 0.06000000000000005
                },
                {
                    "name": "E3",
                    "midi": 52,
                    "time": 1.1400000000000001,
                    "velocity": 0.7874015748031497,
                    "duration": 0.06000000000000005
                },
                {
                    "name": "F3",
                    "midi": 53,
                    "time": 1.2000000000000002,
                    "velocity": 0.7874015748031497,
                    "duration": 0.06000000000000005
                },
                {
                    "name": "G3",
                    "midi": 55,
                    "time": 1.2600000000000002,
                    "velocity": 0.7874015748031497,
                    "duration": 0.06000000000000005
                },
                {
                    "name": "A3",
                    "midi": 57,
                    "time": 1.3200000000000003,
                    "velocity": 0.7874015748031497,
                    "duration": 0.1200000000000001
                },
                {
                    "name": "D3",
                    "midi": 50,
                    "time": 1.4400000000000004,
                    "velocity": 0.7874015748031497,
                    "duration": 0.24
                },
                {
                    "name": "D4",
                    "midi": 62,
                    "time": 1.6800000000000004,
                    "velocity": 0.7874015748031497,
                    "duration": 0.11999999999999988
                },
                {
                    "name": "E3",
                    "midi": 52,
                    "time": 1.8000000000000003,
                    "velocity": 0.7874015748031497,
                    "duration": 0.06000000000000005
                },
                {
                    "name": "F3",
                    "midi": 53,
                    "time": 1.8600000000000003,
                    "velocity": 0.7874015748031497,
                    "duration": 0.06000000000000005
                },
                {
                    "name": "G3",
                    "midi": 55,
                    "time": 1.9200000000000004,
                    "velocity": 0.7874015748031497,
                    "duration": 0.1200000000000001
                },
                {
                    "name": "A#3",
                    "midi": 58,
                    "time": 2.0400000000000005,
                    "velocity": 0.7874015748031497,
                    "duration": 0.1200000000000001
                },
                {
                    "name": "C3",
                    "midi": 48,
                    "time": 2.1600000000000006,
                    "velocity": 0.7874015748031497,
                    "duration": 0.06000000000000005
                },
                {
                    "name": "D3",
                    "midi": 50,
                    "time": 2.2200000000000006,
                    "velocity": 0.7874015748031497,
                    "duration": 0.06000000000000005
                },
                {
                    "name": "E3",
                    "midi": 52,
                    "time": 2.2800000000000007,
                    "velocity": 0.7874015748031497,
                    "duration": 0.1200000000000001
                },
                {
                    "name": "C4",
                    "midi": 60,
                    "time": 2.400000000000001,
                    "velocity": 0.7874015748031497,
                    "duration": 0.1200000000000001
                },
                {
                    "name": "A3",
                    "midi": 57,
                    "time": 2.520000000000001,
                    "velocity": 0.7874015748031497,
                    "duration": 0.06000000000000005
                },
                {
                    "name": "G3",
                    "midi": 55,
                    "time": 2.580000000000001,
                    "velocity": 0.7874015748031497,
                    "duration": 0.06000000000000005
                },
                {
                    "name": "A3",
                    "midi": 57,
                    "time": 2.640000000000001,
                    "velocity": 0.7874015748031497,
                    "duration": 0.06000000000000005
                },
                {
                    "name": "A#3",
                    "midi": 58,
                    "time": 2.700000000000001,
                    "velocity": 0.7874015748031497,
                    "duration": 0.06000000000000005
                },
                {
                    "name": "C4",
                    "midi": 60,
                    "time": 2.760000000000001,
                    "velocity": 0.7874015748031497,
                    "duration": 0.06000000000000005
                },
                {
                    "name": "A3",
                    "midi": 57,
                    "time": 2.820000000000001,
                    "velocity": 0.7874015748031497,
                    "duration": 0.06000000000000005
                },
                {
                    "name": "F3",
                    "midi": 53,
                    "time": 2.8800000000000012,
                    "velocity": 0.7874015748031497,
                    "duration": 0.23999999999999932
                },
                {
                    "name": "A3",
                    "midi": 57,
                    "time": 3.1200000000000006,
                    "velocity": 0.7874015748031497,
                    "duration": 0.1200000000000001
                },
                {
                    "name": "B2",
                    "midi": 47,
                    "time": 3.2400000000000007,
                    "velocity": 0.7874015748031497,
                    "duration": 0.1200000000000001
                },
                {
                    "name": "G3",
                    "midi": 55,
                    "time": 3.3600000000000008,
                    "velocity": 0.7874015748031497,
                    "duration": 0.1200000000000001
                },
                {
                    "name": "C#3",
                    "midi": 49,
                    "time": 3.480000000000001,
                    "velocity": 0.7874015748031497,
                    "duration": 0.1200000000000001
                },
                {
                    "name": "D3",
                    "midi": 50,
                    "time": 3.600000000000001,
                    "velocity": 0.7874015748031497,
                    "duration": 0.1200000000000001
                },
                {
                    "name": "F3",
                    "midi": 53,
                    "time": 3.720000000000001,
                    "velocity": 0.7874015748031497,
                    "duration": 0.06000000000000005
                },
                {
                    "name": "C3",
                    "midi": 48,
                    "time": 3.780000000000001,
                    "velocity": 0.7874015748031497,
                    "duration": 0.06000000000000005
                },
                {
                    "name": "A#2",
                    "midi": 46,
                    "time": 3.840000000000001,
                    "velocity": 0.7874015748031497,
                    "duration": 0.06000000000000005
                },
                {
                    "name": "A2",
                    "midi": 45,
                    "time": 3.9000000000000012,
                    "velocity": 0.7874015748031497,
                    "duration": 0.06000000000000005
                },
                {
                    "name": "G2",
                    "midi": 43,
                    "time": 3.9600000000000013,
                    "velocity": 0.7874015748031497,
                    "duration": 0.11999999999999966
                },
                {
                    "name": "D#3",
                    "midi": 51,
                    "time": 4.080000000000001,
                    "velocity": 0.7874015748031497,
                    "duration": 0.1200000000000001
                },
                {
                    "name": "A2",
                    "midi": 45,
                    "time": 4.200000000000001,
                    "velocity": 0.7874015748031497,
                    "duration": 0.1200000000000001
                },
                {
                    "name": "A#2",
                    "midi": 46,
                    "time": 4.320000000000001,
                    "velocity": 0.7874015748031497,
                    "duration": 0.1200000000000001
                },
                {
                    "name": "D3",
                    "midi": 50,
                    "time": 4.440000000000001,
                    "velocity": 0.7874015748031497,
                    "duration": 0.05999999999999961
                },
                {
                    "name": "A2",
                    "midi": 45,
                    "time": 4.500000000000001,
                    "velocity": 0.7874015748031497,
                    "duration": 0.05999999999999961
                },
                {
                    "name": "G2",
                    "midi": 43,
                    "time": 4.5600000000000005,
                    "velocity": 0.7874015748031497,
                    "duration": 0.05999999999999961
                },
                {
                    "name": "F2",
                    "midi": 41,
                    "time": 4.62,
                    "velocity": 0.7874015748031497,
                    "duration": 0.05999999999999961
                },
                {
                    "name": "E2",
                    "midi": 40,
                    "time": 4.68,
                    "velocity": 0.7874015748031497,
                    "duration": 0.1200000000000001
                },
                {
                    "name": "C#3",
                    "midi": 49,
                    "time": 4.8,
                    "velocity": 0.7874015748031497,
                    "duration": 0.1200000000000001
                },
                {
                    "name": "A#3",
                    "midi": 58,
                    "time": 4.92,
                    "velocity": 0.7874015748031497,
                    "duration": 0.1200000000000001
                },
                {
                    "name": "A3",
                    "midi": 57,
                    "time": 5.04,
                    "velocity": 0.7874015748031497,
                    "duration": 0.1200000000000001
                },
                {
                    "name": "G3",
                    "midi": 55,
                    "time": 5.16,
                    "velocity": 0.7874015748031497,
                    "duration": 0.05999999999999961
                },
                {
                    "name": "F3",
                    "midi": 53,
                    "time": 5.22,
                    "velocity": 0.7874015748031497,
                    "duration": 0.05999999999999961
                },
                {
                    "name": "E3",
                    "midi": 52,
                    "time": 5.279999999999999,
                    "velocity": 0.7874015748031497,
                    "duration": 0.05999999999999961
                },
                {
                    "name": "D3",
                    "midi": 50,
                    "time": 5.339999999999999,
                    "velocity": 0.7874015748031497,
                    "duration": 0.05999999999999961
                },
                {
                    "name": "E3",
                    "midi": 52,
                    "time": 5.399999999999999,
                    "velocity": 0.7874015748031497,
                    "duration": 0.05999999999999961
                },
                {
                    "name": "F3",
                    "midi": 53,
                    "time": 5.459999999999998,
                    "velocity": 0.7874015748031497,
                    "duration": 0.05999999999999961
                },
                {
                    "name": "G3",
                    "midi": 55,
                    "time": 5.519999999999998,
                    "velocity": 0.7874015748031497,
                    "duration": 0.05999999999999961
                },
                {
                    "name": "E3",
                    "midi": 52,
                    "time": 5.579999999999997,
                    "velocity": 0.7874015748031497,
                    "duration": 0.05999999999999961
                },
                {
                    "name": "F3",
                    "midi": 53,
                    "time": 5.639999999999997,
                    "velocity": 0.7874015748031497,
                    "duration": 0.05999999999999961
                },
                {
                    "name": "D3",
                    "midi": 50,
                    "time": 5.699999999999997,
                    "velocity": 0.7874015748031497,
                    "duration": 0.05999999999999961
                },
                {
                    "name": "E3",
                    "midi": 52,
                    "time": 5.759999999999996,
                    "velocity": 0.7874015748031497,
                    "duration": 0.1200000000000001
                },
                {
                    "name": "A2",
                    "midi": 45,
                    "time": 5.879999999999996,
                    "velocity": 0.7874015748031497,
                    "duration": 0.1200000000000001
                },
                {
                    "name": "C4",
                    "midi": 60,
                    "time": 5.9999999999999964,
                    "velocity": 0.7874015748031497,
                    "duration": 0.1200000000000001
                },
                {
                    "name": "C4",
                    "midi": 60,
                    "time": 6.1199999999999966,
                    "velocity": 0.7874015748031497,
                    "duration": 0.05999999999999961
                },
                {
                    "name": "D4",
                    "midi": 62,
                    "time": 6.179999999999996,
                    "velocity": 0.7874015748031497,
                    "duration": 0.05999999999999961
                },
                {
                    "name": "D#4",
                    "midi": 63,
                    "time": 6.239999999999996,
                    "velocity": 0.7874015748031497,
                    "duration": 0.05999999999999961
                },
                {
                    "name": "C4",
                    "midi": 60,
                    "time": 6.299999999999995,
                    "velocity": 0.7874015748031497,
                    "duration": 0.05999999999999961
                },
                {
                    "name": "D4",
                    "midi": 62,
                    "time": 6.359999999999995,
                    "velocity": 0.7874015748031497,
                    "duration": 0.05999999999999961
                },
                {
                    "name": "A3",
                    "midi": 57,
                    "time": 6.419999999999995,
                    "velocity": 0.7874015748031497,
                    "duration": 0.05999999999999961
                },
                {
                    "name": "D3",
                    "midi": 50,
                    "time": 6.479999999999994,
                    "velocity": 0.7874015748031497,
                    "duration": 0.1200000000000001
                },
                {
                    "name": "G2",
                    "midi": 43,
                    "time": 6.599999999999994,
                    "velocity": 0.7874015748031497,
                    "duration": 0.1200000000000001
                },
                {
                    "name": "D3",
                    "midi": 50,
                    "time": 6.719999999999994,
                    "velocity": 0.7874015748031497,
                    "duration": 0.1200000000000001
                },
                {
                    "name": "A#3",
                    "midi": 58,
                    "time": 6.8399999999999945,
                    "velocity": 0.7874015748031497,
                    "duration": 0.05999999999999961
                },
                {
                    "name": "C4",
                    "midi": 60,
                    "time": 6.899999999999994,
                    "velocity": 0.7874015748031497,
                    "duration": 0.05999999999999961
                },
                {
                    "name": "D4",
                    "midi": 62,
                    "time": 6.959999999999994,
                    "velocity": 0.7874015748031497,
                    "duration": 0.05999999999999961
                },
                {
                    "name": "A#3",
                    "midi": 58,
                    "time": 7.019999999999993,
                    "velocity": 0.7874015748031497,
                    "duration": 0.05999999999999961
                },
                {
                    "name": "C4",
                    "midi": 60,
                    "time": 7.079999999999993,
                    "velocity": 0.7874015748031497,
                    "duration": 0.05999999999999961
                },
                {
                    "name": "G3",
                    "midi": 55,
                    "time": 7.139999999999993,
                    "velocity": 0.7874015748031497,
                    "duration": 0.05999999999999961
                },
                {
                    "name": "F3",
                    "midi": 53,
                    "time": 7.199999999999992,
                    "velocity": 0.7874015748031497,
                    "duration": 0.1200000000000001
                },
                {
                    "name": "F2",
                    "midi": 41,
                    "time": 7.319999999999992,
                    "velocity": 0.7874015748031497,
                    "duration": 0.1200000000000001
                },
                {
                    "name": "F3",
                    "midi": 53,
                    "time": 7.439999999999992,
                    "velocity": 0.7874015748031497,
                    "duration": 0.1200000000000001
                },
                {
                    "name": "B3",
                    "midi": 59,
                    "time": 7.5599999999999925,
                    "velocity": 0.7874015748031497,
                    "duration": 0.05999999999999961
                },
                {
                    "name": "C4",
                    "midi": 60,
                    "time": 7.619999999999992,
                    "velocity": 0.7874015748031497,
                    "duration": 0.05999999999999961
                },
                {
                    "name": "D4",
                    "midi": 62,
                    "time": 7.679999999999992,
                    "velocity": 0.7874015748031497,
                    "duration": 0.05999999999999961
                },
                {
                    "name": "B3",
                    "midi": 59,
                    "time": 7.739999999999991,
                    "velocity": 0.7874015748031497,
                    "duration": 0.05999999999999961
                },
                {
                    "name": "C4",
                    "midi": 60,
                    "time": 7.799999999999991,
                    "velocity": 0.7874015748031497,
                    "duration": 0.05999999999999961
                },
                {
                    "name": "A3",
                    "midi": 57,
                    "time": 7.8599999999999905,
                    "velocity": 0.7874015748031497,
                    "duration": 0.05999999999999961
                },
                {
                    "name": "D4",
                    "midi": 62,
                    "time": 7.91999999999999,
                    "velocity": 0.7874015748031497,
                    "duration": 0.05999999999999961
                },
                {
                    "name": "E4",
                    "midi": 64,
                    "time": 7.97999999999999,
                    "velocity": 0.7874015748031497,
                    "duration": 0.0600000000000005
                },
                {
                    "name": "F4",
                    "midi": 65,
                    "time": 8.03999999999999,
                    "velocity": 0.7874015748031497,
                    "duration": 0.0600000000000005
                },
                {
                    "name": "D4",
                    "midi": 62,
                    "time": 8.09999999999999,
                    "velocity": 0.7874015748031497,
                    "duration": 0.0600000000000005
                },
                {
                    "name": "E4",
                    "midi": 64,
                    "time": 8.159999999999991,
                    "velocity": 0.7874015748031497,
                    "duration": 0.0600000000000005
                },
                {
                    "name": "C4",
                    "midi": 60,
                    "time": 8.219999999999992,
                    "velocity": 0.7874015748031497,
                    "duration": 0.0600000000000005
                },
                {
                    "name": "B3",
                    "midi": 59,
                    "time": 8.279999999999992,
                    "velocity": 0.7874015748031497,
                    "duration": 0.0600000000000005
                },
                {
                    "name": "C4",
                    "midi": 60,
                    "time": 8.339999999999993,
                    "velocity": 0.7874015748031497,
                    "duration": 0.0600000000000005
                },
                {
                    "name": "D4",
                    "midi": 62,
                    "time": 8.399999999999993,
                    "velocity": 0.7874015748031497,
                    "duration": 0.0600000000000005
                },
                {
                    "name": "B3",
                    "midi": 59,
                    "time": 8.459999999999994,
                    "velocity": 0.7874015748031497,
                    "duration": 0.0600000000000005
                },
                {
                    "name": "C4",
                    "midi": 60,
                    "time": 8.519999999999994,
                    "velocity": 0.7874015748031497,
                    "duration": 0.0600000000000005
                },
                {
                    "name": "A3",
                    "midi": 57,
                    "time": 8.579999999999995,
                    "velocity": 0.7874015748031497,
                    "duration": 0.0600000000000005
                },
                {
                    "name": "E4",
                    "midi": 64,
                    "time": 8.639999999999995,
                    "velocity": 0.7874015748031497,
                    "duration": 0.2400000000000002
                },
                {
                    "name": "G#3",
                    "midi": 56,
                    "time": 8.879999999999995,
                    "velocity": 0.7874015748031497,
                    "duration": 0.11999999999999922
                },
                {
                    "name": "A3",
                    "midi": 57,
                    "time": 8.999999999999995,
                    "velocity": 0.7874015748031497,
                    "duration": 0.0600000000000005
                },
                {
                    "name": "B3",
                    "midi": 59,
                    "time": 9.059999999999995,
                    "velocity": 0.7874015748031497,
                    "duration": 0.0600000000000005
                },
                {
                    "name": "C4",
                    "midi": 60,
                    "time": 9.119999999999996,
                    "velocity": 0.7874015748031497,
                    "duration": 0.0600000000000005
                },
                {
                    "name": "A3",
                    "midi": 57,
                    "time": 9.179999999999996,
                    "velocity": 0.7874015748031497,
                    "duration": 0.0600000000000005
                },
                {
                    "name": "D4",
                    "midi": 62,
                    "time": 9.239999999999997,
                    "velocity": 0.7874015748031497,
                    "duration": 0.0600000000000005
                },
                {
                    "name": "B3",
                    "midi": 59,
                    "time": 9.299999999999997,
                    "velocity": 0.7874015748031497,
                    "duration": 0.0600000000000005
                },
                {
                    "name": "A3",
                    "midi": 57,
                    "time": 9.359999999999998,
                    "velocity": 0.7874015748031497,
                    "duration": 0.0600000000000005
                },
                {
                    "name": "B3",
                    "midi": 59,
                    "time": 9.419999999999998,
                    "velocity": 0.7874015748031497,
                    "duration": 0.0600000000000005
                },
                {
                    "name": "C4",
                    "midi": 60,
                    "time": 9.479999999999999,
                    "velocity": 0.7874015748031497,
                    "duration": 0.0600000000000005
                },
                {
                    "name": "A3",
                    "midi": 57,
                    "time": 9.54,
                    "velocity": 0.7874015748031497,
                    "duration": 0.0600000000000005
                },
                {
                    "name": "D4",
                    "midi": 62,
                    "time": 9.6,
                    "velocity": 0.7874015748031497,
                    "duration": 0.0600000000000005
                },
                {
                    "name": "B3",
                    "midi": 59,
                    "time": 9.66,
                    "velocity": 0.7874015748031497,
                    "duration": 0.0600000000000005
                },
                {
                    "name": "A3",
                    "midi": 57,
                    "time": 9.72,
                    "velocity": 0.7874015748031497,
                    "duration": 0.0600000000000005
                },
                {
                    "name": "B3",
                    "midi": 59,
                    "time": 9.780000000000001,
                    "velocity": 0.7874015748031497,
                    "duration": 0.0600000000000005
                },
                {
                    "name": "C4",
                    "midi": 60,
                    "time": 9.840000000000002,
                    "velocity": 0.7874015748031497,
                    "duration": 0.0600000000000005
                },
                {
                    "name": "A3",
                    "midi": 57,
                    "time": 9.900000000000002,
                    "velocity": 0.7874015748031497,
                    "duration": 0.0600000000000005
                },
                {
                    "name": "D4",
                    "midi": 62,
                    "time": 9.960000000000003,
                    "velocity": 0.7874015748031497,
                    "duration": 0.0600000000000005
                },
                {
                    "name": "B3",
                    "midi": 59,
                    "time": 10.020000000000003,
                    "velocity": 0.7874015748031497,
                    "duration": 0.0600000000000005
                },
                {
                    "name": "A3",
                    "midi": 57,
                    "time": 10.080000000000004,
                    "velocity": 0.7874015748031497,
                    "duration": 0.0600000000000005
                },
                {
                    "name": "B3",
                    "midi": 59,
                    "time": 10.140000000000004,
                    "velocity": 0.7874015748031497,
                    "duration": 0.0600000000000005
                },
                {
                    "name": "C4",
                    "midi": 60,
                    "time": 10.200000000000005,
                    "velocity": 0.7874015748031497,
                    "duration": 0.0600000000000005
                },
                {
                    "name": "A3",
                    "midi": 57,
                    "time": 10.260000000000005,
                    "velocity": 0.7874015748031497,
                    "duration": 0.0600000000000005
                },
                {
                    "name": "D4",
                    "midi": 62,
                    "time": 10.320000000000006,
                    "velocity": 0.7874015748031497,
                    "duration": 0.0600000000000005
                },
                {
                    "name": "B3",
                    "midi": 59,
                    "time": 10.380000000000006,
                    "velocity": 0.7874015748031497,
                    "duration": 0.0600000000000005
                },
                {
                    "name": "F4",
                    "midi": 65,
                    "time": 10.440000000000007,
                    "velocity": 0.7874015748031497,
                    "duration": 0.11999999999999922
                },
                {
                    "name": "E4",
                    "midi": 64,
                    "time": 10.560000000000006,
                    "velocity": 0.7874015748031497,
                    "duration": 0.0600000000000005
                },
                {
                    "name": "D4",
                    "midi": 62,
                    "time": 10.620000000000006,
                    "velocity": 0.7874015748031497,
                    "duration": 0.0600000000000005
                },
                {
                    "name": "C4",
                    "midi": 60,
                    "time": 10.680000000000007,
                    "velocity": 0.7874015748031497,
                    "duration": 0.0600000000000005
                },
                {
                    "name": "B3",
                    "midi": 59,
                    "time": 10.740000000000007,
                    "velocity": 0.7874015748031497,
                    "duration": 0.0600000000000005
                },
                {
                    "name": "C2",
                    "midi": 36,
                    "time": 10.800000000000008,
                    "velocity": 0.7874015748031497,
                    "duration": 0.0600000000000005
                },
                {
                    "name": "E4",
                    "midi": 64,
                    "time": 10.860000000000008,
                    "velocity": 0.7874015748031497,
                    "duration": 0.0600000000000005
                },
                {
                    "name": "D4",
                    "midi": 62,
                    "time": 10.920000000000009,
                    "velocity": 0.7874015748031497,
                    "duration": 0.0600000000000005
                },
                {
                    "name": "C4",
                    "midi": 60,
                    "time": 10.98000000000001,
                    "velocity": 0.7874015748031497,
                    "duration": 0.0600000000000005
                },
                {
                    "name": "B3",
                    "midi": 59,
                    "time": 11.04000000000001,
                    "velocity": 0.7874015748031497,
                    "duration": 0.0600000000000005
                },
                {
                    "name": "G#3",
                    "midi": 56,
                    "time": 11.10000000000001,
                    "velocity": 0.7874015748031497,
                    "duration": 0.0600000000000005
                },
                {
                    "name": "A3",
                    "midi": 57,
                    "time": 11.16000000000001,
                    "velocity": 0.7874015748031497,
                    "duration": 0.0600000000000005
                },
                {
                    "name": "F3",
                    "midi": 53,
                    "time": 11.220000000000011,
                    "velocity": 0.7874015748031497,
                    "duration": 0.0600000000000005
                },
                {
                    "name": "E3",
                    "midi": 52,
                    "time": 11.280000000000012,
                    "velocity": 0.7874015748031497,
                    "duration": 0.0600000000000005
                },
                {
                    "name": "D3",
                    "midi": 50,
                    "time": 11.340000000000012,
                    "velocity": 0.7874015748031497,
                    "duration": 0.0600000000000005
                },
                {
                    "name": "E3",
                    "midi": 52,
                    "time": 11.400000000000013,
                    "velocity": 0.7874015748031497,
                    "duration": 0.0600000000000005
                },
                {
                    "name": "C#3",
                    "midi": 49,
                    "time": 11.460000000000013,
                    "velocity": 0.7874015748031497,
                    "duration": 0.0600000000000005
                },
                {
                    "name": "A2",
                    "midi": 45,
                    "time": 11.520000000000014,
                    "velocity": 0.7874015748031497,
                    "duration": 0.2400000000000002
                },
                {
                    "name": "A3",
                    "midi": 57,
                    "time": 11.760000000000014,
                    "velocity": 0.7874015748031497,
                    "duration": 0.11999999999999922
                },
                {
                    "name": "D3",
                    "midi": 50,
                    "time": 11.880000000000013,
                    "velocity": 0.7874015748031497,
                    "duration": 0.2400000000000002
                },
                {
                    "name": "A#3",
                    "midi": 58,
                    "time": 12.120000000000013,
                    "velocity": 0.7874015748031497,
                    "duration": 0.11999999999999922
                },
                {
                    "name": "C#3",
                    "midi": 49,
                    "time": 12.240000000000013,
                    "velocity": 0.7874015748031497,
                    "duration": 0.2400000000000002
                },
                {
                    "name": "G3",
                    "midi": 55,
                    "time": 12.480000000000013,
                    "velocity": 0.7874015748031497,
                    "duration": 0.11999999999999922
                },
                {
                    "name": "F3",
                    "midi": 53,
                    "time": 12.600000000000012,
                    "velocity": 0.7874015748031497,
                    "duration": 0.0600000000000005
                },
                {
                    "name": "E3",
                    "midi": 52,
                    "time": 12.660000000000013,
                    "velocity": 0.7874015748031497,
                    "duration": 0.0600000000000005
                },
                {
                    "name": "F3",
                    "midi": 53,
                    "time": 12.720000000000013,
                    "velocity": 0.7874015748031497,
                    "duration": 0.0600000000000005
                },
                {
                    "name": "G3",
                    "midi": 55,
                    "time": 12.780000000000014,
                    "velocity": 0.7874015748031497,
                    "duration": 0.0600000000000005
                },
                {
                    "name": "A3",
                    "midi": 57,
                    "time": 12.840000000000014,
                    "velocity": 0.7874015748031497,
                    "duration": 0.11999999999999922
                },
                {
                    "name": "D3",
                    "midi": 50,
                    "time": 12.960000000000013,
                    "velocity": 0.7874015748031497,
                    "duration": 0.2400000000000002
                },
                {
                    "name": "D4",
                    "midi": 62,
                    "time": 13.200000000000014,
                    "velocity": 0.7874015748031497,
                    "duration": 0.11999999999999922
                },
                {
                    "name": "E3",
                    "midi": 52,
                    "time": 13.320000000000013,
                    "velocity": 0.7874015748031497,
                    "duration": 0.0600000000000005
                },
                {
                    "name": "F3",
                    "midi": 53,
                    "time": 13.380000000000013,
                    "velocity": 0.7874015748031497,
                    "duration": 0.0600000000000005
                },
                {
                    "name": "G3",
                    "midi": 55,
                    "time": 13.440000000000014,
                    "velocity": 0.7874015748031497,
                    "duration": 0.11999999999999922
                },
                {
                    "name": "A#3",
                    "midi": 58,
                    "time": 13.560000000000013,
                    "velocity": 0.7874015748031497,
                    "duration": 0.11999999999999922
                },
                {
                    "name": "C3",
                    "midi": 48,
                    "time": 13.680000000000012,
                    "velocity": 0.7874015748031497,
                    "duration": 0.0600000000000005
                },
                {
                    "name": "D3",
                    "midi": 50,
                    "time": 13.740000000000013,
                    "velocity": 0.7874015748031497,
                    "duration": 0.0600000000000005
                },
                {
                    "name": "E3",
                    "midi": 52,
                    "time": 13.800000000000013,
                    "velocity": 0.7874015748031497,
                    "duration": 0.11999999999999922
                },
                {
                    "name": "C4",
                    "midi": 60,
                    "time": 13.920000000000012,
                    "velocity": 0.7874015748031497,
                    "duration": 0.11999999999999922
                },
                {
                    "name": "A3",
                    "midi": 57,
                    "time": 14.040000000000012,
                    "velocity": 0.7874015748031497,
                    "duration": 0.0600000000000005
                },
                {
                    "name": "G3",
                    "midi": 55,
                    "time": 14.100000000000012,
                    "velocity": 0.7874015748031497,
                    "duration": 0.0600000000000005
                },
                {
                    "name": "A3",
                    "midi": 57,
                    "time": 14.160000000000013,
                    "velocity": 0.7874015748031497,
                    "duration": 0.0600000000000005
                },
                {
                    "name": "A#3",
                    "midi": 58,
                    "time": 14.220000000000013,
                    "velocity": 0.7874015748031497,
                    "duration": 0.0600000000000005
                },
                {
                    "name": "C4",
                    "midi": 60,
                    "time": 14.280000000000014,
                    "velocity": 0.7874015748031497,
                    "duration": 0.0600000000000005
                },
                {
                    "name": "A3",
                    "midi": 57,
                    "time": 14.340000000000014,
                    "velocity": 0.7874015748031497,
                    "duration": 0.0600000000000005
                },
                {
                    "name": "F3",
                    "midi": 53,
                    "time": 14.400000000000015,
                    "velocity": 0.7874015748031497,
                    "duration": 0.23999999999999844
                },
                {
                    "name": "A3",
                    "midi": 57,
                    "time": 14.640000000000013,
                    "velocity": 0.7874015748031497,
                    "duration": 0.11999999999999922
                },
                {
                    "name": "B2",
                    "midi": 47,
                    "time": 14.760000000000012,
                    "velocity": 0.7874015748031497,
                    "duration": 0.11999999999999922
                },
                {
                    "name": "G3",
                    "midi": 55,
                    "time": 14.880000000000011,
                    "velocity": 0.7874015748031497,
                    "duration": 0.11999999999999922
                },
                {
                    "name": "C#3",
                    "midi": 49,
                    "time": 15.00000000000001,
                    "velocity": 0.7874015748031497,
                    "duration": 0.11999999999999922
                },
                {
                    "name": "D3",
                    "midi": 50,
                    "time": 15.12000000000001,
                    "velocity": 0.7874015748031497,
                    "duration": 0.11999999999999922
                },
                {
                    "name": "F3",
                    "midi": 53,
                    "time": 15.240000000000009,
                    "velocity": 0.7874015748031497,
                    "duration": 0.0600000000000005
                },
                {
                    "name": "C3",
                    "midi": 48,
                    "time": 15.30000000000001,
                    "velocity": 0.7874015748031497,
                    "duration": 0.0600000000000005
                },
                {
                    "name": "A#2",
                    "midi": 46,
                    "time": 15.36000000000001,
                    "velocity": 0.7874015748031497,
                    "duration": 0.0600000000000005
                },
                {
                    "name": "A2",
                    "midi": 45,
                    "time": 15.42000000000001,
                    "velocity": 0.7874015748031497,
                    "duration": 0.0600000000000005
                },
                {
                    "name": "G2",
                    "midi": 43,
                    "time": 15.480000000000011,
                    "velocity": 0.7874015748031497,
                    "duration": 0.11999999999999922
                },
                {
                    "name": "D#3",
                    "midi": 51,
                    "time": 15.60000000000001,
                    "velocity": 0.7874015748031497,
                    "duration": 0.11999999999999922
                },
                {
                    "name": "A2",
                    "midi": 45,
                    "time": 15.72000000000001,
                    "velocity": 0.7874015748031497,
                    "duration": 0.11999999999999922
                },
                {
                    "name": "A#2",
                    "midi": 46,
                    "time": 15.840000000000009,
                    "velocity": 0.7874015748031497,
                    "duration": 0.11999999999999922
                },
                {
                    "name": "D3",
                    "midi": 50,
                    "time": 15.960000000000008,
                    "velocity": 0.7874015748031497,
                    "duration": 0.05999999999999872
                },
                {
                    "name": "A2",
                    "midi": 45,
                    "time": 16.020000000000007,
                    "velocity": 0.7874015748031497,
                    "duration": 0.05999999999999872
                },
                {
                    "name": "G2",
                    "midi": 43,
                    "time": 16.080000000000005,
                    "velocity": 0.7874015748031497,
                    "duration": 0.05999999999999872
                },
                {
                    "name": "F2",
                    "midi": 41,
                    "time": 16.140000000000004,
                    "velocity": 0.7874015748031497,
                    "duration": 0.05999999999999872
                },
                {
                    "name": "E2",
                    "midi": 40,
                    "time": 16.200000000000003,
                    "velocity": 0.7874015748031497,
                    "duration": 0.120000000000001
                },
                {
                    "name": "C#3",
                    "midi": 49,
                    "time": 16.320000000000004,
                    "velocity": 0.7874015748031497,
                    "duration": 0.120000000000001
                },
                {
                    "name": "A#3",
                    "midi": 58,
                    "time": 16.440000000000005,
                    "velocity": 0.7874015748031497,
                    "duration": 0.120000000000001
                },
                {
                    "name": "A3",
                    "midi": 57,
                    "time": 16.560000000000006,
                    "velocity": 0.7874015748031497,
                    "duration": 0.120000000000001
                },
                {
                    "name": "G3",
                    "midi": 55,
                    "time": 16.680000000000007,
                    "velocity": 0.7874015748031497,
                    "duration": 0.05999999999999872
                },
                {
                    "name": "F3",
                    "midi": 53,
                    "time": 16.740000000000006,
                    "velocity": 0.7874015748031497,
                    "duration": 0.05999999999999872
                },
                {
                    "name": "E3",
                    "midi": 52,
                    "time": 16.800000000000004,
                    "velocity": 0.7874015748031497,
                    "duration": 0.05999999999999872
                },
                {
                    "name": "D3",
                    "midi": 50,
                    "time": 16.860000000000003,
                    "velocity": 0.7874015748031497,
                    "duration": 0.05999999999999872
                },
                {
                    "name": "E3",
                    "midi": 52,
                    "time": 16.92,
                    "velocity": 0.7874015748031497,
                    "duration": 0.05999999999999872
                },
                {
                    "name": "F3",
                    "midi": 53,
                    "time": 16.98,
                    "velocity": 0.7874015748031497,
                    "duration": 0.05999999999999872
                },
                {
                    "name": "G3",
                    "midi": 55,
                    "time": 17.04,
                    "velocity": 0.7874015748031497,
                    "duration": 0.05999999999999872
                },
                {
                    "name": "E3",
                    "midi": 52,
                    "time": 17.099999999999998,
                    "velocity": 0.7874015748031497,
                    "duration": 0.05999999999999872
                },
                {
                    "name": "F3",
                    "midi": 53,
                    "time": 17.159999999999997,
                    "velocity": 0.7874015748031497,
                    "duration": 0.05999999999999872
                },
                {
                    "name": "D3",
                    "midi": 50,
                    "time": 17.219999999999995,
                    "velocity": 0.7874015748031497,
                    "duration": 0.05999999999999872
                },
                {
                    "name": "E3",
                    "midi": 52,
                    "time": 17.279999999999994,
                    "velocity": 0.7874015748031497,
                    "duration": 0.120000000000001
                },
                {
                    "name": "A2",
                    "midi": 45,
                    "time": 17.399999999999995,
                    "velocity": 0.7874015748031497,
                    "duration": 0.120000000000001
                },
                {
                    "name": "C4",
                    "midi": 60,
                    "time": 17.519999999999996,
                    "velocity": 0.7874015748031497,
                    "duration": 0.120000000000001
                },
                {
                    "name": "C4",
                    "midi": 60,
                    "time": 17.639999999999997,
                    "velocity": 0.7874015748031497,
                    "duration": 0.05999999999999872
                },
                {
                    "name": "D4",
                    "midi": 62,
                    "time": 17.699999999999996,
                    "velocity": 0.7874015748031497,
                    "duration": 0.05999999999999872
                },
                {
                    "name": "D#4",
                    "midi": 63,
                    "time": 17.759999999999994,
                    "velocity": 0.7874015748031497,
                    "duration": 0.05999999999999872
                },
                {
                    "name": "C4",
                    "midi": 60,
                    "time": 17.819999999999993,
                    "velocity": 0.7874015748031497,
                    "duration": 0.05999999999999872
                },
                {
                    "name": "D4",
                    "midi": 62,
                    "time": 17.879999999999992,
                    "velocity": 0.7874015748031497,
                    "duration": 0.05999999999999872
                },
                {
                    "name": "A3",
                    "midi": 57,
                    "time": 17.93999999999999,
                    "velocity": 0.7874015748031497,
                    "duration": 0.05999999999999872
                },
                {
                    "name": "D3",
                    "midi": 50,
                    "time": 17.99999999999999,
                    "velocity": 0.7874015748031497,
                    "duration": 0.120000000000001
                },
                {
                    "name": "G2",
                    "midi": 43,
                    "time": 18.11999999999999,
                    "velocity": 0.7874015748031497,
                    "duration": 0.120000000000001
                },
                {
                    "name": "D3",
                    "midi": 50,
                    "time": 18.23999999999999,
                    "velocity": 0.7874015748031497,
                    "duration": 0.120000000000001
                },
                {
                    "name": "A#3",
                    "midi": 58,
                    "time": 18.359999999999992,
                    "velocity": 0.7874015748031497,
                    "duration": 0.05999999999999872
                },
                {
                    "name": "C4",
                    "midi": 60,
                    "time": 18.41999999999999,
                    "velocity": 0.7874015748031497,
                    "duration": 0.05999999999999872
                },
                {
                    "name": "D4",
                    "midi": 62,
                    "time": 18.47999999999999,
                    "velocity": 0.7874015748031497,
                    "duration": 0.05999999999999872
                },
                {
                    "name": "A#3",
                    "midi": 58,
                    "time": 18.53999999999999,
                    "velocity": 0.7874015748031497,
                    "duration": 0.05999999999999872
                },
                {
                    "name": "C4",
                    "midi": 60,
                    "time": 18.599999999999987,
                    "velocity": 0.7874015748031497,
                    "duration": 0.05999999999999872
                },
                {
                    "name": "G3",
                    "midi": 55,
                    "time": 18.659999999999986,
                    "velocity": 0.7874015748031497,
                    "duration": 0.05999999999999872
                },
                {
                    "name": "F3",
                    "midi": 53,
                    "time": 18.719999999999985,
                    "velocity": 0.7874015748031497,
                    "duration": 0.120000000000001
                },
                {
                    "name": "F2",
                    "midi": 41,
                    "time": 18.839999999999986,
                    "velocity": 0.7874015748031497,
                    "duration": 0.120000000000001
                },
                {
                    "name": "F3",
                    "midi": 53,
                    "time": 18.959999999999987,
                    "velocity": 0.7874015748031497,
                    "duration": 0.120000000000001
                },
                {
                    "name": "B3",
                    "midi": 59,
                    "time": 19.079999999999988,
                    "velocity": 0.7874015748031497,
                    "duration": 0.05999999999999872
                },
                {
                    "name": "C4",
                    "midi": 60,
                    "time": 19.139999999999986,
                    "velocity": 0.7874015748031497,
                    "duration": 0.05999999999999872
                },
                {
                    "name": "D4",
                    "midi": 62,
                    "time": 19.199999999999985,
                    "velocity": 0.7874015748031497,
                    "duration": 0.05999999999999872
                },
                {
                    "name": "B3",
                    "midi": 59,
                    "time": 19.259999999999984,
                    "velocity": 0.7874015748031497,
                    "duration": 0.05999999999999872
                },
                {
                    "name": "C4",
                    "midi": 60,
                    "time": 19.319999999999983,
                    "velocity": 0.7874015748031497,
                    "duration": 0.05999999999999872
                },
                {
                    "name": "A3",
                    "midi": 57,
                    "time": 19.37999999999998,
                    "velocity": 0.7874015748031497,
                    "duration": 0.05999999999999872
                },
                {
                    "name": "D4",
                    "midi": 62,
                    "time": 19.43999999999998,
                    "velocity": 0.7874015748031497,
                    "duration": 0.05999999999999872
                },
                {
                    "name": "E4",
                    "midi": 64,
                    "time": 19.49999999999998,
                    "velocity": 0.7874015748031497,
                    "duration": 0.05999999999999872
                },
                {
                    "name": "F4",
                    "midi": 65,
                    "time": 19.559999999999977,
                    "velocity": 0.7874015748031497,
                    "duration": 0.05999999999999872
                },
                {
                    "name": "D4",
                    "midi": 62,
                    "time": 19.619999999999976,
                    "velocity": 0.7874015748031497,
                    "duration": 0.05999999999999872
                },
                {
                    "name": "E4",
                    "midi": 64,
                    "time": 19.679999999999975,
                    "velocity": 0.7874015748031497,
                    "duration": 0.05999999999999872
                },
                {
                    "name": "C4",
                    "midi": 60,
                    "time": 19.739999999999974,
                    "velocity": 0.7874015748031497,
                    "duration": 0.05999999999999872
                },
                {
                    "name": "B3",
                    "midi": 59,
                    "time": 19.799999999999972,
                    "velocity": 0.7874015748031497,
                    "duration": 0.05999999999999872
                },
                {
                    "name": "C4",
                    "midi": 60,
                    "time": 19.85999999999997,
                    "velocity": 0.7874015748031497,
                    "duration": 0.05999999999999872
                },
                {
                    "name": "D4",
                    "midi": 62,
                    "time": 19.91999999999997,
                    "velocity": 0.7874015748031497,
                    "duration": 0.05999999999999872
                },
                {
                    "name": "B3",
                    "midi": 59,
                    "time": 19.97999999999997,
                    "velocity": 0.7874015748031497,
                    "duration": 0.05999999999999872
                },
                {
                    "name": "C4",
                    "midi": 60,
                    "time": 20.039999999999967,
                    "velocity": 0.7874015748031497,
                    "duration": 0.05999999999999872
                },
                {
                    "name": "A3",
                    "midi": 57,
                    "time": 20.099999999999966,
                    "velocity": 0.7874015748031497,
                    "duration": 0.05999999999999872
                },
                {
                    "name": "E4",
                    "midi": 64,
                    "time": 20.159999999999965,
                    "velocity": 0.7874015748031497,
                    "duration": 0.23999999999999844
                },
                {
                    "name": "G#3",
                    "midi": 56,
                    "time": 20.399999999999963,
                    "velocity": 0.7874015748031497,
                    "duration": 0.120000000000001
                },
                {
                    "name": "A3",
                    "midi": 57,
                    "time": 20.519999999999964,
                    "velocity": 0.7874015748031497,
                    "duration": 0.05999999999999872
                },
                {
                    "name": "B3",
                    "midi": 59,
                    "time": 20.579999999999963,
                    "velocity": 0.7874015748031497,
                    "duration": 0.05999999999999872
                },
                {
                    "name": "C4",
                    "midi": 60,
                    "time": 20.63999999999996,
                    "velocity": 0.7874015748031497,
                    "duration": 0.05999999999999872
                },
                {
                    "name": "A3",
                    "midi": 57,
                    "time": 20.69999999999996,
                    "velocity": 0.7874015748031497,
                    "duration": 0.05999999999999872
                },
                {
                    "name": "D4",
                    "midi": 62,
                    "time": 20.75999999999996,
                    "velocity": 0.7874015748031497,
                    "duration": 0.05999999999999872
                },
                {
                    "name": "B3",
                    "midi": 59,
                    "time": 20.819999999999958,
                    "velocity": 0.7874015748031497,
                    "duration": 0.05999999999999872
                },
                {
                    "name": "A3",
                    "midi": 57,
                    "time": 20.879999999999956,
                    "velocity": 0.7874015748031497,
                    "duration": 0.05999999999999872
                },
                {
                    "name": "B3",
                    "midi": 59,
                    "time": 20.939999999999955,
                    "velocity": 0.7874015748031497,
                    "duration": 0.05999999999999872
                },
                {
                    "name": "C4",
                    "midi": 60,
                    "time": 20.999999999999954,
                    "velocity": 0.7874015748031497,
                    "duration": 0.05999999999999872
                },
                {
                    "name": "A3",
                    "midi": 57,
                    "time": 21.059999999999953,
                    "velocity": 0.7874015748031497,
                    "duration": 0.05999999999999872
                },
                {
                    "name": "D4",
                    "midi": 62,
                    "time": 21.11999999999995,
                    "velocity": 0.7874015748031497,
                    "duration": 0.05999999999999872
                },
                {
                    "name": "B3",
                    "midi": 59,
                    "time": 21.17999999999995,
                    "velocity": 0.7874015748031497,
                    "duration": 0.05999999999999872
                },
                {
                    "name": "A3",
                    "midi": 57,
                    "time": 21.23999999999995,
                    "velocity": 0.7874015748031497,
                    "duration": 0.05999999999999872
                },
                {
                    "name": "B3",
                    "midi": 59,
                    "time": 21.299999999999947,
                    "velocity": 0.7874015748031497,
                    "duration": 0.05999999999999872
                },
                {
                    "name": "C4",
                    "midi": 60,
                    "time": 21.359999999999946,
                    "velocity": 0.7874015748031497,
                    "duration": 0.05999999999999872
                },
                {
                    "name": "A3",
                    "midi": 57,
                    "time": 21.419999999999945,
                    "velocity": 0.7874015748031497,
                    "duration": 0.05999999999999872
                },
                {
                    "name": "D4",
                    "midi": 62,
                    "time": 21.479999999999944,
                    "velocity": 0.7874015748031497,
                    "duration": 0.05999999999999872
                },
                {
                    "name": "B3",
                    "midi": 59,
                    "time": 21.539999999999942,
                    "velocity": 0.7874015748031497,
                    "duration": 0.05999999999999872
                },
                {
                    "name": "A3",
                    "midi": 57,
                    "time": 21.59999999999994,
                    "velocity": 0.7874015748031497,
                    "duration": 0.05999999999999872
                },
                {
                    "name": "B3",
                    "midi": 59,
                    "time": 21.65999999999994,
                    "velocity": 0.7874015748031497,
                    "duration": 0.05999999999999872
                },
                {
                    "name": "C4",
                    "midi": 60,
                    "time": 21.71999999999994,
                    "velocity": 0.7874015748031497,
                    "duration": 0.05999999999999872
                },
                {
                    "name": "A3",
                    "midi": 57,
                    "time": 21.779999999999937,
                    "velocity": 0.7874015748031497,
                    "duration": 0.05999999999999872
                },
                {
                    "name": "D4",
                    "midi": 62,
                    "time": 21.839999999999936,
                    "velocity": 0.7874015748031497,
                    "duration": 0.05999999999999872
                },
                {
                    "name": "B3",
                    "midi": 59,
                    "time": 21.899999999999935,
                    "velocity": 0.7874015748031497,
                    "duration": 0.05999999999999872
                },
                {
                    "name": "F4",
                    "midi": 65,
                    "time": 21.959999999999933,
                    "velocity": 0.7874015748031497,
                    "duration": 0.120000000000001
                },
                {
                    "name": "E4",
                    "midi": 64,
                    "time": 22.079999999999934,
                    "velocity": 0.7874015748031497,
                    "duration": 0.05999999999999872
                },
                {
                    "name": "D4",
                    "midi": 62,
                    "time": 22.139999999999933,
                    "velocity": 0.7874015748031497,
                    "duration": 0.05999999999999872
                },
                {
                    "name": "C4",
                    "midi": 60,
                    "time": 22.199999999999932,
                    "velocity": 0.7874015748031497,
                    "duration": 0.05999999999999872
                },
                {
                    "name": "B3",
                    "midi": 59,
                    "time": 22.25999999999993,
                    "velocity": 0.7874015748031497,
                    "duration": 0.05999999999999872
                },
                {
                    "name": "C2",
                    "midi": 36,
                    "time": 22.31999999999993,
                    "velocity": 0.7874015748031497,
                    "duration": 0.05999999999999872
                },
                {
                    "name": "E4",
                    "midi": 64,
                    "time": 22.379999999999928,
                    "velocity": 0.7874015748031497,
                    "duration": 0.05999999999999872
                },
                {
                    "name": "D4",
                    "midi": 62,
                    "time": 22.439999999999927,
                    "velocity": 0.7874015748031497,
                    "duration": 0.05999999999999872
                },
                {
                    "name": "C4",
                    "midi": 60,
                    "time": 22.499999999999925,
                    "velocity": 0.7874015748031497,
                    "duration": 0.05999999999999872
                },
                {
                    "name": "B3",
                    "midi": 59,
                    "time": 22.559999999999924,
                    "velocity": 0.7874015748031497,
                    "duration": 0.05999999999999872
                },
                {
                    "name": "G#3",
                    "midi": 56,
                    "time": 22.619999999999923,
                    "velocity": 0.7874015748031497,
                    "duration": 0.05999999999999872
                },
                {
                    "name": "A3",
                    "midi": 57,
                    "time": 22.67999999999992,
                    "velocity": 0.7874015748031497,
                    "duration": 0.05999999999999872
                },
                {
                    "name": "F3",
                    "midi": 53,
                    "time": 22.73999999999992,
                    "velocity": 0.7874015748031497,
                    "duration": 0.05999999999999872
                },
                {
                    "name": "E3",
                    "midi": 52,
                    "time": 22.79999999999992,
                    "velocity": 0.7874015748031497,
                    "duration": 0.05999999999999872
                },
                {
                    "name": "D3",
                    "midi": 50,
                    "time": 22.859999999999918,
                    "velocity": 0.7874015748031497,
                    "duration": 0.05999999999999872
                },
                {
                    "name": "E3",
                    "midi": 52,
                    "time": 22.919999999999916,
                    "velocity": 0.7874015748031497,
                    "duration": 0.05999999999999872
                },
                {
                    "name": "C#3",
                    "midi": 49,
                    "time": 22.979999999999915,
                    "velocity": 0.7874015748031497,
                    "duration": 0.05999999999999872
                },
                {
                    "name": "A2",
                    "midi": 45,
                    "time": 23.039999999999914,
                    "velocity": 0.7874015748031497,
                    "duration": 0.23999999999999844
                },
                {
                    "name": "C4",
                    "midi": 60,
                    "time": 23.279999999999912,
                    "velocity": 0.7874015748031497,
                    "duration": 0.120000000000001
                },
                {
                    "name": "F3",
                    "midi": 53,
                    "time": 23.399999999999913,
                    "velocity": 0.7874015748031497,
                    "duration": 0.23999999999999844
                },
                {
                    "name": "D4",
                    "midi": 62,
                    "time": 23.63999999999991,
                    "velocity": 0.7874015748031497,
                    "duration": 0.120000000000001
                },
                {
                    "name": "E3",
                    "midi": 52,
                    "time": 23.759999999999913,
                    "velocity": 0.7874015748031497,
                    "duration": 0.23999999999999844
                },
                {
                    "name": "A#3",
                    "midi": 58,
                    "time": 23.99999999999991,
                    "velocity": 0.7874015748031497,
                    "duration": 0.120000000000001
                },
                {
                    "name": "A3",
                    "midi": 57,
                    "time": 24.119999999999912,
                    "velocity": 0.7874015748031497,
                    "duration": 0.05999999999999872
                },
                {
                    "name": "G3",
                    "midi": 55,
                    "time": 24.17999999999991,
                    "velocity": 0.7874015748031497,
                    "duration": 0.05999999999999872
                },
                {
                    "name": "A3",
                    "midi": 57,
                    "time": 24.23999999999991,
                    "velocity": 0.7874015748031497,
                    "duration": 0.05999999999999872
                },
                {
                    "name": "A#3",
                    "midi": 58,
                    "time": 24.29999999999991,
                    "velocity": 0.7874015748031497,
                    "duration": 0.05999999999999872
                },
                {
                    "name": "C4",
                    "midi": 60,
                    "time": 24.359999999999907,
                    "velocity": 0.7874015748031497,
                    "duration": 0.120000000000001
                },
                {
                    "name": "F3",
                    "midi": 53,
                    "time": 24.479999999999908,
                    "velocity": 0.7874015748031497,
                    "duration": 0.23999999999999844
                },
                {
                    "name": "A3",
                    "midi": 57,
                    "time": 24.719999999999906,
                    "velocity": 0.7874015748031497,
                    "duration": 0.120000000000001
                },
                {
                    "name": "D3",
                    "midi": 50,
                    "time": 24.839999999999907,
                    "velocity": 0.7874015748031497,
                    "duration": 0.05999999999999872
                },
                {
                    "name": "E3",
                    "midi": 52,
                    "time": 24.899999999999906,
                    "velocity": 0.7874015748031497,
                    "duration": 0.05999999999999872
                },
                {
                    "name": "F3",
                    "midi": 53,
                    "time": 24.959999999999905,
                    "velocity": 0.7874015748031497,
                    "duration": 0.05999999999999872
                },
                {
                    "name": "D3",
                    "midi": 50,
                    "time": 25.019999999999904,
                    "velocity": 0.7874015748031497,
                    "duration": 0.05999999999999872
                },
                {
                    "name": "C3",
                    "midi": 48,
                    "time": 25.079999999999902,
                    "velocity": 0.7874015748031497,
                    "duration": 0.05999999999999872
                },
                {
                    "name": "B2",
                    "midi": 47,
                    "time": 25.1399999999999,
                    "velocity": 0.7874015748031497,
                    "duration": 0.05999999999999872
                },
                {
                    "name": "G3",
                    "midi": 55,
                    "time": 25.1999999999999,
                    "velocity": 0.7874015748031497,
                    "duration": 0.05999999999999872
                },
                {
                    "name": "A3",
                    "midi": 57,
                    "time": 25.2599999999999,
                    "velocity": 0.7874015748031497,
                    "duration": 0.05999999999999872
                },
                {
                    "name": "G3",
                    "midi": 55,
                    "time": 25.319999999999897,
                    "velocity": 0.7874015748031497,
                    "duration": 0.05999999999999872
                },
                {
                    "name": "F3",
                    "midi": 53,
                    "time": 25.379999999999896,
                    "velocity": 0.7874015748031497,
                    "duration": 0.05999999999999872
                },
                {
                    "name": "E3",
                    "midi": 52,
                    "time": 25.439999999999895,
                    "velocity": 0.7874015748031497,
                    "duration": 0.05999999999999872
                },
                {
                    "name": "D3",
                    "midi": 50,
                    "time": 25.499999999999893,
                    "velocity": 0.7874015748031497,
                    "duration": 0.05999999999999872
                },
                {
                    "name": "E3",
                    "midi": 52,
                    "time": 25.559999999999892,
                    "velocity": 0.7874015748031497,
                    "duration": 0.05999999999999872
                },
                {
                    "name": "D3",
                    "midi": 50,
                    "time": 25.61999999999989,
                    "velocity": 0.7874015748031497,
                    "duration": 0.05999999999999872
                },
                {
                    "name": "E3",
                    "midi": 52,
                    "time": 25.67999999999989,
                    "velocity": 0.7874015748031497,
                    "duration": 0.05999999999999872
                },
                {
                    "name": "F3",
                    "midi": 53,
                    "time": 25.73999999999989,
                    "velocity": 0.7874015748031497,
                    "duration": 0.05999999999999872
                },
                {
                    "name": "G3",
                    "midi": 55,
                    "time": 25.799999999999887,
                    "velocity": 0.7874015748031497,
                    "duration": 0.05999999999999872
                },
                {
                    "name": "E3",
                    "midi": 52,
                    "time": 25.859999999999886,
                    "velocity": 0.7874015748031497,
                    "duration": 0.05999999999999872
                },
                {
                    "name": "C3",
                    "midi": 48,
                    "time": 25.919999999999884,
                    "velocity": 0.7874015748031497,
                    "duration": 0.23999999999999844
                },
                {
                    "name": "E3",
                    "midi": 52,
                    "time": 26.159999999999883,
                    "velocity": 0.7874015748031497,
                    "duration": 0.120000000000001
                },
                {
                    "name": "F#3",
                    "midi": 54,
                    "time": 26.279999999999884,
                    "velocity": 0.7874015748031497,
                    "duration": 0.05999999999999872
                },
                {
                    "name": "G3",
                    "midi": 55,
                    "time": 26.339999999999883,
                    "velocity": 0.7874015748031497,
                    "duration": 0.05999999999999872
                },
                {
                    "name": "A3",
                    "midi": 57,
                    "time": 26.39999999999988,
                    "velocity": 0.7874015748031497,
                    "duration": 0.05999999999999872
                },
                {
                    "name": "C3",
                    "midi": 48,
                    "time": 26.45999999999988,
                    "velocity": 0.7874015748031497,
                    "duration": 0.05999999999999872
                },
                {
                    "name": "A#2",
                    "midi": 46,
                    "time": 26.51999999999988,
                    "velocity": 0.7874015748031497,
                    "duration": 0.05999999999999872
                },
                {
                    "name": "A2",
                    "midi": 45,
                    "time": 26.579999999999878,
                    "velocity": 0.7874015748031497,
                    "duration": 0.05999999999999872
                },
                {
                    "name": "A#2",
                    "midi": 46,
                    "time": 26.639999999999876,
                    "velocity": 0.7874015748031497,
                    "duration": 0.05999999999999872
                },
                {
                    "name": "D3",
                    "midi": 50,
                    "time": 26.699999999999875,
                    "velocity": 0.7874015748031497,
                    "duration": 0.05999999999999872
                },
                {
                    "name": "G3",
                    "midi": 55,
                    "time": 26.759999999999874,
                    "velocity": 0.7874015748031497,
                    "duration": 0.05999999999999872
                },
                {
                    "name": "A#2",
                    "midi": 46,
                    "time": 26.819999999999872,
                    "velocity": 0.7874015748031497,
                    "duration": 0.05999999999999872
                },
                {
                    "name": "A2",
                    "midi": 45,
                    "time": 26.87999999999987,
                    "velocity": 0.7874015748031497,
                    "duration": 0.05999999999999872
                },
                {
                    "name": "G2",
                    "midi": 43,
                    "time": 26.93999999999987,
                    "velocity": 0.7874015748031497,
                    "duration": 0.05999999999999872
                },
                {
                    "name": "F#2",
                    "midi": 42,
                    "time": 26.99999999999987,
                    "velocity": 0.7874015748031497,
                    "duration": 0.05999999999999872
                },
                {
                    "name": "A2",
                    "midi": 45,
                    "time": 27.059999999999867,
                    "velocity": 0.7874015748031497,
                    "duration": 0.05999999999999872
                },
                {
                    "name": "C3",
                    "midi": 48,
                    "time": 27.119999999999866,
                    "velocity": 0.7874015748031497,
                    "duration": 0.05999999999999872
                },
                {
                    "name": "D#3",
                    "midi": 51,
                    "time": 27.179999999999865,
                    "velocity": 0.7874015748031497,
                    "duration": 0.05999999999999872
                },
                {
                    "name": "D3",
                    "midi": 50,
                    "time": 27.239999999999863,
                    "velocity": 0.7874015748031497,
                    "duration": 0.05999999999999872
                },
                {
                    "name": "C3",
                    "midi": 48,
                    "time": 27.299999999999862,
                    "velocity": 0.7874015748031497,
                    "duration": 0.05999999999999872
                },
                {
                    "name": "A#2",
                    "midi": 46,
                    "time": 27.35999999999986,
                    "velocity": 0.7874015748031497,
                    "duration": 0.05999999999999872
                },
                {
                    "name": "A2",
                    "midi": 45,
                    "time": 27.41999999999986,
                    "velocity": 0.7874015748031497,
                    "duration": 0.05999999999999872
                },
                {
                    "name": "A#2",
                    "midi": 46,
                    "time": 27.47999999999986,
                    "velocity": 0.7874015748031497,
                    "duration": 0.05999999999999872
                },
                {
                    "name": "D3",
                    "midi": 50,
                    "time": 27.539999999999857,
                    "velocity": 0.7874015748031497,
                    "duration": 0.05999999999999872
                },
                {
                    "name": "G3",
                    "midi": 55,
                    "time": 27.599999999999856,
                    "velocity": 0.7874015748031497,
                    "duration": 0.05999999999999872
                },
                {
                    "name": "A#3",
                    "midi": 58,
                    "time": 27.659999999999854,
                    "velocity": 0.7874015748031497,
                    "duration": 0.05999999999999872
                },
                {
                    "name": "G#3",
                    "midi": 56,
                    "time": 27.719999999999853,
                    "velocity": 0.7874015748031497,
                    "duration": 0.05999999999999872
                },
                {
                    "name": "G3",
                    "midi": 55,
                    "time": 27.779999999999852,
                    "velocity": 0.7874015748031497,
                    "duration": 0.05999999999999872
                },
                {
                    "name": "G#3",
                    "midi": 56,
                    "time": 27.83999999999985,
                    "velocity": 0.7874015748031497,
                    "duration": 0.05999999999999872
                },
                {
                    "name": "F#3",
                    "midi": 54,
                    "time": 27.89999999999985,
                    "velocity": 0.7874015748031497,
                    "duration": 0.05999999999999872
                },
                {
                    "name": "G3",
                    "midi": 55,
                    "time": 27.959999999999848,
                    "velocity": 0.7874015748031497,
                    "duration": 0.05999999999999872
                },
                {
                    "name": "D#4",
                    "midi": 63,
                    "time": 28.019999999999847,
                    "velocity": 0.7874015748031497,
                    "duration": 0.05999999999999872
                },
                {
                    "name": "D3",
                    "midi": 50,
                    "time": 28.079999999999846,
                    "velocity": 0.7874015748031497,
                    "duration": 0.120000000000001
                },
                {
                    "name": "G3",
                    "midi": 55,
                    "time": 28.199999999999847,
                    "velocity": 0.7874015748031497,
                    "duration": 0.120000000000001
                },
                {
                    "name": "F#3",
                    "midi": 54,
                    "time": 28.319999999999848,
                    "velocity": 0.7874015748031497,
                    "duration": 0.120000000000001
                },
                {
                    "name": "G3",
                    "midi": 55,
                    "time": 28.43999999999985,
                    "velocity": 0.7874015748031497,
                    "duration": 0.05999999999999872
                },
                {
                    "name": "D#3",
                    "midi": 51,
                    "time": 28.499999999999847,
                    "velocity": 0.7874015748031497,
                    "duration": 0.05999999999999872
                },
                {
                    "name": "D3",
                    "midi": 50,
                    "time": 28.559999999999846,
                    "velocity": 0.7874015748031497,
                    "duration": 0.05999999999999872
                },
                {
                    "name": "C3",
                    "midi": 48,
                    "time": 28.619999999999845,
                    "velocity": 0.7874015748031497,
                    "duration": 0.05999999999999872
                },
                {
                    "name": "D3",
                    "midi": 50,
                    "time": 28.679999999999843,
                    "velocity": 0.7874015748031497,
                    "duration": 0.05999999999999872
                },
                {
                    "name": "A#2",
                    "midi": 46,
                    "time": 28.739999999999842,
                    "velocity": 0.7874015748031497,
                    "duration": 0.05999999999999872
                },
                {
                    "name": "G2",
                    "midi": 43,
                    "time": 28.79999999999984,
                    "velocity": 0.7874015748031497,
                    "duration": 0.23999999999999844
                },
                {
                    "name": "A#3",
                    "midi": 58,
                    "time": 29.03999999999984,
                    "velocity": 0.7874015748031497,
                    "duration": 0.120000000000001
                },
                {
                    "name": "E3",
                    "midi": 52,
                    "time": 29.15999999999984,
                    "velocity": 0.7874015748031497,
                    "duration": 0.05999999999999872
                },
                {
                    "name": "F3",
                    "midi": 53,
                    "time": 29.21999999999984,
                    "velocity": 0.7874015748031497,
                    "duration": 0.05999999999999872
                },
                {
                    "name": "G3",
                    "midi": 55,
                    "time": 29.279999999999838,
                    "velocity": 0.7874015748031497,
                    "duration": 0.05999999999999872
                },
                {
                    "name": "E3",
                    "midi": 52,
                    "time": 29.339999999999836,
                    "velocity": 0.7874015748031497,
                    "duration": 0.05999999999999872
                },
                {
                    "name": "F3",
                    "midi": 53,
                    "time": 29.399999999999835,
                    "velocity": 0.7874015748031497,
                    "duration": 0.05999999999999872
                },
                {
                    "name": "D3",
                    "midi": 50,
                    "time": 29.459999999999834,
                    "velocity": 0.7874015748031497,
                    "duration": 0.05999999999999872
                },
                {
                    "name": "C3",
                    "midi": 48,
                    "time": 29.519999999999833,
                    "velocity": 0.7874015748031497,
                    "duration": 0.05999999999999872
                },
                {
                    "name": "D3",
                    "midi": 50,
                    "time": 29.57999999999983,
                    "velocity": 0.7874015748031497,
                    "duration": 0.05999999999999872
                },
                {
                    "name": "E3",
                    "midi": 52,
                    "time": 29.63999999999983,
                    "velocity": 0.7874015748031497,
                    "duration": 0.05999999999999872
                },
                {
                    "name": "C3",
                    "midi": 48,
                    "time": 29.69999999999983,
                    "velocity": 0.7874015748031497,
                    "duration": 0.05999999999999872
                },
                {
                    "name": "D3",
                    "midi": 50,
                    "time": 29.759999999999827,
                    "velocity": 0.7874015748031497,
                    "duration": 0.05999999999999872
                },
                {
                    "name": "A#2",
                    "midi": 46,
                    "time": 29.819999999999826,
                    "velocity": 0.7874015748031497,
                    "duration": 0.05999999999999872
                },
                {
                    "name": "A2",
                    "midi": 45,
                    "time": 29.879999999999825,
                    "velocity": 0.7874015748031497,
                    "duration": 0.05999999999999872
                },
                {
                    "name": "A#2",
                    "midi": 46,
                    "time": 29.939999999999824,
                    "velocity": 0.7874015748031497,
                    "duration": 0.05999999999999872
                },
                {
                    "name": "C3",
                    "midi": 48,
                    "time": 29.999999999999822,
                    "velocity": 0.7874015748031497,
                    "duration": 0.05999999999999872
                },
                {
                    "name": "A2",
                    "midi": 45,
                    "time": 30.05999999999982,
                    "velocity": 0.7874015748031497,
                    "duration": 0.05999999999999872
                },
                {
                    "name": "A#2",
                    "midi": 46,
                    "time": 30.11999999999982,
                    "velocity": 0.7874015748031497,
                    "duration": 0.05999999999999872
                },
                {
                    "name": "G2",
                    "midi": 43,
                    "time": 30.17999999999982,
                    "velocity": 0.7874015748031497,
                    "duration": 0.05999999999999872
                },
                {
                    "name": "F2",
                    "midi": 41,
                    "time": 30.239999999999817,
                    "velocity": 0.7874015748031497,
                    "duration": 0.23999999999999844
                },
                {
                    "name": "A3",
                    "midi": 57,
                    "time": 30.479999999999816,
                    "velocity": 0.7874015748031497,
                    "duration": 0.120000000000001
                },
                {
                    "name": "D3",
                    "midi": 50,
                    "time": 30.599999999999817,
                    "velocity": 0.7874015748031497,
                    "duration": 0.05999999999999872
                },
                {
                    "name": "E3",
                    "midi": 52,
                    "time": 30.659999999999815,
                    "velocity": 0.7874015748031497,
                    "duration": 0.05999999999999872
                },
                {
                    "name": "F3",
                    "midi": 53,
                    "time": 30.719999999999814,
                    "velocity": 0.7874015748031497,
                    "duration": 0.05999999999999872
                },
                {
                    "name": "D3",
                    "midi": 50,
                    "time": 30.779999999999813,
                    "velocity": 0.7874015748031497,
                    "duration": 0.05999999999999872
                },
                {
                    "name": "E3",
                    "midi": 52,
                    "time": 30.83999999999981,
                    "velocity": 0.7874015748031497,
                    "duration": 0.05999999999999872
                },
                {
                    "name": "C3",
                    "midi": 48,
                    "time": 30.89999999999981,
                    "velocity": 0.7874015748031497,
                    "duration": 0.05999999999999872
                },
                {
                    "name": "A#2",
                    "midi": 46,
                    "time": 30.95999999999981,
                    "velocity": 0.7874015748031497,
                    "duration": 0.05999999999999872
                },
                {
                    "name": "C3",
                    "midi": 48,
                    "time": 31.019999999999808,
                    "velocity": 0.7874015748031497,
                    "duration": 0.05999999999999872
                },
                {
                    "name": "D3",
                    "midi": 50,
                    "time": 31.079999999999806,
                    "velocity": 0.7874015748031497,
                    "duration": 0.05999999999999872
                },
                {
                    "name": "A#2",
                    "midi": 46,
                    "time": 31.139999999999805,
                    "velocity": 0.7874015748031497,
                    "duration": 0.05999999999999872
                },
                {
                    "name": "C3",
                    "midi": 48,
                    "time": 31.199999999999804,
                    "velocity": 0.7874015748031497,
                    "duration": 0.05999999999999872
                },
                {
                    "name": "A2",
                    "midi": 45,
                    "time": 31.259999999999803,
                    "velocity": 0.7874015748031497,
                    "duration": 0.05999999999999872
                },
                {
                    "name": "G2",
                    "midi": 43,
                    "time": 31.3199999999998,
                    "velocity": 0.7874015748031497,
                    "duration": 0.05999999999999872
                },
                {
                    "name": "A2",
                    "midi": 45,
                    "time": 31.3799999999998,
                    "velocity": 0.7874015748031497,
                    "duration": 0.05999999999999872
                },
                {
                    "name": "A#2",
                    "midi": 46,
                    "time": 31.4399999999998,
                    "velocity": 0.7874015748031497,
                    "duration": 0.05999999999999872
                },
                {
                    "name": "G2",
                    "midi": 43,
                    "time": 31.499999999999797,
                    "velocity": 0.7874015748031497,
                    "duration": 0.05999999999999872
                },
                {
                    "name": "A2",
                    "midi": 45,
                    "time": 31.559999999999796,
                    "velocity": 0.7874015748031497,
                    "duration": 0.05999999999999872
                },
                {
                    "name": "F2",
                    "midi": 41,
                    "time": 31.619999999999795,
                    "velocity": 0.7874015748031497,
                    "duration": 0.05999999999999872
                },
                {
                    "name": "E2",
                    "midi": 40,
                    "time": 31.679999999999794,
                    "velocity": 0.7874015748031497,
                    "duration": 0.23999999999999844
                },
                {
                    "name": "G3",
                    "midi": 55,
                    "time": 31.919999999999792,
                    "velocity": 0.7874015748031497,
                    "duration": 0.120000000000001
                },
                {
                    "name": "A2",
                    "midi": 45,
                    "time": 32.03999999999979,
                    "velocity": 0.7874015748031497,
                    "duration": 0.060000000000002274
                },
                {
                    "name": "B2",
                    "midi": 47,
                    "time": 32.099999999999795,
                    "velocity": 0.7874015748031497,
                    "duration": 0.060000000000002274
                },
                {
                    "name": "C#3",
                    "midi": 49,
                    "time": 32.1599999999998,
                    "velocity": 0.7874015748031497,
                    "duration": 0.060000000000002274
                },
                {
                    "name": "D3",
                    "midi": 50,
                    "time": 32.2199999999998,
                    "velocity": 0.7874015748031497,
                    "duration": 0.060000000000002274
                },
                {
                    "name": "E3",
                    "midi": 52,
                    "time": 32.2799999999998,
                    "velocity": 0.7874015748031497,
                    "duration": 0.060000000000002274
                },
                {
                    "name": "G3",
                    "midi": 55,
                    "time": 32.339999999999804,
                    "velocity": 0.7874015748031497,
                    "duration": 0.060000000000002274
                },
                {
                    "name": "F3",
                    "midi": 53,
                    "time": 32.39999999999981,
                    "velocity": 0.7874015748031497,
                    "duration": 0.060000000000002274
                },
                {
                    "name": "G3",
                    "midi": 55,
                    "time": 32.45999999999981,
                    "velocity": 0.7874015748031497,
                    "duration": 0.060000000000002274
                },
                {
                    "name": "A3",
                    "midi": 57,
                    "time": 32.51999999999981,
                    "velocity": 0.7874015748031497,
                    "duration": 0.060000000000002274
                },
                {
                    "name": "C#4",
                    "midi": 61,
                    "time": 32.579999999999814,
                    "velocity": 0.7874015748031497,
                    "duration": 0.060000000000002274
                },
                {
                    "name": "D4",
                    "midi": 62,
                    "time": 32.639999999999816,
                    "velocity": 0.7874015748031497,
                    "duration": 0.060000000000002274
                },
                {
                    "name": "F3",
                    "midi": 53,
                    "time": 32.69999999999982,
                    "velocity": 0.7874015748031497,
                    "duration": 0.060000000000002274
                },
                {
                    "name": "E3",
                    "midi": 52,
                    "time": 32.75999999999982,
                    "velocity": 0.7874015748031497,
                    "duration": 0.060000000000002274
                },
                {
                    "name": "F3",
                    "midi": 53,
                    "time": 32.81999999999982,
                    "velocity": 0.7874015748031497,
                    "duration": 0.060000000000002274
                },
                {
                    "name": "G3",
                    "midi": 55,
                    "time": 32.879999999999825,
                    "velocity": 0.7874015748031497,
                    "duration": 0.060000000000002274
                },
                {
                    "name": "A3",
                    "midi": 57,
                    "time": 32.93999999999983,
                    "velocity": 0.7874015748031497,
                    "duration": 0.060000000000002274
                },
                {
                    "name": "A#3",
                    "midi": 58,
                    "time": 32.99999999999983,
                    "velocity": 0.7874015748031497,
                    "duration": 0.060000000000002274
                },
                {
                    "name": "D3",
                    "midi": 50,
                    "time": 33.05999999999983,
                    "velocity": 0.7874015748031497,
                    "duration": 0.060000000000002274
                },
                {
                    "name": "C#3",
                    "midi": 49,
                    "time": 33.119999999999834,
                    "velocity": 0.7874015748031497,
                    "duration": 0.060000000000002274
                },
                {
                    "name": "D3",
                    "midi": 50,
                    "time": 33.179999999999836,
                    "velocity": 0.7874015748031497,
                    "duration": 0.060000000000002274
                },
                {
                    "name": "E3",
                    "midi": 52,
                    "time": 33.23999999999984,
                    "velocity": 0.7874015748031497,
                    "duration": 0.060000000000002274
                },
                {
                    "name": "A2",
                    "midi": 45,
                    "time": 33.29999999999984,
                    "velocity": 0.7874015748031497,
                    "duration": 0.060000000000002274
                },
                {
                    "name": "A#2",
                    "midi": 46,
                    "time": 33.35999999999984,
                    "velocity": 0.7874015748031497,
                    "duration": 0.060000000000002274
                },
                {
                    "name": "G2",
                    "midi": 43,
                    "time": 33.419999999999845,
                    "velocity": 0.7874015748031497,
                    "duration": 0.060000000000002274
                },
                {
                    "name": "D3",
                    "midi": 50,
                    "time": 33.47999999999985,
                    "velocity": 0.7874015748031497,
                    "duration": 0.060000000000002274
                },
                {
                    "name": "E3",
                    "midi": 52,
                    "time": 33.53999999999985,
                    "velocity": 0.7874015748031497,
                    "duration": 0.060000000000002274
                },
                {
                    "name": "F3",
                    "midi": 53,
                    "time": 33.59999999999985,
                    "velocity": 0.7874015748031497,
                    "duration": 0.060000000000002274
                },
                {
                    "name": "D3",
                    "midi": 50,
                    "time": 33.659999999999854,
                    "velocity": 0.7874015748031497,
                    "duration": 0.060000000000002274
                },
                {
                    "name": "G3",
                    "midi": 55,
                    "time": 33.71999999999986,
                    "velocity": 0.7874015748031497,
                    "duration": 0.060000000000002274
                },
                {
                    "name": "E3",
                    "midi": 52,
                    "time": 33.77999999999986,
                    "velocity": 0.7874015748031497,
                    "duration": 0.060000000000002274
                },
                {
                    "name": "D3",
                    "midi": 50,
                    "time": 33.83999999999986,
                    "velocity": 0.7874015748031497,
                    "duration": 0.060000000000002274
                },
                {
                    "name": "E3",
                    "midi": 52,
                    "time": 33.899999999999864,
                    "velocity": 0.7874015748031497,
                    "duration": 0.060000000000002274
                },
                {
                    "name": "F3",
                    "midi": 53,
                    "time": 33.959999999999866,
                    "velocity": 0.7874015748031497,
                    "duration": 0.060000000000002274
                },
                {
                    "name": "D3",
                    "midi": 50,
                    "time": 34.01999999999987,
                    "velocity": 0.7874015748031497,
                    "duration": 0.060000000000002274
                },
                {
                    "name": "G3",
                    "midi": 55,
                    "time": 34.07999999999987,
                    "velocity": 0.7874015748031497,
                    "duration": 0.060000000000002274
                },
                {
                    "name": "E3",
                    "midi": 52,
                    "time": 34.13999999999987,
                    "velocity": 0.7874015748031497,
                    "duration": 0.060000000000002274
                },
                {
                    "name": "D3",
                    "midi": 50,
                    "time": 34.199999999999875,
                    "velocity": 0.7874015748031497,
                    "duration": 0.060000000000002274
                },
                {
                    "name": "E3",
                    "midi": 52,
                    "time": 34.25999999999988,
                    "velocity": 0.7874015748031497,
                    "duration": 0.060000000000002274
                },
                {
                    "name": "F3",
                    "midi": 53,
                    "time": 34.31999999999988,
                    "velocity": 0.7874015748031497,
                    "duration": 0.060000000000002274
                },
                {
                    "name": "D3",
                    "midi": 50,
                    "time": 34.37999999999988,
                    "velocity": 0.7874015748031497,
                    "duration": 0.060000000000002274
                },
                {
                    "name": "G3",
                    "midi": 55,
                    "time": 34.439999999999884,
                    "velocity": 0.7874015748031497,
                    "duration": 0.060000000000002274
                },
                {
                    "name": "E3",
                    "midi": 52,
                    "time": 34.499999999999886,
                    "velocity": 0.7874015748031497,
                    "duration": 0.060000000000002274
                },
                {
                    "name": "D3",
                    "midi": 50,
                    "time": 34.55999999999989,
                    "velocity": 0.7874015748031497,
                    "duration": 0.060000000000002274
                },
                {
                    "name": "E3",
                    "midi": 52,
                    "time": 34.61999999999989,
                    "velocity": 0.7874015748031497,
                    "duration": 0.060000000000002274
                },
                {
                    "name": "F3",
                    "midi": 53,
                    "time": 34.67999999999989,
                    "velocity": 0.7874015748031497,
                    "duration": 0.060000000000002274
                },
                {
                    "name": "D3",
                    "midi": 50,
                    "time": 34.739999999999895,
                    "velocity": 0.7874015748031497,
                    "duration": 0.060000000000002274
                },
                {
                    "name": "G3",
                    "midi": 55,
                    "time": 34.7999999999999,
                    "velocity": 0.7874015748031497,
                    "duration": 0.060000000000002274
                },
                {
                    "name": "E3",
                    "midi": 52,
                    "time": 34.8599999999999,
                    "velocity": 0.7874015748031497,
                    "duration": 0.060000000000002274
                },
                {
                    "name": "C#3",
                    "midi": 49,
                    "time": 34.9199999999999,
                    "velocity": 0.7874015748031497,
                    "duration": 0.060000000000002274
                },
                {
                    "name": "A#3",
                    "midi": 58,
                    "time": 34.979999999999905,
                    "velocity": 0.7874015748031497,
                    "duration": 0.060000000000002274
                },
                {
                    "name": "A3",
                    "midi": 57,
                    "time": 35.03999999999991,
                    "velocity": 0.7874015748031497,
                    "duration": 0.060000000000002274
                },
                {
                    "name": "G3",
                    "midi": 55,
                    "time": 35.09999999999991,
                    "velocity": 0.7874015748031497,
                    "duration": 0.060000000000002274
                },
                {
                    "name": "F3",
                    "midi": 53,
                    "time": 35.15999999999991,
                    "velocity": 0.7874015748031497,
                    "duration": 0.060000000000002274
                },
                {
                    "name": "E3",
                    "midi": 52,
                    "time": 35.219999999999914,
                    "velocity": 0.7874015748031497,
                    "duration": 0.060000000000002274
                },
                {
                    "name": "F2",
                    "midi": 41,
                    "time": 35.279999999999916,
                    "velocity": 0.7874015748031497,
                    "duration": 0.060000000000002274
                },
                {
                    "name": "A3",
                    "midi": 57,
                    "time": 35.33999999999992,
                    "velocity": 0.7874015748031497,
                    "duration": 0.060000000000002274
                },
                {
                    "name": "G3",
                    "midi": 55,
                    "time": 35.39999999999992,
                    "velocity": 0.7874015748031497,
                    "duration": 0.060000000000002274
                },
                {
                    "name": "F3",
                    "midi": 53,
                    "time": 35.45999999999992,
                    "velocity": 0.7874015748031497,
                    "duration": 0.060000000000002274
                },
                {
                    "name": "E3",
                    "midi": 52,
                    "time": 35.519999999999925,
                    "velocity": 0.7874015748031497,
                    "duration": 0.060000000000002274
                },
                {
                    "name": "C#3",
                    "midi": 49,
                    "time": 35.57999999999993,
                    "velocity": 0.7874015748031497,
                    "duration": 0.060000000000002274
                },
                {
                    "name": "D3",
                    "midi": 50,
                    "time": 35.63999999999993,
                    "velocity": 0.7874015748031497,
                    "duration": 0.060000000000002274
                },
                {
                    "name": "A#2",
                    "midi": 46,
                    "time": 35.69999999999993,
                    "velocity": 0.7874015748031497,
                    "duration": 0.060000000000002274
                },
                {
                    "name": "A2",
                    "midi": 45,
                    "time": 35.759999999999934,
                    "velocity": 0.7874015748031497,
                    "duration": 0.060000000000002274
                },
                {
                    "name": "G2",
                    "midi": 43,
                    "time": 35.819999999999936,
                    "velocity": 0.7874015748031497,
                    "duration": 0.060000000000002274
                },
                {
                    "name": "A2",
                    "midi": 45,
                    "time": 35.87999999999994,
                    "velocity": 0.7874015748031497,
                    "duration": 0.060000000000002274
                },
                {
                    "name": "F2",
                    "midi": 41,
                    "time": 35.93999999999994,
                    "velocity": 0.7874015748031497,
                    "duration": 0.060000000000002274
                },
                {
                    "name": "D2",
                    "midi": 38,
                    "time": 35.99999999999994,
                    "velocity": 0.7874015748031497,
                    "duration": 0.060000000000002274
                },
                {
                    "name": "A2",
                    "midi": 45,
                    "time": 36.059999999999945,
                    "velocity": 0.7874015748031497,
                    "duration": 0.060000000000002274
                },
                {
                    "name": "D3",
                    "midi": 50,
                    "time": 36.11999999999995,
                    "velocity": 0.7874015748031497,
                    "duration": 0.060000000000002274
                },
                {
                    "name": "E3",
                    "midi": 52,
                    "time": 36.17999999999995,
                    "velocity": 0.7874015748031497,
                    "duration": 0.060000000000002274
                },
                {
                    "name": "F3",
                    "midi": 53,
                    "time": 36.23999999999995,
                    "velocity": 0.7874015748031497,
                    "duration": 0.060000000000002274
                },
                {
                    "name": "D3",
                    "midi": 50,
                    "time": 36.299999999999955,
                    "velocity": 0.7874015748031497,
                    "duration": 0.060000000000002274
                },
                {
                    "name": "D#3",
                    "midi": 51,
                    "time": 36.35999999999996,
                    "velocity": 0.7874015748031497,
                    "duration": 0.060000000000002274
                },
                {
                    "name": "F3",
                    "midi": 53,
                    "time": 36.41999999999996,
                    "velocity": 0.7874015748031497,
                    "duration": 0.060000000000002274
                },
                {
                    "name": "G3",
                    "midi": 55,
                    "time": 36.47999999999996,
                    "velocity": 0.7874015748031497,
                    "duration": 0.060000000000002274
                },
                {
                    "name": "D#3",
                    "midi": 51,
                    "time": 36.539999999999964,
                    "velocity": 0.7874015748031497,
                    "duration": 0.060000000000002274
                },
                {
                    "name": "F3",
                    "midi": 53,
                    "time": 36.599999999999966,
                    "velocity": 0.7874015748031497,
                    "duration": 0.060000000000002274
                },
                {
                    "name": "D3",
                    "midi": 50,
                    "time": 36.65999999999997,
                    "velocity": 0.7874015748031497,
                    "duration": 0.060000000000002274
                },
                {
                    "name": "G3",
                    "midi": 55,
                    "time": 36.71999999999997,
                    "velocity": 0.7874015748031497,
                    "duration": 0.060000000000002274
                },
                {
                    "name": "A3",
                    "midi": 57,
                    "time": 36.77999999999997,
                    "velocity": 0.7874015748031497,
                    "duration": 0.060000000000002274
                },
                {
                    "name": "A#3",
                    "midi": 58,
                    "time": 36.839999999999975,
                    "velocity": 0.7874015748031497,
                    "duration": 0.060000000000002274
                },
                {
                    "name": "G3",
                    "midi": 55,
                    "time": 36.89999999999998,
                    "velocity": 0.7874015748031497,
                    "duration": 0.060000000000002274
                },
                {
                    "name": "A3",
                    "midi": 57,
                    "time": 36.95999999999998,
                    "velocity": 0.7874015748031497,
                    "duration": 0.060000000000002274
                },
                {
                    "name": "F3",
                    "midi": 53,
                    "time": 37.01999999999998,
                    "velocity": 0.7874015748031497,
                    "duration": 0.060000000000002274
                },
                {
                    "name": "D#3",
                    "midi": 51,
                    "time": 37.079999999999984,
                    "velocity": 0.7874015748031497,
                    "duration": 0.060000000000002274
                },
                {
                    "name": "F3",
                    "midi": 53,
                    "time": 37.139999999999986,
                    "velocity": 0.7874015748031497,
                    "duration": 0.060000000000002274
                },
                {
                    "name": "G3",
                    "midi": 55,
                    "time": 37.19999999999999,
                    "velocity": 0.7874015748031497,
                    "duration": 0.060000000000002274
                },
                {
                    "name": "D#3",
                    "midi": 51,
                    "time": 37.25999999999999,
                    "velocity": 0.7874015748031497,
                    "duration": 0.060000000000002274
                },
                {
                    "name": "F3",
                    "midi": 53,
                    "time": 37.31999999999999,
                    "velocity": 0.7874015748031497,
                    "duration": 0.060000000000002274
                },
                {
                    "name": "D3",
                    "midi": 50,
                    "time": 37.379999999999995,
                    "velocity": 0.7874015748031497,
                    "duration": 0.060000000000002274
                },
                {
                    "name": "E3",
                    "midi": 52,
                    "time": 37.44,
                    "velocity": 0.7874015748031497,
                    "duration": 0.240000000000002
                },
                {
                    "name": "C4",
                    "midi": 60,
                    "time": 39.12,
                    "velocity": 0.7874015748031497,
                    "duration": 0.11999999999999744
                },
                {
                    "name": "F3",
                    "midi": 53,
                    "time": 39.239999999999995,
                    "velocity": 0.7874015748031497,
                    "duration": 0.240000000000002
                },
                {
                    "name": "D4",
                    "midi": 62,
                    "time": 39.48,
                    "velocity": 0.7874015748031497,
                    "duration": 0.11999999999999744
                },
                {
                    "name": "E3",
                    "midi": 52,
                    "time": 39.599999999999994,
                    "velocity": 0.7874015748031497,
                    "duration": 0.240000000000002
                },
                {
                    "name": "A#3",
                    "midi": 58,
                    "time": 39.839999999999996,
                    "velocity": 0.7874015748031497,
                    "duration": 0.11999999999999744
                },
                {
                    "name": "A3",
                    "midi": 57,
                    "time": 39.959999999999994,
                    "velocity": 0.7874015748031497,
                    "duration": 0.060000000000002274
                },
                {
                    "name": "G3",
                    "midi": 55,
                    "time": 40.019999999999996,
                    "velocity": 0.7874015748031497,
                    "duration": 0.060000000000002274
                },
                {
                    "name": "A3",
                    "midi": 57,
                    "time": 40.08,
                    "velocity": 0.7874015748031497,
                    "duration": 0.060000000000002274
                },
                {
                    "name": "A#3",
                    "midi": 58,
                    "time": 40.14,
                    "velocity": 0.7874015748031497,
                    "duration": 0.060000000000002274
                },
                {
                    "name": "C4",
                    "midi": 60,
                    "time": 40.2,
                    "velocity": 0.7874015748031497,
                    "duration": 0.11999999999999744
                },
                {
                    "name": "F3",
                    "midi": 53,
                    "time": 40.32,
                    "velocity": 0.7874015748031497,
                    "duration": 0.240000000000002
                },
                {
                    "name": "A3",
                    "midi": 57,
                    "time": 40.56,
                    "velocity": 0.7874015748031497,
                    "duration": 0.11999999999999744
                },
                {
                    "name": "D3",
                    "midi": 50,
                    "time": 40.68,
                    "velocity": 0.7874015748031497,
                    "duration": 0.060000000000002274
                },
                {
                    "name": "E3",
                    "midi": 52,
                    "time": 40.74,
                    "velocity": 0.7874015748031497,
                    "duration": 0.060000000000002274
                },
                {
                    "name": "F3",
                    "midi": 53,
                    "time": 40.800000000000004,
                    "velocity": 0.7874015748031497,
                    "duration": 0.060000000000002274
                },
                {
                    "name": "D3",
                    "midi": 50,
                    "time": 40.86000000000001,
                    "velocity": 0.7874015748031497,
                    "duration": 0.060000000000002274
                },
                {
                    "name": "C3",
                    "midi": 48,
                    "time": 40.92000000000001,
                    "velocity": 0.7874015748031497,
                    "duration": 0.060000000000002274
                },
                {
                    "name": "B2",
                    "midi": 47,
                    "time": 40.98000000000001,
                    "velocity": 0.7874015748031497,
                    "duration": 0.060000000000002274
                },
                {
                    "name": "G3",
                    "midi": 55,
                    "time": 41.04000000000001,
                    "velocity": 0.7874015748031497,
                    "duration": 0.060000000000002274
                },
                {
                    "name": "A3",
                    "midi": 57,
                    "time": 41.100000000000016,
                    "velocity": 0.7874015748031497,
                    "duration": 0.060000000000002274
                },
                {
                    "name": "G3",
                    "midi": 55,
                    "time": 41.16000000000002,
                    "velocity": 0.7874015748031497,
                    "duration": 0.060000000000002274
                },
                {
                    "name": "F3",
                    "midi": 53,
                    "time": 41.22000000000002,
                    "velocity": 0.7874015748031497,
                    "duration": 0.060000000000002274
                },
                {
                    "name": "E3",
                    "midi": 52,
                    "time": 41.28000000000002,
                    "velocity": 0.7874015748031497,
                    "duration": 0.060000000000002274
                },
                {
                    "name": "D3",
                    "midi": 50,
                    "time": 41.340000000000025,
                    "velocity": 0.7874015748031497,
                    "duration": 0.060000000000002274
                },
                {
                    "name": "E3",
                    "midi": 52,
                    "time": 41.40000000000003,
                    "velocity": 0.7874015748031497,
                    "duration": 0.060000000000002274
                },
                {
                    "name": "D3",
                    "midi": 50,
                    "time": 41.46000000000003,
                    "velocity": 0.7874015748031497,
                    "duration": 0.060000000000002274
                },
                {
                    "name": "E3",
                    "midi": 52,
                    "time": 41.52000000000003,
                    "velocity": 0.7874015748031497,
                    "duration": 0.060000000000002274
                },
                {
                    "name": "F3",
                    "midi": 53,
                    "time": 41.580000000000034,
                    "velocity": 0.7874015748031497,
                    "duration": 0.060000000000002274
                },
                {
                    "name": "G3",
                    "midi": 55,
                    "time": 41.640000000000036,
                    "velocity": 0.7874015748031497,
                    "duration": 0.060000000000002274
                },
                {
                    "name": "E3",
                    "midi": 52,
                    "time": 41.70000000000004,
                    "velocity": 0.7874015748031497,
                    "duration": 0.060000000000002274
                },
                {
                    "name": "C3",
                    "midi": 48,
                    "time": 41.76000000000004,
                    "velocity": 0.7874015748031497,
                    "duration": 0.240000000000002
                },
                {
                    "name": "E3",
                    "midi": 52,
                    "time": 42.00000000000004,
                    "velocity": 0.7874015748031497,
                    "duration": 0.11999999999999744
                },
                {
                    "name": "F#3",
                    "midi": 54,
                    "time": 42.12000000000004,
                    "velocity": 0.7874015748031497,
                    "duration": 0.060000000000002274
                },
                {
                    "name": "G3",
                    "midi": 55,
                    "time": 42.18000000000004,
                    "velocity": 0.7874015748031497,
                    "duration": 0.060000000000002274
                },
                {
                    "name": "A3",
                    "midi": 57,
                    "time": 42.240000000000045,
                    "velocity": 0.7874015748031497,
                    "duration": 0.060000000000002274
                },
                {
                    "name": "C3",
                    "midi": 48,
                    "time": 42.30000000000005,
                    "velocity": 0.7874015748031497,
                    "duration": 0.060000000000002274
                },
                {
                    "name": "A#2",
                    "midi": 46,
                    "time": 42.36000000000005,
                    "velocity": 0.7874015748031497,
                    "duration": 0.060000000000002274
                },
                {
                    "name": "A2",
                    "midi": 45,
                    "time": 42.42000000000005,
                    "velocity": 0.7874015748031497,
                    "duration": 0.060000000000002274
                },
                {
                    "name": "A#2",
                    "midi": 46,
                    "time": 42.480000000000054,
                    "velocity": 0.7874015748031497,
                    "duration": 0.060000000000002274
                },
                {
                    "name": "D3",
                    "midi": 50,
                    "time": 42.540000000000056,
                    "velocity": 0.7874015748031497,
                    "duration": 0.060000000000002274
                },
                {
                    "name": "G3",
                    "midi": 55,
                    "time": 42.60000000000006,
                    "velocity": 0.7874015748031497,
                    "duration": 0.060000000000002274
                },
                {
                    "name": "A#2",
                    "midi": 46,
                    "time": 42.66000000000006,
                    "velocity": 0.7874015748031497,
                    "duration": 0.060000000000002274
                },
                {
                    "name": "A2",
                    "midi": 45,
                    "time": 42.72000000000006,
                    "velocity": 0.7874015748031497,
                    "duration": 0.060000000000002274
                },
                {
                    "name": "G2",
                    "midi": 43,
                    "time": 42.780000000000065,
                    "velocity": 0.7874015748031497,
                    "duration": 0.060000000000002274
                },
                {
                    "name": "F#2",
                    "midi": 42,
                    "time": 42.84000000000007,
                    "velocity": 0.7874015748031497,
                    "duration": 0.060000000000002274
                },
                {
                    "name": "A2",
                    "midi": 45,
                    "time": 42.90000000000007,
                    "velocity": 0.7874015748031497,
                    "duration": 0.060000000000002274
                },
                {
                    "name": "C3",
                    "midi": 48,
                    "time": 42.96000000000007,
                    "velocity": 0.7874015748031497,
                    "duration": 0.060000000000002274
                },
                {
                    "name": "D#3",
                    "midi": 51,
                    "time": 43.020000000000074,
                    "velocity": 0.7874015748031497,
                    "duration": 0.060000000000002274
                },
                {
                    "name": "D3",
                    "midi": 50,
                    "time": 43.08000000000008,
                    "velocity": 0.7874015748031497,
                    "duration": 0.060000000000002274
                },
                {
                    "name": "C3",
                    "midi": 48,
                    "time": 43.14000000000008,
                    "velocity": 0.7874015748031497,
                    "duration": 0.060000000000002274
                },
                {
                    "name": "A#2",
                    "midi": 46,
                    "time": 43.20000000000008,
                    "velocity": 0.7874015748031497,
                    "duration": 0.060000000000002274
                },
                {
                    "name": "A2",
                    "midi": 45,
                    "time": 43.26000000000008,
                    "velocity": 0.7874015748031497,
                    "duration": 0.060000000000002274
                },
                {
                    "name": "A#2",
                    "midi": 46,
                    "time": 43.320000000000086,
                    "velocity": 0.7874015748031497,
                    "duration": 0.060000000000002274
                },
                {
                    "name": "D3",
                    "midi": 50,
                    "time": 43.38000000000009,
                    "velocity": 0.7874015748031497,
                    "duration": 0.060000000000002274
                },
                {
                    "name": "G3",
                    "midi": 55,
                    "time": 43.44000000000009,
                    "velocity": 0.7874015748031497,
                    "duration": 0.060000000000002274
                },
                {
                    "name": "A#3",
                    "midi": 58,
                    "time": 43.50000000000009,
                    "velocity": 0.7874015748031497,
                    "duration": 0.060000000000002274
                },
                {
                    "name": "G#3",
                    "midi": 56,
                    "time": 43.560000000000095,
                    "velocity": 0.7874015748031497,
                    "duration": 0.060000000000002274
                },
                {
                    "name": "G3",
                    "midi": 55,
                    "time": 43.6200000000001,
                    "velocity": 0.7874015748031497,
                    "duration": 0.060000000000002274
                },
                {
                    "name": "G#3",
                    "midi": 56,
                    "time": 43.6800000000001,
                    "velocity": 0.7874015748031497,
                    "duration": 0.060000000000002274
                },
                {
                    "name": "F#3",
                    "midi": 54,
                    "time": 43.7400000000001,
                    "velocity": 0.7874015748031497,
                    "duration": 0.060000000000002274
                },
                {
                    "name": "G3",
                    "midi": 55,
                    "time": 43.800000000000104,
                    "velocity": 0.7874015748031497,
                    "duration": 0.060000000000002274
                },
                {
                    "name": "D#4",
                    "midi": 63,
                    "time": 43.860000000000106,
                    "velocity": 0.7874015748031497,
                    "duration": 0.060000000000002274
                },
                {
                    "name": "D3",
                    "midi": 50,
                    "time": 43.92000000000011,
                    "velocity": 0.7874015748031497,
                    "duration": 0.11999999999999744
                },
                {
                    "name": "G3",
                    "midi": 55,
                    "time": 44.040000000000106,
                    "velocity": 0.7874015748031497,
                    "duration": 0.11999999999999744
                },
                {
                    "name": "F#3",
                    "midi": 54,
                    "time": 44.1600000000001,
                    "velocity": 0.7874015748031497,
                    "duration": 0.11999999999999744
                },
                {
                    "name": "G3",
                    "midi": 55,
                    "time": 44.2800000000001,
                    "velocity": 0.7874015748031497,
                    "duration": 0.060000000000002274
                },
                {
                    "name": "D#3",
                    "midi": 51,
                    "time": 44.3400000000001,
                    "velocity": 0.7874015748031497,
                    "duration": 0.060000000000002274
                },
                {
                    "name": "D3",
                    "midi": 50,
                    "time": 44.400000000000105,
                    "velocity": 0.7874015748031497,
                    "duration": 0.060000000000002274
                },
                {
                    "name": "C3",
                    "midi": 48,
                    "time": 44.46000000000011,
                    "velocity": 0.7874015748031497,
                    "duration": 0.060000000000002274
                },
                {
                    "name": "D3",
                    "midi": 50,
                    "time": 44.52000000000011,
                    "velocity": 0.7874015748031497,
                    "duration": 0.060000000000002274
                },
                {
                    "name": "A#2",
                    "midi": 46,
                    "time": 44.58000000000011,
                    "velocity": 0.7874015748031497,
                    "duration": 0.060000000000002274
                },
                {
                    "name": "G2",
                    "midi": 43,
                    "time": 44.640000000000114,
                    "velocity": 0.7874015748031497,
                    "duration": 0.240000000000002
                },
                {
                    "name": "A#3",
                    "midi": 58,
                    "time": 44.880000000000116,
                    "velocity": 0.7874015748031497,
                    "duration": 0.11999999999999744
                },
                {
                    "name": "E3",
                    "midi": 52,
                    "time": 45.000000000000114,
                    "velocity": 0.7874015748031497,
                    "duration": 0.060000000000002274
                },
                {
                    "name": "F3",
                    "midi": 53,
                    "time": 45.060000000000116,
                    "velocity": 0.7874015748031497,
                    "duration": 0.060000000000002274
                },
                {
                    "name": "G3",
                    "midi": 55,
                    "time": 45.12000000000012,
                    "velocity": 0.7874015748031497,
                    "duration": 0.060000000000002274
                },
                {
                    "name": "E3",
                    "midi": 52,
                    "time": 45.18000000000012,
                    "velocity": 0.7874015748031497,
                    "duration": 0.060000000000002274
                },
                {
                    "name": "F3",
                    "midi": 53,
                    "time": 45.24000000000012,
                    "velocity": 0.7874015748031497,
                    "duration": 0.060000000000002274
                },
                {
                    "name": "D3",
                    "midi": 50,
                    "time": 45.300000000000125,
                    "velocity": 0.7874015748031497,
                    "duration": 0.060000000000002274
                },
                {
                    "name": "C3",
                    "midi": 48,
                    "time": 45.36000000000013,
                    "velocity": 0.7874015748031497,
                    "duration": 0.060000000000002274
                },
                {
                    "name": "D3",
                    "midi": 50,
                    "time": 45.42000000000013,
                    "velocity": 0.7874015748031497,
                    "duration": 0.060000000000002274
                },
                {
                    "name": "E3",
                    "midi": 52,
                    "time": 45.48000000000013,
                    "velocity": 0.7874015748031497,
                    "duration": 0.060000000000002274
                },
                {
                    "name": "C3",
                    "midi": 48,
                    "time": 45.540000000000134,
                    "velocity": 0.7874015748031497,
                    "duration": 0.060000000000002274
                },
                {
                    "name": "D3",
                    "midi": 50,
                    "time": 45.600000000000136,
                    "velocity": 0.7874015748031497,
                    "duration": 0.060000000000002274
                },
                {
                    "name": "A#2",
                    "midi": 46,
                    "time": 45.66000000000014,
                    "velocity": 0.7874015748031497,
                    "duration": 0.060000000000002274
                },
                {
                    "name": "A2",
                    "midi": 45,
                    "time": 45.72000000000014,
                    "velocity": 0.7874015748031497,
                    "duration": 0.060000000000002274
                },
                {
                    "name": "A#2",
                    "midi": 46,
                    "time": 45.78000000000014,
                    "velocity": 0.7874015748031497,
                    "duration": 0.060000000000002274
                },
                {
                    "name": "C3",
                    "midi": 48,
                    "time": 45.840000000000146,
                    "velocity": 0.7874015748031497,
                    "duration": 0.060000000000002274
                },
                {
                    "name": "A2",
                    "midi": 45,
                    "time": 45.90000000000015,
                    "velocity": 0.7874015748031497,
                    "duration": 0.060000000000002274
                },
                {
                    "name": "A#2",
                    "midi": 46,
                    "time": 45.96000000000015,
                    "velocity": 0.7874015748031497,
                    "duration": 0.060000000000002274
                },
                {
                    "name": "G2",
                    "midi": 43,
                    "time": 46.02000000000015,
                    "velocity": 0.7874015748031497,
                    "duration": 0.060000000000002274
                },
                {
                    "name": "F2",
                    "midi": 41,
                    "time": 46.080000000000155,
                    "velocity": 0.7874015748031497,
                    "duration": 0.240000000000002
                },
                {
                    "name": "A3",
                    "midi": 57,
                    "time": 46.32000000000016,
                    "velocity": 0.7874015748031497,
                    "duration": 0.11999999999999744
                },
                {
                    "name": "D3",
                    "midi": 50,
                    "time": 46.440000000000154,
                    "velocity": 0.7874015748031497,
                    "duration": 0.060000000000002274
                },
                {
                    "name": "E3",
                    "midi": 52,
                    "time": 46.500000000000156,
                    "velocity": 0.7874015748031497,
                    "duration": 0.060000000000002274
                },
                {
                    "name": "F3",
                    "midi": 53,
                    "time": 46.56000000000016,
                    "velocity": 0.7874015748031497,
                    "duration": 0.060000000000002274
                },
                {
                    "name": "D3",
                    "midi": 50,
                    "time": 46.62000000000016,
                    "velocity": 0.7874015748031497,
                    "duration": 0.060000000000002274
                },
                {
                    "name": "E3",
                    "midi": 52,
                    "time": 46.68000000000016,
                    "velocity": 0.7874015748031497,
                    "duration": 0.060000000000002274
                },
                {
                    "name": "C3",
                    "midi": 48,
                    "time": 46.740000000000165,
                    "velocity": 0.7874015748031497,
                    "duration": 0.060000000000002274
                },
                {
                    "name": "A#2",
                    "midi": 46,
                    "time": 46.80000000000017,
                    "velocity": 0.7874015748031497,
                    "duration": 0.060000000000002274
                },
                {
                    "name": "C3",
                    "midi": 48,
                    "time": 46.86000000000017,
                    "velocity": 0.7874015748031497,
                    "duration": 0.060000000000002274
                },
                {
                    "name": "D3",
                    "midi": 50,
                    "time": 46.92000000000017,
                    "velocity": 0.7874015748031497,
                    "duration": 0.060000000000002274
                },
                {
                    "name": "A#2",
                    "midi": 46,
                    "time": 46.980000000000175,
                    "velocity": 0.7874015748031497,
                    "duration": 0.060000000000002274
                },
                {
                    "name": "C3",
                    "midi": 48,
                    "time": 47.04000000000018,
                    "velocity": 0.7874015748031497,
                    "duration": 0.060000000000002274
                },
                {
                    "name": "A2",
                    "midi": 45,
                    "time": 47.10000000000018,
                    "velocity": 0.7874015748031497,
                    "duration": 0.060000000000002274
                },
                {
                    "name": "G2",
                    "midi": 43,
                    "time": 47.16000000000018,
                    "velocity": 0.7874015748031497,
                    "duration": 0.060000000000002274
                },
                {
                    "name": "A2",
                    "midi": 45,
                    "time": 47.220000000000184,
                    "velocity": 0.7874015748031497,
                    "duration": 0.060000000000002274
                },
                {
                    "name": "A#2",
                    "midi": 46,
                    "time": 47.280000000000186,
                    "velocity": 0.7874015748031497,
                    "duration": 0.060000000000002274
                },
                {
                    "name": "G2",
                    "midi": 43,
                    "time": 47.34000000000019,
                    "velocity": 0.7874015748031497,
                    "duration": 0.060000000000002274
                },
                {
                    "name": "A2",
                    "midi": 45,
                    "time": 47.40000000000019,
                    "velocity": 0.7874015748031497,
                    "duration": 0.060000000000002274
                },
                {
                    "name": "F2",
                    "midi": 41,
                    "time": 47.46000000000019,
                    "velocity": 0.7874015748031497,
                    "duration": 0.060000000000002274
                },
                {
                    "name": "E2",
                    "midi": 40,
                    "time": 47.520000000000195,
                    "velocity": 0.7874015748031497,
                    "duration": 0.240000000000002
                },
                {
                    "name": "G3",
                    "midi": 55,
                    "time": 47.7600000000002,
                    "velocity": 0.7874015748031497,
                    "duration": 0.11999999999999744
                },
                {
                    "name": "A2",
                    "midi": 45,
                    "time": 47.880000000000194,
                    "velocity": 0.7874015748031497,
                    "duration": 0.060000000000002274
                },
                {
                    "name": "B2",
                    "midi": 47,
                    "time": 47.9400000000002,
                    "velocity": 0.7874015748031497,
                    "duration": 0.060000000000002274
                },
                {
                    "name": "C#3",
                    "midi": 49,
                    "time": 48.0000000000002,
                    "velocity": 0.7874015748031497,
                    "duration": 0.060000000000002274
                },
                {
                    "name": "D3",
                    "midi": 50,
                    "time": 48.0600000000002,
                    "velocity": 0.7874015748031497,
                    "duration": 0.060000000000002274
                },
                {
                    "name": "E3",
                    "midi": 52,
                    "time": 48.1200000000002,
                    "velocity": 0.7874015748031497,
                    "duration": 0.060000000000002274
                },
                {
                    "name": "G3",
                    "midi": 55,
                    "time": 48.180000000000206,
                    "velocity": 0.7874015748031497,
                    "duration": 0.060000000000002274
                },
                {
                    "name": "F3",
                    "midi": 53,
                    "time": 48.24000000000021,
                    "velocity": 0.7874015748031497,
                    "duration": 0.060000000000002274
                },
                {
                    "name": "G3",
                    "midi": 55,
                    "time": 48.30000000000021,
                    "velocity": 0.7874015748031497,
                    "duration": 0.060000000000002274
                },
                {
                    "name": "A3",
                    "midi": 57,
                    "time": 48.36000000000021,
                    "velocity": 0.7874015748031497,
                    "duration": 0.060000000000002274
                },
                {
                    "name": "C#4",
                    "midi": 61,
                    "time": 48.420000000000215,
                    "velocity": 0.7874015748031497,
                    "duration": 0.060000000000002274
                },
                {
                    "name": "D4",
                    "midi": 62,
                    "time": 48.48000000000022,
                    "velocity": 0.7874015748031497,
                    "duration": 0.060000000000002274
                },
                {
                    "name": "F3",
                    "midi": 53,
                    "time": 48.54000000000022,
                    "velocity": 0.7874015748031497,
                    "duration": 0.060000000000002274
                },
                {
                    "name": "E3",
                    "midi": 52,
                    "time": 48.60000000000022,
                    "velocity": 0.7874015748031497,
                    "duration": 0.060000000000002274
                },
                {
                    "name": "F3",
                    "midi": 53,
                    "time": 48.660000000000224,
                    "velocity": 0.7874015748031497,
                    "duration": 0.060000000000002274
                },
                {
                    "name": "G3",
                    "midi": 55,
                    "time": 48.720000000000226,
                    "velocity": 0.7874015748031497,
                    "duration": 0.060000000000002274
                },
                {
                    "name": "A3",
                    "midi": 57,
                    "time": 48.78000000000023,
                    "velocity": 0.7874015748031497,
                    "duration": 0.060000000000002274
                },
                {
                    "name": "A#3",
                    "midi": 58,
                    "time": 48.84000000000023,
                    "velocity": 0.7874015748031497,
                    "duration": 0.060000000000002274
                },
                {
                    "name": "D3",
                    "midi": 50,
                    "time": 48.90000000000023,
                    "velocity": 0.7874015748031497,
                    "duration": 0.060000000000002274
                },
                {
                    "name": "C#3",
                    "midi": 49,
                    "time": 48.960000000000235,
                    "velocity": 0.7874015748031497,
                    "duration": 0.060000000000002274
                },
                {
                    "name": "D3",
                    "midi": 50,
                    "time": 49.02000000000024,
                    "velocity": 0.7874015748031497,
                    "duration": 0.060000000000002274
                },
                {
                    "name": "E3",
                    "midi": 52,
                    "time": 49.08000000000024,
                    "velocity": 0.7874015748031497,
                    "duration": 0.060000000000002274
                },
                {
                    "name": "A2",
                    "midi": 45,
                    "time": 49.14000000000024,
                    "velocity": 0.7874015748031497,
                    "duration": 0.060000000000002274
                },
                {
                    "name": "A#2",
                    "midi": 46,
                    "time": 49.200000000000244,
                    "velocity": 0.7874015748031497,
                    "duration": 0.060000000000002274
                },
                {
                    "name": "G2",
                    "midi": 43,
                    "time": 49.26000000000025,
                    "velocity": 0.7874015748031497,
                    "duration": 0.060000000000002274
                },
                {
                    "name": "D3",
                    "midi": 50,
                    "time": 49.32000000000025,
                    "velocity": 0.7874015748031497,
                    "duration": 0.060000000000002274
                },
                {
                    "name": "E3",
                    "midi": 52,
                    "time": 49.38000000000025,
                    "velocity": 0.7874015748031497,
                    "duration": 0.060000000000002274
                },
                {
                    "name": "F3",
                    "midi": 53,
                    "time": 49.44000000000025,
                    "velocity": 0.7874015748031497,
                    "duration": 0.060000000000002274
                },
                {
                    "name": "D3",
                    "midi": 50,
                    "time": 49.500000000000256,
                    "velocity": 0.7874015748031497,
                    "duration": 0.060000000000002274
                },
                {
                    "name": "G3",
                    "midi": 55,
                    "time": 49.56000000000026,
                    "velocity": 0.7874015748031497,
                    "duration": 0.060000000000002274
                },
                {
                    "name": "E3",
                    "midi": 52,
                    "time": 49.62000000000026,
                    "velocity": 0.7874015748031497,
                    "duration": 0.060000000000002274
                },
                {
                    "name": "D3",
                    "midi": 50,
                    "time": 49.68000000000026,
                    "velocity": 0.7874015748031497,
                    "duration": 0.060000000000002274
                },
                {
                    "name": "E3",
                    "midi": 52,
                    "time": 49.740000000000265,
                    "velocity": 0.7874015748031497,
                    "duration": 0.060000000000002274
                },
                {
                    "name": "F3",
                    "midi": 53,
                    "time": 49.80000000000027,
                    "velocity": 0.7874015748031497,
                    "duration": 0.060000000000002274
                },
                {
                    "name": "D3",
                    "midi": 50,
                    "time": 49.86000000000027,
                    "velocity": 0.7874015748031497,
                    "duration": 0.060000000000002274
                },
                {
                    "name": "G3",
                    "midi": 55,
                    "time": 49.92000000000027,
                    "velocity": 0.7874015748031497,
                    "duration": 0.060000000000002274
                },
                {
                    "name": "E3",
                    "midi": 52,
                    "time": 49.980000000000274,
                    "velocity": 0.7874015748031497,
                    "duration": 0.060000000000002274
                },
                {
                    "name": "D3",
                    "midi": 50,
                    "time": 50.040000000000276,
                    "velocity": 0.7874015748031497,
                    "duration": 0.060000000000002274
                },
                {
                    "name": "E3",
                    "midi": 52,
                    "time": 50.10000000000028,
                    "velocity": 0.7874015748031497,
                    "duration": 0.060000000000002274
                },
                {
                    "name": "F3",
                    "midi": 53,
                    "time": 50.16000000000028,
                    "velocity": 0.7874015748031497,
                    "duration": 0.060000000000002274
                },
                {
                    "name": "D3",
                    "midi": 50,
                    "time": 50.22000000000028,
                    "velocity": 0.7874015748031497,
                    "duration": 0.060000000000002274
                },
                {
                    "name": "G3",
                    "midi": 55,
                    "time": 50.280000000000285,
                    "velocity": 0.7874015748031497,
                    "duration": 0.060000000000002274
                },
                {
                    "name": "E3",
                    "midi": 52,
                    "time": 50.34000000000029,
                    "velocity": 0.7874015748031497,
                    "duration": 0.060000000000002274
                },
                {
                    "name": "D3",
                    "midi": 50,
                    "time": 50.40000000000029,
                    "velocity": 0.7874015748031497,
                    "duration": 0.060000000000002274
                },
                {
                    "name": "E3",
                    "midi": 52,
                    "time": 50.46000000000029,
                    "velocity": 0.7874015748031497,
                    "duration": 0.060000000000002274
                },
                {
                    "name": "F3",
                    "midi": 53,
                    "time": 50.520000000000294,
                    "velocity": 0.7874015748031497,
                    "duration": 0.060000000000002274
                },
                {
                    "name": "D3",
                    "midi": 50,
                    "time": 50.5800000000003,
                    "velocity": 0.7874015748031497,
                    "duration": 0.060000000000002274
                },
                {
                    "name": "G3",
                    "midi": 55,
                    "time": 50.6400000000003,
                    "velocity": 0.7874015748031497,
                    "duration": 0.060000000000002274
                },
                {
                    "name": "E3",
                    "midi": 52,
                    "time": 50.7000000000003,
                    "velocity": 0.7874015748031497,
                    "duration": 0.060000000000002274
                },
                {
                    "name": "C#3",
                    "midi": 49,
                    "time": 50.7600000000003,
                    "velocity": 0.7874015748031497,
                    "duration": 0.060000000000002274
                },
                {
                    "name": "A#3",
                    "midi": 58,
                    "time": 50.820000000000306,
                    "velocity": 0.7874015748031497,
                    "duration": 0.060000000000002274
                },
                {
                    "name": "A3",
                    "midi": 57,
                    "time": 50.88000000000031,
                    "velocity": 0.7874015748031497,
                    "duration": 0.060000000000002274
                },
                {
                    "name": "G3",
                    "midi": 55,
                    "time": 50.94000000000031,
                    "velocity": 0.7874015748031497,
                    "duration": 0.060000000000002274
                },
                {
                    "name": "F3",
                    "midi": 53,
                    "time": 51.00000000000031,
                    "velocity": 0.7874015748031497,
                    "duration": 0.060000000000002274
                },
                {
                    "name": "E3",
                    "midi": 52,
                    "time": 51.060000000000315,
                    "velocity": 0.7874015748031497,
                    "duration": 0.060000000000002274
                },
                {
                    "name": "F2",
                    "midi": 41,
                    "time": 51.12000000000032,
                    "velocity": 0.7874015748031497,
                    "duration": 0.060000000000002274
                },
                {
                    "name": "A3",
                    "midi": 57,
                    "time": 51.18000000000032,
                    "velocity": 0.7874015748031497,
                    "duration": 0.060000000000002274
                },
                {
                    "name": "G3",
                    "midi": 55,
                    "time": 51.24000000000032,
                    "velocity": 0.7874015748031497,
                    "duration": 0.060000000000002274
                },
                {
                    "name": "F3",
                    "midi": 53,
                    "time": 51.300000000000324,
                    "velocity": 0.7874015748031497,
                    "duration": 0.060000000000002274
                },
                {
                    "name": "E3",
                    "midi": 52,
                    "time": 51.360000000000326,
                    "velocity": 0.7874015748031497,
                    "duration": 0.060000000000002274
                },
                {
                    "name": "C#3",
                    "midi": 49,
                    "time": 51.42000000000033,
                    "velocity": 0.7874015748031497,
                    "duration": 0.060000000000002274
                },
                {
                    "name": "D3",
                    "midi": 50,
                    "time": 51.48000000000033,
                    "velocity": 0.7874015748031497,
                    "duration": 0.060000000000002274
                },
                {
                    "name": "A#2",
                    "midi": 46,
                    "time": 51.54000000000033,
                    "velocity": 0.7874015748031497,
                    "duration": 0.060000000000002274
                },
                {
                    "name": "A2",
                    "midi": 45,
                    "time": 51.600000000000335,
                    "velocity": 0.7874015748031497,
                    "duration": 0.060000000000002274
                },
                {
                    "name": "G2",
                    "midi": 43,
                    "time": 51.66000000000034,
                    "velocity": 0.7874015748031497,
                    "duration": 0.060000000000002274
                },
                {
                    "name": "A2",
                    "midi": 45,
                    "time": 51.72000000000034,
                    "velocity": 0.7874015748031497,
                    "duration": 0.060000000000002274
                },
                {
                    "name": "F2",
                    "midi": 41,
                    "time": 51.78000000000034,
                    "velocity": 0.7874015748031497,
                    "duration": 0.060000000000002274
                },
                {
                    "name": "D2",
                    "midi": 38,
                    "time": 51.840000000000344,
                    "velocity": 0.7874015748031497,
                    "duration": 0.060000000000002274
                },
                {
                    "name": "A2",
                    "midi": 45,
                    "time": 51.90000000000035,
                    "velocity": 0.7874015748031497,
                    "duration": 0.060000000000002274
                },
                {
                    "name": "D3",
                    "midi": 50,
                    "time": 51.96000000000035,
                    "velocity": 0.7874015748031497,
                    "duration": 0.060000000000002274
                },
                {
                    "name": "E3",
                    "midi": 52,
                    "time": 52.02000000000035,
                    "velocity": 0.7874015748031497,
                    "duration": 0.060000000000002274
                },
                {
                    "name": "F3",
                    "midi": 53,
                    "time": 52.080000000000354,
                    "velocity": 0.7874015748031497,
                    "duration": 0.060000000000002274
                },
                {
                    "name": "D3",
                    "midi": 50,
                    "time": 52.140000000000356,
                    "velocity": 0.7874015748031497,
                    "duration": 0.060000000000002274
                },
                {
                    "name": "D#3",
                    "midi": 51,
                    "time": 52.20000000000036,
                    "velocity": 0.7874015748031497,
                    "duration": 0.060000000000002274
                },
                {
                    "name": "F3",
                    "midi": 53,
                    "time": 52.26000000000036,
                    "velocity": 0.7874015748031497,
                    "duration": 0.060000000000002274
                },
                {
                    "name": "G3",
                    "midi": 55,
                    "time": 52.32000000000036,
                    "velocity": 0.7874015748031497,
                    "duration": 0.060000000000002274
                },
                {
                    "name": "D#3",
                    "midi": 51,
                    "time": 52.380000000000365,
                    "velocity": 0.7874015748031497,
                    "duration": 0.060000000000002274
                },
                {
                    "name": "F3",
                    "midi": 53,
                    "time": 52.44000000000037,
                    "velocity": 0.7874015748031497,
                    "duration": 0.060000000000002274
                },
                {
                    "name": "D3",
                    "midi": 50,
                    "time": 52.50000000000037,
                    "velocity": 0.7874015748031497,
                    "duration": 0.060000000000002274
                },
                {
                    "name": "G3",
                    "midi": 55,
                    "time": 52.56000000000037,
                    "velocity": 0.7874015748031497,
                    "duration": 0.060000000000002274
                },
                {
                    "name": "A3",
                    "midi": 57,
                    "time": 52.620000000000374,
                    "velocity": 0.7874015748031497,
                    "duration": 0.060000000000002274
                },
                {
                    "name": "A#3",
                    "midi": 58,
                    "time": 52.680000000000376,
                    "velocity": 0.7874015748031497,
                    "duration": 0.060000000000002274
                },
                {
                    "name": "G3",
                    "midi": 55,
                    "time": 52.74000000000038,
                    "velocity": 0.7874015748031497,
                    "duration": 0.060000000000002274
                },
                {
                    "name": "A3",
                    "midi": 57,
                    "time": 52.80000000000038,
                    "velocity": 0.7874015748031497,
                    "duration": 0.060000000000002274
                },
                {
                    "name": "F3",
                    "midi": 53,
                    "time": 52.86000000000038,
                    "velocity": 0.7874015748031497,
                    "duration": 0.060000000000002274
                },
                {
                    "name": "D#3",
                    "midi": 51,
                    "time": 52.920000000000385,
                    "velocity": 0.7874015748031497,
                    "duration": 0.060000000000002274
                },
                {
                    "name": "F3",
                    "midi": 53,
                    "time": 52.98000000000039,
                    "velocity": 0.7874015748031497,
                    "duration": 0.060000000000002274
                },
                {
                    "name": "G3",
                    "midi": 55,
                    "time": 53.04000000000039,
                    "velocity": 0.7874015748031497,
                    "duration": 0.060000000000002274
                },
                {
                    "name": "D#3",
                    "midi": 51,
                    "time": 53.10000000000039,
                    "velocity": 0.7874015748031497,
                    "duration": 0.060000000000002274
                },
                {
                    "name": "F3",
                    "midi": 53,
                    "time": 53.160000000000394,
                    "velocity": 0.7874015748031497,
                    "duration": 0.060000000000002274
                },
                {
                    "name": "D3",
                    "midi": 50,
                    "time": 53.2200000000004,
                    "velocity": 0.7874015748031497,
                    "duration": 0.060000000000002274
                },
                {
                    "name": "E3",
                    "midi": 52,
                    "time": 53.2800000000004,
                    "velocity": 0.7874015748031497,
                    "duration": 0.240000000000002
                }
            ],
            "controlChanges": {
                "7": [
                    {
                        "number": 7,
                        "time": 0,
                        "value": 0.7874015748031497
                    }
                ],
                "10": [
                    {
                        "number": 10,
                        "time": 0,
                        "value": 0.5039370078740157
                    }
                ]
            },
            "id": 1,
            "name": "Solo Cello",
            "instrumentNumber": 42,
            "instrument": "cello",
            "instrumentFamily": "strings",
            "channelNumber": 0,
            "isPercussion": false
        },
        {
            "startTime": 5.3999999999999995,
            "duration": 53.519999999999946,
            "length": 76,
            "notes": [
                {
                    "name": "A2",
                    "midi": 45,
                    "time": 5.3999999999999995,
                    "velocity": 0.7874015748031497,
                    "duration": 0.3600000000000003
                },
                {
                    "name": "D3",
                    "midi": 50,
                    "time": 6.12,
                    "velocity": 0.7874015748031497,
                    "duration": 0.3600000000000003
                },
                {
                    "name": "A#3",
                    "midi": 58,
                    "time": 6.48,
                    "velocity": 0.7874015748031497,
                    "duration": 0.2400000000000002
                },
                {
                    "name": "A#3",
                    "midi": 58,
                    "time": 6.720000000000001,
                    "velocity": 0.7874015748031497,
                    "duration": 0.1200000000000001
                },
                {
                    "name": "E3",
                    "midi": 52,
                    "time": 6.840000000000001,
                    "velocity": 0.7874015748031497,
                    "duration": 0.3600000000000003
                },
                {
                    "name": "A3",
                    "midi": 57,
                    "time": 7.200000000000001,
                    "velocity": 0.7874015748031497,
                    "duration": 0.2400000000000002
                },
                {
                    "name": "A3",
                    "midi": 57,
                    "time": 7.440000000000001,
                    "velocity": 0.7874015748031497,
                    "duration": 0.1200000000000001
                },
                {
                    "name": "D3",
                    "midi": 50,
                    "time": 7.560000000000001,
                    "velocity": 0.7874015748031497,
                    "duration": 0.1200000000000001
                },
                {
                    "name": "D3",
                    "midi": 50,
                    "time": 7.6800000000000015,
                    "velocity": 0.7874015748031497,
                    "duration": 0.1200000000000001
                },
                {
                    "name": "D3",
                    "midi": 50,
                    "time": 7.800000000000002,
                    "velocity": 0.7874015748031497,
                    "duration": 0.1200000000000001
                },
                {
                    "name": "D3",
                    "midi": 50,
                    "time": 7.920000000000002,
                    "velocity": 0.7874015748031497,
                    "duration": 0.11999999999999922
                },
                {
                    "name": "D3",
                    "midi": 50,
                    "time": 8.040000000000001,
                    "velocity": 0.7874015748031497,
                    "duration": 0.11999999999999922
                },
                {
                    "name": "D3",
                    "midi": 50,
                    "time": 8.16,
                    "velocity": 0.7874015748031497,
                    "duration": 0.11999999999999922
                },
                {
                    "name": "D3",
                    "midi": 50,
                    "time": 8.28,
                    "velocity": 0.7874015748031497,
                    "duration": 0.11999999999999922
                },
                {
                    "name": "D3",
                    "midi": 50,
                    "time": 8.399999999999999,
                    "velocity": 0.7874015748031497,
                    "duration": 0.11999999999999922
                },
                {
                    "name": "D3",
                    "midi": 50,
                    "time": 8.519999999999998,
                    "velocity": 0.7874015748031497,
                    "duration": 0.11999999999999922
                },
                {
                    "name": "D3",
                    "midi": 50,
                    "time": 8.639999999999997,
                    "velocity": 0.7874015748031497,
                    "duration": 0.2400000000000002
                },
                {
                    "name": "C3",
                    "midi": 48,
                    "time": 8.999999999999996,
                    "velocity": 0.7874015748031497,
                    "duration": 0.11999999999999922
                },
                {
                    "name": "D3",
                    "midi": 50,
                    "time": 9.359999999999996,
                    "velocity": 0.7874015748031497,
                    "duration": 0.11999999999999922
                },
                {
                    "name": "E3",
                    "midi": 52,
                    "time": 9.719999999999995,
                    "velocity": 0.7874015748031497,
                    "duration": 0.11999999999999922
                },
                {
                    "name": "F3",
                    "midi": 53,
                    "time": 10.079999999999995,
                    "velocity": 0.7874015748031497,
                    "duration": 0.11999999999999922
                },
                {
                    "name": "G#3",
                    "midi": 56,
                    "time": 10.439999999999994,
                    "velocity": 0.7874015748031497,
                    "duration": 0.11999999999999922
                },
                {
                    "name": "A2",
                    "midi": 45,
                    "time": 16.919999999999995,
                    "velocity": 0.7874015748031497,
                    "duration": 0.35999999999999943
                },
                {
                    "name": "D3",
                    "midi": 50,
                    "time": 17.639999999999993,
                    "velocity": 0.7874015748031497,
                    "duration": 0.35999999999999943
                },
                {
                    "name": "A#3",
                    "midi": 58,
                    "time": 17.999999999999993,
                    "velocity": 0.7874015748031497,
                    "duration": 0.23999999999999844
                },
                {
                    "name": "A#3",
                    "midi": 58,
                    "time": 18.23999999999999,
                    "velocity": 0.7874015748031497,
                    "duration": 0.120000000000001
                },
                {
                    "name": "E3",
                    "midi": 52,
                    "time": 18.359999999999992,
                    "velocity": 0.7874015748031497,
                    "duration": 0.35999999999999943
                },
                {
                    "name": "A3",
                    "midi": 57,
                    "time": 18.71999999999999,
                    "velocity": 0.7874015748031497,
                    "duration": 0.23999999999999844
                },
                {
                    "name": "A3",
                    "midi": 57,
                    "time": 18.95999999999999,
                    "velocity": 0.7874015748031497,
                    "duration": 0.120000000000001
                },
                {
                    "name": "D3",
                    "midi": 50,
                    "time": 19.07999999999999,
                    "velocity": 0.7874015748031497,
                    "duration": 0.120000000000001
                },
                {
                    "name": "D3",
                    "midi": 50,
                    "time": 19.199999999999992,
                    "velocity": 0.7874015748031497,
                    "duration": 0.120000000000001
                },
                {
                    "name": "D3",
                    "midi": 50,
                    "time": 19.319999999999993,
                    "velocity": 0.7874015748031497,
                    "duration": 0.120000000000001
                },
                {
                    "name": "D3",
                    "midi": 50,
                    "time": 19.439999999999994,
                    "velocity": 0.7874015748031497,
                    "duration": 0.120000000000001
                },
                {
                    "name": "D3",
                    "midi": 50,
                    "time": 19.559999999999995,
                    "velocity": 0.7874015748031497,
                    "duration": 0.120000000000001
                },
                {
                    "name": "D3",
                    "midi": 50,
                    "time": 19.679999999999996,
                    "velocity": 0.7874015748031497,
                    "duration": 0.120000000000001
                },
                {
                    "name": "D3",
                    "midi": 50,
                    "time": 19.799999999999997,
                    "velocity": 0.7874015748031497,
                    "duration": 0.120000000000001
                },
                {
                    "name": "D3",
                    "midi": 50,
                    "time": 19.919999999999998,
                    "velocity": 0.7874015748031497,
                    "duration": 0.120000000000001
                },
                {
                    "name": "D3",
                    "midi": 50,
                    "time": 20.04,
                    "velocity": 0.7874015748031497,
                    "duration": 0.120000000000001
                },
                {
                    "name": "D3",
                    "midi": 50,
                    "time": 20.16,
                    "velocity": 0.7874015748031497,
                    "duration": 0.23999999999999844
                },
                {
                    "name": "C3",
                    "midi": 48,
                    "time": 20.52,
                    "velocity": 0.7874015748031497,
                    "duration": 0.120000000000001
                },
                {
                    "name": "D3",
                    "midi": 50,
                    "time": 20.88,
                    "velocity": 0.7874015748031497,
                    "duration": 0.120000000000001
                },
                {
                    "name": "E3",
                    "midi": 52,
                    "time": 21.24,
                    "velocity": 0.7874015748031497,
                    "duration": 0.120000000000001
                },
                {
                    "name": "F3",
                    "midi": 53,
                    "time": 21.599999999999998,
                    "velocity": 0.7874015748031497,
                    "duration": 0.120000000000001
                },
                {
                    "name": "G#3",
                    "midi": 56,
                    "time": 21.959999999999997,
                    "velocity": 0.7874015748031497,
                    "duration": 0.120000000000001
                },
                {
                    "name": "A#3",
                    "midi": 58,
                    "time": 29.159999999999997,
                    "velocity": 0.7874015748031497,
                    "duration": 0.23999999999999844
                },
                {
                    "name": "A3",
                    "midi": 57,
                    "time": 30.599999999999994,
                    "velocity": 0.7874015748031497,
                    "duration": 0.23999999999999844
                },
                {
                    "name": "F2",
                    "midi": 41,
                    "time": 33.47999999999999,
                    "velocity": 0.7874015748031497,
                    "duration": 0.11999999999999744
                },
                {
                    "name": "G2",
                    "midi": 43,
                    "time": 33.83999999999999,
                    "velocity": 0.7874015748031497,
                    "duration": 0.11999999999999744
                },
                {
                    "name": "A2",
                    "midi": 45,
                    "time": 34.19999999999999,
                    "velocity": 0.7874015748031497,
                    "duration": 0.11999999999999744
                },
                {
                    "name": "A#2",
                    "midi": 46,
                    "time": 34.55999999999999,
                    "velocity": 0.7874015748031497,
                    "duration": 0.11999999999999744
                },
                {
                    "name": "G2",
                    "midi": 43,
                    "time": 36.359999999999985,
                    "velocity": 0.7874015748031497,
                    "duration": 0.11999999999999744
                },
                {
                    "name": "G2",
                    "midi": 43,
                    "time": 36.47999999999998,
                    "velocity": 0.7874015748031497,
                    "duration": 0.11999999999999744
                },
                {
                    "name": "G2",
                    "midi": 43,
                    "time": 36.59999999999998,
                    "velocity": 0.7874015748031497,
                    "duration": 0.11999999999999744
                },
                {
                    "name": "G2",
                    "midi": 43,
                    "time": 36.71999999999998,
                    "velocity": 0.7874015748031497,
                    "duration": 0.11999999999999744
                },
                {
                    "name": "G2",
                    "midi": 43,
                    "time": 36.839999999999975,
                    "velocity": 0.7874015748031497,
                    "duration": 0.11999999999999744
                },
                {
                    "name": "G2",
                    "midi": 43,
                    "time": 36.95999999999997,
                    "velocity": 0.7874015748031497,
                    "duration": 0.11999999999999744
                },
                {
                    "name": "G2",
                    "midi": 43,
                    "time": 37.07999999999997,
                    "velocity": 0.7874015748031497,
                    "duration": 0.11999999999999744
                },
                {
                    "name": "G2",
                    "midi": 43,
                    "time": 37.19999999999997,
                    "velocity": 0.7874015748031497,
                    "duration": 0.11999999999999744
                },
                {
                    "name": "G2",
                    "midi": 43,
                    "time": 37.319999999999965,
                    "velocity": 0.7874015748031497,
                    "duration": 0.11999999999999744
                },
                {
                    "name": "G2",
                    "midi": 43,
                    "time": 37.43999999999996,
                    "velocity": 0.7874015748031497,
                    "duration": 0.240000000000002
                },
                {
                    "name": "A#3",
                    "midi": 58,
                    "time": 44.999999999999964,
                    "velocity": 0.7874015748031497,
                    "duration": 0.240000000000002
                },
                {
                    "name": "A3",
                    "midi": 57,
                    "time": 46.43999999999997,
                    "velocity": 0.7874015748031497,
                    "duration": 0.240000000000002
                },
                {
                    "name": "F2",
                    "midi": 41,
                    "time": 49.31999999999997,
                    "velocity": 0.7874015748031497,
                    "duration": 0.11999999999999744
                },
                {
                    "name": "G2",
                    "midi": 43,
                    "time": 49.67999999999997,
                    "velocity": 0.7874015748031497,
                    "duration": 0.11999999999999744
                },
                {
                    "name": "A2",
                    "midi": 45,
                    "time": 50.03999999999997,
                    "velocity": 0.7874015748031497,
                    "duration": 0.11999999999999744
                },
                {
                    "name": "A#2",
                    "midi": 46,
                    "time": 50.39999999999997,
                    "velocity": 0.7874015748031497,
                    "duration": 0.11999999999999744
                },
                {
                    "name": "G2",
                    "midi": 43,
                    "time": 52.19999999999997,
                    "velocity": 0.7874015748031497,
                    "duration": 0.11999999999999744
                },
                {
                    "name": "G2",
                    "midi": 43,
                    "time": 52.319999999999965,
                    "velocity": 0.7874015748031497,
                    "duration": 0.11999999999999744
                },
                {
                    "name": "G2",
                    "midi": 43,
                    "time": 52.43999999999996,
                    "velocity": 0.7874015748031497,
                    "duration": 0.11999999999999744
                },
                {
                    "name": "G2",
                    "midi": 43,
                    "time": 52.55999999999996,
                    "velocity": 0.7874015748031497,
                    "duration": 0.11999999999999744
                },
                {
                    "name": "G2",
                    "midi": 43,
                    "time": 52.67999999999996,
                    "velocity": 0.7874015748031497,
                    "duration": 0.11999999999999744
                },
                {
                    "name": "G2",
                    "midi": 43,
                    "time": 52.799999999999955,
                    "velocity": 0.7874015748031497,
                    "duration": 0.11999999999999744
                },
                {
                    "name": "G2",
                    "midi": 43,
                    "time": 52.91999999999995,
                    "velocity": 0.7874015748031497,
                    "duration": 0.11999999999999744
                },
                {
                    "name": "G2",
                    "midi": 43,
                    "time": 53.03999999999995,
                    "velocity": 0.7874015748031497,
                    "duration": 0.11999999999999744
                },
                {
                    "name": "G2",
                    "midi": 43,
                    "time": 53.15999999999995,
                    "velocity": 0.7874015748031497,
                    "duration": 0.11999999999999744
                },
                {
                    "name": "G2",
                    "midi": 43,
                    "time": 53.279999999999944,
                    "velocity": 0.7874015748031497,
                    "duration": 0.240000000000002
                }
            ],
            "controlChanges": {
                "7": [
                    {
                        "number": 7,
                        "time": 0,
                        "value": 0.7874015748031497
                    }
                ],
                "10": [
                    {
                        "number": 10,
                        "time": 0,
                        "value": 0.5826771653543307
                    }
                ]
            },
            "id": 2,
            "name": "--------------------------------------",
            "instrumentNumber": 42,
            "instrument": "cello",
            "instrumentFamily": "strings",
            "channelNumber": 1,
            "isPercussion": false
        },
        {
            "startTime": 9,
            "duration": 54.96000000000009,
            "length": 48,
            "notes": [
                {
                    "name": "E3",
                    "midi": 52,
                    "time": 9,
                    "velocity": 0.7874015748031497,
                    "duration": 0.11999999999999922
                },
                {
                    "name": "E3",
                    "midi": 52,
                    "time": 20.52,
                    "velocity": 0.7874015748031497,
                    "duration": 0.120000000000001
                },
                {
                    "name": "A2",
                    "midi": 45,
                    "time": 33.480000000000004,
                    "velocity": 0.7874015748031497,
                    "duration": 0.11999999999999744
                },
                {
                    "name": "C#4",
                    "midi": 61,
                    "time": 37.44,
                    "velocity": 0.7874015748031497,
                    "duration": 0.240000000000002
                },
                {
                    "name": "D4",
                    "midi": 62,
                    "time": 37.68,
                    "velocity": 0.7874015748031497,
                    "duration": 0.060000000000002274
                },
                {
                    "name": "C4",
                    "midi": 60,
                    "time": 37.74,
                    "velocity": 0.7874015748031497,
                    "duration": 0.060000000000002274
                },
                {
                    "name": "A#3",
                    "midi": 58,
                    "time": 37.800000000000004,
                    "velocity": 0.7874015748031497,
                    "duration": 0.060000000000002274
                },
                {
                    "name": "A3",
                    "midi": 57,
                    "time": 37.86000000000001,
                    "velocity": 0.7874015748031497,
                    "duration": 0.060000000000002274
                },
                {
                    "name": "G3",
                    "midi": 55,
                    "time": 37.92000000000001,
                    "velocity": 0.7874015748031497,
                    "duration": 0.060000000000002274
                },
                {
                    "name": "F3",
                    "midi": 53,
                    "time": 37.98000000000001,
                    "velocity": 0.7874015748031497,
                    "duration": 0.060000000000002274
                },
                {
                    "name": "E3",
                    "midi": 52,
                    "time": 38.04000000000001,
                    "velocity": 0.7874015748031497,
                    "duration": 0.060000000000002274
                },
                {
                    "name": "D3",
                    "midi": 50,
                    "time": 38.100000000000016,
                    "velocity": 0.7874015748031497,
                    "duration": 0.060000000000002274
                },
                {
                    "name": "C#3",
                    "midi": 49,
                    "time": 38.16000000000002,
                    "velocity": 0.7874015748031497,
                    "duration": 0.060000000000002274
                },
                {
                    "name": "B2",
                    "midi": 47,
                    "time": 38.22000000000002,
                    "velocity": 0.7874015748031497,
                    "duration": 0.060000000000002274
                },
                {
                    "name": "A2",
                    "midi": 45,
                    "time": 38.28000000000002,
                    "velocity": 0.7874015748031497,
                    "duration": 0.060000000000002274
                },
                {
                    "name": "G2",
                    "midi": 43,
                    "time": 38.340000000000025,
                    "velocity": 0.7874015748031497,
                    "duration": 0.060000000000002274
                },
                {
                    "name": "F2",
                    "midi": 41,
                    "time": 38.40000000000003,
                    "velocity": 0.7874015748031497,
                    "duration": 0.060000000000002274
                },
                {
                    "name": "E2",
                    "midi": 40,
                    "time": 38.46000000000003,
                    "velocity": 0.7874015748031497,
                    "duration": 0.060000000000002274
                },
                {
                    "name": "D2",
                    "midi": 38,
                    "time": 38.52000000000003,
                    "velocity": 0.7874015748031497,
                    "duration": 0.060000000000002274
                },
                {
                    "name": "F2",
                    "midi": 41,
                    "time": 38.580000000000034,
                    "velocity": 0.7874015748031497,
                    "duration": 0.060000000000002274
                },
                {
                    "name": "A2",
                    "midi": 45,
                    "time": 38.640000000000036,
                    "velocity": 0.7874015748031497,
                    "duration": 0.060000000000002274
                },
                {
                    "name": "D3",
                    "midi": 50,
                    "time": 38.70000000000004,
                    "velocity": 0.7874015748031497,
                    "duration": 0.060000000000002274
                },
                {
                    "name": "F3",
                    "midi": 53,
                    "time": 38.76000000000004,
                    "velocity": 0.7874015748031497,
                    "duration": 0.060000000000002274
                },
                {
                    "name": "A3",
                    "midi": 57,
                    "time": 38.82000000000004,
                    "velocity": 0.7874015748031497,
                    "duration": 0.060000000000002274
                },
                {
                    "name": "D4",
                    "midi": 62,
                    "time": 38.880000000000045,
                    "velocity": 0.7874015748031497,
                    "duration": 0.240000000000002
                },
                {
                    "name": "A2",
                    "midi": 45,
                    "time": 49.32000000000005,
                    "velocity": 0.7874015748031497,
                    "duration": 0.11999999999999744
                },
                {
                    "name": "C#4",
                    "midi": 61,
                    "time": 53.280000000000044,
                    "velocity": 0.7874015748031497,
                    "duration": 0.240000000000002
                },
                {
                    "name": "D4",
                    "midi": 62,
                    "time": 53.520000000000046,
                    "velocity": 0.7874015748031497,
                    "duration": 0.060000000000002274
                },
                {
                    "name": "C4",
                    "midi": 60,
                    "time": 53.58000000000005,
                    "velocity": 0.7874015748031497,
                    "duration": 0.060000000000002274
                },
                {
                    "name": "A#3",
                    "midi": 58,
                    "time": 53.64000000000005,
                    "velocity": 0.7874015748031497,
                    "duration": 0.060000000000002274
                },
                {
                    "name": "A3",
                    "midi": 57,
                    "time": 53.70000000000005,
                    "velocity": 0.7874015748031497,
                    "duration": 0.060000000000002274
                },
                {
                    "name": "G3",
                    "midi": 55,
                    "time": 53.760000000000055,
                    "velocity": 0.7874015748031497,
                    "duration": 0.060000000000002274
                },
                {
                    "name": "F3",
                    "midi": 53,
                    "time": 53.82000000000006,
                    "velocity": 0.7874015748031497,
                    "duration": 0.060000000000002274
                },
                {
                    "name": "E3",
                    "midi": 52,
                    "time": 53.88000000000006,
                    "velocity": 0.7874015748031497,
                    "duration": 0.060000000000002274
                },
                {
                    "name": "D3",
                    "midi": 50,
                    "time": 53.94000000000006,
                    "velocity": 0.7874015748031497,
                    "duration": 0.060000000000002274
                },
                {
                    "name": "C#3",
                    "midi": 49,
                    "time": 54.000000000000064,
                    "velocity": 0.7874015748031497,
                    "duration": 0.060000000000002274
                },
                {
                    "name": "B2",
                    "midi": 47,
                    "time": 54.060000000000066,
                    "velocity": 0.7874015748031497,
                    "duration": 0.060000000000002274
                },
                {
                    "name": "A2",
                    "midi": 45,
                    "time": 54.12000000000007,
                    "velocity": 0.7874015748031497,
                    "duration": 0.060000000000002274
                },
                {
                    "name": "G2",
                    "midi": 43,
                    "time": 54.18000000000007,
                    "velocity": 0.7874015748031497,
                    "duration": 0.060000000000002274
                },
                {
                    "name": "F2",
                    "midi": 41,
                    "time": 54.24000000000007,
                    "velocity": 0.7874015748031497,
                    "duration": 0.060000000000002274
                },
                {
                    "name": "E2",
                    "midi": 40,
                    "time": 54.300000000000075,
                    "velocity": 0.7874015748031497,
                    "duration": 0.060000000000002274
                },
                {
                    "name": "D2",
                    "midi": 38,
                    "time": 54.36000000000008,
                    "velocity": 0.7874015748031497,
                    "duration": 0.060000000000002274
                },
                {
                    "name": "F2",
                    "midi": 41,
                    "time": 54.42000000000008,
                    "velocity": 0.7874015748031497,
                    "duration": 0.060000000000002274
                },
                {
                    "name": "A2",
                    "midi": 45,
                    "time": 54.48000000000008,
                    "velocity": 0.7874015748031497,
                    "duration": 0.060000000000002274
                },
                {
                    "name": "D3",
                    "midi": 50,
                    "time": 54.540000000000084,
                    "velocity": 0.7874015748031497,
                    "duration": 0.060000000000002274
                },
                {
                    "name": "F3",
                    "midi": 53,
                    "time": 54.60000000000009,
                    "velocity": 0.7874015748031497,
                    "duration": 0.060000000000002274
                },
                {
                    "name": "A3",
                    "midi": 57,
                    "time": 54.66000000000009,
                    "velocity": 0.7874015748031497,
                    "duration": 0.060000000000002274
                },
                {
                    "name": "D4",
                    "midi": 62,
                    "time": 54.72000000000009,
                    "velocity": 0.7874015748031497,
                    "duration": 0.240000000000002
                }
            ],
            "controlChanges": {
                "7": [
                    {
                        "number": 7,
                        "time": 0,
                        "value": 0.7874015748031497
                    }
                ],
                "10": [
                    {
                        "number": 10,
                        "time": 0,
                        "value": 0.4251968503937008
                    }
                ]
            },
            "id": 3,
            "name": "Johann Sebastian Bach  (1685-1750)",
            "instrumentNumber": 42,
            "instrument": "cello",
            "instrumentFamily": "strings",
            "channelNumber": 2,
            "isPercussion": false
        },
        {
            "startTime": 0,
            "duration": 0,
            "length": 0,
            "notes": [],
            "controlChanges": {},
            "id": 4,
            "name": "Six Suites for Solo Cello"
        },
        {
            "startTime": 0,
            "duration": 0,
            "length": 0,
            "notes": [],
            "controlChanges": {},
            "id": 5,
            "name": "--------------------------------------"
        },
        {
            "startTime": 0,
            "duration": 0,
            "length": 0,
            "notes": [],
            "controlChanges": {},
            "id": 6,
            "name": "Suite No. 2 in D minor - BWV 1008"
        },
        {
            "startTime": 0,
            "duration": 0,
            "length": 0,
            "notes": [],
            "controlChanges": {},
            "id": 7,
            "name": "6th Movement: Gigue"
        },
        {
            "startTime": 0,
            "duration": 0,
            "length": 0,
            "notes": [],
            "controlChanges": {},
            "id": 8,
            "name": "--------------------------------------"
        },
        {
            "startTime": 0,
            "duration": 0,
            "length": 0,
            "notes": [],
            "controlChanges": {},
            "id": 9,
            "name": "Sequenced with Cakewalk Pro Audio by"
        },
        {
            "startTime": 0,
            "duration": 0,
            "length": 0,
            "notes": [],
            "controlChanges": {},
            "id": 10,
            "name": "David J. Grossman - dave@unpronounceable.com"
        },
        {
            "startTime": 0,
            "duration": 0,
            "length": 0,
            "notes": [],
            "controlChanges": {},
            "id": 11,
            "name": "This and other Bach MIDI files can be found at:"
        },
        {
            "startTime": 0,
            "duration": 0,
            "length": 0,
            "notes": [],
            "controlChanges": {},
            "id": 12,
            "name": "Dave's J.S. Bach Page"
        },
        {
            "startTime": 0,
            "duration": 0,
            "length": 0,
            "notes": [],
            "controlChanges": {},
            "id": 13,
            "name": "http://www.unpronounceable.com/bach"
        },
        {
            "startTime": 0,
            "duration": 0,
            "length": 0,
            "notes": [],
            "controlChanges": {},
            "id": 14,
            "name": "--------------------------------------"
        },
        {
            "startTime": 0,
            "duration": 0,
            "length": 0,
            "notes": [],
            "controlChanges": {},
            "id": 15,
            "name": "Original Filename: cs2-6gig.mid"
        },
        {
            "startTime": 0,
            "duration": 0,
            "length": 0,
            "notes": [],
            "controlChanges": {},
            "id": 16,
            "name": "Last Modified: February 22, 1997"
        },
        {
            "startTime": 0,
            "duration": 0,
            "length": 0,
            "notes": [],
            "controlChanges": {},
            "id": 17
        }
    ]
}