{
    "header": {
        "PPQ": 480,
        "timeSignature": [
            4,
            4
        ],
        "bpm": 250,
        "name": "untitled"
    },
    "startTime": 0,
    "duration": 46.98000000000024,
    "tracks": [
        {
            "startTime": 0,
            "duration": 0,
            "length": 0,
            "notes": [],
            "controlChanges": {},
            "id": 0,
            "name": "untitled"
        },
        {
            "startTime": 0.8999999999999999,
            "duration": 46.98000000000024,
            "length": 670,
            "notes": [
                {
                    "name": "A3",
                    "midi": 57,
                    "time": 0.8999999999999999,
                    "velocity": 0.7874015748031497,
                    "duration": 0.06000000000000005
                },
                {
                    "name": "A3",
                    "midi": 57,
                    "time": 0.96,
                    "velocity": 0.7874015748031497,
                    "duration": 0.1200000000000001
                },
                {
                    "name": "A#3",
                    "midi": 58,
                    "time": 1.08,
                    "velocity": 0.7874015748031497,
                    "duration": 0.06000000000000005
                },
                {
                    "name": "A3",
                    "midi": 57,
                    "time": 1.1400000000000001,
                    "velocity": 0.7874015748031497,
                    "duration": 0.06000000000000005
                },
                {
                    "name": "G3",
                    "midi": 55,
                    "time": 1.2000000000000002,
                    "velocity": 0.7874015748031497,
                    "duration": 0.06000000000000005
                },
                {
                    "name": "F3",
                    "midi": 53,
                    "time": 1.2600000000000002,
                    "velocity": 0.7874015748031497,
                    "duration": 0.06000000000000005
                },
                {
                    "name": "E3",
                    "midi": 52,
                    "time": 1.3200000000000003,
                    "velocity": 0.7874015748031497,
                    "duration": 0.06000000000000005
                },
                {
                    "name": "D3",
                    "midi": 50,
                    "time": 1.3800000000000003,
                    "velocity": 0.7874015748031497,
                    "duration": 0.06000000000000005
                },
                {
                    "name": "D3",
                    "midi": 50,
                    "time": 1.4400000000000004,
                    "velocity": 0.7874015748031497,
                    "duration": 0.06000000000000005
                },
                {
                    "name": "C#3",
                    "midi": 49,
                    "time": 1.5000000000000004,
                    "velocity": 0.7874015748031497,
                    "duration": 0.06000000000000005
                },
                {
                    "name": "D3",
                    "midi": 50,
                    "time": 1.5600000000000005,
                    "velocity": 0.7874015748031497,
                    "duration": 0.06000000000000005
                },
                {
                    "name": "E3",
                    "midi": 52,
                    "time": 1.6200000000000006,
                    "velocity": 0.7874015748031497,
                    "duration": 0.06000000000000005
                },
                {
                    "name": "A2",
                    "midi": 45,
                    "time": 1.6800000000000006,
                    "velocity": 0.7874015748031497,
                    "duration": 0.1200000000000001
                },
                {
                    "name": "A#2",
                    "midi": 46,
                    "time": 1.8000000000000007,
                    "velocity": 0.7874015748031497,
                    "duration": 0.06000000000000005
                },
                {
                    "name": "G2",
                    "midi": 43,
                    "time": 1.8600000000000008,
                    "velocity": 0.7874015748031497,
                    "duration": 0.06000000000000005
                },
                {
                    "name": "F2",
                    "midi": 41,
                    "time": 1.9200000000000008,
                    "velocity": 0.7874015748031497,
                    "duration": 0.06000000000000005
                },
                {
                    "name": "A2",
                    "midi": 45,
                    "time": 1.9800000000000009,
                    "velocity": 0.7874015748031497,
                    "duration": 0.06000000000000005
                },
                {
                    "name": "D3",
                    "midi": 50,
                    "time": 2.040000000000001,
                    "velocity": 0.7874015748031497,
                    "duration": 0.06000000000000005
                },
                {
                    "name": "F2",
                    "midi": 41,
                    "time": 2.100000000000001,
                    "velocity": 0.7874015748031497,
                    "duration": 0.06000000000000005
                },
                {
                    "name": "E2",
                    "midi": 40,
                    "time": 2.160000000000001,
                    "velocity": 0.7874015748031497,
                    "duration": 0.1200000000000001
                },
                {
                    "name": "C#3",
                    "midi": 49,
                    "time": 2.280000000000001,
                    "velocity": 0.7874015748031497,
                    "duration": 0.1200000000000001
                },
                {
                    "name": "D3",
                    "midi": 50,
                    "time": 2.4000000000000012,
                    "velocity": 0.7874015748031497,
                    "duration": 0.18000000000000016
                },
                {
                    "name": "E3",
                    "midi": 52,
                    "time": 2.5800000000000014,
                    "velocity": 0.7874015748031497,
                    "duration": 0.06000000000000005
                },
                {
                    "name": "F3",
                    "midi": 53,
                    "time": 2.6400000000000015,
                    "velocity": 0.7874015748031497,
                    "duration": 0.06000000000000005
                },
                {
                    "name": "G3",
                    "midi": 55,
                    "time": 2.7000000000000015,
                    "velocity": 0.7874015748031497,
                    "duration": 0.06000000000000005
                },
                {
                    "name": "A3",
                    "midi": 57,
                    "time": 2.7600000000000016,
                    "velocity": 0.7874015748031497,
                    "duration": 0.06000000000000005
                },
                {
                    "name": "A#3",
                    "midi": 58,
                    "time": 2.8200000000000016,
                    "velocity": 0.7874015748031497,
                    "duration": 0.06000000000000005
                },
                {
                    "name": "C4",
                    "midi": 60,
                    "time": 2.8800000000000017,
                    "velocity": 0.7874015748031497,
                    "duration": 0.1200000000000001
                },
                {
                    "name": "D4",
                    "midi": 62,
                    "time": 3.0000000000000018,
                    "velocity": 0.7874015748031497,
                    "duration": 0.06000000000000005
                },
                {
                    "name": "D#4",
                    "midi": 63,
                    "time": 3.060000000000002,
                    "velocity": 0.7874015748031497,
                    "duration": 0.06000000000000005
                },
                {
                    "name": "D4",
                    "midi": 62,
                    "time": 3.120000000000002,
                    "velocity": 0.7874015748031497,
                    "duration": 0.06000000000000005
                },
                {
                    "name": "C4",
                    "midi": 60,
                    "time": 3.180000000000002,
                    "velocity": 0.7874015748031497,
                    "duration": 0.06000000000000005
                },
                {
                    "name": "A#3",
                    "midi": 58,
                    "time": 3.240000000000002,
                    "velocity": 0.7874015748031497,
                    "duration": 0.06000000000000005
                },
                {
                    "name": "A3",
                    "midi": 57,
                    "time": 3.300000000000002,
                    "velocity": 0.7874015748031497,
                    "duration": 0.06000000000000005
                },
                {
                    "name": "C4",
                    "midi": 60,
                    "time": 3.360000000000002,
                    "velocity": 0.7874015748031497,
                    "duration": 0.06000000000000005
                },
                {
                    "name": "A#3",
                    "midi": 58,
                    "time": 3.420000000000002,
                    "velocity": 0.7874015748031497,
                    "duration": 0.06000000000000005
                },
                {
                    "name": "A3",
                    "midi": 57,
                    "time": 3.480000000000002,
                    "velocity": 0.7874015748031497,
                    "duration": 0.06000000000000005
                },
                {
                    "name": "G3",
                    "midi": 55,
                    "time": 3.5400000000000023,
                    "velocity": 0.7874015748031497,
                    "duration": 0.06000000000000005
                },
                {
                    "name": "D4",
                    "midi": 62,
                    "time": 3.6000000000000023,
                    "velocity": 0.7874015748031497,
                    "duration": 0.18000000000000016
                },
                {
                    "name": "F3",
                    "midi": 53,
                    "time": 3.7800000000000025,
                    "velocity": 0.7874015748031497,
                    "duration": 0.06000000000000005
                },
                {
                    "name": "E3",
                    "midi": 52,
                    "time": 3.8400000000000025,
                    "velocity": 0.7874015748031497,
                    "duration": 0.06000000000000005
                },
                {
                    "name": "G3",
                    "midi": 55,
                    "time": 3.9000000000000026,
                    "velocity": 0.7874015748031497,
                    "duration": 0.06000000000000005
                },
                {
                    "name": "A#3",
                    "midi": 58,
                    "time": 3.9600000000000026,
                    "velocity": 0.7874015748031497,
                    "duration": 0.05999999999999961
                },
                {
                    "name": "D4",
                    "midi": 62,
                    "time": 4.020000000000002,
                    "velocity": 0.7874015748031497,
                    "duration": 0.05999999999999961
                },
                {
                    "name": "C4",
                    "midi": 60,
                    "time": 4.080000000000002,
                    "velocity": 0.7874015748031497,
                    "duration": 0.05999999999999961
                },
                {
                    "name": "A#3",
                    "midi": 58,
                    "time": 4.1400000000000015,
                    "velocity": 0.7874015748031497,
                    "duration": 0.05999999999999961
                },
                {
                    "name": "A3",
                    "midi": 57,
                    "time": 4.200000000000001,
                    "velocity": 0.7874015748031497,
                    "duration": 0.05999999999999961
                },
                {
                    "name": "G3",
                    "midi": 55,
                    "time": 4.260000000000001,
                    "velocity": 0.7874015748031497,
                    "duration": 0.05999999999999961
                },
                {
                    "name": "A#3",
                    "midi": 58,
                    "time": 4.32,
                    "velocity": 0.7874015748031497,
                    "duration": 0.05999999999999961
                },
                {
                    "name": "A3",
                    "midi": 57,
                    "time": 4.38,
                    "velocity": 0.7874015748031497,
                    "duration": 0.05999999999999961
                },
                {
                    "name": "G3",
                    "midi": 55,
                    "time": 4.4399999999999995,
                    "velocity": 0.7874015748031497,
                    "duration": 0.05999999999999961
                },
                {
                    "name": "F3",
                    "midi": 53,
                    "time": 4.499999999999999,
                    "velocity": 0.7874015748031497,
                    "duration": 0.05999999999999961
                },
                {
                    "name": "A3",
                    "midi": 57,
                    "time": 4.559999999999999,
                    "velocity": 0.7874015748031497,
                    "duration": 0.17999999999999972
                },
                {
                    "name": "A3",
                    "midi": 57,
                    "time": 4.739999999999998,
                    "velocity": 0.7874015748031497,
                    "duration": 0.05999999999999961
                },
                {
                    "name": "B3",
                    "midi": 59,
                    "time": 4.799999999999998,
                    "velocity": 0.7874015748031497,
                    "duration": 0.05999999999999961
                },
                {
                    "name": "F3",
                    "midi": 53,
                    "time": 4.859999999999998,
                    "velocity": 0.7874015748031497,
                    "duration": 0.05999999999999961
                },
                {
                    "name": "E3",
                    "midi": 52,
                    "time": 4.919999999999997,
                    "velocity": 0.7874015748031497,
                    "duration": 0.05999999999999961
                },
                {
                    "name": "D3",
                    "midi": 50,
                    "time": 4.979999999999997,
                    "velocity": 0.7874015748031497,
                    "duration": 0.05999999999999961
                },
                {
                    "name": "E3",
                    "midi": 52,
                    "time": 5.0399999999999965,
                    "velocity": 0.7874015748031497,
                    "duration": 0.05999999999999961
                },
                {
                    "name": "C#4",
                    "midi": 61,
                    "time": 5.099999999999996,
                    "velocity": 0.7874015748031497,
                    "duration": 0.05999999999999961
                },
                {
                    "name": "D4",
                    "midi": 62,
                    "time": 5.159999999999996,
                    "velocity": 0.7874015748031497,
                    "duration": 0.05999999999999961
                },
                {
                    "name": "C#4",
                    "midi": 61,
                    "time": 5.219999999999995,
                    "velocity": 0.7874015748031497,
                    "duration": 0.05999999999999961
                },
                {
                    "name": "D4",
                    "midi": 62,
                    "time": 5.279999999999995,
                    "velocity": 0.7874015748031497,
                    "duration": 0.17999999999999972
                },
                {
                    "name": "E4",
                    "midi": 64,
                    "time": 5.459999999999995,
                    "velocity": 0.7874015748031497,
                    "duration": 0.05999999999999961
                },
                {
                    "name": "F4",
                    "midi": 65,
                    "time": 5.519999999999994,
                    "velocity": 0.7874015748031497,
                    "duration": 0.05999999999999961
                },
                {
                    "name": "E4",
                    "midi": 64,
                    "time": 5.579999999999994,
                    "velocity": 0.7874015748031497,
                    "duration": 0.05999999999999961
                },
                {
                    "name": "D4",
                    "midi": 62,
                    "time": 5.6399999999999935,
                    "velocity": 0.7874015748031497,
                    "duration": 0.05999999999999961
                },
                {
                    "name": "E4",
                    "midi": 64,
                    "time": 5.699999999999993,
                    "velocity": 0.7874015748031497,
                    "duration": 0.05999999999999961
                },
                {
                    "name": "D4",
                    "midi": 62,
                    "time": 5.759999999999993,
                    "velocity": 0.7874015748031497,
                    "duration": 0.05999999999999961
                },
                {
                    "name": "C4",
                    "midi": 60,
                    "time": 5.819999999999992,
                    "velocity": 0.7874015748031497,
                    "duration": 0.05999999999999961
                },
                {
                    "name": "B3",
                    "midi": 59,
                    "time": 5.879999999999992,
                    "velocity": 0.7874015748031497,
                    "duration": 0.05999999999999961
                },
                {
                    "name": "C4",
                    "midi": 60,
                    "time": 5.9399999999999915,
                    "velocity": 0.7874015748031497,
                    "duration": 0.05999999999999961
                },
                {
                    "name": "B3",
                    "midi": 59,
                    "time": 5.999999999999991,
                    "velocity": 0.7874015748031497,
                    "duration": 0.05999999999999961
                },
                {
                    "name": "A3",
                    "midi": 57,
                    "time": 6.059999999999991,
                    "velocity": 0.7874015748031497,
                    "duration": 0.05999999999999961
                },
                {
                    "name": "G#3",
                    "midi": 56,
                    "time": 6.11999999999999,
                    "velocity": 0.7874015748031497,
                    "duration": 0.05999999999999961
                },
                {
                    "name": "A3",
                    "midi": 57,
                    "time": 6.17999999999999,
                    "velocity": 0.7874015748031497,
                    "duration": 0.05999999999999961
                },
                {
                    "name": "G#3",
                    "midi": 56,
                    "time": 6.2399999999999896,
                    "velocity": 0.7874015748031497,
                    "duration": 0.1200000000000001
                },
                {
                    "name": "F#3",
                    "midi": 54,
                    "time": 6.35999999999999,
                    "velocity": 0.7874015748031497,
                    "duration": 0.05999999999999961
                },
                {
                    "name": "E3",
                    "midi": 52,
                    "time": 6.419999999999989,
                    "velocity": 0.7874015748031497,
                    "duration": 0.05999999999999961
                },
                {
                    "name": "E4",
                    "midi": 64,
                    "time": 6.479999999999989,
                    "velocity": 0.7874015748031497,
                    "duration": 0.05999999999999961
                },
                {
                    "name": "C4",
                    "midi": 60,
                    "time": 6.5399999999999885,
                    "velocity": 0.7874015748031497,
                    "duration": 0.05999999999999961
                },
                {
                    "name": "A3",
                    "midi": 57,
                    "time": 6.599999999999988,
                    "velocity": 0.7874015748031497,
                    "duration": 0.05999999999999961
                },
                {
                    "name": "G3",
                    "midi": 55,
                    "time": 6.659999999999988,
                    "velocity": 0.7874015748031497,
                    "duration": 0.05999999999999961
                },
                {
                    "name": "F3",
                    "midi": 53,
                    "time": 6.719999999999987,
                    "velocity": 0.7874015748031497,
                    "duration": 0.05999999999999961
                },
                {
                    "name": "A3",
                    "midi": 57,
                    "time": 6.779999999999987,
                    "velocity": 0.7874015748031497,
                    "duration": 0.05999999999999961
                },
                {
                    "name": "F3",
                    "midi": 53,
                    "time": 6.8399999999999865,
                    "velocity": 0.7874015748031497,
                    "duration": 0.05999999999999961
                },
                {
                    "name": "D3",
                    "midi": 50,
                    "time": 6.899999999999986,
                    "velocity": 0.7874015748031497,
                    "duration": 0.05999999999999961
                },
                {
                    "name": "D3",
                    "midi": 50,
                    "time": 6.959999999999986,
                    "velocity": 0.7874015748031497,
                    "duration": 0.05999999999999961
                },
                {
                    "name": "F3",
                    "midi": 53,
                    "time": 7.019999999999985,
                    "velocity": 0.7874015748031497,
                    "duration": 0.05999999999999961
                },
                {
                    "name": "D3",
                    "midi": 50,
                    "time": 7.079999999999985,
                    "velocity": 0.7874015748031497,
                    "duration": 0.05999999999999961
                },
                {
                    "name": "B2",
                    "midi": 47,
                    "time": 7.139999999999985,
                    "velocity": 0.7874015748031497,
                    "duration": 0.05999999999999961
                },
                {
                    "name": "G#2",
                    "midi": 44,
                    "time": 7.199999999999984,
                    "velocity": 0.7874015748031497,
                    "duration": 0.05999999999999961
                },
                {
                    "name": "B2",
                    "midi": 47,
                    "time": 7.259999999999984,
                    "velocity": 0.7874015748031497,
                    "duration": 0.05999999999999961
                },
                {
                    "name": "E3",
                    "midi": 52,
                    "time": 7.319999999999983,
                    "velocity": 0.7874015748031497,
                    "duration": 0.05999999999999961
                },
                {
                    "name": "G#3",
                    "midi": 56,
                    "time": 7.379999999999983,
                    "velocity": 0.7874015748031497,
                    "duration": 0.05999999999999961
                },
                {
                    "name": "B3",
                    "midi": 59,
                    "time": 7.439999999999983,
                    "velocity": 0.7874015748031497,
                    "duration": 0.05999999999999961
                },
                {
                    "name": "D4",
                    "midi": 62,
                    "time": 7.499999999999982,
                    "velocity": 0.7874015748031497,
                    "duration": 0.05999999999999961
                },
                {
                    "name": "C4",
                    "midi": 60,
                    "time": 7.559999999999982,
                    "velocity": 0.7874015748031497,
                    "duration": 0.05999999999999961
                },
                {
                    "name": "B3",
                    "midi": 59,
                    "time": 7.6199999999999815,
                    "velocity": 0.7874015748031497,
                    "duration": 0.05999999999999961
                },
                {
                    "name": "C4",
                    "midi": 60,
                    "time": 7.679999999999981,
                    "velocity": 0.7874015748031497,
                    "duration": 0.05999999999999961
                },
                {
                    "name": "A3",
                    "midi": 57,
                    "time": 7.739999999999981,
                    "velocity": 0.7874015748031497,
                    "duration": 0.05999999999999961
                },
                {
                    "name": "F3",
                    "midi": 53,
                    "time": 7.79999999999998,
                    "velocity": 0.7874015748031497,
                    "duration": 0.05999999999999961
                },
                {
                    "name": "E3",
                    "midi": 52,
                    "time": 7.85999999999998,
                    "velocity": 0.7874015748031497,
                    "duration": 0.05999999999999961
                },
                {
                    "name": "D3",
                    "midi": 50,
                    "time": 7.9199999999999795,
                    "velocity": 0.7874015748031497,
                    "duration": 0.05999999999999961
                },
                {
                    "name": "F3",
                    "midi": 53,
                    "time": 7.979999999999979,
                    "velocity": 0.7874015748031497,
                    "duration": 0.0600000000000005
                },
                {
                    "name": "E3",
                    "midi": 52,
                    "time": 8.03999999999998,
                    "velocity": 0.7874015748031497,
                    "duration": 0.0600000000000005
                },
                {
                    "name": "D3",
                    "midi": 50,
                    "time": 8.09999999999998,
                    "velocity": 0.7874015748031497,
                    "duration": 0.0600000000000005
                },
                {
                    "name": "G#3",
                    "midi": 56,
                    "time": 8.15999999999998,
                    "velocity": 0.7874015748031497,
                    "duration": 0.17999999999999794
                },
                {
                    "name": "A3",
                    "midi": 57,
                    "time": 8.339999999999979,
                    "velocity": 0.7874015748031497,
                    "duration": 0.0600000000000005
                },
                {
                    "name": "B3",
                    "midi": 59,
                    "time": 8.399999999999979,
                    "velocity": 0.7874015748031497,
                    "duration": 0.0600000000000005
                },
                {
                    "name": "D4",
                    "midi": 62,
                    "time": 8.45999999999998,
                    "velocity": 0.7874015748031497,
                    "duration": 0.0600000000000005
                },
                {
                    "name": "E3",
                    "midi": 52,
                    "time": 8.51999999999998,
                    "velocity": 0.7874015748031497,
                    "duration": 0.0600000000000005
                },
                {
                    "name": "D3",
                    "midi": 50,
                    "time": 8.57999999999998,
                    "velocity": 0.7874015748031497,
                    "duration": 0.0600000000000005
                },
                {
                    "name": "C3",
                    "midi": 48,
                    "time": 8.639999999999981,
                    "velocity": 0.7874015748031497,
                    "duration": 0.0600000000000005
                },
                {
                    "name": "E3",
                    "midi": 52,
                    "time": 8.699999999999982,
                    "velocity": 0.7874015748031497,
                    "duration": 0.0600000000000005
                },
                {
                    "name": "A3",
                    "midi": 57,
                    "time": 8.759999999999982,
                    "velocity": 0.7874015748031497,
                    "duration": 0.0600000000000005
                },
                {
                    "name": "D4",
                    "midi": 62,
                    "time": 8.819999999999983,
                    "velocity": 0.7874015748031497,
                    "duration": 0.0600000000000005
                },
                {
                    "name": "B3",
                    "midi": 59,
                    "time": 8.879999999999983,
                    "velocity": 0.7874015748031497,
                    "duration": 0.17999999999999794
                },
                {
                    "name": "A3",
                    "midi": 57,
                    "time": 9.059999999999981,
                    "velocity": 0.7874015748031497,
                    "duration": 0.0600000000000005
                },
                {
                    "name": "A3",
                    "midi": 57,
                    "time": 9.119999999999981,
                    "velocity": 0.7874015748031497,
                    "duration": 0.11999999999999922
                },
                {
                    "name": "D3",
                    "midi": 50,
                    "time": 9.59999999999998,
                    "velocity": 0.7874015748031497,
                    "duration": 0.0600000000000005
                },
                {
                    "name": "G#3",
                    "midi": 56,
                    "time": 9.65999999999998,
                    "velocity": 0.7874015748031497,
                    "duration": 0.0600000000000005
                },
                {
                    "name": "A3",
                    "midi": 57,
                    "time": 9.719999999999981,
                    "velocity": 0.7874015748031497,
                    "duration": 0.0600000000000005
                },
                {
                    "name": "B3",
                    "midi": 59,
                    "time": 9.779999999999982,
                    "velocity": 0.7874015748031497,
                    "duration": 0.0600000000000005
                },
                {
                    "name": "A3",
                    "midi": 57,
                    "time": 9.839999999999982,
                    "velocity": 0.7874015748031497,
                    "duration": 0.0600000000000005
                },
                {
                    "name": "G#3",
                    "midi": 56,
                    "time": 9.899999999999983,
                    "velocity": 0.7874015748031497,
                    "duration": 0.0600000000000005
                },
                {
                    "name": "F#3",
                    "midi": 54,
                    "time": 9.959999999999983,
                    "velocity": 0.7874015748031497,
                    "duration": 0.0600000000000005
                },
                {
                    "name": "E3",
                    "midi": 52,
                    "time": 10.019999999999984,
                    "velocity": 0.7874015748031497,
                    "duration": 0.0600000000000005
                },
                {
                    "name": "A3",
                    "midi": 57,
                    "time": 10.079999999999984,
                    "velocity": 0.7874015748031497,
                    "duration": 0.11999999999999922
                },
                {
                    "name": "F3",
                    "midi": 53,
                    "time": 10.199999999999983,
                    "velocity": 0.7874015748031497,
                    "duration": 0.0600000000000005
                },
                {
                    "name": "E3",
                    "midi": 52,
                    "time": 10.259999999999984,
                    "velocity": 0.7874015748031497,
                    "duration": 0.0600000000000005
                },
                {
                    "name": "D3",
                    "midi": 50,
                    "time": 10.319999999999984,
                    "velocity": 0.7874015748031497,
                    "duration": 0.0600000000000005
                },
                {
                    "name": "C3",
                    "midi": 48,
                    "time": 10.379999999999985,
                    "velocity": 0.7874015748031497,
                    "duration": 0.0600000000000005
                },
                {
                    "name": "B2",
                    "midi": 47,
                    "time": 10.439999999999985,
                    "velocity": 0.7874015748031497,
                    "duration": 0.0600000000000005
                },
                {
                    "name": "A2",
                    "midi": 45,
                    "time": 10.499999999999986,
                    "velocity": 0.7874015748031497,
                    "duration": 0.0600000000000005
                },
                {
                    "name": "D3",
                    "midi": 50,
                    "time": 10.559999999999986,
                    "velocity": 0.7874015748031497,
                    "duration": 0.11999999999999922
                },
                {
                    "name": "E3",
                    "midi": 52,
                    "time": 10.679999999999986,
                    "velocity": 0.7874015748031497,
                    "duration": 0.0600000000000005
                },
                {
                    "name": "F3",
                    "midi": 53,
                    "time": 10.739999999999986,
                    "velocity": 0.7874015748031497,
                    "duration": 0.0600000000000005
                },
                {
                    "name": "E3",
                    "midi": 52,
                    "time": 10.799999999999986,
                    "velocity": 0.7874015748031497,
                    "duration": 0.0600000000000005
                },
                {
                    "name": "D3",
                    "midi": 50,
                    "time": 10.859999999999987,
                    "velocity": 0.7874015748031497,
                    "duration": 0.0600000000000005
                },
                {
                    "name": "C3",
                    "midi": 48,
                    "time": 10.919999999999987,
                    "velocity": 0.7874015748031497,
                    "duration": 0.0600000000000005
                },
                {
                    "name": "B2",
                    "midi": 47,
                    "time": 10.979999999999988,
                    "velocity": 0.7874015748031497,
                    "duration": 0.0600000000000005
                },
                {
                    "name": "D4",
                    "midi": 62,
                    "time": 11.039999999999988,
                    "velocity": 0.7874015748031497,
                    "duration": 0.0600000000000005
                },
                {
                    "name": "B3",
                    "midi": 59,
                    "time": 11.099999999999989,
                    "velocity": 0.7874015748031497,
                    "duration": 0.0600000000000005
                },
                {
                    "name": "C4",
                    "midi": 60,
                    "time": 11.15999999999999,
                    "velocity": 0.7874015748031497,
                    "duration": 0.0600000000000005
                },
                {
                    "name": "A3",
                    "midi": 57,
                    "time": 11.21999999999999,
                    "velocity": 0.7874015748031497,
                    "duration": 0.0600000000000005
                },
                {
                    "name": "E3",
                    "midi": 52,
                    "time": 11.27999999999999,
                    "velocity": 0.7874015748031497,
                    "duration": 0.11999999999999922
                },
                {
                    "name": "G#3",
                    "midi": 56,
                    "time": 11.39999999999999,
                    "velocity": 0.7874015748031497,
                    "duration": 0.11999999999999922
                },
                {
                    "name": "A2",
                    "midi": 45,
                    "time": 11.519999999999989,
                    "velocity": 0.7874015748031497,
                    "duration": 0.17999999999999972
                },
                {
                    "name": "C#3",
                    "midi": 49,
                    "time": 11.699999999999989,
                    "velocity": 0.7874015748031497,
                    "duration": 0.0600000000000005
                },
                {
                    "name": "E3",
                    "midi": 52,
                    "time": 11.75999999999999,
                    "velocity": 0.7874015748031497,
                    "duration": 0.0600000000000005
                },
                {
                    "name": "G3",
                    "midi": 55,
                    "time": 11.81999999999999,
                    "velocity": 0.7874015748031497,
                    "duration": 0.0600000000000005
                },
                {
                    "name": "F3",
                    "midi": 53,
                    "time": 11.87999999999999,
                    "velocity": 0.7874015748031497,
                    "duration": 0.0600000000000005
                },
                {
                    "name": "E3",
                    "midi": 52,
                    "time": 11.93999999999999,
                    "velocity": 0.7874015748031497,
                    "duration": 0.0600000000000005
                },
                {
                    "name": "F3",
                    "midi": 53,
                    "time": 11.999999999999991,
                    "velocity": 0.7874015748031497,
                    "duration": 0.0600000000000005
                },
                {
                    "name": "A3",
                    "midi": 57,
                    "time": 12.059999999999992,
                    "velocity": 0.7874015748031497,
                    "duration": 0.0600000000000005
                },
                {
                    "name": "D4",
                    "midi": 62,
                    "time": 12.119999999999992,
                    "velocity": 0.7874015748031497,
                    "duration": 0.0600000000000005
                },
                {
                    "name": "G#3",
                    "midi": 56,
                    "time": 12.179999999999993,
                    "velocity": 0.7874015748031497,
                    "duration": 0.0600000000000005
                },
                {
                    "name": "A3",
                    "midi": 57,
                    "time": 12.239999999999993,
                    "velocity": 0.7874015748031497,
                    "duration": 0.17999999999999972
                },
                {
                    "name": "A3",
                    "midi": 57,
                    "time": 12.419999999999993,
                    "velocity": 0.7874015748031497,
                    "duration": 0.0600000000000005
                },
                {
                    "name": "A3",
                    "midi": 57,
                    "time": 12.479999999999993,
                    "velocity": 0.7874015748031497,
                    "duration": 0.11999999999999922
                },
                {
                    "name": "A#3",
                    "midi": 58,
                    "time": 12.599999999999993,
                    "velocity": 0.7874015748031497,
                    "duration": 0.0600000000000005
                },
                {
                    "name": "A3",
                    "midi": 57,
                    "time": 12.659999999999993,
                    "velocity": 0.7874015748031497,
                    "duration": 0.0600000000000005
                },
                {
                    "name": "G3",
                    "midi": 55,
                    "time": 12.719999999999994,
                    "velocity": 0.7874015748031497,
                    "duration": 0.0600000000000005
                },
                {
                    "name": "F3",
                    "midi": 53,
                    "time": 12.779999999999994,
                    "velocity": 0.7874015748031497,
                    "duration": 0.0600000000000005
                },
                {
                    "name": "E3",
                    "midi": 52,
                    "time": 12.839999999999995,
                    "velocity": 0.7874015748031497,
                    "duration": 0.0600000000000005
                },
                {
                    "name": "D3",
                    "midi": 50,
                    "time": 12.899999999999995,
                    "velocity": 0.7874015748031497,
                    "duration": 0.0600000000000005
                },
                {
                    "name": "D3",
                    "midi": 50,
                    "time": 12.959999999999996,
                    "velocity": 0.7874015748031497,
                    "duration": 0.0600000000000005
                },
                {
                    "name": "C#3",
                    "midi": 49,
                    "time": 13.019999999999996,
                    "velocity": 0.7874015748031497,
                    "duration": 0.0600000000000005
                },
                {
                    "name": "D3",
                    "midi": 50,
                    "time": 13.079999999999997,
                    "velocity": 0.7874015748031497,
                    "duration": 0.0600000000000005
                },
                {
                    "name": "E3",
                    "midi": 52,
                    "time": 13.139999999999997,
                    "velocity": 0.7874015748031497,
                    "duration": 0.0600000000000005
                },
                {
                    "name": "A2",
                    "midi": 45,
                    "time": 13.199999999999998,
                    "velocity": 0.7874015748031497,
                    "duration": 0.11999999999999922
                },
                {
                    "name": "A#2",
                    "midi": 46,
                    "time": 13.319999999999997,
                    "velocity": 0.7874015748031497,
                    "duration": 0.0600000000000005
                },
                {
                    "name": "G2",
                    "midi": 43,
                    "time": 13.379999999999997,
                    "velocity": 0.7874015748031497,
                    "duration": 0.0600000000000005
                },
                {
                    "name": "F2",
                    "midi": 41,
                    "time": 13.439999999999998,
                    "velocity": 0.7874015748031497,
                    "duration": 0.0600000000000005
                },
                {
                    "name": "A2",
                    "midi": 45,
                    "time": 13.499999999999998,
                    "velocity": 0.7874015748031497,
                    "duration": 0.0600000000000005
                },
                {
                    "name": "D3",
                    "midi": 50,
                    "time": 13.559999999999999,
                    "velocity": 0.7874015748031497,
                    "duration": 0.0600000000000005
                },
                {
                    "name": "F2",
                    "midi": 41,
                    "time": 13.62,
                    "velocity": 0.7874015748031497,
                    "duration": 0.0600000000000005
                },
                {
                    "name": "E2",
                    "midi": 40,
                    "time": 13.68,
                    "velocity": 0.7874015748031497,
                    "duration": 0.11999999999999922
                },
                {
                    "name": "C#3",
                    "midi": 49,
                    "time": 13.799999999999999,
                    "velocity": 0.7874015748031497,
                    "duration": 0.11999999999999922
                },
                {
                    "name": "D3",
                    "midi": 50,
                    "time": 13.919999999999998,
                    "velocity": 0.7874015748031497,
                    "duration": 0.17999999999999972
                },
                {
                    "name": "E3",
                    "midi": 52,
                    "time": 14.099999999999998,
                    "velocity": 0.7874015748031497,
                    "duration": 0.0600000000000005
                },
                {
                    "name": "F3",
                    "midi": 53,
                    "time": 14.159999999999998,
                    "velocity": 0.7874015748031497,
                    "duration": 0.0600000000000005
                },
                {
                    "name": "G3",
                    "midi": 55,
                    "time": 14.219999999999999,
                    "velocity": 0.7874015748031497,
                    "duration": 0.0600000000000005
                },
                {
                    "name": "A3",
                    "midi": 57,
                    "time": 14.28,
                    "velocity": 0.7874015748031497,
                    "duration": 0.0600000000000005
                },
                {
                    "name": "A#3",
                    "midi": 58,
                    "time": 14.34,
                    "velocity": 0.7874015748031497,
                    "duration": 0.0600000000000005
                },
                {
                    "name": "C4",
                    "midi": 60,
                    "time": 14.4,
                    "velocity": 0.7874015748031497,
                    "duration": 0.11999999999999922
                },
                {
                    "name": "D4",
                    "midi": 62,
                    "time": 14.52,
                    "velocity": 0.7874015748031497,
                    "duration": 0.0600000000000005
                },
                {
                    "name": "D#4",
                    "midi": 63,
                    "time": 14.58,
                    "velocity": 0.7874015748031497,
                    "duration": 0.0600000000000005
                },
                {
                    "name": "D4",
                    "midi": 62,
                    "time": 14.64,
                    "velocity": 0.7874015748031497,
                    "duration": 0.0600000000000005
                },
                {
                    "name": "C4",
                    "midi": 60,
                    "time": 14.700000000000001,
                    "velocity": 0.7874015748031497,
                    "duration": 0.0600000000000005
                },
                {
                    "name": "A#3",
                    "midi": 58,
                    "time": 14.760000000000002,
                    "velocity": 0.7874015748031497,
                    "duration": 0.0600000000000005
                },
                {
                    "name": "A3",
                    "midi": 57,
                    "time": 14.820000000000002,
                    "velocity": 0.7874015748031497,
                    "duration": 0.0600000000000005
                },
                {
                    "name": "C4",
                    "midi": 60,
                    "time": 14.880000000000003,
                    "velocity": 0.7874015748031497,
                    "duration": 0.0600000000000005
                },
                {
                    "name": "A#3",
                    "midi": 58,
                    "time": 14.940000000000003,
                    "velocity": 0.7874015748031497,
                    "duration": 0.0600000000000005
                },
                {
                    "name": "A3",
                    "midi": 57,
                    "time": 15.000000000000004,
                    "velocity": 0.7874015748031497,
                    "duration": 0.0600000000000005
                },
                {
                    "name": "G3",
                    "midi": 55,
                    "time": 15.060000000000004,
                    "velocity": 0.7874015748031497,
                    "duration": 0.0600000000000005
                },
                {
                    "name": "D4",
                    "midi": 62,
                    "time": 15.120000000000005,
                    "velocity": 0.7874015748031497,
                    "duration": 0.17999999999999972
                },
                {
                    "name": "F3",
                    "midi": 53,
                    "time": 15.300000000000004,
                    "velocity": 0.7874015748031497,
                    "duration": 0.0600000000000005
                },
                {
                    "name": "E3",
                    "midi": 52,
                    "time": 15.360000000000005,
                    "velocity": 0.7874015748031497,
                    "duration": 0.0600000000000005
                },
                {
                    "name": "G3",
                    "midi": 55,
                    "time": 15.420000000000005,
                    "velocity": 0.7874015748031497,
                    "duration": 0.0600000000000005
                },
                {
                    "name": "A#3",
                    "midi": 58,
                    "time": 15.480000000000006,
                    "velocity": 0.7874015748031497,
                    "duration": 0.0600000000000005
                },
                {
                    "name": "D4",
                    "midi": 62,
                    "time": 15.540000000000006,
                    "velocity": 0.7874015748031497,
                    "duration": 0.0600000000000005
                },
                {
                    "name": "C4",
                    "midi": 60,
                    "time": 15.600000000000007,
                    "velocity": 0.7874015748031497,
                    "duration": 0.0600000000000005
                },
                {
                    "name": "A#3",
                    "midi": 58,
                    "time": 15.660000000000007,
                    "velocity": 0.7874015748031497,
                    "duration": 0.0600000000000005
                },
                {
                    "name": "A3",
                    "midi": 57,
                    "time": 15.720000000000008,
                    "velocity": 0.7874015748031497,
                    "duration": 0.0600000000000005
                },
                {
                    "name": "G3",
                    "midi": 55,
                    "time": 15.780000000000008,
                    "velocity": 0.7874015748031497,
                    "duration": 0.0600000000000005
                },
                {
                    "name": "A#3",
                    "midi": 58,
                    "time": 15.840000000000009,
                    "velocity": 0.7874015748031497,
                    "duration": 0.0600000000000005
                },
                {
                    "name": "A3",
                    "midi": 57,
                    "time": 15.90000000000001,
                    "velocity": 0.7874015748031497,
                    "duration": 0.0600000000000005
                },
                {
                    "name": "G3",
                    "midi": 55,
                    "time": 15.96000000000001,
                    "velocity": 0.7874015748031497,
                    "duration": 0.0600000000000005
                },
                {
                    "name": "F3",
                    "midi": 53,
                    "time": 16.02000000000001,
                    "velocity": 0.7874015748031497,
                    "duration": 0.05999999999999872
                },
                {
                    "name": "A3",
                    "midi": 57,
                    "time": 16.08000000000001,
                    "velocity": 0.7874015748031497,
                    "duration": 0.17999999999999972
                },
                {
                    "name": "A3",
                    "midi": 57,
                    "time": 16.26000000000001,
                    "velocity": 0.7874015748031497,
                    "duration": 0.05999999999999872
                },
                {
                    "name": "B3",
                    "midi": 59,
                    "time": 16.320000000000007,
                    "velocity": 0.7874015748031497,
                    "duration": 0.05999999999999872
                },
                {
                    "name": "F3",
                    "midi": 53,
                    "time": 16.380000000000006,
                    "velocity": 0.7874015748031497,
                    "duration": 0.05999999999999872
                },
                {
                    "name": "E3",
                    "midi": 52,
                    "time": 16.440000000000005,
                    "velocity": 0.7874015748031497,
                    "duration": 0.05999999999999872
                },
                {
                    "name": "D3",
                    "midi": 50,
                    "time": 16.500000000000004,
                    "velocity": 0.7874015748031497,
                    "duration": 0.05999999999999872
                },
                {
                    "name": "E3",
                    "midi": 52,
                    "time": 16.560000000000002,
                    "velocity": 0.7874015748031497,
                    "duration": 0.05999999999999872
                },
                {
                    "name": "C#4",
                    "midi": 61,
                    "time": 16.62,
                    "velocity": 0.7874015748031497,
                    "duration": 0.05999999999999872
                },
                {
                    "name": "D4",
                    "midi": 62,
                    "time": 16.68,
                    "velocity": 0.7874015748031497,
                    "duration": 0.05999999999999872
                },
                {
                    "name": "C#4",
                    "midi": 61,
                    "time": 16.74,
                    "velocity": 0.7874015748031497,
                    "duration": 0.05999999999999872
                },
                {
                    "name": "D4",
                    "midi": 62,
                    "time": 16.799999999999997,
                    "velocity": 0.7874015748031497,
                    "duration": 0.17999999999999972
                },
                {
                    "name": "E4",
                    "midi": 64,
                    "time": 16.979999999999997,
                    "velocity": 0.7874015748031497,
                    "duration": 0.05999999999999872
                },
                {
                    "name": "F4",
                    "midi": 65,
                    "time": 17.039999999999996,
                    "velocity": 0.7874015748031497,
                    "duration": 0.05999999999999872
                },
                {
                    "name": "E4",
                    "midi": 64,
                    "time": 17.099999999999994,
                    "velocity": 0.7874015748031497,
                    "duration": 0.05999999999999872
                },
                {
                    "name": "D4",
                    "midi": 62,
                    "time": 17.159999999999993,
                    "velocity": 0.7874015748031497,
                    "duration": 0.05999999999999872
                },
                {
                    "name": "E4",
                    "midi": 64,
                    "time": 17.21999999999999,
                    "velocity": 0.7874015748031497,
                    "duration": 0.05999999999999872
                },
                {
                    "name": "D4",
                    "midi": 62,
                    "time": 17.27999999999999,
                    "velocity": 0.7874015748031497,
                    "duration": 0.05999999999999872
                },
                {
                    "name": "C4",
                    "midi": 60,
                    "time": 17.33999999999999,
                    "velocity": 0.7874015748031497,
                    "duration": 0.05999999999999872
                },
                {
                    "name": "B3",
                    "midi": 59,
                    "time": 17.399999999999988,
                    "velocity": 0.7874015748031497,
                    "duration": 0.05999999999999872
                },
                {
                    "name": "C4",
                    "midi": 60,
                    "time": 17.459999999999987,
                    "velocity": 0.7874015748031497,
                    "duration": 0.05999999999999872
                },
                {
                    "name": "B3",
                    "midi": 59,
                    "time": 17.519999999999985,
                    "velocity": 0.7874015748031497,
                    "duration": 0.05999999999999872
                },
                {
                    "name": "A3",
                    "midi": 57,
                    "time": 17.579999999999984,
                    "velocity": 0.7874015748031497,
                    "duration": 0.05999999999999872
                },
                {
                    "name": "G#3",
                    "midi": 56,
                    "time": 17.639999999999983,
                    "velocity": 0.7874015748031497,
                    "duration": 0.05999999999999872
                },
                {
                    "name": "A3",
                    "midi": 57,
                    "time": 17.69999999999998,
                    "velocity": 0.7874015748031497,
                    "duration": 0.05999999999999872
                },
                {
                    "name": "G#3",
                    "midi": 56,
                    "time": 17.75999999999998,
                    "velocity": 0.7874015748031497,
                    "duration": 0.120000000000001
                },
                {
                    "name": "F#3",
                    "midi": 54,
                    "time": 17.87999999999998,
                    "velocity": 0.7874015748031497,
                    "duration": 0.05999999999999872
                },
                {
                    "name": "E3",
                    "midi": 52,
                    "time": 17.93999999999998,
                    "velocity": 0.7874015748031497,
                    "duration": 0.05999999999999872
                },
                {
                    "name": "E4",
                    "midi": 64,
                    "time": 17.99999999999998,
                    "velocity": 0.7874015748031497,
                    "duration": 0.05999999999999872
                },
                {
                    "name": "C4",
                    "midi": 60,
                    "time": 18.059999999999977,
                    "velocity": 0.7874015748031497,
                    "duration": 0.05999999999999872
                },
                {
                    "name": "A3",
                    "midi": 57,
                    "time": 18.119999999999976,
                    "velocity": 0.7874015748031497,
                    "duration": 0.05999999999999872
                },
                {
                    "name": "G3",
                    "midi": 55,
                    "time": 18.179999999999975,
                    "velocity": 0.7874015748031497,
                    "duration": 0.05999999999999872
                },
                {
                    "name": "F3",
                    "midi": 53,
                    "time": 18.239999999999974,
                    "velocity": 0.7874015748031497,
                    "duration": 0.05999999999999872
                },
                {
                    "name": "A3",
                    "midi": 57,
                    "time": 18.299999999999972,
                    "velocity": 0.7874015748031497,
                    "duration": 0.05999999999999872
                },
                {
                    "name": "F3",
                    "midi": 53,
                    "time": 18.35999999999997,
                    "velocity": 0.7874015748031497,
                    "duration": 0.05999999999999872
                },
                {
                    "name": "D3",
                    "midi": 50,
                    "time": 18.41999999999997,
                    "velocity": 0.7874015748031497,
                    "duration": 0.05999999999999872
                },
                {
                    "name": "D3",
                    "midi": 50,
                    "time": 18.47999999999997,
                    "velocity": 0.7874015748031497,
                    "duration": 0.05999999999999872
                },
                {
                    "name": "F3",
                    "midi": 53,
                    "time": 18.539999999999967,
                    "velocity": 0.7874015748031497,
                    "duration": 0.05999999999999872
                },
                {
                    "name": "D3",
                    "midi": 50,
                    "time": 18.599999999999966,
                    "velocity": 0.7874015748031497,
                    "duration": 0.05999999999999872
                },
                {
                    "name": "B2",
                    "midi": 47,
                    "time": 18.659999999999965,
                    "velocity": 0.7874015748031497,
                    "duration": 0.05999999999999872
                },
                {
                    "name": "G#2",
                    "midi": 44,
                    "time": 18.719999999999963,
                    "velocity": 0.7874015748031497,
                    "duration": 0.05999999999999872
                },
                {
                    "name": "B2",
                    "midi": 47,
                    "time": 18.779999999999962,
                    "velocity": 0.7874015748031497,
                    "duration": 0.05999999999999872
                },
                {
                    "name": "E3",
                    "midi": 52,
                    "time": 18.83999999999996,
                    "velocity": 0.7874015748031497,
                    "duration": 0.05999999999999872
                },
                {
                    "name": "G#3",
                    "midi": 56,
                    "time": 18.89999999999996,
                    "velocity": 0.7874015748031497,
                    "duration": 0.05999999999999872
                },
                {
                    "name": "B3",
                    "midi": 59,
                    "time": 18.959999999999958,
                    "velocity": 0.7874015748031497,
                    "duration": 0.05999999999999872
                },
                {
                    "name": "D4",
                    "midi": 62,
                    "time": 19.019999999999957,
                    "velocity": 0.7874015748031497,
                    "duration": 0.05999999999999872
                },
                {
                    "name": "C4",
                    "midi": 60,
                    "time": 19.079999999999956,
                    "velocity": 0.7874015748031497,
                    "duration": 0.05999999999999872
                },
                {
                    "name": "B3",
                    "midi": 59,
                    "time": 19.139999999999954,
                    "velocity": 0.7874015748031497,
                    "duration": 0.05999999999999872
                },
                {
                    "name": "C4",
                    "midi": 60,
                    "time": 19.199999999999953,
                    "velocity": 0.7874015748031497,
                    "duration": 0.05999999999999872
                },
                {
                    "name": "A3",
                    "midi": 57,
                    "time": 19.259999999999952,
                    "velocity": 0.7874015748031497,
                    "duration": 0.05999999999999872
                },
                {
                    "name": "F3",
                    "midi": 53,
                    "time": 19.31999999999995,
                    "velocity": 0.7874015748031497,
                    "duration": 0.05999999999999872
                },
                {
                    "name": "E3",
                    "midi": 52,
                    "time": 19.37999999999995,
                    "velocity": 0.7874015748031497,
                    "duration": 0.05999999999999872
                },
                {
                    "name": "D3",
                    "midi": 50,
                    "time": 19.439999999999948,
                    "velocity": 0.7874015748031497,
                    "duration": 0.05999999999999872
                },
                {
                    "name": "F3",
                    "midi": 53,
                    "time": 19.499999999999947,
                    "velocity": 0.7874015748031497,
                    "duration": 0.05999999999999872
                },
                {
                    "name": "E3",
                    "midi": 52,
                    "time": 19.559999999999945,
                    "velocity": 0.7874015748031497,
                    "duration": 0.05999999999999872
                },
                {
                    "name": "D3",
                    "midi": 50,
                    "time": 19.619999999999944,
                    "velocity": 0.7874015748031497,
                    "duration": 0.05999999999999872
                },
                {
                    "name": "G#3",
                    "midi": 56,
                    "time": 19.679999999999943,
                    "velocity": 0.7874015748031497,
                    "duration": 0.17999999999999972
                },
                {
                    "name": "A3",
                    "midi": 57,
                    "time": 19.859999999999943,
                    "velocity": 0.7874015748031497,
                    "duration": 0.05999999999999872
                },
                {
                    "name": "B3",
                    "midi": 59,
                    "time": 19.91999999999994,
                    "velocity": 0.7874015748031497,
                    "duration": 0.05999999999999872
                },
                {
                    "name": "D4",
                    "midi": 62,
                    "time": 19.97999999999994,
                    "velocity": 0.7874015748031497,
                    "duration": 0.05999999999999872
                },
                {
                    "name": "E3",
                    "midi": 52,
                    "time": 20.03999999999994,
                    "velocity": 0.7874015748031497,
                    "duration": 0.05999999999999872
                },
                {
                    "name": "D3",
                    "midi": 50,
                    "time": 20.099999999999937,
                    "velocity": 0.7874015748031497,
                    "duration": 0.05999999999999872
                },
                {
                    "name": "C3",
                    "midi": 48,
                    "time": 20.159999999999936,
                    "velocity": 0.7874015748031497,
                    "duration": 0.05999999999999872
                },
                {
                    "name": "E3",
                    "midi": 52,
                    "time": 20.219999999999935,
                    "velocity": 0.7874015748031497,
                    "duration": 0.05999999999999872
                },
                {
                    "name": "A3",
                    "midi": 57,
                    "time": 20.279999999999934,
                    "velocity": 0.7874015748031497,
                    "duration": 0.05999999999999872
                },
                {
                    "name": "D4",
                    "midi": 62,
                    "time": 20.339999999999932,
                    "velocity": 0.7874015748031497,
                    "duration": 0.05999999999999872
                },
                {
                    "name": "B3",
                    "midi": 59,
                    "time": 20.39999999999993,
                    "velocity": 0.7874015748031497,
                    "duration": 0.17999999999999972
                },
                {
                    "name": "A3",
                    "midi": 57,
                    "time": 20.57999999999993,
                    "velocity": 0.7874015748031497,
                    "duration": 0.05999999999999872
                },
                {
                    "name": "A3",
                    "midi": 57,
                    "time": 20.63999999999993,
                    "velocity": 0.7874015748031497,
                    "duration": 0.120000000000001
                },
                {
                    "name": "D3",
                    "midi": 50,
                    "time": 21.11999999999993,
                    "velocity": 0.7874015748031497,
                    "duration": 0.05999999999999872
                },
                {
                    "name": "G#3",
                    "midi": 56,
                    "time": 21.17999999999993,
                    "velocity": 0.7874015748031497,
                    "duration": 0.05999999999999872
                },
                {
                    "name": "A3",
                    "midi": 57,
                    "time": 21.239999999999927,
                    "velocity": 0.7874015748031497,
                    "duration": 0.05999999999999872
                },
                {
                    "name": "B3",
                    "midi": 59,
                    "time": 21.299999999999926,
                    "velocity": 0.7874015748031497,
                    "duration": 0.05999999999999872
                },
                {
                    "name": "A3",
                    "midi": 57,
                    "time": 21.359999999999925,
                    "velocity": 0.7874015748031497,
                    "duration": 0.05999999999999872
                },
                {
                    "name": "G#3",
                    "midi": 56,
                    "time": 21.419999999999924,
                    "velocity": 0.7874015748031497,
                    "duration": 0.05999999999999872
                },
                {
                    "name": "F#3",
                    "midi": 54,
                    "time": 21.479999999999922,
                    "velocity": 0.7874015748031497,
                    "duration": 0.05999999999999872
                },
                {
                    "name": "E3",
                    "midi": 52,
                    "time": 21.53999999999992,
                    "velocity": 0.7874015748031497,
                    "duration": 0.05999999999999872
                },
                {
                    "name": "A3",
                    "midi": 57,
                    "time": 21.59999999999992,
                    "velocity": 0.7874015748031497,
                    "duration": 0.120000000000001
                },
                {
                    "name": "F3",
                    "midi": 53,
                    "time": 21.71999999999992,
                    "velocity": 0.7874015748031497,
                    "duration": 0.05999999999999872
                },
                {
                    "name": "E3",
                    "midi": 52,
                    "time": 21.77999999999992,
                    "velocity": 0.7874015748031497,
                    "duration": 0.05999999999999872
                },
                {
                    "name": "D3",
                    "midi": 50,
                    "time": 21.839999999999918,
                    "velocity": 0.7874015748031497,
                    "duration": 0.05999999999999872
                },
                {
                    "name": "C3",
                    "midi": 48,
                    "time": 21.899999999999917,
                    "velocity": 0.7874015748031497,
                    "duration": 0.05999999999999872
                },
                {
                    "name": "B2",
                    "midi": 47,
                    "time": 21.959999999999916,
                    "velocity": 0.7874015748031497,
                    "duration": 0.05999999999999872
                },
                {
                    "name": "A2",
                    "midi": 45,
                    "time": 22.019999999999914,
                    "velocity": 0.7874015748031497,
                    "duration": 0.05999999999999872
                },
                {
                    "name": "D3",
                    "midi": 50,
                    "time": 22.079999999999913,
                    "velocity": 0.7874015748031497,
                    "duration": 0.120000000000001
                },
                {
                    "name": "E3",
                    "midi": 52,
                    "time": 22.199999999999914,
                    "velocity": 0.7874015748031497,
                    "duration": 0.05999999999999872
                },
                {
                    "name": "F3",
                    "midi": 53,
                    "time": 22.259999999999913,
                    "velocity": 0.7874015748031497,
                    "duration": 0.05999999999999872
                },
                {
                    "name": "E3",
                    "midi": 52,
                    "time": 22.31999999999991,
                    "velocity": 0.7874015748031497,
                    "duration": 0.05999999999999872
                },
                {
                    "name": "D3",
                    "midi": 50,
                    "time": 22.37999999999991,
                    "velocity": 0.7874015748031497,
                    "duration": 0.05999999999999872
                },
                {
                    "name": "C3",
                    "midi": 48,
                    "time": 22.43999999999991,
                    "velocity": 0.7874015748031497,
                    "duration": 0.05999999999999872
                },
                {
                    "name": "B2",
                    "midi": 47,
                    "time": 22.499999999999908,
                    "velocity": 0.7874015748031497,
                    "duration": 0.05999999999999872
                },
                {
                    "name": "D4",
                    "midi": 62,
                    "time": 22.559999999999906,
                    "velocity": 0.7874015748031497,
                    "duration": 0.05999999999999872
                },
                {
                    "name": "B3",
                    "midi": 59,
                    "time": 22.619999999999905,
                    "velocity": 0.7874015748031497,
                    "duration": 0.05999999999999872
                },
                {
                    "name": "C4",
                    "midi": 60,
                    "time": 22.679999999999904,
                    "velocity": 0.7874015748031497,
                    "duration": 0.05999999999999872
                },
                {
                    "name": "A3",
                    "midi": 57,
                    "time": 22.739999999999903,
                    "velocity": 0.7874015748031497,
                    "duration": 0.05999999999999872
                },
                {
                    "name": "E3",
                    "midi": 52,
                    "time": 22.7999999999999,
                    "velocity": 0.7874015748031497,
                    "duration": 0.120000000000001
                },
                {
                    "name": "G#3",
                    "midi": 56,
                    "time": 22.919999999999902,
                    "velocity": 0.7874015748031497,
                    "duration": 0.120000000000001
                },
                {
                    "name": "A2",
                    "midi": 45,
                    "time": 23.039999999999903,
                    "velocity": 0.7874015748031497,
                    "duration": 0.17999999999999972
                },
                {
                    "name": "C#3",
                    "midi": 49,
                    "time": 23.219999999999903,
                    "velocity": 0.7874015748031497,
                    "duration": 0.05999999999999872
                },
                {
                    "name": "E3",
                    "midi": 52,
                    "time": 23.2799999999999,
                    "velocity": 0.7874015748031497,
                    "duration": 0.05999999999999872
                },
                {
                    "name": "G3",
                    "midi": 55,
                    "time": 23.3399999999999,
                    "velocity": 0.7874015748031497,
                    "duration": 0.05999999999999872
                },
                {
                    "name": "F3",
                    "midi": 53,
                    "time": 23.3999999999999,
                    "velocity": 0.7874015748031497,
                    "duration": 0.05999999999999872
                },
                {
                    "name": "E3",
                    "midi": 52,
                    "time": 23.459999999999898,
                    "velocity": 0.7874015748031497,
                    "duration": 0.05999999999999872
                },
                {
                    "name": "F3",
                    "midi": 53,
                    "time": 23.519999999999897,
                    "velocity": 0.7874015748031497,
                    "duration": 0.05999999999999872
                },
                {
                    "name": "A3",
                    "midi": 57,
                    "time": 23.579999999999895,
                    "velocity": 0.7874015748031497,
                    "duration": 0.05999999999999872
                },
                {
                    "name": "D4",
                    "midi": 62,
                    "time": 23.639999999999894,
                    "velocity": 0.7874015748031497,
                    "duration": 0.05999999999999872
                },
                {
                    "name": "G#3",
                    "midi": 56,
                    "time": 23.699999999999893,
                    "velocity": 0.7874015748031497,
                    "duration": 0.05999999999999872
                },
                {
                    "name": "A3",
                    "midi": 57,
                    "time": 23.75999999999989,
                    "velocity": 0.7874015748031497,
                    "duration": 0.17999999999999972
                },
                {
                    "name": "E3",
                    "midi": 52,
                    "time": 23.93999999999989,
                    "velocity": 0.7874015748031497,
                    "duration": 0.05999999999999872
                },
                {
                    "name": "E3",
                    "midi": 52,
                    "time": 23.99999999999989,
                    "velocity": 0.7874015748031497,
                    "duration": 0.17999999999999972
                },
                {
                    "name": "F3",
                    "midi": 53,
                    "time": 24.17999999999989,
                    "velocity": 0.7874015748031497,
                    "duration": 0.05999999999999872
                },
                {
                    "name": "G3",
                    "midi": 55,
                    "time": 24.23999999999989,
                    "velocity": 0.7874015748031497,
                    "duration": 0.05999999999999872
                },
                {
                    "name": "E3",
                    "midi": 52,
                    "time": 24.299999999999887,
                    "velocity": 0.7874015748031497,
                    "duration": 0.05999999999999872
                },
                {
                    "name": "F3",
                    "midi": 53,
                    "time": 24.359999999999886,
                    "velocity": 0.7874015748031497,
                    "duration": 0.05999999999999872
                },
                {
                    "name": "A3",
                    "midi": 57,
                    "time": 24.419999999999884,
                    "velocity": 0.7874015748031497,
                    "duration": 0.05999999999999872
                },
                {
                    "name": "C#3",
                    "midi": 49,
                    "time": 24.479999999999883,
                    "velocity": 0.7874015748031497,
                    "duration": 0.05999999999999872
                },
                {
                    "name": "D3",
                    "midi": 50,
                    "time": 24.539999999999882,
                    "velocity": 0.7874015748031497,
                    "duration": 0.05999999999999872
                },
                {
                    "name": "E3",
                    "midi": 52,
                    "time": 24.59999999999988,
                    "velocity": 0.7874015748031497,
                    "duration": 0.05999999999999872
                },
                {
                    "name": "A#2",
                    "midi": 46,
                    "time": 24.65999999999988,
                    "velocity": 0.7874015748031497,
                    "duration": 0.05999999999999872
                },
                {
                    "name": "A2",
                    "midi": 45,
                    "time": 24.719999999999878,
                    "velocity": 0.7874015748031497,
                    "duration": 0.17999999999999972
                },
                {
                    "name": "G2",
                    "midi": 43,
                    "time": 24.899999999999878,
                    "velocity": 0.7874015748031497,
                    "duration": 0.05999999999999872
                },
                {
                    "name": "F2",
                    "midi": 41,
                    "time": 24.959999999999877,
                    "velocity": 0.7874015748031497,
                    "duration": 0.05999999999999872
                },
                {
                    "name": "A3",
                    "midi": 57,
                    "time": 25.019999999999875,
                    "velocity": 0.7874015748031497,
                    "duration": 0.05999999999999872
                },
                {
                    "name": "F3",
                    "midi": 53,
                    "time": 25.079999999999874,
                    "velocity": 0.7874015748031497,
                    "duration": 0.05999999999999872
                },
                {
                    "name": "D3",
                    "midi": 50,
                    "time": 25.139999999999873,
                    "velocity": 0.7874015748031497,
                    "duration": 0.05999999999999872
                },
                {
                    "name": "G3",
                    "midi": 55,
                    "time": 25.19999999999987,
                    "velocity": 0.7874015748031497,
                    "duration": 0.05999999999999872
                },
                {
                    "name": "B2",
                    "midi": 47,
                    "time": 25.25999999999987,
                    "velocity": 0.7874015748031497,
                    "duration": 0.05999999999999872
                },
                {
                    "name": "C#3",
                    "midi": 49,
                    "time": 25.31999999999987,
                    "velocity": 0.7874015748031497,
                    "duration": 0.05999999999999872
                },
                {
                    "name": "A3",
                    "midi": 57,
                    "time": 25.379999999999868,
                    "velocity": 0.7874015748031497,
                    "duration": 0.05999999999999872
                },
                {
                    "name": "G3",
                    "midi": 55,
                    "time": 25.439999999999866,
                    "velocity": 0.7874015748031497,
                    "duration": 0.05999999999999872
                },
                {
                    "name": "F3",
                    "midi": 53,
                    "time": 25.499999999999865,
                    "velocity": 0.7874015748031497,
                    "duration": 0.05999999999999872
                },
                {
                    "name": "E3",
                    "midi": 52,
                    "time": 25.559999999999864,
                    "velocity": 0.7874015748031497,
                    "duration": 0.05999999999999872
                },
                {
                    "name": "D3",
                    "midi": 50,
                    "time": 25.619999999999862,
                    "velocity": 0.7874015748031497,
                    "duration": 0.05999999999999872
                },
                {
                    "name": "F#3",
                    "midi": 54,
                    "time": 25.67999999999986,
                    "velocity": 0.7874015748031497,
                    "duration": 0.05999999999999872
                },
                {
                    "name": "D3",
                    "midi": 50,
                    "time": 25.73999999999986,
                    "velocity": 0.7874015748031497,
                    "duration": 0.05999999999999872
                },
                {
                    "name": "D#3",
                    "midi": 51,
                    "time": 25.79999999999986,
                    "velocity": 0.7874015748031497,
                    "duration": 0.05999999999999872
                },
                {
                    "name": "C3",
                    "midi": 48,
                    "time": 25.859999999999857,
                    "velocity": 0.7874015748031497,
                    "duration": 0.05999999999999872
                },
                {
                    "name": "A#2",
                    "midi": 46,
                    "time": 25.919999999999856,
                    "velocity": 0.7874015748031497,
                    "duration": 0.05999999999999872
                },
                {
                    "name": "G3",
                    "midi": 55,
                    "time": 25.979999999999855,
                    "velocity": 0.7874015748031497,
                    "duration": 0.05999999999999872
                },
                {
                    "name": "A2",
                    "midi": 45,
                    "time": 26.039999999999853,
                    "velocity": 0.7874015748031497,
                    "duration": 0.05999999999999872
                },
                {
                    "name": "G2",
                    "midi": 43,
                    "time": 26.099999999999852,
                    "velocity": 0.7874015748031497,
                    "duration": 0.05999999999999872
                },
                {
                    "name": "F#2",
                    "midi": 42,
                    "time": 26.15999999999985,
                    "velocity": 0.7874015748031497,
                    "duration": 0.05999999999999872
                },
                {
                    "name": "A2",
                    "midi": 45,
                    "time": 26.21999999999985,
                    "velocity": 0.7874015748031497,
                    "duration": 0.05999999999999872
                },
                {
                    "name": "D3",
                    "midi": 50,
                    "time": 26.27999999999985,
                    "velocity": 0.7874015748031497,
                    "duration": 0.05999999999999872
                },
                {
                    "name": "C4",
                    "midi": 60,
                    "time": 26.339999999999847,
                    "velocity": 0.7874015748031497,
                    "duration": 0.05999999999999872
                },
                {
                    "name": "A#3",
                    "midi": 58,
                    "time": 26.399999999999846,
                    "velocity": 0.7874015748031497,
                    "duration": 0.05999999999999872
                },
                {
                    "name": "F#3",
                    "midi": 54,
                    "time": 26.459999999999845,
                    "velocity": 0.7874015748031497,
                    "duration": 0.05999999999999872
                },
                {
                    "name": "G3",
                    "midi": 55,
                    "time": 26.519999999999843,
                    "velocity": 0.7874015748031497,
                    "duration": 0.05999999999999872
                },
                {
                    "name": "A#3",
                    "midi": 58,
                    "time": 26.579999999999842,
                    "velocity": 0.7874015748031497,
                    "duration": 0.05999999999999872
                },
                {
                    "name": "D4",
                    "midi": 62,
                    "time": 26.63999999999984,
                    "velocity": 0.7874015748031497,
                    "duration": 0.05999999999999872
                },
                {
                    "name": "A3",
                    "midi": 57,
                    "time": 26.69999999999984,
                    "velocity": 0.7874015748031497,
                    "duration": 0.05999999999999872
                },
                {
                    "name": "A#3",
                    "midi": 58,
                    "time": 26.759999999999838,
                    "velocity": 0.7874015748031497,
                    "duration": 0.05999999999999872
                },
                {
                    "name": "G3",
                    "midi": 55,
                    "time": 26.819999999999837,
                    "velocity": 0.7874015748031497,
                    "duration": 0.05999999999999872
                },
                {
                    "name": "D#3",
                    "midi": 51,
                    "time": 26.879999999999836,
                    "velocity": 0.7874015748031497,
                    "duration": 0.05999999999999872
                },
                {
                    "name": "D3",
                    "midi": 50,
                    "time": 26.939999999999834,
                    "velocity": 0.7874015748031497,
                    "duration": 0.05999999999999872
                },
                {
                    "name": "D#3",
                    "midi": 51,
                    "time": 26.999999999999833,
                    "velocity": 0.7874015748031497,
                    "duration": 0.05999999999999872
                },
                {
                    "name": "G3",
                    "midi": 55,
                    "time": 27.05999999999983,
                    "velocity": 0.7874015748031497,
                    "duration": 0.05999999999999872
                },
                {
                    "name": "C4",
                    "midi": 60,
                    "time": 27.11999999999983,
                    "velocity": 0.7874015748031497,
                    "duration": 0.05999999999999872
                },
                {
                    "name": "A3",
                    "midi": 57,
                    "time": 27.17999999999983,
                    "velocity": 0.7874015748031497,
                    "duration": 0.05999999999999872
                },
                {
                    "name": "A#3",
                    "midi": 58,
                    "time": 27.239999999999828,
                    "velocity": 0.7874015748031497,
                    "duration": 0.05999999999999872
                },
                {
                    "name": "G3",
                    "midi": 55,
                    "time": 27.299999999999827,
                    "velocity": 0.7874015748031497,
                    "duration": 0.05999999999999872
                },
                {
                    "name": "D3",
                    "midi": 50,
                    "time": 27.359999999999825,
                    "velocity": 0.7874015748031497,
                    "duration": 0.05999999999999872
                },
                {
                    "name": "C3",
                    "midi": 48,
                    "time": 27.419999999999824,
                    "velocity": 0.7874015748031497,
                    "duration": 0.05999999999999872
                },
                {
                    "name": "D3",
                    "midi": 50,
                    "time": 27.479999999999823,
                    "velocity": 0.7874015748031497,
                    "duration": 0.05999999999999872
                },
                {
                    "name": "G3",
                    "midi": 55,
                    "time": 27.53999999999982,
                    "velocity": 0.7874015748031497,
                    "duration": 0.05999999999999872
                },
                {
                    "name": "A#3",
                    "midi": 58,
                    "time": 27.59999999999982,
                    "velocity": 0.7874015748031497,
                    "duration": 0.05999999999999872
                },
                {
                    "name": "F#3",
                    "midi": 54,
                    "time": 27.65999999999982,
                    "velocity": 0.7874015748031497,
                    "duration": 0.05999999999999872
                },
                {
                    "name": "G3",
                    "midi": 55,
                    "time": 27.719999999999818,
                    "velocity": 0.7874015748031497,
                    "duration": 0.05999999999999872
                },
                {
                    "name": "D#3",
                    "midi": 51,
                    "time": 27.779999999999816,
                    "velocity": 0.7874015748031497,
                    "duration": 0.05999999999999872
                },
                {
                    "name": "C3",
                    "midi": 48,
                    "time": 27.839999999999815,
                    "velocity": 0.7874015748031497,
                    "duration": 0.05999999999999872
                },
                {
                    "name": "A#2",
                    "midi": 46,
                    "time": 27.899999999999814,
                    "velocity": 0.7874015748031497,
                    "duration": 0.05999999999999872
                },
                {
                    "name": "C3",
                    "midi": 48,
                    "time": 27.959999999999813,
                    "velocity": 0.7874015748031497,
                    "duration": 0.05999999999999872
                },
                {
                    "name": "A#3",
                    "midi": 58,
                    "time": 28.01999999999981,
                    "velocity": 0.7874015748031497,
                    "duration": 0.05999999999999872
                },
                {
                    "name": "A3",
                    "midi": 57,
                    "time": 28.07999999999981,
                    "velocity": 0.7874015748031497,
                    "duration": 0.05999999999999872
                },
                {
                    "name": "C4",
                    "midi": 60,
                    "time": 28.13999999999981,
                    "velocity": 0.7874015748031497,
                    "duration": 0.05999999999999872
                },
                {
                    "name": "D#4",
                    "midi": 63,
                    "time": 28.199999999999807,
                    "velocity": 0.7874015748031497,
                    "duration": 0.05999999999999872
                },
                {
                    "name": "G3",
                    "midi": 55,
                    "time": 28.259999999999806,
                    "velocity": 0.7874015748031497,
                    "duration": 0.05999999999999872
                },
                {
                    "name": "F#3",
                    "midi": 54,
                    "time": 28.319999999999805,
                    "velocity": 0.7874015748031497,
                    "duration": 0.11999999999999744
                },
                {
                    "name": "G3",
                    "midi": 55,
                    "time": 28.439999999999802,
                    "velocity": 0.7874015748031497,
                    "duration": 0.05999999999999872
                },
                {
                    "name": "A3",
                    "midi": 57,
                    "time": 28.4999999999998,
                    "velocity": 0.7874015748031497,
                    "duration": 0.05999999999999872
                },
                {
                    "name": "D3",
                    "midi": 50,
                    "time": 28.5599999999998,
                    "velocity": 0.7874015748031497,
                    "duration": 0.120000000000001
                },
                {
                    "name": "D#3",
                    "midi": 51,
                    "time": 28.6799999999998,
                    "velocity": 0.7874015748031497,
                    "duration": 0.05999999999999872
                },
                {
                    "name": "C3",
                    "midi": 48,
                    "time": 28.7399999999998,
                    "velocity": 0.7874015748031497,
                    "duration": 0.05999999999999872
                },
                {
                    "name": "A#2",
                    "midi": 46,
                    "time": 28.799999999999798,
                    "velocity": 0.7874015748031497,
                    "duration": 0.05999999999999872
                },
                {
                    "name": "D3",
                    "midi": 50,
                    "time": 28.859999999999797,
                    "velocity": 0.7874015748031497,
                    "duration": 0.05999999999999872
                },
                {
                    "name": "G3",
                    "midi": 55,
                    "time": 28.919999999999796,
                    "velocity": 0.7874015748031497,
                    "duration": 0.05999999999999872
                },
                {
                    "name": "A#2",
                    "midi": 46,
                    "time": 28.979999999999794,
                    "velocity": 0.7874015748031497,
                    "duration": 0.05999999999999872
                },
                {
                    "name": "D2",
                    "midi": 38,
                    "time": 29.039999999999793,
                    "velocity": 0.7874015748031497,
                    "duration": 0.120000000000001
                },
                {
                    "name": "F#3",
                    "midi": 54,
                    "time": 29.159999999999794,
                    "velocity": 0.7874015748031497,
                    "duration": 0.120000000000001
                },
                {
                    "name": "G3",
                    "midi": 55,
                    "time": 29.279999999999795,
                    "velocity": 0.7874015748031497,
                    "duration": 0.17999999999999972
                },
                {
                    "name": "A3",
                    "midi": 57,
                    "time": 29.459999999999795,
                    "velocity": 0.7874015748031497,
                    "duration": 0.05999999999999872
                },
                {
                    "name": "A#3",
                    "midi": 58,
                    "time": 29.519999999999794,
                    "velocity": 0.7874015748031497,
                    "duration": 0.05999999999999872
                },
                {
                    "name": "D4",
                    "midi": 62,
                    "time": 29.579999999999792,
                    "velocity": 0.7874015748031497,
                    "duration": 0.05999999999999872
                },
                {
                    "name": "G3",
                    "midi": 55,
                    "time": 29.63999999999979,
                    "velocity": 0.7874015748031497,
                    "duration": 0.05999999999999872
                },
                {
                    "name": "F3",
                    "midi": 53,
                    "time": 29.69999999999979,
                    "velocity": 0.7874015748031497,
                    "duration": 0.05999999999999872
                },
                {
                    "name": "E3",
                    "midi": 52,
                    "time": 29.75999999999979,
                    "velocity": 0.7874015748031497,
                    "duration": 0.17999999999999972
                },
                {
                    "name": "F3",
                    "midi": 53,
                    "time": 29.939999999999788,
                    "velocity": 0.7874015748031497,
                    "duration": 0.05999999999999872
                },
                {
                    "name": "G3",
                    "midi": 55,
                    "time": 29.999999999999787,
                    "velocity": 0.7874015748031497,
                    "duration": 0.05999999999999872
                },
                {
                    "name": "E3",
                    "midi": 52,
                    "time": 30.059999999999786,
                    "velocity": 0.7874015748031497,
                    "duration": 0.05999999999999872
                },
                {
                    "name": "C3",
                    "midi": 48,
                    "time": 30.119999999999784,
                    "velocity": 0.7874015748031497,
                    "duration": 0.05999999999999872
                },
                {
                    "name": "A#2",
                    "midi": 46,
                    "time": 30.179999999999783,
                    "velocity": 0.7874015748031497,
                    "duration": 0.05999999999999872
                },
                {
                    "name": "A2",
                    "midi": 45,
                    "time": 30.23999999999978,
                    "velocity": 0.7874015748031497,
                    "duration": 0.05999999999999872
                },
                {
                    "name": "F3",
                    "midi": 53,
                    "time": 30.29999999999978,
                    "velocity": 0.7874015748031497,
                    "duration": 0.05999999999999872
                },
                {
                    "name": "G2",
                    "midi": 43,
                    "time": 30.35999999999978,
                    "velocity": 0.7874015748031497,
                    "duration": 0.05999999999999872
                },
                {
                    "name": "F2",
                    "midi": 41,
                    "time": 30.419999999999778,
                    "velocity": 0.7874015748031497,
                    "duration": 0.05999999999999872
                },
                {
                    "name": "E2",
                    "midi": 40,
                    "time": 30.479999999999777,
                    "velocity": 0.7874015748031497,
                    "duration": 0.05999999999999872
                },
                {
                    "name": "G3",
                    "midi": 55,
                    "time": 30.539999999999775,
                    "velocity": 0.7874015748031497,
                    "duration": 0.05999999999999872
                },
                {
                    "name": "A3",
                    "midi": 57,
                    "time": 30.599999999999774,
                    "velocity": 0.7874015748031497,
                    "duration": 0.05999999999999872
                },
                {
                    "name": "A#3",
                    "midi": 58,
                    "time": 30.659999999999773,
                    "velocity": 0.7874015748031497,
                    "duration": 0.05999999999999872
                },
                {
                    "name": "A#3",
                    "midi": 58,
                    "time": 30.71999999999977,
                    "velocity": 0.7874015748031497,
                    "duration": 0.05999999999999872
                },
                {
                    "name": "A3",
                    "midi": 57,
                    "time": 30.77999999999977,
                    "velocity": 0.7874015748031497,
                    "duration": 0.05999999999999872
                },
                {
                    "name": "G3",
                    "midi": 55,
                    "time": 30.83999999999977,
                    "velocity": 0.7874015748031497,
                    "duration": 0.05999999999999872
                },
                {
                    "name": "F3",
                    "midi": 53,
                    "time": 30.899999999999768,
                    "velocity": 0.7874015748031497,
                    "duration": 0.05999999999999872
                },
                {
                    "name": "A3",
                    "midi": 57,
                    "time": 30.959999999999766,
                    "velocity": 0.7874015748031497,
                    "duration": 0.05999999999999872
                },
                {
                    "name": "E3",
                    "midi": 52,
                    "time": 31.019999999999765,
                    "velocity": 0.7874015748031497,
                    "duration": 0.05999999999999872
                },
                {
                    "name": "F3",
                    "midi": 53,
                    "time": 31.079999999999764,
                    "velocity": 0.7874015748031497,
                    "duration": 0.05999999999999872
                },
                {
                    "name": "D3",
                    "midi": 50,
                    "time": 31.139999999999763,
                    "velocity": 0.7874015748031497,
                    "duration": 0.05999999999999872
                },
                {
                    "name": "A#2",
                    "midi": 46,
                    "time": 31.19999999999976,
                    "velocity": 0.7874015748031497,
                    "duration": 0.05999999999999872
                },
                {
                    "name": "D3",
                    "midi": 50,
                    "time": 31.25999999999976,
                    "velocity": 0.7874015748031497,
                    "duration": 0.05999999999999872
                },
                {
                    "name": "F3",
                    "midi": 53,
                    "time": 31.31999999999976,
                    "velocity": 0.7874015748031497,
                    "duration": 0.05999999999999872
                },
                {
                    "name": "A3",
                    "midi": 57,
                    "time": 31.379999999999757,
                    "velocity": 0.7874015748031497,
                    "duration": 0.05999999999999872
                },
                {
                    "name": "D4",
                    "midi": 62,
                    "time": 31.439999999999756,
                    "velocity": 0.7874015748031497,
                    "duration": 0.05999999999999872
                },
                {
                    "name": "A3",
                    "midi": 57,
                    "time": 31.499999999999755,
                    "velocity": 0.7874015748031497,
                    "duration": 0.05999999999999872
                },
                {
                    "name": "A#3",
                    "midi": 58,
                    "time": 31.559999999999754,
                    "velocity": 0.7874015748031497,
                    "duration": 0.05999999999999872
                },
                {
                    "name": "G3",
                    "midi": 55,
                    "time": 31.619999999999752,
                    "velocity": 0.7874015748031497,
                    "duration": 0.05999999999999872
                },
                {
                    "name": "A2",
                    "midi": 45,
                    "time": 31.67999999999975,
                    "velocity": 0.7874015748031497,
                    "duration": 0.05999999999999872
                },
                {
                    "name": "G3",
                    "midi": 55,
                    "time": 31.73999999999975,
                    "velocity": 0.7874015748031497,
                    "duration": 0.05999999999999872
                },
                {
                    "name": "C#4",
                    "midi": 61,
                    "time": 31.79999999999975,
                    "velocity": 0.7874015748031497,
                    "duration": 0.05999999999999872
                },
                {
                    "name": "D4",
                    "midi": 62,
                    "time": 31.859999999999747,
                    "velocity": 0.7874015748031497,
                    "duration": 0.05999999999999872
                },
                {
                    "name": "E4",
                    "midi": 64,
                    "time": 31.919999999999746,
                    "velocity": 0.7874015748031497,
                    "duration": 0.05999999999999872
                },
                {
                    "name": "G3",
                    "midi": 55,
                    "time": 31.979999999999745,
                    "velocity": 0.7874015748031497,
                    "duration": 0.05999999999999872
                },
                {
                    "name": "A3",
                    "midi": 57,
                    "time": 32.03999999999974,
                    "velocity": 0.7874015748031497,
                    "duration": 0.060000000000002274
                },
                {
                    "name": "E3",
                    "midi": 52,
                    "time": 32.099999999999746,
                    "velocity": 0.7874015748031497,
                    "duration": 0.060000000000002274
                },
                {
                    "name": "F3",
                    "midi": 53,
                    "time": 32.15999999999975,
                    "velocity": 0.7874015748031497,
                    "duration": 0.060000000000002274
                },
                {
                    "name": "D3",
                    "midi": 50,
                    "time": 32.21999999999975,
                    "velocity": 0.7874015748031497,
                    "duration": 0.060000000000002274
                },
                {
                    "name": "A#2",
                    "midi": 46,
                    "time": 32.27999999999975,
                    "velocity": 0.7874015748031497,
                    "duration": 0.060000000000002274
                },
                {
                    "name": "D3",
                    "midi": 50,
                    "time": 32.339999999999755,
                    "velocity": 0.7874015748031497,
                    "duration": 0.060000000000002274
                },
                {
                    "name": "G#2",
                    "midi": 44,
                    "time": 32.39999999999976,
                    "velocity": 0.7874015748031497,
                    "duration": 0.060000000000002274
                },
                {
                    "name": "F3",
                    "midi": 53,
                    "time": 32.45999999999976,
                    "velocity": 0.7874015748031497,
                    "duration": 0.060000000000002274
                },
                {
                    "name": "E3",
                    "midi": 52,
                    "time": 32.51999999999976,
                    "velocity": 0.7874015748031497,
                    "duration": 0.060000000000002274
                },
                {
                    "name": "D3",
                    "midi": 50,
                    "time": 32.579999999999764,
                    "velocity": 0.7874015748031497,
                    "duration": 0.060000000000002274
                },
                {
                    "name": "D3",
                    "midi": 50,
                    "time": 32.639999999999766,
                    "velocity": 0.7874015748031497,
                    "duration": 0.060000000000002274
                },
                {
                    "name": "C#3",
                    "midi": 49,
                    "time": 32.69999999999977,
                    "velocity": 0.7874015748031497,
                    "duration": 0.060000000000002274
                },
                {
                    "name": "B2",
                    "midi": 47,
                    "time": 32.75999999999977,
                    "velocity": 0.7874015748031497,
                    "duration": 0.060000000000002274
                },
                {
                    "name": "A2",
                    "midi": 45,
                    "time": 32.81999999999977,
                    "velocity": 0.7874015748031497,
                    "duration": 0.060000000000002274
                },
                {
                    "name": "C3",
                    "midi": 48,
                    "time": 32.879999999999775,
                    "velocity": 0.7874015748031497,
                    "duration": 0.060000000000002274
                },
                {
                    "name": "A2",
                    "midi": 45,
                    "time": 32.93999999999978,
                    "velocity": 0.7874015748031497,
                    "duration": 0.060000000000002274
                },
                {
                    "name": "F#2",
                    "midi": 42,
                    "time": 32.99999999999978,
                    "velocity": 0.7874015748031497,
                    "duration": 0.060000000000002274
                },
                {
                    "name": "D3",
                    "midi": 50,
                    "time": 33.05999999999978,
                    "velocity": 0.7874015748031497,
                    "duration": 0.060000000000002274
                },
                {
                    "name": "C3",
                    "midi": 48,
                    "time": 33.119999999999784,
                    "velocity": 0.7874015748031497,
                    "duration": 0.060000000000002274
                },
                {
                    "name": "A2",
                    "midi": 45,
                    "time": 33.17999999999979,
                    "velocity": 0.7874015748031497,
                    "duration": 0.060000000000002274
                },
                {
                    "name": "B2",
                    "midi": 47,
                    "time": 33.23999999999979,
                    "velocity": 0.7874015748031497,
                    "duration": 0.060000000000002274
                },
                {
                    "name": "D3",
                    "midi": 50,
                    "time": 33.29999999999979,
                    "velocity": 0.7874015748031497,
                    "duration": 0.060000000000002274
                },
                {
                    "name": "F3",
                    "midi": 53,
                    "time": 33.35999999999979,
                    "velocity": 0.7874015748031497,
                    "duration": 0.060000000000002274
                },
                {
                    "name": "D3",
                    "midi": 50,
                    "time": 33.419999999999796,
                    "velocity": 0.7874015748031497,
                    "duration": 0.060000000000002274
                },
                {
                    "name": "G#2",
                    "midi": 44,
                    "time": 33.4799999999998,
                    "velocity": 0.7874015748031497,
                    "duration": 0.060000000000002274
                },
                {
                    "name": "D3",
                    "midi": 50,
                    "time": 33.5399999999998,
                    "velocity": 0.7874015748031497,
                    "duration": 0.060000000000002274
                },
                {
                    "name": "C#3",
                    "midi": 49,
                    "time": 33.5999999999998,
                    "velocity": 0.7874015748031497,
                    "duration": 0.060000000000002274
                },
                {
                    "name": "E3",
                    "midi": 52,
                    "time": 33.659999999999805,
                    "velocity": 0.7874015748031497,
                    "duration": 0.060000000000002274
                },
                {
                    "name": "G3",
                    "midi": 55,
                    "time": 33.71999999999981,
                    "velocity": 0.7874015748031497,
                    "duration": 0.060000000000002274
                },
                {
                    "name": "A#3",
                    "midi": 58,
                    "time": 33.77999999999981,
                    "velocity": 0.7874015748031497,
                    "duration": 0.060000000000002274
                },
                {
                    "name": "E4",
                    "midi": 64,
                    "time": 33.83999999999981,
                    "velocity": 0.7874015748031497,
                    "duration": 0.060000000000002274
                },
                {
                    "name": "A3",
                    "midi": 57,
                    "time": 33.899999999999814,
                    "velocity": 0.7874015748031497,
                    "duration": 0.060000000000002274
                },
                {
                    "name": "A#3",
                    "midi": 58,
                    "time": 33.959999999999816,
                    "velocity": 0.7874015748031497,
                    "duration": 0.060000000000002274
                },
                {
                    "name": "G3",
                    "midi": 55,
                    "time": 34.01999999999982,
                    "velocity": 0.7874015748031497,
                    "duration": 0.060000000000002274
                },
                {
                    "name": "F3",
                    "midi": 53,
                    "time": 34.07999999999982,
                    "velocity": 0.7874015748031497,
                    "duration": 0.060000000000002274
                },
                {
                    "name": "C#3",
                    "midi": 49,
                    "time": 34.13999999999982,
                    "velocity": 0.7874015748031497,
                    "duration": 0.060000000000002274
                },
                {
                    "name": "D3",
                    "midi": 50,
                    "time": 34.199999999999825,
                    "velocity": 0.7874015748031497,
                    "duration": 0.060000000000002274
                },
                {
                    "name": "G#2",
                    "midi": 44,
                    "time": 34.25999999999983,
                    "velocity": 0.7874015748031497,
                    "duration": 0.060000000000002274
                },
                {
                    "name": "A2",
                    "midi": 45,
                    "time": 34.31999999999983,
                    "velocity": 0.7874015748031497,
                    "duration": 0.11999999999999744
                },
                {
                    "name": "C#3",
                    "midi": 49,
                    "time": 34.43999999999983,
                    "velocity": 0.7874015748031497,
                    "duration": 0.11999999999999744
                },
                {
                    "name": "D2",
                    "midi": 38,
                    "time": 34.559999999999825,
                    "velocity": 0.7874015748031497,
                    "duration": 0.060000000000002274
                },
                {
                    "name": "D4",
                    "midi": 62,
                    "time": 34.61999999999983,
                    "velocity": 0.7874015748031497,
                    "duration": 0.060000000000002274
                },
                {
                    "name": "C4",
                    "midi": 60,
                    "time": 34.67999999999983,
                    "velocity": 0.7874015748031497,
                    "duration": 0.060000000000002274
                },
                {
                    "name": "A3",
                    "midi": 57,
                    "time": 34.73999999999983,
                    "velocity": 0.7874015748031497,
                    "duration": 0.060000000000002274
                },
                {
                    "name": "A#3",
                    "midi": 58,
                    "time": 34.799999999999834,
                    "velocity": 0.7874015748031497,
                    "duration": 0.060000000000002274
                },
                {
                    "name": "G3",
                    "midi": 55,
                    "time": 34.859999999999836,
                    "velocity": 0.7874015748031497,
                    "duration": 0.060000000000002274
                },
                {
                    "name": "E3",
                    "midi": 52,
                    "time": 34.91999999999984,
                    "velocity": 0.7874015748031497,
                    "duration": 0.060000000000002274
                },
                {
                    "name": "C#4",
                    "midi": 61,
                    "time": 34.97999999999984,
                    "velocity": 0.7874015748031497,
                    "duration": 0.060000000000002274
                },
                {
                    "name": "D4",
                    "midi": 62,
                    "time": 35.03999999999984,
                    "velocity": 0.7874015748031497,
                    "duration": 0.060000000000002274
                },
                {
                    "name": "A3",
                    "midi": 57,
                    "time": 35.099999999999845,
                    "velocity": 0.7874015748031497,
                    "duration": 0.060000000000002274
                },
                {
                    "name": "F3",
                    "midi": 53,
                    "time": 35.15999999999985,
                    "velocity": 0.7874015748031497,
                    "duration": 0.060000000000002274
                },
                {
                    "name": "D3",
                    "midi": 50,
                    "time": 35.21999999999985,
                    "velocity": 0.7874015748031497,
                    "duration": 0.060000000000002274
                },
                {
                    "name": "D2",
                    "midi": 38,
                    "time": 35.27999999999985,
                    "velocity": 0.7874015748031497,
                    "duration": 0.17999999999999972
                },
                {
                    "name": "E3",
                    "midi": 52,
                    "time": 35.45999999999985,
                    "velocity": 0.7874015748031497,
                    "duration": 0.060000000000002274
                },
                {
                    "name": "E3",
                    "midi": 52,
                    "time": 35.519999999999854,
                    "velocity": 0.7874015748031497,
                    "duration": 0.17999999999999972
                },
                {
                    "name": "F3",
                    "midi": 53,
                    "time": 35.699999999999854,
                    "velocity": 0.7874015748031497,
                    "duration": 0.060000000000002274
                },
                {
                    "name": "G3",
                    "midi": 55,
                    "time": 35.759999999999856,
                    "velocity": 0.7874015748031497,
                    "duration": 0.060000000000002274
                },
                {
                    "name": "E3",
                    "midi": 52,
                    "time": 35.81999999999986,
                    "velocity": 0.7874015748031497,
                    "duration": 0.060000000000002274
                },
                {
                    "name": "F3",
                    "midi": 53,
                    "time": 35.87999999999986,
                    "velocity": 0.7874015748031497,
                    "duration": 0.060000000000002274
                },
                {
                    "name": "A3",
                    "midi": 57,
                    "time": 35.93999999999986,
                    "velocity": 0.7874015748031497,
                    "duration": 0.060000000000002274
                },
                {
                    "name": "C#3",
                    "midi": 49,
                    "time": 35.999999999999865,
                    "velocity": 0.7874015748031497,
                    "duration": 0.060000000000002274
                },
                {
                    "name": "D3",
                    "midi": 50,
                    "time": 36.05999999999987,
                    "velocity": 0.7874015748031497,
                    "duration": 0.060000000000002274
                },
                {
                    "name": "E3",
                    "midi": 52,
                    "time": 36.11999999999987,
                    "velocity": 0.7874015748031497,
                    "duration": 0.060000000000002274
                },
                {
                    "name": "A#2",
                    "midi": 46,
                    "time": 36.17999999999987,
                    "velocity": 0.7874015748031497,
                    "duration": 0.060000000000002274
                },
                {
                    "name": "A2",
                    "midi": 45,
                    "time": 36.239999999999874,
                    "velocity": 0.7874015748031497,
                    "duration": 0.18000000000000682
                },
                {
                    "name": "G2",
                    "midi": 43,
                    "time": 36.41999999999988,
                    "velocity": 0.7874015748031497,
                    "duration": 0.060000000000002274
                },
                {
                    "name": "F2",
                    "midi": 41,
                    "time": 36.47999999999988,
                    "velocity": 0.7874015748031497,
                    "duration": 0.060000000000002274
                },
                {
                    "name": "A3",
                    "midi": 57,
                    "time": 36.539999999999885,
                    "velocity": 0.7874015748031497,
                    "duration": 0.060000000000002274
                },
                {
                    "name": "F3",
                    "midi": 53,
                    "time": 36.59999999999989,
                    "velocity": 0.7874015748031497,
                    "duration": 0.060000000000002274
                },
                {
                    "name": "D3",
                    "midi": 50,
                    "time": 36.65999999999989,
                    "velocity": 0.7874015748031497,
                    "duration": 0.060000000000002274
                },
                {
                    "name": "G3",
                    "midi": 55,
                    "time": 36.71999999999989,
                    "velocity": 0.7874015748031497,
                    "duration": 0.060000000000002274
                },
                {
                    "name": "B2",
                    "midi": 47,
                    "time": 36.779999999999895,
                    "velocity": 0.7874015748031497,
                    "duration": 0.060000000000002274
                },
                {
                    "name": "C#3",
                    "midi": 49,
                    "time": 36.8399999999999,
                    "velocity": 0.7874015748031497,
                    "duration": 0.060000000000002274
                },
                {
                    "name": "A3",
                    "midi": 57,
                    "time": 36.8999999999999,
                    "velocity": 0.7874015748031497,
                    "duration": 0.060000000000002274
                },
                {
                    "name": "G3",
                    "midi": 55,
                    "time": 36.9599999999999,
                    "velocity": 0.7874015748031497,
                    "duration": 0.060000000000002274
                },
                {
                    "name": "F3",
                    "midi": 53,
                    "time": 37.019999999999904,
                    "velocity": 0.7874015748031497,
                    "duration": 0.060000000000002274
                },
                {
                    "name": "E3",
                    "midi": 52,
                    "time": 37.079999999999906,
                    "velocity": 0.7874015748031497,
                    "duration": 0.060000000000002274
                },
                {
                    "name": "D3",
                    "midi": 50,
                    "time": 37.13999999999991,
                    "velocity": 0.7874015748031497,
                    "duration": 0.060000000000002274
                },
                {
                    "name": "F#3",
                    "midi": 54,
                    "time": 37.19999999999991,
                    "velocity": 0.7874015748031497,
                    "duration": 0.060000000000002274
                },
                {
                    "name": "D3",
                    "midi": 50,
                    "time": 37.25999999999991,
                    "velocity": 0.7874015748031497,
                    "duration": 0.060000000000002274
                },
                {
                    "name": "D#3",
                    "midi": 51,
                    "time": 37.319999999999915,
                    "velocity": 0.7874015748031497,
                    "duration": 0.060000000000002274
                },
                {
                    "name": "C3",
                    "midi": 48,
                    "time": 37.37999999999992,
                    "velocity": 0.7874015748031497,
                    "duration": 0.060000000000002274
                },
                {
                    "name": "A#2",
                    "midi": 46,
                    "time": 37.43999999999992,
                    "velocity": 0.7874015748031497,
                    "duration": 0.060000000000002274
                },
                {
                    "name": "G3",
                    "midi": 55,
                    "time": 37.49999999999992,
                    "velocity": 0.7874015748031497,
                    "duration": 0.060000000000002274
                },
                {
                    "name": "A2",
                    "midi": 45,
                    "time": 37.559999999999924,
                    "velocity": 0.7874015748031497,
                    "duration": 0.060000000000002274
                },
                {
                    "name": "G2",
                    "midi": 43,
                    "time": 37.619999999999926,
                    "velocity": 0.7874015748031497,
                    "duration": 0.060000000000002274
                },
                {
                    "name": "F#2",
                    "midi": 42,
                    "time": 37.67999999999993,
                    "velocity": 0.7874015748031497,
                    "duration": 0.060000000000002274
                },
                {
                    "name": "A2",
                    "midi": 45,
                    "time": 37.73999999999993,
                    "velocity": 0.7874015748031497,
                    "duration": 0.060000000000002274
                },
                {
                    "name": "D3",
                    "midi": 50,
                    "time": 37.79999999999993,
                    "velocity": 0.7874015748031497,
                    "duration": 0.060000000000002274
                },
                {
                    "name": "C4",
                    "midi": 60,
                    "time": 37.859999999999935,
                    "velocity": 0.7874015748031497,
                    "duration": 0.060000000000002274
                },
                {
                    "name": "A#3",
                    "midi": 58,
                    "time": 37.91999999999994,
                    "velocity": 0.7874015748031497,
                    "duration": 0.060000000000002274
                },
                {
                    "name": "F#3",
                    "midi": 54,
                    "time": 37.97999999999994,
                    "velocity": 0.7874015748031497,
                    "duration": 0.060000000000002274
                },
                {
                    "name": "G3",
                    "midi": 55,
                    "time": 38.03999999999994,
                    "velocity": 0.7874015748031497,
                    "duration": 0.060000000000002274
                },
                {
                    "name": "A#3",
                    "midi": 58,
                    "time": 38.099999999999945,
                    "velocity": 0.7874015748031497,
                    "duration": 0.060000000000002274
                },
                {
                    "name": "D4",
                    "midi": 62,
                    "time": 38.15999999999995,
                    "velocity": 0.7874015748031497,
                    "duration": 0.060000000000002274
                },
                {
                    "name": "A3",
                    "midi": 57,
                    "time": 38.21999999999995,
                    "velocity": 0.7874015748031497,
                    "duration": 0.060000000000002274
                },
                {
                    "name": "A#3",
                    "midi": 58,
                    "time": 38.27999999999995,
                    "velocity": 0.7874015748031497,
                    "duration": 0.060000000000002274
                },
                {
                    "name": "G3",
                    "midi": 55,
                    "time": 38.339999999999954,
                    "velocity": 0.7874015748031497,
                    "duration": 0.060000000000002274
                },
                {
                    "name": "D#3",
                    "midi": 51,
                    "time": 38.399999999999956,
                    "velocity": 0.7874015748031497,
                    "duration": 0.060000000000002274
                },
                {
                    "name": "D3",
                    "midi": 50,
                    "time": 38.45999999999996,
                    "velocity": 0.7874015748031497,
                    "duration": 0.060000000000002274
                },
                {
                    "name": "D#3",
                    "midi": 51,
                    "time": 38.51999999999996,
                    "velocity": 0.7874015748031497,
                    "duration": 0.060000000000002274
                },
                {
                    "name": "G3",
                    "midi": 55,
                    "time": 38.57999999999996,
                    "velocity": 0.7874015748031497,
                    "duration": 0.060000000000002274
                },
                {
                    "name": "C4",
                    "midi": 60,
                    "time": 38.639999999999965,
                    "velocity": 0.7874015748031497,
                    "duration": 0.060000000000002274
                },
                {
                    "name": "A3",
                    "midi": 57,
                    "time": 38.69999999999997,
                    "velocity": 0.7874015748031497,
                    "duration": 0.060000000000002274
                },
                {
                    "name": "A#3",
                    "midi": 58,
                    "time": 38.75999999999997,
                    "velocity": 0.7874015748031497,
                    "duration": 0.060000000000002274
                },
                {
                    "name": "G3",
                    "midi": 55,
                    "time": 38.81999999999997,
                    "velocity": 0.7874015748031497,
                    "duration": 0.060000000000002274
                },
                {
                    "name": "D3",
                    "midi": 50,
                    "time": 38.879999999999974,
                    "velocity": 0.7874015748031497,
                    "duration": 0.060000000000002274
                },
                {
                    "name": "C3",
                    "midi": 48,
                    "time": 38.939999999999976,
                    "velocity": 0.7874015748031497,
                    "duration": 0.060000000000002274
                },
                {
                    "name": "D3",
                    "midi": 50,
                    "time": 38.99999999999998,
                    "velocity": 0.7874015748031497,
                    "duration": 0.060000000000002274
                },
                {
                    "name": "G3",
                    "midi": 55,
                    "time": 39.05999999999998,
                    "velocity": 0.7874015748031497,
                    "duration": 0.060000000000002274
                },
                {
                    "name": "A#3",
                    "midi": 58,
                    "time": 39.11999999999998,
                    "velocity": 0.7874015748031497,
                    "duration": 0.060000000000002274
                },
                {
                    "name": "F#3",
                    "midi": 54,
                    "time": 39.179999999999986,
                    "velocity": 0.7874015748031497,
                    "duration": 0.060000000000002274
                },
                {
                    "name": "G3",
                    "midi": 55,
                    "time": 39.23999999999999,
                    "velocity": 0.7874015748031497,
                    "duration": 0.060000000000002274
                },
                {
                    "name": "D#3",
                    "midi": 51,
                    "time": 39.29999999999999,
                    "velocity": 0.7874015748031497,
                    "duration": 0.060000000000002274
                },
                {
                    "name": "C3",
                    "midi": 48,
                    "time": 39.35999999999999,
                    "velocity": 0.7874015748031497,
                    "duration": 0.060000000000002274
                },
                {
                    "name": "A#2",
                    "midi": 46,
                    "time": 39.419999999999995,
                    "velocity": 0.7874015748031497,
                    "duration": 0.060000000000002274
                },
                {
                    "name": "C3",
                    "midi": 48,
                    "time": 39.48,
                    "velocity": 0.7874015748031497,
                    "duration": 0.060000000000002274
                },
                {
                    "name": "A#3",
                    "midi": 58,
                    "time": 39.54,
                    "velocity": 0.7874015748031497,
                    "duration": 0.060000000000002274
                },
                {
                    "name": "A3",
                    "midi": 57,
                    "time": 39.6,
                    "velocity": 0.7874015748031497,
                    "duration": 0.060000000000002274
                },
                {
                    "name": "C4",
                    "midi": 60,
                    "time": 39.660000000000004,
                    "velocity": 0.7874015748031497,
                    "duration": 0.060000000000002274
                },
                {
                    "name": "D#4",
                    "midi": 63,
                    "time": 39.720000000000006,
                    "velocity": 0.7874015748031497,
                    "duration": 0.060000000000002274
                },
                {
                    "name": "G3",
                    "midi": 55,
                    "time": 39.78000000000001,
                    "velocity": 0.7874015748031497,
                    "duration": 0.060000000000002274
                },
                {
                    "name": "F#3",
                    "midi": 54,
                    "time": 39.84000000000001,
                    "velocity": 0.7874015748031497,
                    "duration": 0.12000000000001165
                },
                {
                    "name": "G3",
                    "midi": 55,
                    "time": 39.96000000000002,
                    "velocity": 0.7874015748031497,
                    "duration": 0.060000000000002274
                },
                {
                    "name": "A3",
                    "midi": 57,
                    "time": 40.020000000000024,
                    "velocity": 0.7874015748031497,
                    "duration": 0.060000000000002274
                },
                {
                    "name": "D3",
                    "midi": 50,
                    "time": 40.08000000000003,
                    "velocity": 0.7874015748031497,
                    "duration": 0.11999999999999744
                },
                {
                    "name": "D#3",
                    "midi": 51,
                    "time": 40.200000000000024,
                    "velocity": 0.7874015748031497,
                    "duration": 0.060000000000002274
                },
                {
                    "name": "C3",
                    "midi": 48,
                    "time": 40.260000000000026,
                    "velocity": 0.7874015748031497,
                    "duration": 0.060000000000002274
                },
                {
                    "name": "A#2",
                    "midi": 46,
                    "time": 40.32000000000003,
                    "velocity": 0.7874015748031497,
                    "duration": 0.060000000000002274
                },
                {
                    "name": "D3",
                    "midi": 50,
                    "time": 40.38000000000003,
                    "velocity": 0.7874015748031497,
                    "duration": 0.060000000000002274
                },
                {
                    "name": "G3",
                    "midi": 55,
                    "time": 40.44000000000003,
                    "velocity": 0.7874015748031497,
                    "duration": 0.060000000000002274
                },
                {
                    "name": "A#2",
                    "midi": 46,
                    "time": 40.500000000000036,
                    "velocity": 0.7874015748031497,
                    "duration": 0.060000000000002274
                },
                {
                    "name": "D2",
                    "midi": 38,
                    "time": 40.56000000000004,
                    "velocity": 0.7874015748031497,
                    "duration": 0.11999999999999744
                },
                {
                    "name": "F#3",
                    "midi": 54,
                    "time": 40.680000000000035,
                    "velocity": 0.7874015748031497,
                    "duration": 0.11999999999999744
                },
                {
                    "name": "G3",
                    "midi": 55,
                    "time": 40.80000000000003,
                    "velocity": 0.7874015748031497,
                    "duration": 0.17999999999999972
                },
                {
                    "name": "A3",
                    "midi": 57,
                    "time": 40.98000000000003,
                    "velocity": 0.7874015748031497,
                    "duration": 0.060000000000002274
                },
                {
                    "name": "A#3",
                    "midi": 58,
                    "time": 41.040000000000035,
                    "velocity": 0.7874015748031497,
                    "duration": 0.060000000000002274
                },
                {
                    "name": "D4",
                    "midi": 62,
                    "time": 41.10000000000004,
                    "velocity": 0.7874015748031497,
                    "duration": 0.060000000000002274
                },
                {
                    "name": "G3",
                    "midi": 55,
                    "time": 41.16000000000004,
                    "velocity": 0.7874015748031497,
                    "duration": 0.060000000000002274
                },
                {
                    "name": "F3",
                    "midi": 53,
                    "time": 41.22000000000004,
                    "velocity": 0.7874015748031497,
                    "duration": 0.060000000000002274
                },
                {
                    "name": "E3",
                    "midi": 52,
                    "time": 41.280000000000044,
                    "velocity": 0.7874015748031497,
                    "duration": 0.18000000000000682
                },
                {
                    "name": "F3",
                    "midi": 53,
                    "time": 41.46000000000005,
                    "velocity": 0.7874015748031497,
                    "duration": 0.060000000000002274
                },
                {
                    "name": "G3",
                    "midi": 55,
                    "time": 41.52000000000005,
                    "velocity": 0.7874015748031497,
                    "duration": 0.060000000000002274
                },
                {
                    "name": "E3",
                    "midi": 52,
                    "time": 41.580000000000055,
                    "velocity": 0.7874015748031497,
                    "duration": 0.060000000000002274
                },
                {
                    "name": "C3",
                    "midi": 48,
                    "time": 41.64000000000006,
                    "velocity": 0.7874015748031497,
                    "duration": 0.060000000000002274
                },
                {
                    "name": "A#2",
                    "midi": 46,
                    "time": 41.70000000000006,
                    "velocity": 0.7874015748031497,
                    "duration": 0.060000000000002274
                },
                {
                    "name": "A2",
                    "midi": 45,
                    "time": 41.76000000000006,
                    "velocity": 0.7874015748031497,
                    "duration": 0.060000000000002274
                },
                {
                    "name": "F3",
                    "midi": 53,
                    "time": 41.820000000000064,
                    "velocity": 0.7874015748031497,
                    "duration": 0.060000000000002274
                },
                {
                    "name": "G2",
                    "midi": 43,
                    "time": 41.88000000000007,
                    "velocity": 0.7874015748031497,
                    "duration": 0.060000000000002274
                },
                {
                    "name": "F2",
                    "midi": 41,
                    "time": 41.94000000000007,
                    "velocity": 0.7874015748031497,
                    "duration": 0.060000000000002274
                },
                {
                    "name": "E2",
                    "midi": 40,
                    "time": 42.00000000000007,
                    "velocity": 0.7874015748031497,
                    "duration": 0.060000000000002274
                },
                {
                    "name": "G3",
                    "midi": 55,
                    "time": 42.06000000000007,
                    "velocity": 0.7874015748031497,
                    "duration": 0.060000000000002274
                },
                {
                    "name": "A3",
                    "midi": 57,
                    "time": 42.120000000000076,
                    "velocity": 0.7874015748031497,
                    "duration": 0.060000000000002274
                },
                {
                    "name": "A#3",
                    "midi": 58,
                    "time": 42.18000000000008,
                    "velocity": 0.7874015748031497,
                    "duration": 0.060000000000002274
                },
                {
                    "name": "A#3",
                    "midi": 58,
                    "time": 42.24000000000008,
                    "velocity": 0.7874015748031497,
                    "duration": 0.060000000000002274
                },
                {
                    "name": "A3",
                    "midi": 57,
                    "time": 42.30000000000008,
                    "velocity": 0.7874015748031497,
                    "duration": 0.060000000000002274
                },
                {
                    "name": "G3",
                    "midi": 55,
                    "time": 42.360000000000085,
                    "velocity": 0.7874015748031497,
                    "duration": 0.060000000000002274
                },
                {
                    "name": "F3",
                    "midi": 53,
                    "time": 42.42000000000009,
                    "velocity": 0.7874015748031497,
                    "duration": 0.060000000000002274
                },
                {
                    "name": "A3",
                    "midi": 57,
                    "time": 42.48000000000009,
                    "velocity": 0.7874015748031497,
                    "duration": 0.060000000000002274
                },
                {
                    "name": "E3",
                    "midi": 52,
                    "time": 42.54000000000009,
                    "velocity": 0.7874015748031497,
                    "duration": 0.060000000000002274
                },
                {
                    "name": "F3",
                    "midi": 53,
                    "time": 42.600000000000094,
                    "velocity": 0.7874015748031497,
                    "duration": 0.060000000000002274
                },
                {
                    "name": "D3",
                    "midi": 50,
                    "time": 42.660000000000096,
                    "velocity": 0.7874015748031497,
                    "duration": 0.060000000000002274
                },
                {
                    "name": "A#2",
                    "midi": 46,
                    "time": 42.7200000000001,
                    "velocity": 0.7874015748031497,
                    "duration": 0.060000000000002274
                },
                {
                    "name": "D3",
                    "midi": 50,
                    "time": 42.7800000000001,
                    "velocity": 0.7874015748031497,
                    "duration": 0.060000000000002274
                },
                {
                    "name": "F3",
                    "midi": 53,
                    "time": 42.8400000000001,
                    "velocity": 0.7874015748031497,
                    "duration": 0.060000000000002274
                },
                {
                    "name": "A3",
                    "midi": 57,
                    "time": 42.900000000000105,
                    "velocity": 0.7874015748031497,
                    "duration": 0.060000000000002274
                },
                {
                    "name": "D4",
                    "midi": 62,
                    "time": 42.96000000000011,
                    "velocity": 0.7874015748031497,
                    "duration": 0.060000000000002274
                },
                {
                    "name": "A3",
                    "midi": 57,
                    "time": 43.02000000000011,
                    "velocity": 0.7874015748031497,
                    "duration": 0.060000000000002274
                },
                {
                    "name": "A#3",
                    "midi": 58,
                    "time": 43.08000000000011,
                    "velocity": 0.7874015748031497,
                    "duration": 0.060000000000002274
                },
                {
                    "name": "G3",
                    "midi": 55,
                    "time": 43.140000000000114,
                    "velocity": 0.7874015748031497,
                    "duration": 0.060000000000002274
                },
                {
                    "name": "A2",
                    "midi": 45,
                    "time": 43.20000000000012,
                    "velocity": 0.7874015748031497,
                    "duration": 0.060000000000002274
                },
                {
                    "name": "G3",
                    "midi": 55,
                    "time": 43.26000000000012,
                    "velocity": 0.7874015748031497,
                    "duration": 0.060000000000002274
                },
                {
                    "name": "C#4",
                    "midi": 61,
                    "time": 43.32000000000012,
                    "velocity": 0.7874015748031497,
                    "duration": 0.060000000000002274
                },
                {
                    "name": "D4",
                    "midi": 62,
                    "time": 43.38000000000012,
                    "velocity": 0.7874015748031497,
                    "duration": 0.060000000000002274
                },
                {
                    "name": "E4",
                    "midi": 64,
                    "time": 43.440000000000126,
                    "velocity": 0.7874015748031497,
                    "duration": 0.060000000000002274
                },
                {
                    "name": "G3",
                    "midi": 55,
                    "time": 43.50000000000013,
                    "velocity": 0.7874015748031497,
                    "duration": 0.060000000000002274
                },
                {
                    "name": "A3",
                    "midi": 57,
                    "time": 43.56000000000013,
                    "velocity": 0.7874015748031497,
                    "duration": 0.060000000000002274
                },
                {
                    "name": "E3",
                    "midi": 52,
                    "time": 43.62000000000013,
                    "velocity": 0.7874015748031497,
                    "duration": 0.060000000000002274
                },
                {
                    "name": "F3",
                    "midi": 53,
                    "time": 43.680000000000135,
                    "velocity": 0.7874015748031497,
                    "duration": 0.060000000000002274
                },
                {
                    "name": "D3",
                    "midi": 50,
                    "time": 43.74000000000014,
                    "velocity": 0.7874015748031497,
                    "duration": 0.060000000000002274
                },
                {
                    "name": "A#2",
                    "midi": 46,
                    "time": 43.80000000000014,
                    "velocity": 0.7874015748031497,
                    "duration": 0.060000000000002274
                },
                {
                    "name": "D3",
                    "midi": 50,
                    "time": 43.86000000000014,
                    "velocity": 0.7874015748031497,
                    "duration": 0.060000000000002274
                },
                {
                    "name": "G#2",
                    "midi": 44,
                    "time": 43.920000000000144,
                    "velocity": 0.7874015748031497,
                    "duration": 0.060000000000002274
                },
                {
                    "name": "F3",
                    "midi": 53,
                    "time": 43.980000000000146,
                    "velocity": 0.7874015748031497,
                    "duration": 0.060000000000002274
                },
                {
                    "name": "E3",
                    "midi": 52,
                    "time": 44.04000000000015,
                    "velocity": 0.7874015748031497,
                    "duration": 0.060000000000002274
                },
                {
                    "name": "D3",
                    "midi": 50,
                    "time": 44.10000000000015,
                    "velocity": 0.7874015748031497,
                    "duration": 0.060000000000002274
                },
                {
                    "name": "D3",
                    "midi": 50,
                    "time": 44.16000000000015,
                    "velocity": 0.7874015748031497,
                    "duration": 0.060000000000002274
                },
                {
                    "name": "C#3",
                    "midi": 49,
                    "time": 44.220000000000155,
                    "velocity": 0.7874015748031497,
                    "duration": 0.060000000000002274
                },
                {
                    "name": "B2",
                    "midi": 47,
                    "time": 44.28000000000016,
                    "velocity": 0.7874015748031497,
                    "duration": 0.060000000000002274
                },
                {
                    "name": "A2",
                    "midi": 45,
                    "time": 44.34000000000016,
                    "velocity": 0.7874015748031497,
                    "duration": 0.060000000000002274
                },
                {
                    "name": "C3",
                    "midi": 48,
                    "time": 44.40000000000016,
                    "velocity": 0.7874015748031497,
                    "duration": 0.060000000000002274
                },
                {
                    "name": "A2",
                    "midi": 45,
                    "time": 44.460000000000164,
                    "velocity": 0.7874015748031497,
                    "duration": 0.060000000000002274
                },
                {
                    "name": "F#2",
                    "midi": 42,
                    "time": 44.52000000000017,
                    "velocity": 0.7874015748031497,
                    "duration": 0.060000000000002274
                },
                {
                    "name": "D3",
                    "midi": 50,
                    "time": 44.58000000000017,
                    "velocity": 0.7874015748031497,
                    "duration": 0.060000000000002274
                },
                {
                    "name": "C3",
                    "midi": 48,
                    "time": 44.64000000000017,
                    "velocity": 0.7874015748031497,
                    "duration": 0.060000000000002274
                },
                {
                    "name": "A2",
                    "midi": 45,
                    "time": 44.70000000000017,
                    "velocity": 0.7874015748031497,
                    "duration": 0.060000000000002274
                },
                {
                    "name": "B2",
                    "midi": 47,
                    "time": 44.760000000000176,
                    "velocity": 0.7874015748031497,
                    "duration": 0.060000000000002274
                },
                {
                    "name": "D3",
                    "midi": 50,
                    "time": 44.82000000000018,
                    "velocity": 0.7874015748031497,
                    "duration": 0.060000000000002274
                },
                {
                    "name": "F3",
                    "midi": 53,
                    "time": 44.88000000000018,
                    "velocity": 0.7874015748031497,
                    "duration": 0.060000000000002274
                },
                {
                    "name": "D3",
                    "midi": 50,
                    "time": 44.94000000000018,
                    "velocity": 0.7874015748031497,
                    "duration": 0.060000000000002274
                },
                {
                    "name": "G#2",
                    "midi": 44,
                    "time": 45.000000000000185,
                    "velocity": 0.7874015748031497,
                    "duration": 0.060000000000002274
                },
                {
                    "name": "D3",
                    "midi": 50,
                    "time": 45.06000000000019,
                    "velocity": 0.7874015748031497,
                    "duration": 0.060000000000002274
                },
                {
                    "name": "C#3",
                    "midi": 49,
                    "time": 45.12000000000019,
                    "velocity": 0.7874015748031497,
                    "duration": 0.060000000000002274
                },
                {
                    "name": "E3",
                    "midi": 52,
                    "time": 45.18000000000019,
                    "velocity": 0.7874015748031497,
                    "duration": 0.060000000000002274
                },
                {
                    "name": "G3",
                    "midi": 55,
                    "time": 45.240000000000194,
                    "velocity": 0.7874015748031497,
                    "duration": 0.060000000000002274
                },
                {
                    "name": "A#3",
                    "midi": 58,
                    "time": 45.300000000000196,
                    "velocity": 0.7874015748031497,
                    "duration": 0.060000000000002274
                },
                {
                    "name": "E4",
                    "midi": 64,
                    "time": 45.3600000000002,
                    "velocity": 0.7874015748031497,
                    "duration": 0.060000000000002274
                },
                {
                    "name": "A3",
                    "midi": 57,
                    "time": 45.4200000000002,
                    "velocity": 0.7874015748031497,
                    "duration": 0.060000000000002274
                },
                {
                    "name": "A#3",
                    "midi": 58,
                    "time": 45.4800000000002,
                    "velocity": 0.7874015748031497,
                    "duration": 0.060000000000002274
                },
                {
                    "name": "G3",
                    "midi": 55,
                    "time": 45.540000000000205,
                    "velocity": 0.7874015748031497,
                    "duration": 0.060000000000002274
                },
                {
                    "name": "F3",
                    "midi": 53,
                    "time": 45.60000000000021,
                    "velocity": 0.7874015748031497,
                    "duration": 0.060000000000002274
                },
                {
                    "name": "C#3",
                    "midi": 49,
                    "time": 45.66000000000021,
                    "velocity": 0.7874015748031497,
                    "duration": 0.060000000000002274
                },
                {
                    "name": "D3",
                    "midi": 50,
                    "time": 45.72000000000021,
                    "velocity": 0.7874015748031497,
                    "duration": 0.060000000000002274
                },
                {
                    "name": "G#2",
                    "midi": 44,
                    "time": 45.780000000000214,
                    "velocity": 0.7874015748031497,
                    "duration": 0.060000000000002274
                },
                {
                    "name": "A2",
                    "midi": 45,
                    "time": 45.84000000000022,
                    "velocity": 0.7874015748031497,
                    "duration": 0.11999999999999744
                },
                {
                    "name": "C#3",
                    "midi": 49,
                    "time": 45.960000000000214,
                    "velocity": 0.7874015748031497,
                    "duration": 0.11999999999999744
                },
                {
                    "name": "D2",
                    "midi": 38,
                    "time": 46.08000000000021,
                    "velocity": 0.7874015748031497,
                    "duration": 0.060000000000002274
                },
                {
                    "name": "D4",
                    "midi": 62,
                    "time": 46.140000000000214,
                    "velocity": 0.7874015748031497,
                    "duration": 0.060000000000002274
                },
                {
                    "name": "C4",
                    "midi": 60,
                    "time": 46.200000000000216,
                    "velocity": 0.7874015748031497,
                    "duration": 0.060000000000002274
                },
                {
                    "name": "A3",
                    "midi": 57,
                    "time": 46.26000000000022,
                    "velocity": 0.7874015748031497,
                    "duration": 0.060000000000002274
                },
                {
                    "name": "A#3",
                    "midi": 58,
                    "time": 46.32000000000022,
                    "velocity": 0.7874015748031497,
                    "duration": 0.060000000000002274
                },
                {
                    "name": "G3",
                    "midi": 55,
                    "time": 46.38000000000022,
                    "velocity": 0.7874015748031497,
                    "duration": 0.060000000000002274
                },
                {
                    "name": "E3",
                    "midi": 52,
                    "time": 46.440000000000225,
                    "velocity": 0.7874015748031497,
                    "duration": 0.060000000000002274
                },
                {
                    "name": "C#4",
                    "midi": 61,
                    "time": 46.50000000000023,
                    "velocity": 0.7874015748031497,
                    "duration": 0.060000000000002274
                },
                {
                    "name": "D4",
                    "midi": 62,
                    "time": 46.56000000000023,
                    "velocity": 0.7874015748031497,
                    "duration": 0.060000000000002274
                },
                {
                    "name": "A3",
                    "midi": 57,
                    "time": 46.62000000000023,
                    "velocity": 0.7874015748031497,
                    "duration": 0.060000000000002274
                },
                {
                    "name": "F3",
                    "midi": 53,
                    "time": 46.680000000000234,
                    "velocity": 0.7874015748031497,
                    "duration": 0.060000000000002274
                },
                {
                    "name": "D3",
                    "midi": 50,
                    "time": 46.74000000000024,
                    "velocity": 0.7874015748031497,
                    "duration": 0.060000000000002274
                },
                {
                    "name": "D2",
                    "midi": 38,
                    "time": 46.80000000000024,
                    "velocity": 0.7874015748031497,
                    "duration": 0.17999999999999972
                }
            ],
            "controlChanges": {
                "7": [
                    {
                        "number": 7,
                        "time": 0,
                        "value": 0.7874015748031497
                    }
                ],
                "10": [
                    {
                        "number": 10,
                        "time": 0,
                        "value": 0.5433070866141733
                    }
                ]
            },
            "id": 1,
            "name": "Solo Cello",
            "instrumentNumber": 42,
            "instrument": "cello",
            "instrumentFamily": "strings",
            "channelNumber": 0,
            "isPercussion": false
        },
        {
            "startTime": 0.96,
            "duration": 41.459999999999994,
            "length": 52,
            "notes": [
                {
                    "name": "F3",
                    "midi": 53,
                    "time": 0.96,
                    "velocity": 0.7874015748031497,
                    "duration": 0.1200000000000001
                },
                {
                    "name": "F#3",
                    "midi": 54,
                    "time": 2.88,
                    "velocity": 0.7874015748031497,
                    "duration": 0.1200000000000001
                },
                {
                    "name": "F3",
                    "midi": 53,
                    "time": 4.5600000000000005,
                    "velocity": 0.7874015748031497,
                    "duration": 0.17999999999999972
                },
                {
                    "name": "F3",
                    "midi": 53,
                    "time": 4.74,
                    "velocity": 0.7874015748031497,
                    "duration": 0.05999999999999961
                },
                {
                    "name": "D3",
                    "midi": 50,
                    "time": 5.279999999999999,
                    "velocity": 0.7874015748031497,
                    "duration": 0.17999999999999972
                },
                {
                    "name": "E4",
                    "midi": 64,
                    "time": 6.719999999999999,
                    "velocity": 0.7874015748031497,
                    "duration": 0.05999999999999961
                },
                {
                    "name": "B2",
                    "midi": 47,
                    "time": 6.959999999999998,
                    "velocity": 0.7874015748031497,
                    "duration": 0.05999999999999961
                },
                {
                    "name": "E3",
                    "midi": 52,
                    "time": 8.879999999999997,
                    "velocity": 0.7874015748031497,
                    "duration": 0.17999999999999972
                },
                {
                    "name": "D#3",
                    "midi": 51,
                    "time": 9.119999999999997,
                    "velocity": 0.7874015748031497,
                    "duration": 0.15000000000000036
                },
                {
                    "name": "E3",
                    "midi": 52,
                    "time": 9.269999999999998,
                    "velocity": 0.7874015748031497,
                    "duration": 0.02999999999999936
                },
                {
                    "name": "F#3",
                    "midi": 54,
                    "time": 9.299999999999997,
                    "velocity": 0.7874015748031497,
                    "duration": 0.02999999999999936
                },
                {
                    "name": "G#3",
                    "midi": 56,
                    "time": 9.329999999999997,
                    "velocity": 0.7874015748031497,
                    "duration": 0.02999999999999936
                },
                {
                    "name": "A3",
                    "midi": 57,
                    "time": 9.359999999999996,
                    "velocity": 0.7874015748031497,
                    "duration": 0.02999999999999936
                },
                {
                    "name": "B3",
                    "midi": 59,
                    "time": 9.389999999999995,
                    "velocity": 0.7874015748031497,
                    "duration": 0.02999999999999936
                },
                {
                    "name": "C4",
                    "midi": 60,
                    "time": 9.419999999999995,
                    "velocity": 0.7874015748031497,
                    "duration": 0.02999999999999936
                },
                {
                    "name": "D4",
                    "midi": 62,
                    "time": 9.449999999999994,
                    "velocity": 0.7874015748031497,
                    "duration": 0.02999999999999936
                },
                {
                    "name": "C4",
                    "midi": 60,
                    "time": 9.479999999999993,
                    "velocity": 0.7874015748031497,
                    "duration": 0.02999999999999936
                },
                {
                    "name": "B3",
                    "midi": 59,
                    "time": 9.509999999999993,
                    "velocity": 0.7874015748031497,
                    "duration": 0.02999999999999936
                },
                {
                    "name": "C4",
                    "midi": 60,
                    "time": 9.539999999999992,
                    "velocity": 0.7874015748031497,
                    "duration": 0.02999999999999936
                },
                {
                    "name": "A3",
                    "midi": 57,
                    "time": 9.569999999999991,
                    "velocity": 0.7874015748031497,
                    "duration": 0.02999999999999936
                },
                {
                    "name": "E3",
                    "midi": 52,
                    "time": 10.079999999999991,
                    "velocity": 0.7874015748031497,
                    "duration": 0.11999999999999922
                },
                {
                    "name": "G#2",
                    "midi": 44,
                    "time": 10.55999999999999,
                    "velocity": 0.7874015748031497,
                    "duration": 0.11999999999999922
                },
                {
                    "name": "F3",
                    "midi": 53,
                    "time": 12.47999999999999,
                    "velocity": 0.7874015748031497,
                    "duration": 0.11999999999999922
                },
                {
                    "name": "F#3",
                    "midi": 54,
                    "time": 14.399999999999988,
                    "velocity": 0.7874015748031497,
                    "duration": 0.11999999999999922
                },
                {
                    "name": "F3",
                    "midi": 53,
                    "time": 16.079999999999988,
                    "velocity": 0.7874015748031497,
                    "duration": 0.17999999999999972
                },
                {
                    "name": "F3",
                    "midi": 53,
                    "time": 16.259999999999987,
                    "velocity": 0.7874015748031497,
                    "duration": 0.05999999999999872
                },
                {
                    "name": "D3",
                    "midi": 50,
                    "time": 16.799999999999986,
                    "velocity": 0.7874015748031497,
                    "duration": 0.17999999999999972
                },
                {
                    "name": "E4",
                    "midi": 64,
                    "time": 18.239999999999988,
                    "velocity": 0.7874015748031497,
                    "duration": 0.05999999999999872
                },
                {
                    "name": "B2",
                    "midi": 47,
                    "time": 18.479999999999986,
                    "velocity": 0.7874015748031497,
                    "duration": 0.05999999999999872
                },
                {
                    "name": "E3",
                    "midi": 52,
                    "time": 20.399999999999984,
                    "velocity": 0.7874015748031497,
                    "duration": 0.17999999999999972
                },
                {
                    "name": "D#3",
                    "midi": 51,
                    "time": 20.639999999999983,
                    "velocity": 0.7874015748031497,
                    "duration": 0.14999999999999858
                },
                {
                    "name": "E3",
                    "midi": 52,
                    "time": 20.78999999999998,
                    "velocity": 0.7874015748031497,
                    "duration": 0.030000000000001137
                },
                {
                    "name": "F#3",
                    "midi": 54,
                    "time": 20.819999999999983,
                    "velocity": 0.7874015748031497,
                    "duration": 0.030000000000001137
                },
                {
                    "name": "G#3",
                    "midi": 56,
                    "time": 20.849999999999984,
                    "velocity": 0.7874015748031497,
                    "duration": 0.030000000000001137
                },
                {
                    "name": "A3",
                    "midi": 57,
                    "time": 20.879999999999985,
                    "velocity": 0.7874015748031497,
                    "duration": 0.030000000000001137
                },
                {
                    "name": "B3",
                    "midi": 59,
                    "time": 20.909999999999986,
                    "velocity": 0.7874015748031497,
                    "duration": 0.030000000000001137
                },
                {
                    "name": "C4",
                    "midi": 60,
                    "time": 20.939999999999987,
                    "velocity": 0.7874015748031497,
                    "duration": 0.030000000000001137
                },
                {
                    "name": "D4",
                    "midi": 62,
                    "time": 20.969999999999988,
                    "velocity": 0.7874015748031497,
                    "duration": 0.030000000000001137
                },
                {
                    "name": "C4",
                    "midi": 60,
                    "time": 20.99999999999999,
                    "velocity": 0.7874015748031497,
                    "duration": 0.030000000000001137
                },
                {
                    "name": "B3",
                    "midi": 59,
                    "time": 21.02999999999999,
                    "velocity": 0.7874015748031497,
                    "duration": 0.030000000000001137
                },
                {
                    "name": "C4",
                    "midi": 60,
                    "time": 21.05999999999999,
                    "velocity": 0.7874015748031497,
                    "duration": 0.030000000000001137
                },
                {
                    "name": "A3",
                    "midi": 57,
                    "time": 21.089999999999993,
                    "velocity": 0.7874015748031497,
                    "duration": 0.030000000000001137
                },
                {
                    "name": "E3",
                    "midi": 52,
                    "time": 21.599999999999994,
                    "velocity": 0.7874015748031497,
                    "duration": 0.120000000000001
                },
                {
                    "name": "G#2",
                    "midi": 44,
                    "time": 22.079999999999995,
                    "velocity": 0.7874015748031497,
                    "duration": 0.120000000000001
                },
                {
                    "name": "C#4",
                    "midi": 61,
                    "time": 23.999999999999996,
                    "velocity": 0.7874015748031497,
                    "duration": 0.17999999999999972
                },
                {
                    "name": "C3",
                    "midi": 48,
                    "time": 28.319999999999997,
                    "velocity": 0.7874015748031497,
                    "duration": 0.120000000000001
                },
                {
                    "name": "G2",
                    "midi": 43,
                    "time": 29.279999999999998,
                    "velocity": 0.7874015748031497,
                    "duration": 0.17999999999999972
                },
                {
                    "name": "A#2",
                    "midi": 46,
                    "time": 29.759999999999998,
                    "velocity": 0.7874015748031497,
                    "duration": 0.17999999999999972
                },
                {
                    "name": "C#4",
                    "midi": 61,
                    "time": 35.519999999999996,
                    "velocity": 0.7874015748031497,
                    "duration": 0.17999999999999972
                },
                {
                    "name": "C3",
                    "midi": 48,
                    "time": 39.839999999999996,
                    "velocity": 0.7874015748031497,
                    "duration": 0.11999999999999744
                },
                {
                    "name": "G2",
                    "midi": 43,
                    "time": 40.8,
                    "velocity": 0.7874015748031497,
                    "duration": 0.17999999999999972
                },
                {
                    "name": "A#2",
                    "midi": 46,
                    "time": 41.279999999999994,
                    "velocity": 0.7874015748031497,
                    "duration": 0.17999999999999972
                }
            ],
            "controlChanges": {
                "7": [
                    {
                        "number": 7,
                        "time": 0,
                        "value": 0.7874015748031497
                    }
                ],
                "10": [
                    {
                        "number": 10,
                        "time": 0,
                        "value": 0.4645669291338583
                    }
                ]
            },
            "id": 2,
            "name": "--------------------------------------",
            "instrumentNumber": 42,
            "instrument": "cello",
            "instrumentFamily": "strings",
            "channelNumber": 1,
            "isPercussion": false
        },
        {
            "startTime": 0.96,
            "duration": 35.699999999999996,
            "length": 12,
            "notes": [
                {
                    "name": "A2",
                    "midi": 45,
                    "time": 0.96,
                    "velocity": 0.7874015748031497,
                    "duration": 0.1200000000000001
                },
                {
                    "name": "A2",
                    "midi": 45,
                    "time": 2.4,
                    "velocity": 0.7874015748031497,
                    "duration": 0.18000000000000016
                },
                {
                    "name": "A2",
                    "midi": 45,
                    "time": 2.88,
                    "velocity": 0.7874015748031497,
                    "duration": 0.1200000000000001
                },
                {
                    "name": "C3",
                    "midi": 48,
                    "time": 10.08,
                    "velocity": 0.7874015748031497,
                    "duration": 0.11999999999999922
                },
                {
                    "name": "B3",
                    "midi": 59,
                    "time": 10.559999999999999,
                    "velocity": 0.7874015748031497,
                    "duration": 0.11999999999999922
                },
                {
                    "name": "A2",
                    "midi": 45,
                    "time": 12.479999999999997,
                    "velocity": 0.7874015748031497,
                    "duration": 0.11999999999999922
                },
                {
                    "name": "A2",
                    "midi": 45,
                    "time": 13.919999999999996,
                    "velocity": 0.7874015748031497,
                    "duration": 0.17999999999999972
                },
                {
                    "name": "A2",
                    "midi": 45,
                    "time": 14.399999999999997,
                    "velocity": 0.7874015748031497,
                    "duration": 0.11999999999999922
                },
                {
                    "name": "C3",
                    "midi": 48,
                    "time": 21.599999999999994,
                    "velocity": 0.7874015748031497,
                    "duration": 0.120000000000001
                },
                {
                    "name": "B3",
                    "midi": 59,
                    "time": 22.079999999999995,
                    "velocity": 0.7874015748031497,
                    "duration": 0.120000000000001
                },
                {
                    "name": "A2",
                    "midi": 45,
                    "time": 23.999999999999996,
                    "velocity": 0.7874015748031497,
                    "duration": 0.17999999999999972
                },
                {
                    "name": "A2",
                    "midi": 45,
                    "time": 35.519999999999996,
                    "velocity": 0.7874015748031497,
                    "duration": 0.17999999999999972
                }
            ],
            "controlChanges": {
                "7": [
                    {
                        "number": 7,
                        "time": 0,
                        "value": 0.7874015748031497
                    }
                ],
                "10": [
                    {
                        "number": 10,
                        "time": 0,
                        "value": 0.6220472440944882
                    }
                ]
            },
            "id": 3,
            "name": "Johann Sebastian Bach  (1685-1750)",
            "instrumentNumber": 42,
            "instrument": "cello",
            "instrumentFamily": "strings",
            "channelNumber": 2,
            "isPercussion": false
        },
        {
            "startTime": 0.96,
            "duration": 14.52,
            "length": 6,
            "notes": [
                {
                    "name": "D2",
                    "midi": 38,
                    "time": 0.96,
                    "velocity": 0.7874015748031497,
                    "duration": 0.1200000000000001
                },
                {
                    "name": "D2",
                    "midi": 38,
                    "time": 2.4,
                    "velocity": 0.7874015748031497,
                    "duration": 0.18000000000000016
                },
                {
                    "name": "D2",
                    "midi": 38,
                    "time": 2.88,
                    "velocity": 0.7874015748031497,
                    "duration": 0.1200000000000001
                },
                {
                    "name": "D2",
                    "midi": 38,
                    "time": 12.48,
                    "velocity": 0.7874015748031497,
                    "duration": 0.11999999999999922
                },
                {
                    "name": "D2",
                    "midi": 38,
                    "time": 13.92,
                    "velocity": 0.7874015748031497,
                    "duration": 0.17999999999999972
                },
                {
                    "name": "D2",
                    "midi": 38,
                    "time": 14.4,
                    "velocity": 0.7874015748031497,
                    "duration": 0.11999999999999922
                }
            ],
            "controlChanges": {
                "7": [
                    {
                        "number": 7,
                        "time": 0,
                        "value": 0.7874015748031497
                    }
                ],
                "10": [
                    {
                        "number": 10,
                        "time": 0,
                        "value": 0.3858267716535433
                    }
                ]
            },
            "id": 4,
            "name": "Six Suites for Solo Cello",
            "instrumentNumber": 42,
            "instrument": "cello",
            "instrumentFamily": "strings",
            "channelNumber": 3,
            "isPercussion": false
        },
        {
            "startTime": 0,
            "duration": 0,
            "length": 0,
            "notes": [],
            "controlChanges": {},
            "id": 5,
            "name": "--------------------------------------"
        },
        {
            "startTime": 0,
            "duration": 0,
            "length": 0,
            "notes": [],
            "controlChanges": {},
            "id": 6,
            "name": "Suite No. 2 in D minor - BWV 1008"
        },
        {
            "startTime": 0,
            "duration": 0,
            "length": 0,
            "notes": [],
            "controlChanges": {},
            "id": 7,
            "name": "2nd Movement: Allemande"
        },
        {
            "startTime": 0,
            "duration": 0,
            "length": 0,
            "notes": [],
            "controlChanges": {},
            "id": 8,
            "name": "--------------------------------------"
        },
        {
            "startTime": 0,
            "duration": 0,
            "length": 0,
            "notes": [],
            "controlChanges": {},
            "id": 9,
            "name": "Sequenced with Cakewalk Pro Audio by"
        },
        {
            "startTime": 0,
            "duration": 0,
            "length": 0,
            "notes": [],
            "controlChanges": {},
            "id": 10,
            "name": "David J. Grossman - dave@unpronounceable.com"
        },
        {
            "startTime": 0,
            "duration": 0,
            "length": 0,
            "notes": [],
            "controlChanges": {},
            "id": 11,
            "name": "This and other Bach MIDI files can be found at:"
        },
        {
            "startTime": 0,
            "duration": 0,
            "length": 0,
            "notes": [],
            "controlChanges": {},
            "id": 12,
            "name": "Dave's J.S. Bach Page"
        },
        {
            "startTime": 0,
            "duration": 0,
            "length": 0,
            "notes": [],
            "controlChanges": {},
            "id": 13,
            "name": "http://www.unpronounceable.com/bach"
        },
        {
            "startTime": 0,
            "duration": 0,
            "length": 0,
            "notes": [],
            "controlChanges": {},
            "id": 14,
            "name": "--------------------------------------"
        },
        {
            "startTime": 0,
            "duration": 0,
            "length": 0,
            "notes": [],
            "controlChanges": {},
            "id": 15,
            "name": "Original Filename: cs2-2all.mid"
        },
        {
            "startTime": 0,
            "duration": 0,
            "length": 0,
            "notes": [],
            "controlChanges": {},
            "id": 16,
            "name": "Last Modified: February 22, 1997"
        }
    ]
}