{
    "header": {
        "PPQ": 480,
        "timeSignature": [
            6,
            8
        ],
        "bpm": 69.94001478065645,
        "name": "6. Serenade"
    },
    "startTime": 0,
    "duration": 110.2373230000004,
    "tracks": [
        {
            "startTime": 0,
            "duration": 0,
            "length": 0,
            "notes": [],
            "controlChanges": {},
            "id": 0,
            "name": "6. Serenade"
        },
        {
            "startTime": 0.428939,
            "duration": 109.80838400000046,
            "length": 434,
            "notes": [
                {
                    "name": "F#3",
                    "midi": 54,
                    "time": 0.428939,
                    "velocity": 0.2283464566929134,
                    "duration": 0.428939
                },
                {
                    "name": "A#3",
                    "midi": 58,
                    "time": 0.428939,
                    "velocity": 0.28346456692913385,
                    "duration": 0.428939
                },
                {
                    "name": "C#3",
                    "midi": 49,
                    "time": 0.428939,
                    "velocity": 0.2283464566929134,
                    "duration": 0.428939
                },
                {
                    "name": "C#3",
                    "midi": 49,
                    "time": 1.0723475,
                    "velocity": 0.1889763779527559,
                    "duration": 0.2144695000000001
                },
                {
                    "name": "F#3",
                    "midi": 54,
                    "time": 1.0723475,
                    "velocity": 0.1889763779527559,
                    "duration": 0.2144695000000001
                },
                {
                    "name": "A#3",
                    "midi": 58,
                    "time": 1.0723475,
                    "velocity": 0.2283464566929134,
                    "duration": 0.2144695000000001
                },
                {
                    "name": "F#3",
                    "midi": 54,
                    "time": 1.715756,
                    "velocity": 0.2283464566929134,
                    "duration": 0.42893899999999996
                },
                {
                    "name": "C#4",
                    "midi": 61,
                    "time": 1.715756,
                    "velocity": 0.28346456692913385,
                    "duration": 0.42893899999999996
                },
                {
                    "name": "A#3",
                    "midi": 58,
                    "time": 1.715756,
                    "velocity": 0.2283464566929134,
                    "duration": 0.42893899999999996
                },
                {
                    "name": "C#3",
                    "midi": 49,
                    "time": 1.715756,
                    "velocity": 0.2283464566929134,
                    "duration": 0.42893899999999996
                },
                {
                    "name": "C#4",
                    "midi": 61,
                    "time": 2.3591645,
                    "velocity": 0.2283464566929134,
                    "duration": 0.21446949999999987
                },
                {
                    "name": "A#3",
                    "midi": 58,
                    "time": 2.3591645,
                    "velocity": 0.1968503937007874,
                    "duration": 0.21446949999999987
                },
                {
                    "name": "F#3",
                    "midi": 54,
                    "time": 2.3591645,
                    "velocity": 0.1968503937007874,
                    "duration": 0.21446949999999987
                },
                {
                    "name": "C#3",
                    "midi": 49,
                    "time": 2.3591645,
                    "velocity": 0.1968503937007874,
                    "duration": 0.21446949999999987
                },
                {
                    "name": "F3",
                    "midi": 53,
                    "time": 3.002573,
                    "velocity": 0.23622047244094488,
                    "duration": 0.4289390000000002
                },
                {
                    "name": "G#3",
                    "midi": 56,
                    "time": 3.002573,
                    "velocity": 0.29133858267716534,
                    "duration": 0.4289390000000002
                },
                {
                    "name": "C#3",
                    "midi": 49,
                    "time": 3.002573,
                    "velocity": 0.23622047244094488,
                    "duration": 0.4289390000000002
                },
                {
                    "name": "C#3",
                    "midi": 49,
                    "time": 3.6459815,
                    "velocity": 0.1968503937007874,
                    "duration": 0.21446949999999987
                },
                {
                    "name": "F3",
                    "midi": 53,
                    "time": 3.6459815,
                    "velocity": 0.1968503937007874,
                    "duration": 0.21446949999999987
                },
                {
                    "name": "G#3",
                    "midi": 56,
                    "time": 3.6459815,
                    "velocity": 0.2283464566929134,
                    "duration": 0.21446949999999987
                },
                {
                    "name": "C#3",
                    "midi": 49,
                    "time": 4.28939,
                    "velocity": 0.2283464566929134,
                    "duration": 0.42893899999999974
                },
                {
                    "name": "C#4",
                    "midi": 61,
                    "time": 4.28939,
                    "velocity": 0.28346456692913385,
                    "duration": 0.42893899999999974
                },
                {
                    "name": "F3",
                    "midi": 53,
                    "time": 4.28939,
                    "velocity": 0.2283464566929134,
                    "duration": 0.42893899999999974
                },
                {
                    "name": "C#4",
                    "midi": 61,
                    "time": 4.9327985,
                    "velocity": 0.2283464566929134,
                    "duration": 0.21446949999999987
                },
                {
                    "name": "F3",
                    "midi": 53,
                    "time": 4.9327985,
                    "velocity": 0.1889763779527559,
                    "duration": 0.21446949999999987
                },
                {
                    "name": "C#3",
                    "midi": 49,
                    "time": 4.9327985,
                    "velocity": 0.1889763779527559,
                    "duration": 0.21446949999999987
                },
                {
                    "name": "C#3",
                    "midi": 49,
                    "time": 5.576206999999999,
                    "velocity": 0.23622047244094488,
                    "duration": 0.42893899999999974
                },
                {
                    "name": "F#3",
                    "midi": 54,
                    "time": 5.576206999999999,
                    "velocity": 0.29133858267716534,
                    "duration": 0.42893899999999974
                },
                {
                    "name": "D#3",
                    "midi": 51,
                    "time": 5.576206999999999,
                    "velocity": 0.23622047244094488,
                    "duration": 0.42893899999999974
                },
                {
                    "name": "D#3",
                    "midi": 51,
                    "time": 6.219615499999999,
                    "velocity": 0.1968503937007874,
                    "duration": 0.21446949999999987
                },
                {
                    "name": "C#3",
                    "midi": 49,
                    "time": 6.219615499999999,
                    "velocity": 0.1968503937007874,
                    "duration": 0.21446949999999987
                },
                {
                    "name": "F#3",
                    "midi": 54,
                    "time": 6.219615499999999,
                    "velocity": 0.2283464566929134,
                    "duration": 0.21446949999999987
                },
                {
                    "name": "C#4",
                    "midi": 61,
                    "time": 6.8630239999999985,
                    "velocity": 0.29133858267716534,
                    "duration": 0.42893899999999974
                },
                {
                    "name": "F#3",
                    "midi": 54,
                    "time": 6.8630239999999985,
                    "velocity": 0.23622047244094488,
                    "duration": 0.42893899999999974
                },
                {
                    "name": "D#3",
                    "midi": 51,
                    "time": 6.8630239999999985,
                    "velocity": 0.23622047244094488,
                    "duration": 0.42893899999999974
                },
                {
                    "name": "C#3",
                    "midi": 49,
                    "time": 6.8630239999999985,
                    "velocity": 0.23622047244094488,
                    "duration": 0.42893899999999974
                },
                {
                    "name": "F#3",
                    "midi": 54,
                    "time": 7.506432499999998,
                    "velocity": 0.1968503937007874,
                    "duration": 0.21446949999999987
                },
                {
                    "name": "C#4",
                    "midi": 61,
                    "time": 7.506432499999998,
                    "velocity": 0.2283464566929134,
                    "duration": 0.21446949999999987
                },
                {
                    "name": "D#3",
                    "midi": 51,
                    "time": 7.506432499999998,
                    "velocity": 0.1968503937007874,
                    "duration": 0.21446949999999987
                },
                {
                    "name": "C#3",
                    "midi": 49,
                    "time": 7.506432499999998,
                    "velocity": 0.1968503937007874,
                    "duration": 0.21446949999999987
                },
                {
                    "name": "C#4",
                    "midi": 61,
                    "time": 8.149840999999999,
                    "velocity": 0.2677165354330709,
                    "duration": 0.42893899999999974
                },
                {
                    "name": "F3",
                    "midi": 53,
                    "time": 8.149840999999999,
                    "velocity": 0.2204724409448819,
                    "duration": 0.42893899999999974
                },
                {
                    "name": "C#3",
                    "midi": 49,
                    "time": 8.149840999999999,
                    "velocity": 0.2204724409448819,
                    "duration": 0.42893899999999974
                },
                {
                    "name": "F3",
                    "midi": 53,
                    "time": 9.007718999999998,
                    "velocity": 0.1968503937007874,
                    "duration": 0.42893899999999974
                },
                {
                    "name": "C#4",
                    "midi": 61,
                    "time": 9.007718999999998,
                    "velocity": 0.23622047244094488,
                    "duration": 0.42893899999999974
                },
                {
                    "name": "C#3",
                    "midi": 49,
                    "time": 9.007718999999998,
                    "velocity": 0.1968503937007874,
                    "duration": 0.42893899999999974
                },
                {
                    "name": "C#4",
                    "midi": 61,
                    "time": 9.865596999999998,
                    "velocity": 0.2204724409448819,
                    "duration": 0.42893899999999974
                },
                {
                    "name": "F3",
                    "midi": 53,
                    "time": 9.865596999999998,
                    "velocity": 0.18110236220472442,
                    "duration": 0.42893899999999974
                },
                {
                    "name": "C#3",
                    "midi": 49,
                    "time": 9.865596999999998,
                    "velocity": 0.18110236220472442,
                    "duration": 0.42893899999999974
                },
                {
                    "name": "C#3",
                    "midi": 49,
                    "time": 10.723474999999997,
                    "velocity": 0.14960629921259844,
                    "duration": 0.42893899999999974
                },
                {
                    "name": "C#4",
                    "midi": 61,
                    "time": 10.723474999999997,
                    "velocity": 0.1889763779527559,
                    "duration": 0.42893899999999974
                },
                {
                    "name": "F3",
                    "midi": 53,
                    "time": 10.723474999999997,
                    "velocity": 0.14960629921259844,
                    "duration": 0.42893899999999974
                },
                {
                    "name": "C#4",
                    "midi": 61,
                    "time": 11.581352999999996,
                    "velocity": 0.1732283464566929,
                    "duration": 0.42893899999999974
                },
                {
                    "name": "F3",
                    "midi": 53,
                    "time": 11.581352999999996,
                    "velocity": 0.14173228346456693,
                    "duration": 0.42893899999999974
                },
                {
                    "name": "C#3",
                    "midi": 49,
                    "time": 11.581352999999996,
                    "velocity": 0.14173228346456693,
                    "duration": 0.42893899999999974
                },
                {
                    "name": "F#3",
                    "midi": 54,
                    "time": 15.441803999999996,
                    "velocity": 0.2992125984251969,
                    "duration": 0.21446949999999987
                },
                {
                    "name": "A#3",
                    "midi": 58,
                    "time": 15.441803999999996,
                    "velocity": 0.3858267716535433,
                    "duration": 0.21446949999999987
                },
                {
                    "name": "F#3",
                    "midi": 54,
                    "time": 15.870742999999996,
                    "velocity": 0.31496062992125984,
                    "duration": 1.286817000000001
                },
                {
                    "name": "A#3",
                    "midi": 58,
                    "time": 15.870742999999996,
                    "velocity": 0.41732283464566927,
                    "duration": 1.286817000000001
                },
                {
                    "name": "C4",
                    "midi": 60,
                    "time": 16.299681999999997,
                    "velocity": 0.3779527559055118,
                    "duration": 0.42893899999999974
                },
                {
                    "name": "D#4",
                    "midi": 63,
                    "time": 16.728620999999997,
                    "velocity": 0.3937007874015748,
                    "duration": 0.21446949999999987
                },
                {
                    "name": "A#3",
                    "midi": 58,
                    "time": 17.157559999999997,
                    "velocity": 0.3228346456692913,
                    "duration": 0.8578779999999995
                },
                {
                    "name": "F#3",
                    "midi": 54,
                    "time": 17.157559999999997,
                    "velocity": 0.3228346456692913,
                    "duration": 0.8578779999999995
                },
                {
                    "name": "D#4",
                    "midi": 63,
                    "time": 17.157559999999997,
                    "velocity": 0.4330708661417323,
                    "duration": 0.42893899999999974
                },
                {
                    "name": "C4",
                    "midi": 60,
                    "time": 17.586498999999996,
                    "velocity": 0.3779527559055118,
                    "duration": 0.42893899999999974
                },
                {
                    "name": "F3",
                    "midi": 53,
                    "time": 18.015437999999996,
                    "velocity": 0.2992125984251969,
                    "duration": 0.21446949999999987
                },
                {
                    "name": "G#3",
                    "midi": 56,
                    "time": 18.015437999999996,
                    "velocity": 0.2992125984251969,
                    "duration": 0.21446949999999987
                },
                {
                    "name": "C#4",
                    "midi": 61,
                    "time": 18.015437999999996,
                    "velocity": 0.36220472440944884,
                    "duration": 0.21446949999999987
                },
                {
                    "name": "F3",
                    "midi": 53,
                    "time": 18.444376999999996,
                    "velocity": 0.30708661417322836,
                    "duration": 1.2868169999999992
                },
                {
                    "name": "C#4",
                    "midi": 61,
                    "time": 18.444376999999996,
                    "velocity": 0.3779527559055118,
                    "duration": 0.42893899999999974
                },
                {
                    "name": "C4",
                    "midi": 60,
                    "time": 18.873315999999996,
                    "velocity": 0.3700787401574803,
                    "duration": 0.42893899999999974
                },
                {
                    "name": "G#3",
                    "midi": 56,
                    "time": 19.302254999999995,
                    "velocity": 0.3543307086614173,
                    "duration": 0.42893899999999974
                },
                {
                    "name": "F3",
                    "midi": 53,
                    "time": 19.731193999999995,
                    "velocity": 0.33070866141732286,
                    "duration": 0.8578779999999995
                },
                {
                    "name": "D#3",
                    "midi": 51,
                    "time": 20.589071999999994,
                    "velocity": 0.2992125984251969,
                    "duration": 0.21446949999999987
                },
                {
                    "name": "F#3",
                    "midi": 54,
                    "time": 20.589071999999994,
                    "velocity": 0.3858267716535433,
                    "duration": 0.21446949999999987
                },
                {
                    "name": "D#3",
                    "midi": 51,
                    "time": 21.018010999999994,
                    "velocity": 0.31496062992125984,
                    "duration": 1.2868169999999992
                },
                {
                    "name": "F#3",
                    "midi": 54,
                    "time": 21.018010999999994,
                    "velocity": 0.41732283464566927,
                    "duration": 1.2868169999999992
                },
                {
                    "name": "A#3",
                    "midi": 58,
                    "time": 21.446949999999994,
                    "velocity": 0.3779527559055118,
                    "duration": 0.42893899999999974
                },
                {
                    "name": "C4",
                    "midi": 60,
                    "time": 21.875888999999994,
                    "velocity": 0.3937007874015748,
                    "duration": 0.21446949999999987
                },
                {
                    "name": "F#3",
                    "midi": 54,
                    "time": 22.304827999999993,
                    "velocity": 0.3228346456692913,
                    "duration": 0.8578779999999995
                },
                {
                    "name": "D#3",
                    "midi": 51,
                    "time": 22.304827999999993,
                    "velocity": 0.3228346456692913,
                    "duration": 0.8578779999999995
                },
                {
                    "name": "C4",
                    "midi": 60,
                    "time": 22.304827999999993,
                    "velocity": 0.4330708661417323,
                    "duration": 0.42893899999999974
                },
                {
                    "name": "G#3",
                    "midi": 56,
                    "time": 22.733766999999993,
                    "velocity": 0.3779527559055118,
                    "duration": 0.42893899999999974
                },
                {
                    "name": "G#3",
                    "midi": 56,
                    "time": 23.162705999999993,
                    "velocity": 0.2992125984251969,
                    "duration": 0.21446949999999987
                },
                {
                    "name": "C#4",
                    "midi": 61,
                    "time": 23.162705999999993,
                    "velocity": 0.36220472440944884,
                    "duration": 0.21446949999999987
                },
                {
                    "name": "F3",
                    "midi": 53,
                    "time": 23.591644999999993,
                    "velocity": 0.30708661417322836,
                    "duration": 1.2868169999999992
                },
                {
                    "name": "C#4",
                    "midi": 61,
                    "time": 23.591644999999993,
                    "velocity": 0.3779527559055118,
                    "duration": 0.8578779999999995
                },
                {
                    "name": "C4",
                    "midi": 60,
                    "time": 24.449522999999992,
                    "velocity": 0.3543307086614173,
                    "duration": 0.21446949999999987
                },
                {
                    "name": "F3",
                    "midi": 53,
                    "time": 24.878461999999992,
                    "velocity": 0.30708661417322836,
                    "duration": 0.8578779999999995
                },
                {
                    "name": "C4",
                    "midi": 60,
                    "time": 24.878461999999992,
                    "velocity": 0.3700787401574803,
                    "duration": 0.8578779999999995
                },
                {
                    "name": "F#3",
                    "midi": 54,
                    "time": 25.73633999999999,
                    "velocity": 0.2992125984251969,
                    "duration": 0.21446949999999987
                },
                {
                    "name": "A#3",
                    "midi": 58,
                    "time": 25.73633999999999,
                    "velocity": 0.3858267716535433,
                    "duration": 0.21446949999999987
                },
                {
                    "name": "F#3",
                    "midi": 54,
                    "time": 26.16527899999999,
                    "velocity": 0.31496062992125984,
                    "duration": 1.2868169999999992
                },
                {
                    "name": "A#3",
                    "midi": 58,
                    "time": 26.16527899999999,
                    "velocity": 0.41732283464566927,
                    "duration": 1.2868169999999992
                },
                {
                    "name": "C4",
                    "midi": 60,
                    "time": 26.59421799999999,
                    "velocity": 0.3779527559055118,
                    "duration": 0.42893899999999974
                },
                {
                    "name": "D#4",
                    "midi": 63,
                    "time": 27.02315699999999,
                    "velocity": 0.3937007874015748,
                    "duration": 0.21446949999999987
                },
                {
                    "name": "A#3",
                    "midi": 58,
                    "time": 27.45209599999999,
                    "velocity": 0.3228346456692913,
                    "duration": 0.8578779999999995
                },
                {
                    "name": "F#3",
                    "midi": 54,
                    "time": 27.45209599999999,
                    "velocity": 0.3228346456692913,
                    "duration": 0.8578779999999995
                },
                {
                    "name": "D#4",
                    "midi": 63,
                    "time": 27.45209599999999,
                    "velocity": 0.4330708661417323,
                    "duration": 0.42893899999999974
                },
                {
                    "name": "C4",
                    "midi": 60,
                    "time": 27.88103499999999,
                    "velocity": 0.3779527559055118,
                    "duration": 0.42893899999999974
                },
                {
                    "name": "F3",
                    "midi": 53,
                    "time": 28.30997399999999,
                    "velocity": 0.2992125984251969,
                    "duration": 0.21446949999999987
                },
                {
                    "name": "G#3",
                    "midi": 56,
                    "time": 28.30997399999999,
                    "velocity": 0.2992125984251969,
                    "duration": 0.21446949999999987
                },
                {
                    "name": "C#4",
                    "midi": 61,
                    "time": 28.30997399999999,
                    "velocity": 0.36220472440944884,
                    "duration": 0.21446949999999987
                },
                {
                    "name": "F3",
                    "midi": 53,
                    "time": 28.73891299999999,
                    "velocity": 0.30708661417322836,
                    "duration": 1.2868169999999992
                },
                {
                    "name": "C#4",
                    "midi": 61,
                    "time": 28.73891299999999,
                    "velocity": 0.3779527559055118,
                    "duration": 0.42893899999999974
                },
                {
                    "name": "C4",
                    "midi": 60,
                    "time": 29.16785199999999,
                    "velocity": 0.3700787401574803,
                    "duration": 0.21446949999999987
                },
                {
                    "name": "C#4",
                    "midi": 61,
                    "time": 29.38232149999999,
                    "velocity": 0.33070866141732286,
                    "duration": 0.10723474999999993
                },
                {
                    "name": "C4",
                    "midi": 60,
                    "time": 29.48955624999999,
                    "velocity": 0.2992125984251969,
                    "duration": 0.10723474999999993
                },
                {
                    "name": "G#3",
                    "midi": 56,
                    "time": 29.59679099999999,
                    "velocity": 0.3543307086614173,
                    "duration": 0.42893899999999974
                },
                {
                    "name": "F3",
                    "midi": 53,
                    "time": 30.02572999999999,
                    "velocity": 0.33070866141732286,
                    "duration": 0.8578779999999995
                },
                {
                    "name": "A#3",
                    "midi": 58,
                    "time": 30.883607999999988,
                    "velocity": 0.2992125984251969,
                    "duration": 0.21446949999999987
                },
                {
                    "name": "F#3",
                    "midi": 54,
                    "time": 30.883607999999988,
                    "velocity": 0.2992125984251969,
                    "duration": 0.21446949999999987
                },
                {
                    "name": "D#4",
                    "midi": 63,
                    "time": 30.883607999999988,
                    "velocity": 0.3858267716535433,
                    "duration": 0.21446949999999987
                },
                {
                    "name": "D#4",
                    "midi": 63,
                    "time": 31.312546999999988,
                    "velocity": 0.41732283464566927,
                    "duration": 0.42893899999999974
                },
                {
                    "name": "F#3",
                    "midi": 54,
                    "time": 31.312546999999988,
                    "velocity": 0.31496062992125984,
                    "duration": 1.2868169999999992
                },
                {
                    "name": "A#3",
                    "midi": 58,
                    "time": 31.312546999999988,
                    "velocity": 0.41732283464566927,
                    "duration": 1.2868169999999992
                },
                {
                    "name": "F4",
                    "midi": 65,
                    "time": 31.741485999999988,
                    "velocity": 0.41732283464566927,
                    "duration": 0.42893899999999974
                },
                {
                    "name": "F#4",
                    "midi": 66,
                    "time": 32.17042499999999,
                    "velocity": 0.4645669291338583,
                    "duration": 0.21446949999999987
                },
                {
                    "name": "A#3",
                    "midi": 58,
                    "time": 32.59936399999999,
                    "velocity": 0.3228346456692913,
                    "duration": 0.42893899999999974
                },
                {
                    "name": "F#4",
                    "midi": 66,
                    "time": 32.59936399999999,
                    "velocity": 0.44881889763779526,
                    "duration": 0.42893899999999974
                },
                {
                    "name": "C4",
                    "midi": 60,
                    "time": 33.02830299999999,
                    "velocity": 0.3228346456692913,
                    "duration": 0.42893899999999974
                },
                {
                    "name": "F4",
                    "midi": 65,
                    "time": 33.02830299999999,
                    "velocity": 0.4094488188976378,
                    "duration": 0.42893899999999974
                },
                {
                    "name": "F3",
                    "midi": 53,
                    "time": 33.45724199999999,
                    "velocity": 0.2992125984251969,
                    "duration": 2.5736339999999984
                },
                {
                    "name": "C#4",
                    "midi": 61,
                    "time": 33.45724199999999,
                    "velocity": 0.36220472440944884,
                    "duration": 2.5736339999999984
                },
                {
                    "name": "B3",
                    "midi": 59,
                    "time": 36.030875999999985,
                    "velocity": 0.4409448818897638,
                    "duration": 0.42893899999999974
                },
                {
                    "name": "D4",
                    "midi": 62,
                    "time": 36.030875999999985,
                    "velocity": 0.4409448818897638,
                    "duration": 0.42893899999999974
                },
                {
                    "name": "F4",
                    "midi": 65,
                    "time": 36.030875999999985,
                    "velocity": 0.4409448818897638,
                    "duration": 0.42893899999999974
                },
                {
                    "name": "G#4",
                    "midi": 68,
                    "time": 36.030875999999985,
                    "velocity": 0.5669291338582677,
                    "duration": 0.42893899999999974
                },
                {
                    "name": "B3",
                    "midi": 59,
                    "time": 36.459814999999985,
                    "velocity": 0.47244094488188976,
                    "duration": 1.2868169999999992
                },
                {
                    "name": "D4",
                    "midi": 62,
                    "time": 36.459814999999985,
                    "velocity": 0.47244094488188976,
                    "duration": 1.2868169999999992
                },
                {
                    "name": "F4",
                    "midi": 65,
                    "time": 36.459814999999985,
                    "velocity": 0.47244094488188976,
                    "duration": 1.2868169999999992
                },
                {
                    "name": "G#4",
                    "midi": 68,
                    "time": 36.459814999999985,
                    "velocity": 0.6220472440944882,
                    "duration": 0.6434084999999996
                },
                {
                    "name": "A#4",
                    "midi": 70,
                    "time": 37.103223499999984,
                    "velocity": 0.5590551181102362,
                    "duration": 0.21446949999999987
                },
                {
                    "name": "G#4",
                    "midi": 68,
                    "time": 37.317692999999984,
                    "velocity": 0.5748031496062992,
                    "duration": 0.21446949999999987
                },
                {
                    "name": "D4",
                    "midi": 62,
                    "time": 37.746631999999984,
                    "velocity": 0.4330708661417323,
                    "duration": 0.21446949999999987
                },
                {
                    "name": "B3",
                    "midi": 59,
                    "time": 37.746631999999984,
                    "velocity": 0.4330708661417323,
                    "duration": 0.21446949999999987
                },
                {
                    "name": "F#4",
                    "midi": 66,
                    "time": 37.746631999999984,
                    "velocity": 0.5669291338582677,
                    "duration": 0.21446949999999987
                },
                {
                    "name": "B3",
                    "midi": 59,
                    "time": 38.175570999999984,
                    "velocity": 0.4330708661417323,
                    "duration": 0.21446949999999987
                },
                {
                    "name": "D4",
                    "midi": 62,
                    "time": 38.175570999999984,
                    "velocity": 0.44881889763779526,
                    "duration": 0.21446949999999987
                },
                {
                    "name": "F4",
                    "midi": 65,
                    "time": 38.175570999999984,
                    "velocity": 0.5590551181102362,
                    "duration": 0.21446949999999987
                },
                {
                    "name": "F#4",
                    "midi": 66,
                    "time": 38.60450999999998,
                    "velocity": 0.5354330708661418,
                    "duration": 0.42893899999999974
                },
                {
                    "name": "A#3",
                    "midi": 58,
                    "time": 39.03344899999998,
                    "velocity": 0.44881889763779526,
                    "duration": 0.42893899999999974
                },
                {
                    "name": "D#4",
                    "midi": 63,
                    "time": 39.03344899999998,
                    "velocity": 0.44881889763779526,
                    "duration": 0.42893899999999974
                },
                {
                    "name": "F#4",
                    "midi": 66,
                    "time": 39.03344899999998,
                    "velocity": 0.5590551181102362,
                    "duration": 0.42893899999999974
                },
                {
                    "name": "F4",
                    "midi": 65,
                    "time": 39.46238799999998,
                    "velocity": 0.48031496062992124,
                    "duration": 0.10723475000000349
                },
                {
                    "name": "F#4",
                    "midi": 66,
                    "time": 39.569622749999986,
                    "velocity": 0.4330708661417323,
                    "duration": 0.10723475000000349
                },
                {
                    "name": "F4",
                    "midi": 65,
                    "time": 39.67685749999999,
                    "velocity": 0.48031496062992124,
                    "duration": 0.10723475000000349
                },
                {
                    "name": "D#4",
                    "midi": 63,
                    "time": 39.78409224999999,
                    "velocity": 0.4094488188976378,
                    "duration": 0.10187301250000047
                },
                {
                    "name": "D#4",
                    "midi": 63,
                    "time": 39.891327,
                    "velocity": 0.5196850393700787,
                    "duration": 1.2868169999999992
                },
                {
                    "name": "A#3",
                    "midi": 58,
                    "time": 40.320266,
                    "velocity": 0.4015748031496063,
                    "duration": 0.8578779999999995
                },
                {
                    "name": "F#3",
                    "midi": 54,
                    "time": 40.320266,
                    "velocity": 0.3779527559055118,
                    "duration": 0.8578779999999995
                },
                {
                    "name": "A3",
                    "midi": 57,
                    "time": 41.178143999999996,
                    "velocity": 0.5669291338582677,
                    "duration": 1.715756000000006
                },
                {
                    "name": "F4",
                    "midi": 65,
                    "time": 41.607082999999996,
                    "velocity": 0.5669291338582677,
                    "duration": 0.6434084999999996
                },
                {
                    "name": "D#4",
                    "midi": 63,
                    "time": 42.250491499999995,
                    "velocity": 0.5196850393700787,
                    "duration": 0.10723475000000349
                },
                {
                    "name": "F4",
                    "midi": 65,
                    "time": 42.35772625,
                    "velocity": 0.44881889763779526,
                    "duration": 0.10723475000000349
                },
                {
                    "name": "D#4",
                    "midi": 63,
                    "time": 42.464961,
                    "velocity": 0.5748031496062992,
                    "duration": 0.42893899999999974
                },
                {
                    "name": "F4",
                    "midi": 65,
                    "time": 42.8939,
                    "velocity": 0.44881889763779526,
                    "duration": 0.8578779999999995
                },
                {
                    "name": "A3",
                    "midi": 57,
                    "time": 42.8939,
                    "velocity": 0.4330708661417323,
                    "duration": 0.8578779999999995
                },
                {
                    "name": "C#4",
                    "midi": 61,
                    "time": 42.8939,
                    "velocity": 0.5433070866141733,
                    "duration": 0.42893899999999974
                },
                {
                    "name": "C4",
                    "midi": 60,
                    "time": 43.322839,
                    "velocity": 0.5433070866141733,
                    "duration": 0.42893899999999974
                },
                {
                    "name": "C#4",
                    "midi": 61,
                    "time": 43.751778,
                    "velocity": 0.5354330708661418,
                    "duration": 0.21446949999999987
                },
                {
                    "name": "F4",
                    "midi": 65,
                    "time": 44.180717,
                    "velocity": 0.4094488188976378,
                    "duration": 0.8578779999999995
                },
                {
                    "name": "A#3",
                    "midi": 58,
                    "time": 44.180717,
                    "velocity": 0.4094488188976378,
                    "duration": 0.8578779999999995
                },
                {
                    "name": "C#4",
                    "midi": 61,
                    "time": 44.180717,
                    "velocity": 0.5590551181102362,
                    "duration": 0.8578779999999995
                },
                {
                    "name": "C4",
                    "midi": 60,
                    "time": 45.038595,
                    "velocity": 0.5196850393700787,
                    "duration": 0.21446949999999987
                },
                {
                    "name": "F4",
                    "midi": 65,
                    "time": 45.467534,
                    "velocity": 0.41732283464566927,
                    "duration": 0.8578779999999995
                },
                {
                    "name": "G#3",
                    "midi": 56,
                    "time": 45.467534,
                    "velocity": 0.4015748031496063,
                    "duration": 0.8578779999999995
                },
                {
                    "name": "C4",
                    "midi": 60,
                    "time": 45.467534,
                    "velocity": 0.5433070866141733,
                    "duration": 0.8578779999999995
                },
                {
                    "name": "B3",
                    "midi": 59,
                    "time": 46.325412,
                    "velocity": 0.4409448818897638,
                    "duration": 0.42893899999999974
                },
                {
                    "name": "D4",
                    "midi": 62,
                    "time": 46.325412,
                    "velocity": 0.4409448818897638,
                    "duration": 0.42893899999999974
                },
                {
                    "name": "F4",
                    "midi": 65,
                    "time": 46.325412,
                    "velocity": 0.4409448818897638,
                    "duration": 0.42893899999999974
                },
                {
                    "name": "G#4",
                    "midi": 68,
                    "time": 46.325412,
                    "velocity": 0.5669291338582677,
                    "duration": 0.42893899999999974
                },
                {
                    "name": "B3",
                    "midi": 59,
                    "time": 46.754351,
                    "velocity": 0.47244094488188976,
                    "duration": 1.2868169999999992
                },
                {
                    "name": "D4",
                    "midi": 62,
                    "time": 46.754351,
                    "velocity": 0.47244094488188976,
                    "duration": 1.2868169999999992
                },
                {
                    "name": "F4",
                    "midi": 65,
                    "time": 46.754351,
                    "velocity": 0.47244094488188976,
                    "duration": 1.2868169999999992
                },
                {
                    "name": "G#4",
                    "midi": 68,
                    "time": 46.754351,
                    "velocity": 0.6220472440944882,
                    "duration": 0.6434084999999996
                },
                {
                    "name": "A#4",
                    "midi": 70,
                    "time": 47.3977595,
                    "velocity": 0.5590551181102362,
                    "duration": 0.21446949999999987
                },
                {
                    "name": "G#4",
                    "midi": 68,
                    "time": 47.612229,
                    "velocity": 0.5748031496062992,
                    "duration": 0.21446949999999987
                },
                {
                    "name": "D4",
                    "midi": 62,
                    "time": 48.041168,
                    "velocity": 0.4330708661417323,
                    "duration": 0.21446949999999987
                },
                {
                    "name": "B3",
                    "midi": 59,
                    "time": 48.041168,
                    "velocity": 0.4330708661417323,
                    "duration": 0.21446949999999987
                },
                {
                    "name": "F#4",
                    "midi": 66,
                    "time": 48.041168,
                    "velocity": 0.5669291338582677,
                    "duration": 0.21446949999999987
                },
                {
                    "name": "B3",
                    "midi": 59,
                    "time": 48.470107,
                    "velocity": 0.4330708661417323,
                    "duration": 0.21446949999999987
                },
                {
                    "name": "D4",
                    "midi": 62,
                    "time": 48.470107,
                    "velocity": 0.44881889763779526,
                    "duration": 0.21446949999999987
                },
                {
                    "name": "F4",
                    "midi": 65,
                    "time": 48.470107,
                    "velocity": 0.5590551181102362,
                    "duration": 0.21446949999999987
                },
                {
                    "name": "F#4",
                    "midi": 66,
                    "time": 48.899046,
                    "velocity": 0.5354330708661418,
                    "duration": 0.42893899999999974
                },
                {
                    "name": "A#3",
                    "midi": 58,
                    "time": 49.327985,
                    "velocity": 0.44881889763779526,
                    "duration": 0.42893899999999974
                },
                {
                    "name": "D#4",
                    "midi": 63,
                    "time": 49.327985,
                    "velocity": 0.44881889763779526,
                    "duration": 0.42893899999999974
                },
                {
                    "name": "F#4",
                    "midi": 66,
                    "time": 49.327985,
                    "velocity": 0.5590551181102362,
                    "duration": 0.42893899999999974
                },
                {
                    "name": "F4",
                    "midi": 65,
                    "time": 49.756924,
                    "velocity": 0.48031496062992124,
                    "duration": 0.10723475000000349
                },
                {
                    "name": "F#4",
                    "midi": 66,
                    "time": 49.86415875,
                    "velocity": 0.4330708661417323,
                    "duration": 0.10723475000000349
                },
                {
                    "name": "F4",
                    "midi": 65,
                    "time": 49.971393500000005,
                    "velocity": 0.48031496062992124,
                    "duration": 0.10723475000000349
                },
                {
                    "name": "D#4",
                    "midi": 63,
                    "time": 50.07862825000001,
                    "velocity": 0.4094488188976378,
                    "duration": 0.10187301250000047
                },
                {
                    "name": "D#4",
                    "midi": 63,
                    "time": 50.18586300000001,
                    "velocity": 0.5196850393700787,
                    "duration": 1.2868169999999992
                },
                {
                    "name": "A#3",
                    "midi": 58,
                    "time": 50.61480200000001,
                    "velocity": 0.4015748031496063,
                    "duration": 0.8578779999999995
                },
                {
                    "name": "F#3",
                    "midi": 54,
                    "time": 50.61480200000001,
                    "velocity": 0.3779527559055118,
                    "duration": 0.8578779999999995
                },
                {
                    "name": "A3",
                    "midi": 57,
                    "time": 51.47268000000001,
                    "velocity": 0.5669291338582677,
                    "duration": 1.715756000000006
                },
                {
                    "name": "F4",
                    "midi": 65,
                    "time": 51.90161900000001,
                    "velocity": 0.5748031496062992,
                    "duration": 0.6434084999999996
                },
                {
                    "name": "D#4",
                    "midi": 63,
                    "time": 52.54502750000001,
                    "velocity": 0.5196850393700787,
                    "duration": 0.10723475000000349
                },
                {
                    "name": "F4",
                    "midi": 65,
                    "time": 52.652262250000014,
                    "velocity": 0.44881889763779526,
                    "duration": 0.10723475000000349
                },
                {
                    "name": "D#4",
                    "midi": 63,
                    "time": 52.75949700000002,
                    "velocity": 0.5748031496062992,
                    "duration": 0.42893899999999974
                },
                {
                    "name": "F4",
                    "midi": 65,
                    "time": 53.18843600000002,
                    "velocity": 0.44881889763779526,
                    "duration": 0.8578779999999995
                },
                {
                    "name": "A3",
                    "midi": 57,
                    "time": 53.18843600000002,
                    "velocity": 0.4330708661417323,
                    "duration": 0.8578779999999995
                },
                {
                    "name": "C#4",
                    "midi": 61,
                    "time": 53.18843600000002,
                    "velocity": 0.5433070866141733,
                    "duration": 0.42893899999999974
                },
                {
                    "name": "C4",
                    "midi": 60,
                    "time": 53.61737500000002,
                    "velocity": 0.5433070866141733,
                    "duration": 0.42893899999999974
                },
                {
                    "name": "C#4",
                    "midi": 61,
                    "time": 54.04631400000002,
                    "velocity": 0.5354330708661418,
                    "duration": 0.21446949999999987
                },
                {
                    "name": "F4",
                    "midi": 65,
                    "time": 54.475253000000016,
                    "velocity": 0.4094488188976378,
                    "duration": 0.8578779999999995
                },
                {
                    "name": "A#3",
                    "midi": 58,
                    "time": 54.475253000000016,
                    "velocity": 0.4094488188976378,
                    "duration": 0.8578779999999995
                },
                {
                    "name": "C#4",
                    "midi": 61,
                    "time": 54.475253000000016,
                    "velocity": 0.5590551181102362,
                    "duration": 0.8578779999999995
                },
                {
                    "name": "C4",
                    "midi": 60,
                    "time": 55.333131000000016,
                    "velocity": 0.5196850393700787,
                    "duration": 0.21446949999999987
                },
                {
                    "name": "F4",
                    "midi": 65,
                    "time": 55.762070000000016,
                    "velocity": 0.41732283464566927,
                    "duration": 0.8578779999999995
                },
                {
                    "name": "G#3",
                    "midi": 56,
                    "time": 55.762070000000016,
                    "velocity": 0.4015748031496063,
                    "duration": 0.8578779999999995
                },
                {
                    "name": "C4",
                    "midi": 60,
                    "time": 55.762070000000016,
                    "velocity": 0.5433070866141733,
                    "duration": 0.8578779999999995
                },
                {
                    "name": "F#4",
                    "midi": 66,
                    "time": 56.619948000000015,
                    "velocity": 0.3937007874015748,
                    "duration": 0.21446949999999987
                },
                {
                    "name": "A#4",
                    "midi": 70,
                    "time": 56.619948000000015,
                    "velocity": 0.5039370078740157,
                    "duration": 0.21446949999999987
                },
                {
                    "name": "F#4",
                    "midi": 66,
                    "time": 57.048887000000015,
                    "velocity": 0.4094488188976378,
                    "duration": 1.2868169999999992
                },
                {
                    "name": "A#4",
                    "midi": 70,
                    "time": 57.048887000000015,
                    "velocity": 0.5433070866141733,
                    "duration": 1.2868169999999992
                },
                {
                    "name": "C5",
                    "midi": 72,
                    "time": 57.477826000000015,
                    "velocity": 0.4881889763779528,
                    "duration": 0.42893899999999974
                },
                {
                    "name": "D#5",
                    "midi": 75,
                    "time": 57.906765000000014,
                    "velocity": 0.5196850393700787,
                    "duration": 0.21446949999999987
                },
                {
                    "name": "A#4",
                    "midi": 70,
                    "time": 58.335704000000014,
                    "velocity": 0.41732283464566927,
                    "duration": 0.8578779999999995
                },
                {
                    "name": "F#4",
                    "midi": 66,
                    "time": 58.335704000000014,
                    "velocity": 0.41732283464566927,
                    "duration": 0.8578779999999995
                },
                {
                    "name": "D#5",
                    "midi": 75,
                    "time": 58.335704000000014,
                    "velocity": 0.5669291338582677,
                    "duration": 0.42893899999999974
                },
                {
                    "name": "C5",
                    "midi": 72,
                    "time": 58.764643000000014,
                    "velocity": 0.4881889763779528,
                    "duration": 0.42893899999999974
                },
                {
                    "name": "F4",
                    "midi": 65,
                    "time": 59.19358200000001,
                    "velocity": 0.3937007874015748,
                    "duration": 0.21446949999999987
                },
                {
                    "name": "G#4",
                    "midi": 68,
                    "time": 59.19358200000001,
                    "velocity": 0.3937007874015748,
                    "duration": 0.21446949999999987
                },
                {
                    "name": "C#5",
                    "midi": 73,
                    "time": 59.19358200000001,
                    "velocity": 0.47244094488188976,
                    "duration": 0.21446949999999987
                },
                {
                    "name": "G#4",
                    "midi": 68,
                    "time": 59.62252100000001,
                    "velocity": 0.4015748031496063,
                    "duration": 0.8578780000000066
                },
                {
                    "name": "F4",
                    "midi": 65,
                    "time": 59.62252100000001,
                    "velocity": 0.4015748031496063,
                    "duration": 0.8578780000000066
                },
                {
                    "name": "C#5",
                    "midi": 73,
                    "time": 59.62252100000001,
                    "velocity": 0.4881889763779528,
                    "duration": 0.42893899999999974
                },
                {
                    "name": "C5",
                    "midi": 72,
                    "time": 60.05146000000001,
                    "velocity": 0.4409448818897638,
                    "duration": 0.14297966666666895
                },
                {
                    "name": "C#5",
                    "midi": 73,
                    "time": 60.19443966666668,
                    "velocity": 0.4094488188976378,
                    "duration": 0.14297966666666895
                },
                {
                    "name": "C5",
                    "midi": 72,
                    "time": 60.33741933333335,
                    "velocity": 0.4094488188976378,
                    "duration": 0.14297966666666895
                },
                {
                    "name": "G#4",
                    "midi": 68,
                    "time": 60.48039900000002,
                    "velocity": 0.4566929133858268,
                    "duration": 1.2868169999999992
                },
                {
                    "name": "F4",
                    "midi": 65,
                    "time": 60.90933800000002,
                    "velocity": 0.4330708661417323,
                    "duration": 0.8578779999999995
                },
                {
                    "name": "D#4",
                    "midi": 63,
                    "time": 61.76721600000002,
                    "velocity": 0.3937007874015748,
                    "duration": 0.21446949999999987
                },
                {
                    "name": "F#4",
                    "midi": 66,
                    "time": 61.76721600000002,
                    "velocity": 0.5039370078740157,
                    "duration": 0.21446949999999987
                },
                {
                    "name": "D#4",
                    "midi": 63,
                    "time": 62.19615500000002,
                    "velocity": 0.4094488188976378,
                    "duration": 1.2868169999999992
                },
                {
                    "name": "F#4",
                    "midi": 66,
                    "time": 62.19615500000002,
                    "velocity": 0.5433070866141733,
                    "duration": 1.2868169999999992
                },
                {
                    "name": "A#4",
                    "midi": 70,
                    "time": 62.62509400000002,
                    "velocity": 0.4881889763779528,
                    "duration": 0.42893899999999974
                },
                {
                    "name": "C5",
                    "midi": 72,
                    "time": 63.05403300000002,
                    "velocity": 0.5196850393700787,
                    "duration": 0.21446949999999987
                },
                {
                    "name": "F#4",
                    "midi": 66,
                    "time": 63.48297200000002,
                    "velocity": 0.41732283464566927,
                    "duration": 0.8578779999999995
                },
                {
                    "name": "D#4",
                    "midi": 63,
                    "time": 63.48297200000002,
                    "velocity": 0.41732283464566927,
                    "duration": 0.8578779999999995
                },
                {
                    "name": "C5",
                    "midi": 72,
                    "time": 63.48297200000002,
                    "velocity": 0.5433070866141733,
                    "duration": 0.42893899999999974
                },
                {
                    "name": "G#4",
                    "midi": 68,
                    "time": 63.91191100000002,
                    "velocity": 0.4881889763779528,
                    "duration": 0.42893899999999974
                },
                {
                    "name": "F4",
                    "midi": 65,
                    "time": 64.34085000000002,
                    "velocity": 0.3937007874015748,
                    "duration": 0.21446950000000697
                },
                {
                    "name": "C#5",
                    "midi": 73,
                    "time": 64.34085000000002,
                    "velocity": 0.47244094488188976,
                    "duration": 0.21446950000000697
                },
                {
                    "name": "G#4",
                    "midi": 68,
                    "time": 64.76978900000003,
                    "velocity": 0.4015748031496063,
                    "duration": 1.2868170000000134
                },
                {
                    "name": "F4",
                    "midi": 65,
                    "time": 64.76978900000003,
                    "velocity": 0.4015748031496063,
                    "duration": 1.2868170000000134
                },
                {
                    "name": "C#5",
                    "midi": 73,
                    "time": 64.76978900000003,
                    "velocity": 0.4881889763779528,
                    "duration": 0.8578779999999995
                },
                {
                    "name": "C5",
                    "midi": 72,
                    "time": 65.62766700000003,
                    "velocity": 0.4566929133858268,
                    "duration": 0.21446950000000697
                },
                {
                    "name": "G#4",
                    "midi": 68,
                    "time": 66.05660600000004,
                    "velocity": 0.4015748031496063,
                    "duration": 0.8578779999999995
                },
                {
                    "name": "F4",
                    "midi": 65,
                    "time": 66.05660600000004,
                    "velocity": 0.4015748031496063,
                    "duration": 0.8578779999999995
                },
                {
                    "name": "C5",
                    "midi": 72,
                    "time": 66.05660600000004,
                    "velocity": 0.48031496062992124,
                    "duration": 0.8578779999999995
                },
                {
                    "name": "F#4",
                    "midi": 66,
                    "time": 66.91448400000004,
                    "velocity": 0.3937007874015748,
                    "duration": 0.21446950000000697
                },
                {
                    "name": "A#4",
                    "midi": 70,
                    "time": 66.91448400000004,
                    "velocity": 0.5039370078740157,
                    "duration": 0.21446950000000697
                },
                {
                    "name": "F#4",
                    "midi": 66,
                    "time": 67.34342300000006,
                    "velocity": 0.4094488188976378,
                    "duration": 1.2868170000000134
                },
                {
                    "name": "A#4",
                    "midi": 70,
                    "time": 67.34342300000006,
                    "velocity": 0.5433070866141733,
                    "duration": 1.2868170000000134
                },
                {
                    "name": "C5",
                    "midi": 72,
                    "time": 67.77236200000006,
                    "velocity": 0.4881889763779528,
                    "duration": 0.42893899999999974
                },
                {
                    "name": "D#5",
                    "midi": 75,
                    "time": 68.20130100000006,
                    "velocity": 0.5196850393700787,
                    "duration": 0.21446950000000697
                },
                {
                    "name": "A#4",
                    "midi": 70,
                    "time": 68.63024000000007,
                    "velocity": 0.41732283464566927,
                    "duration": 0.8578779999999995
                },
                {
                    "name": "F#4",
                    "midi": 66,
                    "time": 68.63024000000007,
                    "velocity": 0.41732283464566927,
                    "duration": 0.8578779999999995
                },
                {
                    "name": "D#5",
                    "midi": 75,
                    "time": 68.63024000000007,
                    "velocity": 0.5590551181102362,
                    "duration": 0.42893899999999974
                },
                {
                    "name": "C5",
                    "midi": 72,
                    "time": 69.05917900000007,
                    "velocity": 0.4881889763779528,
                    "duration": 0.42893899999999974
                },
                {
                    "name": "F4",
                    "midi": 65,
                    "time": 69.48811800000007,
                    "velocity": 0.3937007874015748,
                    "duration": 0.21446950000000697
                },
                {
                    "name": "G#4",
                    "midi": 68,
                    "time": 69.48811800000007,
                    "velocity": 0.3937007874015748,
                    "duration": 0.21446950000000697
                },
                {
                    "name": "C#5",
                    "midi": 73,
                    "time": 69.48811800000007,
                    "velocity": 0.47244094488188976,
                    "duration": 0.21446950000000697
                },
                {
                    "name": "G#4",
                    "midi": 68,
                    "time": 69.91705700000009,
                    "velocity": 0.4015748031496063,
                    "duration": 0.8578779999999853
                },
                {
                    "name": "F4",
                    "midi": 65,
                    "time": 69.91705700000009,
                    "velocity": 0.4015748031496063,
                    "duration": 0.8578779999999853
                },
                {
                    "name": "C#5",
                    "midi": 73,
                    "time": 69.91705700000009,
                    "velocity": 0.4881889763779528,
                    "duration": 0.42893899999999974
                },
                {
                    "name": "C5",
                    "midi": 72,
                    "time": 70.34599600000008,
                    "velocity": 0.4409448818897638,
                    "duration": 0.14297966666666184
                },
                {
                    "name": "C#5",
                    "midi": 73,
                    "time": 70.48897566666675,
                    "velocity": 0.4094488188976378,
                    "duration": 0.14297966666666184
                },
                {
                    "name": "C5",
                    "midi": 72,
                    "time": 70.63195533333341,
                    "velocity": 0.4094488188976378,
                    "duration": 0.14297966666666184
                },
                {
                    "name": "G#4",
                    "midi": 68,
                    "time": 70.77493500000007,
                    "velocity": 0.4566929133858268,
                    "duration": 1.2868169999999992
                },
                {
                    "name": "F4",
                    "midi": 65,
                    "time": 71.20387400000007,
                    "velocity": 0.4330708661417323,
                    "duration": 0.8578779999999995
                },
                {
                    "name": "A#4",
                    "midi": 70,
                    "time": 72.06175200000007,
                    "velocity": 0.3937007874015748,
                    "duration": 0.21446950000000697
                },
                {
                    "name": "F#4",
                    "midi": 66,
                    "time": 72.06175200000007,
                    "velocity": 0.3937007874015748,
                    "duration": 0.21446950000000697
                },
                {
                    "name": "D#5",
                    "midi": 75,
                    "time": 72.06175200000007,
                    "velocity": 0.5039370078740157,
                    "duration": 0.21446950000000697
                },
                {
                    "name": "A#4",
                    "midi": 70,
                    "time": 72.49069100000008,
                    "velocity": 0.4094488188976378,
                    "duration": 1.2868170000000134
                },
                {
                    "name": "F#4",
                    "midi": 66,
                    "time": 72.49069100000008,
                    "velocity": 0.4094488188976378,
                    "duration": 1.2868170000000134
                },
                {
                    "name": "D#5",
                    "midi": 75,
                    "time": 72.49069100000008,
                    "velocity": 0.5511811023622047,
                    "duration": 0.42893899999999974
                },
                {
                    "name": "F5",
                    "midi": 77,
                    "time": 72.91963000000008,
                    "velocity": 0.5511811023622047,
                    "duration": 0.42893899999999974
                },
                {
                    "name": "F#5",
                    "midi": 78,
                    "time": 73.34856900000008,
                    "velocity": 0.5669291338582677,
                    "duration": 0.21446950000000697
                },
                {
                    "name": "A#4",
                    "midi": 70,
                    "time": 73.7775080000001,
                    "velocity": 0.41732283464566927,
                    "duration": 0.42893899999999974
                },
                {
                    "name": "F#5",
                    "midi": 78,
                    "time": 73.7775080000001,
                    "velocity": 0.5669291338582677,
                    "duration": 0.42893899999999974
                },
                {
                    "name": "G#4",
                    "midi": 68,
                    "time": 74.2064470000001,
                    "velocity": 0.4015748031496063,
                    "duration": 0.42893899999999974
                },
                {
                    "name": "F5",
                    "midi": 77,
                    "time": 74.2064470000001,
                    "velocity": 0.5196850393700787,
                    "duration": 0.42893899999999974
                },
                {
                    "name": "F4",
                    "midi": 65,
                    "time": 74.6353860000001,
                    "velocity": 0.3937007874015748,
                    "duration": 1.17958225000001
                },
                {
                    "name": "C#5",
                    "midi": 73,
                    "time": 74.6353860000001,
                    "velocity": 0.47244094488188976,
                    "duration": 1.2868170000000134
                },
                {
                    "name": "F4",
                    "midi": 65,
                    "time": 75.7077335000001,
                    "velocity": 0.29133858267716534,
                    "duration": 0.21446950000000697
                },
                {
                    "name": "C#5",
                    "midi": 73,
                    "time": 75.92220300000011,
                    "velocity": 0.4015748031496063,
                    "duration": 1.2868169999999992
                },
                {
                    "name": "F4",
                    "midi": 65,
                    "time": 76.35114200000011,
                    "velocity": 0.31496062992125984,
                    "duration": 0.42893899999999974
                },
                {
                    "name": "C#5",
                    "midi": 73,
                    "time": 77.20902000000011,
                    "velocity": 0.36220472440944884,
                    "duration": 0.21446950000000697
                },
                {
                    "name": "F#5",
                    "midi": 78,
                    "time": 77.20902000000011,
                    "velocity": 0.36220472440944884,
                    "duration": 0.21446950000000697
                },
                {
                    "name": "A#5",
                    "midi": 82,
                    "time": 77.20902000000011,
                    "velocity": 0.4330708661417323,
                    "duration": 0.21446950000000697
                },
                {
                    "name": "C#5",
                    "midi": 73,
                    "time": 77.63795900000012,
                    "velocity": 0.3700787401574803,
                    "duration": 0.8578779999999995
                },
                {
                    "name": "F#5",
                    "midi": 78,
                    "time": 77.63795900000012,
                    "velocity": 0.3700787401574803,
                    "duration": 0.8578779999999995
                },
                {
                    "name": "A#5",
                    "midi": 82,
                    "time": 77.63795900000012,
                    "velocity": 0.44881889763779526,
                    "duration": 0.8578779999999995
                },
                {
                    "name": "C5",
                    "midi": 72,
                    "time": 78.49583700000012,
                    "velocity": 0.3700787401574803,
                    "duration": 0.21446950000000697
                },
                {
                    "name": "D#5",
                    "midi": 75,
                    "time": 78.49583700000012,
                    "velocity": 0.3700787401574803,
                    "duration": 0.21446950000000697
                },
                {
                    "name": "G#5",
                    "midi": 80,
                    "time": 78.49583700000012,
                    "velocity": 0.41732283464566927,
                    "duration": 0.21446950000000697
                },
                {
                    "name": "C5",
                    "midi": 72,
                    "time": 78.92477600000014,
                    "velocity": 0.3700787401574803,
                    "duration": 0.8578779999999995
                },
                {
                    "name": "D#5",
                    "midi": 75,
                    "time": 78.92477600000014,
                    "velocity": 0.3700787401574803,
                    "duration": 0.8578779999999995
                },
                {
                    "name": "G#5",
                    "midi": 80,
                    "time": 78.92477600000014,
                    "velocity": 0.4409448818897638,
                    "duration": 0.8578779999999995
                },
                {
                    "name": "F5",
                    "midi": 77,
                    "time": 79.78265400000014,
                    "velocity": 0.4330708661417323,
                    "duration": 0.21446950000000697
                },
                {
                    "name": "A#4",
                    "midi": 70,
                    "time": 79.78265400000014,
                    "velocity": 0.36220472440944884,
                    "duration": 0.21446950000000697
                },
                {
                    "name": "C#5",
                    "midi": 73,
                    "time": 79.78265400000014,
                    "velocity": 0.36220472440944884,
                    "duration": 0.21446950000000697
                },
                {
                    "name": "A#4",
                    "midi": 70,
                    "time": 80.21159300000015,
                    "velocity": 0.3700787401574803,
                    "duration": 0.8578779999999995
                },
                {
                    "name": "C#5",
                    "midi": 73,
                    "time": 80.21159300000015,
                    "velocity": 0.3700787401574803,
                    "duration": 0.8578779999999995
                },
                {
                    "name": "F5",
                    "midi": 77,
                    "time": 80.21159300000015,
                    "velocity": 0.44881889763779526,
                    "duration": 0.8578779999999995
                },
                {
                    "name": "B4",
                    "midi": 71,
                    "time": 81.06947100000015,
                    "velocity": 0.3700787401574803,
                    "duration": 0.42893900000001395
                },
                {
                    "name": "F5",
                    "midi": 77,
                    "time": 81.06947100000015,
                    "velocity": 0.3700787401574803,
                    "duration": 0.42893900000001395
                },
                {
                    "name": "G#5",
                    "midi": 80,
                    "time": 81.06947100000015,
                    "velocity": 0.41732283464566927,
                    "duration": 0.21446950000000697
                },
                {
                    "name": "A#5",
                    "midi": 82,
                    "time": 81.28394050000016,
                    "velocity": 0.4015748031496063,
                    "duration": 0.21446950000000697
                },
                {
                    "name": "G#5",
                    "midi": 80,
                    "time": 81.49841000000016,
                    "velocity": 0.41732283464566927,
                    "duration": 0.21446950000000697
                },
                {
                    "name": "B4",
                    "midi": 71,
                    "time": 81.49841000000016,
                    "velocity": 0.3700787401574803,
                    "duration": 0.8578780000000279
                },
                {
                    "name": "F5",
                    "midi": 77,
                    "time": 81.50913347500017,
                    "velocity": 0.3700787401574803,
                    "duration": 0.8471545250000219
                },
                {
                    "name": "F#5",
                    "midi": 78,
                    "time": 81.71287950000017,
                    "velocity": 0.3937007874015748,
                    "duration": 0.10723475000000349
                },
                {
                    "name": "G#5",
                    "midi": 80,
                    "time": 81.82011425000017,
                    "velocity": 0.3937007874015748,
                    "duration": 0.10723475000000349
                },
                {
                    "name": "F#5",
                    "midi": 78,
                    "time": 81.92734900000018,
                    "velocity": 0.41732283464566927,
                    "duration": 0.21446950000000697
                },
                {
                    "name": "F5",
                    "midi": 77,
                    "time": 82.14181850000018,
                    "velocity": 0.4015748031496063,
                    "duration": 0.225192975000013
                },
                {
                    "name": "A#4",
                    "midi": 70,
                    "time": 82.35628800000019,
                    "velocity": 0.36220472440944884,
                    "duration": 0.21446950000000697
                },
                {
                    "name": "D#5",
                    "midi": 75,
                    "time": 82.35628800000019,
                    "velocity": 0.36220472440944884,
                    "duration": 0.21446950000000697
                },
                {
                    "name": "F#5",
                    "midi": 78,
                    "time": 82.35628800000019,
                    "velocity": 0.4330708661417323,
                    "duration": 0.21446950000000697
                },
                {
                    "name": "A#4",
                    "midi": 70,
                    "time": 82.7852270000002,
                    "velocity": 0.3700787401574803,
                    "duration": 0.8578779999999995
                },
                {
                    "name": "D#5",
                    "midi": 75,
                    "time": 82.7852270000002,
                    "velocity": 0.3700787401574803,
                    "duration": 0.8578779999999995
                },
                {
                    "name": "F#5",
                    "midi": 78,
                    "time": 82.7852270000002,
                    "velocity": 0.44881889763779526,
                    "duration": 0.8578779999999995
                },
                {
                    "name": "G#4",
                    "midi": 68,
                    "time": 83.6431050000002,
                    "velocity": 0.3700787401574803,
                    "duration": 0.21446950000000697
                },
                {
                    "name": "C5",
                    "midi": 72,
                    "time": 83.6431050000002,
                    "velocity": 0.3700787401574803,
                    "duration": 0.21446950000000697
                },
                {
                    "name": "F5",
                    "midi": 77,
                    "time": 83.6431050000002,
                    "velocity": 0.41732283464566927,
                    "duration": 0.21446950000000697
                },
                {
                    "name": "G#4",
                    "midi": 68,
                    "time": 84.07204400000022,
                    "velocity": 0.3700787401574803,
                    "duration": 0.8578779999999995
                },
                {
                    "name": "C5",
                    "midi": 72,
                    "time": 84.07204400000022,
                    "velocity": 0.3700787401574803,
                    "duration": 0.8578779999999995
                },
                {
                    "name": "F5",
                    "midi": 77,
                    "time": 84.07204400000022,
                    "velocity": 0.4409448818897638,
                    "duration": 0.8578779999999995
                },
                {
                    "name": "C#5",
                    "midi": 73,
                    "time": 84.92992200000022,
                    "velocity": 0.4330708661417323,
                    "duration": 0.21446950000000697
                },
                {
                    "name": "F4",
                    "midi": 65,
                    "time": 84.92992200000022,
                    "velocity": 0.36220472440944884,
                    "duration": 0.21446950000000697
                },
                {
                    "name": "G#4",
                    "midi": 68,
                    "time": 84.92992200000022,
                    "velocity": 0.36220472440944884,
                    "duration": 0.21446950000000697
                },
                {
                    "name": "F4",
                    "midi": 65,
                    "time": 85.35886100000023,
                    "velocity": 0.3700787401574803,
                    "duration": 0.8578779999999995
                },
                {
                    "name": "G#4",
                    "midi": 68,
                    "time": 85.35886100000023,
                    "velocity": 0.3700787401574803,
                    "duration": 0.8578779999999995
                },
                {
                    "name": "C#5",
                    "midi": 73,
                    "time": 85.35886100000023,
                    "velocity": 0.44881889763779526,
                    "duration": 0.8578779999999995
                },
                {
                    "name": "C#4",
                    "midi": 61,
                    "time": 86.64567800000023,
                    "velocity": 0.4409448818897638,
                    "duration": 0.21446950000000697
                },
                {
                    "name": "F4",
                    "midi": 65,
                    "time": 86.64567800000023,
                    "velocity": 0.4881889763779528,
                    "duration": 0.21446950000000697
                },
                {
                    "name": "C#4",
                    "midi": 61,
                    "time": 87.07461700000025,
                    "velocity": 0.4094488188976378,
                    "duration": 0.21446950000000697
                },
                {
                    "name": "F4",
                    "midi": 65,
                    "time": 87.07461700000025,
                    "velocity": 0.4094488188976378,
                    "duration": 0.21446950000000697
                },
                {
                    "name": "G#4",
                    "midi": 68,
                    "time": 87.07461700000025,
                    "velocity": 0.4645669291338583,
                    "duration": 0.21446950000000697
                },
                {
                    "name": "C#4",
                    "midi": 61,
                    "time": 87.50355600000026,
                    "velocity": 0.4330708661417323,
                    "duration": 0.21446950000000697
                },
                {
                    "name": "F#4",
                    "midi": 66,
                    "time": 87.50355600000026,
                    "velocity": 0.4330708661417323,
                    "duration": 0.21446950000000697
                },
                {
                    "name": "A#4",
                    "midi": 70,
                    "time": 87.50355600000026,
                    "velocity": 0.5196850393700787,
                    "duration": 0.21446950000000697
                },
                {
                    "name": "C#4",
                    "midi": 61,
                    "time": 87.93249500000027,
                    "velocity": 0.4409448818897638,
                    "duration": 0.8578779999999995
                },
                {
                    "name": "F#4",
                    "midi": 66,
                    "time": 87.93249500000027,
                    "velocity": 0.4409448818897638,
                    "duration": 0.8578779999999995
                },
                {
                    "name": "A#4",
                    "midi": 70,
                    "time": 87.93249500000027,
                    "velocity": 0.5354330708661418,
                    "duration": 0.8578779999999995
                },
                {
                    "name": "C4",
                    "midi": 60,
                    "time": 88.79037300000027,
                    "velocity": 0.44881889763779526,
                    "duration": 0.21446950000000697
                },
                {
                    "name": "D#4",
                    "midi": 63,
                    "time": 88.79037300000027,
                    "velocity": 0.44881889763779526,
                    "duration": 0.21446950000000697
                },
                {
                    "name": "G#4",
                    "midi": 68,
                    "time": 88.79037300000027,
                    "velocity": 0.5039370078740157,
                    "duration": 0.21446950000000697
                },
                {
                    "name": "C4",
                    "midi": 60,
                    "time": 89.21931200000029,
                    "velocity": 0.4566929133858268,
                    "duration": 0.8578779999999995
                },
                {
                    "name": "D#4",
                    "midi": 63,
                    "time": 89.21931200000029,
                    "velocity": 0.4566929133858268,
                    "duration": 0.8578779999999995
                },
                {
                    "name": "G#4",
                    "midi": 68,
                    "time": 89.21931200000029,
                    "velocity": 0.5511811023622047,
                    "duration": 0.8578779999999995
                },
                {
                    "name": "F4",
                    "midi": 65,
                    "time": 90.07719000000029,
                    "velocity": 0.5511811023622047,
                    "duration": 0.21446950000000697
                },
                {
                    "name": "C#4",
                    "midi": 61,
                    "time": 90.07719000000029,
                    "velocity": 0.4566929133858268,
                    "duration": 0.21446950000000697
                },
                {
                    "name": "C#4",
                    "midi": 61,
                    "time": 90.5061290000003,
                    "velocity": 0.4566929133858268,
                    "duration": 0.8578779999999995
                },
                {
                    "name": "F4",
                    "midi": 65,
                    "time": 90.5061290000003,
                    "velocity": 0.5590551181102362,
                    "duration": 0.8578779999999995
                },
                {
                    "name": "D4",
                    "midi": 62,
                    "time": 91.3640070000003,
                    "velocity": 0.49606299212598426,
                    "duration": 0.42893900000001395
                },
                {
                    "name": "G#4",
                    "midi": 68,
                    "time": 91.3640070000003,
                    "velocity": 0.5669291338582677,
                    "duration": 0.21446950000000697
                },
                {
                    "name": "A#4",
                    "midi": 70,
                    "time": 91.5784765000003,
                    "velocity": 0.5511811023622047,
                    "duration": 0.21446950000000697
                },
                {
                    "name": "G#4",
                    "midi": 68,
                    "time": 91.79294600000031,
                    "velocity": 0.5669291338582677,
                    "duration": 0.21446950000000697
                },
                {
                    "name": "D4",
                    "midi": 62,
                    "time": 91.80366947500032,
                    "velocity": 0.49606299212598426,
                    "duration": 0.8578780000000279
                },
                {
                    "name": "F#4",
                    "midi": 66,
                    "time": 92.00741550000032,
                    "velocity": 0.5433070866141733,
                    "duration": 0.10723475000000349
                },
                {
                    "name": "G#4",
                    "midi": 68,
                    "time": 92.11465025000032,
                    "velocity": 0.5039370078740157,
                    "duration": 0.10723475000000349
                },
                {
                    "name": "F#4",
                    "midi": 66,
                    "time": 92.22188500000033,
                    "velocity": 0.5433070866141733,
                    "duration": 0.21446950000000697
                },
                {
                    "name": "F4",
                    "midi": 65,
                    "time": 92.43635450000033,
                    "velocity": 0.5196850393700787,
                    "duration": 0.21446950000000697
                },
                {
                    "name": "C#4",
                    "midi": 61,
                    "time": 92.65082400000034,
                    "velocity": 0.44881889763779526,
                    "duration": 0.21446950000000697
                },
                {
                    "name": "F#4",
                    "midi": 66,
                    "time": 92.65082400000034,
                    "velocity": 0.5039370078740157,
                    "duration": 0.21446950000000697
                },
                {
                    "name": "C#4",
                    "midi": 61,
                    "time": 93.07976300000036,
                    "velocity": 0.4566929133858268,
                    "duration": 0.8578779999999995
                },
                {
                    "name": "F#4",
                    "midi": 66,
                    "time": 93.07976300000036,
                    "velocity": 0.5039370078740157,
                    "duration": 0.8578779999999995
                },
                {
                    "name": "C4",
                    "midi": 60,
                    "time": 93.93764100000035,
                    "velocity": 0.36220472440944884,
                    "duration": 0.21446950000000697
                },
                {
                    "name": "F4",
                    "midi": 65,
                    "time": 93.93764100000035,
                    "velocity": 0.41732283464566927,
                    "duration": 0.21446950000000697
                },
                {
                    "name": "C4",
                    "midi": 60,
                    "time": 94.36658000000037,
                    "velocity": 0.3464566929133858,
                    "duration": 0.8578779999999995
                },
                {
                    "name": "F4",
                    "midi": 65,
                    "time": 94.36658000000037,
                    "velocity": 0.4094488188976378,
                    "duration": 0.8578779999999995
                },
                {
                    "name": "C#4",
                    "midi": 61,
                    "time": 95.22445800000037,
                    "velocity": 0.36220472440944884,
                    "duration": 0.42893899999999974
                },
                {
                    "name": "F3",
                    "midi": 53,
                    "time": 95.22445800000037,
                    "velocity": 0.2992125984251969,
                    "duration": 0.42893899999999974
                },
                {
                    "name": "F4",
                    "midi": 65,
                    "time": 96.29680550000037,
                    "velocity": 0.23622047244094488,
                    "duration": 1.5012865000000062
                },
                {
                    "name": "C#5",
                    "midi": 73,
                    "time": 96.51127500000038,
                    "velocity": 0.3228346456692913,
                    "duration": 1.2868169999999992
                },
                {
                    "name": "A#3",
                    "midi": 58,
                    "time": 98.22703100000038,
                    "velocity": 0.28346456692913385,
                    "duration": 0.42893899999999974
                },
                {
                    "name": "F#3",
                    "midi": 54,
                    "time": 98.22703100000038,
                    "velocity": 0.2283464566929134,
                    "duration": 0.42893899999999974
                },
                {
                    "name": "C#3",
                    "midi": 49,
                    "time": 98.22703100000038,
                    "velocity": 0.2283464566929134,
                    "duration": 0.42893899999999974
                },
                {
                    "name": "C#3",
                    "midi": 49,
                    "time": 98.87043950000039,
                    "velocity": 0.1889763779527559,
                    "duration": 0.21446950000000697
                },
                {
                    "name": "F#3",
                    "midi": 54,
                    "time": 98.87043950000039,
                    "velocity": 0.1889763779527559,
                    "duration": 0.21446950000000697
                },
                {
                    "name": "A#3",
                    "midi": 58,
                    "time": 98.87043950000039,
                    "velocity": 0.2283464566929134,
                    "duration": 0.21446950000000697
                },
                {
                    "name": "C#4",
                    "midi": 61,
                    "time": 99.5138480000004,
                    "velocity": 0.28346456692913385,
                    "duration": 0.42893899999999974
                },
                {
                    "name": "A#3",
                    "midi": 58,
                    "time": 99.5138480000004,
                    "velocity": 0.2283464566929134,
                    "duration": 0.42893899999999974
                },
                {
                    "name": "F#3",
                    "midi": 54,
                    "time": 99.5138480000004,
                    "velocity": 0.2283464566929134,
                    "duration": 0.42893899999999974
                },
                {
                    "name": "C#3",
                    "midi": 49,
                    "time": 99.5138480000004,
                    "velocity": 0.2283464566929134,
                    "duration": 0.42893899999999974
                },
                {
                    "name": "C#4",
                    "midi": 61,
                    "time": 100.1572565000004,
                    "velocity": 0.2283464566929134,
                    "duration": 0.21446950000000697
                },
                {
                    "name": "A#3",
                    "midi": 58,
                    "time": 100.1572565000004,
                    "velocity": 0.1968503937007874,
                    "duration": 0.21446950000000697
                },
                {
                    "name": "F#3",
                    "midi": 54,
                    "time": 100.1572565000004,
                    "velocity": 0.1968503937007874,
                    "duration": 0.21446950000000697
                },
                {
                    "name": "C#3",
                    "midi": 49,
                    "time": 100.1572565000004,
                    "velocity": 0.1968503937007874,
                    "duration": 0.21446950000000697
                },
                {
                    "name": "G#3",
                    "midi": 56,
                    "time": 100.80066500000041,
                    "velocity": 0.29133858267716534,
                    "duration": 0.42893899999999974
                },
                {
                    "name": "F3",
                    "midi": 53,
                    "time": 100.80066500000041,
                    "velocity": 0.23622047244094488,
                    "duration": 0.42893899999999974
                },
                {
                    "name": "C#3",
                    "midi": 49,
                    "time": 100.80066500000041,
                    "velocity": 0.23622047244094488,
                    "duration": 0.42893899999999974
                },
                {
                    "name": "C#3",
                    "midi": 49,
                    "time": 101.44407350000041,
                    "velocity": 0.1968503937007874,
                    "duration": 0.21446950000000697
                },
                {
                    "name": "F3",
                    "midi": 53,
                    "time": 101.44407350000041,
                    "velocity": 0.1968503937007874,
                    "duration": 0.21446950000000697
                },
                {
                    "name": "G#3",
                    "midi": 56,
                    "time": 101.44407350000041,
                    "velocity": 0.2283464566929134,
                    "duration": 0.21446950000000697
                },
                {
                    "name": "C#4",
                    "midi": 61,
                    "time": 102.08748200000042,
                    "velocity": 0.28346456692913385,
                    "duration": 0.42893899999999974
                },
                {
                    "name": "F3",
                    "midi": 53,
                    "time": 102.08748200000042,
                    "velocity": 0.2283464566929134,
                    "duration": 0.42893899999999974
                },
                {
                    "name": "C#3",
                    "midi": 49,
                    "time": 102.08748200000042,
                    "velocity": 0.2283464566929134,
                    "duration": 0.42893899999999974
                },
                {
                    "name": "C#4",
                    "midi": 61,
                    "time": 102.73089050000043,
                    "velocity": 0.2283464566929134,
                    "duration": 0.21446950000000697
                },
                {
                    "name": "F3",
                    "midi": 53,
                    "time": 102.73089050000043,
                    "velocity": 0.1889763779527559,
                    "duration": 0.21446950000000697
                },
                {
                    "name": "C#3",
                    "midi": 49,
                    "time": 102.73089050000043,
                    "velocity": 0.1889763779527559,
                    "duration": 0.21446950000000697
                },
                {
                    "name": "F#3",
                    "midi": 54,
                    "time": 103.37429900000043,
                    "velocity": 0.29133858267716534,
                    "duration": 0.42893899999999974
                },
                {
                    "name": "D#3",
                    "midi": 51,
                    "time": 103.37429900000043,
                    "velocity": 0.23622047244094488,
                    "duration": 0.42893899999999974
                },
                {
                    "name": "C#3",
                    "midi": 49,
                    "time": 103.37429900000043,
                    "velocity": 0.23622047244094488,
                    "duration": 0.42893899999999974
                },
                {
                    "name": "C#3",
                    "midi": 49,
                    "time": 104.01770750000044,
                    "velocity": 0.1968503937007874,
                    "duration": 0.21446950000000697
                },
                {
                    "name": "D#3",
                    "midi": 51,
                    "time": 104.01770750000044,
                    "velocity": 0.1968503937007874,
                    "duration": 0.21446950000000697
                },
                {
                    "name": "F#3",
                    "midi": 54,
                    "time": 104.01770750000044,
                    "velocity": 0.2283464566929134,
                    "duration": 0.21446950000000697
                },
                {
                    "name": "C#4",
                    "midi": 61,
                    "time": 104.66111600000045,
                    "velocity": 0.29133858267716534,
                    "duration": 0.42893899999999974
                },
                {
                    "name": "F#3",
                    "midi": 54,
                    "time": 104.66111600000045,
                    "velocity": 0.23622047244094488,
                    "duration": 0.42893899999999974
                },
                {
                    "name": "D#3",
                    "midi": 51,
                    "time": 104.66111600000045,
                    "velocity": 0.23622047244094488,
                    "duration": 0.42893899999999974
                },
                {
                    "name": "C#3",
                    "midi": 49,
                    "time": 104.66111600000045,
                    "velocity": 0.23622047244094488,
                    "duration": 0.42893899999999974
                },
                {
                    "name": "C#4",
                    "midi": 61,
                    "time": 105.30452450000045,
                    "velocity": 0.2283464566929134,
                    "duration": 0.21446950000000697
                },
                {
                    "name": "F#3",
                    "midi": 54,
                    "time": 105.30452450000045,
                    "velocity": 0.1968503937007874,
                    "duration": 0.21446950000000697
                },
                {
                    "name": "D#3",
                    "midi": 51,
                    "time": 105.30452450000045,
                    "velocity": 0.1968503937007874,
                    "duration": 0.21446950000000697
                },
                {
                    "name": "C#3",
                    "midi": 49,
                    "time": 105.30452450000045,
                    "velocity": 0.1968503937007874,
                    "duration": 0.21446950000000697
                },
                {
                    "name": "C#4",
                    "midi": 61,
                    "time": 105.94793300000046,
                    "velocity": 0.2677165354330709,
                    "duration": 0.42893899999999974
                },
                {
                    "name": "F3",
                    "midi": 53,
                    "time": 105.94793300000046,
                    "velocity": 0.2204724409448819,
                    "duration": 0.42893899999999974
                },
                {
                    "name": "C#3",
                    "midi": 49,
                    "time": 105.94793300000046,
                    "velocity": 0.2204724409448819,
                    "duration": 0.42893899999999974
                },
                {
                    "name": "C#4",
                    "midi": 61,
                    "time": 106.80581100000046,
                    "velocity": 0.23622047244094488,
                    "duration": 0.42893899999999974
                },
                {
                    "name": "F3",
                    "midi": 53,
                    "time": 106.80581100000046,
                    "velocity": 0.1968503937007874,
                    "duration": 0.42893899999999974
                },
                {
                    "name": "C#3",
                    "midi": 49,
                    "time": 106.80581100000046,
                    "velocity": 0.1968503937007874,
                    "duration": 0.42893899999999974
                },
                {
                    "name": "C#4",
                    "midi": 61,
                    "time": 107.66368900000046,
                    "velocity": 0.2204724409448819,
                    "duration": 0.42893899999999974
                },
                {
                    "name": "F3",
                    "midi": 53,
                    "time": 107.66368900000046,
                    "velocity": 0.18110236220472442,
                    "duration": 0.42893899999999974
                },
                {
                    "name": "C#3",
                    "midi": 49,
                    "time": 107.66368900000046,
                    "velocity": 0.18110236220472442,
                    "duration": 0.42893899999999974
                },
                {
                    "name": "C#4",
                    "midi": 61,
                    "time": 108.52156700000046,
                    "velocity": 0.1889763779527559,
                    "duration": 0.42893899999999974
                },
                {
                    "name": "F3",
                    "midi": 53,
                    "time": 108.52156700000046,
                    "velocity": 0.14960629921259844,
                    "duration": 0.42893899999999974
                },
                {
                    "name": "C#3",
                    "midi": 49,
                    "time": 108.52156700000046,
                    "velocity": 0.14960629921259844,
                    "duration": 0.42893899999999974
                },
                {
                    "name": "C#4",
                    "midi": 61,
                    "time": 109.37944500000046,
                    "velocity": 0.1732283464566929,
                    "duration": 0.42893899999999974
                },
                {
                    "name": "F3",
                    "midi": 53,
                    "time": 109.37944500000046,
                    "velocity": 0.14173228346456693,
                    "duration": 0.42893899999999974
                },
                {
                    "name": "C#3",
                    "midi": 49,
                    "time": 109.37944500000046,
                    "velocity": 0.14173228346456693,
                    "duration": 0.42893899999999974
                }
            ],
            "controlChanges": {
                "7": [
                    {
                        "number": 7,
                        "time": 0,
                        "value": 0.7874015748031497
                    }
                ],
                "64": [
                    {
                        "number": 64,
                        "time": 0,
                        "value": 0
                    }
                ],
                "91": [
                    {
                        "number": 91,
                        "time": 0,
                        "value": 1
                    }
                ]
            },
            "id": 1,
            "name": "Piano right",
            "instrumentNumber": 0,
            "instrument": "acoustic grand piano",
            "instrumentFamily": "piano",
            "channelNumber": 0,
            "isPercussion": false
        },
        {
            "startTime": 0,
            "duration": 110.2373230000004,
            "length": 395,
            "notes": [
                {
                    "name": "G#2",
                    "midi": 44,
                    "time": 0,
                    "velocity": 0.2283464566929134,
                    "duration": 0.42893899999999996
                },
                {
                    "name": "C#3",
                    "midi": 49,
                    "time": 0,
                    "velocity": 0.2755905511811024,
                    "duration": 0.42893899999999996
                },
                {
                    "name": "G#2",
                    "midi": 44,
                    "time": 0.8578779999999999,
                    "velocity": 0.2047244094488189,
                    "duration": 0.2144695000000001
                },
                {
                    "name": "C#3",
                    "midi": 49,
                    "time": 0.8578779999999999,
                    "velocity": 0.2440944881889764,
                    "duration": 0.2144695000000001
                },
                {
                    "name": "G#2",
                    "midi": 44,
                    "time": 1.286817,
                    "velocity": 0.2283464566929134,
                    "duration": 0.42893899999999996
                },
                {
                    "name": "C#3",
                    "midi": 49,
                    "time": 1.286817,
                    "velocity": 0.2755905511811024,
                    "duration": 0.42893899999999996
                },
                {
                    "name": "G#2",
                    "midi": 44,
                    "time": 2.144695,
                    "velocity": 0.2125984251968504,
                    "duration": 0.21446949999999987
                },
                {
                    "name": "C#3",
                    "midi": 49,
                    "time": 2.144695,
                    "velocity": 0.25984251968503935,
                    "duration": 0.21446949999999987
                },
                {
                    "name": "G#2",
                    "midi": 44,
                    "time": 2.5736339999999998,
                    "velocity": 0.2283464566929134,
                    "duration": 0.42893899999999974
                },
                {
                    "name": "C#3",
                    "midi": 49,
                    "time": 2.5736339999999998,
                    "velocity": 0.2755905511811024,
                    "duration": 0.42893899999999974
                },
                {
                    "name": "G#2",
                    "midi": 44,
                    "time": 3.4315119999999997,
                    "velocity": 0.2047244094488189,
                    "duration": 0.21446949999999987
                },
                {
                    "name": "C#3",
                    "midi": 49,
                    "time": 3.4315119999999997,
                    "velocity": 0.2440944881889764,
                    "duration": 0.21446949999999987
                },
                {
                    "name": "G#2",
                    "midi": 44,
                    "time": 3.8604509999999994,
                    "velocity": 0.2283464566929134,
                    "duration": 0.42893899999999974
                },
                {
                    "name": "C#3",
                    "midi": 49,
                    "time": 3.8604509999999994,
                    "velocity": 0.2755905511811024,
                    "duration": 0.42893899999999974
                },
                {
                    "name": "G#2",
                    "midi": 44,
                    "time": 4.718328999999999,
                    "velocity": 0.2047244094488189,
                    "duration": 0.21446949999999987
                },
                {
                    "name": "C#3",
                    "midi": 49,
                    "time": 4.718328999999999,
                    "velocity": 0.2440944881889764,
                    "duration": 0.21446949999999987
                },
                {
                    "name": "G#2",
                    "midi": 44,
                    "time": 5.147267999999999,
                    "velocity": 0.2283464566929134,
                    "duration": 0.42893899999999974
                },
                {
                    "name": "C#3",
                    "midi": 49,
                    "time": 5.147267999999999,
                    "velocity": 0.2755905511811024,
                    "duration": 0.42893899999999974
                },
                {
                    "name": "G#2",
                    "midi": 44,
                    "time": 6.005145999999998,
                    "velocity": 0.2125984251968504,
                    "duration": 0.21446949999999987
                },
                {
                    "name": "C#3",
                    "midi": 49,
                    "time": 6.005145999999998,
                    "velocity": 0.25984251968503935,
                    "duration": 0.21446949999999987
                },
                {
                    "name": "G#2",
                    "midi": 44,
                    "time": 6.434084999999998,
                    "velocity": 0.2283464566929134,
                    "duration": 0.4289390000000006
                },
                {
                    "name": "C#3",
                    "midi": 49,
                    "time": 6.434084999999998,
                    "velocity": 0.2755905511811024,
                    "duration": 0.4289390000000006
                },
                {
                    "name": "G#2",
                    "midi": 44,
                    "time": 7.291962999999998,
                    "velocity": 0.2125984251968504,
                    "duration": 0.21446949999999987
                },
                {
                    "name": "C#3",
                    "midi": 49,
                    "time": 7.291962999999998,
                    "velocity": 0.25984251968503935,
                    "duration": 0.21446949999999987
                },
                {
                    "name": "G#2",
                    "midi": 44,
                    "time": 7.720901999999998,
                    "velocity": 0.2283464566929134,
                    "duration": 0.4289390000000006
                },
                {
                    "name": "C#3",
                    "midi": 49,
                    "time": 7.720901999999998,
                    "velocity": 0.2755905511811024,
                    "duration": 0.4289390000000006
                },
                {
                    "name": "G#2",
                    "midi": 44,
                    "time": 8.578779999999998,
                    "velocity": 0.2047244094488189,
                    "duration": 0.42893899999999974
                },
                {
                    "name": "C#3",
                    "midi": 49,
                    "time": 8.578779999999998,
                    "velocity": 0.23622047244094488,
                    "duration": 0.42893899999999974
                },
                {
                    "name": "G#2",
                    "midi": 44,
                    "time": 9.436657999999998,
                    "velocity": 0.18110236220472442,
                    "duration": 0.42893899999999974
                },
                {
                    "name": "C#3",
                    "midi": 49,
                    "time": 9.436657999999998,
                    "velocity": 0.2204724409448819,
                    "duration": 0.42893899999999974
                },
                {
                    "name": "G#2",
                    "midi": 44,
                    "time": 10.294535999999997,
                    "velocity": 0.15748031496062992,
                    "duration": 0.42893899999999796
                },
                {
                    "name": "C#3",
                    "midi": 49,
                    "time": 10.294535999999997,
                    "velocity": 0.2047244094488189,
                    "duration": 0.42893899999999796
                },
                {
                    "name": "G#2",
                    "midi": 44,
                    "time": 11.152413999999995,
                    "velocity": 0.14960629921259844,
                    "duration": 0.42893899999999974
                },
                {
                    "name": "C#3",
                    "midi": 49,
                    "time": 11.152413999999995,
                    "velocity": 0.18110236220472442,
                    "duration": 0.42893899999999974
                },
                {
                    "name": "G#2",
                    "midi": 44,
                    "time": 12.010291999999994,
                    "velocity": 0.13385826771653545,
                    "duration": 0.42893899999999974
                },
                {
                    "name": "C#3",
                    "midi": 49,
                    "time": 12.010291999999994,
                    "velocity": 0.14960629921259844,
                    "duration": 0.42893899999999974
                },
                {
                    "name": "G#2",
                    "midi": 44,
                    "time": 15.441803999999994,
                    "velocity": 0.2677165354330709,
                    "duration": 0.464683916666667
                },
                {
                    "name": "C#3",
                    "midi": 49,
                    "time": 15.441803999999994,
                    "velocity": 0.3228346456692913,
                    "duration": 0.464683916666667
                },
                {
                    "name": "G#3",
                    "midi": 56,
                    "time": 15.870742999999994,
                    "velocity": 0.25984251968503935,
                    "duration": 0.42893899999999974
                },
                {
                    "name": "G#2",
                    "midi": 44,
                    "time": 16.299681999999994,
                    "velocity": 0.2440944881889764,
                    "duration": 0.21446949999999987
                },
                {
                    "name": "C#3",
                    "midi": 49,
                    "time": 16.299681999999994,
                    "velocity": 0.2992125984251969,
                    "duration": 0.21446949999999987
                },
                {
                    "name": "G#3",
                    "midi": 56,
                    "time": 16.514151499999993,
                    "velocity": 0.2677165354330709,
                    "duration": 0.21446949999999987
                },
                {
                    "name": "G#2",
                    "midi": 44,
                    "time": 16.728620999999993,
                    "velocity": 0.2677165354330709,
                    "duration": 0.4646839166666652
                },
                {
                    "name": "C#3",
                    "midi": 49,
                    "time": 16.728620999999993,
                    "velocity": 0.3228346456692913,
                    "duration": 0.4646839166666652
                },
                {
                    "name": "G#3",
                    "midi": 56,
                    "time": 17.157559999999993,
                    "velocity": 0.2677165354330709,
                    "duration": 0.42893899999999974
                },
                {
                    "name": "G#2",
                    "midi": 44,
                    "time": 17.586498999999993,
                    "velocity": 0.2440944881889764,
                    "duration": 0.21446949999999987
                },
                {
                    "name": "C#3",
                    "midi": 49,
                    "time": 17.586498999999993,
                    "velocity": 0.2992125984251969,
                    "duration": 0.21446949999999987
                },
                {
                    "name": "G#3",
                    "midi": 56,
                    "time": 17.800968499999993,
                    "velocity": 0.25984251968503935,
                    "duration": 0.21446949999999987
                },
                {
                    "name": "G#2",
                    "midi": 44,
                    "time": 18.015437999999993,
                    "velocity": 0.2677165354330709,
                    "duration": 0.4646839166666652
                },
                {
                    "name": "C#3",
                    "midi": 49,
                    "time": 18.015437999999993,
                    "velocity": 0.3228346456692913,
                    "duration": 0.4646839166666652
                },
                {
                    "name": "G#3",
                    "midi": 56,
                    "time": 18.444376999999992,
                    "velocity": 0.25984251968503935,
                    "duration": 0.42893899999999974
                },
                {
                    "name": "G#2",
                    "midi": 44,
                    "time": 18.873315999999992,
                    "velocity": 0.2440944881889764,
                    "duration": 0.21446949999999987
                },
                {
                    "name": "C#3",
                    "midi": 49,
                    "time": 18.873315999999992,
                    "velocity": 0.30708661417322836,
                    "duration": 0.21446949999999987
                },
                {
                    "name": "G#3",
                    "midi": 56,
                    "time": 19.087785499999992,
                    "velocity": 0.2677165354330709,
                    "duration": 0.21089500833333474
                },
                {
                    "name": "G#2",
                    "midi": 44,
                    "time": 19.30225499999999,
                    "velocity": 0.23622047244094488,
                    "duration": 0.42893899999999974
                },
                {
                    "name": "C#3",
                    "midi": 49,
                    "time": 19.30225499999999,
                    "velocity": 0.29133858267716534,
                    "duration": 0.4646839166666652
                },
                {
                    "name": "G#3",
                    "midi": 56,
                    "time": 19.73119399999999,
                    "velocity": 0.2283464566929134,
                    "duration": 0.42893899999999974
                },
                {
                    "name": "G#2",
                    "midi": 44,
                    "time": 20.16013299999999,
                    "velocity": 0.2204724409448819,
                    "duration": 0.21446949999999987
                },
                {
                    "name": "C#3",
                    "midi": 49,
                    "time": 20.16013299999999,
                    "velocity": 0.2677165354330709,
                    "duration": 0.21446949999999987
                },
                {
                    "name": "G#3",
                    "midi": 56,
                    "time": 20.37460249999999,
                    "velocity": 0.2440944881889764,
                    "duration": 0.21446949999999987
                },
                {
                    "name": "G#2",
                    "midi": 44,
                    "time": 20.58907199999999,
                    "velocity": 0.2677165354330709,
                    "duration": 0.4646839166666652
                },
                {
                    "name": "C#3",
                    "midi": 49,
                    "time": 20.58907199999999,
                    "velocity": 0.3228346456692913,
                    "duration": 0.4646839166666652
                },
                {
                    "name": "G#3",
                    "midi": 56,
                    "time": 21.01801099999999,
                    "velocity": 0.25984251968503935,
                    "duration": 0.42893899999999974
                },
                {
                    "name": "G#2",
                    "midi": 44,
                    "time": 21.44694999999999,
                    "velocity": 0.2440944881889764,
                    "duration": 0.21446949999999987
                },
                {
                    "name": "C#3",
                    "midi": 49,
                    "time": 21.44694999999999,
                    "velocity": 0.2992125984251969,
                    "duration": 0.21446949999999987
                },
                {
                    "name": "G#3",
                    "midi": 56,
                    "time": 21.66141949999999,
                    "velocity": 0.2677165354330709,
                    "duration": 0.21446949999999987
                },
                {
                    "name": "G#2",
                    "midi": 44,
                    "time": 21.87588899999999,
                    "velocity": 0.2677165354330709,
                    "duration": 0.4646839166666652
                },
                {
                    "name": "C#3",
                    "midi": 49,
                    "time": 21.87588899999999,
                    "velocity": 0.3228346456692913,
                    "duration": 0.4646839166666652
                },
                {
                    "name": "G#3",
                    "midi": 56,
                    "time": 22.30482799999999,
                    "velocity": 0.2677165354330709,
                    "duration": 0.42893899999999974
                },
                {
                    "name": "G#2",
                    "midi": 44,
                    "time": 22.73376699999999,
                    "velocity": 0.2440944881889764,
                    "duration": 0.21446949999999987
                },
                {
                    "name": "C#3",
                    "midi": 49,
                    "time": 22.73376699999999,
                    "velocity": 0.2992125984251969,
                    "duration": 0.21446949999999987
                },
                {
                    "name": "G#3",
                    "midi": 56,
                    "time": 22.94823649999999,
                    "velocity": 0.25984251968503935,
                    "duration": 0.21446949999999987
                },
                {
                    "name": "G#2",
                    "midi": 44,
                    "time": 23.16270599999999,
                    "velocity": 0.2677165354330709,
                    "duration": 0.4646839166666652
                },
                {
                    "name": "C#3",
                    "midi": 49,
                    "time": 23.16270599999999,
                    "velocity": 0.3228346456692913,
                    "duration": 0.4646839166666652
                },
                {
                    "name": "G#3",
                    "midi": 56,
                    "time": 23.59164499999999,
                    "velocity": 0.25984251968503935,
                    "duration": 0.42893899999999974
                },
                {
                    "name": "G#2",
                    "midi": 44,
                    "time": 24.02058399999999,
                    "velocity": 0.2440944881889764,
                    "duration": 0.21446949999999987
                },
                {
                    "name": "C#3",
                    "midi": 49,
                    "time": 24.02058399999999,
                    "velocity": 0.30708661417322836,
                    "duration": 0.21446949999999987
                },
                {
                    "name": "G#3",
                    "midi": 56,
                    "time": 24.23505349999999,
                    "velocity": 0.2677165354330709,
                    "duration": 0.21446949999999987
                },
                {
                    "name": "G#2",
                    "midi": 44,
                    "time": 24.44952299999999,
                    "velocity": 0.2440944881889764,
                    "duration": 0.4646839166666652
                },
                {
                    "name": "C#3",
                    "midi": 49,
                    "time": 24.44952299999999,
                    "velocity": 0.2992125984251969,
                    "duration": 0.4646839166666652
                },
                {
                    "name": "G#3",
                    "midi": 56,
                    "time": 24.87846199999999,
                    "velocity": 0.23622047244094488,
                    "duration": 0.42893899999999974
                },
                {
                    "name": "G#2",
                    "midi": 44,
                    "time": 25.307400999999988,
                    "velocity": 0.2283464566929134,
                    "duration": 0.21446949999999987
                },
                {
                    "name": "C#3",
                    "midi": 49,
                    "time": 25.307400999999988,
                    "velocity": 0.28346456692913385,
                    "duration": 0.21446949999999987
                },
                {
                    "name": "G#3",
                    "midi": 56,
                    "time": 25.521870499999988,
                    "velocity": 0.2440944881889764,
                    "duration": 0.21446949999999987
                },
                {
                    "name": "G#2",
                    "midi": 44,
                    "time": 25.736339999999988,
                    "velocity": 0.2677165354330709,
                    "duration": 0.4646839166666652
                },
                {
                    "name": "C#3",
                    "midi": 49,
                    "time": 25.736339999999988,
                    "velocity": 0.3228346456692913,
                    "duration": 0.4646839166666652
                },
                {
                    "name": "G#3",
                    "midi": 56,
                    "time": 26.165278999999988,
                    "velocity": 0.25984251968503935,
                    "duration": 0.42893899999999974
                },
                {
                    "name": "G#2",
                    "midi": 44,
                    "time": 26.594217999999987,
                    "velocity": 0.2440944881889764,
                    "duration": 0.21446949999999987
                },
                {
                    "name": "C#3",
                    "midi": 49,
                    "time": 26.594217999999987,
                    "velocity": 0.2992125984251969,
                    "duration": 0.21446949999999987
                },
                {
                    "name": "G#3",
                    "midi": 56,
                    "time": 26.808687499999987,
                    "velocity": 0.2677165354330709,
                    "duration": 0.21446949999999987
                },
                {
                    "name": "G#2",
                    "midi": 44,
                    "time": 27.023156999999987,
                    "velocity": 0.2677165354330709,
                    "duration": 0.4646839166666652
                },
                {
                    "name": "C#3",
                    "midi": 49,
                    "time": 27.023156999999987,
                    "velocity": 0.3228346456692913,
                    "duration": 0.4646839166666652
                },
                {
                    "name": "G#3",
                    "midi": 56,
                    "time": 27.452095999999987,
                    "velocity": 0.2677165354330709,
                    "duration": 0.42893899999999974
                },
                {
                    "name": "G#2",
                    "midi": 44,
                    "time": 27.881034999999986,
                    "velocity": 0.2440944881889764,
                    "duration": 0.21446949999999987
                },
                {
                    "name": "C#3",
                    "midi": 49,
                    "time": 27.881034999999986,
                    "velocity": 0.2992125984251969,
                    "duration": 0.21446949999999987
                },
                {
                    "name": "G#3",
                    "midi": 56,
                    "time": 28.095504499999986,
                    "velocity": 0.25984251968503935,
                    "duration": 0.21446949999999987
                },
                {
                    "name": "G#2",
                    "midi": 44,
                    "time": 28.309973999999986,
                    "velocity": 0.2677165354330709,
                    "duration": 0.4646839166666652
                },
                {
                    "name": "C#3",
                    "midi": 49,
                    "time": 28.309973999999986,
                    "velocity": 0.3228346456692913,
                    "duration": 0.4646839166666652
                },
                {
                    "name": "G#3",
                    "midi": 56,
                    "time": 28.738912999999986,
                    "velocity": 0.25984251968503935,
                    "duration": 0.42893899999999974
                },
                {
                    "name": "G#2",
                    "midi": 44,
                    "time": 29.167851999999986,
                    "velocity": 0.2440944881889764,
                    "duration": 0.21446949999999987
                },
                {
                    "name": "C#3",
                    "midi": 49,
                    "time": 29.167851999999986,
                    "velocity": 0.30708661417322836,
                    "duration": 0.21446949999999987
                },
                {
                    "name": "G#3",
                    "midi": 56,
                    "time": 29.382321499999986,
                    "velocity": 0.2677165354330709,
                    "duration": 0.21089500833333474
                },
                {
                    "name": "G#2",
                    "midi": 44,
                    "time": 29.596790999999985,
                    "velocity": 0.23622047244094488,
                    "duration": 0.42893899999999974
                },
                {
                    "name": "C#3",
                    "midi": 49,
                    "time": 29.596790999999985,
                    "velocity": 0.29133858267716534,
                    "duration": 0.42893899999999974
                },
                {
                    "name": "G#3",
                    "midi": 56,
                    "time": 30.025729999999985,
                    "velocity": 0.2283464566929134,
                    "duration": 0.42893899999999974
                },
                {
                    "name": "G#2",
                    "midi": 44,
                    "time": 30.454668999999985,
                    "velocity": 0.2204724409448819,
                    "duration": 0.21446949999999987
                },
                {
                    "name": "C#3",
                    "midi": 49,
                    "time": 30.454668999999985,
                    "velocity": 0.2677165354330709,
                    "duration": 0.21446949999999987
                },
                {
                    "name": "G#3",
                    "midi": 56,
                    "time": 30.669138499999985,
                    "velocity": 0.2440944881889764,
                    "duration": 0.21446949999999987
                },
                {
                    "name": "G#2",
                    "midi": 44,
                    "time": 30.883607999999985,
                    "velocity": 0.28346456692913385,
                    "duration": 0.4646839166666652
                },
                {
                    "name": "C#3",
                    "midi": 49,
                    "time": 30.883607999999985,
                    "velocity": 0.33070866141732286,
                    "duration": 0.4646839166666652
                },
                {
                    "name": "G#3",
                    "midi": 56,
                    "time": 31.312546999999984,
                    "velocity": 0.2677165354330709,
                    "duration": 0.42893899999999974
                },
                {
                    "name": "G#2",
                    "midi": 44,
                    "time": 31.741485999999984,
                    "velocity": 0.2440944881889764,
                    "duration": 0.21446949999999987
                },
                {
                    "name": "C#3",
                    "midi": 49,
                    "time": 31.741485999999984,
                    "velocity": 0.30708661417322836,
                    "duration": 0.21446949999999987
                },
                {
                    "name": "G#3",
                    "midi": 56,
                    "time": 31.955955499999984,
                    "velocity": 0.28346456692913385,
                    "duration": 0.21446950000000342
                },
                {
                    "name": "G#2",
                    "midi": 44,
                    "time": 32.17042499999999,
                    "velocity": 0.28346456692913385,
                    "duration": 0.4646839166666652
                },
                {
                    "name": "C#3",
                    "midi": 49,
                    "time": 32.17042499999999,
                    "velocity": 0.33070866141732286,
                    "duration": 0.4646839166666652
                },
                {
                    "name": "G#3",
                    "midi": 56,
                    "time": 32.59936399999999,
                    "velocity": 0.28346456692913385,
                    "duration": 0.42893899999999974
                },
                {
                    "name": "G#2",
                    "midi": 44,
                    "time": 33.02830299999999,
                    "velocity": 0.2440944881889764,
                    "duration": 0.21446949999999987
                },
                {
                    "name": "C#3",
                    "midi": 49,
                    "time": 33.02830299999999,
                    "velocity": 0.30708661417322836,
                    "duration": 0.21446949999999987
                },
                {
                    "name": "G#3",
                    "midi": 56,
                    "time": 33.24277249999999,
                    "velocity": 0.2677165354330709,
                    "duration": 0.21446949999999987
                },
                {
                    "name": "G#2",
                    "midi": 44,
                    "time": 33.45724199999999,
                    "velocity": 0.2440944881889764,
                    "duration": 0.42893899999999974
                },
                {
                    "name": "C#3",
                    "midi": 49,
                    "time": 33.45724199999999,
                    "velocity": 0.33070866141732286,
                    "duration": 0.42893899999999974
                },
                {
                    "name": "G#3",
                    "midi": 56,
                    "time": 33.886180999999986,
                    "velocity": 0.28346456692913385,
                    "duration": 0.42893899999999974
                },
                {
                    "name": "G#2",
                    "midi": 44,
                    "time": 34.315119999999986,
                    "velocity": 0.29133858267716534,
                    "duration": 0.21446949999999987
                },
                {
                    "name": "C#3",
                    "midi": 49,
                    "time": 34.315119999999986,
                    "velocity": 0.3228346456692913,
                    "duration": 0.21446949999999987
                },
                {
                    "name": "G#3",
                    "midi": 56,
                    "time": 34.529589499999986,
                    "velocity": 0.2992125984251969,
                    "duration": 0.21446949999999987
                },
                {
                    "name": "G#2",
                    "midi": 44,
                    "time": 34.744058999999986,
                    "velocity": 0.31496062992125984,
                    "duration": 0.42893899999999974
                },
                {
                    "name": "C#3",
                    "midi": 49,
                    "time": 34.744058999999986,
                    "velocity": 0.3543307086614173,
                    "duration": 0.42893899999999974
                },
                {
                    "name": "G#3",
                    "midi": 56,
                    "time": 35.172997999999986,
                    "velocity": 0.31496062992125984,
                    "duration": 0.42893899999999974
                },
                {
                    "name": "G#2",
                    "midi": 44,
                    "time": 35.601936999999985,
                    "velocity": 0.33070866141732286,
                    "duration": 0.21446949999999987
                },
                {
                    "name": "C#3",
                    "midi": 49,
                    "time": 35.601936999999985,
                    "velocity": 0.41732283464566927,
                    "duration": 0.21446949999999987
                },
                {
                    "name": "G#3",
                    "midi": 56,
                    "time": 35.816406499999985,
                    "velocity": 0.4330708661417323,
                    "duration": 0.10723474999999638
                },
                {
                    "name": "C#2",
                    "midi": 37,
                    "time": 35.92364124999998,
                    "velocity": 0.4015748031496063,
                    "duration": 0.965112750000003
                },
                {
                    "name": "C#3",
                    "midi": 49,
                    "time": 36.030875999999985,
                    "velocity": 0.4409448818897638,
                    "duration": 0.8578779999999995
                },
                {
                    "name": "C#3",
                    "midi": 49,
                    "time": 36.888753999999985,
                    "velocity": 0.3543307086614173,
                    "duration": 0.42893899999999974
                },
                {
                    "name": "C#2",
                    "midi": 37,
                    "time": 37.317692999999984,
                    "velocity": 0.4409448818897638,
                    "duration": 1.2868169999999992
                },
                {
                    "name": "C#3",
                    "midi": 49,
                    "time": 37.746631999999984,
                    "velocity": 0.36220472440944884,
                    "duration": 0.42893899999999974
                },
                {
                    "name": "C#3",
                    "midi": 49,
                    "time": 38.175570999999984,
                    "velocity": 0.4015748031496063,
                    "duration": 0.21446949999999987
                },
                {
                    "name": "C#2",
                    "midi": 37,
                    "time": 38.60450999999998,
                    "velocity": 0.4409448818897638,
                    "duration": 0.42893899999999974
                },
                {
                    "name": "C#3",
                    "midi": 49,
                    "time": 39.03344899999998,
                    "velocity": 0.3543307086614173,
                    "duration": 0.42893899999999974
                },
                {
                    "name": "C#2",
                    "midi": 37,
                    "time": 39.46238799999998,
                    "velocity": 0.4094488188976378,
                    "duration": 0.21446949999999987
                },
                {
                    "name": "C#3",
                    "midi": 49,
                    "time": 39.67685749999998,
                    "velocity": 0.36220472440944884,
                    "duration": 0.21446949999999987
                },
                {
                    "name": "C#2",
                    "midi": 37,
                    "time": 39.89132699999998,
                    "velocity": 0.3937007874015748,
                    "duration": 0.42893899999999974
                },
                {
                    "name": "C#3",
                    "midi": 49,
                    "time": 40.32026599999998,
                    "velocity": 0.30708661417322836,
                    "duration": 0.42893899999999974
                },
                {
                    "name": "C#2",
                    "midi": 37,
                    "time": 40.74920499999998,
                    "velocity": 0.36220472440944884,
                    "duration": 0.21446949999999987
                },
                {
                    "name": "C#3",
                    "midi": 49,
                    "time": 40.96367449999998,
                    "velocity": 0.3464566929133858,
                    "duration": 0.21446949999999987
                },
                {
                    "name": "C#2",
                    "midi": 37,
                    "time": 41.17814399999998,
                    "velocity": 0.4409448818897638,
                    "duration": 0.42893899999999974
                },
                {
                    "name": "C#3",
                    "midi": 49,
                    "time": 41.60708299999998,
                    "velocity": 0.3543307086614173,
                    "duration": 0.42893899999999974
                },
                {
                    "name": "C#2",
                    "midi": 37,
                    "time": 42.03602199999998,
                    "velocity": 0.4015748031496063,
                    "duration": 0.21446949999999987
                },
                {
                    "name": "C#3",
                    "midi": 49,
                    "time": 42.25049149999998,
                    "velocity": 0.36220472440944884,
                    "duration": 0.21446949999999987
                },
                {
                    "name": "C#2",
                    "midi": 37,
                    "time": 42.46496099999998,
                    "velocity": 0.4409448818897638,
                    "duration": 0.42893899999999974
                },
                {
                    "name": "C#3",
                    "midi": 49,
                    "time": 42.89389999999998,
                    "velocity": 0.36220472440944884,
                    "duration": 0.42893899999999974
                },
                {
                    "name": "C#2",
                    "midi": 37,
                    "time": 43.32283899999998,
                    "velocity": 0.4015748031496063,
                    "duration": 0.21446949999999987
                },
                {
                    "name": "C#3",
                    "midi": 49,
                    "time": 43.53730849999998,
                    "velocity": 0.3543307086614173,
                    "duration": 0.21446949999999987
                },
                {
                    "name": "C#2",
                    "midi": 37,
                    "time": 43.75177799999998,
                    "velocity": 0.4409448818897638,
                    "duration": 0.4646839166666652
                },
                {
                    "name": "C#3",
                    "midi": 49,
                    "time": 44.18071699999998,
                    "velocity": 0.3543307086614173,
                    "duration": 0.42893899999999974
                },
                {
                    "name": "C#2",
                    "midi": 37,
                    "time": 44.60965599999998,
                    "velocity": 0.4094488188976378,
                    "duration": 0.21446949999999987
                },
                {
                    "name": "C#3",
                    "midi": 49,
                    "time": 44.82412549999998,
                    "velocity": 0.36220472440944884,
                    "duration": 0.21446950000000697
                },
                {
                    "name": "C#2",
                    "midi": 37,
                    "time": 45.03859499999999,
                    "velocity": 0.4015748031496063,
                    "duration": 0.4646839166666652
                },
                {
                    "name": "C#3",
                    "midi": 49,
                    "time": 45.467533999999986,
                    "velocity": 0.31496062992125984,
                    "duration": 0.42893899999999974
                },
                {
                    "name": "C#2",
                    "midi": 37,
                    "time": 45.896472999999986,
                    "velocity": 0.3779527559055118,
                    "duration": 0.21446949999999987
                },
                {
                    "name": "C#3",
                    "midi": 49,
                    "time": 46.110942499999986,
                    "velocity": 0.3464566929133858,
                    "duration": 0.10723475000000349
                },
                {
                    "name": "C#2",
                    "midi": 37,
                    "time": 46.21817724999999,
                    "velocity": 0.36220472440944884,
                    "duration": 0.965112750000003
                },
                {
                    "name": "C#3",
                    "midi": 49,
                    "time": 46.32541199999999,
                    "velocity": 0.4409448818897638,
                    "duration": 0.8578779999999995
                },
                {
                    "name": "C#3",
                    "midi": 49,
                    "time": 47.18328999999999,
                    "velocity": 0.3543307086614173,
                    "duration": 0.42893899999999974
                },
                {
                    "name": "C#2",
                    "midi": 37,
                    "time": 47.61222899999999,
                    "velocity": 0.4409448818897638,
                    "duration": 1.2868169999999992
                },
                {
                    "name": "C#3",
                    "midi": 49,
                    "time": 48.04116799999999,
                    "velocity": 0.36220472440944884,
                    "duration": 0.42893899999999974
                },
                {
                    "name": "C#3",
                    "midi": 49,
                    "time": 48.47010699999999,
                    "velocity": 0.4015748031496063,
                    "duration": 0.21446949999999987
                },
                {
                    "name": "C#2",
                    "midi": 37,
                    "time": 48.89904599999999,
                    "velocity": 0.4409448818897638,
                    "duration": 0.42893899999999974
                },
                {
                    "name": "C#3",
                    "midi": 49,
                    "time": 49.32798499999999,
                    "velocity": 0.3543307086614173,
                    "duration": 0.42893899999999974
                },
                {
                    "name": "C#2",
                    "midi": 37,
                    "time": 49.75692399999999,
                    "velocity": 0.4094488188976378,
                    "duration": 0.21446949999999987
                },
                {
                    "name": "C#3",
                    "midi": 49,
                    "time": 49.97139349999999,
                    "velocity": 0.36220472440944884,
                    "duration": 0.21446949999999987
                },
                {
                    "name": "C#2",
                    "midi": 37,
                    "time": 50.18586299999999,
                    "velocity": 0.3937007874015748,
                    "duration": 0.42893899999999974
                },
                {
                    "name": "C#3",
                    "midi": 49,
                    "time": 50.61480199999999,
                    "velocity": 0.30708661417322836,
                    "duration": 0.42893899999999974
                },
                {
                    "name": "C#2",
                    "midi": 37,
                    "time": 51.04374099999999,
                    "velocity": 0.36220472440944884,
                    "duration": 0.21446949999999987
                },
                {
                    "name": "C#3",
                    "midi": 49,
                    "time": 51.25821049999999,
                    "velocity": 0.3464566929133858,
                    "duration": 0.21446949999999987
                },
                {
                    "name": "C#2",
                    "midi": 37,
                    "time": 51.47267999999999,
                    "velocity": 0.4409448818897638,
                    "duration": 0.42893899999999974
                },
                {
                    "name": "C#3",
                    "midi": 49,
                    "time": 51.90161899999999,
                    "velocity": 0.3543307086614173,
                    "duration": 0.42893899999999974
                },
                {
                    "name": "C#2",
                    "midi": 37,
                    "time": 52.33055799999999,
                    "velocity": 0.4015748031496063,
                    "duration": 0.21446949999999987
                },
                {
                    "name": "C#3",
                    "midi": 49,
                    "time": 52.54502749999999,
                    "velocity": 0.36220472440944884,
                    "duration": 0.21446949999999987
                },
                {
                    "name": "C#2",
                    "midi": 37,
                    "time": 52.75949699999999,
                    "velocity": 0.4409448818897638,
                    "duration": 0.42893899999999974
                },
                {
                    "name": "C#3",
                    "midi": 49,
                    "time": 53.18843599999999,
                    "velocity": 0.36220472440944884,
                    "duration": 0.42893899999999974
                },
                {
                    "name": "C#2",
                    "midi": 37,
                    "time": 53.61737499999999,
                    "velocity": 0.4015748031496063,
                    "duration": 0.21446949999999987
                },
                {
                    "name": "C#3",
                    "midi": 49,
                    "time": 53.83184449999999,
                    "velocity": 0.3543307086614173,
                    "duration": 0.21446949999999987
                },
                {
                    "name": "C#2",
                    "midi": 37,
                    "time": 54.04631399999999,
                    "velocity": 0.4409448818897638,
                    "duration": 0.4646839166666652
                },
                {
                    "name": "C#3",
                    "midi": 49,
                    "time": 54.47525299999999,
                    "velocity": 0.3543307086614173,
                    "duration": 0.42893899999999974
                },
                {
                    "name": "C#2",
                    "midi": 37,
                    "time": 54.90419199999999,
                    "velocity": 0.4094488188976378,
                    "duration": 0.21446949999999987
                },
                {
                    "name": "C#3",
                    "midi": 49,
                    "time": 55.11866149999999,
                    "velocity": 0.36220472440944884,
                    "duration": 0.21446950000000697
                },
                {
                    "name": "C#2",
                    "midi": 37,
                    "time": 55.333130999999995,
                    "velocity": 0.4015748031496063,
                    "duration": 0.4646839166666652
                },
                {
                    "name": "C#3",
                    "midi": 49,
                    "time": 55.762069999999994,
                    "velocity": 0.31496062992125984,
                    "duration": 0.42893899999999974
                },
                {
                    "name": "C#2",
                    "midi": 37,
                    "time": 56.191008999999994,
                    "velocity": 0.3779527559055118,
                    "duration": 0.21446949999999987
                },
                {
                    "name": "C#3",
                    "midi": 49,
                    "time": 56.405478499999994,
                    "velocity": 0.3464566929133858,
                    "duration": 0.21446949999999987
                },
                {
                    "name": "G#2",
                    "midi": 44,
                    "time": 56.619947999999994,
                    "velocity": 0.31496062992125984,
                    "duration": 0.25021441666666533
                },
                {
                    "name": "C#3",
                    "midi": 49,
                    "time": 56.619947999999994,
                    "velocity": 0.3937007874015748,
                    "duration": 0.25021441666666533
                },
                {
                    "name": "F#3",
                    "midi": 54,
                    "time": 56.834417499999994,
                    "velocity": 0.31496062992125984,
                    "duration": 0.25021441666666533
                },
                {
                    "name": "A#3",
                    "midi": 58,
                    "time": 57.04888699999999,
                    "velocity": 0.30708661417322836,
                    "duration": 0.21446949999999987
                },
                {
                    "name": "F#3",
                    "midi": 54,
                    "time": 57.26335649999999,
                    "velocity": 0.30708661417322836,
                    "duration": 0.21446949999999987
                },
                {
                    "name": "G#2",
                    "midi": 44,
                    "time": 57.47782599999999,
                    "velocity": 0.2992125984251969,
                    "duration": 0.21446949999999987
                },
                {
                    "name": "C#3",
                    "midi": 49,
                    "time": 57.47782599999999,
                    "velocity": 0.3543307086614173,
                    "duration": 0.21446949999999987
                },
                {
                    "name": "F#3",
                    "midi": 54,
                    "time": 57.69229549999999,
                    "velocity": 0.31496062992125984,
                    "duration": 0.21446949999999987
                },
                {
                    "name": "G#2",
                    "midi": 44,
                    "time": 57.90676499999999,
                    "velocity": 0.31496062992125984,
                    "duration": 0.25021441666666533
                },
                {
                    "name": "C#3",
                    "midi": 49,
                    "time": 57.90676499999999,
                    "velocity": 0.3937007874015748,
                    "duration": 0.25021441666666533
                },
                {
                    "name": "F#3",
                    "midi": 54,
                    "time": 58.12123449999999,
                    "velocity": 0.31496062992125984,
                    "duration": 0.25021441666666533
                },
                {
                    "name": "C4",
                    "midi": 60,
                    "time": 58.33570399999999,
                    "velocity": 0.31496062992125984,
                    "duration": 0.21446949999999987
                },
                {
                    "name": "F#3",
                    "midi": 54,
                    "time": 58.55017349999999,
                    "velocity": 0.31496062992125984,
                    "duration": 0.21446949999999987
                },
                {
                    "name": "G#2",
                    "midi": 44,
                    "time": 58.76464299999999,
                    "velocity": 0.2992125984251969,
                    "duration": 0.21446949999999987
                },
                {
                    "name": "C#3",
                    "midi": 49,
                    "time": 58.76464299999999,
                    "velocity": 0.3543307086614173,
                    "duration": 0.21446949999999987
                },
                {
                    "name": "F#3",
                    "midi": 54,
                    "time": 58.97911249999999,
                    "velocity": 0.30708661417322836,
                    "duration": 0.21446949999999987
                },
                {
                    "name": "G#2",
                    "midi": 44,
                    "time": 59.19358199999999,
                    "velocity": 0.31496062992125984,
                    "duration": 0.25021441666666533
                },
                {
                    "name": "C#3",
                    "midi": 49,
                    "time": 59.19358199999999,
                    "velocity": 0.3937007874015748,
                    "duration": 0.25021441666666533
                },
                {
                    "name": "F3",
                    "midi": 53,
                    "time": 59.40805149999999,
                    "velocity": 0.30708661417322836,
                    "duration": 0.25021441666666533
                },
                {
                    "name": "C#4",
                    "midi": 61,
                    "time": 59.62252099999999,
                    "velocity": 0.30708661417322836,
                    "duration": 0.21446949999999987
                },
                {
                    "name": "F3",
                    "midi": 53,
                    "time": 59.83699049999999,
                    "velocity": 0.30708661417322836,
                    "duration": 0.21446949999999987
                },
                {
                    "name": "G#2",
                    "midi": 44,
                    "time": 60.05145999999999,
                    "velocity": 0.2992125984251969,
                    "duration": 0.21446949999999987
                },
                {
                    "name": "C#3",
                    "midi": 49,
                    "time": 60.05145999999999,
                    "velocity": 0.36220472440944884,
                    "duration": 0.21446949999999987
                },
                {
                    "name": "F3",
                    "midi": 53,
                    "time": 60.26592949999999,
                    "velocity": 0.31496062992125984,
                    "duration": 0.21446949999999987
                },
                {
                    "name": "G#2",
                    "midi": 44,
                    "time": 60.48039899999999,
                    "velocity": 0.2440944881889764,
                    "duration": 0.21446949999999987
                },
                {
                    "name": "C#3",
                    "midi": 49,
                    "time": 60.48039899999999,
                    "velocity": 0.30708661417322836,
                    "duration": 0.21446949999999987
                },
                {
                    "name": "F3",
                    "midi": 53,
                    "time": 60.69486849999999,
                    "velocity": 0.28346456692913385,
                    "duration": 0.21446949999999987
                },
                {
                    "name": "G#3",
                    "midi": 56,
                    "time": 60.90933799999999,
                    "velocity": 0.2440944881889764,
                    "duration": 0.21446949999999987
                },
                {
                    "name": "F3",
                    "midi": 53,
                    "time": 61.12380749999999,
                    "velocity": 0.28346456692913385,
                    "duration": 0.21446949999999987
                },
                {
                    "name": "G#2",
                    "midi": 44,
                    "time": 61.33827699999999,
                    "velocity": 0.2283464566929134,
                    "duration": 0.21446949999999987
                },
                {
                    "name": "C#3",
                    "midi": 49,
                    "time": 61.33827699999999,
                    "velocity": 0.28346456692913385,
                    "duration": 0.21446949999999987
                },
                {
                    "name": "F3",
                    "midi": 53,
                    "time": 61.55274649999999,
                    "velocity": 0.25984251968503935,
                    "duration": 0.21446949999999987
                },
                {
                    "name": "G#2",
                    "midi": 44,
                    "time": 61.76721599999999,
                    "velocity": 0.31496062992125984,
                    "duration": 0.25021441666666533
                },
                {
                    "name": "C#3",
                    "midi": 49,
                    "time": 61.76721599999999,
                    "velocity": 0.3937007874015748,
                    "duration": 0.25021441666666533
                },
                {
                    "name": "F#3",
                    "midi": 54,
                    "time": 61.98168549999999,
                    "velocity": 0.31496062992125984,
                    "duration": 0.25021441666666533
                },
                {
                    "name": "A#3",
                    "midi": 58,
                    "time": 62.19615499999999,
                    "velocity": 0.30708661417322836,
                    "duration": 0.21446949999999987
                },
                {
                    "name": "F#3",
                    "midi": 54,
                    "time": 62.41062449999999,
                    "velocity": 0.31496062992125984,
                    "duration": 0.21446949999999987
                },
                {
                    "name": "G#2",
                    "midi": 44,
                    "time": 62.62509399999999,
                    "velocity": 0.2992125984251969,
                    "duration": 0.21446949999999987
                },
                {
                    "name": "C#3",
                    "midi": 49,
                    "time": 62.62509399999999,
                    "velocity": 0.3543307086614173,
                    "duration": 0.21446949999999987
                },
                {
                    "name": "F#3",
                    "midi": 54,
                    "time": 62.83956349999999,
                    "velocity": 0.31496062992125984,
                    "duration": 0.21446949999999987
                },
                {
                    "name": "G#2",
                    "midi": 44,
                    "time": 63.05403299999999,
                    "velocity": 0.31496062992125984,
                    "duration": 0.25021441666666533
                },
                {
                    "name": "C#3",
                    "midi": 49,
                    "time": 63.05403299999999,
                    "velocity": 0.3937007874015748,
                    "duration": 0.25021441666666533
                },
                {
                    "name": "F#3",
                    "midi": 54,
                    "time": 63.26850249999999,
                    "velocity": 0.31496062992125984,
                    "duration": 0.25021441666666533
                },
                {
                    "name": "C4",
                    "midi": 60,
                    "time": 63.48297199999999,
                    "velocity": 0.31496062992125984,
                    "duration": 0.21446949999999987
                },
                {
                    "name": "F#3",
                    "midi": 54,
                    "time": 63.69744149999999,
                    "velocity": 0.31496062992125984,
                    "duration": 0.21446949999999987
                },
                {
                    "name": "G#2",
                    "midi": 44,
                    "time": 63.91191099999999,
                    "velocity": 0.2992125984251969,
                    "duration": 0.21446950000000697
                },
                {
                    "name": "C#3",
                    "midi": 49,
                    "time": 63.91191099999999,
                    "velocity": 0.3543307086614173,
                    "duration": 0.21446950000000697
                },
                {
                    "name": "F#3",
                    "midi": 54,
                    "time": 64.1263805,
                    "velocity": 0.30708661417322836,
                    "duration": 0.21446949999999276
                },
                {
                    "name": "G#2",
                    "midi": 44,
                    "time": 64.34084999999999,
                    "velocity": 0.31496062992125984,
                    "duration": 0.25021441666667954
                },
                {
                    "name": "C#3",
                    "midi": 49,
                    "time": 64.34084999999999,
                    "velocity": 0.3937007874015748,
                    "duration": 0.25021441666667954
                },
                {
                    "name": "F3",
                    "midi": 53,
                    "time": 64.5553195,
                    "velocity": 0.30708661417322836,
                    "duration": 0.25021441666667954
                },
                {
                    "name": "C#4",
                    "midi": 61,
                    "time": 64.769789,
                    "velocity": 0.30708661417322836,
                    "duration": 0.21446950000000697
                },
                {
                    "name": "F3",
                    "midi": 53,
                    "time": 64.98425850000001,
                    "velocity": 0.30708661417322836,
                    "duration": 0.21446950000000697
                },
                {
                    "name": "G#2",
                    "midi": 44,
                    "time": 65.19872800000002,
                    "velocity": 0.2992125984251969,
                    "duration": 0.21446950000000697
                },
                {
                    "name": "C#3",
                    "midi": 49,
                    "time": 65.19872800000002,
                    "velocity": 0.36220472440944884,
                    "duration": 0.21446950000000697
                },
                {
                    "name": "F3",
                    "midi": 53,
                    "time": 65.41319750000002,
                    "velocity": 0.31496062992125984,
                    "duration": 0.21446950000000697
                },
                {
                    "name": "G#2",
                    "midi": 44,
                    "time": 65.62766700000003,
                    "velocity": 0.2992125984251969,
                    "duration": 0.25021441666667954
                },
                {
                    "name": "C#3",
                    "midi": 49,
                    "time": 65.62766700000003,
                    "velocity": 0.3543307086614173,
                    "duration": 0.25021441666667954
                },
                {
                    "name": "F3",
                    "midi": 53,
                    "time": 65.84213650000004,
                    "velocity": 0.31496062992125984,
                    "duration": 0.25021441666667954
                },
                {
                    "name": "G#3",
                    "midi": 56,
                    "time": 66.05660600000004,
                    "velocity": 0.29133858267716534,
                    "duration": 0.21446950000000697
                },
                {
                    "name": "F3",
                    "midi": 53,
                    "time": 66.27107550000005,
                    "velocity": 0.31496062992125984,
                    "duration": 0.21446950000000697
                },
                {
                    "name": "G#2",
                    "midi": 44,
                    "time": 66.48554500000006,
                    "velocity": 0.28346456692913385,
                    "duration": 0.21446950000000697
                },
                {
                    "name": "C#3",
                    "midi": 49,
                    "time": 66.48554500000006,
                    "velocity": 0.33070866141732286,
                    "duration": 0.21446950000000697
                },
                {
                    "name": "F3",
                    "midi": 53,
                    "time": 66.70001450000007,
                    "velocity": 0.2992125984251969,
                    "duration": 0.21446950000000697
                },
                {
                    "name": "G#2",
                    "midi": 44,
                    "time": 66.91448400000007,
                    "velocity": 0.31496062992125984,
                    "duration": 0.25021441666667954
                },
                {
                    "name": "C#3",
                    "midi": 49,
                    "time": 66.91448400000007,
                    "velocity": 0.3937007874015748,
                    "duration": 0.25021441666667954
                },
                {
                    "name": "F#3",
                    "midi": 54,
                    "time": 67.12895350000008,
                    "velocity": 0.31496062992125984,
                    "duration": 0.25021441666667954
                },
                {
                    "name": "A#3",
                    "midi": 58,
                    "time": 67.34342300000009,
                    "velocity": 0.30708661417322836,
                    "duration": 0.21446950000000697
                },
                {
                    "name": "F#3",
                    "midi": 54,
                    "time": 67.5578925000001,
                    "velocity": 0.30708661417322836,
                    "duration": 0.21446950000000697
                },
                {
                    "name": "G#2",
                    "midi": 44,
                    "time": 67.7723620000001,
                    "velocity": 0.2992125984251969,
                    "duration": 0.21446950000000697
                },
                {
                    "name": "C#3",
                    "midi": 49,
                    "time": 67.7723620000001,
                    "velocity": 0.3543307086614173,
                    "duration": 0.21446950000000697
                },
                {
                    "name": "F#3",
                    "midi": 54,
                    "time": 67.98683150000011,
                    "velocity": 0.31496062992125984,
                    "duration": 0.21446949999999276
                },
                {
                    "name": "G#2",
                    "midi": 44,
                    "time": 68.2013010000001,
                    "velocity": 0.31496062992125984,
                    "duration": 0.25021441666667954
                },
                {
                    "name": "C#3",
                    "midi": 49,
                    "time": 68.2013010000001,
                    "velocity": 0.3937007874015748,
                    "duration": 0.25021441666667954
                },
                {
                    "name": "F#3",
                    "midi": 54,
                    "time": 68.41577050000011,
                    "velocity": 0.31496062992125984,
                    "duration": 0.25021441666667954
                },
                {
                    "name": "C4",
                    "midi": 60,
                    "time": 68.63024000000011,
                    "velocity": 0.31496062992125984,
                    "duration": 0.21446950000000697
                },
                {
                    "name": "F#3",
                    "midi": 54,
                    "time": 68.84470950000012,
                    "velocity": 0.31496062992125984,
                    "duration": 0.21446950000000697
                },
                {
                    "name": "G#2",
                    "midi": 44,
                    "time": 69.05917900000013,
                    "velocity": 0.2992125984251969,
                    "duration": 0.21446950000000697
                },
                {
                    "name": "C#3",
                    "midi": 49,
                    "time": 69.05917900000013,
                    "velocity": 0.3543307086614173,
                    "duration": 0.21446950000000697
                },
                {
                    "name": "F#3",
                    "midi": 54,
                    "time": 69.27364850000014,
                    "velocity": 0.30708661417322836,
                    "duration": 0.21446949999999276
                },
                {
                    "name": "G#2",
                    "midi": 44,
                    "time": 69.48811800000013,
                    "velocity": 0.31496062992125984,
                    "duration": 0.25021441666667954
                },
                {
                    "name": "C#3",
                    "midi": 49,
                    "time": 69.48811800000013,
                    "velocity": 0.3937007874015748,
                    "duration": 0.25021441666667954
                },
                {
                    "name": "F3",
                    "midi": 53,
                    "time": 69.70258750000013,
                    "velocity": 0.30708661417322836,
                    "duration": 0.25021441666667954
                },
                {
                    "name": "C#4",
                    "midi": 61,
                    "time": 69.91705700000014,
                    "velocity": 0.30708661417322836,
                    "duration": 0.21446950000000697
                },
                {
                    "name": "F3",
                    "midi": 53,
                    "time": 70.13152650000015,
                    "velocity": 0.30708661417322836,
                    "duration": 0.21446950000000697
                },
                {
                    "name": "G#2",
                    "midi": 44,
                    "time": 70.34599600000016,
                    "velocity": 0.2992125984251969,
                    "duration": 0.21446950000000697
                },
                {
                    "name": "C#3",
                    "midi": 49,
                    "time": 70.34599600000016,
                    "velocity": 0.36220472440944884,
                    "duration": 0.21446950000000697
                },
                {
                    "name": "F3",
                    "midi": 53,
                    "time": 70.56046550000016,
                    "velocity": 0.31496062992125984,
                    "duration": 0.21446950000000697
                },
                {
                    "name": "G#2",
                    "midi": 44,
                    "time": 70.77493500000017,
                    "velocity": 0.2440944881889764,
                    "duration": 0.21446949999999276
                },
                {
                    "name": "C#3",
                    "midi": 49,
                    "time": 70.77493500000017,
                    "velocity": 0.30708661417322836,
                    "duration": 0.21446949999999276
                },
                {
                    "name": "F3",
                    "midi": 53,
                    "time": 70.98940450000016,
                    "velocity": 0.28346456692913385,
                    "duration": 0.21446950000000697
                },
                {
                    "name": "G#3",
                    "midi": 56,
                    "time": 71.20387400000017,
                    "velocity": 0.2440944881889764,
                    "duration": 0.21446950000000697
                },
                {
                    "name": "F3",
                    "midi": 53,
                    "time": 71.41834350000018,
                    "velocity": 0.28346456692913385,
                    "duration": 0.21446950000000697
                },
                {
                    "name": "G#2",
                    "midi": 44,
                    "time": 71.63281300000018,
                    "velocity": 0.2283464566929134,
                    "duration": 0.21446950000000697
                },
                {
                    "name": "C#3",
                    "midi": 49,
                    "time": 71.63281300000018,
                    "velocity": 0.28346456692913385,
                    "duration": 0.21446950000000697
                },
                {
                    "name": "F3",
                    "midi": 53,
                    "time": 71.84728250000019,
                    "velocity": 0.25984251968503935,
                    "duration": 0.21446950000000697
                },
                {
                    "name": "G#2",
                    "midi": 44,
                    "time": 72.0617520000002,
                    "velocity": 0.31496062992125984,
                    "duration": 0.25021441666667954
                },
                {
                    "name": "C#3",
                    "midi": 49,
                    "time": 72.0617520000002,
                    "velocity": 0.3937007874015748,
                    "duration": 0.25021441666667954
                },
                {
                    "name": "F#3",
                    "midi": 54,
                    "time": 72.2762215000002,
                    "velocity": 0.31496062992125984,
                    "duration": 0.25021441666667954
                },
                {
                    "name": "A#3",
                    "midi": 58,
                    "time": 72.49069100000021,
                    "velocity": 0.30708661417322836,
                    "duration": 0.21446950000000697
                },
                {
                    "name": "F#3",
                    "midi": 54,
                    "time": 72.70516050000022,
                    "velocity": 0.31496062992125984,
                    "duration": 0.21446950000000697
                },
                {
                    "name": "G#2",
                    "midi": 44,
                    "time": 72.91963000000023,
                    "velocity": 0.2992125984251969,
                    "duration": 0.21446950000000697
                },
                {
                    "name": "C#3",
                    "midi": 49,
                    "time": 72.91963000000023,
                    "velocity": 0.3543307086614173,
                    "duration": 0.21446950000000697
                },
                {
                    "name": "F#3",
                    "midi": 54,
                    "time": 73.13409950000023,
                    "velocity": 0.31496062992125984,
                    "duration": 0.21446949999999276
                },
                {
                    "name": "G#2",
                    "midi": 44,
                    "time": 73.34856900000023,
                    "velocity": 0.31496062992125984,
                    "duration": 0.25021441666667954
                },
                {
                    "name": "C#3",
                    "midi": 49,
                    "time": 73.34856900000023,
                    "velocity": 0.3937007874015748,
                    "duration": 0.25021441666667954
                },
                {
                    "name": "F#3",
                    "midi": 54,
                    "time": 73.56303850000023,
                    "velocity": 0.31496062992125984,
                    "duration": 0.25021441666667954
                },
                {
                    "name": "C4",
                    "midi": 60,
                    "time": 73.77750800000024,
                    "velocity": 0.31496062992125984,
                    "duration": 0.21446950000000697
                },
                {
                    "name": "F#3",
                    "midi": 54,
                    "time": 73.99197750000025,
                    "velocity": 0.31496062992125984,
                    "duration": 0.21446950000000697
                },
                {
                    "name": "G#2",
                    "midi": 44,
                    "time": 74.20644700000025,
                    "velocity": 0.2992125984251969,
                    "duration": 0.21446950000000697
                },
                {
                    "name": "C#3",
                    "midi": 49,
                    "time": 74.20644700000025,
                    "velocity": 0.3543307086614173,
                    "duration": 0.21446950000000697
                },
                {
                    "name": "F#3",
                    "midi": 54,
                    "time": 74.42091650000026,
                    "velocity": 0.30708661417322836,
                    "duration": 0.21446949999999276
                },
                {
                    "name": "C#2",
                    "midi": 37,
                    "time": 74.63538600000025,
                    "velocity": 0.31496062992125984,
                    "duration": 0.21446950000000697
                },
                {
                    "name": "G#2",
                    "midi": 44,
                    "time": 74.63538600000025,
                    "velocity": 0.3937007874015748,
                    "duration": 0.21446950000000697
                },
                {
                    "name": "C#3",
                    "midi": 49,
                    "time": 74.84985550000026,
                    "velocity": 0.30708661417322836,
                    "duration": 0.21446949999999276
                },
                {
                    "name": "F3",
                    "midi": 53,
                    "time": 75.06432500000025,
                    "velocity": 0.3543307086614173,
                    "duration": 0.21446950000000697
                },
                {
                    "name": "G#3",
                    "midi": 56,
                    "time": 75.27879450000026,
                    "velocity": 0.30708661417322836,
                    "duration": 0.21446950000000697
                },
                {
                    "name": "C#4",
                    "midi": 61,
                    "time": 75.49326400000027,
                    "velocity": 0.36220472440944884,
                    "duration": 0.21446950000000697
                },
                {
                    "name": "G#3",
                    "midi": 56,
                    "time": 76.78008100000028,
                    "velocity": 0.28346456692913385,
                    "duration": 0.42893900000001395
                },
                {
                    "name": "C#3",
                    "midi": 49,
                    "time": 77.2090200000003,
                    "velocity": 0.2755905511811024,
                    "duration": 0.42893899999999974
                },
                {
                    "name": "A#3",
                    "midi": 58,
                    "time": 77.6379590000003,
                    "velocity": 0.31496062992125984,
                    "duration": 0.8578780000000137
                },
                {
                    "name": "C#3",
                    "midi": 49,
                    "time": 78.0668980000003,
                    "velocity": 0.2677165354330709,
                    "duration": 0.42893900000001395
                },
                {
                    "name": "C#3",
                    "midi": 49,
                    "time": 78.49583700000031,
                    "velocity": 0.29133858267716534,
                    "duration": 0.42893899999999974
                },
                {
                    "name": "C4",
                    "midi": 60,
                    "time": 78.9247760000003,
                    "velocity": 0.3228346456692913,
                    "duration": 0.8578779999999995
                },
                {
                    "name": "C#3",
                    "midi": 49,
                    "time": 79.3537150000003,
                    "velocity": 0.28346456692913385,
                    "duration": 0.42893899999999974
                },
                {
                    "name": "C#3",
                    "midi": 49,
                    "time": 79.7826540000003,
                    "velocity": 0.29133858267716534,
                    "duration": 0.42893899999999974
                },
                {
                    "name": "C#4",
                    "midi": 61,
                    "time": 80.2115930000003,
                    "velocity": 0.3464566929133858,
                    "duration": 0.8578779999999995
                },
                {
                    "name": "C#3",
                    "midi": 49,
                    "time": 80.6405320000003,
                    "velocity": 0.29133858267716534,
                    "duration": 0.42893899999999974
                },
                {
                    "name": "C#3",
                    "midi": 49,
                    "time": 81.0694710000003,
                    "velocity": 0.30708661417322836,
                    "duration": 0.42893899999999974
                },
                {
                    "name": "D4",
                    "midi": 62,
                    "time": 81.4984100000003,
                    "velocity": 0.3543307086614173,
                    "duration": 0.8578779999999995
                },
                {
                    "name": "C#3",
                    "midi": 49,
                    "time": 81.9273490000003,
                    "velocity": 0.30708661417322836,
                    "duration": 0.42893899999999974
                },
                {
                    "name": "C#3",
                    "midi": 49,
                    "time": 82.3562880000003,
                    "velocity": 0.30708661417322836,
                    "duration": 0.42893899999999974
                },
                {
                    "name": "D#4",
                    "midi": 63,
                    "time": 82.7852270000003,
                    "velocity": 0.36220472440944884,
                    "duration": 0.8578780000000137
                },
                {
                    "name": "C#3",
                    "midi": 49,
                    "time": 83.2141660000003,
                    "velocity": 0.2992125984251969,
                    "duration": 0.42893900000001395
                },
                {
                    "name": "C#3",
                    "midi": 49,
                    "time": 83.64310500000032,
                    "velocity": 0.30708661417322836,
                    "duration": 0.42893899999999974
                },
                {
                    "name": "G#3",
                    "midi": 56,
                    "time": 84.07204400000032,
                    "velocity": 0.3464566929133858,
                    "duration": 0.8578779999999995
                },
                {
                    "name": "C#3",
                    "midi": 49,
                    "time": 84.50098300000032,
                    "velocity": 0.29133858267716534,
                    "duration": 0.42893899999999974
                },
                {
                    "name": "C#3",
                    "midi": 49,
                    "time": 84.92992200000032,
                    "velocity": 0.29133858267716534,
                    "duration": 0.42893899999999974
                },
                {
                    "name": "C#4",
                    "midi": 61,
                    "time": 85.35886100000032,
                    "velocity": 0.33070866141732286,
                    "duration": 0.8578779999999995
                },
                {
                    "name": "C#3",
                    "midi": 49,
                    "time": 85.78780000000032,
                    "velocity": 0.2755905511811024,
                    "duration": 0.42893899999999974
                },
                {
                    "name": "C#3",
                    "midi": 49,
                    "time": 86.21673900000032,
                    "velocity": 0.28346456692913385,
                    "duration": 0.42893899999999974
                },
                {
                    "name": "G#3",
                    "midi": 56,
                    "time": 86.64567800000032,
                    "velocity": 0.36220472440944884,
                    "duration": 0.8578779999999995
                },
                {
                    "name": "C#3",
                    "midi": 49,
                    "time": 87.07461700000032,
                    "velocity": 0.30708661417322836,
                    "duration": 0.42893899999999974
                },
                {
                    "name": "F#3",
                    "midi": 54,
                    "time": 87.50355600000032,
                    "velocity": 0.3779527559055118,
                    "duration": 1.2868170000000134
                },
                {
                    "name": "G#2",
                    "midi": 44,
                    "time": 87.93249500000032,
                    "velocity": 0.3228346456692913,
                    "duration": 0.42893899999999974
                },
                {
                    "name": "G#2",
                    "midi": 44,
                    "time": 88.36143400000032,
                    "velocity": 0.31496062992125984,
                    "duration": 0.42893900000001395
                },
                {
                    "name": "G#3",
                    "midi": 56,
                    "time": 88.79037300000033,
                    "velocity": 0.4015748031496063,
                    "duration": 1.2868169999999992
                },
                {
                    "name": "G#2",
                    "midi": 44,
                    "time": 89.21931200000033,
                    "velocity": 0.3464566929133858,
                    "duration": 0.42893899999999974
                },
                {
                    "name": "G#2",
                    "midi": 44,
                    "time": 89.64825100000033,
                    "velocity": 0.33070866141732286,
                    "duration": 0.42893899999999974
                },
                {
                    "name": "A#3",
                    "midi": 58,
                    "time": 90.07719000000033,
                    "velocity": 0.4409448818897638,
                    "duration": 1.2868169999999992
                },
                {
                    "name": "G#2",
                    "midi": 44,
                    "time": 90.50612900000033,
                    "velocity": 0.3464566929133858,
                    "duration": 0.42893899999999974
                },
                {
                    "name": "G#2",
                    "midi": 44,
                    "time": 90.93506800000033,
                    "velocity": 0.3464566929133858,
                    "duration": 0.42893899999999974
                },
                {
                    "name": "B3",
                    "midi": 59,
                    "time": 91.36400700000033,
                    "velocity": 0.4645669291338583,
                    "duration": 1.2868169999999992
                },
                {
                    "name": "G#2",
                    "midi": 44,
                    "time": 91.79294600000033,
                    "velocity": 0.3700787401574803,
                    "duration": 0.42893899999999974
                },
                {
                    "name": "G#2",
                    "midi": 44,
                    "time": 92.22188500000033,
                    "velocity": 0.3700787401574803,
                    "duration": 0.42893899999999974
                },
                {
                    "name": "A#3",
                    "midi": 58,
                    "time": 92.65082400000033,
                    "velocity": 0.3858267716535433,
                    "duration": 1.2868170000000134
                },
                {
                    "name": "G#2",
                    "midi": 44,
                    "time": 93.07976300000033,
                    "velocity": 0.3464566929133858,
                    "duration": 0.42893899999999974
                },
                {
                    "name": "G#2",
                    "midi": 44,
                    "time": 93.50870200000033,
                    "velocity": 0.31496062992125984,
                    "duration": 0.42893900000001395
                },
                {
                    "name": "G#3",
                    "midi": 56,
                    "time": 93.93764100000034,
                    "velocity": 0.3464566929133858,
                    "duration": 0.8578779999999995
                },
                {
                    "name": "G#2",
                    "midi": 44,
                    "time": 94.36658000000034,
                    "velocity": 0.29133858267716534,
                    "duration": 0.8578779999999995
                },
                {
                    "name": "F#3",
                    "midi": 54,
                    "time": 94.79551900000034,
                    "velocity": 0.25984251968503935,
                    "duration": 0.42893899999999974
                },
                {
                    "name": "C#2",
                    "midi": 37,
                    "time": 95.22445800000034,
                    "velocity": 0.23622047244094488,
                    "duration": 0.21446949999999276
                },
                {
                    "name": "G#2",
                    "midi": 44,
                    "time": 95.22445800000034,
                    "velocity": 0.2992125984251969,
                    "duration": 0.21446949999999276
                },
                {
                    "name": "C#3",
                    "midi": 49,
                    "time": 95.43892750000033,
                    "velocity": 0.23622047244094488,
                    "duration": 0.21446950000000697
                },
                {
                    "name": "F3",
                    "midi": 53,
                    "time": 95.65339700000034,
                    "velocity": 0.2755905511811024,
                    "duration": 0.21446950000000697
                },
                {
                    "name": "G#3",
                    "midi": 56,
                    "time": 95.86786650000035,
                    "velocity": 0.23622047244094488,
                    "duration": 0.21446950000000697
                },
                {
                    "name": "C#4",
                    "midi": 61,
                    "time": 96.08233600000035,
                    "velocity": 0.28346456692913385,
                    "duration": 0.21446950000000697
                },
                {
                    "name": "G#2",
                    "midi": 44,
                    "time": 97.79809200000037,
                    "velocity": 0.2283464566929134,
                    "duration": 0.42893899999999974
                },
                {
                    "name": "C#3",
                    "midi": 49,
                    "time": 97.79809200000037,
                    "velocity": 0.2755905511811024,
                    "duration": 0.42893899999999974
                },
                {
                    "name": "G#2",
                    "midi": 44,
                    "time": 98.65597000000037,
                    "velocity": 0.2047244094488189,
                    "duration": 0.21446950000000697
                },
                {
                    "name": "C#3",
                    "midi": 49,
                    "time": 98.65597000000037,
                    "velocity": 0.2440944881889764,
                    "duration": 0.21446950000000697
                },
                {
                    "name": "G#2",
                    "midi": 44,
                    "time": 99.08490900000038,
                    "velocity": 0.2283464566929134,
                    "duration": 0.42893899999999974
                },
                {
                    "name": "C#3",
                    "midi": 49,
                    "time": 99.08490900000038,
                    "velocity": 0.2755905511811024,
                    "duration": 0.42893899999999974
                },
                {
                    "name": "G#2",
                    "midi": 44,
                    "time": 99.94278700000038,
                    "velocity": 0.2125984251968504,
                    "duration": 0.21446950000000697
                },
                {
                    "name": "C#3",
                    "midi": 49,
                    "time": 99.94278700000038,
                    "velocity": 0.25984251968503935,
                    "duration": 0.21446950000000697
                },
                {
                    "name": "G#2",
                    "midi": 44,
                    "time": 100.37172600000038,
                    "velocity": 0.2283464566929134,
                    "duration": 0.42893899999999974
                },
                {
                    "name": "C#3",
                    "midi": 49,
                    "time": 100.37172600000038,
                    "velocity": 0.2755905511811024,
                    "duration": 0.42893899999999974
                },
                {
                    "name": "G#2",
                    "midi": 44,
                    "time": 101.22960400000038,
                    "velocity": 0.2047244094488189,
                    "duration": 0.21446950000000697
                },
                {
                    "name": "C#3",
                    "midi": 49,
                    "time": 101.22960400000038,
                    "velocity": 0.2440944881889764,
                    "duration": 0.21446950000000697
                },
                {
                    "name": "G#2",
                    "midi": 44,
                    "time": 101.65854300000038,
                    "velocity": 0.2283464566929134,
                    "duration": 0.42893899999999974
                },
                {
                    "name": "C#3",
                    "midi": 49,
                    "time": 101.65854300000038,
                    "velocity": 0.2755905511811024,
                    "duration": 0.42893899999999974
                },
                {
                    "name": "G#2",
                    "midi": 44,
                    "time": 102.51642100000038,
                    "velocity": 0.2047244094488189,
                    "duration": 0.21446950000000697
                },
                {
                    "name": "C#3",
                    "midi": 49,
                    "time": 102.51642100000038,
                    "velocity": 0.2440944881889764,
                    "duration": 0.21446950000000697
                },
                {
                    "name": "G#2",
                    "midi": 44,
                    "time": 102.94536000000038,
                    "velocity": 0.2283464566929134,
                    "duration": 0.42893899999999974
                },
                {
                    "name": "C#3",
                    "midi": 49,
                    "time": 102.94536000000038,
                    "velocity": 0.2755905511811024,
                    "duration": 0.42893899999999974
                },
                {
                    "name": "G#2",
                    "midi": 44,
                    "time": 103.80323800000038,
                    "velocity": 0.2125984251968504,
                    "duration": 0.21446950000000697
                },
                {
                    "name": "C#3",
                    "midi": 49,
                    "time": 103.80323800000038,
                    "velocity": 0.25984251968503935,
                    "duration": 0.21446950000000697
                },
                {
                    "name": "G#2",
                    "midi": 44,
                    "time": 104.23217700000039,
                    "velocity": 0.2283464566929134,
                    "duration": 0.42893899999999974
                },
                {
                    "name": "C#3",
                    "midi": 49,
                    "time": 104.23217700000039,
                    "velocity": 0.2755905511811024,
                    "duration": 0.42893899999999974
                },
                {
                    "name": "G#2",
                    "midi": 44,
                    "time": 105.09005500000039,
                    "velocity": 0.2125984251968504,
                    "duration": 0.21446950000000697
                },
                {
                    "name": "C#3",
                    "midi": 49,
                    "time": 105.09005500000039,
                    "velocity": 0.25984251968503935,
                    "duration": 0.21446950000000697
                },
                {
                    "name": "G#2",
                    "midi": 44,
                    "time": 105.51899400000039,
                    "velocity": 0.2283464566929134,
                    "duration": 0.42893900000001395
                },
                {
                    "name": "C#3",
                    "midi": 49,
                    "time": 105.51899400000039,
                    "velocity": 0.2755905511811024,
                    "duration": 0.42893900000001395
                },
                {
                    "name": "G#2",
                    "midi": 44,
                    "time": 106.3768720000004,
                    "velocity": 0.2047244094488189,
                    "duration": 0.42893899999999974
                },
                {
                    "name": "C#3",
                    "midi": 49,
                    "time": 106.3768720000004,
                    "velocity": 0.23622047244094488,
                    "duration": 0.42893899999999974
                },
                {
                    "name": "G#2",
                    "midi": 44,
                    "time": 107.2347500000004,
                    "velocity": 0.18110236220472442,
                    "duration": 0.42893899999999974
                },
                {
                    "name": "C#3",
                    "midi": 49,
                    "time": 107.2347500000004,
                    "velocity": 0.2204724409448819,
                    "duration": 0.42893899999999974
                },
                {
                    "name": "G#2",
                    "midi": 44,
                    "time": 108.0926280000004,
                    "velocity": 0.15748031496062992,
                    "duration": 0.42893899999999974
                },
                {
                    "name": "C#3",
                    "midi": 49,
                    "time": 108.0926280000004,
                    "velocity": 0.2047244094488189,
                    "duration": 0.42893899999999974
                },
                {
                    "name": "G#2",
                    "midi": 44,
                    "time": 108.9505060000004,
                    "velocity": 0.14960629921259844,
                    "duration": 0.42893899999999974
                },
                {
                    "name": "C#3",
                    "midi": 49,
                    "time": 108.9505060000004,
                    "velocity": 0.18110236220472442,
                    "duration": 0.42893899999999974
                },
                {
                    "name": "G#2",
                    "midi": 44,
                    "time": 109.8083840000004,
                    "velocity": 0.13385826771653545,
                    "duration": 0.42893899999999974
                },
                {
                    "name": "C#3",
                    "midi": 49,
                    "time": 109.8083840000004,
                    "velocity": 0.14960629921259844,
                    "duration": 0.42893899999999974
                }
            ],
            "controlChanges": {
                "7": [
                    {
                        "number": 7,
                        "time": 0,
                        "value": 0.7874015748031497
                    }
                ],
                "64": [
                    {
                        "number": 64,
                        "time": 0.025021441666666668,
                        "value": 1
                    },
                    {
                        "number": 64,
                        "time": 1.286817,
                        "value": 0
                    },
                    {
                        "number": 64,
                        "time": 1.3618813250000001,
                        "value": 1
                    },
                    {
                        "number": 64,
                        "time": 2.3966966624999997,
                        "value": 0
                    },
                    {
                        "number": 64,
                        "time": 2.7130391749999996,
                        "value": 1
                    },
                    {
                        "number": 64,
                        "time": 3.835429558333333,
                        "value": 0
                    },
                    {
                        "number": 64,
                        "time": 3.9355153249999995,
                        "value": 1
                    },
                    {
                        "number": 64,
                        "time": 4.9703306624999986,
                        "value": 0
                    },
                    {
                        "number": 64,
                        "time": 5.238417537499998,
                        "value": 1
                    },
                    {
                        "number": 64,
                        "time": 6.389403854166664,
                        "value": 0
                    },
                    {
                        "number": 64,
                        "time": 6.478766145833331,
                        "value": 1
                    },
                    {
                        "number": 64,
                        "time": 7.574347841666665,
                        "value": 0
                    },
                    {
                        "number": 64,
                        "time": 7.935371499999998,
                        "value": 1
                    },
                    {
                        "number": 64,
                        "time": 10.36602583333333,
                        "value": 0
                    },
                    {
                        "number": 64,
                        "time": 10.437515666666663,
                        "value": 1
                    },
                    {
                        "number": 64,
                        "time": 15.084354833333327,
                        "value": 0
                    },
                    {
                        "number": 64,
                        "time": 15.82070011666666,
                        "value": 1
                    },
                    {
                        "number": 64,
                        "time": 16.61423726666666,
                        "value": 0
                    },
                    {
                        "number": 64,
                        "time": 17.157559999999993,
                        "value": 1
                    },
                    {
                        "number": 64,
                        "time": 17.90105426666666,
                        "value": 0
                    },
                    {
                        "number": 64,
                        "time": 18.419355558333326,
                        "value": 1
                    },
                    {
                        "number": 64,
                        "time": 19.202169233333326,
                        "value": 0
                    },
                    {
                        "number": 64,
                        "time": 19.402340766666658,
                        "value": 1
                    },
                    {
                        "number": 64,
                        "time": 20.362091779166658,
                        "value": 0
                    },
                    {
                        "number": 64,
                        "time": 20.967968116666658,
                        "value": 1
                    },
                    {
                        "number": 64,
                        "time": 21.761505266666656,
                        "value": 0
                    },
                    {
                        "number": 64,
                        "time": 22.30482799999999,
                        "value": 1
                    },
                    {
                        "number": 64,
                        "time": 23.048322266666656,
                        "value": 0
                    },
                    {
                        "number": 64,
                        "time": 23.566623558333323,
                        "value": 1
                    },
                    {
                        "number": 64,
                        "time": 24.34228824999999,
                        "value": 0
                    },
                    {
                        "number": 64,
                        "time": 24.87846199999999,
                        "value": 1
                    },
                    {
                        "number": 64,
                        "time": 25.509359779166655,
                        "value": 0
                    },
                    {
                        "number": 64,
                        "time": 26.115236116666654,
                        "value": 1
                    },
                    {
                        "number": 64,
                        "time": 26.908773266666653,
                        "value": 0
                    },
                    {
                        "number": 64,
                        "time": 27.452095999999987,
                        "value": 1
                    },
                    {
                        "number": 64,
                        "time": 28.195590266666652,
                        "value": 0
                    },
                    {
                        "number": 64,
                        "time": 28.71389155833332,
                        "value": 1
                    },
                    {
                        "number": 64,
                        "time": 29.53959913333332,
                        "value": 0
                    },
                    {
                        "number": 64,
                        "time": 29.69687676666665,
                        "value": 1
                    },
                    {
                        "number": 64,
                        "time": 30.65662777916665,
                        "value": 0
                    },
                    {
                        "number": 64,
                        "time": 31.26250411666665,
                        "value": 1
                    },
                    {
                        "number": 64,
                        "time": 32.056041266666654,
                        "value": 0
                    },
                    {
                        "number": 64,
                        "time": 32.59936399999999,
                        "value": 1
                    },
                    {
                        "number": 64,
                        "time": 33.34285826666665,
                        "value": 0
                    },
                    {
                        "number": 64,
                        "time": 33.55732776666665,
                        "value": 1
                    },
                    {
                        "number": 64,
                        "time": 34.77622942499998,
                        "value": 0
                    },
                    {
                        "number": 64,
                        "time": 34.826272308333316,
                        "value": 1
                    },
                    {
                        "number": 64,
                        "time": 35.80389577916665,
                        "value": 0
                    },
                    {
                        "number": 64,
                        "time": 35.891470824999985,
                        "value": 1
                    },
                    {
                        "number": 64,
                        "time": 37.20330926666665,
                        "value": 0
                    },
                    {
                        "number": 64,
                        "time": 37.317692999999984,
                        "value": 1
                    },
                    {
                        "number": 64,
                        "time": 38.49012626666665,
                        "value": 0
                    },
                    {
                        "number": 64,
                        "time": 38.67957432499998,
                        "value": 1
                    },
                    {
                        "number": 64,
                        "time": 39.941369883333316,
                        "value": 0
                    },
                    {
                        "number": 64,
                        "time": 39.99141276666665,
                        "value": 1
                    },
                    {
                        "number": 64,
                        "time": 40.95116377916665,
                        "value": 0
                    },
                    {
                        "number": 64,
                        "time": 41.55704011666665,
                        "value": 1
                    },
                    {
                        "number": 64,
                        "time": 42.35057726666665,
                        "value": 0
                    },
                    {
                        "number": 64,
                        "time": 42.45245027916665,
                        "value": 1
                    },
                    {
                        "number": 64,
                        "time": 43.63739426666665,
                        "value": 0
                    },
                    {
                        "number": 64,
                        "time": 44.15569555833331,
                        "value": 1
                    },
                    {
                        "number": 64,
                        "time": 44.93136024999998,
                        "value": 0
                    },
                    {
                        "number": 64,
                        "time": 45.467533999999986,
                        "value": 1
                    },
                    {
                        "number": 64,
                        "time": 46.09843177916665,
                        "value": 0
                    },
                    {
                        "number": 64,
                        "time": 46.21817724999999,
                        "value": 1
                    },
                    {
                        "number": 64,
                        "time": 47.49784526666666,
                        "value": 0
                    },
                    {
                        "number": 64,
                        "time": 47.61222899999999,
                        "value": 1
                    },
                    {
                        "number": 64,
                        "time": 48.78466226666666,
                        "value": 0
                    },
                    {
                        "number": 64,
                        "time": 48.97411032499999,
                        "value": 1
                    },
                    {
                        "number": 64,
                        "time": 50.235905883333324,
                        "value": 0
                    },
                    {
                        "number": 64,
                        "time": 50.28594876666666,
                        "value": 1
                    },
                    {
                        "number": 64,
                        "time": 51.24569977916666,
                        "value": 0
                    },
                    {
                        "number": 64,
                        "time": 51.851576116666656,
                        "value": 1
                    },
                    {
                        "number": 64,
                        "time": 52.645113266666655,
                        "value": 0
                    },
                    {
                        "number": 64,
                        "time": 52.77200772083332,
                        "value": 1
                    },
                    {
                        "number": 64,
                        "time": 53.931930266666654,
                        "value": 0
                    },
                    {
                        "number": 64,
                        "time": 54.45023155833332,
                        "value": 1
                    },
                    {
                        "number": 64,
                        "time": 55.22589624999999,
                        "value": 0
                    },
                    {
                        "number": 64,
                        "time": 55.762069999999994,
                        "value": 1
                    },
                    {
                        "number": 64,
                        "time": 56.39296777916666,
                        "value": 0
                    },
                    {
                        "number": 64,
                        "time": 56.99884411666666,
                        "value": 1
                    },
                    {
                        "number": 64,
                        "time": 57.79238126666666,
                        "value": 0
                    },
                    {
                        "number": 64,
                        "time": 58.33570399999999,
                        "value": 1
                    },
                    {
                        "number": 64,
                        "time": 59.07919826666666,
                        "value": 0
                    },
                    {
                        "number": 64,
                        "time": 59.597499558333325,
                        "value": 1
                    },
                    {
                        "number": 64,
                        "time": 60.455377558333325,
                        "value": 0
                    },
                    {
                        "number": 64,
                        "time": 60.58048476666666,
                        "value": 1
                    },
                    {
                        "number": 64,
                        "time": 61.54023577916666,
                        "value": 0
                    },
                    {
                        "number": 64,
                        "time": 62.14611211666666,
                        "value": 1
                    },
                    {
                        "number": 64,
                        "time": 62.939649266666656,
                        "value": 0
                    },
                    {
                        "number": 64,
                        "time": 63.48297199999999,
                        "value": 1
                    },
                    {
                        "number": 64,
                        "time": 64.22646626666666,
                        "value": 0
                    },
                    {
                        "number": 64,
                        "time": 64.74476755833334,
                        "value": 1
                    },
                    {
                        "number": 64,
                        "time": 65.52043225000003,
                        "value": 0
                    },
                    {
                        "number": 64,
                        "time": 66.05660600000004,
                        "value": 1
                    },
                    {
                        "number": 64,
                        "time": 66.68750377916673,
                        "value": 0
                    },
                    {
                        "number": 64,
                        "time": 67.29338011666675,
                        "value": 1
                    },
                    {
                        "number": 64,
                        "time": 68.08691726666677,
                        "value": 0
                    },
                    {
                        "number": 64,
                        "time": 68.63024000000011,
                        "value": 1
                    },
                    {
                        "number": 64,
                        "time": 69.3737342666668,
                        "value": 0
                    },
                    {
                        "number": 64,
                        "time": 69.89203555833348,
                        "value": 1
                    },
                    {
                        "number": 64,
                        "time": 70.7499135583335,
                        "value": 0
                    },
                    {
                        "number": 64,
                        "time": 70.87502076666684,
                        "value": 1
                    },
                    {
                        "number": 64,
                        "time": 71.83477177916686,
                        "value": 0
                    },
                    {
                        "number": 64,
                        "time": 72.44064811666688,
                        "value": 1
                    },
                    {
                        "number": 64,
                        "time": 73.2341852666669,
                        "value": 0
                    },
                    {
                        "number": 64,
                        "time": 73.77750800000024,
                        "value": 1
                    },
                    {
                        "number": 64,
                        "time": 74.52100226666693,
                        "value": 0
                    },
                    {
                        "number": 64,
                        "time": 75.03930355833359,
                        "value": 1
                    },
                    {
                        "number": 64,
                        "time": 76.98203977916695,
                        "value": 0
                    },
                    {
                        "number": 64,
                        "time": 77.2465521625003,
                        "value": 1
                    },
                    {
                        "number": 64,
                        "time": 78.2813675000003,
                        "value": 0
                    },
                    {
                        "number": 64,
                        "time": 78.64775289583363,
                        "value": 1
                    },
                    {
                        "number": 64,
                        "time": 79.45380076666697,
                        "value": 0
                    },
                    {
                        "number": 64,
                        "time": 79.8201861625003,
                        "value": 1
                    },
                    {
                        "number": 64,
                        "time": 80.9622362500003,
                        "value": 0
                    },
                    {
                        "number": 64,
                        "time": 81.0694710000003,
                        "value": 1
                    },
                    {
                        "number": 64,
                        "time": 82.02743476666697,
                        "value": 0
                    },
                    {
                        "number": 64,
                        "time": 82.3938201625003,
                        "value": 1
                    },
                    {
                        "number": 64,
                        "time": 83.42863550000031,
                        "value": 0
                    },
                    {
                        "number": 64,
                        "time": 83.79502089583364,
                        "value": 1
                    },
                    {
                        "number": 64,
                        "time": 84.60106876666698,
                        "value": 0
                    },
                    {
                        "number": 64,
                        "time": 84.96745416250032,
                        "value": 1
                    },
                    {
                        "number": 64,
                        "time": 86.10950425000031,
                        "value": 0
                    },
                    {
                        "number": 64,
                        "time": 86.21673900000032,
                        "value": 1
                    },
                    {
                        "number": 64,
                        "time": 87.17470276666698,
                        "value": 0
                    },
                    {
                        "number": 64,
                        "time": 87.54108816250032,
                        "value": 1
                    },
                    {
                        "number": 64,
                        "time": 88.57590350000032,
                        "value": 0
                    },
                    {
                        "number": 64,
                        "time": 88.94228889583366,
                        "value": 1
                    },
                    {
                        "number": 64,
                        "time": 89.748336766667,
                        "value": 0
                    },
                    {
                        "number": 64,
                        "time": 90.11472216250033,
                        "value": 1
                    },
                    {
                        "number": 64,
                        "time": 91.25677225000032,
                        "value": 0
                    },
                    {
                        "number": 64,
                        "time": 91.36400700000033,
                        "value": 1
                    },
                    {
                        "number": 64,
                        "time": 92.321970766667,
                        "value": 0
                    },
                    {
                        "number": 64,
                        "time": 92.77771845416699,
                        "value": 1
                    },
                    {
                        "number": 64,
                        "time": 93.72317150000033,
                        "value": 0
                    },
                    {
                        "number": 64,
                        "time": 94.08955689583367,
                        "value": 1
                    },
                    {
                        "number": 64,
                        "time": 94.895604766667,
                        "value": 0
                    },
                    {
                        "number": 64,
                        "time": 95.287011604167,
                        "value": 1
                    },
                    {
                        "number": 64,
                        "time": 97.49604745416703,
                        "value": 0
                    },
                    {
                        "number": 64,
                        "time": 97.82311344166703,
                        "value": 1
                    },
                    {
                        "number": 64,
                        "time": 99.08490900000038,
                        "value": 0
                    },
                    {
                        "number": 64,
                        "time": 99.15997332500038,
                        "value": 1
                    },
                    {
                        "number": 64,
                        "time": 100.19478866250039,
                        "value": 0
                    },
                    {
                        "number": 64,
                        "time": 100.51113117500037,
                        "value": 1
                    },
                    {
                        "number": 64,
                        "time": 101.63352155833371,
                        "value": 0
                    },
                    {
                        "number": 64,
                        "time": 101.73360732500038,
                        "value": 1
                    },
                    {
                        "number": 64,
                        "time": 102.76842266250038,
                        "value": 0
                    },
                    {
                        "number": 64,
                        "time": 103.03650953750038,
                        "value": 1
                    },
                    {
                        "number": 64,
                        "time": 104.18749585416705,
                        "value": 0
                    },
                    {
                        "number": 64,
                        "time": 104.27685814583373,
                        "value": 1
                    },
                    {
                        "number": 64,
                        "time": 105.37243984166706,
                        "value": 0
                    },
                    {
                        "number": 64,
                        "time": 105.7334635000004,
                        "value": 1
                    },
                    {
                        "number": 64,
                        "time": 108.16411783333373,
                        "value": 0
                    },
                    {
                        "number": 64,
                        "time": 108.23560766666706,
                        "value": 1
                    },
                    {
                        "number": 64,
                        "time": 112.88244683333373,
                        "value": 0
                    }
                ]
            },
            "id": 2,
            "name": "Piano left",
            "instrumentNumber": 0,
            "instrument": "acoustic grand piano",
            "instrumentFamily": "piano",
            "channelNumber": 0,
            "isPercussion": false
        },
        {
            "startTime": 0,
            "duration": 0,
            "length": 0,
            "notes": [],
            "controlChanges": {},
            "id": 3,
            "name": "Borodin: Petite Suite, Serenade"
        },
        {
            "startTime": 0,
            "duration": 0,
            "length": 0,
            "notes": [],
            "controlChanges": {},
            "id": 4,
            "name": "Copyright  2000 by Bernd Krger"
        },
        {
            "startTime": 0,
            "duration": 0,
            "length": 0,
            "notes": [],
            "controlChanges": {},
            "id": 5,
            "name": "email: bernd.krueger@piano-midi.de"
        },
        {
            "startTime": 0,
            "duration": 0,
            "length": 0,
            "notes": [],
            "controlChanges": {},
            "id": 6,
            "name": "http://www.piano-midi.de"
        },
        {
            "startTime": 0,
            "duration": 0,
            "length": 0,
            "notes": [],
            "controlChanges": {},
            "id": 7,
            "name": "Edition: 21.8.00"
        },
        {
            "startTime": 0,
            "duration": 0,
            "length": 0,
            "notes": [],
            "controlChanges": {},
            "id": 8
        }
    ]
}