{
    "header": {
        "PPQ": 480,
        "timeSignature": [
            2,
            4
        ],
        "bpm": 110.50008655840114,
        "name": "Rhapsodie Nr. 4 in Es-Dur, Op. 119"
    },
    "startTime": 0,
    "duration": 284.5246640000042,
    "tracks": [
        {
            "startTime": 0,
            "duration": 0,
            "length": 0,
            "notes": [],
            "controlChanges": {},
            "id": 0,
            "name": "Rhapsodie Nr. 4 in Es-Dur, Op. 119"
        },
        {
            "startTime": 0,
            "duration": 284.5246640000042,
            "length": 1922,
            "notes": [
                {
                    "name": "G4",
                    "midi": 67,
                    "time": 0,
                    "velocity": 0.6220472440944882,
                    "duration": 0.542986
                },
                {
                    "name": "A#4",
                    "midi": 70,
                    "time": 0,
                    "velocity": 0.6220472440944882,
                    "duration": 0.542986
                },
                {
                    "name": "D#5",
                    "midi": 75,
                    "time": 0,
                    "velocity": 0.6220472440944882,
                    "duration": 0.542986
                },
                {
                    "name": "G5",
                    "midi": 79,
                    "time": 0,
                    "velocity": 0.6929133858267716,
                    "duration": 0.542986
                },
                {
                    "name": "F4",
                    "midi": 65,
                    "time": 0.542986,
                    "velocity": 0.4881889763779528,
                    "duration": 0.1357465
                },
                {
                    "name": "A#4",
                    "midi": 70,
                    "time": 0.542986,
                    "velocity": 0.4881889763779528,
                    "duration": 0.1357465
                },
                {
                    "name": "D5",
                    "midi": 74,
                    "time": 0.542986,
                    "velocity": 0.4881889763779528,
                    "duration": 0.1357465
                },
                {
                    "name": "F5",
                    "midi": 77,
                    "time": 0.542986,
                    "velocity": 0.5511811023622047,
                    "duration": 0.1357465
                },
                {
                    "name": "D#5",
                    "midi": 75,
                    "time": 0.814479,
                    "velocity": 0.4881889763779528,
                    "duration": 0.1357465
                },
                {
                    "name": "G4",
                    "midi": 67,
                    "time": 0.814479,
                    "velocity": 0.4881889763779528,
                    "duration": 0.1357465
                },
                {
                    "name": "A#4",
                    "midi": 70,
                    "time": 0.814479,
                    "velocity": 0.4881889763779528,
                    "duration": 0.1357465
                },
                {
                    "name": "G5",
                    "midi": 79,
                    "time": 0.814479,
                    "velocity": 0.5511811023622047,
                    "duration": 0.1357465
                },
                {
                    "name": "G#4",
                    "midi": 68,
                    "time": 1.085972,
                    "velocity": 0.6220472440944882,
                    "duration": 0.542986
                },
                {
                    "name": "C5",
                    "midi": 72,
                    "time": 1.085972,
                    "velocity": 0.6220472440944882,
                    "duration": 0.542986
                },
                {
                    "name": "G#5",
                    "midi": 80,
                    "time": 1.085972,
                    "velocity": 0.6929133858267716,
                    "duration": 0.542986
                },
                {
                    "name": "D#5",
                    "midi": 75,
                    "time": 1.085972,
                    "velocity": 0.6220472440944882,
                    "duration": 0.542986
                },
                {
                    "name": "D#5",
                    "midi": 75,
                    "time": 1.628958,
                    "velocity": 0.4881889763779528,
                    "duration": 0.1357465
                },
                {
                    "name": "A#4",
                    "midi": 70,
                    "time": 1.628958,
                    "velocity": 0.4881889763779528,
                    "duration": 0.1357465
                },
                {
                    "name": "G4",
                    "midi": 67,
                    "time": 1.628958,
                    "velocity": 0.4881889763779528,
                    "duration": 0.1357465
                },
                {
                    "name": "G5",
                    "midi": 79,
                    "time": 1.628958,
                    "velocity": 0.5511811023622047,
                    "duration": 0.1357465
                },
                {
                    "name": "F4",
                    "midi": 65,
                    "time": 1.900451,
                    "velocity": 0.49606299212598426,
                    "duration": 0.13574650000000021
                },
                {
                    "name": "C5",
                    "midi": 72,
                    "time": 1.900451,
                    "velocity": 0.49606299212598426,
                    "duration": 0.13574650000000021
                },
                {
                    "name": "F5",
                    "midi": 77,
                    "time": 1.900451,
                    "velocity": 0.5590551181102362,
                    "duration": 0.13574650000000021
                },
                {
                    "name": "D#5",
                    "midi": 75,
                    "time": 1.900451,
                    "velocity": 0.49606299212598426,
                    "duration": 0.13574650000000021
                },
                {
                    "name": "A#4",
                    "midi": 70,
                    "time": 2.171944,
                    "velocity": 0.5905511811023622,
                    "duration": 0.542986
                },
                {
                    "name": "G4",
                    "midi": 67,
                    "time": 2.171944,
                    "velocity": 0.5905511811023622,
                    "duration": 0.542986
                },
                {
                    "name": "D#5",
                    "midi": 75,
                    "time": 2.171944,
                    "velocity": 0.5905511811023622,
                    "duration": 0.542986
                },
                {
                    "name": "G5",
                    "midi": 79,
                    "time": 2.171944,
                    "velocity": 0.6614173228346457,
                    "duration": 0.542986
                },
                {
                    "name": "F4",
                    "midi": 65,
                    "time": 2.71493,
                    "velocity": 0.47244094488188976,
                    "duration": 0.13574649999999977
                },
                {
                    "name": "F5",
                    "midi": 77,
                    "time": 2.71493,
                    "velocity": 0.5354330708661418,
                    "duration": 0.13574649999999977
                },
                {
                    "name": "G#4",
                    "midi": 68,
                    "time": 2.71493,
                    "velocity": 0.47244094488188976,
                    "duration": 0.13574649999999977
                },
                {
                    "name": "D5",
                    "midi": 74,
                    "time": 2.71493,
                    "velocity": 0.47244094488188976,
                    "duration": 0.13574649999999977
                },
                {
                    "name": "G4",
                    "midi": 67,
                    "time": 2.9864229999999994,
                    "velocity": 0.44881889763779526,
                    "duration": 0.13574649999999977
                },
                {
                    "name": "D#4",
                    "midi": 63,
                    "time": 2.9864229999999994,
                    "velocity": 0.44881889763779526,
                    "duration": 0.13574649999999977
                },
                {
                    "name": "A#4",
                    "midi": 70,
                    "time": 2.9864229999999994,
                    "velocity": 0.44881889763779526,
                    "duration": 0.13574649999999977
                },
                {
                    "name": "D#5",
                    "midi": 75,
                    "time": 2.9864229999999994,
                    "velocity": 0.49606299212598426,
                    "duration": 0.13574649999999977
                },
                {
                    "name": "F4",
                    "midi": 65,
                    "time": 3.257915999999999,
                    "velocity": 0.47244094488188976,
                    "duration": 0.13574649999999977
                },
                {
                    "name": "D5",
                    "midi": 74,
                    "time": 3.257915999999999,
                    "velocity": 0.47244094488188976,
                    "duration": 0.13574649999999977
                },
                {
                    "name": "F5",
                    "midi": 77,
                    "time": 3.257915999999999,
                    "velocity": 0.5354330708661418,
                    "duration": 0.13574649999999977
                },
                {
                    "name": "A#4",
                    "midi": 70,
                    "time": 3.5294089999999985,
                    "velocity": 0.49606299212598426,
                    "duration": 0.13574649999999977
                },
                {
                    "name": "D#4",
                    "midi": 63,
                    "time": 3.800901999999998,
                    "velocity": 0.5511811023622047,
                    "duration": 0.542986
                },
                {
                    "name": "C5",
                    "midi": 72,
                    "time": 3.800901999999998,
                    "velocity": 0.5511811023622047,
                    "duration": 0.542986
                },
                {
                    "name": "D#5",
                    "midi": 75,
                    "time": 3.800901999999998,
                    "velocity": 0.6220472440944882,
                    "duration": 0.542986
                },
                {
                    "name": "D#4",
                    "midi": 63,
                    "time": 4.343887999999998,
                    "velocity": 0.5275590551181102,
                    "duration": 0.542986
                },
                {
                    "name": "D#5",
                    "midi": 75,
                    "time": 4.343887999999998,
                    "velocity": 0.5826771653543307,
                    "duration": 0.542986
                },
                {
                    "name": "A#4",
                    "midi": 70,
                    "time": 4.343887999999998,
                    "velocity": 0.5275590551181102,
                    "duration": 0.542986
                },
                {
                    "name": "D5",
                    "midi": 74,
                    "time": 4.343887999999998,
                    "velocity": 0.5826771653543307,
                    "duration": 0.542986
                },
                {
                    "name": "G#4",
                    "midi": 68,
                    "time": 4.886873999999998,
                    "velocity": 0.5275590551181102,
                    "duration": 0.4751127500000001
                },
                {
                    "name": "D#4",
                    "midi": 63,
                    "time": 4.886873999999998,
                    "velocity": 0.5275590551181102,
                    "duration": 0.4751127500000001
                },
                {
                    "name": "C5",
                    "midi": 72,
                    "time": 4.886873999999998,
                    "velocity": 0.5275590551181102,
                    "duration": 0.4751127500000001
                },
                {
                    "name": "D#5",
                    "midi": 75,
                    "time": 4.886873999999998,
                    "velocity": 0.5826771653543307,
                    "duration": 0.4751127500000001
                },
                {
                    "name": "D#4",
                    "midi": 63,
                    "time": 5.429859999999998,
                    "velocity": 0.5275590551181102,
                    "duration": 0.542986
                },
                {
                    "name": "D#5",
                    "midi": 75,
                    "time": 5.429859999999998,
                    "velocity": 0.5826771653543307,
                    "duration": 0.542986
                },
                {
                    "name": "G4",
                    "midi": 67,
                    "time": 5.429859999999998,
                    "velocity": 0.5275590551181102,
                    "duration": 0.542986
                },
                {
                    "name": "A#4",
                    "midi": 70,
                    "time": 5.429859999999998,
                    "velocity": 0.5275590551181102,
                    "duration": 0.542986
                },
                {
                    "name": "D4",
                    "midi": 62,
                    "time": 5.972845999999998,
                    "velocity": 0.4881889763779528,
                    "duration": 0.13574649999999977
                },
                {
                    "name": "F4",
                    "midi": 65,
                    "time": 5.972845999999998,
                    "velocity": 0.4881889763779528,
                    "duration": 0.13574649999999977
                },
                {
                    "name": "A#4",
                    "midi": 70,
                    "time": 5.972845999999998,
                    "velocity": 0.4881889763779528,
                    "duration": 0.13574649999999977
                },
                {
                    "name": "D5",
                    "midi": 74,
                    "time": 5.972845999999998,
                    "velocity": 0.5511811023622047,
                    "duration": 0.13574649999999977
                },
                {
                    "name": "D#5",
                    "midi": 75,
                    "time": 6.244338999999997,
                    "velocity": 0.5511811023622047,
                    "duration": 0.13574649999999977
                },
                {
                    "name": "A#4",
                    "midi": 70,
                    "time": 6.244338999999997,
                    "velocity": 0.4881889763779528,
                    "duration": 0.13574649999999977
                },
                {
                    "name": "D#4",
                    "midi": 63,
                    "time": 6.244338999999997,
                    "velocity": 0.4881889763779528,
                    "duration": 0.13574649999999977
                },
                {
                    "name": "G4",
                    "midi": 67,
                    "time": 6.244338999999997,
                    "velocity": 0.4881889763779528,
                    "duration": 0.13574649999999977
                },
                {
                    "name": "C5",
                    "midi": 72,
                    "time": 6.515831999999997,
                    "velocity": 0.5669291338582677,
                    "duration": 0.542986
                },
                {
                    "name": "D#5",
                    "midi": 75,
                    "time": 6.515831999999997,
                    "velocity": 0.5669291338582677,
                    "duration": 0.542986
                },
                {
                    "name": "G5",
                    "midi": 79,
                    "time": 6.515831999999997,
                    "velocity": 0.6377952755905512,
                    "duration": 0.542986
                },
                {
                    "name": "G4",
                    "midi": 67,
                    "time": 6.515831999999997,
                    "velocity": 0.5669291338582677,
                    "duration": 0.542986
                },
                {
                    "name": "F5",
                    "midi": 77,
                    "time": 7.058817999999997,
                    "velocity": 0.5433070866141733,
                    "duration": 0.13574649999999977
                },
                {
                    "name": "F4",
                    "midi": 65,
                    "time": 7.058817999999997,
                    "velocity": 0.48031496062992124,
                    "duration": 0.13574649999999977
                },
                {
                    "name": "G#4",
                    "midi": 68,
                    "time": 7.058817999999997,
                    "velocity": 0.48031496062992124,
                    "duration": 0.13574649999999977
                },
                {
                    "name": "C5",
                    "midi": 72,
                    "time": 7.058817999999997,
                    "velocity": 0.48031496062992124,
                    "duration": 0.13574649999999977
                },
                {
                    "name": "D#4",
                    "midi": 63,
                    "time": 7.3303109999999965,
                    "velocity": 0.48031496062992124,
                    "duration": 0.13574649999999977
                },
                {
                    "name": "G4",
                    "midi": 67,
                    "time": 7.3303109999999965,
                    "velocity": 0.48031496062992124,
                    "duration": 0.13574649999999977
                },
                {
                    "name": "C5",
                    "midi": 72,
                    "time": 7.3303109999999965,
                    "velocity": 0.48031496062992124,
                    "duration": 0.13574649999999977
                },
                {
                    "name": "D#5",
                    "midi": 75,
                    "time": 7.3303109999999965,
                    "velocity": 0.5433070866141733,
                    "duration": 0.13574649999999977
                },
                {
                    "name": "A#4",
                    "midi": 70,
                    "time": 7.601803999999996,
                    "velocity": 0.5433070866141733,
                    "duration": 0.5429860000000009
                },
                {
                    "name": "D5",
                    "midi": 74,
                    "time": 7.601803999999996,
                    "velocity": 0.6141732283464567,
                    "duration": 0.5429860000000009
                },
                {
                    "name": "D4",
                    "midi": 62,
                    "time": 7.601803999999996,
                    "velocity": 0.5433070866141733,
                    "duration": 0.5429860000000009
                },
                {
                    "name": "G4",
                    "midi": 67,
                    "time": 7.601803999999996,
                    "velocity": 0.5433070866141733,
                    "duration": 0.5429860000000009
                },
                {
                    "name": "C4",
                    "midi": 60,
                    "time": 8.144789999999997,
                    "velocity": 0.5039370078740157,
                    "duration": 0.13574649999999977
                },
                {
                    "name": "D#4",
                    "midi": 63,
                    "time": 8.144789999999997,
                    "velocity": 0.5039370078740157,
                    "duration": 0.13574649999999977
                },
                {
                    "name": "G4",
                    "midi": 67,
                    "time": 8.144789999999997,
                    "velocity": 0.5039370078740157,
                    "duration": 0.13574649999999977
                },
                {
                    "name": "C5",
                    "midi": 72,
                    "time": 8.144789999999997,
                    "velocity": 0.5669291338582677,
                    "duration": 0.13574649999999977
                },
                {
                    "name": "A#4",
                    "midi": 70,
                    "time": 8.416282999999996,
                    "velocity": 0.5511811023622047,
                    "duration": 0.13574649999999977
                },
                {
                    "name": "A#3",
                    "midi": 58,
                    "time": 8.416282999999996,
                    "velocity": 0.4881889763779528,
                    "duration": 0.13574649999999977
                },
                {
                    "name": "D4",
                    "midi": 62,
                    "time": 8.416282999999996,
                    "velocity": 0.4881889763779528,
                    "duration": 0.13574649999999977
                },
                {
                    "name": "G4",
                    "midi": 67,
                    "time": 8.416282999999996,
                    "velocity": 0.4881889763779528,
                    "duration": 0.13574649999999977
                },
                {
                    "name": "A3",
                    "midi": 57,
                    "time": 8.687775999999996,
                    "velocity": 0.48031496062992124,
                    "duration": 0.13574649999999977
                },
                {
                    "name": "F#4",
                    "midi": 66,
                    "time": 8.687775999999996,
                    "velocity": 0.48031496062992124,
                    "duration": 0.13574649999999977
                },
                {
                    "name": "A4",
                    "midi": 69,
                    "time": 8.687775999999996,
                    "velocity": 0.5433070866141733,
                    "duration": 0.13574649999999977
                },
                {
                    "name": "D4",
                    "midi": 62,
                    "time": 8.959268999999995,
                    "velocity": 0.5196850393700787,
                    "duration": 0.13574649999999977
                },
                {
                    "name": "G3",
                    "midi": 55,
                    "time": 9.230761999999995,
                    "velocity": 0.5354330708661418,
                    "duration": 0.5429859999999991
                },
                {
                    "name": "G4",
                    "midi": 67,
                    "time": 9.230761999999995,
                    "velocity": 0.5905511811023622,
                    "duration": 0.5429859999999991
                },
                {
                    "name": "G3",
                    "midi": 55,
                    "time": 9.773747999999994,
                    "velocity": 0.5354330708661418,
                    "duration": 0.5429859999999991
                },
                {
                    "name": "F#4",
                    "midi": 66,
                    "time": 9.773747999999994,
                    "velocity": 0.5354330708661418,
                    "duration": 0.5429859999999991
                },
                {
                    "name": "G4",
                    "midi": 67,
                    "time": 9.773747999999994,
                    "velocity": 0.5905511811023622,
                    "duration": 0.5429859999999991
                },
                {
                    "name": "G3",
                    "midi": 55,
                    "time": 10.316733999999993,
                    "velocity": 0.5275590551181102,
                    "duration": 0.4751127499999992
                },
                {
                    "name": "F4",
                    "midi": 65,
                    "time": 10.316733999999993,
                    "velocity": 0.5275590551181102,
                    "duration": 0.4751127499999992
                },
                {
                    "name": "G4",
                    "midi": 67,
                    "time": 10.316733999999993,
                    "velocity": 0.5826771653543307,
                    "duration": 0.4751127499999992
                },
                {
                    "name": "G4",
                    "midi": 67,
                    "time": 10.859719999999992,
                    "velocity": 0.6220472440944882,
                    "duration": 0.5429859999999991
                },
                {
                    "name": "G5",
                    "midi": 79,
                    "time": 10.859719999999992,
                    "velocity": 0.6929133858267716,
                    "duration": 0.5429859999999991
                },
                {
                    "name": "A#4",
                    "midi": 70,
                    "time": 10.859719999999992,
                    "velocity": 0.6220472440944882,
                    "duration": 0.5429859999999991
                },
                {
                    "name": "D#5",
                    "midi": 75,
                    "time": 10.859719999999992,
                    "velocity": 0.6220472440944882,
                    "duration": 0.5429859999999991
                },
                {
                    "name": "F5",
                    "midi": 77,
                    "time": 11.402705999999991,
                    "velocity": 0.5669291338582677,
                    "duration": 0.13574649999999977
                },
                {
                    "name": "D5",
                    "midi": 74,
                    "time": 11.402705999999991,
                    "velocity": 0.5039370078740157,
                    "duration": 0.13574649999999977
                },
                {
                    "name": "F4",
                    "midi": 65,
                    "time": 11.402705999999991,
                    "velocity": 0.5039370078740157,
                    "duration": 0.13574649999999977
                },
                {
                    "name": "A#4",
                    "midi": 70,
                    "time": 11.402705999999991,
                    "velocity": 0.5039370078740157,
                    "duration": 0.13574649999999977
                },
                {
                    "name": "G4",
                    "midi": 67,
                    "time": 11.674198999999991,
                    "velocity": 0.5039370078740157,
                    "duration": 0.13574649999999977
                },
                {
                    "name": "A#4",
                    "midi": 70,
                    "time": 11.674198999999991,
                    "velocity": 0.5039370078740157,
                    "duration": 0.13574649999999977
                },
                {
                    "name": "D#5",
                    "midi": 75,
                    "time": 11.674198999999991,
                    "velocity": 0.5039370078740157,
                    "duration": 0.13574649999999977
                },
                {
                    "name": "G5",
                    "midi": 79,
                    "time": 11.674198999999991,
                    "velocity": 0.5669291338582677,
                    "duration": 0.13574649999999977
                },
                {
                    "name": "G#5",
                    "midi": 80,
                    "time": 11.94569199999999,
                    "velocity": 0.6929133858267716,
                    "duration": 0.5429859999999991
                },
                {
                    "name": "G#4",
                    "midi": 68,
                    "time": 11.94569199999999,
                    "velocity": 0.6220472440944882,
                    "duration": 0.5429859999999991
                },
                {
                    "name": "C5",
                    "midi": 72,
                    "time": 11.94569199999999,
                    "velocity": 0.6220472440944882,
                    "duration": 0.5429859999999991
                },
                {
                    "name": "D#5",
                    "midi": 75,
                    "time": 11.94569199999999,
                    "velocity": 0.6220472440944882,
                    "duration": 0.5429859999999991
                },
                {
                    "name": "G4",
                    "midi": 67,
                    "time": 12.48867799999999,
                    "velocity": 0.4881889763779528,
                    "duration": 0.13574649999999977
                },
                {
                    "name": "A#4",
                    "midi": 70,
                    "time": 12.48867799999999,
                    "velocity": 0.4881889763779528,
                    "duration": 0.13574649999999977
                },
                {
                    "name": "D#5",
                    "midi": 75,
                    "time": 12.48867799999999,
                    "velocity": 0.5511811023622047,
                    "duration": 0.13574649999999977
                },
                {
                    "name": "G5",
                    "midi": 79,
                    "time": 12.48867799999999,
                    "velocity": 0.5511811023622047,
                    "duration": 0.13574649999999977
                },
                {
                    "name": "D#5",
                    "midi": 75,
                    "time": 12.760170999999989,
                    "velocity": 0.5511811023622047,
                    "duration": 0.13574649999999977
                },
                {
                    "name": "C5",
                    "midi": 72,
                    "time": 12.760170999999989,
                    "velocity": 0.4881889763779528,
                    "duration": 0.13574649999999977
                },
                {
                    "name": "F5",
                    "midi": 77,
                    "time": 12.760170999999989,
                    "velocity": 0.5511811023622047,
                    "duration": 0.13574649999999977
                },
                {
                    "name": "F4",
                    "midi": 65,
                    "time": 12.760170999999989,
                    "velocity": 0.4881889763779528,
                    "duration": 0.13574649999999977
                },
                {
                    "name": "G4",
                    "midi": 67,
                    "time": 13.031663999999989,
                    "velocity": 0.6062992125984252,
                    "duration": 0.5429859999999991
                },
                {
                    "name": "A#4",
                    "midi": 70,
                    "time": 13.031663999999989,
                    "velocity": 0.6062992125984252,
                    "duration": 0.5429859999999991
                },
                {
                    "name": "D#5",
                    "midi": 75,
                    "time": 13.031663999999989,
                    "velocity": 0.6062992125984252,
                    "duration": 0.5429859999999991
                },
                {
                    "name": "G5",
                    "midi": 79,
                    "time": 13.031663999999989,
                    "velocity": 0.6692913385826772,
                    "duration": 0.5429859999999991
                },
                {
                    "name": "F5",
                    "midi": 77,
                    "time": 13.574649999999988,
                    "velocity": 0.5669291338582677,
                    "duration": 0.13574649999999977
                },
                {
                    "name": "F4",
                    "midi": 65,
                    "time": 13.574649999999988,
                    "velocity": 0.5039370078740157,
                    "duration": 0.13574649999999977
                },
                {
                    "name": "G#4",
                    "midi": 68,
                    "time": 13.574649999999988,
                    "velocity": 0.5039370078740157,
                    "duration": 0.13574649999999977
                },
                {
                    "name": "D5",
                    "midi": 74,
                    "time": 13.574649999999988,
                    "velocity": 0.5039370078740157,
                    "duration": 0.13574649999999977
                },
                {
                    "name": "D#4",
                    "midi": 63,
                    "time": 13.846142999999987,
                    "velocity": 0.4881889763779528,
                    "duration": 0.13574649999999977
                },
                {
                    "name": "G4",
                    "midi": 67,
                    "time": 13.846142999999987,
                    "velocity": 0.4881889763779528,
                    "duration": 0.13574649999999977
                },
                {
                    "name": "A#4",
                    "midi": 70,
                    "time": 13.846142999999987,
                    "velocity": 0.4881889763779528,
                    "duration": 0.13574649999999977
                },
                {
                    "name": "D#5",
                    "midi": 75,
                    "time": 13.846142999999987,
                    "velocity": 0.5511811023622047,
                    "duration": 0.13574649999999977
                },
                {
                    "name": "F5",
                    "midi": 77,
                    "time": 14.117635999999987,
                    "velocity": 0.5354330708661418,
                    "duration": 0.13574649999999977
                },
                {
                    "name": "D5",
                    "midi": 74,
                    "time": 14.117635999999987,
                    "velocity": 0.47244094488188976,
                    "duration": 0.13574649999999977
                },
                {
                    "name": "F4",
                    "midi": 65,
                    "time": 14.117635999999987,
                    "velocity": 0.47244094488188976,
                    "duration": 0.13574649999999977
                },
                {
                    "name": "A#4",
                    "midi": 70,
                    "time": 14.389128999999986,
                    "velocity": 0.5196850393700787,
                    "duration": 0.13574649999999977
                },
                {
                    "name": "D#4",
                    "midi": 63,
                    "time": 14.660621999999986,
                    "velocity": 0.5826771653543307,
                    "duration": 0.5429859999999991
                },
                {
                    "name": "D#5",
                    "midi": 75,
                    "time": 14.660621999999986,
                    "velocity": 0.6535433070866141,
                    "duration": 0.5429859999999991
                },
                {
                    "name": "C#5",
                    "midi": 73,
                    "time": 15.203607999999985,
                    "velocity": 0.6141732283464567,
                    "duration": 0.5429859999999991
                },
                {
                    "name": "D#4",
                    "midi": 63,
                    "time": 15.203607999999985,
                    "velocity": 0.6141732283464567,
                    "duration": 0.5429859999999991
                },
                {
                    "name": "D#5",
                    "midi": 75,
                    "time": 15.203607999999985,
                    "velocity": 0.6771653543307087,
                    "duration": 0.5429859999999991
                },
                {
                    "name": "B4",
                    "midi": 71,
                    "time": 15.746593999999984,
                    "velocity": 0.6535433070866141,
                    "duration": 0.509049375
                },
                {
                    "name": "D#4",
                    "midi": 63,
                    "time": 15.746593999999984,
                    "velocity": 0.6535433070866141,
                    "duration": 0.509049375
                },
                {
                    "name": "D#5",
                    "midi": 75,
                    "time": 15.746593999999984,
                    "velocity": 0.7322834645669292,
                    "duration": 0.509049375
                },
                {
                    "name": "D#6",
                    "midi": 87,
                    "time": 16.289579999999983,
                    "velocity": 0.7952755905511811,
                    "duration": 0.5429859999999991
                },
                {
                    "name": "A#5",
                    "midi": 82,
                    "time": 16.289579999999983,
                    "velocity": 0.7086614173228346,
                    "duration": 0.5429859999999991
                },
                {
                    "name": "D#5",
                    "midi": 75,
                    "time": 16.289579999999983,
                    "velocity": 0.7086614173228346,
                    "duration": 0.5429859999999991
                },
                {
                    "name": "F#5",
                    "midi": 78,
                    "time": 16.289579999999983,
                    "velocity": 0.7086614173228346,
                    "duration": 0.5429859999999991
                },
                {
                    "name": "F#5",
                    "midi": 78,
                    "time": 16.832565999999982,
                    "velocity": 0.6535433070866141,
                    "duration": 0.27149299999999954
                },
                {
                    "name": "A#5",
                    "midi": 82,
                    "time": 16.832565999999982,
                    "velocity": 0.6535433070866141,
                    "duration": 0.27149299999999954
                },
                {
                    "name": "D6",
                    "midi": 86,
                    "time": 16.832565999999982,
                    "velocity": 0.7322834645669292,
                    "duration": 0.27149299999999954
                },
                {
                    "name": "D5",
                    "midi": 74,
                    "time": 16.832565999999982,
                    "velocity": 0.6535433070866141,
                    "duration": 0.27149299999999954
                },
                {
                    "name": "D#6",
                    "midi": 87,
                    "time": 17.10405899999998,
                    "velocity": 0.7086614173228346,
                    "duration": 0.27149299999999954
                },
                {
                    "name": "A#5",
                    "midi": 82,
                    "time": 17.10405899999998,
                    "velocity": 0.6299212598425197,
                    "duration": 0.27149299999999954
                },
                {
                    "name": "F#5",
                    "midi": 78,
                    "time": 17.10405899999998,
                    "velocity": 0.6299212598425197,
                    "duration": 0.27149299999999954
                },
                {
                    "name": "D#5",
                    "midi": 75,
                    "time": 17.10405899999998,
                    "velocity": 0.6299212598425197,
                    "duration": 0.27149299999999954
                },
                {
                    "name": "F#5",
                    "midi": 78,
                    "time": 17.37555199999998,
                    "velocity": 0.6692913385826772,
                    "duration": 0.5429859999999991
                },
                {
                    "name": "B5",
                    "midi": 83,
                    "time": 17.37555199999998,
                    "velocity": 0.7480314960629921,
                    "duration": 0.5429859999999991
                },
                {
                    "name": "D#5",
                    "midi": 75,
                    "time": 17.37555199999998,
                    "velocity": 0.6692913385826772,
                    "duration": 0.5429859999999991
                },
                {
                    "name": "B4",
                    "midi": 71,
                    "time": 17.37555199999998,
                    "velocity": 0.6692913385826772,
                    "duration": 0.5429859999999991
                },
                {
                    "name": "A#5",
                    "midi": 82,
                    "time": 17.91853799999998,
                    "velocity": 0.6771653543307087,
                    "duration": 0.27149299999999954
                },
                {
                    "name": "A#4",
                    "midi": 70,
                    "time": 17.91853799999998,
                    "velocity": 0.6141732283464567,
                    "duration": 0.27149299999999954
                },
                {
                    "name": "F#5",
                    "midi": 78,
                    "time": 17.91853799999998,
                    "velocity": 0.6141732283464567,
                    "duration": 0.27149299999999954
                },
                {
                    "name": "D#5",
                    "midi": 75,
                    "time": 17.91853799999998,
                    "velocity": 0.6141732283464567,
                    "duration": 0.27149299999999954
                },
                {
                    "name": "F#5",
                    "midi": 78,
                    "time": 18.19003099999998,
                    "velocity": 0.6062992125984252,
                    "duration": 0.27149299999999954
                },
                {
                    "name": "B5",
                    "midi": 83,
                    "time": 18.19003099999998,
                    "velocity": 0.6692913385826772,
                    "duration": 0.27149299999999954
                },
                {
                    "name": "D#5",
                    "midi": 75,
                    "time": 18.19003099999998,
                    "velocity": 0.6062992125984252,
                    "duration": 0.27149299999999954
                },
                {
                    "name": "B4",
                    "midi": 71,
                    "time": 18.19003099999998,
                    "velocity": 0.6062992125984252,
                    "duration": 0.27149299999999954
                },
                {
                    "name": "G#5",
                    "midi": 80,
                    "time": 18.46152399999998,
                    "velocity": 0.7244094488188977,
                    "duration": 0.5429859999999991
                },
                {
                    "name": "G#4",
                    "midi": 68,
                    "time": 18.46152399999998,
                    "velocity": 0.6456692913385826,
                    "duration": 0.5429859999999991
                },
                {
                    "name": "D#5",
                    "midi": 75,
                    "time": 18.46152399999998,
                    "velocity": 0.6456692913385826,
                    "duration": 0.5429859999999991
                },
                {
                    "name": "B4",
                    "midi": 71,
                    "time": 18.46152399999998,
                    "velocity": 0.6456692913385826,
                    "duration": 0.5429859999999991
                },
                {
                    "name": "G5",
                    "midi": 79,
                    "time": 19.00450999999998,
                    "velocity": 0.6535433070866141,
                    "duration": 0.27149299999999954
                },
                {
                    "name": "D#5",
                    "midi": 75,
                    "time": 19.00450999999998,
                    "velocity": 0.5826771653543307,
                    "duration": 0.27149299999999954
                },
                {
                    "name": "B4",
                    "midi": 71,
                    "time": 19.00450999999998,
                    "velocity": 0.5826771653543307,
                    "duration": 0.27149299999999954
                },
                {
                    "name": "G4",
                    "midi": 67,
                    "time": 19.00450999999998,
                    "velocity": 0.5826771653543307,
                    "duration": 0.27149299999999954
                },
                {
                    "name": "G#4",
                    "midi": 68,
                    "time": 19.276002999999978,
                    "velocity": 0.5826771653543307,
                    "duration": 0.27149299999999954
                },
                {
                    "name": "B4",
                    "midi": 71,
                    "time": 19.276002999999978,
                    "velocity": 0.5826771653543307,
                    "duration": 0.27149299999999954
                },
                {
                    "name": "G#5",
                    "midi": 80,
                    "time": 19.276002999999978,
                    "velocity": 0.6535433070866141,
                    "duration": 0.27149299999999954
                },
                {
                    "name": "D#5",
                    "midi": 75,
                    "time": 19.276002999999978,
                    "velocity": 0.5826771653543307,
                    "duration": 0.27149299999999954
                },
                {
                    "name": "F#4",
                    "midi": 66,
                    "time": 19.547495999999978,
                    "velocity": 0.6220472440944882,
                    "duration": 0.5429859999999991
                },
                {
                    "name": "A4",
                    "midi": 69,
                    "time": 19.547495999999978,
                    "velocity": 0.6220472440944882,
                    "duration": 0.5429859999999991
                },
                {
                    "name": "C5",
                    "midi": 72,
                    "time": 19.547495999999978,
                    "velocity": 0.6220472440944882,
                    "duration": 0.5429859999999991
                },
                {
                    "name": "F#5",
                    "midi": 78,
                    "time": 19.547495999999978,
                    "velocity": 0.6929133858267716,
                    "duration": 0.5429859999999991
                },
                {
                    "name": "F5",
                    "midi": 77,
                    "time": 20.090481999999977,
                    "velocity": 0.5748031496062992,
                    "duration": 0.13574649999999977
                },
                {
                    "name": "D5",
                    "midi": 74,
                    "time": 20.226228499999976,
                    "velocity": 0.48031496062992124,
                    "duration": 0.13574649999999977
                },
                {
                    "name": "A#4",
                    "midi": 70,
                    "time": 20.361974999999976,
                    "velocity": 0.49606299212598426,
                    "duration": 0.13574649999999977
                },
                {
                    "name": "A4",
                    "midi": 69,
                    "time": 20.497721499999976,
                    "velocity": 0.47244094488188976,
                    "duration": 0.13574649999999977
                },
                {
                    "name": "D5",
                    "midi": 74,
                    "time": 20.633467999999976,
                    "velocity": 0.5590551181102362,
                    "duration": 0.13574649999999977
                },
                {
                    "name": "A#4",
                    "midi": 70,
                    "time": 20.769214499999975,
                    "velocity": 0.48031496062992124,
                    "duration": 0.13574649999999977
                },
                {
                    "name": "F4",
                    "midi": 65,
                    "time": 20.904960999999975,
                    "velocity": 0.49606299212598426,
                    "duration": 0.13574649999999977
                },
                {
                    "name": "E4",
                    "midi": 64,
                    "time": 21.040707499999975,
                    "velocity": 0.48031496062992124,
                    "duration": 0.13574649999999977
                },
                {
                    "name": "A#4",
                    "midi": 70,
                    "time": 21.176453999999975,
                    "velocity": 0.5511811023622047,
                    "duration": 0.13574649999999977
                },
                {
                    "name": "F4",
                    "midi": 65,
                    "time": 21.312200499999975,
                    "velocity": 0.48031496062992124,
                    "duration": 0.13574649999999977
                },
                {
                    "name": "D4",
                    "midi": 62,
                    "time": 21.447946999999974,
                    "velocity": 0.49606299212598426,
                    "duration": 0.13574649999999977
                },
                {
                    "name": "C4",
                    "midi": 60,
                    "time": 21.583693499999974,
                    "velocity": 0.48031496062992124,
                    "duration": 0.13574649999999977
                },
                {
                    "name": "F6",
                    "midi": 89,
                    "time": 25.520341999999975,
                    "velocity": 0.5039370078740157,
                    "duration": 0.13574649999999977
                },
                {
                    "name": "D6",
                    "midi": 86,
                    "time": 25.656088499999974,
                    "velocity": 0.4645669291338583,
                    "duration": 0.13574649999999977
                },
                {
                    "name": "A#5",
                    "midi": 82,
                    "time": 25.791834999999974,
                    "velocity": 0.48031496062992124,
                    "duration": 0.13574649999999977
                },
                {
                    "name": "A5",
                    "midi": 81,
                    "time": 25.927581499999974,
                    "velocity": 0.47244094488188976,
                    "duration": 0.13574649999999977
                },
                {
                    "name": "D6",
                    "midi": 86,
                    "time": 26.063327999999974,
                    "velocity": 0.5039370078740157,
                    "duration": 0.13574649999999977
                },
                {
                    "name": "A#5",
                    "midi": 82,
                    "time": 26.199074499999973,
                    "velocity": 0.4566929133858268,
                    "duration": 0.13574649999999977
                },
                {
                    "name": "F5",
                    "midi": 77,
                    "time": 26.334820999999973,
                    "velocity": 0.4566929133858268,
                    "duration": 0.13574649999999977
                },
                {
                    "name": "E5",
                    "midi": 76,
                    "time": 26.470567499999973,
                    "velocity": 0.4566929133858268,
                    "duration": 0.13574649999999977
                },
                {
                    "name": "A#5",
                    "midi": 82,
                    "time": 26.606313999999973,
                    "velocity": 0.47244094488188976,
                    "duration": 0.13574649999999977
                },
                {
                    "name": "F5",
                    "midi": 77,
                    "time": 26.742060499999972,
                    "velocity": 0.4409448818897638,
                    "duration": 0.13574649999999977
                },
                {
                    "name": "D5",
                    "midi": 74,
                    "time": 26.877806999999972,
                    "velocity": 0.4409448818897638,
                    "duration": 0.13574649999999977
                },
                {
                    "name": "C5",
                    "midi": 72,
                    "time": 27.013553499999972,
                    "velocity": 0.4409448818897638,
                    "duration": 0.13574649999999977
                },
                {
                    "name": "A#4",
                    "midi": 70,
                    "time": 27.149299999999972,
                    "velocity": 0.5196850393700787,
                    "duration": 0.5429859999999991
                },
                {
                    "name": "A#4",
                    "midi": 70,
                    "time": 27.69228599999997,
                    "velocity": 0.5354330708661418,
                    "duration": 0.5429859999999991
                },
                {
                    "name": "G4",
                    "midi": 67,
                    "time": 27.69228599999997,
                    "velocity": 0.47244094488188976,
                    "duration": 0.5429859999999991
                },
                {
                    "name": "D#4",
                    "midi": 63,
                    "time": 28.23527199999997,
                    "velocity": 0.49606299212598426,
                    "duration": 0.5429859999999991
                },
                {
                    "name": "G4",
                    "midi": 67,
                    "time": 28.23527199999997,
                    "velocity": 0.5590551181102362,
                    "duration": 0.5429859999999991
                },
                {
                    "name": "A#4",
                    "midi": 70,
                    "time": 28.23527199999997,
                    "velocity": 0.5590551181102362,
                    "duration": 0.5429859999999991
                },
                {
                    "name": "C5",
                    "midi": 72,
                    "time": 28.77825799999997,
                    "velocity": 0.5826771653543307,
                    "duration": 0.5429859999999991
                },
                {
                    "name": "C4",
                    "midi": 60,
                    "time": 28.77825799999997,
                    "velocity": 0.5275590551181102,
                    "duration": 0.5429859999999991
                },
                {
                    "name": "D#4",
                    "midi": 63,
                    "time": 28.77825799999997,
                    "velocity": 0.5275590551181102,
                    "duration": 0.5429859999999991
                },
                {
                    "name": "G4",
                    "midi": 67,
                    "time": 28.77825799999997,
                    "velocity": 0.5826771653543307,
                    "duration": 0.5429859999999991
                },
                {
                    "name": "C4",
                    "midi": 60,
                    "time": 29.321243999999968,
                    "velocity": 0.5354330708661418,
                    "duration": 0.5429859999999991
                },
                {
                    "name": "D#4",
                    "midi": 63,
                    "time": 29.321243999999968,
                    "velocity": 0.5354330708661418,
                    "duration": 0.5429859999999991
                },
                {
                    "name": "G#4",
                    "midi": 68,
                    "time": 29.321243999999968,
                    "velocity": 0.5905511811023622,
                    "duration": 0.5429859999999991
                },
                {
                    "name": "C5",
                    "midi": 72,
                    "time": 29.321243999999968,
                    "velocity": 0.5905511811023622,
                    "duration": 0.5429859999999991
                },
                {
                    "name": "C5",
                    "midi": 72,
                    "time": 29.864229999999967,
                    "velocity": 0.5669291338582677,
                    "duration": 0.5429859999999991
                },
                {
                    "name": "F5",
                    "midi": 77,
                    "time": 29.864229999999967,
                    "velocity": 0.6377952755905512,
                    "duration": 0.5429859999999991
                },
                {
                    "name": "F4",
                    "midi": 65,
                    "time": 29.864229999999967,
                    "velocity": 0.5669291338582677,
                    "duration": 0.5429859999999991
                },
                {
                    "name": "G#4",
                    "midi": 68,
                    "time": 29.864229999999967,
                    "velocity": 0.5669291338582677,
                    "duration": 0.5429859999999991
                },
                {
                    "name": "D4",
                    "midi": 62,
                    "time": 30.407215999999966,
                    "velocity": 0.6220472440944882,
                    "duration": 2.171944000000014
                },
                {
                    "name": "G4",
                    "midi": 67,
                    "time": 30.407215999999966,
                    "velocity": 0.6220472440944882,
                    "duration": 2.171944000000014
                },
                {
                    "name": "B4",
                    "midi": 71,
                    "time": 30.407215999999966,
                    "velocity": 0.6929133858267716,
                    "duration": 2.0361975000000108
                },
                {
                    "name": "D5",
                    "midi": 74,
                    "time": 30.407215999999966,
                    "velocity": 0.6929133858267716,
                    "duration": 1.4932114999999975
                },
                {
                    "name": "D6",
                    "midi": 86,
                    "time": 30.950201999999965,
                    "velocity": 0.44881889763779526,
                    "duration": 0.13574649999999977
                },
                {
                    "name": "B5",
                    "midi": 83,
                    "time": 31.085948499999965,
                    "velocity": 0.41732283464566927,
                    "duration": 0.13574649999999977
                },
                {
                    "name": "G5",
                    "midi": 79,
                    "time": 31.221694999999965,
                    "velocity": 0.4251968503937008,
                    "duration": 0.13574649999999977
                },
                {
                    "name": "F#5",
                    "midi": 78,
                    "time": 31.357441499999965,
                    "velocity": 0.4251968503937008,
                    "duration": 0.13574649999999977
                },
                {
                    "name": "B5",
                    "midi": 83,
                    "time": 31.493187999999964,
                    "velocity": 0.44881889763779526,
                    "duration": 0.13574649999999977
                },
                {
                    "name": "G5",
                    "midi": 79,
                    "time": 31.628934499999964,
                    "velocity": 0.4251968503937008,
                    "duration": 0.13574649999999977
                },
                {
                    "name": "D5",
                    "midi": 74,
                    "time": 31.764680999999964,
                    "velocity": 0.4251968503937008,
                    "duration": 0.5429860000000097
                },
                {
                    "name": "C#5",
                    "midi": 73,
                    "time": 31.900427499999964,
                    "velocity": 0.4251968503937008,
                    "duration": 0.13574650000000332
                },
                {
                    "name": "G5",
                    "midi": 79,
                    "time": 32.03617399999997,
                    "velocity": 0.44881889763779526,
                    "duration": 0.13574650000000332
                },
                {
                    "name": "D5",
                    "midi": 74,
                    "time": 32.17192049999997,
                    "velocity": 0.4251968503937008,
                    "duration": 0.40723950000000997
                },
                {
                    "name": "B4",
                    "midi": 71,
                    "time": 32.307666999999974,
                    "velocity": 0.4330708661417323,
                    "duration": 0.27149300000000665
                },
                {
                    "name": "A4",
                    "midi": 69,
                    "time": 32.44341349999998,
                    "velocity": 0.4251968503937008,
                    "duration": 0.13574650000000332
                },
                {
                    "name": "G4",
                    "midi": 67,
                    "time": 32.57915999999998,
                    "velocity": 0.5039370078740157,
                    "duration": 0.5429859999999991
                },
                {
                    "name": "F4",
                    "midi": 65,
                    "time": 33.12214599999998,
                    "velocity": 0.4566929133858268,
                    "duration": 0.5429859999999991
                },
                {
                    "name": "G4",
                    "midi": 67,
                    "time": 33.12214599999998,
                    "velocity": 0.5039370078740157,
                    "duration": 0.5429859999999991
                },
                {
                    "name": "D#4",
                    "midi": 63,
                    "time": 33.66513199999998,
                    "velocity": 0.47244094488188976,
                    "duration": 0.5429859999999991
                },
                {
                    "name": "G4",
                    "midi": 67,
                    "time": 33.66513199999998,
                    "velocity": 0.5354330708661418,
                    "duration": 0.5429859999999991
                },
                {
                    "name": "F4",
                    "midi": 65,
                    "time": 34.20811799999998,
                    "velocity": 0.4881889763779528,
                    "duration": 0.5429859999999991
                },
                {
                    "name": "D4",
                    "midi": 62,
                    "time": 34.20811799999998,
                    "velocity": 0.4881889763779528,
                    "duration": 0.5429859999999991
                },
                {
                    "name": "G4",
                    "midi": 67,
                    "time": 34.20811799999998,
                    "velocity": 0.5511811023622047,
                    "duration": 0.5429859999999991
                },
                {
                    "name": "C4",
                    "midi": 60,
                    "time": 34.75110399999998,
                    "velocity": 0.5275590551181102,
                    "duration": 0.5429859999999991
                },
                {
                    "name": "D#4",
                    "midi": 63,
                    "time": 34.75110399999998,
                    "velocity": 0.5275590551181102,
                    "duration": 0.5429859999999991
                },
                {
                    "name": "G4",
                    "midi": 67,
                    "time": 34.75110399999998,
                    "velocity": 0.5826771653543307,
                    "duration": 0.5429859999999991
                },
                {
                    "name": "A4",
                    "midi": 69,
                    "time": 35.294089999999976,
                    "velocity": 0.6141732283464567,
                    "duration": 0.5429859999999991
                },
                {
                    "name": "D#4",
                    "midi": 63,
                    "time": 35.294089999999976,
                    "velocity": 0.5433070866141733,
                    "duration": 0.5429859999999991
                },
                {
                    "name": "C4",
                    "midi": 60,
                    "time": 35.294089999999976,
                    "velocity": 0.5433070866141733,
                    "duration": 0.5429859999999991
                },
                {
                    "name": "A#3",
                    "midi": 58,
                    "time": 35.837075999999975,
                    "velocity": 0.5826771653543307,
                    "duration": 2.171944000000039
                },
                {
                    "name": "D4",
                    "midi": 62,
                    "time": 35.837075999999975,
                    "velocity": 0.5826771653543307,
                    "duration": 2.171944000000039
                },
                {
                    "name": "A#4",
                    "midi": 70,
                    "time": 35.837075999999975,
                    "velocity": 0.6535433070866141,
                    "duration": 2.171944000000039
                },
                {
                    "name": "F6",
                    "midi": 89,
                    "time": 36.380061999999974,
                    "velocity": 0.5039370078740157,
                    "duration": 0.13574650000000332
                },
                {
                    "name": "D6",
                    "midi": 86,
                    "time": 36.51580849999998,
                    "velocity": 0.48031496062992124,
                    "duration": 0.13574650000000332
                },
                {
                    "name": "A#5",
                    "midi": 82,
                    "time": 36.65155499999998,
                    "velocity": 0.5039370078740157,
                    "duration": 0.13574650000000332
                },
                {
                    "name": "A5",
                    "midi": 81,
                    "time": 36.787301499999984,
                    "velocity": 0.4881889763779528,
                    "duration": 0.13574650000000332
                },
                {
                    "name": "D6",
                    "midi": 86,
                    "time": 36.92304799999999,
                    "velocity": 0.47244094488188976,
                    "duration": 0.13574650000000332
                },
                {
                    "name": "A#5",
                    "midi": 82,
                    "time": 37.05879449999999,
                    "velocity": 0.4330708661417323,
                    "duration": 0.13574650000000332
                },
                {
                    "name": "F5",
                    "midi": 77,
                    "time": 37.194540999999994,
                    "velocity": 0.4566929133858268,
                    "duration": 0.13574650000000332
                },
                {
                    "name": "E5",
                    "midi": 76,
                    "time": 37.3302875,
                    "velocity": 0.4251968503937008,
                    "duration": 0.13574650000000332
                },
                {
                    "name": "A#5",
                    "midi": 82,
                    "time": 37.466034,
                    "velocity": 0.4566929133858268,
                    "duration": 0.13574650000000332
                },
                {
                    "name": "F5",
                    "midi": 77,
                    "time": 37.601780500000004,
                    "velocity": 0.41732283464566927,
                    "duration": 0.13574650000000332
                },
                {
                    "name": "D5",
                    "midi": 74,
                    "time": 37.73752700000001,
                    "velocity": 0.4409448818897638,
                    "duration": 0.13574650000000332
                },
                {
                    "name": "C5",
                    "midi": 72,
                    "time": 37.87327350000001,
                    "velocity": 0.41732283464566927,
                    "duration": 0.13574650000000332
                },
                {
                    "name": "A#4",
                    "midi": 70,
                    "time": 38.009020000000014,
                    "velocity": 0.5039370078740157,
                    "duration": 0.5429859999999991
                },
                {
                    "name": "F#4",
                    "midi": 66,
                    "time": 38.55200600000001,
                    "velocity": 0.5118110236220472,
                    "duration": 0.5429859999999991
                },
                {
                    "name": "A#4",
                    "midi": 70,
                    "time": 38.55200600000001,
                    "velocity": 0.5118110236220472,
                    "duration": 0.5429859999999991
                },
                {
                    "name": "F#4",
                    "midi": 66,
                    "time": 39.09499200000001,
                    "velocity": 0.4881889763779528,
                    "duration": 0.5429859999999991
                },
                {
                    "name": "D#4",
                    "midi": 63,
                    "time": 39.09499200000001,
                    "velocity": 0.4881889763779528,
                    "duration": 0.5429859999999991
                },
                {
                    "name": "A#4",
                    "midi": 70,
                    "time": 39.09499200000001,
                    "velocity": 0.5433070866141733,
                    "duration": 0.5429859999999991
                },
                {
                    "name": "F#4",
                    "midi": 66,
                    "time": 39.63797800000001,
                    "velocity": 0.5354330708661418,
                    "duration": 0.5429859999999991
                },
                {
                    "name": "D#4",
                    "midi": 63,
                    "time": 39.63797800000001,
                    "velocity": 0.5354330708661418,
                    "duration": 0.5429859999999991
                },
                {
                    "name": "B4",
                    "midi": 71,
                    "time": 39.63797800000001,
                    "velocity": 0.5354330708661418,
                    "duration": 0.5429859999999991
                },
                {
                    "name": "D#5",
                    "midi": 75,
                    "time": 39.63797800000001,
                    "velocity": 0.6062992125984252,
                    "duration": 0.5429859999999991
                },
                {
                    "name": "D#4",
                    "midi": 63,
                    "time": 40.18096400000001,
                    "velocity": 0.5590551181102362,
                    "duration": 0.5429859999999991
                },
                {
                    "name": "D#5",
                    "midi": 75,
                    "time": 40.18096400000001,
                    "velocity": 0.6299212598425197,
                    "duration": 0.5429859999999991
                },
                {
                    "name": "G#4",
                    "midi": 68,
                    "time": 40.18096400000001,
                    "velocity": 0.5590551181102362,
                    "duration": 0.5429859999999991
                },
                {
                    "name": "B4",
                    "midi": 71,
                    "time": 40.18096400000001,
                    "velocity": 0.5590551181102362,
                    "duration": 0.5429859999999991
                },
                {
                    "name": "B4",
                    "midi": 71,
                    "time": 40.72395000000001,
                    "velocity": 0.6220472440944882,
                    "duration": 0.5429859999999991
                },
                {
                    "name": "G#4",
                    "midi": 68,
                    "time": 40.72395000000001,
                    "velocity": 0.6220472440944882,
                    "duration": 0.5429859999999991
                },
                {
                    "name": "E5",
                    "midi": 76,
                    "time": 40.72395000000001,
                    "velocity": 0.6929133858267716,
                    "duration": 0.5429859999999991
                },
                {
                    "name": "G#5",
                    "midi": 80,
                    "time": 40.72395000000001,
                    "velocity": 0.6929133858267716,
                    "duration": 0.5429859999999991
                },
                {
                    "name": "F#4",
                    "midi": 66,
                    "time": 41.26693600000001,
                    "velocity": 0.6929133858267716,
                    "duration": 1.0859719999999982
                },
                {
                    "name": "F#5",
                    "midi": 78,
                    "time": 41.26693600000001,
                    "velocity": 0.7637795275590551,
                    "duration": 1.0859719999999982
                },
                {
                    "name": "B4",
                    "midi": 71,
                    "time": 41.26693600000001,
                    "velocity": 0.6929133858267716,
                    "duration": 1.0859719999999982
                },
                {
                    "name": "D#5",
                    "midi": 75,
                    "time": 41.26693600000001,
                    "velocity": 0.7637795275590551,
                    "duration": 1.0859719999999982
                },
                {
                    "name": "B5",
                    "midi": 83,
                    "time": 41.80992200000001,
                    "velocity": 0.7007874015748031,
                    "duration": 0.5429859999999991
                },
                {
                    "name": "D#6",
                    "midi": 87,
                    "time": 41.80992200000001,
                    "velocity": 0.7795275590551181,
                    "duration": 0.5429859999999991
                },
                {
                    "name": "D#5",
                    "midi": 75,
                    "time": 41.80992200000001,
                    "velocity": 0.7007874015748031,
                    "duration": 0.5429859999999991
                },
                {
                    "name": "A#5",
                    "midi": 82,
                    "time": 42.352908000000006,
                    "velocity": 0.7007874015748031,
                    "duration": 0.5429859999999991
                },
                {
                    "name": "D#5",
                    "midi": 75,
                    "time": 42.352908000000006,
                    "velocity": 0.7007874015748031,
                    "duration": 0.5429859999999991
                },
                {
                    "name": "D#6",
                    "midi": 87,
                    "time": 42.352908000000006,
                    "velocity": 0.7795275590551181,
                    "duration": 0.5429859999999991
                },
                {
                    "name": "D#5",
                    "midi": 75,
                    "time": 42.895894000000006,
                    "velocity": 0.7007874015748031,
                    "duration": 0.5429859999999991
                },
                {
                    "name": "D#6",
                    "midi": 87,
                    "time": 42.895894000000006,
                    "velocity": 0.7795275590551181,
                    "duration": 0.5429859999999991
                },
                {
                    "name": "A5",
                    "midi": 81,
                    "time": 42.895894000000006,
                    "velocity": 0.7007874015748031,
                    "duration": 0.5429859999999991
                },
                {
                    "name": "D#6",
                    "midi": 87,
                    "time": 43.438880000000005,
                    "velocity": 0.8031496062992126,
                    "duration": 0.40723950000000286
                },
                {
                    "name": "A#5",
                    "midi": 82,
                    "time": 43.438880000000005,
                    "velocity": 0.7165354330708661,
                    "duration": 0.40723950000000286
                },
                {
                    "name": "G5",
                    "midi": 79,
                    "time": 43.438880000000005,
                    "velocity": 0.7165354330708661,
                    "duration": 0.40723950000000286
                },
                {
                    "name": "D#5",
                    "midi": 75,
                    "time": 43.438880000000005,
                    "velocity": 0.7165354330708661,
                    "duration": 0.40723950000000286
                },
                {
                    "name": "A#4",
                    "midi": 70,
                    "time": 43.98186600000001,
                    "velocity": 0.5196850393700787,
                    "duration": 0.13574650000000332
                },
                {
                    "name": "F4",
                    "midi": 65,
                    "time": 43.98186600000001,
                    "velocity": 0.5196850393700787,
                    "duration": 0.13574650000000332
                },
                {
                    "name": "D5",
                    "midi": 74,
                    "time": 43.98186600000001,
                    "velocity": 0.5196850393700787,
                    "duration": 0.13574650000000332
                },
                {
                    "name": "F5",
                    "midi": 77,
                    "time": 43.98186600000001,
                    "velocity": 0.5748031496062992,
                    "duration": 0.13574650000000332
                },
                {
                    "name": "G4",
                    "midi": 67,
                    "time": 44.25335900000002,
                    "velocity": 0.5196850393700787,
                    "duration": 0.13574650000000332
                },
                {
                    "name": "G5",
                    "midi": 79,
                    "time": 44.25335900000002,
                    "velocity": 0.5748031496062992,
                    "duration": 0.13574650000000332
                },
                {
                    "name": "A#4",
                    "midi": 70,
                    "time": 44.25335900000002,
                    "velocity": 0.5196850393700787,
                    "duration": 0.13574650000000332
                },
                {
                    "name": "D#5",
                    "midi": 75,
                    "time": 44.25335900000002,
                    "velocity": 0.5196850393700787,
                    "duration": 0.13574650000000332
                },
                {
                    "name": "C5",
                    "midi": 72,
                    "time": 44.524852000000024,
                    "velocity": 0.6062992125984252,
                    "duration": 0.5429859999999991
                },
                {
                    "name": "G#4",
                    "midi": 68,
                    "time": 44.524852000000024,
                    "velocity": 0.6062992125984252,
                    "duration": 0.5429859999999991
                },
                {
                    "name": "D#5",
                    "midi": 75,
                    "time": 44.524852000000024,
                    "velocity": 0.6062992125984252,
                    "duration": 0.5429859999999991
                },
                {
                    "name": "G#5",
                    "midi": 80,
                    "time": 44.524852000000024,
                    "velocity": 0.6692913385826772,
                    "duration": 0.5429859999999991
                },
                {
                    "name": "G4",
                    "midi": 67,
                    "time": 45.06783800000002,
                    "velocity": 0.5039370078740157,
                    "duration": 0.13574650000000332
                },
                {
                    "name": "G5",
                    "midi": 79,
                    "time": 45.06783800000002,
                    "velocity": 0.5669291338582677,
                    "duration": 0.13574650000000332
                },
                {
                    "name": "A#4",
                    "midi": 70,
                    "time": 45.06783800000002,
                    "velocity": 0.5039370078740157,
                    "duration": 0.13574650000000332
                },
                {
                    "name": "D#5",
                    "midi": 75,
                    "time": 45.06783800000002,
                    "velocity": 0.5669291338582677,
                    "duration": 0.13574650000000332
                },
                {
                    "name": "F4",
                    "midi": 65,
                    "time": 45.33933100000003,
                    "velocity": 0.5039370078740157,
                    "duration": 0.13574650000000332
                },
                {
                    "name": "C5",
                    "midi": 72,
                    "time": 45.33933100000003,
                    "velocity": 0.5039370078740157,
                    "duration": 0.13574650000000332
                },
                {
                    "name": "F5",
                    "midi": 77,
                    "time": 45.33933100000003,
                    "velocity": 0.5669291338582677,
                    "duration": 0.13574650000000332
                },
                {
                    "name": "D#5",
                    "midi": 75,
                    "time": 45.33933100000003,
                    "velocity": 0.5039370078740157,
                    "duration": 0.13574650000000332
                },
                {
                    "name": "G5",
                    "midi": 79,
                    "time": 45.61082400000004,
                    "velocity": 0.6771653543307087,
                    "duration": 0.5429859999999991
                },
                {
                    "name": "D#5",
                    "midi": 75,
                    "time": 45.61082400000004,
                    "velocity": 0.6141732283464567,
                    "duration": 0.5429859999999991
                },
                {
                    "name": "G4",
                    "midi": 67,
                    "time": 45.61082400000004,
                    "velocity": 0.6141732283464567,
                    "duration": 0.5429859999999991
                },
                {
                    "name": "A#4",
                    "midi": 70,
                    "time": 45.61082400000004,
                    "velocity": 0.6141732283464567,
                    "duration": 0.5429859999999991
                },
                {
                    "name": "F4",
                    "midi": 65,
                    "time": 46.153810000000036,
                    "velocity": 0.5039370078740157,
                    "duration": 0.13574650000000332
                },
                {
                    "name": "G#4",
                    "midi": 68,
                    "time": 46.153810000000036,
                    "velocity": 0.5039370078740157,
                    "duration": 0.13574650000000332
                },
                {
                    "name": "D5",
                    "midi": 74,
                    "time": 46.153810000000036,
                    "velocity": 0.5039370078740157,
                    "duration": 0.13574650000000332
                },
                {
                    "name": "F5",
                    "midi": 77,
                    "time": 46.153810000000036,
                    "velocity": 0.5669291338582677,
                    "duration": 0.13574650000000332
                },
                {
                    "name": "D#5",
                    "midi": 75,
                    "time": 46.42530300000004,
                    "velocity": 0.5590551181102362,
                    "duration": 0.13574650000000332
                },
                {
                    "name": "D#4",
                    "midi": 63,
                    "time": 46.42530300000004,
                    "velocity": 0.49606299212598426,
                    "duration": 0.13574650000000332
                },
                {
                    "name": "G4",
                    "midi": 67,
                    "time": 46.42530300000004,
                    "velocity": 0.49606299212598426,
                    "duration": 0.13574650000000332
                },
                {
                    "name": "A#4",
                    "midi": 70,
                    "time": 46.42530300000004,
                    "velocity": 0.49606299212598426,
                    "duration": 0.13574650000000332
                },
                {
                    "name": "F4",
                    "midi": 65,
                    "time": 46.69679600000005,
                    "velocity": 0.4881889763779528,
                    "duration": 0.13574650000000332
                },
                {
                    "name": "D5",
                    "midi": 74,
                    "time": 46.69679600000005,
                    "velocity": 0.4881889763779528,
                    "duration": 0.13574650000000332
                },
                {
                    "name": "F5",
                    "midi": 77,
                    "time": 46.69679600000005,
                    "velocity": 0.5511811023622047,
                    "duration": 0.13574650000000332
                },
                {
                    "name": "A#4",
                    "midi": 70,
                    "time": 46.968289000000055,
                    "velocity": 0.5433070866141733,
                    "duration": 0.13574650000000332
                },
                {
                    "name": "D#5",
                    "midi": 75,
                    "time": 47.23978200000006,
                    "velocity": 0.6220472440944882,
                    "duration": 0.5429859999999991
                },
                {
                    "name": "C5",
                    "midi": 72,
                    "time": 47.23978200000006,
                    "velocity": 0.5511811023622047,
                    "duration": 0.5429859999999991
                },
                {
                    "name": "D#4",
                    "midi": 63,
                    "time": 47.23978200000006,
                    "velocity": 0.5511811023622047,
                    "duration": 0.5429859999999991
                },
                {
                    "name": "D#4",
                    "midi": 63,
                    "time": 47.78276800000006,
                    "velocity": 0.5433070866141733,
                    "duration": 0.5429859999999991
                },
                {
                    "name": "A#4",
                    "midi": 70,
                    "time": 47.78276800000006,
                    "velocity": 0.5433070866141733,
                    "duration": 0.5429859999999991
                },
                {
                    "name": "D5",
                    "midi": 74,
                    "time": 47.78276800000006,
                    "velocity": 0.6141732283464567,
                    "duration": 0.5429859999999991
                },
                {
                    "name": "D#5",
                    "midi": 75,
                    "time": 47.78276800000006,
                    "velocity": 0.6141732283464567,
                    "duration": 0.5429859999999991
                },
                {
                    "name": "D#5",
                    "midi": 75,
                    "time": 48.32575400000006,
                    "velocity": 0.6062992125984252,
                    "duration": 0.5429859999999991
                },
                {
                    "name": "D#4",
                    "midi": 63,
                    "time": 48.32575400000006,
                    "velocity": 0.5433070866141733,
                    "duration": 0.5429859999999991
                },
                {
                    "name": "G#4",
                    "midi": 68,
                    "time": 48.32575400000006,
                    "velocity": 0.5433070866141733,
                    "duration": 0.5429859999999991
                },
                {
                    "name": "C5",
                    "midi": 72,
                    "time": 48.32575400000006,
                    "velocity": 0.5433070866141733,
                    "duration": 0.5429859999999991
                },
                {
                    "name": "D#4",
                    "midi": 63,
                    "time": 48.86874000000006,
                    "velocity": 0.5275590551181102,
                    "duration": 0.5429859999999991
                },
                {
                    "name": "G4",
                    "midi": 67,
                    "time": 48.86874000000006,
                    "velocity": 0.5275590551181102,
                    "duration": 0.5429859999999991
                },
                {
                    "name": "A#4",
                    "midi": 70,
                    "time": 48.86874000000006,
                    "velocity": 0.5275590551181102,
                    "duration": 0.5429859999999991
                },
                {
                    "name": "D#5",
                    "midi": 75,
                    "time": 48.86874000000006,
                    "velocity": 0.5826771653543307,
                    "duration": 0.5429859999999991
                },
                {
                    "name": "D5",
                    "midi": 74,
                    "time": 49.41172600000006,
                    "velocity": 0.6062992125984252,
                    "duration": 0.13574650000000332
                },
                {
                    "name": "F4",
                    "midi": 65,
                    "time": 49.41172600000006,
                    "velocity": 0.5433070866141733,
                    "duration": 0.13574650000000332
                },
                {
                    "name": "A#4",
                    "midi": 70,
                    "time": 49.41172600000006,
                    "velocity": 0.5433070866141733,
                    "duration": 0.13574650000000332
                },
                {
                    "name": "D4",
                    "midi": 62,
                    "time": 49.41172600000006,
                    "velocity": 0.5433070866141733,
                    "duration": 0.13574650000000332
                },
                {
                    "name": "D#4",
                    "midi": 63,
                    "time": 49.683219000000065,
                    "velocity": 0.5433070866141733,
                    "duration": 0.13574650000000332
                },
                {
                    "name": "G4",
                    "midi": 67,
                    "time": 49.683219000000065,
                    "velocity": 0.5433070866141733,
                    "duration": 0.13574650000000332
                },
                {
                    "name": "A#4",
                    "midi": 70,
                    "time": 49.683219000000065,
                    "velocity": 0.5433070866141733,
                    "duration": 0.13574650000000332
                },
                {
                    "name": "D#5",
                    "midi": 75,
                    "time": 49.683219000000065,
                    "velocity": 0.6062992125984252,
                    "duration": 0.13574650000000332
                },
                {
                    "name": "G4",
                    "midi": 67,
                    "time": 49.95471200000007,
                    "velocity": 0.5748031496062992,
                    "duration": 0.5429859999999991
                },
                {
                    "name": "C5",
                    "midi": 72,
                    "time": 49.95471200000007,
                    "velocity": 0.5748031496062992,
                    "duration": 0.5429859999999991
                },
                {
                    "name": "D#5",
                    "midi": 75,
                    "time": 49.95471200000007,
                    "velocity": 0.5748031496062992,
                    "duration": 0.5429859999999991
                },
                {
                    "name": "G5",
                    "midi": 79,
                    "time": 49.95471200000007,
                    "velocity": 0.6456692913385826,
                    "duration": 0.5429859999999991
                },
                {
                    "name": "F4",
                    "midi": 65,
                    "time": 50.49769800000007,
                    "velocity": 0.5354330708661418,
                    "duration": 0.13574650000000332
                },
                {
                    "name": "G#4",
                    "midi": 68,
                    "time": 50.49769800000007,
                    "velocity": 0.5354330708661418,
                    "duration": 0.13574650000000332
                },
                {
                    "name": "C5",
                    "midi": 72,
                    "time": 50.49769800000007,
                    "velocity": 0.5354330708661418,
                    "duration": 0.13574650000000332
                },
                {
                    "name": "F5",
                    "midi": 77,
                    "time": 50.49769800000007,
                    "velocity": 0.5905511811023622,
                    "duration": 0.13574650000000332
                },
                {
                    "name": "C5",
                    "midi": 72,
                    "time": 50.76919100000008,
                    "velocity": 0.5354330708661418,
                    "duration": 0.13574650000000332
                },
                {
                    "name": "D#5",
                    "midi": 75,
                    "time": 50.76919100000008,
                    "velocity": 0.5905511811023622,
                    "duration": 0.13574650000000332
                },
                {
                    "name": "D#4",
                    "midi": 63,
                    "time": 50.76919100000008,
                    "velocity": 0.5354330708661418,
                    "duration": 0.13574650000000332
                },
                {
                    "name": "G4",
                    "midi": 67,
                    "time": 50.76919100000008,
                    "velocity": 0.5354330708661418,
                    "duration": 0.13574650000000332
                },
                {
                    "name": "D4",
                    "midi": 62,
                    "time": 51.040684000000084,
                    "velocity": 0.5590551181102362,
                    "duration": 0.5429859999999991
                },
                {
                    "name": "G4",
                    "midi": 67,
                    "time": 51.040684000000084,
                    "velocity": 0.5590551181102362,
                    "duration": 0.5429859999999991
                },
                {
                    "name": "A#4",
                    "midi": 70,
                    "time": 51.040684000000084,
                    "velocity": 0.5590551181102362,
                    "duration": 0.5429859999999991
                },
                {
                    "name": "D5",
                    "midi": 74,
                    "time": 51.040684000000084,
                    "velocity": 0.6299212598425197,
                    "duration": 0.5429859999999991
                },
                {
                    "name": "G4",
                    "midi": 67,
                    "time": 51.58367000000008,
                    "velocity": 0.5039370078740157,
                    "duration": 0.13574650000000332
                },
                {
                    "name": "C4",
                    "midi": 60,
                    "time": 51.58367000000008,
                    "velocity": 0.5039370078740157,
                    "duration": 0.13574650000000332
                },
                {
                    "name": "D#4",
                    "midi": 63,
                    "time": 51.58367000000008,
                    "velocity": 0.5039370078740157,
                    "duration": 0.13574650000000332
                },
                {
                    "name": "C5",
                    "midi": 72,
                    "time": 51.58367000000008,
                    "velocity": 0.5669291338582677,
                    "duration": 0.13574650000000332
                },
                {
                    "name": "A#3",
                    "midi": 58,
                    "time": 51.85516300000009,
                    "velocity": 0.4881889763779528,
                    "duration": 0.13574650000000332
                },
                {
                    "name": "D4",
                    "midi": 62,
                    "time": 51.85516300000009,
                    "velocity": 0.4881889763779528,
                    "duration": 0.13574650000000332
                },
                {
                    "name": "A#4",
                    "midi": 70,
                    "time": 51.85516300000009,
                    "velocity": 0.5511811023622047,
                    "duration": 0.13574650000000332
                },
                {
                    "name": "G4",
                    "midi": 67,
                    "time": 51.85516300000009,
                    "velocity": 0.4881889763779528,
                    "duration": 0.13574650000000332
                },
                {
                    "name": "A4",
                    "midi": 69,
                    "time": 52.1266560000001,
                    "velocity": 0.5511811023622047,
                    "duration": 0.13574650000000332
                },
                {
                    "name": "F#4",
                    "midi": 66,
                    "time": 52.1266560000001,
                    "velocity": 0.4881889763779528,
                    "duration": 0.13574650000000332
                },
                {
                    "name": "A3",
                    "midi": 57,
                    "time": 52.1266560000001,
                    "velocity": 0.4881889763779528,
                    "duration": 0.13574650000000332
                },
                {
                    "name": "D4",
                    "midi": 62,
                    "time": 52.3981490000001,
                    "velocity": 0.5354330708661418,
                    "duration": 0.13574650000000332
                },
                {
                    "name": "G3",
                    "midi": 55,
                    "time": 52.66964200000011,
                    "velocity": 0.4645669291338583,
                    "duration": 0.5429859999999991
                },
                {
                    "name": "G4",
                    "midi": 67,
                    "time": 52.66964200000011,
                    "velocity": 0.5196850393700787,
                    "duration": 0.5429859999999991
                },
                {
                    "name": "G4",
                    "midi": 67,
                    "time": 53.21262800000011,
                    "velocity": 0.5905511811023622,
                    "duration": 0.5429859999999991
                },
                {
                    "name": "G3",
                    "midi": 55,
                    "time": 53.21262800000011,
                    "velocity": 0.5354330708661418,
                    "duration": 0.5429859999999991
                },
                {
                    "name": "F#4",
                    "midi": 66,
                    "time": 53.21262800000011,
                    "velocity": 0.5905511811023622,
                    "duration": 0.5429859999999991
                },
                {
                    "name": "G3",
                    "midi": 55,
                    "time": 53.75561400000011,
                    "velocity": 0.5275590551181102,
                    "duration": 0.40723950000000286
                },
                {
                    "name": "F4",
                    "midi": 65,
                    "time": 53.75561400000011,
                    "velocity": 0.5826771653543307,
                    "duration": 0.40723950000000286
                },
                {
                    "name": "G4",
                    "midi": 67,
                    "time": 53.75561400000011,
                    "velocity": 0.5826771653543307,
                    "duration": 0.40723950000000286
                },
                {
                    "name": "G5",
                    "midi": 79,
                    "time": 54.298600000000114,
                    "velocity": 0.6062992125984252,
                    "duration": 0.5429859999999991
                },
                {
                    "name": "D#5",
                    "midi": 75,
                    "time": 54.298600000000114,
                    "velocity": 0.5118110236220472,
                    "duration": 0.5429859999999991
                },
                {
                    "name": "G4",
                    "midi": 67,
                    "time": 54.298600000000114,
                    "velocity": 0.5118110236220472,
                    "duration": 0.5429859999999991
                },
                {
                    "name": "A#4",
                    "midi": 70,
                    "time": 54.298600000000114,
                    "velocity": 0.5118110236220472,
                    "duration": 0.5429859999999991
                },
                {
                    "name": "F4",
                    "midi": 65,
                    "time": 54.84158600000011,
                    "velocity": 0.48031496062992124,
                    "duration": 0.13574650000000332
                },
                {
                    "name": "A#4",
                    "midi": 70,
                    "time": 54.84158600000011,
                    "velocity": 0.48031496062992124,
                    "duration": 0.13574650000000332
                },
                {
                    "name": "D5",
                    "midi": 74,
                    "time": 54.84158600000011,
                    "velocity": 0.48031496062992124,
                    "duration": 0.13574650000000332
                },
                {
                    "name": "F5",
                    "midi": 77,
                    "time": 54.84158600000011,
                    "velocity": 0.5669291338582677,
                    "duration": 0.13574650000000332
                },
                {
                    "name": "G5",
                    "midi": 79,
                    "time": 55.11307900000012,
                    "velocity": 0.5748031496062992,
                    "duration": 0.13574650000000332
                },
                {
                    "name": "G4",
                    "midi": 67,
                    "time": 55.11307900000012,
                    "velocity": 0.4881889763779528,
                    "duration": 0.13574650000000332
                },
                {
                    "name": "A#4",
                    "midi": 70,
                    "time": 55.11307900000012,
                    "velocity": 0.4881889763779528,
                    "duration": 0.13574650000000332
                },
                {
                    "name": "D#5",
                    "midi": 75,
                    "time": 55.11307900000012,
                    "velocity": 0.4881889763779528,
                    "duration": 0.13574650000000332
                },
                {
                    "name": "G#4",
                    "midi": 68,
                    "time": 55.38457200000013,
                    "velocity": 0.5118110236220472,
                    "duration": 0.5429859999999991
                },
                {
                    "name": "C5",
                    "midi": 72,
                    "time": 55.38457200000013,
                    "velocity": 0.5118110236220472,
                    "duration": 0.5429859999999991
                },
                {
                    "name": "D#5",
                    "midi": 75,
                    "time": 55.38457200000013,
                    "velocity": 0.5118110236220472,
                    "duration": 0.5429859999999991
                },
                {
                    "name": "G#5",
                    "midi": 80,
                    "time": 55.38457200000013,
                    "velocity": 0.6062992125984252,
                    "duration": 0.5429859999999991
                },
                {
                    "name": "D#5",
                    "midi": 75,
                    "time": 55.927558000000126,
                    "velocity": 0.4881889763779528,
                    "duration": 0.13574650000000332
                },
                {
                    "name": "G5",
                    "midi": 79,
                    "time": 55.927558000000126,
                    "velocity": 0.5826771653543307,
                    "duration": 0.13574650000000332
                },
                {
                    "name": "G4",
                    "midi": 67,
                    "time": 55.927558000000126,
                    "velocity": 0.4881889763779528,
                    "duration": 0.13574650000000332
                },
                {
                    "name": "A#4",
                    "midi": 70,
                    "time": 55.927558000000126,
                    "velocity": 0.4881889763779528,
                    "duration": 0.13574650000000332
                },
                {
                    "name": "F4",
                    "midi": 65,
                    "time": 56.19905100000013,
                    "velocity": 0.41732283464566927,
                    "duration": 0.13574650000000332
                },
                {
                    "name": "C5",
                    "midi": 72,
                    "time": 56.19905100000013,
                    "velocity": 0.41732283464566927,
                    "duration": 0.13574650000000332
                },
                {
                    "name": "F5",
                    "midi": 77,
                    "time": 56.19905100000013,
                    "velocity": 0.5669291338582677,
                    "duration": 0.13574650000000332
                },
                {
                    "name": "D#5",
                    "midi": 75,
                    "time": 56.19905100000013,
                    "velocity": 0.41732283464566927,
                    "duration": 0.13574650000000332
                },
                {
                    "name": "D#5",
                    "midi": 75,
                    "time": 56.47054400000014,
                    "velocity": 0.4566929133858268,
                    "duration": 0.5429859999999991
                },
                {
                    "name": "G4",
                    "midi": 67,
                    "time": 56.47054400000014,
                    "velocity": 0.4566929133858268,
                    "duration": 0.5429859999999991
                },
                {
                    "name": "A#4",
                    "midi": 70,
                    "time": 56.47054400000014,
                    "velocity": 0.4566929133858268,
                    "duration": 0.5429859999999991
                },
                {
                    "name": "G5",
                    "midi": 79,
                    "time": 56.47054400000014,
                    "velocity": 0.5984251968503937,
                    "duration": 0.5429859999999991
                },
                {
                    "name": "F4",
                    "midi": 65,
                    "time": 57.01353000000014,
                    "velocity": 0.49606299212598426,
                    "duration": 0.13574650000000332
                },
                {
                    "name": "G#4",
                    "midi": 68,
                    "time": 57.01353000000014,
                    "velocity": 0.49606299212598426,
                    "duration": 0.13574650000000332
                },
                {
                    "name": "F5",
                    "midi": 77,
                    "time": 57.01353000000014,
                    "velocity": 0.5905511811023622,
                    "duration": 0.13574650000000332
                },
                {
                    "name": "D5",
                    "midi": 74,
                    "time": 57.01353000000014,
                    "velocity": 0.5905511811023622,
                    "duration": 0.13574650000000332
                },
                {
                    "name": "A#4",
                    "midi": 70,
                    "time": 57.285023000000145,
                    "velocity": 0.4881889763779528,
                    "duration": 0.13574650000000332
                },
                {
                    "name": "G4",
                    "midi": 67,
                    "time": 57.285023000000145,
                    "velocity": 0.4881889763779528,
                    "duration": 0.13574650000000332
                },
                {
                    "name": "D#4",
                    "midi": 63,
                    "time": 57.285023000000145,
                    "velocity": 0.4881889763779528,
                    "duration": 0.13574650000000332
                },
                {
                    "name": "D#5",
                    "midi": 75,
                    "time": 57.285023000000145,
                    "velocity": 0.5748031496062992,
                    "duration": 0.13574650000000332
                },
                {
                    "name": "F4",
                    "midi": 65,
                    "time": 57.55651600000015,
                    "velocity": 0.4881889763779528,
                    "duration": 0.13574650000000332
                },
                {
                    "name": "D5",
                    "midi": 74,
                    "time": 57.55651600000015,
                    "velocity": 0.5826771653543307,
                    "duration": 0.13574650000000332
                },
                {
                    "name": "F5",
                    "midi": 77,
                    "time": 57.55651600000015,
                    "velocity": 0.5826771653543307,
                    "duration": 0.13574650000000332
                },
                {
                    "name": "A#4",
                    "midi": 70,
                    "time": 57.82800900000016,
                    "velocity": 0.5590551181102362,
                    "duration": 0.13574650000000332
                },
                {
                    "name": "D#5",
                    "midi": 75,
                    "time": 58.099502000000165,
                    "velocity": 0.5433070866141733,
                    "duration": 0.5429859999999991
                },
                {
                    "name": "D#4",
                    "midi": 63,
                    "time": 58.099502000000165,
                    "velocity": 0.48031496062992124,
                    "duration": 0.5429859999999991
                },
                {
                    "name": "D5",
                    "midi": 74,
                    "time": 58.642488000000164,
                    "velocity": 0.5354330708661418,
                    "duration": 0.5429859999999991
                },
                {
                    "name": "D#4",
                    "midi": 63,
                    "time": 58.642488000000164,
                    "velocity": 0.5354330708661418,
                    "duration": 0.5429859999999991
                },
                {
                    "name": "D#5",
                    "midi": 75,
                    "time": 58.642488000000164,
                    "velocity": 0.5905511811023622,
                    "duration": 0.5429859999999991
                },
                {
                    "name": "D#5",
                    "midi": 75,
                    "time": 59.18547400000016,
                    "velocity": 0.6377952755905512,
                    "duration": 0.5429859999999991
                },
                {
                    "name": "D#4",
                    "midi": 63,
                    "time": 59.18547400000016,
                    "velocity": 0.5669291338582677,
                    "duration": 0.5429859999999991
                },
                {
                    "name": "C5",
                    "midi": 72,
                    "time": 59.18547400000016,
                    "velocity": 0.5669291338582677,
                    "duration": 0.5429859999999991
                },
                {
                    "name": "D#6",
                    "midi": 87,
                    "time": 59.72846000000016,
                    "velocity": 0.7086614173228346,
                    "duration": 0.5429859999999991
                },
                {
                    "name": "G6",
                    "midi": 91,
                    "time": 59.72846000000016,
                    "velocity": 0.7952755905511811,
                    "duration": 0.5429859999999991
                },
                {
                    "name": "C6",
                    "midi": 84,
                    "time": 59.72846000000016,
                    "velocity": 0.7086614173228346,
                    "duration": 0.5429859999999991
                },
                {
                    "name": "G5",
                    "midi": 79,
                    "time": 59.72846000000016,
                    "velocity": 0.7086614173228346,
                    "duration": 0.5429859999999991
                },
                {
                    "name": "D6",
                    "midi": 86,
                    "time": 60.27144600000016,
                    "velocity": 0.7322834645669292,
                    "duration": 0.13574650000000332
                },
                {
                    "name": "B5",
                    "midi": 83,
                    "time": 60.27144600000016,
                    "velocity": 0.7322834645669292,
                    "duration": 0.13574650000000332
                },
                {
                    "name": "D5",
                    "midi": 74,
                    "time": 60.27144600000016,
                    "velocity": 0.6535433070866141,
                    "duration": 0.13574650000000332
                },
                {
                    "name": "C6",
                    "midi": 84,
                    "time": 60.54293900000017,
                    "velocity": 0.6220472440944882,
                    "duration": 0.13574650000000332
                },
                {
                    "name": "D#6",
                    "midi": 87,
                    "time": 60.54293900000017,
                    "velocity": 0.7007874015748031,
                    "duration": 0.13574650000000332
                },
                {
                    "name": "D#5",
                    "midi": 75,
                    "time": 60.54293900000017,
                    "velocity": 0.6220472440944882,
                    "duration": 0.13574650000000332
                },
                {
                    "name": "B5",
                    "midi": 83,
                    "time": 60.814432000000174,
                    "velocity": 0.7244094488188977,
                    "duration": 0.5429859999999991
                },
                {
                    "name": "G#5",
                    "midi": 80,
                    "time": 60.814432000000174,
                    "velocity": 0.6456692913385826,
                    "duration": 0.5429859999999991
                },
                {
                    "name": "B4",
                    "midi": 71,
                    "time": 60.814432000000174,
                    "velocity": 0.6456692913385826,
                    "duration": 0.5429859999999991
                },
                {
                    "name": "D#5",
                    "midi": 75,
                    "time": 60.814432000000174,
                    "velocity": 0.6456692913385826,
                    "duration": 0.5429859999999991
                },
                {
                    "name": "D#5",
                    "midi": 75,
                    "time": 61.35741800000017,
                    "velocity": 0.6220472440944882,
                    "duration": 0.13574650000000332
                },
                {
                    "name": "G#5",
                    "midi": 80,
                    "time": 61.35741800000017,
                    "velocity": 0.6220472440944882,
                    "duration": 0.13574650000000332
                },
                {
                    "name": "C6",
                    "midi": 84,
                    "time": 61.35741800000017,
                    "velocity": 0.6929133858267716,
                    "duration": 0.13574650000000332
                },
                {
                    "name": "C5",
                    "midi": 72,
                    "time": 61.35741800000017,
                    "velocity": 0.6220472440944882,
                    "duration": 0.13574650000000332
                },
                {
                    "name": "G5",
                    "midi": 79,
                    "time": 61.62891100000018,
                    "velocity": 0.6614173228346457,
                    "duration": 0.13574650000000332
                },
                {
                    "name": "E5",
                    "midi": 76,
                    "time": 61.62891100000018,
                    "velocity": 0.6614173228346457,
                    "duration": 0.13574650000000332
                },
                {
                    "name": "G4",
                    "midi": 67,
                    "time": 61.62891100000018,
                    "velocity": 0.5905511811023622,
                    "duration": 0.13574650000000332
                },
                {
                    "name": "C5",
                    "midi": 72,
                    "time": 61.90040400000019,
                    "velocity": 0.6299212598425197,
                    "duration": 0.5429859999999991
                },
                {
                    "name": "G#5",
                    "midi": 80,
                    "time": 61.90040400000019,
                    "velocity": 0.7086614173228346,
                    "duration": 0.5429859999999991
                },
                {
                    "name": "F5",
                    "midi": 77,
                    "time": 61.90040400000019,
                    "velocity": 0.6299212598425197,
                    "duration": 0.5429859999999991
                },
                {
                    "name": "G#4",
                    "midi": 68,
                    "time": 61.90040400000019,
                    "velocity": 0.6299212598425197,
                    "duration": 0.5429859999999991
                },
                {
                    "name": "E5",
                    "midi": 76,
                    "time": 62.443390000000186,
                    "velocity": 0.6535433070866141,
                    "duration": 0.27149299999999954
                },
                {
                    "name": "C#5",
                    "midi": 73,
                    "time": 62.443390000000186,
                    "velocity": 0.6535433070866141,
                    "duration": 0.27149299999999954
                },
                {
                    "name": "D#4",
                    "midi": 63,
                    "time": 62.443390000000186,
                    "velocity": 0.5826771653543307,
                    "duration": 0.27149299999999954
                },
                {
                    "name": "D5",
                    "midi": 74,
                    "time": 62.714883000000185,
                    "velocity": 0.5826771653543307,
                    "duration": 0.27149299999999954
                },
                {
                    "name": "F5",
                    "midi": 77,
                    "time": 62.714883000000185,
                    "velocity": 0.6535433070866141,
                    "duration": 0.27149299999999954
                },
                {
                    "name": "F4",
                    "midi": 65,
                    "time": 62.714883000000185,
                    "velocity": 0.5826771653543307,
                    "duration": 0.27149299999999954
                },
                {
                    "name": "A4",
                    "midi": 69,
                    "time": 62.986376000000185,
                    "velocity": 0.6929133858267716,
                    "duration": 1.0859720000000053
                },
                {
                    "name": "F#4",
                    "midi": 66,
                    "time": 62.986376000000185,
                    "velocity": 0.6220472440944882,
                    "duration": 1.0859720000000053
                },
                {
                    "name": "D#4",
                    "midi": 63,
                    "time": 62.986376000000185,
                    "velocity": 0.6220472440944882,
                    "duration": 1.0859720000000053
                },
                {
                    "name": "D#5",
                    "midi": 75,
                    "time": 62.986376000000185,
                    "velocity": 0.6929133858267716,
                    "duration": 0.690044708333339
                },
                {
                    "name": "D5",
                    "midi": 74,
                    "time": 63.66510850000019,
                    "velocity": 0.6141732283464567,
                    "duration": 0.1470587083333399
                },
                {
                    "name": "C5",
                    "midi": 72,
                    "time": 63.80085500000019,
                    "velocity": 0.5984251968503937,
                    "duration": 0.1470587083333399
                },
                {
                    "name": "B4",
                    "midi": 71,
                    "time": 63.936601500000194,
                    "velocity": 0.6141732283464567,
                    "duration": 0.13574649999999622
                },
                {
                    "name": "F#4",
                    "midi": 66,
                    "time": 64.07234800000019,
                    "velocity": 0.5118110236220472,
                    "duration": 0.20361975000000143
                },
                {
                    "name": "C4",
                    "midi": 60,
                    "time": 64.07234800000019,
                    "velocity": 0.5118110236220472,
                    "duration": 0.20361975000000143
                },
                {
                    "name": "D#4",
                    "midi": 63,
                    "time": 64.07234800000019,
                    "velocity": 0.5118110236220472,
                    "duration": 0.20361975000000143
                },
                {
                    "name": "C5",
                    "midi": 72,
                    "time": 64.07234800000019,
                    "velocity": 0.5826771653543307,
                    "duration": 0.20361975000000143
                },
                {
                    "name": "B3",
                    "midi": 59,
                    "time": 64.61533400000019,
                    "velocity": 0.4881889763779528,
                    "duration": 0.20361975000000143
                },
                {
                    "name": "D4",
                    "midi": 62,
                    "time": 64.61533400000019,
                    "velocity": 0.4881889763779528,
                    "duration": 0.20361975000000143
                },
                {
                    "name": "G4",
                    "midi": 67,
                    "time": 64.61533400000019,
                    "velocity": 0.5433070866141733,
                    "duration": 0.20361975000000143
                },
                {
                    "name": "C4",
                    "midi": 60,
                    "time": 65.15832000000019,
                    "velocity": 0.5039370078740157,
                    "duration": 2.1719439999999963
                },
                {
                    "name": "C3",
                    "midi": 48,
                    "time": 65.15832000000019,
                    "velocity": 0.4566929133858268,
                    "duration": 1.0859719999999982
                },
                {
                    "name": "D3",
                    "midi": 50,
                    "time": 66.24429200000019,
                    "velocity": 0.3700787401574803,
                    "duration": 1.0859719999999982
                },
                {
                    "name": "D4",
                    "midi": 62,
                    "time": 66.24429200000019,
                    "velocity": 0.4094488188976378,
                    "duration": 1.0859719999999982
                },
                {
                    "name": "D#4",
                    "midi": 63,
                    "time": 67.33026400000018,
                    "velocity": 0.30708661417322836,
                    "duration": 2.1719439999999963
                },
                {
                    "name": "C5",
                    "midi": 72,
                    "time": 67.33026400000018,
                    "velocity": 0.3464566929133858,
                    "duration": 2.1719439999999963
                },
                {
                    "name": "D#5",
                    "midi": 75,
                    "time": 67.33026400000018,
                    "velocity": 0.3464566929133858,
                    "duration": 2.1719439999999963
                },
                {
                    "name": "C4",
                    "midi": 60,
                    "time": 69.50220800000018,
                    "velocity": 0.3543307086614173,
                    "duration": 0.1809953333333283
                },
                {
                    "name": "D#3",
                    "midi": 51,
                    "time": 69.50220800000018,
                    "velocity": 0.29133858267716534,
                    "duration": 0.1809953333333283
                },
                {
                    "name": "G3",
                    "midi": 55,
                    "time": 69.68320333333351,
                    "velocity": 0.3228346456692913,
                    "duration": 0.1809953333333283
                },
                {
                    "name": "D#3",
                    "midi": 51,
                    "time": 69.86419866666684,
                    "velocity": 0.2755905511811024,
                    "duration": 0.1809953333333283
                },
                {
                    "name": "C4",
                    "midi": 60,
                    "time": 69.86419866666684,
                    "velocity": 0.3228346456692913,
                    "duration": 0.1809953333333283
                },
                {
                    "name": "D3",
                    "midi": 50,
                    "time": 70.04519400000017,
                    "velocity": 0.25984251968503935,
                    "duration": 0.5429859999999991
                },
                {
                    "name": "D4",
                    "midi": 62,
                    "time": 70.04519400000017,
                    "velocity": 0.30708661417322836,
                    "duration": 0.5429859999999991
                },
                {
                    "name": "G3",
                    "midi": 55,
                    "time": 70.04519400000017,
                    "velocity": 0.25984251968503935,
                    "duration": 0.5429859999999991
                },
                {
                    "name": "D#3",
                    "midi": 51,
                    "time": 70.58818000000016,
                    "velocity": 0.29133858267716534,
                    "duration": 0.1809953333333283
                },
                {
                    "name": "D#4",
                    "midi": 63,
                    "time": 70.58818000000016,
                    "velocity": 0.3543307086614173,
                    "duration": 0.1809953333333283
                },
                {
                    "name": "G3",
                    "midi": 55,
                    "time": 70.7691753333335,
                    "velocity": 0.3228346456692913,
                    "duration": 0.1809953333333283
                },
                {
                    "name": "D#3",
                    "midi": 51,
                    "time": 70.95017066666682,
                    "velocity": 0.2755905511811024,
                    "duration": 0.1809953333333283
                },
                {
                    "name": "D#4",
                    "midi": 63,
                    "time": 70.95017066666682,
                    "velocity": 0.3228346456692913,
                    "duration": 0.1809953333333283
                },
                {
                    "name": "D3",
                    "midi": 50,
                    "time": 71.13116600000015,
                    "velocity": 0.2677165354330709,
                    "duration": 0.5429859999999991
                },
                {
                    "name": "G3",
                    "midi": 55,
                    "time": 71.13116600000015,
                    "velocity": 0.2677165354330709,
                    "duration": 0.5429859999999991
                },
                {
                    "name": "D4",
                    "midi": 62,
                    "time": 71.13116600000015,
                    "velocity": 0.31496062992125984,
                    "duration": 0.5429859999999991
                },
                {
                    "name": "G3",
                    "midi": 55,
                    "time": 71.67415200000015,
                    "velocity": 0.31496062992125984,
                    "duration": 0.1809953333333283
                },
                {
                    "name": "G4",
                    "midi": 67,
                    "time": 71.67415200000015,
                    "velocity": 0.3779527559055118,
                    "duration": 0.1809953333333283
                },
                {
                    "name": "D#4",
                    "midi": 63,
                    "time": 71.85514733333348,
                    "velocity": 0.3464566929133858,
                    "duration": 0.1809953333333283
                },
                {
                    "name": "F3",
                    "midi": 53,
                    "time": 72.0361426666668,
                    "velocity": 0.29133858267716534,
                    "duration": 0.1809953333333283
                },
                {
                    "name": "F4",
                    "midi": 65,
                    "time": 72.0361426666668,
                    "velocity": 0.3464566929133858,
                    "duration": 0.1809953333333283
                },
                {
                    "name": "D4",
                    "midi": 62,
                    "time": 72.21713800000013,
                    "velocity": 0.36220472440944884,
                    "duration": 0.5429859999999991
                },
                {
                    "name": "C4",
                    "midi": 60,
                    "time": 72.76012400000013,
                    "velocity": 0.3464566929133858,
                    "duration": 0.1809953333333283
                },
                {
                    "name": "D#3",
                    "midi": 51,
                    "time": 72.76012400000013,
                    "velocity": 0.29133858267716534,
                    "duration": 0.1809953333333283
                },
                {
                    "name": "G3",
                    "midi": 55,
                    "time": 72.94111933333346,
                    "velocity": 0.3228346456692913,
                    "duration": 0.1809953333333283
                },
                {
                    "name": "C#3",
                    "midi": 49,
                    "time": 73.12211466666679,
                    "velocity": 0.2755905511811024,
                    "duration": 0.1809953333333283
                },
                {
                    "name": "C#4",
                    "midi": 61,
                    "time": 73.12211466666679,
                    "velocity": 0.3228346456692913,
                    "duration": 0.1809953333333283
                },
                {
                    "name": "A#3",
                    "midi": 58,
                    "time": 73.30311000000012,
                    "velocity": 0.3543307086614173,
                    "duration": 0.5429859999999991
                },
                {
                    "name": "C4",
                    "midi": 60,
                    "time": 73.84609600000012,
                    "velocity": 0.30708661417322836,
                    "duration": 0.1809953333333283
                },
                {
                    "name": "C5",
                    "midi": 72,
                    "time": 73.84609600000012,
                    "velocity": 0.3700787401574803,
                    "duration": 0.1809953333333283
                },
                {
                    "name": "G#4",
                    "midi": 68,
                    "time": 74.02709133333344,
                    "velocity": 0.3543307086614173,
                    "duration": 0.1809953333333283
                },
                {
                    "name": "A#3",
                    "midi": 58,
                    "time": 74.20808666666677,
                    "velocity": 0.29133858267716534,
                    "duration": 0.1809953333333283
                },
                {
                    "name": "A#4",
                    "midi": 70,
                    "time": 74.20808666666677,
                    "velocity": 0.3464566929133858,
                    "duration": 0.1809953333333283
                },
                {
                    "name": "G4",
                    "midi": 67,
                    "time": 74.38455711666677,
                    "velocity": 0.3228346456692913,
                    "duration": 0.5429859999999991
                },
                {
                    "name": "C4",
                    "midi": 60,
                    "time": 74.9320680000001,
                    "velocity": 0.30708661417322836,
                    "duration": 0.1809953333333283
                },
                {
                    "name": "C5",
                    "midi": 72,
                    "time": 74.9320680000001,
                    "velocity": 0.3700787401574803,
                    "duration": 0.1809953333333283
                },
                {
                    "name": "G#4",
                    "midi": 68,
                    "time": 75.11306333333343,
                    "velocity": 0.3464566929133858,
                    "duration": 0.1809953333333283
                },
                {
                    "name": "A#3",
                    "midi": 58,
                    "time": 75.29405866666676,
                    "velocity": 0.2992125984251969,
                    "duration": 0.1809953333333283
                },
                {
                    "name": "A#4",
                    "midi": 70,
                    "time": 75.29405866666676,
                    "velocity": 0.36220472440944884,
                    "duration": 0.1809953333333283
                },
                {
                    "name": "G4",
                    "midi": 67,
                    "time": 75.47505400000009,
                    "velocity": 0.3464566929133858,
                    "duration": 0.1809953333333283
                },
                {
                    "name": "G#3",
                    "midi": 56,
                    "time": 75.65604933333341,
                    "velocity": 0.29133858267716534,
                    "duration": 0.1809953333333283
                },
                {
                    "name": "G#4",
                    "midi": 68,
                    "time": 75.65604933333341,
                    "velocity": 0.3543307086614173,
                    "duration": 0.1809953333333283
                },
                {
                    "name": "F4",
                    "midi": 65,
                    "time": 75.83704466666674,
                    "velocity": 0.3228346456692913,
                    "duration": 0.1809953333333283
                },
                {
                    "name": "F#3",
                    "midi": 54,
                    "time": 76.01804000000007,
                    "velocity": 0.29133858267716534,
                    "duration": 0.1809953333333283
                },
                {
                    "name": "F#4",
                    "midi": 66,
                    "time": 76.01804000000007,
                    "velocity": 0.3464566929133858,
                    "duration": 0.1809953333333283
                },
                {
                    "name": "D#4",
                    "midi": 63,
                    "time": 76.1990353333334,
                    "velocity": 0.3228346456692913,
                    "duration": 0.1809953333333283
                },
                {
                    "name": "F#4",
                    "midi": 66,
                    "time": 76.38003066666673,
                    "velocity": 0.3228346456692913,
                    "duration": 0.1809953333333283
                },
                {
                    "name": "F#3",
                    "midi": 54,
                    "time": 76.38003066666673,
                    "velocity": 0.2755905511811024,
                    "duration": 0.1809953333333283
                },
                {
                    "name": "G3",
                    "midi": 55,
                    "time": 76.56102600000006,
                    "velocity": 0.29133858267716534,
                    "duration": 0.5429859999999991
                },
                {
                    "name": "D4",
                    "midi": 62,
                    "time": 76.56102600000006,
                    "velocity": 0.29133858267716534,
                    "duration": 0.5429859999999991
                },
                {
                    "name": "G4",
                    "midi": 67,
                    "time": 76.56102600000006,
                    "velocity": 0.3464566929133858,
                    "duration": 0.5429859999999991
                },
                {
                    "name": "A4",
                    "midi": 69,
                    "time": 77.10401200000005,
                    "velocity": 0.3464566929133858,
                    "duration": 0.1809953333333283
                },
                {
                    "name": "A3",
                    "midi": 57,
                    "time": 77.10853688333339,
                    "velocity": 0.29133858267716534,
                    "duration": 0.1809953333333283
                },
                {
                    "name": "D#4",
                    "midi": 63,
                    "time": 77.28500733333338,
                    "velocity": 0.33070866141732286,
                    "duration": 0.1809953333333283
                },
                {
                    "name": "A4",
                    "midi": 69,
                    "time": 77.46600266666671,
                    "velocity": 0.33070866141732286,
                    "duration": 0.1809953333333283
                },
                {
                    "name": "A3",
                    "midi": 57,
                    "time": 77.47052755000004,
                    "velocity": 0.28346456692913385,
                    "duration": 0.1809953333333283
                },
                {
                    "name": "G3",
                    "midi": 55,
                    "time": 77.64699800000004,
                    "velocity": 0.29133858267716534,
                    "duration": 0.5429859999999991
                },
                {
                    "name": "D4",
                    "midi": 62,
                    "time": 77.64699800000004,
                    "velocity": 0.29133858267716534,
                    "duration": 0.5429859999999991
                },
                {
                    "name": "G4",
                    "midi": 67,
                    "time": 77.64699800000004,
                    "velocity": 0.3464566929133858,
                    "duration": 0.5429859999999991
                },
                {
                    "name": "C4",
                    "midi": 60,
                    "time": 78.18998400000004,
                    "velocity": 0.4094488188976378,
                    "duration": 0.1809953333333283
                },
                {
                    "name": "C5",
                    "midi": 72,
                    "time": 78.18998400000004,
                    "velocity": 0.4094488188976378,
                    "duration": 0.1809953333333283
                },
                {
                    "name": "G4",
                    "midi": 67,
                    "time": 78.37097933333337,
                    "velocity": 0.3779527559055118,
                    "duration": 0.1809953333333283
                },
                {
                    "name": "C4",
                    "midi": 60,
                    "time": 78.5519746666667,
                    "velocity": 0.3779527559055118,
                    "duration": 0.1809953333333283
                },
                {
                    "name": "C5",
                    "midi": 72,
                    "time": 78.5519746666667,
                    "velocity": 0.3779527559055118,
                    "duration": 0.1809953333333283
                },
                {
                    "name": "D4",
                    "midi": 62,
                    "time": 78.73297000000002,
                    "velocity": 0.3779527559055118,
                    "duration": 0.5429859999999991
                },
                {
                    "name": "G4",
                    "midi": 67,
                    "time": 78.73297000000002,
                    "velocity": 0.3779527559055118,
                    "duration": 0.5429859999999991
                },
                {
                    "name": "D5",
                    "midi": 74,
                    "time": 78.73297000000002,
                    "velocity": 0.3779527559055118,
                    "duration": 0.5429859999999991
                },
                {
                    "name": "E5",
                    "midi": 76,
                    "time": 79.27595600000002,
                    "velocity": 0.48031496062992124,
                    "duration": 0.1809953333333283
                },
                {
                    "name": "E4",
                    "midi": 64,
                    "time": 79.27595600000002,
                    "velocity": 0.48031496062992124,
                    "duration": 0.1809953333333283
                },
                {
                    "name": "G4",
                    "midi": 67,
                    "time": 79.45695133333335,
                    "velocity": 0.44881889763779526,
                    "duration": 0.1809953333333283
                },
                {
                    "name": "E4",
                    "midi": 64,
                    "time": 79.63794666666668,
                    "velocity": 0.4409448818897638,
                    "duration": 0.1809953333333283
                },
                {
                    "name": "E5",
                    "midi": 76,
                    "time": 79.63794666666668,
                    "velocity": 0.4409448818897638,
                    "duration": 0.1809953333333283
                },
                {
                    "name": "D5",
                    "midi": 74,
                    "time": 79.818942,
                    "velocity": 0.48031496062992124,
                    "duration": 0.5429859999999991
                },
                {
                    "name": "G4",
                    "midi": 67,
                    "time": 79.818942,
                    "velocity": 0.48031496062992124,
                    "duration": 0.5429859999999991
                },
                {
                    "name": "D4",
                    "midi": 62,
                    "time": 79.818942,
                    "velocity": 0.48031496062992124,
                    "duration": 0.5429859999999991
                },
                {
                    "name": "G5",
                    "midi": 79,
                    "time": 80.361928,
                    "velocity": 0.5196850393700787,
                    "duration": 0.1809953333333283
                },
                {
                    "name": "G4",
                    "midi": 67,
                    "time": 80.361928,
                    "velocity": 0.5196850393700787,
                    "duration": 0.1809953333333283
                },
                {
                    "name": "E5",
                    "midi": 76,
                    "time": 80.54292333333333,
                    "velocity": 0.48031496062992124,
                    "duration": 0.1809953333333283
                },
                {
                    "name": "F4",
                    "midi": 65,
                    "time": 80.72391866666666,
                    "velocity": 0.48031496062992124,
                    "duration": 0.1809953333333283
                },
                {
                    "name": "F5",
                    "midi": 77,
                    "time": 80.72391866666666,
                    "velocity": 0.48031496062992124,
                    "duration": 0.1809953333333283
                },
                {
                    "name": "D4",
                    "midi": 62,
                    "time": 80.90491399999999,
                    "velocity": 0.47244094488188976,
                    "duration": 0.5429859999999991
                },
                {
                    "name": "D5",
                    "midi": 74,
                    "time": 80.90491399999999,
                    "velocity": 0.47244094488188976,
                    "duration": 0.5429859999999991
                },
                {
                    "name": "G4",
                    "midi": 67,
                    "time": 80.90491399999999,
                    "velocity": 0.47244094488188976,
                    "duration": 0.5429859999999991
                },
                {
                    "name": "E4",
                    "midi": 64,
                    "time": 81.44789999999999,
                    "velocity": 0.6141732283464567,
                    "duration": 0.1809953333333283
                },
                {
                    "name": "E5",
                    "midi": 76,
                    "time": 81.44789999999999,
                    "velocity": 0.6141732283464567,
                    "duration": 0.1809953333333283
                },
                {
                    "name": "C5",
                    "midi": 72,
                    "time": 81.62889533333332,
                    "velocity": 0.5590551181102362,
                    "duration": 0.1809953333333283
                },
                {
                    "name": "D4",
                    "midi": 62,
                    "time": 81.80989066666665,
                    "velocity": 0.5590551181102362,
                    "duration": 0.1809953333333283
                },
                {
                    "name": "D5",
                    "midi": 74,
                    "time": 81.80989066666665,
                    "velocity": 0.5590551181102362,
                    "duration": 0.1809953333333283
                },
                {
                    "name": "A#4",
                    "midi": 70,
                    "time": 81.99088599999997,
                    "velocity": 0.5590551181102362,
                    "duration": 0.5429859999999991
                },
                {
                    "name": "E4",
                    "midi": 64,
                    "time": 81.99088599999997,
                    "velocity": 0.5590551181102362,
                    "duration": 0.5429859999999991
                },
                {
                    "name": "A#3",
                    "midi": 58,
                    "time": 81.99088599999997,
                    "velocity": 0.5590551181102362,
                    "duration": 0.5429859999999991
                },
                {
                    "name": "C6",
                    "midi": 84,
                    "time": 82.53387199999997,
                    "velocity": 0.7086614173228346,
                    "duration": 0.1809953333333283
                },
                {
                    "name": "C5",
                    "midi": 72,
                    "time": 82.53387199999997,
                    "velocity": 0.5984251968503937,
                    "duration": 0.1809953333333283
                },
                {
                    "name": "F5",
                    "midi": 77,
                    "time": 82.7148673333333,
                    "velocity": 0.5275590551181102,
                    "duration": 0.09049766666666414
                },
                {
                    "name": "A5",
                    "midi": 81,
                    "time": 82.7148673333333,
                    "velocity": 0.6220472440944882,
                    "duration": 0.09049766666666414
                },
                {
                    "name": "C5",
                    "midi": 72,
                    "time": 82.89586266666663,
                    "velocity": 0.5275590551181102,
                    "duration": 0.13574649999999622
                },
                {
                    "name": "C6",
                    "midi": 84,
                    "time": 82.89586266666663,
                    "velocity": 0.6220472440944882,
                    "duration": 0.13574649999999622
                },
                {
                    "name": "E5",
                    "midi": 76,
                    "time": 83.07685799999996,
                    "velocity": 0.5354330708661418,
                    "duration": 0.5429859999999991
                },
                {
                    "name": "G5",
                    "midi": 79,
                    "time": 83.07685799999996,
                    "velocity": 0.6299212598425197,
                    "duration": 0.5429859999999991
                },
                {
                    "name": "A4",
                    "midi": 69,
                    "time": 83.61984399999996,
                    "velocity": 0.5826771653543307,
                    "duration": 0.1809953333333283
                },
                {
                    "name": "A5",
                    "midi": 81,
                    "time": 83.61984399999996,
                    "velocity": 0.6929133858267716,
                    "duration": 0.1809953333333283
                },
                {
                    "name": "D5",
                    "midi": 74,
                    "time": 83.80083933333329,
                    "velocity": 0.5275590551181102,
                    "duration": 0.09049766666666414
                },
                {
                    "name": "F5",
                    "midi": 77,
                    "time": 83.80083933333329,
                    "velocity": 0.6220472440944882,
                    "duration": 0.09049766666666414
                },
                {
                    "name": "A4",
                    "midi": 69,
                    "time": 83.98183466666661,
                    "velocity": 0.5275590551181102,
                    "duration": 0.09049766666666414
                },
                {
                    "name": "A5",
                    "midi": 81,
                    "time": 83.98183466666661,
                    "velocity": 0.6220472440944882,
                    "duration": 0.09049766666666414
                },
                {
                    "name": "C5",
                    "midi": 72,
                    "time": 84.16282999999994,
                    "velocity": 0.5354330708661418,
                    "duration": 0.5429859999999991
                },
                {
                    "name": "E5",
                    "midi": 76,
                    "time": 84.16282999999994,
                    "velocity": 0.6299212598425197,
                    "duration": 0.5429859999999991
                },
                {
                    "name": "G5",
                    "midi": 79,
                    "time": 84.70581599999994,
                    "velocity": 0.6771653543307087,
                    "duration": 0.1809953333333283
                },
                {
                    "name": "G4",
                    "midi": 67,
                    "time": 84.70581599999994,
                    "velocity": 0.5748031496062992,
                    "duration": 0.1809953333333283
                },
                {
                    "name": "C5",
                    "midi": 72,
                    "time": 84.88681133333327,
                    "velocity": 0.4566929133858268,
                    "duration": 0.1809953333333283
                },
                {
                    "name": "E5",
                    "midi": 76,
                    "time": 84.88681133333327,
                    "velocity": 0.5433070866141733,
                    "duration": 0.1809953333333283
                },
                {
                    "name": "G4",
                    "midi": 67,
                    "time": 85.0678066666666,
                    "velocity": 0.5669291338582677,
                    "duration": 0.1809953333333283
                },
                {
                    "name": "G5",
                    "midi": 79,
                    "time": 85.0678066666666,
                    "velocity": 0.6692913385826772,
                    "duration": 0.1809953333333283
                },
                {
                    "name": "F5",
                    "midi": 77,
                    "time": 85.24880199999993,
                    "velocity": 0.5196850393700787,
                    "duration": 0.1809953333333283
                },
                {
                    "name": "D5",
                    "midi": 74,
                    "time": 85.24880199999993,
                    "velocity": 0.4409448818897638,
                    "duration": 0.1809953333333283
                },
                {
                    "name": "G5",
                    "midi": 79,
                    "time": 85.42979733333325,
                    "velocity": 0.6220472440944882,
                    "duration": 0.1809953333333283
                },
                {
                    "name": "G4",
                    "midi": 67,
                    "time": 85.42979733333325,
                    "velocity": 0.5275590551181102,
                    "duration": 0.1809953333333283
                },
                {
                    "name": "C5",
                    "midi": 72,
                    "time": 85.61079266666658,
                    "velocity": 0.4015748031496063,
                    "duration": 0.1809953333333283
                },
                {
                    "name": "E5",
                    "midi": 76,
                    "time": 85.61079266666658,
                    "velocity": 0.48031496062992124,
                    "duration": 0.1809953333333283
                },
                {
                    "name": "G4",
                    "midi": 67,
                    "time": 85.79178799999991,
                    "velocity": 0.5669291338582677,
                    "duration": 0.1809953333333283
                },
                {
                    "name": "G5",
                    "midi": 79,
                    "time": 85.79178799999991,
                    "velocity": 0.6692913385826772,
                    "duration": 0.1809953333333283
                },
                {
                    "name": "A4",
                    "midi": 69,
                    "time": 85.97278333333324,
                    "velocity": 0.4409448818897638,
                    "duration": 0.1809953333333283
                },
                {
                    "name": "C5",
                    "midi": 72,
                    "time": 85.97278333333324,
                    "velocity": 0.5275590551181102,
                    "duration": 0.1809953333333283
                },
                {
                    "name": "G4",
                    "midi": 67,
                    "time": 86.15377866666657,
                    "velocity": 0.5275590551181102,
                    "duration": 0.1809953333333283
                },
                {
                    "name": "G5",
                    "midi": 79,
                    "time": 86.15377866666657,
                    "velocity": 0.6220472440944882,
                    "duration": 0.1809953333333283
                },
                {
                    "name": "G4",
                    "midi": 67,
                    "time": 86.3347739999999,
                    "velocity": 0.4881889763779528,
                    "duration": 0.5429859999999991
                },
                {
                    "name": "B4",
                    "midi": 71,
                    "time": 86.3347739999999,
                    "velocity": 0.4881889763779528,
                    "duration": 0.5429859999999991
                },
                {
                    "name": "G5",
                    "midi": 79,
                    "time": 86.3347739999999,
                    "velocity": 0.5826771653543307,
                    "duration": 0.5429859999999991
                },
                {
                    "name": "D5",
                    "midi": 74,
                    "time": 86.3347739999999,
                    "velocity": 0.4881889763779528,
                    "duration": 0.5429859999999991
                },
                {
                    "name": "C5",
                    "midi": 72,
                    "time": 86.8777599999999,
                    "velocity": 0.5905511811023622,
                    "duration": 0.1809953333333283
                },
                {
                    "name": "C6",
                    "midi": 84,
                    "time": 86.8777599999999,
                    "velocity": 0.7007874015748031,
                    "duration": 0.1809953333333283
                },
                {
                    "name": "G5",
                    "midi": 79,
                    "time": 87.05875533333322,
                    "velocity": 0.4645669291338583,
                    "duration": 0.1809953333333283
                },
                {
                    "name": "B5",
                    "midi": 83,
                    "time": 87.05875533333322,
                    "velocity": 0.5511811023622047,
                    "duration": 0.1809953333333283
                },
                {
                    "name": "C5",
                    "midi": 72,
                    "time": 87.23975066666655,
                    "velocity": 0.5275590551181102,
                    "duration": 0.1809953333333283
                },
                {
                    "name": "C6",
                    "midi": 84,
                    "time": 87.23975066666655,
                    "velocity": 0.6220472440944882,
                    "duration": 0.1809953333333283
                },
                {
                    "name": "F5",
                    "midi": 77,
                    "time": 87.42074599999988,
                    "velocity": 0.4094488188976378,
                    "duration": 0.1809953333333283
                },
                {
                    "name": "A5",
                    "midi": 81,
                    "time": 87.42074599999988,
                    "velocity": 0.4881889763779528,
                    "duration": 0.1809953333333283
                },
                {
                    "name": "C6",
                    "midi": 84,
                    "time": 87.60174133333321,
                    "velocity": 0.6141732283464567,
                    "duration": 0.1809953333333283
                },
                {
                    "name": "C5",
                    "midi": 72,
                    "time": 87.60174133333321,
                    "velocity": 0.5196850393700787,
                    "duration": 0.1809953333333283
                },
                {
                    "name": "E5",
                    "midi": 76,
                    "time": 87.78273666666654,
                    "velocity": 0.4094488188976378,
                    "duration": 0.1809953333333283
                },
                {
                    "name": "G5",
                    "midi": 79,
                    "time": 87.78273666666654,
                    "velocity": 0.4881889763779528,
                    "duration": 0.1809953333333283
                },
                {
                    "name": "A4",
                    "midi": 69,
                    "time": 87.96373199999987,
                    "velocity": 0.5669291338582677,
                    "duration": 0.1809953333333283
                },
                {
                    "name": "A5",
                    "midi": 81,
                    "time": 87.96373199999987,
                    "velocity": 0.6692913385826772,
                    "duration": 0.1809953333333283
                },
                {
                    "name": "G5",
                    "midi": 79,
                    "time": 88.1447273333332,
                    "velocity": 0.5511811023622047,
                    "duration": 0.1809953333333283
                },
                {
                    "name": "E5",
                    "midi": 76,
                    "time": 88.1447273333332,
                    "velocity": 0.4645669291338583,
                    "duration": 0.1809953333333283
                },
                {
                    "name": "A5",
                    "midi": 81,
                    "time": 88.32572266666652,
                    "velocity": 0.6220472440944882,
                    "duration": 0.1809953333333283
                },
                {
                    "name": "A4",
                    "midi": 69,
                    "time": 88.32572266666652,
                    "velocity": 0.5275590551181102,
                    "duration": 0.1809953333333283
                },
                {
                    "name": "D5",
                    "midi": 74,
                    "time": 88.50671799999985,
                    "velocity": 0.41732283464566927,
                    "duration": 0.1809953333333283
                },
                {
                    "name": "F5",
                    "midi": 77,
                    "time": 88.50671799999985,
                    "velocity": 0.49606299212598426,
                    "duration": 0.1809953333333283
                },
                {
                    "name": "A4",
                    "midi": 69,
                    "time": 88.68771333333318,
                    "velocity": 0.5354330708661418,
                    "duration": 0.1809953333333283
                },
                {
                    "name": "A5",
                    "midi": 81,
                    "time": 88.68771333333318,
                    "velocity": 0.6299212598425197,
                    "duration": 0.1809953333333283
                },
                {
                    "name": "E5",
                    "midi": 76,
                    "time": 88.8687086666665,
                    "velocity": 0.48031496062992124,
                    "duration": 0.1809953333333283
                },
                {
                    "name": "C5",
                    "midi": 72,
                    "time": 88.8687086666665,
                    "velocity": 0.4015748031496063,
                    "duration": 0.1809953333333283
                },
                {
                    "name": "G4",
                    "midi": 67,
                    "time": 89.04970399999983,
                    "velocity": 0.5826771653543307,
                    "duration": 0.1809953333333283
                },
                {
                    "name": "G5",
                    "midi": 79,
                    "time": 89.04970399999983,
                    "velocity": 0.6929133858267716,
                    "duration": 0.1809953333333283
                },
                {
                    "name": "D5",
                    "midi": 74,
                    "time": 89.23069933333316,
                    "velocity": 0.4645669291338583,
                    "duration": 0.1809953333333283
                },
                {
                    "name": "F5",
                    "midi": 77,
                    "time": 89.23069933333316,
                    "velocity": 0.5511811023622047,
                    "duration": 0.1809953333333283
                },
                {
                    "name": "G5",
                    "midi": 79,
                    "time": 89.41169466666649,
                    "velocity": 0.6692913385826772,
                    "duration": 0.1809953333333283
                },
                {
                    "name": "G4",
                    "midi": 67,
                    "time": 89.41169466666649,
                    "velocity": 0.5669291338582677,
                    "duration": 0.1809953333333283
                },
                {
                    "name": "C5",
                    "midi": 72,
                    "time": 89.59268999999982,
                    "velocity": 0.4409448818897638,
                    "duration": 0.1809953333333283
                },
                {
                    "name": "E5",
                    "midi": 76,
                    "time": 89.59268999999982,
                    "velocity": 0.5196850393700787,
                    "duration": 0.1809953333333283
                },
                {
                    "name": "G4",
                    "midi": 67,
                    "time": 89.77368533333315,
                    "velocity": 0.5511811023622047,
                    "duration": 0.1809953333333283
                },
                {
                    "name": "G5",
                    "midi": 79,
                    "time": 89.77368533333315,
                    "velocity": 0.6535433070866141,
                    "duration": 0.1809953333333283
                },
                {
                    "name": "A4",
                    "midi": 69,
                    "time": 89.95468066666648,
                    "velocity": 0.4409448818897638,
                    "duration": 0.1809953333333283
                },
                {
                    "name": "C5",
                    "midi": 72,
                    "time": 89.95468066666648,
                    "velocity": 0.5196850393700787,
                    "duration": 0.1809953333333283
                },
                {
                    "name": "G5",
                    "midi": 79,
                    "time": 90.1356759999998,
                    "velocity": 0.6456692913385826,
                    "duration": 0.5429859999999991
                },
                {
                    "name": "G4",
                    "midi": 67,
                    "time": 90.1356759999998,
                    "velocity": 0.5433070866141733,
                    "duration": 0.5429859999999991
                },
                {
                    "name": "B4",
                    "midi": 71,
                    "time": 90.1356759999998,
                    "velocity": 0.5433070866141733,
                    "duration": 0.5429859999999991
                },
                {
                    "name": "D5",
                    "midi": 74,
                    "time": 90.1356759999998,
                    "velocity": 0.5433070866141733,
                    "duration": 0.5429859999999991
                },
                {
                    "name": "C4",
                    "midi": 60,
                    "time": 90.6786619999998,
                    "velocity": 0.5748031496062992,
                    "duration": 0.27149300000000665
                },
                {
                    "name": "C5",
                    "midi": 72,
                    "time": 90.6786619999998,
                    "velocity": 0.6614173228346457,
                    "duration": 0.27149300000000665
                },
                {
                    "name": "C3",
                    "midi": 48,
                    "time": 91.22164799999982,
                    "velocity": 0.5511811023622047,
                    "duration": 1.0859719999999982
                },
                {
                    "name": "C4",
                    "midi": 60,
                    "time": 91.22164799999982,
                    "velocity": 0.6220472440944882,
                    "duration": 2.1719439999999963
                },
                {
                    "name": "D4",
                    "midi": 62,
                    "time": 92.30761999999982,
                    "velocity": 0.48031496062992124,
                    "duration": 1.0859719999999982
                },
                {
                    "name": "D3",
                    "midi": 50,
                    "time": 92.30761999999982,
                    "velocity": 0.4330708661417323,
                    "duration": 1.0859719999999982
                },
                {
                    "name": "C5",
                    "midi": 72,
                    "time": 93.39359199999981,
                    "velocity": 0.3779527559055118,
                    "duration": 2.1719439999999963
                },
                {
                    "name": "D#4",
                    "midi": 63,
                    "time": 93.39359199999981,
                    "velocity": 0.33070866141732286,
                    "duration": 2.1719439999999963
                },
                {
                    "name": "D#5",
                    "midi": 75,
                    "time": 93.39359199999981,
                    "velocity": 0.3779527559055118,
                    "duration": 2.1719439999999963
                },
                {
                    "name": "C3",
                    "midi": 48,
                    "time": 95.56553599999981,
                    "velocity": 0.3228346456692913,
                    "duration": 0.5429859999999991
                },
                {
                    "name": "C4",
                    "midi": 60,
                    "time": 95.56553599999981,
                    "velocity": 0.3700787401574803,
                    "duration": 1.0859719999999982
                },
                {
                    "name": "D4",
                    "midi": 62,
                    "time": 96.10852199999981,
                    "velocity": 0.3858267716535433,
                    "duration": 0.5429859999999991
                },
                {
                    "name": "D3",
                    "midi": 50,
                    "time": 96.10852199999981,
                    "velocity": 0.3464566929133858,
                    "duration": 0.5429859999999991
                },
                {
                    "name": "F5",
                    "midi": 77,
                    "time": 96.65150799999981,
                    "velocity": 0.4094488188976378,
                    "duration": 0.5429859999999991
                },
                {
                    "name": "F4",
                    "midi": 65,
                    "time": 96.65150799999981,
                    "velocity": 0.3700787401574803,
                    "duration": 0.5429859999999991
                },
                {
                    "name": "C5",
                    "midi": 72,
                    "time": 96.65150799999981,
                    "velocity": 0.4094488188976378,
                    "duration": 1.0859719999999982
                },
                {
                    "name": "E4",
                    "midi": 64,
                    "time": 97.1944939999998,
                    "velocity": 0.3543307086614173,
                    "duration": 0.5429859999999991
                },
                {
                    "name": "E5",
                    "midi": 76,
                    "time": 97.1944939999998,
                    "velocity": 0.3937007874015748,
                    "duration": 0.5429859999999991
                },
                {
                    "name": "D#5",
                    "midi": 75,
                    "time": 97.7374799999998,
                    "velocity": 0.29133858267716534,
                    "duration": 2.1719439999999963
                },
                {
                    "name": "D#6",
                    "midi": 87,
                    "time": 97.7374799999998,
                    "velocity": 0.3228346456692913,
                    "duration": 2.1719439999999963
                },
                {
                    "name": "C6",
                    "midi": 84,
                    "time": 97.7374799999998,
                    "velocity": 0.3228346456692913,
                    "duration": 2.1719439999999963
                },
                {
                    "name": "C4",
                    "midi": 60,
                    "time": 99.7736774999998,
                    "velocity": 0.2125984251968504,
                    "duration": 0.40723950000000286
                },
                {
                    "name": "D#4",
                    "midi": 63,
                    "time": 99.81892633333314,
                    "velocity": 0.2125984251968504,
                    "duration": 0.3619906666666708
                },
                {
                    "name": "G#4",
                    "midi": 68,
                    "time": 99.86417516666647,
                    "velocity": 0.2125984251968504,
                    "duration": 0.3167418333333387
                },
                {
                    "name": "C5",
                    "midi": 72,
                    "time": 99.9094239999998,
                    "velocity": 0.30708661417322836,
                    "duration": 0.27149300000000665
                },
                {
                    "name": "C#5",
                    "midi": 73,
                    "time": 100.18091699999981,
                    "velocity": 0.30708661417322836,
                    "duration": 0.13574649999999622
                },
                {
                    "name": "C4",
                    "midi": 60,
                    "time": 100.3166634999998,
                    "velocity": 0.2047244094488189,
                    "duration": 0.40723950000000286
                },
                {
                    "name": "D#4",
                    "midi": 63,
                    "time": 100.35286256666647,
                    "velocity": 0.2047244094488189,
                    "duration": 0.37104043333333436
                },
                {
                    "name": "G#4",
                    "midi": 68,
                    "time": 100.38906163333314,
                    "velocity": 0.2047244094488189,
                    "duration": 0.33484136666666586
                },
                {
                    "name": "C5",
                    "midi": 72,
                    "time": 100.42526069999981,
                    "velocity": 0.30708661417322836,
                    "duration": 0.29864229999999736
                },
                {
                    "name": "D5",
                    "midi": 74,
                    "time": 100.46145976666648,
                    "velocity": 0.30708661417322836,
                    "duration": 0.26244323333332886
                },
                {
                    "name": "D#5",
                    "midi": 75,
                    "time": 100.72390299999981,
                    "velocity": 0.3228346456692913,
                    "duration": 0.13574649999999622
                },
                {
                    "name": "G#4",
                    "midi": 68,
                    "time": 100.8596494999998,
                    "velocity": 0.2204724409448819,
                    "duration": 0.27149300000000665
                },
                {
                    "name": "G#5",
                    "midi": 80,
                    "time": 100.92752274999981,
                    "velocity": 0.2283464566929134,
                    "duration": 0.33936624999999765
                },
                {
                    "name": "C6",
                    "midi": 84,
                    "time": 100.99539599999981,
                    "velocity": 0.3464566929133858,
                    "duration": 0.13574649999999622
                },
                {
                    "name": "G5",
                    "midi": 79,
                    "time": 101.26688899999981,
                    "velocity": 0.33070866141732286,
                    "duration": 0.13574649999999622
                },
                {
                    "name": "G#4",
                    "midi": 68,
                    "time": 101.4026354999998,
                    "velocity": 0.2204724409448819,
                    "duration": 0.27149299999999243
                },
                {
                    "name": "G#5",
                    "midi": 80,
                    "time": 101.44788433333314,
                    "velocity": 0.2204724409448819,
                    "duration": 0.22624416666666036
                },
                {
                    "name": "F5",
                    "midi": 77,
                    "time": 101.49313316666647,
                    "velocity": 0.2125984251968504,
                    "duration": 0.3167418333333245
                },
                {
                    "name": "C6",
                    "midi": 84,
                    "time": 101.5383819999998,
                    "velocity": 0.31496062992125984,
                    "duration": 0.13574649999999622
                },
                {
                    "name": "E5",
                    "midi": 76,
                    "time": 101.80987499999979,
                    "velocity": 0.30708661417322836,
                    "duration": 0.13574649999999622
                },
                {
                    "name": "G#4",
                    "midi": 68,
                    "time": 101.94562149999979,
                    "velocity": 0.2047244094488189,
                    "duration": 0.27149300000000665
                },
                {
                    "name": "G#5",
                    "midi": 80,
                    "time": 102.0134947499998,
                    "velocity": 0.2047244094488189,
                    "duration": 0.20361975000000143
                },
                {
                    "name": "C6",
                    "midi": 84,
                    "time": 102.0813679999998,
                    "velocity": 0.2047244094488189,
                    "duration": 0.13574649999999622
                },
                {
                    "name": "D#5",
                    "midi": 75,
                    "time": 102.0813679999998,
                    "velocity": 0.30708661417322836,
                    "duration": 1.0859720000000266
                },
                {
                    "name": "G#4",
                    "midi": 68,
                    "time": 102.4886074999998,
                    "velocity": 0.1889763779527559,
                    "duration": 0.27149300000000665
                },
                {
                    "name": "G#5",
                    "midi": 80,
                    "time": 102.5564807499998,
                    "velocity": 0.1968503937007874,
                    "duration": 0.20361975000000143
                },
                {
                    "name": "C6",
                    "midi": 84,
                    "time": 102.62435399999981,
                    "velocity": 0.31496062992125984,
                    "duration": 0.13574649999999622
                },
                {
                    "name": "A#5",
                    "midi": 82,
                    "time": 103.03159349999981,
                    "velocity": 0.2047244094488189,
                    "duration": 0.4072395000000171
                },
                {
                    "name": "G5",
                    "midi": 79,
                    "time": 103.09946674999982,
                    "velocity": 0.2047244094488189,
                    "duration": 0.33936625000001186
                },
                {
                    "name": "C#5",
                    "midi": 73,
                    "time": 103.16733999999983,
                    "velocity": 0.3228346456692913,
                    "duration": 0.27149300000000665
                },
                {
                    "name": "C5",
                    "midi": 72,
                    "time": 103.43883299999983,
                    "velocity": 0.31496062992125984,
                    "duration": 0.13574649999999622
                },
                {
                    "name": "G5",
                    "midi": 79,
                    "time": 103.57457949999983,
                    "velocity": 0.2047244094488189,
                    "duration": 0.4072395000000171
                },
                {
                    "name": "D#5",
                    "midi": 75,
                    "time": 103.64245274999983,
                    "velocity": 0.2047244094488189,
                    "duration": 0.33936625000001186
                },
                {
                    "name": "A#4",
                    "midi": 70,
                    "time": 103.71032599999984,
                    "velocity": 0.30708661417322836,
                    "duration": 0.27149300000000665
                },
                {
                    "name": "C5",
                    "midi": 72,
                    "time": 103.98181899999985,
                    "velocity": 0.31496062992125984,
                    "duration": 0.13574649999999622
                },
                {
                    "name": "G#5",
                    "midi": 80,
                    "time": 104.11756549999984,
                    "velocity": 0.1968503937007874,
                    "duration": 0.4072395000000171
                },
                {
                    "name": "F5",
                    "midi": 77,
                    "time": 104.18543874999985,
                    "velocity": 0.1968503937007874,
                    "duration": 0.33936625000001186
                },
                {
                    "name": "C#5",
                    "midi": 73,
                    "time": 104.25331199999985,
                    "velocity": 0.33070866141732286,
                    "duration": 0.27149300000000665
                },
                {
                    "name": "C5",
                    "midi": 72,
                    "time": 104.52480499999986,
                    "velocity": 0.33070866141732286,
                    "duration": 0.13574649999999622
                },
                {
                    "name": "F5",
                    "midi": 77,
                    "time": 104.66055149999985,
                    "velocity": 0.2047244094488189,
                    "duration": 0.4072395000000171
                },
                {
                    "name": "C#5",
                    "midi": 73,
                    "time": 104.72842474999986,
                    "velocity": 0.2047244094488189,
                    "duration": 0.33936625000001186
                },
                {
                    "name": "A#4",
                    "midi": 70,
                    "time": 104.79629799999987,
                    "velocity": 0.3228346456692913,
                    "duration": 0.27149300000000665
                },
                {
                    "name": "G#4",
                    "midi": 68,
                    "time": 105.06779099999987,
                    "velocity": 0.31496062992125984,
                    "duration": 0.13574649999999622
                },
                {
                    "name": "D#5",
                    "midi": 75,
                    "time": 105.20353749999987,
                    "velocity": 0.1968503937007874,
                    "duration": 0.4072395000000171
                },
                {
                    "name": "A#4",
                    "midi": 70,
                    "time": 105.27141074999987,
                    "velocity": 0.1968503937007874,
                    "duration": 0.33936625000001186
                },
                {
                    "name": "G4",
                    "midi": 67,
                    "time": 105.33928399999988,
                    "velocity": 0.33070866141732286,
                    "duration": 0.27149300000000665
                },
                {
                    "name": "F4",
                    "midi": 65,
                    "time": 105.61077699999989,
                    "velocity": 0.3228346456692913,
                    "duration": 0.13574649999999622
                },
                {
                    "name": "C#5",
                    "midi": 73,
                    "time": 105.74652349999988,
                    "velocity": 0.1889763779527559,
                    "duration": 0.4072395000000171
                },
                {
                    "name": "A#4",
                    "midi": 70,
                    "time": 105.81439674999989,
                    "velocity": 0.1889763779527559,
                    "duration": 0.33936625000001186
                },
                {
                    "name": "D#4",
                    "midi": 63,
                    "time": 105.88226999999989,
                    "velocity": 0.31496062992125984,
                    "duration": 0.27149300000000665
                },
                {
                    "name": "F4",
                    "midi": 65,
                    "time": 106.1537629999999,
                    "velocity": 0.3228346456692913,
                    "duration": 0.13574649999999622
                },
                {
                    "name": "D#5",
                    "midi": 75,
                    "time": 106.2895094999999,
                    "velocity": 0.2204724409448819,
                    "duration": 0.4072395000000171
                },
                {
                    "name": "C#5",
                    "midi": 73,
                    "time": 106.3573827499999,
                    "velocity": 0.2204724409448819,
                    "duration": 0.33936625000001186
                },
                {
                    "name": "G4",
                    "midi": 67,
                    "time": 106.4252559999999,
                    "velocity": 0.3464566929133858,
                    "duration": 0.27149300000000665
                },
                {
                    "name": "A#4",
                    "midi": 70,
                    "time": 106.69674899999991,
                    "velocity": 0.31496062992125984,
                    "duration": 0.13574649999999622
                },
                {
                    "name": "D#5",
                    "midi": 75,
                    "time": 106.83249549999991,
                    "velocity": 0.2047244094488189,
                    "duration": 0.4072395000000171
                },
                {
                    "name": "C#5",
                    "midi": 73,
                    "time": 106.90036874999991,
                    "velocity": 0.2047244094488189,
                    "duration": 0.33936625000001186
                },
                {
                    "name": "F4",
                    "midi": 65,
                    "time": 106.96824199999992,
                    "velocity": 0.33070866141732286,
                    "duration": 0.27149300000000665
                },
                {
                    "name": "G#4",
                    "midi": 68,
                    "time": 107.23973499999992,
                    "velocity": 0.2992125984251969,
                    "duration": 0.13574649999999622
                },
                {
                    "name": "D#5",
                    "midi": 75,
                    "time": 107.37548149999992,
                    "velocity": 0.2047244094488189,
                    "duration": 0.4072395000000171
                },
                {
                    "name": "C5",
                    "midi": 72,
                    "time": 107.44335474999993,
                    "velocity": 0.2047244094488189,
                    "duration": 0.33936625000001186
                },
                {
                    "name": "D#4",
                    "midi": 63,
                    "time": 107.51122799999993,
                    "velocity": 0.31496062992125984,
                    "duration": 0.27149300000000665
                },
                {
                    "name": "G4",
                    "midi": 67,
                    "time": 107.78272099999994,
                    "velocity": 0.2755905511811024,
                    "duration": 0.13574649999999622
                },
                {
                    "name": "D#5",
                    "midi": 75,
                    "time": 107.91846749999993,
                    "velocity": 0.1968503937007874,
                    "duration": 0.4072395000000171
                },
                {
                    "name": "A#4",
                    "midi": 70,
                    "time": 107.98634074999994,
                    "velocity": 0.1968503937007874,
                    "duration": 0.33936625000001186
                },
                {
                    "name": "C#4",
                    "midi": 61,
                    "time": 108.05421399999994,
                    "velocity": 0.30708661417322836,
                    "duration": 0.27149300000000665
                },
                {
                    "name": "F4",
                    "midi": 65,
                    "time": 108.32570699999995,
                    "velocity": 0.25984251968503935,
                    "duration": 0.13574649999999622
                },
                {
                    "name": "C4",
                    "midi": 60,
                    "time": 108.59719999999994,
                    "velocity": 0.30708661417322836,
                    "duration": 0.27149300000002086
                },
                {
                    "name": "G#4",
                    "midi": 68,
                    "time": 108.66507324999995,
                    "velocity": 0.23622047244094488,
                    "duration": 0.13574650000001043
                },
                {
                    "name": "C5",
                    "midi": 72,
                    "time": 108.73294649999995,
                    "velocity": 0.23622047244094488,
                    "duration": 0.13574650000001043
                },
                {
                    "name": "C#4",
                    "midi": 61,
                    "time": 108.86869299999996,
                    "velocity": 0.30708661417322836,
                    "duration": 0.27149300000000665
                },
                {
                    "name": "D4",
                    "midi": 62,
                    "time": 109.14018599999997,
                    "velocity": 0.30708661417322836,
                    "duration": 0.27149300000002086
                },
                {
                    "name": "G#4",
                    "midi": 68,
                    "time": 109.20805924999998,
                    "velocity": 0.23622047244094488,
                    "duration": 0.13574650000001043
                },
                {
                    "name": "C5",
                    "midi": 72,
                    "time": 109.27593249999998,
                    "velocity": 0.23622047244094488,
                    "duration": 0.13574650000001043
                },
                {
                    "name": "D#4",
                    "midi": 63,
                    "time": 109.41167899999999,
                    "velocity": 0.3228346456692913,
                    "duration": 0.27149300000000665
                },
                {
                    "name": "C4",
                    "midi": 60,
                    "time": 109.61529875,
                    "velocity": 0.2440944881889764,
                    "duration": 0.13574650000001043
                },
                {
                    "name": "C5",
                    "midi": 72,
                    "time": 109.683172,
                    "velocity": 0.3464566929133858,
                    "duration": 0.27149300000000665
                },
                {
                    "name": "D#5",
                    "midi": 75,
                    "time": 109.75104525,
                    "velocity": 0.25984251968503935,
                    "duration": 0.13574649999999622
                },
                {
                    "name": "G#4",
                    "midi": 68,
                    "time": 109.954665,
                    "velocity": 0.33070866141732286,
                    "duration": 0.27149300000000665
                },
                {
                    "name": "F4",
                    "midi": 65,
                    "time": 110.22615800000001,
                    "velocity": 0.31496062992125984,
                    "duration": 0.27149300000002086
                },
                {
                    "name": "C5",
                    "midi": 72,
                    "time": 110.29403125000002,
                    "velocity": 0.25984251968503935,
                    "duration": 0.13574650000001043
                },
                {
                    "name": "D#5",
                    "midi": 75,
                    "time": 110.36190450000002,
                    "velocity": 0.25984251968503935,
                    "duration": 0.13574650000001043
                },
                {
                    "name": "F#4",
                    "midi": 66,
                    "time": 110.49765100000003,
                    "velocity": 0.30708661417322836,
                    "duration": 0.20361975000000143
                },
                {
                    "name": "G4",
                    "midi": 67,
                    "time": 110.76914400000004,
                    "velocity": 0.30708661417322836,
                    "duration": 1.085972000000055
                },
                {
                    "name": "C5",
                    "midi": 72,
                    "time": 110.83701725000005,
                    "velocity": 0.2440944881889764,
                    "duration": 0.13574650000001043
                },
                {
                    "name": "D#5",
                    "midi": 75,
                    "time": 110.90489050000005,
                    "velocity": 0.2440944881889764,
                    "duration": 0.13574650000001043
                },
                {
                    "name": "C5",
                    "midi": 72,
                    "time": 111.31213000000007,
                    "velocity": 0.2440944881889764,
                    "duration": 0.13574650000001043
                },
                {
                    "name": "D#5",
                    "midi": 75,
                    "time": 111.38000325000007,
                    "velocity": 0.2440944881889764,
                    "duration": 0.13574650000001043
                },
                {
                    "name": "G5",
                    "midi": 79,
                    "time": 111.44787650000008,
                    "velocity": 0.2440944881889764,
                    "duration": 0.13574650000001043
                },
                {
                    "name": "B5",
                    "midi": 83,
                    "time": 111.71936950000008,
                    "velocity": 0.2047244094488189,
                    "duration": 0.4072395000000171
                },
                {
                    "name": "G5",
                    "midi": 79,
                    "time": 111.78724275000009,
                    "velocity": 0.2047244094488189,
                    "duration": 0.33936625000001186
                },
                {
                    "name": "D#5",
                    "midi": 75,
                    "time": 111.8551160000001,
                    "velocity": 0.3228346456692913,
                    "duration": 0.27149300000000665
                },
                {
                    "name": "D5",
                    "midi": 74,
                    "time": 112.1266090000001,
                    "velocity": 0.31496062992125984,
                    "duration": 0.13574649999999622
                },
                {
                    "name": "G5",
                    "midi": 79,
                    "time": 112.2623555000001,
                    "velocity": 0.2047244094488189,
                    "duration": 0.4072395000000171
                },
                {
                    "name": "D#5",
                    "midi": 75,
                    "time": 112.3302287500001,
                    "velocity": 0.2047244094488189,
                    "duration": 0.33936625000001186
                },
                {
                    "name": "C5",
                    "midi": 72,
                    "time": 112.39810200000011,
                    "velocity": 0.30708661417322836,
                    "duration": 0.27149300000000665
                },
                {
                    "name": "G4",
                    "midi": 67,
                    "time": 112.66959500000011,
                    "velocity": 0.31496062992125984,
                    "duration": 0.13574649999999622
                },
                {
                    "name": "F5",
                    "midi": 77,
                    "time": 112.80534150000011,
                    "velocity": 0.1968503937007874,
                    "duration": 0.4072395000000171
                },
                {
                    "name": "D5",
                    "midi": 74,
                    "time": 112.87321475000012,
                    "velocity": 0.1968503937007874,
                    "duration": 0.33936625000001186
                },
                {
                    "name": "A#4",
                    "midi": 70,
                    "time": 112.94108800000012,
                    "velocity": 0.33070866141732286,
                    "duration": 0.27149300000000665
                },
                {
                    "name": "G#4",
                    "midi": 68,
                    "time": 113.21258100000013,
                    "velocity": 0.33070866141732286,
                    "duration": 0.13574649999999622
                },
                {
                    "name": "D5",
                    "midi": 74,
                    "time": 113.34832750000012,
                    "velocity": 0.2047244094488189,
                    "duration": 0.4072395000000171
                },
                {
                    "name": "B4",
                    "midi": 71,
                    "time": 113.41620075000013,
                    "velocity": 0.2047244094488189,
                    "duration": 0.33936625000001186
                },
                {
                    "name": "G4",
                    "midi": 67,
                    "time": 113.48407400000013,
                    "velocity": 0.3228346456692913,
                    "duration": 0.27149300000000665
                },
                {
                    "name": "F4",
                    "midi": 65,
                    "time": 113.75556700000014,
                    "velocity": 0.31496062992125984,
                    "duration": 0.13574649999999622
                },
                {
                    "name": "B4",
                    "midi": 71,
                    "time": 113.89131350000014,
                    "velocity": 0.1968503937007874,
                    "duration": 0.4072395000000171
                },
                {
                    "name": "G4",
                    "midi": 67,
                    "time": 113.95918675000014,
                    "velocity": 0.1968503937007874,
                    "duration": 0.33936625000001186
                },
                {
                    "name": "D#4",
                    "midi": 63,
                    "time": 114.02706000000015,
                    "velocity": 0.33070866141732286,
                    "duration": 0.27149300000000665
                },
                {
                    "name": "D4",
                    "midi": 62,
                    "time": 114.29855300000015,
                    "velocity": 0.3228346456692913,
                    "duration": 0.13574649999999622
                },
                {
                    "name": "G4",
                    "midi": 67,
                    "time": 114.43429950000015,
                    "velocity": 0.1889763779527559,
                    "duration": 0.4072395000000171
                },
                {
                    "name": "D#4",
                    "midi": 63,
                    "time": 114.50217275000016,
                    "velocity": 0.1889763779527559,
                    "duration": 0.33936625000001186
                },
                {
                    "name": "C4",
                    "midi": 60,
                    "time": 114.57004600000016,
                    "velocity": 0.31496062992125984,
                    "duration": 0.27149300000000665
                },
                {
                    "name": "G3",
                    "midi": 55,
                    "time": 114.84153900000017,
                    "velocity": 0.3228346456692913,
                    "duration": 0.13574649999999622
                },
                {
                    "name": "G4",
                    "midi": 67,
                    "time": 114.97728550000016,
                    "velocity": 0.2204724409448819,
                    "duration": 0.4072395000000171
                },
                {
                    "name": "D#4",
                    "midi": 63,
                    "time": 115.04515875000017,
                    "velocity": 0.2204724409448819,
                    "duration": 0.33936625000001186
                },
                {
                    "name": "C4",
                    "midi": 60,
                    "time": 115.11303200000017,
                    "velocity": 0.3464566929133858,
                    "duration": 0.27149300000000665
                },
                {
                    "name": "A#3",
                    "midi": 58,
                    "time": 115.38452500000018,
                    "velocity": 0.31496062992125984,
                    "duration": 0.13574649999999622
                },
                {
                    "name": "D#4",
                    "midi": 63,
                    "time": 115.52027150000018,
                    "velocity": 0.2047244094488189,
                    "duration": 0.4072395000000171
                },
                {
                    "name": "C4",
                    "midi": 60,
                    "time": 115.58814475000018,
                    "velocity": 0.2047244094488189,
                    "duration": 0.6108592500000185
                },
                {
                    "name": "G#3",
                    "midi": 56,
                    "time": 115.65601800000019,
                    "velocity": 0.33070866141732286,
                    "duration": 0.27149300000000665
                },
                {
                    "name": "D4",
                    "midi": 62,
                    "time": 116.1990040000002,
                    "velocity": 0.30708661417322836,
                    "duration": 1.0859719999999982
                },
                {
                    "name": "B3",
                    "midi": 59,
                    "time": 116.1990040000002,
                    "velocity": 0.30708661417322836,
                    "duration": 1.0859719999999982
                },
                {
                    "name": "G3",
                    "midi": 55,
                    "time": 116.1990040000002,
                    "velocity": 0.30708661417322836,
                    "duration": 0.5429859999999991
                },
                {
                    "name": "F3",
                    "midi": 53,
                    "time": 116.7419900000002,
                    "velocity": 0.2992125984251969,
                    "duration": 0.5429859999999991
                },
                {
                    "name": "G4",
                    "midi": 67,
                    "time": 117.2849760000002,
                    "velocity": 0.23622047244094488,
                    "duration": 0.5429859999999991
                },
                {
                    "name": "G3",
                    "midi": 55,
                    "time": 117.2849760000002,
                    "velocity": 0.23622047244094488,
                    "duration": 0.5429859999999991
                },
                {
                    "name": "D#4",
                    "midi": 63,
                    "time": 117.2849760000002,
                    "velocity": 0.23622047244094488,
                    "duration": 0.5429859999999991
                },
                {
                    "name": "A3",
                    "midi": 57,
                    "time": 117.8279620000002,
                    "velocity": 0.28346456692913385,
                    "duration": 0.5429859999999991
                },
                {
                    "name": "F#4",
                    "midi": 66,
                    "time": 117.8279620000002,
                    "velocity": 0.28346456692913385,
                    "duration": 0.5429859999999991
                },
                {
                    "name": "A4",
                    "midi": 69,
                    "time": 117.8279620000002,
                    "velocity": 0.28346456692913385,
                    "duration": 0.5429859999999991
                },
                {
                    "name": "A#3",
                    "midi": 58,
                    "time": 118.3709480000002,
                    "velocity": 0.30708661417322836,
                    "duration": 1.0859719999999982
                },
                {
                    "name": "A#4",
                    "midi": 70,
                    "time": 118.3709480000002,
                    "velocity": 0.30708661417322836,
                    "duration": 1.0859719999999982
                },
                {
                    "name": "G4",
                    "midi": 67,
                    "time": 118.3709480000002,
                    "velocity": 0.30708661417322836,
                    "duration": 1.0859719999999982
                },
                {
                    "name": "G5",
                    "midi": 79,
                    "time": 119.4569200000002,
                    "velocity": 0.23622047244094488,
                    "duration": 0.5429859999999991
                },
                {
                    "name": "D#5",
                    "midi": 75,
                    "time": 119.4569200000002,
                    "velocity": 0.23622047244094488,
                    "duration": 0.5429859999999991
                },
                {
                    "name": "G4",
                    "midi": 67,
                    "time": 119.4569200000002,
                    "velocity": 0.23622047244094488,
                    "duration": 0.5429859999999991
                },
                {
                    "name": "A4",
                    "midi": 69,
                    "time": 119.9999060000002,
                    "velocity": 0.2677165354330709,
                    "duration": 0.5429859999999991
                },
                {
                    "name": "F#5",
                    "midi": 78,
                    "time": 119.9999060000002,
                    "velocity": 0.2677165354330709,
                    "duration": 0.5429859999999991
                },
                {
                    "name": "A5",
                    "midi": 81,
                    "time": 119.9999060000002,
                    "velocity": 0.2677165354330709,
                    "duration": 0.5429859999999991
                },
                {
                    "name": "A#5",
                    "midi": 82,
                    "time": 120.5428920000002,
                    "velocity": 0.23622047244094488,
                    "duration": 1.0859719999999982
                },
                {
                    "name": "A#4",
                    "midi": 70,
                    "time": 120.5428920000002,
                    "velocity": 0.23622047244094488,
                    "duration": 1.0859719999999982
                },
                {
                    "name": "G5",
                    "midi": 79,
                    "time": 120.5428920000002,
                    "velocity": 0.23622047244094488,
                    "duration": 1.0859719999999982
                },
                {
                    "name": "G3",
                    "midi": 55,
                    "time": 121.62886400000019,
                    "velocity": 0.23622047244094488,
                    "duration": 0.5429859999999991
                },
                {
                    "name": "E4",
                    "midi": 64,
                    "time": 121.62886400000019,
                    "velocity": 0.23622047244094488,
                    "duration": 0.5429859999999991
                },
                {
                    "name": "G4",
                    "midi": 67,
                    "time": 121.62886400000019,
                    "velocity": 0.23622047244094488,
                    "duration": 0.5429859999999991
                },
                {
                    "name": "A3",
                    "midi": 57,
                    "time": 122.17185000000019,
                    "velocity": 0.25984251968503935,
                    "duration": 0.5429859999999991
                },
                {
                    "name": "A4",
                    "midi": 69,
                    "time": 122.17185000000019,
                    "velocity": 0.25984251968503935,
                    "duration": 0.5429859999999991
                },
                {
                    "name": "F#4",
                    "midi": 66,
                    "time": 122.17185000000019,
                    "velocity": 0.25984251968503935,
                    "duration": 0.5429859999999991
                },
                {
                    "name": "A#4",
                    "midi": 70,
                    "time": 122.71483600000019,
                    "velocity": 0.28346456692913385,
                    "duration": 0.5429859999999991
                },
                {
                    "name": "A#3",
                    "midi": 58,
                    "time": 122.71483600000019,
                    "velocity": 0.28346456692913385,
                    "duration": 0.5429859999999991
                },
                {
                    "name": "G4",
                    "midi": 67,
                    "time": 122.71483600000019,
                    "velocity": 0.28346456692913385,
                    "duration": 0.5429859999999991
                },
                {
                    "name": "C4",
                    "midi": 60,
                    "time": 123.25782200000019,
                    "velocity": 0.30708661417322836,
                    "duration": 0.5429859999999991
                },
                {
                    "name": "A4",
                    "midi": 69,
                    "time": 123.25782200000019,
                    "velocity": 0.30708661417322836,
                    "duration": 0.5429859999999991
                },
                {
                    "name": "C5",
                    "midi": 72,
                    "time": 123.25782200000019,
                    "velocity": 0.30708661417322836,
                    "duration": 0.5429859999999991
                },
                {
                    "name": "C#4",
                    "midi": 61,
                    "time": 123.80080800000019,
                    "velocity": 0.3464566929133858,
                    "duration": 0.5429859999999991
                },
                {
                    "name": "A#4",
                    "midi": 70,
                    "time": 123.80080800000019,
                    "velocity": 0.3464566929133858,
                    "duration": 0.5429859999999991
                },
                {
                    "name": "C#5",
                    "midi": 73,
                    "time": 123.80080800000019,
                    "velocity": 0.3464566929133858,
                    "duration": 0.5429859999999991
                },
                {
                    "name": "C5",
                    "midi": 72,
                    "time": 124.34379400000019,
                    "velocity": 0.3779527559055118,
                    "duration": 0.5429859999999991
                },
                {
                    "name": "E4",
                    "midi": 64,
                    "time": 124.34379400000019,
                    "velocity": 0.3779527559055118,
                    "duration": 0.5429859999999991
                },
                {
                    "name": "E5",
                    "midi": 76,
                    "time": 124.34379400000019,
                    "velocity": 0.3779527559055118,
                    "duration": 0.5429859999999991
                },
                {
                    "name": "C#5",
                    "midi": 73,
                    "time": 124.88678000000019,
                    "velocity": 0.4015748031496063,
                    "duration": 1.0859719999999982
                },
                {
                    "name": "F4",
                    "midi": 65,
                    "time": 124.88678000000019,
                    "velocity": 0.4015748031496063,
                    "duration": 0.5429859999999991
                },
                {
                    "name": "F5",
                    "midi": 77,
                    "time": 124.88678000000019,
                    "velocity": 0.4015748031496063,
                    "duration": 0.5429859999999991
                },
                {
                    "name": "G5",
                    "midi": 79,
                    "time": 125.42976600000019,
                    "velocity": 0.4330708661417323,
                    "duration": 0.5429859999999991
                },
                {
                    "name": "G4",
                    "midi": 67,
                    "time": 125.42976600000019,
                    "velocity": 0.4330708661417323,
                    "duration": 0.5429859999999991
                },
                {
                    "name": "C5",
                    "midi": 72,
                    "time": 125.97275200000018,
                    "velocity": 0.3543307086614173,
                    "duration": 0.27149300000002086
                },
                {
                    "name": "G#5",
                    "midi": 80,
                    "time": 126.04062525000019,
                    "velocity": 0.23622047244094488,
                    "duration": 0.13574650000001043
                },
                {
                    "name": "C6",
                    "midi": 84,
                    "time": 126.1084985000002,
                    "velocity": 0.2677165354330709,
                    "duration": 0.13574650000001043
                },
                {
                    "name": "C#5",
                    "midi": 73,
                    "time": 126.2442450000002,
                    "velocity": 0.36220472440944884,
                    "duration": 0.27149300000000665
                },
                {
                    "name": "D5",
                    "midi": 74,
                    "time": 126.51573800000021,
                    "velocity": 0.3779527559055118,
                    "duration": 0.27149300000000665
                },
                {
                    "name": "G#5",
                    "midi": 80,
                    "time": 126.58361125000022,
                    "velocity": 0.2755905511811024,
                    "duration": 0.20361975000000143
                },
                {
                    "name": "C6",
                    "midi": 84,
                    "time": 126.65148450000022,
                    "velocity": 0.2755905511811024,
                    "duration": 0.13574649999999622
                },
                {
                    "name": "D#5",
                    "midi": 75,
                    "time": 126.78723100000022,
                    "velocity": 0.3858267716535433,
                    "duration": 0.27149300000000665
                },
                {
                    "name": "C5",
                    "midi": 72,
                    "time": 126.99085075000022,
                    "velocity": 0.2755905511811024,
                    "duration": 0.13574650000001043
                },
                {
                    "name": "G#5",
                    "midi": 80,
                    "time": 127.05872400000023,
                    "velocity": 0.41732283464566927,
                    "duration": 0.27149300000000665
                },
                {
                    "name": "C6",
                    "midi": 84,
                    "time": 127.12659725000023,
                    "velocity": 0.2992125984251969,
                    "duration": 0.13574649999999622
                },
                {
                    "name": "G5",
                    "midi": 79,
                    "time": 127.33021700000023,
                    "velocity": 0.3858267716535433,
                    "duration": 0.27149300000000665
                },
                {
                    "name": "F5",
                    "midi": 77,
                    "time": 127.60171000000024,
                    "velocity": 0.3858267716535433,
                    "duration": 0.27149300000002086
                },
                {
                    "name": "G#5",
                    "midi": 80,
                    "time": 127.66958325000024,
                    "velocity": 0.2755905511811024,
                    "duration": 0.13574650000001043
                },
                {
                    "name": "C6",
                    "midi": 84,
                    "time": 127.73745650000025,
                    "velocity": 0.2755905511811024,
                    "duration": 0.13574650000001043
                },
                {
                    "name": "E5",
                    "midi": 76,
                    "time": 127.87320300000026,
                    "velocity": 0.3779527559055118,
                    "duration": 0.27149300000000665
                },
                {
                    "name": "C5",
                    "midi": 72,
                    "time": 128.14469600000027,
                    "velocity": 0.2440944881889764,
                    "duration": 0.135746499999982
                },
                {
                    "name": "D#5",
                    "midi": 75,
                    "time": 128.14469600000027,
                    "velocity": 0.3700787401574803,
                    "duration": 1.085971999999913
                },
                {
                    "name": "G#5",
                    "midi": 80,
                    "time": 128.21256925000026,
                    "velocity": 0.2440944881889764,
                    "duration": 0.135746499999982
                },
                {
                    "name": "C6",
                    "midi": 84,
                    "time": 128.28044250000025,
                    "velocity": 0.2440944881889764,
                    "duration": 0.135746499999982
                },
                {
                    "name": "C5",
                    "midi": 72,
                    "time": 128.68768200000022,
                    "velocity": 0.2440944881889764,
                    "duration": 0.135746499999982
                },
                {
                    "name": "G#5",
                    "midi": 80,
                    "time": 128.7555552500002,
                    "velocity": 0.2440944881889764,
                    "duration": 0.135746499999982
                },
                {
                    "name": "C6",
                    "midi": 84,
                    "time": 128.8234285000002,
                    "velocity": 0.2440944881889764,
                    "duration": 0.135746499999982
                },
                {
                    "name": "A#5",
                    "midi": 82,
                    "time": 129.0949215000002,
                    "velocity": 0.2047244094488189,
                    "duration": 0.40723949999997444
                },
                {
                    "name": "G5",
                    "midi": 79,
                    "time": 129.1627947500002,
                    "velocity": 0.2047244094488189,
                    "duration": 0.33936624999998344
                },
                {
                    "name": "C#5",
                    "midi": 73,
                    "time": 129.23066800000018,
                    "velocity": 0.3228346456692913,
                    "duration": 0.27149299999999243
                },
                {
                    "name": "C5",
                    "midi": 72,
                    "time": 129.50216100000017,
                    "velocity": 0.31496062992125984,
                    "duration": 0.13574650000001043
                },
                {
                    "name": "G5",
                    "midi": 79,
                    "time": 129.63790750000018,
                    "velocity": 0.2047244094488189,
                    "duration": 0.40723949999997444
                },
                {
                    "name": "D#5",
                    "midi": 75,
                    "time": 129.70578075000017,
                    "velocity": 0.2047244094488189,
                    "duration": 0.33936624999998344
                },
                {
                    "name": "A#4",
                    "midi": 70,
                    "time": 129.77365400000016,
                    "velocity": 0.30708661417322836,
                    "duration": 0.27149299999999243
                },
                {
                    "name": "C5",
                    "midi": 72,
                    "time": 130.04514700000016,
                    "velocity": 0.31496062992125984,
                    "duration": 0.13574650000001043
                },
                {
                    "name": "G#5",
                    "midi": 80,
                    "time": 130.18089350000017,
                    "velocity": 0.1968503937007874,
                    "duration": 0.40723949999997444
                },
                {
                    "name": "F5",
                    "midi": 77,
                    "time": 130.24876675000016,
                    "velocity": 0.1968503937007874,
                    "duration": 0.33936624999998344
                },
                {
                    "name": "C#5",
                    "midi": 73,
                    "time": 130.31664000000015,
                    "velocity": 0.33070866141732286,
                    "duration": 0.27149299999999243
                },
                {
                    "name": "C5",
                    "midi": 72,
                    "time": 130.58813300000014,
                    "velocity": 0.33070866141732286,
                    "duration": 0.13574650000001043
                },
                {
                    "name": "F5",
                    "midi": 77,
                    "time": 130.72387950000015,
                    "velocity": 0.2047244094488189,
                    "duration": 0.40723949999997444
                },
                {
                    "name": "C#5",
                    "midi": 73,
                    "time": 130.79175275000014,
                    "velocity": 0.2047244094488189,
                    "duration": 0.33936624999998344
                },
                {
                    "name": "A#4",
                    "midi": 70,
                    "time": 130.85962600000013,
                    "velocity": 0.3228346456692913,
                    "duration": 0.27149299999999243
                },
                {
                    "name": "G#4",
                    "midi": 68,
                    "time": 131.13111900000013,
                    "velocity": 0.31496062992125984,
                    "duration": 0.13574650000001043
                },
                {
                    "name": "D#5",
                    "midi": 75,
                    "time": 131.26686550000014,
                    "velocity": 0.1968503937007874,
                    "duration": 0.40723949999997444
                },
                {
                    "name": "A#4",
                    "midi": 70,
                    "time": 131.33473875000013,
                    "velocity": 0.1968503937007874,
                    "duration": 0.33936624999998344
                },
                {
                    "name": "G4",
                    "midi": 67,
                    "time": 131.40261200000012,
                    "velocity": 0.33070866141732286,
                    "duration": 0.27149299999999243
                },
                {
                    "name": "F4",
                    "midi": 65,
                    "time": 131.6741050000001,
                    "velocity": 0.3228346456692913,
                    "duration": 0.13574650000001043
                },
                {
                    "name": "C#5",
                    "midi": 73,
                    "time": 131.80985150000012,
                    "velocity": 0.1889763779527559,
                    "duration": 0.40723949999997444
                },
                {
                    "name": "A#4",
                    "midi": 70,
                    "time": 131.8777247500001,
                    "velocity": 0.1889763779527559,
                    "duration": 0.33936624999998344
                },
                {
                    "name": "D#4",
                    "midi": 63,
                    "time": 131.9455980000001,
                    "velocity": 0.31496062992125984,
                    "duration": 0.27149299999999243
                },
                {
                    "name": "F4",
                    "midi": 65,
                    "time": 132.2170910000001,
                    "velocity": 0.3228346456692913,
                    "duration": 0.13574650000001043
                },
                {
                    "name": "D#5",
                    "midi": 75,
                    "time": 132.3528375000001,
                    "velocity": 0.2204724409448819,
                    "duration": 0.40723949999997444
                },
                {
                    "name": "C#5",
                    "midi": 73,
                    "time": 132.4207107500001,
                    "velocity": 0.2204724409448819,
                    "duration": 0.33936624999998344
                },
                {
                    "name": "G4",
                    "midi": 67,
                    "time": 132.4885840000001,
                    "velocity": 0.3464566929133858,
                    "duration": 0.27149299999999243
                },
                {
                    "name": "A#4",
                    "midi": 70,
                    "time": 132.76007700000008,
                    "velocity": 0.31496062992125984,
                    "duration": 0.13574650000001043
                },
                {
                    "name": "D#5",
                    "midi": 75,
                    "time": 132.8958235000001,
                    "velocity": 0.2047244094488189,
                    "duration": 0.40723949999997444
                },
                {
                    "name": "C#5",
                    "midi": 73,
                    "time": 132.96369675000008,
                    "velocity": 0.2047244094488189,
                    "duration": 0.33936624999998344
                },
                {
                    "name": "F4",
                    "midi": 65,
                    "time": 133.03157000000007,
                    "velocity": 0.33070866141732286,
                    "duration": 0.27149299999999243
                },
                {
                    "name": "G#4",
                    "midi": 68,
                    "time": 133.30306300000007,
                    "velocity": 0.2992125984251969,
                    "duration": 0.13574650000001043
                },
                {
                    "name": "D#5",
                    "midi": 75,
                    "time": 133.43880950000008,
                    "velocity": 0.2047244094488189,
                    "duration": 0.40723949999997444
                },
                {
                    "name": "C5",
                    "midi": 72,
                    "time": 133.50668275000007,
                    "velocity": 0.2047244094488189,
                    "duration": 0.33936624999998344
                },
                {
                    "name": "D#4",
                    "midi": 63,
                    "time": 133.57455600000006,
                    "velocity": 0.31496062992125984,
                    "duration": 0.27149299999999243
                },
                {
                    "name": "G4",
                    "midi": 67,
                    "time": 133.84604900000005,
                    "velocity": 0.2755905511811024,
                    "duration": 0.13574650000001043
                },
                {
                    "name": "D#5",
                    "midi": 75,
                    "time": 133.98179550000006,
                    "velocity": 0.1968503937007874,
                    "duration": 0.40723949999997444
                },
                {
                    "name": "A#4",
                    "midi": 70,
                    "time": 134.04966875000005,
                    "velocity": 0.1968503937007874,
                    "duration": 0.33936624999998344
                },
                {
                    "name": "C#4",
                    "midi": 61,
                    "time": 134.11754200000004,
                    "velocity": 0.30708661417322836,
                    "duration": 0.27149299999999243
                },
                {
                    "name": "F4",
                    "midi": 65,
                    "time": 134.38903500000004,
                    "velocity": 0.25984251968503935,
                    "duration": 0.13574650000001043
                },
                {
                    "name": "C4",
                    "midi": 60,
                    "time": 134.66052800000006,
                    "velocity": 0.30708661417322836,
                    "duration": 0.271492999999964
                },
                {
                    "name": "G#4",
                    "midi": 68,
                    "time": 134.72840125000005,
                    "velocity": 0.23622047244094488,
                    "duration": 0.135746499999982
                },
                {
                    "name": "C5",
                    "midi": 72,
                    "time": 134.79627450000004,
                    "velocity": 0.23622047244094488,
                    "duration": 0.135746499999982
                },
                {
                    "name": "C#4",
                    "midi": 61,
                    "time": 134.93202100000002,
                    "velocity": 0.30708661417322836,
                    "duration": 0.27149299999999243
                },
                {
                    "name": "D4",
                    "midi": 62,
                    "time": 135.203514,
                    "velocity": 0.30708661417322836,
                    "duration": 0.271492999999964
                },
                {
                    "name": "G#4",
                    "midi": 68,
                    "time": 135.27138725,
                    "velocity": 0.23622047244094488,
                    "duration": 0.135746499999982
                },
                {
                    "name": "C5",
                    "midi": 72,
                    "time": 135.3392605,
                    "velocity": 0.23622047244094488,
                    "duration": 0.135746499999982
                },
                {
                    "name": "D#4",
                    "midi": 63,
                    "time": 135.47500699999998,
                    "velocity": 0.3228346456692913,
                    "duration": 0.27149299999999243
                },
                {
                    "name": "C4",
                    "midi": 60,
                    "time": 135.74649999999997,
                    "velocity": 0.30708661417322836,
                    "duration": 0.271492999999964
                },
                {
                    "name": "C5",
                    "midi": 72,
                    "time": 135.81437324999996,
                    "velocity": 0.3464566929133858,
                    "duration": 0.135746499999982
                },
                {
                    "name": "D#5",
                    "midi": 75,
                    "time": 135.88224649999995,
                    "velocity": 0.25984251968503935,
                    "duration": 0.135746499999982
                },
                {
                    "name": "G#4",
                    "midi": 68,
                    "time": 136.01799299999993,
                    "velocity": 0.33070866141732286,
                    "duration": 0.27149299999999243
                },
                {
                    "name": "F4",
                    "midi": 65,
                    "time": 136.28948599999993,
                    "velocity": 0.31496062992125984,
                    "duration": 0.271492999999964
                },
                {
                    "name": "C5",
                    "midi": 72,
                    "time": 136.35735924999992,
                    "velocity": 0.25984251968503935,
                    "duration": 0.135746499999982
                },
                {
                    "name": "D#5",
                    "midi": 75,
                    "time": 136.4252324999999,
                    "velocity": 0.25984251968503935,
                    "duration": 0.135746499999982
                },
                {
                    "name": "E4",
                    "midi": 64,
                    "time": 136.5609789999999,
                    "velocity": 0.30708661417322836,
                    "duration": 0.27149299999999243
                },
                {
                    "name": "C4",
                    "midi": 60,
                    "time": 136.83247199999988,
                    "velocity": 0.33070866141732286,
                    "duration": 0.271492999999964
                },
                {
                    "name": "D#4",
                    "midi": 63,
                    "time": 136.90034524999987,
                    "velocity": 0.2755905511811024,
                    "duration": 0.203619749999973
                },
                {
                    "name": "G4",
                    "midi": 67,
                    "time": 136.96821849999986,
                    "velocity": 0.2755905511811024,
                    "duration": 0.135746499999982
                },
                {
                    "name": "C5",
                    "midi": 72,
                    "time": 137.03609174999985,
                    "velocity": 0.2755905511811024,
                    "duration": 0.067873249999991
                },
                {
                    "name": "C#5",
                    "midi": 73,
                    "time": 137.10396499999985,
                    "velocity": 0.33070866141732286,
                    "duration": 0.27149299999999243
                },
                {
                    "name": "A#4",
                    "midi": 70,
                    "time": 137.10396499999985,
                    "velocity": 0.33070866141732286,
                    "duration": 0.27149299999999243
                },
                {
                    "name": "C#4",
                    "midi": 61,
                    "time": 137.10396499999985,
                    "velocity": 0.33070866141732286,
                    "duration": 0.27149299999999243
                },
                {
                    "name": "D4",
                    "midi": 62,
                    "time": 137.37545799999984,
                    "velocity": 0.3858267716535433,
                    "duration": 0.27149299999999243
                },
                {
                    "name": "D5",
                    "midi": 74,
                    "time": 137.37545799999984,
                    "velocity": 0.3858267716535433,
                    "duration": 0.27149299999999243
                },
                {
                    "name": "B4",
                    "midi": 71,
                    "time": 137.37545799999984,
                    "velocity": 0.3858267716535433,
                    "duration": 0.27149299999999243
                },
                {
                    "name": "D#5",
                    "midi": 75,
                    "time": 137.64695099999983,
                    "velocity": 0.41732283464566927,
                    "duration": 0.27149299999999243
                },
                {
                    "name": "C5",
                    "midi": 72,
                    "time": 137.64695099999983,
                    "velocity": 0.41732283464566927,
                    "duration": 0.27149299999999243
                },
                {
                    "name": "D#4",
                    "midi": 63,
                    "time": 137.64695099999983,
                    "velocity": 0.41732283464566927,
                    "duration": 0.27149299999999243
                },
                {
                    "name": "D#6",
                    "midi": 87,
                    "time": 137.91844399999982,
                    "velocity": 0.49606299212598426,
                    "duration": 0.27149299999999243
                },
                {
                    "name": "F#5",
                    "midi": 78,
                    "time": 137.91844399999982,
                    "velocity": 0.49606299212598426,
                    "duration": 0.27149299999999243
                },
                {
                    "name": "D#5",
                    "midi": 75,
                    "time": 137.91844399999982,
                    "velocity": 0.49606299212598426,
                    "duration": 0.27149299999999243
                },
                {
                    "name": "C6",
                    "midi": 84,
                    "time": 138.18993699999982,
                    "velocity": 0.3937007874015748,
                    "duration": 0.27149299999999243
                },
                {
                    "name": "C5",
                    "midi": 72,
                    "time": 138.18993699999982,
                    "velocity": 0.3937007874015748,
                    "duration": 0.27149299999999243
                },
                {
                    "name": "G#5",
                    "midi": 80,
                    "time": 138.18993699999982,
                    "velocity": 0.3937007874015748,
                    "duration": 0.27149299999999243
                },
                {
                    "name": "G#5",
                    "midi": 80,
                    "time": 138.4614299999998,
                    "velocity": 0.36220472440944884,
                    "duration": 0.27149299999999243
                },
                {
                    "name": "F5",
                    "midi": 77,
                    "time": 138.4614299999998,
                    "velocity": 0.36220472440944884,
                    "duration": 0.27149299999999243
                },
                {
                    "name": "G#4",
                    "midi": 68,
                    "time": 138.4614299999998,
                    "velocity": 0.36220472440944884,
                    "duration": 0.27149299999999243
                },
                {
                    "name": "F#5",
                    "midi": 78,
                    "time": 138.7329229999998,
                    "velocity": 0.33070866141732286,
                    "duration": 0.27149299999999243
                },
                {
                    "name": "D#5",
                    "midi": 75,
                    "time": 138.7329229999998,
                    "velocity": 0.33070866141732286,
                    "duration": 0.27149299999999243
                },
                {
                    "name": "F#4",
                    "midi": 66,
                    "time": 138.7329229999998,
                    "velocity": 0.33070866141732286,
                    "duration": 0.27149299999999243
                },
                {
                    "name": "F5",
                    "midi": 77,
                    "time": 139.0044159999998,
                    "velocity": 0.3228346456692913,
                    "duration": 0.5429860000000133
                },
                {
                    "name": "F4",
                    "midi": 65,
                    "time": 139.0044159999998,
                    "velocity": 0.3228346456692913,
                    "duration": 0.5429860000000133
                },
                {
                    "name": "C#5",
                    "midi": 73,
                    "time": 139.0044159999998,
                    "velocity": 0.3228346456692913,
                    "duration": 0.5429860000000133
                },
                {
                    "name": "C#5",
                    "midi": 73,
                    "time": 139.5474019999998,
                    "velocity": 0.30708661417322836,
                    "duration": 0.5429860000000133
                },
                {
                    "name": "E5",
                    "midi": 76,
                    "time": 139.5474019999998,
                    "velocity": 0.30708661417322836,
                    "duration": 0.5429860000000133
                },
                {
                    "name": "E4",
                    "midi": 64,
                    "time": 139.5474019999998,
                    "velocity": 0.30708661417322836,
                    "duration": 0.5429860000000133
                },
                {
                    "name": "D#4",
                    "midi": 63,
                    "time": 140.09038799999982,
                    "velocity": 0.2755905511811024,
                    "duration": 1.0859719999999982
                },
                {
                    "name": "C5",
                    "midi": 72,
                    "time": 140.09038799999982,
                    "velocity": 0.2755905511811024,
                    "duration": 1.0859719999999982
                },
                {
                    "name": "D#5",
                    "midi": 75,
                    "time": 140.09038799999982,
                    "velocity": 0.2755905511811024,
                    "duration": 1.0859719999999982
                },
                {
                    "name": "G#4",
                    "midi": 68,
                    "time": 141.17635999999982,
                    "velocity": 0.2440944881889764,
                    "duration": 0.5429860000000133
                },
                {
                    "name": "G#3",
                    "midi": 56,
                    "time": 141.17635999999982,
                    "velocity": 0.2440944881889764,
                    "duration": 0.5429860000000133
                },
                {
                    "name": "D#4",
                    "midi": 63,
                    "time": 141.17635999999982,
                    "velocity": 0.2440944881889764,
                    "duration": 0.5429860000000133
                },
                {
                    "name": "G3",
                    "midi": 55,
                    "time": 141.71934599999983,
                    "velocity": 0.23622047244094488,
                    "duration": 0.5429860000000133
                },
                {
                    "name": "D#4",
                    "midi": 63,
                    "time": 141.71934599999983,
                    "velocity": 0.23622047244094488,
                    "duration": 0.5429860000000133
                },
                {
                    "name": "G4",
                    "midi": 67,
                    "time": 141.71934599999983,
                    "velocity": 0.23622047244094488,
                    "duration": 0.5429860000000133
                },
                {
                    "name": "D#4",
                    "midi": 63,
                    "time": 142.26233199999984,
                    "velocity": 0.1968503937007874,
                    "duration": 1.0859719999999982
                },
                {
                    "name": "F#3",
                    "midi": 54,
                    "time": 142.26233199999984,
                    "velocity": 0.1968503937007874,
                    "duration": 1.0859719999999982
                },
                {
                    "name": "F#4",
                    "midi": 66,
                    "time": 142.26233199999984,
                    "velocity": 0.1968503937007874,
                    "duration": 1.0859719999999982
                },
                {
                    "name": "G5",
                    "midi": 79,
                    "time": 143.34830399999984,
                    "velocity": 0.2755905511811024,
                    "duration": 0.5429860000000133
                },
                {
                    "name": "C5",
                    "midi": 72,
                    "time": 143.34830399999984,
                    "velocity": 0.2755905511811024,
                    "duration": 0.5429860000000133
                },
                {
                    "name": "G4",
                    "midi": 67,
                    "time": 143.34830399999984,
                    "velocity": 0.2755905511811024,
                    "duration": 0.5429860000000133
                },
                {
                    "name": "G5",
                    "midi": 79,
                    "time": 143.89128999999986,
                    "velocity": 0.2440944881889764,
                    "duration": 0.5429860000000133
                },
                {
                    "name": "D5",
                    "midi": 74,
                    "time": 143.89128999999986,
                    "velocity": 0.2440944881889764,
                    "duration": 0.5429860000000133
                },
                {
                    "name": "G4",
                    "midi": 67,
                    "time": 143.89128999999986,
                    "velocity": 0.2440944881889764,
                    "duration": 0.5429860000000133
                },
                {
                    "name": "D#5",
                    "midi": 75,
                    "time": 144.43427599999987,
                    "velocity": 0.2755905511811024,
                    "duration": 0.5429860000000133
                },
                {
                    "name": "G5",
                    "midi": 79,
                    "time": 144.43427599999987,
                    "velocity": 0.2755905511811024,
                    "duration": 0.5429860000000133
                },
                {
                    "name": "G4",
                    "midi": 67,
                    "time": 144.43427599999987,
                    "velocity": 0.2755905511811024,
                    "duration": 0.5429860000000133
                },
                {
                    "name": "G5",
                    "midi": 79,
                    "time": 144.97726199999988,
                    "velocity": 0.25984251968503935,
                    "duration": 0.5429860000000133
                },
                {
                    "name": "D5",
                    "midi": 74,
                    "time": 144.97726199999988,
                    "velocity": 0.25984251968503935,
                    "duration": 0.5429860000000133
                },
                {
                    "name": "G4",
                    "midi": 67,
                    "time": 144.97726199999988,
                    "velocity": 0.25984251968503935,
                    "duration": 0.5429860000000133
                },
                {
                    "name": "G5",
                    "midi": 79,
                    "time": 145.5202479999999,
                    "velocity": 0.30708661417322836,
                    "duration": 0.5429859999999849
                },
                {
                    "name": "G4",
                    "midi": 67,
                    "time": 145.5202479999999,
                    "velocity": 0.30708661417322836,
                    "duration": 0.5429859999999849
                },
                {
                    "name": "D#5",
                    "midi": 75,
                    "time": 145.70124333333322,
                    "velocity": 0.2755905511811024,
                    "duration": 0.1809953333333283
                },
                {
                    "name": "F5",
                    "midi": 77,
                    "time": 145.88223866666655,
                    "velocity": 0.2755905511811024,
                    "duration": 0.1809953333333283
                },
                {
                    "name": "D5",
                    "midi": 74,
                    "time": 146.06323399999988,
                    "velocity": 0.28346456692913385,
                    "duration": 0.5429860000000133
                },
                {
                    "name": "G4",
                    "midi": 67,
                    "time": 146.06323399999988,
                    "velocity": 0.28346456692913385,
                    "duration": 0.5429860000000133
                },
                {
                    "name": "G5",
                    "midi": 79,
                    "time": 146.06323399999988,
                    "velocity": 0.28346456692913385,
                    "duration": 0.5429860000000133
                },
                {
                    "name": "G5",
                    "midi": 79,
                    "time": 146.6062199999999,
                    "velocity": 0.29133858267716534,
                    "duration": 0.5429859999999849
                },
                {
                    "name": "D#5",
                    "midi": 75,
                    "time": 146.6062199999999,
                    "velocity": 0.29133858267716534,
                    "duration": 0.1809953333333283
                },
                {
                    "name": "G4",
                    "midi": 67,
                    "time": 146.6062199999999,
                    "velocity": 0.29133858267716534,
                    "duration": 0.5429859999999849
                },
                {
                    "name": "C5",
                    "midi": 72,
                    "time": 146.78721533333322,
                    "velocity": 0.2677165354330709,
                    "duration": 0.1809953333333283
                },
                {
                    "name": "C#5",
                    "midi": 73,
                    "time": 146.96821066666655,
                    "velocity": 0.2677165354330709,
                    "duration": 0.1809953333333283
                },
                {
                    "name": "A#4",
                    "midi": 70,
                    "time": 147.14920599999988,
                    "velocity": 0.28346456692913385,
                    "duration": 0.5429860000000133
                },
                {
                    "name": "G4",
                    "midi": 67,
                    "time": 147.14920599999988,
                    "velocity": 0.28346456692913385,
                    "duration": 0.5429860000000133
                },
                {
                    "name": "G5",
                    "midi": 79,
                    "time": 147.14920599999988,
                    "velocity": 0.28346456692913385,
                    "duration": 0.5429860000000133
                },
                {
                    "name": "C6",
                    "midi": 84,
                    "time": 147.6921919999999,
                    "velocity": 0.4094488188976378,
                    "duration": 0.1809953333333283
                },
                {
                    "name": "C5",
                    "midi": 72,
                    "time": 147.6921919999999,
                    "velocity": 0.4094488188976378,
                    "duration": 0.1809953333333283
                },
                {
                    "name": "G#5",
                    "midi": 80,
                    "time": 147.87318733333322,
                    "velocity": 0.3779527559055118,
                    "duration": 0.1809953333333283
                },
                {
                    "name": "A#4",
                    "midi": 70,
                    "time": 148.05418266666655,
                    "velocity": 0.3779527559055118,
                    "duration": 0.1809953333333283
                },
                {
                    "name": "A#5",
                    "midi": 82,
                    "time": 148.05418266666655,
                    "velocity": 0.3779527559055118,
                    "duration": 0.1809953333333283
                },
                {
                    "name": "G5",
                    "midi": 79,
                    "time": 148.23517799999988,
                    "velocity": 0.41732283464566927,
                    "duration": 0.5429860000000133
                },
                {
                    "name": "C5",
                    "midi": 72,
                    "time": 148.7781639999999,
                    "velocity": 0.3937007874015748,
                    "duration": 0.1809953333333283
                },
                {
                    "name": "C6",
                    "midi": 84,
                    "time": 148.7781639999999,
                    "velocity": 0.3937007874015748,
                    "duration": 0.1809953333333283
                },
                {
                    "name": "G#5",
                    "midi": 80,
                    "time": 148.95915933333322,
                    "velocity": 0.3464566929133858,
                    "duration": 0.1809953333333283
                },
                {
                    "name": "A#5",
                    "midi": 82,
                    "time": 149.14015466666655,
                    "velocity": 0.3779527559055118,
                    "duration": 0.1809953333333283
                },
                {
                    "name": "A#4",
                    "midi": 70,
                    "time": 149.14015466666655,
                    "velocity": 0.3779527559055118,
                    "duration": 0.1809953333333283
                },
                {
                    "name": "G5",
                    "midi": 79,
                    "time": 149.32114999999988,
                    "velocity": 0.31496062992125984,
                    "duration": 0.1809953333333283
                },
                {
                    "name": "G#4",
                    "midi": 68,
                    "time": 149.5021453333332,
                    "velocity": 0.3464566929133858,
                    "duration": 0.1809953333333283
                },
                {
                    "name": "G#5",
                    "midi": 80,
                    "time": 149.5021453333332,
                    "velocity": 0.3464566929133858,
                    "duration": 0.1809953333333283
                },
                {
                    "name": "F5",
                    "midi": 77,
                    "time": 149.68314066666653,
                    "velocity": 0.33070866141732286,
                    "duration": 0.1809953333333283
                },
                {
                    "name": "F#5",
                    "midi": 78,
                    "time": 149.86413599999986,
                    "velocity": 0.3543307086614173,
                    "duration": 0.1809953333333283
                },
                {
                    "name": "F#4",
                    "midi": 66,
                    "time": 149.86413599999986,
                    "velocity": 0.3543307086614173,
                    "duration": 0.1809953333333283
                },
                {
                    "name": "D#5",
                    "midi": 75,
                    "time": 150.0451313333332,
                    "velocity": 0.3543307086614173,
                    "duration": 0.1809953333333283
                },
                {
                    "name": "F#4",
                    "midi": 66,
                    "time": 150.22612666666652,
                    "velocity": 0.3543307086614173,
                    "duration": 0.1809953333333283
                },
                {
                    "name": "F#5",
                    "midi": 78,
                    "time": 150.22612666666652,
                    "velocity": 0.3543307086614173,
                    "duration": 0.1809953333333283
                },
                {
                    "name": "G4",
                    "midi": 67,
                    "time": 150.40712199999984,
                    "velocity": 0.3228346456692913,
                    "duration": 0.5429860000000133
                },
                {
                    "name": "D5",
                    "midi": 74,
                    "time": 150.40712199999984,
                    "velocity": 0.3228346456692913,
                    "duration": 0.5429860000000133
                },
                {
                    "name": "G5",
                    "midi": 79,
                    "time": 150.40712199999984,
                    "velocity": 0.3228346456692913,
                    "duration": 0.5429860000000133
                },
                {
                    "name": "A5",
                    "midi": 81,
                    "time": 150.95010799999986,
                    "velocity": 0.3779527559055118,
                    "duration": 0.1809953333333283
                },
                {
                    "name": "A4",
                    "midi": 69,
                    "time": 150.95010799999986,
                    "velocity": 0.3779527559055118,
                    "duration": 0.1809953333333283
                },
                {
                    "name": "D#5",
                    "midi": 75,
                    "time": 151.1311033333332,
                    "velocity": 0.3779527559055118,
                    "duration": 0.1809953333333283
                },
                {
                    "name": "A4",
                    "midi": 69,
                    "time": 151.31209866666651,
                    "velocity": 0.3779527559055118,
                    "duration": 0.1809953333333283
                },
                {
                    "name": "A5",
                    "midi": 81,
                    "time": 151.31209866666651,
                    "velocity": 0.3779527559055118,
                    "duration": 0.1809953333333283
                },
                {
                    "name": "G4",
                    "midi": 67,
                    "time": 151.49309399999984,
                    "velocity": 0.3543307086614173,
                    "duration": 0.5429860000000133
                },
                {
                    "name": "G5",
                    "midi": 79,
                    "time": 151.49309399999984,
                    "velocity": 0.3543307086614173,
                    "duration": 0.5429860000000133
                },
                {
                    "name": "D5",
                    "midi": 74,
                    "time": 151.49309399999984,
                    "velocity": 0.3543307086614173,
                    "duration": 0.5429860000000133
                },
                {
                    "name": "C5",
                    "midi": 72,
                    "time": 152.03607999999986,
                    "velocity": 0.48031496062992124,
                    "duration": 0.1809953333333283
                },
                {
                    "name": "C6",
                    "midi": 84,
                    "time": 152.03607999999986,
                    "velocity": 0.48031496062992124,
                    "duration": 0.1809953333333283
                },
                {
                    "name": "G5",
                    "midi": 79,
                    "time": 152.21707533333318,
                    "velocity": 0.4645669291338583,
                    "duration": 0.1809953333333283
                },
                {
                    "name": "C5",
                    "midi": 72,
                    "time": 152.3980706666665,
                    "velocity": 0.4645669291338583,
                    "duration": 0.1809953333333283
                },
                {
                    "name": "C6",
                    "midi": 84,
                    "time": 152.3980706666665,
                    "velocity": 0.4645669291338583,
                    "duration": 0.1809953333333283
                },
                {
                    "name": "D6",
                    "midi": 86,
                    "time": 152.57906599999984,
                    "velocity": 0.4566929133858268,
                    "duration": 0.5429860000000133
                },
                {
                    "name": "G5",
                    "midi": 79,
                    "time": 152.57906599999984,
                    "velocity": 0.4566929133858268,
                    "duration": 0.5429860000000133
                },
                {
                    "name": "D5",
                    "midi": 74,
                    "time": 152.57906599999984,
                    "velocity": 0.4566929133858268,
                    "duration": 0.5429860000000133
                },
                {
                    "name": "E6",
                    "midi": 88,
                    "time": 153.12205199999985,
                    "velocity": 0.5433070866141733,
                    "duration": 0.1809953333333283
                },
                {
                    "name": "E5",
                    "midi": 76,
                    "time": 153.12205199999985,
                    "velocity": 0.5433070866141733,
                    "duration": 0.1809953333333283
                },
                {
                    "name": "G5",
                    "midi": 79,
                    "time": 153.30304733333318,
                    "velocity": 0.5196850393700787,
                    "duration": 0.1809953333333283
                },
                {
                    "name": "E5",
                    "midi": 76,
                    "time": 153.4840426666665,
                    "velocity": 0.5196850393700787,
                    "duration": 0.1809953333333283
                },
                {
                    "name": "E6",
                    "midi": 88,
                    "time": 153.4840426666665,
                    "velocity": 0.5196850393700787,
                    "duration": 0.1809953333333283
                },
                {
                    "name": "D5",
                    "midi": 74,
                    "time": 153.66503799999984,
                    "velocity": 0.5433070866141733,
                    "duration": 0.5429860000000133
                },
                {
                    "name": "D6",
                    "midi": 86,
                    "time": 153.66503799999984,
                    "velocity": 0.5433070866141733,
                    "duration": 0.5429860000000133
                },
                {
                    "name": "G5",
                    "midi": 79,
                    "time": 153.66503799999984,
                    "velocity": 0.5433070866141733,
                    "duration": 0.5429860000000133
                },
                {
                    "name": "G5",
                    "midi": 79,
                    "time": 154.20802399999985,
                    "velocity": 0.6299212598425197,
                    "duration": 0.1809953333333283
                },
                {
                    "name": "G6",
                    "midi": 91,
                    "time": 154.20802399999985,
                    "velocity": 0.6299212598425197,
                    "duration": 0.1809953333333283
                },
                {
                    "name": "E6",
                    "midi": 88,
                    "time": 154.38901933333318,
                    "velocity": 0.6062992125984252,
                    "duration": 0.1809953333333283
                },
                {
                    "name": "F6",
                    "midi": 89,
                    "time": 154.5700146666665,
                    "velocity": 0.6062992125984252,
                    "duration": 0.1809953333333283
                },
                {
                    "name": "F5",
                    "midi": 77,
                    "time": 154.5700146666665,
                    "velocity": 0.5118110236220472,
                    "duration": 0.1809953333333283
                },
                {
                    "name": "D5",
                    "midi": 74,
                    "time": 154.75100999999984,
                    "velocity": 0.5511811023622047,
                    "duration": 0.5429860000000133
                },
                {
                    "name": "D4",
                    "midi": 62,
                    "time": 154.75100999999984,
                    "velocity": 0.5511811023622047,
                    "duration": 0.5429860000000133
                },
                {
                    "name": "G4",
                    "midi": 67,
                    "time": 154.75100999999984,
                    "velocity": 0.5511811023622047,
                    "duration": 0.5429860000000133
                },
                {
                    "name": "E6",
                    "midi": 88,
                    "time": 155.29399599999985,
                    "velocity": 0.6929133858267716,
                    "duration": 0.1809953333333283
                },
                {
                    "name": "E5",
                    "midi": 76,
                    "time": 155.29399599999985,
                    "velocity": 0.5826771653543307,
                    "duration": 0.1809953333333283
                },
                {
                    "name": "G5",
                    "midi": 79,
                    "time": 155.47499133333318,
                    "velocity": 0.6614173228346457,
                    "duration": 0.1809953333333283
                },
                {
                    "name": "D6",
                    "midi": 86,
                    "time": 155.6559866666665,
                    "velocity": 0.6614173228346457,
                    "duration": 0.1809953333333283
                },
                {
                    "name": "D5",
                    "midi": 74,
                    "time": 155.6559866666665,
                    "velocity": 0.5590551181102362,
                    "duration": 0.1809953333333283
                },
                {
                    "name": "A#4",
                    "midi": 70,
                    "time": 155.83698199999984,
                    "velocity": 0.6220472440944882,
                    "duration": 0.5429860000000133
                },
                {
                    "name": "E4",
                    "midi": 64,
                    "time": 155.83698199999984,
                    "velocity": 0.6220472440944882,
                    "duration": 0.5429860000000133
                },
                {
                    "name": "A#3",
                    "midi": 58,
                    "time": 155.83698199999984,
                    "velocity": 0.5275590551181102,
                    "duration": 0.5429860000000133
                },
                {
                    "name": "C5",
                    "midi": 72,
                    "time": 156.37996799999985,
                    "velocity": 0.6141732283464567,
                    "duration": 0.1809953333333283
                },
                {
                    "name": "C6",
                    "midi": 84,
                    "time": 156.37996799999985,
                    "velocity": 0.7244094488188977,
                    "duration": 0.1809953333333283
                },
                {
                    "name": "F5",
                    "midi": 77,
                    "time": 156.56096333333318,
                    "velocity": 0.5826771653543307,
                    "duration": 0.09049766666666414
                },
                {
                    "name": "A5",
                    "midi": 81,
                    "time": 156.56096333333318,
                    "velocity": 0.6929133858267716,
                    "duration": 0.09049766666666414
                },
                {
                    "name": "C5",
                    "midi": 72,
                    "time": 156.7419586666665,
                    "velocity": 0.5826771653543307,
                    "duration": 0.13574650000001043
                },
                {
                    "name": "C6",
                    "midi": 84,
                    "time": 156.7419586666665,
                    "velocity": 0.6929133858267716,
                    "duration": 0.13574650000001043
                },
                {
                    "name": "E5",
                    "midi": 76,
                    "time": 156.92295399999986,
                    "velocity": 0.7244094488188977,
                    "duration": 0.5429860000000133
                },
                {
                    "name": "G4",
                    "midi": 67,
                    "time": 156.92295399999986,
                    "velocity": 0.6141732283464567,
                    "duration": 0.5429860000000133
                },
                {
                    "name": "G5",
                    "midi": 79,
                    "time": 156.92295399999986,
                    "velocity": 0.7244094488188977,
                    "duration": 0.5429860000000133
                },
                {
                    "name": "A4",
                    "midi": 69,
                    "time": 157.46593999999988,
                    "velocity": 0.6062992125984252,
                    "duration": 0.1809953333333283
                },
                {
                    "name": "A5",
                    "midi": 81,
                    "time": 157.46593999999988,
                    "velocity": 0.7165354330708661,
                    "duration": 0.1809953333333283
                },
                {
                    "name": "F5",
                    "midi": 77,
                    "time": 157.6469353333332,
                    "velocity": 0.6771653543307087,
                    "duration": 0.09049766666666414
                },
                {
                    "name": "D5",
                    "midi": 74,
                    "time": 157.6469353333332,
                    "velocity": 0.5748031496062992,
                    "duration": 0.09049766666666414
                },
                {
                    "name": "A4",
                    "midi": 69,
                    "time": 157.82793066666653,
                    "velocity": 0.5748031496062992,
                    "duration": 0.13574650000001043
                },
                {
                    "name": "A5",
                    "midi": 81,
                    "time": 157.82793066666653,
                    "velocity": 0.6771653543307087,
                    "duration": 0.13574650000001043
                },
                {
                    "name": "C5",
                    "midi": 72,
                    "time": 158.0089259999999,
                    "velocity": 0.7244094488188977,
                    "duration": 0.5429860000000133
                },
                {
                    "name": "E4",
                    "midi": 64,
                    "time": 158.0089259999999,
                    "velocity": 0.6141732283464567,
                    "duration": 0.5429860000000133
                },
                {
                    "name": "E5",
                    "midi": 76,
                    "time": 158.0089259999999,
                    "velocity": 0.7244094488188977,
                    "duration": 0.5429860000000133
                },
                {
                    "name": "G4",
                    "midi": 67,
                    "time": 158.5519119999999,
                    "velocity": 0.6141732283464567,
                    "duration": 0.1809953333333283
                },
                {
                    "name": "G5",
                    "midi": 79,
                    "time": 158.5519119999999,
                    "velocity": 0.7244094488188977,
                    "duration": 0.1809953333333283
                },
                {
                    "name": "C5",
                    "midi": 72,
                    "time": 158.73290733333323,
                    "velocity": 0.5511811023622047,
                    "duration": 0.1809953333333283
                },
                {
                    "name": "E5",
                    "midi": 76,
                    "time": 158.73290733333323,
                    "velocity": 0.6535433070866141,
                    "duration": 0.1809953333333283
                },
                {
                    "name": "G5",
                    "midi": 79,
                    "time": 158.91390266666656,
                    "velocity": 0.7244094488188977,
                    "duration": 0.1809953333333283
                },
                {
                    "name": "G4",
                    "midi": 67,
                    "time": 158.91390266666656,
                    "velocity": 0.6141732283464567,
                    "duration": 0.1809953333333283
                },
                {
                    "name": "D5",
                    "midi": 74,
                    "time": 159.0948979999999,
                    "velocity": 0.5511811023622047,
                    "duration": 0.1809953333333283
                },
                {
                    "name": "F5",
                    "midi": 77,
                    "time": 159.0948979999999,
                    "velocity": 0.6535433070866141,
                    "duration": 0.1809953333333283
                },
                {
                    "name": "G4",
                    "midi": 67,
                    "time": 159.27589333333322,
                    "velocity": 0.6141732283464567,
                    "duration": 0.1809953333333283
                },
                {
                    "name": "G5",
                    "midi": 79,
                    "time": 159.27589333333322,
                    "velocity": 0.7244094488188977,
                    "duration": 0.1809953333333283
                },
                {
                    "name": "E5",
                    "midi": 76,
                    "time": 159.45688866666654,
                    "velocity": 0.6535433070866141,
                    "duration": 0.1809953333333283
                },
                {
                    "name": "C5",
                    "midi": 72,
                    "time": 159.45688866666654,
                    "velocity": 0.5511811023622047,
                    "duration": 0.1809953333333283
                },
                {
                    "name": "G5",
                    "midi": 79,
                    "time": 159.63788399999987,
                    "velocity": 0.7244094488188977,
                    "duration": 0.1809953333333283
                },
                {
                    "name": "G4",
                    "midi": 67,
                    "time": 159.63788399999987,
                    "velocity": 0.6141732283464567,
                    "duration": 0.1809953333333283
                },
                {
                    "name": "A4",
                    "midi": 69,
                    "time": 159.8188793333332,
                    "velocity": 0.5748031496062992,
                    "duration": 0.1809953333333283
                },
                {
                    "name": "C5",
                    "midi": 72,
                    "time": 159.8188793333332,
                    "velocity": 0.6771653543307087,
                    "duration": 0.1809953333333283
                },
                {
                    "name": "G4",
                    "midi": 67,
                    "time": 159.99987466666653,
                    "velocity": 0.5748031496062992,
                    "duration": 0.1809953333333283
                },
                {
                    "name": "G5",
                    "midi": 79,
                    "time": 159.99987466666653,
                    "velocity": 0.6771653543307087,
                    "duration": 0.1809953333333283
                },
                {
                    "name": "D5",
                    "midi": 74,
                    "time": 160.18086999999986,
                    "velocity": 0.6062992125984252,
                    "duration": 0.5429860000000133
                },
                {
                    "name": "G4",
                    "midi": 67,
                    "time": 160.18086999999986,
                    "velocity": 0.5433070866141733,
                    "duration": 0.5429860000000133
                },
                {
                    "name": "B4",
                    "midi": 71,
                    "time": 160.18086999999986,
                    "velocity": 0.5984251968503937,
                    "duration": 0.5429860000000133
                },
                {
                    "name": "G5",
                    "midi": 79,
                    "time": 160.18086999999986,
                    "velocity": 0.7244094488188977,
                    "duration": 0.5429860000000133
                },
                {
                    "name": "C5",
                    "midi": 72,
                    "time": 160.72385599999987,
                    "velocity": 0.5905511811023622,
                    "duration": 0.1809953333333283
                },
                {
                    "name": "C6",
                    "midi": 84,
                    "time": 160.72385599999987,
                    "velocity": 0.7007874015748031,
                    "duration": 0.1809953333333283
                },
                {
                    "name": "B5",
                    "midi": 83,
                    "time": 160.9048513333332,
                    "velocity": 0.5511811023622047,
                    "duration": 0.1809953333333283
                },
                {
                    "name": "G5",
                    "midi": 79,
                    "time": 160.9048513333332,
                    "velocity": 0.4645669291338583,
                    "duration": 0.1809953333333283
                },
                {
                    "name": "C5",
                    "midi": 72,
                    "time": 161.08584666666653,
                    "velocity": 0.5275590551181102,
                    "duration": 0.1809953333333283
                },
                {
                    "name": "C6",
                    "midi": 84,
                    "time": 161.08584666666653,
                    "velocity": 0.6220472440944882,
                    "duration": 0.1809953333333283
                },
                {
                    "name": "F5",
                    "midi": 77,
                    "time": 161.26684199999985,
                    "velocity": 0.4094488188976378,
                    "duration": 0.1809953333333283
                },
                {
                    "name": "A5",
                    "midi": 81,
                    "time": 161.26684199999985,
                    "velocity": 0.4881889763779528,
                    "duration": 0.1809953333333283
                },
                {
                    "name": "C5",
                    "midi": 72,
                    "time": 161.44783733333318,
                    "velocity": 0.5196850393700787,
                    "duration": 0.1809953333333283
                },
                {
                    "name": "C6",
                    "midi": 84,
                    "time": 161.44783733333318,
                    "velocity": 0.6141732283464567,
                    "duration": 0.1809953333333283
                },
                {
                    "name": "E5",
                    "midi": 76,
                    "time": 161.6288326666665,
                    "velocity": 0.4094488188976378,
                    "duration": 0.1809953333333283
                },
                {
                    "name": "G5",
                    "midi": 79,
                    "time": 161.6288326666665,
                    "velocity": 0.4881889763779528,
                    "duration": 0.1809953333333283
                },
                {
                    "name": "A5",
                    "midi": 81,
                    "time": 161.80982799999984,
                    "velocity": 0.6692913385826772,
                    "duration": 0.1809953333333283
                },
                {
                    "name": "A4",
                    "midi": 69,
                    "time": 161.80982799999984,
                    "velocity": 0.5669291338582677,
                    "duration": 0.1809953333333283
                },
                {
                    "name": "E5",
                    "midi": 76,
                    "time": 161.99082333333317,
                    "velocity": 0.4645669291338583,
                    "duration": 0.1809953333333283
                },
                {
                    "name": "G5",
                    "midi": 79,
                    "time": 161.99082333333317,
                    "velocity": 0.5511811023622047,
                    "duration": 0.1809953333333283
                },
                {
                    "name": "A4",
                    "midi": 69,
                    "time": 162.1718186666665,
                    "velocity": 0.5275590551181102,
                    "duration": 0.1809953333333283
                },
                {
                    "name": "A5",
                    "midi": 81,
                    "time": 162.1718186666665,
                    "velocity": 0.6220472440944882,
                    "duration": 0.1809953333333283
                },
                {
                    "name": "F5",
                    "midi": 77,
                    "time": 162.35281399999982,
                    "velocity": 0.49606299212598426,
                    "duration": 0.1809953333333283
                },
                {
                    "name": "D5",
                    "midi": 74,
                    "time": 162.35281399999982,
                    "velocity": 0.41732283464566927,
                    "duration": 0.1809953333333283
                },
                {
                    "name": "A5",
                    "midi": 81,
                    "time": 162.53380933333315,
                    "velocity": 0.6299212598425197,
                    "duration": 0.1809953333333283
                },
                {
                    "name": "A4",
                    "midi": 69,
                    "time": 162.53380933333315,
                    "velocity": 0.5354330708661418,
                    "duration": 0.1809953333333283
                },
                {
                    "name": "C5",
                    "midi": 72,
                    "time": 162.71480466666648,
                    "velocity": 0.4015748031496063,
                    "duration": 0.1809953333333283
                },
                {
                    "name": "E5",
                    "midi": 76,
                    "time": 162.71480466666648,
                    "velocity": 0.48031496062992124,
                    "duration": 0.1809953333333283
                },
                {
                    "name": "G4",
                    "midi": 67,
                    "time": 162.8957999999998,
                    "velocity": 0.5826771653543307,
                    "duration": 0.1809953333333283
                },
                {
                    "name": "G5",
                    "midi": 79,
                    "time": 162.8957999999998,
                    "velocity": 0.6929133858267716,
                    "duration": 0.1809953333333283
                },
                {
                    "name": "F5",
                    "midi": 77,
                    "time": 163.07679533333314,
                    "velocity": 0.5511811023622047,
                    "duration": 0.1809953333333283
                },
                {
                    "name": "D5",
                    "midi": 74,
                    "time": 163.07679533333314,
                    "velocity": 0.4645669291338583,
                    "duration": 0.1809953333333283
                },
                {
                    "name": "G4",
                    "midi": 67,
                    "time": 163.25779066666647,
                    "velocity": 0.5669291338582677,
                    "duration": 0.1809953333333283
                },
                {
                    "name": "G5",
                    "midi": 79,
                    "time": 163.25779066666647,
                    "velocity": 0.6692913385826772,
                    "duration": 0.1809953333333283
                },
                {
                    "name": "C5",
                    "midi": 72,
                    "time": 163.4387859999998,
                    "velocity": 0.4409448818897638,
                    "duration": 0.1809953333333283
                },
                {
                    "name": "E5",
                    "midi": 76,
                    "time": 163.4387859999998,
                    "velocity": 0.5196850393700787,
                    "duration": 0.1809953333333283
                },
                {
                    "name": "G5",
                    "midi": 79,
                    "time": 163.61978133333312,
                    "velocity": 0.6535433070866141,
                    "duration": 0.1809953333333283
                },
                {
                    "name": "G4",
                    "midi": 67,
                    "time": 163.61978133333312,
                    "velocity": 0.5511811023622047,
                    "duration": 0.1809953333333283
                },
                {
                    "name": "A4",
                    "midi": 69,
                    "time": 163.80077666666645,
                    "velocity": 0.4409448818897638,
                    "duration": 0.1809953333333283
                },
                {
                    "name": "C5",
                    "midi": 72,
                    "time": 163.80077666666645,
                    "velocity": 0.5196850393700787,
                    "duration": 0.1809953333333283
                },
                {
                    "name": "G4",
                    "midi": 67,
                    "time": 163.98177199999978,
                    "velocity": 0.5196850393700787,
                    "duration": 0.5429860000000133
                },
                {
                    "name": "C5",
                    "midi": 72,
                    "time": 163.98177199999978,
                    "velocity": 0.5196850393700787,
                    "duration": 0.5429860000000133
                },
                {
                    "name": "E5",
                    "midi": 76,
                    "time": 163.98177199999978,
                    "velocity": 0.7244094488188977,
                    "duration": 0.5429860000000133
                },
                {
                    "name": "G5",
                    "midi": 79,
                    "time": 163.98177199999978,
                    "velocity": 0.7244094488188977,
                    "duration": 0.5429860000000133
                },
                {
                    "name": "G5",
                    "midi": 79,
                    "time": 164.5247579999998,
                    "velocity": 0.7007874015748031,
                    "duration": 0.13574650000001043
                },
                {
                    "name": "G4",
                    "midi": 67,
                    "time": 164.5247579999998,
                    "velocity": 0.4881889763779528,
                    "duration": 0.13574650000001043
                },
                {
                    "name": "B4",
                    "midi": 71,
                    "time": 164.5247579999998,
                    "velocity": 0.5511811023622047,
                    "duration": 0.13574650000001043
                },
                {
                    "name": "D5",
                    "midi": 74,
                    "time": 164.5247579999998,
                    "velocity": 0.6220472440944882,
                    "duration": 0.13574650000001043
                },
                {
                    "name": "E4",
                    "midi": 64,
                    "time": 165.3392369999998,
                    "velocity": 0.29133858267716534,
                    "duration": 0.13574650000001043
                },
                {
                    "name": "C4",
                    "midi": 60,
                    "time": 165.3392369999998,
                    "velocity": 0.29133858267716534,
                    "duration": 0.13574650000001043
                },
                {
                    "name": "G3",
                    "midi": 55,
                    "time": 165.3392369999998,
                    "velocity": 0.29133858267716534,
                    "duration": 0.13574650000001043
                },
                {
                    "name": "G3",
                    "midi": 55,
                    "time": 165.61072999999982,
                    "velocity": 0.29133858267716534,
                    "duration": 0.13574650000001043
                },
                {
                    "name": "B3",
                    "midi": 59,
                    "time": 165.61072999999982,
                    "velocity": 0.29133858267716534,
                    "duration": 0.13574650000001043
                },
                {
                    "name": "D4",
                    "midi": 62,
                    "time": 165.61072999999982,
                    "velocity": 0.29133858267716534,
                    "duration": 0.13574650000001043
                },
                {
                    "name": "E4",
                    "midi": 64,
                    "time": 165.88222299999984,
                    "velocity": 0.2755905511811024,
                    "duration": 0.13574650000001043
                },
                {
                    "name": "C4",
                    "midi": 60,
                    "time": 165.88222299999984,
                    "velocity": 0.2755905511811024,
                    "duration": 0.13574650000001043
                },
                {
                    "name": "G3",
                    "midi": 55,
                    "time": 165.88222299999984,
                    "velocity": 0.2755905511811024,
                    "duration": 0.13574650000001043
                },
                {
                    "name": "F4",
                    "midi": 65,
                    "time": 166.42520899999985,
                    "velocity": 0.29133858267716534,
                    "duration": 0.13574650000001043
                },
                {
                    "name": "C4",
                    "midi": 60,
                    "time": 166.42520899999985,
                    "velocity": 0.29133858267716534,
                    "duration": 0.13574650000001043
                },
                {
                    "name": "A3",
                    "midi": 57,
                    "time": 166.42520899999985,
                    "velocity": 0.29133858267716534,
                    "duration": 0.13574650000001043
                },
                {
                    "name": "C4",
                    "midi": 60,
                    "time": 166.69670199999987,
                    "velocity": 0.29133858267716534,
                    "duration": 0.13574650000001043
                },
                {
                    "name": "E4",
                    "midi": 64,
                    "time": 166.69670199999987,
                    "velocity": 0.29133858267716534,
                    "duration": 0.13574650000001043
                },
                {
                    "name": "G3",
                    "midi": 55,
                    "time": 166.69670199999987,
                    "velocity": 0.29133858267716534,
                    "duration": 0.13574650000001043
                },
                {
                    "name": "C4",
                    "midi": 60,
                    "time": 166.9681949999999,
                    "velocity": 0.2755905511811024,
                    "duration": 0.13574650000001043
                },
                {
                    "name": "A3",
                    "midi": 57,
                    "time": 166.9681949999999,
                    "velocity": 0.2755905511811024,
                    "duration": 0.13574650000001043
                },
                {
                    "name": "D4",
                    "midi": 62,
                    "time": 166.9681949999999,
                    "velocity": 0.2755905511811024,
                    "duration": 0.13574650000001043
                },
                {
                    "name": "G3",
                    "midi": 55,
                    "time": 167.5111809999999,
                    "velocity": 0.29133858267716534,
                    "duration": 0.13574650000001043
                },
                {
                    "name": "C4",
                    "midi": 60,
                    "time": 167.5111809999999,
                    "velocity": 0.29133858267716534,
                    "duration": 0.13574650000001043
                },
                {
                    "name": "E4",
                    "midi": 64,
                    "time": 167.5111809999999,
                    "velocity": 0.29133858267716534,
                    "duration": 0.13574650000001043
                },
                {
                    "name": "D4",
                    "midi": 62,
                    "time": 167.78267399999993,
                    "velocity": 0.29133858267716534,
                    "duration": 0.13574650000001043
                },
                {
                    "name": "B3",
                    "midi": 59,
                    "time": 167.78267399999993,
                    "velocity": 0.29133858267716534,
                    "duration": 0.13574650000001043
                },
                {
                    "name": "F3",
                    "midi": 53,
                    "time": 167.78267399999993,
                    "velocity": 0.29133858267716534,
                    "duration": 0.13574650000001043
                },
                {
                    "name": "E3",
                    "midi": 52,
                    "time": 168.05416699999995,
                    "velocity": 0.2755905511811024,
                    "duration": 0.13574650000001043
                },
                {
                    "name": "C4",
                    "midi": 60,
                    "time": 168.05416699999995,
                    "velocity": 0.2755905511811024,
                    "duration": 0.13574650000001043
                },
                {
                    "name": "B3",
                    "midi": 59,
                    "time": 168.32565999999997,
                    "velocity": 0.29133858267716534,
                    "duration": 0.13574650000001043
                },
                {
                    "name": "D3",
                    "midi": 50,
                    "time": 168.32565999999997,
                    "velocity": 0.29133858267716534,
                    "duration": 0.13574650000001043
                },
                {
                    "name": "D4",
                    "midi": 62,
                    "time": 168.32565999999997,
                    "velocity": 0.29133858267716534,
                    "duration": 0.13574650000001043
                },
                {
                    "name": "G3",
                    "midi": 55,
                    "time": 168.597153,
                    "velocity": 0.29133858267716534,
                    "duration": 0.13574650000001043
                },
                {
                    "name": "C4",
                    "midi": 60,
                    "time": 169.140139,
                    "velocity": 0.29133858267716534,
                    "duration": 0.13574650000001043
                },
                {
                    "name": "A3",
                    "midi": 57,
                    "time": 169.140139,
                    "velocity": 0.29133858267716534,
                    "duration": 0.13574650000001043
                },
                {
                    "name": "C3",
                    "midi": 48,
                    "time": 169.140139,
                    "velocity": 0.29133858267716534,
                    "duration": 0.13574650000001043
                },
                {
                    "name": "G4",
                    "midi": 67,
                    "time": 169.68312500000002,
                    "velocity": 0.29133858267716534,
                    "duration": 0.13574650000001043
                },
                {
                    "name": "C4",
                    "midi": 60,
                    "time": 169.68312500000002,
                    "velocity": 0.29133858267716534,
                    "duration": 0.13574650000001043
                },
                {
                    "name": "C5",
                    "midi": 72,
                    "time": 169.68312500000002,
                    "velocity": 0.29133858267716534,
                    "duration": 0.13574650000001043
                },
                {
                    "name": "B4",
                    "midi": 71,
                    "time": 169.68312500000002,
                    "velocity": 0.29133858267716534,
                    "duration": 0.13574650000001043
                },
                {
                    "name": "C6",
                    "midi": 84,
                    "time": 170.22611100000003,
                    "velocity": 0.29133858267716534,
                    "duration": 0.13574650000001043
                },
                {
                    "name": "A5",
                    "midi": 81,
                    "time": 170.22611100000003,
                    "velocity": 0.29133858267716534,
                    "duration": 0.13574650000001043
                },
                {
                    "name": "F5",
                    "midi": 77,
                    "time": 170.22611100000003,
                    "velocity": 0.29133858267716534,
                    "duration": 0.13574650000001043
                },
                {
                    "name": "C5",
                    "midi": 72,
                    "time": 170.22611100000003,
                    "velocity": 0.29133858267716534,
                    "duration": 0.13574650000001043
                },
                {
                    "name": "E5",
                    "midi": 76,
                    "time": 170.76909700000004,
                    "velocity": 0.28346456692913385,
                    "duration": 0.13574650000001043
                },
                {
                    "name": "C6",
                    "midi": 84,
                    "time": 170.76909700000004,
                    "velocity": 0.28346456692913385,
                    "duration": 0.13574650000001043
                },
                {
                    "name": "G5",
                    "midi": 79,
                    "time": 170.76909700000004,
                    "velocity": 0.28346456692913385,
                    "duration": 0.13574650000001043
                },
                {
                    "name": "B5",
                    "midi": 83,
                    "time": 171.04059000000007,
                    "velocity": 0.29133858267716534,
                    "duration": 0.13574650000001043
                },
                {
                    "name": "G5",
                    "midi": 79,
                    "time": 171.04059000000007,
                    "velocity": 0.29133858267716534,
                    "duration": 0.13574650000001043
                },
                {
                    "name": "D5",
                    "midi": 74,
                    "time": 171.04059000000007,
                    "velocity": 0.29133858267716534,
                    "duration": 0.13574650000001043
                },
                {
                    "name": "E5",
                    "midi": 76,
                    "time": 171.3120830000001,
                    "velocity": 0.2755905511811024,
                    "duration": 0.13574650000001043
                },
                {
                    "name": "G5",
                    "midi": 79,
                    "time": 171.3120830000001,
                    "velocity": 0.2755905511811024,
                    "duration": 0.13574650000001043
                },
                {
                    "name": "C6",
                    "midi": 84,
                    "time": 171.3120830000001,
                    "velocity": 0.2755905511811024,
                    "duration": 0.13574650000001043
                },
                {
                    "name": "A5",
                    "midi": 81,
                    "time": 171.8550690000001,
                    "velocity": 0.2755905511811024,
                    "duration": 0.13574650000001043
                },
                {
                    "name": "C6",
                    "midi": 84,
                    "time": 171.8550690000001,
                    "velocity": 0.2755905511811024,
                    "duration": 0.13574650000001043
                },
                {
                    "name": "E6",
                    "midi": 88,
                    "time": 171.8550690000001,
                    "velocity": 0.2755905511811024,
                    "duration": 0.13574650000001043
                },
                {
                    "name": "D6",
                    "midi": 86,
                    "time": 172.12656200000012,
                    "velocity": 0.29133858267716534,
                    "duration": 0.13574650000001043
                },
                {
                    "name": "A5",
                    "midi": 81,
                    "time": 172.12656200000012,
                    "velocity": 0.29133858267716534,
                    "duration": 0.13574650000001043
                },
                {
                    "name": "F5",
                    "midi": 77,
                    "time": 172.12656200000012,
                    "velocity": 0.29133858267716534,
                    "duration": 0.13574650000001043
                },
                {
                    "name": "E5",
                    "midi": 76,
                    "time": 172.39805500000014,
                    "velocity": 0.2755905511811024,
                    "duration": 0.13574650000001043
                },
                {
                    "name": "C6",
                    "midi": 84,
                    "time": 172.39805500000014,
                    "velocity": 0.2755905511811024,
                    "duration": 0.13574650000001043
                },
                {
                    "name": "A5",
                    "midi": 81,
                    "time": 172.39805500000014,
                    "velocity": 0.2755905511811024,
                    "duration": 0.13574650000001043
                },
                {
                    "name": "B5",
                    "midi": 83,
                    "time": 172.94104100000015,
                    "velocity": 0.2755905511811024,
                    "duration": 0.13574650000001043
                },
                {
                    "name": "G5",
                    "midi": 79,
                    "time": 172.94104100000015,
                    "velocity": 0.2755905511811024,
                    "duration": 0.13574650000001043
                },
                {
                    "name": "E5",
                    "midi": 76,
                    "time": 172.94104100000015,
                    "velocity": 0.2755905511811024,
                    "duration": 0.13574650000001043
                },
                {
                    "name": "A5",
                    "midi": 81,
                    "time": 173.21253400000018,
                    "velocity": 0.29133858267716534,
                    "duration": 0.13574650000001043
                },
                {
                    "name": "E5",
                    "midi": 76,
                    "time": 173.21253400000018,
                    "velocity": 0.29133858267716534,
                    "duration": 0.13574650000001043
                },
                {
                    "name": "C5",
                    "midi": 72,
                    "time": 173.21253400000018,
                    "velocity": 0.29133858267716534,
                    "duration": 0.13574650000001043
                },
                {
                    "name": "G5",
                    "midi": 79,
                    "time": 173.4840270000002,
                    "velocity": 0.2755905511811024,
                    "duration": 0.13574650000001043
                },
                {
                    "name": "E5",
                    "midi": 76,
                    "time": 173.4840270000002,
                    "velocity": 0.2755905511811024,
                    "duration": 0.13574650000001043
                },
                {
                    "name": "B4",
                    "midi": 71,
                    "time": 173.4840270000002,
                    "velocity": 0.2755905511811024,
                    "duration": 0.13574650000001043
                },
                {
                    "name": "F#4",
                    "midi": 66,
                    "time": 173.75552000000022,
                    "velocity": 0.30708661417322836,
                    "duration": 0.13574650000001043
                },
                {
                    "name": "D#5",
                    "midi": 75,
                    "time": 173.75552000000022,
                    "velocity": 0.30708661417322836,
                    "duration": 0.13574650000001043
                },
                {
                    "name": "F#5",
                    "midi": 78,
                    "time": 173.75552000000022,
                    "velocity": 0.30708661417322836,
                    "duration": 0.13574650000001043
                },
                {
                    "name": "B4",
                    "midi": 71,
                    "time": 174.02701300000024,
                    "velocity": 0.29133858267716534,
                    "duration": 0.13574650000001043
                },
                {
                    "name": "E5",
                    "midi": 76,
                    "time": 174.56999900000025,
                    "velocity": 0.29133858267716534,
                    "duration": 0.13574650000001043
                },
                {
                    "name": "E5",
                    "midi": 76,
                    "time": 175.11298500000026,
                    "velocity": 0.2204724409448819,
                    "duration": 0.13574650000001043
                },
                {
                    "name": "D#5",
                    "midi": 75,
                    "time": 175.11298500000026,
                    "velocity": 0.2204724409448819,
                    "duration": 0.13574650000001043
                },
                {
                    "name": "E4",
                    "midi": 64,
                    "time": 175.11298500000026,
                    "velocity": 0.2204724409448819,
                    "duration": 0.13574650000001043
                },
                {
                    "name": "E4",
                    "midi": 64,
                    "time": 175.65597100000028,
                    "velocity": 0.2125984251968504,
                    "duration": 0.13574650000001043
                },
                {
                    "name": "D4",
                    "midi": 62,
                    "time": 175.65597100000028,
                    "velocity": 0.2125984251968504,
                    "duration": 0.13574650000001043
                },
                {
                    "name": "E3",
                    "midi": 52,
                    "time": 175.65597100000028,
                    "velocity": 0.2125984251968504,
                    "duration": 0.13574650000001043
                },
                {
                    "name": "G3",
                    "midi": 55,
                    "time": 176.1989570000003,
                    "velocity": 0.2204724409448819,
                    "duration": 0.13574650000001043
                },
                {
                    "name": "C4",
                    "midi": 60,
                    "time": 176.1989570000003,
                    "velocity": 0.2204724409448819,
                    "duration": 0.13574650000001043
                },
                {
                    "name": "E4",
                    "midi": 64,
                    "time": 176.1989570000003,
                    "velocity": 0.2204724409448819,
                    "duration": 0.13574650000001043
                },
                {
                    "name": "D4",
                    "midi": 62,
                    "time": 176.4704500000003,
                    "velocity": 0.2283464566929134,
                    "duration": 0.13574650000001043
                },
                {
                    "name": "B3",
                    "midi": 59,
                    "time": 176.4704500000003,
                    "velocity": 0.2283464566929134,
                    "duration": 0.13574650000001043
                },
                {
                    "name": "G3",
                    "midi": 55,
                    "time": 176.4704500000003,
                    "velocity": 0.2283464566929134,
                    "duration": 0.13574650000001043
                },
                {
                    "name": "G3",
                    "midi": 55,
                    "time": 176.74194300000033,
                    "velocity": 0.2125984251968504,
                    "duration": 0.13574650000001043
                },
                {
                    "name": "E4",
                    "midi": 64,
                    "time": 176.74194300000033,
                    "velocity": 0.2125984251968504,
                    "duration": 0.13574650000001043
                },
                {
                    "name": "C4",
                    "midi": 60,
                    "time": 176.74194300000033,
                    "velocity": 0.2125984251968504,
                    "duration": 0.13574650000001043
                },
                {
                    "name": "F4",
                    "midi": 65,
                    "time": 177.28492900000035,
                    "velocity": 0.2755905511811024,
                    "duration": 0.13574650000001043
                },
                {
                    "name": "C4",
                    "midi": 60,
                    "time": 177.28492900000035,
                    "velocity": 0.2755905511811024,
                    "duration": 0.13574650000001043
                },
                {
                    "name": "A3",
                    "midi": 57,
                    "time": 177.28492900000035,
                    "velocity": 0.2755905511811024,
                    "duration": 0.13574650000001043
                },
                {
                    "name": "E4",
                    "midi": 64,
                    "time": 177.55642200000037,
                    "velocity": 0.2755905511811024,
                    "duration": 0.13574650000001043
                },
                {
                    "name": "G3",
                    "midi": 55,
                    "time": 177.55642200000037,
                    "velocity": 0.2755905511811024,
                    "duration": 0.13574650000001043
                },
                {
                    "name": "C4",
                    "midi": 60,
                    "time": 177.55642200000037,
                    "velocity": 0.2755905511811024,
                    "duration": 0.13574650000001043
                },
                {
                    "name": "D4",
                    "midi": 62,
                    "time": 177.8279150000004,
                    "velocity": 0.25984251968503935,
                    "duration": 0.13574650000001043
                },
                {
                    "name": "A3",
                    "midi": 57,
                    "time": 177.8279150000004,
                    "velocity": 0.25984251968503935,
                    "duration": 0.13574650000001043
                },
                {
                    "name": "C4",
                    "midi": 60,
                    "time": 177.8279150000004,
                    "velocity": 0.25984251968503935,
                    "duration": 0.13574650000001043
                },
                {
                    "name": "E4",
                    "midi": 64,
                    "time": 178.3709010000004,
                    "velocity": 0.25984251968503935,
                    "duration": 0.13574650000001043
                },
                {
                    "name": "C4",
                    "midi": 60,
                    "time": 178.3709010000004,
                    "velocity": 0.25984251968503935,
                    "duration": 0.13574650000001043
                },
                {
                    "name": "G3",
                    "midi": 55,
                    "time": 178.3709010000004,
                    "velocity": 0.25984251968503935,
                    "duration": 0.13574650000001043
                },
                {
                    "name": "F3",
                    "midi": 53,
                    "time": 178.64239400000042,
                    "velocity": 0.25984251968503935,
                    "duration": 0.13574650000001043
                },
                {
                    "name": "D4",
                    "midi": 62,
                    "time": 178.64239400000042,
                    "velocity": 0.25984251968503935,
                    "duration": 0.13574650000001043
                },
                {
                    "name": "B3",
                    "midi": 59,
                    "time": 178.64239400000042,
                    "velocity": 0.25984251968503935,
                    "duration": 0.13574650000001043
                },
                {
                    "name": "E3",
                    "midi": 52,
                    "time": 178.91388700000044,
                    "velocity": 0.2440944881889764,
                    "duration": 0.13574650000001043
                },
                {
                    "name": "C4",
                    "midi": 60,
                    "time": 178.91388700000044,
                    "velocity": 0.2440944881889764,
                    "duration": 0.13574650000001043
                },
                {
                    "name": "D3",
                    "midi": 50,
                    "time": 179.18538000000046,
                    "velocity": 0.2440944881889764,
                    "duration": 0.13574650000001043
                },
                {
                    "name": "D4",
                    "midi": 62,
                    "time": 179.18538000000046,
                    "velocity": 0.2440944881889764,
                    "duration": 0.13574650000001043
                },
                {
                    "name": "B3",
                    "midi": 59,
                    "time": 179.18538000000046,
                    "velocity": 0.2440944881889764,
                    "duration": 0.13574650000001043
                },
                {
                    "name": "G3",
                    "midi": 55,
                    "time": 179.45687300000048,
                    "velocity": 0.23622047244094488,
                    "duration": 0.13574650000001043
                },
                {
                    "name": "C4",
                    "midi": 60,
                    "time": 179.9998590000005,
                    "velocity": 0.23622047244094488,
                    "duration": 0.13574650000001043
                },
                {
                    "name": "C3",
                    "midi": 48,
                    "time": 179.9998590000005,
                    "velocity": 0.23622047244094488,
                    "duration": 0.13574650000001043
                },
                {
                    "name": "C5",
                    "midi": 72,
                    "time": 180.5428450000005,
                    "velocity": 0.2047244094488189,
                    "duration": 0.13574650000001043
                },
                {
                    "name": "A#4",
                    "midi": 70,
                    "time": 180.5428450000005,
                    "velocity": 0.2047244094488189,
                    "duration": 0.13574650000001043
                },
                {
                    "name": "C4",
                    "midi": 60,
                    "time": 180.5428450000005,
                    "velocity": 0.2047244094488189,
                    "duration": 0.13574650000001043
                },
                {
                    "name": "C6",
                    "midi": 84,
                    "time": 181.08583100000052,
                    "velocity": 0.1889763779527559,
                    "duration": 0.13574650000001043
                },
                {
                    "name": "G#5",
                    "midi": 80,
                    "time": 181.08583100000052,
                    "velocity": 0.1889763779527559,
                    "duration": 0.13574650000001043
                },
                {
                    "name": "C5",
                    "midi": 72,
                    "time": 181.08583100000052,
                    "velocity": 0.1889763779527559,
                    "duration": 0.13574650000001043
                },
                {
                    "name": "C6",
                    "midi": 84,
                    "time": 181.62881700000054,
                    "velocity": 0.2283464566929134,
                    "duration": 0.27149299999999243
                },
                {
                    "name": "G5",
                    "midi": 79,
                    "time": 181.62881700000054,
                    "velocity": 0.2283464566929134,
                    "duration": 0.8144789999999773
                },
                {
                    "name": "D#5",
                    "midi": 75,
                    "time": 181.62881700000054,
                    "velocity": 0.2283464566929134,
                    "duration": 0.27149299999999243
                },
                {
                    "name": "B5",
                    "midi": 83,
                    "time": 181.90031000000053,
                    "velocity": 0.2283464566929134,
                    "duration": 0.27149299999999243
                },
                {
                    "name": "D5",
                    "midi": 74,
                    "time": 181.90031000000053,
                    "velocity": 0.2283464566929134,
                    "duration": 0.27149299999999243
                },
                {
                    "name": "D#5",
                    "midi": 75,
                    "time": 182.17180300000052,
                    "velocity": 0.2204724409448819,
                    "duration": 0.27149299999999243
                },
                {
                    "name": "C6",
                    "midi": 84,
                    "time": 182.17180300000052,
                    "velocity": 0.2204724409448819,
                    "duration": 0.27149299999999243
                },
                {
                    "name": "C5",
                    "midi": 72,
                    "time": 182.7147890000005,
                    "velocity": 0.2047244094488189,
                    "duration": 0.8144789999999773
                },
                {
                    "name": "G5",
                    "midi": 79,
                    "time": 182.7147890000005,
                    "velocity": 0.2047244094488189,
                    "duration": 0.27149299999999243
                },
                {
                    "name": "D#5",
                    "midi": 75,
                    "time": 182.7147890000005,
                    "velocity": 0.2047244094488189,
                    "duration": 0.27149299999999243
                },
                {
                    "name": "D5",
                    "midi": 74,
                    "time": 182.9862820000005,
                    "velocity": 0.2047244094488189,
                    "duration": 0.27149299999999243
                },
                {
                    "name": "F5",
                    "midi": 77,
                    "time": 182.9862820000005,
                    "velocity": 0.2047244094488189,
                    "duration": 0.27149299999999243
                },
                {
                    "name": "D#5",
                    "midi": 75,
                    "time": 183.2577750000005,
                    "velocity": 0.1968503937007874,
                    "duration": 0.27149299999999243
                },
                {
                    "name": "G5",
                    "midi": 79,
                    "time": 183.2577750000005,
                    "velocity": 0.1968503937007874,
                    "duration": 0.27149299999999243
                },
                {
                    "name": "D#5",
                    "midi": 75,
                    "time": 183.80076100000048,
                    "velocity": 0.2047244094488189,
                    "duration": 0.27149299999999243
                },
                {
                    "name": "G4",
                    "midi": 67,
                    "time": 183.80076100000048,
                    "velocity": 0.2047244094488189,
                    "duration": 0.8144789999999773
                },
                {
                    "name": "C5",
                    "midi": 72,
                    "time": 183.80076100000048,
                    "velocity": 0.2047244094488189,
                    "duration": 0.27149299999999243
                },
                {
                    "name": "B4",
                    "midi": 71,
                    "time": 184.07225400000047,
                    "velocity": 0.2047244094488189,
                    "duration": 0.27149299999999243
                },
                {
                    "name": "D5",
                    "midi": 74,
                    "time": 184.07225400000047,
                    "velocity": 0.2047244094488189,
                    "duration": 0.27149299999999243
                },
                {
                    "name": "C5",
                    "midi": 72,
                    "time": 184.34374700000046,
                    "velocity": 0.2047244094488189,
                    "duration": 0.27149299999999243
                },
                {
                    "name": "D#5",
                    "midi": 75,
                    "time": 184.34374700000046,
                    "velocity": 0.2047244094488189,
                    "duration": 0.27149299999999243
                },
                {
                    "name": "C5",
                    "midi": 72,
                    "time": 184.61524000000045,
                    "velocity": 0.2283464566929134,
                    "duration": 0.5429860000000133
                },
                {
                    "name": "G#4",
                    "midi": 68,
                    "time": 184.61524000000045,
                    "velocity": 0.2283464566929134,
                    "duration": 0.5429860000000133
                },
                {
                    "name": "G#4",
                    "midi": 68,
                    "time": 185.15822600000047,
                    "velocity": 0.2125984251968504,
                    "duration": 0.5429860000000133
                },
                {
                    "name": "F4",
                    "midi": 65,
                    "time": 185.15822600000047,
                    "velocity": 0.2125984251968504,
                    "duration": 0.5429860000000133
                },
                {
                    "name": "C5",
                    "midi": 72,
                    "time": 185.15822600000047,
                    "velocity": 0.2125984251968504,
                    "duration": 0.5429860000000133
                },
                {
                    "name": "C5",
                    "midi": 72,
                    "time": 185.70121200000048,
                    "velocity": 0.2047244094488189,
                    "duration": 0.5429860000000133
                },
                {
                    "name": "G#4",
                    "midi": 68,
                    "time": 185.70121200000048,
                    "velocity": 0.2047244094488189,
                    "duration": 0.5429860000000133
                },
                {
                    "name": "C4",
                    "midi": 60,
                    "time": 185.70121200000048,
                    "velocity": 0.2047244094488189,
                    "duration": 0.5429860000000133
                },
                {
                    "name": "F4",
                    "midi": 65,
                    "time": 186.2441980000005,
                    "velocity": 0.1968503937007874,
                    "duration": 0.5429860000000133
                },
                {
                    "name": "C#5",
                    "midi": 73,
                    "time": 186.2441980000005,
                    "velocity": 0.1968503937007874,
                    "duration": 0.5429860000000133
                },
                {
                    "name": "G#5",
                    "midi": 80,
                    "time": 187.0586770000005,
                    "velocity": 0.2283464566929134,
                    "duration": 0.8144789999999773
                },
                {
                    "name": "D6",
                    "midi": 86,
                    "time": 187.0586770000005,
                    "velocity": 0.2283464566929134,
                    "duration": 0.27149299999999243
                },
                {
                    "name": "F5",
                    "midi": 77,
                    "time": 187.0586770000005,
                    "velocity": 0.2283464566929134,
                    "duration": 0.27149299999999243
                },
                {
                    "name": "C6",
                    "midi": 84,
                    "time": 187.3301700000005,
                    "velocity": 0.2283464566929134,
                    "duration": 0.27149299999999243
                },
                {
                    "name": "D#5",
                    "midi": 75,
                    "time": 187.3301700000005,
                    "velocity": 0.2283464566929134,
                    "duration": 0.27149299999999243
                },
                {
                    "name": "F5",
                    "midi": 77,
                    "time": 187.60166300000049,
                    "velocity": 0.2125984251968504,
                    "duration": 0.27149299999999243
                },
                {
                    "name": "D6",
                    "midi": 86,
                    "time": 187.60166300000049,
                    "velocity": 0.2125984251968504,
                    "duration": 0.27149299999999243
                },
                {
                    "name": "A#5",
                    "midi": 82,
                    "time": 188.14464900000047,
                    "velocity": 0.2047244094488189,
                    "duration": 0.27149299999999243
                },
                {
                    "name": "G5",
                    "midi": 79,
                    "time": 188.14464900000047,
                    "velocity": 0.2047244094488189,
                    "duration": 0.27149299999999243
                },
                {
                    "name": "D5",
                    "midi": 74,
                    "time": 188.14464900000047,
                    "velocity": 0.2047244094488189,
                    "duration": 0.8144789999999773
                },
                {
                    "name": "F5",
                    "midi": 77,
                    "time": 188.41614200000046,
                    "velocity": 0.2047244094488189,
                    "duration": 0.27149299999999243
                },
                {
                    "name": "G#5",
                    "midi": 80,
                    "time": 188.41614200000046,
                    "velocity": 0.2047244094488189,
                    "duration": 0.27149299999999243
                },
                {
                    "name": "A#5",
                    "midi": 82,
                    "time": 188.68763500000045,
                    "velocity": 0.2047244094488189,
                    "duration": 0.27149299999999243
                },
                {
                    "name": "G5",
                    "midi": 79,
                    "time": 188.68763500000045,
                    "velocity": 0.2047244094488189,
                    "duration": 0.27149299999999243
                },
                {
                    "name": "G5",
                    "midi": 79,
                    "time": 189.23062100000044,
                    "velocity": 0.2047244094488189,
                    "duration": 0.27149299999999243
                },
                {
                    "name": "A#4",
                    "midi": 70,
                    "time": 189.23062100000044,
                    "velocity": 0.2047244094488189,
                    "duration": 0.8144789999999773
                },
                {
                    "name": "D#5",
                    "midi": 75,
                    "time": 189.23062100000044,
                    "velocity": 0.2047244094488189,
                    "duration": 0.27149299999999243
                },
                {
                    "name": "F5",
                    "midi": 77,
                    "time": 189.50211400000043,
                    "velocity": 0.2047244094488189,
                    "duration": 0.27149299999999243
                },
                {
                    "name": "D5",
                    "midi": 74,
                    "time": 189.50211400000043,
                    "velocity": 0.2047244094488189,
                    "duration": 0.27149299999999243
                },
                {
                    "name": "D#5",
                    "midi": 75,
                    "time": 189.77360700000042,
                    "velocity": 0.2047244094488189,
                    "duration": 0.27149299999999243
                },
                {
                    "name": "G5",
                    "midi": 79,
                    "time": 189.77360700000042,
                    "velocity": 0.2047244094488189,
                    "duration": 0.27149299999999243
                },
                {
                    "name": "D#5",
                    "midi": 75,
                    "time": 190.04510000000042,
                    "velocity": 0.2283464566929134,
                    "duration": 0.5429860000000133
                },
                {
                    "name": "C5",
                    "midi": 72,
                    "time": 190.04510000000042,
                    "velocity": 0.2283464566929134,
                    "duration": 0.5429860000000133
                },
                {
                    "name": "G#4",
                    "midi": 68,
                    "time": 190.58808600000043,
                    "velocity": 0.2125984251968504,
                    "duration": 0.5429860000000133
                },
                {
                    "name": "D#5",
                    "midi": 75,
                    "time": 190.58808600000043,
                    "velocity": 0.2125984251968504,
                    "duration": 0.5429860000000133
                },
                {
                    "name": "C5",
                    "midi": 72,
                    "time": 190.58808600000043,
                    "velocity": 0.2125984251968504,
                    "duration": 0.5429860000000133
                },
                {
                    "name": "C5",
                    "midi": 72,
                    "time": 191.13107200000044,
                    "velocity": 0.2047244094488189,
                    "duration": 0.5429860000000133
                },
                {
                    "name": "D#5",
                    "midi": 75,
                    "time": 191.13107200000044,
                    "velocity": 0.2047244094488189,
                    "duration": 0.5429860000000133
                },
                {
                    "name": "D#4",
                    "midi": 63,
                    "time": 191.13107200000044,
                    "velocity": 0.2047244094488189,
                    "duration": 0.5429860000000133
                },
                {
                    "name": "G#4",
                    "midi": 68,
                    "time": 191.67405800000046,
                    "velocity": 0.1968503937007874,
                    "duration": 0.5429860000000133
                },
                {
                    "name": "F5",
                    "midi": 77,
                    "time": 191.67405800000046,
                    "velocity": 0.1968503937007874,
                    "duration": 0.5429860000000133
                },
                {
                    "name": "D6",
                    "midi": 86,
                    "time": 192.48853700000046,
                    "velocity": 0.2283464566929134,
                    "duration": 0.8144789999999773
                },
                {
                    "name": "G6",
                    "midi": 91,
                    "time": 192.48853700000046,
                    "velocity": 0.2283464566929134,
                    "duration": 0.27149299999999243
                },
                {
                    "name": "A#5",
                    "midi": 82,
                    "time": 192.48853700000046,
                    "velocity": 0.2283464566929134,
                    "duration": 0.27149299999999243
                },
                {
                    "name": "F6",
                    "midi": 89,
                    "time": 192.76003000000046,
                    "velocity": 0.2283464566929134,
                    "duration": 0.27149299999999243
                },
                {
                    "name": "G#5",
                    "midi": 80,
                    "time": 192.76003000000046,
                    "velocity": 0.2283464566929134,
                    "duration": 0.27149299999999243
                },
                {
                    "name": "A#5",
                    "midi": 82,
                    "time": 193.03152300000045,
                    "velocity": 0.2125984251968504,
                    "duration": 0.27149299999999243
                },
                {
                    "name": "G6",
                    "midi": 91,
                    "time": 193.03152300000045,
                    "velocity": 0.2125984251968504,
                    "duration": 0.27149299999999243
                },
                {
                    "name": "C6",
                    "midi": 84,
                    "time": 193.57450900000043,
                    "velocity": 0.2047244094488189,
                    "duration": 0.27149299999999243
                },
                {
                    "name": "D#6",
                    "midi": 87,
                    "time": 193.57450900000043,
                    "velocity": 0.2047244094488189,
                    "duration": 0.27149299999999243
                },
                {
                    "name": "G5",
                    "midi": 79,
                    "time": 193.57450900000043,
                    "velocity": 0.2047244094488189,
                    "duration": 0.8144789999999773
                },
                {
                    "name": "A#5",
                    "midi": 82,
                    "time": 193.84600200000042,
                    "velocity": 0.2047244094488189,
                    "duration": 0.27149299999999243
                },
                {
                    "name": "D6",
                    "midi": 86,
                    "time": 193.84600200000042,
                    "velocity": 0.2047244094488189,
                    "duration": 0.27149299999999243
                },
                {
                    "name": "D#6",
                    "midi": 87,
                    "time": 194.11749500000042,
                    "velocity": 0.2047244094488189,
                    "duration": 0.27149299999999243
                },
                {
                    "name": "C6",
                    "midi": 84,
                    "time": 194.11749500000042,
                    "velocity": 0.2047244094488189,
                    "duration": 0.27149299999999243
                },
                {
                    "name": "C6",
                    "midi": 84,
                    "time": 194.6604810000004,
                    "velocity": 0.2047244094488189,
                    "duration": 0.27149299999999243
                },
                {
                    "name": "D#5",
                    "midi": 75,
                    "time": 194.6604810000004,
                    "velocity": 0.2047244094488189,
                    "duration": 0.8144789999999773
                },
                {
                    "name": "G#5",
                    "midi": 80,
                    "time": 194.6604810000004,
                    "velocity": 0.2047244094488189,
                    "duration": 0.27149299999999243
                },
                {
                    "name": "A#5",
                    "midi": 82,
                    "time": 194.9319740000004,
                    "velocity": 0.2047244094488189,
                    "duration": 0.27149299999999243
                },
                {
                    "name": "G5",
                    "midi": 79,
                    "time": 194.9319740000004,
                    "velocity": 0.2047244094488189,
                    "duration": 0.27149299999999243
                },
                {
                    "name": "G#5",
                    "midi": 80,
                    "time": 195.2034670000004,
                    "velocity": 0.2047244094488189,
                    "duration": 0.27149299999999243
                },
                {
                    "name": "C6",
                    "midi": 84,
                    "time": 195.2034670000004,
                    "velocity": 0.2047244094488189,
                    "duration": 0.27149299999999243
                },
                {
                    "name": "G#5",
                    "midi": 80,
                    "time": 195.47496000000038,
                    "velocity": 0.23622047244094488,
                    "duration": 0.5429860000000133
                },
                {
                    "name": "F5",
                    "midi": 77,
                    "time": 195.47496000000038,
                    "velocity": 0.23622047244094488,
                    "duration": 0.5429860000000133
                },
                {
                    "name": "G#5",
                    "midi": 80,
                    "time": 196.0179460000004,
                    "velocity": 0.23622047244094488,
                    "duration": 0.5429860000000133
                },
                {
                    "name": "D5",
                    "midi": 74,
                    "time": 196.0179460000004,
                    "velocity": 0.23622047244094488,
                    "duration": 0.5429860000000133
                },
                {
                    "name": "F5",
                    "midi": 77,
                    "time": 196.0179460000004,
                    "velocity": 0.23622047244094488,
                    "duration": 0.5429860000000133
                },
                {
                    "name": "F5",
                    "midi": 77,
                    "time": 196.5609320000004,
                    "velocity": 0.23622047244094488,
                    "duration": 0.5429860000000133
                },
                {
                    "name": "G#5",
                    "midi": 80,
                    "time": 196.5609320000004,
                    "velocity": 0.23622047244094488,
                    "duration": 0.5429860000000133
                },
                {
                    "name": "G#4",
                    "midi": 68,
                    "time": 196.5609320000004,
                    "velocity": 0.23622047244094488,
                    "duration": 0.5429860000000133
                },
                {
                    "name": "D5",
                    "midi": 74,
                    "time": 197.10391800000042,
                    "velocity": 0.23622047244094488,
                    "duration": 0.5429860000000133
                },
                {
                    "name": "G#5",
                    "midi": 80,
                    "time": 197.10391800000042,
                    "velocity": 0.23622047244094488,
                    "duration": 0.5429860000000133
                },
                {
                    "name": "C5",
                    "midi": 72,
                    "time": 197.64690400000043,
                    "velocity": 0.2283464566929134,
                    "duration": 0.5429860000000133
                },
                {
                    "name": "D#5",
                    "midi": 75,
                    "time": 197.64690400000043,
                    "velocity": 0.2283464566929134,
                    "duration": 0.5429860000000133
                },
                {
                    "name": "F#5",
                    "midi": 78,
                    "time": 197.64690400000043,
                    "velocity": 0.2283464566929134,
                    "duration": 0.5429860000000133
                },
                {
                    "name": "A5",
                    "midi": 81,
                    "time": 197.64690400000043,
                    "velocity": 0.2283464566929134,
                    "duration": 0.5429860000000133
                },
                {
                    "name": "F#5",
                    "midi": 78,
                    "time": 198.18989000000045,
                    "velocity": 0.2204724409448819,
                    "duration": 0.5429860000000133
                },
                {
                    "name": "A5",
                    "midi": 81,
                    "time": 198.18989000000045,
                    "velocity": 0.2204724409448819,
                    "duration": 0.5429860000000133
                },
                {
                    "name": "C5",
                    "midi": 72,
                    "time": 198.18989000000045,
                    "velocity": 0.2204724409448819,
                    "duration": 0.5429860000000133
                },
                {
                    "name": "D#5",
                    "midi": 75,
                    "time": 198.18989000000045,
                    "velocity": 0.2204724409448819,
                    "duration": 0.5429860000000133
                },
                {
                    "name": "C5",
                    "midi": 72,
                    "time": 198.73287600000046,
                    "velocity": 0.23622047244094488,
                    "duration": 0.5429860000000133
                },
                {
                    "name": "D#5",
                    "midi": 75,
                    "time": 198.73287600000046,
                    "velocity": 0.23622047244094488,
                    "duration": 0.5429860000000133
                },
                {
                    "name": "F#5",
                    "midi": 78,
                    "time": 198.73287600000046,
                    "velocity": 0.23622047244094488,
                    "duration": 0.5429860000000133
                },
                {
                    "name": "A5",
                    "midi": 81,
                    "time": 198.73287600000046,
                    "velocity": 0.23622047244094488,
                    "duration": 0.5429860000000133
                },
                {
                    "name": "F#5",
                    "midi": 78,
                    "time": 199.27586200000047,
                    "velocity": 0.23622047244094488,
                    "duration": 0.5429860000000133
                },
                {
                    "name": "C5",
                    "midi": 72,
                    "time": 199.27586200000047,
                    "velocity": 0.23622047244094488,
                    "duration": 0.5429860000000133
                },
                {
                    "name": "D#5",
                    "midi": 75,
                    "time": 199.27586200000047,
                    "velocity": 0.23622047244094488,
                    "duration": 0.5429860000000133
                },
                {
                    "name": "A5",
                    "midi": 81,
                    "time": 199.27586200000047,
                    "velocity": 0.23622047244094488,
                    "duration": 0.5429860000000133
                },
                {
                    "name": "D#6",
                    "midi": 87,
                    "time": 200.3618340000005,
                    "velocity": 0.2440944881889764,
                    "duration": 0.13574650000001043
                },
                {
                    "name": "C6",
                    "midi": 84,
                    "time": 200.4975805000005,
                    "velocity": 0.23622047244094488,
                    "duration": 0.13574650000001043
                },
                {
                    "name": "A5",
                    "midi": 81,
                    "time": 200.63332700000052,
                    "velocity": 0.2677165354330709,
                    "duration": 0.13574650000001043
                },
                {
                    "name": "F#5",
                    "midi": 78,
                    "time": 200.76907350000053,
                    "velocity": 0.2677165354330709,
                    "duration": 0.13574650000001043
                },
                {
                    "name": "C5",
                    "midi": 72,
                    "time": 200.90482000000054,
                    "velocity": 0.29133858267716534,
                    "duration": 0.13574650000001043
                },
                {
                    "name": "A4",
                    "midi": 69,
                    "time": 201.04056650000055,
                    "velocity": 0.28346456692913385,
                    "duration": 0.13574650000001043
                },
                {
                    "name": "F#4",
                    "midi": 66,
                    "time": 201.17631300000056,
                    "velocity": 0.30708661417322836,
                    "duration": 0.13574650000001043
                },
                {
                    "name": "D#4",
                    "midi": 63,
                    "time": 201.31205950000057,
                    "velocity": 0.2992125984251969,
                    "duration": 0.13574650000001043
                },
                {
                    "name": "F7",
                    "midi": 101,
                    "time": 205.79169400000058,
                    "velocity": 0.3543307086614173,
                    "duration": 0.13574650000001043
                },
                {
                    "name": "D7",
                    "midi": 98,
                    "time": 205.92744050000059,
                    "velocity": 0.3228346456692913,
                    "duration": 0.13574650000001043
                },
                {
                    "name": "F6",
                    "midi": 89,
                    "time": 206.0631870000006,
                    "velocity": 0.2755905511811024,
                    "duration": 0.13574650000001043
                },
                {
                    "name": "C#6",
                    "midi": 85,
                    "time": 206.1989335000006,
                    "velocity": 0.25984251968503935,
                    "duration": 0.13574650000001043
                },
                {
                    "name": "D6",
                    "midi": 86,
                    "time": 206.33468000000062,
                    "velocity": 0.2755905511811024,
                    "duration": 0.13574650000001043
                },
                {
                    "name": "A#5",
                    "midi": 82,
                    "time": 206.47042650000063,
                    "velocity": 0.25984251968503935,
                    "duration": 0.13574650000001043
                },
                {
                    "name": "D5",
                    "midi": 74,
                    "time": 206.60617300000064,
                    "velocity": 0.2755905511811024,
                    "duration": 0.13574650000001043
                },
                {
                    "name": "A4",
                    "midi": 69,
                    "time": 206.74191950000065,
                    "velocity": 0.2755905511811024,
                    "duration": 0.13574650000001043
                },
                {
                    "name": "A#4",
                    "midi": 70,
                    "time": 206.87766600000066,
                    "velocity": 0.2755905511811024,
                    "duration": 0.13574650000001043
                },
                {
                    "name": "F4",
                    "midi": 65,
                    "time": 207.01341250000067,
                    "velocity": 0.25984251968503935,
                    "duration": 0.13574650000001043
                },
                {
                    "name": "D4",
                    "midi": 62,
                    "time": 207.14915900000068,
                    "velocity": 0.2755905511811024,
                    "duration": 0.13574650000001043
                },
                {
                    "name": "C4",
                    "midi": 60,
                    "time": 207.2849055000007,
                    "velocity": 0.25984251968503935,
                    "duration": 0.13574650000001043
                },
                {
                    "name": "F#7",
                    "midi": 102,
                    "time": 211.2215540000007,
                    "velocity": 0.3779527559055118,
                    "duration": 0.13574650000001043
                },
                {
                    "name": "D#7",
                    "midi": 99,
                    "time": 211.35730050000072,
                    "velocity": 0.2755905511811024,
                    "duration": 0.13574650000001043
                },
                {
                    "name": "F#6",
                    "midi": 90,
                    "time": 211.49304700000073,
                    "velocity": 0.2755905511811024,
                    "duration": 0.13574650000001043
                },
                {
                    "name": "D6",
                    "midi": 86,
                    "time": 211.62879350000074,
                    "velocity": 0.2440944881889764,
                    "duration": 0.13574650000001043
                },
                {
                    "name": "D#6",
                    "midi": 87,
                    "time": 211.76454000000075,
                    "velocity": 0.2755905511811024,
                    "duration": 0.13574650000001043
                },
                {
                    "name": "B5",
                    "midi": 83,
                    "time": 211.90028650000076,
                    "velocity": 0.25984251968503935,
                    "duration": 0.13574650000001043
                },
                {
                    "name": "D#5",
                    "midi": 75,
                    "time": 212.03603300000077,
                    "velocity": 0.2755905511811024,
                    "duration": 0.13574650000001043
                },
                {
                    "name": "A#4",
                    "midi": 70,
                    "time": 212.17177950000078,
                    "velocity": 0.2755905511811024,
                    "duration": 0.13574650000001043
                },
                {
                    "name": "B4",
                    "midi": 71,
                    "time": 212.3075260000008,
                    "velocity": 0.2755905511811024,
                    "duration": 0.13574650000001043
                },
                {
                    "name": "F#4",
                    "midi": 66,
                    "time": 212.4432725000008,
                    "velocity": 0.25984251968503935,
                    "duration": 0.13574650000001043
                },
                {
                    "name": "D#4",
                    "midi": 63,
                    "time": 212.5790190000008,
                    "velocity": 0.2755905511811024,
                    "duration": 0.13574650000001043
                },
                {
                    "name": "C#4",
                    "midi": 61,
                    "time": 212.71476550000082,
                    "velocity": 0.25984251968503935,
                    "duration": 0.13574650000001043
                },
                {
                    "name": "G#7",
                    "midi": 104,
                    "time": 216.65141400000084,
                    "velocity": 0.4094488188976378,
                    "duration": 0.13574650000001043
                },
                {
                    "name": "F7",
                    "midi": 101,
                    "time": 216.78716050000085,
                    "velocity": 0.2755905511811024,
                    "duration": 0.13574650000001043
                },
                {
                    "name": "G#6",
                    "midi": 92,
                    "time": 216.92290700000086,
                    "velocity": 0.2755905511811024,
                    "duration": 0.13574650000001043
                },
                {
                    "name": "E6",
                    "midi": 88,
                    "time": 217.05865350000087,
                    "velocity": 0.2677165354330709,
                    "duration": 0.13574650000001043
                },
                {
                    "name": "F6",
                    "midi": 89,
                    "time": 217.19440000000088,
                    "velocity": 0.2755905511811024,
                    "duration": 0.13574650000001043
                },
                {
                    "name": "C#6",
                    "midi": 85,
                    "time": 217.3301465000009,
                    "velocity": 0.2677165354330709,
                    "duration": 0.13574650000001043
                },
                {
                    "name": "F5",
                    "midi": 77,
                    "time": 217.4658930000009,
                    "velocity": 0.2755905511811024,
                    "duration": 0.13574650000001043
                },
                {
                    "name": "C5",
                    "midi": 72,
                    "time": 217.6016395000009,
                    "velocity": 0.25984251968503935,
                    "duration": 0.13574650000001043
                },
                {
                    "name": "C#5",
                    "midi": 73,
                    "time": 217.73738600000092,
                    "velocity": 0.2755905511811024,
                    "duration": 0.13574650000001043
                },
                {
                    "name": "G#4",
                    "midi": 68,
                    "time": 217.87313250000093,
                    "velocity": 0.2677165354330709,
                    "duration": 0.13574650000001043
                },
                {
                    "name": "F4",
                    "midi": 65,
                    "time": 218.00887900000095,
                    "velocity": 0.2755905511811024,
                    "duration": 0.13574650000001043
                },
                {
                    "name": "D#4",
                    "midi": 63,
                    "time": 218.14462550000096,
                    "velocity": 0.2677165354330709,
                    "duration": 0.13574650000001043
                },
                {
                    "name": "C#5",
                    "midi": 73,
                    "time": 218.82335800000098,
                    "velocity": 0.3228346456692913,
                    "duration": 0.5429860000000133
                },
                {
                    "name": "C#4",
                    "midi": 61,
                    "time": 218.82335800000098,
                    "velocity": 0.3228346456692913,
                    "duration": 0.5429860000000133
                },
                {
                    "name": "C#5",
                    "midi": 73,
                    "time": 219.366344000001,
                    "velocity": 0.3228346456692913,
                    "duration": 0.5429860000000133
                },
                {
                    "name": "C#4",
                    "midi": 61,
                    "time": 219.366344000001,
                    "velocity": 0.3228346456692913,
                    "duration": 0.5429860000000133
                },
                {
                    "name": "A#4",
                    "midi": 70,
                    "time": 219.366344000001,
                    "velocity": 0.3228346456692913,
                    "duration": 0.5429860000000133
                },
                {
                    "name": "A#4",
                    "midi": 70,
                    "time": 219.909330000001,
                    "velocity": 0.4094488188976378,
                    "duration": 0.5429860000000133
                },
                {
                    "name": "F#4",
                    "midi": 66,
                    "time": 219.909330000001,
                    "velocity": 0.4094488188976378,
                    "duration": 0.5429860000000133
                },
                {
                    "name": "D#5",
                    "midi": 75,
                    "time": 219.909330000001,
                    "velocity": 0.4094488188976378,
                    "duration": 0.5429860000000133
                },
                {
                    "name": "F#5",
                    "midi": 78,
                    "time": 219.909330000001,
                    "velocity": 0.4094488188976378,
                    "duration": 0.5429860000000133
                },
                {
                    "name": "F#4",
                    "midi": 66,
                    "time": 220.45231600000102,
                    "velocity": 0.44881889763779526,
                    "duration": 0.5429860000000133
                },
                {
                    "name": "F#5",
                    "midi": 78,
                    "time": 220.45231600000102,
                    "velocity": 0.44881889763779526,
                    "duration": 0.5429860000000133
                },
                {
                    "name": "B4",
                    "midi": 71,
                    "time": 220.45231600000102,
                    "velocity": 0.44881889763779526,
                    "duration": 0.5429860000000133
                },
                {
                    "name": "D#5",
                    "midi": 75,
                    "time": 220.45231600000102,
                    "velocity": 0.44881889763779526,
                    "duration": 0.5429860000000133
                },
                {
                    "name": "B5",
                    "midi": 83,
                    "time": 220.99530200000103,
                    "velocity": 0.49606299212598426,
                    "duration": 0.5429860000000133
                },
                {
                    "name": "G#5",
                    "midi": 80,
                    "time": 220.99530200000103,
                    "velocity": 0.49606299212598426,
                    "duration": 0.5429860000000133
                },
                {
                    "name": "D#5",
                    "midi": 75,
                    "time": 220.99530200000103,
                    "velocity": 0.49606299212598426,
                    "duration": 0.5429860000000133
                },
                {
                    "name": "B4",
                    "midi": 71,
                    "time": 220.99530200000103,
                    "velocity": 0.49606299212598426,
                    "duration": 0.5429860000000133
                },
                {
                    "name": "A#4",
                    "midi": 70,
                    "time": 221.53828800000105,
                    "velocity": 0.49606299212598426,
                    "duration": 1.085972000000055
                },
                {
                    "name": "D5",
                    "midi": 74,
                    "time": 221.53828800000105,
                    "velocity": 0.49606299212598426,
                    "duration": 1.085972000000055
                },
                {
                    "name": "F5",
                    "midi": 77,
                    "time": 221.53828800000105,
                    "velocity": 0.49606299212598426,
                    "duration": 1.085972000000055
                },
                {
                    "name": "A#5",
                    "midi": 82,
                    "time": 221.53828800000105,
                    "velocity": 0.49606299212598426,
                    "duration": 1.085972000000055
                },
                {
                    "name": "F7",
                    "midi": 101,
                    "time": 222.08127400000106,
                    "velocity": 0.5511811023622047,
                    "duration": 0.13574650000001043
                },
                {
                    "name": "D7",
                    "midi": 98,
                    "time": 222.21702050000107,
                    "velocity": 0.4409448818897638,
                    "duration": 0.13574650000001043
                },
                {
                    "name": "F6",
                    "midi": 89,
                    "time": 222.35276700000108,
                    "velocity": 0.4409448818897638,
                    "duration": 0.13574650000001043
                },
                {
                    "name": "D6",
                    "midi": 86,
                    "time": 222.4885135000011,
                    "velocity": 0.41732283464566927,
                    "duration": 0.13574650000001043
                },
                {
                    "name": "A#5",
                    "midi": 82,
                    "time": 222.6242600000011,
                    "velocity": 0.4409448818897638,
                    "duration": 0.13574650000001043
                },
                {
                    "name": "D5",
                    "midi": 74,
                    "time": 222.7600065000011,
                    "velocity": 0.41732283464566927,
                    "duration": 0.13574650000001043
                },
                {
                    "name": "A#4",
                    "midi": 70,
                    "time": 222.89575300000112,
                    "velocity": 0.4409448818897638,
                    "duration": 0.27149299999999243
                },
                {
                    "name": "A#5",
                    "midi": 82,
                    "time": 223.16724600000111,
                    "velocity": 0.4881889763779528,
                    "duration": 0.5429860000000133
                },
                {
                    "name": "F#6",
                    "midi": 90,
                    "time": 223.16724600000111,
                    "velocity": 0.4881889763779528,
                    "duration": 0.5429860000000133
                },
                {
                    "name": "D#6",
                    "midi": 87,
                    "time": 223.16724600000111,
                    "velocity": 0.4881889763779528,
                    "duration": 0.5429860000000133
                },
                {
                    "name": "F#5",
                    "midi": 78,
                    "time": 223.16724600000111,
                    "velocity": 0.4881889763779528,
                    "duration": 0.5429860000000133
                },
                {
                    "name": "F6",
                    "midi": 89,
                    "time": 223.71023200000113,
                    "velocity": 0.4881889763779528,
                    "duration": 1.0859720000000266
                },
                {
                    "name": "D6",
                    "midi": 86,
                    "time": 223.71023200000113,
                    "velocity": 0.4881889763779528,
                    "duration": 1.0859720000000266
                },
                {
                    "name": "F5",
                    "midi": 77,
                    "time": 223.71023200000113,
                    "velocity": 0.4881889763779528,
                    "duration": 1.0859720000000266
                },
                {
                    "name": "A#5",
                    "midi": 82,
                    "time": 223.71023200000113,
                    "velocity": 0.4881889763779528,
                    "duration": 1.0859720000000266
                },
                {
                    "name": "D5",
                    "midi": 74,
                    "time": 224.25321800000114,
                    "velocity": 0.44881889763779526,
                    "duration": 1.0859720000000266
                },
                {
                    "name": "A#4",
                    "midi": 70,
                    "time": 224.25321800000114,
                    "velocity": 0.44881889763779526,
                    "duration": 1.0859720000000266
                },
                {
                    "name": "F4",
                    "midi": 65,
                    "time": 224.25321800000114,
                    "velocity": 0.44881889763779526,
                    "duration": 0.5429860000000133
                },
                {
                    "name": "F5",
                    "midi": 77,
                    "time": 224.25321800000114,
                    "velocity": 0.44881889763779526,
                    "duration": 1.0859720000000266
                },
                {
                    "name": "D#6",
                    "midi": 87,
                    "time": 225.33919000000117,
                    "velocity": 0.5275590551181102,
                    "duration": 0.5429860000000133
                },
                {
                    "name": "B5",
                    "midi": 83,
                    "time": 225.33919000000117,
                    "velocity": 0.5275590551181102,
                    "duration": 0.5429860000000133
                },
                {
                    "name": "F#5",
                    "midi": 78,
                    "time": 225.33919000000117,
                    "velocity": 0.5275590551181102,
                    "duration": 0.5429860000000133
                },
                {
                    "name": "D#5",
                    "midi": 75,
                    "time": 225.33919000000117,
                    "velocity": 0.5275590551181102,
                    "duration": 0.5429860000000133
                },
                {
                    "name": "C#5",
                    "midi": 73,
                    "time": 225.88217600000118,
                    "velocity": 0.5275590551181102,
                    "duration": 1.085972000000055
                },
                {
                    "name": "C#6",
                    "midi": 85,
                    "time": 225.88217600000118,
                    "velocity": 0.5275590551181102,
                    "duration": 1.085972000000055
                },
                {
                    "name": "G#5",
                    "midi": 80,
                    "time": 225.88217600000118,
                    "velocity": 0.5275590551181102,
                    "duration": 1.085972000000055
                },
                {
                    "name": "F5",
                    "midi": 77,
                    "time": 225.88217600000118,
                    "velocity": 0.5275590551181102,
                    "duration": 1.085972000000055
                },
                {
                    "name": "G#7",
                    "midi": 104,
                    "time": 226.4251620000012,
                    "velocity": 0.5669291338582677,
                    "duration": 0.13574650000001043
                },
                {
                    "name": "F7",
                    "midi": 101,
                    "time": 226.5609085000012,
                    "velocity": 0.5354330708661418,
                    "duration": 0.13574650000001043
                },
                {
                    "name": "G#6",
                    "midi": 92,
                    "time": 226.69665500000121,
                    "velocity": 0.5354330708661418,
                    "duration": 0.13574650000001043
                },
                {
                    "name": "F6",
                    "midi": 89,
                    "time": 226.83240150000123,
                    "velocity": 0.5196850393700787,
                    "duration": 0.13574650000001043
                },
                {
                    "name": "C#6",
                    "midi": 85,
                    "time": 226.96814800000124,
                    "velocity": 0.5354330708661418,
                    "duration": 0.13574650000001043
                },
                {
                    "name": "F5",
                    "midi": 77,
                    "time": 227.10389450000125,
                    "velocity": 0.5275590551181102,
                    "duration": 0.13574650000001043
                },
                {
                    "name": "C#5",
                    "midi": 73,
                    "time": 227.23964100000126,
                    "velocity": 0.5354330708661418,
                    "duration": 0.27149299999999243
                },
                {
                    "name": "A#6",
                    "midi": 94,
                    "time": 227.51113400000125,
                    "velocity": 0.5984251968503937,
                    "duration": 0.5429860000000133
                },
                {
                    "name": "F#6",
                    "midi": 90,
                    "time": 227.51113400000125,
                    "velocity": 0.5984251968503937,
                    "duration": 0.5429860000000133
                },
                {
                    "name": "C#6",
                    "midi": 85,
                    "time": 227.51113400000125,
                    "velocity": 0.5433070866141733,
                    "duration": 0.5429860000000133
                },
                {
                    "name": "A#5",
                    "midi": 82,
                    "time": 227.51113400000125,
                    "velocity": 0.5433070866141733,
                    "duration": 0.5429860000000133
                },
                {
                    "name": "C#6",
                    "midi": 85,
                    "time": 228.05412000000126,
                    "velocity": 0.5433070866141733,
                    "duration": 1.0859720000000266
                },
                {
                    "name": "G#5",
                    "midi": 80,
                    "time": 228.05412000000126,
                    "velocity": 0.5433070866141733,
                    "duration": 1.0859720000000266
                },
                {
                    "name": "F6",
                    "midi": 89,
                    "time": 228.05412000000126,
                    "velocity": 0.5984251968503937,
                    "duration": 1.0859720000000266
                },
                {
                    "name": "G#6",
                    "midi": 92,
                    "time": 228.05412000000126,
                    "velocity": 0.5984251968503937,
                    "duration": 1.0859720000000266
                },
                {
                    "name": "G#4",
                    "midi": 68,
                    "time": 228.59710600000128,
                    "velocity": 0.5748031496062992,
                    "duration": 1.0859720000000266
                },
                {
                    "name": "G#5",
                    "midi": 80,
                    "time": 228.59710600000128,
                    "velocity": 0.5748031496062992,
                    "duration": 1.0859720000000266
                },
                {
                    "name": "F5",
                    "midi": 77,
                    "time": 228.59710600000128,
                    "velocity": 0.5748031496062992,
                    "duration": 1.0859720000000266
                },
                {
                    "name": "C#5",
                    "midi": 73,
                    "time": 228.59710600000128,
                    "velocity": 0.5748031496062992,
                    "duration": 1.0859720000000266
                },
                {
                    "name": "C#5",
                    "midi": 73,
                    "time": 229.6830780000013,
                    "velocity": 0.5196850393700787,
                    "duration": 1.0859720000000266
                },
                {
                    "name": "G#4",
                    "midi": 68,
                    "time": 229.6830780000013,
                    "velocity": 0.5196850393700787,
                    "duration": 0.5429860000000133
                },
                {
                    "name": "E5",
                    "midi": 76,
                    "time": 229.6830780000013,
                    "velocity": 0.5196850393700787,
                    "duration": 1.0859720000000266
                },
                {
                    "name": "G#5",
                    "midi": 80,
                    "time": 229.6830780000013,
                    "velocity": 0.5196850393700787,
                    "duration": 1.0859720000000266
                },
                {
                    "name": "G#5",
                    "midi": 80,
                    "time": 230.76905000000133,
                    "velocity": 0.6220472440944882,
                    "duration": 0.5429860000000133
                },
                {
                    "name": "G#6",
                    "midi": 92,
                    "time": 230.76905000000133,
                    "velocity": 0.6929133858267716,
                    "duration": 0.5429860000000133
                },
                {
                    "name": "C#6",
                    "midi": 85,
                    "time": 230.76905000000133,
                    "velocity": 0.6220472440944882,
                    "duration": 0.5429860000000133
                },
                {
                    "name": "E6",
                    "midi": 88,
                    "time": 230.76905000000133,
                    "velocity": 0.6220472440944882,
                    "duration": 0.5429860000000133
                },
                {
                    "name": "F#5",
                    "midi": 78,
                    "time": 231.31203600000134,
                    "velocity": 0.6220472440944882,
                    "duration": 0.5429860000000133
                },
                {
                    "name": "A#5",
                    "midi": 82,
                    "time": 231.31203600000134,
                    "velocity": 0.6220472440944882,
                    "duration": 0.5429860000000133
                },
                {
                    "name": "C#6",
                    "midi": 85,
                    "time": 231.31203600000134,
                    "velocity": 0.6220472440944882,
                    "duration": 0.5429860000000133
                },
                {
                    "name": "F#6",
                    "midi": 90,
                    "time": 231.31203600000134,
                    "velocity": 0.6929133858267716,
                    "duration": 0.5429860000000133
                },
                {
                    "name": "F6",
                    "midi": 89,
                    "time": 231.85502200000136,
                    "velocity": 0.6929133858267716,
                    "duration": 0.5429860000000133
                },
                {
                    "name": "C#6",
                    "midi": 85,
                    "time": 231.85502200000136,
                    "velocity": 0.6220472440944882,
                    "duration": 0.5429860000000133
                },
                {
                    "name": "F5",
                    "midi": 77,
                    "time": 231.85502200000136,
                    "velocity": 0.6220472440944882,
                    "duration": 0.5429860000000133
                },
                {
                    "name": "A#5",
                    "midi": 82,
                    "time": 231.85502200000136,
                    "velocity": 0.6220472440944882,
                    "duration": 0.5429860000000133
                },
                {
                    "name": "E5",
                    "midi": 76,
                    "time": 232.39800800000137,
                    "velocity": 0.6456692913385826,
                    "duration": 0.5429860000000133
                },
                {
                    "name": "A#5",
                    "midi": 82,
                    "time": 232.39800800000137,
                    "velocity": 0.6456692913385826,
                    "duration": 0.5429860000000133
                },
                {
                    "name": "C#6",
                    "midi": 85,
                    "time": 232.39800800000137,
                    "velocity": 0.6456692913385826,
                    "duration": 0.5429860000000133
                },
                {
                    "name": "E6",
                    "midi": 88,
                    "time": 232.39800800000137,
                    "velocity": 0.7244094488188977,
                    "duration": 0.5429860000000133
                },
                {
                    "name": "D#6",
                    "midi": 87,
                    "time": 232.94099400000138,
                    "velocity": 0.7401574803149606,
                    "duration": 0.5429860000000133
                },
                {
                    "name": "D#5",
                    "midi": 75,
                    "time": 232.94099400000138,
                    "velocity": 0.6614173228346457,
                    "duration": 0.5429860000000133
                },
                {
                    "name": "B5",
                    "midi": 83,
                    "time": 232.94099400000138,
                    "velocity": 0.6614173228346457,
                    "duration": 0.5429860000000133
                },
                {
                    "name": "D#6",
                    "midi": 87,
                    "time": 233.4839800000014,
                    "velocity": 0.7637795275590551,
                    "duration": 0.5429860000000133
                },
                {
                    "name": "A#5",
                    "midi": 82,
                    "time": 233.4839800000014,
                    "velocity": 0.6929133858267716,
                    "duration": 0.5429860000000133
                },
                {
                    "name": "D#5",
                    "midi": 75,
                    "time": 233.4839800000014,
                    "velocity": 0.6929133858267716,
                    "duration": 0.5429860000000133
                },
                {
                    "name": "D#5",
                    "midi": 75,
                    "time": 234.0269660000014,
                    "velocity": 0.7007874015748031,
                    "duration": 0.5429860000000133
                },
                {
                    "name": "D#6",
                    "midi": 87,
                    "time": 234.0269660000014,
                    "velocity": 0.7874015748031497,
                    "duration": 0.5429860000000133
                },
                {
                    "name": "A5",
                    "midi": 81,
                    "time": 234.0269660000014,
                    "velocity": 0.7007874015748031,
                    "duration": 0.5429860000000133
                },
                {
                    "name": "A#5",
                    "midi": 82,
                    "time": 234.56995200000142,
                    "velocity": 0.7165354330708661,
                    "duration": 0.40723950000000286
                },
                {
                    "name": "D#6",
                    "midi": 87,
                    "time": 234.56995200000142,
                    "velocity": 0.8031496062992126,
                    "duration": 0.40723950000000286
                },
                {
                    "name": "G5",
                    "midi": 79,
                    "time": 234.56995200000142,
                    "velocity": 0.7165354330708661,
                    "duration": 0.40723950000000286
                },
                {
                    "name": "D#5",
                    "midi": 75,
                    "time": 234.56995200000142,
                    "velocity": 0.7165354330708661,
                    "duration": 0.40723950000000286
                },
                {
                    "name": "F4",
                    "midi": 65,
                    "time": 235.11293800000144,
                    "velocity": 0.5905511811023622,
                    "duration": 0.13574650000001043
                },
                {
                    "name": "F5",
                    "midi": 77,
                    "time": 235.11293800000144,
                    "velocity": 0.6614173228346457,
                    "duration": 0.13574650000001043
                },
                {
                    "name": "A#4",
                    "midi": 70,
                    "time": 235.11293800000144,
                    "velocity": 0.5905511811023622,
                    "duration": 0.13574650000001043
                },
                {
                    "name": "D5",
                    "midi": 74,
                    "time": 235.11293800000144,
                    "velocity": 0.5905511811023622,
                    "duration": 0.13574650000001043
                },
                {
                    "name": "G4",
                    "midi": 67,
                    "time": 235.38443100000146,
                    "velocity": 0.5826771653543307,
                    "duration": 0.13574650000001043
                },
                {
                    "name": "A#4",
                    "midi": 70,
                    "time": 235.38443100000146,
                    "velocity": 0.5826771653543307,
                    "duration": 0.13574650000001043
                },
                {
                    "name": "D#5",
                    "midi": 75,
                    "time": 235.38443100000146,
                    "velocity": 0.6535433070866141,
                    "duration": 0.13574650000001043
                },
                {
                    "name": "G5",
                    "midi": 79,
                    "time": 235.38443100000146,
                    "velocity": 0.6535433070866141,
                    "duration": 0.13574650000001043
                },
                {
                    "name": "G#5",
                    "midi": 80,
                    "time": 235.65592400000148,
                    "velocity": 0.7480314960629921,
                    "duration": 0.5429860000000133
                },
                {
                    "name": "D#5",
                    "midi": 75,
                    "time": 235.65592400000148,
                    "velocity": 0.6692913385826772,
                    "duration": 0.5429860000000133
                },
                {
                    "name": "G#4",
                    "midi": 68,
                    "time": 235.65592400000148,
                    "velocity": 0.6692913385826772,
                    "duration": 0.5429860000000133
                },
                {
                    "name": "C5",
                    "midi": 72,
                    "time": 235.65592400000148,
                    "velocity": 0.6692913385826772,
                    "duration": 0.5429860000000133
                },
                {
                    "name": "G4",
                    "midi": 67,
                    "time": 236.1989100000015,
                    "velocity": 0.5826771653543307,
                    "duration": 0.13574650000001043
                },
                {
                    "name": "A#4",
                    "midi": 70,
                    "time": 236.1989100000015,
                    "velocity": 0.5826771653543307,
                    "duration": 0.13574650000001043
                },
                {
                    "name": "D#5",
                    "midi": 75,
                    "time": 236.1989100000015,
                    "velocity": 0.5826771653543307,
                    "duration": 0.13574650000001043
                },
                {
                    "name": "G5",
                    "midi": 79,
                    "time": 236.1989100000015,
                    "velocity": 0.6535433070866141,
                    "duration": 0.13574650000001043
                },
                {
                    "name": "D#5",
                    "midi": 75,
                    "time": 236.4704030000015,
                    "velocity": 0.5748031496062992,
                    "duration": 0.13574650000001043
                },
                {
                    "name": "F4",
                    "midi": 65,
                    "time": 236.4704030000015,
                    "velocity": 0.5748031496062992,
                    "duration": 0.13574650000001043
                },
                {
                    "name": "C5",
                    "midi": 72,
                    "time": 236.4704030000015,
                    "velocity": 0.5748031496062992,
                    "duration": 0.13574650000001043
                },
                {
                    "name": "F5",
                    "midi": 77,
                    "time": 236.4704030000015,
                    "velocity": 0.6456692913385826,
                    "duration": 0.13574650000001043
                },
                {
                    "name": "G4",
                    "midi": 67,
                    "time": 236.74189600000153,
                    "velocity": 0.6692913385826772,
                    "duration": 0.5429860000000133
                },
                {
                    "name": "A#4",
                    "midi": 70,
                    "time": 236.74189600000153,
                    "velocity": 0.6692913385826772,
                    "duration": 0.5429860000000133
                },
                {
                    "name": "D#5",
                    "midi": 75,
                    "time": 236.74189600000153,
                    "velocity": 0.6692913385826772,
                    "duration": 0.5429860000000133
                },
                {
                    "name": "G5",
                    "midi": 79,
                    "time": 236.74189600000153,
                    "velocity": 0.7480314960629921,
                    "duration": 0.5429860000000133
                },
                {
                    "name": "D5",
                    "midi": 74,
                    "time": 237.28488200000155,
                    "velocity": 0.6929133858267716,
                    "duration": 0.13574650000001043
                },
                {
                    "name": "F5",
                    "midi": 77,
                    "time": 237.28488200000155,
                    "velocity": 0.6929133858267716,
                    "duration": 0.13574650000001043
                },
                {
                    "name": "F4",
                    "midi": 65,
                    "time": 237.28488200000155,
                    "velocity": 0.6220472440944882,
                    "duration": 0.13574650000001043
                },
                {
                    "name": "G#4",
                    "midi": 68,
                    "time": 237.28488200000155,
                    "velocity": 0.6220472440944882,
                    "duration": 0.13574650000001043
                },
                {
                    "name": "D#4",
                    "midi": 63,
                    "time": 237.55637500000157,
                    "velocity": 0.5826771653543307,
                    "duration": 0.13574650000001043
                },
                {
                    "name": "G4",
                    "midi": 67,
                    "time": 237.55637500000157,
                    "velocity": 0.5826771653543307,
                    "duration": 0.13574650000001043
                },
                {
                    "name": "A#4",
                    "midi": 70,
                    "time": 237.55637500000157,
                    "velocity": 0.5826771653543307,
                    "duration": 0.13574650000001043
                },
                {
                    "name": "D#5",
                    "midi": 75,
                    "time": 237.55637500000157,
                    "velocity": 0.6535433070866141,
                    "duration": 0.13574650000001043
                },
                {
                    "name": "F5",
                    "midi": 77,
                    "time": 237.8278680000016,
                    "velocity": 0.6456692913385826,
                    "duration": 0.13574650000001043
                },
                {
                    "name": "F4",
                    "midi": 65,
                    "time": 237.8278680000016,
                    "velocity": 0.5748031496062992,
                    "duration": 0.13574650000001043
                },
                {
                    "name": "D5",
                    "midi": 74,
                    "time": 237.8278680000016,
                    "velocity": 0.5748031496062992,
                    "duration": 0.13574650000001043
                },
                {
                    "name": "A#4",
                    "midi": 70,
                    "time": 238.0993610000016,
                    "velocity": 0.6220472440944882,
                    "duration": 0.13574650000001043
                },
                {
                    "name": "D#4",
                    "midi": 63,
                    "time": 238.37085400000163,
                    "velocity": 0.6535433070866141,
                    "duration": 0.5429860000000133
                },
                {
                    "name": "C5",
                    "midi": 72,
                    "time": 238.37085400000163,
                    "velocity": 0.7322834645669292,
                    "duration": 0.5429860000000133
                },
                {
                    "name": "D#5",
                    "midi": 75,
                    "time": 238.37085400000163,
                    "velocity": 0.7322834645669292,
                    "duration": 0.5429860000000133
                },
                {
                    "name": "D#5",
                    "midi": 75,
                    "time": 238.91384000000164,
                    "velocity": 0.6771653543307087,
                    "duration": 0.5429860000000133
                },
                {
                    "name": "A#4",
                    "midi": 70,
                    "time": 238.91384000000164,
                    "velocity": 0.6141732283464567,
                    "duration": 0.5429860000000133
                },
                {
                    "name": "D5",
                    "midi": 74,
                    "time": 238.91384000000164,
                    "velocity": 0.6771653543307087,
                    "duration": 0.5429860000000133
                },
                {
                    "name": "D#4",
                    "midi": 63,
                    "time": 238.91384000000164,
                    "velocity": 0.6141732283464567,
                    "duration": 0.5429860000000133
                },
                {
                    "name": "D#4",
                    "midi": 63,
                    "time": 239.45682600000166,
                    "velocity": 0.6062992125984252,
                    "duration": 0.47511274999999387
                },
                {
                    "name": "G#4",
                    "midi": 68,
                    "time": 239.45682600000166,
                    "velocity": 0.6062992125984252,
                    "duration": 0.47511274999999387
                },
                {
                    "name": "C5",
                    "midi": 72,
                    "time": 239.45682600000166,
                    "velocity": 0.6692913385826772,
                    "duration": 0.47511274999999387
                },
                {
                    "name": "D#5",
                    "midi": 75,
                    "time": 239.45682600000166,
                    "velocity": 0.6692913385826772,
                    "duration": 0.47511274999999387
                },
                {
                    "name": "D#5",
                    "midi": 75,
                    "time": 239.99981200000164,
                    "velocity": 0.6929133858267716,
                    "duration": 0.5429860000000133
                },
                {
                    "name": "D#4",
                    "midi": 63,
                    "time": 239.99981200000164,
                    "velocity": 0.6220472440944882,
                    "duration": 0.5429860000000133
                },
                {
                    "name": "G4",
                    "midi": 67,
                    "time": 239.99981200000164,
                    "velocity": 0.6220472440944882,
                    "duration": 0.5429860000000133
                },
                {
                    "name": "A#4",
                    "midi": 70,
                    "time": 239.99981200000164,
                    "velocity": 0.6929133858267716,
                    "duration": 0.5429860000000133
                },
                {
                    "name": "D4",
                    "midi": 62,
                    "time": 240.54279800000165,
                    "velocity": 0.6456692913385826,
                    "duration": 0.13574650000001043
                },
                {
                    "name": "F4",
                    "midi": 65,
                    "time": 240.54279800000165,
                    "velocity": 0.6456692913385826,
                    "duration": 0.13574650000001043
                },
                {
                    "name": "A#4",
                    "midi": 70,
                    "time": 240.54279800000165,
                    "velocity": 0.6456692913385826,
                    "duration": 0.13574650000001043
                },
                {
                    "name": "D5",
                    "midi": 74,
                    "time": 240.54279800000165,
                    "velocity": 0.7244094488188977,
                    "duration": 0.13574650000001043
                },
                {
                    "name": "A#4",
                    "midi": 70,
                    "time": 240.81429100000167,
                    "velocity": 0.6220472440944882,
                    "duration": 0.13574650000001043
                },
                {
                    "name": "D#5",
                    "midi": 75,
                    "time": 240.81429100000167,
                    "velocity": 0.6929133858267716,
                    "duration": 0.13574650000001043
                },
                {
                    "name": "D#4",
                    "midi": 63,
                    "time": 240.81429100000167,
                    "velocity": 0.6220472440944882,
                    "duration": 0.13574650000001043
                },
                {
                    "name": "G4",
                    "midi": 67,
                    "time": 240.81429100000167,
                    "velocity": 0.6220472440944882,
                    "duration": 0.13574650000001043
                },
                {
                    "name": "C5",
                    "midi": 72,
                    "time": 241.0857840000017,
                    "velocity": 0.6771653543307087,
                    "duration": 0.5429860000000133
                },
                {
                    "name": "D#5",
                    "midi": 75,
                    "time": 241.0857840000017,
                    "velocity": 0.6771653543307087,
                    "duration": 0.5429860000000133
                },
                {
                    "name": "G5",
                    "midi": 79,
                    "time": 241.0857840000017,
                    "velocity": 0.7559055118110236,
                    "duration": 0.5429860000000133
                },
                {
                    "name": "G4",
                    "midi": 67,
                    "time": 241.0857840000017,
                    "velocity": 0.6771653543307087,
                    "duration": 0.5429860000000133
                },
                {
                    "name": "C5",
                    "midi": 72,
                    "time": 241.6287700000017,
                    "velocity": 0.6377952755905512,
                    "duration": 0.13574650000001043
                },
                {
                    "name": "F4",
                    "midi": 65,
                    "time": 241.6287700000017,
                    "velocity": 0.6377952755905512,
                    "duration": 0.13574650000001043
                },
                {
                    "name": "G#4",
                    "midi": 68,
                    "time": 241.6287700000017,
                    "velocity": 0.6377952755905512,
                    "duration": 0.13574650000001043
                },
                {
                    "name": "F5",
                    "midi": 77,
                    "time": 241.6287700000017,
                    "velocity": 0.7165354330708661,
                    "duration": 0.13574650000001043
                },
                {
                    "name": "D#4",
                    "midi": 63,
                    "time": 241.90026300000173,
                    "velocity": 0.6299212598425197,
                    "duration": 0.13574650000001043
                },
                {
                    "name": "G4",
                    "midi": 67,
                    "time": 241.90026300000173,
                    "velocity": 0.6299212598425197,
                    "duration": 0.13574650000001043
                },
                {
                    "name": "D#5",
                    "midi": 75,
                    "time": 241.90026300000173,
                    "velocity": 0.7086614173228346,
                    "duration": 0.13574650000001043
                },
                {
                    "name": "C5",
                    "midi": 72,
                    "time": 241.90026300000173,
                    "velocity": 0.6299212598425197,
                    "duration": 0.13574650000001043
                },
                {
                    "name": "A#4",
                    "midi": 70,
                    "time": 242.17175600000175,
                    "velocity": 0.6614173228346457,
                    "duration": 0.5429860000000133
                },
                {
                    "name": "G4",
                    "midi": 67,
                    "time": 242.17175600000175,
                    "velocity": 0.6614173228346457,
                    "duration": 0.5429860000000133
                },
                {
                    "name": "D4",
                    "midi": 62,
                    "time": 242.17175600000175,
                    "velocity": 0.6614173228346457,
                    "duration": 0.5429860000000133
                },
                {
                    "name": "D5",
                    "midi": 74,
                    "time": 242.17175600000175,
                    "velocity": 0.7401574803149606,
                    "duration": 0.5429860000000133
                },
                {
                    "name": "C4",
                    "midi": 60,
                    "time": 242.71474200000176,
                    "velocity": 0.5905511811023622,
                    "duration": 0.13574650000001043
                },
                {
                    "name": "D#4",
                    "midi": 63,
                    "time": 242.71474200000176,
                    "velocity": 0.5905511811023622,
                    "duration": 0.13574650000001043
                },
                {
                    "name": "G4",
                    "midi": 67,
                    "time": 242.71474200000176,
                    "velocity": 0.5905511811023622,
                    "duration": 0.13574650000001043
                },
                {
                    "name": "C5",
                    "midi": 72,
                    "time": 242.71474200000176,
                    "velocity": 0.6614173228346457,
                    "duration": 0.13574650000001043
                },
                {
                    "name": "D4",
                    "midi": 62,
                    "time": 242.98623500000178,
                    "velocity": 0.5669291338582677,
                    "duration": 0.13574650000001043
                },
                {
                    "name": "A#3",
                    "midi": 58,
                    "time": 242.98623500000178,
                    "velocity": 0.5669291338582677,
                    "duration": 0.13574650000001043
                },
                {
                    "name": "G4",
                    "midi": 67,
                    "time": 242.98623500000178,
                    "velocity": 0.6377952755905512,
                    "duration": 0.13574650000001043
                },
                {
                    "name": "A#4",
                    "midi": 70,
                    "time": 242.98623500000178,
                    "velocity": 0.6377952755905512,
                    "duration": 0.13574650000001043
                },
                {
                    "name": "A3",
                    "midi": 57,
                    "time": 243.2577280000018,
                    "velocity": 0.5905511811023622,
                    "duration": 0.13574650000001043
                },
                {
                    "name": "A4",
                    "midi": 69,
                    "time": 243.2577280000018,
                    "velocity": 0.6614173228346457,
                    "duration": 0.13574650000001043
                },
                {
                    "name": "F#4",
                    "midi": 66,
                    "time": 243.2577280000018,
                    "velocity": 0.6614173228346457,
                    "duration": 0.13574650000001043
                },
                {
                    "name": "D4",
                    "midi": 62,
                    "time": 243.52922100000183,
                    "velocity": 0.6299212598425197,
                    "duration": 0.13574650000001043
                },
                {
                    "name": "G4",
                    "midi": 67,
                    "time": 243.80071400000185,
                    "velocity": 0.7086614173228346,
                    "duration": 0.5429860000000133
                },
                {
                    "name": "G3",
                    "midi": 55,
                    "time": 243.80071400000185,
                    "velocity": 0.6299212598425197,
                    "duration": 0.5429860000000133
                },
                {
                    "name": "G3",
                    "midi": 55,
                    "time": 244.34370000000186,
                    "velocity": 0.6220472440944882,
                    "duration": 0.5429860000000133
                },
                {
                    "name": "F#4",
                    "midi": 66,
                    "time": 244.34370000000186,
                    "velocity": 0.6929133858267716,
                    "duration": 0.5429860000000133
                },
                {
                    "name": "G4",
                    "midi": 67,
                    "time": 244.34370000000186,
                    "velocity": 0.6929133858267716,
                    "duration": 0.5429860000000133
                },
                {
                    "name": "G4",
                    "midi": 67,
                    "time": 244.88668600000187,
                    "velocity": 0.6456692913385826,
                    "duration": 0.47511274999999387
                },
                {
                    "name": "G3",
                    "midi": 55,
                    "time": 244.88668600000187,
                    "velocity": 0.5748031496062992,
                    "duration": 0.47511274999999387
                },
                {
                    "name": "F4",
                    "midi": 65,
                    "time": 244.88668600000187,
                    "velocity": 0.6456692913385826,
                    "duration": 0.47511274999999387
                },
                {
                    "name": "G4",
                    "midi": 67,
                    "time": 245.42967200000186,
                    "velocity": 0.5275590551181102,
                    "duration": 0.5429860000000133
                },
                {
                    "name": "A#4",
                    "midi": 70,
                    "time": 245.42967200000186,
                    "velocity": 0.5275590551181102,
                    "duration": 0.5429860000000133
                },
                {
                    "name": "D#5",
                    "midi": 75,
                    "time": 245.42967200000186,
                    "velocity": 0.5275590551181102,
                    "duration": 0.5429860000000133
                },
                {
                    "name": "G5",
                    "midi": 79,
                    "time": 245.42967200000186,
                    "velocity": 0.5826771653543307,
                    "duration": 0.5429860000000133
                },
                {
                    "name": "D5",
                    "midi": 74,
                    "time": 245.97265800000187,
                    "velocity": 0.4645669291338583,
                    "duration": 0.27149299999999243
                },
                {
                    "name": "F5",
                    "midi": 77,
                    "time": 245.97265800000187,
                    "velocity": 0.5275590551181102,
                    "duration": 0.27149299999999243
                },
                {
                    "name": "F4",
                    "midi": 65,
                    "time": 245.97265800000187,
                    "velocity": 0.4645669291338583,
                    "duration": 0.27149299999999243
                },
                {
                    "name": "A#4",
                    "midi": 70,
                    "time": 245.97265800000187,
                    "velocity": 0.4645669291338583,
                    "duration": 0.27149299999999243
                },
                {
                    "name": "G4",
                    "midi": 67,
                    "time": 246.24415100000186,
                    "velocity": 0.5039370078740157,
                    "duration": 0.27149299999999243
                },
                {
                    "name": "A#4",
                    "midi": 70,
                    "time": 246.24415100000186,
                    "velocity": 0.5039370078740157,
                    "duration": 0.27149299999999243
                },
                {
                    "name": "D#5",
                    "midi": 75,
                    "time": 246.24415100000186,
                    "velocity": 0.5039370078740157,
                    "duration": 0.27149299999999243
                },
                {
                    "name": "G5",
                    "midi": 79,
                    "time": 246.24415100000186,
                    "velocity": 0.5669291338582677,
                    "duration": 0.27149299999999243
                },
                {
                    "name": "D#5",
                    "midi": 75,
                    "time": 246.51564400000186,
                    "velocity": 0.5511811023622047,
                    "duration": 0.5429860000000133
                },
                {
                    "name": "G#4",
                    "midi": 68,
                    "time": 246.51564400000186,
                    "velocity": 0.5511811023622047,
                    "duration": 0.5429860000000133
                },
                {
                    "name": "C5",
                    "midi": 72,
                    "time": 246.51564400000186,
                    "velocity": 0.5511811023622047,
                    "duration": 0.5429860000000133
                },
                {
                    "name": "G#5",
                    "midi": 80,
                    "time": 246.51564400000186,
                    "velocity": 0.6220472440944882,
                    "duration": 0.5429860000000133
                },
                {
                    "name": "G4",
                    "midi": 67,
                    "time": 247.05863000000187,
                    "velocity": 0.47244094488188976,
                    "duration": 0.27149299999999243
                },
                {
                    "name": "A#4",
                    "midi": 70,
                    "time": 247.05863000000187,
                    "velocity": 0.47244094488188976,
                    "duration": 0.27149299999999243
                },
                {
                    "name": "G5",
                    "midi": 79,
                    "time": 247.05863000000187,
                    "velocity": 0.5354330708661418,
                    "duration": 0.27149299999999243
                },
                {
                    "name": "D#5",
                    "midi": 75,
                    "time": 247.05863000000187,
                    "velocity": 0.47244094488188976,
                    "duration": 0.27149299999999243
                },
                {
                    "name": "F5",
                    "midi": 77,
                    "time": 247.33012300000186,
                    "velocity": 0.5511811023622047,
                    "duration": 0.27149299999999243
                },
                {
                    "name": "C5",
                    "midi": 72,
                    "time": 247.33012300000186,
                    "velocity": 0.4881889763779528,
                    "duration": 0.27149299999999243
                },
                {
                    "name": "F4",
                    "midi": 65,
                    "time": 247.33012300000186,
                    "velocity": 0.4881889763779528,
                    "duration": 0.27149299999999243
                },
                {
                    "name": "D#5",
                    "midi": 75,
                    "time": 247.33012300000186,
                    "velocity": 0.4881889763779528,
                    "duration": 0.27149299999999243
                },
                {
                    "name": "G4",
                    "midi": 67,
                    "time": 247.60161600000185,
                    "velocity": 0.5275590551181102,
                    "duration": 0.5429860000000133
                },
                {
                    "name": "A#4",
                    "midi": 70,
                    "time": 247.60161600000185,
                    "velocity": 0.5275590551181102,
                    "duration": 0.5429860000000133
                },
                {
                    "name": "D#5",
                    "midi": 75,
                    "time": 247.60161600000185,
                    "velocity": 0.5275590551181102,
                    "duration": 0.5429860000000133
                },
                {
                    "name": "G5",
                    "midi": 79,
                    "time": 247.60161600000185,
                    "velocity": 0.5826771653543307,
                    "duration": 0.5429860000000133
                },
                {
                    "name": "G#4",
                    "midi": 68,
                    "time": 248.14460200000187,
                    "velocity": 0.5196850393700787,
                    "duration": 0.27149299999999243
                },
                {
                    "name": "F4",
                    "midi": 65,
                    "time": 248.14460200000187,
                    "velocity": 0.5196850393700787,
                    "duration": 0.27149299999999243
                },
                {
                    "name": "D5",
                    "midi": 74,
                    "time": 248.14460200000187,
                    "velocity": 0.5196850393700787,
                    "duration": 0.27149299999999243
                },
                {
                    "name": "F5",
                    "midi": 77,
                    "time": 248.14460200000187,
                    "velocity": 0.5748031496062992,
                    "duration": 0.27149299999999243
                },
                {
                    "name": "D#4",
                    "midi": 63,
                    "time": 248.41609500000186,
                    "velocity": 0.49606299212598426,
                    "duration": 0.27149299999999243
                },
                {
                    "name": "D#5",
                    "midi": 75,
                    "time": 248.41609500000186,
                    "velocity": 0.5590551181102362,
                    "duration": 0.27149299999999243
                },
                {
                    "name": "G4",
                    "midi": 67,
                    "time": 248.41609500000186,
                    "velocity": 0.49606299212598426,
                    "duration": 0.27149299999999243
                },
                {
                    "name": "A#4",
                    "midi": 70,
                    "time": 248.41609500000186,
                    "velocity": 0.49606299212598426,
                    "duration": 0.27149299999999243
                },
                {
                    "name": "D5",
                    "midi": 74,
                    "time": 248.68758800000185,
                    "velocity": 0.5669291338582677,
                    "duration": 0.27149299999999243
                },
                {
                    "name": "F4",
                    "midi": 65,
                    "time": 248.68758800000185,
                    "velocity": 0.5039370078740157,
                    "duration": 0.27149299999999243
                },
                {
                    "name": "F5",
                    "midi": 77,
                    "time": 248.68758800000185,
                    "velocity": 0.5669291338582677,
                    "duration": 0.27149299999999243
                },
                {
                    "name": "A#4",
                    "midi": 70,
                    "time": 248.95908100000185,
                    "velocity": 0.5511811023622047,
                    "duration": 0.27149299999999243
                },
                {
                    "name": "D#4",
                    "midi": 63,
                    "time": 249.23057400000184,
                    "velocity": 0.6299212598425197,
                    "duration": 0.5429860000000133
                },
                {
                    "name": "D#5",
                    "midi": 75,
                    "time": 249.23057400000184,
                    "velocity": 0.6299212598425197,
                    "duration": 0.5429860000000133
                },
                {
                    "name": "D#5",
                    "midi": 75,
                    "time": 249.77356000000185,
                    "velocity": 0.6535433070866141,
                    "duration": 0.5429860000000133
                },
                {
                    "name": "C#5",
                    "midi": 73,
                    "time": 249.77356000000185,
                    "velocity": 0.6535433070866141,
                    "duration": 0.5429860000000133
                },
                {
                    "name": "D#4",
                    "midi": 63,
                    "time": 249.77356000000185,
                    "velocity": 0.5826771653543307,
                    "duration": 0.5429860000000133
                },
                {
                    "name": "D#4",
                    "midi": 63,
                    "time": 250.31654600000186,
                    "velocity": 0.6220472440944882,
                    "duration": 0.47511274999999387
                },
                {
                    "name": "A#4",
                    "midi": 70,
                    "time": 250.31654600000186,
                    "velocity": 0.7007874015748031,
                    "duration": 0.47511274999999387
                },
                {
                    "name": "D#5",
                    "midi": 75,
                    "time": 250.31654600000186,
                    "velocity": 0.7007874015748031,
                    "duration": 0.47511274999999387
                },
                {
                    "name": "G#5",
                    "midi": 80,
                    "time": 250.85953200000185,
                    "velocity": 0.7086614173228346,
                    "duration": 0.5429860000000133
                },
                {
                    "name": "B5",
                    "midi": 83,
                    "time": 250.85953200000185,
                    "velocity": 0.7086614173228346,
                    "duration": 0.5429860000000133
                },
                {
                    "name": "G#6",
                    "midi": 92,
                    "time": 250.85953200000185,
                    "velocity": 0.7952755905511811,
                    "duration": 0.5429860000000133
                },
                {
                    "name": "D#6",
                    "midi": 87,
                    "time": 250.85953200000185,
                    "velocity": 0.7086614173228346,
                    "duration": 0.5429860000000133
                },
                {
                    "name": "D6",
                    "midi": 86,
                    "time": 251.40251800000186,
                    "velocity": 0.7322834645669292,
                    "duration": 0.13574650000001043
                },
                {
                    "name": "A#5",
                    "midi": 82,
                    "time": 251.40251800000186,
                    "velocity": 0.7322834645669292,
                    "duration": 0.13574650000001043
                },
                {
                    "name": "D5",
                    "midi": 74,
                    "time": 251.40251800000186,
                    "velocity": 0.6535433070866141,
                    "duration": 0.13574650000001043
                },
                {
                    "name": "D#6",
                    "midi": 87,
                    "time": 251.67401100000188,
                    "velocity": 0.7086614173228346,
                    "duration": 0.13574650000001043
                },
                {
                    "name": "B5",
                    "midi": 83,
                    "time": 251.67401100000188,
                    "velocity": 0.7086614173228346,
                    "duration": 0.13574650000001043
                },
                {
                    "name": "D#5",
                    "midi": 75,
                    "time": 251.67401100000188,
                    "velocity": 0.6299212598425197,
                    "duration": 0.13574650000001043
                },
                {
                    "name": "G#5",
                    "midi": 80,
                    "time": 251.9455040000019,
                    "velocity": 0.7007874015748031,
                    "duration": 0.5429860000000133
                },
                {
                    "name": "B5",
                    "midi": 83,
                    "time": 251.9455040000019,
                    "velocity": 0.7874015748031497,
                    "duration": 0.5429860000000133
                },
                {
                    "name": "E5",
                    "midi": 76,
                    "time": 251.9455040000019,
                    "velocity": 0.7007874015748031,
                    "duration": 0.5429860000000133
                },
                {
                    "name": "B4",
                    "midi": 71,
                    "time": 251.9455040000019,
                    "velocity": 0.7007874015748031,
                    "duration": 0.5429860000000133
                },
                {
                    "name": "G5",
                    "midi": 79,
                    "time": 252.48849000000192,
                    "velocity": 0.6929133858267716,
                    "duration": 0.13574650000001043
                },
                {
                    "name": "G4",
                    "midi": 67,
                    "time": 252.48849000000192,
                    "velocity": 0.6220472440944882,
                    "duration": 0.13574650000001043
                },
                {
                    "name": "D#5",
                    "midi": 75,
                    "time": 252.48849000000192,
                    "velocity": 0.6220472440944882,
                    "duration": 0.13574650000001043
                },
                {
                    "name": "G#4",
                    "midi": 68,
                    "time": 252.75998300000194,
                    "velocity": 0.6062992125984252,
                    "duration": 0.13574650000001043
                },
                {
                    "name": "G#5",
                    "midi": 80,
                    "time": 252.75998300000194,
                    "velocity": 0.6692913385826772,
                    "duration": 0.13574650000001043
                },
                {
                    "name": "E5",
                    "midi": 76,
                    "time": 252.75998300000194,
                    "velocity": 0.6062992125984252,
                    "duration": 0.13574650000001043
                },
                {
                    "name": "E5",
                    "midi": 76,
                    "time": 253.03147600000196,
                    "velocity": 0.7559055118110236,
                    "duration": 0.5429860000000133
                },
                {
                    "name": "C#5",
                    "midi": 73,
                    "time": 253.03147600000196,
                    "velocity": 0.6771653543307087,
                    "duration": 0.5429860000000133
                },
                {
                    "name": "G#4",
                    "midi": 68,
                    "time": 253.03147600000196,
                    "velocity": 0.6771653543307087,
                    "duration": 0.5429860000000133
                },
                {
                    "name": "E4",
                    "midi": 64,
                    "time": 253.03147600000196,
                    "velocity": 0.6771653543307087,
                    "duration": 0.5429860000000133
                },
                {
                    "name": "C4",
                    "midi": 60,
                    "time": 253.57446200000197,
                    "velocity": 0.5826771653543307,
                    "duration": 0.13574650000001043
                },
                {
                    "name": "C5",
                    "midi": 72,
                    "time": 253.57446200000197,
                    "velocity": 0.6535433070866141,
                    "duration": 0.13574650000001043
                },
                {
                    "name": "G#4",
                    "midi": 68,
                    "time": 253.57446200000197,
                    "velocity": 0.5826771653543307,
                    "duration": 0.13574650000001043
                },
                {
                    "name": "C#5",
                    "midi": 73,
                    "time": 253.845955000002,
                    "velocity": 0.6535433070866141,
                    "duration": 0.13574650000001043
                },
                {
                    "name": "E4",
                    "midi": 64,
                    "time": 253.845955000002,
                    "velocity": 0.5826771653543307,
                    "duration": 0.13574650000001043
                },
                {
                    "name": "C#4",
                    "midi": 61,
                    "time": 253.845955000002,
                    "velocity": 0.5826771653543307,
                    "duration": 0.13574650000001043
                },
                {
                    "name": "B3",
                    "midi": 59,
                    "time": 254.117448000002,
                    "velocity": 0.6377952755905512,
                    "duration": 0.5429860000000133
                },
                {
                    "name": "B4",
                    "midi": 71,
                    "time": 254.117448000002,
                    "velocity": 0.7165354330708661,
                    "duration": 0.5429860000000133
                },
                {
                    "name": "D4",
                    "midi": 62,
                    "time": 254.117448000002,
                    "velocity": 0.6377952755905512,
                    "duration": 0.5429860000000133
                },
                {
                    "name": "F4",
                    "midi": 65,
                    "time": 254.117448000002,
                    "velocity": 0.6377952755905512,
                    "duration": 0.5429860000000133
                },
                {
                    "name": "D#4",
                    "midi": 63,
                    "time": 254.66043400000203,
                    "velocity": 0.6535433070866141,
                    "duration": 0.13574650000001043
                },
                {
                    "name": "A#3",
                    "midi": 58,
                    "time": 254.66043400000203,
                    "velocity": 0.6535433070866141,
                    "duration": 0.13574650000001043
                },
                {
                    "name": "A#4",
                    "midi": 70,
                    "time": 254.66043400000203,
                    "velocity": 0.7322834645669292,
                    "duration": 0.5429860000000417
                },
                {
                    "name": "B3",
                    "midi": 59,
                    "time": 254.93192700000205,
                    "velocity": 0.6456692913385826,
                    "duration": 0.13574650000001043
                },
                {
                    "name": "D#4",
                    "midi": 63,
                    "time": 254.93192700000205,
                    "velocity": 0.6456692913385826,
                    "duration": 0.13574650000001043
                },
                {
                    "name": "G#4",
                    "midi": 68,
                    "time": 254.93192700000205,
                    "velocity": 0.7244094488188977,
                    "duration": 0.13574650000001043
                },
                {
                    "name": "F#4",
                    "midi": 66,
                    "time": 255.20342000000207,
                    "velocity": 0.7322834645669292,
                    "duration": 0.40723950000000286
                },
                {
                    "name": "A#3",
                    "midi": 58,
                    "time": 255.20342000000207,
                    "velocity": 0.6535433070866141,
                    "duration": 0.40723950000000286
                },
                {
                    "name": "D#4",
                    "midi": 63,
                    "time": 255.20342000000207,
                    "velocity": 0.6535433070866141,
                    "duration": 0.40723950000000286
                },
                {
                    "name": "A#4",
                    "midi": 70,
                    "time": 255.20342000000207,
                    "velocity": 0.7322834645669292,
                    "duration": 0.40723950000000286
                },
                {
                    "name": "G#3",
                    "midi": 56,
                    "time": 255.74640600000208,
                    "velocity": 0.6535433070866141,
                    "duration": 0.40723950000000286
                },
                {
                    "name": "D4",
                    "midi": 62,
                    "time": 255.74640600000208,
                    "velocity": 0.6535433070866141,
                    "duration": 0.40723950000000286
                },
                {
                    "name": "A#4",
                    "midi": 70,
                    "time": 255.74640600000208,
                    "velocity": 0.7322834645669292,
                    "duration": 0.40723950000000286
                },
                {
                    "name": "F4",
                    "midi": 65,
                    "time": 255.74640600000208,
                    "velocity": 0.6535433070866141,
                    "duration": 0.40723950000000286
                },
                {
                    "name": "A#3",
                    "midi": 58,
                    "time": 256.28939200000207,
                    "velocity": 0.6535433070866141,
                    "duration": 0.135746499999982
                },
                {
                    "name": "F#3",
                    "midi": 54,
                    "time": 256.28939200000207,
                    "velocity": 0.6535433070866141,
                    "duration": 0.135746499999982
                },
                {
                    "name": "D#4",
                    "midi": 63,
                    "time": 256.28939200000207,
                    "velocity": 0.7322834645669292,
                    "duration": 0.135746499999982
                },
                {
                    "name": "A#5",
                    "midi": 82,
                    "time": 256.69663150000207,
                    "velocity": 0.6220472440944882,
                    "duration": 0.135746499999982
                },
                {
                    "name": "A#4",
                    "midi": 70,
                    "time": 256.69663150000207,
                    "velocity": 0.5275590551181102,
                    "duration": 0.135746499999982
                },
                {
                    "name": "F4",
                    "midi": 65,
                    "time": 256.83237800000205,
                    "velocity": 0.5669291338582677,
                    "duration": 0.135746499999982
                },
                {
                    "name": "F#4",
                    "midi": 66,
                    "time": 257.23961750000205,
                    "velocity": 0.5275590551181102,
                    "duration": 0.135746499999982
                },
                {
                    "name": "F#5",
                    "midi": 78,
                    "time": 257.23961750000205,
                    "velocity": 0.6220472440944882,
                    "duration": 0.135746499999982
                },
                {
                    "name": "D#4",
                    "midi": 63,
                    "time": 257.37536400000204,
                    "velocity": 0.5669291338582677,
                    "duration": 0.135746499999982
                },
                {
                    "name": "A#5",
                    "midi": 82,
                    "time": 257.78260350000204,
                    "velocity": 0.6377952755905512,
                    "duration": 0.135746499999982
                },
                {
                    "name": "A#4",
                    "midi": 70,
                    "time": 257.78260350000204,
                    "velocity": 0.5433070866141733,
                    "duration": 0.135746499999982
                },
                {
                    "name": "F4",
                    "midi": 65,
                    "time": 257.918350000002,
                    "velocity": 0.5826771653543307,
                    "duration": 0.135746499999982
                },
                {
                    "name": "F#4",
                    "midi": 66,
                    "time": 258.325589500002,
                    "velocity": 0.5433070866141733,
                    "duration": 0.135746499999982
                },
                {
                    "name": "F#5",
                    "midi": 78,
                    "time": 258.325589500002,
                    "velocity": 0.6377952755905512,
                    "duration": 0.135746499999982
                },
                {
                    "name": "D#4",
                    "midi": 63,
                    "time": 258.461336000002,
                    "velocity": 0.5826771653543307,
                    "duration": 0.135746499999982
                },
                {
                    "name": "D#5",
                    "midi": 75,
                    "time": 258.868575500002,
                    "velocity": 0.5748031496062992,
                    "duration": 0.135746499999982
                },
                {
                    "name": "D#6",
                    "midi": 87,
                    "time": 258.868575500002,
                    "velocity": 0.6771653543307087,
                    "duration": 0.135746499999982
                },
                {
                    "name": "F4",
                    "midi": 65,
                    "time": 259.004322000002,
                    "velocity": 0.5826771653543307,
                    "duration": 0.135746499999982
                },
                {
                    "name": "F6",
                    "midi": 89,
                    "time": 259.411561500002,
                    "velocity": 0.6456692913385826,
                    "duration": 0.135746499999982
                },
                {
                    "name": "F5",
                    "midi": 77,
                    "time": 259.411561500002,
                    "velocity": 0.5433070866141733,
                    "duration": 0.135746499999982
                },
                {
                    "name": "F#4",
                    "midi": 66,
                    "time": 259.547308000002,
                    "velocity": 0.5826771653543307,
                    "duration": 0.135746499999982
                },
                {
                    "name": "F#5",
                    "midi": 78,
                    "time": 259.954547500002,
                    "velocity": 0.5433070866141733,
                    "duration": 0.135746499999982
                },
                {
                    "name": "F#6",
                    "midi": 90,
                    "time": 259.954547500002,
                    "velocity": 0.6456692913385826,
                    "duration": 0.135746499999982
                },
                {
                    "name": "A4",
                    "midi": 69,
                    "time": 260.09029400000196,
                    "velocity": 0.5826771653543307,
                    "duration": 0.135746499999982
                },
                {
                    "name": "A6",
                    "midi": 93,
                    "time": 260.49753350000196,
                    "velocity": 0.7322834645669292,
                    "duration": 0.135746499999982
                },
                {
                    "name": "A5",
                    "midi": 81,
                    "time": 260.49753350000196,
                    "velocity": 0.6220472440944882,
                    "duration": 0.135746499999982
                },
                {
                    "name": "A#6",
                    "midi": 94,
                    "time": 260.63328000000195,
                    "velocity": 0.6535433070866141,
                    "duration": 0.5429859999999849
                },
                {
                    "name": "A#5",
                    "midi": 82,
                    "time": 260.63328000000195,
                    "velocity": 0.5826771653543307,
                    "duration": 0.5429859999999849
                },
                {
                    "name": "F#6",
                    "midi": 90,
                    "time": 260.63328000000195,
                    "velocity": 0.5826771653543307,
                    "duration": 0.5429859999999849
                },
                {
                    "name": "D#6",
                    "midi": 87,
                    "time": 260.63328000000195,
                    "velocity": 0.5826771653543307,
                    "duration": 0.5429859999999849
                },
                {
                    "name": "G#4",
                    "midi": 68,
                    "time": 261.17626600000193,
                    "velocity": 0.6220472440944882,
                    "duration": 0.5429859999999849
                },
                {
                    "name": "D4",
                    "midi": 62,
                    "time": 261.17626600000193,
                    "velocity": 0.6220472440944882,
                    "duration": 0.5429859999999849
                },
                {
                    "name": "A#4",
                    "midi": 70,
                    "time": 261.17626600000193,
                    "velocity": 0.6220472440944882,
                    "duration": 0.5429859999999849
                },
                {
                    "name": "D5",
                    "midi": 74,
                    "time": 261.17626600000193,
                    "velocity": 0.6929133858267716,
                    "duration": 0.5429859999999849
                },
                {
                    "name": "D#4",
                    "midi": 63,
                    "time": 261.7192520000019,
                    "velocity": 0.5511811023622047,
                    "duration": 0.135746499999982
                },
                {
                    "name": "F#4",
                    "midi": 66,
                    "time": 261.7192520000019,
                    "velocity": 0.5511811023622047,
                    "duration": 0.135746499999982
                },
                {
                    "name": "D#5",
                    "midi": 75,
                    "time": 261.7192520000019,
                    "velocity": 0.6220472440944882,
                    "duration": 0.135746499999982
                },
                {
                    "name": "B5",
                    "midi": 83,
                    "time": 262.1264915000019,
                    "velocity": 0.5590551181102362,
                    "duration": 0.135746499999982
                },
                {
                    "name": "B4",
                    "midi": 71,
                    "time": 262.1264915000019,
                    "velocity": 0.4645669291338583,
                    "duration": 0.135746499999982
                },
                {
                    "name": "F#4",
                    "midi": 66,
                    "time": 262.2622380000019,
                    "velocity": 0.5196850393700787,
                    "duration": 0.135746499999982
                },
                {
                    "name": "G5",
                    "midi": 79,
                    "time": 262.6694775000019,
                    "velocity": 0.5748031496062992,
                    "duration": 0.135746499999982
                },
                {
                    "name": "G4",
                    "midi": 67,
                    "time": 262.6694775000019,
                    "velocity": 0.5748031496062992,
                    "duration": 0.135746499999982
                },
                {
                    "name": "D#4",
                    "midi": 63,
                    "time": 262.8052240000019,
                    "velocity": 0.5196850393700787,
                    "duration": 0.135746499999982
                },
                {
                    "name": "B5",
                    "midi": 83,
                    "time": 263.2124635000019,
                    "velocity": 0.6062992125984252,
                    "duration": 0.135746499999982
                },
                {
                    "name": "B4",
                    "midi": 71,
                    "time": 263.2124635000019,
                    "velocity": 0.5118110236220472,
                    "duration": 0.135746499999982
                },
                {
                    "name": "F#4",
                    "midi": 66,
                    "time": 263.34821000000187,
                    "velocity": 0.5196850393700787,
                    "duration": 0.135746499999982
                },
                {
                    "name": "G5",
                    "midi": 79,
                    "time": 263.7554495000019,
                    "velocity": 0.5826771653543307,
                    "duration": 0.135746499999982
                },
                {
                    "name": "G4",
                    "midi": 67,
                    "time": 263.7554495000019,
                    "velocity": 0.4881889763779528,
                    "duration": 0.135746499999982
                },
                {
                    "name": "D#4",
                    "midi": 63,
                    "time": 263.89119600000186,
                    "velocity": 0.5196850393700787,
                    "duration": 0.135746499999982
                },
                {
                    "name": "F#6",
                    "midi": 90,
                    "time": 264.29843550000186,
                    "velocity": 0.6062992125984252,
                    "duration": 0.135746499999982
                },
                {
                    "name": "F#5",
                    "midi": 78,
                    "time": 264.29843550000186,
                    "velocity": 0.44881889763779526,
                    "duration": 0.135746499999982
                },
                {
                    "name": "F4",
                    "midi": 65,
                    "time": 264.43418200000184,
                    "velocity": 0.5669291338582677,
                    "duration": 0.135746499999982
                },
                {
                    "name": "F6",
                    "midi": 89,
                    "time": 264.84142150000184,
                    "velocity": 0.6299212598425197,
                    "duration": 0.135746499999982
                },
                {
                    "name": "F5",
                    "midi": 77,
                    "time": 264.84142150000184,
                    "velocity": 0.47244094488188976,
                    "duration": 0.135746499999982
                },
                {
                    "name": "D#4",
                    "midi": 63,
                    "time": 264.9771680000018,
                    "velocity": 0.5590551181102362,
                    "duration": 0.135746499999982
                },
                {
                    "name": "D#6",
                    "midi": 87,
                    "time": 265.3844075000018,
                    "velocity": 0.6299212598425197,
                    "duration": 0.135746499999982
                },
                {
                    "name": "D#5",
                    "midi": 75,
                    "time": 265.3844075000018,
                    "velocity": 0.47244094488188976,
                    "duration": 0.135746499999982
                },
                {
                    "name": "A3",
                    "midi": 57,
                    "time": 265.5201540000018,
                    "velocity": 0.5433070866141733,
                    "duration": 0.135746499999982
                },
                {
                    "name": "A6",
                    "midi": 93,
                    "time": 265.9273935000018,
                    "velocity": 0.6771653543307087,
                    "duration": 0.135746499999982
                },
                {
                    "name": "A5",
                    "midi": 81,
                    "time": 265.9273935000018,
                    "velocity": 0.6141732283464567,
                    "duration": 0.135746499999982
                },
                {
                    "name": "A#6",
                    "midi": 94,
                    "time": 266.0631400000018,
                    "velocity": 0.6456692913385826,
                    "duration": 0.5429859999999849
                },
                {
                    "name": "F#6",
                    "midi": 90,
                    "time": 266.0631400000018,
                    "velocity": 0.5748031496062992,
                    "duration": 0.5429859999999849
                },
                {
                    "name": "D#6",
                    "midi": 87,
                    "time": 266.0631400000018,
                    "velocity": 0.5748031496062992,
                    "duration": 0.5429859999999849
                },
                {
                    "name": "A#5",
                    "midi": 82,
                    "time": 266.0631400000018,
                    "velocity": 0.5748031496062992,
                    "duration": 0.5429859999999849
                },
                {
                    "name": "D#6",
                    "midi": 87,
                    "time": 266.6061260000018,
                    "velocity": 0.6141732283464567,
                    "duration": 0.5429859999999849
                },
                {
                    "name": "D#5",
                    "midi": 75,
                    "time": 266.6061260000018,
                    "velocity": 0.5590551181102362,
                    "duration": 0.5429859999999849
                },
                {
                    "name": "G#5",
                    "midi": 80,
                    "time": 266.6061260000018,
                    "velocity": 0.5590551181102362,
                    "duration": 0.5429859999999849
                },
                {
                    "name": "B5",
                    "midi": 83,
                    "time": 266.6061260000018,
                    "velocity": 0.6141732283464567,
                    "duration": 0.5429859999999849
                },
                {
                    "name": "D#4",
                    "midi": 63,
                    "time": 267.14911200000176,
                    "velocity": 0.5196850393700787,
                    "duration": 0.5429859999999849
                },
                {
                    "name": "A4",
                    "midi": 69,
                    "time": 267.14911200000176,
                    "velocity": 0.5196850393700787,
                    "duration": 0.5429859999999849
                },
                {
                    "name": "C5",
                    "midi": 72,
                    "time": 267.14911200000176,
                    "velocity": 0.5196850393700787,
                    "duration": 0.5429859999999849
                },
                {
                    "name": "D#5",
                    "midi": 75,
                    "time": 267.14911200000176,
                    "velocity": 0.5826771653543307,
                    "duration": 0.5429859999999849
                },
                {
                    "name": "D4",
                    "midi": 62,
                    "time": 267.69209800000175,
                    "velocity": 0.49606299212598426,
                    "duration": 0.5429859999999849
                },
                {
                    "name": "F4",
                    "midi": 65,
                    "time": 267.69209800000175,
                    "velocity": 0.49606299212598426,
                    "duration": 0.5429859999999849
                },
                {
                    "name": "G#3",
                    "midi": 56,
                    "time": 267.69209800000175,
                    "velocity": 0.49606299212598426,
                    "duration": 0.5429859999999849
                },
                {
                    "name": "A#3",
                    "midi": 58,
                    "time": 267.69209800000175,
                    "velocity": 0.49606299212598426,
                    "duration": 0.5429859999999849
                },
                {
                    "name": "A#4",
                    "midi": 70,
                    "time": 267.69209800000175,
                    "velocity": 0.5590551181102362,
                    "duration": 0.5429859999999849
                },
                {
                    "name": "D#4",
                    "midi": 63,
                    "time": 270.40702800000173,
                    "velocity": 0.41732283464566927,
                    "duration": 0.09049766666669257
                },
                {
                    "name": "D4",
                    "midi": 62,
                    "time": 270.5880233333351,
                    "velocity": 0.4015748031496063,
                    "duration": 0.09049766666669257
                },
                {
                    "name": "D#4",
                    "midi": 63,
                    "time": 270.7690186666685,
                    "velocity": 0.41732283464566927,
                    "duration": 0.09049766666669257
                },
                {
                    "name": "F4",
                    "midi": 65,
                    "time": 270.9500140000019,
                    "velocity": 0.41732283464566927,
                    "duration": 0.09049766666669257
                },
                {
                    "name": "D#4",
                    "midi": 63,
                    "time": 271.13100933333527,
                    "velocity": 0.4015748031496063,
                    "duration": 0.09049766666669257
                },
                {
                    "name": "D4",
                    "midi": 62,
                    "time": 271.31200466666866,
                    "velocity": 0.41732283464566927,
                    "duration": 0.09049766666669257
                },
                {
                    "name": "F#4",
                    "midi": 66,
                    "time": 271.49300000000204,
                    "velocity": 0.4409448818897638,
                    "duration": 0.09049766666669257
                },
                {
                    "name": "D4",
                    "midi": 62,
                    "time": 271.6739953333354,
                    "velocity": 0.41732283464566927,
                    "duration": 0.09049766666669257
                },
                {
                    "name": "F4",
                    "midi": 65,
                    "time": 271.6739953333354,
                    "velocity": 0.41732283464566927,
                    "duration": 0.09049766666669257
                },
                {
                    "name": "D#4",
                    "midi": 63,
                    "time": 271.8549906666688,
                    "velocity": 0.4409448818897638,
                    "duration": 0.09049766666669257
                },
                {
                    "name": "F#4",
                    "midi": 66,
                    "time": 271.8549906666688,
                    "velocity": 0.4409448818897638,
                    "duration": 0.09049766666669257
                },
                {
                    "name": "G#4",
                    "midi": 68,
                    "time": 272.0359860000022,
                    "velocity": 0.4409448818897638,
                    "duration": 0.09049766666669257
                },
                {
                    "name": "F#4",
                    "midi": 66,
                    "time": 272.2169813333356,
                    "velocity": 0.4094488188976378,
                    "duration": 0.09049766666669257
                },
                {
                    "name": "D#4",
                    "midi": 63,
                    "time": 272.2169813333356,
                    "velocity": 0.4094488188976378,
                    "duration": 0.09049766666669257
                },
                {
                    "name": "F4",
                    "midi": 65,
                    "time": 272.39797666666897,
                    "velocity": 0.4409448818897638,
                    "duration": 0.09049766666669257
                },
                {
                    "name": "D4",
                    "midi": 62,
                    "time": 272.39797666666897,
                    "velocity": 0.4409448818897638,
                    "duration": 0.09049766666669257
                },
                {
                    "name": "D#5",
                    "midi": 75,
                    "time": 272.57897200000235,
                    "velocity": 0.5196850393700787,
                    "duration": 0.09049766666669257
                },
                {
                    "name": "D6",
                    "midi": 86,
                    "time": 272.75996733333574,
                    "velocity": 0.49606299212598426,
                    "duration": 0.09049766666669257
                },
                {
                    "name": "D5",
                    "midi": 74,
                    "time": 272.75996733333574,
                    "velocity": 0.49606299212598426,
                    "duration": 0.09049766666669257
                },
                {
                    "name": "D#5",
                    "midi": 75,
                    "time": 272.9409626666691,
                    "velocity": 0.5196850393700787,
                    "duration": 0.09049766666669257
                },
                {
                    "name": "D#6",
                    "midi": 87,
                    "time": 272.9409626666691,
                    "velocity": 0.5196850393700787,
                    "duration": 0.09049766666669257
                },
                {
                    "name": "F5",
                    "midi": 77,
                    "time": 273.1219580000025,
                    "velocity": 0.5196850393700787,
                    "duration": 0.09049766666669257
                },
                {
                    "name": "D#6",
                    "midi": 87,
                    "time": 273.3029533333359,
                    "velocity": 0.49606299212598426,
                    "duration": 0.09049766666669257
                },
                {
                    "name": "D#5",
                    "midi": 75,
                    "time": 273.3029533333359,
                    "velocity": 0.49606299212598426,
                    "duration": 0.09049766666669257
                },
                {
                    "name": "F5",
                    "midi": 77,
                    "time": 273.4839486666693,
                    "velocity": 0.5196850393700787,
                    "duration": 0.09049766666669257
                },
                {
                    "name": "F6",
                    "midi": 89,
                    "time": 273.4839486666693,
                    "velocity": 0.5196850393700787,
                    "duration": 0.09049766666669257
                },
                {
                    "name": "F#5",
                    "midi": 78,
                    "time": 273.66494400000266,
                    "velocity": 0.6062992125984252,
                    "duration": 0.09049766666669257
                },
                {
                    "name": "F5",
                    "midi": 77,
                    "time": 273.84593933333605,
                    "velocity": 0.5826771653543307,
                    "duration": 0.09049766666669257
                },
                {
                    "name": "F6",
                    "midi": 89,
                    "time": 273.84593933333605,
                    "velocity": 0.5826771653543307,
                    "duration": 0.09049766666669257
                },
                {
                    "name": "F#6",
                    "midi": 90,
                    "time": 274.02693466666943,
                    "velocity": 0.6062992125984252,
                    "duration": 0.09049766666669257
                },
                {
                    "name": "F#5",
                    "midi": 78,
                    "time": 274.02693466666943,
                    "velocity": 0.6062992125984252,
                    "duration": 0.09049766666669257
                },
                {
                    "name": "G#5",
                    "midi": 80,
                    "time": 274.2079300000028,
                    "velocity": 0.6692913385826772,
                    "duration": 0.09049766666669257
                },
                {
                    "name": "F#6",
                    "midi": 90,
                    "time": 274.3889253333362,
                    "velocity": 0.6535433070866141,
                    "duration": 0.09049766666669257
                },
                {
                    "name": "F#5",
                    "midi": 78,
                    "time": 274.3889253333362,
                    "velocity": 0.6535433070866141,
                    "duration": 0.09049766666669257
                },
                {
                    "name": "F5",
                    "midi": 77,
                    "time": 274.5699206666696,
                    "velocity": 0.6692913385826772,
                    "duration": 0.09049766666669257
                },
                {
                    "name": "F6",
                    "midi": 89,
                    "time": 274.5699206666696,
                    "velocity": 0.6692913385826772,
                    "duration": 0.09049766666669257
                },
                {
                    "name": "D#6",
                    "midi": 87,
                    "time": 274.750916000003,
                    "velocity": 0.6141732283464567,
                    "duration": 0.09049766666669257
                },
                {
                    "name": "A#5",
                    "midi": 82,
                    "time": 274.750916000003,
                    "velocity": 0.6141732283464567,
                    "duration": 0.09049766666669257
                },
                {
                    "name": "F#6",
                    "midi": 90,
                    "time": 274.750916000003,
                    "velocity": 0.6771653543307087,
                    "duration": 0.09049766666669257
                },
                {
                    "name": "F#5",
                    "midi": 78,
                    "time": 274.750916000003,
                    "velocity": 0.6141732283464567,
                    "duration": 0.09049766666669257
                },
                {
                    "name": "F5",
                    "midi": 77,
                    "time": 274.93191133333636,
                    "velocity": 0.6614173228346457,
                    "duration": 0.09049766666669257
                },
                {
                    "name": "F6",
                    "midi": 89,
                    "time": 274.93191133333636,
                    "velocity": 0.6614173228346457,
                    "duration": 0.09049766666669257
                },
                {
                    "name": "F#5",
                    "midi": 78,
                    "time": 275.11290666666974,
                    "velocity": 0.6771653543307087,
                    "duration": 0.09049766666669257
                },
                {
                    "name": "F#6",
                    "midi": 90,
                    "time": 275.11290666666974,
                    "velocity": 0.6771653543307087,
                    "duration": 0.09049766666669257
                },
                {
                    "name": "D#6",
                    "midi": 87,
                    "time": 275.29390200000313,
                    "velocity": 0.6141732283464567,
                    "duration": 0.09049766666669257
                },
                {
                    "name": "B5",
                    "midi": 83,
                    "time": 275.29390200000313,
                    "velocity": 0.6141732283464567,
                    "duration": 0.09049766666669257
                },
                {
                    "name": "G#6",
                    "midi": 92,
                    "time": 275.29390200000313,
                    "velocity": 0.6771653543307087,
                    "duration": 0.09049766666669257
                },
                {
                    "name": "G#5",
                    "midi": 80,
                    "time": 275.29390200000313,
                    "velocity": 0.6141732283464567,
                    "duration": 0.09049766666669257
                },
                {
                    "name": "F#5",
                    "midi": 78,
                    "time": 275.4748973333365,
                    "velocity": 0.6535433070866141,
                    "duration": 0.09049766666669257
                },
                {
                    "name": "F#6",
                    "midi": 90,
                    "time": 275.4748973333365,
                    "velocity": 0.6535433070866141,
                    "duration": 0.09049766666669257
                },
                {
                    "name": "F6",
                    "midi": 89,
                    "time": 275.6558926666699,
                    "velocity": 0.6771653543307087,
                    "duration": 0.09049766666669257
                },
                {
                    "name": "F5",
                    "midi": 77,
                    "time": 275.6558926666699,
                    "velocity": 0.6771653543307087,
                    "duration": 0.09049766666669257
                },
                {
                    "name": "F#6",
                    "midi": 90,
                    "time": 275.8368880000033,
                    "velocity": 0.6929133858267716,
                    "duration": 0.09049766666669257
                },
                {
                    "name": "D#6",
                    "midi": 87,
                    "time": 275.8368880000033,
                    "velocity": 0.6220472440944882,
                    "duration": 0.09049766666669257
                },
                {
                    "name": "F#5",
                    "midi": 78,
                    "time": 275.8368880000033,
                    "velocity": 0.6220472440944882,
                    "duration": 0.09049766666669257
                },
                {
                    "name": "A#5",
                    "midi": 82,
                    "time": 275.8368880000033,
                    "velocity": 0.6220472440944882,
                    "duration": 0.09049766666669257
                },
                {
                    "name": "F5",
                    "midi": 77,
                    "time": 276.01788333333667,
                    "velocity": 0.6692913385826772,
                    "duration": 0.09049766666669257
                },
                {
                    "name": "F6",
                    "midi": 89,
                    "time": 276.01788333333667,
                    "velocity": 0.6692913385826772,
                    "duration": 0.09049766666669257
                },
                {
                    "name": "F#6",
                    "midi": 90,
                    "time": 276.19887866667005,
                    "velocity": 0.6929133858267716,
                    "duration": 0.09049766666669257
                },
                {
                    "name": "F#5",
                    "midi": 78,
                    "time": 276.19887866667005,
                    "velocity": 0.6929133858267716,
                    "duration": 0.09049766666669257
                },
                {
                    "name": "B5",
                    "midi": 83,
                    "time": 276.37987400000344,
                    "velocity": 0.6220472440944882,
                    "duration": 0.09049766666669257
                },
                {
                    "name": "D#6",
                    "midi": 87,
                    "time": 276.37987400000344,
                    "velocity": 0.6220472440944882,
                    "duration": 0.09049766666669257
                },
                {
                    "name": "G#6",
                    "midi": 92,
                    "time": 276.37987400000344,
                    "velocity": 0.6929133858267716,
                    "duration": 0.09049766666669257
                },
                {
                    "name": "G#5",
                    "midi": 80,
                    "time": 276.37987400000344,
                    "velocity": 0.6220472440944882,
                    "duration": 0.09049766666669257
                },
                {
                    "name": "F#6",
                    "midi": 90,
                    "time": 276.5608693333368,
                    "velocity": 0.6692913385826772,
                    "duration": 0.09049766666669257
                },
                {
                    "name": "F#5",
                    "midi": 78,
                    "time": 276.5608693333368,
                    "velocity": 0.6692913385826772,
                    "duration": 0.09049766666669257
                },
                {
                    "name": "F5",
                    "midi": 77,
                    "time": 276.7418646666702,
                    "velocity": 0.6929133858267716,
                    "duration": 0.09049766666669257
                },
                {
                    "name": "F6",
                    "midi": 89,
                    "time": 276.7418646666702,
                    "velocity": 0.6929133858267716,
                    "duration": 0.09049766666669257
                },
                {
                    "name": "A#5",
                    "midi": 82,
                    "time": 276.9228600000036,
                    "velocity": 0.6220472440944882,
                    "duration": 0.09049766666669257
                },
                {
                    "name": "D#6",
                    "midi": 87,
                    "time": 276.9228600000036,
                    "velocity": 0.6220472440944882,
                    "duration": 0.09049766666669257
                },
                {
                    "name": "F#6",
                    "midi": 90,
                    "time": 276.9228600000036,
                    "velocity": 0.6929133858267716,
                    "duration": 0.09049766666669257
                },
                {
                    "name": "F#5",
                    "midi": 78,
                    "time": 276.9228600000036,
                    "velocity": 0.6220472440944882,
                    "duration": 0.09049766666669257
                },
                {
                    "name": "F5",
                    "midi": 77,
                    "time": 277.103855333337,
                    "velocity": 0.6692913385826772,
                    "duration": 0.09049766666669257
                },
                {
                    "name": "F6",
                    "midi": 89,
                    "time": 277.103855333337,
                    "velocity": 0.6692913385826772,
                    "duration": 0.09049766666669257
                },
                {
                    "name": "D#5",
                    "midi": 75,
                    "time": 277.28485066667037,
                    "velocity": 0.6929133858267716,
                    "duration": 0.09049766666669257
                },
                {
                    "name": "D#6",
                    "midi": 87,
                    "time": 277.28485066667037,
                    "velocity": 0.6929133858267716,
                    "duration": 0.09049766666669257
                },
                {
                    "name": "D#6",
                    "midi": 87,
                    "time": 277.46584600000375,
                    "velocity": 0.6220472440944882,
                    "duration": 0.09049766666669257
                },
                {
                    "name": "B5",
                    "midi": 83,
                    "time": 277.46584600000375,
                    "velocity": 0.6220472440944882,
                    "duration": 0.09049766666669257
                },
                {
                    "name": "F#6",
                    "midi": 90,
                    "time": 277.46584600000375,
                    "velocity": 0.6929133858267716,
                    "duration": 0.09049766666669257
                },
                {
                    "name": "F#5",
                    "midi": 78,
                    "time": 277.46584600000375,
                    "velocity": 0.6220472440944882,
                    "duration": 0.09049766666669257
                },
                {
                    "name": "F6",
                    "midi": 89,
                    "time": 277.64684133333714,
                    "velocity": 0.6692913385826772,
                    "duration": 0.09049766666669257
                },
                {
                    "name": "F5",
                    "midi": 77,
                    "time": 277.64684133333714,
                    "velocity": 0.6692913385826772,
                    "duration": 0.09049766666669257
                },
                {
                    "name": "D#6",
                    "midi": 87,
                    "time": 277.8278366666705,
                    "velocity": 0.6929133858267716,
                    "duration": 0.09049766666669257
                },
                {
                    "name": "D#5",
                    "midi": 75,
                    "time": 277.8278366666705,
                    "velocity": 0.6929133858267716,
                    "duration": 0.09049766666669257
                },
                {
                    "name": "F#6",
                    "midi": 90,
                    "time": 278.0088320000039,
                    "velocity": 0.7007874015748031,
                    "duration": 0.09049766666669257
                },
                {
                    "name": "F#5",
                    "midi": 78,
                    "time": 278.0088320000039,
                    "velocity": 0.6220472440944882,
                    "duration": 0.09049766666669257
                },
                {
                    "name": "D#6",
                    "midi": 87,
                    "time": 278.0088320000039,
                    "velocity": 0.6220472440944882,
                    "duration": 0.09049766666669257
                },
                {
                    "name": "C6",
                    "midi": 84,
                    "time": 278.0088320000039,
                    "velocity": 0.6220472440944882,
                    "duration": 0.09049766666669257
                },
                {
                    "name": "A5",
                    "midi": 81,
                    "time": 278.0088320000039,
                    "velocity": 0.6220472440944882,
                    "duration": 0.09049766666669257
                },
                {
                    "name": "F6",
                    "midi": 89,
                    "time": 278.1898273333373,
                    "velocity": 0.6692913385826772,
                    "duration": 0.09049766666669257
                },
                {
                    "name": "F5",
                    "midi": 77,
                    "time": 278.1898273333373,
                    "velocity": 0.6692913385826772,
                    "duration": 0.09049766666669257
                },
                {
                    "name": "D#6",
                    "midi": 87,
                    "time": 278.3708226666707,
                    "velocity": 0.7007874015748031,
                    "duration": 0.09049766666669257
                },
                {
                    "name": "D#5",
                    "midi": 75,
                    "time": 278.3708226666707,
                    "velocity": 0.7007874015748031,
                    "duration": 0.09049766666669257
                },
                {
                    "name": "A#5",
                    "midi": 82,
                    "time": 278.55181800000406,
                    "velocity": 0.6220472440944882,
                    "duration": 0.09049766666669257
                },
                {
                    "name": "F6",
                    "midi": 89,
                    "time": 278.55181800000406,
                    "velocity": 0.7007874015748031,
                    "duration": 0.09049766666669257
                },
                {
                    "name": "D6",
                    "midi": 86,
                    "time": 278.55181800000406,
                    "velocity": 0.6220472440944882,
                    "duration": 0.09049766666669257
                },
                {
                    "name": "F5",
                    "midi": 77,
                    "time": 278.55181800000406,
                    "velocity": 0.6220472440944882,
                    "duration": 0.09049766666669257
                },
                {
                    "name": "A#4",
                    "midi": 70,
                    "time": 278.8233110000041,
                    "velocity": 0.7244094488188977,
                    "duration": 0.09049766666669257
                },
                {
                    "name": "A#5",
                    "midi": 82,
                    "time": 278.8233110000041,
                    "velocity": 0.7244094488188977,
                    "duration": 0.09049766666669257
                },
                {
                    "name": "D#5",
                    "midi": 75,
                    "time": 279.0948040000041,
                    "velocity": 0.7952755905511811,
                    "duration": 0.1809953333333283
                },
                {
                    "name": "D#6",
                    "midi": 87,
                    "time": 279.0948040000041,
                    "velocity": 0.7952755905511811,
                    "duration": 0.1809953333333283
                },
                {
                    "name": "F#5",
                    "midi": 78,
                    "time": 279.6377900000041,
                    "velocity": 0.6771653543307087,
                    "duration": 0.5429859999999849
                },
                {
                    "name": "B5",
                    "midi": 83,
                    "time": 279.6377900000041,
                    "velocity": 0.6771653543307087,
                    "duration": 0.5429859999999849
                },
                {
                    "name": "D#6",
                    "midi": 87,
                    "time": 279.6377900000041,
                    "velocity": 0.7559055118110236,
                    "duration": 0.5429859999999849
                },
                {
                    "name": "D#5",
                    "midi": 75,
                    "time": 279.6377900000041,
                    "velocity": 0.6771653543307087,
                    "duration": 0.5429859999999849
                },
                {
                    "name": "C#6",
                    "midi": 85,
                    "time": 280.1807760000041,
                    "velocity": 0.7559055118110236,
                    "duration": 0.5429859999999849
                },
                {
                    "name": "A#5",
                    "midi": 82,
                    "time": 280.1807760000041,
                    "velocity": 0.6771653543307087,
                    "duration": 0.5429859999999849
                },
                {
                    "name": "F#5",
                    "midi": 78,
                    "time": 280.1807760000041,
                    "velocity": 0.6771653543307087,
                    "duration": 0.5429859999999849
                },
                {
                    "name": "C#5",
                    "midi": 73,
                    "time": 280.1807760000041,
                    "velocity": 0.6771653543307087,
                    "duration": 0.5429859999999849
                },
                {
                    "name": "G#5",
                    "midi": 80,
                    "time": 280.72376200000406,
                    "velocity": 0.6456692913385826,
                    "duration": 0.5429859999999849
                },
                {
                    "name": "B5",
                    "midi": 83,
                    "time": 280.72376200000406,
                    "velocity": 0.7244094488188977,
                    "duration": 0.5429859999999849
                },
                {
                    "name": "B4",
                    "midi": 71,
                    "time": 280.72376200000406,
                    "velocity": 0.6456692913385826,
                    "duration": 0.5429859999999849
                },
                {
                    "name": "D#5",
                    "midi": 75,
                    "time": 280.72376200000406,
                    "velocity": 0.6456692913385826,
                    "duration": 0.5429859999999849
                },
                {
                    "name": "A#4",
                    "midi": 70,
                    "time": 281.26674800000404,
                    "velocity": 0.6771653543307087,
                    "duration": 1.0859720000000266
                },
                {
                    "name": "A#5",
                    "midi": 82,
                    "time": 281.26674800000404,
                    "velocity": 0.7559055118110236,
                    "duration": 2.17194400000011
                },
                {
                    "name": "D#5",
                    "midi": 75,
                    "time": 281.26674800000404,
                    "velocity": 0.6771653543307087,
                    "duration": 1.0859720000000266
                },
                {
                    "name": "F#5",
                    "midi": 78,
                    "time": 281.26674800000404,
                    "velocity": 0.6771653543307087,
                    "duration": 2.17194400000011
                },
                {
                    "name": "A#4",
                    "midi": 70,
                    "time": 282.35272000000407,
                    "velocity": 0.7086614173228346,
                    "duration": 0.27149300000002086
                },
                {
                    "name": "D#4",
                    "midi": 63,
                    "time": 282.35272000000407,
                    "velocity": 0.6299212598425197,
                    "duration": 0.27149300000002086
                },
                {
                    "name": "F#4",
                    "midi": 66,
                    "time": 282.35272000000407,
                    "velocity": 0.6299212598425197,
                    "duration": 0.27149300000002086
                },
                {
                    "name": "D#5",
                    "midi": 75,
                    "time": 282.35272000000407,
                    "velocity": 0.7086614173228346,
                    "duration": 0.27149300000002086
                },
                {
                    "name": "D#4",
                    "midi": 63,
                    "time": 282.8957060000041,
                    "velocity": 0.6299212598425197,
                    "duration": 0.27149300000002086
                },
                {
                    "name": "D#5",
                    "midi": 75,
                    "time": 282.8957060000041,
                    "velocity": 0.7086614173228346,
                    "duration": 0.27149300000002086
                },
                {
                    "name": "F#4",
                    "midi": 66,
                    "time": 282.8957060000041,
                    "velocity": 0.6299212598425197,
                    "duration": 0.27149300000002086
                },
                {
                    "name": "A#4",
                    "midi": 70,
                    "time": 282.8957060000041,
                    "velocity": 0.6299212598425197,
                    "duration": 0.27149300000002086
                },
                {
                    "name": "D#7",
                    "midi": 99,
                    "time": 283.43869200000415,
                    "velocity": 0.7086614173228346,
                    "duration": 1.0859720000000266
                },
                {
                    "name": "A#6",
                    "midi": 94,
                    "time": 283.43869200000415,
                    "velocity": 0.6299212598425197,
                    "duration": 1.0859720000000266
                },
                {
                    "name": "F#6",
                    "midi": 90,
                    "time": 283.43869200000415,
                    "velocity": 0.5984251968503937,
                    "duration": 1.0859720000000266
                },
                {
                    "name": "D#6",
                    "midi": 87,
                    "time": 283.43869200000415,
                    "velocity": 0.5905511811023622,
                    "duration": 1.0859720000000266
                }
            ],
            "controlChanges": {
                "7": [
                    {
                        "number": 7,
                        "time": 0,
                        "value": 0.7874015748031497
                    }
                ],
                "10": [
                    {
                        "number": 10,
                        "time": 0,
                        "value": 0.5039370078740157
                    }
                ],
                "64": [
                    {
                        "number": 64,
                        "time": 0,
                        "value": 0
                    }
                ],
                "91": [
                    {
                        "number": 91,
                        "time": 0,
                        "value": 1
                    },
                    {
                        "number": 91,
                        "time": 0,
                        "value": 1
                    },
                    {
                        "number": 91,
                        "time": 10.859719999999992,
                        "value": 1
                    },
                    {
                        "number": 91,
                        "time": 43.438880000000005,
                        "value": 1
                    },
                    {
                        "number": 91,
                        "time": 54.298600000000114,
                        "value": 1
                    },
                    {
                        "number": 91,
                        "time": 69.50220800000018,
                        "value": 0.47244094488188976
                    },
                    {
                        "number": 91,
                        "time": 99.9094239999998,
                        "value": 1
                    },
                    {
                        "number": 91,
                        "time": 108.59719999999994,
                        "value": 1
                    },
                    {
                        "number": 91,
                        "time": 134.66052800000006,
                        "value": 1
                    },
                    {
                        "number": 91,
                        "time": 143.34830399999984,
                        "value": 1
                    },
                    {
                        "number": 91,
                        "time": 165.0677439999998,
                        "value": 1
                    },
                    {
                        "number": 91,
                        "time": 175.9274640000003,
                        "value": 1
                    },
                    {
                        "number": 91,
                        "time": 199.8188480000005,
                        "value": 1
                    },
                    {
                        "number": 91,
                        "time": 234.56995200000142,
                        "value": 1
                    },
                    {
                        "number": 91,
                        "time": 245.42967200000186,
                        "value": 1
                    },
                    {
                        "number": 91,
                        "time": 256.28939200000207,
                        "value": 1
                    },
                    {
                        "number": 91,
                        "time": 261.7192520000019,
                        "value": 1
                    },
                    {
                        "number": 91,
                        "time": 268.23508400000173,
                        "value": 1
                    }
                ]
            },
            "id": 1,
            "name": "Piano right",
            "instrumentNumber": 0,
            "instrument": "acoustic grand piano",
            "instrumentFamily": "piano",
            "channelNumber": 0,
            "isPercussion": false
        },
        {
            "startTime": 0,
            "duration": 284.5246640000007,
            "length": 1583,
            "notes": [
                {
                    "name": "D#2",
                    "midi": 39,
                    "time": 0,
                    "velocity": 0.4881889763779528,
                    "duration": 0.542986
                },
                {
                    "name": "A#2",
                    "midi": 46,
                    "time": 0,
                    "velocity": 0.4881889763779528,
                    "duration": 0.542986
                },
                {
                    "name": "D#3",
                    "midi": 51,
                    "time": 0,
                    "velocity": 0.5511811023622047,
                    "duration": 0.542986
                },
                {
                    "name": "A#1",
                    "midi": 34,
                    "time": 0.542986,
                    "velocity": 0.3937007874015748,
                    "duration": 0.1357465
                },
                {
                    "name": "A#2",
                    "midi": 46,
                    "time": 0.542986,
                    "velocity": 0.44881889763779526,
                    "duration": 0.1357465
                },
                {
                    "name": "D#2",
                    "midi": 39,
                    "time": 0.814479,
                    "velocity": 0.3937007874015748,
                    "duration": 0.1357465
                },
                {
                    "name": "D#3",
                    "midi": 51,
                    "time": 0.814479,
                    "velocity": 0.44881889763779526,
                    "duration": 0.1357465
                },
                {
                    "name": "G#1",
                    "midi": 32,
                    "time": 1.085972,
                    "velocity": 0.4881889763779528,
                    "duration": 0.542986
                },
                {
                    "name": "G#2",
                    "midi": 44,
                    "time": 1.085972,
                    "velocity": 0.5511811023622047,
                    "duration": 0.542986
                },
                {
                    "name": "D#2",
                    "midi": 39,
                    "time": 1.628958,
                    "velocity": 0.3858267716535433,
                    "duration": 0.1357465
                },
                {
                    "name": "D#3",
                    "midi": 51,
                    "time": 1.628958,
                    "velocity": 0.4330708661417323,
                    "duration": 0.1357465
                },
                {
                    "name": "G#1",
                    "midi": 32,
                    "time": 1.900451,
                    "velocity": 0.3858267716535433,
                    "duration": 0.13574650000000021
                },
                {
                    "name": "G#2",
                    "midi": 44,
                    "time": 1.900451,
                    "velocity": 0.4330708661417323,
                    "duration": 0.13574650000000021
                },
                {
                    "name": "D#2",
                    "midi": 39,
                    "time": 2.171944,
                    "velocity": 0.4881889763779528,
                    "duration": 0.542986
                },
                {
                    "name": "A#2",
                    "midi": 46,
                    "time": 2.171944,
                    "velocity": 0.4881889763779528,
                    "duration": 0.542986
                },
                {
                    "name": "D#3",
                    "midi": 51,
                    "time": 2.171944,
                    "velocity": 0.5511811023622047,
                    "duration": 0.542986
                },
                {
                    "name": "A#1",
                    "midi": 34,
                    "time": 2.71493,
                    "velocity": 0.3779527559055118,
                    "duration": 0.13574650000000021
                },
                {
                    "name": "A#2",
                    "midi": 46,
                    "time": 2.71493,
                    "velocity": 0.41732283464566927,
                    "duration": 0.13574650000000021
                },
                {
                    "name": "D#1",
                    "midi": 27,
                    "time": 2.9864230000000003,
                    "velocity": 0.3779527559055118,
                    "duration": 0.13574649999999977
                },
                {
                    "name": "D#2",
                    "midi": 39,
                    "time": 2.9864230000000003,
                    "velocity": 0.41732283464566927,
                    "duration": 0.13574649999999977
                },
                {
                    "name": "A#1",
                    "midi": 34,
                    "time": 3.257916,
                    "velocity": 0.3779527559055118,
                    "duration": 0.13574649999999977
                },
                {
                    "name": "A#2",
                    "midi": 46,
                    "time": 3.257916,
                    "velocity": 0.41732283464566927,
                    "duration": 0.13574649999999977
                },
                {
                    "name": "A#3",
                    "midi": 58,
                    "time": 3.5294089999999994,
                    "velocity": 0.41732283464566927,
                    "duration": 0.13574649999999977
                },
                {
                    "name": "A#2",
                    "midi": 46,
                    "time": 3.5294089999999994,
                    "velocity": 0.3779527559055118,
                    "duration": 0.13574649999999977
                },
                {
                    "name": "D#2",
                    "midi": 39,
                    "time": 3.800901999999999,
                    "velocity": 0.48031496062992124,
                    "duration": 0.542986
                },
                {
                    "name": "D#3",
                    "midi": 51,
                    "time": 3.800901999999999,
                    "velocity": 0.48031496062992124,
                    "duration": 0.542986
                },
                {
                    "name": "D4",
                    "midi": 62,
                    "time": 4.343887999999999,
                    "velocity": 0.4881889763779528,
                    "duration": 0.542986
                },
                {
                    "name": "A#3",
                    "midi": 58,
                    "time": 4.343887999999999,
                    "velocity": 0.4409448818897638,
                    "duration": 0.542986
                },
                {
                    "name": "D#3",
                    "midi": 51,
                    "time": 4.343887999999999,
                    "velocity": 0.4409448818897638,
                    "duration": 0.542986
                },
                {
                    "name": "D#3",
                    "midi": 51,
                    "time": 4.886873999999999,
                    "velocity": 0.48031496062992124,
                    "duration": 0.4751127500000001
                },
                {
                    "name": "G#3",
                    "midi": 56,
                    "time": 4.886873999999999,
                    "velocity": 0.4330708661417323,
                    "duration": 0.4751127500000001
                },
                {
                    "name": "C4",
                    "midi": 60,
                    "time": 4.886873999999999,
                    "velocity": 0.48031496062992124,
                    "duration": 0.4751127500000001
                },
                {
                    "name": "D#2",
                    "midi": 39,
                    "time": 5.429859999999999,
                    "velocity": 0.41732283464566927,
                    "duration": 0.542986
                },
                {
                    "name": "A#2",
                    "midi": 46,
                    "time": 5.429859999999999,
                    "velocity": 0.41732283464566927,
                    "duration": 0.542986
                },
                {
                    "name": "D#3",
                    "midi": 51,
                    "time": 5.429859999999999,
                    "velocity": 0.47244094488188976,
                    "duration": 0.542986
                },
                {
                    "name": "A#1",
                    "midi": 34,
                    "time": 5.972845999999999,
                    "velocity": 0.3858267716535433,
                    "duration": 0.13574649999999977
                },
                {
                    "name": "A#2",
                    "midi": 46,
                    "time": 5.972845999999999,
                    "velocity": 0.4409448818897638,
                    "duration": 0.13574649999999977
                },
                {
                    "name": "D#2",
                    "midi": 39,
                    "time": 6.244338999999998,
                    "velocity": 0.3858267716535433,
                    "duration": 0.13574649999999977
                },
                {
                    "name": "D#3",
                    "midi": 51,
                    "time": 6.244338999999998,
                    "velocity": 0.4409448818897638,
                    "duration": 0.13574649999999977
                },
                {
                    "name": "C2",
                    "midi": 36,
                    "time": 6.515831999999998,
                    "velocity": 0.4645669291338583,
                    "duration": 0.542986
                },
                {
                    "name": "C3",
                    "midi": 48,
                    "time": 6.515831999999998,
                    "velocity": 0.5275590551181102,
                    "duration": 0.542986
                },
                {
                    "name": "F2",
                    "midi": 41,
                    "time": 7.058817999999998,
                    "velocity": 0.3779527559055118,
                    "duration": 0.13574649999999977
                },
                {
                    "name": "F3",
                    "midi": 53,
                    "time": 7.058817999999998,
                    "velocity": 0.41732283464566927,
                    "duration": 0.13574649999999977
                },
                {
                    "name": "C2",
                    "midi": 36,
                    "time": 7.330310999999997,
                    "velocity": 0.3779527559055118,
                    "duration": 0.13574649999999977
                },
                {
                    "name": "C3",
                    "midi": 48,
                    "time": 7.330310999999997,
                    "velocity": 0.41732283464566927,
                    "duration": 0.13574649999999977
                },
                {
                    "name": "G2",
                    "midi": 43,
                    "time": 7.601803999999997,
                    "velocity": 0.4094488188976378,
                    "duration": 0.542986
                },
                {
                    "name": "A#2",
                    "midi": 46,
                    "time": 7.601803999999997,
                    "velocity": 0.4094488188976378,
                    "duration": 0.542986
                },
                {
                    "name": "D3",
                    "midi": 50,
                    "time": 7.601803999999997,
                    "velocity": 0.4094488188976378,
                    "duration": 0.542986
                },
                {
                    "name": "G3",
                    "midi": 55,
                    "time": 7.601803999999997,
                    "velocity": 0.4645669291338583,
                    "duration": 0.542986
                },
                {
                    "name": "C2",
                    "midi": 36,
                    "time": 8.144789999999997,
                    "velocity": 0.3937007874015748,
                    "duration": 0.13574649999999977
                },
                {
                    "name": "C3",
                    "midi": 48,
                    "time": 8.144789999999997,
                    "velocity": 0.44881889763779526,
                    "duration": 0.13574649999999977
                },
                {
                    "name": "G1",
                    "midi": 31,
                    "time": 8.416282999999996,
                    "velocity": 0.3858267716535433,
                    "duration": 0.13574649999999977
                },
                {
                    "name": "G2",
                    "midi": 43,
                    "time": 8.416282999999996,
                    "velocity": 0.4409448818897638,
                    "duration": 0.13574649999999977
                },
                {
                    "name": "D1",
                    "midi": 26,
                    "time": 8.687775999999996,
                    "velocity": 0.3858267716535433,
                    "duration": 0.13574649999999977
                },
                {
                    "name": "D2",
                    "midi": 38,
                    "time": 8.687775999999996,
                    "velocity": 0.4330708661417323,
                    "duration": 0.13574649999999977
                },
                {
                    "name": "D3",
                    "midi": 50,
                    "time": 8.959268999999995,
                    "velocity": 0.4094488188976378,
                    "duration": 0.13574649999999977
                },
                {
                    "name": "D2",
                    "midi": 38,
                    "time": 8.959268999999995,
                    "velocity": 0.3700787401574803,
                    "duration": 0.13574649999999977
                },
                {
                    "name": "G1",
                    "midi": 31,
                    "time": 9.230761999999995,
                    "velocity": 0.4330708661417323,
                    "duration": 0.5429859999999991
                },
                {
                    "name": "G2",
                    "midi": 43,
                    "time": 9.230761999999995,
                    "velocity": 0.48031496062992124,
                    "duration": 0.5429859999999991
                },
                {
                    "name": "F#3",
                    "midi": 54,
                    "time": 9.773747999999994,
                    "velocity": 0.48031496062992124,
                    "duration": 0.5429859999999991
                },
                {
                    "name": "G2",
                    "midi": 43,
                    "time": 9.773747999999994,
                    "velocity": 0.4330708661417323,
                    "duration": 0.5429859999999991
                },
                {
                    "name": "G2",
                    "midi": 43,
                    "time": 10.316733999999993,
                    "velocity": 0.4094488188976378,
                    "duration": 0.47511275000000097
                },
                {
                    "name": "F3",
                    "midi": 53,
                    "time": 10.316733999999993,
                    "velocity": 0.4645669291338583,
                    "duration": 0.47511275000000097
                },
                {
                    "name": "D#2",
                    "midi": 39,
                    "time": 10.859719999999994,
                    "velocity": 0.5511811023622047,
                    "duration": 0.5429860000000009
                },
                {
                    "name": "A#2",
                    "midi": 46,
                    "time": 10.859719999999994,
                    "velocity": 0.5511811023622047,
                    "duration": 0.5429860000000009
                },
                {
                    "name": "D#3",
                    "midi": 51,
                    "time": 10.859719999999994,
                    "velocity": 0.5511811023622047,
                    "duration": 0.5429860000000009
                },
                {
                    "name": "A#1",
                    "midi": 34,
                    "time": 11.402705999999995,
                    "velocity": 0.3858267716535433,
                    "duration": 0.13574650000000155
                },
                {
                    "name": "A#2",
                    "midi": 46,
                    "time": 11.402705999999995,
                    "velocity": 0.4409448818897638,
                    "duration": 0.13574650000000155
                },
                {
                    "name": "D#2",
                    "midi": 39,
                    "time": 11.674198999999996,
                    "velocity": 0.3858267716535433,
                    "duration": 0.13574649999999977
                },
                {
                    "name": "D#3",
                    "midi": 51,
                    "time": 11.674198999999996,
                    "velocity": 0.4409448818897638,
                    "duration": 0.13574649999999977
                },
                {
                    "name": "G#1",
                    "midi": 32,
                    "time": 11.945691999999996,
                    "velocity": 0.4881889763779528,
                    "duration": 0.5429860000000009
                },
                {
                    "name": "G#2",
                    "midi": 44,
                    "time": 11.945691999999996,
                    "velocity": 0.5511811023622047,
                    "duration": 0.5429860000000009
                },
                {
                    "name": "D#2",
                    "midi": 39,
                    "time": 12.488677999999997,
                    "velocity": 0.3858267716535433,
                    "duration": 0.13574649999999977
                },
                {
                    "name": "D#3",
                    "midi": 51,
                    "time": 12.488677999999997,
                    "velocity": 0.4409448818897638,
                    "duration": 0.13574649999999977
                },
                {
                    "name": "G#1",
                    "midi": 32,
                    "time": 12.760170999999996,
                    "velocity": 0.3858267716535433,
                    "duration": 0.13574649999999977
                },
                {
                    "name": "G#2",
                    "midi": 44,
                    "time": 12.760170999999996,
                    "velocity": 0.4409448818897638,
                    "duration": 0.13574649999999977
                },
                {
                    "name": "D#2",
                    "midi": 39,
                    "time": 13.031663999999996,
                    "velocity": 0.4881889763779528,
                    "duration": 0.5429859999999991
                },
                {
                    "name": "A#2",
                    "midi": 46,
                    "time": 13.031663999999996,
                    "velocity": 0.4881889763779528,
                    "duration": 0.5429859999999991
                },
                {
                    "name": "D#3",
                    "midi": 51,
                    "time": 13.031663999999996,
                    "velocity": 0.5511811023622047,
                    "duration": 0.5429859999999991
                },
                {
                    "name": "A#1",
                    "midi": 34,
                    "time": 13.574649999999995,
                    "velocity": 0.3858267716535433,
                    "duration": 0.13574649999999977
                },
                {
                    "name": "A#2",
                    "midi": 46,
                    "time": 13.574649999999995,
                    "velocity": 0.4409448818897638,
                    "duration": 0.13574649999999977
                },
                {
                    "name": "D#1",
                    "midi": 27,
                    "time": 13.846142999999994,
                    "velocity": 0.3779527559055118,
                    "duration": 0.13574649999999977
                },
                {
                    "name": "D#2",
                    "midi": 39,
                    "time": 13.846142999999994,
                    "velocity": 0.41732283464566927,
                    "duration": 0.13574649999999977
                },
                {
                    "name": "A#1",
                    "midi": 34,
                    "time": 14.117635999999994,
                    "velocity": 0.3700787401574803,
                    "duration": 0.13574649999999977
                },
                {
                    "name": "A#2",
                    "midi": 46,
                    "time": 14.117635999999994,
                    "velocity": 0.4094488188976378,
                    "duration": 0.13574649999999977
                },
                {
                    "name": "A#3",
                    "midi": 58,
                    "time": 14.389128999999993,
                    "velocity": 0.4094488188976378,
                    "duration": 0.13574649999999977
                },
                {
                    "name": "A#2",
                    "midi": 46,
                    "time": 14.389128999999993,
                    "velocity": 0.3700787401574803,
                    "duration": 0.13574649999999977
                },
                {
                    "name": "D#2",
                    "midi": 39,
                    "time": 14.660621999999993,
                    "velocity": 0.4645669291338583,
                    "duration": 0.5429859999999991
                },
                {
                    "name": "D#3",
                    "midi": 51,
                    "time": 14.660621999999993,
                    "velocity": 0.5196850393700787,
                    "duration": 0.5429859999999991
                },
                {
                    "name": "D#2",
                    "midi": 39,
                    "time": 15.203607999999992,
                    "velocity": 0.5196850393700787,
                    "duration": 0.5429859999999991
                },
                {
                    "name": "C#2",
                    "midi": 37,
                    "time": 15.203607999999992,
                    "velocity": 0.5196850393700787,
                    "duration": 0.5429859999999991
                },
                {
                    "name": "C#3",
                    "midi": 49,
                    "time": 15.203607999999992,
                    "velocity": 0.5748031496062992,
                    "duration": 0.5429859999999991
                },
                {
                    "name": "B1",
                    "midi": 35,
                    "time": 15.746593999999991,
                    "velocity": 0.5354330708661418,
                    "duration": 0.509049375
                },
                {
                    "name": "D#2",
                    "midi": 39,
                    "time": 15.746593999999991,
                    "velocity": 0.5354330708661418,
                    "duration": 0.509049375
                },
                {
                    "name": "B2",
                    "midi": 47,
                    "time": 15.746593999999991,
                    "velocity": 0.5905511811023622,
                    "duration": 0.509049375
                },
                {
                    "name": "A#1",
                    "midi": 34,
                    "time": 16.28957999999999,
                    "velocity": 0.5669291338582677,
                    "duration": 0.5429860000000026
                },
                {
                    "name": "D#2",
                    "midi": 39,
                    "time": 16.28957999999999,
                    "velocity": 0.5669291338582677,
                    "duration": 0.5429860000000026
                },
                {
                    "name": "F#2",
                    "midi": 42,
                    "time": 16.28957999999999,
                    "velocity": 0.5669291338582677,
                    "duration": 0.5429860000000026
                },
                {
                    "name": "A#2",
                    "midi": 46,
                    "time": 16.28957999999999,
                    "velocity": 0.6377952755905512,
                    "duration": 0.5429860000000026
                },
                {
                    "name": "F#2",
                    "midi": 42,
                    "time": 16.832565999999993,
                    "velocity": 0.5275590551181102,
                    "duration": 0.271492999999996
                },
                {
                    "name": "F#3",
                    "midi": 54,
                    "time": 16.832565999999993,
                    "velocity": 0.5826771653543307,
                    "duration": 0.271492999999996
                },
                {
                    "name": "D#2",
                    "midi": 39,
                    "time": 17.10405899999999,
                    "velocity": 0.5039370078740157,
                    "duration": 0.2714930000000031
                },
                {
                    "name": "D#3",
                    "midi": 51,
                    "time": 17.10405899999999,
                    "velocity": 0.5669291338582677,
                    "duration": 0.2714930000000031
                },
                {
                    "name": "B2",
                    "midi": 47,
                    "time": 17.375551999999992,
                    "velocity": 0.5433070866141733,
                    "duration": 0.5429859999999991
                },
                {
                    "name": "D#3",
                    "midi": 51,
                    "time": 17.375551999999992,
                    "velocity": 0.5433070866141733,
                    "duration": 0.5429859999999991
                },
                {
                    "name": "F#3",
                    "midi": 54,
                    "time": 17.375551999999992,
                    "velocity": 0.5433070866141733,
                    "duration": 0.5429859999999991
                },
                {
                    "name": "B3",
                    "midi": 59,
                    "time": 17.375551999999992,
                    "velocity": 0.6062992125984252,
                    "duration": 0.5429859999999991
                },
                {
                    "name": "D#2",
                    "midi": 39,
                    "time": 17.91853799999999,
                    "velocity": 0.4881889763779528,
                    "duration": 0.27149299999999954
                },
                {
                    "name": "D#3",
                    "midi": 51,
                    "time": 17.91853799999999,
                    "velocity": 0.5511811023622047,
                    "duration": 0.27149299999999954
                },
                {
                    "name": "B1",
                    "midi": 35,
                    "time": 18.19003099999999,
                    "velocity": 0.4881889763779528,
                    "duration": 0.27149299999999954
                },
                {
                    "name": "B2",
                    "midi": 47,
                    "time": 18.19003099999999,
                    "velocity": 0.5511811023622047,
                    "duration": 0.27149299999999954
                },
                {
                    "name": "G#3",
                    "midi": 56,
                    "time": 18.46152399999999,
                    "velocity": 0.5748031496062992,
                    "duration": 0.5429859999999991
                },
                {
                    "name": "D#3",
                    "midi": 51,
                    "time": 18.46152399999999,
                    "velocity": 0.5196850393700787,
                    "duration": 0.5429859999999991
                },
                {
                    "name": "B2",
                    "midi": 47,
                    "time": 18.46152399999999,
                    "velocity": 0.5196850393700787,
                    "duration": 0.5429859999999991
                },
                {
                    "name": "G#2",
                    "midi": 44,
                    "time": 18.46152399999999,
                    "velocity": 0.5196850393700787,
                    "duration": 0.5429859999999991
                },
                {
                    "name": "B1",
                    "midi": 35,
                    "time": 19.00450999999999,
                    "velocity": 0.4645669291338583,
                    "duration": 0.27149299999999954
                },
                {
                    "name": "B2",
                    "midi": 47,
                    "time": 19.00450999999999,
                    "velocity": 0.5196850393700787,
                    "duration": 0.27149299999999954
                },
                {
                    "name": "G#1",
                    "midi": 32,
                    "time": 19.27600299999999,
                    "velocity": 0.4645669291338583,
                    "duration": 0.27149299999999954
                },
                {
                    "name": "G#2",
                    "midi": 44,
                    "time": 19.27600299999999,
                    "velocity": 0.5196850393700787,
                    "duration": 0.27149299999999954
                },
                {
                    "name": "D#2",
                    "midi": 39,
                    "time": 19.547495999999988,
                    "velocity": 0.4881889763779528,
                    "duration": 0.5429860000000026
                },
                {
                    "name": "A2",
                    "midi": 45,
                    "time": 19.547495999999988,
                    "velocity": 0.4881889763779528,
                    "duration": 0.5429860000000026
                },
                {
                    "name": "C3",
                    "midi": 48,
                    "time": 19.547495999999988,
                    "velocity": 0.4881889763779528,
                    "duration": 0.5429860000000026
                },
                {
                    "name": "D#3",
                    "midi": 51,
                    "time": 19.547495999999988,
                    "velocity": 0.5511811023622047,
                    "duration": 0.5429860000000026
                },
                {
                    "name": "A#0",
                    "midi": 22,
                    "time": 20.09048199999999,
                    "velocity": 0.3858267716535433,
                    "duration": 0.5429860000000026
                },
                {
                    "name": "A#1",
                    "midi": 34,
                    "time": 20.09048199999999,
                    "velocity": 0.4409448818897638,
                    "duration": 0.5429860000000026
                },
                {
                    "name": "A#0",
                    "midi": 22,
                    "time": 20.633467999999993,
                    "velocity": 0.3858267716535433,
                    "duration": 0.5429859999999991
                },
                {
                    "name": "A#1",
                    "midi": 34,
                    "time": 20.633467999999993,
                    "velocity": 0.4409448818897638,
                    "duration": 0.5429859999999991
                },
                {
                    "name": "A#0",
                    "midi": 22,
                    "time": 21.176453999999993,
                    "velocity": 0.4015748031496063,
                    "duration": 0.5429859999999991
                },
                {
                    "name": "A#1",
                    "midi": 34,
                    "time": 21.176453999999993,
                    "velocity": 0.4015748031496063,
                    "duration": 0.5429859999999991
                },
                {
                    "name": "A#2",
                    "midi": 46,
                    "time": 21.71943999999999,
                    "velocity": 0.4645669291338583,
                    "duration": 0.5429860000000026
                },
                {
                    "name": "A#3",
                    "midi": 58,
                    "time": 21.71943999999999,
                    "velocity": 0.5196850393700787,
                    "duration": 0.5429860000000026
                },
                {
                    "name": "A2",
                    "midi": 45,
                    "time": 22.262425999999994,
                    "velocity": 0.33070866141732286,
                    "duration": 0.5429859999999991
                },
                {
                    "name": "A#2",
                    "midi": 46,
                    "time": 22.262425999999994,
                    "velocity": 0.33070866141732286,
                    "duration": 0.5429859999999991
                },
                {
                    "name": "A#3",
                    "midi": 58,
                    "time": 22.262425999999994,
                    "velocity": 0.3779527559055118,
                    "duration": 0.5429859999999991
                },
                {
                    "name": "G2",
                    "midi": 43,
                    "time": 22.805411999999993,
                    "velocity": 0.33070866141732286,
                    "duration": 0.5429859999999991
                },
                {
                    "name": "A#2",
                    "midi": 46,
                    "time": 22.805411999999993,
                    "velocity": 0.33070866141732286,
                    "duration": 0.5429859999999991
                },
                {
                    "name": "A#3",
                    "midi": 58,
                    "time": 22.805411999999993,
                    "velocity": 0.3779527559055118,
                    "duration": 0.5429859999999991
                },
                {
                    "name": "F2",
                    "midi": 41,
                    "time": 23.348397999999992,
                    "velocity": 0.33070866141732286,
                    "duration": 0.5429859999999991
                },
                {
                    "name": "A#2",
                    "midi": 46,
                    "time": 23.348397999999992,
                    "velocity": 0.33070866141732286,
                    "duration": 0.5429859999999991
                },
                {
                    "name": "A3",
                    "midi": 57,
                    "time": 23.348397999999992,
                    "velocity": 0.3779527559055118,
                    "duration": 0.5429859999999991
                },
                {
                    "name": "A#3",
                    "midi": 58,
                    "time": 23.348397999999992,
                    "velocity": 0.3779527559055118,
                    "duration": 0.5429859999999991
                },
                {
                    "name": "D#2",
                    "midi": 39,
                    "time": 23.89138399999999,
                    "velocity": 0.36220472440944884,
                    "duration": 0.5429859999999991
                },
                {
                    "name": "A#2",
                    "midi": 46,
                    "time": 23.89138399999999,
                    "velocity": 0.36220472440944884,
                    "duration": 0.5429859999999991
                },
                {
                    "name": "G3",
                    "midi": 55,
                    "time": 23.89138399999999,
                    "velocity": 0.4015748031496063,
                    "duration": 0.5429859999999991
                },
                {
                    "name": "A#3",
                    "midi": 58,
                    "time": 23.89138399999999,
                    "velocity": 0.4015748031496063,
                    "duration": 0.5429859999999991
                },
                {
                    "name": "C2",
                    "midi": 36,
                    "time": 24.43436999999999,
                    "velocity": 0.31496062992125984,
                    "duration": 0.5429859999999991
                },
                {
                    "name": "A#2",
                    "midi": 46,
                    "time": 24.43436999999999,
                    "velocity": 0.31496062992125984,
                    "duration": 0.5429859999999991
                },
                {
                    "name": "D#3",
                    "midi": 51,
                    "time": 24.43436999999999,
                    "velocity": 0.31496062992125984,
                    "duration": 0.5429859999999991
                },
                {
                    "name": "A3",
                    "midi": 57,
                    "time": 24.43436999999999,
                    "velocity": 0.36220472440944884,
                    "duration": 0.5429859999999991
                },
                {
                    "name": "C4",
                    "midi": 60,
                    "time": 24.43436999999999,
                    "velocity": 0.36220472440944884,
                    "duration": 0.5429859999999991
                },
                {
                    "name": "A#1",
                    "midi": 34,
                    "time": 24.97735599999999,
                    "velocity": 0.31496062992125984,
                    "duration": 1.0859720000000017
                },
                {
                    "name": "A#2",
                    "midi": 46,
                    "time": 24.97735599999999,
                    "velocity": 0.36220472440944884,
                    "duration": 2.171944
                },
                {
                    "name": "F3",
                    "midi": 53,
                    "time": 24.97735599999999,
                    "velocity": 0.36220472440944884,
                    "duration": 2.171944
                },
                {
                    "name": "A#3",
                    "midi": 58,
                    "time": 24.97735599999999,
                    "velocity": 0.36220472440944884,
                    "duration": 2.171944
                },
                {
                    "name": "D4",
                    "midi": 62,
                    "time": 24.97735599999999,
                    "velocity": 0.36220472440944884,
                    "duration": 2.171944
                },
                {
                    "name": "A#0",
                    "midi": 22,
                    "time": 25.520341999999992,
                    "velocity": 0.30708661417322836,
                    "duration": 0.5429859999999991
                },
                {
                    "name": "A#1",
                    "midi": 34,
                    "time": 25.520341999999992,
                    "velocity": 0.3464566929133858,
                    "duration": 1.0859719999999982
                },
                {
                    "name": "A#1",
                    "midi": 34,
                    "time": 26.06332799999999,
                    "velocity": 0.3464566929133858,
                    "duration": 1.0859719999999982
                },
                {
                    "name": "A#0",
                    "midi": 22,
                    "time": 26.06332799999999,
                    "velocity": 0.30708661417322836,
                    "duration": 0.5429859999999991
                },
                {
                    "name": "A#0",
                    "midi": 22,
                    "time": 26.60631399999999,
                    "velocity": 0.30708661417322836,
                    "duration": 0.5429859999999991
                },
                {
                    "name": "A#1",
                    "midi": 34,
                    "time": 26.60631399999999,
                    "velocity": 0.3464566929133858,
                    "duration": 0.5429859999999991
                },
                {
                    "name": "A#3",
                    "midi": 58,
                    "time": 27.14929999999999,
                    "velocity": 0.4015748031496063,
                    "duration": 0.5429859999999991
                },
                {
                    "name": "G3",
                    "midi": 55,
                    "time": 27.69228599999999,
                    "velocity": 0.3700787401574803,
                    "duration": 0.5429859999999991
                },
                {
                    "name": "A#3",
                    "midi": 58,
                    "time": 27.69228599999999,
                    "velocity": 0.4094488188976378,
                    "duration": 0.5429859999999991
                },
                {
                    "name": "D#3",
                    "midi": 51,
                    "time": 28.235271999999988,
                    "velocity": 0.3858267716535433,
                    "duration": 0.5429859999999991
                },
                {
                    "name": "G3",
                    "midi": 55,
                    "time": 28.235271999999988,
                    "velocity": 0.4409448818897638,
                    "duration": 0.5429859999999991
                },
                {
                    "name": "C3",
                    "midi": 48,
                    "time": 28.778257999999987,
                    "velocity": 0.4094488188976378,
                    "duration": 0.5429859999999991
                },
                {
                    "name": "D#3",
                    "midi": 51,
                    "time": 28.778257999999987,
                    "velocity": 0.4094488188976378,
                    "duration": 0.5429859999999991
                },
                {
                    "name": "G3",
                    "midi": 55,
                    "time": 28.778257999999987,
                    "velocity": 0.4645669291338583,
                    "duration": 0.5429859999999991
                },
                {
                    "name": "G#2",
                    "midi": 44,
                    "time": 29.321243999999986,
                    "velocity": 0.4094488188976378,
                    "duration": 0.5429859999999991
                },
                {
                    "name": "C3",
                    "midi": 48,
                    "time": 29.321243999999986,
                    "velocity": 0.4094488188976378,
                    "duration": 0.5429859999999991
                },
                {
                    "name": "D#3",
                    "midi": 51,
                    "time": 29.321243999999986,
                    "velocity": 0.4645669291338583,
                    "duration": 0.5429859999999991
                },
                {
                    "name": "G#3",
                    "midi": 56,
                    "time": 29.321243999999986,
                    "velocity": 0.4645669291338583,
                    "duration": 0.5429859999999991
                },
                {
                    "name": "F2",
                    "midi": 41,
                    "time": 29.864229999999985,
                    "velocity": 0.44881889763779526,
                    "duration": 0.5429859999999955
                },
                {
                    "name": "G#2",
                    "midi": 44,
                    "time": 29.864229999999985,
                    "velocity": 0.44881889763779526,
                    "duration": 0.5429859999999955
                },
                {
                    "name": "C3",
                    "midi": 48,
                    "time": 29.864229999999985,
                    "velocity": 0.44881889763779526,
                    "duration": 0.5429859999999955
                },
                {
                    "name": "F3",
                    "midi": 53,
                    "time": 29.864229999999985,
                    "velocity": 0.49606299212598426,
                    "duration": 0.5429859999999955
                },
                {
                    "name": "G2",
                    "midi": 43,
                    "time": 30.40721599999998,
                    "velocity": 0.4881889763779528,
                    "duration": 2.171944
                },
                {
                    "name": "B2",
                    "midi": 47,
                    "time": 30.40721599999998,
                    "velocity": 0.4881889763779528,
                    "duration": 2.171944
                },
                {
                    "name": "D3",
                    "midi": 50,
                    "time": 30.40721599999998,
                    "velocity": 0.4881889763779528,
                    "duration": 2.171944
                },
                {
                    "name": "G3",
                    "midi": 55,
                    "time": 30.40721599999998,
                    "velocity": 0.5511811023622047,
                    "duration": 2.171944
                },
                {
                    "name": "G1",
                    "midi": 31,
                    "time": 30.950201999999983,
                    "velocity": 0.33858267716535434,
                    "duration": 0.5429859999999991
                },
                {
                    "name": "G1",
                    "midi": 31,
                    "time": 31.493187999999982,
                    "velocity": 0.33858267716535434,
                    "duration": 0.5429859999999991
                },
                {
                    "name": "G1",
                    "midi": 31,
                    "time": 32.03617399999998,
                    "velocity": 0.33858267716535434,
                    "duration": 0.5429859999999991
                },
                {
                    "name": "G3",
                    "midi": 55,
                    "time": 32.57915999999998,
                    "velocity": 0.4015748031496063,
                    "duration": 0.5429859999999991
                },
                {
                    "name": "F3",
                    "midi": 53,
                    "time": 33.12214599999998,
                    "velocity": 0.4015748031496063,
                    "duration": 0.5429859999999991
                },
                {
                    "name": "G3",
                    "midi": 55,
                    "time": 33.12214599999998,
                    "velocity": 0.4015748031496063,
                    "duration": 0.5429859999999991
                },
                {
                    "name": "D#3",
                    "midi": 51,
                    "time": 33.66513199999998,
                    "velocity": 0.3700787401574803,
                    "duration": 0.5429859999999991
                },
                {
                    "name": "G3",
                    "midi": 55,
                    "time": 33.66513199999998,
                    "velocity": 0.4094488188976378,
                    "duration": 0.5429859999999991
                },
                {
                    "name": "D3",
                    "midi": 50,
                    "time": 34.20811799999998,
                    "velocity": 0.3858267716535433,
                    "duration": 0.5429859999999991
                },
                {
                    "name": "F3",
                    "midi": 53,
                    "time": 34.20811799999998,
                    "velocity": 0.4409448818897638,
                    "duration": 0.5429859999999991
                },
                {
                    "name": "G3",
                    "midi": 55,
                    "time": 34.20811799999998,
                    "velocity": 0.4409448818897638,
                    "duration": 0.5429859999999991
                },
                {
                    "name": "C3",
                    "midi": 48,
                    "time": 34.75110399999998,
                    "velocity": 0.4094488188976378,
                    "duration": 0.5429860000000062
                },
                {
                    "name": "D#3",
                    "midi": 51,
                    "time": 34.75110399999998,
                    "velocity": 0.4645669291338583,
                    "duration": 0.5429860000000062
                },
                {
                    "name": "G3",
                    "midi": 55,
                    "time": 34.75110399999998,
                    "velocity": 0.4645669291338583,
                    "duration": 0.5429860000000062
                },
                {
                    "name": "F2",
                    "midi": 41,
                    "time": 35.29408999999998,
                    "velocity": 0.4409448818897638,
                    "duration": 0.5429859999999991
                },
                {
                    "name": "C3",
                    "midi": 48,
                    "time": 35.29408999999998,
                    "velocity": 0.4409448818897638,
                    "duration": 0.5429859999999991
                },
                {
                    "name": "F3",
                    "midi": 53,
                    "time": 35.29408999999998,
                    "velocity": 0.4881889763779528,
                    "duration": 0.5429859999999991
                },
                {
                    "name": "A#2",
                    "midi": 46,
                    "time": 35.83707599999998,
                    "velocity": 0.4645669291338583,
                    "duration": 2.1719439999999963
                },
                {
                    "name": "D3",
                    "midi": 50,
                    "time": 35.83707599999998,
                    "velocity": 0.5196850393700787,
                    "duration": 2.1719439999999963
                },
                {
                    "name": "F3",
                    "midi": 53,
                    "time": 35.83707599999998,
                    "velocity": 0.5196850393700787,
                    "duration": 2.1719439999999963
                },
                {
                    "name": "A#0",
                    "midi": 22,
                    "time": 36.38006199999998,
                    "velocity": 0.30708661417322836,
                    "duration": 0.5429859999999991
                },
                {
                    "name": "A#1",
                    "midi": 34,
                    "time": 36.38006199999998,
                    "velocity": 0.3464566929133858,
                    "duration": 0.5429859999999991
                },
                {
                    "name": "A#0",
                    "midi": 22,
                    "time": 36.92304799999998,
                    "velocity": 0.3228346456692913,
                    "duration": 0.5429859999999991
                },
                {
                    "name": "A#1",
                    "midi": 34,
                    "time": 36.92304799999998,
                    "velocity": 0.3228346456692913,
                    "duration": 0.5429859999999991
                },
                {
                    "name": "A#0",
                    "midi": 22,
                    "time": 37.46603399999998,
                    "velocity": 0.2992125984251969,
                    "duration": 0.5429859999999991
                },
                {
                    "name": "A#1",
                    "midi": 34,
                    "time": 37.46603399999998,
                    "velocity": 0.2992125984251969,
                    "duration": 0.5429859999999991
                },
                {
                    "name": "A#3",
                    "midi": 58,
                    "time": 38.00901999999998,
                    "velocity": 0.4015748031496063,
                    "duration": 0.5429859999999991
                },
                {
                    "name": "F#3",
                    "midi": 54,
                    "time": 38.55200599999998,
                    "velocity": 0.3543307086614173,
                    "duration": 0.5429859999999991
                },
                {
                    "name": "A#3",
                    "midi": 58,
                    "time": 38.55200599999998,
                    "velocity": 0.4015748031496063,
                    "duration": 0.5429859999999991
                },
                {
                    "name": "D#3",
                    "midi": 51,
                    "time": 39.094991999999976,
                    "velocity": 0.4251968503937008,
                    "duration": 0.5429859999999991
                },
                {
                    "name": "F#3",
                    "midi": 54,
                    "time": 39.094991999999976,
                    "velocity": 0.3700787401574803,
                    "duration": 0.5429859999999991
                },
                {
                    "name": "A#3",
                    "midi": 58,
                    "time": 39.094991999999976,
                    "velocity": 0.4251968503937008,
                    "duration": 0.5429859999999991
                },
                {
                    "name": "B2",
                    "midi": 47,
                    "time": 39.637977999999976,
                    "velocity": 0.4251968503937008,
                    "duration": 0.5429859999999991
                },
                {
                    "name": "D#3",
                    "midi": 51,
                    "time": 39.637977999999976,
                    "velocity": 0.4251968503937008,
                    "duration": 0.5429859999999991
                },
                {
                    "name": "F#3",
                    "midi": 54,
                    "time": 39.637977999999976,
                    "velocity": 0.47244094488188976,
                    "duration": 0.5429859999999991
                },
                {
                    "name": "B3",
                    "midi": 59,
                    "time": 39.637977999999976,
                    "velocity": 0.47244094488188976,
                    "duration": 0.5429859999999991
                },
                {
                    "name": "G#2",
                    "midi": 44,
                    "time": 40.180963999999975,
                    "velocity": 0.44881889763779526,
                    "duration": 0.5429860000000062
                },
                {
                    "name": "B2",
                    "midi": 47,
                    "time": 40.180963999999975,
                    "velocity": 0.44881889763779526,
                    "duration": 0.5429860000000062
                },
                {
                    "name": "D#3",
                    "midi": 51,
                    "time": 40.180963999999975,
                    "velocity": 0.5039370078740157,
                    "duration": 0.5429860000000062
                },
                {
                    "name": "G#3",
                    "midi": 56,
                    "time": 40.180963999999975,
                    "velocity": 0.5039370078740157,
                    "duration": 0.5429860000000062
                },
                {
                    "name": "E2",
                    "midi": 40,
                    "time": 40.72394999999998,
                    "velocity": 0.48031496062992124,
                    "duration": 0.5429859999999991
                },
                {
                    "name": "G#2",
                    "midi": 44,
                    "time": 40.72394999999998,
                    "velocity": 0.48031496062992124,
                    "duration": 0.5429859999999991
                },
                {
                    "name": "B2",
                    "midi": 47,
                    "time": 40.72394999999998,
                    "velocity": 0.5433070866141733,
                    "duration": 0.5429859999999991
                },
                {
                    "name": "E3",
                    "midi": 52,
                    "time": 40.72394999999998,
                    "velocity": 0.5433070866141733,
                    "duration": 0.5429859999999991
                },
                {
                    "name": "B2",
                    "midi": 47,
                    "time": 41.26693599999998,
                    "velocity": 0.5433070866141733,
                    "duration": 1.0859720000000053
                },
                {
                    "name": "D#3",
                    "midi": 51,
                    "time": 41.26693599999998,
                    "velocity": 0.5433070866141733,
                    "duration": 1.0859720000000053
                },
                {
                    "name": "F#3",
                    "midi": 54,
                    "time": 41.26693599999998,
                    "velocity": 0.5433070866141733,
                    "duration": 1.0859720000000053
                },
                {
                    "name": "B3",
                    "midi": 59,
                    "time": 41.26693599999998,
                    "velocity": 0.6062992125984252,
                    "duration": 1.0859720000000053
                },
                {
                    "name": "D#1",
                    "midi": 27,
                    "time": 41.80992199999997,
                    "velocity": 0.5511811023622047,
                    "duration": 0.5429860000000133
                },
                {
                    "name": "F#1",
                    "midi": 30,
                    "time": 41.945668499999975,
                    "velocity": 0.5275590551181102,
                    "duration": 0.13574650000000332
                },
                {
                    "name": "B1",
                    "midi": 35,
                    "time": 42.08141499999998,
                    "velocity": 0.5511811023622047,
                    "duration": 0.13574650000000332
                },
                {
                    "name": "D#2",
                    "midi": 39,
                    "time": 42.21716149999998,
                    "velocity": 0.5275590551181102,
                    "duration": 0.13574650000000332
                },
                {
                    "name": "F#2",
                    "midi": 42,
                    "time": 42.352907999999985,
                    "velocity": 0.5511811023622047,
                    "duration": 0.5429860000000133
                },
                {
                    "name": "B2",
                    "midi": 47,
                    "time": 42.48865449999999,
                    "velocity": 0.5275590551181102,
                    "duration": 0.13574650000000332
                },
                {
                    "name": "D#3",
                    "midi": 51,
                    "time": 42.62440099999999,
                    "velocity": 0.5511811023622047,
                    "duration": 0.13574650000000332
                },
                {
                    "name": "F#3",
                    "midi": 54,
                    "time": 42.760147499999995,
                    "velocity": 0.5275590551181102,
                    "duration": 0.13574650000000332
                },
                {
                    "name": "B3",
                    "midi": 59,
                    "time": 42.895894,
                    "velocity": 0.5511811023622047,
                    "duration": 0.5429860000000133
                },
                {
                    "name": "D#4",
                    "midi": 63,
                    "time": 43.0316405,
                    "velocity": 0.5275590551181102,
                    "duration": 0.13574650000000332
                },
                {
                    "name": "F#4",
                    "midi": 66,
                    "time": 43.167387000000005,
                    "velocity": 0.5511811023622047,
                    "duration": 0.13574650000000332
                },
                {
                    "name": "B4",
                    "midi": 71,
                    "time": 43.30313350000001,
                    "velocity": 0.5275590551181102,
                    "duration": 0.13574650000000332
                },
                {
                    "name": "A#3",
                    "midi": 58,
                    "time": 43.43888000000001,
                    "velocity": 0.5275590551181102,
                    "duration": 0.40723949999999576
                },
                {
                    "name": "D#4",
                    "midi": 63,
                    "time": 43.43888000000001,
                    "velocity": 0.5275590551181102,
                    "duration": 0.40723949999999576
                },
                {
                    "name": "G4",
                    "midi": 67,
                    "time": 43.43888000000001,
                    "velocity": 0.5275590551181102,
                    "duration": 0.40723949999999576
                },
                {
                    "name": "A#4",
                    "midi": 70,
                    "time": 43.43888000000001,
                    "velocity": 0.5826771653543307,
                    "duration": 0.40723949999999576
                },
                {
                    "name": "A#3",
                    "midi": 58,
                    "time": 43.98186600000001,
                    "velocity": 0.4566929133858268,
                    "duration": 0.13574650000000332
                },
                {
                    "name": "A#2",
                    "midi": 46,
                    "time": 43.98186600000001,
                    "velocity": 0.4015748031496063,
                    "duration": 0.13574650000000332
                },
                {
                    "name": "D#2",
                    "midi": 39,
                    "time": 44.25335900000002,
                    "velocity": 0.4015748031496063,
                    "duration": 0.13574650000000332
                },
                {
                    "name": "D#3",
                    "midi": 51,
                    "time": 44.25335900000002,
                    "velocity": 0.4566929133858268,
                    "duration": 0.13574650000000332
                },
                {
                    "name": "D#4",
                    "midi": 63,
                    "time": 44.524852000000024,
                    "velocity": 0.5511811023622047,
                    "duration": 0.5429859999999991
                },
                {
                    "name": "C4",
                    "midi": 60,
                    "time": 44.524852000000024,
                    "velocity": 0.4881889763779528,
                    "duration": 0.5429859999999991
                },
                {
                    "name": "G#3",
                    "midi": 56,
                    "time": 44.524852000000024,
                    "velocity": 0.4881889763779528,
                    "duration": 0.5429859999999991
                },
                {
                    "name": "D#3",
                    "midi": 51,
                    "time": 44.524852000000024,
                    "velocity": 0.4881889763779528,
                    "duration": 0.5429859999999991
                },
                {
                    "name": "D#2",
                    "midi": 39,
                    "time": 45.06783800000002,
                    "velocity": 0.3937007874015748,
                    "duration": 0.13574650000000332
                },
                {
                    "name": "D#3",
                    "midi": 51,
                    "time": 45.06783800000002,
                    "velocity": 0.44881889763779526,
                    "duration": 0.13574650000000332
                },
                {
                    "name": "G#1",
                    "midi": 32,
                    "time": 45.33933100000003,
                    "velocity": 0.3937007874015748,
                    "duration": 0.13574650000000332
                },
                {
                    "name": "G#2",
                    "midi": 44,
                    "time": 45.33933100000003,
                    "velocity": 0.44881889763779526,
                    "duration": 0.13574650000000332
                },
                {
                    "name": "D#2",
                    "midi": 39,
                    "time": 45.61082400000004,
                    "velocity": 0.4881889763779528,
                    "duration": 0.5429859999999991
                },
                {
                    "name": "A#2",
                    "midi": 46,
                    "time": 45.61082400000004,
                    "velocity": 0.4881889763779528,
                    "duration": 0.5429859999999991
                },
                {
                    "name": "D#3",
                    "midi": 51,
                    "time": 45.61082400000004,
                    "velocity": 0.5511811023622047,
                    "duration": 0.5429859999999991
                },
                {
                    "name": "A#1",
                    "midi": 34,
                    "time": 46.153810000000036,
                    "velocity": 0.3937007874015748,
                    "duration": 0.13574650000000332
                },
                {
                    "name": "A#2",
                    "midi": 46,
                    "time": 46.153810000000036,
                    "velocity": 0.44881889763779526,
                    "duration": 0.13574650000000332
                },
                {
                    "name": "D#1",
                    "midi": 27,
                    "time": 46.42530300000004,
                    "velocity": 0.3858267716535433,
                    "duration": 0.13574650000000332
                },
                {
                    "name": "D#2",
                    "midi": 39,
                    "time": 46.42530300000004,
                    "velocity": 0.4409448818897638,
                    "duration": 0.13574650000000332
                },
                {
                    "name": "A#1",
                    "midi": 34,
                    "time": 46.69679600000005,
                    "velocity": 0.3858267716535433,
                    "duration": 0.13574650000000332
                },
                {
                    "name": "A#2",
                    "midi": 46,
                    "time": 46.69679600000005,
                    "velocity": 0.4330708661417323,
                    "duration": 0.13574650000000332
                },
                {
                    "name": "A#3",
                    "midi": 58,
                    "time": 46.968289000000055,
                    "velocity": 0.4094488188976378,
                    "duration": 0.13574650000000332
                },
                {
                    "name": "A#2",
                    "midi": 46,
                    "time": 46.968289000000055,
                    "velocity": 0.3700787401574803,
                    "duration": 0.13574650000000332
                },
                {
                    "name": "D#2",
                    "midi": 39,
                    "time": 47.23978200000006,
                    "velocity": 0.44881889763779526,
                    "duration": 0.5429859999999991
                },
                {
                    "name": "D#3",
                    "midi": 51,
                    "time": 47.23978200000006,
                    "velocity": 0.49606299212598426,
                    "duration": 0.5429859999999991
                },
                {
                    "name": "D4",
                    "midi": 62,
                    "time": 47.78276800000006,
                    "velocity": 0.4881889763779528,
                    "duration": 0.5429859999999991
                },
                {
                    "name": "A#3",
                    "midi": 58,
                    "time": 47.78276800000006,
                    "velocity": 0.4409448818897638,
                    "duration": 0.5429859999999991
                },
                {
                    "name": "D#3",
                    "midi": 51,
                    "time": 47.78276800000006,
                    "velocity": 0.4409448818897638,
                    "duration": 0.5429859999999991
                },
                {
                    "name": "D#3",
                    "midi": 51,
                    "time": 48.32575400000006,
                    "velocity": 0.4330708661417323,
                    "duration": 0.5429860000000062
                },
                {
                    "name": "G#3",
                    "midi": 56,
                    "time": 48.32575400000006,
                    "velocity": 0.4330708661417323,
                    "duration": 0.5429860000000062
                },
                {
                    "name": "C4",
                    "midi": 60,
                    "time": 48.32575400000006,
                    "velocity": 0.48031496062992124,
                    "duration": 0.5429860000000062
                },
                {
                    "name": "D#2",
                    "midi": 39,
                    "time": 48.86874000000007,
                    "velocity": 0.41732283464566927,
                    "duration": 0.5429859999999991
                },
                {
                    "name": "A#2",
                    "midi": 46,
                    "time": 48.86874000000007,
                    "velocity": 0.41732283464566927,
                    "duration": 0.5429859999999991
                },
                {
                    "name": "D#3",
                    "midi": 51,
                    "time": 48.86874000000007,
                    "velocity": 0.47244094488188976,
                    "duration": 0.5429859999999991
                },
                {
                    "name": "A#1",
                    "midi": 34,
                    "time": 49.411726000000066,
                    "velocity": 0.41732283464566927,
                    "duration": 0.13574649999999622
                },
                {
                    "name": "A#2",
                    "midi": 46,
                    "time": 49.411726000000066,
                    "velocity": 0.47244094488188976,
                    "duration": 0.13574649999999622
                },
                {
                    "name": "D#2",
                    "midi": 39,
                    "time": 49.683219000000065,
                    "velocity": 0.41732283464566927,
                    "duration": 0.13574650000000332
                },
                {
                    "name": "D#3",
                    "midi": 51,
                    "time": 49.683219000000065,
                    "velocity": 0.47244094488188976,
                    "duration": 0.13574650000000332
                },
                {
                    "name": "C2",
                    "midi": 36,
                    "time": 49.95471200000007,
                    "velocity": 0.4566929133858268,
                    "duration": 0.5429859999999991
                },
                {
                    "name": "C3",
                    "midi": 48,
                    "time": 49.95471200000007,
                    "velocity": 0.5039370078740157,
                    "duration": 0.5429859999999991
                },
                {
                    "name": "F2",
                    "midi": 41,
                    "time": 50.49769800000007,
                    "velocity": 0.4015748031496063,
                    "duration": 0.13574650000000332
                },
                {
                    "name": "F3",
                    "midi": 53,
                    "time": 50.49769800000007,
                    "velocity": 0.4566929133858268,
                    "duration": 0.13574650000000332
                },
                {
                    "name": "C2",
                    "midi": 36,
                    "time": 50.76919100000008,
                    "velocity": 0.4015748031496063,
                    "duration": 0.13574650000000332
                },
                {
                    "name": "C3",
                    "midi": 48,
                    "time": 50.76919100000008,
                    "velocity": 0.4566929133858268,
                    "duration": 0.13574650000000332
                },
                {
                    "name": "G2",
                    "midi": 43,
                    "time": 51.040684000000084,
                    "velocity": 0.4409448818897638,
                    "duration": 0.5429859999999991
                },
                {
                    "name": "D3",
                    "midi": 50,
                    "time": 51.040684000000084,
                    "velocity": 0.4409448818897638,
                    "duration": 0.5429859999999991
                },
                {
                    "name": "G3",
                    "midi": 55,
                    "time": 51.040684000000084,
                    "velocity": 0.4881889763779528,
                    "duration": 0.5429859999999991
                },
                {
                    "name": "C2",
                    "midi": 36,
                    "time": 51.58367000000008,
                    "velocity": 0.3937007874015748,
                    "duration": 0.13574650000000332
                },
                {
                    "name": "C3",
                    "midi": 48,
                    "time": 51.58367000000008,
                    "velocity": 0.44881889763779526,
                    "duration": 0.13574650000000332
                },
                {
                    "name": "G1",
                    "midi": 31,
                    "time": 51.85516300000009,
                    "velocity": 0.3937007874015748,
                    "duration": 0.13574650000000332
                },
                {
                    "name": "G2",
                    "midi": 43,
                    "time": 51.85516300000009,
                    "velocity": 0.44881889763779526,
                    "duration": 0.13574650000000332
                },
                {
                    "name": "D1",
                    "midi": 26,
                    "time": 52.1266560000001,
                    "velocity": 0.3858267716535433,
                    "duration": 0.13574650000000332
                },
                {
                    "name": "D2",
                    "midi": 38,
                    "time": 52.1266560000001,
                    "velocity": 0.4409448818897638,
                    "duration": 0.13574650000000332
                },
                {
                    "name": "D3",
                    "midi": 50,
                    "time": 52.3981490000001,
                    "velocity": 0.41732283464566927,
                    "duration": 0.13574650000000332
                },
                {
                    "name": "D2",
                    "midi": 38,
                    "time": 52.3981490000001,
                    "velocity": 0.3779527559055118,
                    "duration": 0.13574650000000332
                },
                {
                    "name": "G1",
                    "midi": 31,
                    "time": 52.66964200000011,
                    "velocity": 0.3700787401574803,
                    "duration": 0.5429859999999991
                },
                {
                    "name": "G2",
                    "midi": 43,
                    "time": 52.66964200000011,
                    "velocity": 0.4094488188976378,
                    "duration": 0.5429859999999991
                },
                {
                    "name": "F#3",
                    "midi": 54,
                    "time": 53.21262800000011,
                    "velocity": 0.48031496062992124,
                    "duration": 0.542985999999992
                },
                {
                    "name": "G2",
                    "midi": 43,
                    "time": 53.21262800000011,
                    "velocity": 0.4330708661417323,
                    "duration": 0.542985999999992
                },
                {
                    "name": "G2",
                    "midi": 43,
                    "time": 53.7556140000001,
                    "velocity": 0.4094488188976378,
                    "duration": 0.40723949999999576
                },
                {
                    "name": "F3",
                    "midi": 53,
                    "time": 53.7556140000001,
                    "velocity": 0.4645669291338583,
                    "duration": 0.40723949999999576
                },
                {
                    "name": "D#2",
                    "midi": 39,
                    "time": 54.29860000000009,
                    "velocity": 0.3937007874015748,
                    "duration": 0.5429859999999991
                },
                {
                    "name": "A#2",
                    "midi": 46,
                    "time": 54.29860000000009,
                    "velocity": 0.3937007874015748,
                    "duration": 0.5429859999999991
                },
                {
                    "name": "D#3",
                    "midi": 51,
                    "time": 54.29860000000009,
                    "velocity": 0.4645669291338583,
                    "duration": 0.5429859999999991
                },
                {
                    "name": "A#1",
                    "midi": 34,
                    "time": 54.84158600000009,
                    "velocity": 0.36220472440944884,
                    "duration": 0.13574650000000332
                },
                {
                    "name": "A#2",
                    "midi": 46,
                    "time": 54.84158600000009,
                    "velocity": 0.4330708661417323,
                    "duration": 0.13574650000000332
                },
                {
                    "name": "D#2",
                    "midi": 39,
                    "time": 55.1130790000001,
                    "velocity": 0.3858267716535433,
                    "duration": 0.13574650000000332
                },
                {
                    "name": "D#3",
                    "midi": 51,
                    "time": 55.1130790000001,
                    "velocity": 0.4566929133858268,
                    "duration": 0.13574650000000332
                },
                {
                    "name": "G#1",
                    "midi": 32,
                    "time": 55.384572000000105,
                    "velocity": 0.4015748031496063,
                    "duration": 0.5429859999999991
                },
                {
                    "name": "G#2",
                    "midi": 44,
                    "time": 55.384572000000105,
                    "velocity": 0.48031496062992124,
                    "duration": 0.5429859999999991
                },
                {
                    "name": "D#2",
                    "midi": 39,
                    "time": 55.927558000000104,
                    "velocity": 0.3779527559055118,
                    "duration": 0.13574649999999622
                },
                {
                    "name": "D#3",
                    "midi": 51,
                    "time": 55.927558000000104,
                    "velocity": 0.44881889763779526,
                    "duration": 0.13574649999999622
                },
                {
                    "name": "G#1",
                    "midi": 32,
                    "time": 56.199051000000104,
                    "velocity": 0.3543307086614173,
                    "duration": 0.13574650000000332
                },
                {
                    "name": "G#2",
                    "midi": 44,
                    "time": 56.199051000000104,
                    "velocity": 0.4251968503937008,
                    "duration": 0.13574650000000332
                },
                {
                    "name": "D#2",
                    "midi": 39,
                    "time": 56.47054400000011,
                    "velocity": 0.3700787401574803,
                    "duration": 0.5429859999999991
                },
                {
                    "name": "A#2",
                    "midi": 46,
                    "time": 56.47054400000011,
                    "velocity": 0.3700787401574803,
                    "duration": 0.5429859999999991
                },
                {
                    "name": "D#3",
                    "midi": 51,
                    "time": 56.47054400000011,
                    "velocity": 0.4409448818897638,
                    "duration": 0.5429859999999991
                },
                {
                    "name": "A#1",
                    "midi": 34,
                    "time": 57.01353000000011,
                    "velocity": 0.3858267716535433,
                    "duration": 0.13574650000000332
                },
                {
                    "name": "A#2",
                    "midi": 46,
                    "time": 57.01353000000011,
                    "velocity": 0.4566929133858268,
                    "duration": 0.13574650000000332
                },
                {
                    "name": "D#3",
                    "midi": 51,
                    "time": 57.285023000000116,
                    "velocity": 0.4409448818897638,
                    "duration": 0.13574650000000332
                },
                {
                    "name": "D#2",
                    "midi": 39,
                    "time": 57.285023000000116,
                    "velocity": 0.3700787401574803,
                    "duration": 0.13574650000000332
                },
                {
                    "name": "A#1",
                    "midi": 34,
                    "time": 57.55651600000012,
                    "velocity": 0.3779527559055118,
                    "duration": 0.13574650000000332
                },
                {
                    "name": "A#2",
                    "midi": 46,
                    "time": 57.55651600000012,
                    "velocity": 0.44881889763779526,
                    "duration": 0.13574650000000332
                },
                {
                    "name": "A#3",
                    "midi": 58,
                    "time": 57.82800900000013,
                    "velocity": 0.44881889763779526,
                    "duration": 0.13574650000000332
                },
                {
                    "name": "A#2",
                    "midi": 46,
                    "time": 57.82800900000013,
                    "velocity": 0.3937007874015748,
                    "duration": 0.13574650000000332
                },
                {
                    "name": "D#2",
                    "midi": 39,
                    "time": 58.099502000000136,
                    "velocity": 0.3858267716535433,
                    "duration": 0.5429859999999991
                },
                {
                    "name": "D#3",
                    "midi": 51,
                    "time": 58.099502000000136,
                    "velocity": 0.4409448818897638,
                    "duration": 0.5429859999999991
                },
                {
                    "name": "D#2",
                    "midi": 39,
                    "time": 58.642488000000135,
                    "velocity": 0.4330708661417323,
                    "duration": 0.5429859999999991
                },
                {
                    "name": "D2",
                    "midi": 38,
                    "time": 58.642488000000135,
                    "velocity": 0.4330708661417323,
                    "duration": 0.5429859999999991
                },
                {
                    "name": "D3",
                    "midi": 50,
                    "time": 58.642488000000135,
                    "velocity": 0.48031496062992124,
                    "duration": 0.5429859999999991
                },
                {
                    "name": "C2",
                    "midi": 36,
                    "time": 59.185474000000134,
                    "velocity": 0.4566929133858268,
                    "duration": 0.5429859999999991
                },
                {
                    "name": "D#2",
                    "midi": 39,
                    "time": 59.185474000000134,
                    "velocity": 0.4566929133858268,
                    "duration": 0.5429859999999991
                },
                {
                    "name": "C3",
                    "midi": 48,
                    "time": 59.185474000000134,
                    "velocity": 0.5039370078740157,
                    "duration": 0.5429859999999991
                },
                {
                    "name": "G1",
                    "midi": 31,
                    "time": 59.72846000000013,
                    "velocity": 0.5669291338582677,
                    "duration": 0.5429859999999991
                },
                {
                    "name": "C2",
                    "midi": 36,
                    "time": 59.72846000000013,
                    "velocity": 0.5669291338582677,
                    "duration": 0.5429859999999991
                },
                {
                    "name": "D#2",
                    "midi": 39,
                    "time": 59.72846000000013,
                    "velocity": 0.5669291338582677,
                    "duration": 0.5429859999999991
                },
                {
                    "name": "G2",
                    "midi": 43,
                    "time": 59.72846000000013,
                    "velocity": 0.6377952755905512,
                    "duration": 0.5429859999999991
                },
                {
                    "name": "D#2",
                    "midi": 39,
                    "time": 60.27144600000013,
                    "velocity": 0.5275590551181102,
                    "duration": 0.13574650000000332
                },
                {
                    "name": "D#3",
                    "midi": 51,
                    "time": 60.27144600000013,
                    "velocity": 0.5826771653543307,
                    "duration": 0.13574650000000332
                },
                {
                    "name": "C3",
                    "midi": 48,
                    "time": 60.54293900000014,
                    "velocity": 0.5826771653543307,
                    "duration": 0.13574650000000332
                },
                {
                    "name": "C2",
                    "midi": 36,
                    "time": 60.54293900000014,
                    "velocity": 0.5275590551181102,
                    "duration": 0.13574650000000332
                },
                {
                    "name": "G#2",
                    "midi": 44,
                    "time": 60.814432000000146,
                    "velocity": 0.5433070866141733,
                    "duration": 0.5429860000000062
                },
                {
                    "name": "D#3",
                    "midi": 51,
                    "time": 60.814432000000146,
                    "velocity": 0.5433070866141733,
                    "duration": 0.5429860000000062
                },
                {
                    "name": "G#3",
                    "midi": 56,
                    "time": 60.814432000000146,
                    "velocity": 0.6062992125984252,
                    "duration": 0.5429860000000062
                },
                {
                    "name": "C2",
                    "midi": 36,
                    "time": 61.35741800000015,
                    "velocity": 0.4881889763779528,
                    "duration": 0.13574650000000332
                },
                {
                    "name": "C3",
                    "midi": 48,
                    "time": 61.35741800000015,
                    "velocity": 0.5511811023622047,
                    "duration": 0.13574650000000332
                },
                {
                    "name": "G#1",
                    "midi": 32,
                    "time": 61.62891100000016,
                    "velocity": 0.4881889763779528,
                    "duration": 0.13574650000000332
                },
                {
                    "name": "G#2",
                    "midi": 44,
                    "time": 61.62891100000016,
                    "velocity": 0.5511811023622047,
                    "duration": 0.13574650000000332
                },
                {
                    "name": "F3",
                    "midi": 53,
                    "time": 61.900404000000165,
                    "velocity": 0.5826771653543307,
                    "duration": 0.5429859999999991
                },
                {
                    "name": "C3",
                    "midi": 48,
                    "time": 61.900404000000165,
                    "velocity": 0.5275590551181102,
                    "duration": 0.5429859999999991
                },
                {
                    "name": "G#2",
                    "midi": 44,
                    "time": 61.900404000000165,
                    "velocity": 0.5275590551181102,
                    "duration": 0.5429859999999991
                },
                {
                    "name": "F2",
                    "midi": 41,
                    "time": 61.900404000000165,
                    "velocity": 0.5275590551181102,
                    "duration": 0.5429859999999991
                },
                {
                    "name": "G#1",
                    "midi": 32,
                    "time": 62.443390000000164,
                    "velocity": 0.4645669291338583,
                    "duration": 0.27149299999999954
                },
                {
                    "name": "G#2",
                    "midi": 44,
                    "time": 62.443390000000164,
                    "velocity": 0.5196850393700787,
                    "duration": 0.27149299999999954
                },
                {
                    "name": "F1",
                    "midi": 29,
                    "time": 62.714883000000164,
                    "velocity": 0.4645669291338583,
                    "duration": 0.27149299999999954
                },
                {
                    "name": "F2",
                    "midi": 41,
                    "time": 62.714883000000164,
                    "velocity": 0.5196850393700787,
                    "duration": 0.27149299999999954
                },
                {
                    "name": "C3",
                    "midi": 48,
                    "time": 62.98637600000016,
                    "velocity": 0.4881889763779528,
                    "duration": 0.5429859999999991
                },
                {
                    "name": "D#3",
                    "midi": 51,
                    "time": 62.98637600000016,
                    "velocity": 0.4881889763779528,
                    "duration": 0.5429859999999991
                },
                {
                    "name": "F#3",
                    "midi": 54,
                    "time": 62.98637600000016,
                    "velocity": 0.4881889763779528,
                    "duration": 0.5429859999999991
                },
                {
                    "name": "A3",
                    "midi": 57,
                    "time": 62.98637600000016,
                    "velocity": 0.5511811023622047,
                    "duration": 0.5429859999999991
                },
                {
                    "name": "C4",
                    "midi": 60,
                    "time": 62.98637600000016,
                    "velocity": 0.5511811023622047,
                    "duration": 0.5429859999999991
                },
                {
                    "name": "G1",
                    "midi": 31,
                    "time": 63.52936200000016,
                    "velocity": 0.4881889763779528,
                    "duration": 0.27149299999999954
                },
                {
                    "name": "G2",
                    "midi": 43,
                    "time": 63.52936200000016,
                    "velocity": 0.5511811023622047,
                    "duration": 0.27149299999999954
                },
                {
                    "name": "G1",
                    "midi": 31,
                    "time": 64.07234800000016,
                    "velocity": 0.41732283464566927,
                    "duration": 0.20361975000000143
                },
                {
                    "name": "G2",
                    "midi": 43,
                    "time": 64.07234800000016,
                    "velocity": 0.4566929133858268,
                    "duration": 0.20361975000000143
                },
                {
                    "name": "G1",
                    "midi": 31,
                    "time": 64.61533400000016,
                    "velocity": 0.3779527559055118,
                    "duration": 0.20361975000000143
                },
                {
                    "name": "G2",
                    "midi": 43,
                    "time": 64.61533400000016,
                    "velocity": 0.4330708661417323,
                    "duration": 0.20361975000000143
                },
                {
                    "name": "G#1",
                    "midi": 32,
                    "time": 65.15832000000016,
                    "velocity": 0.36220472440944884,
                    "duration": 2.1719439999999963
                },
                {
                    "name": "C2",
                    "midi": 36,
                    "time": 65.15832000000016,
                    "velocity": 0.36220472440944884,
                    "duration": 2.1719439999999963
                },
                {
                    "name": "G#2",
                    "midi": 44,
                    "time": 65.15832000000016,
                    "velocity": 0.4015748031496063,
                    "duration": 2.1719439999999963
                },
                {
                    "name": "C4",
                    "midi": 60,
                    "time": 67.33026400000016,
                    "velocity": 0.2755905511811024,
                    "duration": 2.1606317916666598
                },
                {
                    "name": "G#3",
                    "midi": 56,
                    "time": 67.33026400000016,
                    "velocity": 0.2755905511811024,
                    "duration": 2.1719439999999963
                },
                {
                    "name": "D#3",
                    "midi": 51,
                    "time": 67.33026400000016,
                    "velocity": 0.23622047244094488,
                    "duration": 2.1606317916666598
                },
                {
                    "name": "C2",
                    "midi": 36,
                    "time": 69.50220800000015,
                    "velocity": 0.2125984251968504,
                    "duration": 0.5429859999999849
                },
                {
                    "name": "C3",
                    "midi": 48,
                    "time": 69.50220800000015,
                    "velocity": 0.25984251968503935,
                    "duration": 0.1809953333333283
                },
                {
                    "name": "G2",
                    "midi": 43,
                    "time": 69.68320333333348,
                    "velocity": 0.25984251968503935,
                    "duration": 0.1809953333333283
                },
                {
                    "name": "C3",
                    "midi": 48,
                    "time": 69.86419866666681,
                    "velocity": 0.25984251968503935,
                    "duration": 0.1809953333333283
                },
                {
                    "name": "C2",
                    "midi": 36,
                    "time": 70.04519400000014,
                    "velocity": 0.1968503937007874,
                    "duration": 0.5429859999999991
                },
                {
                    "name": "G2",
                    "midi": 43,
                    "time": 70.04519400000014,
                    "velocity": 0.23622047244094488,
                    "duration": 0.5429859999999991
                },
                {
                    "name": "C2",
                    "midi": 36,
                    "time": 70.58818000000014,
                    "velocity": 0.2125984251968504,
                    "duration": 0.5429859999999991
                },
                {
                    "name": "C3",
                    "midi": 48,
                    "time": 70.58818000000014,
                    "velocity": 0.25984251968503935,
                    "duration": 0.1809953333333425
                },
                {
                    "name": "G2",
                    "midi": 43,
                    "time": 70.76917533333348,
                    "velocity": 0.25984251968503935,
                    "duration": 0.1809953333333283
                },
                {
                    "name": "C3",
                    "midi": 48,
                    "time": 70.9501706666668,
                    "velocity": 0.25984251968503935,
                    "duration": 0.1809953333333283
                },
                {
                    "name": "C2",
                    "midi": 36,
                    "time": 71.13116600000014,
                    "velocity": 0.1968503937007874,
                    "duration": 0.5429859999999991
                },
                {
                    "name": "G2",
                    "midi": 43,
                    "time": 71.13116600000014,
                    "velocity": 0.23622047244094488,
                    "duration": 0.5429859999999991
                },
                {
                    "name": "C2",
                    "midi": 36,
                    "time": 71.67415200000013,
                    "velocity": 0.2283464566929134,
                    "duration": 0.5429859999999991
                },
                {
                    "name": "D#3",
                    "midi": 51,
                    "time": 71.67415200000013,
                    "velocity": 0.2755905511811024,
                    "duration": 0.1809953333333425
                },
                {
                    "name": "G2",
                    "midi": 43,
                    "time": 71.85514733333348,
                    "velocity": 0.2755905511811024,
                    "duration": 0.1809953333333283
                },
                {
                    "name": "D3",
                    "midi": 50,
                    "time": 72.0361426666668,
                    "velocity": 0.2755905511811024,
                    "duration": 0.1809953333333283
                },
                {
                    "name": "C2",
                    "midi": 36,
                    "time": 72.21713800000013,
                    "velocity": 0.2283464566929134,
                    "duration": 0.5429859999999991
                },
                {
                    "name": "G2",
                    "midi": 43,
                    "time": 72.21713800000013,
                    "velocity": 0.2755905511811024,
                    "duration": 0.5429859999999991
                },
                {
                    "name": "C2",
                    "midi": 36,
                    "time": 72.76012400000013,
                    "velocity": 0.2125984251968504,
                    "duration": 0.5429859999999849
                },
                {
                    "name": "C3",
                    "midi": 48,
                    "time": 72.76012400000013,
                    "velocity": 0.25984251968503935,
                    "duration": 0.1809953333333283
                },
                {
                    "name": "G2",
                    "midi": 43,
                    "time": 72.94111933333346,
                    "velocity": 0.25984251968503935,
                    "duration": 0.1809953333333283
                },
                {
                    "name": "A#2",
                    "midi": 46,
                    "time": 73.12211466666679,
                    "velocity": 0.25984251968503935,
                    "duration": 0.1809953333333283
                },
                {
                    "name": "G2",
                    "midi": 43,
                    "time": 73.30311000000012,
                    "velocity": 0.25984251968503935,
                    "duration": 0.5429859999999991
                },
                {
                    "name": "C2",
                    "midi": 36,
                    "time": 73.30311000000012,
                    "velocity": 0.2125984251968504,
                    "duration": 0.5429859999999991
                },
                {
                    "name": "C2",
                    "midi": 36,
                    "time": 73.84609600000012,
                    "velocity": 0.2755905511811024,
                    "duration": 0.3619906666666708
                },
                {
                    "name": "G#2",
                    "midi": 44,
                    "time": 73.85514576666678,
                    "velocity": 0.2755905511811024,
                    "duration": 0.1809953333333425
                },
                {
                    "name": "C3",
                    "midi": 48,
                    "time": 74.02709133333346,
                    "velocity": 0.2755905511811024,
                    "duration": 0.1809953333333283
                },
                {
                    "name": "G2",
                    "midi": 43,
                    "time": 74.20808666666679,
                    "velocity": 0.25984251968503935,
                    "duration": 0.1809953333333283
                },
                {
                    "name": "C2",
                    "midi": 36,
                    "time": 74.20808666666679,
                    "velocity": 0.25984251968503935,
                    "duration": 0.7239813333333274
                },
                {
                    "name": "A#2",
                    "midi": 46,
                    "time": 74.38455711666678,
                    "velocity": 0.2440944881889764,
                    "duration": 0.5429859999999991
                },
                {
                    "name": "C2",
                    "midi": 36,
                    "time": 74.93206800000011,
                    "velocity": 0.2440944881889764,
                    "duration": 0.3619906666666708
                },
                {
                    "name": "G#2",
                    "midi": 44,
                    "time": 74.93206800000011,
                    "velocity": 0.2992125984251969,
                    "duration": 0.1809953333333425
                },
                {
                    "name": "C3",
                    "midi": 48,
                    "time": 75.11306333333346,
                    "velocity": 0.2755905511811024,
                    "duration": 0.1809953333333283
                },
                {
                    "name": "C2",
                    "midi": 36,
                    "time": 75.29405866666679,
                    "velocity": 0.2283464566929134,
                    "duration": 0.3619906666666566
                },
                {
                    "name": "G2",
                    "midi": 43,
                    "time": 75.29405866666679,
                    "velocity": 0.2755905511811024,
                    "duration": 0.1809953333333283
                },
                {
                    "name": "A#2",
                    "midi": 46,
                    "time": 75.47505400000011,
                    "velocity": 0.2677165354330709,
                    "duration": 0.1809953333333283
                },
                {
                    "name": "C2",
                    "midi": 36,
                    "time": 75.65604933333344,
                    "velocity": 0.2047244094488189,
                    "duration": 0.3619906666666566
                },
                {
                    "name": "F2",
                    "midi": 41,
                    "time": 75.65604933333344,
                    "velocity": 0.2755905511811024,
                    "duration": 0.1809953333333283
                },
                {
                    "name": "G#2",
                    "midi": 44,
                    "time": 75.83704466666677,
                    "velocity": 0.2440944881889764,
                    "duration": 0.1809953333333283
                },
                {
                    "name": "C2",
                    "midi": 36,
                    "time": 76.0180400000001,
                    "velocity": 0.2283464566929134,
                    "duration": 0.5429859999999991
                },
                {
                    "name": "D#2",
                    "midi": 39,
                    "time": 76.02256488333343,
                    "velocity": 0.2755905511811024,
                    "duration": 0.1809953333333425
                },
                {
                    "name": "G#2",
                    "midi": 44,
                    "time": 76.19903533333344,
                    "velocity": 0.25984251968503935,
                    "duration": 0.1809953333333283
                },
                {
                    "name": "D#2",
                    "midi": 39,
                    "time": 76.3845555500001,
                    "velocity": 0.25984251968503935,
                    "duration": 0.1809953333333283
                },
                {
                    "name": "G1",
                    "midi": 31,
                    "time": 76.5610260000001,
                    "velocity": 0.2283464566929134,
                    "duration": 0.5429859999999991
                },
                {
                    "name": "G2",
                    "midi": 43,
                    "time": 76.5610260000001,
                    "velocity": 0.2755905511811024,
                    "duration": 0.5429859999999991
                },
                {
                    "name": "C2",
                    "midi": 36,
                    "time": 77.1040120000001,
                    "velocity": 0.2283464566929134,
                    "duration": 0.5429859999999991
                },
                {
                    "name": "D#2",
                    "midi": 39,
                    "time": 77.1040120000001,
                    "velocity": 0.2755905511811024,
                    "duration": 0.1809953333333425
                },
                {
                    "name": "A2",
                    "midi": 45,
                    "time": 77.28500733333344,
                    "velocity": 0.2677165354330709,
                    "duration": 0.1809953333333283
                },
                {
                    "name": "D#2",
                    "midi": 39,
                    "time": 77.46600266666677,
                    "velocity": 0.2677165354330709,
                    "duration": 0.1809953333333283
                },
                {
                    "name": "G1",
                    "midi": 31,
                    "time": 77.6469980000001,
                    "velocity": 0.2283464566929134,
                    "duration": 0.5429860000000133
                },
                {
                    "name": "G2",
                    "midi": 43,
                    "time": 77.6469980000001,
                    "velocity": 0.2755905511811024,
                    "duration": 0.5429860000000133
                },
                {
                    "name": "E3",
                    "midi": 52,
                    "time": 78.18998400000011,
                    "velocity": 0.3228346456692913,
                    "duration": 0.1809953333333283
                },
                {
                    "name": "C2",
                    "midi": 36,
                    "time": 78.18998400000011,
                    "velocity": 0.3228346456692913,
                    "duration": 0.5429859999999849
                },
                {
                    "name": "G2",
                    "midi": 43,
                    "time": 78.37097933333344,
                    "velocity": 0.2992125984251969,
                    "duration": 0.1809953333333283
                },
                {
                    "name": "E3",
                    "midi": 52,
                    "time": 78.55197466666677,
                    "velocity": 0.2992125984251969,
                    "duration": 0.1809953333333283
                },
                {
                    "name": "D3",
                    "midi": 50,
                    "time": 78.7329700000001,
                    "velocity": 0.29133858267716534,
                    "duration": 0.5429859999999991
                },
                {
                    "name": "G3",
                    "midi": 55,
                    "time": 78.7329700000001,
                    "velocity": 0.29133858267716534,
                    "duration": 0.5429859999999991
                },
                {
                    "name": "G2",
                    "midi": 43,
                    "time": 78.7329700000001,
                    "velocity": 0.29133858267716534,
                    "duration": 0.5429859999999991
                },
                {
                    "name": "C3",
                    "midi": 48,
                    "time": 78.7329700000001,
                    "velocity": 0.29133858267716534,
                    "duration": 0.5429859999999991
                },
                {
                    "name": "C2",
                    "midi": 36,
                    "time": 79.2759560000001,
                    "velocity": 0.3779527559055118,
                    "duration": 0.5429859999999991
                },
                {
                    "name": "C3",
                    "midi": 48,
                    "time": 79.2759560000001,
                    "velocity": 0.3779527559055118,
                    "duration": 0.1809953333333425
                },
                {
                    "name": "G2",
                    "midi": 43,
                    "time": 79.45695133333344,
                    "velocity": 0.3464566929133858,
                    "duration": 0.1809953333333283
                },
                {
                    "name": "C3",
                    "midi": 48,
                    "time": 79.63794666666676,
                    "velocity": 0.3464566929133858,
                    "duration": 0.1809953333333283
                },
                {
                    "name": "G3",
                    "midi": 55,
                    "time": 79.81894200000009,
                    "velocity": 0.30708661417322836,
                    "duration": 0.5429859999999991
                },
                {
                    "name": "D3",
                    "midi": 50,
                    "time": 79.81894200000009,
                    "velocity": 0.30708661417322836,
                    "duration": 0.5429859999999991
                },
                {
                    "name": "C3",
                    "midi": 48,
                    "time": 79.81894200000009,
                    "velocity": 0.30708661417322836,
                    "duration": 0.5429859999999991
                },
                {
                    "name": "G2",
                    "midi": 43,
                    "time": 79.81894200000009,
                    "velocity": 0.30708661417322836,
                    "duration": 0.5429859999999991
                },
                {
                    "name": "C2",
                    "midi": 36,
                    "time": 80.36192800000009,
                    "velocity": 0.4094488188976378,
                    "duration": 0.5429859999999991
                },
                {
                    "name": "E3",
                    "midi": 52,
                    "time": 80.36192800000009,
                    "velocity": 0.4094488188976378,
                    "duration": 0.1809953333333425
                },
                {
                    "name": "G2",
                    "midi": 43,
                    "time": 80.54292333333343,
                    "velocity": 0.3779527559055118,
                    "duration": 0.1809953333333283
                },
                {
                    "name": "D3",
                    "midi": 50,
                    "time": 80.72391866666676,
                    "velocity": 0.3779527559055118,
                    "duration": 0.1809953333333283
                },
                {
                    "name": "G2",
                    "midi": 43,
                    "time": 80.90491400000009,
                    "velocity": 0.36220472440944884,
                    "duration": 0.5429859999999991
                },
                {
                    "name": "C3",
                    "midi": 48,
                    "time": 80.90491400000009,
                    "velocity": 0.36220472440944884,
                    "duration": 0.5429859999999991
                },
                {
                    "name": "D3",
                    "midi": 50,
                    "time": 80.90491400000009,
                    "velocity": 0.36220472440944884,
                    "duration": 0.5429859999999991
                },
                {
                    "name": "G3",
                    "midi": 55,
                    "time": 80.90491400000009,
                    "velocity": 0.36220472440944884,
                    "duration": 0.5429859999999991
                },
                {
                    "name": "C2",
                    "midi": 36,
                    "time": 81.44790000000009,
                    "velocity": 0.4251968503937008,
                    "duration": 0.5429859999999849
                },
                {
                    "name": "C3",
                    "midi": 48,
                    "time": 81.44790000000009,
                    "velocity": 0.47244094488188976,
                    "duration": 0.1809953333333283
                },
                {
                    "name": "G2",
                    "midi": 43,
                    "time": 81.62889533333342,
                    "velocity": 0.41732283464566927,
                    "duration": 0.1809953333333283
                },
                {
                    "name": "A#2",
                    "midi": 46,
                    "time": 81.80989066666675,
                    "velocity": 0.41732283464566927,
                    "duration": 0.1809953333333283
                },
                {
                    "name": "G3",
                    "midi": 55,
                    "time": 81.99088600000007,
                    "velocity": 0.41732283464566927,
                    "duration": 0.5429859999999991
                },
                {
                    "name": "C3",
                    "midi": 48,
                    "time": 81.99088600000007,
                    "velocity": 0.41732283464566927,
                    "duration": 0.5429859999999991
                },
                {
                    "name": "G2",
                    "midi": 43,
                    "time": 81.99088600000007,
                    "velocity": 0.41732283464566927,
                    "duration": 0.5429859999999991
                },
                {
                    "name": "C2",
                    "midi": 36,
                    "time": 82.53387200000007,
                    "velocity": 0.4409448818897638,
                    "duration": 0.1809953333333283
                },
                {
                    "name": "F2",
                    "midi": 41,
                    "time": 82.53387200000007,
                    "velocity": 0.4409448818897638,
                    "duration": 0.1809953333333283
                },
                {
                    "name": "A2",
                    "midi": 45,
                    "time": 82.53387200000007,
                    "velocity": 0.5196850393700787,
                    "duration": 0.1809953333333283
                },
                {
                    "name": "C3",
                    "midi": 48,
                    "time": 82.7148673333334,
                    "velocity": 0.4094488188976378,
                    "duration": 0.09049766666666414
                },
                {
                    "name": "G3",
                    "midi": 55,
                    "time": 82.89586266666673,
                    "velocity": 0.4409448818897638,
                    "duration": 0.7239813333333274
                },
                {
                    "name": "C3",
                    "midi": 48,
                    "time": 82.89586266666673,
                    "velocity": 0.3700787401574803,
                    "duration": 0.7239813333333274
                },
                {
                    "name": "E3",
                    "midi": 52,
                    "time": 82.89586266666673,
                    "velocity": 0.3700787401574803,
                    "duration": 0.7239813333333274
                },
                {
                    "name": "C4",
                    "midi": 60,
                    "time": 83.07685800000006,
                    "velocity": 0.5039370078740157,
                    "duration": 0.5429859999999991
                },
                {
                    "name": "D2",
                    "midi": 38,
                    "time": 83.61984400000006,
                    "velocity": 0.4409448818897638,
                    "duration": 0.1809953333333283
                },
                {
                    "name": "F2",
                    "midi": 41,
                    "time": 83.61984400000006,
                    "velocity": 0.4409448818897638,
                    "duration": 0.1809953333333283
                },
                {
                    "name": "A2",
                    "midi": 45,
                    "time": 83.61984400000006,
                    "velocity": 0.5196850393700787,
                    "duration": 0.1809953333333283
                },
                {
                    "name": "D3",
                    "midi": 50,
                    "time": 83.80083933333339,
                    "velocity": 0.4881889763779528,
                    "duration": 0.09049766666666414
                },
                {
                    "name": "A2",
                    "midi": 45,
                    "time": 83.98183466666671,
                    "velocity": 0.3700787401574803,
                    "duration": 0.7239813333333274
                },
                {
                    "name": "C3",
                    "midi": 48,
                    "time": 83.98183466666671,
                    "velocity": 0.3700787401574803,
                    "duration": 0.7239813333333274
                },
                {
                    "name": "E3",
                    "midi": 52,
                    "time": 83.98183466666671,
                    "velocity": 0.4409448818897638,
                    "duration": 0.7239813333333274
                },
                {
                    "name": "A3",
                    "midi": 57,
                    "time": 84.16283000000004,
                    "velocity": 0.49606299212598426,
                    "duration": 0.5429859999999991
                },
                {
                    "name": "G1",
                    "midi": 31,
                    "time": 84.70581600000004,
                    "velocity": 0.5275590551181102,
                    "duration": 0.1809953333333283
                },
                {
                    "name": "G2",
                    "midi": 43,
                    "time": 84.88681133333337,
                    "velocity": 0.4094488188976378,
                    "duration": 0.1809953333333283
                },
                {
                    "name": "E3",
                    "midi": 52,
                    "time": 85.0678066666667,
                    "velocity": 0.5039370078740157,
                    "duration": 0.1809953333333283
                },
                {
                    "name": "C3",
                    "midi": 48,
                    "time": 85.0678066666667,
                    "velocity": 0.4251968503937008,
                    "duration": 0.1809953333333283
                },
                {
                    "name": "G2",
                    "midi": 43,
                    "time": 85.24880200000003,
                    "velocity": 0.33070866141732286,
                    "duration": 0.1809953333333283
                },
                {
                    "name": "G3",
                    "midi": 55,
                    "time": 85.24880200000003,
                    "velocity": 0.3937007874015748,
                    "duration": 0.1809953333333283
                },
                {
                    "name": "D3",
                    "midi": 50,
                    "time": 85.42979733333335,
                    "velocity": 0.4094488188976378,
                    "duration": 0.1809953333333425
                },
                {
                    "name": "F3",
                    "midi": 53,
                    "time": 85.42979733333335,
                    "velocity": 0.4881889763779528,
                    "duration": 0.1809953333333425
                },
                {
                    "name": "G2",
                    "midi": 43,
                    "time": 85.6107926666667,
                    "velocity": 0.31496062992125984,
                    "duration": 0.1809953333333283
                },
                {
                    "name": "G3",
                    "midi": 55,
                    "time": 85.6107926666667,
                    "velocity": 0.3779527559055118,
                    "duration": 0.1809953333333283
                },
                {
                    "name": "C3",
                    "midi": 48,
                    "time": 85.79178800000003,
                    "velocity": 0.44881889763779526,
                    "duration": 0.1809953333333425
                },
                {
                    "name": "E3",
                    "midi": 52,
                    "time": 85.79178800000003,
                    "velocity": 0.5354330708661418,
                    "duration": 0.1809953333333425
                },
                {
                    "name": "G2",
                    "midi": 43,
                    "time": 85.97278333333337,
                    "velocity": 0.3464566929133858,
                    "duration": 0.1809953333333283
                },
                {
                    "name": "G3",
                    "midi": 55,
                    "time": 85.97278333333337,
                    "velocity": 0.4094488188976378,
                    "duration": 0.1809953333333283
                },
                {
                    "name": "A2",
                    "midi": 45,
                    "time": 86.1537786666667,
                    "velocity": 0.4094488188976378,
                    "duration": 0.1809953333333283
                },
                {
                    "name": "C3",
                    "midi": 48,
                    "time": 86.1537786666667,
                    "velocity": 0.4881889763779528,
                    "duration": 0.1809953333333283
                },
                {
                    "name": "G2",
                    "midi": 43,
                    "time": 86.33477400000002,
                    "velocity": 0.3858267716535433,
                    "duration": 0.5429859999999991
                },
                {
                    "name": "B2",
                    "midi": 47,
                    "time": 86.33477400000002,
                    "velocity": 0.3858267716535433,
                    "duration": 0.5429859999999991
                },
                {
                    "name": "D3",
                    "midi": 50,
                    "time": 86.33477400000002,
                    "velocity": 0.4566929133858268,
                    "duration": 0.5429859999999991
                },
                {
                    "name": "G3",
                    "midi": 55,
                    "time": 86.33477400000002,
                    "velocity": 0.4566929133858268,
                    "duration": 0.5429859999999991
                },
                {
                    "name": "C2",
                    "midi": 36,
                    "time": 86.87776000000002,
                    "velocity": 0.4881889763779528,
                    "duration": 0.1809953333333425
                },
                {
                    "name": "C3",
                    "midi": 48,
                    "time": 87.05875533333337,
                    "velocity": 0.4566929133858268,
                    "duration": 0.1809953333333283
                },
                {
                    "name": "A3",
                    "midi": 57,
                    "time": 87.2397506666667,
                    "velocity": 0.44881889763779526,
                    "duration": 0.5429859999999991
                },
                {
                    "name": "F3",
                    "midi": 53,
                    "time": 87.2397506666667,
                    "velocity": 0.3779527559055118,
                    "duration": 0.5429859999999991
                },
                {
                    "name": "C3",
                    "midi": 48,
                    "time": 87.42074600000002,
                    "velocity": 0.3464566929133858,
                    "duration": 0.5429859999999991
                },
                {
                    "name": "C4",
                    "midi": 60,
                    "time": 87.42074600000002,
                    "velocity": 0.4094488188976378,
                    "duration": 0.5429859999999991
                },
                {
                    "name": "E3",
                    "midi": 52,
                    "time": 87.7827366666667,
                    "velocity": 0.4015748031496063,
                    "duration": 0.1809953333333283
                },
                {
                    "name": "G3",
                    "midi": 55,
                    "time": 87.7827366666667,
                    "velocity": 0.4015748031496063,
                    "duration": 0.1809953333333283
                },
                {
                    "name": "A1",
                    "midi": 33,
                    "time": 87.96373200000002,
                    "velocity": 0.4566929133858268,
                    "duration": 0.1809953333333425
                },
                {
                    "name": "A2",
                    "midi": 45,
                    "time": 88.14472733333336,
                    "velocity": 0.4566929133858268,
                    "duration": 0.1809953333333283
                },
                {
                    "name": "F3",
                    "midi": 53,
                    "time": 88.32572266666669,
                    "velocity": 0.4566929133858268,
                    "duration": 0.5429859999999991
                },
                {
                    "name": "D3",
                    "midi": 50,
                    "time": 88.32572266666669,
                    "velocity": 0.3858267716535433,
                    "duration": 0.5429859999999991
                },
                {
                    "name": "A2",
                    "midi": 45,
                    "time": 88.50671800000002,
                    "velocity": 0.3464566929133858,
                    "duration": 0.5429859999999991
                },
                {
                    "name": "A3",
                    "midi": 57,
                    "time": 88.50671800000002,
                    "velocity": 0.4094488188976378,
                    "duration": 0.5429859999999991
                },
                {
                    "name": "C3",
                    "midi": 48,
                    "time": 88.86870866666669,
                    "velocity": 0.3858267716535433,
                    "duration": 0.1809953333333283
                },
                {
                    "name": "E3",
                    "midi": 52,
                    "time": 88.86870866666669,
                    "velocity": 0.3858267716535433,
                    "duration": 0.1809953333333283
                },
                {
                    "name": "G1",
                    "midi": 31,
                    "time": 89.04970400000002,
                    "velocity": 0.4566929133858268,
                    "duration": 0.1809953333333283
                },
                {
                    "name": "G2",
                    "midi": 43,
                    "time": 89.23069933333335,
                    "velocity": 0.4094488188976378,
                    "duration": 0.1809953333333283
                },
                {
                    "name": "E3",
                    "midi": 52,
                    "time": 89.41169466666668,
                    "velocity": 0.4645669291338583,
                    "duration": 0.1809953333333283
                },
                {
                    "name": "C3",
                    "midi": 48,
                    "time": 89.41169466666668,
                    "velocity": 0.3937007874015748,
                    "duration": 0.1809953333333283
                },
                {
                    "name": "G2",
                    "midi": 43,
                    "time": 89.59269,
                    "velocity": 0.4094488188976378,
                    "duration": 0.1809953333333283
                },
                {
                    "name": "G3",
                    "midi": 55,
                    "time": 89.59269,
                    "velocity": 0.4094488188976378,
                    "duration": 0.1809953333333283
                },
                {
                    "name": "A2",
                    "midi": 45,
                    "time": 89.77368533333333,
                    "velocity": 0.4645669291338583,
                    "duration": 0.1809953333333425
                },
                {
                    "name": "C3",
                    "midi": 48,
                    "time": 89.77368533333333,
                    "velocity": 0.4645669291338583,
                    "duration": 0.1809953333333425
                },
                {
                    "name": "G2",
                    "midi": 43,
                    "time": 89.95468066666668,
                    "velocity": 0.4015748031496063,
                    "duration": 0.1809953333333283
                },
                {
                    "name": "G3",
                    "midi": 55,
                    "time": 89.95468066666668,
                    "velocity": 0.4015748031496063,
                    "duration": 0.1809953333333283
                },
                {
                    "name": "G1",
                    "midi": 31,
                    "time": 90.135676,
                    "velocity": 0.29133858267716534,
                    "duration": 0.5429859999999991
                },
                {
                    "name": "B1",
                    "midi": 35,
                    "time": 90.135676,
                    "velocity": 0.29133858267716534,
                    "duration": 0.5429859999999991
                },
                {
                    "name": "D2",
                    "midi": 38,
                    "time": 90.135676,
                    "velocity": 0.3464566929133858,
                    "duration": 0.5429859999999991
                },
                {
                    "name": "G2",
                    "midi": 43,
                    "time": 90.135676,
                    "velocity": 0.3464566929133858,
                    "duration": 0.5429859999999991
                },
                {
                    "name": "C2",
                    "midi": 36,
                    "time": 90.678662,
                    "velocity": 0.3937007874015748,
                    "duration": 0.20361975000000143
                },
                {
                    "name": "C3",
                    "midi": 48,
                    "time": 90.678662,
                    "velocity": 0.4645669291338583,
                    "duration": 0.20361975000000143
                },
                {
                    "name": "A#1",
                    "midi": 34,
                    "time": 90.95015500000001,
                    "velocity": 0.3937007874015748,
                    "duration": 0.20361975000000143
                },
                {
                    "name": "A#2",
                    "midi": 46,
                    "time": 90.95015500000001,
                    "velocity": 0.4645669291338583,
                    "duration": 0.20361975000000143
                },
                {
                    "name": "G#1",
                    "midi": 32,
                    "time": 91.22164800000002,
                    "velocity": 0.41732283464566927,
                    "duration": 2.1719439999999963
                },
                {
                    "name": "C2",
                    "midi": 36,
                    "time": 91.22164800000002,
                    "velocity": 0.41732283464566927,
                    "duration": 2.1719439999999963
                },
                {
                    "name": "G#2",
                    "midi": 44,
                    "time": 91.22164800000002,
                    "velocity": 0.47244094488188976,
                    "duration": 2.1719439999999963
                },
                {
                    "name": "D#3",
                    "midi": 51,
                    "time": 93.39359200000001,
                    "velocity": 0.2677165354330709,
                    "duration": 2.1719439999999963
                },
                {
                    "name": "G#3",
                    "midi": 56,
                    "time": 93.39359200000001,
                    "velocity": 0.2992125984251969,
                    "duration": 2.1719439999999963
                },
                {
                    "name": "C4",
                    "midi": 60,
                    "time": 93.39359200000001,
                    "velocity": 0.2992125984251969,
                    "duration": 2.1606317916666598
                },
                {
                    "name": "G#1",
                    "midi": 32,
                    "time": 95.56553600000001,
                    "velocity": 0.2283464566929134,
                    "duration": 1.0859720000000124
                },
                {
                    "name": "C2",
                    "midi": 36,
                    "time": 95.56553600000001,
                    "velocity": 0.2283464566929134,
                    "duration": 1.0859720000000124
                },
                {
                    "name": "G#2",
                    "midi": 44,
                    "time": 95.56553600000001,
                    "velocity": 0.25984251968503935,
                    "duration": 1.0859720000000124
                },
                {
                    "name": "C3",
                    "midi": 48,
                    "time": 96.65150800000002,
                    "velocity": 0.29133858267716534,
                    "duration": 1.085971999999984
                },
                {
                    "name": "G#2",
                    "midi": 44,
                    "time": 96.65150800000002,
                    "velocity": 0.29133858267716534,
                    "duration": 1.085971999999984
                },
                {
                    "name": "F3",
                    "midi": 53,
                    "time": 96.65150800000002,
                    "velocity": 0.29133858267716534,
                    "duration": 0.5429859999999849
                },
                {
                    "name": "E3",
                    "midi": 52,
                    "time": 97.194494,
                    "velocity": 0.2755905511811024,
                    "duration": 0.5429859999999991
                },
                {
                    "name": "D#4",
                    "midi": 63,
                    "time": 97.73748,
                    "velocity": 0.2204724409448819,
                    "duration": 2.1719440000000105
                },
                {
                    "name": "C4",
                    "midi": 60,
                    "time": 97.73748,
                    "velocity": 0.2204724409448819,
                    "duration": 2.1719440000000105
                },
                {
                    "name": "G#3",
                    "midi": 56,
                    "time": 97.73748,
                    "velocity": 0.1968503937007874,
                    "duration": 2.1719440000000105
                },
                {
                    "name": "D#3",
                    "midi": 51,
                    "time": 97.73748,
                    "velocity": 0.1968503937007874,
                    "duration": 2.1719440000000105
                },
                {
                    "name": "G#1",
                    "midi": 32,
                    "time": 99.77367750000002,
                    "velocity": 0.1732283464566929,
                    "duration": 0.27149299999999243
                },
                {
                    "name": "G#2",
                    "midi": 44,
                    "time": 99.90942400000002,
                    "velocity": 0.2125984251968504,
                    "duration": 0.13574649999999622
                },
                {
                    "name": "C3",
                    "midi": 48,
                    "time": 100.18091700000001,
                    "velocity": 0.1732283464566929,
                    "duration": 0.13574649999999622
                },
                {
                    "name": "G#2",
                    "midi": 44,
                    "time": 100.38453675000001,
                    "velocity": 0.13385826771653545,
                    "duration": 0.20361975000001564
                },
                {
                    "name": "G#3",
                    "midi": 56,
                    "time": 100.45241000000001,
                    "velocity": 0.2047244094488189,
                    "duration": 0.13574650000001043
                },
                {
                    "name": "C4",
                    "midi": 60,
                    "time": 100.72390300000002,
                    "velocity": 0.1732283464566929,
                    "duration": 0.13574649999999622
                },
                {
                    "name": "G#3",
                    "midi": 56,
                    "time": 100.92752275000002,
                    "velocity": 0.13385826771653545,
                    "duration": 0.20361975000000143
                },
                {
                    "name": "G#4",
                    "midi": 68,
                    "time": 100.99539600000003,
                    "velocity": 0.2125984251968504,
                    "duration": 0.13574649999999622
                },
                {
                    "name": "C4",
                    "midi": 60,
                    "time": 101.26688900000002,
                    "velocity": 0.18110236220472442,
                    "duration": 0.13574649999999622
                },
                {
                    "name": "G#2",
                    "midi": 44,
                    "time": 101.47050875000002,
                    "velocity": 0.13385826771653545,
                    "duration": 0.20361975000001564
                },
                {
                    "name": "G#3",
                    "midi": 56,
                    "time": 101.53838200000003,
                    "velocity": 0.2125984251968504,
                    "duration": 0.13574650000001043
                },
                {
                    "name": "C3",
                    "midi": 48,
                    "time": 101.80987500000003,
                    "velocity": 0.1889763779527559,
                    "duration": 0.13574649999999622
                },
                {
                    "name": "G#1",
                    "midi": 32,
                    "time": 102.01349475000004,
                    "velocity": 0.12598425196850394,
                    "duration": 0.20361975000001564
                },
                {
                    "name": "G#2",
                    "midi": 44,
                    "time": 102.08136800000004,
                    "velocity": 0.2125984251968504,
                    "duration": 0.13574650000001043
                },
                {
                    "name": "C3",
                    "midi": 48,
                    "time": 102.35286100000005,
                    "velocity": 0.1732283464566929,
                    "duration": 0.13574649999999622
                },
                {
                    "name": "G#2",
                    "midi": 44,
                    "time": 102.55648075000005,
                    "velocity": 0.13385826771653545,
                    "duration": 0.20361975000001564
                },
                {
                    "name": "G#3",
                    "midi": 56,
                    "time": 102.62435400000005,
                    "velocity": 0.2047244094488189,
                    "duration": 0.13574650000001043
                },
                {
                    "name": "C4",
                    "midi": 60,
                    "time": 102.89584700000006,
                    "velocity": 0.1732283464566929,
                    "duration": 0.13574649999999622
                },
                {
                    "name": "G#3",
                    "midi": 56,
                    "time": 103.09946675000006,
                    "velocity": 0.12598425196850394,
                    "duration": 0.20361975000001564
                },
                {
                    "name": "D#4",
                    "midi": 63,
                    "time": 103.16734000000007,
                    "velocity": 0.2125984251968504,
                    "duration": 0.13574650000001043
                },
                {
                    "name": "G4",
                    "midi": 67,
                    "time": 103.43883300000007,
                    "velocity": 0.1889763779527559,
                    "duration": 0.13574649999999622
                },
                {
                    "name": "G#3",
                    "midi": 56,
                    "time": 103.64245275000007,
                    "velocity": 0.11811023622047244,
                    "duration": 0.20361975000001564
                },
                {
                    "name": "C#4",
                    "midi": 61,
                    "time": 103.71032600000008,
                    "velocity": 0.2125984251968504,
                    "duration": 0.13574650000001043
                },
                {
                    "name": "D#4",
                    "midi": 63,
                    "time": 103.98181900000009,
                    "velocity": 0.1889763779527559,
                    "duration": 0.13574649999999622
                },
                {
                    "name": "G#3",
                    "midi": 56,
                    "time": 104.18543875000009,
                    "velocity": 0.11811023622047244,
                    "duration": 0.20361975000001564
                },
                {
                    "name": "F4",
                    "midi": 65,
                    "time": 104.2533120000001,
                    "velocity": 0.2047244094488189,
                    "duration": 0.13574650000001043
                },
                {
                    "name": "G#4",
                    "midi": 68,
                    "time": 104.5248050000001,
                    "velocity": 0.1889763779527559,
                    "duration": 0.13574649999999622
                },
                {
                    "name": "G#3",
                    "midi": 56,
                    "time": 104.7284247500001,
                    "velocity": 0.12598425196850394,
                    "duration": 0.20361975000000143
                },
                {
                    "name": "C#4",
                    "midi": 61,
                    "time": 104.7962980000001,
                    "velocity": 0.2125984251968504,
                    "duration": 0.13574649999999622
                },
                {
                    "name": "F4",
                    "midi": 65,
                    "time": 105.0677910000001,
                    "velocity": 0.1889763779527559,
                    "duration": 0.13574649999999622
                },
                {
                    "name": "G#2",
                    "midi": 44,
                    "time": 105.2714107500001,
                    "velocity": 0.12598425196850394,
                    "duration": 0.20361975000001564
                },
                {
                    "name": "C#3",
                    "midi": 49,
                    "time": 105.3392840000001,
                    "velocity": 0.2047244094488189,
                    "duration": 0.13574650000001043
                },
                {
                    "name": "D#3",
                    "midi": 51,
                    "time": 105.61077700000011,
                    "velocity": 0.1889763779527559,
                    "duration": 0.13574649999999622
                },
                {
                    "name": "G#2",
                    "midi": 44,
                    "time": 105.74652350000011,
                    "velocity": 0.13385826771653545,
                    "duration": 0.27149300000002086
                },
                {
                    "name": "D#3",
                    "midi": 51,
                    "time": 105.81439675000011,
                    "velocity": 0.13385826771653545,
                    "duration": 0.20361975000001564
                },
                {
                    "name": "G3",
                    "midi": 55,
                    "time": 105.88227000000012,
                    "velocity": 0.2047244094488189,
                    "duration": 0.13574650000001043
                },
                {
                    "name": "G#3",
                    "midi": 56,
                    "time": 106.15376300000013,
                    "velocity": 0.1889763779527559,
                    "duration": 0.13574649999999622
                },
                {
                    "name": "G#2",
                    "midi": 44,
                    "time": 106.28950950000012,
                    "velocity": 0.13385826771653545,
                    "duration": 0.27149300000000665
                },
                {
                    "name": "D#3",
                    "midi": 51,
                    "time": 106.35738275000013,
                    "velocity": 0.13385826771653545,
                    "duration": 0.20361975000000143
                },
                {
                    "name": "A#3",
                    "midi": 58,
                    "time": 106.42525600000013,
                    "velocity": 0.1889763779527559,
                    "duration": 0.13574649999999622
                },
                {
                    "name": "C#4",
                    "midi": 61,
                    "time": 106.69674900000012,
                    "velocity": 0.1889763779527559,
                    "duration": 0.13574649999999622
                },
                {
                    "name": "G#2",
                    "midi": 44,
                    "time": 106.83249550000012,
                    "velocity": 0.13385826771653545,
                    "duration": 0.27149300000002086
                },
                {
                    "name": "D#3",
                    "midi": 51,
                    "time": 106.90036875000013,
                    "velocity": 0.13385826771653545,
                    "duration": 0.20361975000001564
                },
                {
                    "name": "G#3",
                    "midi": 56,
                    "time": 106.96824200000013,
                    "velocity": 0.1889763779527559,
                    "duration": 0.13574650000001043
                },
                {
                    "name": "C4",
                    "midi": 60,
                    "time": 107.23973500000014,
                    "velocity": 0.1889763779527559,
                    "duration": 0.13574649999999622
                },
                {
                    "name": "G#2",
                    "midi": 44,
                    "time": 107.37548150000013,
                    "velocity": 0.13385826771653545,
                    "duration": 0.27149300000000665
                },
                {
                    "name": "D#3",
                    "midi": 51,
                    "time": 107.44335475000014,
                    "velocity": 0.13385826771653545,
                    "duration": 0.20361975000000143
                },
                {
                    "name": "G3",
                    "midi": 55,
                    "time": 107.51122800000014,
                    "velocity": 0.1732283464566929,
                    "duration": 0.13574649999999622
                },
                {
                    "name": "A#3",
                    "midi": 58,
                    "time": 107.78272100000014,
                    "velocity": 0.1889763779527559,
                    "duration": 0.13574649999999622
                },
                {
                    "name": "G#2",
                    "midi": 44,
                    "time": 107.91846750000013,
                    "velocity": 0.12598425196850394,
                    "duration": 0.27149300000002086
                },
                {
                    "name": "D#3",
                    "midi": 51,
                    "time": 107.98634075000014,
                    "velocity": 0.12598425196850394,
                    "duration": 0.20361975000001564
                },
                {
                    "name": "G#3",
                    "midi": 56,
                    "time": 108.05421400000014,
                    "velocity": 0.1732283464566929,
                    "duration": 0.13574650000001043
                },
                {
                    "name": "G3",
                    "midi": 55,
                    "time": 108.32570700000015,
                    "velocity": 0.14960629921259844,
                    "duration": 0.13574649999999622
                },
                {
                    "name": "G#2",
                    "midi": 44,
                    "time": 108.52932675000015,
                    "velocity": 0.1732283464566929,
                    "duration": 0.20361975000001564
                },
                {
                    "name": "G#3",
                    "midi": 56,
                    "time": 108.59720000000016,
                    "velocity": 0.2125984251968504,
                    "duration": 0.13574650000001043
                },
                {
                    "name": "C3",
                    "midi": 48,
                    "time": 108.86869300000016,
                    "velocity": 0.1732283464566929,
                    "duration": 0.13574649999999622
                },
                {
                    "name": "G#1",
                    "midi": 32,
                    "time": 109.07231275000017,
                    "velocity": 0.13385826771653545,
                    "duration": 0.20361975000001564
                },
                {
                    "name": "G#2",
                    "midi": 44,
                    "time": 109.14018600000017,
                    "velocity": 0.2047244094488189,
                    "duration": 0.13574650000001043
                },
                {
                    "name": "C3",
                    "midi": 48,
                    "time": 109.41167900000018,
                    "velocity": 0.1732283464566929,
                    "duration": 0.13574649999999622
                },
                {
                    "name": "G#2",
                    "midi": 44,
                    "time": 109.61529875000018,
                    "velocity": 0.13385826771653545,
                    "duration": 0.20361975000001564
                },
                {
                    "name": "G#3",
                    "midi": 56,
                    "time": 109.68317200000018,
                    "velocity": 0.2125984251968504,
                    "duration": 0.13574650000001043
                },
                {
                    "name": "C3",
                    "midi": 48,
                    "time": 109.95466500000019,
                    "velocity": 0.18110236220472442,
                    "duration": 0.13574649999999622
                },
                {
                    "name": "G#1",
                    "midi": 32,
                    "time": 110.15828475000019,
                    "velocity": 0.13385826771653545,
                    "duration": 0.20361975000000143
                },
                {
                    "name": "G#2",
                    "midi": 44,
                    "time": 110.2261580000002,
                    "velocity": 0.2125984251968504,
                    "duration": 0.13574649999999622
                },
                {
                    "name": "C3",
                    "midi": 48,
                    "time": 110.49765100000019,
                    "velocity": 0.1889763779527559,
                    "duration": 0.13574649999999622
                },
                {
                    "name": "G1",
                    "midi": 31,
                    "time": 110.70127075000019,
                    "velocity": 0.12598425196850394,
                    "duration": 0.20361975000000143
                },
                {
                    "name": "G2",
                    "midi": 43,
                    "time": 110.7691440000002,
                    "velocity": 0.2125984251968504,
                    "duration": 0.13574649999999622
                },
                {
                    "name": "C3",
                    "midi": 48,
                    "time": 111.04063700000019,
                    "velocity": 0.1732283464566929,
                    "duration": 0.13574649999999622
                },
                {
                    "name": "G2",
                    "midi": 43,
                    "time": 111.24425675000019,
                    "velocity": 0.13385826771653545,
                    "duration": 0.20361975000001564
                },
                {
                    "name": "G3",
                    "midi": 55,
                    "time": 111.3121300000002,
                    "velocity": 0.2047244094488189,
                    "duration": 0.13574650000001043
                },
                {
                    "name": "C4",
                    "midi": 60,
                    "time": 111.5836230000002,
                    "velocity": 0.1732283464566929,
                    "duration": 0.13574649999999622
                },
                {
                    "name": "F3",
                    "midi": 53,
                    "time": 111.7872427500002,
                    "velocity": 0.12598425196850394,
                    "duration": 0.20361975000001564
                },
                {
                    "name": "G3",
                    "midi": 55,
                    "time": 111.85511600000021,
                    "velocity": 0.2125984251968504,
                    "duration": 0.13574650000001043
                },
                {
                    "name": "B3",
                    "midi": 59,
                    "time": 112.12660900000022,
                    "velocity": 0.1889763779527559,
                    "duration": 0.13574649999999622
                },
                {
                    "name": "D#3",
                    "midi": 51,
                    "time": 112.33022875000022,
                    "velocity": 0.11811023622047244,
                    "duration": 0.20361975000001564
                },
                {
                    "name": "C4",
                    "midi": 60,
                    "time": 112.39810200000022,
                    "velocity": 0.2125984251968504,
                    "duration": 0.13574650000001043
                },
                {
                    "name": "D#4",
                    "midi": 63,
                    "time": 112.66959500000023,
                    "velocity": 0.1889763779527559,
                    "duration": 0.13574649999999622
                },
                {
                    "name": "F3",
                    "midi": 53,
                    "time": 112.87321475000023,
                    "velocity": 0.11811023622047244,
                    "duration": 0.20361975000000143
                },
                {
                    "name": "D4",
                    "midi": 62,
                    "time": 112.94108800000024,
                    "velocity": 0.2047244094488189,
                    "duration": 0.13574649999999622
                },
                {
                    "name": "F4",
                    "midi": 65,
                    "time": 113.21258100000023,
                    "velocity": 0.1889763779527559,
                    "duration": 0.13574649999999622
                },
                {
                    "name": "G3",
                    "midi": 55,
                    "time": 113.41620075000023,
                    "velocity": 0.12598425196850394,
                    "duration": 0.20361974999998722
                },
                {
                    "name": "B3",
                    "midi": 59,
                    "time": 113.48407400000023,
                    "velocity": 0.2125984251968504,
                    "duration": 0.135746499999982
                },
                {
                    "name": "D4",
                    "midi": 62,
                    "time": 113.75556700000021,
                    "velocity": 0.1889763779527559,
                    "duration": 0.13574649999999622
                },
                {
                    "name": "G2",
                    "midi": 43,
                    "time": 113.95918675000021,
                    "velocity": 0.12598425196850394,
                    "duration": 0.20361975000001564
                },
                {
                    "name": "G3",
                    "midi": 55,
                    "time": 114.02706000000022,
                    "velocity": 0.2047244094488189,
                    "duration": 0.13574650000001043
                },
                {
                    "name": "B3",
                    "midi": 59,
                    "time": 114.29855300000023,
                    "velocity": 0.1889763779527559,
                    "duration": 0.13574649999999622
                },
                {
                    "name": "D#2",
                    "midi": 39,
                    "time": 114.50217275000023,
                    "velocity": 0.13385826771653545,
                    "duration": 0.20361975000000143
                },
                {
                    "name": "C3",
                    "midi": 48,
                    "time": 114.57004600000023,
                    "velocity": 0.2047244094488189,
                    "duration": 0.13574649999999622
                },
                {
                    "name": "D#3",
                    "midi": 51,
                    "time": 114.84153900000022,
                    "velocity": 0.1889763779527559,
                    "duration": 0.13574649999999622
                },
                {
                    "name": "D#2",
                    "midi": 39,
                    "time": 115.04515875000023,
                    "velocity": 0.13385826771653545,
                    "duration": 0.20361975000000143
                },
                {
                    "name": "C#3",
                    "midi": 49,
                    "time": 115.11303200000023,
                    "velocity": 0.1889763779527559,
                    "duration": 0.13574649999999622
                },
                {
                    "name": "D#3",
                    "midi": 51,
                    "time": 115.38452500000022,
                    "velocity": 0.1889763779527559,
                    "duration": 0.13574649999999622
                },
                {
                    "name": "G#2",
                    "midi": 44,
                    "time": 115.58814475000023,
                    "velocity": 0.13385826771653545,
                    "duration": 0.20361975000000143
                },
                {
                    "name": "C3",
                    "midi": 48,
                    "time": 115.65601800000023,
                    "velocity": 0.1889763779527559,
                    "duration": 0.13574649999999622
                },
                {
                    "name": "D#3",
                    "midi": 51,
                    "time": 115.92751100000022,
                    "velocity": 0.1889763779527559,
                    "duration": 0.13574649999999622
                },
                {
                    "name": "G#1",
                    "midi": 32,
                    "time": 116.13113075000022,
                    "velocity": 0.2204724409448819,
                    "duration": 0.20361975000000143
                },
                {
                    "name": "D#2",
                    "midi": 39,
                    "time": 116.19900400000023,
                    "velocity": 0.2755905511811024,
                    "duration": 0.13574649999999622
                },
                {
                    "name": "G#2",
                    "midi": 44,
                    "time": 116.47049700000022,
                    "velocity": 0.23622047244094488,
                    "duration": 0.13574649999999622
                },
                {
                    "name": "D#3",
                    "midi": 51,
                    "time": 117.28497600000021,
                    "velocity": 0.2992125984251969,
                    "duration": 0.13574649999999622
                },
                {
                    "name": "D#2",
                    "midi": 39,
                    "time": 117.5564690000002,
                    "velocity": 0.25984251968503935,
                    "duration": 0.13574649999999622
                },
                {
                    "name": "D#1",
                    "midi": 27,
                    "time": 117.8279620000002,
                    "velocity": 0.31496062992125984,
                    "duration": 0.13574649999999622
                },
                {
                    "name": "D#2",
                    "midi": 39,
                    "time": 118.09945500000019,
                    "velocity": 0.25984251968503935,
                    "duration": 0.13574649999999622
                },
                {
                    "name": "C#4",
                    "midi": 61,
                    "time": 118.37094800000018,
                    "velocity": 0.2125984251968504,
                    "duration": 1.0859719999999982
                },
                {
                    "name": "D#3",
                    "midi": 51,
                    "time": 118.37094800000018,
                    "velocity": 0.2125984251968504,
                    "duration": 1.0859719999999982
                },
                {
                    "name": "C#3",
                    "midi": 49,
                    "time": 119.45692000000018,
                    "velocity": 0.28346456692913385,
                    "duration": 0.13574649999999622
                },
                {
                    "name": "C#2",
                    "midi": 37,
                    "time": 119.72841300000017,
                    "velocity": 0.23622047244094488,
                    "duration": 0.13574649999999622
                },
                {
                    "name": "C#1",
                    "midi": 25,
                    "time": 119.99990600000017,
                    "velocity": 0.28346456692913385,
                    "duration": 0.13574649999999622
                },
                {
                    "name": "C#2",
                    "midi": 37,
                    "time": 120.27139900000016,
                    "velocity": 0.2283464566929134,
                    "duration": 0.13574649999999622
                },
                {
                    "name": "E4",
                    "midi": 64,
                    "time": 120.54289200000015,
                    "velocity": 0.18110236220472442,
                    "duration": 1.0746597916666616
                },
                {
                    "name": "C#4",
                    "midi": 61,
                    "time": 120.54289200000015,
                    "velocity": 0.18110236220472442,
                    "duration": 1.0859719999999982
                },
                {
                    "name": "E3",
                    "midi": 52,
                    "time": 120.54289200000015,
                    "velocity": 0.18110236220472442,
                    "duration": 1.0859719999999982
                },
                {
                    "name": "C3",
                    "midi": 48,
                    "time": 121.62886400000015,
                    "velocity": 0.2204724409448819,
                    "duration": 0.13574649999999622
                },
                {
                    "name": "C2",
                    "midi": 36,
                    "time": 121.90035700000014,
                    "velocity": 0.2283464566929134,
                    "duration": 0.13574649999999622
                },
                {
                    "name": "C1",
                    "midi": 24,
                    "time": 122.17185000000013,
                    "velocity": 0.23622047244094488,
                    "duration": 0.13574649999999622
                },
                {
                    "name": "C2",
                    "midi": 36,
                    "time": 122.44334300000013,
                    "velocity": 0.2440944881889764,
                    "duration": 0.13574649999999622
                },
                {
                    "name": "C3",
                    "midi": 48,
                    "time": 122.64696275000013,
                    "velocity": 0.1732283464566929,
                    "duration": 0.13574650000001043
                },
                {
                    "name": "E3",
                    "midi": 52,
                    "time": 122.71483600000013,
                    "velocity": 0.2677165354330709,
                    "duration": 0.06787325000000521
                },
                {
                    "name": "C3",
                    "midi": 48,
                    "time": 122.98632900000014,
                    "velocity": 0.2755905511811024,
                    "duration": 0.13574649999999622
                },
                {
                    "name": "C2",
                    "midi": 36,
                    "time": 123.25782200000013,
                    "velocity": 0.2755905511811024,
                    "duration": 0.13574649999999622
                },
                {
                    "name": "C3",
                    "midi": 48,
                    "time": 123.52931500000012,
                    "velocity": 0.29133858267716534,
                    "duration": 0.13574649999999622
                },
                {
                    "name": "A#2",
                    "midi": 46,
                    "time": 123.73293475000013,
                    "velocity": 0.2047244094488189,
                    "duration": 0.13574650000001043
                },
                {
                    "name": "F3",
                    "midi": 53,
                    "time": 123.80080800000013,
                    "velocity": 0.2992125984251969,
                    "duration": 0.06787325000000521
                },
                {
                    "name": "A#2",
                    "midi": 46,
                    "time": 124.07230100000014,
                    "velocity": 0.30708661417322836,
                    "duration": 0.13574649999999622
                },
                {
                    "name": "A#1",
                    "midi": 34,
                    "time": 124.34379400000013,
                    "velocity": 0.31496062992125984,
                    "duration": 0.13574649999999622
                },
                {
                    "name": "F3",
                    "midi": 53,
                    "time": 124.61528700000012,
                    "velocity": 0.33070866141732286,
                    "duration": 0.13574649999999622
                },
                {
                    "name": "D#3",
                    "midi": 51,
                    "time": 124.81890675000012,
                    "velocity": 0.2125984251968504,
                    "duration": 0.13574650000001043
                },
                {
                    "name": "A#3",
                    "midi": 58,
                    "time": 124.88678000000013,
                    "velocity": 0.3464566929133858,
                    "duration": 0.06787325000000521
                },
                {
                    "name": "D#2",
                    "midi": 39,
                    "time": 125.15827300000014,
                    "velocity": 0.3464566929133858,
                    "duration": 0.13574649999999622
                },
                {
                    "name": "D#1",
                    "midi": 27,
                    "time": 125.42976600000013,
                    "velocity": 0.36220472440944884,
                    "duration": 0.13574649999999622
                },
                {
                    "name": "D#3",
                    "midi": 51,
                    "time": 125.70125900000012,
                    "velocity": 0.3700787401574803,
                    "duration": 0.13574650000001043
                },
                {
                    "name": "G#1",
                    "midi": 32,
                    "time": 125.90487875000014,
                    "velocity": 0.1732283464566929,
                    "duration": 0.20361975000000143
                },
                {
                    "name": "G#2",
                    "midi": 44,
                    "time": 125.97275200000014,
                    "velocity": 0.2125984251968504,
                    "duration": 0.13574649999999622
                },
                {
                    "name": "C3",
                    "midi": 48,
                    "time": 126.24424500000013,
                    "velocity": 0.1732283464566929,
                    "duration": 0.13574649999999622
                },
                {
                    "name": "G#2",
                    "midi": 44,
                    "time": 126.44786475000014,
                    "velocity": 0.13385826771653545,
                    "duration": 0.20361975000000143
                },
                {
                    "name": "G#3",
                    "midi": 56,
                    "time": 126.51573800000014,
                    "velocity": 0.2047244094488189,
                    "duration": 0.13574649999999622
                },
                {
                    "name": "C4",
                    "midi": 60,
                    "time": 126.78723100000013,
                    "velocity": 0.1732283464566929,
                    "duration": 0.13574649999999622
                },
                {
                    "name": "G#3",
                    "midi": 56,
                    "time": 126.99085075000013,
                    "velocity": 0.13385826771653545,
                    "duration": 0.20361975000000143
                },
                {
                    "name": "G#4",
                    "midi": 68,
                    "time": 127.05872400000014,
                    "velocity": 0.2125984251968504,
                    "duration": 0.13574649999999622
                },
                {
                    "name": "C4",
                    "midi": 60,
                    "time": 127.33021700000013,
                    "velocity": 0.18110236220472442,
                    "duration": 0.13574649999999622
                },
                {
                    "name": "G#2",
                    "midi": 44,
                    "time": 127.53383675000013,
                    "velocity": 0.13385826771653545,
                    "duration": 0.20361975000000143
                },
                {
                    "name": "G#3",
                    "midi": 56,
                    "time": 127.60171000000014,
                    "velocity": 0.2125984251968504,
                    "duration": 0.13574649999999622
                },
                {
                    "name": "C3",
                    "midi": 48,
                    "time": 127.87320300000013,
                    "velocity": 0.1889763779527559,
                    "duration": 0.13574650000001043
                },
                {
                    "name": "G#1",
                    "midi": 32,
                    "time": 128.07682275000013,
                    "velocity": 0.12598425196850394,
                    "duration": 0.203619749999973
                },
                {
                    "name": "G#2",
                    "midi": 44,
                    "time": 128.14469600000012,
                    "velocity": 0.2125984251968504,
                    "duration": 0.135746499999982
                },
                {
                    "name": "C3",
                    "midi": 48,
                    "time": 128.41618900000012,
                    "velocity": 0.1732283464566929,
                    "duration": 0.13574650000001043
                },
                {
                    "name": "G#2",
                    "midi": 44,
                    "time": 128.61980875000012,
                    "velocity": 0.13385826771653545,
                    "duration": 0.20361975000002985
                },
                {
                    "name": "G#3",
                    "midi": 56,
                    "time": 128.68768200000014,
                    "velocity": 0.2047244094488189,
                    "duration": 0.13574650000001043
                },
                {
                    "name": "C4",
                    "midi": 60,
                    "time": 128.95917500000016,
                    "velocity": 0.1732283464566929,
                    "duration": 0.13574650000001043
                },
                {
                    "name": "G#3",
                    "midi": 56,
                    "time": 129.16279475000016,
                    "velocity": 0.12598425196850394,
                    "duration": 0.20361975000000143
                },
                {
                    "name": "D#4",
                    "midi": 63,
                    "time": 129.23066800000015,
                    "velocity": 0.2125984251968504,
                    "duration": 0.13574650000001043
                },
                {
                    "name": "G4",
                    "midi": 67,
                    "time": 129.50216100000017,
                    "velocity": 0.1889763779527559,
                    "duration": 0.13574650000001043
                },
                {
                    "name": "G#3",
                    "midi": 56,
                    "time": 129.70578075000017,
                    "velocity": 0.11811023622047244,
                    "duration": 0.20361975000000143
                },
                {
                    "name": "C#4",
                    "midi": 61,
                    "time": 129.77365400000016,
                    "velocity": 0.2125984251968504,
                    "duration": 0.13574650000001043
                },
                {
                    "name": "D#4",
                    "midi": 63,
                    "time": 130.04514700000018,
                    "velocity": 0.1889763779527559,
                    "duration": 0.13574650000001043
                },
                {
                    "name": "G#3",
                    "midi": 56,
                    "time": 130.2487667500002,
                    "velocity": 0.11811023622047244,
                    "duration": 0.20361975000000143
                },
                {
                    "name": "F4",
                    "midi": 65,
                    "time": 130.31664000000018,
                    "velocity": 0.2047244094488189,
                    "duration": 0.13574650000001043
                },
                {
                    "name": "G#4",
                    "midi": 68,
                    "time": 130.5881330000002,
                    "velocity": 0.1889763779527559,
                    "duration": 0.13574650000001043
                },
                {
                    "name": "G#3",
                    "midi": 56,
                    "time": 130.7917527500002,
                    "velocity": 0.12598425196850394,
                    "duration": 0.20361975000000143
                },
                {
                    "name": "C#4",
                    "midi": 61,
                    "time": 130.8596260000002,
                    "velocity": 0.2125984251968504,
                    "duration": 0.13574650000001043
                },
                {
                    "name": "F4",
                    "midi": 65,
                    "time": 131.1311190000002,
                    "velocity": 0.1889763779527559,
                    "duration": 0.13574650000001043
                },
                {
                    "name": "G#2",
                    "midi": 44,
                    "time": 131.3347387500002,
                    "velocity": 0.12598425196850394,
                    "duration": 0.203619749999973
                },
                {
                    "name": "C#3",
                    "midi": 49,
                    "time": 131.4026120000002,
                    "velocity": 0.2047244094488189,
                    "duration": 0.135746499999982
                },
                {
                    "name": "D#3",
                    "midi": 51,
                    "time": 131.6741050000002,
                    "velocity": 0.1889763779527559,
                    "duration": 0.13574650000001043
                },
                {
                    "name": "G#2",
                    "midi": 44,
                    "time": 131.8098515000002,
                    "velocity": 0.13385826771653545,
                    "duration": 0.27149299999999243
                },
                {
                    "name": "D#3",
                    "midi": 51,
                    "time": 131.8777247500002,
                    "velocity": 0.13385826771653545,
                    "duration": 0.20361975000000143
                },
                {
                    "name": "G3",
                    "midi": 55,
                    "time": 131.9455980000002,
                    "velocity": 0.2047244094488189,
                    "duration": 0.13574650000001043
                },
                {
                    "name": "G#3",
                    "midi": 56,
                    "time": 132.2170910000002,
                    "velocity": 0.1889763779527559,
                    "duration": 0.13574650000001043
                },
                {
                    "name": "G#2",
                    "midi": 44,
                    "time": 132.35283750000022,
                    "velocity": 0.13385826771653545,
                    "duration": 0.27149299999999243
                },
                {
                    "name": "D#3",
                    "midi": 51,
                    "time": 132.4207107500002,
                    "velocity": 0.13385826771653545,
                    "duration": 0.20361975000000143
                },
                {
                    "name": "A#3",
                    "midi": 58,
                    "time": 132.4885840000002,
                    "velocity": 0.1889763779527559,
                    "duration": 0.13574650000001043
                },
                {
                    "name": "C#4",
                    "midi": 61,
                    "time": 132.76007700000022,
                    "velocity": 0.1889763779527559,
                    "duration": 0.13574650000001043
                },
                {
                    "name": "G#2",
                    "midi": 44,
                    "time": 132.89582350000023,
                    "velocity": 0.13385826771653545,
                    "duration": 0.27149299999999243
                },
                {
                    "name": "D#3",
                    "midi": 51,
                    "time": 132.96369675000022,
                    "velocity": 0.13385826771653545,
                    "duration": 0.20361975000000143
                },
                {
                    "name": "G#3",
                    "midi": 56,
                    "time": 133.03157000000022,
                    "velocity": 0.1889763779527559,
                    "duration": 0.13574650000001043
                },
                {
                    "name": "C4",
                    "midi": 60,
                    "time": 133.30306300000024,
                    "velocity": 0.1889763779527559,
                    "duration": 0.13574650000001043
                },
                {
                    "name": "G#2",
                    "midi": 44,
                    "time": 133.43880950000025,
                    "velocity": 0.13385826771653545,
                    "duration": 0.27149299999999243
                },
                {
                    "name": "D#3",
                    "midi": 51,
                    "time": 133.50668275000024,
                    "velocity": 0.13385826771653545,
                    "duration": 0.20361975000000143
                },
                {
                    "name": "G3",
                    "midi": 55,
                    "time": 133.57455600000023,
                    "velocity": 0.1732283464566929,
                    "duration": 0.13574650000001043
                },
                {
                    "name": "A#3",
                    "midi": 58,
                    "time": 133.84604900000025,
                    "velocity": 0.1889763779527559,
                    "duration": 0.13574650000001043
                },
                {
                    "name": "G#2",
                    "midi": 44,
                    "time": 133.98179550000026,
                    "velocity": 0.12598425196850394,
                    "duration": 0.27149299999999243
                },
                {
                    "name": "D#3",
                    "midi": 51,
                    "time": 134.04966875000025,
                    "velocity": 0.12598425196850394,
                    "duration": 0.20361975000000143
                },
                {
                    "name": "G#3",
                    "midi": 56,
                    "time": 134.11754200000024,
                    "velocity": 0.1732283464566929,
                    "duration": 0.13574650000001043
                },
                {
                    "name": "G3",
                    "midi": 55,
                    "time": 134.38903500000026,
                    "velocity": 0.14960629921259844,
                    "duration": 0.13574650000001043
                },
                {
                    "name": "G#2",
                    "midi": 44,
                    "time": 134.59265475000026,
                    "velocity": 0.1732283464566929,
                    "duration": 0.20361975000000143
                },
                {
                    "name": "G#3",
                    "midi": 56,
                    "time": 134.66052800000026,
                    "velocity": 0.2125984251968504,
                    "duration": 0.13574650000001043
                },
                {
                    "name": "C3",
                    "midi": 48,
                    "time": 134.93202100000028,
                    "velocity": 0.1732283464566929,
                    "duration": 0.13574650000001043
                },
                {
                    "name": "G#1",
                    "midi": 32,
                    "time": 135.13564075000028,
                    "velocity": 0.13385826771653545,
                    "duration": 0.203619749999973
                },
                {
                    "name": "G#2",
                    "midi": 44,
                    "time": 135.20351400000027,
                    "velocity": 0.2047244094488189,
                    "duration": 0.135746499999982
                },
                {
                    "name": "C3",
                    "midi": 48,
                    "time": 135.47500700000026,
                    "velocity": 0.1732283464566929,
                    "duration": 0.13574650000001043
                },
                {
                    "name": "G#2",
                    "midi": 44,
                    "time": 135.67862675000026,
                    "velocity": 0.1732283464566929,
                    "duration": 0.20361975000000143
                },
                {
                    "name": "G#3",
                    "midi": 56,
                    "time": 135.74650000000025,
                    "velocity": 0.2125984251968504,
                    "duration": 0.13574650000001043
                },
                {
                    "name": "C3",
                    "midi": 48,
                    "time": 136.01799300000027,
                    "velocity": 0.18110236220472442,
                    "duration": 0.13574650000001043
                },
                {
                    "name": "G#1",
                    "midi": 32,
                    "time": 136.22161275000028,
                    "velocity": 0.13385826771653545,
                    "duration": 0.20361975000000143
                },
                {
                    "name": "G#2",
                    "midi": 44,
                    "time": 136.28948600000027,
                    "velocity": 0.2125984251968504,
                    "duration": 0.13574650000001043
                },
                {
                    "name": "C3",
                    "midi": 48,
                    "time": 136.5609790000003,
                    "velocity": 0.2283464566929134,
                    "duration": 0.13574650000001043
                },
                {
                    "name": "G#2",
                    "midi": 44,
                    "time": 136.7645987500003,
                    "velocity": 0.2047244094488189,
                    "duration": 0.203619749999973
                },
                {
                    "name": "G#3",
                    "midi": 56,
                    "time": 136.83247200000028,
                    "velocity": 0.2677165354330709,
                    "duration": 0.135746499999982
                },
                {
                    "name": "D#3",
                    "midi": 51,
                    "time": 137.10396500000027,
                    "velocity": 0.23622047244094488,
                    "duration": 0.13574650000001043
                },
                {
                    "name": "G#1",
                    "midi": 32,
                    "time": 137.23971150000028,
                    "velocity": 0.2047244094488189,
                    "duration": 0.27149299999999243
                },
                {
                    "name": "G#2",
                    "midi": 44,
                    "time": 137.3754580000003,
                    "velocity": 0.2755905511811024,
                    "duration": 0.135746499999982
                },
                {
                    "name": "C3",
                    "midi": 48,
                    "time": 137.64695100000029,
                    "velocity": 0.31496062992125984,
                    "duration": 0.135746499999982
                },
                {
                    "name": "G#3",
                    "midi": 56,
                    "time": 137.78269750000027,
                    "velocity": 0.29133858267716534,
                    "duration": 0.27149300000002086
                },
                {
                    "name": "G#4",
                    "midi": 68,
                    "time": 137.91844400000028,
                    "velocity": 0.36220472440944884,
                    "duration": 0.13574650000001043
                },
                {
                    "name": "C4",
                    "midi": 60,
                    "time": 138.1899370000003,
                    "velocity": 0.29133858267716534,
                    "duration": 0.135746499999982
                },
                {
                    "name": "G#2",
                    "midi": 44,
                    "time": 138.32568350000028,
                    "velocity": 0.25196850393700787,
                    "duration": 0.27149300000002086
                },
                {
                    "name": "G#3",
                    "midi": 56,
                    "time": 138.4614300000003,
                    "velocity": 0.31496062992125984,
                    "duration": 0.13574650000001043
                },
                {
                    "name": "C3",
                    "midi": 48,
                    "time": 138.7329230000003,
                    "velocity": 0.2204724409448819,
                    "duration": 0.135746499999982
                },
                {
                    "name": "C#1",
                    "midi": 25,
                    "time": 138.8686695000003,
                    "velocity": 0.2204724409448819,
                    "duration": 0.27149299999999243
                },
                {
                    "name": "C#2",
                    "midi": 37,
                    "time": 139.00441600000028,
                    "velocity": 0.2755905511811024,
                    "duration": 0.13574650000001043
                },
                {
                    "name": "G#2",
                    "midi": 44,
                    "time": 139.2759090000003,
                    "velocity": 0.2755905511811024,
                    "duration": 0.13574650000001043
                },
                {
                    "name": "C#2",
                    "midi": 37,
                    "time": 139.4795287500003,
                    "velocity": 0.2047244094488189,
                    "duration": 0.20361975000000143
                },
                {
                    "name": "C#3",
                    "midi": 49,
                    "time": 139.5474020000003,
                    "velocity": 0.25984251968503935,
                    "duration": 0.13574650000001043
                },
                {
                    "name": "G#3",
                    "midi": 56,
                    "time": 139.8188950000003,
                    "velocity": 0.2283464566929134,
                    "duration": 0.13574650000001043
                },
                {
                    "name": "G#4",
                    "midi": 68,
                    "time": 140.09038800000033,
                    "velocity": 0.2755905511811024,
                    "duration": 1.0180987499999787
                },
                {
                    "name": "G#3",
                    "midi": 56,
                    "time": 140.09038800000033,
                    "velocity": 0.2755905511811024,
                    "duration": 1.0180987499999787
                },
                {
                    "name": "C4",
                    "midi": 60,
                    "time": 140.09038800000033,
                    "velocity": 0.2755905511811024,
                    "duration": 1.0180987499999787
                },
                {
                    "name": "C1",
                    "midi": 24,
                    "time": 141.04061350000032,
                    "velocity": 0.2125984251968504,
                    "duration": 0.271492999999964
                },
                {
                    "name": "C2",
                    "midi": 36,
                    "time": 141.1763600000003,
                    "velocity": 0.2677165354330709,
                    "duration": 0.135746499999982
                },
                {
                    "name": "G#2",
                    "midi": 44,
                    "time": 141.4478530000003,
                    "velocity": 0.2204724409448819,
                    "duration": 0.13574650000001043
                },
                {
                    "name": "C2",
                    "midi": 36,
                    "time": 141.6514727500003,
                    "velocity": 0.18110236220472442,
                    "duration": 0.20361975000000143
                },
                {
                    "name": "C3",
                    "midi": 48,
                    "time": 141.7193460000003,
                    "velocity": 0.23622047244094488,
                    "duration": 0.13574650000001043
                },
                {
                    "name": "G#3",
                    "midi": 56,
                    "time": 141.9908390000003,
                    "velocity": 0.18110236220472442,
                    "duration": 0.13574650000001043
                },
                {
                    "name": "C4",
                    "midi": 60,
                    "time": 142.26233200000033,
                    "velocity": 0.2047244094488189,
                    "duration": 1.0859719999999982
                },
                {
                    "name": "G#3",
                    "midi": 56,
                    "time": 142.26233200000033,
                    "velocity": 0.2047244094488189,
                    "duration": 1.0859719999999982
                },
                {
                    "name": "C3",
                    "midi": 48,
                    "time": 142.26233200000033,
                    "velocity": 0.2047244094488189,
                    "duration": 1.0859719999999982
                },
                {
                    "name": "C3",
                    "midi": 48,
                    "time": 143.34830400000033,
                    "velocity": 0.23622047244094488,
                    "duration": 0.1809953333333283
                },
                {
                    "name": "C2",
                    "midi": 36,
                    "time": 143.34830400000033,
                    "velocity": 0.1968503937007874,
                    "duration": 0.5429859999999849
                },
                {
                    "name": "G2",
                    "midi": 43,
                    "time": 143.52929933333365,
                    "velocity": 0.2204724409448819,
                    "duration": 0.1809953333333283
                },
                {
                    "name": "C3",
                    "midi": 48,
                    "time": 143.71029466666698,
                    "velocity": 0.2204724409448819,
                    "duration": 0.1809953333333283
                },
                {
                    "name": "D4",
                    "midi": 62,
                    "time": 143.8912900000003,
                    "velocity": 0.14173228346456693,
                    "duration": 0.5429860000000133
                },
                {
                    "name": "G3",
                    "midi": 55,
                    "time": 143.8912900000003,
                    "velocity": 0.14173228346456693,
                    "duration": 0.5429860000000133
                },
                {
                    "name": "D3",
                    "midi": 50,
                    "time": 143.8912900000003,
                    "velocity": 0.14173228346456693,
                    "duration": 0.5429860000000133
                },
                {
                    "name": "D#3",
                    "midi": 51,
                    "time": 144.43427600000032,
                    "velocity": 0.23622047244094488,
                    "duration": 0.1809953333333283
                },
                {
                    "name": "C2",
                    "midi": 36,
                    "time": 144.43427600000032,
                    "velocity": 0.1968503937007874,
                    "duration": 0.5429859999999849
                },
                {
                    "name": "G2",
                    "midi": 43,
                    "time": 144.61527133333365,
                    "velocity": 0.2125984251968504,
                    "duration": 0.1809953333333283
                },
                {
                    "name": "D#3",
                    "midi": 51,
                    "time": 144.79626666666698,
                    "velocity": 0.2125984251968504,
                    "duration": 0.1809953333333283
                },
                {
                    "name": "D4",
                    "midi": 62,
                    "time": 144.9772620000003,
                    "velocity": 0.14960629921259844,
                    "duration": 0.5429860000000133
                },
                {
                    "name": "D3",
                    "midi": 50,
                    "time": 144.9772620000003,
                    "velocity": 0.14960629921259844,
                    "duration": 0.5429860000000133
                },
                {
                    "name": "G3",
                    "midi": 55,
                    "time": 144.9772620000003,
                    "velocity": 0.14960629921259844,
                    "duration": 0.5429860000000133
                },
                {
                    "name": "D#3",
                    "midi": 51,
                    "time": 145.52024800000032,
                    "velocity": 0.2125984251968504,
                    "duration": 0.1809953333333283
                },
                {
                    "name": "C2",
                    "midi": 36,
                    "time": 145.52024800000032,
                    "velocity": 0.18110236220472442,
                    "duration": 0.5429859999999849
                },
                {
                    "name": "G2",
                    "midi": 43,
                    "time": 145.70124333333365,
                    "velocity": 0.1889763779527559,
                    "duration": 0.1809953333333283
                },
                {
                    "name": "D3",
                    "midi": 50,
                    "time": 145.88223866666698,
                    "velocity": 0.1889763779527559,
                    "duration": 0.1809953333333283
                },
                {
                    "name": "G2",
                    "midi": 43,
                    "time": 146.0632340000003,
                    "velocity": 0.15748031496062992,
                    "duration": 0.5429860000000133
                },
                {
                    "name": "C3",
                    "midi": 48,
                    "time": 146.0632340000003,
                    "velocity": 0.15748031496062992,
                    "duration": 0.5429860000000133
                },
                {
                    "name": "G3",
                    "midi": 55,
                    "time": 146.0632340000003,
                    "velocity": 0.15748031496062992,
                    "duration": 0.5429860000000133
                },
                {
                    "name": "C3",
                    "midi": 48,
                    "time": 146.60622000000032,
                    "velocity": 0.2125984251968504,
                    "duration": 0.1809953333333283
                },
                {
                    "name": "C2",
                    "midi": 36,
                    "time": 146.60622000000032,
                    "velocity": 0.18110236220472442,
                    "duration": 0.5429859999999849
                },
                {
                    "name": "G2",
                    "midi": 43,
                    "time": 146.78721533333365,
                    "velocity": 0.2047244094488189,
                    "duration": 0.1809953333333283
                },
                {
                    "name": "A#2",
                    "midi": 46,
                    "time": 146.96821066666698,
                    "velocity": 0.2047244094488189,
                    "duration": 0.1809953333333283
                },
                {
                    "name": "G2",
                    "midi": 43,
                    "time": 147.1492060000003,
                    "velocity": 0.1732283464566929,
                    "duration": 0.5429860000000133
                },
                {
                    "name": "C3",
                    "midi": 48,
                    "time": 147.1492060000003,
                    "velocity": 0.1732283464566929,
                    "duration": 0.5429860000000133
                },
                {
                    "name": "G3",
                    "midi": 55,
                    "time": 147.1492060000003,
                    "velocity": 0.1732283464566929,
                    "duration": 0.5429860000000133
                },
                {
                    "name": "G#2",
                    "midi": 44,
                    "time": 147.69219200000032,
                    "velocity": 0.3228346456692913,
                    "duration": 0.1809953333333283
                },
                {
                    "name": "C2",
                    "midi": 36,
                    "time": 147.69219200000032,
                    "velocity": 0.3228346456692913,
                    "duration": 0.5429859999999849
                },
                {
                    "name": "C3",
                    "midi": 48,
                    "time": 147.87318733333365,
                    "velocity": 0.2755905511811024,
                    "duration": 0.1809953333333283
                },
                {
                    "name": "C3",
                    "midi": 48,
                    "time": 148.05418266666697,
                    "velocity": 0.2755905511811024,
                    "duration": 0.7239813333333132
                },
                {
                    "name": "G3",
                    "midi": 55,
                    "time": 148.05418266666697,
                    "velocity": 0.2755905511811024,
                    "duration": 0.1809953333333283
                },
                {
                    "name": "A#3",
                    "midi": 58,
                    "time": 148.2351780000003,
                    "velocity": 0.2755905511811024,
                    "duration": 0.5429859999999849
                },
                {
                    "name": "C2",
                    "midi": 36,
                    "time": 148.7781640000003,
                    "velocity": 0.28346456692913385,
                    "duration": 0.3619906666666566
                },
                {
                    "name": "G#2",
                    "midi": 44,
                    "time": 148.7781640000003,
                    "velocity": 0.28346456692913385,
                    "duration": 0.1809953333333283
                },
                {
                    "name": "C3",
                    "midi": 48,
                    "time": 148.95915933333362,
                    "velocity": 0.23622047244094488,
                    "duration": 0.1809953333333283
                },
                {
                    "name": "C3",
                    "midi": 48,
                    "time": 149.14015466666694,
                    "velocity": 0.2755905511811024,
                    "duration": 0.3619906666666566
                },
                {
                    "name": "G3",
                    "midi": 55,
                    "time": 149.14015466666694,
                    "velocity": 0.2755905511811024,
                    "duration": 0.1809953333333283
                },
                {
                    "name": "A#3",
                    "midi": 58,
                    "time": 149.32115000000027,
                    "velocity": 0.2283464566929134,
                    "duration": 0.1809953333333283
                },
                {
                    "name": "C3",
                    "midi": 48,
                    "time": 149.5021453333336,
                    "velocity": 0.2440944881889764,
                    "duration": 0.361990666666685
                },
                {
                    "name": "F3",
                    "midi": 53,
                    "time": 149.5021453333336,
                    "velocity": 0.2440944881889764,
                    "duration": 0.1809953333333567
                },
                {
                    "name": "G#3",
                    "midi": 56,
                    "time": 149.68314066666696,
                    "velocity": 0.23622047244094488,
                    "duration": 0.1809953333333283
                },
                {
                    "name": "C2",
                    "midi": 36,
                    "time": 149.8641360000003,
                    "velocity": 0.2755905511811024,
                    "duration": 0.5429859999999849
                },
                {
                    "name": "D#2",
                    "midi": 39,
                    "time": 149.8641360000003,
                    "velocity": 0.2755905511811024,
                    "duration": 0.1809953333333283
                },
                {
                    "name": "G#2",
                    "midi": 44,
                    "time": 150.04513133333361,
                    "velocity": 0.2755905511811024,
                    "duration": 0.1809953333333283
                },
                {
                    "name": "D#3",
                    "midi": 51,
                    "time": 150.22612666666694,
                    "velocity": 0.2755905511811024,
                    "duration": 0.1809953333333283
                },
                {
                    "name": "G2",
                    "midi": 43,
                    "time": 150.40712200000027,
                    "velocity": 0.1968503937007874,
                    "duration": 0.5429859999999849
                },
                {
                    "name": "C3",
                    "midi": 48,
                    "time": 150.40712200000027,
                    "velocity": 0.1968503937007874,
                    "duration": 0.5429859999999849
                },
                {
                    "name": "D3",
                    "midi": 50,
                    "time": 150.40712200000027,
                    "velocity": 0.1968503937007874,
                    "duration": 0.5429859999999849
                },
                {
                    "name": "G3",
                    "midi": 55,
                    "time": 150.40712200000027,
                    "velocity": 0.1968503937007874,
                    "duration": 0.5429859999999849
                },
                {
                    "name": "C2",
                    "midi": 36,
                    "time": 150.95010800000026,
                    "velocity": 0.2992125984251969,
                    "duration": 0.5429859999999849
                },
                {
                    "name": "D#2",
                    "midi": 39,
                    "time": 150.95010800000026,
                    "velocity": 0.2992125984251969,
                    "duration": 0.1809953333333283
                },
                {
                    "name": "A2",
                    "midi": 45,
                    "time": 151.13110333333358,
                    "velocity": 0.2992125984251969,
                    "duration": 0.1809953333333283
                },
                {
                    "name": "D#3",
                    "midi": 51,
                    "time": 151.3120986666669,
                    "velocity": 0.2992125984251969,
                    "duration": 0.1809953333333283
                },
                {
                    "name": "G2",
                    "midi": 43,
                    "time": 151.49309400000024,
                    "velocity": 0.23622047244094488,
                    "duration": 0.5429860000000133
                },
                {
                    "name": "C3",
                    "midi": 48,
                    "time": 151.49309400000024,
                    "velocity": 0.23622047244094488,
                    "duration": 0.5429860000000133
                },
                {
                    "name": "D3",
                    "midi": 50,
                    "time": 151.49309400000024,
                    "velocity": 0.23622047244094488,
                    "duration": 0.5429860000000133
                },
                {
                    "name": "G3",
                    "midi": 55,
                    "time": 151.49309400000024,
                    "velocity": 0.23622047244094488,
                    "duration": 0.5429860000000133
                },
                {
                    "name": "C2",
                    "midi": 36,
                    "time": 152.03608000000025,
                    "velocity": 0.36220472440944884,
                    "duration": 0.5429860000000133
                },
                {
                    "name": "G2",
                    "midi": 43,
                    "time": 152.03608000000025,
                    "velocity": 0.36220472440944884,
                    "duration": 0.5429860000000133
                },
                {
                    "name": "E3",
                    "midi": 52,
                    "time": 152.03608000000025,
                    "velocity": 0.36220472440944884,
                    "duration": 0.5429860000000133
                },
                {
                    "name": "D3",
                    "midi": 50,
                    "time": 152.57906600000027,
                    "velocity": 0.30708661417322836,
                    "duration": 0.1809953333333283
                },
                {
                    "name": "C3",
                    "midi": 48,
                    "time": 152.57906600000027,
                    "velocity": 0.30708661417322836,
                    "duration": 0.1809953333333283
                },
                {
                    "name": "G3",
                    "midi": 55,
                    "time": 152.57906600000027,
                    "velocity": 0.30708661417322836,
                    "duration": 0.1809953333333283
                },
                {
                    "name": "G2",
                    "midi": 43,
                    "time": 152.7600613333336,
                    "velocity": 0.3779527559055118,
                    "duration": 0.1809953333333283
                },
                {
                    "name": "D3",
                    "midi": 50,
                    "time": 152.94105666666692,
                    "velocity": 0.2992125984251969,
                    "duration": 0.1809953333333283
                },
                {
                    "name": "C3",
                    "midi": 48,
                    "time": 152.94105666666692,
                    "velocity": 0.2992125984251969,
                    "duration": 0.1809953333333283
                },
                {
                    "name": "G3",
                    "midi": 55,
                    "time": 152.94105666666692,
                    "velocity": 0.2992125984251969,
                    "duration": 0.1809953333333283
                },
                {
                    "name": "C2",
                    "midi": 36,
                    "time": 153.12205200000025,
                    "velocity": 0.3779527559055118,
                    "duration": 0.5429859999999849
                },
                {
                    "name": "G2",
                    "midi": 43,
                    "time": 153.12205200000025,
                    "velocity": 0.3779527559055118,
                    "duration": 0.5429859999999849
                },
                {
                    "name": "C3",
                    "midi": 48,
                    "time": 153.12205200000025,
                    "velocity": 0.3779527559055118,
                    "duration": 0.5429859999999849
                },
                {
                    "name": "C3",
                    "midi": 48,
                    "time": 153.66503800000024,
                    "velocity": 0.30708661417322836,
                    "duration": 0.1809953333333283
                },
                {
                    "name": "D3",
                    "midi": 50,
                    "time": 153.66503800000024,
                    "velocity": 0.30708661417322836,
                    "duration": 0.1809953333333283
                },
                {
                    "name": "G3",
                    "midi": 55,
                    "time": 153.66503800000024,
                    "velocity": 0.30708661417322836,
                    "duration": 0.1809953333333283
                },
                {
                    "name": "G2",
                    "midi": 43,
                    "time": 153.84603333333357,
                    "velocity": 0.3858267716535433,
                    "duration": 0.1809953333333283
                },
                {
                    "name": "C3",
                    "midi": 48,
                    "time": 154.0270286666669,
                    "velocity": 0.30708661417322836,
                    "duration": 0.1809953333333283
                },
                {
                    "name": "D3",
                    "midi": 50,
                    "time": 154.0270286666669,
                    "velocity": 0.30708661417322836,
                    "duration": 0.1809953333333283
                },
                {
                    "name": "G3",
                    "midi": 55,
                    "time": 154.0270286666669,
                    "velocity": 0.30708661417322836,
                    "duration": 0.1809953333333283
                },
                {
                    "name": "C2",
                    "midi": 36,
                    "time": 154.20802400000022,
                    "velocity": 0.4330708661417323,
                    "duration": 0.5429859999999849
                },
                {
                    "name": "G2",
                    "midi": 43,
                    "time": 154.20802400000022,
                    "velocity": 0.4330708661417323,
                    "duration": 0.5429859999999849
                },
                {
                    "name": "E3",
                    "midi": 52,
                    "time": 154.20802400000022,
                    "velocity": 0.4330708661417323,
                    "duration": 0.27149299999999243
                },
                {
                    "name": "D3",
                    "midi": 50,
                    "time": 154.47951700000021,
                    "velocity": 0.3858267716535433,
                    "duration": 0.27149299999999243
                },
                {
                    "name": "D3",
                    "midi": 50,
                    "time": 154.7510100000002,
                    "velocity": 0.3543307086614173,
                    "duration": 0.1809953333333283
                },
                {
                    "name": "C3",
                    "midi": 48,
                    "time": 154.7510100000002,
                    "velocity": 0.3543307086614173,
                    "duration": 0.1809953333333283
                },
                {
                    "name": "G3",
                    "midi": 55,
                    "time": 154.7510100000002,
                    "velocity": 0.3543307086614173,
                    "duration": 0.1809953333333283
                },
                {
                    "name": "G2",
                    "midi": 43,
                    "time": 154.93200533333354,
                    "velocity": 0.44881889763779526,
                    "duration": 0.1809953333333283
                },
                {
                    "name": "D3",
                    "midi": 50,
                    "time": 155.11300066666686,
                    "velocity": 0.3700787401574803,
                    "duration": 0.1809953333333283
                },
                {
                    "name": "C3",
                    "midi": 48,
                    "time": 155.11300066666686,
                    "velocity": 0.3700787401574803,
                    "duration": 0.1809953333333283
                },
                {
                    "name": "G3",
                    "midi": 55,
                    "time": 155.11300066666686,
                    "velocity": 0.3700787401574803,
                    "duration": 0.1809953333333283
                },
                {
                    "name": "C2",
                    "midi": 36,
                    "time": 155.2939960000002,
                    "velocity": 0.4881889763779528,
                    "duration": 0.5429859999999849
                },
                {
                    "name": "G2",
                    "midi": 43,
                    "time": 155.2939960000002,
                    "velocity": 0.4881889763779528,
                    "duration": 0.5429859999999849
                },
                {
                    "name": "C3",
                    "midi": 48,
                    "time": 155.2939960000002,
                    "velocity": 0.4881889763779528,
                    "duration": 0.27149299999999243
                },
                {
                    "name": "A#2",
                    "midi": 46,
                    "time": 155.56548900000018,
                    "velocity": 0.48031496062992124,
                    "duration": 0.27149299999999243
                },
                {
                    "name": "C3",
                    "midi": 48,
                    "time": 155.83698200000018,
                    "velocity": 0.41732283464566927,
                    "duration": 0.18099533333329987
                },
                {
                    "name": "G3",
                    "midi": 55,
                    "time": 155.83698200000018,
                    "velocity": 0.41732283464566927,
                    "duration": 0.18099533333329987
                },
                {
                    "name": "G2",
                    "midi": 43,
                    "time": 156.01797733333348,
                    "velocity": 0.4881889763779528,
                    "duration": 0.1809953333333283
                },
                {
                    "name": "C3",
                    "midi": 48,
                    "time": 156.1989726666668,
                    "velocity": 0.4094488188976378,
                    "duration": 0.1809953333333283
                },
                {
                    "name": "G3",
                    "midi": 55,
                    "time": 156.1989726666668,
                    "velocity": 0.4094488188976378,
                    "duration": 0.1809953333333283
                },
                {
                    "name": "C2",
                    "midi": 36,
                    "time": 156.37996800000013,
                    "velocity": 0.4094488188976378,
                    "duration": 0.5429859999999849
                },
                {
                    "name": "F2",
                    "midi": 41,
                    "time": 156.37996800000013,
                    "velocity": 0.4094488188976378,
                    "duration": 0.5429859999999849
                },
                {
                    "name": "A2",
                    "midi": 45,
                    "time": 156.37996800000013,
                    "velocity": 0.4881889763779528,
                    "duration": 0.5429859999999849
                },
                {
                    "name": "C3",
                    "midi": 48,
                    "time": 156.37996800000013,
                    "velocity": 0.4881889763779528,
                    "duration": 0.5429859999999849
                },
                {
                    "name": "E3",
                    "midi": 52,
                    "time": 156.92295400000012,
                    "velocity": 0.4015748031496063,
                    "duration": 0.1809953333333283
                },
                {
                    "name": "G3",
                    "midi": 55,
                    "time": 156.92295400000012,
                    "velocity": 0.4015748031496063,
                    "duration": 0.1809953333333283
                },
                {
                    "name": "C4",
                    "midi": 60,
                    "time": 156.92295400000012,
                    "velocity": 0.47244094488188976,
                    "duration": 0.1809953333333283
                },
                {
                    "name": "C3",
                    "midi": 48,
                    "time": 157.10394933333345,
                    "velocity": 0.4881889763779528,
                    "duration": 0.1809953333333283
                },
                {
                    "name": "E3",
                    "midi": 52,
                    "time": 157.28494466666677,
                    "velocity": 0.3779527559055118,
                    "duration": 0.1809953333333567
                },
                {
                    "name": "G3",
                    "midi": 55,
                    "time": 157.28494466666677,
                    "velocity": 0.3779527559055118,
                    "duration": 0.1809953333333567
                },
                {
                    "name": "C4",
                    "midi": 60,
                    "time": 157.28494466666677,
                    "velocity": 0.44881889763779526,
                    "duration": 0.1809953333333567
                },
                {
                    "name": "D2",
                    "midi": 38,
                    "time": 157.46594000000013,
                    "velocity": 0.4094488188976378,
                    "duration": 0.5429860000000133
                },
                {
                    "name": "F2",
                    "midi": 41,
                    "time": 157.46594000000013,
                    "velocity": 0.4094488188976378,
                    "duration": 0.5429860000000133
                },
                {
                    "name": "A2",
                    "midi": 45,
                    "time": 157.46594000000013,
                    "velocity": 0.4094488188976378,
                    "duration": 0.5429860000000133
                },
                {
                    "name": "D3",
                    "midi": 50,
                    "time": 157.46594000000013,
                    "velocity": 0.4881889763779528,
                    "duration": 0.5429860000000133
                },
                {
                    "name": "C3",
                    "midi": 48,
                    "time": 158.00892600000014,
                    "velocity": 0.3543307086614173,
                    "duration": 0.1809953333333283
                },
                {
                    "name": "E3",
                    "midi": 52,
                    "time": 158.00892600000014,
                    "velocity": 0.3543307086614173,
                    "duration": 0.1809953333333283
                },
                {
                    "name": "A3",
                    "midi": 57,
                    "time": 158.00892600000014,
                    "velocity": 0.41732283464566927,
                    "duration": 0.1809953333333283
                },
                {
                    "name": "A2",
                    "midi": 45,
                    "time": 158.18992133333347,
                    "velocity": 0.47244094488188976,
                    "duration": 0.1809953333333283
                },
                {
                    "name": "C3",
                    "midi": 48,
                    "time": 158.3709166666668,
                    "velocity": 0.36220472440944884,
                    "duration": 0.1809953333333283
                },
                {
                    "name": "E3",
                    "midi": 52,
                    "time": 158.3709166666668,
                    "velocity": 0.36220472440944884,
                    "duration": 0.1809953333333283
                },
                {
                    "name": "A3",
                    "midi": 57,
                    "time": 158.3709166666668,
                    "velocity": 0.4330708661417323,
                    "duration": 0.1809953333333283
                },
                {
                    "name": "G1",
                    "midi": 31,
                    "time": 158.55191200000013,
                    "velocity": 0.4645669291338583,
                    "duration": 0.361990666666685
                },
                {
                    "name": "G2",
                    "midi": 43,
                    "time": 158.55191200000013,
                    "velocity": 0.5511811023622047,
                    "duration": 0.361990666666685
                },
                {
                    "name": "E3",
                    "midi": 52,
                    "time": 158.91390266666681,
                    "velocity": 0.49606299212598426,
                    "duration": 0.1809953333333283
                },
                {
                    "name": "C3",
                    "midi": 48,
                    "time": 158.91390266666681,
                    "velocity": 0.41732283464566927,
                    "duration": 0.1809953333333283
                },
                {
                    "name": "G2",
                    "midi": 43,
                    "time": 159.09489800000014,
                    "velocity": 0.4645669291338583,
                    "duration": 0.1809953333333283
                },
                {
                    "name": "G3",
                    "midi": 55,
                    "time": 159.09489800000014,
                    "velocity": 0.5511811023622047,
                    "duration": 0.1809953333333283
                },
                {
                    "name": "D3",
                    "midi": 50,
                    "time": 159.27589333333347,
                    "velocity": 0.4409448818897638,
                    "duration": 0.1809953333333283
                },
                {
                    "name": "F3",
                    "midi": 53,
                    "time": 159.27589333333347,
                    "velocity": 0.5275590551181102,
                    "duration": 0.1809953333333283
                },
                {
                    "name": "G2",
                    "midi": 43,
                    "time": 159.4568886666668,
                    "velocity": 0.4409448818897638,
                    "duration": 0.1809953333333283
                },
                {
                    "name": "G3",
                    "midi": 55,
                    "time": 159.4568886666668,
                    "velocity": 0.5275590551181102,
                    "duration": 0.1809953333333283
                },
                {
                    "name": "C3",
                    "midi": 48,
                    "time": 159.63788400000013,
                    "velocity": 0.4645669291338583,
                    "duration": 0.1809953333333283
                },
                {
                    "name": "E3",
                    "midi": 52,
                    "time": 159.63788400000013,
                    "velocity": 0.5511811023622047,
                    "duration": 0.1809953333333283
                },
                {
                    "name": "G2",
                    "midi": 43,
                    "time": 159.81887933333346,
                    "velocity": 0.4409448818897638,
                    "duration": 0.1809953333333283
                },
                {
                    "name": "G3",
                    "midi": 55,
                    "time": 159.81887933333346,
                    "velocity": 0.5196850393700787,
                    "duration": 0.1809953333333283
                },
                {
                    "name": "A2",
                    "midi": 45,
                    "time": 159.99987466666678,
                    "velocity": 0.4409448818897638,
                    "duration": 0.1809953333333283
                },
                {
                    "name": "C3",
                    "midi": 48,
                    "time": 159.99987466666678,
                    "velocity": 0.5196850393700787,
                    "duration": 0.1809953333333283
                },
                {
                    "name": "G2",
                    "midi": 43,
                    "time": 160.1808700000001,
                    "velocity": 0.4409448818897638,
                    "duration": 0.5429860000000133
                },
                {
                    "name": "B2",
                    "midi": 47,
                    "time": 160.1808700000001,
                    "velocity": 0.4409448818897638,
                    "duration": 0.5429860000000133
                },
                {
                    "name": "D3",
                    "midi": 50,
                    "time": 160.1808700000001,
                    "velocity": 0.4409448818897638,
                    "duration": 0.5429860000000133
                },
                {
                    "name": "G3",
                    "midi": 55,
                    "time": 160.1808700000001,
                    "velocity": 0.5748031496062992,
                    "duration": 0.5429860000000133
                },
                {
                    "name": "C2",
                    "midi": 36,
                    "time": 160.72385600000013,
                    "velocity": 0.4881889763779528,
                    "duration": 0.1809953333333283
                },
                {
                    "name": "C3",
                    "midi": 48,
                    "time": 160.90485133333345,
                    "velocity": 0.4566929133858268,
                    "duration": 0.1809953333333283
                },
                {
                    "name": "A3",
                    "midi": 57,
                    "time": 161.08584666666678,
                    "velocity": 0.44881889763779526,
                    "duration": 0.5429859999999849
                },
                {
                    "name": "F3",
                    "midi": 53,
                    "time": 161.08584666666678,
                    "velocity": 0.3779527559055118,
                    "duration": 0.5429859999999849
                },
                {
                    "name": "C3",
                    "midi": 48,
                    "time": 161.2668420000001,
                    "velocity": 0.3464566929133858,
                    "duration": 0.5429859999999849
                },
                {
                    "name": "C4",
                    "midi": 60,
                    "time": 161.2668420000001,
                    "velocity": 0.4094488188976378,
                    "duration": 0.5429859999999849
                },
                {
                    "name": "E3",
                    "midi": 52,
                    "time": 161.62883266666677,
                    "velocity": 0.4015748031496063,
                    "duration": 0.1809953333333283
                },
                {
                    "name": "G3",
                    "midi": 55,
                    "time": 161.62883266666677,
                    "velocity": 0.4015748031496063,
                    "duration": 0.1809953333333283
                },
                {
                    "name": "A1",
                    "midi": 33,
                    "time": 161.8098280000001,
                    "velocity": 0.4566929133858268,
                    "duration": 0.1809953333333283
                },
                {
                    "name": "A2",
                    "midi": 45,
                    "time": 161.99082333333342,
                    "velocity": 0.4566929133858268,
                    "duration": 0.1809953333333283
                },
                {
                    "name": "F3",
                    "midi": 53,
                    "time": 162.17181866666675,
                    "velocity": 0.4566929133858268,
                    "duration": 0.5429860000000133
                },
                {
                    "name": "D3",
                    "midi": 50,
                    "time": 162.17181866666675,
                    "velocity": 0.4566929133858268,
                    "duration": 0.5429860000000133
                },
                {
                    "name": "A2",
                    "midi": 45,
                    "time": 162.35281400000008,
                    "velocity": 0.3464566929133858,
                    "duration": 0.5429860000000133
                },
                {
                    "name": "A3",
                    "midi": 57,
                    "time": 162.35281400000008,
                    "velocity": 0.4094488188976378,
                    "duration": 0.5429860000000133
                },
                {
                    "name": "C3",
                    "midi": 48,
                    "time": 162.71480466666677,
                    "velocity": 0.3858267716535433,
                    "duration": 0.1809953333333283
                },
                {
                    "name": "E3",
                    "midi": 52,
                    "time": 162.71480466666677,
                    "velocity": 0.3858267716535433,
                    "duration": 0.1809953333333283
                },
                {
                    "name": "G1",
                    "midi": 31,
                    "time": 162.8958000000001,
                    "velocity": 0.4566929133858268,
                    "duration": 0.1809953333333283
                },
                {
                    "name": "G2",
                    "midi": 43,
                    "time": 163.07679533333342,
                    "velocity": 0.4094488188976378,
                    "duration": 0.1809953333333283
                },
                {
                    "name": "F3",
                    "midi": 53,
                    "time": 163.25779066666675,
                    "velocity": 0.4645669291338583,
                    "duration": 0.18099533333329987
                },
                {
                    "name": "D3",
                    "midi": 50,
                    "time": 163.25779066666675,
                    "velocity": 0.3937007874015748,
                    "duration": 0.18099533333329987
                },
                {
                    "name": "G2",
                    "midi": 43,
                    "time": 163.43878600000005,
                    "velocity": 0.3464566929133858,
                    "duration": 0.1809953333333283
                },
                {
                    "name": "G3",
                    "midi": 55,
                    "time": 163.43878600000005,
                    "velocity": 0.4094488188976378,
                    "duration": 0.1809953333333283
                },
                {
                    "name": "C3",
                    "midi": 48,
                    "time": 163.61978133333338,
                    "velocity": 0.3937007874015748,
                    "duration": 0.1809953333333567
                },
                {
                    "name": "E3",
                    "midi": 52,
                    "time": 163.61978133333338,
                    "velocity": 0.4645669291338583,
                    "duration": 0.1809953333333567
                },
                {
                    "name": "G2",
                    "midi": 43,
                    "time": 163.80077666666674,
                    "velocity": 0.33858267716535434,
                    "duration": 0.7239813333332847
                },
                {
                    "name": "G3",
                    "midi": 55,
                    "time": 163.80077666666674,
                    "velocity": 0.4015748031496063,
                    "duration": 0.7239813333332847
                },
                {
                    "name": "A2",
                    "midi": 45,
                    "time": 163.98177200000006,
                    "velocity": 0.5196850393700787,
                    "duration": 0.5429859999999564
                },
                {
                    "name": "C3",
                    "midi": 48,
                    "time": 163.98177200000006,
                    "velocity": 0.5196850393700787,
                    "duration": 0.5429859999999564
                },
                {
                    "name": "G2",
                    "midi": 43,
                    "time": 164.32113825000005,
                    "velocity": 0.33070866141732286,
                    "duration": 0.339366249999955
                },
                {
                    "name": "B2",
                    "midi": 47,
                    "time": 164.38901150000004,
                    "velocity": 0.36220472440944884,
                    "duration": 0.271492999999964
                },
                {
                    "name": "D3",
                    "midi": 50,
                    "time": 164.45688475000003,
                    "velocity": 0.3779527559055118,
                    "duration": 0.203619749999973
                },
                {
                    "name": "G3",
                    "midi": 55,
                    "time": 164.52475800000002,
                    "velocity": 0.4094488188976378,
                    "duration": 0.135746499999982
                },
                {
                    "name": "C2",
                    "midi": 36,
                    "time": 165.067744,
                    "velocity": 0.30708661417322836,
                    "duration": 0.13574650000001043
                },
                {
                    "name": "G1",
                    "midi": 31,
                    "time": 165.61073000000002,
                    "velocity": 0.2283464566929134,
                    "duration": 0.13574650000001043
                },
                {
                    "name": "C2",
                    "midi": 36,
                    "time": 165.88222300000004,
                    "velocity": 0.2283464566929134,
                    "duration": 0.13574650000001043
                },
                {
                    "name": "F1",
                    "midi": 29,
                    "time": 166.15371600000006,
                    "velocity": 0.23622047244094488,
                    "duration": 0.13574650000001043
                },
                {
                    "name": "C2",
                    "midi": 36,
                    "time": 166.69670200000007,
                    "velocity": 0.2283464566929134,
                    "duration": 0.13574650000001043
                },
                {
                    "name": "F1",
                    "midi": 29,
                    "time": 166.9681950000001,
                    "velocity": 0.2283464566929134,
                    "duration": 0.13574650000001043
                },
                {
                    "name": "C2",
                    "midi": 36,
                    "time": 167.23968800000011,
                    "velocity": 0.25984251968503935,
                    "duration": 0.13574650000001043
                },
                {
                    "name": "G1",
                    "midi": 31,
                    "time": 167.78267400000013,
                    "velocity": 0.2283464566929134,
                    "duration": 0.13574650000001043
                },
                {
                    "name": "C2",
                    "midi": 36,
                    "time": 168.05416700000015,
                    "velocity": 0.2283464566929134,
                    "duration": 0.13574650000001043
                },
                {
                    "name": "G1",
                    "midi": 31,
                    "time": 168.32566000000017,
                    "velocity": 0.2283464566929134,
                    "duration": 0.13574650000001043
                },
                {
                    "name": "G2",
                    "midi": 43,
                    "time": 168.5971530000002,
                    "velocity": 0.2283464566929134,
                    "duration": 0.13574650000001043
                },
                {
                    "name": "C2",
                    "midi": 36,
                    "time": 168.8686460000002,
                    "velocity": 0.23622047244094488,
                    "duration": 0.13574650000001043
                },
                {
                    "name": "G3",
                    "midi": 55,
                    "time": 169.41163200000022,
                    "velocity": 0.2283464566929134,
                    "duration": 0.13574650000001043
                },
                {
                    "name": "B3",
                    "midi": 59,
                    "time": 169.41163200000022,
                    "velocity": 0.2283464566929134,
                    "duration": 0.13574650000001043
                },
                {
                    "name": "C3",
                    "midi": 48,
                    "time": 169.41163200000022,
                    "velocity": 0.2283464566929134,
                    "duration": 0.13574650000001043
                },
                {
                    "name": "A4",
                    "midi": 69,
                    "time": 169.95461800000024,
                    "velocity": 0.2283464566929134,
                    "duration": 0.13574650000001043
                },
                {
                    "name": "F4",
                    "midi": 65,
                    "time": 169.95461800000024,
                    "velocity": 0.2283464566929134,
                    "duration": 0.13574650000001043
                },
                {
                    "name": "C4",
                    "midi": 60,
                    "time": 169.95461800000024,
                    "velocity": 0.2283464566929134,
                    "duration": 0.13574650000001043
                },
                {
                    "name": "G4",
                    "midi": 67,
                    "time": 170.49760400000025,
                    "velocity": 0.25984251968503935,
                    "duration": 0.13574650000001043
                },
                {
                    "name": "E4",
                    "midi": 64,
                    "time": 170.49760400000025,
                    "velocity": 0.25984251968503935,
                    "duration": 0.13574650000001043
                },
                {
                    "name": "C4",
                    "midi": 60,
                    "time": 170.49760400000025,
                    "velocity": 0.25984251968503935,
                    "duration": 0.13574650000001043
                },
                {
                    "name": "G3",
                    "midi": 55,
                    "time": 171.04059000000026,
                    "velocity": 0.2283464566929134,
                    "duration": 0.13574650000001043
                },
                {
                    "name": "C4",
                    "midi": 60,
                    "time": 171.31208300000029,
                    "velocity": 0.2283464566929134,
                    "duration": 0.13574650000001043
                },
                {
                    "name": "A3",
                    "midi": 57,
                    "time": 171.5835760000003,
                    "velocity": 0.2283464566929134,
                    "duration": 0.13574650000001043
                },
                {
                    "name": "D4",
                    "midi": 62,
                    "time": 172.12656200000032,
                    "velocity": 0.2283464566929134,
                    "duration": 0.13574650000001043
                },
                {
                    "name": "A3",
                    "midi": 57,
                    "time": 172.39805500000034,
                    "velocity": 0.2283464566929134,
                    "duration": 0.13574650000001043
                },
                {
                    "name": "E4",
                    "midi": 64,
                    "time": 172.66954800000036,
                    "velocity": 0.23622047244094488,
                    "duration": 0.13574650000001043
                },
                {
                    "name": "A3",
                    "midi": 57,
                    "time": 173.21253400000037,
                    "velocity": 0.2283464566929134,
                    "duration": 0.13574650000001043
                },
                {
                    "name": "E4",
                    "midi": 64,
                    "time": 173.4840270000004,
                    "velocity": 0.2283464566929134,
                    "duration": 0.13574650000001043
                },
                {
                    "name": "B3",
                    "midi": 59,
                    "time": 173.75552000000042,
                    "velocity": 0.2283464566929134,
                    "duration": 0.13574650000001043
                },
                {
                    "name": "E4",
                    "midi": 64,
                    "time": 174.29850600000043,
                    "velocity": 0.2283464566929134,
                    "duration": 0.13574650000001043
                },
                {
                    "name": "D#3",
                    "midi": 51,
                    "time": 174.84149200000044,
                    "velocity": 0.2125984251968504,
                    "duration": 0.13574650000001043
                },
                {
                    "name": "E3",
                    "midi": 52,
                    "time": 174.84149200000044,
                    "velocity": 0.2125984251968504,
                    "duration": 0.13574650000001043
                },
                {
                    "name": "D#4",
                    "midi": 63,
                    "time": 174.84149200000044,
                    "velocity": 0.2125984251968504,
                    "duration": 0.13574650000001043
                },
                {
                    "name": "D2",
                    "midi": 38,
                    "time": 175.38447800000046,
                    "velocity": 0.1889763779527559,
                    "duration": 0.13574650000001043
                },
                {
                    "name": "E2",
                    "midi": 40,
                    "time": 175.38447800000046,
                    "velocity": 0.1889763779527559,
                    "duration": 0.13574650000001043
                },
                {
                    "name": "D3",
                    "midi": 50,
                    "time": 175.38447800000046,
                    "velocity": 0.1889763779527559,
                    "duration": 0.13574650000001043
                },
                {
                    "name": "C1",
                    "midi": 24,
                    "time": 175.92746400000047,
                    "velocity": 0.2125984251968504,
                    "duration": 0.13574650000001043
                },
                {
                    "name": "C2",
                    "midi": 36,
                    "time": 175.92746400000047,
                    "velocity": 0.2283464566929134,
                    "duration": 0.13574650000001043
                },
                {
                    "name": "G1",
                    "midi": 31,
                    "time": 176.47045000000048,
                    "velocity": 0.1889763779527559,
                    "duration": 0.13574650000001043
                },
                {
                    "name": "C2",
                    "midi": 36,
                    "time": 176.7419430000005,
                    "velocity": 0.18110236220472442,
                    "duration": 0.13574650000001043
                },
                {
                    "name": "F1",
                    "midi": 29,
                    "time": 177.01343600000052,
                    "velocity": 0.2283464566929134,
                    "duration": 0.13574650000001043
                },
                {
                    "name": "C2",
                    "midi": 36,
                    "time": 177.55642200000054,
                    "velocity": 0.2125984251968504,
                    "duration": 0.13574650000001043
                },
                {
                    "name": "F1",
                    "midi": 29,
                    "time": 177.82791500000056,
                    "velocity": 0.2125984251968504,
                    "duration": 0.13574650000001043
                },
                {
                    "name": "C2",
                    "midi": 36,
                    "time": 178.09940800000058,
                    "velocity": 0.2283464566929134,
                    "duration": 0.13574650000001043
                },
                {
                    "name": "G1",
                    "midi": 31,
                    "time": 178.6423940000006,
                    "velocity": 0.2047244094488189,
                    "duration": 0.13574650000001043
                },
                {
                    "name": "C2",
                    "midi": 36,
                    "time": 178.9138870000006,
                    "velocity": 0.1968503937007874,
                    "duration": 0.13574650000001043
                },
                {
                    "name": "G1",
                    "midi": 31,
                    "time": 179.18538000000063,
                    "velocity": 0.1968503937007874,
                    "duration": 0.13574650000001043
                },
                {
                    "name": "G2",
                    "midi": 43,
                    "time": 179.45687300000066,
                    "velocity": 0.1889763779527559,
                    "duration": 0.13574650000001043
                },
                {
                    "name": "C2",
                    "midi": 36,
                    "time": 179.72836600000068,
                    "velocity": 0.2047244094488189,
                    "duration": 0.13574650000001043
                },
                {
                    "name": "A#2",
                    "midi": 46,
                    "time": 180.2713520000007,
                    "velocity": 0.1732283464566929,
                    "duration": 0.13574650000001043
                },
                {
                    "name": "A#3",
                    "midi": 58,
                    "time": 180.2713520000007,
                    "velocity": 0.1732283464566929,
                    "duration": 0.13574650000001043
                },
                {
                    "name": "C3",
                    "midi": 48,
                    "time": 180.2713520000007,
                    "velocity": 0.1732283464566929,
                    "duration": 0.13574650000001043
                },
                {
                    "name": "G#4",
                    "midi": 68,
                    "time": 180.8143380000007,
                    "velocity": 0.14960629921259844,
                    "duration": 0.13574650000001043
                },
                {
                    "name": "C4",
                    "midi": 60,
                    "time": 180.8143380000007,
                    "velocity": 0.14960629921259844,
                    "duration": 0.13574650000001043
                },
                {
                    "name": "G#3",
                    "midi": 56,
                    "time": 180.8143380000007,
                    "velocity": 0.14960629921259844,
                    "duration": 0.13574650000001043
                },
                {
                    "name": "G1",
                    "midi": 31,
                    "time": 181.35732400000072,
                    "velocity": 0.2125984251968504,
                    "duration": 1.0859720000000266
                },
                {
                    "name": "C3",
                    "midi": 48,
                    "time": 181.90031000000073,
                    "velocity": 0.14173228346456693,
                    "duration": 0.5429860000000133
                },
                {
                    "name": "G2",
                    "midi": 43,
                    "time": 182.44329600000074,
                    "velocity": 0.1889763779527559,
                    "duration": 1.0859719999999982
                },
                {
                    "name": "D#3",
                    "midi": 51,
                    "time": 182.44329600000074,
                    "velocity": 0.1889763779527559,
                    "duration": 0.5429860000000133
                },
                {
                    "name": "G3",
                    "midi": 55,
                    "time": 182.98628200000076,
                    "velocity": 0.14960629921259844,
                    "duration": 1.628957999999983
                },
                {
                    "name": "C4",
                    "midi": 60,
                    "time": 183.52926800000074,
                    "velocity": 0.1732283464566929,
                    "duration": 0.5429859999999849
                },
                {
                    "name": "D#4",
                    "midi": 63,
                    "time": 184.07225400000073,
                    "velocity": 0.15748031496062992,
                    "duration": 0.5429860000000133
                },
                {
                    "name": "G1",
                    "midi": 31,
                    "time": 184.61524000000074,
                    "velocity": 0.1732283464566929,
                    "duration": 1.0859719999999982
                },
                {
                    "name": "G2",
                    "midi": 43,
                    "time": 185.70121200000074,
                    "velocity": 0.14173228346456693,
                    "duration": 1.0859719999999982
                },
                {
                    "name": "G#3",
                    "midi": 56,
                    "time": 186.24419800000075,
                    "velocity": 0.13385826771653545,
                    "duration": 0.5429859999999849
                },
                {
                    "name": "G1",
                    "midi": 31,
                    "time": 186.78718400000074,
                    "velocity": 0.1889763779527559,
                    "duration": 1.0859719999999982
                },
                {
                    "name": "D3",
                    "midi": 50,
                    "time": 187.33017000000072,
                    "velocity": 0.14173228346456693,
                    "duration": 0.5429860000000133
                },
                {
                    "name": "G2",
                    "midi": 43,
                    "time": 187.87315600000073,
                    "velocity": 0.14960629921259844,
                    "duration": 1.0859719999999982
                },
                {
                    "name": "G3",
                    "midi": 55,
                    "time": 187.87315600000073,
                    "velocity": 0.14960629921259844,
                    "duration": 0.5429859999999849
                },
                {
                    "name": "A#3",
                    "midi": 58,
                    "time": 188.41614200000072,
                    "velocity": 0.14960629921259844,
                    "duration": 0.5429860000000133
                },
                {
                    "name": "G3",
                    "midi": 55,
                    "time": 188.95912800000073,
                    "velocity": 0.15748031496062992,
                    "duration": 1.0859719999999697
                },
                {
                    "name": "D#4",
                    "midi": 63,
                    "time": 188.95912800000073,
                    "velocity": 0.15748031496062992,
                    "duration": 0.5429859999999849
                },
                {
                    "name": "G4",
                    "midi": 67,
                    "time": 189.50211400000072,
                    "velocity": 0.15748031496062992,
                    "duration": 0.5429859999999849
                },
                {
                    "name": "G1",
                    "midi": 31,
                    "time": 190.0451000000007,
                    "velocity": 0.1732283464566929,
                    "duration": 1.0859719999999982
                },
                {
                    "name": "G2",
                    "midi": 43,
                    "time": 191.1310720000007,
                    "velocity": 0.14173228346456693,
                    "duration": 1.0859719999999697
                },
                {
                    "name": "C4",
                    "midi": 60,
                    "time": 191.67405800000068,
                    "velocity": 0.13385826771653545,
                    "duration": 0.5429859999999849
                },
                {
                    "name": "G1",
                    "midi": 31,
                    "time": 192.21704400000067,
                    "velocity": 0.1732283464566929,
                    "duration": 1.0859719999999982
                },
                {
                    "name": "G3",
                    "midi": 55,
                    "time": 192.76003000000065,
                    "velocity": 0.14173228346456693,
                    "duration": 0.5429860000000133
                },
                {
                    "name": "G2",
                    "midi": 43,
                    "time": 193.03152300000067,
                    "velocity": 0.15748031496062992,
                    "duration": 1.357465000000019
                },
                {
                    "name": "C4",
                    "midi": 60,
                    "time": 193.30301600000067,
                    "velocity": 0.15748031496062992,
                    "duration": 0.5429860000000133
                },
                {
                    "name": "D#4",
                    "midi": 63,
                    "time": 193.84600200000068,
                    "velocity": 0.14960629921259844,
                    "duration": 0.5429860000000133
                },
                {
                    "name": "G3",
                    "midi": 55,
                    "time": 194.3889880000007,
                    "velocity": 0.14173228346456693,
                    "duration": 1.0859720000000266
                },
                {
                    "name": "G#4",
                    "midi": 68,
                    "time": 194.3889880000007,
                    "velocity": 0.14173228346456693,
                    "duration": 0.5429860000000133
                },
                {
                    "name": "C5",
                    "midi": 72,
                    "time": 194.9319740000007,
                    "velocity": 0.15748031496062992,
                    "duration": 0.5429860000000133
                },
                {
                    "name": "G1",
                    "midi": 31,
                    "time": 195.47496000000072,
                    "velocity": 0.1732283464566929,
                    "duration": 1.0859719999999982
                },
                {
                    "name": "G2",
                    "midi": 43,
                    "time": 196.56093200000072,
                    "velocity": 0.1732283464566929,
                    "duration": 1.0859719999999982
                },
                {
                    "name": "F4",
                    "midi": 65,
                    "time": 197.1039180000007,
                    "velocity": 0.1732283464566929,
                    "duration": 0.5429860000000133
                },
                {
                    "name": "D#4",
                    "midi": 63,
                    "time": 197.64690400000072,
                    "velocity": 0.1732283464566929,
                    "duration": 0.5429860000000133
                },
                {
                    "name": "G3",
                    "midi": 55,
                    "time": 197.64690400000072,
                    "velocity": 0.1732283464566929,
                    "duration": 1.6289580000000399
                },
                {
                    "name": "C4",
                    "midi": 60,
                    "time": 198.18989000000073,
                    "velocity": 0.1732283464566929,
                    "duration": 0.5429860000000133
                },
                {
                    "name": "A3",
                    "midi": 57,
                    "time": 198.73287600000074,
                    "velocity": 0.1732283464566929,
                    "duration": 0.5429860000000133
                },
                {
                    "name": "F#3",
                    "midi": 54,
                    "time": 199.27586200000076,
                    "velocity": 0.1732283464566929,
                    "duration": 0.40723950000000286
                },
                {
                    "name": "G2",
                    "midi": 43,
                    "time": 199.68310150000076,
                    "velocity": 0.13385826771653545,
                    "duration": 0.27149299999999243
                },
                {
                    "name": "C3",
                    "midi": 48,
                    "time": 199.75097475000075,
                    "velocity": 0.13385826771653545,
                    "duration": 0.20361975000000143
                },
                {
                    "name": "D#3",
                    "midi": 51,
                    "time": 199.81884800000074,
                    "velocity": 0.2204724409448819,
                    "duration": 0.13574650000001043
                },
                {
                    "name": "G2",
                    "midi": 43,
                    "time": 200.22608750000074,
                    "velocity": 0.1889763779527559,
                    "duration": 0.27149299999999243
                },
                {
                    "name": "C3",
                    "midi": 48,
                    "time": 200.29396075000074,
                    "velocity": 0.1889763779527559,
                    "duration": 0.20361975000000143
                },
                {
                    "name": "D#3",
                    "midi": 51,
                    "time": 200.36183400000073,
                    "velocity": 0.2283464566929134,
                    "duration": 0.13574650000001043
                },
                {
                    "name": "G2",
                    "midi": 43,
                    "time": 200.76907350000073,
                    "velocity": 0.2047244094488189,
                    "duration": 0.27149299999999243
                },
                {
                    "name": "C3",
                    "midi": 48,
                    "time": 200.83694675000072,
                    "velocity": 0.2047244094488189,
                    "duration": 0.20361975000000143
                },
                {
                    "name": "D#3",
                    "midi": 51,
                    "time": 200.9048200000007,
                    "velocity": 0.2283464566929134,
                    "duration": 0.13574650000001043
                },
                {
                    "name": "G2",
                    "midi": 43,
                    "time": 201.31205950000071,
                    "velocity": 0.2047244094488189,
                    "duration": 0.27149299999999243
                },
                {
                    "name": "C3",
                    "midi": 48,
                    "time": 201.3799327500007,
                    "velocity": 0.2047244094488189,
                    "duration": 0.20361975000000143
                },
                {
                    "name": "D#3",
                    "midi": 51,
                    "time": 201.4478060000007,
                    "velocity": 0.23622047244094488,
                    "duration": 0.13574650000001043
                },
                {
                    "name": "A3",
                    "midi": 57,
                    "time": 201.4478060000007,
                    "velocity": 0.23622047244094488,
                    "duration": 0.13574650000001043
                },
                {
                    "name": "F#3",
                    "midi": 54,
                    "time": 201.5835525000007,
                    "velocity": 0.2755905511811024,
                    "duration": 0.13574650000001043
                },
                {
                    "name": "D#3",
                    "midi": 51,
                    "time": 201.71929900000072,
                    "velocity": 0.29133858267716534,
                    "duration": 0.13574650000001043
                },
                {
                    "name": "C3",
                    "midi": 48,
                    "time": 201.85504550000073,
                    "velocity": 0.30708661417322836,
                    "duration": 0.13574650000001043
                },
                {
                    "name": "G2",
                    "midi": 43,
                    "time": 201.99079200000074,
                    "velocity": 0.3228346456692913,
                    "duration": 0.5429859999999849
                },
                {
                    "name": "G3",
                    "midi": 55,
                    "time": 201.99079200000074,
                    "velocity": 0.3228346456692913,
                    "duration": 0.5429859999999849
                },
                {
                    "name": "F2",
                    "midi": 41,
                    "time": 202.53377800000072,
                    "velocity": 0.2125984251968504,
                    "duration": 0.5429860000000133
                },
                {
                    "name": "G2",
                    "midi": 43,
                    "time": 202.53377800000072,
                    "velocity": 0.2125984251968504,
                    "duration": 0.5429860000000133
                },
                {
                    "name": "G3",
                    "midi": 55,
                    "time": 202.53377800000072,
                    "velocity": 0.2125984251968504,
                    "duration": 0.5429860000000133
                },
                {
                    "name": "D#2",
                    "midi": 39,
                    "time": 203.07676400000074,
                    "velocity": 0.2125984251968504,
                    "duration": 0.5429860000000133
                },
                {
                    "name": "G2",
                    "midi": 43,
                    "time": 203.07676400000074,
                    "velocity": 0.2125984251968504,
                    "duration": 0.5429860000000133
                },
                {
                    "name": "G3",
                    "midi": 55,
                    "time": 203.07676400000074,
                    "velocity": 0.2125984251968504,
                    "duration": 0.5429860000000133
                },
                {
                    "name": "D2",
                    "midi": 38,
                    "time": 203.61975000000075,
                    "velocity": 0.2125984251968504,
                    "duration": 0.5429859999999849
                },
                {
                    "name": "G2",
                    "midi": 43,
                    "time": 203.61975000000075,
                    "velocity": 0.2125984251968504,
                    "duration": 0.5429859999999849
                },
                {
                    "name": "F3",
                    "midi": 53,
                    "time": 203.61975000000075,
                    "velocity": 0.2125984251968504,
                    "duration": 0.5429859999999849
                },
                {
                    "name": "G3",
                    "midi": 55,
                    "time": 203.61975000000075,
                    "velocity": 0.2125984251968504,
                    "duration": 0.5429859999999849
                },
                {
                    "name": "D#3",
                    "midi": 51,
                    "time": 204.16273600000073,
                    "velocity": 0.2125984251968504,
                    "duration": 0.5429860000000133
                },
                {
                    "name": "G3",
                    "midi": 55,
                    "time": 204.16273600000073,
                    "velocity": 0.2125984251968504,
                    "duration": 0.5429860000000133
                },
                {
                    "name": "C2",
                    "midi": 36,
                    "time": 204.16273600000073,
                    "velocity": 0.2125984251968504,
                    "duration": 0.5429860000000133
                },
                {
                    "name": "G2",
                    "midi": 43,
                    "time": 204.16273600000073,
                    "velocity": 0.2125984251968504,
                    "duration": 0.5429860000000133
                },
                {
                    "name": "B1",
                    "midi": 35,
                    "time": 204.70572200000075,
                    "velocity": 0.2047244094488189,
                    "duration": 0.5429860000000133
                },
                {
                    "name": "D#2",
                    "midi": 39,
                    "time": 204.70572200000075,
                    "velocity": 0.2047244094488189,
                    "duration": 0.5429860000000133
                },
                {
                    "name": "B2",
                    "midi": 47,
                    "time": 204.70572200000075,
                    "velocity": 0.2047244094488189,
                    "duration": 0.5429860000000133
                },
                {
                    "name": "D#3",
                    "midi": 51,
                    "time": 204.70572200000075,
                    "velocity": 0.2047244094488189,
                    "duration": 0.5429860000000133
                },
                {
                    "name": "A3",
                    "midi": 57,
                    "time": 204.70572200000075,
                    "velocity": 0.2047244094488189,
                    "duration": 0.5429860000000133
                },
                {
                    "name": "A#1",
                    "midi": 34,
                    "time": 205.24870800000076,
                    "velocity": 0.2047244094488189,
                    "duration": 0.8144789999999773
                },
                {
                    "name": "F2",
                    "midi": 41,
                    "time": 205.24870800000076,
                    "velocity": 0.2047244094488189,
                    "duration": 1.0859719999999697
                },
                {
                    "name": "A#2",
                    "midi": 46,
                    "time": 205.24870800000076,
                    "velocity": 0.2047244094488189,
                    "duration": 2.1719439999999395
                },
                {
                    "name": "D3",
                    "midi": 50,
                    "time": 205.24870800000076,
                    "velocity": 0.2047244094488189,
                    "duration": 2.1719439999999395
                },
                {
                    "name": "A#3",
                    "midi": 58,
                    "time": 205.24870800000076,
                    "velocity": 0.2047244094488189,
                    "duration": 2.1719439999999395
                },
                {
                    "name": "A#0",
                    "midi": 22,
                    "time": 205.79169400000075,
                    "velocity": 0.1968503937007874,
                    "duration": 0.27149299999999243
                },
                {
                    "name": "A#1",
                    "midi": 34,
                    "time": 205.79169400000075,
                    "velocity": 0.1968503937007874,
                    "duration": 0.5429859999999849
                },
                {
                    "name": "A#0",
                    "midi": 22,
                    "time": 206.33468000000073,
                    "velocity": 0.1968503937007874,
                    "duration": 0.27149299999999243
                },
                {
                    "name": "A#1",
                    "midi": 34,
                    "time": 206.33468000000073,
                    "velocity": 0.1968503937007874,
                    "duration": 0.27149299999999243
                },
                {
                    "name": "A#0",
                    "midi": 22,
                    "time": 206.87766600000072,
                    "velocity": 0.1968503937007874,
                    "duration": 0.27149299999999243
                },
                {
                    "name": "A#1",
                    "midi": 34,
                    "time": 206.87766600000072,
                    "velocity": 0.1968503937007874,
                    "duration": 0.27149299999999243
                },
                {
                    "name": "A#2",
                    "midi": 46,
                    "time": 207.4206520000007,
                    "velocity": 0.1968503937007874,
                    "duration": 0.5429859999999849
                },
                {
                    "name": "A#3",
                    "midi": 58,
                    "time": 207.4206520000007,
                    "velocity": 0.1968503937007874,
                    "duration": 0.5429859999999849
                },
                {
                    "name": "F#2",
                    "midi": 42,
                    "time": 207.96363800000069,
                    "velocity": 0.1968503937007874,
                    "duration": 0.5429859999999849
                },
                {
                    "name": "A#3",
                    "midi": 58,
                    "time": 207.96363800000069,
                    "velocity": 0.1968503937007874,
                    "duration": 0.5429859999999849
                },
                {
                    "name": "D#2",
                    "midi": 39,
                    "time": 208.50662400000067,
                    "velocity": 0.1968503937007874,
                    "duration": 0.5429860000000133
                },
                {
                    "name": "F#3",
                    "midi": 54,
                    "time": 208.50662400000067,
                    "velocity": 0.1968503937007874,
                    "duration": 0.5429860000000133
                },
                {
                    "name": "A#3",
                    "midi": 58,
                    "time": 208.50662400000067,
                    "velocity": 0.1968503937007874,
                    "duration": 0.5429860000000133
                },
                {
                    "name": "B1",
                    "midi": 35,
                    "time": 209.04961000000068,
                    "velocity": 0.1732283464566929,
                    "duration": 0.5429859999999849
                },
                {
                    "name": "D#3",
                    "midi": 51,
                    "time": 209.04961000000068,
                    "velocity": 0.1732283464566929,
                    "duration": 0.5429859999999849
                },
                {
                    "name": "F#3",
                    "midi": 54,
                    "time": 209.04961000000068,
                    "velocity": 0.1732283464566929,
                    "duration": 0.5429859999999849
                },
                {
                    "name": "B3",
                    "midi": 59,
                    "time": 209.04961000000068,
                    "velocity": 0.1732283464566929,
                    "duration": 0.5429859999999849
                },
                {
                    "name": "G#1",
                    "midi": 32,
                    "time": 209.59259600000067,
                    "velocity": 0.1732283464566929,
                    "duration": 0.497737166666667
                },
                {
                    "name": "D#3",
                    "midi": 51,
                    "time": 209.59259600000067,
                    "velocity": 0.1732283464566929,
                    "duration": 0.497737166666667
                },
                {
                    "name": "G#3",
                    "midi": 56,
                    "time": 209.59259600000067,
                    "velocity": 0.1732283464566929,
                    "duration": 0.497737166666667
                },
                {
                    "name": "B3",
                    "midi": 59,
                    "time": 209.59259600000067,
                    "velocity": 0.1732283464566929,
                    "duration": 0.497737166666667
                },
                {
                    "name": "E1",
                    "midi": 28,
                    "time": 210.13558200000068,
                    "velocity": 0.14173228346456693,
                    "duration": 0.5429859999999849
                },
                {
                    "name": "E2",
                    "midi": 40,
                    "time": 210.13558200000068,
                    "velocity": 0.14173228346456693,
                    "duration": 0.5429859999999849
                },
                {
                    "name": "G#3",
                    "midi": 56,
                    "time": 210.13558200000068,
                    "velocity": 0.14173228346456693,
                    "duration": 0.5429859999999849
                },
                {
                    "name": "B3",
                    "midi": 59,
                    "time": 210.13558200000068,
                    "velocity": 0.14173228346456693,
                    "duration": 0.5429859999999849
                },
                {
                    "name": "E4",
                    "midi": 64,
                    "time": 210.13558200000068,
                    "velocity": 0.14173228346456693,
                    "duration": 0.5429859999999849
                },
                {
                    "name": "B1",
                    "midi": 35,
                    "time": 210.67856800000067,
                    "velocity": 0.14173228346456693,
                    "duration": 0.8144790000000057
                },
                {
                    "name": "B2",
                    "midi": 47,
                    "time": 210.67856800000067,
                    "velocity": 0.14173228346456693,
                    "duration": 1.0859719999999982
                },
                {
                    "name": "F#3",
                    "midi": 54,
                    "time": 210.67856800000067,
                    "velocity": 0.14173228346456693,
                    "duration": 2.171943999999968
                },
                {
                    "name": "B3",
                    "midi": 59,
                    "time": 210.67856800000067,
                    "velocity": 0.14173228346456693,
                    "duration": 2.171943999999968
                },
                {
                    "name": "D#4",
                    "midi": 63,
                    "time": 210.67856800000067,
                    "velocity": 0.14173228346456693,
                    "duration": 2.171943999999968
                },
                {
                    "name": "B0",
                    "midi": 23,
                    "time": 211.22155400000068,
                    "velocity": 0.1968503937007874,
                    "duration": 0.27149299999999243
                },
                {
                    "name": "B1",
                    "midi": 35,
                    "time": 211.22155400000068,
                    "velocity": 0.1968503937007874,
                    "duration": 0.5429859999999849
                },
                {
                    "name": "B0",
                    "midi": 23,
                    "time": 211.76454000000066,
                    "velocity": 0.1968503937007874,
                    "duration": 0.27149299999999243
                },
                {
                    "name": "B1",
                    "midi": 35,
                    "time": 211.76454000000066,
                    "velocity": 0.1968503937007874,
                    "duration": 0.27149299999999243
                },
                {
                    "name": "B0",
                    "midi": 23,
                    "time": 212.30752600000065,
                    "velocity": 0.1968503937007874,
                    "duration": 0.27149299999999243
                },
                {
                    "name": "B1",
                    "midi": 35,
                    "time": 212.30752600000065,
                    "velocity": 0.1968503937007874,
                    "duration": 0.27149299999999243
                },
                {
                    "name": "B2",
                    "midi": 47,
                    "time": 212.85051200000063,
                    "velocity": 0.2125984251968504,
                    "duration": 0.5429860000000133
                },
                {
                    "name": "B3",
                    "midi": 59,
                    "time": 212.85051200000063,
                    "velocity": 0.2125984251968504,
                    "duration": 0.5429860000000133
                },
                {
                    "name": "B2",
                    "midi": 47,
                    "time": 213.39349800000065,
                    "velocity": 0.2125984251968504,
                    "duration": 0.5429859999999849
                },
                {
                    "name": "B3",
                    "midi": 59,
                    "time": 213.39349800000065,
                    "velocity": 0.2125984251968504,
                    "duration": 0.5429859999999849
                },
                {
                    "name": "A2",
                    "midi": 45,
                    "time": 213.39349800000065,
                    "velocity": 0.2125984251968504,
                    "duration": 0.5429859999999849
                },
                {
                    "name": "G2",
                    "midi": 43,
                    "time": 213.93648400000063,
                    "velocity": 0.2125984251968504,
                    "duration": 0.5429860000000133
                },
                {
                    "name": "B2",
                    "midi": 47,
                    "time": 213.93648400000063,
                    "velocity": 0.2125984251968504,
                    "duration": 0.5429860000000133
                },
                {
                    "name": "B3",
                    "midi": 59,
                    "time": 213.93648400000063,
                    "velocity": 0.2125984251968504,
                    "duration": 0.5429860000000133
                },
                {
                    "name": "F#2",
                    "midi": 42,
                    "time": 214.47947000000065,
                    "velocity": 0.23622047244094488,
                    "duration": 0.5429860000000133
                },
                {
                    "name": "B2",
                    "midi": 47,
                    "time": 214.47947000000065,
                    "velocity": 0.23622047244094488,
                    "duration": 0.5429860000000133
                },
                {
                    "name": "B3",
                    "midi": 59,
                    "time": 214.47947000000065,
                    "velocity": 0.23622047244094488,
                    "duration": 0.5429860000000133
                },
                {
                    "name": "A3",
                    "midi": 57,
                    "time": 214.47947000000065,
                    "velocity": 0.23622047244094488,
                    "duration": 0.5429860000000133
                },
                {
                    "name": "E2",
                    "midi": 40,
                    "time": 215.02245600000066,
                    "velocity": 0.23622047244094488,
                    "duration": 0.5429859999999849
                },
                {
                    "name": "B2",
                    "midi": 47,
                    "time": 215.02245600000066,
                    "velocity": 0.23622047244094488,
                    "duration": 0.5429859999999849
                },
                {
                    "name": "G3",
                    "midi": 55,
                    "time": 215.02245600000066,
                    "velocity": 0.23622047244094488,
                    "duration": 0.5429859999999849
                },
                {
                    "name": "B3",
                    "midi": 59,
                    "time": 215.02245600000066,
                    "velocity": 0.23622047244094488,
                    "duration": 0.5429859999999849
                },
                {
                    "name": "D2",
                    "midi": 38,
                    "time": 215.56544200000064,
                    "velocity": 0.2283464566929134,
                    "duration": 0.5429860000000133
                },
                {
                    "name": "F#2",
                    "midi": 42,
                    "time": 215.56544200000064,
                    "velocity": 0.2283464566929134,
                    "duration": 0.5429860000000133
                },
                {
                    "name": "D3",
                    "midi": 50,
                    "time": 215.56544200000064,
                    "velocity": 0.2283464566929134,
                    "duration": 0.5429860000000133
                },
                {
                    "name": "F#3",
                    "midi": 54,
                    "time": 215.56544200000064,
                    "velocity": 0.2283464566929134,
                    "duration": 0.5429860000000133
                },
                {
                    "name": "C4",
                    "midi": 60,
                    "time": 215.56544200000064,
                    "velocity": 0.2283464566929134,
                    "duration": 0.5429860000000133
                },
                {
                    "name": "C#2",
                    "midi": 37,
                    "time": 216.10842800000066,
                    "velocity": 0.2125984251968504,
                    "duration": 0.8144789999999773
                },
                {
                    "name": "G#2",
                    "midi": 44,
                    "time": 216.10842800000066,
                    "velocity": 0.2125984251968504,
                    "duration": 1.0859719999999697
                },
                {
                    "name": "C#3",
                    "midi": 49,
                    "time": 216.10842800000066,
                    "velocity": 0.2125984251968504,
                    "duration": 1.0859719999999697
                },
                {
                    "name": "F3",
                    "midi": 53,
                    "time": 216.10842800000066,
                    "velocity": 0.2125984251968504,
                    "duration": 2.1719439999999395
                },
                {
                    "name": "C#4",
                    "midi": 61,
                    "time": 216.10842800000066,
                    "velocity": 0.2125984251968504,
                    "duration": 2.1719439999999395
                },
                {
                    "name": "C#1",
                    "midi": 25,
                    "time": 216.65141400000064,
                    "velocity": 0.1968503937007874,
                    "duration": 0.27149299999999243
                },
                {
                    "name": "C#2",
                    "midi": 37,
                    "time": 216.65141400000064,
                    "velocity": 0.1968503937007874,
                    "duration": 0.5429859999999849
                },
                {
                    "name": "C#1",
                    "midi": 25,
                    "time": 217.19440000000063,
                    "velocity": 0.1968503937007874,
                    "duration": 0.27149299999999243
                },
                {
                    "name": "C#2",
                    "midi": 37,
                    "time": 217.19440000000063,
                    "velocity": 0.1968503937007874,
                    "duration": 0.27149299999999243
                },
                {
                    "name": "C#1",
                    "midi": 25,
                    "time": 217.7373860000006,
                    "velocity": 0.1968503937007874,
                    "duration": 0.27149299999999243
                },
                {
                    "name": "C#2",
                    "midi": 37,
                    "time": 217.7373860000006,
                    "velocity": 0.1968503937007874,
                    "duration": 0.27149299999999243
                },
                {
                    "name": "C#3",
                    "midi": 49,
                    "time": 218.2803720000006,
                    "velocity": 0.23622047244094488,
                    "duration": 0.5429859999999849
                },
                {
                    "name": "C#4",
                    "midi": 61,
                    "time": 218.2803720000006,
                    "velocity": 0.23622047244094488,
                    "duration": 0.5373298958333237
                },
                {
                    "name": "A#2",
                    "midi": 46,
                    "time": 218.82335800000058,
                    "velocity": 0.23622047244094488,
                    "duration": 0.5429860000000133
                },
                {
                    "name": "A#3",
                    "midi": 58,
                    "time": 218.82335800000058,
                    "velocity": 0.23622047244094488,
                    "duration": 0.5429860000000133
                },
                {
                    "name": "F#2",
                    "midi": 42,
                    "time": 219.3663440000006,
                    "velocity": 0.23622047244094488,
                    "duration": 0.5429859999999849
                },
                {
                    "name": "A#2",
                    "midi": 46,
                    "time": 219.3663440000006,
                    "velocity": 0.23622047244094488,
                    "duration": 0.5429859999999849
                },
                {
                    "name": "F#3",
                    "midi": 54,
                    "time": 219.3663440000006,
                    "velocity": 0.23622047244094488,
                    "duration": 0.5429859999999849
                },
                {
                    "name": "D#2",
                    "midi": 39,
                    "time": 219.90933000000058,
                    "velocity": 0.31496062992125984,
                    "duration": 0.5429859999999849
                },
                {
                    "name": "A#2",
                    "midi": 46,
                    "time": 219.90933000000058,
                    "velocity": 0.31496062992125984,
                    "duration": 0.5429859999999849
                },
                {
                    "name": "D#3",
                    "midi": 51,
                    "time": 219.90933000000058,
                    "velocity": 0.31496062992125984,
                    "duration": 0.5429859999999849
                },
                {
                    "name": "B1",
                    "midi": 35,
                    "time": 220.45231600000056,
                    "velocity": 0.3464566929133858,
                    "duration": 0.5429860000000133
                },
                {
                    "name": "D#2",
                    "midi": 39,
                    "time": 220.45231600000056,
                    "velocity": 0.3464566929133858,
                    "duration": 0.5429860000000133
                },
                {
                    "name": "B2",
                    "midi": 47,
                    "time": 220.45231600000056,
                    "velocity": 0.3464566929133858,
                    "duration": 0.5429860000000133
                },
                {
                    "name": "G#1",
                    "midi": 32,
                    "time": 220.99530200000058,
                    "velocity": 0.3937007874015748,
                    "duration": 0.5429860000000133
                },
                {
                    "name": "D#2",
                    "midi": 39,
                    "time": 220.99530200000058,
                    "velocity": 0.3937007874015748,
                    "duration": 0.5429860000000133
                },
                {
                    "name": "G#2",
                    "midi": 44,
                    "time": 220.99530200000058,
                    "velocity": 0.3937007874015748,
                    "duration": 0.5429860000000133
                },
                {
                    "name": "A#1",
                    "midi": 34,
                    "time": 221.5382880000006,
                    "velocity": 0.4015748031496063,
                    "duration": 1.0859720000000266
                },
                {
                    "name": "D2",
                    "midi": 38,
                    "time": 221.5382880000006,
                    "velocity": 0.4015748031496063,
                    "duration": 1.0859720000000266
                },
                {
                    "name": "F2",
                    "midi": 41,
                    "time": 221.5382880000006,
                    "velocity": 0.4015748031496063,
                    "duration": 1.0859720000000266
                },
                {
                    "name": "A#2",
                    "midi": 46,
                    "time": 221.5382880000006,
                    "velocity": 0.4015748031496063,
                    "duration": 1.0859720000000266
                },
                {
                    "name": "A#3",
                    "midi": 58,
                    "time": 222.0812740000006,
                    "velocity": 0.3228346456692913,
                    "duration": 1.0859720000000266
                },
                {
                    "name": "D4",
                    "midi": 62,
                    "time": 222.0812740000006,
                    "velocity": 0.3228346456692913,
                    "duration": 1.0859720000000266
                },
                {
                    "name": "F4",
                    "midi": 65,
                    "time": 222.0812740000006,
                    "velocity": 0.3228346456692913,
                    "duration": 1.0859720000000266
                },
                {
                    "name": "A#4",
                    "midi": 70,
                    "time": 222.0812740000006,
                    "velocity": 0.3228346456692913,
                    "duration": 0.5429860000000133
                },
                {
                    "name": "D#3",
                    "midi": 51,
                    "time": 223.16724600000063,
                    "velocity": 0.3779527559055118,
                    "duration": 0.5429859999999849
                },
                {
                    "name": "F#3",
                    "midi": 54,
                    "time": 223.16724600000063,
                    "velocity": 0.3779527559055118,
                    "duration": 0.5429859999999849
                },
                {
                    "name": "A#3",
                    "midi": 58,
                    "time": 223.16724600000063,
                    "velocity": 0.3779527559055118,
                    "duration": 0.5429859999999849
                },
                {
                    "name": "D#4",
                    "midi": 63,
                    "time": 223.16724600000063,
                    "velocity": 0.3779527559055118,
                    "duration": 0.5429859999999849
                },
                {
                    "name": "A#3",
                    "midi": 58,
                    "time": 223.71023200000062,
                    "velocity": 0.3779527559055118,
                    "duration": 1.085972000000055
                },
                {
                    "name": "D4",
                    "midi": 62,
                    "time": 223.71023200000062,
                    "velocity": 0.3779527559055118,
                    "duration": 1.085972000000055
                },
                {
                    "name": "F4",
                    "midi": 65,
                    "time": 223.71023200000062,
                    "velocity": 0.3779527559055118,
                    "duration": 1.085972000000055
                },
                {
                    "name": "A#4",
                    "midi": 70,
                    "time": 223.71023200000062,
                    "velocity": 0.3779527559055118,
                    "duration": 1.085972000000055
                },
                {
                    "name": "A#1",
                    "midi": 34,
                    "time": 224.25321800000063,
                    "velocity": 0.3543307086614173,
                    "duration": 0.13574650000001043
                },
                {
                    "name": "F2",
                    "midi": 41,
                    "time": 224.38896450000064,
                    "velocity": 0.3464566929133858,
                    "duration": 0.13574650000001043
                },
                {
                    "name": "A#2",
                    "midi": 46,
                    "time": 224.52471100000065,
                    "velocity": 0.3543307086614173,
                    "duration": 0.13574650000001043
                },
                {
                    "name": "D3",
                    "midi": 50,
                    "time": 224.66045750000066,
                    "velocity": 0.3464566929133858,
                    "duration": 0.13574650000001043
                },
                {
                    "name": "A#3",
                    "midi": 58,
                    "time": 224.79620400000067,
                    "velocity": 0.3543307086614173,
                    "duration": 0.13574650000001043
                },
                {
                    "name": "D4",
                    "midi": 62,
                    "time": 224.93195050000068,
                    "velocity": 0.3464566929133858,
                    "duration": 0.13574650000001043
                },
                {
                    "name": "F4",
                    "midi": 65,
                    "time": 225.0676970000007,
                    "velocity": 0.3543307086614173,
                    "duration": 0.27149299999999243
                },
                {
                    "name": "B1",
                    "midi": 35,
                    "time": 225.33919000000068,
                    "velocity": 0.4094488188976378,
                    "duration": 0.5429859999999849
                },
                {
                    "name": "D#2",
                    "midi": 39,
                    "time": 225.33919000000068,
                    "velocity": 0.4094488188976378,
                    "duration": 0.5429859999999849
                },
                {
                    "name": "F#2",
                    "midi": 42,
                    "time": 225.33919000000068,
                    "velocity": 0.4094488188976378,
                    "duration": 0.5429859999999849
                },
                {
                    "name": "B2",
                    "midi": 47,
                    "time": 225.33919000000068,
                    "velocity": 0.4094488188976378,
                    "duration": 0.5429859999999849
                },
                {
                    "name": "C#2",
                    "midi": 37,
                    "time": 225.88217600000067,
                    "velocity": 0.4094488188976378,
                    "duration": 1.0859719999999982
                },
                {
                    "name": "F2",
                    "midi": 41,
                    "time": 225.88217600000067,
                    "velocity": 0.4094488188976378,
                    "duration": 1.0859719999999982
                },
                {
                    "name": "G#2",
                    "midi": 44,
                    "time": 225.88217600000067,
                    "velocity": 0.4094488188976378,
                    "duration": 1.0859719999999982
                },
                {
                    "name": "C#3",
                    "midi": 49,
                    "time": 225.88217600000067,
                    "velocity": 0.4094488188976378,
                    "duration": 1.0859719999999982
                },
                {
                    "name": "C#4",
                    "midi": 61,
                    "time": 226.42516200000065,
                    "velocity": 0.41732283464566927,
                    "duration": 1.0859720000000266
                },
                {
                    "name": "F4",
                    "midi": 65,
                    "time": 226.42516200000065,
                    "velocity": 0.41732283464566927,
                    "duration": 1.0859720000000266
                },
                {
                    "name": "G#4",
                    "midi": 68,
                    "time": 226.42516200000065,
                    "velocity": 0.41732283464566927,
                    "duration": 1.0859720000000266
                },
                {
                    "name": "C#5",
                    "midi": 73,
                    "time": 226.42516200000065,
                    "velocity": 0.41732283464566927,
                    "duration": 0.5429860000000133
                },
                {
                    "name": "F#3",
                    "midi": 54,
                    "time": 227.51113400000068,
                    "velocity": 0.4094488188976378,
                    "duration": 0.5429859999999849
                },
                {
                    "name": "A#3",
                    "midi": 58,
                    "time": 227.51113400000068,
                    "velocity": 0.4094488188976378,
                    "duration": 0.5429859999999849
                },
                {
                    "name": "C#4",
                    "midi": 61,
                    "time": 227.51113400000068,
                    "velocity": 0.4094488188976378,
                    "duration": 0.5429859999999849
                },
                {
                    "name": "F#4",
                    "midi": 66,
                    "time": 227.51113400000068,
                    "velocity": 0.4645669291338583,
                    "duration": 0.5429859999999849
                },
                {
                    "name": "C#4",
                    "midi": 61,
                    "time": 228.05412000000067,
                    "velocity": 0.4094488188976378,
                    "duration": 1.0859720000000266
                },
                {
                    "name": "F4",
                    "midi": 65,
                    "time": 228.05412000000067,
                    "velocity": 0.4094488188976378,
                    "duration": 1.0859720000000266
                },
                {
                    "name": "G#4",
                    "midi": 68,
                    "time": 228.05412000000067,
                    "velocity": 0.4645669291338583,
                    "duration": 1.0859720000000266
                },
                {
                    "name": "C#5",
                    "midi": 73,
                    "time": 228.05412000000067,
                    "velocity": 0.4645669291338583,
                    "duration": 1.0859720000000266
                },
                {
                    "name": "C#2",
                    "midi": 37,
                    "time": 228.59710600000065,
                    "velocity": 0.4330708661417323,
                    "duration": 0.13574650000001043
                },
                {
                    "name": "G#2",
                    "midi": 44,
                    "time": 228.73285250000066,
                    "velocity": 0.4094488188976378,
                    "duration": 0.13574650000001043
                },
                {
                    "name": "C#3",
                    "midi": 49,
                    "time": 228.86859900000067,
                    "velocity": 0.4330708661417323,
                    "duration": 0.13574650000001043
                },
                {
                    "name": "F3",
                    "midi": 53,
                    "time": 229.00434550000068,
                    "velocity": 0.4094488188976378,
                    "duration": 0.13574650000001043
                },
                {
                    "name": "C#4",
                    "midi": 61,
                    "time": 229.1400920000007,
                    "velocity": 0.4330708661417323,
                    "duration": 0.13574650000001043
                },
                {
                    "name": "F4",
                    "midi": 65,
                    "time": 229.2758385000007,
                    "velocity": 0.4094488188976378,
                    "duration": 0.13574650000001043
                },
                {
                    "name": "G#4",
                    "midi": 68,
                    "time": 229.4115850000007,
                    "velocity": 0.4330708661417323,
                    "duration": 0.27149299999999243
                },
                {
                    "name": "C#2",
                    "midi": 37,
                    "time": 229.6830780000007,
                    "velocity": 0.3858267716535433,
                    "duration": 0.135746499999982
                },
                {
                    "name": "G#2",
                    "midi": 44,
                    "time": 229.8188245000007,
                    "velocity": 0.3779527559055118,
                    "duration": 0.13574650000001043
                },
                {
                    "name": "C#3",
                    "midi": 49,
                    "time": 229.9545710000007,
                    "velocity": 0.3937007874015748,
                    "duration": 0.13574650000001043
                },
                {
                    "name": "E3",
                    "midi": 52,
                    "time": 230.0903175000007,
                    "velocity": 0.3779527559055118,
                    "duration": 0.13574650000001043
                },
                {
                    "name": "C#4",
                    "midi": 61,
                    "time": 230.22606400000072,
                    "velocity": 0.3937007874015748,
                    "duration": 0.13574650000001043
                },
                {
                    "name": "E4",
                    "midi": 64,
                    "time": 230.36181050000073,
                    "velocity": 0.3779527559055118,
                    "duration": 0.13574650000001043
                },
                {
                    "name": "G#4",
                    "midi": 68,
                    "time": 230.49755700000074,
                    "velocity": 0.3937007874015748,
                    "duration": 0.27149299999999243
                },
                {
                    "name": "F#1",
                    "midi": 30,
                    "time": 230.76905000000073,
                    "velocity": 0.3858267716535433,
                    "duration": 0.27149300000002086
                },
                {
                    "name": "A#1",
                    "midi": 34,
                    "time": 230.90479650000074,
                    "velocity": 0.3937007874015748,
                    "duration": 0.13574650000001043
                },
                {
                    "name": "C#2",
                    "midi": 37,
                    "time": 231.04054300000075,
                    "velocity": 0.4015748031496063,
                    "duration": 0.13574650000001043
                },
                {
                    "name": "F#2",
                    "midi": 42,
                    "time": 231.17628950000076,
                    "velocity": 0.4094488188976378,
                    "duration": 0.13574650000001043
                },
                {
                    "name": "A#2",
                    "midi": 46,
                    "time": 231.31203600000077,
                    "velocity": 0.4094488188976378,
                    "duration": 0.13574650000001043
                },
                {
                    "name": "C#3",
                    "midi": 49,
                    "time": 231.44778250000078,
                    "velocity": 0.4094488188976378,
                    "duration": 0.13574650000001043
                },
                {
                    "name": "F#3",
                    "midi": 54,
                    "time": 231.5835290000008,
                    "velocity": 0.41732283464566927,
                    "duration": 0.13574650000001043
                },
                {
                    "name": "A#3",
                    "midi": 58,
                    "time": 231.7192755000008,
                    "velocity": 0.4330708661417323,
                    "duration": 0.13574650000001043
                },
                {
                    "name": "C#4",
                    "midi": 61,
                    "time": 231.85502200000082,
                    "velocity": 0.4409448818897638,
                    "duration": 0.27149299999999243
                },
                {
                    "name": "F#4",
                    "midi": 66,
                    "time": 231.9907685000008,
                    "velocity": 0.4409448818897638,
                    "duration": 0.13574650000001043
                },
                {
                    "name": "A#4",
                    "midi": 70,
                    "time": 232.1265150000008,
                    "velocity": 0.44881889763779526,
                    "duration": 0.13574650000001043
                },
                {
                    "name": "C#5",
                    "midi": 73,
                    "time": 232.26226150000082,
                    "velocity": 0.4645669291338583,
                    "duration": 0.13574650000003885
                },
                {
                    "name": "F#4",
                    "midi": 66,
                    "time": 232.2848859166675,
                    "velocity": 0.4015748031496063,
                    "duration": 0.24886858333334771
                },
                {
                    "name": "A#4",
                    "midi": 70,
                    "time": 232.33013475000084,
                    "velocity": 0.4015748031496063,
                    "duration": 0.20361975000000143
                },
                {
                    "name": "C#5",
                    "midi": 73,
                    "time": 232.37538358333418,
                    "velocity": 0.4015748031496063,
                    "duration": 0.15837091666665515
                },
                {
                    "name": "F#5",
                    "midi": 78,
                    "time": 232.39800800000086,
                    "velocity": 0.4645669291338583,
                    "duration": 0.135746499999982
                },
                {
                    "name": "B4",
                    "midi": 71,
                    "time": 232.94099400000084,
                    "velocity": 0.4645669291338583,
                    "duration": 0.27149299999999243
                },
                {
                    "name": "F#4",
                    "midi": 66,
                    "time": 233.07674050000082,
                    "velocity": 0.47244094488188976,
                    "duration": 0.13574650000001043
                },
                {
                    "name": "D#4",
                    "midi": 63,
                    "time": 233.21248700000083,
                    "velocity": 0.48031496062992124,
                    "duration": 0.13574650000001043
                },
                {
                    "name": "B3",
                    "midi": 59,
                    "time": 233.34823350000084,
                    "velocity": 0.48031496062992124,
                    "duration": 0.13574650000001043
                },
                {
                    "name": "F#3",
                    "midi": 54,
                    "time": 233.48398000000086,
                    "velocity": 0.4881889763779528,
                    "duration": 0.27149300000002086
                },
                {
                    "name": "D#3",
                    "midi": 51,
                    "time": 233.61972650000087,
                    "velocity": 0.4881889763779528,
                    "duration": 0.13574650000001043
                },
                {
                    "name": "B2",
                    "midi": 47,
                    "time": 233.75547300000088,
                    "velocity": 0.5039370078740157,
                    "duration": 0.13574650000001043
                },
                {
                    "name": "F#2",
                    "midi": 42,
                    "time": 233.8912195000009,
                    "velocity": 0.5196850393700787,
                    "duration": 0.13574650000001043
                },
                {
                    "name": "D#2",
                    "midi": 39,
                    "time": 234.0269660000009,
                    "velocity": 0.5196850393700787,
                    "duration": 0.27149300000002086
                },
                {
                    "name": "B1",
                    "midi": 35,
                    "time": 234.1627125000009,
                    "velocity": 0.5196850393700787,
                    "duration": 0.13574650000001043
                },
                {
                    "name": "F#1",
                    "midi": 30,
                    "time": 234.29845900000092,
                    "velocity": 0.5275590551181102,
                    "duration": 0.13574650000001043
                },
                {
                    "name": "D#1",
                    "midi": 27,
                    "time": 234.43420550000093,
                    "velocity": 0.5354330708661418,
                    "duration": 0.13574650000001043
                },
                {
                    "name": "A#3",
                    "midi": 58,
                    "time": 234.56995200000094,
                    "velocity": 0.5433070866141733,
                    "duration": 0.40723950000000286
                },
                {
                    "name": "D#4",
                    "midi": 63,
                    "time": 234.56995200000094,
                    "velocity": 0.5433070866141733,
                    "duration": 0.40723950000000286
                },
                {
                    "name": "G4",
                    "midi": 67,
                    "time": 234.56995200000094,
                    "velocity": 0.5433070866141733,
                    "duration": 0.40723950000000286
                },
                {
                    "name": "A#4",
                    "midi": 70,
                    "time": 234.56995200000094,
                    "velocity": 0.6141732283464567,
                    "duration": 0.40723950000000286
                },
                {
                    "name": "A#3",
                    "midi": 58,
                    "time": 235.11293800000095,
                    "velocity": 0.5275590551181102,
                    "duration": 0.13574650000001043
                },
                {
                    "name": "A#2",
                    "midi": 46,
                    "time": 235.11293800000095,
                    "velocity": 0.4645669291338583,
                    "duration": 0.13574650000001043
                },
                {
                    "name": "D#2",
                    "midi": 39,
                    "time": 235.38443100000097,
                    "velocity": 0.44881889763779526,
                    "duration": 0.13574650000001043
                },
                {
                    "name": "D#3",
                    "midi": 51,
                    "time": 235.38443100000097,
                    "velocity": 0.49606299212598426,
                    "duration": 0.13574650000001043
                },
                {
                    "name": "D#4",
                    "midi": 63,
                    "time": 235.655924000001,
                    "velocity": 0.6062992125984252,
                    "duration": 0.5429860000000133
                },
                {
                    "name": "C4",
                    "midi": 60,
                    "time": 235.655924000001,
                    "velocity": 0.5433070866141733,
                    "duration": 0.5429860000000133
                },
                {
                    "name": "G#3",
                    "midi": 56,
                    "time": 235.655924000001,
                    "velocity": 0.5433070866141733,
                    "duration": 0.5429860000000133
                },
                {
                    "name": "D#3",
                    "midi": 51,
                    "time": 235.655924000001,
                    "velocity": 0.5433070866141733,
                    "duration": 0.5429860000000133
                },
                {
                    "name": "D#2",
                    "midi": 39,
                    "time": 236.198910000001,
                    "velocity": 0.4645669291338583,
                    "duration": 0.135746499999982
                },
                {
                    "name": "D#3",
                    "midi": 51,
                    "time": 236.198910000001,
                    "velocity": 0.5196850393700787,
                    "duration": 0.135746499999982
                },
                {
                    "name": "G#1",
                    "midi": 32,
                    "time": 236.470403000001,
                    "velocity": 0.44881889763779526,
                    "duration": 0.13574650000001043
                },
                {
                    "name": "G#2",
                    "midi": 44,
                    "time": 236.470403000001,
                    "velocity": 0.49606299212598426,
                    "duration": 0.13574650000001043
                },
                {
                    "name": "D#2",
                    "midi": 39,
                    "time": 236.74189600000102,
                    "velocity": 0.5433070866141733,
                    "duration": 0.5429860000000133
                },
                {
                    "name": "A#2",
                    "midi": 46,
                    "time": 236.74189600000102,
                    "velocity": 0.5433070866141733,
                    "duration": 0.5429860000000133
                },
                {
                    "name": "D#3",
                    "midi": 51,
                    "time": 236.74189600000102,
                    "velocity": 0.6062992125984252,
                    "duration": 0.5429860000000133
                },
                {
                    "name": "A#1",
                    "midi": 34,
                    "time": 237.28488200000103,
                    "velocity": 0.4881889763779528,
                    "duration": 0.135746499999982
                },
                {
                    "name": "A#2",
                    "midi": 46,
                    "time": 237.28488200000103,
                    "velocity": 0.5511811023622047,
                    "duration": 0.135746499999982
                },
                {
                    "name": "D#1",
                    "midi": 27,
                    "time": 237.55637500000103,
                    "velocity": 0.4645669291338583,
                    "duration": 0.13574650000001043
                },
                {
                    "name": "D#2",
                    "midi": 39,
                    "time": 237.55637500000103,
                    "velocity": 0.5196850393700787,
                    "duration": 0.13574650000001043
                },
                {
                    "name": "A#1",
                    "midi": 34,
                    "time": 237.82786800000105,
                    "velocity": 0.4645669291338583,
                    "duration": 0.13574650000001043
                },
                {
                    "name": "A#2",
                    "midi": 46,
                    "time": 237.82786800000105,
                    "velocity": 0.5196850393700787,
                    "duration": 0.13574650000001043
                },
                {
                    "name": "A#3",
                    "midi": 58,
                    "time": 238.09936100000107,
                    "velocity": 0.4881889763779528,
                    "duration": 0.13574650000001043
                },
                {
                    "name": "A#2",
                    "midi": 46,
                    "time": 238.09936100000107,
                    "velocity": 0.4881889763779528,
                    "duration": 0.13574650000001043
                },
                {
                    "name": "D#2",
                    "midi": 39,
                    "time": 238.3708540000011,
                    "velocity": 0.5196850393700787,
                    "duration": 0.5429860000000133
                },
                {
                    "name": "D#3",
                    "midi": 51,
                    "time": 238.3708540000011,
                    "velocity": 0.5748031496062992,
                    "duration": 0.5429860000000133
                },
                {
                    "name": "D4",
                    "midi": 62,
                    "time": 238.9138400000011,
                    "velocity": 0.5669291338582677,
                    "duration": 0.5429859999999849
                },
                {
                    "name": "A#3",
                    "midi": 58,
                    "time": 238.9138400000011,
                    "velocity": 0.5039370078740157,
                    "duration": 0.5429859999999849
                },
                {
                    "name": "D#3",
                    "midi": 51,
                    "time": 238.9138400000011,
                    "velocity": 0.5039370078740157,
                    "duration": 0.5429859999999849
                },
                {
                    "name": "D#3",
                    "midi": 51,
                    "time": 239.4568260000011,
                    "velocity": 0.4881889763779528,
                    "duration": 0.5429860000000133
                },
                {
                    "name": "G#3",
                    "midi": 56,
                    "time": 239.4568260000011,
                    "velocity": 0.4881889763779528,
                    "duration": 0.5429860000000133
                },
                {
                    "name": "C4",
                    "midi": 60,
                    "time": 239.4568260000011,
                    "velocity": 0.5511811023622047,
                    "duration": 0.5429860000000133
                },
                {
                    "name": "D#2",
                    "midi": 39,
                    "time": 239.9998120000011,
                    "velocity": 0.4881889763779528,
                    "duration": 0.5429860000000133
                },
                {
                    "name": "A#2",
                    "midi": 46,
                    "time": 239.9998120000011,
                    "velocity": 0.4881889763779528,
                    "duration": 0.5429860000000133
                },
                {
                    "name": "D#3",
                    "midi": 51,
                    "time": 239.9998120000011,
                    "velocity": 0.5511811023622047,
                    "duration": 0.5429860000000133
                },
                {
                    "name": "A#1",
                    "midi": 34,
                    "time": 240.5427980000011,
                    "velocity": 0.5039370078740157,
                    "duration": 0.135746499999982
                },
                {
                    "name": "A#2",
                    "midi": 46,
                    "time": 240.5427980000011,
                    "velocity": 0.5669291338582677,
                    "duration": 0.135746499999982
                },
                {
                    "name": "D#2",
                    "midi": 39,
                    "time": 240.8142910000011,
                    "velocity": 0.5354330708661418,
                    "duration": 0.13574650000001043
                },
                {
                    "name": "D#1",
                    "midi": 27,
                    "time": 240.8142910000011,
                    "velocity": 0.47244094488188976,
                    "duration": 0.13574650000001043
                },
                {
                    "name": "C4",
                    "midi": 60,
                    "time": 241.08578400000113,
                    "velocity": 0.6062992125984252,
                    "duration": 0.5429860000000133
                },
                {
                    "name": "G3",
                    "midi": 55,
                    "time": 241.08578400000113,
                    "velocity": 0.5433070866141733,
                    "duration": 0.5429860000000133
                },
                {
                    "name": "D#3",
                    "midi": 51,
                    "time": 241.08578400000113,
                    "velocity": 0.5433070866141733,
                    "duration": 0.5429860000000133
                },
                {
                    "name": "C3",
                    "midi": 48,
                    "time": 241.08578400000113,
                    "velocity": 0.5433070866141733,
                    "duration": 0.5429860000000133
                },
                {
                    "name": "F2",
                    "midi": 41,
                    "time": 241.62877000000114,
                    "velocity": 0.4881889763779528,
                    "duration": 0.13574650000001043
                },
                {
                    "name": "F3",
                    "midi": 53,
                    "time": 241.62877000000114,
                    "velocity": 0.5511811023622047,
                    "duration": 0.13574650000001043
                },
                {
                    "name": "C2",
                    "midi": 36,
                    "time": 241.90026300000116,
                    "velocity": 0.4881889763779528,
                    "duration": 0.13574650000001043
                },
                {
                    "name": "C3",
                    "midi": 48,
                    "time": 241.90026300000116,
                    "velocity": 0.5511811023622047,
                    "duration": 0.13574650000001043
                },
                {
                    "name": "G2",
                    "midi": 43,
                    "time": 242.17175600000118,
                    "velocity": 0.5275590551181102,
                    "duration": 0.5429859999999849
                },
                {
                    "name": "A#2",
                    "midi": 46,
                    "time": 242.17175600000118,
                    "velocity": 0.5275590551181102,
                    "duration": 0.5429859999999849
                },
                {
                    "name": "D3",
                    "midi": 50,
                    "time": 242.17175600000118,
                    "velocity": 0.5275590551181102,
                    "duration": 0.5429859999999849
                },
                {
                    "name": "G3",
                    "midi": 55,
                    "time": 242.17175600000118,
                    "velocity": 0.5826771653543307,
                    "duration": 0.5429859999999849
                },
                {
                    "name": "C2",
                    "midi": 36,
                    "time": 242.71474200000117,
                    "velocity": 0.4645669291338583,
                    "duration": 0.13574650000001043
                },
                {
                    "name": "C3",
                    "midi": 48,
                    "time": 242.71474200000117,
                    "velocity": 0.5196850393700787,
                    "duration": 0.13574650000001043
                },
                {
                    "name": "G1",
                    "midi": 31,
                    "time": 242.9862350000012,
                    "velocity": 0.4409448818897638,
                    "duration": 0.13574650000001043
                },
                {
                    "name": "G2",
                    "midi": 43,
                    "time": 242.9862350000012,
                    "velocity": 0.4881889763779528,
                    "duration": 0.13574650000001043
                },
                {
                    "name": "D1",
                    "midi": 26,
                    "time": 243.2577280000012,
                    "velocity": 0.4645669291338583,
                    "duration": 0.13574650000001043
                },
                {
                    "name": "D2",
                    "midi": 38,
                    "time": 243.2577280000012,
                    "velocity": 0.5275590551181102,
                    "duration": 0.13574650000001043
                },
                {
                    "name": "D3",
                    "midi": 50,
                    "time": 243.52922100000123,
                    "velocity": 0.48031496062992124,
                    "duration": 0.13574650000001043
                },
                {
                    "name": "D2",
                    "midi": 38,
                    "time": 243.52922100000123,
                    "velocity": 0.4330708661417323,
                    "duration": 0.13574650000001043
                },
                {
                    "name": "G1",
                    "midi": 31,
                    "time": 243.80071400000125,
                    "velocity": 0.49606299212598426,
                    "duration": 0.5429859999999849
                },
                {
                    "name": "G2",
                    "midi": 43,
                    "time": 243.80071400000125,
                    "velocity": 0.5590551181102362,
                    "duration": 0.5429859999999849
                },
                {
                    "name": "F#3",
                    "midi": 54,
                    "time": 244.34370000000123,
                    "velocity": 0.5511811023622047,
                    "duration": 0.5429859999999849
                },
                {
                    "name": "G2",
                    "midi": 43,
                    "time": 244.34370000000123,
                    "velocity": 0.4881889763779528,
                    "duration": 0.5429859999999849
                },
                {
                    "name": "G2",
                    "midi": 43,
                    "time": 244.88668600000122,
                    "velocity": 0.4566929133858268,
                    "duration": 0.4751127500000223
                },
                {
                    "name": "F3",
                    "midi": 53,
                    "time": 244.88668600000122,
                    "velocity": 0.5039370078740157,
                    "duration": 0.4751127500000223
                },
                {
                    "name": "D#3",
                    "midi": 51,
                    "time": 245.42967200000123,
                    "velocity": 0.4094488188976378,
                    "duration": 0.5429860000000133
                },
                {
                    "name": "G3",
                    "midi": 55,
                    "time": 245.42967200000123,
                    "velocity": 0.4094488188976378,
                    "duration": 0.5429860000000133
                },
                {
                    "name": "A#3",
                    "midi": 58,
                    "time": 245.42967200000123,
                    "velocity": 0.4094488188976378,
                    "duration": 0.5429860000000133
                },
                {
                    "name": "D#4",
                    "midi": 63,
                    "time": 245.42967200000123,
                    "velocity": 0.4645669291338583,
                    "duration": 0.5429860000000133
                },
                {
                    "name": "A#3",
                    "midi": 58,
                    "time": 245.97265800000125,
                    "velocity": 0.41732283464566927,
                    "duration": 0.27149299999999243
                },
                {
                    "name": "A#2",
                    "midi": 46,
                    "time": 245.97265800000125,
                    "velocity": 0.3779527559055118,
                    "duration": 0.27149299999999243
                },
                {
                    "name": "D#2",
                    "midi": 39,
                    "time": 246.24415100000124,
                    "velocity": 0.41732283464566927,
                    "duration": 0.27149299999999243
                },
                {
                    "name": "D#3",
                    "midi": 51,
                    "time": 246.24415100000124,
                    "velocity": 0.47244094488188976,
                    "duration": 0.27149299999999243
                },
                {
                    "name": "D#3",
                    "midi": 51,
                    "time": 246.51564400000123,
                    "velocity": 0.4645669291338583,
                    "duration": 0.5429860000000133
                },
                {
                    "name": "G#3",
                    "midi": 56,
                    "time": 246.51564400000123,
                    "velocity": 0.5196850393700787,
                    "duration": 0.5429860000000133
                },
                {
                    "name": "G#2",
                    "midi": 44,
                    "time": 246.51564400000123,
                    "velocity": 0.4645669291338583,
                    "duration": 0.5429860000000133
                },
                {
                    "name": "D#2",
                    "midi": 39,
                    "time": 247.05863000000124,
                    "velocity": 0.3779527559055118,
                    "duration": 0.27149299999999243
                },
                {
                    "name": "D#3",
                    "midi": 51,
                    "time": 247.05863000000124,
                    "velocity": 0.41732283464566927,
                    "duration": 0.27149299999999243
                },
                {
                    "name": "G#1",
                    "midi": 32,
                    "time": 247.33012300000124,
                    "velocity": 0.3858267716535433,
                    "duration": 0.27149299999999243
                },
                {
                    "name": "G#2",
                    "midi": 44,
                    "time": 247.33012300000124,
                    "velocity": 0.4409448818897638,
                    "duration": 0.27149299999999243
                },
                {
                    "name": "D#2",
                    "midi": 39,
                    "time": 247.60161600000123,
                    "velocity": 0.3937007874015748,
                    "duration": 0.5429859999999849
                },
                {
                    "name": "A#2",
                    "midi": 46,
                    "time": 247.60161600000123,
                    "velocity": 0.3937007874015748,
                    "duration": 0.5429859999999849
                },
                {
                    "name": "D#3",
                    "midi": 51,
                    "time": 247.60161600000123,
                    "velocity": 0.44881889763779526,
                    "duration": 0.5429859999999849
                },
                {
                    "name": "A#1",
                    "midi": 34,
                    "time": 248.1446020000012,
                    "velocity": 0.4094488188976378,
                    "duration": 0.27149299999999243
                },
                {
                    "name": "A#2",
                    "midi": 46,
                    "time": 248.1446020000012,
                    "velocity": 0.4645669291338583,
                    "duration": 0.27149299999999243
                },
                {
                    "name": "D#1",
                    "midi": 27,
                    "time": 248.4160950000012,
                    "velocity": 0.3937007874015748,
                    "duration": 0.27149299999999243
                },
                {
                    "name": "D#2",
                    "midi": 39,
                    "time": 248.4160950000012,
                    "velocity": 0.44881889763779526,
                    "duration": 0.27149299999999243
                },
                {
                    "name": "A#1",
                    "midi": 34,
                    "time": 248.6875880000012,
                    "velocity": 0.3937007874015748,
                    "duration": 0.27149299999999243
                },
                {
                    "name": "A#2",
                    "midi": 46,
                    "time": 248.6875880000012,
                    "velocity": 0.44881889763779526,
                    "duration": 0.27149299999999243
                },
                {
                    "name": "A#3",
                    "midi": 58,
                    "time": 248.9590810000012,
                    "velocity": 0.4409448818897638,
                    "duration": 0.27149299999999243
                },
                {
                    "name": "A#2",
                    "midi": 46,
                    "time": 248.9590810000012,
                    "velocity": 0.3858267716535433,
                    "duration": 0.27149299999999243
                },
                {
                    "name": "D#2",
                    "midi": 39,
                    "time": 249.23057400000118,
                    "velocity": 0.4566929133858268,
                    "duration": 0.5429859999999849
                },
                {
                    "name": "D#3",
                    "midi": 51,
                    "time": 249.23057400000118,
                    "velocity": 0.5039370078740157,
                    "duration": 0.5429859999999849
                },
                {
                    "name": "D#2",
                    "midi": 39,
                    "time": 249.77356000000117,
                    "velocity": 0.4645669291338583,
                    "duration": 0.5429859999999849
                },
                {
                    "name": "C#2",
                    "midi": 37,
                    "time": 249.77356000000117,
                    "velocity": 0.4645669291338583,
                    "duration": 0.5429859999999849
                },
                {
                    "name": "C#3",
                    "midi": 49,
                    "time": 249.77356000000117,
                    "velocity": 0.5196850393700787,
                    "duration": 0.5429859999999849
                },
                {
                    "name": "A#1",
                    "midi": 34,
                    "time": 250.31654600000115,
                    "velocity": 0.4881889763779528,
                    "duration": 0.47511274999999387
                },
                {
                    "name": "D#2",
                    "midi": 39,
                    "time": 250.31654600000115,
                    "velocity": 0.4881889763779528,
                    "duration": 0.47511274999999387
                },
                {
                    "name": "A#2",
                    "midi": 46,
                    "time": 250.31654600000115,
                    "velocity": 0.5511811023622047,
                    "duration": 0.47511274999999387
                },
                {
                    "name": "G#1",
                    "midi": 32,
                    "time": 250.85953200000114,
                    "velocity": 0.5669291338582677,
                    "duration": 0.5429860000000133
                },
                {
                    "name": "D#2",
                    "midi": 39,
                    "time": 250.85953200000114,
                    "velocity": 0.5669291338582677,
                    "duration": 0.5429860000000133
                },
                {
                    "name": "G#2",
                    "midi": 44,
                    "time": 250.85953200000114,
                    "velocity": 0.6377952755905512,
                    "duration": 0.5429860000000133
                },
                {
                    "name": "B1",
                    "midi": 35,
                    "time": 251.40251800000115,
                    "velocity": 0.5275590551181102,
                    "duration": 0.135746499999982
                },
                {
                    "name": "B2",
                    "midi": 47,
                    "time": 251.40251800000115,
                    "velocity": 0.5826771653543307,
                    "duration": 0.135746499999982
                },
                {
                    "name": "G#2",
                    "midi": 44,
                    "time": 251.67401100000114,
                    "velocity": 0.5669291338582677,
                    "duration": 0.13574650000001043
                },
                {
                    "name": "G#1",
                    "midi": 32,
                    "time": 251.67401100000114,
                    "velocity": 0.5039370078740157,
                    "duration": 0.13574650000001043
                },
                {
                    "name": "B2",
                    "midi": 47,
                    "time": 251.94550400000116,
                    "velocity": 0.5511811023622047,
                    "duration": 0.5429859999999849
                },
                {
                    "name": "E2",
                    "midi": 40,
                    "time": 251.94550400000116,
                    "velocity": 0.5511811023622047,
                    "duration": 0.5429859999999849
                },
                {
                    "name": "G#2",
                    "midi": 44,
                    "time": 251.94550400000116,
                    "velocity": 0.5511811023622047,
                    "duration": 0.5429859999999849
                },
                {
                    "name": "E3",
                    "midi": 52,
                    "time": 251.94550400000116,
                    "velocity": 0.6220472440944882,
                    "duration": 0.5429859999999849
                },
                {
                    "name": "G#2",
                    "midi": 44,
                    "time": 252.48849000000115,
                    "velocity": 0.4881889763779528,
                    "duration": 0.135746499999982
                },
                {
                    "name": "G#3",
                    "midi": 56,
                    "time": 252.48849000000115,
                    "velocity": 0.5511811023622047,
                    "duration": 0.135746499999982
                },
                {
                    "name": "E2",
                    "midi": 40,
                    "time": 252.75998300000114,
                    "velocity": 0.47244094488188976,
                    "duration": 0.13574650000001043
                },
                {
                    "name": "E3",
                    "midi": 52,
                    "time": 252.75998300000114,
                    "velocity": 0.5354330708661418,
                    "duration": 0.13574650000001043
                },
                {
                    "name": "C#4",
                    "midi": 61,
                    "time": 253.03147600000116,
                    "velocity": 0.6062992125984252,
                    "duration": 0.5429860000000133
                },
                {
                    "name": "G#3",
                    "midi": 56,
                    "time": 253.03147600000116,
                    "velocity": 0.5433070866141733,
                    "duration": 0.5429860000000133
                },
                {
                    "name": "E3",
                    "midi": 52,
                    "time": 253.03147600000116,
                    "velocity": 0.5433070866141733,
                    "duration": 0.5429860000000133
                },
                {
                    "name": "C#3",
                    "midi": 49,
                    "time": 253.03147600000116,
                    "velocity": 0.5433070866141733,
                    "duration": 0.5429860000000133
                },
                {
                    "name": "E2",
                    "midi": 40,
                    "time": 253.57446200000118,
                    "velocity": 0.4645669291338583,
                    "duration": 0.13574650000001043
                },
                {
                    "name": "E3",
                    "midi": 52,
                    "time": 253.57446200000118,
                    "velocity": 0.5196850393700787,
                    "duration": 0.13574650000001043
                },
                {
                    "name": "C#2",
                    "midi": 37,
                    "time": 253.8459550000012,
                    "velocity": 0.4645669291338583,
                    "duration": 0.13574650000001043
                },
                {
                    "name": "C#3",
                    "midi": 49,
                    "time": 253.8459550000012,
                    "velocity": 0.5196850393700787,
                    "duration": 0.13574650000001043
                },
                {
                    "name": "G#2",
                    "midi": 44,
                    "time": 254.11744800000122,
                    "velocity": 0.5039370078740157,
                    "duration": 0.5429859999999849
                },
                {
                    "name": "D3",
                    "midi": 50,
                    "time": 254.11744800000122,
                    "velocity": 0.5039370078740157,
                    "duration": 0.5429859999999849
                },
                {
                    "name": "F3",
                    "midi": 53,
                    "time": 254.11744800000122,
                    "velocity": 0.5039370078740157,
                    "duration": 0.5429859999999849
                },
                {
                    "name": "G#3",
                    "midi": 56,
                    "time": 254.11744800000122,
                    "velocity": 0.5669291338582677,
                    "duration": 0.5429859999999849
                },
                {
                    "name": "F#2",
                    "midi": 42,
                    "time": 254.6604340000012,
                    "velocity": 0.5275590551181102,
                    "duration": 0.13574650000001043
                },
                {
                    "name": "F#3",
                    "midi": 54,
                    "time": 254.6604340000012,
                    "velocity": 0.5826771653543307,
                    "duration": 0.13574650000001043
                },
                {
                    "name": "F3",
                    "midi": 53,
                    "time": 254.93192700000122,
                    "velocity": 0.5590551181102362,
                    "duration": 0.13574650000001043
                },
                {
                    "name": "F2",
                    "midi": 41,
                    "time": 254.93192700000122,
                    "velocity": 0.49606299212598426,
                    "duration": 0.13574650000001043
                },
                {
                    "name": "A#2",
                    "midi": 46,
                    "time": 255.20342000000124,
                    "velocity": 0.5275590551181102,
                    "duration": 0.40723950000000286
                },
                {
                    "name": "A#3",
                    "midi": 58,
                    "time": 255.20342000000124,
                    "velocity": 0.5826771653543307,
                    "duration": 0.40723950000000286
                },
                {
                    "name": "A#1",
                    "midi": 34,
                    "time": 255.74640600000126,
                    "velocity": 0.5275590551181102,
                    "duration": 0.4072395000000313
                },
                {
                    "name": "A#2",
                    "midi": 46,
                    "time": 255.74640600000126,
                    "velocity": 0.5826771653543307,
                    "duration": 0.4072395000000313
                },
                {
                    "name": "D#2",
                    "midi": 39,
                    "time": 256.28939200000127,
                    "velocity": 0.4330708661417323,
                    "duration": 0.135746499999982
                },
                {
                    "name": "A#2",
                    "midi": 46,
                    "time": 256.42513850000125,
                    "velocity": 0.4094488188976378,
                    "duration": 0.135746499999982
                },
                {
                    "name": "D#3",
                    "midi": 51,
                    "time": 256.56088500000124,
                    "velocity": 0.4330708661417323,
                    "duration": 0.135746499999982
                },
                {
                    "name": "F#3",
                    "midi": 54,
                    "time": 256.6966315000012,
                    "velocity": 0.4094488188976378,
                    "duration": 0.135746499999982
                },
                {
                    "name": "A#2",
                    "midi": 46,
                    "time": 256.8323780000012,
                    "velocity": 0.31496062992125984,
                    "duration": 0.5429859999999849
                },
                {
                    "name": "D3",
                    "midi": 50,
                    "time": 256.8323780000012,
                    "velocity": 0.31496062992125984,
                    "duration": 0.5429859999999849
                },
                {
                    "name": "G#3",
                    "midi": 56,
                    "time": 256.8323780000012,
                    "velocity": 0.3779527559055118,
                    "duration": 0.5429859999999849
                },
                {
                    "name": "D#2",
                    "midi": 39,
                    "time": 257.3753640000012,
                    "velocity": 0.41732283464566927,
                    "duration": 0.135746499999982
                },
                {
                    "name": "A#2",
                    "midi": 46,
                    "time": 257.51111050000117,
                    "velocity": 0.4094488188976378,
                    "duration": 0.135746499999982
                },
                {
                    "name": "D#3",
                    "midi": 51,
                    "time": 257.64685700000115,
                    "velocity": 0.41732283464566927,
                    "duration": 0.135746499999982
                },
                {
                    "name": "F#3",
                    "midi": 54,
                    "time": 257.78260350000113,
                    "velocity": 0.41732283464566927,
                    "duration": 0.135746499999982
                },
                {
                    "name": "A#2",
                    "midi": 46,
                    "time": 257.9183500000011,
                    "velocity": 0.31496062992125984,
                    "duration": 0.5429859999999849
                },
                {
                    "name": "D3",
                    "midi": 50,
                    "time": 257.9183500000011,
                    "velocity": 0.31496062992125984,
                    "duration": 0.5429859999999849
                },
                {
                    "name": "G#3",
                    "midi": 56,
                    "time": 257.9183500000011,
                    "velocity": 0.3779527559055118,
                    "duration": 0.5429859999999849
                },
                {
                    "name": "D#2",
                    "midi": 39,
                    "time": 258.4613360000011,
                    "velocity": 0.4094488188976378,
                    "duration": 0.271492999999964
                },
                {
                    "name": "B2",
                    "midi": 47,
                    "time": 258.5970825000011,
                    "velocity": 0.3937007874015748,
                    "duration": 0.135746499999982
                },
                {
                    "name": "D#3",
                    "midi": 51,
                    "time": 258.73282900000106,
                    "velocity": 0.4094488188976378,
                    "duration": 0.135746499999982
                },
                {
                    "name": "F#3",
                    "midi": 54,
                    "time": 258.86857550000104,
                    "velocity": 0.3937007874015748,
                    "duration": 0.135746499999982
                },
                {
                    "name": "C3",
                    "midi": 48,
                    "time": 259.004322000001,
                    "velocity": 0.31496062992125984,
                    "duration": 0.5429860000000417
                },
                {
                    "name": "D#3",
                    "midi": 51,
                    "time": 259.004322000001,
                    "velocity": 0.31496062992125984,
                    "duration": 0.5429860000000417
                },
                {
                    "name": "A3",
                    "midi": 57,
                    "time": 259.004322000001,
                    "velocity": 0.3779527559055118,
                    "duration": 0.5429860000000417
                },
                {
                    "name": "D#2",
                    "midi": 39,
                    "time": 259.54730800000107,
                    "velocity": 0.4094488188976378,
                    "duration": 0.271492999999964
                },
                {
                    "name": "C3",
                    "midi": 48,
                    "time": 259.68305450000105,
                    "velocity": 0.4015748031496063,
                    "duration": 0.135746499999982
                },
                {
                    "name": "D#3",
                    "midi": 51,
                    "time": 259.81880100000103,
                    "velocity": 0.4094488188976378,
                    "duration": 0.135746499999982
                },
                {
                    "name": "A3",
                    "midi": 57,
                    "time": 259.954547500001,
                    "velocity": 0.3937007874015748,
                    "duration": 0.135746499999982
                },
                {
                    "name": "D#3",
                    "midi": 51,
                    "time": 260.090294000001,
                    "velocity": 0.3228346456692913,
                    "duration": 0.5429859999999849
                },
                {
                    "name": "F#3",
                    "midi": 54,
                    "time": 260.090294000001,
                    "velocity": 0.3228346456692913,
                    "duration": 0.5429859999999849
                },
                {
                    "name": "C4",
                    "midi": 60,
                    "time": 260.090294000001,
                    "velocity": 0.3858267716535433,
                    "duration": 0.5429859999999849
                },
                {
                    "name": "A#1",
                    "midi": 34,
                    "time": 260.633280000001,
                    "velocity": 0.3858267716535433,
                    "duration": 0.5429860000000417
                },
                {
                    "name": "D#2",
                    "midi": 39,
                    "time": 260.633280000001,
                    "velocity": 0.3858267716535433,
                    "duration": 0.5429860000000417
                },
                {
                    "name": "F#2",
                    "midi": 42,
                    "time": 260.633280000001,
                    "velocity": 0.4409448818897638,
                    "duration": 0.5429860000000417
                },
                {
                    "name": "A#2",
                    "midi": 46,
                    "time": 260.633280000001,
                    "velocity": 0.4409448818897638,
                    "duration": 0.5429860000000417
                },
                {
                    "name": "A#2",
                    "midi": 46,
                    "time": 261.176266000001,
                    "velocity": 0.3858267716535433,
                    "duration": 0.5429859999999849
                },
                {
                    "name": "F3",
                    "midi": 53,
                    "time": 261.176266000001,
                    "velocity": 0.3858267716535433,
                    "duration": 0.5429859999999849
                },
                {
                    "name": "G#3",
                    "midi": 56,
                    "time": 261.176266000001,
                    "velocity": 0.4409448818897638,
                    "duration": 0.5429859999999849
                },
                {
                    "name": "A#3",
                    "midi": 58,
                    "time": 261.176266000001,
                    "velocity": 0.4409448818897638,
                    "duration": 0.5429859999999849
                },
                {
                    "name": "B1",
                    "midi": 35,
                    "time": 261.719252000001,
                    "velocity": 0.36220472440944884,
                    "duration": 0.135746499999982
                },
                {
                    "name": "F#2",
                    "midi": 42,
                    "time": 261.854998500001,
                    "velocity": 0.3543307086614173,
                    "duration": 0.135746499999982
                },
                {
                    "name": "B2",
                    "midi": 47,
                    "time": 261.99074500000097,
                    "velocity": 0.36220472440944884,
                    "duration": 0.135746499999982
                },
                {
                    "name": "D#3",
                    "midi": 51,
                    "time": 262.12649150000095,
                    "velocity": 0.3543307086614173,
                    "duration": 0.135746499999982
                },
                {
                    "name": "B2",
                    "midi": 47,
                    "time": 262.26223800000093,
                    "velocity": 0.2677165354330709,
                    "duration": 0.5429859999999849
                },
                {
                    "name": "E3",
                    "midi": 52,
                    "time": 262.26223800000093,
                    "velocity": 0.2677165354330709,
                    "duration": 0.5429859999999849
                },
                {
                    "name": "A#3",
                    "midi": 58,
                    "time": 262.26223800000093,
                    "velocity": 0.31496062992125984,
                    "duration": 0.5429859999999849
                },
                {
                    "name": "B1",
                    "midi": 35,
                    "time": 262.8052240000009,
                    "velocity": 0.36220472440944884,
                    "duration": 0.135746499999982
                },
                {
                    "name": "F#2",
                    "midi": 42,
                    "time": 262.9409705000009,
                    "velocity": 0.3543307086614173,
                    "duration": 0.135746499999982
                },
                {
                    "name": "B2",
                    "midi": 47,
                    "time": 263.0767170000009,
                    "velocity": 0.36220472440944884,
                    "duration": 0.135746499999982
                },
                {
                    "name": "D#3",
                    "midi": 51,
                    "time": 263.21246350000087,
                    "velocity": 0.3543307086614173,
                    "duration": 0.13574650000003885
                },
                {
                    "name": "B2",
                    "midi": 47,
                    "time": 263.3482100000009,
                    "velocity": 0.25984251968503935,
                    "duration": 0.5429859999999849
                },
                {
                    "name": "E3",
                    "midi": 52,
                    "time": 263.3482100000009,
                    "velocity": 0.25984251968503935,
                    "duration": 0.5429859999999849
                },
                {
                    "name": "A#3",
                    "midi": 58,
                    "time": 263.3482100000009,
                    "velocity": 0.30708661417322836,
                    "duration": 0.5429859999999849
                },
                {
                    "name": "B1",
                    "midi": 35,
                    "time": 263.8911960000009,
                    "velocity": 0.3228346456692913,
                    "duration": 0.135746499999982
                },
                {
                    "name": "F#2",
                    "midi": 42,
                    "time": 264.02694250000087,
                    "velocity": 0.30708661417322836,
                    "duration": 0.135746499999982
                },
                {
                    "name": "B2",
                    "midi": 47,
                    "time": 264.16268900000085,
                    "velocity": 0.3228346456692913,
                    "duration": 0.135746499999982
                },
                {
                    "name": "D#3",
                    "midi": 51,
                    "time": 264.29843550000083,
                    "velocity": 0.30708661417322836,
                    "duration": 0.6787325000000237
                },
                {
                    "name": "C3",
                    "midi": 48,
                    "time": 264.4341820000009,
                    "velocity": 0.25984251968503935,
                    "duration": 0.5429859999999849
                },
                {
                    "name": "A3",
                    "midi": 57,
                    "time": 264.4341820000009,
                    "velocity": 0.30708661417322836,
                    "duration": 0.5429859999999849
                },
                {
                    "name": "F1",
                    "midi": 29,
                    "time": 264.97716800000086,
                    "velocity": 0.3228346456692913,
                    "duration": 0.135746499999982
                },
                {
                    "name": "F2",
                    "midi": 41,
                    "time": 265.11291450000084,
                    "velocity": 0.31496062992125984,
                    "duration": 0.135746499999982
                },
                {
                    "name": "A2",
                    "midi": 45,
                    "time": 265.2486610000008,
                    "velocity": 0.3228346456692913,
                    "duration": 0.135746499999982
                },
                {
                    "name": "C3",
                    "midi": 48,
                    "time": 265.3844075000008,
                    "velocity": 0.31496062992125984,
                    "duration": 0.6787325000000806
                },
                {
                    "name": "D#3",
                    "midi": 51,
                    "time": 265.52015400000084,
                    "velocity": 0.2992125984251969,
                    "duration": 0.5429860000000417
                },
                {
                    "name": "F2",
                    "midi": 41,
                    "time": 265.52015400000084,
                    "velocity": 0.25196850393700787,
                    "duration": 0.5429860000000417
                },
                {
                    "name": "A#1",
                    "midi": 34,
                    "time": 266.0631400000009,
                    "velocity": 0.44881889763779526,
                    "duration": 0.5429859999999849
                },
                {
                    "name": "D#2",
                    "midi": 39,
                    "time": 266.0631400000009,
                    "velocity": 0.44881889763779526,
                    "duration": 0.5429859999999849
                },
                {
                    "name": "F#2",
                    "midi": 42,
                    "time": 266.0631400000009,
                    "velocity": 0.44881889763779526,
                    "duration": 0.5429859999999849
                },
                {
                    "name": "A#2",
                    "midi": 46,
                    "time": 266.0631400000009,
                    "velocity": 0.5039370078740157,
                    "duration": 0.5429859999999849
                },
                {
                    "name": "A#2",
                    "midi": 46,
                    "time": 266.60612600000087,
                    "velocity": 0.4251968503937008,
                    "duration": 0.542985999999928
                },
                {
                    "name": "D#3",
                    "midi": 51,
                    "time": 266.60612600000087,
                    "velocity": 0.4251968503937008,
                    "duration": 0.542985999999928
                },
                {
                    "name": "G#3",
                    "midi": 56,
                    "time": 266.60612600000087,
                    "velocity": 0.4251968503937008,
                    "duration": 0.542985999999928
                },
                {
                    "name": "B3",
                    "midi": 59,
                    "time": 266.60612600000087,
                    "velocity": 0.48031496062992124,
                    "duration": 0.542985999999928
                },
                {
                    "name": "A#2",
                    "midi": 46,
                    "time": 267.1491120000008,
                    "velocity": 0.4094488188976378,
                    "duration": 0.5429860000000417
                },
                {
                    "name": "F3",
                    "midi": 53,
                    "time": 267.1491120000008,
                    "velocity": 0.4094488188976378,
                    "duration": 0.5429860000000417
                },
                {
                    "name": "C4",
                    "midi": 60,
                    "time": 267.1491120000008,
                    "velocity": 0.4645669291338583,
                    "duration": 0.5429860000000417
                },
                {
                    "name": "A#1",
                    "midi": 34,
                    "time": 267.69209800000084,
                    "velocity": 0.4330708661417323,
                    "duration": 0.542985999999928
                },
                {
                    "name": "A#2",
                    "midi": 46,
                    "time": 267.69209800000084,
                    "velocity": 0.4330708661417323,
                    "duration": 0.542985999999928
                },
                {
                    "name": "D#2",
                    "midi": 39,
                    "time": 268.16721075000083,
                    "velocity": 0.2125984251968504,
                    "duration": 0.15837091666662673
                },
                {
                    "name": "F#2",
                    "midi": 42,
                    "time": 268.1898351666675,
                    "velocity": 0.2125984251968504,
                    "duration": 0.135746499999982
                },
                {
                    "name": "A#2",
                    "midi": 46,
                    "time": 268.2124595833341,
                    "velocity": 0.2047244094488189,
                    "duration": 0.11312208333333729
                },
                {
                    "name": "D#3",
                    "midi": 51,
                    "time": 268.23508400000077,
                    "velocity": 0.4094488188976378,
                    "duration": 0.09049766666669257
                },
                {
                    "name": "D3",
                    "midi": 50,
                    "time": 268.41607933333415,
                    "velocity": 0.29133858267716534,
                    "duration": 0.09049766666669257
                },
                {
                    "name": "D#3",
                    "midi": 51,
                    "time": 268.59707466666754,
                    "velocity": 0.28346456692913385,
                    "duration": 0.09049766666669257
                },
                {
                    "name": "D#2",
                    "midi": 39,
                    "time": 268.7101967500009,
                    "velocity": 0.2047244094488189,
                    "duration": 0.15837091666662673
                },
                {
                    "name": "G#2",
                    "midi": 44,
                    "time": 268.7328211666675,
                    "velocity": 0.2047244094488189,
                    "duration": 0.135746499999982
                },
                {
                    "name": "B2",
                    "midi": 47,
                    "time": 268.75544558333416,
                    "velocity": 0.2047244094488189,
                    "duration": 0.11312208333333729
                },
                {
                    "name": "F3",
                    "midi": 53,
                    "time": 268.7780700000008,
                    "velocity": 0.28346456692913385,
                    "duration": 0.09049766666669257
                },
                {
                    "name": "D#3",
                    "midi": 51,
                    "time": 268.9590653333342,
                    "velocity": 0.2755905511811024,
                    "duration": 0.09049766666669257
                },
                {
                    "name": "D3",
                    "midi": 50,
                    "time": 269.1400606666676,
                    "velocity": 0.2755905511811024,
                    "duration": 0.09049766666669257
                },
                {
                    "name": "D#2",
                    "midi": 39,
                    "time": 269.2758071666676,
                    "velocity": 0.2204724409448819,
                    "duration": 0.135746499999982
                },
                {
                    "name": "A#2",
                    "midi": 46,
                    "time": 269.29843158333426,
                    "velocity": 0.2204724409448819,
                    "duration": 0.11312208333333729
                },
                {
                    "name": "F#3",
                    "midi": 54,
                    "time": 269.3210560000009,
                    "velocity": 0.2992125984251969,
                    "duration": 0.09049766666669257
                },
                {
                    "name": "D3",
                    "midi": 50,
                    "time": 269.5020513333343,
                    "velocity": 0.29133858267716534,
                    "duration": 0.09049766666669257
                },
                {
                    "name": "F3",
                    "midi": 53,
                    "time": 269.5020513333343,
                    "velocity": 0.29133858267716534,
                    "duration": 0.09049766666669257
                },
                {
                    "name": "D#3",
                    "midi": 51,
                    "time": 269.6830466666677,
                    "velocity": 0.29133858267716534,
                    "duration": 0.09049766666669257
                },
                {
                    "name": "F#3",
                    "midi": 54,
                    "time": 269.6830466666677,
                    "velocity": 0.29133858267716534,
                    "duration": 0.09049766666669257
                },
                {
                    "name": "D#2",
                    "midi": 39,
                    "time": 269.8187931666677,
                    "velocity": 0.2204724409448819,
                    "duration": 0.135746499999982
                },
                {
                    "name": "B2",
                    "midi": 47,
                    "time": 269.84141758333436,
                    "velocity": 0.2204724409448819,
                    "duration": 0.11312208333333729
                },
                {
                    "name": "G#3",
                    "midi": 56,
                    "time": 269.864042000001,
                    "velocity": 0.29133858267716534,
                    "duration": 0.09049766666669257
                },
                {
                    "name": "F#3",
                    "midi": 54,
                    "time": 270.0450373333344,
                    "velocity": 0.28346456692913385,
                    "duration": 0.09049766666669257
                },
                {
                    "name": "D#3",
                    "midi": 51,
                    "time": 270.0450373333344,
                    "velocity": 0.28346456692913385,
                    "duration": 0.09049766666669257
                },
                {
                    "name": "F3",
                    "midi": 53,
                    "time": 270.2260326666678,
                    "velocity": 0.28346456692913385,
                    "duration": 0.09049766666669257
                },
                {
                    "name": "D3",
                    "midi": 50,
                    "time": 270.2260326666678,
                    "velocity": 0.28346456692913385,
                    "duration": 0.09049766666669257
                },
                {
                    "name": "D#3",
                    "midi": 51,
                    "time": 270.3391547500011,
                    "velocity": 0.23622047244094488,
                    "duration": 0.15837091666662673
                },
                {
                    "name": "F#3",
                    "midi": 54,
                    "time": 270.36177916666776,
                    "velocity": 0.23622047244094488,
                    "duration": 0.135746499999982
                },
                {
                    "name": "A#3",
                    "midi": 58,
                    "time": 270.3844035833344,
                    "velocity": 0.23622047244094488,
                    "duration": 0.11312208333333729
                },
                {
                    "name": "D#3",
                    "midi": 51,
                    "time": 270.8821407500011,
                    "velocity": 0.2440944881889764,
                    "duration": 0.15837091666662673
                },
                {
                    "name": "G#3",
                    "midi": 56,
                    "time": 270.90476516666774,
                    "velocity": 0.2440944881889764,
                    "duration": 0.135746499999982
                },
                {
                    "name": "B3",
                    "midi": 59,
                    "time": 270.9273895833344,
                    "velocity": 0.2440944881889764,
                    "duration": 0.11312208333333729
                },
                {
                    "name": "D#3",
                    "midi": 51,
                    "time": 271.44775116666773,
                    "velocity": 0.2755905511811024,
                    "duration": 0.135746499999982
                },
                {
                    "name": "A#3",
                    "midi": 58,
                    "time": 271.4703755833344,
                    "velocity": 0.29133858267716534,
                    "duration": 0.11312208333333729
                },
                {
                    "name": "D#3",
                    "midi": 51,
                    "time": 271.9907371666677,
                    "velocity": 0.2755905511811024,
                    "duration": 0.135746499999982
                },
                {
                    "name": "B3",
                    "midi": 59,
                    "time": 272.01336158333436,
                    "velocity": 0.2755905511811024,
                    "duration": 0.11312208333333729
                },
                {
                    "name": "D#4",
                    "midi": 63,
                    "time": 272.51109875000105,
                    "velocity": 0.31496062992125984,
                    "duration": 0.15837091666662673
                },
                {
                    "name": "F#4",
                    "midi": 66,
                    "time": 272.5337231666677,
                    "velocity": 0.31496062992125984,
                    "duration": 0.135746499999982
                },
                {
                    "name": "A#4",
                    "midi": 70,
                    "time": 272.55634758333434,
                    "velocity": 0.31496062992125984,
                    "duration": 0.11312208333333729
                },
                {
                    "name": "D#4",
                    "midi": 63,
                    "time": 273.05408475000104,
                    "velocity": 0.3228346456692913,
                    "duration": 0.15837091666662673
                },
                {
                    "name": "G#4",
                    "midi": 68,
                    "time": 273.0767091666677,
                    "velocity": 0.3464566929133858,
                    "duration": 0.135746499999982
                },
                {
                    "name": "B4",
                    "midi": 71,
                    "time": 273.0993335833343,
                    "velocity": 0.3228346456692913,
                    "duration": 0.11312208333333729
                },
                {
                    "name": "D#4",
                    "midi": 63,
                    "time": 273.61969516666767,
                    "velocity": 0.3779527559055118,
                    "duration": 0.135746499999982
                },
                {
                    "name": "A#4",
                    "midi": 70,
                    "time": 273.6423195833343,
                    "velocity": 0.3779527559055118,
                    "duration": 0.11312208333333729
                },
                {
                    "name": "D#4",
                    "midi": 63,
                    "time": 274.16268116666765,
                    "velocity": 0.4094488188976378,
                    "duration": 0.135746499999982
                },
                {
                    "name": "B4",
                    "midi": 71,
                    "time": 274.1853055833343,
                    "velocity": 0.41732283464566927,
                    "duration": 0.11312208333333729
                },
                {
                    "name": "D#4",
                    "midi": 63,
                    "time": 274.750916000001,
                    "velocity": 0.33070866141732286,
                    "duration": 0.135746499999982
                },
                {
                    "name": "F#4",
                    "midi": 66,
                    "time": 274.750916000001,
                    "velocity": 0.33070866141732286,
                    "duration": 0.135746499999982
                },
                {
                    "name": "A#4",
                    "midi": 70,
                    "time": 274.750916000001,
                    "velocity": 0.33070866141732286,
                    "duration": 0.135746499999982
                },
                {
                    "name": "D#5",
                    "midi": 75,
                    "time": 274.750916000001,
                    "velocity": 0.3779527559055118,
                    "duration": 0.135746499999982
                },
                {
                    "name": "D#3",
                    "midi": 51,
                    "time": 275.02240900000095,
                    "velocity": 0.4094488188976378,
                    "duration": 0.135746499999982
                },
                {
                    "name": "D#4",
                    "midi": 63,
                    "time": 275.02240900000095,
                    "velocity": 0.4094488188976378,
                    "duration": 0.135746499999982
                },
                {
                    "name": "D#4",
                    "midi": 63,
                    "time": 275.2939020000009,
                    "velocity": 0.33070866141732286,
                    "duration": 0.13574650000003885
                },
                {
                    "name": "G#4",
                    "midi": 68,
                    "time": 275.2939020000009,
                    "velocity": 0.33070866141732286,
                    "duration": 0.13574650000003885
                },
                {
                    "name": "B4",
                    "midi": 71,
                    "time": 275.2939020000009,
                    "velocity": 0.33070866141732286,
                    "duration": 0.13574650000003885
                },
                {
                    "name": "D#5",
                    "midi": 75,
                    "time": 275.2939020000009,
                    "velocity": 0.3779527559055118,
                    "duration": 0.13574650000003885
                },
                {
                    "name": "G#2",
                    "midi": 44,
                    "time": 275.56539500000093,
                    "velocity": 0.3858267716535433,
                    "duration": 0.135746499999982
                },
                {
                    "name": "G#3",
                    "midi": 56,
                    "time": 275.56539500000093,
                    "velocity": 0.3858267716535433,
                    "duration": 0.135746499999982
                },
                {
                    "name": "D#4",
                    "midi": 63,
                    "time": 275.83688800000095,
                    "velocity": 0.3779527559055118,
                    "duration": 0.135746499999982
                },
                {
                    "name": "D#3",
                    "midi": 51,
                    "time": 275.83688800000095,
                    "velocity": 0.33070866141732286,
                    "duration": 0.135746499999982
                },
                {
                    "name": "F#3",
                    "midi": 54,
                    "time": 275.83688800000095,
                    "velocity": 0.33070866141732286,
                    "duration": 0.135746499999982
                },
                {
                    "name": "A#3",
                    "midi": 58,
                    "time": 275.83688800000095,
                    "velocity": 0.33070866141732286,
                    "duration": 0.135746499999982
                },
                {
                    "name": "D#2",
                    "midi": 39,
                    "time": 276.1083810000009,
                    "velocity": 0.4094488188976378,
                    "duration": 0.135746499999982
                },
                {
                    "name": "D#3",
                    "midi": 51,
                    "time": 276.1083810000009,
                    "velocity": 0.4094488188976378,
                    "duration": 0.135746499999982
                },
                {
                    "name": "D#3",
                    "midi": 51,
                    "time": 276.3798740000009,
                    "velocity": 0.33070866141732286,
                    "duration": 0.135746499999982
                },
                {
                    "name": "G#3",
                    "midi": 56,
                    "time": 276.3798740000009,
                    "velocity": 0.33070866141732286,
                    "duration": 0.135746499999982
                },
                {
                    "name": "B3",
                    "midi": 59,
                    "time": 276.3798740000009,
                    "velocity": 0.33070866141732286,
                    "duration": 0.135746499999982
                },
                {
                    "name": "D#4",
                    "midi": 63,
                    "time": 276.3798740000009,
                    "velocity": 0.3779527559055118,
                    "duration": 0.135746499999982
                },
                {
                    "name": "G#1",
                    "midi": 32,
                    "time": 276.65136700000085,
                    "velocity": 0.41732283464566927,
                    "duration": 0.135746499999982
                },
                {
                    "name": "G#2",
                    "midi": 44,
                    "time": 276.65136700000085,
                    "velocity": 0.41732283464566927,
                    "duration": 0.135746499999982
                },
                {
                    "name": "A#2",
                    "midi": 46,
                    "time": 276.9228600000008,
                    "velocity": 0.3779527559055118,
                    "duration": 0.13574650000003885
                },
                {
                    "name": "D#3",
                    "midi": 51,
                    "time": 276.9228600000008,
                    "velocity": 0.3779527559055118,
                    "duration": 0.13574650000003885
                },
                {
                    "name": "F#3",
                    "midi": 54,
                    "time": 276.9228600000008,
                    "velocity": 0.3779527559055118,
                    "duration": 0.13574650000003885
                },
                {
                    "name": "A#3",
                    "midi": 58,
                    "time": 276.9228600000008,
                    "velocity": 0.41732283464566927,
                    "duration": 0.13574650000003885
                },
                {
                    "name": "D#1",
                    "midi": 27,
                    "time": 277.19435300000083,
                    "velocity": 0.4566929133858268,
                    "duration": 0.135746499999982
                },
                {
                    "name": "D#2",
                    "midi": 39,
                    "time": 277.19435300000083,
                    "velocity": 0.4566929133858268,
                    "duration": 0.135746499999982
                },
                {
                    "name": "B2",
                    "midi": 47,
                    "time": 277.4658460000008,
                    "velocity": 0.3700787401574803,
                    "duration": 0.135746499999982
                },
                {
                    "name": "D#3",
                    "midi": 51,
                    "time": 277.4658460000008,
                    "velocity": 0.3700787401574803,
                    "duration": 0.135746499999982
                },
                {
                    "name": "F#3",
                    "midi": 54,
                    "time": 277.4658460000008,
                    "velocity": 0.3700787401574803,
                    "duration": 0.135746499999982
                },
                {
                    "name": "B3",
                    "midi": 59,
                    "time": 277.4658460000008,
                    "velocity": 0.4094488188976378,
                    "duration": 0.135746499999982
                },
                {
                    "name": "D#1",
                    "midi": 27,
                    "time": 277.73733900000076,
                    "velocity": 0.44881889763779526,
                    "duration": 0.135746499999982
                },
                {
                    "name": "D#2",
                    "midi": 39,
                    "time": 277.73733900000076,
                    "velocity": 0.44881889763779526,
                    "duration": 0.135746499999982
                },
                {
                    "name": "C4",
                    "midi": 60,
                    "time": 278.0088320000008,
                    "velocity": 0.4094488188976378,
                    "duration": 0.542985999999928
                },
                {
                    "name": "A3",
                    "midi": 57,
                    "time": 278.0088320000008,
                    "velocity": 0.4094488188976378,
                    "duration": 0.542985999999928
                },
                {
                    "name": "F#3",
                    "midi": 54,
                    "time": 278.0088320000008,
                    "velocity": 0.3700787401574803,
                    "duration": 0.542985999999928
                },
                {
                    "name": "D#3",
                    "midi": 51,
                    "time": 278.0088320000008,
                    "velocity": 0.3700787401574803,
                    "duration": 0.542985999999928
                },
                {
                    "name": "C3",
                    "midi": 48,
                    "time": 278.0088320000008,
                    "velocity": 0.3700787401574803,
                    "duration": 0.542985999999928
                },
                {
                    "name": "A#2",
                    "midi": 46,
                    "time": 278.4839447500008,
                    "velocity": 0.4330708661417323,
                    "duration": 0.20361974999991617
                },
                {
                    "name": "F3",
                    "midi": 53,
                    "time": 278.5065691666674,
                    "velocity": 0.4330708661417323,
                    "duration": 0.18099533333327145
                },
                {
                    "name": "A#3",
                    "midi": 58,
                    "time": 278.52919358333406,
                    "velocity": 0.48031496062992124,
                    "duration": 0.15837091666662673
                },
                {
                    "name": "D4",
                    "midi": 62,
                    "time": 278.5518180000007,
                    "velocity": 0.48031496062992124,
                    "duration": 0.135746499999982
                },
                {
                    "name": "A#1",
                    "midi": 34,
                    "time": 278.8233110000007,
                    "velocity": 0.5511811023622047,
                    "duration": 0.135746499999982
                },
                {
                    "name": "A#2",
                    "midi": 46,
                    "time": 278.8233110000007,
                    "velocity": 0.5511811023622047,
                    "duration": 0.135746499999982
                },
                {
                    "name": "D#1",
                    "midi": 27,
                    "time": 279.09480400000064,
                    "velocity": 0.5826771653543307,
                    "duration": 0.1809953333333283
                },
                {
                    "name": "D#2",
                    "midi": 39,
                    "time": 279.09480400000064,
                    "velocity": 0.5826771653543307,
                    "duration": 0.1809953333333283
                },
                {
                    "name": "B1",
                    "midi": 35,
                    "time": 279.6377900000006,
                    "velocity": 0.49606299212598426,
                    "duration": 0.5429859999999849
                },
                {
                    "name": "D#2",
                    "midi": 39,
                    "time": 279.6377900000006,
                    "velocity": 0.49606299212598426,
                    "duration": 0.5429859999999849
                },
                {
                    "name": "F#2",
                    "midi": 42,
                    "time": 279.6377900000006,
                    "velocity": 0.49606299212598426,
                    "duration": 0.5429859999999849
                },
                {
                    "name": "B2",
                    "midi": 47,
                    "time": 279.6377900000006,
                    "velocity": 0.5590551181102362,
                    "duration": 0.5429859999999849
                },
                {
                    "name": "F#2",
                    "midi": 42,
                    "time": 280.1807760000006,
                    "velocity": 0.49606299212598426,
                    "duration": 0.5429860000000417
                },
                {
                    "name": "A#2",
                    "midi": 46,
                    "time": 280.1807760000006,
                    "velocity": 0.49606299212598426,
                    "duration": 0.5429860000000417
                },
                {
                    "name": "C#3",
                    "midi": 49,
                    "time": 280.1807760000006,
                    "velocity": 0.49606299212598426,
                    "duration": 0.5429860000000417
                },
                {
                    "name": "F#3",
                    "midi": 54,
                    "time": 280.1807760000006,
                    "velocity": 0.5590551181102362,
                    "duration": 0.5429860000000417
                },
                {
                    "name": "G#2",
                    "midi": 44,
                    "time": 280.72376200000065,
                    "velocity": 0.4881889763779528,
                    "duration": 0.5429859999999849
                },
                {
                    "name": "B2",
                    "midi": 47,
                    "time": 280.72376200000065,
                    "velocity": 0.4881889763779528,
                    "duration": 0.5429859999999849
                },
                {
                    "name": "D#3",
                    "midi": 51,
                    "time": 280.72376200000065,
                    "velocity": 0.4881889763779528,
                    "duration": 0.5429859999999849
                },
                {
                    "name": "G#3",
                    "midi": 56,
                    "time": 280.72376200000065,
                    "velocity": 0.5511811023622047,
                    "duration": 0.5429859999999849
                },
                {
                    "name": "D#3",
                    "midi": 51,
                    "time": 281.26674800000063,
                    "velocity": 0.49606299212598426,
                    "duration": 1.6289580000000115
                },
                {
                    "name": "F#3",
                    "midi": 54,
                    "time": 281.26674800000063,
                    "velocity": 0.49606299212598426,
                    "duration": 1.6289580000000115
                },
                {
                    "name": "A#3",
                    "midi": 58,
                    "time": 281.26674800000063,
                    "velocity": 0.49606299212598426,
                    "duration": 1.9004510000000323
                },
                {
                    "name": "D#4",
                    "midi": 63,
                    "time": 281.26674800000063,
                    "velocity": 0.5590551181102362,
                    "duration": 1.0859719999999697
                },
                {
                    "name": "D#1",
                    "midi": 27,
                    "time": 282.3527200000006,
                    "velocity": 0.4881889763779528,
                    "duration": 0.27149300000002086
                },
                {
                    "name": "D#2",
                    "midi": 39,
                    "time": 282.3527200000006,
                    "velocity": 0.5511811023622047,
                    "duration": 0.27149300000002086
                },
                {
                    "name": "A#2",
                    "midi": 46,
                    "time": 282.89570600000064,
                    "velocity": 0.4881889763779528,
                    "duration": 0.27149300000002086
                },
                {
                    "name": "D#3",
                    "midi": 51,
                    "time": 282.89570600000064,
                    "velocity": 0.4881889763779528,
                    "duration": 0.27149300000002086
                },
                {
                    "name": "F#3",
                    "midi": 54,
                    "time": 282.89570600000064,
                    "velocity": 0.4881889763779528,
                    "duration": 0.27149300000002086
                },
                {
                    "name": "A#3",
                    "midi": 58,
                    "time": 282.89570600000064,
                    "velocity": 0.5511811023622047,
                    "duration": 0.5429860000000417
                },
                {
                    "name": "F#5",
                    "midi": 78,
                    "time": 283.4386920000007,
                    "velocity": 0.5433070866141733,
                    "duration": 1.0859720000000266
                },
                {
                    "name": "D#5",
                    "midi": 75,
                    "time": 283.4386920000007,
                    "velocity": 0.48031496062992124,
                    "duration": 1.0859720000000266
                },
                {
                    "name": "A#4",
                    "midi": 70,
                    "time": 283.4386920000007,
                    "velocity": 0.4566929133858268,
                    "duration": 1.0859720000000266
                },
                {
                    "name": "F#4",
                    "midi": 66,
                    "time": 283.4386920000007,
                    "velocity": 0.4566929133858268,
                    "duration": 1.0859720000000266
                }
            ],
            "controlChanges": {
                "7": [
                    {
                        "number": 7,
                        "time": 0,
                        "value": 0.7874015748031497
                    }
                ],
                "10": [
                    {
                        "number": 10,
                        "time": 0,
                        "value": 0.5039370078740157
                    }
                ],
                "64": [
                    {
                        "number": 64,
                        "time": 0.031674183333333335,
                        "value": 1
                    },
                    {
                        "number": 64,
                        "time": 0.5509045458333333,
                        "value": 0
                    },
                    {
                        "number": 64,
                        "time": 1.12669595,
                        "value": 1
                    },
                    {
                        "number": 64,
                        "time": 1.6323516624999999,
                        "value": 0
                    },
                    {
                        "number": 64,
                        "time": 2.2262426,
                        "value": 1
                    },
                    {
                        "number": 64,
                        "time": 2.7262422083333333,
                        "value": 0
                    },
                    {
                        "number": 64,
                        "time": 3.912892862499999,
                        "value": 1
                    },
                    {
                        "number": 64,
                        "time": 4.350675324999999,
                        "value": 0
                    },
                    {
                        "number": 64,
                        "time": 4.455878862499999,
                        "value": 1
                    },
                    {
                        "number": 64,
                        "time": 4.908367195833332,
                        "value": 0
                    },
                    {
                        "number": 64,
                        "time": 5.022620499999999,
                        "value": 1
                    },
                    {
                        "number": 64,
                        "time": 5.390267270833332,
                        "value": 0
                    },
                    {
                        "number": 64,
                        "time": 5.526013770833332,
                        "value": 1
                    },
                    {
                        "number": 64,
                        "time": 5.988683091666665,
                        "value": 0
                    },
                    {
                        "number": 64,
                        "time": 6.6199043166666645,
                        "value": 1
                    },
                    {
                        "number": 64,
                        "time": 7.074655091666664,
                        "value": 0
                    },
                    {
                        "number": 64,
                        "time": 7.682120679166664,
                        "value": 1
                    },
                    {
                        "number": 64,
                        "time": 8.16288953333333,
                        "value": 0
                    },
                    {
                        "number": 64,
                        "time": 9.334834316666662,
                        "value": 1
                    },
                    {
                        "number": 64,
                        "time": 9.77601044166666,
                        "value": 0
                    },
                    {
                        "number": 64,
                        "time": 9.909494499999994,
                        "value": 1
                    },
                    {
                        "number": 64,
                        "time": 10.338227195833326,
                        "value": 0
                    },
                    {
                        "number": 64,
                        "time": 10.46153026666666,
                        "value": 1
                    },
                    {
                        "number": 64,
                        "time": 10.781665762499994,
                        "value": 0
                    },
                    {
                        "number": 64,
                        "time": 10.909493716666661,
                        "value": 1
                    },
                    {
                        "number": 64,
                        "time": 11.426461637499996,
                        "value": 0
                    },
                    {
                        "number": 64,
                        "time": 11.981891066666662,
                        "value": 1
                    },
                    {
                        "number": 64,
                        "time": 12.49999020833333,
                        "value": 0
                    },
                    {
                        "number": 64,
                        "time": 13.085962599999995,
                        "value": 1
                    },
                    {
                        "number": 64,
                        "time": 13.599536858333328,
                        "value": 0
                    },
                    {
                        "number": 64,
                        "time": 14.76469431666666,
                        "value": 1
                    },
                    {
                        "number": 64,
                        "time": 15.213788987499992,
                        "value": 0
                    },
                    {
                        "number": 64,
                        "time": 15.424196062499991,
                        "value": 1
                    },
                    {
                        "number": 64,
                        "time": 15.761299870833325,
                        "value": 0
                    },
                    {
                        "number": 64,
                        "time": 15.967182062499992,
                        "value": 1
                    },
                    {
                        "number": 64,
                        "time": 16.297498545833324,
                        "value": 0
                    },
                    {
                        "number": 64,
                        "time": 16.52261149166666,
                        "value": 1
                    },
                    {
                        "number": 64,
                        "time": 16.84614064999999,
                        "value": 0
                    },
                    {
                        "number": 64,
                        "time": 16.923063666666657,
                        "value": 1
                    },
                    {
                        "number": 64,
                        "time": 17.12102731249999,
                        "value": 0
                    },
                    {
                        "number": 64,
                        "time": 17.27261090416666,
                        "value": 1
                    },
                    {
                        "number": 64,
                        "time": 17.385732987499992,
                        "value": 0
                    },
                    {
                        "number": 64,
                        "time": 17.556547333333324,
                        "value": 1
                    },
                    {
                        "number": 64,
                        "time": 17.940031195833324,
                        "value": 0
                    },
                    {
                        "number": 64,
                        "time": 18.061071824999992,
                        "value": 1
                    },
                    {
                        "number": 64,
                        "time": 18.201343208333324,
                        "value": 0
                    },
                    {
                        "number": 64,
                        "time": 18.384600983333325,
                        "value": 1
                    },
                    {
                        "number": 64,
                        "time": 18.470573766666657,
                        "value": 0
                    },
                    {
                        "number": 64,
                        "time": 18.630075904166656,
                        "value": 1
                    },
                    {
                        "number": 64,
                        "time": 19.02147831249999,
                        "value": 0
                    },
                    {
                        "number": 64,
                        "time": 19.14704382499999,
                        "value": 1
                    },
                    {
                        "number": 64,
                        "time": 19.295233754166656,
                        "value": 0
                    },
                    {
                        "number": 64,
                        "time": 19.444554904166655,
                        "value": 1
                    },
                    {
                        "number": 64,
                        "time": 19.553152104166656,
                        "value": 0
                    },
                    {
                        "number": 64,
                        "time": 19.70699813749999,
                        "value": 1
                    },
                    {
                        "number": 64,
                        "time": 20.10631909166666,
                        "value": 0
                    },
                    {
                        "number": 64,
                        "time": 20.257902683333327,
                        "value": 1
                    },
                    {
                        "number": 64,
                        "time": 21.727358545833326,
                        "value": 0
                    },
                    {
                        "number": 64,
                        "time": 21.954733933333326,
                        "value": 1
                    },
                    {
                        "number": 64,
                        "time": 22.279394312499996,
                        "value": 0
                    },
                    {
                        "number": 64,
                        "time": 22.585955158333327,
                        "value": 1
                    },
                    {
                        "number": 64,
                        "time": 22.815592987499993,
                        "value": 0
                    },
                    {
                        "number": 64,
                        "time": 22.996588320833325,
                        "value": 1
                    },
                    {
                        "number": 64,
                        "time": 23.35744776666666,
                        "value": 0
                    },
                    {
                        "number": 64,
                        "time": 23.56898606249999,
                        "value": 1
                    },
                    {
                        "number": 64,
                        "time": 23.90156498749999,
                        "value": 0
                    },
                    {
                        "number": 64,
                        "time": 24.124415491666657,
                        "value": 1
                    },
                    {
                        "number": 64,
                        "time": 24.455863195833324,
                        "value": 0
                    },
                    {
                        "number": 64,
                        "time": 24.84839682499999,
                        "value": 1
                    },
                    {
                        "number": 64,
                        "time": 24.999980416666656,
                        "value": 0
                    },
                    {
                        "number": 64,
                        "time": 25.171925983333324,
                        "value": 1
                    },
                    {
                        "number": 64,
                        "time": 25.53957275416666,
                        "value": 0
                    },
                    {
                        "number": 64,
                        "time": 25.67531925416666,
                        "value": 1
                    },
                    {
                        "number": 64,
                        "time": 27.15948098749999,
                        "value": 0
                    },
                    {
                        "number": 64,
                        "time": 27.511290666666657,
                        "value": 1
                    },
                    {
                        "number": 64,
                        "time": 28.24658420833332,
                        "value": 0
                    },
                    {
                        "number": 64,
                        "time": 28.44681029583332,
                        "value": 1
                    },
                    {
                        "number": 64,
                        "time": 28.800882416666653,
                        "value": 0
                    },
                    {
                        "number": 64,
                        "time": 29.110836924999987,
                        "value": 1
                    },
                    {
                        "number": 64,
                        "time": 29.335949870833318,
                        "value": 0
                    },
                    {
                        "number": 64,
                        "time": 29.532782295833318,
                        "value": 1
                    },
                    {
                        "number": 64,
                        "time": 29.878935870833317,
                        "value": 0
                    },
                    {
                        "number": 64,
                        "time": 30.25676362916665,
                        "value": 1
                    },
                    {
                        "number": 64,
                        "time": 30.424184312499982,
                        "value": 0
                    },
                    {
                        "number": 64,
                        "time": 30.556537149999983,
                        "value": 1
                    },
                    {
                        "number": 64,
                        "time": 32.59612831249998,
                        "value": 0
                    },
                    {
                        "number": 64,
                        "time": 32.89137694999998,
                        "value": 1
                    },
                    {
                        "number": 64,
                        "time": 33.140245533333314,
                        "value": 0
                    },
                    {
                        "number": 64,
                        "time": 33.46490591249998,
                        "value": 1
                    },
                    {
                        "number": 64,
                        "time": 33.67531298749998,
                        "value": 0
                    },
                    {
                        "number": 64,
                        "time": 33.86535808749998,
                        "value": 1
                    },
                    {
                        "number": 64,
                        "time": 34.34952060416664,
                        "value": 0
                    },
                    {
                        "number": 64,
                        "time": 34.58028965416664,
                        "value": 1
                    },
                    {
                        "number": 64,
                        "time": 34.76920353333331,
                        "value": 0
                    },
                    {
                        "number": 64,
                        "time": 34.95811741249998,
                        "value": 1
                    },
                    {
                        "number": 64,
                        "time": 35.31332075416665,
                        "value": 0
                    },
                    {
                        "number": 64,
                        "time": 35.65608066666665,
                        "value": 1
                    },
                    {
                        "number": 64,
                        "time": 35.85404431249998,
                        "value": 0
                    },
                    {
                        "number": 64,
                        "time": 36.01241522916665,
                        "value": 1
                    },
                    {
                        "number": 64,
                        "time": 38.01693854583331,
                        "value": 0
                    },
                    {
                        "number": 64,
                        "time": 38.24205149166664,
                        "value": 1
                    },
                    {
                        "number": 64,
                        "time": 39.65268387083331,
                        "value": 0
                    },
                    {
                        "number": 64,
                        "time": 39.89702757083331,
                        "value": 1
                    },
                    {
                        "number": 64,
                        "time": 40.671913841666644,
                        "value": 0
                    },
                    {
                        "number": 64,
                        "time": 40.904945333333316,
                        "value": 1
                    },
                    {
                        "number": 64,
                        "time": 41.27598576666664,
                        "value": 0
                    },
                    {
                        "number": 64,
                        "time": 41.39702639583331,
                        "value": 1
                    },
                    {
                        "number": 64,
                        "time": 42.363088987499985,
                        "value": 0
                    },
                    {
                        "number": 64,
                        "time": 42.50222914999999,
                        "value": 1
                    },
                    {
                        "number": 64,
                        "time": 42.9196496375,
                        "value": 0
                    },
                    {
                        "number": 64,
                        "time": 43.019197070833336,
                        "value": 1
                    },
                    {
                        "number": 64,
                        "time": 43.45471709166668,
                        "value": 0
                    },
                    {
                        "number": 64,
                        "time": 43.59838213750001,
                        "value": 1
                    },
                    {
                        "number": 64,
                        "time": 43.86987513750001,
                        "value": 0
                    },
                    {
                        "number": 64,
                        "time": 44.56105106666669,
                        "value": 1
                    },
                    {
                        "number": 64,
                        "time": 45.081412650000026,
                        "value": 0
                    },
                    {
                        "number": 64,
                        "time": 45.738651954166706,
                        "value": 1
                    },
                    {
                        "number": 64,
                        "time": 46.17190953333337,
                        "value": 0
                    },
                    {
                        "number": 64,
                        "time": 47.36760995416673,
                        "value": 1
                    },
                    {
                        "number": 64,
                        "time": 47.796342650000064,
                        "value": 0
                    },
                    {
                        "number": 64,
                        "time": 48.011274608333395,
                        "value": 1
                    },
                    {
                        "number": 64,
                        "time": 48.33932865000006,
                        "value": 0
                    },
                    {
                        "number": 64,
                        "time": 48.583672350000064,
                        "value": 1
                    },
                    {
                        "number": 64,
                        "time": 48.87892098750007,
                        "value": 0
                    },
                    {
                        "number": 64,
                        "time": 49.0361606833334,
                        "value": 1
                    },
                    {
                        "number": 64,
                        "time": 49.42869431250006,
                        "value": 0
                    },
                    {
                        "number": 64,
                        "time": 50.035028679166736,
                        "value": 1
                    },
                    {
                        "number": 64,
                        "time": 50.52145363750007,
                        "value": 0
                    },
                    {
                        "number": 64,
                        "time": 51.12100067916675,
                        "value": 1
                    },
                    {
                        "number": 64,
                        "time": 51.59950709166675,
                        "value": 0
                    },
                    {
                        "number": 64,
                        "time": 52.74090891250011,
                        "value": 1
                    },
                    {
                        "number": 64,
                        "time": 53.22733387083344,
                        "value": 0
                    },
                    {
                        "number": 64,
                        "time": 53.33027496666677,
                        "value": 1
                    },
                    {
                        "number": 64,
                        "time": 53.7725823125001,
                        "value": 0
                    },
                    {
                        "number": 64,
                        "time": 53.9320844500001,
                        "value": 1
                    },
                    {
                        "number": 64,
                        "time": 54.251088725000095,
                        "value": 0
                    },
                    {
                        "number": 64,
                        "time": 54.506744633333426,
                        "value": 1
                    },
                    {
                        "number": 64,
                        "time": 54.86194797500009,
                        "value": 0
                    },
                    {
                        "number": 64,
                        "time": 55.49882530416677,
                        "value": 1
                    },
                    {
                        "number": 64,
                        "time": 55.952444858333436,
                        "value": 0
                    },
                    {
                        "number": 64,
                        "time": 56.550860679166775,
                        "value": 1
                    },
                    {
                        "number": 64,
                        "time": 57.03728563750011,
                        "value": 0
                    },
                    {
                        "number": 64,
                        "time": 58.19565577083347,
                        "value": 1
                    },
                    {
                        "number": 64,
                        "time": 58.652668987500135,
                        "value": 0
                    },
                    {
                        "number": 64,
                        "time": 58.87099460833347,
                        "value": 1
                    },
                    {
                        "number": 64,
                        "time": 59.2047047541668,
                        "value": 0
                    },
                    {
                        "number": 64,
                        "time": 59.4999533916668,
                        "value": 1
                    },
                    {
                        "number": 64,
                        "time": 59.7442970916668,
                        "value": 0
                    },
                    {
                        "number": 64,
                        "time": 59.870993825000134,
                        "value": 1
                    },
                    {
                        "number": 64,
                        "time": 60.28954553333347,
                        "value": 0
                    },
                    {
                        "number": 64,
                        "time": 60.982983904166815,
                        "value": 1
                    },
                    {
                        "number": 64,
                        "time": 61.37891119583349,
                        "value": 0
                    },
                    {
                        "number": 64,
                        "time": 62.003345095833495,
                        "value": 1
                    },
                    {
                        "number": 64,
                        "time": 62.45696465000017,
                        "value": 0
                    },
                    {
                        "number": 64,
                        "time": 63.09044831666683,
                        "value": 1
                    },
                    {
                        "number": 64,
                        "time": 63.548592754166826,
                        "value": 0
                    },
                    {
                        "number": 64,
                        "time": 65.15832000000016,
                        "value": 1
                    },
                    {
                        "number": 64,
                        "time": 66.2556042083335,
                        "value": 0
                    },
                    {
                        "number": 64,
                        "time": 66.69678033333349,
                        "value": 1
                    },
                    {
                        "number": 64,
                        "time": 67.34383865000015,
                        "value": 0
                    },
                    {
                        "number": 64,
                        "time": 67.72279762916682,
                        "value": 1
                    },
                    {
                        "number": 64,
                        "time": 69.50220800000015,
                        "value": 0
                    },
                    {
                        "number": 64,
                        "time": 69.63003595416681,
                        "value": 1
                    },
                    {
                        "number": 64,
                        "time": 70.06668719583347,
                        "value": 0
                    },
                    {
                        "number": 64,
                        "time": 70.66057813333347,
                        "value": 1
                    },
                    {
                        "number": 64,
                        "time": 71.15492163750014,
                        "value": 0
                    },
                    {
                        "number": 64,
                        "time": 71.77030577083347,
                        "value": 1
                    },
                    {
                        "number": 64,
                        "time": 72.24089363750014,
                        "value": 0
                    },
                    {
                        "number": 64,
                        "time": 72.83817823750013,
                        "value": 1
                    },
                    {
                        "number": 64,
                        "time": 73.14360786250012,
                        "value": 0
                    },
                    {
                        "number": 64,
                        "time": 73.89813215833345,
                        "value": 1
                    },
                    {
                        "number": 64,
                        "time": 74.22392375833346,
                        "value": 0
                    },
                    {
                        "number": 64,
                        "time": 74.99654758750012,
                        "value": 1
                    },
                    {
                        "number": 64,
                        "time": 75.29858355000012,
                        "value": 0
                    },
                    {
                        "number": 64,
                        "time": 75.39586854166679,
                        "value": 1
                    },
                    {
                        "number": 64,
                        "time": 75.67528008750011,
                        "value": 0
                    },
                    {
                        "number": 64,
                        "time": 75.79518949583344,
                        "value": 1
                    },
                    {
                        "number": 64,
                        "time": 76.02595854583343,
                        "value": 0
                    },
                    {
                        "number": 64,
                        "time": 76.13455574583344,
                        "value": 1
                    },
                    {
                        "number": 64,
                        "time": 76.5779943125001,
                        "value": 0
                    },
                    {
                        "number": 64,
                        "time": 77.15604815833343,
                        "value": 1
                    },
                    {
                        "number": 64,
                        "time": 77.66962241666677,
                        "value": 0
                    },
                    {
                        "number": 64,
                        "time": 78.24880748333344,
                        "value": 1
                    },
                    {
                        "number": 64,
                        "time": 78.75446319583342,
                        "value": 0
                    },
                    {
                        "number": 64,
                        "time": 79.3404355875001,
                        "value": 1
                    },
                    {
                        "number": 64,
                        "time": 79.83138542916676,
                        "value": 0
                    },
                    {
                        "number": 64,
                        "time": 80.4467695625001,
                        "value": 1
                    },
                    {
                        "number": 64,
                        "time": 80.91848865000009,
                        "value": 0
                    },
                    {
                        "number": 64,
                        "time": 81.44790000000009,
                        "value": 1
                    },
                    {
                        "number": 64,
                        "time": 82.01011675416675,
                        "value": 0
                    },
                    {
                        "number": 64,
                        "time": 82.58251449583341,
                        "value": 1
                    },
                    {
                        "number": 64,
                        "time": 83.08590776666672,
                        "value": 0
                    },
                    {
                        "number": 64,
                        "time": 83.66848649583339,
                        "value": 1
                    },
                    {
                        "number": 64,
                        "time": 84.1684861041667,
                        "value": 0
                    },
                    {
                        "number": 64,
                        "time": 84.7963136666667,
                        "value": 1
                    },
                    {
                        "number": 64,
                        "time": 85.09382474583336,
                        "value": 0
                    },
                    {
                        "number": 64,
                        "time": 85.17187898333336,
                        "value": 1
                    },
                    {
                        "number": 64,
                        "time": 85.44902808750003,
                        "value": 0
                    },
                    {
                        "number": 64,
                        "time": 85.5463130791667,
                        "value": 1
                    },
                    {
                        "number": 64,
                        "time": 85.79178800000003,
                        "value": 0
                    },
                    {
                        "number": 64,
                        "time": 85.85626758750003,
                        "value": 1
                    },
                    {
                        "number": 64,
                        "time": 86.36079207916669,
                        "value": 0
                    },
                    {
                        "number": 64,
                        "time": 86.9173527291667,
                        "value": 1
                    },
                    {
                        "number": 64,
                        "time": 87.24540677083336,
                        "value": 0
                    },
                    {
                        "number": 64,
                        "time": 87.30536147500003,
                        "value": 1
                    },
                    {
                        "number": 64,
                        "time": 87.62436575000002,
                        "value": 0
                    },
                    {
                        "number": 64,
                        "time": 87.6843204541667,
                        "value": 1
                    },
                    {
                        "number": 64,
                        "time": 87.97165054583336,
                        "value": 0
                    },
                    {
                        "number": 64,
                        "time": 88.01916182083336,
                        "value": 1
                    },
                    {
                        "number": 64,
                        "time": 88.3494783041667,
                        "value": 0
                    },
                    {
                        "number": 64,
                        "time": 88.39472713750003,
                        "value": 1
                    },
                    {
                        "number": 64,
                        "time": 88.71033775000002,
                        "value": 0
                    },
                    {
                        "number": 64,
                        "time": 88.76237390833336,
                        "value": 1
                    },
                    {
                        "number": 64,
                        "time": 89.05875376666668,
                        "value": 0
                    },
                    {
                        "number": 64,
                        "time": 89.12097091250001,
                        "value": 1
                    },
                    {
                        "number": 64,
                        "time": 89.43092542083335,
                        "value": 0
                    },
                    {
                        "number": 64,
                        "time": 89.54178506250001,
                        "value": 1
                    },
                    {
                        "number": 64,
                        "time": 89.79630975,
                        "value": 0
                    },
                    {
                        "number": 64,
                        "time": 89.90943183333334,
                        "value": 1
                    },
                    {
                        "number": 64,
                        "time": 90.1594316375,
                        "value": 0
                    },
                    {
                        "number": 64,
                        "time": 90.20354925000001,
                        "value": 1
                    },
                    {
                        "number": 64,
                        "time": 90.69449909166667,
                        "value": 0
                    },
                    {
                        "number": 64,
                        "time": 91.49314100000002,
                        "value": 1
                    },
                    {
                        "number": 64,
                        "time": 92.32119465000002,
                        "value": 0
                    },
                    {
                        "number": 64,
                        "time": 92.66961066666669,
                        "value": 1
                    },
                    {
                        "number": 64,
                        "time": 93.40264176666668,
                        "value": 0
                    },
                    {
                        "number": 64,
                        "time": 93.75558266666667,
                        "value": 1
                    },
                    {
                        "number": 64,
                        "time": 95.57684820833335,
                        "value": 0
                    },
                    {
                        "number": 64,
                        "time": 95.74653133333335,
                        "value": 1
                    },
                    {
                        "number": 64,
                        "time": 96.13114641666668,
                        "value": 0
                    },
                    {
                        "number": 64,
                        "time": 96.44110092500001,
                        "value": 1
                    },
                    {
                        "number": 64,
                        "time": 96.67300119583335,
                        "value": 0
                    },
                    {
                        "number": 64,
                        "time": 96.85852141250001,
                        "value": 1
                    },
                    {
                        "number": 64,
                        "time": 97.21598719583334,
                        "value": 0
                    },
                    {
                        "number": 64,
                        "time": 97.5304665875,
                        "value": 1
                    },
                    {
                        "number": 64,
                        "time": 97.75218587083334,
                        "value": 0
                    },
                    {
                        "number": 64,
                        "time": 98.31100896250001,
                        "value": 1
                    },
                    {
                        "number": 64,
                        "time": 99.36643800000002,
                        "value": 0
                    },
                    {
                        "number": 64,
                        "time": 99.77820238333335,
                        "value": 1
                    },
                    {
                        "number": 64,
                        "time": 100.34494402083334,
                        "value": 0
                    },
                    {
                        "number": 64,
                        "time": 100.52820179583335,
                        "value": 1
                    },
                    {
                        "number": 64,
                        "time": 100.93544129583336,
                        "value": 0
                    },
                    {
                        "number": 64,
                        "time": 101.09494343333336,
                        "value": 1
                    },
                    {
                        "number": 64,
                        "time": 101.48634584166669,
                        "value": 0
                    },
                    {
                        "number": 64,
                        "time": 101.6220923416667,
                        "value": 1
                    },
                    {
                        "number": 64,
                        "time": 102.01349475000004,
                        "value": 0
                    },
                    {
                        "number": 64,
                        "time": 102.15376613333338,
                        "value": 1
                    },
                    {
                        "number": 64,
                        "time": 102.49313238333337,
                        "value": 0
                    },
                    {
                        "number": 64,
                        "time": 102.70467067916672,
                        "value": 1
                    },
                    {
                        "number": 64,
                        "time": 103.05987402083339,
                        "value": 0
                    },
                    {
                        "number": 64,
                        "time": 103.23521325000007,
                        "value": 1
                    },
                    {
                        "number": 64,
                        "time": 103.61077856666674,
                        "value": 0
                    },
                    {
                        "number": 64,
                        "time": 103.78611779583342,
                        "value": 1
                    },
                    {
                        "number": 64,
                        "time": 104.16168311250009,
                        "value": 0
                    },
                    {
                        "number": 64,
                        "time": 104.34946577083343,
                        "value": 1
                    },
                    {
                        "number": 64,
                        "time": 104.8064789875001,
                        "value": 0
                    },
                    {
                        "number": 64,
                        "time": 104.87208979583343,
                        "value": 1
                    },
                    {
                        "number": 64,
                        "time": 105.35398987083344,
                        "value": 0
                    },
                    {
                        "number": 64,
                        "time": 105.41960067916678,
                        "value": 1
                    },
                    {
                        "number": 64,
                        "time": 105.89018854583345,
                        "value": 0
                    },
                    {
                        "number": 64,
                        "time": 105.95466813333346,
                        "value": 1
                    },
                    {
                        "number": 64,
                        "time": 106.43543698750013,
                        "value": 0
                    },
                    {
                        "number": 64,
                        "time": 106.50104779583346,
                        "value": 1
                    },
                    {
                        "number": 64,
                        "time": 106.97502932500014,
                        "value": 0
                    },
                    {
                        "number": 64,
                        "time": 107.04064013333347,
                        "value": 1
                    },
                    {
                        "number": 64,
                        "time": 107.52027776666681,
                        "value": 0
                    },
                    {
                        "number": 64,
                        "time": 107.60285688750014,
                        "value": 1
                    },
                    {
                        "number": 64,
                        "time": 108.06213254583348,
                        "value": 0
                    },
                    {
                        "number": 64,
                        "time": 108.15036777083348,
                        "value": 1
                    },
                    {
                        "number": 64,
                        "time": 108.59720000000016,
                        "value": 0
                    },
                    {
                        "number": 64,
                        "time": 108.6695981333335,
                        "value": 1
                    },
                    {
                        "number": 64,
                        "time": 109.15489187083351,
                        "value": 0
                    },
                    {
                        "number": 64,
                        "time": 109.23633977083351,
                        "value": 1
                    },
                    {
                        "number": 64,
                        "time": 109.69448420833352,
                        "value": 0
                    },
                    {
                        "number": 64,
                        "time": 109.74312670416685,
                        "value": 1
                    },
                    {
                        "number": 64,
                        "time": 110.2465199750002,
                        "value": 0
                    },
                    {
                        "number": 64,
                        "time": 110.33814886250019,
                        "value": 1
                    },
                    {
                        "number": 64,
                        "time": 110.77932498750019,
                        "value": 0
                    },
                    {
                        "number": 64,
                        "time": 110.85285434166686,
                        "value": 1
                    },
                    {
                        "number": 64,
                        "time": 111.26801238750019,
                        "value": 0
                    },
                    {
                        "number": 64,
                        "time": 111.4003652250002,
                        "value": 1
                    },
                    {
                        "number": 64,
                        "time": 111.8109983875002,
                        "value": 0
                    },
                    {
                        "number": 64,
                        "time": 111.90715215833355,
                        "value": 1
                    },
                    {
                        "number": 64,
                        "time": 112.27479892916688,
                        "value": 0
                    },
                    {
                        "number": 64,
                        "time": 112.45805670416689,
                        "value": 1
                    },
                    {
                        "number": 64,
                        "time": 112.95466265000023,
                        "value": 0
                    },
                    {
                        "number": 64,
                        "time": 112.99312415833356,
                        "value": 1
                    },
                    {
                        "number": 64,
                        "time": 113.50217353333356,
                        "value": 0
                    },
                    {
                        "number": 64,
                        "time": 113.54855358750022,
                        "value": 1
                    },
                    {
                        "number": 64,
                        "time": 114.04176587083356,
                        "value": 0
                    },
                    {
                        "number": 64,
                        "time": 114.10737667916689,
                        "value": 1
                    },
                    {
                        "number": 64,
                        "time": 114.58701431250023,
                        "value": 0
                    },
                    {
                        "number": 64,
                        "time": 114.64583779583356,
                        "value": 1
                    },
                    {
                        "number": 64,
                        "time": 115.12321298750022,
                        "value": 0
                    },
                    {
                        "number": 64,
                        "time": 115.19334867916689,
                        "value": 1
                    },
                    {
                        "number": 64,
                        "time": 115.66280532500024,
                        "value": 0
                    },
                    {
                        "number": 64,
                        "time": 115.7125790416669,
                        "value": 1
                    },
                    {
                        "number": 64,
                        "time": 115.93995442916689,
                        "value": 0
                    },
                    {
                        "number": 64,
                        "time": 118.55194333333351,
                        "value": 1
                    },
                    {
                        "number": 64,
                        "time": 119.45692000000018,
                        "value": 0
                    },
                    {
                        "number": 64,
                        "time": 120.72388733333348,
                        "value": 1
                    },
                    {
                        "number": 64,
                        "time": 121.62886400000015,
                        "value": 0
                    },
                    {
                        "number": 64,
                        "time": 125.8053313166668,
                        "value": 1
                    },
                    {
                        "number": 64,
                        "time": 126.52591898750013,
                        "value": 0
                    },
                    {
                        "number": 64,
                        "time": 126.56777415833346,
                        "value": 1
                    },
                    {
                        "number": 64,
                        "time": 127.05872400000014,
                        "value": 0
                    },
                    {
                        "number": 64,
                        "time": 127.10736649583347,
                        "value": 1
                    },
                    {
                        "number": 64,
                        "time": 127.6073661041668,
                        "value": 0
                    },
                    {
                        "number": 64,
                        "time": 127.66958325000013,
                        "value": 1
                    },
                    {
                        "number": 64,
                        "time": 128.14695844166678,
                        "value": 0
                    },
                    {
                        "number": 64,
                        "time": 128.21256925000012,
                        "value": 1
                    },
                    {
                        "number": 64,
                        "time": 128.62433363333346,
                        "value": 0
                    },
                    {
                        "number": 64,
                        "time": 128.73179961250014,
                        "value": 1
                    },
                    {
                        "number": 64,
                        "time": 129.1232020208335,
                        "value": 0
                    },
                    {
                        "number": 64,
                        "time": 129.27478561250015,
                        "value": 1
                    },
                    {
                        "number": 64,
                        "time": 129.66958168333352,
                        "value": 0
                    },
                    {
                        "number": 64,
                        "time": 129.81777161250017,
                        "value": 1
                    },
                    {
                        "number": 64,
                        "time": 130.2250111125002,
                        "value": 0
                    },
                    {
                        "number": 64,
                        "time": 130.37320104166685,
                        "value": 1
                    },
                    {
                        "number": 64,
                        "time": 130.76007856666686,
                        "value": 0
                    },
                    {
                        "number": 64,
                        "time": 130.93541779583353,
                        "value": 1
                    },
                    {
                        "number": 64,
                        "time": 131.4026120000002,
                        "value": 0
                    },
                    {
                        "number": 64,
                        "time": 131.45464815833353,
                        "value": 1
                    },
                    {
                        "number": 64,
                        "time": 131.95012288333353,
                        "value": 0
                    },
                    {
                        "number": 64,
                        "time": 132.0100775875002,
                        "value": 1
                    },
                    {
                        "number": 64,
                        "time": 132.4953713250002,
                        "value": 0
                    },
                    {
                        "number": 64,
                        "time": 132.54514504166687,
                        "value": 1
                    },
                    {
                        "number": 64,
                        "time": 133.03496366250022,
                        "value": 0
                    },
                    {
                        "number": 64,
                        "time": 133.10736179583355,
                        "value": 1
                    },
                    {
                        "number": 64,
                        "time": 133.57908088333357,
                        "value": 0
                    },
                    {
                        "number": 64,
                        "time": 133.6311170416669,
                        "value": 1
                    },
                    {
                        "number": 64,
                        "time": 134.12432932500025,
                        "value": 0
                    },
                    {
                        "number": 64,
                        "time": 134.19785867916693,
                        "value": 1
                    },
                    {
                        "number": 64,
                        "time": 134.66392166250026,
                        "value": 0
                    },
                    {
                        "number": 64,
                        "time": 134.7329261333336,
                        "value": 1
                    },
                    {
                        "number": 64,
                        "time": 135.2114325458336,
                        "value": 0
                    },
                    {
                        "number": 64,
                        "time": 135.27930579583358,
                        "value": 1
                    },
                    {
                        "number": 64,
                        "time": 135.74989366250026,
                        "value": 0
                    },
                    {
                        "number": 64,
                        "time": 135.80306104166692,
                        "value": 1
                    },
                    {
                        "number": 64,
                        "time": 136.30532309166693,
                        "value": 0
                    },
                    {
                        "number": 64,
                        "time": 136.34604704166694,
                        "value": 1
                    },
                    {
                        "number": 64,
                        "time": 136.83586566250028,
                        "value": 0
                    },
                    {
                        "number": 64,
                        "time": 136.90034525000027,
                        "value": 1
                    },
                    {
                        "number": 64,
                        "time": 137.39129509166696,
                        "value": 0
                    },
                    {
                        "number": 64,
                        "time": 137.48405520000028,
                        "value": 1
                    },
                    {
                        "number": 64,
                        "time": 137.66731297500027,
                        "value": 0
                    },
                    {
                        "number": 64,
                        "time": 137.7193491333336,
                        "value": 1
                    },
                    {
                        "number": 64,
                        "time": 137.92749376666694,
                        "value": 0
                    },
                    {
                        "number": 64,
                        "time": 138.0541905000003,
                        "value": 1
                    },
                    {
                        "number": 64,
                        "time": 138.19785554583362,
                        "value": 0
                    },
                    {
                        "number": 64,
                        "time": 138.3098464083336,
                        "value": 1
                    },
                    {
                        "number": 64,
                        "time": 138.47726709166696,
                        "value": 0
                    },
                    {
                        "number": 64,
                        "time": 138.5971765000003,
                        "value": 1
                    },
                    {
                        "number": 64,
                        "time": 138.7566786375003,
                        "value": 0
                    },
                    {
                        "number": 64,
                        "time": 138.8765880458336,
                        "value": 1
                    },
                    {
                        "number": 64,
                        "time": 139.01120332500028,
                        "value": 0
                    },
                    {
                        "number": 64,
                        "time": 140.24989013750033,
                        "value": 1
                    },
                    {
                        "number": 64,
                        "time": 141.2001156375003,
                        "value": 0
                    },
                    {
                        "number": 64,
                        "time": 142.38337262916698,
                        "value": 1
                    },
                    {
                        "number": 64,
                        "time": 143.35622254583365,
                        "value": 0
                    },
                    {
                        "number": 64,
                        "time": 143.44445777083365,
                        "value": 1
                    },
                    {
                        "number": 64,
                        "time": 143.90712709166698,
                        "value": 0
                    },
                    {
                        "number": 64,
                        "time": 144.50667413333366,
                        "value": 1
                    },
                    {
                        "number": 64,
                        "time": 144.98744298750032,
                        "value": 0
                    },
                    {
                        "number": 64,
                        "time": 145.5847275875003,
                        "value": 1
                    },
                    {
                        "number": 64,
                        "time": 146.07567742916697,
                        "value": 0
                    },
                    {
                        "number": 64,
                        "time": 146.6774869125003,
                        "value": 1
                    },
                    {
                        "number": 64,
                        "time": 147.16278065000031,
                        "value": 0
                    },
                    {
                        "number": 64,
                        "time": 147.8041828625003,
                        "value": 1
                    },
                    {
                        "number": 64,
                        "time": 148.24422776666697,
                        "value": 0
                    },
                    {
                        "number": 64,
                        "time": 148.8335938208336,
                        "value": 1
                    },
                    {
                        "number": 64,
                        "time": 149.16164786250027,
                        "value": 0
                    },
                    {
                        "number": 64,
                        "time": 149.24083332083362,
                        "value": 1
                    },
                    {
                        "number": 64,
                        "time": 149.52476975000027,
                        "value": 0
                    },
                    {
                        "number": 64,
                        "time": 149.61639863750028,
                        "value": 1
                    },
                    {
                        "number": 64,
                        "time": 149.8641360000003,
                        "value": 0
                    },
                    {
                        "number": 64,
                        "time": 149.95463366666695,
                        "value": 1
                    },
                    {
                        "number": 64,
                        "time": 150.4252215333336,
                        "value": 0
                    },
                    {
                        "number": 64,
                        "time": 151.04060566666692,
                        "value": 1
                    },
                    {
                        "number": 64,
                        "time": 151.51006231250025,
                        "value": 0
                    },
                    {
                        "number": 64,
                        "time": 152.03608000000025,
                        "value": 1
                    },
                    {
                        "number": 64,
                        "time": 152.5869845458336,
                        "value": 0
                    },
                    {
                        "number": 64,
                        "time": 152.69331930416692,
                        "value": 1
                    },
                    {
                        "number": 64,
                        "time": 153.13223298750026,
                        "value": 0
                    },
                    {
                        "number": 64,
                        "time": 153.20010623750025,
                        "value": 1
                    },
                    {
                        "number": 64,
                        "time": 153.6842687541669,
                        "value": 0
                    },
                    {
                        "number": 64,
                        "time": 153.7691103166669,
                        "value": 1
                    },
                    {
                        "number": 64,
                        "time": 154.21933620833354,
                        "value": 0
                    },
                    {
                        "number": 64,
                        "time": 154.31775242083356,
                        "value": 1
                    },
                    {
                        "number": 64,
                        "time": 154.77024075416688,
                        "value": 0
                    },
                    {
                        "number": 64,
                        "time": 154.86752574583355,
                        "value": 1
                    },
                    {
                        "number": 64,
                        "time": 155.3053082083335,
                        "value": 0
                    },
                    {
                        "number": 64,
                        "time": 155.39128099166686,
                        "value": 1
                    },
                    {
                        "number": 64,
                        "time": 155.85734397500016,
                        "value": 0
                    },
                    {
                        "number": 64,
                        "time": 155.93426699166682,
                        "value": 1
                    },
                    {
                        "number": 64,
                        "time": 156.3890177666668,
                        "value": 0
                    },
                    {
                        "number": 64,
                        "time": 156.97159649583344,
                        "value": 1
                    },
                    {
                        "number": 64,
                        "time": 157.43652825833345,
                        "value": 0
                    },
                    {
                        "number": 64,
                        "time": 158.0654870416668,
                        "value": 1
                    },
                    {
                        "number": 64,
                        "time": 158.56548665000014,
                        "value": 0
                    },
                    {
                        "number": 64,
                        "time": 158.64014722500013,
                        "value": 1
                    },
                    {
                        "number": 64,
                        "time": 158.92295243333348,
                        "value": 0
                    },
                    {
                        "number": 64,
                        "time": 158.99987545000013,
                        "value": 1
                    },
                    {
                        "number": 64,
                        "time": 159.29625530833346,
                        "value": 0
                    },
                    {
                        "number": 64,
                        "time": 159.3822280916668,
                        "value": 1
                    },
                    {
                        "number": 64,
                        "time": 159.63788400000013,
                        "value": 0
                    },
                    {
                        "number": 64,
                        "time": 159.70236358750012,
                        "value": 1
                    },
                    {
                        "number": 64,
                        "time": 160.20010075416678,
                        "value": 0
                    },
                    {
                        "number": 64,
                        "time": 160.30417307083346,
                        "value": 1
                    },
                    {
                        "number": 64,
                        "time": 160.7329057666668,
                        "value": 0
                    },
                    {
                        "number": 64,
                        "time": 160.7838107041668,
                        "value": 1
                    },
                    {
                        "number": 64,
                        "time": 161.09489643333345,
                        "value": 0
                    },
                    {
                        "number": 64,
                        "time": 161.15145747500011,
                        "value": 1
                    },
                    {
                        "number": 64,
                        "time": 161.45801832083345,
                        "value": 0
                    },
                    {
                        "number": 64,
                        "time": 161.52702279166678,
                        "value": 1
                    },
                    {
                        "number": 64,
                        "time": 161.81887776666676,
                        "value": 0
                    },
                    {
                        "number": 64,
                        "time": 161.88222613333343,
                        "value": 1
                    },
                    {
                        "number": 64,
                        "time": 162.18539331666676,
                        "value": 0
                    },
                    {
                        "number": 64,
                        "time": 162.25326656666675,
                        "value": 1
                    },
                    {
                        "number": 64,
                        "time": 162.55869619166674,
                        "value": 0
                    },
                    {
                        "number": 64,
                        "time": 162.61638845416675,
                        "value": 1
                    },
                    {
                        "number": 64,
                        "time": 162.92068685833343,
                        "value": 0
                    },
                    {
                        "number": 64,
                        "time": 163.01231574583343,
                        "value": 1
                    },
                    {
                        "number": 64,
                        "time": 163.28154630416674,
                        "value": 0
                    },
                    {
                        "number": 64,
                        "time": 163.37430641250006,
                        "value": 1
                    },
                    {
                        "number": 64,
                        "time": 163.65258673750006,
                        "value": 0
                    },
                    {
                        "number": 64,
                        "time": 163.74308440416672,
                        "value": 1
                    },
                    {
                        "number": 64,
                        "time": 163.98742810416672,
                        "value": 0
                    },
                    {
                        "number": 64,
                        "time": 164.0338081583334,
                        "value": 1
                    },
                    {
                        "number": 64,
                        "time": 164.33697534166672,
                        "value": 0
                    },
                    {
                        "number": 64,
                        "time": 164.42973545000004,
                        "value": 1
                    },
                    {
                        "number": 64,
                        "time": 164.6367488625,
                        "value": 0
                    },
                    {
                        "number": 64,
                        "time": 181.35732400000072,
                        "value": 1
                    },
                    {
                        "number": 64,
                        "time": 181.91727831250074,
                        "value": 0
                    },
                    {
                        "number": 64,
                        "time": 182.15935957083408,
                        "value": 1
                    },
                    {
                        "number": 64,
                        "time": 182.45008332500075,
                        "value": 0
                    },
                    {
                        "number": 64,
                        "time": 182.6514406333341,
                        "value": 1
                    },
                    {
                        "number": 64,
                        "time": 183.00098787083408,
                        "value": 0
                    },
                    {
                        "number": 64,
                        "time": 183.24193790833408,
                        "value": 1
                    },
                    {
                        "number": 64,
                        "time": 183.5383177666674,
                        "value": 0
                    },
                    {
                        "number": 64,
                        "time": 183.65935839583406,
                        "value": 1
                    },
                    {
                        "number": 64,
                        "time": 184.0914847541674,
                        "value": 0
                    },
                    {
                        "number": 64,
                        "time": 184.26682398333406,
                        "value": 1
                    },
                    {
                        "number": 64,
                        "time": 184.61863366250074,
                        "value": 0
                    },
                    {
                        "number": 64,
                        "time": 184.94781892500075,
                        "value": 1
                    },
                    {
                        "number": 64,
                        "time": 185.70573688333408,
                        "value": 0
                    },
                    {
                        "number": 64,
                        "time": 185.90822541250074,
                        "value": 1
                    },
                    {
                        "number": 64,
                        "time": 186.26342875416742,
                        "value": 0
                    },
                    {
                        "number": 64,
                        "time": 186.63220674583408,
                        "value": 1
                    },
                    {
                        "number": 64,
                        "time": 186.79510254583406,
                        "value": 0
                    },
                    {
                        "number": 64,
                        "time": 187.0270028166674,
                        "value": 1
                    },
                    {
                        "number": 64,
                        "time": 187.34713831250073,
                        "value": 0
                    },
                    {
                        "number": 64,
                        "time": 187.47383504583408,
                        "value": 1
                    },
                    {
                        "number": 64,
                        "time": 187.8889930916674,
                        "value": 0
                    },
                    {
                        "number": 64,
                        "time": 188.1604860916674,
                        "value": 1
                    },
                    {
                        "number": 64,
                        "time": 188.4319790916674,
                        "value": 0
                    },
                    {
                        "number": 64,
                        "time": 188.73627749583406,
                        "value": 1
                    },
                    {
                        "number": 64,
                        "time": 188.96252166250073,
                        "value": 0
                    },
                    {
                        "number": 64,
                        "time": 189.10279304583406,
                        "value": 1
                    },
                    {
                        "number": 64,
                        "time": 189.51116376666738,
                        "value": 0
                    },
                    {
                        "number": 64,
                        "time": 189.69442154166737,
                        "value": 1
                    },
                    {
                        "number": 64,
                        "time": 190.0518873250007,
                        "value": 0
                    },
                    {
                        "number": 64,
                        "time": 190.3776789250007,
                        "value": 1
                    },
                    {
                        "number": 64,
                        "time": 191.14012176666736,
                        "value": 0
                    },
                    {
                        "number": 64,
                        "time": 191.43310796250069,
                        "value": 1
                    },
                    {
                        "number": 64,
                        "time": 191.692157533334,
                        "value": 0
                    },
                    {
                        "number": 64,
                        "time": 192.03604866666734,
                        "value": 1
                    },
                    {
                        "number": 64,
                        "time": 192.21930644166733,
                        "value": 0
                    },
                    {
                        "number": 64,
                        "time": 192.425188633334,
                        "value": 1
                    },
                    {
                        "number": 64,
                        "time": 192.77360465000066,
                        "value": 0
                    },
                    {
                        "number": 64,
                        "time": 193.04736009166734,
                        "value": 1
                    },
                    {
                        "number": 64,
                        "time": 193.30301600000067,
                        "value": 0
                    },
                    {
                        "number": 64,
                        "time": 193.49532354166735,
                        "value": 1
                    },
                    {
                        "number": 64,
                        "time": 193.71817404583402,
                        "value": 0
                    },
                    {
                        "number": 64,
                        "time": 193.84600200000068,
                        "value": 1
                    },
                    {
                        "number": 64,
                        "time": 194.40143142916736,
                        "value": 0
                    },
                    {
                        "number": 64,
                        "time": 194.5654584500007,
                        "value": 1
                    },
                    {
                        "number": 64,
                        "time": 194.94781109166738,
                        "value": 0
                    },
                    {
                        "number": 64,
                        "time": 195.1242815416674,
                        "value": 1
                    },
                    {
                        "number": 64,
                        "time": 195.4907970916674,
                        "value": 0
                    },
                    {
                        "number": 64,
                        "time": 195.83695066666738,
                        "value": 1
                    },
                    {
                        "number": 64,
                        "time": 196.57563787083404,
                        "value": 0
                    },
                    {
                        "number": 64,
                        "time": 196.80301325833403,
                        "value": 1
                    },
                    {
                        "number": 64,
                        "time": 197.12993607916738,
                        "value": 0
                    },
                    {
                        "number": 64,
                        "time": 197.49645162916738,
                        "value": 1
                    },
                    {
                        "number": 64,
                        "time": 197.66387231250073,
                        "value": 0
                    },
                    {
                        "number": 64,
                        "time": 197.92857798750072,
                        "value": 1
                    },
                    {
                        "number": 64,
                        "time": 199.65142731666742,
                        "value": 0
                    },
                    {
                        "number": 64,
                        "time": 200.40595161250073,
                        "value": 1
                    },
                    {
                        "number": 64,
                        "time": 201.99079200000074,
                        "value": 0
                    },
                    {
                        "number": 64,
                        "time": 202.19101808750074,
                        "value": 1
                    },
                    {
                        "number": 64,
                        "time": 202.55074631250073,
                        "value": 0
                    },
                    {
                        "number": 64,
                        "time": 202.87653791250074,
                        "value": 1
                    },
                    {
                        "number": 64,
                        "time": 203.08694498750074,
                        "value": 0
                    },
                    {
                        "number": 64,
                        "time": 203.30527060833407,
                        "value": 1
                    },
                    {
                        "number": 64,
                        "time": 203.63219342916742,
                        "value": 0
                    },
                    {
                        "number": 64,
                        "time": 203.96250991250074,
                        "value": 1
                    },
                    {
                        "number": 64,
                        "time": 204.17744187083406,
                        "value": 0
                    },
                    {
                        "number": 64,
                        "time": 204.44780365000074,
                        "value": 1
                    },
                    {
                        "number": 64,
                        "time": 204.71929665000076,
                        "value": 0
                    },
                    {
                        "number": 64,
                        "time": 205.04169458750076,
                        "value": 1
                    },
                    {
                        "number": 64,
                        "time": 205.26341387083409,
                        "value": 0
                    },
                    {
                        "number": 64,
                        "time": 205.37201107083408,
                        "value": 1
                    },
                    {
                        "number": 64,
                        "time": 207.42970176666736,
                        "value": 0
                    },
                    {
                        "number": 64,
                        "time": 207.65368349166735,
                        "value": 1
                    },
                    {
                        "number": 64,
                        "time": 207.981737533334,
                        "value": 0
                    },
                    {
                        "number": 64,
                        "time": 208.29961058750067,
                        "value": 1
                    },
                    {
                        "number": 64,
                        "time": 208.51567376666733,
                        "value": 0
                    },
                    {
                        "number": 64,
                        "time": 208.79169165000067,
                        "value": 1
                    },
                    {
                        "number": 64,
                        "time": 209.0665783125007,
                        "value": 0
                    },
                    {
                        "number": 64,
                        "time": 209.43761874583402,
                        "value": 1
                    },
                    {
                        "number": 64,
                        "time": 210.09033316666734,
                        "value": 0
                    },
                    {
                        "number": 64,
                        "time": 210.24757286250068,
                        "value": 1
                    },
                    {
                        "number": 64,
                        "time": 210.69779875416734,
                        "value": 0
                    },
                    {
                        "number": 64,
                        "time": 210.90481216666734,
                        "value": 1
                    },
                    {
                        "number": 64,
                        "time": 212.86069298750064,
                        "value": 0
                    },
                    {
                        "number": 64,
                        "time": 213.02698245000065,
                        "value": 1
                    },
                    {
                        "number": 64,
                        "time": 213.41838485833398,
                        "value": 0
                    },
                    {
                        "number": 64,
                        "time": 213.70232128750064,
                        "value": 1
                    },
                    {
                        "number": 64,
                        "time": 213.9455337666673,
                        "value": 0
                    },
                    {
                        "number": 64,
                        "time": 214.11295445000064,
                        "value": 1
                    },
                    {
                        "number": 64,
                        "time": 214.50209441666732,
                        "value": 0
                    },
                    {
                        "number": 64,
                        "time": 214.758881545834,
                        "value": 1
                    },
                    {
                        "number": 64,
                        "time": 215.03150576666732,
                        "value": 0
                    },
                    {
                        "number": 64,
                        "time": 215.203451333334,
                        "value": 1
                    },
                    {
                        "number": 64,
                        "time": 215.58354153333397,
                        "value": 0
                    },
                    {
                        "number": 64,
                        "time": 215.85050965000065,
                        "value": 1
                    },
                    {
                        "number": 64,
                        "time": 216.12087142916732,
                        "value": 0
                    },
                    {
                        "number": 64,
                        "time": 216.25774915000065,
                        "value": 1
                    },
                    {
                        "number": 64,
                        "time": 218.29620909166727,
                        "value": 0
                    },
                    {
                        "number": 64,
                        "time": 218.53942157083392,
                        "value": 1
                    },
                    {
                        "number": 64,
                        "time": 218.8414575333339,
                        "value": 0
                    },
                    {
                        "number": 64,
                        "time": 219.10842565000058,
                        "value": 1
                    },
                    {
                        "number": 64,
                        "time": 219.37426254583391,
                        "value": 0
                    },
                    {
                        "number": 64,
                        "time": 219.54733933333392,
                        "value": 1
                    },
                    {
                        "number": 64,
                        "time": 219.92856075416725,
                        "value": 0
                    },
                    {
                        "number": 64,
                        "time": 220.27132066666724,
                        "value": 1
                    },
                    {
                        "number": 64,
                        "time": 220.46249698750057,
                        "value": 0
                    },
                    {
                        "number": 64,
                        "time": 220.65932941250057,
                        "value": 1
                    },
                    {
                        "number": 64,
                        "time": 221.0088766500006,
                        "value": 0
                    },
                    {
                        "number": 64,
                        "time": 221.35729266666726,
                        "value": 1
                    },
                    {
                        "number": 64,
                        "time": 221.5484689875006,
                        "value": 0
                    },
                    {
                        "number": 64,
                        "time": 221.68987159166727,
                        "value": 1
                    },
                    {
                        "number": 64,
                        "time": 223.1864767541673,
                        "value": 0
                    },
                    {
                        "number": 64,
                        "time": 223.35163499583396,
                        "value": 1
                    },
                    {
                        "number": 64,
                        "time": 223.72267542916728,
                        "value": 0
                    },
                    {
                        "number": 64,
                        "time": 223.8618155916673,
                        "value": 1
                    },
                    {
                        "number": 64,
                        "time": 225.36294563750067,
                        "value": 0
                    },
                    {
                        "number": 64,
                        "time": 225.506610683334,
                        "value": 1
                    },
                    {
                        "number": 64,
                        "time": 225.89461942916734,
                        "value": 0
                    },
                    {
                        "number": 64,
                        "time": 226.08240208750067,
                        "value": 1
                    },
                    {
                        "number": 64,
                        "time": 227.536020858334,
                        "value": 0
                    },
                    {
                        "number": 64,
                        "time": 227.67289857916734,
                        "value": 1
                    },
                    {
                        "number": 64,
                        "time": 228.065432208334,
                        "value": 0
                    },
                    {
                        "number": 64,
                        "time": 228.17742307083398,
                        "value": 1
                    },
                    {
                        "number": 64,
                        "time": 229.7068336375007,
                        "value": 0
                    },
                    {
                        "number": 64,
                        "time": 229.83805525416736,
                        "value": 1
                    },
                    {
                        "number": 64,
                        "time": 230.7882807541674,
                        "value": 0
                    },
                    {
                        "number": 64,
                        "time": 230.89235307083408,
                        "value": 1
                    },
                    {
                        "number": 64,
                        "time": 231.32221698750078,
                        "value": 0
                    },
                    {
                        "number": 64,
                        "time": 231.40366488750078,
                        "value": 1
                    },
                    {
                        "number": 64,
                        "time": 231.87312153333414,
                        "value": 0
                    },
                    {
                        "number": 64,
                        "time": 231.93873234166747,
                        "value": 1
                    },
                    {
                        "number": 64,
                        "time": 232.40932020833418,
                        "value": 0
                    },
                    {
                        "number": 64,
                        "time": 232.52809839583418,
                        "value": 1
                    },
                    {
                        "number": 64,
                        "time": 232.96248719583417,
                        "value": 0
                    },
                    {
                        "number": 64,
                        "time": 233.07108439583416,
                        "value": 1
                    },
                    {
                        "number": 64,
                        "time": 233.50321075416753,
                        "value": 0
                    },
                    {
                        "number": 64,
                        "time": 233.56882156250086,
                        "value": 1
                    },
                    {
                        "number": 64,
                        "time": 234.03827820833422,
                        "value": 0
                    },
                    {
                        "number": 64,
                        "time": 234.13669442083423,
                        "value": 1
                    },
                    {
                        "number": 64,
                        "time": 234.5790017666676,
                        "value": 0
                    },
                    {
                        "number": 64,
                        "time": 234.75434099583427,
                        "value": 1
                    },
                    {
                        "number": 64,
                        "time": 235.12311898750096,
                        "value": 0
                    },
                    {
                        "number": 64,
                        "time": 235.68420452083433,
                        "value": 1
                    },
                    {
                        "number": 64,
                        "time": 236.21700953333433,
                        "value": 0
                    },
                    {
                        "number": 64,
                        "time": 236.8459683166677,
                        "value": 1
                    },
                    {
                        "number": 64,
                        "time": 237.29958787083436,
                        "value": 0
                    },
                    {
                        "number": 64,
                        "time": 238.49076340833443,
                        "value": 1
                    },
                    {
                        "number": 64,
                        "time": 238.92175854583442,
                        "value": 0
                    },
                    {
                        "number": 64,
                        "time": 239.01791231666775,
                        "value": 1
                    },
                    {
                        "number": 64,
                        "time": 239.4704006500011,
                        "value": 0
                    },
                    {
                        "number": 64,
                        "time": 239.56089831666776,
                        "value": 1
                    },
                    {
                        "number": 64,
                        "time": 239.9998120000011,
                        "value": 0
                    },
                    {
                        "number": 64,
                        "time": 240.11972140833444,
                        "value": 1
                    },
                    {
                        "number": 64,
                        "time": 240.56089753333444,
                        "value": 0
                    },
                    {
                        "number": 64,
                        "time": 241.15818213333446,
                        "value": 1
                    },
                    {
                        "number": 64,
                        "time": 241.64573831250115,
                        "value": 0
                    },
                    {
                        "number": 64,
                        "time": 242.21134872916784,
                        "value": 1
                    },
                    {
                        "number": 64,
                        "time": 242.74076007916784,
                        "value": 0
                    },
                    {
                        "number": 64,
                        "time": 243.87198091250124,
                        "value": 1
                    },
                    {
                        "number": 64,
                        "time": 244.35161854583455,
                        "value": 0
                    },
                    {
                        "number": 64,
                        "time": 244.41836057500123,
                        "value": 1
                    },
                    {
                        "number": 64,
                        "time": 244.90026065000123,
                        "value": 0
                    },
                    {
                        "number": 64,
                        "time": 245.0043329666679,
                        "value": 1
                    },
                    {
                        "number": 64,
                        "time": 245.37311095833456,
                        "value": 0
                    },
                    {
                        "number": 64,
                        "time": 245.62084832083457,
                        "value": 1
                    },
                    {
                        "number": 64,
                        "time": 245.98283898750125,
                        "value": 0
                    },
                    {
                        "number": 64,
                        "time": 246.1004859541679,
                        "value": 1
                    },
                    {
                        "number": 64,
                        "time": 246.26225053333457,
                        "value": 0
                    },
                    {
                        "number": 64,
                        "time": 246.38781604583457,
                        "value": 1
                    },
                    {
                        "number": 64,
                        "time": 246.52582498750124,
                        "value": 0
                    },
                    {
                        "number": 64,
                        "time": 246.73057595833458,
                        "value": 1
                    },
                    {
                        "number": 64,
                        "time": 247.0676797666679,
                        "value": 0
                    },
                    {
                        "number": 64,
                        "time": 247.15930865416792,
                        "value": 1
                    },
                    {
                        "number": 64,
                        "time": 247.3425664291679,
                        "value": 0
                    },
                    {
                        "number": 64,
                        "time": 247.5020685666679,
                        "value": 1
                    },
                    {
                        "number": 64,
                        "time": 247.61971553333456,
                        "value": 0
                    },
                    {
                        "number": 64,
                        "time": 247.80976063333455,
                        "value": 1
                    },
                    {
                        "number": 64,
                        "time": 248.15930787083454,
                        "value": 0
                    },
                    {
                        "number": 64,
                        "time": 248.28826704583454,
                        "value": 1
                    },
                    {
                        "number": 64,
                        "time": 248.43193209166787,
                        "value": 0
                    },
                    {
                        "number": 64,
                        "time": 248.5755971375012,
                        "value": 1
                    },
                    {
                        "number": 64,
                        "time": 248.69663776666786,
                        "value": 0
                    },
                    {
                        "number": 64,
                        "time": 248.89573263333452,
                        "value": 1
                    },
                    {
                        "number": 64,
                        "time": 249.24980475416785,
                        "value": 0
                    },
                    {
                        "number": 64,
                        "time": 249.4862299083345,
                        "value": 1
                    },
                    {
                        "number": 64,
                        "time": 249.78034732500117,
                        "value": 0
                    },
                    {
                        "number": 64,
                        "time": 249.93532457916783,
                        "value": 1
                    },
                    {
                        "number": 64,
                        "time": 250.33917041666783,
                        "value": 0
                    },
                    {
                        "number": 64,
                        "time": 250.4364554083345,
                        "value": 1
                    },
                    {
                        "number": 64,
                        "time": 250.78374020416783,
                        "value": 0
                    },
                    {
                        "number": 64,
                        "time": 250.9636043166678,
                        "value": 1
                    },
                    {
                        "number": 64,
                        "time": 251.41043654583447,
                        "value": 0
                    },
                    {
                        "number": 64,
                        "time": 251.98509672916782,
                        "value": 1
                    },
                    {
                        "number": 64,
                        "time": 252.49980220833447,
                        "value": 0
                    },
                    {
                        "number": 64,
                        "time": 253.05070675416783,
                        "value": 1
                    },
                    {
                        "number": 64,
                        "time": 253.58464298750118,
                        "value": 0
                    },
                    {
                        "number": 64,
                        "time": 254.17627148333455,
                        "value": 1
                    },
                    {
                        "number": 64,
                        "time": 254.67966475416787,
                        "value": 0
                    },
                    {
                        "number": 64,
                        "time": 255.20342000000124,
                        "value": 1
                    },
                    {
                        "number": 64,
                        "time": 255.4115646333346,
                        "value": 0
                    },
                    {
                        "number": 64,
                        "time": 255.8663154083346,
                        "value": 1
                    },
                    {
                        "number": 64,
                        "time": 256.04165463750127,
                        "value": 0
                    },
                    {
                        "number": 64,
                        "time": 256.3278535083346,
                        "value": 1
                    },
                    {
                        "number": 64,
                        "time": 256.7034188250012,
                        "value": 0
                    },
                    {
                        "number": 64,
                        "time": 257.0461787375012,
                        "value": 1
                    },
                    {
                        "number": 64,
                        "time": 257.27581656666786,
                        "value": 0
                    },
                    {
                        "number": 64,
                        "time": 257.58237741250116,
                        "value": 1
                    },
                    {
                        "number": 64,
                        "time": 257.78939082500113,
                        "value": 0
                    },
                    {
                        "number": 64,
                        "time": 258.10613265833445,
                        "value": 1
                    },
                    {
                        "number": 64,
                        "time": 258.35160757916776,
                        "value": 0
                    },
                    {
                        "number": 64,
                        "time": 258.6231005791677,
                        "value": 1
                    },
                    {
                        "number": 64,
                        "time": 258.8945935791677,
                        "value": 0
                    },
                    {
                        "number": 64,
                        "time": 259.18531733333435,
                        "value": 1
                    },
                    {
                        "number": 64,
                        "time": 259.4568103333344,
                        "value": 0
                    },
                    {
                        "number": 64,
                        "time": 259.75432141250104,
                        "value": 1
                    },
                    {
                        "number": 64,
                        "time": 259.99414022916767,
                        "value": 0
                    },
                    {
                        "number": 64,
                        "time": 260.2645020083343,
                        "value": 1
                    },
                    {
                        "number": 64,
                        "time": 260.51676425416764,
                        "value": 0
                    },
                    {
                        "number": 64,
                        "time": 260.76337039583433,
                        "value": 1
                    },
                    {
                        "number": 64,
                        "time": 261.18984065000103,
                        "value": 0
                    },
                    {
                        "number": 64,
                        "time": 261.43531557083435,
                        "value": 1
                    },
                    {
                        "number": 64,
                        "time": 261.719252000001,
                        "value": 0
                    },
                    {
                        "number": 64,
                        "time": 261.933052737501,
                        "value": 1
                    },
                    {
                        "number": 64,
                        "time": 262.1491159166676,
                        "value": 0
                    },
                    {
                        "number": 64,
                        "time": 262.45002065833427,
                        "value": 1
                    },
                    {
                        "number": 64,
                        "time": 262.7090702291676,
                        "value": 0
                    },
                    {
                        "number": 64,
                        "time": 262.96698857916755,
                        "value": 1
                    },
                    {
                        "number": 64,
                        "time": 263.2712869833342,
                        "value": 0
                    },
                    {
                        "number": 64,
                        "time": 263.5936849208342,
                        "value": 1
                    },
                    {
                        "number": 64,
                        "time": 263.77468025416755,
                        "value": 0
                    },
                    {
                        "number": 64,
                        "time": 264.09142208750086,
                        "value": 1
                    },
                    {
                        "number": 64,
                        "time": 264.33237212500086,
                        "value": 0
                    },
                    {
                        "number": 64,
                        "time": 264.65363884166754,
                        "value": 1
                    },
                    {
                        "number": 64,
                        "time": 264.88101422916753,
                        "value": 0
                    },
                    {
                        "number": 64,
                        "time": 265.1457199041675,
                        "value": 1
                    },
                    {
                        "number": 64,
                        "time": 265.41834412500083,
                        "value": 0
                    },
                    {
                        "number": 64,
                        "time": 265.6683439291675,
                        "value": 1
                    },
                    {
                        "number": 64,
                        "time": 265.96133012500087,
                        "value": 0
                    },
                    {
                        "number": 64,
                        "time": 266.1411942375009,
                        "value": 1
                    },
                    {
                        "number": 64,
                        "time": 266.6287504166675,
                        "value": 0
                    },
                    {
                        "number": 64,
                        "time": 266.9172117291675,
                        "value": 1
                    },
                    {
                        "number": 64,
                        "time": 267.1660803125008,
                        "value": 0
                    },
                    {
                        "number": 64,
                        "time": 267.2463969916675,
                        "value": 1
                    },
                    {
                        "number": 64,
                        "time": 267.70567265000085,
                        "value": 0
                    },
                    {
                        "number": 64,
                        "time": 267.75657758750083,
                        "value": 1
                    },
                    {
                        "number": 64,
                        "time": 268.1570297625008,
                        "value": 0
                    },
                    {
                        "number": 64,
                        "time": 274.754309662501,
                        "value": 1
                    },
                    {
                        "number": 64,
                        "time": 275.30182054583423,
                        "value": 0
                    },
                    {
                        "number": 64,
                        "time": 275.33915083333426,
                        "value": 1
                    },
                    {
                        "number": 64,
                        "time": 275.7916391666676,
                        "value": 0
                    },
                    {
                        "number": 64,
                        "time": 275.8527250916676,
                        "value": 1
                    },
                    {
                        "number": 64,
                        "time": 276.3911862083342,
                        "value": 0
                    },
                    {
                        "number": 64,
                        "time": 276.44435358750087,
                        "value": 1
                    },
                    {
                        "number": 64,
                        "time": 276.8651677375008,
                        "value": 0
                    },
                    {
                        "number": 64,
                        "time": 276.9353034291675,
                        "value": 1
                    },
                    {
                        "number": 64,
                        "time": 277.42738449166745,
                        "value": 0
                    },
                    {
                        "number": 64,
                        "time": 277.49865140416745,
                        "value": 1
                    },
                    {
                        "number": 64,
                        "time": 277.96697682916744,
                        "value": 0
                    },
                    {
                        "number": 64,
                        "time": 278.05521205416744,
                        "value": 1
                    },
                    {
                        "number": 64,
                        "time": 278.45227056666744,
                        "value": 0
                    },
                    {
                        "number": 64,
                        "time": 279.71358179583393,
                        "value": 1
                    },
                    {
                        "number": 64,
                        "time": 280.1932194291673,
                        "value": 0
                    },
                    {
                        "number": 64,
                        "time": 280.361771333334,
                        "value": 1
                    },
                    {
                        "number": 64,
                        "time": 280.74073031250066,
                        "value": 0
                    },
                    {
                        "number": 64,
                        "time": 280.982811570834,
                        "value": 1
                    },
                    {
                        "number": 64,
                        "time": 281.27806020833395,
                        "value": 0
                    },
                    {
                        "number": 64,
                        "time": 281.6287386666673,
                        "value": 1
                    },
                    {
                        "number": 64,
                        "time": 285.21810237083406,
                        "value": 0
                    }
                ],
                "91": [
                    {
                        "number": 91,
                        "time": 0,
                        "value": 1
                    },
                    {
                        "number": 91,
                        "time": 10.859719999999994,
                        "value": 1
                    },
                    {
                        "number": 91,
                        "time": 43.43888000000001,
                        "value": 1
                    },
                    {
                        "number": 91,
                        "time": 54.29860000000009,
                        "value": 1
                    },
                    {
                        "number": 91,
                        "time": 69.50220800000015,
                        "value": 0.47244094488188976
                    },
                    {
                        "number": 91,
                        "time": 99.90942400000002,
                        "value": 1
                    },
                    {
                        "number": 91,
                        "time": 108.59720000000016,
                        "value": 1
                    },
                    {
                        "number": 91,
                        "time": 134.66052800000026,
                        "value": 1
                    },
                    {
                        "number": 91,
                        "time": 143.34830400000033,
                        "value": 1
                    },
                    {
                        "number": 91,
                        "time": 165.067744,
                        "value": 1
                    },
                    {
                        "number": 91,
                        "time": 175.92746400000047,
                        "value": 1
                    },
                    {
                        "number": 91,
                        "time": 199.81884800000074,
                        "value": 1
                    },
                    {
                        "number": 91,
                        "time": 234.56995200000094,
                        "value": 1
                    },
                    {
                        "number": 91,
                        "time": 245.42967200000123,
                        "value": 1
                    },
                    {
                        "number": 91,
                        "time": 256.28939200000127,
                        "value": 1
                    },
                    {
                        "number": 91,
                        "time": 261.719252000001,
                        "value": 1
                    },
                    {
                        "number": 91,
                        "time": 268.23508400000077,
                        "value": 1
                    }
                ]
            },
            "id": 2,
            "name": "Piano left",
            "instrumentNumber": 0,
            "instrument": "acoustic grand piano",
            "instrumentFamily": "piano",
            "channelNumber": 0,
            "isPercussion": false
        },
        {
            "startTime": 0,
            "duration": 0,
            "length": 0,
            "notes": [],
            "controlChanges": {},
            "id": 3,
            "name": "Rhapsodie No. 4 in Es-Dur, Op. 119"
        },
        {
            "startTime": 0,
            "duration": 0,
            "length": 0,
            "notes": [],
            "controlChanges": {},
            "id": 4,
            "name": "Produced 1997 by Bernd Krger."
        },
        {
            "startTime": 0,
            "duration": 0,
            "length": 0,
            "notes": [],
            "controlChanges": {},
            "id": 5,
            "name": "http://www.piano-midi.de"
        },
        {
            "startTime": 0,
            "duration": 0,
            "length": 0,
            "notes": [],
            "controlChanges": {},
            "id": 6,
            "name": "Edition: 2010-11-04"
        }
    ]
}