{
    "header": {
        "PPQ": 480,
        "timeSignature": [
            6,
            8
        ],
        "bpm": 178.30980139259955,
        "name": "Chopin Prelude  No. 22, Opus 28"
    },
    "startTime": 0,
    "duration": 42.39811799999996,
    "tracks": [
        {
            "startTime": 0,
            "duration": 0,
            "length": 0,
            "notes": [],
            "controlChanges": {},
            "id": 0,
            "name": "Chopin Prelude  No. 22, Opus 28"
        },
        {
            "startTime": 1.1777255,
            "duration": 42.39811799999996,
            "length": 294,
            "notes": [
                {
                    "name": "C4",
                    "midi": 60,
                    "time": 1.1777255,
                    "velocity": 0.4330708661417323,
                    "duration": 0.6729859999999999
                },
                {
                    "name": "A3",
                    "midi": 57,
                    "time": 1.1777255,
                    "velocity": 0.5039370078740157,
                    "duration": 0.5047394999999999
                },
                {
                    "name": "D#4",
                    "midi": 63,
                    "time": 1.1777255,
                    "velocity": 0.5354330708661418,
                    "duration": 0.33649299999999993
                },
                {
                    "name": "D#3",
                    "midi": 51,
                    "time": 1.345972,
                    "velocity": 0.5039370078740157,
                    "duration": 0.16824649999999997
                },
                {
                    "name": "D4",
                    "midi": 62,
                    "time": 1.5142185,
                    "velocity": 0.4881889763779528,
                    "duration": 0.33649299999999993
                },
                {
                    "name": "D3",
                    "midi": 50,
                    "time": 1.5142185,
                    "velocity": 0.5039370078740157,
                    "duration": 0.16824649999999997
                },
                {
                    "name": "F#4",
                    "midi": 66,
                    "time": 2.1872045,
                    "velocity": 0.5196850393700787,
                    "duration": 0.33649299999999993
                },
                {
                    "name": "D#4",
                    "midi": 63,
                    "time": 2.1872045,
                    "velocity": 0.4330708661417323,
                    "duration": 0.6729859999999999
                },
                {
                    "name": "C4",
                    "midi": 60,
                    "time": 2.1872045,
                    "velocity": 0.5039370078740157,
                    "duration": 0.16824649999999997
                },
                {
                    "name": "F#3",
                    "midi": 54,
                    "time": 2.355451,
                    "velocity": 0.48031496062992124,
                    "duration": 0.16824649999999997
                },
                {
                    "name": "G3",
                    "midi": 55,
                    "time": 2.5236975,
                    "velocity": 0.49606299212598426,
                    "duration": 0.33649299999999993
                },
                {
                    "name": "G4",
                    "midi": 67,
                    "time": 2.5236975,
                    "velocity": 0.5196850393700787,
                    "duration": 0.33649299999999993
                },
                {
                    "name": "D#4",
                    "midi": 63,
                    "time": 3.1966835,
                    "velocity": 0.4330708661417323,
                    "duration": 0.6729859999999999
                },
                {
                    "name": "C4",
                    "midi": 60,
                    "time": 3.1966835,
                    "velocity": 0.5039370078740157,
                    "duration": 0.16824649999999997
                },
                {
                    "name": "G4",
                    "midi": 67,
                    "time": 3.1966835,
                    "velocity": 0.5196850393700787,
                    "duration": 0.33649299999999993
                },
                {
                    "name": "G3",
                    "midi": 55,
                    "time": 3.3649299999999998,
                    "velocity": 0.49606299212598426,
                    "duration": 0.16824649999999997
                },
                {
                    "name": "F#4",
                    "midi": 66,
                    "time": 3.5331764999999997,
                    "velocity": 0.5118110236220472,
                    "duration": 0.33649299999999993
                },
                {
                    "name": "F#3",
                    "midi": 54,
                    "time": 3.5331764999999997,
                    "velocity": 0.4881889763779528,
                    "duration": 0.33649299999999993
                },
                {
                    "name": "C4",
                    "midi": 60,
                    "time": 3.5331764999999997,
                    "velocity": 0.4251968503937008,
                    "duration": 0.33649299999999993
                },
                {
                    "name": "F#4",
                    "midi": 66,
                    "time": 4.2061625,
                    "velocity": 0.5748031496062992,
                    "duration": 0.3364930000000008
                },
                {
                    "name": "D#4",
                    "midi": 63,
                    "time": 4.2061625,
                    "velocity": 0.5118110236220472,
                    "duration": 0.1682465000000004
                },
                {
                    "name": "A4",
                    "midi": 69,
                    "time": 4.2061625,
                    "velocity": 0.5748031496062992,
                    "duration": 0.3364930000000008
                },
                {
                    "name": "A3",
                    "midi": 57,
                    "time": 4.374409,
                    "velocity": 0.5511811023622047,
                    "duration": 0.1682465000000004
                },
                {
                    "name": "G4",
                    "midi": 67,
                    "time": 4.5426555,
                    "velocity": 0.4645669291338583,
                    "duration": 0.33649299999999993
                },
                {
                    "name": "A#3",
                    "midi": 58,
                    "time": 4.5426555,
                    "velocity": 0.5511811023622047,
                    "duration": 0.33649299999999993
                },
                {
                    "name": "A#4",
                    "midi": 70,
                    "time": 4.5426555,
                    "velocity": 0.5748031496062992,
                    "duration": 0.33649299999999993
                },
                {
                    "name": "A#4",
                    "midi": 70,
                    "time": 5.2156415,
                    "velocity": 0.5511811023622047,
                    "duration": 0.3364930000000008
                },
                {
                    "name": "G5",
                    "midi": 79,
                    "time": 5.2156415,
                    "velocity": 0.6220472440944882,
                    "duration": 0.3364930000000008
                },
                {
                    "name": "D#5",
                    "midi": 75,
                    "time": 5.2156415,
                    "velocity": 0.5196850393700787,
                    "duration": 0.3364930000000008
                },
                {
                    "name": "G4",
                    "midi": 67,
                    "time": 5.383888000000001,
                    "velocity": 0.5590551181102362,
                    "duration": 0.1682465000000004
                },
                {
                    "name": "F#5",
                    "midi": 78,
                    "time": 5.552134500000001,
                    "velocity": 0.6062992125984252,
                    "duration": 0.33649299999999993
                },
                {
                    "name": "A4",
                    "midi": 69,
                    "time": 5.552134500000001,
                    "velocity": 0.5039370078740157,
                    "duration": 0.33649299999999993
                },
                {
                    "name": "F#4",
                    "midi": 66,
                    "time": 5.552134500000001,
                    "velocity": 0.5039370078740157,
                    "duration": 0.33649299999999993
                },
                {
                    "name": "D5",
                    "midi": 74,
                    "time": 5.552134500000001,
                    "velocity": 0.5039370078740157,
                    "duration": 0.33649299999999993
                },
                {
                    "name": "F5",
                    "midi": 77,
                    "time": 6.225120500000001,
                    "velocity": 0.5905511811023622,
                    "duration": 0.3364930000000008
                },
                {
                    "name": "G#4",
                    "midi": 68,
                    "time": 6.225120500000001,
                    "velocity": 0.5275590551181102,
                    "duration": 0.3364930000000008
                },
                {
                    "name": "C#5",
                    "midi": 73,
                    "time": 6.225120500000001,
                    "velocity": 0.5039370078740157,
                    "duration": 0.3364930000000008
                },
                {
                    "name": "F4",
                    "midi": 65,
                    "time": 6.393367000000001,
                    "velocity": 0.5354330708661418,
                    "duration": 0.1682465000000004
                },
                {
                    "name": "E4",
                    "midi": 64,
                    "time": 6.561613500000002,
                    "velocity": 0.47244094488188976,
                    "duration": 0.33649299999999993
                },
                {
                    "name": "G4",
                    "midi": 67,
                    "time": 6.561613500000002,
                    "velocity": 0.47244094488188976,
                    "duration": 0.33649299999999993
                },
                {
                    "name": "E5",
                    "midi": 76,
                    "time": 6.561613500000002,
                    "velocity": 0.5826771653543307,
                    "duration": 0.33649299999999993
                },
                {
                    "name": "C5",
                    "midi": 72,
                    "time": 6.561613500000002,
                    "velocity": 0.47244094488188976,
                    "duration": 0.33649299999999993
                },
                {
                    "name": "C#5",
                    "midi": 73,
                    "time": 7.234599500000002,
                    "velocity": 0.48031496062992124,
                    "duration": 0.3364930000000008
                },
                {
                    "name": "G#4",
                    "midi": 68,
                    "time": 7.234599500000002,
                    "velocity": 0.5039370078740157,
                    "duration": 0.3364930000000008
                },
                {
                    "name": "F5",
                    "midi": 77,
                    "time": 7.234599500000002,
                    "velocity": 0.5669291338582677,
                    "duration": 0.3364930000000008
                },
                {
                    "name": "F4",
                    "midi": 65,
                    "time": 7.402846000000002,
                    "velocity": 0.5118110236220472,
                    "duration": 0.1682465000000004
                },
                {
                    "name": "E4",
                    "midi": 64,
                    "time": 7.5710925000000024,
                    "velocity": 0.4566929133858268,
                    "duration": 0.33649299999999993
                },
                {
                    "name": "C5",
                    "midi": 72,
                    "time": 7.5710925000000024,
                    "velocity": 0.4566929133858268,
                    "duration": 0.33649299999999993
                },
                {
                    "name": "G4",
                    "midi": 67,
                    "time": 7.5710925000000024,
                    "velocity": 0.4566929133858268,
                    "duration": 0.33649299999999993
                },
                {
                    "name": "E5",
                    "midi": 76,
                    "time": 7.5710925000000024,
                    "velocity": 0.5590551181102362,
                    "duration": 0.33649299999999993
                },
                {
                    "name": "C5",
                    "midi": 72,
                    "time": 8.244078500000002,
                    "velocity": 0.5354330708661418,
                    "duration": 0.1682465000000004
                },
                {
                    "name": "D#4",
                    "midi": 63,
                    "time": 8.244078500000002,
                    "velocity": 0.44881889763779526,
                    "duration": 0.1682465000000004
                },
                {
                    "name": "A4",
                    "midi": 69,
                    "time": 8.244078500000002,
                    "velocity": 0.44881889763779526,
                    "duration": 0.1682465000000004
                },
                {
                    "name": "D#5",
                    "midi": 75,
                    "time": 8.244078500000002,
                    "velocity": 0.5354330708661418,
                    "duration": 0.1682465000000004
                },
                {
                    "name": "D#5",
                    "midi": 75,
                    "time": 9.253557500000003,
                    "velocity": 0.5669291338582677,
                    "duration": 0.3364930000000008
                },
                {
                    "name": "A4",
                    "midi": 69,
                    "time": 9.253557500000003,
                    "velocity": 0.5511811023622047,
                    "duration": 0.6729860000000016
                },
                {
                    "name": "C5",
                    "midi": 72,
                    "time": 9.253557500000003,
                    "velocity": 0.47244094488188976,
                    "duration": 0.6729860000000016
                },
                {
                    "name": "D#4",
                    "midi": 63,
                    "time": 9.421804000000003,
                    "velocity": 0.5511811023622047,
                    "duration": 0.1682465000000004
                },
                {
                    "name": "D5",
                    "midi": 74,
                    "time": 9.590050500000004,
                    "velocity": 0.5511811023622047,
                    "duration": 0.3364930000000008
                },
                {
                    "name": "D4",
                    "midi": 62,
                    "time": 9.590050500000004,
                    "velocity": 0.5511811023622047,
                    "duration": 0.3364930000000008
                },
                {
                    "name": "F#5",
                    "midi": 78,
                    "time": 10.263036500000005,
                    "velocity": 0.5669291338582677,
                    "duration": 0.3364930000000008
                },
                {
                    "name": "D#5",
                    "midi": 75,
                    "time": 10.263036500000005,
                    "velocity": 0.47244094488188976,
                    "duration": 0.6729860000000016
                },
                {
                    "name": "C5",
                    "midi": 72,
                    "time": 10.263036500000005,
                    "velocity": 0.5511811023622047,
                    "duration": 0.1682465000000004
                },
                {
                    "name": "F#4",
                    "midi": 66,
                    "time": 10.431283000000006,
                    "velocity": 0.5275590551181102,
                    "duration": 0.1682465000000004
                },
                {
                    "name": "G4",
                    "midi": 67,
                    "time": 10.599529500000006,
                    "velocity": 0.5433070866141733,
                    "duration": 0.3364930000000008
                },
                {
                    "name": "G5",
                    "midi": 79,
                    "time": 10.599529500000006,
                    "velocity": 0.5669291338582677,
                    "duration": 0.3364930000000008
                },
                {
                    "name": "D#5",
                    "midi": 75,
                    "time": 11.272515500000008,
                    "velocity": 0.49606299212598426,
                    "duration": 0.6729860000000016
                },
                {
                    "name": "C5",
                    "midi": 72,
                    "time": 11.272515500000008,
                    "velocity": 0.5748031496062992,
                    "duration": 0.6729860000000016
                },
                {
                    "name": "G5",
                    "midi": 79,
                    "time": 11.272515500000008,
                    "velocity": 0.5905511811023622,
                    "duration": 0.3364930000000008
                },
                {
                    "name": "G4",
                    "midi": 67,
                    "time": 11.440762000000008,
                    "velocity": 0.5669291338582677,
                    "duration": 0.1682465000000004
                },
                {
                    "name": "F#5",
                    "midi": 78,
                    "time": 11.609008500000009,
                    "velocity": 0.5826771653543307,
                    "duration": 0.3364930000000008
                },
                {
                    "name": "F#4",
                    "midi": 66,
                    "time": 11.609008500000009,
                    "velocity": 0.5590551181102362,
                    "duration": 0.3364930000000008
                },
                {
                    "name": "F#5",
                    "midi": 78,
                    "time": 12.28199450000001,
                    "velocity": 0.5196850393700787,
                    "duration": 0.3364930000000008
                },
                {
                    "name": "A5",
                    "midi": 81,
                    "time": 12.28199450000001,
                    "velocity": 0.6220472440944882,
                    "duration": 0.3364930000000008
                },
                {
                    "name": "D#5",
                    "midi": 75,
                    "time": 12.28199450000001,
                    "velocity": 0.5511811023622047,
                    "duration": 0.1682465000000004
                },
                {
                    "name": "A4",
                    "midi": 69,
                    "time": 12.45024100000001,
                    "velocity": 0.5826771653543307,
                    "duration": 0.1682465000000004
                },
                {
                    "name": "G5",
                    "midi": 79,
                    "time": 12.618487500000011,
                    "velocity": 0.5039370078740157,
                    "duration": 0.3364930000000008
                },
                {
                    "name": "A#4",
                    "midi": 70,
                    "time": 12.618487500000011,
                    "velocity": 0.5826771653543307,
                    "duration": 0.3364930000000008
                },
                {
                    "name": "A#5",
                    "midi": 82,
                    "time": 12.618487500000011,
                    "velocity": 0.6141732283464567,
                    "duration": 0.3364930000000008
                },
                {
                    "name": "G5",
                    "midi": 79,
                    "time": 13.291473500000013,
                    "velocity": 0.5433070866141733,
                    "duration": 0.3364930000000008
                },
                {
                    "name": "A#5",
                    "midi": 82,
                    "time": 13.291473500000013,
                    "velocity": 0.6456692913385826,
                    "duration": 0.3364930000000008
                },
                {
                    "name": "A#4",
                    "midi": 70,
                    "time": 13.459720000000013,
                    "velocity": 0.6141732283464567,
                    "duration": 0.1682465000000004
                },
                {
                    "name": "G5",
                    "midi": 79,
                    "time": 13.796213000000014,
                    "velocity": 0.5354330708661418,
                    "duration": 0.3364930000000008
                },
                {
                    "name": "A5",
                    "midi": 81,
                    "time": 13.796213000000014,
                    "velocity": 0.6377952755905512,
                    "duration": 0.3364930000000008
                },
                {
                    "name": "E5",
                    "midi": 76,
                    "time": 13.796213000000014,
                    "velocity": 0.49606299212598426,
                    "duration": 0.3364930000000008
                },
                {
                    "name": "A4",
                    "midi": 69,
                    "time": 13.964459500000014,
                    "velocity": 0.6141732283464567,
                    "duration": 0.1682465000000004
                },
                {
                    "name": "F5",
                    "midi": 77,
                    "time": 14.300952500000015,
                    "velocity": 0.5433070866141733,
                    "duration": 0.3364930000000008
                },
                {
                    "name": "G#5",
                    "midi": 80,
                    "time": 14.300952500000015,
                    "velocity": 0.6456692913385826,
                    "duration": 0.3364930000000008
                },
                {
                    "name": "G#4",
                    "midi": 68,
                    "time": 14.469199000000016,
                    "velocity": 0.6141732283464567,
                    "duration": 0.1682465000000004
                },
                {
                    "name": "G5",
                    "midi": 79,
                    "time": 14.805692000000017,
                    "velocity": 0.6377952755905512,
                    "duration": 0.3364930000000008
                },
                {
                    "name": "F5",
                    "midi": 77,
                    "time": 14.805692000000017,
                    "velocity": 0.5354330708661418,
                    "duration": 0.3364930000000008
                },
                {
                    "name": "D5",
                    "midi": 74,
                    "time": 14.805692000000017,
                    "velocity": 0.49606299212598426,
                    "duration": 0.3364930000000008
                },
                {
                    "name": "G4",
                    "midi": 67,
                    "time": 14.973938500000017,
                    "velocity": 0.6141732283464567,
                    "duration": 0.1682465000000004
                },
                {
                    "name": "C5",
                    "midi": 72,
                    "time": 15.310431500000018,
                    "velocity": 0.5433070866141733,
                    "duration": 0.3364930000000008
                },
                {
                    "name": "G4",
                    "midi": 67,
                    "time": 15.310431500000018,
                    "velocity": 0.5433070866141733,
                    "duration": 0.3364930000000008
                },
                {
                    "name": "D#5",
                    "midi": 75,
                    "time": 15.310431500000018,
                    "velocity": 0.6456692913385826,
                    "duration": 0.3364930000000008
                },
                {
                    "name": "D#4",
                    "midi": 63,
                    "time": 15.478678000000018,
                    "velocity": 0.6220472440944882,
                    "duration": 0.1682465000000004
                },
                {
                    "name": "C5",
                    "midi": 72,
                    "time": 15.815171000000019,
                    "velocity": 0.5590551181102362,
                    "duration": 0.33649299999999904
                },
                {
                    "name": "F#4",
                    "midi": 66,
                    "time": 15.815171000000019,
                    "velocity": 0.5590551181102362,
                    "duration": 0.33649299999999904
                },
                {
                    "name": "D#5",
                    "midi": 75,
                    "time": 15.815171000000019,
                    "velocity": 0.6614173228346457,
                    "duration": 0.33649299999999904
                },
                {
                    "name": "D#4",
                    "midi": 63,
                    "time": 15.98341750000002,
                    "velocity": 0.6456692913385826,
                    "duration": 0.16824649999999863
                },
                {
                    "name": "G4",
                    "midi": 67,
                    "time": 16.151664000000018,
                    "velocity": 0.5669291338582677,
                    "duration": 0.08412325000000109
                },
                {
                    "name": "C5",
                    "midi": 72,
                    "time": 16.151664000000018,
                    "velocity": 0.6771653543307087,
                    "duration": 0.08412325000000109
                },
                {
                    "name": "D#4",
                    "midi": 63,
                    "time": 16.151664000000018,
                    "velocity": 0.5669291338582677,
                    "duration": 0.08412325000000109
                },
                {
                    "name": "D#5",
                    "midi": 75,
                    "time": 16.151664000000018,
                    "velocity": 0.6771653543307087,
                    "duration": 0.08412325000000109
                },
                {
                    "name": "C5",
                    "midi": 72,
                    "time": 16.31991050000002,
                    "velocity": 0.6771653543307087,
                    "duration": 0.08412325000000109
                },
                {
                    "name": "D#4",
                    "midi": 63,
                    "time": 16.31991050000002,
                    "velocity": 0.5669291338582677,
                    "duration": 0.08412325000000109
                },
                {
                    "name": "G#4",
                    "midi": 68,
                    "time": 16.31991050000002,
                    "velocity": 0.5669291338582677,
                    "duration": 0.08412325000000109
                },
                {
                    "name": "D#5",
                    "midi": 75,
                    "time": 16.31991050000002,
                    "velocity": 0.6771653543307087,
                    "duration": 0.08412325000000109
                },
                {
                    "name": "F5",
                    "midi": 77,
                    "time": 17.329389500000023,
                    "velocity": 0.6692913385826772,
                    "duration": 0.33649299999999727
                },
                {
                    "name": "C#5",
                    "midi": 73,
                    "time": 17.329389500000023,
                    "velocity": 0.5826771653543307,
                    "duration": 0.33649299999999727
                },
                {
                    "name": "G#4",
                    "midi": 68,
                    "time": 17.329389500000023,
                    "velocity": 0.5669291338582677,
                    "duration": 0.33649299999999727
                },
                {
                    "name": "F4",
                    "midi": 65,
                    "time": 17.49763600000002,
                    "velocity": 0.6456692913385826,
                    "duration": 0.16824649999999863
                },
                {
                    "name": "A#4",
                    "midi": 70,
                    "time": 17.83412900000002,
                    "velocity": 0.5826771653543307,
                    "duration": 0.33649299999999727
                },
                {
                    "name": "G5",
                    "midi": 79,
                    "time": 17.83412900000002,
                    "velocity": 0.6929133858267716,
                    "duration": 0.33649299999999727
                },
                {
                    "name": "D#5",
                    "midi": 75,
                    "time": 17.83412900000002,
                    "velocity": 0.5826771653543307,
                    "duration": 0.33649299999999727
                },
                {
                    "name": "G4",
                    "midi": 67,
                    "time": 18.002375500000017,
                    "velocity": 0.6692913385826772,
                    "duration": 0.16824649999999863
                },
                {
                    "name": "D#5",
                    "midi": 75,
                    "time": 18.338868500000014,
                    "velocity": 0.5826771653543307,
                    "duration": 0.33649299999999727
                },
                {
                    "name": "C5",
                    "midi": 72,
                    "time": 18.338868500000014,
                    "velocity": 0.5669291338582677,
                    "duration": 0.33649299999999727
                },
                {
                    "name": "G#5",
                    "midi": 80,
                    "time": 18.338868500000014,
                    "velocity": 0.6377952755905512,
                    "duration": 0.33649299999999727
                },
                {
                    "name": "G#4",
                    "midi": 68,
                    "time": 18.507115000000013,
                    "velocity": 0.6456692913385826,
                    "duration": 0.16824649999999863
                },
                {
                    "name": "C5",
                    "midi": 72,
                    "time": 18.84360800000001,
                    "velocity": 0.5826771653543307,
                    "duration": 0.33649299999999727
                },
                {
                    "name": "G#4",
                    "midi": 68,
                    "time": 18.84360800000001,
                    "velocity": 0.5826771653543307,
                    "duration": 0.33649299999999727
                },
                {
                    "name": "D#5",
                    "midi": 75,
                    "time": 18.84360800000001,
                    "velocity": 0.6614173228346457,
                    "duration": 0.33649299999999727
                },
                {
                    "name": "D#4",
                    "midi": 63,
                    "time": 19.01185450000001,
                    "velocity": 0.6692913385826772,
                    "duration": 0.16824649999999863
                },
                {
                    "name": "G#4",
                    "midi": 68,
                    "time": 19.348347500000006,
                    "velocity": 0.5669291338582677,
                    "duration": 0.33649299999999727
                },
                {
                    "name": "C#5",
                    "midi": 73,
                    "time": 19.348347500000006,
                    "velocity": 0.5826771653543307,
                    "duration": 0.33649299999999727
                },
                {
                    "name": "F5",
                    "midi": 77,
                    "time": 19.348347500000006,
                    "velocity": 0.6692913385826772,
                    "duration": 0.33649299999999727
                },
                {
                    "name": "F4",
                    "midi": 65,
                    "time": 19.516594000000005,
                    "velocity": 0.6456692913385826,
                    "duration": 0.16824649999999863
                },
                {
                    "name": "D#5",
                    "midi": 75,
                    "time": 19.853087000000002,
                    "velocity": 0.5826771653543307,
                    "duration": 0.33649299999999727
                },
                {
                    "name": "G5",
                    "midi": 79,
                    "time": 19.853087000000002,
                    "velocity": 0.6929133858267716,
                    "duration": 0.33649299999999727
                },
                {
                    "name": "A#4",
                    "midi": 70,
                    "time": 19.853087000000002,
                    "velocity": 0.5826771653543307,
                    "duration": 0.33649299999999727
                },
                {
                    "name": "G4",
                    "midi": 67,
                    "time": 20.0213335,
                    "velocity": 0.6692913385826772,
                    "duration": 0.16824649999999863
                },
                {
                    "name": "G#5",
                    "midi": 80,
                    "time": 20.357826499999998,
                    "velocity": 0.6377952755905512,
                    "duration": 0.33649299999999727
                },
                {
                    "name": "D#5",
                    "midi": 75,
                    "time": 20.357826499999998,
                    "velocity": 0.5826771653543307,
                    "duration": 0.33649299999999727
                },
                {
                    "name": "C5",
                    "midi": 72,
                    "time": 20.357826499999998,
                    "velocity": 0.5669291338582677,
                    "duration": 0.33649299999999727
                },
                {
                    "name": "G#4",
                    "midi": 68,
                    "time": 20.526072999999997,
                    "velocity": 0.6456692913385826,
                    "duration": 0.16824649999999863
                },
                {
                    "name": "C5",
                    "midi": 72,
                    "time": 20.862565999999994,
                    "velocity": 0.5354330708661418,
                    "duration": 0.33649299999999727
                },
                {
                    "name": "G5",
                    "midi": 79,
                    "time": 20.862565999999994,
                    "velocity": 0.6614173228346457,
                    "duration": 0.33649299999999727
                },
                {
                    "name": "D#5",
                    "midi": 75,
                    "time": 20.862565999999994,
                    "velocity": 0.5590551181102362,
                    "duration": 0.33649299999999727
                },
                {
                    "name": "G4",
                    "midi": 67,
                    "time": 21.030812499999993,
                    "velocity": 0.6692913385826772,
                    "duration": 0.16824649999999863
                },
                {
                    "name": "G#4",
                    "midi": 68,
                    "time": 21.36730549999999,
                    "velocity": 0.5039370078740157,
                    "duration": 0.33649299999999727
                },
                {
                    "name": "D5",
                    "midi": 74,
                    "time": 21.36730549999999,
                    "velocity": 0.5275590551181102,
                    "duration": 0.33649299999999727
                },
                {
                    "name": "F5",
                    "midi": 77,
                    "time": 21.36730549999999,
                    "velocity": 0.6062992125984252,
                    "duration": 0.33649299999999727
                },
                {
                    "name": "F4",
                    "midi": 65,
                    "time": 21.53555199999999,
                    "velocity": 0.5748031496062992,
                    "duration": 0.16824649999999863
                },
                {
                    "name": "F#5",
                    "midi": 78,
                    "time": 21.872044999999986,
                    "velocity": 0.6220472440944882,
                    "duration": 0.33649299999999727
                },
                {
                    "name": "D5",
                    "midi": 74,
                    "time": 21.872044999999986,
                    "velocity": 0.5275590551181102,
                    "duration": 0.33649299999999727
                },
                {
                    "name": "A4",
                    "midi": 69,
                    "time": 21.872044999999986,
                    "velocity": 0.5275590551181102,
                    "duration": 0.33649299999999727
                },
                {
                    "name": "F#4",
                    "midi": 66,
                    "time": 22.040291499999984,
                    "velocity": 0.6062992125984252,
                    "duration": 0.16824649999999863
                },
                {
                    "name": "D5",
                    "midi": 74,
                    "time": 22.37678449999998,
                    "velocity": 0.5275590551181102,
                    "duration": 0.33649299999999727
                },
                {
                    "name": "G5",
                    "midi": 79,
                    "time": 22.37678449999998,
                    "velocity": 0.5669291338582677,
                    "duration": 0.33649299999999727
                },
                {
                    "name": "A#4",
                    "midi": 70,
                    "time": 22.37678449999998,
                    "velocity": 0.5039370078740157,
                    "duration": 0.33649299999999727
                },
                {
                    "name": "G4",
                    "midi": 67,
                    "time": 22.54503099999998,
                    "velocity": 0.5748031496062992,
                    "duration": 0.16824649999999863
                },
                {
                    "name": "C5",
                    "midi": 72,
                    "time": 22.881523999999978,
                    "velocity": 0.5905511811023622,
                    "duration": 0.33649299999999727
                },
                {
                    "name": "G4",
                    "midi": 67,
                    "time": 22.881523999999978,
                    "velocity": 0.5275590551181102,
                    "duration": 0.33649299999999727
                },
                {
                    "name": "A4",
                    "midi": 69,
                    "time": 22.881523999999978,
                    "velocity": 0.5275590551181102,
                    "duration": 0.33649299999999727
                },
                {
                    "name": "C4",
                    "midi": 60,
                    "time": 23.049770499999976,
                    "velocity": 0.6062992125984252,
                    "duration": 0.16824649999999863
                },
                {
                    "name": "G4",
                    "midi": 67,
                    "time": 23.386263499999973,
                    "velocity": 0.5039370078740157,
                    "duration": 0.33649299999999727
                },
                {
                    "name": "D5",
                    "midi": 74,
                    "time": 23.386263499999973,
                    "velocity": 0.6062992125984252,
                    "duration": 0.33649299999999727
                },
                {
                    "name": "A#4",
                    "midi": 70,
                    "time": 23.386263499999973,
                    "velocity": 0.5433070866141733,
                    "duration": 0.33649299999999727
                },
                {
                    "name": "D4",
                    "midi": 62,
                    "time": 23.554509999999972,
                    "velocity": 0.5748031496062992,
                    "duration": 0.16824649999999863
                },
                {
                    "name": "D#4",
                    "midi": 63,
                    "time": 23.89100299999997,
                    "velocity": 0.5275590551181102,
                    "duration": 0.33649299999999727
                },
                {
                    "name": "A#3",
                    "midi": 58,
                    "time": 23.89100299999997,
                    "velocity": 0.5275590551181102,
                    "duration": 0.33649299999999727
                },
                {
                    "name": "G4",
                    "midi": 67,
                    "time": 23.89100299999997,
                    "velocity": 0.5905511811023622,
                    "duration": 0.33649299999999727
                },
                {
                    "name": "G3",
                    "midi": 55,
                    "time": 24.059249499999968,
                    "velocity": 0.6062992125984252,
                    "duration": 0.16824649999999863
                },
                {
                    "name": "C5",
                    "midi": 72,
                    "time": 24.395742499999965,
                    "velocity": 0.6062992125984252,
                    "duration": 0.33649299999999727
                },
                {
                    "name": "G4",
                    "midi": 67,
                    "time": 24.395742499999965,
                    "velocity": 0.5433070866141733,
                    "duration": 0.33649299999999727
                },
                {
                    "name": "D#4",
                    "midi": 63,
                    "time": 24.395742499999965,
                    "velocity": 0.5039370078740157,
                    "duration": 0.33649299999999727
                },
                {
                    "name": "C4",
                    "midi": 60,
                    "time": 24.563988999999964,
                    "velocity": 0.5748031496062992,
                    "duration": 0.16824649999999863
                },
                {
                    "name": "F#4",
                    "midi": 66,
                    "time": 24.90048199999996,
                    "velocity": 0.5275590551181102,
                    "duration": 0.16824649999999863
                },
                {
                    "name": "A#4",
                    "midi": 70,
                    "time": 24.90048199999996,
                    "velocity": 0.5511811023622047,
                    "duration": 0.16824649999999863
                },
                {
                    "name": "A4",
                    "midi": 69,
                    "time": 25.06872849999996,
                    "velocity": 0.6062992125984252,
                    "duration": 0.16824649999999863
                },
                {
                    "name": "C4",
                    "midi": 60,
                    "time": 25.06872849999996,
                    "velocity": 0.6062992125984252,
                    "duration": 0.16824649999999863
                },
                {
                    "name": "C#5",
                    "midi": 73,
                    "time": 25.405221499999957,
                    "velocity": 0.5826771653543307,
                    "duration": 0.33649299999999727
                },
                {
                    "name": "G#4",
                    "midi": 68,
                    "time": 25.405221499999957,
                    "velocity": 0.5669291338582677,
                    "duration": 0.33649299999999727
                },
                {
                    "name": "F5",
                    "midi": 77,
                    "time": 25.405221499999957,
                    "velocity": 0.6692913385826772,
                    "duration": 0.33649299999999727
                },
                {
                    "name": "F4",
                    "midi": 65,
                    "time": 25.573467999999956,
                    "velocity": 0.6456692913385826,
                    "duration": 0.16824649999999863
                },
                {
                    "name": "D#5",
                    "midi": 75,
                    "time": 25.909960999999953,
                    "velocity": 0.5826771653543307,
                    "duration": 0.33649299999999727
                },
                {
                    "name": "A#4",
                    "midi": 70,
                    "time": 25.909960999999953,
                    "velocity": 0.5826771653543307,
                    "duration": 0.33649299999999727
                },
                {
                    "name": "G5",
                    "midi": 79,
                    "time": 25.909960999999953,
                    "velocity": 0.6929133858267716,
                    "duration": 0.33649299999999727
                },
                {
                    "name": "G4",
                    "midi": 67,
                    "time": 26.07820749999995,
                    "velocity": 0.6692913385826772,
                    "duration": 0.16824649999999863
                },
                {
                    "name": "C5",
                    "midi": 72,
                    "time": 26.41470049999995,
                    "velocity": 0.5669291338582677,
                    "duration": 0.33649299999999727
                },
                {
                    "name": "D#5",
                    "midi": 75,
                    "time": 26.41470049999995,
                    "velocity": 0.5826771653543307,
                    "duration": 0.33649299999999727
                },
                {
                    "name": "G#5",
                    "midi": 80,
                    "time": 26.41470049999995,
                    "velocity": 0.6377952755905512,
                    "duration": 0.33649299999999727
                },
                {
                    "name": "G#4",
                    "midi": 68,
                    "time": 26.582946999999947,
                    "velocity": 0.6456692913385826,
                    "duration": 0.16824649999999863
                },
                {
                    "name": "C5",
                    "midi": 72,
                    "time": 26.919439999999945,
                    "velocity": 0.5826771653543307,
                    "duration": 0.33649299999999727
                },
                {
                    "name": "D#5",
                    "midi": 75,
                    "time": 26.919439999999945,
                    "velocity": 0.6614173228346457,
                    "duration": 0.33649299999999727
                },
                {
                    "name": "G#4",
                    "midi": 68,
                    "time": 26.919439999999945,
                    "velocity": 0.5826771653543307,
                    "duration": 0.33649299999999727
                },
                {
                    "name": "D#4",
                    "midi": 63,
                    "time": 27.087686499999943,
                    "velocity": 0.6692913385826772,
                    "duration": 0.16824649999999863
                },
                {
                    "name": "G#4",
                    "midi": 68,
                    "time": 27.42417949999994,
                    "velocity": 0.5669291338582677,
                    "duration": 0.33649299999999727
                },
                {
                    "name": "C#5",
                    "midi": 73,
                    "time": 27.42417949999994,
                    "velocity": 0.5826771653543307,
                    "duration": 0.33649299999999727
                },
                {
                    "name": "F5",
                    "midi": 77,
                    "time": 27.42417949999994,
                    "velocity": 0.6692913385826772,
                    "duration": 0.33649299999999727
                },
                {
                    "name": "F4",
                    "midi": 65,
                    "time": 27.59242599999994,
                    "velocity": 0.6456692913385826,
                    "duration": 0.16824649999999863
                },
                {
                    "name": "G5",
                    "midi": 79,
                    "time": 27.928918999999937,
                    "velocity": 0.6929133858267716,
                    "duration": 0.33649299999999727
                },
                {
                    "name": "D#5",
                    "midi": 75,
                    "time": 27.928918999999937,
                    "velocity": 0.5826771653543307,
                    "duration": 0.33649299999999727
                },
                {
                    "name": "A#4",
                    "midi": 70,
                    "time": 27.928918999999937,
                    "velocity": 0.5826771653543307,
                    "duration": 0.33649299999999727
                },
                {
                    "name": "G4",
                    "midi": 67,
                    "time": 28.097165499999935,
                    "velocity": 0.6692913385826772,
                    "duration": 0.16824649999999863
                },
                {
                    "name": "D#5",
                    "midi": 75,
                    "time": 28.433658499999932,
                    "velocity": 0.5826771653543307,
                    "duration": 0.33649299999999727
                },
                {
                    "name": "G#5",
                    "midi": 80,
                    "time": 28.433658499999932,
                    "velocity": 0.6377952755905512,
                    "duration": 0.33649299999999727
                },
                {
                    "name": "C5",
                    "midi": 72,
                    "time": 28.433658499999932,
                    "velocity": 0.5669291338582677,
                    "duration": 0.33649299999999727
                },
                {
                    "name": "G#4",
                    "midi": 68,
                    "time": 28.60190499999993,
                    "velocity": 0.6456692913385826,
                    "duration": 0.16824649999999863
                },
                {
                    "name": "C5",
                    "midi": 72,
                    "time": 28.93839799999993,
                    "velocity": 0.5196850393700787,
                    "duration": 0.33649299999999727
                },
                {
                    "name": "D#5",
                    "midi": 75,
                    "time": 28.93839799999993,
                    "velocity": 0.5275590551181102,
                    "duration": 0.33649299999999727
                },
                {
                    "name": "G5",
                    "midi": 79,
                    "time": 28.93839799999993,
                    "velocity": 0.6614173228346457,
                    "duration": 0.33649299999999727
                },
                {
                    "name": "G4",
                    "midi": 67,
                    "time": 29.106644499999927,
                    "velocity": 0.6692913385826772,
                    "duration": 0.16824649999999863
                },
                {
                    "name": "G#4",
                    "midi": 68,
                    "time": 29.443137499999924,
                    "velocity": 0.5039370078740157,
                    "duration": 0.33649299999999727
                },
                {
                    "name": "D5",
                    "midi": 74,
                    "time": 29.443137499999924,
                    "velocity": 0.5275590551181102,
                    "duration": 0.33649299999999727
                },
                {
                    "name": "F5",
                    "midi": 77,
                    "time": 29.443137499999924,
                    "velocity": 0.6062992125984252,
                    "duration": 0.33649299999999727
                },
                {
                    "name": "F4",
                    "midi": 65,
                    "time": 29.611383999999923,
                    "velocity": 0.5748031496062992,
                    "duration": 0.16824649999999863
                },
                {
                    "name": "D5",
                    "midi": 74,
                    "time": 29.94787699999992,
                    "velocity": 0.5275590551181102,
                    "duration": 0.33649299999999727
                },
                {
                    "name": "A4",
                    "midi": 69,
                    "time": 29.94787699999992,
                    "velocity": 0.5275590551181102,
                    "duration": 0.33649299999999727
                },
                {
                    "name": "F#5",
                    "midi": 78,
                    "time": 29.94787699999992,
                    "velocity": 0.6220472440944882,
                    "duration": 0.33649299999999727
                },
                {
                    "name": "F#4",
                    "midi": 66,
                    "time": 30.11612349999992,
                    "velocity": 0.6062992125984252,
                    "duration": 0.16824649999999863
                },
                {
                    "name": "D5",
                    "midi": 74,
                    "time": 30.452616499999916,
                    "velocity": 0.5275590551181102,
                    "duration": 0.33649299999999727
                },
                {
                    "name": "G5",
                    "midi": 79,
                    "time": 30.452616499999916,
                    "velocity": 0.5669291338582677,
                    "duration": 0.33649299999999727
                },
                {
                    "name": "A#4",
                    "midi": 70,
                    "time": 30.452616499999916,
                    "velocity": 0.5039370078740157,
                    "duration": 0.33649299999999727
                },
                {
                    "name": "G4",
                    "midi": 67,
                    "time": 30.620862999999915,
                    "velocity": 0.5748031496062992,
                    "duration": 0.16824649999999863
                },
                {
                    "name": "C5",
                    "midi": 72,
                    "time": 30.957355999999912,
                    "velocity": 0.5905511811023622,
                    "duration": 0.33649299999999727
                },
                {
                    "name": "G4",
                    "midi": 67,
                    "time": 30.957355999999912,
                    "velocity": 0.5275590551181102,
                    "duration": 0.33649299999999727
                },
                {
                    "name": "A4",
                    "midi": 69,
                    "time": 30.957355999999912,
                    "velocity": 0.5275590551181102,
                    "duration": 0.33649299999999727
                },
                {
                    "name": "C4",
                    "midi": 60,
                    "time": 31.12560249999991,
                    "velocity": 0.6062992125984252,
                    "duration": 0.16824649999999863
                },
                {
                    "name": "A#4",
                    "midi": 70,
                    "time": 31.462095499999908,
                    "velocity": 0.5433070866141733,
                    "duration": 0.33649299999999727
                },
                {
                    "name": "D5",
                    "midi": 74,
                    "time": 31.462095499999908,
                    "velocity": 0.6062992125984252,
                    "duration": 0.33649299999999727
                },
                {
                    "name": "G4",
                    "midi": 67,
                    "time": 31.462095499999908,
                    "velocity": 0.5039370078740157,
                    "duration": 0.33649299999999727
                },
                {
                    "name": "D4",
                    "midi": 62,
                    "time": 31.630341999999906,
                    "velocity": 0.5748031496062992,
                    "duration": 0.16824649999999863
                },
                {
                    "name": "D#4",
                    "midi": 63,
                    "time": 31.966834999999904,
                    "velocity": 0.5275590551181102,
                    "duration": 0.33649300000000437
                },
                {
                    "name": "A#3",
                    "midi": 58,
                    "time": 31.966834999999904,
                    "velocity": 0.5275590551181102,
                    "duration": 0.33649300000000437
                },
                {
                    "name": "G4",
                    "midi": 67,
                    "time": 31.966834999999904,
                    "velocity": 0.5905511811023622,
                    "duration": 0.33649300000000437
                },
                {
                    "name": "G3",
                    "midi": 55,
                    "time": 32.135081499999906,
                    "velocity": 0.6062992125984252,
                    "duration": 0.16824650000000219
                },
                {
                    "name": "G4",
                    "midi": 67,
                    "time": 32.47157449999991,
                    "velocity": 0.5433070866141733,
                    "duration": 0.33649300000000437
                },
                {
                    "name": "D#4",
                    "midi": 63,
                    "time": 32.47157449999991,
                    "velocity": 0.5039370078740157,
                    "duration": 0.33649300000000437
                },
                {
                    "name": "C5",
                    "midi": 72,
                    "time": 32.47157449999991,
                    "velocity": 0.6062992125984252,
                    "duration": 0.33649300000000437
                },
                {
                    "name": "C4",
                    "midi": 60,
                    "time": 32.63982099999991,
                    "velocity": 0.5748031496062992,
                    "duration": 0.16824650000000219
                },
                {
                    "name": "A#4",
                    "midi": 70,
                    "time": 32.97631399999992,
                    "velocity": 0.5511811023622047,
                    "duration": 0.16824650000000219
                },
                {
                    "name": "F#4",
                    "midi": 66,
                    "time": 32.97631399999992,
                    "velocity": 0.5275590551181102,
                    "duration": 0.16824650000000219
                },
                {
                    "name": "A4",
                    "midi": 69,
                    "time": 33.14456049999992,
                    "velocity": 0.6062992125984252,
                    "duration": 0.16824650000000219
                },
                {
                    "name": "C4",
                    "midi": 60,
                    "time": 33.14456049999992,
                    "velocity": 0.6062992125984252,
                    "duration": 0.16824650000000219
                },
                {
                    "name": "D5",
                    "midi": 74,
                    "time": 33.48105349999992,
                    "velocity": 0.6062992125984252,
                    "duration": 0.33649300000000437
                },
                {
                    "name": "G4",
                    "midi": 67,
                    "time": 33.48105349999992,
                    "velocity": 0.5039370078740157,
                    "duration": 0.33649300000000437
                },
                {
                    "name": "A#4",
                    "midi": 70,
                    "time": 33.48105349999992,
                    "velocity": 0.5433070866141733,
                    "duration": 0.33649300000000437
                },
                {
                    "name": "D4",
                    "midi": 62,
                    "time": 33.649299999999926,
                    "velocity": 0.5748031496062992,
                    "duration": 0.16824650000000219
                },
                {
                    "name": "A#3",
                    "midi": 58,
                    "time": 33.98579299999993,
                    "velocity": 0.5275590551181102,
                    "duration": 0.33649300000000437
                },
                {
                    "name": "G4",
                    "midi": 67,
                    "time": 33.98579299999993,
                    "velocity": 0.5905511811023622,
                    "duration": 0.33649300000000437
                },
                {
                    "name": "D#4",
                    "midi": 63,
                    "time": 33.98579299999993,
                    "velocity": 0.5275590551181102,
                    "duration": 0.33649300000000437
                },
                {
                    "name": "G3",
                    "midi": 55,
                    "time": 34.15403949999993,
                    "velocity": 0.6062992125984252,
                    "duration": 0.16824650000000219
                },
                {
                    "name": "G4",
                    "midi": 67,
                    "time": 34.49053249999994,
                    "velocity": 0.5433070866141733,
                    "duration": 0.16824650000000219
                },
                {
                    "name": "D#4",
                    "midi": 63,
                    "time": 34.49053249999994,
                    "velocity": 0.5039370078740157,
                    "duration": 0.16824650000000219
                },
                {
                    "name": "C5",
                    "midi": 72,
                    "time": 34.49053249999994,
                    "velocity": 0.6062992125984252,
                    "duration": 0.33649300000000437
                },
                {
                    "name": "F#4",
                    "midi": 66,
                    "time": 34.65877899999994,
                    "velocity": 0.5748031496062992,
                    "duration": 0.16824650000000219
                },
                {
                    "name": "C4",
                    "midi": 60,
                    "time": 34.65877899999994,
                    "velocity": 0.5748031496062992,
                    "duration": 0.16824650000000219
                },
                {
                    "name": "G4",
                    "midi": 67,
                    "time": 34.99527199999994,
                    "velocity": 0.5905511811023622,
                    "duration": 0.33649300000000437
                },
                {
                    "name": "A#3",
                    "midi": 58,
                    "time": 34.99527199999994,
                    "velocity": 0.5275590551181102,
                    "duration": 0.33649300000000437
                },
                {
                    "name": "D#4",
                    "midi": 63,
                    "time": 34.99527199999994,
                    "velocity": 0.5275590551181102,
                    "duration": 0.33649300000000437
                },
                {
                    "name": "G3",
                    "midi": 55,
                    "time": 35.163518499999945,
                    "velocity": 0.6062992125984252,
                    "duration": 0.16824650000000219
                },
                {
                    "name": "C4",
                    "midi": 60,
                    "time": 35.50001149999995,
                    "velocity": 0.4881889763779528,
                    "duration": 0.6729860000000087
                },
                {
                    "name": "D#4",
                    "midi": 63,
                    "time": 35.50001149999995,
                    "velocity": 0.5905511811023622,
                    "duration": 0.33649300000000437
                },
                {
                    "name": "A3",
                    "midi": 57,
                    "time": 35.50001149999995,
                    "velocity": 0.5748031496062992,
                    "duration": 0.5047395000000066
                },
                {
                    "name": "D#3",
                    "midi": 51,
                    "time": 35.66825799999995,
                    "velocity": 0.5511811023622047,
                    "duration": 0.16824650000000219
                },
                {
                    "name": "D3",
                    "midi": 50,
                    "time": 35.836504499999954,
                    "velocity": 0.5511811023622047,
                    "duration": 0.16824650000000219
                },
                {
                    "name": "D4",
                    "midi": 62,
                    "time": 35.836504499999954,
                    "velocity": 0.5511811023622047,
                    "duration": 0.33649300000000437
                },
                {
                    "name": "D#4",
                    "midi": 63,
                    "time": 36.509490499999956,
                    "velocity": 0.4881889763779528,
                    "duration": 0.6729860000000016
                },
                {
                    "name": "C4",
                    "midi": 60,
                    "time": 36.509490499999956,
                    "velocity": 0.5748031496062992,
                    "duration": 0.16824650000000219
                },
                {
                    "name": "F#4",
                    "midi": 66,
                    "time": 36.509490499999956,
                    "velocity": 0.5905511811023622,
                    "duration": 0.33649300000000437
                },
                {
                    "name": "F#3",
                    "midi": 54,
                    "time": 36.67773699999996,
                    "velocity": 0.5354330708661418,
                    "duration": 0.16824650000000219
                },
                {
                    "name": "G4",
                    "midi": 67,
                    "time": 36.84598349999996,
                    "velocity": 0.5826771653543307,
                    "duration": 0.33649299999999727
                },
                {
                    "name": "G3",
                    "midi": 55,
                    "time": 36.84598349999996,
                    "velocity": 0.5590551181102362,
                    "duration": 0.33649299999999727
                },
                {
                    "name": "F#4",
                    "midi": 66,
                    "time": 37.518969499999955,
                    "velocity": 0.6456692913385826,
                    "duration": 0.33649300000000437
                },
                {
                    "name": "D#4",
                    "midi": 63,
                    "time": 37.518969499999955,
                    "velocity": 0.5354330708661418,
                    "duration": 0.6729860000000016
                },
                {
                    "name": "C4",
                    "midi": 60,
                    "time": 37.518969499999955,
                    "velocity": 0.6299212598425197,
                    "duration": 0.16824650000000219
                },
                {
                    "name": "F#3",
                    "midi": 54,
                    "time": 37.68721599999996,
                    "velocity": 0.5905511811023622,
                    "duration": 0.16824650000000219
                },
                {
                    "name": "G3",
                    "midi": 55,
                    "time": 37.85546249999996,
                    "velocity": 0.6220472440944882,
                    "duration": 0.33649299999999727
                },
                {
                    "name": "G4",
                    "midi": 67,
                    "time": 37.85546249999996,
                    "velocity": 0.6456692913385826,
                    "duration": 0.33649299999999727
                },
                {
                    "name": "D#5",
                    "midi": 75,
                    "time": 38.52844849999995,
                    "velocity": 0.5905511811023622,
                    "duration": 0.6729860000000016
                },
                {
                    "name": "F#5",
                    "midi": 78,
                    "time": 38.52844849999995,
                    "velocity": 0.7244094488188977,
                    "duration": 0.33649300000000437
                },
                {
                    "name": "C5",
                    "midi": 72,
                    "time": 38.52844849999995,
                    "velocity": 0.7007874015748031,
                    "duration": 0.16824650000000219
                },
                {
                    "name": "F#4",
                    "midi": 66,
                    "time": 38.696694999999956,
                    "velocity": 0.6456692913385826,
                    "duration": 0.16824650000000219
                },
                {
                    "name": "G5",
                    "midi": 79,
                    "time": 38.86494149999996,
                    "velocity": 0.7086614173228346,
                    "duration": 0.33649299999999727
                },
                {
                    "name": "G4",
                    "midi": 67,
                    "time": 38.86494149999996,
                    "velocity": 0.6692913385826772,
                    "duration": 0.33649299999999727
                },
                {
                    "name": "A#5",
                    "midi": 82,
                    "time": 39.36968099999996,
                    "velocity": 0.7165354330708661,
                    "duration": 0.33649299999999727
                },
                {
                    "name": "D#6",
                    "midi": 87,
                    "time": 39.36968099999996,
                    "velocity": 0.84251968503937,
                    "duration": 0.33649299999999727
                },
                {
                    "name": "G5",
                    "midi": 79,
                    "time": 39.36968099999996,
                    "velocity": 0.7165354330708661,
                    "duration": 0.33649299999999727
                },
                {
                    "name": "G6",
                    "midi": 91,
                    "time": 39.36968099999996,
                    "velocity": 0.84251968503937,
                    "duration": 0.33649299999999727
                },
                {
                    "name": "A#4",
                    "midi": 70,
                    "time": 40.379159999999956,
                    "velocity": 0.7952755905511811,
                    "duration": 0.5047394999999995
                },
                {
                    "name": "D4",
                    "midi": 62,
                    "time": 40.379159999999956,
                    "velocity": 0.6692913385826772,
                    "duration": 0.5047394999999995
                },
                {
                    "name": "G4",
                    "midi": 67,
                    "time": 40.379159999999956,
                    "velocity": 0.6692913385826772,
                    "duration": 0.5047394999999995
                },
                {
                    "name": "D5",
                    "midi": 74,
                    "time": 40.379159999999956,
                    "velocity": 0.7952755905511811,
                    "duration": 0.5047394999999995
                },
                {
                    "name": "F#4",
                    "midi": 66,
                    "time": 40.883899499999956,
                    "velocity": 0.7637795275590551,
                    "duration": 0.5047394999999995
                },
                {
                    "name": "D4",
                    "midi": 62,
                    "time": 40.883899499999956,
                    "velocity": 0.7637795275590551,
                    "duration": 0.5047394999999995
                },
                {
                    "name": "F#3",
                    "midi": 54,
                    "time": 40.883899499999956,
                    "velocity": 0.6456692913385826,
                    "duration": 0.5047394999999995
                },
                {
                    "name": "C4",
                    "midi": 60,
                    "time": 40.883899499999956,
                    "velocity": 0.6456692913385826,
                    "duration": 0.5047394999999995
                },
                {
                    "name": "G3",
                    "midi": 55,
                    "time": 41.43070062499996,
                    "velocity": 0.5748031496062992,
                    "duration": 0.9674173750000037
                },
                {
                    "name": "A#3",
                    "midi": 58,
                    "time": 41.45173143749996,
                    "velocity": 0.6299212598425197,
                    "duration": 0.9463865625000025
                },
                {
                    "name": "D4",
                    "midi": 62,
                    "time": 41.47276224999996,
                    "velocity": 0.7559055118110236,
                    "duration": 0.9253557500000014
                },
                {
                    "name": "G4",
                    "midi": 67,
                    "time": 41.49379306249996,
                    "velocity": 0.8267716535433071,
                    "duration": 0.9043249375000002
                }
            ],
            "controlChanges": {
                "7": [
                    {
                        "number": 7,
                        "time": 0,
                        "value": 0.7874015748031497
                    }
                ],
                "10": [
                    {
                        "number": 10,
                        "time": 0,
                        "value": 0.5039370078740157
                    }
                ],
                "64": [
                    {
                        "number": 64,
                        "time": 0,
                        "value": 0
                    }
                ],
                "91": [
                    {
                        "number": 91,
                        "time": 0,
                        "value": 1
                    }
                ]
            },
            "id": 1,
            "name": "Piano right",
            "instrumentNumber": 0,
            "instrument": "acoustic grand piano",
            "instrumentFamily": "piano",
            "channelNumber": 0,
            "isPercussion": false
        },
        {
            "startTime": 0.5047395,
            "duration": 42.398117999999954,
            "length": 334,
            "notes": [
                {
                    "name": "A#1",
                    "midi": 34,
                    "time": 0.5047395,
                    "velocity": 0.4881889763779528,
                    "duration": 0.16824649999999997
                },
                {
                    "name": "A#2",
                    "midi": 46,
                    "time": 0.5047395,
                    "velocity": 0.5826771653543307,
                    "duration": 0.16824649999999997
                },
                {
                    "name": "A1",
                    "midi": 33,
                    "time": 0.672986,
                    "velocity": 0.5039370078740157,
                    "duration": 0.25236975000000006
                },
                {
                    "name": "A2",
                    "midi": 45,
                    "time": 0.672986,
                    "velocity": 0.6062992125984252,
                    "duration": 0.25236975000000006
                },
                {
                    "name": "G1",
                    "midi": 31,
                    "time": 0.92535575,
                    "velocity": 0.4881889763779528,
                    "duration": 0.04206162499999999
                },
                {
                    "name": "G2",
                    "midi": 43,
                    "time": 0.92535575,
                    "velocity": 0.5826771653543307,
                    "duration": 0.04206162499999999
                },
                {
                    "name": "G1",
                    "midi": 31,
                    "time": 1.009479,
                    "velocity": 0.5039370078740157,
                    "duration": 0.6729859999999999
                },
                {
                    "name": "G2",
                    "midi": 43,
                    "time": 1.009479,
                    "velocity": 0.6062992125984252,
                    "duration": 0.6729859999999999
                },
                {
                    "name": "F#1",
                    "midi": 30,
                    "time": 1.6824649999999999,
                    "velocity": 0.5039370078740157,
                    "duration": 0.16824649999999997
                },
                {
                    "name": "F#2",
                    "midi": 42,
                    "time": 1.6824649999999999,
                    "velocity": 0.6062992125984252,
                    "duration": 0.16824649999999997
                },
                {
                    "name": "A1",
                    "midi": 33,
                    "time": 1.8507114999999998,
                    "velocity": 0.48031496062992124,
                    "duration": 0.12618487500000009
                },
                {
                    "name": "A2",
                    "midi": 45,
                    "time": 1.8507114999999998,
                    "velocity": 0.5748031496062992,
                    "duration": 0.12618487500000009
                },
                {
                    "name": "A1",
                    "midi": 33,
                    "time": 2.018958,
                    "velocity": 0.5039370078740157,
                    "duration": 0.6729860000000003
                },
                {
                    "name": "A2",
                    "midi": 45,
                    "time": 2.018958,
                    "velocity": 0.6062992125984252,
                    "duration": 0.6729860000000003
                },
                {
                    "name": "A#1",
                    "midi": 34,
                    "time": 2.6919440000000003,
                    "velocity": 0.5039370078740157,
                    "duration": 0.16824649999999997
                },
                {
                    "name": "A#2",
                    "midi": 46,
                    "time": 2.6919440000000003,
                    "velocity": 0.6062992125984252,
                    "duration": 0.16824649999999997
                },
                {
                    "name": "G1",
                    "midi": 31,
                    "time": 2.8601905000000003,
                    "velocity": 0.49606299212598426,
                    "duration": 0.16824649999999997
                },
                {
                    "name": "G2",
                    "midi": 43,
                    "time": 2.8601905000000003,
                    "velocity": 0.5905511811023622,
                    "duration": 0.16824649999999997
                },
                {
                    "name": "A#1",
                    "midi": 34,
                    "time": 3.0284370000000003,
                    "velocity": 0.5039370078740157,
                    "duration": 0.6729859999999999
                },
                {
                    "name": "A#2",
                    "midi": 46,
                    "time": 3.0284370000000003,
                    "velocity": 0.6062992125984252,
                    "duration": 0.6729859999999999
                },
                {
                    "name": "A1",
                    "midi": 33,
                    "time": 3.701423,
                    "velocity": 0.5039370078740157,
                    "duration": 0.16824649999999997
                },
                {
                    "name": "A2",
                    "midi": 45,
                    "time": 3.701423,
                    "velocity": 0.6062992125984252,
                    "duration": 0.16824649999999997
                },
                {
                    "name": "C2",
                    "midi": 36,
                    "time": 3.8696695,
                    "velocity": 0.4881889763779528,
                    "duration": 0.12618487499999986
                },
                {
                    "name": "C3",
                    "midi": 48,
                    "time": 3.8696695,
                    "velocity": 0.5748031496062992,
                    "duration": 0.12618487499999986
                },
                {
                    "name": "C2",
                    "midi": 36,
                    "time": 4.037916,
                    "velocity": 0.5354330708661418,
                    "duration": 0.6729860000000008
                },
                {
                    "name": "C3",
                    "midi": 48,
                    "time": 4.037916,
                    "velocity": 0.6377952755905512,
                    "duration": 0.6729860000000008
                },
                {
                    "name": "D2",
                    "midi": 38,
                    "time": 4.710902000000001,
                    "velocity": 0.5433070866141733,
                    "duration": 0.1682465000000004
                },
                {
                    "name": "D3",
                    "midi": 50,
                    "time": 4.710902000000001,
                    "velocity": 0.6535433070866141,
                    "duration": 0.1682465000000004
                },
                {
                    "name": "A#1",
                    "midi": 34,
                    "time": 4.879148500000001,
                    "velocity": 0.5275590551181102,
                    "duration": 0.1682465000000004
                },
                {
                    "name": "A#2",
                    "midi": 46,
                    "time": 4.879148500000001,
                    "velocity": 0.6299212598425197,
                    "duration": 0.1682465000000004
                },
                {
                    "name": "C#3",
                    "midi": 49,
                    "time": 5.047395000000002,
                    "velocity": 0.5748031496062992,
                    "duration": 0.6729859999999999
                },
                {
                    "name": "C#4",
                    "midi": 61,
                    "time": 5.047395000000002,
                    "velocity": 0.6929133858267716,
                    "duration": 0.6729859999999999
                },
                {
                    "name": "D3",
                    "midi": 50,
                    "time": 5.7203810000000015,
                    "velocity": 0.5748031496062992,
                    "duration": 0.1682465000000004
                },
                {
                    "name": "D4",
                    "midi": 62,
                    "time": 5.7203810000000015,
                    "velocity": 0.6929133858267716,
                    "duration": 0.1682465000000004
                },
                {
                    "name": "A2",
                    "midi": 45,
                    "time": 5.888627500000002,
                    "velocity": 0.5590551181102362,
                    "duration": 0.1682465000000004
                },
                {
                    "name": "A3",
                    "midi": 57,
                    "time": 5.888627500000002,
                    "velocity": 0.6692913385826772,
                    "duration": 0.1682465000000004
                },
                {
                    "name": "B2",
                    "midi": 47,
                    "time": 6.056874000000002,
                    "velocity": 0.5511811023622047,
                    "duration": 0.6729859999999999
                },
                {
                    "name": "B3",
                    "midi": 59,
                    "time": 6.056874000000002,
                    "velocity": 0.6614173228346457,
                    "duration": 0.6729859999999999
                },
                {
                    "name": "C3",
                    "midi": 48,
                    "time": 6.729860000000002,
                    "velocity": 0.5511811023622047,
                    "duration": 0.1682465000000004
                },
                {
                    "name": "C4",
                    "midi": 60,
                    "time": 6.729860000000002,
                    "velocity": 0.6614173228346457,
                    "duration": 0.1682465000000004
                },
                {
                    "name": "G2",
                    "midi": 43,
                    "time": 6.898106500000003,
                    "velocity": 0.5354330708661418,
                    "duration": 0.1682465000000004
                },
                {
                    "name": "G3",
                    "midi": 55,
                    "time": 6.898106500000003,
                    "velocity": 0.6299212598425197,
                    "duration": 0.1682465000000004
                },
                {
                    "name": "B2",
                    "midi": 47,
                    "time": 7.066353000000003,
                    "velocity": 0.5275590551181102,
                    "duration": 0.6729859999999999
                },
                {
                    "name": "B3",
                    "midi": 59,
                    "time": 7.066353000000003,
                    "velocity": 0.6299212598425197,
                    "duration": 0.6729859999999999
                },
                {
                    "name": "C3",
                    "midi": 48,
                    "time": 7.739339000000003,
                    "velocity": 0.5275590551181102,
                    "duration": 0.1682465000000004
                },
                {
                    "name": "C4",
                    "midi": 60,
                    "time": 7.739339000000003,
                    "velocity": 0.6299212598425197,
                    "duration": 0.1682465000000004
                },
                {
                    "name": "G2",
                    "midi": 43,
                    "time": 7.907585500000003,
                    "velocity": 0.5118110236220472,
                    "duration": 0.12618487499999986
                },
                {
                    "name": "G3",
                    "midi": 55,
                    "time": 7.907585500000003,
                    "velocity": 0.6062992125984252,
                    "duration": 0.12618487499999986
                },
                {
                    "name": "G2",
                    "midi": 43,
                    "time": 8.075832000000004,
                    "velocity": 0.5826771653543307,
                    "duration": 0.1682465000000004
                },
                {
                    "name": "G3",
                    "midi": 55,
                    "time": 8.075832000000004,
                    "velocity": 0.6929133858267716,
                    "duration": 0.1682465000000004
                },
                {
                    "name": "F#2",
                    "midi": 42,
                    "time": 8.244078500000004,
                    "velocity": 0.5118110236220472,
                    "duration": 0.1682465000000004
                },
                {
                    "name": "F#3",
                    "midi": 54,
                    "time": 8.244078500000004,
                    "velocity": 0.6062992125984252,
                    "duration": 0.1682465000000004
                },
                {
                    "name": "G2",
                    "midi": 43,
                    "time": 8.412325000000004,
                    "velocity": 0.5118110236220472,
                    "duration": 0.1682465000000004
                },
                {
                    "name": "G3",
                    "midi": 55,
                    "time": 8.412325000000004,
                    "velocity": 0.6062992125984252,
                    "duration": 0.1682465000000004
                },
                {
                    "name": "A#2",
                    "midi": 46,
                    "time": 8.580571500000005,
                    "velocity": 0.5354330708661418,
                    "duration": 0.1682465000000004
                },
                {
                    "name": "A#3",
                    "midi": 58,
                    "time": 8.580571500000005,
                    "velocity": 0.6299212598425197,
                    "duration": 0.1682465000000004
                },
                {
                    "name": "A2",
                    "midi": 45,
                    "time": 8.748818000000005,
                    "velocity": 0.5118110236220472,
                    "duration": 0.1682465000000004
                },
                {
                    "name": "A3",
                    "midi": 57,
                    "time": 8.748818000000005,
                    "velocity": 0.6062992125984252,
                    "duration": 0.1682465000000004
                },
                {
                    "name": "G2",
                    "midi": 43,
                    "time": 9.001187750000005,
                    "velocity": 0.5275590551181102,
                    "duration": 0.042061625000000546
                },
                {
                    "name": "G3",
                    "midi": 55,
                    "time": 9.001187750000005,
                    "velocity": 0.6220472440944882,
                    "duration": 0.042061625000000546
                },
                {
                    "name": "G2",
                    "midi": 43,
                    "time": 9.085311000000006,
                    "velocity": 0.5039370078740157,
                    "duration": 0.6729859999999981
                },
                {
                    "name": "G3",
                    "midi": 55,
                    "time": 9.085311000000006,
                    "velocity": 0.6062992125984252,
                    "duration": 0.6729859999999981
                },
                {
                    "name": "F#2",
                    "midi": 42,
                    "time": 9.758297000000004,
                    "velocity": 0.5039370078740157,
                    "duration": 0.1682465000000004
                },
                {
                    "name": "F#3",
                    "midi": 54,
                    "time": 9.758297000000004,
                    "velocity": 0.6062992125984252,
                    "duration": 0.1682465000000004
                },
                {
                    "name": "A2",
                    "midi": 45,
                    "time": 9.926543500000005,
                    "velocity": 0.48031496062992124,
                    "duration": 0.12618487499999986
                },
                {
                    "name": "A3",
                    "midi": 57,
                    "time": 9.926543500000005,
                    "velocity": 0.5748031496062992,
                    "duration": 0.12618487499999986
                },
                {
                    "name": "A2",
                    "midi": 45,
                    "time": 10.094790000000005,
                    "velocity": 0.5039370078740157,
                    "duration": 0.6729859999999999
                },
                {
                    "name": "A3",
                    "midi": 57,
                    "time": 10.094790000000005,
                    "velocity": 0.6062992125984252,
                    "duration": 0.6729859999999999
                },
                {
                    "name": "A#2",
                    "midi": 46,
                    "time": 10.767776000000005,
                    "velocity": 0.5039370078740157,
                    "duration": 0.1682465000000004
                },
                {
                    "name": "A#3",
                    "midi": 58,
                    "time": 10.767776000000005,
                    "velocity": 0.6062992125984252,
                    "duration": 0.1682465000000004
                },
                {
                    "name": "G2",
                    "midi": 43,
                    "time": 10.936022500000005,
                    "velocity": 0.49606299212598426,
                    "duration": 0.1682465000000004
                },
                {
                    "name": "G3",
                    "midi": 55,
                    "time": 10.936022500000005,
                    "velocity": 0.5905511811023622,
                    "duration": 0.1682465000000004
                },
                {
                    "name": "A#2",
                    "midi": 46,
                    "time": 11.104269000000006,
                    "velocity": 0.5275590551181102,
                    "duration": 0.6729859999999999
                },
                {
                    "name": "A#3",
                    "midi": 58,
                    "time": 11.104269000000006,
                    "velocity": 0.6299212598425197,
                    "duration": 0.6729859999999999
                },
                {
                    "name": "A2",
                    "midi": 45,
                    "time": 11.777255000000006,
                    "velocity": 0.5275590551181102,
                    "duration": 0.1682465000000004
                },
                {
                    "name": "A3",
                    "midi": 57,
                    "time": 11.777255000000006,
                    "velocity": 0.6299212598425197,
                    "duration": 0.1682465000000004
                },
                {
                    "name": "C3",
                    "midi": 48,
                    "time": 11.945501500000006,
                    "velocity": 0.5039370078740157,
                    "duration": 0.12618487499999986
                },
                {
                    "name": "C4",
                    "midi": 60,
                    "time": 11.945501500000006,
                    "velocity": 0.5905511811023622,
                    "duration": 0.12618487499999986
                },
                {
                    "name": "C3",
                    "midi": 48,
                    "time": 12.113748000000006,
                    "velocity": 0.5511811023622047,
                    "duration": 0.6729859999999999
                },
                {
                    "name": "C4",
                    "midi": 60,
                    "time": 12.113748000000006,
                    "velocity": 0.6614173228346457,
                    "duration": 0.6729859999999999
                },
                {
                    "name": "D3",
                    "midi": 50,
                    "time": 12.786734000000006,
                    "velocity": 0.5511811023622047,
                    "duration": 0.1682465000000004
                },
                {
                    "name": "D4",
                    "midi": 62,
                    "time": 12.786734000000006,
                    "velocity": 0.6614173228346457,
                    "duration": 0.1682465000000004
                },
                {
                    "name": "A#2",
                    "midi": 46,
                    "time": 12.954980500000007,
                    "velocity": 0.5354330708661418,
                    "duration": 0.1682465000000004
                },
                {
                    "name": "A#3",
                    "midi": 58,
                    "time": 12.954980500000007,
                    "velocity": 0.6377952755905512,
                    "duration": 0.1682465000000004
                },
                {
                    "name": "G3",
                    "midi": 55,
                    "time": 13.123227000000007,
                    "velocity": 0.5748031496062992,
                    "duration": 0.1682465000000004
                },
                {
                    "name": "G4",
                    "midi": 67,
                    "time": 13.123227000000007,
                    "velocity": 0.6771653543307087,
                    "duration": 0.1682465000000004
                },
                {
                    "name": "D#3",
                    "midi": 51,
                    "time": 13.291473500000007,
                    "velocity": 0.5433070866141733,
                    "duration": 0.1682465000000004
                },
                {
                    "name": "D#4",
                    "midi": 63,
                    "time": 13.291473500000007,
                    "velocity": 0.6456692913385826,
                    "duration": 0.1682465000000004
                },
                {
                    "name": "D3",
                    "midi": 50,
                    "time": 13.459720000000008,
                    "velocity": 0.5433070866141733,
                    "duration": 0.12618487499999986
                },
                {
                    "name": "D4",
                    "midi": 62,
                    "time": 13.459720000000008,
                    "velocity": 0.6456692913385826,
                    "duration": 0.12618487499999986
                },
                {
                    "name": "D3",
                    "midi": 50,
                    "time": 13.627966500000008,
                    "velocity": 0.5826771653543307,
                    "duration": 0.33649299999999904
                },
                {
                    "name": "D4",
                    "midi": 62,
                    "time": 13.627966500000008,
                    "velocity": 0.6929133858267716,
                    "duration": 0.33649299999999904
                },
                {
                    "name": "C#3",
                    "midi": 49,
                    "time": 13.964459500000007,
                    "velocity": 0.5433070866141733,
                    "duration": 0.1682465000000004
                },
                {
                    "name": "C#4",
                    "midi": 61,
                    "time": 13.964459500000007,
                    "velocity": 0.6456692913385826,
                    "duration": 0.1682465000000004
                },
                {
                    "name": "F3",
                    "midi": 53,
                    "time": 14.132706000000008,
                    "velocity": 0.5748031496062992,
                    "duration": 0.1682465000000004
                },
                {
                    "name": "F4",
                    "midi": 65,
                    "time": 14.132706000000008,
                    "velocity": 0.6771653543307087,
                    "duration": 0.1682465000000004
                },
                {
                    "name": "C#3",
                    "midi": 49,
                    "time": 14.300952500000008,
                    "velocity": 0.5433070866141733,
                    "duration": 0.1682465000000004
                },
                {
                    "name": "C#4",
                    "midi": 61,
                    "time": 14.300952500000008,
                    "velocity": 0.6456692913385826,
                    "duration": 0.1682465000000004
                },
                {
                    "name": "C3",
                    "midi": 48,
                    "time": 14.469199000000009,
                    "velocity": 0.5433070866141733,
                    "duration": 0.12618487499999986
                },
                {
                    "name": "C4",
                    "midi": 60,
                    "time": 14.469199000000009,
                    "velocity": 0.6456692913385826,
                    "duration": 0.12618487499999986
                },
                {
                    "name": "C3",
                    "midi": 48,
                    "time": 14.637445500000009,
                    "velocity": 0.5826771653543307,
                    "duration": 0.33649299999999904
                },
                {
                    "name": "C4",
                    "midi": 60,
                    "time": 14.637445500000009,
                    "velocity": 0.6929133858267716,
                    "duration": 0.33649299999999904
                },
                {
                    "name": "B2",
                    "midi": 47,
                    "time": 14.973938500000008,
                    "velocity": 0.5433070866141733,
                    "duration": 0.1682465000000004
                },
                {
                    "name": "B3",
                    "midi": 59,
                    "time": 14.973938500000008,
                    "velocity": 0.6456692913385826,
                    "duration": 0.1682465000000004
                },
                {
                    "name": "D#3",
                    "midi": 51,
                    "time": 15.142185000000008,
                    "velocity": 0.5748031496062992,
                    "duration": 0.1682465000000004
                },
                {
                    "name": "D#4",
                    "midi": 63,
                    "time": 15.142185000000008,
                    "velocity": 0.6771653543307087,
                    "duration": 0.1682465000000004
                },
                {
                    "name": "C3",
                    "midi": 48,
                    "time": 15.310431500000009,
                    "velocity": 0.5433070866141733,
                    "duration": 0.1682465000000004
                },
                {
                    "name": "C4",
                    "midi": 60,
                    "time": 15.310431500000009,
                    "velocity": 0.6456692913385826,
                    "duration": 0.1682465000000004
                },
                {
                    "name": "A#2",
                    "midi": 46,
                    "time": 15.47867800000001,
                    "velocity": 0.5511811023622047,
                    "duration": 0.1682465000000004
                },
                {
                    "name": "A#3",
                    "midi": 58,
                    "time": 15.47867800000001,
                    "velocity": 0.6535433070866141,
                    "duration": 0.1682465000000004
                },
                {
                    "name": "A2",
                    "midi": 45,
                    "time": 15.64692450000001,
                    "velocity": 0.6062992125984252,
                    "duration": 0.1682465000000004
                },
                {
                    "name": "A3",
                    "midi": 57,
                    "time": 15.64692450000001,
                    "velocity": 0.7086614173228346,
                    "duration": 0.1682465000000004
                },
                {
                    "name": "C3",
                    "midi": 48,
                    "time": 15.81517100000001,
                    "velocity": 0.5669291338582677,
                    "duration": 0.1682465000000004
                },
                {
                    "name": "C4",
                    "midi": 60,
                    "time": 15.81517100000001,
                    "velocity": 0.6692913385826772,
                    "duration": 0.1682465000000004
                },
                {
                    "name": "G#2",
                    "midi": 44,
                    "time": 15.98341750000001,
                    "velocity": 0.5669291338582677,
                    "duration": 0.1682465000000004
                },
                {
                    "name": "G#3",
                    "midi": 56,
                    "time": 15.98341750000001,
                    "velocity": 0.6771653543307087,
                    "duration": 0.1682465000000004
                },
                {
                    "name": "G2",
                    "midi": 43,
                    "time": 16.15166400000001,
                    "velocity": 0.5748031496062992,
                    "duration": 0.08412325000000109
                },
                {
                    "name": "G3",
                    "midi": 55,
                    "time": 16.15166400000001,
                    "velocity": 0.6929133858267716,
                    "duration": 0.08412325000000109
                },
                {
                    "name": "F#2",
                    "midi": 42,
                    "time": 16.319910500000013,
                    "velocity": 0.5826771653543307,
                    "duration": 0.08412325000000109
                },
                {
                    "name": "F#3",
                    "midi": 54,
                    "time": 16.319910500000013,
                    "velocity": 0.7007874015748031,
                    "duration": 0.08412325000000109
                },
                {
                    "name": "F2",
                    "midi": 41,
                    "time": 16.488157000000015,
                    "velocity": 0.5905511811023622,
                    "duration": 0.08412325000000109
                },
                {
                    "name": "F3",
                    "midi": 53,
                    "time": 16.488157000000015,
                    "velocity": 0.7086614173228346,
                    "duration": 0.08412325000000109
                },
                {
                    "name": "E2",
                    "midi": 40,
                    "time": 16.656403500000017,
                    "velocity": 0.5905511811023622,
                    "duration": 0.08412325000000109
                },
                {
                    "name": "E3",
                    "midi": 52,
                    "time": 16.656403500000017,
                    "velocity": 0.7165354330708661,
                    "duration": 0.08412325000000109
                },
                {
                    "name": "D#2",
                    "midi": 39,
                    "time": 16.82465000000002,
                    "velocity": 0.6062992125984252,
                    "duration": 0.08412325000000109
                },
                {
                    "name": "D#3",
                    "midi": 51,
                    "time": 16.82465000000002,
                    "velocity": 0.7244094488188977,
                    "duration": 0.08412325000000109
                },
                {
                    "name": "D2",
                    "midi": 38,
                    "time": 16.992896500000022,
                    "velocity": 0.6141732283464567,
                    "duration": 0.08412325000000109
                },
                {
                    "name": "D3",
                    "midi": 50,
                    "time": 16.992896500000022,
                    "velocity": 0.7244094488188977,
                    "duration": 0.08412325000000109
                },
                {
                    "name": "C#2",
                    "midi": 37,
                    "time": 17.161143000000024,
                    "velocity": 0.6692913385826772,
                    "duration": 0.12618487499999986
                },
                {
                    "name": "C#3",
                    "midi": 49,
                    "time": 17.161143000000024,
                    "velocity": 0.7952755905511811,
                    "duration": 0.12618487499999986
                },
                {
                    "name": "C#3",
                    "midi": 49,
                    "time": 17.329389500000023,
                    "velocity": 0.6141732283464567,
                    "duration": 0.12618487499999986
                },
                {
                    "name": "C#4",
                    "midi": 61,
                    "time": 17.329389500000023,
                    "velocity": 0.7244094488188977,
                    "duration": 0.12618487499999986
                },
                {
                    "name": "C#3",
                    "midi": 49,
                    "time": 17.49763600000002,
                    "velocity": 0.6141732283464567,
                    "duration": 0.12618487499999986
                },
                {
                    "name": "C#4",
                    "midi": 61,
                    "time": 17.49763600000002,
                    "velocity": 0.7244094488188977,
                    "duration": 0.12618487499999986
                },
                {
                    "name": "C#3",
                    "midi": 49,
                    "time": 17.66588250000002,
                    "velocity": 0.6377952755905512,
                    "duration": 0.12618487499999986
                },
                {
                    "name": "C#4",
                    "midi": 61,
                    "time": 17.66588250000002,
                    "velocity": 0.7559055118110236,
                    "duration": 0.12618487499999986
                },
                {
                    "name": "C#3",
                    "midi": 49,
                    "time": 17.83412900000002,
                    "velocity": 0.6141732283464567,
                    "duration": 0.12618487499999986
                },
                {
                    "name": "C#4",
                    "midi": 61,
                    "time": 17.83412900000002,
                    "velocity": 0.7244094488188977,
                    "duration": 0.12618487499999986
                },
                {
                    "name": "C#3",
                    "midi": 49,
                    "time": 18.002375500000017,
                    "velocity": 0.5748031496062992,
                    "duration": 0.12618487499999986
                },
                {
                    "name": "C#4",
                    "midi": 61,
                    "time": 18.002375500000017,
                    "velocity": 0.6771653543307087,
                    "duration": 0.12618487499999986
                },
                {
                    "name": "C3",
                    "midi": 48,
                    "time": 18.170622000000016,
                    "velocity": 0.6377952755905512,
                    "duration": 0.16824649999999863
                },
                {
                    "name": "C4",
                    "midi": 60,
                    "time": 18.170622000000016,
                    "velocity": 0.7559055118110236,
                    "duration": 0.16824649999999863
                },
                {
                    "name": "A#2",
                    "midi": 46,
                    "time": 18.338868500000014,
                    "velocity": 0.6141732283464567,
                    "duration": 0.16824649999999863
                },
                {
                    "name": "A#3",
                    "midi": 58,
                    "time": 18.338868500000014,
                    "velocity": 0.7244094488188977,
                    "duration": 0.16824649999999863
                },
                {
                    "name": "G#2",
                    "midi": 44,
                    "time": 18.507115000000013,
                    "velocity": 0.6141732283464567,
                    "duration": 0.16824649999999863
                },
                {
                    "name": "G#3",
                    "midi": 56,
                    "time": 18.507115000000013,
                    "velocity": 0.7244094488188977,
                    "duration": 0.16824649999999863
                },
                {
                    "name": "G2",
                    "midi": 43,
                    "time": 18.67536150000001,
                    "velocity": 0.6456692913385826,
                    "duration": 0.16824649999999863
                },
                {
                    "name": "G3",
                    "midi": 55,
                    "time": 18.67536150000001,
                    "velocity": 0.7637795275590551,
                    "duration": 0.16824649999999863
                },
                {
                    "name": "F2",
                    "midi": 41,
                    "time": 18.84360800000001,
                    "velocity": 0.6141732283464567,
                    "duration": 0.16824649999999863
                },
                {
                    "name": "F3",
                    "midi": 53,
                    "time": 18.84360800000001,
                    "velocity": 0.7244094488188977,
                    "duration": 0.16824649999999863
                },
                {
                    "name": "D#2",
                    "midi": 39,
                    "time": 19.01185450000001,
                    "velocity": 0.5826771653543307,
                    "duration": 0.16824649999999863
                },
                {
                    "name": "D#3",
                    "midi": 51,
                    "time": 19.01185450000001,
                    "velocity": 0.7007874015748031,
                    "duration": 0.16824649999999863
                },
                {
                    "name": "C#2",
                    "midi": 37,
                    "time": 19.180101000000008,
                    "velocity": 0.6692913385826772,
                    "duration": 0.12618487499999986
                },
                {
                    "name": "C#3",
                    "midi": 49,
                    "time": 19.180101000000008,
                    "velocity": 0.7952755905511811,
                    "duration": 0.12618487499999986
                },
                {
                    "name": "C#3",
                    "midi": 49,
                    "time": 19.348347500000006,
                    "velocity": 0.6141732283464567,
                    "duration": 0.12618487499999986
                },
                {
                    "name": "C#4",
                    "midi": 61,
                    "time": 19.348347500000006,
                    "velocity": 0.7244094488188977,
                    "duration": 0.12618487499999986
                },
                {
                    "name": "C#3",
                    "midi": 49,
                    "time": 19.516594000000005,
                    "velocity": 0.6141732283464567,
                    "duration": 0.12618487499999986
                },
                {
                    "name": "C#4",
                    "midi": 61,
                    "time": 19.516594000000005,
                    "velocity": 0.7244094488188977,
                    "duration": 0.12618487499999986
                },
                {
                    "name": "C#3",
                    "midi": 49,
                    "time": 19.684840500000004,
                    "velocity": 0.6377952755905512,
                    "duration": 0.12618487499999986
                },
                {
                    "name": "C#4",
                    "midi": 61,
                    "time": 19.684840500000004,
                    "velocity": 0.7559055118110236,
                    "duration": 0.12618487499999986
                },
                {
                    "name": "C#3",
                    "midi": 49,
                    "time": 19.853087000000002,
                    "velocity": 0.6141732283464567,
                    "duration": 0.12618487499999986
                },
                {
                    "name": "C#4",
                    "midi": 61,
                    "time": 19.853087000000002,
                    "velocity": 0.7244094488188977,
                    "duration": 0.12618487499999986
                },
                {
                    "name": "C#3",
                    "midi": 49,
                    "time": 20.0213335,
                    "velocity": 0.5748031496062992,
                    "duration": 0.12618487499999986
                },
                {
                    "name": "C#4",
                    "midi": 61,
                    "time": 20.0213335,
                    "velocity": 0.6771653543307087,
                    "duration": 0.12618487499999986
                },
                {
                    "name": "C3",
                    "midi": 48,
                    "time": 20.18958,
                    "velocity": 0.6377952755905512,
                    "duration": 0.16824649999999863
                },
                {
                    "name": "C4",
                    "midi": 60,
                    "time": 20.18958,
                    "velocity": 0.7559055118110236,
                    "duration": 0.16824649999999863
                },
                {
                    "name": "A#2",
                    "midi": 46,
                    "time": 20.357826499999998,
                    "velocity": 0.6141732283464567,
                    "duration": 0.16824649999999863
                },
                {
                    "name": "A#3",
                    "midi": 58,
                    "time": 20.357826499999998,
                    "velocity": 0.7244094488188977,
                    "duration": 0.16824649999999863
                },
                {
                    "name": "G#2",
                    "midi": 44,
                    "time": 20.526072999999997,
                    "velocity": 0.6141732283464567,
                    "duration": 0.16824649999999863
                },
                {
                    "name": "G#3",
                    "midi": 56,
                    "time": 20.526072999999997,
                    "velocity": 0.7244094488188977,
                    "duration": 0.16824649999999863
                },
                {
                    "name": "G2",
                    "midi": 43,
                    "time": 20.694319499999995,
                    "velocity": 0.6456692913385826,
                    "duration": 0.16824649999999863
                },
                {
                    "name": "G3",
                    "midi": 55,
                    "time": 20.694319499999995,
                    "velocity": 0.7637795275590551,
                    "duration": 0.16824649999999863
                },
                {
                    "name": "F2",
                    "midi": 41,
                    "time": 20.862565999999994,
                    "velocity": 0.6141732283464567,
                    "duration": 0.16824649999999863
                },
                {
                    "name": "F3",
                    "midi": 53,
                    "time": 20.862565999999994,
                    "velocity": 0.7244094488188977,
                    "duration": 0.16824649999999863
                },
                {
                    "name": "D#2",
                    "midi": 39,
                    "time": 21.030812499999993,
                    "velocity": 0.5826771653543307,
                    "duration": 0.16824649999999863
                },
                {
                    "name": "D#3",
                    "midi": 51,
                    "time": 21.030812499999993,
                    "velocity": 0.7007874015748031,
                    "duration": 0.16824649999999863
                },
                {
                    "name": "D2",
                    "midi": 38,
                    "time": 21.19905899999999,
                    "velocity": 0.6062992125984252,
                    "duration": 0.16824649999999863
                },
                {
                    "name": "D3",
                    "midi": 50,
                    "time": 21.19905899999999,
                    "velocity": 0.7086614173228346,
                    "duration": 0.16824649999999863
                },
                {
                    "name": "C3",
                    "midi": 48,
                    "time": 21.36730549999999,
                    "velocity": 0.5433070866141733,
                    "duration": 0.12618487499999986
                },
                {
                    "name": "C4",
                    "midi": 60,
                    "time": 21.36730549999999,
                    "velocity": 0.6456692913385826,
                    "duration": 0.12618487499999986
                },
                {
                    "name": "C3",
                    "midi": 48,
                    "time": 21.53555199999999,
                    "velocity": 0.5433070866141733,
                    "duration": 0.12618487499999986
                },
                {
                    "name": "C4",
                    "midi": 60,
                    "time": 21.53555199999999,
                    "velocity": 0.6456692913385826,
                    "duration": 0.12618487499999986
                },
                {
                    "name": "C3",
                    "midi": 48,
                    "time": 21.703798499999987,
                    "velocity": 0.5669291338582677,
                    "duration": 0.12618487499999986
                },
                {
                    "name": "C4",
                    "midi": 60,
                    "time": 21.703798499999987,
                    "velocity": 0.6771653543307087,
                    "duration": 0.12618487499999986
                },
                {
                    "name": "C3",
                    "midi": 48,
                    "time": 21.872044999999986,
                    "velocity": 0.5433070866141733,
                    "duration": 0.12618487499999986
                },
                {
                    "name": "C4",
                    "midi": 60,
                    "time": 21.872044999999986,
                    "velocity": 0.6456692913385826,
                    "duration": 0.12618487499999986
                },
                {
                    "name": "C3",
                    "midi": 48,
                    "time": 22.040291499999984,
                    "velocity": 0.5196850393700787,
                    "duration": 0.12618487499999986
                },
                {
                    "name": "C4",
                    "midi": 60,
                    "time": 22.040291499999984,
                    "velocity": 0.6141732283464567,
                    "duration": 0.12618487499999986
                },
                {
                    "name": "A#2",
                    "midi": 46,
                    "time": 22.208537999999983,
                    "velocity": 0.5669291338582677,
                    "duration": 0.16824649999999863
                },
                {
                    "name": "A#3",
                    "midi": 58,
                    "time": 22.208537999999983,
                    "velocity": 0.6771653543307087,
                    "duration": 0.16824649999999863
                },
                {
                    "name": "A2",
                    "midi": 45,
                    "time": 22.37678449999998,
                    "velocity": 0.5433070866141733,
                    "duration": 0.16824649999999863
                },
                {
                    "name": "A3",
                    "midi": 57,
                    "time": 22.37678449999998,
                    "velocity": 0.6456692913385826,
                    "duration": 0.16824649999999863
                },
                {
                    "name": "G2",
                    "midi": 43,
                    "time": 22.54503099999998,
                    "velocity": 0.5433070866141733,
                    "duration": 0.16824649999999863
                },
                {
                    "name": "G3",
                    "midi": 55,
                    "time": 22.54503099999998,
                    "velocity": 0.6456692913385826,
                    "duration": 0.16824649999999863
                },
                {
                    "name": "D#2",
                    "midi": 39,
                    "time": 22.71327749999998,
                    "velocity": 0.5748031496062992,
                    "duration": 0.16824649999999863
                },
                {
                    "name": "D#3",
                    "midi": 51,
                    "time": 22.71327749999998,
                    "velocity": 0.6929133858267716,
                    "duration": 0.16824649999999863
                },
                {
                    "name": "D2",
                    "midi": 38,
                    "time": 22.881523999999978,
                    "velocity": 0.5433070866141733,
                    "duration": 0.16824649999999863
                },
                {
                    "name": "D3",
                    "midi": 50,
                    "time": 22.881523999999978,
                    "velocity": 0.6456692913385826,
                    "duration": 0.16824649999999863
                },
                {
                    "name": "C2",
                    "midi": 36,
                    "time": 23.049770499999976,
                    "velocity": 0.5275590551181102,
                    "duration": 0.16824649999999863
                },
                {
                    "name": "C3",
                    "midi": 48,
                    "time": 23.049770499999976,
                    "velocity": 0.6220472440944882,
                    "duration": 0.16824649999999863
                },
                {
                    "name": "A#1",
                    "midi": 34,
                    "time": 23.218016999999975,
                    "velocity": 0.6771653543307087,
                    "duration": 0.3364930000000008
                },
                {
                    "name": "A#2",
                    "midi": 46,
                    "time": 23.218016999999975,
                    "velocity": 0.6771653543307087,
                    "duration": 0.3364930000000008
                },
                {
                    "name": "D#2",
                    "midi": 39,
                    "time": 23.722756499999974,
                    "velocity": 0.6771653543307087,
                    "duration": 0.3364930000000008
                },
                {
                    "name": "D#3",
                    "midi": 51,
                    "time": 23.722756499999974,
                    "velocity": 0.6771653543307087,
                    "duration": 0.3364930000000008
                },
                {
                    "name": "A1",
                    "midi": 33,
                    "time": 24.227495999999974,
                    "velocity": 0.6771653543307087,
                    "duration": 0.33649299999999727
                },
                {
                    "name": "A2",
                    "midi": 45,
                    "time": 24.227495999999974,
                    "velocity": 0.6771653543307087,
                    "duration": 0.33649299999999727
                },
                {
                    "name": "D2",
                    "midi": 38,
                    "time": 24.73223549999997,
                    "velocity": 0.6771653543307087,
                    "duration": 0.33649299999999727
                },
                {
                    "name": "D3",
                    "midi": 50,
                    "time": 24.73223549999997,
                    "velocity": 0.6771653543307087,
                    "duration": 0.33649299999999727
                },
                {
                    "name": "C#2",
                    "midi": 37,
                    "time": 25.236974999999966,
                    "velocity": 0.6692913385826772,
                    "duration": 0.12618487499999986
                },
                {
                    "name": "C#3",
                    "midi": 49,
                    "time": 25.236974999999966,
                    "velocity": 0.7952755905511811,
                    "duration": 0.12618487499999986
                },
                {
                    "name": "C#3",
                    "midi": 49,
                    "time": 25.405221499999964,
                    "velocity": 0.6141732283464567,
                    "duration": 0.12618487499999986
                },
                {
                    "name": "C#4",
                    "midi": 61,
                    "time": 25.405221499999964,
                    "velocity": 0.7244094488188977,
                    "duration": 0.12618487499999986
                },
                {
                    "name": "C#3",
                    "midi": 49,
                    "time": 25.573467999999963,
                    "velocity": 0.6141732283464567,
                    "duration": 0.12618487499999986
                },
                {
                    "name": "C#4",
                    "midi": 61,
                    "time": 25.573467999999963,
                    "velocity": 0.7244094488188977,
                    "duration": 0.12618487499999986
                },
                {
                    "name": "C#3",
                    "midi": 49,
                    "time": 25.74171449999996,
                    "velocity": 0.6377952755905512,
                    "duration": 0.12618487499999986
                },
                {
                    "name": "C#4",
                    "midi": 61,
                    "time": 25.74171449999996,
                    "velocity": 0.7559055118110236,
                    "duration": 0.12618487499999986
                },
                {
                    "name": "C#3",
                    "midi": 49,
                    "time": 25.90996099999996,
                    "velocity": 0.6141732283464567,
                    "duration": 0.12618487499999986
                },
                {
                    "name": "C#4",
                    "midi": 61,
                    "time": 25.90996099999996,
                    "velocity": 0.7244094488188977,
                    "duration": 0.12618487499999986
                },
                {
                    "name": "C#3",
                    "midi": 49,
                    "time": 26.07820749999996,
                    "velocity": 0.5748031496062992,
                    "duration": 0.12618487499999986
                },
                {
                    "name": "C#4",
                    "midi": 61,
                    "time": 26.07820749999996,
                    "velocity": 0.6771653543307087,
                    "duration": 0.12618487499999986
                },
                {
                    "name": "C3",
                    "midi": 48,
                    "time": 26.246453999999957,
                    "velocity": 0.6377952755905512,
                    "duration": 0.16824650000000219
                },
                {
                    "name": "C4",
                    "midi": 60,
                    "time": 26.246453999999957,
                    "velocity": 0.7559055118110236,
                    "duration": 0.16824650000000219
                },
                {
                    "name": "A#2",
                    "midi": 46,
                    "time": 26.41470049999996,
                    "velocity": 0.6141732283464567,
                    "duration": 0.16824649999999863
                },
                {
                    "name": "A#3",
                    "midi": 58,
                    "time": 26.41470049999996,
                    "velocity": 0.7244094488188977,
                    "duration": 0.16824649999999863
                },
                {
                    "name": "G#2",
                    "midi": 44,
                    "time": 26.582946999999958,
                    "velocity": 0.6141732283464567,
                    "duration": 0.16824649999999863
                },
                {
                    "name": "G#3",
                    "midi": 56,
                    "time": 26.582946999999958,
                    "velocity": 0.7244094488188977,
                    "duration": 0.16824649999999863
                },
                {
                    "name": "G2",
                    "midi": 43,
                    "time": 26.751193499999957,
                    "velocity": 0.6456692913385826,
                    "duration": 0.16824649999999863
                },
                {
                    "name": "G3",
                    "midi": 55,
                    "time": 26.751193499999957,
                    "velocity": 0.7637795275590551,
                    "duration": 0.16824649999999863
                },
                {
                    "name": "F2",
                    "midi": 41,
                    "time": 26.919439999999955,
                    "velocity": 0.6141732283464567,
                    "duration": 0.16824649999999863
                },
                {
                    "name": "F3",
                    "midi": 53,
                    "time": 26.919439999999955,
                    "velocity": 0.7244094488188977,
                    "duration": 0.16824649999999863
                },
                {
                    "name": "D#2",
                    "midi": 39,
                    "time": 27.087686499999954,
                    "velocity": 0.5826771653543307,
                    "duration": 0.16824649999999863
                },
                {
                    "name": "D#3",
                    "midi": 51,
                    "time": 27.087686499999954,
                    "velocity": 0.7007874015748031,
                    "duration": 0.16824649999999863
                },
                {
                    "name": "C#2",
                    "midi": 37,
                    "time": 27.255932999999953,
                    "velocity": 0.6692913385826772,
                    "duration": 0.12618487499999986
                },
                {
                    "name": "C#3",
                    "midi": 49,
                    "time": 27.255932999999953,
                    "velocity": 0.7952755905511811,
                    "duration": 0.12618487499999986
                },
                {
                    "name": "C#3",
                    "midi": 49,
                    "time": 27.42417949999995,
                    "velocity": 0.6141732283464567,
                    "duration": 0.12618487499999986
                },
                {
                    "name": "C#4",
                    "midi": 61,
                    "time": 27.42417949999995,
                    "velocity": 0.7244094488188977,
                    "duration": 0.12618487499999986
                },
                {
                    "name": "C#3",
                    "midi": 49,
                    "time": 27.59242599999995,
                    "velocity": 0.6141732283464567,
                    "duration": 0.12618487499999986
                },
                {
                    "name": "C#4",
                    "midi": 61,
                    "time": 27.59242599999995,
                    "velocity": 0.7244094488188977,
                    "duration": 0.12618487499999986
                },
                {
                    "name": "C#3",
                    "midi": 49,
                    "time": 27.76067249999995,
                    "velocity": 0.6377952755905512,
                    "duration": 0.12618487499999986
                },
                {
                    "name": "C#4",
                    "midi": 61,
                    "time": 27.76067249999995,
                    "velocity": 0.7559055118110236,
                    "duration": 0.12618487499999986
                },
                {
                    "name": "C#3",
                    "midi": 49,
                    "time": 27.928918999999947,
                    "velocity": 0.6141732283464567,
                    "duration": 0.12618487499999986
                },
                {
                    "name": "C#4",
                    "midi": 61,
                    "time": 27.928918999999947,
                    "velocity": 0.7244094488188977,
                    "duration": 0.12618487499999986
                },
                {
                    "name": "C#3",
                    "midi": 49,
                    "time": 28.097165499999946,
                    "velocity": 0.5748031496062992,
                    "duration": 0.12618487499999986
                },
                {
                    "name": "C#4",
                    "midi": 61,
                    "time": 28.097165499999946,
                    "velocity": 0.6771653543307087,
                    "duration": 0.12618487499999986
                },
                {
                    "name": "C3",
                    "midi": 48,
                    "time": 28.265411999999944,
                    "velocity": 0.6377952755905512,
                    "duration": 0.16824649999999863
                },
                {
                    "name": "C4",
                    "midi": 60,
                    "time": 28.265411999999944,
                    "velocity": 0.7559055118110236,
                    "duration": 0.16824649999999863
                },
                {
                    "name": "A#2",
                    "midi": 46,
                    "time": 28.433658499999943,
                    "velocity": 0.6141732283464567,
                    "duration": 0.16824649999999863
                },
                {
                    "name": "A#3",
                    "midi": 58,
                    "time": 28.433658499999943,
                    "velocity": 0.7244094488188977,
                    "duration": 0.16824649999999863
                },
                {
                    "name": "G#2",
                    "midi": 44,
                    "time": 28.60190499999994,
                    "velocity": 0.6141732283464567,
                    "duration": 0.16824649999999863
                },
                {
                    "name": "G#3",
                    "midi": 56,
                    "time": 28.60190499999994,
                    "velocity": 0.7244094488188977,
                    "duration": 0.16824649999999863
                },
                {
                    "name": "G2",
                    "midi": 43,
                    "time": 28.77015149999994,
                    "velocity": 0.6456692913385826,
                    "duration": 0.16824649999999863
                },
                {
                    "name": "G3",
                    "midi": 55,
                    "time": 28.77015149999994,
                    "velocity": 0.7637795275590551,
                    "duration": 0.16824649999999863
                },
                {
                    "name": "F2",
                    "midi": 41,
                    "time": 28.93839799999994,
                    "velocity": 0.6141732283464567,
                    "duration": 0.16824649999999863
                },
                {
                    "name": "F3",
                    "midi": 53,
                    "time": 28.93839799999994,
                    "velocity": 0.7244094488188977,
                    "duration": 0.16824649999999863
                },
                {
                    "name": "D#2",
                    "midi": 39,
                    "time": 29.106644499999938,
                    "velocity": 0.5826771653543307,
                    "duration": 0.16824649999999863
                },
                {
                    "name": "D#3",
                    "midi": 51,
                    "time": 29.106644499999938,
                    "velocity": 0.7007874015748031,
                    "duration": 0.16824649999999863
                },
                {
                    "name": "D2",
                    "midi": 38,
                    "time": 29.274890999999936,
                    "velocity": 0.6062992125984252,
                    "duration": 0.16824650000000219
                },
                {
                    "name": "D3",
                    "midi": 50,
                    "time": 29.274890999999936,
                    "velocity": 0.7086614173228346,
                    "duration": 0.16824650000000219
                },
                {
                    "name": "C3",
                    "midi": 48,
                    "time": 29.44313749999994,
                    "velocity": 0.5433070866141733,
                    "duration": 0.12618487499999986
                },
                {
                    "name": "C4",
                    "midi": 60,
                    "time": 29.44313749999994,
                    "velocity": 0.6456692913385826,
                    "duration": 0.12618487499999986
                },
                {
                    "name": "C3",
                    "midi": 48,
                    "time": 29.611383999999937,
                    "velocity": 0.5433070866141733,
                    "duration": 0.12618487499999986
                },
                {
                    "name": "C4",
                    "midi": 60,
                    "time": 29.611383999999937,
                    "velocity": 0.6456692913385826,
                    "duration": 0.12618487499999986
                },
                {
                    "name": "C3",
                    "midi": 48,
                    "time": 29.779630499999936,
                    "velocity": 0.5669291338582677,
                    "duration": 0.1261848749999963
                },
                {
                    "name": "C4",
                    "midi": 60,
                    "time": 29.779630499999936,
                    "velocity": 0.6771653543307087,
                    "duration": 0.1261848749999963
                },
                {
                    "name": "C3",
                    "midi": 48,
                    "time": 29.94787699999993,
                    "velocity": 0.5433070866141733,
                    "duration": 0.12618487499999986
                },
                {
                    "name": "C4",
                    "midi": 60,
                    "time": 29.94787699999993,
                    "velocity": 0.6456692913385826,
                    "duration": 0.12618487499999986
                },
                {
                    "name": "C3",
                    "midi": 48,
                    "time": 30.11612349999993,
                    "velocity": 0.5196850393700787,
                    "duration": 0.12618487499999986
                },
                {
                    "name": "C4",
                    "midi": 60,
                    "time": 30.11612349999993,
                    "velocity": 0.6141732283464567,
                    "duration": 0.12618487499999986
                },
                {
                    "name": "A#2",
                    "midi": 46,
                    "time": 30.284369999999928,
                    "velocity": 0.5669291338582677,
                    "duration": 0.16824650000000219
                },
                {
                    "name": "A#3",
                    "midi": 58,
                    "time": 30.284369999999928,
                    "velocity": 0.6771653543307087,
                    "duration": 0.16824650000000219
                },
                {
                    "name": "A2",
                    "midi": 45,
                    "time": 30.45261649999993,
                    "velocity": 0.5433070866141733,
                    "duration": 0.16824649999999863
                },
                {
                    "name": "A3",
                    "midi": 57,
                    "time": 30.45261649999993,
                    "velocity": 0.6456692913385826,
                    "duration": 0.16824649999999863
                },
                {
                    "name": "G2",
                    "midi": 43,
                    "time": 30.62086299999993,
                    "velocity": 0.5433070866141733,
                    "duration": 0.16824649999999863
                },
                {
                    "name": "G3",
                    "midi": 55,
                    "time": 30.62086299999993,
                    "velocity": 0.6456692913385826,
                    "duration": 0.16824649999999863
                },
                {
                    "name": "D#2",
                    "midi": 39,
                    "time": 30.789109499999928,
                    "velocity": 0.5748031496062992,
                    "duration": 0.16824649999999863
                },
                {
                    "name": "D#3",
                    "midi": 51,
                    "time": 30.789109499999928,
                    "velocity": 0.6929133858267716,
                    "duration": 0.16824649999999863
                },
                {
                    "name": "D2",
                    "midi": 38,
                    "time": 30.957355999999926,
                    "velocity": 0.5433070866141733,
                    "duration": 0.16824649999999863
                },
                {
                    "name": "D3",
                    "midi": 50,
                    "time": 30.957355999999926,
                    "velocity": 0.6456692913385826,
                    "duration": 0.16824649999999863
                },
                {
                    "name": "C2",
                    "midi": 36,
                    "time": 31.125602499999925,
                    "velocity": 0.5275590551181102,
                    "duration": 0.16824649999999863
                },
                {
                    "name": "C3",
                    "midi": 48,
                    "time": 31.125602499999925,
                    "velocity": 0.6220472440944882,
                    "duration": 0.16824649999999863
                },
                {
                    "name": "A#1",
                    "midi": 34,
                    "time": 31.293848999999923,
                    "velocity": 0.6771653543307087,
                    "duration": 0.3364930000000008
                },
                {
                    "name": "A#2",
                    "midi": 46,
                    "time": 31.293848999999923,
                    "velocity": 0.6771653543307087,
                    "duration": 0.3364930000000008
                },
                {
                    "name": "D#2",
                    "midi": 39,
                    "time": 31.798588499999923,
                    "velocity": 0.6771653543307087,
                    "duration": 0.33649299999999727
                },
                {
                    "name": "D#3",
                    "midi": 51,
                    "time": 31.798588499999923,
                    "velocity": 0.6771653543307087,
                    "duration": 0.33649299999999727
                },
                {
                    "name": "A1",
                    "midi": 33,
                    "time": 32.30332799999992,
                    "velocity": 0.6771653543307087,
                    "duration": 0.33649300000000437
                },
                {
                    "name": "A2",
                    "midi": 45,
                    "time": 32.30332799999992,
                    "velocity": 0.6771653543307087,
                    "duration": 0.33649300000000437
                },
                {
                    "name": "D2",
                    "midi": 38,
                    "time": 32.80806749999993,
                    "velocity": 0.6771653543307087,
                    "duration": 0.33649300000000437
                },
                {
                    "name": "D3",
                    "midi": 50,
                    "time": 32.80806749999993,
                    "velocity": 0.6771653543307087,
                    "duration": 0.33649300000000437
                },
                {
                    "name": "A#1",
                    "midi": 34,
                    "time": 33.312806999999935,
                    "velocity": 0.6771653543307087,
                    "duration": 0.33649299999999727
                },
                {
                    "name": "A#2",
                    "midi": 46,
                    "time": 33.312806999999935,
                    "velocity": 0.6771653543307087,
                    "duration": 0.33649299999999727
                },
                {
                    "name": "D#2",
                    "midi": 39,
                    "time": 33.817546499999935,
                    "velocity": 0.6771653543307087,
                    "duration": 0.33649299999999727
                },
                {
                    "name": "D#3",
                    "midi": 51,
                    "time": 33.817546499999935,
                    "velocity": 0.6771653543307087,
                    "duration": 0.33649299999999727
                },
                {
                    "name": "A1",
                    "midi": 33,
                    "time": 34.322285999999934,
                    "velocity": 0.6771653543307087,
                    "duration": 0.5047394999999995
                },
                {
                    "name": "A2",
                    "midi": 45,
                    "time": 34.322285999999934,
                    "velocity": 0.6771653543307087,
                    "duration": 0.5047394999999995
                },
                {
                    "name": "A#2",
                    "midi": 46,
                    "time": 34.827025499999934,
                    "velocity": 0.6377952755905512,
                    "duration": 0.16824650000000219
                },
                {
                    "name": "A#1",
                    "midi": 34,
                    "time": 34.827025499999934,
                    "velocity": 0.5354330708661418,
                    "duration": 0.16824650000000219
                },
                {
                    "name": "A1",
                    "midi": 33,
                    "time": 34.995271999999936,
                    "velocity": 0.5511811023622047,
                    "duration": 0.16824650000000219
                },
                {
                    "name": "A2",
                    "midi": 45,
                    "time": 34.995271999999936,
                    "velocity": 0.6614173228346457,
                    "duration": 0.16824650000000219
                },
                {
                    "name": "G1",
                    "midi": 31,
                    "time": 35.247641749999936,
                    "velocity": 0.5354330708661418,
                    "duration": 0.04206162500000232
                },
                {
                    "name": "G2",
                    "midi": 43,
                    "time": 35.247641749999936,
                    "velocity": 0.6377952755905512,
                    "duration": 0.04206162500000232
                },
                {
                    "name": "G1",
                    "midi": 31,
                    "time": 35.33176499999994,
                    "velocity": 0.6062992125984252,
                    "duration": 0.6729860000000016
                },
                {
                    "name": "G2",
                    "midi": 43,
                    "time": 35.33176499999994,
                    "velocity": 0.7244094488188977,
                    "duration": 0.6729860000000016
                },
                {
                    "name": "F#1",
                    "midi": 30,
                    "time": 36.00475099999994,
                    "velocity": 0.5511811023622047,
                    "duration": 0.16824650000000219
                },
                {
                    "name": "F#2",
                    "midi": 42,
                    "time": 36.00475099999994,
                    "velocity": 0.6614173228346457,
                    "duration": 0.16824650000000219
                },
                {
                    "name": "A1",
                    "midi": 33,
                    "time": 36.172997499999944,
                    "velocity": 0.5275590551181102,
                    "duration": 0.12618487499999986
                },
                {
                    "name": "A2",
                    "midi": 45,
                    "time": 36.172997499999944,
                    "velocity": 0.6299212598425197,
                    "duration": 0.12618487499999986
                },
                {
                    "name": "A1",
                    "midi": 33,
                    "time": 36.341243999999946,
                    "velocity": 0.5511811023622047,
                    "duration": 0.6729860000000016
                },
                {
                    "name": "A2",
                    "midi": 45,
                    "time": 36.341243999999946,
                    "velocity": 0.6614173228346457,
                    "duration": 0.6729860000000016
                },
                {
                    "name": "A#1",
                    "midi": 34,
                    "time": 37.01422999999995,
                    "velocity": 0.5748031496062992,
                    "duration": 0.16824650000000219
                },
                {
                    "name": "A#2",
                    "midi": 46,
                    "time": 37.01422999999995,
                    "velocity": 0.7007874015748031,
                    "duration": 0.16824650000000219
                },
                {
                    "name": "G1",
                    "midi": 31,
                    "time": 37.18247649999995,
                    "velocity": 0.5748031496062992,
                    "duration": 0.16824650000000219
                },
                {
                    "name": "G2",
                    "midi": 43,
                    "time": 37.18247649999995,
                    "velocity": 0.6929133858267716,
                    "duration": 0.16824650000000219
                },
                {
                    "name": "A1",
                    "midi": 33,
                    "time": 37.35072299999995,
                    "velocity": 0.5905511811023622,
                    "duration": 0.6729860000000016
                },
                {
                    "name": "A2",
                    "midi": 45,
                    "time": 37.35072299999995,
                    "velocity": 0.7165354330708661,
                    "duration": 0.6729860000000016
                },
                {
                    "name": "A#1",
                    "midi": 34,
                    "time": 38.023708999999954,
                    "velocity": 0.6377952755905512,
                    "duration": 0.16824650000000219
                },
                {
                    "name": "A#2",
                    "midi": 46,
                    "time": 38.023708999999954,
                    "velocity": 0.7637795275590551,
                    "duration": 0.16824650000000219
                },
                {
                    "name": "G1",
                    "midi": 31,
                    "time": 38.191955499999956,
                    "velocity": 0.6377952755905512,
                    "duration": 0.16824650000000219
                },
                {
                    "name": "G2",
                    "midi": 43,
                    "time": 38.191955499999956,
                    "velocity": 0.7559055118110236,
                    "duration": 0.16824650000000219
                },
                {
                    "name": "A1",
                    "midi": 33,
                    "time": 38.36020199999996,
                    "velocity": 0.6614173228346457,
                    "duration": 0.6729859999999945
                },
                {
                    "name": "A2",
                    "midi": 45,
                    "time": 38.36020199999996,
                    "velocity": 0.7952755905511811,
                    "duration": 0.6729859999999945
                },
                {
                    "name": "A#1",
                    "midi": 34,
                    "time": 39.03318799999995,
                    "velocity": 0.7086614173228346,
                    "duration": 0.16824650000000219
                },
                {
                    "name": "A#2",
                    "midi": 46,
                    "time": 39.03318799999995,
                    "velocity": 0.84251968503937,
                    "duration": 0.16824650000000219
                },
                {
                    "name": "G1",
                    "midi": 31,
                    "time": 39.201434499999955,
                    "velocity": 0.7007874015748031,
                    "duration": 0.16824650000000219
                },
                {
                    "name": "G2",
                    "midi": 43,
                    "time": 39.201434499999955,
                    "velocity": 0.8267716535433071,
                    "duration": 0.16824650000000219
                },
                {
                    "name": "C#1",
                    "midi": 25,
                    "time": 39.36968099999996,
                    "velocity": 0.7244094488188977,
                    "duration": 0.33649299999999727
                },
                {
                    "name": "C#2",
                    "midi": 37,
                    "time": 39.36968099999996,
                    "velocity": 0.8661417322834646,
                    "duration": 0.33649299999999727
                },
                {
                    "name": "D1",
                    "midi": 26,
                    "time": 40.379159999999956,
                    "velocity": 0.5905511811023622,
                    "duration": 0.5047394999999995
                },
                {
                    "name": "D2",
                    "midi": 38,
                    "time": 40.379159999999956,
                    "velocity": 0.7086614173228346,
                    "duration": 0.5047394999999995
                },
                {
                    "name": "D2",
                    "midi": 38,
                    "time": 40.883899499999956,
                    "velocity": 0.5354330708661418,
                    "duration": 0.4206162500000019
                },
                {
                    "name": "A2",
                    "midi": 45,
                    "time": 40.883899499999956,
                    "velocity": 0.6377952755905512,
                    "duration": 0.4206162500000019
                },
                {
                    "name": "D3",
                    "midi": 50,
                    "time": 40.883899499999956,
                    "velocity": 0.6377952755905512,
                    "duration": 0.4206162500000019
                },
                {
                    "name": "G1",
                    "midi": 31,
                    "time": 41.30451574999996,
                    "velocity": 0.8267716535433071,
                    "duration": 0.08412324999999754
                },
                {
                    "name": "G2",
                    "midi": 43,
                    "time": 41.388638999999955,
                    "velocity": 0.5354330708661418,
                    "duration": 1.009478999999999
                },
                {
                    "name": "D3",
                    "midi": 50,
                    "time": 41.409669812499956,
                    "velocity": 0.5905511811023622,
                    "duration": 0.9884481874999977
                }
            ],
            "controlChanges": {
                "7": [
                    {
                        "number": 7,
                        "time": 0,
                        "value": 0.7874015748031497
                    }
                ],
                "10": [
                    {
                        "number": 10,
                        "time": 0,
                        "value": 0.5039370078740157
                    }
                ],
                "64": [
                    {
                        "number": 64,
                        "time": 1.0333139208333333,
                        "value": 1
                    },
                    {
                        "number": 64,
                        "time": 1.5254349333333332,
                        "value": 0
                    },
                    {
                        "number": 64,
                        "time": 2.06732886875,
                        "value": 1
                    },
                    {
                        "number": 64,
                        "time": 2.535614960416667,
                        "value": 0
                    },
                    {
                        "number": 64,
                        "time": 3.084519166666667,
                        "value": 1
                    },
                    {
                        "number": 64,
                        "time": 3.5436919062500003,
                        "value": 0
                    },
                    {
                        "number": 64,
                        "time": 4.12203925,
                        "value": 1
                    },
                    {
                        "number": 64,
                        "time": 4.554572960416667,
                        "value": 0
                    },
                    {
                        "number": 64,
                        "time": 5.075436083333335,
                        "value": 1
                    },
                    {
                        "number": 64,
                        "time": 5.559144770833335,
                        "value": 0
                    },
                    {
                        "number": 64,
                        "time": 5.664298833333334,
                        "value": 1
                    },
                    {
                        "number": 64,
                        "time": 6.063183243750002,
                        "value": 0
                    },
                    {
                        "number": 64,
                        "time": 6.152914710416669,
                        "value": 1
                    },
                    {
                        "number": 64,
                        "time": 6.572128906250002,
                        "value": 0
                    },
                    {
                        "number": 64,
                        "time": 6.666066535416669,
                        "value": 1
                    },
                    {
                        "number": 64,
                        "time": 7.076868406250003,
                        "value": 0
                    },
                    {
                        "number": 64,
                        "time": 7.170806035416669,
                        "value": 1
                    },
                    {
                        "number": 64,
                        "time": 7.583009960416669,
                        "value": 0
                    },
                    {
                        "number": 64,
                        "time": 7.67554553541667,
                        "value": 1
                    },
                    {
                        "number": 64,
                        "time": 7.913894743750003,
                        "value": 0
                    },
                    {
                        "number": 64,
                        "time": 9.165929114583339,
                        "value": 1
                    },
                    {
                        "number": 64,
                        "time": 9.600565906250004,
                        "value": 0
                    },
                    {
                        "number": 64,
                        "time": 10.143160868750005,
                        "value": 1
                    },
                    {
                        "number": 64,
                        "time": 10.611446960416671,
                        "value": 0
                    },
                    {
                        "number": 64,
                        "time": 11.160351166666672,
                        "value": 1
                    },
                    {
                        "number": 64,
                        "time": 11.619523906250006,
                        "value": 0
                    },
                    {
                        "number": 64,
                        "time": 12.197871250000006,
                        "value": 1
                    },
                    {
                        "number": 64,
                        "time": 12.630404960416673,
                        "value": 0
                    },
                    {
                        "number": 64,
                        "time": 12.749579564583339,
                        "value": 1
                    },
                    {
                        "number": 64,
                        "time": 13.130938297916673,
                        "value": 0
                    },
                    {
                        "number": 64,
                        "time": 13.227680035416673,
                        "value": 1
                    },
                    {
                        "number": 64,
                        "time": 13.464627189583341,
                        "value": 0
                    },
                    {
                        "number": 64,
                        "time": 13.732419535416675,
                        "value": 1
                    },
                    {
                        "number": 64,
                        "time": 13.970768743750007,
                        "value": 0
                    },
                    {
                        "number": 64,
                        "time": 14.181076868750008,
                        "value": 1
                    },
                    {
                        "number": 64,
                        "time": 14.474807216666676,
                        "value": 0
                    },
                    {
                        "number": 64,
                        "time": 14.693527666666675,
                        "value": 1
                    },
                    {
                        "number": 64,
                        "time": 14.980948770833342,
                        "value": 0
                    },
                    {
                        "number": 64,
                        "time": 15.190555868750009,
                        "value": 1
                    },
                    {
                        "number": 64,
                        "time": 15.65323374375001,
                        "value": 0
                    },
                    {
                        "number": 64,
                        "time": 15.751377535416676,
                        "value": 1
                    },
                    {
                        "number": 64,
                        "time": 15.989025716666678,
                        "value": 0
                    },
                    {
                        "number": 64,
                        "time": 17.161143000000024,
                        "value": 1
                    },
                    {
                        "number": 64,
                        "time": 18.179034325000014,
                        "value": 0
                    },
                    {
                        "number": 64,
                        "time": 19.260018087500008,
                        "value": 1
                    },
                    {
                        "number": 64,
                        "time": 20.196590270833333,
                        "value": 0
                    },
                    {
                        "number": 64,
                        "time": 21.271264789583324,
                        "value": 1
                    },
                    {
                        "number": 64,
                        "time": 22.21204313541665,
                        "value": 0
                    },
                    {
                        "number": 64,
                        "time": 23.302140249999976,
                        "value": 1
                    },
                    {
                        "number": 64,
                        "time": 23.733271906249975,
                        "value": 0
                    },
                    {
                        "number": 64,
                        "time": 23.947085166666643,
                        "value": 1
                    },
                    {
                        "number": 64,
                        "time": 24.233805243749973,
                        "value": 0
                    },
                    {
                        "number": 64,
                        "time": 24.355783956249972,
                        "value": 1
                    },
                    {
                        "number": 64,
                        "time": 24.744152960416635,
                        "value": 0
                    },
                    {
                        "number": 64,
                        "time": 24.916605622916634,
                        "value": 1
                    },
                    {
                        "number": 64,
                        "time": 25.2397791083333,
                        "value": 0
                    },
                    {
                        "number": 64,
                        "time": 25.333015710416632,
                        "value": 1
                    },
                    {
                        "number": 64,
                        "time": 26.25066016249996,
                        "value": 0
                    },
                    {
                        "number": 64,
                        "time": 27.335850087499953,
                        "value": 1
                    },
                    {
                        "number": 64,
                        "time": 28.26891713541661,
                        "value": 0
                    },
                    {
                        "number": 64,
                        "time": 29.379344035416604,
                        "value": 1
                    },
                    {
                        "number": 64,
                        "time": 29.788042824999934,
                        "value": 0
                    },
                    {
                        "number": 64,
                        "time": 29.8840835354166,
                        "value": 1
                    },
                    {
                        "number": 64,
                        "time": 30.28857616249993,
                        "value": 0
                    },
                    {
                        "number": 64,
                        "time": 31.377972249999925,
                        "value": 1
                    },
                    {
                        "number": 64,
                        "time": 31.810505960416588,
                        "value": 0
                    },
                    {
                        "number": 64,
                        "time": 31.948608295833253,
                        "value": 1
                    },
                    {
                        "number": 64,
                        "time": 32.30613210833326,
                        "value": 0
                    },
                    {
                        "number": 64,
                        "time": 32.43161595624993,
                        "value": 1
                    },
                    {
                        "number": 64,
                        "time": 32.8199849604166,
                        "value": 0
                    },
                    {
                        "number": 64,
                        "time": 32.89639691249993,
                        "value": 1
                    },
                    {
                        "number": 64,
                        "time": 33.32192035208327,
                        "value": 0
                    },
                    {
                        "number": 64,
                        "time": 33.462826795833266,
                        "value": 1
                    },
                    {
                        "number": 64,
                        "time": 33.82455677083327,
                        "value": 0
                    },
                    {
                        "number": 64,
                        "time": 34.0418751666666,
                        "value": 1
                    },
                    {
                        "number": 64,
                        "time": 34.32649216249993,
                        "value": 0
                    },
                    {
                        "number": 64,
                        "time": 34.45057395624993,
                        "value": 1
                    },
                    {
                        "number": 64,
                        "time": 34.6706964604166,
                        "value": 0
                    },
                    {
                        "number": 64,
                        "time": 35.42780571041661,
                        "value": 1
                    },
                    {
                        "number": 64,
                        "time": 35.84842196041661,
                        "value": 0
                    },
                    {
                        "number": 64,
                        "time": 35.97320478124994,
                        "value": 1
                    },
                    {
                        "number": 64,
                        "time": 36.182811879166614,
                        "value": 0
                    },
                    {
                        "number": 64,
                        "time": 36.43728471041661,
                        "value": 1
                    },
                    {
                        "number": 64,
                        "time": 36.857900960416615,
                        "value": 0
                    },
                    {
                        "number": 64,
                        "time": 36.96656015833328,
                        "value": 1
                    },
                    {
                        "number": 64,
                        "time": 37.39909386874995,
                        "value": 0
                    },
                    {
                        "number": 64,
                        "time": 37.48181506458329,
                        "value": 1
                    },
                    {
                        "number": 64,
                        "time": 37.86737996041662,
                        "value": 0
                    },
                    {
                        "number": 64,
                        "time": 37.95150321041662,
                        "value": 1
                    },
                    {
                        "number": 64,
                        "time": 38.365810216666624,
                        "value": 0
                    },
                    {
                        "number": 64,
                        "time": 38.43240778958329,
                        "value": 1
                    },
                    {
                        "number": 64,
                        "time": 38.87685896041662,
                        "value": 0
                    },
                    {
                        "number": 64,
                        "time": 39.00164178124995,
                        "value": 1
                    },
                    {
                        "number": 64,
                        "time": 39.373887162499955,
                        "value": 0
                    },
                    {
                        "number": 64,
                        "time": 39.49095868541662,
                        "value": 1
                    },
                    {
                        "number": 64,
                        "time": 39.56596858333329,
                        "value": 0
                    },
                    {
                        "number": 64,
                        "time": 40.448561681249956,
                        "value": 1
                    },
                    {
                        "number": 64,
                        "time": 40.89231182499996,
                        "value": 0
                    },
                    {
                        "number": 64,
                        "time": 40.975734047916625,
                        "value": 1
                    },
                    {
                        "number": 64,
                        "time": 41.39354618958329,
                        "value": 0
                    },
                    {
                        "number": 64,
                        "time": 41.56459679791662,
                        "value": 1
                    },
                    {
                        "number": 64,
                        "time": 43.21130941666662,
                        "value": 0
                    }
                ]
            },
            "id": 2,
            "name": "Piano left",
            "instrumentNumber": 0,
            "instrument": "acoustic grand piano",
            "instrumentFamily": "piano",
            "channelNumber": 0,
            "isPercussion": false
        },
        {
            "startTime": 0,
            "duration": 0,
            "length": 0,
            "notes": [],
            "controlChanges": {},
            "id": 3,
            "name": "Chopin: Prelude No.22 in G Minor Op. 28"
        },
        {
            "startTime": 0,
            "duration": 0,
            "length": 0,
            "notes": [],
            "controlChanges": {},
            "id": 4,
            "name": "Copyright  2002 by Bernd Krueger"
        },
        {
            "startTime": 0,
            "duration": 0,
            "length": 0,
            "notes": [],
            "controlChanges": {},
            "id": 5,
            "name": "http://www.piano-midi.de"
        },
        {
            "startTime": 0,
            "duration": 0,
            "length": 0,
            "notes": [],
            "controlChanges": {},
            "id": 6,
            "name": "Edition: 2014-02-23"
        },
        {
            "startTime": 0,
            "duration": 0,
            "length": 0,
            "notes": [],
            "controlChanges": {},
            "id": 7,
            "name": "Spur 7"
        }
    ]
}