{
    "header": {
        "PPQ": 480,
        "timeSignature": [
            3,
            8
        ],
        "bpm": 104.55001672800267,
        "name": "Chopin Prelude  No. 5, Opus 28"
    },
    "startTime": 0,
    "duration": 32.85508799999993,
    "tracks": [
        {
            "startTime": 0,
            "duration": 0,
            "length": 0,
            "notes": [],
            "controlChanges": {},
            "id": 0,
            "name": "Chopin Prelude  No. 5, Opus 28"
        },
        {
            "startTime": 0,
            "duration": 32.85508799999993,
            "length": 237,
            "notes": [
                {
                    "name": "B4",
                    "midi": 71,
                    "time": 0,
                    "velocity": 0.3543307086614173,
                    "duration": 0.14347200000000002
                },
                {
                    "name": "A4",
                    "midi": 69,
                    "time": 0.14347200000000002,
                    "velocity": 0.31496062992125984,
                    "duration": 0.14347200000000002
                },
                {
                    "name": "C#4",
                    "midi": 61,
                    "time": 0.28694400000000003,
                    "velocity": 0.23622047244094488,
                    "duration": 0.143472
                },
                {
                    "name": "B4",
                    "midi": 71,
                    "time": 0.430416,
                    "velocity": 0.41732283464566927,
                    "duration": 0.2869440000000001
                },
                {
                    "name": "E5",
                    "midi": 76,
                    "time": 0.5738880000000001,
                    "velocity": 0.4015748031496063,
                    "duration": 0.14347200000000004
                },
                {
                    "name": "A4",
                    "midi": 69,
                    "time": 0.7173600000000001,
                    "velocity": 0.33070866141732286,
                    "duration": 0.14347200000000004
                },
                {
                    "name": "C#4",
                    "midi": 61,
                    "time": 0.8608320000000002,
                    "velocity": 0.36220472440944884,
                    "duration": 0.14347199999999993
                },
                {
                    "name": "A#4",
                    "midi": 70,
                    "time": 1.004304,
                    "velocity": 0.5118110236220472,
                    "duration": 0.2869440000000001
                },
                {
                    "name": "E5",
                    "midi": 76,
                    "time": 1.1477760000000001,
                    "velocity": 0.44881889763779526,
                    "duration": 0.14347200000000004
                },
                {
                    "name": "A4",
                    "midi": 69,
                    "time": 1.2912480000000002,
                    "velocity": 0.3937007874015748,
                    "duration": 0.14347200000000004
                },
                {
                    "name": "C#4",
                    "midi": 61,
                    "time": 1.4347200000000002,
                    "velocity": 0.4645669291338583,
                    "duration": 0.14347200000000004
                },
                {
                    "name": "B4",
                    "midi": 71,
                    "time": 1.5781920000000003,
                    "velocity": 0.5275590551181102,
                    "duration": 0.2869440000000001
                },
                {
                    "name": "E5",
                    "midi": 76,
                    "time": 1.7216640000000003,
                    "velocity": 0.5433070866141733,
                    "duration": 0.14347200000000004
                },
                {
                    "name": "A4",
                    "midi": 69,
                    "time": 1.8651360000000003,
                    "velocity": 0.47244094488188976,
                    "duration": 0.14347199999999982
                },
                {
                    "name": "C#4",
                    "midi": 61,
                    "time": 2.008608,
                    "velocity": 0.49606299212598426,
                    "duration": 0.14347200000000004
                },
                {
                    "name": "A#4",
                    "midi": 70,
                    "time": 2.15208,
                    "velocity": 0.5669291338582677,
                    "duration": 0.2869440000000001
                },
                {
                    "name": "E5",
                    "midi": 76,
                    "time": 2.2955520000000003,
                    "velocity": 0.4881889763779528,
                    "duration": 0.14347200000000004
                },
                {
                    "name": "A4",
                    "midi": 69,
                    "time": 2.4390240000000003,
                    "velocity": 0.4566929133858268,
                    "duration": 0.14347200000000004
                },
                {
                    "name": "C#4",
                    "midi": 61,
                    "time": 2.5824960000000003,
                    "velocity": 0.49606299212598426,
                    "duration": 0.14347200000000004
                },
                {
                    "name": "B4",
                    "midi": 71,
                    "time": 2.7259680000000004,
                    "velocity": 0.5275590551181102,
                    "duration": 0.2869440000000001
                },
                {
                    "name": "E5",
                    "midi": 76,
                    "time": 2.8694400000000004,
                    "velocity": 0.48031496062992124,
                    "duration": 0.14347200000000004
                },
                {
                    "name": "A4",
                    "midi": 69,
                    "time": 3.0129120000000005,
                    "velocity": 0.3937007874015748,
                    "duration": 0.14347200000000004
                },
                {
                    "name": "C#4",
                    "midi": 61,
                    "time": 3.1563840000000005,
                    "velocity": 0.3779527559055118,
                    "duration": 0.14347200000000004
                },
                {
                    "name": "F#4",
                    "midi": 66,
                    "time": 3.2998560000000006,
                    "velocity": 0.36220472440944884,
                    "duration": 0.14347200000000004
                },
                {
                    "name": "D4",
                    "midi": 62,
                    "time": 3.4433280000000006,
                    "velocity": 0.3858267716535433,
                    "duration": 0.14347200000000004
                },
                {
                    "name": "A3",
                    "midi": 57,
                    "time": 3.5868000000000007,
                    "velocity": 0.3543307086614173,
                    "duration": 0.14347200000000004
                },
                {
                    "name": "A#3",
                    "midi": 58,
                    "time": 3.7302720000000007,
                    "velocity": 0.3543307086614173,
                    "duration": 0.14347200000000004
                },
                {
                    "name": "B3",
                    "midi": 59,
                    "time": 3.8737440000000007,
                    "velocity": 0.3464566929133858,
                    "duration": 0.1434719999999996
                },
                {
                    "name": "C#4",
                    "midi": 61,
                    "time": 4.017216,
                    "velocity": 0.31496062992125984,
                    "duration": 0.14347200000000004
                },
                {
                    "name": "F#4",
                    "midi": 66,
                    "time": 4.017216,
                    "velocity": 0.3779527559055118,
                    "duration": 0.14347200000000004
                },
                {
                    "name": "E4",
                    "midi": 64,
                    "time": 4.160688,
                    "velocity": 0.3858267716535433,
                    "duration": 0.10760400000000025
                },
                {
                    "name": "D4",
                    "midi": 62,
                    "time": 4.30416,
                    "velocity": 0.4409448818897638,
                    "duration": 0.14347200000000004
                },
                {
                    "name": "D5",
                    "midi": 74,
                    "time": 4.4476320000000005,
                    "velocity": 0.4015748031496063,
                    "duration": 0.14347200000000004
                },
                {
                    "name": "F#4",
                    "midi": 66,
                    "time": 4.5911040000000005,
                    "velocity": 0.4015748031496063,
                    "duration": 0.14347200000000004
                },
                {
                    "name": "A4",
                    "midi": 69,
                    "time": 4.734576000000001,
                    "velocity": 0.4015748031496063,
                    "duration": 0.14347200000000004
                },
                {
                    "name": "G#4",
                    "midi": 68,
                    "time": 4.878048000000001,
                    "velocity": 0.3779527559055118,
                    "duration": 0.14347200000000004
                },
                {
                    "name": "C#5",
                    "midi": 73,
                    "time": 4.878048000000001,
                    "velocity": 0.44881889763779526,
                    "duration": 0.14347200000000004
                },
                {
                    "name": "B4",
                    "midi": 71,
                    "time": 5.021520000000001,
                    "velocity": 0.4330708661417323,
                    "duration": 0.10760400000000025
                },
                {
                    "name": "E4",
                    "midi": 64,
                    "time": 5.164992000000001,
                    "velocity": 0.4566929133858268,
                    "duration": 0.14347200000000004
                },
                {
                    "name": "A4",
                    "midi": 69,
                    "time": 5.308464000000001,
                    "velocity": 0.4251968503937008,
                    "duration": 0.14347200000000004
                },
                {
                    "name": "F4",
                    "midi": 65,
                    "time": 5.451936000000001,
                    "velocity": 0.4251968503937008,
                    "duration": 0.14347200000000004
                },
                {
                    "name": "F#4",
                    "midi": 66,
                    "time": 5.595408000000001,
                    "velocity": 0.4251968503937008,
                    "duration": 0.14347200000000004
                },
                {
                    "name": "C#5",
                    "midi": 73,
                    "time": 5.738880000000001,
                    "velocity": 0.4645669291338583,
                    "duration": 0.14347200000000004
                },
                {
                    "name": "G#4",
                    "midi": 68,
                    "time": 5.738880000000001,
                    "velocity": 0.3937007874015748,
                    "duration": 0.14347200000000004
                },
                {
                    "name": "B4",
                    "midi": 71,
                    "time": 5.882352000000001,
                    "velocity": 0.4409448818897638,
                    "duration": 0.10760400000000025
                },
                {
                    "name": "A4",
                    "midi": 69,
                    "time": 6.025824000000001,
                    "velocity": 0.4881889763779528,
                    "duration": 0.14347200000000004
                },
                {
                    "name": "E5",
                    "midi": 76,
                    "time": 6.169296000000001,
                    "velocity": 0.4094488188976378,
                    "duration": 0.14347200000000004
                },
                {
                    "name": "E4",
                    "midi": 64,
                    "time": 6.312768000000001,
                    "velocity": 0.47244094488188976,
                    "duration": 0.14347200000000004
                },
                {
                    "name": "A4",
                    "midi": 69,
                    "time": 6.456240000000001,
                    "velocity": 0.44881889763779526,
                    "duration": 0.14347200000000004
                },
                {
                    "name": "D#4",
                    "midi": 63,
                    "time": 6.599712000000001,
                    "velocity": 0.3937007874015748,
                    "duration": 0.14347200000000004
                },
                {
                    "name": "C5",
                    "midi": 72,
                    "time": 6.599712000000001,
                    "velocity": 0.4645669291338583,
                    "duration": 0.14347200000000004
                },
                {
                    "name": "B4",
                    "midi": 71,
                    "time": 6.743184000000001,
                    "velocity": 0.47244094488188976,
                    "duration": 0.10760400000000025
                },
                {
                    "name": "B3",
                    "midi": 59,
                    "time": 6.886656000000001,
                    "velocity": 0.5196850393700787,
                    "duration": 0.14347200000000004
                },
                {
                    "name": "E4",
                    "midi": 64,
                    "time": 7.030128000000001,
                    "velocity": 0.44881889763779526,
                    "duration": 0.14347200000000004
                },
                {
                    "name": "C4",
                    "midi": 60,
                    "time": 7.173600000000001,
                    "velocity": 0.4566929133858268,
                    "duration": 0.14347200000000004
                },
                {
                    "name": "E4",
                    "midi": 64,
                    "time": 7.317072000000001,
                    "velocity": 0.44881889763779526,
                    "duration": 0.14347200000000004
                },
                {
                    "name": "G4",
                    "midi": 67,
                    "time": 7.460544000000001,
                    "velocity": 0.5039370078740157,
                    "duration": 0.14347200000000004
                },
                {
                    "name": "D#4",
                    "midi": 63,
                    "time": 7.460544000000001,
                    "velocity": 0.4251968503937008,
                    "duration": 0.14347200000000004
                },
                {
                    "name": "F#4",
                    "midi": 66,
                    "time": 7.604016000000001,
                    "velocity": 0.49606299212598426,
                    "duration": 0.10760400000000025
                },
                {
                    "name": "E4",
                    "midi": 64,
                    "time": 7.7474880000000015,
                    "velocity": 0.5433070866141733,
                    "duration": 0.14347200000000004
                },
                {
                    "name": "E5",
                    "midi": 76,
                    "time": 7.8909600000000015,
                    "velocity": 0.48031496062992124,
                    "duration": 0.14347199999999916
                },
                {
                    "name": "G4",
                    "midi": 67,
                    "time": 8.034432,
                    "velocity": 0.5039370078740157,
                    "duration": 0.14347199999999916
                },
                {
                    "name": "B4",
                    "midi": 71,
                    "time": 8.177904,
                    "velocity": 0.5039370078740157,
                    "duration": 0.14347199999999916
                },
                {
                    "name": "A#4",
                    "midi": 70,
                    "time": 8.321375999999999,
                    "velocity": 0.4566929133858268,
                    "duration": 0.14347199999999916
                },
                {
                    "name": "D5",
                    "midi": 74,
                    "time": 8.321375999999999,
                    "velocity": 0.5511811023622047,
                    "duration": 0.14347199999999916
                },
                {
                    "name": "C#5",
                    "midi": 73,
                    "time": 8.464847999999998,
                    "velocity": 0.5039370078740157,
                    "duration": 0.10760400000000025
                },
                {
                    "name": "B4",
                    "midi": 71,
                    "time": 8.608319999999999,
                    "velocity": 0.5748031496062992,
                    "duration": 0.14347199999999916
                },
                {
                    "name": "F#4",
                    "midi": 66,
                    "time": 8.751791999999998,
                    "velocity": 0.49606299212598426,
                    "duration": 0.14347199999999916
                },
                {
                    "name": "G4",
                    "midi": 67,
                    "time": 8.895263999999997,
                    "velocity": 0.5511811023622047,
                    "duration": 0.14347199999999916
                },
                {
                    "name": "B4",
                    "midi": 71,
                    "time": 9.038735999999997,
                    "velocity": 0.5669291338582677,
                    "duration": 0.14347199999999916
                },
                {
                    "name": "A#4",
                    "midi": 70,
                    "time": 9.182207999999996,
                    "velocity": 0.5039370078740157,
                    "duration": 0.14347199999999916
                },
                {
                    "name": "D5",
                    "midi": 74,
                    "time": 9.182207999999996,
                    "velocity": 0.5984251968503937,
                    "duration": 0.14347199999999916
                },
                {
                    "name": "C#5",
                    "midi": 73,
                    "time": 9.325679999999995,
                    "velocity": 0.6062992125984252,
                    "duration": 0.10760400000000025
                },
                {
                    "name": "B4",
                    "midi": 71,
                    "time": 9.469151999999996,
                    "velocity": 0.6771653543307087,
                    "duration": 0.14347199999999916
                },
                {
                    "name": "B5",
                    "midi": 83,
                    "time": 9.612623999999995,
                    "velocity": 0.5905511811023622,
                    "duration": 0.14347199999999916
                },
                {
                    "name": "G#5",
                    "midi": 80,
                    "time": 9.756095999999994,
                    "velocity": 0.6456692913385826,
                    "duration": 0.14347199999999916
                },
                {
                    "name": "D5",
                    "midi": 74,
                    "time": 9.899567999999993,
                    "velocity": 0.6535433070866141,
                    "duration": 0.14347199999999916
                },
                {
                    "name": "C#5",
                    "midi": 73,
                    "time": 10.043039999999992,
                    "velocity": 0.7086614173228346,
                    "duration": 0.14347199999999916
                },
                {
                    "name": "B4",
                    "midi": 71,
                    "time": 10.186511999999992,
                    "velocity": 0.6692913385826772,
                    "duration": 0.14347199999999916
                },
                {
                    "name": "A#4",
                    "midi": 70,
                    "time": 10.32998399999999,
                    "velocity": 0.7165354330708661,
                    "duration": 0.14347199999999916
                },
                {
                    "name": "F#5",
                    "midi": 78,
                    "time": 10.47345599999999,
                    "velocity": 0.6062992125984252,
                    "duration": 0.07173599999999958
                },
                {
                    "name": "B4",
                    "midi": 71,
                    "time": 10.616927999999989,
                    "velocity": 0.6614173228346457,
                    "duration": 0.14347199999999916
                },
                {
                    "name": "G#5",
                    "midi": 80,
                    "time": 10.760399999999988,
                    "velocity": 0.5748031496062992,
                    "duration": 0.07173599999999958
                },
                {
                    "name": "F4",
                    "midi": 65,
                    "time": 10.903871999999987,
                    "velocity": 0.6299212598425197,
                    "duration": 0.14347199999999916
                },
                {
                    "name": "A#5",
                    "midi": 82,
                    "time": 11.047343999999987,
                    "velocity": 0.5590551181102362,
                    "duration": 0.07173599999999958
                },
                {
                    "name": "A#4",
                    "midi": 70,
                    "time": 11.190815999999986,
                    "velocity": 0.7007874015748031,
                    "duration": 0.14347199999999916
                },
                {
                    "name": "F#5",
                    "midi": 78,
                    "time": 11.334287999999985,
                    "velocity": 0.5748031496062992,
                    "duration": 0.07173599999999958
                },
                {
                    "name": "B4",
                    "midi": 71,
                    "time": 11.477759999999984,
                    "velocity": 0.6220472440944882,
                    "duration": 0.14347199999999916
                },
                {
                    "name": "G#5",
                    "midi": 80,
                    "time": 11.621231999999983,
                    "velocity": 0.5511811023622047,
                    "duration": 0.07173599999999958
                },
                {
                    "name": "F4",
                    "midi": 65,
                    "time": 11.764703999999982,
                    "velocity": 0.5905511811023622,
                    "duration": 0.14347199999999916
                },
                {
                    "name": "A#5",
                    "midi": 82,
                    "time": 11.908175999999981,
                    "velocity": 0.5039370078740157,
                    "duration": 0.07173599999999958
                },
                {
                    "name": "A#4",
                    "midi": 70,
                    "time": 12.05164799999998,
                    "velocity": 0.5826771653543307,
                    "duration": 0.14347199999999916
                },
                {
                    "name": "F#5",
                    "midi": 78,
                    "time": 12.19511999999998,
                    "velocity": 0.47244094488188976,
                    "duration": 0.07173599999999958
                },
                {
                    "name": "B4",
                    "midi": 71,
                    "time": 12.338591999999979,
                    "velocity": 0.5433070866141733,
                    "duration": 0.14347199999999916
                },
                {
                    "name": "G#5",
                    "midi": 80,
                    "time": 12.482063999999978,
                    "velocity": 0.4330708661417323,
                    "duration": 0.07173599999999958
                },
                {
                    "name": "F4",
                    "midi": 65,
                    "time": 12.625535999999977,
                    "velocity": 0.5039370078740157,
                    "duration": 0.14347199999999916
                },
                {
                    "name": "A#5",
                    "midi": 82,
                    "time": 12.769007999999976,
                    "velocity": 0.44881889763779526,
                    "duration": 0.07173599999999958
                },
                {
                    "name": "A#4",
                    "midi": 70,
                    "time": 12.912479999999976,
                    "velocity": 0.49606299212598426,
                    "duration": 0.14347199999999916
                },
                {
                    "name": "F#5",
                    "midi": 78,
                    "time": 13.055951999999975,
                    "velocity": 0.4251968503937008,
                    "duration": 0.07173599999999958
                },
                {
                    "name": "B4",
                    "midi": 71,
                    "time": 13.199423999999974,
                    "velocity": 0.4330708661417323,
                    "duration": 0.14347199999999916
                },
                {
                    "name": "G#5",
                    "midi": 80,
                    "time": 13.342895999999973,
                    "velocity": 0.3779527559055118,
                    "duration": 0.07173599999999958
                },
                {
                    "name": "F4",
                    "midi": 65,
                    "time": 13.486367999999972,
                    "velocity": 0.3858267716535433,
                    "duration": 0.14347199999999916
                },
                {
                    "name": "A5",
                    "midi": 81,
                    "time": 13.629839999999971,
                    "velocity": 0.33858267716535434,
                    "duration": 0.07173599999999958
                },
                {
                    "name": "F#5",
                    "midi": 78,
                    "time": 13.77331199999997,
                    "velocity": 0.3543307086614173,
                    "duration": 0.14347199999999916
                },
                {
                    "name": "F#4",
                    "midi": 66,
                    "time": 13.91678399999997,
                    "velocity": 0.31496062992125984,
                    "duration": 0.14347199999999916
                },
                {
                    "name": "C#4",
                    "midi": 61,
                    "time": 14.060255999999969,
                    "velocity": 0.23622047244094488,
                    "duration": 0.14347199999999916
                },
                {
                    "name": "B4",
                    "midi": 71,
                    "time": 14.203727999999968,
                    "velocity": 0.41732283464566927,
                    "duration": 0.2869439999999983
                },
                {
                    "name": "E5",
                    "midi": 76,
                    "time": 14.347199999999967,
                    "velocity": 0.3858267716535433,
                    "duration": 0.14347199999999916
                },
                {
                    "name": "A4",
                    "midi": 69,
                    "time": 14.490671999999966,
                    "velocity": 0.33070866141732286,
                    "duration": 0.14347199999999916
                },
                {
                    "name": "C#4",
                    "midi": 61,
                    "time": 14.634143999999965,
                    "velocity": 0.36220472440944884,
                    "duration": 0.14347199999999916
                },
                {
                    "name": "A#4",
                    "midi": 70,
                    "time": 14.777615999999965,
                    "velocity": 0.5118110236220472,
                    "duration": 0.2869439999999983
                },
                {
                    "name": "E5",
                    "midi": 76,
                    "time": 14.921087999999964,
                    "velocity": 0.44881889763779526,
                    "duration": 0.14347199999999916
                },
                {
                    "name": "A4",
                    "midi": 69,
                    "time": 15.064559999999963,
                    "velocity": 0.3937007874015748,
                    "duration": 0.14347199999999916
                },
                {
                    "name": "C#4",
                    "midi": 61,
                    "time": 15.208031999999962,
                    "velocity": 0.4645669291338583,
                    "duration": 0.14347199999999916
                },
                {
                    "name": "B4",
                    "midi": 71,
                    "time": 15.351503999999961,
                    "velocity": 0.5275590551181102,
                    "duration": 0.2869439999999983
                },
                {
                    "name": "E5",
                    "midi": 76,
                    "time": 15.49497599999996,
                    "velocity": 0.5275590551181102,
                    "duration": 0.14347199999999916
                },
                {
                    "name": "A4",
                    "midi": 69,
                    "time": 15.63844799999996,
                    "velocity": 0.48031496062992124,
                    "duration": 0.14347199999999916
                },
                {
                    "name": "C#4",
                    "midi": 61,
                    "time": 15.781919999999959,
                    "velocity": 0.49606299212598426,
                    "duration": 0.14347199999999916
                },
                {
                    "name": "A#4",
                    "midi": 70,
                    "time": 15.925391999999958,
                    "velocity": 0.5511811023622047,
                    "duration": 0.2869440000000001
                },
                {
                    "name": "E5",
                    "midi": 76,
                    "time": 16.06886399999996,
                    "velocity": 0.5039370078740157,
                    "duration": 0.14347199999999916
                },
                {
                    "name": "A4",
                    "midi": 69,
                    "time": 16.212335999999958,
                    "velocity": 0.4566929133858268,
                    "duration": 0.14347199999999916
                },
                {
                    "name": "C#4",
                    "midi": 61,
                    "time": 16.355807999999957,
                    "velocity": 0.5118110236220472,
                    "duration": 0.14347199999999916
                },
                {
                    "name": "B4",
                    "midi": 71,
                    "time": 16.499279999999956,
                    "velocity": 0.4566929133858268,
                    "duration": 0.2869439999999983
                },
                {
                    "name": "E5",
                    "midi": 76,
                    "time": 16.642751999999955,
                    "velocity": 0.48031496062992124,
                    "duration": 0.14347199999999916
                },
                {
                    "name": "A4",
                    "midi": 69,
                    "time": 16.786223999999955,
                    "velocity": 0.3937007874015748,
                    "duration": 0.14347199999999916
                },
                {
                    "name": "C#4",
                    "midi": 61,
                    "time": 16.929695999999954,
                    "velocity": 0.3779527559055118,
                    "duration": 0.14347199999999916
                },
                {
                    "name": "F#4",
                    "midi": 66,
                    "time": 17.073167999999953,
                    "velocity": 0.36220472440944884,
                    "duration": 0.14347199999999916
                },
                {
                    "name": "D4",
                    "midi": 62,
                    "time": 17.216639999999952,
                    "velocity": 0.3858267716535433,
                    "duration": 0.14347199999999916
                },
                {
                    "name": "A3",
                    "midi": 57,
                    "time": 17.36011199999995,
                    "velocity": 0.3543307086614173,
                    "duration": 0.14347199999999916
                },
                {
                    "name": "A#3",
                    "midi": 58,
                    "time": 17.50358399999995,
                    "velocity": 0.3543307086614173,
                    "duration": 0.14347199999999916
                },
                {
                    "name": "B3",
                    "midi": 59,
                    "time": 17.64705599999995,
                    "velocity": 0.3464566929133858,
                    "duration": 0.14347199999999916
                },
                {
                    "name": "G4",
                    "midi": 67,
                    "time": 17.79052799999995,
                    "velocity": 0.3700787401574803,
                    "duration": 0.14347199999999916
                },
                {
                    "name": "C#4",
                    "midi": 61,
                    "time": 17.79052799999995,
                    "velocity": 0.30708661417322836,
                    "duration": 0.14347199999999916
                },
                {
                    "name": "F#4",
                    "midi": 66,
                    "time": 17.933999999999948,
                    "velocity": 0.36220472440944884,
                    "duration": 0.10760399999999848
                },
                {
                    "name": "D4",
                    "midi": 62,
                    "time": 18.077471999999947,
                    "velocity": 0.4409448818897638,
                    "duration": 0.14347199999999916
                },
                {
                    "name": "D5",
                    "midi": 74,
                    "time": 18.220943999999946,
                    "velocity": 0.4015748031496063,
                    "duration": 0.14347199999999916
                },
                {
                    "name": "F#4",
                    "midi": 66,
                    "time": 18.364415999999945,
                    "velocity": 0.4015748031496063,
                    "duration": 0.14347199999999916
                },
                {
                    "name": "A4",
                    "midi": 69,
                    "time": 18.507887999999944,
                    "velocity": 0.4015748031496063,
                    "duration": 0.14347199999999916
                },
                {
                    "name": "G#4",
                    "midi": 68,
                    "time": 18.651359999999944,
                    "velocity": 0.3543307086614173,
                    "duration": 0.14347199999999916
                },
                {
                    "name": "C5",
                    "midi": 72,
                    "time": 18.651359999999944,
                    "velocity": 0.41732283464566927,
                    "duration": 0.14347199999999916
                },
                {
                    "name": "B4",
                    "midi": 71,
                    "time": 18.794831999999943,
                    "velocity": 0.4015748031496063,
                    "duration": 0.10760399999999848
                },
                {
                    "name": "E4",
                    "midi": 64,
                    "time": 18.938303999999942,
                    "velocity": 0.4566929133858268,
                    "duration": 0.14347199999999916
                },
                {
                    "name": "A4",
                    "midi": 69,
                    "time": 19.08177599999994,
                    "velocity": 0.4251968503937008,
                    "duration": 0.14347199999999916
                },
                {
                    "name": "F4",
                    "midi": 65,
                    "time": 19.22524799999994,
                    "velocity": 0.4251968503937008,
                    "duration": 0.14347199999999916
                },
                {
                    "name": "A4",
                    "midi": 69,
                    "time": 19.36871999999994,
                    "velocity": 0.4251968503937008,
                    "duration": 0.14347199999999916
                },
                {
                    "name": "G#4",
                    "midi": 68,
                    "time": 19.51219199999994,
                    "velocity": 0.3937007874015748,
                    "duration": 0.14347199999999916
                },
                {
                    "name": "C5",
                    "midi": 72,
                    "time": 19.51219199999994,
                    "velocity": 0.4645669291338583,
                    "duration": 0.14347199999999916
                },
                {
                    "name": "B4",
                    "midi": 71,
                    "time": 19.655663999999938,
                    "velocity": 0.4409448818897638,
                    "duration": 0.10760399999999848
                },
                {
                    "name": "A4",
                    "midi": 69,
                    "time": 19.799135999999937,
                    "velocity": 0.4881889763779528,
                    "duration": 0.14347199999999916
                },
                {
                    "name": "E5",
                    "midi": 76,
                    "time": 19.942607999999936,
                    "velocity": 0.4094488188976378,
                    "duration": 0.14347199999999916
                },
                {
                    "name": "E4",
                    "midi": 64,
                    "time": 20.086079999999935,
                    "velocity": 0.47244094488188976,
                    "duration": 0.14347199999999916
                },
                {
                    "name": "A4",
                    "midi": 69,
                    "time": 20.229551999999934,
                    "velocity": 0.44881889763779526,
                    "duration": 0.14347199999999916
                },
                {
                    "name": "D#4",
                    "midi": 63,
                    "time": 20.373023999999933,
                    "velocity": 0.3937007874015748,
                    "duration": 0.14347199999999916
                },
                {
                    "name": "C5",
                    "midi": 72,
                    "time": 20.373023999999933,
                    "velocity": 0.4645669291338583,
                    "duration": 0.14347199999999916
                },
                {
                    "name": "B4",
                    "midi": 71,
                    "time": 20.516495999999933,
                    "velocity": 0.47244094488188976,
                    "duration": 0.10760399999999848
                },
                {
                    "name": "B3",
                    "midi": 59,
                    "time": 20.65996799999993,
                    "velocity": 0.5196850393700787,
                    "duration": 0.14347199999999916
                },
                {
                    "name": "E4",
                    "midi": 64,
                    "time": 20.80343999999993,
                    "velocity": 0.44881889763779526,
                    "duration": 0.14347199999999916
                },
                {
                    "name": "C4",
                    "midi": 60,
                    "time": 20.94691199999993,
                    "velocity": 0.4566929133858268,
                    "duration": 0.14347199999999916
                },
                {
                    "name": "E4",
                    "midi": 64,
                    "time": 21.09038399999993,
                    "velocity": 0.44881889763779526,
                    "duration": 0.14347199999999916
                },
                {
                    "name": "G4",
                    "midi": 67,
                    "time": 21.23385599999993,
                    "velocity": 0.5039370078740157,
                    "duration": 0.14347199999999916
                },
                {
                    "name": "D#4",
                    "midi": 63,
                    "time": 21.23385599999993,
                    "velocity": 0.4251968503937008,
                    "duration": 0.14347199999999916
                },
                {
                    "name": "F#4",
                    "midi": 66,
                    "time": 21.377327999999927,
                    "velocity": 0.49606299212598426,
                    "duration": 0.10760399999999848
                },
                {
                    "name": "E4",
                    "midi": 64,
                    "time": 21.520799999999927,
                    "velocity": 0.5433070866141733,
                    "duration": 0.14347199999999916
                },
                {
                    "name": "E5",
                    "midi": 76,
                    "time": 21.664271999999926,
                    "velocity": 0.48031496062992124,
                    "duration": 0.14347199999999916
                },
                {
                    "name": "G4",
                    "midi": 67,
                    "time": 21.807743999999925,
                    "velocity": 0.5039370078740157,
                    "duration": 0.14347199999999916
                },
                {
                    "name": "B4",
                    "midi": 71,
                    "time": 21.951215999999924,
                    "velocity": 0.5039370078740157,
                    "duration": 0.14347199999999916
                },
                {
                    "name": "A#4",
                    "midi": 70,
                    "time": 22.094687999999923,
                    "velocity": 0.4566929133858268,
                    "duration": 0.14347199999999916
                },
                {
                    "name": "D5",
                    "midi": 74,
                    "time": 22.094687999999923,
                    "velocity": 0.5511811023622047,
                    "duration": 0.14347199999999916
                },
                {
                    "name": "C#5",
                    "midi": 73,
                    "time": 22.238159999999922,
                    "velocity": 0.5039370078740157,
                    "duration": 0.10760399999999848
                },
                {
                    "name": "B4",
                    "midi": 71,
                    "time": 22.38163199999992,
                    "velocity": 0.6062992125984252,
                    "duration": 0.14347199999999916
                },
                {
                    "name": "F#4",
                    "midi": 66,
                    "time": 22.52510399999992,
                    "velocity": 0.49606299212598426,
                    "duration": 0.14347199999999916
                },
                {
                    "name": "G4",
                    "midi": 67,
                    "time": 22.66857599999992,
                    "velocity": 0.5511811023622047,
                    "duration": 0.14347199999999916
                },
                {
                    "name": "B4",
                    "midi": 71,
                    "time": 22.81204799999992,
                    "velocity": 0.5669291338582677,
                    "duration": 0.14347199999999916
                },
                {
                    "name": "A#4",
                    "midi": 70,
                    "time": 22.955519999999918,
                    "velocity": 0.5039370078740157,
                    "duration": 0.14347199999999916
                },
                {
                    "name": "D5",
                    "midi": 74,
                    "time": 22.955519999999918,
                    "velocity": 0.5984251968503937,
                    "duration": 0.14347199999999916
                },
                {
                    "name": "C#5",
                    "midi": 73,
                    "time": 23.098991999999917,
                    "velocity": 0.6062992125984252,
                    "duration": 0.10760399999999848
                },
                {
                    "name": "B4",
                    "midi": 71,
                    "time": 23.242463999999917,
                    "velocity": 0.6771653543307087,
                    "duration": 0.14347199999999916
                },
                {
                    "name": "B5",
                    "midi": 83,
                    "time": 23.385935999999916,
                    "velocity": 0.6299212598425197,
                    "duration": 0.14347199999999916
                },
                {
                    "name": "G#5",
                    "midi": 80,
                    "time": 23.529407999999915,
                    "velocity": 0.6456692913385826,
                    "duration": 0.14347199999999916
                },
                {
                    "name": "D5",
                    "midi": 74,
                    "time": 23.672879999999914,
                    "velocity": 0.6535433070866141,
                    "duration": 0.14347199999999916
                },
                {
                    "name": "C#5",
                    "midi": 73,
                    "time": 23.816351999999913,
                    "velocity": 0.7244094488188977,
                    "duration": 0.14347199999999916
                },
                {
                    "name": "B4",
                    "midi": 71,
                    "time": 23.959823999999912,
                    "velocity": 0.6692913385826772,
                    "duration": 0.14347199999999916
                },
                {
                    "name": "A4",
                    "midi": 69,
                    "time": 24.10329599999991,
                    "velocity": 0.7244094488188977,
                    "duration": 0.14347199999999916
                },
                {
                    "name": "D5",
                    "midi": 74,
                    "time": 24.24676799999991,
                    "velocity": 0.6062992125984252,
                    "duration": 0.07173600000000135
                },
                {
                    "name": "G4",
                    "midi": 67,
                    "time": 24.390239999999913,
                    "velocity": 0.6771653543307087,
                    "duration": 0.14347199999999916
                },
                {
                    "name": "E5",
                    "midi": 76,
                    "time": 24.533711999999912,
                    "velocity": 0.5984251968503937,
                    "duration": 0.07173600000000135
                },
                {
                    "name": "C#4",
                    "midi": 61,
                    "time": 24.677183999999915,
                    "velocity": 0.6535433070866141,
                    "duration": 0.14347199999999916
                },
                {
                    "name": "F#5",
                    "midi": 78,
                    "time": 24.820655999999914,
                    "velocity": 0.5905511811023622,
                    "duration": 0.07173600000000135
                },
                {
                    "name": "F#4",
                    "midi": 66,
                    "time": 24.964127999999917,
                    "velocity": 0.7165354330708661,
                    "duration": 0.14347199999999916
                },
                {
                    "name": "D5",
                    "midi": 74,
                    "time": 25.107599999999916,
                    "velocity": 0.5748031496062992,
                    "duration": 0.07173600000000135
                },
                {
                    "name": "G4",
                    "midi": 67,
                    "time": 25.25107199999992,
                    "velocity": 0.6299212598425197,
                    "duration": 0.14347199999999916
                },
                {
                    "name": "E5",
                    "midi": 76,
                    "time": 25.394543999999918,
                    "velocity": 0.5669291338582677,
                    "duration": 0.07173600000000135
                },
                {
                    "name": "C#4",
                    "midi": 61,
                    "time": 25.53801599999992,
                    "velocity": 0.6141732283464567,
                    "duration": 0.14347199999999916
                },
                {
                    "name": "F#5",
                    "midi": 78,
                    "time": 25.68148799999992,
                    "velocity": 0.5275590551181102,
                    "duration": 0.07173600000000135
                },
                {
                    "name": "F#4",
                    "midi": 66,
                    "time": 25.824959999999923,
                    "velocity": 0.6141732283464567,
                    "duration": 0.14347199999999916
                },
                {
                    "name": "D5",
                    "midi": 74,
                    "time": 25.968431999999922,
                    "velocity": 0.49606299212598426,
                    "duration": 0.07173600000000135
                },
                {
                    "name": "G4",
                    "midi": 67,
                    "time": 26.111903999999925,
                    "velocity": 0.5669291338582677,
                    "duration": 0.14347199999999916
                },
                {
                    "name": "E5",
                    "midi": 76,
                    "time": 26.255375999999924,
                    "velocity": 0.4566929133858268,
                    "duration": 0.07173600000000135
                },
                {
                    "name": "C#4",
                    "midi": 61,
                    "time": 26.398847999999926,
                    "velocity": 0.5196850393700787,
                    "duration": 0.14347199999999916
                },
                {
                    "name": "F#5",
                    "midi": 78,
                    "time": 26.542319999999926,
                    "velocity": 0.4645669291338583,
                    "duration": 0.07173600000000135
                },
                {
                    "name": "F#4",
                    "midi": 66,
                    "time": 26.68579199999993,
                    "velocity": 0.5118110236220472,
                    "duration": 0.14347199999999916
                },
                {
                    "name": "D5",
                    "midi": 74,
                    "time": 26.829263999999927,
                    "velocity": 0.4330708661417323,
                    "duration": 0.07173600000000135
                },
                {
                    "name": "G4",
                    "midi": 67,
                    "time": 26.97273599999993,
                    "velocity": 0.4330708661417323,
                    "duration": 0.14347199999999916
                },
                {
                    "name": "E5",
                    "midi": 76,
                    "time": 27.11620799999993,
                    "velocity": 0.3779527559055118,
                    "duration": 0.07173600000000135
                },
                {
                    "name": "C#4",
                    "midi": 61,
                    "time": 27.259679999999932,
                    "velocity": 0.3937007874015748,
                    "duration": 0.14347199999999916
                },
                {
                    "name": "F#5",
                    "midi": 78,
                    "time": 27.40315199999993,
                    "velocity": 0.33858267716535434,
                    "duration": 0.07173600000000135
                },
                {
                    "name": "F#4",
                    "midi": 66,
                    "time": 27.546623999999934,
                    "velocity": 0.3543307086614173,
                    "duration": 0.14347199999999916
                },
                {
                    "name": "D5",
                    "midi": 74,
                    "time": 27.690095999999933,
                    "velocity": 0.30708661417322836,
                    "duration": 0.14347199999999916
                },
                {
                    "name": "D4",
                    "midi": 62,
                    "time": 27.833567999999932,
                    "velocity": 0.23622047244094488,
                    "duration": 0.14347199999999916
                },
                {
                    "name": "A#4",
                    "midi": 70,
                    "time": 27.97703999999993,
                    "velocity": 0.3858267716535433,
                    "duration": 0.2869439999999983
                },
                {
                    "name": "E5",
                    "midi": 76,
                    "time": 28.12051199999993,
                    "velocity": 0.33070866141732286,
                    "duration": 0.14347199999999916
                },
                {
                    "name": "A4",
                    "midi": 69,
                    "time": 28.26398399999993,
                    "velocity": 0.3464566929133858,
                    "duration": 0.14347199999999916
                },
                {
                    "name": "D4",
                    "midi": 62,
                    "time": 28.40745599999993,
                    "velocity": 0.2992125984251969,
                    "duration": 0.14347199999999916
                },
                {
                    "name": "G4",
                    "midi": 67,
                    "time": 28.550927999999928,
                    "velocity": 0.4409448818897638,
                    "duration": 0.28694400000000186
                },
                {
                    "name": "D5",
                    "midi": 74,
                    "time": 28.694399999999927,
                    "velocity": 0.3543307086614173,
                    "duration": 0.07173600000000135
                },
                {
                    "name": "F#4",
                    "midi": 66,
                    "time": 28.83787199999993,
                    "velocity": 0.4094488188976378,
                    "duration": 0.2869439999999983
                },
                {
                    "name": "D4",
                    "midi": 62,
                    "time": 28.98134399999993,
                    "velocity": 0.3937007874015748,
                    "duration": 0.14347199999999916
                },
                {
                    "name": "A#4",
                    "midi": 70,
                    "time": 29.124815999999928,
                    "velocity": 0.47244094488188976,
                    "duration": 0.28694400000000186
                },
                {
                    "name": "D5",
                    "midi": 74,
                    "time": 29.268287999999927,
                    "velocity": 0.4015748031496063,
                    "duration": 0.07173600000000135
                },
                {
                    "name": "A4",
                    "midi": 69,
                    "time": 29.41175999999993,
                    "velocity": 0.4566929133858268,
                    "duration": 0.2869439999999983
                },
                {
                    "name": "D4",
                    "midi": 62,
                    "time": 29.55523199999993,
                    "velocity": 0.44881889763779526,
                    "duration": 0.14347199999999916
                },
                {
                    "name": "G4",
                    "midi": 67,
                    "time": 29.69870399999993,
                    "velocity": 0.5511811023622047,
                    "duration": 0.28694400000000186
                },
                {
                    "name": "D5",
                    "midi": 74,
                    "time": 29.842175999999927,
                    "velocity": 0.44881889763779526,
                    "duration": 0.07173600000000135
                },
                {
                    "name": "F#4",
                    "midi": 66,
                    "time": 29.98564799999993,
                    "velocity": 0.49606299212598426,
                    "duration": 0.14347199999999916
                },
                {
                    "name": "D4",
                    "midi": 62,
                    "time": 30.12911999999993,
                    "velocity": 0.5433070866141733,
                    "duration": 0.14347199999999916
                },
                {
                    "name": "A#4",
                    "midi": 70,
                    "time": 30.27259199999993,
                    "velocity": 0.6062992125984252,
                    "duration": 0.28694400000000186
                },
                {
                    "name": "D5",
                    "midi": 74,
                    "time": 30.416063999999928,
                    "velocity": 0.5511811023622047,
                    "duration": 0.07173600000000135
                },
                {
                    "name": "A4",
                    "midi": 69,
                    "time": 30.55953599999993,
                    "velocity": 0.6535433070866141,
                    "duration": 0.2869439999999983
                },
                {
                    "name": "D4",
                    "midi": 62,
                    "time": 30.70300799999993,
                    "velocity": 0.7165354330708661,
                    "duration": 0.14347199999999916
                },
                {
                    "name": "D5",
                    "midi": 74,
                    "time": 30.84647999999993,
                    "velocity": 0.7559055118110236,
                    "duration": 0.14347199999999916
                },
                {
                    "name": "F#6",
                    "midi": 90,
                    "time": 30.989951999999928,
                    "velocity": 0.8503937007874016,
                    "duration": 0.14347199999999916
                },
                {
                    "name": "G4",
                    "midi": 67,
                    "time": 31.77904799999993,
                    "velocity": 0.6220472440944882,
                    "duration": 0.2152080000000005
                },
                {
                    "name": "E5",
                    "midi": 76,
                    "time": 31.81491599999993,
                    "velocity": 0.6771653543307087,
                    "duration": 0.17933999999999983
                },
                {
                    "name": "A5",
                    "midi": 81,
                    "time": 31.85078399999993,
                    "velocity": 0.7322834645669292,
                    "duration": 0.14347199999999916
                },
                {
                    "name": "F#4",
                    "midi": 66,
                    "time": 32.71161599999993,
                    "velocity": 0.6771653543307087,
                    "duration": 0.1434720000000027
                },
                {
                    "name": "D5",
                    "midi": 74,
                    "time": 32.71161599999993,
                    "velocity": 0.6771653543307087,
                    "duration": 0.1434720000000027
                },
                {
                    "name": "F#5",
                    "midi": 78,
                    "time": 32.71161599999993,
                    "velocity": 0.7952755905511811,
                    "duration": 0.1434720000000027
                }
            ],
            "controlChanges": {
                "7": [
                    {
                        "number": 7,
                        "time": 0,
                        "value": 0.7874015748031497
                    }
                ],
                "10": [
                    {
                        "number": 10,
                        "time": 0,
                        "value": 0.5039370078740157
                    }
                ],
                "91": [
                    {
                        "number": 91,
                        "time": 0,
                        "value": 1
                    }
                ]
            },
            "id": 1,
            "name": "Piano right",
            "instrumentNumber": 0,
            "instrument": "acoustic grand piano",
            "instrumentFamily": "piano",
            "channelNumber": 0,
            "isPercussion": false
        },
        {
            "startTime": 0.28694400000000003,
            "duration": 32.78335199999999,
            "length": 223,
            "notes": [
                {
                    "name": "G3",
                    "midi": 55,
                    "time": 0.28694400000000003,
                    "velocity": 0.2992125984251969,
                    "duration": 0.143472
                },
                {
                    "name": "A2",
                    "midi": 45,
                    "time": 0.430416,
                    "velocity": 0.2677165354330709,
                    "duration": 0.14347200000000004
                },
                {
                    "name": "G3",
                    "midi": 55,
                    "time": 0.5738880000000001,
                    "velocity": 0.25196850393700787,
                    "duration": 0.14347200000000004
                },
                {
                    "name": "E4",
                    "midi": 64,
                    "time": 0.7173600000000001,
                    "velocity": 0.2440944881889764,
                    "duration": 0.14347200000000004
                },
                {
                    "name": "G3",
                    "midi": 55,
                    "time": 0.8608320000000002,
                    "velocity": 0.3543307086614173,
                    "duration": 0.14347199999999993
                },
                {
                    "name": "A2",
                    "midi": 45,
                    "time": 1.004304,
                    "velocity": 0.30708661417322836,
                    "duration": 0.14347200000000004
                },
                {
                    "name": "G3",
                    "midi": 55,
                    "time": 1.1477760000000001,
                    "velocity": 0.33858267716535434,
                    "duration": 0.14347200000000004
                },
                {
                    "name": "E4",
                    "midi": 64,
                    "time": 1.2912480000000002,
                    "velocity": 0.3228346456692913,
                    "duration": 0.07173600000000002
                },
                {
                    "name": "G3",
                    "midi": 55,
                    "time": 1.4347200000000002,
                    "velocity": 0.3937007874015748,
                    "duration": 0.14347199999999982
                },
                {
                    "name": "A2",
                    "midi": 45,
                    "time": 1.578192,
                    "velocity": 0.30708661417322836,
                    "duration": 0.14347200000000004
                },
                {
                    "name": "G3",
                    "midi": 55,
                    "time": 1.721664,
                    "velocity": 0.3858267716535433,
                    "duration": 0.14347200000000004
                },
                {
                    "name": "E4",
                    "midi": 64,
                    "time": 1.8651360000000001,
                    "velocity": 0.33070866141732286,
                    "duration": 0.07173600000000002
                },
                {
                    "name": "G3",
                    "midi": 55,
                    "time": 2.008608,
                    "velocity": 0.3937007874015748,
                    "duration": 0.14347200000000004
                },
                {
                    "name": "A2",
                    "midi": 45,
                    "time": 2.15208,
                    "velocity": 0.3464566929133858,
                    "duration": 0.14347200000000004
                },
                {
                    "name": "G3",
                    "midi": 55,
                    "time": 2.2955520000000003,
                    "velocity": 0.3858267716535433,
                    "duration": 0.14347200000000004
                },
                {
                    "name": "E4",
                    "midi": 64,
                    "time": 2.4390240000000003,
                    "velocity": 0.3464566929133858,
                    "duration": 0.07173600000000002
                },
                {
                    "name": "A3",
                    "midi": 57,
                    "time": 2.5824960000000003,
                    "velocity": 0.3937007874015748,
                    "duration": 0.14347200000000004
                },
                {
                    "name": "A2",
                    "midi": 45,
                    "time": 2.7259680000000004,
                    "velocity": 0.3228346456692913,
                    "duration": 0.14347200000000004
                },
                {
                    "name": "G3",
                    "midi": 55,
                    "time": 2.8694400000000004,
                    "velocity": 0.3464566929133858,
                    "duration": 0.14347200000000004
                },
                {
                    "name": "E4",
                    "midi": 64,
                    "time": 3.0129120000000005,
                    "velocity": 0.2755905511811024,
                    "duration": 0.07173600000000002
                },
                {
                    "name": "G3",
                    "midi": 55,
                    "time": 3.1563840000000005,
                    "velocity": 0.2755905511811024,
                    "duration": 0.14347200000000004
                },
                {
                    "name": "A3",
                    "midi": 57,
                    "time": 3.2998560000000006,
                    "velocity": 0.23622047244094488,
                    "duration": 0.14347200000000004
                },
                {
                    "name": "D2",
                    "midi": 38,
                    "time": 3.4433280000000006,
                    "velocity": 0.2992125984251969,
                    "duration": 0.1434719999999996
                },
                {
                    "name": "F#3",
                    "midi": 54,
                    "time": 3.5868,
                    "velocity": 0.2677165354330709,
                    "duration": 0.14347200000000004
                },
                {
                    "name": "G3",
                    "midi": 55,
                    "time": 3.7302720000000003,
                    "velocity": 0.2755905511811024,
                    "duration": 0.14347200000000004
                },
                {
                    "name": "G2",
                    "midi": 43,
                    "time": 3.8737440000000003,
                    "velocity": 0.25196850393700787,
                    "duration": 0.14347200000000004
                },
                {
                    "name": "A2",
                    "midi": 45,
                    "time": 4.017216,
                    "velocity": 0.29133858267716534,
                    "duration": 0.14347200000000004
                },
                {
                    "name": "G3",
                    "midi": 55,
                    "time": 4.160688,
                    "velocity": 0.29133858267716534,
                    "duration": 0.10760400000000025
                },
                {
                    "name": "F#3",
                    "midi": 54,
                    "time": 4.30416,
                    "velocity": 0.3228346456692913,
                    "duration": 0.14347200000000004
                },
                {
                    "name": "B2",
                    "midi": 47,
                    "time": 4.4476320000000005,
                    "velocity": 0.28346456692913385,
                    "duration": 0.14347200000000004
                },
                {
                    "name": "D4",
                    "midi": 62,
                    "time": 4.5911040000000005,
                    "velocity": 0.28346456692913385,
                    "duration": 0.14347200000000004
                },
                {
                    "name": "F#3",
                    "midi": 54,
                    "time": 4.734576000000001,
                    "velocity": 0.28346456692913385,
                    "duration": 0.14347200000000004
                },
                {
                    "name": "E3",
                    "midi": 52,
                    "time": 4.878048000000001,
                    "velocity": 0.33070866141732286,
                    "duration": 0.14347200000000004
                },
                {
                    "name": "D4",
                    "midi": 62,
                    "time": 5.021520000000001,
                    "velocity": 0.28346456692913385,
                    "duration": 0.10760400000000025
                },
                {
                    "name": "C#4",
                    "midi": 61,
                    "time": 5.164992000000001,
                    "velocity": 0.3779527559055118,
                    "duration": 0.14347200000000004
                },
                {
                    "name": "A3",
                    "midi": 57,
                    "time": 5.308464000000001,
                    "velocity": 0.3228346456692913,
                    "duration": 0.14347200000000004
                },
                {
                    "name": "D4",
                    "midi": 62,
                    "time": 5.451936000000001,
                    "velocity": 0.30708661417322836,
                    "duration": 0.14347200000000004
                },
                {
                    "name": "D3",
                    "midi": 50,
                    "time": 5.595408000000001,
                    "velocity": 0.30708661417322836,
                    "duration": 0.14347200000000004
                },
                {
                    "name": "E3",
                    "midi": 52,
                    "time": 5.738880000000001,
                    "velocity": 0.33070866141732286,
                    "duration": 0.14347200000000004
                },
                {
                    "name": "D4",
                    "midi": 62,
                    "time": 5.882352000000001,
                    "velocity": 0.29133858267716534,
                    "duration": 0.10760400000000025
                },
                {
                    "name": "C#4",
                    "midi": 61,
                    "time": 6.025824000000001,
                    "velocity": 0.3858267716535433,
                    "duration": 0.14347200000000004
                },
                {
                    "name": "C4",
                    "midi": 60,
                    "time": 6.169296000000001,
                    "velocity": 0.30708661417322836,
                    "duration": 0.14347200000000004
                },
                {
                    "name": "F#3",
                    "midi": 54,
                    "time": 6.312768000000001,
                    "velocity": 0.3228346456692913,
                    "duration": 0.14347200000000004
                },
                {
                    "name": "A2",
                    "midi": 45,
                    "time": 6.456240000000001,
                    "velocity": 0.3228346456692913,
                    "duration": 0.14347200000000004
                },
                {
                    "name": "B2",
                    "midi": 47,
                    "time": 6.599712000000001,
                    "velocity": 0.36220472440944884,
                    "duration": 0.14347200000000004
                },
                {
                    "name": "A3",
                    "midi": 57,
                    "time": 6.743184000000001,
                    "velocity": 0.31496062992125984,
                    "duration": 0.10760400000000025
                },
                {
                    "name": "G3",
                    "midi": 55,
                    "time": 6.886656000000001,
                    "velocity": 0.3858267716535433,
                    "duration": 0.14347200000000004
                },
                {
                    "name": "E2",
                    "midi": 40,
                    "time": 7.030128000000001,
                    "velocity": 0.3543307086614173,
                    "duration": 0.14347200000000004
                },
                {
                    "name": "A2",
                    "midi": 45,
                    "time": 7.173600000000001,
                    "velocity": 0.3779527559055118,
                    "duration": 0.14347200000000004
                },
                {
                    "name": "A3",
                    "midi": 57,
                    "time": 7.317072000000001,
                    "velocity": 0.3464566929133858,
                    "duration": 0.14347200000000004
                },
                {
                    "name": "B2",
                    "midi": 47,
                    "time": 7.460544000000001,
                    "velocity": 0.3858267716535433,
                    "duration": 0.14347200000000004
                },
                {
                    "name": "A3",
                    "midi": 57,
                    "time": 7.604016000000001,
                    "velocity": 0.3700787401574803,
                    "duration": 0.10760400000000025
                },
                {
                    "name": "G3",
                    "midi": 55,
                    "time": 7.7474880000000015,
                    "velocity": 0.4015748031496063,
                    "duration": 0.14347200000000004
                },
                {
                    "name": "E3",
                    "midi": 52,
                    "time": 7.8909600000000015,
                    "velocity": 0.36220472440944884,
                    "duration": 0.14347199999999916
                },
                {
                    "name": "E4",
                    "midi": 64,
                    "time": 8.034432,
                    "velocity": 0.36220472440944884,
                    "duration": 0.14347199999999916
                },
                {
                    "name": "G3",
                    "midi": 55,
                    "time": 8.177904,
                    "velocity": 0.36220472440944884,
                    "duration": 0.14347199999999916
                },
                {
                    "name": "F#3",
                    "midi": 54,
                    "time": 8.321375999999999,
                    "velocity": 0.4015748031496063,
                    "duration": 0.14347200000000093
                },
                {
                    "name": "E4",
                    "midi": 64,
                    "time": 8.464848,
                    "velocity": 0.36220472440944884,
                    "duration": 0.10760400000000025
                },
                {
                    "name": "D4",
                    "midi": 62,
                    "time": 8.60832,
                    "velocity": 0.4251968503937008,
                    "duration": 0.14347200000000093
                },
                {
                    "name": "B2",
                    "midi": 47,
                    "time": 8.751792000000002,
                    "velocity": 0.4409448818897638,
                    "duration": 0.14347199999999916
                },
                {
                    "name": "E3",
                    "midi": 52,
                    "time": 8.895264000000001,
                    "velocity": 0.3858267716535433,
                    "duration": 0.14347199999999916
                },
                {
                    "name": "E4",
                    "midi": 64,
                    "time": 9.038736,
                    "velocity": 0.4094488188976378,
                    "duration": 0.14347199999999916
                },
                {
                    "name": "F#3",
                    "midi": 54,
                    "time": 9.182208,
                    "velocity": 0.4330708661417323,
                    "duration": 0.14347199999999916
                },
                {
                    "name": "E4",
                    "midi": 64,
                    "time": 9.325679999999998,
                    "velocity": 0.4094488188976378,
                    "duration": 0.10760400000000025
                },
                {
                    "name": "D4",
                    "midi": 62,
                    "time": 9.469152,
                    "velocity": 0.4645669291338583,
                    "duration": 0.14347200000000093
                },
                {
                    "name": "F3",
                    "midi": 53,
                    "time": 9.612624,
                    "velocity": 0.4094488188976378,
                    "duration": 0.14347199999999916
                },
                {
                    "name": "B3",
                    "midi": 59,
                    "time": 9.756096,
                    "velocity": 0.4251968503937008,
                    "duration": 0.14347199999999916
                },
                {
                    "name": "G#4",
                    "midi": 68,
                    "time": 9.899567999999999,
                    "velocity": 0.4330708661417323,
                    "duration": 0.14347199999999916
                },
                {
                    "name": "C#4",
                    "midi": 61,
                    "time": 10.043039999999998,
                    "velocity": 0.4881889763779528,
                    "duration": 0.14347200000000093
                },
                {
                    "name": "D4",
                    "midi": 62,
                    "time": 10.186511999999999,
                    "velocity": 0.4251968503937008,
                    "duration": 0.14347199999999916
                },
                {
                    "name": "C#4",
                    "midi": 61,
                    "time": 10.329983999999998,
                    "velocity": 0.4881889763779528,
                    "duration": 0.14347200000000093
                },
                {
                    "name": "F#3",
                    "midi": 54,
                    "time": 10.473455999999999,
                    "velocity": 0.3464566929133858,
                    "duration": 0.07173599999999958
                },
                {
                    "name": "D4",
                    "midi": 62,
                    "time": 10.616927999999998,
                    "velocity": 0.41732283464566927,
                    "duration": 0.14347200000000093
                },
                {
                    "name": "D3",
                    "midi": 50,
                    "time": 10.760399999999999,
                    "velocity": 0.33070866141732286,
                    "duration": 0.07173599999999958
                },
                {
                    "name": "C#4",
                    "midi": 61,
                    "time": 10.903871999999998,
                    "velocity": 0.41732283464566927,
                    "duration": 0.14347200000000093
                },
                {
                    "name": "C#3",
                    "midi": 49,
                    "time": 11.047343999999999,
                    "velocity": 0.33070866141732286,
                    "duration": 0.07173599999999958
                },
                {
                    "name": "F#2",
                    "midi": 42,
                    "time": 11.190815999999998,
                    "velocity": 0.44881889763779526,
                    "duration": 0.14347200000000093
                },
                {
                    "name": "C#4",
                    "midi": 61,
                    "time": 11.334287999999999,
                    "velocity": 0.33070866141732286,
                    "duration": 0.07173599999999958
                },
                {
                    "name": "D4",
                    "midi": 62,
                    "time": 11.477759999999998,
                    "velocity": 0.3937007874015748,
                    "duration": 0.14347200000000093
                },
                {
                    "name": "B2",
                    "midi": 47,
                    "time": 11.621232,
                    "velocity": 0.31496062992125984,
                    "duration": 0.07173599999999958
                },
                {
                    "name": "C#4",
                    "midi": 61,
                    "time": 11.764703999999998,
                    "velocity": 0.3779527559055118,
                    "duration": 0.14347200000000093
                },
                {
                    "name": "C#3",
                    "midi": 49,
                    "time": 11.908176,
                    "velocity": 0.2992125984251969,
                    "duration": 0.07173599999999958
                },
                {
                    "name": "F#2",
                    "midi": 42,
                    "time": 12.051647999999998,
                    "velocity": 0.4094488188976378,
                    "duration": 0.14347200000000093
                },
                {
                    "name": "C#4",
                    "midi": 61,
                    "time": 12.19512,
                    "velocity": 0.2992125984251969,
                    "duration": 0.07173599999999958
                },
                {
                    "name": "D4",
                    "midi": 62,
                    "time": 12.338591999999998,
                    "velocity": 0.36220472440944884,
                    "duration": 0.14347200000000093
                },
                {
                    "name": "B2",
                    "midi": 47,
                    "time": 12.482064,
                    "velocity": 0.28346456692913385,
                    "duration": 0.07173599999999958
                },
                {
                    "name": "C#4",
                    "midi": 61,
                    "time": 12.625535999999999,
                    "velocity": 0.33070866141732286,
                    "duration": 0.14347200000000093
                },
                {
                    "name": "C#3",
                    "midi": 49,
                    "time": 12.769008,
                    "velocity": 0.25196850393700787,
                    "duration": 0.07173599999999958
                },
                {
                    "name": "F#2",
                    "midi": 42,
                    "time": 12.912479999999999,
                    "velocity": 0.33858267716535434,
                    "duration": 0.14347200000000093
                },
                {
                    "name": "C#4",
                    "midi": 61,
                    "time": 13.055952,
                    "velocity": 0.28346456692913385,
                    "duration": 0.07173599999999958
                },
                {
                    "name": "D4",
                    "midi": 62,
                    "time": 13.199423999999999,
                    "velocity": 0.2992125984251969,
                    "duration": 0.14347200000000093
                },
                {
                    "name": "B2",
                    "midi": 47,
                    "time": 13.342896,
                    "velocity": 0.25196850393700787,
                    "duration": 0.07173599999999958
                },
                {
                    "name": "C#4",
                    "midi": 61,
                    "time": 13.486367999999999,
                    "velocity": 0.28346456692913385,
                    "duration": 0.14347200000000093
                },
                {
                    "name": "C#3",
                    "midi": 49,
                    "time": 13.62984,
                    "velocity": 0.2283464566929134,
                    "duration": 0.07173599999999958
                },
                {
                    "name": "F#2",
                    "midi": 42,
                    "time": 13.773311999999999,
                    "velocity": 0.3228346456692913,
                    "duration": 0.14347200000000093
                },
                {
                    "name": "A3",
                    "midi": 57,
                    "time": 13.916784,
                    "velocity": 0.25984251968503935,
                    "duration": 0.14347199999999916
                },
                {
                    "name": "G3",
                    "midi": 55,
                    "time": 14.060255999999999,
                    "velocity": 0.2992125984251969,
                    "duration": 0.14347200000000093
                },
                {
                    "name": "A2",
                    "midi": 45,
                    "time": 14.203728,
                    "velocity": 0.2677165354330709,
                    "duration": 0.14347199999999916
                },
                {
                    "name": "G3",
                    "midi": 55,
                    "time": 14.347199999999999,
                    "velocity": 0.28346456692913385,
                    "duration": 0.14347199999999916
                },
                {
                    "name": "E4",
                    "midi": 64,
                    "time": 14.490671999999998,
                    "velocity": 0.2440944881889764,
                    "duration": 0.14347199999999916
                },
                {
                    "name": "G3",
                    "midi": 55,
                    "time": 14.634143999999997,
                    "velocity": 0.3543307086614173,
                    "duration": 0.14347200000000093
                },
                {
                    "name": "A2",
                    "midi": 45,
                    "time": 14.777615999999998,
                    "velocity": 0.30708661417322836,
                    "duration": 0.14347199999999916
                },
                {
                    "name": "G3",
                    "midi": 55,
                    "time": 14.921087999999997,
                    "velocity": 0.3464566929133858,
                    "duration": 0.14347199999999916
                },
                {
                    "name": "E4",
                    "midi": 64,
                    "time": 15.064559999999997,
                    "velocity": 0.3228346456692913,
                    "duration": 0.07173599999999958
                },
                {
                    "name": "G3",
                    "midi": 55,
                    "time": 15.208031999999996,
                    "velocity": 0.3937007874015748,
                    "duration": 0.14347200000000093
                },
                {
                    "name": "A2",
                    "midi": 45,
                    "time": 15.351503999999997,
                    "velocity": 0.30708661417322836,
                    "duration": 0.14347199999999916
                },
                {
                    "name": "G3",
                    "midi": 55,
                    "time": 15.494975999999996,
                    "velocity": 0.3937007874015748,
                    "duration": 0.14347199999999916
                },
                {
                    "name": "E4",
                    "midi": 64,
                    "time": 15.638447999999995,
                    "velocity": 0.33070866141732286,
                    "duration": 0.07173599999999958
                },
                {
                    "name": "G3",
                    "midi": 55,
                    "time": 15.781919999999994,
                    "velocity": 0.3937007874015748,
                    "duration": 0.14347200000000093
                },
                {
                    "name": "A2",
                    "midi": 45,
                    "time": 15.925391999999995,
                    "velocity": 0.3464566929133858,
                    "duration": 0.14347199999999916
                },
                {
                    "name": "G3",
                    "midi": 55,
                    "time": 16.068863999999994,
                    "velocity": 0.3779527559055118,
                    "duration": 0.14347199999999916
                },
                {
                    "name": "E4",
                    "midi": 64,
                    "time": 16.212335999999993,
                    "velocity": 0.3464566929133858,
                    "duration": 0.07173600000000135
                },
                {
                    "name": "G3",
                    "midi": 55,
                    "time": 16.355807999999996,
                    "velocity": 0.3937007874015748,
                    "duration": 0.1434720000000027
                },
                {
                    "name": "A3",
                    "midi": 57,
                    "time": 16.355807999999996,
                    "velocity": 0.3937007874015748,
                    "duration": 0.1434720000000027
                },
                {
                    "name": "A2",
                    "midi": 45,
                    "time": 16.49928,
                    "velocity": 0.3228346456692913,
                    "duration": 0.14347199999999916
                },
                {
                    "name": "G3",
                    "midi": 55,
                    "time": 16.642751999999998,
                    "velocity": 0.3464566929133858,
                    "duration": 0.14347199999999916
                },
                {
                    "name": "E4",
                    "midi": 64,
                    "time": 16.786223999999997,
                    "velocity": 0.2755905511811024,
                    "duration": 0.07173600000000135
                },
                {
                    "name": "G3",
                    "midi": 55,
                    "time": 16.929696,
                    "velocity": 0.2755905511811024,
                    "duration": 0.14347199999999916
                },
                {
                    "name": "A3",
                    "midi": 57,
                    "time": 17.073168,
                    "velocity": 0.23622047244094488,
                    "duration": 0.14347199999999916
                },
                {
                    "name": "D2",
                    "midi": 38,
                    "time": 17.216639999999998,
                    "velocity": 0.2992125984251969,
                    "duration": 0.14347199999999916
                },
                {
                    "name": "F#3",
                    "midi": 54,
                    "time": 17.360111999999997,
                    "velocity": 0.2677165354330709,
                    "duration": 0.14347199999999916
                },
                {
                    "name": "G3",
                    "midi": 55,
                    "time": 17.503583999999996,
                    "velocity": 0.2755905511811024,
                    "duration": 0.14347199999999916
                },
                {
                    "name": "G2",
                    "midi": 43,
                    "time": 17.647055999999996,
                    "velocity": 0.25196850393700787,
                    "duration": 0.14347199999999916
                },
                {
                    "name": "A2",
                    "midi": 45,
                    "time": 17.790527999999995,
                    "velocity": 0.29133858267716534,
                    "duration": 0.14347199999999916
                },
                {
                    "name": "A3",
                    "midi": 57,
                    "time": 17.933999999999994,
                    "velocity": 0.29133858267716534,
                    "duration": 0.10760399999999848
                },
                {
                    "name": "F#3",
                    "midi": 54,
                    "time": 18.077471999999993,
                    "velocity": 0.3228346456692913,
                    "duration": 0.14347199999999916
                },
                {
                    "name": "B2",
                    "midi": 47,
                    "time": 18.220943999999992,
                    "velocity": 0.28346456692913385,
                    "duration": 0.14347199999999916
                },
                {
                    "name": "D4",
                    "midi": 62,
                    "time": 18.36441599999999,
                    "velocity": 0.28346456692913385,
                    "duration": 0.14347199999999916
                },
                {
                    "name": "F3",
                    "midi": 53,
                    "time": 18.50788799999999,
                    "velocity": 0.28346456692913385,
                    "duration": 0.14347199999999916
                },
                {
                    "name": "E3",
                    "midi": 52,
                    "time": 18.65135999999999,
                    "velocity": 0.33070866141732286,
                    "duration": 0.14347199999999916
                },
                {
                    "name": "D4",
                    "midi": 62,
                    "time": 18.79483199999999,
                    "velocity": 0.28346456692913385,
                    "duration": 0.10760399999999848
                },
                {
                    "name": "C4",
                    "midi": 60,
                    "time": 18.938303999999988,
                    "velocity": 0.3779527559055118,
                    "duration": 0.14347199999999916
                },
                {
                    "name": "A3",
                    "midi": 57,
                    "time": 19.081775999999987,
                    "velocity": 0.3228346456692913,
                    "duration": 0.14347199999999916
                },
                {
                    "name": "D4",
                    "midi": 62,
                    "time": 19.225247999999986,
                    "velocity": 0.30708661417322836,
                    "duration": 0.14347199999999916
                },
                {
                    "name": "D3",
                    "midi": 50,
                    "time": 19.368719999999986,
                    "velocity": 0.30708661417322836,
                    "duration": 0.14347199999999916
                },
                {
                    "name": "E3",
                    "midi": 52,
                    "time": 19.512191999999985,
                    "velocity": 0.33070866141732286,
                    "duration": 0.14347199999999916
                },
                {
                    "name": "D4",
                    "midi": 62,
                    "time": 19.655663999999984,
                    "velocity": 0.29133858267716534,
                    "duration": 0.10760399999999848
                },
                {
                    "name": "C#4",
                    "midi": 61,
                    "time": 19.799135999999983,
                    "velocity": 0.3858267716535433,
                    "duration": 0.14347199999999916
                },
                {
                    "name": "C4",
                    "midi": 60,
                    "time": 19.942607999999982,
                    "velocity": 0.30708661417322836,
                    "duration": 0.14347199999999916
                },
                {
                    "name": "F#3",
                    "midi": 54,
                    "time": 20.08607999999998,
                    "velocity": 0.3228346456692913,
                    "duration": 0.14347199999999916
                },
                {
                    "name": "A2",
                    "midi": 45,
                    "time": 20.22955199999998,
                    "velocity": 0.3228346456692913,
                    "duration": 0.14347199999999916
                },
                {
                    "name": "B2",
                    "midi": 47,
                    "time": 20.37302399999998,
                    "velocity": 0.36220472440944884,
                    "duration": 0.14347199999999916
                },
                {
                    "name": "A3",
                    "midi": 57,
                    "time": 20.51649599999998,
                    "velocity": 0.31496062992125984,
                    "duration": 0.10760399999999848
                },
                {
                    "name": "G3",
                    "midi": 55,
                    "time": 20.659967999999978,
                    "velocity": 0.3858267716535433,
                    "duration": 0.14347199999999916
                },
                {
                    "name": "E2",
                    "midi": 40,
                    "time": 20.803439999999977,
                    "velocity": 0.3543307086614173,
                    "duration": 0.14347199999999916
                },
                {
                    "name": "A2",
                    "midi": 45,
                    "time": 20.946911999999976,
                    "velocity": 0.3779527559055118,
                    "duration": 0.1434720000000027
                },
                {
                    "name": "A3",
                    "midi": 57,
                    "time": 21.09038399999998,
                    "velocity": 0.3464566929133858,
                    "duration": 0.14347199999999916
                },
                {
                    "name": "B2",
                    "midi": 47,
                    "time": 21.233855999999978,
                    "velocity": 0.3858267716535433,
                    "duration": 0.14347199999999916
                },
                {
                    "name": "A3",
                    "midi": 57,
                    "time": 21.377327999999977,
                    "velocity": 0.3700787401574803,
                    "duration": 0.10760399999999848
                },
                {
                    "name": "G3",
                    "midi": 55,
                    "time": 21.520799999999976,
                    "velocity": 0.4015748031496063,
                    "duration": 0.14347199999999916
                },
                {
                    "name": "E3",
                    "midi": 52,
                    "time": 21.664271999999976,
                    "velocity": 0.36220472440944884,
                    "duration": 0.14347199999999916
                },
                {
                    "name": "E4",
                    "midi": 64,
                    "time": 21.807743999999975,
                    "velocity": 0.36220472440944884,
                    "duration": 0.14347199999999916
                },
                {
                    "name": "G3",
                    "midi": 55,
                    "time": 21.951215999999974,
                    "velocity": 0.36220472440944884,
                    "duration": 0.14347199999999916
                },
                {
                    "name": "F#3",
                    "midi": 54,
                    "time": 22.094687999999973,
                    "velocity": 0.4015748031496063,
                    "duration": 0.14347199999999916
                },
                {
                    "name": "E4",
                    "midi": 64,
                    "time": 22.238159999999972,
                    "velocity": 0.36220472440944884,
                    "duration": 0.10760399999999848
                },
                {
                    "name": "D4",
                    "midi": 62,
                    "time": 22.38163199999997,
                    "velocity": 0.4330708661417323,
                    "duration": 0.14347199999999916
                },
                {
                    "name": "B2",
                    "midi": 47,
                    "time": 22.52510399999997,
                    "velocity": 0.4409448818897638,
                    "duration": 0.14347199999999916
                },
                {
                    "name": "E3",
                    "midi": 52,
                    "time": 22.66857599999997,
                    "velocity": 0.3858267716535433,
                    "duration": 0.14347199999999916
                },
                {
                    "name": "E4",
                    "midi": 64,
                    "time": 22.81204799999997,
                    "velocity": 0.4094488188976378,
                    "duration": 0.14347199999999916
                },
                {
                    "name": "F#3",
                    "midi": 54,
                    "time": 22.955519999999968,
                    "velocity": 0.4330708661417323,
                    "duration": 0.1434720000000027
                },
                {
                    "name": "E4",
                    "midi": 64,
                    "time": 23.09899199999997,
                    "velocity": 0.4094488188976378,
                    "duration": 0.10760399999999848
                },
                {
                    "name": "D4",
                    "midi": 62,
                    "time": 23.24246399999997,
                    "velocity": 0.4645669291338583,
                    "duration": 0.14347199999999916
                },
                {
                    "name": "F3",
                    "midi": 53,
                    "time": 23.38593599999997,
                    "velocity": 0.4094488188976378,
                    "duration": 0.14347199999999916
                },
                {
                    "name": "B3",
                    "midi": 59,
                    "time": 23.529407999999968,
                    "velocity": 0.4251968503937008,
                    "duration": 0.14347199999999916
                },
                {
                    "name": "G#4",
                    "midi": 68,
                    "time": 23.672879999999967,
                    "velocity": 0.4330708661417323,
                    "duration": 0.14347199999999916
                },
                {
                    "name": "C#4",
                    "midi": 61,
                    "time": 23.816351999999966,
                    "velocity": 0.4881889763779528,
                    "duration": 0.14347199999999916
                },
                {
                    "name": "D4",
                    "midi": 62,
                    "time": 23.959823999999966,
                    "velocity": 0.4251968503937008,
                    "duration": 0.14347199999999916
                },
                {
                    "name": "F#3",
                    "midi": 54,
                    "time": 24.103295999999965,
                    "velocity": 0.4881889763779528,
                    "duration": 0.14347199999999916
                },
                {
                    "name": "D4",
                    "midi": 62,
                    "time": 24.246767999999964,
                    "velocity": 0.3464566929133858,
                    "duration": 0.07173600000000135
                },
                {
                    "name": "A#3",
                    "midi": 58,
                    "time": 24.390239999999967,
                    "velocity": 0.41732283464566927,
                    "duration": 0.14347199999999916
                },
                {
                    "name": "G2",
                    "midi": 43,
                    "time": 24.533711999999966,
                    "velocity": 0.33070866141732286,
                    "duration": 0.07173600000000135
                },
                {
                    "name": "A3",
                    "midi": 57,
                    "time": 24.67718399999997,
                    "velocity": 0.41732283464566927,
                    "duration": 0.14347199999999916
                },
                {
                    "name": "A2",
                    "midi": 45,
                    "time": 24.820655999999968,
                    "velocity": 0.33070866141732286,
                    "duration": 0.07173600000000135
                },
                {
                    "name": "D2",
                    "midi": 38,
                    "time": 24.96412799999997,
                    "velocity": 0.44881889763779526,
                    "duration": 0.14347199999999916
                },
                {
                    "name": "A3",
                    "midi": 57,
                    "time": 25.10759999999997,
                    "velocity": 0.33070866141732286,
                    "duration": 0.07173600000000135
                },
                {
                    "name": "A#3",
                    "midi": 58,
                    "time": 25.251071999999972,
                    "velocity": 0.4015748031496063,
                    "duration": 0.14347199999999916
                },
                {
                    "name": "G2",
                    "midi": 43,
                    "time": 25.39454399999997,
                    "velocity": 0.3228346456692913,
                    "duration": 0.07173600000000135
                },
                {
                    "name": "A3",
                    "midi": 57,
                    "time": 25.538015999999974,
                    "velocity": 0.3937007874015748,
                    "duration": 0.14347199999999916
                },
                {
                    "name": "A2",
                    "midi": 45,
                    "time": 25.681487999999973,
                    "velocity": 0.31496062992125984,
                    "duration": 0.07173600000000135
                },
                {
                    "name": "D2",
                    "midi": 38,
                    "time": 25.824959999999976,
                    "velocity": 0.4330708661417323,
                    "duration": 0.14347199999999916
                },
                {
                    "name": "A3",
                    "midi": 57,
                    "time": 25.968431999999975,
                    "velocity": 0.31496062992125984,
                    "duration": 0.07173600000000135
                },
                {
                    "name": "A#3",
                    "midi": 58,
                    "time": 26.111903999999978,
                    "velocity": 0.3779527559055118,
                    "duration": 0.14347199999999916
                },
                {
                    "name": "G2",
                    "midi": 43,
                    "time": 26.255375999999977,
                    "velocity": 0.29133858267716534,
                    "duration": 0.07173600000000135
                },
                {
                    "name": "A3",
                    "midi": 57,
                    "time": 26.39884799999998,
                    "velocity": 0.33858267716535434,
                    "duration": 0.14347199999999916
                },
                {
                    "name": "A2",
                    "midi": 45,
                    "time": 26.54231999999998,
                    "velocity": 0.25984251968503935,
                    "duration": 0.07173600000000135
                },
                {
                    "name": "D2",
                    "midi": 38,
                    "time": 26.68579199999998,
                    "velocity": 0.3464566929133858,
                    "duration": 0.14347199999999916
                },
                {
                    "name": "A3",
                    "midi": 57,
                    "time": 26.82926399999998,
                    "velocity": 0.28346456692913385,
                    "duration": 0.07173600000000135
                },
                {
                    "name": "A#3",
                    "midi": 58,
                    "time": 26.972735999999983,
                    "velocity": 0.2992125984251969,
                    "duration": 0.14347199999999916
                },
                {
                    "name": "G2",
                    "midi": 43,
                    "time": 27.116207999999983,
                    "velocity": 0.25196850393700787,
                    "duration": 0.07173600000000135
                },
                {
                    "name": "A3",
                    "midi": 57,
                    "time": 27.259679999999985,
                    "velocity": 0.28346456692913385,
                    "duration": 0.14347199999999916
                },
                {
                    "name": "A2",
                    "midi": 45,
                    "time": 27.403151999999984,
                    "velocity": 0.2283464566929134,
                    "duration": 0.07173600000000135
                },
                {
                    "name": "D2",
                    "midi": 38,
                    "time": 27.546623999999987,
                    "velocity": 0.25984251968503935,
                    "duration": 0.14347199999999916
                },
                {
                    "name": "A2",
                    "midi": 45,
                    "time": 27.690095999999986,
                    "velocity": 0.25984251968503935,
                    "duration": 0.14347199999999916
                },
                {
                    "name": "A3",
                    "midi": 57,
                    "time": 27.833567999999985,
                    "velocity": 0.29133858267716534,
                    "duration": 0.14347199999999916
                },
                {
                    "name": "A2",
                    "midi": 45,
                    "time": 27.977039999999985,
                    "velocity": 0.25984251968503935,
                    "duration": 0.14347199999999916
                },
                {
                    "name": "D2",
                    "midi": 38,
                    "time": 28.120511999999984,
                    "velocity": 0.2755905511811024,
                    "duration": 0.14347199999999916
                },
                {
                    "name": "A2",
                    "midi": 45,
                    "time": 28.263983999999983,
                    "velocity": 0.2440944881889764,
                    "duration": 0.14347199999999916
                },
                {
                    "name": "A3",
                    "midi": 57,
                    "time": 28.407455999999982,
                    "velocity": 0.3228346456692913,
                    "duration": 0.1434720000000027
                },
                {
                    "name": "A2",
                    "midi": 45,
                    "time": 28.550927999999985,
                    "velocity": 0.2755905511811024,
                    "duration": 0.14347199999999916
                },
                {
                    "name": "D2",
                    "midi": 38,
                    "time": 28.694399999999984,
                    "velocity": 0.3228346456692913,
                    "duration": 0.07173600000000135
                },
                {
                    "name": "A2",
                    "midi": 45,
                    "time": 28.837871999999987,
                    "velocity": 0.29133858267716534,
                    "duration": 0.14347199999999916
                },
                {
                    "name": "A3",
                    "midi": 57,
                    "time": 28.981343999999986,
                    "velocity": 0.36220472440944884,
                    "duration": 0.14347199999999916
                },
                {
                    "name": "A2",
                    "midi": 45,
                    "time": 29.124815999999985,
                    "velocity": 0.28346456692913385,
                    "duration": 0.14347199999999916
                },
                {
                    "name": "D2",
                    "midi": 38,
                    "time": 29.268287999999984,
                    "velocity": 0.36220472440944884,
                    "duration": 0.14347199999999916
                },
                {
                    "name": "A2",
                    "midi": 45,
                    "time": 29.411759999999983,
                    "velocity": 0.30708661417322836,
                    "duration": 0.07173600000000135
                },
                {
                    "name": "A3",
                    "midi": 57,
                    "time": 29.555231999999986,
                    "velocity": 0.3858267716535433,
                    "duration": 0.14347199999999916
                },
                {
                    "name": "A2",
                    "midi": 45,
                    "time": 29.698703999999985,
                    "velocity": 0.33858267716535434,
                    "duration": 0.14347199999999916
                },
                {
                    "name": "D2",
                    "midi": 38,
                    "time": 29.842175999999984,
                    "velocity": 0.3937007874015748,
                    "duration": 0.07173600000000135
                },
                {
                    "name": "A2",
                    "midi": 45,
                    "time": 29.985647999999987,
                    "velocity": 0.3543307086614173,
                    "duration": 0.14347199999999916
                },
                {
                    "name": "A3",
                    "midi": 57,
                    "time": 30.129119999999986,
                    "velocity": 0.41732283464566927,
                    "duration": 0.14347199999999916
                },
                {
                    "name": "A2",
                    "midi": 45,
                    "time": 30.272591999999985,
                    "velocity": 0.3543307086614173,
                    "duration": 0.14347199999999916
                },
                {
                    "name": "D2",
                    "midi": 38,
                    "time": 30.416063999999984,
                    "velocity": 0.3543307086614173,
                    "duration": 0.07173600000000135
                },
                {
                    "name": "A2",
                    "midi": 45,
                    "time": 30.559535999999987,
                    "velocity": 0.36220472440944884,
                    "duration": 0.14347199999999916
                },
                {
                    "name": "A3",
                    "midi": 57,
                    "time": 30.703007999999986,
                    "velocity": 0.49606299212598426,
                    "duration": 0.14347199999999916
                },
                {
                    "name": "A2",
                    "midi": 45,
                    "time": 30.846479999999985,
                    "velocity": 0.4566929133858268,
                    "duration": 0.14347199999999916
                },
                {
                    "name": "D2",
                    "midi": 38,
                    "time": 30.989951999999985,
                    "velocity": 0.6220472440944882,
                    "duration": 0.14347199999999916
                },
                {
                    "name": "A2",
                    "midi": 45,
                    "time": 31.671443999999983,
                    "velocity": 0.36220472440944884,
                    "duration": 0.2510760000000012
                },
                {
                    "name": "E3",
                    "midi": 52,
                    "time": 31.707311999999984,
                    "velocity": 0.4015748031496063,
                    "duration": 0.2152080000000005
                },
                {
                    "name": "C#4",
                    "midi": 61,
                    "time": 31.743179999999985,
                    "velocity": 0.47244094488188976,
                    "duration": 0.17933999999999983
                },
                {
                    "name": "D2",
                    "midi": 38,
                    "time": 32.639879999999984,
                    "velocity": 0.4566929133858268,
                    "duration": 0.07173600000000135
                },
                {
                    "name": "A3",
                    "midi": 57,
                    "time": 32.711615999999985,
                    "velocity": 0.4015748031496063,
                    "duration": 0.07173600000000135
                },
                {
                    "name": "D3",
                    "midi": 50,
                    "time": 32.711615999999985,
                    "velocity": 0.4015748031496063,
                    "duration": 0.07173600000000135
                },
                {
                    "name": "D4",
                    "midi": 62,
                    "time": 32.711615999999985,
                    "velocity": 0.47244094488188976,
                    "duration": 0.07173600000000135
                }
            ],
            "controlChanges": {
                "7": [
                    {
                        "number": 7,
                        "time": 0,
                        "value": 0.7874015748031497
                    }
                ],
                "10": [
                    {
                        "number": 10,
                        "time": 0,
                        "value": 0.5039370078740157
                    }
                ],
                "64": [
                    {
                        "number": 64,
                        "time": 0,
                        "value": 0
                    },
                    {
                        "number": 64,
                        "time": 0.28694400000000003,
                        "value": 1
                    },
                    {
                        "number": 64,
                        "time": 0.8763748000000001,
                        "value": 0
                    },
                    {
                        "number": 64,
                        "time": 0.9014824000000001,
                        "value": 1
                    },
                    {
                        "number": 64,
                        "time": 1.4454804,
                        "value": 0
                    },
                    {
                        "number": 64,
                        "time": 1.506456,
                        "value": 1
                    },
                    {
                        "number": 64,
                        "time": 2.0217596,
                        "value": 0
                    },
                    {
                        "number": 64,
                        "time": 2.0695836,
                        "value": 1
                    },
                    {
                        "number": 64,
                        "time": 2.5968432000000004,
                        "value": 0
                    },
                    {
                        "number": 64,
                        "time": 2.6207552000000005,
                        "value": 1
                    },
                    {
                        "number": 64,
                        "time": 3.1671444000000006,
                        "value": 0
                    },
                    {
                        "number": 64,
                        "time": 3.2030124000000004,
                        "value": 1
                    },
                    {
                        "number": 64,
                        "time": 3.4612620000000005,
                        "value": 0
                    },
                    {
                        "number": 64,
                        "time": 3.5258244000000003,
                        "value": 1
                    },
                    {
                        "number": 64,
                        "time": 3.7446192000000003,
                        "value": 0
                    },
                    {
                        "number": 64,
                        "time": 3.8402672000000004,
                        "value": 1
                    },
                    {
                        "number": 64,
                        "time": 4.0303676,
                        "value": 0
                    },
                    {
                        "number": 64,
                        "time": 4.3591576000000005,
                        "value": 1
                    },
                    {
                        "number": 64,
                        "time": 4.890004,
                        "value": 0
                    },
                    {
                        "number": 64,
                        "time": 5.219989600000001,
                        "value": 1
                    },
                    {
                        "number": 64,
                        "time": 5.468674400000001,
                        "value": 0
                    },
                    {
                        "number": 64,
                        "time": 5.506933600000001,
                        "value": 1
                    },
                    {
                        "number": 64,
                        "time": 5.756814000000001,
                        "value": 0
                    },
                    {
                        "number": 64,
                        "time": 6.080821600000001,
                        "value": 1
                    },
                    {
                        "number": 64,
                        "time": 6.611668000000001,
                        "value": 0
                    },
                    {
                        "number": 64,
                        "time": 6.941653600000001,
                        "value": 1
                    },
                    {
                        "number": 64,
                        "time": 7.193925200000002,
                        "value": 0
                    },
                    {
                        "number": 64,
                        "time": 7.2835952000000015,
                        "value": 1
                    },
                    {
                        "number": 64,
                        "time": 7.480869200000002,
                        "value": 0
                    },
                    {
                        "number": 64,
                        "time": 7.808463600000001,
                        "value": 1
                    },
                    {
                        "number": 64,
                        "time": 8.3321364,
                        "value": 0
                    },
                    {
                        "number": 64,
                        "time": 8.676469200000001,
                        "value": 1
                    },
                    {
                        "number": 64,
                        "time": 8.9215672,
                        "value": 0
                    },
                    {
                        "number": 64,
                        "time": 9.5301276,
                        "value": 1
                    },
                    {
                        "number": 64,
                        "time": 10.053800399999998,
                        "value": 0
                    },
                    {
                        "number": 64,
                        "time": 10.125536399999998,
                        "value": 1
                    },
                    {
                        "number": 64,
                        "time": 10.343135599999998,
                        "value": 0
                    },
                    {
                        "number": 64,
                        "time": 10.384981599999998,
                        "value": 1
                    },
                    {
                        "number": 64,
                        "time": 10.630079599999998,
                        "value": 0
                    },
                    {
                        "number": 64,
                        "time": 10.677903599999999,
                        "value": 1
                    },
                    {
                        "number": 64,
                        "time": 10.917023599999998,
                        "value": 0
                    },
                    {
                        "number": 64,
                        "time": 10.972021199999999,
                        "value": 1
                    },
                    {
                        "number": 64,
                        "time": 11.203967599999999,
                        "value": 0
                    },
                    {
                        "number": 64,
                        "time": 11.245813599999998,
                        "value": 1
                    },
                    {
                        "number": 64,
                        "time": 11.490911599999999,
                        "value": 0
                    },
                    {
                        "number": 64,
                        "time": 11.538735599999999,
                        "value": 1
                    },
                    {
                        "number": 64,
                        "time": 11.777855599999999,
                        "value": 0
                    },
                    {
                        "number": 64,
                        "time": 11.832853199999999,
                        "value": 1
                    },
                    {
                        "number": 64,
                        "time": 12.064799599999999,
                        "value": 0
                    },
                    {
                        "number": 64,
                        "time": 12.106645599999998,
                        "value": 1
                    },
                    {
                        "number": 64,
                        "time": 12.351743599999999,
                        "value": 0
                    },
                    {
                        "number": 64,
                        "time": 12.3995676,
                        "value": 1
                    },
                    {
                        "number": 64,
                        "time": 12.638687599999999,
                        "value": 0
                    },
                    {
                        "number": 64,
                        "time": 12.6936852,
                        "value": 1
                    },
                    {
                        "number": 64,
                        "time": 12.925631599999999,
                        "value": 0
                    },
                    {
                        "number": 64,
                        "time": 12.967477599999999,
                        "value": 1
                    },
                    {
                        "number": 64,
                        "time": 13.2125756,
                        "value": 0
                    },
                    {
                        "number": 64,
                        "time": 13.2603996,
                        "value": 1
                    },
                    {
                        "number": 64,
                        "time": 13.4995196,
                        "value": 0
                    },
                    {
                        "number": 64,
                        "time": 13.5545172,
                        "value": 1
                    },
                    {
                        "number": 64,
                        "time": 13.7816812,
                        "value": 0
                    },
                    {
                        "number": 64,
                        "time": 13.858199599999999,
                        "value": 1
                    },
                    {
                        "number": 64,
                        "time": 14.0686252,
                        "value": 0
                    },
                    {
                        "number": 64,
                        "time": 14.161882,
                        "value": 1
                    },
                    {
                        "number": 64,
                        "time": 14.644904399999998,
                        "value": 0
                    },
                    {
                        "number": 64,
                        "time": 14.674794399999998,
                        "value": 1
                    },
                    {
                        "number": 64,
                        "time": 15.218792399999996,
                        "value": 0
                    },
                    {
                        "number": 64,
                        "time": 15.279767999999997,
                        "value": 1
                    },
                    {
                        "number": 64,
                        "time": 15.795071599999995,
                        "value": 0
                    },
                    {
                        "number": 64,
                        "time": 15.842895599999995,
                        "value": 1
                    },
                    {
                        "number": 64,
                        "time": 16.368959599999997,
                        "value": 0
                    },
                    {
                        "number": 64,
                        "time": 16.435913199999998,
                        "value": 1
                    },
                    {
                        "number": 64,
                        "time": 16.9428476,
                        "value": 0
                    },
                    {
                        "number": 64,
                        "time": 16.9978452,
                        "value": 1
                    },
                    {
                        "number": 64,
                        "time": 17.236965199999997,
                        "value": 0
                    },
                    {
                        "number": 64,
                        "time": 17.291962799999997,
                        "value": 1
                    },
                    {
                        "number": 64,
                        "time": 17.517931199999996,
                        "value": 0
                    },
                    {
                        "number": 64,
                        "time": 17.586080399999997,
                        "value": 1
                    },
                    {
                        "number": 64,
                        "time": 17.803679599999995,
                        "value": 0
                    },
                    {
                        "number": 64,
                        "time": 18.132469599999993,
                        "value": 1
                    },
                    {
                        "number": 64,
                        "time": 18.66212039999999,
                        "value": 0
                    },
                    {
                        "number": 64,
                        "time": 18.993301599999988,
                        "value": 1
                    },
                    {
                        "number": 64,
                        "time": 19.236008399999985,
                        "value": 0
                    },
                    {
                        "number": 64,
                        "time": 19.314917999999984,
                        "value": 1
                    },
                    {
                        "number": 64,
                        "time": 19.532517199999983,
                        "value": 0
                    },
                    {
                        "number": 64,
                        "time": 19.854133599999983,
                        "value": 1
                    },
                    {
                        "number": 64,
                        "time": 20.38378439999998,
                        "value": 0
                    },
                    {
                        "number": 64,
                        "time": 20.714965599999978,
                        "value": 1
                    },
                    {
                        "number": 64,
                        "time": 20.963650399999977,
                        "value": 0
                    },
                    {
                        "number": 64,
                        "time": 21.036581999999978,
                        "value": 1
                    },
                    {
                        "number": 64,
                        "time": 21.254181199999977,
                        "value": 0
                    },
                    {
                        "number": 64,
                        "time": 21.581775599999975,
                        "value": 1
                    },
                    {
                        "number": 64,
                        "time": 22.104252799999973,
                        "value": 0
                    },
                    {
                        "number": 64,
                        "time": 22.449781199999972,
                        "value": 1
                    },
                    {
                        "number": 64,
                        "time": 22.96269359999997,
                        "value": 0
                    },
                    {
                        "number": 64,
                        "time": 23.30343959999997,
                        "value": 1
                    },
                    {
                        "number": 64,
                        "time": 23.827112399999965,
                        "value": 0
                    },
                    {
                        "number": 64,
                        "time": 23.877327599999965,
                        "value": 1
                    },
                    {
                        "number": 64,
                        "time": 24.116447599999965,
                        "value": 0
                    },
                    {
                        "number": 64,
                        "time": 24.158293599999965,
                        "value": 1
                    },
                    {
                        "number": 64,
                        "time": 24.403391599999967,
                        "value": 0
                    },
                    {
                        "number": 64,
                        "time": 24.451215599999966,
                        "value": 1
                    },
                    {
                        "number": 64,
                        "time": 24.69033559999997,
                        "value": 0
                    },
                    {
                        "number": 64,
                        "time": 24.74533319999997,
                        "value": 1
                    },
                    {
                        "number": 64,
                        "time": 24.97727959999997,
                        "value": 0
                    },
                    {
                        "number": 64,
                        "time": 25.01912559999997,
                        "value": 1
                    },
                    {
                        "number": 64,
                        "time": 25.264223599999973,
                        "value": 0
                    },
                    {
                        "number": 64,
                        "time": 25.31204759999997,
                        "value": 1
                    },
                    {
                        "number": 64,
                        "time": 25.551167599999975,
                        "value": 0
                    },
                    {
                        "number": 64,
                        "time": 25.606165199999975,
                        "value": 1
                    },
                    {
                        "number": 64,
                        "time": 25.838111599999976,
                        "value": 0
                    },
                    {
                        "number": 64,
                        "time": 25.879957599999976,
                        "value": 1
                    },
                    {
                        "number": 64,
                        "time": 26.12505559999998,
                        "value": 0
                    },
                    {
                        "number": 64,
                        "time": 26.172879599999977,
                        "value": 1
                    },
                    {
                        "number": 64,
                        "time": 26.41199959999998,
                        "value": 0
                    },
                    {
                        "number": 64,
                        "time": 26.46699719999998,
                        "value": 1
                    },
                    {
                        "number": 64,
                        "time": 26.698943599999982,
                        "value": 0
                    },
                    {
                        "number": 64,
                        "time": 26.74078959999998,
                        "value": 1
                    },
                    {
                        "number": 64,
                        "time": 26.985887599999984,
                        "value": 0
                    },
                    {
                        "number": 64,
                        "time": 27.033711599999982,
                        "value": 1
                    },
                    {
                        "number": 64,
                        "time": 27.272831599999986,
                        "value": 0
                    },
                    {
                        "number": 64,
                        "time": 27.327829199999986,
                        "value": 1
                    },
                    {
                        "number": 64,
                        "time": 27.564557999999987,
                        "value": 0
                    },
                    {
                        "number": 64,
                        "time": 27.649445599999986,
                        "value": 1
                    },
                    {
                        "number": 64,
                        "time": 28.424194399999983,
                        "value": 0
                    },
                    {
                        "number": 64,
                        "time": 28.454084399999985,
                        "value": 1
                    },
                    {
                        "number": 64,
                        "time": 29.129598399999985,
                        "value": 0
                    },
                    {
                        "number": 64,
                        "time": 29.179813599999985,
                        "value": 1
                    },
                    {
                        "number": 64,
                        "time": 29.570774799999985,
                        "value": 0
                    },
                    {
                        "number": 64,
                        "time": 29.606642799999985,
                        "value": 1
                    },
                    {
                        "number": 64,
                        "time": 30.154227599999984,
                        "value": 0
                    },
                    {
                        "number": 64,
                        "time": 30.175748399999986,
                        "value": 1
                    },
                    {
                        "number": 64,
                        "time": 30.711377199999987,
                        "value": 0
                    },
                    {
                        "number": 64,
                        "time": 30.771157199999987,
                        "value": 1
                    },
                    {
                        "number": 64,
                        "time": 31.247005999999985,
                        "value": 0
                    },
                    {
                        "number": 64,
                        "time": 31.720463599999984,
                        "value": 1
                    },
                    {
                        "number": 64,
                        "time": 32.19631239999998,
                        "value": 0
                    },
                    {
                        "number": 64,
                        "time": 32.639879999999984,
                        "value": 1
                    },
                    {
                        "number": 64,
                        "time": 33.10377279999999,
                        "value": 0
                    }
                ]
            },
            "id": 2,
            "name": "Piano left",
            "instrumentNumber": 0,
            "instrument": "acoustic grand piano",
            "instrumentFamily": "piano",
            "channelNumber": 0,
            "isPercussion": false
        },
        {
            "startTime": 0,
            "duration": 0,
            "length": 0,
            "notes": [],
            "controlChanges": {},
            "id": 3,
            "name": "Chopin: Prelude No.5 in D Major, Op. 28"
        },
        {
            "startTime": 0,
            "duration": 0,
            "length": 0,
            "notes": [],
            "controlChanges": {},
            "id": 4,
            "name": "Copyright  2002 by Bernd Krueger"
        },
        {
            "startTime": 0,
            "duration": 0,
            "length": 0,
            "notes": [],
            "controlChanges": {},
            "id": 5,
            "name": "http://www.piano-midi.de"
        },
        {
            "startTime": 0,
            "duration": 0,
            "length": 0,
            "notes": [],
            "controlChanges": {},
            "id": 6,
            "name": "Edition: 2014-02-20"
        },
        {
            "startTime": 0,
            "duration": 0,
            "length": 0,
            "notes": [],
            "controlChanges": {
                "7": [
                    {
                        "number": 7,
                        "time": 0,
                        "value": 1
                    }
                ],
                "10": [
                    {
                        "number": 10,
                        "time": 0,
                        "value": 0.5039370078740157
                    }
                ]
            },
            "id": 7,
            "name": "Spur 7"
        },
        {
            "startTime": 0,
            "duration": 0,
            "length": 0,
            "notes": [],
            "controlChanges": {
                "7": [
                    {
                        "number": 7,
                        "time": 0,
                        "value": 1
                    }
                ],
                "10": [
                    {
                        "number": 10,
                        "time": 0,
                        "value": 0.5039370078740157
                    }
                ]
            },
            "id": 8,
            "name": "Spur 8"
        }
    ]
}