{
    "header": {
        "PPQ": 480,
        "timeSignature": [
            6,
            8
        ],
        "bpm": 42.499991145835175,
        "name": "Chopin Nocturne Opus 27 Nr. 2"
    },
    "startTime": 0,
    "duration": 330.35301000000203,
    "tracks": [
        {
            "startTime": 0,
            "duration": 0,
            "length": 0,
            "notes": [],
            "controlChanges": {},
            "id": 0,
            "name": "Chopin Nocturne Opus 27 Nr. 2"
        },
        {
            "startTime": 4.235295000000001,
            "duration": 330.35301000000203,
            "length": 926,
            "notes": [
                {
                    "name": "F5",
                    "midi": 77,
                    "time": 4.235295000000001,
                    "velocity": 0.4330708661417323,
                    "duration": 2.1176475000000003
                },
                {
                    "name": "D#5",
                    "midi": 75,
                    "time": 6.352942500000001,
                    "velocity": 0.4330708661417323,
                    "duration": 0.7058825000000004
                },
                {
                    "name": "C#5",
                    "midi": 73,
                    "time": 7.0588250000000015,
                    "velocity": 0.4330708661417323,
                    "duration": 1.0588237499999993
                },
                {
                    "name": "F4",
                    "midi": 65,
                    "time": 8.11764875,
                    "velocity": 0.3937007874015748,
                    "duration": 0.35294125000000065
                },
                {
                    "name": "G#4",
                    "midi": 68,
                    "time": 8.470590000000001,
                    "velocity": 0.4330708661417323,
                    "duration": 2.82353
                },
                {
                    "name": "C#5",
                    "midi": 73,
                    "time": 11.294120000000001,
                    "velocity": 0.4566929133858268,
                    "duration": 0.7058824999999995
                },
                {
                    "name": "F5",
                    "midi": 77,
                    "time": 12.0000025,
                    "velocity": 0.48031496062992124,
                    "duration": 0.7058824999999995
                },
                {
                    "name": "A#5",
                    "midi": 82,
                    "time": 12.705885,
                    "velocity": 0.5354330708661418,
                    "duration": 2.4705887499999992
                },
                {
                    "name": "G#5",
                    "midi": 80,
                    "time": 15.17647375,
                    "velocity": 0.3937007874015748,
                    "duration": 0.35294125000000065
                },
                {
                    "name": "E5",
                    "midi": 76,
                    "time": 15.529415,
                    "velocity": 0.4409448818897638,
                    "duration": 0.35294125000000065
                },
                {
                    "name": "F5",
                    "midi": 77,
                    "time": 15.88235625,
                    "velocity": 0.3937007874015748,
                    "duration": 0.35294125000000065
                },
                {
                    "name": "C5",
                    "midi": 72,
                    "time": 16.2352975,
                    "velocity": 0.4330708661417323,
                    "duration": 0.35294125000000065
                },
                {
                    "name": "C#5",
                    "midi": 73,
                    "time": 16.588238750000002,
                    "velocity": 0.3937007874015748,
                    "duration": 0.35294125000000065
                },
                {
                    "name": "A4",
                    "midi": 69,
                    "time": 16.941180000000003,
                    "velocity": 0.49606299212598426,
                    "duration": 4.235295000000001
                },
                {
                    "name": "A#4",
                    "midi": 70,
                    "time": 21.176475000000003,
                    "velocity": 0.4566929133858268,
                    "duration": 2.1176475000000003
                },
                {
                    "name": "C6",
                    "midi": 84,
                    "time": 23.647063750000004,
                    "velocity": 0.4409448818897638,
                    "duration": 0.35294125000000065
                },
                {
                    "name": "A#5",
                    "midi": 82,
                    "time": 24.000005000000005,
                    "velocity": 0.4566929133858268,
                    "duration": 0.35294125000000065
                },
                {
                    "name": "F5",
                    "midi": 77,
                    "time": 24.352946250000006,
                    "velocity": 0.4094488188976378,
                    "duration": 0.35294125000000065
                },
                {
                    "name": "G#5",
                    "midi": 80,
                    "time": 24.705887500000006,
                    "velocity": 0.4409448818897638,
                    "duration": 0.35294125000000065
                },
                {
                    "name": "F#5",
                    "midi": 78,
                    "time": 25.058828750000007,
                    "velocity": 0.4015748031496063,
                    "duration": 0.35294125000000065
                },
                {
                    "name": "F5",
                    "midi": 77,
                    "time": 25.411770000000008,
                    "velocity": 0.44881889763779526,
                    "duration": 1.411764999999999
                },
                {
                    "name": "D#5",
                    "midi": 75,
                    "time": 26.823535000000007,
                    "velocity": 0.4566929133858268,
                    "duration": 1.058823750000002
                },
                {
                    "name": "F5",
                    "midi": 77,
                    "time": 27.88235875000001,
                    "velocity": 0.4094488188976378,
                    "duration": 0.08823531250000016
                },
                {
                    "name": "D#5",
                    "midi": 75,
                    "time": 27.97059406250001,
                    "velocity": 0.4094488188976378,
                    "duration": 0.08823531250000016
                },
                {
                    "name": "D5",
                    "midi": 74,
                    "time": 28.05882937500001,
                    "velocity": 0.4094488188976378,
                    "duration": 0.08823531250000016
                },
                {
                    "name": "D#5",
                    "midi": 75,
                    "time": 28.14706468750001,
                    "velocity": 0.4094488188976378,
                    "duration": 0.08823531250000016
                },
                {
                    "name": "F5",
                    "midi": 77,
                    "time": 28.23530000000001,
                    "velocity": 0.48031496062992124,
                    "duration": 0.7058825000000013
                },
                {
                    "name": "F#5",
                    "midi": 78,
                    "time": 28.94118250000001,
                    "velocity": 0.5433070866141733,
                    "duration": 0.529411875000001
                },
                {
                    "name": "F#5",
                    "midi": 78,
                    "time": 29.47059437500001,
                    "velocity": 0.44881889763779526,
                    "duration": 0.17647062500000033
                },
                {
                    "name": "F#6",
                    "midi": 90,
                    "time": 29.647065000000012,
                    "velocity": 0.6220472440944882,
                    "duration": 1.411764999999999
                },
                {
                    "name": "D#6",
                    "midi": 87,
                    "time": 30.88235937500001,
                    "velocity": 0.4409448818897638,
                    "duration": 0.17647062500000033
                },
                {
                    "name": "C#6",
                    "midi": 85,
                    "time": 31.05883000000001,
                    "velocity": 0.4330708661417323,
                    "duration": 0.17647062500000033
                },
                {
                    "name": "A5",
                    "midi": 81,
                    "time": 31.23530062500001,
                    "velocity": 0.4251968503937008,
                    "duration": 0.17647062500000033
                },
                {
                    "name": "F#5",
                    "midi": 78,
                    "time": 31.41177125000001,
                    "velocity": 0.4094488188976378,
                    "duration": 0.17647062500000033
                },
                {
                    "name": "D#5",
                    "midi": 75,
                    "time": 31.588241875000012,
                    "velocity": 0.3858267716535433,
                    "duration": 0.17647062500000033
                },
                {
                    "name": "C5",
                    "midi": 72,
                    "time": 31.764712500000012,
                    "velocity": 0.41732283464566927,
                    "duration": 0.17647062500000033
                },
                {
                    "name": "C#5",
                    "midi": 73,
                    "time": 32.11765375000001,
                    "velocity": 0.4251968503937008,
                    "duration": 0.17647062500000033
                },
                {
                    "name": "D5",
                    "midi": 74,
                    "time": 32.47059500000001,
                    "velocity": 0.4330708661417323,
                    "duration": 0.17647062500000033
                },
                {
                    "name": "D#5",
                    "midi": 75,
                    "time": 32.82353625000001,
                    "velocity": 0.4409448818897638,
                    "duration": 0.17647062500000033
                },
                {
                    "name": "F5",
                    "midi": 77,
                    "time": 33.17647750000001,
                    "velocity": 0.44881889763779526,
                    "duration": 0.17647062500000033
                },
                {
                    "name": "F#5",
                    "midi": 78,
                    "time": 33.52941875000001,
                    "velocity": 0.4566929133858268,
                    "duration": 0.17647062500000033
                },
                {
                    "name": "G5",
                    "midi": 79,
                    "time": 33.88236000000001,
                    "velocity": 0.5433070866141733,
                    "duration": 1.588235625000003
                },
                {
                    "name": "G#5",
                    "midi": 80,
                    "time": 35.470595625000016,
                    "velocity": 0.4251968503937008,
                    "duration": 0.17647062500000033
                },
                {
                    "name": "A#5",
                    "midi": 82,
                    "time": 35.647066250000016,
                    "velocity": 0.4645669291338583,
                    "duration": 0.17647062500000033
                },
                {
                    "name": "G#5",
                    "midi": 80,
                    "time": 35.823536875000016,
                    "velocity": 0.3937007874015748,
                    "duration": 0.17647062500000033
                },
                {
                    "name": "F5",
                    "midi": 77,
                    "time": 36.00000750000002,
                    "velocity": 0.4409448818897638,
                    "duration": 2.823529999999998
                },
                {
                    "name": "C#5",
                    "midi": 73,
                    "time": 38.11765500000001,
                    "velocity": 0.41732283464566927,
                    "duration": 0.7058825000000013
                },
                {
                    "name": "D#5",
                    "midi": 75,
                    "time": 38.823537500000015,
                    "velocity": 0.4330708661417323,
                    "duration": 1.058823750000002
                },
                {
                    "name": "F#5",
                    "midi": 78,
                    "time": 38.823537500000015,
                    "velocity": 0.5118110236220472,
                    "duration": 1.058823750000002
                },
                {
                    "name": "A#4",
                    "midi": 70,
                    "time": 39.88236125000002,
                    "velocity": 0.4015748031496063,
                    "duration": 0.35294125000000065
                },
                {
                    "name": "C#5",
                    "midi": 73,
                    "time": 39.88236125000002,
                    "velocity": 0.47244094488188976,
                    "duration": 0.35294125000000065
                },
                {
                    "name": "C5",
                    "midi": 72,
                    "time": 40.23530250000002,
                    "velocity": 0.4330708661417323,
                    "duration": 0.7058825000000013
                },
                {
                    "name": "D#5",
                    "midi": 75,
                    "time": 40.23530250000002,
                    "velocity": 0.5118110236220472,
                    "duration": 0.7058825000000013
                },
                {
                    "name": "C#5",
                    "midi": 73,
                    "time": 40.94118500000002,
                    "velocity": 0.41732283464566927,
                    "duration": 0.7058825000000013
                },
                {
                    "name": "F5",
                    "midi": 77,
                    "time": 40.94118500000002,
                    "velocity": 0.4881889763779528,
                    "duration": 0.7058825000000013
                },
                {
                    "name": "A4",
                    "midi": 69,
                    "time": 41.64706750000002,
                    "velocity": 0.4094488188976378,
                    "duration": 0.7058825000000013
                },
                {
                    "name": "C5",
                    "midi": 72,
                    "time": 41.64706750000002,
                    "velocity": 0.48031496062992124,
                    "duration": 0.7058825000000013
                },
                {
                    "name": "C5",
                    "midi": 72,
                    "time": 42.35295000000002,
                    "velocity": 0.4330708661417323,
                    "duration": 0.7058825000000013
                },
                {
                    "name": "D#5",
                    "midi": 75,
                    "time": 42.35295000000002,
                    "velocity": 0.5118110236220472,
                    "duration": 0.7058825000000013
                },
                {
                    "name": "A#4",
                    "midi": 70,
                    "time": 43.05883250000002,
                    "velocity": 0.3937007874015748,
                    "duration": 0.35294125000000065
                },
                {
                    "name": "C#5",
                    "midi": 73,
                    "time": 43.05883250000002,
                    "velocity": 0.4645669291338583,
                    "duration": 0.35294125000000065
                },
                {
                    "name": "A#5",
                    "midi": 82,
                    "time": 43.58824437500002,
                    "velocity": 0.5039370078740157,
                    "duration": 0.17647062500000033
                },
                {
                    "name": "C#5",
                    "midi": 73,
                    "time": 43.58824437500002,
                    "velocity": 0.4251968503937008,
                    "duration": 0.17647062500000033
                },
                {
                    "name": "C#5",
                    "midi": 73,
                    "time": 43.764715000000024,
                    "velocity": 0.4409448818897638,
                    "duration": 0.23529416666666947
                },
                {
                    "name": "A#5",
                    "midi": 82,
                    "time": 43.764715000000024,
                    "velocity": 0.5196850393700787,
                    "duration": 0.23529416666666947
                },
                {
                    "name": "C5",
                    "midi": 72,
                    "time": 44.00000916666669,
                    "velocity": 0.4330708661417323,
                    "duration": 0.23529416666666947
                },
                {
                    "name": "G#5",
                    "midi": 80,
                    "time": 44.00000916666669,
                    "velocity": 0.5118110236220472,
                    "duration": 0.23529416666666947
                },
                {
                    "name": "A#4",
                    "midi": 70,
                    "time": 44.23530333333336,
                    "velocity": 0.4251968503937008,
                    "duration": 0.23529416666666947
                },
                {
                    "name": "F#5",
                    "midi": 78,
                    "time": 44.23530333333336,
                    "velocity": 0.5039370078740157,
                    "duration": 0.23529416666666947
                },
                {
                    "name": "A#4",
                    "midi": 70,
                    "time": 44.47059750000003,
                    "velocity": 0.41732283464566927,
                    "duration": 0.7058825000000013
                },
                {
                    "name": "F5",
                    "midi": 77,
                    "time": 44.47059750000003,
                    "velocity": 0.49606299212598426,
                    "duration": 1.4117650000000097
                },
                {
                    "name": "A4",
                    "midi": 69,
                    "time": 45.17648000000003,
                    "velocity": 0.4094488188976378,
                    "duration": 0.23529416666666947
                },
                {
                    "name": "A#4",
                    "midi": 70,
                    "time": 45.4117741666667,
                    "velocity": 0.4251968503937008,
                    "duration": 0.23529416666666947
                },
                {
                    "name": "B4",
                    "midi": 71,
                    "time": 45.64706833333337,
                    "velocity": 0.4409448818897638,
                    "duration": 0.23529416666666947
                },
                {
                    "name": "F5",
                    "midi": 77,
                    "time": 45.88236250000004,
                    "velocity": 0.4566929133858268,
                    "duration": 0.11764708333333118
                },
                {
                    "name": "C5",
                    "midi": 72,
                    "time": 45.88236250000004,
                    "velocity": 0.3858267716535433,
                    "duration": 0.11764708333333118
                },
                {
                    "name": "F5",
                    "midi": 77,
                    "time": 46.117656666666704,
                    "velocity": 0.47244094488188976,
                    "duration": 0.11764708333333118
                },
                {
                    "name": "C#5",
                    "midi": 73,
                    "time": 46.117656666666704,
                    "velocity": 0.4015748031496063,
                    "duration": 0.11764708333333118
                },
                {
                    "name": "F5",
                    "midi": 77,
                    "time": 46.35295083333337,
                    "velocity": 0.4881889763779528,
                    "duration": 0.11764708333333118
                },
                {
                    "name": "D#5",
                    "midi": 75,
                    "time": 46.35295083333337,
                    "velocity": 0.4094488188976378,
                    "duration": 0.11764708333333118
                },
                {
                    "name": "C#5",
                    "midi": 73,
                    "time": 46.58824500000003,
                    "velocity": 0.41732283464566927,
                    "duration": 0.7058825000000013
                },
                {
                    "name": "F5",
                    "midi": 77,
                    "time": 46.58824500000003,
                    "velocity": 0.49606299212598426,
                    "duration": 0.7058825000000013
                },
                {
                    "name": "D#5",
                    "midi": 75,
                    "time": 47.29412750000003,
                    "velocity": 0.4330708661417323,
                    "duration": 1.058823750000002
                },
                {
                    "name": "F#5",
                    "midi": 78,
                    "time": 47.29412750000003,
                    "velocity": 0.5118110236220472,
                    "duration": 1.058823750000002
                },
                {
                    "name": "A#4",
                    "midi": 70,
                    "time": 48.35295125000003,
                    "velocity": 0.4015748031496063,
                    "duration": 0.35294125000000065
                },
                {
                    "name": "C#5",
                    "midi": 73,
                    "time": 48.35295125000003,
                    "velocity": 0.47244094488188976,
                    "duration": 0.35294125000000065
                },
                {
                    "name": "A#4",
                    "midi": 70,
                    "time": 48.70589250000003,
                    "velocity": 0.3858267716535433,
                    "duration": 0.13235296874999847
                },
                {
                    "name": "C#5",
                    "midi": 73,
                    "time": 48.70589250000003,
                    "velocity": 0.4566929133858268,
                    "duration": 0.13235296874999847
                },
                {
                    "name": "C#5",
                    "midi": 73,
                    "time": 48.83824546875003,
                    "velocity": 0.4330708661417323,
                    "duration": 0.3970589062500025
                },
                {
                    "name": "F5",
                    "midi": 77,
                    "time": 48.83824546875003,
                    "velocity": 0.5118110236220472,
                    "duration": 0.3970589062500025
                },
                {
                    "name": "C5",
                    "midi": 72,
                    "time": 49.235304375000034,
                    "velocity": 0.4566929133858268,
                    "duration": 0.4117647916666627
                },
                {
                    "name": "D#5",
                    "midi": 75,
                    "time": 49.235304375000034,
                    "velocity": 0.4566929133858268,
                    "duration": 0.08823531249999661
                },
                {
                    "name": "F5",
                    "midi": 77,
                    "time": 49.32353968750003,
                    "velocity": 0.41732283464566927,
                    "duration": 0.08823531249999661
                },
                {
                    "name": "D#5",
                    "midi": 75,
                    "time": 49.41177500000003,
                    "velocity": 0.4881889763779528,
                    "duration": 0.23529416666666947
                },
                {
                    "name": "A#4",
                    "midi": 70,
                    "time": 49.6470691666667,
                    "velocity": 0.3700787401574803,
                    "duration": 0.23529416666666947
                },
                {
                    "name": "C#5",
                    "midi": 73,
                    "time": 49.6470691666667,
                    "velocity": 0.4330708661417323,
                    "duration": 0.23529416666666947
                },
                {
                    "name": "C5",
                    "midi": 72,
                    "time": 49.882363333333366,
                    "velocity": 0.3700787401574803,
                    "duration": 0.23529416666666947
                },
                {
                    "name": "D#5",
                    "midi": 75,
                    "time": 49.882363333333366,
                    "velocity": 0.4330708661417323,
                    "duration": 0.23529416666666947
                },
                {
                    "name": "C#5",
                    "midi": 73,
                    "time": 50.117657500000035,
                    "velocity": 0.4094488188976378,
                    "duration": 0.17647062500000033
                },
                {
                    "name": "F5",
                    "midi": 77,
                    "time": 50.117657500000035,
                    "velocity": 0.48031496062992124,
                    "duration": 0.17647062500000033
                },
                {
                    "name": "A4",
                    "midi": 69,
                    "time": 50.64706937500004,
                    "velocity": 0.4094488188976378,
                    "duration": 0.17647062500000033
                },
                {
                    "name": "C5",
                    "midi": 72,
                    "time": 50.64706937500004,
                    "velocity": 0.48031496062992124,
                    "duration": 0.17647062500000033
                },
                {
                    "name": "C5",
                    "midi": 72,
                    "time": 50.82354000000004,
                    "velocity": 0.4330708661417323,
                    "duration": 0.7058825000000013
                },
                {
                    "name": "D#5",
                    "midi": 75,
                    "time": 50.82354000000004,
                    "velocity": 0.5118110236220472,
                    "duration": 0.7058825000000013
                },
                {
                    "name": "A#4",
                    "midi": 70,
                    "time": 51.52942250000004,
                    "velocity": 0.3937007874015748,
                    "duration": 0.35294125000000065
                },
                {
                    "name": "C#5",
                    "midi": 73,
                    "time": 51.52942250000004,
                    "velocity": 0.4645669291338583,
                    "duration": 0.35294125000000065
                },
                {
                    "name": "C#5",
                    "midi": 73,
                    "time": 52.23530500000004,
                    "velocity": 0.3700787401574803,
                    "duration": 0.7058825000000013
                },
                {
                    "name": "A#5",
                    "midi": 82,
                    "time": 52.23530500000004,
                    "velocity": 0.5196850393700787,
                    "duration": 1.058823750000002
                },
                {
                    "name": "D5",
                    "midi": 74,
                    "time": 52.94118750000004,
                    "velocity": 0.5196850393700787,
                    "duration": 0.35294125000000065
                },
                {
                    "name": "G#5",
                    "midi": 80,
                    "time": 53.29412875000004,
                    "velocity": 0.41732283464566927,
                    "duration": 0.35294125000000065
                },
                {
                    "name": "B5",
                    "midi": 83,
                    "time": 53.29412875000004,
                    "velocity": 0.4881889763779528,
                    "duration": 0.35294125000000065
                },
                {
                    "name": "C#5",
                    "midi": 73,
                    "time": 53.64707000000004,
                    "velocity": 0.41732283464566927,
                    "duration": 0.23529416666666947
                },
                {
                    "name": "A#5",
                    "midi": 82,
                    "time": 53.64707000000004,
                    "velocity": 0.4881889763779528,
                    "duration": 0.23529416666666947
                },
                {
                    "name": "G#5",
                    "midi": 80,
                    "time": 53.88236416666671,
                    "velocity": 0.4251968503937008,
                    "duration": 0.23529416666666947
                },
                {
                    "name": "A5",
                    "midi": 81,
                    "time": 53.88236416666671,
                    "velocity": 0.4566929133858268,
                    "duration": 0.23529416666666947
                },
                {
                    "name": "C#5",
                    "midi": 73,
                    "time": 54.11765833333338,
                    "velocity": 0.44881889763779526,
                    "duration": 0.23529416666666947
                },
                {
                    "name": "A#5",
                    "midi": 82,
                    "time": 54.11765833333338,
                    "velocity": 0.5275590551181102,
                    "duration": 0.23529416666666947
                },
                {
                    "name": "F6",
                    "midi": 89,
                    "time": 54.35295250000005,
                    "velocity": 0.5511811023622047,
                    "duration": 0.17647062500000033
                },
                {
                    "name": "G#5",
                    "midi": 80,
                    "time": 54.35295250000005,
                    "velocity": 0.4566929133858268,
                    "duration": 0.17647062500000033
                },
                {
                    "name": "G#5",
                    "midi": 80,
                    "time": 54.88236437500005,
                    "velocity": 0.44881889763779526,
                    "duration": 0.23529416666666947
                },
                {
                    "name": "A#5",
                    "midi": 82,
                    "time": 54.88236437500005,
                    "velocity": 0.5275590551181102,
                    "duration": 0.17647062500000033
                },
                {
                    "name": "A#5",
                    "midi": 82,
                    "time": 55.05883500000005,
                    "velocity": 0.5354330708661418,
                    "duration": 0.7058825000000013
                },
                {
                    "name": "F#5",
                    "midi": 78,
                    "time": 55.05883500000005,
                    "velocity": 0.44881889763779526,
                    "duration": 0.7058825000000013
                },
                {
                    "name": "G#5",
                    "midi": 80,
                    "time": 55.76471750000005,
                    "velocity": 0.4409448818897638,
                    "duration": 0.7058825000000013
                },
                {
                    "name": "B5",
                    "midi": 83,
                    "time": 55.76471750000005,
                    "velocity": 0.5196850393700787,
                    "duration": 0.7058825000000013
                },
                {
                    "name": "D#5",
                    "midi": 75,
                    "time": 56.470600000000054,
                    "velocity": 0.4251968503937008,
                    "duration": 0.7058825000000013
                },
                {
                    "name": "F#5",
                    "midi": 78,
                    "time": 56.470600000000054,
                    "velocity": 0.5039370078740157,
                    "duration": 0.7058825000000013
                },
                {
                    "name": "F#5",
                    "midi": 78,
                    "time": 57.176482500000056,
                    "velocity": 0.4251968503937008,
                    "duration": 0.23529416666666947
                },
                {
                    "name": "A#5",
                    "midi": 82,
                    "time": 57.176482500000056,
                    "velocity": 0.5039370078740157,
                    "duration": 0.23529416666666947
                },
                {
                    "name": "F5",
                    "midi": 77,
                    "time": 57.411776666666725,
                    "velocity": 0.4094488188976378,
                    "duration": 0.23529416666666947
                },
                {
                    "name": "G#5",
                    "midi": 80,
                    "time": 57.411776666666725,
                    "velocity": 0.48031496062992124,
                    "duration": 0.23529416666666947
                },
                {
                    "name": "F#5",
                    "midi": 78,
                    "time": 57.647070833333395,
                    "velocity": 0.4094488188976378,
                    "duration": 0.23529416666666947
                },
                {
                    "name": "A#5",
                    "midi": 82,
                    "time": 57.647070833333395,
                    "velocity": 0.48031496062992124,
                    "duration": 0.23529416666666947
                },
                {
                    "name": "F5",
                    "midi": 77,
                    "time": 57.882365000000064,
                    "velocity": 0.4330708661417323,
                    "duration": 0.23529416666666947
                },
                {
                    "name": "G#5",
                    "midi": 80,
                    "time": 57.882365000000064,
                    "velocity": 0.5118110236220472,
                    "duration": 0.23529416666666947
                },
                {
                    "name": "D#5",
                    "midi": 75,
                    "time": 58.11765916666673,
                    "velocity": 0.4094488188976378,
                    "duration": 0.23529416666666947
                },
                {
                    "name": "F#5",
                    "midi": 78,
                    "time": 58.11765916666673,
                    "velocity": 0.48031496062992124,
                    "duration": 0.23529416666666947
                },
                {
                    "name": "F5",
                    "midi": 77,
                    "time": 58.3529533333334,
                    "velocity": 0.4094488188976378,
                    "duration": 0.23529416666666947
                },
                {
                    "name": "G#5",
                    "midi": 80,
                    "time": 58.3529533333334,
                    "velocity": 0.48031496062992124,
                    "duration": 0.23529416666666947
                },
                {
                    "name": "F#5",
                    "midi": 78,
                    "time": 58.58824750000007,
                    "velocity": 0.4330708661417323,
                    "duration": 0.17647062500000033
                },
                {
                    "name": "A#5",
                    "midi": 82,
                    "time": 58.58824750000007,
                    "velocity": 0.5118110236220472,
                    "duration": 0.17647062500000033
                },
                {
                    "name": "F5",
                    "midi": 77,
                    "time": 59.11765937500007,
                    "velocity": 0.47244094488188976,
                    "duration": 0.17647062500000033
                },
                {
                    "name": "D5",
                    "midi": 74,
                    "time": 59.11765937500007,
                    "velocity": 0.4015748031496063,
                    "duration": 0.17647062500000033
                },
                {
                    "name": "F5",
                    "midi": 77,
                    "time": 59.294130000000074,
                    "velocity": 0.4409448818897638,
                    "duration": 0.7058825000000013
                },
                {
                    "name": "G#5",
                    "midi": 80,
                    "time": 59.294130000000074,
                    "velocity": 0.5196850393700787,
                    "duration": 0.7058825000000013
                },
                {
                    "name": "D#5",
                    "midi": 75,
                    "time": 60.000012500000075,
                    "velocity": 0.4015748031496063,
                    "duration": 0.35294125000000065
                },
                {
                    "name": "F#5",
                    "midi": 78,
                    "time": 60.000012500000075,
                    "velocity": 0.47244094488188976,
                    "duration": 0.35294125000000065
                },
                {
                    "name": "D#6",
                    "midi": 87,
                    "time": 60.529424375000076,
                    "velocity": 0.49606299212598426,
                    "duration": 0.17647062500000033
                },
                {
                    "name": "F#5",
                    "midi": 78,
                    "time": 60.529424375000076,
                    "velocity": 0.41732283464566927,
                    "duration": 0.17647062500000033
                },
                {
                    "name": "F#5",
                    "midi": 78,
                    "time": 60.705895000000076,
                    "velocity": 0.44881889763779526,
                    "duration": 0.23529416666666947
                },
                {
                    "name": "D#6",
                    "midi": 87,
                    "time": 60.705895000000076,
                    "velocity": 0.5354330708661418,
                    "duration": 0.23529416666666947
                },
                {
                    "name": "F5",
                    "midi": 77,
                    "time": 60.941189166666746,
                    "velocity": 0.44881889763779526,
                    "duration": 0.23529416666666947
                },
                {
                    "name": "C#6",
                    "midi": 85,
                    "time": 60.941189166666746,
                    "velocity": 0.5275590551181102,
                    "duration": 0.23529416666666947
                },
                {
                    "name": "D#5",
                    "midi": 75,
                    "time": 61.176483333333415,
                    "velocity": 0.4330708661417323,
                    "duration": 0.23529416666666947
                },
                {
                    "name": "B5",
                    "midi": 83,
                    "time": 61.176483333333415,
                    "velocity": 0.5118110236220472,
                    "duration": 0.23529416666666947
                },
                {
                    "name": "D5",
                    "midi": 74,
                    "time": 61.411777500000085,
                    "velocity": 0.3937007874015748,
                    "duration": 0.23529416666666947
                },
                {
                    "name": "A#5",
                    "midi": 82,
                    "time": 61.411777500000085,
                    "velocity": 0.4645669291338583,
                    "duration": 0.23529416666666947
                },
                {
                    "name": "A#4",
                    "midi": 70,
                    "time": 61.647071666666754,
                    "velocity": 0.3937007874015748,
                    "duration": 0.11764708333333118
                },
                {
                    "name": "A#5",
                    "midi": 82,
                    "time": 61.647071666666754,
                    "velocity": 0.4645669291338583,
                    "duration": 0.11764708333333118
                },
                {
                    "name": "B4",
                    "midi": 71,
                    "time": 61.88236583333342,
                    "velocity": 0.3937007874015748,
                    "duration": 0.11764708333333118
                },
                {
                    "name": "A#5",
                    "midi": 82,
                    "time": 61.88236583333342,
                    "velocity": 0.4645669291338583,
                    "duration": 0.11764708333333118
                },
                {
                    "name": "C5",
                    "midi": 72,
                    "time": 62.11766000000008,
                    "velocity": 0.4015748031496063,
                    "duration": 0.11764708333333118
                },
                {
                    "name": "A#5",
                    "midi": 82,
                    "time": 62.11766000000008,
                    "velocity": 0.47244094488188976,
                    "duration": 0.11764708333333118
                },
                {
                    "name": "C#5",
                    "midi": 73,
                    "time": 62.35295416666674,
                    "velocity": 0.4094488188976378,
                    "duration": 0.11764708333333118
                },
                {
                    "name": "A#5",
                    "midi": 82,
                    "time": 62.35295416666674,
                    "velocity": 0.48031496062992124,
                    "duration": 0.11764708333333118
                },
                {
                    "name": "D5",
                    "midi": 74,
                    "time": 62.588248333333404,
                    "velocity": 0.41732283464566927,
                    "duration": 0.11764708333333118
                },
                {
                    "name": "A#5",
                    "midi": 82,
                    "time": 62.588248333333404,
                    "velocity": 0.4881889763779528,
                    "duration": 0.11764708333333118
                },
                {
                    "name": "A#5",
                    "midi": 82,
                    "time": 62.823542500000066,
                    "velocity": 0.5039370078740157,
                    "duration": 0.11764708333333118
                },
                {
                    "name": "D#5",
                    "midi": 75,
                    "time": 62.823542500000066,
                    "velocity": 0.4251968503937008,
                    "duration": 0.11764708333333118
                },
                {
                    "name": "A#5",
                    "midi": 82,
                    "time": 63.05883666666673,
                    "velocity": 0.5118110236220472,
                    "duration": 0.11764708333333118
                },
                {
                    "name": "E5",
                    "midi": 76,
                    "time": 63.05883666666673,
                    "velocity": 0.4330708661417323,
                    "duration": 0.11764708333333118
                },
                {
                    "name": "A#5",
                    "midi": 82,
                    "time": 63.29413083333339,
                    "velocity": 0.5196850393700787,
                    "duration": 0.11764708333333118
                },
                {
                    "name": "F5",
                    "midi": 77,
                    "time": 63.29413083333339,
                    "velocity": 0.4409448818897638,
                    "duration": 0.11764708333333118
                },
                {
                    "name": "F#5",
                    "midi": 78,
                    "time": 63.52942500000005,
                    "velocity": 0.3543307086614173,
                    "duration": 0.2823530000000005
                },
                {
                    "name": "A#5",
                    "midi": 82,
                    "time": 63.52942500000005,
                    "velocity": 0.4251968503937008,
                    "duration": 0.2823530000000005
                },
                {
                    "name": "G#5",
                    "midi": 80,
                    "time": 63.811778000000054,
                    "velocity": 0.3700787401574803,
                    "duration": 0.2823529999999934
                },
                {
                    "name": "B5",
                    "midi": 83,
                    "time": 63.811778000000054,
                    "velocity": 0.44881889763779526,
                    "duration": 0.2823529999999934
                },
                {
                    "name": "A#5",
                    "midi": 82,
                    "time": 64.09413100000005,
                    "velocity": 0.47244094488188976,
                    "duration": 0.2823530000000005
                },
                {
                    "name": "F#5",
                    "midi": 78,
                    "time": 64.09413100000005,
                    "velocity": 0.3937007874015748,
                    "duration": 0.2823530000000005
                },
                {
                    "name": "F5",
                    "midi": 77,
                    "time": 64.37648400000005,
                    "velocity": 0.41732283464566927,
                    "duration": 0.2823530000000005
                },
                {
                    "name": "G#5",
                    "midi": 80,
                    "time": 64.37648400000005,
                    "velocity": 0.49606299212598426,
                    "duration": 0.2823530000000005
                },
                {
                    "name": "F#5",
                    "midi": 78,
                    "time": 64.65883700000005,
                    "velocity": 0.4251968503937008,
                    "duration": 0.2823530000000005
                },
                {
                    "name": "A#5",
                    "midi": 82,
                    "time": 64.65883700000005,
                    "velocity": 0.5118110236220472,
                    "duration": 0.2823530000000005
                },
                {
                    "name": "G#5",
                    "midi": 80,
                    "time": 64.94119000000005,
                    "velocity": 0.4566929133858268,
                    "duration": 0.17647062499999322
                },
                {
                    "name": "B5",
                    "midi": 83,
                    "time": 64.94119000000005,
                    "velocity": 0.5433070866141733,
                    "duration": 0.17647062499999322
                },
                {
                    "name": "F#5",
                    "midi": 78,
                    "time": 65.47060187500004,
                    "velocity": 0.5196850393700787,
                    "duration": 0.14705885416667286
                },
                {
                    "name": "D#5",
                    "midi": 75,
                    "time": 65.47060187500004,
                    "velocity": 0.4409448818897638,
                    "duration": 0.14705885416667286
                },
                {
                    "name": "D#5",
                    "midi": 75,
                    "time": 65.64707250000005,
                    "velocity": 0.41732283464566927,
                    "duration": 0.17647062499999322
                },
                {
                    "name": "F#5",
                    "midi": 78,
                    "time": 65.64707250000005,
                    "velocity": 0.49606299212598426,
                    "duration": 0.17647062499999322
                },
                {
                    "name": "F#5",
                    "midi": 78,
                    "time": 65.82354312500004,
                    "velocity": 0.4645669291338583,
                    "duration": 0.17647062499999322
                },
                {
                    "name": "A#5",
                    "midi": 82,
                    "time": 65.82354312500004,
                    "velocity": 0.5511811023622047,
                    "duration": 0.17647062499999322
                },
                {
                    "name": "G#5",
                    "midi": 80,
                    "time": 66.17648437500003,
                    "velocity": 0.5039370078740157,
                    "duration": 0.17647062499999322
                },
                {
                    "name": "F5",
                    "midi": 77,
                    "time": 66.17648437500003,
                    "velocity": 0.4251968503937008,
                    "duration": 0.17647062499999322
                },
                {
                    "name": "F5",
                    "midi": 77,
                    "time": 66.35295500000002,
                    "velocity": 0.4881889763779528,
                    "duration": 0.058823541666669144
                },
                {
                    "name": "G#5",
                    "midi": 80,
                    "time": 66.35295500000002,
                    "velocity": 0.4881889763779528,
                    "duration": 0.058823541666669144
                },
                {
                    "name": "A#5",
                    "midi": 82,
                    "time": 66.41177854166669,
                    "velocity": 0.4330708661417323,
                    "duration": 0.058823541666669144
                },
                {
                    "name": "F#5",
                    "midi": 78,
                    "time": 66.41177854166669,
                    "velocity": 0.4330708661417323,
                    "duration": 0.058823541666669144
                },
                {
                    "name": "G#5",
                    "midi": 80,
                    "time": 66.47060208333336,
                    "velocity": 0.48031496062992124,
                    "duration": 0.11764708333333829
                },
                {
                    "name": "F5",
                    "midi": 77,
                    "time": 66.47060208333336,
                    "velocity": 0.48031496062992124,
                    "duration": 0.11764708333333829
                },
                {
                    "name": "D#5",
                    "midi": 75,
                    "time": 66.5882491666667,
                    "velocity": 0.41732283464566927,
                    "duration": 0.23529416666666236
                },
                {
                    "name": "F#5",
                    "midi": 78,
                    "time": 66.5882491666667,
                    "velocity": 0.49606299212598426,
                    "duration": 0.23529416666666236
                },
                {
                    "name": "F5",
                    "midi": 77,
                    "time": 66.9411904166667,
                    "velocity": 0.4251968503937008,
                    "duration": 0.08823531250000372
                },
                {
                    "name": "G#5",
                    "midi": 80,
                    "time": 66.9411904166667,
                    "velocity": 0.5039370078740157,
                    "duration": 0.08823531250000372
                },
                {
                    "name": "F5",
                    "midi": 77,
                    "time": 67.05883750000004,
                    "velocity": 0.4330708661417323,
                    "duration": 0.23529416666666236
                },
                {
                    "name": "G#5",
                    "midi": 80,
                    "time": 67.05883750000004,
                    "velocity": 0.5118110236220472,
                    "duration": 0.23529416666666236
                },
                {
                    "name": "F#5",
                    "midi": 78,
                    "time": 67.2941316666667,
                    "velocity": 0.44881889763779526,
                    "duration": 0.11764708333333829
                },
                {
                    "name": "A#5",
                    "midi": 82,
                    "time": 67.2941316666667,
                    "velocity": 0.5275590551181102,
                    "duration": 0.11764708333333829
                },
                {
                    "name": "D5",
                    "midi": 74,
                    "time": 67.6470729166667,
                    "velocity": 0.4330708661417323,
                    "duration": 0.08823531250000372
                },
                {
                    "name": "F5",
                    "midi": 77,
                    "time": 67.6470729166667,
                    "velocity": 0.5118110236220472,
                    "duration": 0.08823531250000372
                },
                {
                    "name": "D5",
                    "midi": 74,
                    "time": 67.76472000000004,
                    "velocity": 0.4645669291338583,
                    "duration": 0.17647062499999322
                },
                {
                    "name": "F5",
                    "midi": 77,
                    "time": 67.76472000000004,
                    "velocity": 0.4645669291338583,
                    "duration": 0.17647062499999322
                },
                {
                    "name": "F5",
                    "midi": 77,
                    "time": 67.94119062500003,
                    "velocity": 0.41732283464566927,
                    "duration": 0.35294125000000065
                },
                {
                    "name": "G#5",
                    "midi": 80,
                    "time": 67.94119062500003,
                    "velocity": 0.4881889763779528,
                    "duration": 0.35294125000000065
                },
                {
                    "name": "D#5",
                    "midi": 75,
                    "time": 69.17648500000003,
                    "velocity": 0.48031496062992124,
                    "duration": 1.4117650000000026
                },
                {
                    "name": "F#5",
                    "midi": 78,
                    "time": 69.17648500000003,
                    "velocity": 0.5748031496062992,
                    "duration": 1.4117650000000026
                },
                {
                    "name": "D5",
                    "midi": 74,
                    "time": 70.58825000000003,
                    "velocity": 0.48031496062992124,
                    "duration": 0.35294125000000065
                },
                {
                    "name": "F#5",
                    "midi": 78,
                    "time": 70.58825000000003,
                    "velocity": 0.5748031496062992,
                    "duration": 0.35294125000000065
                },
                {
                    "name": "F#5",
                    "midi": 78,
                    "time": 71.29413250000003,
                    "velocity": 0.5984251968503937,
                    "duration": 0.35294125000000065
                },
                {
                    "name": "C#5",
                    "midi": 73,
                    "time": 71.29413250000003,
                    "velocity": 0.5039370078740157,
                    "duration": 0.35294125000000065
                },
                {
                    "name": "C5",
                    "midi": 72,
                    "time": 72.00001500000003,
                    "velocity": 0.5039370078740157,
                    "duration": 1.058823750000002
                },
                {
                    "name": "F#5",
                    "midi": 78,
                    "time": 72.00001500000003,
                    "velocity": 0.6141732283464567,
                    "duration": 1.058823750000002
                },
                {
                    "name": "A4",
                    "midi": 69,
                    "time": 73.05883875000004,
                    "velocity": 0.4881889763779528,
                    "duration": 0.35294125000000065
                },
                {
                    "name": "A5",
                    "midi": 81,
                    "time": 73.05883875000004,
                    "velocity": 0.5826771653543307,
                    "duration": 0.35294125000000065
                },
                {
                    "name": "G#4",
                    "midi": 68,
                    "time": 73.41178000000004,
                    "velocity": 0.5039370078740157,
                    "duration": 1.4117650000000026
                },
                {
                    "name": "G#5",
                    "midi": 80,
                    "time": 73.41178000000004,
                    "velocity": 0.5984251968503937,
                    "duration": 1.4117650000000026
                },
                {
                    "name": "F#4",
                    "midi": 66,
                    "time": 74.82354500000004,
                    "velocity": 0.47244094488188976,
                    "duration": 0.7058825000000013
                },
                {
                    "name": "F#5",
                    "midi": 78,
                    "time": 74.82354500000004,
                    "velocity": 0.5669291338582677,
                    "duration": 0.7058825000000013
                },
                {
                    "name": "C#4",
                    "midi": 61,
                    "time": 75.52942750000004,
                    "velocity": 0.4566929133858268,
                    "duration": 0.7058825000000013
                },
                {
                    "name": "C#5",
                    "midi": 73,
                    "time": 75.52942750000004,
                    "velocity": 0.5511811023622047,
                    "duration": 0.7058825000000013
                },
                {
                    "name": "C4",
                    "midi": 60,
                    "time": 76.23531000000004,
                    "velocity": 0.4409448818897638,
                    "duration": 1.4117650000000026
                },
                {
                    "name": "C5",
                    "midi": 72,
                    "time": 76.23531000000004,
                    "velocity": 0.5196850393700787,
                    "duration": 1.4117650000000026
                },
                {
                    "name": "G#4",
                    "midi": 68,
                    "time": 77.64707500000004,
                    "velocity": 0.4094488188976378,
                    "duration": 0.7058825000000013
                },
                {
                    "name": "A4",
                    "midi": 69,
                    "time": 78.35295750000004,
                    "velocity": 0.44881889763779526,
                    "duration": 0.23529416666666236
                },
                {
                    "name": "B4",
                    "midi": 71,
                    "time": 78.58825166666671,
                    "velocity": 0.3937007874015748,
                    "duration": 0.23529416666666236
                },
                {
                    "name": "A4",
                    "midi": 69,
                    "time": 78.82354583333337,
                    "velocity": 0.4094488188976378,
                    "duration": 0.23529416666666236
                },
                {
                    "name": "G#4",
                    "midi": 68,
                    "time": 79.05884000000003,
                    "velocity": 0.4015748031496063,
                    "duration": 0.35294125000000065
                },
                {
                    "name": "A4",
                    "midi": 69,
                    "time": 79.41178125000003,
                    "velocity": 0.4015748031496063,
                    "duration": 0.35294125000000065
                },
                {
                    "name": "E5",
                    "midi": 76,
                    "time": 79.76472250000003,
                    "velocity": 0.44881889763779526,
                    "duration": 0.5294118749999939
                },
                {
                    "name": "D#5",
                    "midi": 75,
                    "time": 80.29413437500003,
                    "velocity": 0.41732283464566927,
                    "duration": 0.17647062499999322
                },
                {
                    "name": "D#5",
                    "midi": 75,
                    "time": 80.47060500000002,
                    "velocity": 0.44881889763779526,
                    "duration": 0.7058825000000013
                },
                {
                    "name": "A4",
                    "midi": 69,
                    "time": 81.52942875000002,
                    "velocity": 0.48031496062992124,
                    "duration": 0.35294125000000065
                },
                {
                    "name": "A5",
                    "midi": 81,
                    "time": 81.52942875000002,
                    "velocity": 0.5748031496062992,
                    "duration": 0.35294125000000065
                },
                {
                    "name": "G#4",
                    "midi": 68,
                    "time": 81.88237000000002,
                    "velocity": 0.4566929133858268,
                    "duration": 1.4117650000000026
                },
                {
                    "name": "G#5",
                    "midi": 80,
                    "time": 81.88237000000002,
                    "velocity": 0.5511811023622047,
                    "duration": 1.4117650000000026
                },
                {
                    "name": "G#4",
                    "midi": 68,
                    "time": 83.29413500000003,
                    "velocity": 0.4330708661417323,
                    "duration": 0.17647062499999322
                },
                {
                    "name": "G#5",
                    "midi": 80,
                    "time": 83.29413500000003,
                    "velocity": 0.5118110236220472,
                    "duration": 0.17647062499999322
                },
                {
                    "name": "F#4",
                    "midi": 66,
                    "time": 83.47060562500002,
                    "velocity": 0.4251968503937008,
                    "duration": 0.17647062499999322
                },
                {
                    "name": "F#5",
                    "midi": 78,
                    "time": 83.47060562500002,
                    "velocity": 0.5039370078740157,
                    "duration": 0.17647062499999322
                },
                {
                    "name": "G#4",
                    "midi": 68,
                    "time": 83.64707625000001,
                    "velocity": 0.41732283464566927,
                    "duration": 0.17647062499999322
                },
                {
                    "name": "G#5",
                    "midi": 80,
                    "time": 83.64707625000001,
                    "velocity": 0.49606299212598426,
                    "duration": 0.17647062499999322
                },
                {
                    "name": "F#4",
                    "midi": 66,
                    "time": 83.823546875,
                    "velocity": 0.41732283464566927,
                    "duration": 0.17647062499999322
                },
                {
                    "name": "F#5",
                    "midi": 78,
                    "time": 83.823546875,
                    "velocity": 0.4881889763779528,
                    "duration": 0.17647062499999322
                },
                {
                    "name": "E4",
                    "midi": 64,
                    "time": 84.0000175,
                    "velocity": 0.41732283464566927,
                    "duration": 0.17647062499999322
                },
                {
                    "name": "E5",
                    "midi": 76,
                    "time": 84.0000175,
                    "velocity": 0.4881889763779528,
                    "duration": 0.17647062499999322
                },
                {
                    "name": "D#4",
                    "midi": 63,
                    "time": 84.17648812499999,
                    "velocity": 0.4094488188976378,
                    "duration": 0.17647062499999322
                },
                {
                    "name": "D#5",
                    "midi": 75,
                    "time": 84.17648812499999,
                    "velocity": 0.48031496062992124,
                    "duration": 0.17647062499999322
                },
                {
                    "name": "E4",
                    "midi": 64,
                    "time": 84.35295874999998,
                    "velocity": 0.4015748031496063,
                    "duration": 0.17647062499999322
                },
                {
                    "name": "E5",
                    "midi": 76,
                    "time": 84.35295874999998,
                    "velocity": 0.47244094488188976,
                    "duration": 0.17647062499999322
                },
                {
                    "name": "D#4",
                    "midi": 63,
                    "time": 84.52942937499998,
                    "velocity": 0.3937007874015748,
                    "duration": 0.17647062499999322
                },
                {
                    "name": "D#5",
                    "midi": 75,
                    "time": 84.52942937499998,
                    "velocity": 0.4645669291338583,
                    "duration": 0.17647062499999322
                },
                {
                    "name": "C4",
                    "midi": 60,
                    "time": 84.70589999999997,
                    "velocity": 0.4409448818897638,
                    "duration": 0.35294125000000065
                },
                {
                    "name": "C5",
                    "midi": 72,
                    "time": 84.70589999999997,
                    "velocity": 0.5196850393700787,
                    "duration": 0.35294125000000065
                },
                {
                    "name": "G#4",
                    "midi": 68,
                    "time": 86.47060624999997,
                    "velocity": 0.36220472440944884,
                    "duration": 0.35294125000000065
                },
                {
                    "name": "A4",
                    "midi": 69,
                    "time": 86.82354749999998,
                    "velocity": 0.4015748031496063,
                    "duration": 0.23529416666666236
                },
                {
                    "name": "B4",
                    "midi": 71,
                    "time": 87.05884166666664,
                    "velocity": 0.3543307086614173,
                    "duration": 0.23529416666666236
                },
                {
                    "name": "A4",
                    "midi": 69,
                    "time": 87.2941358333333,
                    "velocity": 0.36220472440944884,
                    "duration": 0.23529416666666236
                },
                {
                    "name": "G#4",
                    "midi": 68,
                    "time": 87.52942999999996,
                    "velocity": 0.3543307086614173,
                    "duration": 0.35294125000000065
                },
                {
                    "name": "A4",
                    "midi": 69,
                    "time": 87.88237124999996,
                    "velocity": 0.3543307086614173,
                    "duration": 0.17647062499999322
                },
                {
                    "name": "A4",
                    "midi": 69,
                    "time": 88.05884187499996,
                    "velocity": 0.36220472440944884,
                    "duration": 0.17647062499999322
                },
                {
                    "name": "E5",
                    "midi": 76,
                    "time": 88.23531249999995,
                    "velocity": 0.4094488188976378,
                    "duration": 0.35294125000000065
                },
                {
                    "name": "D#5",
                    "midi": 75,
                    "time": 88.76472437499994,
                    "velocity": 0.3858267716535433,
                    "duration": 0.17647062499999322
                },
                {
                    "name": "D#5",
                    "midi": 75,
                    "time": 88.94119499999994,
                    "velocity": 0.4251968503937008,
                    "duration": 0.7058825000000013
                },
                {
                    "name": "D#5",
                    "midi": 75,
                    "time": 91.05884249999994,
                    "velocity": 0.4015748031496063,
                    "duration": 4.235295000000008
                },
                {
                    "name": "D5",
                    "midi": 74,
                    "time": 95.29413749999995,
                    "velocity": 0.4015748031496063,
                    "duration": 2.117647500000004
                },
                {
                    "name": "C#5",
                    "midi": 73,
                    "time": 97.41178499999995,
                    "velocity": 0.4251968503937008,
                    "duration": 1.4117650000000026
                },
                {
                    "name": "C#5",
                    "midi": 73,
                    "time": 99.52943249999996,
                    "velocity": 0.4015748031496063,
                    "duration": 2.823530000000005
                },
                {
                    "name": "C5",
                    "midi": 72,
                    "time": 102.35296249999996,
                    "velocity": 0.3858267716535433,
                    "duration": 0.7058825000000013
                },
                {
                    "name": "A#4",
                    "midi": 70,
                    "time": 103.05884499999996,
                    "velocity": 0.3779527559055118,
                    "duration": 1.058823750000002
                },
                {
                    "name": "G#4",
                    "midi": 68,
                    "time": 104.11766874999996,
                    "velocity": 0.33070866141732286,
                    "duration": 0.35294125000000065
                },
                {
                    "name": "A#4",
                    "midi": 70,
                    "time": 104.47060999999997,
                    "velocity": 0.3464566929133858,
                    "duration": 0.35294125000000065
                },
                {
                    "name": "C5",
                    "midi": 72,
                    "time": 104.82355124999997,
                    "velocity": 0.3543307086614173,
                    "duration": 0.35294125000000065
                },
                {
                    "name": "C#5",
                    "midi": 73,
                    "time": 105.17649249999997,
                    "velocity": 0.3700787401574803,
                    "duration": 0.35294125000000065
                },
                {
                    "name": "D#5",
                    "midi": 75,
                    "time": 105.52943374999997,
                    "velocity": 0.3779527559055118,
                    "duration": 0.35294125000000065
                },
                {
                    "name": "F5",
                    "midi": 77,
                    "time": 105.88237499999997,
                    "velocity": 0.3858267716535433,
                    "duration": 2.117647500000004
                },
                {
                    "name": "D#5",
                    "midi": 75,
                    "time": 108.00002249999997,
                    "velocity": 0.3858267716535433,
                    "duration": 0.7058825000000013
                },
                {
                    "name": "C#5",
                    "midi": 73,
                    "time": 108.70590499999997,
                    "velocity": 0.3858267716535433,
                    "duration": 1.058823750000002
                },
                {
                    "name": "F4",
                    "midi": 65,
                    "time": 109.76472874999997,
                    "velocity": 0.3543307086614173,
                    "duration": 0.35294125000000065
                },
                {
                    "name": "G#4",
                    "midi": 68,
                    "time": 110.11766999999998,
                    "velocity": 0.3858267716535433,
                    "duration": 2.823530000000005
                },
                {
                    "name": "C#5",
                    "midi": 73,
                    "time": 112.94119999999998,
                    "velocity": 0.4094488188976378,
                    "duration": 0.7058825000000013
                },
                {
                    "name": "F5",
                    "midi": 77,
                    "time": 113.64708249999998,
                    "velocity": 0.4251968503937008,
                    "duration": 0.7058825000000013
                },
                {
                    "name": "A#5",
                    "midi": 82,
                    "time": 114.35296499999998,
                    "velocity": 0.48031496062992124,
                    "duration": 2.4705887500000046
                },
                {
                    "name": "G#5",
                    "midi": 80,
                    "time": 116.82355374999999,
                    "velocity": 0.3543307086614173,
                    "duration": 0.35294125000000065
                },
                {
                    "name": "E5",
                    "midi": 76,
                    "time": 117.17649499999999,
                    "velocity": 0.3937007874015748,
                    "duration": 0.35294125000000065
                },
                {
                    "name": "F5",
                    "midi": 77,
                    "time": 117.52943624999999,
                    "velocity": 0.3543307086614173,
                    "duration": 0.35294125000000065
                },
                {
                    "name": "C5",
                    "midi": 72,
                    "time": 117.88237749999999,
                    "velocity": 0.3858267716535433,
                    "duration": 0.35294125000000065
                },
                {
                    "name": "C#5",
                    "midi": 73,
                    "time": 118.23531874999999,
                    "velocity": 0.3543307086614173,
                    "duration": 0.35294125000000065
                },
                {
                    "name": "A4",
                    "midi": 69,
                    "time": 118.58825999999999,
                    "velocity": 0.4409448818897638,
                    "duration": 4.235295000000008
                },
                {
                    "name": "A#4",
                    "midi": 70,
                    "time": 122.823555,
                    "velocity": 0.4094488188976378,
                    "duration": 2.117647500000004
                },
                {
                    "name": "C6",
                    "midi": 84,
                    "time": 125.29414375,
                    "velocity": 0.3937007874015748,
                    "duration": 0.35294125000000065
                },
                {
                    "name": "A#5",
                    "midi": 82,
                    "time": 125.647085,
                    "velocity": 0.4094488188976378,
                    "duration": 0.35294125000000065
                },
                {
                    "name": "F5",
                    "midi": 77,
                    "time": 126.00002625,
                    "velocity": 0.36220472440944884,
                    "duration": 0.35294125000000065
                },
                {
                    "name": "G#5",
                    "midi": 80,
                    "time": 126.3529675,
                    "velocity": 0.3937007874015748,
                    "duration": 0.35294125000000065
                },
                {
                    "name": "F#5",
                    "midi": 78,
                    "time": 126.70590875,
                    "velocity": 0.3543307086614173,
                    "duration": 0.35294125000000065
                },
                {
                    "name": "F5",
                    "midi": 77,
                    "time": 127.05885,
                    "velocity": 0.4015748031496063,
                    "duration": 1.4117650000000026
                },
                {
                    "name": "D#5",
                    "midi": 75,
                    "time": 128.470615,
                    "velocity": 0.4094488188976378,
                    "duration": 1.2352943749999952
                },
                {
                    "name": "D5",
                    "midi": 74,
                    "time": 129.52943875,
                    "velocity": 0.44881889763779526,
                    "duration": 0.35294125000001486
                },
                {
                    "name": "D#5",
                    "midi": 75,
                    "time": 129.88238,
                    "velocity": 0.44881889763779526,
                    "duration": 0.35294124999998644
                },
                {
                    "name": "E5",
                    "midi": 76,
                    "time": 130.23532125,
                    "velocity": 0.44881889763779526,
                    "duration": 0.35294124999998644
                },
                {
                    "name": "F5",
                    "midi": 77,
                    "time": 130.58826249999998,
                    "velocity": 0.4881889763779528,
                    "duration": 0.5294118749999939
                },
                {
                    "name": "F#5",
                    "midi": 78,
                    "time": 131.11767437499998,
                    "velocity": 0.4015748031496063,
                    "duration": 0.0882353124999895
                },
                {
                    "name": "F#5",
                    "midi": 78,
                    "time": 131.20590968749997,
                    "velocity": 0.4015748031496063,
                    "duration": 0.0882353124999895
                },
                {
                    "name": "F#6",
                    "midi": 90,
                    "time": 131.29414499999996,
                    "velocity": 0.5590551181102362,
                    "duration": 0.9411766666666779
                },
                {
                    "name": "D#6",
                    "midi": 87,
                    "time": 132.23532166666664,
                    "velocity": 0.5118110236220472,
                    "duration": 0.23529416666667657
                },
                {
                    "name": "C#6",
                    "midi": 85,
                    "time": 132.4706158333333,
                    "velocity": 0.4881889763779528,
                    "duration": 0.23529416666667657
                },
                {
                    "name": "A5",
                    "midi": 81,
                    "time": 132.70591,
                    "velocity": 0.47244094488188976,
                    "duration": 0.23529416666667657
                },
                {
                    "name": "F#5",
                    "midi": 78,
                    "time": 132.94120416666667,
                    "velocity": 0.4566929133858268,
                    "duration": 0.23529416666667657
                },
                {
                    "name": "D#5",
                    "midi": 75,
                    "time": 133.17649833333334,
                    "velocity": 0.4330708661417323,
                    "duration": 0.23529416666667657
                },
                {
                    "name": "C5",
                    "midi": 72,
                    "time": 133.41179250000002,
                    "velocity": 0.3700787401574803,
                    "duration": 0.35294124999998644
                },
                {
                    "name": "G#4",
                    "midi": 68,
                    "time": 133.941204375,
                    "velocity": 0.3858267716535433,
                    "duration": 0.17647062500000743
                },
                {
                    "name": "D#5",
                    "midi": 75,
                    "time": 134.11767500000002,
                    "velocity": 0.3937007874015748,
                    "duration": 0.11764708333333829
                },
                {
                    "name": "C6",
                    "midi": 84,
                    "time": 134.23532208333336,
                    "velocity": 0.3937007874015748,
                    "duration": 0.11764708333333829
                },
                {
                    "name": "A4",
                    "midi": 69,
                    "time": 134.3529691666667,
                    "velocity": 0.3779527559055118,
                    "duration": 0.11764708333333829
                },
                {
                    "name": "E5",
                    "midi": 76,
                    "time": 134.47061625000003,
                    "velocity": 0.4094488188976378,
                    "duration": 0.11764708333333829
                },
                {
                    "name": "C#6",
                    "midi": 85,
                    "time": 134.58826333333337,
                    "velocity": 0.41732283464566927,
                    "duration": 0.11764708333333829
                },
                {
                    "name": "A#4",
                    "midi": 70,
                    "time": 134.7059104166667,
                    "velocity": 0.3937007874015748,
                    "duration": 0.11764708333333829
                },
                {
                    "name": "F5",
                    "midi": 77,
                    "time": 134.82355750000005,
                    "velocity": 0.4251968503937008,
                    "duration": 0.11764708333333829
                },
                {
                    "name": "D6",
                    "midi": 86,
                    "time": 134.9412045833334,
                    "velocity": 0.4330708661417323,
                    "duration": 0.11764708333333829
                },
                {
                    "name": "B4",
                    "midi": 71,
                    "time": 135.05885166666673,
                    "velocity": 0.41732283464566927,
                    "duration": 0.11764708333333829
                },
                {
                    "name": "F#5",
                    "midi": 78,
                    "time": 135.17649875000006,
                    "velocity": 0.4409448818897638,
                    "duration": 0.11764708333333829
                },
                {
                    "name": "D#6",
                    "midi": 87,
                    "time": 135.2941458333334,
                    "velocity": 0.44881889763779526,
                    "duration": 0.11764708333333829
                },
                {
                    "name": "C5",
                    "midi": 72,
                    "time": 135.41179291666674,
                    "velocity": 0.4251968503937008,
                    "duration": 0.11764708333333829
                },
                {
                    "name": "E6",
                    "midi": 88,
                    "time": 135.52944000000008,
                    "velocity": 0.5039370078740157,
                    "duration": 1.0588237499999877
                },
                {
                    "name": "G5",
                    "midi": 79,
                    "time": 135.52944000000008,
                    "velocity": 0.4251968503937008,
                    "duration": 1.0588237499999877
                },
                {
                    "name": "F6",
                    "midi": 89,
                    "time": 136.58826375000007,
                    "velocity": 0.4566929133858268,
                    "duration": 0.35294124999998644
                },
                {
                    "name": "G#5",
                    "midi": 80,
                    "time": 136.58826375000007,
                    "velocity": 0.3858267716535433,
                    "duration": 0.35294124999998644
                },
                {
                    "name": "F6",
                    "midi": 89,
                    "time": 136.94120500000005,
                    "velocity": 0.44881889763779526,
                    "duration": 0.23529416666667657
                },
                {
                    "name": "G#5",
                    "midi": 80,
                    "time": 136.94120500000005,
                    "velocity": 0.3779527559055118,
                    "duration": 0.23529416666667657
                },
                {
                    "name": "F#6",
                    "midi": 90,
                    "time": 137.17649916666673,
                    "velocity": 0.48031496062992124,
                    "duration": 0.11764708333333829
                },
                {
                    "name": "A#5",
                    "midi": 82,
                    "time": 137.17649916666673,
                    "velocity": 0.4015748031496063,
                    "duration": 0.11764708333333829
                },
                {
                    "name": "G#5",
                    "midi": 80,
                    "time": 137.52944041666674,
                    "velocity": 0.3543307086614173,
                    "duration": 0.11764708333333829
                },
                {
                    "name": "F6",
                    "midi": 89,
                    "time": 137.52944041666674,
                    "velocity": 0.4251968503937008,
                    "duration": 0.11764708333333829
                },
                {
                    "name": "F6",
                    "midi": 89,
                    "time": 137.64708750000008,
                    "velocity": 0.4566929133858268,
                    "duration": 0.17647062500000743
                },
                {
                    "name": "G#5",
                    "midi": 80,
                    "time": 137.64708750000008,
                    "velocity": 0.3858267716535433,
                    "duration": 0.17647062500000743
                },
                {
                    "name": "C#6",
                    "midi": 85,
                    "time": 137.8235581250001,
                    "velocity": 0.4251968503937008,
                    "duration": 1.9411768749999965
                },
                {
                    "name": "F5",
                    "midi": 77,
                    "time": 137.8235581250001,
                    "velocity": 0.3543307086614173,
                    "duration": 1.9411768749999965
                },
                {
                    "name": "C#6",
                    "midi": 85,
                    "time": 139.7647350000001,
                    "velocity": 0.47244094488188976,
                    "duration": 0.7058825000000013
                },
                {
                    "name": "E5",
                    "midi": 76,
                    "time": 139.7647350000001,
                    "velocity": 0.4015748031496063,
                    "duration": 0.7058825000000013
                },
                {
                    "name": "D6",
                    "midi": 86,
                    "time": 140.4706175000001,
                    "velocity": 0.44881889763779526,
                    "duration": 0.7058825000000013
                },
                {
                    "name": "F#5",
                    "midi": 78,
                    "time": 140.4706175000001,
                    "velocity": 0.3779527559055118,
                    "duration": 0.7058825000000013
                },
                {
                    "name": "A5",
                    "midi": 81,
                    "time": 141.1765000000001,
                    "velocity": 0.4251968503937008,
                    "duration": 0.7058825000000013
                },
                {
                    "name": "C#5",
                    "midi": 73,
                    "time": 141.1765000000001,
                    "velocity": 0.3543307086614173,
                    "duration": 0.7058825000000013
                },
                {
                    "name": "C#6",
                    "midi": 85,
                    "time": 141.8823825000001,
                    "velocity": 0.48031496062992124,
                    "duration": 0.35294124999998644
                },
                {
                    "name": "E5",
                    "midi": 76,
                    "time": 141.8823825000001,
                    "velocity": 0.48031496062992124,
                    "duration": 0.35294124999998644
                },
                {
                    "name": "D5",
                    "midi": 74,
                    "time": 142.23532375000008,
                    "velocity": 0.33858267716535434,
                    "duration": 0.0882353124999895
                },
                {
                    "name": "B5",
                    "midi": 83,
                    "time": 142.23532375000008,
                    "velocity": 0.4015748031496063,
                    "duration": 0.0882353124999895
                },
                {
                    "name": "E5",
                    "midi": 76,
                    "time": 142.32355906250007,
                    "velocity": 0.4015748031496063,
                    "duration": 0.0882353124999895
                },
                {
                    "name": "C#6",
                    "midi": 85,
                    "time": 142.32355906250007,
                    "velocity": 0.4015748031496063,
                    "duration": 0.0882353124999895
                },
                {
                    "name": "D5",
                    "midi": 74,
                    "time": 142.41179437500006,
                    "velocity": 0.3543307086614173,
                    "duration": 0.17647062500000743
                },
                {
                    "name": "B5",
                    "midi": 83,
                    "time": 142.41179437500006,
                    "velocity": 0.4251968503937008,
                    "duration": 0.17647062500000743
                },
                {
                    "name": "A#5",
                    "midi": 82,
                    "time": 142.58826500000006,
                    "velocity": 0.4251968503937008,
                    "duration": 0.35294124999998644
                },
                {
                    "name": "C#5",
                    "midi": 73,
                    "time": 142.58826500000006,
                    "velocity": 0.3543307086614173,
                    "duration": 0.35294124999998644
                },
                {
                    "name": "D5",
                    "midi": 74,
                    "time": 142.94120625000005,
                    "velocity": 0.3779527559055118,
                    "duration": 0.35294124999998644
                },
                {
                    "name": "B5",
                    "midi": 83,
                    "time": 142.94120625000005,
                    "velocity": 0.44881889763779526,
                    "duration": 0.35294124999998644
                },
                {
                    "name": "C#6",
                    "midi": 85,
                    "time": 143.29414750000004,
                    "velocity": 0.47244094488188976,
                    "duration": 0.17647062500000743
                },
                {
                    "name": "E5",
                    "midi": 76,
                    "time": 143.29414750000004,
                    "velocity": 0.4015748031496063,
                    "duration": 0.17647062500000743
                },
                {
                    "name": "B4",
                    "midi": 71,
                    "time": 143.82355937500003,
                    "velocity": 0.3543307086614173,
                    "duration": 0.17647062500000743
                },
                {
                    "name": "G#5",
                    "midi": 80,
                    "time": 143.82355937500003,
                    "velocity": 0.4251968503937008,
                    "duration": 0.17647062500000743
                },
                {
                    "name": "D5",
                    "midi": 74,
                    "time": 144.00003000000004,
                    "velocity": 0.4251968503937008,
                    "duration": 0.35294124999998644
                },
                {
                    "name": "B5",
                    "midi": 83,
                    "time": 144.00003000000004,
                    "velocity": 0.5039370078740157,
                    "duration": 0.35294124999998644
                },
                {
                    "name": "A5",
                    "midi": 81,
                    "time": 145.05885375000003,
                    "velocity": 0.48031496062992124,
                    "duration": 0.35294124999998644
                },
                {
                    "name": "C#5",
                    "midi": 73,
                    "time": 145.05885375000003,
                    "velocity": 0.4015748031496063,
                    "duration": 0.35294124999998644
                },
                {
                    "name": "C#5",
                    "midi": 73,
                    "time": 145.411795,
                    "velocity": 0.4015748031496063,
                    "duration": 0.11764708333333829
                },
                {
                    "name": "A5",
                    "midi": 81,
                    "time": 145.411795,
                    "velocity": 0.48031496062992124,
                    "duration": 0.11764708333333829
                },
                {
                    "name": "C#5",
                    "midi": 73,
                    "time": 145.6470891666667,
                    "velocity": 0.3937007874015748,
                    "duration": 0.11764708333333829
                },
                {
                    "name": "G#5",
                    "midi": 80,
                    "time": 145.6470891666667,
                    "velocity": 0.4645669291338583,
                    "duration": 0.11764708333333829
                },
                {
                    "name": "C#5",
                    "midi": 73,
                    "time": 145.88238333333337,
                    "velocity": 0.3937007874015748,
                    "duration": 0.11764708333333829
                },
                {
                    "name": "F#5",
                    "midi": 78,
                    "time": 145.88238333333337,
                    "velocity": 0.4645669291338583,
                    "duration": 0.11764708333333829
                },
                {
                    "name": "D5",
                    "midi": 74,
                    "time": 146.11767750000004,
                    "velocity": 0.4015748031496063,
                    "duration": 1.0588237499999877
                },
                {
                    "name": "E5",
                    "midi": 76,
                    "time": 146.11767750000004,
                    "velocity": 0.48031496062992124,
                    "duration": 1.0588237499999877
                },
                {
                    "name": "A#4",
                    "midi": 70,
                    "time": 147.17650125000003,
                    "velocity": 0.3858267716535433,
                    "duration": 0.17647062500000743
                },
                {
                    "name": "E5",
                    "midi": 76,
                    "time": 147.17650125000003,
                    "velocity": 0.4566929133858268,
                    "duration": 0.17647062500000743
                },
                {
                    "name": "B4",
                    "midi": 71,
                    "time": 147.52944250000004,
                    "velocity": 0.4094488188976378,
                    "duration": 0.17647062500000743
                },
                {
                    "name": "E5",
                    "midi": 76,
                    "time": 147.52944250000004,
                    "velocity": 0.48031496062992124,
                    "duration": 0.17647062500000743
                },
                {
                    "name": "C5",
                    "midi": 72,
                    "time": 147.88238375000006,
                    "velocity": 0.4330708661417323,
                    "duration": 0.17647062500000743
                },
                {
                    "name": "E5",
                    "midi": 76,
                    "time": 147.88238375000006,
                    "velocity": 0.5196850393700787,
                    "duration": 0.17647062500000743
                },
                {
                    "name": "C#5",
                    "midi": 73,
                    "time": 148.23532500000007,
                    "velocity": 0.4645669291338583,
                    "duration": 1.4117650000000026
                },
                {
                    "name": "E5",
                    "midi": 76,
                    "time": 148.23532500000007,
                    "velocity": 0.5275590551181102,
                    "duration": 1.4117650000000026
                },
                {
                    "name": "D5",
                    "midi": 74,
                    "time": 149.64709000000008,
                    "velocity": 0.4330708661417323,
                    "duration": 0.35294124999998644
                },
                {
                    "name": "F#5",
                    "midi": 78,
                    "time": 149.64709000000008,
                    "velocity": 0.48031496062992124,
                    "duration": 0.35294124999998644
                },
                {
                    "name": "A4",
                    "midi": 69,
                    "time": 150.00003125000006,
                    "velocity": 0.4330708661417323,
                    "duration": 0.35294124999998644
                },
                {
                    "name": "C#5",
                    "midi": 73,
                    "time": 150.00003125000006,
                    "velocity": 0.5118110236220472,
                    "duration": 0.35294124999998644
                },
                {
                    "name": "G#4",
                    "midi": 68,
                    "time": 150.35297250000005,
                    "velocity": 0.3937007874015748,
                    "duration": 0.17647062500000743
                },
                {
                    "name": "C#5",
                    "midi": 73,
                    "time": 150.35297250000005,
                    "velocity": 0.4645669291338583,
                    "duration": 0.17647062500000743
                },
                {
                    "name": "C#5",
                    "midi": 73,
                    "time": 150.52944312500006,
                    "velocity": 0.4409448818897638,
                    "duration": 0.35294124999998644
                },
                {
                    "name": "E5",
                    "midi": 76,
                    "time": 150.52944312500006,
                    "velocity": 0.5196850393700787,
                    "duration": 0.35294124999998644
                },
                {
                    "name": "D5",
                    "midi": 74,
                    "time": 150.88238437500004,
                    "velocity": 0.47244094488188976,
                    "duration": 0.17647062500000743
                },
                {
                    "name": "B4",
                    "midi": 71,
                    "time": 150.88238437500004,
                    "velocity": 0.4015748031496063,
                    "duration": 0.17647062500000743
                },
                {
                    "name": "D5",
                    "midi": 74,
                    "time": 151.05885500000005,
                    "velocity": 0.4566929133858268,
                    "duration": 0.058823541666669144
                },
                {
                    "name": "B4",
                    "midi": 71,
                    "time": 151.05885500000005,
                    "velocity": 0.4566929133858268,
                    "duration": 0.058823541666669144
                },
                {
                    "name": "E5",
                    "midi": 76,
                    "time": 151.11767854166672,
                    "velocity": 0.4094488188976378,
                    "duration": 0.058823541666669144
                },
                {
                    "name": "C#5",
                    "midi": 73,
                    "time": 151.11767854166672,
                    "velocity": 0.4094488188976378,
                    "duration": 0.058823541666669144
                },
                {
                    "name": "D5",
                    "midi": 74,
                    "time": 151.1765020833334,
                    "velocity": 0.44881889763779526,
                    "duration": 0.11764708333333829
                },
                {
                    "name": "B4",
                    "midi": 71,
                    "time": 151.1765020833334,
                    "velocity": 0.44881889763779526,
                    "duration": 0.11764708333333829
                },
                {
                    "name": "A#4",
                    "midi": 70,
                    "time": 151.29414916666673,
                    "velocity": 0.3937007874015748,
                    "duration": 0.23529416666667657
                },
                {
                    "name": "C#5",
                    "midi": 73,
                    "time": 151.29414916666673,
                    "velocity": 0.4645669291338583,
                    "duration": 0.23529416666667657
                },
                {
                    "name": "B4",
                    "midi": 71,
                    "time": 151.5294433333334,
                    "velocity": 0.4015748031496063,
                    "duration": 0.23529416666667657
                },
                {
                    "name": "D5",
                    "midi": 74,
                    "time": 151.5294433333334,
                    "velocity": 0.47244094488188976,
                    "duration": 0.23529416666667657
                },
                {
                    "name": "B4",
                    "midi": 71,
                    "time": 151.76473750000008,
                    "velocity": 0.4094488188976378,
                    "duration": 0.23529416666667657
                },
                {
                    "name": "D5",
                    "midi": 74,
                    "time": 151.76473750000008,
                    "velocity": 0.48031496062992124,
                    "duration": 0.23529416666667657
                },
                {
                    "name": "C#5",
                    "midi": 73,
                    "time": 152.00003166666676,
                    "velocity": 0.4251968503937008,
                    "duration": 0.11764708333333829
                },
                {
                    "name": "E5",
                    "midi": 76,
                    "time": 152.00003166666676,
                    "velocity": 0.49606299212598426,
                    "duration": 0.23529416666667657
                },
                {
                    "name": "G#4",
                    "midi": 68,
                    "time": 152.35297291666677,
                    "velocity": 0.4330708661417323,
                    "duration": 0.11764708333333829
                },
                {
                    "name": "B4",
                    "midi": 71,
                    "time": 152.35297291666677,
                    "velocity": 0.5118110236220472,
                    "duration": 0.11764708333333829
                },
                {
                    "name": "D5",
                    "midi": 74,
                    "time": 152.4706200000001,
                    "velocity": 0.4881889763779528,
                    "duration": 0.7058825000000013
                },
                {
                    "name": "B4",
                    "midi": 71,
                    "time": 152.4706200000001,
                    "velocity": 0.41732283464566927,
                    "duration": 0.7058825000000013
                },
                {
                    "name": "C#5",
                    "midi": 73,
                    "time": 153.1765025000001,
                    "velocity": 0.4881889763779528,
                    "duration": 0.7058825000000013
                },
                {
                    "name": "A4",
                    "midi": 69,
                    "time": 153.1765025000001,
                    "velocity": 0.41732283464566927,
                    "duration": 0.7058825000000013
                },
                {
                    "name": "C#5",
                    "midi": 73,
                    "time": 153.8823850000001,
                    "velocity": 0.4645669291338583,
                    "duration": 1.4117650000000026
                },
                {
                    "name": "A5",
                    "midi": 81,
                    "time": 153.8823850000001,
                    "velocity": 0.5511811023622047,
                    "duration": 1.4117650000000026
                },
                {
                    "name": "C#5",
                    "midi": 73,
                    "time": 155.29415000000012,
                    "velocity": 0.4645669291338583,
                    "duration": 0.7058825000000013
                },
                {
                    "name": "A5",
                    "midi": 81,
                    "time": 155.29415000000012,
                    "velocity": 0.5511811023622047,
                    "duration": 0.7058825000000013
                },
                {
                    "name": "A5",
                    "midi": 81,
                    "time": 156.00003250000012,
                    "velocity": 0.5984251968503937,
                    "duration": 0.7058825000000013
                },
                {
                    "name": "C#5",
                    "midi": 73,
                    "time": 156.00003250000012,
                    "velocity": 0.5039370078740157,
                    "duration": 0.7058825000000013
                },
                {
                    "name": "C#5",
                    "midi": 73,
                    "time": 156.70591500000012,
                    "velocity": 0.49606299212598426,
                    "duration": 2.352941666666652
                },
                {
                    "name": "G#5",
                    "midi": 80,
                    "time": 156.70591500000012,
                    "velocity": 0.5905511811023622,
                    "duration": 0.7058825000000013
                },
                {
                    "name": "A5",
                    "midi": 81,
                    "time": 157.41179750000012,
                    "velocity": 0.5826771653543307,
                    "duration": 1.0588237499999877
                },
                {
                    "name": "G#5",
                    "midi": 80,
                    "time": 158.4706212500001,
                    "velocity": 0.5905511811023622,
                    "duration": 0.35294124999998644
                },
                {
                    "name": "F#5",
                    "midi": 78,
                    "time": 158.8235625000001,
                    "velocity": 0.5748031496062992,
                    "duration": 0.9411766666667063
                },
                {
                    "name": "D#5",
                    "midi": 75,
                    "time": 159.05885666666677,
                    "velocity": 0.5669291338582677,
                    "duration": 0.23529416666667657
                },
                {
                    "name": "C#5",
                    "midi": 73,
                    "time": 159.29415083333345,
                    "velocity": 0.5511811023622047,
                    "duration": 0.23529416666667657
                },
                {
                    "name": "C5",
                    "midi": 72,
                    "time": 159.52944500000012,
                    "velocity": 0.5511811023622047,
                    "duration": 1.0588237500000446
                },
                {
                    "name": "E5",
                    "midi": 76,
                    "time": 159.7647391666668,
                    "velocity": 0.5511811023622047,
                    "duration": 0.23529416666667657
                },
                {
                    "name": "F#5",
                    "midi": 78,
                    "time": 160.00003333333348,
                    "velocity": 0.5905511811023622,
                    "duration": 0.23529416666667657
                },
                {
                    "name": "G#5",
                    "midi": 80,
                    "time": 160.23532750000015,
                    "velocity": 0.5905511811023622,
                    "duration": 0.17647062500000743
                },
                {
                    "name": "C5",
                    "midi": 72,
                    "time": 160.76473937500018,
                    "velocity": 0.48031496062992124,
                    "duration": 0.17647062500000743
                },
                {
                    "name": "D#5",
                    "midi": 75,
                    "time": 160.76473937500018,
                    "velocity": 0.5669291338582677,
                    "duration": 0.17647062500000743
                },
                {
                    "name": "D#5",
                    "midi": 75,
                    "time": 160.94121000000018,
                    "velocity": 0.5039370078740157,
                    "duration": 0.9411766666666779
                },
                {
                    "name": "F#5",
                    "midi": 78,
                    "time": 160.94121000000018,
                    "velocity": 0.5984251968503937,
                    "duration": 0.9411766666666779
                },
                {
                    "name": "C#5",
                    "midi": 73,
                    "time": 161.88238666666686,
                    "velocity": 0.4881889763779528,
                    "duration": 0.11764708333333829
                },
                {
                    "name": "E5",
                    "midi": 76,
                    "time": 161.88238666666686,
                    "velocity": 0.5748031496062992,
                    "duration": 0.11764708333333829
                },
                {
                    "name": "E5",
                    "midi": 76,
                    "time": 162.23532791666688,
                    "velocity": 0.4881889763779528,
                    "duration": 0.11764708333333829
                },
                {
                    "name": "C#6",
                    "midi": 85,
                    "time": 162.23532791666688,
                    "velocity": 0.5748031496062992,
                    "duration": 0.11764708333333829
                },
                {
                    "name": "E5",
                    "midi": 76,
                    "time": 162.3529750000002,
                    "velocity": 0.49606299212598426,
                    "duration": 0.23529416666667657
                },
                {
                    "name": "C#6",
                    "midi": 85,
                    "time": 162.3529750000002,
                    "velocity": 0.5905511811023622,
                    "duration": 0.23529416666667657
                },
                {
                    "name": "G#5",
                    "midi": 80,
                    "time": 162.5882691666669,
                    "velocity": 0.4881889763779528,
                    "duration": 0.23529416666667657
                },
                {
                    "name": "B5",
                    "midi": 83,
                    "time": 162.5882691666669,
                    "velocity": 0.5748031496062992,
                    "duration": 0.23529416666667657
                },
                {
                    "name": "F#5",
                    "midi": 78,
                    "time": 162.9412104166669,
                    "velocity": 0.4645669291338583,
                    "duration": 0.11764708333333829
                },
                {
                    "name": "A5",
                    "midi": 81,
                    "time": 162.9412104166669,
                    "velocity": 0.5511811023622047,
                    "duration": 0.11764708333333829
                },
                {
                    "name": "E5",
                    "midi": 76,
                    "time": 163.05885750000024,
                    "velocity": 0.5039370078740157,
                    "duration": 0.11764708333333829
                },
                {
                    "name": "G#5",
                    "midi": 80,
                    "time": 163.05885750000024,
                    "velocity": 0.5984251968503937,
                    "duration": 0.11764708333333829
                },
                {
                    "name": "G#4",
                    "midi": 68,
                    "time": 163.29415166666692,
                    "velocity": 0.44881889763779526,
                    "duration": 0.11764708333333829
                },
                {
                    "name": "G#5",
                    "midi": 80,
                    "time": 163.29415166666692,
                    "velocity": 0.5354330708661418,
                    "duration": 0.11764708333333829
                },
                {
                    "name": "A4",
                    "midi": 69,
                    "time": 163.5294458333336,
                    "velocity": 0.4566929133858268,
                    "duration": 0.11764708333333829
                },
                {
                    "name": "G#5",
                    "midi": 80,
                    "time": 163.5294458333336,
                    "velocity": 0.5433070866141733,
                    "duration": 0.11764708333333829
                },
                {
                    "name": "A#4",
                    "midi": 70,
                    "time": 163.76474000000027,
                    "velocity": 0.4566929133858268,
                    "duration": 0.11764708333333829
                },
                {
                    "name": "G#5",
                    "midi": 80,
                    "time": 163.76474000000027,
                    "velocity": 0.5511811023622047,
                    "duration": 0.11764708333333829
                },
                {
                    "name": "B4",
                    "midi": 71,
                    "time": 164.00003416666695,
                    "velocity": 0.4645669291338583,
                    "duration": 0.11764708333333829
                },
                {
                    "name": "G#5",
                    "midi": 80,
                    "time": 164.00003416666695,
                    "velocity": 0.5590551181102362,
                    "duration": 0.11764708333333829
                },
                {
                    "name": "C5",
                    "midi": 72,
                    "time": 164.23532833333363,
                    "velocity": 0.47244094488188976,
                    "duration": 0.11764708333333829
                },
                {
                    "name": "G#5",
                    "midi": 80,
                    "time": 164.23532833333363,
                    "velocity": 0.5669291338582677,
                    "duration": 0.11764708333333829
                },
                {
                    "name": "C#5",
                    "midi": 73,
                    "time": 164.4706225000003,
                    "velocity": 0.48031496062992124,
                    "duration": 0.11764708333333829
                },
                {
                    "name": "G#5",
                    "midi": 80,
                    "time": 164.4706225000003,
                    "velocity": 0.5748031496062992,
                    "duration": 0.11764708333333829
                },
                {
                    "name": "D5",
                    "midi": 74,
                    "time": 164.6117990000003,
                    "velocity": 0.48031496062992124,
                    "duration": 0.11764708333333829
                },
                {
                    "name": "G#5",
                    "midi": 80,
                    "time": 164.6117990000003,
                    "velocity": 0.5748031496062992,
                    "duration": 0.11764708333333829
                },
                {
                    "name": "D#5",
                    "midi": 75,
                    "time": 164.7529755000003,
                    "velocity": 0.49606299212598426,
                    "duration": 0.11764708333333829
                },
                {
                    "name": "G#5",
                    "midi": 80,
                    "time": 164.7529755000003,
                    "velocity": 0.5826771653543307,
                    "duration": 0.11764708333333829
                },
                {
                    "name": "E5",
                    "midi": 76,
                    "time": 164.8941520000003,
                    "velocity": 0.49606299212598426,
                    "duration": 0.11764708333333829
                },
                {
                    "name": "G#5",
                    "midi": 80,
                    "time": 164.8941520000003,
                    "velocity": 0.5826771653543307,
                    "duration": 0.11764708333333829
                },
                {
                    "name": "F5",
                    "midi": 77,
                    "time": 165.0353285000003,
                    "velocity": 0.5039370078740157,
                    "duration": 0.11764708333333829
                },
                {
                    "name": "G#5",
                    "midi": 80,
                    "time": 165.0353285000003,
                    "velocity": 0.5905511811023622,
                    "duration": 0.11764708333333829
                },
                {
                    "name": "G#5",
                    "midi": 80,
                    "time": 165.1765050000003,
                    "velocity": 0.6220472440944882,
                    "duration": 0.5294118749999939
                },
                {
                    "name": "F#5",
                    "midi": 78,
                    "time": 165.1765050000003,
                    "velocity": 0.5275590551181102,
                    "duration": 0.5294118749999939
                },
                {
                    "name": "B5",
                    "midi": 83,
                    "time": 165.7059168750003,
                    "velocity": 0.49606299212598426,
                    "duration": 0.17647062500000743
                },
                {
                    "name": "A5",
                    "midi": 81,
                    "time": 165.8823875000003,
                    "velocity": 0.6141732283464567,
                    "duration": 0.7058825000000013
                },
                {
                    "name": "F#5",
                    "midi": 78,
                    "time": 165.8823875000003,
                    "velocity": 0.5196850393700787,
                    "duration": 0.7058825000000013
                },
                {
                    "name": "G#5",
                    "midi": 80,
                    "time": 166.5882700000003,
                    "velocity": 0.6220472440944882,
                    "duration": 0.7058825000000013
                },
                {
                    "name": "F#5",
                    "midi": 78,
                    "time": 166.5882700000003,
                    "velocity": 0.5275590551181102,
                    "duration": 0.7058825000000013
                },
                {
                    "name": "D#6",
                    "midi": 87,
                    "time": 167.2941525000003,
                    "velocity": 0.6929133858267716,
                    "duration": 0.17647062500000743
                },
                {
                    "name": "F#5",
                    "midi": 78,
                    "time": 167.2941525000003,
                    "velocity": 0.5826771653543307,
                    "duration": 0.17647062500000743
                },
                {
                    "name": "E5",
                    "midi": 76,
                    "time": 168.0000350000003,
                    "velocity": 0.5433070866141733,
                    "duration": 0.7058825000000013
                },
                {
                    "name": "G#5",
                    "midi": 80,
                    "time": 168.0000350000003,
                    "velocity": 0.6377952755905512,
                    "duration": 0.7058825000000013
                },
                {
                    "name": "D#5",
                    "midi": 75,
                    "time": 168.7059175000003,
                    "velocity": 0.5669291338582677,
                    "duration": 0.7058825000000013
                },
                {
                    "name": "G#5",
                    "midi": 80,
                    "time": 168.7059175000003,
                    "velocity": 0.6692913385826772,
                    "duration": 0.7058825000000013
                },
                {
                    "name": "D#5",
                    "midi": 75,
                    "time": 169.4118000000003,
                    "velocity": 0.5905511811023622,
                    "duration": 2.117647500000004
                },
                {
                    "name": "G#5",
                    "midi": 80,
                    "time": 169.4118000000003,
                    "velocity": 0.7007874015748031,
                    "duration": 1.4117650000000026
                },
                {
                    "name": "F#5",
                    "midi": 78,
                    "time": 170.82356500000031,
                    "velocity": 0.6299212598425197,
                    "duration": 0.7058825000000013
                },
                {
                    "name": "C5",
                    "midi": 72,
                    "time": 172.23533000000032,
                    "velocity": 0.5039370078740157,
                    "duration": 0.7058825000000013
                },
                {
                    "name": "D#5",
                    "midi": 75,
                    "time": 172.23533000000032,
                    "velocity": 0.5039370078740157,
                    "duration": 0.7058825000000013
                },
                {
                    "name": "F#5",
                    "midi": 78,
                    "time": 172.23533000000032,
                    "velocity": 0.5984251968503937,
                    "duration": 0.7058825000000013
                },
                {
                    "name": "B4",
                    "midi": 71,
                    "time": 172.94121250000032,
                    "velocity": 0.5354330708661418,
                    "duration": 0.7058825000000013
                },
                {
                    "name": "D#5",
                    "midi": 75,
                    "time": 172.94121250000032,
                    "velocity": 0.5354330708661418,
                    "duration": 0.7058825000000013
                },
                {
                    "name": "F#5",
                    "midi": 78,
                    "time": 172.94121250000032,
                    "velocity": 0.6299212598425197,
                    "duration": 0.7058825000000013
                },
                {
                    "name": "A#4",
                    "midi": 70,
                    "time": 173.64709500000032,
                    "velocity": 0.5590551181102362,
                    "duration": 0.35294124999998644
                },
                {
                    "name": "D#5",
                    "midi": 75,
                    "time": 173.64709500000032,
                    "velocity": 0.5590551181102362,
                    "duration": 0.35294124999998644
                },
                {
                    "name": "F#5",
                    "midi": 78,
                    "time": 173.64709500000032,
                    "velocity": 0.6614173228346457,
                    "duration": 0.35294124999998644
                },
                {
                    "name": "F#5",
                    "midi": 78,
                    "time": 174.1765068750003,
                    "velocity": 0.6141732283464567,
                    "duration": 0.17647062500000743
                },
                {
                    "name": "F#6",
                    "midi": 90,
                    "time": 174.35297750000032,
                    "velocity": 0.7637795275590551,
                    "duration": 1.764706249999989
                },
                {
                    "name": "D6",
                    "midi": 86,
                    "time": 176.1176837500003,
                    "velocity": 0.6771653543307087,
                    "duration": 0.35294124999998644
                },
                {
                    "name": "D#6",
                    "midi": 87,
                    "time": 176.4706250000003,
                    "velocity": 0.6220472440944882,
                    "duration": 0.23529416666667657
                },
                {
                    "name": "A5",
                    "midi": 81,
                    "time": 176.70591916666697,
                    "velocity": 0.6062992125984252,
                    "duration": 0.23529416666667657
                },
                {
                    "name": "A#5",
                    "midi": 82,
                    "time": 176.94121333333365,
                    "velocity": 0.6062992125984252,
                    "duration": 0.23529416666667657
                },
                {
                    "name": "F5",
                    "midi": 77,
                    "time": 177.17650750000033,
                    "velocity": 0.5984251968503937,
                    "duration": 0.23529416666667657
                },
                {
                    "name": "F#5",
                    "midi": 78,
                    "time": 177.411801666667,
                    "velocity": 0.5905511811023622,
                    "duration": 0.23529416666667657
                },
                {
                    "name": "D5",
                    "midi": 74,
                    "time": 177.64709583333368,
                    "velocity": 0.5905511811023622,
                    "duration": 0.23529416666667657
                },
                {
                    "name": "A4",
                    "midi": 69,
                    "time": 177.88239000000036,
                    "velocity": 0.5590551181102362,
                    "duration": 0.35294124999998644
                },
                {
                    "name": "D#5",
                    "midi": 75,
                    "time": 177.88239000000036,
                    "velocity": 0.5590551181102362,
                    "duration": 0.35294124999998644
                },
                {
                    "name": "F#5",
                    "midi": 78,
                    "time": 177.88239000000036,
                    "velocity": 0.6614173228346457,
                    "duration": 0.35294124999998644
                },
                {
                    "name": "F#5",
                    "midi": 78,
                    "time": 178.41180187500035,
                    "velocity": 0.6141732283464567,
                    "duration": 0.17647062500000743
                },
                {
                    "name": "F#6",
                    "midi": 90,
                    "time": 178.58827250000036,
                    "velocity": 0.7637795275590551,
                    "duration": 1.764706249999989
                },
                {
                    "name": "D6",
                    "midi": 86,
                    "time": 180.35297875000035,
                    "velocity": 0.6771653543307087,
                    "duration": 0.35294124999998644
                },
                {
                    "name": "D#6",
                    "midi": 87,
                    "time": 180.70592000000033,
                    "velocity": 0.6220472440944882,
                    "duration": 0.23529416666667657
                },
                {
                    "name": "G#5",
                    "midi": 80,
                    "time": 180.941214166667,
                    "velocity": 0.6062992125984252,
                    "duration": 0.23529416666667657
                },
                {
                    "name": "A5",
                    "midi": 81,
                    "time": 181.1765083333337,
                    "velocity": 0.6062992125984252,
                    "duration": 0.23529416666667657
                },
                {
                    "name": "F5",
                    "midi": 77,
                    "time": 181.41180250000036,
                    "velocity": 0.5984251968503937,
                    "duration": 0.23529416666667657
                },
                {
                    "name": "F#5",
                    "midi": 78,
                    "time": 181.64709666666704,
                    "velocity": 0.5905511811023622,
                    "duration": 0.23529416666667657
                },
                {
                    "name": "D5",
                    "midi": 74,
                    "time": 181.88239083333372,
                    "velocity": 0.5905511811023622,
                    "duration": 0.23529416666667657
                },
                {
                    "name": "A4",
                    "midi": 69,
                    "time": 182.1176850000004,
                    "velocity": 0.5590551181102362,
                    "duration": 0.35294124999998644
                },
                {
                    "name": "D#5",
                    "midi": 75,
                    "time": 182.1176850000004,
                    "velocity": 0.5590551181102362,
                    "duration": 0.35294124999998644
                },
                {
                    "name": "F#5",
                    "midi": 78,
                    "time": 182.1176850000004,
                    "velocity": 0.6614173228346457,
                    "duration": 0.35294124999998644
                },
                {
                    "name": "F#5",
                    "midi": 78,
                    "time": 182.6470968750004,
                    "velocity": 0.6141732283464567,
                    "duration": 0.17647062500000743
                },
                {
                    "name": "F#6",
                    "midi": 90,
                    "time": 182.8235675000004,
                    "velocity": 0.7637795275590551,
                    "duration": 1.4117650000000026
                },
                {
                    "name": "A4",
                    "midi": 69,
                    "time": 184.2353325000004,
                    "velocity": 0.5590551181102362,
                    "duration": 0.35294124999998644
                },
                {
                    "name": "C#5",
                    "midi": 73,
                    "time": 184.2353325000004,
                    "velocity": 0.5590551181102362,
                    "duration": 0.35294124999998644
                },
                {
                    "name": "F#5",
                    "midi": 78,
                    "time": 184.2353325000004,
                    "velocity": 0.6614173228346457,
                    "duration": 0.35294124999998644
                },
                {
                    "name": "F#5",
                    "midi": 78,
                    "time": 184.7647443750004,
                    "velocity": 0.6141732283464567,
                    "duration": 0.17647062500000743
                },
                {
                    "name": "F#6",
                    "midi": 90,
                    "time": 184.9412150000004,
                    "velocity": 0.7637795275590551,
                    "duration": 0.7058825000000013
                },
                {
                    "name": "A4",
                    "midi": 69,
                    "time": 185.6470975000004,
                    "velocity": 0.5590551181102362,
                    "duration": 0.35294124999998644
                },
                {
                    "name": "C5",
                    "midi": 72,
                    "time": 185.6470975000004,
                    "velocity": 0.5590551181102362,
                    "duration": 0.35294124999998644
                },
                {
                    "name": "F#5",
                    "midi": 78,
                    "time": 185.6470975000004,
                    "velocity": 0.6614173228346457,
                    "duration": 0.35294124999998644
                },
                {
                    "name": "F#5",
                    "midi": 78,
                    "time": 186.1765093750004,
                    "velocity": 0.6141732283464567,
                    "duration": 0.17647062500000743
                },
                {
                    "name": "F#6",
                    "midi": 90,
                    "time": 186.3529800000004,
                    "velocity": 0.7637795275590551,
                    "duration": 0.9411766666666779
                },
                {
                    "name": "F6",
                    "midi": 89,
                    "time": 187.29415666666708,
                    "velocity": 0.6771653543307087,
                    "duration": 0.23529416666667657
                },
                {
                    "name": "E6",
                    "midi": 88,
                    "time": 187.52945083333375,
                    "velocity": 0.6614173228346457,
                    "duration": 0.23529416666667657
                },
                {
                    "name": "F#5",
                    "midi": 78,
                    "time": 187.76474500000043,
                    "velocity": 0.7007874015748031,
                    "duration": 0.23529416666667657
                },
                {
                    "name": "D#6",
                    "midi": 87,
                    "time": 188.0000391666671,
                    "velocity": 0.6456692913385826,
                    "duration": 0.23529416666667657
                },
                {
                    "name": "D6",
                    "midi": 86,
                    "time": 188.23533333333378,
                    "velocity": 0.6456692913385826,
                    "duration": 0.23529416666667657
                },
                {
                    "name": "C#6",
                    "midi": 85,
                    "time": 188.47062750000046,
                    "velocity": 0.6850393700787402,
                    "duration": 0.23529416666667657
                },
                {
                    "name": "D#5",
                    "midi": 75,
                    "time": 188.70592166666714,
                    "velocity": 0.6220472440944882,
                    "duration": 0.23529416666667657
                },
                {
                    "name": "C6",
                    "midi": 84,
                    "time": 188.9412158333338,
                    "velocity": 0.6220472440944882,
                    "duration": 0.23529416666667657
                },
                {
                    "name": "A#5",
                    "midi": 82,
                    "time": 189.1765100000005,
                    "velocity": 0.6535433070866141,
                    "duration": 0.23529416666667657
                },
                {
                    "name": "A5",
                    "midi": 81,
                    "time": 189.41180416666717,
                    "velocity": 0.6062992125984252,
                    "duration": 0.23529416666667657
                },
                {
                    "name": "C5",
                    "midi": 72,
                    "time": 189.64709833333384,
                    "velocity": 0.5826771653543307,
                    "duration": 0.23529416666667657
                },
                {
                    "name": "G#5",
                    "midi": 80,
                    "time": 189.88239250000052,
                    "velocity": 0.6377952755905512,
                    "duration": 0.23529416666667657
                },
                {
                    "name": "G5",
                    "midi": 79,
                    "time": 190.1176866666672,
                    "velocity": 0.5905511811023622,
                    "duration": 0.23529416666667657
                },
                {
                    "name": "F#5",
                    "midi": 78,
                    "time": 190.35298083333387,
                    "velocity": 0.5748031496062992,
                    "duration": 0.23529416666667657
                },
                {
                    "name": "F5",
                    "midi": 77,
                    "time": 190.58827500000055,
                    "velocity": 0.6220472440944882,
                    "duration": 2.117647500000004
                },
                {
                    "name": "D#5",
                    "midi": 75,
                    "time": 192.70592250000055,
                    "velocity": 0.6456692913385826,
                    "duration": 0.7058825000000013
                },
                {
                    "name": "C#5",
                    "midi": 73,
                    "time": 193.41180500000056,
                    "velocity": 0.6062992125984252,
                    "duration": 1.0588237499999877
                },
                {
                    "name": "F4",
                    "midi": 65,
                    "time": 194.47062875000054,
                    "velocity": 0.5826771653543307,
                    "duration": 0.35294124999998644
                },
                {
                    "name": "G#4",
                    "midi": 68,
                    "time": 194.82357000000053,
                    "velocity": 0.6377952755905512,
                    "duration": 2.823530000000005
                },
                {
                    "name": "C#5",
                    "midi": 73,
                    "time": 197.64710000000053,
                    "velocity": 0.6377952755905512,
                    "duration": 0.7058825000000013
                },
                {
                    "name": "F5",
                    "midi": 77,
                    "time": 198.35298250000054,
                    "velocity": 0.6692913385826772,
                    "duration": 0.7058825000000013
                },
                {
                    "name": "A#5",
                    "midi": 82,
                    "time": 199.05886500000054,
                    "velocity": 0.7480314960629921,
                    "duration": 2.4705887499999903
                },
                {
                    "name": "G#5",
                    "midi": 80,
                    "time": 201.52945375000053,
                    "velocity": 0.5433070866141733,
                    "duration": 0.35294124999998644
                },
                {
                    "name": "E5",
                    "midi": 76,
                    "time": 201.8823950000005,
                    "velocity": 0.5984251968503937,
                    "duration": 0.35294124999998644
                },
                {
                    "name": "F5",
                    "midi": 77,
                    "time": 202.2353362500005,
                    "velocity": 0.5511811023622047,
                    "duration": 0.35294124999998644
                },
                {
                    "name": "C5",
                    "midi": 72,
                    "time": 202.5882775000005,
                    "velocity": 0.5905511811023622,
                    "duration": 0.35294124999998644
                },
                {
                    "name": "C#5",
                    "midi": 73,
                    "time": 202.94121875000047,
                    "velocity": 0.5433070866141733,
                    "duration": 0.35294124999998644
                },
                {
                    "name": "B4",
                    "midi": 71,
                    "time": 203.29416000000046,
                    "velocity": 0.6220472440944882,
                    "duration": 4.235295000000008
                },
                {
                    "name": "B5",
                    "midi": 83,
                    "time": 207.52945500000047,
                    "velocity": 0.48031496062992124,
                    "duration": 2.3529416666666805
                },
                {
                    "name": "G5",
                    "midi": 79,
                    "time": 209.88239666666715,
                    "velocity": 0.3937007874015748,
                    "duration": 0.23529416666667657
                },
                {
                    "name": "G#5",
                    "midi": 80,
                    "time": 210.11769083333382,
                    "velocity": 0.3937007874015748,
                    "duration": 0.23529416666667657
                },
                {
                    "name": "G5",
                    "midi": 79,
                    "time": 210.3529850000005,
                    "velocity": 0.41732283464566927,
                    "duration": 0.23529416666667657
                },
                {
                    "name": "F#5",
                    "midi": 78,
                    "time": 210.58827916666718,
                    "velocity": 0.3937007874015748,
                    "duration": 0.23529416666667657
                },
                {
                    "name": "G5",
                    "midi": 79,
                    "time": 210.82357333333385,
                    "velocity": 0.3937007874015748,
                    "duration": 0.23529416666667657
                },
                {
                    "name": "A#5",
                    "midi": 82,
                    "time": 211.05886750000053,
                    "velocity": 0.4409448818897638,
                    "duration": 0.23529416666667657
                },
                {
                    "name": "G#5",
                    "midi": 80,
                    "time": 211.2941616666672,
                    "velocity": 0.4094488188976378,
                    "duration": 0.23529416666667657
                },
                {
                    "name": "F5",
                    "midi": 77,
                    "time": 211.52945583333388,
                    "velocity": 0.3937007874015748,
                    "duration": 0.23529416666667657
                },
                {
                    "name": "D#5",
                    "midi": 75,
                    "time": 211.76475000000056,
                    "velocity": 0.4015748031496063,
                    "duration": 2.117647500000004
                },
                {
                    "name": "C#5",
                    "midi": 73,
                    "time": 213.88239750000056,
                    "velocity": 0.3700787401574803,
                    "duration": 0.08823531250001793
                },
                {
                    "name": "D#5",
                    "midi": 75,
                    "time": 213.9559269270839,
                    "velocity": 0.33858267716535434,
                    "duration": 0.08823531250001793
                },
                {
                    "name": "C#5",
                    "midi": 73,
                    "time": 214.02945635416725,
                    "velocity": 0.3700787401574803,
                    "duration": 0.08823531250001793
                },
                {
                    "name": "D#5",
                    "midi": 75,
                    "time": 214.1029857812506,
                    "velocity": 0.33858267716535434,
                    "duration": 0.08823531250001793
                },
                {
                    "name": "C#5",
                    "midi": 73,
                    "time": 214.17651520833394,
                    "velocity": 0.3700787401574803,
                    "duration": 0.0882353124999895
                },
                {
                    "name": "D#5",
                    "midi": 75,
                    "time": 214.2353387500006,
                    "velocity": 0.33858267716535434,
                    "duration": 0.08823531249996108
                },
                {
                    "name": "C#5",
                    "midi": 73,
                    "time": 214.29416229166725,
                    "velocity": 0.3700787401574803,
                    "duration": 0.08823531249996108
                },
                {
                    "name": "D#5",
                    "midi": 75,
                    "time": 214.3529858333339,
                    "velocity": 0.33858267716535434,
                    "duration": 0.08823531249996108
                },
                {
                    "name": "C#5",
                    "midi": 73,
                    "time": 214.41180937500053,
                    "velocity": 0.3700787401574803,
                    "duration": 0.08823531249996108
                },
                {
                    "name": "D#5",
                    "midi": 75,
                    "time": 214.47063291666717,
                    "velocity": 0.33858267716535434,
                    "duration": 0.08823531249996108
                },
                {
                    "name": "C#5",
                    "midi": 73,
                    "time": 214.5294564583338,
                    "velocity": 0.3700787401574803,
                    "duration": 0.08823531249996108
                },
                {
                    "name": "C5",
                    "midi": 72,
                    "time": 214.58828000000045,
                    "velocity": 0.3700787401574803,
                    "duration": 0.11764708333330987
                },
                {
                    "name": "C#5",
                    "midi": 73,
                    "time": 214.70592708333376,
                    "velocity": 0.36220472440944884,
                    "duration": 0.11764708333333829
                },
                {
                    "name": "D#5",
                    "midi": 75,
                    "time": 214.8235741666671,
                    "velocity": 0.3700787401574803,
                    "duration": 0.11764708333333829
                },
                {
                    "name": "F5",
                    "midi": 77,
                    "time": 214.94122125000044,
                    "velocity": 0.3779527559055118,
                    "duration": 0.11764708333333829
                },
                {
                    "name": "F#5",
                    "midi": 78,
                    "time": 215.05886833333378,
                    "velocity": 0.3858267716535433,
                    "duration": 0.11764708333333829
                },
                {
                    "name": "G#5",
                    "midi": 80,
                    "time": 215.17651541666712,
                    "velocity": 0.3937007874015748,
                    "duration": 0.11764708333333829
                },
                {
                    "name": "A#5",
                    "midi": 82,
                    "time": 215.29416250000045,
                    "velocity": 0.4015748031496063,
                    "duration": 0.11764708333333829
                },
                {
                    "name": "B5",
                    "midi": 83,
                    "time": 215.4118095833338,
                    "velocity": 0.4094488188976378,
                    "duration": 0.11764708333333829
                },
                {
                    "name": "C#6",
                    "midi": 85,
                    "time": 215.52945666666713,
                    "velocity": 0.41732283464566927,
                    "duration": 0.11764708333333829
                },
                {
                    "name": "D#6",
                    "midi": 87,
                    "time": 215.64710375000047,
                    "velocity": 0.4251968503937008,
                    "duration": 0.11764708333333829
                },
                {
                    "name": "F6",
                    "midi": 89,
                    "time": 215.7647508333338,
                    "velocity": 0.4330708661417323,
                    "duration": 0.11764708333333829
                },
                {
                    "name": "F#6",
                    "midi": 90,
                    "time": 215.88239791666714,
                    "velocity": 0.4330708661417323,
                    "duration": 0.11764708333333829
                },
                {
                    "name": "A#6",
                    "midi": 94,
                    "time": 216.00004500000048,
                    "velocity": 0.44881889763779526,
                    "duration": 0.17647062500000743
                },
                {
                    "name": "G#6",
                    "midi": 92,
                    "time": 216.1765156250005,
                    "velocity": 0.4330708661417323,
                    "duration": 0.17647062500000743
                },
                {
                    "name": "B6",
                    "midi": 95,
                    "time": 216.3529862500005,
                    "velocity": 0.4094488188976378,
                    "duration": 0.17647062500000743
                },
                {
                    "name": "G6",
                    "midi": 91,
                    "time": 216.5294568750005,
                    "velocity": 0.4094488188976378,
                    "duration": 0.17647062500000743
                },
                {
                    "name": "G#6",
                    "midi": 92,
                    "time": 216.7059275000005,
                    "velocity": 0.4094488188976378,
                    "duration": 0.17647062500000743
                },
                {
                    "name": "G6",
                    "midi": 91,
                    "time": 216.88239812500052,
                    "velocity": 0.4094488188976378,
                    "duration": 0.17647062500000743
                },
                {
                    "name": "B6",
                    "midi": 95,
                    "time": 217.05886875000053,
                    "velocity": 0.4094488188976378,
                    "duration": 0.17647062500000743
                },
                {
                    "name": "F#6",
                    "midi": 90,
                    "time": 217.23533937500054,
                    "velocity": 0.4094488188976378,
                    "duration": 0.17647062500000743
                },
                {
                    "name": "G6",
                    "midi": 91,
                    "time": 217.41181000000054,
                    "velocity": 0.3858267716535433,
                    "duration": 0.17647062500000743
                },
                {
                    "name": "F#6",
                    "midi": 90,
                    "time": 217.58828062500055,
                    "velocity": 0.3858267716535433,
                    "duration": 0.17647062500000743
                },
                {
                    "name": "B6",
                    "midi": 95,
                    "time": 217.76475125000056,
                    "velocity": 0.3937007874015748,
                    "duration": 0.17647062500000743
                },
                {
                    "name": "F6",
                    "midi": 89,
                    "time": 217.94122187500056,
                    "velocity": 0.3937007874015748,
                    "duration": 0.17647062500000743
                },
                {
                    "name": "F#6",
                    "midi": 90,
                    "time": 218.11769250000057,
                    "velocity": 0.4015748031496063,
                    "duration": 0.17647062500000743
                },
                {
                    "name": "F6",
                    "midi": 89,
                    "time": 218.29416312500058,
                    "velocity": 0.4094488188976378,
                    "duration": 0.17647062500000743
                },
                {
                    "name": "B6",
                    "midi": 95,
                    "time": 218.4706337500006,
                    "velocity": 0.4094488188976378,
                    "duration": 0.17647062500000743
                },
                {
                    "name": "E6",
                    "midi": 88,
                    "time": 218.6471043750006,
                    "velocity": 0.41732283464566927,
                    "duration": 0.17647062500000743
                },
                {
                    "name": "F6",
                    "midi": 89,
                    "time": 218.8235750000006,
                    "velocity": 0.41732283464566927,
                    "duration": 0.17647062500000743
                },
                {
                    "name": "E6",
                    "midi": 88,
                    "time": 219.0000456250006,
                    "velocity": 0.4251968503937008,
                    "duration": 0.17647062500000743
                },
                {
                    "name": "B6",
                    "midi": 95,
                    "time": 219.17651625000062,
                    "velocity": 0.4330708661417323,
                    "duration": 0.17647062500000743
                },
                {
                    "name": "D#6",
                    "midi": 87,
                    "time": 219.35298687500062,
                    "velocity": 0.4330708661417323,
                    "duration": 0.17647062500000743
                },
                {
                    "name": "E6",
                    "midi": 88,
                    "time": 219.52945750000063,
                    "velocity": 0.4409448818897638,
                    "duration": 0.17647062500000743
                },
                {
                    "name": "D#6",
                    "midi": 87,
                    "time": 219.70592812500064,
                    "velocity": 0.44881889763779526,
                    "duration": 0.17647062500000743
                },
                {
                    "name": "B6",
                    "midi": 95,
                    "time": 219.88239875000065,
                    "velocity": 0.44881889763779526,
                    "duration": 0.17647062500000743
                },
                {
                    "name": "D6",
                    "midi": 86,
                    "time": 220.05886937500065,
                    "velocity": 0.44881889763779526,
                    "duration": 0.17647062500000743
                },
                {
                    "name": "C#6",
                    "midi": 85,
                    "time": 220.23534000000066,
                    "velocity": 0.44881889763779526,
                    "duration": 0.17647062500000743
                },
                {
                    "name": "D#6",
                    "midi": 87,
                    "time": 220.41181062500067,
                    "velocity": 0.4566929133858268,
                    "duration": 0.17647062500000743
                },
                {
                    "name": "C#6",
                    "midi": 85,
                    "time": 220.58828125000068,
                    "velocity": 0.4645669291338583,
                    "duration": 0.17647062500000743
                },
                {
                    "name": "C6",
                    "midi": 84,
                    "time": 220.76475187500068,
                    "velocity": 0.4645669291338583,
                    "duration": 0.17647062500000743
                },
                {
                    "name": "C#6",
                    "midi": 85,
                    "time": 220.9412225000007,
                    "velocity": 0.47244094488188976,
                    "duration": 0.17647062500000743
                },
                {
                    "name": "D#6",
                    "midi": 87,
                    "time": 221.1176931250007,
                    "velocity": 0.48031496062992124,
                    "duration": 0.17647062500000743
                },
                {
                    "name": "F6",
                    "midi": 89,
                    "time": 221.2941637500007,
                    "velocity": 0.48031496062992124,
                    "duration": 0.17647062500000743
                },
                {
                    "name": "F#6",
                    "midi": 90,
                    "time": 221.4706343750007,
                    "velocity": 0.4881889763779528,
                    "duration": 0.17647062500000743
                },
                {
                    "name": "G#6",
                    "midi": 92,
                    "time": 221.64710500000072,
                    "velocity": 0.4881889763779528,
                    "duration": 0.17647062500000743
                },
                {
                    "name": "A#6",
                    "midi": 94,
                    "time": 221.82357562500073,
                    "velocity": 0.4881889763779528,
                    "duration": 0.17647062500000743
                },
                {
                    "name": "B6",
                    "midi": 95,
                    "time": 222.00004625000074,
                    "velocity": 0.5039370078740157,
                    "duration": 0.17647062500000743
                },
                {
                    "name": "C#7",
                    "midi": 97,
                    "time": 222.17651687500074,
                    "velocity": 0.5196850393700787,
                    "duration": 0.17647062500000743
                },
                {
                    "name": "F7",
                    "midi": 101,
                    "time": 222.35298750000075,
                    "velocity": 0.5118110236220472,
                    "duration": 0.17647062500000743
                },
                {
                    "name": "D#7",
                    "midi": 99,
                    "time": 222.52945812500076,
                    "velocity": 0.5039370078740157,
                    "duration": 0.17647062500000743
                },
                {
                    "name": "C#7",
                    "midi": 97,
                    "time": 222.70592875000077,
                    "velocity": 0.4881889763779528,
                    "duration": 0.17647062500000743
                },
                {
                    "name": "B6",
                    "midi": 95,
                    "time": 222.88239937500077,
                    "velocity": 0.48031496062992124,
                    "duration": 0.17647062500000743
                },
                {
                    "name": "G#6",
                    "midi": 92,
                    "time": 223.05887000000078,
                    "velocity": 0.4645669291338583,
                    "duration": 0.17647062500000743
                },
                {
                    "name": "F6",
                    "midi": 89,
                    "time": 223.2353406250008,
                    "velocity": 0.4566929133858268,
                    "duration": 0.17647062500000743
                },
                {
                    "name": "C#6",
                    "midi": 85,
                    "time": 223.4118112500008,
                    "velocity": 0.44881889763779526,
                    "duration": 0.17647062500000743
                },
                {
                    "name": "B5",
                    "midi": 83,
                    "time": 223.5882818750008,
                    "velocity": 0.4409448818897638,
                    "duration": 0.17647062500000743
                },
                {
                    "name": "G#5",
                    "midi": 80,
                    "time": 223.7647525000008,
                    "velocity": 0.4251968503937008,
                    "duration": 0.17647062500000743
                },
                {
                    "name": "F5",
                    "midi": 77,
                    "time": 223.94122312500082,
                    "velocity": 0.41732283464566927,
                    "duration": 0.17647062500000743
                },
                {
                    "name": "C#5",
                    "midi": 73,
                    "time": 224.11769375000083,
                    "velocity": 0.4015748031496063,
                    "duration": 0.17647062500000743
                },
                {
                    "name": "B4",
                    "midi": 71,
                    "time": 224.29416437500083,
                    "velocity": 0.3937007874015748,
                    "duration": 0.17647062500000743
                },
                {
                    "name": "A#4",
                    "midi": 70,
                    "time": 224.47063500000084,
                    "velocity": 0.41732283464566927,
                    "duration": 1.0588237499999877
                },
                {
                    "name": "A4",
                    "midi": 69,
                    "time": 225.52945875000083,
                    "velocity": 0.3779527559055118,
                    "duration": 0.17647062500000743
                },
                {
                    "name": "A#4",
                    "midi": 70,
                    "time": 225.70592937500084,
                    "velocity": 0.3937007874015748,
                    "duration": 0.17647062500000743
                },
                {
                    "name": "B4",
                    "midi": 71,
                    "time": 225.88240000000084,
                    "velocity": 0.41732283464566927,
                    "duration": 0.17647062500000743
                },
                {
                    "name": "A#4",
                    "midi": 70,
                    "time": 226.05887062500085,
                    "velocity": 0.3937007874015748,
                    "duration": 0.17647062500000743
                },
                {
                    "name": "C#5",
                    "midi": 73,
                    "time": 226.23534125000086,
                    "velocity": 0.4094488188976378,
                    "duration": 0.11764708333333829
                },
                {
                    "name": "B4",
                    "midi": 71,
                    "time": 226.3529883333342,
                    "velocity": 0.3937007874015748,
                    "duration": 0.11764708333333829
                },
                {
                    "name": "A#4",
                    "midi": 70,
                    "time": 226.47063541666753,
                    "velocity": 0.3779527559055118,
                    "duration": 0.11764708333333829
                },
                {
                    "name": "A#4",
                    "midi": 70,
                    "time": 226.58828250000087,
                    "velocity": 0.3937007874015748,
                    "duration": 1.4117650000000026
                },
                {
                    "name": "A#5",
                    "midi": 82,
                    "time": 228.00004750000087,
                    "velocity": 0.4251968503937008,
                    "duration": 1.4117650000000026
                },
                {
                    "name": "F#5",
                    "midi": 78,
                    "time": 228.70593000000088,
                    "velocity": 0.4645669291338583,
                    "duration": 0.7058825000000013
                },
                {
                    "name": "B5",
                    "midi": 83,
                    "time": 229.41181250000088,
                    "velocity": 0.48031496062992124,
                    "duration": 0.7058825000000013
                },
                {
                    "name": "G#5",
                    "midi": 80,
                    "time": 229.41181250000088,
                    "velocity": 0.4330708661417323,
                    "duration": 0.7058825000000013
                },
                {
                    "name": "D#5",
                    "midi": 75,
                    "time": 230.11769500000088,
                    "velocity": 0.4015748031496063,
                    "duration": 0.5294118749999939
                },
                {
                    "name": "F#5",
                    "midi": 78,
                    "time": 230.11769500000088,
                    "velocity": 0.48031496062992124,
                    "duration": 0.5294118749999939
                },
                {
                    "name": "D#5",
                    "midi": 75,
                    "time": 230.64710687500087,
                    "velocity": 0.3937007874015748,
                    "duration": 0.17647062500000743
                },
                {
                    "name": "F#5",
                    "midi": 78,
                    "time": 230.64710687500087,
                    "velocity": 0.4645669291338583,
                    "duration": 0.17647062500000743
                },
                {
                    "name": "F#5",
                    "midi": 78,
                    "time": 230.82357750000088,
                    "velocity": 0.4409448818897638,
                    "duration": 0.35294124999998644
                },
                {
                    "name": "A#5",
                    "midi": 82,
                    "time": 230.82357750000088,
                    "velocity": 0.5196850393700787,
                    "duration": 0.35294124999998644
                },
                {
                    "name": "G#5",
                    "midi": 80,
                    "time": 231.35298937500087,
                    "velocity": 0.47244094488188976,
                    "duration": 0.17647062500000743
                },
                {
                    "name": "F5",
                    "midi": 77,
                    "time": 231.35298937500087,
                    "velocity": 0.4015748031496063,
                    "duration": 0.17647062500000743
                },
                {
                    "name": "G#5",
                    "midi": 80,
                    "time": 231.52946000000088,
                    "velocity": 0.4566929133858268,
                    "duration": 0.058823541666669144
                },
                {
                    "name": "F5",
                    "midi": 77,
                    "time": 231.52946000000088,
                    "velocity": 0.4566929133858268,
                    "duration": 0.058823541666669144
                },
                {
                    "name": "A#5",
                    "midi": 82,
                    "time": 231.58828354166755,
                    "velocity": 0.4094488188976378,
                    "duration": 0.058823541666669144
                },
                {
                    "name": "F#5",
                    "midi": 78,
                    "time": 231.58828354166755,
                    "velocity": 0.4094488188976378,
                    "duration": 0.058823541666669144
                },
                {
                    "name": "G#5",
                    "midi": 80,
                    "time": 231.64710708333422,
                    "velocity": 0.44881889763779526,
                    "duration": 0.11764708333333829
                },
                {
                    "name": "F5",
                    "midi": 77,
                    "time": 231.64710708333422,
                    "velocity": 0.44881889763779526,
                    "duration": 0.11764708333333829
                },
                {
                    "name": "D#5",
                    "midi": 75,
                    "time": 231.76475416666756,
                    "velocity": 0.3937007874015748,
                    "duration": 0.23529416666667657
                },
                {
                    "name": "F#5",
                    "midi": 78,
                    "time": 231.76475416666756,
                    "velocity": 0.4645669291338583,
                    "duration": 0.23529416666667657
                },
                {
                    "name": "F5",
                    "midi": 77,
                    "time": 232.00004833333423,
                    "velocity": 0.4015748031496063,
                    "duration": 0.23529416666667657
                },
                {
                    "name": "G#5",
                    "midi": 80,
                    "time": 232.00004833333423,
                    "velocity": 0.47244094488188976,
                    "duration": 0.23529416666667657
                },
                {
                    "name": "A#5",
                    "midi": 82,
                    "time": 232.2353425000009,
                    "velocity": 0.49606299212598426,
                    "duration": 0.23529416666667657
                },
                {
                    "name": "F#5",
                    "midi": 78,
                    "time": 232.2353425000009,
                    "velocity": 0.4251968503937008,
                    "duration": 0.11764708333333829
                },
                {
                    "name": "D5",
                    "midi": 74,
                    "time": 232.82357791666757,
                    "velocity": 0.4330708661417323,
                    "duration": 0.11764708333333829
                },
                {
                    "name": "F5",
                    "midi": 77,
                    "time": 232.82357791666757,
                    "velocity": 0.5118110236220472,
                    "duration": 0.11764708333333829
                },
                {
                    "name": "G#5",
                    "midi": 80,
                    "time": 232.9412250000009,
                    "velocity": 0.4881889763779528,
                    "duration": 0.7058825000000013
                },
                {
                    "name": "F5",
                    "midi": 77,
                    "time": 232.9412250000009,
                    "velocity": 0.41732283464566927,
                    "duration": 0.7058825000000013
                },
                {
                    "name": "F#5",
                    "midi": 78,
                    "time": 233.6471075000009,
                    "velocity": 0.44881889763779526,
                    "duration": 0.35294124999998644
                },
                {
                    "name": "D#5",
                    "midi": 75,
                    "time": 233.6471075000009,
                    "velocity": 0.44881889763779526,
                    "duration": 0.35294124999998644
                },
                {
                    "name": "F#5",
                    "midi": 78,
                    "time": 234.1765193750009,
                    "velocity": 0.4409448818897638,
                    "duration": 0.17647062500000743
                },
                {
                    "name": "D#6",
                    "midi": 87,
                    "time": 234.1765193750009,
                    "velocity": 0.5196850393700787,
                    "duration": 0.17647062500000743
                },
                {
                    "name": "F#5",
                    "midi": 78,
                    "time": 234.35299000000091,
                    "velocity": 0.4330708661417323,
                    "duration": 0.23529416666667657
                },
                {
                    "name": "D#6",
                    "midi": 87,
                    "time": 234.35299000000091,
                    "velocity": 0.5118110236220472,
                    "duration": 0.23529416666667657
                },
                {
                    "name": "F5",
                    "midi": 77,
                    "time": 234.5882841666676,
                    "velocity": 0.4094488188976378,
                    "duration": 0.23529416666667657
                },
                {
                    "name": "C#6",
                    "midi": 85,
                    "time": 234.5882841666676,
                    "velocity": 0.48031496062992124,
                    "duration": 0.23529416666667657
                },
                {
                    "name": "D#5",
                    "midi": 75,
                    "time": 234.82357833333427,
                    "velocity": 0.4094488188976378,
                    "duration": 0.23529416666667657
                },
                {
                    "name": "B5",
                    "midi": 83,
                    "time": 234.82357833333427,
                    "velocity": 0.48031496062992124,
                    "duration": 0.23529416666667657
                },
                {
                    "name": "D5",
                    "midi": 74,
                    "time": 235.05887250000094,
                    "velocity": 0.44881889763779526,
                    "duration": 0.23529416666667657
                },
                {
                    "name": "A#5",
                    "midi": 82,
                    "time": 235.05887250000094,
                    "velocity": 0.5354330708661418,
                    "duration": 0.23529416666667657
                },
                {
                    "name": "A#4",
                    "midi": 70,
                    "time": 235.29416666666762,
                    "velocity": 0.3858267716535433,
                    "duration": 0.11764708333333829
                },
                {
                    "name": "A#5",
                    "midi": 82,
                    "time": 235.29416666666762,
                    "velocity": 0.4566929133858268,
                    "duration": 0.11764708333333829
                },
                {
                    "name": "B4",
                    "midi": 71,
                    "time": 235.5294608333343,
                    "velocity": 0.3937007874015748,
                    "duration": 0.11764708333333829
                },
                {
                    "name": "A#5",
                    "midi": 82,
                    "time": 235.5294608333343,
                    "velocity": 0.47244094488188976,
                    "duration": 0.11764708333333829
                },
                {
                    "name": "C5",
                    "midi": 72,
                    "time": 235.76475500000097,
                    "velocity": 0.4094488188976378,
                    "duration": 0.11764708333333829
                },
                {
                    "name": "A#5",
                    "midi": 82,
                    "time": 235.76475500000097,
                    "velocity": 0.4881889763779528,
                    "duration": 0.11764708333333829
                },
                {
                    "name": "C#5",
                    "midi": 73,
                    "time": 236.00004916666765,
                    "velocity": 0.41732283464566927,
                    "duration": 0.11764708333333829
                },
                {
                    "name": "A#5",
                    "midi": 82,
                    "time": 236.00004916666765,
                    "velocity": 0.49606299212598426,
                    "duration": 0.11764708333333829
                },
                {
                    "name": "D5",
                    "midi": 74,
                    "time": 236.23534333333433,
                    "velocity": 0.4409448818897638,
                    "duration": 0.11764708333333829
                },
                {
                    "name": "A#5",
                    "midi": 82,
                    "time": 236.23534333333433,
                    "velocity": 0.5196850393700787,
                    "duration": 0.11764708333333829
                },
                {
                    "name": "D#5",
                    "midi": 75,
                    "time": 236.470637500001,
                    "velocity": 0.44881889763779526,
                    "duration": 0.11764708333333829
                },
                {
                    "name": "A#5",
                    "midi": 82,
                    "time": 236.470637500001,
                    "velocity": 0.5354330708661418,
                    "duration": 0.11764708333333829
                },
                {
                    "name": "E5",
                    "midi": 76,
                    "time": 236.70593166666768,
                    "velocity": 0.4645669291338583,
                    "duration": 0.11764708333333829
                },
                {
                    "name": "A#5",
                    "midi": 82,
                    "time": 236.70593166666768,
                    "velocity": 0.5511811023622047,
                    "duration": 0.11764708333333829
                },
                {
                    "name": "F5",
                    "midi": 77,
                    "time": 236.94122583333436,
                    "velocity": 0.47244094488188976,
                    "duration": 0.11764708333333829
                },
                {
                    "name": "A#5",
                    "midi": 82,
                    "time": 236.94122583333436,
                    "velocity": 0.5590551181102362,
                    "duration": 0.11764708333333829
                },
                {
                    "name": "F#5",
                    "midi": 78,
                    "time": 237.17652000000103,
                    "velocity": 0.4645669291338583,
                    "duration": 0.7058825000000013
                },
                {
                    "name": "A#5",
                    "midi": 82,
                    "time": 237.17652000000103,
                    "velocity": 0.5275590551181102,
                    "duration": 0.7058825000000013
                },
                {
                    "name": "B5",
                    "midi": 83,
                    "time": 237.88240250000104,
                    "velocity": 0.48031496062992124,
                    "duration": 1.0588237499999877
                },
                {
                    "name": "G#5",
                    "midi": 80,
                    "time": 237.88240250000104,
                    "velocity": 0.4330708661417323,
                    "duration": 1.0588237499999877
                },
                {
                    "name": "D#5",
                    "midi": 75,
                    "time": 238.94122625000102,
                    "velocity": 0.4330708661417323,
                    "duration": 0.17647062500000743
                },
                {
                    "name": "F#5",
                    "midi": 78,
                    "time": 238.94122625000102,
                    "velocity": 0.5118110236220472,
                    "duration": 0.17647062500000743
                },
                {
                    "name": "D#5",
                    "midi": 75,
                    "time": 239.11769687500103,
                    "velocity": 0.3937007874015748,
                    "duration": 0.17647062500000743
                },
                {
                    "name": "F#5",
                    "midi": 78,
                    "time": 239.11769687500103,
                    "velocity": 0.4645669291338583,
                    "duration": 0.17647062500000743
                },
                {
                    "name": "F#5",
                    "midi": 78,
                    "time": 239.29416750000104,
                    "velocity": 0.4409448818897638,
                    "duration": 0.35294124999998644
                },
                {
                    "name": "A#5",
                    "midi": 82,
                    "time": 239.29416750000104,
                    "velocity": 0.5196850393700787,
                    "duration": 0.35294124999998644
                },
                {
                    "name": "G#5",
                    "midi": 80,
                    "time": 239.82357937500103,
                    "velocity": 0.47244094488188976,
                    "duration": 0.17647062500000743
                },
                {
                    "name": "F5",
                    "midi": 77,
                    "time": 239.82357937500103,
                    "velocity": 0.4015748031496063,
                    "duration": 0.17647062500000743
                },
                {
                    "name": "G#5",
                    "midi": 80,
                    "time": 240.00005000000104,
                    "velocity": 0.4566929133858268,
                    "duration": 0.058823541666669144
                },
                {
                    "name": "F5",
                    "midi": 77,
                    "time": 240.00005000000104,
                    "velocity": 0.4566929133858268,
                    "duration": 0.058823541666669144
                },
                {
                    "name": "A#5",
                    "midi": 82,
                    "time": 240.0588735416677,
                    "velocity": 0.4094488188976378,
                    "duration": 0.058823541666669144
                },
                {
                    "name": "F#5",
                    "midi": 78,
                    "time": 240.0588735416677,
                    "velocity": 0.4094488188976378,
                    "duration": 0.058823541666669144
                },
                {
                    "name": "G#5",
                    "midi": 80,
                    "time": 240.11769708333438,
                    "velocity": 0.44881889763779526,
                    "duration": 0.11764708333333829
                },
                {
                    "name": "F5",
                    "midi": 77,
                    "time": 240.11769708333438,
                    "velocity": 0.44881889763779526,
                    "duration": 0.11764708333333829
                },
                {
                    "name": "D#5",
                    "midi": 75,
                    "time": 240.23534416666772,
                    "velocity": 0.3937007874015748,
                    "duration": 0.23529416666667657
                },
                {
                    "name": "F#5",
                    "midi": 78,
                    "time": 240.23534416666772,
                    "velocity": 0.4645669291338583,
                    "duration": 0.23529416666667657
                },
                {
                    "name": "F5",
                    "midi": 77,
                    "time": 240.4706383333344,
                    "velocity": 0.4015748031496063,
                    "duration": 0.23529416666667657
                },
                {
                    "name": "G#5",
                    "midi": 80,
                    "time": 240.4706383333344,
                    "velocity": 0.47244094488188976,
                    "duration": 0.23529416666667657
                },
                {
                    "name": "F5",
                    "midi": 77,
                    "time": 240.70593250000107,
                    "velocity": 0.4094488188976378,
                    "duration": 0.23529416666667657
                },
                {
                    "name": "G#5",
                    "midi": 80,
                    "time": 240.70593250000107,
                    "velocity": 0.48031496062992124,
                    "duration": 0.23529416666667657
                },
                {
                    "name": "F#5",
                    "midi": 78,
                    "time": 240.94122666666775,
                    "velocity": 0.4251968503937008,
                    "duration": 0.11764708333333829
                },
                {
                    "name": "A#5",
                    "midi": 82,
                    "time": 240.94122666666775,
                    "velocity": 0.49606299212598426,
                    "duration": 0.23529416666667657
                },
                {
                    "name": "D5",
                    "midi": 74,
                    "time": 241.29416791666776,
                    "velocity": 0.4330708661417323,
                    "duration": 0.11764708333333829
                },
                {
                    "name": "F5",
                    "midi": 77,
                    "time": 241.29416791666776,
                    "velocity": 0.5118110236220472,
                    "duration": 0.11764708333333829
                },
                {
                    "name": "G#5",
                    "midi": 80,
                    "time": 241.4118150000011,
                    "velocity": 0.4881889763779528,
                    "duration": 0.7058825000000013
                },
                {
                    "name": "F5",
                    "midi": 77,
                    "time": 241.4118150000011,
                    "velocity": 0.41732283464566927,
                    "duration": 0.7058825000000013
                },
                {
                    "name": "F#5",
                    "midi": 78,
                    "time": 242.1176975000011,
                    "velocity": 0.44881889763779526,
                    "duration": 0.35294124999998644
                },
                {
                    "name": "D#5",
                    "midi": 75,
                    "time": 242.1176975000011,
                    "velocity": 0.44881889763779526,
                    "duration": 0.35294124999998644
                },
                {
                    "name": "F#6",
                    "midi": 90,
                    "time": 242.82358000000107,
                    "velocity": 0.5590551181102362,
                    "duration": 1.0588237499999877
                },
                {
                    "name": "A#5",
                    "midi": 82,
                    "time": 242.82358000000107,
                    "velocity": 0.47244094488188976,
                    "duration": 1.0588237499999877
                },
                {
                    "name": "F6",
                    "midi": 89,
                    "time": 243.88240375000106,
                    "velocity": 0.5748031496062992,
                    "duration": 0.17647062500000743
                },
                {
                    "name": "G#5",
                    "midi": 80,
                    "time": 243.88240375000106,
                    "velocity": 0.4881889763779528,
                    "duration": 0.17647062500000743
                },
                {
                    "name": "F#5",
                    "midi": 78,
                    "time": 244.23534500000108,
                    "velocity": 0.4409448818897638,
                    "duration": 0.11764708333333829
                },
                {
                    "name": "D#6",
                    "midi": 87,
                    "time": 244.23534500000108,
                    "velocity": 0.5275590551181102,
                    "duration": 0.11764708333333829
                },
                {
                    "name": "F5",
                    "midi": 77,
                    "time": 244.47063916666775,
                    "velocity": 0.44881889763779526,
                    "duration": 0.11764708333333829
                },
                {
                    "name": "C#6",
                    "midi": 85,
                    "time": 244.47063916666775,
                    "velocity": 0.5354330708661418,
                    "duration": 0.11764708333333829
                },
                {
                    "name": "D#5",
                    "midi": 75,
                    "time": 244.70593333333443,
                    "velocity": 0.4645669291338583,
                    "duration": 0.11764708333333829
                },
                {
                    "name": "C6",
                    "midi": 84,
                    "time": 244.70593333333443,
                    "velocity": 0.5511811023622047,
                    "duration": 0.11764708333333829
                },
                {
                    "name": "C#5",
                    "midi": 73,
                    "time": 244.9412275000011,
                    "velocity": 0.47244094488188976,
                    "duration": 0.11764708333333829
                },
                {
                    "name": "A#5",
                    "midi": 82,
                    "time": 244.9412275000011,
                    "velocity": 0.5590551181102362,
                    "duration": 0.11764708333333829
                },
                {
                    "name": "C5",
                    "midi": 72,
                    "time": 245.17652166666778,
                    "velocity": 0.48031496062992124,
                    "duration": 0.11764708333333829
                },
                {
                    "name": "G#5",
                    "midi": 80,
                    "time": 245.17652166666778,
                    "velocity": 0.5669291338582677,
                    "duration": 0.11764708333333829
                },
                {
                    "name": "A#4",
                    "midi": 70,
                    "time": 245.41181583333446,
                    "velocity": 0.4881889763779528,
                    "duration": 0.11764708333333829
                },
                {
                    "name": "F#5",
                    "midi": 78,
                    "time": 245.41181583333446,
                    "velocity": 0.5748031496062992,
                    "duration": 0.11764708333333829
                },
                {
                    "name": "G#4",
                    "midi": 68,
                    "time": 245.64711000000113,
                    "velocity": 0.48031496062992124,
                    "duration": 0.7058825000000013
                },
                {
                    "name": "F5",
                    "midi": 77,
                    "time": 245.64711000000113,
                    "velocity": 0.5669291338582677,
                    "duration": 0.7058825000000013
                },
                {
                    "name": "A#4",
                    "midi": 70,
                    "time": 246.35299250000114,
                    "velocity": 0.5039370078740157,
                    "duration": 0.7058825000000013
                },
                {
                    "name": "F#5",
                    "midi": 78,
                    "time": 246.35299250000114,
                    "velocity": 0.5984251968503937,
                    "duration": 0.7058825000000013
                },
                {
                    "name": "G#4",
                    "midi": 68,
                    "time": 247.05887500000114,
                    "velocity": 0.4881889763779528,
                    "duration": 0.7058825000000013
                },
                {
                    "name": "F5",
                    "midi": 77,
                    "time": 247.05887500000114,
                    "velocity": 0.5826771653543307,
                    "duration": 0.7058825000000013
                },
                {
                    "name": "F#4",
                    "midi": 66,
                    "time": 247.76475750000114,
                    "velocity": 0.4881889763779528,
                    "duration": 0.7058825000000013
                },
                {
                    "name": "D#5",
                    "midi": 75,
                    "time": 247.76475750000114,
                    "velocity": 0.5748031496062992,
                    "duration": 0.7058825000000013
                },
                {
                    "name": "F4",
                    "midi": 65,
                    "time": 248.47064000000114,
                    "velocity": 0.47244094488188976,
                    "duration": 0.7058825000000013
                },
                {
                    "name": "C#5",
                    "midi": 73,
                    "time": 248.47064000000114,
                    "velocity": 0.5590551181102362,
                    "duration": 0.7058825000000013
                },
                {
                    "name": "C#4",
                    "midi": 61,
                    "time": 249.17652250000114,
                    "velocity": 0.47244094488188976,
                    "duration": 0.7058825000000013
                },
                {
                    "name": "F4",
                    "midi": 65,
                    "time": 249.17652250000114,
                    "velocity": 0.5590551181102362,
                    "duration": 0.7058825000000013
                },
                {
                    "name": "C#4",
                    "midi": 61,
                    "time": 249.88240500000114,
                    "velocity": 0.5118110236220472,
                    "duration": 2.117647500000004
                },
                {
                    "name": "G#4",
                    "midi": 68,
                    "time": 249.88240500000114,
                    "velocity": 0.6062992125984252,
                    "duration": 2.117647500000004
                },
                {
                    "name": "D#4",
                    "midi": 63,
                    "time": 252.00005250000115,
                    "velocity": 0.5196850393700787,
                    "duration": 2.117647500000004
                },
                {
                    "name": "C#4",
                    "midi": 61,
                    "time": 252.00005250000115,
                    "velocity": 0.5196850393700787,
                    "duration": 2.117647500000004
                },
                {
                    "name": "A#4",
                    "midi": 70,
                    "time": 252.00005250000115,
                    "velocity": 0.6141732283464567,
                    "duration": 2.117647500000004
                },
                {
                    "name": "G#3",
                    "midi": 56,
                    "time": 254.11770000000115,
                    "velocity": 0.5196850393700787,
                    "duration": 2.1176475000000323
                },
                {
                    "name": "C#4",
                    "midi": 61,
                    "time": 254.11770000000115,
                    "velocity": 0.5196850393700787,
                    "duration": 2.1176475000000323
                },
                {
                    "name": "D#4",
                    "midi": 63,
                    "time": 254.11770000000115,
                    "velocity": 0.6141732283464567,
                    "duration": 1.176470833333326
                },
                {
                    "name": "G#4",
                    "midi": 68,
                    "time": 255.29417083333448,
                    "velocity": 0.48031496062992124,
                    "duration": 0.11764708333333829
                },
                {
                    "name": "C#5",
                    "midi": 73,
                    "time": 255.41181791666781,
                    "velocity": 0.49606299212598426,
                    "duration": 0.11764708333333829
                },
                {
                    "name": "D#5",
                    "midi": 75,
                    "time": 255.52946500000115,
                    "velocity": 0.5118110236220472,
                    "duration": 0.11764708333333829
                },
                {
                    "name": "G#5",
                    "midi": 80,
                    "time": 255.6471120833345,
                    "velocity": 0.5275590551181102,
                    "duration": 0.11764708333333829
                },
                {
                    "name": "C#6",
                    "midi": 85,
                    "time": 255.76475916666783,
                    "velocity": 0.5354330708661418,
                    "duration": 0.11764708333333829
                },
                {
                    "name": "D#6",
                    "midi": 87,
                    "time": 255.88240625000117,
                    "velocity": 0.5511811023622047,
                    "duration": 0.11764708333333829
                },
                {
                    "name": "G#6",
                    "midi": 92,
                    "time": 256.0000533333345,
                    "velocity": 0.5669291338582677,
                    "duration": 0.11764708333333829
                },
                {
                    "name": "C#7",
                    "midi": 97,
                    "time": 256.11770041666784,
                    "velocity": 0.5748031496062992,
                    "duration": 0.11764708333333829
                },
                {
                    "name": "D#7",
                    "midi": 99,
                    "time": 256.2353475000012,
                    "velocity": 0.7244094488188977,
                    "duration": 1.176470833333326
                },
                {
                    "name": "C#7",
                    "midi": 97,
                    "time": 257.4118183333345,
                    "velocity": 0.6141732283464567,
                    "duration": 0.11764708333333829
                },
                {
                    "name": "G#6",
                    "midi": 92,
                    "time": 257.52946541666785,
                    "velocity": 0.5984251968503937,
                    "duration": 0.11764708333333829
                },
                {
                    "name": "D#6",
                    "midi": 87,
                    "time": 257.6471125000012,
                    "velocity": 0.5826771653543307,
                    "duration": 0.11764708333333829
                },
                {
                    "name": "C#6",
                    "midi": 85,
                    "time": 257.7647595833345,
                    "velocity": 0.5669291338582677,
                    "duration": 0.11764708333333829
                },
                {
                    "name": "G#5",
                    "midi": 80,
                    "time": 257.88240666666786,
                    "velocity": 0.5433070866141733,
                    "duration": 0.11764708333333829
                },
                {
                    "name": "D#5",
                    "midi": 75,
                    "time": 258.0000537500012,
                    "velocity": 0.5275590551181102,
                    "duration": 0.11764708333333829
                },
                {
                    "name": "C#5",
                    "midi": 73,
                    "time": 258.11770083333454,
                    "velocity": 0.5118110236220472,
                    "duration": 0.11764708333333829
                },
                {
                    "name": "G#4",
                    "midi": 68,
                    "time": 258.2353479166679,
                    "velocity": 0.49606299212598426,
                    "duration": 0.11764708333333829
                },
                {
                    "name": "D#4",
                    "midi": 63,
                    "time": 258.3529950000012,
                    "velocity": 0.6141732283464567,
                    "duration": 2.1176474999999755
                },
                {
                    "name": "F4",
                    "midi": 65,
                    "time": 260.4706425000012,
                    "velocity": 0.5196850393700787,
                    "duration": 1.0588237499999877
                },
                {
                    "name": "G#3",
                    "midi": 56,
                    "time": 260.4706425000012,
                    "velocity": 0.5196850393700787,
                    "duration": 2.1176475000000323
                },
                {
                    "name": "G#4",
                    "midi": 68,
                    "time": 260.4706425000012,
                    "velocity": 0.6141732283464567,
                    "duration": 2.1176475000000323
                },
                {
                    "name": "D#4",
                    "midi": 63,
                    "time": 261.5294662500012,
                    "velocity": 0.5669291338582677,
                    "duration": 0.35294125000001486
                },
                {
                    "name": "F4",
                    "midi": 65,
                    "time": 261.8824075000012,
                    "velocity": 0.6141732283464567,
                    "duration": 0.23529416666667657
                },
                {
                    "name": "D#4",
                    "midi": 63,
                    "time": 262.11770166666787,
                    "velocity": 0.5905511811023622,
                    "duration": 0.23529416666667657
                },
                {
                    "name": "C#4",
                    "midi": 61,
                    "time": 262.35299583333455,
                    "velocity": 0.5905511811023622,
                    "duration": 0.23529416666667657
                },
                {
                    "name": "C#4",
                    "midi": 61,
                    "time": 262.5882900000012,
                    "velocity": 0.6141732283464567,
                    "duration": 1.4117650000000026
                },
                {
                    "name": "C#6",
                    "midi": 85,
                    "time": 264.7059375000012,
                    "velocity": 0.4881889763779528,
                    "duration": 0.7058824999999729
                },
                {
                    "name": "G5",
                    "midi": 79,
                    "time": 265.41182000000117,
                    "velocity": 0.4330708661417323,
                    "duration": 1.4117650000000026
                },
                {
                    "name": "C6",
                    "midi": 84,
                    "time": 266.8235850000012,
                    "velocity": 0.4881889763779528,
                    "duration": 0.7058824999999729
                },
                {
                    "name": "F#5",
                    "midi": 78,
                    "time": 267.52946750000115,
                    "velocity": 0.4330708661417323,
                    "duration": 1.4117650000000026
                },
                {
                    "name": "B5",
                    "midi": 83,
                    "time": 268.94123250000115,
                    "velocity": 0.4881889763779528,
                    "duration": 0.7058824999999729
                },
                {
                    "name": "F5",
                    "midi": 77,
                    "time": 269.6471150000011,
                    "velocity": 0.4251968503937008,
                    "duration": 1.4117650000000026
                },
                {
                    "name": "A#5",
                    "midi": 82,
                    "time": 271.0588800000011,
                    "velocity": 0.47244094488188976,
                    "duration": 0.7058824999999729
                },
                {
                    "name": "E5",
                    "midi": 76,
                    "time": 271.7647625000011,
                    "velocity": 0.4094488188976378,
                    "duration": 1.4117650000000026
                },
                {
                    "name": "A5",
                    "midi": 81,
                    "time": 273.1765275000011,
                    "velocity": 0.4566929133858268,
                    "duration": 0.7058824999999729
                },
                {
                    "name": "D#5",
                    "midi": 75,
                    "time": 273.8824100000011,
                    "velocity": 0.4015748031496063,
                    "duration": 1.4117650000000026
                },
                {
                    "name": "G#5",
                    "midi": 80,
                    "time": 275.2941750000011,
                    "velocity": 0.47244094488188976,
                    "duration": 5.647060000000124
                },
                {
                    "name": "G#4",
                    "midi": 68,
                    "time": 276.7059400000011,
                    "velocity": 0.33858267716535434,
                    "duration": 0.26470593750002536
                },
                {
                    "name": "A#4",
                    "midi": 70,
                    "time": 277.0588812500011,
                    "velocity": 0.3464566929133858,
                    "duration": 0.26470593750002536
                },
                {
                    "name": "C5",
                    "midi": 72,
                    "time": 277.4118225000011,
                    "velocity": 0.3543307086614173,
                    "duration": 0.26470593750002536
                },
                {
                    "name": "C#5",
                    "midi": 73,
                    "time": 277.7647637500011,
                    "velocity": 0.36220472440944884,
                    "duration": 0.26470593750002536
                },
                {
                    "name": "D5",
                    "midi": 74,
                    "time": 278.11770500000114,
                    "velocity": 0.3700787401574803,
                    "duration": 0.26470593750002536
                },
                {
                    "name": "D#5",
                    "midi": 75,
                    "time": 278.47064625000115,
                    "velocity": 0.3779527559055118,
                    "duration": 0.26470593750002536
                },
                {
                    "name": "F5",
                    "midi": 77,
                    "time": 278.82358750000117,
                    "velocity": 0.3937007874015748,
                    "duration": 0.26470593750002536
                },
                {
                    "name": "F#5",
                    "midi": 78,
                    "time": 279.1765287500012,
                    "velocity": 0.4015748031496063,
                    "duration": 0.26470593750002536
                },
                {
                    "name": "F5",
                    "midi": 77,
                    "time": 279.5294700000012,
                    "velocity": 0.4251968503937008,
                    "duration": 1.4117650000000026
                },
                {
                    "name": "C#6",
                    "midi": 85,
                    "time": 281.6471175000012,
                    "velocity": 0.4330708661417323,
                    "duration": 0.7058824999999729
                },
                {
                    "name": "A#6",
                    "midi": 94,
                    "time": 282.17652937500117,
                    "velocity": 0.3228346456692913,
                    "duration": 0.176470624999979
                },
                {
                    "name": "G5",
                    "midi": 79,
                    "time": 282.35300000000115,
                    "velocity": 0.3858267716535433,
                    "duration": 1.4117650000000026
                },
                {
                    "name": "C6",
                    "midi": 84,
                    "time": 283.76476500000115,
                    "velocity": 0.4330708661417323,
                    "duration": 0.7058824999999729
                },
                {
                    "name": "A6",
                    "midi": 93,
                    "time": 284.29417687500114,
                    "velocity": 0.3228346456692913,
                    "duration": 0.176470624999979
                },
                {
                    "name": "F#5",
                    "midi": 78,
                    "time": 284.4706475000011,
                    "velocity": 0.3858267716535433,
                    "duration": 1.4117650000000026
                },
                {
                    "name": "B5",
                    "midi": 83,
                    "time": 285.8824125000011,
                    "velocity": 0.4330708661417323,
                    "duration": 0.7058824999999729
                },
                {
                    "name": "G#6",
                    "midi": 92,
                    "time": 286.4118243750011,
                    "velocity": 0.3228346456692913,
                    "duration": 0.176470624999979
                },
                {
                    "name": "F5",
                    "midi": 77,
                    "time": 286.5882950000011,
                    "velocity": 0.3858267716535433,
                    "duration": 1.4117650000000026
                },
                {
                    "name": "A#5",
                    "midi": 82,
                    "time": 288.0000600000011,
                    "velocity": 0.4330708661417323,
                    "duration": 0.7058824999999729
                },
                {
                    "name": "G6",
                    "midi": 91,
                    "time": 288.5294718750011,
                    "velocity": 0.3228346456692913,
                    "duration": 0.176470624999979
                },
                {
                    "name": "E5",
                    "midi": 76,
                    "time": 288.7059425000011,
                    "velocity": 0.3858267716535433,
                    "duration": 1.4117650000000026
                },
                {
                    "name": "A5",
                    "midi": 81,
                    "time": 290.1177075000011,
                    "velocity": 0.4330708661417323,
                    "duration": 0.7058824999999729
                },
                {
                    "name": "F#6",
                    "midi": 90,
                    "time": 290.64711937500107,
                    "velocity": 0.3228346456692913,
                    "duration": 0.176470624999979
                },
                {
                    "name": "D#5",
                    "midi": 75,
                    "time": 290.82359000000105,
                    "velocity": 0.3858267716535433,
                    "duration": 1.4117650000000026
                },
                {
                    "name": "G#5",
                    "midi": 80,
                    "time": 292.23535500000105,
                    "velocity": 0.4330708661417323,
                    "duration": 6.35294250000004
                },
                {
                    "name": "G5",
                    "midi": 79,
                    "time": 294.70594375000104,
                    "velocity": 0.3700787401574803,
                    "duration": 0.26470593750002536
                },
                {
                    "name": "F#5",
                    "midi": 78,
                    "time": 295.05888500000106,
                    "velocity": 0.36220472440944884,
                    "duration": 0.26470593750002536
                },
                {
                    "name": "F5",
                    "midi": 77,
                    "time": 295.41182625000107,
                    "velocity": 0.3543307086614173,
                    "duration": 0.26470593750002536
                },
                {
                    "name": "D#5",
                    "midi": 75,
                    "time": 295.7647675000011,
                    "velocity": 0.3543307086614173,
                    "duration": 0.26470593750002536
                },
                {
                    "name": "F5",
                    "midi": 77,
                    "time": 296.1177087500011,
                    "velocity": 0.33858267716535434,
                    "duration": 0.26470593750002536
                },
                {
                    "name": "C#5",
                    "midi": 73,
                    "time": 296.4706500000011,
                    "velocity": 0.4094488188976378,
                    "duration": 4.235295000000065
                },
                {
                    "name": "F5",
                    "midi": 77,
                    "time": 298.5882975000011,
                    "velocity": 0.36220472440944884,
                    "duration": 0.35294125000001486
                },
                {
                    "name": "F#5",
                    "midi": 78,
                    "time": 298.9412387500011,
                    "velocity": 0.3543307086614173,
                    "duration": 0.35294125000001486
                },
                {
                    "name": "G5",
                    "midi": 79,
                    "time": 299.2941800000011,
                    "velocity": 0.36220472440944884,
                    "duration": 0.35294125000001486
                },
                {
                    "name": "G#5",
                    "midi": 80,
                    "time": 299.64712125000113,
                    "velocity": 0.3779527559055118,
                    "duration": 0.35294125000001486
                },
                {
                    "name": "C6",
                    "midi": 84,
                    "time": 300.00006250000115,
                    "velocity": 0.3779527559055118,
                    "duration": 0.35294125000001486
                },
                {
                    "name": "A#5",
                    "midi": 82,
                    "time": 300.35300375000116,
                    "velocity": 0.3700787401574803,
                    "duration": 0.35294125000001486
                },
                {
                    "name": "C5",
                    "midi": 72,
                    "time": 300.7059450000012,
                    "velocity": 0.3543307086614173,
                    "duration": 0.35294125000001486
                },
                {
                    "name": "G#5",
                    "midi": 80,
                    "time": 300.7059450000012,
                    "velocity": 0.41732283464566927,
                    "duration": 2.470588750000104
                },
                {
                    "name": "C#5",
                    "midi": 73,
                    "time": 301.0588862500012,
                    "velocity": 0.3543307086614173,
                    "duration": 0.35294125000001486
                },
                {
                    "name": "D5",
                    "midi": 74,
                    "time": 301.4118275000012,
                    "velocity": 0.3543307086614173,
                    "duration": 0.35294125000001486
                },
                {
                    "name": "D#5",
                    "midi": 75,
                    "time": 301.7647687500012,
                    "velocity": 0.3543307086614173,
                    "duration": 0.35294125000001486
                },
                {
                    "name": "F#5",
                    "midi": 78,
                    "time": 302.11771000000124,
                    "velocity": 0.3464566929133858,
                    "duration": 0.35294125000001486
                },
                {
                    "name": "F5",
                    "midi": 77,
                    "time": 302.47065125000125,
                    "velocity": 0.3464566929133858,
                    "duration": 0.35294125000001486
                },
                {
                    "name": "D#5",
                    "midi": 75,
                    "time": 302.82359250000127,
                    "velocity": 0.3464566929133858,
                    "duration": 1.4117650000000594
                },
                {
                    "name": "G5",
                    "midi": 79,
                    "time": 303.1765337500013,
                    "velocity": 0.3464566929133858,
                    "duration": 0.35294125000001486
                },
                {
                    "name": "F#5",
                    "midi": 78,
                    "time": 303.5294750000013,
                    "velocity": 0.33858267716535434,
                    "duration": 0.35294125000001486
                },
                {
                    "name": "F5",
                    "midi": 77,
                    "time": 303.8824162500013,
                    "velocity": 0.33070866141732286,
                    "duration": 0.35294125000001486
                },
                {
                    "name": "G#4",
                    "midi": 68,
                    "time": 304.2353575000013,
                    "velocity": 0.31496062992125984,
                    "duration": 0.7058825000000297
                },
                {
                    "name": "D#5",
                    "midi": 75,
                    "time": 304.2353575000013,
                    "velocity": 0.33070866141732286,
                    "duration": 0.35294125000001486
                },
                {
                    "name": "F5",
                    "midi": 77,
                    "time": 304.58829875000134,
                    "velocity": 0.30708661417322836,
                    "duration": 0.35294125000001486
                },
                {
                    "name": "A4",
                    "midi": 69,
                    "time": 304.94124000000136,
                    "velocity": 0.33858267716535434,
                    "duration": 0.35294125000001486
                },
                {
                    "name": "C#5",
                    "midi": 73,
                    "time": 304.94124000000136,
                    "velocity": 0.3779527559055118,
                    "duration": 2.1176475000000323
                },
                {
                    "name": "G#4",
                    "midi": 68,
                    "time": 305.2941812500014,
                    "velocity": 0.33858267716535434,
                    "duration": 0.35294125000001486
                },
                {
                    "name": "G4",
                    "midi": 67,
                    "time": 305.6471225000014,
                    "velocity": 0.33858267716535434,
                    "duration": 0.35294125000001486
                },
                {
                    "name": "G#4",
                    "midi": 68,
                    "time": 306.0000637500014,
                    "velocity": 0.33858267716535434,
                    "duration": 0.352941249999958
                },
                {
                    "name": "C5",
                    "midi": 72,
                    "time": 306.1765343750014,
                    "velocity": 0.29133858267716534,
                    "duration": 0.176470624999979
                },
                {
                    "name": "A#4",
                    "midi": 70,
                    "time": 306.35300500000136,
                    "velocity": 0.33858267716535434,
                    "duration": 0.35294125000001486
                },
                {
                    "name": "G#4",
                    "midi": 68,
                    "time": 306.7059462500014,
                    "velocity": 0.33070866141732286,
                    "duration": 0.35294125000001486
                },
                {
                    "name": "G#4",
                    "midi": 68,
                    "time": 307.0588875000014,
                    "velocity": 0.33070866141732286,
                    "duration": 1.4117650000000594
                },
                {
                    "name": "F5",
                    "midi": 77,
                    "time": 307.0588875000014,
                    "velocity": 0.33070866141732286,
                    "duration": 0.35294125000001486
                },
                {
                    "name": "F#5",
                    "midi": 78,
                    "time": 307.4118287500014,
                    "velocity": 0.3228346456692913,
                    "duration": 0.35294125000001486
                },
                {
                    "name": "G5",
                    "midi": 79,
                    "time": 307.7647700000014,
                    "velocity": 0.33070866141732286,
                    "duration": 0.35294125000001486
                },
                {
                    "name": "G#5",
                    "midi": 80,
                    "time": 308.11771125000143,
                    "velocity": 0.3464566929133858,
                    "duration": 0.35294125000001486
                },
                {
                    "name": "C6",
                    "midi": 84,
                    "time": 308.47065250000145,
                    "velocity": 0.3543307086614173,
                    "duration": 0.35294125000001486
                },
                {
                    "name": "A#5",
                    "midi": 82,
                    "time": 308.82359375000146,
                    "velocity": 0.3464566929133858,
                    "duration": 0.35294125000001486
                },
                {
                    "name": "C5",
                    "midi": 72,
                    "time": 309.1765350000015,
                    "velocity": 0.3228346456692913,
                    "duration": 0.35294125000001486
                },
                {
                    "name": "G#5",
                    "midi": 80,
                    "time": 309.1765350000015,
                    "velocity": 0.3779527559055118,
                    "duration": 2.470588750000104
                },
                {
                    "name": "C#5",
                    "midi": 73,
                    "time": 309.5294762500015,
                    "velocity": 0.3228346456692913,
                    "duration": 0.35294125000001486
                },
                {
                    "name": "D5",
                    "midi": 74,
                    "time": 309.8824175000015,
                    "velocity": 0.3228346456692913,
                    "duration": 0.35294125000001486
                },
                {
                    "name": "D#5",
                    "midi": 75,
                    "time": 310.2353587500015,
                    "velocity": 0.3228346456692913,
                    "duration": 0.35294125000001486
                },
                {
                    "name": "F#5",
                    "midi": 78,
                    "time": 310.58830000000154,
                    "velocity": 0.3228346456692913,
                    "duration": 0.35294125000001486
                },
                {
                    "name": "F5",
                    "midi": 77,
                    "time": 310.94124125000155,
                    "velocity": 0.3228346456692913,
                    "duration": 0.35294125000001486
                },
                {
                    "name": "D#5",
                    "midi": 75,
                    "time": 311.29418250000157,
                    "velocity": 0.31496062992125984,
                    "duration": 1.4117650000000594
                },
                {
                    "name": "G5",
                    "midi": 79,
                    "time": 311.6471237500016,
                    "velocity": 0.31496062992125984,
                    "duration": 0.35294125000001486
                },
                {
                    "name": "F#5",
                    "midi": 78,
                    "time": 312.0000650000016,
                    "velocity": 0.31496062992125984,
                    "duration": 0.35294125000001486
                },
                {
                    "name": "F5",
                    "midi": 77,
                    "time": 312.3530062500016,
                    "velocity": 0.2992125984251969,
                    "duration": 0.35294125000001486
                },
                {
                    "name": "G#4",
                    "midi": 68,
                    "time": 312.7059475000016,
                    "velocity": 0.28346456692913385,
                    "duration": 0.7058825000000297
                },
                {
                    "name": "D#5",
                    "midi": 75,
                    "time": 312.7059475000016,
                    "velocity": 0.2992125984251969,
                    "duration": 0.35294125000001486
                },
                {
                    "name": "F5",
                    "midi": 77,
                    "time": 313.05888875000164,
                    "velocity": 0.28346456692913385,
                    "duration": 0.35294125000001486
                },
                {
                    "name": "F4",
                    "midi": 65,
                    "time": 313.41183000000166,
                    "velocity": 0.2677165354330709,
                    "duration": 4.235295000000008
                },
                {
                    "name": "C#5",
                    "midi": 73,
                    "time": 313.41183000000166,
                    "velocity": 0.30708661417322836,
                    "duration": 4.235295000000008
                },
                {
                    "name": "G#4",
                    "midi": 68,
                    "time": 317.64712500000167,
                    "velocity": 0.2440944881889764,
                    "duration": 0.26470593750002536
                },
                {
                    "name": "F5",
                    "midi": 77,
                    "time": 317.64712500000167,
                    "velocity": 0.29133858267716534,
                    "duration": 0.26470593750002536
                },
                {
                    "name": "A#4",
                    "midi": 70,
                    "time": 317.9471250625017,
                    "velocity": 0.2440944881889764,
                    "duration": 0.26470593750002536
                },
                {
                    "name": "F#5",
                    "midi": 78,
                    "time": 317.9471250625017,
                    "velocity": 0.29133858267716534,
                    "duration": 0.26470593750002536
                },
                {
                    "name": "C5",
                    "midi": 72,
                    "time": 318.24712512500173,
                    "velocity": 0.2440944881889764,
                    "duration": 0.26470593750002536
                },
                {
                    "name": "G#5",
                    "midi": 80,
                    "time": 318.24712512500173,
                    "velocity": 0.29133858267716534,
                    "duration": 0.26470593750002536
                },
                {
                    "name": "C#5",
                    "midi": 73,
                    "time": 318.54712518750176,
                    "velocity": 0.23622047244094488,
                    "duration": 0.26470593750002536
                },
                {
                    "name": "A#5",
                    "midi": 82,
                    "time": 318.54712518750176,
                    "velocity": 0.28346456692913385,
                    "duration": 0.26470593750002536
                },
                {
                    "name": "D#5",
                    "midi": 75,
                    "time": 318.8471252500018,
                    "velocity": 0.23622047244094488,
                    "duration": 0.26470593750002536
                },
                {
                    "name": "C6",
                    "midi": 84,
                    "time": 318.8471252500018,
                    "velocity": 0.28346456692913385,
                    "duration": 0.26470593750002536
                },
                {
                    "name": "F5",
                    "midi": 77,
                    "time": 319.1471253125018,
                    "velocity": 0.2283464566929134,
                    "duration": 0.26470593750002536
                },
                {
                    "name": "C#6",
                    "midi": 85,
                    "time": 319.1471253125018,
                    "velocity": 0.2755905511811024,
                    "duration": 0.26470593750002536
                },
                {
                    "name": "F#5",
                    "midi": 78,
                    "time": 319.44712537500186,
                    "velocity": 0.2283464566929134,
                    "duration": 0.26470593750002536
                },
                {
                    "name": "D#6",
                    "midi": 87,
                    "time": 319.44712537500186,
                    "velocity": 0.2755905511811024,
                    "duration": 0.26470593750002536
                },
                {
                    "name": "G#5",
                    "midi": 80,
                    "time": 319.76477250000187,
                    "velocity": 0.2204724409448819,
                    "duration": 0.26470593750002536
                },
                {
                    "name": "F6",
                    "midi": 89,
                    "time": 319.76477250000187,
                    "velocity": 0.2677165354330709,
                    "duration": 0.26470593750002536
                },
                {
                    "name": "A#5",
                    "midi": 82,
                    "time": 320.0647725625019,
                    "velocity": 0.2204724409448819,
                    "duration": 0.26470593750002536
                },
                {
                    "name": "F#6",
                    "midi": 90,
                    "time": 320.0647725625019,
                    "velocity": 0.2677165354330709,
                    "duration": 0.26470593750002536
                },
                {
                    "name": "C6",
                    "midi": 84,
                    "time": 320.36477262500193,
                    "velocity": 0.2204724409448819,
                    "duration": 0.26470593750002536
                },
                {
                    "name": "G#6",
                    "midi": 92,
                    "time": 320.36477262500193,
                    "velocity": 0.25984251968503935,
                    "duration": 0.26470593750002536
                },
                {
                    "name": "C#6",
                    "midi": 85,
                    "time": 320.66477268750197,
                    "velocity": 0.2204724409448819,
                    "duration": 0.26470593750002536
                },
                {
                    "name": "A#6",
                    "midi": 94,
                    "time": 320.66477268750197,
                    "velocity": 0.25984251968503935,
                    "duration": 0.26470593750002536
                },
                {
                    "name": "D#6",
                    "midi": 87,
                    "time": 320.964772750002,
                    "velocity": 0.2125984251968504,
                    "duration": 0.26470593750002536
                },
                {
                    "name": "C7",
                    "midi": 96,
                    "time": 320.964772750002,
                    "velocity": 0.25196850393700787,
                    "duration": 0.26470593750002536
                },
                {
                    "name": "F6",
                    "midi": 89,
                    "time": 321.26477281250203,
                    "velocity": 0.2125984251968504,
                    "duration": 0.26470593750002536
                },
                {
                    "name": "C#7",
                    "midi": 97,
                    "time": 321.26477281250203,
                    "velocity": 0.25196850393700787,
                    "duration": 0.26470593750002536
                },
                {
                    "name": "F#6",
                    "midi": 90,
                    "time": 321.56477287500206,
                    "velocity": 0.2125984251968504,
                    "duration": 0.26470593750002536
                },
                {
                    "name": "D#7",
                    "midi": 99,
                    "time": 321.56477287500206,
                    "velocity": 0.25196850393700787,
                    "duration": 0.26470593750002536
                },
                {
                    "name": "F7",
                    "midi": 101,
                    "time": 321.88242000000207,
                    "velocity": 0.28346456692913385,
                    "duration": 1.4117650000000026
                },
                {
                    "name": "G#6",
                    "midi": 92,
                    "time": 321.88242000000207,
                    "velocity": 0.23622047244094488,
                    "duration": 1.4117650000000026
                },
                {
                    "name": "G#4",
                    "midi": 68,
                    "time": 324.00006750000205,
                    "velocity": 0.23622047244094488,
                    "duration": 2.1176474999999755
                },
                {
                    "name": "F5",
                    "midi": 77,
                    "time": 324.00006750000205,
                    "velocity": 0.28346456692913385,
                    "duration": 2.1176474999999755
                },
                {
                    "name": "F4",
                    "midi": 65,
                    "time": 326.117715000002,
                    "velocity": 0.2204724409448819,
                    "duration": 4.235295000000008
                },
                {
                    "name": "C#5",
                    "midi": 73,
                    "time": 326.117715000002,
                    "velocity": 0.25984251968503935,
                    "duration": 4.235295000000008
                }
            ],
            "controlChanges": {
                "7": [
                    {
                        "number": 7,
                        "time": 0,
                        "value": 0.7874015748031497
                    }
                ],
                "10": [
                    {
                        "number": 10,
                        "time": 0,
                        "value": 0.5039370078740157
                    }
                ],
                "91": [
                    {
                        "number": 91,
                        "time": 0,
                        "value": 1
                    },
                    {
                        "number": 91,
                        "time": 4.235295000000001,
                        "value": 1
                    },
                    {
                        "number": 91,
                        "time": 16.941180000000003,
                        "value": 1
                    },
                    {
                        "number": 91,
                        "time": 21.176475000000003,
                        "value": 1
                    },
                    {
                        "number": 91,
                        "time": 105.88237499999997,
                        "value": 1
                    },
                    {
                        "number": 91,
                        "time": 118.58825999999999,
                        "value": 1
                    },
                    {
                        "number": 91,
                        "time": 122.823555,
                        "value": 1
                    },
                    {
                        "number": 91,
                        "time": 190.58827500000055,
                        "value": 1
                    },
                    {
                        "number": 91,
                        "time": 203.29416000000046,
                        "value": 1
                    },
                    {
                        "number": 91,
                        "time": 207.52945500000047,
                        "value": 1
                    }
                ]
            },
            "id": 1,
            "name": "Piano right",
            "instrumentNumber": 0,
            "instrument": "acoustic grand piano",
            "instrumentFamily": "piano",
            "channelNumber": 0,
            "isPercussion": false
        },
        {
            "startTime": 0,
            "duration": 330.3530099999981,
            "length": 905,
            "notes": [
                {
                    "name": "C#2",
                    "midi": 37,
                    "time": 0,
                    "velocity": 0.23622047244094488,
                    "duration": 0.35294125000000004
                },
                {
                    "name": "F4",
                    "midi": 65,
                    "time": 0.35294125000000004,
                    "velocity": 0.2047244094488189,
                    "duration": 0.35294125000000004
                },
                {
                    "name": "G#3",
                    "midi": 56,
                    "time": 0.7058825000000001,
                    "velocity": 0.2047244094488189,
                    "duration": 0.3529412500000001
                },
                {
                    "name": "F4",
                    "midi": 65,
                    "time": 1.0588237500000002,
                    "velocity": 0.2047244094488189,
                    "duration": 0.35294125
                },
                {
                    "name": "C#4",
                    "midi": 61,
                    "time": 1.4117650000000002,
                    "velocity": 0.2047244094488189,
                    "duration": 0.35294125
                },
                {
                    "name": "F3",
                    "midi": 53,
                    "time": 1.7647062500000001,
                    "velocity": 0.2047244094488189,
                    "duration": 0.3529412500000002
                },
                {
                    "name": "C#3",
                    "midi": 49,
                    "time": 2.1176475000000003,
                    "velocity": 0.23622047244094488,
                    "duration": 0.3529412500000002
                },
                {
                    "name": "F4",
                    "midi": 65,
                    "time": 2.4705887500000006,
                    "velocity": 0.2047244094488189,
                    "duration": 0.3529412500000002
                },
                {
                    "name": "G#3",
                    "midi": 56,
                    "time": 2.8235300000000008,
                    "velocity": 0.2047244094488189,
                    "duration": 0.3529412500000002
                },
                {
                    "name": "F4",
                    "midi": 65,
                    "time": 3.176471250000001,
                    "velocity": 0.1968503937007874,
                    "duration": 0.3529412500000002
                },
                {
                    "name": "C#4",
                    "midi": 61,
                    "time": 3.529412500000001,
                    "velocity": 0.2204724409448819,
                    "duration": 0.3529412500000002
                },
                {
                    "name": "F3",
                    "midi": 53,
                    "time": 3.8823537500000014,
                    "velocity": 0.1968503937007874,
                    "duration": 0.3529412500000002
                },
                {
                    "name": "C#3",
                    "midi": 49,
                    "time": 4.235295000000002,
                    "velocity": 0.23622047244094488,
                    "duration": 0.35294124999999976
                },
                {
                    "name": "F4",
                    "midi": 65,
                    "time": 4.588236250000001,
                    "velocity": 0.2047244094488189,
                    "duration": 0.35294124999999976
                },
                {
                    "name": "G#3",
                    "midi": 56,
                    "time": 4.941177500000001,
                    "velocity": 0.2047244094488189,
                    "duration": 0.35294124999999976
                },
                {
                    "name": "F4",
                    "midi": 65,
                    "time": 5.294118750000001,
                    "velocity": 0.2047244094488189,
                    "duration": 0.35294124999999976
                },
                {
                    "name": "C#4",
                    "midi": 61,
                    "time": 5.647060000000001,
                    "velocity": 0.2047244094488189,
                    "duration": 0.35294124999999976
                },
                {
                    "name": "F3",
                    "midi": 53,
                    "time": 6.00000125,
                    "velocity": 0.2047244094488189,
                    "duration": 0.35294124999999976
                },
                {
                    "name": "C#3",
                    "midi": 49,
                    "time": 6.3529425,
                    "velocity": 0.23622047244094488,
                    "duration": 0.35294124999999976
                },
                {
                    "name": "F4",
                    "midi": 65,
                    "time": 6.70588375,
                    "velocity": 0.2047244094488189,
                    "duration": 0.35294124999999976
                },
                {
                    "name": "G#3",
                    "midi": 56,
                    "time": 7.058825,
                    "velocity": 0.2047244094488189,
                    "duration": 0.35294124999999976
                },
                {
                    "name": "F4",
                    "midi": 65,
                    "time": 7.4117662499999994,
                    "velocity": 0.2047244094488189,
                    "duration": 0.35294124999999976
                },
                {
                    "name": "C#4",
                    "midi": 61,
                    "time": 7.764707499999999,
                    "velocity": 0.2047244094488189,
                    "duration": 0.35294124999999976
                },
                {
                    "name": "F3",
                    "midi": 53,
                    "time": 8.117648749999999,
                    "velocity": 0.2047244094488189,
                    "duration": 0.35294125000000065
                },
                {
                    "name": "C#3",
                    "midi": 49,
                    "time": 8.47059,
                    "velocity": 0.23622047244094488,
                    "duration": 0.35294125000000065
                },
                {
                    "name": "F4",
                    "midi": 65,
                    "time": 8.82353125,
                    "velocity": 0.2204724409448819,
                    "duration": 0.35294125000000065
                },
                {
                    "name": "G#3",
                    "midi": 56,
                    "time": 9.176472500000001,
                    "velocity": 0.2204724409448819,
                    "duration": 0.35294125000000065
                },
                {
                    "name": "F4",
                    "midi": 65,
                    "time": 9.529413750000002,
                    "velocity": 0.2125984251968504,
                    "duration": 0.35294125000000065
                },
                {
                    "name": "C#4",
                    "midi": 61,
                    "time": 9.882355000000002,
                    "velocity": 0.2125984251968504,
                    "duration": 0.35294125000000065
                },
                {
                    "name": "F3",
                    "midi": 53,
                    "time": 10.235296250000003,
                    "velocity": 0.2125984251968504,
                    "duration": 0.35294125000000065
                },
                {
                    "name": "C#3",
                    "midi": 49,
                    "time": 10.588237500000004,
                    "velocity": 0.2440944881889764,
                    "duration": 0.35294125000000065
                },
                {
                    "name": "F4",
                    "midi": 65,
                    "time": 10.941178750000004,
                    "velocity": 0.2125984251968504,
                    "duration": 0.35294125000000065
                },
                {
                    "name": "G#3",
                    "midi": 56,
                    "time": 11.294120000000005,
                    "velocity": 0.2125984251968504,
                    "duration": 0.35294125000000065
                },
                {
                    "name": "F4",
                    "midi": 65,
                    "time": 11.647061250000005,
                    "velocity": 0.2204724409448819,
                    "duration": 0.35294125000000065
                },
                {
                    "name": "C#4",
                    "midi": 61,
                    "time": 12.000002500000006,
                    "velocity": 0.2204724409448819,
                    "duration": 0.35294125000000065
                },
                {
                    "name": "F3",
                    "midi": 53,
                    "time": 12.352943750000007,
                    "velocity": 0.23622047244094488,
                    "duration": 0.35294125000000065
                },
                {
                    "name": "C#3",
                    "midi": 49,
                    "time": 12.705885000000007,
                    "velocity": 0.2677165354330709,
                    "duration": 0.35294125000000065
                },
                {
                    "name": "F4",
                    "midi": 65,
                    "time": 13.058826250000008,
                    "velocity": 0.2283464566929134,
                    "duration": 0.35294125000000065
                },
                {
                    "name": "G#3",
                    "midi": 56,
                    "time": 13.411767500000009,
                    "velocity": 0.2204724409448819,
                    "duration": 0.35294125000000065
                },
                {
                    "name": "F4",
                    "midi": 65,
                    "time": 13.76470875000001,
                    "velocity": 0.2204724409448819,
                    "duration": 0.35294125000000065
                },
                {
                    "name": "C#4",
                    "midi": 61,
                    "time": 14.11765000000001,
                    "velocity": 0.2204724409448819,
                    "duration": 0.35294125000000065
                },
                {
                    "name": "F3",
                    "midi": 53,
                    "time": 14.47059125000001,
                    "velocity": 0.2125984251968504,
                    "duration": 0.35294125000000065
                },
                {
                    "name": "C#3",
                    "midi": 49,
                    "time": 14.823532500000011,
                    "velocity": 0.23622047244094488,
                    "duration": 0.35294125000000065
                },
                {
                    "name": "F4",
                    "midi": 65,
                    "time": 15.176473750000012,
                    "velocity": 0.2047244094488189,
                    "duration": 0.35294125000000065
                },
                {
                    "name": "G#3",
                    "midi": 56,
                    "time": 15.529415000000013,
                    "velocity": 0.2047244094488189,
                    "duration": 0.35294125000000065
                },
                {
                    "name": "F4",
                    "midi": 65,
                    "time": 15.882356250000013,
                    "velocity": 0.1968503937007874,
                    "duration": 0.3529412499999989
                },
                {
                    "name": "C#4",
                    "midi": 61,
                    "time": 16.235297500000012,
                    "velocity": 0.1968503937007874,
                    "duration": 0.35294125000000065
                },
                {
                    "name": "F3",
                    "midi": 53,
                    "time": 16.588238750000013,
                    "velocity": 0.1889763779527559,
                    "duration": 0.35294125000000065
                },
                {
                    "name": "C#2",
                    "midi": 37,
                    "time": 16.941180000000013,
                    "velocity": 0.23622047244094488,
                    "duration": 0.3529412499999971
                },
                {
                    "name": "F#4",
                    "midi": 66,
                    "time": 17.29412125000001,
                    "velocity": 0.2047244094488189,
                    "duration": 0.35294125000000065
                },
                {
                    "name": "A3",
                    "midi": 57,
                    "time": 17.64706250000001,
                    "velocity": 0.2047244094488189,
                    "duration": 0.35294125000000065
                },
                {
                    "name": "F#4",
                    "midi": 66,
                    "time": 18.000003750000012,
                    "velocity": 0.2047244094488189,
                    "duration": 0.35294125000000065
                },
                {
                    "name": "D#4",
                    "midi": 63,
                    "time": 18.352945000000012,
                    "velocity": 0.2047244094488189,
                    "duration": 0.35294125000000065
                },
                {
                    "name": "F#3",
                    "midi": 54,
                    "time": 18.705886250000013,
                    "velocity": 0.2047244094488189,
                    "duration": 0.35294125000000065
                },
                {
                    "name": "C#3",
                    "midi": 49,
                    "time": 19.058827500000014,
                    "velocity": 0.23622047244094488,
                    "duration": 0.35294125000000065
                },
                {
                    "name": "F#4",
                    "midi": 66,
                    "time": 19.411768750000014,
                    "velocity": 0.2047244094488189,
                    "duration": 0.35294125000000065
                },
                {
                    "name": "A3",
                    "midi": 57,
                    "time": 19.764710000000015,
                    "velocity": 0.2047244094488189,
                    "duration": 0.35294125000000065
                },
                {
                    "name": "F#4",
                    "midi": 66,
                    "time": 20.117651250000016,
                    "velocity": 0.1968503937007874,
                    "duration": 0.35294125000000065
                },
                {
                    "name": "D#4",
                    "midi": 63,
                    "time": 20.470592500000016,
                    "velocity": 0.2204724409448819,
                    "duration": 0.35294125000000065
                },
                {
                    "name": "A3",
                    "midi": 57,
                    "time": 20.823533750000017,
                    "velocity": 0.1968503937007874,
                    "duration": 0.35294125000000065
                },
                {
                    "name": "C#3",
                    "midi": 49,
                    "time": 21.176475000000018,
                    "velocity": 0.23622047244094488,
                    "duration": 0.3529412499999971
                },
                {
                    "name": "F#4",
                    "midi": 66,
                    "time": 21.529416250000015,
                    "velocity": 0.2047244094488189,
                    "duration": 0.35294125000000065
                },
                {
                    "name": "A#3",
                    "midi": 58,
                    "time": 21.882357500000015,
                    "velocity": 0.2047244094488189,
                    "duration": 0.35294125000000065
                },
                {
                    "name": "F#4",
                    "midi": 66,
                    "time": 22.235298750000016,
                    "velocity": 0.2047244094488189,
                    "duration": 0.35294125000000065
                },
                {
                    "name": "D#4",
                    "midi": 63,
                    "time": 22.588240000000017,
                    "velocity": 0.2047244094488189,
                    "duration": 0.35294125000000065
                },
                {
                    "name": "F#3",
                    "midi": 54,
                    "time": 22.941181250000017,
                    "velocity": 0.2047244094488189,
                    "duration": 0.35294125000000065
                },
                {
                    "name": "C#3",
                    "midi": 49,
                    "time": 23.294122500000018,
                    "velocity": 0.23622047244094488,
                    "duration": 0.35294125000000065
                },
                {
                    "name": "F#4",
                    "midi": 66,
                    "time": 23.64706375000002,
                    "velocity": 0.2047244094488189,
                    "duration": 0.35294125000000065
                },
                {
                    "name": "A#3",
                    "midi": 58,
                    "time": 24.00000500000002,
                    "velocity": 0.2047244094488189,
                    "duration": 0.35294125000000065
                },
                {
                    "name": "F#4",
                    "midi": 66,
                    "time": 24.35294625000002,
                    "velocity": 0.1968503937007874,
                    "duration": 0.35294125000000065
                },
                {
                    "name": "D#4",
                    "midi": 63,
                    "time": 24.70588750000002,
                    "velocity": 0.2204724409448819,
                    "duration": 0.35294125000000065
                },
                {
                    "name": "F#3",
                    "midi": 54,
                    "time": 25.05882875000002,
                    "velocity": 0.1968503937007874,
                    "duration": 0.35294125000000065
                },
                {
                    "name": "C3",
                    "midi": 48,
                    "time": 25.411770000000022,
                    "velocity": 0.23622047244094488,
                    "duration": 0.35294125000000065
                },
                {
                    "name": "F#4",
                    "midi": 66,
                    "time": 25.764711250000023,
                    "velocity": 0.2047244094488189,
                    "duration": 0.35294125000000065
                },
                {
                    "name": "A3",
                    "midi": 57,
                    "time": 26.117652500000023,
                    "velocity": 0.1968503937007874,
                    "duration": 0.35294125000000065
                },
                {
                    "name": "F#4",
                    "midi": 66,
                    "time": 26.470593750000024,
                    "velocity": 0.1889763779527559,
                    "duration": 0.35294125000000065
                },
                {
                    "name": "D#4",
                    "midi": 63,
                    "time": 26.823535000000025,
                    "velocity": 0.18110236220472442,
                    "duration": 0.35294125000000065
                },
                {
                    "name": "F#3",
                    "midi": 54,
                    "time": 27.176476250000025,
                    "velocity": 0.18110236220472442,
                    "duration": 0.35294125000000065
                },
                {
                    "name": "A#2",
                    "midi": 46,
                    "time": 27.529417500000026,
                    "velocity": 0.2440944881889764,
                    "duration": 0.35294125000000065
                },
                {
                    "name": "F#4",
                    "midi": 66,
                    "time": 27.882358750000027,
                    "velocity": 0.2125984251968504,
                    "duration": 0.35294125000000065
                },
                {
                    "name": "A#3",
                    "midi": 58,
                    "time": 28.235300000000027,
                    "velocity": 0.2204724409448819,
                    "duration": 0.35294125000000065
                },
                {
                    "name": "F#4",
                    "midi": 66,
                    "time": 28.588241250000028,
                    "velocity": 0.23622047244094488,
                    "duration": 0.35294125000000065
                },
                {
                    "name": "D#4",
                    "midi": 63,
                    "time": 28.94118250000003,
                    "velocity": 0.2440944881889764,
                    "duration": 0.35294125000000065
                },
                {
                    "name": "F#3",
                    "midi": 54,
                    "time": 29.29412375000003,
                    "velocity": 0.2677165354330709,
                    "duration": 0.35294125000000065
                },
                {
                    "name": "A2",
                    "midi": 45,
                    "time": 29.64706500000003,
                    "velocity": 0.2992125984251969,
                    "duration": 0.35294125000000065
                },
                {
                    "name": "F#4",
                    "midi": 66,
                    "time": 30.00000625000003,
                    "velocity": 0.2204724409448819,
                    "duration": 0.35294125000000065
                },
                {
                    "name": "A3",
                    "midi": 57,
                    "time": 30.35294750000003,
                    "velocity": 0.2125984251968504,
                    "duration": 0.35294125000000065
                },
                {
                    "name": "F#4",
                    "midi": 66,
                    "time": 30.70588875000003,
                    "velocity": 0.1968503937007874,
                    "duration": 0.35294125000000065
                },
                {
                    "name": "C#4",
                    "midi": 61,
                    "time": 31.058830000000032,
                    "velocity": 0.1889763779527559,
                    "duration": 0.35294125000000065
                },
                {
                    "name": "D#3",
                    "midi": 51,
                    "time": 31.411771250000033,
                    "velocity": 0.18110236220472442,
                    "duration": 0.35294125000000065
                },
                {
                    "name": "G#2",
                    "midi": 44,
                    "time": 31.764712500000034,
                    "velocity": 0.23622047244094488,
                    "duration": 0.3529412500000042
                },
                {
                    "name": "F#4",
                    "midi": 66,
                    "time": 32.11765375000004,
                    "velocity": 0.1889763779527559,
                    "duration": 0.35294125000000065
                },
                {
                    "name": "G#3",
                    "midi": 56,
                    "time": 32.47059500000004,
                    "velocity": 0.2047244094488189,
                    "duration": 0.35294125000000065
                },
                {
                    "name": "F#4",
                    "midi": 66,
                    "time": 32.82353625000004,
                    "velocity": 0.2204724409448819,
                    "duration": 0.35294125000000065
                },
                {
                    "name": "C4",
                    "midi": 60,
                    "time": 33.17647750000004,
                    "velocity": 0.2283464566929134,
                    "duration": 0.35294125000000065
                },
                {
                    "name": "D#3",
                    "midi": 51,
                    "time": 33.52941875000004,
                    "velocity": 0.23622047244094488,
                    "duration": 0.35294125000000065
                },
                {
                    "name": "C#2",
                    "midi": 37,
                    "time": 33.88236000000004,
                    "velocity": 0.2992125984251969,
                    "duration": 0.35294125000000065
                },
                {
                    "name": "E4",
                    "midi": 64,
                    "time": 34.23530125000004,
                    "velocity": 0.2283464566929134,
                    "duration": 0.17647062500000033
                },
                {
                    "name": "G3",
                    "midi": 55,
                    "time": 34.58824250000004,
                    "velocity": 0.2204724409448819,
                    "duration": 0.35294125000000065
                },
                {
                    "name": "E4",
                    "midi": 64,
                    "time": 34.94118375000004,
                    "velocity": 0.2204724409448819,
                    "duration": 0.17647062500000033
                },
                {
                    "name": "A#3",
                    "midi": 58,
                    "time": 35.294125000000044,
                    "velocity": 0.2204724409448819,
                    "duration": 0.35294125000000065
                },
                {
                    "name": "F3",
                    "midi": 53,
                    "time": 35.647066250000044,
                    "velocity": 0.2125984251968504,
                    "duration": 0.35294125000000065
                },
                {
                    "name": "C#2",
                    "midi": 37,
                    "time": 36.000007500000045,
                    "velocity": 0.2204724409448819,
                    "duration": 0.35294125000000065
                },
                {
                    "name": "F4",
                    "midi": 65,
                    "time": 36.352948750000046,
                    "velocity": 0.18110236220472442,
                    "duration": 0.35294125000000065
                },
                {
                    "name": "G#3",
                    "midi": 56,
                    "time": 36.705890000000046,
                    "velocity": 0.18110236220472442,
                    "duration": 0.35294125000000065
                },
                {
                    "name": "F4",
                    "midi": 65,
                    "time": 37.05883125000005,
                    "velocity": 0.18110236220472442,
                    "duration": 0.35294125000000065
                },
                {
                    "name": "C#4",
                    "midi": 61,
                    "time": 37.41177250000005,
                    "velocity": 0.1889763779527559,
                    "duration": 0.35294125000000065
                },
                {
                    "name": "F3",
                    "midi": 53,
                    "time": 37.76471375000005,
                    "velocity": 0.1968503937007874,
                    "duration": 0.35294125000000065
                },
                {
                    "name": "A#2",
                    "midi": 46,
                    "time": 38.11765500000005,
                    "velocity": 0.2992125984251969,
                    "duration": 0.35294125000000065
                },
                {
                    "name": "F4",
                    "midi": 65,
                    "time": 38.47059625000005,
                    "velocity": 0.2204724409448819,
                    "duration": 0.35294125000000065
                },
                {
                    "name": "A#3",
                    "midi": 58,
                    "time": 38.82353750000005,
                    "velocity": 0.2204724409448819,
                    "duration": 0.35294125000000065
                },
                {
                    "name": "F4",
                    "midi": 65,
                    "time": 39.17647875000005,
                    "velocity": 0.2125984251968504,
                    "duration": 0.35294125000000065
                },
                {
                    "name": "C#4",
                    "midi": 61,
                    "time": 39.52942000000005,
                    "velocity": 0.2047244094488189,
                    "duration": 0.35294125000000065
                },
                {
                    "name": "F3",
                    "midi": 53,
                    "time": 39.88236125000005,
                    "velocity": 0.2047244094488189,
                    "duration": 0.35294125000000065
                },
                {
                    "name": "A#2",
                    "midi": 46,
                    "time": 40.23530250000005,
                    "velocity": 0.25984251968503935,
                    "duration": 0.35294125000000065
                },
                {
                    "name": "F4",
                    "midi": 65,
                    "time": 40.58824375000005,
                    "velocity": 0.2204724409448819,
                    "duration": 0.35294125000000065
                },
                {
                    "name": "A3",
                    "midi": 57,
                    "time": 40.941185000000054,
                    "velocity": 0.2204724409448819,
                    "duration": 0.35294125000000065
                },
                {
                    "name": "F4",
                    "midi": 65,
                    "time": 41.294126250000055,
                    "velocity": 0.2204724409448819,
                    "duration": 0.35294125000000065
                },
                {
                    "name": "D#4",
                    "midi": 63,
                    "time": 41.647067500000055,
                    "velocity": 0.2204724409448819,
                    "duration": 0.35294125000000065
                },
                {
                    "name": "F3",
                    "midi": 53,
                    "time": 42.000008750000056,
                    "velocity": 0.2125984251968504,
                    "duration": 0.35294125000000065
                },
                {
                    "name": "A#2",
                    "midi": 46,
                    "time": 42.35295000000006,
                    "velocity": 0.2992125984251969,
                    "duration": 0.35294125000000065
                },
                {
                    "name": "F4",
                    "midi": 65,
                    "time": 42.70589125000006,
                    "velocity": 0.2204724409448819,
                    "duration": 0.35294125000000065
                },
                {
                    "name": "A#3",
                    "midi": 58,
                    "time": 43.05883250000006,
                    "velocity": 0.2204724409448819,
                    "duration": 0.35294125000000065
                },
                {
                    "name": "F4",
                    "midi": 65,
                    "time": 43.41177375000006,
                    "velocity": 0.2125984251968504,
                    "duration": 0.35294125000000065
                },
                {
                    "name": "C#4",
                    "midi": 61,
                    "time": 43.76471500000006,
                    "velocity": 0.2047244094488189,
                    "duration": 0.35294125000000065
                },
                {
                    "name": "F3",
                    "midi": 53,
                    "time": 44.11765625000006,
                    "velocity": 0.2047244094488189,
                    "duration": 0.35294125000000065
                },
                {
                    "name": "F2",
                    "midi": 41,
                    "time": 44.47059750000006,
                    "velocity": 0.25984251968503935,
                    "duration": 0.35294125000000065
                },
                {
                    "name": "F4",
                    "midi": 65,
                    "time": 44.82353875000006,
                    "velocity": 0.2204724409448819,
                    "duration": 0.35294125000000065
                },
                {
                    "name": "C4",
                    "midi": 60,
                    "time": 45.17648000000006,
                    "velocity": 0.2204724409448819,
                    "duration": 0.35294125000000065
                },
                {
                    "name": "F4",
                    "midi": 65,
                    "time": 45.52942125000006,
                    "velocity": 0.2047244094488189,
                    "duration": 0.35294125000000065
                },
                {
                    "name": "D#4",
                    "midi": 63,
                    "time": 45.88236250000006,
                    "velocity": 0.2204724409448819,
                    "duration": 0.35294125000000065
                },
                {
                    "name": "A3",
                    "midi": 57,
                    "time": 46.235303750000064,
                    "velocity": 0.23622047244094488,
                    "duration": 0.35294125000000065
                },
                {
                    "name": "A#2",
                    "midi": 46,
                    "time": 46.588245000000065,
                    "velocity": 0.2992125984251969,
                    "duration": 0.35294125000000065
                },
                {
                    "name": "F4",
                    "midi": 65,
                    "time": 46.941186250000065,
                    "velocity": 0.2204724409448819,
                    "duration": 0.35294125000000065
                },
                {
                    "name": "A#3",
                    "midi": 58,
                    "time": 47.294127500000066,
                    "velocity": 0.2204724409448819,
                    "duration": 0.35294125000000065
                },
                {
                    "name": "F4",
                    "midi": 65,
                    "time": 47.64706875000007,
                    "velocity": 0.2125984251968504,
                    "duration": 0.35294125000000065
                },
                {
                    "name": "C#4",
                    "midi": 61,
                    "time": 48.00001000000007,
                    "velocity": 0.2047244094488189,
                    "duration": 0.35294125000000065
                },
                {
                    "name": "F3",
                    "midi": 53,
                    "time": 48.35295125000007,
                    "velocity": 0.2047244094488189,
                    "duration": 0.35294125000000065
                },
                {
                    "name": "A#2",
                    "midi": 46,
                    "time": 48.70589250000007,
                    "velocity": 0.25984251968503935,
                    "duration": 0.35294125000000065
                },
                {
                    "name": "F4",
                    "midi": 65,
                    "time": 49.05883375000007,
                    "velocity": 0.2204724409448819,
                    "duration": 0.35294125000000065
                },
                {
                    "name": "A3",
                    "midi": 57,
                    "time": 49.41177500000007,
                    "velocity": 0.2204724409448819,
                    "duration": 0.35294125000000065
                },
                {
                    "name": "F4",
                    "midi": 65,
                    "time": 49.76471625000007,
                    "velocity": 0.2204724409448819,
                    "duration": 0.35294125000000065
                },
                {
                    "name": "D#4",
                    "midi": 63,
                    "time": 50.11765750000007,
                    "velocity": 0.2204724409448819,
                    "duration": 0.35294125000000065
                },
                {
                    "name": "F3",
                    "midi": 53,
                    "time": 50.47059875000007,
                    "velocity": 0.2125984251968504,
                    "duration": 0.35294125000000065
                },
                {
                    "name": "A#2",
                    "midi": 46,
                    "time": 50.82354000000007,
                    "velocity": 0.2992125984251969,
                    "duration": 0.35294125000000065
                },
                {
                    "name": "F4",
                    "midi": 65,
                    "time": 51.17648125000007,
                    "velocity": 0.2204724409448819,
                    "duration": 0.35294125000000065
                },
                {
                    "name": "A#3",
                    "midi": 58,
                    "time": 51.529422500000074,
                    "velocity": 0.2204724409448819,
                    "duration": 0.35294125000000065
                },
                {
                    "name": "F4",
                    "midi": 65,
                    "time": 51.882363750000074,
                    "velocity": 0.2125984251968504,
                    "duration": 0.35294125000000065
                },
                {
                    "name": "C#4",
                    "midi": 61,
                    "time": 52.235305000000075,
                    "velocity": 0.2047244094488189,
                    "duration": 0.35294125000000065
                },
                {
                    "name": "F3",
                    "midi": 53,
                    "time": 52.588246250000076,
                    "velocity": 0.2047244094488189,
                    "duration": 0.35294125000000065
                },
                {
                    "name": "A#2",
                    "midi": 46,
                    "time": 52.941187500000076,
                    "velocity": 0.2677165354330709,
                    "duration": 0.35294124999999354
                },
                {
                    "name": "G#4",
                    "midi": 68,
                    "time": 53.29412875000007,
                    "velocity": 0.2204724409448819,
                    "duration": 0.35294125000000065
                },
                {
                    "name": "A#3",
                    "midi": 58,
                    "time": 53.64707000000007,
                    "velocity": 0.2047244094488189,
                    "duration": 0.35294125000000065
                },
                {
                    "name": "G#4",
                    "midi": 68,
                    "time": 54.00001125000007,
                    "velocity": 0.2204724409448819,
                    "duration": 0.35294125000000065
                },
                {
                    "name": "D4",
                    "midi": 62,
                    "time": 54.35295250000007,
                    "velocity": 0.23622047244094488,
                    "duration": 0.35294125000000065
                },
                {
                    "name": "F3",
                    "midi": 53,
                    "time": 54.70589375000007,
                    "velocity": 0.25196850393700787,
                    "duration": 0.35294125000000065
                },
                {
                    "name": "D#2",
                    "midi": 39,
                    "time": 55.05883500000007,
                    "velocity": 0.2992125984251969,
                    "duration": 0.35294125000000065
                },
                {
                    "name": "F#4",
                    "midi": 66,
                    "time": 55.411776250000074,
                    "velocity": 0.2440944881889764,
                    "duration": 0.35294125000000065
                },
                {
                    "name": "A#3",
                    "midi": 58,
                    "time": 55.764717500000074,
                    "velocity": 0.2283464566929134,
                    "duration": 0.35294125000000065
                },
                {
                    "name": "F#4",
                    "midi": 66,
                    "time": 56.117658750000075,
                    "velocity": 0.2283464566929134,
                    "duration": 0.35294125000000065
                },
                {
                    "name": "D#4",
                    "midi": 63,
                    "time": 56.470600000000076,
                    "velocity": 0.2283464566929134,
                    "duration": 0.35294125000000065
                },
                {
                    "name": "F#3",
                    "midi": 54,
                    "time": 56.823541250000076,
                    "velocity": 0.2283464566929134,
                    "duration": 0.35294125000000065
                },
                {
                    "name": "D#3",
                    "midi": 51,
                    "time": 57.17648250000008,
                    "velocity": 0.30708661417322836,
                    "duration": 0.35294125000000065
                },
                {
                    "name": "G#4",
                    "midi": 68,
                    "time": 57.52942375000008,
                    "velocity": 0.23622047244094488,
                    "duration": 0.35294125000000065
                },
                {
                    "name": "A#3",
                    "midi": 58,
                    "time": 57.88236500000008,
                    "velocity": 0.23622047244094488,
                    "duration": 0.35294125000000065
                },
                {
                    "name": "G#4",
                    "midi": 68,
                    "time": 58.23530625000008,
                    "velocity": 0.23622047244094488,
                    "duration": 0.35294125000000065
                },
                {
                    "name": "D4",
                    "midi": 62,
                    "time": 58.58824750000008,
                    "velocity": 0.23622047244094488,
                    "duration": 0.35294125000000065
                },
                {
                    "name": "F3",
                    "midi": 53,
                    "time": 58.94118875000008,
                    "velocity": 0.23622047244094488,
                    "duration": 0.35294125000000065
                },
                {
                    "name": "D#3",
                    "midi": 51,
                    "time": 59.29413000000008,
                    "velocity": 0.30708661417322836,
                    "duration": 0.35294125000000065
                },
                {
                    "name": "F#4",
                    "midi": 66,
                    "time": 59.64707125000008,
                    "velocity": 0.2440944881889764,
                    "duration": 0.35294125000000065
                },
                {
                    "name": "A#3",
                    "midi": 58,
                    "time": 60.00001250000008,
                    "velocity": 0.2440944881889764,
                    "duration": 0.35294125000000065
                },
                {
                    "name": "F#4",
                    "midi": 66,
                    "time": 60.35295375000008,
                    "velocity": 0.2440944881889764,
                    "duration": 0.35294125000000065
                },
                {
                    "name": "D#4",
                    "midi": 63,
                    "time": 60.70589500000008,
                    "velocity": 0.2283464566929134,
                    "duration": 0.35294125000000065
                },
                {
                    "name": "F#3",
                    "midi": 54,
                    "time": 61.058836250000084,
                    "velocity": 0.2283464566929134,
                    "duration": 0.35294125000000065
                },
                {
                    "name": "A#2",
                    "midi": 46,
                    "time": 61.411777500000085,
                    "velocity": 0.31496062992125984,
                    "duration": 0.35294124999999354
                },
                {
                    "name": "G#4",
                    "midi": 68,
                    "time": 61.76471875000008,
                    "velocity": 0.23622047244094488,
                    "duration": 0.35294125000000065
                },
                {
                    "name": "A#3",
                    "midi": 58,
                    "time": 62.11766000000008,
                    "velocity": 0.25196850393700787,
                    "duration": 0.35294125000000065
                },
                {
                    "name": "G#4",
                    "midi": 68,
                    "time": 62.47060125000008,
                    "velocity": 0.2677165354330709,
                    "duration": 0.35294125000000065
                },
                {
                    "name": "D4",
                    "midi": 62,
                    "time": 62.82354250000008,
                    "velocity": 0.2755905511811024,
                    "duration": 0.35294125000000065
                },
                {
                    "name": "F3",
                    "midi": 53,
                    "time": 63.17648375000008,
                    "velocity": 0.29133858267716534,
                    "duration": 0.35294125000000065
                },
                {
                    "name": "D#2",
                    "midi": 39,
                    "time": 63.52942500000008,
                    "velocity": 0.2992125984251969,
                    "duration": 0.35294125000000065
                },
                {
                    "name": "F#4",
                    "midi": 66,
                    "time": 63.88236625000008,
                    "velocity": 0.2204724409448819,
                    "duration": 0.35294124999999354
                },
                {
                    "name": "A#3",
                    "midi": 58,
                    "time": 64.23530750000008,
                    "velocity": 0.2204724409448819,
                    "duration": 0.35294125000000065
                },
                {
                    "name": "F#4",
                    "midi": 66,
                    "time": 64.58824875000008,
                    "velocity": 0.2125984251968504,
                    "duration": 0.35294125000000065
                },
                {
                    "name": "D#4",
                    "midi": 63,
                    "time": 64.94119000000008,
                    "velocity": 0.2047244094488189,
                    "duration": 0.35294125000000065
                },
                {
                    "name": "F#3",
                    "midi": 54,
                    "time": 65.29413125000008,
                    "velocity": 0.2047244094488189,
                    "duration": 0.35294125000000065
                },
                {
                    "name": "D#3",
                    "midi": 51,
                    "time": 65.64707250000008,
                    "velocity": 0.25984251968503935,
                    "duration": 0.35294125000000065
                },
                {
                    "name": "G#4",
                    "midi": 68,
                    "time": 66.00001375000008,
                    "velocity": 0.2204724409448819,
                    "duration": 0.35294125000000065
                },
                {
                    "name": "A#3",
                    "midi": 58,
                    "time": 66.35295500000008,
                    "velocity": 0.2204724409448819,
                    "duration": 0.35294125000000065
                },
                {
                    "name": "G#4",
                    "midi": 68,
                    "time": 66.70589625000008,
                    "velocity": 0.2204724409448819,
                    "duration": 0.35294125000000065
                },
                {
                    "name": "D4",
                    "midi": 62,
                    "time": 67.05883750000008,
                    "velocity": 0.2204724409448819,
                    "duration": 0.35294125000000065
                },
                {
                    "name": "F3",
                    "midi": 53,
                    "time": 67.41177875000008,
                    "velocity": 0.2125984251968504,
                    "duration": 0.35294125000000065
                },
                {
                    "name": "D#3",
                    "midi": 51,
                    "time": 67.76472000000008,
                    "velocity": 0.3464566929133858,
                    "duration": 0.35294125000000065
                },
                {
                    "name": "F#4",
                    "midi": 66,
                    "time": 68.11766125000008,
                    "velocity": 0.2677165354330709,
                    "duration": 0.35294125000000065
                },
                {
                    "name": "A#3",
                    "midi": 58,
                    "time": 68.47060250000008,
                    "velocity": 0.2677165354330709,
                    "duration": 0.35294125000000065
                },
                {
                    "name": "F#4",
                    "midi": 66,
                    "time": 68.82354375000008,
                    "velocity": 0.2677165354330709,
                    "duration": 0.35294125000000065
                },
                {
                    "name": "D#4",
                    "midi": 63,
                    "time": 69.17648500000008,
                    "velocity": 0.2677165354330709,
                    "duration": 0.35294125000000065
                },
                {
                    "name": "F#3",
                    "midi": 54,
                    "time": 69.52942625000009,
                    "velocity": 0.2677165354330709,
                    "duration": 0.35294125000000065
                },
                {
                    "name": "A2",
                    "midi": 45,
                    "time": 69.88236750000009,
                    "velocity": 0.5039370078740157,
                    "duration": 2.117647500000004
                },
                {
                    "name": "C#4",
                    "midi": 61,
                    "time": 70.23530875000009,
                    "velocity": 0.31496062992125984,
                    "duration": 0.35294125000000065
                },
                {
                    "name": "D#3",
                    "midi": 51,
                    "time": 70.58825000000009,
                    "velocity": 0.33070866141732286,
                    "duration": 0.35294125000000065
                },
                {
                    "name": "C#4",
                    "midi": 61,
                    "time": 70.94119125000009,
                    "velocity": 0.3464566929133858,
                    "duration": 0.35294125000000065
                },
                {
                    "name": "F#3",
                    "midi": 54,
                    "time": 71.29413250000009,
                    "velocity": 0.36220472440944884,
                    "duration": 0.35294125000000065
                },
                {
                    "name": "A2",
                    "midi": 45,
                    "time": 71.64707375000009,
                    "velocity": 0.3779527559055118,
                    "duration": 0.35294125000000065
                },
                {
                    "name": "G#2",
                    "midi": 44,
                    "time": 72.00001500000009,
                    "velocity": 0.4251968503937008,
                    "duration": 0.35294125000000065
                },
                {
                    "name": "C4",
                    "midi": 60,
                    "time": 72.35295625000009,
                    "velocity": 0.3700787401574803,
                    "duration": 0.35294125000000065
                },
                {
                    "name": "D#3",
                    "midi": 51,
                    "time": 72.70589750000009,
                    "velocity": 0.3700787401574803,
                    "duration": 0.35294125000000065
                },
                {
                    "name": "C4",
                    "midi": 60,
                    "time": 73.05883875000009,
                    "velocity": 0.3700787401574803,
                    "duration": 0.35294125000000065
                },
                {
                    "name": "F#3",
                    "midi": 54,
                    "time": 73.41178000000009,
                    "velocity": 0.36220472440944884,
                    "duration": 0.35294125000000065
                },
                {
                    "name": "D#3",
                    "midi": 51,
                    "time": 73.7647212500001,
                    "velocity": 0.36220472440944884,
                    "duration": 0.35294125000000065
                },
                {
                    "name": "A2",
                    "midi": 45,
                    "time": 74.1176625000001,
                    "velocity": 0.5275590551181102,
                    "duration": 2.117647500000018
                },
                {
                    "name": "A3",
                    "midi": 57,
                    "time": 74.47060375000011,
                    "velocity": 0.4015748031496063,
                    "duration": 0.35294125000000065
                },
                {
                    "name": "D#3",
                    "midi": 51,
                    "time": 74.82354500000011,
                    "velocity": 0.4015748031496063,
                    "duration": 0.35294125000000065
                },
                {
                    "name": "A3",
                    "midi": 57,
                    "time": 75.17648625000011,
                    "velocity": 0.4015748031496063,
                    "duration": 0.35294125000000065
                },
                {
                    "name": "F#3",
                    "midi": 54,
                    "time": 75.52942750000011,
                    "velocity": 0.4015748031496063,
                    "duration": 0.35294125000000065
                },
                {
                    "name": "D#3",
                    "midi": 51,
                    "time": 75.88236875000011,
                    "velocity": 0.4015748031496063,
                    "duration": 0.35294125000000065
                },
                {
                    "name": "G#2",
                    "midi": 44,
                    "time": 76.23531000000011,
                    "velocity": 0.3464566929133858,
                    "duration": 0.35294125000001486
                },
                {
                    "name": "G#3",
                    "midi": 56,
                    "time": 76.58825125000013,
                    "velocity": 0.25196850393700787,
                    "duration": 0.35294125000000065
                },
                {
                    "name": "D#3",
                    "midi": 51,
                    "time": 76.94119250000013,
                    "velocity": 0.23622047244094488,
                    "duration": 0.35294125000000065
                },
                {
                    "name": "G#3",
                    "midi": 56,
                    "time": 77.29413375000013,
                    "velocity": 0.2204724409448819,
                    "duration": 0.35294125000000065
                },
                {
                    "name": "F#3",
                    "midi": 54,
                    "time": 77.64707500000013,
                    "velocity": 0.2125984251968504,
                    "duration": 0.35294125000000065
                },
                {
                    "name": "D#3",
                    "midi": 51,
                    "time": 78.00001625000013,
                    "velocity": 0.1968503937007874,
                    "duration": 0.35294125000000065
                },
                {
                    "name": "C#3",
                    "midi": 49,
                    "time": 78.35295750000013,
                    "velocity": 0.2440944881889764,
                    "duration": 0.35294125000000065
                },
                {
                    "name": "E4",
                    "midi": 64,
                    "time": 78.70589875000013,
                    "velocity": 0.2125984251968504,
                    "duration": 0.35294125000000065
                },
                {
                    "name": "F#3",
                    "midi": 54,
                    "time": 79.05884000000013,
                    "velocity": 0.2125984251968504,
                    "duration": 0.35294125000000065
                },
                {
                    "name": "E4",
                    "midi": 64,
                    "time": 79.41178125000013,
                    "velocity": 0.2125984251968504,
                    "duration": 0.35294125000000065
                },
                {
                    "name": "A3",
                    "midi": 57,
                    "time": 79.76472250000013,
                    "velocity": 0.2125984251968504,
                    "duration": 0.35294125000000065
                },
                {
                    "name": "C#3",
                    "midi": 49,
                    "time": 80.11766375000013,
                    "velocity": 0.2204724409448819,
                    "duration": 0.35294125000000065
                },
                {
                    "name": "C3",
                    "midi": 48,
                    "time": 80.47060500000013,
                    "velocity": 0.3464566929133858,
                    "duration": 0.35294125000000065
                },
                {
                    "name": "D#4",
                    "midi": 63,
                    "time": 80.82354625000013,
                    "velocity": 0.23622047244094488,
                    "duration": 0.35294125000000065
                },
                {
                    "name": "F#3",
                    "midi": 54,
                    "time": 81.17648750000014,
                    "velocity": 0.25196850393700787,
                    "duration": 0.35294125000000065
                },
                {
                    "name": "D#4",
                    "midi": 63,
                    "time": 81.52942875000014,
                    "velocity": 0.30708661417322836,
                    "duration": 0.35294125000000065
                },
                {
                    "name": "G#3",
                    "midi": 56,
                    "time": 81.88237000000014,
                    "velocity": 0.33070866141732286,
                    "duration": 0.35294125000000065
                },
                {
                    "name": "F#3",
                    "midi": 54,
                    "time": 82.23531125000014,
                    "velocity": 0.33858267716535434,
                    "duration": 0.35294125000000065
                },
                {
                    "name": "A2",
                    "midi": 45,
                    "time": 82.58825250000014,
                    "velocity": 0.3858267716535433,
                    "duration": 0.35294125000000065
                },
                {
                    "name": "C#4",
                    "midi": 61,
                    "time": 82.94119375000014,
                    "velocity": 0.31496062992125984,
                    "duration": 0.35294125000000065
                },
                {
                    "name": "D#3",
                    "midi": 51,
                    "time": 83.29413500000014,
                    "velocity": 0.2992125984251969,
                    "duration": 0.35294125000000065
                },
                {
                    "name": "C#4",
                    "midi": 61,
                    "time": 83.64707625000014,
                    "velocity": 0.2755905511811024,
                    "duration": 0.35294125000000065
                },
                {
                    "name": "F#3",
                    "midi": 54,
                    "time": 84.00001750000014,
                    "velocity": 0.2755905511811024,
                    "duration": 0.35294125000000065
                },
                {
                    "name": "D#3",
                    "midi": 51,
                    "time": 84.35295875000014,
                    "velocity": 0.25984251968503935,
                    "duration": 0.35294125000000065
                },
                {
                    "name": "G#2",
                    "midi": 44,
                    "time": 84.70590000000014,
                    "velocity": 0.3464566929133858,
                    "duration": 0.35294125000000065
                },
                {
                    "name": "G#3",
                    "midi": 56,
                    "time": 85.05884125000014,
                    "velocity": 0.25196850393700787,
                    "duration": 0.35294125000000065
                },
                {
                    "name": "D#3",
                    "midi": 51,
                    "time": 85.41178250000014,
                    "velocity": 0.23622047244094488,
                    "duration": 0.35294125000000065
                },
                {
                    "name": "G#3",
                    "midi": 56,
                    "time": 85.76472375000014,
                    "velocity": 0.2204724409448819,
                    "duration": 0.35294125000000065
                },
                {
                    "name": "F#3",
                    "midi": 54,
                    "time": 86.11766500000014,
                    "velocity": 0.18110236220472442,
                    "duration": 0.35294125000000065
                },
                {
                    "name": "G#2",
                    "midi": 44,
                    "time": 86.47060625000015,
                    "velocity": 0.1732283464566929,
                    "duration": 0.35294125000000065
                },
                {
                    "name": "C#3",
                    "midi": 49,
                    "time": 86.82354750000015,
                    "velocity": 0.2204724409448819,
                    "duration": 0.35294125000000065
                },
                {
                    "name": "E4",
                    "midi": 64,
                    "time": 87.17648875000015,
                    "velocity": 0.18110236220472442,
                    "duration": 0.35294125000000065
                },
                {
                    "name": "F#3",
                    "midi": 54,
                    "time": 87.52943000000015,
                    "velocity": 0.18110236220472442,
                    "duration": 0.35294125000000065
                },
                {
                    "name": "E4",
                    "midi": 64,
                    "time": 87.88237125000015,
                    "velocity": 0.18110236220472442,
                    "duration": 0.35294125000000065
                },
                {
                    "name": "A3",
                    "midi": 57,
                    "time": 88.23531250000015,
                    "velocity": 0.18110236220472442,
                    "duration": 0.35294125000000065
                },
                {
                    "name": "C#3",
                    "midi": 49,
                    "time": 88.58825375000015,
                    "velocity": 0.1889763779527559,
                    "duration": 0.35294125000000065
                },
                {
                    "name": "C3",
                    "midi": 48,
                    "time": 88.94119500000015,
                    "velocity": 0.2440944881889764,
                    "duration": 0.35294125000000065
                },
                {
                    "name": "D#4",
                    "midi": 63,
                    "time": 89.29413625000015,
                    "velocity": 0.1889763779527559,
                    "duration": 0.35294125000000065
                },
                {
                    "name": "F#3",
                    "midi": 54,
                    "time": 89.64707750000015,
                    "velocity": 0.1889763779527559,
                    "duration": 0.35294125000000065
                },
                {
                    "name": "D#4",
                    "midi": 63,
                    "time": 90.00001875000015,
                    "velocity": 0.1889763779527559,
                    "duration": 0.35294125000000065
                },
                {
                    "name": "A3",
                    "midi": 57,
                    "time": 90.35296000000015,
                    "velocity": 0.1889763779527559,
                    "duration": 0.35294125000000065
                },
                {
                    "name": "F#3",
                    "midi": 54,
                    "time": 90.70590125000015,
                    "velocity": 0.1889763779527559,
                    "duration": 0.35294125000000065
                },
                {
                    "name": "B2",
                    "midi": 47,
                    "time": 91.05884250000015,
                    "velocity": 0.2204724409448819,
                    "duration": 0.35294125000000065
                },
                {
                    "name": "D#4",
                    "midi": 63,
                    "time": 91.41178375000015,
                    "velocity": 0.1889763779527559,
                    "duration": 0.35294125000000065
                },
                {
                    "name": "F#3",
                    "midi": 54,
                    "time": 91.76472500000015,
                    "velocity": 0.1889763779527559,
                    "duration": 0.35294125000000065
                },
                {
                    "name": "D#4",
                    "midi": 63,
                    "time": 92.11766625000016,
                    "velocity": 0.1889763779527559,
                    "duration": 0.35294125000000065
                },
                {
                    "name": "A3",
                    "midi": 57,
                    "time": 92.47060750000016,
                    "velocity": 0.1889763779527559,
                    "duration": 0.35294125000000065
                },
                {
                    "name": "F#3",
                    "midi": 54,
                    "time": 92.82354875000016,
                    "velocity": 0.1889763779527559,
                    "duration": 0.35294125000000065
                },
                {
                    "name": "B2",
                    "midi": 47,
                    "time": 93.17649000000016,
                    "velocity": 0.2440944881889764,
                    "duration": 0.35294125000000065
                },
                {
                    "name": "D#4",
                    "midi": 63,
                    "time": 93.52943125000016,
                    "velocity": 0.1889763779527559,
                    "duration": 0.35294125000000065
                },
                {
                    "name": "F3",
                    "midi": 53,
                    "time": 93.88237250000016,
                    "velocity": 0.1889763779527559,
                    "duration": 0.35294125000000065
                },
                {
                    "name": "D#4",
                    "midi": 63,
                    "time": 94.23531375000016,
                    "velocity": 0.1889763779527559,
                    "duration": 0.35294125000000065
                },
                {
                    "name": "G#3",
                    "midi": 56,
                    "time": 94.58825500000016,
                    "velocity": 0.1889763779527559,
                    "duration": 0.35294125000000065
                },
                {
                    "name": "F3",
                    "midi": 53,
                    "time": 94.94119625000016,
                    "velocity": 0.1889763779527559,
                    "duration": 0.7058825000000013
                },
                {
                    "name": "B2",
                    "midi": 47,
                    "time": 95.29413750000016,
                    "velocity": 0.2204724409448819,
                    "duration": 0.35294125000000065
                },
                {
                    "name": "D4",
                    "midi": 62,
                    "time": 95.64707875000016,
                    "velocity": 0.1889763779527559,
                    "duration": 0.35294125000000065
                },
                {
                    "name": "E3",
                    "midi": 52,
                    "time": 96.00002000000016,
                    "velocity": 0.1889763779527559,
                    "duration": 0.7058825000000013
                },
                {
                    "name": "D4",
                    "midi": 62,
                    "time": 96.35296125000016,
                    "velocity": 0.1889763779527559,
                    "duration": 0.35294125000000065
                },
                {
                    "name": "G#3",
                    "midi": 56,
                    "time": 96.70590250000016,
                    "velocity": 0.1889763779527559,
                    "duration": 0.35294125000000065
                },
                {
                    "name": "E3",
                    "midi": 52,
                    "time": 97.05884375000016,
                    "velocity": 0.1889763779527559,
                    "duration": 0.35294125000000065
                },
                {
                    "name": "A2",
                    "midi": 45,
                    "time": 97.41178500000017,
                    "velocity": 0.2440944881889764,
                    "duration": 0.35294125000001486
                },
                {
                    "name": "C#4",
                    "midi": 61,
                    "time": 97.76472625000018,
                    "velocity": 0.1889763779527559,
                    "duration": 0.35294125000000065
                },
                {
                    "name": "E3",
                    "midi": 52,
                    "time": 98.11766750000018,
                    "velocity": 0.1889763779527559,
                    "duration": 0.35294125000000065
                },
                {
                    "name": "C#4",
                    "midi": 61,
                    "time": 98.47060875000018,
                    "velocity": 0.1889763779527559,
                    "duration": 0.35294125000000065
                },
                {
                    "name": "A3",
                    "midi": 57,
                    "time": 98.82355000000018,
                    "velocity": 0.1889763779527559,
                    "duration": 0.35294125000000065
                },
                {
                    "name": "E3",
                    "midi": 52,
                    "time": 99.17649125000018,
                    "velocity": 0.1889763779527559,
                    "duration": 0.35294125000000065
                },
                {
                    "name": "A2",
                    "midi": 45,
                    "time": 99.52943250000018,
                    "velocity": 0.2204724409448819,
                    "duration": 0.35294125000001486
                },
                {
                    "name": "C#4",
                    "midi": 61,
                    "time": 99.8823737500002,
                    "velocity": 0.1889763779527559,
                    "duration": 0.35294125000000065
                },
                {
                    "name": "D#3",
                    "midi": 51,
                    "time": 100.2353150000002,
                    "velocity": 0.1889763779527559,
                    "duration": 0.35294125000000065
                },
                {
                    "name": "C#4",
                    "midi": 61,
                    "time": 100.5882562500002,
                    "velocity": 0.1889763779527559,
                    "duration": 0.35294125000000065
                },
                {
                    "name": "F#3",
                    "midi": 54,
                    "time": 100.9411975000002,
                    "velocity": 0.1889763779527559,
                    "duration": 0.35294125000000065
                },
                {
                    "name": "D#3",
                    "midi": 51,
                    "time": 101.2941387500002,
                    "velocity": 0.1889763779527559,
                    "duration": 0.35294125000000065
                },
                {
                    "name": "G#2",
                    "midi": 44,
                    "time": 101.6470800000002,
                    "velocity": 0.2440944881889764,
                    "duration": 0.35294125000000065
                },
                {
                    "name": "C4",
                    "midi": 60,
                    "time": 102.0000212500002,
                    "velocity": 0.1889763779527559,
                    "duration": 0.35294125000000065
                },
                {
                    "name": "D#3",
                    "midi": 51,
                    "time": 102.3529625000002,
                    "velocity": 0.1889763779527559,
                    "duration": 0.35294125000000065
                },
                {
                    "name": "C4",
                    "midi": 60,
                    "time": 102.7059037500002,
                    "velocity": 0.1889763779527559,
                    "duration": 0.35294125000000065
                },
                {
                    "name": "F#3",
                    "midi": 54,
                    "time": 103.0588450000002,
                    "velocity": 0.1889763779527559,
                    "duration": 0.35294125000000065
                },
                {
                    "name": "C#3",
                    "midi": 49,
                    "time": 103.4117862500002,
                    "velocity": 0.1889763779527559,
                    "duration": 0.35294125000000065
                },
                {
                    "name": "G#2",
                    "midi": 44,
                    "time": 103.7647275000002,
                    "velocity": 0.2204724409448819,
                    "duration": 0.35294125000000065
                },
                {
                    "name": "G#3",
                    "midi": 56,
                    "time": 104.1176687500002,
                    "velocity": 0.1889763779527559,
                    "duration": 0.35294125000000065
                },
                {
                    "name": "C3",
                    "midi": 48,
                    "time": 104.4706100000002,
                    "velocity": 0.1889763779527559,
                    "duration": 0.35294125000000065
                },
                {
                    "name": "G#3",
                    "midi": 56,
                    "time": 104.82355125000021,
                    "velocity": 0.1889763779527559,
                    "duration": 0.35294125000000065
                },
                {
                    "name": "F#3",
                    "midi": 54,
                    "time": 105.17649250000021,
                    "velocity": 0.1889763779527559,
                    "duration": 0.35294125000000065
                },
                {
                    "name": "D#3",
                    "midi": 51,
                    "time": 105.52943375000021,
                    "velocity": 0.1889763779527559,
                    "duration": 0.35294125000000065
                },
                {
                    "name": "C#2",
                    "midi": 37,
                    "time": 105.88237500000021,
                    "velocity": 0.2125984251968504,
                    "duration": 0.35294125000000065
                },
                {
                    "name": "F4",
                    "midi": 65,
                    "time": 106.23531625000021,
                    "velocity": 0.1732283464566929,
                    "duration": 0.35294125000000065
                },
                {
                    "name": "G#3",
                    "midi": 56,
                    "time": 106.58825750000021,
                    "velocity": 0.1732283464566929,
                    "duration": 0.35294125000000065
                },
                {
                    "name": "F4",
                    "midi": 65,
                    "time": 106.94119875000021,
                    "velocity": 0.1732283464566929,
                    "duration": 0.35294125000000065
                },
                {
                    "name": "C#4",
                    "midi": 61,
                    "time": 107.29414000000021,
                    "velocity": 0.1732283464566929,
                    "duration": 0.35294125000000065
                },
                {
                    "name": "F3",
                    "midi": 53,
                    "time": 107.64708125000021,
                    "velocity": 0.1732283464566929,
                    "duration": 0.35294125000000065
                },
                {
                    "name": "C#3",
                    "midi": 49,
                    "time": 108.00002250000021,
                    "velocity": 0.2125984251968504,
                    "duration": 0.35294125000000065
                },
                {
                    "name": "F4",
                    "midi": 65,
                    "time": 108.35296375000021,
                    "velocity": 0.1732283464566929,
                    "duration": 0.35294125000000065
                },
                {
                    "name": "G#3",
                    "midi": 56,
                    "time": 108.70590500000021,
                    "velocity": 0.1732283464566929,
                    "duration": 0.35294125000000065
                },
                {
                    "name": "F4",
                    "midi": 65,
                    "time": 109.05884625000022,
                    "velocity": 0.1732283464566929,
                    "duration": 0.35294125000000065
                },
                {
                    "name": "C#4",
                    "midi": 61,
                    "time": 109.41178750000022,
                    "velocity": 0.1732283464566929,
                    "duration": 0.35294125000000065
                },
                {
                    "name": "F3",
                    "midi": 53,
                    "time": 109.76472875000022,
                    "velocity": 0.1732283464566929,
                    "duration": 0.35294125000000065
                },
                {
                    "name": "C#3",
                    "midi": 49,
                    "time": 110.11767000000022,
                    "velocity": 0.2125984251968504,
                    "duration": 0.35294125000000065
                },
                {
                    "name": "F4",
                    "midi": 65,
                    "time": 110.47061125000022,
                    "velocity": 0.1889763779527559,
                    "duration": 0.35294125000000065
                },
                {
                    "name": "G#3",
                    "midi": 56,
                    "time": 110.82355250000022,
                    "velocity": 0.1889763779527559,
                    "duration": 0.35294125000000065
                },
                {
                    "name": "F4",
                    "midi": 65,
                    "time": 111.17649375000022,
                    "velocity": 0.18110236220472442,
                    "duration": 0.35294125000000065
                },
                {
                    "name": "C#4",
                    "midi": 61,
                    "time": 111.52943500000022,
                    "velocity": 0.18110236220472442,
                    "duration": 0.35294125000000065
                },
                {
                    "name": "F3",
                    "midi": 53,
                    "time": 111.88237625000022,
                    "velocity": 0.18110236220472442,
                    "duration": 0.35294125000000065
                },
                {
                    "name": "C#3",
                    "midi": 49,
                    "time": 112.23531750000022,
                    "velocity": 0.2204724409448819,
                    "duration": 0.35294125000000065
                },
                {
                    "name": "F4",
                    "midi": 65,
                    "time": 112.58825875000022,
                    "velocity": 0.18110236220472442,
                    "duration": 0.35294125000000065
                },
                {
                    "name": "G#3",
                    "midi": 56,
                    "time": 112.94120000000022,
                    "velocity": 0.18110236220472442,
                    "duration": 0.35294125000000065
                },
                {
                    "name": "F4",
                    "midi": 65,
                    "time": 113.29414125000022,
                    "velocity": 0.1889763779527559,
                    "duration": 0.35294125000000065
                },
                {
                    "name": "C#4",
                    "midi": 61,
                    "time": 113.64708250000022,
                    "velocity": 0.1968503937007874,
                    "duration": 0.35294125000000065
                },
                {
                    "name": "F3",
                    "midi": 53,
                    "time": 114.00002375000022,
                    "velocity": 0.2125984251968504,
                    "duration": 0.35294125000000065
                },
                {
                    "name": "C#3",
                    "midi": 49,
                    "time": 114.35296500000022,
                    "velocity": 0.23622047244094488,
                    "duration": 0.35294125000000065
                },
                {
                    "name": "F4",
                    "midi": 65,
                    "time": 114.70590625000023,
                    "velocity": 0.2047244094488189,
                    "duration": 0.35294125000000065
                },
                {
                    "name": "G#3",
                    "midi": 56,
                    "time": 115.05884750000023,
                    "velocity": 0.1968503937007874,
                    "duration": 0.35294125000000065
                },
                {
                    "name": "F4",
                    "midi": 65,
                    "time": 115.41178875000023,
                    "velocity": 0.1889763779527559,
                    "duration": 0.35294125000000065
                },
                {
                    "name": "C#4",
                    "midi": 61,
                    "time": 115.76473000000023,
                    "velocity": 0.1889763779527559,
                    "duration": 0.35294125000000065
                },
                {
                    "name": "F3",
                    "midi": 53,
                    "time": 116.11767125000023,
                    "velocity": 0.18110236220472442,
                    "duration": 0.35294125000000065
                },
                {
                    "name": "C#3",
                    "midi": 49,
                    "time": 116.47061250000023,
                    "velocity": 0.2125984251968504,
                    "duration": 0.35294125000000065
                },
                {
                    "name": "F4",
                    "midi": 65,
                    "time": 116.82355375000023,
                    "velocity": 0.1732283464566929,
                    "duration": 0.35294125000000065
                },
                {
                    "name": "G#3",
                    "midi": 56,
                    "time": 117.17649500000023,
                    "velocity": 0.1732283464566929,
                    "duration": 0.35294125000000065
                },
                {
                    "name": "F4",
                    "midi": 65,
                    "time": 117.52943625000023,
                    "velocity": 0.1732283464566929,
                    "duration": 0.35294125000000065
                },
                {
                    "name": "C#4",
                    "midi": 61,
                    "time": 117.88237750000023,
                    "velocity": 0.1732283464566929,
                    "duration": 0.35294125000000065
                },
                {
                    "name": "F3",
                    "midi": 53,
                    "time": 118.23531875000023,
                    "velocity": 0.1732283464566929,
                    "duration": 0.35294125000000065
                },
                {
                    "name": "C#2",
                    "midi": 37,
                    "time": 118.58826000000023,
                    "velocity": 0.2204724409448819,
                    "duration": 0.7058825000000013
                },
                {
                    "name": "F#4",
                    "midi": 66,
                    "time": 118.94120125000023,
                    "velocity": 0.1732283464566929,
                    "duration": 0.35294125000000065
                },
                {
                    "name": "A3",
                    "midi": 57,
                    "time": 119.29414250000023,
                    "velocity": 0.1732283464566929,
                    "duration": 0.35294125000000065
                },
                {
                    "name": "F#4",
                    "midi": 66,
                    "time": 119.64708375000023,
                    "velocity": 0.1732283464566929,
                    "duration": 0.35294125000000065
                },
                {
                    "name": "C#4",
                    "midi": 61,
                    "time": 120.00002500000024,
                    "velocity": 0.1732283464566929,
                    "duration": 0.35294125000000065
                },
                {
                    "name": "F#3",
                    "midi": 54,
                    "time": 120.35296625000024,
                    "velocity": 0.1732283464566929,
                    "duration": 0.35294125000000065
                },
                {
                    "name": "C#3",
                    "midi": 49,
                    "time": 120.70590750000024,
                    "velocity": 0.2125984251968504,
                    "duration": 0.35294125000000065
                },
                {
                    "name": "F#4",
                    "midi": 66,
                    "time": 121.05884875000024,
                    "velocity": 0.1732283464566929,
                    "duration": 0.35294125000000065
                },
                {
                    "name": "A3",
                    "midi": 57,
                    "time": 121.41179000000024,
                    "velocity": 0.1732283464566929,
                    "duration": 0.35294125000000065
                },
                {
                    "name": "F#4",
                    "midi": 66,
                    "time": 121.76473125000024,
                    "velocity": 0.1732283464566929,
                    "duration": 0.35294125000000065
                },
                {
                    "name": "D4",
                    "midi": 62,
                    "time": 122.11767250000024,
                    "velocity": 0.2047244094488189,
                    "duration": 0.35294125000000065
                },
                {
                    "name": "F#3",
                    "midi": 54,
                    "time": 122.47061375000024,
                    "velocity": 0.1732283464566929,
                    "duration": 0.35294125000000065
                },
                {
                    "name": "C#3",
                    "midi": 49,
                    "time": 122.82355500000024,
                    "velocity": 0.2204724409448819,
                    "duration": 0.7058825000000013
                },
                {
                    "name": "F#4",
                    "midi": 66,
                    "time": 123.17649625000024,
                    "velocity": 0.1732283464566929,
                    "duration": 0.35294125000000065
                },
                {
                    "name": "A#3",
                    "midi": 58,
                    "time": 123.52943750000024,
                    "velocity": 0.1732283464566929,
                    "duration": 0.35294125000000065
                },
                {
                    "name": "F#4",
                    "midi": 66,
                    "time": 123.88237875000024,
                    "velocity": 0.1732283464566929,
                    "duration": 0.35294125000000065
                },
                {
                    "name": "D#4",
                    "midi": 63,
                    "time": 124.23532000000024,
                    "velocity": 0.1732283464566929,
                    "duration": 0.35294125000000065
                },
                {
                    "name": "F#3",
                    "midi": 54,
                    "time": 124.58826125000024,
                    "velocity": 0.1732283464566929,
                    "duration": 0.35294125000000065
                },
                {
                    "name": "C#3",
                    "midi": 49,
                    "time": 124.94120250000024,
                    "velocity": 0.2125984251968504,
                    "duration": 0.35294125000000065
                },
                {
                    "name": "F#4",
                    "midi": 66,
                    "time": 125.29414375000025,
                    "velocity": 0.1732283464566929,
                    "duration": 0.35294125000000065
                },
                {
                    "name": "A#3",
                    "midi": 58,
                    "time": 125.64708500000025,
                    "velocity": 0.1732283464566929,
                    "duration": 0.35294125000000065
                },
                {
                    "name": "F#4",
                    "midi": 66,
                    "time": 126.00002625000025,
                    "velocity": 0.1732283464566929,
                    "duration": 0.35294125000000065
                },
                {
                    "name": "D#4",
                    "midi": 63,
                    "time": 126.35296750000025,
                    "velocity": 0.1889763779527559,
                    "duration": 0.35294125000000065
                },
                {
                    "name": "F#3",
                    "midi": 54,
                    "time": 126.70590875000025,
                    "velocity": 0.1732283464566929,
                    "duration": 0.35294125000000065
                },
                {
                    "name": "C3",
                    "midi": 48,
                    "time": 127.05885000000025,
                    "velocity": 0.2125984251968504,
                    "duration": 0.35294125000000065
                },
                {
                    "name": "F#4",
                    "midi": 66,
                    "time": 127.41179125000025,
                    "velocity": 0.1732283464566929,
                    "duration": 0.35294125000000065
                },
                {
                    "name": "A3",
                    "midi": 57,
                    "time": 127.76473250000025,
                    "velocity": 0.1732283464566929,
                    "duration": 0.35294125000000065
                },
                {
                    "name": "F#4",
                    "midi": 66,
                    "time": 128.11767375000025,
                    "velocity": 0.1732283464566929,
                    "duration": 0.35294124999998644
                },
                {
                    "name": "D#4",
                    "midi": 63,
                    "time": 128.47061500000024,
                    "velocity": 0.16535433070866143,
                    "duration": 0.35294124999998644
                },
                {
                    "name": "F#3",
                    "midi": 54,
                    "time": 128.82355625000022,
                    "velocity": 0.16535433070866143,
                    "duration": 0.35294124999998644
                },
                {
                    "name": "A#2",
                    "midi": 46,
                    "time": 129.1764975000002,
                    "velocity": 0.2204724409448819,
                    "duration": 0.35294124999998644
                },
                {
                    "name": "F#4",
                    "midi": 66,
                    "time": 129.5294387500002,
                    "velocity": 0.18110236220472442,
                    "duration": 0.35294124999998644
                },
                {
                    "name": "A#3",
                    "midi": 58,
                    "time": 129.88238000000018,
                    "velocity": 0.1968503937007874,
                    "duration": 0.35294124999998644
                },
                {
                    "name": "F#4",
                    "midi": 66,
                    "time": 130.23532125000017,
                    "velocity": 0.2125984251968504,
                    "duration": 0.35294124999998644
                },
                {
                    "name": "D#4",
                    "midi": 63,
                    "time": 130.58826250000016,
                    "velocity": 0.2204724409448819,
                    "duration": 0.35294124999998644
                },
                {
                    "name": "F#3",
                    "midi": 54,
                    "time": 130.94120375000014,
                    "velocity": 0.23622047244094488,
                    "duration": 0.35294124999998644
                },
                {
                    "name": "A2",
                    "midi": 45,
                    "time": 131.29414500000013,
                    "velocity": 0.2677165354330709,
                    "duration": 0.35294124999998644
                },
                {
                    "name": "F#4",
                    "midi": 66,
                    "time": 131.64708625000011,
                    "velocity": 0.1889763779527559,
                    "duration": 0.35294124999998644
                },
                {
                    "name": "A3",
                    "midi": 57,
                    "time": 132.0000275000001,
                    "velocity": 0.18110236220472442,
                    "duration": 0.35294124999998644
                },
                {
                    "name": "F#4",
                    "midi": 66,
                    "time": 132.3529687500001,
                    "velocity": 0.1732283464566929,
                    "duration": 0.35294124999998644
                },
                {
                    "name": "C#4",
                    "midi": 61,
                    "time": 132.70591000000007,
                    "velocity": 0.1732283464566929,
                    "duration": 0.35294124999998644
                },
                {
                    "name": "D#3",
                    "midi": 51,
                    "time": 133.05885125000006,
                    "velocity": 0.16535433070866143,
                    "duration": 0.35294124999998644
                },
                {
                    "name": "G#2",
                    "midi": 44,
                    "time": 133.41179250000005,
                    "velocity": 0.2125984251968504,
                    "duration": 0.35294125000001486
                },
                {
                    "name": "F#4",
                    "midi": 66,
                    "time": 133.76473375000006,
                    "velocity": 0.1732283464566929,
                    "duration": 0.35294124999998644
                },
                {
                    "name": "G#3",
                    "midi": 56,
                    "time": 134.11767500000005,
                    "velocity": 0.1732283464566929,
                    "duration": 0.35294124999998644
                },
                {
                    "name": "F#4",
                    "midi": 66,
                    "time": 134.47061625000003,
                    "velocity": 0.1889763779527559,
                    "duration": 0.35294124999998644
                },
                {
                    "name": "C4",
                    "midi": 60,
                    "time": 134.82355750000002,
                    "velocity": 0.2047244094488189,
                    "duration": 0.35294124999998644
                },
                {
                    "name": "D#3",
                    "midi": 51,
                    "time": 135.17649875,
                    "velocity": 0.2125984251968504,
                    "duration": 0.35294124999998644
                },
                {
                    "name": "C#2",
                    "midi": 37,
                    "time": 135.52944,
                    "velocity": 0.2204724409448819,
                    "duration": 0.35294124999998644
                },
                {
                    "name": "G#4",
                    "midi": 68,
                    "time": 135.88238124999998,
                    "velocity": 0.1889763779527559,
                    "duration": 0.35294124999998644
                },
                {
                    "name": "G#3",
                    "midi": 56,
                    "time": 136.23532249999997,
                    "velocity": 0.1889763779527559,
                    "duration": 0.35294124999998644
                },
                {
                    "name": "G#4",
                    "midi": 68,
                    "time": 136.58826374999995,
                    "velocity": 0.1889763779527559,
                    "duration": 0.35294124999998644
                },
                {
                    "name": "C#4",
                    "midi": 61,
                    "time": 136.94120499999994,
                    "velocity": 0.1889763779527559,
                    "duration": 0.35294124999998644
                },
                {
                    "name": "F3",
                    "midi": 53,
                    "time": 137.29414624999993,
                    "velocity": 0.1889763779527559,
                    "duration": 0.35294124999998644
                },
                {
                    "name": "C#3",
                    "midi": 49,
                    "time": 137.6470874999999,
                    "velocity": 0.2204724409448819,
                    "duration": 0.35294125000001486
                },
                {
                    "name": "F4",
                    "midi": 65,
                    "time": 138.00002874999993,
                    "velocity": 0.1889763779527559,
                    "duration": 0.35294124999998644
                },
                {
                    "name": "G#3",
                    "midi": 56,
                    "time": 138.3529699999999,
                    "velocity": 0.1889763779527559,
                    "duration": 0.35294124999998644
                },
                {
                    "name": "F4",
                    "midi": 65,
                    "time": 138.7059112499999,
                    "velocity": 0.1968503937007874,
                    "duration": 0.35294124999998644
                },
                {
                    "name": "C#4",
                    "midi": 61,
                    "time": 139.0588524999999,
                    "velocity": 0.1968503937007874,
                    "duration": 0.35294124999998644
                },
                {
                    "name": "G#3",
                    "midi": 56,
                    "time": 139.41179374999987,
                    "velocity": 0.1968503937007874,
                    "duration": 0.35294124999998644
                },
                {
                    "name": "C#3",
                    "midi": 49,
                    "time": 139.76473499999986,
                    "velocity": 0.2283464566929134,
                    "duration": 0.35294124999998644
                },
                {
                    "name": "E4",
                    "midi": 64,
                    "time": 140.11767624999985,
                    "velocity": 0.2125984251968504,
                    "duration": 0.35294124999998644
                },
                {
                    "name": "E3",
                    "midi": 52,
                    "time": 140.47061749999983,
                    "velocity": 0.2047244094488189,
                    "duration": 0.35294124999998644
                },
                {
                    "name": "E4",
                    "midi": 64,
                    "time": 140.82355874999982,
                    "velocity": 0.2047244094488189,
                    "duration": 0.35294124999998644
                },
                {
                    "name": "A3",
                    "midi": 57,
                    "time": 141.1764999999998,
                    "velocity": 0.2047244094488189,
                    "duration": 0.35294124999998644
                },
                {
                    "name": "E3",
                    "midi": 52,
                    "time": 141.5294412499998,
                    "velocity": 0.2047244094488189,
                    "duration": 0.35294124999998644
                },
                {
                    "name": "D3",
                    "midi": 50,
                    "time": 141.88238249999978,
                    "velocity": 0.18110236220472442,
                    "duration": 0.35294124999998644
                },
                {
                    "name": "E4",
                    "midi": 64,
                    "time": 142.23532374999976,
                    "velocity": 0.1889763779527559,
                    "duration": 0.35294124999998644
                },
                {
                    "name": "E3",
                    "midi": 52,
                    "time": 142.58826499999975,
                    "velocity": 0.1968503937007874,
                    "duration": 0.35294124999998644
                },
                {
                    "name": "E4",
                    "midi": 64,
                    "time": 142.94120624999974,
                    "velocity": 0.2047244094488189,
                    "duration": 0.35294124999998644
                },
                {
                    "name": "G#3",
                    "midi": 56,
                    "time": 143.29414749999972,
                    "velocity": 0.2125984251968504,
                    "duration": 0.35294124999998644
                },
                {
                    "name": "E3",
                    "midi": 52,
                    "time": 143.6470887499997,
                    "velocity": 0.2204724409448819,
                    "duration": 0.35294124999998644
                },
                {
                    "name": "C#3",
                    "midi": 49,
                    "time": 144.0000299999997,
                    "velocity": 0.2440944881889764,
                    "duration": 0.35294124999998644
                },
                {
                    "name": "E4",
                    "midi": 64,
                    "time": 144.35297124999968,
                    "velocity": 0.2283464566929134,
                    "duration": 0.35294124999998644
                },
                {
                    "name": "E3",
                    "midi": 52,
                    "time": 144.70591249999967,
                    "velocity": 0.2283464566929134,
                    "duration": 0.35294124999998644
                },
                {
                    "name": "E4",
                    "midi": 64,
                    "time": 145.05885374999966,
                    "velocity": 0.2283464566929134,
                    "duration": 0.35294124999998644
                },
                {
                    "name": "A3",
                    "midi": 57,
                    "time": 145.41179499999964,
                    "velocity": 0.2283464566929134,
                    "duration": 0.35294124999998644
                },
                {
                    "name": "E3",
                    "midi": 52,
                    "time": 145.76473624999963,
                    "velocity": 0.2283464566929134,
                    "duration": 0.35294124999998644
                },
                {
                    "name": "G#2",
                    "midi": 44,
                    "time": 146.11767749999962,
                    "velocity": 0.2677165354330709,
                    "duration": 0.35294125000001486
                },
                {
                    "name": "E4",
                    "midi": 64,
                    "time": 146.47061874999963,
                    "velocity": 0.2047244094488189,
                    "duration": 0.35294124999998644
                },
                {
                    "name": "E3",
                    "midi": 52,
                    "time": 146.82355999999962,
                    "velocity": 0.2204724409448819,
                    "duration": 0.35294124999998644
                },
                {
                    "name": "E4",
                    "midi": 64,
                    "time": 147.1765012499996,
                    "velocity": 0.23622047244094488,
                    "duration": 0.35294124999998644
                },
                {
                    "name": "D4",
                    "midi": 62,
                    "time": 147.5294424999996,
                    "velocity": 0.25196850393700787,
                    "duration": 0.35294124999998644
                },
                {
                    "name": "E3",
                    "midi": 52,
                    "time": 147.88238374999958,
                    "velocity": 0.2677165354330709,
                    "duration": 0.35294124999998644
                },
                {
                    "name": "A2",
                    "midi": 45,
                    "time": 148.23532499999956,
                    "velocity": 0.31496062992125984,
                    "duration": 0.35294124999998644
                },
                {
                    "name": "E4",
                    "midi": 64,
                    "time": 148.58826624999955,
                    "velocity": 0.25196850393700787,
                    "duration": 0.35294124999998644
                },
                {
                    "name": "E3",
                    "midi": 52,
                    "time": 148.94120749999954,
                    "velocity": 0.25196850393700787,
                    "duration": 0.35294124999998644
                },
                {
                    "name": "E4",
                    "midi": 64,
                    "time": 149.29414874999952,
                    "velocity": 0.25196850393700787,
                    "duration": 0.35294124999998644
                },
                {
                    "name": "C#4",
                    "midi": 61,
                    "time": 149.6470899999995,
                    "velocity": 0.25196850393700787,
                    "duration": 0.35294124999998644
                },
                {
                    "name": "E3",
                    "midi": 52,
                    "time": 150.0000312499995,
                    "velocity": 0.25196850393700787,
                    "duration": 0.35294124999998644
                },
                {
                    "name": "E2",
                    "midi": 40,
                    "time": 150.35297249999948,
                    "velocity": 0.31496062992125984,
                    "duration": 0.35294124999998644
                },
                {
                    "name": "E4",
                    "midi": 64,
                    "time": 150.70591374999947,
                    "velocity": 0.2677165354330709,
                    "duration": 0.35294124999998644
                },
                {
                    "name": "G#3",
                    "midi": 56,
                    "time": 151.05885499999945,
                    "velocity": 0.2755905511811024,
                    "duration": 0.35294124999998644
                },
                {
                    "name": "E4",
                    "midi": 64,
                    "time": 151.41179624999944,
                    "velocity": 0.2755905511811024,
                    "duration": 0.35294124999998644
                },
                {
                    "name": "D4",
                    "midi": 62,
                    "time": 151.76473749999943,
                    "velocity": 0.2755905511811024,
                    "duration": 0.35294124999998644
                },
                {
                    "name": "E3",
                    "midi": 52,
                    "time": 152.1176787499994,
                    "velocity": 0.2755905511811024,
                    "duration": 0.35294124999998644
                },
                {
                    "name": "A2",
                    "midi": 45,
                    "time": 152.4706199999994,
                    "velocity": 0.3937007874015748,
                    "duration": 0.35294124999998644
                },
                {
                    "name": "E4",
                    "midi": 64,
                    "time": 152.8235612499994,
                    "velocity": 0.30708661417322836,
                    "duration": 0.35294124999998644
                },
                {
                    "name": "A3",
                    "midi": 57,
                    "time": 153.17650249999937,
                    "velocity": 0.30708661417322836,
                    "duration": 0.35294124999998644
                },
                {
                    "name": "E4",
                    "midi": 64,
                    "time": 153.52944374999936,
                    "velocity": 0.30708661417322836,
                    "duration": 0.35294124999998644
                },
                {
                    "name": "C#4",
                    "midi": 61,
                    "time": 153.88238499999935,
                    "velocity": 0.30708661417322836,
                    "duration": 0.35294124999998644
                },
                {
                    "name": "E3",
                    "midi": 52,
                    "time": 154.23532624999933,
                    "velocity": 0.30708661417322836,
                    "duration": 0.35294124999998644
                },
                {
                    "name": "D#2",
                    "midi": 39,
                    "time": 154.58826749999932,
                    "velocity": 0.5118110236220472,
                    "duration": 0.35294125000001486
                },
                {
                    "name": "F#4",
                    "midi": 66,
                    "time": 154.94120874999933,
                    "velocity": 0.31496062992125984,
                    "duration": 0.35294124999998644
                },
                {
                    "name": "A3",
                    "midi": 57,
                    "time": 155.29414999999932,
                    "velocity": 0.33070866141732286,
                    "duration": 0.35294124999998644
                },
                {
                    "name": "F#4",
                    "midi": 66,
                    "time": 155.6470912499993,
                    "velocity": 0.3464566929133858,
                    "duration": 0.35294124999998644
                },
                {
                    "name": "C#4",
                    "midi": 61,
                    "time": 156.0000324999993,
                    "velocity": 0.36220472440944884,
                    "duration": 0.35294124999998644
                },
                {
                    "name": "D#3",
                    "midi": 51,
                    "time": 156.35297374999928,
                    "velocity": 0.3779527559055118,
                    "duration": 0.35294124999998644
                },
                {
                    "name": "G#2",
                    "midi": 44,
                    "time": 156.70591499999927,
                    "velocity": 0.3937007874015748,
                    "duration": 0.35294124999998644
                },
                {
                    "name": "F#4",
                    "midi": 66,
                    "time": 157.05885624999925,
                    "velocity": 0.30708661417322836,
                    "duration": 0.35294124999998644
                },
                {
                    "name": "G#3",
                    "midi": 56,
                    "time": 157.41179749999924,
                    "velocity": 0.30708661417322836,
                    "duration": 0.35294124999998644
                },
                {
                    "name": "F#4",
                    "midi": 66,
                    "time": 157.76473874999922,
                    "velocity": 0.30708661417322836,
                    "duration": 0.35294124999998644
                },
                {
                    "name": "C#4",
                    "midi": 61,
                    "time": 158.1176799999992,
                    "velocity": 0.30708661417322836,
                    "duration": 0.35294124999998644
                },
                {
                    "name": "D#3",
                    "midi": 51,
                    "time": 158.4706212499992,
                    "velocity": 0.30708661417322836,
                    "duration": 0.35294124999998644
                },
                {
                    "name": "G#2",
                    "midi": 44,
                    "time": 158.82356249999918,
                    "velocity": 0.49606299212598426,
                    "duration": 0.35294125000001486
                },
                {
                    "name": "F#4",
                    "midi": 66,
                    "time": 159.1765037499992,
                    "velocity": 0.31496062992125984,
                    "duration": 0.35294124999998644
                },
                {
                    "name": "G#3",
                    "midi": 56,
                    "time": 159.52944499999919,
                    "velocity": 0.33070866141732286,
                    "duration": 0.35294124999998644
                },
                {
                    "name": "F#4",
                    "midi": 66,
                    "time": 159.88238624999917,
                    "velocity": 0.3464566929133858,
                    "duration": 0.35294124999998644
                },
                {
                    "name": "C4",
                    "midi": 60,
                    "time": 160.23532749999916,
                    "velocity": 0.36220472440944884,
                    "duration": 0.35294124999998644
                },
                {
                    "name": "D#3",
                    "midi": 51,
                    "time": 160.58826874999914,
                    "velocity": 0.3779527559055118,
                    "duration": 0.35294124999998644
                },
                {
                    "name": "G#2",
                    "midi": 44,
                    "time": 160.94120999999913,
                    "velocity": 0.3937007874015748,
                    "duration": 0.35294124999998644
                },
                {
                    "name": "E4",
                    "midi": 64,
                    "time": 161.29415124999912,
                    "velocity": 0.30708661417322836,
                    "duration": 0.35294124999998644
                },
                {
                    "name": "G#3",
                    "midi": 56,
                    "time": 161.6470924999991,
                    "velocity": 0.30708661417322836,
                    "duration": 0.35294124999998644
                },
                {
                    "name": "E4",
                    "midi": 64,
                    "time": 162.0000337499991,
                    "velocity": 0.30708661417322836,
                    "duration": 0.35294124999998644
                },
                {
                    "name": "C#4",
                    "midi": 61,
                    "time": 162.35297499999908,
                    "velocity": 0.30708661417322836,
                    "duration": 0.35294124999998644
                },
                {
                    "name": "E3",
                    "midi": 52,
                    "time": 162.70591624999906,
                    "velocity": 0.30708661417322836,
                    "duration": 0.35294124999998644
                },
                {
                    "name": "G#1",
                    "midi": 32,
                    "time": 163.05885749999905,
                    "velocity": 0.4566929133858268,
                    "duration": 0.35294124999998644
                },
                {
                    "name": "E4",
                    "midi": 64,
                    "time": 163.41179874999904,
                    "velocity": 0.31496062992125984,
                    "duration": 0.35294124999998644
                },
                {
                    "name": "G#3",
                    "midi": 56,
                    "time": 163.76473999999902,
                    "velocity": 0.33070866141732286,
                    "duration": 0.35294124999998644
                },
                {
                    "name": "E4",
                    "midi": 64,
                    "time": 164.117681249999,
                    "velocity": 0.3464566929133858,
                    "duration": 0.35294124999998644
                },
                {
                    "name": "C#4",
                    "midi": 61,
                    "time": 164.470622499999,
                    "velocity": 0.36220472440944884,
                    "duration": 0.35294124999998644
                },
                {
                    "name": "E3",
                    "midi": 52,
                    "time": 164.82356374999898,
                    "velocity": 0.3779527559055118,
                    "duration": 0.35294124999998644
                },
                {
                    "name": "G#2",
                    "midi": 44,
                    "time": 165.17650499999897,
                    "velocity": 0.5118110236220472,
                    "duration": 0.35294124999998644
                },
                {
                    "name": "D#4",
                    "midi": 63,
                    "time": 165.52944624999895,
                    "velocity": 0.4015748031496063,
                    "duration": 0.35294124999998644
                },
                {
                    "name": "F#3",
                    "midi": 54,
                    "time": 165.88238749999894,
                    "velocity": 0.4015748031496063,
                    "duration": 0.35294124999998644
                },
                {
                    "name": "D#4",
                    "midi": 63,
                    "time": 166.23532874999893,
                    "velocity": 0.4015748031496063,
                    "duration": 0.35294124999998644
                },
                {
                    "name": "C4",
                    "midi": 60,
                    "time": 166.58826999999891,
                    "velocity": 0.4015748031496063,
                    "duration": 0.35294124999998644
                },
                {
                    "name": "D#3",
                    "midi": 51,
                    "time": 166.9412112499989,
                    "velocity": 0.4015748031496063,
                    "duration": 0.35294124999998644
                },
                {
                    "name": "G#1",
                    "midi": 32,
                    "time": 167.2941524999989,
                    "velocity": 0.5039370078740157,
                    "duration": 0.35294124999998644
                },
                {
                    "name": "D#4",
                    "midi": 63,
                    "time": 167.64709374999887,
                    "velocity": 0.3779527559055118,
                    "duration": 0.35294124999998644
                },
                {
                    "name": "F#3",
                    "midi": 54,
                    "time": 168.00003499999886,
                    "velocity": 0.4015748031496063,
                    "duration": 0.35294124999998644
                },
                {
                    "name": "D#4",
                    "midi": 63,
                    "time": 168.35297624999885,
                    "velocity": 0.4251968503937008,
                    "duration": 0.35294124999998644
                },
                {
                    "name": "C4",
                    "midi": 60,
                    "time": 168.70591749999883,
                    "velocity": 0.44881889763779526,
                    "duration": 0.35294124999998644
                },
                {
                    "name": "D#3",
                    "midi": 51,
                    "time": 169.05885874999882,
                    "velocity": 0.4645669291338583,
                    "duration": 0.35294124999998644
                },
                {
                    "name": "A2",
                    "midi": 45,
                    "time": 169.4117999999988,
                    "velocity": 0.5984251968503937,
                    "duration": 0.35294124999998644
                },
                {
                    "name": "D#4",
                    "midi": 63,
                    "time": 169.7647412499988,
                    "velocity": 0.4330708661417323,
                    "duration": 0.35294124999998644
                },
                {
                    "name": "F#3",
                    "midi": 54,
                    "time": 170.11768249999878,
                    "velocity": 0.4409448818897638,
                    "duration": 0.35294124999998644
                },
                {
                    "name": "D#4",
                    "midi": 63,
                    "time": 170.47062374999877,
                    "velocity": 0.44881889763779526,
                    "duration": 0.35294124999998644
                },
                {
                    "name": "C4",
                    "midi": 60,
                    "time": 170.82356499999875,
                    "velocity": 0.44881889763779526,
                    "duration": 0.35294124999998644
                },
                {
                    "name": "D#3",
                    "midi": 51,
                    "time": 171.17650624999874,
                    "velocity": 0.44881889763779526,
                    "duration": 0.35294124999998644
                },
                {
                    "name": "A1",
                    "midi": 33,
                    "time": 171.52944749999872,
                    "velocity": 0.6456692913385826,
                    "duration": 0.35294124999998644
                },
                {
                    "name": "D#4",
                    "midi": 63,
                    "time": 171.8823887499987,
                    "velocity": 0.44881889763779526,
                    "duration": 0.35294124999998644
                },
                {
                    "name": "F#3",
                    "midi": 54,
                    "time": 172.2353299999987,
                    "velocity": 0.4566929133858268,
                    "duration": 0.35294124999998644
                },
                {
                    "name": "D#4",
                    "midi": 63,
                    "time": 172.58827124999868,
                    "velocity": 0.4645669291338583,
                    "duration": 0.35294124999998644
                },
                {
                    "name": "B3",
                    "midi": 59,
                    "time": 172.94121249999867,
                    "velocity": 0.4881889763779528,
                    "duration": 0.35294124999998644
                },
                {
                    "name": "D#3",
                    "midi": 51,
                    "time": 173.29415374999866,
                    "velocity": 0.49606299212598426,
                    "duration": 0.35294124999998644
                },
                {
                    "name": "A#2",
                    "midi": 46,
                    "time": 173.64709499999864,
                    "velocity": 0.6614173228346457,
                    "duration": 0.35294124999998644
                },
                {
                    "name": "D#4",
                    "midi": 63,
                    "time": 174.00003624999863,
                    "velocity": 0.4094488188976378,
                    "duration": 0.35294124999998644
                },
                {
                    "name": "F#3",
                    "midi": 54,
                    "time": 174.35297749999862,
                    "velocity": 0.4094488188976378,
                    "duration": 0.35294124999998644
                },
                {
                    "name": "D#4",
                    "midi": 63,
                    "time": 174.7059187499986,
                    "velocity": 0.4251968503937008,
                    "duration": 0.35294124999998644
                },
                {
                    "name": "A#3",
                    "midi": 58,
                    "time": 175.0588599999986,
                    "velocity": 0.4251968503937008,
                    "duration": 0.35294124999998644
                },
                {
                    "name": "D#3",
                    "midi": 51,
                    "time": 175.41180124999858,
                    "velocity": 0.4094488188976378,
                    "duration": 0.35294124999998644
                },
                {
                    "name": "A#1",
                    "midi": 34,
                    "time": 175.76474249999856,
                    "velocity": 0.6299212598425197,
                    "duration": 0.35294124999998644
                },
                {
                    "name": "D#4",
                    "midi": 63,
                    "time": 176.11768374999855,
                    "velocity": 0.4409448818897638,
                    "duration": 0.35294124999998644
                },
                {
                    "name": "F#3",
                    "midi": 54,
                    "time": 176.47062499999853,
                    "velocity": 0.4409448818897638,
                    "duration": 0.35294124999998644
                },
                {
                    "name": "D#4",
                    "midi": 63,
                    "time": 176.82356624999852,
                    "velocity": 0.4409448818897638,
                    "duration": 0.35294124999998644
                },
                {
                    "name": "A#3",
                    "midi": 58,
                    "time": 177.1765074999985,
                    "velocity": 0.4409448818897638,
                    "duration": 0.35294124999998644
                },
                {
                    "name": "D#3",
                    "midi": 51,
                    "time": 177.5294487499985,
                    "velocity": 0.4409448818897638,
                    "duration": 0.35294124999998644
                },
                {
                    "name": "B2",
                    "midi": 47,
                    "time": 177.88238999999848,
                    "velocity": 0.5590551181102362,
                    "duration": 0.35294124999998644
                },
                {
                    "name": "D#4",
                    "midi": 63,
                    "time": 178.23533124999847,
                    "velocity": 0.4094488188976378,
                    "duration": 0.35294124999998644
                },
                {
                    "name": "F#3",
                    "midi": 54,
                    "time": 178.58827249999845,
                    "velocity": 0.4094488188976378,
                    "duration": 0.35294124999998644
                },
                {
                    "name": "D#4",
                    "midi": 63,
                    "time": 178.94121374999844,
                    "velocity": 0.4251968503937008,
                    "duration": 0.35294124999998644
                },
                {
                    "name": "A3",
                    "midi": 57,
                    "time": 179.29415499999843,
                    "velocity": 0.4251968503937008,
                    "duration": 0.35294124999998644
                },
                {
                    "name": "D#3",
                    "midi": 51,
                    "time": 179.6470962499984,
                    "velocity": 0.4094488188976378,
                    "duration": 0.35294124999998644
                },
                {
                    "name": "B1",
                    "midi": 35,
                    "time": 180.0000374999984,
                    "velocity": 0.6220472440944882,
                    "duration": 0.35294124999998644
                },
                {
                    "name": "D#4",
                    "midi": 63,
                    "time": 180.35297874999839,
                    "velocity": 0.4409448818897638,
                    "duration": 0.35294124999998644
                },
                {
                    "name": "F#3",
                    "midi": 54,
                    "time": 180.70591999999837,
                    "velocity": 0.4409448818897638,
                    "duration": 0.35294124999998644
                },
                {
                    "name": "D#4",
                    "midi": 63,
                    "time": 181.05886124999836,
                    "velocity": 0.4409448818897638,
                    "duration": 0.35294124999998644
                },
                {
                    "name": "A3",
                    "midi": 57,
                    "time": 181.41180249999834,
                    "velocity": 0.4409448818897638,
                    "duration": 0.35294124999998644
                },
                {
                    "name": "D#3",
                    "midi": 51,
                    "time": 181.76474374999833,
                    "velocity": 0.4409448818897638,
                    "duration": 0.35294124999998644
                },
                {
                    "name": "C3",
                    "midi": 48,
                    "time": 182.11768499999832,
                    "velocity": 0.5511811023622047,
                    "duration": 1.4117649999999458
                },
                {
                    "name": "D#4",
                    "midi": 63,
                    "time": 182.4706262499983,
                    "velocity": 0.4094488188976378,
                    "duration": 0.35294124999998644
                },
                {
                    "name": "F#3",
                    "midi": 54,
                    "time": 182.8235674999983,
                    "velocity": 0.4094488188976378,
                    "duration": 0.35294124999998644
                },
                {
                    "name": "D#4",
                    "midi": 63,
                    "time": 183.17650874999828,
                    "velocity": 0.4251968503937008,
                    "duration": 0.35294124999998644
                },
                {
                    "name": "A3",
                    "midi": 57,
                    "time": 183.52944999999826,
                    "velocity": 0.4251968503937008,
                    "duration": 0.35294124999998644
                },
                {
                    "name": "D#3",
                    "midi": 51,
                    "time": 183.88239124999825,
                    "velocity": 0.4094488188976378,
                    "duration": 0.35294124999998644
                },
                {
                    "name": "C#3",
                    "midi": 49,
                    "time": 184.23533249999824,
                    "velocity": 0.5196850393700787,
                    "duration": 1.4117649999999458
                },
                {
                    "name": "C#4",
                    "midi": 61,
                    "time": 184.58827374999822,
                    "velocity": 0.4094488188976378,
                    "duration": 0.35294124999998644
                },
                {
                    "name": "F#3",
                    "midi": 54,
                    "time": 184.9412149999982,
                    "velocity": 0.4094488188976378,
                    "duration": 0.35294124999998644
                },
                {
                    "name": "A3",
                    "midi": 57,
                    "time": 185.2941562499982,
                    "velocity": 0.4251968503937008,
                    "duration": 0.35294124999998644
                },
                {
                    "name": "D3",
                    "midi": 50,
                    "time": 185.64709749999818,
                    "velocity": 0.5196850393700787,
                    "duration": 1.4117649999999458
                },
                {
                    "name": "C4",
                    "midi": 60,
                    "time": 186.00003874999817,
                    "velocity": 0.4094488188976378,
                    "duration": 0.35294124999998644
                },
                {
                    "name": "F#3",
                    "midi": 54,
                    "time": 186.35297999999815,
                    "velocity": 0.4094488188976378,
                    "duration": 0.35294124999998644
                },
                {
                    "name": "A3",
                    "midi": 57,
                    "time": 186.70592124999814,
                    "velocity": 0.4251968503937008,
                    "duration": 0.35294124999998644
                },
                {
                    "name": "D#3",
                    "midi": 51,
                    "time": 187.05886249999813,
                    "velocity": 0.5196850393700787,
                    "duration": 1.4117649999999742
                },
                {
                    "name": "D#4",
                    "midi": 63,
                    "time": 187.41180374999814,
                    "velocity": 0.4094488188976378,
                    "duration": 0.35294124999998644
                },
                {
                    "name": "F#3",
                    "midi": 54,
                    "time": 187.76474499999813,
                    "velocity": 0.4094488188976378,
                    "duration": 0.35294124999998644
                },
                {
                    "name": "G#3",
                    "midi": 56,
                    "time": 188.11768624999812,
                    "velocity": 0.4330708661417323,
                    "duration": 0.35294124999998644
                },
                {
                    "name": "G#2",
                    "midi": 44,
                    "time": 188.4706274999981,
                    "velocity": 0.5196850393700787,
                    "duration": 0.35294124999998644
                },
                {
                    "name": "F#4",
                    "midi": 66,
                    "time": 188.8235687499981,
                    "velocity": 0.4094488188976378,
                    "duration": 0.35294124999998644
                },
                {
                    "name": "G#3",
                    "midi": 56,
                    "time": 189.17650999999807,
                    "velocity": 0.4015748031496063,
                    "duration": 0.35294124999998644
                },
                {
                    "name": "F#4",
                    "midi": 66,
                    "time": 189.52945124999806,
                    "velocity": 0.3937007874015748,
                    "duration": 0.35294124999998644
                },
                {
                    "name": "C4",
                    "midi": 60,
                    "time": 189.88239249999805,
                    "velocity": 0.3858267716535433,
                    "duration": 0.35294124999998644
                },
                {
                    "name": "F#3",
                    "midi": 54,
                    "time": 190.23533374999803,
                    "velocity": 0.3700787401574803,
                    "duration": 0.35294124999998644
                },
                {
                    "name": "C#2",
                    "midi": 37,
                    "time": 190.58827499999802,
                    "velocity": 0.5984251968503937,
                    "duration": 0.35294124999998644
                },
                {
                    "name": "F4",
                    "midi": 65,
                    "time": 190.941216249998,
                    "velocity": 0.3464566929133858,
                    "duration": 0.35294124999998644
                },
                {
                    "name": "G#3",
                    "midi": 56,
                    "time": 191.294157499998,
                    "velocity": 0.3779527559055118,
                    "duration": 0.35294124999998644
                },
                {
                    "name": "F4",
                    "midi": 65,
                    "time": 191.64709874999798,
                    "velocity": 0.3779527559055118,
                    "duration": 0.35294124999998644
                },
                {
                    "name": "C#4",
                    "midi": 61,
                    "time": 192.00003999999797,
                    "velocity": 0.3779527559055118,
                    "duration": 0.35294124999998644
                },
                {
                    "name": "F3",
                    "midi": 53,
                    "time": 192.35298124999795,
                    "velocity": 0.3700787401574803,
                    "duration": 0.35294124999998644
                },
                {
                    "name": "C#3",
                    "midi": 49,
                    "time": 192.70592249999794,
                    "velocity": 0.4409448818897638,
                    "duration": 0.35294124999998644
                },
                {
                    "name": "F4",
                    "midi": 65,
                    "time": 193.05886374999793,
                    "velocity": 0.3464566929133858,
                    "duration": 0.35294124999998644
                },
                {
                    "name": "G#3",
                    "midi": 56,
                    "time": 193.4118049999979,
                    "velocity": 0.3464566929133858,
                    "duration": 0.35294124999998644
                },
                {
                    "name": "F4",
                    "midi": 65,
                    "time": 193.7647462499979,
                    "velocity": 0.3464566929133858,
                    "duration": 0.35294124999998644
                },
                {
                    "name": "C#4",
                    "midi": 61,
                    "time": 194.11768749999788,
                    "velocity": 0.3464566929133858,
                    "duration": 0.35294124999998644
                },
                {
                    "name": "F3",
                    "midi": 53,
                    "time": 194.47062874999787,
                    "velocity": 0.3464566929133858,
                    "duration": 0.35294124999998644
                },
                {
                    "name": "C#3",
                    "midi": 49,
                    "time": 194.82356999999786,
                    "velocity": 0.4094488188976378,
                    "duration": 0.35294124999998644
                },
                {
                    "name": "F4",
                    "midi": 65,
                    "time": 195.17651124999784,
                    "velocity": 0.3779527559055118,
                    "duration": 0.35294124999998644
                },
                {
                    "name": "G#3",
                    "midi": 56,
                    "time": 195.52945249999783,
                    "velocity": 0.3779527559055118,
                    "duration": 0.35294124999998644
                },
                {
                    "name": "F4",
                    "midi": 65,
                    "time": 195.88239374999782,
                    "velocity": 0.36220472440944884,
                    "duration": 0.35294124999998644
                },
                {
                    "name": "C#4",
                    "midi": 61,
                    "time": 196.2353349999978,
                    "velocity": 0.36220472440944884,
                    "duration": 0.35294124999998644
                },
                {
                    "name": "F3",
                    "midi": 53,
                    "time": 196.5882762499978,
                    "velocity": 0.36220472440944884,
                    "duration": 0.35294124999998644
                },
                {
                    "name": "C#3",
                    "midi": 49,
                    "time": 196.94121749999778,
                    "velocity": 0.4251968503937008,
                    "duration": 0.35294124999998644
                },
                {
                    "name": "F4",
                    "midi": 65,
                    "time": 197.29415874999776,
                    "velocity": 0.36220472440944884,
                    "duration": 0.35294124999998644
                },
                {
                    "name": "G#3",
                    "midi": 56,
                    "time": 197.64709999999775,
                    "velocity": 0.36220472440944884,
                    "duration": 0.35294124999998644
                },
                {
                    "name": "F4",
                    "midi": 65,
                    "time": 198.00004124999774,
                    "velocity": 0.3779527559055118,
                    "duration": 0.35294124999998644
                },
                {
                    "name": "C#4",
                    "midi": 61,
                    "time": 198.35298249999772,
                    "velocity": 0.3858267716535433,
                    "duration": 0.35294124999998644
                },
                {
                    "name": "F3",
                    "midi": 53,
                    "time": 198.7059237499977,
                    "velocity": 0.4094488188976378,
                    "duration": 0.35294124999998644
                },
                {
                    "name": "C#3",
                    "midi": 49,
                    "time": 199.0588649999977,
                    "velocity": 0.4645669291338583,
                    "duration": 0.35294124999998644
                },
                {
                    "name": "F4",
                    "midi": 65,
                    "time": 199.41180624999768,
                    "velocity": 0.4015748031496063,
                    "duration": 0.35294124999998644
                },
                {
                    "name": "G#3",
                    "midi": 56,
                    "time": 199.76474749999767,
                    "velocity": 0.3858267716535433,
                    "duration": 0.35294124999998644
                },
                {
                    "name": "F4",
                    "midi": 65,
                    "time": 200.11768874999765,
                    "velocity": 0.3779527559055118,
                    "duration": 0.35294124999998644
                },
                {
                    "name": "C#4",
                    "midi": 61,
                    "time": 200.47062999999764,
                    "velocity": 0.3779527559055118,
                    "duration": 0.35294124999998644
                },
                {
                    "name": "F3",
                    "midi": 53,
                    "time": 200.82357124999763,
                    "velocity": 0.36220472440944884,
                    "duration": 0.35294124999998644
                },
                {
                    "name": "C#3",
                    "midi": 49,
                    "time": 201.1765124999976,
                    "velocity": 0.4094488188976378,
                    "duration": 0.35294124999998644
                },
                {
                    "name": "F4",
                    "midi": 65,
                    "time": 201.5294537499976,
                    "velocity": 0.3464566929133858,
                    "duration": 0.35294124999998644
                },
                {
                    "name": "G#3",
                    "midi": 56,
                    "time": 201.8823949999976,
                    "velocity": 0.3464566929133858,
                    "duration": 0.35294124999998644
                },
                {
                    "name": "F4",
                    "midi": 65,
                    "time": 202.23533624999757,
                    "velocity": 0.3464566929133858,
                    "duration": 0.35294124999998644
                },
                {
                    "name": "C#4",
                    "midi": 61,
                    "time": 202.58827749999756,
                    "velocity": 0.3464566929133858,
                    "duration": 0.35294124999998644
                },
                {
                    "name": "F3",
                    "midi": 53,
                    "time": 202.94121874999755,
                    "velocity": 0.33070866141732286,
                    "duration": 0.35294124999998644
                },
                {
                    "name": "C#2",
                    "midi": 37,
                    "time": 203.29415999999753,
                    "velocity": 0.4094488188976378,
                    "duration": 0.35294124999998644
                },
                {
                    "name": "F4",
                    "midi": 65,
                    "time": 203.64710124999752,
                    "velocity": 0.3464566929133858,
                    "duration": 0.35294124999998644
                },
                {
                    "name": "G#3",
                    "midi": 56,
                    "time": 204.0000424999975,
                    "velocity": 0.3464566929133858,
                    "duration": 0.35294124999998644
                },
                {
                    "name": "F4",
                    "midi": 65,
                    "time": 204.3529837499975,
                    "velocity": 0.3464566929133858,
                    "duration": 0.35294124999998644
                },
                {
                    "name": "C#4",
                    "midi": 61,
                    "time": 204.70592499999748,
                    "velocity": 0.3464566929133858,
                    "duration": 0.35294124999998644
                },
                {
                    "name": "F3",
                    "midi": 53,
                    "time": 205.05886624999746,
                    "velocity": 0.3464566929133858,
                    "duration": 0.35294124999998644
                },
                {
                    "name": "C#3",
                    "midi": 49,
                    "time": 205.41180749999745,
                    "velocity": 0.4094488188976378,
                    "duration": 0.35294124999998644
                },
                {
                    "name": "F4",
                    "midi": 65,
                    "time": 205.76474874999744,
                    "velocity": 0.3464566929133858,
                    "duration": 0.35294124999998644
                },
                {
                    "name": "G#3",
                    "midi": 56,
                    "time": 206.11768999999742,
                    "velocity": 0.3464566929133858,
                    "duration": 0.35294124999998644
                },
                {
                    "name": "F4",
                    "midi": 65,
                    "time": 206.4706312499974,
                    "velocity": 0.29133858267716534,
                    "duration": 0.35294124999998644
                },
                {
                    "name": "C#4",
                    "midi": 61,
                    "time": 206.8235724999974,
                    "velocity": 0.33070866141732286,
                    "duration": 0.35294124999998644
                },
                {
                    "name": "F3",
                    "midi": 53,
                    "time": 207.17651374999738,
                    "velocity": 0.25196850393700787,
                    "duration": 0.35294124999998644
                },
                {
                    "name": "C#3",
                    "midi": 49,
                    "time": 207.52945499999737,
                    "velocity": 0.2204724409448819,
                    "duration": 0.35294125000001486
                },
                {
                    "name": "F4",
                    "midi": 65,
                    "time": 207.88239624999738,
                    "velocity": 0.1732283464566929,
                    "duration": 0.35294124999998644
                },
                {
                    "name": "G#3",
                    "midi": 56,
                    "time": 208.23533749999737,
                    "velocity": 0.1732283464566929,
                    "duration": 0.35294124999998644
                },
                {
                    "name": "F4",
                    "midi": 65,
                    "time": 208.58827874999736,
                    "velocity": 0.1732283464566929,
                    "duration": 0.35294124999998644
                },
                {
                    "name": "C#4",
                    "midi": 61,
                    "time": 208.94121999999734,
                    "velocity": 0.1732283464566929,
                    "duration": 0.35294124999998644
                },
                {
                    "name": "F3",
                    "midi": 53,
                    "time": 209.29416124999733,
                    "velocity": 0.1732283464566929,
                    "duration": 0.35294124999998644
                },
                {
                    "name": "C#3",
                    "midi": 49,
                    "time": 209.64710249999732,
                    "velocity": 0.2125984251968504,
                    "duration": 0.35294124999998644
                },
                {
                    "name": "F4",
                    "midi": 65,
                    "time": 210.0000437499973,
                    "velocity": 0.1732283464566929,
                    "duration": 0.35294124999998644
                },
                {
                    "name": "G#3",
                    "midi": 56,
                    "time": 210.3529849999973,
                    "velocity": 0.1732283464566929,
                    "duration": 0.35294124999998644
                },
                {
                    "name": "F4",
                    "midi": 65,
                    "time": 210.70592624999728,
                    "velocity": 0.1732283464566929,
                    "duration": 0.35294124999998644
                },
                {
                    "name": "C#4",
                    "midi": 61,
                    "time": 211.05886749999726,
                    "velocity": 0.1889763779527559,
                    "duration": 0.35294124999998644
                },
                {
                    "name": "F3",
                    "midi": 53,
                    "time": 211.41180874999725,
                    "velocity": 0.1732283464566929,
                    "duration": 0.35294124999998644
                },
                {
                    "name": "C#2",
                    "midi": 37,
                    "time": 211.76474999999724,
                    "velocity": 0.2125984251968504,
                    "duration": 0.35294125000001486
                },
                {
                    "name": "F4",
                    "midi": 65,
                    "time": 212.11769124999725,
                    "velocity": 0.1732283464566929,
                    "duration": 0.35294124999998644
                },
                {
                    "name": "G#3",
                    "midi": 56,
                    "time": 212.47063249999724,
                    "velocity": 0.1732283464566929,
                    "duration": 0.35294124999998644
                },
                {
                    "name": "F4",
                    "midi": 65,
                    "time": 212.82357374999722,
                    "velocity": 0.1732283464566929,
                    "duration": 0.35294124999998644
                },
                {
                    "name": "B3",
                    "midi": 59,
                    "time": 213.1765149999972,
                    "velocity": 0.16535433070866143,
                    "duration": 0.35294124999998644
                },
                {
                    "name": "F3",
                    "midi": 53,
                    "time": 213.5294562499972,
                    "velocity": 0.16535433070866143,
                    "duration": 0.35294124999998644
                },
                {
                    "name": "C#3",
                    "midi": 49,
                    "time": 213.88239749999718,
                    "velocity": 0.2204724409448819,
                    "duration": 0.35294124999998644
                },
                {
                    "name": "F4",
                    "midi": 65,
                    "time": 214.23533874999717,
                    "velocity": 0.18110236220472442,
                    "duration": 0.35294124999998644
                },
                {
                    "name": "G#3",
                    "midi": 56,
                    "time": 214.58827999999716,
                    "velocity": 0.1968503937007874,
                    "duration": 0.35294124999998644
                },
                {
                    "name": "F4",
                    "midi": 65,
                    "time": 214.94122124999714,
                    "velocity": 0.2125984251968504,
                    "duration": 0.35294124999998644
                },
                {
                    "name": "B3",
                    "midi": 59,
                    "time": 215.29416249999713,
                    "velocity": 0.2204724409448819,
                    "duration": 0.35294124999998644
                },
                {
                    "name": "F3",
                    "midi": 53,
                    "time": 215.64710374999711,
                    "velocity": 0.23622047244094488,
                    "duration": 0.35294124999998644
                },
                {
                    "name": "C#3",
                    "midi": 49,
                    "time": 216.0000449999971,
                    "velocity": 0.25984251968503935,
                    "duration": 0.7058825000000013
                },
                {
                    "name": "F4",
                    "midi": 65,
                    "time": 216.7059274999971,
                    "velocity": 0.2204724409448819,
                    "duration": 0.7058825000000013
                },
                {
                    "name": "G#3",
                    "midi": 56,
                    "time": 217.4118099999971,
                    "velocity": 0.2204724409448819,
                    "duration": 0.7058825000000013
                },
                {
                    "name": "F4",
                    "midi": 65,
                    "time": 218.1176924999971,
                    "velocity": 0.2204724409448819,
                    "duration": 0.7058825000000013
                },
                {
                    "name": "B3",
                    "midi": 59,
                    "time": 218.8235749999971,
                    "velocity": 0.2204724409448819,
                    "duration": 0.7058825000000013
                },
                {
                    "name": "F3",
                    "midi": 53,
                    "time": 219.5294574999971,
                    "velocity": 0.2204724409448819,
                    "duration": 0.7058825000000013
                },
                {
                    "name": "C#3",
                    "midi": 49,
                    "time": 220.2353399999971,
                    "velocity": 0.2204724409448819,
                    "duration": 0.7058825000000013
                },
                {
                    "name": "F4",
                    "midi": 65,
                    "time": 220.9412224999971,
                    "velocity": 0.2283464566929134,
                    "duration": 0.7058825000000013
                },
                {
                    "name": "G#3",
                    "midi": 56,
                    "time": 221.6471049999971,
                    "velocity": 0.23622047244094488,
                    "duration": 0.7058825000000013
                },
                {
                    "name": "F4",
                    "midi": 65,
                    "time": 222.3529874999971,
                    "velocity": 0.23622047244094488,
                    "duration": 0.7058825000000013
                },
                {
                    "name": "B3",
                    "midi": 59,
                    "time": 223.0588699999971,
                    "velocity": 0.2283464566929134,
                    "duration": 0.7058825000000013
                },
                {
                    "name": "F3",
                    "midi": 53,
                    "time": 223.76475249999712,
                    "velocity": 0.2204724409448819,
                    "duration": 0.7058825000000013
                },
                {
                    "name": "D3",
                    "midi": 50,
                    "time": 224.47063499999712,
                    "velocity": 0.2283464566929134,
                    "duration": 0.35294124999998644
                },
                {
                    "name": "F4",
                    "midi": 65,
                    "time": 224.8235762499971,
                    "velocity": 0.1732283464566929,
                    "duration": 0.35294124999998644
                },
                {
                    "name": "G#3",
                    "midi": 56,
                    "time": 225.1765174999971,
                    "velocity": 0.1732283464566929,
                    "duration": 0.35294124999998644
                },
                {
                    "name": "F4",
                    "midi": 65,
                    "time": 225.52945874999708,
                    "velocity": 0.1732283464566929,
                    "duration": 0.35294124999998644
                },
                {
                    "name": "A#3",
                    "midi": 58,
                    "time": 225.88239999999706,
                    "velocity": 0.16535433070866143,
                    "duration": 0.35294124999998644
                },
                {
                    "name": "F3",
                    "midi": 53,
                    "time": 226.23534124999705,
                    "velocity": 0.16535433070866143,
                    "duration": 0.35294124999998644
                },
                {
                    "name": "D3",
                    "midi": 50,
                    "time": 226.58828249999704,
                    "velocity": 0.2204724409448819,
                    "duration": 0.35294124999998644
                },
                {
                    "name": "F4",
                    "midi": 65,
                    "time": 226.94122374999702,
                    "velocity": 0.18110236220472442,
                    "duration": 0.35294124999998644
                },
                {
                    "name": "G#3",
                    "midi": 56,
                    "time": 227.294164999997,
                    "velocity": 0.1968503937007874,
                    "duration": 0.35294124999998644
                },
                {
                    "name": "F4",
                    "midi": 65,
                    "time": 227.647106249997,
                    "velocity": 0.2125984251968504,
                    "duration": 0.35294124999998644
                },
                {
                    "name": "A#3",
                    "midi": 58,
                    "time": 228.00004749999698,
                    "velocity": 0.2204724409448819,
                    "duration": 0.35294124999998644
                },
                {
                    "name": "F3",
                    "midi": 53,
                    "time": 228.35298874999697,
                    "velocity": 0.23622047244094488,
                    "duration": 0.35294124999998644
                },
                {
                    "name": "D#3",
                    "midi": 51,
                    "time": 228.70592999999695,
                    "velocity": 0.2755905511811024,
                    "duration": 0.35294124999998644
                },
                {
                    "name": "F#4",
                    "midi": 66,
                    "time": 229.05887124999694,
                    "velocity": 0.2204724409448819,
                    "duration": 0.35294124999998644
                },
                {
                    "name": "A#3",
                    "midi": 58,
                    "time": 229.41181249999693,
                    "velocity": 0.2204724409448819,
                    "duration": 0.35294124999998644
                },
                {
                    "name": "F#4",
                    "midi": 66,
                    "time": 229.7647537499969,
                    "velocity": 0.2204724409448819,
                    "duration": 0.35294124999998644
                },
                {
                    "name": "D#4",
                    "midi": 63,
                    "time": 230.1176949999969,
                    "velocity": 0.2204724409448819,
                    "duration": 0.35294124999998644
                },
                {
                    "name": "F#3",
                    "midi": 54,
                    "time": 230.4706362499969,
                    "velocity": 0.2204724409448819,
                    "duration": 0.35294124999998644
                },
                {
                    "name": "D#3",
                    "midi": 51,
                    "time": 230.82357749999687,
                    "velocity": 0.2755905511811024,
                    "duration": 0.35294124999998644
                },
                {
                    "name": "G#4",
                    "midi": 68,
                    "time": 231.17651874999686,
                    "velocity": 0.23622047244094488,
                    "duration": 0.35294124999998644
                },
                {
                    "name": "A#3",
                    "midi": 58,
                    "time": 231.52945999999685,
                    "velocity": 0.2440944881889764,
                    "duration": 0.35294124999998644
                },
                {
                    "name": "G#4",
                    "midi": 68,
                    "time": 231.88240124999683,
                    "velocity": 0.2440944881889764,
                    "duration": 0.35294124999998644
                },
                {
                    "name": "D4",
                    "midi": 62,
                    "time": 232.23534249999682,
                    "velocity": 0.2440944881889764,
                    "duration": 0.35294124999998644
                },
                {
                    "name": "F3",
                    "midi": 53,
                    "time": 232.5882837499968,
                    "velocity": 0.2440944881889764,
                    "duration": 0.35294124999998644
                },
                {
                    "name": "D#3",
                    "midi": 51,
                    "time": 232.9412249999968,
                    "velocity": 0.3464566929133858,
                    "duration": 0.35294124999998644
                },
                {
                    "name": "F#4",
                    "midi": 66,
                    "time": 233.29416624999678,
                    "velocity": 0.2677165354330709,
                    "duration": 0.35294124999998644
                },
                {
                    "name": "A#3",
                    "midi": 58,
                    "time": 233.64710749999676,
                    "velocity": 0.2677165354330709,
                    "duration": 0.35294124999998644
                },
                {
                    "name": "F#4",
                    "midi": 66,
                    "time": 234.00004874999675,
                    "velocity": 0.2677165354330709,
                    "duration": 0.35294124999998644
                },
                {
                    "name": "D#4",
                    "midi": 63,
                    "time": 234.35298999999674,
                    "velocity": 0.2677165354330709,
                    "duration": 0.35294124999998644
                },
                {
                    "name": "F#3",
                    "midi": 54,
                    "time": 234.70593124999672,
                    "velocity": 0.2677165354330709,
                    "duration": 0.35294124999998644
                },
                {
                    "name": "A#2",
                    "midi": 46,
                    "time": 235.0588724999967,
                    "velocity": 0.3543307086614173,
                    "duration": 0.35294124999998644
                },
                {
                    "name": "F4",
                    "midi": 65,
                    "time": 235.4118137499967,
                    "velocity": 0.2755905511811024,
                    "duration": 0.35294124999998644
                },
                {
                    "name": "A#3",
                    "midi": 58,
                    "time": 235.76475499999668,
                    "velocity": 0.29133858267716534,
                    "duration": 0.35294124999998644
                },
                {
                    "name": "F4",
                    "midi": 65,
                    "time": 236.11769624999667,
                    "velocity": 0.30708661417322836,
                    "duration": 0.35294124999998644
                },
                {
                    "name": "D4",
                    "midi": 62,
                    "time": 236.47063749999666,
                    "velocity": 0.31496062992125984,
                    "duration": 0.35294124999998644
                },
                {
                    "name": "F3",
                    "midi": 53,
                    "time": 236.82357874999664,
                    "velocity": 0.33070866141732286,
                    "duration": 0.35294124999998644
                },
                {
                    "name": "D#2",
                    "midi": 39,
                    "time": 237.17651999999663,
                    "velocity": 0.2755905511811024,
                    "duration": 0.35294124999998644
                },
                {
                    "name": "F#4",
                    "midi": 66,
                    "time": 237.52946124999661,
                    "velocity": 0.2204724409448819,
                    "duration": 0.35294124999998644
                },
                {
                    "name": "A#3",
                    "midi": 58,
                    "time": 237.8824024999966,
                    "velocity": 0.2204724409448819,
                    "duration": 0.35294124999998644
                },
                {
                    "name": "F#4",
                    "midi": 66,
                    "time": 238.2353437499966,
                    "velocity": 0.2204724409448819,
                    "duration": 0.35294124999998644
                },
                {
                    "name": "D#4",
                    "midi": 63,
                    "time": 238.58828499999657,
                    "velocity": 0.2204724409448819,
                    "duration": 0.35294124999998644
                },
                {
                    "name": "F#3",
                    "midi": 54,
                    "time": 238.94122624999656,
                    "velocity": 0.2204724409448819,
                    "duration": 0.35294124999998644
                },
                {
                    "name": "D#3",
                    "midi": 51,
                    "time": 239.29416749999655,
                    "velocity": 0.2755905511811024,
                    "duration": 0.35294124999998644
                },
                {
                    "name": "G#4",
                    "midi": 68,
                    "time": 239.64710874999653,
                    "velocity": 0.23622047244094488,
                    "duration": 0.35294124999998644
                },
                {
                    "name": "A#3",
                    "midi": 58,
                    "time": 240.00004999999652,
                    "velocity": 0.2440944881889764,
                    "duration": 0.35294124999998644
                },
                {
                    "name": "G#4",
                    "midi": 68,
                    "time": 240.3529912499965,
                    "velocity": 0.2440944881889764,
                    "duration": 0.35294124999998644
                },
                {
                    "name": "D4",
                    "midi": 62,
                    "time": 240.7059324999965,
                    "velocity": 0.2440944881889764,
                    "duration": 0.35294124999998644
                },
                {
                    "name": "F3",
                    "midi": 53,
                    "time": 241.05887374999648,
                    "velocity": 0.2440944881889764,
                    "duration": 0.35294124999998644
                },
                {
                    "name": "D#3",
                    "midi": 51,
                    "time": 241.41181499999647,
                    "velocity": 0.3464566929133858,
                    "duration": 0.35294124999998644
                },
                {
                    "name": "F#4",
                    "midi": 66,
                    "time": 241.76475624999645,
                    "velocity": 0.2677165354330709,
                    "duration": 0.35294124999998644
                },
                {
                    "name": "A#3",
                    "midi": 58,
                    "time": 242.11769749999644,
                    "velocity": 0.2677165354330709,
                    "duration": 0.35294124999998644
                },
                {
                    "name": "F#4",
                    "midi": 66,
                    "time": 242.47063874999643,
                    "velocity": 0.2677165354330709,
                    "duration": 0.35294124999998644
                },
                {
                    "name": "D#4",
                    "midi": 63,
                    "time": 242.8235799999964,
                    "velocity": 0.2677165354330709,
                    "duration": 0.35294124999998644
                },
                {
                    "name": "F#3",
                    "midi": 54,
                    "time": 243.1765212499964,
                    "velocity": 0.2677165354330709,
                    "duration": 0.35294124999998644
                },
                {
                    "name": "F#2",
                    "midi": 42,
                    "time": 243.52946249999638,
                    "velocity": 0.5118110236220472,
                    "duration": 0.35294124999998644
                },
                {
                    "name": "D#4",
                    "midi": 63,
                    "time": 243.88240374999637,
                    "velocity": 0.31496062992125984,
                    "duration": 0.35294124999998644
                },
                {
                    "name": "F#3",
                    "midi": 54,
                    "time": 244.23534499999636,
                    "velocity": 0.33070866141732286,
                    "duration": 0.35294124999998644
                },
                {
                    "name": "D#4",
                    "midi": 63,
                    "time": 244.58828624999634,
                    "velocity": 0.3464566929133858,
                    "duration": 0.35294124999998644
                },
                {
                    "name": "A#3",
                    "midi": 58,
                    "time": 244.94122749999633,
                    "velocity": 0.36220472440944884,
                    "duration": 0.35294124999998644
                },
                {
                    "name": "D#3",
                    "midi": 51,
                    "time": 245.29416874999632,
                    "velocity": 0.3779527559055118,
                    "duration": 0.35294124999998644
                },
                {
                    "name": "G#2",
                    "midi": 44,
                    "time": 245.6471099999963,
                    "velocity": 0.4094488188976378,
                    "duration": 0.35294124999998644
                },
                {
                    "name": "C#4",
                    "midi": 61,
                    "time": 246.0000512499963,
                    "velocity": 0.3464566929133858,
                    "duration": 0.35294124999998644
                },
                {
                    "name": "F3",
                    "midi": 53,
                    "time": 246.35299249999628,
                    "velocity": 0.3464566929133858,
                    "duration": 0.35294124999998644
                },
                {
                    "name": "C#4",
                    "midi": 61,
                    "time": 246.70593374999626,
                    "velocity": 0.3464566929133858,
                    "duration": 0.35294124999998644
                },
                {
                    "name": "G#3",
                    "midi": 56,
                    "time": 247.05887499999625,
                    "velocity": 0.3464566929133858,
                    "duration": 0.35294124999998644
                },
                {
                    "name": "G#2",
                    "midi": 44,
                    "time": 247.41181624999624,
                    "velocity": 0.3464566929133858,
                    "duration": 0.35294124999998644
                },
                {
                    "name": "A#2",
                    "midi": 46,
                    "time": 247.76475749999622,
                    "velocity": 0.44881889763779526,
                    "duration": 0.35294124999998644
                },
                {
                    "name": "C#4",
                    "midi": 61,
                    "time": 248.1176987499962,
                    "velocity": 0.3779527559055118,
                    "duration": 0.35294124999998644
                },
                {
                    "name": "F3",
                    "midi": 53,
                    "time": 248.4706399999962,
                    "velocity": 0.3779527559055118,
                    "duration": 0.35294124999998644
                },
                {
                    "name": "C#4",
                    "midi": 61,
                    "time": 248.82358124999618,
                    "velocity": 0.3779527559055118,
                    "duration": 0.35294124999998644
                },
                {
                    "name": "A#3",
                    "midi": 58,
                    "time": 249.17652249999617,
                    "velocity": 0.3779527559055118,
                    "duration": 0.35294124999998644
                },
                {
                    "name": "A#2",
                    "midi": 46,
                    "time": 249.52946374999615,
                    "velocity": 0.3858267716535433,
                    "duration": 0.35294124999998644
                },
                {
                    "name": "F2",
                    "midi": 41,
                    "time": 249.88240499999614,
                    "velocity": 0.4566929133858268,
                    "duration": 0.35294124999998644
                },
                {
                    "name": "G#3",
                    "midi": 56,
                    "time": 250.23534624999613,
                    "velocity": 0.4015748031496063,
                    "duration": 0.35294124999998644
                },
                {
                    "name": "C#3",
                    "midi": 49,
                    "time": 250.5882874999961,
                    "velocity": 0.4015748031496063,
                    "duration": 0.35294124999998644
                },
                {
                    "name": "G#3",
                    "midi": 56,
                    "time": 250.9412287499961,
                    "velocity": 0.4015748031496063,
                    "duration": 0.35294124999998644
                },
                {
                    "name": "C#3",
                    "midi": 49,
                    "time": 251.2941699999961,
                    "velocity": 0.4015748031496063,
                    "duration": 0.35294124999998644
                },
                {
                    "name": "F2",
                    "midi": 41,
                    "time": 251.64711124999607,
                    "velocity": 0.4094488188976378,
                    "duration": 0.35294124999998644
                },
                {
                    "name": "F#2",
                    "midi": 42,
                    "time": 252.00005249999606,
                    "velocity": 0.5039370078740157,
                    "duration": 0.35294124999998644
                },
                {
                    "name": "A#3",
                    "midi": 58,
                    "time": 252.35299374999605,
                    "velocity": 0.4015748031496063,
                    "duration": 0.35294124999998644
                },
                {
                    "name": "C#3",
                    "midi": 49,
                    "time": 252.70593499999603,
                    "velocity": 0.4094488188976378,
                    "duration": 0.35294124999998644
                },
                {
                    "name": "A#3",
                    "midi": 58,
                    "time": 253.05887624999602,
                    "velocity": 0.4251968503937008,
                    "duration": 0.35294124999998644
                },
                {
                    "name": "D#3",
                    "midi": 51,
                    "time": 253.411817499996,
                    "velocity": 0.4330708661417323,
                    "duration": 0.35294124999998644
                },
                {
                    "name": "F#2",
                    "midi": 42,
                    "time": 253.764758749996,
                    "velocity": 0.4409448818897638,
                    "duration": 0.35294124999998644
                },
                {
                    "name": "G#1",
                    "midi": 32,
                    "time": 254.11769999999598,
                    "velocity": 0.4566929133858268,
                    "duration": 0.35294124999998644
                },
                {
                    "name": "C#4",
                    "midi": 61,
                    "time": 254.47064124999596,
                    "velocity": 0.4015748031496063,
                    "duration": 0.35294124999998644
                },
                {
                    "name": "D#3",
                    "midi": 51,
                    "time": 254.82358249999595,
                    "velocity": 0.4015748031496063,
                    "duration": 0.35294124999998644
                },
                {
                    "name": "C#4",
                    "midi": 61,
                    "time": 255.17652374999594,
                    "velocity": 0.4015748031496063,
                    "duration": 0.35294124999998644
                },
                {
                    "name": "G#3",
                    "midi": 56,
                    "time": 255.52946499999592,
                    "velocity": 0.4015748031496063,
                    "duration": 0.35294124999998644
                },
                {
                    "name": "D#3",
                    "midi": 51,
                    "time": 255.8824062499959,
                    "velocity": 0.4094488188976378,
                    "duration": 0.35294124999998644
                },
                {
                    "name": "G#2",
                    "midi": 44,
                    "time": 256.2353474999959,
                    "velocity": 0.5039370078740157,
                    "duration": 0.35294125000001486
                },
                {
                    "name": "C#4",
                    "midi": 61,
                    "time": 256.5882887499959,
                    "velocity": 0.4015748031496063,
                    "duration": 0.35294125000001486
                },
                {
                    "name": "D#3",
                    "midi": 51,
                    "time": 256.9412299999959,
                    "velocity": 0.4094488188976378,
                    "duration": 0.35294125000001486
                },
                {
                    "name": "C#4",
                    "midi": 61,
                    "time": 257.29417124999594,
                    "velocity": 0.4251968503937008,
                    "duration": 0.35294125000001486
                },
                {
                    "name": "G#3",
                    "midi": 56,
                    "time": 257.64711249999596,
                    "velocity": 0.4330708661417323,
                    "duration": 0.35294125000001486
                },
                {
                    "name": "D#3",
                    "midi": 51,
                    "time": 258.00005374999597,
                    "velocity": 0.4409448818897638,
                    "duration": 0.35294125000001486
                },
                {
                    "name": "G#1",
                    "midi": 32,
                    "time": 258.352994999996,
                    "velocity": 0.4566929133858268,
                    "duration": 0.35294125000001486
                },
                {
                    "name": "C#4",
                    "midi": 61,
                    "time": 258.705936249996,
                    "velocity": 0.4015748031496063,
                    "duration": 0.35294125000001486
                },
                {
                    "name": "D#3",
                    "midi": 51,
                    "time": 259.058877499996,
                    "velocity": 0.4015748031496063,
                    "duration": 0.35294125000001486
                },
                {
                    "name": "C#4",
                    "midi": 61,
                    "time": 259.41181874999603,
                    "velocity": 0.4015748031496063,
                    "duration": 0.35294125000001486
                },
                {
                    "name": "F#3",
                    "midi": 54,
                    "time": 259.76475999999604,
                    "velocity": 0.4015748031496063,
                    "duration": 0.35294125000001486
                },
                {
                    "name": "D#3",
                    "midi": 51,
                    "time": 260.11770124999606,
                    "velocity": 0.4094488188976378,
                    "duration": 0.35294125000001486
                },
                {
                    "name": "G#2",
                    "midi": 44,
                    "time": 260.4706424999961,
                    "velocity": 0.5039370078740157,
                    "duration": 0.35294125000001486
                },
                {
                    "name": "C4",
                    "midi": 60,
                    "time": 260.8235837499961,
                    "velocity": 0.4015748031496063,
                    "duration": 0.35294125000001486
                },
                {
                    "name": "D#3",
                    "midi": 51,
                    "time": 261.1765249999961,
                    "velocity": 0.4094488188976378,
                    "duration": 0.35294125000001486
                },
                {
                    "name": "C4",
                    "midi": 60,
                    "time": 261.5294662499961,
                    "velocity": 0.4251968503937008,
                    "duration": 0.35294125000001486
                },
                {
                    "name": "F#3",
                    "midi": 54,
                    "time": 261.88240749999613,
                    "velocity": 0.4330708661417323,
                    "duration": 0.35294125000001486
                },
                {
                    "name": "G#2",
                    "midi": 44,
                    "time": 262.23534874999615,
                    "velocity": 0.4409448818897638,
                    "duration": 0.35294125000001486
                },
                {
                    "name": "C#2",
                    "midi": 37,
                    "time": 262.58828999999616,
                    "velocity": 0.5039370078740157,
                    "duration": 0.35294125000001486
                },
                {
                    "name": "F4",
                    "midi": 65,
                    "time": 262.9412312499962,
                    "velocity": 0.2047244094488189,
                    "duration": 0.35294125000001486
                },
                {
                    "name": "G#3",
                    "midi": 56,
                    "time": 263.2941724999962,
                    "velocity": 0.2047244094488189,
                    "duration": 0.35294125000001486
                },
                {
                    "name": "F4",
                    "midi": 65,
                    "time": 263.6471137499962,
                    "velocity": 0.2047244094488189,
                    "duration": 0.35294125000001486
                },
                {
                    "name": "C#4",
                    "midi": 61,
                    "time": 264.0000549999962,
                    "velocity": 0.2047244094488189,
                    "duration": 0.35294125000001486
                },
                {
                    "name": "F3",
                    "midi": 53,
                    "time": 264.35299624999624,
                    "velocity": 0.2047244094488189,
                    "duration": 0.35294125000001486
                },
                {
                    "name": "C#3",
                    "midi": 49,
                    "time": 264.70593749999625,
                    "velocity": 0.23622047244094488,
                    "duration": 0.35294125000001486
                },
                {
                    "name": "E4",
                    "midi": 64,
                    "time": 265.05887874999627,
                    "velocity": 0.2047244094488189,
                    "duration": 0.35294125000001486
                },
                {
                    "name": "A#3",
                    "midi": 58,
                    "time": 265.4118199999963,
                    "velocity": 0.2047244094488189,
                    "duration": 0.35294125000001486
                },
                {
                    "name": "E4",
                    "midi": 64,
                    "time": 265.7647612499963,
                    "velocity": 0.2047244094488189,
                    "duration": 0.35294125000001486
                },
                {
                    "name": "C#4",
                    "midi": 61,
                    "time": 266.1177024999963,
                    "velocity": 0.2047244094488189,
                    "duration": 0.35294125000001486
                },
                {
                    "name": "G3",
                    "midi": 55,
                    "time": 266.4706437499963,
                    "velocity": 0.2047244094488189,
                    "duration": 0.35294125000001486
                },
                {
                    "name": "C#3",
                    "midi": 49,
                    "time": 266.82358499999634,
                    "velocity": 0.23622047244094488,
                    "duration": 0.35294125000001486
                },
                {
                    "name": "D#4",
                    "midi": 63,
                    "time": 267.17652624999636,
                    "velocity": 0.2047244094488189,
                    "duration": 0.35294125000001486
                },
                {
                    "name": "A3",
                    "midi": 57,
                    "time": 267.5294674999964,
                    "velocity": 0.2047244094488189,
                    "duration": 0.35294125000001486
                },
                {
                    "name": "D#4",
                    "midi": 63,
                    "time": 267.8824087499964,
                    "velocity": 0.2047244094488189,
                    "duration": 0.35294125000001486
                },
                {
                    "name": "C4",
                    "midi": 60,
                    "time": 268.2353499999964,
                    "velocity": 0.2047244094488189,
                    "duration": 0.35294125000001486
                },
                {
                    "name": "F#3",
                    "midi": 54,
                    "time": 268.5882912499964,
                    "velocity": 0.2047244094488189,
                    "duration": 0.35294125000001486
                },
                {
                    "name": "C#3",
                    "midi": 49,
                    "time": 268.94123249999643,
                    "velocity": 0.23622047244094488,
                    "duration": 2.117647500000089
                },
                {
                    "name": "D4",
                    "midi": 62,
                    "time": 269.29417374999645,
                    "velocity": 0.2047244094488189,
                    "duration": 0.35294125000001486
                },
                {
                    "name": "G#3",
                    "midi": 56,
                    "time": 269.64711499999646,
                    "velocity": 0.1968503937007874,
                    "duration": 0.35294125000001486
                },
                {
                    "name": "D4",
                    "midi": 62,
                    "time": 270.0000562499965,
                    "velocity": 0.1968503937007874,
                    "duration": 0.35294125000001486
                },
                {
                    "name": "B3",
                    "midi": 59,
                    "time": 270.3529974999965,
                    "velocity": 0.1968503937007874,
                    "duration": 0.35294125000001486
                },
                {
                    "name": "F3",
                    "midi": 53,
                    "time": 270.7059387499965,
                    "velocity": 0.1968503937007874,
                    "duration": 0.35294125000001486
                },
                {
                    "name": "C#3",
                    "midi": 49,
                    "time": 271.0588799999965,
                    "velocity": 0.2204724409448819,
                    "duration": 2.1176475000000323
                },
                {
                    "name": "C#4",
                    "midi": 61,
                    "time": 271.4118212499965,
                    "velocity": 0.1968503937007874,
                    "duration": 0.35294125000001486
                },
                {
                    "name": "G3",
                    "midi": 55,
                    "time": 271.7647624999965,
                    "velocity": 0.1889763779527559,
                    "duration": 0.35294125000001486
                },
                {
                    "name": "C#4",
                    "midi": 61,
                    "time": 272.1177037499965,
                    "velocity": 0.1889763779527559,
                    "duration": 0.35294125000001486
                },
                {
                    "name": "A#3",
                    "midi": 58,
                    "time": 272.4706449999965,
                    "velocity": 0.1889763779527559,
                    "duration": 0.35294125000001486
                },
                {
                    "name": "E3",
                    "midi": 52,
                    "time": 272.82358624999654,
                    "velocity": 0.1889763779527559,
                    "duration": 0.35294125000001486
                },
                {
                    "name": "C#3",
                    "midi": 49,
                    "time": 273.17652749999655,
                    "velocity": 0.2204724409448819,
                    "duration": 2.117647500000089
                },
                {
                    "name": "C#4",
                    "midi": 61,
                    "time": 273.52946874999657,
                    "velocity": 0.18110236220472442,
                    "duration": 0.35294125000001486
                },
                {
                    "name": "F#3",
                    "midi": 54,
                    "time": 273.8824099999966,
                    "velocity": 0.18110236220472442,
                    "duration": 0.35294125000001486
                },
                {
                    "name": "C#4",
                    "midi": 61,
                    "time": 274.2353512499966,
                    "velocity": 0.18110236220472442,
                    "duration": 0.35294125000001486
                },
                {
                    "name": "A3",
                    "midi": 57,
                    "time": 274.5882924999966,
                    "velocity": 0.18110236220472442,
                    "duration": 0.35294125000001486
                },
                {
                    "name": "D#3",
                    "midi": 51,
                    "time": 274.9412337499966,
                    "velocity": 0.18110236220472442,
                    "duration": 0.35294125000001486
                },
                {
                    "name": "C#3",
                    "midi": 49,
                    "time": 275.29417499999664,
                    "velocity": 0.2125984251968504,
                    "duration": 0.35294125000001486
                },
                {
                    "name": "C4",
                    "midi": 60,
                    "time": 275.64711624999666,
                    "velocity": 0.1732283464566929,
                    "duration": 0.35294125000001486
                },
                {
                    "name": "F#3",
                    "midi": 54,
                    "time": 276.0000574999967,
                    "velocity": 0.1732283464566929,
                    "duration": 0.35294125000001486
                },
                {
                    "name": "C4",
                    "midi": 60,
                    "time": 276.3529987499967,
                    "velocity": 0.1732283464566929,
                    "duration": 0.35294125000001486
                },
                {
                    "name": "G#3",
                    "midi": 56,
                    "time": 276.7059399999967,
                    "velocity": 0.1732283464566929,
                    "duration": 0.35294125000001486
                },
                {
                    "name": "D#3",
                    "midi": 51,
                    "time": 277.0588812499967,
                    "velocity": 0.1732283464566929,
                    "duration": 0.35294125000001486
                },
                {
                    "name": "C#3",
                    "midi": 49,
                    "time": 277.41182249999673,
                    "velocity": 0.2125984251968504,
                    "duration": 0.35294125000001486
                },
                {
                    "name": "C4",
                    "midi": 60,
                    "time": 277.76476374999675,
                    "velocity": 0.1732283464566929,
                    "duration": 0.35294125000001486
                },
                {
                    "name": "F#3",
                    "midi": 54,
                    "time": 278.11770499999676,
                    "velocity": 0.1732283464566929,
                    "duration": 0.35294125000001486
                },
                {
                    "name": "C4",
                    "midi": 60,
                    "time": 278.4706462499968,
                    "velocity": 0.1732283464566929,
                    "duration": 0.35294125000001486
                },
                {
                    "name": "G#3",
                    "midi": 56,
                    "time": 278.8235874999968,
                    "velocity": 0.1732283464566929,
                    "duration": 0.35294125000001486
                },
                {
                    "name": "D#3",
                    "midi": 51,
                    "time": 279.1765287499968,
                    "velocity": 0.1732283464566929,
                    "duration": 0.35294125000001486
                },
                {
                    "name": "C#2",
                    "midi": 37,
                    "time": 279.5294699999968,
                    "velocity": 0.2125984251968504,
                    "duration": 0.35294125000001486
                },
                {
                    "name": "F4",
                    "midi": 65,
                    "time": 279.88241124999684,
                    "velocity": 0.1732283464566929,
                    "duration": 0.35294125000001486
                },
                {
                    "name": "G#3",
                    "midi": 56,
                    "time": 280.23535249999685,
                    "velocity": 0.1732283464566929,
                    "duration": 0.35294125000001486
                },
                {
                    "name": "F4",
                    "midi": 65,
                    "time": 280.58829374999686,
                    "velocity": 0.1732283464566929,
                    "duration": 0.35294125000001486
                },
                {
                    "name": "C#4",
                    "midi": 61,
                    "time": 280.9412349999969,
                    "velocity": 0.1732283464566929,
                    "duration": 0.35294125000001486
                },
                {
                    "name": "F3",
                    "midi": 53,
                    "time": 281.2941762499969,
                    "velocity": 0.1732283464566929,
                    "duration": 0.35294125000001486
                },
                {
                    "name": "C#3",
                    "midi": 49,
                    "time": 281.6471174999969,
                    "velocity": 0.2125984251968504,
                    "duration": 0.352941249999958
                },
                {
                    "name": "E4",
                    "midi": 64,
                    "time": 282.00005874999687,
                    "velocity": 0.1732283464566929,
                    "duration": 0.176470624999979
                },
                {
                    "name": "A#3",
                    "midi": 58,
                    "time": 282.3529999999968,
                    "velocity": 0.1732283464566929,
                    "duration": 0.35294125000001486
                },
                {
                    "name": "E4",
                    "midi": 64,
                    "time": 282.70594124999684,
                    "velocity": 0.1732283464566929,
                    "duration": 0.176470624999979
                },
                {
                    "name": "C#4",
                    "midi": 61,
                    "time": 283.0588824999968,
                    "velocity": 0.1732283464566929,
                    "duration": 0.35294125000001486
                },
                {
                    "name": "G3",
                    "midi": 55,
                    "time": 283.4118237499968,
                    "velocity": 0.1732283464566929,
                    "duration": 0.35294125000001486
                },
                {
                    "name": "C#3",
                    "midi": 49,
                    "time": 283.7647649999968,
                    "velocity": 0.2125984251968504,
                    "duration": 0.35294125000001486
                },
                {
                    "name": "D#4",
                    "midi": 63,
                    "time": 284.11770624999684,
                    "velocity": 0.1732283464566929,
                    "duration": 0.35294125000001486
                },
                {
                    "name": "A3",
                    "midi": 57,
                    "time": 284.47064749999686,
                    "velocity": 0.1732283464566929,
                    "duration": 0.35294125000001486
                },
                {
                    "name": "D#4",
                    "midi": 63,
                    "time": 284.8235887499969,
                    "velocity": 0.1732283464566929,
                    "duration": 0.35294125000001486
                },
                {
                    "name": "C4",
                    "midi": 60,
                    "time": 285.1765299999969,
                    "velocity": 0.1732283464566929,
                    "duration": 0.35294125000001486
                },
                {
                    "name": "F#3",
                    "midi": 54,
                    "time": 285.5294712499969,
                    "velocity": 0.1732283464566929,
                    "duration": 0.35294125000001486
                },
                {
                    "name": "C#3",
                    "midi": 49,
                    "time": 285.8824124999969,
                    "velocity": 0.2125984251968504,
                    "duration": 0.35294125000001486
                },
                {
                    "name": "D4",
                    "midi": 62,
                    "time": 286.23535374999693,
                    "velocity": 0.1732283464566929,
                    "duration": 0.35294125000001486
                },
                {
                    "name": "G#3",
                    "midi": 56,
                    "time": 286.58829499999695,
                    "velocity": 0.1732283464566929,
                    "duration": 0.35294125000001486
                },
                {
                    "name": "D4",
                    "midi": 62,
                    "time": 286.94123624999696,
                    "velocity": 0.1732283464566929,
                    "duration": 0.35294125000001486
                },
                {
                    "name": "B3",
                    "midi": 59,
                    "time": 287.294177499997,
                    "velocity": 0.1732283464566929,
                    "duration": 0.35294125000001486
                },
                {
                    "name": "F3",
                    "midi": 53,
                    "time": 287.647118749997,
                    "velocity": 0.1732283464566929,
                    "duration": 0.35294125000001486
                },
                {
                    "name": "C#3",
                    "midi": 49,
                    "time": 288.000059999997,
                    "velocity": 0.2125984251968504,
                    "duration": 2.1176475000000323
                },
                {
                    "name": "C#4",
                    "midi": 61,
                    "time": 288.35300124999696,
                    "velocity": 0.1732283464566929,
                    "duration": 0.35294125000001486
                },
                {
                    "name": "G3",
                    "midi": 55,
                    "time": 288.705942499997,
                    "velocity": 0.1732283464566929,
                    "duration": 0.35294125000001486
                },
                {
                    "name": "C#4",
                    "midi": 61,
                    "time": 289.058883749997,
                    "velocity": 0.1732283464566929,
                    "duration": 0.35294125000001486
                },
                {
                    "name": "A#3",
                    "midi": 58,
                    "time": 289.411824999997,
                    "velocity": 0.1732283464566929,
                    "duration": 0.35294125000001486
                },
                {
                    "name": "E3",
                    "midi": 52,
                    "time": 289.764766249997,
                    "velocity": 0.1732283464566929,
                    "duration": 0.35294125000001486
                },
                {
                    "name": "C#3",
                    "midi": 49,
                    "time": 290.11770749999704,
                    "velocity": 0.2125984251968504,
                    "duration": 2.117647500000089
                },
                {
                    "name": "C#4",
                    "midi": 61,
                    "time": 290.47064874999705,
                    "velocity": 0.1732283464566929,
                    "duration": 0.35294125000001486
                },
                {
                    "name": "F#3",
                    "midi": 54,
                    "time": 290.82358999999707,
                    "velocity": 0.1732283464566929,
                    "duration": 0.35294125000001486
                },
                {
                    "name": "C#4",
                    "midi": 61,
                    "time": 291.1765312499971,
                    "velocity": 0.1732283464566929,
                    "duration": 0.35294125000001486
                },
                {
                    "name": "A3",
                    "midi": 57,
                    "time": 291.5294724999971,
                    "velocity": 0.1732283464566929,
                    "duration": 0.35294125000001486
                },
                {
                    "name": "D#3",
                    "midi": 51,
                    "time": 291.8824137499971,
                    "velocity": 0.1732283464566929,
                    "duration": 0.35294125000001486
                },
                {
                    "name": "C#3",
                    "midi": 49,
                    "time": 292.2353549999971,
                    "velocity": 0.2125984251968504,
                    "duration": 0.35294125000001486
                },
                {
                    "name": "C4",
                    "midi": 60,
                    "time": 292.58829624999714,
                    "velocity": 0.1732283464566929,
                    "duration": 0.35294125000001486
                },
                {
                    "name": "F#3",
                    "midi": 54,
                    "time": 292.94123749999716,
                    "velocity": 0.1732283464566929,
                    "duration": 0.35294125000001486
                },
                {
                    "name": "C4",
                    "midi": 60,
                    "time": 293.2941787499972,
                    "velocity": 0.1732283464566929,
                    "duration": 0.35294125000001486
                },
                {
                    "name": "G#3",
                    "midi": 56,
                    "time": 293.6471199999972,
                    "velocity": 0.1732283464566929,
                    "duration": 0.35294125000001486
                },
                {
                    "name": "D#3",
                    "midi": 51,
                    "time": 294.0000612499972,
                    "velocity": 0.1732283464566929,
                    "duration": 0.35294125000001486
                },
                {
                    "name": "C#3",
                    "midi": 49,
                    "time": 294.3530024999972,
                    "velocity": 0.2125984251968504,
                    "duration": 0.352941249999958
                },
                {
                    "name": "C4",
                    "midi": 60,
                    "time": 294.7059437499972,
                    "velocity": 0.1732283464566929,
                    "duration": 0.35294125000001486
                },
                {
                    "name": "F#3",
                    "midi": 54,
                    "time": 295.0588849999972,
                    "velocity": 0.1732283464566929,
                    "duration": 0.35294125000001486
                },
                {
                    "name": "C4",
                    "midi": 60,
                    "time": 295.4118262499972,
                    "velocity": 0.1732283464566929,
                    "duration": 0.35294125000001486
                },
                {
                    "name": "G#3",
                    "midi": 56,
                    "time": 295.7647674999972,
                    "velocity": 0.1732283464566929,
                    "duration": 0.35294125000001486
                },
                {
                    "name": "D#3",
                    "midi": 51,
                    "time": 296.11770874999723,
                    "velocity": 0.1732283464566929,
                    "duration": 0.35294125000001486
                },
                {
                    "name": "C#2",
                    "midi": 37,
                    "time": 296.47064999999725,
                    "velocity": 0.2125984251968504,
                    "duration": 0.352941249999958
                },
                {
                    "name": "C#4",
                    "midi": 61,
                    "time": 296.8235912499972,
                    "velocity": 0.1732283464566929,
                    "duration": 0.35294125000001486
                },
                {
                    "name": "C#3",
                    "midi": 49,
                    "time": 297.1765324999972,
                    "velocity": 0.1732283464566929,
                    "duration": 0.35294125000001486
                },
                {
                    "name": "C#4",
                    "midi": 61,
                    "time": 297.52947374999724,
                    "velocity": 0.1732283464566929,
                    "duration": 0.35294125000001486
                },
                {
                    "name": "F3",
                    "midi": 53,
                    "time": 297.88241499999725,
                    "velocity": 0.1732283464566929,
                    "duration": 0.35294125000001486
                },
                {
                    "name": "G#2",
                    "midi": 44,
                    "time": 298.23535624999727,
                    "velocity": 0.1732283464566929,
                    "duration": 0.35294125000001486
                },
                {
                    "name": "C#2",
                    "midi": 37,
                    "time": 298.5882974999973,
                    "velocity": 0.2047244094488189,
                    "duration": 0.35294125000001486
                },
                {
                    "name": "C#4",
                    "midi": 61,
                    "time": 298.9412387499973,
                    "velocity": 0.1732283464566929,
                    "duration": 0.35294125000001486
                },
                {
                    "name": "C#3",
                    "midi": 49,
                    "time": 299.2941799999973,
                    "velocity": 0.1732283464566929,
                    "duration": 0.35294125000001486
                },
                {
                    "name": "C#4",
                    "midi": 61,
                    "time": 299.6471212499973,
                    "velocity": 0.1732283464566929,
                    "duration": 0.35294125000001486
                },
                {
                    "name": "F3",
                    "midi": 53,
                    "time": 300.00006249999734,
                    "velocity": 0.1732283464566929,
                    "duration": 0.35294125000001486
                },
                {
                    "name": "G#2",
                    "midi": 44,
                    "time": 300.35300374999736,
                    "velocity": 0.1732283464566929,
                    "duration": 0.35294125000001486
                },
                {
                    "name": "C#2",
                    "midi": 37,
                    "time": 300.70594499999737,
                    "velocity": 0.2047244094488189,
                    "duration": 0.35294125000001486
                },
                {
                    "name": "C4",
                    "midi": 60,
                    "time": 301.0588862499974,
                    "velocity": 0.16535433070866143,
                    "duration": 0.35294125000001486
                },
                {
                    "name": "D#3",
                    "midi": 51,
                    "time": 301.4118274999974,
                    "velocity": 0.16535433070866143,
                    "duration": 0.35294125000001486
                },
                {
                    "name": "C4",
                    "midi": 60,
                    "time": 301.7647687499974,
                    "velocity": 0.16535433070866143,
                    "duration": 0.35294125000001486
                },
                {
                    "name": "F#3",
                    "midi": 54,
                    "time": 302.11770999999743,
                    "velocity": 0.16535433070866143,
                    "duration": 0.35294125000001486
                },
                {
                    "name": "G#2",
                    "midi": 44,
                    "time": 302.47065124999745,
                    "velocity": 0.16535433070866143,
                    "duration": 0.35294125000001486
                },
                {
                    "name": "C#2",
                    "midi": 37,
                    "time": 302.82359249999746,
                    "velocity": 0.1968503937007874,
                    "duration": 0.35294125000001486
                },
                {
                    "name": "C4",
                    "midi": 60,
                    "time": 303.1765337499975,
                    "velocity": 0.16535433070866143,
                    "duration": 0.35294125000001486
                },
                {
                    "name": "D#3",
                    "midi": 51,
                    "time": 303.5294749999975,
                    "velocity": 0.16535433070866143,
                    "duration": 0.35294125000001486
                },
                {
                    "name": "C4",
                    "midi": 60,
                    "time": 303.8824162499975,
                    "velocity": 0.16535433070866143,
                    "duration": 0.35294125000001486
                },
                {
                    "name": "F#3",
                    "midi": 54,
                    "time": 304.2353574999975,
                    "velocity": 0.16535433070866143,
                    "duration": 0.35294125000001486
                },
                {
                    "name": "G#2",
                    "midi": 44,
                    "time": 304.58829874999753,
                    "velocity": 0.16535433070866143,
                    "duration": 0.35294125000001486
                },
                {
                    "name": "C#2",
                    "midi": 37,
                    "time": 304.94123999999755,
                    "velocity": 0.1889763779527559,
                    "duration": 0.352941249999958
                },
                {
                    "name": "C#4",
                    "midi": 61,
                    "time": 305.2941812499975,
                    "velocity": 0.16535433070866143,
                    "duration": 0.35294125000001486
                },
                {
                    "name": "C#3",
                    "midi": 49,
                    "time": 305.6471224999975,
                    "velocity": 0.15748031496062992,
                    "duration": 0.35294125000001486
                },
                {
                    "name": "C#4",
                    "midi": 61,
                    "time": 306.00006374999754,
                    "velocity": 0.15748031496062992,
                    "duration": 0.35294125000001486
                },
                {
                    "name": "F3",
                    "midi": 53,
                    "time": 306.35300499999755,
                    "velocity": 0.15748031496062992,
                    "duration": 0.35294125000001486
                },
                {
                    "name": "G#2",
                    "midi": 44,
                    "time": 306.70594624999757,
                    "velocity": 0.15748031496062992,
                    "duration": 0.35294125000001486
                },
                {
                    "name": "C#2",
                    "midi": 37,
                    "time": 307.0588874999976,
                    "velocity": 0.1889763779527559,
                    "duration": 0.35294125000001486
                },
                {
                    "name": "C#4",
                    "midi": 61,
                    "time": 307.4118287499976,
                    "velocity": 0.15748031496062992,
                    "duration": 0.35294125000001486
                },
                {
                    "name": "C#3",
                    "midi": 49,
                    "time": 307.7647699999976,
                    "velocity": 0.15748031496062992,
                    "duration": 0.35294125000001486
                },
                {
                    "name": "C#4",
                    "midi": 61,
                    "time": 308.1177112499976,
                    "velocity": 0.15748031496062992,
                    "duration": 0.35294125000001486
                },
                {
                    "name": "F3",
                    "midi": 53,
                    "time": 308.47065249999764,
                    "velocity": 0.15748031496062992,
                    "duration": 0.35294125000001486
                },
                {
                    "name": "G#2",
                    "midi": 44,
                    "time": 308.82359374999766,
                    "velocity": 0.15748031496062992,
                    "duration": 0.35294125000001486
                },
                {
                    "name": "C#2",
                    "midi": 37,
                    "time": 309.17653499999767,
                    "velocity": 0.18110236220472442,
                    "duration": 0.35294125000001486
                },
                {
                    "name": "C4",
                    "midi": 60,
                    "time": 309.5294762499977,
                    "velocity": 0.15748031496062992,
                    "duration": 0.35294125000001486
                },
                {
                    "name": "D#3",
                    "midi": 51,
                    "time": 309.8824174999977,
                    "velocity": 0.15748031496062992,
                    "duration": 0.35294125000001486
                },
                {
                    "name": "C4",
                    "midi": 60,
                    "time": 310.2353587499977,
                    "velocity": 0.14960629921259844,
                    "duration": 0.35294125000001486
                },
                {
                    "name": "F#3",
                    "midi": 54,
                    "time": 310.58829999999773,
                    "velocity": 0.14960629921259844,
                    "duration": 0.35294125000001486
                },
                {
                    "name": "G#2",
                    "midi": 44,
                    "time": 310.94124124999774,
                    "velocity": 0.14960629921259844,
                    "duration": 0.35294125000001486
                },
                {
                    "name": "C#2",
                    "midi": 37,
                    "time": 311.29418249999776,
                    "velocity": 0.1732283464566929,
                    "duration": 0.35294125000001486
                },
                {
                    "name": "C4",
                    "midi": 60,
                    "time": 311.6471237499978,
                    "velocity": 0.14960629921259844,
                    "duration": 0.35294125000001486
                },
                {
                    "name": "D#3",
                    "midi": 51,
                    "time": 312.0000649999978,
                    "velocity": 0.14960629921259844,
                    "duration": 0.35294125000001486
                },
                {
                    "name": "C4",
                    "midi": 60,
                    "time": 312.3530062499978,
                    "velocity": 0.14960629921259844,
                    "duration": 0.35294125000001486
                },
                {
                    "name": "F#3",
                    "midi": 54,
                    "time": 312.7059474999978,
                    "velocity": 0.14960629921259844,
                    "duration": 0.35294125000001486
                },
                {
                    "name": "G#2",
                    "midi": 44,
                    "time": 313.05888874999783,
                    "velocity": 0.14960629921259844,
                    "duration": 0.35294125000001486
                },
                {
                    "name": "C#2",
                    "midi": 37,
                    "time": 313.41182999999785,
                    "velocity": 0.1732283464566929,
                    "duration": 0.352941249999958
                },
                {
                    "name": "C#4",
                    "midi": 61,
                    "time": 313.7647712499978,
                    "velocity": 0.14173228346456693,
                    "duration": 0.35294125000001486
                },
                {
                    "name": "C#3",
                    "midi": 49,
                    "time": 314.1177124999978,
                    "velocity": 0.14173228346456693,
                    "duration": 0.35294125000001486
                },
                {
                    "name": "C#4",
                    "midi": 61,
                    "time": 314.47065374999784,
                    "velocity": 0.14173228346456693,
                    "duration": 0.35294125000001486
                },
                {
                    "name": "F3",
                    "midi": 53,
                    "time": 314.82359499999785,
                    "velocity": 0.14173228346456693,
                    "duration": 0.35294125000001486
                },
                {
                    "name": "G#2",
                    "midi": 44,
                    "time": 315.17653624999787,
                    "velocity": 0.14173228346456693,
                    "duration": 0.35294125000001486
                },
                {
                    "name": "C#2",
                    "midi": 37,
                    "time": 315.5294774999979,
                    "velocity": 0.1732283464566929,
                    "duration": 0.35294125000001486
                },
                {
                    "name": "C#4",
                    "midi": 61,
                    "time": 315.8824187499979,
                    "velocity": 0.14173228346456693,
                    "duration": 0.35294125000001486
                },
                {
                    "name": "C#3",
                    "midi": 49,
                    "time": 316.2353599999979,
                    "velocity": 0.14173228346456693,
                    "duration": 0.35294125000001486
                },
                {
                    "name": "C#4",
                    "midi": 61,
                    "time": 316.5883012499979,
                    "velocity": 0.14173228346456693,
                    "duration": 0.35294125000001486
                },
                {
                    "name": "F3",
                    "midi": 53,
                    "time": 316.94124249999794,
                    "velocity": 0.14173228346456693,
                    "duration": 0.35294125000001486
                },
                {
                    "name": "G#2",
                    "midi": 44,
                    "time": 317.29418374999796,
                    "velocity": 0.14173228346456693,
                    "duration": 0.35294125000001486
                },
                {
                    "name": "C#2",
                    "midi": 37,
                    "time": 317.64712499999797,
                    "velocity": 0.1732283464566929,
                    "duration": 0.35294125000001486
                },
                {
                    "name": "C#4",
                    "midi": 61,
                    "time": 318.000066249998,
                    "velocity": 0.14173228346456693,
                    "duration": 0.35294125000001486
                },
                {
                    "name": "C#3",
                    "midi": 49,
                    "time": 318.353007499998,
                    "velocity": 0.14173228346456693,
                    "duration": 0.35294125000001486
                },
                {
                    "name": "C#4",
                    "midi": 61,
                    "time": 318.705948749998,
                    "velocity": 0.14173228346456693,
                    "duration": 0.35294125000001486
                },
                {
                    "name": "F3",
                    "midi": 53,
                    "time": 319.05888999999803,
                    "velocity": 0.14173228346456693,
                    "duration": 0.35294125000001486
                },
                {
                    "name": "G#2",
                    "midi": 44,
                    "time": 319.41183124999804,
                    "velocity": 0.14173228346456693,
                    "duration": 0.35294125000001486
                },
                {
                    "name": "C#2",
                    "midi": 37,
                    "time": 319.76477249999806,
                    "velocity": 0.1732283464566929,
                    "duration": 0.35294125000001486
                },
                {
                    "name": "C#4",
                    "midi": 61,
                    "time": 320.1177137499981,
                    "velocity": 0.14173228346456693,
                    "duration": 0.35294125000001486
                },
                {
                    "name": "C#3",
                    "midi": 49,
                    "time": 320.4706549999981,
                    "velocity": 0.14173228346456693,
                    "duration": 0.35294125000001486
                },
                {
                    "name": "C#4",
                    "midi": 61,
                    "time": 320.8235962499981,
                    "velocity": 0.14173228346456693,
                    "duration": 0.35294125000001486
                },
                {
                    "name": "F3",
                    "midi": 53,
                    "time": 321.1765374999981,
                    "velocity": 0.14173228346456693,
                    "duration": 0.35294125000001486
                },
                {
                    "name": "G#2",
                    "midi": 44,
                    "time": 321.52947874999813,
                    "velocity": 0.14173228346456693,
                    "duration": 0.35294125000001486
                },
                {
                    "name": "C#2",
                    "midi": 37,
                    "time": 321.88241999999815,
                    "velocity": 0.13385826771653545,
                    "duration": 1.4117650000000026
                },
                {
                    "name": "G#2",
                    "midi": 44,
                    "time": 324.0000674999981,
                    "velocity": 0.12598425196850394,
                    "duration": 2.1176474999999755
                },
                {
                    "name": "G#3",
                    "midi": 56,
                    "time": 324.0000674999981,
                    "velocity": 0.15748031496062992,
                    "duration": 2.1176474999999755
                },
                {
                    "name": "C#3",
                    "midi": 49,
                    "time": 326.1177149999981,
                    "velocity": 0.12598425196850394,
                    "duration": 4.235295000000008
                },
                {
                    "name": "G#3",
                    "midi": 56,
                    "time": 326.1177149999981,
                    "velocity": 0.15748031496062992,
                    "duration": 4.235295000000008
                }
            ],
            "controlChanges": {
                "7": [
                    {
                        "number": 7,
                        "time": 0,
                        "value": 0.7874015748031497
                    }
                ],
                "10": [
                    {
                        "number": 10,
                        "time": 0,
                        "value": 0.5039370078740157
                    }
                ],
                "64": [
                    {
                        "number": 64,
                        "time": 0,
                        "value": 1
                    },
                    {
                        "number": 64,
                        "time": 16.976474125000014,
                        "value": 0
                    },
                    {
                        "number": 64,
                        "time": 17.144121218750012,
                        "value": 1
                    },
                    {
                        "number": 64,
                        "time": 21.21471030208335,
                        "value": 0
                    },
                    {
                        "number": 64,
                        "time": 21.379416218750016,
                        "value": 1
                    },
                    {
                        "number": 64,
                        "time": 25.46177001041669,
                        "value": 0
                    },
                    {
                        "number": 64,
                        "time": 25.629417104166688,
                        "value": 1
                    },
                    {
                        "number": 64,
                        "time": 27.579417510416693,
                        "value": 0
                    },
                    {
                        "number": 64,
                        "time": 27.76471166666669,
                        "value": 1
                    },
                    {
                        "number": 64,
                        "time": 29.68235912500003,
                        "value": 0
                    },
                    {
                        "number": 64,
                        "time": 29.808829739583363,
                        "value": 1
                    },
                    {
                        "number": 64,
                        "time": 31.8147125104167,
                        "value": 0
                    },
                    {
                        "number": 64,
                        "time": 31.9558890104167,
                        "value": 1
                    },
                    {
                        "number": 64,
                        "time": 33.92941883333337,
                        "value": 0
                    },
                    {
                        "number": 64,
                        "time": 34.044124739583374,
                        "value": 1
                    },
                    {
                        "number": 64,
                        "time": 36.05000751041671,
                        "value": 0
                    },
                    {
                        "number": 64,
                        "time": 36.19118401041671,
                        "value": 1
                    },
                    {
                        "number": 64,
                        "time": 38.14706677083338,
                        "value": 0
                    },
                    {
                        "number": 64,
                        "time": 38.27941973958338,
                        "value": 1
                    },
                    {
                        "number": 64,
                        "time": 40.28530251041672,
                        "value": 0
                    },
                    {
                        "number": 64,
                        "time": 40.42647901041672,
                        "value": 1
                    },
                    {
                        "number": 64,
                        "time": 42.39118530208339,
                        "value": 0
                    },
                    {
                        "number": 64,
                        "time": 42.51471473958339,
                        "value": 1
                    },
                    {
                        "number": 64,
                        "time": 44.52059751041673,
                        "value": 0
                    },
                    {
                        "number": 64,
                        "time": 44.66177401041673,
                        "value": 1
                    },
                    {
                        "number": 64,
                        "time": 46.62942147916673,
                        "value": 0
                    },
                    {
                        "number": 64,
                        "time": 46.7500097395834,
                        "value": 1
                    },
                    {
                        "number": 64,
                        "time": 48.755892510416736,
                        "value": 0
                    },
                    {
                        "number": 64,
                        "time": 48.897069010416736,
                        "value": 1
                    },
                    {
                        "number": 64,
                        "time": 50.8705988333334,
                        "value": 0
                    },
                    {
                        "number": 64,
                        "time": 50.985304739583405,
                        "value": 1
                    },
                    {
                        "number": 64,
                        "time": 52.99412868750007,
                        "value": 0
                    },
                    {
                        "number": 64,
                        "time": 53.13236401041674,
                        "value": 1
                    },
                    {
                        "number": 64,
                        "time": 55.09118794791674,
                        "value": 0
                    },
                    {
                        "number": 64,
                        "time": 55.220599739583406,
                        "value": 1
                    },
                    {
                        "number": 64,
                        "time": 57.226482510416744,
                        "value": 0
                    },
                    {
                        "number": 64,
                        "time": 57.367659010416745,
                        "value": 1
                    },
                    {
                        "number": 64,
                        "time": 59.34707118750008,
                        "value": 0
                    },
                    {
                        "number": 64,
                        "time": 59.455894739583414,
                        "value": 1
                    },
                    {
                        "number": 64,
                        "time": 61.46471868750008,
                        "value": 0
                    },
                    {
                        "number": 64,
                        "time": 61.602954010416745,
                        "value": 1
                    },
                    {
                        "number": 64,
                        "time": 63.58236618750008,
                        "value": 0
                    },
                    {
                        "number": 64,
                        "time": 63.691189739583415,
                        "value": 1
                    },
                    {
                        "number": 64,
                        "time": 65.50883717708341,
                        "value": 0
                    },
                    {
                        "number": 64,
                        "time": 65.83824901041675,
                        "value": 1
                    },
                    {
                        "number": 64,
                        "time": 67.80883765625008,
                        "value": 0
                    },
                    {
                        "number": 64,
                        "time": 67.92648473958342,
                        "value": 1
                    },
                    {
                        "number": 64,
                        "time": 69.93236751041675,
                        "value": 0
                    },
                    {
                        "number": 64,
                        "time": 70.07354401041675,
                        "value": 1
                    },
                    {
                        "number": 64,
                        "time": 72.05001501041676,
                        "value": 0
                    },
                    {
                        "number": 64,
                        "time": 72.1764856250001,
                        "value": 1
                    },
                    {
                        "number": 64,
                        "time": 74.16472133333343,
                        "value": 0
                    },
                    {
                        "number": 64,
                        "time": 74.32354489583344,
                        "value": 1
                    },
                    {
                        "number": 64,
                        "time": 76.27354530208345,
                        "value": 0
                    },
                    {
                        "number": 64,
                        "time": 76.42060415625012,
                        "value": 1
                    },
                    {
                        "number": 64,
                        "time": 78.40589868750013,
                        "value": 0
                    },
                    {
                        "number": 64,
                        "time": 78.48825164583346,
                        "value": 1
                    },
                    {
                        "number": 64,
                        "time": 80.51472265625013,
                        "value": 0
                    },
                    {
                        "number": 64,
                        "time": 80.65589915625013,
                        "value": 1
                    },
                    {
                        "number": 64,
                        "time": 82.64119368750013,
                        "value": 0
                    },
                    {
                        "number": 64,
                        "time": 82.77354665625013,
                        "value": 1
                    },
                    {
                        "number": 64,
                        "time": 84.75001765625014,
                        "value": 0
                    },
                    {
                        "number": 64,
                        "time": 84.89119415625014,
                        "value": 1
                    },
                    {
                        "number": 64,
                        "time": 86.87354751041681,
                        "value": 0
                    },
                    {
                        "number": 64,
                        "time": 86.93825340625014,
                        "value": 1
                    },
                    {
                        "number": 64,
                        "time": 88.98531265625014,
                        "value": 0
                    },
                    {
                        "number": 64,
                        "time": 89.12648915625014,
                        "value": 1
                    },
                    {
                        "number": 64,
                        "time": 91.11178368750015,
                        "value": 0
                    },
                    {
                        "number": 64,
                        "time": 91.27060725000015,
                        "value": 1
                    },
                    {
                        "number": 64,
                        "time": 93.22060765625015,
                        "value": 0
                    },
                    {
                        "number": 64,
                        "time": 93.36178415625015,
                        "value": 1
                    },
                    {
                        "number": 64,
                        "time": 95.34413751041683,
                        "value": 0
                    },
                    {
                        "number": 64,
                        "time": 95.56472579166683,
                        "value": 1
                    },
                    {
                        "number": 64,
                        "time": 97.4500203020835,
                        "value": 0
                    },
                    {
                        "number": 64,
                        "time": 97.59707915625017,
                        "value": 1
                    },
                    {
                        "number": 64,
                        "time": 99.57649133333352,
                        "value": 0
                    },
                    {
                        "number": 64,
                        "time": 99.68531488541686,
                        "value": 1
                    },
                    {
                        "number": 64,
                        "time": 101.6911976562502,
                        "value": 0
                    },
                    {
                        "number": 64,
                        "time": 101.8323741562502,
                        "value": 1
                    },
                    {
                        "number": 64,
                        "time": 103.81178633333354,
                        "value": 0
                    },
                    {
                        "number": 64,
                        "time": 103.95296283333354,
                        "value": 1
                    },
                    {
                        "number": 64,
                        "time": 105.94413971875021,
                        "value": 0
                    },
                    {
                        "number": 64,
                        "time": 106.11178681250021,
                        "value": 1
                    },
                    {
                        "number": 64,
                        "time": 118.62649530208357,
                        "value": 0
                    },
                    {
                        "number": 64,
                        "time": 118.79120121875023,
                        "value": 1
                    },
                    {
                        "number": 64,
                        "time": 122.86767265625024,
                        "value": 0
                    },
                    {
                        "number": 64,
                        "time": 123.02649621875024,
                        "value": 1
                    },
                    {
                        "number": 64,
                        "time": 127.11179118750024,
                        "value": 0
                    },
                    {
                        "number": 64,
                        "time": 127.16179119791691,
                        "value": 1
                    },
                    {
                        "number": 64,
                        "time": 129.22649751041686,
                        "value": 0
                    },
                    {
                        "number": 64,
                        "time": 129.41179166666686,
                        "value": 1
                    },
                    {
                        "number": 64,
                        "time": 131.33238030208346,
                        "value": 0
                    },
                    {
                        "number": 64,
                        "time": 131.45590973958346,
                        "value": 1
                    },
                    {
                        "number": 64,
                        "time": 133.46473368750006,
                        "value": 0
                    },
                    {
                        "number": 64,
                        "time": 133.60296901041673,
                        "value": 1
                    },
                    {
                        "number": 64,
                        "time": 135.55885177083331,
                        "value": 0
                    },
                    {
                        "number": 64,
                        "time": 135.6647341458333,
                        "value": 1
                    },
                    {
                        "number": 64,
                        "time": 137.6794404479166,
                        "value": 0
                    },
                    {
                        "number": 64,
                        "time": 137.8559110729166,
                        "value": 1
                    },
                    {
                        "number": 64,
                        "time": 139.80002912499987,
                        "value": 0
                    },
                    {
                        "number": 64,
                        "time": 139.88826443749986,
                        "value": 1
                    },
                    {
                        "number": 64,
                        "time": 141.9353236874998,
                        "value": 0
                    },
                    {
                        "number": 64,
                        "time": 142.0441472395831,
                        "value": 1
                    },
                    {
                        "number": 64,
                        "time": 144.0441476562497,
                        "value": 0
                    },
                    {
                        "number": 64,
                        "time": 144.16179473958303,
                        "value": 1
                    },
                    {
                        "number": 64,
                        "time": 146.15885397916628,
                        "value": 0
                    },
                    {
                        "number": 64,
                        "time": 146.23532458333295,
                        "value": 1
                    },
                    {
                        "number": 64,
                        "time": 148.27061912499957,
                        "value": 0
                    },
                    {
                        "number": 64,
                        "time": 148.3970897395829,
                        "value": 1
                    },
                    {
                        "number": 64,
                        "time": 150.4000313333328,
                        "value": 0
                    },
                    {
                        "number": 64,
                        "time": 150.54414901041613,
                        "value": 1
                    },
                    {
                        "number": 64,
                        "time": 152.50885530208274,
                        "value": 0
                    },
                    {
                        "number": 64,
                        "time": 152.63238473958273,
                        "value": 1
                    },
                    {
                        "number": 64,
                        "time": 154.64120868749933,
                        "value": 0
                    },
                    {
                        "number": 64,
                        "time": 154.779444010416,
                        "value": 1
                    },
                    {
                        "number": 64,
                        "time": 156.7441503020826,
                        "value": 0
                    },
                    {
                        "number": 64,
                        "time": 156.8676797395826,
                        "value": 1
                    },
                    {
                        "number": 64,
                        "time": 158.8765036874992,
                        "value": 0
                    },
                    {
                        "number": 64,
                        "time": 159.01473901041587,
                        "value": 1
                    },
                    {
                        "number": 64,
                        "time": 160.97650412499914,
                        "value": 0
                    },
                    {
                        "number": 64,
                        "time": 161.10297473958246,
                        "value": 1
                    },
                    {
                        "number": 64,
                        "time": 163.10591633333237,
                        "value": 0
                    },
                    {
                        "number": 64,
                        "time": 163.2500340104157,
                        "value": 1
                    },
                    {
                        "number": 64,
                        "time": 165.2147403020823,
                        "value": 0
                    },
                    {
                        "number": 64,
                        "time": 165.3382697395823,
                        "value": 1
                    },
                    {
                        "number": 64,
                        "time": 167.3412113333322,
                        "value": 0
                    },
                    {
                        "number": 64,
                        "time": 167.48532901041554,
                        "value": 1
                    },
                    {
                        "number": 64,
                        "time": 169.44415294791548,
                        "value": 0
                    },
                    {
                        "number": 64,
                        "time": 169.57356473958214,
                        "value": 1
                    },
                    {
                        "number": 64,
                        "time": 171.57944751041538,
                        "value": 0
                    },
                    {
                        "number": 64,
                        "time": 171.85003580208203,
                        "value": 1
                    },
                    {
                        "number": 64,
                        "time": 173.68533030208198,
                        "value": 0
                    },
                    {
                        "number": 64,
                        "time": 173.80885973958198,
                        "value": 1
                    },
                    {
                        "number": 64,
                        "time": 175.81180133333189,
                        "value": 0
                    },
                    {
                        "number": 64,
                        "time": 175.95591901041522,
                        "value": 1
                    },
                    {
                        "number": 64,
                        "time": 177.9353311874985,
                        "value": 0
                    },
                    {
                        "number": 64,
                        "time": 178.0441547395818,
                        "value": 1
                    },
                    {
                        "number": 64,
                        "time": 180.05003751041505,
                        "value": 0
                    },
                    {
                        "number": 64,
                        "time": 180.19121401041505,
                        "value": 1
                    },
                    {
                        "number": 64,
                        "time": 182.16474383333164,
                        "value": 0
                    },
                    {
                        "number": 64,
                        "time": 182.27944973958165,
                        "value": 1
                    },
                    {
                        "number": 64,
                        "time": 184.27062662499824,
                        "value": 0
                    },
                    {
                        "number": 64,
                        "time": 184.39709723958157,
                        "value": 1
                    },
                    {
                        "number": 64,
                        "time": 185.68827397916485,
                        "value": 0
                    },
                    {
                        "number": 64,
                        "time": 185.80886223958152,
                        "value": 1
                    },
                    {
                        "number": 64,
                        "time": 187.11180368749814,
                        "value": 0
                    },
                    {
                        "number": 64,
                        "time": 187.15886252083146,
                        "value": 1
                    },
                    {
                        "number": 64,
                        "time": 190.63239265624802,
                        "value": 0
                    },
                    {
                        "number": 64,
                        "time": 190.98239272916467,
                        "value": 1
                    },
                    {
                        "number": 64,
                        "time": 203.3265129479142,
                        "value": 0
                    },
                    {
                        "number": 64,
                        "time": 203.49710121874753,
                        "value": 1
                    },
                    {
                        "number": 64,
                        "time": 207.56474912499738,
                        "value": 0
                    },
                    {
                        "number": 64,
                        "time": 207.6647491458307,
                        "value": 1
                    },
                    {
                        "number": 64,
                        "time": 211.82651471874723,
                        "value": 0
                    },
                    {
                        "number": 64,
                        "time": 211.9823971041639,
                        "value": 1
                    },
                    {
                        "number": 64,
                        "time": 213.93239751041384,
                        "value": 0
                    },
                    {
                        "number": 64,
                        "time": 214.11769166666383,
                        "value": 1
                    },
                    {
                        "number": 64,
                        "time": 216.0441626562471,
                        "value": 0
                    },
                    {
                        "number": 64,
                        "time": 216.14710385416376,
                        "value": 1
                    },
                    {
                        "number": 64,
                        "time": 220.28828118749712,
                        "value": 0
                    },
                    {
                        "number": 64,
                        "time": 220.35298708333045,
                        "value": 1
                    },
                    {
                        "number": 64,
                        "time": 224.5412232499971,
                        "value": 0
                    },
                    {
                        "number": 64,
                        "time": 224.68828210416376,
                        "value": 1
                    },
                    {
                        "number": 64,
                        "time": 226.6382825104137,
                        "value": 0
                    },
                    {
                        "number": 64,
                        "time": 226.82357666666368,
                        "value": 1
                    },
                    {
                        "number": 64,
                        "time": 228.74710647916362,
                        "value": 0
                    },
                    {
                        "number": 64,
                        "time": 228.8676947395803,
                        "value": 1
                    },
                    {
                        "number": 64,
                        "time": 230.87357751041353,
                        "value": 0
                    },
                    {
                        "number": 64,
                        "time": 231.01475401041353,
                        "value": 1
                    },
                    {
                        "number": 64,
                        "time": 232.98240147916346,
                        "value": 0
                    },
                    {
                        "number": 64,
                        "time": 233.10298973958012,
                        "value": 1
                    },
                    {
                        "number": 64,
                        "time": 235.10887251041336,
                        "value": 0
                    },
                    {
                        "number": 64,
                        "time": 235.25004901041336,
                        "value": 1
                    },
                    {
                        "number": 64,
                        "time": 237.21475530207996,
                        "value": 0
                    },
                    {
                        "number": 64,
                        "time": 237.33828473957996,
                        "value": 1
                    },
                    {
                        "number": 64,
                        "time": 239.34122633332987,
                        "value": 0
                    },
                    {
                        "number": 64,
                        "time": 239.4853440104132,
                        "value": 1
                    },
                    {
                        "number": 64,
                        "time": 241.45299147916313,
                        "value": 0
                    },
                    {
                        "number": 64,
                        "time": 241.5735797395798,
                        "value": 1
                    },
                    {
                        "number": 64,
                        "time": 243.57946251041304,
                        "value": 0
                    },
                    {
                        "number": 64,
                        "time": 243.72063901041304,
                        "value": 1
                    },
                    {
                        "number": 64,
                        "time": 245.68828647916297,
                        "value": 0
                    },
                    {
                        "number": 64,
                        "time": 245.80887473957964,
                        "value": 1
                    },
                    {
                        "number": 64,
                        "time": 247.81475751041287,
                        "value": 0
                    },
                    {
                        "number": 64,
                        "time": 247.95593401041288,
                        "value": 1
                    },
                    {
                        "number": 64,
                        "time": 249.92064030207948,
                        "value": 0
                    },
                    {
                        "number": 64,
                        "time": 250.04416973957947,
                        "value": 1
                    },
                    {
                        "number": 64,
                        "time": 252.0500525104127,
                        "value": 0
                    },
                    {
                        "number": 64,
                        "time": 252.1912290104127,
                        "value": 1
                    },
                    {
                        "number": 64,
                        "time": 254.16181765624597,
                        "value": 0
                    },
                    {
                        "number": 64,
                        "time": 254.2794647395793,
                        "value": 1
                    },
                    {
                        "number": 64,
                        "time": 260.52064251041276,
                        "value": 0
                    },
                    {
                        "number": 64,
                        "time": 260.6618190104127,
                        "value": 1
                    },
                    {
                        "number": 64,
                        "time": 262.6265253020795,
                        "value": 0
                    },
                    {
                        "number": 64,
                        "time": 262.73829003124615,
                        "value": 1
                    },
                    {
                        "number": 64,
                        "time": 264.7500551562463,
                        "value": 0
                    },
                    {
                        "number": 64,
                        "time": 264.94123166666293,
                        "value": 1
                    },
                    {
                        "number": 64,
                        "time": 266.8794673645797,
                        "value": 0
                    },
                    {
                        "number": 64,
                        "time": 267.058879166663,
                        "value": 1
                    },
                    {
                        "number": 64,
                        "time": 268.99711486457977,
                        "value": 0
                    },
                    {
                        "number": 64,
                        "time": 269.1765266666631,
                        "value": 1
                    },
                    {
                        "number": 64,
                        "time": 271.1118211874965,
                        "value": 0
                    },
                    {
                        "number": 64,
                        "time": 271.1912329687465,
                        "value": 1
                    },
                    {
                        "number": 64,
                        "time": 273.22652751041323,
                        "value": 0
                    },
                    {
                        "number": 64,
                        "time": 273.41182166666323,
                        "value": 1
                    },
                    {
                        "number": 64,
                        "time": 275.3441750104133,
                        "value": 0
                    },
                    {
                        "number": 64,
                        "time": 275.42652796874665,
                        "value": 1
                    },
                    {
                        "number": 64,
                        "time": 277.4647636874967,
                        "value": 0
                    },
                    {
                        "number": 64,
                        "time": 277.57064606249673,
                        "value": 1
                    },
                    {
                        "number": 64,
                        "time": 279.5647641249968,
                        "value": 0
                    },
                    {
                        "number": 64,
                        "time": 279.6794700312468,
                        "value": 1
                    },
                    {
                        "number": 64,
                        "time": 281.69417633333023,
                        "value": 0
                    },
                    {
                        "number": 64,
                        "time": 281.8147645937469,
                        "value": 1
                    },
                    {
                        "number": 64,
                        "time": 283.82064736458017,
                        "value": 0
                    },
                    {
                        "number": 64,
                        "time": 284.0000591666635,
                        "value": 1
                    },
                    {
                        "number": 64,
                        "time": 285.92947133333024,
                        "value": 0
                    },
                    {
                        "number": 64,
                        "time": 286.1177066666636,
                        "value": 1
                    },
                    {
                        "number": 64,
                        "time": 288.053001187497,
                        "value": 0
                    },
                    {
                        "number": 64,
                        "time": 288.13241296874696,
                        "value": 1
                    },
                    {
                        "number": 64,
                        "time": 290.16476633333036,
                        "value": 0
                    },
                    {
                        "number": 64,
                        "time": 290.3530016666637,
                        "value": 1
                    },
                    {
                        "number": 64,
                        "time": 292.29123736458047,
                        "value": 0
                    },
                    {
                        "number": 64,
                        "time": 292.36770796874714,
                        "value": 1
                    },
                    {
                        "number": 64,
                        "time": 294.41182604166386,
                        "value": 0
                    },
                    {
                        "number": 64,
                        "time": 294.58829666666384,
                        "value": 1
                    },
                    {
                        "number": 64,
                        "time": 296.52359118749723,
                        "value": 0
                    },
                    {
                        "number": 64,
                        "time": 296.6030029687472,
                        "value": 1
                    },
                    {
                        "number": 64,
                        "time": 298.6441798645806,
                        "value": 0
                    },
                    {
                        "number": 64,
                        "time": 298.82359166666396,
                        "value": 1
                    },
                    {
                        "number": 64,
                        "time": 300.7618273645807,
                        "value": 0
                    },
                    {
                        "number": 64,
                        "time": 300.8382979687474,
                        "value": 1
                    },
                    {
                        "number": 64,
                        "time": 302.87653368749744,
                        "value": 0
                    },
                    {
                        "number": 64,
                        "time": 303.05888666666414,
                        "value": 1
                    },
                    {
                        "number": 64,
                        "time": 304.99418118749753,
                        "value": 0
                    },
                    {
                        "number": 64,
                        "time": 305.0735929687475,
                        "value": 1
                    },
                    {
                        "number": 64,
                        "time": 307.10888751041426,
                        "value": 0
                    },
                    {
                        "number": 64,
                        "time": 307.29418166666426,
                        "value": 1
                    },
                    {
                        "number": 64,
                        "time": 309.232417364581,
                        "value": 0
                    },
                    {
                        "number": 64,
                        "time": 309.3088879687477,
                        "value": 1
                    },
                    {
                        "number": 64,
                        "time": 311.34712368749774,
                        "value": 0
                    },
                    {
                        "number": 64,
                        "time": 311.52947666666444,
                        "value": 1
                    },
                    {
                        "number": 64,
                        "time": 313.46477118749783,
                        "value": 0
                    },
                    {
                        "number": 64,
                        "time": 313.5441829687478,
                        "value": 1
                    },
                    {
                        "number": 64,
                        "time": 321.93536118749813,
                        "value": 0
                    },
                    {
                        "number": 64,
                        "time": 322.50889071874815,
                        "value": 1
                    },
                    {
                        "number": 64,
                        "time": 334.07948136458145,
                        "value": 0
                    }
                ]
            },
            "id": 2,
            "name": "Piano left",
            "instrumentNumber": 0,
            "instrument": "acoustic grand piano",
            "instrumentFamily": "piano",
            "channelNumber": 0,
            "isPercussion": false
        },
        {
            "startTime": 0,
            "duration": 0,
            "length": 0,
            "notes": [],
            "controlChanges": {},
            "id": 3,
            "name": "Chopin:  Nocturne Op. 27 Nr. 2"
        },
        {
            "startTime": 0,
            "duration": 0,
            "length": 0,
            "notes": [],
            "controlChanges": {},
            "id": 4,
            "name": "Copyright  2003 by Bernd Krueger"
        },
        {
            "startTime": 0,
            "duration": 0,
            "length": 0,
            "notes": [],
            "controlChanges": {},
            "id": 5,
            "name": "http://www.piano-midi.de"
        },
        {
            "startTime": 0,
            "duration": 0,
            "length": 0,
            "notes": [],
            "controlChanges": {},
            "id": 6,
            "name": "Edition: 2014-02-19"
        },
        {
            "startTime": 0,
            "duration": 0,
            "length": 0,
            "notes": [],
            "controlChanges": {},
            "id": 7,
            "name": "Spur 7"
        }
    ]
}