{
    "header": {
        "PPQ": 480,
        "timeSignature": [
            4,
            4
        ],
        "bpm": 173.99979120025057,
        "name": "Etüde Opus 10 No. 5"
    },
    "startTime": 0,
    "duration": 108.9656480000003,
    "tracks": [
        {
            "startTime": 0,
            "duration": 0,
            "length": 0,
            "notes": [],
            "controlChanges": {},
            "id": 0,
            "name": "Etüde Opus 10 No. 5"
        },
        {
            "startTime": 0.34482799999999997,
            "duration": 107.15530100000137,
            "length": 988,
            "notes": [
                {
                    "name": "E4",
                    "midi": 64,
                    "time": 0.34482799999999997,
                    "velocity": 0.7086614173228346,
                    "duration": 0.08620699999999998
                },
                {
                    "name": "C4",
                    "midi": 60,
                    "time": 0.43103499999999995,
                    "velocity": 0.6062992125984252,
                    "duration": 0.08620700000000003
                },
                {
                    "name": "G4",
                    "midi": 67,
                    "time": 0.517242,
                    "velocity": 0.6299212598425197,
                    "duration": 0.08620700000000003
                },
                {
                    "name": "C5",
                    "midi": 72,
                    "time": 0.603449,
                    "velocity": 0.6141732283464567,
                    "duration": 0.08620700000000003
                },
                {
                    "name": "E5",
                    "midi": 76,
                    "time": 0.689656,
                    "velocity": 0.7322834645669292,
                    "duration": 0.08620700000000003
                },
                {
                    "name": "C5",
                    "midi": 72,
                    "time": 0.7758630000000001,
                    "velocity": 0.6220472440944882,
                    "duration": 0.08620700000000003
                },
                {
                    "name": "G5",
                    "midi": 79,
                    "time": 0.8620700000000001,
                    "velocity": 0.6456692913385826,
                    "duration": 0.08620700000000003
                },
                {
                    "name": "C6",
                    "midi": 84,
                    "time": 0.9482770000000001,
                    "velocity": 0.6299212598425197,
                    "duration": 0.08620700000000003
                },
                {
                    "name": "E6",
                    "midi": 88,
                    "time": 1.0344840000000002,
                    "velocity": 0.7322834645669292,
                    "duration": 0.08620699999999992
                },
                {
                    "name": "C6",
                    "midi": 84,
                    "time": 1.120691,
                    "velocity": 0.6299212598425197,
                    "duration": 0.08620699999999992
                },
                {
                    "name": "G6",
                    "midi": 91,
                    "time": 1.206898,
                    "velocity": 0.6535433070866141,
                    "duration": 0.08620699999999992
                },
                {
                    "name": "C7",
                    "midi": 96,
                    "time": 1.293105,
                    "velocity": 0.6377952755905512,
                    "duration": 0.08620699999999992
                },
                {
                    "name": "E7",
                    "midi": 100,
                    "time": 1.3793119999999999,
                    "velocity": 0.7480314960629921,
                    "duration": 0.08620699999999992
                },
                {
                    "name": "C7",
                    "midi": 96,
                    "time": 1.4655189999999998,
                    "velocity": 0.6299212598425197,
                    "duration": 0.08620699999999992
                },
                {
                    "name": "G6",
                    "midi": 91,
                    "time": 1.5517259999999997,
                    "velocity": 0.6614173228346457,
                    "duration": 0.08620699999999992
                },
                {
                    "name": "C6",
                    "midi": 84,
                    "time": 1.6379329999999996,
                    "velocity": 0.6299212598425197,
                    "duration": 0.08620699999999992
                },
                {
                    "name": "E6",
                    "midi": 88,
                    "time": 1.7241399999999996,
                    "velocity": 0.7401574803149606,
                    "duration": 0.08620699999999992
                },
                {
                    "name": "C6",
                    "midi": 84,
                    "time": 1.8103469999999995,
                    "velocity": 0.6299212598425197,
                    "duration": 0.08620699999999992
                },
                {
                    "name": "G5",
                    "midi": 79,
                    "time": 1.8965539999999994,
                    "velocity": 0.6535433070866141,
                    "duration": 0.08620699999999992
                },
                {
                    "name": "C5",
                    "midi": 72,
                    "time": 1.9827609999999993,
                    "velocity": 0.6220472440944882,
                    "duration": 0.08620700000000014
                },
                {
                    "name": "E5",
                    "midi": 76,
                    "time": 2.0689679999999995,
                    "velocity": 0.7322834645669292,
                    "duration": 0.08620699999999992
                },
                {
                    "name": "C5",
                    "midi": 72,
                    "time": 2.1551749999999994,
                    "velocity": 0.6220472440944882,
                    "duration": 0.08620699999999992
                },
                {
                    "name": "G4",
                    "midi": 67,
                    "time": 2.2413819999999993,
                    "velocity": 0.6377952755905512,
                    "duration": 0.08620699999999992
                },
                {
                    "name": "C4",
                    "midi": 60,
                    "time": 2.3275889999999992,
                    "velocity": 0.6141732283464567,
                    "duration": 0.08620699999999992
                },
                {
                    "name": "E4",
                    "midi": 64,
                    "time": 2.413795999999999,
                    "velocity": 0.7244094488188977,
                    "duration": 0.08620699999999992
                },
                {
                    "name": "C4",
                    "midi": 60,
                    "time": 2.500002999999999,
                    "velocity": 0.5984251968503937,
                    "duration": 0.08620699999999992
                },
                {
                    "name": "F4",
                    "midi": 65,
                    "time": 3.103451999999999,
                    "velocity": 0.7165354330708661,
                    "duration": 0.08620699999999992
                },
                {
                    "name": "C4",
                    "midi": 60,
                    "time": 3.189658999999999,
                    "velocity": 0.6062992125984252,
                    "duration": 0.08620699999999992
                },
                {
                    "name": "A4",
                    "midi": 69,
                    "time": 3.275865999999999,
                    "velocity": 0.6299212598425197,
                    "duration": 0.08620699999999992
                },
                {
                    "name": "C5",
                    "midi": 72,
                    "time": 3.3620729999999988,
                    "velocity": 0.6141732283464567,
                    "duration": 0.08620699999999992
                },
                {
                    "name": "F5",
                    "midi": 77,
                    "time": 3.4482799999999987,
                    "velocity": 0.7322834645669292,
                    "duration": 0.08620699999999992
                },
                {
                    "name": "C5",
                    "midi": 72,
                    "time": 3.5344869999999986,
                    "velocity": 0.6141732283464567,
                    "duration": 0.08620699999999992
                },
                {
                    "name": "A5",
                    "midi": 81,
                    "time": 3.6206939999999985,
                    "velocity": 0.6456692913385826,
                    "duration": 0.08620699999999992
                },
                {
                    "name": "C6",
                    "midi": 84,
                    "time": 3.7069009999999984,
                    "velocity": 0.6299212598425197,
                    "duration": 0.08620699999999992
                },
                {
                    "name": "F6",
                    "midi": 89,
                    "time": 3.7931079999999984,
                    "velocity": 0.7401574803149606,
                    "duration": 0.08620699999999992
                },
                {
                    "name": "C6",
                    "midi": 84,
                    "time": 3.8793149999999983,
                    "velocity": 0.6377952755905512,
                    "duration": 0.08620699999999992
                },
                {
                    "name": "A6",
                    "midi": 93,
                    "time": 3.965521999999998,
                    "velocity": 0.6535433070866141,
                    "duration": 0.08620699999999992
                },
                {
                    "name": "C7",
                    "midi": 96,
                    "time": 4.051728999999998,
                    "velocity": 0.6299212598425197,
                    "duration": 0.08620699999999992
                },
                {
                    "name": "E7",
                    "midi": 100,
                    "time": 4.137935999999998,
                    "velocity": 0.7559055118110236,
                    "duration": 0.08620699999999992
                },
                {
                    "name": "C7",
                    "midi": 96,
                    "time": 4.224142999999998,
                    "velocity": 0.6299212598425197,
                    "duration": 0.08620699999999992
                },
                {
                    "name": "A6",
                    "midi": 93,
                    "time": 4.310349999999998,
                    "velocity": 0.6614173228346457,
                    "duration": 0.08620699999999992
                },
                {
                    "name": "C6",
                    "midi": 84,
                    "time": 4.396556999999998,
                    "velocity": 0.6299212598425197,
                    "duration": 0.08620699999999992
                },
                {
                    "name": "E6",
                    "midi": 88,
                    "time": 4.482763999999998,
                    "velocity": 0.7480314960629921,
                    "duration": 0.08620699999999992
                },
                {
                    "name": "C6",
                    "midi": 84,
                    "time": 4.568970999999998,
                    "velocity": 0.6299212598425197,
                    "duration": 0.08620699999999992
                },
                {
                    "name": "A5",
                    "midi": 81,
                    "time": 4.655177999999998,
                    "velocity": 0.6535433070866141,
                    "duration": 0.08620699999999992
                },
                {
                    "name": "C5",
                    "midi": 72,
                    "time": 4.7413849999999975,
                    "velocity": 0.6220472440944882,
                    "duration": 0.08620699999999992
                },
                {
                    "name": "E5",
                    "midi": 76,
                    "time": 4.827591999999997,
                    "velocity": 0.7322834645669292,
                    "duration": 0.08620699999999992
                },
                {
                    "name": "C5",
                    "midi": 72,
                    "time": 4.913798999999997,
                    "velocity": 0.6141732283464567,
                    "duration": 0.08620699999999992
                },
                {
                    "name": "A4",
                    "midi": 69,
                    "time": 5.000005999999997,
                    "velocity": 0.6377952755905512,
                    "duration": 0.08620699999999992
                },
                {
                    "name": "C4",
                    "midi": 60,
                    "time": 5.086212999999997,
                    "velocity": 0.6062992125984252,
                    "duration": 0.08620699999999992
                },
                {
                    "name": "D4",
                    "midi": 62,
                    "time": 5.172419999999997,
                    "velocity": 0.7244094488188977,
                    "duration": 0.08620699999999992
                },
                {
                    "name": "C4",
                    "midi": 60,
                    "time": 5.258626999999997,
                    "velocity": 0.5984251968503937,
                    "duration": 0.08620699999999992
                },
                {
                    "name": "D4",
                    "midi": 62,
                    "time": 5.8620759999999965,
                    "velocity": 0.7086614173228346,
                    "duration": 0.08620699999999992
                },
                {
                    "name": "B3",
                    "midi": 59,
                    "time": 5.948282999999996,
                    "velocity": 0.6062992125984252,
                    "duration": 0.08620699999999992
                },
                {
                    "name": "G4",
                    "midi": 67,
                    "time": 6.034489999999996,
                    "velocity": 0.6299212598425197,
                    "duration": 0.08620699999999992
                },
                {
                    "name": "B4",
                    "midi": 71,
                    "time": 6.120696999999996,
                    "velocity": 0.6141732283464567,
                    "duration": 0.08620699999999992
                },
                {
                    "name": "D5",
                    "midi": 74,
                    "time": 6.206903999999996,
                    "velocity": 0.7322834645669292,
                    "duration": 0.08620699999999992
                },
                {
                    "name": "B4",
                    "midi": 71,
                    "time": 6.293110999999996,
                    "velocity": 0.6220472440944882,
                    "duration": 0.08620699999999992
                },
                {
                    "name": "G5",
                    "midi": 79,
                    "time": 6.379317999999996,
                    "velocity": 0.6456692913385826,
                    "duration": 0.08620699999999992
                },
                {
                    "name": "B5",
                    "midi": 83,
                    "time": 6.465524999999996,
                    "velocity": 0.6299212598425197,
                    "duration": 0.08620699999999992
                },
                {
                    "name": "D6",
                    "midi": 86,
                    "time": 6.551731999999996,
                    "velocity": 0.7401574803149606,
                    "duration": 0.08620699999999992
                },
                {
                    "name": "B5",
                    "midi": 83,
                    "time": 6.637938999999996,
                    "velocity": 0.6299212598425197,
                    "duration": 0.08620699999999992
                },
                {
                    "name": "G6",
                    "midi": 91,
                    "time": 6.724145999999996,
                    "velocity": 0.6535433070866141,
                    "duration": 0.08620699999999992
                },
                {
                    "name": "A6",
                    "midi": 93,
                    "time": 6.810352999999996,
                    "velocity": 0.6220472440944882,
                    "duration": 0.08620699999999992
                },
                {
                    "name": "D7",
                    "midi": 98,
                    "time": 6.896559999999996,
                    "velocity": 0.7637795275590551,
                    "duration": 0.08620699999999992
                },
                {
                    "name": "A6",
                    "midi": 93,
                    "time": 6.9827669999999955,
                    "velocity": 0.6299212598425197,
                    "duration": 0.08620699999999992
                },
                {
                    "name": "F#6",
                    "midi": 90,
                    "time": 7.068973999999995,
                    "velocity": 0.6614173228346457,
                    "duration": 0.08620699999999992
                },
                {
                    "name": "C6",
                    "midi": 84,
                    "time": 7.155180999999995,
                    "velocity": 0.6299212598425197,
                    "duration": 0.08620699999999992
                },
                {
                    "name": "D6",
                    "midi": 86,
                    "time": 7.241387999999995,
                    "velocity": 0.7480314960629921,
                    "duration": 0.08620699999999992
                },
                {
                    "name": "A5",
                    "midi": 81,
                    "time": 7.327594999999995,
                    "velocity": 0.6299212598425197,
                    "duration": 0.08620699999999992
                },
                {
                    "name": "F#5",
                    "midi": 78,
                    "time": 7.413801999999995,
                    "velocity": 0.6456692913385826,
                    "duration": 0.08620699999999992
                },
                {
                    "name": "C5",
                    "midi": 72,
                    "time": 7.500008999999995,
                    "velocity": 0.6220472440944882,
                    "duration": 0.08620699999999992
                },
                {
                    "name": "D5",
                    "midi": 74,
                    "time": 7.586215999999995,
                    "velocity": 0.7401574803149606,
                    "duration": 0.08620699999999992
                },
                {
                    "name": "A4",
                    "midi": 69,
                    "time": 7.672422999999995,
                    "velocity": 0.6062992125984252,
                    "duration": 0.08620699999999992
                },
                {
                    "name": "F#4",
                    "midi": 66,
                    "time": 7.758629999999995,
                    "velocity": 0.6377952755905512,
                    "duration": 0.08620699999999992
                },
                {
                    "name": "C4",
                    "midi": 60,
                    "time": 7.844836999999995,
                    "velocity": 0.6062992125984252,
                    "duration": 0.08620699999999992
                },
                {
                    "name": "D4",
                    "midi": 62,
                    "time": 7.931043999999995,
                    "velocity": 0.6299212598425197,
                    "duration": 0.08620699999999992
                },
                {
                    "name": "D4",
                    "midi": 62,
                    "time": 8.620699999999994,
                    "velocity": 0.7165354330708661,
                    "duration": 0.08620699999999992
                },
                {
                    "name": "C4",
                    "midi": 60,
                    "time": 8.706906999999994,
                    "velocity": 0.5984251968503937,
                    "duration": 0.08620699999999992
                },
                {
                    "name": "F4",
                    "midi": 65,
                    "time": 8.793113999999994,
                    "velocity": 0.6299212598425197,
                    "duration": 0.08620699999999992
                },
                {
                    "name": "G#4",
                    "midi": 68,
                    "time": 8.879320999999994,
                    "velocity": 0.6062992125984252,
                    "duration": 0.08620699999999992
                },
                {
                    "name": "D5",
                    "midi": 74,
                    "time": 8.965527999999994,
                    "velocity": 0.7244094488188977,
                    "duration": 0.08620699999999992
                },
                {
                    "name": "C5",
                    "midi": 72,
                    "time": 9.051734999999994,
                    "velocity": 0.6141732283464567,
                    "duration": 0.08620699999999992
                },
                {
                    "name": "F5",
                    "midi": 77,
                    "time": 9.137941999999994,
                    "velocity": 0.6456692913385826,
                    "duration": 0.08620699999999992
                },
                {
                    "name": "G#5",
                    "midi": 80,
                    "time": 9.224148999999993,
                    "velocity": 0.6220472440944882,
                    "duration": 0.08620699999999992
                },
                {
                    "name": "D6",
                    "midi": 86,
                    "time": 9.310355999999993,
                    "velocity": 0.7322834645669292,
                    "duration": 0.08620699999999992
                },
                {
                    "name": "C6",
                    "midi": 84,
                    "time": 9.396562999999993,
                    "velocity": 0.6299212598425197,
                    "duration": 0.08620699999999992
                },
                {
                    "name": "F6",
                    "midi": 89,
                    "time": 9.482769999999993,
                    "velocity": 0.6535433070866141,
                    "duration": 0.08620699999999992
                },
                {
                    "name": "G#6",
                    "midi": 92,
                    "time": 9.568976999999993,
                    "velocity": 0.6299212598425197,
                    "duration": 0.08620699999999992
                },
                {
                    "name": "D7",
                    "midi": 98,
                    "time": 9.655183999999993,
                    "velocity": 0.7480314960629921,
                    "duration": 0.08620699999999992
                },
                {
                    "name": "G6",
                    "midi": 91,
                    "time": 9.741390999999993,
                    "velocity": 0.6220472440944882,
                    "duration": 0.08620699999999992
                },
                {
                    "name": "F6",
                    "midi": 89,
                    "time": 9.827597999999993,
                    "velocity": 0.6614173228346457,
                    "duration": 0.08620699999999992
                },
                {
                    "name": "B5",
                    "midi": 83,
                    "time": 9.913804999999993,
                    "velocity": 0.6220472440944882,
                    "duration": 0.08620699999999992
                },
                {
                    "name": "D6",
                    "midi": 86,
                    "time": 10.000011999999993,
                    "velocity": 0.7401574803149606,
                    "duration": 0.08620699999999992
                },
                {
                    "name": "G5",
                    "midi": 79,
                    "time": 10.086218999999993,
                    "velocity": 0.6220472440944882,
                    "duration": 0.08620699999999992
                },
                {
                    "name": "F5",
                    "midi": 77,
                    "time": 10.172425999999993,
                    "velocity": 0.6535433070866141,
                    "duration": 0.08620699999999992
                },
                {
                    "name": "B4",
                    "midi": 71,
                    "time": 10.258632999999993,
                    "velocity": 0.6141732283464567,
                    "duration": 0.08620699999999992
                },
                {
                    "name": "D5",
                    "midi": 74,
                    "time": 10.344839999999992,
                    "velocity": 0.7322834645669292,
                    "duration": 0.08620699999999992
                },
                {
                    "name": "G4",
                    "midi": 67,
                    "time": 10.431046999999992,
                    "velocity": 0.6062992125984252,
                    "duration": 0.08620699999999992
                },
                {
                    "name": "F4",
                    "midi": 65,
                    "time": 10.517253999999992,
                    "velocity": 0.6377952755905512,
                    "duration": 0.08620699999999992
                },
                {
                    "name": "B3",
                    "midi": 59,
                    "time": 10.603460999999992,
                    "velocity": 0.6062992125984252,
                    "duration": 0.08620699999999992
                },
                {
                    "name": "D#4",
                    "midi": 63,
                    "time": 10.689667999999992,
                    "velocity": 0.7480314960629921,
                    "duration": 0.08620699999999992
                },
                {
                    "name": "E4",
                    "midi": 64,
                    "time": 11.379323999999992,
                    "velocity": 0.6692913385826772,
                    "duration": 0.08620699999999992
                },
                {
                    "name": "C4",
                    "midi": 60,
                    "time": 11.465530999999991,
                    "velocity": 0.5984251968503937,
                    "duration": 0.08620699999999992
                },
                {
                    "name": "G4",
                    "midi": 67,
                    "time": 11.551737999999991,
                    "velocity": 0.6299212598425197,
                    "duration": 0.08620699999999992
                },
                {
                    "name": "C5",
                    "midi": 72,
                    "time": 11.637944999999991,
                    "velocity": 0.6141732283464567,
                    "duration": 0.08620699999999992
                },
                {
                    "name": "E5",
                    "midi": 76,
                    "time": 11.724151999999991,
                    "velocity": 0.7007874015748031,
                    "duration": 0.08620699999999992
                },
                {
                    "name": "C5",
                    "midi": 72,
                    "time": 11.810358999999991,
                    "velocity": 0.6141732283464567,
                    "duration": 0.08620699999999992
                },
                {
                    "name": "G5",
                    "midi": 79,
                    "time": 11.896565999999991,
                    "velocity": 0.6456692913385826,
                    "duration": 0.08620699999999992
                },
                {
                    "name": "C6",
                    "midi": 84,
                    "time": 11.982772999999991,
                    "velocity": 0.6220472440944882,
                    "duration": 0.08620699999999992
                },
                {
                    "name": "E6",
                    "midi": 88,
                    "time": 12.068979999999991,
                    "velocity": 0.7086614173228346,
                    "duration": 0.08620699999999992
                },
                {
                    "name": "C6",
                    "midi": 84,
                    "time": 12.15518699999999,
                    "velocity": 0.6299212598425197,
                    "duration": 0.08620699999999992
                },
                {
                    "name": "G6",
                    "midi": 91,
                    "time": 12.24139399999999,
                    "velocity": 0.6535433070866141,
                    "duration": 0.08620699999999992
                },
                {
                    "name": "C7",
                    "midi": 96,
                    "time": 12.32760099999999,
                    "velocity": 0.6299212598425197,
                    "duration": 0.08620699999999992
                },
                {
                    "name": "E7",
                    "midi": 100,
                    "time": 12.41380799999999,
                    "velocity": 0.7244094488188977,
                    "duration": 0.08620699999999992
                },
                {
                    "name": "C7",
                    "midi": 96,
                    "time": 12.50001499999999,
                    "velocity": 0.6299212598425197,
                    "duration": 0.08620699999999992
                },
                {
                    "name": "G6",
                    "midi": 91,
                    "time": 12.58622199999999,
                    "velocity": 0.6614173228346457,
                    "duration": 0.08620699999999992
                },
                {
                    "name": "C6",
                    "midi": 84,
                    "time": 12.67242899999999,
                    "velocity": 0.6299212598425197,
                    "duration": 0.08620699999999992
                },
                {
                    "name": "E6",
                    "midi": 88,
                    "time": 12.75863599999999,
                    "velocity": 0.7244094488188977,
                    "duration": 0.08620699999999992
                },
                {
                    "name": "C6",
                    "midi": 84,
                    "time": 12.84484299999999,
                    "velocity": 0.6377952755905512,
                    "duration": 0.08620699999999992
                },
                {
                    "name": "G5",
                    "midi": 79,
                    "time": 12.93104999999999,
                    "velocity": 0.6535433070866141,
                    "duration": 0.08620699999999992
                },
                {
                    "name": "C5",
                    "midi": 72,
                    "time": 13.01725699999999,
                    "velocity": 0.6220472440944882,
                    "duration": 0.08620699999999992
                },
                {
                    "name": "E5",
                    "midi": 76,
                    "time": 13.10346399999999,
                    "velocity": 0.7086614173228346,
                    "duration": 0.08620699999999992
                },
                {
                    "name": "C5",
                    "midi": 72,
                    "time": 13.18967099999999,
                    "velocity": 0.6141732283464567,
                    "duration": 0.08620699999999992
                },
                {
                    "name": "G4",
                    "midi": 67,
                    "time": 13.27587799999999,
                    "velocity": 0.6377952755905512,
                    "duration": 0.08620699999999992
                },
                {
                    "name": "C4",
                    "midi": 60,
                    "time": 13.36208499999999,
                    "velocity": 0.6062992125984252,
                    "duration": 0.08620699999999992
                },
                {
                    "name": "E4",
                    "midi": 64,
                    "time": 13.44829199999999,
                    "velocity": 0.7007874015748031,
                    "duration": 0.08620699999999992
                },
                {
                    "name": "C4",
                    "midi": 60,
                    "time": 13.53449899999999,
                    "velocity": 0.6062992125984252,
                    "duration": 0.08620699999999992
                },
                {
                    "name": "F4",
                    "midi": 65,
                    "time": 14.137947999999989,
                    "velocity": 0.6850393700787402,
                    "duration": 0.08620699999999992
                },
                {
                    "name": "C4",
                    "midi": 60,
                    "time": 14.224154999999989,
                    "velocity": 0.5984251968503937,
                    "duration": 0.08620699999999992
                },
                {
                    "name": "F4",
                    "midi": 65,
                    "time": 14.310361999999989,
                    "velocity": 0.6299212598425197,
                    "duration": 0.08620699999999992
                },
                {
                    "name": "C5",
                    "midi": 72,
                    "time": 14.396568999999989,
                    "velocity": 0.6062992125984252,
                    "duration": 0.08620699999999992
                },
                {
                    "name": "F5",
                    "midi": 77,
                    "time": 14.482775999999989,
                    "velocity": 0.7007874015748031,
                    "duration": 0.08620699999999992
                },
                {
                    "name": "C5",
                    "midi": 72,
                    "time": 14.568982999999989,
                    "velocity": 0.6062992125984252,
                    "duration": 0.08620699999999992
                },
                {
                    "name": "F5",
                    "midi": 77,
                    "time": 14.655189999999989,
                    "velocity": 0.6456692913385826,
                    "duration": 0.08620699999999992
                },
                {
                    "name": "C6",
                    "midi": 84,
                    "time": 14.741396999999989,
                    "velocity": 0.6220472440944882,
                    "duration": 0.08620699999999992
                },
                {
                    "name": "F6",
                    "midi": 89,
                    "time": 14.827603999999988,
                    "velocity": 0.7244094488188977,
                    "duration": 0.08620699999999992
                },
                {
                    "name": "C6",
                    "midi": 84,
                    "time": 14.913810999999988,
                    "velocity": 0.6299212598425197,
                    "duration": 0.08620699999999992
                },
                {
                    "name": "F6",
                    "midi": 89,
                    "time": 15.000017999999988,
                    "velocity": 0.6535433070866141,
                    "duration": 0.08620699999999992
                },
                {
                    "name": "C7",
                    "midi": 96,
                    "time": 15.086224999999988,
                    "velocity": 0.6299212598425197,
                    "duration": 0.08620699999999992
                },
                {
                    "name": "E7",
                    "midi": 100,
                    "time": 15.172431999999988,
                    "velocity": 0.7322834645669292,
                    "duration": 0.08620699999999992
                },
                {
                    "name": "C7",
                    "midi": 96,
                    "time": 15.258638999999988,
                    "velocity": 0.6299212598425197,
                    "duration": 0.08620699999999992
                },
                {
                    "name": "F#6",
                    "midi": 90,
                    "time": 15.344845999999988,
                    "velocity": 0.6614173228346457,
                    "duration": 0.08620699999999992
                },
                {
                    "name": "C6",
                    "midi": 84,
                    "time": 15.431052999999988,
                    "velocity": 0.6220472440944882,
                    "duration": 0.08620699999999992
                },
                {
                    "name": "E6",
                    "midi": 88,
                    "time": 15.517259999999988,
                    "velocity": 0.7322834645669292,
                    "duration": 0.08620699999999992
                },
                {
                    "name": "C6",
                    "midi": 84,
                    "time": 15.603466999999988,
                    "velocity": 0.6299212598425197,
                    "duration": 0.08620699999999992
                },
                {
                    "name": "F#5",
                    "midi": 78,
                    "time": 15.689673999999988,
                    "velocity": 0.6535433070866141,
                    "duration": 0.08620699999999992
                },
                {
                    "name": "C5",
                    "midi": 72,
                    "time": 15.775880999999988,
                    "velocity": 0.6220472440944882,
                    "duration": 0.08620699999999992
                },
                {
                    "name": "E5",
                    "midi": 76,
                    "time": 15.862087999999988,
                    "velocity": 0.7086614173228346,
                    "duration": 0.08620699999999992
                },
                {
                    "name": "C5",
                    "midi": 72,
                    "time": 15.948294999999987,
                    "velocity": 0.6220472440944882,
                    "duration": 0.0862070000000017
                },
                {
                    "name": "F#4",
                    "midi": 66,
                    "time": 16.03450199999999,
                    "velocity": 0.6377952755905512,
                    "duration": 0.0862070000000017
                },
                {
                    "name": "C4",
                    "midi": 60,
                    "time": 16.12070899999999,
                    "velocity": 0.6141732283464567,
                    "duration": 0.0862070000000017
                },
                {
                    "name": "E4",
                    "midi": 64,
                    "time": 16.206915999999993,
                    "velocity": 0.7007874015748031,
                    "duration": 0.0862070000000017
                },
                {
                    "name": "C4",
                    "midi": 60,
                    "time": 16.293122999999994,
                    "velocity": 0.6062992125984252,
                    "duration": 0.0862070000000017
                },
                {
                    "name": "D4",
                    "midi": 62,
                    "time": 16.896571999999995,
                    "velocity": 0.6377952755905512,
                    "duration": 0.0862070000000017
                },
                {
                    "name": "C4",
                    "midi": 60,
                    "time": 16.982778999999997,
                    "velocity": 0.5748031496062992,
                    "duration": 0.0862070000000017
                },
                {
                    "name": "G4",
                    "midi": 67,
                    "time": 17.068986,
                    "velocity": 0.5984251968503937,
                    "duration": 0.0862070000000017
                },
                {
                    "name": "C5",
                    "midi": 72,
                    "time": 17.155193,
                    "velocity": 0.5826771653543307,
                    "duration": 0.0862070000000017
                },
                {
                    "name": "D5",
                    "midi": 74,
                    "time": 17.241400000000002,
                    "velocity": 0.6771653543307087,
                    "duration": 0.0862070000000017
                },
                {
                    "name": "C5",
                    "midi": 72,
                    "time": 17.327607000000004,
                    "velocity": 0.5826771653543307,
                    "duration": 0.0862070000000017
                },
                {
                    "name": "G5",
                    "midi": 79,
                    "time": 17.413814000000006,
                    "velocity": 0.6062992125984252,
                    "duration": 0.0862070000000017
                },
                {
                    "name": "C6",
                    "midi": 84,
                    "time": 17.500021000000007,
                    "velocity": 0.5905511811023622,
                    "duration": 0.0862070000000017
                },
                {
                    "name": "D6",
                    "midi": 86,
                    "time": 17.58622800000001,
                    "velocity": 0.6929133858267716,
                    "duration": 0.0862070000000017
                },
                {
                    "name": "C6",
                    "midi": 84,
                    "time": 17.67243500000001,
                    "velocity": 0.5984251968503937,
                    "duration": 0.0862070000000017
                },
                {
                    "name": "G6",
                    "midi": 91,
                    "time": 17.758642000000012,
                    "velocity": 0.6141732283464567,
                    "duration": 0.0862070000000017
                },
                {
                    "name": "C7",
                    "midi": 96,
                    "time": 17.844849000000014,
                    "velocity": 0.5984251968503937,
                    "duration": 0.0862070000000017
                },
                {
                    "name": "D7",
                    "midi": 98,
                    "time": 17.931056000000016,
                    "velocity": 0.7007874015748031,
                    "duration": 0.0862070000000017
                },
                {
                    "name": "B6",
                    "midi": 95,
                    "time": 18.017263000000018,
                    "velocity": 0.5984251968503937,
                    "duration": 0.0862070000000017
                },
                {
                    "name": "G6",
                    "midi": 91,
                    "time": 18.10347000000002,
                    "velocity": 0.6220472440944882,
                    "duration": 0.0862070000000017
                },
                {
                    "name": "B5",
                    "midi": 83,
                    "time": 18.18967700000002,
                    "velocity": 0.5905511811023622,
                    "duration": 0.0862070000000017
                },
                {
                    "name": "D6",
                    "midi": 86,
                    "time": 18.275884000000023,
                    "velocity": 0.6850393700787402,
                    "duration": 0.0862070000000017
                },
                {
                    "name": "B5",
                    "midi": 83,
                    "time": 18.362091000000024,
                    "velocity": 0.5905511811023622,
                    "duration": 0.0862070000000017
                },
                {
                    "name": "G5",
                    "midi": 79,
                    "time": 18.448298000000026,
                    "velocity": 0.6141732283464567,
                    "duration": 0.0862070000000017
                },
                {
                    "name": "B4",
                    "midi": 71,
                    "time": 18.534505000000028,
                    "velocity": 0.5826771653543307,
                    "duration": 0.0862070000000017
                },
                {
                    "name": "D5",
                    "midi": 74,
                    "time": 18.62071200000003,
                    "velocity": 0.6771653543307087,
                    "duration": 0.0862070000000017
                },
                {
                    "name": "B4",
                    "midi": 71,
                    "time": 18.70691900000003,
                    "velocity": 0.5905511811023622,
                    "duration": 0.0862070000000017
                },
                {
                    "name": "G4",
                    "midi": 67,
                    "time": 18.793126000000033,
                    "velocity": 0.5984251968503937,
                    "duration": 0.0862070000000017
                },
                {
                    "name": "B3",
                    "midi": 59,
                    "time": 18.879333000000035,
                    "velocity": 0.5826771653543307,
                    "duration": 0.0862070000000017
                },
                {
                    "name": "D4",
                    "midi": 62,
                    "time": 18.965540000000036,
                    "velocity": 0.6535433070866141,
                    "duration": 0.0862070000000017
                },
                {
                    "name": "B3",
                    "midi": 59,
                    "time": 19.051747000000038,
                    "velocity": 0.5748031496062992,
                    "duration": 0.0862070000000017
                },
                {
                    "name": "E4",
                    "midi": 64,
                    "time": 19.65519600000004,
                    "velocity": 0.6062992125984252,
                    "duration": 0.0862070000000017
                },
                {
                    "name": "D4",
                    "midi": 62,
                    "time": 19.74140300000004,
                    "velocity": 0.5511811023622047,
                    "duration": 0.0862070000000017
                },
                {
                    "name": "G4",
                    "midi": 67,
                    "time": 19.827610000000043,
                    "velocity": 0.5905511811023622,
                    "duration": 0.0862070000000017
                },
                {
                    "name": "D5",
                    "midi": 74,
                    "time": 19.913817000000044,
                    "velocity": 0.5669291338582677,
                    "duration": 0.0862070000000017
                },
                {
                    "name": "E5",
                    "midi": 76,
                    "time": 20.000024000000046,
                    "velocity": 0.6062992125984252,
                    "duration": 0.0862070000000017
                },
                {
                    "name": "D5",
                    "midi": 74,
                    "time": 20.086231000000048,
                    "velocity": 0.5669291338582677,
                    "duration": 0.0862070000000017
                },
                {
                    "name": "G5",
                    "midi": 79,
                    "time": 20.17243800000005,
                    "velocity": 0.5826771653543307,
                    "duration": 0.0862070000000017
                },
                {
                    "name": "D6",
                    "midi": 86,
                    "time": 20.25864500000005,
                    "velocity": 0.5669291338582677,
                    "duration": 0.0862070000000017
                },
                {
                    "name": "E6",
                    "midi": 88,
                    "time": 20.344852000000053,
                    "velocity": 0.6299212598425197,
                    "duration": 0.0862070000000017
                },
                {
                    "name": "D6",
                    "midi": 86,
                    "time": 20.431059000000054,
                    "velocity": 0.5669291338582677,
                    "duration": 0.0862070000000017
                },
                {
                    "name": "G6",
                    "midi": 91,
                    "time": 20.517266000000056,
                    "velocity": 0.5826771653543307,
                    "duration": 0.0862070000000017
                },
                {
                    "name": "D7",
                    "midi": 98,
                    "time": 20.603473000000058,
                    "velocity": 0.5669291338582677,
                    "duration": 0.0862070000000017
                },
                {
                    "name": "E7",
                    "midi": 100,
                    "time": 20.68968000000006,
                    "velocity": 0.6141732283464567,
                    "duration": 0.0862070000000017
                },
                {
                    "name": "C7",
                    "midi": 96,
                    "time": 20.77588700000006,
                    "velocity": 0.5433070866141733,
                    "duration": 0.0862070000000017
                },
                {
                    "name": "G6",
                    "midi": 91,
                    "time": 20.862094000000063,
                    "velocity": 0.5748031496062992,
                    "duration": 0.0862070000000017
                },
                {
                    "name": "C6",
                    "midi": 84,
                    "time": 20.948301000000065,
                    "velocity": 0.5433070866141733,
                    "duration": 0.0862070000000017
                },
                {
                    "name": "E6",
                    "midi": 88,
                    "time": 21.034508000000066,
                    "velocity": 0.6141732283464567,
                    "duration": 0.0862070000000017
                },
                {
                    "name": "C6",
                    "midi": 84,
                    "time": 21.120715000000068,
                    "velocity": 0.5354330708661418,
                    "duration": 0.0862070000000017
                },
                {
                    "name": "G5",
                    "midi": 79,
                    "time": 21.20692200000007,
                    "velocity": 0.5590551181102362,
                    "duration": 0.0862070000000017
                },
                {
                    "name": "C5",
                    "midi": 72,
                    "time": 21.29312900000007,
                    "velocity": 0.5118110236220472,
                    "duration": 0.0862070000000017
                },
                {
                    "name": "E5",
                    "midi": 76,
                    "time": 21.379336000000073,
                    "velocity": 0.5905511811023622,
                    "duration": 0.0862070000000017
                },
                {
                    "name": "C5",
                    "midi": 72,
                    "time": 21.465543000000075,
                    "velocity": 0.5196850393700787,
                    "duration": 0.0862070000000017
                },
                {
                    "name": "G4",
                    "midi": 67,
                    "time": 21.551750000000077,
                    "velocity": 0.5433070866141733,
                    "duration": 0.0862070000000017
                },
                {
                    "name": "C4",
                    "midi": 60,
                    "time": 21.63795700000008,
                    "velocity": 0.5039370078740157,
                    "duration": 0.0862070000000017
                },
                {
                    "name": "E4",
                    "midi": 64,
                    "time": 21.72416400000008,
                    "velocity": 0.5590551181102362,
                    "duration": 0.0862070000000017
                },
                {
                    "name": "C4",
                    "midi": 60,
                    "time": 21.81037100000008,
                    "velocity": 0.5039370078740157,
                    "duration": 0.0862070000000017
                },
                {
                    "name": "E4",
                    "midi": 64,
                    "time": 22.327613000000085,
                    "velocity": 0.41732283464566927,
                    "duration": 0.0862070000000017
                },
                {
                    "name": "F4",
                    "midi": 65,
                    "time": 22.413820000000086,
                    "velocity": 0.4645669291338583,
                    "duration": 0.0862070000000017
                },
                {
                    "name": "E4",
                    "midi": 64,
                    "time": 22.500027000000088,
                    "velocity": 0.4015748031496063,
                    "duration": 0.0862070000000017
                },
                {
                    "name": "C5",
                    "midi": 72,
                    "time": 22.58623400000009,
                    "velocity": 0.4251968503937008,
                    "duration": 0.0862070000000017
                },
                {
                    "name": "E5",
                    "midi": 76,
                    "time": 22.67244100000009,
                    "velocity": 0.4094488188976378,
                    "duration": 0.0862070000000017
                },
                {
                    "name": "F5",
                    "midi": 77,
                    "time": 22.758648000000093,
                    "velocity": 0.48031496062992124,
                    "duration": 0.0862070000000017
                },
                {
                    "name": "E5",
                    "midi": 76,
                    "time": 22.844855000000095,
                    "velocity": 0.4015748031496063,
                    "duration": 0.0862070000000017
                },
                {
                    "name": "C6",
                    "midi": 84,
                    "time": 22.931062000000097,
                    "velocity": 0.4409448818897638,
                    "duration": 0.0862070000000017
                },
                {
                    "name": "E6",
                    "midi": 88,
                    "time": 23.0172690000001,
                    "velocity": 0.4094488188976378,
                    "duration": 0.0862070000000017
                },
                {
                    "name": "F6",
                    "midi": 89,
                    "time": 23.1034760000001,
                    "velocity": 0.4881889763779528,
                    "duration": 0.0862070000000017
                },
                {
                    "name": "E6",
                    "midi": 88,
                    "time": 23.1896830000001,
                    "velocity": 0.4251968503937008,
                    "duration": 0.0862070000000017
                },
                {
                    "name": "C7",
                    "midi": 96,
                    "time": 23.275890000000103,
                    "velocity": 0.4409448818897638,
                    "duration": 0.0862070000000017
                },
                {
                    "name": "E7",
                    "midi": 100,
                    "time": 23.362097000000105,
                    "velocity": 0.4094488188976378,
                    "duration": 0.0862070000000017
                },
                {
                    "name": "F7",
                    "midi": 101,
                    "time": 23.448304000000107,
                    "velocity": 0.49606299212598426,
                    "duration": 0.0862070000000017
                },
                {
                    "name": "D7",
                    "midi": 98,
                    "time": 23.53451100000011,
                    "velocity": 0.41732283464566927,
                    "duration": 0.0862070000000017
                },
                {
                    "name": "B6",
                    "midi": 95,
                    "time": 23.62071800000011,
                    "velocity": 0.4409448818897638,
                    "duration": 0.0862070000000017
                },
                {
                    "name": "D6",
                    "midi": 86,
                    "time": 23.706925000000112,
                    "velocity": 0.41732283464566927,
                    "duration": 0.0862070000000017
                },
                {
                    "name": "F6",
                    "midi": 89,
                    "time": 23.793132000000114,
                    "velocity": 0.4881889763779528,
                    "duration": 0.0862070000000017
                },
                {
                    "name": "D6",
                    "midi": 86,
                    "time": 23.879339000000115,
                    "velocity": 0.41732283464566927,
                    "duration": 0.0862070000000017
                },
                {
                    "name": "B5",
                    "midi": 83,
                    "time": 23.965546000000117,
                    "velocity": 0.4409448818897638,
                    "duration": 0.0862070000000017
                },
                {
                    "name": "D5",
                    "midi": 74,
                    "time": 24.05175300000012,
                    "velocity": 0.4094488188976378,
                    "duration": 0.0862070000000017
                },
                {
                    "name": "F5",
                    "midi": 77,
                    "time": 24.13796000000012,
                    "velocity": 0.48031496062992124,
                    "duration": 0.0862070000000017
                },
                {
                    "name": "D5",
                    "midi": 74,
                    "time": 24.224167000000122,
                    "velocity": 0.4015748031496063,
                    "duration": 0.0862070000000017
                },
                {
                    "name": "B4",
                    "midi": 71,
                    "time": 24.310374000000124,
                    "velocity": 0.4330708661417323,
                    "duration": 0.0862070000000017
                },
                {
                    "name": "D4",
                    "midi": 62,
                    "time": 24.396581000000126,
                    "velocity": 0.4015748031496063,
                    "duration": 0.0862070000000017
                },
                {
                    "name": "F4",
                    "midi": 65,
                    "time": 24.482788000000127,
                    "velocity": 0.47244094488188976,
                    "duration": 0.0862070000000017
                },
                {
                    "name": "D4",
                    "midi": 62,
                    "time": 24.56899500000013,
                    "velocity": 0.3937007874015748,
                    "duration": 0.0862070000000017
                },
                {
                    "name": "B3",
                    "midi": 59,
                    "time": 24.65520200000013,
                    "velocity": 0.4251968503937008,
                    "duration": 0.0862070000000017
                },
                {
                    "name": "E4",
                    "midi": 64,
                    "time": 25.172444000000134,
                    "velocity": 0.5039370078740157,
                    "duration": 0.0862070000000017
                },
                {
                    "name": "D4",
                    "midi": 62,
                    "time": 25.258651000000135,
                    "velocity": 0.4015748031496063,
                    "duration": 0.0862070000000017
                },
                {
                    "name": "B4",
                    "midi": 71,
                    "time": 25.344858000000137,
                    "velocity": 0.4330708661417323,
                    "duration": 0.0862070000000017
                },
                {
                    "name": "D5",
                    "midi": 74,
                    "time": 25.43106500000014,
                    "velocity": 0.41732283464566927,
                    "duration": 0.0862070000000017
                },
                {
                    "name": "E5",
                    "midi": 76,
                    "time": 25.51727200000014,
                    "velocity": 0.5196850393700787,
                    "duration": 0.0862070000000017
                },
                {
                    "name": "D5",
                    "midi": 74,
                    "time": 25.603479000000142,
                    "velocity": 0.4094488188976378,
                    "duration": 0.0862070000000017
                },
                {
                    "name": "B5",
                    "midi": 83,
                    "time": 25.689686000000144,
                    "velocity": 0.4566929133858268,
                    "duration": 0.0862070000000017
                },
                {
                    "name": "D6",
                    "midi": 86,
                    "time": 25.775893000000146,
                    "velocity": 0.41732283464566927,
                    "duration": 0.0862070000000017
                },
                {
                    "name": "E6",
                    "midi": 88,
                    "time": 25.862100000000147,
                    "velocity": 0.5196850393700787,
                    "duration": 0.0862070000000017
                },
                {
                    "name": "D6",
                    "midi": 86,
                    "time": 25.94830700000015,
                    "velocity": 0.4251968503937008,
                    "duration": 0.0862070000000017
                },
                {
                    "name": "B6",
                    "midi": 95,
                    "time": 26.03451400000015,
                    "velocity": 0.4645669291338583,
                    "duration": 0.0862070000000017
                },
                {
                    "name": "D7",
                    "midi": 98,
                    "time": 26.120721000000152,
                    "velocity": 0.4330708661417323,
                    "duration": 0.0862070000000017
                },
                {
                    "name": "E7",
                    "midi": 100,
                    "time": 26.206928000000154,
                    "velocity": 0.5354330708661418,
                    "duration": 0.0862070000000017
                },
                {
                    "name": "C7",
                    "midi": 96,
                    "time": 26.293135000000156,
                    "velocity": 0.44881889763779526,
                    "duration": 0.0862070000000017
                },
                {
                    "name": "A6",
                    "midi": 93,
                    "time": 26.379342000000157,
                    "velocity": 0.4645669291338583,
                    "duration": 0.0862070000000017
                },
                {
                    "name": "C6",
                    "midi": 84,
                    "time": 26.46554900000016,
                    "velocity": 0.44881889763779526,
                    "duration": 0.0862070000000017
                },
                {
                    "name": "E6",
                    "midi": 88,
                    "time": 26.55175600000016,
                    "velocity": 0.5590551181102362,
                    "duration": 0.0862070000000017
                },
                {
                    "name": "C6",
                    "midi": 84,
                    "time": 26.637963000000163,
                    "velocity": 0.4566929133858268,
                    "duration": 0.0862070000000017
                },
                {
                    "name": "A5",
                    "midi": 81,
                    "time": 26.724170000000164,
                    "velocity": 0.49606299212598426,
                    "duration": 0.0862070000000017
                },
                {
                    "name": "C5",
                    "midi": 72,
                    "time": 26.810377000000166,
                    "velocity": 0.48031496062992124,
                    "duration": 0.0862070000000017
                },
                {
                    "name": "E5",
                    "midi": 76,
                    "time": 26.896584000000168,
                    "velocity": 0.5826771653543307,
                    "duration": 0.0862070000000017
                },
                {
                    "name": "C5",
                    "midi": 72,
                    "time": 26.98279100000017,
                    "velocity": 0.48031496062992124,
                    "duration": 0.0862070000000017
                },
                {
                    "name": "A4",
                    "midi": 69,
                    "time": 27.06899800000017,
                    "velocity": 0.5196850393700787,
                    "duration": 0.0862070000000017
                },
                {
                    "name": "C4",
                    "midi": 60,
                    "time": 27.155205000000173,
                    "velocity": 0.48031496062992124,
                    "duration": 0.0862070000000017
                },
                {
                    "name": "E4",
                    "midi": 64,
                    "time": 27.241412000000174,
                    "velocity": 0.6062992125984252,
                    "duration": 0.0862070000000017
                },
                {
                    "name": "C4",
                    "midi": 60,
                    "time": 27.327619000000176,
                    "velocity": 0.49606299212598426,
                    "duration": 0.0862070000000017
                },
                {
                    "name": "E4",
                    "midi": 64,
                    "time": 27.931068000000177,
                    "velocity": 0.6456692913385826,
                    "duration": 0.0862070000000017
                },
                {
                    "name": "C4",
                    "midi": 60,
                    "time": 28.01727500000018,
                    "velocity": 0.5275590551181102,
                    "duration": 0.0862070000000017
                },
                {
                    "name": "A4",
                    "midi": 69,
                    "time": 28.10348200000018,
                    "velocity": 0.5669291338582677,
                    "duration": 0.0862070000000017
                },
                {
                    "name": "C5",
                    "midi": 72,
                    "time": 28.189689000000183,
                    "velocity": 0.5354330708661418,
                    "duration": 0.0862070000000017
                },
                {
                    "name": "E5",
                    "midi": 76,
                    "time": 28.275896000000184,
                    "velocity": 0.6456692913385826,
                    "duration": 0.0862070000000017
                },
                {
                    "name": "C5",
                    "midi": 72,
                    "time": 28.362103000000186,
                    "velocity": 0.5433070866141733,
                    "duration": 0.0862070000000017
                },
                {
                    "name": "A5",
                    "midi": 81,
                    "time": 28.448310000000188,
                    "velocity": 0.5748031496062992,
                    "duration": 0.0862070000000017
                },
                {
                    "name": "C6",
                    "midi": 84,
                    "time": 28.53451700000019,
                    "velocity": 0.5511811023622047,
                    "duration": 0.0862070000000017
                },
                {
                    "name": "E6",
                    "midi": 88,
                    "time": 28.62072400000019,
                    "velocity": 0.6535433070866141,
                    "duration": 0.0862070000000017
                },
                {
                    "name": "C6",
                    "midi": 84,
                    "time": 28.706931000000193,
                    "velocity": 0.5590551181102362,
                    "duration": 0.0862070000000017
                },
                {
                    "name": "A6",
                    "midi": 93,
                    "time": 28.793138000000194,
                    "velocity": 0.5826771653543307,
                    "duration": 0.0862070000000017
                },
                {
                    "name": "C7",
                    "midi": 96,
                    "time": 28.879345000000196,
                    "velocity": 0.5590551181102362,
                    "duration": 0.0862070000000017
                },
                {
                    "name": "D#7",
                    "midi": 99,
                    "time": 28.965552000000198,
                    "velocity": 0.6771653543307087,
                    "duration": 0.0862070000000017
                },
                {
                    "name": "B6",
                    "midi": 95,
                    "time": 29.0517590000002,
                    "velocity": 0.5590551181102362,
                    "duration": 0.0862070000000017
                },
                {
                    "name": "A6",
                    "midi": 93,
                    "time": 29.1379660000002,
                    "velocity": 0.5905511811023622,
                    "duration": 0.0862070000000017
                },
                {
                    "name": "B5",
                    "midi": 83,
                    "time": 29.224173000000203,
                    "velocity": 0.5354330708661418,
                    "duration": 0.0862070000000017
                },
                {
                    "name": "D#6",
                    "midi": 87,
                    "time": 29.310380000000205,
                    "velocity": 0.6141732283464567,
                    "duration": 0.0862070000000017
                },
                {
                    "name": "B5",
                    "midi": 83,
                    "time": 29.396587000000206,
                    "velocity": 0.49606299212598426,
                    "duration": 0.0862070000000017
                },
                {
                    "name": "A5",
                    "midi": 81,
                    "time": 29.482794000000208,
                    "velocity": 0.5275590551181102,
                    "duration": 0.0862070000000017
                },
                {
                    "name": "B4",
                    "midi": 71,
                    "time": 29.56900100000021,
                    "velocity": 0.4881889763779528,
                    "duration": 0.0862070000000017
                },
                {
                    "name": "D#5",
                    "midi": 75,
                    "time": 29.65520800000021,
                    "velocity": 0.5669291338582677,
                    "duration": 0.0862070000000017
                },
                {
                    "name": "B4",
                    "midi": 71,
                    "time": 29.741415000000213,
                    "velocity": 0.4645669291338583,
                    "duration": 0.0862070000000017
                },
                {
                    "name": "A4",
                    "midi": 69,
                    "time": 29.827622000000215,
                    "velocity": 0.49606299212598426,
                    "duration": 0.0862070000000017
                },
                {
                    "name": "B3",
                    "midi": 59,
                    "time": 29.913829000000216,
                    "velocity": 0.4330708661417323,
                    "duration": 0.0862070000000017
                },
                {
                    "name": "D#4",
                    "midi": 63,
                    "time": 30.000036000000218,
                    "velocity": 0.48031496062992124,
                    "duration": 0.0862070000000017
                },
                {
                    "name": "E4",
                    "midi": 64,
                    "time": 30.68969200000022,
                    "velocity": 0.48031496062992124,
                    "duration": 0.0862070000000017
                },
                {
                    "name": "B3",
                    "midi": 59,
                    "time": 30.775899000000223,
                    "velocity": 0.3937007874015748,
                    "duration": 0.0862070000000017
                },
                {
                    "name": "A4",
                    "midi": 69,
                    "time": 30.862106000000225,
                    "velocity": 0.4251968503937008,
                    "duration": 0.0862070000000017
                },
                {
                    "name": "B4",
                    "midi": 71,
                    "time": 30.948313000000226,
                    "velocity": 0.3858267716535433,
                    "duration": 0.0862070000000017
                },
                {
                    "name": "E5",
                    "midi": 76,
                    "time": 31.034520000000228,
                    "velocity": 0.4881889763779528,
                    "duration": 0.0862070000000017
                },
                {
                    "name": "B4",
                    "midi": 71,
                    "time": 31.12072700000023,
                    "velocity": 0.3937007874015748,
                    "duration": 0.0862070000000017
                },
                {
                    "name": "A5",
                    "midi": 81,
                    "time": 31.20693400000023,
                    "velocity": 0.4251968503937008,
                    "duration": 0.0862070000000017
                },
                {
                    "name": "B5",
                    "midi": 83,
                    "time": 31.293141000000233,
                    "velocity": 0.3937007874015748,
                    "duration": 0.0862070000000017
                },
                {
                    "name": "E6",
                    "midi": 88,
                    "time": 31.379348000000235,
                    "velocity": 0.4881889763779528,
                    "duration": 0.0862070000000017
                },
                {
                    "name": "B5",
                    "midi": 83,
                    "time": 31.465555000000236,
                    "velocity": 0.3937007874015748,
                    "duration": 0.0862070000000017
                },
                {
                    "name": "A6",
                    "midi": 93,
                    "time": 31.551762000000238,
                    "velocity": 0.4251968503937008,
                    "duration": 0.0862070000000017
                },
                {
                    "name": "B6",
                    "midi": 95,
                    "time": 31.63796900000024,
                    "velocity": 0.3937007874015748,
                    "duration": 0.0862070000000017
                },
                {
                    "name": "E7",
                    "midi": 100,
                    "time": 31.72417600000024,
                    "velocity": 0.4881889763779528,
                    "duration": 0.0862070000000017
                },
                {
                    "name": "B6",
                    "midi": 95,
                    "time": 31.810383000000243,
                    "velocity": 0.3858267716535433,
                    "duration": 0.0862070000000017
                },
                {
                    "name": "G#6",
                    "midi": 92,
                    "time": 31.896590000000245,
                    "velocity": 0.4251968503937008,
                    "duration": 0.0862070000000017
                },
                {
                    "name": "B5",
                    "midi": 83,
                    "time": 31.982797000000247,
                    "velocity": 0.3858267716535433,
                    "duration": 0.0862070000000017
                },
                {
                    "name": "E6",
                    "midi": 88,
                    "time": 32.06900400000025,
                    "velocity": 0.48031496062992124,
                    "duration": 0.0862070000000017
                },
                {
                    "name": "B5",
                    "midi": 83,
                    "time": 32.15521100000025,
                    "velocity": 0.3937007874015748,
                    "duration": 0.0862070000000017
                },
                {
                    "name": "G#5",
                    "midi": 80,
                    "time": 32.24141800000025,
                    "velocity": 0.4251968503937008,
                    "duration": 0.0862070000000017
                },
                {
                    "name": "B4",
                    "midi": 71,
                    "time": 32.32762500000025,
                    "velocity": 0.3937007874015748,
                    "duration": 0.0862070000000017
                },
                {
                    "name": "E5",
                    "midi": 76,
                    "time": 32.413832000000255,
                    "velocity": 0.48031496062992124,
                    "duration": 0.0862070000000017
                },
                {
                    "name": "B4",
                    "midi": 71,
                    "time": 32.50003900000026,
                    "velocity": 0.3937007874015748,
                    "duration": 0.0862070000000017
                },
                {
                    "name": "G#4",
                    "midi": 68,
                    "time": 32.58624600000026,
                    "velocity": 0.4251968503937008,
                    "duration": 0.0862070000000017
                },
                {
                    "name": "B3",
                    "midi": 59,
                    "time": 32.67245300000026,
                    "velocity": 0.3937007874015748,
                    "duration": 0.0862070000000017
                },
                {
                    "name": "E4",
                    "midi": 64,
                    "time": 32.75866000000026,
                    "velocity": 0.41732283464566927,
                    "duration": 0.0862070000000017
                },
                {
                    "name": "B3",
                    "midi": 59,
                    "time": 32.844867000000264,
                    "velocity": 0.3937007874015748,
                    "duration": 0.0862070000000017
                },
                {
                    "name": "G4",
                    "midi": 67,
                    "time": 33.44831600000027,
                    "velocity": 0.48031496062992124,
                    "duration": 0.0862070000000017
                },
                {
                    "name": "E4",
                    "midi": 64,
                    "time": 33.53452300000027,
                    "velocity": 0.3937007874015748,
                    "duration": 0.0862070000000017
                },
                {
                    "name": "A4",
                    "midi": 69,
                    "time": 33.62073000000027,
                    "velocity": 0.4251968503937008,
                    "duration": 0.0862070000000017
                },
                {
                    "name": "C#5",
                    "midi": 73,
                    "time": 33.70693700000027,
                    "velocity": 0.4015748031496063,
                    "duration": 0.0862070000000017
                },
                {
                    "name": "G5",
                    "midi": 79,
                    "time": 33.793144000000275,
                    "velocity": 0.4881889763779528,
                    "duration": 0.0862070000000017
                },
                {
                    "name": "E5",
                    "midi": 76,
                    "time": 33.87935100000028,
                    "velocity": 0.3937007874015748,
                    "duration": 0.0862070000000017
                },
                {
                    "name": "A5",
                    "midi": 81,
                    "time": 33.96555800000028,
                    "velocity": 0.4330708661417323,
                    "duration": 0.0862070000000017
                },
                {
                    "name": "C#6",
                    "midi": 85,
                    "time": 34.05176500000028,
                    "velocity": 0.3937007874015748,
                    "duration": 0.0862070000000017
                },
                {
                    "name": "G6",
                    "midi": 91,
                    "time": 34.13797200000028,
                    "velocity": 0.49606299212598426,
                    "duration": 0.0862070000000017
                },
                {
                    "name": "C#6",
                    "midi": 85,
                    "time": 34.224179000000284,
                    "velocity": 0.4094488188976378,
                    "duration": 0.0862070000000017
                },
                {
                    "name": "A5",
                    "midi": 81,
                    "time": 34.310386000000285,
                    "velocity": 0.44881889763779526,
                    "duration": 0.0862070000000017
                },
                {
                    "name": "E5",
                    "midi": 76,
                    "time": 34.39659300000029,
                    "velocity": 0.4094488188976378,
                    "duration": 0.0862070000000017
                },
                {
                    "name": "G6",
                    "midi": 91,
                    "time": 34.48280000000029,
                    "velocity": 0.5118110236220472,
                    "duration": 0.0862070000000017
                },
                {
                    "name": "C6",
                    "midi": 84,
                    "time": 34.56900700000029,
                    "velocity": 0.4094488188976378,
                    "duration": 0.0862070000000017
                },
                {
                    "name": "A5",
                    "midi": 81,
                    "time": 34.65521400000029,
                    "velocity": 0.44881889763779526,
                    "duration": 0.0862070000000017
                },
                {
                    "name": "E5",
                    "midi": 76,
                    "time": 34.741421000000294,
                    "velocity": 0.4094488188976378,
                    "duration": 0.0862070000000017
                },
                {
                    "name": "G5",
                    "midi": 79,
                    "time": 34.827628000000296,
                    "velocity": 0.5118110236220472,
                    "duration": 0.0862070000000017
                },
                {
                    "name": "C5",
                    "midi": 72,
                    "time": 34.9138350000003,
                    "velocity": 0.41732283464566927,
                    "duration": 0.0862070000000017
                },
                {
                    "name": "A4",
                    "midi": 69,
                    "time": 35.0000420000003,
                    "velocity": 0.44881889763779526,
                    "duration": 0.0862070000000017
                },
                {
                    "name": "E4",
                    "midi": 64,
                    "time": 35.0862490000003,
                    "velocity": 0.41732283464566927,
                    "duration": 0.0862070000000017
                },
                {
                    "name": "G4",
                    "midi": 67,
                    "time": 35.1724560000003,
                    "velocity": 0.5118110236220472,
                    "duration": 0.0862070000000017
                },
                {
                    "name": "C4",
                    "midi": 60,
                    "time": 35.258663000000304,
                    "velocity": 0.41732283464566927,
                    "duration": 0.0862070000000017
                },
                {
                    "name": "F#4",
                    "midi": 66,
                    "time": 35.51728400000031,
                    "velocity": 0.5039370078740157,
                    "duration": 0.0862070000000017
                },
                {
                    "name": "C4",
                    "midi": 60,
                    "time": 35.60349100000031,
                    "velocity": 0.4409448818897638,
                    "duration": 0.0862070000000017
                },
                {
                    "name": "F4",
                    "midi": 65,
                    "time": 36.206940000000316,
                    "velocity": 0.5669291338582677,
                    "duration": 0.0862070000000017
                },
                {
                    "name": "D4",
                    "midi": 62,
                    "time": 36.29314700000032,
                    "velocity": 0.4645669291338583,
                    "duration": 0.0862070000000017
                },
                {
                    "name": "G4",
                    "midi": 67,
                    "time": 36.37935400000032,
                    "velocity": 0.5039370078740157,
                    "duration": 0.0862070000000017
                },
                {
                    "name": "C5",
                    "midi": 72,
                    "time": 36.46556100000032,
                    "velocity": 0.4881889763779528,
                    "duration": 0.0862070000000017
                },
                {
                    "name": "F5",
                    "midi": 77,
                    "time": 36.55176800000032,
                    "velocity": 0.5748031496062992,
                    "duration": 0.0862070000000017
                },
                {
                    "name": "D5",
                    "midi": 74,
                    "time": 36.637975000000324,
                    "velocity": 0.49606299212598426,
                    "duration": 0.0862070000000017
                },
                {
                    "name": "G5",
                    "midi": 79,
                    "time": 36.724182000000326,
                    "velocity": 0.5275590551181102,
                    "duration": 0.0862070000000017
                },
                {
                    "name": "C6",
                    "midi": 84,
                    "time": 36.81038900000033,
                    "velocity": 0.4881889763779528,
                    "duration": 0.0862070000000017
                },
                {
                    "name": "F6",
                    "midi": 89,
                    "time": 36.89659600000033,
                    "velocity": 0.5669291338582677,
                    "duration": 0.0862070000000017
                },
                {
                    "name": "D6",
                    "midi": 86,
                    "time": 36.98280300000033,
                    "velocity": 0.5039370078740157,
                    "duration": 0.0862070000000017
                },
                {
                    "name": "G6",
                    "midi": 91,
                    "time": 37.06901000000033,
                    "velocity": 0.5275590551181102,
                    "duration": 0.0862070000000017
                },
                {
                    "name": "C7",
                    "midi": 96,
                    "time": 37.155217000000334,
                    "velocity": 0.5039370078740157,
                    "duration": 0.0862070000000017
                },
                {
                    "name": "F7",
                    "midi": 101,
                    "time": 37.241424000000336,
                    "velocity": 0.5826771653543307,
                    "duration": 0.0862070000000017
                },
                {
                    "name": "B6",
                    "midi": 95,
                    "time": 37.32763100000034,
                    "velocity": 0.5039370078740157,
                    "duration": 0.0862070000000017
                },
                {
                    "name": "G6",
                    "midi": 91,
                    "time": 37.41383800000034,
                    "velocity": 0.5354330708661418,
                    "duration": 0.0862070000000017
                },
                {
                    "name": "D6",
                    "midi": 86,
                    "time": 37.50004500000034,
                    "velocity": 0.5039370078740157,
                    "duration": 0.0862070000000017
                },
                {
                    "name": "F6",
                    "midi": 89,
                    "time": 37.58625200000034,
                    "velocity": 0.5826771653543307,
                    "duration": 0.0862070000000017
                },
                {
                    "name": "B5",
                    "midi": 83,
                    "time": 37.672459000000345,
                    "velocity": 0.5118110236220472,
                    "duration": 0.0862070000000017
                },
                {
                    "name": "G5",
                    "midi": 79,
                    "time": 37.758666000000346,
                    "velocity": 0.5354330708661418,
                    "duration": 0.0862070000000017
                },
                {
                    "name": "D5",
                    "midi": 74,
                    "time": 37.84487300000035,
                    "velocity": 0.5039370078740157,
                    "duration": 0.0862070000000017
                },
                {
                    "name": "F5",
                    "midi": 77,
                    "time": 37.93108000000035,
                    "velocity": 0.5669291338582677,
                    "duration": 0.0862070000000017
                },
                {
                    "name": "B4",
                    "midi": 71,
                    "time": 38.01728700000035,
                    "velocity": 0.5039370078740157,
                    "duration": 0.0862070000000017
                },
                {
                    "name": "G4",
                    "midi": 67,
                    "time": 38.10349400000035,
                    "velocity": 0.5354330708661418,
                    "duration": 0.0862070000000017
                },
                {
                    "name": "D4",
                    "midi": 62,
                    "time": 38.189701000000355,
                    "velocity": 0.5354330708661418,
                    "duration": 0.0862070000000017
                },
                {
                    "name": "F4",
                    "midi": 65,
                    "time": 38.275908000000356,
                    "velocity": 0.5669291338582677,
                    "duration": 0.0862070000000017
                },
                {
                    "name": "E4",
                    "midi": 64,
                    "time": 38.965564000000356,
                    "velocity": 0.6299212598425197,
                    "duration": 0.0862070000000017
                },
                {
                    "name": "C4",
                    "midi": 60,
                    "time": 39.05177100000036,
                    "velocity": 0.5669291338582677,
                    "duration": 0.0862070000000017
                },
                {
                    "name": "G4",
                    "midi": 67,
                    "time": 39.13797800000036,
                    "velocity": 0.5984251968503937,
                    "duration": 0.0862070000000017
                },
                {
                    "name": "A#4",
                    "midi": 70,
                    "time": 39.22418500000036,
                    "velocity": 0.5748031496062992,
                    "duration": 0.0862070000000017
                },
                {
                    "name": "E5",
                    "midi": 76,
                    "time": 39.31039200000036,
                    "velocity": 0.6692913385826772,
                    "duration": 0.0862070000000017
                },
                {
                    "name": "C5",
                    "midi": 72,
                    "time": 39.396599000000364,
                    "velocity": 0.5748031496062992,
                    "duration": 0.0862070000000017
                },
                {
                    "name": "G5",
                    "midi": 79,
                    "time": 39.482806000000366,
                    "velocity": 0.6062992125984252,
                    "duration": 0.0862070000000017
                },
                {
                    "name": "A#5",
                    "midi": 82,
                    "time": 39.56901300000037,
                    "velocity": 0.5748031496062992,
                    "duration": 0.0862070000000017
                },
                {
                    "name": "E6",
                    "midi": 88,
                    "time": 39.65522000000037,
                    "velocity": 0.6771653543307087,
                    "duration": 0.0862070000000017
                },
                {
                    "name": "C6",
                    "midi": 84,
                    "time": 39.74142700000037,
                    "velocity": 0.5905511811023622,
                    "duration": 0.0862070000000017
                },
                {
                    "name": "G6",
                    "midi": 91,
                    "time": 39.82763400000037,
                    "velocity": 0.6141732283464567,
                    "duration": 0.0862070000000017
                },
                {
                    "name": "C7",
                    "midi": 96,
                    "time": 39.913841000000374,
                    "velocity": 0.5905511811023622,
                    "duration": 0.0862070000000017
                },
                {
                    "name": "D#7",
                    "midi": 99,
                    "time": 40.000048000000376,
                    "velocity": 0.7007874015748031,
                    "duration": 0.0862070000000017
                },
                {
                    "name": "A#6",
                    "midi": 94,
                    "time": 40.08625500000038,
                    "velocity": 0.5905511811023622,
                    "duration": 0.0862070000000017
                },
                {
                    "name": "D#6",
                    "midi": 87,
                    "time": 40.17246200000038,
                    "velocity": 0.6220472440944882,
                    "duration": 0.0862070000000017
                },
                {
                    "name": "C6",
                    "midi": 84,
                    "time": 40.25866900000038,
                    "velocity": 0.5826771653543307,
                    "duration": 0.0862070000000017
                },
                {
                    "name": "D#6",
                    "midi": 87,
                    "time": 40.34487600000038,
                    "velocity": 0.6850393700787402,
                    "duration": 0.0862070000000017
                },
                {
                    "name": "A#5",
                    "midi": 82,
                    "time": 40.431083000000385,
                    "velocity": 0.5826771653543307,
                    "duration": 0.0862070000000017
                },
                {
                    "name": "D#5",
                    "midi": 75,
                    "time": 40.517290000000386,
                    "velocity": 0.6141732283464567,
                    "duration": 0.0862070000000017
                },
                {
                    "name": "C5",
                    "midi": 72,
                    "time": 40.60349700000039,
                    "velocity": 0.5748031496062992,
                    "duration": 0.0862070000000017
                },
                {
                    "name": "D#5",
                    "midi": 75,
                    "time": 40.68970400000039,
                    "velocity": 0.6692913385826772,
                    "duration": 0.0862070000000017
                },
                {
                    "name": "A#4",
                    "midi": 70,
                    "time": 40.77591100000039,
                    "velocity": 0.5826771653543307,
                    "duration": 0.0862070000000017
                },
                {
                    "name": "D#4",
                    "midi": 63,
                    "time": 40.86211800000039,
                    "velocity": 0.5984251968503937,
                    "duration": 0.0862070000000017
                },
                {
                    "name": "C4",
                    "midi": 60,
                    "time": 40.948325000000395,
                    "velocity": 0.5748031496062992,
                    "duration": 0.0862070000000017
                },
                {
                    "name": "D#4",
                    "midi": 63,
                    "time": 41.0345320000004,
                    "velocity": 0.6535433070866141,
                    "duration": 0.0862070000000017
                },
                {
                    "name": "A#3",
                    "midi": 58,
                    "time": 41.1207390000004,
                    "velocity": 0.5669291338582677,
                    "duration": 0.0862070000000017
                },
                {
                    "name": "D#4",
                    "midi": 63,
                    "time": 41.7241880000004,
                    "velocity": 0.6220472440944882,
                    "duration": 0.0862070000000017
                },
                {
                    "name": "C4",
                    "midi": 60,
                    "time": 41.810395000000405,
                    "velocity": 0.5590551181102362,
                    "duration": 0.0862070000000017
                },
                {
                    "name": "D#4",
                    "midi": 63,
                    "time": 41.89660200000041,
                    "velocity": 0.5984251968503937,
                    "duration": 0.0862070000000017
                },
                {
                    "name": "A4",
                    "midi": 69,
                    "time": 41.98280900000041,
                    "velocity": 0.5748031496062992,
                    "duration": 0.0862070000000017
                },
                {
                    "name": "D#5",
                    "midi": 75,
                    "time": 42.06901600000041,
                    "velocity": 0.6456692913385826,
                    "duration": 0.0862070000000017
                },
                {
                    "name": "C5",
                    "midi": 72,
                    "time": 42.15522300000041,
                    "velocity": 0.5905511811023622,
                    "duration": 0.0862070000000017
                },
                {
                    "name": "D#5",
                    "midi": 75,
                    "time": 42.24143000000041,
                    "velocity": 0.6062992125984252,
                    "duration": 0.0862070000000017
                },
                {
                    "name": "A5",
                    "midi": 81,
                    "time": 42.327637000000415,
                    "velocity": 0.5826771653543307,
                    "duration": 0.0862070000000017
                },
                {
                    "name": "D#6",
                    "midi": 87,
                    "time": 42.41384400000042,
                    "velocity": 0.6692913385826772,
                    "duration": 0.0862070000000017
                },
                {
                    "name": "C6",
                    "midi": 84,
                    "time": 42.50005100000042,
                    "velocity": 0.5905511811023622,
                    "duration": 0.0862070000000017
                },
                {
                    "name": "D#6",
                    "midi": 87,
                    "time": 42.58625800000042,
                    "velocity": 0.6141732283464567,
                    "duration": 0.0862070000000017
                },
                {
                    "name": "A6",
                    "midi": 93,
                    "time": 42.67246500000042,
                    "velocity": 0.5905511811023622,
                    "duration": 0.0862070000000017
                },
                {
                    "name": "D#7",
                    "midi": 99,
                    "time": 42.75867200000042,
                    "velocity": 0.6771653543307087,
                    "duration": 0.0862070000000017
                },
                {
                    "name": "G#6",
                    "midi": 92,
                    "time": 42.844879000000425,
                    "velocity": 0.5748031496062992,
                    "duration": 0.0862070000000017
                },
                {
                    "name": "D#6",
                    "midi": 87,
                    "time": 42.93108600000043,
                    "velocity": 0.6062992125984252,
                    "duration": 0.0862070000000017
                },
                {
                    "name": "B5",
                    "midi": 83,
                    "time": 43.01729300000043,
                    "velocity": 0.5748031496062992,
                    "duration": 0.0862070000000017
                },
                {
                    "name": "D#6",
                    "midi": 87,
                    "time": 43.10350000000043,
                    "velocity": 0.6692913385826772,
                    "duration": 0.0862070000000017
                },
                {
                    "name": "G#5",
                    "midi": 80,
                    "time": 43.18970700000043,
                    "velocity": 0.5590551181102362,
                    "duration": 0.0862070000000017
                },
                {
                    "name": "D#5",
                    "midi": 75,
                    "time": 43.275914000000434,
                    "velocity": 0.5984251968503937,
                    "duration": 0.0862070000000017
                },
                {
                    "name": "B4",
                    "midi": 71,
                    "time": 43.362121000000435,
                    "velocity": 0.5590551181102362,
                    "duration": 0.0862070000000017
                },
                {
                    "name": "D#5",
                    "midi": 75,
                    "time": 43.44832800000044,
                    "velocity": 0.6299212598425197,
                    "duration": 0.0862070000000017
                },
                {
                    "name": "G#4",
                    "midi": 68,
                    "time": 43.53453500000044,
                    "velocity": 0.5511811023622047,
                    "duration": 0.0862070000000017
                },
                {
                    "name": "D#4",
                    "midi": 63,
                    "time": 43.62074200000044,
                    "velocity": 0.5669291338582677,
                    "duration": 0.0862070000000017
                },
                {
                    "name": "B3",
                    "midi": 59,
                    "time": 43.70694900000044,
                    "velocity": 0.5275590551181102,
                    "duration": 0.0862070000000017
                },
                {
                    "name": "D#4",
                    "midi": 63,
                    "time": 43.793156000000444,
                    "velocity": 0.5590551181102362,
                    "duration": 0.0862070000000017
                },
                {
                    "name": "D4",
                    "midi": 62,
                    "time": 44.48281200000044,
                    "velocity": 0.5984251968503937,
                    "duration": 0.0862070000000017
                },
                {
                    "name": "A#3",
                    "midi": 58,
                    "time": 44.569019000000445,
                    "velocity": 0.5039370078740157,
                    "duration": 0.0862070000000017
                },
                {
                    "name": "F4",
                    "midi": 65,
                    "time": 44.65522600000045,
                    "velocity": 0.5433070866141733,
                    "duration": 0.0862070000000017
                },
                {
                    "name": "G#4",
                    "midi": 68,
                    "time": 44.74143300000045,
                    "velocity": 0.5118110236220472,
                    "duration": 0.0862070000000017
                },
                {
                    "name": "D5",
                    "midi": 74,
                    "time": 44.82764000000045,
                    "velocity": 0.5984251968503937,
                    "duration": 0.0862070000000017
                },
                {
                    "name": "A#4",
                    "midi": 70,
                    "time": 44.91384700000045,
                    "velocity": 0.5196850393700787,
                    "duration": 0.0862070000000017
                },
                {
                    "name": "F5",
                    "midi": 77,
                    "time": 45.00005400000045,
                    "velocity": 0.5590551181102362,
                    "duration": 0.0862070000000017
                },
                {
                    "name": "G#5",
                    "midi": 80,
                    "time": 45.086261000000455,
                    "velocity": 0.5275590551181102,
                    "duration": 0.0862070000000017
                },
                {
                    "name": "D6",
                    "midi": 86,
                    "time": 45.17246800000046,
                    "velocity": 0.5984251968503937,
                    "duration": 0.0862070000000017
                },
                {
                    "name": "A#5",
                    "midi": 82,
                    "time": 45.25867500000046,
                    "velocity": 0.5118110236220472,
                    "duration": 0.0862070000000017
                },
                {
                    "name": "F6",
                    "midi": 89,
                    "time": 45.34488200000046,
                    "velocity": 0.5590551181102362,
                    "duration": 0.0862070000000017
                },
                {
                    "name": "G#6",
                    "midi": 92,
                    "time": 45.43108900000046,
                    "velocity": 0.5275590551181102,
                    "duration": 0.0862070000000017
                },
                {
                    "name": "D7",
                    "midi": 98,
                    "time": 45.517296000000464,
                    "velocity": 0.6535433070866141,
                    "duration": 0.0862070000000017
                },
                {
                    "name": "G#6",
                    "midi": 92,
                    "time": 45.603503000000465,
                    "velocity": 0.5511811023622047,
                    "duration": 0.0862070000000017
                },
                {
                    "name": "E6",
                    "midi": 88,
                    "time": 45.68971000000047,
                    "velocity": 0.5826771653543307,
                    "duration": 0.0862070000000017
                },
                {
                    "name": "A#5",
                    "midi": 82,
                    "time": 45.77591700000047,
                    "velocity": 0.5511811023622047,
                    "duration": 0.0862070000000017
                },
                {
                    "name": "D6",
                    "midi": 86,
                    "time": 45.86212400000047,
                    "velocity": 0.6614173228346457,
                    "duration": 0.0862070000000017
                },
                {
                    "name": "G#5",
                    "midi": 80,
                    "time": 45.94833100000047,
                    "velocity": 0.5590551181102362,
                    "duration": 0.0862070000000017
                },
                {
                    "name": "E5",
                    "midi": 76,
                    "time": 46.034538000000474,
                    "velocity": 0.5984251968503937,
                    "duration": 0.0862070000000017
                },
                {
                    "name": "A#4",
                    "midi": 70,
                    "time": 46.120745000000475,
                    "velocity": 0.5590551181102362,
                    "duration": 0.0862070000000017
                },
                {
                    "name": "D5",
                    "midi": 74,
                    "time": 46.20695200000048,
                    "velocity": 0.6850393700787402,
                    "duration": 0.0862070000000017
                },
                {
                    "name": "G#4",
                    "midi": 68,
                    "time": 46.29315900000048,
                    "velocity": 0.5669291338582677,
                    "duration": 0.0862070000000017
                },
                {
                    "name": "E4",
                    "midi": 64,
                    "time": 46.37936600000048,
                    "velocity": 0.5984251968503937,
                    "duration": 0.0862070000000017
                },
                {
                    "name": "A#3",
                    "midi": 58,
                    "time": 46.46557300000048,
                    "velocity": 0.5511811023622047,
                    "duration": 0.0862070000000017
                },
                {
                    "name": "D4",
                    "midi": 62,
                    "time": 46.551780000000484,
                    "velocity": 0.6771653543307087,
                    "duration": 0.0862070000000017
                },
                {
                    "name": "C#4",
                    "midi": 61,
                    "time": 47.24143600000048,
                    "velocity": 0.6377952755905512,
                    "duration": 0.0862070000000017
                },
                {
                    "name": "A3",
                    "midi": 57,
                    "time": 47.327643000000485,
                    "velocity": 0.5511811023622047,
                    "duration": 0.0862070000000017
                },
                {
                    "name": "E4",
                    "midi": 64,
                    "time": 47.41385000000049,
                    "velocity": 0.5984251968503937,
                    "duration": 0.0862070000000017
                },
                {
                    "name": "A4",
                    "midi": 69,
                    "time": 47.50005700000049,
                    "velocity": 0.5826771653543307,
                    "duration": 0.0862070000000017
                },
                {
                    "name": "C#5",
                    "midi": 73,
                    "time": 47.58626400000049,
                    "velocity": 0.6535433070866141,
                    "duration": 0.0862070000000017
                },
                {
                    "name": "A4",
                    "midi": 69,
                    "time": 47.67247100000049,
                    "velocity": 0.5826771653543307,
                    "duration": 0.0862070000000017
                },
                {
                    "name": "E5",
                    "midi": 76,
                    "time": 47.758678000000494,
                    "velocity": 0.6062992125984252,
                    "duration": 0.0862070000000017
                },
                {
                    "name": "A5",
                    "midi": 81,
                    "time": 47.844885000000495,
                    "velocity": 0.5748031496062992,
                    "duration": 0.0862070000000017
                },
                {
                    "name": "C#6",
                    "midi": 85,
                    "time": 47.9310920000005,
                    "velocity": 0.6692913385826772,
                    "duration": 0.0862070000000017
                },
                {
                    "name": "A5",
                    "midi": 81,
                    "time": 48.0172990000005,
                    "velocity": 0.5826771653543307,
                    "duration": 0.0862070000000017
                },
                {
                    "name": "E6",
                    "midi": 88,
                    "time": 48.1035060000005,
                    "velocity": 0.6141732283464567,
                    "duration": 0.0862070000000017
                },
                {
                    "name": "A6",
                    "midi": 93,
                    "time": 48.1897130000005,
                    "velocity": 0.5826771653543307,
                    "duration": 0.0862070000000017
                },
                {
                    "name": "C#7",
                    "midi": 97,
                    "time": 48.275920000000504,
                    "velocity": 0.6850393700787402,
                    "duration": 0.0862070000000017
                },
                {
                    "name": "A6",
                    "midi": 93,
                    "time": 48.362127000000505,
                    "velocity": 0.5826771653543307,
                    "duration": 0.0862070000000017
                },
                {
                    "name": "E6",
                    "midi": 88,
                    "time": 48.44833400000051,
                    "velocity": 0.6220472440944882,
                    "duration": 0.0862070000000017
                },
                {
                    "name": "A5",
                    "midi": 81,
                    "time": 48.53454100000051,
                    "velocity": 0.5826771653543307,
                    "duration": 0.0862070000000017
                },
                {
                    "name": "C#6",
                    "midi": 85,
                    "time": 48.62074800000051,
                    "velocity": 0.6692913385826772,
                    "duration": 0.0862070000000017
                },
                {
                    "name": "A5",
                    "midi": 81,
                    "time": 48.70695500000051,
                    "velocity": 0.5669291338582677,
                    "duration": 0.0862070000000017
                },
                {
                    "name": "E5",
                    "midi": 76,
                    "time": 48.793162000000514,
                    "velocity": 0.6062992125984252,
                    "duration": 0.0862070000000017
                },
                {
                    "name": "A4",
                    "midi": 69,
                    "time": 48.879369000000516,
                    "velocity": 0.5669291338582677,
                    "duration": 0.0862070000000017
                },
                {
                    "name": "C#5",
                    "midi": 73,
                    "time": 48.96557600000052,
                    "velocity": 0.6771653543307087,
                    "duration": 0.0862070000000017
                },
                {
                    "name": "A4",
                    "midi": 69,
                    "time": 49.05178300000052,
                    "velocity": 0.5669291338582677,
                    "duration": 0.0862070000000017
                },
                {
                    "name": "E4",
                    "midi": 64,
                    "time": 49.13799000000052,
                    "velocity": 0.5826771653543307,
                    "duration": 0.0862070000000017
                },
                {
                    "name": "A3",
                    "midi": 57,
                    "time": 49.22419700000052,
                    "velocity": 0.5433070866141733,
                    "duration": 0.0862070000000017
                },
                {
                    "name": "C#4",
                    "midi": 61,
                    "time": 49.310404000000524,
                    "velocity": 0.6614173228346457,
                    "duration": 0.0862070000000017
                },
                {
                    "name": "C4",
                    "midi": 60,
                    "time": 50.00006000000052,
                    "velocity": 0.5826771653543307,
                    "duration": 0.0862070000000017
                },
                {
                    "name": "A3",
                    "midi": 57,
                    "time": 50.086267000000525,
                    "velocity": 0.5354330708661418,
                    "duration": 0.0862070000000017
                },
                {
                    "name": "D4",
                    "midi": 62,
                    "time": 50.17247400000053,
                    "velocity": 0.5590551181102362,
                    "duration": 0.0862070000000017
                },
                {
                    "name": "F#4",
                    "midi": 66,
                    "time": 50.25868100000053,
                    "velocity": 0.5196850393700787,
                    "duration": 0.0862070000000017
                },
                {
                    "name": "C5",
                    "midi": 72,
                    "time": 50.34488800000053,
                    "velocity": 0.5826771653543307,
                    "duration": 0.0862070000000017
                },
                {
                    "name": "A4",
                    "midi": 69,
                    "time": 50.43109500000053,
                    "velocity": 0.5196850393700787,
                    "duration": 0.0862070000000017
                },
                {
                    "name": "D5",
                    "midi": 74,
                    "time": 50.517302000000534,
                    "velocity": 0.5590551181102362,
                    "duration": 0.0862070000000017
                },
                {
                    "name": "F#5",
                    "midi": 78,
                    "time": 50.603509000000535,
                    "velocity": 0.5354330708661418,
                    "duration": 0.0862070000000017
                },
                {
                    "name": "C6",
                    "midi": 84,
                    "time": 50.68971600000054,
                    "velocity": 0.5905511811023622,
                    "duration": 0.0862070000000017
                },
                {
                    "name": "A5",
                    "midi": 81,
                    "time": 50.77592300000054,
                    "velocity": 0.5275590551181102,
                    "duration": 0.0862070000000017
                },
                {
                    "name": "D6",
                    "midi": 86,
                    "time": 50.86213000000054,
                    "velocity": 0.5511811023622047,
                    "duration": 0.0862070000000017
                },
                {
                    "name": "F#6",
                    "midi": 90,
                    "time": 50.94833700000054,
                    "velocity": 0.5275590551181102,
                    "duration": 0.0862070000000017
                },
                {
                    "name": "C7",
                    "midi": 96,
                    "time": 51.034544000000544,
                    "velocity": 0.5984251968503937,
                    "duration": 0.0862070000000017
                },
                {
                    "name": "F6",
                    "midi": 89,
                    "time": 51.120751000000546,
                    "velocity": 0.5354330708661418,
                    "duration": 0.0862070000000017
                },
                {
                    "name": "D6",
                    "midi": 86,
                    "time": 51.20695800000055,
                    "velocity": 0.5590551181102362,
                    "duration": 0.0862070000000017
                },
                {
                    "name": "G5",
                    "midi": 79,
                    "time": 51.29316500000055,
                    "velocity": 0.5354330708661418,
                    "duration": 0.0862070000000017
                },
                {
                    "name": "C6",
                    "midi": 84,
                    "time": 51.37937200000055,
                    "velocity": 0.5748031496062992,
                    "duration": 0.0862070000000017
                },
                {
                    "name": "F5",
                    "midi": 77,
                    "time": 51.46557900000055,
                    "velocity": 0.5196850393700787,
                    "duration": 0.0862070000000017
                },
                {
                    "name": "D5",
                    "midi": 74,
                    "time": 51.551786000000554,
                    "velocity": 0.5433070866141733,
                    "duration": 0.0862070000000017
                },
                {
                    "name": "G4",
                    "midi": 67,
                    "time": 51.637993000000556,
                    "velocity": 0.49606299212598426,
                    "duration": 0.0862070000000017
                },
                {
                    "name": "C5",
                    "midi": 72,
                    "time": 51.72420000000056,
                    "velocity": 0.5826771653543307,
                    "duration": 0.0862070000000017
                },
                {
                    "name": "F4",
                    "midi": 65,
                    "time": 51.81040700000056,
                    "velocity": 0.49606299212598426,
                    "duration": 0.0862070000000017
                },
                {
                    "name": "D4",
                    "midi": 62,
                    "time": 51.89661400000056,
                    "velocity": 0.5196850393700787,
                    "duration": 0.0862070000000017
                },
                {
                    "name": "C4",
                    "midi": 60,
                    "time": 52.93109800000056,
                    "velocity": 0.48031496062992124,
                    "duration": 0.0862070000000017
                },
                {
                    "name": "E4",
                    "midi": 64,
                    "time": 53.01730500000056,
                    "velocity": 0.5118110236220472,
                    "duration": 0.0862070000000017
                },
                {
                    "name": "B4",
                    "midi": 71,
                    "time": 53.10351200000056,
                    "velocity": 0.5669291338582677,
                    "duration": 0.0862070000000017
                },
                {
                    "name": "G4",
                    "midi": 67,
                    "time": 53.189719000000565,
                    "velocity": 0.48031496062992124,
                    "duration": 0.0862070000000017
                },
                {
                    "name": "C5",
                    "midi": 72,
                    "time": 53.27592600000057,
                    "velocity": 0.5196850393700787,
                    "duration": 0.0862070000000017
                },
                {
                    "name": "E5",
                    "midi": 76,
                    "time": 53.36213300000057,
                    "velocity": 0.48031496062992124,
                    "duration": 0.0862070000000017
                },
                {
                    "name": "B5",
                    "midi": 83,
                    "time": 53.44834000000057,
                    "velocity": 0.5748031496062992,
                    "duration": 0.0862070000000017
                },
                {
                    "name": "G5",
                    "midi": 79,
                    "time": 53.53454700000057,
                    "velocity": 0.5039370078740157,
                    "duration": 0.0862070000000017
                },
                {
                    "name": "C6",
                    "midi": 84,
                    "time": 53.620754000000574,
                    "velocity": 0.5196850393700787,
                    "duration": 0.0862070000000017
                },
                {
                    "name": "E6",
                    "midi": 88,
                    "time": 53.706961000000575,
                    "velocity": 0.49606299212598426,
                    "duration": 0.0862070000000017
                },
                {
                    "name": "B6",
                    "midi": 95,
                    "time": 53.79316800000058,
                    "velocity": 0.5905511811023622,
                    "duration": 0.0862070000000017
                },
                {
                    "name": "E6",
                    "midi": 88,
                    "time": 53.87937500000058,
                    "velocity": 0.5118110236220472,
                    "duration": 0.0862070000000017
                },
                {
                    "name": "C6",
                    "midi": 84,
                    "time": 53.96558200000058,
                    "velocity": 0.5275590551181102,
                    "duration": 0.0862070000000017
                },
                {
                    "name": "F5",
                    "midi": 77,
                    "time": 54.05178900000058,
                    "velocity": 0.5275590551181102,
                    "duration": 0.0862070000000017
                },
                {
                    "name": "B5",
                    "midi": 83,
                    "time": 54.137996000000584,
                    "velocity": 0.5826771653543307,
                    "duration": 0.0862070000000017
                },
                {
                    "name": "E5",
                    "midi": 76,
                    "time": 54.224203000000585,
                    "velocity": 0.5039370078740157,
                    "duration": 0.0862070000000017
                },
                {
                    "name": "C5",
                    "midi": 72,
                    "time": 54.31041000000059,
                    "velocity": 0.5196850393700787,
                    "duration": 0.0862070000000017
                },
                {
                    "name": "F4",
                    "midi": 65,
                    "time": 54.39661700000059,
                    "velocity": 0.48031496062992124,
                    "duration": 0.0862070000000017
                },
                {
                    "name": "B4",
                    "midi": 71,
                    "time": 54.48282400000059,
                    "velocity": 0.5748031496062992,
                    "duration": 0.0862070000000017
                },
                {
                    "name": "E4",
                    "midi": 64,
                    "time": 54.56903100000059,
                    "velocity": 0.5196850393700787,
                    "duration": 0.0862070000000017
                },
                {
                    "name": "C4",
                    "midi": 60,
                    "time": 54.655238000000594,
                    "velocity": 0.48031496062992124,
                    "duration": 0.0862070000000017
                },
                {
                    "name": "D4",
                    "midi": 62,
                    "time": 55.775929000000595,
                    "velocity": 0.5196850393700787,
                    "duration": 0.0862070000000017
                },
                {
                    "name": "A4",
                    "midi": 69,
                    "time": 55.862136000000596,
                    "velocity": 0.5826771653543307,
                    "duration": 0.0862070000000017
                },
                {
                    "name": "F4",
                    "midi": 65,
                    "time": 55.9483430000006,
                    "velocity": 0.5039370078740157,
                    "duration": 0.0862070000000017
                },
                {
                    "name": "B4",
                    "midi": 71,
                    "time": 56.0345500000006,
                    "velocity": 0.5354330708661418,
                    "duration": 0.0862070000000017
                },
                {
                    "name": "D5",
                    "midi": 74,
                    "time": 56.1207570000006,
                    "velocity": 0.49606299212598426,
                    "duration": 0.0862070000000017
                },
                {
                    "name": "A5",
                    "midi": 81,
                    "time": 56.2069640000006,
                    "velocity": 0.5826771653543307,
                    "duration": 0.0862070000000017
                },
                {
                    "name": "F5",
                    "midi": 77,
                    "time": 56.293171000000605,
                    "velocity": 0.5039370078740157,
                    "duration": 0.0862070000000017
                },
                {
                    "name": "B5",
                    "midi": 83,
                    "time": 56.37937800000061,
                    "velocity": 0.5354330708661418,
                    "duration": 0.0862070000000017
                },
                {
                    "name": "D6",
                    "midi": 86,
                    "time": 56.46558500000061,
                    "velocity": 0.5039370078740157,
                    "duration": 0.0862070000000017
                },
                {
                    "name": "G6",
                    "midi": 91,
                    "time": 56.55179200000061,
                    "velocity": 0.5905511811023622,
                    "duration": 0.0862070000000017
                },
                {
                    "name": "D6",
                    "midi": 86,
                    "time": 56.63799900000061,
                    "velocity": 0.5118110236220472,
                    "duration": 0.0862070000000017
                },
                {
                    "name": "B5",
                    "midi": 83,
                    "time": 56.72420600000061,
                    "velocity": 0.5354330708661418,
                    "duration": 0.0862070000000017
                },
                {
                    "name": "E5",
                    "midi": 76,
                    "time": 56.810413000000615,
                    "velocity": 0.5118110236220472,
                    "duration": 0.0862070000000017
                },
                {
                    "name": "G5",
                    "midi": 79,
                    "time": 56.89662000000062,
                    "velocity": 0.5905511811023622,
                    "duration": 0.0862070000000017
                },
                {
                    "name": "D5",
                    "midi": 74,
                    "time": 56.98282700000062,
                    "velocity": 0.5118110236220472,
                    "duration": 0.0862070000000017
                },
                {
                    "name": "B4",
                    "midi": 71,
                    "time": 57.06903400000062,
                    "velocity": 0.5354330708661418,
                    "duration": 0.0862070000000017
                },
                {
                    "name": "E4",
                    "midi": 64,
                    "time": 57.15524100000062,
                    "velocity": 0.5039370078740157,
                    "duration": 0.0862070000000017
                },
                {
                    "name": "A4",
                    "midi": 69,
                    "time": 57.241448000000624,
                    "velocity": 0.5905511811023622,
                    "duration": 0.0862070000000017
                },
                {
                    "name": "C5",
                    "midi": 72,
                    "time": 57.327655000000625,
                    "velocity": 0.5039370078740157,
                    "duration": 0.0862070000000017
                },
                {
                    "name": "G5",
                    "midi": 79,
                    "time": 57.41386200000063,
                    "velocity": 0.5354330708661418,
                    "duration": 0.0862070000000017
                },
                {
                    "name": "E5",
                    "midi": 76,
                    "time": 57.50006900000063,
                    "velocity": 0.5039370078740157,
                    "duration": 0.0862070000000017
                },
                {
                    "name": "A5",
                    "midi": 81,
                    "time": 57.58627600000063,
                    "velocity": 0.5905511811023622,
                    "duration": 0.0862070000000017
                },
                {
                    "name": "C6",
                    "midi": 84,
                    "time": 57.67248300000063,
                    "velocity": 0.5118110236220472,
                    "duration": 0.0862070000000017
                },
                {
                    "name": "G6",
                    "midi": 91,
                    "time": 57.758690000000634,
                    "velocity": 0.5433070866141733,
                    "duration": 0.0862070000000017
                },
                {
                    "name": "E6",
                    "midi": 88,
                    "time": 57.844897000000636,
                    "velocity": 0.5118110236220472,
                    "duration": 0.0862070000000017
                },
                {
                    "name": "F6",
                    "midi": 89,
                    "time": 57.93110400000064,
                    "velocity": 0.5984251968503937,
                    "duration": 0.0862070000000017
                },
                {
                    "name": "C6",
                    "midi": 84,
                    "time": 58.01731100000064,
                    "velocity": 0.5275590551181102,
                    "duration": 0.0862070000000017
                },
                {
                    "name": "A5",
                    "midi": 81,
                    "time": 58.10351800000064,
                    "velocity": 0.5511811023622047,
                    "duration": 0.0862070000000017
                },
                {
                    "name": "D5",
                    "midi": 74,
                    "time": 58.18972500000064,
                    "velocity": 0.5196850393700787,
                    "duration": 0.0862070000000017
                },
                {
                    "name": "F5",
                    "midi": 77,
                    "time": 58.275932000000644,
                    "velocity": 0.6062992125984252,
                    "duration": 0.0862070000000017
                },
                {
                    "name": "C5",
                    "midi": 72,
                    "time": 58.362139000000646,
                    "velocity": 0.5275590551181102,
                    "duration": 0.0862070000000017
                },
                {
                    "name": "A4",
                    "midi": 69,
                    "time": 58.44834600000065,
                    "velocity": 0.5669291338582677,
                    "duration": 0.0862070000000017
                },
                {
                    "name": "D4",
                    "midi": 62,
                    "time": 58.53455300000065,
                    "velocity": 0.5275590551181102,
                    "duration": 0.0862070000000017
                },
                {
                    "name": "G4",
                    "midi": 67,
                    "time": 58.62076000000065,
                    "velocity": 0.6141732283464567,
                    "duration": 0.0862070000000017
                },
                {
                    "name": "B4",
                    "midi": 71,
                    "time": 58.70696700000065,
                    "velocity": 0.5196850393700787,
                    "duration": 0.0862070000000017
                },
                {
                    "name": "F5",
                    "midi": 77,
                    "time": 58.793174000000654,
                    "velocity": 0.5669291338582677,
                    "duration": 0.0862070000000017
                },
                {
                    "name": "D5",
                    "midi": 74,
                    "time": 58.879381000000656,
                    "velocity": 0.5354330708661418,
                    "duration": 0.0862070000000017
                },
                {
                    "name": "G5",
                    "midi": 79,
                    "time": 58.96558800000066,
                    "velocity": 0.6141732283464567,
                    "duration": 0.0862070000000017
                },
                {
                    "name": "B5",
                    "midi": 83,
                    "time": 59.05179500000066,
                    "velocity": 0.5354330708661418,
                    "duration": 0.0862070000000017
                },
                {
                    "name": "F6",
                    "midi": 89,
                    "time": 59.13800200000066,
                    "velocity": 0.5826771653543307,
                    "duration": 0.0862070000000017
                },
                {
                    "name": "D6",
                    "midi": 86,
                    "time": 59.22420900000066,
                    "velocity": 0.5354330708661418,
                    "duration": 0.0862070000000017
                },
                {
                    "name": "E6",
                    "midi": 88,
                    "time": 59.310416000000664,
                    "velocity": 0.6299212598425197,
                    "duration": 0.0862070000000017
                },
                {
                    "name": "B5",
                    "midi": 83,
                    "time": 59.396623000000666,
                    "velocity": 0.5511811023622047,
                    "duration": 0.0862070000000017
                },
                {
                    "name": "G5",
                    "midi": 79,
                    "time": 59.48283000000067,
                    "velocity": 0.5905511811023622,
                    "duration": 0.0862070000000017
                },
                {
                    "name": "C5",
                    "midi": 72,
                    "time": 59.56903700000067,
                    "velocity": 0.5511811023622047,
                    "duration": 0.0862070000000017
                },
                {
                    "name": "E5",
                    "midi": 76,
                    "time": 59.65524400000067,
                    "velocity": 0.6535433070866141,
                    "duration": 0.0862070000000017
                },
                {
                    "name": "B4",
                    "midi": 71,
                    "time": 59.74145100000067,
                    "velocity": 0.5511811023622047,
                    "duration": 0.0862070000000017
                },
                {
                    "name": "G4",
                    "midi": 67,
                    "time": 59.827658000000675,
                    "velocity": 0.5984251968503937,
                    "duration": 0.0862070000000017
                },
                {
                    "name": "C4",
                    "midi": 60,
                    "time": 59.913865000000676,
                    "velocity": 0.5511811023622047,
                    "duration": 0.0862070000000017
                },
                {
                    "name": "F4",
                    "midi": 65,
                    "time": 60.00007200000068,
                    "velocity": 0.6771653543307087,
                    "duration": 0.0862070000000017
                },
                {
                    "name": "A4",
                    "midi": 69,
                    "time": 60.08627900000068,
                    "velocity": 0.5590551181102362,
                    "duration": 0.0862070000000017
                },
                {
                    "name": "E5",
                    "midi": 76,
                    "time": 60.17248600000068,
                    "velocity": 0.6062992125984252,
                    "duration": 0.0862070000000017
                },
                {
                    "name": "C5",
                    "midi": 72,
                    "time": 60.25869300000068,
                    "velocity": 0.5590551181102362,
                    "duration": 0.0862070000000017
                },
                {
                    "name": "F5",
                    "midi": 77,
                    "time": 60.344900000000685,
                    "velocity": 0.6771653543307087,
                    "duration": 0.0862070000000017
                },
                {
                    "name": "A5",
                    "midi": 81,
                    "time": 60.43110700000069,
                    "velocity": 0.5748031496062992,
                    "duration": 0.0862070000000017
                },
                {
                    "name": "E6",
                    "midi": 88,
                    "time": 60.51731400000069,
                    "velocity": 0.6220472440944882,
                    "duration": 0.0862070000000017
                },
                {
                    "name": "C6",
                    "midi": 84,
                    "time": 60.60352100000069,
                    "velocity": 0.5905511811023622,
                    "duration": 0.0862070000000017
                },
                {
                    "name": "D6",
                    "midi": 86,
                    "time": 60.68972800000069,
                    "velocity": 0.7086614173228346,
                    "duration": 0.0862070000000017
                },
                {
                    "name": "A5",
                    "midi": 81,
                    "time": 60.77593500000069,
                    "velocity": 0.5984251968503937,
                    "duration": 0.0862070000000017
                },
                {
                    "name": "F5",
                    "midi": 77,
                    "time": 60.862142000000695,
                    "velocity": 0.6299212598425197,
                    "duration": 0.0862070000000017
                },
                {
                    "name": "B4",
                    "midi": 71,
                    "time": 60.9483490000007,
                    "velocity": 0.5905511811023622,
                    "duration": 0.0862070000000017
                },
                {
                    "name": "D5",
                    "midi": 74,
                    "time": 61.0345560000007,
                    "velocity": 0.7086614173228346,
                    "duration": 0.0862070000000017
                },
                {
                    "name": "A4",
                    "midi": 69,
                    "time": 61.1207630000007,
                    "velocity": 0.5984251968503937,
                    "duration": 0.0862070000000017
                },
                {
                    "name": "F4",
                    "midi": 65,
                    "time": 61.2069700000007,
                    "velocity": 0.6299212598425197,
                    "duration": 0.0862070000000017
                },
                {
                    "name": "B3",
                    "midi": 59,
                    "time": 61.2931770000007,
                    "velocity": 0.5826771653543307,
                    "duration": 0.0862070000000017
                },
                {
                    "name": "D4",
                    "midi": 62,
                    "time": 61.379384000000705,
                    "velocity": 0.7086614173228346,
                    "duration": 0.0862070000000017
                },
                {
                    "name": "D#6",
                    "midi": 87,
                    "time": 62.069040000000705,
                    "velocity": 0.7165354330708661,
                    "duration": 0.0862070000000017
                },
                {
                    "name": "A5",
                    "midi": 81,
                    "time": 62.155247000000706,
                    "velocity": 0.5905511811023622,
                    "duration": 0.0862070000000017
                },
                {
                    "name": "F#5",
                    "midi": 78,
                    "time": 62.24145400000071,
                    "velocity": 0.6299212598425197,
                    "duration": 0.0862070000000017
                },
                {
                    "name": "B4",
                    "midi": 71,
                    "time": 62.32766100000071,
                    "velocity": 0.5905511811023622,
                    "duration": 0.0862070000000017
                },
                {
                    "name": "D#5",
                    "midi": 75,
                    "time": 62.41386800000071,
                    "velocity": 0.7165354330708661,
                    "duration": 0.0862070000000017
                },
                {
                    "name": "A4",
                    "midi": 69,
                    "time": 62.50007500000071,
                    "velocity": 0.5984251968503937,
                    "duration": 0.0862070000000017
                },
                {
                    "name": "F#4",
                    "midi": 66,
                    "time": 62.586282000000715,
                    "velocity": 0.6299212598425197,
                    "duration": 0.0862070000000017
                },
                {
                    "name": "B3",
                    "midi": 59,
                    "time": 62.672489000000716,
                    "velocity": 0.5826771653543307,
                    "duration": 0.0862070000000017
                },
                {
                    "name": "D#4",
                    "midi": 63,
                    "time": 62.75869600000072,
                    "velocity": 0.7165354330708661,
                    "duration": 0.0862070000000017
                },
                {
                    "name": "E4",
                    "midi": 64,
                    "time": 63.79318000000072,
                    "velocity": 0.7165354330708661,
                    "duration": 0.0862070000000017
                },
                {
                    "name": "B3",
                    "midi": 59,
                    "time": 63.87938700000072,
                    "velocity": 0.5984251968503937,
                    "duration": 0.0862070000000017
                },
                {
                    "name": "E4",
                    "midi": 64,
                    "time": 63.96559400000072,
                    "velocity": 0.6299212598425197,
                    "duration": 0.0862070000000017
                },
                {
                    "name": "G#4",
                    "midi": 68,
                    "time": 64.05180100000072,
                    "velocity": 0.6062992125984252,
                    "duration": 0.0862070000000017
                },
                {
                    "name": "E5",
                    "midi": 76,
                    "time": 64.13800800000072,
                    "velocity": 0.7165354330708661,
                    "duration": 0.0862070000000017
                },
                {
                    "name": "B4",
                    "midi": 71,
                    "time": 64.22421500000073,
                    "velocity": 0.5984251968503937,
                    "duration": 0.0862070000000017
                },
                {
                    "name": "E5",
                    "midi": 76,
                    "time": 64.31042200000073,
                    "velocity": 0.6299212598425197,
                    "duration": 0.0862070000000017
                },
                {
                    "name": "G#5",
                    "midi": 80,
                    "time": 64.39662900000073,
                    "velocity": 0.5984251968503937,
                    "duration": 0.0862070000000017
                },
                {
                    "name": "E6",
                    "midi": 88,
                    "time": 64.48283600000073,
                    "velocity": 0.7165354330708661,
                    "duration": 0.0862070000000017
                },
                {
                    "name": "B5",
                    "midi": 83,
                    "time": 64.56904300000073,
                    "velocity": 0.5905511811023622,
                    "duration": 0.0862070000000017
                },
                {
                    "name": "E6",
                    "midi": 88,
                    "time": 64.65525000000073,
                    "velocity": 0.6299212598425197,
                    "duration": 0.0862070000000017
                },
                {
                    "name": "G#6",
                    "midi": 92,
                    "time": 64.74145700000074,
                    "velocity": 0.5905511811023622,
                    "duration": 0.0862070000000017
                },
                {
                    "name": "E7",
                    "midi": 100,
                    "time": 64.82766400000074,
                    "velocity": 0.7165354330708661,
                    "duration": 0.0862070000000017
                },
                {
                    "name": "G#6",
                    "midi": 92,
                    "time": 64.91387100000074,
                    "velocity": 0.6062992125984252,
                    "duration": 0.0862070000000017
                },
                {
                    "name": "E6",
                    "midi": 88,
                    "time": 65.00007800000074,
                    "velocity": 0.6220472440944882,
                    "duration": 0.0862070000000017
                },
                {
                    "name": "B5",
                    "midi": 83,
                    "time": 65.08628500000074,
                    "velocity": 0.5826771653543307,
                    "duration": 0.0862070000000017
                },
                {
                    "name": "E6",
                    "midi": 88,
                    "time": 65.17249200000074,
                    "velocity": 0.6929133858267716,
                    "duration": 0.0862070000000017
                },
                {
                    "name": "G#5",
                    "midi": 80,
                    "time": 65.25869900000075,
                    "velocity": 0.5669291338582677,
                    "duration": 0.0862070000000017
                },
                {
                    "name": "E5",
                    "midi": 76,
                    "time": 65.34490600000075,
                    "velocity": 0.5984251968503937,
                    "duration": 0.0862070000000017
                },
                {
                    "name": "B4",
                    "midi": 71,
                    "time": 65.43111300000075,
                    "velocity": 0.5433070866141733,
                    "duration": 0.0862070000000017
                },
                {
                    "name": "E5",
                    "midi": 76,
                    "time": 65.51732000000075,
                    "velocity": 0.6692913385826772,
                    "duration": 0.0862070000000017
                },
                {
                    "name": "G#4",
                    "midi": 68,
                    "time": 65.60352700000075,
                    "velocity": 0.5433070866141733,
                    "duration": 0.0862070000000017
                },
                {
                    "name": "E4",
                    "midi": 64,
                    "time": 65.68973400000075,
                    "velocity": 0.5669291338582677,
                    "duration": 0.0862070000000017
                },
                {
                    "name": "B3",
                    "midi": 59,
                    "time": 65.77594100000076,
                    "velocity": 0.5275590551181102,
                    "duration": 0.0862070000000017
                },
                {
                    "name": "F4",
                    "midi": 65,
                    "time": 65.86214800000076,
                    "velocity": 0.6299212598425197,
                    "duration": 0.0862070000000017
                },
                {
                    "name": "B3",
                    "midi": 59,
                    "time": 65.94835500000076,
                    "velocity": 0.5118110236220472,
                    "duration": 0.0862070000000017
                },
                {
                    "name": "E4",
                    "midi": 64,
                    "time": 66.55180400000076,
                    "velocity": 0.5669291338582677,
                    "duration": 0.0862070000000017
                },
                {
                    "name": "C4",
                    "midi": 60,
                    "time": 66.63801100000076,
                    "velocity": 0.49606299212598426,
                    "duration": 0.0862070000000017
                },
                {
                    "name": "G4",
                    "midi": 67,
                    "time": 66.72421800000076,
                    "velocity": 0.5354330708661418,
                    "duration": 0.0862070000000017
                },
                {
                    "name": "C5",
                    "midi": 72,
                    "time": 66.81042500000076,
                    "velocity": 0.5118110236220472,
                    "duration": 0.0862070000000017
                },
                {
                    "name": "E5",
                    "midi": 76,
                    "time": 66.89663200000076,
                    "velocity": 0.5984251968503937,
                    "duration": 0.0862070000000017
                },
                {
                    "name": "C5",
                    "midi": 72,
                    "time": 66.98283900000077,
                    "velocity": 0.5039370078740157,
                    "duration": 0.0862070000000017
                },
                {
                    "name": "G5",
                    "midi": 79,
                    "time": 67.06904600000077,
                    "velocity": 0.5511811023622047,
                    "duration": 0.0862070000000017
                },
                {
                    "name": "C6",
                    "midi": 84,
                    "time": 67.15525300000077,
                    "velocity": 0.5039370078740157,
                    "duration": 0.0862070000000017
                },
                {
                    "name": "E6",
                    "midi": 88,
                    "time": 67.24146000000077,
                    "velocity": 0.6062992125984252,
                    "duration": 0.0862070000000017
                },
                {
                    "name": "C6",
                    "midi": 84,
                    "time": 67.32766700000077,
                    "velocity": 0.5118110236220472,
                    "duration": 0.0862070000000017
                },
                {
                    "name": "G6",
                    "midi": 91,
                    "time": 67.41387400000077,
                    "velocity": 0.5511811023622047,
                    "duration": 0.0862070000000017
                },
                {
                    "name": "C7",
                    "midi": 96,
                    "time": 67.50008100000078,
                    "velocity": 0.5118110236220472,
                    "duration": 0.0862070000000017
                },
                {
                    "name": "E7",
                    "midi": 100,
                    "time": 67.58628800000078,
                    "velocity": 0.6062992125984252,
                    "duration": 0.0862070000000017
                },
                {
                    "name": "C7",
                    "midi": 96,
                    "time": 67.67249500000078,
                    "velocity": 0.5196850393700787,
                    "duration": 0.0862070000000017
                },
                {
                    "name": "G6",
                    "midi": 91,
                    "time": 67.75870200000078,
                    "velocity": 0.5590551181102362,
                    "duration": 0.0862070000000017
                },
                {
                    "name": "C6",
                    "midi": 84,
                    "time": 67.84490900000078,
                    "velocity": 0.5354330708661418,
                    "duration": 0.0862070000000017
                },
                {
                    "name": "E6",
                    "midi": 88,
                    "time": 67.93111600000078,
                    "velocity": 0.6062992125984252,
                    "duration": 0.0862070000000017
                },
                {
                    "name": "C6",
                    "midi": 84,
                    "time": 68.01732300000079,
                    "velocity": 0.5196850393700787,
                    "duration": 0.0862070000000017
                },
                {
                    "name": "G5",
                    "midi": 79,
                    "time": 68.10353000000079,
                    "velocity": 0.5511811023622047,
                    "duration": 0.0862070000000017
                },
                {
                    "name": "C5",
                    "midi": 72,
                    "time": 68.18973700000079,
                    "velocity": 0.5118110236220472,
                    "duration": 0.0862070000000017
                },
                {
                    "name": "E5",
                    "midi": 76,
                    "time": 68.27594400000079,
                    "velocity": 0.5984251968503937,
                    "duration": 0.0862070000000017
                },
                {
                    "name": "C5",
                    "midi": 72,
                    "time": 68.3621510000008,
                    "velocity": 0.5118110236220472,
                    "duration": 0.0862070000000017
                },
                {
                    "name": "G4",
                    "midi": 67,
                    "time": 68.4483580000008,
                    "velocity": 0.5433070866141733,
                    "duration": 0.0862070000000017
                },
                {
                    "name": "C4",
                    "midi": 60,
                    "time": 68.5345650000008,
                    "velocity": 0.49606299212598426,
                    "duration": 0.0862070000000017
                },
                {
                    "name": "E4",
                    "midi": 64,
                    "time": 68.6207720000008,
                    "velocity": 0.5905511811023622,
                    "duration": 0.0862070000000017
                },
                {
                    "name": "C4",
                    "midi": 60,
                    "time": 68.7069790000008,
                    "velocity": 0.49606299212598426,
                    "duration": 0.0862070000000017
                },
                {
                    "name": "F4",
                    "midi": 65,
                    "time": 69.3104280000008,
                    "velocity": 0.6141732283464567,
                    "duration": 0.0862070000000017
                },
                {
                    "name": "C4",
                    "midi": 60,
                    "time": 69.3966350000008,
                    "velocity": 0.5039370078740157,
                    "duration": 0.0862070000000017
                },
                {
                    "name": "A4",
                    "midi": 69,
                    "time": 69.4828420000008,
                    "velocity": 0.5433070866141733,
                    "duration": 0.0862070000000017
                },
                {
                    "name": "C5",
                    "midi": 72,
                    "time": 69.5690490000008,
                    "velocity": 0.5275590551181102,
                    "duration": 0.0862070000000017
                },
                {
                    "name": "F5",
                    "midi": 77,
                    "time": 69.6552560000008,
                    "velocity": 0.6456692913385826,
                    "duration": 0.0862070000000017
                },
                {
                    "name": "C5",
                    "midi": 72,
                    "time": 69.7414630000008,
                    "velocity": 0.5354330708661418,
                    "duration": 0.0862070000000017
                },
                {
                    "name": "A5",
                    "midi": 81,
                    "time": 69.82767000000081,
                    "velocity": 0.5748031496062992,
                    "duration": 0.0862070000000017
                },
                {
                    "name": "C6",
                    "midi": 84,
                    "time": 69.91387700000081,
                    "velocity": 0.5433070866141733,
                    "duration": 0.0862070000000017
                },
                {
                    "name": "F6",
                    "midi": 89,
                    "time": 70.00008400000081,
                    "velocity": 0.6535433070866141,
                    "duration": 0.0862070000000017
                },
                {
                    "name": "C6",
                    "midi": 84,
                    "time": 70.08629100000081,
                    "velocity": 0.5433070866141733,
                    "duration": 0.0862070000000017
                },
                {
                    "name": "A6",
                    "midi": 93,
                    "time": 70.17249800000081,
                    "velocity": 0.5826771653543307,
                    "duration": 0.0862070000000017
                },
                {
                    "name": "C7",
                    "midi": 96,
                    "time": 70.25870500000082,
                    "velocity": 0.5511811023622047,
                    "duration": 0.0862070000000017
                },
                {
                    "name": "E7",
                    "midi": 100,
                    "time": 70.34491200000082,
                    "velocity": 0.6929133858267716,
                    "duration": 0.0862070000000017
                },
                {
                    "name": "C7",
                    "midi": 96,
                    "time": 70.43111900000082,
                    "velocity": 0.5511811023622047,
                    "duration": 0.0862070000000017
                },
                {
                    "name": "A6",
                    "midi": 93,
                    "time": 70.51732600000082,
                    "velocity": 0.6062992125984252,
                    "duration": 0.0862070000000017
                },
                {
                    "name": "C6",
                    "midi": 84,
                    "time": 70.60353300000082,
                    "velocity": 0.5590551181102362,
                    "duration": 0.0862070000000017
                },
                {
                    "name": "E6",
                    "midi": 88,
                    "time": 70.68974000000082,
                    "velocity": 0.7007874015748031,
                    "duration": 0.0862070000000017
                },
                {
                    "name": "C6",
                    "midi": 84,
                    "time": 70.77594700000083,
                    "velocity": 0.5669291338582677,
                    "duration": 0.0862070000000017
                },
                {
                    "name": "A5",
                    "midi": 81,
                    "time": 70.86215400000083,
                    "velocity": 0.6220472440944882,
                    "duration": 0.0862070000000017
                },
                {
                    "name": "C5",
                    "midi": 72,
                    "time": 70.94836100000083,
                    "velocity": 0.5748031496062992,
                    "duration": 0.0862070000000017
                },
                {
                    "name": "E5",
                    "midi": 76,
                    "time": 71.03456800000083,
                    "velocity": 0.7007874015748031,
                    "duration": 0.0862070000000017
                },
                {
                    "name": "C5",
                    "midi": 72,
                    "time": 71.12077500000083,
                    "velocity": 0.5748031496062992,
                    "duration": 0.0862070000000017
                },
                {
                    "name": "A4",
                    "midi": 69,
                    "time": 71.20698200000083,
                    "velocity": 0.6141732283464567,
                    "duration": 0.0862070000000017
                },
                {
                    "name": "C4",
                    "midi": 60,
                    "time": 71.29318900000084,
                    "velocity": 0.5669291338582677,
                    "duration": 0.0862070000000017
                },
                {
                    "name": "D4",
                    "midi": 62,
                    "time": 71.37939600000084,
                    "velocity": 0.7086614173228346,
                    "duration": 0.0862070000000017
                },
                {
                    "name": "C4",
                    "midi": 60,
                    "time": 71.46560300000084,
                    "velocity": 0.5669291338582677,
                    "duration": 0.0862070000000017
                },
                {
                    "name": "D4",
                    "midi": 62,
                    "time": 72.06905200000084,
                    "velocity": 0.7165354330708661,
                    "duration": 0.0862070000000017
                },
                {
                    "name": "B3",
                    "midi": 59,
                    "time": 72.15525900000084,
                    "velocity": 0.5905511811023622,
                    "duration": 0.0862070000000017
                },
                {
                    "name": "G4",
                    "midi": 67,
                    "time": 72.24146600000084,
                    "velocity": 0.6299212598425197,
                    "duration": 0.0862070000000017
                },
                {
                    "name": "B4",
                    "midi": 71,
                    "time": 72.32767300000084,
                    "velocity": 0.5984251968503937,
                    "duration": 0.0862070000000017
                },
                {
                    "name": "D5",
                    "midi": 74,
                    "time": 72.41388000000084,
                    "velocity": 0.7322834645669292,
                    "duration": 0.0862070000000017
                },
                {
                    "name": "B4",
                    "midi": 71,
                    "time": 72.50008700000085,
                    "velocity": 0.5984251968503937,
                    "duration": 0.0862070000000017
                },
                {
                    "name": "G5",
                    "midi": 79,
                    "time": 72.58629400000085,
                    "velocity": 0.6456692913385826,
                    "duration": 0.0862070000000017
                },
                {
                    "name": "B5",
                    "midi": 83,
                    "time": 72.67250100000085,
                    "velocity": 0.5984251968503937,
                    "duration": 0.0862070000000017
                },
                {
                    "name": "D6",
                    "midi": 86,
                    "time": 72.75870800000085,
                    "velocity": 0.7401574803149606,
                    "duration": 0.0862070000000017
                },
                {
                    "name": "B5",
                    "midi": 83,
                    "time": 72.84491500000085,
                    "velocity": 0.5984251968503937,
                    "duration": 0.0862070000000017
                },
                {
                    "name": "G6",
                    "midi": 91,
                    "time": 72.93112200000085,
                    "velocity": 0.6535433070866141,
                    "duration": 0.0862070000000017
                },
                {
                    "name": "A6",
                    "midi": 93,
                    "time": 73.01732900000086,
                    "velocity": 0.5984251968503937,
                    "duration": 0.0862070000000017
                },
                {
                    "name": "D7",
                    "midi": 98,
                    "time": 73.10353600000086,
                    "velocity": 0.7559055118110236,
                    "duration": 0.0862070000000017
                },
                {
                    "name": "A6",
                    "midi": 93,
                    "time": 73.18974300000086,
                    "velocity": 0.6062992125984252,
                    "duration": 0.0862070000000017
                },
                {
                    "name": "F#6",
                    "midi": 90,
                    "time": 73.27595000000086,
                    "velocity": 0.6614173228346457,
                    "duration": 0.0862070000000017
                },
                {
                    "name": "C6",
                    "midi": 84,
                    "time": 73.36215700000086,
                    "velocity": 0.5984251968503937,
                    "duration": 0.0862070000000017
                },
                {
                    "name": "D6",
                    "midi": 86,
                    "time": 73.44836400000086,
                    "velocity": 0.7480314960629921,
                    "duration": 0.0862070000000017
                },
                {
                    "name": "A5",
                    "midi": 81,
                    "time": 73.53457100000087,
                    "velocity": 0.5984251968503937,
                    "duration": 0.0862070000000017
                },
                {
                    "name": "F#5",
                    "midi": 78,
                    "time": 73.62077800000087,
                    "velocity": 0.6535433070866141,
                    "duration": 0.0862070000000017
                },
                {
                    "name": "C5",
                    "midi": 72,
                    "time": 73.70698500000087,
                    "velocity": 0.6062992125984252,
                    "duration": 0.0862070000000017
                },
                {
                    "name": "D5",
                    "midi": 74,
                    "time": 73.79319200000087,
                    "velocity": 0.7322834645669292,
                    "duration": 0.0862070000000017
                },
                {
                    "name": "A4",
                    "midi": 69,
                    "time": 73.87939900000087,
                    "velocity": 0.6062992125984252,
                    "duration": 0.0862070000000017
                },
                {
                    "name": "F#4",
                    "midi": 66,
                    "time": 73.96560600000088,
                    "velocity": 0.6377952755905512,
                    "duration": 0.0862070000000017
                },
                {
                    "name": "C4",
                    "midi": 60,
                    "time": 74.05181300000088,
                    "velocity": 0.5984251968503937,
                    "duration": 0.0862070000000017
                },
                {
                    "name": "D4",
                    "midi": 62,
                    "time": 74.13802000000088,
                    "velocity": 0.7165354330708661,
                    "duration": 0.0862070000000017
                },
                {
                    "name": "D4",
                    "midi": 62,
                    "time": 74.82767600000088,
                    "velocity": 0.7165354330708661,
                    "duration": 0.0862070000000017
                },
                {
                    "name": "C4",
                    "midi": 60,
                    "time": 74.91388300000088,
                    "velocity": 0.5826771653543307,
                    "duration": 0.0862070000000017
                },
                {
                    "name": "F4",
                    "midi": 65,
                    "time": 75.00009000000088,
                    "velocity": 0.6299212598425197,
                    "duration": 0.0862070000000017
                },
                {
                    "name": "G#4",
                    "midi": 68,
                    "time": 75.08629700000088,
                    "velocity": 0.5984251968503937,
                    "duration": 0.0862070000000017
                },
                {
                    "name": "D5",
                    "midi": 74,
                    "time": 75.17250400000088,
                    "velocity": 0.7322834645669292,
                    "duration": 0.0862070000000017
                },
                {
                    "name": "C5",
                    "midi": 72,
                    "time": 75.25871100000089,
                    "velocity": 0.5984251968503937,
                    "duration": 0.0862070000000017
                },
                {
                    "name": "F5",
                    "midi": 77,
                    "time": 75.34491800000089,
                    "velocity": 0.6456692913385826,
                    "duration": 0.0862070000000017
                },
                {
                    "name": "G#5",
                    "midi": 80,
                    "time": 75.43112500000089,
                    "velocity": 0.6062992125984252,
                    "duration": 0.0862070000000017
                },
                {
                    "name": "D6",
                    "midi": 86,
                    "time": 75.51733200000089,
                    "velocity": 0.7401574803149606,
                    "duration": 0.0862070000000017
                },
                {
                    "name": "C6",
                    "midi": 84,
                    "time": 75.6035390000009,
                    "velocity": 0.6141732283464567,
                    "duration": 0.0862070000000017
                },
                {
                    "name": "F6",
                    "midi": 89,
                    "time": 75.6897460000009,
                    "velocity": 0.6535433070866141,
                    "duration": 0.0862070000000017
                },
                {
                    "name": "G#6",
                    "midi": 92,
                    "time": 75.7759530000009,
                    "velocity": 0.5984251968503937,
                    "duration": 0.0862070000000017
                },
                {
                    "name": "D7",
                    "midi": 98,
                    "time": 75.8621600000009,
                    "velocity": 0.7480314960629921,
                    "duration": 0.0862070000000017
                },
                {
                    "name": "G6",
                    "midi": 91,
                    "time": 75.9483670000009,
                    "velocity": 0.6141732283464567,
                    "duration": 0.0862070000000017
                },
                {
                    "name": "F6",
                    "midi": 89,
                    "time": 76.0345740000009,
                    "velocity": 0.6614173228346457,
                    "duration": 0.0862070000000017
                },
                {
                    "name": "B5",
                    "midi": 83,
                    "time": 76.1207810000009,
                    "velocity": 0.6062992125984252,
                    "duration": 0.0862070000000017
                },
                {
                    "name": "D6",
                    "midi": 86,
                    "time": 76.2069880000009,
                    "velocity": 0.7401574803149606,
                    "duration": 0.0862070000000017
                },
                {
                    "name": "G5",
                    "midi": 79,
                    "time": 76.2931950000009,
                    "velocity": 0.6141732283464567,
                    "duration": 0.0862070000000017
                },
                {
                    "name": "F5",
                    "midi": 77,
                    "time": 76.37940200000091,
                    "velocity": 0.6535433070866141,
                    "duration": 0.0862070000000017
                },
                {
                    "name": "B4",
                    "midi": 71,
                    "time": 76.46560900000091,
                    "velocity": 0.6062992125984252,
                    "duration": 0.0862070000000017
                },
                {
                    "name": "D5",
                    "midi": 74,
                    "time": 76.55181600000091,
                    "velocity": 0.7244094488188977,
                    "duration": 0.0862070000000017
                },
                {
                    "name": "G4",
                    "midi": 67,
                    "time": 76.63802300000091,
                    "velocity": 0.6062992125984252,
                    "duration": 0.0862070000000017
                },
                {
                    "name": "F4",
                    "midi": 65,
                    "time": 76.72423000000092,
                    "velocity": 0.6377952755905512,
                    "duration": 0.0862070000000017
                },
                {
                    "name": "B3",
                    "midi": 59,
                    "time": 76.81043700000092,
                    "velocity": 0.5905511811023622,
                    "duration": 0.0862070000000017
                },
                {
                    "name": "D#4",
                    "midi": 63,
                    "time": 76.89664400000092,
                    "velocity": 0.7165354330708661,
                    "duration": 0.0862070000000017
                },
                {
                    "name": "E4",
                    "midi": 64,
                    "time": 77.58630000000092,
                    "velocity": 0.7244094488188977,
                    "duration": 0.0862070000000017
                },
                {
                    "name": "C4",
                    "midi": 60,
                    "time": 77.67250700000092,
                    "velocity": 0.5905511811023622,
                    "duration": 0.0862070000000017
                },
                {
                    "name": "G4",
                    "midi": 67,
                    "time": 77.75871400000092,
                    "velocity": 0.6299212598425197,
                    "duration": 0.0862070000000017
                },
                {
                    "name": "C5",
                    "midi": 72,
                    "time": 77.84492100000092,
                    "velocity": 0.5984251968503937,
                    "duration": 0.0862070000000017
                },
                {
                    "name": "E5",
                    "midi": 76,
                    "time": 77.93112800000092,
                    "velocity": 0.7322834645669292,
                    "duration": 0.0862070000000017
                },
                {
                    "name": "C5",
                    "midi": 72,
                    "time": 78.01733500000093,
                    "velocity": 0.5984251968503937,
                    "duration": 0.0862070000000017
                },
                {
                    "name": "G5",
                    "midi": 79,
                    "time": 78.10354200000093,
                    "velocity": 0.6456692913385826,
                    "duration": 0.0862070000000017
                },
                {
                    "name": "C6",
                    "midi": 84,
                    "time": 78.18974900000093,
                    "velocity": 0.5984251968503937,
                    "duration": 0.0862070000000017
                },
                {
                    "name": "E6",
                    "midi": 88,
                    "time": 78.27595600000093,
                    "velocity": 0.7401574803149606,
                    "duration": 0.0862070000000017
                },
                {
                    "name": "C6",
                    "midi": 84,
                    "time": 78.36216300000093,
                    "velocity": 0.6141732283464567,
                    "duration": 0.0862070000000017
                },
                {
                    "name": "G6",
                    "midi": 91,
                    "time": 78.44837000000093,
                    "velocity": 0.6535433070866141,
                    "duration": 0.0862070000000017
                },
                {
                    "name": "C7",
                    "midi": 96,
                    "time": 78.53457700000094,
                    "velocity": 0.6141732283464567,
                    "duration": 0.0862070000000017
                },
                {
                    "name": "E7",
                    "midi": 100,
                    "time": 78.62078400000094,
                    "velocity": 0.7559055118110236,
                    "duration": 0.0862070000000017
                },
                {
                    "name": "C7",
                    "midi": 96,
                    "time": 78.70699100000094,
                    "velocity": 0.6062992125984252,
                    "duration": 0.0862070000000017
                },
                {
                    "name": "G6",
                    "midi": 91,
                    "time": 78.79319800000094,
                    "velocity": 0.6614173228346457,
                    "duration": 0.0862070000000017
                },
                {
                    "name": "C6",
                    "midi": 84,
                    "time": 78.87940500000094,
                    "velocity": 0.6062992125984252,
                    "duration": 0.0862070000000017
                },
                {
                    "name": "E6",
                    "midi": 88,
                    "time": 78.96561200000095,
                    "velocity": 0.7480314960629921,
                    "duration": 0.0862070000000017
                },
                {
                    "name": "C6",
                    "midi": 84,
                    "time": 79.05181900000095,
                    "velocity": 0.5984251968503937,
                    "duration": 0.0862070000000017
                },
                {
                    "name": "G5",
                    "midi": 79,
                    "time": 79.13802600000095,
                    "velocity": 0.6535433070866141,
                    "duration": 0.0862070000000017
                },
                {
                    "name": "C5",
                    "midi": 72,
                    "time": 79.22423300000095,
                    "velocity": 0.5984251968503937,
                    "duration": 0.0862070000000017
                },
                {
                    "name": "E5",
                    "midi": 76,
                    "time": 79.31044000000095,
                    "velocity": 0.7401574803149606,
                    "duration": 0.0862070000000017
                },
                {
                    "name": "C5",
                    "midi": 72,
                    "time": 79.39664700000095,
                    "velocity": 0.6062992125984252,
                    "duration": 0.0862070000000017
                },
                {
                    "name": "G4",
                    "midi": 67,
                    "time": 79.48285400000096,
                    "velocity": 0.6377952755905512,
                    "duration": 0.0862070000000017
                },
                {
                    "name": "C4",
                    "midi": 60,
                    "time": 79.56906100000096,
                    "velocity": 0.6062992125984252,
                    "duration": 0.0862070000000017
                },
                {
                    "name": "E4",
                    "midi": 64,
                    "time": 79.65526800000096,
                    "velocity": 0.7244094488188977,
                    "duration": 0.0862070000000017
                },
                {
                    "name": "C4",
                    "midi": 60,
                    "time": 79.74147500000096,
                    "velocity": 0.5984251968503937,
                    "duration": 0.0862070000000017
                },
                {
                    "name": "F4",
                    "midi": 65,
                    "time": 80.34492400000096,
                    "velocity": 0.6692913385826772,
                    "duration": 0.0862070000000017
                },
                {
                    "name": "C4",
                    "midi": 60,
                    "time": 80.43113100000096,
                    "velocity": 0.5905511811023622,
                    "duration": 0.0862070000000017
                },
                {
                    "name": "F4",
                    "midi": 65,
                    "time": 80.51733800000096,
                    "velocity": 0.6299212598425197,
                    "duration": 0.0862070000000017
                },
                {
                    "name": "C5",
                    "midi": 72,
                    "time": 80.60354500000096,
                    "velocity": 0.5984251968503937,
                    "duration": 0.0862070000000017
                },
                {
                    "name": "F5",
                    "midi": 77,
                    "time": 80.68975200000096,
                    "velocity": 0.6929133858267716,
                    "duration": 0.0862070000000017
                },
                {
                    "name": "C5",
                    "midi": 72,
                    "time": 80.77595900000097,
                    "velocity": 0.5984251968503937,
                    "duration": 0.0862070000000017
                },
                {
                    "name": "F5",
                    "midi": 77,
                    "time": 80.86216600000097,
                    "velocity": 0.6456692913385826,
                    "duration": 0.0862070000000017
                },
                {
                    "name": "C6",
                    "midi": 84,
                    "time": 80.94837300000097,
                    "velocity": 0.6062992125984252,
                    "duration": 0.0862070000000017
                },
                {
                    "name": "F6",
                    "midi": 89,
                    "time": 81.03458000000097,
                    "velocity": 0.7086614173228346,
                    "duration": 0.0862070000000017
                },
                {
                    "name": "C6",
                    "midi": 84,
                    "time": 81.12078700000097,
                    "velocity": 0.6141732283464567,
                    "duration": 0.0862070000000017
                },
                {
                    "name": "F6",
                    "midi": 89,
                    "time": 81.20699400000098,
                    "velocity": 0.6535433070866141,
                    "duration": 0.0862070000000017
                },
                {
                    "name": "C7",
                    "midi": 96,
                    "time": 81.29320100000098,
                    "velocity": 0.6141732283464567,
                    "duration": 0.0862070000000017
                },
                {
                    "name": "E7",
                    "midi": 100,
                    "time": 81.37940800000098,
                    "velocity": 0.7244094488188977,
                    "duration": 0.0862070000000017
                },
                {
                    "name": "C7",
                    "midi": 96,
                    "time": 81.46561500000098,
                    "velocity": 0.6141732283464567,
                    "duration": 0.0862070000000017
                },
                {
                    "name": "F#6",
                    "midi": 90,
                    "time": 81.55182200000098,
                    "velocity": 0.6614173228346457,
                    "duration": 0.0862070000000017
                },
                {
                    "name": "C6",
                    "midi": 84,
                    "time": 81.63802900000098,
                    "velocity": 0.6141732283464567,
                    "duration": 0.0862070000000017
                },
                {
                    "name": "E6",
                    "midi": 88,
                    "time": 81.72423600000099,
                    "velocity": 0.7165354330708661,
                    "duration": 0.0862070000000017
                },
                {
                    "name": "C6",
                    "midi": 84,
                    "time": 81.81044300000099,
                    "velocity": 0.6220472440944882,
                    "duration": 0.0862070000000017
                },
                {
                    "name": "F#5",
                    "midi": 78,
                    "time": 81.89665000000099,
                    "velocity": 0.6535433070866141,
                    "duration": 0.0862070000000017
                },
                {
                    "name": "C5",
                    "midi": 72,
                    "time": 81.98285700000099,
                    "velocity": 0.5984251968503937,
                    "duration": 0.0862070000000017
                },
                {
                    "name": "D#5",
                    "midi": 75,
                    "time": 82.06906400000099,
                    "velocity": 0.7086614173228346,
                    "duration": 0.0862070000000017
                },
                {
                    "name": "C5",
                    "midi": 72,
                    "time": 82.155271000001,
                    "velocity": 0.6141732283464567,
                    "duration": 0.0862070000000017
                },
                {
                    "name": "F#4",
                    "midi": 66,
                    "time": 82.241478000001,
                    "velocity": 0.6377952755905512,
                    "duration": 0.0862070000000017
                },
                {
                    "name": "C4",
                    "midi": 60,
                    "time": 82.327685000001,
                    "velocity": 0.5905511811023622,
                    "duration": 0.0862070000000017
                },
                {
                    "name": "D#4",
                    "midi": 63,
                    "time": 82.413892000001,
                    "velocity": 0.6771653543307087,
                    "duration": 0.0862070000000017
                },
                {
                    "name": "C4",
                    "midi": 60,
                    "time": 82.500099000001,
                    "velocity": 0.5826771653543307,
                    "duration": 0.0862070000000017
                },
                {
                    "name": "D4",
                    "midi": 62,
                    "time": 83.103548000001,
                    "velocity": 0.6141732283464567,
                    "duration": 0.0862070000000017
                },
                {
                    "name": "C4",
                    "midi": 60,
                    "time": 83.189755000001,
                    "velocity": 0.5590551181102362,
                    "duration": 0.0862070000000017
                },
                {
                    "name": "G4",
                    "midi": 67,
                    "time": 83.275962000001,
                    "velocity": 0.5984251968503937,
                    "duration": 0.0862070000000017
                },
                {
                    "name": "C5",
                    "midi": 72,
                    "time": 83.362169000001,
                    "velocity": 0.5748031496062992,
                    "duration": 0.0862070000000017
                },
                {
                    "name": "D5",
                    "midi": 74,
                    "time": 83.448376000001,
                    "velocity": 0.6535433070866141,
                    "duration": 0.0862070000000017
                },
                {
                    "name": "C5",
                    "midi": 72,
                    "time": 83.534583000001,
                    "velocity": 0.5826771653543307,
                    "duration": 0.0862070000000017
                },
                {
                    "name": "G5",
                    "midi": 79,
                    "time": 83.62079000000101,
                    "velocity": 0.5984251968503937,
                    "duration": 0.0862070000000017
                },
                {
                    "name": "C6",
                    "midi": 84,
                    "time": 83.70699700000101,
                    "velocity": 0.5669291338582677,
                    "duration": 0.0862070000000017
                },
                {
                    "name": "D6",
                    "midi": 86,
                    "time": 83.79320400000101,
                    "velocity": 0.6692913385826772,
                    "duration": 0.0862070000000017
                },
                {
                    "name": "C6",
                    "midi": 84,
                    "time": 83.87941100000101,
                    "velocity": 0.5905511811023622,
                    "duration": 0.0862070000000017
                },
                {
                    "name": "G6",
                    "midi": 91,
                    "time": 83.96561800000102,
                    "velocity": 0.6062992125984252,
                    "duration": 0.0862070000000017
                },
                {
                    "name": "C7",
                    "midi": 96,
                    "time": 84.05182500000102,
                    "velocity": 0.5590551181102362,
                    "duration": 0.0862070000000017
                },
                {
                    "name": "D7",
                    "midi": 98,
                    "time": 84.13803200000102,
                    "velocity": 0.6850393700787402,
                    "duration": 0.0862070000000017
                },
                {
                    "name": "B6",
                    "midi": 95,
                    "time": 84.22423900000102,
                    "velocity": 0.5748031496062992,
                    "duration": 0.0862070000000017
                },
                {
                    "name": "G6",
                    "midi": 91,
                    "time": 84.31044600000102,
                    "velocity": 0.6141732283464567,
                    "duration": 0.0862070000000017
                },
                {
                    "name": "B5",
                    "midi": 83,
                    "time": 84.39665300000102,
                    "velocity": 0.5748031496062992,
                    "duration": 0.0862070000000017
                },
                {
                    "name": "D6",
                    "midi": 86,
                    "time": 84.48286000000103,
                    "velocity": 0.6535433070866141,
                    "duration": 0.0862070000000017
                },
                {
                    "name": "B5",
                    "midi": 83,
                    "time": 84.56906700000103,
                    "velocity": 0.5748031496062992,
                    "duration": 0.0862070000000017
                },
                {
                    "name": "G5",
                    "midi": 79,
                    "time": 84.65527400000103,
                    "velocity": 0.5984251968503937,
                    "duration": 0.0862070000000017
                },
                {
                    "name": "B4",
                    "midi": 71,
                    "time": 84.74148100000103,
                    "velocity": 0.5590551181102362,
                    "duration": 0.0862070000000017
                },
                {
                    "name": "D5",
                    "midi": 74,
                    "time": 84.82768800000103,
                    "velocity": 0.6456692913385826,
                    "duration": 0.0862070000000017
                },
                {
                    "name": "B4",
                    "midi": 71,
                    "time": 84.91389500000103,
                    "velocity": 0.5511811023622047,
                    "duration": 0.0862070000000017
                },
                {
                    "name": "G4",
                    "midi": 67,
                    "time": 85.00010200000104,
                    "velocity": 0.5826771653543307,
                    "duration": 0.0862070000000017
                },
                {
                    "name": "B3",
                    "midi": 59,
                    "time": 85.08630900000104,
                    "velocity": 0.5511811023622047,
                    "duration": 0.0862070000000017
                },
                {
                    "name": "D4",
                    "midi": 62,
                    "time": 85.17251600000104,
                    "velocity": 0.6299212598425197,
                    "duration": 0.0862070000000017
                },
                {
                    "name": "B3",
                    "midi": 59,
                    "time": 85.25872300000104,
                    "velocity": 0.5354330708661418,
                    "duration": 0.0862070000000017
                },
                {
                    "name": "D4",
                    "midi": 62,
                    "time": 85.86217200000104,
                    "velocity": 0.5905511811023622,
                    "duration": 0.0862070000000017
                },
                {
                    "name": "C4",
                    "midi": 60,
                    "time": 85.94837900000104,
                    "velocity": 0.5354330708661418,
                    "duration": 0.0862070000000017
                },
                {
                    "name": "A4",
                    "midi": 69,
                    "time": 86.03458600000104,
                    "velocity": 0.5748031496062992,
                    "duration": 0.0862070000000017
                },
                {
                    "name": "C5",
                    "midi": 72,
                    "time": 86.12079300000104,
                    "velocity": 0.5433070866141733,
                    "duration": 0.0862070000000017
                },
                {
                    "name": "D5",
                    "midi": 74,
                    "time": 86.20700000000105,
                    "velocity": 0.6062992125984252,
                    "duration": 0.0862070000000017
                },
                {
                    "name": "C5",
                    "midi": 72,
                    "time": 86.29320700000105,
                    "velocity": 0.5511811023622047,
                    "duration": 0.0862070000000017
                },
                {
                    "name": "A5",
                    "midi": 81,
                    "time": 86.37941400000105,
                    "velocity": 0.5748031496062992,
                    "duration": 0.0862070000000017
                },
                {
                    "name": "C6",
                    "midi": 84,
                    "time": 86.46562100000105,
                    "velocity": 0.5669291338582677,
                    "duration": 0.0862070000000017
                },
                {
                    "name": "D6",
                    "midi": 86,
                    "time": 86.55182800000105,
                    "velocity": 0.6377952755905512,
                    "duration": 0.0862070000000017
                },
                {
                    "name": "C6",
                    "midi": 84,
                    "time": 86.63803500000105,
                    "velocity": 0.5669291338582677,
                    "duration": 0.0862070000000017
                },
                {
                    "name": "A6",
                    "midi": 93,
                    "time": 86.72424200000106,
                    "velocity": 0.5826771653543307,
                    "duration": 0.0862070000000017
                },
                {
                    "name": "C7",
                    "midi": 96,
                    "time": 86.81044900000106,
                    "velocity": 0.5433070866141733,
                    "duration": 0.0862070000000017
                },
                {
                    "name": "D#7",
                    "midi": 99,
                    "time": 86.89665600000106,
                    "velocity": 0.6456692913385826,
                    "duration": 0.0862070000000017
                },
                {
                    "name": "C7",
                    "midi": 96,
                    "time": 86.98286300000106,
                    "velocity": 0.5511811023622047,
                    "duration": 0.0862070000000017
                },
                {
                    "name": "A6",
                    "midi": 93,
                    "time": 87.06907000000106,
                    "velocity": 0.5905511811023622,
                    "duration": 0.0862070000000017
                },
                {
                    "name": "C6",
                    "midi": 84,
                    "time": 87.15527700000106,
                    "velocity": 0.5433070866141733,
                    "duration": 0.0862070000000017
                },
                {
                    "name": "D#6",
                    "midi": 87,
                    "time": 87.24148400000107,
                    "velocity": 0.6377952755905512,
                    "duration": 0.0862070000000017
                },
                {
                    "name": "C6",
                    "midi": 84,
                    "time": 87.32769100000107,
                    "velocity": 0.5511811023622047,
                    "duration": 0.0862070000000017
                },
                {
                    "name": "A5",
                    "midi": 81,
                    "time": 87.41389800000107,
                    "velocity": 0.5826771653543307,
                    "duration": 0.0862070000000017
                },
                {
                    "name": "C5",
                    "midi": 72,
                    "time": 87.50010500000107,
                    "velocity": 0.5511811023622047,
                    "duration": 0.0862070000000017
                },
                {
                    "name": "D#5",
                    "midi": 75,
                    "time": 87.58631200000107,
                    "velocity": 0.6220472440944882,
                    "duration": 0.0862070000000017
                },
                {
                    "name": "B4",
                    "midi": 71,
                    "time": 87.67251900000107,
                    "velocity": 0.5511811023622047,
                    "duration": 0.0862070000000017
                },
                {
                    "name": "A4",
                    "midi": 69,
                    "time": 87.75872600000108,
                    "velocity": 0.5590551181102362,
                    "duration": 0.0862070000000017
                },
                {
                    "name": "B3",
                    "midi": 59,
                    "time": 87.84493300000108,
                    "velocity": 0.5275590551181102,
                    "duration": 0.0862070000000017
                },
                {
                    "name": "D#4",
                    "midi": 63,
                    "time": 87.93114000000108,
                    "velocity": 0.6141732283464567,
                    "duration": 0.0862070000000017
                },
                {
                    "name": "B3",
                    "midi": 59,
                    "time": 88.01734700000108,
                    "velocity": 0.5275590551181102,
                    "duration": 0.0862070000000017
                },
                {
                    "name": "E4",
                    "midi": 64,
                    "time": 88.62079600000108,
                    "velocity": 0.5826771653543307,
                    "duration": 0.0862070000000017
                },
                {
                    "name": "B3",
                    "midi": 59,
                    "time": 88.70700300000108,
                    "velocity": 0.5196850393700787,
                    "duration": 0.0862070000000017
                },
                {
                    "name": "G#4",
                    "midi": 68,
                    "time": 88.79321000000108,
                    "velocity": 0.5511811023622047,
                    "duration": 0.0862070000000017
                },
                {
                    "name": "B4",
                    "midi": 71,
                    "time": 88.87941700000108,
                    "velocity": 0.5196850393700787,
                    "duration": 0.0862070000000017
                },
                {
                    "name": "E5",
                    "midi": 76,
                    "time": 88.96562400000109,
                    "velocity": 0.6141732283464567,
                    "duration": 0.0862070000000017
                },
                {
                    "name": "B4",
                    "midi": 71,
                    "time": 89.05183100000109,
                    "velocity": 0.5196850393700787,
                    "duration": 0.0862070000000017
                },
                {
                    "name": "G#5",
                    "midi": 80,
                    "time": 89.13803800000109,
                    "velocity": 0.5590551181102362,
                    "duration": 0.0862070000000017
                },
                {
                    "name": "B5",
                    "midi": 83,
                    "time": 89.22424500000109,
                    "velocity": 0.5275590551181102,
                    "duration": 0.0862070000000017
                },
                {
                    "name": "E6",
                    "midi": 88,
                    "time": 89.31045200000109,
                    "velocity": 0.6299212598425197,
                    "duration": 0.0862070000000017
                },
                {
                    "name": "B5",
                    "midi": 83,
                    "time": 89.3966590000011,
                    "velocity": 0.5354330708661418,
                    "duration": 0.0862070000000017
                },
                {
                    "name": "G#6",
                    "midi": 92,
                    "time": 89.4828660000011,
                    "velocity": 0.5590551181102362,
                    "duration": 0.0862070000000017
                },
                {
                    "name": "B6",
                    "midi": 95,
                    "time": 89.5690730000011,
                    "velocity": 0.5354330708661418,
                    "duration": 0.0862070000000017
                },
                {
                    "name": "E7",
                    "midi": 100,
                    "time": 89.6552800000011,
                    "velocity": 0.6377952755905512,
                    "duration": 0.0862070000000017
                },
                {
                    "name": "B6",
                    "midi": 95,
                    "time": 89.7414870000011,
                    "velocity": 0.5433070866141733,
                    "duration": 0.0862070000000017
                },
                {
                    "name": "G#6",
                    "midi": 92,
                    "time": 89.8276940000011,
                    "velocity": 0.5590551181102362,
                    "duration": 0.0862070000000017
                },
                {
                    "name": "B5",
                    "midi": 83,
                    "time": 89.9139010000011,
                    "velocity": 0.5118110236220472,
                    "duration": 0.0862070000000017
                },
                {
                    "name": "E6",
                    "midi": 88,
                    "time": 90.0001080000011,
                    "velocity": 0.6220472440944882,
                    "duration": 0.0862070000000017
                },
                {
                    "name": "B5",
                    "midi": 83,
                    "time": 90.08631500000111,
                    "velocity": 0.5196850393700787,
                    "duration": 0.0862070000000017
                },
                {
                    "name": "G#5",
                    "midi": 80,
                    "time": 90.17252200000111,
                    "velocity": 0.5433070866141733,
                    "duration": 0.0862070000000017
                },
                {
                    "name": "B4",
                    "midi": 71,
                    "time": 90.25872900000111,
                    "velocity": 0.4881889763779528,
                    "duration": 0.0862070000000017
                },
                {
                    "name": "E5",
                    "midi": 76,
                    "time": 90.34493600000111,
                    "velocity": 0.5905511811023622,
                    "duration": 0.0862070000000017
                },
                {
                    "name": "B4",
                    "midi": 71,
                    "time": 90.43114300000111,
                    "velocity": 0.4881889763779528,
                    "duration": 0.0862070000000017
                },
                {
                    "name": "G#4",
                    "midi": 68,
                    "time": 90.51735000000112,
                    "velocity": 0.5118110236220472,
                    "duration": 0.0862070000000017
                },
                {
                    "name": "B3",
                    "midi": 59,
                    "time": 90.60355700000112,
                    "velocity": 0.47244094488188976,
                    "duration": 0.0862070000000017
                },
                {
                    "name": "E4",
                    "midi": 64,
                    "time": 90.68976400000112,
                    "velocity": 0.5511811023622047,
                    "duration": 0.0862070000000017
                },
                {
                    "name": "B3",
                    "midi": 59,
                    "time": 90.77597100000112,
                    "velocity": 0.4645669291338583,
                    "duration": 0.0862070000000017
                },
                {
                    "name": "F4",
                    "midi": 65,
                    "time": 91.37942000000112,
                    "velocity": 0.4881889763779528,
                    "duration": 0.0862070000000017
                },
                {
                    "name": "D4",
                    "midi": 62,
                    "time": 91.46562700000112,
                    "velocity": 0.3937007874015748,
                    "duration": 0.0862070000000017
                },
                {
                    "name": "A4",
                    "midi": 69,
                    "time": 91.55183400000112,
                    "velocity": 0.4251968503937008,
                    "duration": 0.0862070000000017
                },
                {
                    "name": "C5",
                    "midi": 72,
                    "time": 91.63804100000112,
                    "velocity": 0.4094488188976378,
                    "duration": 0.0862070000000017
                },
                {
                    "name": "F5",
                    "midi": 77,
                    "time": 91.72424800000113,
                    "velocity": 0.49606299212598426,
                    "duration": 0.0862070000000017
                },
                {
                    "name": "D5",
                    "midi": 74,
                    "time": 91.81045500000113,
                    "velocity": 0.4015748031496063,
                    "duration": 0.0862070000000017
                },
                {
                    "name": "A5",
                    "midi": 81,
                    "time": 91.89666200000113,
                    "velocity": 0.4330708661417323,
                    "duration": 0.0862070000000017
                },
                {
                    "name": "C6",
                    "midi": 84,
                    "time": 91.98286900000113,
                    "velocity": 0.4094488188976378,
                    "duration": 0.0862070000000017
                },
                {
                    "name": "F6",
                    "midi": 89,
                    "time": 92.06907600000113,
                    "velocity": 0.49606299212598426,
                    "duration": 0.0862070000000017
                },
                {
                    "name": "D6",
                    "midi": 86,
                    "time": 92.15528300000113,
                    "velocity": 0.41732283464566927,
                    "duration": 0.0862070000000017
                },
                {
                    "name": "A6",
                    "midi": 93,
                    "time": 92.24149000000114,
                    "velocity": 0.4409448818897638,
                    "duration": 0.0862070000000017
                },
                {
                    "name": "C7",
                    "midi": 96,
                    "time": 92.32769700000114,
                    "velocity": 0.41732283464566927,
                    "duration": 0.0862070000000017
                },
                {
                    "name": "F7",
                    "midi": 101,
                    "time": 92.41390400000114,
                    "velocity": 0.5039370078740157,
                    "duration": 0.0862070000000017
                },
                {
                    "name": "B6",
                    "midi": 95,
                    "time": 92.50011100000114,
                    "velocity": 0.41732283464566927,
                    "duration": 0.0862070000000017
                },
                {
                    "name": "G6",
                    "midi": 91,
                    "time": 92.58631800000114,
                    "velocity": 0.44881889763779526,
                    "duration": 0.0862070000000017
                },
                {
                    "name": "D6",
                    "midi": 86,
                    "time": 92.67252500000114,
                    "velocity": 0.4094488188976378,
                    "duration": 0.0862070000000017
                },
                {
                    "name": "F6",
                    "midi": 89,
                    "time": 92.75873200000115,
                    "velocity": 0.49606299212598426,
                    "duration": 0.0862070000000017
                },
                {
                    "name": "D6",
                    "midi": 86,
                    "time": 92.84493900000115,
                    "velocity": 0.3937007874015748,
                    "duration": 0.0862070000000017
                },
                {
                    "name": "G5",
                    "midi": 79,
                    "time": 92.93114600000115,
                    "velocity": 0.4409448818897638,
                    "duration": 0.0862070000000017
                },
                {
                    "name": "D5",
                    "midi": 74,
                    "time": 93.01735300000115,
                    "velocity": 0.4015748031496063,
                    "duration": 0.0862070000000017
                },
                {
                    "name": "F5",
                    "midi": 77,
                    "time": 93.10356000000115,
                    "velocity": 0.4881889763779528,
                    "duration": 0.0862070000000017
                },
                {
                    "name": "B4",
                    "midi": 71,
                    "time": 93.18976700000115,
                    "velocity": 0.4094488188976378,
                    "duration": 0.0862070000000017
                },
                {
                    "name": "G4",
                    "midi": 67,
                    "time": 93.27597400000116,
                    "velocity": 0.4330708661417323,
                    "duration": 0.0862070000000017
                },
                {
                    "name": "D4",
                    "midi": 62,
                    "time": 93.36218100000116,
                    "velocity": 0.4094488188976378,
                    "duration": 0.0862070000000017
                },
                {
                    "name": "F4",
                    "midi": 65,
                    "time": 93.44838800000116,
                    "velocity": 0.4881889763779528,
                    "duration": 0.0862070000000017
                },
                {
                    "name": "B3",
                    "midi": 59,
                    "time": 93.53459500000116,
                    "velocity": 0.3937007874015748,
                    "duration": 0.0862070000000017
                },
                {
                    "name": "E4",
                    "midi": 64,
                    "time": 94.13804400000116,
                    "velocity": 0.49606299212598426,
                    "duration": 0.0862070000000017
                },
                {
                    "name": "C4",
                    "midi": 60,
                    "time": 94.22425100000116,
                    "velocity": 0.41732283464566927,
                    "duration": 0.0862070000000017
                },
                {
                    "name": "G4",
                    "midi": 67,
                    "time": 94.31045800000116,
                    "velocity": 0.44881889763779526,
                    "duration": 0.0862070000000017
                },
                {
                    "name": "C5",
                    "midi": 72,
                    "time": 94.39666500000116,
                    "velocity": 0.4094488188976378,
                    "duration": 0.0862070000000017
                },
                {
                    "name": "E5",
                    "midi": 76,
                    "time": 94.48287200000117,
                    "velocity": 0.5118110236220472,
                    "duration": 0.0862070000000017
                },
                {
                    "name": "C5",
                    "midi": 72,
                    "time": 94.56907900000117,
                    "velocity": 0.4094488188976378,
                    "duration": 0.0862070000000017
                },
                {
                    "name": "A#5",
                    "midi": 82,
                    "time": 94.65528600000117,
                    "velocity": 0.4566929133858268,
                    "duration": 0.0862070000000017
                },
                {
                    "name": "C6",
                    "midi": 84,
                    "time": 94.74149300000117,
                    "velocity": 0.41732283464566927,
                    "duration": 0.0862070000000017
                },
                {
                    "name": "G6",
                    "midi": 91,
                    "time": 94.82770000000117,
                    "velocity": 0.5511811023622047,
                    "duration": 0.0862070000000017
                },
                {
                    "name": "C6",
                    "midi": 84,
                    "time": 94.91390700000117,
                    "velocity": 0.48031496062992124,
                    "duration": 0.0862070000000017
                },
                {
                    "name": "A#5",
                    "midi": 82,
                    "time": 95.00011400000118,
                    "velocity": 0.49606299212598426,
                    "duration": 0.0862070000000017
                },
                {
                    "name": "E5",
                    "midi": 76,
                    "time": 95.08632100000118,
                    "velocity": 0.49606299212598426,
                    "duration": 0.0862070000000017
                },
                {
                    "name": "F#6",
                    "midi": 90,
                    "time": 95.17252800000118,
                    "velocity": 0.5511811023622047,
                    "duration": 0.0862070000000017
                },
                {
                    "name": "C6",
                    "midi": 84,
                    "time": 95.25873500000118,
                    "velocity": 0.48031496062992124,
                    "duration": 0.0862070000000017
                },
                {
                    "name": "A5",
                    "midi": 81,
                    "time": 95.34494200000118,
                    "velocity": 0.49606299212598426,
                    "duration": 0.0862070000000017
                },
                {
                    "name": "D#5",
                    "midi": 75,
                    "time": 95.43114900000118,
                    "velocity": 0.48031496062992124,
                    "duration": 0.0862070000000017
                },
                {
                    "name": "F#5",
                    "midi": 78,
                    "time": 95.51735600000119,
                    "velocity": 0.5354330708661418,
                    "duration": 0.0862070000000017
                },
                {
                    "name": "C5",
                    "midi": 72,
                    "time": 95.60356300000119,
                    "velocity": 0.4881889763779528,
                    "duration": 0.0862070000000017
                },
                {
                    "name": "A4",
                    "midi": 69,
                    "time": 95.68977000000119,
                    "velocity": 0.49606299212598426,
                    "duration": 0.0862070000000017
                },
                {
                    "name": "D#4",
                    "midi": 63,
                    "time": 95.77597700000119,
                    "velocity": 0.48031496062992124,
                    "duration": 0.0862070000000017
                },
                {
                    "name": "F5",
                    "midi": 77,
                    "time": 95.86218400000119,
                    "velocity": 0.5354330708661418,
                    "duration": 0.0862070000000017
                },
                {
                    "name": "B4",
                    "midi": 71,
                    "time": 95.9483910000012,
                    "velocity": 0.47244094488188976,
                    "duration": 0.0862070000000017
                },
                {
                    "name": "G#4",
                    "midi": 68,
                    "time": 96.0345980000012,
                    "velocity": 0.47244094488188976,
                    "duration": 0.0862070000000017
                },
                {
                    "name": "D4",
                    "midi": 62,
                    "time": 96.1208050000012,
                    "velocity": 0.4566929133858268,
                    "duration": 0.0862070000000017
                },
                {
                    "name": "F4",
                    "midi": 65,
                    "time": 96.2070120000012,
                    "velocity": 0.5511811023622047,
                    "duration": 0.0862070000000017
                },
                {
                    "name": "B3",
                    "midi": 59,
                    "time": 96.2932190000012,
                    "velocity": 0.48031496062992124,
                    "duration": 0.0862070000000017
                },
                {
                    "name": "E4",
                    "midi": 64,
                    "time": 96.8966680000012,
                    "velocity": 0.5590551181102362,
                    "duration": 0.0862070000000017
                },
                {
                    "name": "C4",
                    "midi": 60,
                    "time": 96.9828750000012,
                    "velocity": 0.5118110236220472,
                    "duration": 0.0862070000000017
                },
                {
                    "name": "G4",
                    "midi": 67,
                    "time": 97.0690820000012,
                    "velocity": 0.5433070866141733,
                    "duration": 0.0862070000000017
                },
                {
                    "name": "C5",
                    "midi": 72,
                    "time": 97.1552890000012,
                    "velocity": 0.5118110236220472,
                    "duration": 0.0862070000000017
                },
                {
                    "name": "G5",
                    "midi": 79,
                    "time": 97.2414960000012,
                    "velocity": 0.5905511811023622,
                    "duration": 0.0862070000000017
                },
                {
                    "name": "E5",
                    "midi": 76,
                    "time": 97.32770300000121,
                    "velocity": 0.5275590551181102,
                    "duration": 0.0862070000000017
                },
                {
                    "name": "G5",
                    "midi": 79,
                    "time": 97.41391000000121,
                    "velocity": 0.5748031496062992,
                    "duration": 0.0862070000000017
                },
                {
                    "name": "C6",
                    "midi": 84,
                    "time": 97.50011700000121,
                    "velocity": 0.5354330708661418,
                    "duration": 0.0862070000000017
                },
                {
                    "name": "E6",
                    "midi": 88,
                    "time": 97.58632400000121,
                    "velocity": 0.6299212598425197,
                    "duration": 0.0862070000000017
                },
                {
                    "name": "C6",
                    "midi": 84,
                    "time": 97.67253100000121,
                    "velocity": 0.5669291338582677,
                    "duration": 0.0862070000000017
                },
                {
                    "name": "G5",
                    "midi": 79,
                    "time": 97.75873800000122,
                    "velocity": 0.6062992125984252,
                    "duration": 0.0862070000000017
                },
                {
                    "name": "C5",
                    "midi": 72,
                    "time": 97.84494500000122,
                    "velocity": 0.5748031496062992,
                    "duration": 0.0862070000000017
                },
                {
                    "name": "D#6",
                    "midi": 87,
                    "time": 97.93115200000122,
                    "velocity": 0.6771653543307087,
                    "duration": 0.0862070000000017
                },
                {
                    "name": "A5",
                    "midi": 81,
                    "time": 98.01735900000122,
                    "velocity": 0.5905511811023622,
                    "duration": 0.0862070000000017
                },
                {
                    "name": "F#5",
                    "midi": 78,
                    "time": 98.10356600000122,
                    "velocity": 0.6220472440944882,
                    "duration": 0.0862070000000017
                },
                {
                    "name": "C5",
                    "midi": 72,
                    "time": 98.18977300000122,
                    "velocity": 0.5748031496062992,
                    "duration": 0.0862070000000017
                },
                {
                    "name": "D#5",
                    "midi": 75,
                    "time": 98.27598000000123,
                    "velocity": 0.6614173228346457,
                    "duration": 0.0862070000000017
                },
                {
                    "name": "A4",
                    "midi": 69,
                    "time": 98.36218700000123,
                    "velocity": 0.5511811023622047,
                    "duration": 0.0862070000000017
                },
                {
                    "name": "F#4",
                    "midi": 66,
                    "time": 98.44839400000123,
                    "velocity": 0.5984251968503937,
                    "duration": 0.0862070000000017
                },
                {
                    "name": "C4",
                    "midi": 60,
                    "time": 98.53460100000123,
                    "velocity": 0.5590551181102362,
                    "duration": 0.0862070000000017
                },
                {
                    "name": "D5",
                    "midi": 74,
                    "time": 98.62080800000123,
                    "velocity": 0.6299212598425197,
                    "duration": 0.0862070000000017
                },
                {
                    "name": "G#4",
                    "midi": 68,
                    "time": 98.70701500000123,
                    "velocity": 0.5511811023622047,
                    "duration": 0.0862070000000017
                },
                {
                    "name": "F4",
                    "midi": 65,
                    "time": 98.79322200000124,
                    "velocity": 0.5669291338582677,
                    "duration": 0.0862070000000017
                },
                {
                    "name": "B3",
                    "midi": 59,
                    "time": 98.87942900000124,
                    "velocity": 0.5354330708661418,
                    "duration": 0.0862070000000017
                },
                {
                    "name": "D4",
                    "midi": 62,
                    "time": 98.96563600000124,
                    "velocity": 0.6299212598425197,
                    "duration": 0.0862070000000017
                },
                {
                    "name": "E4",
                    "midi": 64,
                    "time": 99.82770600000124,
                    "velocity": 0.5433070866141733,
                    "duration": 0.0862070000000017
                },
                {
                    "name": "G4",
                    "midi": 67,
                    "time": 99.91391300000124,
                    "velocity": 0.5039370078740157,
                    "duration": 0.0862070000000017
                },
                {
                    "name": "C#5",
                    "midi": 73,
                    "time": 100.00012000000125,
                    "velocity": 0.5905511811023622,
                    "duration": 0.0862070000000017
                },
                {
                    "name": "A#4",
                    "midi": 70,
                    "time": 100.08632700000125,
                    "velocity": 0.5196850393700787,
                    "duration": 0.0862070000000017
                },
                {
                    "name": "E5",
                    "midi": 76,
                    "time": 100.17253400000125,
                    "velocity": 0.5748031496062992,
                    "duration": 0.0862070000000017
                },
                {
                    "name": "G5",
                    "midi": 79,
                    "time": 100.25874100000125,
                    "velocity": 0.5433070866141733,
                    "duration": 0.0862070000000017
                },
                {
                    "name": "C#6",
                    "midi": 85,
                    "time": 100.34494800000125,
                    "velocity": 0.6299212598425197,
                    "duration": 0.0862070000000017
                },
                {
                    "name": "A#5",
                    "midi": 82,
                    "time": 100.43115500000125,
                    "velocity": 0.5590551181102362,
                    "duration": 0.0862070000000017
                },
                {
                    "name": "E6",
                    "midi": 88,
                    "time": 100.51736200000126,
                    "velocity": 0.6062992125984252,
                    "duration": 0.0862070000000017
                },
                {
                    "name": "G6",
                    "midi": 91,
                    "time": 100.60356900000126,
                    "velocity": 0.5748031496062992,
                    "duration": 0.0862070000000017
                },
                {
                    "name": "C#7",
                    "midi": 97,
                    "time": 100.68977600000126,
                    "velocity": 0.6614173228346457,
                    "duration": 0.0862070000000017
                },
                {
                    "name": "F#6",
                    "midi": 90,
                    "time": 100.77598300000126,
                    "velocity": 0.5905511811023622,
                    "duration": 0.0862070000000017
                },
                {
                    "name": "D#6",
                    "midi": 87,
                    "time": 100.86219000000126,
                    "velocity": 0.6220472440944882,
                    "duration": 0.0862070000000017
                },
                {
                    "name": "A5",
                    "midi": 81,
                    "time": 100.94839700000126,
                    "velocity": 0.5669291338582677,
                    "duration": 0.0862070000000017
                },
                {
                    "name": "C#6",
                    "midi": 85,
                    "time": 101.03460400000127,
                    "velocity": 0.6456692913385826,
                    "duration": 0.0862070000000017
                },
                {
                    "name": "F#5",
                    "midi": 78,
                    "time": 101.12081100000127,
                    "velocity": 0.5590551181102362,
                    "duration": 0.0862070000000017
                },
                {
                    "name": "D#5",
                    "midi": 75,
                    "time": 101.20701800000127,
                    "velocity": 0.5984251968503937,
                    "duration": 0.0862070000000017
                },
                {
                    "name": "A4",
                    "midi": 69,
                    "time": 101.29322500000127,
                    "velocity": 0.5433070866141733,
                    "duration": 0.0862070000000017
                },
                {
                    "name": "C#5",
                    "midi": 73,
                    "time": 101.37943200000127,
                    "velocity": 0.6377952755905512,
                    "duration": 0.0862070000000017
                },
                {
                    "name": "F#4",
                    "midi": 66,
                    "time": 101.46563900000127,
                    "velocity": 0.5354330708661418,
                    "duration": 0.0862070000000017
                },
                {
                    "name": "D#4",
                    "midi": 63,
                    "time": 101.55184600000128,
                    "velocity": 0.5669291338582677,
                    "duration": 0.0862070000000017
                },
                {
                    "name": "A3",
                    "midi": 57,
                    "time": 101.63805300000128,
                    "velocity": 0.5354330708661418,
                    "duration": 0.0862070000000017
                },
                {
                    "name": "C5",
                    "midi": 72,
                    "time": 101.72426000000128,
                    "velocity": 0.6141732283464567,
                    "duration": 0.0862070000000017
                },
                {
                    "name": "F#4",
                    "midi": 66,
                    "time": 101.81046700000128,
                    "velocity": 0.5118110236220472,
                    "duration": 0.0862070000000017
                },
                {
                    "name": "D#4",
                    "midi": 63,
                    "time": 101.89667400000128,
                    "velocity": 0.5433070866141733,
                    "duration": 0.0862070000000017
                },
                {
                    "name": "A3",
                    "midi": 57,
                    "time": 101.98288100000129,
                    "velocity": 0.5039370078740157,
                    "duration": 0.0862070000000017
                },
                {
                    "name": "G#3",
                    "midi": 56,
                    "time": 102.15529500000129,
                    "velocity": 0.5354330708661418,
                    "duration": 0.0862070000000017
                },
                {
                    "name": "D4",
                    "midi": 62,
                    "time": 102.24150200000129,
                    "velocity": 0.5039370078740157,
                    "duration": 0.0862070000000017
                },
                {
                    "name": "F4",
                    "midi": 65,
                    "time": 102.32770900000129,
                    "velocity": 0.5433070866141733,
                    "duration": 0.0862070000000017
                },
                {
                    "name": "C5",
                    "midi": 72,
                    "time": 102.4139160000013,
                    "velocity": 0.5984251968503937,
                    "duration": 0.0862070000000017
                },
                {
                    "name": "G#4",
                    "midi": 68,
                    "time": 102.5001230000013,
                    "velocity": 0.5354330708661418,
                    "duration": 0.0862070000000017
                },
                {
                    "name": "D5",
                    "midi": 74,
                    "time": 102.5863300000013,
                    "velocity": 0.5669291338582677,
                    "duration": 0.0862070000000017
                },
                {
                    "name": "F5",
                    "midi": 77,
                    "time": 102.6725370000013,
                    "velocity": 0.5433070866141733,
                    "duration": 0.0862070000000017
                },
                {
                    "name": "C6",
                    "midi": 84,
                    "time": 102.7587440000013,
                    "velocity": 0.6141732283464567,
                    "duration": 0.0862070000000017
                },
                {
                    "name": "G#5",
                    "midi": 80,
                    "time": 102.8449510000013,
                    "velocity": 0.5590551181102362,
                    "duration": 0.0862070000000017
                },
                {
                    "name": "D6",
                    "midi": 86,
                    "time": 102.9311580000013,
                    "velocity": 0.5905511811023622,
                    "duration": 0.0862070000000017
                },
                {
                    "name": "F6",
                    "midi": 89,
                    "time": 103.0173650000013,
                    "velocity": 0.5669291338582677,
                    "duration": 0.0862070000000017
                },
                {
                    "name": "C7",
                    "midi": 96,
                    "time": 103.10357200000131,
                    "velocity": 0.6377952755905512,
                    "duration": 0.0862070000000017
                },
                {
                    "name": "F6",
                    "midi": 89,
                    "time": 103.18977900000131,
                    "velocity": 0.5826771653543307,
                    "duration": 0.0862070000000017
                },
                {
                    "name": "D6",
                    "midi": 86,
                    "time": 103.27598600000131,
                    "velocity": 0.6141732283464567,
                    "duration": 0.0862070000000017
                },
                {
                    "name": "G#5",
                    "midi": 80,
                    "time": 103.36219300000131,
                    "velocity": 0.5826771653543307,
                    "duration": 0.0862070000000017
                },
                {
                    "name": "B6",
                    "midi": 95,
                    "time": 103.44840000000131,
                    "velocity": 0.6771653543307087,
                    "duration": 0.0862070000000017
                },
                {
                    "name": "F6",
                    "midi": 89,
                    "time": 103.53460700000132,
                    "velocity": 0.5826771653543307,
                    "duration": 0.0862070000000017
                },
                {
                    "name": "D6",
                    "midi": 86,
                    "time": 103.62081400000132,
                    "velocity": 0.6220472440944882,
                    "duration": 0.0862070000000017
                },
                {
                    "name": "G5",
                    "midi": 79,
                    "time": 103.70702100000132,
                    "velocity": 0.5826771653543307,
                    "duration": 0.0862070000000017
                },
                {
                    "name": "B5",
                    "midi": 83,
                    "time": 103.79322800000132,
                    "velocity": 0.6377952755905512,
                    "duration": 0.0862070000000017
                },
                {
                    "name": "F5",
                    "midi": 77,
                    "time": 103.87943500000132,
                    "velocity": 0.5748031496062992,
                    "duration": 0.0862070000000017
                },
                {
                    "name": "D5",
                    "midi": 74,
                    "time": 103.96564200000132,
                    "velocity": 0.5984251968503937,
                    "duration": 0.0862070000000017
                },
                {
                    "name": "G4",
                    "midi": 67,
                    "time": 104.05184900000133,
                    "velocity": 0.5590551181102362,
                    "duration": 0.0862070000000017
                },
                {
                    "name": "B4",
                    "midi": 71,
                    "time": 104.13805600000133,
                    "velocity": 0.6062992125984252,
                    "duration": 0.0862070000000017
                },
                {
                    "name": "F4",
                    "midi": 65,
                    "time": 104.22426300000133,
                    "velocity": 0.5433070866141733,
                    "duration": 0.0862070000000017
                },
                {
                    "name": "D4",
                    "midi": 62,
                    "time": 104.31047000000133,
                    "velocity": 0.5748031496062992,
                    "duration": 0.0862070000000017
                },
                {
                    "name": "E4",
                    "midi": 64,
                    "time": 105.34495400000134,
                    "velocity": 0.5669291338582677,
                    "duration": 0.0862070000000017
                },
                {
                    "name": "G4",
                    "midi": 67,
                    "time": 105.43116100000134,
                    "velocity": 0.5354330708661418,
                    "duration": 0.0862070000000017
                },
                {
                    "name": "C5",
                    "midi": 72,
                    "time": 105.51736800000134,
                    "velocity": 0.6535433070866141,
                    "duration": 0.0862070000000017
                },
                {
                    "name": "G4",
                    "midi": 67,
                    "time": 105.60357500000134,
                    "velocity": 0.5511811023622047,
                    "duration": 0.0862070000000017
                },
                {
                    "name": "E5",
                    "midi": 76,
                    "time": 105.68978200000134,
                    "velocity": 0.5905511811023622,
                    "duration": 0.0862070000000017
                },
                {
                    "name": "G5",
                    "midi": 79,
                    "time": 105.77598900000135,
                    "velocity": 0.5669291338582677,
                    "duration": 0.0862070000000017
                },
                {
                    "name": "C6",
                    "midi": 84,
                    "time": 105.86219600000135,
                    "velocity": 0.6850393700787402,
                    "duration": 0.0862070000000017
                },
                {
                    "name": "G5",
                    "midi": 79,
                    "time": 105.94840300000135,
                    "velocity": 0.5669291338582677,
                    "duration": 0.0862070000000017
                },
                {
                    "name": "E6",
                    "midi": 88,
                    "time": 106.03461000000135,
                    "velocity": 0.6141732283464567,
                    "duration": 0.0862070000000017
                },
                {
                    "name": "G6",
                    "midi": 91,
                    "time": 106.12081700000135,
                    "velocity": 0.5905511811023622,
                    "duration": 0.0862070000000017
                },
                {
                    "name": "C7",
                    "midi": 96,
                    "time": 106.20702400000135,
                    "velocity": 0.7165354330708661,
                    "duration": 0.0862070000000017
                },
                {
                    "name": "G6",
                    "midi": 91,
                    "time": 106.29323100000136,
                    "velocity": 0.5905511811023622,
                    "duration": 0.0862070000000017
                },
                {
                    "name": "E6",
                    "midi": 88,
                    "time": 106.37943800000136,
                    "velocity": 0.6299212598425197,
                    "duration": 0.0862070000000017
                },
                {
                    "name": "G5",
                    "midi": 79,
                    "time": 106.46564500000136,
                    "velocity": 0.5905511811023622,
                    "duration": 0.0862070000000017
                },
                {
                    "name": "C6",
                    "midi": 84,
                    "time": 106.55185200000136,
                    "velocity": 0.7165354330708661,
                    "duration": 0.0862070000000017
                },
                {
                    "name": "G5",
                    "midi": 79,
                    "time": 106.63805900000136,
                    "velocity": 0.5748031496062992,
                    "duration": 0.0862070000000017
                },
                {
                    "name": "E5",
                    "midi": 76,
                    "time": 106.72426600000136,
                    "velocity": 0.6141732283464567,
                    "duration": 0.0862070000000017
                },
                {
                    "name": "G4",
                    "midi": 67,
                    "time": 106.81047300000137,
                    "velocity": 0.5826771653543307,
                    "duration": 0.0862070000000017
                },
                {
                    "name": "C5",
                    "midi": 72,
                    "time": 106.89668000000137,
                    "velocity": 0.7007874015748031,
                    "duration": 0.0862070000000017
                },
                {
                    "name": "G4",
                    "midi": 67,
                    "time": 106.98288700000137,
                    "velocity": 0.6062992125984252,
                    "duration": 0.0862070000000017
                },
                {
                    "name": "E4",
                    "midi": 64,
                    "time": 107.06909400000137,
                    "velocity": 0.5590551181102362,
                    "duration": 0.0862070000000017
                }
            ],
            "controlChanges": {
                "7": [
                    {
                        "number": 7,
                        "time": 0,
                        "value": 0.7874015748031497
                    }
                ],
                "10": [
                    {
                        "number": 10,
                        "time": 0,
                        "value": 0.5039370078740157
                    }
                ],
                "91": [
                    {
                        "number": 91,
                        "time": 0,
                        "value": 1
                    }
                ]
            },
            "id": 1,
            "name": "Piano right",
            "instrumentNumber": 0,
            "instrument": "acoustic grand piano",
            "instrumentFamily": "piano",
            "channelNumber": 0,
            "isPercussion": false
        },
        {
            "startTime": 0,
            "duration": 108.9656480000003,
            "length": 349,
            "notes": [
                {
                    "name": "C2",
                    "midi": 36,
                    "time": 0,
                    "velocity": 0.6771653543307087,
                    "duration": 2.7586239999999997
                },
                {
                    "name": "C3",
                    "midi": 48,
                    "time": 0,
                    "velocity": 0.8110236220472441,
                    "duration": 0.17241399999999998
                },
                {
                    "name": "C3",
                    "midi": 48,
                    "time": 0.08620699999999999,
                    "velocity": 0.6062992125984252,
                    "duration": 2.672417
                },
                {
                    "name": "G3",
                    "midi": 55,
                    "time": 0.17241399999999998,
                    "velocity": 0.6299212598425197,
                    "duration": 0.086207
                },
                {
                    "name": "C4",
                    "midi": 60,
                    "time": 0.258621,
                    "velocity": 0.6062992125984252,
                    "duration": 0.08620699999999998
                },
                {
                    "name": "G3",
                    "midi": 55,
                    "time": 2.58621,
                    "velocity": 0.6299212598425197,
                    "duration": 0.08620699999999992
                },
                {
                    "name": "C3",
                    "midi": 48,
                    "time": 2.672417,
                    "velocity": 0.6062992125984252,
                    "duration": 0.08620699999999992
                },
                {
                    "name": "F1",
                    "midi": 29,
                    "time": 2.7586239999999997,
                    "velocity": 0.6929133858267716,
                    "duration": 1.379312
                },
                {
                    "name": "F2",
                    "midi": 41,
                    "time": 2.7586239999999997,
                    "velocity": 0.8188976377952756,
                    "duration": 1.379312
                },
                {
                    "name": "C3",
                    "midi": 48,
                    "time": 2.8448309999999997,
                    "velocity": 0.6299212598425197,
                    "duration": 0.08620699999999992
                },
                {
                    "name": "A3",
                    "midi": 57,
                    "time": 2.9310379999999996,
                    "velocity": 0.6299212598425197,
                    "duration": 0.08620699999999992
                },
                {
                    "name": "C4",
                    "midi": 60,
                    "time": 3.0172449999999995,
                    "velocity": 0.6062992125984252,
                    "duration": 0.08620699999999992
                },
                {
                    "name": "F#1",
                    "midi": 30,
                    "time": 4.137936,
                    "velocity": 0.6692913385826772,
                    "duration": 1.3793119999999996
                },
                {
                    "name": "F#2",
                    "midi": 42,
                    "time": 4.137936,
                    "velocity": 0.7952755905511811,
                    "duration": 1.3793119999999996
                },
                {
                    "name": "A3",
                    "midi": 57,
                    "time": 5.344834,
                    "velocity": 0.6299212598425197,
                    "duration": 0.08620699999999992
                },
                {
                    "name": "C3",
                    "midi": 48,
                    "time": 5.431041,
                    "velocity": 0.6062992125984252,
                    "duration": 0.08620699999999992
                },
                {
                    "name": "G1",
                    "midi": 31,
                    "time": 5.5172479999999995,
                    "velocity": 0.6692913385826772,
                    "duration": 0.6896559999999994
                },
                {
                    "name": "G2",
                    "midi": 43,
                    "time": 5.5172479999999995,
                    "velocity": 0.7952755905511811,
                    "duration": 0.6896559999999994
                },
                {
                    "name": "B2",
                    "midi": 47,
                    "time": 5.603454999999999,
                    "velocity": 0.6299212598425197,
                    "duration": 0.08620699999999992
                },
                {
                    "name": "G3",
                    "midi": 55,
                    "time": 5.689661999999999,
                    "velocity": 0.6062992125984252,
                    "duration": 0.08620699999999992
                },
                {
                    "name": "B3",
                    "midi": 59,
                    "time": 5.775868999999999,
                    "velocity": 0.6299212598425197,
                    "duration": 0.08620699999999992
                },
                {
                    "name": "F#1",
                    "midi": 30,
                    "time": 6.206903999999999,
                    "velocity": 0.6771653543307087,
                    "duration": 0.3448279999999997
                },
                {
                    "name": "F#2",
                    "midi": 42,
                    "time": 6.206903999999999,
                    "velocity": 0.8031496062992126,
                    "duration": 0.3448279999999997
                },
                {
                    "name": "E1",
                    "midi": 28,
                    "time": 6.551731999999999,
                    "velocity": 0.6456692913385826,
                    "duration": 0.3448279999999997
                },
                {
                    "name": "E2",
                    "midi": 40,
                    "time": 6.551731999999999,
                    "velocity": 0.7637795275590551,
                    "duration": 0.3448279999999997
                },
                {
                    "name": "D1",
                    "midi": 26,
                    "time": 6.896559999999998,
                    "velocity": 0.6771653543307087,
                    "duration": 1.3793119999999996
                },
                {
                    "name": "D2",
                    "midi": 38,
                    "time": 6.896559999999998,
                    "velocity": 0.8031496062992126,
                    "duration": 1.3793119999999996
                },
                {
                    "name": "A3",
                    "midi": 57,
                    "time": 8.017250999999998,
                    "velocity": 0.6299212598425197,
                    "duration": 0.08620699999999992
                },
                {
                    "name": "F#3",
                    "midi": 54,
                    "time": 8.103457999999998,
                    "velocity": 0.6299212598425197,
                    "duration": 0.08620699999999992
                },
                {
                    "name": "C3",
                    "midi": 48,
                    "time": 8.189664999999998,
                    "velocity": 0.6299212598425197,
                    "duration": 0.08620699999999992
                },
                {
                    "name": "G1",
                    "midi": 31,
                    "time": 8.275871999999998,
                    "velocity": 0.6692913385826772,
                    "duration": 2.7586239999999993
                },
                {
                    "name": "G2",
                    "midi": 43,
                    "time": 8.275871999999998,
                    "velocity": 0.7952755905511811,
                    "duration": 2.7586239999999993
                },
                {
                    "name": "C3",
                    "midi": 48,
                    "time": 8.362078999999998,
                    "velocity": 0.6062992125984252,
                    "duration": 0.08620699999999992
                },
                {
                    "name": "F3",
                    "midi": 53,
                    "time": 8.448285999999998,
                    "velocity": 0.6299212598425197,
                    "duration": 0.08620699999999992
                },
                {
                    "name": "G#3",
                    "midi": 56,
                    "time": 8.534492999999998,
                    "velocity": 0.6062992125984252,
                    "duration": 0.08620699999999992
                },
                {
                    "name": "G3",
                    "midi": 55,
                    "time": 10.775874999999997,
                    "velocity": 0.6062992125984252,
                    "duration": 0.08620699999999992
                },
                {
                    "name": "F3",
                    "midi": 53,
                    "time": 10.862081999999997,
                    "velocity": 0.6299212598425197,
                    "duration": 0.08620699999999992
                },
                {
                    "name": "B2",
                    "midi": 47,
                    "time": 10.948288999999997,
                    "velocity": 0.6062992125984252,
                    "duration": 0.08620699999999992
                },
                {
                    "name": "C2",
                    "midi": 36,
                    "time": 11.034495999999997,
                    "velocity": 0.6692913385826772,
                    "duration": 2.7586239999999993
                },
                {
                    "name": "C3",
                    "midi": 48,
                    "time": 11.034495999999997,
                    "velocity": 0.7952755905511811,
                    "duration": 0.17241399999999985
                },
                {
                    "name": "C3",
                    "midi": 48,
                    "time": 11.120702999999997,
                    "velocity": 0.5984251968503937,
                    "duration": 2.6724169999999994
                },
                {
                    "name": "G3",
                    "midi": 55,
                    "time": 11.206909999999997,
                    "velocity": 0.6299212598425197,
                    "duration": 0.08620699999999992
                },
                {
                    "name": "C4",
                    "midi": 60,
                    "time": 11.293116999999997,
                    "velocity": 0.5984251968503937,
                    "duration": 0.08620699999999992
                },
                {
                    "name": "G3",
                    "midi": 55,
                    "time": 13.620705999999997,
                    "velocity": 0.6299212598425197,
                    "duration": 0.08620699999999992
                },
                {
                    "name": "C3",
                    "midi": 48,
                    "time": 13.706912999999997,
                    "velocity": 0.6062992125984252,
                    "duration": 0.08620699999999992
                },
                {
                    "name": "A1",
                    "midi": 33,
                    "time": 13.793119999999996,
                    "velocity": 0.6771653543307087,
                    "duration": 2.758624000000003
                },
                {
                    "name": "A2",
                    "midi": 45,
                    "time": 13.793119999999996,
                    "velocity": 0.8110236220472441,
                    "duration": 2.758624000000003
                },
                {
                    "name": "C3",
                    "midi": 48,
                    "time": 13.879326999999996,
                    "velocity": 0.6062992125984252,
                    "duration": 0.08620699999999992
                },
                {
                    "name": "F3",
                    "midi": 53,
                    "time": 13.965533999999996,
                    "velocity": 0.6299212598425197,
                    "duration": 0.08620699999999992
                },
                {
                    "name": "C4",
                    "midi": 60,
                    "time": 14.051740999999996,
                    "velocity": 0.6062992125984252,
                    "duration": 0.08620699999999992
                },
                {
                    "name": "F#3",
                    "midi": 54,
                    "time": 16.379329999999996,
                    "velocity": 0.6299212598425197,
                    "duration": 0.0862070000000017
                },
                {
                    "name": "C3",
                    "midi": 48,
                    "time": 16.465536999999998,
                    "velocity": 0.6062992125984252,
                    "duration": 0.0862070000000017
                },
                {
                    "name": "G1",
                    "midi": 31,
                    "time": 16.551744,
                    "velocity": 0.6377952755905512,
                    "duration": 2.7586240000000117
                },
                {
                    "name": "G2",
                    "midi": 43,
                    "time": 16.551744,
                    "velocity": 0.7559055118110236,
                    "duration": 2.7586240000000117
                },
                {
                    "name": "C3",
                    "midi": 48,
                    "time": 16.637951,
                    "velocity": 0.5748031496062992,
                    "duration": 0.0862070000000017
                },
                {
                    "name": "G3",
                    "midi": 55,
                    "time": 16.724158000000003,
                    "velocity": 0.5984251968503937,
                    "duration": 0.0862070000000017
                },
                {
                    "name": "C4",
                    "midi": 60,
                    "time": 16.810365000000004,
                    "velocity": 0.5826771653543307,
                    "duration": 0.0862070000000017
                },
                {
                    "name": "G3",
                    "midi": 55,
                    "time": 19.137954000000008,
                    "velocity": 0.5984251968503937,
                    "duration": 0.0862070000000017
                },
                {
                    "name": "B2",
                    "midi": 47,
                    "time": 19.22416100000001,
                    "velocity": 0.5590551181102362,
                    "duration": 0.0862070000000017
                },
                {
                    "name": "C2",
                    "midi": 36,
                    "time": 19.31036800000001,
                    "velocity": 0.6377952755905512,
                    "duration": 2.7586240000000117
                },
                {
                    "name": "C3",
                    "midi": 48,
                    "time": 19.31036800000001,
                    "velocity": 0.7559055118110236,
                    "duration": 2.7586240000000117
                },
                {
                    "name": "D3",
                    "midi": 50,
                    "time": 19.396575000000013,
                    "velocity": 0.5984251968503937,
                    "duration": 0.0862070000000017
                },
                {
                    "name": "G3",
                    "midi": 55,
                    "time": 19.482782000000014,
                    "velocity": 0.5748031496062992,
                    "duration": 0.0862070000000017
                },
                {
                    "name": "D4",
                    "midi": 62,
                    "time": 19.568989000000016,
                    "velocity": 0.5984251968503937,
                    "duration": 0.0862070000000017
                },
                {
                    "name": "G3",
                    "midi": 55,
                    "time": 21.89657800000002,
                    "velocity": 0.5275590551181102,
                    "duration": 0.0862070000000017
                },
                {
                    "name": "C3",
                    "midi": 48,
                    "time": 21.98278500000002,
                    "velocity": 0.47244094488188976,
                    "duration": 0.0862070000000017
                },
                {
                    "name": "A1",
                    "midi": 33,
                    "time": 22.068992000000023,
                    "velocity": 0.4566929133858268,
                    "duration": 1.3793120000000059
                },
                {
                    "name": "A2",
                    "midi": 45,
                    "time": 22.068992000000023,
                    "velocity": 0.5433070866141733,
                    "duration": 1.3793120000000059
                },
                {
                    "name": "E3",
                    "midi": 52,
                    "time": 22.155199000000025,
                    "velocity": 0.3937007874015748,
                    "duration": 0.0862070000000017
                },
                {
                    "name": "C4",
                    "midi": 60,
                    "time": 22.241406000000026,
                    "velocity": 0.4251968503937008,
                    "duration": 0.0862070000000017
                },
                {
                    "name": "B1",
                    "midi": 35,
                    "time": 23.44830400000003,
                    "velocity": 0.4566929133858268,
                    "duration": 0.6896559999999994
                },
                {
                    "name": "B2",
                    "midi": 47,
                    "time": 23.44830400000003,
                    "velocity": 0.5433070866141733,
                    "duration": 0.6896559999999994
                },
                {
                    "name": "A1",
                    "midi": 33,
                    "time": 24.137960000000028,
                    "velocity": 0.4566929133858268,
                    "duration": 0.6896560000000029
                },
                {
                    "name": "A2",
                    "midi": 45,
                    "time": 24.137960000000028,
                    "velocity": 0.5433070866141733,
                    "duration": 0.6896560000000029
                },
                {
                    "name": "D3",
                    "midi": 50,
                    "time": 24.74140900000003,
                    "velocity": 0.4015748031496063,
                    "duration": 0.0862070000000017
                },
                {
                    "name": "G#1",
                    "midi": 32,
                    "time": 24.82761600000003,
                    "velocity": 0.4566929133858268,
                    "duration": 1.3793120000000059
                },
                {
                    "name": "G#2",
                    "midi": 44,
                    "time": 24.82761600000003,
                    "velocity": 0.5433070866141733,
                    "duration": 1.3793120000000059
                },
                {
                    "name": "D3",
                    "midi": 50,
                    "time": 24.913823000000033,
                    "velocity": 0.4015748031496063,
                    "duration": 0.0862070000000017
                },
                {
                    "name": "B3",
                    "midi": 59,
                    "time": 25.000030000000034,
                    "velocity": 0.4251968503937008,
                    "duration": 0.0862070000000017
                },
                {
                    "name": "D4",
                    "midi": 62,
                    "time": 25.086237000000036,
                    "velocity": 0.4015748031496063,
                    "duration": 0.0862070000000017
                },
                {
                    "name": "A1",
                    "midi": 33,
                    "time": 26.206928000000037,
                    "velocity": 0.47244094488188976,
                    "duration": 0.6896559999999994
                },
                {
                    "name": "A2",
                    "midi": 45,
                    "time": 26.206928000000037,
                    "velocity": 0.5669291338582677,
                    "duration": 0.6896559999999994
                },
                {
                    "name": "G1",
                    "midi": 31,
                    "time": 26.896584000000036,
                    "velocity": 0.5275590551181102,
                    "duration": 0.6896560000000029
                },
                {
                    "name": "G2",
                    "midi": 43,
                    "time": 26.896584000000036,
                    "velocity": 0.6220472440944882,
                    "duration": 0.6896560000000029
                },
                {
                    "name": "A3",
                    "midi": 57,
                    "time": 27.413826000000036,
                    "velocity": 0.5433070866141733,
                    "duration": 0.0862070000000017
                },
                {
                    "name": "C3",
                    "midi": 48,
                    "time": 27.500033000000037,
                    "velocity": 0.5039370078740157,
                    "duration": 0.0862070000000017
                },
                {
                    "name": "F1",
                    "midi": 29,
                    "time": 27.58624000000004,
                    "velocity": 0.5984251968503937,
                    "duration": 2.758624000000008
                },
                {
                    "name": "F2",
                    "midi": 41,
                    "time": 27.58624000000004,
                    "velocity": 0.7086614173228346,
                    "duration": 2.758624000000008
                },
                {
                    "name": "C3",
                    "midi": 48,
                    "time": 27.67244700000004,
                    "velocity": 0.5118110236220472,
                    "duration": 0.0862070000000017
                },
                {
                    "name": "A3",
                    "midi": 57,
                    "time": 27.758654000000043,
                    "velocity": 0.5669291338582677,
                    "duration": 0.0862070000000017
                },
                {
                    "name": "C4",
                    "midi": 60,
                    "time": 27.844861000000044,
                    "velocity": 0.5196850393700787,
                    "duration": 0.0862070000000017
                },
                {
                    "name": "B3",
                    "midi": 59,
                    "time": 30.086243000000042,
                    "velocity": 0.44881889763779526,
                    "duration": 0.0862070000000017
                },
                {
                    "name": "A3",
                    "midi": 57,
                    "time": 30.172450000000044,
                    "velocity": 0.4409448818897638,
                    "duration": 0.0862070000000017
                },
                {
                    "name": "B2",
                    "midi": 47,
                    "time": 30.258657000000046,
                    "velocity": 0.4094488188976378,
                    "duration": 0.0862070000000017
                },
                {
                    "name": "E1",
                    "midi": 28,
                    "time": 30.344864000000047,
                    "velocity": 0.44881889763779526,
                    "duration": 2.758624000000001
                },
                {
                    "name": "E2",
                    "midi": 40,
                    "time": 30.344864000000047,
                    "velocity": 0.5354330708661418,
                    "duration": 2.758624000000001
                },
                {
                    "name": "B2",
                    "midi": 47,
                    "time": 30.43107100000005,
                    "velocity": 0.3937007874015748,
                    "duration": 0.0862070000000017
                },
                {
                    "name": "A3",
                    "midi": 57,
                    "time": 30.51727800000005,
                    "velocity": 0.4251968503937008,
                    "duration": 0.0862070000000017
                },
                {
                    "name": "B3",
                    "midi": 59,
                    "time": 30.603485000000052,
                    "velocity": 0.3937007874015748,
                    "duration": 0.0862070000000017
                },
                {
                    "name": "G#3",
                    "midi": 56,
                    "time": 32.93107400000005,
                    "velocity": 0.4251968503937008,
                    "duration": 0.0862070000000017
                },
                {
                    "name": "B2",
                    "midi": 47,
                    "time": 33.017281000000054,
                    "velocity": 0.3858267716535433,
                    "duration": 0.0862069999999946
                },
                {
                    "name": "A1",
                    "midi": 33,
                    "time": 33.10348800000005,
                    "velocity": 0.44881889763779526,
                    "duration": 1.3793120000000059
                },
                {
                    "name": "A2",
                    "midi": 45,
                    "time": 33.10348800000005,
                    "velocity": 0.5354330708661418,
                    "duration": 1.3793120000000059
                },
                {
                    "name": "E3",
                    "midi": 52,
                    "time": 33.18969500000005,
                    "velocity": 0.3937007874015748,
                    "duration": 0.0862070000000017
                },
                {
                    "name": "A3",
                    "midi": 57,
                    "time": 33.27590200000005,
                    "velocity": 0.4251968503937008,
                    "duration": 0.0862070000000017
                },
                {
                    "name": "C#4",
                    "midi": 61,
                    "time": 33.36210900000005,
                    "velocity": 0.3937007874015748,
                    "duration": 0.0862070000000017
                },
                {
                    "name": "D2",
                    "midi": 38,
                    "time": 34.482800000000054,
                    "velocity": 0.4566929133858268,
                    "duration": 1.3793120000000059
                },
                {
                    "name": "D3",
                    "midi": 50,
                    "time": 34.482800000000054,
                    "velocity": 0.5433070866141733,
                    "duration": 1.3793120000000059
                },
                {
                    "name": "A3",
                    "midi": 57,
                    "time": 35.34487000000006,
                    "velocity": 0.44881889763779526,
                    "duration": 0.0862070000000017
                },
                {
                    "name": "E3",
                    "midi": 52,
                    "time": 35.43107700000006,
                    "velocity": 0.41732283464566927,
                    "duration": 0.0862070000000017
                },
                {
                    "name": "A3",
                    "midi": 57,
                    "time": 35.689698000000064,
                    "velocity": 0.4409448818897638,
                    "duration": 0.0862070000000017
                },
                {
                    "name": "D3",
                    "midi": 50,
                    "time": 35.775905000000066,
                    "velocity": 0.4094488188976378,
                    "duration": 0.0862069999999946
                },
                {
                    "name": "G1",
                    "midi": 31,
                    "time": 35.86211200000006,
                    "velocity": 0.5275590551181102,
                    "duration": 2.7586240000000117
                },
                {
                    "name": "G2",
                    "midi": 43,
                    "time": 35.86211200000006,
                    "velocity": 0.6299212598425197,
                    "duration": 2.7586240000000117
                },
                {
                    "name": "D3",
                    "midi": 50,
                    "time": 35.94831900000006,
                    "velocity": 0.4645669291338583,
                    "duration": 0.0862070000000017
                },
                {
                    "name": "G3",
                    "midi": 55,
                    "time": 36.034526000000064,
                    "velocity": 0.5039370078740157,
                    "duration": 0.0862070000000017
                },
                {
                    "name": "C4",
                    "midi": 60,
                    "time": 36.120733000000065,
                    "velocity": 0.47244094488188976,
                    "duration": 0.0862070000000017
                },
                {
                    "name": "B3",
                    "midi": 59,
                    "time": 38.362115000000074,
                    "velocity": 0.4881889763779528,
                    "duration": 0.0862070000000017
                },
                {
                    "name": "G3",
                    "midi": 55,
                    "time": 38.448322000000076,
                    "velocity": 0.5275590551181102,
                    "duration": 0.0862070000000017
                },
                {
                    "name": "D3",
                    "midi": 50,
                    "time": 38.53452900000008,
                    "velocity": 0.5039370078740157,
                    "duration": 0.0862069999999946
                },
                {
                    "name": "C2",
                    "midi": 36,
                    "time": 38.62073600000007,
                    "velocity": 0.6299212598425197,
                    "duration": 1.3793120000000059
                },
                {
                    "name": "C3",
                    "midi": 48,
                    "time": 38.62073600000007,
                    "velocity": 0.7480314960629921,
                    "duration": 0.1724140000000034
                },
                {
                    "name": "C3",
                    "midi": 48,
                    "time": 38.706943000000074,
                    "velocity": 0.5590551181102362,
                    "duration": 1.2931050000000042
                },
                {
                    "name": "G3",
                    "midi": 55,
                    "time": 38.793150000000075,
                    "velocity": 0.5984251968503937,
                    "duration": 0.0862070000000017
                },
                {
                    "name": "A#3",
                    "midi": 58,
                    "time": 38.87935700000008,
                    "velocity": 0.5669291338582677,
                    "duration": 0.0862070000000017
                },
                {
                    "name": "F#1",
                    "midi": 30,
                    "time": 40.00004800000008,
                    "velocity": 0.6377952755905512,
                    "duration": 1.3793119999999917
                },
                {
                    "name": "F#2",
                    "midi": 42,
                    "time": 40.00004800000008,
                    "velocity": 0.7559055118110236,
                    "duration": 1.3793119999999917
                },
                {
                    "name": "D#3",
                    "midi": 51,
                    "time": 41.20694600000007,
                    "velocity": 0.5984251968503937,
                    "duration": 0.0862070000000017
                },
                {
                    "name": "C3",
                    "midi": 48,
                    "time": 41.293153000000075,
                    "velocity": 0.5669291338582677,
                    "duration": 0.0862069999999946
                },
                {
                    "name": "F1",
                    "midi": 29,
                    "time": 41.37936000000007,
                    "velocity": 0.6377952755905512,
                    "duration": 1.3793119999999988
                },
                {
                    "name": "F2",
                    "midi": 41,
                    "time": 41.37936000000007,
                    "velocity": 0.7637795275590551,
                    "duration": 1.3793119999999988
                },
                {
                    "name": "C3",
                    "midi": 48,
                    "time": 41.465567000000064,
                    "velocity": 0.5669291338582677,
                    "duration": 0.0862070000000017
                },
                {
                    "name": "D#3",
                    "midi": 51,
                    "time": 41.551774000000066,
                    "velocity": 0.5984251968503937,
                    "duration": 0.0862070000000017
                },
                {
                    "name": "A3",
                    "midi": 57,
                    "time": 41.63798100000007,
                    "velocity": 0.5748031496062992,
                    "duration": 0.0862070000000017
                },
                {
                    "name": "B1",
                    "midi": 35,
                    "time": 42.75867200000007,
                    "velocity": 0.6692913385826772,
                    "duration": 1.3793119999999988
                },
                {
                    "name": "B2",
                    "midi": 47,
                    "time": 42.75867200000007,
                    "velocity": 0.7874015748031497,
                    "duration": 1.3793119999999988
                },
                {
                    "name": "G#3",
                    "midi": 56,
                    "time": 43.87936300000007,
                    "velocity": 0.5118110236220472,
                    "duration": 0.0862070000000017
                },
                {
                    "name": "D#3",
                    "midi": 51,
                    "time": 43.96557000000007,
                    "velocity": 0.5433070866141733,
                    "duration": 0.0862070000000017
                },
                {
                    "name": "B2",
                    "midi": 47,
                    "time": 44.05177700000007,
                    "velocity": 0.5196850393700787,
                    "duration": 0.0862069999999946
                },
                {
                    "name": "A#1",
                    "midi": 34,
                    "time": 44.13798400000007,
                    "velocity": 0.6614173228346457,
                    "duration": 2.7586239999999904
                },
                {
                    "name": "A#2",
                    "midi": 46,
                    "time": 44.22419100000006,
                    "velocity": 0.5196850393700787,
                    "duration": 0.0862070000000017
                },
                {
                    "name": "F3",
                    "midi": 53,
                    "time": 44.31039800000006,
                    "velocity": 0.5511811023622047,
                    "duration": 0.0862070000000017
                },
                {
                    "name": "G#3",
                    "midi": 56,
                    "time": 44.396605000000065,
                    "velocity": 0.5275590551181102,
                    "duration": 0.0862070000000017
                },
                {
                    "name": "A#2",
                    "midi": 46,
                    "time": 45.517296000000066,
                    "velocity": 0.6850393700787402,
                    "duration": 1.3793119999999917
                },
                {
                    "name": "G#3",
                    "midi": 56,
                    "time": 46.63798700000006,
                    "velocity": 0.5590551181102362,
                    "duration": 0.0862070000000017
                },
                {
                    "name": "E3",
                    "midi": 52,
                    "time": 46.72419400000006,
                    "velocity": 0.5984251968503937,
                    "duration": 0.0862070000000017
                },
                {
                    "name": "A#2",
                    "midi": 46,
                    "time": 46.81040100000006,
                    "velocity": 0.5669291338582677,
                    "duration": 0.0862069999999946
                },
                {
                    "name": "A1",
                    "midi": 33,
                    "time": 46.89660800000006,
                    "velocity": 0.6141732283464567,
                    "duration": 2.7586239999999975
                },
                {
                    "name": "A2",
                    "midi": 45,
                    "time": 46.89660800000006,
                    "velocity": 0.7401574803149606,
                    "duration": 0.1724139999999963
                },
                {
                    "name": "A2",
                    "midi": 45,
                    "time": 46.98281500000005,
                    "velocity": 0.5669291338582677,
                    "duration": 2.672417000000003
                },
                {
                    "name": "E3",
                    "midi": 52,
                    "time": 47.069022000000054,
                    "velocity": 0.5984251968503937,
                    "duration": 0.0862070000000017
                },
                {
                    "name": "A3",
                    "midi": 57,
                    "time": 47.155229000000055,
                    "velocity": 0.5669291338582677,
                    "duration": 0.0862070000000017
                },
                {
                    "name": "A3",
                    "midi": 57,
                    "time": 49.39661100000006,
                    "velocity": 0.5354330708661418,
                    "duration": 0.0862070000000017
                },
                {
                    "name": "E3",
                    "midi": 52,
                    "time": 49.48281800000006,
                    "velocity": 0.5669291338582677,
                    "duration": 0.0862070000000017
                },
                {
                    "name": "A2",
                    "midi": 45,
                    "time": 49.56902500000006,
                    "velocity": 0.5354330708661418,
                    "duration": 0.0862069999999946
                },
                {
                    "name": "D2",
                    "midi": 38,
                    "time": 49.655232000000055,
                    "velocity": 0.7086614173228346,
                    "duration": 1.3793120000000059
                },
                {
                    "name": "A2",
                    "midi": 45,
                    "time": 49.74143900000006,
                    "velocity": 0.5433070866141733,
                    "duration": 0.0862070000000017
                },
                {
                    "name": "D3",
                    "midi": 50,
                    "time": 49.82764600000006,
                    "velocity": 0.5669291338582677,
                    "duration": 0.0862070000000017
                },
                {
                    "name": "F#3",
                    "midi": 54,
                    "time": 49.91385300000006,
                    "velocity": 0.5433070866141733,
                    "duration": 0.0862070000000017
                },
                {
                    "name": "G1",
                    "midi": 31,
                    "time": 51.03454400000006,
                    "velocity": 0.5905511811023622,
                    "duration": 1.3793119999999988
                },
                {
                    "name": "G2",
                    "midi": 43,
                    "time": 51.03454400000006,
                    "velocity": 0.6614173228346457,
                    "duration": 1.3793119999999988
                },
                {
                    "name": "G3",
                    "midi": 55,
                    "time": 51.98282100000006,
                    "velocity": 0.4881889763779528,
                    "duration": 0.0862070000000017
                },
                {
                    "name": "B3",
                    "midi": 59,
                    "time": 52.06902800000006,
                    "velocity": 0.5984251968503937,
                    "duration": 0.0862070000000017
                },
                {
                    "name": "F3",
                    "midi": 53,
                    "time": 52.15523500000006,
                    "velocity": 0.5039370078740157,
                    "duration": 0.0862070000000017
                },
                {
                    "name": "D3",
                    "midi": 50,
                    "time": 52.24144200000006,
                    "velocity": 0.48031496062992124,
                    "duration": 0.0862070000000017
                },
                {
                    "name": "G2",
                    "midi": 43,
                    "time": 52.327649000000065,
                    "velocity": 0.5039370078740157,
                    "duration": 0.0862069999999946
                },
                {
                    "name": "C2",
                    "midi": 36,
                    "time": 52.41385600000006,
                    "velocity": 0.6220472440944882,
                    "duration": 1.379312000000013
                },
                {
                    "name": "G2",
                    "midi": 43,
                    "time": 52.50006300000006,
                    "velocity": 0.5039370078740157,
                    "duration": 0.0862070000000017
                },
                {
                    "name": "C3",
                    "midi": 48,
                    "time": 52.58627000000006,
                    "velocity": 0.48031496062992124,
                    "duration": 0.0862070000000017
                },
                {
                    "name": "E3",
                    "midi": 52,
                    "time": 52.672477000000065,
                    "velocity": 0.5039370078740157,
                    "duration": 0.0862070000000017
                },
                {
                    "name": "B3",
                    "midi": 59,
                    "time": 52.758684000000066,
                    "velocity": 0.5826771653543307,
                    "duration": 0.0862070000000017
                },
                {
                    "name": "G3",
                    "midi": 55,
                    "time": 52.84489100000007,
                    "velocity": 0.48031496062992124,
                    "duration": 0.0862070000000017
                },
                {
                    "name": "F1",
                    "midi": 29,
                    "time": 53.79316800000007,
                    "velocity": 0.5196850393700787,
                    "duration": 1.3793119999999988
                },
                {
                    "name": "F2",
                    "midi": 41,
                    "time": 53.79316800000007,
                    "velocity": 0.6141732283464567,
                    "duration": 1.3793119999999988
                },
                {
                    "name": "F3",
                    "midi": 53,
                    "time": 54.74144500000007,
                    "velocity": 0.4881889763779528,
                    "duration": 0.0862070000000017
                },
                {
                    "name": "A3",
                    "midi": 57,
                    "time": 54.82765200000007,
                    "velocity": 0.5826771653543307,
                    "duration": 0.0862070000000017
                },
                {
                    "name": "E3",
                    "midi": 52,
                    "time": 54.91385900000007,
                    "velocity": 0.47244094488188976,
                    "duration": 0.0862070000000017
                },
                {
                    "name": "C3",
                    "midi": 48,
                    "time": 55.000066000000075,
                    "velocity": 0.5039370078740157,
                    "duration": 0.0862070000000017
                },
                {
                    "name": "F2",
                    "midi": 41,
                    "time": 55.08627300000008,
                    "velocity": 0.48031496062992124,
                    "duration": 0.0862069999999946
                },
                {
                    "name": "B1",
                    "midi": 35,
                    "time": 55.17248000000007,
                    "velocity": 0.6614173228346457,
                    "duration": 1.379312000000013
                },
                {
                    "name": "F2",
                    "midi": 41,
                    "time": 55.25868700000007,
                    "velocity": 0.5118110236220472,
                    "duration": 0.0862070000000017
                },
                {
                    "name": "B2",
                    "midi": 47,
                    "time": 55.344894000000075,
                    "velocity": 0.5354330708661418,
                    "duration": 0.0862070000000017
                },
                {
                    "name": "D3",
                    "midi": 50,
                    "time": 55.431101000000076,
                    "velocity": 0.5039370078740157,
                    "duration": 0.0862070000000017
                },
                {
                    "name": "A3",
                    "midi": 57,
                    "time": 55.51730800000008,
                    "velocity": 0.6062992125984252,
                    "duration": 0.0862070000000017
                },
                {
                    "name": "F3",
                    "midi": 53,
                    "time": 55.60351500000008,
                    "velocity": 0.49606299212598426,
                    "duration": 0.0862070000000017
                },
                {
                    "name": "B3",
                    "midi": 59,
                    "time": 55.68972200000008,
                    "velocity": 0.5354330708661418,
                    "duration": 0.0862070000000017
                },
                {
                    "name": "E1",
                    "midi": 28,
                    "time": 56.551792000000084,
                    "velocity": 0.5669291338582677,
                    "duration": 0.6896559999999994
                },
                {
                    "name": "E2",
                    "midi": 40,
                    "time": 56.551792000000084,
                    "velocity": 0.6692913385826772,
                    "duration": 0.6896559999999994
                },
                {
                    "name": "A1",
                    "midi": 33,
                    "time": 57.241448000000084,
                    "velocity": 0.5669291338582677,
                    "duration": 0.6896559999999994
                },
                {
                    "name": "A2",
                    "midi": 45,
                    "time": 57.241448000000084,
                    "velocity": 0.6692913385826772,
                    "duration": 0.6896559999999994
                },
                {
                    "name": "D1",
                    "midi": 26,
                    "time": 57.93110400000008,
                    "velocity": 0.5826771653543307,
                    "duration": 0.6896559999999994
                },
                {
                    "name": "D2",
                    "midi": 38,
                    "time": 57.93110400000008,
                    "velocity": 0.6929133858267716,
                    "duration": 0.6896559999999994
                },
                {
                    "name": "G1",
                    "midi": 31,
                    "time": 58.62076000000008,
                    "velocity": 0.5826771653543307,
                    "duration": 0.6896560000000065
                },
                {
                    "name": "G2",
                    "midi": 43,
                    "time": 58.62076000000008,
                    "velocity": 0.6929133858267716,
                    "duration": 0.6896560000000065
                },
                {
                    "name": "C1",
                    "midi": 24,
                    "time": 59.31041600000009,
                    "velocity": 0.6299212598425197,
                    "duration": 0.6896560000000065
                },
                {
                    "name": "C2",
                    "midi": 36,
                    "time": 59.31041600000009,
                    "velocity": 0.7401574803149606,
                    "duration": 0.6896560000000065
                },
                {
                    "name": "F1",
                    "midi": 29,
                    "time": 60.000072000000095,
                    "velocity": 0.6456692913385826,
                    "duration": 0.6896560000000065
                },
                {
                    "name": "F2",
                    "midi": 41,
                    "time": 60.000072000000095,
                    "velocity": 0.7637795275590551,
                    "duration": 0.6896560000000065
                },
                {
                    "name": "B1",
                    "midi": 35,
                    "time": 60.6897280000001,
                    "velocity": 0.6692913385826772,
                    "duration": 1.0344840000000062
                },
                {
                    "name": "B2",
                    "midi": 47,
                    "time": 60.6897280000001,
                    "velocity": 0.7952755905511811,
                    "duration": 1.0344840000000062
                },
                {
                    "name": "A3",
                    "midi": 57,
                    "time": 61.4655910000001,
                    "velocity": 0.5905511811023622,
                    "duration": 0.0862070000000017
                },
                {
                    "name": "F3",
                    "midi": 53,
                    "time": 61.551798000000105,
                    "velocity": 0.6299212598425197,
                    "duration": 0.0862070000000017
                },
                {
                    "name": "B2",
                    "midi": 47,
                    "time": 61.638005000000106,
                    "velocity": 0.5905511811023622,
                    "duration": 0.0862070000000017
                },
                {
                    "name": "B1",
                    "midi": 35,
                    "time": 61.72421200000011,
                    "velocity": 0.8031496062992126,
                    "duration": 1.3793120000000059
                },
                {
                    "name": "B2",
                    "midi": 47,
                    "time": 62.06904000000011,
                    "velocity": 0.7874015748031497,
                    "duration": 1.0344840000000062
                },
                {
                    "name": "A3",
                    "midi": 57,
                    "time": 62.84490300000011,
                    "velocity": 0.5905511811023622,
                    "duration": 0.0862070000000017
                },
                {
                    "name": "F#3",
                    "midi": 54,
                    "time": 62.93111000000011,
                    "velocity": 0.6299212598425197,
                    "duration": 0.0862070000000017
                },
                {
                    "name": "B2",
                    "midi": 47,
                    "time": 63.01731700000011,
                    "velocity": 0.5984251968503937,
                    "duration": 0.0862070000000017
                },
                {
                    "name": "B1",
                    "midi": 35,
                    "time": 63.103524000000114,
                    "velocity": 0.7322834645669292,
                    "duration": 0.3448279999999997
                },
                {
                    "name": "E1",
                    "midi": 28,
                    "time": 63.44835200000011,
                    "velocity": 0.6614173228346457,
                    "duration": 2.413796000000005
                },
                {
                    "name": "E2",
                    "midi": 40,
                    "time": 63.44835200000011,
                    "velocity": 0.7874015748031497,
                    "duration": 2.413796000000005
                },
                {
                    "name": "B2",
                    "midi": 47,
                    "time": 63.534559000000115,
                    "velocity": 0.5984251968503937,
                    "duration": 0.0862070000000017
                },
                {
                    "name": "E3",
                    "midi": 52,
                    "time": 63.62076600000012,
                    "velocity": 0.6299212598425197,
                    "duration": 0.0862070000000017
                },
                {
                    "name": "G#3",
                    "midi": 56,
                    "time": 63.70697300000012,
                    "velocity": 0.5984251968503937,
                    "duration": 0.0862070000000017
                },
                {
                    "name": "D1",
                    "midi": 26,
                    "time": 65.86214800000012,
                    "velocity": 0.5826771653543307,
                    "duration": 0.3448279999999926
                },
                {
                    "name": "D2",
                    "midi": 38,
                    "time": 65.86214800000012,
                    "velocity": 0.6929133858267716,
                    "duration": 0.3448279999999926
                },
                {
                    "name": "G3",
                    "midi": 55,
                    "time": 66.03456200000011,
                    "velocity": 0.5433070866141733,
                    "duration": 0.0862070000000017
                },
                {
                    "name": "D3",
                    "midi": 50,
                    "time": 66.12076900000011,
                    "velocity": 0.5039370078740157,
                    "duration": 0.0862070000000017
                },
                {
                    "name": "C1",
                    "midi": 24,
                    "time": 66.20697600000011,
                    "velocity": 0.5669291338582677,
                    "duration": 1.379312000000013
                },
                {
                    "name": "C2",
                    "midi": 36,
                    "time": 66.20697600000011,
                    "velocity": 0.6692913385826772,
                    "duration": 2.7586240000000117
                },
                {
                    "name": "C3",
                    "midi": 48,
                    "time": 66.29318300000011,
                    "velocity": 0.5039370078740157,
                    "duration": 0.0862070000000017
                },
                {
                    "name": "G3",
                    "midi": 55,
                    "time": 66.37939000000011,
                    "velocity": 0.5354330708661418,
                    "duration": 0.0862070000000017
                },
                {
                    "name": "C4",
                    "midi": 60,
                    "time": 66.46559700000012,
                    "velocity": 0.49606299212598426,
                    "duration": 0.0862070000000017
                },
                {
                    "name": "C3",
                    "midi": 48,
                    "time": 67.58628800000012,
                    "velocity": 0.6141732283464567,
                    "duration": 1.3793119999999988
                },
                {
                    "name": "G3",
                    "midi": 55,
                    "time": 68.79318600000012,
                    "velocity": 0.5354330708661418,
                    "duration": 0.0862070000000017
                },
                {
                    "name": "C3",
                    "midi": 48,
                    "time": 68.87939300000012,
                    "velocity": 0.49606299212598426,
                    "duration": 0.0862070000000017
                },
                {
                    "name": "F1",
                    "midi": 29,
                    "time": 68.96560000000012,
                    "velocity": 0.5669291338582677,
                    "duration": 1.379312000000013
                },
                {
                    "name": "F2",
                    "midi": 41,
                    "time": 68.96560000000012,
                    "velocity": 0.6692913385826772,
                    "duration": 1.379312000000013
                },
                {
                    "name": "C3",
                    "midi": 48,
                    "time": 69.05180700000012,
                    "velocity": 0.5039370078740157,
                    "duration": 0.0862070000000017
                },
                {
                    "name": "A3",
                    "midi": 57,
                    "time": 69.13801400000013,
                    "velocity": 0.5354330708661418,
                    "duration": 0.0862070000000017
                },
                {
                    "name": "C4",
                    "midi": 60,
                    "time": 69.22422100000013,
                    "velocity": 0.5039370078740157,
                    "duration": 0.0862070000000017
                },
                {
                    "name": "F#1",
                    "midi": 30,
                    "time": 70.34491200000014,
                    "velocity": 0.6062992125984252,
                    "duration": 1.3793119999999988
                },
                {
                    "name": "F#2",
                    "midi": 42,
                    "time": 70.34491200000014,
                    "velocity": 0.7165354330708661,
                    "duration": 1.3793119999999988
                },
                {
                    "name": "A3",
                    "midi": 57,
                    "time": 71.55181000000013,
                    "velocity": 0.6220472440944882,
                    "duration": 0.0862070000000017
                },
                {
                    "name": "C3",
                    "midi": 48,
                    "time": 71.63801700000013,
                    "velocity": 0.5590551181102362,
                    "duration": 0.0862070000000017
                },
                {
                    "name": "G1",
                    "midi": 31,
                    "time": 71.72422400000013,
                    "velocity": 0.6692913385826772,
                    "duration": 0.6896560000000136
                },
                {
                    "name": "G2",
                    "midi": 43,
                    "time": 71.72422400000013,
                    "velocity": 0.7952755905511811,
                    "duration": 0.6896560000000136
                },
                {
                    "name": "B2",
                    "midi": 47,
                    "time": 71.81043100000014,
                    "velocity": 0.5905511811023622,
                    "duration": 0.0862070000000017
                },
                {
                    "name": "G3",
                    "midi": 55,
                    "time": 71.89663800000014,
                    "velocity": 0.6299212598425197,
                    "duration": 0.0862070000000017
                },
                {
                    "name": "B3",
                    "midi": 59,
                    "time": 71.98284500000014,
                    "velocity": 0.5905511811023622,
                    "duration": 0.0862070000000017
                },
                {
                    "name": "F#1",
                    "midi": 30,
                    "time": 72.41388000000015,
                    "velocity": 0.6771653543307087,
                    "duration": 0.3448280000000068
                },
                {
                    "name": "F#2",
                    "midi": 42,
                    "time": 72.41388000000015,
                    "velocity": 0.8031496062992126,
                    "duration": 0.3448280000000068
                },
                {
                    "name": "E1",
                    "midi": 28,
                    "time": 72.75870800000015,
                    "velocity": 0.6771653543307087,
                    "duration": 0.3448280000000068
                },
                {
                    "name": "E2",
                    "midi": 40,
                    "time": 72.75870800000015,
                    "velocity": 0.8110236220472441,
                    "duration": 0.3448280000000068
                },
                {
                    "name": "D1",
                    "midi": 26,
                    "time": 73.10353600000016,
                    "velocity": 0.6692913385826772,
                    "duration": 1.3793119999999988
                },
                {
                    "name": "D2",
                    "midi": 38,
                    "time": 73.10353600000016,
                    "velocity": 0.7952755905511811,
                    "duration": 1.3793119999999988
                },
                {
                    "name": "A3",
                    "midi": 57,
                    "time": 74.22422700000016,
                    "velocity": 0.5905511811023622,
                    "duration": 0.0862070000000017
                },
                {
                    "name": "F#3",
                    "midi": 54,
                    "time": 74.31043400000016,
                    "velocity": 0.6299212598425197,
                    "duration": 0.0862070000000017
                },
                {
                    "name": "C3",
                    "midi": 48,
                    "time": 74.39664100000016,
                    "velocity": 0.5826771653543307,
                    "duration": 0.0862070000000017
                },
                {
                    "name": "G1",
                    "midi": 31,
                    "time": 74.48284800000016,
                    "velocity": 0.6771653543307087,
                    "duration": 2.7586239999999975
                },
                {
                    "name": "G2",
                    "midi": 43,
                    "time": 74.48284800000016,
                    "velocity": 0.8031496062992126,
                    "duration": 2.7586239999999975
                },
                {
                    "name": "C3",
                    "midi": 48,
                    "time": 74.56905500000015,
                    "velocity": 0.5905511811023622,
                    "duration": 0.0862070000000017
                },
                {
                    "name": "F3",
                    "midi": 53,
                    "time": 74.65526200000015,
                    "velocity": 0.6299212598425197,
                    "duration": 0.0862070000000017
                },
                {
                    "name": "G#3",
                    "midi": 56,
                    "time": 74.74146900000015,
                    "velocity": 0.5826771653543307,
                    "duration": 0.0862070000000017
                },
                {
                    "name": "G3",
                    "midi": 55,
                    "time": 76.98285100000015,
                    "velocity": 0.5826771653543307,
                    "duration": 0.0862070000000017
                },
                {
                    "name": "F3",
                    "midi": 53,
                    "time": 77.06905800000015,
                    "velocity": 0.6299212598425197,
                    "duration": 0.0862070000000017
                },
                {
                    "name": "B2",
                    "midi": 47,
                    "time": 77.15526500000016,
                    "velocity": 0.5905511811023622,
                    "duration": 0.0862070000000017
                },
                {
                    "name": "C2",
                    "midi": 36,
                    "time": 77.24147200000016,
                    "velocity": 0.6220472440944882,
                    "duration": 2.7586240000000117
                },
                {
                    "name": "C3",
                    "midi": 48,
                    "time": 77.24147200000016,
                    "velocity": 0.7480314960629921,
                    "duration": 0.1724140000000034
                },
                {
                    "name": "C3",
                    "midi": 48,
                    "time": 77.32767900000016,
                    "velocity": 0.5905511811023622,
                    "duration": 2.67241700000001
                },
                {
                    "name": "G3",
                    "midi": 55,
                    "time": 77.41388600000016,
                    "velocity": 0.6299212598425197,
                    "duration": 0.0862070000000017
                },
                {
                    "name": "C4",
                    "midi": 60,
                    "time": 77.50009300000016,
                    "velocity": 0.5905511811023622,
                    "duration": 0.0862070000000017
                },
                {
                    "name": "G3",
                    "midi": 55,
                    "time": 79.82768200000017,
                    "velocity": 0.6299212598425197,
                    "duration": 0.0862070000000017
                },
                {
                    "name": "C3",
                    "midi": 48,
                    "time": 79.91388900000017,
                    "velocity": 0.5826771653543307,
                    "duration": 0.0862070000000017
                },
                {
                    "name": "A1",
                    "midi": 33,
                    "time": 80.00009600000017,
                    "velocity": 0.6614173228346457,
                    "duration": 2.413796000000005
                },
                {
                    "name": "A2",
                    "midi": 45,
                    "time": 80.00009600000017,
                    "velocity": 0.7874015748031497,
                    "duration": 2.413796000000005
                },
                {
                    "name": "C3",
                    "midi": 48,
                    "time": 80.08630300000017,
                    "velocity": 0.5905511811023622,
                    "duration": 0.0862070000000017
                },
                {
                    "name": "F3",
                    "midi": 53,
                    "time": 80.17251000000017,
                    "velocity": 0.6299212598425197,
                    "duration": 0.0862070000000017
                },
                {
                    "name": "C4",
                    "midi": 60,
                    "time": 80.25871700000017,
                    "velocity": 0.5905511811023622,
                    "duration": 0.0862070000000017
                },
                {
                    "name": "G#1",
                    "midi": 32,
                    "time": 82.41389200000017,
                    "velocity": 0.6692913385826772,
                    "duration": 0.3448280000000068
                },
                {
                    "name": "G#2",
                    "midi": 44,
                    "time": 82.41389200000017,
                    "velocity": 0.7952755905511811,
                    "duration": 0.3448280000000068
                },
                {
                    "name": "F#3",
                    "midi": 54,
                    "time": 82.58630600000018,
                    "velocity": 0.6299212598425197,
                    "duration": 0.0862070000000017
                },
                {
                    "name": "C3",
                    "midi": 48,
                    "time": 82.67251300000018,
                    "velocity": 0.5748031496062992,
                    "duration": 0.0862070000000017
                },
                {
                    "name": "G1",
                    "midi": 31,
                    "time": 82.75872000000018,
                    "velocity": 0.6299212598425197,
                    "duration": 2.7586240000000117
                },
                {
                    "name": "G2",
                    "midi": 43,
                    "time": 82.75872000000018,
                    "velocity": 0.7480314960629921,
                    "duration": 2.7586240000000117
                },
                {
                    "name": "C3",
                    "midi": 48,
                    "time": 82.84492700000018,
                    "velocity": 0.5511811023622047,
                    "duration": 0.0862070000000017
                },
                {
                    "name": "G3",
                    "midi": 55,
                    "time": 82.93113400000018,
                    "velocity": 0.5984251968503937,
                    "duration": 0.0862070000000017
                },
                {
                    "name": "C4",
                    "midi": 60,
                    "time": 83.01734100000019,
                    "velocity": 0.5590551181102362,
                    "duration": 0.0862070000000017
                },
                {
                    "name": "G3",
                    "midi": 55,
                    "time": 85.34493000000019,
                    "velocity": 0.5748031496062992,
                    "duration": 0.0862070000000017
                },
                {
                    "name": "B2",
                    "midi": 47,
                    "time": 85.43113700000019,
                    "velocity": 0.5354330708661418,
                    "duration": 0.0862070000000017
                },
                {
                    "name": "F#1",
                    "midi": 30,
                    "time": 85.5173440000002,
                    "velocity": 0.6062992125984252,
                    "duration": 1.379312000000013
                },
                {
                    "name": "F#2",
                    "midi": 42,
                    "time": 85.5173440000002,
                    "velocity": 0.7244094488188977,
                    "duration": 1.379312000000013
                },
                {
                    "name": "C3",
                    "midi": 48,
                    "time": 85.6035510000002,
                    "velocity": 0.5433070866141733,
                    "duration": 0.0862070000000017
                },
                {
                    "name": "A3",
                    "midi": 57,
                    "time": 85.6897580000002,
                    "velocity": 0.5748031496062992,
                    "duration": 0.0862070000000017
                },
                {
                    "name": "C4",
                    "midi": 60,
                    "time": 85.7759650000002,
                    "velocity": 0.5433070866141733,
                    "duration": 0.0862070000000017
                },
                {
                    "name": "F1",
                    "midi": 29,
                    "time": 86.8966560000002,
                    "velocity": 0.5905511811023622,
                    "duration": 1.3793119999999988
                },
                {
                    "name": "F2",
                    "midi": 41,
                    "time": 86.8966560000002,
                    "velocity": 0.7086614173228346,
                    "duration": 1.3793119999999988
                },
                {
                    "name": "A3",
                    "midi": 57,
                    "time": 88.1035540000002,
                    "velocity": 0.5590551181102362,
                    "duration": 0.0862070000000017
                },
                {
                    "name": "B2",
                    "midi": 47,
                    "time": 88.1897610000002,
                    "velocity": 0.5196850393700787,
                    "duration": 0.0862070000000017
                },
                {
                    "name": "E1",
                    "midi": 28,
                    "time": 88.2759680000002,
                    "velocity": 0.5984251968503937,
                    "duration": 1.379312000000013
                },
                {
                    "name": "E2",
                    "midi": 40,
                    "time": 88.2759680000002,
                    "velocity": 0.7086614173228346,
                    "duration": 2.7586240000000117
                },
                {
                    "name": "B2",
                    "midi": 47,
                    "time": 88.3621750000002,
                    "velocity": 0.5196850393700787,
                    "duration": 0.0862070000000017
                },
                {
                    "name": "G#3",
                    "midi": 56,
                    "time": 88.44838200000021,
                    "velocity": 0.5590551181102362,
                    "duration": 0.0862070000000017
                },
                {
                    "name": "B3",
                    "midi": 59,
                    "time": 88.53458900000021,
                    "velocity": 0.5196850393700787,
                    "duration": 0.0862070000000017
                },
                {
                    "name": "E3",
                    "midi": 52,
                    "time": 89.65528000000022,
                    "velocity": 0.6929133858267716,
                    "duration": 0.6896559999999994
                },
                {
                    "name": "G#3",
                    "midi": 56,
                    "time": 90.86217800000021,
                    "velocity": 0.4881889763779528,
                    "duration": 0.0862070000000017
                },
                {
                    "name": "B2",
                    "midi": 47,
                    "time": 90.94838500000021,
                    "velocity": 0.4330708661417323,
                    "duration": 0.0862070000000017
                },
                {
                    "name": "D2",
                    "midi": 38,
                    "time": 91.03459200000022,
                    "velocity": 0.5118110236220472,
                    "duration": 1.379312000000013
                },
                {
                    "name": "D3",
                    "midi": 50,
                    "time": 91.12079900000022,
                    "velocity": 0.3937007874015748,
                    "duration": 0.0862070000000017
                },
                {
                    "name": "A3",
                    "midi": 57,
                    "time": 91.20700600000022,
                    "velocity": 0.4251968503937008,
                    "duration": 0.0862070000000017
                },
                {
                    "name": "C4",
                    "midi": 60,
                    "time": 91.29321300000022,
                    "velocity": 0.3858267716535433,
                    "duration": 0.0862070000000017
                },
                {
                    "name": "G1",
                    "midi": 31,
                    "time": 92.41390400000023,
                    "velocity": 0.4409448818897638,
                    "duration": 1.3793119999999988
                },
                {
                    "name": "G2",
                    "midi": 43,
                    "time": 92.41390400000023,
                    "velocity": 0.5275590551181102,
                    "duration": 1.3793119999999988
                },
                {
                    "name": "G3",
                    "midi": 55,
                    "time": 93.62080200000023,
                    "velocity": 0.4251968503937008,
                    "duration": 0.0862070000000017
                },
                {
                    "name": "D3",
                    "midi": 50,
                    "time": 93.70700900000023,
                    "velocity": 0.3937007874015748,
                    "duration": 0.0862070000000017
                },
                {
                    "name": "C2",
                    "midi": 36,
                    "time": 93.79321600000023,
                    "velocity": 0.5511811023622047,
                    "duration": 2.7586240000000117
                },
                {
                    "name": "C3",
                    "midi": 48,
                    "time": 93.87942300000023,
                    "velocity": 0.4094488188976378,
                    "duration": 0.0862070000000017
                },
                {
                    "name": "G3",
                    "midi": 55,
                    "time": 93.96563000000023,
                    "velocity": 0.4409448818897638,
                    "duration": 0.0862070000000017
                },
                {
                    "name": "C4",
                    "midi": 60,
                    "time": 94.05183700000023,
                    "velocity": 0.4015748031496063,
                    "duration": 0.0862070000000017
                },
                {
                    "name": "C3",
                    "midi": 48,
                    "time": 95.17252800000024,
                    "velocity": 0.5905511811023622,
                    "duration": 1.3793119999999988
                },
                {
                    "name": "G#3",
                    "midi": 56,
                    "time": 96.37942600000024,
                    "velocity": 0.48031496062992124,
                    "duration": 0.0862070000000017
                },
                {
                    "name": "D3",
                    "midi": 50,
                    "time": 96.46563300000024,
                    "velocity": 0.44881889763779526,
                    "duration": 0.0862070000000017
                },
                {
                    "name": "C2",
                    "midi": 36,
                    "time": 96.55184000000024,
                    "velocity": 0.6220472440944882,
                    "duration": 1.379312000000013
                },
                {
                    "name": "C3",
                    "midi": 48,
                    "time": 96.63804700000024,
                    "velocity": 0.47244094488188976,
                    "duration": 0.0862070000000017
                },
                {
                    "name": "G3",
                    "midi": 55,
                    "time": 96.72425400000024,
                    "velocity": 0.5039370078740157,
                    "duration": 0.0862070000000017
                },
                {
                    "name": "C4",
                    "midi": 60,
                    "time": 96.81046100000025,
                    "velocity": 0.47244094488188976,
                    "duration": 0.0862070000000017
                },
                {
                    "name": "G1",
                    "midi": 31,
                    "time": 97.93115200000025,
                    "velocity": 0.6299212598425197,
                    "duration": 1.379312000000013
                },
                {
                    "name": "G2",
                    "midi": 43,
                    "time": 97.93115200000025,
                    "velocity": 0.7480314960629921,
                    "duration": 1.379312000000013
                },
                {
                    "name": "G#3",
                    "midi": 56,
                    "time": 99.05184300000026,
                    "velocity": 0.5196850393700787,
                    "duration": 0.0862070000000017
                },
                {
                    "name": "F3",
                    "midi": 53,
                    "time": 99.13805000000026,
                    "velocity": 0.5433070866141733,
                    "duration": 0.0862070000000017
                },
                {
                    "name": "B2",
                    "midi": 47,
                    "time": 99.22425700000026,
                    "velocity": 0.5039370078740157,
                    "duration": 0.0862070000000017
                },
                {
                    "name": "G1",
                    "midi": 31,
                    "time": 99.31046400000027,
                    "velocity": 0.5826771653543307,
                    "duration": 2.758624000000026
                },
                {
                    "name": "G2",
                    "midi": 43,
                    "time": 99.31046400000027,
                    "velocity": 0.6929133858267716,
                    "duration": 2.758624000000026
                },
                {
                    "name": "A#2",
                    "midi": 46,
                    "time": 99.39667100000027,
                    "velocity": 0.47244094488188976,
                    "duration": 0.0862070000000017
                },
                {
                    "name": "E3",
                    "midi": 52,
                    "time": 99.48287800000027,
                    "velocity": 0.5039370078740157,
                    "duration": 0.0862070000000017
                },
                {
                    "name": "G3",
                    "midi": 55,
                    "time": 99.56908500000027,
                    "velocity": 0.48031496062992124,
                    "duration": 0.0862070000000017
                },
                {
                    "name": "C#4",
                    "midi": 61,
                    "time": 99.65529200000027,
                    "velocity": 0.5984251968503937,
                    "duration": 0.0862070000000017
                },
                {
                    "name": "A#3",
                    "midi": 58,
                    "time": 99.74149900000027,
                    "velocity": 0.5039370078740157,
                    "duration": 0.0862070000000017
                },
                {
                    "name": "G1",
                    "midi": 31,
                    "time": 102.06908800000029,
                    "velocity": 0.5905511811023622,
                    "duration": 2.7586239999999975
                },
                {
                    "name": "G2",
                    "midi": 43,
                    "time": 102.06908800000029,
                    "velocity": 0.7007874015748031,
                    "duration": 2.7586239999999975
                },
                {
                    "name": "G3",
                    "midi": 55,
                    "time": 104.39667700000028,
                    "velocity": 0.5433070866141733,
                    "duration": 0.0862070000000017
                },
                {
                    "name": "B3",
                    "midi": 59,
                    "time": 104.48288400000028,
                    "velocity": 0.6299212598425197,
                    "duration": 0.0862070000000017
                },
                {
                    "name": "F3",
                    "midi": 53,
                    "time": 104.56909100000028,
                    "velocity": 0.5196850393700787,
                    "duration": 0.0862070000000017
                },
                {
                    "name": "D3",
                    "midi": 50,
                    "time": 104.65529800000029,
                    "velocity": 0.5433070866141733,
                    "duration": 0.0862070000000017
                },
                {
                    "name": "G2",
                    "midi": 43,
                    "time": 104.74150500000029,
                    "velocity": 0.5354330708661418,
                    "duration": 0.0862070000000017
                },
                {
                    "name": "C1",
                    "midi": 24,
                    "time": 104.82771200000029,
                    "velocity": 0.6692913385826772,
                    "duration": 2.7586240000000117
                },
                {
                    "name": "C2",
                    "midi": 36,
                    "time": 104.82771200000029,
                    "velocity": 0.8031496062992126,
                    "duration": 2.7586240000000117
                },
                {
                    "name": "G2",
                    "midi": 43,
                    "time": 104.91391900000029,
                    "velocity": 0.5196850393700787,
                    "duration": 0.0862070000000017
                },
                {
                    "name": "E3",
                    "midi": 52,
                    "time": 105.0001260000003,
                    "velocity": 0.5354330708661418,
                    "duration": 0.0862070000000017
                },
                {
                    "name": "G3",
                    "midi": 55,
                    "time": 105.0863330000003,
                    "velocity": 0.5118110236220472,
                    "duration": 0.0862070000000017
                },
                {
                    "name": "C4",
                    "midi": 60,
                    "time": 105.1725400000003,
                    "velocity": 0.6141732283464567,
                    "duration": 0.0862070000000017
                },
                {
                    "name": "G3",
                    "midi": 55,
                    "time": 105.2587470000003,
                    "velocity": 0.5590551181102362,
                    "duration": 0.0862070000000017
                },
                {
                    "name": "G3",
                    "midi": 55,
                    "time": 107.15530100000029,
                    "velocity": 0.5748031496062992,
                    "duration": 0.0862070000000017
                },
                {
                    "name": "C4",
                    "midi": 60,
                    "time": 107.2415080000003,
                    "velocity": 0.6771653543307087,
                    "duration": 0.0862070000000017
                },
                {
                    "name": "G3",
                    "midi": 55,
                    "time": 107.3277150000003,
                    "velocity": 0.5748031496062992,
                    "duration": 0.0862070000000017
                },
                {
                    "name": "E3",
                    "midi": 52,
                    "time": 107.4139220000003,
                    "velocity": 0.5984251968503937,
                    "duration": 0.0862070000000017
                },
                {
                    "name": "G2",
                    "midi": 43,
                    "time": 107.5001290000003,
                    "velocity": 0.5511811023622047,
                    "duration": 0.0862070000000017
                },
                {
                    "name": "C1",
                    "midi": 24,
                    "time": 107.5863360000003,
                    "velocity": 0.6692913385826772,
                    "duration": 1.3793119999999988
                },
                {
                    "name": "C2",
                    "midi": 36,
                    "time": 107.5863360000003,
                    "velocity": 0.8031496062992126,
                    "duration": 1.3793119999999988
                }
            ],
            "controlChanges": {
                "7": [
                    {
                        "number": 7,
                        "time": 0,
                        "value": 0.7874015748031497
                    }
                ],
                "10": [
                    {
                        "number": 10,
                        "time": 0,
                        "value": 0.5039370078740157
                    }
                ],
                "64": [
                    {
                        "number": 64,
                        "time": 0,
                        "value": 1
                    },
                    {
                        "number": 64,
                        "time": 2.7442561666666663,
                        "value": 0
                    },
                    {
                        "number": 64,
                        "time": 2.7938251916666665,
                        "value": 1
                    },
                    {
                        "number": 64,
                        "time": 4.1415279583333335,
                        "value": 0
                    },
                    {
                        "number": 64,
                        "time": 4.224143,
                        "value": 1
                    },
                    {
                        "number": 64,
                        "time": 5.5028801666666665,
                        "value": 0
                    },
                    {
                        "number": 64,
                        "time": 5.583340033333333,
                        "value": 1
                    },
                    {
                        "number": 64,
                        "time": 6.882192166666665,
                        "value": 0
                    },
                    {
                        "number": 64,
                        "time": 6.970554341666665,
                        "value": 1
                    },
                    {
                        "number": 64,
                        "time": 8.261504166666665,
                        "value": 0
                    },
                    {
                        "number": 64,
                        "time": 8.334061724999998,
                        "value": 1
                    },
                    {
                        "number": 64,
                        "time": 9.657339174999997,
                        "value": 0
                    },
                    {
                        "number": 64,
                        "time": 9.71265533333333,
                        "value": 1
                    },
                    {
                        "number": 64,
                        "time": 11.020128166666664,
                        "value": 0
                    },
                    {
                        "number": 64,
                        "time": 11.120702999999997,
                        "value": 1
                    },
                    {
                        "number": 64,
                        "time": 13.778752166666663,
                        "value": 0
                    },
                    {
                        "number": 64,
                        "time": 13.869269516666662,
                        "value": 1
                    },
                    {
                        "number": 64,
                        "time": 15.176742349999996,
                        "value": 0
                    },
                    {
                        "number": 64,
                        "time": 15.22990333333333,
                        "value": 1
                    },
                    {
                        "number": 64,
                        "time": 16.537376166666665,
                        "value": 0
                    },
                    {
                        "number": 64,
                        "time": 16.642979741666668,
                        "value": 1
                    },
                    {
                        "number": 64,
                        "time": 17.935366350000006,
                        "value": 0
                    },
                    {
                        "number": 64,
                        "time": 18.002176775000006,
                        "value": 1
                    },
                    {
                        "number": 64,
                        "time": 19.296000166666676,
                        "value": 0
                    },
                    {
                        "number": 64,
                        "time": 19.37071290000001,
                        "value": 1
                    },
                    {
                        "number": 64,
                        "time": 20.697582308333352,
                        "value": 0
                    },
                    {
                        "number": 64,
                        "time": 20.77085825833335,
                        "value": 1
                    },
                    {
                        "number": 64,
                        "time": 22.054624166666688,
                        "value": 0
                    },
                    {
                        "number": 64,
                        "time": 22.129336900000023,
                        "value": 1
                    },
                    {
                        "number": 64,
                        "time": 23.450459175000027,
                        "value": 0
                    },
                    {
                        "number": 64,
                        "time": 23.52948225833336,
                        "value": 1
                    },
                    {
                        "number": 64,
                        "time": 24.813248166666696,
                        "value": 0
                    },
                    {
                        "number": 64,
                        "time": 24.928909225000034,
                        "value": 1
                    },
                    {
                        "number": 64,
                        "time": 26.214111916666702,
                        "value": 0
                    },
                    {
                        "number": 64,
                        "time": 26.26224415833337,
                        "value": 1
                    },
                    {
                        "number": 64,
                        "time": 27.571872166666704,
                        "value": 0
                    },
                    {
                        "number": 64,
                        "time": 27.667418258333374,
                        "value": 1
                    },
                    {
                        "number": 64,
                        "time": 28.972017525000044,
                        "value": 0
                    },
                    {
                        "number": 64,
                        "time": 29.03523599166671,
                        "value": 1
                    },
                    {
                        "number": 64,
                        "time": 30.330496166666713,
                        "value": 0
                    },
                    {
                        "number": 64,
                        "time": 30.426042258333382,
                        "value": 1
                    },
                    {
                        "number": 64,
                        "time": 31.727767958333388,
                        "value": 0
                    },
                    {
                        "number": 64,
                        "time": 31.79385999166672,
                        "value": 1
                    },
                    {
                        "number": 64,
                        "time": 33.08912016666672,
                        "value": 0
                    },
                    {
                        "number": 64,
                        "time": 33.16095933333338,
                        "value": 1
                    },
                    {
                        "number": 64,
                        "time": 34.48926552500006,
                        "value": 0
                    },
                    {
                        "number": 64,
                        "time": 34.51943797500006,
                        "value": 1
                    },
                    {
                        "number": 64,
                        "time": 35.84774416666673,
                        "value": 0
                    },
                    {
                        "number": 64,
                        "time": 35.96843396666673,
                        "value": 1
                    },
                    {
                        "number": 64,
                        "time": 37.24645274166674,
                        "value": 0
                    },
                    {
                        "number": 64,
                        "time": 37.33265974166674,
                        "value": 1
                    },
                    {
                        "number": 64,
                        "time": 38.60636816666674,
                        "value": 0
                    },
                    {
                        "number": 64,
                        "time": 38.69473034166674,
                        "value": 1
                    },
                    {
                        "number": 64,
                        "time": 40.00507674166674,
                        "value": 0
                    },
                    {
                        "number": 64,
                        "time": 40.08625500000007,
                        "value": 1
                    },
                    {
                        "number": 64,
                        "time": 41.36499216666674,
                        "value": 0
                    },
                    {
                        "number": 64,
                        "time": 41.449043991666734,
                        "value": 1
                    },
                    {
                        "number": 64,
                        "time": 42.76154556666673,
                        "value": 0
                    },
                    {
                        "number": 64,
                        "time": 42.8161433333334,
                        "value": 1
                    },
                    {
                        "number": 64,
                        "time": 44.123616166666736,
                        "value": 0
                    },
                    {
                        "number": 64,
                        "time": 44.20766799166673,
                        "value": 1
                    },
                    {
                        "number": 64,
                        "time": 45.52160635000006,
                        "value": 0
                    },
                    {
                        "number": 64,
                        "time": 45.582669641666726,
                        "value": 1
                    },
                    {
                        "number": 64,
                        "time": 46.882240166666726,
                        "value": 0
                    },
                    {
                        "number": 64,
                        "time": 46.96629199166672,
                        "value": 1
                    },
                    {
                        "number": 64,
                        "time": 49.640864166666724,
                        "value": 0
                    },
                    {
                        "number": 64,
                        "time": 49.71270333333339,
                        "value": 1
                    },
                    {
                        "number": 64,
                        "time": 51.03885435000006,
                        "value": 0
                    },
                    {
                        "number": 64,
                        "time": 51.11069351666672,
                        "value": 1
                    },
                    {
                        "number": 64,
                        "time": 52.39948816666673,
                        "value": 0
                    },
                    {
                        "number": 64,
                        "time": 52.48210320833339,
                        "value": 1
                    },
                    {
                        "number": 64,
                        "time": 53.799633525000075,
                        "value": 0
                    },
                    {
                        "number": 64,
                        "time": 53.859260033333406,
                        "value": 1
                    },
                    {
                        "number": 64,
                        "time": 55.15811216666674,
                        "value": 0
                    },
                    {
                        "number": 64,
                        "time": 55.21773867500007,
                        "value": 1
                    },
                    {
                        "number": 64,
                        "time": 56.55394717500008,
                        "value": 0
                    },
                    {
                        "number": 64,
                        "time": 56.62291277500008,
                        "value": 1
                    },
                    {
                        "number": 64,
                        "time": 57.25078709166675,
                        "value": 0
                    },
                    {
                        "number": 64,
                        "time": 57.33771248333342,
                        "value": 1
                    },
                    {
                        "number": 64,
                        "time": 57.93828791666675,
                        "value": 0
                    },
                    {
                        "number": 64,
                        "time": 58.00725351666675,
                        "value": 1
                    },
                    {
                        "number": 64,
                        "time": 58.627225525000085,
                        "value": 0
                    },
                    {
                        "number": 64,
                        "time": 58.681104900000086,
                        "value": 1
                    },
                    {
                        "number": 64,
                        "time": 59.31759991666676,
                        "value": 0
                    },
                    {
                        "number": 64,
                        "time": 59.39159425833343,
                        "value": 1
                    },
                    {
                        "number": 64,
                        "time": 60.007255916666765,
                        "value": 0
                    },
                    {
                        "number": 64,
                        "time": 60.0711927750001,
                        "value": 1
                    },
                    {
                        "number": 64,
                        "time": 60.694756741666765,
                        "value": 0
                    },
                    {
                        "number": 64,
                        "time": 60.745044158333435,
                        "value": 1
                    },
                    {
                        "number": 64,
                        "time": 62.054672166666776,
                        "value": 0
                    },
                    {
                        "number": 64,
                        "time": 62.11429867500011,
                        "value": 1
                    },
                    {
                        "number": 64,
                        "time": 63.43398416666678,
                        "value": 0
                    },
                    {
                        "number": 64,
                        "time": 63.50151298333345,
                        "value": 1
                    },
                    {
                        "number": 64,
                        "time": 65.87005030833345,
                        "value": 0
                    },
                    {
                        "number": 64,
                        "time": 65.9030963250001,
                        "value": 1
                    },
                    {
                        "number": 64,
                        "time": 66.19260816666677,
                        "value": 0
                    },
                    {
                        "number": 64,
                        "time": 66.27306803333344,
                        "value": 1
                    },
                    {
                        "number": 64,
                        "time": 68.95123216666678,
                        "value": 0
                    },
                    {
                        "number": 64,
                        "time": 69.03672077500012,
                        "value": 1
                    },
                    {
                        "number": 64,
                        "time": 70.3520959166668,
                        "value": 0
                    },
                    {
                        "number": 64,
                        "time": 70.40525690000013,
                        "value": 1
                    },
                    {
                        "number": 64,
                        "time": 71.7098561666668,
                        "value": 0
                    },
                    {
                        "number": 64,
                        "time": 71.76948267500013,
                        "value": 1
                    },
                    {
                        "number": 64,
                        "time": 73.10569117500016,
                        "value": 0
                    },
                    {
                        "number": 64,
                        "time": 73.17321999166683,
                        "value": 1
                    },
                    {
                        "number": 64,
                        "time": 74.46848016666682,
                        "value": 0
                    },
                    {
                        "number": 64,
                        "time": 74.53600898333349,
                        "value": 1
                    },
                    {
                        "number": 64,
                        "time": 75.86647035000016,
                        "value": 0
                    },
                    {
                        "number": 64,
                        "time": 75.91532098333349,
                        "value": 1
                    },
                    {
                        "number": 64,
                        "time": 77.22710416666682,
                        "value": 0
                    },
                    {
                        "number": 64,
                        "time": 77.30756403333349,
                        "value": 1
                    },
                    {
                        "number": 64,
                        "time": 79.98572816666683,
                        "value": 0
                    },
                    {
                        "number": 64,
                        "time": 80.08127425833351,
                        "value": 1
                    },
                    {
                        "number": 64,
                        "time": 81.38299995833351,
                        "value": 0
                    },
                    {
                        "number": 64,
                        "time": 81.44478164166685,
                        "value": 1
                    },
                    {
                        "number": 64,
                        "time": 82.07337435000018,
                        "value": 0
                    },
                    {
                        "number": 64,
                        "time": 82.12150659166684,
                        "value": 1
                    },
                    {
                        "number": 64,
                        "time": 82.74435216666684,
                        "value": 0
                    },
                    {
                        "number": 64,
                        "time": 82.83989825833352,
                        "value": 1
                    },
                    {
                        "number": 64,
                        "time": 84.14234235000019,
                        "value": 0
                    },
                    {
                        "number": 64,
                        "time": 84.20412403333353,
                        "value": 1
                    },
                    {
                        "number": 64,
                        "time": 85.50297616666685,
                        "value": 0
                    },
                    {
                        "number": 64,
                        "time": 85.56906820000019,
                        "value": 1
                    },
                    {
                        "number": 64,
                        "time": 86.90024795833354,
                        "value": 0
                    },
                    {
                        "number": 64,
                        "time": 86.95771929166688,
                        "value": 1
                    },
                    {
                        "number": 64,
                        "time": 87.58918556666687,
                        "value": 0
                    },
                    {
                        "number": 64,
                        "time": 87.6380362000002,
                        "value": 1
                    },
                    {
                        "number": 64,
                        "time": 88.26160016666687,
                        "value": 0
                    },
                    {
                        "number": 64,
                        "time": 88.32481863333354,
                        "value": 1
                    },
                    {
                        "number": 64,
                        "time": 91.02022416666688,
                        "value": 0
                    },
                    {
                        "number": 64,
                        "time": 91.10571277500021,
                        "value": 1
                    },
                    {
                        "number": 64,
                        "time": 92.41821435000023,
                        "value": 0
                    },
                    {
                        "number": 64,
                        "time": 92.49005351666689,
                        "value": 1
                    },
                    {
                        "number": 64,
                        "time": 93.77884816666689,
                        "value": 0
                    },
                    {
                        "number": 64,
                        "time": 93.8585896416669,
                        "value": 1
                    },
                    {
                        "number": 64,
                        "time": 95.17611995833357,
                        "value": 0
                    },
                    {
                        "number": 64,
                        "time": 95.2465223416669,
                        "value": 1
                    },
                    {
                        "number": 64,
                        "time": 95.8693679166669,
                        "value": 0
                    },
                    {
                        "number": 64,
                        "time": 95.9232472916669,
                        "value": 1
                    },
                    {
                        "number": 64,
                        "time": 96.5374721666669,
                        "value": 0
                    },
                    {
                        "number": 64,
                        "time": 96.63301825833358,
                        "value": 1
                    },
                    {
                        "number": 64,
                        "time": 97.91678416666691,
                        "value": 0
                    },
                    {
                        "number": 64,
                        "time": 97.98862333333359,
                        "value": 1
                    },
                    {
                        "number": 64,
                        "time": 98.6265551333336,
                        "value": 0
                    },
                    {
                        "number": 64,
                        "time": 98.6696586333336,
                        "value": 1
                    },
                    {
                        "number": 64,
                        "time": 99.29609616666693,
                        "value": 0
                    },
                    {
                        "number": 64,
                        "time": 99.38014799166693,
                        "value": 1
                    },
                    {
                        "number": 64,
                        "time": 100.69264956666694,
                        "value": 0
                    },
                    {
                        "number": 64,
                        "time": 100.77598300000028,
                        "value": 1
                    },
                    {
                        "number": 64,
                        "time": 102.05472016666695,
                        "value": 0
                    },
                    {
                        "number": 64,
                        "time": 102.1552950000003,
                        "value": 1
                    },
                    {
                        "number": 64,
                        "time": 103.45127356666696,
                        "value": 0
                    },
                    {
                        "number": 64,
                        "time": 103.52454951666695,
                        "value": 1
                    },
                    {
                        "number": 64,
                        "time": 104.81334416666695,
                        "value": 0
                    },
                    {
                        "number": 64,
                        "time": 104.91391900000029,
                        "value": 1
                    },
                    {
                        "number": 64,
                        "time": 110.0001320000003,
                        "value": 0
                    }
                ]
            },
            "id": 2,
            "name": "Piano left",
            "instrumentNumber": 0,
            "instrument": "acoustic grand piano",
            "instrumentFamily": "piano",
            "channelNumber": 0,
            "isPercussion": false
        },
        {
            "startTime": 0,
            "duration": 0,
            "length": 0,
            "notes": [],
            "controlChanges": {},
            "id": 3,
            "name": "Chopin: Etude Op, 10, No. 1"
        },
        {
            "startTime": 0,
            "duration": 0,
            "length": 0,
            "notes": [],
            "controlChanges": {},
            "id": 4,
            "name": "Copyright © 1999 by Bernd Krüger"
        },
        {
            "startTime": 0,
            "duration": 0,
            "length": 0,
            "notes": [],
            "controlChanges": {},
            "id": 5,
            "name": "http://www.piano-midi.de"
        },
        {
            "startTime": 0,
            "duration": 0,
            "length": 0,
            "notes": [],
            "controlChanges": {},
            "id": 6,
            "name": "Edition: 12.6.06"
        }
    ]
}