{
    "header": {
        "PPQ": 480,
        "timeSignature": [
            3,
            8
        ],
        "bpm": 129.54011101587514,
        "name": "Chopin Prelude  No. 12, Opus 28"
    },
    "startTime": 0,
    "duration": 55.69703424999995,
    "tracks": [
        {
            "startTime": 0,
            "duration": 0,
            "length": 0,
            "notes": [],
            "controlChanges": {},
            "id": 0,
            "name": "Chopin Prelude  No. 12, Opus 28"
        },
        {
            "startTime": 0.0009649520833333333,
            "duration": 55.58123999999973,
            "length": 760,
            "notes": [
                {
                    "name": "D#4",
                    "midi": 63,
                    "time": 0.0009649520833333333,
                    "velocity": 0.4409448818897638,
                    "duration": 0.11579425
                },
                {
                    "name": "B3",
                    "midi": 59,
                    "time": 0.0009649520833333333,
                    "velocity": 0.3779527559055118,
                    "duration": 0.17272642291666665
                },
                {
                    "name": "E4",
                    "midi": 64,
                    "time": 0.11579425,
                    "velocity": 0.33070866141732286,
                    "duration": 0.05789712499999998
                },
                {
                    "name": "B3",
                    "midi": 59,
                    "time": 0.23158849999999997,
                    "velocity": 0.33858267716535434,
                    "duration": 0.17369137499999998
                },
                {
                    "name": "E4",
                    "midi": 64,
                    "time": 0.23158849999999997,
                    "velocity": 0.4015748031496063,
                    "duration": 0.11579424999999999
                },
                {
                    "name": "F4",
                    "midi": 65,
                    "time": 0.34738274999999996,
                    "velocity": 0.33858267716535434,
                    "duration": 0.057897124999999994
                },
                {
                    "name": "B3",
                    "midi": 59,
                    "time": 0.46317699999999995,
                    "velocity": 0.3464566929133858,
                    "duration": 0.17369137499999998
                },
                {
                    "name": "D#4",
                    "midi": 63,
                    "time": 0.46317699999999995,
                    "velocity": 0.3464566929133858,
                    "duration": 0.17369137499999998
                },
                {
                    "name": "F4",
                    "midi": 65,
                    "time": 0.46317699999999995,
                    "velocity": 0.4094488188976378,
                    "duration": 0.11579424999999999
                },
                {
                    "name": "F#4",
                    "midi": 66,
                    "time": 0.5789712499999999,
                    "velocity": 0.3464566929133858,
                    "duration": 0.057897124999999994
                },
                {
                    "name": "B3",
                    "midi": 59,
                    "time": 0.6947654999999999,
                    "velocity": 0.3464566929133858,
                    "duration": 0.17369137499999998
                },
                {
                    "name": "D#4",
                    "midi": 63,
                    "time": 0.6947654999999999,
                    "velocity": 0.3464566929133858,
                    "duration": 0.17369137499999998
                },
                {
                    "name": "F#4",
                    "midi": 66,
                    "time": 0.6947654999999999,
                    "velocity": 0.41732283464566927,
                    "duration": 0.11579424999999999
                },
                {
                    "name": "G4",
                    "midi": 67,
                    "time": 0.8105597499999999,
                    "velocity": 0.36220472440944884,
                    "duration": 0.057897124999999994
                },
                {
                    "name": "B3",
                    "midi": 59,
                    "time": 0.9263539999999999,
                    "velocity": 0.3700787401574803,
                    "duration": 0.17369137499999998
                },
                {
                    "name": "D#4",
                    "midi": 63,
                    "time": 0.9263539999999999,
                    "velocity": 0.3700787401574803,
                    "duration": 0.17369137499999998
                },
                {
                    "name": "G4",
                    "midi": 67,
                    "time": 0.9263539999999999,
                    "velocity": 0.4409448818897638,
                    "duration": 0.11579424999999999
                },
                {
                    "name": "G#4",
                    "midi": 68,
                    "time": 1.0421482499999999,
                    "velocity": 0.3700787401574803,
                    "duration": 0.057897124999999994
                },
                {
                    "name": "B3",
                    "midi": 59,
                    "time": 1.1579424999999999,
                    "velocity": 0.3779527559055118,
                    "duration": 0.17369137499999998
                },
                {
                    "name": "D#4",
                    "midi": 63,
                    "time": 1.1579424999999999,
                    "velocity": 0.3779527559055118,
                    "duration": 0.17369137499999998
                },
                {
                    "name": "G#4",
                    "midi": 68,
                    "time": 1.1579424999999999,
                    "velocity": 0.44881889763779526,
                    "duration": 0.11579424999999999
                },
                {
                    "name": "A4",
                    "midi": 69,
                    "time": 1.2737367499999999,
                    "velocity": 0.3779527559055118,
                    "duration": 0.057897124999999994
                },
                {
                    "name": "D#4",
                    "midi": 63,
                    "time": 1.3895309999999998,
                    "velocity": 0.3937007874015748,
                    "duration": 0.17369137499999998
                },
                {
                    "name": "A4",
                    "midi": 69,
                    "time": 1.3895309999999998,
                    "velocity": 0.4645669291338583,
                    "duration": 0.11579424999999999
                },
                {
                    "name": "A#4",
                    "midi": 70,
                    "time": 1.5053252499999998,
                    "velocity": 0.4094488188976378,
                    "duration": 0.057897124999999994
                },
                {
                    "name": "D#4",
                    "midi": 63,
                    "time": 1.6211194999999998,
                    "velocity": 0.4094488188976378,
                    "duration": 0.17369137499999998
                },
                {
                    "name": "A#4",
                    "midi": 70,
                    "time": 1.6211194999999998,
                    "velocity": 0.48031496062992124,
                    "duration": 0.11579424999999999
                },
                {
                    "name": "B4",
                    "midi": 71,
                    "time": 1.7369137499999998,
                    "velocity": 0.4251968503937008,
                    "duration": 0.057897124999999994
                },
                {
                    "name": "D#4",
                    "midi": 63,
                    "time": 1.8527079999999998,
                    "velocity": 0.4330708661417323,
                    "duration": 0.1736913750000002
                },
                {
                    "name": "G#4",
                    "midi": 68,
                    "time": 1.8527079999999998,
                    "velocity": 0.5196850393700787,
                    "duration": 0.1736913750000002
                },
                {
                    "name": "B4",
                    "midi": 71,
                    "time": 1.8527079999999998,
                    "velocity": 0.5196850393700787,
                    "duration": 0.11579424999999999
                },
                {
                    "name": "C5",
                    "midi": 72,
                    "time": 1.9685022499999998,
                    "velocity": 0.4409448818897638,
                    "duration": 0.057897125000000216
                },
                {
                    "name": "G#4",
                    "midi": 68,
                    "time": 2.0842965,
                    "velocity": 0.4566929133858268,
                    "duration": 0.1736913750000002
                },
                {
                    "name": "D#4",
                    "midi": 63,
                    "time": 2.0842965,
                    "velocity": 0.4566929133858268,
                    "duration": 0.1736913750000002
                },
                {
                    "name": "C5",
                    "midi": 72,
                    "time": 2.0842965,
                    "velocity": 0.5433070866141733,
                    "duration": 0.11579424999999999
                },
                {
                    "name": "C#5",
                    "midi": 73,
                    "time": 2.20009075,
                    "velocity": 0.4645669291338583,
                    "duration": 0.057897125000000216
                },
                {
                    "name": "D#4",
                    "midi": 63,
                    "time": 2.3158850000000006,
                    "velocity": 0.48031496062992124,
                    "duration": 0.1736913750000002
                },
                {
                    "name": "G#4",
                    "midi": 68,
                    "time": 2.3158850000000006,
                    "velocity": 0.48031496062992124,
                    "duration": 0.1736913750000002
                },
                {
                    "name": "C#5",
                    "midi": 73,
                    "time": 2.3158850000000006,
                    "velocity": 0.5590551181102362,
                    "duration": 0.11579424999999999
                },
                {
                    "name": "D5",
                    "midi": 74,
                    "time": 2.4316792500000006,
                    "velocity": 0.4881889763779528,
                    "duration": 0.057897125000000216
                },
                {
                    "name": "D#4",
                    "midi": 63,
                    "time": 2.547473500000001,
                    "velocity": 0.4881889763779528,
                    "duration": 0.1736913750000002
                },
                {
                    "name": "G#4",
                    "midi": 68,
                    "time": 2.547473500000001,
                    "velocity": 0.4881889763779528,
                    "duration": 0.1736913750000002
                },
                {
                    "name": "D5",
                    "midi": 74,
                    "time": 2.547473500000001,
                    "velocity": 0.5905511811023622,
                    "duration": 0.11579424999999999
                },
                {
                    "name": "D#5",
                    "midi": 75,
                    "time": 2.663267750000001,
                    "velocity": 0.5196850393700787,
                    "duration": 0.057897125000000216
                },
                {
                    "name": "D#4",
                    "midi": 63,
                    "time": 2.7790620000000015,
                    "velocity": 0.5354330708661418,
                    "duration": 0.1736913750000002
                },
                {
                    "name": "A#4",
                    "midi": 70,
                    "time": 2.7790620000000015,
                    "velocity": 0.5354330708661418,
                    "duration": 0.1736913750000002
                },
                {
                    "name": "D#5",
                    "midi": 75,
                    "time": 2.7790620000000015,
                    "velocity": 0.6377952755905512,
                    "duration": 0.11579424999999999
                },
                {
                    "name": "E5",
                    "midi": 76,
                    "time": 2.8948562500000015,
                    "velocity": 0.6062992125984252,
                    "duration": 0.057897125000000216
                },
                {
                    "name": "A#4",
                    "midi": 70,
                    "time": 3.010650500000002,
                    "velocity": 0.5433070866141733,
                    "duration": 0.1736913750000002
                },
                {
                    "name": "E5",
                    "midi": 76,
                    "time": 3.010650500000002,
                    "velocity": 0.6456692913385826,
                    "duration": 0.11579424999999999
                },
                {
                    "name": "D#5",
                    "midi": 75,
                    "time": 3.126444750000002,
                    "velocity": 0.6141732283464567,
                    "duration": 0.057897125000000216
                },
                {
                    "name": "D#4",
                    "midi": 63,
                    "time": 3.2422390000000023,
                    "velocity": 0.5511811023622047,
                    "duration": 0.1736913750000002
                },
                {
                    "name": "A#4",
                    "midi": 70,
                    "time": 3.2422390000000023,
                    "velocity": 0.5511811023622047,
                    "duration": 0.1736913750000002
                },
                {
                    "name": "D#5",
                    "midi": 75,
                    "time": 3.2422390000000023,
                    "velocity": 0.6614173228346457,
                    "duration": 0.11579424999999999
                },
                {
                    "name": "C#5",
                    "midi": 73,
                    "time": 3.3580332500000023,
                    "velocity": 0.6614173228346457,
                    "duration": 0.057897125000000216
                },
                {
                    "name": "D#4",
                    "midi": 63,
                    "time": 3.4738275000000027,
                    "velocity": 0.5433070866141733,
                    "duration": 0.1736913750000002
                },
                {
                    "name": "G#4",
                    "midi": 68,
                    "time": 3.4738275000000027,
                    "velocity": 0.5433070866141733,
                    "duration": 0.1736913750000002
                },
                {
                    "name": "C#5",
                    "midi": 73,
                    "time": 3.4738275000000027,
                    "velocity": 0.6456692913385826,
                    "duration": 0.11579424999999999
                },
                {
                    "name": "B4",
                    "midi": 71,
                    "time": 3.5896217500000027,
                    "velocity": 0.6220472440944882,
                    "duration": 0.057897125000000216
                },
                {
                    "name": "D#4",
                    "midi": 63,
                    "time": 3.705416000000003,
                    "velocity": 0.5511811023622047,
                    "duration": 0.1736913750000002
                },
                {
                    "name": "G#4",
                    "midi": 68,
                    "time": 3.705416000000003,
                    "velocity": 0.5511811023622047,
                    "duration": 0.1736913750000002
                },
                {
                    "name": "B4",
                    "midi": 71,
                    "time": 3.705416000000003,
                    "velocity": 0.6535433070866141,
                    "duration": 0.11579424999999999
                },
                {
                    "name": "C#5",
                    "midi": 73,
                    "time": 3.821210250000003,
                    "velocity": 0.6220472440944882,
                    "duration": 0.057897125000000216
                },
                {
                    "name": "D#4",
                    "midi": 63,
                    "time": 3.9370045000000036,
                    "velocity": 0.5669291338582677,
                    "duration": 0.1736913750000002
                },
                {
                    "name": "G#4",
                    "midi": 68,
                    "time": 3.9370045000000036,
                    "velocity": 0.5669291338582677,
                    "duration": 0.1736913750000002
                },
                {
                    "name": "C#5",
                    "midi": 73,
                    "time": 3.9370045000000036,
                    "velocity": 0.6692913385826772,
                    "duration": 0.11579424999999999
                },
                {
                    "name": "D#5",
                    "midi": 75,
                    "time": 4.052798750000004,
                    "velocity": 0.6771653543307087,
                    "duration": 0.057897125000000216
                },
                {
                    "name": "E4",
                    "midi": 64,
                    "time": 4.168593000000004,
                    "velocity": 0.5748031496062992,
                    "duration": 0.17369137500000065
                },
                {
                    "name": "G#4",
                    "midi": 68,
                    "time": 4.168593000000004,
                    "velocity": 0.5748031496062992,
                    "duration": 0.17369137500000065
                },
                {
                    "name": "D#5",
                    "midi": 75,
                    "time": 4.168593000000004,
                    "velocity": 0.6850393700787402,
                    "duration": 0.11579425000000043
                },
                {
                    "name": "C#5",
                    "midi": 73,
                    "time": 4.284387250000004,
                    "velocity": 0.6771653543307087,
                    "duration": 0.057897125000000216
                },
                {
                    "name": "E4",
                    "midi": 64,
                    "time": 4.400181500000005,
                    "velocity": 0.5590551181102362,
                    "duration": 0.17369137500000065
                },
                {
                    "name": "G#4",
                    "midi": 68,
                    "time": 4.400181500000005,
                    "velocity": 0.5590551181102362,
                    "duration": 0.17369137500000065
                },
                {
                    "name": "C#5",
                    "midi": 73,
                    "time": 4.400181500000005,
                    "velocity": 0.6614173228346457,
                    "duration": 0.11579425000000043
                },
                {
                    "name": "B4",
                    "midi": 71,
                    "time": 4.515975750000005,
                    "velocity": 0.6535433070866141,
                    "duration": 0.057897125000000216
                },
                {
                    "name": "C#4",
                    "midi": 61,
                    "time": 4.631770000000006,
                    "velocity": 0.5354330708661418,
                    "duration": 0.17369137500000065
                },
                {
                    "name": "E4",
                    "midi": 64,
                    "time": 4.631770000000006,
                    "velocity": 0.5354330708661418,
                    "duration": 0.17369137500000065
                },
                {
                    "name": "B4",
                    "midi": 71,
                    "time": 4.631770000000006,
                    "velocity": 0.6377952755905512,
                    "duration": 0.11579425000000043
                },
                {
                    "name": "A#4",
                    "midi": 70,
                    "time": 4.747564250000006,
                    "velocity": 0.6299212598425197,
                    "duration": 0.057897125000000216
                },
                {
                    "name": "C#4",
                    "midi": 61,
                    "time": 4.863358500000007,
                    "velocity": 0.6220472440944882,
                    "duration": 0.23158850000000086
                },
                {
                    "name": "B4",
                    "midi": 71,
                    "time": 4.979152750000007,
                    "velocity": 0.5433070866141733,
                    "duration": 0.11579425000000043
                },
                {
                    "name": "B4",
                    "midi": 71,
                    "time": 5.094947000000007,
                    "velocity": 0.5196850393700787,
                    "duration": 0.11579425000000043
                },
                {
                    "name": "C#4",
                    "midi": 61,
                    "time": 5.094947000000007,
                    "velocity": 0.4330708661417323,
                    "duration": 0.23158850000000086
                },
                {
                    "name": "A#4",
                    "midi": 70,
                    "time": 5.210741250000008,
                    "velocity": 0.4881889763779528,
                    "duration": 0.11579425000000043
                },
                {
                    "name": "A#4",
                    "midi": 70,
                    "time": 5.326535500000008,
                    "velocity": 0.44881889763779526,
                    "duration": 0.11579425000000043
                },
                {
                    "name": "C#4",
                    "midi": 61,
                    "time": 5.326535500000008,
                    "velocity": 0.3779527559055118,
                    "duration": 0.23158850000000086
                },
                {
                    "name": "D#4",
                    "midi": 63,
                    "time": 5.442329750000009,
                    "velocity": 0.4251968503937008,
                    "duration": 0.11579425000000043
                },
                {
                    "name": "B3",
                    "midi": 59,
                    "time": 5.558124000000009,
                    "velocity": 0.3543307086614173,
                    "duration": 0.17369137500000065
                },
                {
                    "name": "D#4",
                    "midi": 63,
                    "time": 5.558124000000009,
                    "velocity": 0.41732283464566927,
                    "duration": 0.11579425000000043
                },
                {
                    "name": "E4",
                    "midi": 64,
                    "time": 5.67391825000001,
                    "velocity": 0.3543307086614173,
                    "duration": 0.057897125000000216
                },
                {
                    "name": "B3",
                    "midi": 59,
                    "time": 5.78971250000001,
                    "velocity": 0.3543307086614173,
                    "duration": 0.17369137500000065
                },
                {
                    "name": "E4",
                    "midi": 64,
                    "time": 5.78971250000001,
                    "velocity": 0.4251968503937008,
                    "duration": 0.11579425000000043
                },
                {
                    "name": "F4",
                    "midi": 65,
                    "time": 5.9055067500000105,
                    "velocity": 0.3543307086614173,
                    "duration": 0.057897125000000216
                },
                {
                    "name": "B3",
                    "midi": 59,
                    "time": 6.021301000000011,
                    "velocity": 0.36220472440944884,
                    "duration": 0.17369137500000065
                },
                {
                    "name": "D#4",
                    "midi": 63,
                    "time": 6.021301000000011,
                    "velocity": 0.36220472440944884,
                    "duration": 0.17369137500000065
                },
                {
                    "name": "F4",
                    "midi": 65,
                    "time": 6.021301000000011,
                    "velocity": 0.4330708661417323,
                    "duration": 0.11579425000000043
                },
                {
                    "name": "F#4",
                    "midi": 66,
                    "time": 6.137095250000011,
                    "velocity": 0.3700787401574803,
                    "duration": 0.057897125000000216
                },
                {
                    "name": "B3",
                    "midi": 59,
                    "time": 6.252889500000012,
                    "velocity": 0.3700787401574803,
                    "duration": 0.17369137500000065
                },
                {
                    "name": "D#4",
                    "midi": 63,
                    "time": 6.252889500000012,
                    "velocity": 0.3700787401574803,
                    "duration": 0.17369137500000065
                },
                {
                    "name": "F#4",
                    "midi": 66,
                    "time": 6.252889500000012,
                    "velocity": 0.44881889763779526,
                    "duration": 0.11579425000000043
                },
                {
                    "name": "G4",
                    "midi": 67,
                    "time": 6.368683750000012,
                    "velocity": 0.3779527559055118,
                    "duration": 0.057897125000000216
                },
                {
                    "name": "B3",
                    "midi": 59,
                    "time": 6.484478000000013,
                    "velocity": 0.3858267716535433,
                    "duration": 0.17369137500000065
                },
                {
                    "name": "D#4",
                    "midi": 63,
                    "time": 6.484478000000013,
                    "velocity": 0.3858267716535433,
                    "duration": 0.17369137500000065
                },
                {
                    "name": "G4",
                    "midi": 67,
                    "time": 6.484478000000013,
                    "velocity": 0.4566929133858268,
                    "duration": 0.11579425000000043
                },
                {
                    "name": "G#4",
                    "midi": 68,
                    "time": 6.600272250000013,
                    "velocity": 0.3937007874015748,
                    "duration": 0.057897125000000216
                },
                {
                    "name": "B3",
                    "midi": 59,
                    "time": 6.7160665000000135,
                    "velocity": 0.3937007874015748,
                    "duration": 0.17369137500000065
                },
                {
                    "name": "D#4",
                    "midi": 63,
                    "time": 6.7160665000000135,
                    "velocity": 0.3937007874015748,
                    "duration": 0.17369137500000065
                },
                {
                    "name": "G#4",
                    "midi": 68,
                    "time": 6.7160665000000135,
                    "velocity": 0.47244094488188976,
                    "duration": 0.11579425000000043
                },
                {
                    "name": "A4",
                    "midi": 69,
                    "time": 6.831860750000014,
                    "velocity": 0.3937007874015748,
                    "duration": 0.057897125000000216
                },
                {
                    "name": "B3",
                    "midi": 59,
                    "time": 6.947655000000014,
                    "velocity": 0.4094488188976378,
                    "duration": 0.17369137500000065
                },
                {
                    "name": "E4",
                    "midi": 64,
                    "time": 6.947655000000014,
                    "velocity": 0.4094488188976378,
                    "duration": 0.17369137500000065
                },
                {
                    "name": "A4",
                    "midi": 69,
                    "time": 6.947655000000014,
                    "velocity": 0.4881889763779528,
                    "duration": 0.11579425000000043
                },
                {
                    "name": "A#4",
                    "midi": 70,
                    "time": 7.063449250000015,
                    "velocity": 0.4251968503937008,
                    "duration": 0.057897125000000216
                },
                {
                    "name": "B3",
                    "midi": 59,
                    "time": 7.179243500000015,
                    "velocity": 0.4251968503937008,
                    "duration": 0.17369137500000065
                },
                {
                    "name": "E4",
                    "midi": 64,
                    "time": 7.179243500000015,
                    "velocity": 0.4251968503937008,
                    "duration": 0.17369137500000065
                },
                {
                    "name": "A#4",
                    "midi": 70,
                    "time": 7.179243500000015,
                    "velocity": 0.5039370078740157,
                    "duration": 0.11579425000000043
                },
                {
                    "name": "B4",
                    "midi": 71,
                    "time": 7.295037750000016,
                    "velocity": 0.4409448818897638,
                    "duration": 0.057897125000000216
                },
                {
                    "name": "B3",
                    "midi": 59,
                    "time": 7.410832000000016,
                    "velocity": 0.44881889763779526,
                    "duration": 0.17369137500000065
                },
                {
                    "name": "E4",
                    "midi": 64,
                    "time": 7.410832000000016,
                    "velocity": 0.5354330708661418,
                    "duration": 0.17369137500000065
                },
                {
                    "name": "B4",
                    "midi": 71,
                    "time": 7.410832000000016,
                    "velocity": 0.5354330708661418,
                    "duration": 0.11579425000000043
                },
                {
                    "name": "C5",
                    "midi": 72,
                    "time": 7.5266262500000165,
                    "velocity": 0.4645669291338583,
                    "duration": 0.057897125000000216
                },
                {
                    "name": "F4",
                    "midi": 65,
                    "time": 7.642420500000017,
                    "velocity": 0.4881889763779528,
                    "duration": 0.17369137500000065
                },
                {
                    "name": "C5",
                    "midi": 72,
                    "time": 7.642420500000017,
                    "velocity": 0.5748031496062992,
                    "duration": 0.11579425000000043
                },
                {
                    "name": "C#5",
                    "midi": 73,
                    "time": 7.758214750000017,
                    "velocity": 0.5433070866141733,
                    "duration": 0.057897125000000216
                },
                {
                    "name": "F4",
                    "midi": 65,
                    "time": 7.874009000000018,
                    "velocity": 0.5039370078740157,
                    "duration": 0.17369137499999976
                },
                {
                    "name": "C#5",
                    "midi": 73,
                    "time": 7.874009000000018,
                    "velocity": 0.5984251968503937,
                    "duration": 0.11579425000000043
                },
                {
                    "name": "D5",
                    "midi": 74,
                    "time": 7.989803250000018,
                    "velocity": 0.5590551181102362,
                    "duration": 0.05789712499999933
                },
                {
                    "name": "F4",
                    "midi": 65,
                    "time": 8.105597500000018,
                    "velocity": 0.5196850393700787,
                    "duration": 0.17369137500000065
                },
                {
                    "name": "B4",
                    "midi": 71,
                    "time": 8.105597500000018,
                    "velocity": 0.6299212598425197,
                    "duration": 0.17369137500000065
                },
                {
                    "name": "D5",
                    "midi": 74,
                    "time": 8.221391750000018,
                    "velocity": 0.5905511811023622,
                    "duration": 0.057897125000000216
                },
                {
                    "name": "F#4",
                    "midi": 66,
                    "time": 8.337186000000019,
                    "velocity": 0.5984251968503937,
                    "duration": 0.17369137500000065
                },
                {
                    "name": "B4",
                    "midi": 71,
                    "time": 8.337186000000019,
                    "velocity": 0.5984251968503937,
                    "duration": 0.17369137500000065
                },
                {
                    "name": "D#5",
                    "midi": 75,
                    "time": 8.337186000000019,
                    "velocity": 0.7086614173228346,
                    "duration": 0.11579425000000043
                },
                {
                    "name": "E5",
                    "midi": 76,
                    "time": 8.452980250000019,
                    "velocity": 0.6692913385826772,
                    "duration": 0.057897125000000216
                },
                {
                    "name": "F#4",
                    "midi": 66,
                    "time": 8.56877450000002,
                    "velocity": 0.5905511811023622,
                    "duration": 0.17369137500000065
                },
                {
                    "name": "B4",
                    "midi": 71,
                    "time": 8.56877450000002,
                    "velocity": 0.5905511811023622,
                    "duration": 0.17369137500000065
                },
                {
                    "name": "E5",
                    "midi": 76,
                    "time": 8.56877450000002,
                    "velocity": 0.7007874015748031,
                    "duration": 0.11579425000000043
                },
                {
                    "name": "D#5",
                    "midi": 75,
                    "time": 8.68456875000002,
                    "velocity": 0.6850393700787402,
                    "duration": 0.057897125000000216
                },
                {
                    "name": "F#4",
                    "midi": 66,
                    "time": 8.80036300000002,
                    "velocity": 0.5984251968503937,
                    "duration": 0.17369137500000065
                },
                {
                    "name": "B4",
                    "midi": 71,
                    "time": 8.80036300000002,
                    "velocity": 0.5984251968503937,
                    "duration": 0.17369137500000065
                },
                {
                    "name": "D#5",
                    "midi": 75,
                    "time": 8.80036300000002,
                    "velocity": 0.7086614173228346,
                    "duration": 0.11579425000000043
                },
                {
                    "name": "F#5",
                    "midi": 78,
                    "time": 8.91615725000002,
                    "velocity": 0.6929133858267716,
                    "duration": 0.057897125000000216
                },
                {
                    "name": "F#4",
                    "midi": 66,
                    "time": 9.031951500000021,
                    "velocity": 0.5984251968503937,
                    "duration": 0.17369137500000065
                },
                {
                    "name": "A#4",
                    "midi": 70,
                    "time": 9.031951500000021,
                    "velocity": 0.5984251968503937,
                    "duration": 0.17369137500000065
                },
                {
                    "name": "F#5",
                    "midi": 78,
                    "time": 9.031951500000021,
                    "velocity": 0.7086614173228346,
                    "duration": 0.11579425000000043
                },
                {
                    "name": "C#5",
                    "midi": 73,
                    "time": 9.147745750000022,
                    "velocity": 0.6692913385826772,
                    "duration": 0.057897125000000216
                },
                {
                    "name": "F#4",
                    "midi": 66,
                    "time": 9.263540000000022,
                    "velocity": 0.5905511811023622,
                    "duration": 0.17369137500000065
                },
                {
                    "name": "A#4",
                    "midi": 70,
                    "time": 9.263540000000022,
                    "velocity": 0.5905511811023622,
                    "duration": 0.17369137500000065
                },
                {
                    "name": "C#5",
                    "midi": 73,
                    "time": 9.263540000000022,
                    "velocity": 0.7007874015748031,
                    "duration": 0.11579425000000043
                },
                {
                    "name": "D#5",
                    "midi": 75,
                    "time": 9.379334250000023,
                    "velocity": 0.6850393700787402,
                    "duration": 0.057897125000000216
                },
                {
                    "name": "F#4",
                    "midi": 66,
                    "time": 9.495128500000023,
                    "velocity": 0.5984251968503937,
                    "duration": 0.17369137500000065
                },
                {
                    "name": "A#4",
                    "midi": 70,
                    "time": 9.495128500000023,
                    "velocity": 0.5984251968503937,
                    "duration": 0.17369137500000065
                },
                {
                    "name": "D#5",
                    "midi": 75,
                    "time": 9.495128500000023,
                    "velocity": 0.7086614173228346,
                    "duration": 0.11579425000000043
                },
                {
                    "name": "E5",
                    "midi": 76,
                    "time": 9.610922750000023,
                    "velocity": 0.6929133858267716,
                    "duration": 0.057897125000000216
                },
                {
                    "name": "F#4",
                    "midi": 66,
                    "time": 9.726717000000024,
                    "velocity": 0.5354330708661418,
                    "duration": 0.17369137500000065
                },
                {
                    "name": "B4",
                    "midi": 71,
                    "time": 9.726717000000024,
                    "velocity": 0.5354330708661418,
                    "duration": 0.17369137500000065
                },
                {
                    "name": "E5",
                    "midi": 76,
                    "time": 9.726717000000024,
                    "velocity": 0.6377952755905512,
                    "duration": 0.11579425000000043
                },
                {
                    "name": "D#5",
                    "midi": 75,
                    "time": 9.842511250000024,
                    "velocity": 0.5905511811023622,
                    "duration": 0.057897125000000216
                },
                {
                    "name": "F#4",
                    "midi": 66,
                    "time": 9.958305500000025,
                    "velocity": 0.5196850393700787,
                    "duration": 0.17369137500000065
                },
                {
                    "name": "B4",
                    "midi": 71,
                    "time": 9.958305500000025,
                    "velocity": 0.5196850393700787,
                    "duration": 0.17369137500000065
                },
                {
                    "name": "D#5",
                    "midi": 75,
                    "time": 9.958305500000025,
                    "velocity": 0.6141732283464567,
                    "duration": 0.11579425000000043
                },
                {
                    "name": "G#5",
                    "midi": 80,
                    "time": 10.074099750000025,
                    "velocity": 0.5905511811023622,
                    "duration": 0.057897125000000216
                },
                {
                    "name": "F#4",
                    "midi": 66,
                    "time": 10.189894000000026,
                    "velocity": 0.5039370078740157,
                    "duration": 0.17369137500000065
                },
                {
                    "name": "G#5",
                    "midi": 80,
                    "time": 10.189894000000026,
                    "velocity": 0.5984251968503937,
                    "duration": 0.11579425000000043
                },
                {
                    "name": "F#5",
                    "midi": 78,
                    "time": 10.305688250000026,
                    "velocity": 0.5748031496062992,
                    "duration": 0.057897125000000216
                },
                {
                    "name": "F#4",
                    "midi": 66,
                    "time": 10.421482500000026,
                    "velocity": 0.49606299212598426,
                    "duration": 0.17369137500000065
                },
                {
                    "name": "A#4",
                    "midi": 70,
                    "time": 10.421482500000026,
                    "velocity": 0.49606299212598426,
                    "duration": 0.17369137500000065
                },
                {
                    "name": "F#5",
                    "midi": 78,
                    "time": 10.421482500000026,
                    "velocity": 0.5826771653543307,
                    "duration": 0.11579425000000043
                },
                {
                    "name": "C#5",
                    "midi": 73,
                    "time": 10.537276750000027,
                    "velocity": 0.5433070866141733,
                    "duration": 0.057897125000000216
                },
                {
                    "name": "E4",
                    "midi": 64,
                    "time": 10.653071000000027,
                    "velocity": 0.47244094488188976,
                    "duration": 0.17369137500000065
                },
                {
                    "name": "A#4",
                    "midi": 70,
                    "time": 10.653071000000027,
                    "velocity": 0.47244094488188976,
                    "duration": 0.17369137500000065
                },
                {
                    "name": "C#5",
                    "midi": 73,
                    "time": 10.653071000000027,
                    "velocity": 0.5590551181102362,
                    "duration": 0.11579425000000043
                },
                {
                    "name": "D#5",
                    "midi": 75,
                    "time": 10.768865250000028,
                    "velocity": 0.5354330708661418,
                    "duration": 0.057897125000000216
                },
                {
                    "name": "E4",
                    "midi": 64,
                    "time": 10.884659500000028,
                    "velocity": 0.4645669291338583,
                    "duration": 0.17369137500000065
                },
                {
                    "name": "A#4",
                    "midi": 70,
                    "time": 10.884659500000028,
                    "velocity": 0.4645669291338583,
                    "duration": 0.17369137500000065
                },
                {
                    "name": "D#5",
                    "midi": 75,
                    "time": 10.884659500000028,
                    "velocity": 0.5511811023622047,
                    "duration": 0.11579425000000043
                },
                {
                    "name": "E5",
                    "midi": 76,
                    "time": 11.000453750000029,
                    "velocity": 0.5275590551181102,
                    "duration": 0.057897125000000216
                },
                {
                    "name": "D#4",
                    "midi": 63,
                    "time": 11.116248000000029,
                    "velocity": 0.47244094488188976,
                    "duration": 0.17369137500000065
                },
                {
                    "name": "B4",
                    "midi": 71,
                    "time": 11.116248000000029,
                    "velocity": 0.47244094488188976,
                    "duration": 0.17369137500000065
                },
                {
                    "name": "E5",
                    "midi": 76,
                    "time": 11.116248000000029,
                    "velocity": 0.5669291338582677,
                    "duration": 0.11579425000000043
                },
                {
                    "name": "D#5",
                    "midi": 75,
                    "time": 11.23204225000003,
                    "velocity": 0.5354330708661418,
                    "duration": 0.057897125000000216
                },
                {
                    "name": "D#4",
                    "midi": 63,
                    "time": 11.34783650000003,
                    "velocity": 0.48031496062992124,
                    "duration": 0.17369137500000065
                },
                {
                    "name": "D#5",
                    "midi": 75,
                    "time": 11.34783650000003,
                    "velocity": 0.5669291338582677,
                    "duration": 0.11579425000000043
                },
                {
                    "name": "B4",
                    "midi": 71,
                    "time": 11.46363075000003,
                    "velocity": 0.5669291338582677,
                    "duration": 0.057897125000000216
                },
                {
                    "name": "E4",
                    "midi": 64,
                    "time": 11.57942500000003,
                    "velocity": 0.5039370078740157,
                    "duration": 0.17369137500000065
                },
                {
                    "name": "B4",
                    "midi": 71,
                    "time": 11.57942500000003,
                    "velocity": 0.5984251968503937,
                    "duration": 0.11579425000000043
                },
                {
                    "name": "G4",
                    "midi": 67,
                    "time": 11.695219250000031,
                    "velocity": 0.5905511811023622,
                    "duration": 0.057897125000000216
                },
                {
                    "name": "D#4",
                    "midi": 63,
                    "time": 11.811013500000032,
                    "velocity": 0.5196850393700787,
                    "duration": 0.17369137500000065
                },
                {
                    "name": "G4",
                    "midi": 67,
                    "time": 11.811013500000032,
                    "velocity": 0.6141732283464567,
                    "duration": 0.11579425000000043
                },
                {
                    "name": "F#4",
                    "midi": 66,
                    "time": 11.926807750000032,
                    "velocity": 0.5826771653543307,
                    "duration": 0.057897125000000216
                },
                {
                    "name": "D#4",
                    "midi": 63,
                    "time": 12.042602000000032,
                    "velocity": 0.5275590551181102,
                    "duration": 0.17369137500000065
                },
                {
                    "name": "F#4",
                    "midi": 66,
                    "time": 12.042602000000032,
                    "velocity": 0.6299212598425197,
                    "duration": 0.11579425000000043
                },
                {
                    "name": "B4",
                    "midi": 71,
                    "time": 12.158396250000033,
                    "velocity": 0.5905511811023622,
                    "duration": 0.057897125000000216
                },
                {
                    "name": "E4",
                    "midi": 64,
                    "time": 12.274190500000033,
                    "velocity": 0.5433070866141733,
                    "duration": 0.17369137500000065
                },
                {
                    "name": "B4",
                    "midi": 71,
                    "time": 12.274190500000033,
                    "velocity": 0.6456692913385826,
                    "duration": 0.11579425000000043
                },
                {
                    "name": "G4",
                    "midi": 67,
                    "time": 12.389984750000034,
                    "velocity": 0.6141732283464567,
                    "duration": 0.057897125000000216
                },
                {
                    "name": "D#4",
                    "midi": 63,
                    "time": 12.505779000000034,
                    "velocity": 0.5669291338582677,
                    "duration": 0.17369137500000065
                },
                {
                    "name": "F#4",
                    "midi": 66,
                    "time": 12.505779000000034,
                    "velocity": 0.6692913385826772,
                    "duration": 0.11579425000000043
                },
                {
                    "name": "B4",
                    "midi": 71,
                    "time": 12.621573250000035,
                    "velocity": 0.6377952755905512,
                    "duration": 0.057897125000000216
                },
                {
                    "name": "E4",
                    "midi": 64,
                    "time": 12.737367500000035,
                    "velocity": 0.5669291338582677,
                    "duration": 0.17369137500000065
                },
                {
                    "name": "B4",
                    "midi": 71,
                    "time": 12.737367500000035,
                    "velocity": 0.6771653543307087,
                    "duration": 0.11579425000000043
                },
                {
                    "name": "G4",
                    "midi": 67,
                    "time": 12.853161750000035,
                    "velocity": 0.6692913385826772,
                    "duration": 0.057897125000000216
                },
                {
                    "name": "D#4",
                    "midi": 63,
                    "time": 12.968956000000036,
                    "velocity": 0.5984251968503937,
                    "duration": 0.17369137500000065
                },
                {
                    "name": "F#4",
                    "midi": 66,
                    "time": 12.968956000000036,
                    "velocity": 0.7086614173228346,
                    "duration": 0.11579425000000043
                },
                {
                    "name": "B4",
                    "midi": 71,
                    "time": 13.084750250000036,
                    "velocity": 0.6929133858267716,
                    "duration": 0.057897125000000216
                },
                {
                    "name": "E4",
                    "midi": 64,
                    "time": 13.200544500000037,
                    "velocity": 0.6062992125984252,
                    "duration": 0.17369137500000065
                },
                {
                    "name": "B4",
                    "midi": 71,
                    "time": 13.200544500000037,
                    "velocity": 0.7165354330708661,
                    "duration": 0.11579425000000043
                },
                {
                    "name": "G4",
                    "midi": 67,
                    "time": 13.316338750000037,
                    "velocity": 0.6850393700787402,
                    "duration": 0.057897125000000216
                },
                {
                    "name": "D4",
                    "midi": 62,
                    "time": 13.432133000000038,
                    "velocity": 0.6141732283464567,
                    "duration": 0.17369137500000065
                },
                {
                    "name": "F#4",
                    "midi": 66,
                    "time": 13.432133000000038,
                    "velocity": 0.7322834645669292,
                    "duration": 0.11579425000000043
                },
                {
                    "name": "B4",
                    "midi": 71,
                    "time": 13.547927250000038,
                    "velocity": 0.7244094488188977,
                    "duration": 0.057897125000000216
                },
                {
                    "name": "E4",
                    "midi": 64,
                    "time": 13.663721500000038,
                    "velocity": 0.6377952755905512,
                    "duration": 0.17369137500000065
                },
                {
                    "name": "B4",
                    "midi": 71,
                    "time": 13.663721500000038,
                    "velocity": 0.7559055118110236,
                    "duration": 0.11579425000000043
                },
                {
                    "name": "G4",
                    "midi": 67,
                    "time": 13.779515750000039,
                    "velocity": 0.7480314960629921,
                    "duration": 0.057897125000000216
                },
                {
                    "name": "B4",
                    "midi": 71,
                    "time": 13.89531000000004,
                    "velocity": 0.7244094488188977,
                    "duration": 1.3895310000000052
                },
                {
                    "name": "E4",
                    "midi": 64,
                    "time": 13.89531000000004,
                    "velocity": 0.6062992125984252,
                    "duration": 0.11579425000000043
                },
                {
                    "name": "G4",
                    "midi": 67,
                    "time": 13.89531000000004,
                    "velocity": 0.7244094488188977,
                    "duration": 0.11579425000000043
                },
                {
                    "name": "D4",
                    "midi": 62,
                    "time": 14.01110425000004,
                    "velocity": 0.5826771653543307,
                    "duration": 0.11579425000000043
                },
                {
                    "name": "F#4",
                    "midi": 66,
                    "time": 14.01110425000004,
                    "velocity": 0.6850393700787402,
                    "duration": 0.11579425000000043
                },
                {
                    "name": "G4",
                    "midi": 67,
                    "time": 14.09794993750004,
                    "velocity": 0.5669291338582677,
                    "duration": 0.028948562500000108
                },
                {
                    "name": "D4",
                    "midi": 62,
                    "time": 14.12689850000004,
                    "velocity": 0.6062992125984252,
                    "duration": 0.11579425000000043
                },
                {
                    "name": "F#4",
                    "midi": 66,
                    "time": 14.12689850000004,
                    "velocity": 0.7244094488188977,
                    "duration": 0.11579425000000043
                },
                {
                    "name": "C#4",
                    "midi": 61,
                    "time": 14.24269275000004,
                    "velocity": 0.5669291338582677,
                    "duration": 0.11579425000000043
                },
                {
                    "name": "E4",
                    "midi": 64,
                    "time": 14.24269275000004,
                    "velocity": 0.6692913385826772,
                    "duration": 0.11579425000000043
                },
                {
                    "name": "D4",
                    "midi": 62,
                    "time": 14.358487000000041,
                    "velocity": 0.6062992125984252,
                    "duration": 0.23158850000000086
                },
                {
                    "name": "F#4",
                    "midi": 66,
                    "time": 14.358487000000041,
                    "velocity": 0.7244094488188977,
                    "duration": 0.23158850000000086
                },
                {
                    "name": "E4",
                    "midi": 64,
                    "time": 14.590075500000042,
                    "velocity": 0.5748031496062992,
                    "duration": 0.11579425000000043
                },
                {
                    "name": "G4",
                    "midi": 67,
                    "time": 14.590075500000042,
                    "velocity": 0.6850393700787402,
                    "duration": 0.11579425000000043
                },
                {
                    "name": "D4",
                    "midi": 62,
                    "time": 14.705869750000042,
                    "velocity": 0.5511811023622047,
                    "duration": 0.11579425000000043
                },
                {
                    "name": "F#4",
                    "midi": 66,
                    "time": 14.705869750000042,
                    "velocity": 0.6456692913385826,
                    "duration": 0.11579425000000043
                },
                {
                    "name": "G4",
                    "midi": 67,
                    "time": 14.792715437500043,
                    "velocity": 0.5590551181102362,
                    "duration": 0.028948562500000108
                },
                {
                    "name": "D4",
                    "midi": 62,
                    "time": 14.821664000000043,
                    "velocity": 0.5748031496062992,
                    "duration": 0.11579425000000043
                },
                {
                    "name": "F#4",
                    "midi": 66,
                    "time": 14.821664000000043,
                    "velocity": 0.6850393700787402,
                    "duration": 0.11579425000000043
                },
                {
                    "name": "C#4",
                    "midi": 61,
                    "time": 14.937458250000043,
                    "velocity": 0.5354330708661418,
                    "duration": 0.11579425000000043
                },
                {
                    "name": "E4",
                    "midi": 64,
                    "time": 14.937458250000043,
                    "velocity": 0.6299212598425197,
                    "duration": 0.11579425000000043
                },
                {
                    "name": "D4",
                    "midi": 62,
                    "time": 15.053252500000044,
                    "velocity": 0.5748031496062992,
                    "duration": 0.23158850000000086
                },
                {
                    "name": "F#4",
                    "midi": 66,
                    "time": 15.053252500000044,
                    "velocity": 0.6850393700787402,
                    "duration": 0.23158850000000086
                },
                {
                    "name": "D4",
                    "midi": 62,
                    "time": 15.284841000000045,
                    "velocity": 0.48031496062992124,
                    "duration": 0.11579425000000043
                },
                {
                    "name": "G#4",
                    "midi": 68,
                    "time": 15.284841000000045,
                    "velocity": 0.48031496062992124,
                    "duration": 0.17369137500000065
                },
                {
                    "name": "B4",
                    "midi": 71,
                    "time": 15.284841000000045,
                    "velocity": 0.5669291338582677,
                    "duration": 0.11579425000000043
                },
                {
                    "name": "E4",
                    "midi": 64,
                    "time": 15.400635250000045,
                    "velocity": 0.48031496062992124,
                    "duration": 0.057897125000000216
                },
                {
                    "name": "C5",
                    "midi": 72,
                    "time": 15.400635250000045,
                    "velocity": 0.5669291338582677,
                    "duration": 0.057897125000000216
                },
                {
                    "name": "G#4",
                    "midi": 68,
                    "time": 15.516429500000045,
                    "velocity": 0.48031496062992124,
                    "duration": 0.17369137500000065
                },
                {
                    "name": "E4",
                    "midi": 64,
                    "time": 15.516429500000045,
                    "velocity": 0.48031496062992124,
                    "duration": 0.11579425000000043
                },
                {
                    "name": "C5",
                    "midi": 72,
                    "time": 15.516429500000045,
                    "velocity": 0.5669291338582677,
                    "duration": 0.11579425000000043
                },
                {
                    "name": "D4",
                    "midi": 62,
                    "time": 15.632223750000046,
                    "velocity": 0.48031496062992124,
                    "duration": 0.057897125000000216
                },
                {
                    "name": "B4",
                    "midi": 71,
                    "time": 15.632223750000046,
                    "velocity": 0.5669291338582677,
                    "duration": 0.057897125000000216
                },
                {
                    "name": "G#4",
                    "midi": 68,
                    "time": 15.748018000000046,
                    "velocity": 0.48031496062992124,
                    "duration": 0.17369137500000065
                },
                {
                    "name": "D4",
                    "midi": 62,
                    "time": 15.748018000000046,
                    "velocity": 0.48031496062992124,
                    "duration": 0.11579425000000043
                },
                {
                    "name": "B4",
                    "midi": 71,
                    "time": 15.748018000000046,
                    "velocity": 0.5669291338582677,
                    "duration": 0.11579425000000043
                },
                {
                    "name": "E4",
                    "midi": 64,
                    "time": 15.863812250000047,
                    "velocity": 0.48031496062992124,
                    "duration": 0.057897125000000216
                },
                {
                    "name": "C5",
                    "midi": 72,
                    "time": 15.863812250000047,
                    "velocity": 0.5669291338582677,
                    "duration": 0.057897125000000216
                },
                {
                    "name": "A4",
                    "midi": 69,
                    "time": 15.979606500000047,
                    "velocity": 0.6850393700787402,
                    "duration": 0.6947654999999973
                },
                {
                    "name": "D4",
                    "midi": 62,
                    "time": 15.979606500000047,
                    "velocity": 0.5748031496062992,
                    "duration": 0.11579424999999866
                },
                {
                    "name": "F4",
                    "midi": 65,
                    "time": 15.979606500000047,
                    "velocity": 0.6850393700787402,
                    "duration": 0.11579424999999866
                },
                {
                    "name": "C4",
                    "midi": 60,
                    "time": 16.095400750000046,
                    "velocity": 0.5511811023622047,
                    "duration": 0.11579424999999688
                },
                {
                    "name": "E4",
                    "midi": 64,
                    "time": 16.095400750000046,
                    "velocity": 0.6456692913385826,
                    "duration": 0.11579424999999688
                },
                {
                    "name": "F4",
                    "midi": 65,
                    "time": 16.182246437500044,
                    "velocity": 0.49606299212598426,
                    "duration": 0.02894856249999833
                },
                {
                    "name": "C4",
                    "midi": 60,
                    "time": 16.211195000000043,
                    "velocity": 0.5748031496062992,
                    "duration": 0.11579425000000043
                },
                {
                    "name": "E4",
                    "midi": 64,
                    "time": 16.211195000000043,
                    "velocity": 0.6850393700787402,
                    "duration": 0.11579425000000043
                },
                {
                    "name": "B3",
                    "midi": 59,
                    "time": 16.326989250000043,
                    "velocity": 0.5354330708661418,
                    "duration": 0.11579425000000043
                },
                {
                    "name": "D4",
                    "midi": 62,
                    "time": 16.326989250000043,
                    "velocity": 0.6299212598425197,
                    "duration": 0.11579425000000043
                },
                {
                    "name": "C4",
                    "midi": 60,
                    "time": 16.442783500000044,
                    "velocity": 0.5748031496062992,
                    "duration": 0.23158850000000086
                },
                {
                    "name": "E4",
                    "midi": 64,
                    "time": 16.442783500000044,
                    "velocity": 0.6850393700787402,
                    "duration": 0.23158850000000086
                },
                {
                    "name": "A4",
                    "midi": 69,
                    "time": 16.674372000000044,
                    "velocity": 0.6614173228346457,
                    "duration": 1.389530999999998
                },
                {
                    "name": "D4",
                    "midi": 62,
                    "time": 16.674372000000044,
                    "velocity": 0.5433070866141733,
                    "duration": 0.11579425000000043
                },
                {
                    "name": "F4",
                    "midi": 65,
                    "time": 16.674372000000044,
                    "velocity": 0.6456692913385826,
                    "duration": 0.11579425000000043
                },
                {
                    "name": "C4",
                    "midi": 60,
                    "time": 16.790166250000045,
                    "velocity": 0.5196850393700787,
                    "duration": 0.11579424999999688
                },
                {
                    "name": "E4",
                    "midi": 64,
                    "time": 16.790166250000045,
                    "velocity": 0.6062992125984252,
                    "duration": 0.11579424999999688
                },
                {
                    "name": "F4",
                    "midi": 65,
                    "time": 16.877011937500043,
                    "velocity": 0.4645669291338583,
                    "duration": 0.02894856249999833
                },
                {
                    "name": "C4",
                    "midi": 60,
                    "time": 16.90596050000004,
                    "velocity": 0.5433070866141733,
                    "duration": 0.11579425000000043
                },
                {
                    "name": "E4",
                    "midi": 64,
                    "time": 16.90596050000004,
                    "velocity": 0.6456692913385826,
                    "duration": 0.11579425000000043
                },
                {
                    "name": "B3",
                    "midi": 59,
                    "time": 17.021754750000042,
                    "velocity": 0.5039370078740157,
                    "duration": 0.11579425000000043
                },
                {
                    "name": "D4",
                    "midi": 62,
                    "time": 17.021754750000042,
                    "velocity": 0.5984251968503937,
                    "duration": 0.11579425000000043
                },
                {
                    "name": "C4",
                    "midi": 60,
                    "time": 17.137549000000043,
                    "velocity": 0.5433070866141733,
                    "duration": 0.23158850000000086
                },
                {
                    "name": "E4",
                    "midi": 64,
                    "time": 17.137549000000043,
                    "velocity": 0.6456692913385826,
                    "duration": 0.23158850000000086
                },
                {
                    "name": "D4",
                    "midi": 62,
                    "time": 17.369137500000043,
                    "velocity": 0.5433070866141733,
                    "duration": 0.11579425000000043
                },
                {
                    "name": "F4",
                    "midi": 65,
                    "time": 17.369137500000043,
                    "velocity": 0.6456692913385826,
                    "duration": 0.11579425000000043
                },
                {
                    "name": "C4",
                    "midi": 60,
                    "time": 17.484931750000044,
                    "velocity": 0.5196850393700787,
                    "duration": 0.11579424999999688
                },
                {
                    "name": "E4",
                    "midi": 64,
                    "time": 17.484931750000044,
                    "velocity": 0.6062992125984252,
                    "duration": 0.11579424999999688
                },
                {
                    "name": "F4",
                    "midi": 65,
                    "time": 17.571777437500042,
                    "velocity": 0.4645669291338583,
                    "duration": 0.02894856249999833
                },
                {
                    "name": "C4",
                    "midi": 60,
                    "time": 17.60072600000004,
                    "velocity": 0.5433070866141733,
                    "duration": 0.11579425000000043
                },
                {
                    "name": "E4",
                    "midi": 64,
                    "time": 17.60072600000004,
                    "velocity": 0.6456692913385826,
                    "duration": 0.11579425000000043
                },
                {
                    "name": "B3",
                    "midi": 59,
                    "time": 17.71652025000004,
                    "velocity": 0.5039370078740157,
                    "duration": 0.11579425000000043
                },
                {
                    "name": "D4",
                    "midi": 62,
                    "time": 17.71652025000004,
                    "velocity": 0.5984251968503937,
                    "duration": 0.11579425000000043
                },
                {
                    "name": "C4",
                    "midi": 60,
                    "time": 17.83231450000004,
                    "velocity": 0.5433070866141733,
                    "duration": 0.23158850000000086
                },
                {
                    "name": "E4",
                    "midi": 64,
                    "time": 17.83231450000004,
                    "velocity": 0.6456692913385826,
                    "duration": 0.23158850000000086
                },
                {
                    "name": "C4",
                    "midi": 60,
                    "time": 18.063903000000042,
                    "velocity": 0.48031496062992124,
                    "duration": 0.11579425000000043
                },
                {
                    "name": "F#4",
                    "midi": 66,
                    "time": 18.063903000000042,
                    "velocity": 0.48031496062992124,
                    "duration": 0.17369137500000065
                },
                {
                    "name": "A4",
                    "midi": 69,
                    "time": 18.063903000000042,
                    "velocity": 0.5669291338582677,
                    "duration": 0.11579425000000043
                },
                {
                    "name": "D4",
                    "midi": 62,
                    "time": 18.179697250000043,
                    "velocity": 0.48031496062992124,
                    "duration": 0.057897125000000216
                },
                {
                    "name": "B4",
                    "midi": 71,
                    "time": 18.179697250000043,
                    "velocity": 0.5669291338582677,
                    "duration": 0.057897125000000216
                },
                {
                    "name": "F#4",
                    "midi": 66,
                    "time": 18.295491500000043,
                    "velocity": 0.48031496062992124,
                    "duration": 0.17369137500000065
                },
                {
                    "name": "D4",
                    "midi": 62,
                    "time": 18.295491500000043,
                    "velocity": 0.48031496062992124,
                    "duration": 0.11579425000000043
                },
                {
                    "name": "B4",
                    "midi": 71,
                    "time": 18.295491500000043,
                    "velocity": 0.5669291338582677,
                    "duration": 0.11579425000000043
                },
                {
                    "name": "C4",
                    "midi": 60,
                    "time": 18.411285750000044,
                    "velocity": 0.48031496062992124,
                    "duration": 0.057897125000000216
                },
                {
                    "name": "A4",
                    "midi": 69,
                    "time": 18.411285750000044,
                    "velocity": 0.5669291338582677,
                    "duration": 0.057897125000000216
                },
                {
                    "name": "F#4",
                    "midi": 66,
                    "time": 18.527080000000044,
                    "velocity": 0.48031496062992124,
                    "duration": 0.17369137500000065
                },
                {
                    "name": "C4",
                    "midi": 60,
                    "time": 18.527080000000044,
                    "velocity": 0.48031496062992124,
                    "duration": 0.11579425000000043
                },
                {
                    "name": "A4",
                    "midi": 69,
                    "time": 18.527080000000044,
                    "velocity": 0.5669291338582677,
                    "duration": 0.11579425000000043
                },
                {
                    "name": "D4",
                    "midi": 62,
                    "time": 18.642874250000045,
                    "velocity": 0.48031496062992124,
                    "duration": 0.057897125000000216
                },
                {
                    "name": "B4",
                    "midi": 71,
                    "time": 18.642874250000045,
                    "velocity": 0.5669291338582677,
                    "duration": 0.057897125000000216
                },
                {
                    "name": "G4",
                    "midi": 67,
                    "time": 18.758668500000045,
                    "velocity": 0.6141732283464567,
                    "duration": 0.694765499999999
                },
                {
                    "name": "C4",
                    "midi": 60,
                    "time": 18.758668500000045,
                    "velocity": 0.5118110236220472,
                    "duration": 0.11579425000000043
                },
                {
                    "name": "E4",
                    "midi": 64,
                    "time": 18.758668500000045,
                    "velocity": 0.6141732283464567,
                    "duration": 0.11579425000000043
                },
                {
                    "name": "B3",
                    "midi": 59,
                    "time": 18.874462750000045,
                    "velocity": 0.49606299212598426,
                    "duration": 0.11579424999999688
                },
                {
                    "name": "D4",
                    "midi": 62,
                    "time": 18.874462750000045,
                    "velocity": 0.5748031496062992,
                    "duration": 0.11579424999999688
                },
                {
                    "name": "E4",
                    "midi": 64,
                    "time": 18.961308437500044,
                    "velocity": 0.4409448818897638,
                    "duration": 0.02894856249999833
                },
                {
                    "name": "B3",
                    "midi": 59,
                    "time": 18.990257000000042,
                    "velocity": 0.5118110236220472,
                    "duration": 0.11579425000000043
                },
                {
                    "name": "D4",
                    "midi": 62,
                    "time": 18.990257000000042,
                    "velocity": 0.6141732283464567,
                    "duration": 0.11579425000000043
                },
                {
                    "name": "A3",
                    "midi": 57,
                    "time": 19.106051250000043,
                    "velocity": 0.48031496062992124,
                    "duration": 0.11579425000000043
                },
                {
                    "name": "C4",
                    "midi": 60,
                    "time": 19.106051250000043,
                    "velocity": 0.5669291338582677,
                    "duration": 0.11579425000000043
                },
                {
                    "name": "B3",
                    "midi": 59,
                    "time": 19.221845500000043,
                    "velocity": 0.5118110236220472,
                    "duration": 0.23158850000000086
                },
                {
                    "name": "D4",
                    "midi": 62,
                    "time": 19.221845500000043,
                    "velocity": 0.6141732283464567,
                    "duration": 0.23158850000000086
                },
                {
                    "name": "E4",
                    "midi": 64,
                    "time": 19.453434000000044,
                    "velocity": 0.29133858267716534,
                    "duration": 0.17369137500000065
                },
                {
                    "name": "G4",
                    "midi": 67,
                    "time": 19.453434000000044,
                    "velocity": 0.3464566929133858,
                    "duration": 0.11579425000000043
                },
                {
                    "name": "A4",
                    "midi": 69,
                    "time": 19.569228250000045,
                    "velocity": 0.3543307086614173,
                    "duration": 0.057897125000000216
                },
                {
                    "name": "E4",
                    "midi": 64,
                    "time": 19.685022500000045,
                    "velocity": 0.31496062992125984,
                    "duration": 0.17369137500000065
                },
                {
                    "name": "A4",
                    "midi": 69,
                    "time": 19.685022500000045,
                    "velocity": 0.3858267716535433,
                    "duration": 0.11579425000000043
                },
                {
                    "name": "B4",
                    "midi": 71,
                    "time": 19.800816750000045,
                    "velocity": 0.4015748031496063,
                    "duration": 0.057897125000000216
                },
                {
                    "name": "E4",
                    "midi": 64,
                    "time": 19.916611000000046,
                    "velocity": 0.3543307086614173,
                    "duration": 0.17369137500000065
                },
                {
                    "name": "B4",
                    "midi": 71,
                    "time": 19.916611000000046,
                    "velocity": 0.4251968503937008,
                    "duration": 0.11579425000000043
                },
                {
                    "name": "C5",
                    "midi": 72,
                    "time": 20.032405250000046,
                    "velocity": 0.44881889763779526,
                    "duration": 0.057897125000000216
                },
                {
                    "name": "E4",
                    "midi": 64,
                    "time": 20.148199500000047,
                    "velocity": 0.4015748031496063,
                    "duration": 0.17369137500000065
                },
                {
                    "name": "C5",
                    "midi": 72,
                    "time": 20.148199500000047,
                    "velocity": 0.48031496062992124,
                    "duration": 0.11579425000000043
                },
                {
                    "name": "D5",
                    "midi": 74,
                    "time": 20.263993750000047,
                    "velocity": 0.49606299212598426,
                    "duration": 0.057897125000000216
                },
                {
                    "name": "E4",
                    "midi": 64,
                    "time": 20.379788000000048,
                    "velocity": 0.4330708661417323,
                    "duration": 0.17369137500000065
                },
                {
                    "name": "A4",
                    "midi": 69,
                    "time": 20.379788000000048,
                    "velocity": 0.4330708661417323,
                    "duration": 0.17369137500000065
                },
                {
                    "name": "D5",
                    "midi": 74,
                    "time": 20.379788000000048,
                    "velocity": 0.5196850393700787,
                    "duration": 0.11579425000000043
                },
                {
                    "name": "E5",
                    "midi": 76,
                    "time": 20.495582250000048,
                    "velocity": 0.5433070866141733,
                    "duration": 0.057897125000000216
                },
                {
                    "name": "E4",
                    "midi": 64,
                    "time": 20.61137650000005,
                    "velocity": 0.47244094488188976,
                    "duration": 0.17369137500000065
                },
                {
                    "name": "A4",
                    "midi": 69,
                    "time": 20.61137650000005,
                    "velocity": 0.47244094488188976,
                    "duration": 0.17369137500000065
                },
                {
                    "name": "E5",
                    "midi": 76,
                    "time": 20.61137650000005,
                    "velocity": 0.5669291338582677,
                    "duration": 0.11579425000000043
                },
                {
                    "name": "D4",
                    "midi": 62,
                    "time": 20.72717075000005,
                    "velocity": 0.44881889763779526,
                    "duration": 0.057897125000000216
                },
                {
                    "name": "D5",
                    "midi": 74,
                    "time": 20.72717075000005,
                    "velocity": 0.5354330708661418,
                    "duration": 0.057897125000000216
                },
                {
                    "name": "E4",
                    "midi": 64,
                    "time": 20.84296500000005,
                    "velocity": 0.30708661417322836,
                    "duration": 0.17369137500000065
                },
                {
                    "name": "G4",
                    "midi": 67,
                    "time": 20.84296500000005,
                    "velocity": 0.3700787401574803,
                    "duration": 0.11579425000000043
                },
                {
                    "name": "A4",
                    "midi": 69,
                    "time": 20.95875925000005,
                    "velocity": 0.3779527559055118,
                    "duration": 0.057897125000000216
                },
                {
                    "name": "E4",
                    "midi": 64,
                    "time": 21.07455350000005,
                    "velocity": 0.3228346456692913,
                    "duration": 0.17369137500000065
                },
                {
                    "name": "A4",
                    "midi": 69,
                    "time": 21.07455350000005,
                    "velocity": 0.3937007874015748,
                    "duration": 0.11579425000000043
                },
                {
                    "name": "B4",
                    "midi": 71,
                    "time": 21.19034775000005,
                    "velocity": 0.4015748031496063,
                    "duration": 0.057897125000000216
                },
                {
                    "name": "E4",
                    "midi": 64,
                    "time": 21.30614200000005,
                    "velocity": 0.3543307086614173,
                    "duration": 0.17369137500000065
                },
                {
                    "name": "B4",
                    "midi": 71,
                    "time": 21.30614200000005,
                    "velocity": 0.4251968503937008,
                    "duration": 0.11579425000000043
                },
                {
                    "name": "C5",
                    "midi": 72,
                    "time": 21.42193625000005,
                    "velocity": 0.4330708661417323,
                    "duration": 0.057897125000000216
                },
                {
                    "name": "E4",
                    "midi": 64,
                    "time": 21.537730500000052,
                    "velocity": 0.3779527559055118,
                    "duration": 0.17369137500000065
                },
                {
                    "name": "C5",
                    "midi": 72,
                    "time": 21.537730500000052,
                    "velocity": 0.44881889763779526,
                    "duration": 0.11579425000000043
                },
                {
                    "name": "D5",
                    "midi": 74,
                    "time": 21.653524750000052,
                    "velocity": 0.4566929133858268,
                    "duration": 0.057897125000000216
                },
                {
                    "name": "E4",
                    "midi": 64,
                    "time": 21.769319000000053,
                    "velocity": 0.4015748031496063,
                    "duration": 0.17369137500000065
                },
                {
                    "name": "A4",
                    "midi": 69,
                    "time": 21.769319000000053,
                    "velocity": 0.4015748031496063,
                    "duration": 0.17369137500000065
                },
                {
                    "name": "D5",
                    "midi": 74,
                    "time": 21.769319000000053,
                    "velocity": 0.48031496062992124,
                    "duration": 0.11579425000000043
                },
                {
                    "name": "E5",
                    "midi": 76,
                    "time": 21.885113250000053,
                    "velocity": 0.49606299212598426,
                    "duration": 0.057897125000000216
                },
                {
                    "name": "A4",
                    "midi": 69,
                    "time": 22.000907500000054,
                    "velocity": 0.4251968503937008,
                    "duration": 0.17369137500000065
                },
                {
                    "name": "E5",
                    "midi": 76,
                    "time": 22.000907500000054,
                    "velocity": 0.5039370078740157,
                    "duration": 0.11579425000000043
                },
                {
                    "name": "F#5",
                    "midi": 78,
                    "time": 22.116701750000054,
                    "velocity": 0.5196850393700787,
                    "duration": 0.057897125000000216
                },
                {
                    "name": "D#5",
                    "midi": 75,
                    "time": 22.116701750000054,
                    "velocity": 0.5196850393700787,
                    "duration": 0.057897125000000216
                },
                {
                    "name": "G4",
                    "midi": 67,
                    "time": 22.232496000000054,
                    "velocity": 0.4409448818897638,
                    "duration": 0.11579425000000043
                },
                {
                    "name": "E5",
                    "midi": 76,
                    "time": 22.232496000000054,
                    "velocity": 0.4409448818897638,
                    "duration": 0.11579425000000043
                },
                {
                    "name": "G5",
                    "midi": 79,
                    "time": 22.232496000000054,
                    "velocity": 0.5275590551181102,
                    "duration": 0.11579425000000043
                },
                {
                    "name": "A4",
                    "midi": 69,
                    "time": 22.464084500000055,
                    "velocity": 0.4409448818897638,
                    "duration": 0.17369137500000065
                },
                {
                    "name": "E5",
                    "midi": 76,
                    "time": 22.464084500000055,
                    "velocity": 0.4409448818897638,
                    "duration": 0.11579425000000043
                },
                {
                    "name": "G5",
                    "midi": 79,
                    "time": 22.464084500000055,
                    "velocity": 0.5275590551181102,
                    "duration": 0.11579425000000043
                },
                {
                    "name": "D#5",
                    "midi": 75,
                    "time": 22.579878750000056,
                    "velocity": 0.4251968503937008,
                    "duration": 0.057897125000000216
                },
                {
                    "name": "F#5",
                    "midi": 78,
                    "time": 22.579878750000056,
                    "velocity": 0.5039370078740157,
                    "duration": 0.057897125000000216
                },
                {
                    "name": "G4",
                    "midi": 67,
                    "time": 22.695673000000056,
                    "velocity": 0.4409448818897638,
                    "duration": 0.17369137500000065
                },
                {
                    "name": "D#5",
                    "midi": 75,
                    "time": 22.695673000000056,
                    "velocity": 0.4409448818897638,
                    "duration": 0.11579425000000043
                },
                {
                    "name": "F#5",
                    "midi": 78,
                    "time": 22.695673000000056,
                    "velocity": 0.5275590551181102,
                    "duration": 0.11579425000000043
                },
                {
                    "name": "E5",
                    "midi": 76,
                    "time": 22.811467250000057,
                    "velocity": 0.4330708661417323,
                    "duration": 0.057897125000000216
                },
                {
                    "name": "G5",
                    "midi": 79,
                    "time": 22.811467250000057,
                    "velocity": 0.5118110236220472,
                    "duration": 0.057897125000000216
                },
                {
                    "name": "A4",
                    "midi": 69,
                    "time": 22.927261500000057,
                    "velocity": 0.4566929133858268,
                    "duration": 0.17369137500000065
                },
                {
                    "name": "E5",
                    "midi": 76,
                    "time": 22.927261500000057,
                    "velocity": 0.4566929133858268,
                    "duration": 0.11579425000000043
                },
                {
                    "name": "G5",
                    "midi": 79,
                    "time": 22.927261500000057,
                    "velocity": 0.5511811023622047,
                    "duration": 0.11579425000000043
                },
                {
                    "name": "D#5",
                    "midi": 75,
                    "time": 23.043055750000057,
                    "velocity": 0.4566929133858268,
                    "duration": 0.057897125000000216
                },
                {
                    "name": "F#5",
                    "midi": 78,
                    "time": 23.043055750000057,
                    "velocity": 0.5433070866141733,
                    "duration": 0.057897125000000216
                },
                {
                    "name": "G4",
                    "midi": 67,
                    "time": 23.158850000000058,
                    "velocity": 0.4881889763779528,
                    "duration": 0.17369137500000065
                },
                {
                    "name": "D#5",
                    "midi": 75,
                    "time": 23.158850000000058,
                    "velocity": 0.4881889763779528,
                    "duration": 0.11579425000000043
                },
                {
                    "name": "F#5",
                    "midi": 78,
                    "time": 23.158850000000058,
                    "velocity": 0.5826771653543307,
                    "duration": 0.11579425000000043
                },
                {
                    "name": "E5",
                    "midi": 76,
                    "time": 23.27464425000006,
                    "velocity": 0.48031496062992124,
                    "duration": 0.057897125000000216
                },
                {
                    "name": "G5",
                    "midi": 79,
                    "time": 23.27464425000006,
                    "velocity": 0.5669291338582677,
                    "duration": 0.057897125000000216
                },
                {
                    "name": "G4",
                    "midi": 67,
                    "time": 23.39043850000006,
                    "velocity": 0.5039370078740157,
                    "duration": 0.11579425000000043
                },
                {
                    "name": "G5",
                    "midi": 79,
                    "time": 23.39043850000006,
                    "velocity": 0.6062992125984252,
                    "duration": 0.11579425000000043
                },
                {
                    "name": "E5",
                    "midi": 76,
                    "time": 23.39043850000006,
                    "velocity": 0.5039370078740157,
                    "duration": 0.11579425000000043
                },
                {
                    "name": "F5",
                    "midi": 77,
                    "time": 23.50623275000006,
                    "velocity": 0.4881889763779528,
                    "duration": 0.057897125000000216
                },
                {
                    "name": "G#5",
                    "midi": 80,
                    "time": 23.50623275000006,
                    "velocity": 0.5748031496062992,
                    "duration": 0.057897125000000216
                },
                {
                    "name": "G#4",
                    "midi": 68,
                    "time": 23.50623275000006,
                    "velocity": 0.4881889763779528,
                    "duration": 0.057897125000000216
                },
                {
                    "name": "G#4",
                    "midi": 68,
                    "time": 23.62202700000006,
                    "velocity": 0.5039370078740157,
                    "duration": 0.11579425000000043
                },
                {
                    "name": "G#5",
                    "midi": 80,
                    "time": 23.62202700000006,
                    "velocity": 0.6062992125984252,
                    "duration": 0.11579425000000043
                },
                {
                    "name": "F5",
                    "midi": 77,
                    "time": 23.62202700000006,
                    "velocity": 0.5039370078740157,
                    "duration": 0.11579425000000043
                },
                {
                    "name": "F#5",
                    "midi": 78,
                    "time": 23.73782125000006,
                    "velocity": 0.4881889763779528,
                    "duration": 0.057897125000000216
                },
                {
                    "name": "A5",
                    "midi": 81,
                    "time": 23.73782125000006,
                    "velocity": 0.5748031496062992,
                    "duration": 0.057897125000000216
                },
                {
                    "name": "A4",
                    "midi": 69,
                    "time": 23.73782125000006,
                    "velocity": 0.4881889763779528,
                    "duration": 0.057897125000000216
                },
                {
                    "name": "A4",
                    "midi": 69,
                    "time": 23.85361550000006,
                    "velocity": 0.5118110236220472,
                    "duration": 0.11579425000000043
                },
                {
                    "name": "A5",
                    "midi": 81,
                    "time": 23.85361550000006,
                    "velocity": 0.6141732283464567,
                    "duration": 0.11579425000000043
                },
                {
                    "name": "F#5",
                    "midi": 78,
                    "time": 23.85361550000006,
                    "velocity": 0.5118110236220472,
                    "duration": 0.11579425000000043
                },
                {
                    "name": "F5",
                    "midi": 77,
                    "time": 23.96940975000006,
                    "velocity": 0.49606299212598426,
                    "duration": 0.057897125000000216
                },
                {
                    "name": "G#5",
                    "midi": 80,
                    "time": 23.96940975000006,
                    "velocity": 0.5905511811023622,
                    "duration": 0.057897125000000216
                },
                {
                    "name": "G#4",
                    "midi": 68,
                    "time": 23.96940975000006,
                    "velocity": 0.49606299212598426,
                    "duration": 0.057897125000000216
                },
                {
                    "name": "G#4",
                    "midi": 68,
                    "time": 24.08520400000006,
                    "velocity": 0.5275590551181102,
                    "duration": 0.11579425000000043
                },
                {
                    "name": "G#5",
                    "midi": 80,
                    "time": 24.08520400000006,
                    "velocity": 0.6299212598425197,
                    "duration": 0.11579425000000043
                },
                {
                    "name": "F5",
                    "midi": 77,
                    "time": 24.08520400000006,
                    "velocity": 0.5275590551181102,
                    "duration": 0.11579425000000043
                },
                {
                    "name": "F#5",
                    "midi": 78,
                    "time": 24.20099825000006,
                    "velocity": 0.5118110236220472,
                    "duration": 0.057897125000000216
                },
                {
                    "name": "A5",
                    "midi": 81,
                    "time": 24.20099825000006,
                    "velocity": 0.6062992125984252,
                    "duration": 0.057897125000000216
                },
                {
                    "name": "A4",
                    "midi": 69,
                    "time": 24.20099825000006,
                    "velocity": 0.5118110236220472,
                    "duration": 0.057897125000000216
                },
                {
                    "name": "A4",
                    "midi": 69,
                    "time": 24.316792500000062,
                    "velocity": 0.5354330708661418,
                    "duration": 0.11579425000000043
                },
                {
                    "name": "A5",
                    "midi": 81,
                    "time": 24.316792500000062,
                    "velocity": 0.6456692913385826,
                    "duration": 0.11579425000000043
                },
                {
                    "name": "F#5",
                    "midi": 78,
                    "time": 24.316792500000062,
                    "velocity": 0.5354330708661418,
                    "duration": 0.11579425000000043
                },
                {
                    "name": "F5",
                    "midi": 77,
                    "time": 24.432586750000063,
                    "velocity": 0.5196850393700787,
                    "duration": 0.057897125000000216
                },
                {
                    "name": "G#5",
                    "midi": 80,
                    "time": 24.432586750000063,
                    "velocity": 0.6141732283464567,
                    "duration": 0.057897125000000216
                },
                {
                    "name": "G#4",
                    "midi": 68,
                    "time": 24.432586750000063,
                    "velocity": 0.5196850393700787,
                    "duration": 0.057897125000000216
                },
                {
                    "name": "G#4",
                    "midi": 68,
                    "time": 24.548381000000063,
                    "velocity": 0.5511811023622047,
                    "duration": 0.11579425000000043
                },
                {
                    "name": "G#5",
                    "midi": 80,
                    "time": 24.548381000000063,
                    "velocity": 0.6614173228346457,
                    "duration": 0.11579425000000043
                },
                {
                    "name": "F5",
                    "midi": 77,
                    "time": 24.548381000000063,
                    "velocity": 0.5511811023622047,
                    "duration": 0.11579425000000043
                },
                {
                    "name": "F#5",
                    "midi": 78,
                    "time": 24.664175250000063,
                    "velocity": 0.5354330708661418,
                    "duration": 0.057897125000000216
                },
                {
                    "name": "A5",
                    "midi": 81,
                    "time": 24.664175250000063,
                    "velocity": 0.6377952755905512,
                    "duration": 0.057897125000000216
                },
                {
                    "name": "A4",
                    "midi": 69,
                    "time": 24.664175250000063,
                    "velocity": 0.5354330708661418,
                    "duration": 0.057897125000000216
                },
                {
                    "name": "A4",
                    "midi": 69,
                    "time": 24.779969500000064,
                    "velocity": 0.5590551181102362,
                    "duration": 0.11579425000000043
                },
                {
                    "name": "A5",
                    "midi": 81,
                    "time": 24.779969500000064,
                    "velocity": 0.6771653543307087,
                    "duration": 0.11579425000000043
                },
                {
                    "name": "F#5",
                    "midi": 78,
                    "time": 24.779969500000064,
                    "velocity": 0.5590551181102362,
                    "duration": 0.17369137500000065
                },
                {
                    "name": "A#5",
                    "midi": 82,
                    "time": 24.895763750000064,
                    "velocity": 0.6456692913385826,
                    "duration": 0.057897125000000216
                },
                {
                    "name": "A#4",
                    "midi": 70,
                    "time": 24.895763750000064,
                    "velocity": 0.5511811023622047,
                    "duration": 0.057897125000000216
                },
                {
                    "name": "A#4",
                    "midi": 70,
                    "time": 25.011558000000065,
                    "velocity": 0.5748031496062992,
                    "duration": 0.23158850000000086
                },
                {
                    "name": "F#5",
                    "midi": 78,
                    "time": 25.011558000000065,
                    "velocity": 0.5748031496062992,
                    "duration": 0.23158850000000086
                },
                {
                    "name": "A#5",
                    "midi": 82,
                    "time": 25.011558000000065,
                    "velocity": 0.6929133858267716,
                    "duration": 0.23158850000000086
                },
                {
                    "name": "A#4",
                    "midi": 70,
                    "time": 25.243146500000066,
                    "velocity": 0.5511811023622047,
                    "duration": 0.17369137500000065
                },
                {
                    "name": "A#5",
                    "midi": 82,
                    "time": 25.243146500000066,
                    "velocity": 0.6535433070866141,
                    "duration": 0.17369137500000065
                },
                {
                    "name": "F#5",
                    "midi": 78,
                    "time": 25.243146500000066,
                    "velocity": 0.5511811023622047,
                    "duration": 0.11579425000000043
                },
                {
                    "name": "F5",
                    "midi": 77,
                    "time": 25.358940750000066,
                    "velocity": 0.5118110236220472,
                    "duration": 0.057897125000000216
                },
                {
                    "name": "G#5",
                    "midi": 80,
                    "time": 25.358940750000066,
                    "velocity": 0.6062992125984252,
                    "duration": 0.057897125000000216
                },
                {
                    "name": "A#4",
                    "midi": 70,
                    "time": 25.474735000000067,
                    "velocity": 0.49606299212598426,
                    "duration": 0.17369137500000065
                },
                {
                    "name": "A#5",
                    "midi": 82,
                    "time": 25.474735000000067,
                    "velocity": 0.5905511811023622,
                    "duration": 0.17369137500000065
                },
                {
                    "name": "F5",
                    "midi": 77,
                    "time": 25.474735000000067,
                    "velocity": 0.49606299212598426,
                    "duration": 0.11579425000000043
                },
                {
                    "name": "G#5",
                    "midi": 80,
                    "time": 25.474735000000067,
                    "velocity": 0.5905511811023622,
                    "duration": 0.11579425000000043
                },
                {
                    "name": "D#5",
                    "midi": 75,
                    "time": 25.590529250000067,
                    "velocity": 0.4566929133858268,
                    "duration": 0.057897125000000216
                },
                {
                    "name": "F#5",
                    "midi": 78,
                    "time": 25.590529250000067,
                    "velocity": 0.5433070866141733,
                    "duration": 0.057897125000000216
                },
                {
                    "name": "F5",
                    "midi": 77,
                    "time": 25.706323500000067,
                    "velocity": 0.5748031496062992,
                    "duration": 0.23158850000000086
                },
                {
                    "name": "A#4",
                    "midi": 70,
                    "time": 25.706323500000067,
                    "velocity": 0.5748031496062992,
                    "duration": 0.23158850000000086
                },
                {
                    "name": "G#5",
                    "midi": 80,
                    "time": 25.706323500000067,
                    "velocity": 0.5748031496062992,
                    "duration": 0.23158850000000086
                },
                {
                    "name": "A#5",
                    "midi": 82,
                    "time": 25.706323500000067,
                    "velocity": 0.6929133858267716,
                    "duration": 0.23158850000000086
                },
                {
                    "name": "F5",
                    "midi": 77,
                    "time": 25.93791200000007,
                    "velocity": 0.5511811023622047,
                    "duration": 0.11579425000000043
                },
                {
                    "name": "A#4",
                    "midi": 70,
                    "time": 25.93791200000007,
                    "velocity": 0.5511811023622047,
                    "duration": 0.17369137500000065
                },
                {
                    "name": "A#5",
                    "midi": 82,
                    "time": 25.93791200000007,
                    "velocity": 0.6535433070866141,
                    "duration": 0.17369137500000065
                },
                {
                    "name": "G#5",
                    "midi": 80,
                    "time": 25.93791200000007,
                    "velocity": 0.5511811023622047,
                    "duration": 0.11579425000000043
                },
                {
                    "name": "F#5",
                    "midi": 78,
                    "time": 26.05370625000007,
                    "velocity": 0.6062992125984252,
                    "duration": 0.057897125000000216
                },
                {
                    "name": "D#5",
                    "midi": 75,
                    "time": 26.05370625000007,
                    "velocity": 0.5118110236220472,
                    "duration": 0.057897125000000216
                },
                {
                    "name": "A#4",
                    "midi": 70,
                    "time": 26.16950050000007,
                    "velocity": 0.49606299212598426,
                    "duration": 0.17369137500000065
                },
                {
                    "name": "A#5",
                    "midi": 82,
                    "time": 26.16950050000007,
                    "velocity": 0.5905511811023622,
                    "duration": 0.17369137500000065
                },
                {
                    "name": "D#5",
                    "midi": 75,
                    "time": 26.16950050000007,
                    "velocity": 0.49606299212598426,
                    "duration": 0.11579425000000043
                },
                {
                    "name": "F#5",
                    "midi": 78,
                    "time": 26.16950050000007,
                    "velocity": 0.5905511811023622,
                    "duration": 0.11579425000000043
                },
                {
                    "name": "D5",
                    "midi": 74,
                    "time": 26.28529475000007,
                    "velocity": 0.4566929133858268,
                    "duration": 0.057897125000000216
                },
                {
                    "name": "F5",
                    "midi": 77,
                    "time": 26.28529475000007,
                    "velocity": 0.5433070866141733,
                    "duration": 0.057897125000000216
                },
                {
                    "name": "D#5",
                    "midi": 75,
                    "time": 26.40108900000007,
                    "velocity": 0.5118110236220472,
                    "duration": 0.11579425000000043
                },
                {
                    "name": "A#4",
                    "midi": 70,
                    "time": 26.40108900000007,
                    "velocity": 0.5118110236220472,
                    "duration": 0.11579425000000043
                },
                {
                    "name": "F#5",
                    "midi": 78,
                    "time": 26.40108900000007,
                    "velocity": 0.5118110236220472,
                    "duration": 0.11579425000000043
                },
                {
                    "name": "A#5",
                    "midi": 82,
                    "time": 26.40108900000007,
                    "velocity": 0.6220472440944882,
                    "duration": 0.11579425000000043
                },
                {
                    "name": "A#4",
                    "midi": 70,
                    "time": 26.63267750000007,
                    "velocity": 0.49606299212598426,
                    "duration": 0.11579425000000043
                },
                {
                    "name": "F#5",
                    "midi": 78,
                    "time": 26.63267750000007,
                    "velocity": 0.49606299212598426,
                    "duration": 0.11579425000000043
                },
                {
                    "name": "F5",
                    "midi": 77,
                    "time": 26.74847175000007,
                    "velocity": 0.5354330708661418,
                    "duration": 0.057897125000000216
                },
                {
                    "name": "G#4",
                    "midi": 68,
                    "time": 26.74847175000007,
                    "velocity": 0.44881889763779526,
                    "duration": 0.057897125000000216
                },
                {
                    "name": "G#4",
                    "midi": 68,
                    "time": 26.86426600000007,
                    "velocity": 0.4251968503937008,
                    "duration": 0.11579425000000043
                },
                {
                    "name": "F5",
                    "midi": 77,
                    "time": 26.86426600000007,
                    "velocity": 0.5039370078740157,
                    "duration": 0.11579425000000043
                },
                {
                    "name": "G4",
                    "midi": 67,
                    "time": 26.980060250000072,
                    "velocity": 0.3858267716535433,
                    "duration": 0.057897125000000216
                },
                {
                    "name": "D#5",
                    "midi": 75,
                    "time": 26.980060250000072,
                    "velocity": 0.4645669291338583,
                    "duration": 0.057897125000000216
                },
                {
                    "name": "G4",
                    "midi": 67,
                    "time": 27.095854500000073,
                    "velocity": 0.48031496062992124,
                    "duration": 0.11579425000000043
                },
                {
                    "name": "D#5",
                    "midi": 75,
                    "time": 27.095854500000073,
                    "velocity": 0.5826771653543307,
                    "duration": 0.11579425000000043
                },
                {
                    "name": "G4",
                    "midi": 67,
                    "time": 27.327443000000073,
                    "velocity": 0.4094488188976378,
                    "duration": 0.11579425000000043
                },
                {
                    "name": "A#4",
                    "midi": 70,
                    "time": 27.327443000000073,
                    "velocity": 0.4094488188976378,
                    "duration": 0.17369137500000065
                },
                {
                    "name": "E4",
                    "midi": 64,
                    "time": 27.443237250000074,
                    "velocity": 0.3543307086614173,
                    "duration": 0.057897125000000216
                },
                {
                    "name": "B4",
                    "midi": 71,
                    "time": 27.559031500000074,
                    "velocity": 0.3779527559055118,
                    "duration": 0.17369137500000065
                },
                {
                    "name": "E4",
                    "midi": 64,
                    "time": 27.559031500000074,
                    "velocity": 0.3228346456692913,
                    "duration": 0.11579425000000043
                },
                {
                    "name": "G4",
                    "midi": 67,
                    "time": 27.559031500000074,
                    "velocity": 0.3779527559055118,
                    "duration": 0.17369137500000065
                },
                {
                    "name": "D#4",
                    "midi": 63,
                    "time": 27.674825750000075,
                    "velocity": 0.2755905511811024,
                    "duration": 0.057897125000000216
                },
                {
                    "name": "B3",
                    "midi": 59,
                    "time": 27.790620000000075,
                    "velocity": 0.36220472440944884,
                    "duration": 0.17369137500000065
                },
                {
                    "name": "D#4",
                    "midi": 63,
                    "time": 27.790620000000075,
                    "velocity": 0.4251968503937008,
                    "duration": 0.11579425000000043
                },
                {
                    "name": "E4",
                    "midi": 64,
                    "time": 27.906414250000076,
                    "velocity": 0.33070866141732286,
                    "duration": 0.057897125000000216
                },
                {
                    "name": "B3",
                    "midi": 59,
                    "time": 28.022208500000076,
                    "velocity": 0.33858267716535434,
                    "duration": 0.17369137500000065
                },
                {
                    "name": "E4",
                    "midi": 64,
                    "time": 28.022208500000076,
                    "velocity": 0.4015748031496063,
                    "duration": 0.11579425000000043
                },
                {
                    "name": "F4",
                    "midi": 65,
                    "time": 28.138002750000076,
                    "velocity": 0.33858267716535434,
                    "duration": 0.057897125000000216
                },
                {
                    "name": "B3",
                    "midi": 59,
                    "time": 28.253797000000077,
                    "velocity": 0.3464566929133858,
                    "duration": 0.17369137500000065
                },
                {
                    "name": "D#4",
                    "midi": 63,
                    "time": 28.253797000000077,
                    "velocity": 0.3464566929133858,
                    "duration": 0.17369137500000065
                },
                {
                    "name": "F4",
                    "midi": 65,
                    "time": 28.253797000000077,
                    "velocity": 0.4094488188976378,
                    "duration": 0.11579425000000043
                },
                {
                    "name": "F#4",
                    "midi": 66,
                    "time": 28.369591250000077,
                    "velocity": 0.3464566929133858,
                    "duration": 0.057897125000000216
                },
                {
                    "name": "B3",
                    "midi": 59,
                    "time": 28.485385500000078,
                    "velocity": 0.3464566929133858,
                    "duration": 0.17369137500000065
                },
                {
                    "name": "D#4",
                    "midi": 63,
                    "time": 28.485385500000078,
                    "velocity": 0.3464566929133858,
                    "duration": 0.17369137500000065
                },
                {
                    "name": "F#4",
                    "midi": 66,
                    "time": 28.485385500000078,
                    "velocity": 0.41732283464566927,
                    "duration": 0.11579425000000043
                },
                {
                    "name": "G4",
                    "midi": 67,
                    "time": 28.601179750000078,
                    "velocity": 0.36220472440944884,
                    "duration": 0.057897125000000216
                },
                {
                    "name": "B3",
                    "midi": 59,
                    "time": 28.71697400000008,
                    "velocity": 0.3700787401574803,
                    "duration": 0.17369137500000065
                },
                {
                    "name": "D#4",
                    "midi": 63,
                    "time": 28.71697400000008,
                    "velocity": 0.3700787401574803,
                    "duration": 0.17369137500000065
                },
                {
                    "name": "G4",
                    "midi": 67,
                    "time": 28.71697400000008,
                    "velocity": 0.4409448818897638,
                    "duration": 0.11579425000000043
                },
                {
                    "name": "G#4",
                    "midi": 68,
                    "time": 28.83276825000008,
                    "velocity": 0.3700787401574803,
                    "duration": 0.057897125000000216
                },
                {
                    "name": "B3",
                    "midi": 59,
                    "time": 28.94856250000008,
                    "velocity": 0.3779527559055118,
                    "duration": 0.17369137500000065
                },
                {
                    "name": "D#4",
                    "midi": 63,
                    "time": 28.94856250000008,
                    "velocity": 0.3779527559055118,
                    "duration": 0.17369137500000065
                },
                {
                    "name": "G#4",
                    "midi": 68,
                    "time": 28.94856250000008,
                    "velocity": 0.44881889763779526,
                    "duration": 0.11579425000000043
                },
                {
                    "name": "A4",
                    "midi": 69,
                    "time": 29.06435675000008,
                    "velocity": 0.3858267716535433,
                    "duration": 0.057897125000000216
                },
                {
                    "name": "D#4",
                    "midi": 63,
                    "time": 29.18015100000008,
                    "velocity": 0.3937007874015748,
                    "duration": 0.17369137500000065
                },
                {
                    "name": "A4",
                    "midi": 69,
                    "time": 29.18015100000008,
                    "velocity": 0.4645669291338583,
                    "duration": 0.11579425000000043
                },
                {
                    "name": "A#4",
                    "midi": 70,
                    "time": 29.29594525000008,
                    "velocity": 0.4094488188976378,
                    "duration": 0.057897125000000216
                },
                {
                    "name": "D#4",
                    "midi": 63,
                    "time": 29.41173950000008,
                    "velocity": 0.4094488188976378,
                    "duration": 0.17369137500000065
                },
                {
                    "name": "A#4",
                    "midi": 70,
                    "time": 29.41173950000008,
                    "velocity": 0.48031496062992124,
                    "duration": 0.11579425000000043
                },
                {
                    "name": "B4",
                    "midi": 71,
                    "time": 29.52753375000008,
                    "velocity": 0.4251968503937008,
                    "duration": 0.057897125000000216
                },
                {
                    "name": "D#4",
                    "midi": 63,
                    "time": 29.643328000000082,
                    "velocity": 0.4330708661417323,
                    "duration": 0.17369137500000065
                },
                {
                    "name": "G#4",
                    "midi": 68,
                    "time": 29.643328000000082,
                    "velocity": 0.5196850393700787,
                    "duration": 0.17369137500000065
                },
                {
                    "name": "B4",
                    "midi": 71,
                    "time": 29.643328000000082,
                    "velocity": 0.5196850393700787,
                    "duration": 0.11579425000000043
                },
                {
                    "name": "C5",
                    "midi": 72,
                    "time": 29.759122250000082,
                    "velocity": 0.4409448818897638,
                    "duration": 0.057897125000000216
                },
                {
                    "name": "G#4",
                    "midi": 68,
                    "time": 29.874916500000083,
                    "velocity": 0.4566929133858268,
                    "duration": 0.17369137500000065
                },
                {
                    "name": "D#4",
                    "midi": 63,
                    "time": 29.874916500000083,
                    "velocity": 0.4566929133858268,
                    "duration": 0.17369137500000065
                },
                {
                    "name": "C5",
                    "midi": 72,
                    "time": 29.874916500000083,
                    "velocity": 0.5433070866141733,
                    "duration": 0.11579425000000043
                },
                {
                    "name": "C#5",
                    "midi": 73,
                    "time": 29.990710750000083,
                    "velocity": 0.47244094488188976,
                    "duration": 0.057897125000000216
                },
                {
                    "name": "D#4",
                    "midi": 63,
                    "time": 30.106505000000084,
                    "velocity": 0.48031496062992124,
                    "duration": 0.17369137500000065
                },
                {
                    "name": "G#4",
                    "midi": 68,
                    "time": 30.106505000000084,
                    "velocity": 0.48031496062992124,
                    "duration": 0.17369137500000065
                },
                {
                    "name": "C#5",
                    "midi": 73,
                    "time": 30.106505000000084,
                    "velocity": 0.5590551181102362,
                    "duration": 0.11579425000000043
                },
                {
                    "name": "D5",
                    "midi": 74,
                    "time": 30.222299250000084,
                    "velocity": 0.4881889763779528,
                    "duration": 0.057897125000000216
                },
                {
                    "name": "D#4",
                    "midi": 63,
                    "time": 30.338093500000085,
                    "velocity": 0.49606299212598426,
                    "duration": 0.17369137500000065
                },
                {
                    "name": "G#4",
                    "midi": 68,
                    "time": 30.338093500000085,
                    "velocity": 0.49606299212598426,
                    "duration": 0.17369137500000065
                },
                {
                    "name": "D5",
                    "midi": 74,
                    "time": 30.338093500000085,
                    "velocity": 0.5984251968503937,
                    "duration": 0.11579425000000043
                },
                {
                    "name": "D#5",
                    "midi": 75,
                    "time": 30.453887750000085,
                    "velocity": 0.5196850393700787,
                    "duration": 0.057897125000000216
                },
                {
                    "name": "D#4",
                    "midi": 63,
                    "time": 30.569682000000086,
                    "velocity": 0.5354330708661418,
                    "duration": 0.17369137500000065
                },
                {
                    "name": "A#4",
                    "midi": 70,
                    "time": 30.569682000000086,
                    "velocity": 0.5354330708661418,
                    "duration": 0.17369137500000065
                },
                {
                    "name": "D#5",
                    "midi": 75,
                    "time": 30.569682000000086,
                    "velocity": 0.6377952755905512,
                    "duration": 0.11579425000000043
                },
                {
                    "name": "E5",
                    "midi": 76,
                    "time": 30.685476250000086,
                    "velocity": 0.6062992125984252,
                    "duration": 0.057897125000000216
                },
                {
                    "name": "A#4",
                    "midi": 70,
                    "time": 30.801270500000086,
                    "velocity": 0.5433070866141733,
                    "duration": 0.17369137500000065
                },
                {
                    "name": "E5",
                    "midi": 76,
                    "time": 30.801270500000086,
                    "velocity": 0.6456692913385826,
                    "duration": 0.11579425000000043
                },
                {
                    "name": "D#5",
                    "midi": 75,
                    "time": 30.917064750000087,
                    "velocity": 0.6141732283464567,
                    "duration": 0.057897125000000216
                },
                {
                    "name": "D#4",
                    "midi": 63,
                    "time": 31.032859000000087,
                    "velocity": 0.5511811023622047,
                    "duration": 0.17369137500000065
                },
                {
                    "name": "A#4",
                    "midi": 70,
                    "time": 31.032859000000087,
                    "velocity": 0.5511811023622047,
                    "duration": 0.17369137500000065
                },
                {
                    "name": "D#5",
                    "midi": 75,
                    "time": 31.032859000000087,
                    "velocity": 0.6614173228346457,
                    "duration": 0.11579425000000043
                },
                {
                    "name": "C#5",
                    "midi": 73,
                    "time": 31.148653250000088,
                    "velocity": 0.6614173228346457,
                    "duration": 0.057897125000000216
                },
                {
                    "name": "D#4",
                    "midi": 63,
                    "time": 31.264447500000088,
                    "velocity": 0.5433070866141733,
                    "duration": 0.17369137500000065
                },
                {
                    "name": "G#4",
                    "midi": 68,
                    "time": 31.264447500000088,
                    "velocity": 0.5433070866141733,
                    "duration": 0.17369137500000065
                },
                {
                    "name": "C#5",
                    "midi": 73,
                    "time": 31.264447500000088,
                    "velocity": 0.6456692913385826,
                    "duration": 0.11579425000000043
                },
                {
                    "name": "B4",
                    "midi": 71,
                    "time": 31.38024175000009,
                    "velocity": 0.6220472440944882,
                    "duration": 0.057897125000000216
                },
                {
                    "name": "D#4",
                    "midi": 63,
                    "time": 31.49603600000009,
                    "velocity": 0.5511811023622047,
                    "duration": 0.17369137500000065
                },
                {
                    "name": "G#4",
                    "midi": 68,
                    "time": 31.49603600000009,
                    "velocity": 0.5511811023622047,
                    "duration": 0.17369137500000065
                },
                {
                    "name": "B4",
                    "midi": 71,
                    "time": 31.49603600000009,
                    "velocity": 0.6535433070866141,
                    "duration": 0.11579425000000043
                },
                {
                    "name": "C#5",
                    "midi": 73,
                    "time": 31.61183025000009,
                    "velocity": 0.6220472440944882,
                    "duration": 0.057897125000000216
                },
                {
                    "name": "D#4",
                    "midi": 63,
                    "time": 31.72762450000009,
                    "velocity": 0.5669291338582677,
                    "duration": 0.17369137500000065
                },
                {
                    "name": "G#4",
                    "midi": 68,
                    "time": 31.72762450000009,
                    "velocity": 0.5669291338582677,
                    "duration": 0.17369137500000065
                },
                {
                    "name": "C#5",
                    "midi": 73,
                    "time": 31.72762450000009,
                    "velocity": 0.6692913385826772,
                    "duration": 0.11579425000000043
                },
                {
                    "name": "D#5",
                    "midi": 75,
                    "time": 31.84341875000009,
                    "velocity": 0.6771653543307087,
                    "duration": 0.057897125000000216
                },
                {
                    "name": "E4",
                    "midi": 64,
                    "time": 31.95921300000009,
                    "velocity": 0.5748031496062992,
                    "duration": 0.1736913749999971
                },
                {
                    "name": "G#4",
                    "midi": 68,
                    "time": 31.95921300000009,
                    "velocity": 0.5748031496062992,
                    "duration": 0.1736913749999971
                },
                {
                    "name": "D#5",
                    "midi": 75,
                    "time": 31.95921300000009,
                    "velocity": 0.6850393700787402,
                    "duration": 0.11579425000000043
                },
                {
                    "name": "C#5",
                    "midi": 73,
                    "time": 32.07500725000009,
                    "velocity": 0.6771653543307087,
                    "duration": 0.05789712499999666
                },
                {
                    "name": "E4",
                    "midi": 64,
                    "time": 32.190801500000084,
                    "velocity": 0.5590551181102362,
                    "duration": 0.1736913749999971
                },
                {
                    "name": "G#4",
                    "midi": 68,
                    "time": 32.190801500000084,
                    "velocity": 0.5590551181102362,
                    "duration": 0.1736913749999971
                },
                {
                    "name": "C#5",
                    "midi": 73,
                    "time": 32.190801500000084,
                    "velocity": 0.6614173228346457,
                    "duration": 0.11579425000000043
                },
                {
                    "name": "B4",
                    "midi": 71,
                    "time": 32.306595750000085,
                    "velocity": 0.6535433070866141,
                    "duration": 0.05789712499999666
                },
                {
                    "name": "C#4",
                    "midi": 61,
                    "time": 32.42239000000008,
                    "velocity": 0.5354330708661418,
                    "duration": 0.1736913749999971
                },
                {
                    "name": "E4",
                    "midi": 64,
                    "time": 32.42239000000008,
                    "velocity": 0.5354330708661418,
                    "duration": 0.1736913749999971
                },
                {
                    "name": "B4",
                    "midi": 71,
                    "time": 32.42239000000008,
                    "velocity": 0.6377952755905512,
                    "duration": 0.11579425000000043
                },
                {
                    "name": "A#4",
                    "midi": 70,
                    "time": 32.53818425000008,
                    "velocity": 0.6299212598425197,
                    "duration": 0.05789712499999666
                },
                {
                    "name": "C#4",
                    "midi": 61,
                    "time": 32.65397850000007,
                    "velocity": 0.6220472440944882,
                    "duration": 0.23158850000000086
                },
                {
                    "name": "B4",
                    "midi": 71,
                    "time": 32.76977275000007,
                    "velocity": 0.5590551181102362,
                    "duration": 0.11579425000000043
                },
                {
                    "name": "B4",
                    "midi": 71,
                    "time": 32.88556700000007,
                    "velocity": 0.5511811023622047,
                    "duration": 0.11579425000000043
                },
                {
                    "name": "C#4",
                    "midi": 61,
                    "time": 32.88556700000007,
                    "velocity": 0.4566929133858268,
                    "duration": 0.23158850000000086
                },
                {
                    "name": "A#4",
                    "midi": 70,
                    "time": 33.00136125000007,
                    "velocity": 0.5275590551181102,
                    "duration": 0.11579425000000043
                },
                {
                    "name": "A#4",
                    "midi": 70,
                    "time": 33.117155500000074,
                    "velocity": 0.5039370078740157,
                    "duration": 0.11579425000000043
                },
                {
                    "name": "C#4",
                    "midi": 61,
                    "time": 33.117155500000074,
                    "velocity": 0.4251968503937008,
                    "duration": 0.23158850000000086
                },
                {
                    "name": "D#4",
                    "midi": 63,
                    "time": 33.232949750000074,
                    "velocity": 0.4881889763779528,
                    "duration": 0.11579425000000043
                },
                {
                    "name": "B3",
                    "midi": 59,
                    "time": 33.348744000000075,
                    "velocity": 0.3543307086614173,
                    "duration": 0.1736913749999971
                },
                {
                    "name": "D#4",
                    "midi": 63,
                    "time": 33.348744000000075,
                    "velocity": 0.41732283464566927,
                    "duration": 0.11579425000000043
                },
                {
                    "name": "E4",
                    "midi": 64,
                    "time": 33.464538250000075,
                    "velocity": 0.3543307086614173,
                    "duration": 0.05789712499999666
                },
                {
                    "name": "B3",
                    "midi": 59,
                    "time": 33.58033250000007,
                    "velocity": 0.36220472440944884,
                    "duration": 0.1736913749999971
                },
                {
                    "name": "E4",
                    "midi": 64,
                    "time": 33.58033250000007,
                    "velocity": 0.4251968503937008,
                    "duration": 0.11579425000000043
                },
                {
                    "name": "F4",
                    "midi": 65,
                    "time": 33.69612675000007,
                    "velocity": 0.36220472440944884,
                    "duration": 0.05789712499999666
                },
                {
                    "name": "B3",
                    "midi": 59,
                    "time": 33.81192100000006,
                    "velocity": 0.3858267716535433,
                    "duration": 0.1736913749999971
                },
                {
                    "name": "D#4",
                    "midi": 63,
                    "time": 33.81192100000006,
                    "velocity": 0.3858267716535433,
                    "duration": 0.1736913749999971
                },
                {
                    "name": "F4",
                    "midi": 65,
                    "time": 33.81192100000006,
                    "velocity": 0.4566929133858268,
                    "duration": 0.11579425000000043
                },
                {
                    "name": "F#4",
                    "midi": 66,
                    "time": 33.92771525000006,
                    "velocity": 0.3858267716535433,
                    "duration": 0.05789712499999666
                },
                {
                    "name": "B3",
                    "midi": 59,
                    "time": 34.043509500000056,
                    "velocity": 0.4015748031496063,
                    "duration": 0.1736913749999971
                },
                {
                    "name": "D#4",
                    "midi": 63,
                    "time": 34.043509500000056,
                    "velocity": 0.4015748031496063,
                    "duration": 0.1736913749999971
                },
                {
                    "name": "F#4",
                    "midi": 66,
                    "time": 34.043509500000056,
                    "velocity": 0.47244094488188976,
                    "duration": 0.11579425000000043
                },
                {
                    "name": "G4",
                    "midi": 67,
                    "time": 34.159303750000056,
                    "velocity": 0.4015748031496063,
                    "duration": 0.05789712499999666
                },
                {
                    "name": "B3",
                    "midi": 59,
                    "time": 34.27509800000005,
                    "velocity": 0.41732283464566927,
                    "duration": 0.1736913749999971
                },
                {
                    "name": "D#4",
                    "midi": 63,
                    "time": 34.27509800000005,
                    "velocity": 0.41732283464566927,
                    "duration": 0.1736913749999971
                },
                {
                    "name": "G4",
                    "midi": 67,
                    "time": 34.27509800000005,
                    "velocity": 0.49606299212598426,
                    "duration": 0.11579425000000043
                },
                {
                    "name": "G#4",
                    "midi": 68,
                    "time": 34.39089225000005,
                    "velocity": 0.4251968503937008,
                    "duration": 0.05789712499999666
                },
                {
                    "name": "B3",
                    "midi": 59,
                    "time": 34.50668650000004,
                    "velocity": 0.4330708661417323,
                    "duration": 0.1736913749999971
                },
                {
                    "name": "D#4",
                    "midi": 63,
                    "time": 34.50668650000004,
                    "velocity": 0.4330708661417323,
                    "duration": 0.1736913749999971
                },
                {
                    "name": "G#4",
                    "midi": 68,
                    "time": 34.50668650000004,
                    "velocity": 0.5118110236220472,
                    "duration": 0.11579425000000043
                },
                {
                    "name": "A4",
                    "midi": 69,
                    "time": 34.622480750000044,
                    "velocity": 0.4409448818897638,
                    "duration": 0.05789712499999666
                },
                {
                    "name": "B3",
                    "midi": 59,
                    "time": 34.73827500000004,
                    "velocity": 0.47244094488188976,
                    "duration": 0.1736913749999971
                },
                {
                    "name": "E4",
                    "midi": 64,
                    "time": 34.73827500000004,
                    "velocity": 0.47244094488188976,
                    "duration": 0.1736913749999971
                },
                {
                    "name": "A4",
                    "midi": 69,
                    "time": 34.73827500000004,
                    "velocity": 0.5590551181102362,
                    "duration": 0.11579425000000043
                },
                {
                    "name": "A#4",
                    "midi": 70,
                    "time": 34.85406925000004,
                    "velocity": 0.48031496062992124,
                    "duration": 0.05789712499999666
                },
                {
                    "name": "B3",
                    "midi": 59,
                    "time": 34.96986350000003,
                    "velocity": 0.48031496062992124,
                    "duration": 0.1736913749999971
                },
                {
                    "name": "E4",
                    "midi": 64,
                    "time": 34.96986350000003,
                    "velocity": 0.48031496062992124,
                    "duration": 0.1736913749999971
                },
                {
                    "name": "A#4",
                    "midi": 70,
                    "time": 34.96986350000003,
                    "velocity": 0.5669291338582677,
                    "duration": 0.11579425000000043
                },
                {
                    "name": "B4",
                    "midi": 71,
                    "time": 35.08565775000003,
                    "velocity": 0.4881889763779528,
                    "duration": 0.05789712499999666
                },
                {
                    "name": "B3",
                    "midi": 59,
                    "time": 35.201452000000025,
                    "velocity": 0.4881889763779528,
                    "duration": 0.1736913749999971
                },
                {
                    "name": "E4",
                    "midi": 64,
                    "time": 35.201452000000025,
                    "velocity": 0.5826771653543307,
                    "duration": 0.1736913749999971
                },
                {
                    "name": "B4",
                    "midi": 71,
                    "time": 35.201452000000025,
                    "velocity": 0.5826771653543307,
                    "duration": 0.11579425000000043
                },
                {
                    "name": "C5",
                    "midi": 72,
                    "time": 35.317246250000025,
                    "velocity": 0.5039370078740157,
                    "duration": 0.05789712499999666
                },
                {
                    "name": "D#4",
                    "midi": 63,
                    "time": 35.43304050000002,
                    "velocity": 0.5118110236220472,
                    "duration": 0.1736913749999971
                },
                {
                    "name": "C5",
                    "midi": 72,
                    "time": 35.43304050000002,
                    "velocity": 0.6062992125984252,
                    "duration": 0.11579425000000043
                },
                {
                    "name": "C#5",
                    "midi": 73,
                    "time": 35.54883475000002,
                    "velocity": 0.5669291338582677,
                    "duration": 0.05789712499999666
                },
                {
                    "name": "D#4",
                    "midi": 63,
                    "time": 35.66462900000001,
                    "velocity": 0.5196850393700787,
                    "duration": 0.1736913749999971
                },
                {
                    "name": "G#4",
                    "midi": 68,
                    "time": 35.66462900000001,
                    "velocity": 0.5196850393700787,
                    "duration": 0.1736913749999971
                },
                {
                    "name": "C#5",
                    "midi": 73,
                    "time": 35.66462900000001,
                    "velocity": 0.6220472440944882,
                    "duration": 0.11579425000000043
                },
                {
                    "name": "D5",
                    "midi": 74,
                    "time": 35.78042325000001,
                    "velocity": 0.5748031496062992,
                    "duration": 0.05789712499999666
                },
                {
                    "name": "D#4",
                    "midi": 63,
                    "time": 35.896217500000006,
                    "velocity": 0.5354330708661418,
                    "duration": 0.1736913749999971
                },
                {
                    "name": "G#4",
                    "midi": 68,
                    "time": 35.896217500000006,
                    "velocity": 0.5354330708661418,
                    "duration": 0.1736913749999971
                },
                {
                    "name": "D5",
                    "midi": 74,
                    "time": 35.896217500000006,
                    "velocity": 0.6456692913385826,
                    "duration": 0.1736913749999971
                },
                {
                    "name": "D#5",
                    "midi": 75,
                    "time": 36.012011750000006,
                    "velocity": 0.5984251968503937,
                    "duration": 0.05789712499999666
                },
                {
                    "name": "E4",
                    "midi": 64,
                    "time": 36.127806,
                    "velocity": 0.5984251968503937,
                    "duration": 0.1736913749999971
                },
                {
                    "name": "G#4",
                    "midi": 68,
                    "time": 36.127806,
                    "velocity": 0.5984251968503937,
                    "duration": 0.1736913749999971
                },
                {
                    "name": "D#5",
                    "midi": 75,
                    "time": 36.127806,
                    "velocity": 0.7086614173228346,
                    "duration": 0.11579425000000043
                },
                {
                    "name": "C#5",
                    "midi": 73,
                    "time": 36.24360025,
                    "velocity": 0.6062992125984252,
                    "duration": 0.05789712499999666
                },
                {
                    "name": "C#5",
                    "midi": 73,
                    "time": 36.35939449999999,
                    "velocity": 0.6377952755905512,
                    "duration": 0.11579425000000043
                },
                {
                    "name": "B4",
                    "midi": 71,
                    "time": 36.475188749999994,
                    "velocity": 0.5748031496062992,
                    "duration": 0.05789712499999666
                },
                {
                    "name": "B4",
                    "midi": 71,
                    "time": 36.59098299999999,
                    "velocity": 0.6141732283464567,
                    "duration": 0.11579425000000043
                },
                {
                    "name": "A#4",
                    "midi": 70,
                    "time": 36.70677724999999,
                    "velocity": 0.5590551181102362,
                    "duration": 0.05789712499999666
                },
                {
                    "name": "D#4",
                    "midi": 63,
                    "time": 36.82257149999998,
                    "velocity": 0.5984251968503937,
                    "duration": 0.1736913749999971
                },
                {
                    "name": "G#4",
                    "midi": 68,
                    "time": 36.82257149999998,
                    "velocity": 0.5984251968503937,
                    "duration": 0.1736913749999971
                },
                {
                    "name": "C#5",
                    "midi": 73,
                    "time": 36.82257149999998,
                    "velocity": 0.7086614173228346,
                    "duration": 0.11579425000000043
                },
                {
                    "name": "B4",
                    "midi": 71,
                    "time": 36.93836574999998,
                    "velocity": 0.6062992125984252,
                    "duration": 0.05789712499999666
                },
                {
                    "name": "B4",
                    "midi": 71,
                    "time": 37.054159999999975,
                    "velocity": 0.6377952755905512,
                    "duration": 0.11579425000000043
                },
                {
                    "name": "A#4",
                    "midi": 70,
                    "time": 37.169954249999975,
                    "velocity": 0.5748031496062992,
                    "duration": 0.05789712499999666
                },
                {
                    "name": "A#4",
                    "midi": 70,
                    "time": 37.28574849999997,
                    "velocity": 0.6141732283464567,
                    "duration": 0.11579425000000043
                },
                {
                    "name": "G#4",
                    "midi": 68,
                    "time": 37.40154274999997,
                    "velocity": 0.5590551181102362,
                    "duration": 0.05789712499999666
                },
                {
                    "name": "E4",
                    "midi": 64,
                    "time": 37.51733699999996,
                    "velocity": 0.5984251968503937,
                    "duration": 0.1736913749999971
                },
                {
                    "name": "G#4",
                    "midi": 68,
                    "time": 37.51733699999996,
                    "velocity": 0.5984251968503937,
                    "duration": 0.1736913749999971
                },
                {
                    "name": "D#5",
                    "midi": 75,
                    "time": 37.51733699999996,
                    "velocity": 0.7086614173228346,
                    "duration": 0.11579425000000043
                },
                {
                    "name": "C#5",
                    "midi": 73,
                    "time": 37.63313124999996,
                    "velocity": 0.6062992125984252,
                    "duration": 0.05789712499999666
                },
                {
                    "name": "C#5",
                    "midi": 73,
                    "time": 37.748925499999956,
                    "velocity": 0.6377952755905512,
                    "duration": 0.11579425000000043
                },
                {
                    "name": "B4",
                    "midi": 71,
                    "time": 37.864719749999956,
                    "velocity": 0.5748031496062992,
                    "duration": 0.05789712499999666
                },
                {
                    "name": "B4",
                    "midi": 71,
                    "time": 37.98051399999995,
                    "velocity": 0.6141732283464567,
                    "duration": 0.11579425000000043
                },
                {
                    "name": "A#4",
                    "midi": 70,
                    "time": 38.09630824999995,
                    "velocity": 0.5590551181102362,
                    "duration": 0.05789712499999666
                },
                {
                    "name": "D#4",
                    "midi": 63,
                    "time": 38.21210249999994,
                    "velocity": 0.5984251968503937,
                    "duration": 0.1736913749999971
                },
                {
                    "name": "G#4",
                    "midi": 68,
                    "time": 38.21210249999994,
                    "velocity": 0.5984251968503937,
                    "duration": 0.1736913749999971
                },
                {
                    "name": "C#5",
                    "midi": 73,
                    "time": 38.21210249999994,
                    "velocity": 0.7086614173228346,
                    "duration": 0.11579425000000043
                },
                {
                    "name": "B4",
                    "midi": 71,
                    "time": 38.327896749999944,
                    "velocity": 0.6062992125984252,
                    "duration": 0.05789712499999666
                },
                {
                    "name": "B4",
                    "midi": 71,
                    "time": 38.44369099999994,
                    "velocity": 0.6377952755905512,
                    "duration": 0.11579425000000043
                },
                {
                    "name": "A#4",
                    "midi": 70,
                    "time": 38.55948524999994,
                    "velocity": 0.5748031496062992,
                    "duration": 0.05789712499999666
                },
                {
                    "name": "A#4",
                    "midi": 70,
                    "time": 38.67527949999993,
                    "velocity": 0.6141732283464567,
                    "duration": 0.11579425000000043
                },
                {
                    "name": "G#4",
                    "midi": 68,
                    "time": 38.79107374999993,
                    "velocity": 0.5590551181102362,
                    "duration": 0.05789712499999666
                },
                {
                    "name": "C#4",
                    "midi": 61,
                    "time": 38.906867999999925,
                    "velocity": 0.5984251968503937,
                    "duration": 0.1736913749999971
                },
                {
                    "name": "G#4",
                    "midi": 68,
                    "time": 38.906867999999925,
                    "velocity": 0.5984251968503937,
                    "duration": 0.1736913749999971
                },
                {
                    "name": "B4",
                    "midi": 71,
                    "time": 38.906867999999925,
                    "velocity": 0.7086614173228346,
                    "duration": 0.11579425000000043
                },
                {
                    "name": "A#4",
                    "midi": 70,
                    "time": 39.022662249999925,
                    "velocity": 0.6062992125984252,
                    "duration": 0.05789712499999666
                },
                {
                    "name": "A#4",
                    "midi": 70,
                    "time": 39.13845649999992,
                    "velocity": 0.6377952755905512,
                    "duration": 0.11579425000000043
                },
                {
                    "name": "B4",
                    "midi": 71,
                    "time": 39.25425074999992,
                    "velocity": 0.5748031496062992,
                    "duration": 0.05789712499999666
                },
                {
                    "name": "B4",
                    "midi": 71,
                    "time": 39.37004499999991,
                    "velocity": 0.6220472440944882,
                    "duration": 0.11579425000000043
                },
                {
                    "name": "A#4",
                    "midi": 70,
                    "time": 39.48583924999991,
                    "velocity": 0.5748031496062992,
                    "duration": 0.05789712499999666
                },
                {
                    "name": "A#4",
                    "midi": 70,
                    "time": 39.601633499999906,
                    "velocity": 0.7322834645669292,
                    "duration": 0.11579425000000043
                },
                {
                    "name": "B4",
                    "midi": 71,
                    "time": 39.717427749999906,
                    "velocity": 0.6299212598425197,
                    "duration": 0.05789712499999666
                },
                {
                    "name": "B4",
                    "midi": 71,
                    "time": 39.8332219999999,
                    "velocity": 0.6692913385826772,
                    "duration": 0.11579425000000043
                },
                {
                    "name": "A#4",
                    "midi": 70,
                    "time": 39.9490162499999,
                    "velocity": 0.6141732283464567,
                    "duration": 0.05789712499999666
                },
                {
                    "name": "A#4",
                    "midi": 70,
                    "time": 40.06481049999989,
                    "velocity": 0.6614173228346457,
                    "duration": 0.11579425000000043
                },
                {
                    "name": "B4",
                    "midi": 71,
                    "time": 40.180604749999894,
                    "velocity": 0.6062992125984252,
                    "duration": 0.05789712499999666
                },
                {
                    "name": "B4",
                    "midi": 71,
                    "time": 40.29639899999989,
                    "velocity": 0.7086614173228346,
                    "duration": 0.11579425000000043
                },
                {
                    "name": "A#4",
                    "midi": 70,
                    "time": 40.41219324999989,
                    "velocity": 0.6535433070866141,
                    "duration": 0.05789712499999666
                },
                {
                    "name": "A#4",
                    "midi": 70,
                    "time": 40.52798749999988,
                    "velocity": 0.6692913385826772,
                    "duration": 0.11579425000000043
                },
                {
                    "name": "B4",
                    "midi": 71,
                    "time": 40.64378174999988,
                    "velocity": 0.5905511811023622,
                    "duration": 0.05789712499999666
                },
                {
                    "name": "B4",
                    "midi": 71,
                    "time": 40.759575999999875,
                    "velocity": 0.6220472440944882,
                    "duration": 0.11579425000000043
                },
                {
                    "name": "A#4",
                    "midi": 70,
                    "time": 40.875370249999875,
                    "velocity": 0.5590551181102362,
                    "duration": 0.05789712499999666
                },
                {
                    "name": "A#4",
                    "midi": 70,
                    "time": 40.99116449999987,
                    "velocity": 0.6929133858267716,
                    "duration": 0.11579425000000043
                },
                {
                    "name": "B4",
                    "midi": 71,
                    "time": 41.10695874999987,
                    "velocity": 0.5748031496062992,
                    "duration": 0.05789712499999666
                },
                {
                    "name": "B4",
                    "midi": 71,
                    "time": 41.22275299999986,
                    "velocity": 0.5984251968503937,
                    "duration": 0.11579425000000043
                },
                {
                    "name": "A#4",
                    "midi": 70,
                    "time": 41.33854724999986,
                    "velocity": 0.5275590551181102,
                    "duration": 0.05789712499999666
                },
                {
                    "name": "A#4",
                    "midi": 70,
                    "time": 41.454341499999856,
                    "velocity": 0.5511811023622047,
                    "duration": 0.11579425000000043
                },
                {
                    "name": "B4",
                    "midi": 71,
                    "time": 41.57013574999986,
                    "velocity": 0.4881889763779528,
                    "duration": 0.05789712499999666
                },
                {
                    "name": "G#4",
                    "midi": 68,
                    "time": 41.68592999999985,
                    "velocity": 0.5196850393700787,
                    "duration": 2.0842965000000007
                },
                {
                    "name": "A#4",
                    "midi": 70,
                    "time": 41.68592999999985,
                    "velocity": 0.5196850393700787,
                    "duration": 2.5474735000000024
                },
                {
                    "name": "G4",
                    "midi": 67,
                    "time": 43.77022649999985,
                    "velocity": 0.3779527559055118,
                    "duration": 0.6947655000000026
                },
                {
                    "name": "C#4",
                    "midi": 61,
                    "time": 43.77022649999985,
                    "velocity": 0.3779527559055118,
                    "duration": 0.6947655000000026
                },
                {
                    "name": "B4",
                    "midi": 71,
                    "time": 44.23340349999985,
                    "velocity": 0.3779527559055118,
                    "duration": 0.23158850000000086
                },
                {
                    "name": "B3",
                    "midi": 59,
                    "time": 44.46499199999985,
                    "velocity": 0.3779527559055118,
                    "duration": 0.11579425000000043
                },
                {
                    "name": "G#4",
                    "midi": 68,
                    "time": 44.46499199999985,
                    "velocity": 0.3779527559055118,
                    "duration": 0.11579425000000043
                },
                {
                    "name": "E4",
                    "midi": 64,
                    "time": 44.696580499999854,
                    "velocity": 0.3543307086614173,
                    "duration": 0.1736913749999971
                },
                {
                    "name": "C#4",
                    "midi": 61,
                    "time": 44.696580499999854,
                    "velocity": 0.3543307086614173,
                    "duration": 0.1736913749999971
                },
                {
                    "name": "G#4",
                    "midi": 68,
                    "time": 44.696580499999854,
                    "velocity": 0.41732283464566927,
                    "duration": 0.11579425000000043
                },
                {
                    "name": "B4",
                    "midi": 71,
                    "time": 44.812374749999854,
                    "velocity": 0.3543307086614173,
                    "duration": 0.05789712499999666
                },
                {
                    "name": "G4",
                    "midi": 67,
                    "time": 44.92816899999985,
                    "velocity": 0.3543307086614173,
                    "duration": 0.1736913749999971
                },
                {
                    "name": "C#4",
                    "midi": 61,
                    "time": 44.92816899999985,
                    "velocity": 0.3543307086614173,
                    "duration": 0.1736913749999971
                },
                {
                    "name": "B4",
                    "midi": 71,
                    "time": 44.92816899999985,
                    "velocity": 0.41732283464566927,
                    "duration": 0.11579425000000043
                },
                {
                    "name": "A#4",
                    "midi": 70,
                    "time": 45.04396324999985,
                    "velocity": 0.3543307086614173,
                    "duration": 0.05789712499999666
                },
                {
                    "name": "B3",
                    "midi": 59,
                    "time": 45.15975749999984,
                    "velocity": 0.3543307086614173,
                    "duration": 0.1736913749999971
                },
                {
                    "name": "A#4",
                    "midi": 70,
                    "time": 45.15975749999984,
                    "velocity": 0.41732283464566927,
                    "duration": 0.11579425000000043
                },
                {
                    "name": "G#4",
                    "midi": 68,
                    "time": 45.27555174999984,
                    "velocity": 0.3543307086614173,
                    "duration": 0.05789712499999666
                },
                {
                    "name": "E4",
                    "midi": 64,
                    "time": 45.391345999999835,
                    "velocity": 0.3543307086614173,
                    "duration": 0.1736913749999971
                },
                {
                    "name": "C#4",
                    "midi": 61,
                    "time": 45.391345999999835,
                    "velocity": 0.3543307086614173,
                    "duration": 0.1736913749999971
                },
                {
                    "name": "G#4",
                    "midi": 68,
                    "time": 45.391345999999835,
                    "velocity": 0.41732283464566927,
                    "duration": 0.11579425000000043
                },
                {
                    "name": "B4",
                    "midi": 71,
                    "time": 45.507140249999836,
                    "velocity": 0.3543307086614173,
                    "duration": 0.05789712499999666
                },
                {
                    "name": "G4",
                    "midi": 67,
                    "time": 45.62293449999983,
                    "velocity": 0.3543307086614173,
                    "duration": 0.1736913749999971
                },
                {
                    "name": "C#4",
                    "midi": 61,
                    "time": 45.62293449999983,
                    "velocity": 0.3543307086614173,
                    "duration": 0.1736913749999971
                },
                {
                    "name": "B4",
                    "midi": 71,
                    "time": 45.62293449999983,
                    "velocity": 0.41732283464566927,
                    "duration": 0.11579425000000043
                },
                {
                    "name": "A#4",
                    "midi": 70,
                    "time": 45.73872874999983,
                    "velocity": 0.3543307086614173,
                    "duration": 0.05789712499999666
                },
                {
                    "name": "B3",
                    "midi": 59,
                    "time": 45.85452299999982,
                    "velocity": 0.3543307086614173,
                    "duration": 0.1736913749999971
                },
                {
                    "name": "A#4",
                    "midi": 70,
                    "time": 45.85452299999982,
                    "velocity": 0.41732283464566927,
                    "duration": 0.11579425000000043
                },
                {
                    "name": "G#4",
                    "midi": 68,
                    "time": 45.97031724999982,
                    "velocity": 0.3543307086614173,
                    "duration": 0.05789712499999666
                },
                {
                    "name": "D#4",
                    "midi": 63,
                    "time": 46.08611149999982,
                    "velocity": 0.3543307086614173,
                    "duration": 0.1736913749999971
                },
                {
                    "name": "F#4",
                    "midi": 66,
                    "time": 46.08611149999982,
                    "velocity": 0.41732283464566927,
                    "duration": 0.11579425000000043
                },
                {
                    "name": "D#5",
                    "midi": 75,
                    "time": 46.20190574999982,
                    "velocity": 0.3543307086614173,
                    "duration": 0.05789712499999666
                },
                {
                    "name": "A#4",
                    "midi": 70,
                    "time": 46.31769999999981,
                    "velocity": 0.3543307086614173,
                    "duration": 0.1736913749999971
                },
                {
                    "name": "E4",
                    "midi": 64,
                    "time": 46.31769999999981,
                    "velocity": 0.3543307086614173,
                    "duration": 0.1736913749999971
                },
                {
                    "name": "D#5",
                    "midi": 75,
                    "time": 46.31769999999981,
                    "velocity": 0.41732283464566927,
                    "duration": 0.11579425000000043
                },
                {
                    "name": "C#5",
                    "midi": 73,
                    "time": 46.43349424999981,
                    "velocity": 0.3543307086614173,
                    "duration": 0.05789712499999666
                },
                {
                    "name": "G#4",
                    "midi": 68,
                    "time": 46.549288499999804,
                    "velocity": 0.3543307086614173,
                    "duration": 0.1736913749999971
                },
                {
                    "name": "D#4",
                    "midi": 63,
                    "time": 46.549288499999804,
                    "velocity": 0.3543307086614173,
                    "duration": 0.1736913749999971
                },
                {
                    "name": "C#5",
                    "midi": 73,
                    "time": 46.549288499999804,
                    "velocity": 0.41732283464566927,
                    "duration": 0.11579425000000043
                },
                {
                    "name": "B4",
                    "midi": 71,
                    "time": 46.665082749999804,
                    "velocity": 0.3543307086614173,
                    "duration": 0.05789712499999666
                },
                {
                    "name": "D#4",
                    "midi": 63,
                    "time": 46.7808769999998,
                    "velocity": 0.41732283464566927,
                    "duration": 0.1736913749999971
                },
                {
                    "name": "B4",
                    "midi": 71,
                    "time": 46.8966712499998,
                    "velocity": 0.3543307086614173,
                    "duration": 0.05789712499999666
                },
                {
                    "name": "G4",
                    "midi": 67,
                    "time": 47.01246549999979,
                    "velocity": 0.3543307086614173,
                    "duration": 0.1736913749999971
                },
                {
                    "name": "C#4",
                    "midi": 61,
                    "time": 47.01246549999979,
                    "velocity": 0.3543307086614173,
                    "duration": 0.1736913749999971
                },
                {
                    "name": "B4",
                    "midi": 71,
                    "time": 47.01246549999979,
                    "velocity": 0.41732283464566927,
                    "duration": 0.11579425000000043
                },
                {
                    "name": "A#4",
                    "midi": 70,
                    "time": 47.12825974999979,
                    "velocity": 0.3543307086614173,
                    "duration": 0.05789712499999666
                },
                {
                    "name": "B3",
                    "midi": 59,
                    "time": 47.244053999999785,
                    "velocity": 0.3543307086614173,
                    "duration": 0.11579425000000043
                },
                {
                    "name": "G#4",
                    "midi": 68,
                    "time": 47.244053999999785,
                    "velocity": 0.41732283464566927,
                    "duration": 0.11579425000000043
                },
                {
                    "name": "E4",
                    "midi": 64,
                    "time": 47.475642499999786,
                    "velocity": 0.3543307086614173,
                    "duration": 0.1736913749999971
                },
                {
                    "name": "C#4",
                    "midi": 61,
                    "time": 47.475642499999786,
                    "velocity": 0.3543307086614173,
                    "duration": 0.1736913749999971
                },
                {
                    "name": "G#4",
                    "midi": 68,
                    "time": 47.475642499999786,
                    "velocity": 0.41732283464566927,
                    "duration": 0.11579425000000043
                },
                {
                    "name": "B4",
                    "midi": 71,
                    "time": 47.59143674999979,
                    "velocity": 0.3543307086614173,
                    "duration": 0.05789712499999666
                },
                {
                    "name": "G4",
                    "midi": 67,
                    "time": 47.70723099999978,
                    "velocity": 0.3543307086614173,
                    "duration": 0.1736913749999971
                },
                {
                    "name": "C#4",
                    "midi": 61,
                    "time": 47.70723099999978,
                    "velocity": 0.3543307086614173,
                    "duration": 0.1736913749999971
                },
                {
                    "name": "B4",
                    "midi": 71,
                    "time": 47.70723099999978,
                    "velocity": 0.41732283464566927,
                    "duration": 0.11579425000000043
                },
                {
                    "name": "A#4",
                    "midi": 70,
                    "time": 47.82302524999978,
                    "velocity": 0.3543307086614173,
                    "duration": 0.05789712499999666
                },
                {
                    "name": "B3",
                    "midi": 59,
                    "time": 47.938819499999774,
                    "velocity": 0.3543307086614173,
                    "duration": 0.1736913749999971
                },
                {
                    "name": "A#4",
                    "midi": 70,
                    "time": 47.938819499999774,
                    "velocity": 0.41732283464566927,
                    "duration": 0.11579425000000043
                },
                {
                    "name": "G#4",
                    "midi": 68,
                    "time": 48.054613749999774,
                    "velocity": 0.3543307086614173,
                    "duration": 0.05789712499999666
                },
                {
                    "name": "E4",
                    "midi": 64,
                    "time": 48.17040799999977,
                    "velocity": 0.3543307086614173,
                    "duration": 0.1736913749999971
                },
                {
                    "name": "C#4",
                    "midi": 61,
                    "time": 48.17040799999977,
                    "velocity": 0.3543307086614173,
                    "duration": 0.1736913749999971
                },
                {
                    "name": "G#4",
                    "midi": 68,
                    "time": 48.17040799999977,
                    "velocity": 0.41732283464566927,
                    "duration": 0.11579425000000043
                },
                {
                    "name": "B4",
                    "midi": 71,
                    "time": 48.28620224999977,
                    "velocity": 0.3543307086614173,
                    "duration": 0.05789712499999666
                },
                {
                    "name": "G4",
                    "midi": 67,
                    "time": 48.40199649999976,
                    "velocity": 0.3543307086614173,
                    "duration": 0.1736913749999971
                },
                {
                    "name": "C#4",
                    "midi": 61,
                    "time": 48.40199649999976,
                    "velocity": 0.3543307086614173,
                    "duration": 0.1736913749999971
                },
                {
                    "name": "B4",
                    "midi": 71,
                    "time": 48.40199649999976,
                    "velocity": 0.41732283464566927,
                    "duration": 0.11579425000000043
                },
                {
                    "name": "A#4",
                    "midi": 70,
                    "time": 48.51779074999976,
                    "velocity": 0.3543307086614173,
                    "duration": 0.05789712499999666
                },
                {
                    "name": "B3",
                    "midi": 59,
                    "time": 48.633584999999755,
                    "velocity": 0.3543307086614173,
                    "duration": 0.1736913749999971
                },
                {
                    "name": "A#4",
                    "midi": 70,
                    "time": 48.633584999999755,
                    "velocity": 0.41732283464566927,
                    "duration": 0.11579425000000043
                },
                {
                    "name": "G#4",
                    "midi": 68,
                    "time": 48.749379249999755,
                    "velocity": 0.3543307086614173,
                    "duration": 0.05789712499999666
                },
                {
                    "name": "C#4",
                    "midi": 61,
                    "time": 48.86517349999975,
                    "velocity": 0.3543307086614173,
                    "duration": 0.1736913749999971
                },
                {
                    "name": "E4",
                    "midi": 64,
                    "time": 48.86517349999975,
                    "velocity": 0.41732283464566927,
                    "duration": 0.11579425000000043
                },
                {
                    "name": "C#5",
                    "midi": 73,
                    "time": 48.98096774999975,
                    "velocity": 0.3543307086614173,
                    "duration": 0.05789712499999666
                },
                {
                    "name": "G#4",
                    "midi": 68,
                    "time": 49.09676199999974,
                    "velocity": 0.3543307086614173,
                    "duration": 0.1736913749999971
                },
                {
                    "name": "D4",
                    "midi": 62,
                    "time": 49.09676199999974,
                    "velocity": 0.3543307086614173,
                    "duration": 0.1736913749999971
                },
                {
                    "name": "C#5",
                    "midi": 73,
                    "time": 49.09676199999974,
                    "velocity": 0.41732283464566927,
                    "duration": 0.11579425000000043
                },
                {
                    "name": "B4",
                    "midi": 71,
                    "time": 49.21255624999974,
                    "velocity": 0.3543307086614173,
                    "duration": 0.05789712499999666
                },
                {
                    "name": "E4",
                    "midi": 64,
                    "time": 49.328350499999736,
                    "velocity": 0.3543307086614173,
                    "duration": 0.1736913749999971
                },
                {
                    "name": "C#4",
                    "midi": 61,
                    "time": 49.328350499999736,
                    "velocity": 0.3543307086614173,
                    "duration": 0.1736913749999971
                },
                {
                    "name": "B4",
                    "midi": 71,
                    "time": 49.328350499999736,
                    "velocity": 0.41732283464566927,
                    "duration": 0.11579425000000043
                },
                {
                    "name": "A4",
                    "midi": 69,
                    "time": 49.44414474999974,
                    "velocity": 0.3543307086614173,
                    "duration": 0.05789712499999666
                },
                {
                    "name": "B3",
                    "midi": 59,
                    "time": 49.55993899999973,
                    "velocity": 0.3543307086614173,
                    "duration": 0.1736913749999971
                },
                {
                    "name": "D#4",
                    "midi": 63,
                    "time": 49.55993899999973,
                    "velocity": 0.41732283464566927,
                    "duration": 0.1736913749999971
                },
                {
                    "name": "B4",
                    "midi": 71,
                    "time": 49.67573324999973,
                    "velocity": 0.3543307086614173,
                    "duration": 0.05789712499999666
                },
                {
                    "name": "D#4",
                    "midi": 63,
                    "time": 49.791527499999724,
                    "velocity": 0.3543307086614173,
                    "duration": 0.3473827499999942
                },
                {
                    "name": "A#3",
                    "midi": 58,
                    "time": 49.791527499999724,
                    "velocity": 0.3543307086614173,
                    "duration": 0.1736913749999971
                },
                {
                    "name": "G#4",
                    "midi": 68,
                    "time": 49.791527499999724,
                    "velocity": 0.41732283464566927,
                    "duration": 0.11579425000000043
                },
                {
                    "name": "G4",
                    "midi": 67,
                    "time": 49.907321749999724,
                    "velocity": 0.3543307086614173,
                    "duration": 0.05789712499999666
                },
                {
                    "name": "B3",
                    "midi": 59,
                    "time": 50.02311599999972,
                    "velocity": 0.3543307086614173,
                    "duration": 0.11579425000000043
                },
                {
                    "name": "G#4",
                    "midi": 68,
                    "time": 50.02311599999972,
                    "velocity": 0.41732283464566927,
                    "duration": 0.11579425000000043
                },
                {
                    "name": "D#4",
                    "midi": 63,
                    "time": 50.71788149999972,
                    "velocity": 0.5433070866141733,
                    "duration": 1.1579424999999972
                },
                {
                    "name": "E4",
                    "midi": 64,
                    "time": 51.87582399999972,
                    "velocity": 0.49606299212598426,
                    "duration": 0.23158850000000086
                },
                {
                    "name": "D#4",
                    "midi": 63,
                    "time": 52.10741249999972,
                    "velocity": 0.5433070866141733,
                    "duration": 0.9263540000000035
                },
                {
                    "name": "F#4",
                    "midi": 66,
                    "time": 53.03376649999972,
                    "velocity": 0.49606299212598426,
                    "duration": 0.23158850000000086
                },
                {
                    "name": "E4",
                    "midi": 64,
                    "time": 53.26535499999972,
                    "velocity": 0.48031496062992124,
                    "duration": 0.23158850000000086
                },
                {
                    "name": "D#4",
                    "midi": 63,
                    "time": 53.49694349999972,
                    "velocity": 0.5511811023622047,
                    "duration": 0.9263540000000035
                },
                {
                    "name": "G#4",
                    "midi": 68,
                    "time": 54.42329749999973,
                    "velocity": 0.4251968503937008,
                    "duration": 0.23158850000000086
                },
                {
                    "name": "F#4",
                    "midi": 66,
                    "time": 54.65488599999973,
                    "velocity": 0.3858267716535433,
                    "duration": 0.23158850000000086
                },
                {
                    "name": "E4",
                    "midi": 64,
                    "time": 54.88647449999973,
                    "velocity": 0.3779527559055118,
                    "duration": 0.23158850000000086
                },
                {
                    "name": "D#4",
                    "midi": 63,
                    "time": 55.11806299999973,
                    "velocity": 0.33858267716535434,
                    "duration": 0.4631770000000017
                }
            ],
            "controlChanges": {
                "7": [
                    {
                        "number": 7,
                        "time": 0,
                        "value": 0.7874015748031497
                    }
                ],
                "10": [
                    {
                        "number": 10,
                        "time": 0,
                        "value": 0.5039370078740157
                    }
                ],
                "91": [
                    {
                        "number": 91,
                        "time": 0,
                        "value": 1
                    },
                    {
                        "number": 91,
                        "time": 0,
                        "value": 1
                    }
                ]
            },
            "id": 1,
            "name": "Piano right",
            "instrumentNumber": 0,
            "instrument": "acoustic grand piano",
            "instrumentFamily": "piano",
            "channelNumber": 0,
            "isPercussion": false
        },
        {
            "startTime": 0.0009649520833333333,
            "duration": 55.69703424999995,
            "length": 483,
            "notes": [
                {
                    "name": "G#3",
                    "midi": 56,
                    "time": 0.0009649520833333333,
                    "velocity": 0.4251968503937008,
                    "duration": 0.17272642291666665
                },
                {
                    "name": "D#3",
                    "midi": 51,
                    "time": 0.0009649520833333333,
                    "velocity": 0.3543307086614173,
                    "duration": 0.17272642291666665
                },
                {
                    "name": "G#2",
                    "midi": 44,
                    "time": 0.0009649520833333333,
                    "velocity": 0.3543307086614173,
                    "duration": 0.17272642291666665
                },
                {
                    "name": "G#2",
                    "midi": 44,
                    "time": 0.23158849999999997,
                    "velocity": 0.28346456692913385,
                    "duration": 0.057897124999999994
                },
                {
                    "name": "G#1",
                    "midi": 32,
                    "time": 0.23158849999999997,
                    "velocity": 0.23622047244094488,
                    "duration": 0.057897124999999994
                },
                {
                    "name": "D#2",
                    "midi": 39,
                    "time": 0.463177,
                    "velocity": 0.23622047244094488,
                    "duration": 0.05789712499999994
                },
                {
                    "name": "D#3",
                    "midi": 51,
                    "time": 0.463177,
                    "velocity": 0.28346456692913385,
                    "duration": 0.05789712499999994
                },
                {
                    "name": "D#3",
                    "midi": 51,
                    "time": 0.6947654999999999,
                    "velocity": 0.29133858267716534,
                    "duration": 0.17369137499999998
                },
                {
                    "name": "G#2",
                    "midi": 44,
                    "time": 0.6947654999999999,
                    "velocity": 0.29133858267716534,
                    "duration": 0.17369137499999998
                },
                {
                    "name": "G#3",
                    "midi": 56,
                    "time": 0.6947654999999999,
                    "velocity": 0.3464566929133858,
                    "duration": 0.17369137499999998
                },
                {
                    "name": "G#1",
                    "midi": 32,
                    "time": 0.9263539999999999,
                    "velocity": 0.25196850393700787,
                    "duration": 0.057897124999999994
                },
                {
                    "name": "G#2",
                    "midi": 44,
                    "time": 0.9263539999999999,
                    "velocity": 0.30708661417322836,
                    "duration": 0.057897124999999994
                },
                {
                    "name": "D#2",
                    "midi": 39,
                    "time": 1.1579424999999999,
                    "velocity": 0.25984251968503935,
                    "duration": 0.057897124999999994
                },
                {
                    "name": "D#3",
                    "midi": 51,
                    "time": 1.1579424999999999,
                    "velocity": 0.31496062992125984,
                    "duration": 0.057897124999999994
                },
                {
                    "name": "B3",
                    "midi": 59,
                    "time": 1.3895309999999998,
                    "velocity": 0.3858267716535433,
                    "duration": 0.17369137499999998
                },
                {
                    "name": "D#3",
                    "midi": 51,
                    "time": 1.3895309999999998,
                    "velocity": 0.3228346456692913,
                    "duration": 0.17369137499999998
                },
                {
                    "name": "G#3",
                    "midi": 56,
                    "time": 1.3895309999999998,
                    "velocity": 0.3228346456692913,
                    "duration": 0.17369137499999998
                },
                {
                    "name": "G#1",
                    "midi": 32,
                    "time": 1.6211194999999998,
                    "velocity": 0.28346456692913385,
                    "duration": 0.057897124999999994
                },
                {
                    "name": "G#2",
                    "midi": 44,
                    "time": 1.6211194999999998,
                    "velocity": 0.33858267716535434,
                    "duration": 0.057897124999999994
                },
                {
                    "name": "D#2",
                    "midi": 39,
                    "time": 1.8527079999999998,
                    "velocity": 0.2992125984251969,
                    "duration": 0.057897124999999994
                },
                {
                    "name": "D#3",
                    "midi": 51,
                    "time": 1.8527079999999998,
                    "velocity": 0.36220472440944884,
                    "duration": 0.057897124999999994
                },
                {
                    "name": "B3",
                    "midi": 59,
                    "time": 2.0842964999999998,
                    "velocity": 0.44881889763779526,
                    "duration": 0.17369137499999976
                },
                {
                    "name": "D#3",
                    "midi": 51,
                    "time": 2.0842964999999998,
                    "velocity": 0.3779527559055118,
                    "duration": 0.17369137499999976
                },
                {
                    "name": "G#3",
                    "midi": 56,
                    "time": 2.0842964999999998,
                    "velocity": 0.3779527559055118,
                    "duration": 0.17369137499999976
                },
                {
                    "name": "G#1",
                    "midi": 32,
                    "time": 2.3158849999999997,
                    "velocity": 0.3228346456692913,
                    "duration": 0.057897125000000216
                },
                {
                    "name": "G#2",
                    "midi": 44,
                    "time": 2.3158849999999997,
                    "velocity": 0.3937007874015748,
                    "duration": 0.057897125000000216
                },
                {
                    "name": "D#3",
                    "midi": 51,
                    "time": 2.5474735,
                    "velocity": 0.4015748031496063,
                    "duration": 0.05789712499999977
                },
                {
                    "name": "D#2",
                    "midi": 39,
                    "time": 2.5474735,
                    "velocity": 0.3464566929133858,
                    "duration": 0.05789712499999977
                },
                {
                    "name": "D#3",
                    "midi": 51,
                    "time": 2.779062,
                    "velocity": 0.3700787401574803,
                    "duration": 0.057897125000000216
                },
                {
                    "name": "A#3",
                    "midi": 58,
                    "time": 2.779062,
                    "velocity": 0.4409448818897638,
                    "duration": 0.057897125000000216
                },
                {
                    "name": "G2",
                    "midi": 43,
                    "time": 3.0106505000000006,
                    "velocity": 0.3779527559055118,
                    "duration": 0.057897125000000216
                },
                {
                    "name": "D#3",
                    "midi": 51,
                    "time": 3.0106505000000006,
                    "velocity": 0.44881889763779526,
                    "duration": 0.057897125000000216
                },
                {
                    "name": "D#3",
                    "midi": 51,
                    "time": 3.242239000000001,
                    "velocity": 0.3937007874015748,
                    "duration": 0.05789712499999977
                },
                {
                    "name": "A#3",
                    "midi": 58,
                    "time": 3.242239000000001,
                    "velocity": 0.4645669291338583,
                    "duration": 0.05789712499999977
                },
                {
                    "name": "G#2",
                    "midi": 44,
                    "time": 3.473827500000001,
                    "velocity": 0.3700787401574803,
                    "duration": 0.057897125000000216
                },
                {
                    "name": "D#3",
                    "midi": 51,
                    "time": 3.473827500000001,
                    "velocity": 0.4409448818897638,
                    "duration": 0.057897125000000216
                },
                {
                    "name": "B3",
                    "midi": 59,
                    "time": 3.7054160000000014,
                    "velocity": 0.44881889763779526,
                    "duration": 0.057897125000000216
                },
                {
                    "name": "D#3",
                    "midi": 51,
                    "time": 3.7054160000000014,
                    "velocity": 0.3779527559055118,
                    "duration": 0.057897125000000216
                },
                {
                    "name": "G#2",
                    "midi": 44,
                    "time": 3.937004500000002,
                    "velocity": 0.3937007874015748,
                    "duration": 0.057897125000000216
                },
                {
                    "name": "D#3",
                    "midi": 51,
                    "time": 3.937004500000002,
                    "velocity": 0.4645669291338583,
                    "duration": 0.057897125000000216
                },
                {
                    "name": "G#3",
                    "midi": 56,
                    "time": 4.168593000000002,
                    "velocity": 0.47244094488188976,
                    "duration": 0.057897125000000216
                },
                {
                    "name": "C#3",
                    "midi": 49,
                    "time": 4.168593000000002,
                    "velocity": 0.3937007874015748,
                    "duration": 0.057897125000000216
                },
                {
                    "name": "C#2",
                    "midi": 37,
                    "time": 4.400181500000002,
                    "velocity": 0.3858267716535433,
                    "duration": 0.05789712499999933
                },
                {
                    "name": "C#3",
                    "midi": 49,
                    "time": 4.400181500000002,
                    "velocity": 0.4566929133858268,
                    "duration": 0.05789712499999933
                },
                {
                    "name": "C#3",
                    "midi": 49,
                    "time": 4.631770000000001,
                    "velocity": 0.3700787401574803,
                    "duration": 0.057897125000000216
                },
                {
                    "name": "G#3",
                    "midi": 56,
                    "time": 4.631770000000001,
                    "velocity": 0.4409448818897638,
                    "duration": 0.057897125000000216
                },
                {
                    "name": "D#3",
                    "midi": 51,
                    "time": 4.863358500000001,
                    "velocity": 0.33070866141732286,
                    "duration": 0.057897125000000216
                },
                {
                    "name": "G3",
                    "midi": 55,
                    "time": 4.863358500000001,
                    "velocity": 0.4015748031496063,
                    "duration": 0.057897125000000216
                },
                {
                    "name": "D#2",
                    "midi": 39,
                    "time": 5.094947000000001,
                    "velocity": 0.2992125984251969,
                    "duration": 0.057897125000000216
                },
                {
                    "name": "D#3",
                    "midi": 51,
                    "time": 5.094947000000001,
                    "velocity": 0.36220472440944884,
                    "duration": 0.057897125000000216
                },
                {
                    "name": "D#3",
                    "midi": 51,
                    "time": 5.326535500000001,
                    "velocity": 0.2677165354330709,
                    "duration": 0.05789712499999933
                },
                {
                    "name": "G3",
                    "midi": 55,
                    "time": 5.326535500000001,
                    "velocity": 0.31496062992125984,
                    "duration": 0.05789712499999933
                },
                {
                    "name": "G#2",
                    "midi": 44,
                    "time": 5.558124,
                    "velocity": 0.29133858267716534,
                    "duration": 0.17369137500000065
                },
                {
                    "name": "D#3",
                    "midi": 51,
                    "time": 5.558124,
                    "velocity": 0.29133858267716534,
                    "duration": 0.17369137500000065
                },
                {
                    "name": "G#3",
                    "midi": 56,
                    "time": 5.558124,
                    "velocity": 0.3543307086614173,
                    "duration": 0.17369137500000065
                },
                {
                    "name": "G#1",
                    "midi": 32,
                    "time": 5.789712500000001,
                    "velocity": 0.2440944881889764,
                    "duration": 0.05789712499999933
                },
                {
                    "name": "G#2",
                    "midi": 44,
                    "time": 5.789712500000001,
                    "velocity": 0.29133858267716534,
                    "duration": 0.05789712499999933
                },
                {
                    "name": "D#2",
                    "midi": 39,
                    "time": 6.021301,
                    "velocity": 0.25196850393700787,
                    "duration": 0.057897125000000216
                },
                {
                    "name": "D#3",
                    "midi": 51,
                    "time": 6.021301,
                    "velocity": 0.30708661417322836,
                    "duration": 0.057897125000000216
                },
                {
                    "name": "G#2",
                    "midi": 44,
                    "time": 6.2528895,
                    "velocity": 0.30708661417322836,
                    "duration": 0.17369137499999976
                },
                {
                    "name": "D#3",
                    "midi": 51,
                    "time": 6.2528895,
                    "velocity": 0.30708661417322836,
                    "duration": 0.17369137499999976
                },
                {
                    "name": "G#3",
                    "midi": 56,
                    "time": 6.2528895,
                    "velocity": 0.3700787401574803,
                    "duration": 0.17369137499999976
                },
                {
                    "name": "G#2",
                    "midi": 44,
                    "time": 6.484478,
                    "velocity": 0.3228346456692913,
                    "duration": 0.057897125000000216
                },
                {
                    "name": "G#1",
                    "midi": 32,
                    "time": 6.484478,
                    "velocity": 0.2677165354330709,
                    "duration": 0.057897125000000216
                },
                {
                    "name": "D#2",
                    "midi": 39,
                    "time": 6.716066500000001,
                    "velocity": 0.2677165354330709,
                    "duration": 0.057897125000000216
                },
                {
                    "name": "D#3",
                    "midi": 51,
                    "time": 6.716066500000001,
                    "velocity": 0.3228346456692913,
                    "duration": 0.057897125000000216
                },
                {
                    "name": "G2",
                    "midi": 43,
                    "time": 6.947655000000001,
                    "velocity": 0.33858267716535434,
                    "duration": 0.17369137499999976
                },
                {
                    "name": "E3",
                    "midi": 52,
                    "time": 6.947655000000001,
                    "velocity": 0.33858267716535434,
                    "duration": 0.17369137499999976
                },
                {
                    "name": "G3",
                    "midi": 55,
                    "time": 6.947655000000001,
                    "velocity": 0.4015748031496063,
                    "duration": 0.17369137499999976
                },
                {
                    "name": "G2",
                    "midi": 43,
                    "time": 7.179243500000001,
                    "velocity": 0.3543307086614173,
                    "duration": 0.05789712499999933
                },
                {
                    "name": "G1",
                    "midi": 31,
                    "time": 7.179243500000001,
                    "velocity": 0.2992125984251969,
                    "duration": 0.05789712499999933
                },
                {
                    "name": "E2",
                    "midi": 40,
                    "time": 7.410832,
                    "velocity": 0.31496062992125984,
                    "duration": 0.05789712499999933
                },
                {
                    "name": "E3",
                    "midi": 52,
                    "time": 7.410832,
                    "velocity": 0.3700787401574803,
                    "duration": 0.05789712499999933
                },
                {
                    "name": "G3",
                    "midi": 55,
                    "time": 7.642420499999999,
                    "velocity": 0.4094488188976378,
                    "duration": 0.17369137500000065
                },
                {
                    "name": "D3",
                    "midi": 50,
                    "time": 7.642420499999999,
                    "velocity": 0.4094488188976378,
                    "duration": 0.17369137500000065
                },
                {
                    "name": "B3",
                    "midi": 59,
                    "time": 7.642420499999999,
                    "velocity": 0.48031496062992124,
                    "duration": 0.17369137500000065
                },
                {
                    "name": "G1",
                    "midi": 31,
                    "time": 7.874009,
                    "velocity": 0.3464566929133858,
                    "duration": 0.05789712499999933
                },
                {
                    "name": "G2",
                    "midi": 43,
                    "time": 7.874009,
                    "velocity": 0.41732283464566927,
                    "duration": 0.05789712499999933
                },
                {
                    "name": "G2",
                    "midi": 43,
                    "time": 8.1055975,
                    "velocity": 0.3700787401574803,
                    "duration": 0.057897125000000216
                },
                {
                    "name": "G3",
                    "midi": 55,
                    "time": 8.1055975,
                    "velocity": 0.4330708661417323,
                    "duration": 0.057897125000000216
                },
                {
                    "name": "F#3",
                    "midi": 54,
                    "time": 8.337186,
                    "velocity": 0.48031496062992124,
                    "duration": 0.05789712499999844
                },
                {
                    "name": "F#2",
                    "midi": 42,
                    "time": 8.337186,
                    "velocity": 0.4015748031496063,
                    "duration": 0.05789712499999844
                },
                {
                    "name": "F#3",
                    "midi": 54,
                    "time": 8.5687745,
                    "velocity": 0.3937007874015748,
                    "duration": 0.05789712499999844
                },
                {
                    "name": "D#4",
                    "midi": 63,
                    "time": 8.5687745,
                    "velocity": 0.47244094488188976,
                    "duration": 0.05789712499999844
                },
                {
                    "name": "F#3",
                    "midi": 54,
                    "time": 8.800362999999999,
                    "velocity": 0.48031496062992124,
                    "duration": 0.057897125000000216
                },
                {
                    "name": "F#2",
                    "midi": 42,
                    "time": 8.800362999999999,
                    "velocity": 0.4015748031496063,
                    "duration": 0.057897125000000216
                },
                {
                    "name": "F#3",
                    "midi": 54,
                    "time": 9.0319515,
                    "velocity": 0.4015748031496063,
                    "duration": 0.057897125000000216
                },
                {
                    "name": "E4",
                    "midi": 64,
                    "time": 9.0319515,
                    "velocity": 0.48031496062992124,
                    "duration": 0.057897125000000216
                },
                {
                    "name": "F#2",
                    "midi": 42,
                    "time": 9.26354,
                    "velocity": 0.3937007874015748,
                    "duration": 0.05789712499999844
                },
                {
                    "name": "F#3",
                    "midi": 54,
                    "time": 9.26354,
                    "velocity": 0.47244094488188976,
                    "duration": 0.05789712499999844
                },
                {
                    "name": "F#3",
                    "midi": 54,
                    "time": 9.4951285,
                    "velocity": 0.4015748031496063,
                    "duration": 0.05789712499999844
                },
                {
                    "name": "E4",
                    "midi": 64,
                    "time": 9.4951285,
                    "velocity": 0.48031496062992124,
                    "duration": 0.05789712499999844
                },
                {
                    "name": "F#2",
                    "midi": 42,
                    "time": 9.726716999999999,
                    "velocity": 0.3543307086614173,
                    "duration": 0.057897125000000216
                },
                {
                    "name": "F#3",
                    "midi": 54,
                    "time": 9.726716999999999,
                    "velocity": 0.4251968503937008,
                    "duration": 0.057897125000000216
                },
                {
                    "name": "F#3",
                    "midi": 54,
                    "time": 9.958305499999998,
                    "velocity": 0.3464566929133858,
                    "duration": 0.057897125000000216
                },
                {
                    "name": "D#4",
                    "midi": 63,
                    "time": 9.958305499999998,
                    "velocity": 0.4094488188976378,
                    "duration": 0.057897125000000216
                },
                {
                    "name": "F#2",
                    "midi": 42,
                    "time": 10.189893999999999,
                    "velocity": 0.33858267716535434,
                    "duration": 0.057897125000000216
                },
                {
                    "name": "F#3",
                    "midi": 54,
                    "time": 10.189893999999999,
                    "velocity": 0.4015748031496063,
                    "duration": 0.057897125000000216
                },
                {
                    "name": "E4",
                    "midi": 64,
                    "time": 10.4214825,
                    "velocity": 0.3937007874015748,
                    "duration": 0.057897125000000216
                },
                {
                    "name": "F#3",
                    "midi": 54,
                    "time": 10.4214825,
                    "velocity": 0.33070866141732286,
                    "duration": 0.057897125000000216
                },
                {
                    "name": "F#2",
                    "midi": 42,
                    "time": 10.653071,
                    "velocity": 0.31496062992125984,
                    "duration": 0.05789712499999844
                },
                {
                    "name": "F#3",
                    "midi": 54,
                    "time": 10.653071,
                    "velocity": 0.3700787401574803,
                    "duration": 0.05789712499999844
                },
                {
                    "name": "C#4",
                    "midi": 61,
                    "time": 10.8846595,
                    "velocity": 0.3700787401574803,
                    "duration": 0.05789712499999844
                },
                {
                    "name": "F#3",
                    "midi": 54,
                    "time": 10.8846595,
                    "velocity": 0.31496062992125984,
                    "duration": 0.05789712499999844
                },
                {
                    "name": "B2",
                    "midi": 47,
                    "time": 11.116247999999999,
                    "velocity": 0.31496062992125984,
                    "duration": 0.057897125000000216
                },
                {
                    "name": "F#3",
                    "midi": 54,
                    "time": 11.116247999999999,
                    "velocity": 0.3779527559055118,
                    "duration": 0.057897125000000216
                },
                {
                    "name": "B2",
                    "midi": 47,
                    "time": 11.3478365,
                    "velocity": 0.31496062992125984,
                    "duration": 0.05789712499999844
                },
                {
                    "name": "F#3",
                    "midi": 54,
                    "time": 11.3478365,
                    "velocity": 0.31496062992125984,
                    "duration": 0.05789712499999844
                },
                {
                    "name": "B3",
                    "midi": 59,
                    "time": 11.3478365,
                    "velocity": 0.3779527559055118,
                    "duration": 0.05789712499999844
                },
                {
                    "name": "B3",
                    "midi": 59,
                    "time": 11.579424999999999,
                    "velocity": 0.4015748031496063,
                    "duration": 0.057897125000000216
                },
                {
                    "name": "B2",
                    "midi": 47,
                    "time": 11.579424999999999,
                    "velocity": 0.33858267716535434,
                    "duration": 0.057897125000000216
                },
                {
                    "name": "G3",
                    "midi": 55,
                    "time": 11.579424999999999,
                    "velocity": 0.33858267716535434,
                    "duration": 0.057897125000000216
                },
                {
                    "name": "B3",
                    "midi": 59,
                    "time": 11.8110135,
                    "velocity": 0.41732283464566927,
                    "duration": 0.057897125000000216
                },
                {
                    "name": "B2",
                    "midi": 47,
                    "time": 11.8110135,
                    "velocity": 0.3543307086614173,
                    "duration": 0.057897125000000216
                },
                {
                    "name": "F#3",
                    "midi": 54,
                    "time": 11.8110135,
                    "velocity": 0.3543307086614173,
                    "duration": 0.057897125000000216
                },
                {
                    "name": "B2",
                    "midi": 47,
                    "time": 12.042602,
                    "velocity": 0.3543307086614173,
                    "duration": 0.05789712499999844
                },
                {
                    "name": "F#3",
                    "midi": 54,
                    "time": 12.042602,
                    "velocity": 0.3543307086614173,
                    "duration": 0.05789712499999844
                },
                {
                    "name": "B3",
                    "midi": 59,
                    "time": 12.042602,
                    "velocity": 0.4251968503937008,
                    "duration": 0.05789712499999844
                },
                {
                    "name": "G3",
                    "midi": 55,
                    "time": 12.2741905,
                    "velocity": 0.36220472440944884,
                    "duration": 0.057897125000000216
                },
                {
                    "name": "B2",
                    "midi": 47,
                    "time": 12.2741905,
                    "velocity": 0.36220472440944884,
                    "duration": 0.057897125000000216
                },
                {
                    "name": "B3",
                    "midi": 59,
                    "time": 12.2741905,
                    "velocity": 0.4330708661417323,
                    "duration": 0.057897125000000216
                },
                {
                    "name": "B3",
                    "midi": 59,
                    "time": 12.505779,
                    "velocity": 0.44881889763779526,
                    "duration": 0.05789712499999844
                },
                {
                    "name": "B2",
                    "midi": 47,
                    "time": 12.505779,
                    "velocity": 0.3779527559055118,
                    "duration": 0.05789712499999844
                },
                {
                    "name": "F#3",
                    "midi": 54,
                    "time": 12.505779,
                    "velocity": 0.3779527559055118,
                    "duration": 0.05789712499999844
                },
                {
                    "name": "E3",
                    "midi": 52,
                    "time": 12.7373675,
                    "velocity": 0.3779527559055118,
                    "duration": 0.057897125000000216
                },
                {
                    "name": "G3",
                    "midi": 55,
                    "time": 12.7373675,
                    "velocity": 0.3779527559055118,
                    "duration": 0.057897125000000216
                },
                {
                    "name": "B3",
                    "midi": 59,
                    "time": 12.7373675,
                    "velocity": 0.44881889763779526,
                    "duration": 0.057897125000000216
                },
                {
                    "name": "B2",
                    "midi": 47,
                    "time": 12.968956,
                    "velocity": 0.4015748031496063,
                    "duration": 0.05789712499999844
                },
                {
                    "name": "F#3",
                    "midi": 54,
                    "time": 12.968956,
                    "velocity": 0.4015748031496063,
                    "duration": 0.05789712499999844
                },
                {
                    "name": "B3",
                    "midi": 59,
                    "time": 12.968956,
                    "velocity": 0.48031496062992124,
                    "duration": 0.05789712499999844
                },
                {
                    "name": "G3",
                    "midi": 55,
                    "time": 13.2005445,
                    "velocity": 0.4094488188976378,
                    "duration": 0.057897125000000216
                },
                {
                    "name": "E3",
                    "midi": 52,
                    "time": 13.2005445,
                    "velocity": 0.4094488188976378,
                    "duration": 0.057897125000000216
                },
                {
                    "name": "B3",
                    "midi": 59,
                    "time": 13.2005445,
                    "velocity": 0.4881889763779528,
                    "duration": 0.057897125000000216
                },
                {
                    "name": "B3",
                    "midi": 59,
                    "time": 13.432133,
                    "velocity": 0.49606299212598426,
                    "duration": 0.057897125000000216
                },
                {
                    "name": "B2",
                    "midi": 47,
                    "time": 13.432133,
                    "velocity": 0.41732283464566927,
                    "duration": 0.057897125000000216
                },
                {
                    "name": "F#3",
                    "midi": 54,
                    "time": 13.432133,
                    "velocity": 0.41732283464566927,
                    "duration": 0.057897125000000216
                },
                {
                    "name": "E3",
                    "midi": 52,
                    "time": 13.663721500000001,
                    "velocity": 0.4251968503937008,
                    "duration": 0.05789712499999844
                },
                {
                    "name": "G3",
                    "midi": 55,
                    "time": 13.663721500000001,
                    "velocity": 0.4251968503937008,
                    "duration": 0.05789712499999844
                },
                {
                    "name": "B3",
                    "midi": 59,
                    "time": 13.663721500000001,
                    "velocity": 0.5039370078740157,
                    "duration": 0.05789712499999844
                },
                {
                    "name": "B2",
                    "midi": 47,
                    "time": 13.89531,
                    "velocity": 0.47244094488188976,
                    "duration": 0.2315884999999991
                },
                {
                    "name": "F#3",
                    "midi": 54,
                    "time": 13.89531,
                    "velocity": 0.47244094488188976,
                    "duration": 0.2315884999999991
                },
                {
                    "name": "B3",
                    "midi": 59,
                    "time": 13.89531,
                    "velocity": 0.5669291338582677,
                    "duration": 0.2315884999999991
                },
                {
                    "name": "B1",
                    "midi": 35,
                    "time": 14.1268985,
                    "velocity": 0.4409448818897638,
                    "duration": 0.05789712499999844
                },
                {
                    "name": "B2",
                    "midi": 47,
                    "time": 14.1268985,
                    "velocity": 0.5196850393700787,
                    "duration": 0.05789712499999844
                },
                {
                    "name": "B2",
                    "midi": 47,
                    "time": 14.358486999999998,
                    "velocity": 0.4409448818897638,
                    "duration": 0.46317699999999995
                },
                {
                    "name": "F#3",
                    "midi": 54,
                    "time": 14.358486999999998,
                    "velocity": 0.5196850393700787,
                    "duration": 0.2315884999999991
                },
                {
                    "name": "B3",
                    "midi": 59,
                    "time": 14.590075499999998,
                    "velocity": 0.5354330708661418,
                    "duration": 0.23158850000000086
                },
                {
                    "name": "F#3",
                    "midi": 54,
                    "time": 14.590075499999998,
                    "velocity": 0.44881889763779526,
                    "duration": 0.23158850000000086
                },
                {
                    "name": "B1",
                    "midi": 35,
                    "time": 14.821663999999998,
                    "velocity": 0.41732283464566927,
                    "duration": 0.05789712499999844
                },
                {
                    "name": "B2",
                    "midi": 47,
                    "time": 14.821663999999998,
                    "velocity": 0.4881889763779528,
                    "duration": 0.05789712499999844
                },
                {
                    "name": "F#3",
                    "midi": 54,
                    "time": 15.053252499999997,
                    "velocity": 0.4881889763779528,
                    "duration": 0.2315884999999991
                },
                {
                    "name": "B2",
                    "midi": 47,
                    "time": 15.053252499999997,
                    "velocity": 0.41732283464566927,
                    "duration": 0.2315884999999991
                },
                {
                    "name": "E3",
                    "midi": 52,
                    "time": 15.284840999999997,
                    "velocity": 0.4251968503937008,
                    "duration": 0.11579424999999866
                },
                {
                    "name": "B3",
                    "midi": 59,
                    "time": 15.284840999999997,
                    "velocity": 0.5039370078740157,
                    "duration": 0.11579424999999866
                },
                {
                    "name": "E2",
                    "midi": 40,
                    "time": 15.516429499999996,
                    "velocity": 0.4251968503937008,
                    "duration": 0.11579425000000043
                },
                {
                    "name": "E3",
                    "midi": 52,
                    "time": 15.516429499999996,
                    "velocity": 0.5039370078740157,
                    "duration": 0.11579425000000043
                },
                {
                    "name": "B3",
                    "midi": 59,
                    "time": 15.748017999999997,
                    "velocity": 0.5039370078740157,
                    "duration": 0.11579425000000043
                },
                {
                    "name": "E3",
                    "midi": 52,
                    "time": 15.748017999999997,
                    "velocity": 0.4251968503937008,
                    "duration": 0.11579425000000043
                },
                {
                    "name": "A2",
                    "midi": 45,
                    "time": 15.979606499999997,
                    "velocity": 0.44881889763779526,
                    "duration": 0.2315884999999991
                },
                {
                    "name": "E3",
                    "midi": 52,
                    "time": 15.979606499999997,
                    "velocity": 0.44881889763779526,
                    "duration": 0.2315884999999991
                },
                {
                    "name": "A3",
                    "midi": 57,
                    "time": 15.979606499999997,
                    "velocity": 0.5354330708661418,
                    "duration": 0.2315884999999991
                },
                {
                    "name": "A1",
                    "midi": 33,
                    "time": 16.211194999999996,
                    "velocity": 0.41732283464566927,
                    "duration": 0.05789712499999666
                },
                {
                    "name": "A2",
                    "midi": 45,
                    "time": 16.211194999999996,
                    "velocity": 0.4881889763779528,
                    "duration": 0.05789712499999666
                },
                {
                    "name": "A2",
                    "midi": 45,
                    "time": 16.442783499999994,
                    "velocity": 0.41732283464566927,
                    "duration": 0.4631769999999982
                },
                {
                    "name": "E3",
                    "midi": 52,
                    "time": 16.442783499999994,
                    "velocity": 0.4881889763779528,
                    "duration": 0.23158850000000086
                },
                {
                    "name": "E3",
                    "midi": 52,
                    "time": 16.674371999999995,
                    "velocity": 0.4251968503937008,
                    "duration": 0.2315884999999973
                },
                {
                    "name": "A3",
                    "midi": 57,
                    "time": 16.674371999999995,
                    "velocity": 0.5039370078740157,
                    "duration": 0.2315884999999973
                },
                {
                    "name": "A2",
                    "midi": 45,
                    "time": 16.905960499999992,
                    "velocity": 0.4566929133858268,
                    "duration": 0.057897125000000216
                },
                {
                    "name": "A1",
                    "midi": 33,
                    "time": 16.905960499999992,
                    "velocity": 0.3937007874015748,
                    "duration": 0.057897125000000216
                },
                {
                    "name": "A2",
                    "midi": 45,
                    "time": 17.137548999999993,
                    "velocity": 0.3937007874015748,
                    "duration": 0.4631769999999982
                },
                {
                    "name": "E3",
                    "midi": 52,
                    "time": 17.137548999999993,
                    "velocity": 0.4566929133858268,
                    "duration": 0.23158850000000086
                },
                {
                    "name": "A3",
                    "midi": 57,
                    "time": 17.369137499999994,
                    "velocity": 0.5039370078740157,
                    "duration": 0.2315884999999973
                },
                {
                    "name": "E3",
                    "midi": 52,
                    "time": 17.369137499999994,
                    "velocity": 0.4251968503937008,
                    "duration": 0.2315884999999973
                },
                {
                    "name": "A1",
                    "midi": 33,
                    "time": 17.60072599999999,
                    "velocity": 0.3937007874015748,
                    "duration": 0.057897125000000216
                },
                {
                    "name": "A2",
                    "midi": 45,
                    "time": 17.60072599999999,
                    "velocity": 0.4566929133858268,
                    "duration": 0.057897125000000216
                },
                {
                    "name": "E3",
                    "midi": 52,
                    "time": 17.832314499999992,
                    "velocity": 0.4566929133858268,
                    "duration": 0.11579424999999688
                },
                {
                    "name": "A2",
                    "midi": 45,
                    "time": 17.832314499999992,
                    "velocity": 0.3937007874015748,
                    "duration": 0.11579424999999688
                },
                {
                    "name": "A3",
                    "midi": 57,
                    "time": 18.06390299999999,
                    "velocity": 0.5039370078740157,
                    "duration": 0.11579425000000043
                },
                {
                    "name": "D3",
                    "midi": 50,
                    "time": 18.06390299999999,
                    "velocity": 0.4251968503937008,
                    "duration": 0.11579425000000043
                },
                {
                    "name": "D2",
                    "midi": 38,
                    "time": 18.29549149999999,
                    "velocity": 0.4251968503937008,
                    "duration": 0.11579425000000043
                },
                {
                    "name": "D3",
                    "midi": 50,
                    "time": 18.29549149999999,
                    "velocity": 0.5039370078740157,
                    "duration": 0.11579425000000043
                },
                {
                    "name": "A3",
                    "midi": 57,
                    "time": 18.52707999999999,
                    "velocity": 0.5039370078740157,
                    "duration": 0.11579424999999688
                },
                {
                    "name": "D3",
                    "midi": 50,
                    "time": 18.52707999999999,
                    "velocity": 0.4251968503937008,
                    "duration": 0.11579424999999688
                },
                {
                    "name": "G2",
                    "midi": 43,
                    "time": 18.758668499999988,
                    "velocity": 0.4015748031496063,
                    "duration": 0.2315884999999973
                },
                {
                    "name": "D3",
                    "midi": 50,
                    "time": 18.758668499999988,
                    "velocity": 0.4015748031496063,
                    "duration": 0.2315884999999973
                },
                {
                    "name": "G3",
                    "midi": 55,
                    "time": 18.758668499999988,
                    "velocity": 0.48031496062992124,
                    "duration": 0.2315884999999973
                },
                {
                    "name": "G1",
                    "midi": 31,
                    "time": 18.990256999999986,
                    "velocity": 0.3700787401574803,
                    "duration": 0.057897125000000216
                },
                {
                    "name": "G2",
                    "midi": 43,
                    "time": 18.990256999999986,
                    "velocity": 0.4330708661417323,
                    "duration": 0.057897125000000216
                },
                {
                    "name": "G2",
                    "midi": 43,
                    "time": 19.221845499999986,
                    "velocity": 0.3700787401574803,
                    "duration": 0.11579425000000043
                },
                {
                    "name": "G3",
                    "midi": 55,
                    "time": 19.221845499999986,
                    "velocity": 0.4330708661417323,
                    "duration": 0.11579425000000043
                },
                {
                    "name": "C3",
                    "midi": 48,
                    "time": 19.453433999999987,
                    "velocity": 0.25196850393700787,
                    "duration": 0.057897125000000216
                },
                {
                    "name": "G3",
                    "midi": 55,
                    "time": 19.453433999999987,
                    "velocity": 0.2992125984251969,
                    "duration": 0.057897125000000216
                },
                {
                    "name": "C4",
                    "midi": 60,
                    "time": 19.685022499999988,
                    "velocity": 0.2992125984251969,
                    "duration": 0.057897125000000216
                },
                {
                    "name": "C3",
                    "midi": 48,
                    "time": 19.685022499999988,
                    "velocity": 0.25196850393700787,
                    "duration": 0.057897125000000216
                },
                {
                    "name": "G3",
                    "midi": 55,
                    "time": 19.685022499999988,
                    "velocity": 0.25196850393700787,
                    "duration": 0.057897125000000216
                },
                {
                    "name": "C3",
                    "midi": 48,
                    "time": 19.91661099999999,
                    "velocity": 0.2755905511811024,
                    "duration": 0.05789712499999666
                },
                {
                    "name": "G3",
                    "midi": 55,
                    "time": 19.91661099999999,
                    "velocity": 0.2755905511811024,
                    "duration": 0.05789712499999666
                },
                {
                    "name": "C4",
                    "midi": 60,
                    "time": 19.91661099999999,
                    "velocity": 0.33070866141732286,
                    "duration": 0.05789712499999666
                },
                {
                    "name": "C3",
                    "midi": 48,
                    "time": 20.148199499999986,
                    "velocity": 0.33858267716535434,
                    "duration": 0.057897125000000216
                },
                {
                    "name": "G3",
                    "midi": 55,
                    "time": 20.148199499999986,
                    "velocity": 0.33858267716535434,
                    "duration": 0.057897125000000216
                },
                {
                    "name": "C4",
                    "midi": 60,
                    "time": 20.148199499999986,
                    "velocity": 0.4094488188976378,
                    "duration": 0.057897125000000216
                },
                {
                    "name": "C4",
                    "midi": 60,
                    "time": 20.379787999999987,
                    "velocity": 0.4094488188976378,
                    "duration": 0.057897125000000216
                },
                {
                    "name": "C3",
                    "midi": 48,
                    "time": 20.379787999999987,
                    "velocity": 0.33858267716535434,
                    "duration": 0.057897125000000216
                },
                {
                    "name": "F#3",
                    "midi": 54,
                    "time": 20.379787999999987,
                    "velocity": 0.33858267716535434,
                    "duration": 0.057897125000000216
                },
                {
                    "name": "B3",
                    "midi": 59,
                    "time": 20.611376499999988,
                    "velocity": 0.4409448818897638,
                    "duration": 0.057897125000000216
                },
                {
                    "name": "B2",
                    "midi": 47,
                    "time": 20.611376499999988,
                    "velocity": 0.3700787401574803,
                    "duration": 0.057897125000000216
                },
                {
                    "name": "F#3",
                    "midi": 54,
                    "time": 20.611376499999988,
                    "velocity": 0.3700787401574803,
                    "duration": 0.057897125000000216
                },
                {
                    "name": "E3",
                    "midi": 52,
                    "time": 20.84296499999999,
                    "velocity": 0.2677165354330709,
                    "duration": 0.057897125000000216
                },
                {
                    "name": "B3",
                    "midi": 59,
                    "time": 20.84296499999999,
                    "velocity": 0.31496062992125984,
                    "duration": 0.057897125000000216
                },
                {
                    "name": "G3",
                    "midi": 55,
                    "time": 21.07455349999999,
                    "velocity": 0.25984251968503935,
                    "duration": 0.057897125000000216
                },
                {
                    "name": "C3",
                    "midi": 48,
                    "time": 21.07455349999999,
                    "velocity": 0.25984251968503935,
                    "duration": 0.057897125000000216
                },
                {
                    "name": "C4",
                    "midi": 60,
                    "time": 21.07455349999999,
                    "velocity": 0.30708661417322836,
                    "duration": 0.057897125000000216
                },
                {
                    "name": "C4",
                    "midi": 60,
                    "time": 21.30614199999999,
                    "velocity": 0.33070866141732286,
                    "duration": 0.057897125000000216
                },
                {
                    "name": "C3",
                    "midi": 48,
                    "time": 21.30614199999999,
                    "velocity": 0.2755905511811024,
                    "duration": 0.057897125000000216
                },
                {
                    "name": "G3",
                    "midi": 55,
                    "time": 21.30614199999999,
                    "velocity": 0.2755905511811024,
                    "duration": 0.057897125000000216
                },
                {
                    "name": "C3",
                    "midi": 48,
                    "time": 21.53773049999999,
                    "velocity": 0.3228346456692913,
                    "duration": 0.057897125000000216
                },
                {
                    "name": "G3",
                    "midi": 55,
                    "time": 21.53773049999999,
                    "velocity": 0.3228346456692913,
                    "duration": 0.057897125000000216
                },
                {
                    "name": "C4",
                    "midi": 60,
                    "time": 21.53773049999999,
                    "velocity": 0.3858267716535433,
                    "duration": 0.057897125000000216
                },
                {
                    "name": "F#3",
                    "midi": 54,
                    "time": 21.769318999999992,
                    "velocity": 0.30708661417322836,
                    "duration": 0.4631770000000017
                },
                {
                    "name": "C3",
                    "midi": 48,
                    "time": 21.769318999999992,
                    "velocity": 0.30708661417322836,
                    "duration": 0.057897125000000216
                },
                {
                    "name": "C4",
                    "midi": 60,
                    "time": 21.769318999999992,
                    "velocity": 0.3779527559055118,
                    "duration": 0.057897125000000216
                },
                {
                    "name": "B3",
                    "midi": 59,
                    "time": 22.000907499999993,
                    "velocity": 0.3937007874015748,
                    "duration": 0.057897125000000216
                },
                {
                    "name": "B2",
                    "midi": 47,
                    "time": 22.000907499999993,
                    "velocity": 0.33070866141732286,
                    "duration": 0.057897125000000216
                },
                {
                    "name": "E3",
                    "midi": 52,
                    "time": 22.232495999999994,
                    "velocity": 0.33858267716535434,
                    "duration": 0.11579424999999688
                },
                {
                    "name": "B3",
                    "midi": 59,
                    "time": 22.232495999999994,
                    "velocity": 0.4015748031496063,
                    "duration": 0.11579424999999688
                },
                {
                    "name": "B3",
                    "midi": 59,
                    "time": 22.46408449999999,
                    "velocity": 0.3858267716535433,
                    "duration": 0.1736913749999971
                },
                {
                    "name": "B2",
                    "midi": 47,
                    "time": 22.46408449999999,
                    "velocity": 0.3228346456692913,
                    "duration": 0.1736913749999971
                },
                {
                    "name": "E3",
                    "midi": 52,
                    "time": 22.69567299999999,
                    "velocity": 0.3228346456692913,
                    "duration": 0.1736913749999971
                },
                {
                    "name": "B3",
                    "midi": 59,
                    "time": 22.69567299999999,
                    "velocity": 0.3858267716535433,
                    "duration": 0.1736913749999971
                },
                {
                    "name": "B2",
                    "midi": 47,
                    "time": 22.927261499999986,
                    "velocity": 0.33858267716535434,
                    "duration": 0.1736913750000042
                },
                {
                    "name": "B3",
                    "midi": 59,
                    "time": 22.927261499999986,
                    "velocity": 0.4015748031496063,
                    "duration": 0.1736913750000042
                },
                {
                    "name": "E3",
                    "midi": 52,
                    "time": 23.15884999999999,
                    "velocity": 0.3543307086614173,
                    "duration": 0.1736913749999971
                },
                {
                    "name": "B3",
                    "midi": 59,
                    "time": 23.15884999999999,
                    "velocity": 0.4251968503937008,
                    "duration": 0.1736913749999971
                },
                {
                    "name": "B3",
                    "midi": 59,
                    "time": 23.390438499999988,
                    "velocity": 0.4409448818897638,
                    "duration": 0.1736913749999971
                },
                {
                    "name": "B2",
                    "midi": 47,
                    "time": 23.390438499999988,
                    "velocity": 0.3700787401574803,
                    "duration": 0.1736913749999971
                },
                {
                    "name": "B2",
                    "midi": 47,
                    "time": 23.622026999999985,
                    "velocity": 0.4409448818897638,
                    "duration": 0.1736913749999971
                },
                {
                    "name": "B1",
                    "midi": 35,
                    "time": 23.622026999999985,
                    "velocity": 0.3700787401574803,
                    "duration": 0.1736913749999971
                },
                {
                    "name": "B3",
                    "midi": 59,
                    "time": 23.853615499999982,
                    "velocity": 0.3700787401574803,
                    "duration": 0.1736913749999971
                },
                {
                    "name": "D4",
                    "midi": 62,
                    "time": 23.853615499999982,
                    "velocity": 0.44881889763779526,
                    "duration": 0.1736913749999971
                },
                {
                    "name": "F3",
                    "midi": 53,
                    "time": 23.853615499999982,
                    "velocity": 0.3700787401574803,
                    "duration": 0.1736913749999971
                },
                {
                    "name": "D#4",
                    "midi": 63,
                    "time": 24.08520399999998,
                    "velocity": 0.4566929133858268,
                    "duration": 0.1736913749999971
                },
                {
                    "name": "B3",
                    "midi": 59,
                    "time": 24.08520399999998,
                    "velocity": 0.3858267716535433,
                    "duration": 0.1736913749999971
                },
                {
                    "name": "F#3",
                    "midi": 54,
                    "time": 24.08520399999998,
                    "velocity": 0.3858267716535433,
                    "duration": 0.1736913749999971
                },
                {
                    "name": "F3",
                    "midi": 53,
                    "time": 24.316792499999977,
                    "velocity": 0.3937007874015748,
                    "duration": 0.1736913749999971
                },
                {
                    "name": "B3",
                    "midi": 59,
                    "time": 24.316792499999977,
                    "velocity": 0.3937007874015748,
                    "duration": 0.1736913749999971
                },
                {
                    "name": "D4",
                    "midi": 62,
                    "time": 24.316792499999977,
                    "velocity": 0.4645669291338583,
                    "duration": 0.1736913749999971
                },
                {
                    "name": "B3",
                    "midi": 59,
                    "time": 24.548380999999974,
                    "velocity": 0.4015748031496063,
                    "duration": 0.1736913749999971
                },
                {
                    "name": "D#4",
                    "midi": 63,
                    "time": 24.548380999999974,
                    "velocity": 0.48031496062992124,
                    "duration": 0.1736913749999971
                },
                {
                    "name": "F#3",
                    "midi": 54,
                    "time": 24.548380999999974,
                    "velocity": 0.4015748031496063,
                    "duration": 0.1736913749999971
                },
                {
                    "name": "B2",
                    "midi": 47,
                    "time": 24.77996949999997,
                    "velocity": 0.4881889763779528,
                    "duration": 0.1736913749999971
                },
                {
                    "name": "B1",
                    "midi": 35,
                    "time": 24.77996949999997,
                    "velocity": 0.4094488188976378,
                    "duration": 0.1736913749999971
                },
                {
                    "name": "A#1",
                    "midi": 34,
                    "time": 25.01155799999997,
                    "velocity": 0.4409448818897638,
                    "duration": 0.23158850000000442
                },
                {
                    "name": "A#2",
                    "midi": 46,
                    "time": 25.01155799999997,
                    "velocity": 0.5196850393700787,
                    "duration": 0.23158850000000442
                },
                {
                    "name": "F#3",
                    "midi": 54,
                    "time": 25.243146499999973,
                    "velocity": 0.3858267716535433,
                    "duration": 0.1736913749999971
                },
                {
                    "name": "A#3",
                    "midi": 58,
                    "time": 25.243146499999973,
                    "velocity": 0.3858267716535433,
                    "duration": 0.1736913749999971
                },
                {
                    "name": "D#4",
                    "midi": 63,
                    "time": 25.243146499999973,
                    "velocity": 0.4566929133858268,
                    "duration": 0.1736913749999971
                },
                {
                    "name": "D#4",
                    "midi": 63,
                    "time": 25.47473499999997,
                    "velocity": 0.3464566929133858,
                    "duration": 0.17369137500000065
                },
                {
                    "name": "F#4",
                    "midi": 66,
                    "time": 25.47473499999997,
                    "velocity": 0.4094488188976378,
                    "duration": 0.17369137500000065
                },
                {
                    "name": "A#3",
                    "midi": 58,
                    "time": 25.47473499999997,
                    "velocity": 0.3464566929133858,
                    "duration": 0.17369137500000065
                },
                {
                    "name": "A#2",
                    "midi": 46,
                    "time": 25.70632349999997,
                    "velocity": 0.4409448818897638,
                    "duration": 0.23158850000000086
                },
                {
                    "name": "A#3",
                    "midi": 58,
                    "time": 25.70632349999997,
                    "velocity": 0.5196850393700787,
                    "duration": 0.23158850000000086
                },
                {
                    "name": "F3",
                    "midi": 53,
                    "time": 25.937911999999972,
                    "velocity": 0.3858267716535433,
                    "duration": 0.1736913749999971
                },
                {
                    "name": "D4",
                    "midi": 62,
                    "time": 25.937911999999972,
                    "velocity": 0.4566929133858268,
                    "duration": 0.1736913749999971
                },
                {
                    "name": "A#3",
                    "midi": 58,
                    "time": 26.16950049999997,
                    "velocity": 0.3464566929133858,
                    "duration": 0.17369137500000065
                },
                {
                    "name": "G#4",
                    "midi": 68,
                    "time": 26.16950049999997,
                    "velocity": 0.4094488188976378,
                    "duration": 0.17369137500000065
                },
                {
                    "name": "F4",
                    "midi": 65,
                    "time": 26.16950049999997,
                    "velocity": 0.3464566929133858,
                    "duration": 0.17369137500000065
                },
                {
                    "name": "D#2",
                    "midi": 39,
                    "time": 26.40108899999997,
                    "velocity": 0.3937007874015748,
                    "duration": 0.11579425000000398
                },
                {
                    "name": "D#3",
                    "midi": 51,
                    "time": 26.40108899999997,
                    "velocity": 0.4645669291338583,
                    "duration": 0.11579425000000398
                },
                {
                    "name": "D#3",
                    "midi": 51,
                    "time": 26.632677499999975,
                    "velocity": 0.3464566929133858,
                    "duration": 0.5789712499999986
                },
                {
                    "name": "A#3",
                    "midi": 58,
                    "time": 26.632677499999975,
                    "velocity": 0.4094488188976378,
                    "duration": 0.2315884999999973
                },
                {
                    "name": "D4",
                    "midi": 62,
                    "time": 26.864265999999972,
                    "velocity": 0.3464566929133858,
                    "duration": 0.2315884999999973
                },
                {
                    "name": "D#4",
                    "midi": 63,
                    "time": 27.09585449999997,
                    "velocity": 0.4330708661417323,
                    "duration": 0.11579425000000398
                },
                {
                    "name": "D#2",
                    "midi": 39,
                    "time": 27.327442999999974,
                    "velocity": 0.28346456692913385,
                    "duration": 0.1736913749999971
                },
                {
                    "name": "D#3",
                    "midi": 51,
                    "time": 27.327442999999974,
                    "velocity": 0.33070866141732286,
                    "duration": 0.1736913749999971
                },
                {
                    "name": "D#3",
                    "midi": 51,
                    "time": 27.55903149999997,
                    "velocity": 0.2440944881889764,
                    "duration": 0.23158850000000086
                },
                {
                    "name": "C#4",
                    "midi": 61,
                    "time": 27.55903149999997,
                    "velocity": 0.25984251968503935,
                    "duration": 0.17369137500000065
                },
                {
                    "name": "G#3",
                    "midi": 56,
                    "time": 27.790619999999972,
                    "velocity": 0.3228346456692913,
                    "duration": 0.1736913749999971
                },
                {
                    "name": "G#2",
                    "midi": 44,
                    "time": 27.790619999999972,
                    "velocity": 0.2677165354330709,
                    "duration": 0.1736913749999971
                },
                {
                    "name": "D#3",
                    "midi": 51,
                    "time": 27.790619999999972,
                    "velocity": 0.2677165354330709,
                    "duration": 0.1736913749999971
                },
                {
                    "name": "G#1",
                    "midi": 32,
                    "time": 28.02220849999997,
                    "velocity": 0.23622047244094488,
                    "duration": 0.057897125000000216
                },
                {
                    "name": "G#2",
                    "midi": 44,
                    "time": 28.02220849999997,
                    "velocity": 0.28346456692913385,
                    "duration": 0.057897125000000216
                },
                {
                    "name": "D#2",
                    "midi": 39,
                    "time": 28.25379699999997,
                    "velocity": 0.23622047244094488,
                    "duration": 0.057897125000000216
                },
                {
                    "name": "D#3",
                    "midi": 51,
                    "time": 28.25379699999997,
                    "velocity": 0.28346456692913385,
                    "duration": 0.057897125000000216
                },
                {
                    "name": "G#3",
                    "midi": 56,
                    "time": 28.485385499999968,
                    "velocity": 0.3464566929133858,
                    "duration": 0.1736913750000042
                },
                {
                    "name": "G#2",
                    "midi": 44,
                    "time": 28.485385499999968,
                    "velocity": 0.29133858267716534,
                    "duration": 0.1736913750000042
                },
                {
                    "name": "D#3",
                    "midi": 51,
                    "time": 28.485385499999968,
                    "velocity": 0.29133858267716534,
                    "duration": 0.1736913750000042
                },
                {
                    "name": "G#1",
                    "midi": 32,
                    "time": 28.716973999999972,
                    "velocity": 0.25196850393700787,
                    "duration": 0.057897125000000216
                },
                {
                    "name": "G#2",
                    "midi": 44,
                    "time": 28.716973999999972,
                    "velocity": 0.30708661417322836,
                    "duration": 0.057897125000000216
                },
                {
                    "name": "D#3",
                    "midi": 51,
                    "time": 28.948562499999973,
                    "velocity": 0.31496062992125984,
                    "duration": 0.057897125000000216
                },
                {
                    "name": "D#2",
                    "midi": 39,
                    "time": 28.948562499999973,
                    "velocity": 0.25984251968503935,
                    "duration": 0.057897125000000216
                },
                {
                    "name": "D#3",
                    "midi": 51,
                    "time": 29.18015099999997,
                    "velocity": 0.3228346456692913,
                    "duration": 0.1736913750000042
                },
                {
                    "name": "G#3",
                    "midi": 56,
                    "time": 29.18015099999997,
                    "velocity": 0.3228346456692913,
                    "duration": 0.1736913750000042
                },
                {
                    "name": "B3",
                    "midi": 59,
                    "time": 29.18015099999997,
                    "velocity": 0.3858267716535433,
                    "duration": 0.1736913750000042
                },
                {
                    "name": "G#1",
                    "midi": 32,
                    "time": 29.411739499999975,
                    "velocity": 0.28346456692913385,
                    "duration": 0.057897125000000216
                },
                {
                    "name": "G#2",
                    "midi": 44,
                    "time": 29.411739499999975,
                    "velocity": 0.33858267716535434,
                    "duration": 0.057897125000000216
                },
                {
                    "name": "D#3",
                    "midi": 51,
                    "time": 29.643327999999972,
                    "velocity": 0.36220472440944884,
                    "duration": 0.057897125000000216
                },
                {
                    "name": "D#2",
                    "midi": 39,
                    "time": 29.643327999999972,
                    "velocity": 0.2992125984251969,
                    "duration": 0.057897125000000216
                },
                {
                    "name": "D#3",
                    "midi": 51,
                    "time": 29.874916499999973,
                    "velocity": 0.3779527559055118,
                    "duration": 0.17369137500000065
                },
                {
                    "name": "G#3",
                    "midi": 56,
                    "time": 29.874916499999973,
                    "velocity": 0.3779527559055118,
                    "duration": 0.17369137500000065
                },
                {
                    "name": "B3",
                    "midi": 59,
                    "time": 29.874916499999973,
                    "velocity": 0.44881889763779526,
                    "duration": 0.17369137500000065
                },
                {
                    "name": "G#1",
                    "midi": 32,
                    "time": 30.106504999999974,
                    "velocity": 0.3228346456692913,
                    "duration": 0.057897125000000216
                },
                {
                    "name": "G#2",
                    "midi": 44,
                    "time": 30.106504999999974,
                    "velocity": 0.3937007874015748,
                    "duration": 0.057897125000000216
                },
                {
                    "name": "D#2",
                    "midi": 39,
                    "time": 30.338093499999975,
                    "velocity": 0.3464566929133858,
                    "duration": 0.057897125000000216
                },
                {
                    "name": "D#3",
                    "midi": 51,
                    "time": 30.338093499999975,
                    "velocity": 0.4094488188976378,
                    "duration": 0.057897125000000216
                },
                {
                    "name": "D#3",
                    "midi": 51,
                    "time": 30.569681999999975,
                    "velocity": 0.3700787401574803,
                    "duration": 0.057897125000000216
                },
                {
                    "name": "A#3",
                    "midi": 58,
                    "time": 30.569681999999975,
                    "velocity": 0.4409448818897638,
                    "duration": 0.057897125000000216
                },
                {
                    "name": "D#3",
                    "midi": 51,
                    "time": 30.801270499999976,
                    "velocity": 0.44881889763779526,
                    "duration": 0.057897125000000216
                },
                {
                    "name": "G2",
                    "midi": 43,
                    "time": 30.801270499999976,
                    "velocity": 0.3779527559055118,
                    "duration": 0.057897125000000216
                },
                {
                    "name": "D#3",
                    "midi": 51,
                    "time": 31.032858999999977,
                    "velocity": 0.3937007874015748,
                    "duration": 0.05789712499999666
                },
                {
                    "name": "A#3",
                    "midi": 58,
                    "time": 31.032858999999977,
                    "velocity": 0.4645669291338583,
                    "duration": 0.05789712499999666
                },
                {
                    "name": "D#3",
                    "midi": 51,
                    "time": 31.264447499999974,
                    "velocity": 0.4409448818897638,
                    "duration": 0.05789712500000377
                },
                {
                    "name": "G#2",
                    "midi": 44,
                    "time": 31.264447499999974,
                    "velocity": 0.3700787401574803,
                    "duration": 0.05789712500000377
                },
                {
                    "name": "D#3",
                    "midi": 51,
                    "time": 31.49603599999998,
                    "velocity": 0.3779527559055118,
                    "duration": 0.057897125000000216
                },
                {
                    "name": "B3",
                    "midi": 59,
                    "time": 31.49603599999998,
                    "velocity": 0.44881889763779526,
                    "duration": 0.057897125000000216
                },
                {
                    "name": "G#2",
                    "midi": 44,
                    "time": 31.72762449999998,
                    "velocity": 0.3937007874015748,
                    "duration": 0.057897125000000216
                },
                {
                    "name": "D#3",
                    "midi": 51,
                    "time": 31.72762449999998,
                    "velocity": 0.4645669291338583,
                    "duration": 0.057897125000000216
                },
                {
                    "name": "C#3",
                    "midi": 49,
                    "time": 31.95921299999998,
                    "velocity": 0.3937007874015748,
                    "duration": 0.057897125000000216
                },
                {
                    "name": "G#3",
                    "midi": 56,
                    "time": 31.95921299999998,
                    "velocity": 0.47244094488188976,
                    "duration": 0.057897125000000216
                },
                {
                    "name": "C#2",
                    "midi": 37,
                    "time": 32.19080149999998,
                    "velocity": 0.3858267716535433,
                    "duration": 0.05789712500000377
                },
                {
                    "name": "C#3",
                    "midi": 49,
                    "time": 32.19080149999998,
                    "velocity": 0.4566929133858268,
                    "duration": 0.05789712500000377
                },
                {
                    "name": "G#3",
                    "midi": 56,
                    "time": 32.42238999999998,
                    "velocity": 0.4409448818897638,
                    "duration": 0.05789712500000377
                },
                {
                    "name": "C#3",
                    "midi": 49,
                    "time": 32.42238999999998,
                    "velocity": 0.3700787401574803,
                    "duration": 0.05789712500000377
                },
                {
                    "name": "D#3",
                    "midi": 51,
                    "time": 32.65397849999998,
                    "velocity": 0.33070866141732286,
                    "duration": 0.05789712499999666
                },
                {
                    "name": "G3",
                    "midi": 55,
                    "time": 32.65397849999998,
                    "velocity": 0.4015748031496063,
                    "duration": 0.05789712499999666
                },
                {
                    "name": "D#3",
                    "midi": 51,
                    "time": 32.88556699999997,
                    "velocity": 0.3858267716535433,
                    "duration": 0.05789712500000377
                },
                {
                    "name": "D#2",
                    "midi": 39,
                    "time": 32.88556699999997,
                    "velocity": 0.3228346456692913,
                    "duration": 0.05789712500000377
                },
                {
                    "name": "D#3",
                    "midi": 51,
                    "time": 33.117155499999974,
                    "velocity": 0.2992125984251969,
                    "duration": 0.05789712500000377
                },
                {
                    "name": "G3",
                    "midi": 55,
                    "time": 33.117155499999974,
                    "velocity": 0.3543307086614173,
                    "duration": 0.05789712500000377
                },
                {
                    "name": "G#2",
                    "midi": 44,
                    "time": 33.34874399999998,
                    "velocity": 0.4251968503937008,
                    "duration": 0.1736913749999971
                },
                {
                    "name": "D#3",
                    "midi": 51,
                    "time": 33.34874399999998,
                    "velocity": 0.4251968503937008,
                    "duration": 0.1736913749999971
                },
                {
                    "name": "G#3",
                    "midi": 56,
                    "time": 33.34874399999998,
                    "velocity": 0.49606299212598426,
                    "duration": 0.1736913749999971
                },
                {
                    "name": "G#2",
                    "midi": 44,
                    "time": 33.580332499999976,
                    "velocity": 0.6377952755905512,
                    "duration": 0.11579425000000043
                },
                {
                    "name": "G#1",
                    "midi": 32,
                    "time": 33.580332499999976,
                    "velocity": 0.5354330708661418,
                    "duration": 0.11579425000000043
                },
                {
                    "name": "D#2",
                    "midi": 39,
                    "time": 33.81192099999998,
                    "velocity": 0.31496062992125984,
                    "duration": 0.05789712499999666
                },
                {
                    "name": "D#3",
                    "midi": 51,
                    "time": 33.81192099999998,
                    "velocity": 0.3858267716535433,
                    "duration": 0.05789712499999666
                },
                {
                    "name": "D#3",
                    "midi": 51,
                    "time": 34.04350949999998,
                    "velocity": 0.47244094488188976,
                    "duration": 0.1736913749999971
                },
                {
                    "name": "G#2",
                    "midi": 44,
                    "time": 34.04350949999998,
                    "velocity": 0.47244094488188976,
                    "duration": 0.1736913749999971
                },
                {
                    "name": "G#3",
                    "midi": 56,
                    "time": 34.04350949999998,
                    "velocity": 0.5748031496062992,
                    "duration": 0.1736913749999971
                },
                {
                    "name": "F#1",
                    "midi": 30,
                    "time": 34.27509799999997,
                    "velocity": 0.6141732283464567,
                    "duration": 0.11579425000000043
                },
                {
                    "name": "F#2",
                    "midi": 42,
                    "time": 34.27509799999997,
                    "velocity": 0.7480314960629921,
                    "duration": 0.11579425000000043
                },
                {
                    "name": "F#2",
                    "midi": 42,
                    "time": 34.50668649999997,
                    "velocity": 0.36220472440944884,
                    "duration": 0.05789712499999666
                },
                {
                    "name": "D#3",
                    "midi": 51,
                    "time": 34.50668649999997,
                    "velocity": 0.4330708661417323,
                    "duration": 0.05789712499999666
                },
                {
                    "name": "G#3",
                    "midi": 56,
                    "time": 34.738274999999966,
                    "velocity": 0.6692913385826772,
                    "duration": 0.1736913749999971
                },
                {
                    "name": "E3",
                    "midi": 52,
                    "time": 34.738274999999966,
                    "velocity": 0.5590551181102362,
                    "duration": 0.1736913749999971
                },
                {
                    "name": "E1",
                    "midi": 28,
                    "time": 34.96986349999996,
                    "velocity": 0.6614173228346457,
                    "duration": 0.11579425000000043
                },
                {
                    "name": "E2",
                    "midi": 40,
                    "time": 34.96986349999996,
                    "velocity": 0.7952755905511811,
                    "duration": 0.11579425000000043
                },
                {
                    "name": "G#3",
                    "midi": 56,
                    "time": 35.201451999999954,
                    "velocity": 0.4881889763779528,
                    "duration": 0.05789712500000377
                },
                {
                    "name": "E3",
                    "midi": 52,
                    "time": 35.201451999999954,
                    "velocity": 0.4094488188976378,
                    "duration": 0.05789712500000377
                },
                {
                    "name": "D#3",
                    "midi": 51,
                    "time": 35.43304049999996,
                    "velocity": 0.5590551181102362,
                    "duration": 0.1736913749999971
                },
                {
                    "name": "G#3",
                    "midi": 56,
                    "time": 35.43304049999996,
                    "velocity": 0.5590551181102362,
                    "duration": 0.1736913749999971
                },
                {
                    "name": "B3",
                    "midi": 59,
                    "time": 35.43304049999996,
                    "velocity": 0.6614173228346457,
                    "duration": 0.1736913749999971
                },
                {
                    "name": "D#1",
                    "midi": 27,
                    "time": 35.664628999999955,
                    "velocity": 0.6692913385826772,
                    "duration": 0.11579425000000043
                },
                {
                    "name": "D#2",
                    "midi": 39,
                    "time": 35.664628999999955,
                    "velocity": 0.8110236220472441,
                    "duration": 0.11579425000000043
                },
                {
                    "name": "B3",
                    "midi": 59,
                    "time": 35.896217499999956,
                    "velocity": 0.5354330708661418,
                    "duration": 0.05789712499999666
                },
                {
                    "name": "G#3",
                    "midi": 56,
                    "time": 35.896217499999956,
                    "velocity": 0.44881889763779526,
                    "duration": 0.05789712499999666
                },
                {
                    "name": "D#3",
                    "midi": 51,
                    "time": 35.896217499999956,
                    "velocity": 0.44881889763779526,
                    "duration": 0.05789712499999666
                },
                {
                    "name": "G#3",
                    "midi": 56,
                    "time": 36.12780599999996,
                    "velocity": 0.5196850393700787,
                    "duration": 0.11579425000000043
                },
                {
                    "name": "C#3",
                    "midi": 49,
                    "time": 36.12780599999996,
                    "velocity": 0.5196850393700787,
                    "duration": 0.11579425000000043
                },
                {
                    "name": "B3",
                    "midi": 59,
                    "time": 36.12780599999996,
                    "velocity": 0.6299212598425197,
                    "duration": 0.11579425000000043
                },
                {
                    "name": "B3",
                    "midi": 59,
                    "time": 36.82257149999997,
                    "velocity": 0.6299212598425197,
                    "duration": 0.11579425000000043
                },
                {
                    "name": "G#3",
                    "midi": 56,
                    "time": 36.82257149999997,
                    "velocity": 0.5196850393700787,
                    "duration": 0.11579425000000043
                },
                {
                    "name": "D#3",
                    "midi": 51,
                    "time": 36.82257149999997,
                    "velocity": 0.5196850393700787,
                    "duration": 0.11579425000000043
                },
                {
                    "name": "C#3",
                    "midi": 49,
                    "time": 37.51733699999997,
                    "velocity": 0.5196850393700787,
                    "duration": 0.11579425000000043
                },
                {
                    "name": "G#3",
                    "midi": 56,
                    "time": 37.51733699999997,
                    "velocity": 0.5196850393700787,
                    "duration": 0.11579425000000043
                },
                {
                    "name": "B3",
                    "midi": 59,
                    "time": 37.51733699999997,
                    "velocity": 0.6299212598425197,
                    "duration": 0.11579425000000043
                },
                {
                    "name": "G#3",
                    "midi": 56,
                    "time": 38.21210249999997,
                    "velocity": 0.5196850393700787,
                    "duration": 0.11579425000000043
                },
                {
                    "name": "D#3",
                    "midi": 51,
                    "time": 38.21210249999997,
                    "velocity": 0.5196850393700787,
                    "duration": 0.11579425000000043
                },
                {
                    "name": "B3",
                    "midi": 59,
                    "time": 38.21210249999997,
                    "velocity": 0.6299212598425197,
                    "duration": 0.11579425000000043
                },
                {
                    "name": "E3",
                    "midi": 52,
                    "time": 38.906867999999974,
                    "velocity": 0.48031496062992124,
                    "duration": 0.11579425000000043
                },
                {
                    "name": "G#3",
                    "midi": 56,
                    "time": 38.906867999999974,
                    "velocity": 0.5669291338582677,
                    "duration": 0.11579425000000043
                },
                {
                    "name": "E4",
                    "midi": 64,
                    "time": 41.68592999999999,
                    "velocity": 0.5669291338582677,
                    "duration": 0.11579425000000043
                },
                {
                    "name": "D#4",
                    "midi": 63,
                    "time": 41.80172424999999,
                    "velocity": 0.47244094488188976,
                    "duration": 0.05789712499999666
                },
                {
                    "name": "D#4",
                    "midi": 63,
                    "time": 41.917518499999986,
                    "velocity": 0.4881889763779528,
                    "duration": 0.11579425000000043
                },
                {
                    "name": "C#4",
                    "midi": 61,
                    "time": 42.033312749999986,
                    "velocity": 0.4330708661417323,
                    "duration": 0.05789712499999666
                },
                {
                    "name": "C#4",
                    "midi": 61,
                    "time": 42.14910699999998,
                    "velocity": 0.4566929133858268,
                    "duration": 0.11579425000000043
                },
                {
                    "name": "B3",
                    "midi": 59,
                    "time": 42.26490124999998,
                    "velocity": 0.41732283464566927,
                    "duration": 0.05789712500000377
                },
                {
                    "name": "B3",
                    "midi": 59,
                    "time": 42.38069549999998,
                    "velocity": 0.47244094488188976,
                    "duration": 0.11579425000000043
                },
                {
                    "name": "A#3",
                    "midi": 58,
                    "time": 42.49648974999998,
                    "velocity": 0.4094488188976378,
                    "duration": 0.05789712499999666
                },
                {
                    "name": "A#3",
                    "midi": 58,
                    "time": 42.612283999999974,
                    "velocity": 0.4251968503937008,
                    "duration": 0.11579425000000043
                },
                {
                    "name": "G#3",
                    "midi": 56,
                    "time": 42.728078249999975,
                    "velocity": 0.3700787401574803,
                    "duration": 0.05789712499999666
                },
                {
                    "name": "G#3",
                    "midi": 56,
                    "time": 42.84387249999997,
                    "velocity": 0.41732283464566927,
                    "duration": 0.11579425000000043
                },
                {
                    "name": "F#3",
                    "midi": 54,
                    "time": 42.95966674999997,
                    "velocity": 0.3543307086614173,
                    "duration": 0.05789712500000377
                },
                {
                    "name": "F#3",
                    "midi": 54,
                    "time": 43.07546099999997,
                    "velocity": 0.4094488188976378,
                    "duration": 0.11579425000000043
                },
                {
                    "name": "E3",
                    "midi": 52,
                    "time": 43.19125524999997,
                    "velocity": 0.3464566929133858,
                    "duration": 0.05789712499999666
                },
                {
                    "name": "E3",
                    "midi": 52,
                    "time": 43.30704949999996,
                    "velocity": 0.36220472440944884,
                    "duration": 0.11579425000000043
                },
                {
                    "name": "D#3",
                    "midi": 51,
                    "time": 43.42284374999996,
                    "velocity": 0.31496062992125984,
                    "duration": 0.05789712500000377
                },
                {
                    "name": "D#3",
                    "midi": 51,
                    "time": 43.53863799999996,
                    "velocity": 0.3464566929133858,
                    "duration": 0.11579425000000043
                },
                {
                    "name": "C#3",
                    "midi": 49,
                    "time": 43.654432249999964,
                    "velocity": 0.31496062992125984,
                    "duration": 0.05789712500000377
                },
                {
                    "name": "D#3",
                    "midi": 51,
                    "time": 43.770226499999964,
                    "velocity": 0.3228346456692913,
                    "duration": 0.9263540000000035
                },
                {
                    "name": "D#2",
                    "midi": 39,
                    "time": 44.233403499999966,
                    "velocity": 0.3228346456692913,
                    "duration": 0.23158850000000086
                },
                {
                    "name": "G#2",
                    "midi": 44,
                    "time": 44.46499199999997,
                    "velocity": 0.3228346456692913,
                    "duration": 0.11579425000000043
                },
                {
                    "name": "C#2",
                    "midi": 37,
                    "time": 44.69658049999997,
                    "velocity": 0.2677165354330709,
                    "duration": 0.05789712500000377
                },
                {
                    "name": "C#3",
                    "midi": 49,
                    "time": 44.69658049999997,
                    "velocity": 0.31496062992125984,
                    "duration": 0.05789712500000377
                },
                {
                    "name": "D#2",
                    "midi": 39,
                    "time": 44.92816899999997,
                    "velocity": 0.23622047244094488,
                    "duration": 0.05789712499999666
                },
                {
                    "name": "D#3",
                    "midi": 51,
                    "time": 44.92816899999997,
                    "velocity": 0.29133858267716534,
                    "duration": 0.05789712499999666
                },
                {
                    "name": "G#3",
                    "midi": 56,
                    "time": 45.15975749999997,
                    "velocity": 0.29133858267716534,
                    "duration": 0.05789712499999666
                },
                {
                    "name": "G#2",
                    "midi": 44,
                    "time": 45.15975749999997,
                    "velocity": 0.23622047244094488,
                    "duration": 0.05789712499999666
                },
                {
                    "name": "C#2",
                    "midi": 37,
                    "time": 45.39134599999996,
                    "velocity": 0.2677165354330709,
                    "duration": 0.05789712500000377
                },
                {
                    "name": "C#3",
                    "midi": 49,
                    "time": 45.39134599999996,
                    "velocity": 0.31496062992125984,
                    "duration": 0.05789712500000377
                },
                {
                    "name": "D#3",
                    "midi": 51,
                    "time": 45.622934499999964,
                    "velocity": 0.29133858267716534,
                    "duration": 0.05789712499999666
                },
                {
                    "name": "D#2",
                    "midi": 39,
                    "time": 45.622934499999964,
                    "velocity": 0.23622047244094488,
                    "duration": 0.05789712499999666
                },
                {
                    "name": "E2",
                    "midi": 40,
                    "time": 45.854522999999965,
                    "velocity": 0.23622047244094488,
                    "duration": 0.05789712499999666
                },
                {
                    "name": "E3",
                    "midi": 52,
                    "time": 45.854522999999965,
                    "velocity": 0.29133858267716534,
                    "duration": 0.05789712499999666
                },
                {
                    "name": "B1",
                    "midi": 35,
                    "time": 46.086111499999966,
                    "velocity": 0.2677165354330709,
                    "duration": 0.05789712500000377
                },
                {
                    "name": "B2",
                    "midi": 47,
                    "time": 46.086111499999966,
                    "velocity": 0.31496062992125984,
                    "duration": 0.05789712500000377
                },
                {
                    "name": "C#2",
                    "midi": 37,
                    "time": 46.31769999999997,
                    "velocity": 0.23622047244094488,
                    "duration": 0.05789712499999666
                },
                {
                    "name": "C#3",
                    "midi": 49,
                    "time": 46.31769999999997,
                    "velocity": 0.29133858267716534,
                    "duration": 0.05789712499999666
                },
                {
                    "name": "D#2",
                    "midi": 39,
                    "time": 46.54928849999996,
                    "velocity": 0.23622047244094488,
                    "duration": 0.05789712499999666
                },
                {
                    "name": "D#3",
                    "midi": 51,
                    "time": 46.54928849999996,
                    "velocity": 0.29133858267716534,
                    "duration": 0.05789712499999666
                },
                {
                    "name": "D#3",
                    "midi": 51,
                    "time": 46.780876999999954,
                    "velocity": 0.31496062992125984,
                    "duration": 0.05789712500000377
                },
                {
                    "name": "D#2",
                    "midi": 39,
                    "time": 47.01246549999996,
                    "velocity": 0.23622047244094488,
                    "duration": 0.05789712499999666
                },
                {
                    "name": "D#3",
                    "midi": 51,
                    "time": 47.01246549999996,
                    "velocity": 0.29133858267716534,
                    "duration": 0.05789712499999666
                },
                {
                    "name": "D#3",
                    "midi": 51,
                    "time": 47.24405399999996,
                    "velocity": 0.29133858267716534,
                    "duration": 0.05789712499999666
                },
                {
                    "name": "G#2",
                    "midi": 44,
                    "time": 47.24405399999996,
                    "velocity": 0.23622047244094488,
                    "duration": 0.05789712499999666
                },
                {
                    "name": "C#2",
                    "midi": 37,
                    "time": 47.475642499999964,
                    "velocity": 0.2677165354330709,
                    "duration": 0.05789712500000377
                },
                {
                    "name": "C#3",
                    "midi": 49,
                    "time": 47.475642499999964,
                    "velocity": 0.31496062992125984,
                    "duration": 0.05789712500000377
                },
                {
                    "name": "D#3",
                    "midi": 51,
                    "time": 47.707230999999965,
                    "velocity": 0.29133858267716534,
                    "duration": 0.05789712499999666
                },
                {
                    "name": "D#2",
                    "midi": 39,
                    "time": 47.707230999999965,
                    "velocity": 0.23622047244094488,
                    "duration": 0.05789712499999666
                },
                {
                    "name": "G#2",
                    "midi": 44,
                    "time": 47.938819499999966,
                    "velocity": 0.23622047244094488,
                    "duration": 0.05789712499999666
                },
                {
                    "name": "G#3",
                    "midi": 56,
                    "time": 47.938819499999966,
                    "velocity": 0.29133858267716534,
                    "duration": 0.05789712499999666
                },
                {
                    "name": "C#2",
                    "midi": 37,
                    "time": 48.17040799999996,
                    "velocity": 0.2677165354330709,
                    "duration": 0.05789712500000377
                },
                {
                    "name": "C#3",
                    "midi": 49,
                    "time": 48.17040799999996,
                    "velocity": 0.31496062992125984,
                    "duration": 0.05789712500000377
                },
                {
                    "name": "D#2",
                    "midi": 39,
                    "time": 48.40199649999996,
                    "velocity": 0.23622047244094488,
                    "duration": 0.05789712499999666
                },
                {
                    "name": "D#3",
                    "midi": 51,
                    "time": 48.40199649999996,
                    "velocity": 0.29133858267716534,
                    "duration": 0.05789712499999666
                },
                {
                    "name": "E2",
                    "midi": 40,
                    "time": 48.633584999999954,
                    "velocity": 0.23622047244094488,
                    "duration": 0.05789712499999666
                },
                {
                    "name": "E3",
                    "midi": 52,
                    "time": 48.633584999999954,
                    "velocity": 0.29133858267716534,
                    "duration": 0.05789712499999666
                },
                {
                    "name": "A2",
                    "midi": 45,
                    "time": 48.86517349999995,
                    "velocity": 0.31496062992125984,
                    "duration": 0.05789712500000377
                },
                {
                    "name": "A1",
                    "midi": 33,
                    "time": 48.86517349999995,
                    "velocity": 0.2677165354330709,
                    "duration": 0.05789712500000377
                },
                {
                    "name": "B1",
                    "midi": 35,
                    "time": 49.09676199999995,
                    "velocity": 0.23622047244094488,
                    "duration": 0.05789712499999666
                },
                {
                    "name": "B2",
                    "midi": 47,
                    "time": 49.09676199999995,
                    "velocity": 0.29133858267716534,
                    "duration": 0.05789712499999666
                },
                {
                    "name": "C#3",
                    "midi": 49,
                    "time": 49.32835049999994,
                    "velocity": 0.29133858267716534,
                    "duration": 0.05789712499999666
                },
                {
                    "name": "C#2",
                    "midi": 37,
                    "time": 49.32835049999994,
                    "velocity": 0.23622047244094488,
                    "duration": 0.05789712499999666
                },
                {
                    "name": "D#2",
                    "midi": 39,
                    "time": 49.559938999999936,
                    "velocity": 0.2992125984251969,
                    "duration": 0.05789712500000377
                },
                {
                    "name": "D#3",
                    "midi": 51,
                    "time": 49.559938999999936,
                    "velocity": 0.31496062992125984,
                    "duration": 0.05789712500000377
                },
                {
                    "name": "D#1",
                    "midi": 27,
                    "time": 49.79152749999994,
                    "velocity": 0.23622047244094488,
                    "duration": 0.05789712500000377
                },
                {
                    "name": "D#2",
                    "midi": 39,
                    "time": 49.79152749999994,
                    "velocity": 0.29133858267716534,
                    "duration": 0.05789712500000377
                },
                {
                    "name": "G#1",
                    "midi": 32,
                    "time": 50.02311599999994,
                    "velocity": 0.23622047244094488,
                    "duration": 0.05789712499999666
                },
                {
                    "name": "G#2",
                    "midi": 44,
                    "time": 50.02311599999994,
                    "velocity": 0.29133858267716534,
                    "duration": 0.05789712499999666
                },
                {
                    "name": "D#2",
                    "midi": 39,
                    "time": 50.71788149999993,
                    "velocity": 0.49606299212598426,
                    "duration": 0.6947655000000026
                },
                {
                    "name": "D#3",
                    "midi": 51,
                    "time": 50.71788149999993,
                    "velocity": 0.49606299212598426,
                    "duration": 0.9263540000000035
                },
                {
                    "name": "B3",
                    "midi": 59,
                    "time": 50.949469999999934,
                    "velocity": 0.4645669291338583,
                    "duration": 0.11579425000000043
                },
                {
                    "name": "G#3",
                    "midi": 56,
                    "time": 50.949469999999934,
                    "velocity": 0.4645669291338583,
                    "duration": 0.11579425000000043
                },
                {
                    "name": "G3",
                    "midi": 55,
                    "time": 51.065264249999935,
                    "velocity": 0.4330708661417323,
                    "duration": 0.0868456875000021
                },
                {
                    "name": "A#3",
                    "midi": 58,
                    "time": 51.065264249999935,
                    "velocity": 0.4330708661417323,
                    "duration": 0.0868456875000021
                },
                {
                    "name": "G3",
                    "midi": 55,
                    "time": 51.181058499999935,
                    "velocity": 0.4330708661417323,
                    "duration": 0.11579425000000043
                },
                {
                    "name": "A#3",
                    "midi": 58,
                    "time": 51.181058499999935,
                    "velocity": 0.4330708661417323,
                    "duration": 0.11579425000000043
                },
                {
                    "name": "A#3",
                    "midi": 58,
                    "time": 51.296852749999935,
                    "velocity": 0.4330708661417323,
                    "duration": 0.11579425000000043
                },
                {
                    "name": "C#4",
                    "midi": 61,
                    "time": 51.296852749999935,
                    "velocity": 0.4330708661417323,
                    "duration": 0.11579425000000043
                },
                {
                    "name": "G#2",
                    "midi": 44,
                    "time": 51.412646999999936,
                    "velocity": 0.49606299212598426,
                    "duration": 0.23158850000000086
                },
                {
                    "name": "B3",
                    "midi": 59,
                    "time": 51.412646999999936,
                    "velocity": 0.49606299212598426,
                    "duration": 0.23158850000000086
                },
                {
                    "name": "G#3",
                    "midi": 56,
                    "time": 51.412646999999936,
                    "velocity": 0.49606299212598426,
                    "duration": 0.23158850000000086
                },
                {
                    "name": "D#2",
                    "midi": 39,
                    "time": 52.10741249999994,
                    "velocity": 0.49606299212598426,
                    "duration": 0.6947655000000026
                },
                {
                    "name": "D#3",
                    "midi": 51,
                    "time": 52.10741249999994,
                    "velocity": 0.49606299212598426,
                    "duration": 0.9263540000000035
                },
                {
                    "name": "G#3",
                    "midi": 56,
                    "time": 52.33900099999994,
                    "velocity": 0.4645669291338583,
                    "duration": 0.11579425000000043
                },
                {
                    "name": "B3",
                    "midi": 59,
                    "time": 52.33900099999994,
                    "velocity": 0.4645669291338583,
                    "duration": 0.11579425000000043
                },
                {
                    "name": "G3",
                    "midi": 55,
                    "time": 52.45479524999994,
                    "velocity": 0.4330708661417323,
                    "duration": 0.0868456875000021
                },
                {
                    "name": "A#3",
                    "midi": 58,
                    "time": 52.45479524999994,
                    "velocity": 0.4330708661417323,
                    "duration": 0.0868456875000021
                },
                {
                    "name": "G3",
                    "midi": 55,
                    "time": 52.57058949999994,
                    "velocity": 0.4330708661417323,
                    "duration": 0.11579425000000043
                },
                {
                    "name": "A#3",
                    "midi": 58,
                    "time": 52.57058949999994,
                    "velocity": 0.4330708661417323,
                    "duration": 0.11579425000000043
                },
                {
                    "name": "C#4",
                    "midi": 61,
                    "time": 52.68638374999994,
                    "velocity": 0.4330708661417323,
                    "duration": 0.11579425000000043
                },
                {
                    "name": "A#3",
                    "midi": 58,
                    "time": 52.68638374999994,
                    "velocity": 0.4330708661417323,
                    "duration": 0.11579425000000043
                },
                {
                    "name": "G#2",
                    "midi": 44,
                    "time": 52.80217799999994,
                    "velocity": 0.49606299212598426,
                    "duration": 0.23158850000000086
                },
                {
                    "name": "B3",
                    "midi": 59,
                    "time": 52.80217799999994,
                    "velocity": 0.49606299212598426,
                    "duration": 0.23158850000000086
                },
                {
                    "name": "G#3",
                    "midi": 56,
                    "time": 52.80217799999994,
                    "velocity": 0.49606299212598426,
                    "duration": 0.23158850000000086
                },
                {
                    "name": "D#2",
                    "midi": 39,
                    "time": 53.496943499999944,
                    "velocity": 0.4409448818897638,
                    "duration": 0.6947655000000026
                },
                {
                    "name": "D#3",
                    "midi": 51,
                    "time": 53.496943499999944,
                    "velocity": 0.4409448818897638,
                    "duration": 0.9263540000000035
                },
                {
                    "name": "B3",
                    "midi": 59,
                    "time": 53.728531999999944,
                    "velocity": 0.41732283464566927,
                    "duration": 0.11579425000000043
                },
                {
                    "name": "G#3",
                    "midi": 56,
                    "time": 53.728531999999944,
                    "velocity": 0.41732283464566927,
                    "duration": 0.11579425000000043
                },
                {
                    "name": "G3",
                    "midi": 55,
                    "time": 53.844326249999945,
                    "velocity": 0.3858267716535433,
                    "duration": 0.0868456875000021
                },
                {
                    "name": "A#3",
                    "midi": 58,
                    "time": 53.844326249999945,
                    "velocity": 0.3858267716535433,
                    "duration": 0.0868456875000021
                },
                {
                    "name": "G3",
                    "midi": 55,
                    "time": 53.960120499999945,
                    "velocity": 0.3858267716535433,
                    "duration": 0.11579425000000043
                },
                {
                    "name": "A#3",
                    "midi": 58,
                    "time": 53.960120499999945,
                    "velocity": 0.3858267716535433,
                    "duration": 0.11579425000000043
                },
                {
                    "name": "A#3",
                    "midi": 58,
                    "time": 54.075914749999946,
                    "velocity": 0.3858267716535433,
                    "duration": 0.11579425000000043
                },
                {
                    "name": "C#4",
                    "midi": 61,
                    "time": 54.075914749999946,
                    "velocity": 0.3858267716535433,
                    "duration": 0.11579425000000043
                },
                {
                    "name": "G#2",
                    "midi": 44,
                    "time": 54.191708999999946,
                    "velocity": 0.4409448818897638,
                    "duration": 0.23158850000000086
                },
                {
                    "name": "B3",
                    "midi": 59,
                    "time": 54.191708999999946,
                    "velocity": 0.4409448818897638,
                    "duration": 0.23158850000000086
                },
                {
                    "name": "G#3",
                    "midi": 56,
                    "time": 54.191708999999946,
                    "velocity": 0.4409448818897638,
                    "duration": 0.23158850000000086
                },
                {
                    "name": "D#1",
                    "midi": 27,
                    "time": 55.34965149999995,
                    "velocity": 0.6377952755905512,
                    "duration": 0.11579425000000043
                },
                {
                    "name": "D#2",
                    "midi": 39,
                    "time": 55.34965149999995,
                    "velocity": 0.7086614173228346,
                    "duration": 0.11579425000000043
                },
                {
                    "name": "D#3",
                    "midi": 51,
                    "time": 55.34965149999995,
                    "velocity": 0.7795275590551181,
                    "duration": 0.11579425000000043
                },
                {
                    "name": "G#2",
                    "midi": 44,
                    "time": 55.58123999999995,
                    "velocity": 0.7952755905511811,
                    "duration": 0.11579425000000043
                },
                {
                    "name": "G#1",
                    "midi": 32,
                    "time": 55.58123999999995,
                    "velocity": 0.7086614173228346,
                    "duration": 0.11579425000000043
                },
                {
                    "name": "G#3",
                    "midi": 56,
                    "time": 55.58123999999995,
                    "velocity": 0.8661417322834646,
                    "duration": 0.11579425000000043
                }
            ],
            "controlChanges": {
                "7": [
                    {
                        "number": 7,
                        "time": 0,
                        "value": 0.7874015748031497
                    }
                ],
                "10": [
                    {
                        "number": 10,
                        "time": 0,
                        "value": 0.5039370078740157
                    }
                ],
                "64": [
                    {
                        "number": 64,
                        "time": 0,
                        "value": 0
                    },
                    {
                        "number": 64,
                        "time": 0.03087846666666667,
                        "value": 1
                    },
                    {
                        "number": 64,
                        "time": 0.12544377083333333,
                        "value": 0
                    },
                    {
                        "number": 64,
                        "time": 0.24509782916666664,
                        "value": 1
                    },
                    {
                        "number": 64,
                        "time": 0.35703227083333333,
                        "value": 0
                    },
                    {
                        "number": 64,
                        "time": 0.48537089791666665,
                        "value": 1
                    },
                    {
                        "number": 64,
                        "time": 0.5953754354166666,
                        "value": 0
                    },
                    {
                        "number": 64,
                        "time": 0.7111696854166666,
                        "value": 1
                    },
                    {
                        "number": 64,
                        "time": 0.8211742229166665,
                        "value": 0
                    },
                    {
                        "number": 64,
                        "time": 0.9649520833333333,
                        "value": 1
                    },
                    {
                        "number": 64,
                        "time": 1.0556575791666665,
                        "value": 0
                    },
                    {
                        "number": 64,
                        "time": 1.1936457270833332,
                        "value": 1
                    },
                    {
                        "number": 64,
                        "time": 1.2930357916666666,
                        "value": 0
                    },
                    {
                        "number": 64,
                        "time": 1.4252342270833331,
                        "value": 1
                    },
                    {
                        "number": 64,
                        "time": 1.5159397229166665,
                        "value": 0
                    },
                    {
                        "number": 64,
                        "time": 1.6491031104166665,
                        "value": 1
                    },
                    {
                        "number": 64,
                        "time": 1.7504230791666664,
                        "value": 0
                    },
                    {
                        "number": 64,
                        "time": 1.8855163708333331,
                        "value": 1
                    },
                    {
                        "number": 64,
                        "time": 1.9791167229166664,
                        "value": 0
                    },
                    {
                        "number": 64,
                        "time": 2.1035955416666665,
                        "value": 1
                    },
                    {
                        "number": 64,
                        "time": 2.2164949354166663,
                        "value": 0
                    },
                    {
                        "number": 64,
                        "time": 2.3438686104166666,
                        "value": 1
                    },
                    {
                        "number": 64,
                        "time": 2.4442236270833333,
                        "value": 0
                    },
                    {
                        "number": 64,
                        "time": 2.5696673979166667,
                        "value": 1
                    },
                    {
                        "number": 64,
                        "time": 2.6787069833333335,
                        "value": 0
                    },
                    {
                        "number": 64,
                        "time": 2.8031858020833336,
                        "value": 1
                    },
                    {
                        "number": 64,
                        "time": 3.0193350687500007,
                        "value": 0
                    },
                    {
                        "number": 64,
                        "time": 3.0444238229166674,
                        "value": 1
                    },
                    {
                        "number": 64,
                        "time": 3.248028712500001,
                        "value": 0
                    },
                    {
                        "number": 64,
                        "time": 3.2798721312500008,
                        "value": 1
                    },
                    {
                        "number": 64,
                        "time": 3.473827500000001,
                        "value": 0
                    },
                    {
                        "number": 64,
                        "time": 3.5076008229166677,
                        "value": 1
                    },
                    {
                        "number": 64,
                        "time": 3.7150655208333347,
                        "value": 0
                    },
                    {
                        "number": 64,
                        "time": 3.753663604166668,
                        "value": 1
                    },
                    {
                        "number": 64,
                        "time": 3.9447241166666687,
                        "value": 0
                    },
                    {
                        "number": 64,
                        "time": 3.981392295833335,
                        "value": 1
                    },
                    {
                        "number": 64,
                        "time": 4.172452808333335,
                        "value": 0
                    },
                    {
                        "number": 64,
                        "time": 4.209120987500002,
                        "value": 1
                    },
                    {
                        "number": 64,
                        "time": 4.4136908291666685,
                        "value": 0
                    },
                    {
                        "number": 64,
                        "time": 4.4580786250000015,
                        "value": 1
                    },
                    {
                        "number": 64,
                        "time": 4.641419520833335,
                        "value": 0
                    },
                    {
                        "number": 64,
                        "time": 4.6896671250000015,
                        "value": 1
                    },
                    {
                        "number": 64,
                        "time": 4.868183260416668,
                        "value": 0
                    },
                    {
                        "number": 64,
                        "time": 4.901956583333335,
                        "value": 1
                    },
                    {
                        "number": 64,
                        "time": 5.103631568750001,
                        "value": 0
                    },
                    {
                        "number": 64,
                        "time": 5.149949268750001,
                        "value": 1
                    },
                    {
                        "number": 64,
                        "time": 5.335220068750001,
                        "value": 0
                    },
                    {
                        "number": 64,
                        "time": 5.370923295833334,
                        "value": 1
                    },
                    {
                        "number": 64,
                        "time": 5.558124,
                        "value": 0
                    },
                    {
                        "number": 64,
                        "time": 5.618915981250001,
                        "value": 1
                    },
                    {
                        "number": 64,
                        "time": 5.684532722916668,
                        "value": 0
                    },
                    {
                        "number": 64,
                        "time": 5.8032218291666675,
                        "value": 1
                    },
                    {
                        "number": 64,
                        "time": 5.916121222916667,
                        "value": 0
                    },
                    {
                        "number": 64,
                        "time": 6.043494897916667,
                        "value": 1
                    },
                    {
                        "number": 64,
                        "time": 6.149639627083333,
                        "value": 0
                    },
                    {
                        "number": 64,
                        "time": 6.269293685416667,
                        "value": 1
                    },
                    {
                        "number": 64,
                        "time": 6.376403366666667,
                        "value": 0
                    },
                    {
                        "number": 64,
                        "time": 6.523076083333334,
                        "value": 1
                    },
                    {
                        "number": 64,
                        "time": 6.609921770833334,
                        "value": 0
                    },
                    {
                        "number": 64,
                        "time": 6.751769727083334,
                        "value": 1
                    },
                    {
                        "number": 64,
                        "time": 6.842475222916668,
                        "value": 0
                    },
                    {
                        "number": 64,
                        "time": 6.983358227083334,
                        "value": 1
                    },
                    {
                        "number": 64,
                        "time": 7.074063722916668,
                        "value": 0
                    },
                    {
                        "number": 64,
                        "time": 7.207227110416667,
                        "value": 1
                    },
                    {
                        "number": 64,
                        "time": 7.308547079166667,
                        "value": 0
                    },
                    {
                        "number": 64,
                        "time": 7.443640370833333,
                        "value": 1
                    },
                    {
                        "number": 64,
                        "time": 7.537240722916666,
                        "value": 0
                    },
                    {
                        "number": 64,
                        "time": 7.661719541666666,
                        "value": 1
                    },
                    {
                        "number": 64,
                        "time": 7.767864270833333,
                        "value": 0
                    },
                    {
                        "number": 64,
                        "time": 7.9019926104166665,
                        "value": 1
                    },
                    {
                        "number": 64,
                        "time": 8.003312579166666,
                        "value": 0
                    },
                    {
                        "number": 64,
                        "time": 8.127791397916667,
                        "value": 1
                    },
                    {
                        "number": 64,
                        "time": 8.234901079166667,
                        "value": 0
                    },
                    {
                        "number": 64,
                        "time": 8.361309802083333,
                        "value": 1
                    },
                    {
                        "number": 64,
                        "time": 8.573599260416666,
                        "value": 0
                    },
                    {
                        "number": 64,
                        "time": 8.602547822916666,
                        "value": 1
                    },
                    {
                        "number": 64,
                        "time": 8.802292904166666,
                        "value": 0
                    },
                    {
                        "number": 64,
                        "time": 8.83799613125,
                        "value": 1
                    },
                    {
                        "number": 64,
                        "time": 9.0319515,
                        "value": 0
                    },
                    {
                        "number": 64,
                        "time": 9.062829966666667,
                        "value": 1
                    },
                    {
                        "number": 64,
                        "time": 9.268364760416667,
                        "value": 0
                    },
                    {
                        "number": 64,
                        "time": 9.297313322916667,
                        "value": 1
                    },
                    {
                        "number": 64,
                        "time": 9.505742972916666,
                        "value": 0
                    },
                    {
                        "number": 64,
                        "time": 9.532761631249999,
                        "value": 1
                    },
                    {
                        "number": 64,
                        "time": 9.733471664583332,
                        "value": 0
                    },
                    {
                        "number": 64,
                        "time": 9.788473933333332,
                        "value": 1
                    },
                    {
                        "number": 64,
                        "time": 9.965060164583331,
                        "value": 0
                    },
                    {
                        "number": 64,
                        "time": 10.006553104166665,
                        "value": 1
                    },
                    {
                        "number": 64,
                        "time": 10.204368281249998,
                        "value": 0
                    },
                    {
                        "number": 64,
                        "time": 10.244896268749999,
                        "value": 1
                    },
                    {
                        "number": 64,
                        "time": 10.4272722125,
                        "value": 0
                    },
                    {
                        "number": 64,
                        "time": 10.468765152083334,
                        "value": 1
                    },
                    {
                        "number": 64,
                        "time": 10.659825664583334,
                        "value": 0
                    },
                    {
                        "number": 64,
                        "time": 10.686844322916667,
                        "value": 1
                    },
                    {
                        "number": 64,
                        "time": 10.888519308333333,
                        "value": 0
                    },
                    {
                        "number": 64,
                        "time": 10.922292631249999,
                        "value": 1
                    },
                    {
                        "number": 64,
                        "time": 11.123002664583332,
                        "value": 0
                    },
                    {
                        "number": 64,
                        "time": 11.157740939583332,
                        "value": 1
                    },
                    {
                        "number": 64,
                        "time": 11.354591164583333,
                        "value": 0
                    },
                    {
                        "number": 64,
                        "time": 11.381609822916666,
                        "value": 1
                    },
                    {
                        "number": 64,
                        "time": 11.58810956875,
                        "value": 0
                    },
                    {
                        "number": 64,
                        "time": 11.61705813125,
                        "value": 1
                    },
                    {
                        "number": 64,
                        "time": 11.817768164583333,
                        "value": 0
                    },
                    {
                        "number": 64,
                        "time": 11.855401295833333,
                        "value": 1
                    },
                    {
                        "number": 64,
                        "time": 12.047426760416666,
                        "value": 0
                    },
                    {
                        "number": 64,
                        "time": 12.076375322916666,
                        "value": 1
                    },
                    {
                        "number": 64,
                        "time": 12.2799802125,
                        "value": 0
                    },
                    {
                        "number": 64,
                        "time": 12.31182363125,
                        "value": 1
                    },
                    {
                        "number": 64,
                        "time": 12.513498616666666,
                        "value": 0
                    },
                    {
                        "number": 64,
                        "time": 12.539552322916666,
                        "value": 1
                    },
                    {
                        "number": 64,
                        "time": 12.74605206875,
                        "value": 0
                    },
                    {
                        "number": 64,
                        "time": 12.771140822916667,
                        "value": 1
                    },
                    {
                        "number": 64,
                        "time": 12.979570472916667,
                        "value": 0
                    },
                    {
                        "number": 64,
                        "time": 13.00658913125,
                        "value": 1
                    },
                    {
                        "number": 64,
                        "time": 13.20922906875,
                        "value": 0
                    },
                    {
                        "number": 64,
                        "time": 13.239142583333333,
                        "value": 1
                    },
                    {
                        "number": 64,
                        "time": 13.442747472916666,
                        "value": 0
                    },
                    {
                        "number": 64,
                        "time": 13.490030125,
                        "value": 1
                    },
                    {
                        "number": 64,
                        "time": 13.671441116666667,
                        "value": 0
                    },
                    {
                        "number": 64,
                        "time": 13.70135463125,
                        "value": 1
                    },
                    {
                        "number": 64,
                        "time": 13.853817060416667,
                        "value": 0
                    },
                    {
                        "number": 64,
                        "time": 13.945487508333333,
                        "value": 1
                    },
                    {
                        "number": 64,
                        "time": 14.137512972916666,
                        "value": 0
                    },
                    {
                        "number": 64,
                        "time": 14.174181152083332,
                        "value": 1
                    },
                    {
                        "number": 64,
                        "time": 14.362346808333331,
                        "value": 0
                    },
                    {
                        "number": 64,
                        "time": 14.422173837499997,
                        "value": 1
                    },
                    {
                        "number": 64,
                        "time": 14.599725020833331,
                        "value": 0
                    },
                    {
                        "number": 64,
                        "time": 14.637358152083332,
                        "value": 1
                    },
                    {
                        "number": 64,
                        "time": 14.832278472916665,
                        "value": 0
                    },
                    {
                        "number": 64,
                        "time": 14.875701316666664,
                        "value": 1
                    },
                    {
                        "number": 64,
                        "time": 15.063866972916664,
                        "value": 0
                    },
                    {
                        "number": 64,
                        "time": 15.09764029583333,
                        "value": 1
                    },
                    {
                        "number": 64,
                        "time": 15.29449052083333,
                        "value": 0
                    },
                    {
                        "number": 64,
                        "time": 15.33791336458333,
                        "value": 1
                    },
                    {
                        "number": 64,
                        "time": 15.526079020833329,
                        "value": 0
                    },
                    {
                        "number": 64,
                        "time": 15.574326624999996,
                        "value": 1
                    },
                    {
                        "number": 64,
                        "time": 15.755737616666663,
                        "value": 0
                    },
                    {
                        "number": 64,
                        "time": 15.803020268749997,
                        "value": 1
                    },
                    {
                        "number": 64,
                        "time": 15.927499087499998,
                        "value": 0
                    },
                    {
                        "number": 64,
                        "time": 16.02688915208333,
                        "value": 1
                    },
                    {
                        "number": 64,
                        "time": 16.220844520833328,
                        "value": 0
                    },
                    {
                        "number": 64,
                        "time": 16.266197268749995,
                        "value": 1
                    },
                    {
                        "number": 64,
                        "time": 16.45339797291666,
                        "value": 0
                    },
                    {
                        "number": 64,
                        "time": 16.491996056249995,
                        "value": 1
                    },
                    {
                        "number": 64,
                        "time": 16.68209161666666,
                        "value": 0
                    },
                    {
                        "number": 64,
                        "time": 16.721654652083327,
                        "value": 1
                    },
                    {
                        "number": 64,
                        "time": 16.92043478124999,
                        "value": 0
                    },
                    {
                        "number": 64,
                        "time": 16.969647337499993,
                        "value": 1
                    },
                    {
                        "number": 64,
                        "time": 17.15105832916666,
                        "value": 0
                    },
                    {
                        "number": 64,
                        "time": 17.201235837499993,
                        "value": 1
                    },
                    {
                        "number": 64,
                        "time": 17.38264682916666,
                        "value": 0
                    },
                    {
                        "number": 64,
                        "time": 17.416420152083326,
                        "value": 1
                    },
                    {
                        "number": 64,
                        "time": 17.60941056874999,
                        "value": 0
                    },
                    {
                        "number": 64,
                        "time": 17.65862312499999,
                        "value": 1
                    },
                    {
                        "number": 64,
                        "time": 17.841964020833323,
                        "value": 0
                    },
                    {
                        "number": 64,
                        "time": 17.89310648124999,
                        "value": 1
                    },
                    {
                        "number": 64,
                        "time": 18.01179558749999,
                        "value": 0
                    },
                    {
                        "number": 64,
                        "time": 18.06390299999999,
                        "value": 1
                    },
                    {
                        "number": 64,
                        "time": 18.30707092499999,
                        "value": 0
                    },
                    {
                        "number": 64,
                        "time": 18.348563864583323,
                        "value": 1
                    },
                    {
                        "number": 64,
                        "time": 18.53576456874999,
                        "value": 0
                    },
                    {
                        "number": 64,
                        "time": 18.58208226874999,
                        "value": 1
                    },
                    {
                        "number": 64,
                        "time": 18.720070416666655,
                        "value": 0
                    },
                    {
                        "number": 64,
                        "time": 18.813670768749986,
                        "value": 1
                    },
                    {
                        "number": 64,
                        "time": 18.996046712499986,
                        "value": 0
                    },
                    {
                        "number": 64,
                        "time": 19.03464479583332,
                        "value": 1
                    },
                    {
                        "number": 64,
                        "time": 19.233424924999987,
                        "value": 0
                    },
                    {
                        "number": 64,
                        "time": 19.288427193749985,
                        "value": 1
                    },
                    {
                        "number": 64,
                        "time": 19.401326587499987,
                        "value": 0
                    },
                    {
                        "number": 64,
                        "time": 19.481417610416653,
                        "value": 1
                    },
                    {
                        "number": 64,
                        "time": 19.69467202083332,
                        "value": 0
                    },
                    {
                        "number": 64,
                        "time": 19.73230515208332,
                        "value": 1
                    },
                    {
                        "number": 64,
                        "time": 19.92626052083332,
                        "value": 0
                    },
                    {
                        "number": 64,
                        "time": 19.974508124999986,
                        "value": 1
                    },
                    {
                        "number": 64,
                        "time": 20.15495416458332,
                        "value": 0
                    },
                    {
                        "number": 64,
                        "time": 20.189692439583318,
                        "value": 1
                    },
                    {
                        "number": 64,
                        "time": 20.393297329166653,
                        "value": 0
                    },
                    {
                        "number": 64,
                        "time": 20.41838608333332,
                        "value": 1
                    },
                    {
                        "number": 64,
                        "time": 20.605586787499988,
                        "value": 0
                    },
                    {
                        "number": 64,
                        "time": 20.647079727083323,
                        "value": 1
                    },
                    {
                        "number": 64,
                        "time": 20.77445340208332,
                        "value": 0
                    },
                    {
                        "number": 64,
                        "time": 20.868053754166656,
                        "value": 1
                    },
                    {
                        "number": 64,
                        "time": 21.082273116666656,
                        "value": 0
                    },
                    {
                        "number": 64,
                        "time": 21.124731008333324,
                        "value": 1
                    },
                    {
                        "number": 64,
                        "time": 21.31193171249999,
                        "value": 0
                    },
                    {
                        "number": 64,
                        "time": 21.359214364583323,
                        "value": 1
                    },
                    {
                        "number": 64,
                        "time": 21.54641506874999,
                        "value": 0
                    },
                    {
                        "number": 64,
                        "time": 21.579223439583323,
                        "value": 1
                    },
                    {
                        "number": 64,
                        "time": 21.78282832916666,
                        "value": 0
                    },
                    {
                        "number": 64,
                        "time": 21.807917083333326,
                        "value": 1
                    },
                    {
                        "number": 64,
                        "time": 22.004767308333328,
                        "value": 0
                    },
                    {
                        "number": 64,
                        "time": 22.03661072708333,
                        "value": 1
                    },
                    {
                        "number": 64,
                        "time": 22.242145520833326,
                        "value": 0
                    },
                    {
                        "number": 64,
                        "time": 22.287498268749992,
                        "value": 1
                    },
                    {
                        "number": 64,
                        "time": 22.473734020833323,
                        "value": 0
                    },
                    {
                        "number": 64,
                        "time": 22.532596097916656,
                        "value": 1
                    },
                    {
                        "number": 64,
                        "time": 22.704357568749987,
                        "value": 0
                    },
                    {
                        "number": 64,
                        "time": 22.75742993333332,
                        "value": 1
                    },
                    {
                        "number": 64,
                        "time": 22.93112130833332,
                        "value": 0
                    },
                    {
                        "number": 64,
                        "time": 22.961034822916655,
                        "value": 1
                    },
                    {
                        "number": 64,
                        "time": 23.16753456874999,
                        "value": 0
                    },
                    {
                        "number": 64,
                        "time": 23.189728466666654,
                        "value": 1
                    },
                    {
                        "number": 64,
                        "time": 23.40008802083332,
                        "value": 0
                    },
                    {
                        "number": 64,
                        "time": 23.44158096041665,
                        "value": 1
                    },
                    {
                        "number": 64,
                        "time": 23.631676520833317,
                        "value": 0
                    },
                    {
                        "number": 64,
                        "time": 23.67316946041665,
                        "value": 1
                    },
                    {
                        "number": 64,
                        "time": 23.863265020833314,
                        "value": 0
                    },
                    {
                        "number": 64,
                        "time": 23.904757960416646,
                        "value": 1
                    },
                    {
                        "number": 64,
                        "time": 24.09485352083331,
                        "value": 0
                    },
                    {
                        "number": 64,
                        "time": 24.136346460416643,
                        "value": 1
                    },
                    {
                        "number": 64,
                        "time": 24.32644202083331,
                        "value": 0
                    },
                    {
                        "number": 64,
                        "time": 24.36793496041664,
                        "value": 1
                    },
                    {
                        "number": 64,
                        "time": 24.558030520833306,
                        "value": 0
                    },
                    {
                        "number": 64,
                        "time": 24.599523460416638,
                        "value": 1
                    },
                    {
                        "number": 64,
                        "time": 24.789619020833303,
                        "value": 0
                    },
                    {
                        "number": 64,
                        "time": 24.831111960416635,
                        "value": 1
                    },
                    {
                        "number": 64,
                        "time": 25.022172472916637,
                        "value": 0
                    },
                    {
                        "number": 64,
                        "time": 25.04533132291664,
                        "value": 1
                    },
                    {
                        "number": 64,
                        "time": 25.257620781249972,
                        "value": 0
                    },
                    {
                        "number": 64,
                        "time": 25.29814876874997,
                        "value": 1
                    },
                    {
                        "number": 64,
                        "time": 25.488244329166637,
                        "value": 0
                    },
                    {
                        "number": 64,
                        "time": 25.53263212499997,
                        "value": 1
                    },
                    {
                        "number": 64,
                        "time": 25.713078164583305,
                        "value": 0
                    },
                    {
                        "number": 64,
                        "time": 25.740096822916637,
                        "value": 1
                    },
                    {
                        "number": 64,
                        "time": 25.953351233333304,
                        "value": 0
                    },
                    {
                        "number": 64,
                        "time": 25.973615227083304,
                        "value": 1
                    },
                    {
                        "number": 64,
                        "time": 26.183009829166636,
                        "value": 0
                    },
                    {
                        "number": 64,
                        "time": 26.213888295833303,
                        "value": 1
                    },
                    {
                        "number": 64,
                        "time": 26.41170347291664,
                        "value": 0
                    },
                    {
                        "number": 64,
                        "time": 26.43486232291664,
                        "value": 1
                    },
                    {
                        "number": 64,
                        "time": 26.642327020833307,
                        "value": 0
                    },
                    {
                        "number": 64,
                        "time": 26.69057462499997,
                        "value": 1
                    },
                    {
                        "number": 64,
                        "time": 26.873915520833304,
                        "value": 0
                    },
                    {
                        "number": 64,
                        "time": 26.911548652083304,
                        "value": 1
                    },
                    {
                        "number": 64,
                        "time": 27.106468972916637,
                        "value": 0
                    },
                    {
                        "number": 64,
                        "time": 27.12962782291664,
                        "value": 1
                    },
                    {
                        "number": 64,
                        "time": 27.341917281249973,
                        "value": 0
                    },
                    {
                        "number": 64,
                        "time": 27.39595459791664,
                        "value": 1
                    },
                    {
                        "number": 64,
                        "time": 27.572540829166638,
                        "value": 0
                    },
                    {
                        "number": 64,
                        "time": 27.61692862499997,
                        "value": 1
                    },
                    {
                        "number": 64,
                        "time": 27.750092012499973,
                        "value": 0
                    },
                    {
                        "number": 64,
                        "time": 27.79351485624997,
                        "value": 1
                    },
                    {
                        "number": 64,
                        "time": 27.916063770833304,
                        "value": 0
                    },
                    {
                        "number": 64,
                        "time": 28.035717829166636,
                        "value": 1
                    },
                    {
                        "number": 64,
                        "time": 28.151512079166636,
                        "value": 0
                    },
                    {
                        "number": 64,
                        "time": 28.275990897916635,
                        "value": 1
                    },
                    {
                        "number": 64,
                        "time": 28.379240770833302,
                        "value": 0
                    },
                    {
                        "number": 64,
                        "time": 28.501789685416636,
                        "value": 1
                    },
                    {
                        "number": 64,
                        "time": 28.616618983333304,
                        "value": 0
                    },
                    {
                        "number": 64,
                        "time": 28.755572083333305,
                        "value": 1
                    },
                    {
                        "number": 64,
                        "time": 28.84627757916664,
                        "value": 0
                    },
                    {
                        "number": 64,
                        "time": 28.984265727083308,
                        "value": 1
                    },
                    {
                        "number": 64,
                        "time": 29.079795983333305,
                        "value": 0
                    },
                    {
                        "number": 64,
                        "time": 29.215854227083305,
                        "value": 1
                    },
                    {
                        "number": 64,
                        "time": 29.310419531249973,
                        "value": 0
                    },
                    {
                        "number": 64,
                        "time": 29.43972311041664,
                        "value": 1
                    },
                    {
                        "number": 64,
                        "time": 29.537183270833307,
                        "value": 0
                    },
                    {
                        "number": 64,
                        "time": 29.676136370833305,
                        "value": 1
                    },
                    {
                        "number": 64,
                        "time": 29.76973672291664,
                        "value": 0
                    },
                    {
                        "number": 64,
                        "time": 29.89421554166664,
                        "value": 1
                    },
                    {
                        "number": 64,
                        "time": 30.005185031249972,
                        "value": 0
                    },
                    {
                        "number": 64,
                        "time": 30.13448861041664,
                        "value": 1
                    },
                    {
                        "number": 64,
                        "time": 30.234843627083308,
                        "value": 0
                    },
                    {
                        "number": 64,
                        "time": 30.36028739791664,
                        "value": 1
                    },
                    {
                        "number": 64,
                        "time": 30.46739707916664,
                        "value": 0
                    },
                    {
                        "number": 64,
                        "time": 30.600560466666643,
                        "value": 1
                    },
                    {
                        "number": 64,
                        "time": 30.815744781249975,
                        "value": 0
                    },
                    {
                        "number": 64,
                        "time": 30.84855315208331,
                        "value": 1
                    },
                    {
                        "number": 64,
                        "time": 31.04250852083331,
                        "value": 0
                    },
                    {
                        "number": 64,
                        "time": 31.070492131249974,
                        "value": 1
                    },
                    {
                        "number": 64,
                        "time": 31.26830730833331,
                        "value": 0
                    },
                    {
                        "number": 64,
                        "time": 31.298220822916644,
                        "value": 1
                    },
                    {
                        "number": 64,
                        "time": 31.506650472916647,
                        "value": 0
                    },
                    {
                        "number": 64,
                        "time": 31.547178460416646,
                        "value": 1
                    },
                    {
                        "number": 64,
                        "time": 31.734379164583313,
                        "value": 0
                    },
                    {
                        "number": 64,
                        "time": 31.772012295833314,
                        "value": 1
                    },
                    {
                        "number": 64,
                        "time": 31.92157986874998,
                        "value": 0
                    },
                    {
                        "number": 64,
                        "time": 31.99974098749998,
                        "value": 1
                    },
                    {
                        "number": 64,
                        "time": 32.20045102083331,
                        "value": 0
                    },
                    {
                        "number": 64,
                        "time": 32.23904910416665,
                        "value": 1
                    },
                    {
                        "number": 64,
                        "time": 32.42914466458331,
                        "value": 0
                    },
                    {
                        "number": 64,
                        "time": 32.47063760416665,
                        "value": 1
                    },
                    {
                        "number": 64,
                        "time": 32.65397849999998,
                        "value": 0
                    },
                    {
                        "number": 64,
                        "time": 32.69257658333331,
                        "value": 1
                    },
                    {
                        "number": 64,
                        "time": 32.89425156874997,
                        "value": 0
                    },
                    {
                        "number": 64,
                        "time": 32.940569268749975,
                        "value": 1
                    },
                    {
                        "number": 64,
                        "time": 33.12680502083331,
                        "value": 0
                    },
                    {
                        "number": 64,
                        "time": 33.16733300833331,
                        "value": 1
                    },
                    {
                        "number": 64,
                        "time": 33.30725106041665,
                        "value": 0
                    },
                    {
                        "number": 64,
                        "time": 33.37865751458332,
                        "value": 1
                    },
                    {
                        "number": 64,
                        "time": 33.47804757916665,
                        "value": 0
                    },
                    {
                        "number": 64,
                        "time": 33.59384182916664,
                        "value": 1
                    },
                    {
                        "number": 64,
                        "time": 33.70963607916664,
                        "value": 0
                    },
                    {
                        "number": 64,
                        "time": 33.83411489791664,
                        "value": 1
                    },
                    {
                        "number": 64,
                        "time": 33.93832972291664,
                        "value": 0
                    },
                    {
                        "number": 64,
                        "time": 34.059913685416646,
                        "value": 1
                    },
                    {
                        "number": 64,
                        "time": 34.16991822291664,
                        "value": 0
                    },
                    {
                        "number": 64,
                        "time": 34.313696083333305,
                        "value": 1
                    },
                    {
                        "number": 64,
                        "time": 34.40054177083331,
                        "value": 0
                    },
                    {
                        "number": 64,
                        "time": 34.542389727083304,
                        "value": 1
                    },
                    {
                        "number": 64,
                        "time": 34.63695503124997,
                        "value": 0
                    },
                    {
                        "number": 64,
                        "time": 34.7739782270833,
                        "value": 1
                    },
                    {
                        "number": 64,
                        "time": 34.871438387499964,
                        "value": 0
                    },
                    {
                        "number": 64,
                        "time": 34.99784711041663,
                        "value": 1
                    },
                    {
                        "number": 64,
                        "time": 35.10495679166662,
                        "value": 0
                    },
                    {
                        "number": 64,
                        "time": 35.23426037083329,
                        "value": 1
                    },
                    {
                        "number": 64,
                        "time": 35.327860722916625,
                        "value": 0
                    },
                    {
                        "number": 64,
                        "time": 35.452339541666625,
                        "value": 1
                    },
                    {
                        "number": 64,
                        "time": 35.55848427083329,
                        "value": 0
                    },
                    {
                        "number": 64,
                        "time": 35.692612610416624,
                        "value": 1
                    },
                    {
                        "number": 64,
                        "time": 35.79393257916662,
                        "value": 0
                    },
                    {
                        "number": 64,
                        "time": 35.91841139791662,
                        "value": 1
                    },
                    {
                        "number": 64,
                        "time": 36.02552107916662,
                        "value": 0
                    },
                    {
                        "number": 64,
                        "time": 36.15192980208329,
                        "value": 1
                    },
                    {
                        "number": 64,
                        "time": 36.36711411666663,
                        "value": 0
                    },
                    {
                        "number": 64,
                        "time": 36.39316782291663,
                        "value": 1
                    },
                    {
                        "number": 64,
                        "time": 36.599667568749965,
                        "value": 0
                    },
                    {
                        "number": 64,
                        "time": 36.659494597916634,
                        "value": 1
                    },
                    {
                        "number": 64,
                        "time": 36.8322210208333,
                        "value": 0
                    },
                    {
                        "number": 64,
                        "time": 36.85730977499997,
                        "value": 1
                    },
                    {
                        "number": 64,
                        "time": 37.0638095208333,
                        "value": 0
                    },
                    {
                        "number": 64,
                        "time": 37.118811789583305,
                        "value": 1
                    },
                    {
                        "number": 64,
                        "time": 37.295398020833304,
                        "value": 0
                    },
                    {
                        "number": 64,
                        "time": 37.32338163124997,
                        "value": 1
                    },
                    {
                        "number": 64,
                        "time": 37.523126712499966,
                        "value": 0
                    },
                    {
                        "number": 64,
                        "time": 37.554970131249966,
                        "value": 1
                    },
                    {
                        "number": 64,
                        "time": 37.75664511666664,
                        "value": 0
                    },
                    {
                        "number": 64,
                        "time": 37.78269882291664,
                        "value": 1
                    },
                    {
                        "number": 64,
                        "time": 37.98823361666664,
                        "value": 0
                    },
                    {
                        "number": 64,
                        "time": 38.018147131249975,
                        "value": 1
                    },
                    {
                        "number": 64,
                        "time": 38.22078706874997,
                        "value": 0
                    },
                    {
                        "number": 64,
                        "time": 38.24973563124997,
                        "value": 1
                    },
                    {
                        "number": 64,
                        "time": 38.450445664583306,
                        "value": 0
                    },
                    {
                        "number": 64,
                        "time": 38.47746432291664,
                        "value": 1
                    },
                    {
                        "number": 64,
                        "time": 38.686858924999974,
                        "value": 0
                    },
                    {
                        "number": 64,
                        "time": 38.71291263124998,
                        "value": 1
                    },
                    {
                        "number": 64,
                        "time": 38.919412377083304,
                        "value": 0
                    },
                    {
                        "number": 64,
                        "time": 38.94450113124997,
                        "value": 1
                    },
                    {
                        "number": 64,
                        "time": 39.146176116666645,
                        "value": 0
                    },
                    {
                        "number": 64,
                        "time": 39.17222982291665,
                        "value": 1
                    },
                    {
                        "number": 64,
                        "time": 39.37969452083332,
                        "value": 0
                    },
                    {
                        "number": 64,
                        "time": 39.44145145416665,
                        "value": 1
                    },
                    {
                        "number": 64,
                        "time": 39.612247972916656,
                        "value": 0
                    },
                    {
                        "number": 64,
                        "time": 39.63926663124999,
                        "value": 1
                    },
                    {
                        "number": 64,
                        "time": 39.83901171249999,
                        "value": 0
                    },
                    {
                        "number": 64,
                        "time": 39.86699532291666,
                        "value": 1
                    },
                    {
                        "number": 64,
                        "time": 40.07446002083333,
                        "value": 0
                    },
                    {
                        "number": 64,
                        "time": 40.10244363125,
                        "value": 1
                    },
                    {
                        "number": 64,
                        "time": 40.3021887125,
                        "value": 0
                    },
                    {
                        "number": 64,
                        "time": 40.33403213125,
                        "value": 1
                    },
                    {
                        "number": 64,
                        "time": 41.002743925,
                        "value": 0
                    },
                    {
                        "number": 64,
                        "time": 41.02493782291666,
                        "value": 1
                    },
                    {
                        "number": 64,
                        "time": 41.63189268333333,
                        "value": 0
                    },
                    {
                        "number": 64,
                        "time": 41.692684664583325,
                        "value": 1
                    },
                    {
                        "number": 64,
                        "time": 41.81233872291666,
                        "value": 0
                    },
                    {
                        "number": 64,
                        "time": 41.937782493749985,
                        "value": 1
                    },
                    {
                        "number": 64,
                        "time": 42.04682207916665,
                        "value": 0
                    },
                    {
                        "number": 64,
                        "time": 42.17998546666664,
                        "value": 1
                    },
                    {
                        "number": 64,
                        "time": 42.274550770833315,
                        "value": 0
                    },
                    {
                        "number": 64,
                        "time": 42.38745016458331,
                        "value": 1
                    },
                    {
                        "number": 64,
                        "time": 42.507104222916645,
                        "value": 0
                    },
                    {
                        "number": 64,
                        "time": 42.632547993749974,
                        "value": 1
                    },
                    {
                        "number": 64,
                        "time": 42.740622627083305,
                        "value": 0
                    },
                    {
                        "number": 64,
                        "time": 42.87475096666663,
                        "value": 1
                    },
                    {
                        "number": 64,
                        "time": 42.97124617499997,
                        "value": 0
                    },
                    {
                        "number": 64,
                        "time": 43.0822156645833,
                        "value": 1
                    },
                    {
                        "number": 64,
                        "time": 43.20186972291663,
                        "value": 0
                    },
                    {
                        "number": 64,
                        "time": 43.32731349374996,
                        "value": 1
                    },
                    {
                        "number": 64,
                        "time": 43.434423174999964,
                        "value": 0
                    },
                    {
                        "number": 64,
                        "time": 43.56951646666663,
                        "value": 1
                    },
                    {
                        "number": 64,
                        "time": 43.6640817708333,
                        "value": 0
                    },
                    {
                        "number": 64,
                        "time": 44.7264940145833,
                        "value": 1
                    },
                    {
                        "number": 64,
                        "time": 44.8191294145833,
                        "value": 0
                    },
                    {
                        "number": 64,
                        "time": 44.941678329166635,
                        "value": 1
                    },
                    {
                        "number": 64,
                        "time": 45.05457772291663,
                        "value": 0
                    },
                    {
                        "number": 64,
                        "time": 45.193530822916635,
                        "value": 1
                    },
                    {
                        "number": 64,
                        "time": 45.2880961270833,
                        "value": 0
                    },
                    {
                        "number": 64,
                        "time": 45.4212595145833,
                        "value": 1
                    },
                    {
                        "number": 64,
                        "time": 45.5138949145833,
                        "value": 0
                    },
                    {
                        "number": 64,
                        "time": 45.63644382916663,
                        "value": 1
                    },
                    {
                        "number": 64,
                        "time": 45.74741331874996,
                        "value": 0
                    },
                    {
                        "number": 64,
                        "time": 45.88829632291663,
                        "value": 1
                    },
                    {
                        "number": 64,
                        "time": 45.98093172291663,
                        "value": 0
                    },
                    {
                        "number": 64,
                        "time": 46.1160250145833,
                        "value": 1
                    },
                    {
                        "number": 64,
                        "time": 46.2115552708333,
                        "value": 0
                    },
                    {
                        "number": 64,
                        "time": 46.33120932916663,
                        "value": 1
                    },
                    {
                        "number": 64,
                        "time": 46.44507367499996,
                        "value": 0
                    },
                    {
                        "number": 64,
                        "time": 46.583061822916626,
                        "value": 1
                    },
                    {
                        "number": 64,
                        "time": 46.676662174999954,
                        "value": 0
                    },
                    {
                        "number": 64,
                        "time": 46.81079051458329,
                        "value": 1
                    },
                    {
                        "number": 64,
                        "time": 46.91018057916663,
                        "value": 0
                    },
                    {
                        "number": 64,
                        "time": 47.02597482916663,
                        "value": 1
                    },
                    {
                        "number": 64,
                        "time": 47.13887422291663,
                        "value": 0
                    },
                    {
                        "number": 64,
                        "time": 47.27782732291663,
                        "value": 1
                    },
                    {
                        "number": 64,
                        "time": 47.386866908333296,
                        "value": 0
                    },
                    {
                        "number": 64,
                        "time": 47.5055560145833,
                        "value": 1
                    },
                    {
                        "number": 64,
                        "time": 47.6010862708333,
                        "value": 0
                    },
                    {
                        "number": 64,
                        "time": 47.72074032916663,
                        "value": 1
                    },
                    {
                        "number": 64,
                        "time": 47.83363972291663,
                        "value": 0
                    },
                    {
                        "number": 64,
                        "time": 47.97259282291663,
                        "value": 1
                    },
                    {
                        "number": 64,
                        "time": 48.064263270833294,
                        "value": 0
                    },
                    {
                        "number": 64,
                        "time": 48.200321514583294,
                        "value": 1
                    },
                    {
                        "number": 64,
                        "time": 48.295851770833295,
                        "value": 0
                    },
                    {
                        "number": 64,
                        "time": 48.41550582916663,
                        "value": 1
                    },
                    {
                        "number": 64,
                        "time": 48.52744027083329,
                        "value": 0
                    },
                    {
                        "number": 64,
                        "time": 48.66735832291662,
                        "value": 1
                    },
                    {
                        "number": 64,
                        "time": 48.75902877083328,
                        "value": 0
                    },
                    {
                        "number": 64,
                        "time": 48.89508701458328,
                        "value": 1
                    },
                    {
                        "number": 64,
                        "time": 48.99061727083328,
                        "value": 0
                    },
                    {
                        "number": 64,
                        "time": 49.110271329166615,
                        "value": 1
                    },
                    {
                        "number": 64,
                        "time": 49.22220577083328,
                        "value": 0
                    },
                    {
                        "number": 64,
                        "time": 49.36212382291661,
                        "value": 1
                    },
                    {
                        "number": 64,
                        "time": 49.45379427083327,
                        "value": 0
                    },
                    {
                        "number": 64,
                        "time": 49.58985251458327,
                        "value": 1
                    },
                    {
                        "number": 64,
                        "time": 49.68538277083327,
                        "value": 0
                    },
                    {
                        "number": 64,
                        "time": 49.83302043958327,
                        "value": 1
                    },
                    {
                        "number": 64,
                        "time": 49.99899219791661,
                        "value": 0
                    },
                    {
                        "number": 64,
                        "time": 50.081013124999934,
                        "value": 1
                    },
                    {
                        "number": 64,
                        "time": 50.25856430833327,
                        "value": 0
                    },
                    {
                        "number": 64,
                        "time": 50.71788149999993,
                        "value": 1
                    },
                    {
                        "number": 64,
                        "time": 50.957189616666604,
                        "value": 0
                    },
                    {
                        "number": 64,
                        "time": 52.16241476874994,
                        "value": 1
                    },
                    {
                        "number": 64,
                        "time": 52.34672061666661,
                        "value": 0
                    },
                    {
                        "number": 64,
                        "time": 53.58571909166661,
                        "value": 1
                    },
                    {
                        "number": 64,
                        "time": 53.736251616666614,
                        "value": 0
                    },
                    {
                        "number": 64,
                        "time": 55.356406164583284,
                        "value": 1
                    },
                    {
                        "number": 64,
                        "time": 55.46544574999995,
                        "value": 0
                    },
                    {
                        "number": 64,
                        "time": 55.61501332291662,
                        "value": 1
                    },
                    {
                        "number": 64,
                        "time": 55.71729824374995,
                        "value": 0
                    }
                ],
                "91": [
                    {
                        "number": 91,
                        "time": 0,
                        "value": 1
                    }
                ]
            },
            "id": 2,
            "name": "Piano left",
            "instrumentNumber": 0,
            "instrument": "acoustic grand piano",
            "instrumentFamily": "piano",
            "channelNumber": 0,
            "isPercussion": false
        },
        {
            "startTime": 0,
            "duration": 0,
            "length": 0,
            "notes": [],
            "controlChanges": {},
            "id": 3,
            "name": "Chopin: Prelude No.12 in G# Minor, Op. 28"
        },
        {
            "startTime": 0,
            "duration": 0,
            "length": 0,
            "notes": [],
            "controlChanges": {},
            "id": 4,
            "name": "Copyright  2002 by Bernd Krueger"
        },
        {
            "startTime": 0,
            "duration": 0,
            "length": 0,
            "notes": [],
            "controlChanges": {},
            "id": 5,
            "name": "http://www.piano-midi.de"
        },
        {
            "startTime": 0,
            "duration": 0,
            "length": 0,
            "notes": [],
            "controlChanges": {},
            "id": 6,
            "name": "Edition: 2014-02-20"
        },
        {
            "startTime": 0,
            "duration": 0,
            "length": 0,
            "notes": [],
            "controlChanges": {
                "7": [
                    {
                        "number": 7,
                        "time": 0,
                        "value": 1
                    }
                ],
                "10": [
                    {
                        "number": 10,
                        "time": 0,
                        "value": 0.5039370078740157
                    }
                ]
            },
            "id": 7,
            "name": "Spur 7"
        },
        {
            "startTime": 0,
            "duration": 0,
            "length": 0,
            "notes": [],
            "controlChanges": {
                "7": [
                    {
                        "number": 7,
                        "time": 0,
                        "value": 1
                    }
                ],
                "10": [
                    {
                        "number": 10,
                        "time": 0,
                        "value": 0.5039370078740157
                    }
                ]
            },
            "id": 8,
            "name": "Spur 8"
        }
    ]
}