{
    "header": {
        "PPQ": 480,
        "timeSignature": [
            3,
            4
        ],
        "bpm": 84.50002042083827,
        "name": "Chopin Prelude  No. 21, Opus 28"
    },
    "startTime": 0,
    "duration": 125.68044300000015,
    "tracks": [
        {
            "startTime": 0,
            "duration": 0,
            "length": 0,
            "notes": [],
            "controlChanges": {},
            "id": 0,
            "name": "Chopin Prelude  No. 21, Opus 28"
        },
        {
            "startTime": 0,
            "duration": 125.68044300000011,
            "length": 320,
            "notes": [
                {
                    "name": "F5",
                    "midi": 77,
                    "time": 0,
                    "velocity": 0.4094488188976378,
                    "duration": 2.1301769999999998
                },
                {
                    "name": "D5",
                    "midi": 74,
                    "time": 2.1301769999999998,
                    "velocity": 0.4094488188976378,
                    "duration": 1.301774833333333
                },
                {
                    "name": "F5",
                    "midi": 77,
                    "time": 3.4319518333333328,
                    "velocity": 0.41732283464566927,
                    "duration": 0.14792895833333342
                },
                {
                    "name": "D#5",
                    "midi": 75,
                    "time": 3.5502949999999993,
                    "velocity": 0.4645669291338583,
                    "duration": 0.7100590000000002
                },
                {
                    "name": "D5",
                    "midi": 74,
                    "time": 4.2603539999999995,
                    "velocity": 0.4330708661417323,
                    "duration": 2.1301769999999998
                },
                {
                    "name": "G4",
                    "midi": 67,
                    "time": 6.390530999999999,
                    "velocity": 0.4094488188976378,
                    "duration": 1.4201180000000004
                },
                {
                    "name": "A4",
                    "midi": 69,
                    "time": 8.520707999999999,
                    "velocity": 0.44881889763779526,
                    "duration": 0.7100589999999993
                },
                {
                    "name": "D#5",
                    "midi": 75,
                    "time": 9.230766999999998,
                    "velocity": 0.4566929133858268,
                    "duration": 0.7100589999999993
                },
                {
                    "name": "D#5",
                    "midi": 75,
                    "time": 9.940825999999998,
                    "velocity": 0.4409448818897638,
                    "duration": 0.7100589999999993
                },
                {
                    "name": "D#5",
                    "midi": 75,
                    "time": 10.650884999999997,
                    "velocity": 0.4566929133858268,
                    "duration": 0.6213016249999992
                },
                {
                    "name": "D#5",
                    "midi": 75,
                    "time": 11.183429249999996,
                    "velocity": 0.3858267716535433,
                    "duration": 0.08875737500000014
                },
                {
                    "name": "F5",
                    "midi": 77,
                    "time": 11.242600833333329,
                    "velocity": 0.4015748031496063,
                    "duration": 0.08875737500000191
                },
                {
                    "name": "D#5",
                    "midi": 75,
                    "time": 11.301772416666664,
                    "velocity": 0.4251968503937008,
                    "duration": 0.08875737500000191
                },
                {
                    "name": "D5",
                    "midi": 74,
                    "time": 11.360943999999998,
                    "velocity": 0.4330708661417323,
                    "duration": 0.7100590000000011
                },
                {
                    "name": "D#5",
                    "midi": 75,
                    "time": 12.071003,
                    "velocity": 0.4409448818897638,
                    "duration": 0.7100589999999993
                },
                {
                    "name": "G5",
                    "midi": 79,
                    "time": 12.781061999999999,
                    "velocity": 0.44881889763779526,
                    "duration": 1.9526622499999995
                },
                {
                    "name": "F5",
                    "midi": 77,
                    "time": 14.733724249999998,
                    "velocity": 0.3779527559055118,
                    "duration": 0.17751475000000028
                },
                {
                    "name": "D5",
                    "midi": 74,
                    "time": 14.911238999999998,
                    "velocity": 0.4094488188976378,
                    "duration": 1.4201179999999987
                },
                {
                    "name": "A#5",
                    "midi": 82,
                    "time": 17.041415999999998,
                    "velocity": 0.5511811023622047,
                    "duration": 2.1301769999999998
                },
                {
                    "name": "A#4",
                    "midi": 70,
                    "time": 19.171592999999998,
                    "velocity": 0.48031496062992124,
                    "duration": 1.9526622499999995
                },
                {
                    "name": "A#4",
                    "midi": 70,
                    "time": 21.124255249999997,
                    "velocity": 0.4251968503937008,
                    "duration": 0.17751475000000028
                },
                {
                    "name": "G5",
                    "midi": 79,
                    "time": 21.301769999999998,
                    "velocity": 0.5196850393700787,
                    "duration": 2.1301769999999998
                },
                {
                    "name": "G4",
                    "midi": 67,
                    "time": 23.431946999999997,
                    "velocity": 0.47244094488188976,
                    "duration": 0.3461537624999984
                },
                {
                    "name": "G4",
                    "midi": 67,
                    "time": 23.786976499999994,
                    "velocity": 0.3858267716535433,
                    "duration": 0.0710058999999994
                },
                {
                    "name": "A4",
                    "midi": 69,
                    "time": 23.857982399999994,
                    "velocity": 0.3858267716535433,
                    "duration": 0.0710058999999994
                },
                {
                    "name": "G4",
                    "midi": 67,
                    "time": 23.928988299999993,
                    "velocity": 0.3858267716535433,
                    "duration": 0.0710058999999994
                },
                {
                    "name": "F#4",
                    "midi": 66,
                    "time": 23.999994199999993,
                    "velocity": 0.3858267716535433,
                    "duration": 0.0710058999999994
                },
                {
                    "name": "G4",
                    "midi": 67,
                    "time": 24.071000099999992,
                    "velocity": 0.4015748031496063,
                    "duration": 0.0710058999999994
                },
                {
                    "name": "D#5",
                    "midi": 75,
                    "time": 24.14200599999999,
                    "velocity": 0.44881889763779526,
                    "duration": 0.7100590000000011
                },
                {
                    "name": "C5",
                    "midi": 72,
                    "time": 24.852064999999993,
                    "velocity": 0.4330708661417323,
                    "duration": 0.7100590000000011
                },
                {
                    "name": "A4",
                    "midi": 69,
                    "time": 25.562123999999994,
                    "velocity": 0.4330708661417323,
                    "duration": 0.35502950000000055
                },
                {
                    "name": "F5",
                    "midi": 77,
                    "time": 25.917153499999994,
                    "velocity": 0.3937007874015748,
                    "duration": 0.35502950000000055
                },
                {
                    "name": "D6",
                    "midi": 86,
                    "time": 25.917153499999994,
                    "velocity": 0.49606299212598426,
                    "duration": 0.35502950000000055
                },
                {
                    "name": "G5",
                    "midi": 79,
                    "time": 26.272182999999995,
                    "velocity": 0.47244094488188976,
                    "duration": 0.35502950000000055
                },
                {
                    "name": "E5",
                    "midi": 76,
                    "time": 26.272182999999995,
                    "velocity": 0.3779527559055118,
                    "duration": 0.35502950000000055
                },
                {
                    "name": "A5",
                    "midi": 81,
                    "time": 26.627212499999995,
                    "velocity": 0.4566929133858268,
                    "duration": 0.35502950000000055
                },
                {
                    "name": "D#5",
                    "midi": 75,
                    "time": 26.627212499999995,
                    "velocity": 0.36220472440944884,
                    "duration": 0.35502950000000055
                },
                {
                    "name": "D5",
                    "midi": 74,
                    "time": 26.982241999999996,
                    "velocity": 0.3464566929133858,
                    "duration": 0.35502950000000055
                },
                {
                    "name": "A#5",
                    "midi": 82,
                    "time": 26.982241999999996,
                    "velocity": 0.4330708661417323,
                    "duration": 0.35502950000000055
                },
                {
                    "name": "C#5",
                    "midi": 73,
                    "time": 27.337271499999996,
                    "velocity": 0.3228346456692913,
                    "duration": 0.35502950000000055
                },
                {
                    "name": "F5",
                    "midi": 77,
                    "time": 27.337271499999996,
                    "velocity": 0.4094488188976378,
                    "duration": 0.35502950000000055
                },
                {
                    "name": "G#5",
                    "midi": 80,
                    "time": 27.692300999999997,
                    "velocity": 0.47244094488188976,
                    "duration": 0.35502950000000055
                },
                {
                    "name": "C5",
                    "midi": 72,
                    "time": 27.692300999999997,
                    "velocity": 0.3779527559055118,
                    "duration": 0.35502950000000055
                },
                {
                    "name": "A#4",
                    "midi": 70,
                    "time": 28.047330499999997,
                    "velocity": 0.36220472440944884,
                    "duration": 0.35502950000000055
                },
                {
                    "name": "F#5",
                    "midi": 78,
                    "time": 28.047330499999997,
                    "velocity": 0.4566929133858268,
                    "duration": 0.35502950000000055
                },
                {
                    "name": "C5",
                    "midi": 72,
                    "time": 28.402359999999998,
                    "velocity": 0.44881889763779526,
                    "duration": 0.35502950000000055
                },
                {
                    "name": "A4",
                    "midi": 69,
                    "time": 28.402359999999998,
                    "velocity": 0.3543307086614173,
                    "duration": 0.35502950000000055
                },
                {
                    "name": "G#4",
                    "midi": 68,
                    "time": 28.7573895,
                    "velocity": 0.33858267716535434,
                    "duration": 0.35502950000000055
                },
                {
                    "name": "D5",
                    "midi": 74,
                    "time": 28.7573895,
                    "velocity": 0.4330708661417323,
                    "duration": 0.35502950000000055
                },
                {
                    "name": "G4",
                    "midi": 67,
                    "time": 29.112419,
                    "velocity": 0.33070866141732286,
                    "duration": 0.35502950000000055
                },
                {
                    "name": "D#5",
                    "midi": 75,
                    "time": 29.112419,
                    "velocity": 0.4251968503937008,
                    "duration": 0.35502950000000055
                },
                {
                    "name": "A#4",
                    "midi": 70,
                    "time": 29.4674485,
                    "velocity": 0.4094488188976378,
                    "duration": 0.35502950000000055
                },
                {
                    "name": "F#4",
                    "midi": 66,
                    "time": 29.4674485,
                    "velocity": 0.3228346456692913,
                    "duration": 0.35502950000000055
                },
                {
                    "name": "F4",
                    "midi": 65,
                    "time": 30.1775075,
                    "velocity": 0.33858267716535434,
                    "duration": 0.35502950000000055
                },
                {
                    "name": "D5",
                    "midi": 74,
                    "time": 30.1775075,
                    "velocity": 0.4330708661417323,
                    "duration": 0.35502950000000055
                },
                {
                    "name": "G4",
                    "midi": 67,
                    "time": 30.532537,
                    "velocity": 0.4251968503937008,
                    "duration": 0.35502950000000055
                },
                {
                    "name": "E4",
                    "midi": 64,
                    "time": 30.532537,
                    "velocity": 0.33858267716535434,
                    "duration": 0.35502950000000055
                },
                {
                    "name": "D#4",
                    "midi": 63,
                    "time": 30.887566500000002,
                    "velocity": 0.3228346456692913,
                    "duration": 0.35502950000000055
                },
                {
                    "name": "A4",
                    "midi": 69,
                    "time": 30.887566500000002,
                    "velocity": 0.4094488188976378,
                    "duration": 0.35502950000000055
                },
                {
                    "name": "D4",
                    "midi": 62,
                    "time": 31.242596000000002,
                    "velocity": 0.31496062992125984,
                    "duration": 0.35502950000000055
                },
                {
                    "name": "A#4",
                    "midi": 70,
                    "time": 31.242596000000002,
                    "velocity": 0.3937007874015748,
                    "duration": 0.35502950000000055
                },
                {
                    "name": "F4",
                    "midi": 65,
                    "time": 31.597625500000003,
                    "velocity": 0.3700787401574803,
                    "duration": 0.35502950000000055
                },
                {
                    "name": "A#3",
                    "midi": 58,
                    "time": 31.952655000000004,
                    "velocity": 0.4015748031496063,
                    "duration": 0.355029499999997
                },
                {
                    "name": "A#4",
                    "midi": 70,
                    "time": 34.082832,
                    "velocity": 0.6062992125984252,
                    "duration": 2.130176999999996
                },
                {
                    "name": "C#5",
                    "midi": 73,
                    "time": 34.082832,
                    "velocity": 0.6062992125984252,
                    "duration": 2.130176999999996
                },
                {
                    "name": "A#5",
                    "midi": 82,
                    "time": 34.082832,
                    "velocity": 0.7086614173228346,
                    "duration": 2.130176999999996
                },
                {
                    "name": "A#4",
                    "midi": 70,
                    "time": 36.213009,
                    "velocity": 0.5590551181102362,
                    "duration": 1.4201180000000022
                },
                {
                    "name": "F#4",
                    "midi": 66,
                    "time": 36.213009,
                    "velocity": 0.5590551181102362,
                    "duration": 1.4201180000000022
                },
                {
                    "name": "F#5",
                    "midi": 78,
                    "time": 36.213009,
                    "velocity": 0.6614173228346457,
                    "duration": 1.4201180000000022
                },
                {
                    "name": "B4",
                    "midi": 71,
                    "time": 37.633127,
                    "velocity": 0.5196850393700787,
                    "duration": 0.7100590000000011
                },
                {
                    "name": "B5",
                    "midi": 83,
                    "time": 37.633127,
                    "velocity": 0.6141732283464567,
                    "duration": 0.7100590000000011
                },
                {
                    "name": "D#5",
                    "midi": 75,
                    "time": 37.633127,
                    "velocity": 0.5196850393700787,
                    "duration": 0.7100590000000011
                },
                {
                    "name": "A#4",
                    "midi": 70,
                    "time": 38.343186,
                    "velocity": 0.5590551181102362,
                    "duration": 2.1301770000000033
                },
                {
                    "name": "C#5",
                    "midi": 73,
                    "time": 38.343186,
                    "velocity": 0.5590551181102362,
                    "duration": 2.1301770000000033
                },
                {
                    "name": "A#5",
                    "midi": 82,
                    "time": 38.343186,
                    "velocity": 0.6614173228346457,
                    "duration": 2.1301770000000033
                },
                {
                    "name": "A#4",
                    "midi": 70,
                    "time": 40.473363000000006,
                    "velocity": 0.5354330708661418,
                    "duration": 2.1301770000000033
                },
                {
                    "name": "F#5",
                    "midi": 78,
                    "time": 40.473363000000006,
                    "velocity": 0.6299212598425197,
                    "duration": 2.1301770000000033
                },
                {
                    "name": "F#4",
                    "midi": 66,
                    "time": 40.473363000000006,
                    "velocity": 0.5354330708661418,
                    "duration": 2.1301770000000033
                },
                {
                    "name": "C#5",
                    "midi": 73,
                    "time": 42.60354000000001,
                    "velocity": 0.5984251968503937,
                    "duration": 1.4201180000000022
                },
                {
                    "name": "C#6",
                    "midi": 85,
                    "time": 42.60354000000001,
                    "velocity": 0.7086614173228346,
                    "duration": 1.4201180000000022
                },
                {
                    "name": "A#5",
                    "midi": 82,
                    "time": 42.60354000000001,
                    "velocity": 0.5984251968503937,
                    "duration": 1.4201180000000022
                },
                {
                    "name": "A#5",
                    "midi": 82,
                    "time": 44.02365800000001,
                    "velocity": 0.6850393700787402,
                    "duration": 0.7100590000000011
                },
                {
                    "name": "A#4",
                    "midi": 70,
                    "time": 44.02365800000001,
                    "velocity": 0.5748031496062992,
                    "duration": 0.7100590000000011
                },
                {
                    "name": "F#5",
                    "midi": 78,
                    "time": 44.02365800000001,
                    "velocity": 0.5748031496062992,
                    "duration": 0.7100590000000011
                },
                {
                    "name": "F#6",
                    "midi": 90,
                    "time": 44.73371700000001,
                    "velocity": 0.7322834645669292,
                    "duration": 1.4201180000000022
                },
                {
                    "name": "F#5",
                    "midi": 78,
                    "time": 44.73371700000001,
                    "velocity": 0.6141732283464567,
                    "duration": 1.4201180000000022
                },
                {
                    "name": "A#5",
                    "midi": 82,
                    "time": 44.73371700000001,
                    "velocity": 0.6141732283464567,
                    "duration": 1.4201180000000022
                },
                {
                    "name": "C#6",
                    "midi": 85,
                    "time": 46.153835000000015,
                    "velocity": 0.6614173228346457,
                    "duration": 0.5325442500000008
                },
                {
                    "name": "A#5",
                    "midi": 82,
                    "time": 46.153835000000015,
                    "velocity": 0.5748031496062992,
                    "duration": 0.5325442500000008
                },
                {
                    "name": "C#5",
                    "midi": 73,
                    "time": 46.153835000000015,
                    "velocity": 0.5433070866141733,
                    "duration": 0.5325442500000008
                },
                {
                    "name": "G#5",
                    "midi": 80,
                    "time": 46.686379250000016,
                    "velocity": 0.5354330708661418,
                    "duration": 0.17751475000000028
                },
                {
                    "name": "B5",
                    "midi": 83,
                    "time": 46.686379250000016,
                    "velocity": 0.6220472440944882,
                    "duration": 0.17751475000000028
                },
                {
                    "name": "B4",
                    "midi": 71,
                    "time": 46.686379250000016,
                    "velocity": 0.5354330708661418,
                    "duration": 0.17751475000000028
                },
                {
                    "name": "B4",
                    "midi": 71,
                    "time": 46.863894000000016,
                    "velocity": 0.5275590551181102,
                    "duration": 0.7100590000000011
                },
                {
                    "name": "G#5",
                    "midi": 80,
                    "time": 46.863894000000016,
                    "velocity": 0.5275590551181102,
                    "duration": 0.7100590000000011
                },
                {
                    "name": "B5",
                    "midi": 83,
                    "time": 46.863894000000016,
                    "velocity": 0.6220472440944882,
                    "duration": 0.7100590000000011
                },
                {
                    "name": "F#5",
                    "midi": 78,
                    "time": 47.57395300000002,
                    "velocity": 0.48031496062992124,
                    "duration": 0.7100590000000011
                },
                {
                    "name": "A#4",
                    "midi": 70,
                    "time": 47.57395300000002,
                    "velocity": 0.48031496062992124,
                    "duration": 0.7100590000000011
                },
                {
                    "name": "A#5",
                    "midi": 82,
                    "time": 47.57395300000002,
                    "velocity": 0.5590551181102362,
                    "duration": 0.7100590000000011
                },
                {
                    "name": "A#4",
                    "midi": 70,
                    "time": 51.124248000000016,
                    "velocity": 0.33858267716535434,
                    "duration": 2.130176999999996
                },
                {
                    "name": "A#5",
                    "midi": 82,
                    "time": 51.124248000000016,
                    "velocity": 0.4015748031496063,
                    "duration": 2.130176999999996
                },
                {
                    "name": "C#5",
                    "midi": 73,
                    "time": 51.124248000000016,
                    "velocity": 0.33858267716535434,
                    "duration": 2.130176999999996
                },
                {
                    "name": "F#4",
                    "midi": 66,
                    "time": 53.25442500000001,
                    "velocity": 0.30708661417322836,
                    "duration": 1.4201180000000022
                },
                {
                    "name": "A#4",
                    "midi": 70,
                    "time": 53.25442500000001,
                    "velocity": 0.30708661417322836,
                    "duration": 1.4201180000000022
                },
                {
                    "name": "F#5",
                    "midi": 78,
                    "time": 53.25442500000001,
                    "velocity": 0.3779527559055118,
                    "duration": 1.4201180000000022
                },
                {
                    "name": "D#5",
                    "midi": 75,
                    "time": 54.674543000000014,
                    "velocity": 0.29133858267716534,
                    "duration": 0.7100590000000011
                },
                {
                    "name": "B5",
                    "midi": 83,
                    "time": 54.674543000000014,
                    "velocity": 0.3464566929133858,
                    "duration": 0.7100590000000011
                },
                {
                    "name": "B4",
                    "midi": 71,
                    "time": 54.674543000000014,
                    "velocity": 0.29133858267716534,
                    "duration": 0.7100590000000011
                },
                {
                    "name": "A#4",
                    "midi": 70,
                    "time": 55.384602000000015,
                    "velocity": 0.30708661417322836,
                    "duration": 2.1301770000000033
                },
                {
                    "name": "C#5",
                    "midi": 73,
                    "time": 55.384602000000015,
                    "velocity": 0.30708661417322836,
                    "duration": 2.1301770000000033
                },
                {
                    "name": "A#5",
                    "midi": 82,
                    "time": 55.384602000000015,
                    "velocity": 0.3779527559055118,
                    "duration": 2.1301770000000033
                },
                {
                    "name": "A#4",
                    "midi": 70,
                    "time": 57.51477900000002,
                    "velocity": 0.2992125984251969,
                    "duration": 2.1301770000000033
                },
                {
                    "name": "F#4",
                    "midi": 66,
                    "time": 57.51477900000002,
                    "velocity": 0.2992125984251969,
                    "duration": 2.1301770000000033
                },
                {
                    "name": "F#5",
                    "midi": 78,
                    "time": 57.51477900000002,
                    "velocity": 0.36220472440944884,
                    "duration": 2.1301770000000033
                },
                {
                    "name": "C#5",
                    "midi": 73,
                    "time": 59.64495600000002,
                    "velocity": 0.33858267716535434,
                    "duration": 1.4201180000000022
                },
                {
                    "name": "A#5",
                    "midi": 82,
                    "time": 59.64495600000002,
                    "velocity": 0.33858267716535434,
                    "duration": 1.4201180000000022
                },
                {
                    "name": "C#6",
                    "midi": 85,
                    "time": 59.64495600000002,
                    "velocity": 0.4015748031496063,
                    "duration": 1.4201180000000022
                },
                {
                    "name": "A#4",
                    "midi": 70,
                    "time": 61.065074000000024,
                    "velocity": 0.31496062992125984,
                    "duration": 0.7100590000000011
                },
                {
                    "name": "A#5",
                    "midi": 82,
                    "time": 61.065074000000024,
                    "velocity": 0.3858267716535433,
                    "duration": 0.7100590000000011
                },
                {
                    "name": "F#5",
                    "midi": 78,
                    "time": 61.065074000000024,
                    "velocity": 0.31496062992125984,
                    "duration": 0.7100590000000011
                },
                {
                    "name": "A#5",
                    "midi": 82,
                    "time": 61.775133000000025,
                    "velocity": 0.3464566929133858,
                    "duration": 1.4201180000000022
                },
                {
                    "name": "F#5",
                    "midi": 78,
                    "time": 61.775133000000025,
                    "velocity": 0.3464566929133858,
                    "duration": 1.4201180000000022
                },
                {
                    "name": "F#6",
                    "midi": 90,
                    "time": 61.775133000000025,
                    "velocity": 0.4094488188976378,
                    "duration": 1.4201180000000022
                },
                {
                    "name": "C#6",
                    "midi": 85,
                    "time": 63.19525100000003,
                    "velocity": 0.3779527559055118,
                    "duration": 0.5325442500000008
                },
                {
                    "name": "A#5",
                    "midi": 82,
                    "time": 63.19525100000003,
                    "velocity": 0.31496062992125984,
                    "duration": 0.5325442500000008
                },
                {
                    "name": "C#5",
                    "midi": 73,
                    "time": 63.19525100000003,
                    "velocity": 0.2992125984251969,
                    "duration": 0.5325442500000008
                },
                {
                    "name": "G#5",
                    "midi": 80,
                    "time": 63.72779525000003,
                    "velocity": 0.2992125984251969,
                    "duration": 0.17751475000000028
                },
                {
                    "name": "B4",
                    "midi": 71,
                    "time": 63.72779525000003,
                    "velocity": 0.2992125984251969,
                    "duration": 0.17751475000000028
                },
                {
                    "name": "B5",
                    "midi": 83,
                    "time": 63.72779525000003,
                    "velocity": 0.36220472440944884,
                    "duration": 0.17751475000000028
                },
                {
                    "name": "B4",
                    "midi": 71,
                    "time": 63.90531000000003,
                    "velocity": 0.2992125984251969,
                    "duration": 0.7100590000000011
                },
                {
                    "name": "B5",
                    "midi": 83,
                    "time": 63.90531000000003,
                    "velocity": 0.36220472440944884,
                    "duration": 0.7100590000000011
                },
                {
                    "name": "G#5",
                    "midi": 80,
                    "time": 63.90531000000003,
                    "velocity": 0.2992125984251969,
                    "duration": 0.7100590000000011
                },
                {
                    "name": "A#4",
                    "midi": 70,
                    "time": 64.61536900000003,
                    "velocity": 0.2992125984251969,
                    "duration": 0.7100590000000011
                },
                {
                    "name": "F#5",
                    "midi": 78,
                    "time": 64.61536900000003,
                    "velocity": 0.2992125984251969,
                    "duration": 0.7100590000000011
                },
                {
                    "name": "A#5",
                    "midi": 82,
                    "time": 64.61536900000003,
                    "velocity": 0.3464566929133858,
                    "duration": 0.7100590000000011
                },
                {
                    "name": "F5",
                    "midi": 77,
                    "time": 68.16566400000004,
                    "velocity": 0.4881889763779528,
                    "duration": 0.7100590000000011
                },
                {
                    "name": "F4",
                    "midi": 65,
                    "time": 68.52069350000004,
                    "velocity": 0.36220472440944884,
                    "duration": 0.35502950000000055
                },
                {
                    "name": "E4",
                    "midi": 64,
                    "time": 68.87572300000004,
                    "velocity": 0.28346456692913385,
                    "duration": 0.35502950000000055
                },
                {
                    "name": "G4",
                    "midi": 67,
                    "time": 68.87572300000004,
                    "velocity": 0.36220472440944884,
                    "duration": 0.35502950000000055
                },
                {
                    "name": "D#4",
                    "midi": 63,
                    "time": 69.23075250000004,
                    "velocity": 0.29133858267716534,
                    "duration": 0.35502950000000055
                },
                {
                    "name": "A4",
                    "midi": 69,
                    "time": 69.23075250000004,
                    "velocity": 0.3779527559055118,
                    "duration": 0.35502950000000055
                },
                {
                    "name": "A#4",
                    "midi": 70,
                    "time": 69.58578200000004,
                    "velocity": 0.4094488188976378,
                    "duration": 0.35502950000000055
                },
                {
                    "name": "D4",
                    "midi": 62,
                    "time": 69.58578200000004,
                    "velocity": 0.3228346456692913,
                    "duration": 0.35502950000000055
                },
                {
                    "name": "C5",
                    "midi": 72,
                    "time": 69.94081150000004,
                    "velocity": 0.3937007874015748,
                    "duration": 0.35502950000000055
                },
                {
                    "name": "C4",
                    "midi": 60,
                    "time": 69.94081150000004,
                    "velocity": 0.3543307086614173,
                    "duration": 0.35502950000000055
                },
                {
                    "name": "D5",
                    "midi": 74,
                    "time": 70.29584100000004,
                    "velocity": 0.47244094488188976,
                    "duration": 0.35502950000000055
                },
                {
                    "name": "F4",
                    "midi": 65,
                    "time": 70.65087050000004,
                    "velocity": 0.3858267716535433,
                    "duration": 0.35502950000000055
                },
                {
                    "name": "E4",
                    "midi": 64,
                    "time": 71.00590000000004,
                    "velocity": 0.2992125984251969,
                    "duration": 0.35502950000000055
                },
                {
                    "name": "G4",
                    "midi": 67,
                    "time": 71.00590000000004,
                    "velocity": 0.3858267716535433,
                    "duration": 0.35502950000000055
                },
                {
                    "name": "D#4",
                    "midi": 63,
                    "time": 71.36092950000004,
                    "velocity": 0.30708661417322836,
                    "duration": 0.35502950000000055
                },
                {
                    "name": "A4",
                    "midi": 69,
                    "time": 71.36092950000004,
                    "velocity": 0.4015748031496063,
                    "duration": 0.35502950000000055
                },
                {
                    "name": "A#4",
                    "midi": 70,
                    "time": 71.71595900000004,
                    "velocity": 0.4330708661417323,
                    "duration": 0.35502950000000055
                },
                {
                    "name": "D4",
                    "midi": 62,
                    "time": 71.71595900000004,
                    "velocity": 0.3464566929133858,
                    "duration": 0.35502950000000055
                },
                {
                    "name": "D5",
                    "midi": 74,
                    "time": 72.07098850000004,
                    "velocity": 0.41732283464566927,
                    "duration": 0.35502950000000055
                },
                {
                    "name": "G5",
                    "midi": 79,
                    "time": 72.42601800000004,
                    "velocity": 0.5039370078740157,
                    "duration": 0.7100590000000011
                },
                {
                    "name": "G4",
                    "midi": 67,
                    "time": 72.78104750000004,
                    "velocity": 0.4094488188976378,
                    "duration": 0.35502950000000055
                },
                {
                    "name": "A4",
                    "midi": 69,
                    "time": 73.13607700000004,
                    "velocity": 0.4094488188976378,
                    "duration": 0.35502950000000055
                },
                {
                    "name": "F#4",
                    "midi": 66,
                    "time": 73.13607700000004,
                    "velocity": 0.3228346456692913,
                    "duration": 0.35502950000000055
                },
                {
                    "name": "B4",
                    "midi": 71,
                    "time": 73.49110650000004,
                    "velocity": 0.4251968503937008,
                    "duration": 0.35502950000000055
                },
                {
                    "name": "F4",
                    "midi": 65,
                    "time": 73.49110650000004,
                    "velocity": 0.3228346456692913,
                    "duration": 0.35502950000000055
                },
                {
                    "name": "C5",
                    "midi": 72,
                    "time": 73.84613600000004,
                    "velocity": 0.4566929133858268,
                    "duration": 0.35502950000000055
                },
                {
                    "name": "D#4",
                    "midi": 63,
                    "time": 73.84613600000004,
                    "velocity": 0.36220472440944884,
                    "duration": 0.35502950000000055
                },
                {
                    "name": "D5",
                    "midi": 74,
                    "time": 74.20116550000004,
                    "velocity": 0.4409448818897638,
                    "duration": 0.35502950000000055
                },
                {
                    "name": "D4",
                    "midi": 62,
                    "time": 74.20116550000004,
                    "velocity": 0.3937007874015748,
                    "duration": 0.35502950000000055
                },
                {
                    "name": "D#5",
                    "midi": 75,
                    "time": 74.55619500000005,
                    "velocity": 0.5826771653543307,
                    "duration": 0.7100590000000011
                },
                {
                    "name": "G4",
                    "midi": 67,
                    "time": 74.91122450000005,
                    "velocity": 0.47244094488188976,
                    "duration": 0.35502950000000055
                },
                {
                    "name": "A4",
                    "midi": 69,
                    "time": 75.26625400000005,
                    "velocity": 0.4881889763779528,
                    "duration": 0.35502950000000055
                },
                {
                    "name": "F#4",
                    "midi": 66,
                    "time": 75.26625400000005,
                    "velocity": 0.3700787401574803,
                    "duration": 0.35502950000000055
                },
                {
                    "name": "F4",
                    "midi": 65,
                    "time": 75.62128350000005,
                    "velocity": 0.3858267716535433,
                    "duration": 0.35502950000000055
                },
                {
                    "name": "B4",
                    "midi": 71,
                    "time": 75.62128350000005,
                    "velocity": 0.49606299212598426,
                    "duration": 0.35502950000000055
                },
                {
                    "name": "D#4",
                    "midi": 63,
                    "time": 75.97631300000005,
                    "velocity": 0.4330708661417323,
                    "duration": 0.35502950000000055
                },
                {
                    "name": "C5",
                    "midi": 72,
                    "time": 75.97631300000005,
                    "velocity": 0.5511811023622047,
                    "duration": 0.35502950000000055
                },
                {
                    "name": "D#5",
                    "midi": 75,
                    "time": 76.33134250000005,
                    "velocity": 0.5354330708661418,
                    "duration": 0.35502950000000055
                },
                {
                    "name": "A5",
                    "midi": 81,
                    "time": 76.68637200000005,
                    "velocity": 0.6377952755905512,
                    "duration": 0.7100590000000011
                },
                {
                    "name": "A4",
                    "midi": 69,
                    "time": 77.04140150000005,
                    "velocity": 0.5196850393700787,
                    "duration": 0.35502950000000055
                },
                {
                    "name": "G#4",
                    "midi": 68,
                    "time": 77.39643100000005,
                    "velocity": 0.41732283464566927,
                    "duration": 0.35502950000000055
                },
                {
                    "name": "B4",
                    "midi": 71,
                    "time": 77.39643100000005,
                    "velocity": 0.5275590551181102,
                    "duration": 0.35502950000000055
                },
                {
                    "name": "C#5",
                    "midi": 73,
                    "time": 77.75146050000005,
                    "velocity": 0.5590551181102362,
                    "duration": 0.35502950000000055
                },
                {
                    "name": "G4",
                    "midi": 67,
                    "time": 77.75146050000005,
                    "velocity": 0.41732283464566927,
                    "duration": 0.35502950000000055
                },
                {
                    "name": "F4",
                    "midi": 65,
                    "time": 78.10649000000005,
                    "velocity": 0.48031496062992124,
                    "duration": 0.35502950000000055
                },
                {
                    "name": "D5",
                    "midi": 74,
                    "time": 78.10649000000005,
                    "velocity": 0.5984251968503937,
                    "duration": 0.35502950000000055
                },
                {
                    "name": "F5",
                    "midi": 77,
                    "time": 78.46151950000005,
                    "velocity": 0.5826771653543307,
                    "duration": 0.35502950000000055
                },
                {
                    "name": "A#5",
                    "midi": 82,
                    "time": 78.81654900000005,
                    "velocity": 0.7086614173228346,
                    "duration": 0.7100590000000011
                },
                {
                    "name": "A#4",
                    "midi": 70,
                    "time": 79.17157850000005,
                    "velocity": 0.5748031496062992,
                    "duration": 0.35502950000000055
                },
                {
                    "name": "A4",
                    "midi": 69,
                    "time": 79.52660800000005,
                    "velocity": 0.4566929133858268,
                    "duration": 0.35502950000000055
                },
                {
                    "name": "C5",
                    "midi": 72,
                    "time": 79.52660800000005,
                    "velocity": 0.5905511811023622,
                    "duration": 0.35502950000000055
                },
                {
                    "name": "D5",
                    "midi": 74,
                    "time": 79.88163750000005,
                    "velocity": 0.5984251968503937,
                    "duration": 0.35502950000000055
                },
                {
                    "name": "G#4",
                    "midi": 68,
                    "time": 79.88163750000005,
                    "velocity": 0.4566929133858268,
                    "duration": 0.35502950000000055
                },
                {
                    "name": "G4",
                    "midi": 67,
                    "time": 80.23666700000005,
                    "velocity": 0.5196850393700787,
                    "duration": 0.35502950000000055
                },
                {
                    "name": "D#5",
                    "midi": 75,
                    "time": 80.23666700000005,
                    "velocity": 0.6535433070866141,
                    "duration": 0.35502950000000055
                },
                {
                    "name": "F#4",
                    "midi": 66,
                    "time": 80.59169650000005,
                    "velocity": 0.5748031496062992,
                    "duration": 0.35502950000000055
                },
                {
                    "name": "F#5",
                    "midi": 78,
                    "time": 80.59169650000005,
                    "velocity": 0.6377952755905512,
                    "duration": 0.35502950000000055
                },
                {
                    "name": "F5",
                    "midi": 77,
                    "time": 81.30175550000006,
                    "velocity": 0.6614173228346457,
                    "duration": 0.35502950000000055
                },
                {
                    "name": "A#5",
                    "midi": 82,
                    "time": 81.65678500000006,
                    "velocity": 0.6220472440944882,
                    "duration": 0.35502950000000055
                },
                {
                    "name": "F#5",
                    "midi": 78,
                    "time": 81.65678500000006,
                    "velocity": 0.6220472440944882,
                    "duration": 0.35502950000000055
                },
                {
                    "name": "D#6",
                    "midi": 87,
                    "time": 81.65678500000006,
                    "velocity": 0.7244094488188977,
                    "duration": 0.35502950000000055
                },
                {
                    "name": "F5",
                    "midi": 77,
                    "time": 82.01181450000006,
                    "velocity": 0.6692913385826772,
                    "duration": 0.35502950000000055
                },
                {
                    "name": "A#5",
                    "midi": 82,
                    "time": 82.36684400000006,
                    "velocity": 0.6062992125984252,
                    "duration": 0.35502950000000055
                },
                {
                    "name": "F#5",
                    "midi": 78,
                    "time": 82.36684400000006,
                    "velocity": 0.6062992125984252,
                    "duration": 0.35502950000000055
                },
                {
                    "name": "D#6",
                    "midi": 87,
                    "time": 82.36684400000006,
                    "velocity": 0.7165354330708661,
                    "duration": 0.35502950000000055
                },
                {
                    "name": "F5",
                    "midi": 77,
                    "time": 82.72187350000006,
                    "velocity": 0.6771653543307087,
                    "duration": 0.35502950000000055
                },
                {
                    "name": "F#5",
                    "midi": 78,
                    "time": 83.07690300000006,
                    "velocity": 0.6456692913385826,
                    "duration": 0.35502950000000055
                },
                {
                    "name": "D#6",
                    "midi": 87,
                    "time": 83.07690300000006,
                    "velocity": 0.7559055118110236,
                    "duration": 0.35502950000000055
                },
                {
                    "name": "A#5",
                    "midi": 82,
                    "time": 83.07690300000006,
                    "velocity": 0.6456692913385826,
                    "duration": 0.35502950000000055
                },
                {
                    "name": "F5",
                    "midi": 77,
                    "time": 83.43193250000006,
                    "velocity": 0.7007874015748031,
                    "duration": 0.35502950000000055
                },
                {
                    "name": "F#5",
                    "midi": 78,
                    "time": 83.78696200000006,
                    "velocity": 0.6299212598425197,
                    "duration": 0.35502950000000055
                },
                {
                    "name": "D#6",
                    "midi": 87,
                    "time": 83.78696200000006,
                    "velocity": 0.7480314960629921,
                    "duration": 0.35502950000000055
                },
                {
                    "name": "A#5",
                    "midi": 82,
                    "time": 83.78696200000006,
                    "velocity": 0.6299212598425197,
                    "duration": 0.35502950000000055
                },
                {
                    "name": "F5",
                    "midi": 77,
                    "time": 84.14199150000006,
                    "velocity": 0.7165354330708661,
                    "duration": 0.35502950000000055
                },
                {
                    "name": "A#5",
                    "midi": 82,
                    "time": 84.49702100000006,
                    "velocity": 0.6692913385826772,
                    "duration": 0.35502950000000055
                },
                {
                    "name": "F#5",
                    "midi": 78,
                    "time": 84.49702100000006,
                    "velocity": 0.6692913385826772,
                    "duration": 0.35502950000000055
                },
                {
                    "name": "D#6",
                    "midi": 87,
                    "time": 84.49702100000006,
                    "velocity": 0.7952755905511811,
                    "duration": 0.35502950000000055
                },
                {
                    "name": "F5",
                    "midi": 77,
                    "time": 84.85205050000006,
                    "velocity": 0.7322834645669292,
                    "duration": 0.35502950000000055
                },
                {
                    "name": "F#5",
                    "midi": 78,
                    "time": 85.20708000000006,
                    "velocity": 0.6220472440944882,
                    "duration": 0.35502950000000055
                },
                {
                    "name": "D#6",
                    "midi": 87,
                    "time": 85.20708000000006,
                    "velocity": 0.7874015748031497,
                    "duration": 0.35502950000000055
                },
                {
                    "name": "D6",
                    "midi": 86,
                    "time": 85.56210950000006,
                    "velocity": 0.7244094488188977,
                    "duration": 0.35502950000000055
                },
                {
                    "name": "F5",
                    "midi": 77,
                    "time": 85.56210950000006,
                    "velocity": 0.5748031496062992,
                    "duration": 0.35502950000000055
                },
                {
                    "name": "G5",
                    "midi": 79,
                    "time": 85.91713900000006,
                    "velocity": 0.7007874015748031,
                    "duration": 0.35502950000000055
                },
                {
                    "name": "E5",
                    "midi": 76,
                    "time": 85.91713900000006,
                    "velocity": 0.5511811023622047,
                    "duration": 0.35502950000000055
                },
                {
                    "name": "D#5",
                    "midi": 75,
                    "time": 86.27216850000006,
                    "velocity": 0.47244094488188976,
                    "duration": 0.35502950000000055
                },
                {
                    "name": "A5",
                    "midi": 81,
                    "time": 86.27216850000006,
                    "velocity": 0.6141732283464567,
                    "duration": 0.35502950000000055
                },
                {
                    "name": "A#5",
                    "midi": 82,
                    "time": 86.62719800000006,
                    "velocity": 0.6692913385826772,
                    "duration": 0.35502950000000055
                },
                {
                    "name": "D5",
                    "midi": 74,
                    "time": 86.62719800000006,
                    "velocity": 0.5275590551181102,
                    "duration": 0.35502950000000055
                },
                {
                    "name": "C#5",
                    "midi": 73,
                    "time": 86.98222750000006,
                    "velocity": 0.4645669291338583,
                    "duration": 0.35502950000000055
                },
                {
                    "name": "F5",
                    "midi": 77,
                    "time": 86.98222750000006,
                    "velocity": 0.5984251968503937,
                    "duration": 0.35502950000000055
                },
                {
                    "name": "C5",
                    "midi": 72,
                    "time": 87.33725700000006,
                    "velocity": 0.49606299212598426,
                    "duration": 0.35502950000000055
                },
                {
                    "name": "G#5",
                    "midi": 80,
                    "time": 87.33725700000006,
                    "velocity": 0.6299212598425197,
                    "duration": 0.35502950000000055
                },
                {
                    "name": "F#5",
                    "midi": 78,
                    "time": 87.69228650000007,
                    "velocity": 0.5984251968503937,
                    "duration": 0.35502950000000055
                },
                {
                    "name": "A#4",
                    "midi": 70,
                    "time": 87.69228650000007,
                    "velocity": 0.4645669291338583,
                    "duration": 0.35502950000000055
                },
                {
                    "name": "A4",
                    "midi": 69,
                    "time": 88.04731600000007,
                    "velocity": 0.4645669291338583,
                    "duration": 0.35502950000000055
                },
                {
                    "name": "C5",
                    "midi": 72,
                    "time": 88.04731600000007,
                    "velocity": 0.5905511811023622,
                    "duration": 0.35502950000000055
                },
                {
                    "name": "D5",
                    "midi": 74,
                    "time": 88.40234550000007,
                    "velocity": 0.5669291338582677,
                    "duration": 0.35502950000000055
                },
                {
                    "name": "G#4",
                    "midi": 68,
                    "time": 88.40234550000007,
                    "velocity": 0.44881889763779526,
                    "duration": 0.35502950000000055
                },
                {
                    "name": "G4",
                    "midi": 67,
                    "time": 88.75737500000007,
                    "velocity": 0.47244094488188976,
                    "duration": 0.35502950000000055
                },
                {
                    "name": "D#5",
                    "midi": 75,
                    "time": 88.75737500000007,
                    "velocity": 0.5984251968503937,
                    "duration": 0.35502950000000055
                },
                {
                    "name": "F#4",
                    "midi": 66,
                    "time": 89.11240450000007,
                    "velocity": 0.4330708661417323,
                    "duration": 0.35502950000000055
                },
                {
                    "name": "A#4",
                    "midi": 70,
                    "time": 89.11240450000007,
                    "velocity": 0.5433070866141733,
                    "duration": 0.35502950000000055
                },
                {
                    "name": "C#5",
                    "midi": 73,
                    "time": 89.46743400000007,
                    "velocity": 0.6141732283464567,
                    "duration": 0.35502950000000055
                },
                {
                    "name": "F4",
                    "midi": 65,
                    "time": 89.46743400000007,
                    "velocity": 0.4881889763779528,
                    "duration": 0.35502950000000055
                },
                {
                    "name": "E4",
                    "midi": 64,
                    "time": 89.82246350000007,
                    "velocity": 0.4330708661417323,
                    "duration": 0.35502950000000055
                },
                {
                    "name": "C5",
                    "midi": 72,
                    "time": 89.82246350000007,
                    "velocity": 0.5511811023622047,
                    "duration": 0.35502950000000055
                },
                {
                    "name": "G4",
                    "midi": 67,
                    "time": 90.17749300000007,
                    "velocity": 0.5511811023622047,
                    "duration": 0.35502950000000055
                },
                {
                    "name": "D#4",
                    "midi": 63,
                    "time": 90.17749300000007,
                    "velocity": 0.4251968503937008,
                    "duration": 0.35502950000000055
                },
                {
                    "name": "D4",
                    "midi": 62,
                    "time": 90.53252250000007,
                    "velocity": 0.41732283464566927,
                    "duration": 0.35502950000000055
                },
                {
                    "name": "G#4",
                    "midi": 68,
                    "time": 90.53252250000007,
                    "velocity": 0.5196850393700787,
                    "duration": 0.35502950000000055
                },
                {
                    "name": "C#4",
                    "midi": 61,
                    "time": 90.88755200000007,
                    "velocity": 0.4330708661417323,
                    "duration": 0.35502950000000055
                },
                {
                    "name": "A4",
                    "midi": 69,
                    "time": 90.88755200000007,
                    "velocity": 0.5511811023622047,
                    "duration": 0.35502950000000055
                },
                {
                    "name": "D#4",
                    "midi": 63,
                    "time": 91.24258150000007,
                    "velocity": 0.5118110236220472,
                    "duration": 0.35502950000000055
                },
                {
                    "name": "C4",
                    "midi": 60,
                    "time": 91.24258150000007,
                    "velocity": 0.4094488188976378,
                    "duration": 0.35502950000000055
                },
                {
                    "name": "A#3",
                    "midi": 58,
                    "time": 91.59761100000007,
                    "velocity": 0.44881889763779526,
                    "duration": 0.35502950000000055
                },
                {
                    "name": "F#4",
                    "midi": 66,
                    "time": 91.59761100000007,
                    "velocity": 0.5748031496062992,
                    "duration": 0.35502950000000055
                },
                {
                    "name": "F4",
                    "midi": 65,
                    "time": 91.95264050000007,
                    "velocity": 0.5118110236220472,
                    "duration": 0.35502950000000055
                },
                {
                    "name": "A3",
                    "midi": 57,
                    "time": 91.95264050000007,
                    "velocity": 0.4094488188976378,
                    "duration": 0.35502950000000055
                },
                {
                    "name": "G#3",
                    "midi": 56,
                    "time": 92.30767000000007,
                    "velocity": 0.4330708661417323,
                    "duration": 0.35502950000000055
                },
                {
                    "name": "C4",
                    "midi": 60,
                    "time": 92.30767000000007,
                    "velocity": 0.5511811023622047,
                    "duration": 0.35502950000000055
                },
                {
                    "name": "G3",
                    "midi": 55,
                    "time": 92.66269950000007,
                    "velocity": 0.3700787401574803,
                    "duration": 0.35502950000000055
                },
                {
                    "name": "D4",
                    "midi": 62,
                    "time": 92.66269950000007,
                    "velocity": 0.47244094488188976,
                    "duration": 0.35502950000000055
                },
                {
                    "name": "D#4",
                    "midi": 63,
                    "time": 93.01772900000007,
                    "velocity": 0.5433070866141733,
                    "duration": 0.7100590000000011
                },
                {
                    "name": "F#3",
                    "midi": 54,
                    "time": 93.01772900000007,
                    "velocity": 0.4094488188976378,
                    "duration": 0.35502950000000055
                },
                {
                    "name": "F3",
                    "midi": 53,
                    "time": 93.37275850000007,
                    "velocity": 0.3937007874015748,
                    "duration": 0.35502950000000055
                },
                {
                    "name": "A3",
                    "midi": 57,
                    "time": 93.37275850000007,
                    "velocity": 0.4881889763779528,
                    "duration": 0.35502950000000055
                },
                {
                    "name": "A#3",
                    "midi": 58,
                    "time": 93.72778800000007,
                    "velocity": 0.44881889763779526,
                    "duration": 0.35502950000000055
                },
                {
                    "name": "D4",
                    "midi": 62,
                    "time": 93.72778800000007,
                    "velocity": 0.5748031496062992,
                    "duration": 0.35502950000000055
                },
                {
                    "name": "F3",
                    "midi": 53,
                    "time": 93.72778800000007,
                    "velocity": 0.44881889763779526,
                    "duration": 0.35502950000000055
                },
                {
                    "name": "F#4",
                    "midi": 66,
                    "time": 96.21299450000008,
                    "velocity": 0.3464566929133858,
                    "duration": 0.35502950000000055
                },
                {
                    "name": "D#5",
                    "midi": 75,
                    "time": 96.21299450000008,
                    "velocity": 0.4409448818897638,
                    "duration": 0.35502950000000055
                },
                {
                    "name": "A4",
                    "midi": 69,
                    "time": 96.56802400000008,
                    "velocity": 0.4251968503937008,
                    "duration": 0.35502950000000055
                },
                {
                    "name": "F4",
                    "midi": 65,
                    "time": 96.56802400000008,
                    "velocity": 0.33858267716535434,
                    "duration": 0.35502950000000055
                },
                {
                    "name": "E4",
                    "midi": 64,
                    "time": 96.92305350000008,
                    "velocity": 0.30708661417322836,
                    "duration": 0.35502950000000055
                },
                {
                    "name": "A#4",
                    "midi": 70,
                    "time": 96.92305350000008,
                    "velocity": 0.3937007874015748,
                    "duration": 0.35502950000000055
                },
                {
                    "name": "D#4",
                    "midi": 63,
                    "time": 97.27808300000008,
                    "velocity": 0.31496062992125984,
                    "duration": 0.7100590000000011
                },
                {
                    "name": "C5",
                    "midi": 72,
                    "time": 97.27808300000008,
                    "velocity": 0.3937007874015748,
                    "duration": 0.7100590000000011
                },
                {
                    "name": "F#4",
                    "midi": 66,
                    "time": 97.63311250000008,
                    "velocity": 0.3700787401574803,
                    "duration": 0.35502950000000055
                },
                {
                    "name": "D4",
                    "midi": 62,
                    "time": 97.98814200000008,
                    "velocity": 0.3543307086614173,
                    "duration": 0.7100590000000011
                },
                {
                    "name": "F4",
                    "midi": 65,
                    "time": 97.98814200000008,
                    "velocity": 0.3543307086614173,
                    "duration": 0.7100590000000011
                },
                {
                    "name": "A#4",
                    "midi": 70,
                    "time": 97.98814200000008,
                    "velocity": 0.3543307086614173,
                    "duration": 0.7100590000000011
                },
                {
                    "name": "D5",
                    "midi": 74,
                    "time": 97.98814200000008,
                    "velocity": 0.4566929133858268,
                    "duration": 0.7100590000000011
                },
                {
                    "name": "D#5",
                    "midi": 75,
                    "time": 100.47334850000009,
                    "velocity": 0.4409448818897638,
                    "duration": 0.35502950000000055
                },
                {
                    "name": "F#4",
                    "midi": 66,
                    "time": 100.47334850000009,
                    "velocity": 0.3464566929133858,
                    "duration": 0.35502950000000055
                },
                {
                    "name": "F4",
                    "midi": 65,
                    "time": 100.82837800000009,
                    "velocity": 0.33858267716535434,
                    "duration": 0.35502950000000055
                },
                {
                    "name": "A4",
                    "midi": 69,
                    "time": 100.82837800000009,
                    "velocity": 0.4251968503937008,
                    "duration": 0.35502950000000055
                },
                {
                    "name": "A#4",
                    "midi": 70,
                    "time": 101.18340750000009,
                    "velocity": 0.3937007874015748,
                    "duration": 0.35502950000000055
                },
                {
                    "name": "E4",
                    "midi": 64,
                    "time": 101.18340750000009,
                    "velocity": 0.30708661417322836,
                    "duration": 0.35502950000000055
                },
                {
                    "name": "D#4",
                    "midi": 63,
                    "time": 101.53843700000009,
                    "velocity": 0.31496062992125984,
                    "duration": 0.7100590000000011
                },
                {
                    "name": "C5",
                    "midi": 72,
                    "time": 101.53843700000009,
                    "velocity": 0.3937007874015748,
                    "duration": 0.7100590000000011
                },
                {
                    "name": "F#4",
                    "midi": 66,
                    "time": 101.89346650000009,
                    "velocity": 0.3700787401574803,
                    "duration": 0.35502950000000055
                },
                {
                    "name": "F4",
                    "midi": 65,
                    "time": 102.24849600000009,
                    "velocity": 0.3543307086614173,
                    "duration": 0.7100590000000011
                },
                {
                    "name": "A#4",
                    "midi": 70,
                    "time": 102.24849600000009,
                    "velocity": 0.3543307086614173,
                    "duration": 0.7100590000000011
                },
                {
                    "name": "D4",
                    "midi": 62,
                    "time": 102.24849600000009,
                    "velocity": 0.3543307086614173,
                    "duration": 0.7100590000000011
                },
                {
                    "name": "D5",
                    "midi": 74,
                    "time": 102.24849600000009,
                    "velocity": 0.4566929133858268,
                    "duration": 0.7100590000000011
                },
                {
                    "name": "G4",
                    "midi": 67,
                    "time": 104.37867300000009,
                    "velocity": 0.4566929133858268,
                    "duration": 2.1301770000000033
                },
                {
                    "name": "D4",
                    "midi": 62,
                    "time": 104.37867300000009,
                    "velocity": 0.4566929133858268,
                    "duration": 1.0650885000000017
                },
                {
                    "name": "G3",
                    "midi": 55,
                    "time": 104.37867300000009,
                    "velocity": 0.3858267716535433,
                    "duration": 2.1301770000000033
                },
                {
                    "name": "A#3",
                    "midi": 58,
                    "time": 104.37867300000009,
                    "velocity": 0.3858267716535433,
                    "duration": 1.0650885000000017
                },
                {
                    "name": "C4",
                    "midi": 60,
                    "time": 105.4437615000001,
                    "velocity": 0.4251968503937008,
                    "duration": 0.35502950000000055
                },
                {
                    "name": "D#4",
                    "midi": 63,
                    "time": 105.7987910000001,
                    "velocity": 0.4566929133858268,
                    "duration": 0.35502950000000055
                },
                {
                    "name": "D4",
                    "midi": 62,
                    "time": 106.1538205000001,
                    "velocity": 0.4015748031496063,
                    "duration": 0.35502950000000055
                },
                {
                    "name": "A#3",
                    "midi": 58,
                    "time": 106.5088500000001,
                    "velocity": 0.3779527559055118,
                    "duration": 2.1301770000000033
                },
                {
                    "name": "F3",
                    "midi": 53,
                    "time": 106.5088500000001,
                    "velocity": 0.3779527559055118,
                    "duration": 2.1301770000000033
                },
                {
                    "name": "D4",
                    "midi": 62,
                    "time": 106.5088500000001,
                    "velocity": 0.44881889763779526,
                    "duration": 1.4201180000000022
                },
                {
                    "name": "F4",
                    "midi": 65,
                    "time": 106.5088500000001,
                    "velocity": 0.44881889763779526,
                    "duration": 2.1301770000000033
                },
                {
                    "name": "A#3",
                    "midi": 58,
                    "time": 108.6390270000001,
                    "velocity": 0.3858267716535433,
                    "duration": 1.0650885000000017
                },
                {
                    "name": "D4",
                    "midi": 62,
                    "time": 108.6390270000001,
                    "velocity": 0.4566929133858268,
                    "duration": 1.0650885000000017
                },
                {
                    "name": "G3",
                    "midi": 55,
                    "time": 108.6390270000001,
                    "velocity": 0.3858267716535433,
                    "duration": 2.1301770000000033
                },
                {
                    "name": "G4",
                    "midi": 67,
                    "time": 108.6390270000001,
                    "velocity": 0.4566929133858268,
                    "duration": 2.1301770000000033
                },
                {
                    "name": "C4",
                    "midi": 60,
                    "time": 109.7041155000001,
                    "velocity": 0.4251968503937008,
                    "duration": 0.35502950000000055
                },
                {
                    "name": "D#4",
                    "midi": 63,
                    "time": 110.0591450000001,
                    "velocity": 0.4566929133858268,
                    "duration": 0.35502950000000055
                },
                {
                    "name": "D4",
                    "midi": 62,
                    "time": 110.4141745000001,
                    "velocity": 0.4015748031496063,
                    "duration": 0.35502950000000055
                },
                {
                    "name": "F3",
                    "midi": 53,
                    "time": 110.7692040000001,
                    "velocity": 0.3779527559055118,
                    "duration": 6.390530999999996
                },
                {
                    "name": "A#3",
                    "midi": 58,
                    "time": 110.7692040000001,
                    "velocity": 0.3779527559055118,
                    "duration": 6.390530999999996
                },
                {
                    "name": "D4",
                    "midi": 62,
                    "time": 110.7692040000001,
                    "velocity": 0.44881889763779526,
                    "duration": 6.390530999999996
                },
                {
                    "name": "F4",
                    "midi": 65,
                    "time": 110.7692040000001,
                    "velocity": 0.44881889763779526,
                    "duration": 6.390530999999996
                },
                {
                    "name": "C4",
                    "midi": 60,
                    "time": 121.4200890000001,
                    "velocity": 0.47244094488188976,
                    "duration": 2.1301770000000033
                },
                {
                    "name": "F3",
                    "midi": 53,
                    "time": 121.4200890000001,
                    "velocity": 0.47244094488188976,
                    "duration": 2.1301770000000033
                },
                {
                    "name": "D#4",
                    "midi": 63,
                    "time": 121.4200890000001,
                    "velocity": 0.5590551181102362,
                    "duration": 2.1301770000000033
                },
                {
                    "name": "F4",
                    "midi": 65,
                    "time": 121.4200890000001,
                    "velocity": 0.5590551181102362,
                    "duration": 2.1301770000000033
                },
                {
                    "name": "F4",
                    "midi": 65,
                    "time": 123.55026600000011,
                    "velocity": 0.5590551181102362,
                    "duration": 2.1301770000000033
                },
                {
                    "name": "A#3",
                    "midi": 58,
                    "time": 123.55026600000011,
                    "velocity": 0.48031496062992124,
                    "duration": 2.1301770000000033
                },
                {
                    "name": "D4",
                    "midi": 62,
                    "time": 123.55026600000011,
                    "velocity": 0.5669291338582677,
                    "duration": 2.1301770000000033
                },
                {
                    "name": "F3",
                    "midi": 53,
                    "time": 123.55026600000011,
                    "velocity": 0.48031496062992124,
                    "duration": 2.1301770000000033
                }
            ],
            "controlChanges": {
                "7": [
                    {
                        "number": 7,
                        "time": 0,
                        "value": 0.7874015748031497
                    }
                ],
                "10": [
                    {
                        "number": 10,
                        "time": 0,
                        "value": 0.5039370078740157
                    }
                ],
                "64": [
                    {
                        "number": 64,
                        "time": 0,
                        "value": 0
                    }
                ],
                "91": [
                    {
                        "number": 91,
                        "time": 0,
                        "value": 1
                    }
                ]
            },
            "id": 1,
            "name": "Piano right",
            "instrumentNumber": 0,
            "instrument": "acoustic grand piano",
            "instrumentFamily": "piano",
            "channelNumber": 0,
            "isPercussion": false
        },
        {
            "startTime": 0,
            "duration": 125.68044300000015,
            "length": 558,
            "notes": [
                {
                    "name": "A#1",
                    "midi": 34,
                    "time": 0,
                    "velocity": 0.3937007874015748,
                    "duration": 0.3550295
                },
                {
                    "name": "F3",
                    "midi": 53,
                    "time": 0.3550295,
                    "velocity": 0.31496062992125984,
                    "duration": 0.3550295
                },
                {
                    "name": "E3",
                    "midi": 52,
                    "time": 0.710059,
                    "velocity": 0.25196850393700787,
                    "duration": 0.3550295000000001
                },
                {
                    "name": "G3",
                    "midi": 55,
                    "time": 0.710059,
                    "velocity": 0.31496062992125984,
                    "duration": 0.3550295000000001
                },
                {
                    "name": "D#3",
                    "midi": 51,
                    "time": 1.0650885,
                    "velocity": 0.25196850393700787,
                    "duration": 0.3550294999999999
                },
                {
                    "name": "A3",
                    "midi": 57,
                    "time": 1.0650885,
                    "velocity": 0.3228346456692913,
                    "duration": 0.3550294999999999
                },
                {
                    "name": "D3",
                    "midi": 50,
                    "time": 1.420118,
                    "velocity": 0.2755905511811024,
                    "duration": 0.3550294999999999
                },
                {
                    "name": "A#3",
                    "midi": 58,
                    "time": 1.420118,
                    "velocity": 0.3464566929133858,
                    "duration": 0.3550294999999999
                },
                {
                    "name": "C3",
                    "midi": 48,
                    "time": 1.7751474999999999,
                    "velocity": 0.2755905511811024,
                    "duration": 0.3550294999999999
                },
                {
                    "name": "C4",
                    "midi": 60,
                    "time": 1.7751474999999999,
                    "velocity": 0.3543307086614173,
                    "duration": 0.3550294999999999
                },
                {
                    "name": "A#2",
                    "midi": 46,
                    "time": 2.1301769999999998,
                    "velocity": 0.3937007874015748,
                    "duration": 0.3550295000000001
                },
                {
                    "name": "F3",
                    "midi": 53,
                    "time": 2.4852065,
                    "velocity": 0.2204724409448819,
                    "duration": 0.3550295000000001
                },
                {
                    "name": "D4",
                    "midi": 62,
                    "time": 2.4852065,
                    "velocity": 0.28346456692913385,
                    "duration": 0.3550295000000001
                },
                {
                    "name": "E3",
                    "midi": 52,
                    "time": 2.840236,
                    "velocity": 0.2755905511811024,
                    "duration": 0.35502949999999966
                },
                {
                    "name": "G3",
                    "midi": 55,
                    "time": 2.840236,
                    "velocity": 0.3464566929133858,
                    "duration": 0.35502949999999966
                },
                {
                    "name": "D#3",
                    "midi": 51,
                    "time": 3.1952654999999996,
                    "velocity": 0.29133858267716534,
                    "duration": 0.3550295000000001
                },
                {
                    "name": "A3",
                    "midi": 57,
                    "time": 3.1952654999999996,
                    "velocity": 0.3700787401574803,
                    "duration": 0.3550295000000001
                },
                {
                    "name": "D3",
                    "midi": 50,
                    "time": 3.5502949999999998,
                    "velocity": 0.31496062992125984,
                    "duration": 0.3550295000000001
                },
                {
                    "name": "A#3",
                    "midi": 58,
                    "time": 3.5502949999999998,
                    "velocity": 0.3937007874015748,
                    "duration": 0.3550295000000001
                },
                {
                    "name": "A#2",
                    "midi": 46,
                    "time": 3.9053245,
                    "velocity": 0.31496062992125984,
                    "duration": 0.35502949999999966
                },
                {
                    "name": "D#2",
                    "midi": 39,
                    "time": 4.2603539999999995,
                    "velocity": 0.3937007874015748,
                    "duration": 0.35502949999999966
                },
                {
                    "name": "G3",
                    "midi": 55,
                    "time": 4.615383499999999,
                    "velocity": 0.30708661417322836,
                    "duration": 0.35502949999999966
                },
                {
                    "name": "A3",
                    "midi": 57,
                    "time": 4.970412999999999,
                    "velocity": 0.31496062992125984,
                    "duration": 0.35502949999999966
                },
                {
                    "name": "F#3",
                    "midi": 54,
                    "time": 4.970412999999999,
                    "velocity": 0.25196850393700787,
                    "duration": 0.35502949999999966
                },
                {
                    "name": "F3",
                    "midi": 53,
                    "time": 5.3254424999999985,
                    "velocity": 0.2440944881889764,
                    "duration": 0.35502949999999966
                },
                {
                    "name": "B3",
                    "midi": 59,
                    "time": 5.3254424999999985,
                    "velocity": 0.30708661417322836,
                    "duration": 0.35502949999999966
                },
                {
                    "name": "D#3",
                    "midi": 51,
                    "time": 5.680471999999998,
                    "velocity": 0.2755905511811024,
                    "duration": 0.35502950000000055
                },
                {
                    "name": "C4",
                    "midi": 60,
                    "time": 5.680471999999998,
                    "velocity": 0.3464566929133858,
                    "duration": 0.35502950000000055
                },
                {
                    "name": "D3",
                    "midi": 50,
                    "time": 6.035501499999999,
                    "velocity": 0.28346456692913385,
                    "duration": 0.35502949999999966
                },
                {
                    "name": "D4",
                    "midi": 62,
                    "time": 6.035501499999999,
                    "velocity": 0.3700787401574803,
                    "duration": 0.35502949999999966
                },
                {
                    "name": "C3",
                    "midi": 48,
                    "time": 6.390530999999998,
                    "velocity": 0.3937007874015748,
                    "duration": 0.35502949999999966
                },
                {
                    "name": "D#4",
                    "midi": 63,
                    "time": 6.745560499999998,
                    "velocity": 0.3228346456692913,
                    "duration": 0.35502949999999966
                },
                {
                    "name": "G3",
                    "midi": 55,
                    "time": 6.745560499999998,
                    "velocity": 0.25196850393700787,
                    "duration": 0.35502949999999966
                },
                {
                    "name": "F#3",
                    "midi": 54,
                    "time": 7.100589999999998,
                    "velocity": 0.2755905511811024,
                    "duration": 0.35502949999999966
                },
                {
                    "name": "A3",
                    "midi": 57,
                    "time": 7.100589999999998,
                    "velocity": 0.3464566929133858,
                    "duration": 0.35502949999999966
                },
                {
                    "name": "F3",
                    "midi": 53,
                    "time": 7.455619499999997,
                    "velocity": 0.29133858267716534,
                    "duration": 0.35502949999999966
                },
                {
                    "name": "B3",
                    "midi": 59,
                    "time": 7.455619499999997,
                    "velocity": 0.3700787401574803,
                    "duration": 0.35502949999999966
                },
                {
                    "name": "D#3",
                    "midi": 51,
                    "time": 7.810648999999997,
                    "velocity": 0.31496062992125984,
                    "duration": 0.35502949999999966
                },
                {
                    "name": "C4",
                    "midi": 60,
                    "time": 7.810648999999997,
                    "velocity": 0.3937007874015748,
                    "duration": 0.35502949999999966
                },
                {
                    "name": "D#4",
                    "midi": 63,
                    "time": 8.165678499999997,
                    "velocity": 0.4094488188976378,
                    "duration": 0.35502950000000055
                },
                {
                    "name": "C3",
                    "midi": 48,
                    "time": 8.165678499999997,
                    "velocity": 0.3228346456692913,
                    "duration": 0.35502950000000055
                },
                {
                    "name": "F2",
                    "midi": 41,
                    "time": 8.520707999999997,
                    "velocity": 0.3937007874015748,
                    "duration": 0.35502950000000055
                },
                {
                    "name": "F#4",
                    "midi": 66,
                    "time": 8.875737499999998,
                    "velocity": 0.33070866141732286,
                    "duration": 0.35502950000000055
                },
                {
                    "name": "A#3",
                    "midi": 58,
                    "time": 8.875737499999998,
                    "velocity": 0.25984251968503935,
                    "duration": 0.35502950000000055
                },
                {
                    "name": "F4",
                    "midi": 65,
                    "time": 9.230766999999998,
                    "velocity": 0.33858267716535434,
                    "duration": 0.35502950000000055
                },
                {
                    "name": "A3",
                    "midi": 57,
                    "time": 9.230766999999998,
                    "velocity": 0.2677165354330709,
                    "duration": 0.35502950000000055
                },
                {
                    "name": "G#3",
                    "midi": 56,
                    "time": 9.585796499999999,
                    "velocity": 0.2440944881889764,
                    "duration": 0.35502950000000055
                },
                {
                    "name": "C4",
                    "midi": 60,
                    "time": 9.585796499999999,
                    "velocity": 0.30708661417322836,
                    "duration": 0.35502950000000055
                },
                {
                    "name": "D#4",
                    "midi": 63,
                    "time": 9.940826,
                    "velocity": 0.31496062992125984,
                    "duration": 0.35502950000000055
                },
                {
                    "name": "G3",
                    "midi": 55,
                    "time": 9.940826,
                    "velocity": 0.25196850393700787,
                    "duration": 0.35502950000000055
                },
                {
                    "name": "A#3",
                    "midi": 58,
                    "time": 10.2958555,
                    "velocity": 0.29133858267716534,
                    "duration": 0.35502950000000055
                },
                {
                    "name": "F#3",
                    "midi": 54,
                    "time": 10.2958555,
                    "velocity": 0.2283464566929134,
                    "duration": 0.35502950000000055
                },
                {
                    "name": "F2",
                    "midi": 41,
                    "time": 10.650885,
                    "velocity": 0.3937007874015748,
                    "duration": 0.35502950000000055
                },
                {
                    "name": "D#4",
                    "midi": 63,
                    "time": 11.005914500000001,
                    "velocity": 0.3228346456692913,
                    "duration": 0.35502950000000055
                },
                {
                    "name": "F#3",
                    "midi": 54,
                    "time": 11.005914500000001,
                    "velocity": 0.25196850393700787,
                    "duration": 0.35502950000000055
                },
                {
                    "name": "D4",
                    "midi": 62,
                    "time": 11.360944000000002,
                    "velocity": 0.3543307086614173,
                    "duration": 0.35502950000000055
                },
                {
                    "name": "F3",
                    "midi": 53,
                    "time": 11.360944000000002,
                    "velocity": 0.28346456692913385,
                    "duration": 0.35502950000000055
                },
                {
                    "name": "E3",
                    "midi": 52,
                    "time": 11.715973500000002,
                    "velocity": 0.2440944881889764,
                    "duration": 0.35502950000000055
                },
                {
                    "name": "G3",
                    "midi": 55,
                    "time": 11.715973500000002,
                    "velocity": 0.30708661417322836,
                    "duration": 0.35502950000000055
                },
                {
                    "name": "D#3",
                    "midi": 51,
                    "time": 12.071003000000003,
                    "velocity": 0.2440944881889764,
                    "duration": 0.35502950000000055
                },
                {
                    "name": "A3",
                    "midi": 57,
                    "time": 12.071003000000003,
                    "velocity": 0.30708661417322836,
                    "duration": 0.35502950000000055
                },
                {
                    "name": "F3",
                    "midi": 53,
                    "time": 12.426032500000003,
                    "velocity": 0.28346456692913385,
                    "duration": 0.35502950000000055
                },
                {
                    "name": "A#2",
                    "midi": 46,
                    "time": 12.781062000000004,
                    "velocity": 0.3937007874015748,
                    "duration": 0.35502950000000055
                },
                {
                    "name": "F3",
                    "midi": 53,
                    "time": 13.136091500000004,
                    "velocity": 0.3228346456692913,
                    "duration": 0.35502950000000055
                },
                {
                    "name": "E3",
                    "midi": 52,
                    "time": 13.491121000000005,
                    "velocity": 0.25196850393700787,
                    "duration": 0.3550294999999988
                },
                {
                    "name": "G3",
                    "midi": 55,
                    "time": 13.491121000000005,
                    "velocity": 0.3228346456692913,
                    "duration": 0.3550294999999988
                },
                {
                    "name": "D#3",
                    "midi": 51,
                    "time": 13.846150500000004,
                    "velocity": 0.2204724409448819,
                    "duration": 0.35502950000000055
                },
                {
                    "name": "A3",
                    "midi": 57,
                    "time": 13.846150500000004,
                    "velocity": 0.28346456692913385,
                    "duration": 0.35502950000000055
                },
                {
                    "name": "D3",
                    "midi": 50,
                    "time": 14.201180000000004,
                    "velocity": 0.25196850393700787,
                    "duration": 0.35502950000000055
                },
                {
                    "name": "A#3",
                    "midi": 58,
                    "time": 14.201180000000004,
                    "velocity": 0.3228346456692913,
                    "duration": 0.35502950000000055
                },
                {
                    "name": "C3",
                    "midi": 48,
                    "time": 14.556209500000005,
                    "velocity": 0.2204724409448819,
                    "duration": 0.35502950000000055
                },
                {
                    "name": "C4",
                    "midi": 60,
                    "time": 14.556209500000005,
                    "velocity": 0.28346456692913385,
                    "duration": 0.35502950000000055
                },
                {
                    "name": "A#2",
                    "midi": 46,
                    "time": 14.911239000000005,
                    "velocity": 0.3937007874015748,
                    "duration": 0.3550294999999988
                },
                {
                    "name": "F3",
                    "midi": 53,
                    "time": 15.266268500000004,
                    "velocity": 0.2204724409448819,
                    "duration": 0.35502950000000055
                },
                {
                    "name": "D4",
                    "midi": 62,
                    "time": 15.266268500000004,
                    "velocity": 0.28346456692913385,
                    "duration": 0.35502950000000055
                },
                {
                    "name": "E3",
                    "midi": 52,
                    "time": 15.621298000000005,
                    "velocity": 0.25196850393700787,
                    "duration": 0.3550294999999988
                },
                {
                    "name": "G3",
                    "midi": 55,
                    "time": 15.621298000000005,
                    "velocity": 0.3228346456692913,
                    "duration": 0.3550294999999988
                },
                {
                    "name": "D#3",
                    "midi": 51,
                    "time": 15.976327500000004,
                    "velocity": 0.2204724409448819,
                    "duration": 0.35502950000000055
                },
                {
                    "name": "A3",
                    "midi": 57,
                    "time": 15.976327500000004,
                    "velocity": 0.28346456692913385,
                    "duration": 0.35502950000000055
                },
                {
                    "name": "D3",
                    "midi": 50,
                    "time": 16.331357000000004,
                    "velocity": 0.25196850393700787,
                    "duration": 0.35502950000000055
                },
                {
                    "name": "A#3",
                    "midi": 58,
                    "time": 16.331357000000004,
                    "velocity": 0.3228346456692913,
                    "duration": 0.35502950000000055
                },
                {
                    "name": "C3",
                    "midi": 48,
                    "time": 16.686386500000005,
                    "velocity": 0.2283464566929134,
                    "duration": 0.35502950000000055
                },
                {
                    "name": "C4",
                    "midi": 60,
                    "time": 16.686386500000005,
                    "velocity": 0.29133858267716534,
                    "duration": 0.35502950000000055
                },
                {
                    "name": "G2",
                    "midi": 43,
                    "time": 17.041416000000005,
                    "velocity": 0.3937007874015748,
                    "duration": 0.355029499999997
                },
                {
                    "name": "D4",
                    "midi": 62,
                    "time": 17.396445500000002,
                    "velocity": 0.33070866141732286,
                    "duration": 0.35502950000000055
                },
                {
                    "name": "C#4",
                    "midi": 61,
                    "time": 17.751475000000003,
                    "velocity": 0.25984251968503935,
                    "duration": 0.35502950000000055
                },
                {
                    "name": "E4",
                    "midi": 64,
                    "time": 17.751475000000003,
                    "velocity": 0.33070866141732286,
                    "duration": 0.35502950000000055
                },
                {
                    "name": "C4",
                    "midi": 60,
                    "time": 18.106504500000003,
                    "velocity": 0.25984251968503935,
                    "duration": 0.35502950000000055
                },
                {
                    "name": "F#4",
                    "midi": 66,
                    "time": 18.106504500000003,
                    "velocity": 0.33858267716535434,
                    "duration": 0.35502950000000055
                },
                {
                    "name": "A#3",
                    "midi": 58,
                    "time": 18.461534000000004,
                    "velocity": 0.28346456692913385,
                    "duration": 0.35502950000000055
                },
                {
                    "name": "G4",
                    "midi": 67,
                    "time": 18.461534000000004,
                    "velocity": 0.36220472440944884,
                    "duration": 0.35502950000000055
                },
                {
                    "name": "A3",
                    "midi": 57,
                    "time": 18.816563500000004,
                    "velocity": 0.29133858267716534,
                    "duration": 0.35502950000000055
                },
                {
                    "name": "A4",
                    "midi": 69,
                    "time": 18.816563500000004,
                    "velocity": 0.3779527559055118,
                    "duration": 0.35502950000000055
                },
                {
                    "name": "A#2",
                    "midi": 46,
                    "time": 19.171593000000005,
                    "velocity": 0.3937007874015748,
                    "duration": 0.35502950000000055
                },
                {
                    "name": "A#3",
                    "midi": 58,
                    "time": 19.526622500000006,
                    "velocity": 0.31496062992125984,
                    "duration": 0.35502950000000055
                },
                {
                    "name": "A3",
                    "midi": 57,
                    "time": 19.881652000000006,
                    "velocity": 0.25196850393700787,
                    "duration": 0.35502950000000055
                },
                {
                    "name": "C4",
                    "midi": 60,
                    "time": 19.881652000000006,
                    "velocity": 0.31496062992125984,
                    "duration": 0.35502950000000055
                },
                {
                    "name": "G#3",
                    "midi": 56,
                    "time": 20.236681500000007,
                    "velocity": 0.25196850393700787,
                    "duration": 0.35502950000000055
                },
                {
                    "name": "D4",
                    "midi": 62,
                    "time": 20.236681500000007,
                    "velocity": 0.3228346456692913,
                    "duration": 0.35502950000000055
                },
                {
                    "name": "G3",
                    "midi": 55,
                    "time": 20.591711000000007,
                    "velocity": 0.2755905511811024,
                    "duration": 0.35502950000000055
                },
                {
                    "name": "D#4",
                    "midi": 63,
                    "time": 20.591711000000007,
                    "velocity": 0.3464566929133858,
                    "duration": 0.35502950000000055
                },
                {
                    "name": "F3",
                    "midi": 53,
                    "time": 20.946740500000008,
                    "velocity": 0.2992125984251969,
                    "duration": 0.35502950000000055
                },
                {
                    "name": "F4",
                    "midi": 65,
                    "time": 20.946740500000008,
                    "velocity": 0.3779527559055118,
                    "duration": 0.35502950000000055
                },
                {
                    "name": "D#2",
                    "midi": 39,
                    "time": 21.30177000000001,
                    "velocity": 0.3937007874015748,
                    "duration": 0.35502950000000055
                },
                {
                    "name": "G3",
                    "midi": 55,
                    "time": 21.65679950000001,
                    "velocity": 0.31496062992125984,
                    "duration": 0.35502950000000055
                },
                {
                    "name": "F#3",
                    "midi": 54,
                    "time": 22.01182900000001,
                    "velocity": 0.25196850393700787,
                    "duration": 0.35502950000000055
                },
                {
                    "name": "A3",
                    "midi": 57,
                    "time": 22.01182900000001,
                    "velocity": 0.31496062992125984,
                    "duration": 0.35502950000000055
                },
                {
                    "name": "F3",
                    "midi": 53,
                    "time": 22.36685850000001,
                    "velocity": 0.25196850393700787,
                    "duration": 0.35502950000000055
                },
                {
                    "name": "B3",
                    "midi": 59,
                    "time": 22.36685850000001,
                    "velocity": 0.3228346456692913,
                    "duration": 0.35502950000000055
                },
                {
                    "name": "D#3",
                    "midi": 51,
                    "time": 22.72188800000001,
                    "velocity": 0.2755905511811024,
                    "duration": 0.35502950000000055
                },
                {
                    "name": "C4",
                    "midi": 60,
                    "time": 22.72188800000001,
                    "velocity": 0.3464566929133858,
                    "duration": 0.35502950000000055
                },
                {
                    "name": "D3",
                    "midi": 50,
                    "time": 23.07691750000001,
                    "velocity": 0.28346456692913385,
                    "duration": 0.35502950000000055
                },
                {
                    "name": "D4",
                    "midi": 62,
                    "time": 23.07691750000001,
                    "velocity": 0.36220472440944884,
                    "duration": 0.35502950000000055
                },
                {
                    "name": "C3",
                    "midi": 48,
                    "time": 23.43194700000001,
                    "velocity": 0.3937007874015748,
                    "duration": 0.35502950000000055
                },
                {
                    "name": "G3",
                    "midi": 55,
                    "time": 23.786976500000012,
                    "velocity": 0.25196850393700787,
                    "duration": 0.35502950000000055
                },
                {
                    "name": "D#4",
                    "midi": 63,
                    "time": 23.786976500000012,
                    "velocity": 0.31496062992125984,
                    "duration": 0.35502950000000055
                },
                {
                    "name": "F#3",
                    "midi": 54,
                    "time": 24.142006000000013,
                    "velocity": 0.25196850393700787,
                    "duration": 0.3550295000000041
                },
                {
                    "name": "A3",
                    "midi": 57,
                    "time": 24.142006000000013,
                    "velocity": 0.31496062992125984,
                    "duration": 0.3550295000000041
                },
                {
                    "name": "F3",
                    "midi": 53,
                    "time": 24.497035500000017,
                    "velocity": 0.25196850393700787,
                    "duration": 0.35502950000000055
                },
                {
                    "name": "B3",
                    "midi": 59,
                    "time": 24.497035500000017,
                    "velocity": 0.3228346456692913,
                    "duration": 0.35502950000000055
                },
                {
                    "name": "D#3",
                    "midi": 51,
                    "time": 24.852065000000017,
                    "velocity": 0.2755905511811024,
                    "duration": 0.35502950000000055
                },
                {
                    "name": "C4",
                    "midi": 60,
                    "time": 24.852065000000017,
                    "velocity": 0.3464566929133858,
                    "duration": 0.35502950000000055
                },
                {
                    "name": "C3",
                    "midi": 48,
                    "time": 25.207094500000018,
                    "velocity": 0.2755905511811024,
                    "duration": 0.35502950000000055
                },
                {
                    "name": "D#4",
                    "midi": 63,
                    "time": 25.207094500000018,
                    "velocity": 0.3543307086614173,
                    "duration": 0.35502950000000055
                },
                {
                    "name": "F2",
                    "midi": 41,
                    "time": 25.56212400000002,
                    "velocity": 0.3937007874015748,
                    "duration": 0.35502950000000055
                },
                {
                    "name": "D5",
                    "midi": 74,
                    "time": 25.91715350000002,
                    "velocity": 0.3937007874015748,
                    "duration": 0.35502950000000055
                },
                {
                    "name": "F4",
                    "midi": 65,
                    "time": 25.91715350000002,
                    "velocity": 0.31496062992125984,
                    "duration": 0.35502950000000055
                },
                {
                    "name": "G4",
                    "midi": 67,
                    "time": 26.27218300000002,
                    "velocity": 0.3779527559055118,
                    "duration": 0.3550295000000041
                },
                {
                    "name": "E4",
                    "midi": 64,
                    "time": 26.27218300000002,
                    "velocity": 0.2992125984251969,
                    "duration": 0.3550295000000041
                },
                {
                    "name": "A4",
                    "midi": 69,
                    "time": 26.627212500000024,
                    "velocity": 0.36220472440944884,
                    "duration": 0.35502950000000055
                },
                {
                    "name": "D#4",
                    "midi": 63,
                    "time": 26.627212500000024,
                    "velocity": 0.28346456692913385,
                    "duration": 0.35502950000000055
                },
                {
                    "name": "D4",
                    "midi": 62,
                    "time": 26.982242000000024,
                    "velocity": 0.2755905511811024,
                    "duration": 0.35502950000000055
                },
                {
                    "name": "A#4",
                    "midi": 70,
                    "time": 26.982242000000024,
                    "velocity": 0.3464566929133858,
                    "duration": 0.35502950000000055
                },
                {
                    "name": "F4",
                    "midi": 65,
                    "time": 27.337271500000025,
                    "velocity": 0.3228346456692913,
                    "duration": 0.35502950000000055
                },
                {
                    "name": "C#4",
                    "midi": 61,
                    "time": 27.337271500000025,
                    "velocity": 0.25196850393700787,
                    "duration": 0.35502950000000055
                },
                {
                    "name": "C4",
                    "midi": 60,
                    "time": 27.692301000000025,
                    "velocity": 0.2992125984251969,
                    "duration": 0.35502950000000055
                },
                {
                    "name": "G#4",
                    "midi": 68,
                    "time": 27.692301000000025,
                    "velocity": 0.3779527559055118,
                    "duration": 0.35502950000000055
                },
                {
                    "name": "F#4",
                    "midi": 66,
                    "time": 28.047330500000026,
                    "velocity": 0.36220472440944884,
                    "duration": 0.35502950000000055
                },
                {
                    "name": "A#3",
                    "midi": 58,
                    "time": 28.047330500000026,
                    "velocity": 0.28346456692913385,
                    "duration": 0.35502950000000055
                },
                {
                    "name": "A3",
                    "midi": 57,
                    "time": 28.402360000000026,
                    "velocity": 0.28346456692913385,
                    "duration": 0.35502950000000055
                },
                {
                    "name": "C4",
                    "midi": 60,
                    "time": 28.402360000000026,
                    "velocity": 0.3543307086614173,
                    "duration": 0.35502950000000055
                },
                {
                    "name": "G#3",
                    "midi": 56,
                    "time": 28.757389500000027,
                    "velocity": 0.2677165354330709,
                    "duration": 0.35502950000000055
                },
                {
                    "name": "D4",
                    "midi": 62,
                    "time": 28.757389500000027,
                    "velocity": 0.3464566929133858,
                    "duration": 0.35502950000000055
                },
                {
                    "name": "D#4",
                    "midi": 63,
                    "time": 29.112419000000028,
                    "velocity": 0.33858267716535434,
                    "duration": 0.3550295000000041
                },
                {
                    "name": "G3",
                    "midi": 55,
                    "time": 29.112419000000028,
                    "velocity": 0.25984251968503935,
                    "duration": 0.3550295000000041
                },
                {
                    "name": "F#3",
                    "midi": 54,
                    "time": 29.46744850000003,
                    "velocity": 0.25196850393700787,
                    "duration": 0.35502950000000055
                },
                {
                    "name": "A#3",
                    "midi": 58,
                    "time": 29.46744850000003,
                    "velocity": 0.3228346456692913,
                    "duration": 0.35502950000000055
                },
                {
                    "name": "A#2",
                    "midi": 46,
                    "time": 29.822478000000032,
                    "velocity": 0.3937007874015748,
                    "duration": 0.35502950000000055
                },
                {
                    "name": "F3",
                    "midi": 53,
                    "time": 30.177507500000033,
                    "velocity": 0.2677165354330709,
                    "duration": 0.35502950000000055
                },
                {
                    "name": "D4",
                    "midi": 62,
                    "time": 30.177507500000033,
                    "velocity": 0.33858267716535434,
                    "duration": 0.35502950000000055
                },
                {
                    "name": "E3",
                    "midi": 52,
                    "time": 30.532537000000033,
                    "velocity": 0.2677165354330709,
                    "duration": 0.35502950000000055
                },
                {
                    "name": "G3",
                    "midi": 55,
                    "time": 30.532537000000033,
                    "velocity": 0.33858267716535434,
                    "duration": 0.35502950000000055
                },
                {
                    "name": "D#3",
                    "midi": 51,
                    "time": 30.887566500000034,
                    "velocity": 0.25196850393700787,
                    "duration": 0.35502950000000055
                },
                {
                    "name": "A3",
                    "midi": 57,
                    "time": 30.887566500000034,
                    "velocity": 0.3228346456692913,
                    "duration": 0.35502950000000055
                },
                {
                    "name": "D3",
                    "midi": 50,
                    "time": 31.242596000000034,
                    "velocity": 0.25196850393700787,
                    "duration": 0.355029499999997
                },
                {
                    "name": "A#3",
                    "midi": 58,
                    "time": 31.242596000000034,
                    "velocity": 0.31496062992125984,
                    "duration": 0.355029499999997
                },
                {
                    "name": "F3",
                    "midi": 53,
                    "time": 31.59762550000003,
                    "velocity": 0.29133858267716534,
                    "duration": 0.35502950000000055
                },
                {
                    "name": "A#2",
                    "midi": 46,
                    "time": 31.952655000000032,
                    "velocity": 0.3937007874015748,
                    "duration": 0.3550295000000041
                },
                {
                    "name": "F3",
                    "midi": 53,
                    "time": 32.307684500000036,
                    "velocity": 0.2755905511811024,
                    "duration": 0.35502950000000055
                },
                {
                    "name": "D4",
                    "midi": 62,
                    "time": 32.307684500000036,
                    "velocity": 0.3464566929133858,
                    "duration": 0.35502950000000055
                },
                {
                    "name": "E3",
                    "midi": 52,
                    "time": 32.66271400000004,
                    "velocity": 0.25196850393700787,
                    "duration": 0.35502950000000766
                },
                {
                    "name": "G3",
                    "midi": 55,
                    "time": 32.66271400000004,
                    "velocity": 0.3228346456692913,
                    "duration": 0.35502950000000766
                },
                {
                    "name": "D#3",
                    "midi": 51,
                    "time": 33.017743500000044,
                    "velocity": 0.23622047244094488,
                    "duration": 0.35502950000000055
                },
                {
                    "name": "A3",
                    "midi": 57,
                    "time": 33.017743500000044,
                    "velocity": 0.2992125984251969,
                    "duration": 0.35502950000000055
                },
                {
                    "name": "D3",
                    "midi": 50,
                    "time": 33.372773000000045,
                    "velocity": 0.2283464566929134,
                    "duration": 0.35502950000000766
                },
                {
                    "name": "A#3",
                    "midi": 58,
                    "time": 33.372773000000045,
                    "velocity": 0.28346456692913385,
                    "duration": 0.35502950000000766
                },
                {
                    "name": "A#2",
                    "midi": 46,
                    "time": 33.72780250000005,
                    "velocity": 0.25196850393700787,
                    "duration": 0.35502950000000055
                },
                {
                    "name": "F#1",
                    "midi": 30,
                    "time": 34.08283200000005,
                    "velocity": 0.5039370078740157,
                    "duration": 0.35502950000000055
                },
                {
                    "name": "C#3",
                    "midi": 49,
                    "time": 34.437861500000054,
                    "velocity": 0.3228346456692913,
                    "duration": 0.35502950000000055
                },
                {
                    "name": "A#3",
                    "midi": 58,
                    "time": 34.437861500000054,
                    "velocity": 0.3858267716535433,
                    "duration": 0.35502950000000055
                },
                {
                    "name": "C#4",
                    "midi": 61,
                    "time": 34.792891000000054,
                    "velocity": 0.41732283464566927,
                    "duration": 0.35502950000000055
                },
                {
                    "name": "F#3",
                    "midi": 54,
                    "time": 34.792891000000054,
                    "velocity": 0.3464566929133858,
                    "duration": 0.35502950000000055
                },
                {
                    "name": "D#4",
                    "midi": 63,
                    "time": 35.147920500000055,
                    "velocity": 0.3779527559055118,
                    "duration": 0.35502950000000055
                },
                {
                    "name": "A#3",
                    "midi": 58,
                    "time": 35.147920500000055,
                    "velocity": 0.31496062992125984,
                    "duration": 0.35502950000000055
                },
                {
                    "name": "F#3",
                    "midi": 54,
                    "time": 35.502950000000055,
                    "velocity": 0.36220472440944884,
                    "duration": 0.35502950000000055
                },
                {
                    "name": "C#4",
                    "midi": 61,
                    "time": 35.502950000000055,
                    "velocity": 0.4330708661417323,
                    "duration": 0.35502950000000055
                },
                {
                    "name": "C#3",
                    "midi": 49,
                    "time": 35.857979500000056,
                    "velocity": 0.33070866141732286,
                    "duration": 0.35502950000000055
                },
                {
                    "name": "A#3",
                    "midi": 58,
                    "time": 35.857979500000056,
                    "velocity": 0.3937007874015748,
                    "duration": 0.35502950000000055
                },
                {
                    "name": "F#3",
                    "midi": 54,
                    "time": 36.213009000000056,
                    "velocity": 0.3464566929133858,
                    "duration": 0.35502950000000055
                },
                {
                    "name": "C#4",
                    "midi": 61,
                    "time": 36.213009000000056,
                    "velocity": 0.41732283464566927,
                    "duration": 0.35502950000000055
                },
                {
                    "name": "A#3",
                    "midi": 58,
                    "time": 36.56803850000006,
                    "velocity": 0.3228346456692913,
                    "duration": 0.35502950000000055
                },
                {
                    "name": "D#4",
                    "midi": 63,
                    "time": 36.56803850000006,
                    "velocity": 0.3858267716535433,
                    "duration": 0.35502950000000055
                },
                {
                    "name": "C#4",
                    "midi": 61,
                    "time": 36.92306800000006,
                    "velocity": 0.41732283464566927,
                    "duration": 0.35502950000000055
                },
                {
                    "name": "F#3",
                    "midi": 54,
                    "time": 36.92306800000006,
                    "velocity": 0.3464566929133858,
                    "duration": 0.35502950000000055
                },
                {
                    "name": "A#3",
                    "midi": 58,
                    "time": 37.27809750000006,
                    "velocity": 0.3779527559055118,
                    "duration": 0.35502950000000055
                },
                {
                    "name": "C#3",
                    "midi": 49,
                    "time": 37.27809750000006,
                    "velocity": 0.31496062992125984,
                    "duration": 0.35502950000000055
                },
                {
                    "name": "F#3",
                    "midi": 54,
                    "time": 37.63312700000006,
                    "velocity": 0.36220472440944884,
                    "duration": 0.35502950000000055
                },
                {
                    "name": "C#4",
                    "midi": 61,
                    "time": 37.63312700000006,
                    "velocity": 0.4330708661417323,
                    "duration": 0.35502950000000055
                },
                {
                    "name": "A#3",
                    "midi": 58,
                    "time": 37.98815650000006,
                    "velocity": 0.33070866141732286,
                    "duration": 0.35502950000000055
                },
                {
                    "name": "D#4",
                    "midi": 63,
                    "time": 37.98815650000006,
                    "velocity": 0.3937007874015748,
                    "duration": 0.35502950000000055
                },
                {
                    "name": "F#3",
                    "midi": 54,
                    "time": 38.34318600000006,
                    "velocity": 0.3464566929133858,
                    "duration": 0.35502950000000055
                },
                {
                    "name": "C#4",
                    "midi": 61,
                    "time": 38.34318600000006,
                    "velocity": 0.41732283464566927,
                    "duration": 0.35502950000000055
                },
                {
                    "name": "C#3",
                    "midi": 49,
                    "time": 38.69821550000006,
                    "velocity": 0.3228346456692913,
                    "duration": 0.35502950000000055
                },
                {
                    "name": "A#3",
                    "midi": 58,
                    "time": 38.69821550000006,
                    "velocity": 0.3858267716535433,
                    "duration": 0.35502950000000055
                },
                {
                    "name": "C#4",
                    "midi": 61,
                    "time": 39.05324500000006,
                    "velocity": 0.41732283464566927,
                    "duration": 0.35502950000000055
                },
                {
                    "name": "F#3",
                    "midi": 54,
                    "time": 39.05324500000006,
                    "velocity": 0.3464566929133858,
                    "duration": 0.35502950000000055
                },
                {
                    "name": "D#4",
                    "midi": 63,
                    "time": 39.40827450000006,
                    "velocity": 0.3779527559055118,
                    "duration": 0.35502950000000055
                },
                {
                    "name": "A#3",
                    "midi": 58,
                    "time": 39.40827450000006,
                    "velocity": 0.31496062992125984,
                    "duration": 0.35502950000000055
                },
                {
                    "name": "F#3",
                    "midi": 54,
                    "time": 39.76330400000006,
                    "velocity": 0.36220472440944884,
                    "duration": 0.35502950000000055
                },
                {
                    "name": "C#4",
                    "midi": 61,
                    "time": 39.76330400000006,
                    "velocity": 0.4330708661417323,
                    "duration": 0.35502950000000055
                },
                {
                    "name": "C#3",
                    "midi": 49,
                    "time": 40.11833350000006,
                    "velocity": 0.33070866141732286,
                    "duration": 0.35502950000000055
                },
                {
                    "name": "A#3",
                    "midi": 58,
                    "time": 40.11833350000006,
                    "velocity": 0.3937007874015748,
                    "duration": 0.35502950000000055
                },
                {
                    "name": "C#4",
                    "midi": 61,
                    "time": 40.47336300000006,
                    "velocity": 0.41732283464566927,
                    "duration": 0.35502950000000055
                },
                {
                    "name": "F#3",
                    "midi": 54,
                    "time": 40.47336300000006,
                    "velocity": 0.3464566929133858,
                    "duration": 0.35502950000000055
                },
                {
                    "name": "D#4",
                    "midi": 63,
                    "time": 40.828392500000064,
                    "velocity": 0.3858267716535433,
                    "duration": 0.35502950000000055
                },
                {
                    "name": "A#3",
                    "midi": 58,
                    "time": 40.828392500000064,
                    "velocity": 0.3228346456692913,
                    "duration": 0.35502950000000055
                },
                {
                    "name": "C#4",
                    "midi": 61,
                    "time": 41.183422000000064,
                    "velocity": 0.41732283464566927,
                    "duration": 0.35502950000000055
                },
                {
                    "name": "F#3",
                    "midi": 54,
                    "time": 41.183422000000064,
                    "velocity": 0.3464566929133858,
                    "duration": 0.35502950000000055
                },
                {
                    "name": "A#3",
                    "midi": 58,
                    "time": 41.538451500000065,
                    "velocity": 0.3779527559055118,
                    "duration": 0.35502950000000055
                },
                {
                    "name": "C#3",
                    "midi": 49,
                    "time": 41.538451500000065,
                    "velocity": 0.31496062992125984,
                    "duration": 0.35502950000000055
                },
                {
                    "name": "F#3",
                    "midi": 54,
                    "time": 41.893481000000065,
                    "velocity": 0.36220472440944884,
                    "duration": 0.35502950000000055
                },
                {
                    "name": "C#4",
                    "midi": 61,
                    "time": 41.893481000000065,
                    "velocity": 0.4330708661417323,
                    "duration": 0.35502950000000055
                },
                {
                    "name": "A#3",
                    "midi": 58,
                    "time": 42.248510500000066,
                    "velocity": 0.33070866141732286,
                    "duration": 0.35502950000000055
                },
                {
                    "name": "D#4",
                    "midi": 63,
                    "time": 42.248510500000066,
                    "velocity": 0.3937007874015748,
                    "duration": 0.35502950000000055
                },
                {
                    "name": "F#3",
                    "midi": 54,
                    "time": 42.603540000000066,
                    "velocity": 0.3464566929133858,
                    "duration": 0.35502950000000055
                },
                {
                    "name": "C#4",
                    "midi": 61,
                    "time": 42.603540000000066,
                    "velocity": 0.41732283464566927,
                    "duration": 0.35502950000000055
                },
                {
                    "name": "C#3",
                    "midi": 49,
                    "time": 42.95856950000007,
                    "velocity": 0.3228346456692913,
                    "duration": 0.35502950000000055
                },
                {
                    "name": "A#3",
                    "midi": 58,
                    "time": 42.95856950000007,
                    "velocity": 0.3858267716535433,
                    "duration": 0.35502950000000055
                },
                {
                    "name": "C#4",
                    "midi": 61,
                    "time": 43.31359900000007,
                    "velocity": 0.41732283464566927,
                    "duration": 0.35502950000000055
                },
                {
                    "name": "F#3",
                    "midi": 54,
                    "time": 43.31359900000007,
                    "velocity": 0.3464566929133858,
                    "duration": 0.35502950000000055
                },
                {
                    "name": "A#3",
                    "midi": 58,
                    "time": 43.66862850000007,
                    "velocity": 0.31496062992125984,
                    "duration": 0.35502950000000055
                },
                {
                    "name": "D#4",
                    "midi": 63,
                    "time": 43.66862850000007,
                    "velocity": 0.3779527559055118,
                    "duration": 0.35502950000000055
                },
                {
                    "name": "F#3",
                    "midi": 54,
                    "time": 44.02365800000007,
                    "velocity": 0.36220472440944884,
                    "duration": 0.35502950000000055
                },
                {
                    "name": "C#4",
                    "midi": 61,
                    "time": 44.02365800000007,
                    "velocity": 0.4330708661417323,
                    "duration": 0.35502950000000055
                },
                {
                    "name": "C#3",
                    "midi": 49,
                    "time": 44.37868750000007,
                    "velocity": 0.33070866141732286,
                    "duration": 0.35502950000000055
                },
                {
                    "name": "A#3",
                    "midi": 58,
                    "time": 44.37868750000007,
                    "velocity": 0.3937007874015748,
                    "duration": 0.35502950000000055
                },
                {
                    "name": "F#3",
                    "midi": 54,
                    "time": 44.73371700000007,
                    "velocity": 0.3464566929133858,
                    "duration": 0.35502950000000055
                },
                {
                    "name": "C#4",
                    "midi": 61,
                    "time": 44.73371700000007,
                    "velocity": 0.41732283464566927,
                    "duration": 0.35502950000000055
                },
                {
                    "name": "D#4",
                    "midi": 63,
                    "time": 45.08874650000007,
                    "velocity": 0.3858267716535433,
                    "duration": 0.35502950000000055
                },
                {
                    "name": "A#3",
                    "midi": 58,
                    "time": 45.08874650000007,
                    "velocity": 0.3228346456692913,
                    "duration": 0.35502950000000055
                },
                {
                    "name": "C#4",
                    "midi": 61,
                    "time": 45.44377600000007,
                    "velocity": 0.41732283464566927,
                    "duration": 0.35502950000000055
                },
                {
                    "name": "F#3",
                    "midi": 54,
                    "time": 45.44377600000007,
                    "velocity": 0.3464566929133858,
                    "duration": 0.35502950000000055
                },
                {
                    "name": "A#3",
                    "midi": 58,
                    "time": 45.79880550000007,
                    "velocity": 0.3779527559055118,
                    "duration": 0.35502950000000055
                },
                {
                    "name": "C#3",
                    "midi": 49,
                    "time": 45.79880550000007,
                    "velocity": 0.31496062992125984,
                    "duration": 0.35502950000000055
                },
                {
                    "name": "C#4",
                    "midi": 61,
                    "time": 46.15383500000007,
                    "velocity": 0.4330708661417323,
                    "duration": 0.35502950000000055
                },
                {
                    "name": "F#3",
                    "midi": 54,
                    "time": 46.15383500000007,
                    "velocity": 0.36220472440944884,
                    "duration": 0.35502950000000055
                },
                {
                    "name": "A#3",
                    "midi": 58,
                    "time": 46.50886450000007,
                    "velocity": 0.31496062992125984,
                    "duration": 0.35502950000000055
                },
                {
                    "name": "D#4",
                    "midi": 63,
                    "time": 46.50886450000007,
                    "velocity": 0.3779527559055118,
                    "duration": 0.35502950000000055
                },
                {
                    "name": "F#3",
                    "midi": 54,
                    "time": 46.86389400000007,
                    "velocity": 0.33858267716535434,
                    "duration": 0.35502949999999345
                },
                {
                    "name": "C#4",
                    "midi": 61,
                    "time": 46.86389400000007,
                    "velocity": 0.4015748031496063,
                    "duration": 0.35502949999999345
                },
                {
                    "name": "C#3",
                    "midi": 49,
                    "time": 47.218923500000066,
                    "velocity": 0.29133858267716534,
                    "duration": 0.35502950000000055
                },
                {
                    "name": "A#3",
                    "midi": 58,
                    "time": 47.218923500000066,
                    "velocity": 0.36220472440944884,
                    "duration": 0.35502950000000055
                },
                {
                    "name": "F#3",
                    "midi": 54,
                    "time": 47.57395300000007,
                    "velocity": 0.30708661417322836,
                    "duration": 0.35502950000000055
                },
                {
                    "name": "C#4",
                    "midi": 61,
                    "time": 47.57395300000007,
                    "velocity": 0.3779527559055118,
                    "duration": 0.35502950000000055
                },
                {
                    "name": "A#3",
                    "midi": 58,
                    "time": 47.92898250000007,
                    "velocity": 0.2677165354330709,
                    "duration": 0.35502950000000055
                },
                {
                    "name": "D#4",
                    "midi": 63,
                    "time": 47.92898250000007,
                    "velocity": 0.33070866141732286,
                    "duration": 0.35502950000000055
                },
                {
                    "name": "F#3",
                    "midi": 54,
                    "time": 48.28401200000007,
                    "velocity": 0.28346456692913385,
                    "duration": 0.35502950000000055
                },
                {
                    "name": "C#4",
                    "midi": 61,
                    "time": 48.28401200000007,
                    "velocity": 0.3464566929133858,
                    "duration": 0.35502950000000055
                },
                {
                    "name": "A#3",
                    "midi": 58,
                    "time": 48.63904150000007,
                    "velocity": 0.33070866141732286,
                    "duration": 0.35502950000000055
                },
                {
                    "name": "C#3",
                    "midi": 49,
                    "time": 48.63904150000007,
                    "velocity": 0.2677165354330709,
                    "duration": 0.35502950000000055
                },
                {
                    "name": "F#3",
                    "midi": 54,
                    "time": 48.99407100000007,
                    "velocity": 0.28346456692913385,
                    "duration": 0.35502950000000055
                },
                {
                    "name": "C#4",
                    "midi": 61,
                    "time": 48.99407100000007,
                    "velocity": 0.3464566929133858,
                    "duration": 0.35502950000000055
                },
                {
                    "name": "A#3",
                    "midi": 58,
                    "time": 49.34910050000007,
                    "velocity": 0.25984251968503935,
                    "duration": 0.35502950000000055
                },
                {
                    "name": "D#4",
                    "midi": 63,
                    "time": 49.34910050000007,
                    "velocity": 0.31496062992125984,
                    "duration": 0.35502950000000055
                },
                {
                    "name": "C#4",
                    "midi": 61,
                    "time": 49.70413000000007,
                    "velocity": 0.3464566929133858,
                    "duration": 0.35502950000000055
                },
                {
                    "name": "F#3",
                    "midi": 54,
                    "time": 49.70413000000007,
                    "velocity": 0.28346456692913385,
                    "duration": 0.35502950000000055
                },
                {
                    "name": "A#3",
                    "midi": 58,
                    "time": 50.05915950000007,
                    "velocity": 0.30708661417322836,
                    "duration": 0.35502950000000055
                },
                {
                    "name": "C#3",
                    "midi": 49,
                    "time": 50.05915950000007,
                    "velocity": 0.25984251968503935,
                    "duration": 0.35502950000000055
                },
                {
                    "name": "F#3",
                    "midi": 54,
                    "time": 50.41418900000007,
                    "velocity": 0.29133858267716534,
                    "duration": 0.35502950000000055
                },
                {
                    "name": "C#4",
                    "midi": 61,
                    "time": 50.41418900000007,
                    "velocity": 0.36220472440944884,
                    "duration": 0.35502950000000055
                },
                {
                    "name": "A#3",
                    "midi": 58,
                    "time": 50.76921850000007,
                    "velocity": 0.2677165354330709,
                    "duration": 0.35502950000000055
                },
                {
                    "name": "D#4",
                    "midi": 63,
                    "time": 50.76921850000007,
                    "velocity": 0.33070866141732286,
                    "duration": 0.35502950000000055
                },
                {
                    "name": "F#3",
                    "midi": 54,
                    "time": 51.12424800000007,
                    "velocity": 0.1968503937007874,
                    "duration": 0.35502950000000055
                },
                {
                    "name": "E4",
                    "midi": 64,
                    "time": 51.12424800000007,
                    "velocity": 0.2125984251968504,
                    "duration": 0.35502950000000055
                },
                {
                    "name": "A#3",
                    "midi": 58,
                    "time": 51.47927750000007,
                    "velocity": 0.18110236220472442,
                    "duration": 0.35502950000000055
                },
                {
                    "name": "C#4",
                    "midi": 61,
                    "time": 51.47927750000007,
                    "velocity": 0.2125984251968504,
                    "duration": 0.35502950000000055
                },
                {
                    "name": "F#4",
                    "midi": 66,
                    "time": 51.834307000000074,
                    "velocity": 0.2283464566929134,
                    "duration": 0.35502950000000055
                },
                {
                    "name": "F#3",
                    "midi": 54,
                    "time": 51.834307000000074,
                    "velocity": 0.1968503937007874,
                    "duration": 0.35502950000000055
                },
                {
                    "name": "D#4",
                    "midi": 63,
                    "time": 52.189336500000074,
                    "velocity": 0.2125984251968504,
                    "duration": 0.35502950000000055
                },
                {
                    "name": "A#3",
                    "midi": 58,
                    "time": 52.189336500000074,
                    "velocity": 0.18110236220472442,
                    "duration": 0.35502950000000055
                },
                {
                    "name": "F#3",
                    "midi": 54,
                    "time": 52.544366000000075,
                    "velocity": 0.2047244094488189,
                    "duration": 0.35502950000000055
                },
                {
                    "name": "E4",
                    "midi": 64,
                    "time": 52.544366000000075,
                    "velocity": 0.23622047244094488,
                    "duration": 0.35502950000000055
                },
                {
                    "name": "A#3",
                    "midi": 58,
                    "time": 52.899395500000075,
                    "velocity": 0.1889763779527559,
                    "duration": 0.35502950000000055
                },
                {
                    "name": "C#4",
                    "midi": 61,
                    "time": 52.899395500000075,
                    "velocity": 0.2204724409448819,
                    "duration": 0.35502950000000055
                },
                {
                    "name": "F#3",
                    "midi": 54,
                    "time": 53.254425000000076,
                    "velocity": 0.2283464566929134,
                    "duration": 0.35502950000000055
                },
                {
                    "name": "A#3",
                    "midi": 58,
                    "time": 53.609454500000076,
                    "velocity": 0.18110236220472442,
                    "duration": 0.35502950000000055
                },
                {
                    "name": "D#4",
                    "midi": 63,
                    "time": 53.609454500000076,
                    "velocity": 0.2125984251968504,
                    "duration": 0.35502950000000055
                },
                {
                    "name": "E4",
                    "midi": 64,
                    "time": 53.96448400000008,
                    "velocity": 0.2283464566929134,
                    "duration": 0.35502950000000055
                },
                {
                    "name": "F#3",
                    "midi": 54,
                    "time": 53.96448400000008,
                    "velocity": 0.1968503937007874,
                    "duration": 0.35502950000000055
                },
                {
                    "name": "C#4",
                    "midi": 61,
                    "time": 54.31951350000008,
                    "velocity": 0.2125984251968504,
                    "duration": 0.35502950000000055
                },
                {
                    "name": "A#3",
                    "midi": 58,
                    "time": 54.31951350000008,
                    "velocity": 0.18110236220472442,
                    "duration": 0.35502950000000055
                },
                {
                    "name": "F#3",
                    "midi": 54,
                    "time": 54.67454300000008,
                    "velocity": 0.2047244094488189,
                    "duration": 0.35502950000000055
                },
                {
                    "name": "F#4",
                    "midi": 66,
                    "time": 54.67454300000008,
                    "velocity": 0.23622047244094488,
                    "duration": 0.35502950000000055
                },
                {
                    "name": "A#3",
                    "midi": 58,
                    "time": 55.02957250000008,
                    "velocity": 0.1889763779527559,
                    "duration": 0.35502950000000055
                },
                {
                    "name": "D#4",
                    "midi": 63,
                    "time": 55.02957250000008,
                    "velocity": 0.2204724409448819,
                    "duration": 0.35502950000000055
                },
                {
                    "name": "F#3",
                    "midi": 54,
                    "time": 55.38460200000008,
                    "velocity": 0.1968503937007874,
                    "duration": 0.35502950000000055
                },
                {
                    "name": "E4",
                    "midi": 64,
                    "time": 55.38460200000008,
                    "velocity": 0.2125984251968504,
                    "duration": 0.35502950000000055
                },
                {
                    "name": "A#3",
                    "midi": 58,
                    "time": 55.73963150000008,
                    "velocity": 0.18110236220472442,
                    "duration": 0.35502950000000055
                },
                {
                    "name": "C#4",
                    "midi": 61,
                    "time": 55.73963150000008,
                    "velocity": 0.2125984251968504,
                    "duration": 0.35502950000000055
                },
                {
                    "name": "F#4",
                    "midi": 66,
                    "time": 56.09466100000008,
                    "velocity": 0.2283464566929134,
                    "duration": 0.35502950000000055
                },
                {
                    "name": "F#3",
                    "midi": 54,
                    "time": 56.09466100000008,
                    "velocity": 0.1968503937007874,
                    "duration": 0.35502950000000055
                },
                {
                    "name": "D#4",
                    "midi": 63,
                    "time": 56.44969050000008,
                    "velocity": 0.2125984251968504,
                    "duration": 0.35502950000000055
                },
                {
                    "name": "A#3",
                    "midi": 58,
                    "time": 56.44969050000008,
                    "velocity": 0.18110236220472442,
                    "duration": 0.35502950000000055
                },
                {
                    "name": "F#3",
                    "midi": 54,
                    "time": 56.80472000000008,
                    "velocity": 0.2047244094488189,
                    "duration": 0.35502950000000055
                },
                {
                    "name": "E4",
                    "midi": 64,
                    "time": 56.80472000000008,
                    "velocity": 0.23622047244094488,
                    "duration": 0.35502950000000055
                },
                {
                    "name": "A#3",
                    "midi": 58,
                    "time": 57.15974950000008,
                    "velocity": 0.1889763779527559,
                    "duration": 0.35502950000000055
                },
                {
                    "name": "C#4",
                    "midi": 61,
                    "time": 57.15974950000008,
                    "velocity": 0.2204724409448819,
                    "duration": 0.35502950000000055
                },
                {
                    "name": "F#3",
                    "midi": 54,
                    "time": 57.51477900000008,
                    "velocity": 0.2283464566929134,
                    "duration": 0.35502950000000055
                },
                {
                    "name": "A#3",
                    "midi": 58,
                    "time": 57.86980850000008,
                    "velocity": 0.18110236220472442,
                    "duration": 0.35502950000000055
                },
                {
                    "name": "D#4",
                    "midi": 63,
                    "time": 57.86980850000008,
                    "velocity": 0.2125984251968504,
                    "duration": 0.35502950000000055
                },
                {
                    "name": "E4",
                    "midi": 64,
                    "time": 58.224838000000084,
                    "velocity": 0.2283464566929134,
                    "duration": 0.35502950000000055
                },
                {
                    "name": "F#3",
                    "midi": 54,
                    "time": 58.224838000000084,
                    "velocity": 0.1968503937007874,
                    "duration": 0.35502950000000055
                },
                {
                    "name": "C#4",
                    "midi": 61,
                    "time": 58.579867500000084,
                    "velocity": 0.2125984251968504,
                    "duration": 0.35502950000000055
                },
                {
                    "name": "A#3",
                    "midi": 58,
                    "time": 58.579867500000084,
                    "velocity": 0.18110236220472442,
                    "duration": 0.35502950000000055
                },
                {
                    "name": "F#3",
                    "midi": 54,
                    "time": 58.934897000000085,
                    "velocity": 0.2047244094488189,
                    "duration": 0.35502950000000055
                },
                {
                    "name": "F#4",
                    "midi": 66,
                    "time": 58.934897000000085,
                    "velocity": 0.23622047244094488,
                    "duration": 0.35502950000000055
                },
                {
                    "name": "A#3",
                    "midi": 58,
                    "time": 59.289926500000085,
                    "velocity": 0.1889763779527559,
                    "duration": 0.35502950000000055
                },
                {
                    "name": "D#4",
                    "midi": 63,
                    "time": 59.289926500000085,
                    "velocity": 0.2204724409448819,
                    "duration": 0.35502950000000055
                },
                {
                    "name": "F#3",
                    "midi": 54,
                    "time": 59.644956000000086,
                    "velocity": 0.1968503937007874,
                    "duration": 0.35502950000000766
                },
                {
                    "name": "E4",
                    "midi": 64,
                    "time": 59.644956000000086,
                    "velocity": 0.2125984251968504,
                    "duration": 0.35502950000000766
                },
                {
                    "name": "A#3",
                    "midi": 58,
                    "time": 59.99998550000009,
                    "velocity": 0.18110236220472442,
                    "duration": 0.35502950000000055
                },
                {
                    "name": "C#4",
                    "midi": 61,
                    "time": 59.99998550000009,
                    "velocity": 0.2125984251968504,
                    "duration": 0.35502950000000055
                },
                {
                    "name": "F#4",
                    "midi": 66,
                    "time": 60.355015000000094,
                    "velocity": 0.2283464566929134,
                    "duration": 0.35502950000000055
                },
                {
                    "name": "F#3",
                    "midi": 54,
                    "time": 60.355015000000094,
                    "velocity": 0.1968503937007874,
                    "duration": 0.35502950000000055
                },
                {
                    "name": "D#4",
                    "midi": 63,
                    "time": 60.710044500000095,
                    "velocity": 0.2125984251968504,
                    "duration": 0.35502950000000055
                },
                {
                    "name": "A#3",
                    "midi": 58,
                    "time": 60.710044500000095,
                    "velocity": 0.18110236220472442,
                    "duration": 0.35502950000000055
                },
                {
                    "name": "F#3",
                    "midi": 54,
                    "time": 61.065074000000095,
                    "velocity": 0.2047244094488189,
                    "duration": 0.35502950000000055
                },
                {
                    "name": "E4",
                    "midi": 64,
                    "time": 61.065074000000095,
                    "velocity": 0.23622047244094488,
                    "duration": 0.35502950000000055
                },
                {
                    "name": "A#3",
                    "midi": 58,
                    "time": 61.420103500000096,
                    "velocity": 0.1889763779527559,
                    "duration": 0.35502950000000055
                },
                {
                    "name": "C#4",
                    "midi": 61,
                    "time": 61.420103500000096,
                    "velocity": 0.2204724409448819,
                    "duration": 0.35502950000000055
                },
                {
                    "name": "F#4",
                    "midi": 66,
                    "time": 61.775133000000096,
                    "velocity": 0.2283464566929134,
                    "duration": 0.35502950000000055
                },
                {
                    "name": "F#3",
                    "midi": 54,
                    "time": 61.775133000000096,
                    "velocity": 0.1968503937007874,
                    "duration": 0.35502950000000055
                },
                {
                    "name": "A#3",
                    "midi": 58,
                    "time": 62.1301625000001,
                    "velocity": 0.18110236220472442,
                    "duration": 0.35502950000000055
                },
                {
                    "name": "D#4",
                    "midi": 63,
                    "time": 62.1301625000001,
                    "velocity": 0.2125984251968504,
                    "duration": 0.35502950000000055
                },
                {
                    "name": "E4",
                    "midi": 64,
                    "time": 62.4851920000001,
                    "velocity": 0.2283464566929134,
                    "duration": 0.35502950000000055
                },
                {
                    "name": "F#3",
                    "midi": 54,
                    "time": 62.4851920000001,
                    "velocity": 0.1968503937007874,
                    "duration": 0.35502950000000055
                },
                {
                    "name": "C#4",
                    "midi": 61,
                    "time": 62.8402215000001,
                    "velocity": 0.2125984251968504,
                    "duration": 0.35502950000000055
                },
                {
                    "name": "A#3",
                    "midi": 58,
                    "time": 62.8402215000001,
                    "velocity": 0.18110236220472442,
                    "duration": 0.35502950000000055
                },
                {
                    "name": "F#3",
                    "midi": 54,
                    "time": 63.1952510000001,
                    "velocity": 0.2047244094488189,
                    "duration": 0.35502950000000055
                },
                {
                    "name": "F#4",
                    "midi": 66,
                    "time": 63.1952510000001,
                    "velocity": 0.23622047244094488,
                    "duration": 0.35502950000000055
                },
                {
                    "name": "A#3",
                    "midi": 58,
                    "time": 63.5502805000001,
                    "velocity": 0.1889763779527559,
                    "duration": 0.35502950000000055
                },
                {
                    "name": "D#4",
                    "midi": 63,
                    "time": 63.5502805000001,
                    "velocity": 0.2204724409448819,
                    "duration": 0.35502950000000055
                },
                {
                    "name": "F#3",
                    "midi": 54,
                    "time": 63.9053100000001,
                    "velocity": 0.1968503937007874,
                    "duration": 0.35502950000000055
                },
                {
                    "name": "E4",
                    "midi": 64,
                    "time": 63.9053100000001,
                    "velocity": 0.2125984251968504,
                    "duration": 0.35502950000000055
                },
                {
                    "name": "A#3",
                    "midi": 58,
                    "time": 64.2603395000001,
                    "velocity": 0.18110236220472442,
                    "duration": 0.35502950000000055
                },
                {
                    "name": "C#4",
                    "midi": 61,
                    "time": 64.2603395000001,
                    "velocity": 0.2125984251968504,
                    "duration": 0.35502950000000055
                },
                {
                    "name": "F#4",
                    "midi": 66,
                    "time": 64.6153690000001,
                    "velocity": 0.2283464566929134,
                    "duration": 0.35502949999998634
                },
                {
                    "name": "F#3",
                    "midi": 54,
                    "time": 64.6153690000001,
                    "velocity": 0.1968503937007874,
                    "duration": 0.35502949999998634
                },
                {
                    "name": "D#4",
                    "midi": 63,
                    "time": 64.97039850000009,
                    "velocity": 0.2125984251968504,
                    "duration": 0.35502950000000055
                },
                {
                    "name": "A#3",
                    "midi": 58,
                    "time": 64.97039850000009,
                    "velocity": 0.18110236220472442,
                    "duration": 0.35502950000000055
                },
                {
                    "name": "F#3",
                    "midi": 54,
                    "time": 65.32542800000009,
                    "velocity": 0.2047244094488189,
                    "duration": 0.35502950000000055
                },
                {
                    "name": "E4",
                    "midi": 64,
                    "time": 65.32542800000009,
                    "velocity": 0.23622047244094488,
                    "duration": 0.35502950000000055
                },
                {
                    "name": "A#3",
                    "midi": 58,
                    "time": 65.68045750000009,
                    "velocity": 0.1889763779527559,
                    "duration": 0.35502950000000055
                },
                {
                    "name": "C#4",
                    "midi": 61,
                    "time": 65.68045750000009,
                    "velocity": 0.2204724409448819,
                    "duration": 0.35502950000000055
                },
                {
                    "name": "F#4",
                    "midi": 66,
                    "time": 66.03548700000009,
                    "velocity": 0.2677165354330709,
                    "duration": 0.35502950000000055
                },
                {
                    "name": "F#3",
                    "midi": 54,
                    "time": 66.03548700000009,
                    "velocity": 0.2283464566929134,
                    "duration": 0.35502950000000055
                },
                {
                    "name": "A#3",
                    "midi": 58,
                    "time": 66.39051650000009,
                    "velocity": 0.2283464566929134,
                    "duration": 0.35502950000000055
                },
                {
                    "name": "D#4",
                    "midi": 63,
                    "time": 66.39051650000009,
                    "velocity": 0.25984251968503935,
                    "duration": 0.35502950000000055
                },
                {
                    "name": "E4",
                    "midi": 64,
                    "time": 66.74554600000009,
                    "velocity": 0.31496062992125984,
                    "duration": 0.35502950000000055
                },
                {
                    "name": "F#3",
                    "midi": 54,
                    "time": 66.74554600000009,
                    "velocity": 0.25984251968503935,
                    "duration": 0.35502950000000055
                },
                {
                    "name": "C#4",
                    "midi": 61,
                    "time": 67.10057550000009,
                    "velocity": 0.30708661417322836,
                    "duration": 0.35502950000000055
                },
                {
                    "name": "A#3",
                    "midi": 58,
                    "time": 67.10057550000009,
                    "velocity": 0.25196850393700787,
                    "duration": 0.35502950000000055
                },
                {
                    "name": "F#3",
                    "midi": 54,
                    "time": 67.45560500000009,
                    "velocity": 0.2992125984251969,
                    "duration": 0.35502950000000055
                },
                {
                    "name": "E4",
                    "midi": 64,
                    "time": 67.45560500000009,
                    "velocity": 0.36220472440944884,
                    "duration": 0.35502950000000055
                },
                {
                    "name": "A#3",
                    "midi": 58,
                    "time": 67.81063450000009,
                    "velocity": 0.29133858267716534,
                    "duration": 0.35502950000000055
                },
                {
                    "name": "C4",
                    "midi": 60,
                    "time": 67.81063450000009,
                    "velocity": 0.3543307086614173,
                    "duration": 0.35502950000000055
                },
                {
                    "name": "F1",
                    "midi": 29,
                    "time": 68.16566400000009,
                    "velocity": 0.44881889763779526,
                    "duration": 0.35502950000001476
                },
                {
                    "name": "F3",
                    "midi": 53,
                    "time": 68.5206935000001,
                    "velocity": 0.31496062992125984,
                    "duration": 0.35502950000000055
                },
                {
                    "name": "E3",
                    "midi": 52,
                    "time": 68.87572300000011,
                    "velocity": 0.25196850393700787,
                    "duration": 0.35502949999998634
                },
                {
                    "name": "G3",
                    "midi": 55,
                    "time": 68.87572300000011,
                    "velocity": 0.31496062992125984,
                    "duration": 0.35502949999998634
                },
                {
                    "name": "D#3",
                    "midi": 51,
                    "time": 69.2307525000001,
                    "velocity": 0.25196850393700787,
                    "duration": 0.35502950000000055
                },
                {
                    "name": "A3",
                    "midi": 57,
                    "time": 69.2307525000001,
                    "velocity": 0.33070866141732286,
                    "duration": 0.35502950000000055
                },
                {
                    "name": "D3",
                    "midi": 50,
                    "time": 69.5857820000001,
                    "velocity": 0.28346456692913385,
                    "duration": 0.35502950000000055
                },
                {
                    "name": "A#3",
                    "midi": 58,
                    "time": 69.5857820000001,
                    "velocity": 0.3543307086614173,
                    "duration": 0.35502950000000055
                },
                {
                    "name": "C3",
                    "midi": 48,
                    "time": 69.9408115000001,
                    "velocity": 0.30708661417322836,
                    "duration": 0.35502950000000055
                },
                {
                    "name": "F2",
                    "midi": 41,
                    "time": 70.2958410000001,
                    "velocity": 0.41732283464566927,
                    "duration": 0.35502950000000055
                },
                {
                    "name": "F3",
                    "midi": 53,
                    "time": 70.6508705000001,
                    "velocity": 0.33070866141732286,
                    "duration": 0.35502950000000055
                },
                {
                    "name": "E3",
                    "midi": 52,
                    "time": 71.0059000000001,
                    "velocity": 0.2677165354330709,
                    "duration": 0.35502950000000055
                },
                {
                    "name": "G3",
                    "midi": 55,
                    "time": 71.0059000000001,
                    "velocity": 0.33858267716535434,
                    "duration": 0.35502950000000055
                },
                {
                    "name": "D#3",
                    "midi": 51,
                    "time": 71.3609295000001,
                    "velocity": 0.2755905511811024,
                    "duration": 0.35502950000000055
                },
                {
                    "name": "A3",
                    "midi": 57,
                    "time": 71.3609295000001,
                    "velocity": 0.3543307086614173,
                    "duration": 0.35502950000000055
                },
                {
                    "name": "D3",
                    "midi": 50,
                    "time": 71.7159590000001,
                    "velocity": 0.2992125984251969,
                    "duration": 0.35502949999998634
                },
                {
                    "name": "A#3",
                    "midi": 58,
                    "time": 71.7159590000001,
                    "velocity": 0.3779527559055118,
                    "duration": 0.35502949999998634
                },
                {
                    "name": "F3",
                    "midi": 53,
                    "time": 72.07098850000008,
                    "velocity": 0.33070866141732286,
                    "duration": 0.35502950000000055
                },
                {
                    "name": "F2",
                    "midi": 41,
                    "time": 72.42601800000008,
                    "velocity": 0.4409448818897638,
                    "duration": 0.35502950000001476
                },
                {
                    "name": "G3",
                    "midi": 55,
                    "time": 72.7810475000001,
                    "velocity": 0.3543307086614173,
                    "duration": 0.35502950000000055
                },
                {
                    "name": "F#3",
                    "midi": 54,
                    "time": 73.1360770000001,
                    "velocity": 0.28346456692913385,
                    "duration": 0.35502950000000055
                },
                {
                    "name": "A3",
                    "midi": 57,
                    "time": 73.1360770000001,
                    "velocity": 0.36220472440944884,
                    "duration": 0.35502950000000055
                },
                {
                    "name": "F3",
                    "midi": 53,
                    "time": 73.4911065000001,
                    "velocity": 0.29133858267716534,
                    "duration": 0.35502950000000055
                },
                {
                    "name": "B3",
                    "midi": 59,
                    "time": 73.4911065000001,
                    "velocity": 0.3700787401574803,
                    "duration": 0.35502950000000055
                },
                {
                    "name": "D#3",
                    "midi": 51,
                    "time": 73.8461360000001,
                    "velocity": 0.31496062992125984,
                    "duration": 0.35502950000001476
                },
                {
                    "name": "C4",
                    "midi": 60,
                    "time": 73.8461360000001,
                    "velocity": 0.4015748031496063,
                    "duration": 0.35502950000001476
                },
                {
                    "name": "D3",
                    "midi": 50,
                    "time": 74.20116550000012,
                    "velocity": 0.3464566929133858,
                    "duration": 0.35502950000000055
                },
                {
                    "name": "F2",
                    "midi": 41,
                    "time": 74.55619500000012,
                    "velocity": 0.5196850393700787,
                    "duration": 0.35502950000001476
                },
                {
                    "name": "G3",
                    "midi": 55,
                    "time": 74.91122450000013,
                    "velocity": 0.4094488188976378,
                    "duration": 0.35502950000000055
                },
                {
                    "name": "F#3",
                    "midi": 54,
                    "time": 75.26625400000013,
                    "velocity": 0.33858267716535434,
                    "duration": 0.35502950000001476
                },
                {
                    "name": "A3",
                    "midi": 57,
                    "time": 75.26625400000013,
                    "velocity": 0.41732283464566927,
                    "duration": 0.35502950000001476
                },
                {
                    "name": "F3",
                    "midi": 53,
                    "time": 75.62128350000015,
                    "velocity": 0.33858267716535434,
                    "duration": 0.35502950000000055
                },
                {
                    "name": "B3",
                    "midi": 59,
                    "time": 75.62128350000015,
                    "velocity": 0.4409448818897638,
                    "duration": 0.35502950000000055
                },
                {
                    "name": "D#3",
                    "midi": 51,
                    "time": 75.97631300000015,
                    "velocity": 0.3779527559055118,
                    "duration": 0.35502950000001476
                },
                {
                    "name": "C4",
                    "midi": 60,
                    "time": 75.97631300000015,
                    "velocity": 0.48031496062992124,
                    "duration": 0.35502950000001476
                },
                {
                    "name": "G3",
                    "midi": 55,
                    "time": 76.33134250000016,
                    "velocity": 0.41732283464566927,
                    "duration": 0.35502950000000055
                },
                {
                    "name": "F2",
                    "midi": 41,
                    "time": 76.68637200000016,
                    "velocity": 0.5669291338582677,
                    "duration": 0.35502950000000055
                },
                {
                    "name": "A3",
                    "midi": 57,
                    "time": 77.04140150000016,
                    "velocity": 0.44881889763779526,
                    "duration": 0.35502950000000055
                },
                {
                    "name": "G#3",
                    "midi": 56,
                    "time": 77.39643100000016,
                    "velocity": 0.36220472440944884,
                    "duration": 0.35502950000000055
                },
                {
                    "name": "B3",
                    "midi": 59,
                    "time": 77.39643100000016,
                    "velocity": 0.4645669291338583,
                    "duration": 0.35502950000000055
                },
                {
                    "name": "G3",
                    "midi": 55,
                    "time": 77.75146050000016,
                    "velocity": 0.3700787401574803,
                    "duration": 0.35502950000000055
                },
                {
                    "name": "C#4",
                    "midi": 61,
                    "time": 77.75146050000016,
                    "velocity": 0.4881889763779528,
                    "duration": 0.35502950000000055
                },
                {
                    "name": "F3",
                    "midi": 53,
                    "time": 78.10649000000016,
                    "velocity": 0.41732283464566927,
                    "duration": 0.35502949999998634
                },
                {
                    "name": "D4",
                    "midi": 62,
                    "time": 78.10649000000016,
                    "velocity": 0.5275590551181102,
                    "duration": 0.35502949999998634
                },
                {
                    "name": "A3",
                    "midi": 57,
                    "time": 78.46151950000015,
                    "velocity": 0.4645669291338583,
                    "duration": 0.35502950000000055
                },
                {
                    "name": "F2",
                    "midi": 41,
                    "time": 78.81654900000015,
                    "velocity": 0.6220472440944882,
                    "duration": 0.35502950000000055
                },
                {
                    "name": "A#3",
                    "midi": 58,
                    "time": 79.17157850000015,
                    "velocity": 0.49606299212598426,
                    "duration": 0.35502950000000055
                },
                {
                    "name": "A3",
                    "midi": 57,
                    "time": 79.52660800000015,
                    "velocity": 0.4094488188976378,
                    "duration": 0.35502950000000055
                },
                {
                    "name": "C4",
                    "midi": 60,
                    "time": 79.52660800000015,
                    "velocity": 0.5118110236220472,
                    "duration": 0.35502950000000055
                },
                {
                    "name": "G#3",
                    "midi": 56,
                    "time": 79.88163750000015,
                    "velocity": 0.4094488188976378,
                    "duration": 0.35502950000000055
                },
                {
                    "name": "D4",
                    "midi": 62,
                    "time": 79.88163750000015,
                    "velocity": 0.5275590551181102,
                    "duration": 0.35502950000000055
                },
                {
                    "name": "G3",
                    "midi": 55,
                    "time": 80.23666700000015,
                    "velocity": 0.44881889763779526,
                    "duration": 0.35502949999998634
                },
                {
                    "name": "D#4",
                    "midi": 63,
                    "time": 80.23666700000015,
                    "velocity": 0.5748031496062992,
                    "duration": 0.35502949999998634
                },
                {
                    "name": "F#3",
                    "midi": 54,
                    "time": 80.59169650000014,
                    "velocity": 0.5039370078740157,
                    "duration": 0.35502950000000055
                },
                {
                    "name": "F1",
                    "midi": 29,
                    "time": 80.94672600000014,
                    "velocity": 0.6692913385826772,
                    "duration": 0.35502949999998634
                },
                {
                    "name": "F2",
                    "midi": 41,
                    "time": 80.94672600000014,
                    "velocity": 0.7952755905511811,
                    "duration": 0.35502949999998634
                },
                {
                    "name": "F4",
                    "midi": 65,
                    "time": 81.30175550000013,
                    "velocity": 0.5275590551181102,
                    "duration": 0.35502950000000055
                },
                {
                    "name": "A#4",
                    "midi": 70,
                    "time": 81.65678500000013,
                    "velocity": 0.4881889763779528,
                    "duration": 0.35502950000000055
                },
                {
                    "name": "F#4",
                    "midi": 66,
                    "time": 81.65678500000013,
                    "velocity": 0.4881889763779528,
                    "duration": 0.35502950000000055
                },
                {
                    "name": "D#5",
                    "midi": 75,
                    "time": 81.65678500000013,
                    "velocity": 0.5748031496062992,
                    "duration": 0.35502950000000055
                },
                {
                    "name": "F4",
                    "midi": 65,
                    "time": 82.01181450000013,
                    "velocity": 0.5275590551181102,
                    "duration": 0.35502950000000055
                },
                {
                    "name": "F#4",
                    "midi": 66,
                    "time": 82.36684400000013,
                    "velocity": 0.48031496062992124,
                    "duration": 0.35502950000000055
                },
                {
                    "name": "A#4",
                    "midi": 70,
                    "time": 82.36684400000013,
                    "velocity": 0.48031496062992124,
                    "duration": 0.35502950000000055
                },
                {
                    "name": "D#5",
                    "midi": 75,
                    "time": 82.36684400000013,
                    "velocity": 0.5669291338582677,
                    "duration": 0.35502950000000055
                },
                {
                    "name": "F4",
                    "midi": 65,
                    "time": 82.72187350000013,
                    "velocity": 0.5433070866141733,
                    "duration": 0.35502950000000055
                },
                {
                    "name": "A#4",
                    "midi": 70,
                    "time": 83.07690300000013,
                    "velocity": 0.5196850393700787,
                    "duration": 0.35502950000000055
                },
                {
                    "name": "F#4",
                    "midi": 66,
                    "time": 83.07690300000013,
                    "velocity": 0.5196850393700787,
                    "duration": 0.35502950000000055
                },
                {
                    "name": "D#5",
                    "midi": 75,
                    "time": 83.07690300000013,
                    "velocity": 0.6062992125984252,
                    "duration": 0.35502950000000055
                },
                {
                    "name": "F4",
                    "midi": 65,
                    "time": 83.43193250000013,
                    "velocity": 0.5511811023622047,
                    "duration": 0.35502950000000055
                },
                {
                    "name": "F#4",
                    "midi": 66,
                    "time": 83.78696200000013,
                    "velocity": 0.49606299212598426,
                    "duration": 0.35502950000000055
                },
                {
                    "name": "A#4",
                    "midi": 70,
                    "time": 83.78696200000013,
                    "velocity": 0.49606299212598426,
                    "duration": 0.35502950000000055
                },
                {
                    "name": "D#5",
                    "midi": 75,
                    "time": 83.78696200000013,
                    "velocity": 0.5905511811023622,
                    "duration": 0.35502950000000055
                },
                {
                    "name": "F4",
                    "midi": 65,
                    "time": 84.14199150000013,
                    "velocity": 0.5590551181102362,
                    "duration": 0.35502950000000055
                },
                {
                    "name": "A#4",
                    "midi": 70,
                    "time": 84.49702100000013,
                    "velocity": 0.5354330708661418,
                    "duration": 0.35502950000000055
                },
                {
                    "name": "F#4",
                    "midi": 66,
                    "time": 84.49702100000013,
                    "velocity": 0.5354330708661418,
                    "duration": 0.35502950000000055
                },
                {
                    "name": "D#5",
                    "midi": 75,
                    "time": 84.49702100000013,
                    "velocity": 0.6299212598425197,
                    "duration": 0.35502950000000055
                },
                {
                    "name": "F4",
                    "midi": 65,
                    "time": 84.85205050000013,
                    "velocity": 0.5748031496062992,
                    "duration": 0.35502950000000055
                },
                {
                    "name": "A4",
                    "midi": 69,
                    "time": 85.20708000000013,
                    "velocity": 0.4330708661417323,
                    "duration": 0.35502949999998634
                },
                {
                    "name": "F#4",
                    "midi": 66,
                    "time": 85.20708000000013,
                    "velocity": 0.4330708661417323,
                    "duration": 0.35502949999998634
                },
                {
                    "name": "D#5",
                    "midi": 75,
                    "time": 85.20708000000013,
                    "velocity": 0.5433070866141733,
                    "duration": 0.35502949999998634
                },
                {
                    "name": "D5",
                    "midi": 74,
                    "time": 85.56210950000012,
                    "velocity": 0.49606299212598426,
                    "duration": 0.35502950000000055
                },
                {
                    "name": "F4",
                    "midi": 65,
                    "time": 85.56210950000012,
                    "velocity": 0.3937007874015748,
                    "duration": 0.35502950000000055
                },
                {
                    "name": "E4",
                    "midi": 64,
                    "time": 85.91713900000012,
                    "velocity": 0.3858267716535433,
                    "duration": 0.35502950000001476
                },
                {
                    "name": "G4",
                    "midi": 67,
                    "time": 85.91713900000012,
                    "velocity": 0.4881889763779528,
                    "duration": 0.35502950000001476
                },
                {
                    "name": "D#4",
                    "midi": 63,
                    "time": 86.27216850000013,
                    "velocity": 0.3228346456692913,
                    "duration": 0.35502950000000055
                },
                {
                    "name": "A4",
                    "midi": 69,
                    "time": 86.27216850000013,
                    "velocity": 0.4330708661417323,
                    "duration": 0.35502950000000055
                },
                {
                    "name": "D4",
                    "midi": 62,
                    "time": 86.62719800000013,
                    "velocity": 0.36220472440944884,
                    "duration": 0.35502950000000055
                },
                {
                    "name": "A#4",
                    "midi": 70,
                    "time": 86.62719800000013,
                    "velocity": 0.4645669291338583,
                    "duration": 0.35502950000000055
                },
                {
                    "name": "C#4",
                    "midi": 61,
                    "time": 86.98222750000014,
                    "velocity": 0.31496062992125984,
                    "duration": 0.35502950000000055
                },
                {
                    "name": "F4",
                    "midi": 65,
                    "time": 86.98222750000014,
                    "velocity": 0.41732283464566927,
                    "duration": 0.35502950000000055
                },
                {
                    "name": "C4",
                    "midi": 60,
                    "time": 87.33725700000014,
                    "velocity": 0.33858267716535434,
                    "duration": 0.35502950000000055
                },
                {
                    "name": "G#4",
                    "midi": 68,
                    "time": 87.33725700000014,
                    "velocity": 0.4409448818897638,
                    "duration": 0.35502950000000055
                },
                {
                    "name": "A#3",
                    "midi": 58,
                    "time": 87.69228650000014,
                    "velocity": 0.31496062992125984,
                    "duration": 0.35502950000000055
                },
                {
                    "name": "F#4",
                    "midi": 66,
                    "time": 87.69228650000014,
                    "velocity": 0.41732283464566927,
                    "duration": 0.35502950000000055
                },
                {
                    "name": "A3",
                    "midi": 57,
                    "time": 88.04731600000014,
                    "velocity": 0.31496062992125984,
                    "duration": 0.35502949999998634
                },
                {
                    "name": "C4",
                    "midi": 60,
                    "time": 88.04731600000014,
                    "velocity": 0.4094488188976378,
                    "duration": 0.35502949999998634
                },
                {
                    "name": "G#3",
                    "midi": 56,
                    "time": 88.40234550000012,
                    "velocity": 0.2992125984251969,
                    "duration": 0.35502950000000055
                },
                {
                    "name": "D4",
                    "midi": 62,
                    "time": 88.40234550000012,
                    "velocity": 0.3937007874015748,
                    "duration": 0.35502950000000055
                },
                {
                    "name": "G3",
                    "midi": 55,
                    "time": 88.75737500000012,
                    "velocity": 0.3228346456692913,
                    "duration": 0.35502950000000055
                },
                {
                    "name": "D#4",
                    "midi": 63,
                    "time": 88.75737500000012,
                    "velocity": 0.4251968503937008,
                    "duration": 0.35502950000000055
                },
                {
                    "name": "F#3",
                    "midi": 54,
                    "time": 89.11240450000012,
                    "velocity": 0.2992125984251969,
                    "duration": 0.35502950000000055
                },
                {
                    "name": "A#3",
                    "midi": 58,
                    "time": 89.11240450000012,
                    "velocity": 0.3700787401574803,
                    "duration": 0.35502950000000055
                },
                {
                    "name": "F3",
                    "midi": 53,
                    "time": 89.46743400000013,
                    "velocity": 0.33858267716535434,
                    "duration": 0.35502950000000055
                },
                {
                    "name": "C#4",
                    "midi": 61,
                    "time": 89.46743400000013,
                    "velocity": 0.4251968503937008,
                    "duration": 0.35502950000000055
                },
                {
                    "name": "E3",
                    "midi": 52,
                    "time": 89.82246350000013,
                    "velocity": 0.25196850393700787,
                    "duration": 0.35502950000000055
                },
                {
                    "name": "C4",
                    "midi": 60,
                    "time": 89.82246350000013,
                    "velocity": 0.3937007874015748,
                    "duration": 0.35502950000000055
                },
                {
                    "name": "D#3",
                    "midi": 51,
                    "time": 90.17749300000013,
                    "velocity": 0.28346456692913385,
                    "duration": 0.35502950000000055
                },
                {
                    "name": "G3",
                    "midi": 55,
                    "time": 90.17749300000013,
                    "velocity": 0.3858267716535433,
                    "duration": 0.35502950000000055
                },
                {
                    "name": "D3",
                    "midi": 50,
                    "time": 90.53252250000013,
                    "velocity": 0.28346456692913385,
                    "duration": 0.35502950000000055
                },
                {
                    "name": "G#3",
                    "midi": 56,
                    "time": 90.53252250000013,
                    "velocity": 0.3543307086614173,
                    "duration": 0.35502950000000055
                },
                {
                    "name": "C#3",
                    "midi": 49,
                    "time": 90.88755200000013,
                    "velocity": 0.28346456692913385,
                    "duration": 0.35502950000000055
                },
                {
                    "name": "A3",
                    "midi": 57,
                    "time": 90.88755200000013,
                    "velocity": 0.3779527559055118,
                    "duration": 0.35502950000000055
                },
                {
                    "name": "C3",
                    "midi": 48,
                    "time": 91.24258150000013,
                    "velocity": 0.28346456692913385,
                    "duration": 0.35502950000000055
                },
                {
                    "name": "D#3",
                    "midi": 51,
                    "time": 91.24258150000013,
                    "velocity": 0.3543307086614173,
                    "duration": 0.35502950000000055
                },
                {
                    "name": "A#2",
                    "midi": 46,
                    "time": 91.59761100000013,
                    "velocity": 0.29133858267716534,
                    "duration": 0.35502950000001476
                },
                {
                    "name": "F#3",
                    "midi": 54,
                    "time": 91.59761100000013,
                    "velocity": 0.3858267716535433,
                    "duration": 0.35502950000001476
                },
                {
                    "name": "A2",
                    "midi": 45,
                    "time": 91.95264050000014,
                    "velocity": 0.28346456692913385,
                    "duration": 0.35502950000000055
                },
                {
                    "name": "F3",
                    "midi": 53,
                    "time": 91.95264050000014,
                    "velocity": 0.3543307086614173,
                    "duration": 0.35502950000000055
                },
                {
                    "name": "G#2",
                    "midi": 44,
                    "time": 92.30767000000014,
                    "velocity": 0.29133858267716534,
                    "duration": 0.35502950000000055
                },
                {
                    "name": "C3",
                    "midi": 48,
                    "time": 92.30767000000014,
                    "velocity": 0.3779527559055118,
                    "duration": 0.35502950000000055
                },
                {
                    "name": "G2",
                    "midi": 43,
                    "time": 92.66269950000014,
                    "velocity": 0.25196850393700787,
                    "duration": 0.35502950000000055
                },
                {
                    "name": "D3",
                    "midi": 50,
                    "time": 92.66269950000014,
                    "velocity": 0.31496062992125984,
                    "duration": 0.35502950000000055
                },
                {
                    "name": "F#2",
                    "midi": 42,
                    "time": 93.01772900000014,
                    "velocity": 0.29133858267716534,
                    "duration": 0.35502950000000055
                },
                {
                    "name": "D#3",
                    "midi": 51,
                    "time": 93.01772900000014,
                    "velocity": 0.3543307086614173,
                    "duration": 0.35502950000000055
                },
                {
                    "name": "F2",
                    "midi": 41,
                    "time": 93.37275850000015,
                    "velocity": 0.2755905511811024,
                    "duration": 0.35502950000000055
                },
                {
                    "name": "A#1",
                    "midi": 34,
                    "time": 93.72778800000015,
                    "velocity": 0.3937007874015748,
                    "duration": 0.35502949999998634
                },
                {
                    "name": "E3",
                    "midi": 52,
                    "time": 94.08281750000013,
                    "velocity": 0.33858267716535434,
                    "duration": 0.35502950000000055
                },
                {
                    "name": "F3",
                    "midi": 53,
                    "time": 94.43784700000013,
                    "velocity": 0.3700787401574803,
                    "duration": 0.35502950000000055
                },
                {
                    "name": "A#3",
                    "midi": 58,
                    "time": 94.79287650000013,
                    "velocity": 0.33858267716535434,
                    "duration": 0.35502950000000055
                },
                {
                    "name": "A3",
                    "midi": 57,
                    "time": 95.14790600000013,
                    "velocity": 0.33858267716535434,
                    "duration": 0.35502950000000055
                },
                {
                    "name": "G3",
                    "midi": 55,
                    "time": 95.50293550000013,
                    "velocity": 0.33858267716535434,
                    "duration": 0.35502950000000055
                },
                {
                    "name": "F2",
                    "midi": 41,
                    "time": 95.85796500000014,
                    "velocity": 0.4330708661417323,
                    "duration": 0.35502950000000055
                },
                {
                    "name": "F#3",
                    "midi": 54,
                    "time": 96.21299450000014,
                    "velocity": 0.2755905511811024,
                    "duration": 0.35502950000000055
                },
                {
                    "name": "D#4",
                    "midi": 63,
                    "time": 96.21299450000014,
                    "velocity": 0.3464566929133858,
                    "duration": 0.35502950000000055
                },
                {
                    "name": "F3",
                    "midi": 53,
                    "time": 96.56802400000014,
                    "velocity": 0.2677165354330709,
                    "duration": 0.35502950000000055
                },
                {
                    "name": "A3",
                    "midi": 57,
                    "time": 96.56802400000014,
                    "velocity": 0.33858267716535434,
                    "duration": 0.35502950000000055
                },
                {
                    "name": "E3",
                    "midi": 52,
                    "time": 96.92305350000014,
                    "velocity": 0.2440944881889764,
                    "duration": 0.35502950000000055
                },
                {
                    "name": "A#3",
                    "midi": 58,
                    "time": 96.92305350000014,
                    "velocity": 0.30708661417322836,
                    "duration": 0.35502950000000055
                },
                {
                    "name": "D#3",
                    "midi": 51,
                    "time": 97.27808300000014,
                    "velocity": 0.25196850393700787,
                    "duration": 0.35502950000000055
                },
                {
                    "name": "C4",
                    "midi": 60,
                    "time": 97.27808300000014,
                    "velocity": 0.31496062992125984,
                    "duration": 0.35502950000000055
                },
                {
                    "name": "F#3",
                    "midi": 54,
                    "time": 97.63311250000014,
                    "velocity": 0.29133858267716534,
                    "duration": 0.35502950000000055
                },
                {
                    "name": "A#2",
                    "midi": 46,
                    "time": 97.98814200000014,
                    "velocity": 0.3937007874015748,
                    "duration": 0.35502950000000055
                },
                {
                    "name": "E3",
                    "midi": 52,
                    "time": 98.34317150000014,
                    "velocity": 0.33858267716535434,
                    "duration": 0.35502950000000055
                },
                {
                    "name": "F3",
                    "midi": 53,
                    "time": 98.69820100000014,
                    "velocity": 0.36220472440944884,
                    "duration": 0.35502950000000055
                },
                {
                    "name": "A#3",
                    "midi": 58,
                    "time": 99.05323050000014,
                    "velocity": 0.30708661417322836,
                    "duration": 0.35502950000000055
                },
                {
                    "name": "A3",
                    "midi": 57,
                    "time": 99.40826000000014,
                    "velocity": 0.33858267716535434,
                    "duration": 0.35502950000000055
                },
                {
                    "name": "G3",
                    "midi": 55,
                    "time": 99.76328950000014,
                    "velocity": 0.29133858267716534,
                    "duration": 0.35502950000000055
                },
                {
                    "name": "F2",
                    "midi": 41,
                    "time": 100.11831900000014,
                    "velocity": 0.4251968503937008,
                    "duration": 0.35502950000000055
                },
                {
                    "name": "F#3",
                    "midi": 54,
                    "time": 100.47334850000014,
                    "velocity": 0.2755905511811024,
                    "duration": 0.35502950000000055
                },
                {
                    "name": "D#4",
                    "midi": 63,
                    "time": 100.47334850000014,
                    "velocity": 0.3464566929133858,
                    "duration": 0.35502950000000055
                },
                {
                    "name": "F3",
                    "midi": 53,
                    "time": 100.82837800000014,
                    "velocity": 0.2677165354330709,
                    "duration": 0.35502949999998634
                },
                {
                    "name": "A3",
                    "midi": 57,
                    "time": 100.82837800000014,
                    "velocity": 0.33858267716535434,
                    "duration": 0.35502949999998634
                },
                {
                    "name": "E3",
                    "midi": 52,
                    "time": 101.18340750000013,
                    "velocity": 0.2440944881889764,
                    "duration": 0.35502950000000055
                },
                {
                    "name": "A#3",
                    "midi": 58,
                    "time": 101.18340750000013,
                    "velocity": 0.30708661417322836,
                    "duration": 0.35502950000000055
                },
                {
                    "name": "D#3",
                    "midi": 51,
                    "time": 101.53843700000013,
                    "velocity": 0.25196850393700787,
                    "duration": 0.35502949999998634
                },
                {
                    "name": "C4",
                    "midi": 60,
                    "time": 101.53843700000013,
                    "velocity": 0.31496062992125984,
                    "duration": 0.35502949999998634
                },
                {
                    "name": "F#3",
                    "midi": 54,
                    "time": 101.89346650000012,
                    "velocity": 0.29133858267716534,
                    "duration": 0.35502950000000055
                },
                {
                    "name": "A#1",
                    "midi": 34,
                    "time": 102.24849600000012,
                    "velocity": 0.3937007874015748,
                    "duration": 0.35502950000000055
                },
                {
                    "name": "E2",
                    "midi": 40,
                    "time": 102.60352550000012,
                    "velocity": 0.33858267716535434,
                    "duration": 0.35502950000000055
                },
                {
                    "name": "F2",
                    "midi": 41,
                    "time": 102.95855500000012,
                    "velocity": 0.36220472440944884,
                    "duration": 0.35502950000000055
                },
                {
                    "name": "A#2",
                    "midi": 46,
                    "time": 103.31358450000012,
                    "velocity": 0.30708661417322836,
                    "duration": 0.35502950000000055
                },
                {
                    "name": "A2",
                    "midi": 45,
                    "time": 103.66861400000012,
                    "velocity": 0.33858267716535434,
                    "duration": 0.35502950000000055
                },
                {
                    "name": "G2",
                    "midi": 43,
                    "time": 104.02364350000012,
                    "velocity": 0.29133858267716534,
                    "duration": 0.35502950000000055
                },
                {
                    "name": "G1",
                    "midi": 31,
                    "time": 104.37867300000012,
                    "velocity": 0.3700787401574803,
                    "duration": 1.4201180000000022
                },
                {
                    "name": "A1",
                    "midi": 33,
                    "time": 105.79879100000012,
                    "velocity": 0.3464566929133858,
                    "duration": 0.7100590000000011
                },
                {
                    "name": "A#1",
                    "midi": 34,
                    "time": 106.50885000000012,
                    "velocity": 0.3937007874015748,
                    "duration": 0.35502950000000055
                },
                {
                    "name": "E2",
                    "midi": 40,
                    "time": 106.86387950000012,
                    "velocity": 0.33858267716535434,
                    "duration": 0.35502950000000055
                },
                {
                    "name": "F2",
                    "midi": 41,
                    "time": 107.21890900000012,
                    "velocity": 0.36220472440944884,
                    "duration": 0.35502950000000055
                },
                {
                    "name": "A#2",
                    "midi": 46,
                    "time": 107.57393850000012,
                    "velocity": 0.30708661417322836,
                    "duration": 0.35502950000000055
                },
                {
                    "name": "A2",
                    "midi": 45,
                    "time": 107.92896800000013,
                    "velocity": 0.33858267716535434,
                    "duration": 0.35502950000000055
                },
                {
                    "name": "G2",
                    "midi": 43,
                    "time": 108.28399750000013,
                    "velocity": 0.29133858267716534,
                    "duration": 0.35502950000000055
                },
                {
                    "name": "G1",
                    "midi": 31,
                    "time": 108.63902700000013,
                    "velocity": 0.3700787401574803,
                    "duration": 1.4201180000000022
                },
                {
                    "name": "A1",
                    "midi": 33,
                    "time": 110.05914500000013,
                    "velocity": 0.3464566929133858,
                    "duration": 0.7100590000000011
                },
                {
                    "name": "A#1",
                    "midi": 34,
                    "time": 110.76920400000013,
                    "velocity": 0.3937007874015748,
                    "duration": 0.35502950000000055
                },
                {
                    "name": "E2",
                    "midi": 40,
                    "time": 111.12423350000013,
                    "velocity": 0.33858267716535434,
                    "duration": 0.35502950000000055
                },
                {
                    "name": "F2",
                    "midi": 41,
                    "time": 111.47926300000013,
                    "velocity": 0.36220472440944884,
                    "duration": 0.35502950000000055
                },
                {
                    "name": "A#2",
                    "midi": 46,
                    "time": 111.83429250000013,
                    "velocity": 0.30708661417322836,
                    "duration": 0.35502950000000055
                },
                {
                    "name": "A2",
                    "midi": 45,
                    "time": 112.18932200000013,
                    "velocity": 0.33858267716535434,
                    "duration": 0.35502950000000055
                },
                {
                    "name": "G2",
                    "midi": 43,
                    "time": 112.54435150000013,
                    "velocity": 0.29133858267716534,
                    "duration": 0.35502950000000055
                },
                {
                    "name": "A#1",
                    "midi": 34,
                    "time": 112.89938100000013,
                    "velocity": 0.3937007874015748,
                    "duration": 0.35502950000000055
                },
                {
                    "name": "E2",
                    "midi": 40,
                    "time": 113.25441050000013,
                    "velocity": 0.33858267716535434,
                    "duration": 0.35502950000000055
                },
                {
                    "name": "F2",
                    "midi": 41,
                    "time": 113.60944000000013,
                    "velocity": 0.3937007874015748,
                    "duration": 0.35502950000000055
                },
                {
                    "name": "A#2",
                    "midi": 46,
                    "time": 113.96446950000013,
                    "velocity": 0.33858267716535434,
                    "duration": 0.35502950000000055
                },
                {
                    "name": "A2",
                    "midi": 45,
                    "time": 114.31949900000014,
                    "velocity": 0.4015748031496063,
                    "duration": 0.35502950000000055
                },
                {
                    "name": "G2",
                    "midi": 43,
                    "time": 114.67452850000014,
                    "velocity": 0.3779527559055118,
                    "duration": 0.35502950000000055
                },
                {
                    "name": "A#1",
                    "midi": 34,
                    "time": 115.02955800000014,
                    "velocity": 0.3937007874015748,
                    "duration": 0.35502950000000055
                },
                {
                    "name": "E2",
                    "midi": 40,
                    "time": 115.38458750000014,
                    "velocity": 0.33858267716535434,
                    "duration": 0.35502950000000055
                },
                {
                    "name": "F2",
                    "midi": 41,
                    "time": 115.73961700000014,
                    "velocity": 0.3937007874015748,
                    "duration": 0.35502950000000055
                },
                {
                    "name": "C3",
                    "midi": 48,
                    "time": 116.07837431458347,
                    "velocity": 0.33858267716535434,
                    "duration": 0.35502950000000055
                },
                {
                    "name": "A2",
                    "midi": 45,
                    "time": 116.44967600000014,
                    "velocity": 0.4015748031496063,
                    "duration": 0.35502950000000055
                },
                {
                    "name": "A#2",
                    "midi": 46,
                    "time": 116.80470550000014,
                    "velocity": 0.3779527559055118,
                    "duration": 0.35502950000000055
                },
                {
                    "name": "D#3",
                    "midi": 51,
                    "time": 117.15973500000014,
                    "velocity": 0.4409448818897638,
                    "duration": 0.35502950000000055
                },
                {
                    "name": "C#3",
                    "midi": 49,
                    "time": 117.51476450000014,
                    "velocity": 0.41732283464566927,
                    "duration": 0.35502950000000055
                },
                {
                    "name": "D3",
                    "midi": 50,
                    "time": 117.86979400000014,
                    "velocity": 0.48031496062992124,
                    "duration": 0.35502950000000055
                },
                {
                    "name": "G3",
                    "midi": 55,
                    "time": 118.22482350000014,
                    "velocity": 0.4330708661417323,
                    "duration": 0.35502950000000055
                },
                {
                    "name": "E3",
                    "midi": 52,
                    "time": 118.57985300000014,
                    "velocity": 0.4881889763779528,
                    "duration": 0.35502950000000055
                },
                {
                    "name": "F3",
                    "midi": 53,
                    "time": 118.93488250000014,
                    "velocity": 0.4566929133858268,
                    "duration": 0.35502950000000055
                },
                {
                    "name": "D4",
                    "midi": 62,
                    "time": 119.28991200000014,
                    "velocity": 0.5433070866141733,
                    "duration": 0.7100590000000011
                },
                {
                    "name": "F2",
                    "midi": 41,
                    "time": 121.42008900000015,
                    "velocity": 0.41732283464566927,
                    "duration": 2.1301770000000033
                },
                {
                    "name": "F1",
                    "midi": 29,
                    "time": 121.42008900000015,
                    "velocity": 0.3543307086614173,
                    "duration": 2.1301770000000033
                },
                {
                    "name": "A#1",
                    "midi": 34,
                    "time": 123.55026600000015,
                    "velocity": 0.36220472440944884,
                    "duration": 2.1301770000000033
                },
                {
                    "name": "A#2",
                    "midi": 46,
                    "time": 123.55026600000015,
                    "velocity": 0.4330708661417323,
                    "duration": 2.1301770000000033
                }
            ],
            "controlChanges": {
                "7": [
                    {
                        "number": 7,
                        "time": 0,
                        "value": 0.7874015748031497
                    }
                ],
                "10": [
                    {
                        "number": 10,
                        "time": 0,
                        "value": 0.5039370078740157
                    }
                ],
                "64": [
                    {
                        "number": 64,
                        "time": 0.15236682708333332,
                        "value": 1
                    },
                    {
                        "number": 64,
                        "time": 0.7307690541666667,
                        "value": 0
                    },
                    {
                        "number": 64,
                        "time": 0.9304731479166667,
                        "value": 1
                    },
                    {
                        "number": 64,
                        "time": 1.4319523166666666,
                        "value": 0
                    },
                    {
                        "number": 64,
                        "time": 1.6227806729166665,
                        "value": 1
                    },
                    {
                        "number": 64,
                        "time": 2.144969895833333,
                        "value": 0
                    },
                    {
                        "number": 64,
                        "time": 2.2455615874999997,
                        "value": 1
                    },
                    {
                        "number": 64,
                        "time": 2.8609460541666665,
                        "value": 0
                    },
                    {
                        "number": 64,
                        "time": 2.965975614583333,
                        "value": 1
                    },
                    {
                        "number": 64,
                        "time": 3.56360860625,
                        "value": 0
                    },
                    {
                        "number": 64,
                        "time": 3.6656795874999997,
                        "value": 1
                    },
                    {
                        "number": 64,
                        "time": 4.270709027083333,
                        "value": 0
                    },
                    {
                        "number": 64,
                        "time": 4.463016672916666,
                        "value": 1
                    },
                    {
                        "number": 64,
                        "time": 4.991123054166666,
                        "value": 0
                    },
                    {
                        "number": 64,
                        "time": 5.173075672916665,
                        "value": 1
                    },
                    {
                        "number": 64,
                        "time": 5.695264895833332,
                        "value": 0
                    },
                    {
                        "number": 64,
                        "time": 5.917158333333332,
                        "value": 1
                    },
                    {
                        "number": 64,
                        "time": 6.406803185416665,
                        "value": 0
                    },
                    {
                        "number": 64,
                        "time": 6.593193672916665,
                        "value": 1
                    },
                    {
                        "number": 64,
                        "time": 7.128696502083331,
                        "value": 0
                    },
                    {
                        "number": 64,
                        "time": 7.269229012499998,
                        "value": 1
                    },
                    {
                        "number": 64,
                        "time": 7.83431763333333,
                        "value": 0
                    },
                    {
                        "number": 64,
                        "time": 7.997039487499997,
                        "value": 1
                    },
                    {
                        "number": 64,
                        "time": 8.53106302708333,
                        "value": 0
                    },
                    {
                        "number": 64,
                        "time": 8.75739433333333,
                        "value": 1
                    },
                    {
                        "number": 64,
                        "time": 9.251477054166665,
                        "value": 0
                    },
                    {
                        "number": 64,
                        "time": 9.433429672916665,
                        "value": 1
                    },
                    {
                        "number": 64,
                        "time": 9.952660316666666,
                        "value": 0
                    },
                    {
                        "number": 64,
                        "time": 10.161240147916667,
                        "value": 1
                    },
                    {
                        "number": 64,
                        "time": 10.662719316666667,
                        "value": 0
                    },
                    {
                        "number": 64,
                        "time": 10.786979641666667,
                        "value": 1
                    },
                    {
                        "number": 64,
                        "time": 11.375736895833334,
                        "value": 0
                    },
                    {
                        "number": 64,
                        "time": 11.440825637500001,
                        "value": 1
                    },
                    {
                        "number": 64,
                        "time": 12.090233764583337,
                        "value": 0
                    },
                    {
                        "number": 64,
                        "time": 12.244079881250004,
                        "value": 1
                    },
                    {
                        "number": 64,
                        "time": 12.791417027083337,
                        "value": 0
                    },
                    {
                        "number": 64,
                        "time": 12.927511668750004,
                        "value": 1
                    },
                    {
                        "number": 64,
                        "time": 13.505913895833338,
                        "value": 0
                    },
                    {
                        "number": 64,
                        "time": 13.606505587500004,
                        "value": 1
                    },
                    {
                        "number": 64,
                        "time": 14.214493606250004,
                        "value": 0
                    },
                    {
                        "number": 64,
                        "time": 14.347629668750004,
                        "value": 1
                    },
                    {
                        "number": 64,
                        "time": 14.926031895833338,
                        "value": 0
                    },
                    {
                        "number": 64,
                        "time": 15.097629487500004,
                        "value": 1
                    },
                    {
                        "number": 64,
                        "time": 15.636090895833338,
                        "value": 0
                    },
                    {
                        "number": 64,
                        "time": 15.84171214791667,
                        "value": 1
                    },
                    {
                        "number": 64,
                        "time": 16.349108475000005,
                        "value": 0
                    },
                    {
                        "number": 64,
                        "time": 16.50147530208334,
                        "value": 1
                    },
                    {
                        "number": 64,
                        "time": 17.051771027083337,
                        "value": 0
                    },
                    {
                        "number": 64,
                        "time": 17.278102333333337,
                        "value": 1
                    },
                    {
                        "number": 64,
                        "time": 17.775143633333336,
                        "value": 0
                    },
                    {
                        "number": 64,
                        "time": 17.903841827083337,
                        "value": 1
                    },
                    {
                        "number": 64,
                        "time": 18.47632689583334,
                        "value": 0
                    },
                    {
                        "number": 64,
                        "time": 18.613900827083338,
                        "value": 1
                    },
                    {
                        "number": 64,
                        "time": 19.183427316666673,
                        "value": 0
                    },
                    {
                        "number": 64,
                        "time": 19.338752722916674,
                        "value": 1
                    },
                    {
                        "number": 64,
                        "time": 19.90532063333334,
                        "value": 0
                    },
                    {
                        "number": 64,
                        "time": 20.079876804166673,
                        "value": 1
                    },
                    {
                        "number": 64,
                        "time": 20.603545316666676,
                        "value": 0
                    },
                    {
                        "number": 64,
                        "time": 20.696740560416675,
                        "value": 1
                    },
                    {
                        "number": 64,
                        "time": 21.30177000000001,
                        "value": 0
                    },
                    {
                        "number": 64,
                        "time": 21.454136827083342,
                        "value": 1
                    },
                    {
                        "number": 64,
                        "time": 22.02958047500001,
                        "value": 0
                    },
                    {
                        "number": 64,
                        "time": 22.164195827083343,
                        "value": 1
                    },
                    {
                        "number": 64,
                        "time": 22.736680895833345,
                        "value": 0
                    },
                    {
                        "number": 64,
                        "time": 22.892006302083345,
                        "value": 1
                    },
                    {
                        "number": 64,
                        "time": 23.43194700000001,
                        "value": 0
                    },
                    {
                        "number": 64,
                        "time": 23.566562352083345,
                        "value": 1
                    },
                    {
                        "number": 64,
                        "time": 24.15384031666668,
                        "value": 0
                    },
                    {
                        "number": 64,
                        "time": 24.344668672916683,
                        "value": 1
                    },
                    {
                        "number": 64,
                        "time": 24.86537860625002,
                        "value": 0
                    },
                    {
                        "number": 64,
                        "time": 24.92011232083335,
                        "value": 1
                    },
                    {
                        "number": 64,
                        "time": 25.573958316666687,
                        "value": 0
                    },
                    {
                        "number": 64,
                        "time": 25.696739352083352,
                        "value": 1
                    },
                    {
                        "number": 64,
                        "time": 26.288455185416687,
                        "value": 0
                    },
                    {
                        "number": 64,
                        "time": 26.458573487500022,
                        "value": 1
                    },
                    {
                        "number": 64,
                        "time": 26.999993475000025,
                        "value": 0
                    },
                    {
                        "number": 64,
                        "time": 27.20265614791669,
                        "value": 1
                    },
                    {
                        "number": 64,
                        "time": 27.714490343750025,
                        "value": 0
                    },
                    {
                        "number": 64,
                        "time": 27.894963672916692,
                        "value": 1
                    },
                    {
                        "number": 64,
                        "time": 28.414194316666695,
                        "value": 0
                    },
                    {
                        "number": 64,
                        "time": 28.53697535208336,
                        "value": 1
                    },
                    {
                        "number": 64,
                        "time": 29.124253316666696,
                        "value": 0
                    },
                    {
                        "number": 64,
                        "time": 29.315081672916698,
                        "value": 1
                    },
                    {
                        "number": 64,
                        "time": 29.822478000000032,
                        "value": 0
                    },
                    {
                        "number": 64,
                        "time": 30.00886848750003,
                        "value": 1
                    },
                    {
                        "number": 64,
                        "time": 30.545850606250035,
                        "value": 0
                    },
                    {
                        "number": 64,
                        "time": 30.701176012500035,
                        "value": 1
                    },
                    {
                        "number": 64,
                        "time": 31.251471737500033,
                        "value": 0
                    },
                    {
                        "number": 64,
                        "time": 31.394962827083365,
                        "value": 1
                    },
                    {
                        "number": 64,
                        "time": 31.976323633333365,
                        "value": 0
                    },
                    {
                        "number": 64,
                        "time": 32.12277330208337,
                        "value": 1
                    },
                    {
                        "number": 64,
                        "time": 32.68934121250004,
                        "value": 0
                    },
                    {
                        "number": 64,
                        "time": 32.84910448750004,
                        "value": 1
                    },
                    {
                        "number": 64,
                        "time": 33.38312802708338,
                        "value": 0
                    },
                    {
                        "number": 64,
                        "time": 33.54289130208338,
                        "value": 1
                    },
                    {
                        "number": 64,
                        "time": 34.10354205416672,
                        "value": 0
                    },
                    {
                        "number": 64,
                        "time": 34.28549467291672,
                        "value": 1
                    },
                    {
                        "number": 64,
                        "time": 36.213009000000056,
                        "value": 0
                    },
                    {
                        "number": 64,
                        "time": 36.38164801250006,
                        "value": 1
                    },
                    {
                        "number": 64,
                        "time": 38.36093747500006,
                        "value": 0
                    },
                    {
                        "number": 64,
                        "time": 38.545848672916726,
                        "value": 1
                    },
                    {
                        "number": 64,
                        "time": 40.488155895833394,
                        "value": 0
                    },
                    {
                        "number": 64,
                        "time": 40.69377714791673,
                        "value": 1
                    },
                    {
                        "number": 64,
                        "time": 42.619812185416734,
                        "value": 0
                    },
                    {
                        "number": 64,
                        "time": 42.7559068270834,
                        "value": 1
                    },
                    {
                        "number": 64,
                        "time": 44.74703060625007,
                        "value": 0
                    },
                    {
                        "number": 64,
                        "time": 44.869811641666736,
                        "value": 1
                    },
                    {
                        "number": 64,
                        "time": 46.87572831666674,
                        "value": 0
                    },
                    {
                        "number": 64,
                        "time": 47.03253301250007,
                        "value": 1
                    },
                    {
                        "number": 64,
                        "time": 47.59466305416673,
                        "value": 0
                    },
                    {
                        "number": 64,
                        "time": 47.760343487500066,
                        "value": 1
                    },
                    {
                        "number": 64,
                        "time": 49.0088638958334,
                        "value": 0
                    },
                    {
                        "number": 64,
                        "time": 49.2307573333334,
                        "value": 1
                    },
                    {
                        "number": 64,
                        "time": 51.14939592291674,
                        "value": 0
                    },
                    {
                        "number": 64,
                        "time": 51.294366302083404,
                        "value": 1
                    },
                    {
                        "number": 64,
                        "time": 53.263300737500074,
                        "value": 0
                    },
                    {
                        "number": 64,
                        "time": 53.42306401250008,
                        "value": 1
                    },
                    {
                        "number": 64,
                        "time": 55.39791560625008,
                        "value": 0
                    },
                    {
                        "number": 64,
                        "time": 55.53696882708341,
                        "value": 1
                    },
                    {
                        "number": 64,
                        "time": 57.528092606250084,
                        "value": 0
                    },
                    {
                        "number": 64,
                        "time": 57.683418012500084,
                        "value": 1
                    },
                    {
                        "number": 64,
                        "time": 59.65531102708342,
                        "value": 0
                    },
                    {
                        "number": 64,
                        "time": 59.86537014791676,
                        "value": 1
                    },
                    {
                        "number": 64,
                        "time": 61.797322343750096,
                        "value": 0
                    },
                    {
                        "number": 64,
                        "time": 61.902351904166764,
                        "value": 1
                    },
                    {
                        "number": 64,
                        "time": 63.915665027083435,
                        "value": 0
                    },
                    {
                        "number": 64,
                        "time": 64.10797267291677,
                        "value": 1
                    },
                    {
                        "number": 64,
                        "time": 64.63459976458343,
                        "value": 0
                    },
                    {
                        "number": 64,
                        "time": 64.83578314791676,
                        "value": 1
                    },
                    {
                        "number": 64,
                        "time": 66.04288344791675,
                        "value": 0
                    },
                    {
                        "number": 64,
                        "time": 66.20412601250008,
                        "value": 1
                    },
                    {
                        "number": 64,
                        "time": 68.18637405416676,
                        "value": 0
                    },
                    {
                        "number": 64,
                        "time": 68.3343030125001,
                        "value": 1
                    },
                    {
                        "number": 64,
                        "time": 68.89939163333344,
                        "value": 0
                    },
                    {
                        "number": 64,
                        "time": 69.0621134875001,
                        "value": 1
                    },
                    {
                        "number": 64,
                        "time": 69.59761631666676,
                        "value": 0
                    },
                    {
                        "number": 64,
                        "time": 69.73814882708342,
                        "value": 1
                    },
                    {
                        "number": 64,
                        "time": 70.31507176458342,
                        "value": 0
                    },
                    {
                        "number": 64,
                        "time": 70.46448001250009,
                        "value": 1
                    },
                    {
                        "number": 64,
                        "time": 71.01773431666676,
                        "value": 0
                    },
                    {
                        "number": 64,
                        "time": 71.22631414791677,
                        "value": 1
                    },
                    {
                        "number": 64,
                        "time": 71.7337104750001,
                        "value": 0
                    },
                    {
                        "number": 64,
                        "time": 71.88607730208342,
                        "value": 1
                    },
                    {
                        "number": 64,
                        "time": 72.44672805416675,
                        "value": 0
                    },
                    {
                        "number": 64,
                        "time": 72.5946570125001,
                        "value": 1
                    },
                    {
                        "number": 64,
                        "time": 73.1538284750001,
                        "value": 0
                    },
                    {
                        "number": 64,
                        "time": 73.3047160125001,
                        "value": 1
                    },
                    {
                        "number": 64,
                        "time": 73.86240818541677,
                        "value": 0
                    },
                    {
                        "number": 64,
                        "time": 73.99850282708344,
                        "value": 1
                    },
                    {
                        "number": 64,
                        "time": 74.57690505416679,
                        "value": 0
                    },
                    {
                        "number": 64,
                        "time": 74.72483401250012,
                        "value": 1
                    },
                    {
                        "number": 64,
                        "time": 75.28104689583347,
                        "value": 0
                    },
                    {
                        "number": 64,
                        "time": 75.43489301250014,
                        "value": 1
                    },
                    {
                        "number": 64,
                        "time": 75.99258518541681,
                        "value": 0
                    },
                    {
                        "number": 64,
                        "time": 76.12867982708349,
                        "value": 1
                    },
                    {
                        "number": 64,
                        "time": 76.70708205416683,
                        "value": 0
                    },
                    {
                        "number": 64,
                        "time": 76.9230583333335,
                        "value": 1
                    },
                    {
                        "number": 64,
                        "time": 77.41862034375016,
                        "value": 0
                    },
                    {
                        "number": 64,
                        "time": 77.56507001250016,
                        "value": 1
                    },
                    {
                        "number": 64,
                        "time": 78.11980360625016,
                        "value": 0
                    },
                    {
                        "number": 64,
                        "time": 78.27660830208349,
                        "value": 1
                    },
                    {
                        "number": 64,
                        "time": 78.83725905416682,
                        "value": 0
                    },
                    {
                        "number": 64,
                        "time": 79.03696314791682,
                        "value": 1
                    },
                    {
                        "number": 64,
                        "time": 79.54288018541682,
                        "value": 0
                    },
                    {
                        "number": 64,
                        "time": 79.69524701250015,
                        "value": 1
                    },
                    {
                        "number": 64,
                        "time": 80.24998060625015,
                        "value": 0
                    },
                    {
                        "number": 64,
                        "time": 80.40678530208348,
                        "value": 1
                    },
                    {
                        "number": 64,
                        "time": 80.9541224479168,
                        "value": 0
                    },
                    {
                        "number": 64,
                        "time": 81.11684430208346,
                        "value": 1
                    },
                    {
                        "number": 64,
                        "time": 81.67157789583347,
                        "value": 0
                    },
                    {
                        "number": 64,
                        "time": 81.84317548750013,
                        "value": 1
                    },
                    {
                        "number": 64,
                        "time": 85.2144764479168,
                        "value": 0
                    },
                    {
                        "number": 64,
                        "time": 85.39347048750012,
                        "value": 1
                    },
                    {
                        "number": 64,
                        "time": 85.92601473750013,
                        "value": 0
                    },
                    {
                        "number": 64,
                        "time": 86.05175435208346,
                        "value": 1
                    },
                    {
                        "number": 64,
                        "time": 86.63755302708347,
                        "value": 0
                    },
                    {
                        "number": 64,
                        "time": 86.75293761458347,
                        "value": 1
                    },
                    {
                        "number": 64,
                        "time": 87.35944634375014,
                        "value": 0
                    },
                    {
                        "number": 64,
                        "time": 87.5576711479168,
                        "value": 1
                    },
                    {
                        "number": 64,
                        "time": 88.06062960625013,
                        "value": 0
                    },
                    {
                        "number": 64,
                        "time": 88.2499786729168,
                        "value": 1
                    },
                    {
                        "number": 64,
                        "time": 88.76920931666679,
                        "value": 0
                    },
                    {
                        "number": 64,
                        "time": 88.90974182708345,
                        "value": 1
                    },
                    {
                        "number": 64,
                        "time": 89.4881440541668,
                        "value": 0
                    },
                    {
                        "number": 64,
                        "time": 89.63755230208346,
                        "value": 1
                    },
                    {
                        "number": 64,
                        "time": 90.20116163333346,
                        "value": 0
                    },
                    {
                        "number": 64,
                        "time": 90.34613201250012,
                        "value": 1
                    },
                    {
                        "number": 64,
                        "time": 90.90530347500012,
                        "value": 0
                    },
                    {
                        "number": 64,
                        "time": 91.03991882708345,
                        "value": 1
                    },
                    {
                        "number": 64,
                        "time": 91.6227589229168,
                        "value": 0
                    },
                    {
                        "number": 64,
                        "time": 91.74997782708347,
                        "value": 1
                    },
                    {
                        "number": 64,
                        "time": 92.32838005416681,
                        "value": 0
                    },
                    {
                        "number": 64,
                        "time": 92.49406048750015,
                        "value": 1
                    },
                    {
                        "number": 64,
                        "time": 93.03991834375014,
                        "value": 0
                    },
                    {
                        "number": 64,
                        "time": 93.28843899375015,
                        "value": 1
                    },
                    {
                        "number": 64,
                        "time": 93.75145663333348,
                        "value": 0
                    },
                    {
                        "number": 64,
                        "time": 93.89790630208347,
                        "value": 1
                    },
                    {
                        "number": 64,
                        "time": 94.4629949229168,
                        "value": 0
                    },
                    {
                        "number": 64,
                        "time": 95.9763081666668,
                        "value": 1
                    },
                    {
                        "number": 64,
                        "time": 96.5798583166668,
                        "value": 0
                    },
                    {
                        "number": 64,
                        "time": 96.73666301250013,
                        "value": 1
                    },
                    {
                        "number": 64,
                        "time": 97.2943551854168,
                        "value": 0
                    },
                    {
                        "number": 64,
                        "time": 97.41417764166681,
                        "value": 1
                    },
                    {
                        "number": 64,
                        "time": 97.98814200000014,
                        "value": 0
                    },
                    {
                        "number": 64,
                        "time": 98.17453248750014,
                        "value": 1
                    },
                    {
                        "number": 64,
                        "time": 98.36092297500014,
                        "value": 0
                    },
                    {
                        "number": 64,
                        "time": 100.2366621666668,
                        "value": 1
                    },
                    {
                        "number": 64,
                        "time": 100.84612947500014,
                        "value": 0
                    },
                    {
                        "number": 64,
                        "time": 101.0310406729168,
                        "value": 1
                    },
                    {
                        "number": 64,
                        "time": 101.55175060625012,
                        "value": 0
                    },
                    {
                        "number": 64,
                        "time": 101.72482748750012,
                        "value": 1
                    },
                    {
                        "number": 64,
                        "time": 102.29879184583345,
                        "value": 0
                    },
                    {
                        "number": 64,
                        "time": 102.43488648750012,
                        "value": 1
                    },
                    {
                        "number": 64,
                        "time": 102.62571484375012,
                        "value": 0
                    },
                    {
                        "number": 64,
                        "time": 104.56654277708346,
                        "value": 1
                    },
                    {
                        "number": 64,
                        "time": 105.81950105416679,
                        "value": 0
                    },
                    {
                        "number": 64,
                        "time": 106.69524048750013,
                        "value": 1
                    },
                    {
                        "number": 64,
                        "time": 106.90234102916679,
                        "value": 0
                    },
                    {
                        "number": 64,
                        "time": 108.91121628333346,
                        "value": 1
                    },
                    {
                        "number": 64,
                        "time": 110.0798550541668,
                        "value": 0
                    },
                    {
                        "number": 64,
                        "time": 110.95559448750014,
                        "value": 1
                    },
                    {
                        "number": 64,
                        "time": 111.1626950291668,
                        "value": 0
                    },
                    {
                        "number": 64,
                        "time": 113.08577148750014,
                        "value": 1
                    },
                    {
                        "number": 64,
                        "time": 113.27659984375013,
                        "value": 0
                    },
                    {
                        "number": 64,
                        "time": 115.21594848750014,
                        "value": 1
                    },
                    {
                        "number": 64,
                        "time": 115.4141732916668,
                        "value": 0
                    },
                    {
                        "number": 64,
                        "time": 117.2780781666668,
                        "value": 1
                    },
                    {
                        "number": 64,
                        "time": 117.52955739583348,
                        "value": 0
                    },
                    {
                        "number": 64,
                        "time": 119.44819598541682,
                        "value": 1
                    },
                    {
                        "number": 64,
                        "time": 120.03991181875014,
                        "value": 0
                    },
                    {
                        "number": 64,
                        "time": 121.69671615208348,
                        "value": 1
                    },
                    {
                        "number": 64,
                        "time": 123.55026600000015,
                        "value": 0
                    },
                    {
                        "number": 64,
                        "time": 124.14198183333349,
                        "value": 1
                    },
                    {
                        "number": 64,
                        "time": 127.10056100000016,
                        "value": 0
                    }
                ]
            },
            "id": 2,
            "name": "Piano left",
            "instrumentNumber": 0,
            "instrument": "acoustic grand piano",
            "instrumentFamily": "piano",
            "channelNumber": 0,
            "isPercussion": false
        },
        {
            "startTime": 0,
            "duration": 0,
            "length": 0,
            "notes": [],
            "controlChanges": {
                "64": [
                    {
                        "number": 64,
                        "time": 85.20708,
                        "value": 0
                    }
                ]
            },
            "id": 3,
            "name": "Chopin: Prelude No.21 in Bb Major Op. 28"
        },
        {
            "startTime": 0,
            "duration": 0,
            "length": 0,
            "notes": [],
            "controlChanges": {},
            "id": 4,
            "name": "Copyright  2002 by Bernd Krueger"
        },
        {
            "startTime": 0,
            "duration": 0,
            "length": 0,
            "notes": [],
            "controlChanges": {},
            "id": 5,
            "name": "http://www.piano-midi.de"
        },
        {
            "startTime": 0,
            "duration": 0,
            "length": 0,
            "notes": [],
            "controlChanges": {},
            "id": 6,
            "name": "Edition: 2014-02-22"
        },
        {
            "startTime": 0,
            "duration": 0,
            "length": 0,
            "notes": [],
            "controlChanges": {},
            "id": 7,
            "name": "Spur 7"
        }
    ]
}