{
    "header": {
        "PPQ": 480,
        "timeSignature": [
            3,
            4
        ],
        "bpm": 143.99988480009216,
        "name": "Chopin Mazurka Opus 7 No. 1"
    },
    "startTime": 0,
    "duration": 130.00010400000005,
    "tracks": [
        {
            "startTime": 0,
            "duration": 0,
            "length": 0,
            "notes": [],
            "controlChanges": {},
            "id": 0,
            "name": "Chopin Mazurka Opus 7 No. 1"
        },
        {
            "startTime": 0,
            "duration": 130.0001039999998,
            "length": 607,
            "notes": [
                {
                    "name": "F4",
                    "midi": 65,
                    "time": 0,
                    "velocity": 0.5511811023622047,
                    "duration": 0.2083335
                },
                {
                    "name": "F4",
                    "midi": 65,
                    "time": 0.31250025000000003,
                    "velocity": 0.5196850393700787,
                    "duration": 0.10416674999999997
                },
                {
                    "name": "G4",
                    "midi": 67,
                    "time": 0.416667,
                    "velocity": 0.5511811023622047,
                    "duration": 0.416667
                },
                {
                    "name": "A4",
                    "midi": 69,
                    "time": 0.833334,
                    "velocity": 0.5511811023622047,
                    "duration": 0.4166670000000001
                },
                {
                    "name": "A#4",
                    "midi": 70,
                    "time": 1.2500010000000001,
                    "velocity": 0.5590551181102362,
                    "duration": 0.20833349999999995
                },
                {
                    "name": "C5",
                    "midi": 72,
                    "time": 1.5625012500000002,
                    "velocity": 0.5196850393700787,
                    "duration": 0.10416675000000009
                },
                {
                    "name": "D5",
                    "midi": 74,
                    "time": 1.6666680000000003,
                    "velocity": 0.5511811023622047,
                    "duration": 0.4166670000000001
                },
                {
                    "name": "D#5",
                    "midi": 75,
                    "time": 2.0833350000000004,
                    "velocity": 0.5905511811023622,
                    "duration": 0.20833350000000017
                },
                {
                    "name": "F5",
                    "midi": 77,
                    "time": 2.2916685000000006,
                    "velocity": 0.6220472440944882,
                    "duration": 0.20833350000000017
                },
                {
                    "name": "G5",
                    "midi": 79,
                    "time": 2.5000020000000007,
                    "velocity": 0.6535433070866141,
                    "duration": 0.10416675000000009
                },
                {
                    "name": "A5",
                    "midi": 81,
                    "time": 2.812502250000001,
                    "velocity": 0.5905511811023622,
                    "duration": 0.10416675000000009
                },
                {
                    "name": "A#5",
                    "midi": 82,
                    "time": 2.916669000000001,
                    "velocity": 0.5984251968503937,
                    "duration": 0.05208337500000004
                },
                {
                    "name": "C6",
                    "midi": 84,
                    "time": 2.968752375000001,
                    "velocity": 0.5275590551181102,
                    "duration": 0.05208337500000004
                },
                {
                    "name": "A#5",
                    "midi": 82,
                    "time": 3.020835750000001,
                    "velocity": 0.5748031496062992,
                    "duration": 0.05208337500000004
                },
                {
                    "name": "C6",
                    "midi": 84,
                    "time": 3.072919125000001,
                    "velocity": 0.5196850393700787,
                    "duration": 0.05208337500000004
                },
                {
                    "name": "A#5",
                    "midi": 82,
                    "time": 3.1250025000000012,
                    "velocity": 0.5511811023622047,
                    "duration": 0.05208337500000004
                },
                {
                    "name": "C6",
                    "midi": 84,
                    "time": 3.1770858750000013,
                    "velocity": 0.5039370078740157,
                    "duration": 0.05208337500000004
                },
                {
                    "name": "A#5",
                    "midi": 82,
                    "time": 3.2291692500000013,
                    "velocity": 0.5511811023622047,
                    "duration": 0.05208337500000004
                },
                {
                    "name": "C6",
                    "midi": 84,
                    "time": 3.2812526250000014,
                    "velocity": 0.5039370078740157,
                    "duration": 0.05208337500000004
                },
                {
                    "name": "A5",
                    "midi": 81,
                    "time": 3.3333360000000014,
                    "velocity": 0.5511811023622047,
                    "duration": 0.20833350000000017
                },
                {
                    "name": "G5",
                    "midi": 79,
                    "time": 3.5416695000000016,
                    "velocity": 0.4409448818897638,
                    "duration": 0.15625012500000013
                },
                {
                    "name": "F5",
                    "midi": 77,
                    "time": 3.6979196250000017,
                    "velocity": 0.36220472440944884,
                    "duration": 0.05208337500000004
                },
                {
                    "name": "A#5",
                    "midi": 82,
                    "time": 3.7500030000000018,
                    "velocity": 0.41732283464566927,
                    "duration": 0.10416675000000009
                },
                {
                    "name": "A#5",
                    "midi": 82,
                    "time": 4.062503250000002,
                    "velocity": 0.3858267716535433,
                    "duration": 0.10416675000000009
                },
                {
                    "name": "D5",
                    "midi": 74,
                    "time": 4.166670000000002,
                    "velocity": 0.3464566929133858,
                    "duration": 0.7812506250000002
                },
                {
                    "name": "D#5",
                    "midi": 75,
                    "time": 4.947920625000002,
                    "velocity": 0.3543307086614173,
                    "duration": 0.0520833749999996
                },
                {
                    "name": "G5",
                    "midi": 79,
                    "time": 5.0000040000000014,
                    "velocity": 0.4015748031496063,
                    "duration": 0.10416675000000009
                },
                {
                    "name": "G5",
                    "midi": 79,
                    "time": 5.312504250000002,
                    "velocity": 0.36220472440944884,
                    "duration": 0.10416675000000009
                },
                {
                    "name": "A4",
                    "midi": 69,
                    "time": 5.416671000000002,
                    "velocity": 0.3464566929133858,
                    "duration": 0.7812506250000002
                },
                {
                    "name": "A#4",
                    "midi": 70,
                    "time": 6.197921625000002,
                    "velocity": 0.3543307086614173,
                    "duration": 0.0520833749999996
                },
                {
                    "name": "D5",
                    "midi": 74,
                    "time": 6.250005000000002,
                    "velocity": 0.3858267716535433,
                    "duration": 0.10416675000000009
                },
                {
                    "name": "D5",
                    "midi": 74,
                    "time": 6.562505250000002,
                    "velocity": 0.3700787401574803,
                    "duration": 0.10416675000000009
                },
                {
                    "name": "E4",
                    "midi": 64,
                    "time": 6.666672000000002,
                    "velocity": 0.3464566929133858,
                    "duration": 0.8333339999999998
                },
                {
                    "name": "F4",
                    "midi": 65,
                    "time": 7.500006000000002,
                    "velocity": 0.4330708661417323,
                    "duration": 0.10416675000000009
                },
                {
                    "name": "A4",
                    "midi": 69,
                    "time": 7.812506250000002,
                    "velocity": 0.4566929133858268,
                    "duration": 0.10416675000000009
                },
                {
                    "name": "C5",
                    "midi": 72,
                    "time": 7.916673000000002,
                    "velocity": 0.4645669291338583,
                    "duration": 0.20833349999999928
                },
                {
                    "name": "D#5",
                    "midi": 75,
                    "time": 8.125006500000001,
                    "velocity": 0.47244094488188976,
                    "duration": 0.20833350000000017
                },
                {
                    "name": "G5",
                    "midi": 79,
                    "time": 8.333340000000002,
                    "velocity": 0.5275590551181102,
                    "duration": 0.31250024999999937
                },
                {
                    "name": "F5",
                    "midi": 77,
                    "time": 8.645840250000001,
                    "velocity": 0.49606299212598426,
                    "duration": 0.05034726250000077
                },
                {
                    "name": "F5",
                    "midi": 77,
                    "time": 8.697923625000001,
                    "velocity": 0.4330708661417323,
                    "duration": 0.05208337500000049
                },
                {
                    "name": "D6",
                    "midi": 86,
                    "time": 8.750007000000002,
                    "velocity": 0.5905511811023622,
                    "duration": 0.1041667499999992
                },
                {
                    "name": "C6",
                    "midi": 84,
                    "time": 9.062507250000001,
                    "velocity": 0.5039370078740157,
                    "duration": 0.1041667499999992
                },
                {
                    "name": "A#5",
                    "midi": 82,
                    "time": 9.166674,
                    "velocity": 0.4330708661417323,
                    "duration": 0.05208337500000049
                },
                {
                    "name": "C6",
                    "midi": 84,
                    "time": 9.218757375000001,
                    "velocity": 0.4251968503937008,
                    "duration": 0.05208337500000049
                },
                {
                    "name": "A#5",
                    "midi": 82,
                    "time": 9.270840750000001,
                    "velocity": 0.47244094488188976,
                    "duration": 0.1041667499999992
                },
                {
                    "name": "G5",
                    "midi": 79,
                    "time": 9.3750075,
                    "velocity": 0.4566929133858268,
                    "duration": 0.20833350000000017
                },
                {
                    "name": "F5",
                    "midi": 77,
                    "time": 9.583341,
                    "velocity": 0.4330708661417323,
                    "duration": 0.41666700000000034
                },
                {
                    "name": "G5",
                    "midi": 79,
                    "time": 9.947924625,
                    "velocity": 0.3543307086614173,
                    "duration": 0.05208337500000049
                },
                {
                    "name": "A#5",
                    "midi": 82,
                    "time": 10.000008000000001,
                    "velocity": 0.4015748031496063,
                    "duration": 0.1041667499999992
                },
                {
                    "name": "A#5",
                    "midi": 82,
                    "time": 10.31250825,
                    "velocity": 0.36220472440944884,
                    "duration": 0.1041667499999992
                },
                {
                    "name": "A4",
                    "midi": 69,
                    "time": 10.416675,
                    "velocity": 0.3464566929133858,
                    "duration": 0.7291672499999997
                },
                {
                    "name": "A#4",
                    "midi": 70,
                    "time": 11.14584225,
                    "velocity": 0.33070866141732286,
                    "duration": 0.05208337500000049
                },
                {
                    "name": "D5",
                    "midi": 74,
                    "time": 11.197925625,
                    "velocity": 0.3228346456692913,
                    "duration": 0.05208337500000049
                },
                {
                    "name": "F5",
                    "midi": 77,
                    "time": 11.250009,
                    "velocity": 0.3858267716535433,
                    "duration": 0.1041667499999992
                },
                {
                    "name": "F5",
                    "midi": 77,
                    "time": 11.56250925,
                    "velocity": 0.3700787401574803,
                    "duration": 0.1041667499999992
                },
                {
                    "name": "E4",
                    "midi": 64,
                    "time": 11.666675999999999,
                    "velocity": 0.3464566929133858,
                    "duration": 0.8333340000000007
                },
                {
                    "name": "F4",
                    "midi": 65,
                    "time": 12.50001,
                    "velocity": 0.4330708661417323,
                    "duration": 0.1041667499999992
                },
                {
                    "name": "A4",
                    "midi": 69,
                    "time": 12.812510249999999,
                    "velocity": 0.4566929133858268,
                    "duration": 0.1041667499999992
                },
                {
                    "name": "C5",
                    "midi": 72,
                    "time": 12.916676999999998,
                    "velocity": 0.4645669291338583,
                    "duration": 0.20833350000000017
                },
                {
                    "name": "D#5",
                    "midi": 75,
                    "time": 13.125010499999998,
                    "velocity": 0.47244094488188976,
                    "duration": 0.20833350000000017
                },
                {
                    "name": "D5",
                    "midi": 74,
                    "time": 13.333343999999999,
                    "velocity": 0.4409448818897638,
                    "duration": 0.05208337500000049
                },
                {
                    "name": "D#5",
                    "midi": 75,
                    "time": 13.385427374999999,
                    "velocity": 0.4409448818897638,
                    "duration": 0.05208337500000049
                },
                {
                    "name": "D5",
                    "midi": 74,
                    "time": 13.43751075,
                    "velocity": 0.48031496062992124,
                    "duration": 0.1041667499999992
                },
                {
                    "name": "C5",
                    "midi": 72,
                    "time": 13.541677499999999,
                    "velocity": 0.4409448818897638,
                    "duration": 0.20833350000000017
                },
                {
                    "name": "D5",
                    "midi": 74,
                    "time": 13.750010999999999,
                    "velocity": 0.5039370078740157,
                    "duration": 0.1041667499999992
                },
                {
                    "name": "F4",
                    "midi": 65,
                    "time": 14.062511249999998,
                    "velocity": 0.44881889763779526,
                    "duration": 0.1041667499999992
                },
                {
                    "name": "A#4",
                    "midi": 70,
                    "time": 14.166677999999997,
                    "velocity": 0.4645669291338583,
                    "duration": 0.41666700000000034
                },
                {
                    "name": "A4",
                    "midi": 69,
                    "time": 14.583344999999998,
                    "velocity": 0.5039370078740157,
                    "duration": 0.20833350000000017
                },
                {
                    "name": "G4",
                    "midi": 67,
                    "time": 14.791678499999998,
                    "velocity": 0.48031496062992124,
                    "duration": 0.20833350000000017
                },
                {
                    "name": "F4",
                    "midi": 65,
                    "time": 15.000011999999998,
                    "velocity": 0.5511811023622047,
                    "duration": 0.20833350000000017
                },
                {
                    "name": "F4",
                    "midi": 65,
                    "time": 15.312512249999997,
                    "velocity": 0.5196850393700787,
                    "duration": 0.1041667499999992
                },
                {
                    "name": "G4",
                    "midi": 67,
                    "time": 15.416678999999997,
                    "velocity": 0.5511811023622047,
                    "duration": 0.41666700000000034
                },
                {
                    "name": "A4",
                    "midi": 69,
                    "time": 15.833345999999997,
                    "velocity": 0.5511811023622047,
                    "duration": 0.41666699999999857
                },
                {
                    "name": "A#4",
                    "midi": 70,
                    "time": 16.250012999999996,
                    "velocity": 0.5590551181102362,
                    "duration": 0.2083334999999984
                },
                {
                    "name": "C5",
                    "midi": 72,
                    "time": 16.562513249999995,
                    "velocity": 0.5196850393700787,
                    "duration": 0.10416675000000097
                },
                {
                    "name": "D5",
                    "midi": 74,
                    "time": 16.666679999999996,
                    "velocity": 0.5511811023622047,
                    "duration": 0.41666700000000034
                },
                {
                    "name": "D#5",
                    "midi": 75,
                    "time": 17.083346999999996,
                    "velocity": 0.5905511811023622,
                    "duration": 0.2083334999999984
                },
                {
                    "name": "F5",
                    "midi": 77,
                    "time": 17.291680499999995,
                    "velocity": 0.6220472440944882,
                    "duration": 0.2083334999999984
                },
                {
                    "name": "G5",
                    "midi": 79,
                    "time": 17.500013999999993,
                    "velocity": 0.6535433070866141,
                    "duration": 0.10416675000000097
                },
                {
                    "name": "A5",
                    "midi": 81,
                    "time": 17.812514249999992,
                    "velocity": 0.5905511811023622,
                    "duration": 0.10416675000000097
                },
                {
                    "name": "A#5",
                    "midi": 82,
                    "time": 17.916680999999993,
                    "velocity": 0.5984251968503937,
                    "duration": 0.05208337499999871
                },
                {
                    "name": "C6",
                    "midi": 84,
                    "time": 17.968764374999992,
                    "velocity": 0.5275590551181102,
                    "duration": 0.05208337499999871
                },
                {
                    "name": "A#5",
                    "midi": 82,
                    "time": 18.02084774999999,
                    "velocity": 0.5748031496062992,
                    "duration": 0.05208337499999871
                },
                {
                    "name": "C6",
                    "midi": 84,
                    "time": 18.07293112499999,
                    "velocity": 0.5196850393700787,
                    "duration": 0.05208337499999871
                },
                {
                    "name": "A#5",
                    "midi": 82,
                    "time": 18.12501449999999,
                    "velocity": 0.5511811023622047,
                    "duration": 0.05208337499999871
                },
                {
                    "name": "C6",
                    "midi": 84,
                    "time": 18.177097874999987,
                    "velocity": 0.5039370078740157,
                    "duration": 0.05208337499999871
                },
                {
                    "name": "A#5",
                    "midi": 82,
                    "time": 18.229181249999986,
                    "velocity": 0.5511811023622047,
                    "duration": 0.05208337499999871
                },
                {
                    "name": "C6",
                    "midi": 84,
                    "time": 18.281264624999984,
                    "velocity": 0.5039370078740157,
                    "duration": 0.05208337499999871
                },
                {
                    "name": "A5",
                    "midi": 81,
                    "time": 18.333347999999983,
                    "velocity": 0.5511811023622047,
                    "duration": 0.2083334999999984
                },
                {
                    "name": "G5",
                    "midi": 79,
                    "time": 18.54168149999998,
                    "velocity": 0.4409448818897638,
                    "duration": 0.15625012499999968
                },
                {
                    "name": "F5",
                    "midi": 77,
                    "time": 18.69793162499998,
                    "velocity": 0.36220472440944884,
                    "duration": 0.05208337499999871
                },
                {
                    "name": "A#5",
                    "midi": 82,
                    "time": 18.75001499999998,
                    "velocity": 0.41732283464566927,
                    "duration": 0.10416675000000097
                },
                {
                    "name": "A#5",
                    "midi": 82,
                    "time": 19.06251524999998,
                    "velocity": 0.3858267716535433,
                    "duration": 0.10416675000000097
                },
                {
                    "name": "D5",
                    "midi": 74,
                    "time": 19.16668199999998,
                    "velocity": 0.3464566929133858,
                    "duration": 0.7812506249999984
                },
                {
                    "name": "D#5",
                    "midi": 75,
                    "time": 19.94793262499998,
                    "velocity": 0.3543307086614173,
                    "duration": 0.05208337499999871
                },
                {
                    "name": "G5",
                    "midi": 79,
                    "time": 20.000015999999977,
                    "velocity": 0.4015748031496063,
                    "duration": 0.10416675000000097
                },
                {
                    "name": "G5",
                    "midi": 79,
                    "time": 20.312516249999977,
                    "velocity": 0.36220472440944884,
                    "duration": 0.10416675000000097
                },
                {
                    "name": "A4",
                    "midi": 69,
                    "time": 20.416682999999978,
                    "velocity": 0.3464566929133858,
                    "duration": 0.7812506249999984
                },
                {
                    "name": "A#4",
                    "midi": 70,
                    "time": 21.197933624999976,
                    "velocity": 0.3543307086614173,
                    "duration": 0.05208337499999871
                },
                {
                    "name": "D5",
                    "midi": 74,
                    "time": 21.250016999999975,
                    "velocity": 0.3858267716535433,
                    "duration": 0.10416675000000097
                },
                {
                    "name": "D5",
                    "midi": 74,
                    "time": 21.562517249999974,
                    "velocity": 0.3700787401574803,
                    "duration": 0.10416675000000097
                },
                {
                    "name": "E4",
                    "midi": 64,
                    "time": 21.666683999999975,
                    "velocity": 0.3464566929133858,
                    "duration": 0.8333340000000007
                },
                {
                    "name": "F4",
                    "midi": 65,
                    "time": 22.500017999999976,
                    "velocity": 0.4330708661417323,
                    "duration": 0.10416675000000097
                },
                {
                    "name": "A4",
                    "midi": 69,
                    "time": 22.812518249999975,
                    "velocity": 0.4566929133858268,
                    "duration": 0.10416675000000097
                },
                {
                    "name": "C5",
                    "midi": 72,
                    "time": 22.916684999999976,
                    "velocity": 0.4645669291338583,
                    "duration": 0.2083334999999984
                },
                {
                    "name": "D#5",
                    "midi": 75,
                    "time": 23.125018499999975,
                    "velocity": 0.47244094488188976,
                    "duration": 0.2083334999999984
                },
                {
                    "name": "G5",
                    "midi": 79,
                    "time": 23.333351999999973,
                    "velocity": 0.5275590551181102,
                    "duration": 0.31250024999999937
                },
                {
                    "name": "F5",
                    "midi": 77,
                    "time": 23.645852249999972,
                    "velocity": 0.49606299212598426,
                    "duration": 0.04947920624999824
                },
                {
                    "name": "F5",
                    "midi": 77,
                    "time": 23.69793562499997,
                    "velocity": 0.3858267716535433,
                    "duration": 0.05208337499999871
                },
                {
                    "name": "D6",
                    "midi": 86,
                    "time": 23.75001899999997,
                    "velocity": 0.5275590551181102,
                    "duration": 0.10416675000000097
                },
                {
                    "name": "C6",
                    "midi": 84,
                    "time": 24.06251924999997,
                    "velocity": 0.48031496062992124,
                    "duration": 0.10416675000000097
                },
                {
                    "name": "A#5",
                    "midi": 82,
                    "time": 24.16668599999997,
                    "velocity": 0.3937007874015748,
                    "duration": 0.05208337499999871
                },
                {
                    "name": "C6",
                    "midi": 84,
                    "time": 24.21876937499997,
                    "velocity": 0.3858267716535433,
                    "duration": 0.05208337499999871
                },
                {
                    "name": "A#5",
                    "midi": 82,
                    "time": 24.270852749999968,
                    "velocity": 0.44881889763779526,
                    "duration": 0.10416675000000097
                },
                {
                    "name": "G5",
                    "midi": 79,
                    "time": 24.37501949999997,
                    "velocity": 0.4094488188976378,
                    "duration": 0.2083334999999984
                },
                {
                    "name": "F5",
                    "midi": 77,
                    "time": 24.583352999999967,
                    "velocity": 0.3858267716535433,
                    "duration": 0.41666700000000034
                },
                {
                    "name": "G5",
                    "midi": 79,
                    "time": 24.94793662499997,
                    "velocity": 0.3543307086614173,
                    "duration": 0.05208337499999871
                },
                {
                    "name": "A#5",
                    "midi": 82,
                    "time": 25.000019999999967,
                    "velocity": 0.4015748031496063,
                    "duration": 0.10416675000000097
                },
                {
                    "name": "A#5",
                    "midi": 82,
                    "time": 25.312520249999967,
                    "velocity": 0.36220472440944884,
                    "duration": 0.10416675000000097
                },
                {
                    "name": "A4",
                    "midi": 69,
                    "time": 25.416686999999968,
                    "velocity": 0.3464566929133858,
                    "duration": 0.7291672499999997
                },
                {
                    "name": "A#4",
                    "midi": 70,
                    "time": 26.145854249999967,
                    "velocity": 0.33070866141732286,
                    "duration": 0.05208337499999871
                },
                {
                    "name": "D5",
                    "midi": 74,
                    "time": 26.197937624999966,
                    "velocity": 0.3228346456692913,
                    "duration": 0.05208337499999871
                },
                {
                    "name": "F5",
                    "midi": 77,
                    "time": 26.250020999999965,
                    "velocity": 0.3858267716535433,
                    "duration": 0.10416675000000097
                },
                {
                    "name": "F5",
                    "midi": 77,
                    "time": 26.562521249999964,
                    "velocity": 0.3700787401574803,
                    "duration": 0.10416675000000097
                },
                {
                    "name": "E4",
                    "midi": 64,
                    "time": 26.666687999999965,
                    "velocity": 0.3464566929133858,
                    "duration": 0.8333340000000007
                },
                {
                    "name": "F4",
                    "midi": 65,
                    "time": 27.500021999999966,
                    "velocity": 0.4330708661417323,
                    "duration": 0.10416675000000097
                },
                {
                    "name": "A4",
                    "midi": 69,
                    "time": 27.812522249999965,
                    "velocity": 0.4566929133858268,
                    "duration": 0.10416675000000097
                },
                {
                    "name": "C5",
                    "midi": 72,
                    "time": 27.916688999999966,
                    "velocity": 0.4645669291338583,
                    "duration": 0.2083334999999984
                },
                {
                    "name": "D#5",
                    "midi": 75,
                    "time": 28.125022499999965,
                    "velocity": 0.47244094488188976,
                    "duration": 0.2083334999999984
                },
                {
                    "name": "D5",
                    "midi": 74,
                    "time": 28.333355999999963,
                    "velocity": 0.4409448818897638,
                    "duration": 0.05208337499999871
                },
                {
                    "name": "D#5",
                    "midi": 75,
                    "time": 28.38543937499996,
                    "velocity": 0.4409448818897638,
                    "duration": 0.05208337499999871
                },
                {
                    "name": "D5",
                    "midi": 74,
                    "time": 28.43752274999996,
                    "velocity": 0.48031496062992124,
                    "duration": 0.10416675000000097
                },
                {
                    "name": "C5",
                    "midi": 72,
                    "time": 28.54168949999996,
                    "velocity": 0.4409448818897638,
                    "duration": 0.2083334999999984
                },
                {
                    "name": "D5",
                    "midi": 74,
                    "time": 28.75002299999996,
                    "velocity": 0.5039370078740157,
                    "duration": 0.10416675000000097
                },
                {
                    "name": "F4",
                    "midi": 65,
                    "time": 29.06252324999996,
                    "velocity": 0.44881889763779526,
                    "duration": 0.10416675000000097
                },
                {
                    "name": "A#4",
                    "midi": 70,
                    "time": 29.16668999999996,
                    "velocity": 0.4645669291338583,
                    "duration": 0.41666700000000034
                },
                {
                    "name": "A4",
                    "midi": 69,
                    "time": 29.58335699999996,
                    "velocity": 0.3464566929133858,
                    "duration": 0.2083334999999984
                },
                {
                    "name": "A#4",
                    "midi": 70,
                    "time": 29.79169049999996,
                    "velocity": 0.3464566929133858,
                    "duration": 0.2083334999999984
                },
                {
                    "name": "C5",
                    "midi": 72,
                    "time": 30.000023999999957,
                    "velocity": 0.36220472440944884,
                    "duration": 0.31250024999999937
                },
                {
                    "name": "D5",
                    "midi": 74,
                    "time": 30.312524249999957,
                    "velocity": 0.33070866141732286,
                    "duration": 0.10416675000000097
                },
                {
                    "name": "C5",
                    "midi": 72,
                    "time": 30.416690999999958,
                    "velocity": 0.36220472440944884,
                    "duration": 0.41666700000000034
                },
                {
                    "name": "E5",
                    "midi": 76,
                    "time": 30.833357999999958,
                    "velocity": 0.3858267716535433,
                    "duration": 0.2083334999999984
                },
                {
                    "name": "F5",
                    "midi": 77,
                    "time": 31.041691499999956,
                    "velocity": 0.4015748031496063,
                    "duration": 0.2083334999999984
                },
                {
                    "name": "G5",
                    "midi": 79,
                    "time": 31.250024999999955,
                    "velocity": 0.4330708661417323,
                    "duration": 0.31250024999999937
                },
                {
                    "name": "A5",
                    "midi": 81,
                    "time": 31.562525249999954,
                    "velocity": 0.4094488188976378,
                    "duration": 0.10416675000000097
                },
                {
                    "name": "G5",
                    "midi": 79,
                    "time": 31.666691999999955,
                    "velocity": 0.4409448818897638,
                    "duration": 0.4166669999999968
                },
                {
                    "name": "F5",
                    "midi": 77,
                    "time": 32.08335899999995,
                    "velocity": 0.4094488188976378,
                    "duration": 0.20833350000000195
                },
                {
                    "name": "D5",
                    "midi": 74,
                    "time": 32.291692499999954,
                    "velocity": 0.3858267716535433,
                    "duration": 0.20833350000000195
                },
                {
                    "name": "C5",
                    "midi": 72,
                    "time": 32.500025999999956,
                    "velocity": 0.4409448818897638,
                    "duration": 0.20833350000000195
                },
                {
                    "name": "D5",
                    "midi": 74,
                    "time": 32.70835949999996,
                    "velocity": 0.4015748031496063,
                    "duration": 0.20833350000000195
                },
                {
                    "name": "C5",
                    "midi": 72,
                    "time": 32.91669299999996,
                    "velocity": 0.4409448818897638,
                    "duration": 0.4166669999999968
                },
                {
                    "name": "E5",
                    "midi": 76,
                    "time": 33.333359999999956,
                    "velocity": 0.3937007874015748,
                    "duration": 0.20833350000000195
                },
                {
                    "name": "F5",
                    "midi": 77,
                    "time": 33.645860249999956,
                    "velocity": 0.4330708661417323,
                    "duration": 0.10416674999999742
                },
                {
                    "name": "G5",
                    "midi": 79,
                    "time": 33.75002699999995,
                    "velocity": 0.4645669291338583,
                    "duration": 0.13888899999999893
                },
                {
                    "name": "A5",
                    "midi": 81,
                    "time": 33.88891599999995,
                    "velocity": 0.4409448818897638,
                    "duration": 0.13888899999999893
                },
                {
                    "name": "G5",
                    "midi": 79,
                    "time": 34.02780499999995,
                    "velocity": 0.4409448818897638,
                    "duration": 0.13888899999999893
                },
                {
                    "name": "F5",
                    "midi": 77,
                    "time": 34.16669399999995,
                    "velocity": 0.41732283464566927,
                    "duration": 0.6250004999999987
                },
                {
                    "name": "D5",
                    "midi": 74,
                    "time": 34.79169449999995,
                    "velocity": 0.3937007874015748,
                    "duration": 0.20833350000000195
                },
                {
                    "name": "C5",
                    "midi": 72,
                    "time": 35.00002799999995,
                    "velocity": 0.4015748031496063,
                    "duration": 0.20833350000000195
                },
                {
                    "name": "D5",
                    "midi": 74,
                    "time": 35.20836149999995,
                    "velocity": 0.3858267716535433,
                    "duration": 0.20833350000000195
                },
                {
                    "name": "C5",
                    "midi": 72,
                    "time": 35.416694999999955,
                    "velocity": 0.4015748031496063,
                    "duration": 0.4166669999999968
                },
                {
                    "name": "E5",
                    "midi": 76,
                    "time": 35.83336199999995,
                    "velocity": 0.3858267716535433,
                    "duration": 0.20833350000000195
                },
                {
                    "name": "F5",
                    "midi": 77,
                    "time": 36.04169549999995,
                    "velocity": 0.4015748031496063,
                    "duration": 0.20833350000000195
                },
                {
                    "name": "G5",
                    "midi": 79,
                    "time": 36.250028999999955,
                    "velocity": 0.4330708661417323,
                    "duration": 0.20833350000000195
                },
                {
                    "name": "A5",
                    "midi": 81,
                    "time": 36.45836249999996,
                    "velocity": 0.4094488188976378,
                    "duration": 0.20833350000000195
                },
                {
                    "name": "G5",
                    "midi": 79,
                    "time": 36.66669599999996,
                    "velocity": 0.3937007874015748,
                    "duration": 0.05208337500000226
                },
                {
                    "name": "A5",
                    "midi": 81,
                    "time": 36.71877937499996,
                    "velocity": 0.3700787401574803,
                    "duration": 0.05208337500000226
                },
                {
                    "name": "G5",
                    "midi": 79,
                    "time": 36.770862749999964,
                    "velocity": 0.4094488188976378,
                    "duration": 0.05208337500000226
                },
                {
                    "name": "A5",
                    "midi": 81,
                    "time": 36.822946124999966,
                    "velocity": 0.3858267716535433,
                    "duration": 0.05208337500000226
                },
                {
                    "name": "G5",
                    "midi": 79,
                    "time": 36.87502949999997,
                    "velocity": 0.4409448818897638,
                    "duration": 0.05208337500000226
                },
                {
                    "name": "A5",
                    "midi": 81,
                    "time": 36.92711287499997,
                    "velocity": 0.3858267716535433,
                    "duration": 0.05208337500000226
                },
                {
                    "name": "G5",
                    "midi": 79,
                    "time": 36.97919624999997,
                    "velocity": 0.4015748031496063,
                    "duration": 0.05208337500000226
                },
                {
                    "name": "A5",
                    "midi": 81,
                    "time": 37.031279624999975,
                    "velocity": 0.3858267716535433,
                    "duration": 0.05208337500000226
                },
                {
                    "name": "F5",
                    "midi": 77,
                    "time": 37.08336299999998,
                    "velocity": 0.4094488188976378,
                    "duration": 0.20833350000000195
                },
                {
                    "name": "D5",
                    "midi": 74,
                    "time": 37.29169649999998,
                    "velocity": 0.3858267716535433,
                    "duration": 0.20833350000000195
                },
                {
                    "name": "C5",
                    "midi": 72,
                    "time": 37.50002999999998,
                    "velocity": 0.4409448818897638,
                    "duration": 0.20833350000000195
                },
                {
                    "name": "D5",
                    "midi": 74,
                    "time": 37.70836349999998,
                    "velocity": 0.4015748031496063,
                    "duration": 0.20833350000000195
                },
                {
                    "name": "C5",
                    "midi": 72,
                    "time": 37.916696999999985,
                    "velocity": 0.4409448818897638,
                    "duration": 0.4166669999999968
                },
                {
                    "name": "E5",
                    "midi": 76,
                    "time": 38.33336399999998,
                    "velocity": 0.4330708661417323,
                    "duration": 0.20833350000000195
                },
                {
                    "name": "F5",
                    "midi": 77,
                    "time": 38.541697499999984,
                    "velocity": 0.4645669291338583,
                    "duration": 0.20833350000000195
                },
                {
                    "name": "G5",
                    "midi": 79,
                    "time": 38.750030999999986,
                    "velocity": 0.5039370078740157,
                    "duration": 0.13888899999999893
                },
                {
                    "name": "A5",
                    "midi": 81,
                    "time": 38.888919999999985,
                    "velocity": 0.48031496062992124,
                    "duration": 0.13888899999999893
                },
                {
                    "name": "G5",
                    "midi": 79,
                    "time": 39.02780899999998,
                    "velocity": 0.48031496062992124,
                    "duration": 0.13888899999999893
                },
                {
                    "name": "F5",
                    "midi": 77,
                    "time": 39.16669799999998,
                    "velocity": 0.5196850393700787,
                    "duration": 0.31250024999999937
                },
                {
                    "name": "G4",
                    "midi": 67,
                    "time": 39.47919824999998,
                    "velocity": 0.4881889763779528,
                    "duration": 0.10416674999999742
                },
                {
                    "name": "F5",
                    "midi": 77,
                    "time": 39.58336499999998,
                    "velocity": 0.5354330708661418,
                    "duration": 0.13888899999999893
                },
                {
                    "name": "F#4",
                    "midi": 66,
                    "time": 39.72225399999998,
                    "velocity": 0.4881889763779528,
                    "duration": 0.13888899999999893
                },
                {
                    "name": "F5",
                    "midi": 77,
                    "time": 39.86114299999998,
                    "velocity": 0.5433070866141733,
                    "duration": 0.08420145624999975
                },
                {
                    "name": "F5",
                    "midi": 77,
                    "time": 39.947948624999974,
                    "velocity": 0.5196850393700787,
                    "duration": 0.05208337500000226
                },
                {
                    "name": "F4",
                    "midi": 65,
                    "time": 40.000031999999976,
                    "velocity": 0.5511811023622047,
                    "duration": 0.20833350000000195
                },
                {
                    "name": "F4",
                    "midi": 65,
                    "time": 40.312532249999975,
                    "velocity": 0.5196850393700787,
                    "duration": 0.10416674999999742
                },
                {
                    "name": "G4",
                    "midi": 67,
                    "time": 40.41669899999997,
                    "velocity": 0.5511811023622047,
                    "duration": 0.4166669999999968
                },
                {
                    "name": "A4",
                    "midi": 69,
                    "time": 40.83336599999997,
                    "velocity": 0.5511811023622047,
                    "duration": 0.4166669999999968
                },
                {
                    "name": "A#4",
                    "midi": 70,
                    "time": 41.250032999999966,
                    "velocity": 0.5590551181102362,
                    "duration": 0.20833350000000195
                },
                {
                    "name": "C5",
                    "midi": 72,
                    "time": 41.562533249999966,
                    "velocity": 0.5196850393700787,
                    "duration": 0.10416674999999742
                },
                {
                    "name": "D5",
                    "midi": 74,
                    "time": 41.66669999999996,
                    "velocity": 0.5511811023622047,
                    "duration": 0.4166669999999968
                },
                {
                    "name": "D#5",
                    "midi": 75,
                    "time": 42.08336699999996,
                    "velocity": 0.5905511811023622,
                    "duration": 0.20833350000000195
                },
                {
                    "name": "F5",
                    "midi": 77,
                    "time": 42.29170049999996,
                    "velocity": 0.6220472440944882,
                    "duration": 0.20833350000000195
                },
                {
                    "name": "G5",
                    "midi": 79,
                    "time": 42.500033999999964,
                    "velocity": 0.6535433070866141,
                    "duration": 0.10416674999999742
                },
                {
                    "name": "A5",
                    "midi": 81,
                    "time": 42.81253424999996,
                    "velocity": 0.5905511811023622,
                    "duration": 0.10416674999999742
                },
                {
                    "name": "A#5",
                    "midi": 82,
                    "time": 42.91670099999996,
                    "velocity": 0.5984251968503937,
                    "duration": 0.05208337500000226
                },
                {
                    "name": "C6",
                    "midi": 84,
                    "time": 42.96878437499996,
                    "velocity": 0.5275590551181102,
                    "duration": 0.05208337500000226
                },
                {
                    "name": "A#5",
                    "midi": 82,
                    "time": 43.020867749999965,
                    "velocity": 0.5748031496062992,
                    "duration": 0.05208337500000226
                },
                {
                    "name": "C6",
                    "midi": 84,
                    "time": 43.07295112499997,
                    "velocity": 0.5196850393700787,
                    "duration": 0.05208337500000226
                },
                {
                    "name": "A#5",
                    "midi": 82,
                    "time": 43.12503449999997,
                    "velocity": 0.5511811023622047,
                    "duration": 0.05208337500000226
                },
                {
                    "name": "C6",
                    "midi": 84,
                    "time": 43.17711787499997,
                    "velocity": 0.5039370078740157,
                    "duration": 0.05208337500000226
                },
                {
                    "name": "A#5",
                    "midi": 82,
                    "time": 43.229201249999974,
                    "velocity": 0.5511811023622047,
                    "duration": 0.05208337500000226
                },
                {
                    "name": "C6",
                    "midi": 84,
                    "time": 43.28128462499998,
                    "velocity": 0.5039370078740157,
                    "duration": 0.05208337500000226
                },
                {
                    "name": "A5",
                    "midi": 81,
                    "time": 43.33336799999998,
                    "velocity": 0.5511811023622047,
                    "duration": 0.20833350000000195
                },
                {
                    "name": "G5",
                    "midi": 79,
                    "time": 43.54170149999998,
                    "velocity": 0.4409448818897638,
                    "duration": 0.15625012499999968
                },
                {
                    "name": "F5",
                    "midi": 77,
                    "time": 43.69795162499998,
                    "velocity": 0.4015748031496063,
                    "duration": 0.05208337500000226
                },
                {
                    "name": "A#5",
                    "midi": 82,
                    "time": 43.75003499999998,
                    "velocity": 0.47244094488188976,
                    "duration": 0.10416674999999742
                },
                {
                    "name": "A#5",
                    "midi": 82,
                    "time": 44.06253524999998,
                    "velocity": 0.4330708661417323,
                    "duration": 0.10416674999999742
                },
                {
                    "name": "D5",
                    "midi": 74,
                    "time": 44.16670199999998,
                    "velocity": 0.3858267716535433,
                    "duration": 0.7812506249999984
                },
                {
                    "name": "D#5",
                    "midi": 75,
                    "time": 44.94795262499998,
                    "velocity": 0.3937007874015748,
                    "duration": 0.05208337500000226
                },
                {
                    "name": "G5",
                    "midi": 79,
                    "time": 45.00003599999998,
                    "velocity": 0.4566929133858268,
                    "duration": 0.10416674999999742
                },
                {
                    "name": "G5",
                    "midi": 79,
                    "time": 45.31253624999998,
                    "velocity": 0.4015748031496063,
                    "duration": 0.10416674999999742
                },
                {
                    "name": "A4",
                    "midi": 69,
                    "time": 45.41670299999998,
                    "velocity": 0.3858267716535433,
                    "duration": 0.7812506249999984
                },
                {
                    "name": "A#4",
                    "midi": 70,
                    "time": 46.197953624999975,
                    "velocity": 0.3937007874015748,
                    "duration": 0.05208337500000226
                },
                {
                    "name": "D5",
                    "midi": 74,
                    "time": 46.25003699999998,
                    "velocity": 0.4409448818897638,
                    "duration": 0.10416674999999742
                },
                {
                    "name": "D5",
                    "midi": 74,
                    "time": 46.56253724999998,
                    "velocity": 0.4094488188976378,
                    "duration": 0.10416674999999742
                },
                {
                    "name": "E4",
                    "midi": 64,
                    "time": 46.666703999999974,
                    "velocity": 0.3858267716535433,
                    "duration": 0.8333340000000007
                },
                {
                    "name": "F4",
                    "midi": 65,
                    "time": 47.500037999999975,
                    "velocity": 0.4330708661417323,
                    "duration": 0.10416674999999742
                },
                {
                    "name": "A4",
                    "midi": 69,
                    "time": 47.812538249999974,
                    "velocity": 0.4566929133858268,
                    "duration": 0.10416674999999742
                },
                {
                    "name": "C5",
                    "midi": 72,
                    "time": 47.91670499999997,
                    "velocity": 0.4645669291338583,
                    "duration": 0.20833350000000195
                },
                {
                    "name": "D#5",
                    "midi": 75,
                    "time": 48.125038499999974,
                    "velocity": 0.47244094488188976,
                    "duration": 0.20833350000000195
                },
                {
                    "name": "G5",
                    "midi": 79,
                    "time": 48.333371999999976,
                    "velocity": 0.5275590551181102,
                    "duration": 0.31250024999999937
                },
                {
                    "name": "F5",
                    "midi": 77,
                    "time": 48.645872249999975,
                    "velocity": 0.49606299212598426,
                    "duration": 0.04947920624999824
                },
                {
                    "name": "F5",
                    "midi": 77,
                    "time": 48.69795562499997,
                    "velocity": 0.4330708661417323,
                    "duration": 0.05208337500000226
                },
                {
                    "name": "D6",
                    "midi": 86,
                    "time": 48.75003899999997,
                    "velocity": 0.5905511811023622,
                    "duration": 0.10416674999999742
                },
                {
                    "name": "C6",
                    "midi": 84,
                    "time": 49.06253924999997,
                    "velocity": 0.5354330708661418,
                    "duration": 0.10416674999999742
                },
                {
                    "name": "A#5",
                    "midi": 82,
                    "time": 49.16670599999997,
                    "velocity": 0.4409448818897638,
                    "duration": 0.05208337500000226
                },
                {
                    "name": "C6",
                    "midi": 84,
                    "time": 49.21878937499997,
                    "velocity": 0.4330708661417323,
                    "duration": 0.05208337500000226
                },
                {
                    "name": "A#5",
                    "midi": 82,
                    "time": 49.270872749999974,
                    "velocity": 0.5039370078740157,
                    "duration": 0.10416674999999742
                },
                {
                    "name": "G5",
                    "midi": 79,
                    "time": 49.37503949999997,
                    "velocity": 0.4566929133858268,
                    "duration": 0.20833350000000195
                },
                {
                    "name": "F5",
                    "midi": 77,
                    "time": 49.58337299999997,
                    "velocity": 0.4330708661417323,
                    "duration": 0.4166670000000039
                },
                {
                    "name": "G5",
                    "midi": 79,
                    "time": 49.947956624999975,
                    "velocity": 0.3543307086614173,
                    "duration": 0.05208337500000226
                },
                {
                    "name": "A#5",
                    "midi": 82,
                    "time": 50.00003999999998,
                    "velocity": 0.4015748031496063,
                    "duration": 0.10416674999999742
                },
                {
                    "name": "A#5",
                    "midi": 82,
                    "time": 50.31254024999998,
                    "velocity": 0.36220472440944884,
                    "duration": 0.10416674999999742
                },
                {
                    "name": "A4",
                    "midi": 69,
                    "time": 50.416706999999974,
                    "velocity": 0.3464566929133858,
                    "duration": 0.7291672500000033
                },
                {
                    "name": "A#4",
                    "midi": 70,
                    "time": 51.14587424999998,
                    "velocity": 0.33070866141732286,
                    "duration": 0.05208337500000226
                },
                {
                    "name": "D5",
                    "midi": 74,
                    "time": 51.19795762499998,
                    "velocity": 0.3228346456692913,
                    "duration": 0.05208337500000226
                },
                {
                    "name": "F5",
                    "midi": 77,
                    "time": 51.25004099999998,
                    "velocity": 0.3858267716535433,
                    "duration": 0.10416674999999742
                },
                {
                    "name": "F5",
                    "midi": 77,
                    "time": 51.56254124999998,
                    "velocity": 0.3700787401574803,
                    "duration": 0.10416674999999742
                },
                {
                    "name": "E4",
                    "midi": 64,
                    "time": 51.66670799999998,
                    "velocity": 0.3464566929133858,
                    "duration": 0.8333340000000007
                },
                {
                    "name": "F4",
                    "midi": 65,
                    "time": 52.50004199999998,
                    "velocity": 0.4330708661417323,
                    "duration": 0.10416674999999742
                },
                {
                    "name": "A4",
                    "midi": 69,
                    "time": 52.81254224999998,
                    "velocity": 0.4566929133858268,
                    "duration": 0.10416674999999742
                },
                {
                    "name": "C5",
                    "midi": 72,
                    "time": 52.916708999999976,
                    "velocity": 0.4645669291338583,
                    "duration": 0.20833350000000195
                },
                {
                    "name": "D#5",
                    "midi": 75,
                    "time": 53.12504249999998,
                    "velocity": 0.47244094488188976,
                    "duration": 0.20833350000000195
                },
                {
                    "name": "D5",
                    "midi": 74,
                    "time": 53.33337599999998,
                    "velocity": 0.4409448818897638,
                    "duration": 0.05208337500000226
                },
                {
                    "name": "D#5",
                    "midi": 75,
                    "time": 53.38545937499998,
                    "velocity": 0.4409448818897638,
                    "duration": 0.05208337500000226
                },
                {
                    "name": "D5",
                    "midi": 74,
                    "time": 53.437542749999984,
                    "velocity": 0.48031496062992124,
                    "duration": 0.10416674999999742
                },
                {
                    "name": "C5",
                    "midi": 72,
                    "time": 53.54170949999998,
                    "velocity": 0.4409448818897638,
                    "duration": 0.20833350000000195
                },
                {
                    "name": "D5",
                    "midi": 74,
                    "time": 53.750042999999984,
                    "velocity": 0.5039370078740157,
                    "duration": 0.10416674999999742
                },
                {
                    "name": "F4",
                    "midi": 65,
                    "time": 54.06254324999998,
                    "velocity": 0.44881889763779526,
                    "duration": 0.10416674999999742
                },
                {
                    "name": "A#4",
                    "midi": 70,
                    "time": 54.16670999999998,
                    "velocity": 0.4645669291338583,
                    "duration": 0.4166669999999968
                },
                {
                    "name": "A4",
                    "midi": 69,
                    "time": 54.58337699999998,
                    "velocity": 0.3464566929133858,
                    "duration": 0.20833350000000195
                },
                {
                    "name": "A#4",
                    "midi": 70,
                    "time": 54.79171049999998,
                    "velocity": 0.3464566929133858,
                    "duration": 0.20833350000000195
                },
                {
                    "name": "C5",
                    "midi": 72,
                    "time": 55.00004399999998,
                    "velocity": 0.36220472440944884,
                    "duration": 0.31250024999999937
                },
                {
                    "name": "D5",
                    "midi": 74,
                    "time": 55.31254424999998,
                    "velocity": 0.33070866141732286,
                    "duration": 0.10416674999999742
                },
                {
                    "name": "C5",
                    "midi": 72,
                    "time": 55.41671099999998,
                    "velocity": 0.36220472440944884,
                    "duration": 0.4166669999999968
                },
                {
                    "name": "E5",
                    "midi": 76,
                    "time": 55.833377999999975,
                    "velocity": 0.3858267716535433,
                    "duration": 0.20833350000000195
                },
                {
                    "name": "F5",
                    "midi": 77,
                    "time": 56.04171149999998,
                    "velocity": 0.4015748031496063,
                    "duration": 0.20833350000000195
                },
                {
                    "name": "G5",
                    "midi": 79,
                    "time": 56.25004499999998,
                    "velocity": 0.4330708661417323,
                    "duration": 0.31250024999999937
                },
                {
                    "name": "A5",
                    "midi": 81,
                    "time": 56.56254524999998,
                    "velocity": 0.4094488188976378,
                    "duration": 0.10416674999999742
                },
                {
                    "name": "G5",
                    "midi": 79,
                    "time": 56.666711999999976,
                    "velocity": 0.4409448818897638,
                    "duration": 0.4166669999999968
                },
                {
                    "name": "F5",
                    "midi": 77,
                    "time": 57.08337899999997,
                    "velocity": 0.4094488188976378,
                    "duration": 0.20833350000000195
                },
                {
                    "name": "D5",
                    "midi": 74,
                    "time": 57.291712499999974,
                    "velocity": 0.3858267716535433,
                    "duration": 0.20833350000000195
                },
                {
                    "name": "C5",
                    "midi": 72,
                    "time": 57.500045999999976,
                    "velocity": 0.4409448818897638,
                    "duration": 0.20833350000000195
                },
                {
                    "name": "D5",
                    "midi": 74,
                    "time": 57.70837949999998,
                    "velocity": 0.4015748031496063,
                    "duration": 0.20833350000000195
                },
                {
                    "name": "C5",
                    "midi": 72,
                    "time": 57.91671299999998,
                    "velocity": 0.4409448818897638,
                    "duration": 0.4166669999999968
                },
                {
                    "name": "E5",
                    "midi": 76,
                    "time": 58.33337999999998,
                    "velocity": 0.3937007874015748,
                    "duration": 0.20833350000000195
                },
                {
                    "name": "F5",
                    "midi": 77,
                    "time": 58.645880249999976,
                    "velocity": 0.4330708661417323,
                    "duration": 0.10416674999999742
                },
                {
                    "name": "G5",
                    "midi": 79,
                    "time": 58.750046999999974,
                    "velocity": 0.4645669291338583,
                    "duration": 0.13888899999999893
                },
                {
                    "name": "A5",
                    "midi": 81,
                    "time": 58.88893599999997,
                    "velocity": 0.4409448818897638,
                    "duration": 0.13888899999999893
                },
                {
                    "name": "G5",
                    "midi": 79,
                    "time": 59.02782499999997,
                    "velocity": 0.4409448818897638,
                    "duration": 0.13888899999999893
                },
                {
                    "name": "F5",
                    "midi": 77,
                    "time": 59.16671399999997,
                    "velocity": 0.41732283464566927,
                    "duration": 0.6250004999999987
                },
                {
                    "name": "D5",
                    "midi": 74,
                    "time": 59.79171449999997,
                    "velocity": 0.3937007874015748,
                    "duration": 0.20833350000000195
                },
                {
                    "name": "C5",
                    "midi": 72,
                    "time": 60.00004799999997,
                    "velocity": 0.4015748031496063,
                    "duration": 0.20833350000000195
                },
                {
                    "name": "D5",
                    "midi": 74,
                    "time": 60.20838149999997,
                    "velocity": 0.3858267716535433,
                    "duration": 0.20833350000000195
                },
                {
                    "name": "C5",
                    "midi": 72,
                    "time": 60.416714999999975,
                    "velocity": 0.4015748031496063,
                    "duration": 0.4166669999999968
                },
                {
                    "name": "E5",
                    "midi": 76,
                    "time": 60.83338199999997,
                    "velocity": 0.3858267716535433,
                    "duration": 0.20833350000000195
                },
                {
                    "name": "F5",
                    "midi": 77,
                    "time": 61.041715499999974,
                    "velocity": 0.4015748031496063,
                    "duration": 0.20833350000000195
                },
                {
                    "name": "G5",
                    "midi": 79,
                    "time": 61.250048999999976,
                    "velocity": 0.4330708661417323,
                    "duration": 0.20833350000000195
                },
                {
                    "name": "A5",
                    "midi": 81,
                    "time": 61.45838249999998,
                    "velocity": 0.4094488188976378,
                    "duration": 0.20833350000000195
                },
                {
                    "name": "G5",
                    "midi": 79,
                    "time": 61.66671599999998,
                    "velocity": 0.3937007874015748,
                    "duration": 0.05208337500000226
                },
                {
                    "name": "A5",
                    "midi": 81,
                    "time": 61.71879937499998,
                    "velocity": 0.3700787401574803,
                    "duration": 0.05208337500000226
                },
                {
                    "name": "G5",
                    "midi": 79,
                    "time": 61.770882749999984,
                    "velocity": 0.4094488188976378,
                    "duration": 0.05208337500000226
                },
                {
                    "name": "A5",
                    "midi": 81,
                    "time": 61.82296612499999,
                    "velocity": 0.3858267716535433,
                    "duration": 0.05208337500000226
                },
                {
                    "name": "G5",
                    "midi": 79,
                    "time": 61.87504949999999,
                    "velocity": 0.4409448818897638,
                    "duration": 0.05208337500000226
                },
                {
                    "name": "A5",
                    "midi": 81,
                    "time": 61.92713287499999,
                    "velocity": 0.3858267716535433,
                    "duration": 0.05208337500000226
                },
                {
                    "name": "G5",
                    "midi": 79,
                    "time": 61.97921624999999,
                    "velocity": 0.4015748031496063,
                    "duration": 0.05208337500000226
                },
                {
                    "name": "A5",
                    "midi": 81,
                    "time": 62.031299624999996,
                    "velocity": 0.3858267716535433,
                    "duration": 0.05208337500000226
                },
                {
                    "name": "F5",
                    "midi": 77,
                    "time": 62.083383,
                    "velocity": 0.4094488188976378,
                    "duration": 0.20833350000000195
                },
                {
                    "name": "D5",
                    "midi": 74,
                    "time": 62.2917165,
                    "velocity": 0.3858267716535433,
                    "duration": 0.20833350000000195
                },
                {
                    "name": "C5",
                    "midi": 72,
                    "time": 62.50005,
                    "velocity": 0.4409448818897638,
                    "duration": 0.20833350000000195
                },
                {
                    "name": "D5",
                    "midi": 74,
                    "time": 62.708383500000004,
                    "velocity": 0.4015748031496063,
                    "duration": 0.20833350000000195
                },
                {
                    "name": "C5",
                    "midi": 72,
                    "time": 62.916717000000006,
                    "velocity": 0.4409448818897638,
                    "duration": 0.4166669999999968
                },
                {
                    "name": "E5",
                    "midi": 76,
                    "time": 63.333384,
                    "velocity": 0.4330708661417323,
                    "duration": 0.20833350000000195
                },
                {
                    "name": "F5",
                    "midi": 77,
                    "time": 63.541717500000004,
                    "velocity": 0.4645669291338583,
                    "duration": 0.20833350000000195
                },
                {
                    "name": "G5",
                    "midi": 79,
                    "time": 63.750051000000006,
                    "velocity": 0.5039370078740157,
                    "duration": 0.13888899999999893
                },
                {
                    "name": "A5",
                    "midi": 81,
                    "time": 63.888940000000005,
                    "velocity": 0.48031496062992124,
                    "duration": 0.13888900000000604
                },
                {
                    "name": "G5",
                    "midi": 79,
                    "time": 64.02782900000001,
                    "velocity": 0.48031496062992124,
                    "duration": 0.13888900000000604
                },
                {
                    "name": "F5",
                    "midi": 77,
                    "time": 64.16671800000002,
                    "velocity": 0.5196850393700787,
                    "duration": 0.31250024999999937
                },
                {
                    "name": "G4",
                    "midi": 67,
                    "time": 64.47921825000002,
                    "velocity": 0.4881889763779528,
                    "duration": 0.10416675000000453
                },
                {
                    "name": "F5",
                    "midi": 77,
                    "time": 64.58338500000002,
                    "velocity": 0.5354330708661418,
                    "duration": 0.13888900000000604
                },
                {
                    "name": "F#4",
                    "midi": 66,
                    "time": 64.72227400000003,
                    "velocity": 0.4881889763779528,
                    "duration": 0.13888900000000604
                },
                {
                    "name": "F5",
                    "midi": 77,
                    "time": 64.86116300000003,
                    "velocity": 0.5433070866141733,
                    "duration": 0.08333340000000078
                },
                {
                    "name": "F5",
                    "midi": 77,
                    "time": 64.94796862500003,
                    "velocity": 0.5196850393700787,
                    "duration": 0.05208337499999516
                },
                {
                    "name": "F4",
                    "midi": 65,
                    "time": 65.00005200000003,
                    "velocity": 0.5511811023622047,
                    "duration": 0.20833349999999484
                },
                {
                    "name": "F4",
                    "midi": 65,
                    "time": 65.31255225000002,
                    "velocity": 0.5196850393700787,
                    "duration": 0.10416675000000453
                },
                {
                    "name": "G4",
                    "midi": 67,
                    "time": 65.41671900000003,
                    "velocity": 0.5511811023622047,
                    "duration": 0.4166670000000039
                },
                {
                    "name": "A4",
                    "midi": 69,
                    "time": 65.83338600000003,
                    "velocity": 0.5511811023622047,
                    "duration": 0.4166670000000039
                },
                {
                    "name": "A#4",
                    "midi": 70,
                    "time": 66.25005300000004,
                    "velocity": 0.5590551181102362,
                    "duration": 0.20833349999999484
                },
                {
                    "name": "C5",
                    "midi": 72,
                    "time": 66.56255325000004,
                    "velocity": 0.5196850393700787,
                    "duration": 0.10416675000000453
                },
                {
                    "name": "D5",
                    "midi": 74,
                    "time": 66.66672000000004,
                    "velocity": 0.5511811023622047,
                    "duration": 0.4166670000000039
                },
                {
                    "name": "D#5",
                    "midi": 75,
                    "time": 67.08338700000004,
                    "velocity": 0.5905511811023622,
                    "duration": 0.20833349999999484
                },
                {
                    "name": "F5",
                    "midi": 77,
                    "time": 67.29172050000004,
                    "velocity": 0.6220472440944882,
                    "duration": 0.20833349999999484
                },
                {
                    "name": "G5",
                    "midi": 79,
                    "time": 67.50005400000003,
                    "velocity": 0.6535433070866141,
                    "duration": 0.10416675000000453
                },
                {
                    "name": "A5",
                    "midi": 81,
                    "time": 67.81255425000003,
                    "velocity": 0.5905511811023622,
                    "duration": 0.10416675000000453
                },
                {
                    "name": "A#5",
                    "midi": 82,
                    "time": 67.91672100000004,
                    "velocity": 0.5984251968503937,
                    "duration": 0.05208337499999516
                },
                {
                    "name": "C6",
                    "midi": 84,
                    "time": 67.96880437500003,
                    "velocity": 0.5275590551181102,
                    "duration": 0.05208337499999516
                },
                {
                    "name": "A#5",
                    "midi": 82,
                    "time": 68.02088775000003,
                    "velocity": 0.5748031496062992,
                    "duration": 0.05208337499999516
                },
                {
                    "name": "C6",
                    "midi": 84,
                    "time": 68.07297112500002,
                    "velocity": 0.5196850393700787,
                    "duration": 0.05208337499999516
                },
                {
                    "name": "A#5",
                    "midi": 82,
                    "time": 68.12505450000002,
                    "velocity": 0.5511811023622047,
                    "duration": 0.05208337499999516
                },
                {
                    "name": "C6",
                    "midi": 84,
                    "time": 68.17713787500001,
                    "velocity": 0.5039370078740157,
                    "duration": 0.05208337499999516
                },
                {
                    "name": "A#5",
                    "midi": 82,
                    "time": 68.22922125000001,
                    "velocity": 0.5511811023622047,
                    "duration": 0.05208337499999516
                },
                {
                    "name": "C6",
                    "midi": 84,
                    "time": 68.281304625,
                    "velocity": 0.5039370078740157,
                    "duration": 0.05208337499999516
                },
                {
                    "name": "A5",
                    "midi": 81,
                    "time": 68.333388,
                    "velocity": 0.5511811023622047,
                    "duration": 0.20833349999999484
                },
                {
                    "name": "G5",
                    "midi": 79,
                    "time": 68.5417215,
                    "velocity": 0.4409448818897638,
                    "duration": 0.15625012499999968
                },
                {
                    "name": "F5",
                    "midi": 77,
                    "time": 68.697971625,
                    "velocity": 0.4015748031496063,
                    "duration": 0.05208337499999516
                },
                {
                    "name": "A#5",
                    "midi": 82,
                    "time": 68.75005499999999,
                    "velocity": 0.47244094488188976,
                    "duration": 0.10416675000000453
                },
                {
                    "name": "A#5",
                    "midi": 82,
                    "time": 69.06255524999999,
                    "velocity": 0.4330708661417323,
                    "duration": 0.10416675000000453
                },
                {
                    "name": "D5",
                    "midi": 74,
                    "time": 69.166722,
                    "velocity": 0.3858267716535433,
                    "duration": 0.7812506249999984
                },
                {
                    "name": "D#5",
                    "midi": 75,
                    "time": 69.94797262499999,
                    "velocity": 0.3937007874015748,
                    "duration": 0.05208337499999516
                },
                {
                    "name": "G5",
                    "midi": 79,
                    "time": 70.00005599999999,
                    "velocity": 0.4566929133858268,
                    "duration": 0.10416675000000453
                },
                {
                    "name": "G5",
                    "midi": 79,
                    "time": 70.31255624999999,
                    "velocity": 0.4015748031496063,
                    "duration": 0.10416675000000453
                },
                {
                    "name": "A4",
                    "midi": 69,
                    "time": 70.41672299999999,
                    "velocity": 0.3858267716535433,
                    "duration": 0.7812506249999984
                },
                {
                    "name": "A#4",
                    "midi": 70,
                    "time": 71.19797362499999,
                    "velocity": 0.3937007874015748,
                    "duration": 0.05208337499999516
                },
                {
                    "name": "D5",
                    "midi": 74,
                    "time": 71.25005699999998,
                    "velocity": 0.4409448818897638,
                    "duration": 0.10416675000000453
                },
                {
                    "name": "D5",
                    "midi": 74,
                    "time": 71.56255724999998,
                    "velocity": 0.4094488188976378,
                    "duration": 0.10416675000000453
                },
                {
                    "name": "E4",
                    "midi": 64,
                    "time": 71.66672399999999,
                    "velocity": 0.3858267716535433,
                    "duration": 0.8333339999999936
                },
                {
                    "name": "F4",
                    "midi": 65,
                    "time": 72.50005799999998,
                    "velocity": 0.4330708661417323,
                    "duration": 0.10416675000000453
                },
                {
                    "name": "A4",
                    "midi": 69,
                    "time": 72.81255824999998,
                    "velocity": 0.4566929133858268,
                    "duration": 0.10416675000000453
                },
                {
                    "name": "C5",
                    "midi": 72,
                    "time": 72.91672499999999,
                    "velocity": 0.4645669291338583,
                    "duration": 0.20833349999999484
                },
                {
                    "name": "D#5",
                    "midi": 75,
                    "time": 73.12505849999998,
                    "velocity": 0.47244094488188976,
                    "duration": 0.20833349999999484
                },
                {
                    "name": "G5",
                    "midi": 79,
                    "time": 73.33339199999998,
                    "velocity": 0.5275590551181102,
                    "duration": 0.31250024999999937
                },
                {
                    "name": "F5",
                    "midi": 77,
                    "time": 73.64589224999997,
                    "velocity": 0.49606299212598426,
                    "duration": 0.04947920624999824
                },
                {
                    "name": "F5",
                    "midi": 77,
                    "time": 73.69797562499997,
                    "velocity": 0.3858267716535433,
                    "duration": 0.05208337499999516
                },
                {
                    "name": "D6",
                    "midi": 86,
                    "time": 73.75005899999996,
                    "velocity": 0.5275590551181102,
                    "duration": 0.10416675000000453
                },
                {
                    "name": "C6",
                    "midi": 84,
                    "time": 74.06255924999996,
                    "velocity": 0.48031496062992124,
                    "duration": 0.10416675000000453
                },
                {
                    "name": "A#5",
                    "midi": 82,
                    "time": 74.16672599999997,
                    "velocity": 0.3937007874015748,
                    "duration": 0.05208337499999516
                },
                {
                    "name": "C6",
                    "midi": 84,
                    "time": 74.21880937499996,
                    "velocity": 0.3858267716535433,
                    "duration": 0.05208337499999516
                },
                {
                    "name": "A#5",
                    "midi": 82,
                    "time": 74.27089274999996,
                    "velocity": 0.44881889763779526,
                    "duration": 0.10416675000000453
                },
                {
                    "name": "G5",
                    "midi": 79,
                    "time": 74.37505949999996,
                    "velocity": 0.4094488188976378,
                    "duration": 0.20833349999999484
                },
                {
                    "name": "F5",
                    "midi": 77,
                    "time": 74.58339299999996,
                    "velocity": 0.3858267716535433,
                    "duration": 0.4166669999999897
                },
                {
                    "name": "G5",
                    "midi": 79,
                    "time": 74.94797662499995,
                    "velocity": 0.3543307086614173,
                    "duration": 0.05208337499999516
                },
                {
                    "name": "A#5",
                    "midi": 82,
                    "time": 75.00005999999995,
                    "velocity": 0.4015748031496063,
                    "duration": 0.10416675000000453
                },
                {
                    "name": "A#5",
                    "midi": 82,
                    "time": 75.31256024999995,
                    "velocity": 0.36220472440944884,
                    "duration": 0.10416675000000453
                },
                {
                    "name": "A4",
                    "midi": 69,
                    "time": 75.41672699999995,
                    "velocity": 0.3464566929133858,
                    "duration": 0.7291672500000033
                },
                {
                    "name": "A#4",
                    "midi": 70,
                    "time": 76.14589424999996,
                    "velocity": 0.33070866141732286,
                    "duration": 0.05208337499999516
                },
                {
                    "name": "D5",
                    "midi": 74,
                    "time": 76.19797762499995,
                    "velocity": 0.3228346456692913,
                    "duration": 0.05208337499999516
                },
                {
                    "name": "F5",
                    "midi": 77,
                    "time": 76.25006099999995,
                    "velocity": 0.3858267716535433,
                    "duration": 0.10416675000000453
                },
                {
                    "name": "F5",
                    "midi": 77,
                    "time": 76.56256124999994,
                    "velocity": 0.3700787401574803,
                    "duration": 0.10416675000000453
                },
                {
                    "name": "E4",
                    "midi": 64,
                    "time": 76.66672799999995,
                    "velocity": 0.3464566929133858,
                    "duration": 0.8333339999999936
                },
                {
                    "name": "F4",
                    "midi": 65,
                    "time": 77.50006199999994,
                    "velocity": 0.4330708661417323,
                    "duration": 0.10416675000000453
                },
                {
                    "name": "A4",
                    "midi": 69,
                    "time": 77.81256224999994,
                    "velocity": 0.4566929133858268,
                    "duration": 0.10416675000000453
                },
                {
                    "name": "C5",
                    "midi": 72,
                    "time": 77.91672899999995,
                    "velocity": 0.4645669291338583,
                    "duration": 0.20833349999999484
                },
                {
                    "name": "D#5",
                    "midi": 75,
                    "time": 78.12506249999994,
                    "velocity": 0.47244094488188976,
                    "duration": 0.20833349999999484
                },
                {
                    "name": "D5",
                    "midi": 74,
                    "time": 78.33339599999994,
                    "velocity": 0.4409448818897638,
                    "duration": 0.05208337499999516
                },
                {
                    "name": "D#5",
                    "midi": 75,
                    "time": 78.38547937499993,
                    "velocity": 0.4409448818897638,
                    "duration": 0.05208337499999516
                },
                {
                    "name": "D5",
                    "midi": 74,
                    "time": 78.43756274999993,
                    "velocity": 0.48031496062992124,
                    "duration": 0.10416675000000453
                },
                {
                    "name": "C5",
                    "midi": 72,
                    "time": 78.54172949999993,
                    "velocity": 0.4409448818897638,
                    "duration": 0.20833349999999484
                },
                {
                    "name": "D5",
                    "midi": 74,
                    "time": 78.75006299999993,
                    "velocity": 0.5039370078740157,
                    "duration": 0.10416675000000453
                },
                {
                    "name": "F4",
                    "midi": 65,
                    "time": 79.06256324999993,
                    "velocity": 0.44881889763779526,
                    "duration": 0.10416675000000453
                },
                {
                    "name": "A#4",
                    "midi": 70,
                    "time": 79.16672999999993,
                    "velocity": 0.4645669291338583,
                    "duration": 0.4166670000000039
                },
                {
                    "name": "F5",
                    "midi": 77,
                    "time": 80.00006399999994,
                    "velocity": 0.36220472440944884,
                    "duration": 0.10416675000000453
                },
                {
                    "name": "F5",
                    "midi": 77,
                    "time": 80.31256424999994,
                    "velocity": 0.29133858267716534,
                    "duration": 0.10416675000000453
                },
                {
                    "name": "E5",
                    "midi": 76,
                    "time": 80.41673099999994,
                    "velocity": 0.3228346456692913,
                    "duration": 0.4166670000000039
                },
                {
                    "name": "C#5",
                    "midi": 73,
                    "time": 80.83339799999995,
                    "velocity": 0.29133858267716534,
                    "duration": 0.20833349999999484
                },
                {
                    "name": "C5",
                    "midi": 72,
                    "time": 81.04173149999994,
                    "velocity": 0.29133858267716534,
                    "duration": 0.20833349999999484
                },
                {
                    "name": "A#4",
                    "midi": 70,
                    "time": 81.25006499999994,
                    "velocity": 0.33070866141732286,
                    "duration": 0.20833349999999484
                },
                {
                    "name": "C#5",
                    "midi": 73,
                    "time": 81.56256524999993,
                    "velocity": 0.29133858267716534,
                    "duration": 0.10416675000000453
                },
                {
                    "name": "C5",
                    "midi": 72,
                    "time": 81.66673199999994,
                    "velocity": 0.29133858267716534,
                    "duration": 0.05208337499999516
                },
                {
                    "name": "C#5",
                    "midi": 73,
                    "time": 81.71881537499993,
                    "velocity": 0.29133858267716534,
                    "duration": 0.05208337499999516
                },
                {
                    "name": "C5",
                    "midi": 72,
                    "time": 81.77089874999993,
                    "velocity": 0.31496062992125984,
                    "duration": 0.31250024999999937
                },
                {
                    "name": "A#4",
                    "midi": 70,
                    "time": 82.08339899999993,
                    "velocity": 0.29133858267716534,
                    "duration": 0.20833349999999484
                },
                {
                    "name": "E4",
                    "midi": 64,
                    "time": 82.39589924999993,
                    "velocity": 0.3228346456692913,
                    "duration": 0.10416675000000453
                },
                {
                    "name": "F5",
                    "midi": 77,
                    "time": 82.50006599999993,
                    "velocity": 0.36220472440944884,
                    "duration": 0.10416675000000453
                },
                {
                    "name": "F5",
                    "midi": 77,
                    "time": 82.81256624999993,
                    "velocity": 0.29133858267716534,
                    "duration": 0.10416675000000453
                },
                {
                    "name": "E5",
                    "midi": 76,
                    "time": 82.91673299999994,
                    "velocity": 0.3228346456692913,
                    "duration": 0.4166670000000039
                },
                {
                    "name": "C#5",
                    "midi": 73,
                    "time": 83.33339999999994,
                    "velocity": 0.29133858267716534,
                    "duration": 0.20833349999999484
                },
                {
                    "name": "C5",
                    "midi": 72,
                    "time": 83.54173349999994,
                    "velocity": 0.29133858267716534,
                    "duration": 0.20833349999999484
                },
                {
                    "name": "A#4",
                    "midi": 70,
                    "time": 83.75006699999993,
                    "velocity": 0.3543307086614173,
                    "duration": 0.13888900000000604
                },
                {
                    "name": "C5",
                    "midi": 72,
                    "time": 83.88895599999994,
                    "velocity": 0.31496062992125984,
                    "duration": 0.13888900000000604
                },
                {
                    "name": "A#4",
                    "midi": 70,
                    "time": 84.02784499999994,
                    "velocity": 0.30708661417322836,
                    "duration": 0.13888900000000604
                },
                {
                    "name": "E4",
                    "midi": 64,
                    "time": 84.16673399999995,
                    "velocity": 0.33070866141732286,
                    "duration": 0.8333339999999936
                },
                {
                    "name": "F5",
                    "midi": 77,
                    "time": 85.00006799999994,
                    "velocity": 0.36220472440944884,
                    "duration": 0.10416675000000453
                },
                {
                    "name": "F5",
                    "midi": 77,
                    "time": 85.31256824999994,
                    "velocity": 0.29133858267716534,
                    "duration": 0.10416675000000453
                },
                {
                    "name": "E5",
                    "midi": 76,
                    "time": 85.41673499999995,
                    "velocity": 0.3228346456692913,
                    "duration": 0.4166670000000039
                },
                {
                    "name": "C#5",
                    "midi": 73,
                    "time": 85.83340199999995,
                    "velocity": 0.29133858267716534,
                    "duration": 0.20833349999999484
                },
                {
                    "name": "C5",
                    "midi": 72,
                    "time": 86.04173549999994,
                    "velocity": 0.29133858267716534,
                    "duration": 0.20833349999999484
                },
                {
                    "name": "A#4",
                    "midi": 70,
                    "time": 86.25006899999994,
                    "velocity": 0.33070866141732286,
                    "duration": 0.20833349999999484
                },
                {
                    "name": "C#5",
                    "midi": 73,
                    "time": 86.56256924999994,
                    "velocity": 0.29133858267716534,
                    "duration": 0.10416675000000453
                },
                {
                    "name": "C5",
                    "midi": 72,
                    "time": 86.66673599999994,
                    "velocity": 0.29133858267716534,
                    "duration": 0.05208337499999516
                },
                {
                    "name": "C#5",
                    "midi": 73,
                    "time": 86.71881937499994,
                    "velocity": 0.25984251968503935,
                    "duration": 0.05208337499999516
                },
                {
                    "name": "C5",
                    "midi": 72,
                    "time": 86.77090274999993,
                    "velocity": 0.29133858267716534,
                    "duration": 0.05208337499999516
                },
                {
                    "name": "C#5",
                    "midi": 73,
                    "time": 86.82298612499993,
                    "velocity": 0.2755905511811024,
                    "duration": 0.05208337499999516
                },
                {
                    "name": "C5",
                    "midi": 72,
                    "time": 86.87506949999992,
                    "velocity": 0.29133858267716534,
                    "duration": 0.05208337499999516
                },
                {
                    "name": "C#5",
                    "midi": 73,
                    "time": 86.92715287499992,
                    "velocity": 0.2677165354330709,
                    "duration": 0.05208337499999516
                },
                {
                    "name": "C5",
                    "midi": 72,
                    "time": 86.97923624999991,
                    "velocity": 0.29133858267716534,
                    "duration": 0.05208337499999516
                },
                {
                    "name": "C#5",
                    "midi": 73,
                    "time": 87.03131962499991,
                    "velocity": 0.29133858267716534,
                    "duration": 0.05208337499999516
                },
                {
                    "name": "A#4",
                    "midi": 70,
                    "time": 87.0834029999999,
                    "velocity": 0.29133858267716534,
                    "duration": 0.20833349999999484
                },
                {
                    "name": "E4",
                    "midi": 64,
                    "time": 87.3959032499999,
                    "velocity": 0.3228346456692913,
                    "duration": 0.10416675000000453
                },
                {
                    "name": "F5",
                    "midi": 77,
                    "time": 87.50006999999991,
                    "velocity": 0.36220472440944884,
                    "duration": 0.10416675000000453
                },
                {
                    "name": "F5",
                    "midi": 77,
                    "time": 87.81257024999991,
                    "velocity": 0.29133858267716534,
                    "duration": 0.10416675000000453
                },
                {
                    "name": "E5",
                    "midi": 76,
                    "time": 87.91673699999991,
                    "velocity": 0.3228346456692913,
                    "duration": 0.4166670000000039
                },
                {
                    "name": "C#5",
                    "midi": 73,
                    "time": 88.33340399999992,
                    "velocity": 0.29133858267716534,
                    "duration": 0.31250024999999937
                },
                {
                    "name": "C5",
                    "midi": 72,
                    "time": 88.64590424999992,
                    "velocity": 0.29133858267716534,
                    "duration": 0.10416675000000453
                },
                {
                    "name": "A#4",
                    "midi": 70,
                    "time": 88.75007099999992,
                    "velocity": 0.3543307086614173,
                    "duration": 0.13888900000000604
                },
                {
                    "name": "C5",
                    "midi": 72,
                    "time": 88.88895999999993,
                    "velocity": 0.31496062992125984,
                    "duration": 0.13888900000000604
                },
                {
                    "name": "A#4",
                    "midi": 70,
                    "time": 89.02784899999993,
                    "velocity": 0.30708661417322836,
                    "duration": 0.13888900000000604
                },
                {
                    "name": "A4",
                    "midi": 69,
                    "time": 89.16673799999994,
                    "velocity": 0.33070866141732286,
                    "duration": 0.6250004999999987
                },
                {
                    "name": "G4",
                    "midi": 67,
                    "time": 89.79173849999994,
                    "velocity": 0.41732283464566927,
                    "duration": 0.20833349999999484
                },
                {
                    "name": "F4",
                    "midi": 65,
                    "time": 90.00007199999993,
                    "velocity": 0.5511811023622047,
                    "duration": 0.20833349999999484
                },
                {
                    "name": "F4",
                    "midi": 65,
                    "time": 90.31257224999993,
                    "velocity": 0.5196850393700787,
                    "duration": 0.10416675000000453
                },
                {
                    "name": "G4",
                    "midi": 67,
                    "time": 90.41673899999994,
                    "velocity": 0.5511811023622047,
                    "duration": 0.4166670000000039
                },
                {
                    "name": "A4",
                    "midi": 69,
                    "time": 90.83340599999994,
                    "velocity": 0.5511811023622047,
                    "duration": 0.4166670000000039
                },
                {
                    "name": "A#4",
                    "midi": 70,
                    "time": 91.25007299999994,
                    "velocity": 0.5590551181102362,
                    "duration": 0.20833349999999484
                },
                {
                    "name": "C5",
                    "midi": 72,
                    "time": 91.56257324999994,
                    "velocity": 0.5196850393700787,
                    "duration": 0.10416675000000453
                },
                {
                    "name": "D5",
                    "midi": 74,
                    "time": 91.66673999999995,
                    "velocity": 0.5511811023622047,
                    "duration": 0.4166670000000039
                },
                {
                    "name": "D#5",
                    "midi": 75,
                    "time": 92.08340699999995,
                    "velocity": 0.5905511811023622,
                    "duration": 0.20833349999999484
                },
                {
                    "name": "F5",
                    "midi": 77,
                    "time": 92.29174049999995,
                    "velocity": 0.6220472440944882,
                    "duration": 0.20833349999999484
                },
                {
                    "name": "G5",
                    "midi": 79,
                    "time": 92.50007399999994,
                    "velocity": 0.6535433070866141,
                    "duration": 0.10416675000000453
                },
                {
                    "name": "A5",
                    "midi": 81,
                    "time": 92.81257424999994,
                    "velocity": 0.5905511811023622,
                    "duration": 0.10416675000000453
                },
                {
                    "name": "A#5",
                    "midi": 82,
                    "time": 92.91674099999994,
                    "velocity": 0.5984251968503937,
                    "duration": 0.05208337499999516
                },
                {
                    "name": "C6",
                    "midi": 84,
                    "time": 92.96882437499994,
                    "velocity": 0.5275590551181102,
                    "duration": 0.05208337499999516
                },
                {
                    "name": "A#5",
                    "midi": 82,
                    "time": 93.02090774999994,
                    "velocity": 0.5748031496062992,
                    "duration": 0.05208337499999516
                },
                {
                    "name": "C6",
                    "midi": 84,
                    "time": 93.07299112499993,
                    "velocity": 0.5196850393700787,
                    "duration": 0.05208337499999516
                },
                {
                    "name": "A#5",
                    "midi": 82,
                    "time": 93.12507449999993,
                    "velocity": 0.5511811023622047,
                    "duration": 0.05208337499999516
                },
                {
                    "name": "C6",
                    "midi": 84,
                    "time": 93.17715787499992,
                    "velocity": 0.5039370078740157,
                    "duration": 0.05208337499999516
                },
                {
                    "name": "A#5",
                    "midi": 82,
                    "time": 93.22924124999992,
                    "velocity": 0.5511811023622047,
                    "duration": 0.05208337499999516
                },
                {
                    "name": "C6",
                    "midi": 84,
                    "time": 93.28132462499991,
                    "velocity": 0.5039370078740157,
                    "duration": 0.05208337499999516
                },
                {
                    "name": "A5",
                    "midi": 81,
                    "time": 93.3334079999999,
                    "velocity": 0.5511811023622047,
                    "duration": 0.20833349999999484
                },
                {
                    "name": "G5",
                    "midi": 79,
                    "time": 93.5417414999999,
                    "velocity": 0.4409448818897638,
                    "duration": 0.15625012499999968
                },
                {
                    "name": "F5",
                    "midi": 77,
                    "time": 93.6979916249999,
                    "velocity": 0.4015748031496063,
                    "duration": 0.05208337499999516
                },
                {
                    "name": "A#5",
                    "midi": 82,
                    "time": 93.7500749999999,
                    "velocity": 0.47244094488188976,
                    "duration": 0.10416675000000453
                },
                {
                    "name": "A#5",
                    "midi": 82,
                    "time": 94.0625752499999,
                    "velocity": 0.4330708661417323,
                    "duration": 0.10416675000000453
                },
                {
                    "name": "D5",
                    "midi": 74,
                    "time": 94.1667419999999,
                    "velocity": 0.3858267716535433,
                    "duration": 0.7812506249999984
                },
                {
                    "name": "D#5",
                    "midi": 75,
                    "time": 94.9479926249999,
                    "velocity": 0.3937007874015748,
                    "duration": 0.05208337499999516
                },
                {
                    "name": "G5",
                    "midi": 79,
                    "time": 95.0000759999999,
                    "velocity": 0.4566929133858268,
                    "duration": 0.10416675000000453
                },
                {
                    "name": "G5",
                    "midi": 79,
                    "time": 95.31257624999989,
                    "velocity": 0.4015748031496063,
                    "duration": 0.10416675000000453
                },
                {
                    "name": "A4",
                    "midi": 69,
                    "time": 95.4167429999999,
                    "velocity": 0.3858267716535433,
                    "duration": 0.7812506249999984
                },
                {
                    "name": "A#4",
                    "midi": 70,
                    "time": 96.1979936249999,
                    "velocity": 0.3937007874015748,
                    "duration": 0.05208337499999516
                },
                {
                    "name": "D5",
                    "midi": 74,
                    "time": 96.25007699999989,
                    "velocity": 0.4409448818897638,
                    "duration": 0.10416675000000453
                },
                {
                    "name": "D5",
                    "midi": 74,
                    "time": 96.56257724999989,
                    "velocity": 0.4094488188976378,
                    "duration": 0.10416675000000453
                },
                {
                    "name": "E4",
                    "midi": 64,
                    "time": 96.6667439999999,
                    "velocity": 0.3858267716535433,
                    "duration": 0.8333339999999936
                },
                {
                    "name": "F4",
                    "midi": 65,
                    "time": 97.50007799999989,
                    "velocity": 0.4330708661417323,
                    "duration": 0.10416675000000453
                },
                {
                    "name": "A4",
                    "midi": 69,
                    "time": 97.81257824999989,
                    "velocity": 0.4566929133858268,
                    "duration": 0.10416675000000453
                },
                {
                    "name": "C5",
                    "midi": 72,
                    "time": 97.91674499999989,
                    "velocity": 0.4645669291338583,
                    "duration": 0.20833349999999484
                },
                {
                    "name": "D#5",
                    "midi": 75,
                    "time": 98.12507849999989,
                    "velocity": 0.47244094488188976,
                    "duration": 0.20833349999999484
                },
                {
                    "name": "G5",
                    "midi": 79,
                    "time": 98.33341199999988,
                    "velocity": 0.5275590551181102,
                    "duration": 0.31250024999999937
                },
                {
                    "name": "F5",
                    "midi": 77,
                    "time": 98.64591224999988,
                    "velocity": 0.49606299212598426,
                    "duration": 0.050347262499997214
                },
                {
                    "name": "F5",
                    "midi": 77,
                    "time": 98.69799562499988,
                    "velocity": 0.4330708661417323,
                    "duration": 0.05208337499999516
                },
                {
                    "name": "D6",
                    "midi": 86,
                    "time": 98.75007899999987,
                    "velocity": 0.5905511811023622,
                    "duration": 0.10416675000000453
                },
                {
                    "name": "C6",
                    "midi": 84,
                    "time": 99.06257924999987,
                    "velocity": 0.5354330708661418,
                    "duration": 0.10416675000000453
                },
                {
                    "name": "A#5",
                    "midi": 82,
                    "time": 99.16674599999988,
                    "velocity": 0.4409448818897638,
                    "duration": 0.05208337499999516
                },
                {
                    "name": "C6",
                    "midi": 84,
                    "time": 99.21882937499987,
                    "velocity": 0.4330708661417323,
                    "duration": 0.05208337499999516
                },
                {
                    "name": "A#5",
                    "midi": 82,
                    "time": 99.27091274999987,
                    "velocity": 0.5039370078740157,
                    "duration": 0.10416675000000453
                },
                {
                    "name": "G5",
                    "midi": 79,
                    "time": 99.37507949999987,
                    "velocity": 0.4566929133858268,
                    "duration": 0.20833349999999484
                },
                {
                    "name": "F5",
                    "midi": 77,
                    "time": 99.58341299999987,
                    "velocity": 0.4330708661417323,
                    "duration": 0.4166669999999897
                },
                {
                    "name": "G5",
                    "midi": 79,
                    "time": 99.94799662499986,
                    "velocity": 0.3543307086614173,
                    "duration": 0.05208337499999516
                },
                {
                    "name": "A#5",
                    "midi": 82,
                    "time": 100.00007999999985,
                    "velocity": 0.4015748031496063,
                    "duration": 0.10416675000000453
                },
                {
                    "name": "A#5",
                    "midi": 82,
                    "time": 100.31258024999985,
                    "velocity": 0.36220472440944884,
                    "duration": 0.10416675000000453
                },
                {
                    "name": "A4",
                    "midi": 69,
                    "time": 100.41674699999986,
                    "velocity": 0.3464566929133858,
                    "duration": 0.7291672500000033
                },
                {
                    "name": "A#4",
                    "midi": 70,
                    "time": 101.14591424999986,
                    "velocity": 0.33070866141732286,
                    "duration": 0.05208337499999516
                },
                {
                    "name": "D5",
                    "midi": 74,
                    "time": 101.19799762499986,
                    "velocity": 0.3228346456692913,
                    "duration": 0.05208337499999516
                },
                {
                    "name": "F5",
                    "midi": 77,
                    "time": 101.25008099999985,
                    "velocity": 0.3858267716535433,
                    "duration": 0.10416675000000453
                },
                {
                    "name": "F5",
                    "midi": 77,
                    "time": 101.56258124999985,
                    "velocity": 0.3700787401574803,
                    "duration": 0.10416675000000453
                },
                {
                    "name": "E4",
                    "midi": 64,
                    "time": 101.66674799999986,
                    "velocity": 0.3464566929133858,
                    "duration": 0.8333339999999936
                },
                {
                    "name": "F4",
                    "midi": 65,
                    "time": 102.50008199999985,
                    "velocity": 0.4330708661417323,
                    "duration": 0.10416675000000453
                },
                {
                    "name": "A4",
                    "midi": 69,
                    "time": 102.81258224999985,
                    "velocity": 0.4566929133858268,
                    "duration": 0.10416675000000453
                },
                {
                    "name": "C5",
                    "midi": 72,
                    "time": 102.91674899999985,
                    "velocity": 0.4645669291338583,
                    "duration": 0.20833349999999484
                },
                {
                    "name": "D#5",
                    "midi": 75,
                    "time": 103.12508249999985,
                    "velocity": 0.47244094488188976,
                    "duration": 0.20833349999999484
                },
                {
                    "name": "D5",
                    "midi": 74,
                    "time": 103.33341599999984,
                    "velocity": 0.4409448818897638,
                    "duration": 0.05208337499999516
                },
                {
                    "name": "D#5",
                    "midi": 75,
                    "time": 103.38549937499984,
                    "velocity": 0.4409448818897638,
                    "duration": 0.05208337499999516
                },
                {
                    "name": "D5",
                    "midi": 74,
                    "time": 103.43758274999983,
                    "velocity": 0.48031496062992124,
                    "duration": 0.20833349999999484
                },
                {
                    "name": "C5",
                    "midi": 72,
                    "time": 103.64591624999983,
                    "velocity": 0.4409448818897638,
                    "duration": 0.10416675000000453
                },
                {
                    "name": "D5",
                    "midi": 74,
                    "time": 103.75008299999983,
                    "velocity": 0.5039370078740157,
                    "duration": 0.10416675000000453
                },
                {
                    "name": "F4",
                    "midi": 65,
                    "time": 104.06258324999983,
                    "velocity": 0.44881889763779526,
                    "duration": 0.10416675000000453
                },
                {
                    "name": "A#4",
                    "midi": 70,
                    "time": 104.16674999999984,
                    "velocity": 0.4645669291338583,
                    "duration": 0.4166670000000039
                },
                {
                    "name": "F5",
                    "midi": 77,
                    "time": 105.00008399999984,
                    "velocity": 0.36220472440944884,
                    "duration": 0.10416675000000453
                },
                {
                    "name": "F5",
                    "midi": 77,
                    "time": 105.31258424999984,
                    "velocity": 0.29133858267716534,
                    "duration": 0.10416675000000453
                },
                {
                    "name": "E5",
                    "midi": 76,
                    "time": 105.41675099999985,
                    "velocity": 0.3228346456692913,
                    "duration": 0.4166670000000039
                },
                {
                    "name": "C#5",
                    "midi": 73,
                    "time": 105.83341799999985,
                    "velocity": 0.29133858267716534,
                    "duration": 0.20833349999999484
                },
                {
                    "name": "C5",
                    "midi": 72,
                    "time": 106.04175149999985,
                    "velocity": 0.29133858267716534,
                    "duration": 0.20833349999999484
                },
                {
                    "name": "A#4",
                    "midi": 70,
                    "time": 106.25008499999984,
                    "velocity": 0.33070866141732286,
                    "duration": 0.20833349999999484
                },
                {
                    "name": "C#5",
                    "midi": 73,
                    "time": 106.56258524999984,
                    "velocity": 0.29133858267716534,
                    "duration": 0.10416675000000453
                },
                {
                    "name": "C5",
                    "midi": 72,
                    "time": 106.66675199999985,
                    "velocity": 0.29133858267716534,
                    "duration": 0.05208337499999516
                },
                {
                    "name": "C#5",
                    "midi": 73,
                    "time": 106.71883537499984,
                    "velocity": 0.29133858267716534,
                    "duration": 0.05208337499999516
                },
                {
                    "name": "C5",
                    "midi": 72,
                    "time": 106.77091874999984,
                    "velocity": 0.31496062992125984,
                    "duration": 0.31250024999999937
                },
                {
                    "name": "A#4",
                    "midi": 70,
                    "time": 107.08341899999984,
                    "velocity": 0.29133858267716534,
                    "duration": 0.20833349999999484
                },
                {
                    "name": "E4",
                    "midi": 64,
                    "time": 107.39591924999984,
                    "velocity": 0.3228346456692913,
                    "duration": 0.10416675000000453
                },
                {
                    "name": "F5",
                    "midi": 77,
                    "time": 107.50008599999984,
                    "velocity": 0.36220472440944884,
                    "duration": 0.10416675000000453
                },
                {
                    "name": "F5",
                    "midi": 77,
                    "time": 107.81258624999984,
                    "velocity": 0.29133858267716534,
                    "duration": 0.10416675000000453
                },
                {
                    "name": "E5",
                    "midi": 76,
                    "time": 107.91675299999984,
                    "velocity": 0.3228346456692913,
                    "duration": 0.4166670000000039
                },
                {
                    "name": "C#5",
                    "midi": 73,
                    "time": 108.33341999999985,
                    "velocity": 0.29133858267716534,
                    "duration": 0.20833349999999484
                },
                {
                    "name": "C5",
                    "midi": 72,
                    "time": 108.54175349999984,
                    "velocity": 0.29133858267716534,
                    "duration": 0.20833349999999484
                },
                {
                    "name": "A#4",
                    "midi": 70,
                    "time": 108.75008699999984,
                    "velocity": 0.3543307086614173,
                    "duration": 0.13888900000000604
                },
                {
                    "name": "C5",
                    "midi": 72,
                    "time": 108.88897599999984,
                    "velocity": 0.31496062992125984,
                    "duration": 0.13888900000000604
                },
                {
                    "name": "A#4",
                    "midi": 70,
                    "time": 109.02786499999985,
                    "velocity": 0.30708661417322836,
                    "duration": 0.13888900000000604
                },
                {
                    "name": "E4",
                    "midi": 64,
                    "time": 109.16675399999986,
                    "velocity": 0.33070866141732286,
                    "duration": 0.8333339999999936
                },
                {
                    "name": "F5",
                    "midi": 77,
                    "time": 110.00008799999985,
                    "velocity": 0.36220472440944884,
                    "duration": 0.10416675000000453
                },
                {
                    "name": "F5",
                    "midi": 77,
                    "time": 110.31258824999985,
                    "velocity": 0.29133858267716534,
                    "duration": 0.10416675000000453
                },
                {
                    "name": "E5",
                    "midi": 76,
                    "time": 110.41675499999985,
                    "velocity": 0.3228346456692913,
                    "duration": 0.4166670000000039
                },
                {
                    "name": "C#5",
                    "midi": 73,
                    "time": 110.83342199999986,
                    "velocity": 0.29133858267716534,
                    "duration": 0.20833349999999484
                },
                {
                    "name": "C5",
                    "midi": 72,
                    "time": 111.04175549999985,
                    "velocity": 0.29133858267716534,
                    "duration": 0.20833349999999484
                },
                {
                    "name": "A#4",
                    "midi": 70,
                    "time": 111.25008899999985,
                    "velocity": 0.33070866141732286,
                    "duration": 0.20833349999999484
                },
                {
                    "name": "C#5",
                    "midi": 73,
                    "time": 111.56258924999985,
                    "velocity": 0.29133858267716534,
                    "duration": 0.10416675000000453
                },
                {
                    "name": "C5",
                    "midi": 72,
                    "time": 111.66675599999985,
                    "velocity": 0.29133858267716534,
                    "duration": 0.05208337499999516
                },
                {
                    "name": "C#5",
                    "midi": 73,
                    "time": 111.71883937499985,
                    "velocity": 0.25984251968503935,
                    "duration": 0.05208337499999516
                },
                {
                    "name": "C5",
                    "midi": 72,
                    "time": 111.77092274999984,
                    "velocity": 0.29133858267716534,
                    "duration": 0.05208337499999516
                },
                {
                    "name": "C#5",
                    "midi": 73,
                    "time": 111.82300612499984,
                    "velocity": 0.2755905511811024,
                    "duration": 0.05208337499999516
                },
                {
                    "name": "C5",
                    "midi": 72,
                    "time": 111.87508949999983,
                    "velocity": 0.29133858267716534,
                    "duration": 0.05208337499999516
                },
                {
                    "name": "C#5",
                    "midi": 73,
                    "time": 111.92717287499983,
                    "velocity": 0.2677165354330709,
                    "duration": 0.05208337499999516
                },
                {
                    "name": "C5",
                    "midi": 72,
                    "time": 111.97925624999982,
                    "velocity": 0.29133858267716534,
                    "duration": 0.05208337499999516
                },
                {
                    "name": "C#5",
                    "midi": 73,
                    "time": 112.03133962499982,
                    "velocity": 0.29133858267716534,
                    "duration": 0.05208337499999516
                },
                {
                    "name": "A#4",
                    "midi": 70,
                    "time": 112.08342299999981,
                    "velocity": 0.29133858267716534,
                    "duration": 0.20833349999999484
                },
                {
                    "name": "E4",
                    "midi": 64,
                    "time": 112.39592324999981,
                    "velocity": 0.3228346456692913,
                    "duration": 0.10416675000000453
                },
                {
                    "name": "F5",
                    "midi": 77,
                    "time": 112.50008999999982,
                    "velocity": 0.36220472440944884,
                    "duration": 0.10416675000000453
                },
                {
                    "name": "F5",
                    "midi": 77,
                    "time": 112.81259024999981,
                    "velocity": 0.29133858267716534,
                    "duration": 0.10416675000000453
                },
                {
                    "name": "E5",
                    "midi": 76,
                    "time": 112.91675699999982,
                    "velocity": 0.3228346456692913,
                    "duration": 0.4166670000000039
                },
                {
                    "name": "C#5",
                    "midi": 73,
                    "time": 113.33342399999982,
                    "velocity": 0.29133858267716534,
                    "duration": 0.31250024999999937
                },
                {
                    "name": "C5",
                    "midi": 72,
                    "time": 113.64592424999982,
                    "velocity": 0.29133858267716534,
                    "duration": 0.10416675000000453
                },
                {
                    "name": "A#4",
                    "midi": 70,
                    "time": 113.75009099999983,
                    "velocity": 0.3543307086614173,
                    "duration": 0.13888900000000604
                },
                {
                    "name": "C5",
                    "midi": 72,
                    "time": 113.88897999999983,
                    "velocity": 0.31496062992125984,
                    "duration": 0.13888900000000604
                },
                {
                    "name": "A#4",
                    "midi": 70,
                    "time": 114.02786899999984,
                    "velocity": 0.30708661417322836,
                    "duration": 0.13888900000000604
                },
                {
                    "name": "A4",
                    "midi": 69,
                    "time": 114.16675799999985,
                    "velocity": 0.33070866141732286,
                    "duration": 0.6250004999999987
                },
                {
                    "name": "G4",
                    "midi": 67,
                    "time": 114.79175849999984,
                    "velocity": 0.41732283464566927,
                    "duration": 0.20833349999999484
                },
                {
                    "name": "F4",
                    "midi": 65,
                    "time": 115.00009199999984,
                    "velocity": 0.5511811023622047,
                    "duration": 0.20833349999999484
                },
                {
                    "name": "F4",
                    "midi": 65,
                    "time": 115.31259224999984,
                    "velocity": 0.5196850393700787,
                    "duration": 0.10416675000000453
                },
                {
                    "name": "G4",
                    "midi": 67,
                    "time": 115.41675899999984,
                    "velocity": 0.5511811023622047,
                    "duration": 0.4166670000000039
                },
                {
                    "name": "A4",
                    "midi": 69,
                    "time": 115.83342599999985,
                    "velocity": 0.5511811023622047,
                    "duration": 0.4166670000000039
                },
                {
                    "name": "A#4",
                    "midi": 70,
                    "time": 116.25009299999985,
                    "velocity": 0.5590551181102362,
                    "duration": 0.20833349999999484
                },
                {
                    "name": "C5",
                    "midi": 72,
                    "time": 116.56259324999985,
                    "velocity": 0.5196850393700787,
                    "duration": 0.10416675000000453
                },
                {
                    "name": "D5",
                    "midi": 74,
                    "time": 116.66675999999985,
                    "velocity": 0.5511811023622047,
                    "duration": 0.4166670000000039
                },
                {
                    "name": "D#5",
                    "midi": 75,
                    "time": 117.08342699999986,
                    "velocity": 0.5905511811023622,
                    "duration": 0.20833349999999484
                },
                {
                    "name": "F5",
                    "midi": 77,
                    "time": 117.29176049999985,
                    "velocity": 0.6220472440944882,
                    "duration": 0.20833349999999484
                },
                {
                    "name": "G5",
                    "midi": 79,
                    "time": 117.50009399999985,
                    "velocity": 0.6535433070866141,
                    "duration": 0.10416675000000453
                },
                {
                    "name": "A5",
                    "midi": 81,
                    "time": 117.81259424999985,
                    "velocity": 0.5905511811023622,
                    "duration": 0.10416675000000453
                },
                {
                    "name": "A#5",
                    "midi": 82,
                    "time": 117.91676099999985,
                    "velocity": 0.5984251968503937,
                    "duration": 0.05208337499999516
                },
                {
                    "name": "C6",
                    "midi": 84,
                    "time": 117.96884437499985,
                    "velocity": 0.5275590551181102,
                    "duration": 0.05208337499999516
                },
                {
                    "name": "A#5",
                    "midi": 82,
                    "time": 118.02092774999984,
                    "velocity": 0.5748031496062992,
                    "duration": 0.05208337499999516
                },
                {
                    "name": "C6",
                    "midi": 84,
                    "time": 118.07301112499984,
                    "velocity": 0.5196850393700787,
                    "duration": 0.05208337499999516
                },
                {
                    "name": "A#5",
                    "midi": 82,
                    "time": 118.12509449999983,
                    "velocity": 0.5511811023622047,
                    "duration": 0.05208337499999516
                },
                {
                    "name": "C6",
                    "midi": 84,
                    "time": 118.17717787499983,
                    "velocity": 0.5039370078740157,
                    "duration": 0.05208337499999516
                },
                {
                    "name": "A#5",
                    "midi": 82,
                    "time": 118.22926124999982,
                    "velocity": 0.5511811023622047,
                    "duration": 0.05208337499999516
                },
                {
                    "name": "C6",
                    "midi": 84,
                    "time": 118.28134462499982,
                    "velocity": 0.5039370078740157,
                    "duration": 0.05208337499999516
                },
                {
                    "name": "A5",
                    "midi": 81,
                    "time": 118.33342799999981,
                    "velocity": 0.5511811023622047,
                    "duration": 0.20833349999999484
                },
                {
                    "name": "G5",
                    "midi": 79,
                    "time": 118.54176149999981,
                    "velocity": 0.4409448818897638,
                    "duration": 0.15625012499999968
                },
                {
                    "name": "F5",
                    "midi": 77,
                    "time": 118.69801162499981,
                    "velocity": 0.4015748031496063,
                    "duration": 0.05208337499999516
                },
                {
                    "name": "A#5",
                    "midi": 82,
                    "time": 118.7500949999998,
                    "velocity": 0.47244094488188976,
                    "duration": 0.10416675000000453
                },
                {
                    "name": "A#5",
                    "midi": 82,
                    "time": 119.0625952499998,
                    "velocity": 0.4330708661417323,
                    "duration": 0.10416675000000453
                },
                {
                    "name": "D5",
                    "midi": 74,
                    "time": 119.1667619999998,
                    "velocity": 0.3858267716535433,
                    "duration": 0.7812506249999984
                },
                {
                    "name": "D#5",
                    "midi": 75,
                    "time": 119.9480126249998,
                    "velocity": 0.3937007874015748,
                    "duration": 0.05208337499999516
                },
                {
                    "name": "G5",
                    "midi": 79,
                    "time": 120.0000959999998,
                    "velocity": 0.4566929133858268,
                    "duration": 0.10416675000000453
                },
                {
                    "name": "G5",
                    "midi": 79,
                    "time": 120.3125962499998,
                    "velocity": 0.4015748031496063,
                    "duration": 0.10416675000000453
                },
                {
                    "name": "A4",
                    "midi": 69,
                    "time": 120.4167629999998,
                    "velocity": 0.3858267716535433,
                    "duration": 0.7812506249999984
                },
                {
                    "name": "A#4",
                    "midi": 70,
                    "time": 121.1980136249998,
                    "velocity": 0.3937007874015748,
                    "duration": 0.05208337499999516
                },
                {
                    "name": "D5",
                    "midi": 74,
                    "time": 121.2500969999998,
                    "velocity": 0.4409448818897638,
                    "duration": 0.10416675000000453
                },
                {
                    "name": "D5",
                    "midi": 74,
                    "time": 121.5625972499998,
                    "velocity": 0.4094488188976378,
                    "duration": 0.10416675000000453
                },
                {
                    "name": "E4",
                    "midi": 64,
                    "time": 121.6667639999998,
                    "velocity": 0.3858267716535433,
                    "duration": 0.8333339999999936
                },
                {
                    "name": "F4",
                    "midi": 65,
                    "time": 122.5000979999998,
                    "velocity": 0.4330708661417323,
                    "duration": 0.10416675000000453
                },
                {
                    "name": "A4",
                    "midi": 69,
                    "time": 122.8125982499998,
                    "velocity": 0.4566929133858268,
                    "duration": 0.10416675000000453
                },
                {
                    "name": "C5",
                    "midi": 72,
                    "time": 122.9167649999998,
                    "velocity": 0.4645669291338583,
                    "duration": 0.20833349999999484
                },
                {
                    "name": "D#5",
                    "midi": 75,
                    "time": 123.1250984999998,
                    "velocity": 0.47244094488188976,
                    "duration": 0.20833349999999484
                },
                {
                    "name": "G5",
                    "midi": 79,
                    "time": 123.33343199999979,
                    "velocity": 0.5275590551181102,
                    "duration": 0.31250024999999937
                },
                {
                    "name": "F5",
                    "midi": 77,
                    "time": 123.64593224999979,
                    "velocity": 0.49606299212598426,
                    "duration": 0.05208337499999516
                },
                {
                    "name": "F5",
                    "midi": 77,
                    "time": 123.69801562499978,
                    "velocity": 0.3858267716535433,
                    "duration": 0.05208337499999516
                },
                {
                    "name": "D6",
                    "midi": 86,
                    "time": 123.75009899999978,
                    "velocity": 0.5275590551181102,
                    "duration": 0.10416675000000453
                },
                {
                    "name": "C6",
                    "midi": 84,
                    "time": 124.06259924999978,
                    "velocity": 0.48031496062992124,
                    "duration": 0.10416675000000453
                },
                {
                    "name": "A#5",
                    "midi": 82,
                    "time": 124.16676599999978,
                    "velocity": 0.3937007874015748,
                    "duration": 0.05208337499999516
                },
                {
                    "name": "C6",
                    "midi": 84,
                    "time": 124.21884937499978,
                    "velocity": 0.3858267716535433,
                    "duration": 0.05208337499999516
                },
                {
                    "name": "A#5",
                    "midi": 82,
                    "time": 124.27093274999977,
                    "velocity": 0.44881889763779526,
                    "duration": 0.10416675000000453
                },
                {
                    "name": "G5",
                    "midi": 79,
                    "time": 124.37509949999978,
                    "velocity": 0.4094488188976378,
                    "duration": 0.20833349999999484
                },
                {
                    "name": "F5",
                    "midi": 77,
                    "time": 124.58343299999977,
                    "velocity": 0.3858267716535433,
                    "duration": 0.4166669999999897
                },
                {
                    "name": "G5",
                    "midi": 79,
                    "time": 124.94801662499977,
                    "velocity": 0.3543307086614173,
                    "duration": 0.05208337499999516
                },
                {
                    "name": "A#5",
                    "midi": 82,
                    "time": 125.00009999999976,
                    "velocity": 0.4015748031496063,
                    "duration": 0.10416675000000453
                },
                {
                    "name": "A#5",
                    "midi": 82,
                    "time": 125.31260024999976,
                    "velocity": 0.36220472440944884,
                    "duration": 0.10416675000000453
                },
                {
                    "name": "A4",
                    "midi": 69,
                    "time": 125.41676699999977,
                    "velocity": 0.3464566929133858,
                    "duration": 0.7291672500000033
                },
                {
                    "name": "A#4",
                    "midi": 70,
                    "time": 126.14593424999977,
                    "velocity": 0.33070866141732286,
                    "duration": 0.05208337499999516
                },
                {
                    "name": "D5",
                    "midi": 74,
                    "time": 126.19801762499976,
                    "velocity": 0.3228346456692913,
                    "duration": 0.05208337499999516
                },
                {
                    "name": "F5",
                    "midi": 77,
                    "time": 126.25010099999976,
                    "velocity": 0.3858267716535433,
                    "duration": 0.10416675000000453
                },
                {
                    "name": "F5",
                    "midi": 77,
                    "time": 126.56260124999976,
                    "velocity": 0.3700787401574803,
                    "duration": 0.10416675000000453
                },
                {
                    "name": "E4",
                    "midi": 64,
                    "time": 126.66676799999976,
                    "velocity": 0.3464566929133858,
                    "duration": 0.8333339999999936
                },
                {
                    "name": "F4",
                    "midi": 65,
                    "time": 127.50010199999976,
                    "velocity": 0.4330708661417323,
                    "duration": 0.10416675000000453
                },
                {
                    "name": "A4",
                    "midi": 69,
                    "time": 127.81260224999976,
                    "velocity": 0.47244094488188976,
                    "duration": 0.10416675000000453
                },
                {
                    "name": "C5",
                    "midi": 72,
                    "time": 127.91676899999976,
                    "velocity": 0.4881889763779528,
                    "duration": 0.20833350000000905
                },
                {
                    "name": "D#5",
                    "midi": 75,
                    "time": 128.12510249999977,
                    "velocity": 0.5196850393700787,
                    "duration": 0.20833350000000905
                },
                {
                    "name": "D5",
                    "midi": 74,
                    "time": 128.33343599999978,
                    "velocity": 0.49606299212598426,
                    "duration": 0.05208337499999516
                },
                {
                    "name": "D#5",
                    "midi": 75,
                    "time": 128.38551937499977,
                    "velocity": 0.49606299212598426,
                    "duration": 0.05208337499999516
                },
                {
                    "name": "D5",
                    "midi": 74,
                    "time": 128.43760274999977,
                    "velocity": 0.5511811023622047,
                    "duration": 0.20833350000000905
                },
                {
                    "name": "C5",
                    "midi": 72,
                    "time": 128.64593624999978,
                    "velocity": 0.5039370078740157,
                    "duration": 0.10416674999999032
                },
                {
                    "name": "D5",
                    "midi": 74,
                    "time": 128.75010299999977,
                    "velocity": 0.5984251968503937,
                    "duration": 0.20833350000000905
                },
                {
                    "name": "F4",
                    "midi": 65,
                    "time": 128.95843649999978,
                    "velocity": 0.5354330708661418,
                    "duration": 0.20833350000000905
                },
                {
                    "name": "A#4",
                    "midi": 70,
                    "time": 129.1667699999998,
                    "velocity": 0.5354330708661418,
                    "duration": 0.8333340000000078
                },
                {
                    "name": "A#5",
                    "midi": 82,
                    "time": 129.1667699999998,
                    "velocity": 0.5511811023622047,
                    "duration": 0.8333340000000078
                }
            ],
            "controlChanges": {
                "7": [
                    {
                        "number": 7,
                        "time": 0,
                        "value": 0.7874015748031497
                    }
                ],
                "10": [
                    {
                        "number": 10,
                        "time": 0,
                        "value": 0.5039370078740157
                    }
                ],
                "91": [
                    {
                        "number": 91,
                        "time": 0,
                        "value": 1
                    },
                    {
                        "number": 91,
                        "time": 15.000011999999998,
                        "value": 1
                    },
                    {
                        "number": 91,
                        "time": 40.000031999999976,
                        "value": 1
                    },
                    {
                        "number": 91,
                        "time": 65.00005200000003,
                        "value": 1
                    },
                    {
                        "number": 91,
                        "time": 90.00007199999993,
                        "value": 1
                    },
                    {
                        "number": 91,
                        "time": 115.00009199999984,
                        "value": 1
                    }
                ]
            },
            "id": 1,
            "name": "Piano right",
            "instrumentNumber": 0,
            "instrument": "acoustic grand piano",
            "instrumentFamily": "piano",
            "channelNumber": 0,
            "isPercussion": false
        },
        {
            "startTime": 0,
            "duration": 130.00010400000005,
            "length": 622,
            "notes": [
                {
                    "name": "F2",
                    "midi": 41,
                    "time": 0,
                    "velocity": 0.5511811023622047,
                    "duration": 0.2083335
                },
                {
                    "name": "D#4",
                    "midi": 63,
                    "time": 0.416667,
                    "velocity": 0.4645669291338583,
                    "duration": 0.416667
                },
                {
                    "name": "C4",
                    "midi": 60,
                    "time": 0.416667,
                    "velocity": 0.3937007874015748,
                    "duration": 0.416667
                },
                {
                    "name": "F3",
                    "midi": 53,
                    "time": 0.416667,
                    "velocity": 0.3937007874015748,
                    "duration": 0.416667
                },
                {
                    "name": "D#4",
                    "midi": 63,
                    "time": 0.833334,
                    "velocity": 0.47244094488188976,
                    "duration": 0.4166670000000001
                },
                {
                    "name": "C4",
                    "midi": 60,
                    "time": 0.833334,
                    "velocity": 0.4015748031496063,
                    "duration": 0.4166670000000001
                },
                {
                    "name": "F3",
                    "midi": 53,
                    "time": 0.833334,
                    "velocity": 0.4015748031496063,
                    "duration": 0.4166670000000001
                },
                {
                    "name": "A#2",
                    "midi": 46,
                    "time": 1.2500010000000001,
                    "velocity": 0.5511811023622047,
                    "duration": 0.20833349999999995
                },
                {
                    "name": "D4",
                    "midi": 62,
                    "time": 1.666668,
                    "velocity": 0.4094488188976378,
                    "duration": 0.4166669999999999
                },
                {
                    "name": "A#3",
                    "midi": 58,
                    "time": 1.666668,
                    "velocity": 0.4094488188976378,
                    "duration": 0.4166669999999999
                },
                {
                    "name": "F3",
                    "midi": 53,
                    "time": 1.666668,
                    "velocity": 0.4094488188976378,
                    "duration": 0.4166669999999999
                },
                {
                    "name": "A#2",
                    "midi": 46,
                    "time": 2.083335,
                    "velocity": 0.4881889763779528,
                    "duration": 0.20833349999999973
                },
                {
                    "name": "D#2",
                    "midi": 39,
                    "time": 2.500002,
                    "velocity": 0.5354330708661418,
                    "duration": 0.33854193750000006
                },
                {
                    "name": "D#3",
                    "midi": 51,
                    "time": 2.500002,
                    "velocity": 0.6299212598425197,
                    "duration": 0.33854193750000006
                },
                {
                    "name": "G3",
                    "midi": 55,
                    "time": 2.8385439375,
                    "velocity": 0.4645669291338583,
                    "duration": 0.4947920624999993
                },
                {
                    "name": "A#3",
                    "midi": 58,
                    "time": 2.8645856249999997,
                    "velocity": 0.4645669291338583,
                    "duration": 0.4687503749999995
                },
                {
                    "name": "D#4",
                    "midi": 63,
                    "time": 2.8906273124999995,
                    "velocity": 0.4645669291338583,
                    "duration": 0.4427086874999997
                },
                {
                    "name": "G4",
                    "midi": 67,
                    "time": 2.9166689999999993,
                    "velocity": 0.5511811023622047,
                    "duration": 0.4166669999999999
                },
                {
                    "name": "A#2",
                    "midi": 46,
                    "time": 3.750002999999999,
                    "velocity": 0.33858267716535434,
                    "duration": 0.20833350000000017
                },
                {
                    "name": "D4",
                    "midi": 62,
                    "time": 4.166669999999999,
                    "velocity": 0.2204724409448819,
                    "duration": 0.41666700000000034
                },
                {
                    "name": "A#3",
                    "midi": 58,
                    "time": 4.166669999999999,
                    "velocity": 0.18110236220472442,
                    "duration": 0.41666700000000034
                },
                {
                    "name": "F3",
                    "midi": 53,
                    "time": 4.166669999999999,
                    "velocity": 0.18110236220472442,
                    "duration": 0.41666700000000034
                },
                {
                    "name": "D4",
                    "midi": 62,
                    "time": 4.583336999999999,
                    "velocity": 0.2047244094488189,
                    "duration": 0.41666700000000034
                },
                {
                    "name": "A#3",
                    "midi": 58,
                    "time": 4.583336999999999,
                    "velocity": 0.1732283464566929,
                    "duration": 0.41666700000000034
                },
                {
                    "name": "F3",
                    "midi": 53,
                    "time": 4.583336999999999,
                    "velocity": 0.1732283464566929,
                    "duration": 0.41666700000000034
                },
                {
                    "name": "F2",
                    "midi": 41,
                    "time": 5.000004,
                    "velocity": 0.31496062992125984,
                    "duration": 0.20833350000000017
                },
                {
                    "name": "D#4",
                    "midi": 63,
                    "time": 5.416671,
                    "velocity": 0.2125984251968504,
                    "duration": 0.41666700000000034
                },
                {
                    "name": "C4",
                    "midi": 60,
                    "time": 5.416671,
                    "velocity": 0.1732283464566929,
                    "duration": 0.41666700000000034
                },
                {
                    "name": "F3",
                    "midi": 53,
                    "time": 5.416671,
                    "velocity": 0.1732283464566929,
                    "duration": 0.41666700000000034
                },
                {
                    "name": "D#4",
                    "midi": 63,
                    "time": 5.833338,
                    "velocity": 0.1968503937007874,
                    "duration": 0.41666699999999945
                },
                {
                    "name": "C4",
                    "midi": 60,
                    "time": 5.833338,
                    "velocity": 0.16535433070866143,
                    "duration": 0.41666699999999945
                },
                {
                    "name": "F3",
                    "midi": 53,
                    "time": 5.833338,
                    "velocity": 0.16535433070866143,
                    "duration": 0.41666699999999945
                },
                {
                    "name": "A#2",
                    "midi": 46,
                    "time": 6.250005,
                    "velocity": 0.33858267716535434,
                    "duration": 0.20833349999999928
                },
                {
                    "name": "D4",
                    "midi": 62,
                    "time": 6.666671999999999,
                    "velocity": 0.2204724409448819,
                    "duration": 0.41666700000000034
                },
                {
                    "name": "A#3",
                    "midi": 58,
                    "time": 6.666671999999999,
                    "velocity": 0.18110236220472442,
                    "duration": 0.41666700000000034
                },
                {
                    "name": "F3",
                    "midi": 53,
                    "time": 6.666671999999999,
                    "velocity": 0.18110236220472442,
                    "duration": 0.41666700000000034
                },
                {
                    "name": "D4",
                    "midi": 62,
                    "time": 7.083339,
                    "velocity": 0.2047244094488189,
                    "duration": 0.41666700000000034
                },
                {
                    "name": "A#3",
                    "midi": 58,
                    "time": 7.083339,
                    "velocity": 0.1732283464566929,
                    "duration": 0.41666700000000034
                },
                {
                    "name": "F3",
                    "midi": 53,
                    "time": 7.083339,
                    "velocity": 0.1732283464566929,
                    "duration": 0.41666700000000034
                },
                {
                    "name": "F2",
                    "midi": 41,
                    "time": 7.500006,
                    "velocity": 0.44881889763779526,
                    "duration": 0.20833350000000017
                },
                {
                    "name": "F3",
                    "midi": 53,
                    "time": 7.916673,
                    "velocity": 0.30708661417322836,
                    "duration": 0.41666699999999945
                },
                {
                    "name": "D#4",
                    "midi": 63,
                    "time": 7.916673,
                    "velocity": 0.3700787401574803,
                    "duration": 0.41666699999999945
                },
                {
                    "name": "F3",
                    "midi": 53,
                    "time": 8.33334,
                    "velocity": 0.30708661417322836,
                    "duration": 0.41666700000000034
                },
                {
                    "name": "A3",
                    "midi": 57,
                    "time": 8.33334,
                    "velocity": 0.30708661417322836,
                    "duration": 0.41666700000000034
                },
                {
                    "name": "D#4",
                    "midi": 63,
                    "time": 8.33334,
                    "velocity": 0.36220472440944884,
                    "duration": 0.41666700000000034
                },
                {
                    "name": "A#2",
                    "midi": 46,
                    "time": 8.750007,
                    "velocity": 0.44881889763779526,
                    "duration": 0.20833350000000017
                },
                {
                    "name": "F3",
                    "midi": 53,
                    "time": 9.166674,
                    "velocity": 0.30708661417322836,
                    "duration": 0.41666700000000034
                },
                {
                    "name": "A#3",
                    "midi": 58,
                    "time": 9.166674,
                    "velocity": 0.30708661417322836,
                    "duration": 0.41666700000000034
                },
                {
                    "name": "D4",
                    "midi": 62,
                    "time": 9.166674,
                    "velocity": 0.3700787401574803,
                    "duration": 0.41666700000000034
                },
                {
                    "name": "F3",
                    "midi": 53,
                    "time": 9.583341,
                    "velocity": 0.30708661417322836,
                    "duration": 0.41666700000000034
                },
                {
                    "name": "A#3",
                    "midi": 58,
                    "time": 9.583341,
                    "velocity": 0.30708661417322836,
                    "duration": 0.41666700000000034
                },
                {
                    "name": "D4",
                    "midi": 62,
                    "time": 9.583341,
                    "velocity": 0.36220472440944884,
                    "duration": 0.41666700000000034
                },
                {
                    "name": "A#2",
                    "midi": 46,
                    "time": 10.000008000000001,
                    "velocity": 0.28346456692913385,
                    "duration": 0.20833350000000017
                },
                {
                    "name": "D#4",
                    "midi": 63,
                    "time": 10.416675000000001,
                    "velocity": 0.2125984251968504,
                    "duration": 0.41666700000000034
                },
                {
                    "name": "C4",
                    "midi": 60,
                    "time": 10.416675000000001,
                    "velocity": 0.1732283464566929,
                    "duration": 0.41666700000000034
                },
                {
                    "name": "F3",
                    "midi": 53,
                    "time": 10.416675000000001,
                    "velocity": 0.1732283464566929,
                    "duration": 0.41666700000000034
                },
                {
                    "name": "D#4",
                    "midi": 63,
                    "time": 10.833342000000002,
                    "velocity": 0.1968503937007874,
                    "duration": 0.41666700000000034
                },
                {
                    "name": "C4",
                    "midi": 60,
                    "time": 10.833342000000002,
                    "velocity": 0.16535433070866143,
                    "duration": 0.41666700000000034
                },
                {
                    "name": "F3",
                    "midi": 53,
                    "time": 10.833342000000002,
                    "velocity": 0.16535433070866143,
                    "duration": 0.41666700000000034
                },
                {
                    "name": "A#2",
                    "midi": 46,
                    "time": 11.250009000000002,
                    "velocity": 0.2992125984251969,
                    "duration": 0.20833350000000017
                },
                {
                    "name": "D4",
                    "midi": 62,
                    "time": 11.666676000000002,
                    "velocity": 0.2204724409448819,
                    "duration": 0.41666700000000034
                },
                {
                    "name": "A#3",
                    "midi": 58,
                    "time": 11.666676000000002,
                    "velocity": 0.18110236220472442,
                    "duration": 0.41666700000000034
                },
                {
                    "name": "F3",
                    "midi": 53,
                    "time": 11.666676000000002,
                    "velocity": 0.18110236220472442,
                    "duration": 0.41666700000000034
                },
                {
                    "name": "D4",
                    "midi": 62,
                    "time": 12.083343000000003,
                    "velocity": 0.2047244094488189,
                    "duration": 0.41666700000000034
                },
                {
                    "name": "A#3",
                    "midi": 58,
                    "time": 12.083343000000003,
                    "velocity": 0.1732283464566929,
                    "duration": 0.41666700000000034
                },
                {
                    "name": "F3",
                    "midi": 53,
                    "time": 12.083343000000003,
                    "velocity": 0.1732283464566929,
                    "duration": 0.41666700000000034
                },
                {
                    "name": "F2",
                    "midi": 41,
                    "time": 12.500010000000003,
                    "velocity": 0.44881889763779526,
                    "duration": 0.20833350000000017
                },
                {
                    "name": "F3",
                    "midi": 53,
                    "time": 12.916677000000004,
                    "velocity": 0.30708661417322836,
                    "duration": 0.41666700000000034
                },
                {
                    "name": "D#4",
                    "midi": 63,
                    "time": 12.916677000000004,
                    "velocity": 0.3700787401574803,
                    "duration": 0.41666700000000034
                },
                {
                    "name": "F3",
                    "midi": 53,
                    "time": 13.333344000000004,
                    "velocity": 0.30708661417322836,
                    "duration": 0.41666699999999857
                },
                {
                    "name": "A3",
                    "midi": 57,
                    "time": 13.333344000000004,
                    "velocity": 0.30708661417322836,
                    "duration": 0.41666699999999857
                },
                {
                    "name": "D#4",
                    "midi": 63,
                    "time": 13.333344000000004,
                    "velocity": 0.36220472440944884,
                    "duration": 0.41666699999999857
                },
                {
                    "name": "A#2",
                    "midi": 46,
                    "time": 13.750011000000002,
                    "velocity": 0.44881889763779526,
                    "duration": 0.20833350000000017
                },
                {
                    "name": "F3",
                    "midi": 53,
                    "time": 14.166678000000003,
                    "velocity": 0.30708661417322836,
                    "duration": 0.41666700000000034
                },
                {
                    "name": "A#3",
                    "midi": 58,
                    "time": 14.166678000000003,
                    "velocity": 0.30708661417322836,
                    "duration": 0.41666700000000034
                },
                {
                    "name": "D4",
                    "midi": 62,
                    "time": 14.166678000000003,
                    "velocity": 0.3700787401574803,
                    "duration": 0.41666700000000034
                },
                {
                    "name": "F2",
                    "midi": 41,
                    "time": 15.000012000000003,
                    "velocity": 0.5511811023622047,
                    "duration": 0.2083334999999984
                },
                {
                    "name": "D#4",
                    "midi": 63,
                    "time": 15.416679000000002,
                    "velocity": 0.4645669291338583,
                    "duration": 0.41666700000000034
                },
                {
                    "name": "C4",
                    "midi": 60,
                    "time": 15.416679000000002,
                    "velocity": 0.3937007874015748,
                    "duration": 0.41666700000000034
                },
                {
                    "name": "F3",
                    "midi": 53,
                    "time": 15.416679000000002,
                    "velocity": 0.3937007874015748,
                    "duration": 0.41666700000000034
                },
                {
                    "name": "D#4",
                    "midi": 63,
                    "time": 15.833346000000002,
                    "velocity": 0.47244094488188976,
                    "duration": 0.41666700000000034
                },
                {
                    "name": "C4",
                    "midi": 60,
                    "time": 15.833346000000002,
                    "velocity": 0.4015748031496063,
                    "duration": 0.41666700000000034
                },
                {
                    "name": "F3",
                    "midi": 53,
                    "time": 15.833346000000002,
                    "velocity": 0.4015748031496063,
                    "duration": 0.41666700000000034
                },
                {
                    "name": "A#2",
                    "midi": 46,
                    "time": 16.250013000000003,
                    "velocity": 0.5511811023622047,
                    "duration": 0.20833350000000195
                },
                {
                    "name": "D4",
                    "midi": 62,
                    "time": 16.666680000000003,
                    "velocity": 0.4094488188976378,
                    "duration": 0.41666700000000034
                },
                {
                    "name": "A#3",
                    "midi": 58,
                    "time": 16.666680000000003,
                    "velocity": 0.4094488188976378,
                    "duration": 0.41666700000000034
                },
                {
                    "name": "F3",
                    "midi": 53,
                    "time": 16.666680000000003,
                    "velocity": 0.4094488188976378,
                    "duration": 0.41666700000000034
                },
                {
                    "name": "A#2",
                    "midi": 46,
                    "time": 17.083347000000003,
                    "velocity": 0.4881889763779528,
                    "duration": 0.2083334999999984
                },
                {
                    "name": "D#2",
                    "midi": 39,
                    "time": 17.500014,
                    "velocity": 0.5354330708661418,
                    "duration": 0.3385419375000005
                },
                {
                    "name": "D#3",
                    "midi": 51,
                    "time": 17.500014,
                    "velocity": 0.6299212598425197,
                    "duration": 0.3385419375000005
                },
                {
                    "name": "G3",
                    "midi": 55,
                    "time": 17.8385559375,
                    "velocity": 0.4645669291338583,
                    "duration": 0.49479206250000374
                },
                {
                    "name": "A#3",
                    "midi": 58,
                    "time": 17.864597625000002,
                    "velocity": 0.4645669291338583,
                    "duration": 0.4687503750000026
                },
                {
                    "name": "D#4",
                    "midi": 63,
                    "time": 17.890639312500003,
                    "velocity": 0.4645669291338583,
                    "duration": 0.4427086875000015
                },
                {
                    "name": "G4",
                    "midi": 67,
                    "time": 17.916681000000004,
                    "velocity": 0.5511811023622047,
                    "duration": 0.41666700000000034
                },
                {
                    "name": "A#2",
                    "midi": 46,
                    "time": 18.750015,
                    "velocity": 0.33858267716535434,
                    "duration": 0.2083334999999984
                },
                {
                    "name": "D4",
                    "midi": 62,
                    "time": 19.166681999999998,
                    "velocity": 0.2204724409448819,
                    "duration": 0.41666700000000034
                },
                {
                    "name": "A#3",
                    "midi": 58,
                    "time": 19.166681999999998,
                    "velocity": 0.18110236220472442,
                    "duration": 0.41666700000000034
                },
                {
                    "name": "F3",
                    "midi": 53,
                    "time": 19.166681999999998,
                    "velocity": 0.18110236220472442,
                    "duration": 0.41666700000000034
                },
                {
                    "name": "D4",
                    "midi": 62,
                    "time": 19.583349,
                    "velocity": 0.2047244094488189,
                    "duration": 0.41666700000000034
                },
                {
                    "name": "A#3",
                    "midi": 58,
                    "time": 19.583349,
                    "velocity": 0.1732283464566929,
                    "duration": 0.41666700000000034
                },
                {
                    "name": "F3",
                    "midi": 53,
                    "time": 19.583349,
                    "velocity": 0.1732283464566929,
                    "duration": 0.41666700000000034
                },
                {
                    "name": "F2",
                    "midi": 41,
                    "time": 20.000016,
                    "velocity": 0.31496062992125984,
                    "duration": 0.2083334999999984
                },
                {
                    "name": "D#4",
                    "midi": 63,
                    "time": 20.416682999999995,
                    "velocity": 0.2125984251968504,
                    "duration": 0.41666700000000034
                },
                {
                    "name": "C4",
                    "midi": 60,
                    "time": 20.416682999999995,
                    "velocity": 0.1732283464566929,
                    "duration": 0.41666700000000034
                },
                {
                    "name": "F3",
                    "midi": 53,
                    "time": 20.416682999999995,
                    "velocity": 0.1732283464566929,
                    "duration": 0.41666700000000034
                },
                {
                    "name": "D#4",
                    "midi": 63,
                    "time": 20.833349999999996,
                    "velocity": 0.1968503937007874,
                    "duration": 0.41666700000000034
                },
                {
                    "name": "C4",
                    "midi": 60,
                    "time": 20.833349999999996,
                    "velocity": 0.16535433070866143,
                    "duration": 0.41666700000000034
                },
                {
                    "name": "F3",
                    "midi": 53,
                    "time": 20.833349999999996,
                    "velocity": 0.16535433070866143,
                    "duration": 0.41666700000000034
                },
                {
                    "name": "A#2",
                    "midi": 46,
                    "time": 21.250016999999996,
                    "velocity": 0.33858267716535434,
                    "duration": 0.20833350000000195
                },
                {
                    "name": "D4",
                    "midi": 62,
                    "time": 21.666683999999997,
                    "velocity": 0.2204724409448819,
                    "duration": 0.41666700000000034
                },
                {
                    "name": "A#3",
                    "midi": 58,
                    "time": 21.666683999999997,
                    "velocity": 0.18110236220472442,
                    "duration": 0.41666700000000034
                },
                {
                    "name": "F3",
                    "midi": 53,
                    "time": 21.666683999999997,
                    "velocity": 0.18110236220472442,
                    "duration": 0.41666700000000034
                },
                {
                    "name": "D4",
                    "midi": 62,
                    "time": 22.083350999999997,
                    "velocity": 0.2047244094488189,
                    "duration": 0.41666700000000034
                },
                {
                    "name": "A#3",
                    "midi": 58,
                    "time": 22.083350999999997,
                    "velocity": 0.1732283464566929,
                    "duration": 0.41666700000000034
                },
                {
                    "name": "F3",
                    "midi": 53,
                    "time": 22.083350999999997,
                    "velocity": 0.1732283464566929,
                    "duration": 0.41666700000000034
                },
                {
                    "name": "F2",
                    "midi": 41,
                    "time": 22.500017999999997,
                    "velocity": 0.44881889763779526,
                    "duration": 0.20833350000000195
                },
                {
                    "name": "F3",
                    "midi": 53,
                    "time": 22.916684999999998,
                    "velocity": 0.30708661417322836,
                    "duration": 0.41666700000000034
                },
                {
                    "name": "D#4",
                    "midi": 63,
                    "time": 22.916684999999998,
                    "velocity": 0.3700787401574803,
                    "duration": 0.41666700000000034
                },
                {
                    "name": "F3",
                    "midi": 53,
                    "time": 23.333351999999998,
                    "velocity": 0.30708661417322836,
                    "duration": 0.4166669999999968
                },
                {
                    "name": "A3",
                    "midi": 57,
                    "time": 23.333351999999998,
                    "velocity": 0.30708661417322836,
                    "duration": 0.4166669999999968
                },
                {
                    "name": "D#4",
                    "midi": 63,
                    "time": 23.333351999999998,
                    "velocity": 0.36220472440944884,
                    "duration": 0.4166669999999968
                },
                {
                    "name": "A#2",
                    "midi": 46,
                    "time": 23.750018999999995,
                    "velocity": 0.4015748031496063,
                    "duration": 0.20833350000000195
                },
                {
                    "name": "F3",
                    "midi": 53,
                    "time": 24.166685999999995,
                    "velocity": 0.2440944881889764,
                    "duration": 0.41666700000000034
                },
                {
                    "name": "A#3",
                    "midi": 58,
                    "time": 24.166685999999995,
                    "velocity": 0.2440944881889764,
                    "duration": 0.41666700000000034
                },
                {
                    "name": "D4",
                    "midi": 62,
                    "time": 24.166685999999995,
                    "velocity": 0.29133858267716534,
                    "duration": 0.41666700000000034
                },
                {
                    "name": "F3",
                    "midi": 53,
                    "time": 24.583352999999995,
                    "velocity": 0.2440944881889764,
                    "duration": 0.41666700000000034
                },
                {
                    "name": "A#3",
                    "midi": 58,
                    "time": 24.583352999999995,
                    "velocity": 0.2440944881889764,
                    "duration": 0.41666700000000034
                },
                {
                    "name": "D4",
                    "midi": 62,
                    "time": 24.583352999999995,
                    "velocity": 0.28346456692913385,
                    "duration": 0.41666700000000034
                },
                {
                    "name": "A#2",
                    "midi": 46,
                    "time": 25.000019999999996,
                    "velocity": 0.31496062992125984,
                    "duration": 0.2083334999999984
                },
                {
                    "name": "D#4",
                    "midi": 63,
                    "time": 25.416686999999992,
                    "velocity": 0.2125984251968504,
                    "duration": 0.41666700000000034
                },
                {
                    "name": "C4",
                    "midi": 60,
                    "time": 25.416686999999992,
                    "velocity": 0.1732283464566929,
                    "duration": 0.41666700000000034
                },
                {
                    "name": "F3",
                    "midi": 53,
                    "time": 25.416686999999992,
                    "velocity": 0.1732283464566929,
                    "duration": 0.41666700000000034
                },
                {
                    "name": "D#4",
                    "midi": 63,
                    "time": 25.833353999999993,
                    "velocity": 0.1968503937007874,
                    "duration": 0.4166669999999968
                },
                {
                    "name": "C4",
                    "midi": 60,
                    "time": 25.833353999999993,
                    "velocity": 0.16535433070866143,
                    "duration": 0.4166669999999968
                },
                {
                    "name": "F3",
                    "midi": 53,
                    "time": 25.833353999999993,
                    "velocity": 0.16535433070866143,
                    "duration": 0.4166669999999968
                },
                {
                    "name": "A#2",
                    "midi": 46,
                    "time": 26.25002099999999,
                    "velocity": 0.33858267716535434,
                    "duration": 0.20833350000000195
                },
                {
                    "name": "D4",
                    "midi": 62,
                    "time": 26.66668799999999,
                    "velocity": 0.2204724409448819,
                    "duration": 0.41666700000000034
                },
                {
                    "name": "A#3",
                    "midi": 58,
                    "time": 26.66668799999999,
                    "velocity": 0.18110236220472442,
                    "duration": 0.41666700000000034
                },
                {
                    "name": "F3",
                    "midi": 53,
                    "time": 26.66668799999999,
                    "velocity": 0.18110236220472442,
                    "duration": 0.41666700000000034
                },
                {
                    "name": "D4",
                    "midi": 62,
                    "time": 27.08335499999999,
                    "velocity": 0.2047244094488189,
                    "duration": 0.41666700000000034
                },
                {
                    "name": "A#3",
                    "midi": 58,
                    "time": 27.08335499999999,
                    "velocity": 0.1732283464566929,
                    "duration": 0.41666700000000034
                },
                {
                    "name": "F3",
                    "midi": 53,
                    "time": 27.08335499999999,
                    "velocity": 0.1732283464566929,
                    "duration": 0.41666700000000034
                },
                {
                    "name": "F2",
                    "midi": 41,
                    "time": 27.50002199999999,
                    "velocity": 0.44881889763779526,
                    "duration": 0.2083334999999984
                },
                {
                    "name": "F3",
                    "midi": 53,
                    "time": 27.916688999999987,
                    "velocity": 0.30708661417322836,
                    "duration": 0.41666700000000034
                },
                {
                    "name": "D#4",
                    "midi": 63,
                    "time": 27.916688999999987,
                    "velocity": 0.3700787401574803,
                    "duration": 0.41666700000000034
                },
                {
                    "name": "F3",
                    "midi": 53,
                    "time": 28.333355999999988,
                    "velocity": 0.30708661417322836,
                    "duration": 0.4166669999999968
                },
                {
                    "name": "A3",
                    "midi": 57,
                    "time": 28.333355999999988,
                    "velocity": 0.30708661417322836,
                    "duration": 0.4166669999999968
                },
                {
                    "name": "D#4",
                    "midi": 63,
                    "time": 28.333355999999988,
                    "velocity": 0.36220472440944884,
                    "duration": 0.4166669999999968
                },
                {
                    "name": "A#2",
                    "midi": 46,
                    "time": 28.750022999999985,
                    "velocity": 0.44881889763779526,
                    "duration": 0.20833350000000195
                },
                {
                    "name": "F3",
                    "midi": 53,
                    "time": 29.166689999999985,
                    "velocity": 0.30708661417322836,
                    "duration": 0.41666700000000034
                },
                {
                    "name": "A#3",
                    "midi": 58,
                    "time": 29.166689999999985,
                    "velocity": 0.30708661417322836,
                    "duration": 0.41666700000000034
                },
                {
                    "name": "D4",
                    "midi": 62,
                    "time": 29.166689999999985,
                    "velocity": 0.3700787401574803,
                    "duration": 0.41666700000000034
                },
                {
                    "name": "F2",
                    "midi": 41,
                    "time": 30.000023999999986,
                    "velocity": 0.29133858267716534,
                    "duration": 0.41666700000000034
                },
                {
                    "name": "C3",
                    "midi": 48,
                    "time": 30.416690999999986,
                    "velocity": 0.1968503937007874,
                    "duration": 0.41666700000000034
                },
                {
                    "name": "A3",
                    "midi": 57,
                    "time": 30.416690999999986,
                    "velocity": 0.23622047244094488,
                    "duration": 0.41666700000000034
                },
                {
                    "name": "C3",
                    "midi": 48,
                    "time": 30.833357999999986,
                    "velocity": 0.2204724409448819,
                    "duration": 0.41666700000000034
                },
                {
                    "name": "A3",
                    "midi": 57,
                    "time": 30.833357999999986,
                    "velocity": 0.2677165354330709,
                    "duration": 0.41666700000000034
                },
                {
                    "name": "F2",
                    "midi": 41,
                    "time": 31.250024999999987,
                    "velocity": 0.33070866141732286,
                    "duration": 0.41666700000000034
                },
                {
                    "name": "D3",
                    "midi": 50,
                    "time": 31.666691999999987,
                    "velocity": 0.25196850393700787,
                    "duration": 0.41666700000000034
                },
                {
                    "name": "A#3",
                    "midi": 58,
                    "time": 31.666691999999987,
                    "velocity": 0.2992125984251969,
                    "duration": 0.41666700000000034
                },
                {
                    "name": "D3",
                    "midi": 50,
                    "time": 32.08335899999999,
                    "velocity": 0.25984251968503935,
                    "duration": 0.4166669999999968
                },
                {
                    "name": "A#3",
                    "midi": 58,
                    "time": 32.08335899999999,
                    "velocity": 0.30708661417322836,
                    "duration": 0.4166669999999968
                },
                {
                    "name": "F2",
                    "midi": 41,
                    "time": 32.500025999999984,
                    "velocity": 0.33070866141732286,
                    "duration": 0.4166669999999968
                },
                {
                    "name": "C3",
                    "midi": 48,
                    "time": 32.91669299999998,
                    "velocity": 0.25196850393700787,
                    "duration": 0.4166669999999968
                },
                {
                    "name": "A3",
                    "midi": 57,
                    "time": 32.91669299999998,
                    "velocity": 0.2992125984251969,
                    "duration": 0.4166669999999968
                },
                {
                    "name": "C3",
                    "midi": 48,
                    "time": 33.33335999999998,
                    "velocity": 0.25196850393700787,
                    "duration": 0.4166669999999968
                },
                {
                    "name": "A3",
                    "midi": 57,
                    "time": 33.33335999999998,
                    "velocity": 0.2992125984251969,
                    "duration": 0.4166669999999968
                },
                {
                    "name": "F2",
                    "midi": 41,
                    "time": 33.750026999999974,
                    "velocity": 0.30708661417322836,
                    "duration": 0.20833350000000195
                },
                {
                    "name": "D3",
                    "midi": 50,
                    "time": 34.16669399999998,
                    "velocity": 0.2204724409448819,
                    "duration": 0.20833350000000195
                },
                {
                    "name": "A#3",
                    "midi": 58,
                    "time": 34.16669399999998,
                    "velocity": 0.2677165354330709,
                    "duration": 0.20833350000000195
                },
                {
                    "name": "F2",
                    "midi": 41,
                    "time": 34.58336099999998,
                    "velocity": 0.2677165354330709,
                    "duration": 0.20833350000000195
                },
                {
                    "name": "C3",
                    "midi": 48,
                    "time": 35.000027999999986,
                    "velocity": 0.2440944881889764,
                    "duration": 0.20833350000000195
                },
                {
                    "name": "A3",
                    "midi": 57,
                    "time": 35.000027999999986,
                    "velocity": 0.29133858267716534,
                    "duration": 0.20833350000000195
                },
                {
                    "name": "F2",
                    "midi": 41,
                    "time": 35.41669499999999,
                    "velocity": 0.2677165354330709,
                    "duration": 0.20833350000000195
                },
                {
                    "name": "C3",
                    "midi": 48,
                    "time": 35.833361999999994,
                    "velocity": 0.2204724409448819,
                    "duration": 0.20833350000000195
                },
                {
                    "name": "A3",
                    "midi": 57,
                    "time": 35.833361999999994,
                    "velocity": 0.2677165354330709,
                    "duration": 0.20833350000000195
                },
                {
                    "name": "F2",
                    "midi": 41,
                    "time": 36.250029,
                    "velocity": 0.33070866141732286,
                    "duration": 0.20833350000000195
                },
                {
                    "name": "D3",
                    "midi": 50,
                    "time": 36.666696,
                    "velocity": 0.25196850393700787,
                    "duration": 0.20833350000000195
                },
                {
                    "name": "A#3",
                    "midi": 58,
                    "time": 36.666696,
                    "velocity": 0.2992125984251969,
                    "duration": 0.20833350000000195
                },
                {
                    "name": "F2",
                    "midi": 41,
                    "time": 37.083363000000006,
                    "velocity": 0.2677165354330709,
                    "duration": 0.20833350000000195
                },
                {
                    "name": "C3",
                    "midi": 48,
                    "time": 37.50003000000001,
                    "velocity": 0.25196850393700787,
                    "duration": 0.20833350000000195
                },
                {
                    "name": "A3",
                    "midi": 57,
                    "time": 37.50003000000001,
                    "velocity": 0.2992125984251969,
                    "duration": 0.20833350000000195
                },
                {
                    "name": "F2",
                    "midi": 41,
                    "time": 37.91669700000001,
                    "velocity": 0.2677165354330709,
                    "duration": 0.20833350000000195
                },
                {
                    "name": "C3",
                    "midi": 48,
                    "time": 38.33336400000002,
                    "velocity": 0.2992125984251969,
                    "duration": 0.8333339999999936
                },
                {
                    "name": "A3",
                    "midi": 57,
                    "time": 38.33336400000002,
                    "velocity": 0.3543307086614173,
                    "duration": 0.4166669999999968
                },
                {
                    "name": "E3",
                    "midi": 52,
                    "time": 38.750031000000014,
                    "velocity": 0.2992125984251969,
                    "duration": 0.4166669999999968
                },
                {
                    "name": "A#3",
                    "midi": 58,
                    "time": 38.750031000000014,
                    "velocity": 0.3543307086614173,
                    "duration": 0.4166669999999968
                },
                {
                    "name": "F3",
                    "midi": 53,
                    "time": 39.16669800000001,
                    "velocity": 0.2992125984251969,
                    "duration": 0.4166669999999968
                },
                {
                    "name": "A3",
                    "midi": 57,
                    "time": 39.16669800000001,
                    "velocity": 0.3543307086614173,
                    "duration": 0.4166669999999968
                },
                {
                    "name": "F2",
                    "midi": 41,
                    "time": 40.000032000000004,
                    "velocity": 0.5511811023622047,
                    "duration": 0.20833349999999484
                },
                {
                    "name": "D#4",
                    "midi": 63,
                    "time": 40.416699,
                    "velocity": 0.4645669291338583,
                    "duration": 0.4166669999999968
                },
                {
                    "name": "C4",
                    "midi": 60,
                    "time": 40.416699,
                    "velocity": 0.3937007874015748,
                    "duration": 0.4166669999999968
                },
                {
                    "name": "F3",
                    "midi": 53,
                    "time": 40.416699,
                    "velocity": 0.3937007874015748,
                    "duration": 0.4166669999999968
                },
                {
                    "name": "D#4",
                    "midi": 63,
                    "time": 40.833366,
                    "velocity": 0.47244094488188976,
                    "duration": 0.4166669999999968
                },
                {
                    "name": "C4",
                    "midi": 60,
                    "time": 40.833366,
                    "velocity": 0.4015748031496063,
                    "duration": 0.4166669999999968
                },
                {
                    "name": "F3",
                    "midi": 53,
                    "time": 40.833366,
                    "velocity": 0.4015748031496063,
                    "duration": 0.4166669999999968
                },
                {
                    "name": "A#2",
                    "midi": 46,
                    "time": 41.250032999999995,
                    "velocity": 0.5511811023622047,
                    "duration": 0.20833349999999484
                },
                {
                    "name": "D4",
                    "midi": 62,
                    "time": 41.66669999999999,
                    "velocity": 0.4094488188976378,
                    "duration": 0.4166669999999968
                },
                {
                    "name": "A#3",
                    "midi": 58,
                    "time": 41.66669999999999,
                    "velocity": 0.4094488188976378,
                    "duration": 0.4166669999999968
                },
                {
                    "name": "F3",
                    "midi": 53,
                    "time": 41.66669999999999,
                    "velocity": 0.4094488188976378,
                    "duration": 0.4166669999999968
                },
                {
                    "name": "A#2",
                    "midi": 46,
                    "time": 42.08336699999999,
                    "velocity": 0.4881889763779528,
                    "duration": 0.20833350000000195
                },
                {
                    "name": "D#2",
                    "midi": 39,
                    "time": 42.50003399999999,
                    "velocity": 0.5354330708661418,
                    "duration": 0.33854193749999695
                },
                {
                    "name": "D#3",
                    "midi": 51,
                    "time": 42.50003399999999,
                    "velocity": 0.6299212598425197,
                    "duration": 0.33854193749999695
                },
                {
                    "name": "G3",
                    "midi": 55,
                    "time": 42.83857593749999,
                    "velocity": 0.4645669291338583,
                    "duration": 0.4947920624999895
                },
                {
                    "name": "A#3",
                    "midi": 58,
                    "time": 42.86461762499999,
                    "velocity": 0.4645669291338583,
                    "duration": 0.46875037499999195
                },
                {
                    "name": "D#4",
                    "midi": 63,
                    "time": 42.890659312499984,
                    "velocity": 0.4645669291338583,
                    "duration": 0.44270868749999437
                },
                {
                    "name": "G4",
                    "midi": 67,
                    "time": 42.91670099999998,
                    "velocity": 0.5511811023622047,
                    "duration": 0.4166669999999968
                },
                {
                    "name": "A#2",
                    "midi": 46,
                    "time": 43.75003499999998,
                    "velocity": 0.3779527559055118,
                    "duration": 0.20833350000000195
                },
                {
                    "name": "D4",
                    "midi": 62,
                    "time": 44.16670199999999,
                    "velocity": 0.2440944881889764,
                    "duration": 0.4166669999999968
                },
                {
                    "name": "A#3",
                    "midi": 58,
                    "time": 44.16670199999999,
                    "velocity": 0.2125984251968504,
                    "duration": 0.4166669999999968
                },
                {
                    "name": "F3",
                    "midi": 53,
                    "time": 44.16670199999999,
                    "velocity": 0.2125984251968504,
                    "duration": 0.4166669999999968
                },
                {
                    "name": "D4",
                    "midi": 62,
                    "time": 44.58336899999998,
                    "velocity": 0.2283464566929134,
                    "duration": 0.4166669999999968
                },
                {
                    "name": "A#3",
                    "midi": 58,
                    "time": 44.58336899999998,
                    "velocity": 0.1889763779527559,
                    "duration": 0.4166669999999968
                },
                {
                    "name": "F3",
                    "midi": 53,
                    "time": 44.58336899999998,
                    "velocity": 0.1889763779527559,
                    "duration": 0.4166669999999968
                },
                {
                    "name": "F2",
                    "midi": 41,
                    "time": 45.00003599999998,
                    "velocity": 0.3543307086614173,
                    "duration": 0.20833350000000195
                },
                {
                    "name": "D#4",
                    "midi": 63,
                    "time": 45.416702999999984,
                    "velocity": 0.23622047244094488,
                    "duration": 0.4166669999999968
                },
                {
                    "name": "C4",
                    "midi": 60,
                    "time": 45.416702999999984,
                    "velocity": 0.2047244094488189,
                    "duration": 0.4166669999999968
                },
                {
                    "name": "F3",
                    "midi": 53,
                    "time": 45.416702999999984,
                    "velocity": 0.2047244094488189,
                    "duration": 0.4166669999999968
                },
                {
                    "name": "D#4",
                    "midi": 63,
                    "time": 45.83336999999998,
                    "velocity": 0.2204724409448819,
                    "duration": 0.4166669999999968
                },
                {
                    "name": "C4",
                    "midi": 60,
                    "time": 45.83336999999998,
                    "velocity": 0.18110236220472442,
                    "duration": 0.4166669999999968
                },
                {
                    "name": "F3",
                    "midi": 53,
                    "time": 45.83336999999998,
                    "velocity": 0.18110236220472442,
                    "duration": 0.4166669999999968
                },
                {
                    "name": "A#2",
                    "midi": 46,
                    "time": 46.25003699999998,
                    "velocity": 0.3779527559055118,
                    "duration": 0.20833349999999484
                },
                {
                    "name": "D4",
                    "midi": 62,
                    "time": 46.666703999999974,
                    "velocity": 0.2440944881889764,
                    "duration": 0.4166669999999968
                },
                {
                    "name": "A#3",
                    "midi": 58,
                    "time": 46.666703999999974,
                    "velocity": 0.2125984251968504,
                    "duration": 0.4166669999999968
                },
                {
                    "name": "F3",
                    "midi": 53,
                    "time": 46.666703999999974,
                    "velocity": 0.2125984251968504,
                    "duration": 0.4166669999999968
                },
                {
                    "name": "D4",
                    "midi": 62,
                    "time": 47.08337099999997,
                    "velocity": 0.2283464566929134,
                    "duration": 0.4166669999999968
                },
                {
                    "name": "A#3",
                    "midi": 58,
                    "time": 47.08337099999997,
                    "velocity": 0.1889763779527559,
                    "duration": 0.4166669999999968
                },
                {
                    "name": "F3",
                    "midi": 53,
                    "time": 47.08337099999997,
                    "velocity": 0.1889763779527559,
                    "duration": 0.4166669999999968
                },
                {
                    "name": "F2",
                    "midi": 41,
                    "time": 47.50003799999997,
                    "velocity": 0.44881889763779526,
                    "duration": 0.20833350000000195
                },
                {
                    "name": "F3",
                    "midi": 53,
                    "time": 47.91670499999997,
                    "velocity": 0.30708661417322836,
                    "duration": 0.4166669999999968
                },
                {
                    "name": "D#4",
                    "midi": 63,
                    "time": 47.91670499999997,
                    "velocity": 0.3700787401574803,
                    "duration": 0.4166669999999968
                },
                {
                    "name": "F3",
                    "midi": 53,
                    "time": 48.33337199999997,
                    "velocity": 0.30708661417322836,
                    "duration": 0.4166670000000039
                },
                {
                    "name": "A3",
                    "midi": 57,
                    "time": 48.33337199999997,
                    "velocity": 0.30708661417322836,
                    "duration": 0.4166670000000039
                },
                {
                    "name": "D#4",
                    "midi": 63,
                    "time": 48.33337199999997,
                    "velocity": 0.36220472440944884,
                    "duration": 0.4166670000000039
                },
                {
                    "name": "A#2",
                    "midi": 46,
                    "time": 48.75003899999997,
                    "velocity": 0.44881889763779526,
                    "duration": 0.20833349999999484
                },
                {
                    "name": "F3",
                    "midi": 53,
                    "time": 49.16670599999997,
                    "velocity": 0.30708661417322836,
                    "duration": 0.4166669999999968
                },
                {
                    "name": "A#3",
                    "midi": 58,
                    "time": 49.16670599999997,
                    "velocity": 0.30708661417322836,
                    "duration": 0.4166669999999968
                },
                {
                    "name": "D4",
                    "midi": 62,
                    "time": 49.16670599999997,
                    "velocity": 0.3700787401574803,
                    "duration": 0.4166669999999968
                },
                {
                    "name": "F3",
                    "midi": 53,
                    "time": 49.583372999999966,
                    "velocity": 0.30708661417322836,
                    "duration": 0.4166670000000039
                },
                {
                    "name": "A#3",
                    "midi": 58,
                    "time": 49.583372999999966,
                    "velocity": 0.30708661417322836,
                    "duration": 0.4166670000000039
                },
                {
                    "name": "D4",
                    "midi": 62,
                    "time": 49.583372999999966,
                    "velocity": 0.36220472440944884,
                    "duration": 0.4166670000000039
                },
                {
                    "name": "A#2",
                    "midi": 46,
                    "time": 50.00003999999997,
                    "velocity": 0.31496062992125984,
                    "duration": 0.20833350000000195
                },
                {
                    "name": "D#4",
                    "midi": 63,
                    "time": 50.416706999999974,
                    "velocity": 0.2125984251968504,
                    "duration": 0.4166669999999968
                },
                {
                    "name": "C4",
                    "midi": 60,
                    "time": 50.416706999999974,
                    "velocity": 0.1732283464566929,
                    "duration": 0.4166669999999968
                },
                {
                    "name": "F3",
                    "midi": 53,
                    "time": 50.416706999999974,
                    "velocity": 0.1732283464566929,
                    "duration": 0.4166669999999968
                },
                {
                    "name": "D#4",
                    "midi": 63,
                    "time": 50.83337399999997,
                    "velocity": 0.1968503937007874,
                    "duration": 0.4166670000000039
                },
                {
                    "name": "C4",
                    "midi": 60,
                    "time": 50.83337399999997,
                    "velocity": 0.16535433070866143,
                    "duration": 0.4166670000000039
                },
                {
                    "name": "F3",
                    "midi": 53,
                    "time": 50.83337399999997,
                    "velocity": 0.16535433070866143,
                    "duration": 0.4166670000000039
                },
                {
                    "name": "A#2",
                    "midi": 46,
                    "time": 51.250040999999975,
                    "velocity": 0.33858267716535434,
                    "duration": 0.20833349999999484
                },
                {
                    "name": "D4",
                    "midi": 62,
                    "time": 51.66670799999997,
                    "velocity": 0.2204724409448819,
                    "duration": 0.4166669999999968
                },
                {
                    "name": "A#3",
                    "midi": 58,
                    "time": 51.66670799999997,
                    "velocity": 0.18110236220472442,
                    "duration": 0.4166669999999968
                },
                {
                    "name": "F3",
                    "midi": 53,
                    "time": 51.66670799999997,
                    "velocity": 0.18110236220472442,
                    "duration": 0.4166669999999968
                },
                {
                    "name": "D4",
                    "midi": 62,
                    "time": 52.08337499999997,
                    "velocity": 0.2047244094488189,
                    "duration": 0.4166669999999968
                },
                {
                    "name": "A#3",
                    "midi": 58,
                    "time": 52.08337499999997,
                    "velocity": 0.1732283464566929,
                    "duration": 0.4166669999999968
                },
                {
                    "name": "F3",
                    "midi": 53,
                    "time": 52.08337499999997,
                    "velocity": 0.1732283464566929,
                    "duration": 0.4166669999999968
                },
                {
                    "name": "F2",
                    "midi": 41,
                    "time": 52.500041999999965,
                    "velocity": 0.44881889763779526,
                    "duration": 0.20833349999999484
                },
                {
                    "name": "F3",
                    "midi": 53,
                    "time": 52.91670899999996,
                    "velocity": 0.30708661417322836,
                    "duration": 0.4166669999999968
                },
                {
                    "name": "D#4",
                    "midi": 63,
                    "time": 52.91670899999996,
                    "velocity": 0.3700787401574803,
                    "duration": 0.4166669999999968
                },
                {
                    "name": "F3",
                    "midi": 53,
                    "time": 53.33337599999996,
                    "velocity": 0.30708661417322836,
                    "duration": 0.4166670000000039
                },
                {
                    "name": "A3",
                    "midi": 57,
                    "time": 53.33337599999996,
                    "velocity": 0.30708661417322836,
                    "duration": 0.4166670000000039
                },
                {
                    "name": "D#4",
                    "midi": 63,
                    "time": 53.33337599999996,
                    "velocity": 0.36220472440944884,
                    "duration": 0.4166670000000039
                },
                {
                    "name": "A#2",
                    "midi": 46,
                    "time": 53.75004299999996,
                    "velocity": 0.44881889763779526,
                    "duration": 0.20833349999999484
                },
                {
                    "name": "F3",
                    "midi": 53,
                    "time": 54.16670999999996,
                    "velocity": 0.30708661417322836,
                    "duration": 0.4166669999999968
                },
                {
                    "name": "A#3",
                    "midi": 58,
                    "time": 54.16670999999996,
                    "velocity": 0.30708661417322836,
                    "duration": 0.4166669999999968
                },
                {
                    "name": "D4",
                    "midi": 62,
                    "time": 54.16670999999996,
                    "velocity": 0.3700787401574803,
                    "duration": 0.4166669999999968
                },
                {
                    "name": "F2",
                    "midi": 41,
                    "time": 55.00004399999995,
                    "velocity": 0.29133858267716534,
                    "duration": 0.4166669999999968
                },
                {
                    "name": "C3",
                    "midi": 48,
                    "time": 55.41671099999995,
                    "velocity": 0.1968503937007874,
                    "duration": 0.4166669999999968
                },
                {
                    "name": "A3",
                    "midi": 57,
                    "time": 55.41671099999995,
                    "velocity": 0.23622047244094488,
                    "duration": 0.4166669999999968
                },
                {
                    "name": "C3",
                    "midi": 48,
                    "time": 55.833377999999946,
                    "velocity": 0.2204724409448819,
                    "duration": 0.4166669999999968
                },
                {
                    "name": "A3",
                    "midi": 57,
                    "time": 55.833377999999946,
                    "velocity": 0.2677165354330709,
                    "duration": 0.4166669999999968
                },
                {
                    "name": "F2",
                    "midi": 41,
                    "time": 56.25004499999994,
                    "velocity": 0.33070866141732286,
                    "duration": 0.4166669999999968
                },
                {
                    "name": "D3",
                    "midi": 50,
                    "time": 56.66671199999994,
                    "velocity": 0.25196850393700787,
                    "duration": 0.4166669999999968
                },
                {
                    "name": "A#3",
                    "midi": 58,
                    "time": 56.66671199999994,
                    "velocity": 0.2992125984251969,
                    "duration": 0.4166669999999968
                },
                {
                    "name": "D3",
                    "midi": 50,
                    "time": 57.08337899999994,
                    "velocity": 0.25984251968503935,
                    "duration": 0.4166669999999968
                },
                {
                    "name": "A#3",
                    "midi": 58,
                    "time": 57.08337899999994,
                    "velocity": 0.30708661417322836,
                    "duration": 0.4166669999999968
                },
                {
                    "name": "F2",
                    "midi": 41,
                    "time": 57.500045999999934,
                    "velocity": 0.33070866141732286,
                    "duration": 0.4166669999999968
                },
                {
                    "name": "C3",
                    "midi": 48,
                    "time": 57.91671299999993,
                    "velocity": 0.25196850393700787,
                    "duration": 0.4166669999999968
                },
                {
                    "name": "A3",
                    "midi": 57,
                    "time": 57.91671299999993,
                    "velocity": 0.2992125984251969,
                    "duration": 0.4166669999999968
                },
                {
                    "name": "C3",
                    "midi": 48,
                    "time": 58.33337999999993,
                    "velocity": 0.25196850393700787,
                    "duration": 0.4166669999999968
                },
                {
                    "name": "A3",
                    "midi": 57,
                    "time": 58.33337999999993,
                    "velocity": 0.2992125984251969,
                    "duration": 0.4166669999999968
                },
                {
                    "name": "F2",
                    "midi": 41,
                    "time": 58.750046999999924,
                    "velocity": 0.30708661417322836,
                    "duration": 0.20833350000000195
                },
                {
                    "name": "D3",
                    "midi": 50,
                    "time": 59.16671399999993,
                    "velocity": 0.2204724409448819,
                    "duration": 0.20833350000000195
                },
                {
                    "name": "A#3",
                    "midi": 58,
                    "time": 59.16671399999993,
                    "velocity": 0.2677165354330709,
                    "duration": 0.20833350000000195
                },
                {
                    "name": "F2",
                    "midi": 41,
                    "time": 59.58338099999993,
                    "velocity": 0.2677165354330709,
                    "duration": 0.20833350000000195
                },
                {
                    "name": "C3",
                    "midi": 48,
                    "time": 60.000047999999936,
                    "velocity": 0.2440944881889764,
                    "duration": 0.20833350000000195
                },
                {
                    "name": "A3",
                    "midi": 57,
                    "time": 60.000047999999936,
                    "velocity": 0.29133858267716534,
                    "duration": 0.20833350000000195
                },
                {
                    "name": "F2",
                    "midi": 41,
                    "time": 60.41671499999994,
                    "velocity": 0.2677165354330709,
                    "duration": 0.20833350000000195
                },
                {
                    "name": "C3",
                    "midi": 48,
                    "time": 60.83338199999994,
                    "velocity": 0.2204724409448819,
                    "duration": 0.20833350000000195
                },
                {
                    "name": "A3",
                    "midi": 57,
                    "time": 60.83338199999994,
                    "velocity": 0.2677165354330709,
                    "duration": 0.20833350000000195
                },
                {
                    "name": "F2",
                    "midi": 41,
                    "time": 61.25004899999995,
                    "velocity": 0.33070866141732286,
                    "duration": 0.20833350000000195
                },
                {
                    "name": "D3",
                    "midi": 50,
                    "time": 61.66671599999995,
                    "velocity": 0.25196850393700787,
                    "duration": 0.20833350000000195
                },
                {
                    "name": "A#3",
                    "midi": 58,
                    "time": 61.66671599999995,
                    "velocity": 0.2992125984251969,
                    "duration": 0.20833350000000195
                },
                {
                    "name": "F2",
                    "midi": 41,
                    "time": 62.083382999999955,
                    "velocity": 0.2677165354330709,
                    "duration": 0.20833349999999484
                },
                {
                    "name": "C3",
                    "midi": 48,
                    "time": 62.50004999999995,
                    "velocity": 0.25196850393700787,
                    "duration": 0.20833350000000195
                },
                {
                    "name": "A3",
                    "midi": 57,
                    "time": 62.50004999999995,
                    "velocity": 0.2992125984251969,
                    "duration": 0.20833350000000195
                },
                {
                    "name": "F2",
                    "midi": 41,
                    "time": 62.916716999999956,
                    "velocity": 0.2677165354330709,
                    "duration": 0.20833350000000195
                },
                {
                    "name": "C3",
                    "midi": 48,
                    "time": 63.33338399999996,
                    "velocity": 0.2992125984251969,
                    "duration": 0.8333340000000007
                },
                {
                    "name": "A3",
                    "midi": 57,
                    "time": 63.33338399999996,
                    "velocity": 0.3543307086614173,
                    "duration": 0.4166669999999968
                },
                {
                    "name": "E3",
                    "midi": 52,
                    "time": 63.75005099999996,
                    "velocity": 0.2992125984251969,
                    "duration": 0.4166670000000039
                },
                {
                    "name": "A#3",
                    "midi": 58,
                    "time": 63.75005099999996,
                    "velocity": 0.3543307086614173,
                    "duration": 0.4166670000000039
                },
                {
                    "name": "F3",
                    "midi": 53,
                    "time": 64.16671799999996,
                    "velocity": 0.2992125984251969,
                    "duration": 0.4166669999999897
                },
                {
                    "name": "A3",
                    "midi": 57,
                    "time": 64.16671799999996,
                    "velocity": 0.3543307086614173,
                    "duration": 0.4166669999999897
                },
                {
                    "name": "F2",
                    "midi": 41,
                    "time": 65.00005199999995,
                    "velocity": 0.5511811023622047,
                    "duration": 0.20833349999999484
                },
                {
                    "name": "D#4",
                    "midi": 63,
                    "time": 65.41671899999994,
                    "velocity": 0.4645669291338583,
                    "duration": 0.4166670000000039
                },
                {
                    "name": "C4",
                    "midi": 60,
                    "time": 65.41671899999994,
                    "velocity": 0.3937007874015748,
                    "duration": 0.4166670000000039
                },
                {
                    "name": "F3",
                    "midi": 53,
                    "time": 65.41671899999994,
                    "velocity": 0.3937007874015748,
                    "duration": 0.4166670000000039
                },
                {
                    "name": "D#4",
                    "midi": 63,
                    "time": 65.83338599999995,
                    "velocity": 0.47244094488188976,
                    "duration": 0.4166670000000039
                },
                {
                    "name": "C4",
                    "midi": 60,
                    "time": 65.83338599999995,
                    "velocity": 0.4015748031496063,
                    "duration": 0.4166670000000039
                },
                {
                    "name": "F3",
                    "midi": 53,
                    "time": 65.83338599999995,
                    "velocity": 0.4015748031496063,
                    "duration": 0.4166670000000039
                },
                {
                    "name": "A#2",
                    "midi": 46,
                    "time": 66.25005299999995,
                    "velocity": 0.5511811023622047,
                    "duration": 0.20833349999999484
                },
                {
                    "name": "D4",
                    "midi": 62,
                    "time": 66.66671999999994,
                    "velocity": 0.4094488188976378,
                    "duration": 0.4166670000000039
                },
                {
                    "name": "A#3",
                    "midi": 58,
                    "time": 66.66671999999994,
                    "velocity": 0.4094488188976378,
                    "duration": 0.4166670000000039
                },
                {
                    "name": "F3",
                    "midi": 53,
                    "time": 66.66671999999994,
                    "velocity": 0.4094488188976378,
                    "duration": 0.4166670000000039
                },
                {
                    "name": "A#2",
                    "midi": 46,
                    "time": 67.08338699999995,
                    "velocity": 0.4881889763779528,
                    "duration": 0.20833349999999484
                },
                {
                    "name": "D#2",
                    "midi": 39,
                    "time": 67.50005399999993,
                    "velocity": 0.5354330708661418,
                    "duration": 0.33854193750001116
                },
                {
                    "name": "D#3",
                    "midi": 51,
                    "time": 67.50005399999993,
                    "velocity": 0.6299212598425197,
                    "duration": 0.33854193750001116
                },
                {
                    "name": "G3",
                    "midi": 55,
                    "time": 67.83859593749995,
                    "velocity": 0.4645669291338583,
                    "duration": 0.49479206249999663
                },
                {
                    "name": "A#3",
                    "midi": 58,
                    "time": 67.86463762499994,
                    "velocity": 0.4645669291338583,
                    "duration": 0.46875037499999905
                },
                {
                    "name": "D#4",
                    "midi": 63,
                    "time": 67.89067931249994,
                    "velocity": 0.4645669291338583,
                    "duration": 0.4427086875000015
                },
                {
                    "name": "G4",
                    "midi": 67,
                    "time": 67.91672099999994,
                    "velocity": 0.5511811023622047,
                    "duration": 0.4166670000000039
                },
                {
                    "name": "A#2",
                    "midi": 46,
                    "time": 68.75005499999995,
                    "velocity": 0.3779527559055118,
                    "duration": 0.20833349999999484
                },
                {
                    "name": "D4",
                    "midi": 62,
                    "time": 69.16672199999994,
                    "velocity": 0.2440944881889764,
                    "duration": 0.4166670000000039
                },
                {
                    "name": "A#3",
                    "midi": 58,
                    "time": 69.16672199999994,
                    "velocity": 0.2125984251968504,
                    "duration": 0.4166670000000039
                },
                {
                    "name": "F3",
                    "midi": 53,
                    "time": 69.16672199999994,
                    "velocity": 0.2125984251968504,
                    "duration": 0.4166670000000039
                },
                {
                    "name": "D4",
                    "midi": 62,
                    "time": 69.58338899999994,
                    "velocity": 0.2283464566929134,
                    "duration": 0.4166670000000039
                },
                {
                    "name": "A#3",
                    "midi": 58,
                    "time": 69.58338899999994,
                    "velocity": 0.1889763779527559,
                    "duration": 0.4166670000000039
                },
                {
                    "name": "F3",
                    "midi": 53,
                    "time": 69.58338899999994,
                    "velocity": 0.1889763779527559,
                    "duration": 0.4166670000000039
                },
                {
                    "name": "F2",
                    "midi": 41,
                    "time": 70.00005599999994,
                    "velocity": 0.3543307086614173,
                    "duration": 0.20833349999999484
                },
                {
                    "name": "D#4",
                    "midi": 63,
                    "time": 70.41672299999993,
                    "velocity": 0.23622047244094488,
                    "duration": 0.4166670000000039
                },
                {
                    "name": "C4",
                    "midi": 60,
                    "time": 70.41672299999993,
                    "velocity": 0.2047244094488189,
                    "duration": 0.4166670000000039
                },
                {
                    "name": "F3",
                    "midi": 53,
                    "time": 70.41672299999993,
                    "velocity": 0.2047244094488189,
                    "duration": 0.4166670000000039
                },
                {
                    "name": "D#4",
                    "midi": 63,
                    "time": 70.83338999999994,
                    "velocity": 0.2204724409448819,
                    "duration": 0.4166670000000039
                },
                {
                    "name": "C4",
                    "midi": 60,
                    "time": 70.83338999999994,
                    "velocity": 0.18110236220472442,
                    "duration": 0.4166670000000039
                },
                {
                    "name": "F3",
                    "midi": 53,
                    "time": 70.83338999999994,
                    "velocity": 0.18110236220472442,
                    "duration": 0.4166670000000039
                },
                {
                    "name": "A#2",
                    "midi": 46,
                    "time": 71.25005699999994,
                    "velocity": 0.3779527559055118,
                    "duration": 0.20833349999999484
                },
                {
                    "name": "D4",
                    "midi": 62,
                    "time": 71.66672399999993,
                    "velocity": 0.2440944881889764,
                    "duration": 0.4166670000000039
                },
                {
                    "name": "A#3",
                    "midi": 58,
                    "time": 71.66672399999993,
                    "velocity": 0.2125984251968504,
                    "duration": 0.4166670000000039
                },
                {
                    "name": "F3",
                    "midi": 53,
                    "time": 71.66672399999993,
                    "velocity": 0.2125984251968504,
                    "duration": 0.4166670000000039
                },
                {
                    "name": "D4",
                    "midi": 62,
                    "time": 72.08339099999993,
                    "velocity": 0.2283464566929134,
                    "duration": 0.4166670000000039
                },
                {
                    "name": "A#3",
                    "midi": 58,
                    "time": 72.08339099999993,
                    "velocity": 0.1889763779527559,
                    "duration": 0.4166670000000039
                },
                {
                    "name": "F3",
                    "midi": 53,
                    "time": 72.08339099999993,
                    "velocity": 0.1889763779527559,
                    "duration": 0.4166670000000039
                },
                {
                    "name": "F2",
                    "midi": 41,
                    "time": 72.50005799999994,
                    "velocity": 0.44881889763779526,
                    "duration": 0.20833349999999484
                },
                {
                    "name": "F3",
                    "midi": 53,
                    "time": 72.91672499999993,
                    "velocity": 0.30708661417322836,
                    "duration": 0.4166670000000039
                },
                {
                    "name": "D#4",
                    "midi": 63,
                    "time": 72.91672499999993,
                    "velocity": 0.3700787401574803,
                    "duration": 0.4166670000000039
                },
                {
                    "name": "F3",
                    "midi": 53,
                    "time": 73.33339199999993,
                    "velocity": 0.30708661417322836,
                    "duration": 0.4166669999999897
                },
                {
                    "name": "A3",
                    "midi": 57,
                    "time": 73.33339199999993,
                    "velocity": 0.30708661417322836,
                    "duration": 0.4166669999999897
                },
                {
                    "name": "D#4",
                    "midi": 63,
                    "time": 73.33339199999993,
                    "velocity": 0.36220472440944884,
                    "duration": 0.4166669999999897
                },
                {
                    "name": "A#2",
                    "midi": 46,
                    "time": 73.75005899999992,
                    "velocity": 0.4015748031496063,
                    "duration": 0.20833350000000905
                },
                {
                    "name": "F3",
                    "midi": 53,
                    "time": 74.16672599999993,
                    "velocity": 0.2440944881889764,
                    "duration": 0.4166670000000039
                },
                {
                    "name": "A#3",
                    "midi": 58,
                    "time": 74.16672599999993,
                    "velocity": 0.2440944881889764,
                    "duration": 0.4166670000000039
                },
                {
                    "name": "D4",
                    "midi": 62,
                    "time": 74.16672599999993,
                    "velocity": 0.29133858267716534,
                    "duration": 0.4166670000000039
                },
                {
                    "name": "F3",
                    "midi": 53,
                    "time": 74.58339299999993,
                    "velocity": 0.2440944881889764,
                    "duration": 0.4166670000000039
                },
                {
                    "name": "A#3",
                    "midi": 58,
                    "time": 74.58339299999993,
                    "velocity": 0.2440944881889764,
                    "duration": 0.4166670000000039
                },
                {
                    "name": "D4",
                    "midi": 62,
                    "time": 74.58339299999993,
                    "velocity": 0.28346456692913385,
                    "duration": 0.4166670000000039
                },
                {
                    "name": "A#2",
                    "midi": 46,
                    "time": 75.00005999999993,
                    "velocity": 0.31496062992125984,
                    "duration": 0.20833349999999484
                },
                {
                    "name": "D#4",
                    "midi": 63,
                    "time": 75.41672699999992,
                    "velocity": 0.2125984251968504,
                    "duration": 0.4166670000000039
                },
                {
                    "name": "C4",
                    "midi": 60,
                    "time": 75.41672699999992,
                    "velocity": 0.1732283464566929,
                    "duration": 0.4166670000000039
                },
                {
                    "name": "F3",
                    "midi": 53,
                    "time": 75.41672699999992,
                    "velocity": 0.1732283464566929,
                    "duration": 0.4166670000000039
                },
                {
                    "name": "D#4",
                    "midi": 63,
                    "time": 75.83339399999993,
                    "velocity": 0.1968503937007874,
                    "duration": 0.4166670000000039
                },
                {
                    "name": "C4",
                    "midi": 60,
                    "time": 75.83339399999993,
                    "velocity": 0.16535433070866143,
                    "duration": 0.4166670000000039
                },
                {
                    "name": "F3",
                    "midi": 53,
                    "time": 75.83339399999993,
                    "velocity": 0.16535433070866143,
                    "duration": 0.4166670000000039
                },
                {
                    "name": "A#2",
                    "midi": 46,
                    "time": 76.25006099999993,
                    "velocity": 0.33858267716535434,
                    "duration": 0.20833349999999484
                },
                {
                    "name": "D4",
                    "midi": 62,
                    "time": 76.66672799999992,
                    "velocity": 0.2204724409448819,
                    "duration": 0.4166670000000039
                },
                {
                    "name": "A#3",
                    "midi": 58,
                    "time": 76.66672799999992,
                    "velocity": 0.18110236220472442,
                    "duration": 0.4166670000000039
                },
                {
                    "name": "F3",
                    "midi": 53,
                    "time": 76.66672799999992,
                    "velocity": 0.18110236220472442,
                    "duration": 0.4166670000000039
                },
                {
                    "name": "D4",
                    "midi": 62,
                    "time": 77.08339499999992,
                    "velocity": 0.2047244094488189,
                    "duration": 0.4166670000000039
                },
                {
                    "name": "A#3",
                    "midi": 58,
                    "time": 77.08339499999992,
                    "velocity": 0.1732283464566929,
                    "duration": 0.4166670000000039
                },
                {
                    "name": "F3",
                    "midi": 53,
                    "time": 77.08339499999992,
                    "velocity": 0.1732283464566929,
                    "duration": 0.4166670000000039
                },
                {
                    "name": "F2",
                    "midi": 41,
                    "time": 77.50006199999993,
                    "velocity": 0.44881889763779526,
                    "duration": 0.20833349999999484
                },
                {
                    "name": "F3",
                    "midi": 53,
                    "time": 77.91672899999992,
                    "velocity": 0.30708661417322836,
                    "duration": 0.4166670000000039
                },
                {
                    "name": "D#4",
                    "midi": 63,
                    "time": 77.91672899999992,
                    "velocity": 0.3700787401574803,
                    "duration": 0.4166670000000039
                },
                {
                    "name": "F3",
                    "midi": 53,
                    "time": 78.33339599999992,
                    "velocity": 0.30708661417322836,
                    "duration": 0.4166670000000039
                },
                {
                    "name": "A3",
                    "midi": 57,
                    "time": 78.33339599999992,
                    "velocity": 0.30708661417322836,
                    "duration": 0.4166670000000039
                },
                {
                    "name": "D#4",
                    "midi": 63,
                    "time": 78.33339599999992,
                    "velocity": 0.36220472440944884,
                    "duration": 0.4166670000000039
                },
                {
                    "name": "A#2",
                    "midi": 46,
                    "time": 78.75006299999993,
                    "velocity": 0.44881889763779526,
                    "duration": 0.20833349999999484
                },
                {
                    "name": "F3",
                    "midi": 53,
                    "time": 79.16672999999992,
                    "velocity": 0.30708661417322836,
                    "duration": 0.4166670000000039
                },
                {
                    "name": "A#3",
                    "midi": 58,
                    "time": 79.16672999999992,
                    "velocity": 0.30708661417322836,
                    "duration": 0.4166670000000039
                },
                {
                    "name": "D4",
                    "midi": 62,
                    "time": 79.16672999999992,
                    "velocity": 0.3700787401574803,
                    "duration": 0.4166670000000039
                },
                {
                    "name": "A#2",
                    "midi": 46,
                    "time": 79.58339699999992,
                    "velocity": 0.3858267716535433,
                    "duration": 0.4166669999999897
                },
                {
                    "name": "F#2",
                    "midi": 42,
                    "time": 80.00006399999991,
                    "velocity": 0.1732283464566929,
                    "duration": 0.4166670000000039
                },
                {
                    "name": "C#3",
                    "midi": 49,
                    "time": 80.00006399999991,
                    "velocity": 0.2047244094488189,
                    "duration": 0.4166670000000039
                },
                {
                    "name": "F#2",
                    "midi": 42,
                    "time": 80.41673099999991,
                    "velocity": 0.15748031496062992,
                    "duration": 0.4166670000000039
                },
                {
                    "name": "C#3",
                    "midi": 49,
                    "time": 80.41673099999991,
                    "velocity": 0.18110236220472442,
                    "duration": 0.4166670000000039
                },
                {
                    "name": "F#2",
                    "midi": 42,
                    "time": 80.83339799999992,
                    "velocity": 0.15748031496062992,
                    "duration": 0.4166670000000039
                },
                {
                    "name": "C#3",
                    "midi": 49,
                    "time": 80.83339799999992,
                    "velocity": 0.18110236220472442,
                    "duration": 0.4166670000000039
                },
                {
                    "name": "F#2",
                    "midi": 42,
                    "time": 81.25006499999992,
                    "velocity": 0.1732283464566929,
                    "duration": 0.4166669999999897
                },
                {
                    "name": "C#3",
                    "midi": 49,
                    "time": 81.25006499999992,
                    "velocity": 0.2047244094488189,
                    "duration": 0.4166669999999897
                },
                {
                    "name": "F#2",
                    "midi": 42,
                    "time": 81.66673199999991,
                    "velocity": 0.15748031496062992,
                    "duration": 0.4166670000000039
                },
                {
                    "name": "C#3",
                    "midi": 49,
                    "time": 81.66673199999991,
                    "velocity": 0.18110236220472442,
                    "duration": 0.4166670000000039
                },
                {
                    "name": "F#2",
                    "midi": 42,
                    "time": 82.08339899999991,
                    "velocity": 0.15748031496062992,
                    "duration": 0.4166670000000039
                },
                {
                    "name": "C#3",
                    "midi": 49,
                    "time": 82.08339899999991,
                    "velocity": 0.18110236220472442,
                    "duration": 0.4166670000000039
                },
                {
                    "name": "F#2",
                    "midi": 42,
                    "time": 82.50006599999992,
                    "velocity": 0.1732283464566929,
                    "duration": 0.4166669999999897
                },
                {
                    "name": "C#3",
                    "midi": 49,
                    "time": 82.50006599999992,
                    "velocity": 0.2047244094488189,
                    "duration": 0.4166669999999897
                },
                {
                    "name": "F#2",
                    "midi": 42,
                    "time": 82.91673299999991,
                    "velocity": 0.15748031496062992,
                    "duration": 0.4166670000000039
                },
                {
                    "name": "C#3",
                    "midi": 49,
                    "time": 82.91673299999991,
                    "velocity": 0.18110236220472442,
                    "duration": 0.4166670000000039
                },
                {
                    "name": "F#2",
                    "midi": 42,
                    "time": 83.33339999999991,
                    "velocity": 0.15748031496062992,
                    "duration": 0.4166670000000039
                },
                {
                    "name": "C#3",
                    "midi": 49,
                    "time": 83.33339999999991,
                    "velocity": 0.18110236220472442,
                    "duration": 0.4166670000000039
                },
                {
                    "name": "F#2",
                    "midi": 42,
                    "time": 83.75006699999992,
                    "velocity": 0.1732283464566929,
                    "duration": 0.4166669999999897
                },
                {
                    "name": "C#3",
                    "midi": 49,
                    "time": 83.75006699999992,
                    "velocity": 0.2047244094488189,
                    "duration": 0.4166669999999897
                },
                {
                    "name": "F#2",
                    "midi": 42,
                    "time": 84.1667339999999,
                    "velocity": 0.15748031496062992,
                    "duration": 0.4166670000000039
                },
                {
                    "name": "C#3",
                    "midi": 49,
                    "time": 84.1667339999999,
                    "velocity": 0.18110236220472442,
                    "duration": 0.4166670000000039
                },
                {
                    "name": "F#2",
                    "midi": 42,
                    "time": 84.58340099999991,
                    "velocity": 0.15748031496062992,
                    "duration": 0.4166670000000039
                },
                {
                    "name": "C#3",
                    "midi": 49,
                    "time": 84.58340099999991,
                    "velocity": 0.18110236220472442,
                    "duration": 0.4166670000000039
                },
                {
                    "name": "F#2",
                    "midi": 42,
                    "time": 85.00006799999991,
                    "velocity": 0.1732283464566929,
                    "duration": 0.4166670000000039
                },
                {
                    "name": "C#3",
                    "midi": 49,
                    "time": 85.00006799999991,
                    "velocity": 0.2047244094488189,
                    "duration": 0.4166670000000039
                },
                {
                    "name": "F#2",
                    "midi": 42,
                    "time": 85.41673499999992,
                    "velocity": 0.15748031496062992,
                    "duration": 0.4166670000000039
                },
                {
                    "name": "C#3",
                    "midi": 49,
                    "time": 85.41673499999992,
                    "velocity": 0.18110236220472442,
                    "duration": 0.4166670000000039
                },
                {
                    "name": "F#2",
                    "midi": 42,
                    "time": 85.83340199999992,
                    "velocity": 0.15748031496062992,
                    "duration": 0.4166670000000039
                },
                {
                    "name": "C#3",
                    "midi": 49,
                    "time": 85.83340199999992,
                    "velocity": 0.18110236220472442,
                    "duration": 0.4166670000000039
                },
                {
                    "name": "F#2",
                    "midi": 42,
                    "time": 86.25006899999993,
                    "velocity": 0.1732283464566929,
                    "duration": 0.4166669999999897
                },
                {
                    "name": "C#3",
                    "midi": 49,
                    "time": 86.25006899999993,
                    "velocity": 0.2047244094488189,
                    "duration": 0.4166669999999897
                },
                {
                    "name": "F#2",
                    "midi": 42,
                    "time": 86.66673599999991,
                    "velocity": 0.15748031496062992,
                    "duration": 0.4166670000000039
                },
                {
                    "name": "C#3",
                    "midi": 49,
                    "time": 86.66673599999991,
                    "velocity": 0.18110236220472442,
                    "duration": 0.4166670000000039
                },
                {
                    "name": "F#2",
                    "midi": 42,
                    "time": 87.08340299999992,
                    "velocity": 0.15748031496062992,
                    "duration": 0.4166670000000039
                },
                {
                    "name": "C#3",
                    "midi": 49,
                    "time": 87.08340299999992,
                    "velocity": 0.18110236220472442,
                    "duration": 0.4166670000000039
                },
                {
                    "name": "F#2",
                    "midi": 42,
                    "time": 87.50006999999992,
                    "velocity": 0.1732283464566929,
                    "duration": 0.4166670000000181
                },
                {
                    "name": "C#3",
                    "midi": 49,
                    "time": 87.50006999999992,
                    "velocity": 0.2047244094488189,
                    "duration": 0.4166670000000181
                },
                {
                    "name": "F#2",
                    "midi": 42,
                    "time": 87.91673699999994,
                    "velocity": 0.15748031496062992,
                    "duration": 0.4166670000000039
                },
                {
                    "name": "C#3",
                    "midi": 49,
                    "time": 87.91673699999994,
                    "velocity": 0.18110236220472442,
                    "duration": 0.4166670000000039
                },
                {
                    "name": "F#2",
                    "midi": 42,
                    "time": 88.33340399999994,
                    "velocity": 0.15748031496062992,
                    "duration": 0.4166670000000039
                },
                {
                    "name": "C#3",
                    "midi": 49,
                    "time": 88.33340399999994,
                    "velocity": 0.18110236220472442,
                    "duration": 0.4166670000000039
                },
                {
                    "name": "F2",
                    "midi": 41,
                    "time": 88.75007099999995,
                    "velocity": 0.1732283464566929,
                    "duration": 1.2500009999999833
                },
                {
                    "name": "C#3",
                    "midi": 49,
                    "time": 88.75007099999995,
                    "velocity": 0.2047244094488189,
                    "duration": 0.4166669999999897
                },
                {
                    "name": "C3",
                    "midi": 48,
                    "time": 89.16673799999994,
                    "velocity": 0.18110236220472442,
                    "duration": 0.8333339999999936
                },
                {
                    "name": "F2",
                    "midi": 41,
                    "time": 90.00007199999993,
                    "velocity": 0.5511811023622047,
                    "duration": 0.20833350000000905
                },
                {
                    "name": "D#4",
                    "midi": 63,
                    "time": 90.41673899999994,
                    "velocity": 0.4645669291338583,
                    "duration": 0.4166670000000039
                },
                {
                    "name": "C4",
                    "midi": 60,
                    "time": 90.41673899999994,
                    "velocity": 0.3937007874015748,
                    "duration": 0.4166670000000039
                },
                {
                    "name": "F3",
                    "midi": 53,
                    "time": 90.41673899999994,
                    "velocity": 0.3937007874015748,
                    "duration": 0.4166670000000039
                },
                {
                    "name": "D#4",
                    "midi": 63,
                    "time": 90.83340599999994,
                    "velocity": 0.47244094488188976,
                    "duration": 0.4166670000000039
                },
                {
                    "name": "C4",
                    "midi": 60,
                    "time": 90.83340599999994,
                    "velocity": 0.4015748031496063,
                    "duration": 0.4166670000000039
                },
                {
                    "name": "F3",
                    "midi": 53,
                    "time": 90.83340599999994,
                    "velocity": 0.4015748031496063,
                    "duration": 0.4166670000000039
                },
                {
                    "name": "A#2",
                    "midi": 46,
                    "time": 91.25007299999994,
                    "velocity": 0.5511811023622047,
                    "duration": 0.20833350000000905
                },
                {
                    "name": "D4",
                    "midi": 62,
                    "time": 91.66673999999995,
                    "velocity": 0.4094488188976378,
                    "duration": 0.4166670000000039
                },
                {
                    "name": "A#3",
                    "midi": 58,
                    "time": 91.66673999999995,
                    "velocity": 0.4094488188976378,
                    "duration": 0.4166670000000039
                },
                {
                    "name": "F3",
                    "midi": 53,
                    "time": 91.66673999999995,
                    "velocity": 0.4094488188976378,
                    "duration": 0.4166670000000039
                },
                {
                    "name": "A#2",
                    "midi": 46,
                    "time": 92.08340699999995,
                    "velocity": 0.4881889763779528,
                    "duration": 0.20833349999999484
                },
                {
                    "name": "D#2",
                    "midi": 39,
                    "time": 92.50007399999994,
                    "velocity": 0.5354330708661418,
                    "duration": 0.33854193749999695
                },
                {
                    "name": "D#3",
                    "midi": 51,
                    "time": 92.50007399999994,
                    "velocity": 0.6299212598425197,
                    "duration": 0.33854193749999695
                },
                {
                    "name": "G3",
                    "midi": 55,
                    "time": 92.83861593749994,
                    "velocity": 0.4645669291338583,
                    "duration": 0.49479206249999663
                },
                {
                    "name": "A#3",
                    "midi": 58,
                    "time": 92.86465762499994,
                    "velocity": 0.4645669291338583,
                    "duration": 0.46875037499999905
                },
                {
                    "name": "D#4",
                    "midi": 63,
                    "time": 92.89069931249993,
                    "velocity": 0.4645669291338583,
                    "duration": 0.4427086875000015
                },
                {
                    "name": "G4",
                    "midi": 67,
                    "time": 92.91674099999993,
                    "velocity": 0.5511811023622047,
                    "duration": 0.4166670000000039
                },
                {
                    "name": "A#2",
                    "midi": 46,
                    "time": 93.75007499999994,
                    "velocity": 0.3779527559055118,
                    "duration": 0.20833349999999484
                },
                {
                    "name": "D4",
                    "midi": 62,
                    "time": 94.16674199999993,
                    "velocity": 0.2440944881889764,
                    "duration": 0.4166670000000039
                },
                {
                    "name": "A#3",
                    "midi": 58,
                    "time": 94.16674199999993,
                    "velocity": 0.2125984251968504,
                    "duration": 0.4166670000000039
                },
                {
                    "name": "F3",
                    "midi": 53,
                    "time": 94.16674199999993,
                    "velocity": 0.2125984251968504,
                    "duration": 0.4166670000000039
                },
                {
                    "name": "D4",
                    "midi": 62,
                    "time": 94.58340899999993,
                    "velocity": 0.2283464566929134,
                    "duration": 0.4166670000000039
                },
                {
                    "name": "A#3",
                    "midi": 58,
                    "time": 94.58340899999993,
                    "velocity": 0.1889763779527559,
                    "duration": 0.4166670000000039
                },
                {
                    "name": "F3",
                    "midi": 53,
                    "time": 94.58340899999993,
                    "velocity": 0.1889763779527559,
                    "duration": 0.4166670000000039
                },
                {
                    "name": "F2",
                    "midi": 41,
                    "time": 95.00007599999994,
                    "velocity": 0.3543307086614173,
                    "duration": 0.20833349999999484
                },
                {
                    "name": "D#4",
                    "midi": 63,
                    "time": 95.41674299999993,
                    "velocity": 0.23622047244094488,
                    "duration": 0.4166670000000039
                },
                {
                    "name": "C4",
                    "midi": 60,
                    "time": 95.41674299999993,
                    "velocity": 0.2047244094488189,
                    "duration": 0.4166670000000039
                },
                {
                    "name": "F3",
                    "midi": 53,
                    "time": 95.41674299999993,
                    "velocity": 0.2047244094488189,
                    "duration": 0.4166670000000039
                },
                {
                    "name": "D#4",
                    "midi": 63,
                    "time": 95.83340999999993,
                    "velocity": 0.2204724409448819,
                    "duration": 0.4166670000000039
                },
                {
                    "name": "C4",
                    "midi": 60,
                    "time": 95.83340999999993,
                    "velocity": 0.18110236220472442,
                    "duration": 0.4166670000000039
                },
                {
                    "name": "F3",
                    "midi": 53,
                    "time": 95.83340999999993,
                    "velocity": 0.18110236220472442,
                    "duration": 0.4166670000000039
                },
                {
                    "name": "A#2",
                    "midi": 46,
                    "time": 96.25007699999993,
                    "velocity": 0.3779527559055118,
                    "duration": 0.20833349999999484
                },
                {
                    "name": "D4",
                    "midi": 62,
                    "time": 96.66674399999992,
                    "velocity": 0.2440944881889764,
                    "duration": 0.4166670000000039
                },
                {
                    "name": "A#3",
                    "midi": 58,
                    "time": 96.66674399999992,
                    "velocity": 0.2125984251968504,
                    "duration": 0.4166670000000039
                },
                {
                    "name": "F3",
                    "midi": 53,
                    "time": 96.66674399999992,
                    "velocity": 0.2125984251968504,
                    "duration": 0.4166670000000039
                },
                {
                    "name": "D4",
                    "midi": 62,
                    "time": 97.08341099999993,
                    "velocity": 0.2283464566929134,
                    "duration": 0.4166670000000039
                },
                {
                    "name": "A#3",
                    "midi": 58,
                    "time": 97.08341099999993,
                    "velocity": 0.1889763779527559,
                    "duration": 0.4166670000000039
                },
                {
                    "name": "F3",
                    "midi": 53,
                    "time": 97.08341099999993,
                    "velocity": 0.1889763779527559,
                    "duration": 0.4166670000000039
                },
                {
                    "name": "F2",
                    "midi": 41,
                    "time": 97.50007799999993,
                    "velocity": 0.44881889763779526,
                    "duration": 0.20833350000000905
                },
                {
                    "name": "F3",
                    "midi": 53,
                    "time": 97.91674499999993,
                    "velocity": 0.30708661417322836,
                    "duration": 0.4166670000000039
                },
                {
                    "name": "D#4",
                    "midi": 63,
                    "time": 97.91674499999993,
                    "velocity": 0.3700787401574803,
                    "duration": 0.4166670000000039
                },
                {
                    "name": "F3",
                    "midi": 53,
                    "time": 98.33341199999994,
                    "velocity": 0.30708661417322836,
                    "duration": 0.4166670000000039
                },
                {
                    "name": "A3",
                    "midi": 57,
                    "time": 98.33341199999994,
                    "velocity": 0.30708661417322836,
                    "duration": 0.4166670000000039
                },
                {
                    "name": "D#4",
                    "midi": 63,
                    "time": 98.33341199999994,
                    "velocity": 0.36220472440944884,
                    "duration": 0.4166670000000039
                },
                {
                    "name": "A#2",
                    "midi": 46,
                    "time": 98.75007899999994,
                    "velocity": 0.44881889763779526,
                    "duration": 0.20833350000000905
                },
                {
                    "name": "F3",
                    "midi": 53,
                    "time": 99.16674599999995,
                    "velocity": 0.30708661417322836,
                    "duration": 0.4166670000000039
                },
                {
                    "name": "A#3",
                    "midi": 58,
                    "time": 99.16674599999995,
                    "velocity": 0.30708661417322836,
                    "duration": 0.4166670000000039
                },
                {
                    "name": "D4",
                    "midi": 62,
                    "time": 99.16674599999995,
                    "velocity": 0.3700787401574803,
                    "duration": 0.4166670000000039
                },
                {
                    "name": "F3",
                    "midi": 53,
                    "time": 99.58341299999995,
                    "velocity": 0.30708661417322836,
                    "duration": 0.4166670000000039
                },
                {
                    "name": "A#3",
                    "midi": 58,
                    "time": 99.58341299999995,
                    "velocity": 0.30708661417322836,
                    "duration": 0.4166670000000039
                },
                {
                    "name": "D4",
                    "midi": 62,
                    "time": 99.58341299999995,
                    "velocity": 0.36220472440944884,
                    "duration": 0.4166670000000039
                },
                {
                    "name": "A#2",
                    "midi": 46,
                    "time": 100.00007999999995,
                    "velocity": 0.31496062992125984,
                    "duration": 0.20833349999999484
                },
                {
                    "name": "D#4",
                    "midi": 63,
                    "time": 100.41674699999994,
                    "velocity": 0.2125984251968504,
                    "duration": 0.4166670000000039
                },
                {
                    "name": "C4",
                    "midi": 60,
                    "time": 100.41674699999994,
                    "velocity": 0.1732283464566929,
                    "duration": 0.4166670000000039
                },
                {
                    "name": "F3",
                    "midi": 53,
                    "time": 100.41674699999994,
                    "velocity": 0.1732283464566929,
                    "duration": 0.4166670000000039
                },
                {
                    "name": "D#4",
                    "midi": 63,
                    "time": 100.83341399999995,
                    "velocity": 0.1968503937007874,
                    "duration": 0.4166670000000039
                },
                {
                    "name": "C4",
                    "midi": 60,
                    "time": 100.83341399999995,
                    "velocity": 0.16535433070866143,
                    "duration": 0.4166670000000039
                },
                {
                    "name": "F3",
                    "midi": 53,
                    "time": 100.83341399999995,
                    "velocity": 0.16535433070866143,
                    "duration": 0.4166670000000039
                },
                {
                    "name": "A#2",
                    "midi": 46,
                    "time": 101.25008099999995,
                    "velocity": 0.33858267716535434,
                    "duration": 0.20833349999999484
                },
                {
                    "name": "D4",
                    "midi": 62,
                    "time": 101.66674799999994,
                    "velocity": 0.2204724409448819,
                    "duration": 0.4166670000000039
                },
                {
                    "name": "A#3",
                    "midi": 58,
                    "time": 101.66674799999994,
                    "velocity": 0.18110236220472442,
                    "duration": 0.4166670000000039
                },
                {
                    "name": "F3",
                    "midi": 53,
                    "time": 101.66674799999994,
                    "velocity": 0.18110236220472442,
                    "duration": 0.4166670000000039
                },
                {
                    "name": "D4",
                    "midi": 62,
                    "time": 102.08341499999995,
                    "velocity": 0.2047244094488189,
                    "duration": 0.4166670000000039
                },
                {
                    "name": "A#3",
                    "midi": 58,
                    "time": 102.08341499999995,
                    "velocity": 0.1732283464566929,
                    "duration": 0.4166670000000039
                },
                {
                    "name": "F3",
                    "midi": 53,
                    "time": 102.08341499999995,
                    "velocity": 0.1732283464566929,
                    "duration": 0.4166670000000039
                },
                {
                    "name": "F2",
                    "midi": 41,
                    "time": 102.50008199999995,
                    "velocity": 0.44881889763779526,
                    "duration": 0.20833349999999484
                },
                {
                    "name": "F3",
                    "midi": 53,
                    "time": 102.91674899999994,
                    "velocity": 0.30708661417322836,
                    "duration": 0.4166670000000039
                },
                {
                    "name": "D#4",
                    "midi": 63,
                    "time": 102.91674899999994,
                    "velocity": 0.3700787401574803,
                    "duration": 0.4166670000000039
                },
                {
                    "name": "F3",
                    "midi": 53,
                    "time": 103.33341599999994,
                    "velocity": 0.30708661417322836,
                    "duration": 0.4166670000000039
                },
                {
                    "name": "A3",
                    "midi": 57,
                    "time": 103.33341599999994,
                    "velocity": 0.30708661417322836,
                    "duration": 0.4166670000000039
                },
                {
                    "name": "D#4",
                    "midi": 63,
                    "time": 103.33341599999994,
                    "velocity": 0.36220472440944884,
                    "duration": 0.4166670000000039
                },
                {
                    "name": "A#2",
                    "midi": 46,
                    "time": 103.75008299999995,
                    "velocity": 0.44881889763779526,
                    "duration": 0.20833349999999484
                },
                {
                    "name": "F3",
                    "midi": 53,
                    "time": 104.16674999999994,
                    "velocity": 0.30708661417322836,
                    "duration": 0.4166670000000039
                },
                {
                    "name": "A#3",
                    "midi": 58,
                    "time": 104.16674999999994,
                    "velocity": 0.30708661417322836,
                    "duration": 0.4166670000000039
                },
                {
                    "name": "D4",
                    "midi": 62,
                    "time": 104.16674999999994,
                    "velocity": 0.3700787401574803,
                    "duration": 0.4166670000000039
                },
                {
                    "name": "A#2",
                    "midi": 46,
                    "time": 104.58341699999994,
                    "velocity": 0.3779527559055118,
                    "duration": 0.4166670000000039
                },
                {
                    "name": "F#2",
                    "midi": 42,
                    "time": 105.00008399999994,
                    "velocity": 0.1732283464566929,
                    "duration": 0.4166670000000039
                },
                {
                    "name": "C#3",
                    "midi": 49,
                    "time": 105.00008399999994,
                    "velocity": 0.2047244094488189,
                    "duration": 0.4166670000000039
                },
                {
                    "name": "F#2",
                    "midi": 42,
                    "time": 105.41675099999995,
                    "velocity": 0.15748031496062992,
                    "duration": 0.4166670000000039
                },
                {
                    "name": "C#3",
                    "midi": 49,
                    "time": 105.41675099999995,
                    "velocity": 0.18110236220472442,
                    "duration": 0.4166670000000039
                },
                {
                    "name": "F#2",
                    "midi": 42,
                    "time": 105.83341799999995,
                    "velocity": 0.15748031496062992,
                    "duration": 0.4166670000000039
                },
                {
                    "name": "C#3",
                    "midi": 49,
                    "time": 105.83341799999995,
                    "velocity": 0.18110236220472442,
                    "duration": 0.4166670000000039
                },
                {
                    "name": "F#2",
                    "midi": 42,
                    "time": 106.25008499999996,
                    "velocity": 0.1732283464566929,
                    "duration": 0.4166669999999897
                },
                {
                    "name": "C#3",
                    "midi": 49,
                    "time": 106.25008499999996,
                    "velocity": 0.2047244094488189,
                    "duration": 0.4166669999999897
                },
                {
                    "name": "F#2",
                    "midi": 42,
                    "time": 106.66675199999995,
                    "velocity": 0.15748031496062992,
                    "duration": 0.4166670000000039
                },
                {
                    "name": "C#3",
                    "midi": 49,
                    "time": 106.66675199999995,
                    "velocity": 0.18110236220472442,
                    "duration": 0.4166670000000039
                },
                {
                    "name": "F#2",
                    "midi": 42,
                    "time": 107.08341899999995,
                    "velocity": 0.15748031496062992,
                    "duration": 0.4166670000000039
                },
                {
                    "name": "C#3",
                    "midi": 49,
                    "time": 107.08341899999995,
                    "velocity": 0.18110236220472442,
                    "duration": 0.4166670000000039
                },
                {
                    "name": "F#2",
                    "midi": 42,
                    "time": 107.50008599999995,
                    "velocity": 0.1732283464566929,
                    "duration": 0.4166670000000181
                },
                {
                    "name": "C#3",
                    "midi": 49,
                    "time": 107.50008599999995,
                    "velocity": 0.2047244094488189,
                    "duration": 0.4166670000000181
                },
                {
                    "name": "F#2",
                    "midi": 42,
                    "time": 107.91675299999997,
                    "velocity": 0.15748031496062992,
                    "duration": 0.4166670000000039
                },
                {
                    "name": "C#3",
                    "midi": 49,
                    "time": 107.91675299999997,
                    "velocity": 0.18110236220472442,
                    "duration": 0.4166670000000039
                },
                {
                    "name": "F#2",
                    "midi": 42,
                    "time": 108.33341999999998,
                    "velocity": 0.15748031496062992,
                    "duration": 0.4166670000000039
                },
                {
                    "name": "C#3",
                    "midi": 49,
                    "time": 108.33341999999998,
                    "velocity": 0.18110236220472442,
                    "duration": 0.4166670000000039
                },
                {
                    "name": "F#2",
                    "midi": 42,
                    "time": 108.75008699999998,
                    "velocity": 0.1732283464566929,
                    "duration": 0.4166670000000039
                },
                {
                    "name": "C#3",
                    "midi": 49,
                    "time": 108.75008699999998,
                    "velocity": 0.2047244094488189,
                    "duration": 0.4166670000000039
                },
                {
                    "name": "F#2",
                    "midi": 42,
                    "time": 109.16675399999998,
                    "velocity": 0.15748031496062992,
                    "duration": 0.4166670000000039
                },
                {
                    "name": "C#3",
                    "midi": 49,
                    "time": 109.16675399999998,
                    "velocity": 0.18110236220472442,
                    "duration": 0.4166670000000039
                },
                {
                    "name": "F#2",
                    "midi": 42,
                    "time": 109.58342099999999,
                    "velocity": 0.15748031496062992,
                    "duration": 0.4166670000000039
                },
                {
                    "name": "C#3",
                    "midi": 49,
                    "time": 109.58342099999999,
                    "velocity": 0.18110236220472442,
                    "duration": 0.4166670000000039
                },
                {
                    "name": "F#2",
                    "midi": 42,
                    "time": 110.00008799999999,
                    "velocity": 0.1732283464566929,
                    "duration": 0.4166670000000181
                },
                {
                    "name": "C#3",
                    "midi": 49,
                    "time": 110.00008799999999,
                    "velocity": 0.2047244094488189,
                    "duration": 0.4166670000000181
                },
                {
                    "name": "F#2",
                    "midi": 42,
                    "time": 110.41675500000001,
                    "velocity": 0.15748031496062992,
                    "duration": 0.4166670000000039
                },
                {
                    "name": "C#3",
                    "midi": 49,
                    "time": 110.41675500000001,
                    "velocity": 0.18110236220472442,
                    "duration": 0.4166670000000039
                },
                {
                    "name": "F#2",
                    "midi": 42,
                    "time": 110.83342200000001,
                    "velocity": 0.15748031496062992,
                    "duration": 0.4166670000000039
                },
                {
                    "name": "C#3",
                    "midi": 49,
                    "time": 110.83342200000001,
                    "velocity": 0.18110236220472442,
                    "duration": 0.4166670000000039
                },
                {
                    "name": "F#2",
                    "midi": 42,
                    "time": 111.25008900000002,
                    "velocity": 0.1732283464566929,
                    "duration": 0.4166670000000039
                },
                {
                    "name": "C#3",
                    "midi": 49,
                    "time": 111.25008900000002,
                    "velocity": 0.2047244094488189,
                    "duration": 0.4166670000000039
                },
                {
                    "name": "F#2",
                    "midi": 42,
                    "time": 111.66675600000002,
                    "velocity": 0.15748031496062992,
                    "duration": 0.4166670000000039
                },
                {
                    "name": "C#3",
                    "midi": 49,
                    "time": 111.66675600000002,
                    "velocity": 0.18110236220472442,
                    "duration": 0.4166670000000039
                },
                {
                    "name": "F#2",
                    "midi": 42,
                    "time": 112.08342300000002,
                    "velocity": 0.15748031496062992,
                    "duration": 0.4166670000000039
                },
                {
                    "name": "C#3",
                    "midi": 49,
                    "time": 112.08342300000002,
                    "velocity": 0.18110236220472442,
                    "duration": 0.4166670000000039
                },
                {
                    "name": "F#2",
                    "midi": 42,
                    "time": 112.50009000000003,
                    "velocity": 0.1732283464566929,
                    "duration": 0.4166670000000181
                },
                {
                    "name": "C#3",
                    "midi": 49,
                    "time": 112.50009000000003,
                    "velocity": 0.2047244094488189,
                    "duration": 0.4166670000000181
                },
                {
                    "name": "F#2",
                    "midi": 42,
                    "time": 112.91675700000005,
                    "velocity": 0.15748031496062992,
                    "duration": 0.4166670000000039
                },
                {
                    "name": "C#3",
                    "midi": 49,
                    "time": 112.91675700000005,
                    "velocity": 0.18110236220472442,
                    "duration": 0.4166670000000039
                },
                {
                    "name": "F#2",
                    "midi": 42,
                    "time": 113.33342400000005,
                    "velocity": 0.15748031496062992,
                    "duration": 0.4166670000000039
                },
                {
                    "name": "C#3",
                    "midi": 49,
                    "time": 113.33342400000005,
                    "velocity": 0.18110236220472442,
                    "duration": 0.4166670000000039
                },
                {
                    "name": "F2",
                    "midi": 41,
                    "time": 113.75009100000005,
                    "velocity": 0.1732283464566929,
                    "duration": 1.2500009999999833
                },
                {
                    "name": "C#3",
                    "midi": 49,
                    "time": 113.75009100000005,
                    "velocity": 0.2047244094488189,
                    "duration": 0.4166669999999897
                },
                {
                    "name": "C3",
                    "midi": 48,
                    "time": 114.16675800000004,
                    "velocity": 0.18110236220472442,
                    "duration": 0.8333339999999936
                },
                {
                    "name": "F2",
                    "midi": 41,
                    "time": 115.00009200000004,
                    "velocity": 0.5511811023622047,
                    "duration": 0.20833350000000905
                },
                {
                    "name": "D#4",
                    "midi": 63,
                    "time": 115.41675900000004,
                    "velocity": 0.4645669291338583,
                    "duration": 0.4166670000000039
                },
                {
                    "name": "C4",
                    "midi": 60,
                    "time": 115.41675900000004,
                    "velocity": 0.3937007874015748,
                    "duration": 0.4166670000000039
                },
                {
                    "name": "F3",
                    "midi": 53,
                    "time": 115.41675900000004,
                    "velocity": 0.3937007874015748,
                    "duration": 0.4166670000000039
                },
                {
                    "name": "D#4",
                    "midi": 63,
                    "time": 115.83342600000005,
                    "velocity": 0.47244094488188976,
                    "duration": 0.4166670000000039
                },
                {
                    "name": "C4",
                    "midi": 60,
                    "time": 115.83342600000005,
                    "velocity": 0.4015748031496063,
                    "duration": 0.4166670000000039
                },
                {
                    "name": "F3",
                    "midi": 53,
                    "time": 115.83342600000005,
                    "velocity": 0.4015748031496063,
                    "duration": 0.4166670000000039
                },
                {
                    "name": "A#2",
                    "midi": 46,
                    "time": 116.25009300000005,
                    "velocity": 0.5511811023622047,
                    "duration": 0.20833350000000905
                },
                {
                    "name": "D4",
                    "midi": 62,
                    "time": 116.66676000000005,
                    "velocity": 0.4094488188976378,
                    "duration": 0.4166670000000039
                },
                {
                    "name": "A#3",
                    "midi": 58,
                    "time": 116.66676000000005,
                    "velocity": 0.4094488188976378,
                    "duration": 0.4166670000000039
                },
                {
                    "name": "F3",
                    "midi": 53,
                    "time": 116.66676000000005,
                    "velocity": 0.4094488188976378,
                    "duration": 0.4166670000000039
                },
                {
                    "name": "A#2",
                    "midi": 46,
                    "time": 117.08342700000006,
                    "velocity": 0.4881889763779528,
                    "duration": 0.20833349999999484
                },
                {
                    "name": "D#2",
                    "midi": 39,
                    "time": 117.50009400000005,
                    "velocity": 0.5354330708661418,
                    "duration": 0.33854193750001116
                },
                {
                    "name": "D#3",
                    "midi": 51,
                    "time": 117.50009400000005,
                    "velocity": 0.6299212598425197,
                    "duration": 0.33854193750001116
                },
                {
                    "name": "G3",
                    "midi": 55,
                    "time": 117.83863593750006,
                    "velocity": 0.4645669291338583,
                    "duration": 0.49479206249999663
                },
                {
                    "name": "A#3",
                    "midi": 58,
                    "time": 117.86467762500006,
                    "velocity": 0.4645669291338583,
                    "duration": 0.46875037499999905
                },
                {
                    "name": "D#4",
                    "midi": 63,
                    "time": 117.89071931250005,
                    "velocity": 0.4645669291338583,
                    "duration": 0.4427086875000015
                },
                {
                    "name": "G4",
                    "midi": 67,
                    "time": 117.91676100000005,
                    "velocity": 0.5511811023622047,
                    "duration": 0.4166670000000039
                },
                {
                    "name": "A#2",
                    "midi": 46,
                    "time": 118.75009500000006,
                    "velocity": 0.3779527559055118,
                    "duration": 0.20833349999999484
                },
                {
                    "name": "D4",
                    "midi": 62,
                    "time": 119.16676200000005,
                    "velocity": 0.2440944881889764,
                    "duration": 0.4166670000000039
                },
                {
                    "name": "A#3",
                    "midi": 58,
                    "time": 119.16676200000005,
                    "velocity": 0.2125984251968504,
                    "duration": 0.4166670000000039
                },
                {
                    "name": "F3",
                    "midi": 53,
                    "time": 119.16676200000005,
                    "velocity": 0.2125984251968504,
                    "duration": 0.4166670000000039
                },
                {
                    "name": "D4",
                    "midi": 62,
                    "time": 119.58342900000005,
                    "velocity": 0.2283464566929134,
                    "duration": 0.4166670000000039
                },
                {
                    "name": "A#3",
                    "midi": 58,
                    "time": 119.58342900000005,
                    "velocity": 0.1889763779527559,
                    "duration": 0.4166670000000039
                },
                {
                    "name": "F3",
                    "midi": 53,
                    "time": 119.58342900000005,
                    "velocity": 0.1889763779527559,
                    "duration": 0.4166670000000039
                },
                {
                    "name": "F2",
                    "midi": 41,
                    "time": 120.00009600000006,
                    "velocity": 0.3543307086614173,
                    "duration": 0.20833350000000905
                },
                {
                    "name": "D#4",
                    "midi": 63,
                    "time": 120.41676300000006,
                    "velocity": 0.23622047244094488,
                    "duration": 0.4166670000000039
                },
                {
                    "name": "C4",
                    "midi": 60,
                    "time": 120.41676300000006,
                    "velocity": 0.2047244094488189,
                    "duration": 0.4166670000000039
                },
                {
                    "name": "F3",
                    "midi": 53,
                    "time": 120.41676300000006,
                    "velocity": 0.2047244094488189,
                    "duration": 0.4166670000000039
                },
                {
                    "name": "D#4",
                    "midi": 63,
                    "time": 120.83343000000006,
                    "velocity": 0.2204724409448819,
                    "duration": 0.4166670000000039
                },
                {
                    "name": "C4",
                    "midi": 60,
                    "time": 120.83343000000006,
                    "velocity": 0.18110236220472442,
                    "duration": 0.4166670000000039
                },
                {
                    "name": "F3",
                    "midi": 53,
                    "time": 120.83343000000006,
                    "velocity": 0.18110236220472442,
                    "duration": 0.4166670000000039
                },
                {
                    "name": "A#2",
                    "midi": 46,
                    "time": 121.25009700000007,
                    "velocity": 0.3779527559055118,
                    "duration": 0.20833349999999484
                },
                {
                    "name": "D4",
                    "midi": 62,
                    "time": 121.66676400000006,
                    "velocity": 0.2440944881889764,
                    "duration": 0.4166670000000039
                },
                {
                    "name": "A#3",
                    "midi": 58,
                    "time": 121.66676400000006,
                    "velocity": 0.2125984251968504,
                    "duration": 0.4166670000000039
                },
                {
                    "name": "F3",
                    "midi": 53,
                    "time": 121.66676400000006,
                    "velocity": 0.2125984251968504,
                    "duration": 0.4166670000000039
                },
                {
                    "name": "D4",
                    "midi": 62,
                    "time": 122.08343100000006,
                    "velocity": 0.2283464566929134,
                    "duration": 0.4166670000000039
                },
                {
                    "name": "A#3",
                    "midi": 58,
                    "time": 122.08343100000006,
                    "velocity": 0.1889763779527559,
                    "duration": 0.4166670000000039
                },
                {
                    "name": "F3",
                    "midi": 53,
                    "time": 122.08343100000006,
                    "velocity": 0.1889763779527559,
                    "duration": 0.4166670000000039
                },
                {
                    "name": "F2",
                    "midi": 41,
                    "time": 122.50009800000007,
                    "velocity": 0.44881889763779526,
                    "duration": 0.20833350000000905
                },
                {
                    "name": "F3",
                    "midi": 53,
                    "time": 122.91676500000007,
                    "velocity": 0.30708661417322836,
                    "duration": 0.4166670000000039
                },
                {
                    "name": "D#4",
                    "midi": 63,
                    "time": 122.91676500000007,
                    "velocity": 0.3700787401574803,
                    "duration": 0.4166670000000039
                },
                {
                    "name": "F3",
                    "midi": 53,
                    "time": 123.33343200000007,
                    "velocity": 0.30708661417322836,
                    "duration": 0.4166670000000039
                },
                {
                    "name": "A3",
                    "midi": 57,
                    "time": 123.33343200000007,
                    "velocity": 0.30708661417322836,
                    "duration": 0.4166670000000039
                },
                {
                    "name": "D#4",
                    "midi": 63,
                    "time": 123.33343200000007,
                    "velocity": 0.36220472440944884,
                    "duration": 0.4166670000000039
                },
                {
                    "name": "A#2",
                    "midi": 46,
                    "time": 123.75009900000008,
                    "velocity": 0.4015748031496063,
                    "duration": 0.20833350000000905
                },
                {
                    "name": "F3",
                    "midi": 53,
                    "time": 124.16676600000008,
                    "velocity": 0.2440944881889764,
                    "duration": 0.4166670000000039
                },
                {
                    "name": "A#3",
                    "midi": 58,
                    "time": 124.16676600000008,
                    "velocity": 0.2440944881889764,
                    "duration": 0.4166670000000039
                },
                {
                    "name": "D4",
                    "midi": 62,
                    "time": 124.16676600000008,
                    "velocity": 0.29133858267716534,
                    "duration": 0.4166670000000039
                },
                {
                    "name": "F3",
                    "midi": 53,
                    "time": 124.58343300000008,
                    "velocity": 0.2440944881889764,
                    "duration": 0.4166670000000039
                },
                {
                    "name": "A#3",
                    "midi": 58,
                    "time": 124.58343300000008,
                    "velocity": 0.2440944881889764,
                    "duration": 0.4166670000000039
                },
                {
                    "name": "D4",
                    "midi": 62,
                    "time": 124.58343300000008,
                    "velocity": 0.28346456692913385,
                    "duration": 0.4166670000000039
                },
                {
                    "name": "A#2",
                    "midi": 46,
                    "time": 125.00010000000009,
                    "velocity": 0.31496062992125984,
                    "duration": 0.20833349999999484
                },
                {
                    "name": "D#4",
                    "midi": 63,
                    "time": 125.41676700000008,
                    "velocity": 0.2125984251968504,
                    "duration": 0.4166670000000039
                },
                {
                    "name": "C4",
                    "midi": 60,
                    "time": 125.41676700000008,
                    "velocity": 0.1732283464566929,
                    "duration": 0.4166670000000039
                },
                {
                    "name": "F3",
                    "midi": 53,
                    "time": 125.41676700000008,
                    "velocity": 0.1732283464566929,
                    "duration": 0.4166670000000039
                },
                {
                    "name": "D#4",
                    "midi": 63,
                    "time": 125.83343400000008,
                    "velocity": 0.1968503937007874,
                    "duration": 0.4166670000000039
                },
                {
                    "name": "C4",
                    "midi": 60,
                    "time": 125.83343400000008,
                    "velocity": 0.16535433070866143,
                    "duration": 0.4166670000000039
                },
                {
                    "name": "F3",
                    "midi": 53,
                    "time": 125.83343400000008,
                    "velocity": 0.16535433070866143,
                    "duration": 0.4166670000000039
                },
                {
                    "name": "A#2",
                    "midi": 46,
                    "time": 126.25010100000009,
                    "velocity": 0.33858267716535434,
                    "duration": 0.20833349999999484
                },
                {
                    "name": "D4",
                    "midi": 62,
                    "time": 126.66676800000008,
                    "velocity": 0.2204724409448819,
                    "duration": 0.4166670000000039
                },
                {
                    "name": "A#3",
                    "midi": 58,
                    "time": 126.66676800000008,
                    "velocity": 0.18110236220472442,
                    "duration": 0.4166670000000039
                },
                {
                    "name": "F3",
                    "midi": 53,
                    "time": 126.66676800000008,
                    "velocity": 0.18110236220472442,
                    "duration": 0.4166670000000039
                },
                {
                    "name": "D4",
                    "midi": 62,
                    "time": 127.08343500000008,
                    "velocity": 0.2047244094488189,
                    "duration": 0.4166670000000039
                },
                {
                    "name": "A#3",
                    "midi": 58,
                    "time": 127.08343500000008,
                    "velocity": 0.1732283464566929,
                    "duration": 0.4166670000000039
                },
                {
                    "name": "F3",
                    "midi": 53,
                    "time": 127.08343500000008,
                    "velocity": 0.1732283464566929,
                    "duration": 0.4166670000000039
                },
                {
                    "name": "F2",
                    "midi": 41,
                    "time": 127.50010200000008,
                    "velocity": 0.44881889763779526,
                    "duration": 0.20833349999999484
                },
                {
                    "name": "F3",
                    "midi": 53,
                    "time": 127.91676900000007,
                    "velocity": 0.3228346456692913,
                    "duration": 0.4166669999999897
                },
                {
                    "name": "D#4",
                    "midi": 63,
                    "time": 127.91676900000007,
                    "velocity": 0.3858267716535433,
                    "duration": 0.4166669999999897
                },
                {
                    "name": "F3",
                    "midi": 53,
                    "time": 128.33343600000006,
                    "velocity": 0.3464566929133858,
                    "duration": 0.4166669999999897
                },
                {
                    "name": "A3",
                    "midi": 57,
                    "time": 128.33343600000006,
                    "velocity": 0.3464566929133858,
                    "duration": 0.4166669999999897
                },
                {
                    "name": "D#4",
                    "midi": 63,
                    "time": 128.33343600000006,
                    "velocity": 0.4015748031496063,
                    "duration": 0.4166669999999897
                },
                {
                    "name": "A#2",
                    "midi": 46,
                    "time": 128.75010300000005,
                    "velocity": 0.5354330708661418,
                    "duration": 0.4166669999999897
                },
                {
                    "name": "A#2",
                    "midi": 46,
                    "time": 129.16677000000004,
                    "velocity": 0.36220472440944884,
                    "duration": 0.8333340000000078
                },
                {
                    "name": "F3",
                    "midi": 53,
                    "time": 129.16677000000004,
                    "velocity": 0.36220472440944884,
                    "duration": 0.8333340000000078
                },
                {
                    "name": "D4",
                    "midi": 62,
                    "time": 129.16677000000004,
                    "velocity": 0.4409448818897638,
                    "duration": 0.8333340000000078
                }
            ],
            "controlChanges": {
                "7": [
                    {
                        "number": 7,
                        "time": 0,
                        "value": 0.7874015748031497
                    }
                ],
                "10": [
                    {
                        "number": 10,
                        "time": 0,
                        "value": 0.5039370078740157
                    }
                ],
                "64": [
                    {
                        "number": 64,
                        "time": 0.0364583625,
                        "value": 1
                    },
                    {
                        "number": 64,
                        "time": 0.83941039375,
                        "value": 0
                    },
                    {
                        "number": 64,
                        "time": 1.3723969312500002,
                        "value": 1
                    },
                    {
                        "number": 64,
                        "time": 2.0954877874999998,
                        "value": 0
                    },
                    {
                        "number": 64,
                        "time": 2.5677103875,
                        "value": 1
                    },
                    {
                        "number": 64,
                        "time": 3.3411485062499993,
                        "value": 0
                    },
                    {
                        "number": 64,
                        "time": 3.7656280124999992,
                        "value": 1
                    },
                    {
                        "number": 64,
                        "time": 4.589413393749999,
                        "value": 0
                    },
                    {
                        "number": 64,
                        "time": 5.0399345874999995,
                        "value": 1
                    },
                    {
                        "number": 64,
                        "time": 5.84028245,
                        "value": 0
                    },
                    {
                        "number": 64,
                        "time": 6.3237897812499995,
                        "value": 1
                    },
                    {
                        "number": 64,
                        "time": 7.0920195625,
                        "value": 0
                    },
                    {
                        "number": 64,
                        "time": 7.5642421625,
                        "value": 1
                    },
                    {
                        "number": 64,
                        "time": 8.343756675,
                        "value": 0
                    },
                    {
                        "number": 64,
                        "time": 8.8055626,
                        "value": 1
                    },
                    {
                        "number": 64,
                        "time": 9.593757675,
                        "value": 0
                    },
                    {
                        "number": 64,
                        "time": 10.039938587500002,
                        "value": 1
                    },
                    {
                        "number": 64,
                        "time": 10.836814225000001,
                        "value": 0
                    },
                    {
                        "number": 64,
                        "time": 11.323793781250002,
                        "value": 1
                    },
                    {
                        "number": 64,
                        "time": 12.510426675000003,
                        "value": 0
                    },
                    {
                        "number": 64,
                        "time": 12.564246162500003,
                        "value": 1
                    },
                    {
                        "number": 64,
                        "time": 13.336816225000003,
                        "value": 0
                    },
                    {
                        "number": 64,
                        "time": 13.379350981250003,
                        "value": 1
                    },
                    {
                        "number": 64,
                        "time": 13.750011000000002,
                        "value": 0
                    },
                    {
                        "number": 64,
                        "time": 13.872406931250003,
                        "value": 1
                    },
                    {
                        "number": 64,
                        "time": 14.590289450000004,
                        "value": 0
                    },
                    {
                        "number": 64,
                        "time": 15.104178750000003,
                        "value": 1
                    },
                    {
                        "number": 64,
                        "time": 15.839422393750002,
                        "value": 0
                    },
                    {
                        "number": 64,
                        "time": 16.372408931250003,
                        "value": 1
                    },
                    {
                        "number": 64,
                        "time": 17.098972012500003,
                        "value": 0
                    },
                    {
                        "number": 64,
                        "time": 17.5677223875,
                        "value": 1
                    },
                    {
                        "number": 64,
                        "time": 18.343764675000003,
                        "value": 0
                    },
                    {
                        "number": 64,
                        "time": 18.80817476875,
                        "value": 1
                    },
                    {
                        "number": 64,
                        "time": 19.5920295625,
                        "value": 0
                    },
                    {
                        "number": 64,
                        "time": 20.039946587499998,
                        "value": 1
                    },
                    {
                        "number": 64,
                        "time": 20.842898618749995,
                        "value": 0
                    },
                    {
                        "number": 64,
                        "time": 21.323801781249998,
                        "value": 1
                    },
                    {
                        "number": 64,
                        "time": 22.505226337499998,
                        "value": 0
                    },
                    {
                        "number": 64,
                        "time": 22.5642541625,
                        "value": 1
                    },
                    {
                        "number": 64,
                        "time": 23.343768674999996,
                        "value": 0
                    },
                    {
                        "number": 64,
                        "time": 23.805574599999996,
                        "value": 1
                    },
                    {
                        "number": 64,
                        "time": 24.592033562499996,
                        "value": 0
                    },
                    {
                        "number": 64,
                        "time": 25.039950587499995,
                        "value": 1
                    },
                    {
                        "number": 64,
                        "time": 25.84377067499999,
                        "value": 0
                    },
                    {
                        "number": 64,
                        "time": 26.32380578124999,
                        "value": 1
                    },
                    {
                        "number": 64,
                        "time": 27.50696644999999,
                        "value": 0
                    },
                    {
                        "number": 64,
                        "time": 27.56425816249999,
                        "value": 1
                    },
                    {
                        "number": 64,
                        "time": 28.345508787499988,
                        "value": 0
                    },
                    {
                        "number": 64,
                        "time": 28.388911599999986,
                        "value": 1
                    },
                    {
                        "number": 64,
                        "time": 28.753495224999984,
                        "value": 0
                    },
                    {
                        "number": 64,
                        "time": 28.848113356249986,
                        "value": 1
                    },
                    {
                        "number": 64,
                        "time": 29.592905618749985,
                        "value": 0
                    },
                    {
                        "number": 64,
                        "time": 36.691001575,
                        "value": 1
                    },
                    {
                        "number": 64,
                        "time": 37.08683522500001,
                        "value": 0
                    },
                    {
                        "number": 64,
                        "time": 39.30471894375001,
                        "value": 1
                    },
                    {
                        "number": 64,
                        "time": 40.000032000000004,
                        "value": 0
                    },
                    {
                        "number": 64,
                        "time": 40.10419875,
                        "value": 1
                    },
                    {
                        "number": 64,
                        "time": 40.83944239375,
                        "value": 0
                    },
                    {
                        "number": 64,
                        "time": 41.37242893124999,
                        "value": 1
                    },
                    {
                        "number": 64,
                        "time": 42.09986006874999,
                        "value": 0
                    },
                    {
                        "number": 64,
                        "time": 42.56774238749999,
                        "value": 1
                    },
                    {
                        "number": 64,
                        "time": 43.34378467499998,
                        "value": 0
                    },
                    {
                        "number": 64,
                        "time": 43.814271162499985,
                        "value": 1
                    },
                    {
                        "number": 64,
                        "time": 44.59118150624998,
                        "value": 0
                    },
                    {
                        "number": 64,
                        "time": 45.03996658749998,
                        "value": 1
                    },
                    {
                        "number": 64,
                        "time": 45.84205056249998,
                        "value": 0
                    },
                    {
                        "number": 64,
                        "time": 46.323821781249976,
                        "value": 1
                    },
                    {
                        "number": 64,
                        "time": 47.50437828124997,
                        "value": 0
                    },
                    {
                        "number": 64,
                        "time": 47.56427416249997,
                        "value": 1
                    },
                    {
                        "number": 64,
                        "time": 48.34465673124997,
                        "value": 0
                    },
                    {
                        "number": 64,
                        "time": 48.80559459999997,
                        "value": 1
                    },
                    {
                        "number": 64,
                        "time": 49.59465773124997,
                        "value": 0
                    },
                    {
                        "number": 64,
                        "time": 50.03997058749997,
                        "value": 1
                    },
                    {
                        "number": 64,
                        "time": 50.83858233749997,
                        "value": 0
                    },
                    {
                        "number": 64,
                        "time": 51.32382578124997,
                        "value": 1
                    },
                    {
                        "number": 64,
                        "time": 52.50264616874996,
                        "value": 0
                    },
                    {
                        "number": 64,
                        "time": 52.56427816249996,
                        "value": 1
                    },
                    {
                        "number": 64,
                        "time": 53.34292461874996,
                        "value": 0
                    },
                    {
                        "number": 64,
                        "time": 53.382855206249964,
                        "value": 1
                    },
                    {
                        "number": 64,
                        "time": 53.75611939374996,
                        "value": 0
                    },
                    {
                        "number": 64,
                        "time": 53.81167499374996,
                        "value": 1
                    },
                    {
                        "number": 64,
                        "time": 54.589453393749956,
                        "value": 0
                    },
                    {
                        "number": 64,
                        "time": 61.68494518124995,
                        "value": 1
                    },
                    {
                        "number": 64,
                        "time": 62.09119550624995,
                        "value": 0
                    },
                    {
                        "number": 64,
                        "time": 64.31428756249996,
                        "value": 1
                    },
                    {
                        "number": 64,
                        "time": 65.00352422499995,
                        "value": 0
                    },
                    {
                        "number": 64,
                        "time": 65.10421874999994,
                        "value": 1
                    },
                    {
                        "number": 64,
                        "time": 65.84293461874995,
                        "value": 0
                    },
                    {
                        "number": 64,
                        "time": 66.37244893124995,
                        "value": 1
                    },
                    {
                        "number": 64,
                        "time": 67.09727589999994,
                        "value": 0
                    },
                    {
                        "number": 64,
                        "time": 67.56776238749994,
                        "value": 1
                    },
                    {
                        "number": 64,
                        "time": 68.34206856249995,
                        "value": 0
                    },
                    {
                        "number": 64,
                        "time": 68.81168699374994,
                        "value": 1
                    },
                    {
                        "number": 64,
                        "time": 69.59206956249994,
                        "value": 0
                    },
                    {
                        "number": 64,
                        "time": 70.03998658749994,
                        "value": 1
                    },
                    {
                        "number": 64,
                        "time": 70.84293861874994,
                        "value": 0
                    },
                    {
                        "number": 64,
                        "time": 71.32384178124994,
                        "value": 1
                    },
                    {
                        "number": 64,
                        "time": 72.50353022499993,
                        "value": 0
                    },
                    {
                        "number": 64,
                        "time": 72.56429416249993,
                        "value": 1
                    },
                    {
                        "number": 64,
                        "time": 73.33860033749993,
                        "value": 0
                    },
                    {
                        "number": 64,
                        "time": 73.80561459999993,
                        "value": 1
                    },
                    {
                        "number": 64,
                        "time": 74.59467773124993,
                        "value": 0
                    },
                    {
                        "number": 64,
                        "time": 75.03999058749993,
                        "value": 1
                    },
                    {
                        "number": 64,
                        "time": 75.84120650624993,
                        "value": 0
                    },
                    {
                        "number": 64,
                        "time": 76.32384578124993,
                        "value": 1
                    },
                    {
                        "number": 64,
                        "time": 77.50006199999993,
                        "value": 0
                    },
                    {
                        "number": 64,
                        "time": 77.56429816249992,
                        "value": 1
                    },
                    {
                        "number": 64,
                        "time": 78.34120850624993,
                        "value": 0
                    },
                    {
                        "number": 64,
                        "time": 78.38547937499993,
                        "value": 1
                    },
                    {
                        "number": 64,
                        "time": 78.76221578749993,
                        "value": 0
                    },
                    {
                        "number": 64,
                        "time": 78.86030614374992,
                        "value": 1
                    },
                    {
                        "number": 64,
                        "time": 79.59902201249992,
                        "value": 0
                    },
                    {
                        "number": 64,
                        "time": 80.08600156874991,
                        "value": 1
                    },
                    {
                        "number": 64,
                        "time": 81.26482195624992,
                        "value": 0
                    },
                    {
                        "number": 64,
                        "time": 81.30562059999991,
                        "value": 1
                    },
                    {
                        "number": 64,
                        "time": 82.50267016874992,
                        "value": 0
                    },
                    {
                        "number": 64,
                        "time": 82.62853832499991,
                        "value": 1
                    },
                    {
                        "number": 64,
                        "time": 83.75267116874991,
                        "value": 0
                    },
                    {
                        "number": 64,
                        "time": 83.8663865374999,
                        "value": 1
                    },
                    {
                        "number": 64,
                        "time": 85.00354022499991,
                        "value": 0
                    },
                    {
                        "number": 64,
                        "time": 85.08600556874991,
                        "value": 1
                    },
                    {
                        "number": 64,
                        "time": 86.26482595624992,
                        "value": 0
                    },
                    {
                        "number": 64,
                        "time": 86.30562459999992,
                        "value": 1
                    },
                    {
                        "number": 64,
                        "time": 87.50614639374993,
                        "value": 0
                    },
                    {
                        "number": 64,
                        "time": 87.61031314374993,
                        "value": 1
                    },
                    {
                        "number": 64,
                        "time": 88.75354322499994,
                        "value": 0
                    },
                    {
                        "number": 64,
                        "time": 90.00007199999993,
                        "value": 0
                    },
                    {
                        "number": 64,
                        "time": 90.10423874999994,
                        "value": 1
                    },
                    {
                        "number": 64,
                        "time": 91.25788550624995,
                        "value": 0
                    },
                    {
                        "number": 64,
                        "time": 91.37246893124995,
                        "value": 1
                    },
                    {
                        "number": 64,
                        "time": 92.50528233749993,
                        "value": 0
                    },
                    {
                        "number": 64,
                        "time": 92.56778238749993,
                        "value": 1
                    },
                    {
                        "number": 64,
                        "time": 93.34382467499994,
                        "value": 0
                    },
                    {
                        "number": 64,
                        "time": 93.82646394999993,
                        "value": 1
                    },
                    {
                        "number": 64,
                        "time": 95.01483295624993,
                        "value": 0
                    },
                    {
                        "number": 64,
                        "time": 95.10424274999993,
                        "value": 1
                    },
                    {
                        "number": 64,
                        "time": 96.25441728124993,
                        "value": 0
                    },
                    {
                        "number": 64,
                        "time": 96.36639653749992,
                        "value": 1
                    },
                    {
                        "number": 64,
                        "time": 97.50702244999994,
                        "value": 0
                    },
                    {
                        "number": 64,
                        "time": 97.56431416249994,
                        "value": 1
                    },
                    {
                        "number": 64,
                        "time": 98.75615539374995,
                        "value": 0
                    },
                    {
                        "number": 64,
                        "time": 98.82994017499995,
                        "value": 1
                    },
                    {
                        "number": 64,
                        "time": 100.01396889999995,
                        "value": 0
                    },
                    {
                        "number": 64,
                        "time": 100.07646894999995,
                        "value": 1
                    },
                    {
                        "number": 64,
                        "time": 101.25268516874995,
                        "value": 0
                    },
                    {
                        "number": 64,
                        "time": 101.37247693124995,
                        "value": 1
                    },
                    {
                        "number": 64,
                        "time": 102.50268616874995,
                        "value": 0
                    },
                    {
                        "number": 64,
                        "time": 102.56431816249994,
                        "value": 1
                    },
                    {
                        "number": 64,
                        "time": 103.75355522499994,
                        "value": 0
                    },
                    {
                        "number": 64,
                        "time": 103.86032614374994,
                        "value": 1
                    },
                    {
                        "number": 64,
                        "time": 104.59470173124994,
                        "value": 0
                    },
                    {
                        "number": 64,
                        "time": 105.08602156874994,
                        "value": 1
                    },
                    {
                        "number": 64,
                        "time": 106.26484195624995,
                        "value": 0
                    },
                    {
                        "number": 64,
                        "time": 106.30564059999995,
                        "value": 1
                    },
                    {
                        "number": 64,
                        "time": 107.50616239374996,
                        "value": 0
                    },
                    {
                        "number": 64,
                        "time": 107.57387078124997,
                        "value": 1
                    },
                    {
                        "number": 64,
                        "time": 108.75616339374999,
                        "value": 0
                    },
                    {
                        "number": 64,
                        "time": 108.85425374999998,
                        "value": 1
                    },
                    {
                        "number": 64,
                        "time": 110.00616439375,
                        "value": 0
                    },
                    {
                        "number": 64,
                        "time": 110.08602556875,
                        "value": 1
                    },
                    {
                        "number": 64,
                        "time": 111.26484595625001,
                        "value": 0
                    },
                    {
                        "number": 64,
                        "time": 111.35772797500002,
                        "value": 1
                    },
                    {
                        "number": 64,
                        "time": 112.50616639375004,
                        "value": 0
                    },
                    {
                        "number": 64,
                        "time": 112.62248593125004,
                        "value": 1
                    },
                    {
                        "number": 64,
                        "time": 113.75529933750005,
                        "value": 0
                    },
                    {
                        "number": 64,
                        "time": 115.00703645000004,
                        "value": 0
                    },
                    {
                        "number": 64,
                        "time": 115.10425875000004,
                        "value": 1
                    },
                    {
                        "number": 64,
                        "time": 116.25616939375006,
                        "value": 0
                    },
                    {
                        "number": 64,
                        "time": 116.37248893125006,
                        "value": 1
                    },
                    {
                        "number": 64,
                        "time": 117.50617039375005,
                        "value": 0
                    },
                    {
                        "number": 64,
                        "time": 117.56780238750005,
                        "value": 1
                    },
                    {
                        "number": 64,
                        "time": 118.34384467500006,
                        "value": 0
                    },
                    {
                        "number": 64,
                        "time": 118.79957420625006,
                        "value": 1
                    },
                    {
                        "number": 64,
                        "time": 120.01832518125006,
                        "value": 0
                    },
                    {
                        "number": 64,
                        "time": 120.08603356875007,
                        "value": 1
                    },
                    {
                        "number": 64,
                        "time": 121.25530533750006,
                        "value": 0
                    },
                    {
                        "number": 64,
                        "time": 121.37856932500006,
                        "value": 1
                    },
                    {
                        "number": 64,
                        "time": 122.50704245000007,
                        "value": 0
                    },
                    {
                        "number": 64,
                        "time": 122.56433416250007,
                        "value": 1
                    },
                    {
                        "number": 64,
                        "time": 123.75791150625008,
                        "value": 0
                    },
                    {
                        "number": 64,
                        "time": 123.80565460000008,
                        "value": 1
                    },
                    {
                        "number": 64,
                        "time": 125.01659306875008,
                        "value": 0
                    },
                    {
                        "number": 64,
                        "time": 125.07996117500008,
                        "value": 1
                    },
                    {
                        "number": 64,
                        "time": 126.25444128125008,
                        "value": 0
                    },
                    {
                        "number": 64,
                        "time": 126.40374695625007,
                        "value": 1
                    },
                    {
                        "number": 64,
                        "time": 127.50270616875008,
                        "value": 0
                    },
                    {
                        "number": 64,
                        "time": 127.56433816250008,
                        "value": 1
                    },
                    {
                        "number": 64,
                        "time": 128.75010300000005,
                        "value": 0
                    },
                    {
                        "number": 64,
                        "time": 128.89767256250005,
                        "value": 1
                    },
                    {
                        "number": 64,
                        "time": 130.32475703750006,
                        "value": 0
                    }
                ]
            },
            "id": 2,
            "name": "Piano left",
            "instrumentNumber": 0,
            "instrument": "acoustic grand piano",
            "instrumentFamily": "piano",
            "channelNumber": 0,
            "isPercussion": false
        },
        {
            "startTime": 0,
            "duration": 0,
            "length": 0,
            "notes": [],
            "controlChanges": {},
            "id": 3,
            "name": "Chopin: Mazurka Opus 7 No 1"
        },
        {
            "startTime": 0,
            "duration": 0,
            "length": 0,
            "notes": [],
            "controlChanges": {},
            "id": 4,
            "name": "Copyright  2003 by Bernd Krueger"
        },
        {
            "startTime": 0,
            "duration": 0,
            "length": 0,
            "notes": [],
            "controlChanges": {},
            "id": 5,
            "name": "http://www.piano-midi.de"
        },
        {
            "startTime": 0,
            "duration": 0,
            "length": 0,
            "notes": [],
            "controlChanges": {},
            "id": 6,
            "name": "Edition: 2014-02-11"
        },
        {
            "startTime": 0,
            "duration": 0,
            "length": 0,
            "notes": [],
            "controlChanges": {},
            "id": 7,
            "name": "Spur 7"
        }
    ]
}